<?xml version="1.0" encoding="UTF-8" standalone="no"?>
<!-- Created with Inkscape (http://www.inkscape.org/) -->

<svg
   xmlns:dc="http://purl.org/dc/elements/1.1/"
   xmlns:cc="http://creativecommons.org/ns#"
   xmlns:rdf="http://www.w3.org/1999/02/22-rdf-syntax-ns#"
   xmlns:svg="http://www.w3.org/2000/svg"
   xmlns="http://www.w3.org/2000/svg"
   xmlns:sodipodi="http://sodipodi.sourceforge.net/DTD/sodipodi-0.dtd"
   xmlns:inkscape="http://www.inkscape.org/namespaces/inkscape"
   width="744.09448"
   height="1052.3622"
   id="svg2"
   version="1.1"
   inkscape:version="0.48.0 r9654"
   sodipodi:docname="bat.svg"
   style="display:inline">
  <defs
     id="defs4" />
  <sodipodi:namedview
     id="base"
     pagecolor="#ffffff"
     bordercolor="#666666"
     borderopacity="1.0"
     inkscape:pageopacity="0.0"
     inkscape:pageshadow="2"
     inkscape:zoom="0.47227087"
     inkscape:cx="372.04724"
     inkscape:cy="526.18109"
     inkscape:document-units="px"
     inkscape:current-layer="layer3"
     showgrid="false"
     inkscape:window-width="1280"
     inkscape:window-height="716"
     inkscape:window-x="-8"
     inkscape:window-y="-8"
     inkscape:window-maximized="1" />
  <metadata
     id="metadata7">
    <rdf:RDF>
      <cc:Work
         rdf:about="">
        <dc:format>image/svg+xml</dc:format>
        <dc:type
           rdf:resource="http://purl.org/dc/dcmitype/StillImage" />
        <dc:title></dc:title>
        <dc:description>http://imgsrc.baidu.com/baike/pic/item/9c57e3fa193c36f9b48f31b2.jpg
http://pica.nipic.com/2008-07-17/200871793057495_2.jpg
</dc:description>
      </cc:Work>
    </rdf:RDF>
  </metadata>
  <g
     inkscape:groupmode="layer"
     id="layer3"
     inkscape:label="art">
    <g
       id="g3345"
       transform="translate(-314.15716,-596.10235)">
      <path
         inkscape:connector-curvature="0"
         id="path3232"
         d="m 478.03388,626.46935 c 0,0 11.42746,-10.10892 21.09686,0"
         style="color:#000000;fill:none;stroke:#ff0000;stroke-width:2;stroke-linecap:round;stroke-linejoin:miter;stroke-miterlimit:4;stroke-opacity:1;stroke-dasharray:none;stroke-dashoffset:0;marker:none;visibility:visible;display:inline;overflow:visible;enable-background:accumulate" />
      <path
         sodipodi:nodetypes="ccc"
         inkscape:connector-curvature="0"
         d="m 508.84463,673.93728 c 18.279,-12.48655 29.213,-74.63755 -20.26231,-76.91563 C 439.107,599.29973 450.041,661.45073 468.32,673.93728"
         style="color:#000000;fill:none;stroke:#ff0000;stroke-width:1.83859801;stroke-linecap:round;stroke-linejoin:miter;stroke-miterlimit:4;stroke-opacity:1;stroke-dasharray:none;stroke-dashoffset:0;marker:none;visibility:visible;display:inline;overflow:visible;enable-background:accumulate"
         id="path3243" />
      <path
         style="color:#000000;fill:none;stroke:#ff0000;stroke-width:2;stroke-linecap:round;stroke-linejoin:miter;stroke-miterlimit:4;stroke-opacity:1;stroke-dasharray:none;stroke-dashoffset:0;marker:none;visibility:visible;display:inline;overflow:visible;enable-background:accumulate"
         d="m 478.03388,642.293 c 0,0 11.42746,-10.10892 21.09686,0"
         id="path3281"
         inkscape:connector-curvature="0" />
      <path
         inkscape:connector-curvature="0"
         id="path3283"
         d="m 478.03388,655.12299 c 0,0 11.42746,-10.10892 21.09686,0"
         style="color:#000000;fill:none;stroke:#ff0000;stroke-width:2;stroke-linecap:round;stroke-linejoin:miter;stroke-miterlimit:4;stroke-opacity:1;stroke-dasharray:none;stroke-dashoffset:0;marker:none;visibility:visible;display:inline;overflow:visible;enable-background:accumulate" />
      <path
         sodipodi:nodetypes="cccccc"
         inkscape:connector-curvature="0"
         d="m 433.13585,670.42113 c 15.82266,34.72192 55.44646,53.62119 55.44646,53.62119 0,0 39.62381,-18.89927 55.44647,-53.62119 -5.71374,-7.91132 -25.05253,2.1976 -26.41351,10.44256 -16.40319,-16.8606 -41.61889,-16.89989 -58.06591,-0.0445 -1.36098,-8.20046 -20.69977,-18.30938 -26.41351,-10.39806 z"
         style="color:#000000;fill:none;stroke:#ff0000;stroke-width:2;stroke-linecap:round;stroke-linejoin:miter;stroke-miterlimit:4;stroke-opacity:1;stroke-dasharray:none;stroke-dashoffset:0;marker:none;visibility:visible;display:inline;overflow:visible;enable-background:accumulate"
         id="path3292" />
      <g
         transform="translate(0.84267,0)"
         id="g3318">
        <g
           id="g3308">
          <path
             sodipodi:nodetypes="ccccc"
             inkscape:connector-curvature="0"
             d="m 526.88491,721.34845 c 0,0 -4.70433,-11.54699 -12.82998,-12.40233 8.12565,-4.27666 17.53431,-3.42133 17.53431,-3.42133 m -14.54065,21.81099 c 0,0 1.71066,-11.547 -4.27667,-19.24499"
             style="color:#000000;fill:none;stroke:#ff0000;stroke-width:2;stroke-linecap:round;stroke-linejoin:miter;stroke-miterlimit:4;stroke-opacity:1;stroke-dasharray:none;stroke-dashoffset:0;marker:none;visibility:visible;display:inline;overflow:visible;enable-background:accumulate"
             id="path3289" />
          <path
             transform="matrix(0.60642467,0,0,0.60642467,197.0772,272.44854)"
             d="m 533.5747,704.70355 c 0,7.52491 -6.10014,13.62506 -13.62505,13.62506 -7.52491,0 -13.62506,-6.10015 -13.62506,-13.62506 0,-7.52491 6.10015,-13.62505 13.62506,-13.62505 7.52491,0 13.62505,6.10014 13.62505,13.62505 z"
             sodipodi:ry="13.625054"
             sodipodi:rx="13.625054"
             sodipodi:cy="704.70355"
             sodipodi:cx="519.94965"
             id="path3266"
             style="color:#000000;fill:#ffffff;stroke:#ff0000;stroke-width:2.5211041;stroke-linecap:round;stroke-linejoin:miter;stroke-miterlimit:4;stroke-opacity:1;stroke-dasharray:none;stroke-dashoffset:0;marker:none;visibility:visible;display:inline;overflow:visible;enable-background:accumulate"
             sodipodi:type="arc" />
        </g>
        <g
           id="g3312"
           transform="matrix(-1,0,0,1,975.47929,0)">
          <path
             id="path3314"
             style="color:#000000;fill:none;stroke:#ff0000;stroke-width:2;stroke-linecap:round;stroke-linejoin:miter;stroke-miterlimit:4;stroke-opacity:1;stroke-dasharray:none;stroke-dashoffset:0;marker:none;visibility:visible;display:inline;overflow:visible;enable-background:accumulate"
             d="m 526.88491,721.34845 c 0,0 -4.70433,-11.54699 -12.82998,-12.40233 8.12565,-4.27666 17.53431,-3.42133 17.53431,-3.42133 m -14.54065,21.81099 c 0,0 1.71066,-11.547 -4.27667,-19.24499"
             inkscape:connector-curvature="0"
             sodipodi:nodetypes="ccccc" />
          <path
             sodipodi:type="arc"
             style="color:#000000;fill:#ffffff;stroke:#ff0000;stroke-width:2.5211041;stroke-linecap:round;stroke-linejoin:miter;stroke-miterlimit:4;stroke-opacity:1;stroke-dasharray:none;stroke-dashoffset:0;marker:none;visibility:visible;display:inline;overflow:visible;enable-background:accumulate"
             id="path3316"
             sodipodi:cx="519.94965"
             sodipodi:cy="704.70355"
             sodipodi:rx="13.625054"
             sodipodi:ry="13.625054"
             d="m 533.5747,704.70355 c 0,7.52491 -6.10014,13.62506 -13.62505,13.62506 -7.52491,0 -13.62506,-6.10015 -13.62506,-13.62506 0,-7.52491 6.10015,-13.62505 13.62506,-13.62505 7.52491,0 13.62505,6.10014 13.62505,13.62505 z"
             transform="matrix(0.60642467,0,0,0.60642467,197.0772,272.44854)" />
        </g>
      </g>
      <g
         transform="translate(0.506395,0)"
         id="g3337">
        <g
           id="g3327">
          <path
             inkscape:connector-curvature="0"
             id="path3278"
             d="m 590.55999,738.99231 c 9.48875,1.74372 22.01142,-0.19657 38.10951,-9.51821 25.26178,-14.62789 31.51318,-34.72515 32.46746,-49.61154 2.8551,-20.42168 -11.37091,-47.64411 -32.47448,-47.8974 -6.16098,0.0505 -13.5309,2.23772 -14.10597,9.83735 -1.24907,16.50669 20.52799,12.40232 20.52799,12.40232 0,0 17.25231,16.35687 2.99366,39.3453 -7.06039,11.38307 -29.50897,29.08132 -46.18796,22.66632 -3.81033,-1.46551 -5.70116,-3.89078 -6.33534,-6.7659 -0.72063,-15.04204 14.46822,-25.39728 16.22512,-38.27271 0.80188,-6.65556 -1.33645,-13.44476 -12.45578,-14.19318 0,0 9.83633,-37.84847 -30.79197,-26.94297 -4.70433,-23.30782 -38.06231,-14.32683 -38.06231,-14.32683"
             style="color:#000000;fill:none;stroke:#ff0000;stroke-width:2;stroke-linecap:round;stroke-linejoin:miter;stroke-miterlimit:4;stroke-opacity:1;stroke-dasharray:none;stroke-dashoffset:0;marker:none;visibility:visible;display:inline;overflow:visible;enable-background:accumulate" />
          <path
             sodipodi:nodetypes="scczcczcccs"
             inkscape:connector-curvature="0"
             d="m 553.57894,650.34314 c -6.42203,-9.31194 18.30278,12.84406 13.48626,38.85328 0,0 5.35535,-5.23002 13.16516,-5.84508 -16.04974,20.28647 -16.66217,35.52396 -9.62189,44.09156 7.04028,8.5676 13.9207,8.60476 24.71366,12.0059 -39.97027,3.06419 -49.23615,-13.86206 -44.312,-18.46334 5.7122,-7.32397 5.4424,-18.25195 2.88991,-26.33032 -2.55249,-8.07837 -15.5383,-13.29457 -15.84833,-11.74443 l 4.15918,-7.33979 c 14.31861,2.24414 18.2225,10.10301 17.60239,9.77228 0,0 0.18769,-25.68812 -6.23434,-35.00006 z"
             style="color:#000000;fill:none;stroke:#ff0000;stroke-width:2;stroke-linecap:round;stroke-linejoin:miter;stroke-miterlimit:4;stroke-opacity:1;stroke-dasharray:none;stroke-dashoffset:0;marker:none;visibility:visible;display:inline;overflow:visible;enable-background:accumulate"
             id="path3299" />
        </g>
        <g
           id="g3331"
           transform="matrix(-1,0,0,1,976.15184,0)">
          <path
             style="color:#000000;fill:none;stroke:#ff0000;stroke-width:2;stroke-linecap:round;stroke-linejoin:miter;stroke-miterlimit:4;stroke-opacity:1;stroke-dasharray:none;stroke-dashoffset:0;marker:none;visibility:visible;display:inline;overflow:visible;enable-background:accumulate"
             d="m 590.55999,738.99231 c 9.48875,1.74372 22.01142,-0.19657 38.10951,-9.51821 25.26178,-14.62789 31.51318,-34.72515 32.46746,-49.61154 2.8551,-20.42168 -11.37091,-47.64411 -32.47448,-47.8974 -6.16098,0.0505 -13.5309,2.23772 -14.10597,9.83735 -1.24907,16.50669 20.52799,12.40232 20.52799,12.40232 0,0 17.25231,16.35687 2.99366,39.3453 -7.06039,11.38307 -29.50897,29.08132 -46.18796,22.66632 -3.81033,-1.46551 -5.70116,-3.89078 -6.33534,-6.7659 -0.72063,-15.04204 14.46822,-25.39728 16.22512,-38.27271 0.80188,-6.65556 -1.33645,-13.44476 -12.45578,-14.19318 0,0 9.83633,-37.84847 -30.79197,-26.94297 -4.70433,-23.30782 -38.06231,-14.32683 -38.06231,-14.32683"
             id="path3333"
             inkscape:connector-curvature="0" />
          <path
             id="path3335"
             style="color:#000000;fill:none;stroke:#ff0000;stroke-width:2;stroke-linecap:round;stroke-linejoin:miter;stroke-miterlimit:4;stroke-opacity:1;stroke-dasharray:none;stroke-dashoffset:0;marker:none;visibility:visible;display:inline;overflow:visible;enable-background:accumulate"
             d="m 553.57894,650.34314 c -6.42203,-9.31194 18.30278,12.84406 13.48626,38.85328 0,0 5.35535,-5.23002 13.16516,-5.84508 -16.04974,20.28647 -16.66217,35.52396 -9.62189,44.09156 7.04028,8.5676 13.9207,8.60476 24.71366,12.0059 -39.97027,3.06419 -49.23615,-13.86206 -44.312,-18.46334 5.7122,-7.32397 5.4424,-18.25195 2.88991,-26.33032 -2.55249,-8.07837 -15.5383,-13.29457 -15.84833,-11.74443 l 4.15918,-7.33979 c 14.31861,2.24414 18.2225,10.10301 17.60239,9.77228 0,0 0.18769,-25.68812 -6.23434,-35.00006 z"
             inkscape:connector-curvature="0"
             sodipodi:nodetypes="scczcczcccs" />
        </g>
      </g>
    </g>
    <g
       transform="matrix(1.0000033,0,0,1.0000033,-314.15818,-433.92132)"
       id="g3366"
       style="stroke-width:4.9999835;stroke-miterlimit:4;stroke-dasharray:none"
       inkscape:export-xdpi="75"
       inkscape:export-ydpi="75">
      <path
         style="color:#000000;fill:none;stroke:#ff0000;stroke-width:4.9999835;stroke-linecap:round;stroke-linejoin:miter;stroke-miterlimit:4;stroke-opacity:1;stroke-dasharray:none;stroke-dashoffset:0;marker:none;visibility:visible;display:inline;overflow:visible;enable-background:accumulate"
         d="m 478.03388,626.46935 c 0,0 11.42746,-10.10892 21.09686,0"
         id="path3368"
         inkscape:connector-curvature="0" />
      <path
         id="path3370"
         style="color:#000000;fill:none;stroke:#ff0000;stroke-width:4.9999835;stroke-linecap:round;stroke-linejoin:miter;stroke-miterlimit:4;stroke-opacity:1;stroke-dasharray:none;stroke-dashoffset:0;marker:none;visibility:visible;display:inline;overflow:visible;enable-background:accumulate"
         d="m 508.84463,673.93728 c 18.279,-12.48655 29.213,-74.63755 -20.26231,-76.91563 C 439.107,599.29973 450.041,661.45073 468.32,673.93728"
         inkscape:connector-curvature="0"
         sodipodi:nodetypes="ccc" />
      <path
         inkscape:connector-curvature="0"
         id="path3372"
         d="m 478.03388,642.293 c 0,0 11.42746,-10.10892 21.09686,0"
         style="color:#000000;fill:none;stroke:#ff0000;stroke-width:4.9999835;stroke-linecap:round;stroke-linejoin:miter;stroke-miterlimit:4;stroke-opacity:1;stroke-dasharray:none;stroke-dashoffset:0;marker:none;visibility:visible;display:inline;overflow:visible;enable-background:accumulate" />
      <path
         style="color:#000000;fill:none;stroke:#ff0000;stroke-width:4.9999835;stroke-linecap:round;stroke-linejoin:miter;stroke-miterlimit:4;stroke-opacity:1;stroke-dasharray:none;stroke-dashoffset:0;marker:none;visibility:visible;display:inline;overflow:visible;enable-background:accumulate"
         d="m 478.03388,655.12299 c 0,0 11.42746,-10.10892 21.09686,0"
         id="path3374"
         inkscape:connector-curvature="0" />
      <path
         id="path3376"
         style="color:#000000;fill:none;stroke:#ff0000;stroke-width:4.9999835;stroke-linecap:round;stroke-linejoin:miter;stroke-miterlimit:4;stroke-opacity:1;stroke-dasharray:none;stroke-dashoffset:0;marker:none;visibility:visible;display:inline;overflow:visible;enable-background:accumulate"
         d="m 433.13585,670.42113 c 15.82266,34.72192 55.44646,53.62119 55.44646,53.62119 0,0 39.62381,-18.89927 55.44647,-53.62119 -5.71374,-7.91132 -25.05253,2.1976 -26.41351,10.44256 -16.40319,-16.8606 -41.61889,-16.89989 -58.06591,-0.0445 -1.36098,-8.20046 -20.69977,-18.30938 -26.41351,-10.39806 z"
         inkscape:connector-curvature="0"
         sodipodi:nodetypes="cccccc" />
      <g
         id="g3378"
         transform="translate(0.84267,0)"
         style="stroke-width:4.9999835;stroke-miterlimit:4;stroke-dasharray:none">
        <g
           id="g3380"
           style="stroke-width:4.9999835;stroke-miterlimit:4;stroke-dasharray:none">
          <path
             id="path3382"
             style="color:#000000;fill:none;stroke:#ff0000;stroke-width:4.9999835;stroke-linecap:round;stroke-linejoin:miter;stroke-miterlimit:4;stroke-opacity:1;stroke-dasharray:none;stroke-dashoffset:0;marker:none;visibility:visible;display:inline;overflow:visible;enable-background:accumulate"
             d="m 526.88491,721.34845 c 0,0 -4.70433,-11.54699 -12.82998,-12.40233 8.12565,-4.27666 17.53431,-3.42133 17.53431,-3.42133 m -14.54065,21.81099 c 0,0 1.71066,-11.547 -4.27667,-19.24499"
             inkscape:connector-curvature="0"
             sodipodi:nodetypes="ccccc" />
          <path
             sodipodi:type="arc"
             style="color:#000000;fill:#ffffff;stroke:#ff0000;stroke-width:8.24501995;stroke-linecap:round;stroke-linejoin:miter;stroke-miterlimit:4;stroke-opacity:1;stroke-dasharray:none;stroke-dashoffset:0;marker:none;visibility:visible;display:inline;overflow:visible;enable-background:accumulate"
             id="path3384"
             sodipodi:cx="519.94965"
             sodipodi:cy="704.70355"
             sodipodi:rx="13.625054"
             sodipodi:ry="13.625054"
             d="m 533.5747,704.70355 c 0,7.52491 -6.10014,13.62506 -13.62505,13.62506 -7.52491,0 -13.62506,-6.10015 -13.62506,-13.62506 0,-7.52491 6.10015,-13.62505 13.62506,-13.62505 7.52491,0 13.62505,6.10014 13.62505,13.62505 z"
             transform="matrix(0.60642467,0,0,0.60642467,197.0772,272.44854)" />
        </g>
        <g
           transform="matrix(-1,0,0,1,975.47929,0)"
           id="g3386"
           style="stroke-width:4.9999835;stroke-miterlimit:4;stroke-dasharray:none">
          <path
             sodipodi:nodetypes="ccccc"
             inkscape:connector-curvature="0"
             d="m 526.88491,721.34845 c 0,0 -4.70433,-11.54699 -12.82998,-12.40233 8.12565,-4.27666 17.53431,-3.42133 17.53431,-3.42133 m -14.54065,21.81099 c 0,0 1.71066,-11.547 -4.27667,-19.24499"
             style="color:#000000;fill:none;stroke:#ff0000;stroke-width:4.9999835;stroke-linecap:round;stroke-linejoin:miter;stroke-miterlimit:4;stroke-opacity:1;stroke-dasharray:none;stroke-dashoffset:0;marker:none;visibility:visible;display:inline;overflow:visible;enable-background:accumulate"
             id="path3388" />
          <path
             transform="matrix(0.60642467,0,0,0.60642467,197.0772,272.44854)"
             d="m 533.5747,704.70355 c 0,7.52491 -6.10014,13.62506 -13.62505,13.62506 -7.52491,0 -13.62506,-6.10015 -13.62506,-13.62506 0,-7.52491 6.10015,-13.62505 13.62506,-13.62505 7.52491,0 13.62505,6.10014 13.62505,13.62505 z"
             sodipodi:ry="13.625054"
             sodipodi:rx="13.625054"
             sodipodi:cy="704.70355"
             sodipodi:cx="519.94965"
             id="path3390"
             style="color:#000000;fill:#ffffff;stroke:#ff0000;stroke-width:8.24501995;stroke-linecap:round;stroke-linejoin:miter;stroke-miterlimit:4;stroke-opacity:1;stroke-dasharray:none;stroke-dashoffset:0;marker:none;visibility:visible;display:inline;overflow:visible;enable-background:accumulate"
             sodipodi:type="arc" />
        </g>
      </g>
      <g
         id="g3392"
         transform="translate(0.506395,0)"
         style="stroke-width:4.9999835;stroke-miterlimit:4;stroke-dasharray:none">
        <g
           id="g3394"
           style="stroke-width:4.9999835;stroke-miterlimit:4;stroke-dasharray:none">
          <path
             style="color:#000000;fill:none;stroke:#ff0000;stroke-width:4.9999835;stroke-linecap:round;stroke-linejoin:miter;stroke-miterlimit:4;stroke-opacity:1;stroke-dasharray:none;stroke-dashoffset:0;marker:none;visibility:visible;display:inline;overflow:visible;enable-background:accumulate"
             d="m 590.55999,738.99231 c 9.48875,1.74372 22.01142,-0.19657 38.10951,-9.51821 25.26178,-14.62789 31.51318,-34.72515 32.46746,-49.61154 2.8551,-20.42168 -11.37091,-47.64411 -32.47448,-47.8974 -6.16098,0.0505 -13.5309,2.23772 -14.10597,9.83735 -1.24907,16.50669 20.52799,12.40232 20.52799,12.40232 0,0 17.25231,16.35687 2.99366,39.3453 -7.06039,11.38307 -29.50897,29.08132 -46.18796,22.66632 -3.81033,-1.46551 -5.70116,-3.89078 -6.33534,-6.7659 -0.72063,-15.04204 14.46822,-25.39728 16.22512,-38.27271 0.80188,-6.65556 -1.33645,-13.44476 -12.45578,-14.19318 0,0 9.83633,-37.84847 -30.79197,-26.94297 -4.70433,-23.30782 -38.06231,-14.32683 -38.06231,-14.32683"
             id="path3396"
             inkscape:connector-curvature="0" />
          <path
             id="path3398"
             style="color:#000000;fill:none;stroke:#ff0000;stroke-width:4.9999835;stroke-linecap:round;stroke-linejoin:miter;stroke-miterlimit:4;stroke-opacity:1;stroke-dasharray:none;stroke-dashoffset:0;marker:none;visibility:visible;display:inline;overflow:visible;enable-background:accumulate"
             d="m 553.57894,650.34314 c -6.42203,-9.31194 18.30278,12.84406 13.48626,38.85328 0,0 5.35535,-5.23002 13.16516,-5.84508 -16.04974,20.28647 -16.66217,35.52396 -9.62189,44.09156 7.04028,8.5676 13.9207,8.60476 24.71366,12.0059 -39.97027,3.06419 -49.23615,-13.86206 -44.312,-18.46334 5.7122,-7.32397 5.4424,-18.25195 2.88991,-26.33032 -2.55249,-8.07837 -15.5383,-13.29457 -15.84833,-11.74443 l 4.15918,-7.33979 c 14.31861,2.24414 18.2225,10.10301 17.60239,9.77228 0,0 0.18769,-25.68812 -6.23434,-35.00006 z"
             inkscape:connector-curvature="0"
             sodipodi:nodetypes="scczcczcccs" />
        </g>
        <g
           transform="matrix(-1,0,0,1,976.15184,0)"
           id="g3400"
           style="stroke-width:4.9999835;stroke-miterlimit:4;stroke-dasharray:none">
          <path
             inkscape:connector-curvature="0"
             id="path3402"
             d="m 590.55999,738.99231 c 9.48875,1.74372 22.01142,-0.19657 38.10951,-9.51821 25.26178,-14.62789 31.51318,-34.72515 32.46746,-49.61154 2.8551,-20.42168 -11.37091,-47.64411 -32.47448,-47.8974 -6.16098,0.0505 -13.5309,2.23772 -14.10597,9.83735 -1.24907,16.50669 20.52799,12.40232 20.52799,12.40232 0,0 17.25231,16.35687 2.99366,39.3453 -7.06039,11.38307 -29.50897,29.08132 -46.18796,22.66632 -3.81033,-1.46551 -5.70116,-3.89078 -6.33534,-6.7659 -0.72063,-15.04204 14.46822,-25.39728 16.22512,-38.27271 0.80188,-6.65556 -1.33645,-13.44476 -12.45578,-14.19318 0,0 9.83633,-37.84847 -30.79197,-26.94297 -4.70433,-23.30782 -38.06231,-14.32683 -38.06231,-14.32683"
             style="color:#000000;fill:none;stroke:#ff0000;stroke-width:4.9999835;stroke-linecap:round;stroke-linejoin:miter;stroke-miterlimit:4;stroke-opacity:1;stroke-dasharray:none;stroke-dashoffset:0;marker:none;visibility:visible;display:inline;overflow:visible;enable-background:accumulate" />
          <path
             sodipodi:nodetypes="scczcczcccs"
             inkscape:connector-curvature="0"
             d="m 553.57894,650.34314 c -6.42203,-9.31194 18.30278,12.84406 13.48626,38.85328 0,0 5.35535,-5.23002 13.16516,-5.84508 -16.04974,20.28647 -16.66217,35.52396 -9.62189,44.09156 7.04028,8.5676 13.9207,8.60476 24.71366,12.0059 -39.97027,3.06419 -49.23615,-13.86206 -44.312,-18.46334 5.7122,-7.32397 5.4424,-18.25195 2.88991,-26.33032 -2.55249,-8.07837 -15.5383,-13.29457 -15.84833,-11.74443 l 4.15918,-7.33979 c 14.31861,2.24414 18.2225,10.10301 17.60239,9.77228 0,0 0.18769,-25.68812 -6.23434,-35.00006 z"
             style="color:#000000;fill:none;stroke:#ff0000;stroke-width:4.9999835;stroke-linecap:round;stroke-linejoin:miter;stroke-miterlimit:4;stroke-opacity:1;stroke-dasharray:none;stroke-dashoffset:0;marker:none;visibility:visible;display:inline;overflow:visible;enable-background:accumulate"
             id="path3404" />
        </g>
      </g>
    </g>
    <path
       style="color:#000000;fill:none;stroke:#ff0000;stroke-width:2;stroke-linecap:round;stroke-linejoin:miter;stroke-miterlimit:4;stroke-opacity:1;stroke-dasharray:none;stroke-dashoffset:0;marker:none;visibility:visible;display:inline;overflow:visible;enable-background:accumulate"
       d="m 108.92214,-129.14655 c 6.42203,-9.31194 -18.30278,12.84406 -13.48626,38.85328 0,0 -5.35535,-5.23002 -13.16516,-5.84508 16.04974,20.28647 16.66217,35.52396 9.62189,44.09156 -7.04028,8.5676 -13.9207,8.60476 -24.71366,12.0059 39.97027,3.06419 49.23615,-13.86206 44.312,-18.46334 -5.7122,-7.32397 -5.4424,-18.25195 -2.88991,-26.33032 2.55249,-8.07837 15.5383,-13.29457 15.84833,-11.74443 l -4.15918,-7.33979 c -14.31861,2.24414 -18.2225,10.10301 -17.60239,9.77228 0,0 -0.18769,-25.68812 6.23434,-35.00006 z"
       id="path4342" />
    <path
       style="color:#000000;fill:none;stroke:#ff0000;stroke-width:2;stroke-linecap:round;stroke-linejoin:miter;stroke-miterlimit:4;stroke-opacity:1;stroke-dasharray:none;stroke-dashoffset:0;marker:none;visibility:visible;display:inline;overflow:visible;enable-background:accumulate"
       d="M 71.94109,-40.49738 C 62.45234,-38.75366 49.92967,-40.69395 33.83158,-50.01559 8.5698,-64.64348 2.3184,-84.74074 1.36412,-99.62713 c -2.8551,-20.42168 11.37091,-47.64411 32.47448,-47.8974 6.16098,0.0505 13.5309,2.23772 14.10597,9.83735 1.24907,16.50669 -20.52799,12.40232 -20.52799,12.40232 0,0 -17.25231,16.35687 -2.99366,39.3453 7.06039,11.38307 29.50897,29.08132 46.18796,22.66632 3.81033,-1.46551 5.70116,-3.89078 6.33534,-6.7659 0.72063,-15.04204 -14.46822,-25.39728 -16.22512,-38.27271 -0.80188,-6.65556 1.33645,-13.44476 12.45578,-14.19318 0,0 -9.83633,-37.84847 30.79197,-26.94297 4.70433,-23.30782 38.06231,-14.32683 38.06231,-14.32683"
       id="path4340" />
    <path
       style="color:#000000;fill:none;stroke:#ff0000;stroke-width:2;stroke-linecap:round;stroke-linejoin:miter;stroke-miterlimit:4;stroke-opacity:1;stroke-dasharray:none;stroke-dashoffset:0;marker:none;visibility:visible;display:inline;overflow:visible;enable-background:accumulate"
       d="m 239.92818,-129.14655 c -6.42203,-9.31194 18.30278,12.84406 13.48626,38.85328 0,0 5.35535,-5.23002 13.16516,-5.84508 -16.04974,20.28647 -16.66217,35.52396 -9.62189,44.09156 7.04028,8.5676 13.9207,8.60476 24.71366,12.0059 -39.97027,3.06419 -49.23615,-13.86206 -44.312,-18.46334 5.7122,-7.32397 5.4424,-18.25195 2.88991,-26.33032 -2.55249,-8.07837 -15.5383,-13.29457 -15.84833,-11.74443 l 4.15918,-7.33979 c 14.31861,2.24414 18.2225,10.10301 17.60239,9.77228 0,0 0.18769,-25.68812 -6.23434,-35.00006 z"
       id="path4338" />
    <path
       style="color:#000000;fill:none;stroke:#ff0000;stroke-width:2;stroke-linecap:round;stroke-linejoin:miter;stroke-miterlimit:4;stroke-opacity:1;stroke-dasharray:none;stroke-dashoffset:0;marker:none;visibility:visible;display:inline;overflow:visible;enable-background:accumulate"
       d="m 276.90923,-40.49738 c 9.48875,1.74372 22.01142,-0.19657 38.10951,-9.51821 25.26178,-14.62789 31.51318,-34.72515 32.46746,-49.61154 2.8551,-20.42168 -11.37091,-47.64411 -32.47448,-47.8974 -6.16098,0.0505 -13.5309,2.23772 -14.10597,9.83735 -1.24907,16.50669 20.52799,12.40232 20.52799,12.40232 0,0 17.25231,16.35687 2.99366,39.3453 -7.06039,11.38307 -29.50897,29.08132 -46.18796,22.66632 -3.81033,-1.46551 -5.70116,-3.89078 -6.33534,-6.7659 -0.72063,-15.04204 14.46822,-25.39728 16.22512,-38.27271 0.80188,-6.65556 -1.33645,-13.44476 -12.45578,-14.19318 0,0 9.83633,-37.84847 -30.79197,-26.94297 -4.70433,-23.30782 -38.06231,-14.32683 -38.06231,-14.32683"
       id="path4336" />
    <path
       style="color:#000000;fill:none;stroke:#ff0000;stroke-width:2;stroke-linecap:round;stroke-linejoin:miter;stroke-miterlimit:4;stroke-opacity:1;stroke-dasharray:none;stroke-dashoffset:0;marker:none;visibility:visible;display:inline;overflow:visible;enable-background:accumulate"
       d="m 141.51474,-79.691532 c 0,4.563291 3.69927,8.262572 8.26257,8.262572 4.56329,0 8.26257,-3.699281 8.26257,-8.262572 0,-4.563291 -3.69928,-8.262567 -8.26257,-8.262567 -4.5633,0 -8.26257,3.699276 -8.26257,8.262567 z"
       id="path4334" />
    <path
       style="color:#000000;fill:none;stroke:#ff0000;stroke-width:2;stroke-linecap:round;stroke-linejoin:miter;stroke-miterlimit:4;stroke-opacity:1;stroke-dasharray:none;stroke-dashoffset:0;marker:none;visibility:visible;display:inline;overflow:visible;enable-background:accumulate"
       d="m 145.11621,-52.15391 c 0,0 -1.71066,-11.547 4.27667,-19.24499"
       id="path4332" />
    <path
       style="color:#000000;fill:none;stroke:#ff0000;stroke-width:2;stroke-linecap:round;stroke-linejoin:miter;stroke-miterlimit:4;stroke-opacity:1;stroke-dasharray:none;stroke-dashoffset:0;marker:none;visibility:visible;display:inline;overflow:visible;enable-background:accumulate"
       d="m 135.27989,-58.14124 c 0,0 4.70433,-11.54699 12.82998,-12.40233 -8.12565,-4.27666 -17.53431,-3.42133 -17.53431,-3.42133"
       id="path4330" />
    <path
       style="color:#000000;fill:none;stroke:#ff0000;stroke-width:2;stroke-linecap:round;stroke-linejoin:miter;stroke-miterlimit:4;stroke-opacity:1;stroke-dasharray:none;stroke-dashoffset:0;marker:none;visibility:visible;display:inline;overflow:visible;enable-background:accumulate"
       d="m 207.33557,-79.691532 c 0,4.563291 -3.69927,8.262572 -8.26257,8.262572 -4.56329,0 -8.26257,-3.699281 -8.26257,-8.262572 0,-4.563291 3.69928,-8.262567 8.26257,-8.262567 4.5633,0 8.26257,3.699276 8.26257,8.262567 z"
       id="path4328" />
    <path
       style="color:#000000;fill:none;stroke:#ff0000;stroke-width:2;stroke-linecap:round;stroke-linejoin:miter;stroke-miterlimit:4;stroke-opacity:1;stroke-dasharray:none;stroke-dashoffset:0;marker:none;visibility:visible;display:inline;overflow:visible;enable-background:accumulate"
       d="m 203.7341,-52.15391 c 0,0 1.71066,-11.547 -4.27667,-19.24499"
       id="path4326" />
    <path
       style="color:#000000;fill:none;stroke:#ff0000;stroke-width:2;stroke-linecap:round;stroke-linejoin:miter;stroke-miterlimit:4;stroke-opacity:1;stroke-dasharray:none;stroke-dashoffset:0;marker:none;visibility:visible;display:inline;overflow:visible;enable-background:accumulate"
       d="m 213.57042,-58.14124 c 0,0 -4.70433,-11.54699 -12.82998,-12.40233 8.12565,-4.27666 17.53431,-3.42133 17.53431,-3.42133"
       id="path4324" />
    <path
       style="color:#000000;fill:none;stroke:#ff0000;stroke-width:2;stroke-linecap:round;stroke-linejoin:miter;stroke-miterlimit:4;stroke-opacity:1;stroke-dasharray:none;stroke-dashoffset:0;marker:none;visibility:visible;display:inline;overflow:visible;enable-background:accumulate"
       d="m 118.97869,-109.06856 c 15.82266,34.72192 55.44646,53.62119 55.44646,53.62119 0,0 39.62381,-18.89927 55.44647,-53.62119 -5.71374,-7.91132 -25.05253,2.1976 -26.41351,10.44256 -16.40319,-16.8606 -41.61889,-16.89989 -58.06591,-0.0445 -1.36098,-8.20046 -20.69977,-18.30938 -26.41351,-10.39806 z"
       id="path4322" />
    <path
       style="color:#000000;fill:none;stroke:#ff0000;stroke-width:2;stroke-linecap:round;stroke-linejoin:miter;stroke-miterlimit:4;stroke-opacity:1;stroke-dasharray:none;stroke-dashoffset:0;marker:none;visibility:visible;display:inline;overflow:visible;enable-background:accumulate"
       d="m 163.87672,-124.3667 c 0,0 11.42746,-10.10892 21.09686,0"
       id="path4320" />
    <path
       style="color:#000000;fill:none;stroke:#ff0000;stroke-width:2;stroke-linecap:round;stroke-linejoin:miter;stroke-miterlimit:4;stroke-opacity:1;stroke-dasharray:none;stroke-dashoffset:0;marker:none;visibility:visible;display:inline;overflow:visible;enable-background:accumulate"
       d="m 163.87672,-137.19669 c 0,0 11.42746,-10.10892 21.09686,0"
       id="path4318" />
    <path
       style="color:#000000;fill:none;stroke:#ff0000;stroke-width:2;stroke-linecap:round;stroke-linejoin:miter;stroke-miterlimit:4;stroke-opacity:1;stroke-dasharray:none;stroke-dashoffset:0;marker:none;visibility:visible;display:inline;overflow:visible;enable-background:accumulate"
       d="m 194.68747,-105.55241 c 18.279,-12.48655 29.213,-74.63755 -20.26231,-76.91563 -49.47532,2.27808 -38.54132,64.42908 -20.26232,76.91563"
       id="path4316" />
    <path
       style="color:#000000;fill:none;stroke:#ff0000;stroke-width:2;stroke-linecap:round;stroke-linejoin:miter;stroke-miterlimit:4;stroke-opacity:1;stroke-dasharray:none;stroke-dashoffset:0;marker:none;visibility:visible;display:inline;overflow:visible;enable-background:accumulate"
       d="m 163.87672,-153.02034 c 0,0 11.42746,-10.10892 21.09686,0"
       id="path4238" />
    <path
       id="path4525"
       style="fill:#ff0000"
       d="m 144.45186,472.00025 c -0.38998,-1.01629 -0.35615,-4.45278 0.0752,-7.63664 l 0.78426,-5.78885 -3.12185,3.66559 c -1.71702,2.01608 -3.72236,4.39854 -4.45631,5.29436 -0.86033,1.05009 -1.75472,1.2085 -2.51735,0.44586 -1.42988,-1.42987 1.28241,-7.1417 4.98046,-10.48839 3.47441,-3.1443 2.24076,-4.41581 -4.28432,-4.41581 -4.60637,0 -5.44327,-0.35257 -5.07557,-2.13826 0.55893,-2.71441 8.42381,-2.55399 17.76137,0.36227 5.98295,1.86857 8.60255,4.21972 4.70152,4.21972 -2.25056,0 -4.39605,6.35045 -4.39605,13.0119 0,3.95923 -0.47758,5.31606 -1.87114,5.31606 -1.02913,0 -2.19023,-0.83151 -2.58022,-1.84781 z m 59.43522,-3.37866 c 0,-6.74075 -2.13427,-13.10149 -4.39605,-13.10149 -3.90103,0 -1.28142,-2.35115 4.70152,-4.21972 9.33757,-2.91626 17.20245,-3.07668 17.76138,-0.36227 0.36643,1.77956 -0.46295,2.13826 -4.94404,2.13826 -2.96138,0 -5.70917,0.32483 -6.10618,0.72185 -0.39701,0.39701 1.16086,3.18832 3.46195,6.20291 4.68159,6.13322 4.98102,7.17023 2.36063,8.17577 -1.17555,0.4511 -2.449,-0.51062 -3.58503,-2.70746 -0.96902,-1.87389 -2.59619,-4.0995 -3.61592,-4.9458 -1.62512,-1.34874 -1.82367,-0.66411 -1.6079,5.54447 0.20448,5.88362 -0.11596,7.15738 -1.89209,7.52117 -1.78023,0.36463 -2.13827,-0.46718 -2.13827,-4.96769 z m -40.2115,-95.96457 c -2.02525,-3.2769 10.85016,-9.23602 16.75398,-7.75426 1.67842,0.42126 4.56227,2.07447 6.40855,3.6738 2.70749,2.34536 3.06442,3.20486 1.84513,4.44309 -1.22676,1.24582 -2.16645,1.14846 -4.98501,-0.51651 -4.27084,-2.52284 -9.20291,-2.61056 -13.73988,-0.24437 -4.13775,2.15798 -5.15534,2.22248 -6.28277,0.39825 z m 0,15.59958 c -2.38559,-3.85994 11.39543,-9.22465 18.05263,-7.02758 5.30676,1.75139 8.80042,5.56831 6.86668,7.50204 -1.09786,1.09786 -2.2177,0.95417 -4.89666,-0.62834 -4.19155,-2.47597 -9.24465,-2.5716 -13.30278,-0.25176 -3.69071,2.10979 -5.59565,2.22478 -6.71993,0.40564 z m 0.0733,13.31837 c -2.32534,-3.76246 9.19571,-9.2386 16.53861,-7.86106 4.50838,0.84577 10.03223,5.79312 8.76234,7.84785 -1.11075,1.79724 -3.69657,1.60734 -5.35704,-0.39342 -2.55118,-3.07398 -7.23838,-3.36038 -12.59077,-0.76933 -5.83852,2.82638 -6.28864,2.89837 -7.35314,1.17596 z m 12.64638,9.67536 c 5.3566,0 10.56207,0.83139 14.44633,2.30729 l 6.0723,2.30729 3.55321,-4.90506 c 5.32219,-7.34708 8.3273,-18.47765 8.3273,-30.84342 0,-9.34241 -0.40828,-11.29868 -3.75635,-17.99876 -5.454,-10.91442 -15.54611,-16.85219 -28.64279,-16.85219 -13.09667,0 -23.18878,5.93777 -28.64278,16.85219 -3.34807,6.70008 -3.75635,8.65635 -3.75635,17.99876 0,12.36577 3.00511,23.49634 8.3273,30.84342 l 3.55321,4.90506 6.0723,-2.30729 c 3.88426,-1.4759 9.08973,-2.30729 14.44632,-2.30729 z m 28.11353,37.71327 c 3.62441,-3.6244 1.53906,-8.91404 -3.51419,-8.91404 -5.05324,0 -7.13859,5.28964 -3.51418,8.91404 1.0371,1.03712 2.61849,1.88567 3.51418,1.88567 0.8957,0 2.47709,-0.84855 3.51419,-1.88567 z m -49.19868,0 c 3.62441,-3.6244 1.53906,-8.91404 -3.51418,-8.91404 -5.05325,0 -7.1386,5.28964 -3.51419,8.91404 1.0371,1.03712 2.61849,1.88567 3.51419,1.88567 0.89569,0 2.47708,-0.84855 3.51418,-1.88567 z m 27.92068,13.30331 c 11.47853,-6.89285 11.74396,-7.18402 9.48671,-10.40667 -4.35131,-6.21238 -1.15344,-15.55319 5.93368,-17.33194 3.50366,-0.87937 9.69937,1.39919 11.36235,4.17866 1.00033,1.67192 1.6671,1.3574 4.78554,-2.25731 4.58485,-5.31448 13.19481,-17.93187 13.19481,-19.33622 0,-0.58478 -1.68143,-1.06323 -3.73652,-1.06323 -5.60395,0 -12.95428,4.68231 -15.65227,9.97081 l -2.34153,4.5898 -4.48661,-4.05338 c -7.78716,-7.03523 -15.14507,-9.90725 -25.38169,-9.90725 -7.5474,0 -10.1056,0.56034 -15.85224,3.47219 -3.76886,1.9097 -8.04787,4.74462 -9.50892,6.29983 -3.5347,3.76251 -5.24157,3.56463 -7.05696,-0.81812 -1.83017,-4.41841 -10.10056,-9.55388 -15.38602,-9.55388 -2.08696,0 -3.79447,0.47845 -3.79447,1.06323 0,1.40435 8.60996,14.02174 13.19481,19.33622 3.11844,3.61471 3.78521,3.92923 4.78554,2.25731 1.66298,-2.77947 7.85869,-5.05803 11.36235,-4.17866 7.09551,1.78085 10.2843,11.12055 5.92283,17.34742 -1.82417,2.60436 -1.77912,2.87387 0.79681,4.76688 2.23332,1.64123 14.32907,9.38597 15.17199,9.7144 0.12964,0.0505 3.36956,-1.79002 7.19981,-4.09009 z m 119.53973,16.16137 c 15.98854,-5.98208 31.77455,-19.05907 37.96725,-31.45176 12.15695,-24.32822 5.2568,-54.40463 -14.85813,-64.76366 -5.20752,-2.68183 -14.69946,-2.57392 -18.04809,0.2052 -2.64665,2.19653 -2.32295,9.14959 0.56017,12.03272 1.85248,1.85248 3.99989,2.39994 9.41376,2.39994 7.85343,0 8.91082,0.75096 13.51683,9.59974 2.18686,4.20125 2.80041,7.26434 2.76407,13.79963 -0.0818,14.72944 -7.10913,26.02068 -22.67283,36.43032 -14.52749,9.71658 -29.34501,11.22914 -36.81602,3.75812 -5.78783,-5.78782 -4.24438,-13.27941 6.28623,-30.51213 9.10325,-14.89694 8.65401,-22.46233 -1.45853,-24.56209 l -4.03262,-0.83733 0.4068,-7.82094 c 0.50155,-9.64256 -1.77605,-15.74999 -6.8525,-18.37513 -4.02369,-2.08072 -14.27941,-2.47908 -20.18912,-0.7842 -3.57879,1.02638 -3.86721,0.87863 -4.57493,-2.34359 -1.92253,-8.75325 -10.56757,-13.51882 -23.42947,-12.91547 l -7.75911,0.36398 0.34977,3.59991 c 0.19237,1.97994 0.44898,8.45977 0.57025,14.39961 0.26223,12.84438 -2.9392,24.8288 -8.79029,32.90599 -5.15181,7.11187 -3.09553,8.77779 4.07692,3.30294 3.01817,-2.30382 7.43653,-4.83198 9.81855,-5.61812 7.36241,-2.42982 15.50149,0.51349 15.55614,5.6255 0.01,0.93057 2.39137,2.75601 5.29205,4.05653 l 5.27398,2.36458 -0.79816,-8.71905 c -0.57162,-6.24441 -1.96654,-11.18821 -4.91483,-17.41881 -2.26417,-4.78487 -3.89163,-8.69977 -3.61656,-8.69977 0.27507,0 2.4287,0.91967 4.78585,2.04372 7.79391,3.71665 17.39512,22.18609 17.39512,33.46224 0,4.52057 0.0271,4.53414 5.99984,3.00278 2.30994,-0.59225 5.71509,-1.4171 7.567,-1.83299 l 3.36711,-0.75617 -4.97365,6.73259 c -14.35481,19.43138 -16.05281,35.70467 -4.57811,43.87539 9.71077,6.91467 24.49039,8.27812 37.39526,3.44978 z m -42.77358,-1.16166 c -8.99713,-7.89958 -10.11669,-19.82112 -3.2412,-34.51371 2.0005,-4.27497 3.63727,-8.00952 3.63727,-8.299 0,-0.28948 -1.75495,0.81229 -3.8999,2.44838 l -3.89989,2.97471 0,-11.01342 c 0,-6.65289 -0.58748,-11.96363 -1.4838,-13.41336 -1.22863,-1.98722 -1.35666,-0.93491 -0.74444,6.1192 0.71514,8.24028 0.64588,8.54369 -2.11611,9.26913 -1.57051,0.4125 -3.04026,0.20935 -3.26615,-0.45144 -0.53294,-1.55909 -9.11715,-5.93713 -11.64118,-5.93713 -2.82262,0 -1.73609,1.85696 2.94178,5.02776 7.09687,4.81048 8.84273,8.26176 9.44536,18.67199 0.45322,7.82903 0.10212,10.43238 -2.0961,15.5423 -3.09067,7.18446 -2.28129,9.918 3.89634,13.15929 3.77486,1.9806 15.44352,5.2036 16.29001,4.49946 0.23431,-0.1949 -1.4856,-2.03277 -3.82199,-4.08416 z M 105.2616,476.84466 c 6.17654,-3.23007 6.98741,-5.96727 3.89635,-13.15263 -2.19822,-5.10992 -2.54932,-7.71327 -2.09611,-15.5423 0.60264,-10.41023 2.3485,-13.86151 9.44537,-18.67199 4.67787,-3.1708 5.7644,-5.02776 2.94178,-5.02776 -2.52403,0 -11.10825,4.37804 -11.64119,5.93713 -0.22588,0.66079 -1.69564,0.86394 -3.26614,0.45144 -2.76198,-0.72544 -2.83125,-1.02885 -2.1161,-9.26913 0.6122,-7.05411 0.48418,-8.10642 -0.74445,-6.1192 -0.89632,1.44973 -1.4838,6.76047 -1.4838,13.41336 l 0,11.01342 -3.899895,-2.97471 c -2.144942,-1.63609 -3.899895,-2.73786 -3.899895,-2.44838 0,0.28948 1.636771,4.02403 3.637271,8.299 6.840059,14.61687 5.753529,26.61624 -3.115178,34.40307 -2.267098,1.99054 -4.121997,3.85694 -4.121997,4.14757 0,0.98178 12.570064,-2.42253 16.463984,-4.45889 z m -30.436823,3.3237 c 14.109541,-3.59784 20.471981,-10.30295 20.230995,-21.32058 -0.151661,-6.93384 -5.033028,-18.01791 -12.218612,-27.74467 l -4.973655,-6.73259 3.367112,0.75617 c 1.851912,0.41589 5.257061,1.24074 7.566999,1.83299 5.972728,1.53136 5.999839,1.51779 5.999839,-3.00278 0,-11.27615 9.601215,-29.74559 17.395125,-33.46224 2.35714,-1.12405 4.51077,-2.04372 4.78584,-2.04372 0.27507,0 -1.35238,3.9149 -3.61655,8.69977 -2.94829,6.2306 -4.34321,11.1744 -4.91483,17.41881 l -0.79815,8.71905 5.27397,-2.36458 c 2.90068,-1.30052 5.28211,-3.12596 5.29205,-4.05653 0.0546,-5.11201 8.19373,-8.05532 15.55614,-5.6255 2.38202,0.78614 6.80038,3.3143 9.81855,5.61812 7.17245,5.47485 9.22873,3.80893 4.07692,-3.30294 -5.85109,-8.07719 -9.05252,-20.06161 -8.79029,-32.90599 0.12127,-5.93984 0.37788,-12.41967 0.57025,-14.39961 l 0.34977,-3.59991 -7.75911,-0.36398 c -12.8619,-0.60335 -21.50694,4.16222 -23.42947,12.91547 -0.70772,3.22222 -0.99615,3.36997 -4.57493,2.34359 -5.909701,-1.69488 -16.165441,-1.29652 -20.189116,0.7842 -5.07645,2.62514 -7.354048,8.73257 -6.8525,18.37513 l 0.406798,7.82094 -4.032621,0.83733 c -10.112544,2.09976 -10.561788,9.66515 -1.458533,24.56209 10.530606,17.23272 12.074052,24.72431 6.286224,30.51213 -7.471008,7.47102 -22.288517,5.95846 -36.816015,-3.75812 -15.563702,-10.40964 -22.59093,-21.70088 -22.672823,-36.43032 -0.03634,-6.53529 0.577201,-9.59838 2.764061,-13.79963 4.606016,-8.84878 5.6634,-9.59974 13.516831,-9.59974 8.427894,0 11.813698,-2.53722 11.813698,-8.85283 0,-5.15308 -2.233822,-6.96779 -9.427955,-7.65905 -15.210116,-1.4615 -29.9101041,15.94914 -31.1205656,36.85915 -1.4762264,25.50093 10.8884956,45.09987 36.6660846,58.11826 6.66098,3.36398 16.960585,6.52055 21.708743,6.65321 1.554692,0.0434 6.144569,-0.76707 10.199726,-1.8011 z"
       inkscape:export-xdpi="75.051773"
       inkscape:export-ydpi="75.051773"
       inkscape:export-filename="C:\Users\yeang-shing.then\Desktop\path4526.png" />
  </g>
</svg>
