<?xml version="1.0" encoding="UTF-8" standalone="no"?>
<svg>
  <path
     d="m 13.569137,51.196673 c 0.185441,-0.462352 0.313275,-0.962193 0.346514,-1.433292 0.0816,-1.157131 0.04711,-2.700389 0.04711,-2.700389 L 9.6425152,46.986766 C 8.1237498,46.960525 7.8702057,46.928035 7.1078239,46.660621 2.2852376,44.96991 3.8000043,38.66942 5.9346982,33.758487 10.56897,23.095639 4.6804734,29.028746 1.7817733,36.879991 c -1.91501405,5.187095 -1.23810503,9.389504 -0.2672898,12.062402 3.3580536,7.641311 9.9779415,7.641311 12.0546535,2.25428 z"
     style="fill:#000000;stroke:none"/>
  <path
     d="m 88.615942,67.381509 -1.249226,4.604781 c -1.407676,5.188345 2.577428,13.769357 6.457814,15.098933 1.425546,0.488594 2.883081,0.667287 4.104566,0.568568 4.596154,-0.371131 5.343044,-1.489525 8.370704,-4.539801 2.23441,-2.250532 5.80915,-6.168032 6.24613,-7.583831 0.60768,-1.968122 0.45548,-3.153993 1.79405,-2.495453 1.1164,0.551074 3.95237,5.230831 5.98809,7.977454 2.08846,2.815352 3.12213,2.837845 5.91911,2.635409 1.22461,-0.08997 2.46921,-0.12371 3.6151,-0.781 0.87722,-0.504839 1.69821,-1.374562 2.45796,-2.193051 l 2.14307,-2.306764 1.8794,2.214294 c 0.27366,0.284909 0.94595,0.53233 1.84816,0.747261 11.26766,2.680395 21.85928,0.418617 31.58867,-5.423269 1.63198,-0.979688 3.129,-1.790679 3.97124,-1.949378 0.0125,-0.0025 0.0262,-0.005 0.04,-0.0075 l 4.69975,-4.587286 c 0.3199,-1.365814 1.42455,-2.449219 2.09808,-4.582288 0.13121,-0.418617 0.24618,-0.87722 0.34614,-1.340822 1.47203,-6.841568 0.21244,-5.614459 -1.0959,-3.647587 -0.75101,1.12964 -1.2396,1.230858 -1.45578,0.561071 l -3.87627,2.304265 c -1.04841,1.459534 -2.9503,2.335505 -6.75159,3.7613 -3.3102,1.242104 -10.0293,1.868154 -13.40947,-0.005 -1.4083,-0.778502 -6.37172,-6.789084 -5.47076,-9.008376 0.83848,-2.063092 6.72661,-3.182735 8.72722,-3.261459 4.08619,-0.1587 8.75595,0.763506 11.33513,-0.04249 1.43454,-0.447357 1.00843,-1.924386 -0.25367,-3.192731 -4.85845,-4.878444 -9.21331,-6.411705 -14.54786,-4.754733 -4.75973,1.478278 -7.96745,3.866266 -10.00555,9.109593 -0.79975,2.053095 -1.32458,9.71565 -0.28116,12.12988 0.90221,2.086834 2.89282,3.665081 1.95437,4.779725 -0.66978,0.797246 -7.80001,-3.212725 -9.61193,-2.741625 -1.38956,0.361135 -1.77568,2.233037 -3.34019,3.360178 -5.61071,4.039961 -9.87497,-0.979688 -13.11668,-6.138042 -0.81799,-1.300835 -1.581,-2.564182 -2.18131,-3.976231 -1.54138,-3.626343 -2.01048,-8.236122 -3.45027,-11.877461 -0.44373,-1.122142 -6.44369,-14.155483 -8.99963,-13.09832 -2.41423,0.997181 -2.89308,5.67069 -2.52369,7.608822 1.03029,5.408274 2.56355,5.660694 5.53823,9.886845 1.10865,1.575748 4.33887,8.102415 4.04021,10.31171 -0.33914,2.50795 -7.01101,9.378258 -8.05505,10.15676 -1.56338,1.165878 -3.68558,2.016856 -5.737299,2.071839 -2.701013,0.07123 -5.736544,-2.168059 -7.05075,-4.848453 l -2.699139,-5.505744 z"
     style="fill:#000000;stroke:none"/>
  <path
     d="M 2.4270674,57.394696 C 1.1684689,60.799859 0.50555543,64.131296 0.24014012,67.249052 -1.3267349,85.656928 5.176815,87.21893 8.0857619,87.615054 c 0.7528848,0.102467 1.5550039,0.08247 2.4168541,-0.04124 5.872626,-0.844731 14.360542,-10.416677 16.56159,-14.490377 1.469156,-2.720382 0.636922,-3.942492 3.044654,-0.318648 3.136374,4.719744 5.598963,14.362917 13.893817,10.402931 0.620677,-0.296156 1.237105,-0.676035 1.851284,-1.132139 1.467532,-1.092152 3.610348,-2.945311 3.610348,-2.945311 0,0 1.565126,2.22554 2.709261,3.245215 2.274024,2.026853 7.22307,0.537329 9.390129,-2.168058 1.434917,-1.791928 3.100635,-0.03624 6.370467,1.88065 3.805411,2.231788 7.91285,3.32019 9.71515,0.373631 0.813366,-1.329576 1.415549,-3.338935 2.462715,-4.943423 1.725074,-2.644157 4.067452,-3.983729 3.217723,-7.034006 -0.242298,-0.869722 -0.818739,-1.543258 -1.008678,-2.72663 -0.127085,-0.792247 0.209683,-1.417048 0.765381,-1.741944 2.327507,-1.360816 11.850593,-0.506089 17.681483,1.014676 0.80562,0.209933 1.61836,0.349888 2.28989,0.284909 0.69941,-0.06748 0.85811,-0.222429 1.58725,-1.555753 l 4.34311,-7.937468 c 0,0 -4.48882,-1.00218 -7.39339,-2.155562 -4.192286,-1.665719 -7.938716,-5.338297 -7.837748,-6.074312 0.233675,-1.704456 3.371424,-4.51231 4.683506,-6.641631 2.031602,-3.298947 -0.317649,-6.256754 -1.397929,-16.624696 -0.639421,-6.136792 -0.322023,-13.791849 -0.322023,-13.791849 0,0 1.516517,-0.114964 2.700139,0.04748 1.436545,0.197437 7.087615,4.358609 8.457305,5.493247 5.39902,4.472323 11.53644,18.041744 10.2471,25.444382 -0.12433,0.713522 -0.3134,1.47203 -0.51333,2.219292 -3.78442,14.151734 0.67316,5.971844 3.49588,0.271163 1.59687,-3.225221 4.77835,-8.717219 3.56699,-16.272308 -0.34552,-2.153063 -1.00156,-4.48232 -1.96325,-7.183958 C 118.62899,11.045734 109.62774,2.8171093 96.824198,0.11672091 93.937994,-0.49183493 92.596422,1.3463286 91.441166,4.2179124 86.948224,15.389348 89.372201,11.570566 90.312276,22.057221 c 0.466851,5.207088 1.92726,21.49939 1.92726,21.49939 0,0 -9.937579,2.00436 -14.128617,3.500133 -3.976356,1.419547 -4.590535,3.994975 -5.772658,8.339839 -0.232926,0.855977 -0.491468,1.418298 -0.02937,1.688212 1.089653,0.634797 6.187276,-0.361135 8.199884,-0.788499 -0.691904,0.147453 3.748429,0.673535 1.163879,1.555754 -1.698958,0.578565 -5.861755,2.060592 -8.312348,3.471392 -1.329326,0.764756 -6.398459,4.777226 -7.134724,5.783155 -2.92844,4.003723 -2.030477,5.654446 -6.577151,6.075562 -1.017426,0.09372 -1.785556,-0.07498 -2.797983,-0.893465 -1.951377,-1.578247 -4.810215,-5.571973 -4.810215,-5.571973 0,0 -1.571623,3.693822 -3.065147,5.434516 -2.345252,2.734128 -7.456996,1.339573 -10.098528,-1.184622 -3.606849,-3.44515 -6.420326,-11.548815 -7.543093,-16.199831 -0.206559,-0.854727 -0.3925,-1.713203 -0.556323,-2.57043 -1.214987,-6.344226 -0.176818,-10.56038 -3.231344,-16.064874 -0.272663,-0.491093 -0.573442,-1.042168 -0.904961,-1.658221 -0.10784,-0.201186 -0.210558,-0.358636 -0.309526,-0.461103 -2.095956,-2.150564 -2.877957,0.736015 -3.472517,3.077768 -0.587688,2.311763 -1.329951,4.322371 -0.948697,5.993088 0.406245,1.779432 2.055844,3.356429 3.002417,5.29581 0.05048,0.103717 2.230663,14.109249 1.677339,16.730912 C 25.608421,69.759501 17.426281,76.169955 12.992321,76.868482 10.439636,77.270854 8.3941635,76.5011 6.856779,75.079053 0.16628868,68.892277 4.5502649,59.374064 4.857167,57.550896 5.8579727,51.602794 6.0140479,47.690292 2.4270674,57.394696 z m 69.4203496,13.19454 c 0.115589,-0.08372 0.271164,-0.18744 0.479223,-0.322397 0.547325,-0.357386 1.025048,-0.68978 1.791303,-0.771004 0.589562,-0.06373 1.350069,0.02249 1.350069,0.02249 0,0 0.199187,4.164921 -0.76563,4.173668 -2.068216,0.01999 -5.18822,-0.21993 -2.854965,-3.10276 z"
     style="fill:#000000;stroke:none"/>
  <path
     d="m 51.60975,60.964807 c 0,0 1.671841,-3.034032 2.147439,-4.879693 0.398623,-1.547007 -0.147078,-2.400485 -0.481221,-4.45108 -0.577941,-3.546369 -0.395999,-11.168937 -0.395999,-11.168937 0,0 3.725812,-1.084654 6.261627,-1.360816 2.600421,-0.283659 3.94949,0.28241 4.944673,-0.443608 0.112339,-0.08247 2.659276,-4.623525 2.466838,-6.435447 -0.163698,-1.540758 -1.926386,-2.884079 -3.125003,-3.431405 -1.281966,-0.584813 -3.536622,-0.623551 -4.147802,-0.07248 -1.219361,1.102149 -1.105147,4.047459 -2.515697,5.154606 -0.83236,0.653541 -2.195675,0.666037 -3.203728,1.217111 -4.423839,2.416729 -4.06008,15.658754 -3.379172,19.317587 0.51896,2.78911 1.428045,6.554159 1.428045,6.554159 z"
     style="fill:#000000;stroke:none"/>
  <path
     d="m 131.88663,85.814378 -6.86281,6.86281 6.86281,6.862811 6.86281,-6.862811 -6.86281,-6.86281 z"
     style="fill:#000000;stroke:none"/>
  <path
     d="m 45.207792,95.158897 4.381227,4.381102 6.862561,-6.862811 -6.862561,-6.86281 -4.381227,4.381102 -4.381352,-4.381102 -6.86256,6.86281 6.86256,6.862811 4.381352,-4.381102 z"
     style="fill:#000000;stroke:none"/>
  <path
     d="m 135.91785,45.795896 -6.2755,6.233012 c -1.04217,1.03467 -1.19087,1.22086 -1.48203,1.859406 -0.40862,0.893465 -0.54982,2.386739 -0.34989,2.589174 0.6498,0.656041 2.94781,-0.935951 3.74756,-1.525763 7.00401,-5.164602 10.19549,-8.418564 11.32763,-15.10768 0.57607,-3.400165 -1.22461,-4.714745 -4.40984,-5.149607 -5.05339,-0.68728 -10.06804,0.01625 -12.03116,3.821281 0.30615,14.526615 0.73726,6.219266 5.0234,5.188345 4.76723,-1.147134 9.89309,-3.695071 4.44983,2.091832 z"
     style="fill:#000000;stroke:none"/>
  <path
     d="m 78.792577,34.954356 -6.274623,6.233011 c -1.042668,1.035919 -1.190995,1.22211 -1.482777,1.859407 -0.408495,0.893464 -0.549825,2.386738 -0.349139,2.590423 0.650043,0.656041 2.947685,-0.935951 3.747429,-1.525763 7.004266,-5.165852 10.194998,-8.419814 11.327386,-15.108929 0.575567,-3.398916 -1.224609,-4.714746 -4.409968,-5.148358 -5.053387,-0.68853 -10.068287,0.01499 -12.031411,3.820031 0.306402,14.526615 0.73789,6.219266 5.023397,5.188345 4.767354,-1.147134 9.893594,-3.695071 4.449706,2.091833 z"
     style="fill:#000000;stroke:none"/>
  <path
     d="m 21.529097,18.745777 -6.274623,6.233011 c -1.042792,1.03592 -1.190995,1.22211 -1.482777,1.860657 -0.408494,0.893465 -0.549824,2.386738 -0.349138,2.589174 0.649917,0.65604 2.947684,-0.935952 3.747429,-1.525764 C 24.174253,22.737004 27.36486,19.484291 28.497374,12.795176 29.07294,9.3950106 27.272765,8.0791804 24.087406,7.6455687 19.033893,6.958288 14.019118,7.6618136 12.05587,11.46685 c 0.306402,14.526615 0.738014,6.219265 5.023522,5.188344 4.767354,-1.147134 9.893593,-3.696321 4.449705,2.090583 z"
     style="fill:#000000;stroke:none"/>
  <path
     d="m 39.545349,36.868745 c -0.04411,-1.199618 -0.179443,-2.704137 -0.573317,-3.082767 -0.228302,-0.219929 -0.543577,-0.05998 -0.741264,-0.178693 -0.889091,-0.533579 0.623426,-2.735377 1.344071,-3.576359 6.542413,-7.637563 23.497253,-17.119537 32.455395,-19.080162 0.853853,-0.18744 1.706956,-0.338642 1.868404,-0.04873 0.08035,0.143704 -0.0105,0.394874 -0.148203,0.681032 -0.323646,0.668537 -0.841481,1.478279 -1.416548,2.346752 -11.930318,18.015502 6.888302,-6.9852716 12.228099,-7.6875475 0.488469,-0.2411731 0.947073,-0.4361109 1.353568,-0.5635702 2.077962,-0.6547911 4.328369,-0.7934968 4.601532,-2.7853613 0.03824,-0.2786611 0.04386,-0.6272999 0.03449,-0.9646922 -0.09085,-3.2639586 -5.415647,-1.70320658 -9.1682,-0.2749123 -3.473267,1.3208286 -8.630496,3.497634 -14.101251,6.0280767 -7.078491,3.2752048 -28.272229,13.1058188 -31.254653,21.6443438 -0.960943,2.751622 -0.78225,5.834389 1.133389,8.486043 0.08222,0.113713 0.156825,0.216181 0.224803,0.308651 -0.864724,-1.173375 2.344627,3.763799 2.159686,-1.2521 z"
     style="fill:#000000;stroke:none"/>
  <path
     d="m 47.663759,17.404955 -0.150203,-3.437653 c -0.06061,-1.390807 -0.04061,-1.639477 0.200811,-2.491705 0.179068,-0.631049 0.368008,-1.322078 0.847355,-1.7669365 C 49.729724,8.622757 52.621802,8.9988869 53.962624,8.1041724 55.893133,6.8183327 55.894632,2.3972433 54.408856,0.60656462 52.833484,-1.2928294 49.648875,1.7237082 48.343792,3.4506572 47.542297,4.5103191 46.783414,5.7249315 46.442023,7.143229 46.283824,7.8005193 46.196352,8.5465313 46.072516,9.2000728 L 45.466585,12.399052 43.465723,9.8523646 C 40.726722,6.2447657 41.56208,5.1738574 37.537489,4.1929203 36.18892,3.8642752 33.264728,3.9867361 32.702657,5.5050017 c -0.43986,1.1883708 0.592686,4.0774491 1.23948,4.7634803 0.497341,0.527332 2.511448,1.835664 3.343308,1.916888 1.359316,0.131208 4.137055,-0.696028 4.137055,-0.696028 0,0 2.241785,3.226471 3.611098,4.740988 0.597559,0.662288 1.091651,1.194619 1.857907,1.208364 0.316399,0.0062 0.772254,-0.03374 0.772254,-0.03374 z"
     style="fill:#000000;stroke:none"/>
  <path
     d="m 126.78951,23.161868 0.96969,4.945922 c 0.33989,-0.587313 0.76351,-1.153382 1.05716,-1.495773 2.03935,-2.38174 5.09213,-4.942173 8.59976,-7.398889 4.33487,-2.910321 8.58726,-5.240828 11.84372,-6.379215 0.82599,-0.288658 1.65447,-0.541077 1.84941,-0.273662 0.0975,0.133707 0.0375,0.394874 -0.065,0.694778 -0.24117,0.702276 -0.65729,1.569499 -1.12464,2.500452 -9.67566,19.318836 5.99809,-7.7637727 11.21517,-9.1033453 0.45611,-0.2986547 0.88722,-0.5460758 1.27584,-0.7222695 1.98437,-0.899713 4.20116,-1.3083326 4.2324,-3.3176915 0.005,-0.2824099 -0.0312,-0.6285495 -0.0812,-0.9634426 -0.48235,-3.2277202 -5.58072,-1.03841868 -9.13459,0.8309849 -3.28895,1.7294482 -8.1474,4.5098111 -13.27326,7.681299 -0.93095,0.576066 -2.12307,1.313331 -3.48889,2.179305 -5.64445,3.283952 -11.10895,7.095236 -13.87557,10.821547 z"
     style="fill:#000000;stroke:none"/>
  <path
     d="m 138.56325,17.404955 -0.14995,-3.437653 c -0.06,-1.390807 -0.04,-1.639477 0.20119,-2.491705 0.17869,-0.631049 0.36863,-1.322078 0.84723,-1.7669365 1.16837,-1.0859035 4.05995,-0.7097736 5.40077,-1.6044881 1.93064,-1.2858397 1.93189,-5.7069291 0.44611,-7.49760778 -1.5745,-1.89939402 -4.75973,1.11714358 -6.06432,2.84409258 -0.80224,1.0596619 -1.56075,2.2742743 -1.90189,3.6925718 -0.1587,0.6572903 -0.24617,1.4033023 -0.36988,2.0568438 l -0.60606,3.1989792 -2.00061,-2.5466874 c -2.73912,-3.6075989 -1.90314,-4.6785072 -5.92811,-5.6594443 -1.34832,-0.3286451 -4.27288,-0.2061842 -4.83483,1.3120814 -0.43986,1.1883708 0.59269,4.0774491 1.23948,4.7634803 0.49759,0.527332 2.5107,1.835664 3.34293,1.916888 1.35957,0.131208 4.13743,-0.696028 4.13743,-0.696028 0,0 2.24179,3.226471 3.61135,4.740988 0.59731,0.662288 1.0909,1.194619 1.85816,1.208364 0.31615,0.0062 0.771,-0.03374 0.771,-0.03374 z"
     style="fill:#000000;stroke:none"/>
  <path
     d="m 160.77492,39.01556 0.60105,-0.01 c 0.26867,-0.005 0.34114,-0.168696 0.72227,-1.640727 2.19305,-8.467298 2.59418,-13.143306 -2.80035,-18.572824 -0.88847,-0.894714 -1.92439,-1.644475 -2.59043,-0.843481 -0.45235,0.544827 -0.91471,4.382352 -0.70852,5.220835 0.36113,1.465782 1.42954,1.94188 2.66415,2.936563 2.78911,2.248032 3.48764,3.934994 3.13275,6.929039 -0.27241,2.298017 -1.02092,5.980592 -1.02092,5.980592 z"
     style="fill:#000000;stroke:none"/>
  <path
     d="m 172.44119,94.2092 c 0.20869,2.880331 1.55326,4.671009 3.99748,5.188344 3.15274,0.667286 4.93592,-1.043417 5.74441,-4.502313 0.17745,-0.758508 0.13746,-1.392056 -0.35113,-1.696959 -0.92846,-0.579815 -3.48014,0.02249 -4.7135,-0.632298 -1.53451,-0.81599 -1.92439,-4.279885 -1.54576,-5.900617 0.37988,-1.620733 1.34957,-3.357679 1.61324,-4.60728 0.0525,-0.25242 0.0775,-0.486095 -0.0325,-0.616054 -0.0137,-0.01625 -0.0287,-0.03124 -0.0425,-0.04624 -3.71131,-0.84598 -4.61352,13.590664 -4.66976,12.813412 z"
     style="fill:#000000;stroke:none"/>
</svg>
