<?xml version="1.0" encoding="UTF-8" standalone="yes"?>
<svg xmlns="http://www.w3.org/2000/svg" xmlns:xlink="http://www.w3.org/1999/xlink"
  width="595.276pt" height="841.89pt" viewBox="0 0 595.276 841.89">
  <path
    style="stroke:none; fill:#000000"
    d="m 163.71573,17.26609 c -0.66913,-0.72462 -1.79966,-2.10809 -2.51229,-3.07437 -1.24864,-1.69307 -1.33129,-1.7509 -2.27573,-1.59236 -3.2647,0.54805 -3.68191,0.51131 -5.27921,-0.46478 -1.83111,-1.11897 -2.74497,-2.59244 -2.97197,-4.79186 -0.21357,-2.06921 0.39643,-2.76409 2.6417,-3.0093 3.23425,-0.35322 5.70237,0.93735 7.12889,3.72764 0.35586,0.69607 0.8545,1.43778 1.1081,1.64825 0.25361,0.21047 0.83101,0.92032 1.28312,1.57744 0.45211,0.65712 0.92097,1.19476 1.04192,1.19476 0.2219,0 0.67575,-1.86075 1.01477,-4.1605 0.56447,-3.82902 6.09761,-9.3757 8.12563,-8.14551 1.24336,0.75422 2.09903,4.59388 1.45716,6.53876 -0.47176,1.42947 -1.33031,2.06978 -3.4231,2.55298 -4.38631,1.01275 -4.81696,1.6122 -4.55093,6.33465 l 0.16796,2.98169 -0.86971,0 c -0.6819,0 -1.13245,-0.28452 -2.08631,-1.31749 z m -109.005199,0 C 54.041406,16.54147 52.910878,15.158 52.198245,14.19172 50.95072,12.50017 50.866115,12.44087 49.922518,12.59685 46.789179,13.11482 46.42189,13.10575 45.177606,12.47978 44.502359,12.14008 43.718179,11.65826 43.434979,11.40907 42.591647,10.667 41.832536,8.90464 41.667508,7.30567 41.458163,5.27731 42.081359,4.57715 44.313034,4.33342 c 3.234247,-0.35322 5.702375,0.93735 7.128886,3.72764 0.355859,0.69607 0.854507,1.43778 1.108109,1.64825 0.253602,0.21047 0.831002,0.92032 1.283113,1.57744 0.452111,0.65712 0.920975,1.19476 1.041923,1.19476 0.220246,0 0.665836,-1.81915 1.019088,-4.1605 0.388264,-2.57341 2.596825,-5.67224 5.335535,-7.48629 2.174662,-1.44043 3.3303,-1.0058 4.096701,1.54075 0.53529,1.77863 0.499199,3.16435 -0.120039,4.60898 -0.67525,1.57529 -0.940568,1.76689 -3.159245,2.28143 -4.385623,1.0171 -4.81449,1.6145 -4.548515,6.33601 l 0.167968,2.98169 -0.869717,0 c -0.681898,0 -1.132448,-0.28452 -2.08631,-1.31749 z M 156.23684,40.78978 c -0.58039,-0.3539 -1.16896,-1.14392 -1.73354,-2.32689 -0.70348,-1.47402 -0.8548,-2.13567 -0.8548,-3.73763 0,-6.28482 4.33851,-10.93571 16.91938,-18.1376 7.94956,-4.55071 16.42444,-8.74189 24.54697,-12.13952 1.52552,-0.63812 3.77219,-1.57906 4.9926,-2.09098 3.58112,-1.50216 5.56129,-2.07759 7.69927,-2.23739 2.68769,-0.20089 3.36403,0.14981 3.483,1.80604 0.17581,2.44755 -0.34682,3.05619 -3.35557,3.90779 -4.55844,1.29023 -5.60704,2.05259 -13.04133,9.4815 -3.47826,3.47573 -6.44515,6.31952 -6.5931,6.31952 -0.31451,0 0.64006,-1.98689 1.53244,-3.18972 0.67824,-0.91419 4.03454,-6.46006 4.03454,-6.66658 0,-0.0709 -0.41105,-0.12891 -0.91343,-0.12891 -3.34659,0 -15.63375,5.56386 -22.86435,10.35341 -7.01964,4.64982 -10.02155,7.14041 -12.30089,10.20566 -1.35976,1.82861 -1.73776,3.01711 -0.95957,3.01711 0.62703,0 1.00028,0.95999 1.17265,3.01595 0.14758,1.76036 -0.14815,3.08791 -0.68726,3.08509 -0.10904,-5.6e-4 -0.5937,-0.24215 -1.07701,-0.53685 z m -109.005191,0 c -0.58039,-0.3539 -1.16896,-1.14392 -1.733543,-2.32689 -0.703483,-1.47402 -0.854803,-2.13567 -0.854803,-3.73763 0,-6.28482 4.338515,-10.93571 16.919381,-18.1376 7.94956,-4.55071 16.424436,-8.74189 24.54697,-12.13952 1.525522,-0.63812 3.772192,-1.57906 4.992602,-2.09098 3.58112,-1.50216 5.56128,-2.07759 7.69927,-2.23739 2.513844,-0.18789 3.276534,0.15897 3.629284,1.65057 0.49477,2.09208 -0.88902,3.55157 -3.931134,4.14619 -0.91433,0.17872 -1.78821,0.52635 -4.2077,1.67384 -0.85201,0.40407 -3.38336,2.70471 -7.975711,7.24876 -3.700158,3.66124 -6.861189,6.70156 -7.024514,6.75626 -0.355975,0.11922 0.667237,-1.98056 1.535218,-3.15049 0.748746,-1.00922 4.034534,-6.47019 4.034534,-6.70538 0,-0.35881 -3.03235,0.18462 -5.408654,0.96929 -4.345291,1.43483 -13.468765,6.0482 -18.333417,9.27045 -7.056028,4.67378 -10.054076,7.15969 -12.336598,10.22922 -1.35976,1.82861 -1.737756,3.01711 -0.95957,3.01711 0.627027,0 1.000285,0.95999 1.172649,3.01595 0.147584,1.76036 -0.14815,3.08791 -0.687257,3.08509 -0.109046,-5.6e-4 -0.593701,-0.24215 -1.077007,-0.53685 z m 133.969791,2.85004 c 1.71784,-8.26045 1.39949,-9.96235 -2.46084,-13.15551 -1.15901,-0.95869 -2.22386,-1.9609 -2.36634,-2.22712 -0.32715,-0.61129 -0.32454,-3.37083 0.005,-4.78938 0.59254,-2.55428 1.77532,-2.39152 4.34485,0.59787 2.28608,2.65962 3.00218,4.22235 3.42476,7.47378 0.37899,2.91591 0.18038,4.72827 -1.05742,9.64952 -0.68122,2.70843 -0.83959,3.06151 -1.41027,3.14426 -0.57292,0.0831 -0.62507,0.008 -0.47928,-0.69342 z m -89.228374,8.85186 c -0.22266,-0.78679 -1.19809,-5.51636 -1.81967,-8.82307 -0.69607,-3.70296 -0.74532,-7.92122 -0.15201,-13.01957 0.68429,-5.88012 0.95499,-6.3834 4.29277,-7.98094 0.93044,-0.44534 1.72081,-1.05811 2.02166,-1.5674 0.27167,-0.45991 0.90951,-1.27682 1.4174,-1.81535 0.7708,-0.81728 1.11518,-0.97914 2.08328,-0.97914 3.203854,0 4.587424,2.55554 3.528924,6.51813 -0.87252,3.26634 -2.15992,4.57209 -4.126314,4.18512 -2.31186,-0.45494 -5.98476,-0.79119 -6.69508,-0.6129 -0.64608,0.16215 -0.75598,0.30654 -0.61565,0.80888 0.0939,0.33633 0.29422,2.54613 0.44505,4.91069 0.15083,2.36455 0.46535,5.85937 0.69893,7.76627 0.84319,6.88336 0.84311,6.93322 -0.0149,9.1201 -0.42608,1.08602 -0.80897,1.97458 -0.85087,1.97458 -0.0419,0 -0.13798,-0.21843 -0.21353,-0.4854 z m -37.449524,0.9604 c -0.424777,-0.31061 -0.428826,-0.45661 -0.04783,-1.72466 0.363554,-1.21 0.903864,-1.85922 4.269229,-5.12978 3.583431,-3.48248 4.730601,-4.8364 4.388072,-5.17893 -0.212438,-0.21244 -4.326893,0.7576 -5.699363,1.3437 -0.669172,0.28577 -1.695943,1.04388 -2.281712,1.68471 -1.493387,1.63374 -1.72868,1.28058 -1.948519,-2.92458 -0.153164,-2.92978 -0.113262,-3.47591 0.296952,-4.06415 1.821732,-2.61234 6.862853,-3.76 10.958814,-2.49489 2.512808,0.77613 3.019729,1.55262 2.831181,4.33673 -0.31839,4.70134 -4.938022,10.21302 -11.996918,14.31351 -0.168214,0.0977 -0.514673,0.025 -0.769906,-0.16166 z m 90.638608,8.55423 c -1.00163,-0.73241 -0.0952,-2.16945 4.03733,-6.40048 3.83657,-3.92805 4.94799,-5.27328 4.62423,-5.59704 -0.25214,-0.25213 -5.685,1.29367 -6.75097,1.92084 -0.48935,0.28791 -1.19897,0.891 -1.57695,1.3402 -1.26865,1.5077 -1.43418,1.12368 -1.65451,-3.83841 -0.11883,-2.67616 -0.0868,-2.89954 0.51815,-3.61854 0.35465,-0.42147 1.31041,-1.13226 2.12393,-1.57953 1.33668,-0.73491 1.77759,-0.82331 4.57849,-0.91794 4.96871,-0.16787 7.02061,0.87232 7.02348,3.56048 0.001,1.34237 -0.91596,4.42433 -1.80101,6.05047 -1.49727,2.75097 -5.67418,6.66373 -9.32366,8.73402 -1.11756,0.63397 -1.34481,0.67768 -1.79851,0.34593 z M 7.7535057,69.61018 c 0,-1.38786 1.026416,-2.80132 4.8275243,-6.6479 2.185853,-2.212 4.049407,-4.24024 4.141226,-4.50721 0.291324,-0.84701 -1.338758,-0.58789 -5.36298,0.85249 -0.686484,0.24571 -1.8385133,0.99605 -2.5600643,1.66742 -1.306975,1.21608 -1.312847,1.2182 -1.560768,0.56386 -0.136872,-0.36124 -0.33904,-2.04247 -0.449262,-3.73607 l -0.200401,-3.07926 0.900902,-1.02607 c 1.115894,-1.27093 2.145488,-1.81924 4.2856433,-2.28234 2.100979,-0.45462 3.35493,-0.46513 5.623334,-0.0472 2.463819,0.45397 3.668457,1.54586 3.668457,3.32509 0,1.64814 -0.667209,3.82741 -1.894837,6.189 -1.249777,2.40421 -4.744971,5.8808 -7.940338,7.8981 -2.3897043,1.50867 -3.4784363,1.76847 -3.4784363,0.83005 z M 144.24226,9.20686 c 0.29114,-0.74122 -0.28476,-2.10044 -1.00745,-2.37776 -1.39631,-0.53581 -4.01672,0.11075 -4.38987,1.08317 -0.25108,0.65431 0.48259,1.87684 1.96939,3.28161 l 1.31453,1.24201 0.93108,-1.29468 c 0.51209,-0.71208 1.04414,-1.58254 1.18232,-1.93435 z m -6.65436,6.20488 c -0.29043,-0.31494 -0.80379,-1.50712 -1.1408,-2.64929 -0.71754,-2.43182 -0.66874,-5.24426 0.14791,-8.5251 0.43678,-1.75471 0.62764,-2.09278 1.53757,-2.72336 C 139.42881,0.6157 141.42879,0 143.05045,0 c 1.08999,0 1.3834,0.14308 2.41732,1.17881 0.80779,0.8092 1.33107,1.66949 1.66894,2.74377 0.4654,1.47983 0.46679,1.66602 0.0256,3.42237 -0.53011,2.11042 -2.32135,5.8458 -3.59369,7.49418 -0.47101,0.6102 -1.64357,2.328022 -2.90822,3.53191 l -5.68577,5.412576 c -3.82519,3.028076 -4.046,3.216995 -4.38686,3.475234 -0.51233,0.38816 -2.29034,1.4232 -3.95113,2.30008 -2.69131,1.421 -3.23925,1.60844 -5.03968,1.72398 -2.49724,0.16027 -4.17014,-0.10209 -3.76485,-0.59043 0.15512,-0.1869 1.88049,-1.18762 3.83415,-2.2238 1.95367,-1.03618 4.52023,-2.463823 5.5658,-3.348 1.7717,-1.415906 12.11537,-7.783895 10.35584,-9.70894 z m -11.31232,5.41836 c -4.16852,-3.96694 -9.29321,-6.96176 -11.91288,-6.96176 l -1.20979,0 -8.3e-4,3.25906 c -8.3e-4,3.32986 0.34619,11.3129 0.8467,19.47442 0.40389,6.58611 1.85754,14.39868 3.18326,17.10836 0.44566,0.91089 1.54669,2.31897 2.7275,3.48813 2.67883,2.65243 3.22858,3.44825 3.22858,4.67377 0,2.51489 -3.88483,8.30174 -5.57314,8.30174 -0.40662,0 -1.65673,-0.71542 -3.06974,-1.75679 -2.54109,-1.87274 -4.14831,-2.49176 -7.38033,-2.84256 -1.41607,-0.1537 -1.71372,-0.11762 -1.60364,0.1944 0.0743,0.21073 0.58113,1.98359 1.12618,3.9397 1.27475,4.57487 3.18927,8.92553 4.37528,9.94259 1.49529,1.28229 2.95655,1.70574 5.39459,1.56327 3.47577,-0.20311 6.00421,-1.68756 11.22885,-6.59245 1.39666,-1.31119 2.17689,-2.33372 2.9053,-3.80754 0.89518,-1.81127 0.98057,-2.17678 0.84479,-3.61606 -0.19888,-2.10828 -0.7455,-3.67945 -2.69919,-7.75838 -2.25464,-4.70728 -3.84706,-7.04787 -6.65939,-9.78815 -1.33257,-1.29844 -2.64241,-2.79124 -2.91075,-3.31733 -0.67166,-1.3168 -0.42069,-3.98285 0.67548,-7.17537 0.46717,-1.36063 0.85132,-2.70869 0.85365,-2.99569 0.009,-1.12526 0.42802,-1.30815 1.27591,-0.55711 0.44005,0.38978 1.45651,1.29301 2.25878,2.00716 1.41591,1.26038 3.99143,5.09272 7.07119,10.52184 1.75578,3.09517 3.46188,7.18962 4.37626,10.50253 1.13137,4.09912 2.29831,7.21097 3.18262,8.48702 1.02435,1.47814 2.69226,2.66578 6.22777,4.43449 3.57378,1.78785 5.22658,2.0372 7.60498,1.14732 2.73348,-1.02272 4.27442,-1.9374 5.19612,-3.08433 0.49183,-0.61202 1.12487,-1.11276 1.40675,-1.11276 0.58226,0 3.55515,1.60849 3.55515,1.92353 0,0.45309 1.50967,0.85014 3.23244,0.85014 1.62193,0 1.79842,-0.0527 1.62533,-0.48539 -0.45711,-1.14261 -1.05224,-5.69095 -1.08157,-8.266 -0.0308,-2.70749 -8.3e-4,-2.85083 1.04335,-4.96338 1.34204,-2.7155 3.71736,-5.16224 6.73178,-6.9342 3.06766,-1.80325 5.45442,-2.48797 8.0011,-2.29537 3.39469,0.25674 5.50678,1.71118 7.3599,5.06821 0.62208,1.12693 1.49485,2.33369 1.93948,2.68167 0.44463,0.34798 0.84368,0.94474 0.88678,1.32612 0.071,0.62872 -0.0122,0.68969 -0.89244,0.65346 -0.53393,-0.022 -2.02824,-0.36915 -3.32068,-0.77151 -4.56534,-1.42124 -7.67236,-1.25437 -11.1024,0.59629 -2.35816,1.27234 -4.71523,2.84255 -4.71523,3.14114 0,0.13038 0.41353,0.64871 0.91896,1.15184 0.50543,0.50314 1.50773,1.69032 2.22733,2.63818 1.04875,1.38142 1.67818,1.90426 3.17219,2.63498 1.75809,0.85988 2.02909,0.9106 4.77619,0.89393 3.5504,-0.0215 7.36539,-0.94255 11.35015,-2.7401 5.44038,-2.45419 5.92811,-2.65088 6.57354,-2.65088 0.36294,0 0.6599,0.12876 0.6599,0.28612 0,0.7286 -1.28892,3.98813 -2.5452,6.43655 -1.12386,2.19033 -1.66868,2.92524 -2.88236,3.88806 -1.80692,1.43342 -7.2224,3.77104 -11.10336,4.7928 -1.51034,0.39764 -3.6822,0.96996 -4.82634,1.27182 -3.57995,0.94451 -10.7012,1.89961 -14.19691,1.90409 -3.29327,0.004 -5.77122,-0.37734 -9.07547,-1.39744 l -1.77645,-0.54844 -1.41491,0.97449 c -2.44146,1.6815 -5.6108,2.91002 -7.5137,2.91251 -2.45179,0.003 -4.88171,-0.95476 -7.49953,-2.95661 -2.90212,-2.21924 -3.24997,-2.62062 -5.2679,-6.07862 l -1.71369,-2.93664 -0.17595,1.06497 c -0.0968,0.58573 -0.17733,1.97485 -0.17901,3.08693 -0.003,2.2888 -0.37141,3.21265 -2.4536,6.16036 -2.53819,3.59327 -4.95619,5.75973 -9.12659,8.17719 -3.57058,2.06977 -7.71128,2.69777 -10.23416,1.55216 l 2e-5,0 c -2.62018,-1.18979 -4.58857,-3.97515 -5.78296,-8.18316 -1.05686,-3.72343 -1.18877,-10.2767 -0.2925,-14.53122 0.23509,-1.11598 0.42744,-2.35097 0.42744,-2.74444 0,-0.71456 -0.002,-0.71519 -1.84627,-0.54298 -2.13383,0.19926 -3.934244,1.03341 -6.164644,2.85617 -1.7793,1.4541 -2.27177,1.6023 -4.73811,1.42583 -2.5013,-0.17896 -6.212259,-1.91774 -7.462837,-3.49673 -1.150614,-1.45277 -1.422456,-2.27206 -1.424495,-4.29326 -0.0017,-1.68987 -1.326277,-7.17627 -1.861858,-7.71185 -0.320528,-0.32053 -3.252,1.26841 -6.711148,3.63763 -2.46261,1.68667 -3.906774,3.23481 -3.906774,4.18804 0,0.54729 1.819325,2.26918 4.992605,4.72523 4.265489,3.3014 5.547155,3.95462 9.933421,5.06271 2.183516,0.55162 4.284086,1.00294 4.667936,1.00294 0.64136,0 0.68254,0.073 0.50829,0.90145 -0.10429,0.49579 -0.8319,2.07743 -1.6169,3.51476 -0.78501,1.43732 -1.68324,3.24714 -1.99607,4.02182 -0.544465,1.34826 -0.609708,1.40467 -1.52552,1.31895 -0.526204,-0.0493 -2.315271,-0.3925 -3.975703,-0.76276 -4.599126,-1.02557 -11.224761,-0.8286 -15.943279,0.47397 -3.003748,0.8292 -7.887236,1.62649 -9.962423,1.62649 -2.293744,0 -3.655918,-0.74225 -5.31955,-2.89863 L 49.01215,79.60227 47.72917,80.5747 c -0.70564,0.53484 -1.83601,1.22474 -2.511934,1.53312 -1.539761,0.70248 -5.502122,1.02202 -7.139713,0.57577 -1.425677,-0.38851 -3.594436,-2.16911 -5.074377,-4.16619 -1.229326,-1.65889 -2.969876,-5.89236 -3.934114,-9.56878 -0.3434,-1.30931 -0.705272,-2.38057 -0.804156,-2.38057 -0.09888,0 -0.254612,1.22815 -0.34606,2.72921 -0.202233,3.31954 -0.35453,3.69859 -3.639683,9.05889 -1.827556,2.98197 -7.706159,9.16208 -9.666288,10.16207 -1.814046,0.92545 -5.0039023,1.40774 -6.9621783,1.05264 -2.153483,-0.3905 -2.858907,-0.76969 -4.260373,-2.2901 -1.392465,-1.51065 -2.045117,-2.75048 -2.85982997,-5.43274 -0.560398,-1.84498 -0.606005,-2.42396 -0.458548,-5.82135 C 0.28839173,71.039 1.9693047,60.95188 2.9653677,58.6631 c 0.882937,-2.02883 1.086555,-2.28701 1.487477,-1.88609 0.221902,0.2219 0.191131,0.70979 -0.112833,1.78901 -0.694959,2.46746 -1.136175,6.28252 -1.149982,9.9436 -0.01243,3.29428 0.02671,3.54312 0.785398,4.99261 1.23923,2.36759 2.282224,3.51163 3.941686,4.32353 1.363241,0.66697 1.741445,0.73059 3.5247563,0.59294 1.993219,-0.15384 4.145318,-0.88418 5.299841,-1.79854 1.193687,-0.94539 4.097186,-4.3467 6.185417,-7.24592 2.416342,-3.35476 3.688816,-5.92662 3.684034,-7.44599 -0.009,-2.8472 -1.582181,-6.14764 -5.097348,-10.69365 -3.918365,-5.06745 -4.241528,-5.52223 -5.146257,-7.24215 -1.35468,-2.57528 -1.056136,-5.84873 0.796758,-8.73621 1.075088,-1.67538 1.575505,-1.76973 3.363107,-0.63412 2.147796,1.36444 4.262929,4.6068 6.72654,10.31132 0.691767,1.60179 1.78026,4.09809 2.418873,5.54733 2.232814,5.06705 2.999903,7.205 3.305046,9.21144 0.697486,4.58627 1.590588,6.37569 4.914048,9.84581 2.1954,2.29228 3.550673,2.85474 6.878682,2.85474 2.347936,0 2.863012,-0.29282 4.204871,-2.39049 1.302252,-2.03574 1.689267,-1.98285 4.636479,0.63363 1.572937,1.39642 4.258839,2.75307 5.973216,3.01707 1.689544,0.26018 5.712141,-0.11502 6.324636,-0.58991 0.490285,-0.38014 0.489955,-0.40597 -0.01012,-0.79328 -0.78078,-0.60469 -5.274104,-1.58623 -8.012107,-1.7502 l -2.42696,-0.14533 0,-1.34527 c 0,-2.06816 1.022014,-5.45769 2.14862,-7.12594 1.116501,-1.65328 2.592687,-2.55441 5.032792,-3.07224 2.997623,-0.63615 4.879108,-1.93965 9.840018,-6.81722 4.758384,-4.67845 6.741593,-6.09375 10.50217,-7.49479 2.793928,-1.0409 3.943183,0.50315 4.327133,5.81362 0.19075,2.63815 0.34048,3.31777 0.96624,4.38554 1.43438,2.44759 4.71228,4.66263 7.71954,5.2165 l 1.84384,0.33959 2.455351,-1.53767 c 3.36295,-2.10606 4.33117,-2.54866 6.85236,-3.13237 l 2.17808,-0.50426 -0.17781,-0.99199 c -0.98234,-5.48054 -1.63522,-15.11451 -1.477,-21.79451 0.13591,-5.73798 -0.21039,-11.28071 -1.01793,-16.29232 -0.74198,-4.60478 -0.55425,-6.13553 1.25313,-10.21834 0.44435,-1.00375 0.8079,-1.97522 0.8079,-2.15881 0,-0.52289 1.29372,-2.94383 1.79582,-3.36054 0.62545,-0.51908 2.64661,0.14077 5.5544,1.81333 1.22042,0.70198 3.09264,1.71655 4.16051,2.25459 4.25177,2.14225 11.36213,7.13408 13.59302,9.543 0.76388,0.82484 1.73379,1.918018 2.15535,2.42928 0.27347,0.331657 0.45222,0.543284 1.61826,2.563311 l 1.7653,4.754269 c 1.00058,3.80315 1.29133,10.57077 0.59945,13.9526 -0.68089,3.32805 -0.96945,4.19825 -1.67224,5.04294 -0.35299,0.42425 -0.91192,1.58267 -1.24208,2.57425 -1.16461,3.49781 -2.36941,4.84437 -3.1819,3.55631 -0.22225,-0.35233 -0.0706,-1.16157 0.62387,-3.3284 1.29058,-4.02696 1.36773,-5.72646 0.45849,-10.09943 -0.52144,-2.50787 -1.06922,-4.245628 -1.82821,-5.79971 -1.72864,-3.691403 -3.93001,-5.533851 -6.83952,-8.70947 z m 22.58361,72.98473 -2.97696,-2.98623 3.12481,-3.11594 3.12481,-3.11594 3.11613,3.125 3.11615,3.12501 -2.98642,2.97716 c -1.64253,1.63744 -3.11133,2.97716 -3.26399,2.97716 -0.15266,0 -1.6172,-1.3438 -3.25453,-2.98622 z m -77.108002,0 -2.976959,-2.98623 3.124807,-3.11594 3.124807,-3.11594 3.116139,3.125 3.116143,3.12501 -2.986421,2.97716 c -1.642528,1.63744 -3.111324,2.97716 -3.263984,2.97716 -0.152663,0 -1.617202,-1.3438 -3.254532,-2.98622 z m -37.167165,0 -2.976959,-2.98623 3.142686,-3.13377 3.142686,-3.13377 2.590169,2.8093 2.590169,2.8093 2.816641,-2.80706 2.816639,-2.80705 2.927,3.13835 2.926997,3.13835 -2.80878,2.98667 c -1.544829,1.64267 -2.931364,2.98339 -3.081186,2.97939 -0.149823,-0.004 -1.471407,-1.20177 -2.936855,-2.66172 l -2.664453,-2.65445 -2.436613,2.65445 c -1.340137,1.45995 -2.57939,2.65446 -2.753895,2.65446 -0.174506,0 -1.656915,-1.3438 -3.294246,-2.98622 z"/>
</svg>