<?xml version="1.0" encoding="UTF-8" standalone="yes"?>
<svg xmlns="http://www.w3.org/2000/svg" xmlns:xlink="http://www.w3.org/1999/xlink"
  width="595.276pt" height="841.89pt" viewBox="0 0 595.276 841.89"
  fill-rule="evenodd">
<path
	style="stroke:none; fill:#000000"
	d="m 63.41649,11.70751 -1.289,1.581 0.403,3.317 c 0,0 4.275,-4.157 7.471,-6.855 2.873,-2.426 4.873,-3.672 7.392,-5.421 0.916,-0.635 1.013,-0.82 0.973,-1.843 0,0 -0.099,-2.486 -0.099,-2.486 0,0 -0.849,0.503 -2.016,1.203 -3.774,2.263 -9.435,6.334 -12.835,10.504 z m -8.733,51.206 -1.474,-7.393 -0.193,7.264 c -0.013,0.487 -0.025,0.973 -0.031,1.434 -0.032,2.361 -0.046,3.474 -0.046,3.474 -0.014,1.024 0.025,1.246 0.391,2.22 2.116,5.634 6.389,8.597 10.932,7.201 9.614,-2.954 17.165,-9.033 18.706,-16.165 0.133,-0.617 0.267,-1.3 0.298,-1.823 1.325,-1.438 1.773,-5.26 1.475,-6.546 -0.576,-2.478 -2.495,-4.53 -4.744,-5.888 -2.159,-1.305 -4.644,-2.118 -6.882,-3.547 -1.145,-0.731 -2.317,-1.689 -1.578,-2.284 1.397,-1.125 2.424,-0.585 1.996,-1.701 -0.648,-1.691 -1.532,-1.344 -3.73,-3.124 -2.886,-2.336 -3.69,-5.461 -5.442,-2.053 -1.995,3.878 -0.974,6.37 1.74,10.515 3.553,5.427 6.167,6.002 12.449,9.072 1.147,0.56 2.336,1.745 2.738,2.86 0.255,0.707 0.548,1.554 0.829,2.178 -1.853,1.081 -4.707,3.866 -7.432,6.135 -6.518,5.427 -13.173,8.771 -17.614,3.196 -0.848,-1.064 -1.585,-2.175 -2.017,-3.561 -0.151,-0.487 -0.273,-0.976 -0.371,-1.464 z m -5.803,-10.712 c -0.147,-1.126 -0.459,-2.156 -1.057,-3.059 -1.054,-1.591 -3.244,-3.467 -4.014,-5.274 -1.037,-2.433 -0.24,-3.426 -3.274,-2.598 -6.336,1.728 -10.012,9.481 -9.543,16.22 0.141,2.029 0.663,3.853 0.205,5.15 -1.291,3.656 -18.35,15.613 -21.114,16.641 -0.948,0.353 -2.007,0.723 -2.998,1.086 -4.345,1.596 -14.312,5.012 1.632,4.477 5.285,-0.177 9.948,-2.579 13.901,-5.836 2.215,-1.825 9.115,-9.814 9.651,-11.174 0.283,-0.718 0.363,-1.318 0.382,-2.478 0.041,-2.512 -0.208,-7.647 -0.208,-7.647 0,0 0.487,0.006 0.906,0.036 1.371,0.096 2.008,0.442 2.791,0.883 1.682,0.949 4.036,2.335 5.838,3.337 1.778,0.987 3.148,1.19 4.033,-0.371 0.079,-0.138 0.16,-0.292 0.243,-0.457 3.238,-6.46 3.105,-5.267 2.626,-8.936 z m -12.373,-1.081 -0.008,-0.226 c -0.009,-0.203 0.047,-0.281 0.552,-0.778 2.074,-2.036 3.209,-0.52 5.551,2.072 0.841,0.931 1.583,1.885 1.846,2.75 0.136,0.447 -0.002,0.558 -0.676,0.4 -1.532,-0.36 -2.745,-1.749 -4.173,-2.655 -0.633,-0.401 -1.307,-0.708 -2.018,-0.96 -0.958,-0.34 -1.065,-0.4 -1.074,-0.603 z m -11.794,28.048 c -0.027,0.301 -0.08,0.737 0.095,0.899 0.208,0.193 0.744,-0.006 1.138,0.146 0.305,0.118 0.526,0.445 0.811,0.553 0.215,0.081 0.467,0.037 0.731,-0.023 3.11,-0.697 10.694,-4.395 12.136,-5.305 0.533,-0.336 0.993,-0.664 1.251,-1.176 1.15,-2.287 -0.166,-3.825 2.067,-3.859 1.305,-0.019 4.683,1.081 5.518,2.361 0.429,0.658 0.481,1.252 1.578,0.964 1.413,-0.372 2.168,-3.631 2.031,-4.49 -0.348,-2.195 -3.297,-6.098 -3.297,-6.098 0,0 -4.531,1.971 -6.619,3.366 -0.922,0.616 -1.368,1.121 -1.664,1.696 -0.602,1.171 -0.579,2.636 -1.433,3.838 -0.54,0.759 -8.724,4.173 -13.147,6.159 -1.04,0.466 -1.159,0.563 -1.196,0.969 z m 53.027,-1.625 c 0.146,1.765 1.085,2.863 2.793,3.18 2.204,0.409 3.45,-0.639 4.015,-2.76 0.124,-0.465 0.096,-0.853 -0.245,-1.04 -0.649,-0.355 -2.432,0.014 -3.294,-0.388 -1.073,-0.499 -1.346,-2.623 -1.08,-3.616 0.265,-0.993 0.942,-2.058 1.126,-2.824 0.038,-0.155 0.055,-0.298 -0.022,-0.377 -0.01,-0.01 -0.02,-0.02 -0.029,-0.029 -2.594,-0.518 -3.225,8.33 -3.264,7.854 z m -37.436,-43.652 -4.402,3.836 c -0.732,0.637 -0.836,0.752 -1.041,1.144 -0.286,0.55 -0.386,1.469 -0.245,1.594 0.456,0.404 2.069,-0.576 2.63,-0.939 4.914,-3.179 7.153,-5.181 7.948,-9.297 0.404,-2.092 -0.86,-2.902 -3.095,-3.169 -3.545,-0.423 -7.064,0.01 -8.442,2.352 0.215,8.939 0.518,3.827 3.525,3.192 3.345,-0.706 6.942,-2.274 3.122,1.287 z m -3.934,-18.584 -0.409,-8.247 c -0.061,-1.224 -0.084,-1.437 -0.239,-2.129 -0.472,-2.125 -1.745,-3.288 -3.074,-4.04 -1.692,-0.955 -2.982,-1.31 -4.725,0.035 -1.433,1.106 -1.568,5.109 -1.005,5.735 0.42,0.467 1.534,0.425 2.882,0.091 3.367,-0.837 3.705,-0.644 4.582,3.122 0.417,1.789 0.466,3.465 0.261,5.265 -0.435,3.822 -1.458,5.681 0.546,7.924 0.834,0.934 1.706,1.075 3.609,0.661 1.352,-0.295 1.62,-0.959 2.187,-2.939 0.399,-1.394 0.715,-2.642 0.613,-4.032 -0.203,-2.757 -3.022,-7.94 0.375,-9.228 0.627,-0.237 1.443,-0.082 2.146,0.08 0.947,0.218 1.108,0.119 1.607,-0.99 0.411,-0.912 0.886,-1.751 1.147,-2.733 0.98,-3.684 -0.521,-4.724 -3.533,-3.215 -3.455,1.732 -5.007,9.149 -4.269,14.122 0.226,2.049 0.474,3.895 0.474,3.895 0,0 -0.207,-0.003 -0.453,-0.028 -0.967,-0.101 -2.628,-1.459 -2.722,-3.349 z m 51.257,11.971 c -0.587,-3.485 -0.24,-11.022 -0.24,-11.022 0,0 0.405,0.026 0.863,0.043 l 2.304,0.084 -0.781,-3.23 c -0.605,-2.499 -2.04,-5.833 -2.488,-8.201 l -1.123,-4.952 -2.714,1.562 c -1.145,0.819 -2.406,2.266 -3.019,3.681 -0.933,2.153 0.271,2.821 1.806,5.243 0.981,1.548 1.852,4.539 1.709,5.958 -0.079,0.791 -0.484,1.714 -0.692,2.673 -0.36,1.651 0.223,5.179 0.77,8.424 1.508,8.952 2.366,22.846 3.127,28.847 l 0.468,3.681 1.233,-1.301 c 0.731,-0.771 1.602,-2.23 2.065,-3.881 0.256,-0.911 0.342,-2.291 0.31,-3.669 -0.12,-5.084 -2.878,-19.666 -3.598,-23.94 z m -30.847,0 c -0.587,-3.485 -0.24,-11.022 -0.24,-11.022 0,0 0.405,0.026 0.863,0.043 l 2.304,0.084 -0.782,-3.23 c -0.605,-2.499 -2.04,-5.833 -2.487,-8.201 l -1.124,-4.952 -2.714,1.562 c -1.145,0.819 -2.406,2.266 -3.019,3.681 -0.932,2.153 0.271,2.821 1.807,5.243 0.98,1.548 1.852,4.539 1.709,5.958 -0.08,0.791 -0.484,1.714 -0.693,2.673 -0.36,1.651 0.224,5.179 0.771,8.424 1.508,8.952 2.365,22.846 3.127,28.847 l 0.467,3.681 1.234,-1.301 c 0.731,-0.771 1.601,-2.23 2.065,-3.881 0.256,-0.911 0.342,-2.291 0.309,-3.669 -0.119,-5.084 -2.877,-19.666 -3.597,-23.94 z m 17.444,4.438 0.513,-0.009 c 0.23,-0.004 0.292,-0.144 0.617,-1.401 1.872,-7.226 2.214,-11.216 -2.391,-15.851 -0.758,-0.763 -1.642,-1.403 -2.211,-0.719 -0.386,0.464 -0.78,3.74 -0.604,4.455 0.308,1.251 1.22,1.658 2.274,2.507 2.38,1.919 2.976,3.358 2.674,5.914 -0.233,1.961 -0.872,5.104 -0.872,5.104 z"/>
</svg>