<?xml version="1.0"?>
<svg xmlns="http://www.w3.org/2000/svg" version="1.1">
  <path
     d="m 55.374641,24.89119 0.066,2.05 7.404,-5.795 c 4.83,-3.781 10.994,-8.211 14.188,-9.523 0.486,-0.2 0.894,-0.313 1.046,-0.046 0.121,0.215 -1.083,5.409 0.432,3.911 0.419,-0.415 0.624,-1.502 0.942,-2.443 0.506,-1.499 1.302,-2.626 2.462,-3.6 5.649,-4.742 7.319,-3.342 7.965,-7.551 0.276,-1.798 0.081,-2.207 -1.471,-1.682 -1.717,0.582 -4.178,1.908 -6.884,3.554 -4.164,2.533 -25.471,14.301 -26.127,20.441 -0.023,0.217 -0.031,0.444 -0.023,0.684 z m -28.801,4.278 0.388,0.391 7.728,-5.962 c 4.907,-4.038 13.322,-10.362 17.247,-11.975 0.486,-0.2 0.895,-0.313 1.046,-0.046 0.121,0.215 -1.083,5.409 0.433,3.911 0.419,-0.415 0.623,-1.502 0.941,-2.443 0.506,-1.499 1.303,-2.626 2.462,-3.6 5.65,-4.742 7.32,-3.342 7.965,-7.551 0.276,-1.798 0.082,-2.207 -1.471,-1.682 -1.716,0.582 -4.177,1.908 -6.884,3.554 -4.164,2.533 -29.216,18.046 -29.872,24.187 -0.04,0.37 -0.035,0.77 0.017,1.216 z m 13.305,-22.162 c 2.731,-0.722 4.195,-0.512 3.486,-4.676 -0.077,-0.45 -0.189,-0.913 -0.348,-1.329 -1.591,-4.156 -8.6,5.917 -9.007,6.543 -0.225,0.345 -0.477,0.688 -0.712,0.992 -0.478,0.617 -0.877,1.132 -0.877,1.132 0,0 -0.879,-0.923 -0.975,-1.023 -1.048,-1.664 -4.055,-7.545 -9.071,-5.336 -1.039,0.458 -2.098,1.175 -2.365,1.704 -0.534,1.059 0.33,5.026 1.21,5.825 0.619,0.56 2.871,1.013 4.102,0.742 1.305,-0.287 2.465,-1.42 3.423,-1.314 0.463,0.051 2.171,1.907 3.116,3.681 2.062,3.87 3.07,1.421 3.468,-0.667 1.234,-6.486 3.502,-5.997 4.55,-6.274 z m 42.604,23.528 -4.982,4.949 c -0.828,0.822 -0.946,0.97 -1.177,1.477 -0.325,0.709 -0.437,1.895 -0.278,2.056 0.516,0.521 2.341,-0.743 2.976,-1.212 5.561,-4.101 8.095,-6.684 8.994,-11.996 0.457,-2.699 -0.972,-3.744 -3.502,-4.088 -4.012,-0.547 -7.994,0.012 -9.553,3.033 0.243,11.535 0.586,4.939 3.989,4.12 3.785,-0.911 7.856,-2.934 3.533,1.661 z m -74.961,-21.535 -4.9819,4.949 c -0.828,0.822 -0.9457,0.97 -1.1773,1.476 -0.3244,0.71 -0.4367,1.896 -0.2772,2.057 0.516,0.521 2.3405,-0.743 2.9754,-1.212 5.562,-4.101 8.095,-6.684 8.994,-11.996 0.457,-2.699 -0.972,-3.744 -3.501,-4.088 -4.013,-0.547 -7.9948,0.012 -9.5536,3.033 0.2433,11.535 0.5859,4.939 3.9887,4.12 3.7859,-0.911 7.8559,-2.934 3.5329,1.661 z m 98.286999,57.769 -0.04,6.156 1.794,-2.087 c 3.267,-6.081 3.341,-9.343 2.697,-18.105 -0.58,-7.903 -1.301,-16.497 -2.605,-25.06 -0.507,-3.333 -1.103,-6.662 -1.563,-9.638 -0.144,-0.935 -0.275,-1.834 0,-2.084 0.158,-0.143 0.447,-0.075 0.767,0.154 0.052,0.037 0.104,0.078 0.158,0.121 3.572,1.995 3.326,1.392 2.659,0.301 -1.08,-1.768 -2.016,-7.468 -2.426,-9.554 -0.338,-1.723 -0.596,-3.034 -0.596,-3.034 -0.271,-1.381 -0.315,-1.588 -0.443,-2.078 l -0.406,-1.861 -1.811,1.121 c -0.511,0.315 -1.088,0.792 -1.719,1.367 -0.77,0.704 -1.258,1.363 -1.623,2.46 -0.538,1.617 -0.583,5.927 -0.069,6.614 0.125,0.167 0.274,0.285 0.426,0.471 1.203,1.488 1.649,4.21 1.436,5.481 -0.171,1.026 -0.668,2.057 -1.041,3.115 -0.68,1.927 4.241,31.604 4.428,41.69 0.028,1.5 0.012,3.043 -0.023,4.45 z m -71.141999,-11.929 c 0,0 0.48,-1.107 0.771,-1.984 0.49,-1.48 0.411,-2.55 0.217,-4.081 -0.539,-4.272 -1.368,-13.948 -1.368,-13.948 0,0 1.487,-0.167 2.624,-0.137 3.074,0.08 3.97,1.528 5.587,-0.088 1.052,-1.051 1.994,-4.778 1.321,-6.17 -0.77,-1.591 -3.379,-2.358 -4.578,-1.059 -0.553,0.599 -0.869,1.544 -1.501,2.167 -0.98,0.964 -2.721,1.155 -3.584,1.959 -1.477,1.376 -1.675,10.996 -1.403,13.275 0.458,3.845 1.914,10.066 1.914,10.066 z m -30.474,-25.097 c -0.4724,0.754 -0.9086,1.487 -1.0924,1.899 -0.1256,0.281 -0.2549,0.564 -0.386,0.848 -0.7103,1.54 -1.3568,2.946 -1.8607,4.283 -1.2881,3.419 -1.7645,11.812 3.3711,13.474 1.134,0.367 2.397,-0.134 3.679,-2.161 1.004,-1.586 1.695,-3.706 1.695,-3.706 0,0 -2.593,0.781 -3.821,0.373 -4.9409,-1.639 -2.8646,-8.471 -1.434,-12.467 1.195,-3.338 2.044,-6.045 -0.151,-2.543 z m 43.349,52.118 c 2.304,0.167 5.298,-0.092 5.298,-0.092 l 0.974,-8.364 c 0,0 -5.653,-0.952 -8.769,-1.94 -3.799,-1.204 -5.636,-3.466 -6.82,-8.014 -0.458,-1.758 1.52,-4.082 4.455,-5.616 1.729,-0.903 3.99,-1.264 4.967,-0.795 1.536,0.737 2.401,3.321 4.219,4.808 3.588,2.938 12.934,4.146 17.83,3.893 4.813,-0.249 18.069,-4.042 23.589,-2.748 1.623,0.381 3.365,1.252 5.428,1.03 0.955,-0.102 1.091,-0.24 1.353999,-1.377 0.196,-0.844 0.471,-1.477 1.003,-2.4 0.838,-1.454 2.313,-3.624 2.313,-3.624 0,0 -4.972999,-0.943 -8.158999,-1.872 -5.032,-1.466 -6.324,-3.392 -10.427,-6.441 -4.091,-3.04 -7.3,-3.659 -13.352,-3.305 -3.83,0.224 -5.722,1.485 -5.938,6.632 -0.043,1.017 0,2.198 0,2.198 l 7.161,0 c 1.315,0 1.607,0.018 2.915,0.178 2.041,0.248 6.541,0.898 5.513,2.295 -0.184,0.251 -0.561,0.382 -0.974,0.504 -8.825,2.612 -15.636,1.246 -22.41,-1.374 -1.629,-0.63 -3.309,-1.22 -4.385,-2.29 -3.124,-3.107 -1.761,-5.824 -6.177,-4.35 -0.638,0.213 -2.79,1.121 -4.696,2.22 -0.024,0.014 -0.048,0.028 -0.072,0.042 -3.139,1.829 -5.757,6.961 -5.658,10.575 l 0.059,4.479 -2.119,-2.878 c -1.13,-1.535 -2.158,-3.097 -3.016,-4.821 -2.738,-5.5 -3.757,-12.658 -6.09,-17.402 -1.26,-2.563 -6.334,-8.543 -10.23,-10.304 -0.296,-0.134 -0.549,-0.209 -1.218,-0.229 -0.495,-0.015 -1.218,0 -1.218,0 l 0,7.025 c 0,1.236 0.055,1.46 0.553,2.23 1.393,2.157 1.965,1.553 4.36,2.443 2.777,1.031 8.947,11.579 8.988,13.555 0.037,1.779 -5.832,10.483 -8.055,12.528 -1.87,1.719 -4.214,3.01 -6.658,3.392 -7.676,1.199 -9.323,-3.651 -8.8969,-9.013 l 1.0219,-12.858 -2.6095,8.054 c -2.2457,6.931 -2.2505,11.09 0.8221,17.065 2.0634,4.011 2.6264,4.602 7.4534,5.037 6.31,0.57 9.492,-3.307 13.873,-9.68 1.029,-1.496 1.95,-3.071 2.76,-4.691 0.753,-1.507 2.235,-0.488 3.513,0.933 12.293,13.665 11.021,14.889 17.525,15.362 z"
     style="fill:#000000;stroke:none" />
</svg>
