<?xml version="1.0" encoding="UTF-8" standalone="yes"?>
<svg>
<path
	style="stroke:none; fill:#000000"
	d="m 114.45699,49.583329 c 0,0 -1.968,-34.616 -1.968,-34.616 0,0 0.015,0 0.152,0 3.794,3.07 3.871,2.93 3.079,1.202 -2.31,-5.045 -1.931,-4.988 -1.923,-10.5040003 0.001,-1.129 -0.029,-2.458 -0.148,-4.089 -0.08,-1.11199992 -0.372,-1.7979999 -1.365,-1.5109999 -2.003,0.57999998 -4.668,5.2589999 -4.933,6.1669999 -0.73,2.4960001 3.473,47.0070003 2.831,51.0940003 -0.275,1.751 -0.667,3.42 -0.262,3.889 1.521,1.761 3.681,-6.45 4.237,-8.598 0.349,-1.345 0.379,-1.648 0.3,-3.034 z M 74.00914,10.803459 c 0.19107,-1.3737755 0.046,-1.5829995 0.454,-1.9579995 1.036,-0.954 1.882,-0.819 3.204,-1.237 1.691,-0.535 2.233,-1.836 2.638,-3.699 0.484,-2.222 1.594,-4.86700001 -2.346,-3.56400001 -0.63,0.208 -1.198,0.49700002 -1.38,0.61200002 -0.71,0.44899999 -1.399,1.02799999 -2.056,1.79899999 -1.134,1.332 -2.809,4.481 -3.802,4.111 -0.638,-0.238 -1.229,-1.825 -1.85,-2.826 -1.359,-2.192 -4.058,-2.217 -5.396,-0.257 -0.368,0.538 -0.646,1.265 -0.804,2.051 0.667,12.6169995 4.564,2.087 7.276,5.0939995 1.265,1.402 2.4036,5.248483 2.9351,5.326483 1.7355,-1.234696 0.86721,-3.585301 1.1269,-5.452483 z m -13.04433,13.22279 c -0.047,0.187 -0.092,0.564 0,0.771 0.183,0.414 0.912,0.14 1.635,-0.205 2.629,-1.256 5.467,-3.723 8.308,-5.968 l 16.006,-9.7569995 c 4.696,-1.9750001 8.2,-2.7320001 9.507,-7.5020006 0.375,-1.37000003 -0.004,-1.54500003 -1.233,-1.23300003 -1.886,0.478 -15.546,8.61400063 -22.975,13.02400013 -5.751,3.414 -9.77,4.958 -11.248,10.87 z m 8.5291,20.163946 0.513,-0.009 c 0.23,-0.004 0.291,-0.144 0.617,-1.4 1.872,-7.227 2.213,-11.217 -2.391,-15.851 -0.758,-0.763 -1.642,-1.404 -2.211,-0.72 -0.386,0.464 -0.78,3.74 -0.604,4.456 0.308,1.251 1.22,1.657 2.274,2.506 2.38,1.919 2.976,3.359 2.673,5.914 -0.232,1.962 -0.871,5.104 -0.871,5.104 z M 23.69189,62.13573 c 0.163,2.240001 1.208,3.634001 3.11,4.036001 2.453,0.519 3.84,-0.812 4.469,-3.503 0.138,-0.590001 0.107,-1.082001 -0.273,-1.320001 -0.723,-0.451 -2.708,0.018 -3.667,-0.492 -1.194,-0.634 -1.498,-3.33 -1.202,-4.59 0.295,-1.261 1.049,-2.612 1.254,-3.584 0.041,-0.197 0.06,-0.378 -0.025,-0.479 -0.011,-0.013 -0.022,-0.025 -0.033,-0.036 -2.887,-0.659 -3.589,10.573001 -3.633,9.968 z m 14.857,-27.205196 -4.881,4.849 c -0.811,0.806 -0.927,0.951 -1.154,1.447 -0.318,0.695 -0.428,1.857 -0.271,2.015 0.505,0.51 2.293,-0.728 2.915,-1.187 5.449,-4.019 7.931,-6.55 8.812,-11.753 0.448,-2.645 -0.952,-3.669001 -3.431,-4.006001 -3.931,-0.536 -7.832,0.012 -9.36,2.972001 0.239,11.301 0.574,4.838 3.908,4.036 3.709,-0.892 7.697,-2.875 3.462,1.627 z m 45.70776,-8.25645 -4.881,4.849001 c -0.811,0.806 -0.927,0.951 -1.154,1.447 -0.318,0.695 -0.428,1.857 -0.271,2.015 0.505,0.51 2.293,-0.728 2.915,-1.187 5.449,-4.019 7.931,-6.55 8.812,-11.753001 0.448,-2.645 -0.952,-3.669 -3.431,-4.006 -3.931,-0.536 -7.832,0.012 -9.36,2.972 0.239,11.301001 0.574,4.838 3.908,4.036 3.709,-0.892 7.697,-2.875 3.462,1.627 z M 40.73832,16.056266 40.28532,7.4052663 c -0.067,-1.283 -0.094,-1.506 -0.265,-2.233 -0.524,-2.2290004 -1.935,-3.4490005 -3.411,-4.23700049 -1.875,-1.00199996 -3.307,-1.37399996 -5.24,0.036 -1.59,1.15999999 -1.74,5.36000049 -1.115,6.01600049 0.466,0.49 1.702,0.446 3.197,0.095 3.735,-0.877 4.109,-0.675 5.082,3.2749997 0.462,1.877 0.517,3.635 0.29,5.523 -0.483,4.008 -1.618,5.958 0.605,8.311 0.926,0.98 1.892,1.128 4.003,0.693 1.5,-0.309 1.798,-1.005 2.427,-3.082 0.442,-1.462 0.792,-2.772 0.679,-4.23 -0.225,-2.892 -3.352,-8.3279999 0.417,-9.6779997 0.695,-0.25 1.599,-0.087 2.379,0.083 1.051,0.2289998 1.229,0.125 1.783,-1.038 0.456,-0.957 0.983,-1.837 1.272,-2.8670004 1.088,-3.86400005 -0.577,-4.95500015 -3.918,-3.37200005 -3.833,1.81599995 -5.554,9.59600015 -4.735,14.81200015 0.25,2.15 0.525,4.086 0.525,4.086 0,0 -0.229,-0.003 -0.502,-0.029 -1.073,-0.106 -2.916,-1.53 -3.02,-3.513 z M 89.078,31.87254 l -6.499,6.499 6.499,6.499 6.499,-6.499 -6.499,-6.499 z m -13.193,23.708 c 0.695,0.828 1.109,1.69 0.723,2.196 -0.783,1.026 -4.773,-1.177 -5.691,-1.748 -0.297,-0.185 -0.557,-0.357 -0.722,-0.801 -0.015,-0.041 -0.029,-0.083 -0.043,-0.128 -0.319,-1.05 0.136,-1.545 0.739,-1.764 0.37,-0.134 0.768,-0.155 1.171,-0.1 2.198,0.299 3.636,2.122 3.823,2.345 z m 24.174,-17.352 c 0,0 -2.883,5.17 -3.667,7.215 -0.624,1.625 -0.381,4.28 1.346,6.992 0.624,0.979 1.398,1.69 1.48,3.028 0.022,0.36 0,0.771 0,0.771 0,0 -7.115,0.956 -10.688,1.542 -1.729,0.283 -2.628,0.479 -3.361,0 -1.46,-0.957 -2.531,-6.063 -4.707,-9.25 -2.739,-4.013 -5.478,-5.723 -8.992,-2.569 -2.718,2.438 -7.641,14.263 -4.882,17.985 0.621,0.837 1.742,1.404 2.826,2.055 0.25,0.15 0.498,0.304 0.776,0.388 0.375,0.114 0.571,0.126 1.958,0.126 0,0 4.505,0 6.398,0 2.823,0 2.171,0.633 1.43,1.819 -1.897,3.037 -4.107,3.994 -7.554,5.656 -0.584,0.281 -1.169,0.55 -1.756,0.804 -6.851,2.966 -20.168,4.54 -20.264,-7.683 -0.034,-4.374 -0.758,-8.185 -1.847,-2.452 -2.969,15.614 2.88,27.648 21.237,18.267 2.792,-1.427 5.951,-3.192 7.24,-3.958 1.685,-1 2.872,-1.82 3.616,-2.735 2.142,-2.633 2.7,-8.076 4.37,-9.664 0.664,-0.631 7.335,-1.287 11.117,-1.852 1.667,-0.249 3.153,-0.84 4.391,-1.952 1.112,-1 3.896,-6.248 4.214,-7.942 0.352,-1.883 0.163,-3.266 -0.64,-5.779 -1.265,-3.956 -4.041,-10.812 -4.041,-10.812 z m -38.953,15.319424 -1.969,-35.13 2.055,0 c 0,0 -1.257,-5.37 -1.748,-10.6360001 -0.366,-3.92 -0.307,-7.78199994747 -0.307,-7.78199994747 0,0 -3.943,4.25999994747 -5.139,6.08499994747 -1.462,2.2330002 -0.198,5.8600001 0.771,8.7360001 0.622,1.843 2.552,35.224 2.313,39.978 -0.253,5.015 -0.576,10.486 -0.576,10.486 0,0 1.884,-2.009 2.888,-3.703 1.079,-1.821 1.141,-3.28 1.489,-4.981 0.279,-1.363 0.301,-1.668 0.223,-3.053 z M 0,86.223629 l 17.012,-0.5 c 1.386,-0.041 1.629,-0.061 2.422,-0.205 0.588,-0.106 1.129,-0.355 1.677,-0.611 1.035,-0.484 2.774,-1.49 4.71,-2.687 3.358,-2.076 15.339,-10.015 18.156,-14.451 l 5.489,-17.786 c 0.006,-0.275 -0.022,-0.539 -0.092,-0.789 -0.339,-1.207 -2.095,-2.909 -2.056,-4.368 0.03,-1.097 0.852,-0.24 1.838,-0.989 0.241,-0.183 0.194,-0.557 0.083,-0.962 -0.292,-1.076 -3.636,-6.351 -5.209,-6.014 -1.072,0.23 -3.193,5.41 -3.392,6.331 -0.191,0.881 -0.181,1.788 0,2.754 0.717,3.813 4.12,8.559 4.625,11.778 0.27,1.721 -0.762,2.275 -3.519,4.176 -2.513,1.734 -4.448,3.481 -6.402,5.03 -2.984,2.364 -10.422,6.77 -17.439,10.329 -7.578,3.843 -17.903,8.964 -17.903,8.964 z"/>
</svg>