<?xml version="1.0" encoding="UTF-8" standalone="no"?>
<svg>
  <path
     d="m 49.487281,15.454242 c 0,0 -1.3238,-4.542 -1.776,-7.8929996 -0.3477,-2.578 -0.1594,-5.827 -2.0427,-5.107 -1.0897,0.417 -3.3504,4.826 -3.5284,5.664 -0.124,0.583 -0.091,1.081 0,1.671 0.8496,5.5119996 2.1017,7.1339996 0.8902,10.9239996 -0.3834,1.2 -0.426,1.472 -0.426,2.726 l 0,37.83 c 0,0 1.8306,-2.309 2.9043,-4.089 0.6446,-1.069 1.4027,-5.72 1.2741,-7.817 -0.5663,-9.233 -0.4642,-32.517 -0.4642,-32.517 0,0 1.2095,0 1.2979,0 0.2714,0 -0.4337,1.842 -0.4314,1.904 0.0059,0.159 0.0239,0.308 0.062,0.417 0.1559,0.449 0.784,0.178 1.4774,-0.184 1.9917,-1.041 4.6917,-2.349 7.1962,-3.812 4.1295,-2.413 7.7273,-5.2459996 11.8992,-7.3139996 4.4296,-2.196 7.039,-2.394 8.2115,-6.61 0.1466,-0.52699999 0.1877,-0.96499999 0,-1.11399999 -0.8302,-0.66 -3.5808,1.30699999 -4.729,2.21699999 -1.1413,0.905 -2.9324,1.46 -5.0205,2.425 -5.3529,2.475 -16.7946,10.6789996 -16.7946,10.6789996 z m -10.8515,-9.4749996 c 0.5052,-0.882 0.9015,-1.785 1.151,-2.647 0.6525,-2.256 -1.1263,-3.69999999 -3.2499,-3.24999999 -0.2051,0.043 -0.4152,0.092 -0.6282,0.146 -2.0275,0.515 -5.512,2.30699999 -5.5976,4.92599999 -0.0907,2.776 1.2946,1.774 2.1904,0.876 0.1702,-0.17 4.1682,-3.68 4.0323,-0.737 -0.1597,3.459 -6.332,4.583 -7.2816,5.0049996 -3.9447,1.753 4.2969,4.561 9.3836,-4.3189996 z m 45.766,9.3329996 c 0,0 0.4096,41.925 0.4296,43.972 0.0496,5.069 1.2499,3.353 2.349,0.762 3.5178,-8.291 2.2341,-20.548 1.6633,-30.714 -0.3708,-6.602 -0.7414,-12.005 -0.7414,-12.005 0,0 0.2086,-0.029 0.4712,-0.047 2.1294,1.981 3.0819,3.061 3.414,2.512 -2.4521,-10.3489996 0.4406,-25.2909996 -6.1027,-17.7369996 -0.1087,0.126 -0.2205,0.264 -0.336,0.415 -2.8689,3.762 -3.511,6.156 -1.6775,10.5829996 0.0867,0.209 0.1748,0.418 0.3118,0.597 0.1845,0.242 0.2064,0.408 0.2187,1.662 z m -34.3691,11.562 c -0.0801,0.267 -0.1526,0.875 0,1.114 0.2501,0.393 3.333,-0.93 4.1379,-1.268 5.5603,-2.338 24.8506,-14.662 25.3428,-15.445 0.5115,-0.814 1.4969,-3.3969996 1.1606,-3.7139996 -0.3736,-0.353 -2.5414,0.61 -4.2045,1.638 -1.2949,0.8 -2.3052,1.6199996 -3.3556,2.3899996 -5.1492,3.778 -11.7505,7.59 -17.3643,10.773 -2.4488,1.389 -4.4936,2.62 -5.0205,3.305 -0.3279,0.426 -0.5963,0.873 -0.6964,1.207 z m -22.0711,1.18 c -1.1497,-2.358 -4.9898,-4.48 -6.6204,-4.708 -5.1269,-0.717 -10.9207,2.485 -13.3415003,6.994 -3.3828,6.302 1.5134,12.016 5.9377003,15.841 0.06,0.052 0.1186,0.102 0.1757,0.151 1.3275,1.127 0.6739,1.847 -1.1531,3.563 -4.2407003,3.984 -11.0855003,11.993 -12.37140026,18.02 -0.2886,1.353 -0.3669,2.892 -0.489,4.451 -0.3438,4.39 0.1138,6.214 2.78559996,0.447 0.5189,-1.12 1.019,-2.31 1.5864,-3.402 3.5269,-6.787 10.7497003,-14.449 15.4810003,-17.853 2.2602,-1.626 4.6603,-3.462 7.4055,-4.645 0.8956,-0.385 1.828,-0.702 2.4865,-1.169 0.1285,-0.091 0.2465,-0.188 0.3796,-0.274 0.8249,-0.534 2.225,-0.654 3.069,-1.25 0.3701,-0.261 0.6333,-0.614 0.9764,-0.861 0.2444,-0.177 0.5293,-0.3 0.794,-0.455 2.2951,-1.348 2.5111,-4.181 2.8982,-6.791 0.272,-1.834 0.2033,-2.038 -1.4774,-1.44 -2.9728,1.057 -7.4666,3.059 -10.0538,4.812 -3.4265,2.321 -3.9979,2.258 -7.8918,-0.719 -1.7932,-1.37 -5.2686,-4.328 -6.4235,-6.476 -0.5586,-1.038 0.1244,-1.237 2.1691,-1.748 1.2932,-0.323 2.3764,-0.619 3.5284,-0.697 2.2231,-0.148 4.7028,0.519 7.5203,0.604 0.1911,0.006 0.3836,0.009 0.5723,0.008 1.3014,-0.008 2.6095,-1.268 2.0562,-2.403 z m 2.3908,49.18 c 2.1526,0.238 4.8534,0.596 6.7965,1.057 6.4373,1.527 7.2588,0.892 13.3671,-1.981 9.5128,-4.475 21.0015,-12.36 24.2929,-19.71 1.2503,-2.792 1.4574,-6.044 1.6009,-9.023 0.0155,-0.323 0.0312,-0.644 -0.0938,-0.838 -0.1454,-0.226 -0.4808,-0.28 -0.7693,-0.404 -1.0387,-0.448 -1.7685,-4.527 -2.8929,-6.864 -0.4944,-1.028 -5.0209,-5.7 -7.2076,-5.911 -2.9575,-0.286 -6.7386,3.76 -7.7532,5.571 -2.2161,3.954 -4.528,12.443 -0.2321,15.088 4.233,2.607 8.2353,1.611 12.9993,0.697 0.38,-0.073 0.7346,-0.133 0.9286,0 0.3648,0.249 0.1619,1.177 -0.2298,1.857 -0.4923,0.855 -1.2829,1.319 -2.1078,1.82 -9.6793,5.881 -15.469,10.048 -26.4468,13.268 -4.8028,1.409 -11.4682,2.931 -13.3898,3.362 -7.8871,1.771 1.302,2.029 1.1378,2.011 z m 37.3223,-31.297 c 0.0259,0.056 0.049,0.126 0.0685,0.204 0.5889,2.367 -5.5645,0.761 -6.5438,0.2 -0.0083,-0.005 -0.0164,-0.009 -0.0244,-0.014 -0.0482,-0.029 -0.0978,-0.061 -0.1486,-0.097 -1.8772,-1.329 -4.0629,-4.347 0.4392,-4.415 0.3803,-0.006 0.7353,0.033 1.0093,0.101 1.7342,0.433 4.2312,1.908 5.1998,4.021 z m -48.761,-34.212 5.8625,-5.8629996 -5.8625,-5.86199999158 -5.8624,5.86199999158 5.8624,5.8629996 z m -0.1485,6.648 4.0736,4.074 5.8624,-5.863 -5.8624,-5.862 -4.0736,4.073 -4.0735,-4.073 -5.8625003,5.862 5.8625003,5.863 4.0735,-4.074 z"
     style="fill:#000000;stroke:none" />
</svg>
