<?xml version="1.0" encoding="UTF-8" standalone="no"?>
<svg>
  <path
     d="m 135.82693,11.021547 -6.10125,6.06125 c -1.01375,1.0075 -1.15875,1.18875 -1.4425,1.80875 -0.3975,0.86875 -0.535,2.32125 -0.33875,2.51875 0.63125,0.6375 2.86625,-0.91 3.64375,-1.48375 6.81125,-5.02375 9.91375,-8.1875 11.015,-14.69125 0.56,-3.30625 -1.19,-4.58625 -4.28875,-5.0075 -4.91375,-0.67 -9.79,0.015 -11.7,3.715 0.29875,14.12625 0.7175,6.0474997 4.885,5.0449997 4.63625,-1.1150001 9.62125,-3.5937497 4.3275,2.0337503 z m -86.738682,68.766365 -6.10125,6.06125 c -1.01375,1.0075 -1.15875,1.18875 -1.4425,1.80875 -0.3975,0.86875 -0.535,2.32125 -0.33875,2.51875 0.63125,0.6375 2.86625,-0.91 3.64375,-1.48375 6.81125,-5.02375 9.91375,-8.1875 11.015,-14.69125 0.56,-3.30625 -1.19,-4.58625 -4.28875,-5.0075 -4.91375,-0.67 -9.79,0.015 -11.7,3.715 0.29875,14.12625 0.7175,6.0475 4.885,5.045 4.63625,-1.115 9.62125,-3.59375 4.3275,2.03375 z M 79.109015,19.6595 78.542765,8.8457501 c -0.08375,-1.60375 -0.1175,-1.8825 -0.33125,-2.7912496 -0.655,-2.7862501 -2.41875,-4.3112501 -4.26375,-5.29625005 -2.34375,-1.2525 -4.13375,-1.7175 -6.55,0.045 -1.9875,1.44999995 -2.175,6.69999965 -1.39375,7.51999965 0.5825,0.6125 2.1275,0.5575 3.99625,0.11875 4.66875,-1.09625 5.13625,-0.8437501 6.3525,4.0937499 0.5775,2.34625 0.64625,4.54375 0.3625,6.90375 -0.60375,5.01 -2.0225,7.4475 0.75625,10.38875 1.1575,1.225 2.365,1.41 5.00375,0.86625 1.875,-0.38625 2.2475,-1.25625 3.03375,-3.8525 0.5525,-1.8275 0.99,-3.465 0.84875,-5.2875 -0.28125,-3.615 -4.19,-10.41 0.52125,-12.0974999 0.86875,-0.3125 1.99875,-0.10875 2.97375,0.10375 1.31375,0.28625 1.53625,0.15625 2.22875,-1.2975 0.57,-1.19625 1.22875,-2.2962496 1.59,-3.5837497 1.36,-4.82999995 -0.72125,-6.1937499 -4.8975,-4.21499995 C 83.982765,2.7345004 81.831515,12.4595 82.855265,18.9795 c 0.3125,2.6875 0.65625,5.1075 0.65625,5.1075 0,0 -0.28625,-0.0038 -0.6275,-0.03625 -1.34125,-0.1325 -3.645,-1.9125 -3.775,-4.39125 z M 161.9676,13.080361 c 0,0 4.86426,-0.616827 4.86426,-0.616827 0,0 0.25993,1.724003 0.64772,3.19649 4.53831,17.217435 5.65532,-6.9985297 5.49794,-3.910241 0.0226,-0.443994 0.0296,-0.767154 0.0296,-0.767154 l 4.10554,0.297869 c 0.8908,0.06463 1.04958,0.06744 1.58348,0.02383 2.35626,-0.195301 2.53752,-2.5628022 2.91408,-5.0047822 0.46085,-2.9800889 0.0983,-4.69566 -1.03694,-5.44173879 -5.47125,-3.59551101 -9.12576,5.08627429 -9.32386,8.23497989 -0.007,0.12224 -0.0169,0.2416678 -0.0267,0.3596922 -0.0421,0.4735 -0.31192,1.2659459 -0.59574,1.9923539 -0.87254,2.229806 -0.9442,1.427514 -1.68044,-0.858483 -0.0268,-0.0843 -0.0534,-0.168605 -0.0787,-0.251503 -0.36953,-1.211149 -5.47687,-17.175271 -10.4985,-6.1737679 -0.49457,1.08329 -0.74607,2.4152611 -0.91468,3.9313156 -0.25993,2.3295653 -0.4173,3.2948313 1.07627,4.0100103 0.52828,0.254313 1.19991,0.455212 1.82935,0.715145 0.15035,0.06329 0.29787,0.127871 0.42713,0.231845 0.17564,0.140504 0.29366,0.143314 1.18025,0.03091 z m 36.02818,0.247288 c -0.19109,0.259933 -0.39622,0.501601 -0.56625,0.732028 -0.47207,0.630866 -0.95822,2.961847 -1.15914,5.555549 -0.0759,0.989152 -0.1672,2.100543 -0.25853,3.168387 -0.85287,10.0812 0.40746,5.452981 1.15354,2.196076 1.44016,-6.293198 2.32393,-9.451739 6.9929,-13.912758 0.0309,-0.03091 0.0632,-0.06182 0.0956,-0.09273 1.4725,-1.3938059 7.23177,-5.6749781 7.92165,-7.354007 1.39661,-3.40021999 1.16198,-4.45680299 -2.82273,-2.95060599 -0.21919,0.08296 -0.45102,0.171416 -0.6941,0.266958 C 198.7939,4.7723277 166.45815,16.071701 162.36386,29.807434 c -0.85849,2.876127 -0.77278,5.583649 0.42012,7.122185 0.9203,1.185847 6.34658,5.386943 7.42004,4.795419 1.41911,-0.781216 2.29303,-4.622598 1.91088,-5.565384 -0.33582,-0.828987 -1.54276,-0.965277 -3.01665,-1.473903 -1.71697,-0.591524 -2.93655,-1.21115 -3.62362,-1.867305 -6.01639,-5.741015 24.37334,-18.508672 30.31248,-20.932363 5.84217,-2.3843731 0.43134,3.875104 2.20872,1.441565 z m -97.50456,20.468709 c 0.0323,-3.654522 -0.564836,-8.125387 -0.843029,-11.650634 -0.273987,-3.463448 -0.281017,-6.32693 0.750289,-7.442535 0.59855,-0.647727 1.75772,-1.114201 3.08409,-1.296857 8.45836,-1.164772 9.58381,1.832179 11.87544,-2.291629 0.059,-0.106777 0.11942,-0.223402 0.17985,-0.347046 1.2013,-2.4616393 2.52204,-6.866456 0.002,-8.7843538 -1.63267,-1.24206019 -4.20812,-2.26492119 -5.32654,-1.91226619 -1.02145,0.321755 -1.90805,1.29685619 -2.29584,2.25931289 -0.54797,1.3657144 -0.42995,3.1740078 -1.05379,4.0212389 -0.59574,0.8093055 -2.97167,0.5493722 -4.78699,1.3263622 -3.074249,1.3137289 -4.105547,5.451587 -4.326144,9.655492 -0.151733,2.892978 0.463666,5.252059 0.661784,9.222706 0.23464,4.688635 -0.11241,11.62395 -0.264151,14.282295 -0.288038,5.007582 0.456637,3.041923 1.073452,0.937177 0.875359,-2.987138 0.389212,0.220591 0.902049,-3.595522 0.19952,-1.485121 0.35408,-3.053163 0.36672,-4.383741 z m 62.20559,28.516808 c -0.36671,-0.453819 -0.70112,-0.986332 -1.00602,-1.618602 -0.18126,-0.375157 -0.34143,-0.725014 -0.49177,-1.048174 -2.32814,-5.025847 -6.37188,-4.418868 -9.98706,-1.72399 -11.95974,8.910808 -12.93204,15.139368 -20.56144,29.147679 -1.20553,2.211533 -2.57122,4.541111 -4.20109,7.015378 -1.7549,2.663989 -3.73461,5.249277 -5.29421,6.245443 -0.39622,0.2529 -1.71696,0.82336 -2.8958,1.26595 -12.04124,4.51722 -10.68818,-19.242104 -9.1356,-24.246882 0.0393,-0.123645 0.0787,-0.243067 0.11803,-0.355478 1.29965,-3.665756 2.64007,-8.806819 2.31691,-8.891122 -0.10812,-0.02663 -0.23605,-0.03653 -0.35267,-0.02248 -0.15877,0.02113 -0.21778,0.12505 -0.5845,1.036912 -3.32152,8.275721 -4.01422,11.868421 -4.68864,22.552399 -0.36812,5.839367 -0.0997,7.882289 1.6973,13.908541 0.50722,1.70432 1.40787,3.27657 2.69347,4.51583 10.28916,9.92805 20.8579,-13.703426 24.49558,-19.872971 5.69746,-9.6639 11.37384,-18.865551 17.13173,-23.34062 2.97728,-1.745077 3.45639,-0.977911 5.44033,2.97447 0.64351,1.284222 1.20413,2.201717 2.47991,3.249883 0.2248,0.184056 0.45242,0.3625 0.68143,0.536723 8.27573,6.251055 33.915,6.383133 47.90646,1.154933 9.07097,-3.388952 11.15747,-9.485454 16.45027,-16.977156 0.48896,-0.692687 1.65515,-2.130037 1.1423,-2.680825 -0.14612,-0.158771 -0.46647,-0.09701 -0.79385,0 -1.07908,0.321765 -2.227,1.039721 -3.24706,1.830773 -5.14246,3.994554 -16.76782,10.268081 -23.40104,8.860226 -2.47147,-0.524094 -4.63244,-1.780204 -6.62198,-3.485929 -13.41819,-11.510141 -6.37611,-14.054667 6.39014,-13.751177 1.71135,0.04069 3.07566,0.123645 3.41287,0.248694 1.24909,0.46226 2.86769,1.528678 3.41425,-0.244478 0.49318,-1.600347 -1.60878,-4.563598 -2.3984,-5.408019 -0.10812,-0.115213 -0.22059,-0.230427 -0.33862,-0.344236 -8.83072,-8.603103 -17.87078,-4.188451 -21.59697,3.162746 -4.19124,8.265892 -2.40543,13.158259 1.49217,19.913727 0.0619,0.108244 0.12084,0.219187 0.17563,0.330185 0.20935,0.435565 0.34986,0.899229 0.1644,1.111391 -0.17565,0.200921 -0.64351,0.177036 -1.08049,0.118024 -5.09469,-0.678637 -14.36519,0.497385 -18.92597,-5.167768 z M 79.440804,102.29093 C 82.700522,100.77209 90.573,96.611746 95.410573,91.75029 101.05745,86.076712 100.03036,83.529357 96.728502,76.752823 90.997328,64.993992 85.153743,70.043724 74.939044,68.744058 c -0.727816,-0.09273 -1.507615,-0.26977 -2.43634,-0.571842 -0.664582,-0.214973 -0.768555,-0.375148 -0.695492,-1.09172 0.02956,-0.29787 0.101156,-0.411679 0.708144,-1.146518 0.04927,-0.05901 0.09835,-0.118024 0.146118,-0.177036 4.135053,-4.97667 7.3512,-8.007363 13.18916,-10.159881 1.350246,-0.497398 2.436349,-0.799482 3.557585,-0.372348 0.796658,0.3035 2.626021,2.142694 3.113567,3.131846 0.08284,0.168604 0.18968,0.460854 0.314733,0.81352 0.01408,0.03653 0.02674,0.07452 0.03933,0.110944 1.281405,3.617991 5.934914,4.743433 9.255041,5.29983 3.5632,0.597145 6.38876,-0.227617 10.40015,-4.151896 1.99938,-1.95724 4.46523,-2.158161 6.9873,-1.405057 3.35524,1.004607 8.19845,5.318096 11.67172,3.488727 4.57341,-2.408247 4.72094,-13.651418 2.77637,-17.193548 -0.33019,-0.602765 -0.58029,-1.176023 -0.57747,-1.705726 0.0141,-2.100531 1.66075,-2.35063 -0.16579,-4.52003 -0.6913,-0.820546 -1.6664,-1.271566 -2.78341,-1.451412 -7.125,-1.149315 -15.96835,6.933898 -19.4922,13.054275 -0.66178,1.152148 -1.20131,2.326765 -1.57224,3.499978 -0.0562,0.178442 -0.1096,0.356882 -0.12364,0.545158 -0.0169,0.252908 -0.11803,0.281009 -1.01165,0.281009 0,0 -0.20513,0 -0.85286,0 -5.0118,0 -8.123977,0.02248 -11.008534,-5.179008 -1.062216,-1.915065 -1.78581,-3.623611 -3.796439,-4.081655 -2.280378,-0.519867 -5.60613,1.079085 -8.431666,2.881759 -7.71933,4.926087 -18.79389,15.182917 -17.079753,27.132841 0.195302,1.362889 0.958243,2.093511 2.710337,2.474278 3.171188,0.688477 9.430662,-0.435567 12.516151,0.2515 0.547963,0.122244 1.077672,0.286633 1.60175,0.380777 1.015855,0.181245 2.007807,0.09422 2.864883,0.4201 0.68005,0.261345 2.8649,2.939356 4.268544,4.9837 1.622816,2.360489 1.916468,3.227389 -0.08577,4.846 -1.708532,1.379767 -5.048343,2.860678 -8.903783,4.254478 -3.678402,1.330578 -7.764279,2.614789 -12.139578,3.782389 -8.194234,2.186267 -23.493778,5.32512 -29.472252,4.45681 C 27.638122,99.770212 15.853994,95.323257 7.1342743,87.043323 4.7808253,84.809312 -5.811811,76.865179 4.2918713,91.342768 9.7448602,99.153423 17.458562,104.45186 26.376382,107.79303 52.470901,117.57076 89.127144,97.779279 79.440747,102.29088 z M 127.329,46.74386 c 0.55359,0.428539 -0.18407,2.366096 -0.0379,3.521032 0.14893,1.176035 0.8065,1.275792 0.4721,1.794254 -0.20232,0.31473 -7.56758,-2.451804 -8.29399,-3.11639 -0.44119,-0.403248 -0.6674,-0.755915 -0.6407,-1.107176 0.0351,-0.448209 1.91648,-1.645319 2.92811,-1.863101 1.05518,-0.226212 4.98651,0.316147 5.57243,0.771381 z m 77.31264,49.114786 c 0.27117,-0.460867 0.47632,-0.903445 0.56342,-1.229423 0.12364,-0.456644 0.17282,-0.9428 0,-1.185866 -0.2501,-0.351245 -1.03973,-0.175623 -1.72258,0.130666 -1.18164,0.532523 -2.15815,1.428945 -3.09672,2.2228 -4.37812,3.698089 -15.50188,11.331677 -21.33002,10.570147 -5.99391,-0.78399 1.89682,-4.9865 3.1122,-7.174147 1.73102,-3.1164 3.12199,-7.456577 -0.74326,-8.639633 -1.53152,-0.469289 -3.52105,-1.219589 -3.02226,-2.072456 0.10956,-0.189677 0.38216,-0.330177 0.66177,-0.407455 0.6997,-0.196711 1.44298,-0.0022 1.98532,-0.370933 0.14473,-0.09833 1.5835,-3.022256 1.65376,-4.445567 0.0197,-0.382167 0,-0.925922 0,-0.925922 l -1.41208,0 c -0.63509,0 -0.75732,0.01267 -1.23083,0.120833 -0.34424,0.07867 -0.69128,0.227611 -1.03692,0.436967 -2.63726,1.583489 -8.60028,10.509744 -2.6457,12.187366 1.94459,0.547978 3.30887,0.823367 3.01663,1.850445 -0.11521,0.404655 -0.76716,0.918911 -1.59893,1.506211 -2.82274,1.993771 -8.908,9.718701 -2.7244,13.055701 3.43114,1.85184 8.56376,0.92591 11.31204,-0.89361 6.6838,-4.4231 18.09979,-14.467758 18.25856,-14.736124 z m -49.73441,10.010944 -3.75429,0.29226 c -0.8922,0.0702 -1.01725,0.0562 -1.2533,-0.13912 -0.7517,-0.6168 -1.1985,-2.17782 -1.27998,-2.74685 -0.17283,-1.21678 0.0956,-3.18805 0.66317,-5.000568 0.63227,-2.024666 1.58209,-4.2306 1.98534,-5.742411 0.08,-0.303489 0.1391,-0.580289 0,-0.740467 -0.55921,-0.6407 -1.19851,-0.0056 -1.43175,0.4159 -1.84623,3.3426 -3.48451,9.987056 -3.86388,13.883246 -0.15173,1.57224 0.33019,3.88215 1.5877,5.2296 0.87817,0.94136 4.66898,1.61016 5.82534,0.84582 0.7011,-0.46506 1.41486,-2.43634 1.52165,-4.22357 0.0577,-0.96386 0,-2.07384 0,-2.07384 z m -4.82914,-77.696222 -6.83976,7.65609 6.83976,7.656102 6.83837,-7.656102 -6.83837,-7.65609 z m -56.527813,78.879262 4.865676,5.44737 6.838367,-7.65609 -6.838367,-7.656098 -4.865676,5.447368 -4.867076,-5.447368 -6.838348,7.656098 6.838348,7.65609 4.867076,-5.44737 z m 40.742133,-41.454458 -19.65379,8.715496 0,4.698466 19.65379,-9.054117 0,-4.359845 z"
     style="fill:#000000;stroke:none" />
</svg>
