<?xml version="1.0" encoding="UTF-8" standalone="yes"?>
<svg>
  <path
    style="stroke:none; fill:#000000"
    d="m 39.844214,95.327215 -2.68344,-2.70209 2.82158,-2.98927 2.82158,-2.98928 1.7426,1.94705 1.7426,1.94704 1.77374,-1.94223 1.77374,-1.94224 2.80856,3.00241 2.80856,3.0024 -2.6925,2.68415 c -1.48088,1.47628 -2.80703,2.68415 -2.94701,2.68415 -0.13999,0 -0.98341,-0.73543 -1.87429,-1.6343 l -1.61977,-1.6343 -1.64692,1.6343 c -0.90581,0.89887 -1.75912,1.6343 -1.89625,1.6343 -0.13714,0 -1.45689,-1.21594 -2.93278,-2.70209 z m 32.47784,2.23002 c 0,-0.27072 1.57966,-0.84257 7.34976,-2.6607 7.131237,-2.24701 13.202907,-4.89079 18.656727,-8.12367 12.484119,-7.40026 17.976999,-12.1493 17.980079,-15.54524 10e-4,-1.21795 -0.31059,-2.03276 -2.19922,-5.74907 -1.56909,-3.08757 -2.82699,-6.92027 -2.82699,-8.61363 0,-2.25347 1.1573,-5.51142 2.3988,-6.75292 1.01161,-1.0116 1.64156,-0.79032 3.54611,1.24563 0.94682,1.01215 2.0282,2.04031 2.40306,2.2848 1.03014,0.67187 3.91672,1.34237 8.20224,1.90525 3.69108,0.4848 4.03414,0.48968 7.98988,0.11366 4.10063,-0.38979 9.56255,-1.20247 9.82141,-1.46133 0.0742,-0.0741 0.0687,-0.39824 -0.0121,-0.72022 -0.28289,-1.12713 -5.75101,-3.20115 -10.47044,-3.97136 -0.89861,-0.14665 -2.31249,-0.37203 -3.14197,-0.50084 -0.82948,-0.1288 -3.28964,-0.23646 -5.46702,-0.23924 l -3.95888,-0.005 0.005,-1.57099 c 0.005,-1.608865 0.98578,-4.919685 1.93333,-6.526895 0.52162,-0.88477 2.46933,-1.80566 5.97946,-2.82715 2.87491,-0.83663 9.52603,-4.10248 11.39166,-5.59356 0.78516,-0.62753 2.16278,-1.8427 3.06138,-2.70038 5.01482,-4.78645 10.31153,-7.66246 14.13032,-7.67248 1.56513,-0.004 3.13764,0.58627 3.28085,1.23176 0.19862,0.89524 -0.77826,3.06743 -3.73992,8.31604 -1.75053,3.10226 -2.39973,3.90542 -2.97759,3.68367 -0.39556,-0.15179 -0.42635,-0.38579 -0.27014,-2.05284 0.15218,-1.62393 0.11918,-1.90345 -0.241,-2.04167 -0.67025,-0.2572 -2.3353,0.35335 -5.02969,1.84432 -2.74691,1.52002 -4.9441,3.26832 -7.32004,5.82455 l -1.53882,1.65558 1.79018,0.78779 c 0.98459,0.43328 2.67577,1.08452 3.75816,1.44719 2.24744,0.75304 3.05122,1.25964 4.82513,3.04118 2.11988,2.128995 3.38975,3.045995 6.42612,4.640405 3.27681,1.72068 5.67653,2.43506 9.03006,2.68822 l 2.2525,0.17004 -0.15466,1.03241 c -0.15191,1.01406 -2.44376,5.89253 -3.4094,7.2573 -0.27047,0.38226 -0.81578,0.86258 -1.21181,1.06738 -0.6437,0.33286 -0.90148,0.32599 -2.43092,-0.0648 -1.34371,-0.34334 -2.62784,-0.42697 -5.98393,-0.38969 -4.25273,0.0472 -6.28877,0.32742 -12.19083,1.67755 -0.8986,0.20556 -4.00914,0.67773 -6.91232,1.04925 -4.82351,0.61729 -5.75821,0.66274 -10.84377,0.52727 l -5.56527,-0.14825 -0.12674,0.68374 c -0.64513,3.48044 -3.22088,10.94962 -4.78652,13.88 -2.94757,5.51694 -4.73663,7.41215 -10.04205,10.63791 -3.3662,2.04669 -9.190669,5.01886 -10.751749,5.48651 -0.73279,0.21953 -2.54468,0.33554 -5.26472,0.3371 -2.4991,0.002 -4.69683,0.13139 -5.52986,0.32699 -3.925997,0.92187 -11.813787,1.64863 -11.813787,1.0885 z m 59.808066,-5.17686 c -2.44443,-0.36493 -3.30026,-0.7402 -4.40867,-1.93318 -1.26643,-1.36307 -1.6091,-2.0229 -1.60661,-3.09366 0.004,-1.57856 1.14748,-3.23713 4.3563,-6.31686 2.96878,-2.84935 3.74935,-3.90599 3.2525,-4.40284 -0.18953,-0.18952 -0.44105,-0.17922 -0.86036,0.0352 -1.13919,0.58265 -3.90532,2.51599 -4.48962,3.13794 -0.32411,0.34501 -0.78196,0.62729 -1.01742,0.62729 -1.82827,0 -0.56938,-3.8512 2.20222,-6.73706 1.16891,-1.2171 1.72769,-1.59544 2.83796,-1.92151 3.58505,-1.0529 5.61035,-0.64947 6.24281,1.24353 0.63152,1.89017 -0.0961,4.88098 -1.66186,6.83106 -1.69885,2.11583 -2.80291,3.24542 -4.20392,4.30113 -1.91292,1.44146 -2.13653,1.7265 -2.13653,2.72338 0,1.65077 2.74129,2.67979 5.69102,2.13628 1.85241,-0.34132 2.9524,-0.83798 5.36869,-2.42406 1.91541,-1.25729 3.4316,-1.81627 3.83427,-1.4136 0.37268,0.37268 -0.76454,1.96251 -2.65724,3.71482 -3.53037,3.2685 -6.27204,4.15966 -10.74354,3.4921 z m -114.373306,-3.7849 c -2.84791,-0.44394 -6.27321,-1.9329 -8.6702697,-3.76889 -2.2697,-1.73845 -3.13654,-2.80046 -4.24011,-5.19475 -1.59619,-3.46308 -1.77598,-4.40194 -1.74768,-9.12614 0.0244,-4.07293 0.0681,-4.43201 0.93297,-7.66639 1.38472,-5.17846 3.85121,-10.47547 6.6421197,-14.26452 2.5192,-3.420195 2.53764,-2.291065 0.0855,5.23425 -1.6809097,5.15845 -2.3051597,8.22831 -2.4675997,12.13492 -0.15413,3.70651 0.0863,5.14692 1.30587,7.82306 1.0139997,2.22507 2.5211597,3.6193 5.3069597,4.9093 4.3838,2.02998 11.44119,2.33211 15.81788,0.67716 6.37456,-2.41039 13.44761,-6.52659 13.44761,-7.8259 0,-0.18911 -0.50954,-1.6622 -1.13231,-3.27355 -1.88854,-4.88637 -2.61226,-11.07778 -1.77683,-15.20079 0.48026,-2.37017 0.81439,-3.14166 1.73172,-3.99849 0.86129,-0.80447 1.43617,-0.61442 2.16815,0.71678 0.70936,1.29007 3.23817,3.80086 4.39071,4.35941 1.85677,0.89984 7.20449,1.15147 10.49316,0.49373 0.72631,-0.14526 0.76011,-0.20383 0.61149,-1.05954 -0.38811,-2.23474 -0.66948,-4.96637 -0.72068,-6.996585 -0.0531,-2.10712 -0.007,-2.31448 1.04161,-4.71757 1.28118,-2.93507 1.74417,-3.52327 2.60349,-3.30759 0.55325,0.13886 0.68179,0.48767 1.5173,4.11754 1.81011,7.863915 1.84228,8.486025 0.6016,11.633965 -1.18618,3.00967 -2.63696,5.80511 -3.36354,6.48103 -1.12379,1.04544 -3.30537,2.02549 -5.22778,2.34851 l -1.87838,0.31562 0,1.79 c 0,2.52541 0.36282,4.20008 1.52796,7.05269 1.68908,4.13539 2.35755,4.91482 4.61751,5.38398 2.76161,0.57331 7.00198,-1.12328 10.8684,-4.34847 2.59316,-2.1631 3.43495,-3.06748 5.80999,-6.24188 2.50325,-3.34576 3.64216,-5.58751 3.49187,-6.87312 -0.15698,-1.34294 -1.25237,-4.19531 -3.42795,-8.92637 -2.35817,-5.128115 -3.56058,-7.117895 -5.33488,-8.828275 -1.36873,-1.31943 -1.46604,-1.48977 -1.46604,-2.56634 0,-1.15781 1.08349,-5.88857 1.56401,-6.82879 0.47105,-0.9217 1.53984,-1.88518 2.09124,-1.88518 0.68324,0 2.78097,2.18189 3.74577,3.89604 0.38906,0.69123 1.07185,1.82234 1.51733,2.51357 2.147577,3.33236 4.715707,10.853595 5.570047,16.312925 0.63892,4.08275 2.54681,11.63299 3.20163,12.67006 0.58823,0.9316 3.31217,3.34351 5.23581,4.63604 0.91788,0.61674 1.25492,0.69123 3.12746,0.69123 l 2.09871,0 -0.001,-4.83862 c -7.6e-4,-4.16323 -1.04017,-21.150225 -1.36419,-22.295615 -0.0605,-0.21416 -0.2393,-2.65159 -0.39725,-5.41652 -0.15794,-2.76493 -0.39188,-5.76236 -0.51986,-6.66097 -0.47972,-3.36834 -0.809,-17.50498 -0.49956,-21.44728 0.28721,-3.65907 1.08171,-7.55795 1.94139,-9.52696 C 99.063911,0.70417 99.908201,0 100.66908,0 c 0.95076,0 7.99413,5.19438 10.73614,7.91775 3.77682,3.75113 7.75055,10.25527 8.51139,13.93128 0.2078,1.00401 0.42859,1.87624 0.49065,1.9383 0.34135,0.34135 3.65787,-4.88457 4.87467,-7.68111 0.33547,-0.771 0.71614,-1.59823 0.84594,-1.83829 0.6424,-1.18809 -0.0344,-1.90274 -2.78029,-2.93576 -0.76036,-0.28605 -1.7218,-0.79308 -2.13654,-1.12674 -0.67633,-0.54412 -0.74865,-0.73767 -0.70148,-1.87759 0.0289,-0.69901 0.40257,-2.39745 0.83032,-3.77431 0.68155,-2.19376 0.91528,-2.63016 1.88982,-3.52845 0.83128,-0.76625 1.31976,-1.02446 1.9346,-1.02262 1.04549,0.003 3.10596,0.95727 4.26523,1.97513 1.98605,1.74377 1.93614,5.49488 -0.14555,10.9402 -1.71851,4.49531 -6.17268,11.55214 -8.0655,12.77833 -0.72909,0.47232 -0.8815,0.72246 -0.88408,1.45099 -0.004,0.99348 -1.17912,5.2782 -2.13241,7.77195 -0.34762,0.90938 -1.42349,3.27375 -2.39081,5.25417 -1.37682,2.81879 -1.85484,3.58253 -2.20117,3.51685 -0.72916,-0.1383 -0.65082,-1.24183 0.2872,-4.04546 0.97375,-2.91044 1.52873,-6.47656 1.28002,-8.22497 -0.28565,-2.00799 -0.91062,-3.83659 -2.27656,-6.66097 -1.70304,-3.52139 -3.57377,-5.90496 -6.92845,-8.82779 l -2.67096,-2.32712 -0.14838,1.93278 c -0.0816,1.06302 -0.28185,5.55232 -0.445,9.9762 -0.26035,7.05991 -0.24425,8.79644 0.13169,14.20168 0.23557,3.38704 0.64486,7.798365 0.90953,9.802935 1.54271,11.68416 1.79577,17.38061 0.88774,19.9829 -0.67696,1.94008 -4.802339,8.80316 -5.842869,9.72033 -1.13964,1.00454 -3.19398,1.7707 -5.09777,1.90118 -1.81557,0.12445 -1.98919,0.0886 -3.41158,-0.70462 -2.05819,-1.14776 -4.39247,-3.63527 -5.6132,-5.98166 -0.79867,-1.53514 -1.13527,-2.6309 -1.67098,-5.43967 -0.58367,-3.06022 -1.094887,-4.88286 -1.119147,-3.99007 -0.004,0.1547 -0.17952,1.26688 -0.3896,2.47152 -0.59131,3.39084 -2.12536,6.01351 -6.21514,10.62563 -4.43481,5.00122 -8.14858,7.61168 -12.60467,8.86001 -3.5963,1.00746 -5.5677,0.15062 -7.59001,-3.29889 -1.94893,-3.32434 -2.67289,-5.78689 -2.8149,-9.57476 -0.13423,-3.58069 0.45502,-7.95506 1.37511,-10.20821 0.10544,-0.25822 -0.0354,-0.30409 -0.58189,-0.18947 -0.39656,0.0832 -1.65418,0.17115 -2.79471,0.19547 l -2.0737,0.0442 0,1.06375 c 0,1.11792 -0.33515,2.20949 -2.50231,8.14991 -2.15027,5.8941 -3.01837,7.74704 -4.02009,8.58076 -0.49095,0.40861 -2.75896,1.68609 -5.04003,2.83885 -8.03387,4.05999 -12.52814,5.0199 -18.87252,4.03092 z M 128.073,7.50207 c 0.0679,-0.56617 -0.0699,-0.67223 -1.39387,-1.07311 -0.80806,-0.24466 -1.74684,-0.39683 -2.08619,-0.33817 -0.56857,0.0983 -0.53809,0.14186 0.38844,0.55519 0.55299,0.24669 1.06198,0.5272 1.13111,0.62336 0.27086,0.37682 1.38692,1.02405 1.62914,0.94478 0.14082,-0.0461 0.28993,-0.3665 0.33137,-0.71205 z M 20.126174,65.466875 c -0.082,-0.21379 -0.0911,-0.90422 -0.02,-1.53428 0.12336,-1.09439 0.33114,-1.3493 4.65172,-5.7067 3.85301,-3.88585 5.33619,-5.63919 5.33619,-6.30815 0,-0.32407 -1.62487,-0.0924 -3.56631,0.50842 -3.85186,1.19208 -4.29681,1.40882 -5.5277,2.69261 -0.69338,0.72318 -1.33973,1.18987 -1.541,1.11263 -0.67367,-0.25851 -0.9332,-7.49853 -0.31186,-8.70006 0.64154,-1.240625 2.01438,-2.200815 4.17575,-2.920615 1.90761,-0.63529 2.28752,-0.67904 4.73674,-0.54543 4.66583,0.25453 6.21492,0.97924 6.80899,3.185485 0.20699,0.76868 0.17866,1.37828 -0.12538,2.69808 -1.13987,4.94814 -2.73244,7.41976 -7.23661,11.23108 -2.58923,2.19093 -6.25878,4.67564 -6.90524,4.67564 -0.17935,0 -0.39321,-0.17492 -0.47525,-0.38871 z M 160.21897,44.41283 l -3.4714,-3.31593 3.49171,-3.47318 3.4917,-3.47317 3.18451,3.37735 c 1.75147,1.85754 3.1845,3.47865 3.1845,3.60248 0,0.12382 -1.44216,1.65911 -3.2048,3.41175 l -3.20481,3.186625 -3.47141,-3.315925 z M 5.6434243,45.65724 c -1.81491,-0.76672 -3.985,-2.38701 -4.66021003,-3.47952 -0.92885,-1.50291 -1.1851,-3.84037 -0.82997,-7.57076 0.37456,-3.93454 0.86489003,-5.72809 2.68170003,-9.80921 1.50225,-3.37453 2.41415,-4.50614 3.08814,-3.83215 0.35397,0.35397 0.35001,0.60579 -0.0416,2.64891 -0.23805,1.24176 -0.93458,3.55603 -1.54786,5.1428 -1.28287,3.31928 -1.76858,5.68764 -1.51424,7.38365 0.29414,1.9615 2.69569,3.81872 4.94404,3.82343 0.43189,10e-4 1.44421,-0.57691 2.8599797,-1.63242 2.75898,-2.05693 3.82428,-2.12515 4.47933,-0.28687 0.23032,0.64635 -0.31116,3.61916 -0.85346,4.68562 -1.46549,2.88198 -5.4798197,4.24711 -8.6057997,2.92652 z M 49.867484,37.78736 c -0.74969,-0.74968 1.53831,-6.29056 3.52887,-8.54591 1.23035,-1.39402 4.04497,-3.77671 5.41225,-4.58169 0.72744,-0.42828 2.39718,-1.57681 3.71052,-2.55229 2.0597,-1.52984 5.76592,-4.22411 12.3165,-8.95359 4.37503,-3.15873 7.256457,-5.41314 8.169107,-6.39141 2.77897,-2.97879 4.26821,-4.22295 6.35988,-5.31324 2.49059,-1.29824 3.54684,-1.55095 5.47533,-1.31 1.28745,0.16086 1.36104,0.20862 1.36104,0.88333 0,1.27405 -0.52759,1.97766 -2.11421,2.81957 -1.94996,1.03471 -4.52284,3.6564 -5.09129,5.18787 -0.23477,0.63248 -0.77209,1.65896 -1.19405,2.28107 -0.42195,0.62211 -0.79849,1.1795 -0.83674,1.23865 -0.0383,0.0591 -0.52786,-0.15004 -1.08803,-0.46487 -1.34673,-0.75691 -2.44857,-0.55217 -3.83708,0.71298 -0.575137,0.52403 -1.611257,1.34716 -2.302487,1.82918 -5.82887,4.0646 -8.78973,6.1936 -11.81379,8.49467 -1.93545,1.47272 -4.42389,3.27587 -5.52986,4.007 -1.40875,0.93129 -3.40323,2.75228 -6.66096,6.08156 -4.40888,4.50569 -5.26686,5.17527 -5.865,4.57712 z m 69.625936,0 c -0.54951,-0.5495 0.31661,-3.24699 2.04453,-6.36771 0.97156,-1.75467 3.89496,-4.77516 5.83132,-6.02499 2.37109,-1.53043 5.1168,-3.44261 6.46592,-4.50302 1.47541,-1.15969 8.37902,-6.15767 10.28228,-7.44403 0.61364,-0.41474 1.94307,-1.3923 2.9543,-2.17235 1.01123,-0.78006 2.27977,-1.69893 2.81899,-2.04194 0.53922,-0.34302 1.77218,-1.44635 2.73991,-2.45185 3.32995,-3.45995 4.0282,-4.04395 6.28393,-5.25573 2.54866,-1.36915 3.59466,-1.63097 5.54322,-1.38752 1.60142,0.20009 1.85225,0.61544 1.19897,1.98538 -0.32446,0.6804 -0.83157,1.12874 -1.94894,1.7231 -2.14232,1.13956 -4.02668,3.15351 -5.21675,5.57554 -0.54441,1.10798 -1.21373,2.28725 -1.48738,2.62058 l -0.49754,0.60607 -0.96655,-0.54323 c -0.53161,-0.29877 -1.17737,-0.54281 -1.43504,-0.54229 -0.57451,10e-4 -1.66463,0.65308 -3.45581,2.0667 -0.7487,0.59088 -2.64505,2.01109 -4.21412,3.15602 -1.56907,1.14493 -4.54951,3.31948 -6.62321,4.83232 -2.07369,1.51285 -5.12768,3.67172 -6.78664,4.79749 -2.50151,1.69754 -3.80989,2.8575 -7.66639,6.79671 -4.4086,4.50316 -5.26702,5.17274 -5.865,4.57475 z m -33.597959,-1.3716 c -1.35571,-0.54059 -2.74573,-2.2904 -3.04537,-3.8336 -0.24044,-1.23835 0.11194,-4.29758 0.91563,-7.94916 0.93394,-4.24333 1.81621,-5.78121 3.31665,-5.78121 0.61986,0 0.71088,0.26282 0.3276,0.946 -0.13467,0.24006 -0.53056,1.2933 -0.87975,2.34054 -0.80574,2.41649 -0.85835,4.84159 -0.13576,6.25799 0.63625,1.24715 0.70773,1.28537 2.85686,1.52727 2.5495,0.28697 3.17933,0.56968 3.17918,1.427 -1.8e-4,0.96592 -0.93253,3.34061 -1.59083,4.05182 -0.30007,0.32419 -0.85102,0.74835 -1.22433,0.94258 -0.77535,0.40342 -2.78957,0.44173 -3.71988,0.0708 z m -62.415367,-3.68035 -3.47199,-3.49052 3.48951,-3.29732 3.4895,-3.29732 3.29847,3.31643 3.29847,3.31643 -3.31599,3.47141 -3.31598,3.47141 -3.47199,-3.49052 z m 10.96556,-11.2766 c -0.0864,-0.22509 -0.0156,-0.98859 0.15734,-1.69666 0.29244,-1.19749 0.61764,-1.58582 4.65641,-5.56047 2.59339,-2.55221 4.5598,-4.70329 4.8828,-5.34134 l 0.54078,-1.06827 -0.84009,0 c -0.46204,0 -1.34095,0.16347 -1.95312,0.36327 -0.61218,0.1998 -1.95452,0.60686 -2.98299,0.90457 -1.61778,0.46831 -2.08051,0.7435 -3.4314,2.04069 -0.8588,0.82466 -1.62776,1.39209 -1.70881,1.26096 -0.29007,-0.46935 -0.64635,-3.73014 -0.65032,-5.95195 -0.005,-2.69467 0.32621,-3.40269 2.15822,-4.61616 1.87051,-1.23898 3.56075,-1.64509 6.88472,-1.6542 3.85787,-0.0106 5.48953,0.46788 6.53973,1.91764 0.60034,0.82874 0.74903,1.29012 0.74664,2.31674 -0.009,3.98972 -2.59093,8.53088 -6.97908,12.27629 -3.92235,3.34784 -5.09589,4.23608 -6.25068,4.73108 -1.38194,0.59237 -1.56953,0.60062 -1.77015,0.0778 z m 22.61964,-7.73576 c -0.55134,-0.2509 -1.01468,-0.78207 -1.47555,-1.69157 -0.56547,-1.1159 -0.65157,-1.5494 -0.5438,-2.73797 0.13202,-1.45584 0.78774,-3.02591 1.86224,-4.45894 1.01205,-1.34975 3.55206,-3.32643 4.27441,-3.32643 0.6045,0 0.63828,0.0614 0.50064,0.9095 -0.0812,0.50022 -0.60667,1.68224 -1.16777,2.62671 -1.27163,2.14047 -1.52371,3.19294 -0.87787,3.66519 0.60951,0.44569 1.95491,0.3993 3.50127,-0.12071 1.13517,-0.38174 1.34149,-0.57895 2.27989,-2.17922 1.37082,-2.3377 1.77688,-2.39094 3.77719,-0.49528 1.48475,1.40708 1.49271,1.41076 1.57546,0.7285 0.13702,-1.12957 -0.43789,-2.91717 -1.3801,-4.29128 -1.485,-2.16574 -0.73835,-2.95231 1.54828,-1.63107 0.82848,0.47871 1.59944,1.22409 2.26222,2.18717 0.92288,1.34101 1.00533,1.59635 1.0043,3.10986 -10e-4,1.34088 -0.12912,1.86696 -0.6863,2.81634 -1.42762,2.43249 -2.50673,2.8414 -5.58659,2.11696 l -1.49824,-0.35242 -1.55056,1.45048 c -1.66084,1.55363 -1.88048,1.63305 -5.2559,1.90052 -1.25751,0.0996 -1.9888,0.0351 -2.56322,-0.22634 z"/>
</svg>