<?xml version="1.0" encoding="UTF-8" standalone="yes"?>
<svg>
  <path
    style="stroke:none; fill:#000000"
    d="m 83.398088,16.72738 4.691,4.692 5.753,-5.753 -5.753,-5.7529996 -4.691,4.6909996 -4.692,-4.6909996 -5.753,5.7529996 5.753,5.753 4.692,-4.692 z m 0,-16.726999581 -5.754,5.752999981 5.754,5.7529996 5.753,-5.7529996 -5.753,-5.752999981 z M 12.083988,53.95038 c 0,0 0.472,-1.088 0.7575,-1.95 0.4817,-1.455 0.4041,-2.506 0.2141,-4.011 -0.5299,-4.198 -1.3446,-13.707 -1.3446,-13.707 0,0 1.4616,-0.165 2.5786,-0.135 3.0209,0.079 3.9012,1.502 5.4902,-0.086 1.0346,-1.034 1.96,-4.696 1.2983,-6.064 -0.7567,-1.564 -3.3205,-2.317 -4.4988,-1.041 -0.5434,0.589 -0.8534,1.518 -1.4753,2.13 -0.9631,0.947 -2.6741,1.135 -3.5217,1.925 -1.4515,1.353 -1.6463004,10.807 -1.3791,13.046 0.4507,3.778 1.8808,9.893 1.8808,9.893 z m 5.5413,-37.894 -0.4534,-8.6509996 c -0.0672,-1.283 -0.0937,-1.507 -0.2648,-2.233 -0.5244,-2.229 -1.9354,-3.449 -3.4105,-4.23699998 -1.8758,-1.002 -3.3075,-1.374 -5.2407004,0.036 -1.5898,1.15999998 -1.7394,5.35899998 -1.1146,6.01599998 0.4663,0.49 1.7017,0.446 3.1969004,0.095 3.7349,-0.877 4.1091,-0.675 5.082,3.2749996 0.4623,1.876 0.5168,3.635 0.2894,5.523 -0.4828,4.008 -1.6174,5.958 0.606,8.311 0.9252,0.98 1.8918,1.128 4.0029,0.693 1.4998,-0.309 1.7973,-1.006 2.4261,-3.082 0.4425,-1.463 0.7925,-2.772 0.6795,-4.23 -0.225,-2.892 -3.3522,-8.3279996 0.417,-9.6789996 0.695,-0.249 1.6,-0.086 2.379,0.084 1.051,0.229 1.229,0.125 1.783,-1.039 0.456,-0.956 0.982,-1.836 1.272,-2.866 1.088,-3.86399998 -0.577,-4.95499998 -3.918,-3.37199998 -3.8326,1.81599998 -5.5541,9.59599958 -4.7354,14.81199958 0.2507,2.15 0.5255,4.086 0.5255,4.086 0,0 -0.2292,-0.003 -0.502,-0.03 -1.0729,-0.105 -2.916,-1.529 -3.0199,-3.512 z m 9.0948,63.501 c 2.322,-0.029 5.746,-0.072 9.278,-0.116 9.645,-0.121 14.497,-0.163 21.101,-2.712 0.814,-0.274 1.357,-0.531 1.349,-0.777 l -35.285,0 1.242,-3.797 c 0.331,-1.01 0.769,-1.97 1.16,-2.733 0.242,-0.475 0.763,-1.057 1.38,-0.365 0.444,0.498 0.175,1.674 1.388,1.2 0.784,-0.306 1.132,-2.168 1.167,-3.103 0.043,-1.151 -0.07,-2.687 -0.07,-2.687 0,0 -1.188,-0.111 -2.083,0.054 -0.817,0.151 -2.407,1.783 -2.88,2.957 -0.586,1.451 -1.06,3.015 -2.034,4.192 -0.5786,0.699 -1.9318,1.506 -2.9527,2.455 -0.5801,0.54 -0.9404,0.974 -1.1272,1.518 -1.8467,5.382 5.7029,3.948 8.3669,3.914 z m 46.004,-35.17 -0.75,6.187 13.388,-6.75 1.156,-6.616 -13.794,7.179 z m -25.582,9.716 4.692,-4.692 -5.754,-5.753 -5.752,5.753 4.691,4.692 -4.691,4.692 5.752,5.753 5.754,-5.753 -4.692,-4.692 z m 49.012,14.146 -5.753,5.753 5.753,5.753 5.753002,-5.753 -5.753002,-5.753 z m -41.641,-36.43 c -1.141,-0.97 -2.303,-2.199 -2.611,-2.626 -0.411,-0.573 -1.377,-2.748 -1.493,-4.097 -0.086,-1.004 -0.094,-1.231 -0.076,-2.266 l 0.04,-2.305 c 0,0 -0.662,-0.108 -1.151,-0.02 -0.631,0.112 -1.391,1.986 -2.027,3.325 -1.346,2.834 -4.277,4.085 -6.45,3.728 -4.645,-0.764 -4.114,-1.954 -6.964,-4.258 -2.294,-1.855 -2.985,-0.432 -4.617,2.135 -2.39,3.762 -0.151,5.223 2.944,10.133 1.453,2.306 3.51,7.375 3.452,8.51 -0.052,1.025 -0.917,3.191 -2.215,4.443 -11.5508,11.135 -10.9291,9.998 -24.5719004,17.538 -1.2873,0.711 -2.5502,1.44 -3.8415,2.132 -4.24719996,2.274 -8.6972,2.363 0.3053,3.565 1.576,0.252 3.3119,0.458 4.4855,0.387 2.8303004,-0.17 9.9362004,-5.068 11.9133004,-6.456 3.1653,-2.223 12.1843,-10.4 14.2443,-12.917 2.808,-3.428 2.081,-4.383 3.08,-10.937 0.177,-1.161 0.429,-2.088 0.063,-3.59 -0.406,-1.659 -1.567,-4.022 -1.567,-4.022 0,0 1.931,0.281 3.402,0.06 1.048,-0.157 2.739,-1.28 3.842,-2.258 l 2.447,-2.17 0.326,2.633 c 0.057,0.465 0.116,0.972 0.266,1.435 0.474,1.457 1.889,3.227 3.225,4.338 11.038,5.35 18.694,0.421 22.634,-2.913 l 1.874,-1.585 2.855,1.427 c 1.7,0.85 3.057,1.325 4.914,0.073 0.415,-0.28 0.734,-0.548 0.996,-0.795 l 1.909,-1.798 3.826,2.141 c 2.161,1.211 4.726,2.533 5.89,1.872 0.958,-0.544 3.353,-4.762 3.495,-5.151 0.920002,-2.531 0.284,-5.335 -0.304,-8.235 -0.468,-2.307 -1.248,-5.961 -3.199,-4.857 -0.563,0.319 -2.171,4.021 -2.327,5.144 -0.096,0.692 -0.109,1.6 -0.099,2.311 0.013,0.845 1.94,4.212 -1.9,1.897 -0.749,-0.452 -1.303,-1.008 -1.627,-1.709 -1.184,-2.567 -2.734,-0.351 -4.6,2.075 -0.569,0.739 -1.1,1.267 -1.891,1.414 -0.744,0.138 -4.814,-2.104 -5.058,-2.787 -0.35,-0.977 -0.224,-1.706 -1.37,-1.473 -1.217,0.247 -2.474,3.787 -4.224,5.447 -0.129,0.123 -0.314,0.253 -0.542,0.386 -4.207,2.453 -14.917,3.048 -17.703,0.676 z m 1.047,8.756 c 0.435,5.812 0.173,16.829 0.81,24.454 0.702,8.403 3.754,13.18 12.457,14.62 1.484,0.245 5.043,0.079 8.511,-0.648 6.09,-1.278 9.809,-4.03 11.604,-10.198 0.586,-2.016 0.911,-4.165 0.817,-5.121 -0.184,-1.862 -1.535,-4.444 -3.011,-6.284 -0.778,-0.969 -2.133,-1.038 -2.88,-0.05 -1.098,1.452 -2.103,4.531 -1.78,5.73 0.633,2.343 4.067,4.578 2.76,6.932 -0.961,1.73 -7.743,2.926 -8.887,3.042 -6.197,0.631 -12.495,-2.686 -14.8,-7.459 -0.091,-0.189 -0.183,-0.552 -0.272,-1.043 -0.981,-5.403 -0.672,-13.96 -0.307,-21.062 l -0.197,-16.583 c -0.527,-6.836 -1.917,-24.5049996 -2.301,-25.7599996 -0.255,-0.83099998 -0.591,-1.35099998 -1.03,-1.06699998 -1.374,0.888 -2.274,2.62299998 -2.86,4.21499998 -0.765,2.084 -0.369,7.4699996 -0.02,11.5869996 0.336,3.963 0.488,7.026 0.589,10.706 l 0.797,13.989 z m -20.255,-36.3899996 c 0,0 -0.054,3.098 -0.058,3.303 4.964,-2.531 13.105,-4.43 3.634,6.9689996 1.783,-0.408 6.659,-4.4729996 7.136,-5.1209996 0.453,-0.617 2.166,-5.145 1.791,-6.373 -0.893,-2.92999998 -5.38,-3.18299998 -7.641,-2.85099998 -1.59,0.234 -3.383,0.771 -4.405,2.07999998 -0.389,0.498 -0.434,0.697 -0.457,1.993 z"/>
</svg>