<?xml version="1.0" encoding="UTF-8" standalone="no"?>
<svg
   xmlns:dc="http://purl.org/dc/elements/1.1/"
   xmlns:cc="http://creativecommons.org/ns#"
   xmlns:rdf="http://www.w3.org/1999/02/22-rdf-syntax-ns#"
   xmlns:svg="http://www.w3.org/2000/svg"
   xmlns="http://www.w3.org/2000/svg"
   xmlns:sodipodi="http://sodipodi.sourceforge.net/DTD/sodipodi-0.dtd"
   xmlns:inkscape="http://www.inkscape.org/namespaces/inkscape"
   width="6.75936in"
   height="1.32752in"
   version="1.1"
   viewBox="-8584 0 17168 3372"
   id="svg2277"
   sodipodi:version="0.32"
   inkscape:version="0.48.0 r9654"
   sodipodi:docname="basmala.svg"
   inkscape:output_extension="org.inkscape.output.svg.inkscape"
   sodipodi:modified="true">
  <metadata
     id="metadata2350">
    <rdf:RDF>
      <cc:Work
         rdf:about="">
        <dc:format>image/svg+xml</dc:format>
        <dc:type
           rdf:resource="http://purl.org/dc/dcmitype/StillImage" />
      </cc:Work>
    </rdf:RDF>
  </metadata>
  <defs
     id="defs2348" />
  <sodipodi:namedview
     inkscape:window-height="682"
     inkscape:window-width="1024"
     inkscape:pageshadow="2"
     inkscape:pageopacity="0.0"
     guidetolerance="10.0"
     gridtolerance="10.0"
     objecttolerance="10.0"
     borderopacity="1.0"
     bordercolor="#666666"
     pagecolor="#ffffff"
     id="base"
     inkscape:zoom="0.92710946"
     inkscape:cx="304.1712"
     inkscape:cy="59.7384"
     inkscape:window-x="-4"
     inkscape:window-y="-4"
     inkscape:current-layer="svg2277"
     showgrid="false"
     showguides="true"
     inkscape:guide-bbox="true"
     inkscape:window-maximized="1">
    <sodipodi:guide
       orientation="0,1"
       position="234.28029,92.612606"
       id="guide3135" />
    <sodipodi:guide
       orientation="0,1"
       position="277.05115,26.541035"
       id="guide3141" />
  </sodipodi:namedview>
  <desc
     id="desc2279">
	Basmala in Naskh script.
	Created by baba66, http://de.wikipedia.org, 2006-03-22
	License: cc-by-sa/2.0/de and GFDL
</desc>
  <g
     id="g3144"
     style="fill:#000000">
    <path
       id="path3130"
       d="m -6443.395,2299.9824 119.5227,69.0064 -69.0065,119.5228 -119.5226,-69.0064 z"
       style="fill:#000000;fill-opacity:1;stroke:none" />
    <path
       id="path3128"
       d="m -6306.9546,2277.1743 119.5228,69.0065 -69.0065,119.5227 -119.5227,-69.0064 z"
       style="fill:#000000;fill-opacity:1;stroke:none" />
    <path
       id="path3126"
       d="m 7579.754,2086.1112 119.5228,69.0064 -69.0065,119.5228 -119.5228,-69.0065 z"
       style="fill:#000000;fill-opacity:1;stroke:none" />
    <path
       id="path3124"
       d="m -4803.6459,2155.4722 119.5228,69.0064 -69.0065,119.5228 -119.5228,-69.0065 z"
       style="fill:#000000;fill-opacity:1;stroke:none" />
    <path
       d="m -7323,1939 c 0,-28 -6,-47 -17,-56 -3,-2 -6,-3 -7,-3 l -11.9999,0 c -15.0001,0 -31.0001,8 -47,24 l 82.9999,35 z m 2245,-234 -105,133 c -17,2 -35,3 -54,3 -22,0 -56,-2 -101,-5.9999 -44,-4.0002 -77,-6.0001 -97,-6.0001 -72,0 -144,24 -217,73 -28,18 -81,62 -159,132 -54,49 -95,73 -122,73 -44,0 -86,-48 -125,-142 -120,111 -418,210 -641,209.9999 C -7012,2175 -7134,2117 -7201,2085 l -93,47 c -66,0 -110.9999,-20 -137,-61 -70,136 -169,218 -294.9999,247 l 0,-32 C -7726,2275.0001 -7689,2232 -7614,2156 c 44,-44 88,-88 134,-132 -2,-165 42,-247 132,-247 14,0 60,8 109.9999,57 139.0001,139 269.0001,181 613,181 C -6352,2015 -6205,1954 -6036,1880 c 41,59 81.9999,88 124,88 27,0 66,-16 118,-47 89,-56 141,-86 154,-91.9999 C -5572,1794 -5508,1774 -5447,1770 c -79,-17 -167,-27 -264,-30.9999 C -5876,1731 -5960,1727 -5965,1727 c 14,-114 67,-171 159,-171 83,0 202,24 359,70 166,48 289,75.0001 369,79 z"
       style="fill:#000000;fill-opacity:1;stroke:none"
       id="path3120" />
    <path
       inkscape:connector-curvature="0"
       d="m -4431,851.99995 c -18,0.99996 -37,11.00005 -57.0001,30.00002 C -4509,899.99994 -4521,918.99996 -4526,937.99999 c 3,0.99994 6,1.99993 9,1.99994 27,9e-5 44.9999,-3.99994 54,-11.99991 21.9999,-19.00004 32,-44.00008 32,-76.00007 z M -4339,823 c -1e-4,45.99998 -25,94.99996 -74.0001,144.99997 C -4462,1017.9999 -4510,1043 -4558.0001,1043 -4585,1043 -4613,1036 -4642,1022 c -30.0001,-14 -50,-21 -61,-21 -14,0 -29,13 -44,40 -16,26 -31,40 -45.9999,41 2.9999,-40.0001 19.9999,-80 51.9999,-119.00003 31,-39.00001 66,-59 105,-59 20,-10e-6 42,4.99994 68,15.99997 24.9999,-33.99997 50,-68.99995 75,-103.99998 35,-38.00003 70,-57.00004 105.9999,-56.99997 14.0001,2e-5 25.0001,6.99996 34.0001,20.99999 9,14.00002 14,28.00001 14,43.00002 z"
       style="fill:#000000;fill-opacity:1;stroke:none"
       id="path3116" />
    <path
       d="m -2412,849.99995 c -18,1.00009 -37.9999,12.00003 -57.9999,31.00005 C -2490,899.99998 -2503,919.00001 -2507,938.00002 c 2.0001,1.99998 5,1.99995 8,1.99996 58,0 87,-29.99997 87,-90.00003 z m 91,-26.9999 c 0,47.00001 -25,94.99996 -73.9999,144.99993 C -2445,1018 -2493,1042.9999 -2539,1043 c -27,0 -56.0001,-7 -85,-21 -29,-14 -49,-20.9999 -59,-21 -14,10e-5 -29,13 -45,40.0001 -16,25.9999 -32,39.9999 -47,40.9999 5,-41 22,-80 51,-117.00001 32,-40 67,-59.99999 107,-60.00001 22,2e-5 45.0001,5 68,15 24.0001,-33.99999 49,-68.99994 74,-103.99997 35,-38.00003 71.0001,-57.00001 107,-57.00002 13,-2e-5 25,7 34,21.00002 9,13.99999 13,29 13,43.00004 z"
       style="fill:#000000;fill-opacity:1;stroke:none"
       id="path3112" />
    <path
       inkscape:connector-curvature="0"
       id="path3139"
       d="m -3355,1836.9998 c -109,177 -163,326 -163,449 0,68 19,123 57,164 38,42 90,63 158,63 56,0 129.9999,-24 222,-73 99,-53 149,-105 149,-156 0,-16 -9,-36 -27,-58 -18,-22 -27,-35 -26.9999,-38 -1e-4,-45.9999 6.9999,-78.0001 22.9999,-95 15,-17 42,-25 82,-25 27,0 54,-12 81,-37 27,-24 41,-50 41,-77 0,-35 -24,-141 -70,-320 -50,-186 -86,-296 -110,-330 -15.9999,29 -24,44 -24,44 0,47 11,121 33.0001,220 21.9999,100 32.9999,175 32.9999,227 0,33 -9,63 -27,90 l 2,-43 c 2,-60 -10,-147 -36,-259 -27,-117 -39.9999,-203 -40,-259 0,-60 18,-89.0001 56,-89 63,0 122,107 176,323 43,175 64,309 64,401 0,56 -13,109 -40,160 -31,57 -70,93 -119,106 -7.9998,14.0001 -12,35 -12,65 0,77 -45.0001,155 -133.9996,232.0002 -90,76.0001 -175,115 -255,115 -90,0 -161,-31 -214.0001,-92 -52.9999,-61 -79,-136 -79,-227 10e-5,-131 52.0001,-289 155,-474 z"
       style="fill:#000000;fill-opacity:1;stroke:none" />
    <path
       sodipodi:nodetypes="cscscccccsccscscsccccccsccsccccc"
       inkscape:connector-curvature="0"
       id="path3110"
       d="m -3713.9997,1843.0002 c 41.0001,46 62.0001,96 62,149 0,35 -6,65 -18,89 -15,33 -38,50 -70,50 -53.9999,0 -108.9999,-28 -166,-82 -12.9999,41 -50,72 -110,95 -34,13 -69,24 -105,25 -27.9999,1 -46,-3.0001 -52,-10 L -4173,2159 c -6,489 -579,734 -1649.9999,734 C -6286,2893 -6998.0001,2762 -7343,2205 l 22,-14 c 525,410 1040.9999,524 1581,524 759,0 1387,-145 1496,-434 -39.9999,-87 -60,-156 -60,-206 0,-33 14,-64 43,-94 l 13,0 c 11,0 32,4 63,12 30,8 52,11.9999 64,11.9999 l -1e-4,1.0001 C -4001,2003 -3931,1978 -3911,1932 c 37,-87 92,-150 164,-189 34,-18 117,-47 249.0001,-87 C -3543,1625 -3596,1609 -3659,1609 c -19,0 -56,3 -111,8 -48,5 -86,5.9999 -115,4 13,-114 66,-171 159,-171 67,0 167,21 298,62 136,43 239,66 308,70 l -53,123 c -53,3 -114,8 -204.4998,20.5001 -177.4999,26.5001 -282.4999,64.5001 -336.4999,117.5001 z"
       style="fill:#000000;fill-opacity:1;stroke:none" />
    <path
       id="path3108"
       d="m -3760.0001,1949 c 1e-4,-25 1.0001,-59 -33.9999,-59 -15,0 -42,11 -42,29 29,20 44,30 75.9999,30 z"
       style="fill:#000000;fill-opacity:1;stroke:none" />
    <path
       id="path3106"
       d="m -1423,1944 c 0,61 -5,106 -14,136 -15,52 -46,78 -93,78 -39,0 -75,-14 -106,-42 -32,-28 -54,-61 -65,-99 -8,44 -30,82 -66,114 -36,33 -76,49 -120,49 -68,0 -120,-39 -158,-116 -16,31 -57,46 -120,46 -83,0 -125,-20 -125,-59 0,-116 85,-206 254,-268 l -3,-61 c 10,-12 20,-25 30,-39 10,-13 15,-27 15,-40 12,78 23,156 34,235 18,113 51,170 100,170 37,0 65,-19 85,-56 17,-30 25,-64 25,-104 0,-30 -4,-69 -12,-116 -10,-60 -16,-99 -18,-117 12,-13 22,-32 28,-58 7,-26 15,-44 22,-54 31,141 51,229 61,262 41,132 86,199 134,199 16,0 24,-29 24,-87 0,-27 -14,-81 -42,-161 -23,-67 -44,-121 -63,-161 9,-11 19,-31 29,-61 11,-29 22,-49 32,-61 7,31 33,109 79,234 35,98 53,177 53,237 z"
       style="fill:#000000;fill-opacity:1;stroke:none" />
    <path
       id="path3104"
       d="m -2070,1922 c 0,-13 -2,-25 -5,-35 l -10,0 c -45,0 -76,18 -92,54 0,3 -1,9 -3,17 0,1 -1,2 -2,3 0,9 4,17 12,25 8,7 17,11 26,11 49,0 74,-25 74,-75 z"
       style="fill:#000000;fill-opacity:1;stroke:none" />
    <path
       d="M -997.99999,430 C -1016,432 -1035,441 -1056,460 c -20,19 -32,38 -37,57 2,1 5,1 7,1 27,0 46,-4 56,-13 21,-20 32,-45 32.00001,-75 z M -907,402 c 0,54 -26,104 -78,149.99999 C -1036,598.99998 -1090,622 -1144,622 c -20,0 -43,-7.00001 -70,-20.99996 -27,-15.00001 -45,-22.00003 -57,-22.00003 -13,0 -28,13.99996 -44,39.99999 -16,27.00001 -31,40.99997 -45,42.00003 3,-41.00005 20,-81.00003 51,-120.00004 31,-39.00001 67,-58.00003 106,-58.00003 19,8e-5 42,5.00006 68,15.00004 25,-34 49,-68.00001 74,-103 34,-38.99999 70,-58 107,-58 13,0 25.00001,7 34,21 9,15 13,29 13,44 z"
       style="fill:#000000;fill-opacity:1;stroke:none"
       id="path3100" />
    <path
       id="path3098"
       d="M -821.99998,2086 C -833.99999,2117 -869,2132 -927,2132 c -69.00001,0 -115,-20 -139,-61 -44,85 -101,146 -171,183 -55,28 -138,50 -249,64 l 0,-32 c 124,-47 249,-135 373,-262 0,-165 43,-247 130.00002,-247 30.99996,0 70,23 117.99997,71 48,47 93.00003,73 134.00002,76 l -10e-6,3 c 850.00003,125 2005,190 3805,190 1216,0 2676,-113 3714,-244 34,-4 69,86 127,86 103,-10e-5 228,-55.0001 228,-174 l 28,-17 c 6,17 10,50 10,98 0,13 31,31 42,31 73,0 98,-91 98,-149 l 36,-21 c 2,45 60,75 100,75 30,0 111,-19 111,-58 0,-74 -51,-205 -155,-392 -9,0 -19,9 -30,29 -11.0001,20 -23,30 -36,30 l -4,-2 c 24,-162 45,-243.9999 62.9999,-244 l 5.0001,2 c 107,158 218,383 218,576.9999 C 7629,1822 7582.9999,1934 7491,1934 c -60.9999,0 -104,-36 -127,-108 -34,90 -73,162 -116,216 -48,5 -110,15 -150,-18 -31,57 -129,81 -188,81 -53,0 -106,-110 -108,-110 -950,142 -2632,286 -3885,286 l 0,0 c -4,0 -8,0 -13,0 -4,0 -8,0 -12,0 l 0,0 C 1325.0001,2291 -574.00001,2173 -821.99998,2086 z"
       style="fill:#000000;fill-opacity:1;stroke:none" />
    <path
       id="path3096"
       d="m -941.00002,1958 c 3e-5,-41 -10.99997,-61 -32.99997,-61 C -989,1897 -1005,1905 -1023,1922 l 81.99998,36 z"
       style="fill:#000000;fill-opacity:1;stroke:none" />
    <path
       id="path3094"
       d="m -4436,2002 c 0,30 -9,47 -29,51 -14.0001,-140 -29,-280 -44,-420 -18,-162 -37,-301 -57,-417 l 51.9997,-90.0002 c 52,322 78.0001,614.0001 78,876 z"
       style="fill:#000000;fill-opacity:1;stroke:none" />
    <path
       id="path3092"
       d="m -5098,1181 c 0,37.0001 -9,75 -27,113 -21,46 -49,69 -81,69 -6,-10e-5 -16,-2 -29,-6 -17,23 -43.0001,35 -78,35.0001 -50,-10e-5 -74,-30.0001 -74,-91.0001 0,-80 19,-120 59,-120 4,0 7,3 8,10 1,3.9999 1,11 0,20 -1,10 -1,15 -1,15 0,36.0001 10,54 32,54 31,0 47,-36 47,-110 l 26.0001,-27 c 6.9999,1 13.9999,17 17.9999,48 5,30 14,45 29,45 19,0 29,-27 29,-83 l 35,-22 c 5,12 7,28.0001 7,50 z"
       style="fill:#000000;fill-opacity:1;stroke:none" />
    <path
       id="path3090"
       d="m -4778,1804 c 0,55 -13,108 -41,159 -30,57 -70,93 -118,107 -8,13 -12,35 -12,64 0,68 -43,142 -128,224 -85,82 -161,123 -229,123 -43,0 -91,-14 -144,-42 -53,-29 -92,-61 -115,-97 l 18,-17 c 21,22 77,32 168,31.9999 56,2e-4 130,-23.9998 222,-71.9999 100,-54.9999 151,-107 151,-156 0,-16 -8,-33 -22,-51 -21,-27 -32,-42 -34,-46 4,-49 12,-82 24,-97 12,-15 39,-23 81,-22.9999 26.9999,-10e-5 54,-12.0001 81,-36.0001 27,-25 41,-50 41,-77 0,-68 -17,-169 -51,-302 -34,-133 -51.0001,-232 -51,-295.9999 0,-106 16,-159.0001 47,-159.0001 l 19,3 c 0,43 15,74 44,93 3,22.9999 5,43 5,59 0,7 -3,17 -8,31 -6,13 -9,22.9999 -9,26.9999 0,61.0001 10,152.0001 31,274.0001 20,122 30,214 30,275 z"
       style="fill:#000000;fill-opacity:1;stroke:none" />
    <path
       inkscape:connector-curvature="0"
       id="path3088"
       d="m -5086,760.99994 c -32,46.00004 -217,130.00004 -555,250.00006 -266,95 -579,198 -939.9999,308 -329,100 -515.0001,152 -559.0001,156 l -15,-12 c 39,-50 110,-96 211,-135 21,-8 103,-34 248,-78 273,-86 546,-171 819,-256.00014 505,-156.99992 768,-234.99988 791,-234.99987 l 0,1.99995 z"
       style="fill:#000000;fill-opacity:1;stroke:none" />
    <path
       id="path3086"
       d="m -4145.0001,2720 c 1e-4,34.9999 -85.9999,97 -259.9999,188 -165,84 -262,127 -290,127 44.9999,-100 197,-203 456,-310 50,-20 79,-31 86,-31 l 3,2 c 4,9 5,17 4.9999,24 z"
       style="fill:#000000;fill-opacity:1;stroke:none" />
    <path
       inkscape:connector-curvature="0"
       id="path3084"
       d="m -6825,800.00003 c 0,8 -7,27.99998 -20,60.99996 -20,46 -55,79 -105,98 -48,15.0001 -94.9999,30 -143,45.99991 -1,-5.99991 -1,-7.99991 -1,-7.99991 0,-17 21,-39.0001 64,-67.0001 36,-22.9998 66,-37.9999 90,-44.9999 -24,-7 -38.9999,-10 -44,-10.0001 -67,10e-5 -104,2.0001 -112,8.0001 -1.0001,1 -5,6 -13,14 -7,8 -12,11 -14,11 -4,0 -8,-2 -15,-5 -6,-4.0001 -9,-8 -9,-10 0,-8.9999 5,-25 15.0001,-49.00001 C -7109,788 -7053,759.00001 -6962,758.99999 c 70,10e-6 111,2.00002 123,6.00002 9,1.99999 14,13.99997 14,35.00002 z"
       style="fill:#000000;fill-opacity:1;stroke:none" />
    <path
       id="path3082"
       d="m -5811,2540 c 0,26 0,45 -1.9999,58 l -35.0001,7 c -1,-47 -10,-95 -25,-146 -21,-59 -46,-100 -75,-125 l 14,-136 c 38,24 69,76 93,156 20,67 30,129 30,186 z"
       style="fill:#000000;fill-opacity:1;stroke:none" />
    <path
       inkscape:connector-curvature="0"
       id="path3080"
       d="m -7377.446,2320 c -1e-4,-14 -3.0001,-23 -7.0001,-25 -58,8 -136,50 -235,127 -109,84 -163,155 -163,215 l 0,-12 c 18,-19.9999 94,-72 229.0001,-156 116.9999,-71 175.9999,-120 176,-149 z"
       style="fill:#000000;fill-opacity:1;stroke:none" />
    <path
       id="path3078"
       d="m -2417,2070.9999 c -1e-4,32.0001 -10,49.0001 -29,53.0001 -15,-140 -30,-280 -44,-420 -18,-162 -37,-301 -58,-417 l 53,-91 c 52,322.0001 78,613 78,874.9999 z"
       style="fill:#000000;fill-opacity:1;stroke:none" />
    <path
       inkscape:connector-curvature="0"
       id="path3076"
       d="m -2922.0001,784.00003 c 1e-4,33.99995 -74,90.00002 -223.9999,166.00002 -94,46.99999 -189,91.99995 -282,136.99995 -7,10 -19,14 -38,14 l -6,-2 c 25,-55 110,-126 255,-213 140,-84.99995 237,-126.99998 290,-127.00001 3,17.00007 4.9999,25.00004 4.9999,25.00004 z"
       style="fill:#000000;fill-opacity:1;stroke:none" />
    <path
       inkscape:connector-curvature="0"
       id="path3074"
       d="m -3063,1244 c 0,37 -8.9999,75 -27,113 -21,47 -48,70 -81,70 -6,0 -15,-3 -29,-7 -17,24 -43,35 -79,35 -49,0 -73,-30 -73,-91 0,-80 20,-120 59,-120 5,0 8,3 9,10.0001 1,2.9999 1,9.9999 1e-4,18.9999 -1.0001,10 -2.0001,15 -2.0001,15 0,37 11,56 32,56 31.9999,0 48,-37 48,-109.9999 L -3181,1205 c 8,1 14,17.0001 18.0001,48 3.9999,30.9999 12.9999,47 28,47 19.9999,10e-5 29.9999,-28 29.9999,-83 l 36,-22 c 4,9 6,25 6,49 z"
       style="fill:#000000;fill-opacity:1;stroke:none" />
    <path
       inkscape:connector-curvature="0"
       id="path3072"
       d="m -3618,786.00001 c 0,32.99997 -75,87.00001 -224.9999,163.99999 C -3937,996.00003 -4031,1042 -4124,1087 c -6,9 -18,14 -36,14.0001 l -8,-2.0001 c 44,-99 196,-202.99993 455,-309.99994 51,-20 80,-30.00007 87,-30.00006 l 1,-10e-6 c 5,11.00005 7,20 7,27.00002 z"
       style="fill:#000000;fill-opacity:1;stroke:none" />
    <path
       inkscape:connector-curvature="0"
       id="path3070"
       d="m -3611.4461,1101 c 0,8 -7,28 -21,60.9999 -20,46.0001 -55,79 -105,98.0001 -47,15 -94,30 -142,46 -1,-6 -2,-9 -2,-9 0,-17 21,-39 63,-66 36,-22 66,-37 90,-45 -24,-6.9999 -39,-11 -44,-10.9999 -66.9999,-10e-5 -104,2.9999 -112,8.9999 -1,1 -5,6 -12,13 -7,8 -12,12 -15,12 -2,0 -7,-2.0001 -13.9999,-6 -6.0001,-4 -10.0001,-7 -10.0001,-9 0,-9 5,-25 16,-49 22,-56 79,-85 169,-85 66,0 108,2 123,5 11.0001,3 16,15.0001 16,36 z"
       style="fill:#000000;fill-opacity:1;stroke:none" />
    <path
       id="path3068"
       d="m -4004,1729 c 0,25.0001 -1,43.9999 -2,56 l -35,7 c -1,-46 -10,-95 -26,-146 -20,-58 -45.0001,-100 -74,-125 l 13,-134 c 39,23 70,75 93,156 21,68 31,130 31,186 z"
       style="fill:#000000;fill-opacity:1;stroke:none" />
    <path
       inkscape:connector-curvature="0"
       id="path3066"
       d="m -1824,1109 -29,16.9999 c -4,-36.9999 -17,-82.9999 -41,-136.99996 -24,-53.99993 -48,-93.99999 -73,-119.99992 l 41,-110.00003 c 68.0001,20.99999 102,117.99999 102,291.00001 l 0,59 z"
       style="fill:#000000;fill-opacity:1;stroke:none" />
    <path
       id="path3064"
       d="m -1689,1302 c 0,77 -29,116 -88,116 -21,0 -34,-5 -37,-14 -6,12 -19,24 -39,35 -21,10 -38,16 -53,16 -49,0 -74,-27 -74,-80 0,-38 11,-78.9999 34,-122 l 47,0 c 0,7.0001 -2,18 -8,32 -5,14 -7,25 -7,33 0,17 9,25 27,25 39,0 59,-35 59,-107 l 44,-30 c -2,10 -3,32 -3,64 0,30 9,44 29,44 17,0 25,-26 25,-79 l 37,-29 c 5,67 7,99 7,96 z"
       style="fill:#000000;fill-opacity:1;stroke:none" />
    <path
       id="path3062"
       d="m -1787,2320 c 0,35 -87,98 -261,188 -165,86 -261,129 -289,129 24,-56 105,-125 242,-208 132,-81 232,-125 299,-134 6,1 9,9 9,25 z"
       style="fill:#000000;fill-opacity:1;stroke:none" />
    <path
       inkscape:connector-curvature="0"
       id="path3060"
       d="m -1005,1633 c 0,31 -9,49 -27,52 -15,-140 -29,-280 -44,-420 -18,-161 -37,-299.99997 -58,-416.00001 l 51,-90 C -1031,1064 -1005,1355 -1005,1633 z"
       style="fill:#000000;fill-opacity:1;stroke:none" />
    <path
       inkscape:connector-curvature="0"
       id="path3058"
       d="m -794.99999,2322 c -3e-5,34 -86.99999,96 -261.00001,186 -163,86 -260,129 -289,129 25,-56 105,-125 242,-209 131.99999,-79 231.99998,-123 300.00003,-132 4.99995,1 7.99997,10 7.99998,26 z"
       style="fill:#000000;fill-opacity:1;stroke:none" />
    <path
       id="path3056"
       d="m 7139.9999,1316 c 0,8 -6.9999,28 -21.9999,61 -19,47 -53,80 -101.9999,96 C 6968,1490 6920,1506 6873,1521 l -4,-7 c 0,-17 22,-39 64,-66 35,-22.0001 65,-38 90.0001,-47 C 6997,1395 6983,1392 6979,1392 c -69,0 -106,2 -112,7 -20,17 -29,25 -27,25 -4,0 -23,-8 -23,-13 0,-96 104,-136 184,-136 67,0 108,2 124.0001,5 9.9999,3 14.9999,15 14.9998,36 z"
       style="fill:#000000;fill-opacity:1;stroke:none" />
    <path
       inkscape:connector-curvature="0"
       id="rect3014-4"
       d="m 7782.4461,2322 c 0,33 -87,96 -261,186 -165.0001,86 -261,129 -289,129 24,-55 106,-124 245.0001,-209 134.9999,-82 233.9999,-127.0001 297.9999,-134 5,3 7,12 7,28 z"
       style="fill:#000000;fill-opacity:1;stroke:none" />
  </g>
</svg>
