<?xml version="1.0" encoding="UTF-8" standalone="no"?>
<svg>
  <path
     d="m 0,59.129729 c 0,0 11.49773,19.294452 11.49773,19.294452 0.657013,0.683243 1.358992,1.340256 2.102192,1.971039 11.558934,9.816475 31.25184,13.056574 42.512246,8.170195 9.813977,-4.258094 17.444572,-10.535942 20.518544,-18.7561 0.477147,-1.275305 0.79566,-2.362 0.745698,-2.765451 -0.287288,-2.339516 -5.027525,-4.502913 -9.726543,-4.83142 -4.621575,-0.32351 -11.573923,0.522113 -11.573923,0.522113 l 4.96632,-4.225618 9.604133,-5.171168 c 1.353996,-0.729459 1.56509,-0.83688 2.108437,-1.071706 1.266562,-0.547094 4.124444,-0.429681 4.625323,-0.308521 0.825638,0.201101 1.446428,0.627035 1.979783,1.307781 0.761935,0.973029 1.345253,2.468171 1.991024,3.77845 3.521141,7.145954 11.986118,5.442217 15.07383,5.005041 3.316292,-0.469652 10.584656,-1.857374 11.901176,-2.970299 0.31477,-0.266053 0.53711,-0.578322 0.76069,-0.911824 1.52012,-2.270818 3.15391,-5.534649 4.03076,-8.549914 0.41345,-1.422696 -1.31777,-16.876244 -2.22835,-19.876521 -0.9368,-3.092708 -2.07096,-6.685046 -2.07096,-6.685046 0,0 -2.36825,3.078969 -3.62481,4.975063 -1.77244,2.675518 -2.30954,6.321566 -0.56833,10.324849 0.34349,0.790664 0.78941,1.406458 1.1379,2.208364 0.81065,1.867366 1.09294,4.738988 1.42395,7.17843 0.10117,0.746946 0.20734,1.453922 0.12491,2.180884 -0.11242,0.980523 -0.29104,1.129163 -1.78868,1.492644 -2.18963,0.529607 -3.88337,1.027988 -6.628836,1.107929 L 90.736509,51.235579 C 85.807661,49.676734 86.731976,48.4414 83.98776,43.491318 c -2.636796,-4.755226 -12.915429,1.135408 -17.248468,3.623565 -6.758741,3.882123 -10.559674,6.837433 -12.818001,12.248423 -0.919319,2.202118 -1.80741,4.665293 -1.994772,7.634342 -0.148639,2.378238 0,5.468448 0,5.468448 0,0 3.378747,0.117413 7.470714,0.258558 0.705727,0.02373 17.388364,-0.733206 7.398268,4.253098 -2.408216,1.20161 -5.880642,2.4969 -8.492457,3.412472 C 45.737356,84.249863 35.036536,81.87912 27.964277,78.85636 15.873237,75.613763 0,59.129729 0,59.129729 z m 73.926466,-28.262806 -5.770723,5.730753 c -0.95804,0.953044 -1.095439,1.124167 -1.362741,1.709983 -0.375971,0.821891 -0.505875,2.195873 -0.321012,2.381985 0.597058,0.603303 2.710492,-0.860612 3.444947,-1.40271 6.441477,-4.75023 9.375553,-7.741763 10.417281,-13.892206 0.528358,-3.126433 -1.126665,-4.336786 -4.055745,-4.73524 -4.646556,-0.633281 -9.258139,0.01374 -11.063051,3.512397 0.281041,13.35885 0.678247,5.719511 4.619077,4.771464 4.383001,-1.055468 9.097008,-3.398732 4.091967,1.923574 z M 86.724482,20.056185 86.158651,9.250442 C 86.074963,7.6478796 86.041238,7.3680869 85.827647,6.4600099 85.173132,3.6770722 83.410688,2.1519524 81.568303,1.1689309 c -2.343263,-1.25157253 -4.131938,-1.71747727 -6.546399,0.044967 -1.986028,1.4489262 -2.17214,6.6937895 -1.391468,7.5144313 0.582068,0.6120464 2.124675,0.5570872 3.992041,0.117413 4.665293,-1.0954382 5.133696,-0.8418761 6.347796,4.0907188 0.578322,2.344512 0.645772,4.541634 0.362232,6.898638 -0.603303,5.007539 -2.021003,7.443234 0.756939,10.382306 1.155393,1.222843 2.363248,1.408955 5.000044,0.865608 1.873612,-0.385964 2.244587,-1.256569 3.030255,-3.850896 0.552091,-1.826147 0.990516,-3.461185 0.848121,-5.282336 -0.281041,-3.612323 -4.186897,-10.402291 0.520864,-12.0897904 0.869356,-0.3110195 1.998519,-0.1074204 2.971548,0.1036732 1.312777,0.2860372 1.536362,0.1573832 2.228349,-1.2965392 0.568325,-1.1941151 1.226595,-2.2945496 1.588825,-3.5798472 1.35774,-4.82767236 -0.72197,-6.1891634 -4.895125,-4.2118787 -4.786453,2.2683187 -6.937359,11.9861173 -5.914367,18.5012893 0.313518,2.68551 0.655764,5.103718 0.655764,5.103718 0,0 -0.286038,-0.0037 -0.627035,-0.03747 -1.339008,-0.131153 -3.642301,-1.911084 -3.772205,-4.386749 z m 17.279698,-7.57064 c 0.20235,2.799176 1.50888,4.539136 3.88337,5.041264 3.06398,0.64827 4.79769,-1.012999 5.58211,-4.374258 0.17237,-0.738204 0.13365,-1.352748 -0.341,-1.648779 -0.90183,-0.564581 -3.38124,0.02123 -4.58035,-0.615794 -1.49015,-0.791913 -1.86987,-4.1581681 -1.50139,-5.7320018 0.36973,-1.5763318 1.31028,-3.2625822 1.56634,-4.47793155 0.0525,-0.24481857 0.0762,-0.4721501 -0.0312,-0.59830661 -0.0137,-0.01623797 -0.0262,-0.03122686 -0.04,-0.04496668 -3.60732,-0.82189093 -4.48292,13.20646364 -4.53788,12.45077364 z m -31.808931,79.216296 4.248102,4.248102 6.11297,-6.11297 -6.11297,-6.11297 -4.248102,4.248102 -4.246853,-4.248102 -6.11297,6.11297 6.11297,6.11297 4.246853,-4.248102 z m 29.754201,-16.796303 6.11297,-6.11297 -6.11297,-6.11297 -6.11297,6.11297 6.11297,6.11297 z"
     style="fill:#000000;stroke:none" />
</svg>
