<?xml version="1.0"?>
<svg xmlns="http://www.w3.org/2000/svg" version="1.1">
  <path
     d="m 0,47.338827 c 0,0 9.205,15.447 9.205,15.447 0.526,0.547 1.088,1.073 1.683,1.578 9.254,7.859 25.02,10.453 34.035,6.541 7.857,-3.409 13.966,-8.435 16.427,-15.016 0.382,-1.021 0.637,-1.891 0.597,-2.214 -0.23,-1.873 -4.025,-3.605 -7.787,-3.868 -3.7,-0.259 -9.266,0.418 -9.266,0.418 l 3.976,-3.383 7.689,-4.14 c 1.084,-0.584 1.253,-0.67 1.688,-0.858 1.014,-0.438 3.302,-0.344 3.703,-0.247 0.661,0.161 1.158,0.502 1.585,1.047 0.61,0.779 1.077,1.976 1.594,3.025 2.819,5.721 9.596,4.357 12.068,4.007 2.655,-0.376 8.474,-1.487 9.528,-2.378 0.252,-0.213 0.43,-0.463 0.609,-0.73 1.217,-1.818 2.525,-4.431 3.227,-6.845 0.331,-1.139 -1.055,-13.511 -1.784,-15.913 -0.75,-2.476 -1.658,-5.352 -1.658,-5.352 0,0 -1.896,2.465 -2.902,3.983 -1.419,2.142 -1.849,5.061 -0.455,8.266 0.275,0.633 0.632,1.126 0.911,1.768 0.649,1.495 0.875,3.794 1.14,5.747 0.081,0.598 0.166,1.164 0.1,1.746 -0.09,0.785 -0.233,0.904 -1.432,1.195 -1.753,0.424 -3.109,0.823 -5.307,0.887 l -6.531,-1.031 c -3.946,-1.248 -3.206,-2.237 -5.403,-6.2 -2.111,-3.807 -10.34,0.909 -13.809,2.901 -5.411,3.108 -8.454,5.474 -10.262,9.806 -0.736,1.763 -1.447,3.735 -1.597,6.112 -0.119,1.904 0,4.378 0,4.378 0,0 2.705,0.094 5.981,0.207 0.565,0.019 13.921,-0.587 5.923,3.405 -1.928,0.962 -4.708,1.999 -6.799,2.732 -10.06,3.09 -18.627,1.192 -24.289,-1.228 C 12.708,60.535827 0,47.338827 0,47.338827 z m 59.185,-22.627 -4.62,4.588 c -0.767,0.763 -0.877,0.9 -1.091,1.369 -0.301,0.658 -0.405,1.758 -0.257,1.907 0.478,0.483 2.17,-0.689 2.758,-1.123 5.157,-3.803 7.506,-6.198 8.34,-11.122 0.423,-2.503 -0.902,-3.472 -3.247,-3.791 -3.72,-0.507 -7.412,0.011 -8.857,2.812 0.225,10.695 0.543,4.579 3.698,3.82 3.509,-0.845 7.283,-2.721 3.276,1.54 z m 10.246,-8.655 -0.453,-8.6510003 c -0.067,-1.283 -0.094,-1.507 -0.265,-2.234 -0.524,-2.228 -1.935,-3.449 -3.41,-4.23599995 -1.876,-1.002 -3.308,-1.375 -5.241,0.036 -1.59,1.15999995 -1.739,5.35899995 -1.114,6.01599995 0.466,0.49 1.701,0.446 3.196,0.094 3.735,-0.877 4.11,-0.674 5.082,3.2750003 0.463,1.877 0.517,3.636 0.29,5.523 -0.483,4.009 -1.618,5.959 0.606,8.312 0.925,0.979 1.892,1.128 4.003,0.693 1.5,-0.309 1.797,-1.006 2.426,-3.083 0.442,-1.462 0.793,-2.771 0.679,-4.229 -0.225,-2.892 -3.352,-8.3280003 0.417,-9.6790003 0.696,-0.249 1.6,-0.086 2.379,0.083 1.051,0.229 1.23,0.126 1.784,-1.038 0.455,-0.956 0.982,-1.837 1.272,-2.866 C 82.169,0.20782675 80.504,-0.88217325 77.163,0.70082675 73.331,2.5168267 71.609,10.296827 72.428,15.512827 c 0.251,2.15 0.525,4.086 0.525,4.086 0,0 -0.229,-0.003 -0.502,-0.03 -1.072,-0.105 -2.916,-1.53 -3.02,-3.512 z M 83.265,9.9958267 c 0.162,2.2410003 1.208,3.6340003 3.109,4.0360003 2.453,0.519 3.841,-0.811 4.469,-3.502 0.138,-0.5910003 0.107,-1.0830003 -0.273,-1.3200003 -0.722,-0.452 -2.707,0.017 -3.667,-0.493 -1.193,-0.634 -1.497,-3.329 -1.202,-4.589 0.296,-1.262 1.049,-2.612 1.254,-3.58499995 0.042,-0.196 0.061,-0.378 -0.025,-0.479 -0.011,-0.013 -0.021,-0.025 -0.032,-0.036 -2.888,-0.658 -3.589,10.57300025 -3.633,9.96799995 z m -25.466,63.4200003 3.401,3.401 4.894,-4.894 -4.894,-4.894 -3.401,3.401 -3.4,-3.401 -4.894,4.894 4.894,4.894 3.4,-3.401 z m 23.821,-13.447 4.894,-4.894 -4.894,-4.894 -4.894,4.894 4.894,4.894 z"
     style="fill:#000000;stroke:none" />
</svg>
