<?xml version="1.0" encoding="UTF-8" standalone="no"?>
<svg>
    <path
       style="fill:#000000;stroke:none"
       d="m 39.670051,25.086856 5.51875,0.24875 c 1.4825,0.06625 1.8075,0.03 3.2425,-0.3675 1.3425,-0.37125 2.70625,-0.8575 3.85625,-1.57875 0.87,-0.545 4.31375,-7.7425 4.2425,-8.86875 -0.13,-2.095 -2.772488,-8.6800002 -4.393738,-12.9387502 -0.5275,-1.3875 -0.61875,-1.545 -0.91625,-1.57375 -2.625,-0.25375 -3.3325,5.51875 -3.603762,7.68625 -0.198738,1.58 -0.29375,3.2212502 0.2975,3.7200002 0.229999,0.19375 0.56375,0.21875 0.92375,0.49875 0.536262,0.4175 1.7775,2.205 1.95625,2.89 0.20875,0.80375 0.283762,2.28625 0.283762,2.28625 0,0 -3.037512,0.2375 -5.275,0.0925 -1.3375,-0.0875 -4.920012,-0.9575 -6.29875,-1.815 -2.785,-1.73125 -4.1325,-5.3687502 -5.75375,-4.0225 -1.013762,0.8425 -2.077512,6.14375 -1.871262,8.05875 0.16375,1.51875 0.95125,3.29125 1.506262,5.04375 0.481238,1.51875 0.482488,1.99625 -0.27375,2.57625 -3.32625,2.5475 -12.140006,4.73875 -15.975006,4.40125 -4.57875,-0.40125 -9.8887495,-3.4525 -11.8299995,-6.94 -1.565,-2.80875 -1.76625,-6.6375 -1.24625,-10.34 l 1.3325,-9.4700002 -2.52875,6.2200002 c -2.24500001,5.52125 -3.24625001,10.65125 -2.73125001,16.44 0.47625,5.35 2.18750001,6.7225 6.31250001,9.3475 4.1649995,2.64875 6.2024995,3.4025 10.9449995,2.98375 4.12875,-0.36375 15.157506,-3.71875 17.366256,-8.195 0.56375,-1.145 0.595,-2.54875 1.39125,-3.67625 0.3425,-0.48375 1.66375,-1.58625 1.82875,-2.52 0.0425,-0.235 0.21125,-0.25375 1.693738,-0.1875 z M 19.210057,7.4181058 l -6.595,6.5962502 6.595,6.595 6.596244,-6.595 -6.596244,-6.5962502 z m 25.854993,22.4325002 -6.596237,6.59625 6.596237,6.595 6.595013,-6.595 -6.595013,-6.59625 z" />
</svg>
