<?xml version="1.0" encoding="UTF-8" standalone="yes"?>
<svg>
<path
	style="stroke:none; fill:#000000"
	d="m 16.9706,56.215828 c 0.2225,3.23625 1.66125,5.25 4.27875,5.83125 3.37625,0.74875 5.28625,-1.1725 6.15125,-5.06125 0.19,-0.8525 0.1475,-1.56375 -0.375,-1.90625 -0.995,-0.6525 -3.7275,0.025 -5.0475,-0.71125 -1.64375,-0.91625 -2.06125,-4.81 -1.655,-6.63125 0.4075,-1.8225 1.44375,-3.77375 1.72625,-5.1775 0.0575,-0.285 0.0838,-0.5475 -0.0337,-0.6925 -0.015,-0.0188 -0.03,-0.0362 -0.045,-0.0525 -3.97375,-0.95125 -4.94,15.275 -5,14.40125 z m 33.575,12.7975 -7.28125,7.64375 7.28125,7.6425 7.2825,-7.6425 -7.2825,-7.64375 z m -30.3925,-46.395 -7.2825,7.64375 7.2825,7.6425 7.28125,-7.6425 -7.28125,-7.64375 z m -12.4762496,22.35 -2.345,0.82 c -0.1925,0.59875 -0.57875,1.515 -1.19625,2.87875 -5.7725,12.74125 -6.49125,21.895 4.29375,30.625 5.9987496,4.85625 12.9774996,5.525 21.1562496,2.34125 3.01875,-1.17625 7.11375,-4.17875 8.67625,-7.485 1.05,-2.2225 1.15125,-5.1275 3.1,-7.36875 0.77125,-0.8875 1.04,-0.98875 2.6775,-1.01875 l 2.6875,-0.05 c 1.63875,-0.03 1.94375,-0.085 3.0575,-0.55125 1.5125,-0.63375 4.98,-3.6375 5.25375,-4.06 0.79375,-1.22875 0.9675,-2.9575 1.745,-4.49125 1.1475,-2.25875 2.2375,-2.845 2.65375,-4.71125 0.91375,-4.1075 -4.555,-16.31125 -5.76125,-17.2225 -1.9625,-1.4825 -3.75875,2.755 -4.57375,6.94875 -0.41125,2.11125 -0.0638,3.6725 1.4375,5.98 1.72125,2.64375 2.725,2.945 2.87,6.8375 0.0275,0.7325 0.0275,1.59125 0.0275,1.59125 l -3.6525,0.0675 c -1.63875,0.03 -1.96875,10e-4 -3.2975,-0.29 -0.98625,-0.21625 -1.92875,-0.5325 -2.785,-1.19125 -3.07625,-2.36875 -5.12125,-8.9225 -7.6625,-4.6375 -1.0525,1.77625 -2.045,6.57 -2.0075,7.045 0.6525,8.1475 5.205,10.16375 2.63375,12.37375 -5.57,4.785 -13.7125,4.84375 -19.06375,3.21625 -7.3075,-2.22375 -11.9737496,-6.73625 -13.3049996,-15.4275 -0.7175,-4.68875 1.3975,-6.1825 3.38,-12.22 z M 57.15685,10.794578 51.1806,16.730828 c -0.9925,0.9875 -1.13375,1.16375 -1.41125,1.77125 -0.39,0.85125 -0.52375,2.27375 -0.3325,2.46625 0.61875,0.625 2.80625,-0.89125 3.56875,-1.4525 6.67,-4.92 9.70875,-8.01875 10.78751,-14.3887497 0.54875,-3.2375 -1.16626,-4.49124996 -4.20001,-4.90374996 -4.8125,-0.65625 -9.58875,0.015 -11.45875,3.63874996 0.2925,13.8349997 0.70375,5.9225 4.785,4.94125 4.54,-1.0925 9.4225,-3.52 4.2375,1.9912497 z M 31.39435,0.03582834 30.74685,7.5195783 c 0,0 1.09625,0.0863 1.75875,0.32125 0.6975,0.25 0.9125,0.665 1.1575,1.10625 1.19625,2.1424997 3.2975,5.4674997 3.9075,8.0412497 1.105,4.6625 -0.65125,11.3475 0.43125,15.19125 1.08875,3.87 4.7775,6.59125 8.60375,4.01125 1.23375,-0.83125 2.83875,-4.7475 2.36875,-6.7175 -0.58375,-2.445 -2.8925,-3.27875 -5.445,-3.63125 -1.37875,-0.19 -3.15875,-0.37 -3.15875,-0.37 l 0.11375,-11.91375 c 0.0138,-1.555 -0.0412,-1.89125 -0.5575,-3.36125 -0.795,-2.2649997 -3.365,-9.65124966 -6.68875,-10.14374966 -0.73875,-0.10875 -1.84375,-0.0175 -1.84375,-0.0175 z"/>
</svg>