<?xml version="1.0" encoding="UTF-8" standalone="no"?>
<svg>
  <path
     style="fill:#7d7dff;stroke:none"
     d="m 7.6148788,86.067502 c 0,0 4.7800002,-1.5625 6.6737502,-1.13 1,0.22625 2.03375,2.025 2.6825,3.403751 1.1775,2.50125 2.3125,5.7225 2.7425,8.27875 0.14375,0.85125 0.3,1.63625 1.17625,1.93625 0.55125,0.18875 1.39125,0.2 1.39125,0.2 0,0 0.002,-0.0125 0.006,-0.03875 0.41875,-2.35625 1.35,-6.31 1.5875,-8.69375 0.25,-2.503751 0.19375,-3.372501 2.32625,-3.213751 3.22125,0.24 4.31625,0.80875 5.73125,-1.7625 1.27,-2.30625 2.6625,-7.01375 0.445,-8.54 -6.8575,-1.84625 -9.41625,7.175 -9.84625,9.24 -0.6075,2.916251 -0.86125,6.043751 -0.86125,6.043751 0,0 -1.68,-5.400001 -2.915,-8.316251 -1.39,-3.28125 -4.9775,-7.69875 -8.8475002,-6.595 -1.9225,0.54875 -2.59875,2.12125 -2.5975,4.2025 0.001,1.915 0.305,4.985 0.305,4.985 z M 19.779879,10.01625 l -5.545,5.5075 c -0.92125,0.91625 -1.0525,1.08 -1.31,1.64375 -0.36125,0.79 -0.48625,2.11 -0.30875,2.288751 0.57375,0.579999 2.605,-0.827501 3.31125,-1.348751 6.19,-4.56375 9.00875,-7.43875 10.01,-13.35 0.50875,-3.005 -1.0825,-4.1675 -3.8975,-4.55 -4.465,-0.60875 -8.8975,0.01375 -10.63125,3.37625 0.27,12.83625 0.65125,5.495 4.43875,4.58375 4.2125,-1.01375 8.7425,-3.265 3.9325,1.84875 z m 17.13875,20.688751 c 2.98625,2.62375 7.32625,3.98875 9.03625,1.42875 1.10875,-1.6625 2.91625,-5.1275 2.91625,-5.1275 0,0 -1.83625,-2.77375 -3.36875,-3.96625 -1.03,-0.80125 -2.995,-1.13625 -4.15625,-0.505 -1.02625,0.55625 -2.2225,2.1675 -2.8725,1.50875 -0.7875,-0.8 1.78125,-6.043751 1.9425,-6.492501 1.965,-5.50375 1.86,-8.94125 0.35125,-13.51125 -0.465,-1.40625 -0.9775,-2.835 -1.69625,-3.39375 L 38.241129,0 l -0.87,0.92875 c -1.3575,1.4475 -1.0975,5.23875 -0.655,6.79375 0.415,1.455 1.14125,2.90125 1.55125,4.46375 0.48625,1.85875 0.24875,6.20125 -0.445,8.1575 -0.9575,2.696251 -2.72375,5.168751 -2.335,8.113751 0.1325,1.0075 0.275,1.2325 1.43125,2.2475 z m -16.37125,-6.72 -7.1625,7.1625 7.1625,7.1625 7.1625,-7.1625 -7.1625,-7.1625 z m 25.36625,44.057501 -7.1625,7.1625 7.1625,7.1625 7.16375,-7.1625 -7.16375,-7.1625 z m -5.71875,-8.32875 6.62,0.81875 c 1.6,0.1975 1.95625,0.19875 3.56,0.01 7.79,-0.9175 7.55875,-2.3625 10.44375,-11.143751 2.05375,-6.25125 1.83375,-7.3875 -0.37,-15.01875 -0.4475,-1.55125 -0.55,-1.73125 -1.02625,-1.81125 -1.23625,-0.2075 -1.75375,0.205 -2.41875,1.12875 -1.14875,1.59625 -2.62,6.1075 -2.4925,7.64 0.51625,6.19625 3.29625,7.87375 0.14375,8.675 -3.27,0.83 -7.71125,1.00375 -10.55125,-0.895 -4.17125,-2.78625 -4.2525,-13.98875 -7.315,-2.07375 -0.41375,1.61125 -1.17125,2.41875 -1.28625,3.45875 -0.18375,1.6425 2,5.817501 0.775,8.013751 -0.9425,1.69125 -6.89125,2.97375 -9.14875,3.50125 -3.21875,0.7525 -4.86125,1.05375 -7.14625,0.89125 C -5.5951212,61.092502 7.0348788,31.382501 8.0048788,29.342501 c -1.1975,2.5175 -2.82,6.27125 -4.17375,9.63375 -3.91374998,9.7225 -9.07375,30.477501 8.7800002,32.906251 0.60875,0.0825 1.28125,0.16 2.0325,0.24 4.1375,0.43875 5.73375,0.22875 10.83875,-1.52375 3.59875,-1.235 9.2225,-3.075 11.35625,-5.68125 1.35,-1.65 3.35625,-5.20375 3.35625,-5.20375 z" />
</svg>
