<?xml version="1.0" encoding="UTF-8" standalone="no"?>
<svg>
    <path
       style="fill:#000000;stroke:none"
       d="m -2.5e-7,3.6938937 0.07375,4.22 c 0.02625,1.48375 0.0525,1.72 0.27,2.3575003 0.62625,1.8425 2.89499995,2.74625 5.19499995,2.12125 2.90375,-0.78875 3.7537501,-2.9937503 4.6500003,-0.9625 2.92,6.62 3.395,-0.6875 4.4025,-2.3575003 0.23,-0.38 0.49875,-0.73375 0.8775,-0.97625 1.24,-0.7925 3.6575,-0.385 4.9275,-1.185 0.3125,-0.1975 0.555,-0.46875 0.765,-0.76375 0.28125,-0.39875 0.31,-0.6075 0.28375,-2.09125 l -0.07,-4.03375004 c 0,0 -1.8175,-0.07625 -3.12125,0.05375 -1.33125,0.13375 -2.77375,0.96500004 -3.44,1.98500004 -2.1325,3.26 -2.1025,4.7425 -3.9,3.98625 -3.6012502,-1.51625 -5.0225003,-3.03625 -7.6025002,-2.8175 -1.2125,0.10375 -3.31125005,0.46375 -3.31125005,0.46375 z M 63.377493,47.748894 l -6.596237,6.59625 6.596237,6.595 6.595013,-6.595 -6.595013,-6.59625 z m -25.854993,-22.4325 -6.595,6.59625 6.595,6.595 6.596244,-6.595 -6.596244,-6.59625 z m 20.459994,17.66875 5.51875,0.24875 c 1.4825,0.06625 1.8075,0.03 3.2425,-0.3675 1.3425,-0.37125 2.70625,-0.8575 3.85625,-1.57875 0.87,-0.545 4.31375,-7.7425 4.2425,-8.86875 -0.13,-2.095 -2.772488,-8.68 -4.393738,-12.93875 -0.5275,-1.3875 -0.61875,-1.545 -0.91625,-1.57375 -2.625,-0.25375 -3.3325,5.51875 -3.603762,7.68625 -0.198738,1.58 -0.29375,3.22125 0.2975,3.72 0.229999,0.19375 0.56375,0.21875 0.92375,0.49875 0.536262,0.4175 1.7775,2.205 1.95625,2.89 0.20875,0.80375 0.283762,2.28625 0.283762,2.28625 0,0 -3.037512,0.2375 -5.275,0.0925 -1.3375,-0.0875 -4.920012,-0.9575 -6.29875,-1.815 -2.785,-1.73125 -4.1325,-5.36875 -5.75375,-4.0225 -1.013762,0.8425 -2.077512,6.14375 -1.871262,8.05875 0.16375,1.51875 0.95125,3.29125 1.506262,5.04375 0.481238,1.51875 0.482488,1.99625 -0.27375,2.57625 -3.32625,2.5475 -12.140006,4.73875 -15.975006,4.40125 -4.57875,-0.40125 -9.88875,-3.4525 -11.83,-6.94 -1.565,-2.80875 -1.76625,-6.6375 -1.24625,-10.34 l 1.3325,-9.47 -2.52875,6.22 c -2.245,5.52125 -3.24625,10.65125 -2.73125,16.44 0.47625,5.35 2.1875,6.7225 6.3125,9.3475 4.165,2.64875 6.2025,3.4025 10.945,2.98375 4.12875,-0.36375 15.157506,-3.71875 17.366256,-8.195 0.56375,-1.145 0.595,-2.54875 1.39125,-3.67625 0.3425,-0.48375 1.66375,-1.58625 1.82875,-2.52 0.0425,-0.235 0.21125,-0.25375 1.693738,-0.1875 z m -2.31625,-27.33125 0.325,-6.3537503 c 0.07625,-1.4825 0.07125,-1.7925 -0.05375,-3.10375 -0.23,-2.42125 -2.34875,-7.04750004 -3.841249,-6.06000004 -0.641251,0.425 -1.072501,3.39250004 -1.0075,5.24000004 0.01625,0.4825 0.04875,0.9 0.2525,1.13625 0.2025,0.235 0.57375,0.29375 0.905,0.4875 1.63125,0.95625 2.63125,5.8587503 2.29625,7.2762503 -0.28125,1.18875 -1.2825,2.59875 -1.855,3.99 -1.21125,2.9525 -1.5325,6.18125 0.405,7.415 3.185,2.02875 7.63875,1.53875 9.0525,-0.9825 1.81125,-3.23 2.15,-5.94125 -0.95375,-7.405 -2.01375,-0.95 -5.525,-1.64 -5.525,-1.64 z m -53.1149943,9.31875 c -0.04875,0.7875 -0.08625,2.03375 0.11125,2.6025 0.18875,0.54625 0.7700001,0.41125 1.3187501,-0.0225 0.8799999,-0.695 1.77875,-1.86375 3.025,-3.07625 2.0825,-2.02875 12.9100002,-9.0125 16.3037502,-10.73 0.26875,-0.135 0.505,-0.2525 1.095,-0.29375 0.4475,-0.03125 1.09875,-0.01875 1.09875,-0.01875 l -0.4825,3.85625 0.88,-0.015 c 0.395,-0.0075 0.5325,-0.14375 1.38,-1.365 1.35125,-1.945 2.70875,-4.25125 4.44125,-5.53125 C 34.49125,8.3338937 39.00125,7.5813937 39.94125,6.0351437 40.3175,5.4176437 40.995,1.0713937 40.67,0.52514366 38.91875,-2.4111063 24.49375,7.8863937 23.1475,8.7051437 20.10125,10.557644 13.6,13.653894 9.0812498,16.778894 c -3.3125,2.29 -6.43,6.56125 -6.53,8.19375 z" />
</svg>
