<?xml version="1.0" encoding="UTF-8" standalone="yes"?>
<svg>
  <path
    style="stroke:none; fill:#000000"
    d="m 40.924644,19.468964 0.546,-0.009 c 0.245,-0.005 0.311,-0.154 0.658,-1.493 1.994,-7.7 2.359,-11.9520001 -2.548,-16.8910001 -0.808,-0.813 -1.75,-1.495 -2.356,-0.766 -0.411,0.495 -0.831,3.985 -0.644,4.748 0.328,1.333 1.3,1.766 2.423,2.671 2.536,2.044 3.172,3.5780001 2.849,6.3010001 -0.247,2.09 -0.928,5.439 -0.928,5.439 z m -12.427,6.4 c 2.516,2.21 6.173,3.361 7.613,1.203 0.935,-1.4 2.457,-4.319 2.457,-4.319 0,0 -1.547,-2.337 -2.838,-3.342 -0.868,-0.675 -2.523,-0.957 -3.502,-0.426 -0.864,0.47 -1.872,1.827 -2.419,1.272 -0.665,-0.674 1.5,-5.092 1.635,-5.47 1.657,-4.637 1.568,-7.5330001 0.297,-11.3830001 -0.392,-1.185 -0.824,-2.388 -1.429,-2.859 l -0.7,-0.545000004905 -0.733,0.783000004905 c -1.143,1.219 -0.924,4.413 -0.551,5.723 0.349,1.226 0.961,2.444 1.306,3.7610001 0.41,1.566 0.211,5.224 -0.374,6.873 -0.807,2.272 -2.295,4.355 -1.968,6.835 0.112,0.849 0.233,1.039 1.206,1.894 z m -15.679,7.76 0.168,-2.078 -2.949,0.659 c -14.3360005,3.205 -3.2330005,-21.176 -5.9800005,-16.715 -3.16299995,5.137 -4.54599995,11.271 -3.90399995,16.757 0.07,0.599 0.147,1.143 0.24,1.642 1.49599995,7.999 11.93200045,5.814 12.42500045,-0.265 z m 1.68,9.272 c 0.158,2.187 1.179,3.548 3.035,3.94 2.395,0.507 3.75,-0.792 4.364,-3.419 0.134,-0.577 0.104,-1.057 -0.267,-1.289 -0.705,-0.441 -2.643,0.017 -3.58,-0.481 -1.165,-0.619 -1.462,-3.25 -1.174,-4.48 0.289,-1.232 1.025,-2.551 1.225,-3.5 0.04,-0.192 0.059,-0.369 -0.025,-0.468 -0.01,-0.012 -0.021,-0.024 -0.031,-0.035 -2.819,-0.642 -3.505,10.322 -3.547,9.732 z m 3.202,-11.552 5.723,-5.723 -5.723,-5.724 -5.723,5.724 5.723,5.723 z m 16.297,38.046 5.724,-5.724 -5.724,-5.723 -5.723,5.723 5.723,5.724 z m -12.343,-5.541 c 0.949,-0.413 1.861,-0.984 2.733,-1.781 1.093,-1 2.071,-2.017 2.115,-2.136 0.296,-0.802 0.105,-1.807 0.375,-2.671 0.119,-0.378 1.708,-2.872 2.355,-3.052 0.271,-0.075 0.593,-0.006 0.928,0.107 0.981,0.33 4.718,0.361 6.158,0.214 0.224,-0.023 0.436,-0.044 0.631,-0.062 1.812,-0.172 2.96,-1.055 4.087,-2.775 0.722,-1.101 0.971,-2.546 1.651,-3.819 0.287,-0.539 0.653,-1.047 1.001,-1.557 0.134,-0.196 0.143,-0.243 0.092,-0.474 l -2.773,-12.432 c 0,0 -1.29,1.026 -2.121,1.823 -0.57,0.546 -1.406,3.144 -1.322,4.109 0.168,1.95 0.56,5.129 0.659,5.926 0.015,0.12 0.998,0.709 1.021,0.914 0.027,0.242 0.054,0.568 0.041,0.834 -0.086,1.712 -4.474,1.125 -4.646,1.08 -0.331,-0.087 -0.68,-0.194 -0.994,-0.295 -1.927,-0.619 -4.407,-1.88 -5.104,-3.884 -0.291,-0.839 -0.081,-1.688 -0.819,-2.746 -0.563,-0.808 -1.678,-1.739 -1.678,-1.739 0,0 -1.287,1.858 -1.667,3.285 -0.111,0.416 -0.128,1.713 -0.614,2.024 -0.068,0.044 -0.073,0.075 -0.046,0.31 0.217,1.861 0.108,3.315 0.701,5.574 0.554,2.11 1.72,4.921 1.72,4.921 0,0 -0.928,0.589 -1.666,0.972 -0.366,0.19 -0.685,0.33 -0.984,0.445 -3.645,1.411 -10.223,2.051 -14.0670005,-0.383 -3.945,-2.499 -6.786,-6.899 -5.82,-11.689 0.956,-4.741 3.908,-7.991 4.96,-9.871 0.36,-0.643 0.787,-1.419 1.291,-2.353 0.2220005,-0.41 0.3670005,-0.814 0.1870005,-1.063 -0.3480005,-0.479 -1.1530005,0.43 -1.7570005,1.307 -1.991,2.888 -4.066,5.844 -5.733,9.104 -1.91999995,3.755 -2.52699995,6.887 -2.04799995,12.685 0.132,1.593 0.403,2.579 0.93199995,3.468 4.391,7.382 13.9130005,8.424 20.2210005,5.68 z"/>
</svg>