<?xml version="1.0"?>
<svg xmlns="http://www.w3.org/2000/svg" version="1.1">
  <path
     d="m 10.34789,23.32335 c 0,0 4.023,-1.314 5.618,-0.951 0.841,0.191 1.711,1.705 2.257,2.865 0.991,2.105 1.946,4.817 2.309,6.969 0.121,0.717 0.252,1.378 0.989,1.63 0.465,0.159 1.172,0.168 1.172,0.168 0,0 0.002,-0.011 0.005,-0.032 0.353,-1.984 1.137,-5.312 1.337,-7.318 0.21,-2.108 0.163,-2.839 1.958,-2.705 2.711,0.201 3.632,0.68 4.824,-1.484 1.069,-1.941 2.241,-5.904 0.375,-7.188 -5.773,-1.555 -7.927,6.039 -8.289,7.778 -0.511,2.454 -0.725,5.086 -0.725,5.086 0,0 -1.413,-4.545 -2.454,-7 -1.169,-2.761 -4.189,-6.481 -7.447,-5.551 -1.618,0.462 -2.187,1.785 -2.186,3.537 10e-4,1.613 0.257,4.196 0.257,4.196 z m 33.403,28.997 6.631,-6.631 -6.631,-6.632 -6.631,6.632 6.631,6.631 z m -20.53,-39.058 6.632,-6.631 -6.632,-6.631 -6.631,6.631 6.631,6.631 z m -13.8349999,-5.779 -4.693,7.685 c -0.864,1.462 -1.791,3.012 -2.455,4.557 -3.46,8.053 -3.262,17.77 3.11,23.407 4.175,3.693 8.7739999,5.431 13.5209999,4.806 5.308,-0.699 13.265,-2.925 15.767,-8.207 1.609,-3.397 1.462,-7.676 4.558,-7.171 0.934,0.152 2.026,0.677 3.174,0.975 3.078,0.802 7.641,-0.039 9.602,-1.9 1.513,-1.437 4.375,-7.161 4.684,-9.355 0.042,-0.296 0.063,-0.582 0.02,-0.871 -0.059,-0.388 -0.102,-0.59 -0.43,-2.019 l -2.856,-12.432 c 0,0 -1.515,2.518 -2.29,3.998 -0.739,1.411 -0.807,1.879 -0.704,3.176 0.246,3.098 1.468,10.923 1.468,10.923 l -4.894,0.171 c -1.466,0.051 -1.722,0.043 -2.565,-0.079 -2.258,-0.327 -5.304,-2.409 -5.968,-3.426 -1.175,-1.801 -2.528,-5.374 -2.528,-5.374 0,0 -1.507,1.908 -2.431,3.374 -0.919,1.458 -1.394,3.384 -1.19,4.822 0.466,3.278 1.891,9.748 1.456,10.565 -1.421,2.666 -11.574,4.966 -14.94,4.683 -11.9879999,-1.009 -17.1259999,-11.077 -13.6369999,-21.798 0.285,-0.874 0.606,-1.749 0.964,-2.563 l 3.257,-7.947 z"
     style="fill:#000000;stroke:none" />
</svg>
