<?xml version="1.0"?>
<svg xmlns="http://www.w3.org/2000/svg" version="1.1">
  <path
     d="m 58.615945,94.708457 7.3275,-7.3275 -7.3275,-7.32875 -7.32875,7.32875 7.32875,7.3275 z m -26.935863,-54.816179 7.3275,-7.3275 -7.3275,-7.32875 -7.32875,7.32875 7.32875,7.3275 z m 1.165701,-28.254018 -6.10125,6.06125 c -1.01375,1.0075 -1.15875,1.18875 -1.4425,1.80875 -0.3975,0.86875 -0.535,2.32125 -0.33875,2.51875 0.63125,0.6375 2.86625,-0.91 3.64375,-1.48375 6.81125,-5.02375 9.91375,-8.1875 11.015,-14.6912498 0.56,-3.30625 -1.19,-4.58625 -4.28875,-5.00750001 -4.91375,-0.67 -9.79,0.015 -11.7,3.71500001 0.29875,14.1262498 0.7175,6.0474998 4.885,5.045 4.63625,-1.115 9.62125,-3.59375 4.3275,2.0337498 z M 21.622627,92.895409 c 2.351042,0.347498 4.596205,0.464236 6.485726,0.304061 0.297274,-0.02579 0.620338,-0.06108 0.965122,-0.104521 10.309562,-1.320764 18.011532,-6.511517 19.933631,-15.059156 0.268768,-1.194525 0.570114,-2.380905 1.220315,-2.838353 1.48094,-1.042495 6.256324,1.077787 6.685267,1.145657 0.26741,0.04208 1.182307,-0.0068 2.306247,-0.172391 17.201156,-2.534293 13.947433,-22.324038 9.983783,-35.693213 -1.147015,-3.867274 -2.243806,-5.934616 -4.582631,-0.437088 -1.330266,3.127483 -1.672335,7.404696 -1.527092,9.020019 0.20497,2.266882 0.529392,4.214772 1.228461,7.168506 0.837524,3.53878 2.211228,8.523205 2.211228,8.523205 0,0 -2.029335,0.775084 -3.508917,1.043852 -3.470908,0.633913 -10.167034,-2.845141 -12.666034,-5.79616 -0.769654,-0.909467 -1.345198,-2.105349 -1.684551,-3.493984 -0.758795,-3.093548 -0.617624,-7.183438 -2.739263,-5.137814 -1.425285,1.375061 -3.512988,6.835939 -3.815692,9.096034 -0.190038,1.404924 -0.211756,2.857358 0,4.347799 0.390936,2.767768 1.445647,5.98484 2.213943,8.580216 2.193582,7.403339 -5.959049,8.441761 -11.552954,9.043095 C 11.406726,84.733276 0.48496954,70.772268 8.2045855,48.928755 c 0.8117339,-2.29946 1.8487985,-4.237848 3.1519165,-5.283057 0.954262,-0.765582 2.014403,-0.890464 2.869573,-1.745635 0.856529,-0.856528 1.962822,-4.524262 1.672335,-5.545038 C 15.352729,34.442428 13.201228,35.729257 10.204057,35.871786 5.6377148,36.091687 2.6351141,30.938941 3.5364372,26.735029 4.2748707,23.296698 6.8064487,19.099573 8.2195171,15.482063 8.8507148,13.865383 8.6226692,13.678059 7.3222661,13.868097 6.8349544,13.938683 6.6883536,14.0975 5.8603308,15.454915 3.2513802,19.73077 -0.87923198,29.88966 0.16597714,35.084485 0.58949045,37.191192 2.5577414,40.159858 4.28573,40.937656 7.1145817,42.212268 9.847057,41.5865 9.1561331,43.895462 8.8072776,45.056052 7.5503118,46.520702 6.5336083,47.956846 4.587076,50.706968 2.4477909,56.443402 1.3442129,61.543208 -5.3396958,92.44882 21.595478,92.891337 21.622627,92.895409 z"
     style="fill:#000000;stroke:none" />
</svg>
