<?xml version="1.0"?>
<svg xmlns="http://www.w3.org/2000/svg" version="1.1">
  <path
     d="m 21.660274,8.316544 -4.387,4.574 c -0.729,0.76 -0.833,0.897 -1.037,1.365 -0.285,0.655 -0.384,1.751 -0.244,1.9 0.455,0.482 2.061,-0.687 2.62,-1.119 4.898,-3.791 7.128,-6.178 7.92,-11.086 0.403,-2.495 -0.856,-3.46000005 -3.083,-3.77900005 -3.533,-0.505 -7.04,0.012 -8.412,2.80400005 0.214,10.659 0.516,4.564 3.512,3.807 3.333,-0.842 6.918,-2.712 3.111,1.534 z m -0.909,9.879 -5.577,5.996 5.577,5.71 5.577,-5.996 -5.577,-5.71 z m 23.477,41.468 -5.578,5.996 5.578,5.71 5.577,-5.996 -5.577,-5.71 z m -28.299,8.772 c 1.732,0.256 3.386,0.342 4.778,0.224 0.219,-0.019 0.457,-0.045 0.711,-0.077 7.595,-0.973 13.269,-4.797 14.685,-11.094 0.198,-0.88 0.42,-1.754 0.899,-2.091 1.091,-0.768 4.609,0.794 4.925,0.844 0.197,0.031 0.871,-0.005 1.699,-0.127 12.672,-1.867 10.275,-16.446 7.355,-26.295 -0.845,-2.849 -1.653,-4.372 -3.376,-0.322 -0.98,2.304 -1.232,5.455 -1.125,6.645 0.151,1.67 0.39,3.105 0.905,5.281 0.617,2.607 1.629,6.279 1.629,6.279 0,0 -1.495,0.571 -2.585,0.769 -2.557,0.467 -7.49,-2.096 -9.331,-4.27 -0.567,-0.67 -0.991,-1.551 -1.241,-2.574 -0.559,-2.279 -0.455,-5.292 -2.018,-3.785 -1.05,1.013 -2.588,5.036 -2.811,6.701 -0.14,1.035 -0.156,2.105 0,3.203 0.288,2.039 1.065,4.409 1.631,6.321 1.616,5.454 -4.39,6.219 -8.511,6.662 -15.7449995,1.693 -23.79099952,-8.592 -18.1039995,-24.684 0.598,-1.694 1.362,-3.122 2.322,-3.892 0.703,-0.564 1.484,-0.656 2.1139995,-1.286 0.631,-0.631 1.446,-3.333 1.232,-4.085 -0.402,-1.409 -1.9869995,-0.461 -4.1949995,-0.356 -3.364,0.162 -5.576,-3.634 -4.912,-6.731 0.544,-2.533 2.409,-5.625 3.45,-8.29 0.465,-1.191 0.297,-1.329 -0.661,-1.189 -0.359,0.052 -0.467,0.169 -1.077,1.169 -1.922,3.15 -4.96500002,10.634 -4.19500002,14.461 0.312,1.552 1.76200002,3.739 3.03500002,4.312 2.084,0.939 4.097,0.478 3.588,2.179 -0.257,0.855 -1.183,1.934 -1.932,2.992 -1.434,2.026 -3.01,6.252 -3.82300002,10.009 -4.92399998,22.768 14.91899952,23.094 14.93899952,23.097 z"
     style="fill:#000000;stroke:none" />
</svg>
