<?xml version="1.0" encoding="UTF-8" standalone="no"?>
<svg>
  <path
     d="m 95.612272,9.3897949 -0.009,-0.030884 c 0,0 -1.87193,2.9909391 -2.6804,4.9164961 -0.86134,2.052054 -0.51411,2.894427 -0.26639,5.662364 0.15133,1.688494 0.26639,4.092864 0.26639,4.092864 l 3.2992,0.838625 c 0,0 -3.1033,0.587506 -5.877,0.974491 -3.58218,0.500364 -13.81563,-0.450702 -15.32686,-1.424257 -5.32454,-3.431333 -3.32305,-7.016344 -4.72648,-16.0566257 -0.46954,-3.0265529 -1.49464,-4.7806373 -3.05666,-4.0141624 -1.03755,0.5087969 -1.67397,2.070794 -1.8139,4.2287379 -0.37521,5.7701132 2.79651,15.7980112 2.79651,15.7980112 0,0 -6.74871,1.594792 -10.60245,1.597604 -1.55269,7.49e-4 -8.54705,-1.641644 -9.0964,-3.366681 -0.26535,-0.833939 -0.14304,-2.071731 -0.14304,-2.071731 0,0 -3.94185,2.471835 -7.27526,4.076935 -6.35069,3.057466 -24.64818,4.829361 -31.2559298,2.138259 -5.37533,-2.188858 -7.89819,-7.189685 -6.28642,-12.495048 1.14638,-3.776154 4.19268,-9.8433074 4.19268,-9.8433074 0,0 -4.12116,4.6897473 -5.99931,8.0948454 -2.50835998,4.546377 -2.48866998,14.611755 1.14534,18.386979 5.93194,6.162721 19.1173598,5.210718 28.2189498,3.884847 3.10642,-0.452576 6.1807,-1.089743 8.52218,-2.330346 0.94529,-0.501301 1.77035,-1.100051 2.55499,-1.608847 l 2.82449,-1.834668 3.35829,1.80562 c 1.91132,1.026964 3.9719,2.473709 6.08741,2.932844 1.24796,0.269859 10.62629,-1.022279 12.8268,-2.943151 0.79501,-0.693388 1.02926,-1.631336 1.48739,-1.851533 0.93286,-0.449766 2.79547,2.082038 5.23851,3.499735 3.55626,2.063298 18.37627,1.490784 20.98931,-0.964184 0.94426,-0.886412 1.63768,-2.321913 2.28135,-3.851122 0.98054,-2.330346 1.12151,-5.085158 0.95359,-7.465166 -0.20004,-2.831654 -0.99712,-5.082354 -2.62755,-10.7775067 z m -8.98239,13.1828141 0.98883,-0.01312 0.0954,-1.242476 0.33893,-4.422699 c 0,0 -5.72981,-3.581255 -5.72981,-3.581255 0,0 0.15547,-1.582612 0.29851,-3.036853 0.0673,-0.6896398 -0.45399,-6.490682 -1.48324,-7.3227477 C 80.328992,2.2975507 77.488942,0 77.488942,0 l -0.23425,1.547942 -0.44984,2.9834426 1.11217,0.9922945 c 1.19821,1.0691295 2.15698,2.4156145 2.45343,3.5990667 0.73799,2.9497102 -2.52806,9.5518962 -1.19821,11.7445022 0.15962,0.264237 0.37833,0.480686 0.62605,0.672774 1.18266,0.914522 4.50156,1.064444 6.83163,1.032586 z m -23.43236,41.81414 c -0.43326,2.449346 0.0943,3.04997 1.89474,2.298488 1.22723,-0.511608 17.05161,-8.834146 19.36406,-11.325658 0.93078,-1.003539 1.85846,-2.779175 2.18703,-4.375841 0.20108,-0.983862 -0.12542,-0.949192 -1.29667,-0.555648 -2.71565,0.912649 -20.62031,10.766263 -21.18106,11.656423 -0.52447,0.831129 -0.8603,1.694116 -0.9681,2.302236 z m 10.58483,-15.34075 6.99644,-6.324831 -6.99644,-6.32483 -6.99644,6.32483 6.99644,6.324831 z M 52.524592,12.649656 59.521032,6.3248244 52.524592,9.9999998e-7 45.528162,6.3248244 52.524592,12.649656 z M 24.142912,8.2550672 29.004132,12.649656 36.000572,6.3248244 29.004132,9.9999998e-7 24.142912,4.394582 19.280642,9.9999998e-7 12.284212,6.3248244 l 6.99643,6.3248316 4.86227,-4.3945888 z"
     style="fill:#000000;stroke:none" />
</svg>
