<?xml version="1.0" encoding="UTF-8" standalone="yes"?>
<svg xmlns="http://www.w3.org/2000/svg" xmlns:xlink="http://www.w3.org/1999/xlink"
  width="595.276pt" height="841.89pt" viewBox="0 0 595.276 841.89">
<path
	style="stroke:none; fill:#000000"
	d="m 12.848209,74.487541 c -0.26,1.816 0.056,2.261 1.132,1.704 0.733,-0.379 10.187,-6.546 11.568,-8.393 0.556,-0.744 1.111,-2.059 1.307,-3.243 0.12,-0.729 -0.075,-0.703 -0.775,-0.411 -1.622,0.676 -12.319,7.978 -12.654,8.638 -0.313,0.616 -0.514,1.255 -0.578,1.705 z m 38.526,0 c -0.259,1.816 0.056,2.261 1.133,1.704 0.732,-0.379 10.187,-6.546 11.568,-8.393 0.556,-0.744 1.111,-2.059 1.307,-3.243 0.12,-0.729 -0.075,-0.703 -0.775,-0.411 -1.623,0.676 -12.319,7.978 -12.655,8.638 -0.313,0.616 -0.513,1.255 -0.578,1.705 z m -17.428,-2.218 c 0.145,2.241 1.077,3.634 2.773,4.036 2.188,0.519 3.425,-0.811 3.986,-3.502 0.123,-0.591 0.095,-1.083 -0.244,-1.32 -0.644,-0.452 -2.414,0.017 -3.27,-0.493 -1.065,-0.634 -1.335,-3.329 -1.072,-4.589 0.263,-1.262 0.935,-2.612 1.118,-3.585 0.037,-0.196 0.054,-0.378 -0.022,-0.479 -0.01,-0.013 -0.019,-0.025 -0.029,-0.036 -2.575,-0.658 -3.201,10.573 -3.24,9.968 z m 22.894,-66.6710005 0,1.709 c 0,0 1.099,0.132 1.858,0 1.459,-0.253 1.689,-1.713 3.279,-2.195 1.124,-0.34 2.992,-0.205 2.992,-0.205 0,0 -6.527,7.0680005 -7.73,9.4600005 -0.228,0.453 -0.258,1.45 0.384,1.82 1.058,0.609 4.198,-3.394 4.568,-3.84 1.752,-2.112 2.592,-3.1160005 3.242,-4.3810005 2.349,-4.569 1.446,-10.148 -4.707,-7.09199997 -1.332,0.66199997 -2.856,1.49899997 -3.137,1.87299997 -0.257,0.343 -0.431,0.842 -0.559,1.304 -0.171,0.624 -0.19,0.778 -0.19,1.547 z m -13.239,10.4580005 -0.404,-8.6510005 c -0.06,-1.283 -0.083,-1.506 -0.236,-2.233 -0.468,-2.229 -1.726,-3.449 -3.041,-4.23699997 -1.673,-1.002 -2.95,-1.374 -4.674,0.036 -1.418,1.15999997 -1.551,5.35999997 -0.994,6.01599997 0.416,0.49 1.517,0.446 2.851,0.095 3.331,-0.877 3.664,-0.675 4.532,3.2750005 0.412,1.876 0.461,3.635 0.258,5.523 -0.43,4.008 -1.442,5.958 0.54,8.311 0.826,0.98 1.688,1.128 3.57,0.693 1.338,-0.309 1.603,-1.006 2.164,-3.082 0.395,-1.463 0.707,-2.772 0.606,-4.23 -0.201,-2.892 -2.99,-8.3280005 0.371,-9.6790005 0.621,-0.249 1.427,-0.086 2.122,0.084 0.938,0.229 1.097,0.125 1.591,-1.038 0.406,-0.957 0.876,-1.837 1.134,-2.867 0.97,-3.86399997 -0.515,-4.95499997 -3.495,-3.37199997 -3.417,1.81599997 -4.953,9.59600047 -4.222,14.81200047 0.223,2.15 0.468,4.086 0.468,4.086 0,0 -0.204,-0.003 -0.447,-0.03 -0.957,-0.105 -2.601,-1.529 -2.694,-3.512 z m -23.776,13.67 3.528,3.956 4.326,-4.851 -4.326,-4.851 -3.528,3.956 -3.528,-3.956 -4.326,4.851 4.326,4.851 3.528,-3.956 z m 34.186,28.134 -4.325,4.851 4.325,4.851 4.326,-4.851 -4.326,-4.851 z m -16.848,-33.88 -4.326,4.851 4.326,4.851 4.326,-4.851 -4.326,-4.851 z m -4.002,20.85 c 0,0 -0.786,1.186 -1.405,2.027 -1.911,2.601 -5.152,4.31 -8.681,5.181 -9.095,2.243 -18.5709998,0.472 -16.6029998,-12.511 0.234,-1.539 0.457,-2.99 0.457,-2.99 0,0 -0.335,-0.04 -0.514,0 -0.155,0.035 -0.193,0.131 -0.23501,0.24 -3.70799,9.548 -4.51299,19.708 4.3869998,21.72 6.159,1.392 13.991,0.565 18.62101,-4.32 0.899,-0.948 1.942,-2.203 1.942,-2.203 0,0 0.70599,1.27 1.217,2.073 1.399,2.201 3.116,1.993 6.19,1.69 1.22,-0.12 3.474,-1.068 4.563,-1.92 1.208,-0.944 2.727,-2.372 2.727,-2.372 0,0 0.838,1.282 1.34,2.012 0.962,1.399 2.45299,1.711 4.559,2.04 2.188,0.342 3.808,0.229 5.108,-0.336 7.728,-3.358 6.075,-12.771 4.744,-19.019 -0.476,-2.238 -0.921,-2.582 -3.06,0.556 -0.37,0.542 -0.714,1.073 -0.971,1.519 -1.067,1.852 -0.589,2.348 0.642,4.56 0.895,1.607 1.386,4.246 0.37,5.737 -0.898,1.317 -3.768,0.75 -6.042,0.383 -3.176,-0.512 -4.001,-3.079 -4.387,-7.08 -0.125,-1.292 -0.12,-8.808 -1.491,-9.968 -0.835,-0.707 -1.478,1.103 -2.056,2.577 -0.435,1.11 -0.857,2.158 -0.841,3.191 0.016,1.039 0.475,2.062 0.749,3.24 0.09,0.387 0.811,5.524 0.535,6.322 -0.37,1.073 -3.794,2.15 -5.059,2.318 -2.351,0.311 -4.287,0.039 -5.428,-1.92 -0.612,-1.051 -1.378,-2.747 -1.378,-2.747 z m -26.2389998,-29.246 c 0.478,-1.206 0.697,-2.466 0.435,-2.777 -0.248,-0.294 -0.805,-0.241 -1.541,0 -2.171,0.71 -2.944,1.599 -3.493,-0.919 -0.48,-2.2060005 0.267,-5.1350005 1.463,-6.9580005 0.208,-0.317 3.279,-4.00899997 2.501,-4.84299997 -0.311,-0.332 -1.079,0.347 -1.606,0.95999997 -1.538,1.792 -3.032,4.508 -3.884,7.291 -1.587,5.1870005 -1.058,8.6490005 3.915,9.4170005 1.23,0.19 1.371,-0.053 2.21,-2.171 z m 8.0109898,-9.9860005 0,1.709 c 0,0 1.099,0.132 1.858,0 1.459,-0.253 1.68901,-1.713 3.279,-2.195 1.12401,-0.34 2.992,-0.205 2.992,-0.205 0,0 -6.52699,7.0680005 -7.73,9.4600005 -0.229,0.453 -0.258,1.45 0.384,1.82 1.058,0.609 4.198,-3.394 4.568,-3.84 1.752,-2.112 2.59201,-3.1160005 3.242,-4.3810005 2.349,-4.569 1.446,-10.148 -4.70699,-7.09199997 -1.332,0.66199997 -2.856,1.49899997 -3.137,1.87299997 -0.25701,0.343 -0.43201,0.842 -0.55901,1.304 -0.171,0.624 -0.19,0.778 -0.19,1.547 z"/>
</svg>