<?xml version="1.0"?>
<svg xmlns="http://www.w3.org/2000/svg" version="1.1">
  <path
     d="m 34.177873,42.022297 5.0925,5.09125 7.3275,-7.3275 -7.3275,-7.32875 -5.0925,5.0925 -5.09125,-5.0925 -7.32875,7.32875 7.32875,7.3275 5.09125,-5.09125 z m -4.78375,-29.5275 c 0.20375,2.80125 1.51,4.5425 3.8875,5.045 3.06625,0.64875 4.8,-1.01375 5.58625,-4.3775 0.1725,-0.73875 0.13375,-1.35375 -0.34125,-1.65 -0.90375,-0.565 -3.385,0.02125 -4.58375,-0.61625 -1.4925,-0.7925 -1.8725,-4.1612499 -1.5025,-5.7362499 0.36875,-1.5775 1.31125,-3.26625 1.5675,-4.48124997 0.0513,-0.24625 0.075,-0.4725 -0.0312,-0.59875 -0.0137,-0.01625 -0.0275,-0.03125 -0.0412,-0.045 -3.60875,-0.8225 -4.48625,13.21624987 -4.54125,12.45999987 z m 39.08125,34.61875 7.3275,-7.3275 -7.3275,-7.32875 -7.32875,7.32875 7.32875,7.3275 z m -4.78375,60.227503 c 0.2025,2.80125 1.51,4.5425 3.88625,5.045 3.0675,0.64875 4.80125,-1.01375 5.5875,-4.37875 0.1725,-0.7375 0.13375,-1.3525 -0.3425,-1.64875 -0.9025,-0.565 -3.38375,0.0213 -4.58375,-0.61625 -1.49125,-0.7925 -1.87125,-4.16125 -1.50125,-5.7375 0.36875,-1.576253 1.31,-3.265003 1.5675,-4.480003 0.0512,-0.24625 0.075,-0.4725 -0.0312,-0.59875 -0.0138,-0.01625 -0.0275,-0.03125 -0.0413,-0.045 -3.60875,-0.8225 -4.48625,13.216253 -4.54125,12.460003 z m -41.74625,2.16875 c -0.45375,2.8375 0.0987,3.53375 1.985,2.66375 1.285,-0.59375 17.86,-10.23625 20.28125,-13.122503 0.975,-1.1625 1.9475,-3.22 2.29,-5.07 0.21125,-1.14 -0.13,-1.1 -1.3575,-0.64375 -2.845,1.0575 -21.5975,12.473753 -22.185,13.505003 -0.54875,0.96375 -0.90125,1.9625 -1.01375,2.6675 z m 40.0075,-102.8200029 0,1.805 1.93625,0 c 0.87125,0 1.04,-0.03375 1.68625,-0.3425 0.89875,-0.42875 2.19125,-1.73125 2.82,-2.34 0.16875,-0.1625 0.34,-0.32875 0.545,-0.44375 0.2775,-0.15625 0.395,-0.17375 1.175,-0.17375 l 1.7375,0 c 0,0 0.12375,1.02875 0,1.9025 -0.125,0.87375 -2.2175,3.4149999 -3.9525,4.7962499 -2.215,1.765 -3.795,3.43875 -2.9475,4.80375 0.2275,0.36625 0.8125,0.89 1.44,0.8175 0.16125,-0.0175 0.27875,-0.1125 1.16625,-0.94375 3.11375,-2.91125 8.37875,-9.5799999 7.29375,-14.2799999 -0.455,-1.97249997 -3.25625,-2.54124997 -5.30375,-2.19624997 -1.585,0.2675 -4.84625,2.06624997 -6.335,3.23249997 -0.585,0.4575 -0.93,0.9 -1.13,1.84125 -0.11875,0.55875 -0.13125,0.71 -0.13125,1.52125 z M 101.97537,109.5098 c -0.455,2.8375 0.0975,3.53375 1.985,2.66375 1.285,-0.59375 17.86,-10.23625 20.28,-13.122503 0.97625,-1.1625 1.9475,-3.22 2.29125,-5.07 0.21125,-1.14 -0.13125,-1.1 -1.3575,-0.64375 -2.845,1.0575 -21.5975,12.473753 -22.185,13.505003 -0.54875,0.96375 -0.90125,1.9625 -1.01375,2.6675 z m 6.8675,-14.805003 7.32875,-7.3275 -7.32875,-7.32875 -7.3275,7.32875 7.3275,7.3275 z m -5.235,-74.63375 -0.56625,-10.8137499 c -0.0837,-1.605 -0.1175,-1.88375 -0.33125,-2.7925 -0.655,-2.785 -2.41875,-4.31125 -4.262497,-5.29625 -2.345,-1.25124997 -4.135,-1.71749997 -6.55125,0.04625 -1.9875,1.45 -2.17375,6.69875 -1.3925,7.52 0.5825,0.6125 2.12625,0.5575 3.995,0.1175 4.66875,-1.09625 5.1375,-0.84375 6.352497,4.0937499 0.57875,2.34625 0.64625,4.54375 0.3625,6.90375 -0.60375,5.01125 -2.022497,7.44875 0.7575,10.39 1.15625,1.22375 2.365,1.40875 5.00375,0.86625 1.875,-0.38625 2.24625,-1.2575 3.0325,-3.85375 0.5525,-1.8275 0.99125,-3.46375 0.84875,-5.28625 -0.28125,-3.615 -4.19,-10.41125 0.52125,-12.0987499 0.87,-0.31125 2,-0.10875 2.97375,0.10375 1.31375,0.2862499 1.5375,0.1574999 2.23,-1.2975 0.56875,-1.195 1.2275,-2.29625 1.59,-3.5825 1.35875,-4.83124997 -0.7225,-6.19375 -4.89875,-4.21499997 -4.79,2.26874997 -6.9425,11.99499987 -5.91875,18.51499987 0.31375,2.6875 0.65625,5.1075 0.65625,5.1075 0,0 -0.28625,-0.0038 -0.6275,-0.0375 -1.34,-0.1325 -3.645,-1.9125 -3.775,-4.39 z m -96.2699967,26.5775 c 0.1775,-0.5375 0.3375,-1.0575 0.4525,-1.58875 0.10125,-0.47 0.16625,-0.95 0,-1.105 -0.38,-0.355 -1.75125,0.76 -2.105,1.16125 -0.16375,0.18625 -0.3275,0.40375 -0.49,0.6475 -8.74875,13.20875 -5.48749997,24.76375 2.67,31.04375 10.4224997,8.025 41.6999997,5.225 51.1662497,-3.885 1.2825,-1.23375 2.28875,-2.47125 2.9975,-1.705 0.29125,0.315 0.48875,0.97625 0.68,1.71125 1.74,6.66875 8.6975,6.93875 14.72,5.1425 4.765,-1.42 8.3375,-3.00875 9.65875,-8.32625 0.45125,-1.81875 0.8925,-2.8875 2.22875,-0.7375 0.16125,0.25875 0.305,0.54 0.44125,0.82625 3.09,6.42875 20.529997,9.9475 25.929997,6.05125 4.775,-3.445 8.81125,-14.7075 7.06125,-19.43125 -1.045,-2.8225 -2.59375,-5.67375 -3.6475,-7.1575 -1.585,-2.22875 -2.80625,-0.73875 -4.08625,2.12875 -0.87125,1.9525 -1.45125,5.3825 -0.77125,7.56 1.37375,4.76 5.79125,7.3825 1.45625,8.23375 -5.18375,1.01625 -15.923747,-0.74875 -20.154997,-4.605 -4.5475,-4.14625 -2.8525,-10.3475 -5.015,-18.1725 -0.4,-1.45 -1.395,-3.23875 -2.1925,-5.01625 -0.96625,-2.15625 -1.3925,-3.275 -3.27625,-1.9175 -1.92375,1.385 -1.92375,7.9875 -1.505,9.5875 0.0975,0.37375 0.22125,0.75 0.3625,1.13 2.72125,7.33625 6.545,15.68375 -1.21625,19.15125 -4.06375,1.815 -15.52125,2.475 -16.96,-4.56625 -0.0363,-0.17875 -0.065,-0.3625 -0.085,-0.5525 -0.1275,-1.215 0,-2.82875 0,-2.82875 0,0 -0.805,-0.115 -1.4775,0 -0.595,0.10125 -2.7475,2.55375 -3.96875,4.0525 -4.76,5.8425 -21.0225,7.74625 -25.0525,8.105 -2.07,0.18375 -4.03125,0.3325 -5.91,0.4075 -18.20125,0.72125 -28.1924997,-6.36125 -21.9112497,-25.345 z"
     style="fill:#ff0000;stroke:none" />
</svg>
