<?xml version="1.0" encoding="UTF-8" standalone="yes"?>
<svg xmlns="http://www.w3.org/2000/svg" xmlns:xlink="http://www.w3.org/1999/xlink"
  width="595.276pt" height="841.89pt" viewBox="0 0 595.276 841.89">
  <path
    style="stroke:none; fill:#000000"
    d="m 51.29528,26.115307 c -0.155,-0.23625 -0.3275,-0.54749 -0.54625,-0.95999 -3.75,-7.05625 -11.45249,-16.4512499 -18.01874,-10.9925 -3.81875,3.17375 -7.6075,16.60499 -4.3125,20.63624 1.85,2.2625 5.2375,2.9875 8.77875,2.875 4.1025,-0.13125 10.39749,-1.0775 10.39749,-1.0775 0,0 1.32,4.13875 1.1525,6.4575 -0.0675,0.9475 -1.99625,2.90875 -3.69625,3.7575 -4.87374,2.435 -11.51124,7.77875 -18.47999,11.70499 -4.7475,2.67375 -16.44374,7.1475 -24.77249,10.465 -1.54500001,0.61625 -1.72250001,0.73375 -1.77375001,1.1775 -0.0375,0.32875 -0.04,0.68375 0.0575,0.98625 0.19125,0.5975 17.33624001,-1.31625 19.73124001,-2.20375 7.99375,-2.96125 25.53624,-12.565 29.55249,-18.33374 1.34,-1.92375 5.235,-9.5975 5.01125,-13.71125 -0.0763,-1.425 0.0925,-1.63375 1.69875,-2.075 1.19125,-0.3275 2.4525,-0.65125 3.67375,-1.01625 4.17625,-1.2475 14.22375,-6.89 14.38625,-7.10125 0.16625,-0.21625 0.31,-0.445 0.425,-0.68625 0.51249,-1.06624 0.65624,-2.49999 1.23249,-3.69624 0.745,-1.54375 2.2125,-2.69125 2.7725,-4.1025 1.24875,-3.1525 -3.1075,-14.6087499 -5.23624,-17.45874988 -0.75375,-1.00875 -1.7275,-1.01875 -2.465,0 -1.8175,2.51374998 -3.29375,7.12624998 -2.77125,9.11749998 0.5425,2.0712499 5.0725,7.0699999 4.62375,9.5149999 0,0 0,0 0,0 -3.35625,4.00625 -19.6175,8.26124 -20.49875,8.16749 -0.54375,-0.0562 -0.3825,-0.625 -0.9225,-1.445 z m -9.94124,1.9075 -2.9575,0 c -1.33,0 -1.6,-0.0175 -2.7025,-0.17125 -2.0675,-0.29 -5.6125,-2.27749 -4.81125,-4.38749 1.11,-2.92375 5.13125,-1.425 6.77625,-0.6775 1.5625,0.71125 3.5825,2.765 3.695,3.75749 0.0775,0.675 0,1.47875 0,1.47875 z m 26.31749,30.80124 7.52375,-7.52374 -7.52375,-7.525 -7.525,7.525 7.525,7.52374 z"/>
</svg>