<?xml version="1.0"?>
<svg xmlns="http://www.w3.org/2000/svg" version="1.1">
  <path
     d="M 83.530338,20.070377 82.964088,9.2566268 c -0.085,-1.60375 -0.1175,-1.8825 -0.33125,-2.79125 -0.65625,-2.78625 -2.42,-4.31125 -4.26375,-5.29625 -2.345,-1.25249901 -4.13375,-1.71749901 -6.55125,0.045 -1.98625,1.45 -2.17375,6.7 -1.3925,7.52 0.5825,0.6125 2.12625,0.5575 3.99625,0.11875 4.66875,-1.09625 5.13625,-0.84375 6.3525,4.0937502 0.5775,2.34625 0.645,4.54375 0.36125,6.90375 -0.60375,5.01 -2.02125,7.4475 0.7575,10.38875 1.15625,1.225 2.365,1.41 5.00375,0.86625 1.875,-0.38625 2.24625,-1.25625 3.0325,-3.8525 0.55375,-1.8275 0.99125,-3.465 0.85,-5.2875 -0.28125,-3.615 -4.19125,-10.41 0.52,-12.0975002 0.869995,-0.3125 1.999995,-0.10875 2.974995,0.10375 1.31375,0.2862502 1.53625,0.1562502 2.22875,-1.2975 0.56875,-1.19625 1.2275,-2.29625 1.59,-3.58375 1.35875,-4.82999901 -0.7225,-6.19375 -4.89875,-4.21499901 C 88.404088,3.1453768 86.252838,12.870377 87.275338,19.390377 c 0.31375,2.6875 0.6575,5.1075 0.6575,5.1075 0,0 -0.28625,-0.0038 -0.6275,-0.03625 -1.34125,-0.1325 -3.645,-1.9125 -3.775,-4.39125 z m 28.302502,13.05125 c 3.22,2.83 7.9025,4.3025 9.74625,1.54 1.1975,-1.7925 3.14625,-5.53 3.14625,-5.53 0,0 -1.98125,-2.9925 -3.63375,-4.27875 -1.11125,-0.86375 -3.23,-1.225 -4.48375,-0.545 -1.10625,0.60125 -2.3975,2.33875 -3.0975,1.6275 -0.85125,-0.8625 1.92125,-6.51875 2.09375,-7.00375 2.12,-5.935 2.0075,-9.6437502 0.37875,-14.5737502 -0.5,-1.51625 -1.05375,-3.0575 -1.82875,-3.65999901 L 113.25784,3.7779219e-4 112.31909,1.0016268 c -1.4625,1.56125 -1.1825,5.65 -0.705,7.3275 0.4475,1.57125 1.23125,3.1300002 1.6725,4.8162502 0.525,2.005 0.27,6.68875 -0.48,8.8 -1.0325,2.90875 -2.9375,5.575 -2.51875,8.75125 0.14375,1.0875 0.2975,1.33 1.545,2.425 z m -40.681252,0.455 c 0.26375,-0.2525 0.64375,-0.445 1.13,-0.56375 1.5825,-0.38375 4.30625,0 4.30625,0 0,0 0.93125,-3.69625 0.58625,-5.4775 -0.385,-1.98875 -3.945,-2.1325 -5.865,-0.68125 -2.45625,1.8575 -3.755,9.9275 -2.93375,12.42375 0.2275,0.69125 0.5775,1.3175 1.04,1.81875 0.16875,0.18375 0.3525,0.34875 0.54375,0.52125 l 1.34875,1.2125 0.7225,1.9625 c 0.3,0.81625 0.4925,1.51875 0.4925,1.51875 0,0 5.4875,-3.465 7.29125,-5.6725 0.79875,-0.9775 0.875,-1.70875 1.1725,-2.93375 0.54,-2.21625 1.35125,-4.29875 0.88,-4.6925 -0.39,-0.32625 -1.5225,-0.1725 -2.415,0.3275 -1.31875,0.73875 -2.11625,2.23625 -4.225,2.60625 -0.5875,0.1025 -1.27625,0.11875 -1.875,0.1025 -4.605,-0.71 -0.985,-3.63625 -2.2,-2.4725 z m 46.678752,33.63125 4.23625,4.235 7.14125,-7.14125 -7.14125,-7.1425 -4.23625,4.235 -4.235,-4.235 -7.1425,7.1425 7.1425,7.14125 4.235,-4.235 z m 0,3.29375 -7.14125,7.1425 7.14125,7.1425 7.1425,-7.1425 -7.1425,-7.1425 z m -17.55625,25.5875 4.235,4.236253 7.1425,-7.142503 -7.1425,-7.14125 -4.235,4.235 -4.236257,-4.235 -7.141245,7.14125 7.141245,7.142503 4.236257,-4.236253 z m -49.457502,-2.38 c 0.16,-0.01625 0.32,-0.0325 0.48,-0.05 16.49125,-1.74125 27.99625,-4.79375 40.768745,-12.5525 2.5125,-1.52625 4.6275,-2.93375 4.9575,-3.415 1.4175,-2.065 3.465007,-7.23125 4.785007,-10.62 1.69,-4.33875 0.65125,-7.30125 -4.550007,-8.87375 -2.37625,-0.7175 -6.023745,-1.385 -6.023745,-1.385 0,0 3.988745,-1.02625 7.112495,-1.81375 11.426257,-2.88 14.313757,-2.68625 26.438757,-1.32125 1.685,0.19 1.89625,0.05125 2.11375,-1.3825 0.16125,-1.065 0.48375,-2.05625 1.0275,-3.04375 1.47,-2.6675 2.995,-3.7525 2.5525,-4.6725 -0.5625,-1.17 -13.3025,-1.20625 -17.12125,-2.93625 -1.61,-0.72875 -2.47,-1.8525 -3.6275,-3.26625 -4.7325,-5.775 -7.05875,-8.1625 -13.215007,-8.73375 -3.51,-0.325 -4.17,-0.2025 -5.386245,1.54 -1.19375,1.7075 -3.0075,5.88125 -3.05375,7.70125 -0.03,1.1925 0.1325,2.50625 0.1325,2.50625 0,0 4.761245,-0.77 7.111245,-1.00125 1.6125,-0.15875 2.09,-0.06375 3.55875,0.75625 1.821257,1.01625 5.166257,3.14625 5.166257,3.14625 0,0 -8.426257,2.265 -13.282502,3.8775 -4.7425,1.575 -10.03625,3.88625 -11.21625,7.815 -0.43875,1.46375 -1.315,6.98 -0.83125,8.1125 1.4375,3.36875 5.84,2.5975 8.80125,2.4675 2.24625,-0.09875 7.003745,1.06125 7.766245,1.8925 1.8675,2.03875 -4.642495,5.06875 -8.747495,6.9575 -9.00375,4.14125 -23.84375,8.19375 -37.70875,9.13125 -15.3875,1.04 -30.7075,-4.37 -42.24125,-9.19625 -3.8075,-1.59375 -5.64374978,-2.3625 -5.64374978,-2.3625 l -0.93999999831,0.04875 c 0,0 -0.0100000017,0.88 0.0787499983,1.505 0.14875,1.0475 0.5775,1.37625 1.28374998,2 0.3974998,0.35 0.8837498,0.79375 1.4149998,1.2875 1.72875,1.60625 3.39,3.05375 4.98625,4.3575 10.54,8.615 27.1875,13.13125 43.0525,11.52375 z"
     style="fill:#000000;stroke:none" />
</svg>
