<?xml version="1.0" encoding="UTF-8" standalone="no"?>
<svg>
  <path
     style="fill:#000000;stroke:none"
     d="m 22.045299,56.418139 -0.748741,5.189937 c 0,0 1.016238,0.111249 1.766229,-0.03 1.052487,-0.198748 1.877477,-1.431233 2.699967,-2.406221 1.069987,-1.267485 2.747467,-2.214974 4.321198,-2.892465 2.48622,-1.069988 5.05869,-1.869978 5.973679,-2.932465 0.81249,-0.946239 1.63373,-5.01494 2.067475,-8.041154 0.281246,-1.959976 0.317496,-2.799966 -1.362484,-2.184973 -1.327484,0.486244 -2.801216,1.734979 -4.332448,2.283722 -1.561231,0.559993 -5.01494,0.353746 -7.009916,-0.701241 -1.004988,-0.532494 -1.117486,-0.636243 -1.124986,-1.032488 l -0.015,-0.883739 2.729967,0.321246 c 1.227486,0.143748 1.402483,-0.0012 1.756229,-1.452483 0.512494,-2.101225 1.296235,-4.401197 2.011226,-6.158676 0.045,-0.111249 0.09,-0.219997 0.134998,-0.331246 l 0.911239,-2.253722 -1.984976,-0.286246 c -1.907477,-0.274997 -6.283674,2.647468 -6.291174,2.653718 -3.734955,2.572469 -4.456197,5.601182 -5.266187,11.697359 -0.331246,2.48122 0.214998,3.457459 2.296223,6.154926 0.328746,0.426245 0.652492,0.83999 1.073737,1.163736 0.566243,0.434995 0.606242,0.647493 0.393745,2.122475 z m 43.333138,36.802459 5.7175,5.72125 7.38125,-7.38625 -7.38,-7.385 -5.71875,5.7225 -5.71875,-5.7225 -7.38125,7.38625 7.38125,7.385 5.71875,-5.72125 z m 30.73625,-3.3275 -5.71875,-5.7225 -7.38,7.38625 7.38,7.385 5.7175,-5.72125 5.718753,5.72125 7.38125,-7.38625 -7.38125,-7.385 -5.717503,5.7225 z m -0.001,22.607502 7.387503,-7.3875 -7.386253,-7.385002 -7.38625,7.386252 7.385,7.38625 z m 12.871253,-32.361252 4.095,1.4875 0.775,-3.2225 c 0.0787,-0.32875 0.1875,-0.68875 0.3425,-1.08125 1.07125,-2.71375 4.3775,-7.00375 4.3775,-7.00375 0,0 -3.6125,-0.79 -6.14375,-1.53625 -0.9475,-0.27875 -4.15875,-1.63125 -6.555,-3.21 -1.85375,-1.22125 -6.615003,-7.84125 -6.783753,-8.02875 -1.08625,-1.20375 -1.95375,-2.85875 -3.15,-4.07125 -2.37875,-2.4125 -9.7725,-5.01875 -13.155,-3.8275 -1.26625,0.445 -2.155,1.38625 -3.03875,2.94375 -1.79375,3.16125 -3.56125,8.86125 -3.56125,8.86125 0,0 10.59125,1.39125 13.86625,2.6225 0.76375,0.28625 1.13,0.565 2.06125,1.47125 0.7175,0.7 1.77125,1.7725 1.77125,1.7725 0,0 -5.85875,2.4025 -9.015,2.93875 -2.09375,0.35625 -6.47125,-0.25375 -8.36125,-1.4725 -2.3425,-1.5075 -3.5625,-3.97 -4.9475,-3.23875 -1.08125,0.5725 -1.98625,3.10875 -3.2975,4.4175 -3.205,3.2 -12.1525,1.47125 -15.01625,-2.65 -2.4375,-3.5075 -0.365,-8.9875 -0.295,-16.13625 0.04,-3.9275 -0.8425,-7.00875 -1.47125,-11.54125 -1.49375,-10.75375 -1.56,-33.6937501 -1.56,-33.6937501 0,0 -2.82375,3.74875 -4.62375,6.6050001 -3.29125,5.2225 -2.61125,5.87 -1.5025,8.18375 0.745,1.5525 3.75125,32.1625 3.8575,39.28 0.0788,5.19375 0.40625,11.1725 -0.71125,12.50125 -1.815,2.1575 -21.29625,4.8575 -26.58875,4.2225 -7.255,-0.87 -11.9699997,-4.14625 -14.2162497,-10.6 -1.97125,-5.6675 -0.8525,-7.33625 0.88375,-14.1325 0.30375,-1.18875 0.15,-1.3025 -0.62875,-1.21375 -0.2825,0.0325 -0.3825,0.19875 -1.01125,1.66 -4.70875001,10.965 -8.56125,20.04125 -1.51,28.345 5.5,6.4775 12.2099997,7.78625 20.2274997,7.13 3.7525,-0.30625 16.7175,-1.68125 20.0225,-5.005 1.51375,-1.5225 3.46125,-4.51875 3.46125,-4.51875 0,0 1.81,1.38125 3.1375,2.26625 1.90375,1.26875 6.865,3.02125 9.30125,2.5475 1.025,-0.2 4.075,-2.02625 5.965,-3.33375 l 2.3475,-1.62625 2.71125,1.45875 c 3.00875,1.62 7.53,2.125 9.59875,1.73375 2.41,-0.455 4.99125,-1.8225 7.64375,-2.65 1.26625,-0.395 3.19625,-0.8075 5.0725,-0.945 6.781253,-0.4975 22.078753,4.48125 15.625003,2.29 z M 96.938687,27.200598 c -0.61625,-3.205 1.86375,-10.09625 1.7675,-14.7225 -0.0575,-2.7162501 -1.9675,-7.7975001 -3.8275,-10.6000001 -1.02875,-1.54749997 -2.5975,-2.66624997 -3.53375,-1.17749997 -0.67,1.06499997 -1.165,4.79124997 -0.88375,5.49999997 0.38,0.95625 1.72875,1.7075 2.65,2.745 2.5,2.8125001 3.27125,10.4712501 2.65,13.5562501 -1.1,5.46 -4.18875,9.89625 -0.58875,12.64875 1.24875,0.95375 6.046253,2.93375 7.267503,2.06125 0.76,-0.54375 1.75125,-4.51625 1.56625,-5.595 -0.15125,-0.8775 -1.5525,-3.57375 -2.35625,-3.8275 -1.42375,-0.44875 -4.513753,0.4375 -4.711253,-0.58875 z m -26.58375,18.37125 -6.02375,5.985 c -1.00125,0.99375 -1.14375,1.1725 -1.42375,1.785 -0.3925,0.8575 -0.5275,2.29125 -0.335,2.48625 0.62375,0.63 2.83,-0.89875 3.5975,-1.465 6.725,-4.95875 9.78875,-8.0825 10.87625,-14.505 0.5525,-3.26375 -1.17625,-4.5275 -4.235,-4.94375 -4.85125,-0.66 -9.66625,0.015 -11.55125,3.66875 0.295,13.94625 0.70875,5.97125 4.8225,4.98125 4.5775,-1.1025 9.5,-3.54875 4.2725,2.0075 z m -0.87,-25.75625 -0.55875,-10.6762501 c -0.0838,-1.58375 -0.11625,-1.85875 -0.3275,-2.75625 -0.64625,-2.75 -2.3875,-4.25625 -4.20875,-5.22875 -2.315,-1.23624997 -4.08125,-1.69624997 -6.4675,0.045 -1.96125,1.43125 -2.14625,6.61375 -1.375,7.42375 0.575,0.605 2.1,0.55125 3.945,0.1175 4.60875,-1.0825 5.07125,-0.8325 6.27125,4.0412501 0.57125,2.31625 0.6375,4.48625 0.3575,6.81625 -0.59625,4.9475 -1.99625,7.35375 0.7475,10.2575 1.1425,1.20875 2.335,1.39125 4.94,0.855 1.85125,-0.38125 2.21875,-1.24125 2.995,-3.80375 0.54625,-1.805 0.9775,-3.42125 0.8375,-5.22 -0.2775,-3.56875 -4.13625,-10.27875 0.515,-11.9450001 0.85875,-0.3075 1.97375,-0.10625 2.93625,0.1025 1.2975,0.2837501 1.5175,0.155 2.20125,-1.28125 0.56125,-1.18 1.21125,-2.26625 1.56875,-3.53625 1.3425,-4.76999997 -0.7125,-6.11625 -4.835,-4.16249997 -4.73,2.24124997 -6.85375,11.84250007 -5.84375,18.28000007 0.30875,2.65375 0.6475,5.0425 0.6475,5.0425 0,0 -0.2825,-0.004 -0.61875,-0.0362 -1.32375,-0.13 -3.59875,-1.88875 -3.7275,-4.335 z" />
</svg>
