<?xml version="1.0" encoding="UTF-8" standalone="yes"?>
<svg>
<path
	style="stroke:none; fill:#000000"
	d="m 12.76876,11.058761 c -0.0425,-0.385 -0.10125,-0.7475 -0.2,-1.3174996 -0.53501,-3.0875 -2.84501,-6.84125 -4.12376,-7.88125 -2.70837,-2.20250005 -4.297123,-1.67125005 -6.526249,0.55875 -0.571125,0.57125 -1.323376,1.93 -1.918751,3.31 0.89925,15.3500096 6.17988,2.66 7.54125,5.6062496 1.275,2.76 2.17875,7.20876 3.0375,8.73376 1.28625,2.28625 3.25376,3.4875 3.31376,5.31625 0.0575,1.7825 -1.69876,4.16 -2.10501,6.285 -0.08,0.42375 -0.1075,0.8375 0.0575,0.9975 0.21,0.20375 0.73251,-0.004 1.21626,-0.34 0.68375,-0.47375 1.28875,-1.2025 1.95125,-1.6025 1.62125,-0.97875 2.24375,-0.65 3.015,0.245 1.7625,2.05 3.00375,0.8075 3.7075,2.63 0.71375,1.84625 -1.275,5.9725 -2.09625,8.18251 -2.02375,5.44375 -2.1525,9.045 -1.51625,14.665 0.5775,5.10625 0.77375,6.29375 4.1025,6.765 1.50625,0.21375 2.34,-0.3375 2.68875,-2.6775 0.43,-2.8775 -0.78125,-3.895 -1.9825,-6.26875 -2.03375,-4.01625 -1.1325,-10.87875 0.59125,-15.79751 1.79875,-5.13125 3.4625,-8.10375 1.2575,-13.24875 -0.70875,-1.65375 -2.51,-3.93375 -4.2275,-4.36875 -0.8075,-0.205 -1.6325,0 -2.07,-0.405 -0.88,-0.815 -0.2375,-4.92876 0.22125,-6.42251 0.32,-1.04125 0.76,-1.87625 1.605,-2.14375 1.64,-0.52 4.80875,1.095 5.87875,0.165 0.985,-0.855 2.2425,-7.4199996 2.0075,-8.8649996 -0.73,-4.48875 -3.1675,-3.66750005 -5.96,-0.96375 -0.7875,0.76375 -1.56625,1.9375 -2.29125,3.30625 -0.43,0.81375 -5.63375,19.2187596 -7.175,5.5362496 z m 91.33753,78.83628 -7.04625,7.04626 7.04625,7.046249 7.04625,-7.046249 -7.04625,-7.04626 z m 0,-4.005 5.23125,5.23125 7.04626,-7.04625 -7.04626,-7.04625 -5.23125,5.23125 -5.23125,-5.23125 -7.04625,7.04625 7.04625,7.04625 5.23125,-5.23125 z m -42.04752,0 5.23126,5.23125 7.04625,-7.04625 -7.04625,-7.04625 -5.23126,5.23125 -5.23125,-5.23125 -7.04625,7.04625 7.04625,7.04625 5.23125,-5.23125 z m 27.95127,-16.37875 c 0.71625,-0.0638 1.2875,-0.16125 1.64375,-0.29875 1.72625,-0.66375 3.0675,-1.9575 4.85375,-2.625 2.12125,-0.79126 12.04625,-0.94501 14.93375,-0.0813 3.16626,0.9475 5.08876,2.94375 7.81876,1.24875 0.2175,-0.135 4.3575,-6.37001 4.08,-9.04126 -0.11125,-1.07125 -0.54375,-1.51625 -1.36125,-1.75 -1.3575,-0.39 -3.485,-0.3975 -5.05625,-0.875 -4.57001,-1.39 -5.73626,-4.69875 -8.40501,-7.93375 -2.54125,-3.08125 -8.905,-6.605 -12.8275,-6.94125 -4.5125,-0.38626 -5.75875,0.52375 -7.93251,4.08375 -0.7375,1.2075 -1.56,2.22625 -1.75,4.19875 -0.0437,0.45125 -0.055,0.95375 -0.0513,1.4075 -0.3875,5.45625 0.81,3.9675 2.95001,3.15125 1.47375,-0.5625 5.41375,-0.15625 6.99625,0.0113 1.91125,0.2025 3.1125,0.4725 3.52125,0.94875 0.65125,0.75875 -1.2175,2.7025 -3.39875,3.445 -0.66875,0.22875 -1.60375,0.3625 -2.715,0.42125 -9.28126,1.83875 -20.74751,-1.84875 -23.71626,-12.45 -0.0275,-0.1025 -0.0538,-0.205 -0.0763,-0.30875 -0.46625,-2.1225 0.49625,-5.14001 -1.30875,-4.01375 -0.94,0.58625 -1.73375,2.6375 -2.83625,3.92125 -0.28125,0.32625 -0.77625,0.7325 -1.3925,1.175 -3.45126,2.64125 -16.35626,4.74125 -17.93751,-0.3075 -1.53375,-4.90125 -4.62625,-15.71126 -4.9825,-16.72876 -3.19625,-9.14875 18.46375,-17.22751 20.12375,-17.88376 2.37501,-0.94 5.98251,-1.84375 7.02876,-1.88875 1.4675,-0.0637 3.0325,1.1175 1.94875,3.27625 -0.1775,0.3525 -0.315,0.53125 -1.3725,1.78375 -1.39,1.64501 -2.58875,3.09376 -3.6575,4.38251 -7.25376,8.7325 -2.88626,3.13 -10.37251,10.9925 -4.35375,4.57125 -10.8975,12.02126 4.55125,2.08125 5.60876,-3.60875 9.46501,-10.5775 13.38751,-16.49875 3.25625,-4.91876 6.0475,-10.8687596 3.38,-14.9100096 -1.475,-2.23625005 -2.94625,-1.65625005 -5.88,-0.33625 -16.16001,7.2675 -21.76251,7.9625 -32.52626,18.3000096 -2.02876,1.94875 -4.47501,5.53125 -4.47626,6.57625 -0.002,1.41375 0.97875,2.8025 1.9075,4.38 0.725,1.23125 5.53376,35.74501 5.09626,36.57502 -0.425,0.805 -0.9225,1.52625 -1.51125,2.2425 -1.32001,1.60375 -8.53876,6.25 -10.18501,6.55625 -2.17375,0.40375 -6.6575,-0.23375 -10.37,-1.455 -11.36476,-3.73625 -5.42875,-27.20876 -9.05626,-19.21501 -3.076,6.77875 -4.470748,15.41251 -3.17875,19.64501 0.57088,1.87125 2.76375,5.0675 4.51625,6.58625 0.995,0.86125 3.62376,2.2425 5.93876,3.25125 14.57375,6.34625 20.155,-6.6525 24.98126,-12.23375 0.865,-0.99875 1.605,-1.81625 2.25375,-3.44125 0.99625,-2.495 1.7775,-6.89501 1.7775,-6.89501 0,0 1.00625,-0.0687 2.50375,-0.2275 9.42375,-0.99875 7.22375,-0.21625 13.3225,-3.76875 1.73001,-1.50625 3.38376,-2.7475 4.61376,-2.48 2.44,6.20875 8.0525,15.67876 24.20501,13.94751 z m 9.005,-36.76252 c 1.92375,1.32875 3.4325,2.05 5.36,1.83 0.8775,-0.1 1.06125,-0.265 1.83875,-1.64375 1.6875,-2.995 2.07125,-6.64875 -0.5725,-8.575 -2.5175,-1.83375 -3.94375,-1.02625 -3.40625,-3.8925 0.32875,-1.7475 1.33125,-3.81875 1.75,-5.82126 0.54625,-2.60875 -0.50125,-12.4974996 -3.95125,-14.42249965 -0.74375,-0.415 -1.095,-0.23625 -1.59,0.41125 -2.92375,3.82875005 -1.20125,4.05375005 0.885,7.20875005 2.3575,3.5637496 2.9125,8.4675096 1.44875,12.0412596 -1.265,3.08625 -3.82875,6.43875 -3.35375,10.59375 0.13,1.14375 0.29,1.37 1.59125,2.27 z"/>
</svg>