<?xml version="1.0" encoding="UTF-8" standalone="yes"?>
<svg xmlns="http://www.w3.org/2000/svg" xmlns:xlink="http://www.w3.org/1999/xlink"
  width="595.276pt" height="841.89pt" viewBox="0 0 595.276 841.89">
  <path
    style="stroke:none; fill:#000000"
    d="m 12.81823,35.837057 0.1685,-2.079 -2.9489,0.66 c -14.3356002,3.205 -3.2329002,-21.176 -5.9795002,-16.716 -3.16339999,5.138 -4.54689999,11.272 -3.90459999,16.758 0.0701,0.599 0.1466,1.143 0.2398,1.642 1.49639999,7.999 11.93210019,5.814 12.42470019,-0.265 z m 109.6278,-20.008 -0.136,-3.127 c -0.056,-1.264 -0.037,-1.491 0.182,-2.265 0.163,-0.5750001 0.335,-1.2030001 0.771,-1.6080001 1.062,-0.987 3.692,-0.645 4.912,-1.458 1.755,-1.171 1.757,-5.19 0.406,-6.81899996 -1.433,-1.72800004 -4.33,1.01599996 -5.516,2.58599996 -0.729,0.964 -1.42,2.069 -1.73,3.359 -0.144,0.597 -0.223,1.276 -0.336,1.87 l -0.551,2.9090001 -1.82,-2.3160001 c -2.491,-3.28 -1.731,-4.255 -5.391,-5.147 -1.227,-0.299 -3.886,-0.187 -4.397,1.194 -0.4,1.08 0.539,3.707 1.127,4.331 0.452,0.48 2.284,1.6710001 3.041,1.7440001 1.236,0.119 3.762,-0.634 3.762,-0.634 0,0 2.039,2.935 3.284,4.313 0.544,0.601 0.993,1.086 1.69,1.099 0.288,0.005 0.702,-0.031 0.702,-0.031 z m 4.941,27.223 0.546,-0.009 c 0.245,-0.004 0.311,-0.154 0.657,-1.493 1.995,-7.7 2.359,-11.952 -2.547,-16.89 -0.808,-0.813 -1.75,-1.496 -2.356,-0.767 -0.412,0.495 -0.832,3.986 -0.644,4.748 0.328,1.333 1.3,1.766 2.423,2.671 2.536,2.044 3.172,3.578 2.849,6.302 -0.247,2.09 -0.928,5.438 -0.928,5.438 z m -17.468,-20.442 0,5.375 c 0.187,-0.266 0.371,-0.501 0.519,-0.674 5.95,-6.945 21.369,-15.568 29.516,-17.3520001 0.777,-0.17 1.553,-0.307 1.699,-0.045 0.073,0.1310001 -0.009,0.3610001 -0.135,0.6200001 -0.294,0.608 -0.765,1.345 -1.288,2.135 -10.85,16.383 6.265,-6.3530001 11.121,-6.9920001 0.444,-0.219 0.861,-0.396 1.231,-0.512 1.89,-0.596 3.936,-0.722 4.185,-2.533 0.035,-0.255 0.04,-0.571 0.031,-0.878 -0.082,-2.968 -4.925,-1.54799996 -8.338,-0.25 -3.159,1.201 -7.849,3.181 -12.824,5.483 -5.334,2.468 -19.481,9.0290001 -25.717,15.6230001 z m -55.147,45.938 c -1.921,0.63 -3.132,0.915 -6.014,1.478 -2.366,0.462 -11.762,2.235 -11.278,3.584 0.068,0.19 0.356,0.393 0.735,0.541 -2.024,-0.792 16.364,0.724 14.658,0.898 1.18,-0.12 2.478,-0.394 3.775,-0.776 11.592,-3.413 18.821,-9.857 25.204,-20.858 1.362,-2.347 1.296,-2.676 1.084,-5.09 -0.271,-3.086 -1.587,-8.507 -3.633,-11.937 -0.423,-0.709 -2.959,-3.171 -4.82,-4.826 -2.984,-2.653 -5.504,-1.714 -7.863,1.31 -1.167,1.497 -2.197,3.558 -2.528,4.446 -1.116,2.997 -1.684,6.974 0.267,9.139 0.087,0.097 0.177,0.189 0.269,0.276 2.712,2.569 4.002,1.698 7.39,1.351 0.315,-0.033 0.612,-0.063 0.866,-0.089 -0.078,0.008 4.198,-1.067 4.229,-1.085 0.072,-0.044 0.129,-0.092 0.165,-0.147 0.17,-0.257 -0.01,-0.506 0.353,-0.305 0.217,0.12 0.44,0.354 0.629,0.645 0.866,1.331 1.637,2.776 1.378,4.174 -0.258,1.395 -6.318,6.902 -7.322,7.751 -5.298,4.476 -11.261,7.279 -14.281,8.479 l -3.263,1.041 z m 20.643,-27.336 c 0,0 -1.205,0.057 -2.182,0.103 -1.337,0.062 -6.018,-0.75 -6.064,-2.062 -0.005,-0.142 -0.014,-0.396 -0.022,-0.624 -0.045,-1.303 2.387,-1.869 3.86,-1.017 0.174,0.101 0.36,0.204 0.564,0.333 1.465,0.932 3.844,3.267 3.844,3.267 z m -9.658,17.252 c 0,0 -0.069,-0.171 -0.069,-0.171 0.006,0.088 0.024,0.129 0.069,0.171 z m 19.59,13.744 c 6.721,-3.721 8.275,-7.336 9.73,-14.743 0.262,-1.337 0.4,-2.413 0.197,-2.542 -0.163,-0.104 -0.24,-0.052 -0.294,-0.267 -0.085,-0.338 0.091,-0.933 0.361,-1.625 1.544,-3.966 1.873,-5.673 0.343,-9.377 -0.188,-0.456 -0.411,-0.903 -0.624,-1.353 l -0.718,-1.519 0.629,-0.091 1.95,-0.281 -2.715,-3.447 c -0.323,-0.408 -0.631,-0.903 -0.837,-1.335 -0.333,-0.699 -0.469,-1.238 -0.894,-1.74 -0.565,-0.67 -1.64,-1.274 -2.024,-1.917 -0.188,-0.315 -0.21,-0.64 -0.392,-0.739 -0.566,-0.307 -1.427,0.414 -2.048,1.187 -1.694,2.108 -2.899,4.817 -0.369,7.431 0.238,0.245 0.481,0.491 0.703,0.735 0.646,0.709 2.192,4.839 3.49,8.085 l 2.018,5.047 -0.878,2.735 c -0.394,1.23 -0.869,2.317 -0.989,2.52 -1.038,1.751 -3.447,4.496 -5.402,6.06 -2.828,2.26 -5.45,2.795 -8.077,3.097 -6.702,0.77 -9.879,-6.937 -9.777,-10.659 0.033,-1.199 0.161,-5.869 0.161,-5.869 l -2.324,-0.099 c 0.045,0.069 0.083,0.14 0.115,0.214 0.259,0.611 -0.519,2.671 -0.904,4.492 -0.058,0.276 -0.101,0.572 -0.132,0.884 -1.093,11.028 3.639,15.443 7.115,17.216 1.1,0.561 2.383,0.757 3.673,0.74 4.548,-0.062 7.283,-1.938 8.913,-2.84 z m 23.322,-6.674 c 0,0 -0.013,-0.015 -0.013,-0.015 -0.827,0.563 -2.269,1.465 -3.701,1.978 -2.04,0.731 -6.966,0.95 -8.632,-1.391 -0.473,-0.665 -0.873,-1.488 -1.282,-2.432 l -3.717,-11.619 -0.111,13.839 c 0.106,0.707 0.115,1.654 0.242,2.171 0.101,0.411 0.639,1.415 1.318,2.485 2.098,3.309 4.131,4.684 8.17,4.479 0.571,-0.029 1.157,-0.08 1.69,-0.148 3.961,-0.51 15.374,-9.149 18.637,-16.759 1.677,-3.912 3.498,-9.944 2.84,-12.142 -0.312,-1.043 -2.084,-3.376 -3.435,-4.373 -1.097,-0.811 -5.452,-2.507 -5.548,-3.594 -0.033,-0.378 0.481,-0.649 0.561,-1.018 0.132,-0.6 -5.226,-4.194 -5.96,-5.995 -0.258,-0.632 -0.316,-1.103 -0.941,-0.847 -1.279,0.523 -2.822,6.535 -2.165,7.666 0.019,0.032 0.039,0.062 0.06,0.092 0.079,0.111 1.076,3.02 1.05,2.823 0.021,0.16 0.049,0.326 0.084,0.487 0.129,0.599 5.699,5.279 6.713,5.641 2.456,0.877 4.15,1.385 6.002,4.04 1.053,1.51 1.065,2.099 0.186,3.116 -0.967,1.118 -7.453,7.217 -12.048,11.516 z m -74.881,-49.858 -0.443,-8.4460001 c -0.066,-1.253 -0.091,-1.471 -0.258,-2.18 -0.512,-2.176 -1.89,-3.367 -3.33,-4.13699996 -1.832,-0.978 -3.229,-1.341 -5.117,0.036 -1.552,1.13199996 -1.698,5.23199996 -1.088,5.87299996 0.455,0.478 1.662,0.435 3.121,0.092 3.647,-0.856 4.012,-0.658 4.962,3.1980001 0.451,1.832 0.504,3.549 0.282,5.392 -0.471,3.913 -1.579,5.817 0.592,8.114 0.903,0.956 1.847,1.101 3.908,0.677 1.464,-0.302 1.755,-0.982 2.368,-3.01 0.433,-1.427 0.775,-2.706 0.664,-4.129 -0.22,-2.823 -3.273,-8.1310001 0.407,-9.4490001 0.679,-0.243 1.562,-0.085 2.323,0.081 1.026,0.224 1.2,0.122 1.74,-1.013 0.445,-0.934 0.959,-1.793 1.242,-2.799 1.062,-3.77299996 -0.564,-4.83699996 -3.825,-3.29199996 -3.742,1.77299996 -5.422,9.36800006 -4.623,14.46100006 0.245,2.099 0.513,3.989 0.513,3.989 0,0 -0.224,-0.003 -0.49,-0.029 -1.048,-0.103 -2.847,-1.494 -2.948,-3.429 z m -16.623,40.97 c 0,0 0.461,-1.062 0.739,-1.903 0.471,-1.42 0.395,-2.447 0.209,-3.916 -0.517,-4.098 -1.728,-19.618 -1.728,-19.618 0,0 1.427,-0.16 2.517,-0.132 2.95,0.078 3.809,1.467 5.36,-0.083 1.01,-1.009 1.914,-4.585 1.268,-5.92 -0.739,-1.527 -3.242,-2.263 -4.392,-1.016 -0.531,0.574 -0.833,1.481 -1.44,2.079 -0.941,0.925 -2.611,1.108 -3.439,1.879 -1.417,1.321 -1.191,16.786 -0.93,18.973 0.44,3.688 1.836,9.657 1.836,9.657 z m 81.459,-45.292 0.437,7.715 2.06,37.701 c 0,0 1.398,-1.401 2.236,-2.676 1.188,-1.809 1.251,-3.364 1.608,-5.099 0.28,-1.362 0.299,-1.666 0.183,-3.041 l -2.255,-26.898 -0.214,-4.566 c 0.224,0.123 0.438,0.235 0.639,0.334 l 3.47,1.717 -0.663,-1.825 c -0.075,-0.207 -0.154,-0.427 -0.235,-0.648 -0.962,-2.651 -1.496,-5.2730001 -2.137,-7.9920001 -0.614,-2.602 -1.431,-6.06899996 -1.431,-6.06899996 0,0 -0.58,-0.031 -1.113,0.045 -1.467,0.21 -4.598,4.88099996 -4.801,5.94199996 -0.019,0.1 -0.031,0.201 -0.035,0.3 -0.009,0.22 0.008,0.45 0.045,0.689 0.268,1.71 1.129,3.1700001 2.206,4.3710001 z m -66.592,48.394 c -0.055,-0.348 -0.095,-0.709 -0.08,-0.96 0.027,-0.45 0.23,-0.546 0.619,-0.523 0.227,0.013 0.518,0.067 0.835,0.135 0.783,0.165 6.41,-0.69 7.284,-1.264 l 0.691,-0.23 2.676,0.404 11.567,1.747 c 0,0 0.806,-2.621 1.737,-3.969 0.942,-1.365 1.571,-1.282 1.796,-2.288 0.353,-1.573 -1.376,-5.078 -1.337,-7.239 0.025,-1.32 0.721,-2.194 0.207,-3.651 -0.454,-1.289 -1.857,-3.035 -1.857,-3.035 0,0 -0.884,0.754 -1.479,1.332 -0.189,0.183 -0.349,0.349 -0.487,0.507 -0.725,0.831 -1.764,4.214 -1.615,5.118 0.157,0.948 0.959,5.795 0.959,5.795 l -6.503,-1.353 c 0,0 0.103,-2.551 0.016,-3.754 -0.032,-0.445 -0.091,-0.705 -0.497,-0.745 -0.208,-0.02 -0.508,0.018 -0.508,0.018 0,0 -1.194,2.449 -2.156,3.715 -2.909,3.831 -11.756,2.153 -14.002,-2.056 -0.061,-0.116 -1.523,-3.534 -2.271,-2.364 -0.08,0.126 -0.082,0.329 -0.169,0.469 -0.138,0.221 -0.489,0.284 -0.775,0.444 -1.823,1.014 -1.285,5.872 -1.064,7.22 0.692,4.237 2.687,12.417 2.687,12.417 0,0 -1.703,0.829 -3.309,1.531 -3.781,1.655 -10.6626,2.234 -14.6109,-0.242 -2.0649002,-1.295 -4.3778002,-3.456 -5.1008002,-5.037 -0.0093,-0.02 -0.0184,-0.04 -0.0275,-0.06 -1.7873,-4.006 -0.8186,-8.881 0.8278,-13.058 1.8526,-4.7 4.5672002,-9.153 4.5157002,-10.257 -0.0301,-0.096 -0.0578,-0.153 -0.0824,-0.165 -0.3535,-0.172 -1.4812002,1.04 -2.1883002,2.33 -1.22,2.227 -2.5321,4.037 -3.5049,6.049 -0.4905,1.015 -1.1289,2.573 -1.7222,4.204 -1.4327,3.939 -2.24489999,9.275 -1.9985,13.37 0.5512,9.161 9.6242002,10.613 14.9850002,10.74 6.496,0.153 10,-2.656 11.577,-4.431 4.175,-4.701 4.314,-11.187 4.365,-10.864 z m 50.491,-52.4440001 -1.237,1.725 -1.227,-1.312 -1.36,-1.388 1.088,-1.03 c 0.333,-0.315 0.746,-0.64 1.164,-0.8 0.218,-0.083 0.438,-0.122 0.626,-0.137 1.561,-0.129 1.937,0.456 1.85,1.164 -0.063,0.515 -0.495,1.207 -0.904,1.778 z m -5.891,0.896 -0.124,1.347 0.642,1.5070001 c 0.152,0.355 0.312,0.732 0.312,0.732 0,0 -0.238,0.12 -0.605,0.313 -21.228,11.155 -20.187,11.71 -41.307,18.313 -1.472,0.46 -7.277,2.132 -9.041,3.108 -5.799,3.208 11.862,0.22 9.057,0.657 0.01,-10e-4 0.02,-0.003 0.031,-0.004 14.579,-2.282 31.379,-10.265 43.015,-19.169 1.073,-0.821 1.796,-1.414 1.796,-1.414 0,0 1.597,1.419 2.738,2.768 0.081,0.096 0.168,0.215 0.258,0.354 2.819,4.312 1.805,4.197 1.979,8.997 0.002,0.055 0.005,0.11 0.007,0.167 0.019,0.433 0.043,0.761 0.043,0.761 0,0 0.936,-2.484 1.623,-3.694 1.832,-3.231 -0.13,-7.986 -1.977,-10.585 -0.34,-0.479 -0.7,-0.839 -1,-1.171 l -0.911,-1.009 0.78,-1.9110001 c 0.439,-1.076 1.055,-2.388 1.472,-3.417 1.04,-2.57 0.059,-3.97499996 -2.928,-4.74499996 -1.132,-0.292 -1.691,0.012 -3.025,1.09899996 -1.026,0.836 -1.964,2.208 -2.259,3.303 -0.285,1.059 -0.465,2.497 -0.576,3.693 z m -21.913,-1.683 8.249,-1.288 c 0,0 -1.749,1.656 -3.09,2.689 -1.429,1.102 -2.619,1.58 -4.083,1.959 -5.706,1.4790001 -9.142,1.3410001 -8.305,4.7160001 0.439,1.771 1.556,1.567 4.902,0.502 7.528,-2.394 11.5,-3.967 12.918,-10.5120001 0.66,-3.046 -1.218,-4.67599996 -4.887,-4.57899996 -0.781,0.021 -1.611,0.097 -2.437,0.496 -0.541,0.261 -1.08,0.65899996 -1.5,0.86799996 -0.78,0.388 -1.091,0.381 -1.463,2.342 -0.225,1.183 -0.304,2.807 -0.304,2.807 z"/>
</svg>