<?xml version="1.0"?>
<svg xmlns="http://www.w3.org/2000/svg" version="1.1">
  <path
     d="m 81.457047,21.70235 0.028,-2.886 1.755,-0.052 2.033,-0.061 -2.195,-4.918 c -0.048,-0.106 -0.094,-0.203 -0.137,-0.289 -2.24,-4.442 -1.784,-4.13 -1.179,-8.243 -0.085,-0.74 -0.23,-1.485 -0.462,-2.119 l -1.147,-3.134 -2.943,2.499 c -0.339,0.3 -0.512,0.464 -0.691,0.644 -1.495,1.504 -3.276,3.165 -3.08,5.397 0.168,1.931 1.374,4.023 1.538,5.973 0.02,0.248 -0.005,0.489 -0.056,0.727 -0.888,4.079 -0.077,9.809 0.372,14.007 0.416,3.889 0.898,7.723 1.499,11.438 0.911,5.631 2.507,11.838 2.15,16.41 -0.299,3.838 -1.544,10.35 -1.544,10.35 0,0 0.533,-0.538 1.193,-1.241 13.286,-14.155 3.373,-24.388 2.903,-40.236 -0.046,-1.538 -0.049,-3.039 -0.037,-4.266 z m 43.722003,56.189 c 0.167,2.313 1.246,3.751 3.209,4.166 2.532,0.535 3.964,-0.838 4.613,-3.615 0.143,-0.61 0.111,-1.118 -0.282,-1.363 -0.746,-0.466 -2.794,0.018 -3.785,-0.508 -1.232,-0.654 -1.545,-3.437 -1.24,-4.737 0.305,-1.302 1.082,-2.697 1.294,-3.7 0.043,-0.203 0.063,-0.39 -0.026,-0.495 -0.011,-0.013 -0.022,-0.025 -0.033,-0.037 -2.981,-0.679 -3.705,10.913 -3.75,10.289 z m -23.566,-60.832 -0.147,-3.37 c -0.06,-1.362 -0.04,-1.607 0.197,-2.441 0.175,-0.62 0.36,-1.297 0.83,-1.733 1.145,-1.063 3.98,-0.696 5.294,-1.572 1.892,-1.261 1.893,-5.593 0.437,-7.349 -1.544,-1.862 -4.665,1.095 -5.944,2.787 -0.786,1.039 -1.53,2.23 -1.864,3.62 -0.156,0.644 -0.241,1.376 -0.363,2.016 l -0.593003,3.135 -1.962,-2.496 c -2.684,-3.535 -1.865,-4.586 -5.81,-5.547 -1.322,-0.322 -4.188,-0.202 -4.739,1.286 -0.431,1.165 0.581,3.996 1.215,4.669 0.487,0.517 2.461,1.8 3.277,1.879 1.332,0.129 4.055,-0.683 4.055,-0.683 0,0 2.197,3.163 3.539,4.648 0.586,0.648 1.070003,1.17 1.821003,1.184 0.31,0.006 0.757,-0.033 0.757,-0.033 z m 13.845,24.094 0.589,-0.01 c 0.264,-0.005 0.335,-0.166 0.709,-1.609 2.149,-8.299 2.542,-12.881 -2.746,-18.204 -0.871,-0.876 -1.886,-1.611 -2.539,-0.826 -0.444,0.533 -0.896,4.296 -0.694,5.117 0.353,1.437 1.401,1.903 2.611,2.879 2.734,2.203 3.419,3.857 3.071,6.792 -0.267,2.252 -1.001,5.861 -1.001,5.861 z M 60.249047,7.74535 c 0.218,-0.209 0.531,-0.367 0.933,-0.465 1.306,-0.317 3.556,0 3.556,0 0,0 0.769,-3.052 0.484,-4.524 -0.318,-1.641 -3.258,-1.76 -4.844,-0.561 -2.028,1.532 -3.1,8.196 -2.421,10.258 0.188,0.571 0.476,1.088 0.858,1.502 0.14,0.151 0.292,0.288 0.449,0.43 l 1.114,1.001 0.596,1.621 c 0.248,0.674 0.407,1.254 0.407,1.254 0,0 4.531,-2.862 6.021,-4.684 0.659,-0.808 0.722,-1.411 0.968,-2.422 0.446,-1.83 1.115,-3.55 0.727,-3.875 -0.323,-0.269 -1.257,-0.143 -1.994,0.27 -1.09,0.61 -1.748,1.846 -3.489,2.152 -0.485,0.085 -1.054,0.098 -1.549,0.084 -3.802,-0.586 -0.812,-3.002 -1.816,-2.041 z m 8.695,70.146 c 0.168,2.313 1.247,3.751 3.21,4.166 2.532,0.535 3.964,-0.838 4.613,-3.615 0.142,-0.61 0.11,-1.118 -0.282,-1.363 -0.746,-0.466 -2.795,0.018 -3.785,-0.508 -1.232,-0.654 -1.546,-3.437 -1.241,-4.737 0.305,-1.302 1.083,-2.697 1.295,-3.7 0.042,-0.203 0.062,-0.39 -0.026,-0.495 -0.011,-0.013 -0.023,-0.025 -0.034,-0.037 -2.98,-0.679 -3.704,10.913 -3.75,10.289 z m -4.861,-33.003 -3.973,0 c -1.338,0 -1.572,-0.015 -2.337,-0.153 -1.5,-0.272 -3.4,-1.756 -3.599,-3.216 -0.025,-0.183 -0.035,-0.393 -0.037,-0.599 l -0.022,-1.977 3.806,0 c 1.239,0 1.469,0.056 2.303,0.562 1.235,0.751 3.796,3.756 3.859,4.194 0.076,0.535 0,1.189 0,1.189 z m -39.196,34.185 c -0.24,2.095 0.588,0.649 4.416,0.496 0.985,-0.039 1.777,0.275 2.576,0.743 2.859,1.674 2.818,2.108 5.648,1.734 5.14,-0.679 5.887,-1.488 12.436,-5.45 5.036,-3.047 15.087,-8.39 17.696,-14.444 0.589,-1.365 0.672,-2.89 1.131,-4.382 2.086,-6.783 4.562,-6.24 3.22,-11.901 -1.685,-7.112 -7.677,-16.934 -14.041,-14.358 -5.196,2.104 -10.801,13.529 -7.015,19.322 1.336,2.045 7.781,2.405 11.048,1.982 2.22,-0.287 5.549,-0.991 5.549,-0.991 0,0 0.555,1.799 0.496,3.072 -0.046,0.966 -1.195,2.419 -2.23,3.369 -0.897,0.823 -1.733,1.785 -2.725,2.725 -4.408,4.179 -18.044,11.417 -24.029,13.625 -3.809,1.404 -8.411,2.546 -12.677,3.605 -1.298,0.322 -1.448,0.408 -1.499,0.853 z m 96.319003,-14.692 c 0.128,-1.076 0.398,-2.249 0.704,-3.085 1.61,-4.402 2.817,-5.27 0.991,-9.414 -2.451,-5.558 -5.223,-4.492 -12.139,-6.936 -1.248,-0.441 -4.312,-1.916 -5.202,-2.973 -0.26,-0.308 -0.365,-0.614 -0.069,-0.812 0.373,-0.251 1.267,-0.065 1.593,-0.389 0.211,-0.208 0.185,-0.629 0.195,-0.955 0.014,-0.44 -0.082,-0.602 -0.954,-1.616 l -5.778,-6.723 c 0,0 -3.236003,3.385 -3.657003,5.541 -0.115,0.587 -0.025,1.086 0.2,1.578 0.282,0.616 0.776,1.219 1.038,1.89 0.366,0.935 0.28,2.003 0.496,2.973 1.078,4.843 8.026003,8.979 11.643003,9.909 4.151,1.066 8.947,2.438 9.909,7.431 0.069,0.362 0.105,0.736 0.063,1.104 -0.057,0.496 -0.17,0.654 -1.132,1.585 -3.727,3.604 -11.89,11.827 -18.353,10.688 -1.541003,-0.271 -4.437003,-1.397 -5.103003,-2.477 -0.853,-1.385 -1.292,-10.402 -3.468,-7.432 -2.608,3.56 -2.086,12.456 0.496,15.359 2.535,2.851 8.508003,3.115 12.138003,1.734 1.182,-0.45 2.189,-1.061 3.468,-1.982 2.02,-1.455 4.72,-3.684 7.054,-5.675 5.276,-4.501 5.136,-3.174 5.867,-9.323 z m -87.471003,-8.014 c -1.03,0.96 -2.195,1.743 -3.368,2.531 -8.154,5.479 -19.625,14.92 -25.516,6.689 -1.544,-2.158 -1.642,-4.052 -1.238,-7.135 0.717,-5.476 2.972,-15.656 2.972,-15.656 0,0 -0.815,-0.112 -1.189,0 -0.201,0.061 -0.273,0.186 -0.382,0.31 -0.146,0.167 -0.197,0.33 -0.508,1.632 -1.524,6.37 -6.5157,20.676 -3.6182,26.794 2.4352,5.141 8.0302,6.043 13.1292,4.211 4.933,-1.772 20.437,-11.924 21.592,-13.837 0.865,-1.434 3.491,-11.513 3.18,-13.759 -0.324,-2.337 -2.622,-4.756 -5.45,-6.094 -1.852,-0.876 -7.759,-2.45 -9.105,-4.764 -0.305,-0.525 0.322,-0.217 0.968,-0.648 0.264,-0.176 0.158,-0.523 -0.011,-0.895 -0.587,-1.29 -6.399,-8.72 -7.904,-8.308 -1.685,0.46 -3.47,4.749 -3.765,6.242 -0.164,0.827 -0.185,1.584 0,2.517 0.313,1.583 2.145,4.878 2.989,5.376 0.439,0.259 0.891,0.327 1.379,0.516 2.153,0.829 5.018,3.98 8.146,5.732 1.929,1.08 3.959,1.629 5.358,2.604 1.811,1.264 3.648,3.028 3.482,4.484 -0.045,0.398 -0.159,0.544 -1.141,1.458 z m 13.77,-47.212 c -0.016,0.166 0.009,0.369 -0.038,0.508 -0.264,0.784 -1.768,-0.111 -2.267,-0.533 -0.128,-0.109 -0.257,-0.224 -0.352,-0.365 -0.129,-0.189 -0.143,-0.265 -0.143,-0.761 0,0 0,-1.104 0,-1.104 0,0 1.543,0 1.955,0 2.792,0 0.96,1.106 0.845,2.255 z m -0.511,7.338 c 0,0 1.139,4.416 1.922,5.766 0.38,0.655 0.716,0.575 1.352,0.322 1.097,-0.436 2.883,-2.317 3.082,-3.245 0.416,-1.946 -0.223,-5.004 -0.223,-5.004 0,0 -0.595,-0.199 -1.189,0 -1.129,0.378 -2.254,2.191 -2.254,2.191 0,0 -0.332,-2.465 -0.228,-4.217 0.202,-3.411 2.385,-5.092 1.194,-8.051 -1.05,-2.609 -4.612,-3.755 -6.936,-2.061 -2.476,1.804 -3.594,4.96 -2.478,8.016 0.715,1.956 2.176,3.106 1.982,4.29 -0.111,0.682 -3.262,2.876 -5.45,3.796 -6.215,2.613 -14.697,6.859 -15.148,7.641 -1.373,2.383 0.929,0.794 3.77,0.582 1.516,-0.113 2.902,0.409 4.182,0.418 2.654,0.017 7.435,-3.296 9.921,-5.173 2.553,-1.928 6.501,-5.271 6.501,-5.271 z m -33.568,-9.335 c 0,0 0,1.426 0,2.172 0,0.856 1.516,1.633 2.372,1.633 0.3,0 0.384,0 0.384,0 0.793,0 0.902,-0.014 1.091,-0.143 0.965,-0.657 1.531,-3.185 1.616,-3.31 0.759,-1.119 4.122,-1.36 4.941,0.312 0.865,1.767 -2.768,4.992 -3.715,6.609 -0.519,0.886 -0.98,2.093 -0.744,2.477 0.214,0.347 0.974,0.289 1.655,0 2.404,-1.017 7.532,-9.881 6.272,-12.554 -0.419,-0.891 -2.76,-2.428 -4.122,-2.804 -1.984,-0.549 -8.523,0.299 -9.565,3.546 -0.166,0.518 -0.185,0.725 -0.185,2.062 z m 80.23,28.978 c -0.043,-1.175 -0.176,-2.65 -0.562,-3.021 -0.224,-0.215 -0.533,-0.059 -0.727,-0.176 -0.871,-0.523 0.611,-2.68 1.318,-3.505 6.412003,-7.485 23.031003,-16.779 31.811003,-18.701 0.837,-0.184 1.673,-0.332 1.831,-0.048 0.079,0.14 -0.01,0.388 -0.145,0.667 -0.317,0.656 -0.825,1.45 -1.389,2.301 -11.693,17.657 6.752,-6.847 11.986,-7.535 0.479,-0.237 0.928,-0.427 1.326,-0.553 2.037,-0.641 4.243,-0.777 4.511,-2.729 0.037,-0.274 0.043,-0.616 0.034,-0.947 -0.089,-3.198 -5.309,-1.668 -8.987,-0.269 -3.404,1.295 -8.459,3.429 -13.821,5.909 -6.938,3.21 -27.711003,12.846 -30.634003,21.215 -0.942,2.696 -0.767,5.718 1.111,8.317 0.08,0.112 0.153,0.212 0.22,0.303 -0.848,-1.151 2.298,3.689 2.117,-1.228 z"
     style="fill:#000000;stroke:none" />
</svg>
