<?xml version="1.0" encoding="UTF-8" standalone="no"?>
<svg>
  <path
     d="m 64.382589,48.84544 -5.91625,6.37125 c -0.98375,1.05875 -1.12375,1.24875 -1.39875,1.9 -0.385,0.91375 -0.51875,2.44 -0.32875,2.6475 0.6125,0.67 2.77875,-0.95625 3.53375,-1.56 6.60375,-5.27875 9.6125,-8.60375 10.68125,-15.44 0.5425,-3.475 -1.155,-4.82 -4.15875,-5.26375 -4.765,-0.7025 -9.49375,0.0163 -11.345,3.905 0.28875,14.8475 0.69625,6.3575 4.73625,5.3025 4.49625,-1.1725 9.33,-3.77625 4.19625,2.1375 z m 55.520581,-23.77391 -3.45,-0.63125 c 0,0 1.3,-7.13 1.7425,-11.1525 0.5025,-4.5825 -0.63875,-8.51125 -4.145,-12.17 -0.96375,-1.00625 -1.115,-1.1175 -1.5075,-1.1175 l -0.43875,0 c -0.3925,0 -0.49375,0.1425 -1.00875,1.425 -0.585,1.45625 -1.0825,4.5825 -0.72875,5.24 0.31125,0.57875 1.1,0.91625 1.805,1.41 6.9775,4.88625 1.675,15.1125 0.64125,23.25376 -0.41,3.23 1.85875,4.975 5.05,5.94125 3.37125,1.02 5.13625,-1.285 5.61,-5.40375 0.65125,-5.65501 0.88125,-5.98126 -3.57,-6.79501 z m -24.616293,35.78991 -3.8175,13.94498 c -1.69625,6.5675 -0.86625,10.28374 1.89875,15.61999 2.46625,4.76 4.15125,5.8525 9.386243,5.7475 3.91125,-0.0775 6.92249,-1.6675 10.5075,-4.21874 0.46375,-0.33001 0.95125,-0.68376 1.4525,-1.05501 7.10374,-5.25125 13.15749,-9.57374 15.98373,-15.68624 0.38875,-0.84 0.67875,-1.73125 0.8325,-2.655 0.29875,-1.81249 0.0725,-3.74499 0.73375,-5.06874 0.29625,-0.5925 0.77125,-1.0625 1.2125,-1.64625 3.33625,-4.40625 1.72625,-9.53374 -1.7475,-12.69249 -2.14499,-1.95 -5.39124,-3.54624 -8.48124,-4.85249 -3.93249,-1.66375 -7.17999,-2.77375 -10.80124,-5.63625 -1.45001,-1.14625 -1.61376,-1.365 -1.63626,-2.1875 0.82085,-0.1515 3.53101,-0.83574 6.04482,-2.15846 0,0 -6.32402,-3.02087 -8.12983,-4.82161 -0.12176,-0.12142 -4.87373,-6.50371 -7.18998,-5.93621 -0.81125,0.19875 -1.45375,1.43125 -2.445003,3.21124 -1.32999,2.3875 -3.28749,5.7575 -3.28749,5.7575 0,0 2.72,2.78625 4.10124,4.85749 0.796253,1.1925 1.147503,2.1475 1.668753,3.1325 4.7275,8.92749 12.495,9.52999 21.37249,15.05874 2.89625,1.80374 7.71624,6.63249 6.62625,10.40374 -0.37875,1.31125 -3.4775,4.28999 -5.98375,5.75124 -1.93125,1.1275 -3.78,2.075 -5.42624,3.29375 -5.73251,4.24499 -10.4975,10.03499 -17.28125,5.68124 -3.732493,-2.395 -5.067493,-7.05499 -5.206243,-11.48124 l -0.3875,-12.36373 z m -75.700296,-35.93437 0.69875,-0.0125 c 0.31375,-0.005 0.3975,-0.19625 0.84125,-1.91 2.55375,-9.86 3.02,-15.30375 -3.26125,-21.62625 -1.035,-1.04125 -2.24,-1.915 -3.01625,-0.9825 -0.5275,0.63375 -1.065,5.10375 -0.825,6.08 0.42,1.70625 1.665,2.26 3.1025,3.42 3.2475,2.6175 4.06125,4.58125 3.6475,8.0675 -0.31625,2.67625 -1.1875,6.96375 -1.1875,6.96375 z m 19.927086,20.39671 c -0.0487,-1.47375 -0.19875,-3.32375 -0.635,-3.79 -0.2525,-0.26875 -0.6025,-0.0737 -0.82125,-0.21875 -0.98625,-0.65625 0.69,-3.3625 1.49,-4.3975 7.2525,-9.3875 26.04875,-21.04375 35.97875,-23.455 0.94625,-0.23 1.8925,-0.41625 2.07125,-0.0613 0.0888,0.1775 -0.0113,0.4875 -0.16375,0.8375 -0.35875,0.8225 -0.9325,1.81875 -1.57125,2.88625 -13.225,22.14625 7.6375,-8.5875 13.55625,-9.45125 0.54125,-0.29625 1.05,-0.535 1.50125,-0.6925 2.3025,-0.805 4.7975,-0.975 5.10125,-3.42375 0.0412,-0.34375 0.0488,-0.77125 0.0375,-1.1875 -0.1,-4.01125 -6.00375,-2.0925 -10.16375,-0.3375 -3.850004,1.625 -9.5675,4.3 -15.6325,7.4125 -7.84625,4.025 -31.34125,16.11 -34.6475,26.6075 -1.06625,3.38125 -0.8675,7.17125 1.25625,10.43125 0.0913,0.14 0.17375,0.26625 0.24875,0.38 -0.95875,-1.44375 2.59875,4.62625 2.39375,-1.54 z m 9.898153,-23.92722 -0.16625,-4.2275 c -0.0677,-1.70875 -0.0455,-2.015 0.2225,-3.0625 0.1975,-0.77625 0.4075,-1.625 0.93875,-2.1725 1.295,-1.33375 4.50125,-0.8725 5.9875,-1.97125 2.14,-1.5825 2.14125,-7.01625 0.495,-9.2175 -1.74625,-2.335 -5.2775,1.3725 -6.72375,3.495 -0.88875,1.30375 -1.73,2.7975 -2.1085,4.54125 -0.17538,0.8075 -0.27238,1.725 -0.4095,2.5275 l -0.67175,3.9325 -2.21825,-3.13 c -3.03625,-4.435 -2.11025,-5.7525 -6.57188,-6.95875 -1.49487,-0.40375 -4.73675,-0.2525 -5.35975,1.61375 -0.48762,1.46125 0.657,5.0125 1.374,5.855 0.55138,0.64875 2.78413,2.25875 3.70638,2.3575 1.507,0.16125 4.58625,-0.85625 4.58625,-0.85625 0,0 2.48512,3.96625 4.00325,5.83 0.66237,0.8125 1.21012,1.4675 2.05962,1.485 0.35075,0.007 0.85638,-0.0412 0.85638,-0.0412 z m 42.114917,55.16713 2e-5,0 m -0.08332,0 c -0.92763,0 -0.54926,0 0.0833,0 m 7.67824,5.15132 c 1.833393,-5.47093 7.592743,-9.50526 6.924363,-15.82272 0.49533,-6.87051 -1.85563,-13.6412 -5.04807,-19.62761 -2.267843,-2.18127 -2.983553,-2.32207 -4.376333,-0.2684 -1.55004,2.67626 -3.72471,5.70785 -3.03557,8.93031 -0.60311,0.49797 2.28022,4.22148 2.69865,6.04429 1.0078,3.37538 1.77818,6.93615 1.58694,10.4756 -5.70518,-0.44849 -11.8563,-1.20749 -16.788294,-4.37633 -1.53716,-2.06007 -4.285027,-3.56512 -5.089537,0 0.005,2.98067 -2.826828,3.72887 -5.278286,3.79762 -3.574893,0.22959 -11.667464,1.71082 -12.817868,-1.90063 -2.579648,-2.29485 -3.235202,-1.18835 -4.165834,0.14833 -1.255272,2.3425 -3.859125,3.64195 -5.922221,4.19244 -3.97566,0.54027 -8.26506,-0.39611 -12.356926,-0.52196 0.679458,-2.47674 -0.221235,-5.5355 -0.927583,-3.8948 -0.8672,0.77009 -3.225297,3.78144 -5.083399,4.94366 -5.596991,3.71582 -14.224552,3.46157 -18.903674,-1.5844 C 7.798967,66.80758 8.390331,60.33691 7.675225,54.38979 6.640546,40.44778 5.898434,20.56344 5.53142,6.58632 5.959475,4.81135 6.446525,1.22369 6.067214,0.06784 3.52489,-0.5469 2.41941,3.17151 1.334412,4.9797 -1.9775,12.77477 1.943595,21.06183 1.742286,29.10758 c 0.981452,13.97225 0.959347,33.94416 2.538991,47.8745 0.01595,-0.86894 0.423148,4.39628 1.785937,5.53688 1.571191,2.13589 4.340534,3.49414 4.463494,3.55777 2.682428,1.63431 5.806554,1.9373 8.842319,1.38996 1.962124,-0.65122 7.079036,-1.66671 10.516992,-5.71783 0.855541,-0.2361 0.656948,0.52619 3.145938,1.57404 5.458492,3.66512 13.839897,2.15167 17.680436,-3.21452 0.431713,-0.45125 0.321592,-0.71165 0.669265,-0.73897 0.259505,0.27826 2.93737,3.51613 5.403147,2.79294 6.081796,-0.52684 11.985789,0.22062 15.180401,-2.41183 2.185174,-2.25195 1.842869,-3.50951 4.418862,-1.92399 7.785179,4.02409 14.757999,4.99452 22.816909,3.88848 z m -25.227068,9.32034 c 1.819972,1.41274 3.633055,4.54535 5.457104,4.93982 2.22871,-2.22871 4.457424,-4.45742 6.686144,-6.68614 -2.32881,-2.32881 -4.657644,-4.65763 -6.986454,-6.98644 -1.819005,1.3783 -3.638109,4.49525 -5.45706,4.85647 -1.818681,-1.03719 -3.637174,-5.22085 -5.45596,-4.25587 -2.128617,2.12862 -4.257223,4.25723 -6.385839,6.38584 2.328809,2.32881 4.657631,4.65763 6.98644,6.98644 1.718538,-1.7467 3.437087,-3.49342 5.155625,-5.24012 z m 56.884991,0.10974 c 0.1975,2.72125 1.46625,4.4125 3.775,4.90125 2.97875,0.63 4.6625,-0.985 5.42625,-4.2525 0.1675,-0.7175 0.13,-1.315 -0.33125,-1.6025 -0.8775,-0.54875 -3.2875,0.02 -4.4525,-0.59875 -1.44875,-0.76875 -1.8175,-4.0425 -1.45875,-5.5725 0.35875,-1.53125 1.2725,-3.17125 1.5225,-4.35125 0.05,-0.23875 0.0737,-0.45875 -0.0312,-0.5825 -0.0125,-0.015 -0.0263,-0.03 -0.0387,-0.0437 -3.50625,-0.79875 -4.3575,12.8375 -4.41125,12.1025 z"
     style="fill:#000000;stroke:none" />
</svg>