<?xml version="1.0" encoding="UTF-8" standalone="no"?>
<svg>
  <path
     d="m 127.95917,12.079138 c 0,0 -1.08786,-1.156637 -2.14322,-2.4620753 0.4564,0.5639393 -10.77986,-9.96834398 -9.94208,-0.341365 1.5005,11.1374863 4.96666,1.0853643 9.91207,5.1817383 4.18641,3.467413 3.44116,8.412822 4.51527,1.25167 0.67397,-4.494007 -0.11004,-6.1220533 4.1864,-6.1220533 0.32636,0 0.60395,0 0.78276,0 1.40923,0 1.31794,-3.57745 1.43173,-5.141725 0.03,-0.41889 0.0325,-0.456403 0.0325,-0.456403 0.11754,-1.61054 0.09,-1.84812 -0.28009,-2.379548 -0.78651,-1.12662798 -1.23291,-1.23041298 -1.95441,-1.00283698 -1.37796,0.43514598 -3.71249,2.25325598 -4.38897,3.53868698 -1.48675,2.823447 -2.15197,7.9339113 -2.15197,7.9339113 z m 17.64467,2.757175 c 4.65781,-2.700906 9.19683,-4.9466593 12.35164,-7.2349263 1.90939,-1.384215 2.70841,-2.94974 3.22608,-5.686908 0.2801,-1.48049598 -0.01,-1.62304398 -1.72057,-1.19665098 -1.44549,0.35886998 -10.65483,3.49867298 -12.25912,5.08795598 -0.90655,0.899052 -1.48799,2.245754 -2.42706,3.346123 -0.93656,1.0991183 -2.35079,2.0356833 -3.7375,2.8647103 -6.14206,3.672482 -18.68252,13.8609 -24.20687,18.576231 -0.74525,0.636464 -0.92781,0.916558 -1.28543,1.72683 -0.91156,2.064442 -0.8753,5.726921 -0.60271,6.1133 0.29635,0.41764 1.45299,0.196316 2.46583,-0.859038 0.56894,-0.592699 0.97533,-1.410473 1.55177,-2.211992 2.08445,-2.898472 6.38214,-5.566867 8.95676,-7.891397 0.29384,-0.266339 0.56519,-0.526427 0.84903,-0.759005 6.39339,-5.231755 13.79463,-10.110891 16.83815,-11.875233 z m -18.1786,76.910798 -0.69273,-0.01376 1.76809,-2.83345 c 0.0513,-0.08128 0.0938,-0.141298 0.11754,-0.173809 1.59178,-2.090701 2.84345,-2.14697 5.10046,-0.912806 0.45766,0.250084 0.85029,0.483913 0.99158,1.151637 0.0688,0.325109 0.0788,0.754002 0.07,1.112873 -0.01,0.390131 -0.0175,0.692732 -0.0175,0.692732 0,0 -0.009,0.0025 -0.0825,0.01626 -0.22257,0.04251 -1.27667,0.263838 -2.42331,0.486413 -1.37921,0.26759 -3.22858,0.683979 -4.83162,0.473909 z m -30.78533,1.671811 -2.78468,-0.191315 0.15505,0.635213 c 0.0388,0.157553 0.0825,0.323859 0.1313,0.473909 1.05035,3.284852 9.39565,3.921316 11.00994,3.521181 1.27168,-0.315105 3.33987,-1.152886 4.34146,-1.981914 2.81344,-2.330782 4.08762,-6.889811 6.90106,-5.285523 0.40014,0.227576 0.75776,0.592699 1.06911,1.062856 0.61521,0.930312 1.04535,2.273263 1.75059,2.948489 0.63021,0.603953 1.47799,0.675227 2.43706,0.766507 5.86697,0.560188 12.48544,1.230413 15.77404,-4.102626 1.96066,-3.181067 0.81778,-7.821373 -2.48208,-8.627894 -3.16106,-0.772759 -5.91448,1.576779 -7.80136,5.031688 -0.15631,0.285096 -0.29885,0.556437 -0.4339,0.812773 l -1.6543,3.174815 -1.04536,0.03751 c -0.33011,0 -0.6152,-0.05002 -0.94531,-0.15005 -0.34137,-0.102535 -0.67648,-0.250084 -0.98283,-0.522676 -0.54644,-0.487663 -1.00034,-1.377962 -1.48175,-2.174479 -0.78401,-1.297935 -4.05011,-3.373631 -5.55811,-2.203239 -0.22508,0.173808 -0.44015,0.398884 -0.66273,0.657721 -1.18414,1.382964 -2.56711,3.753759 -3.96883,4.760346 -0.23508,0.167557 -0.93656,0.56519 -1.58553,0.869042 -2.27451,1.064107 -8.84547,0.717741 -12.18284,0.487664 z m -42.28418,1.529262 c -0.40889,2.838453 0.0875,3.534936 1.7831,2.664644 1.15414,-0.593949 22.52255,-9.036781 24.69828,-11.92525 0.8753,-1.16289 1.74934,-3.21983 2.05694,-5.071701 0.19007,-1.140382 -0.11754,-1.099119 -1.21915,-0.642715 -2.55586,1.057854 -25.88119,11.275031 -26.40886,12.306627 -0.49392,0.964074 -0.80902,1.963159 -0.91031,2.668395 z m 50.47568,-72.391781 -7.18491,7.998933 7.18366,7.997682 7.18366,-7.998933 -7.18241,-7.997682 z m 45.1739,-8.356553 -7.18365,7.998933 7.1824,7.997682 7.18491,-7.998933 -7.18366,-7.997682 z m -25.25472,50.720763 -25.39977,0 c 0,0 1.08037,-1.835616 2.06695,-3.288603 3.39989,-5.00668 8.79295,-9.261857 12.93684,-8.550368 5.50809,0.946567 5.34804,2.252005 9.4019,7.331209 0.44265,0.553935 0.85154,0.935313 0.99408,1.876879 0.15005,0.999085 0,2.630883 0,2.630883 z m 23.08775,-13.992194 c -2.58337,-1.761841 -0.88905,-3.442404 0.36262,-4.11388 1.91689,-1.027844 5.22175,1.336699 6.79478,2.598372 3.83754,3.078533 2.18073,3.617463 0.21257,3.523682 -5.30178,-0.252585 -7.98018,-2.424563 -7.36997,-2.008174 z M 68.29041,30.521574 C 67.03373,15.411506 65.91711,0.03509872 65.91711,0.03509872 c 0,0 -0.67022,-0.07753 -1.06286,0 -0.42389,0.08378 -0.52392,0.348867 -0.64896,0.65772 C 61.92702,6.3197067 60.9617,7.9077387 61.54689,12.53179 c 0.51143,4.037604 1.58554,8.505353 2.36205,14.797463 0.39638,3.204825 0.71524,6.88356 0.96907,10.508526 0.69273,9.895819 0.18631,0.59645 0.67898,10.891153 0.21132,4.435237 0.50142,8.264022 0.92531,11.518863 0.0713,0.550185 0.1463,1.084114 0.22633,1.601788 0.0263,0.475159 0.0563,0.994083 0.0925,1.570526 l 0.23758,3.796274 -3.75126,0.342615 c -0.79777,0.07377 -1.53052,0.126292 -2.20449,0.160053 l -3.65373,0.222575 0.11629,-0.261338 c -4.01259,-0.378877 -5.12922,-2.059441 -8.54787,-4.596541 -0.28884,-0.213822 -0.59394,-0.252585 -0.98032,-0.0088 -0.63397,0.401384 -0.94407,1.595535 -1.62055,2.494586 -1.7831,2.370796 -4.69032,2.397054 -6.65848,2.29452 -2.14572,-0.111287 -6.01952,-1.299186 -6.5597,-2.094453 -1.14914,-1.691817 -0.729,-2.957242 -2.22075,-2.373296 -1.77309,0.693983 -4.16389,3.528684 -6.38214,4.76785 -2.07569,1.159138 -6.50468,1.404221 -8.60288,0 -0.76776,-0.513923 -2.70841,-2.952241 -3.27735,-4.53152 -0.43765,-1.212907 -0.50017,-1.526762 -0.63021,-3.136052 -0.54519,-6.746013 -1.3342,-19.046389 -1.97692,-30.402698 l -0.0888,0.115038 C 9.31182,17.878537 8.82166,7.0436527 9.04173,6.2446347 9.42186,4.8666717 10.56599,1.5655647 9.52064,0.14133672 9.29432,-0.16751628 7.90885,0.02879972 7.19111,0.74028772 6.1045,1.8168987 4.40268,6.9211107 4.14509,8.5103947 c -0.26884,1.6530543 -0.14505,3.8000243 0,5.9995123 0.38388,5.87322 0.91281,14.19226 1.51301,23.043979 L 5.76438,37.41509 c 0.85404,12.485438 1.84062,25.793651 2.76468,34.651623 0.16756,1.605538 0.24133,1.898136 0.74025,2.920979 1.71432,3.518681 5.65565,4.684071 8.0477,4.850377 1.53426,0.105035 4.9329,-1.046601 6.18332,-2.095703 0.47391,-0.397633 0.87029,-0.755253 1.21291,-1.070359 l 2.19699,-2.024429 3.18356,1.539267 c 3.12605,1.510506 5.98201,3.207325 8.57663,2.259507 1.27918,-0.467656 2.68965,-1.591783 3.95258,-2.393302 l 2.07194,-1.312941 1.67431,1.304188 c 1.29919,0.964073 13.74586,4.715331 18.81882,-0.142548 0.80026,-0.766507 1.79935,-2.034432 2.74967,-3.502425 0.37387,-0.578944 0.71149,-1.332947 1.01659,-2.237 1.0466,2.190735 2.39455,3.614962 4.14014,4.331453 2.79719,1.146634 6.03952,1.404221 7.94516,-0.03626 1.07786,-0.816523 1.78435,-1.7906 2.40331,-2.528348 l 1.65805,-1.976913 2.40081,2.542103 1.75684,2.051938 -1.49925,3.176066 c -0.97908,2.073195 -2.35079,4.719082 -2.88097,6.928574 -0.24133,1.007838 -0.52268,2.913477 -0.2951,3.288603 0.8878,1.46174 3.97383,-2.418312 4.49026,-3.482418 1.36671,-2.818446 1.97566,-6.680991 3.4399,-7.418739 0.72524,-0.366373 1.68432,-0.130043 2.76093,0.08253 3.06102,0.603952 18.36366,0.338864 20.82823,-0.361371 4.09888,-1.165391 6.45467,-2.568362 9.34689,-1.708073 2.54835,0.759004 4.53152,3.088536 8.16149,4.010095 1.66055,0.420141 4.37521,0.436396 6.98734,0.310104 4.51776,-0.216323 8.16024,-0.914057 11.0312,-1.771845 7.70633,-2.300771 9.80954,-4.630303 13.4145,-11.281283 1.32044,-2.434567 2.32578,-4.851628 2.64964,-6.512185 1.02409,-5.255513 -2.37955,-14.241027 -5.13923,-18.233616 -4.52151,-6.540944 -10.87864,-9.178078 -15.9491,-3.288603 -1.75934,2.044436 -5.26551,11.976517 -5.31553,15.784045 -0.0225,1.70057 0.27634,3.671231 0.94282,5.415566 4.3177,7.587545 5.30053,5.513099 11.55262,3.997591 3.19607,-0.77401 7.22368,-1.495502 7.58755,-1.19165 0.25633,0.215072 0.39513,1.34045 -0.36888,2.0857 -0.20006,0.195065 -0.39013,0.278843 -1.90689,0.839031 -1.00033,0.368874 -1.88688,0.741499 -2.84345,1.0441 -4.84663,1.533015 -11.95401,1.54802 -16.27546,1.189149 -0.11629,-0.0088 -0.24008,-0.02001 -0.37387,-0.03126 -1.04786,-0.09003 -2.05444,-0.500168 -3.03977,-0.851536 -2.57087,-0.917808 -5.11547,-1.90814 -5.31679,-2.735918 -0.28634,-1.176644 1.18415,-2.988502 1.18165,-4.959163 -0.004,-3.373632 -6.23834,-12.686755 -8.47909,-14.348563 -4.1689,-3.092287 -7.35747,-4.26393 -11.07872,-1.734331 -3.41615,2.322028 -6.8673,5.961999 -9.9771,10.294703 -3.34862,4.667815 -7.59379,11.566379 -7.59379,11.566379 0,0 -5.26427,-3.531184 -5.99201,-5.251761 -0.75026,-1.775596 -1.13288,-1.691818 -3.49618,1.296685 -1.99692,2.523346 -4.34395,2.752173 -6.66348,2.254506 -2.10196,-0.451402 -3.61997,-0.856538 -4.75535,-1.416725 -4.1714,-2.05694 -5.77068,-27.871849 -6.16206,-31.891948 -0.0738,-0.756504 -0.0638,-0.5977 0.0588,0.882796 z M 74.63378,5.2180867 c 0.62271,0.940316 1.60929,1.976913 2.01068,2.559609 0.39013,0.565189 3.35862,16.9406823 2.65839,21.7160343 -0.66772,4.564031 -2.73092,5.999512 -0.93781,11.287536 0.95031,2.80344 3.02726,4.315197 6.1358,5.141724 2.08445,0.555187 3.01476,-0.77776 4.07012,-5.115465 0.52517,-2.161976 0.35887,-3.617464 -2.17948,-5.077954 -1.70432,-0.981579 -4.469,-1.916893 -4.469,-1.916893 0,0 0.0988,-7.84013 -0.02,-13.913417 C 81.77744,13.549632 80.9209,5.9908457 79.89431,2.1870707 c -0.14755,-0.546434 -0.3051,-1.092867 -0.57645,-1.57677898 -0.23507,-0.422642 -0.38763,-0.592699 -0.77025,-0.606454 -3.8588,-0.143798 -3.85505,5.30302898 -3.91382,5.21424898 z m 19.19644,1.743085 c 1.95316,-0.972826 5.53561,-1.419226 6.03203,-0.932813 0.28634,0.281344 0.22257,0.807771 -0.0325,1.355455 -0.63646,1.370459 -2.47082,2.8784653 -4.30144,4.2376713 -3.45116,2.562109 -4.79286,3.044771 -5.60313,6.834792 -0.24383,1.137882 0.0513,1.237916 1.52927,0.615207 3.84629,-1.619293 9.0968,-5.539358 10.5973,-9.023027 1.31794,-3.0597763 2.12321,-5.6181343 0.68398,-8.5166063 -0.48516,-0.97907898 -0.69148,-1.10412098 -2.05819,-1.25917298 -1.52176,-0.171307 -2.72967,-0.512672 -4.57904,-0.0063 -0.0963,0.02626 -0.19381,0.05502 -0.29259,0.08628 -3.25735,1.00658798 -5.91824,2.03443298 -6.0983,5.83945898 -0.18631,3.9550773 -1.99192,3.8100283 4.12263,0.769008 z M 0,92.778707 C 0.18256,95.580897 1.35671,97.322731 3.49242,97.8254 6.2471,98.474367 7.80512,96.811309 8.5116,93.446431 8.66666,92.707433 8.63165,92.092227 8.20525,91.795877 7.39373,91.230688 5.16423,91.817137 4.08637,91.17942 2.74592,90.386654 2.40456,87.016774 2.73717,85.441246 c 0.33136,-1.57803 1.17789,-3.266096 1.40797,-4.482754 0.0463,-0.245082 0.0675,-0.472659 -0.0275,-0.598951 -0.0125,-0.01501 -0.025,-0.03126 -0.0375,-0.04501 C 0.8378,79.491755 0.05004,93.535216 2e-5,92.778712 z M 46.16173,45.484093 45.65281,34.666715 c -0.0763,-1.605539 -0.10503,-1.884382 -0.2976,-2.793437 -0.58894,-2.785935 -2.17323,-4.312697 -3.83003,-5.298027 -2.10696,-1.25167 -3.715,-1.718077 -5.88573,0.04627 -1.78559,1.450486 -1.95315,6.700997 -1.25167,7.522523 0.52393,0.612705 1.9119,0.557687 3.58996,0.117539 4.19516,-1.096618 4.6153,-0.842783 5.70816,4.095124 0.51893,2.347037 0.5802,4.546525 0.32511,6.906066 -0.54268,5.012931 -1.81686,7.451249 0.68023,10.393486 1.0391,1.224161 2.12446,1.409223 4.49526,0.866541 1.68431,-0.38638 2.01818,-1.257922 2.72466,-3.855043 0.49642,-1.828113 0.8903,-3.464912 0.76276,-5.288024 -0.25259,-3.616213 -3.76501,-10.414743 0.46765,-12.102809 0.78152,-0.311355 1.79686,-0.108787 2.67215,0.103784 1.1804,0.286346 1.38046,0.157553 2.00317,-1.297935 0.51142,-1.195401 1.10287,-2.29702 1.42798,-3.583702 1.22166,-4.832871 -0.64897,-6.195828 -4.40022,-4.216414 -4.30395,2.269511 -6.2371,11.999024 -5.31804,18.521212 0.28135,2.688402 0.5902,5.109214 0.5902,5.109214 0,0 -0.25759,-0.0038 -0.56394,-0.03751 -1.20415,-0.132544 -3.27485,-1.913141 -3.39114,-4.391473 z m -15.40516,47.28211 4.66906,5.197993 6.33088,-7.049865 -6.33088,-7.048614 -4.66906,5.197994 -4.66782,-5.197994 -6.33087,7.048614 6.33087,7.049865 4.66782,-5.197993 z m -4.66782,-52.034954 -6.33087,7.049865 6.33087,7.048614 6.33087,-7.048614 -6.33087,-7.049865 z M 26.3801,12.079138 c 0,0 -1.08787,-1.156637 -2.14322,-2.4620753 0.4564,0.5639393 -10.77987,-9.96834398 -9.94083,-0.341365 1.49925,11.1374863 4.96541,1.0853643 9.91082,5.1817383 4.1864,3.467413 3.4424,8.412822 4.51526,1.25167 0.67398,-4.494007 -0.11003,-6.1220533 4.18641,-6.1220533 0.32636,0 0.6052,0 0.78276,0 1.41047,0 1.31794,-3.57745 1.43173,-5.141725 0.03,-0.41889 0.0338,-0.456403 0.0338,-0.456403 0.11629,-1.61054 0.0888,-1.84812 -0.28134,-2.379548 C 34.08897,0.48274872 33.64257,0.37896372 32.92108,0.60653972 31.54437,1.0416857 29.20859,2.8597957 28.53211,4.1452267 27.04536,6.9686737 26.38014,12.079138 26.38014,12.079138 z m 17.64592,2.757175 c 4.65656,-2.700906 9.19683,-4.9466593 12.35039,-7.2349263 1.90939,-1.384215 2.70841,-2.94974 3.22608,-5.686908 0.2801,-1.48049598 -0.01,-1.62304398 -1.72058,-1.19665098 C 56.43768,1.0766977 47.22709,4.2165007 45.6228,5.8057837 c -0.90655,0.899052 -1.488,2.245754 -2.42581,3.346123 -0.93782,1.0991183 -2.35079,2.0356833 -3.73875,2.8647103 -6.14207,3.672482 -18.68252,13.8609 -24.20687,18.576231 -0.74525,0.636464 -0.92782,0.916558 -1.28544,1.72683 -0.91155,2.064442 -0.87529,5.726921 -0.6027,6.1133 0.29635,0.41764 1.45424,0.196316 2.46708,-0.859038 0.56769,-0.592699 0.97408,-1.410473 1.55052,-2.211992 2.08445,-2.898472 6.38214,-5.566867 8.95675,-7.891397 0.29385,-0.266339 0.56519,-0.526427 0.84904,-0.759005 6.39339,-5.231755 13.79463,-10.110891 16.8394,-11.875233 z"
     style="fill:#000000;stroke:none" />
</svg>
