<?xml version="1.0" encoding="UTF-8" standalone="yes"?>
<!-- Created with sK1/UniConvertor (http://sk1project.org/) -->
<svg xmlns="http://www.w3.org/2000/svg" xmlns:xlink="http://www.w3.org/1999/xlink"
  width="595.276pt" height="841.89pt" viewBox="0 0 595.276 841.89"
  fill-rule="evenodd">
<path
	style="stroke:none; fill:#000000"
	d="m 143.64509,42.021266 0.536,-0.009 c 0.241,-0.004 0.306,-0.144 0.647,-1.4 1.959,-7.226 2.317,-11.217 -2.504,-15.851 -0.793,-0.763 -1.719,-1.404 -2.314,-0.72 -0.405,0.465 -0.817,3.741 -0.633,4.456 0.322,1.251 1.278,1.657 2.381,2.507 2.492,1.918 3.116,3.358 2.799,5.913 -0.243,1.962 -0.912,5.104 -0.912,5.104 z m 5.679,32.413 c 0.029,-0.15 0.064,-0.352 0.006,-0.454 -0.109,-0.19 -0.545,-0.033 -0.982,0.171 -1.231,0.575 -2.473,1.524 -3.714,2.196 -0.562,0.305 -1.197,0.612 -1.864,0.851 -1.929,0.689 -4.91,0.959 -3.655,-1.68 0.679,-1.429 2.765,-2.893 3.267,-4.045 0.269,-0.619 -0.118,-2.271 -0.988,-2.706 -1.199,-0.6 -3.825,0.693 -4.488,1.403 -0.881,0.944 -2.096,3.425 -1.388,3.739 0.377,0.167 1.37,-0.488 2.28,-0.699 0.387,-0.09 0.758,-0.099 0.887,0.059 0.141,0.174 -0.012,0.551 -0.227,0.947 -1.342,2.477 -3.464,4.107 -2.941,5.798 1.564,5.059 9.791,-2.194 12.738,-4.54 0.923,-0.735 1.03,-0.839 1.069,-1.04 z m -92.585996,14.332 5.542,-5.689 -5.542,-5.689 -5.542,5.689 5.542,5.689 z m 27.759,-10.95 3.851,3.953 5.542,-5.689 -5.542,-5.689 -3.851,3.953 -3.85,-3.953 -5.542,5.689 5.542,5.689 3.85,-3.953 z m 0.699,-61.76 -0.475,-8.6510002 c -0.07,-1.283 -0.098,-1.506 -0.277,-2.233 -0.549,-2.229 -2.026,-3.449 -3.571,-4.23700004 -1.964,-1.002 -3.463,-1.374 -5.487,0.036 -1.664,1.16000004 -1.821,5.36000004 -1.166,6.01600004 0.488,0.49 1.781,0.446 3.347,0.095 3.91,-0.877 4.302,-0.675 5.32,3.2750002 0.484,1.877 0.541,3.635 0.303,5.523 -0.505,4.009 -1.693,5.958 0.635,8.312 0.969,0.979 1.981,1.127 4.191,0.692 1.57,-0.308 1.881,-1.005 2.54,-3.082 0.463,-1.462 0.83,-2.772 0.711,-4.229 -0.235,-2.893 -3.509,-8.3290002 0.436,-9.6790002 0.729,-0.25 1.676,-0.087 2.492,0.083 1.1,0.229 1.287,0.125 1.867,-1.038 0.477,-0.957 1.028,-1.837 1.331,-2.867 1.139,-3.86400004 -0.604,-4.95500004 -4.102,-3.37200004 -4.013,1.81600004 -5.815,9.59600024 -4.958,14.81200024 0.263,2.15 0.55,4.086 0.55,4.086 0,0 -0.24,-0.002 -0.525,-0.029 -1.123,-0.106 -3.053,-1.53 -3.162,-3.513 z m 1.807,25.823 -5.075,5.357 c -0.843,0.891 -0.963,1.05 -1.199,1.599 -0.33,0.768 -0.444,2.052 -0.282,2.226 0.526,0.564 2.384,-0.805 3.031,-1.312 5.665,-4.44 8.245,-7.236 9.161,-12.985 0.466,-2.922 -0.99,-4.053 -3.566,-4.426 -4.088,-0.591 -8.144,0.014 -9.731,3.284 0.247,12.486 0.596,5.346 4.063,4.459 3.855,-0.986 8.001,-3.176 3.598,1.798 z m 53.359996,15.075 c -3.997,1.636 -8.552,1.688 -11.949,0.743 -5.056,-1.407 -3.381,-2.272 0.119,-6.081 2.214,-2.41 4.682,-1.247 7.951,0.757 1.366,0.837 2.85,2.011 3.648,3.444 0.266,0.477 0.51,1.023 0.231,1.137 z m -21.488,6.349 c 3.915,3.454 7.169,4.081 11.209,3.92 3.371,-0.134 23.622,-3.894 23.877,-4.433 0.392,-0.831 -0.141,-1.814 0.612,-3.064 1.381,-2.295 4.264,-3.789 2.324,-5.025 -1.033,-0.659 -3.425,-0.621 -5.363,-1.051 -1.698,-0.376 -3.145,-1.171 -4.348,-2.389 -2.193,-2.22 -3.866,-5.947 -6.202,-7.702 -1.553,-1.166 -5.061,-2.382 -7.277,-1.599 -3.14,1.108 -5.625,3.841 -7.126,6.733 -1.903,3.666 -2.353,7.881 -5.086,5.37 -0.501,-0.46 -0.791,-0.915 -1.064,-1.435 -0.216,-0.41 -0.779,-6.279 -1.394,-13.722 l 0.257,-0.385 c -0.893,-11.582 -1.71,-24.015 -1.57,-25.675 0.113,-1.337 0.241,-2.56 0.221,-3.9750002 -0.021,-1.481 -0.589,-8.23200004 -0.992,-8.66900004 -0.868,-0.94 -2.333,1.59500004 -3.142,3.53500004 -0.623,1.492 -0.974,2.708 -1.214,4.159 -0.241,1.467 0.571,13.7610002 1.383,24.7070002 1.221,16.448 3.18,29.186 4.895,30.7 z m -111.1709962,16.996 c 4.2090002,2.346 7.2970002,-0.526 9.1610002,-6.168 0.787,-2.383 1.353,-4.58 1.911,-6.657 0.373,-1.393 2.531,-4.448 3.397,-4.812 1.219,-0.511 2.929,-0.789 2.929,-0.789 l 1.036,7.197 c 0.185,1.291 0.238,1.513 0.525,2.219 0.213,0.524 0.574,0.992 0.906,1.438 2.101,2.827 2.729,3.68 6.383,5.023 2.109,0.776 4.188,1.209 6.468,1.197 5.376,-0.026 12.611,-2.506 18.118,-2.419 7.135,0.112 13.413,2.454 12.591,-5.221 -0.034,-0.31 -0.072,-0.596 -0.106,-0.86 -0.033,-0.263 0.688,-1.667 -2.823,-2.132 -3.511,-0.465 -6.626,-2.547 -9.827,-4.341 -7.035,-3.942 -5.822,-4.657 -0.211,-9.566 3.31,-2.896 8.588,-7.545 8.675,0.906 0.009,0.918 -0.101,1.706 -0.228,2.431 -0.98,5.564 2.336,8.945 5.855,10.275 1.44,0.545 3.137,0.768 5.112,0.435 2.018,-0.341 5.08,-1.312 6.136,-1.971 1.493,-0.932 3.319,-3.044 4.23,-2.999 0.812,0.04 1.682,1.371 2.813,2.183 3.674,2.635 11.351996,0.475 14.385996,-1.944 4.119,-3.284 5.132,-6.709 4.973,-11.732 -0.086,-2.678 -0.153,-5.529 -0.59,-7.957 -0.621,-3.453 -1.987,-6.05 -2.656,-10.523 -0.987,-6.598 -0.38,-18.717 -0.38,-18.717 0,0 0.048,-0.009 0.391,-0.073 5.302,2.186 4.255,1.04 2.847,-0.962 -1.462,-2.079 -2.334,-5.6480002 -2.879,-8.0880002 -0.633,-2.834 -1.135,-5.67200004334 -1.135,-5.67200004334 0,0 -6.640996,5.47700004334 -6.640996,5.47700004334 0,0 1.757996,6.2790002 2.578996,11.4760002 1.009,6.387 -0.331,16.05 0.553,22.736 0.315,2.382 3.568,13.271 3.193,16.956 -0.242,2.386 -1.014,2.933 -4.148,2.894 -2.095996,-0.025 -6.527996,-0.67 -7.769996,-2 -1.731,-1.852 -1.582,-3.551 -2.955,-2.643 -0.981,0.648 -2.177,2.315 -3.592,3.367 -3.916,2.913 -12.538,3.536 -14.968,-0.172 -1.1,-1.678 -1.728,-3.446 -1.824,-5.17 -0.118,-2.104 0.48,-4.123 0.041,-7.385 -0.252,-1.879 -0.848,-4.17 -0.848,-4.17 0,0 -1.892,0.22 -3.176,0.589 -2.177,0.627 -7.603,5.506 -8.712,6.782 -1.069,1.23 -1.787,2.512 -2.895,3.488 -1.244,1.098 -7.373,4.024 -9.393,4.449 -4.665,0.981 -5.739,-0.063 -6.766,2.81 -0.763,2.137 -1.768,6.579 -0.756,7.231 0.678,0.436 2.281,-0.221 3.916,-0.243 1.667,-0.023 4.301,1.015 6.404,1.851 0.983,0.39 2.526,1.062 1.984,1.726 -0.217,0.265 -0.897,0.288 -1.588,0.295 -7.953,0.082 -12.524,-0.332 -16.954,-4.797 -2.926,-2.95 -3.049,-5.238 -2.563,-9.221 0.272,-2.228 -0.108,-3.203 -2.09,-4.102 -2.133,-0.968 -3.834,0.566 -6.169,2.805 -3.838,3.681 -2.965,4.767 -5.361,11.385 -1.578,4.357 -3.62,6.047 -6.7060002,4.454 -4.562,-2.353 -6.987,-14.676 -6.424,-17.303 0.103,-0.476 0.312,-0.85 0.594,-1.168 -0.058,0.066 -0.115,0.13 -0.172,0.196 -1.329,1.514 -2.01499997,3.651 -2.27399997,6.062 -1.37600003,12.768 3.68399997,19.533 7.47299997,21.644 z m 145.3309962,-69.47 c 0.672,-0.393 1.329,-0.803 1.905,-1.3290002 0.773,-0.706 3.473,-5.007 3.747,-6.893 0.185,-1.277 -0.31,-1.44 -1.422,-0.916 -0.821,0.386 -1.733,0.995 -2.641,1.601 -6.718,4.481 -20.496,13.2800002 -26.681,19.9190002 -1.114,1.195 -1.992,2.264 -2.538,3.255 -0.661,1.2 -1.14,4.981 -0.767,6.054 0.249,0.715 2.682,4.109 3.982,3.506 0.99,-0.459 1.346,-2.829 1.111,-3.649 -0.396,-1.376 -1.849,-2.685 -1.797,-3.768 0.037,-0.781 1.456,-2.083 2.709,-3.198 3.687,-3.282 9.343,-7.753 13.766,-10.099 0.562,-0.298 1.058,-0.42 1.379,-0.179 0.466,0.349 0.142,2.733 -0.192,4.643 -0.545,7.792 0.49,5.563 1.905,1.689 1.155,-3.16 2.27,-6.903 4.339,-9.499 0.415,-0.521 0.817,-0.915 1.195,-1.137 z m -23.246,0.163 c 1.11,2.067 2.399,4.978 3.48,3.84 0.404,-0.425 0.63,-1.397 1.044,-2.227 0.387,-0.777 1.17,-1.714 1.956,-2.454 2.574,-2.4210002 5.758,1.512 6.911,-6.7170002 0.009,-0.175 0.005,-0.35 -0.014,-0.521 -0.027,-0.25 -0.075,-0.53 -0.128,-0.795 -1.062,-5.313 -8.253,0.401 -9.692,5.817 -0.247,0.227 -0.423,0.368 -0.423,0.368 0,0 -1.388,-2.948 -2.698,-4.463 -1.279,-1.479 -6.329,-3.48700004 -7.429,-1.08 -0.13,0.284 -0.299,1.494 -0.363,2.776 -0.497,9.9060002 3.47,-0.799 7.081,4.9740002 0.086,0.136 0.175,0.296 0.275,0.482 z m -53.637996,16.137 c 0.219,-1.237 0.448,-3.004 0.179,-3.921 -0.162,-0.552 -0.506,-0.795 -0.908,-1.006 -1.127,-0.59 -2.719,-0.921 -3.437,-1.827 -0.436,-0.55 0.064,-4.703 0.261,-7.907 0.143,-2.328 -1.287,-11.1040002 -4.81,-12.39000024 -1.037,-0.379 -1.626,0.671 -1.996,2.01200004 -0.706,2.56 0.39,2.804 2.269,4.975 1.943,2.246 3.141,7.9130002 2.722,11.1780002 -0.621,4.84 -2.309,7.664 1.361,10.014 0.275,0.176 0.547,0.339 0.883,0.465 1.65,0.615 3.307,-0.637 3.476,-1.593 z"/>
</svg>