<?xml version="1.0" encoding="UTF-8" standalone="yes"?>
<svg xmlns="http://www.w3.org/2000/svg" xmlns:xlink="http://www.w3.org/1999/xlink"
  width="595.276pt" height="841.89pt" viewBox="0 0 595.276 841.89">
  <path
    style="stroke:none; fill:#000000"
    d="m 6.4425516,54.382853 c -0.057,-0.328 -0.1,-0.68 -0.132,-1.049 -0.601,-6.987 -1.375,2.493 -1.375,0.894 0,0.094 0,0.192 0,0.295 0,6.978 0.829,15.519 7.6650004,19.862 2.193,1.394 4.285,1.205 6.376,-0.176 1.401,-0.925 2.904,-1.839 3.857,-3.167 1.431,-1.995 1.637,-6.458 2.773,-10.084 1.252,-3.994 5.386,-10.667 8.571,-12.856 2.485,-1.708 6.555,-3.642 6.555,-3.642 l 0,8.441 c 0,1.362 0.033,1.661 0.337,2.99 1.74,7.616 4.806,12.558 11.511,15.151 2.173,0.84 5.244,1.927 7.64,1.49 1.046,-0.19 1.214,-0.354 1.678,-1.637 0.615,-1.7 1.145,-2.903 1.41,-5.228 0.064,-0.557 0.112,-1.18 0.112,-1.18 0,0 -4.874,-0.331 -7.059,-1.008 -2.976,-0.923 -6.714,-6.014 -5.546,-8.742 0.889,-2.076 6.802,-5.642 8.743,-4.871 0.629,0.25 1.13,0.789 1.593,1.513 2.097,3.275 1.893,4.907 5.899,5.546 2.022,0.322 6.014,-0.838 7.841,-2.43 0.979,-0.853 1.594,-2.022 2.344,-2.108 0.924,-0.106 2.053,1.44 3.327,2.269 0.926,0.602 1.928,0.826 3.025,0.756 3.734,-0.239 9.665,-3.423 10.947,-2.881 1.29,0.546 1.869,2.451 3.423,3.889 4.023998,3.725 10.828998,3.309 15.555998,0.965 5.799,-2.876 6.46,-3.429 13.737,-2.981 1.648,0.101 3.34,0.298 4.975,0.671 1.331,0.303 1.502,0.232 1.716,-0.711 0.158,-0.699 0.455,-1.357 0.821,-1.977 1.433,-2.428 3.087,-4.052 0.757,-4.79 -1.84,-0.582 -4.588,-0.71 -6.555,-1.512 -1.707,-0.697 -4.602,-3.167 -6.152,-4.827 -4.291,-4.594 -4.981,-6.932 -9.377,-6.517 -4.26,0.401 -7.805,2.306 -8.168,6.211 -0.145,1.567 0,3.872 0,3.872 0,0 6.191,-0.275 7.059,-1.21 0.178,-0.192 0.132,-0.412 0.214,-0.593 0.185,-0.407 1.022,-0.615 1.974,-0.214 2.083,0.879 4.714,4.678 4.714,4.678 0,0 -4.236,2.12 -6.902,3.137 -3.328,1.27 -8.023,0.743 -11.596,-1.512 -1.291998,-0.815 -3.260998,-3.073 -3.803998,-5.341 -0.207,-0.865 -0.247,-1.112 -0.399,-2.464 l -4.368,-41.27200022 c 0,0 -0.729,-0.074 -1.21,0 -1.565,0.242 -2.252,5.22300002 -2.32,5.64700002 -0.482,3.026 3.815,26.3190002 4.034,35.0100002 0.064,2.563 0,5.314 0,5.314 0,0 -3.408,1.037 -5.546,1.341 -3.219,0.458 -5.876,0.071 -6.329,-2.581 -0.212,-1.24 -0.385,-2.57 -1.436,-1.957 -0.711,0.416 -1.066,2.034 -1.815,3.026 -0.918,1.216 -4.096,2.731 -5.203,3.025 -2.781,0.738 -5.615,0.125 -7.149,-2.017 -1.375,-1.918 -1.502,-4.609 -2.733,-5.466 -0.547,-0.38 -4.249,0.569 -5.586,1.432 -1.823,1.177 -4.967,3.629 -5.861,5.502 -1.405,2.945 -1.761,8.534 -2.924,9.41 -1.667,1.256 -3.026,-2.667 -4.072,-5.332 -0.703,-1.791 -1.227,-3.294 -1.261,-5.042 -0.068,-3.587 1.643,-7.665 -0.252,-10.084 -1.564,-1.997 -6.248,1.144 -8.319,2.773 -3.694,2.906 -8.279,9.142 -9.734,13.418 -1.954,5.745 -2.046,12.216 -8.074,13.556 -1.414,0.315 -2.554,0.068 -3.58,-0.583 -4.9130004,-3.118 -6.1240004,-10.751 -6.3470004,-12.042 z m 72.1860004,16.68 4.279,4.279 6.158,-6.158 -6.158,-6.158 -4.279,4.279 -4.279,-4.279 -6.158,6.158 6.158,6.158 4.279,-4.279 z m 44.381998,-30.825 0.587,-0.01 c 0.264,-0.005 0.335,-0.166 0.708,-1.606 2.146,-8.285 2.537,-12.86 -2.742,-18.173 -0.869,-0.875 -1.882,-1.609 -2.534,-0.825 -0.443,0.532 -0.895,4.288 -0.693,5.108 0.353,1.435 1.399,1.9 2.607,2.874 2.729,2.2 3.413,3.85 3.065,6.78 -0.266,2.249 -0.998,5.852 -0.998,5.852 z m -9.602,-24.938 c -6.203,3.775 -11.826,8.132 -13.244,12.191 -0.939998,2.692 -0.764998,5.709 1.109,8.303 0.08,0.112 0.153,0.212 0.22,0.302 -0.846,-1.149 2.294,3.683 2.113,-1.226 -0.043,-1.172 -0.175,-2.645 -0.561,-3.015 -0.223,-0.215 -0.532,-0.059 -0.725,-0.175 -0.87,-0.523 0.61,-2.677 1.315,-3.5 1.582,-1.847 3.786,-3.804 6.341,-5.732 l -0.024,0.107 c 1.075,-0.831 2.168,-1.64 3.266,-2.417 1.384,-0.934 2.828,-1.847 4.298,-2.723 l 0.066,-0.186 c 3.377,-2.109 6.589,-3.771 9.165,-4.671 0.807,-0.282 1.618,-0.529 1.809,-0.268 0.095,0.13 0.037,0.386 -0.064,0.679 -0.235,0.688 -0.643,1.536 -1.099,2.448 -9.469,18.903 5.869,-7.5970002 10.973,-8.9080002 0.446,-0.292 0.869,-0.534 1.248,-0.706 1.942,-0.881 4.111,-1.28 4.142,-3.247 0.005,-0.276 -0.031,-0.615 -0.08,-0.942 -0.472,-3.159 -5.461,-1.01600002 -8.938,0.812 -3.218,1.692 -7.972,4.414 -12.988,7.516 -1.915,1.1850002 -4.957,3.0680002 -8.342,5.3580002 z m -94.501998,28.135 0.131,-0.847 c 0.146,-0.946 0.129,-2.035 -0.07,-2.863 -0.003,-0.01 -0.005,-0.02 -0.008,-0.03 0,0 0.019,-0.545 0.019,-0.545 0,0 0.227,-0.021 0.525,-0.017 0.945,0.015 2.173,0.852 2.853,1.474 1.065,0.975 1.695,2.565 -0.314,2.668 -0.723,0.037 -1.623,0.083 -2.252,0.115 l -0.884,0.045 z m -4.293,-0.94 c -0.382,-0.224 -0.628,-0.406 -0.63,-0.417 -0.106,-0.505 0.057,-1.632 0.057,-1.632 0,0 1.744,0.06 2.352,0.082 0.424,0.014 0.618,0.539 0.701,1.014 0.531,3.019 -2.308,1.054 -2.48,0.953 z m 96.334998,-25.464 -0.147,-3.365 c -0.06,-1.36 -0.04,-1.604 0.196,-2.437 0.175,-0.618 0.36,-1.2940002 0.829,-1.7300002 1.143,-1.061 3.973,-0.694 5.285,-1.569 1.889,-1.259 1.89,-5.584 0.437,-7.33700002 -1.542,-1.85799998 -4.658,1.09400002 -5.935,2.78300002 -0.784,1.037 -1.527,2.226 -1.861,3.614 -0.155,0.643 -0.24,1.373 -0.361,2.012 l -0.593,3.1300002 -1.958,-2.4920002 c -2.68,-3.529 -1.863,-4.578 -5.801,-5.538 -1.318998,-0.321 -4.179998,-0.201 -4.729998,1.285 -0.431,1.162 0.58,3.989 1.212,4.6600002 0.487,0.516 2.458,1.797 3.271998,1.876 1.33,0.129 4.048,-0.681 4.048,-0.681 0,0 2.193,3.157 3.533,4.64 0.585,0.647 1.068,1.168 1.818,1.182 0.31,0.006 0.756,-0.033 0.756,-0.033 z m -36.272998,5.954 -0.477,-12.384 c -0.07,-1.8370002 -0.098,-2.1570002 -0.278,-3.1970002 -0.551,-3.19 -2.033,-4.937 -3.582,-6.065 -1.97,-1.43400002 -3.474,-1.96700002 -5.505,0.052 -1.67,1.66 -1.827,7.672 -1.171,8.6120002 0.49,0.701 1.788,0.638 3.358,0.135 3.923,-1.2550002 4.317,-0.9660002 5.338,4.688 0.486,2.687 0.543,5.204 0.304,7.906 -0.507,5.738 -1.698,8.529 0.637,11.898 0.972,1.402 1.987,1.614 4.204,0.992 1.576,-0.442 1.888,-1.44 2.549,-4.413 0.465,-2.093 0.833,-3.967 0.713,-6.054 -0.236,-4.14 -3.521,-11.922 0.438,-13.855 0.731,-0.357 1.681,-0.124 2.5,0.119 1.104,0.328 1.291,0.18 1.873,-1.4860002 0.478,-1.369 1.031,-2.629 1.336,-4.103 1.142,-5.53200002 -0.607,-7.093 -4.116,-4.827 -4.026,2.599 -5.834,13.7360002 -4.974,21.2030002 0.263,3.078 0.552,5.849 0.552,5.849 0,0 -0.241,-0.004 -0.527,-0.042 -1.127,-0.152 -3.063,-2.19 -3.172,-5.028 z m 42.111998,44.174 c -1.472,2.165 -3.568,3.798 -3.144,5.516 1.018,4.127 7.702,2.573 10.642,1.222 1.528,-0.702 4,-3.073 4.536,-4.349 0.22,-0.525 0.371,-1.081 0.099,-1.212 -0.173,-0.084 -0.519,0.005 -0.875,0.128 -1.278,0.445 -2.676,1.339 -4.063,1.862 -2.353,0.887 -5.716,1.209 -6.485,-0.974 -0.157,-0.445 -0.107,-0.896 0.112,-1.354 1.418,-2.971 5.412,-4.098 4.697,-6.319 -0.986,-3.06 -4.571,-2.546 -6.588,-1.08 -0.022,0.015 -3.772,3.599 -2.626,4.258 0.182,0.104 0.547,0.041 0.919,-0.069 0.67,-0.199 1.36,-0.549 2.201,-0.709 1.391,-0.265 1.589,0.508 1.449,1.304 -0.157,0.889 -0.833,1.715 -0.874,1.776 z m -104.381998,-8.979 c 0.55,-0.707 1.198,-1.58 2.006,-2.686 1.446,-1.977 2.324,-3.737 2.757,-4.828 l 0.804,-2.028 2.054,-0.484 c 1.713,-0.403 3.708,-0.493 4.806,-1.46 0.155,-0.136 2.429,-4.745 1.946,-6.684 -0.296,-1.188 -2.288,-3.672 -2.947,-4.188 -2.217,-1.736 -7.012,-3.688 -7.012,-3.688 0,0 -0.695,1.001 -1.489,2.371 -5.035,8.695 -3.489,10.588 -0.978,12.523 0.963,0.777 1.522,1.737 1.332,2.381 -0.049,0.167 -0.147,0.373 -0.283,0.604 -9.3170004,13.027 -18.3190004,16.527 -14.50300041,15.741 4.72400001,-0.972 10.72500041,-6.568 11.50700041,-7.574 z"/>
</svg>