<?xml version="1.0" encoding="UTF-8" standalone="yes"?>
<svg xmlns="http://www.w3.org/2000/svg" xmlns:xlink="http://www.w3.org/1999/xlink"
  width="595.276pt" height="841.89pt" viewBox="0 0 595.276 841.89">
  <path
    style="stroke:none; fill:#000000"
    d="m 91.847413,16.213802 -0.13,-3.203 c -0.053,-1.295 -0.036,-1.527 0.174,-2.32 0.156,-0.589 0.32,-1.2320004 0.737,-1.6470004 1.016,-1.011 3.532,-0.661 4.698,-1.494 1.679,-1.199 1.681,-5.316 0.388,-6.98500002 -1.37,-1.76899998 -4.14,1.04100002 -5.275,2.64900002 -0.697,0.988 -1.357,2.12 -1.654,3.441 -0.138,0.612 -0.214,1.307 -0.322,1.916 l -0.527,2.9790004 -1.74,-2.3720004 c -2.383,-3.36 -1.656,-4.358 -5.157,-5.272 -1.173,-0.306 -3.716,-0.192 -4.205,1.222 -0.383,1.107 0.515,3.798 1.078,4.438 0.433,0.4910004 2.184,1.7100004 2.908,1.7850004 1.182,0.123 3.598,-0.648 3.598,-0.648 0,0 1.95,3.006 3.142,4.417 0.519,0.616 0.949,1.112 1.616,1.126 0.275,0.005 0.671,-0.032 0.671,-0.032 z m -4.73,1.17 c -2.496,2.201 -4.383,4.461 -5.091,6.632 -0.836,2.562 -0.68,5.434 0.986,7.905 0.071,0.106 0.136,0.201 0.195,0.287 -0.752,-1.094 2.04,3.506 1.879,-1.167 -0.038,-1.116 -0.156,-2.518 -0.499,-2.871 -0.198,-0.205 -0.473,-0.056 -0.644,-0.167 -0.774,-0.497 0.542,-2.548 1.169,-3.331 1.066,-1.333 2.449,-2.726 4.046,-4.122 4.631,-4.049 9.647,-6.961 15.388997,-9.173 1.339,-0.516 2.584,-0.917 3.69,-1.176 0.742,-0.174 1.484,-0.3140004 1.625,-0.045 0.07,0.133 -0.009,0.368 -0.129,0.634 -0.282,0.623 -0.732,1.378 -1.232,2.187 -10.377997,16.782 5.991,-6.5080004 10.636,-7.1620004 0.425,-0.224 0.824,-0.405 1.177,-0.525 1.808,-0.609 3.765,-0.738 4.003,-2.594 0.033,-0.26 0.038,-0.585 0.03,-0.899 -0.068,-2.61000002 -3.492,-1.90700002 -6.526,-0.81500002 C 114.29241,2.2538016 95.281413,9.8598016 87.117413,17.383802 z m 17.016997,21.729 0.522,-0.01 c 0.235,-0.004 0.298,-0.157 0.629,-1.528 1.908,-7.888 2.256,-12.243 -2.436,-17.302 -0.773,-0.832 -1.674,-1.531 -2.254,-0.785 -0.393,0.507 -0.794997,4.083 -0.615997,4.863 0.313997,1.366 1.243997,1.809 2.317997,2.736 2.426,2.095 3.033,3.666 2.725,6.455 -0.237,2.141 -0.888,5.571 -0.888,5.571 z m -29.940997,36.093 c -0.339,2.27 0.074,2.828 1.483,2.131 0.96,-0.475 13.341,-8.188 15.15,-10.498 0.728,-0.93 1.455,-2.576 1.711,-4.056 0.158,-0.912 -0.098,-0.88 -1.014,-0.515 -2.125,0.846 -16.133,9.979 -16.573,10.804 -0.409,0.771 -0.672,1.571 -0.757,2.134 z m -36.949,-44.225 -4.558,4.849 c -0.758,0.806 -0.865,0.95 -1.077,1.447 -0.297,0.695 -0.4,1.857 -0.254,2.014 0.472,0.511 2.141,-0.728 2.722,-1.187 5.088,-4.018 7.406,-6.549 8.229,-11.753 0.418,-2.645 -0.89,-3.668 -3.204,-4.006 -3.67,-0.535 -7.314,0.012 -8.739,2.972 0.222,11.301 0.535,4.839 3.649,4.037 3.463,-0.893 7.187,-2.875 3.232,1.627 z m 9.295,-14.924 -0.424,-8.6510004 c -0.063,-1.283 -0.087,-1.506 -0.247,-2.233 -0.49,-2.229 -1.807,-3.449 -3.184,-4.23700002 -1.752,-1.002 -3.089,-1.374 -4.894,0.036 -1.484,1.16000002 -1.624,5.36000002 -1.041,6.01600002 0.436,0.49 1.589,0.446 2.985,0.095 3.488,-0.877 3.837,-0.675 4.746,3.2750004 0.431,1.876 0.482,3.635 0.27,5.523 -0.451,4.008 -1.51,5.958 0.566,8.311 0.864,0.98 1.766,1.128 3.737,0.693 1.401,-0.309 1.679,-1.006 2.266,-3.082 0.413,-1.463 0.74,-2.772 0.634,-4.23 -0.21,-2.892 -3.13,-8.3280004 0.389,-9.6790004 0.65,-0.249 1.494,-0.086 2.222,0.084 0.981,0.229 1.148,0.125 1.665,-1.038 0.425,-0.957 0.917,-1.837 1.188,-2.867 1.015,-3.86400002 -0.54,-4.95500002 -3.659,-3.37200002 -3.578,1.81600002 -5.186,9.59600042 -4.421,14.81200042 0.234,2.15 0.49,4.086 0.49,4.086 0,0 -0.214,-0.003 -0.469,-0.03 -1.001,-0.105 -2.722,-1.529 -2.819,-3.512 z m -25.0367,-6.0600004 c 0.1516,2.2400004 1.1277,3.6340004 2.9034,4.0360004 2.2903,0.519 3.5863,-0.812 4.1733,-3.503 0.129,-0.5900004 0.1,-1.0820004 -0.255,-1.3200004 -0.675,-0.451 -2.528,0.017 -3.424,-0.492 -1.1149,-0.634 -1.3983,-3.33 -1.1226,-4.59 0.276,-1.261 0.9796,-2.612 1.1716,-3.58400002 0.038,-0.197 0.056,-0.378 -0.024,-0.48 -0.01,-0.012 -0.02,-0.024 -0.03,-0.036 -2.6964,-0.658 -3.3518,10.57300042 -3.3927,9.96900002 z m 37.4977,62.4870004 4.793,5.134 5.878,-6.295 -5.878,-6.295 -4.793,5.134 -4.794,-5.134 -5.878,6.295 5.878,6.295 4.794,-5.134 z m -45.247,-7.501 -0.3736,-16.642 c -0.0443,-1.972 0.0537,-2.289 0.9796,-3.17 0.6868,-0.654 1.4121,-1.25 2.2839,-1.483 2.4888,-0.668 6.1719,1.619 7.8985,0.518 1.2766,-0.813 3.2116,-5.456 3.2806,-7.671 0.077,-2.429 -2.653,-5.738 -5.2168,-6.94 -3.1932,-1.498 -1.7539,2.208 -3.729,5.102 -0.7865,1.153 -2.3098,1.298 -3.7027,2.093 -4.1176,2.349 -5.6158998,9.336 -5.5759998,15.187 0.0152,2.225 1.0474998,19.324 2.3060998,21.644 2.8339,2.214 1.7994,-10.867 1.8494,-8.638 z m 98.323997,-12.224 c 0.659,0.162 1.416,0.273 2.212,0.13 0.608,-0.109 2.682,-4.317 2.891,-5.866 0.267,-1.978 -0.867,-1.539 -3.433,-2.049 -1.696,-0.336 -4.625,-2.362 -5.885,-3.413 -6.121,-5.111 -7.358,-7.902 -13.828997,-7.353 -4.598,0.389 -9.01,1.662 -9.22,6.617 -0.057,1.34 0.202,3.133 0.202,3.133 0,0 4.778,-0.05 7.285,0.157 0.836,0.069 1.419,0.167 1.831,-0.188 0.506,-0.436 0.754,-1.553 1.275,-1.841 0.653,-0.363 2.307,0.554 3.138,1.313 1.069,0.975 2.392997,2.647 2.392997,2.647 0,0 -2.494997,0.744 -4.353997,1.554 -3.854,1.68 -5.104,3.692 -7.847,3.939 -1.797,0.162 -7.172,-1.401 -8.827,-2.888 -0.438,-0.394 -1.86,-2.199 -2.298,-3.318 -0.375,-0.959 -0.419,-1.223 -0.442,-2.641 -0.087,-5.333 0.347,-30.451 -2.564,-41.1080004 -0.373,-1.36300002 -0.458,-1.52000002 -0.852,-1.56800002 -2.413,-0.296 -3.347,3.82900002 -3.652,5.47300002 -0.506,2.724 3.267,20.1650004 3.432,28.4560004 0.267,13.304 -3.117,20.941 7.847,24.159 1.466,0.431 3.415,0.841 5.207,0.86 4.141,0.007 8.292,-4.466 10.327,-5.285 4.439997,-1.788 11.289997,-1.871 15.162997,-0.92 z m -75.139997,-1.733 c 0,0 0,0.917 0,1.678 0.234,0.645 0.451,1.249 0.652,1.814 0.344,0.97 0.285,2.02 0.858,3.034 0.412,0.172 0.689,0.413 0.875,0.696 0.176,0.267 0.684,3.277 0.38,3.626 -0.442,0.508 -3.964,-6.533 -4.422,-6.818 -0.913,-0.57 -0.972,-1.96 -0.795,-2.633 0.156,-0.589 0.455,-1.25 1.275,-1.397 0.493,-0.089 1.177,0 1.177,0 z m 23.919,-39.923 c 0,0 1.48,17.287 1.948,22.752 0.203,2.372 0.741,17.258 -1.207,17.979 -0.783,0.289 -1.678,0.594 -2.395,0.767 -2.166,0.524 -5.037,-1.132 -6.326,-3.151 -1.436,-2.249 -1.633,-6.654 -2.943,-8.403 -2.493,-3.33 -11.277,0.781 -13.977,2.888 -1.608,1.256 -6.585,7.689 -7.11,9.191 -1.069,3.057 -0.998,6.394 -1.962,9.454 -3.2552,10.335 -16.4245,20.269 -25.0313998,26.722 -0.1319,0.099 -0.2497,0.188 -0.3548,0.268 -5.9633,4.563 7.9381,-0.94 5.8954,-0.255 1.2965,-0.435 2.563,-0.846 3.7938998,-1.269 7.8846,-2.712 12.7923,-5.794 16.1949,-14.221 0.191,-0.473 0.376,-0.963 0.557,-1.471 1.447,-4.084 2.424,-10.223 3.31,-10.299 1.407,-0.122 3.883,4.451 6.424,6.828 2.203,2.061 4.793,2.453 6.269,-0.065 2.914,-4.973 4.25,-10.269 0.842,-14.904 -0.768,-1.045 -1.758,-1.934 -1.962,-3.235 -0.179,-1.145 0,-2.805 0,-2.805 0,0 1.731,-0.185 2.619,0 0.698,0.146 0.876,0.521 1.059,1.051 2.388,6.915 2.868,12.31 10.054,11.029 2.784,-0.496 5.89,-1.533 7.111,-3.151 3.679,-4.877 4.216,-9.175 4.005,-14.181 -0.366,-8.683 -1.308,-27.31 -1.308,-27.31 0,0 0,0 0,0 -0.014,-1.858 3.395,2.789 2.452,-1.775 0,-0.275 0,-0.326 0,-0.326 l -3.326,-11.6240004 c -0.387,-1.35600002 -0.485,-1.51300002 -0.976,-1.57300002 -2.172,-0.266 -5.982,3.51100002 -5.997,5.63400002 -0.004,0.577 0.631,2.048 1.42,2.968 0.709,0.827 0.801,1.075 0.921,2.4870004 z"/>
</svg>