<?xml version="1.0" encoding="UTF-8" standalone="no"?>
<svg>
  <path
     style="fill:#000000;stroke:none"
     d="m 146.07778,81.097179 c 0.035,-0.18625 0.0775,-0.44 0.008,-0.5675 -0.13,-0.2375 -0.65,-0.0412 -1.17125,0.21375 -1.47,0.71875 -2.95375,1.905 -4.435,2.745 -0.67125,0.38125 -1.42875,0.76501 -2.225,1.06376 -2.30375,0.86125 -5.8625,1.19875 -4.365,-2.10001 0.8125,-1.78625 3.3025,-3.61625 3.90125,-5.05625 0.32125,-0.77375 -0.14125,-2.83875 -1.17875,-3.3825 -1.4325,-0.75 -4.5675,0.86625 -5.35875,1.75375 -1.0525,1.18 -2.5025,4.28125 -1.6575,4.67375 0.45125,0.21 1.635,-0.61 2.7225,-0.87375 0.46125,-0.1125 0.905,-0.12375 1.05875,0.0738 0.16875,0.2175 -0.0138,0.68875 -0.27125,1.18375 -1.6025,3.0975 -4.135,5.13501 -3.51125,7.24751 1.8675,6.32375 11.69,-2.7425 15.2075,-5.67501 1.1025,-0.9175 1.23,-1.0475 1.27625,-1.3 z m -12.4775,-32.94251 0.64,-0.0113 c 0.2875,-0.005 0.365,-0.18 0.7725,-1.75 2.33875,-9.03376 2.76625,-14.02126 -2.98875,-19.81376 -0.94875,-0.95375 -2.0525,-1.755 -2.76375,-0.9 -0.4825,0.58125 -0.97625,4.675 -0.755,5.57 0.38375,1.56375 1.525,2.07125 2.84125,3.1325 2.975,2.39875 3.72125,4.19875 3.3425,7.3925 -0.29,2.45251 -1.08875,6.38001 -1.08875,6.38001 z m -21.94876,-22.53501 c -0.54375,0.5275 -1.05625,1.04125 -1.48625,1.5 -3.5925,3.83625 -4.0825,10.14625 -0.6375,15.01375 0.54125,0.765 1.57,1.70501 2.36,1.15876 1.0325,-0.71251 1.18875,-5.39876 1.1275,-5.53126 -0.75125,-1.61875 -3.00875,-3.53 -3.00875,-3.53 0,0 1.38875,-1.3925 3.09375,-3.06875 10.27875,-10.11001 21.48126,-15.34751 28.92001,-18.47376 1.3175,-0.65875 2.13,-1.0625 2.13,-1.0625 0,0 -0.385,1.52875 -0.515,3.10625 -0.1375,1.67375 -0.0212,3.4025 -0.0212,3.4025 0,0 0.05,0.006 0.13125,0.0112 0.49375,-0.85875 3.79251,-4.81875 4.64501,-5.535 0.71625,-0.6025 1.525,-1.14875 2.25125,-1.56875 1.255,-0.72375 2.3725,-1.3224999 3.39,-2.0724999 1.16875,-0.86125 3.03,-4.18875 3.12625,-5.59375 0.0913,-1.30125 -0.05,-2.87875997 -0.05,-2.87875997 0,0 -3.4075,0.0588 -3.4075,0.0588 0,0 -13.83001,7.28500997 -20.20501,10.64250987 -6.47625,3.41 -16.98001,9.69875 -21.84376,14.42126 z m -5.81625,-17.4487599 0.2625,4.9912499 5.3525,-0.7175 c 1.54125,-0.20625 1.79875,-0.14625 2.56875,0.60625 0.25,0.2425 0.535,0.6025 0.82125,1.0175 7.245,10.51126 3.33625,1.015 6.35125,-3.355 0.58125,-0.8424999 0.46375,-0.34375 0.85,-0.65875 1.805,-1.4737499 5.56251,-0.9637499 6.38126,-2.2899999 1.10625,-1.79 0.535,-7.26750997 0.535,-7.26750997 0,0 -2.50625,0.0525 -4.22876,0.44375 -3.14875,0.71374997 -4.14625,2.22875997 -5.25375,5.27750997 -0.835,2.29875 -1.775,5.8599999 -1.775,5.8599999 0,0 -0.79,-0.92375 -1.3725,-1.75875 -1.515,-2.1687499 -1.62375,-3.7362499 -2.5475,-4.8449999 -0.59,-0.70875 -5.43,-3.0525 -6.665,-2.1675 -0.49625,0.355 -0.80875,1.30875 -1.03375,2.04125 -0.3025,0.9875 -0.3275,1.27 -0.24625,2.8225 z M 89.196514,85.082189 c 0.2025,2.80125 1.51,4.5425 3.88625,5.045 3.06625,0.64875 4.80125,-1.01375 5.58625,-4.37875 0.1725,-0.7375 0.13375,-1.3525 -0.34125,-1.64875 -0.9025,-0.56501 -3.38375,0.0213 -4.58375,-0.61626 -1.49125,-0.7925 -1.87125,-4.16125 -1.5025,-5.73625 0.37,-1.5775 1.31125,-3.26625 1.5675,-4.48125 0.0525,-0.24625 0.0762,-0.4725 -0.0312,-0.59875 -0.0137,-0.0163 -0.0263,-0.0312 -0.04,-0.045 -3.60875,-0.8225 -4.48625,13.21626 -4.54125,12.46001 z m -27.17627,-28.10502 c 0,0 0.59,-1.36 0.94625,-2.4375 0.6025,-1.81875 0.50625,-3.1325 0.26875,-5.01375 -0.6625,-5.2475 -1.68125,-17.13376 -1.68125,-17.13376 0,0 1.8275,-0.205 3.22376,-0.16875 3.77625,0.0987 4.87625,1.8775 6.8625,-0.1075 1.2925,-1.29125 2.45,-5.87 1.6225,-7.57875 -0.94625,-1.955 -4.15,-2.89751 -5.62375,-1.30125 -0.67875,0.73625 -1.06625,1.89625 -1.84375,2.66125 -1.20375,1.185 -3.34251,1.41875 -4.40251,2.40625 -1.81375,1.69125 -2.0575,13.50875 -1.72375,16.30876 0.56375,4.7225 2.35125,12.365 2.35125,12.365 z m -39.54752,-45.95502 -6.1025,6.06125 c -1.01375,1.0075 -1.1575,1.18875 -1.44125,1.80875 -0.39762,0.86875 -0.53512,2.32125 -0.33987,2.51875 0.63237,0.6375 2.86612,-0.91 3.64487,-1.48375 6.81001,-5.02375 9.91376,-8.1875 11.01501,-14.6924999 0.56,-3.30626 -1.19125,-4.58500997 -4.28875,-5.00750997 -4.91501,-0.66875 -9.79126,0.0163 -11.70013,3.71625997 0.298,14.1262499 0.71762,6.0475 4.88512,5.045 4.63625,-1.11625 9.62126,-3.59375 4.3275,2.0337499 z m 20.88876,14.59751 c -0.5425,0.5275 -1.055,1.04125 -1.48625,1.5 -3.5925,3.83625 -4.0825,10.14625 -0.6375,15.01375 0.54125,0.765 1.57,1.70501 2.36,1.15876 1.03251,-0.71251 1.18876,-5.39876 1.12751,-5.53126 -0.75125,-1.61875 -3.00876,-3.53 -3.00876,-3.53 0,0 1.39,-1.3925 3.09376,-3.06875 10.27875,-10.11001 21.48126,-15.34751 28.92001,-18.47376 1.3175,-0.65875 2.13,-1.0625 2.13,-1.0625 0,0 -0.385,1.52875 -0.515,3.10625 -0.1375,1.67375 -0.0212,3.4025 -0.0212,3.4025 0,0 0.05,0.006 0.13125,0.0112 0.49375,-0.85875 3.7925,-4.81875 4.645,-5.535 0.71625,-0.6025 1.525,-1.14875 2.25125,-1.56875 1.255,-0.72375 2.3725,-1.3224999 3.39001,-2.0724999 1.16875,-0.86125 3.03,-4.18875 3.1275,-5.59375 0.09,-1.30125 -0.0513,-2.87875997 -0.0513,-2.87875997 0,0 -3.4075,0.0588 -3.4075,0.0588 0,0 -13.83001,7.28500997 -20.20501,10.64250987 -6.47626,3.41 -16.98001,9.69875 -21.84377,14.42126 z m -5.815,-17.4487599 0.26125,4.9912499 5.35375,-0.7175 c 1.54001,-0.20625 1.79751,-0.14625 2.56751,0.60625 0.25,0.2425 0.535,0.6025 0.82125,1.0175 7.24625,10.51126 3.33625,1.015 6.35125,-3.355 0.58125,-0.8424999 0.46375,-0.34375 0.85,-0.65875 1.805,-1.4737499 5.5625,-0.9637499 6.38125,-2.2899999 1.10625,-1.79 0.535,-7.26750997 0.535,-7.26750997 0,0 -2.505,0.0525 -4.22875,0.44375 -3.14875,0.71374997 -4.145,2.22875997 -5.25375,5.27750997 -0.835,2.29875 -1.775,5.8599999 -1.775,5.8599999 0,0 -0.79,-0.92375 -1.3725,-1.75875 -1.515,-2.1687499 -1.62375,-3.7362499 -2.54625,-4.8449999 -0.59125,-0.70875 -5.43126,-3.0525 -6.66626,-2.1675 -0.495,0.355 -0.80875,1.30875 -1.03375,2.04125 -0.3025,0.9875 -0.32625,1.27 -0.245,2.8225 z M 9.6187222,50.494669 c 1.4240008,-1.46125 2.5722518,-3.9525 3.2068718,-6.75375 0.96663,-4.26751 -0.43262,-2.29876 -3.0481218,-1.65126 -12.404756,3.07376 -4.099002,-24.80376 -7.260003,-15.42625 -0.771501,2.28875 -1.485376,5.56125 -1.95575096,8.2125 -3.28212704,18.50251 8.88287896,15.79751 9.05700396,15.61876 z m 72.6952818,11.3175 0,0 c 0,0 -0.93125,-0.0825 -1.77875,-0.23375 -0.23875,-0.0437 -3.48375,-0.9975 -5.2775,-1.8025 -3.01125,-1.3525 -1.91375,-2.15125 -0.14375,-2.59375 5.58625,-1.6025 7.5225,-1.27 7.9825,-0.52625 -2.81125,1.41 -0.7825,5.15625 -0.7825,5.15625 z m -76.4975338,-2.61 c 0.363501,-2.075 0.846876,-5.2725 0.973251,-6.455 -0.871626,2.6175 1.991126,-14.55876 -2.701626,3.00875 -2.309877,10.11126 -4.49450296,27.81876 6.7168778,33.19627 4.185251,2.18875 9.334001,1.6975 13.441511,-1.8975 3.7725,-3.30251 8.3275,-8.78751 12.0075,-13.24001 1.0225,-1.23625 1.9975,-2.41125 2.4725,-3.8825 0.19,-0.5875 0.31875,-1.17 0.4525,-1.67 l 0.8825,-3.2825 2.0875,3.51125 c 0.425,0.71625 0.87125,1.55125 1.425,2.27125 3.71626,4.82625 11.55126,5.95625 16.32626,3.46875 1.61,-0.83875 3.03125,-2.08875 4.375,-3.17375 l 3.29251,-2.6575 4.2325,1.63 c 2.66125,1.02375 6.15875,2.5425 8.83125,3.69125 2.815,1.20875 4.48876,0.8425 5.99251,-1.18 2.32,-3.1175 5.255,-11.68126 4.14375,-14.44751 -0.9675,-2.40625 -4.18625,-4.81875 -4.22125,-7.4275 -0.0325,-2.4 1.29375,-3.6675 -1.97626,-4.54 -4.81125,-1.28375 -14.28375,4.43625 -16.485,8.57375 -0.99375,1.86875 -1.15,4.1075 -2.28625,5.6875 -1.70376,2.37 -8.13376,4.65251 -11.41626,4.04251 -2.87875,-0.53625 -8.22375,-4.39126 -10.03375,-6.39376 -1.63376,-1.80625 -3.71376,-5.64875 -4.91126,-9.0725 -0.9425,-2.69125 -1.67375,-5.515 -2.95625,-7.78876 -0.3375,-0.5975 -0.71375,-1.15875 -1.00375,-1.7975 -0.38375,-0.845 -0.6175,-1.8275 -0.9725,-2.71 -0.10625,-0.265 -0.22375,-0.52 -0.3975,-0.7425 -0.2325,-0.29875 -0.37125,-0.4625 -1.39125,-1.63875 -4.54125,-5.23375 -6.6175,-9.325 -8.94125,-5.73125 -2.88251,4.45875 -2.14626,8.6375 0.955,11.84875 1.825,1.88875 4.20625,2.81751 6.02375,4.75126 0.8225,0.875 5.6175,9.58625 5.75625,11.85 0.22875,3.7125 -8.31,14.05626 -10.38375,16.40126 -4.15501,4.6975 -8.42626,6.81 -12.55488,5.2875 -1.49263,-0.55 -2.748631,-1.18125 -3.8002568,-1.88125 -5.205002,-3.465 -5.068752,-11.25 -3.954877,-17.61001 z m 118.5625498,-2.16875 4.07126,2.9175 -3.89251,1.1525 c -3.29125,0.975 -9.40125,0.91125 -9.79875,0.8325 -3.51375,-0.6975 -9.0375,-4.18125 -8.71,-5.275 0.24125,-0.8025 6.5175,-3.6875 9.79875,-3.43125 2.39625,0.18625 5.8725,1.89875 8.53125,3.80375 z m -21.23376,-3.71 c -1.05375,-1.80375 -1.725,-5.2075 -2.10375,-7.56375 -0.76375,-4.75626 -1.329996,-12.88001 -1.318746,-17.13876 0.007,-3.2075 0.343746,-5.90625 0.0438,-10.15001 -0.48875,-6.925 -2.67125,-17.96500987 -2.67125,-17.96500987 0,0 -0.90375,-0.0463 -1.38,0.0712 -0.43375,0.1075 -0.5125,0.35 -0.6025,0.60874997 -0.68625,1.99001 -1.95875,4.95126 -2.74,8.21626 -0.36875,1.5374999 5.4475,46.5312699 6.49625,49.9062699 2.469996,7.95251 6.311246,13.13126 15.013756,13.62876 3.20625,0.1825 4.6875,-0.53125 8.025,-1.83 2.0875,-0.8125 12.96251,-2.025 15.17626,-1.6925 4.37,0.65625 9.80251,2.17 9.80251,2.17 0,0 0.2325,-2.6 1.08375,-5.0475 1.0475,-3.015 3.03625,-5.80001 3.03625,-5.80001 0,0 -3.5175,-0.81625 -6.01626,-1.54 -8.46125,-2.44875 -8.79,-3.88375 -13.2075,-8.82625 -2.79,-3.12125 -6.16126,-5.42 -9.54001,-6.61 -8.115,-2.85876 -12.77625,1.2425 -15.14875,5.235 -1.97626,3.32375 -1.0925,9.22125 -3.94876,4.3275 z" />
</svg>
