<?xml version="1.0" encoding="UTF-8" standalone="yes"?>
<svg>
  <path
    style="stroke:none; fill:#000000"
    d="m 63.015266,107.47531 -3.518422,-3.52689 3.669491,-3.66134 3.669491,-3.66135 2.602594,2.60259 2.602596,2.6026 2.400267,-2.62623 2.40027,-2.62622 3.693173,3.68498 3.693173,3.68497 -3.518422,3.52689 c -1.935131,1.93979 -3.652807,3.52689 -3.817052,3.52689 -0.164249,0 -1.321165,-1.02856 -2.570926,-2.2857 l -2.272293,-2.2857 -2.503681,2.2857 c -1.377025,1.25714 -2.618015,2.2857 -2.75776,2.2857 -0.139742,0 -1.837369,-1.5871 -3.772499,-3.52689 z M 17.42863,99.57991 c -0.441015,-0.0665 -1.605676,-0.669 -2.588134,-1.33895 C 11.212389,95.7669 10.048286,92.28339 9.8178675,83.21102 L 9.6707579,77.41899 8.2476234,76.75243 C 6.6821186,76.01918 5.6496342,74.87063 4.3959592,72.46776 3.6244047,70.98895 3.571417,70.67112 3.5809154,67.57906 3.5963864,62.54467 4.723039,59.03759 7.7445908,54.61835 8.0224759,54.21192 8.7047656,52.97602 9.2607888,51.8719 L 10.27174,49.86442 9.07484,49.1292 C 8.4165452,48.72483 7.2636033,48.1053 6.5127482,47.75248 4.8324164,46.96291 3.220581,45.13475 2.8359325,43.58219 2.6771102,42.94114 2.3554684,41.7871 2.1211704,41.01766 c -0.5486443,-1.80177 -0.540992,-5.35449 0.01898,-8.80736 0.7092149,-4.3732 1.4098602,-4.86827 4.059063,-2.8681 1.5404086,1.16302 6.4855106,3.7284 7.1869696,3.7284 0.205538,0 0.584323,0.32144 0.841742,0.71432 0.44689,0.68203 0.427698,0.7858 -0.424724,2.2962 -1.219466,2.16078 -1.173512,2.84402 0.251802,3.74378 1.404115,0.88638 1.622266,0.89443 2.044525,0.0755 0.183493,-0.35587 0.565821,-0.90585 0.849619,-1.22217 0.532923,-0.59402 3.919082,-6.38292 6.392036,-10.92768 1.099488,-2.02063 1.41872,-2.90342 1.455857,-4.02599 l 0.04757,-1.43785 -1.488151,0.0379 c -1.161443,0.0296 -1.864567,0.26662 -3.202696,1.07949 -1.655382,1.00559 -2.215569,1.54866 -4.886826,4.73755 -1.049876,1.25333 -1.388735,1.47806 -2.228671,1.47806 -0.849917,0 -0.990542,-0.0966 -0.990542,-0.68043 0,-0.99436 2.486185,-6.0793 3.953507,-8.08602 1.643888,-2.2482 7.27382,-8.25665 9.057872,-9.66686 2.452349,-1.93847 4.611316,-1.7798 5.734299,0.42142 0.521548,1.02232 0.577426,1.50653 0.434972,3.76915 -0.137276,2.18034 -0.34856,3.02544 -1.319225,5.27666 -0.635675,1.47429 -1.602757,3.4801 -2.149075,4.45734 -2.264525,4.05076 -8.613888,16.60555 -8.460619,16.72943 0.04472,0.0362 0.987163,0.35066 2.094309,0.69892 1.107147,0.34825 3.436468,1.31556 5.176269,2.14957 3.625438,1.73792 5.122178,3.11992 6.47344,5.97716 1.527295,3.22947 1.450859,5.45698 -0.381747,11.12463 -1.112625,3.44099 -2.585519,5.43382 -5.926455,8.01854 -1.174429,0.90859 -2.597903,2.04475 -3.163275,2.5248 -1.360131,1.15486 -3.149006,2.2904 -4.518141,2.86803 -1.557114,0.65694 -6.2608,2.15435 -6.767278,2.15435 -0.733788,0 0.327871,4.41414 1.655123,6.88165 1.014333,1.88575 1.295954,2.18166 2.850937,2.99557 1.585045,0.82965 1.947689,0.90272 4.457342,0.89814 5.068927,-0.009 8.688988,-1.80442 13.235375,-6.56339 5.02371,-5.2586 8.13733,-9.61825 9.066873,-12.69529 0.238899,-0.79082 0.512419,-2.60455 0.607823,-4.03051 0.155863,-2.32963 0.09059,-2.85478 -0.64345,-5.17627 -0.4493,-1.42099 -2.290027,-5.54883 -4.090503,-9.17299 -3.266634,-6.57537 -3.278936,-6.59462 -5.787859,-9.05847 -1.382846,-1.358 -2.689939,-2.91098 -2.904648,-3.45107 -0.323611,-0.81403 -0.331197,-1.82048 -0.04435,-5.88476 0.190314,-2.69654 0.465459,-5.02222 0.611431,-5.16819 0.162155,-0.16216 0.803878,0.002 1.649582,0.42092 0.999978,0.49583 1.844535,1.28498 3.042703,2.84311 5.919848,7.69831 8.395344,13.43618 10.669741,24.73106 1.811157,8.99437 2.950703,12.89288 4.561745,15.60622 1.290513,2.17349 4.821113,5.66181 6.669294,6.58942 0.644469,0.32347 1.561442,0.87988 2.037719,1.23647 0.476277,0.3566 1.927982,1.18234 3.226011,1.83497 7.728673,3.8859 15.805555,3.65036 19.813028,-0.5778 0.652814,-0.68876 1.696801,-1.79387 2.319975,-2.45581 0.623174,-0.66194 1.505224,-1.29694 1.960115,-1.41111 0.719394,-0.18055 0.92116,-0.08 1.549746,0.77217 1.240935,1.68238 3.663564,3.93472 4.923666,4.57757 1.781456,0.90883 5.01782,1.51326 6.895434,1.28779 3.06065,-0.36753 6.35475,-1.29874 8.61595,-2.43565 1.84013,-0.9252 2.56989,-1.49933 3.74923,-2.94966 2.36251,-2.90538 4.34957,-4.35947 9.20261,-6.73426 5.91691,-2.8954 9.58051,-4.0821 13.65959,-4.42457 1.73981,-0.14607 4.13383,-0.39325 5.32006,-0.5493 1.18623,-0.15605 2.99792,-0.2897 4.02598,-0.29701 2.81807,-0.02 2.87341,-0.15163 1.11524,-2.65229 l -1.51584,-2.15598 -4.30276,-0.18623 c -7.51976,-0.32549 -8.25198,-0.27979 -10.8787,0.67884 -3.27128,1.19387 -3.35549,1.10209 -3.69569,-4.0278 -0.28216,-4.25461 -0.31659,-4.1156 1.6577,-6.69259 1.47315,-1.92287 3.19162,-2.92178 6.07954,-3.5339 5.10754,-1.0826 11.02052,0.0176 14.10342,2.62423 0.9805,0.82902 4.81964,5.54376 7.8291,9.61469 2.22704,3.01255 3.70972,4.27047 6.86222,5.82195 3.67045,1.80639 6.8038,2.77969 9.92118,3.08179 3.16044,0.30627 3.50019,0.43201 4.05235,1.49977 0.39137,0.75682 0.38978,0.99822 -0.0154,2.33761 -0.73487,2.42931 -3.6349,7.46998 -4.55003,7.90859 -0.70876,0.3397 -1.45141,0.21264 -7.18418,-1.22913 -10.07005,-2.53259 -12.53817,-2.70983 -27.60202,-1.9821 -3.49146,0.16867 -3.66628,0.20626 -3.66129,0.78726 0.003,0.33557 0.38265,1.167 0.84393,1.84762 1.00993,1.49013 1.38785,3.84703 0.92709,5.78178 -0.17293,0.72615 -1.29712,3.22753 -2.49821,5.55862 -1.99733,3.87645 -2.29627,4.30426 -3.50097,5.01026 -1.30066,0.76224 -1.34445,0.76733 -3.49351,0.40622 -2.4692,-0.41489 -6.53208,-1.76508 -8.24373,-2.73957 -0.63265,-0.36019 -2.21316,-1.29712 -3.51225,-2.08205 -1.29909,-0.78494 -2.8929,-1.60239 -3.5418,-1.81655 -1.13025,-0.37301 -1.25458,-0.35046 -2.95809,0.53655 -0.97803,0.50926 -2.29587,1.2428 -2.92853,1.6301 -0.63265,0.3873 -2.02784,1.0423 -3.10041,1.45555 -1.701633,0.65563 -2.416205,0.75688 -5.607628,0.7946 -3.356945,0.0397 -3.781273,-0.0158 -5.163848,-0.67562 -1.242707,-0.59304 -1.824563,-1.15776 -3.32439,-3.22647 l -1.818038,-2.50762 -3.246532,2.30277 c -6.887486,4.88531 -10.910392,6.01596 -16.45287,4.6241 -4.107082,-1.03139 -7.888734,-3.35287 -12.716418,-7.80637 -3.055782,-2.81894 -4.929401,-6.02916 -6.412874,-10.98768 -0.392096,-1.31059 -0.962607,-2.09086 -0.967625,-1.32339 -0.0061,0.92941 -3.928092,8.62173 -5.668972,11.11867 -2.079577,2.98273 -7.573666,8.8409 -10.165126,10.83875 -4.248155,3.27506 -8.319451,4.56886 -12.42827,3.94953 z M 124.45117,81.80926 c 0.45558,-0.43182 1.24943,-3.25624 1.01969,-3.62796 -0.27118,-0.43879 -1.49742,-0.26938 -3.05978,0.42272 -2.6807,1.18752 -2.83908,2.01385 -0.62766,3.27481 1.14308,0.65179 1.9283,0.63131 2.66775,-0.0696 z M 19.043439,65.09743 c 3.91652,-1.97659 8.362949,-4.61954 8.740043,-5.19505 0.423312,-0.64606 0.414984,-0.75058 -0.116512,-1.46246 -0.927622,-1.24245 -4.200519,-2.81218 -9.704655,-4.65448 -2.836273,-0.94934 -5.182129,-1.69577 -5.213015,-1.65874 -0.313446,0.37586 -4.1661365,8.15219 -4.4199893,8.92138 -0.5479771,1.66038 0.1144617,2.83635 2.0303973,3.60437 0.849319,0.34046 2.061846,0.74487 2.694501,0.89868 1.53003,0.372 4.851736,0.12037 5.98923,-0.4537 z m 58.186915,0.85206 c -0.105443,-0.10544 -0.191714,-0.66836 -0.191714,-1.25092 0,-1.4605 0.929471,-2.64205 5.292599,-6.728 3.083716,-2.88781 4.772367,-4.93841 4.772367,-5.79528 0,-0.29991 -1.970683,0.0388 -4.696736,0.80715 -2.282375,0.64334 -2.698993,0.87297 -4.108148,2.26433 -2.088685,2.06232 -2.153653,1.94148 -2.527791,-4.70126 -0.13167,-2.33776 -0.09379,-2.56786 0.548357,-3.331 0.379389,-0.45088 1.505239,-1.26026 2.501889,-1.79862 1.744285,-0.94221 1.94869,-0.98273 5.46249,-1.0829 3.406189,-0.0971 3.755918,-0.0558 5.227706,0.61805 1.783875,0.81668 2.483844,1.82372 2.476002,3.56219 -0.0064,1.42168 -0.894841,4.80552 -1.647278,6.27415 -1.51667,2.96028 -7.341033,8.53391 -10.980068,10.50739 -1.664141,0.90247 -1.830716,0.95368 -2.129675,0.65472 z m 23.405876,-6.14304 c -0.009,-0.0836 -0.46711,-2.43323 -1.017471,-5.22143 -1.454413,-7.3682 -1.647597,-9.56042 -1.300109,-14.75348 0.514352,-7.6867 0.883992,-8.70555 3.6527,-10.068 2.05911,-1.01326 2.78596,-1.61908 3.73533,-3.11336 0.93712,-1.47499 2.34606,-2.07212 3.78019,-1.60211 2.17223,0.7119 2.92294,1.72293 2.92294,3.93656 0,1.53187 -1.06456,4.7722 -1.84422,5.61347 -0.98307,1.06075 -1.9112,1.20136 -4.58499,0.69463 -1.32411,-0.25094 -3.037,-0.37926 -3.94176,-0.29529 l -1.60007,0.14851 0.36416,2.91642 c 0.20029,1.60403 0.37147,3.82227 0.3804,4.92941 0.009,1.10715 0.21687,3.63058 0.46209,5.60763 0.83443,6.72731 0.83335,6.80489 -0.12773,9.20225 -0.47555,1.18623 -0.87221,2.08839 -0.88146,2.00479 z M 66.799052,53.58502 c 0.960154,-4.13229 1.312115,-9.39235 0.705266,-10.54025 -0.543433,-1.02795 -2.296877,-2.90831 -4.176797,-4.47914 -2.246627,-1.87723 -2.509153,-2.58746 -2.080647,-5.62895 0.600792,-4.26437 1.462187,-4.59329 4.299127,-1.64161 1.203672,1.25235 2.334543,2.82392 3.124091,4.34153 1.05823,2.03405 1.259786,2.70371 1.391303,4.62251 0.190797,2.78366 -0.282656,6.64991 -1.32067,10.78465 -0.706,2.81222 -0.868322,3.17403 -1.462681,3.26019 -0.600097,0.087 -0.649145,0.0134 -0.478992,-0.71893 z m 84.572988,-5.63265 c 0.10493,-0.67219 0.39114,-2.24627 0.63601,-3.49795 0.9536,-4.87427 -0.0348,-7.84341 -3.46829,-10.4188 -3.14794,-2.36119 -3.4245,-3.10052 -2.73088,-7.30051 0.20241,-1.22562 0.52955,-2.17091 0.85243,-2.46312 0.48923,-0.44274 0.59974,-0.42894 1.66659,0.20812 1.33675,0.79823 3.82321,3.55949 4.63091,5.14271 0.31008,0.60781 0.84184,2.11749 1.18169,3.35484 0.91919,3.34671 0.57802,7.30452 -1.19662,13.88139 -0.51396,1.9048 -0.72569,2.3155 -1.1937,2.3155 -0.50752,0 -0.54833,-0.13189 -0.37814,-1.22218 z M 50.63096,45.22045 c -0.467176,-0.43495 -1.265681,-1.62381 -1.774459,-2.64191 -0.884467,-1.76987 -0.920128,-1.97175 -0.812853,-4.60113 0.09509,-2.33073 0.246644,-3.03503 0.993964,-4.61924 1.279332,-2.712 3.043842,-4.69907 7.053029,-7.94264 3.699125,-2.99273 7.199904,-5.21628 13.758737,-8.73898 2.135211,-1.14681 5.370379,-2.88987 7.189262,-3.87346 3.412268,-1.84525 6.483722,-3.29184 11.215248,-5.28215 1.502556,-0.63205 4.2848,-1.84813 6.182765,-2.70239 C 100.03485,2.29882 107.10446,0 109.25518,0 c 1.57925,0 1.95816,0.21994 2.62258,1.52231 0.5143,1.00812 0.54958,1.31115 0.26376,2.26515 -0.36501,1.21829 -1.23442,1.79084 -4.04527,2.66398 -4.69686,1.45901 -5.57769,2.03451 -10.981873,7.17511 -2.738059,2.60451 -6.243442,6.05723 -7.78974,7.67271 -1.546301,1.61547 -2.888033,2.86065 -2.981629,2.76706 -0.208977,-0.20898 1.689471,-3.7087 2.759299,-5.08667 0.625923,-0.80621 2.994181,-4.83765 3.417209,-5.81705 0.189227,-0.4381 -2.427886,-0.19166 -3.978057,0.37459 -0.869901,0.31775 -3.030024,1.07864 -4.800273,1.69085 -11.029251,3.81428 -30.20659,16.99871 -32.415672,22.28578 -0.476144,1.13958 -0.39896,1.59576 0.269992,1.59576 0.643304,0 0.990959,0.96075 1.187042,3.28042 0.147843,1.74899 0.09153,2.29756 -0.296658,2.89001 -0.603909,0.92168 -0.808036,0.91513 -1.85493,-0.0596 z m 72.43613,-0.30671 c -1.92174,-2.02017 -2.45982,-3.51053 -2.46073,-6.81569 -8.6e-4,-2.67134 0.0668,-3.01625 0.92863,-4.74491 1.7214,-3.45268 6.7223,-8.16606 12.90322,-12.16136 4.66635,-3.01629 18.32524,-10.1276 25.7083,-13.38466 2.13521,-0.94195 5.37038,-2.37516 7.18926,-3.18491 1.81888,-0.80976 5.31286,-2.14066 7.7644,-2.95758 3.68345,-1.22741 4.82325,-1.48838 6.56483,-1.50307 2.57493,-0.0217 2.925,0.30723 2.925,2.74856 0,1.99176 -0.22606,2.2582 -2.63683,3.1079 -4.70688,1.65898 -6.45211,2.40851 -7.54239,3.23927 -0.6489,0.49444 -4.38263,4.08029 -8.29719,7.96854 -3.91455,3.88826 -7.11736,6.85954 -7.11736,6.60286 0,-0.41004 2.61677,-4.87989 4.26974,-7.29339 0.32498,-0.47449 0.93253,-1.49644 1.35012,-2.271 l 0.75927,-1.40828 -1.67982,0.16296 c -3.95109,0.3833 -15.43384,5.45975 -22.81625,10.08692 -10.20795,6.39817 -17.23059,12.82464 -17.25263,15.788 -8.6e-4,0.11863 0.18918,0.21568 0.42237,0.21568 0.78923,0 1.30145,1.57494 1.30145,4.00159 0,2.04011 -0.0687,2.34149 -0.59827,2.62491 -0.51888,0.2777 -0.74248,0.16858 -1.68512,-0.82234 z M 1.4000299,21.41487 C 1.10525,21.05968 1.1045512,20.74046 1.3964099,19.76629 1.6819731,18.81316 2.6393872,17.66563 5.9328571,14.32901 10.147694,10.05894 11.716497,8.20005 11.385064,7.86862 11.155039,7.63859 5.2768887,9.12547 4.1736332,9.69275 3.7179088,9.92708 2.840307,10.63373 2.2234108,11.26309 1.6065146,11.89245 0.94412477,12.35542 0.75143817,12.29192 0.34917887,12.15935 0.04566547,9.80159 0.00202667,6.47033 -0.03303633,3.79356 0.37506597,2.88406 2.1506612,1.6819 4.1038629,0.35949 6.2997395,-0.09294 9.8170686,0.10235 16.8073,0.49046 18.004439,3.26415 14.397761,10.71554 c -0.957716,1.97864 -1.593293,2.81005 -3.702547,4.84338 -2.3719446,2.28656 -5.6066178,4.71259 -7.7635948,5.82276 -1.1200841,0.57649 -1.0814001,0.57565 -1.5316003,0.0332 z M 60.349594,20.14213 c -0.608298,-0.32169 -1.793126,-1.57367 -2.95064,-3.11788 -1.063801,-1.4192 -2.101815,-2.71948 -2.306701,-2.88952 -0.265787,-0.22058 -0.915518,-0.21918 -2.26778,0.005 -2.322552,0.38486 -3.379468,0.20129 -5.350534,-0.92932 -1.80457,-1.0351 -2.616514,-2.54707 -2.851721,-5.31037 -0.177152,-2.08125 -0.04289,-2.23549 2.532901,-2.90985 1.800734,-0.47144 1.895529,-0.4676 3.916517,0.15877 2.556409,0.7923 3.348174,1.39798 4.302031,3.29094 0.410556,0.81476 1.501161,2.42993 2.423569,3.58926 1.896329,2.38341 1.650289,2.55246 2.417119,-1.66078 0.624028,-3.42864 1.435394,-4.98546 3.920215,-7.52198 2.235844,-2.28236 3.674631,-3.05983 5.03207,-2.71913 1.019552,0.25589 1.895986,2.36193 2.041359,4.90531 0.197187,3.44994 -1.093481,4.95452 -4.771116,5.56187 -3.005719,0.49639 -3.382266,0.73869 -3.949252,2.54129 -0.391892,1.24592 -0.452204,2.14913 -0.304603,4.56148 0.207571,3.39247 0.136763,3.4869 -1.833434,2.44501 z m 72.580176,0.0476 c -0.77154,-0.4192 -3.56553,-3.64091 -4.99116,-5.75523 -0.42153,-0.62516 -0.48506,-0.6318 -2.78851,-0.29155 -2.26946,0.33522 -2.41313,0.32201 -3.86162,-0.35518 -2.2892,-1.07023 -2.71499,-1.52793 -3.54919,-3.81515 -0.96836,-2.65508 -0.78253,-3.82349 0.72573,-4.56301 1.72151,-0.84408 3.10336,-0.9019 5.29026,-0.22133 2.2447,0.69856 3.13693,1.47832 4.75848,4.15872 1.41479,2.33862 3.36778,4.82338 3.55414,4.52185 0.0862,-0.13953 0.36823,-1.40836 0.62666,-2.81963 0.80659,-4.40472 2.70962,-7.68061 5.63042,-9.69225 3.012,-2.07444 4.40306,-1.70564 5.308,1.40725 0.55857,1.92141 0.40534,3.65814 -0.48504,5.49741 -0.71287,1.47259 -1.45997,1.90385 -4.07397,2.3517 -3.80899,0.65257 -4.01173,0.95769 -4.17397,6.28139 -0.12855,4.2182 -0.16351,4.27666 -1.97023,3.29501 z"/>
</svg>