<?xml version="1.0" encoding="UTF-8" standalone="yes"?>
<svg>
<path
	style="stroke:none; fill:#000000"
	d="m 99.165963,28.14516 c -1.223,1.328 -2.126,2.656 -2.579,3.952 -0.895,2.563 -0.729,5.435 1.056,7.905 0.076,0.106 0.146,0.202 0.209,0.288 -0.805,-1.094 2.183997,3.506 2.012,-1.167 -0.041,-1.117 -0.167,-2.519 -0.534,-2.871 -0.213,-0.205 -0.507,-0.057 -0.691,-0.167 -0.828,-0.497 0.581,-2.548 1.252,-3.332 1.513997,-1.766 3.624997,-3.639 6.071997,-5.484 7.172,-5.407 12.505,-7.3 20.335,-11.815 0.612,-0.353 1.289,-0.707 1.437,-0.582 0.361,0.304 -1.041,1.905 -1.298,2.186 -1.17,1.28 -3.326,3.129 -3.389,4.623 -0.01,0.262 0,0.592 0,0.592 l 0.247,0 0,0.493 0.55,0 c 0.247,0 0.326,-0.053 0.791,-0.53 1.704,-1.746 3.475,-3.419 4.949,-5.39 1.397,-1.867 2.538,-4.009 4.015,-5.544 0.965,-1.004 1.42,-1.257 1.645,-3.06 0.094,-0.759 0.138,-1.757 0.138,-1.757 0,0 -0.532,-0.038 -0.987,0 -0.555,0.046 -2.141,1.021 -2.995,1.8 -0.851,0.778 -1.878,1.434 -2.926,2.024 -0.468,0.263 -0.941,0.513 -1.415,0.759 -1.706,0.885 -3.38,1.737 -5.026,2.584 -5.714,2.936 -18.342,9.578 -22.867997,14.493 z m -91.5791,-7.612 -4.8813,4.849 c -0.8112,0.806 -0.9266,0.951 -1.1535,1.447 -0.3179,0.695 -0.4278,1.857 -0.2716,2.015 0.5056,0.51 2.2931,-0.728 2.9153,-1.187 5.4492,-4.019 7.9312,-6.55 8.8122,-11.753 0.448,-2.645 -0.953,-3.669 -3.431,-4.006 -3.9311,-0.536 -7.8325,0.012 -9.3598,2.972 0.2384,11.301 0.5741,4.838 3.9081,4.036 3.7087,-0.892 7.6967,-2.875 3.4616,1.627 z m 28.0231,-4.319 -0.14,-3.204 c -0.057,-1.294 -0.038,-1.526 0.187,-2.32 0.166,-0.588 0.342,-1.232 0.789,-1.647 1.088,-1.01 3.782,-0.661 5.031,-1.493 1.798,-1.199 1.8,-5.316 0.416,-6.985 -1.468,-1.77 -4.434,1.041 -5.65,2.649 -0.747,0.987 -1.454,2.119 -1.772,3.44 -0.147,0.613 -0.229,1.308 -0.344,1.916 l -0.564,2.98 -1.864,-2.372 c -2.552,-3.36 -1.774,-4.359 -5.523,-5.273 -1.256,-0.306 -3.98,-0.191 -4.503,1.223 -0.41,1.107 0.552,3.798 1.154,4.437 0.464,0.491 2.34,1.711 3.115,1.786 1.266,0.122 3.854,-0.649 3.854,-0.649 0,0 2.088,3.006 3.363,4.418 0.557,0.616 1.017,1.112 1.731,1.125 0.295,0.006 0.72,-0.031 0.72,-0.031 z m 4.293,31.064 0.559,-0.01 c 0.251,-0.004 0.318,-0.157 0.674,-1.529 2.042,-7.887 2.416,-12.242 -2.61,-17.301 -0.828,-0.833 -1.792,-1.531 -2.413,-0.785 -0.422,0.507 -0.852,4.083 -0.66,4.863 0.336,1.366 1.332,1.809 2.482,2.736 2.598,2.094 3.249,3.666 2.918,6.455 -0.253,2.141 -0.95,5.571 -0.95,5.571 z m 12.977,30.705 c -0.363,2.271 0.079,2.828 1.588,2.131 1.028,-0.474 14.288,-8.188 16.225,-10.498 0.78,-0.93 1.558,-2.576 1.832,-4.056 0.169,-0.912 -0.104,-0.879 -1.086,-0.514 -2.276,0.846 -17.278,9.978 -17.748,10.804 -0.439,0.77 -0.721,1.57 -0.811,2.133 z m 28.636,-1.735 c 0.163,2.241 1.208,3.635 3.11,4.037 2.453,0.518 3.84,-0.812 4.469,-3.503 0.138,-0.59 0.107,-1.082 -0.273,-1.32 -0.723,-0.451 -2.707,0.017 -3.667,-0.492 -1.194,-0.634 -1.497,-3.33 -1.202,-4.59 0.296,-1.261 1.049,-2.612 1.254,-3.584 0.042,-0.197 0.061,-0.379 -0.025,-0.48 -0.011,-0.012 -0.022,-0.024 -0.032,-0.036 -2.888,-0.658 -3.59,10.573 -3.634,9.968 z m 7.002,-60.034 -0.14,-3.204 c -0.056,-1.294 -0.038,-1.526 0.187,-2.32 0.167,-0.588 0.343,-1.232 0.789,-1.647 1.089,-1.01 3.783,-0.661 5.032,-1.493 1.798,-1.199 1.799,-5.316 0.415,-6.985 -1.467,-1.77 -4.434,1.041 -5.649,2.649 -0.747,0.987 -1.454,2.119 -1.772,3.44 -0.148,0.613 -0.229,1.308 -0.344,1.916 l -0.565,2.98 -1.864,-2.372 c -2.551,-3.36 -1.773,-4.359 -5.522,-5.273 -1.256,-0.306 -3.98,-0.191 -4.504,1.223 -0.41,1.107 0.552,3.798 1.155,4.437 0.463,0.491 2.339,1.711 3.114,1.786 1.266,0.122 3.854,-0.649 3.854,-0.649 0,0 2.088,3.006 3.364,4.418 0.556,0.616 1.017,1.112 1.731,1.125 0.294,0.006 0.719,-0.031 0.719,-0.031 z m 33.039997,31.064 0.559,-0.01 c 0.251,-0.004 0.318,-0.157 0.674,-1.529 2.042,-7.887 2.416,-12.242 -2.61,-17.301 -0.828,-0.833 -1.792,-1.531 -2.413,-0.785 -0.422,0.507 -0.852,4.083 -0.66,4.863 0.336,1.366 1.332,1.809 2.482,2.736 2.598,2.094 3.249,3.666 2.918,6.455 -0.253,2.141 -0.95,5.571 -0.95,5.571 z m -41.016997,-12.934 c -0.041,-1.116 -0.167,-2.518 -0.534,-2.871 -0.212,-0.205 -0.506,-0.056 -0.69,-0.167 -0.828,-0.497 0.581,-2.548 1.252,-3.331 6.094,-7.114 21.888997,-15.947 30.232997,-17.774 0.796,-0.175 1.591,-0.315 1.741,-0.046 0.075,0.134 -0.01,0.369 -0.138,0.634 -0.302,0.624 -0.784,1.379 -1.32,2.187 -11.112997,16.782 6.417,-6.507 11.391,-7.161 0.455,-0.225 0.882,-0.406 1.261,-0.525 1.936,-0.61 4.032,-0.739 4.286,-2.594 0.036,-0.261 0.041,-0.585 0.033,-0.9 -0.085,-3.04 -5.045,-1.586 -8.541,-0.256 -3.235,1.231 -8.04,3.259 -13.136,5.616 -6.593997,3.051 -26.335997,12.209 -29.114997,20.163 -0.895,2.562 -0.728,5.434 1.056,7.905 0.077,0.106 0.146,0.201 0.21,0.287 -0.806,-1.094 2.184,3.506 2.011,-1.167 z m -48.892,42.205 0.84,0.84 3.006,3.006 5.551,-5.55 -5.551,-5.551 -3.468,3.469 -0.378,0.377 -3.845,-3.846 -3.469,3.469 -2.082,2.082 2.544,2.544 3.007,3.006 3.845,-3.846 z m 53.313,-38.183 -2.082,2.081 2.544,2.544 3.006,3.007 5.551,-5.551 -5.551,-5.55 -3.468,3.469 z m -37.39,-11.624 -2.081,2.081 2.544,2.544 3.006,3.007 5.551,-5.551 -5.551,-5.55 -3.469,3.469 z m 68.888997,34.57 c 0.369,-0.014 0.741,-0.022 1.1,-0.02 2.554,0.013 9.458,2.037 10.114,1.726 0.439,-0.207 1.936,-2.495 3.193,-4.712 0.238,-0.421 0.488,-0.849 0.433,-1.33 -0.022,-0.188 -0.097,-0.221 -0.753,-0.338 -5.252,-0.929 -5.718,-1.092 -10.495,-3.734 -0.668,-0.369 -1.325,-0.723 -1.851,-1.233 -0.56,-0.543 -0.971,-1.263 -1.442,-1.923 -3.027,-4.244 -6.41,-5.118 -9.797,-5.059 -3.975,0.069 -6.212,1.235 -7.878997,5.502 -0.387,0.992 -0.623,2.24 -0.37,2.22 0.078,-0.006 0.182,-0.048 0.247,0 0.04,0.029 0.066,0.093 0.105,0.142 0.154,0.194 0.521,0.158 0.882,0.105 2.443997,-0.361 4.479997,-1.452 6.314997,-1.234 0.799,0.095 3.391,1.413 5.196,2.381 0.917,0.492 2.278,1.36 1.284,1.881 -0.699,0.367 -1.812,0.599 -2.64,0.801 l -2.921,0.686 c -0.708,0.262 -1.747,0.39 -1.965,0.418 -1.354,0.179 -6.330997,-0.072 -7.035997,-0.355 -0.385,-0.154 -3.192,-1.63 -3.853,-2.423 -0.692,-0.829 -0.829,-1.491 -1.618,-1.169 -0.735,0.3 -1.16,1.42 -1.89,2.097 -0.964,0.895 -5.254,1.31 -6.912,1.11 -1.503,-0.181 -5.455,-1.744 -6.655,-2.837 -1.418,-1.29 -1.806,-2.389 -1.766,-3.917 0.321,-12.388 -3.272,-27.651 -4.785,-39.884 -0.065,-0.523 -0.104,-0.989 -0.11,-1.367 -0.014,-0.922 0.063,-1.825 0,-2.738 -0.101,-1.465 -0.562,-2.955 -0.852,-4.536 -0.155,-0.843 -0.394,-1.928 -1.205,-1.458 -0.314,0.181 -0.999,1.212 -1.182,1.518 -0.715,1.189 -1.169,2.595 -1.301,3.924 -0.107,1.068 -0.147,2.698 -0.147,2.698 0,0 -0.136,-0.015 -0.246,0 -0.168,0.024 -0.07,1.281 0.084,2.617 2.35,20.405 0.931,8.502 3.712,28.786 0.981,7.154 2.418,16.787 2.741,17.934 0.509,1.813 1.152,2.32 4.387,3.851 5.211,2.465 5.815,2.655 11.524,0.96 0.347,-0.103 0.618,-0.187 0.987,-0.494 0.724,-0.603 1.823,-2.072 1.823,-2.072 0,0 1.411,1.32 2.46,2.207 0.327,0.276 0.641,0.517 0.946,0.727 2.597,1.789 7.545997,1.317 10.910997,0.568 11.108,-2.475 11.239,-2.027 11.227,-2.026 z m -61.409997,-13.041 -3.296,0 c -0.666,0 -0.813,-0.012 -1.473,-0.121 -0.567,-0.094 -1.202,-0.105 -1.645,-0.496 -0.576,-0.509 -1.102,-1.653 -1.102,-1.653 0,0 1.318,-0.313 2.188,-0.444 0.979,-0.147 4.996,0.224 5.328,1.89 0.07,0.352 0,0.824 0,0.824 z m -46.96,2.028 c 0.826,-2.022 1.746,-3.805 2.68,-5.975 0.287,-0.668 1.048,-2.86 1.52,-2.96 0.132,-0.028 0.326,0.001 0.483,0.042 0.212,0.056 0.247,0.136 0.345,0.795 0.401,2.7 1.18,7.71 0.982,8.127 -0.269,0.569 -1.588,0.889 -3.552,1.319 -1.452,0.318 -2.893,0.55 -3.1083,0.324 -0.08,-0.083 -0.0308,-0.223 0.1064,-0.55 0.0408,-0.097 0.0899,-0.211 0.1589,-0.301 0.094,-0.122 0.133,-0.204 0.385,-0.821 z m 9.261,3.157 -2.431,-22.457 c -0.072,-0.662 -0.072,-0.752 -0.004,-0.9 0.051,-0.109 0.07,-0.231 0.093,-0.348 0.063,-0.319 0.153,-0.604 0.078,-0.721 -0.174,-0.274 -0.744,0.213 -1.019,0.556 -1.083,1.35 -2.035,4.967 -1.941,6.351 0.068,1.001 0.492,1.674 0.493,2.59 10e-4,0.538 -2.895,6.168 -3.568,6.937 -0.492,0.562 -0.933,0.979 -1.6123,1.327 -2.7639,1.417 -4.1084,1.016 -5.427,2.59 -1.4792,1.766 -2.1972,4.306 -1.9735,6.212 0.2923,2.491 0.9995,2.774 2.9602,2.792 1.9877,0.018 8.0126,-0.488 9.6456,-1.973 0.417,-0.38 0.898,-1.582 1.085,-2.714 0.037,-0.219 0.086,-1.664 0.469,-1.727 0.115,-0.019 0.296,0 0.296,0 0,0 0.176,5.775 0.839,8.141 1.01,3.607 7.096,5.654 11.776,5.304 1.852,-0.139 8.003,-1.753 9.439,-3.207 0.758,-0.768 1.566,-1.926 1.566,-1.926 0,0 1.756,1.315 2.94,2.04 0.229,0.14 0.504,0.294 0.802,0.45 2.33,1.226 17.047,2.881 19.209,-0.231 0.06,-0.086 0.119,-0.177 0.179,-0.274 0.069,-0.112 0.312,-0.544 0.639,-1.148 3.457,-6.38 1.762,-15.462 -4.325,-20.119 -0.653,-0.499 -1.247,-0.901 -1.517,-0.992 -0.614,-0.207 -5.415,-0.708 -6.503,-0.125 -1.92,1.029 -3.86,7.143 -4.226,9.234 -0.489,2.798 -0.29,4.61 2.103,5.245 0.995,0.264 3.13,0.302 4.279,0.075 2.759,-0.544 6.557,-2.014 7.139,-1.727 0.61,0.302 1.937,3.673 1.396,4.525 -0.302,0.475 -3.172,0.838 -3.7,0.902 -1.338,0.164 -8.602,-0.29 -9.867,-0.616 -1.339,-0.346 -4.02,-1.158 -4.999,-2.404 -0.756,-0.963 -1.18,-2.35 -1.761,-1.913 -0.382,0.287 -0.751,1.372 -1.221,2.002 -0.449,0.603 -1.561,1.366 -2.133,1.698 -2.596,1.506 -7.509,2.488 -10.119,2.22 -2.904,-0.297 -6.758,-1.697 -8.753,-4.44 -0.074,-0.103 -0.141,-0.204 -0.183,-0.32 -0.057,-0.156 -0.072,-0.247 -0.143,-0.909 z m 3.795,-23.647 0,1.099 0.549,0 c 0.247,0 0.33,-0.05 0.826,-0.494 3.435,-3.077 16.754,-13.371 20.58,-15.294 0.882,-0.444 1.782,-0.82 2.467,-1.357 0.446,-0.35 0.801,-0.769 1.286,-1.16 0.365,-0.293 1.49,-1.003 2.044,-1.183 0.386,-0.126 0.418,-0.028 0.385,0.263 -0.014,0.118 -0.058,0.192 -0.443,0.736 -1.129,1.596 -2.247,3.268 -2.641,4.644 -0.172,0.6 -0.343,1.444 -0.138,1.51 0.072,0.024 0.19,-0.049 0.247,0 0.063,0.056 0.048,0.263 0.104,0.389 0.08,0.178 0.301,0.194 0.488,0.105 0.405,-0.194 0.645,-0.883 1.016,-1.509 0.96,-1.62 2.798,-2.82 3.819,-4.288 0.462,-0.665 0.757,-1.385 1.256,-1.918 0.439,-0.471 1.038,-0.796 1.543,-1.262 0.364,-0.334 0.68,-0.741 0.996,-1.152 1.9,-2.681 5.79,-2.083 5.655,-3.113 0.559,-0.57 0.928,-1.383 0.854,-2.246 0.021,-0.566 0.067,-1.244 0.148,-2.053 0.06,-0.601 0.101,-1.134 -0.486,-1.454 -0.344,-0.187 -1.443,0.01 -2.078,0.373 -6.591,3.759 -29.244,18.648 -34.919,23.677 -0.643,0.569 -1.221,1.184 -1.617,1.904 -0.635,1.154 -0.526,1.504 -1.471,2.659 -0.423,0.517 -0.47,0.63 -0.47,1.124 z"/>
</svg>