<?xml version="1.0" encoding="UTF-8" standalone="no"?>
<svg>
  <path
     style="fill:#000000;stroke:none"
     d="m 166.72336,16.315546 3.42,3.78624 -0.13375,-5.04624 c -0.0325,-1.18375 -0.015,-2.30625 0.11375,-2.95625 0.21375,-1.09 1.61249,-3.6349904 2.01124,-3.7399904 0.5225,-0.1375 1.435,1.04749 2.485,1.18374 0.81125,0.105 1.7825,-0.46375 2.585,-0.9075 1.0825,-0.59999 1.2025,-0.84374 1.2025,-2.44124 l 0,-6.11875004 c 0,0 -2.38375,-0.17 -3.9525,0 -3.065,0.33 -4.86749,3.06750004 -6.11124,6.62375004 -0.52875,1.515 -1.05625,3.4537404 -1.05625,3.4537404 0,0 -0.77125,-1.0600004 -1.5,-1.9099904 -1.74875,-2.045 -8.11249,-6.31375 -9.56999,-6.3925 -2.05,-0.11 -4.1125,1.74125 -4.4375,3.66875 -0.48875,2.89875 0.7325,8.0087404 3.66875,6.9824904 1.3675,-0.47875 3.28875,-2.15 4.05125,-2.11625 0.78125,0.035 4.50124,3.15375 5.42499,4.0475 0.58125,0.56375 1.2025,1.2225 1.79875,1.8825 z m 20.40498,11.62749 c 0.004,0.685 0.0425,1.62874 0.19625,2.45874 0.19,1.02625 1.05875,2.42625 1.97375,3.73625 2.44125,3.4925 3.50499,3.7875 1.9975,8.09749 -0.25875,0.74 -0.5475,1.59875 -0.8025,2.65 -0.29375,1.21125 -0.0788,1.33625 0.705,1.205 0.2875,-0.0488 0.38625,-0.19 0.99499,-1.42375 0.24,-0.48625 0.45125,-1.1775 0.635,-1.9475 0.92625,-3.90374 1.85375,-8.87874 -0.46375,-12.43249 -0.3525,-0.54 -0.73499,-1.07624 -1.10249,-1.59374 -0.905,-1.27 -4.1675,-6.59375 -4.13375,-0.75 z m -18.67873,68.23743 c -0.4475,2.79875 0.0975,3.48625 1.9575,2.6275 1.26749,-0.585 17.61373,-10.09499 20.00123,-12.94249 0.9625,-1.14625 1.92124,-3.175 2.25874,-4.99999 0.20875,-1.12375 -0.12875,-1.08375 -1.33874,-0.63375 -2.805,1.0425 -21.29998,12.30123 -21.87873,13.31873 -0.54125,0.95 -0.88875,1.935 -1,2.63 z M 67.858452,44.988016 c 0.004,0.685 0.0425,1.63 0.19625,2.45875 0.19,1.02625 1.05875,2.42625 1.975,3.73624 2.44,3.49375 3.50375,3.7875 1.99625,8.0975 -0.25875,0.74125 -0.5475,1.59874 -0.8025,2.65124 -0.29375,1.21 -0.0788,1.335 0.70625,1.20375 0.28625,-0.0475 0.385,-0.19 0.99375,-1.42375 0.24125,-0.48625 0.45125,-1.17749 0.635,-1.94749 0.9275,-3.9025 1.85375,-8.8775 -0.46375,-12.43249 -0.3525,-0.54 -0.735,-1.07625 -1.1025,-1.5925 -0.905,-1.27125 -4.16625,-6.59499 -4.13375,-0.75125 z m 29.77872,-18.78123 c 0.005,0.685 0.0437,1.62875 0.1975,2.45875 0.19,1.02499 1.05875,2.42499 1.97375,3.73624 2.441248,3.4925 3.504998,3.78625 1.997498,8.09624 -0.25875,0.74125 -0.5475,1.59875 -0.8025,2.65125 -0.29375,1.21 -0.0787,1.33625 0.705,1.20375 0.28625,-0.0475 0.38625,-0.19 0.995,-1.42375 0.24,-0.485 0.45125,-1.17625 0.635,-1.9475 0.92625,-3.90249 1.85375,-8.87749 -0.46375,-12.43123 -0.3525,-0.54125 -0.735,-1.07625 -1.10375,-1.59375 -0.90375,-1.27 -4.166248,-6.59375 -4.133748,-0.75 z m 25.813728,19.59998 -6.01749,5.97749 c -1,0.99375 -1.1425,1.1725 -1.4225,1.78375 -0.39125,0.85625 -0.52625,2.29 -0.33375,2.48375 0.6225,0.62875 2.82625,-0.8975 3.59374,-1.46375 6.7175,-4.95374 9.77749,-8.07374 10.86374,-14.48874 0.55125,-3.25999 -1.17499,-4.52249 -4.22999,-4.93874 -4.84625,-0.66 -9.65624,0.0163 -11.53874,3.665 0.29375,13.93123 0.7075,5.96499 4.81749,4.97499 4.5725,-1.1 9.48875,-3.54375 4.2675,2.00625 z m 6.76124,43.45871 -6.43999,-6.44375 -8.16124,8.16625 8.16124,8.16624 6.43999,-6.4425 6.43875,6.4425 8.16124,-8.16624 -8.16124,-8.16625 -6.43875,6.44375 z m 35.39247,-52.16245 -6.44249,-6.4425 -8.16625,8.16625 8.16625,8.16499 6.44249,-6.4425 6.44249,6.4425 8.16625,-8.16499 -8.16625,-8.16625 -6.44249,6.4425 z m -68.277428,54.48745 -8.165,8.16499 8.165,8.166234 8.166238,-8.166234 -8.166238,-8.16499 z m -5.0775,-75.27493 3.42,3.78624 -0.13375,-5.04624 c -0.0325,-1.18375 -0.015,-2.30625 0.11375,-2.95625 0.21375,-1.09 1.6125,-3.6349904 2.01124,-3.7399904 0.5225,-0.1375 1.43625,1.04749 2.484998,1.18374 0.81125,0.105 1.7825,-0.46375 2.585,-0.9075 1.0825,-0.59999 1.2025,-0.84374 1.2025,-2.44124 l 0,-6.11875004 c 0,0 -2.38375,-0.17 -3.952498,0 -3.06499,0.33 -4.86749,3.06750004 -6.11124,6.62375004 -0.52875,1.515 -1.055,3.4537404 -1.055,3.4537404 0,0 -0.7725,-1.0600004 -1.50125,-1.9099904 -1.74875,-2.045 -8.11374,-6.31375 -9.56999,-6.3925 -2.05,-0.11 -4.1125,1.74125 -4.4375,3.66875 -0.48875,2.89875 0.7325,8.0087404 3.66875,6.9824904 1.3675,-0.47875 3.28875,-2.15 4.05125,-2.11625 0.78125,0.035 4.50124,3.15375 5.42499,4.0475 0.58125,0.56375 1.2025,1.2225 1.79875,1.8825 z m -8.13749,7.07874 c -5.0625,3.12875 -8.39749,5.95625 -9.76499,10.11374 -0.40625,1.23625 -0.40625,6.60124 0,7.36249 0.52625,0.985 6.25374,5.715 7.33749,6.05875 0.375,0.11875 0.6825,0.16625 0.94625,0 0.42625,-0.27 0.94,-6.09375 0.5925,-6.71125 -0.38125,-0.67374 -2.51875,-1.04749 -4.1425,-2.46124 -0.8225,-0.715 -1.775,-1.775 -1.775,-1.775 0,0 2.375,-2.33625 4.29,-3.9375 2.43375,-2.03625 10.17999,-6.65624 11.98249,-7.60124 3.9275,-2.0575 35.799958,-13.01749 35.799958,-13.01749 0,0 -2.07749,3.6975 -3.25499,6.50875 -0.84,2.00374 -2.4575,7.54499 -0.7125,9.29249 1.295,1.29625 1.56125,-2.30625 2.19125,-4.55875 0.8725,-3.1175 8.37499,-11.33374 13.07748,-13.1812404 0.675,-0.265 1.37875,-0.43625 1.71625,-0.82375 0.24875,-0.28624 0.2975,-0.69124 0.39125,-1.18249 1.22,-6.46125 2.58875,-8.38250004 -3.52999,-7.11000004 -0.93625,0.19375 -3.48125,1.32250004 -6.4475,2.69500004 -1.36875,0.6325 -3.7975,1.485 -7.70624,2.86375 -0.53625,0.18875 -1.11375,0.39375 -1.7225,0.61 C 108.09966,11.978046 96.138432,15.961796 84.112192,23.394286 z m 59.433688,5.79625 c -5.49874,3.80499 -8.92499,7.63874 -8.18249,13.23998 0.12125,0.9125 1.82375,3.55875 3.07875,4.7825 1.22374,1.1925 2.92624,2.7475 2.92624,2.7475 0,0 1.20125,-5.5775 0.93,-6.505 -0.28625,-0.9775 -3.18499,-3.97749 -3.18499,-3.97749 0,0 4.94624,-3.9775 8.72624,-6.62375 7.23374,-5.06499 23.40872,-12.41999 30.30497,-14.84373 8.11749,-2.855 18.96498,-5.85375 18.96498,-5.85375 0,0 -1.60625,3.17 -2.37375,5.0525 -0.38875,0.955 -0.5625,1.57875 -0.63875,2.40999 -0.1025,1.12 -0.0925,1.42125 0.0975,3.0075 l 0.425,3.53625 c 0,0 0.915,0.0425 1.41,-0.16875 0.38625,-0.165 0.16,-2.125 0.2225,-3.6025 0.155,-3.65124 7.56874,-9.49874 9.88999,-10.69624 2.1525,-1.11 4.6625,-2.0300004 5.825,-3.1025004 1.67749,-1.54624 5.01374,-6.55749 3.80124,-7.99499004 -1.68125,-1.99249996 -7.02999,1.50125004 -10.14124,3.08625004 -1.99625,1.01625 -8.84124,2.54625 -16.42248,4.6925 -15.21374,4.3062404 -36.00247,14.1324804 -45.65871,20.8137304 z m -91.653658,11.87248 -7.44499,7.445 7.44374,7.44374 7.44499,-7.44499 -7.44374,-7.44375 z m -35.08497,23.16373 -1.55875,0.0963 c -0.7,0.0425 -0.82,0.035 -1.19875,-0.0775 -0.68249,-0.2025 -1.54374,-0.9125 -1.87499,-1.59 -0.15875,-0.32625 -0.18125,-0.425 -0.215,-0.985 l -0.0763,-1.24749 1.2475,-0.0763 c 0.56,-0.0337 0.66,-0.025 1.00374,0.0937 0.96125,0.33125 2.49125,1.96624 2.5875,2.38499 0.13625,0.59875 0.085,1.40125 0.085,1.40125 z m 2.93875,-10.63999 -0.1475,-1.25875 c 0,0 0.82375,-0.145 1.4025,-0.0863 0.73625,0.075 1.07375,0.48 1.51625,0.86625 2.59124,2.26375 5.95499,3.15125 4.49749,5.41625 -0.235,0.365 -1.695,1.87625 -2.98749,2.98374 -1.76,1.50875 -2.84125,1.85625 -2.66875,-0.0312 0.2675,-2.93124 -1.6725,-8.39999 -1.6125,-7.88999 z m 1.40125,15.57374 c 0.62,-0.18375 1.23625,-0.37 1.78875,-0.61625 3.76499,-1.68375 6.66749,-6.23875 7.02374,-9.80124 0.64125,-6.38625 -2.77625,-8.49124 -8.38124,-12.40124 -0.74875,-0.52125 -1.3525,-0.935 -2.59625,-1.01375 -1.30625,-0.0825 -3.3175,0.2025 -3.3175,0.2025 0,0 -0.1025,3.07875 0.32125,5.26999 0.475,2.45125 1.60875,3.7925 2.0925,5.4325 0.1075,0.365 0.1825,0.74375 0.0537,0.87625 -0.13375,0.135 -0.48375,0.009 -0.8175,-0.20375 -2.62875,-1.66125 -2.76625,-4.03625 -4.85499,-2.96875 -1.14875,0.5875 -1.67625,1.9625 -1.76625,3.845 -0.0562,1.20125 -0.035,1.5075 0.22125,3.06874 0.11625,0.705 0.255,1.50875 0.39375,2.34375 l 0.3975,2.3825 -3.2762502,1.9225 c -2.40625,1.41375 -5.39624,3.08125 -6.02124,3.79749 -2.20749996,2.53125 -3.32499996,7.995 -1.47874996,10.65124 1.82499996,2.62625 3.97998996,3.23 6.83873996,3.2325 14.0449902,0.0137 24.9824802,-4.01624 34.9137202,-9.35624 0.5025,-0.27 0.895,-0.50375 1.12625,-0.68125 0.26375,-0.20375 3.86999,-4.77124 2.95874,-5.62249 -0.21,-0.19625 -0.77875,-0.0125 -1.38,0.17625 -0.60124,0.19 -1.31124,0.4325 -2.08374,0.71375 -7.2275,3.21124 -9.10499,6.39624 -25.50123,8.19624 -0.265,0.03 -0.53625,0.0588 -0.815,0.09 -5.06749,0.54875 -10.5337402,0.7875 -12.2112402,-0.89125 -0.74125,-0.74125 -1.60374,-1.925 -1.60374,-1.925 0,0 2.00499,-0.92375 4.60499,-2.08625 11.7599902,-5.25374 3.4950002,-1.715 13.3699902,-4.63374 z m 28.44872,24.88122 c 0.20125,2.7625 1.49,4.48 3.83375,4.97625 3.02374,0.63875 4.73374,-1.00125 5.50999,-4.31875 0.17,-0.7275 0.13125,-1.33375 -0.3375,-1.62625 -0.89,-0.5575 -3.33749,0.0213 -4.51999,-0.6075 -1.4725,-0.78124 -1.84625,-4.10499 -1.4825,-5.65749 0.365,-1.555 1.29375,-3.22125 1.54625,-4.41875 0.0512,-0.2425 0.075,-0.46625 -0.0312,-0.59125 -0.0125,-0.0163 -0.0263,-0.03 -0.04,-0.0438 -3.55875,-0.81249 -4.42375,13.03374 -4.47875,12.28749 z m -19.68873,1.84375 c 1.61375,1.80875 3.37625,3.16875 4.85249,3.26375 2.55625,0.165 6.66375,-4.1425 8.115,-6.83875 3.99499,-7.42374 1.42375,-9.43749 6.80499,-14.79373 2.41875,-2.4075 6.50374,-5.575 6.50374,-5.575 0,0 0.60125,7.205 1.485,10.30874 0.97125,3.41375 6.29125,8.21125 10.35499,9.76375 7.25,2.77124 13.26874,1.41999 21.36498,-0.94625 2.95625,-0.86375 10.58124,-1.9225 12.363738,-1.71625 2.8875,0.33375 6.43499,1.19625 6.43499,1.19625 l 3.88,-10.84499 c 0,0 -5.15499,-1.66125 -8.53999,-3.07375 -2.43875,-1.0175 -3.958748,-1.905 -5.324998,-2.95875 -1.02874,-0.7925 -1.96999,-1.67875 -3.66249,-2.78749 -2.035,-1.33125 -5.155,-2.98125 -5.155,-2.98125 0,0 4.56375,-4.8675 6.45,-6.06625 2.47249,-1.57124 6.317488,-2.79874 7.692488,-0.8875 0.60125,0.835 0.95875,4.16125 1.48,6.51 1.96,8.83374 12.89624,13.58749 21.00623,10.35499 2.37375,-0.94625 4.91124,-2.66375 7.22999,-4.22375 1.3275,-0.8925 1.5525,-0.89125 2.245,0.015 0.515,0.6725 1.19875,1.42625 1.85,1.7225 2.61624,1.19125 7.32249,2.21375 9.46374,2.12 0.53875,-0.0225 1.035,-0.11 1.9025,-0.2875 2.01249,-0.4125 7.52499,-2.2775 8.44624,-3.1725 1.06875,-1.0375 2.295,-2.95374 2.295,-2.95374 0,0 1.32624,2.01124 2.29499,2.95374 0.8975,0.87375 2.65375,1.36125 4.01,1.755 8.41124,2.4425 14.89249,1.355 23.78873,-0.335 3.55874,-0.67625 12.64374,-1.21375 14.34498,-0.84875 0.745,0.16 5.99,2.32375 6.57125,0.47125 0.11375,-0.36 0.0263,-0.84 0.08,-1.2575 0.0475,-0.3725 0.205,-0.69625 0.42375,-1.09125 1.3225,-2.39374 4.86999,-7.45374 4.86999,-7.45374 0,0 -1.3225,-0.58625 -2.495,-1.01875 -2.87874,-1.0625 -5.86499,-1.2 -8.02999,-1.78 -1.57375,-0.4225 -3.89624,-1.71124 -5.32499,-2.95874 -3.47,-3.0275 -7.8275,-8.9875 -9.46749,-10.05999 -1.65375,-1.08 -8.11125,-2.78625 -11.05374,-2.07125 -0.7775,0.19 -1.31875,0.575 -2.0175,1.40375 -1.9275,2.28374 -6.61374,10.79374 -6.61374,10.79374 0,0 7.06374,1.95124 8.92749,1.92124 1.67249,-0.0275 3.44624,-1.02749 4.36624,-1.09999 0.44375,-0.035 0.8275,0.145 1.6575,0.88749 1.19875,1.075 3.33125,3.3325 3.33125,3.3325 0,0 -2.78,0.72875 -4.89375,1.105 -3.33499,0.59375 -15.46248,-0.5 -17.96498,-2.95875 -1.4225,-1.395 -3.29625,-4.29874 -3.29625,-4.29874 0,0 -1.62,2.66874 -2.62124,4.00374 -2.79125,3.72 -12.02624,3.7325 -15.78749,3.25375 -1.155,-0.14625 -2.38875,-0.70875 -3.1475,-1.47875 -1.4325,-1.4525 -3.25499,-4.43749 -3.25499,-4.43749 0,0 -2.08125,2.29499 -3.84625,3.84624 -5.1625,4.53375 -13.54749,4.405 -19.52748,1.1825 -3.1925,-1.72 -5.4625,-5.04249 -6.2125,-9.17124 -1.08499,-5.96874 0.57125,-7.49124 -3.83374,-7.36374 -3.3875,0.0975 -5.171248,0.56125 -7.704988,2.62999 -3.34875,2.7325 -6.72125,7.155 -9.76375,9.4675 -0.78124,0.59374 -9.09124,5.22124 -12.76498,5.67624 -1.535,0.19125 -1.74625,0.385 -2.10875,1.94375 -0.39125,1.68 -1.85625,9.81124 -1.39875,10.13124 0.22375,0.1575 0.7475,-0.14375 1.42375,-0.35 1.32,-0.40125 3.39125,-0.4175 5.41999,-0.0438 2.1175,0.39 4.7575,1.02375 5.35875,0.71 0.1225,-0.0638 0.22,-0.14875 0.345,-0.19375 0.91375,-0.3325 3.86749,1.2225 4.02124,1.89 0.0975,0.42875 0,0.9475 0,0.9475 l -8.28749,0.48625 c -1.595,0.0937 -1.94875,0.0812 -3.53749,-0.13 -7.31375,-0.97125 -12.95999,-4.87375 -15.39499,-10.71249 -0.63125,-1.5125 -1.0925,-3.4775 -1.18375,-5.97625 -0.0613,-1.6825 0,-3.7875 0,-3.7875 0,0 -1.96375,-0.17874 -3.36125,0 -2.54749,0.32625 -7.00999,4.98625 -8.17749,6.51 -4.38999,5.72624 -6.71374,20.91248 -13.77623,18.93748 -8.7175,-2.43625 -9.09375,-22.51748 -8.98,-20.42748 -0.09,-1.66375 -0.125,-3.19625 -0.025,-4.04875 0.0487,-0.41875 0.11,-0.81875 0.17875,-1.20124 0,0 -1.97999,1.71124 -1.97999,1.71124 -0.06,0.69875 -0.22,2.54625 -0.395,4.4925 -1.815,20.15998 7.01749,28.67372 7.27624,28.96372 z" />
</svg>
