<?xml version="1.0" encoding="UTF-8" standalone="no"?>
<svg>
  <path
     d="m 35.712805,28.469132 c -0.44125,2.75625 0.09625,3.4325 1.9275,2.5875 1.24875,-0.57625 17.3475,-9.9425 19.7,-12.74625 0.94625,-1.13 1.89125,-3.1275 2.225,-4.925 0.205,-1.10625 -0.1275,-1.0675 -1.32,-0.62375 -2.7625,1.02625 -20.9775,12.115 -21.5475,13.11625 -0.53375,0.93625 -0.875,1.9075 -0.985,2.59125 z m 10.06875,-8.78375 -0.17,-3.88875 c -0.06875,-1.5725 -0.04625,-1.85375 0.2275,-2.8175 0.2025,-0.71375 0.41625,-1.495 0.95875,-1.99875 1.32,-1.2275001 4.59125,-0.8025 6.1075,-1.8137501 2.18375,-1.455 2.185,-6.455 0.505,-8.48000001 -1.78125,-2.14874999 -5.38375,1.26250001 -6.86,3.21625001 -0.90625,1.19875 -1.76375,2.5725 -2.15,4.17625 -0.17875,0.74375 -0.27875,1.5875 -0.41875,2.3262501 l -0.685,3.6175 -2.2625,-2.88 c -3.09875,-4.0787501 -2.15375,-5.2912501 -6.705,-6.4012501 -1.525,-0.37125 -4.8325,-0.2325 -5.46875,1.485 -0.4975,1.34375 0.67,4.6112501 1.4025,5.3875001 0.5625,0.59625 2.84,2.07625 3.78125,2.1675 1.5375,0.14875 4.67875,-0.7875 4.67875,-0.7875 0,0 2.535,3.65 4.08375,5.36375 0.67625,0.7475 1.235,1.35 2.10125,1.36625 0.35875,0.0062 0.87375,-0.03875 0.87375,-0.03875 z m 8.91875,31.84375 0.67875,-0.0125 c 0.305,-0.005 0.38625,-0.19125 0.81875,-1.85625 2.48,-9.57625 2.9325,-14.86375 -3.16875,-21.005 -1.005,-1.0125 -2.17625,-1.86 -2.93,-0.95375 -0.51125,0.615 -1.03375,4.95625 -0.80125,5.90375 0.40875,1.65875 1.6175,2.19625 3.01375,3.3225 3.15375,2.5425 3.945,4.45 3.54375,7.83625 -0.30875,2.6 -1.155,6.765 -1.155,6.765 z m -50.145,-26.92125 c 3.1275,2.7475 7.675,4.17875 9.4675,1.495 1.1625,-1.74 3.055,-5.37125 3.055,-5.37125 0,0 -1.92375,-2.90625 -3.52875,-4.155 -1.08,-0.84 -3.13875,-1.19125 -4.355,-0.53 -1.075,0.58375 -2.32875,2.27125 -3.01,1.58125 -0.4225,-0.43 0.0775,-2.12375 0.69,-3.71125 1.035,-2.68625 5.66875,-8.5225001 0.01125,-13.49500011 -0.025,-0.00875 -0.05,-0.01625 -0.075,-0.02125 l -0.87,-0.4000000047 -0.9125,0.5750000047 c -1.42125,0.4225 -1.14875,3.74875001 -0.685,4.20375001 0.25125,0.245 0.6125,0.97875 0.955,1.64125 0.75875,3.9475001 0.14875,7.3350001 -1.3975,11.1050001 -0.6175,1.5075 -1.0675,3.04375 -0.845,4.72625 0.13875,1.05625 0.28875,1.29125 1.5,2.35625 z m 3.73375,43.26625 5.94125,5.9425 5.9425,-5.9425 -5.9425,-5.94125 -5.94125,5.94125 z m 16.86,2.355 c 0.4325,0.39375 0.845,0.69625 1.2125,0.885 1.85375,0.945 7.4625,1.87625 9.0825,1.835 3.44625,-0.09 6.21,-1.97375 11.405,-2.6525 5.21875,-0.68125 12.89375,-0.14625 12.89375,-0.14625 0,0 0.64,-2.3025 1.28125,-3.93375 0.28,-0.71375 1.48875,-2.8475 1.64375,-3.84125 0.1175,-0.755 0.09625,-2.15625 0.09625,-2.15625 l -3.42125,0.18 c -1.3825,0.0725 -1.67125,0.0325 -2.8875,-0.3975 -2.265,-0.8025 -4.565,-2.90875 -5.765,-4.7975 -2.4275,-3.82125 -1.97375,-4.86125 -5.48375,-6.645 -4.1775,-2.12375 -12.075,-3.83625 -16.4675,-0.6775 -0.49625,0.35625 -0.9125,0.79375 -1.21375,1.3475 -0.0625,0.115 -0.12125,0.2375 -0.17625,0.36375 -5.0475,11.59 4.0325,7.6325 4.495,7.52125 3.19,-0.76375 3.3475,-2.12125 7.79125,-0.28875 2.21125,0.91125 4.5625,2.09875 5.4075,3.41125 l 1.48625,2.31 c 0,0 -2.80875,0.3125 -2.80875,0.3125 0,0 -0.25875,0.02875 -1.18875,0.1325 -4.62625,0.51625 -10.87,0.0775 -15.02625,-2.91125 -5.66875,-4.0775 -5.32375,-16.2725 -5.15625,-22.285 0.235,-8.415 0.475,-18.99375 0.475,-18.99375 0.10875,-7.8925 0.1675,-13.7275001 0.13875,-12.8687501 0.11125,-3.29375 0.1975,-5.82625001 0.1975,-5.82625001 0,0 -0.1925,-0.0525 -0.4675,-0.09625 -1.92,-0.305 -4.94125,6.19875001 -5.04375,7.84875001 -0.01875,0.3075 -0.01875,0.66875 -0.01125,1.18375 0,0 0.12,8.7437501 0.14875,10.8100001 0.09,6.5575 0.1725,14.555 0.24375,20.3625 0.32625,26.58125 5.41375,28.46875 7.11875,30.01375 z m 9.63875,-27.38375 c 0.59,-0.20375 1.12625,-0.3575 1.7375,-0.40625 1.1325,-0.09 1.2875,-0.25125 1.54625,-1.61125 l 1.58875,-8.34375 c 0,0 -4.30875,-0.295 -6.29125,-0.0125 -0.6175,0.0875 -1.01,0.2325 -1.43,0.355 -0.98875,0.29 -2.13375,0.46375 -3.8525,0.26375 -0.88625,-0.1025 -4.72625,-1.1125 -8.1125,-2.02625 -2.58625,-0.6975 -12.6675,-2.195 -16.0125,0.465 -2.46125,1.95875 -3.9425,5.63 -3.96125,8.47625 -0.00875,1.42875 0.1725,3.2775 0.1725,3.2775 l 15.22875,-3.365 0.0425,0.82 c 0.02,0.3675 -0.1025,0.5 -1.2225,1.31875 -10.3575,7.5825 -13.86625,17.07125 -14.12875,29.11375 -0.285,13.1275 4.39375,20.965 17.27625,25.9 5.00125,1.91625 14.95375,0.705 20.97,-1.6125 5.39625,-2.0775 14.37,-9.515 19.6125,-14.00375 1.05125,-0.90125 1.16625,-1.0425 1.1475,-1.41 l -0.04375,-0.82 -0.82,0.0425 c -0.3675,0.02 -0.545,0.09375 -1.77125,0.74 -3.045,1.60375 -6.405,3.5225 -8.905,5.21125 -4.92875,3.33125 -10.79375,5.52 -18.2075,5.32 -9.35625,-0.2525 -19.395,-4.8875 -23.20375,-11.6225 -3.54375,-6.26625 -4.975,-11.7375 -2.16625,-16.8325 1.33125,-2.4125 3.34,-4.8625 5.4575,-6.82875 0.9825,-0.9125 2.80875,-2.60125 4.61875,-4.06375 3.29125,-2.66 14.57875,-7.64 20.73,-8.345 z"
     style="fill:#000000;stroke:none" />
</svg>
