<?xml version="1.0" encoding="UTF-8" standalone="no"?>
<svg>
  <path
     d="m 47.986353,44.671731 -0.66374,0.0113 c -0.85375,0.0162 -0.96875,0.12625 -1.15125,1.10625 -0.08,0.42875 -0.3175,1.08374 -0.585,1.71624 -1.55625,3.685 -3.4125,2.83375 -4.74875,0.11125 -1.21875,-2.48374 -2.68374,-5.23124 -2.92374,0.28125 -0.0962,2.21125 0.1425,6.425 1.78749,7.57249 1.76125,1.22875 4.49125,0.275 6.195,-0.91624 0.40125,-0.28 0.75875,-0.60625 0.9525,-1.02125 0.11125,-0.2375 0.16875,-0.505 0.21,-0.7675 l 0.24125,-1.5425 1.65999,0.19375 c 0.3025,0.0362 0.6175,0.0663 0.92125,0.0525 1.05625,-0.0487 1.87,-0.57625 2.47875,-1.35625 2.77,-3.54374 1.49,-7.82374 -0.68,-10.83499 -1.625,-2.25499 -4.36624,-5.78999 -1.685,1.28125 0.9775,2.57875 0.82625,4.06125 -2.00875,4.1125 z m 5.14,-26.32997 -0.1525,-3.62375 c -0.0625,-1.465 -0.0413,-1.7275 0.20375,-2.62499 0.1825,-0.665 0.375,-1.39375 0.8625,-1.8625 1.18875,-1.1437503 4.13374,-0.7487503 5.49749,-1.6900003 1.96625,-1.35625 1.9675,-6.01374 0.455,-7.90124003 -1.60375,-2.00249997 -4.84499,1.17625003 -6.17374,2.99625003 -0.81625,1.11749 -1.58875,2.39749 -1.93625,3.89249 -0.16125,0.6925 -0.25,1.47875 -0.37625,2.1675 l -0.61625,3.3699903 -2.0375,-2.68374 c -2.78749,-3.8000003 -1.93749,-4.9300003 -6.03374,-5.9637503 -1.3725,-0.34625 -4.34999,-0.2175 -4.92124,1.3825 -0.44875,1.2525 0.6025,4.2975003 1.26124,5.0200003 0.50625,0.55625 2.55625,1.93499 3.40375,2.01999 1.38375,0.13875 4.21125,-0.73374 4.21125,-0.73374 0,0 2.28124,3.40124 3.67499,4.99749 0.60875,0.6975 1.11125,1.25875 1.89125,1.27375 0.3225,0.006 0.78625,-0.0362 0.78625,-0.0362 z m 27.33372,25.18372 0.61125,-0.01 c 0.27375,-0.005 0.3475,-0.17875 0.73625,-1.73 2.23249,-8.92249 2.63999,-13.84998 -2.85125,-19.57248 -0.905,-0.9425 -1.95875,-1.73249 -2.6375,-0.88875 -0.46,0.57375 -0.93125,4.61875 -0.72125,5.5025 0.3675,1.545 1.45625,2.04625 2.7125,3.09499 2.83875,2.36875 3.55,4.14625 3.18875,7.3025 -0.27625,2.42124 -1.03875,6.30124 -1.03875,6.30124 z m -38.00996,-4.6725 c -0.045,-1.26374 -0.1825,-2.84999 -0.58375,-3.24874 -0.2325,-0.23125 -0.5525,-0.0625 -0.75375,-0.18875 -0.905,-0.56125 0.63375,-2.88125 1.3675,-3.76875 6.65999,-8.04749 23.91872,-18.03998 33.03746,-20.10747 0.86875,-0.19625 1.7375,-0.35625 1.90125,-0.0512 0.0825,0.15125 -0.01,0.4175 -0.15,0.7175 -0.33,0.70499 -0.8575,1.55874 -1.4425,2.47499 -12.14373,18.98373 7.01124,-7.3624903 12.44749,-8.1024903 0.4975,-0.255 0.96375,-0.45875 1.3775,-0.59375 2.11499,-0.69 4.40624,-0.83625 4.68374,-2.93499 0.04,-0.295 0.045,-0.66125 0.035,-1.0175 -0.0913,-3.43875 -5.51249,-1.79375003 -9.33249,-0.29 -3.53499,1.3925 -8.78499,3.68624 -14.35373,6.35374 -7.20499,3.4512503 -28.77872,13.8112303 -31.81371,22.8099703 -0.97875,2.89875 -0.7975,6.1475 1.15249,8.94249 0.0838,0.12 0.16,0.2275 0.22875,0.325 -0.88,-1.2375 2.3875,3.96625 2.19875,-1.32 z m -16.64873,-5.39624 4.81499,-4.98499 -6.32999,-6.5525 -6.32874,6.5525 4.81499,4.98499 -4.81499,4.98374 6.32874,6.55375 6.32999,-6.55375 -4.81499,-4.98374 z m 43.10495,47.4162 -6.32874,6.55249 6.32874,6.55249 6.32999,-6.55249 -6.32999,-6.55249 z M 0.14641283,62.597961 c 0,0 -0.0525,1.74374 -0.12875,4.28124 -0.23,7.68499 1.73874997,16.71873 8.70373997,21.29373 0.72875,0.47875 1.4437502,0.79875 2.0750002,0.83375 1.65125,0.09 4.70499,-1.97 5.85624,-3.17125 1.2575,-1.315 2.8775,-4.85124 3.82,-7.57749 0.90125,-2.6075 4.83124,-15.48123 11.04123,-14.63248 0.6525,0.09 0.735,0.26375 0.83125,1.74249 0.20875,3.2225 2.75125,10.13624 3.97625,11.53874 1.19,1.36125 4.42999,3.74375 5.46874,4.19375 3.48375,1.51124 9.75749,1.29499 13.66874,-0.40125 0.97999,-0.425 1.85874,-0.92125 2.79624,-1.3275 4.3625,-1.8925 11.27999,-2.3375 16.04373,-0.91375 2.86875,0.85625 3.8575,1.4825 4.72,0.3125 1.40625,-1.90625 4.15749,-8.73874 4.15749,-8.73874 0,0 -5.20749,-0.8025 -8.20124,-1.71125 -1.495,-0.45375 -3.59374,-1.34875 -4.70874,-2.27 -1.545,-1.275 -3.83875,-4.05124 -3.83875,-4.05124 0,0 3.29,-1.08875 5.785,-1.92125 3.47624,-1.15875 5.86999,-1.7475 7.41124,-1.50375 1.16375,0.18375 4.42749,1.63375 6.77874,1.3775 1.16375,-0.12625 1.32625,-0.2725 1.63375,-1.465 0.22875,-0.885 0.60875,-1.53 1.12625,-2.47125 1.045,-1.90124 2.65499,-5.00874 2.65499,-5.00874 0,0 -5.68499,-0.89 -8.87374,-1.6575 -2.10499,-0.50625 -3.12249,-0.96 -4.18624,-1.98625 -5.78124,-5.58124 -5.2625,-9.05249 -10.37624,-9.74498 -2.55,-0.34625 -7.16749,-0.025 -8.73874,1.47999 -0.675,0.645 -1.1025,1.64375 -1.6375,3.2475 -0.795,2.38125 -1.82374,6.09624 -1.82374,6.09624 0,0 6.08249,1.26125 9.34123,1.685 0.87125,0.11375 1.54125,0.1675 1.89,-0.1975 0.41,-0.42875 0.36,-0.93375 1.0075,-0.6975 0.74875,0.2725 2.14,2.14625 1.8175,2.8375 -0.07,0.15 -0.2025,0.2975 -0.33625,0.415 -0.18125,0.15875 -0.35375,0.2175 -1.73125,0.595 -5.18999,1.42125 -14.50998,3.88124 -15.43748,4.73499 -1.0975,1.01125 -4.135,7.52124 -3.10125,8.71124 0.7675,0.8825 3.9375,0.26125 6.405,0.52625 1.12374,0.12125 3.05624,0.59625 3.90499,1.27 0.79125,0.63 1.9575,2.02875 1.9575,2.02875 0,0 -1.71125,1.15125 -3.0775,1.77375 -2.06,0.93874 -8.74874,0.95249 -10.57124,0.62874 -4.70374,-0.83749 -10.28873,-5.45499 -11.16248,-10.03248 -1.38125,-7.2375 0.54,-8.38749 -4.24625,-9.27249 -1.9125,-0.35375 -2.71124,0.0338 -5.39499,2.27124 -1.18625,0.99 -2.10625,1.83875 -2.95125,2.95125 -3.56249,4.695 -6.23124,16.83623 -11.14624,19.73248 -3.6799902,2.1675 -6.7149902,-0.83 -9.2074802,-5.30625 -0.3475,-0.62499 -3.99499997,-10.49873 -3.99499997,-10.49873 z"
     style="fill:#000000;stroke:none" />
</svg>
