<?xml version="1.0" encoding="UTF-8" standalone="yes"?>
<!-- Created with sK1/UniConvertor (http://sk1project.org/) -->
<svg xmlns="http://www.w3.org/2000/svg" xmlns:xlink="http://www.w3.org/1999/xlink"
  width="595.276pt" height="841.89pt" viewBox="0 0 595.276 841.89"
  fill-rule="evenodd">
<path
	style="stroke:none; fill:#000000"
	d="m 103.75497,9.7422541 -5.074996,5.3569999 c -0.843,0.89 -0.963,1.05 -1.199,1.599 -0.33,0.767 -0.445,2.051 -0.282,2.226 0.526,0.563 2.384,-0.805 3.030996,-1.312 5.665,-4.44 8.245,-7.236 9.161,-12.9849999 0.466,-2.922 -0.99,-4.05300003 -3.567,-4.42600003 -4.087,-0.592 -8.142996,0.013 -9.729996,3.28400003 0.247,12.4859999 0.596,5.345 4.061996,4.459 3.856,-0.986 8.002,-3.176 3.599,1.798 z m -91.525996,34.0469999 0.161,-2.217 -2.8135004,0.703 c -13.6767,3.42 -3.0844,-22.59 -5.7047,-17.831 -3.01799999,5.48 -4.33789999,12.024 -3.72509999,17.877 0.0668,0.638 0.1398,1.219 0.2288,1.751 1.42759999,8.533 11.38350039,6.202 11.85350039,-0.283 z m 44.885,35.065 c 1.918,3.035 6.082,3.102 9.267,2.792 1.223,-0.119 2.371,-0.254 3.59,-0.859 1.777,-0.882 3.702,-2.763 5.106,-3.511 0.294,-0.157 0.564,-0.263 0.789,-0.188 0.579,0.195 0.855,1.601 1.474,2.161 0.715,0.647 4.225,-0.24 5.387,-0.955 0.397,-0.245 1.983,-1.594 2.466,-2.363 0.38,-0.605 0.506,-0.62 1.262,-0.149 0.925,0.577 2.033,0.999 2.897,1.438 0.764,0.388 1.276,0.704 1.866,0.376 0.899,-0.501 1.381,-2.607 1.201,-3.852 -0.227,-1.563 -1.105,-4.606 -2,-3.668 -0.451,0.473 -0.515,1.865 -1.005,2.343 -0.235,0.229 -0.569,0.247 -0.889,0.143 -0.681,-0.223 -1.3,-1.003 -1.812,-0.942 -0.757,0.09 -1.277,2.03 -2.298,2.869 -0.936,0.769 -4.993,1.629 -5.556,1.198 -0.564,-0.431 -0.781,-1.543 -1.291,-2.007 -1.137,-1.034 -2.873,1.053 -4.521,2.308 -1.525,1.161 -3.026,1.714 -4.673,1.888 -2.605,0.275 -7.07,0.012 -9.255,-0.147 -3.14,-0.228 -1.914,1.27 -2.005,1.125 z m -40.226,-51.627 c 2.367,2.326 5.809,3.537 7.165,1.266 0.88,-1.474 2.313,-4.546 2.313,-4.546 0,0 -1.456,-2.46 -2.672,-3.517 -0.816,-0.711 -2.374,-1.008 -3.295,-0.448 -0.814,0.494 -1.763,1.922 -2.278,1.337 -0.625,-0.709 1.413,-5.359 1.54,-5.757 1.558,-4.879 1.475,-7.9279999 0.278,-11.9799999 -0.368,-1.247 -0.775,-2.514 -1.344,-3.00900003 l -0.659,-0.57299999663 -0.69,0.82299999663 c -1.076,1.28400003 -0.87,4.64500003 -0.519,6.02400003 0.329,1.291 0.905,2.573 1.23,3.9589999 0.386,1.648 0.198,5.498 -0.353,7.233 -0.759,2.391 -2.16,4.584 -1.852,7.194 0.106,0.894 0.219,1.093 1.136,1.994 z m -8.1970004,27.421 c 0.2527,-0.554 0.5213,-1.203 0.7684,-2.046 0.4489,-1.53 0.8266004,-3.699 0.8266004,-3.699 0,0 -1.1408004,0.924 -2.0671004,1.849 -3.8201,3.818 -5.2418,11.319 -4.4595,15.78 0.8363,4.77 4.4708,7.647 8.7776004,9.355 8.801,3.49 19.519,1.834 25.904,-8.111 0.121,-0.27 0.237,-0.546 0.347,-0.828 0.862,-2.204 2.191,-4.112 1.849,-6.346 -0.29,-1.895 -1.632,-4.906 -1.632,-4.906 0,0 2.219,-1.201 3.362,-1.943 0.794,-0.517 1.068,-0.811 1.513,-1.75 0.562,-1.186 1.398,-3.402 1.398,-3.402 0,0 0.486,8.121 0.98,11.901 0.482,3.688 3.158,6.451 6.702,6.499 1.187,0.015 2.349,-0.431 3.243,-1.25 0.967,-0.885 1.621,-2.205 2.378,-2.25 0.767,-0.045 1.638,1.219 2.811,2 1.363,0.908 3.518,1.385 4.842,1 1.359,-0.396 2.298,-1.064 3.149,-1.491 l 1.429,-0.716 2.241,1.121 c 0.422,0.211 0.857,0.424 1.302,0.586 1.707,0.62 3.553,0.476 5.342,0.49 1.169,0.009 1.33,-0.023 1.612,-0.313 0.21,-0.215 0.348,-0.433 0.522,-0.756 0.411,-0.767 1.016,-2.127 1.016,-2.127 0,0 0.8,0.536 1.461,0.956 0.852,0.541 1.973,0.957 3.011,1.154 7.594,1.447 11.968,-3.552 17.131996,-4.725 0.773,-0.175 1.522,-0.249 1.909,-0.178 2.805,0.513 4.88,2.939 6.481,1.256 1.593,-1.675 3.329,-7.232 3.329,-7.232 0,0 -5.471,-1.044 -7.648,-2.023 -1.818,-0.817 -2.716,-2.549 -4.911,-5.008 -4.134996,-4.631 -5.195996,-3.885 -10.654996,-1.991 -1.178,0.409 -1.892,0.617 -2.378,1.5 -0.392,0.711 -1.475,4.412 -1.514,5.299 -0.023,0.544 0,1.2 0,1.2 0,0 1.385,0.113 2.422,0 1.441,-0.158 2.207,-0.756 3.113,-1 1.052,-0.283 5.039,0.244 5.706996,1.8 0.993,2.311 -6.533996,3.14 -7.349996,3.199 -1.86,0.135 -5.414,0.027 -6.486,-1.25 -1.144,-1.361 -1.534,-4.101 -2.659,-3.069 -0.381,0.35 -0.728,1.129 -0.932,1.873 -0.397,1.454 -0.247,2.776 -0.733,3.446 -0.402,0.555 -6.007,1.072 -6.918,-0.75 -0.712,-1.425 -0.04,-2.752 -1.78,-1.971 -1.275,0.572 -2.604,2.135 -3.979,2.721 -1.864,0.793 -6.693,0.121 -7.438,-2.423 -0.35,-1.196 -0.34,-2.299 -1.651,-1.576 -0.992,0.546 -1.683,2.46 -2.664,3.499 -2.141,2.27 -6.051,0.724 -7.783,-2 -1.711,-2.691 -0.891,-5.416 -1.081,-8.898 -0.057,-1.06 -0.85,-5.917 -1.513,-7.099 -0.47,-0.838 -1.268,-0.793 -1.73,0 -0.887,1.524 -0.92,4.553 -1.899,6.039 -0.733,1.112 -3.932,1.996 -5.721,1.18 -1.415,-0.645 -2.486,-1.976 -3.189,-0.72 -1.032,1.843 -1.313,4.907 -1.081,6.599 0.506,3.688 2.971,11.334 2.971,11.334 0,0 -2.127,1.41 -4.525,2.899 -7.858,4.88 -13.676,4.048 -17.581,1.893 -4.9493004,-2.731 -8.9468004,-7.883 -5.8930004,-14.581 z m 35.1690004,-37.926 -0.408,-9.0089999 c -0.061,-1.337 -0.084,-1.57 -0.238,-2.327 -0.473,-2.32 -1.744,-3.592 -3.073,-4.41200003 -1.689,-1.044 -2.979,-1.431 -4.721,0.038 -1.432,1.208 -1.566,5.581 -1.004,6.265 0.42,0.511 1.533,0.465 2.88,0.099 3.365,-0.914 3.702,-0.703 4.578,3.4109999 0.416,1.954 0.466,3.786 0.261,5.752 -0.435,4.175 -1.457,6.205 0.546,8.656 0.833,1.02 1.704,1.175 3.605,0.722 1.351,-0.322 1.62,-1.048 2.186,-3.211 0.399,-1.522 0.714,-2.886 0.612,-4.404 -0.203,-3.013 -3.02,-8.6739999 0.375,-10.0809999 0.627,-0.259 1.441,-0.09 2.144,0.087 0.946,0.239 1.107,0.13 1.606,-1.081 0.41,-0.997 0.885,-1.913 1.146,-2.986 0.979,-4.02500003 -0.521,-5.16000003 -3.53,-3.51200003 -3.452,1.89200003 -5.003,9.99399993 -4.265,15.42699993 0.225,2.239 0.473,4.255 0.473,4.255 0,0 -0.206,-0.002 -0.452,-0.03 -0.967,-0.11 -2.627,-1.594 -2.721,-3.659 z m 26.428,31.074 c 0.146,2.334 1.088,3.785 2.801,4.204 2.209,0.54 3.459,-0.845 4.025,-3.648 0.125,-0.615 0.097,-1.128 -0.246,-1.375 -0.651,-0.47 -2.439,0.018 -3.303,-0.513 -1.075,-0.66 -1.349,-3.467 -1.083,-4.78 0.267,-1.313 0.945,-2.72 1.13,-3.733 0.038,-0.205 0.055,-0.394 -0.023,-0.499 -0.009,-0.013 -0.019,-0.026 -0.029,-0.038 -2.601,-0.685 -3.233,11.012 -3.272,10.382 z m -24.82,29.73 3.669,4.243 5.281,-6.106 -5.281,-6.106 -3.669,4.243 -3.67,-4.243 -5.281,6.106 5.281,6.106 3.67,-4.243 z m -7.515,-40.258 5.281,-6.106 -5.281,-6.106 -5.281,6.106 5.281,6.106 z m -16.319,12.64 5.281,-6.106 -5.281,-6.105 -5.281,6.105 5.281,6.106 z m 60.617,-44.7879999 1.799,0.29 c 0.255,0.041 0.518,0.098 0.742,0.178 0.379,0.135 1.765,1.159 1.94,1.664 0.19,0.55 0.17,1.556 0.17,1.556 0,0 -2.552,-1.235 -3.459,-1.749 -0.307,-0.175 -0.425,-0.266 -0.648,-0.75 l -0.544,-1.189 z m -1.834,1.989 c -0.241,2.161 0.043,3.8809999 1.297,4.9489999 1.846,1.574 5.034,1.986 4.226,4.405 -0.517,1.548 -3.92,5.262 -4.226,5.593 -1.965,2.128 -13.062,10.742 -15.134,11.748 -5.403,2.625 -13.671,6.53 -14.485,7.499 -0.776,0.924 -1.243,2.084 -0.926,2.5 0.869,1.139 5.92,-0.404 8.061,-1.25 1.905,-0.754 3.708,-1.65 5.451,-2.663 5.423,-3.153 16.675,-12.155 20.606,-17.357 1.379,-1.825 2.778,-3.783 3.04,-4.554 -0.026,1.213 -0.537,3.807 -1.209,5.827 -1.275,3.837 -6.235,15.304 -2.81,17.747 2.2,1.569 5.663,1.744 7.062,0.25 1.093,-1.167 1.771,-4.059 1.586,-5.599 -0.443,-3.679 -2.767,-7.012 -4.471,-5.899 -0.571,0.373 -1.28,2.713 -1.15,3.799 0.216,1.811 1.164,3.846 -0.26,3.2 -1.652,-0.751 -1.819,-1.929 -1.47,-3.8 0.709,-3.791 2.606,-7.379 3.676,-11.198 1.598,-5.705 3.333,-19.2009999 -2.232,-21.99599993 -1.382,-0.695 -3.973,-0.234 -5.119,1.50000003 -0.827,1.251 -1.317,3.532 -1.513,5.299 z m -20.996,-1.043 0.433,0 0,0.5 2.215,0 c 0.995,0 1.141,0.012 1.456,0.122 2.338,0.816 2.59,5.6089999 2.382,7.6259999 -0.309,3 -2.841,10.639 0.286,11.748 1.908,0.677 6.232,-2.75 6.848,-4.902 0.195,-0.681 0.217,-0.851 0.217,-1.702 l 0,-1.894 c 0,0 -0.993,-0.182 -1.73,0 -1.511,0.373 -1.941,2.28 -3.459,2.499 -0.395,0.057 -0.865,0 -0.865,0 l 0.631,-10.5019999 c 0.081,-1.346 0.071,-1.633 -0.097,-2.867 -0.472,-3.462 -2.575,-5.87800003 -5.203,-6.62700003 -1.527,-0.436 -2.989,1.26700003 -3.114,4.79900003 -0.019,0.565 0,1.2 0,1.2 z"/>
</svg>