<?xml version="1.0" encoding="UTF-8" standalone="yes"?>
<svg xmlns="http://www.w3.org/2000/svg" xmlns:xlink="http://www.w3.org/1999/xlink"
  width="595.276pt" height="841.89pt" viewBox="0 0 595.276 841.89">
<path
  style="stroke:none; fill:#000000"
  d="m 148.09636,59.326964 c -0.287,1.79 0.062,2.23 1.252,1.68 0.81,-0.374 11.266,-6.456 12.793,-8.277 0.615,-0.734 1.228,-2.031 1.445,-3.199 0.133,-0.718 -0.083,-0.693 -0.857,-0.405 -1.794,0.667 -13.623,7.868 -13.994,8.519 -0.346,0.608 -0.568,1.238 -0.639,1.682 z m -46.076,-4.696 c -0.287,1.79 0.062,2.23 1.252,1.68 0.81,-0.374 11.266,-6.456 12.794,-8.277 0.615,-0.734 1.228,-2.032 1.444,-3.199 0.134,-0.719 -0.082,-0.693 -0.856,-0.405 -1.795,0.667 -13.624,7.868 -13.995,8.519 -0.346,0.607 -0.568,1.238 -0.639,1.682 z m 53.293,-45.4590001 0.269,-3.334 c 0.077,-0.953 0.06,-1.16 -0.17,-2.074 -0.289,-1.144 -1.928,-4.404 -2.782,-3.652 -0.5,0.439 -0.525,3.309 -0.318,3.766 0.345,0.756 1.458,1.198 1.939,1.985 0.354,0.58 0.306,2.065 0,3.22 -0.971,3.6580001 -2.041,7.4550001 2.55,8.2360001 1.176,0.2 2.71,-0.17 3.295,-1.063 0.659,-1.006 1.162,-3.815 0.885,-4.725 -0.386,-1.27 -1.811,-2.2390001 -3.401,-2.3590001 -0.946,-0.072 -2.267,0 -2.267,0 z m -21.45,-1.914 -4.018,3.9910001 c -0.668,0.664 -0.763,0.783 -0.95,1.191 -0.261,0.572 -0.352,1.529 -0.223,1.659 0.416,0.42 1.887,-0.6 2.4,-0.977 4.485,-3.3080001 6.528,-5.3910001 7.253,-9.6750001 0.369,-2.177 -0.784,-3.019 -2.824,-3.297 -3.236,-0.44 -6.447,0.01 -7.704,2.447 0.196,9.3020001 0.472,3.982 3.217,3.322 3.052,-0.735 6.335,-2.366 2.849,1.339 z m -55.038,0 -4.018,3.9910001 c -0.667,0.664 -0.762,0.783 -0.949,1.191 -0.262,0.572 -0.352,1.529 -0.224,1.659 0.416,0.42 1.888,-0.6 2.4,-0.977 4.485,-3.3080001 6.528,-5.3910001 7.253,-9.6750001 0.369,-2.177 -0.784,-3.019 -2.824,-3.297 -3.236,-0.44 -6.447,0.01 -7.704,2.447 0.196,9.3020001 0.473,3.982 3.217,3.322 3.053,-0.735 6.335,-2.366 2.849,1.339 z m 49.09,41.1200001 3.032,3.032 4.086,-4.087 -4.086,-4.087 -3.032,3.032 -3.032,-3.032 -4.087,4.087 4.087,4.087 3.032,-3.032 z m 23.207,-5.142 -4.086,4.087 4.086,4.087 4.087,-4.087 -4.087,-4.087 z m -32.04,-43.236000104905 -4.086,4.087000004905 4.086,4.087 4.087,-4.087 -4.087,-4.087000004905 z M 101.29436,42.327964 c -0.807,0.887 -1.869,2.255 -2.74,3.288 -1.532,1.816 -21.764,10.848 -22.848,11.158 -0.574,0.164 -2.017,0.474 -3.474,0.89 -4.817,1.375 -13.39,1.52 -2.928,3.166 8.137,1.281 12.067,-0.28 19.381,-3.825 2.721,-1.32 5.382,-2.775 6.707,-3.918 0.374,-0.322 0.726,-0.672 1.109,-0.966 0.387,-0.297 0.804,-0.537 1.224,-0.835 0.132,-0.094 0.264,-0.193 0.396,-0.297 4.088,-3.222 5.747,-7.884 5.747,-11.817 0,-0.47 0,-0.702 0,-0.702 0,0 1.547,0.085 2.834,0 0.631,-0.042 2.054,-0.489 3.488,-0.86 l 3.399,-0.878 1.002,1.202 c 0.296,0.355 0.59,0.761 0.967,1.068 2.179,1.773 9.017,1.794 11.123,1.239 0.734,-0.193 2.4,-0.735 3.046,-1.239 0.361,-0.282 0.636,-0.568 0.868,-0.824 l 1.33,-1.471 1.572,1.702 c 0.36,0.39 0.74,0.808 1.19,1.124 0.842,0.592 4.221,1.301 5.526,1.063 0.722,-0.132 1.494,-0.546 2.195,-0.996 3.736,-2.396 4.997,-2.578 10.628,-2.192 1.892,0.129 3.772,0.415 5.7,1.007 2.248,0.692 4.401,1.822 5.709,1.295 0.41,-0.164 1.165,-1.017 1.699,-1.815 1.19,-1.778 1.933,-3.728 -0.054,-4.657 -1.023,-0.478 -2.253,-0.855 -2.71,-0.967 -3.38,-0.827 -6.461,-1.376 -8.368,-4.75 -0.606,-1.071 -0.802,-2.362 -1.373,-3.575 -0.426,-0.903 -4.121,-4.471 -5.137,-4.959 -1.575,-0.757 -6.039,-1.253 -8.147,0.531 -1.057,0.894 -1.73,3.386 -1.967,5.175 -0.085,0.645 -0.159,1.379 -0.159,1.379 l 8.976,0 4.586,4.51 c 0,0 -2.517,0.455 -4.352,1.158 -4.226,1.618 -3.852,2.782 -6.305,2.479 -1.641,-0.202 -3.602,-0.806 -4.676,-1.771 -0.999,-0.898 -2.219,-2.828 -2.976,-2.479 -0.459,0.211 -0.711,1.282 -1.275,1.948 -1.665,1.967 -7.302,1.875 -9.458,1.842 -0.619,-0.01 -1.093,-0.029 -1.437,-0.089 l -1.254,-0.217 1.325,-2.312 c 1.161,-2.026 3.161,-4.61 3.248,-5.74 0.115,-1.483 -2.552,-4.923 -4.822,-6.591 -1.422,-1.044 -3.49,-2.232 -3.49,-2.232 0,0 -0.976,1.33 -1.647,2.409 -0.805,1.296 -1.358,2.954 -1.417,4.251 -0.116,2.564 -0.833,7.324 -1.24,7.616 -1.86,1.339 -6.122,1.017 -7.793,0.354 -2.311,-0.916 -2.825,-1.913 -4.816,-4.653 -0.589,-0.809 -1.181,-0.708 -1.607,0.294 -0.406,0.952 -1.137,4.137 -1.016,5.486 0.149,1.661 2.123,4.055 3.011,6.135 0.213,0.499 0.618,2.895 1.5,3.858 z m 13.555,-15.895 c 0,0 0,-2.841 0,-2.841 0,0 0.342,-0.041 0.683,-0.017 0.931,0.064 4.315,3.365 4.318,4.141 0.001,0.108 -0.013,0.201 -0.041,0.269 -0.517,1.228 -3.812,2.231 -4.428,1.275 -0.186,-0.288 -0.349,-0.751 -0.422,-1.156 -0.099,-0.547 -0.11,-0.714 -0.11,-1.671 z m -12.816,-17.2610001 0.269,-3.334 c 0.077,-0.953 0.06,-1.16 -0.171,-2.074 -0.289,-1.144 -1.927,-4.404 -2.781,-3.652 -0.5,0.439 -0.526,3.309 -0.318,3.766 0.344,0.756 1.458,1.198 1.939,1.985 0.354,0.58 0.306,2.065 0,3.22 -0.971,3.6580001 -2.042,7.4550001 2.55,8.2360001 1.176,0.2 2.71,-0.17 3.294,-1.063 0.66,-1.006 1.163,-3.815 0.886,-4.725 -0.386,-1.27 -1.811,-2.2390001 -3.401,-2.3590001 -0.946,-0.072 -2.267,0 -2.267,0 z m -96.75,39.7380001 c 5.949,4.189 13.761,6.837 21.86,8.198 10.571,1.775 30.897,1.099 41.194,-2.25 0.261,-0.084 0.532,-0.174 0.815,-0.27 4.117,-1.388 16.011,-6.679 18.244,-9.387 1.401,-1.7 2.818,-5.68 2.302,-8.509 -0.716,-3.933 -3.605,-4.585 -8.324,-5.661 -1.5,-0.342 -3.174,-0.723 -4.79,-0.928 -0.95,-0.121 -1.061,-0.182 -1.109,-0.606 -0.314,-2.746 5.83,-7.73 6.784,-8.207 0.839,-0.42 5.016,-1.922 5.789,-1.24 0.484,0.427 0.954,1.364 0.954,1.364 0,0 2.214,-4.191 2.734,-5.861 0.234,-0.751 -0.119,-1.893 -0.855,-2.234 -1.535,-0.712 -5.583,1.211 -6.851,1.949 -4.556,2.652 -10.51,10.225 -10.981,15.048 -0.039,0.403 -0.064,0.838 -0.079,1.277 -0.15,4.551 -0.494,4.457 3.463,5.323 2.533,0.555 5.717,1.204 7.159,1.926 1.626,0.816 3.501,2.083 3.501,2.083 0,0 -5.872,3.075 -10.007,5.005 -5.085,2.374 -7.91,3.195 -12.539,3.876 -2.089,0.307 -4.807,0.63 -7.558,0.928 -11.625,1.261 -31.599,0.64 -43.531,-2.168 -1.899,-0.447 -3.704,-0.958 -5.144,-1.521 -0.825,-0.322 -1.694,-0.847 -2.588,-1.387 -1.86,-1.124 -2.856,-1.766 -4.97899999,-1.956 -2.63000001,-0.235 2.35699999,3.674 4.53599999,5.208 z"/>
</svg>