<?xml version="1.0" encoding="UTF-8" standalone="yes"?>
<svg>
  <path style="stroke:none; fill:#000000"
    d="m 164.22904,92.847103 c 0.19375,2.9575 1.4375,4.79625 3.70125,5.32626 2.91875,0.685 4.57,-1.07 5.31875,-4.62126 0.16375,-0.77999 0.1275,-1.42874 -0.325,-1.7425 -0.86,-0.59625 -3.2225,0.0225 -4.365,-0.65 -1.42,-0.83625 -1.78125,-4.39375 -1.43,-6.05625 0.35125,-1.665 1.24875,-3.4475 1.4925,-4.73 0.05,-0.26 0.0725,-0.5 -0.03,-0.6325 -0.0125,-0.0175 -0.025,-0.0325 -0.0387,-0.0475 -3.43625,-0.86875 -4.27125,13.9525 -4.32375,13.15375 z m -81.94972,-55.74999 -3.669067,-3.69071 3.690707,-3.66906 3.69072,-3.66906 3.66906,3.69071 3.66906,3.6907 -3.69071,3.66906 -3.6907,3.66907 -3.66907,-3.69071 z m 19.56656,27.17902 0.0747,-1.12611 2.06164,-1.82125 c 2.02592,-1.78987 4.74374,-5.3631 4.878,-5.60673 1.75198,-3.20291 2.2793,-8.12747 1.6935,-10.98931 -0.3963,-1.93387 -5.02743,-11.82522 -6.23582,-13.31623 -0.57064,-0.70491 -1.34267,-0.74497 -1.84401,0.0639 -1.05356,1.69999 -1.90573,6.21742 -1.34483,7.74632 0.23929,0.65294 0.70598,1.26904 1.07738,2.04216 0.98426,2.05082 1.29611,5.21042 2.43846,6.57799 1.35458,1.62311 4.09297,2.76979 2.48827,4.70476 -0.38331,0.46343 -0.96694,0.90955 -1.79528,1.44661 -2.83151,1.83859 -8.53028,4.74482 -8.53028,4.74482 0,0 -4.75022,-5.09131 -7.50486,-7.87735 -2.55215,-2.58139 -4.17851,-3.6382 -6.93856,-2.52725 -3.733487,1.50401 -4.507687,5.68577 -5.016597,10.46848 -0.50999,4.80437 0.38872,9.7441 3.929467,11.26434 0.99401,0.4277 2.62362,0.3584 4.85959,-0.16892 3.53642,-0.83592 9.04785,-2.6247 9.04785,-2.6247 0,0 0.1765,2.12012 -0.0606,3.32202 -0.2079,1.0514 -1.99668,3.00044 -2.91705,3.93705 -1.19758,1.21815 -3.84935,3.0275 -6.85302,4.86501 -12.584265,7.70193 -16.603611,7.83079 -30.111498,13.51006 -10.695869,4.49685 -9.763583,1.75521 2.130942,3.55049 1.484517,0.22413 2.993936,0.62477 4.32469,0.6042 2.309606,-0.0368 7.651044,-1.8321 9.310973,-2.44279 0.434197,-0.15917 1.08604,-0.41471 1.88515,-0.74388 7.123726,-2.93438 13.435343,-6.08857 18.862323,-11.29682 10.46199,-10.04186 10.36778,-22.51026 10.0895,-18.30685 z m -14.27451,-3.19424 -3.83418,0.13318 c -1.24414,0.0433 -1.44661,8.6e-4 -2.02591,-0.42771 -2.102797,-1.55381 -1.361077,-3.12494 0.48184,-4.13412 1.08929,-0.59553 3.56348,-0.29776 5.29055,1.51375 1.0319,1.0828 2.17209,2.84126 0.0877,2.9149 z m -39.324864,-9.92868 -5.807429,5.76935 c -0.96493,0.95899 -1.10294,1.13151 -1.37302,1.72165 -0.37836,0.82691 -0.50925,2.20947 -0.32245,2.39746 0.60085,0.60679 2.72822,-0.86619 3.46828,-1.41231 6.483229,-4.78181 9.436319,-7.79319 10.484539,-13.98374 0.53303,-3.14703 -1.1327,-4.36538 -4.08221,-4.76635 -4.677109,-0.63773 -9.318539,0.0143 -11.136559,3.5361 0.28437,13.44595 0.68296,5.75626 4.64976,4.80204 4.412969,-1.0613 9.157899,-3.42068 4.119089,1.9358 z m -13.342366,-40.66245 -5.80743,5.76935 c -0.96493,0.95899 -1.10294,1.13151 -1.37302,1.72165 -0.37836,0.82691 -0.50925,2.20947 -0.32245,2.39746 0.60085,0.60679 2.72822,-0.86619 3.46828,-1.41231 6.48323,-4.78181 9.436319,-7.79319 10.484539,-13.9837405 0.53303,-3.14703 -1.1327,-4.36537997 -4.082209,-4.76634997 -4.67711,-0.63773 -9.31854,0.0143 -11.13656,3.53609997 0.28437,13.4459505 0.68296,5.75626 4.64976,4.80204 4.41297,-1.0613 9.157899,-3.42068 4.11909,1.9358005 z m 31.211703,36.88251 c -1.512417,-0.0651 -2.838091,2.8765 -4.15625,5.46875 -0.28763,0.56643 -0.5825,1.15931 -0.71875,1.78125 -0.18292,0.8402 -0.16864,1.11755 0.09375,2.75 l 1.71875,10.75 c 0,0 -2.20373,0.39558 -3.84375,0.46875 -2.263531,-0.26429 -6.670729,-0.80508 -8.03125,-3.03125 -0.799823,-1.38896 -0.924795,-2.85108 -2.3125,-2.1875 -1.05844,0.50714 -1.802789,2.48971 -3,3.75 -2.653039,2.79433 -6.046423,2.61071 -9.03125,1.03125 -0.924716,-0.48948 -1.738206,-1.032 -2.34375,-1.90625 -1.400321,-2.01888 -1.595184,-4.25179 -3.125,-4 -0.101988,0.0168 -0.197778,0.0542 -0.3125,0.0937 -2.198881,0.75945 -3.742826,5.143 -3.84375,7 -0.272495,5.01214 2.4375,16.0625 2.4375,16.0625 0,0 -5.024399,3.2386 -8.09375,3.9375 -2.72621,0.61942 -7.234334,-0.88467 -10.40625,-2.96875 -9.9740683,-6.55249 -1.4089393,-27.77104 -3.9687503,-23.5625 -3.566655,5.86494 -7.02315697,16.59609 -7.15624997,19.34375 -0.445454,9.19039 5.87990097,15.54908 15.84375027,16.46875 5.299394,0.48822 8.982451,-2.08429 14.3125,-6.53125 3.099629,-2.58618 5.51716,-5.73858 5.28125,-11.21875 -0.04668,-1.10386 -0.284717,-2.00255 0.09375,-2.40625 0.619421,-0.65979 2.92367,0.005 4.84375,-0.5625 2.607624,-0.76955 3.705818,-2.73569 5.9375,-2.25 4.306347,1.59918 9.435208,2.81942 14.34375,2 1.2073,-0.62952 2.16154,-2.25391 2.8125,-3.875 0.11858,-0.29521 0.22837,-0.56145 0.40625,-0.8125 0.41,-0.58284 1.18201,-0.92686 1.78125,-1.40625 2.72242,-2.18122 3.961,-11.6113 4.125,-14.0625 0.21951,-3.304 -0.24571,-7.12644 -2.625,-9.5625 -0.370896,-0.37941 -0.713481,-0.54747 -1.0625,-0.5625 z m -47.651489,4.39093 0.240956,-3.0088 -4.220391,0.95499 c -20.5169683,4.63998 -4.6269873,-30.65945 -8.5578513,-24.20158 -4.527325,7.4381 -6.50745397,16.31942 -5.58816297,24.26214 0.100294,0.86668 0.20967,1.65515 0.343268,2.37676 2.14160797,11.58229 17.07697427,8.41832 17.78218127,-0.38351 z M 57.20025,16.309593 c -1.581984,2.52436 -11.577246,10.34976 -15.945993,12.48304 -8.060043,3.93604 -18.498109,9.33169 -18.862697,10.70551 -0.242218,0.90958 0.01514,1.85953 1.150534,2.33387 0.71656,0.30025 2.870026,-0.27123 5.367895,-1.14422 16.140272,-5.63913 21.940879,-12.57009 26.367658,-16.91487 l 4.11139,-4.03444 1.14928,1.42177 c 0.9348,0.68376 1.22622,2.14085 2.40703,1.59082 0.68124,-0.31792 0.86543,-1.78258 0.91084,-3.23083 0.0782,-2.46634 -0.246,-4.88094 0.2296,-7.19967 1.05844,-5.1559605 3.31536,-8.9645805 -1.34733,-11.51417047 -2.8612,-1.56432 -7.76232,-0.69638 -9.224457,1.27163997 -0.951208,1.283 -2.924273,8.1660205 -1.571891,9.6496005 1.510075,1.65515 6.176549,3.11477 5.258141,4.58195 z m 5.116847,-7.5529005 c 0.37973,0.68376 -0.47434,1.4545705 -0.83641,1.5908105 -1.15684,0.43272 -2.79307,-0.4251405 -3.251012,-1.8002305 -0.181663,-0.54625 -0.06812,-1.08619 0.315392,-1.38013 1.21865,-0.93481 3.06178,0.31286 3.77203,1.58955 z M 120.56887,58.312573 c 0.73688,-0.11671 1.33213,0.1237 2.34998,0.80316 2.33095,1.5561 5.83303,4.46706 4.99743,5.86009 -0.30907,0.51479 -7.51188,-0.61792 -8.89424,-1.3981 -0.76845,-0.43272 -2.84916,-2.09759 -2.23099,-3.27212 0.12896,-0.24515 0.37868,-0.53517 0.56518,-0.62468 1.60246,-0.76899 2.47576,-1.25164 3.21264,-1.36835 z m 23.26186,-16.12267 c -10.47325,3.36268 -10.93439,5.78783 -11.36321,14.48661 l 4.19427,-0.32722 c 3.1334,-0.25384 4.57362,-0.60803 5.56262,-1.33859 1.14074,-0.84268 1.37496,-0.86877 1.75505,-0.26772 0.62362,0.98617 0.56381,2.13831 -0.20822,3.98604 -0.54415,1.30233 -1.15501,1.78962 -3.42087,2.64745 -1.52658,0.57796 -3.54331,1.14982 -4.46199,1.27911 -0.1852,0.0261 -0.32692,0.0464 -0.47595,0.0595 -0.23974,-0.10106 -0.47581,-0.21731 -0.71391,-0.3867 -0.28031,-0.1993 -0.54949,-0.48138 -0.80316,-0.77342 -4.60112,-5.30243 -3.82486,-9.89761 -9.66766,-11.06574 -1.992,-0.39862 -5.33116,-0.13862 -6.60375,1.66581 -2.15934,3.05888 -4.06394,12.54451 -3.62909,14.87331 0.43592,2.3352 1.20046,3.72736 2.52847,4.55124 4.04157,2.50573 5.99256,1.67674 10.70878,0.92214 0.55742,-0.0896 1.1801,-0.19621 1.90379,-0.29746 1.2161,-0.17054 2.33933,-0.37198 2.67719,0 0.60325,0.66506 -0.92605,2.28016 -2.02277,3.83731 -0.48067,0.68319 -1.08793,1.45944 -1.7253,2.20125 -13.38535,11.39158 -11.59947,9.82576 -19.06759,14.01066 -1.7053,0.94432 -2.87179,1.50177 -4.46199,1.96328 -1.15748,0.33573 -2.5472,0.60675 -3.98605,0.8924 -19.909407,3.96483 -7.70994,5.005567 -1.04113,5.116417 3.59499,0.0597 12.27044,-2.636257 16.56887,-4.789207 8.63949,-4.32721 13.85289,-12.75871 16.98532,-18.17519 2.36208,-4.3548 1.13812,-3.75007 3.53985,-4.55123 8.81397,-1.63725 15.91826,-7.59768 25.31438,-6.81198 0.84709,0.1045 1.7518,0.27169 2.49871,0.38671 2.25878,-1.14868 3.02504,-3.94141 3.98605,-6.06831 1.94656,-3.8473 1.76977,-4.09555 -3.77782,-5.50313 -4.4286,-1.12366 -10.67904,-4.15298 -10.67904,-5.17591 0,-0.90201 -4.1258,-4.95472 -6.33603,-6.21705 -1.40984,-0.80518 -2.4439,-1.19343 -3.77782,-1.13037 z m 4.00998,40.70601 -3.66907,-3.69071 3.69071,-3.66906 3.69071,-3.66906 3.66906,3.69071 3.66906,3.6907 -3.69071,3.66906 -3.6907,3.66907 -3.66906,-3.69071 z m -38.21108,-50.24597 c 0.53444,-1.39274 4.60865,-3.93751 13.014,-8.12861 7.30455,-3.64221 12.81914,-7.00874 12.81914,-7.82579 0,-0.14765 -0.94547,-0.78493 -2.10104,-1.41619 -1.15558,-0.63126 -2.33066,-1.6517 -2.61131,-2.26764 -1.31683,-2.89013 -0.0632,-8.8051905 2.40613,-11.3528905 1.35039,-1.39323997 1.84237,-1.59167997 3.94241,-1.59012997 3.18361,0.002 5.27479,1.30016997 6.47806,4.02037997 l 0.92791,2.09769 -1.05004,3.5691 c -0.81318,2.7639605 -0.93602,3.8141105 -0.54454,4.6552905 1.84893,3.97296 1.98858,5.62611 0.789,9.34039 -0.64891,2.00924 -0.97673,2.42843 -1.89914,2.42843 -1.03274,0 -1.11482,-0.1894 -1.11482,-2.57247 0,-4.72938 -0.85129,-5.17235 -3.93467,-2.04743 -3.11321,3.15513 -5.44105,4.79577 -10.16156,7.16172 -4.88376,2.44777 -9.4474,3.8561 -14.11559,4.35602 -2.76879,0.2965 -3.10263,0.24628 -2.84394,-0.42787 z M 140.57208,9.6650825 c 0.10089,-0.30267 -0.35676,-1.09051 -1.017,-1.75075 -1.42309,-1.42309 -4.87062,-1.72438 -5.35282,-0.4678 -0.37376,0.97402 -0.13681,1.158 2.79423,2.16948 2.66203,0.9186505 3.28289,0.9271705 3.57559,0.049 z m 21.06227,0.8256805 -5.80743,5.76935 c -0.96493,0.95899 -1.10294,1.13151 -1.37302,1.72165 -0.37836,0.82691 -0.50925,2.20947 -0.32245,2.39746 0.60085,0.60679 2.72822,-0.86619 3.46828,-1.41231 6.48323,-4.78181 9.43632,-7.79319 10.48454,-13.9837405 0.53303,-3.14703 -1.1327,-4.36537997 -4.08221,-4.76634997 -4.67711,-0.63773 -9.31854,0.0143 -11.13656,3.53609997 0.28437,13.4459505 0.68296,5.75626 4.64976,4.80204 4.41297,-1.0613 9.1579,-3.42068 4.11909,1.9358005 z"/>
</svg>