<?xml version="1.0" encoding="UTF-8" standalone="no"?>
<svg>
  <path
     style="fill:#000000;stroke:none"
     d="m 147.16884,29.80474 4.88625,5.0625 6.585,-6.82375 -6.585,-6.82374 -4.88625,5.06249 -4.88499,-5.06249 -6.585,6.82374 6.585,6.82375 4.88499,-5.0625 z M 157.34759,7.2272501 c 0,0 0.45875,-1.325 0.85125,-2.46124 3.09749,-8.95625 -36.16123,14.5749899 -35.18123,13.5624899 -2.06625,2.13625 -3.71375,4.45374 -3.7525,6.20499 -0.0213,0.965 0.0825,1.79875 0.0825,1.79875 8.70249,-8.57624 33.43998,-16.9049899 34.38123,-17.1999899 0.755,-0.23625 1.50875,-0.45625 2.285,-0.65625 0.89125,-0.22875 1.02375,-0.35375 1.33375,-1.24875 z m -45.44373,60.9262199 -4.70874,0.0138 c -0.9175,0.002 -1.06625,-0.004 -1.4925,-0.065 -0.315,-0.045 -0.61,-0.16875 -0.90625,-0.2975 -2.89625,-1.25625 -6.837497,-4.15625 -8.171247,-7.345 -1.28,-3.06 -1.18375,-5.89624 -3.1825,-4.03999 -0.55,0.51124 -1.82875,4.01374 -2.11749,5.79749 -0.54625,3.3825 -0.67625,9.04125 0.36999,12.91124 0.54125,2.005 1.615,4.96375 1.615,4.96375 0,0 -2.52749,2.645 -4.45999,4.375 -7.58,6.78749 -23.80749,11.51624 -32.65873,14.59249 -0.21125,0.0738 -6.3425,1.6025 -0.5125,2.1025 2.23499,0.19125 5.63374,0.48875 6.02999,0.54875 1.71875,0.26625 3.01875,0.61875 4.3275,1.165 0.4325,0.18 1.2375,0.56375 1.8425,0.56375 0.3375,0 0.47375,-0.0275 1.3625,-0.26625 0.01,-0.002 0.0213,-0.005 0.0325,-0.009 9.82624,-2.645 23.68873,-8.81 26.65748,-20.44499 0.605,-2.3725 1.08375,-5.01375 1.7925,-6.155 0.49625,-0.8 1.6875,-0.08 2.991247,0.64 2.28125,1.26125 9.22499,1.82125 10.31749,-0.93125 0.12,-0.3 0.14625,-0.36625 0.14625,-0.36625 0.34875,-0.87875 0.40375,-0.98 0.55625,-1.00625 0.705,-0.1225 0.935,0.465 1.73625,1.55125 2.265,3.07125 6.65375,3.52375 9.9875,3.71 1.30875,0.0738 3.72624,-0.455 3.95624,-0.865 0.87875,-1.5675 -0.40875,-2.7125 1.2275,-3.53 0.54625,-0.27375 1.615,-0.36625 2.7425,-0.3375 6.19625,0.1575 19.00749,1.7025 23.77624,-4.80999 0.98625,-1.34875 3.8425,-7.20625 4.345,-8.96625 1.80499,-6.32999 -0.725,-12.16249 -5.7525,-18.40249 -2.475,-3.0725 -7.105,-6.81499 -10.74874,-6.17624 -3.3025,0.57875 -5.22125,2.70249 -6.18375,5.03749 -2.29,5.55875 -2.95875,10.745 -0.19875,15.20124 1.37625,2.2225 4.48,3.89375 7.04124,3.23625 1.7825,-0.45625 3.5675,-2.275 5.58375,-2.65375 0.7875,-0.1475 3.8425,0.69375 4.45875,1.2275 0.71,0.61625 2.46,3.03125 2.34875,4.235 -0.0913,0.99625 -3.08875,1.93 -4.85125,2.36625 -5.0825,1.25625 -18.54374,1.115 -22.81249,-2.435 -1.5425,-1.2825 -2.82374,-3.05375 -3.52624,-5.245 -0.52,-1.61999 -1.07125,-4.06749 -1.07125,-4.06749 0,0 -2.19375,0.67625 -3.46875,1.2275 -2.54625,1.1025 -5.47375,5.20374 -6.67875,8.15124 -0.7375,1.80625 -1.7425,4.7975 -1.7425,4.7975 z m 29.45249,-18.50874 c -0.83,-0.4125 -1.45625,-0.9275 -1.53625,-1.5225 -0.0325,-0.23375 -0.0462,-0.53875 -0.0537,-0.77875 -0.0213,-0.75625 3.17875,-0.5575 3.65499,-0.40875 1.01375,0.31625 2.78375,1.08625 3.58,1.88875 0.43875,0.4425 0.52625,0.555 0.55,0.79 0.26,0.6 0.15,0.9275 -0.12375,1.0975 -2.17875,1.35 -3.15125,-0.12 -6.07124,-1.06625 z m -21.61874,15.79874 c 0.3875,0.97125 1.56375,3.6675 1.30625,3.97625 -0.70375,0.84625 -4.0275,-1.665 -4.65875,-2.3925 -0.99125,-1.14125 0.61375,-1.78 1.87625,-2.15875 0.6675,-0.2 1.1675,-0.195 1.47625,0.575 z M 127.9451,7.9022501 c -0.0437,-0.2225 -0.0937,-0.4025 -0.14875,-0.52375 -0.3525,-0.77875 -0.9275,-1.22 -1.25375,-1.93625 -1.04624,-2.29499 -1.70624,-3.47499 -2.37749,-3.97374 -5.585,-1.82375002 -7.1175,2.5025 -7.1175,2.5025 -0.001,0.01 -0.004,0.0213 -0.005,0.0312 -0.60375,3.36624 0.8275,5.10874 4.295,4.88499 0.0987,-0.006 0.1975,-0.0163 0.29375,-0.0275 1.6175,-0.20625 2.2325,-0.74375 3.00625,0.57125 0.665,1.1274999 1.72499,3.5174999 2.32249,3.8412499 0.48125,0.26125 1.09625,0.3775 1.13875,0.085 0.0138,-0.1025 0.0263,-0.215 0.0375,-0.33625 0.0888,-0.94375 1.57375,-4.5312499 3.6675,-4.4337499 0.6225,0.0288 1.41875,0.27875 3.0425,0.05 2.2625,-0.31875 2.875,-2.84375 3.18625,-6.13749 0.11125,-1.185 -0.4075,-1.82375002 -1.55375,-2.15750002 -5.17875,-1.50999998 -7.8325,2.26000002 -8.33125,5.88999002 -0.08,0.57375 -0.14875,1.14125 -0.2025,1.67 z m -33.074977,93.1161999 4.45,1.94875 c 2.289997,0.28125 5.113747,0.5425 7.227497,0.455 3.98124,-0.1625 10.46749,-1.7075 12.74374,-4.6925 2.03625,-2.66875 2.275,-3.80375 4.68625,-2.795 1.19125,0.4975 2.57374,1.3475 4.08624,1.91375 3.43375,1.28625 3.49,1.27 5.77125,-2.27125 0.995,-1.54375 2.02375,-2.73375 2.32,-4.62125 0.14625,-0.92749 0.16375,-1.23124 0.13875,-2.76624 -0.0825,-5.1725 -0.6375,-5.88125 -6.085,-3.1625 -0.7725,0.38625 -1.44875,0.76125 -1.72125,0.9675 -1.1325,0.85625 -1.8675,2.2075 -2.93499,3.15 -1.0225,0.90125 -2.35125,1.42875 -3.25,2.22624 -1.27875,1.1325 -1.69125,2.80875 -2.62125,4.0725 -0.52625,0.715 -13.39249,3.2575 -21.232487,4.8225 l -3.57875,0.7525 z m 35.943727,-11.65999 1.91375,-0.035 0.0725,4.33499 c 0,0 -0.5025,0.0287 -0.95625,0.0163 -1.5525,-0.0412 -5.015,-1.84125 -5.06625,-2.695 -0.015,-0.26499 0.99625,-1.05999 2.215,-1.37749 0.78,-0.20375 0.9625,-0.22875 1.82125,-0.24375 z M 113.40636,60.31972 c 0,0 0.52,-1.24125 0.83375,-2.225 0.53,-1.65874 0.445,-2.85749 0.23625,-4.57499 -0.58375,-4.79 -1.48125,-15.63749 -1.48125,-15.63749 0,0 1.61,-0.1875 2.83875,-0.155 3.32625,0.0913 4.295,1.71374 6.045,-0.0975 1.13875,-1.17875 2.1575,-5.3575 1.43,-6.9175 -0.83375,-1.785 -3.65625,-2.64375 -4.95375,-1.1875 -0.5975,0.67125 -0.93875,1.73125 -1.62375,2.42875 -1.06125,1.08125 -2.945,1.295 -3.8775,2.19625 -1.59875,1.54375 -1.8125,12.32999 -1.51875,14.88499 0.49625,4.31 2.07125,11.28499 2.07125,11.28499 z m -94.571187,3.8075 -0.76625,-9.27874 -1.36125,7.43624 c -0.285,1.565 -0.575,3.35375 -0.70375,4.7875 -0.43375,4.82375 1.6625,15.15249 3.74,17.87749 2.6825,3.51625 6.72374,4.70125 9.19874,2.43875 0.93625,-0.855 3.3325,-4.70875 4.065,-6.53875 1.23,-3.06875 3.4775,-12.32999 7.58499,-14.14499 0.68375,-0.3025 0.94,-0.1475 1.22875,0.51625 1.18375,2.71875 1.57375,9.56874 2.73875,12.11999 1.3825,3.025 7.8825,5.69875 12.20375,6.18125 5.68749,0.63375 9.38874,-0.17375 13.69749,-1.56375 2.32625,-0.75 7.05999,-3.07 7.38999,-3.62125 0.23875,-0.3975 0.2675,-0.81125 0.44,-1.35875 0.2975,-0.9425 1.08,-2.38 1.95875,-3.885 3.40375,-5.82374 0.54875,-11.28999 -1.2575,-17.76249 -0.82875,-2.96999 -1.64375,-4.55999 -3.57125,-1.35874 -0.37125,0.61499 -0.735,1.22999 -1.03999,1.76374 -0.0138,0.0238 -0.0263,0.0475 -0.04,0.07 -2.1875,3.855 -1.75875,7.28375 -0.87,11.5325 0.095,0.455 0.18625,0.7725 0.265,0.87625 0.5075,0.67 1.21499,1.0175 1.65499,1.8675 0.37,0.71625 0.7275,2.11499 0.5475,2.42124 -0.27625,0.47 -3.49624,1.42 -4.16749,1.59625 -8.635,2.26625 -21.27124,-0.25875 -23.53249,-8.12624 -1.2475,-4.34375 -2.25125,-13.69124 -2.25125,-13.69124 0,0 -0.9975,-0.006 -1.81125,0.0987 -3.48375,0.44875 -7.04499,5.77624 -8.63374,9.28499 -2.89875,6.40125 -5.40875,16.77749 -11.39125,13.10874 -3.08499,-1.89125 -3.96374,-3.72124 -4.62499,-7.33624 -0.17375,-0.955 -0.505,-3.04875 -0.69125,-5.31125 z m 0.84,4.89375 c 0.14375,-0.16125 0.3075,-0.28375 0.4925,-0.36 0.7075,-0.29 1.79,0.0875 2.7375,-0.1475 2.47999,-0.6175 4.66124,-5.01875 5.61499,-7.6525 0.77,-2.12875 1.2425,-4.50874 1.08,-5.43624 -0.12375,-0.70125 -3.53125,-4.93 -4.4725,-5.5475 -2.37874,-1.5625 -5.57874,-2.72875 -6.49624,-0.80125 -0.665,1.3975 -0.24875,4.58625 -0.9375,5.16375 -0.6275,0.5275 -2.015,-0.10875 -3.3,0.24625 -3.11375,0.86125 -4.7287497,5.30499 -4.8799997,9.11124 -0.0875,2.2325 0.6262497,4.61375 2.5249997,5.065 1.0075,0.23875 2.7975,0.42375 2.7975,0.42375 L 2.2901833,76.64346 c -0.79375,0.4775 -0.91625,0.56375 -1.23375,0.85375 -0.94375003,0.865 -1.29500003,2.54875 -0.89125003,3.125 0.44875,0.64 4.71000003,-0.565 7.01874003,-1.41 1.39875,-0.5125 2.31375,-1.03375 3.8312497,-2.24625 2.7525,-2.20125 7.325,-6.44999 8.66,-7.94499 z m 0.7725,-13.54249 c 0,-0.007 0,-0.0175 -0.001,-0.0412 -0.0462,-0.915 -0.3025,-1.00625 0.705,-0.92875 0.18,0.0137 0.37375,0.065 0.5775,0.14625 1.36749,0.54625 4.60624,3.41249 4.46874,5.30874 -0.0687,0.94375 -2.71875,2.69875 -3.51624,2.8175 -0.1925,0.0287 -0.35,0 -0.45125,-0.10875 -0.17625,-0.1925 -0.0863,-0.68 0.0462,-1.15375 0.0488,-0.1775 0.0975,-0.3525 0.14375,-0.52375 0.40375,-1.49 0.84749,-3.1575 -0.68125,-4.17625 -0.19125,-0.1275 -0.4125,-0.24625 -0.66875,-0.35749 -0.75625,-0.3275 -0.58625,-0.285 -0.6225,-0.9825 z m -1.37875,7.34874 -4.6725,0.0263 c -0.9175,0.005 -1.05375,-0.003 -1.35625,-0.075 -0.51125,-0.12125 -0.9475,-0.34625 -0.775,-0.85875 0.29375,-0.8725 2.8175,-1.6125 3.32625,-1.5325 0.55625,0.0875 2.4375,0.84375 3.02,1.2325 0.23125,0.15375 0.3925,0.26375 0.505,0.35 1.47625,1.135 -1.1925,0.86375 -0.0475,0.8575 z m 27.53623,35.54998 4.88625,5.0625 6.58499,-6.82375 -6.58499,-6.82374 -4.88625,5.06249 -4.885,-5.06249 -6.58499,6.82374 6.58499,6.82375 4.885,-5.0625 z m 13.26874,-30.75498 0.60625,-0.0113 c 0.2725,-0.005 0.34625,-0.1775 0.73125,-1.71875 2.21625,-8.865 2.62,-13.75999 -2.83,-19.44499 -0.89875,-0.93625 -1.94374,-1.72125 -2.61749,-0.8825 -0.4575,0.57 -0.925,4.58875 -0.71625,5.46625 0.365,1.53375 1.445,2.0325 2.69249,3.075 2.8175,2.35375 3.52375,4.11874 3.165,7.25499 -0.275,2.405 -1.03125,6.26125 -1.03125,6.26125 z" />
</svg>
