<?xml version="1.0" encoding="UTF-8" standalone="yes"?>
<svg>
<path
	style="stroke:none; fill:#000000"
	d="m 48.178808,44.6227 c 0.0011,0.035 0.0024,0.071 0.0037,0.107 0.3001,8.256 1.4773,15.207 6.8289,19.041 2.9168,2.09 7.3784,3.808 10.5499,3.568 0.875,-0.066 1.949,-0.219 2.966,-0.387 2.4109,0.648 5.8942,-2.568 8.915,-3.703 1.8,-0.521 4.0158,-0.993 5.2348,-1.032 1.943,-0.061 11.17,1.287 12.399,0.041 0.871,-0.883 0.713,-2.937 1.468,-4.594 0.874,-1.919 2.137,-2.812 0.775,-4.061 -0.703,-0.645 -4.182,-0.877 -6.795,-1.191 -6.539,-0.788 -8.034,-3.722 -12.7087,-7.954 -2.5523,-2.311 -4.7992,-3.766 -7.4244,-4.261 -1.9433,-0.366 -6.9043,0.014 -7.8957,0.605 -0.926,0.552 -2.9159,4.508 -2.9881,6.613 -0.0392,1.145 0.2317,2.865 0.2317,2.865 l 4.7312,-0.362 c 1.4193,-0.109 1.7208,-0.121 3.0149,-0.125 3.8854,-0.013 7.3086,2.073 6.9024,5.028 -0.7624,5.548 -12.1204,2.326 -15.8739,-0.071 -2.1168,-1.351 -5.1527,-4.182 -5.7423,-7.216 -0.2012,-1.036 -0.2382,-1.304 -0.37,-2.684 -0.2929,-3.069 -0.6084,-6.459 -0.9367,-9.938 l -0.8789,-11.2 c -0.678,-6.6 -1.361,-12.471 -1.976,-15.847 -0.6782,-3.724 -1.5139,-7.864 -1.5139,-7.864 l -0.9397,0.072 c -0.4222,0.032 -0.5334,0.177 -1.1123,1.447 -0.6065,1.332 -0.9171,2.824 -1.3721,4.149 -0.1376,0.4 -0.2884,0.786 -0.3258,1.2 -0.0503,0.559 -0.0293,0.772 0.2104,2.139 0.8396,4.787 1.9695,11.109 2.9478,16.872 1.772,10.438 1.3586,8.902 1.6748,18.743 z m -24.1664,-19.005 -6.3277,6.159 6.3277,6.159 6.3277,-6.159 -6.3277,-6.159 z m 55.8277,0 -6.3274,6.159 6.3274,6.159 6.328,-6.159 -6.328,-6.159 z m -53.6152,-15.629 -5.7964,5.493 c -0.9632,0.913 -1.1002,1.077 -1.3697,1.639 -0.3774,0.787 -0.508,2.104 -0.3225,2.282 0.6004,0.578 2.723,-0.825 3.4618,-1.344 6.4703,-4.552 9.4178,-7.42 10.464,-13.314 0.5317,-2.997 -1.1313,-4.156 -4.0738,-4.538 -4.6684,-0.607 -9.301,0.014 -11.1145,3.367 0.283,12.801 0.6816,5.481 4.6405,4.572 4.4041,-1.011 9.1396,-3.257 4.1106,1.843 z m -10.6342,34.789 0.2048,-2.412 -3.5866,0.765 c -17.4363,3.719 -3.9322,-24.571 -7.2729,-19.395 -3.8475,5.961 -5.5303,13.078 -4.749,19.444 0.0852,0.695 0.1782,1.326 0.2916,1.905 1.8201,9.281 14.5129,6.746 15.1121,-0.307 z m 67.1424,-32.99 c 1.183,-0.375 2.293,-0.674 3.305,-0.886 0.891,-0.186 1.781,-0.336 1.95,-0.048 0.083,0.143 -0.011,0.394 -0.155,0.678 -0.338,0.666 -0.878,1.473 -1.478,2.337 -12.4509,17.935 7.188,-6.955 12.761,-7.654 0.51,-0.24 0.988002,-0.434 1.412002,-0.561 2.169,-0.651 4.518,-0.79 4.803,-2.773 0.04,-0.278 0.045,-0.625 0.036,-0.961 -0.095,-3.249 -5.652002,-1.695 -9.568002,-0.273 -0.316,0.114 -0.645,0.235 -0.987,0.362 -9.86,3.673 -21.8452,8.85 -30.0341,14.339 -4.5955,3.081 -8.2986,6.374 -9.4411,9.495 -1.0029,2.739 -0.8164,5.808 1.1828,8.448 0.0858,0.113 0.1636,0.215 0.2346,0.307 -0.9024,-1.169 2.4468,3.748 2.2538,-1.247 -0.046,-1.193 -0.1873,-2.692 -0.5983,-3.069 -0.2383,-0.218 -0.5672,-0.06 -0.7735,-0.178 -0.928,-0.531 0.6505,-2.723 1.4027,-3.56 1.5031,-1.674 3.5329,-3.437 5.8845,-5.19 0.8385,-0.624 8.851,-6.727 17.8096,-9.566 z m -14.5503,5.541 -0.1567,-3.424 c -0.0634,-1.383 -0.0424,-1.631 0.2095,-2.479 0.1868,-0.629 0.3841,-1.317 0.8843,-1.76 1.219,-1.08 4.2371,-0.707 5.6364,-1.597 2.0147,-1.281 2.0162,-5.681 0.4657,-7.465 -1.644,-1.891 -4.9676,1.112 -6.3295,2.831 -0.8364,1.056 -1.6284,2.265 -1.9847,3.677 -0.1652,0.655 -0.2564,1.397 -0.3856,2.048 l -0.6324,3.184 -2.0881,-2.535 c -2.8584,-3.591 -1.9867,-4.658 -6.1868,-5.635 -1.4072,-0.327 -4.459,-0.205 -5.0456,1.307 -0.459,1.183 0.6186,4.059 1.2936,4.742 0.519,0.525 2.6209,1.829 3.4891,1.909 1.4186,0.131 4.3174,-0.694 4.3174,-0.694 0,0 2.3395,3.213 3.7686,4.722 0.6235,0.658 1.1392,1.188 1.9389,1.203 0.3302,0.005 0.8059,-0.034 0.8059,-0.034 z m -57.4005,51.856 c -4.2938,-4.333 -5.1678,-11.302 -1.3949,-18.242 0.447,-0.822 2.1845,-3.705 3.1971,-6.192 l -1.813,0.778 -5.3708,9.099 c -0.333,0.698 -0.6383,1.38 -0.8773,2.017 -1.4161,3.772 -1.5069,11.423 -0.5566,14.6 1.0784,3.604 2.8517,6.017 5.4769,7.728 6.5391,4.261 17.2618,5.054 23.9366,1.29 2.6264,-1.481 4.8866,-3.544 6.0358,-5.665 0.7272,-1.343 4.7976,-11.308 4.9385,-12.853 0.2218,-2.432 -0.1698,-5.934 -0.1698,-5.934 0,0 0.1328,-0.01 0.5908,-0.045 5.6184,0.014 2.4945,-0.532 1.2526,-3.028 -0.9366,-1.881 -3.4381,-5.209 -5.2294,-7.364 -1.1661,-1.403 -1.5421,-1.935 -2.3861,-1.263 -3.0049,2.391 -3.9964,8.727 -2.7489,10.983 0.83,1.502 2.545,2.827 3.5538,4.701 0.4872,0.906 1.8246,5.123 1.5618,6.234 -0.3655,1.545 -3.7548,3.739 -6.6651,5.224 -3.073,1.567 -6.3099,2.181 -9.1499,2.331 -5.9936,0.318 -10.6001,-0.784 -14.1821,-4.399 z"/>
</svg>