<?xml version="1.0" encoding="UTF-8" standalone="no"?>
<svg
   xmlns:dc="http://purl.org/dc/elements/1.1/"
   xmlns:cc="http://creativecommons.org/ns#"
   xmlns:rdf="http://www.w3.org/1999/02/22-rdf-syntax-ns#"
   xmlns:svg="http://www.w3.org/2000/svg"
   xmlns="http://www.w3.org/2000/svg"
   xmlns:sodipodi="http://sodipodi.sourceforge.net/DTD/sodipodi-0.dtd"
   xmlns:inkscape="http://www.inkscape.org/namespaces/inkscape"
   id="svg2"
   version="1.1"
   inkscape:version="0.48.0 r9654"
   width="100%"
   height="100%"
   sodipodi:docname="omar2.svg">
  <metadata
     id="metadata10">
    <rdf:RDF>
      <cc:Work
         rdf:about="">
        <dc:format>image/svg+xml</dc:format>
        <dc:type
           rdf:resource="http://purl.org/dc/dcmitype/StillImage" />
        <dc:title></dc:title>
      </cc:Work>
    </rdf:RDF>
  </metadata>
  <defs
     id="defs8" />
  <sodipodi:namedview
     pagecolor="#ffffff"
     bordercolor="#666666"
     borderopacity="1"
     objecttolerance="10"
     gridtolerance="10"
     guidetolerance="10"
     inkscape:pageopacity="0"
     inkscape:pageshadow="2"
     inkscape:window-width="1024"
     inkscape:window-height="682"
     id="namedview6"
     showgrid="false"
     inkscape:zoom="1.1796009"
     inkscape:cx="196.3185"
     inkscape:cy="995.58226"
     inkscape:window-x="-4"
     inkscape:window-y="-4"
     inkscape:window-maximized="1"
     inkscape:current-layer="svg2" />
  <path
     id="path2989"
     style="fill:#000000;stroke:none"
     d="m 23.619602,44.98251 c 0.285,-0.2475 0.69375,-0.43625 1.22125,-0.5525 1.7075,-0.3775 4.64875,0 4.64875,0 0,0 1.00625,-3.62875 0.63375,-5.37875 -0.41625,-1.95125 -4.26,-2.0925 -6.33375,-0.6675 -2.6525,1.8225 -4.055,9.74625 -3.1675,12.1975 0.245,0.67875 0.6225,1.29375 1.1225,1.785 0.1825,0.18 0.38125,0.3425 0.5875,0.51125 l 1.45625,1.19 0.78,1.9275 c 0.32375,0.80125 0.5325,1.4925 0.5325,1.4925 0,0 5.925,-3.40375 7.8725,-5.57125 0.86375,-0.95875 0.94625,-1.67625 1.2675,-2.87875 0.5825,-2.17625 1.45875,-4.22125 0.95,-4.6075 -0.42125,-0.32 -1.64375,-0.17 -2.6075,0.32125 -1.425,0.725 -2.28625,2.195 -4.5625,2.55875 -0.635,0.10125 -1.38,0.11625 -2.02625,0.1 -4.9725,-0.6975 -1.0625,-3.56875 -2.375,-2.4275 z m 71.41126,-22.56 0.69125,-0.01 c 0.31125,-0.005 0.39375,-0.1775 0.83375,-1.72 2.52625,-8.8675 2.9875,-13.765 -3.2275,-19.4525 -1.02375,-0.93626 -2.21625,-1.72251 -2.985,-0.88251 -0.52125,0.56875 -1.05375,4.59001 -0.815,5.46751 0.415,1.535 1.64625,2.03375 3.06875,3.07625 3.2125,2.355 4.01875,4.12125 3.61,7.2575 -0.31375,2.4075 -1.17625,6.26375 -1.17625,6.26375 z m 25.231258,39.09876 c 0.22,2.75 1.63125,4.46 4.1975,4.9525 3.3125,0.6375 5.185,-0.995 6.03375,-4.29875 0.18625,-0.72375 0.14375,-1.3275 -0.36875,-1.61875 -0.97625,-0.555 -3.655,0.0213 -4.95,-0.605 -1.61125,-0.7775 -2.02125,-4.08626 -1.6225,-5.63251 0.39875,-1.5475 1.415,-3.20625 1.6925,-4.39875 0.0562,-0.24125 0.0825,-0.465 -0.0337,-0.58875 -0.015,-0.015 -0.03,-0.03 -0.0437,-0.0437 -3.8975,-0.8075 -4.845,12.97626 -4.905,12.23376 z m -35.230008,36.40625 5.7775,5.2525 8.085,-7.35 -8.085,-7.35 -5.7775,5.2525 -5.7775,-5.2525 -8.08375,7.35 8.08375,7.35 5.7775,-5.2525 z m 12.19,-24.12 0,-0.775 c -0.10875,-0.02 -0.22375,-0.0425 -0.34375,-0.0675 -6.795,-1.4325 -11.06625,-6.9275 -11.70625,-13.2025 -0.1175,-1.14376 -0.0788,-2.28251 0.18625,-3.39376 0.3575,-1.5 0.38125,-1.85125 0.235,-3.52 l -3.16125,-35.90375 c -0.14625,-1.66875 -0.145,-1.90625 0.0238,-2.37625 0.12625,-0.34875 0.1475,-0.72375 0.17375,-1.08375 0.14125,-1.865 0.43125,-3.30875 0.1825,-5.6225 C 82.474662,4.72876 81.147162,0 81.147162,0 c 0,0 -2.52,1.98626 -4.20625,3.86501 -1.56875,1.74625 -4.37,6.515 -1.93375,9.0875 0.36,0.37875 0.425,0.60625 0.65125,2.26625 0.68375,5.0275 1.725,12.4325 2.41125,18.21 1.565,13.1625 2.14875,19.07 -12.83,23.11875 -7.39625,1.99875 -16.36126,4.34876 -18.87751,5.75251 -5.09125,2.84125 -6.23375,8.4575 -7.2025,15.42375 -0.36375,2.61 0.23125,3.63625 2.8125,4.47875 5.70375,1.865 21.09001,2.13125 21.87876,3.31 0.88375,1.32 -3.275,3.03375 -6.06125,3.8775 -11.76251,3.56125 -17.59626,4.10125 -28.60001,1.6925 -1.275,-0.27875 -2.4375,-0.56 -3.5025,-0.85875 -21.6474995,-6.065 -10.93,-39.92001 -13.96375,-32.12251 -2.2049995,5.66501 -4.7749995,14.66376 -5.0224995,15.67501 -2.09125,8.545 2.01875,21.38625 9.6949995,25.5675 2.19375,1.195 11.4425,3.5225 15.05625,3.78875 4.05625,0.3 17.325,-0.78875 25.88875,-4.44375 4.89001,-2.0875 10.86751,-9.68625 12.02251,-14.515 0.6525,-2.7275 0.82875,-5.60625 0.47,-6.6525 -1.06125,-3.09125 -3.38625,-4.18625 -6.90625,-4.6375 -4.0025,-0.5125 -11.61001,-1.055 -11.61001,-1.055 l -0.0188,-0.99125 19.75126,-6.185 c 1.74,-0.545 2.0175,-0.64 2.77375,-0.94875 0.545,-0.22375 1.0675,-0.50125 1.48625,-0.9 6.74125,-6.41626 5.05,-5.11626 5.22125,3.785 0.0438,2.2725 0.06,3.13875 0.06,3.13875 0.0325,1.6725 0.055,1.99875 0.23125,3.26125 0.41125,2.96 3.6225,7.61375 5.455,8.82125 0.1325,0.0875 0.26875,0.1725 0.41125,0.25625 6.3075,3.7275 13.628748,3.84875 18.136248,0.78625 0.0825,-0.0575 0.17125,-0.12 0.26625,-0.19 1.585,-1.16375 5.75375,-7.17 5.76375,-7.18625 3.92875,-6.33875 1.6325,-15.505 -0.5925,-24.95626 -0.37625,-1.60125 -0.45625,-1.78375 -0.7975,-1.82125 -3.02,-0.33125 -6.5175,7.535 -6.82375,9.6425 -0.18625,1.27876 -0.0562,2.68251 0.3175,3.85626 0.4725,1.4825 1.3325,2.595 1.89375,4.7725 0.7175,2.77875 0.9475,7.29125 0.9475,7.29125 L 97.222112,73.80752 z M 128.17462,18.20126 c 0.23875,2.37 0.88375,2.815 2.3525,1.73 1,-0.73875 13.45125,-11.87125 14.93625,-14.68375 0.59875,-1.1325 0.9925,-2.98125 0.87875,-4.53626 -0.0712,-0.9575 -0.36375,-0.855 -1.34375,-0.2375 -2.27125,1.43126 -16.245,14.43251 -16.53,15.38001 -0.2675,0.88625 -0.3525,1.76 -0.29375,2.3475 z m -20.03501,72.46876 7.92251,-0.4125 c 6.0325,-0.80875 14.77875,-2.10625 17.88625,-3.2 5.295,-1.865 19.885,-12.62 21.84625,-15.85375 2.19375,-3.62125 3.86125,-16.58501 3.46625,-21.91751 -0.20875,-2.82375 -0.88625,-5.1075 -1.365,-8.945 -0.78375,-6.27875 -1.035,-16.715 -1.035,-16.715 0,0 0.015,-10e-4 0.13375,-0.005 7.105,2.60625 6.1025,2.07625 4.56125,0.0738 -1.93875,-2.51875 -3.975,-16.6675 -4.50375,-19.77375 -0.2025,-1.18625 -0.32875,-1.92625 -0.32875,-1.92625 0,0 -3.7425,1.915 -5.87125,3.3325 -2.56375,1.70625 -4.11125,4.73375 -2.345,7.35375 0.545,0.81 1.48,1.39375 2.115,2.19875 0.77625,0.985 1.10375,2.3025 1.33125,3.7575 1.2975,8.30375 -0.0913,23.54125 1.0975,28.58375 0.5425,2.3025 1.4375,4.105 1.76375,7.55375 0.15875,1.67875 0.1825,3.7475 0.1625,5.48876 -0.005,0.44375 -0.0275,1.22875 -0.11375,1.99625 l -1.78125,4.61625 -1.18625,-6.66125 c -1.16125,-5.19876 0.0213,-6.02501 -10.28,-17.03126 -1.755,-1.87625 -3.45875,-3.455 -4.8075,-4.45125 -1.71625,-1.2675 -3.48,-2.235 -5.1475,-3.5875 -1.85125,-1.50125 -3.585,-3.475 -5.255,-5.51375 -1.65125,-2.01625 -9.72875,-10.48125 -6.34,-11.37375 1.23625,-0.32625 2.205,-0.59375 2.95,-0.8225 l 2.275,-0.6975 c 0,0 -2.79125,-2.7075 -2.79125,-2.7075 -1.64375,-1.59375 -4.35625,-4.20625 -6.52,-6.2875 -4.10251,-3.94625 -2.34126,-2.41375 -6.78376,-6.0325 C 107.78961,0.5638 107.09836,5e-5 107.09836,5e-5 l -1.755,4.76626 c -1.10375,2.995 -1.4375,4.4625 0.14375,6.50625 1.41125,1.8225 3.92125,3.76375 5.71875,5.91625 1.0525,1.26 1.86125,2.59375 2.57375,3.97375 14.15751,26.2325 29.16626,28.41125 31.66876,36.23875 2.66,3.92251 5.3925,9.16751 4.86375,10.59376 -0.49625,1.33625 -6.19125,4.95 -11.0475,7.8075 -4.20125,2.47375 -6.2775,3.6675 -10.78375,5.6125 -3.8175,1.64875 -7.88125,3.21875 -11.235,4.57875 l -9.10626,4.67625 z M 6.0321025,38.30001 c -0.68,0.98625 -1.3075,1.945 -1.5725,2.48375 -0.18,0.3675 -0.36625,0.7375 -0.555,1.10875 -1.0225,2.01375 -1.95125,3.8525 -2.67625,5.60125 -1.85376002,4.47125 -2.53876,15.44626 4.84875,17.62126 1.63125,0.48 3.4475,-0.175 5.2924995,-2.82625 1.4425,-2.075 2.4375,-4.84751 2.4375,-4.84751 0,0 -3.73,1.02125 -5.4962495,0.48875 -7.1075,-2.145 -4.12,-11.07875 -2.0625,-16.305 1.71875,-4.365 2.94,-7.905 -0.21625,-3.325 z m 44.6312495,-18.565 -0.63,-10.935 c -0.0888,-1.525 -0.1225,-1.79 -0.34625,-2.65375 -0.685,-2.6475 -2.53,-4.09875 -4.4575,-5.035 -2.45125,-1.19001 -4.3225,-1.63251 -6.85,0.0437 -2.0775,1.37875 -2.27375,6.36875 -1.45625,7.14875 0.60875,0.5825 2.22375,0.53 4.1775,0.1125 4.8825,-1.0425 5.37125,-0.8025 6.6425,3.89125 0.605,2.23 0.67625,4.32 0.37875,6.5625 -0.63125,4.76375 -2.11375,7.08 0.7925,9.8775 1.20875,1.16375 2.4725,1.33875 5.23125,0.8225 1.96,-0.36625 2.34875,-1.195 3.17125,-3.6625 0.57876,-1.7375 1.03626,-3.29375 0.88751,-5.02625 -0.29375,-3.43625 -4.38126,-9.89625 0.545,-11.50125 0.90875,-0.29625 2.09125,-0.1025 3.11,0.1 1.37375,0.27125 1.60625,0.14875 2.33,-1.23375 0.59625,-1.1375 1.28375,-2.1825 1.6625,-3.40625 1.42125,-4.59251 -0.755,-5.88876 -5.12125,-4.00751 -5.00876,2.15751 -7.25876,11.40251 -6.18876,17.60126 0.3275,2.555 0.6875,4.855 0.6875,4.855 0,0 -0.83625,-0.009 -1.3775,-0.145 -0.6725,-0.17 -0.89125,-0.535 -1.38375,-0.9075 -0.3,-0.2275 -0.7025,-0.4575 -1.105,-0.5975 -0.5425,-0.18875 -0.6125,-0.37875 -0.7,-1.90375 z m 0.425,23.525 -6.22125,5.61875 c -1.03375,0.93375 -1.18125,1.10125 -1.47,1.67625 -0.405,0.80625 -0.54625,2.1525 -0.34625,2.335 0.64375,0.59125 2.9225,-0.84375 3.715,-1.375 6.945,-4.6575 10.10875,-7.59 11.23251,-13.62 0.57125,-3.065 -1.21501,-4.25125 -4.37251,-4.64125 -5.01125,-0.62125 -9.98375,0.0137 -11.93,3.44375 0.30375,13.095 0.73125,5.60625 4.98,4.6775 4.7275,-1.035 9.81125,-3.33125 4.4125,1.885 z m -39.42,-5.8975 c 1.92875,0.0263 4.06125,-0.4775 4.66875,-0.86875 1.78875,-1.15125 3.605,-5.01375 3.34625,-7.00125 -0.0875,-0.67 -1.39125,-3.19125 -2.67625,-3.9575 -2.5,-1.49125 -3.85125,-0.35375 -3.34625,-2.8625 1.35125,-6.71125 3.53,-6.48125 2.67625,-10.95875 -0.2725,-1.43 -4.2375,-12.04876 -5.9725,-11.70501 -0.5149995,0.1025 -1.8962495,3.21876 -2.0574995,4.64251 -0.42,3.71875 2.3249995,5.05 4.3587495,10.74375 1.17375,3.2825 -0.26625,5.47375 -2.35125,9.835 -0.23125,0.485 -0.4562495,0.97 -0.6437495,1.465 -2.0825,5.45875 -0.91625,10.62625 1.9974995,10.6675 z"
     inkscape:connector-curvature="0" />
</svg>
