<?xml version="1.0" encoding="UTF-8" standalone="no"?>
<svg>
    <path
       style="fill:#000000;stroke:none"
       d="m 112.64752,14.740779 0.8725,44.98375 -5.96125,-0.55 c -1.54127,-0.1425 -1.82627,-0.1925 -2.84502,-0.5075 -1.08375,-0.33375 -2.44,-1.22625 -3.10375,-1.84 -1.3525,-1.2475 -3.696247,-4.23375 -3.696247,-4.23375 0,0 -2.175,2.3 -3.83375,3.6375 -1.5625,1.25875 -4.8625,2.95125 -6.3625,3.0425 -2.63,0.1625 -7.02125,-3.085 -8.22375,-5.305 -2.46375,-4.54875 -1.45625,-8.6225 -6.03375,-9.855 -8.24375,-2.22 -17.38625,5.04625 -20.3925,12.26125 -0.72625,1.74375 -1.1975,3.78 -1.5475,5.7325 -0.2725,1.5275 -0.455,1.77875 -1.81875,2.51125 -10.79875,5.79875 -28.487492,15.4325 -32.632492,16.9375 -5.93375,2.155 -9.4949999,1.09375 -12.5349999,-4.80625 -1.9225,-3.7325 -0.22875,-7.12 3.24375,-12.4575 4.1437499,-6.37 6.5612499,-9.2525 8.4224999,-15.15625 0.28625,-0.9075 0.11125,-1.02625 -0.90125,-0.92875 -0.41375,0.04 -0.57875,0.17 -1.645,1.29375 -7.5649999,7.97875 -18.0737499,25.06625 -11.6724999,37.0175 4.29,8.01 12.0899999,6.5725 19.7437499,2.7125 4.443744,-2.24 9.262492,-5.19875 13.102492,-7.8825 2.36375,-1.65375 4.3575,-3.20125 7.85125,-4.79375 3.91625,-1.785 9.72,-3.62375 9.72,-3.62375 0,0 1.11125,2.98375 2.01875,4.68875 3.30875,6.2175 15.30751,10.65875 19.41501,4.9275 0.7575,-1.0575 1.45624,-2.56875 2.0125,-4.2775 3.68499,-11.31875 -0.9575,-19.23375 -14.36625,-16.615 -0.50375,0.09875 -1.07,0.19375 -1.73501,0.265 -2.02999,0.2175 -4.98499,0.22 -4.98499,0.22 0,0 4.535,-5.20125 7.22124,-7.0425 2.71625,-1.86125 6.39501,-2.4075 8.62125,-0.9975 3.75,2.37625 2.37501,4.04125 4.43626,8.68125 2.30624,5.18875 10.495,7.7825 15.32125,4.15 0.89124,-0.6725 1.59875,-1.27125 2.19749,-1.7425 l 2.0525,-1.6125 2.10126,1.57875 c 0.90875,0.6825 1.9225,1.54375 2.91374,2.07 1.585017,0.8425 12.398767,2.0025 14.328767,0.5375 1.40123,-1.06375 2.1725,-3.695 3.06248,-5.75125 0.34375,-0.795 0.73252,-1.58375 0.88627,-2.43875 0.20873,-1.15375 0.23248,-1.45375 0.23748,-3.00125 0,0 0.12502,-38.6325 0.12502,-38.6325 0,0 0.45,0.0075 0.71875,0.0125 0.7025,0.01125 3.50375,1.89375 1.99375,-0.825 -1.27125,-2.2875 -1.685,-6.72875 -2.135,-9.3674996 -0.575,-3.365 -1.18375,-6.22375 -1.71127,-7.04625002 -1.1425,-1.78625018 -4.2575,0.10625 -5.77373,2.19250002 -1.49,2.0525 -1.07875,5.01875 0.5375,8.5462496 0.64748,1.41375 0.72375,1.7425 0.75375,3.29 z m -42.396267,57.89125 c 0.11125,0.20125 0.12876,0.64875 -0.015,0.9175 -0.73374,1.36125 -8.75499,-2.29375 -9.12875,-2.7975 -0.40874,-0.55125 -0.36124,-1.17 0.025,-1.37625 0.63125,-0.33875 7.88125,0.99875 9.11874,3.25625 z m 21.06875,6.675 5.18,5.17875 6.881247,-6.88125 -6.881247,-6.88125 -5.18,5.17875 -5.17875,-5.17875 -6.88125,6.88125 6.88125,6.88125 5.17875,-5.17875 z m 10.490017,4.295 c -0.45752,2.86 0.0988,3.5625 1.99998,2.685 1.295,-0.59875 18.00002,-10.31625 20.44002,-13.22625 0.98373,-1.17125 1.9625,-3.245 2.30873,-5.11 0.21375,-1.1475 -0.13125,-1.1075 -1.36875,-0.6475 -2.86625,1.06625 -21.76625,12.57125 -22.35875,13.61125 -0.55375,0.97 -0.9075,1.9775 -1.02125,2.6875 z" />
</svg>
