<?xml version="1.0" encoding="UTF-8" standalone="no"?>
<svg>
  <path
     style="fill:#000000;stroke:none"
     d="m 154.28849,67.833245 -0.025,-0.96004 2.92386,-0.0762 c 1.31381,-0.035 1.52007,0.006 2.06134,0.41627 1.42255,1.07629 1.91507,2.69511 1.09629,3.7014 -0.52502,0.64627 -2.68511,0.17625 -4.79394,-1.56757 -1.12505,-0.93128 -1.2513,-1.08254 -1.26255,-1.51381 z m -84.688418,-16.1394 -2.23134,0.0575 c -1.00254,0.0275 -1.20505,0.0125 -2.02758,-0.145 -1.01754,-0.19501 -2.24134,-0.78378 -2.35135,-1.30005 -0.105,-0.48877 -0.0375,-1.43881 -0.0375,-1.43881 l 2.26259,-0.06 c 1.01629,-0.0263 1.20005,-0.009 1.83008,0.17626 0.85253,0.25001 2.43509,1.3038 2.5301,1.75007 0.0825,0.39127 0.025,0.96004 0.025,0.96004 z m 16.59067,43.72052 c 2.6201,1.4438 5.52772,2.27634 8.52659,2.73636 2.89887,0.44501 6.811528,0.93003 9.727898,1.2738 l 4.47518,0.52752 0.1725,-3.16138 c 0.035,-0.62502 0.10251,-1.34505 0.22876,-2.05883 0.45627,-2.56386 1.68257,-5.06271 1.68257,-5.06271 0,0 -6.05399,-0.27001 -9.36288,-1.00379 -3.341378,-0.74128 -7.564048,-5.1052 -7.425298,-9.70914 0.11501,-3.7889 3.15263,-5.62898 7.254048,-8.29408 2.42759,-1.57632 6.2415,-3.6489 7.96907,-3.81016 1.11379,-0.10375 2.38884,-0.0625 2.38884,-0.0625 0,0 -0.58127,4.52393 -0.41876,6.85278 0.50377,7.19154 16.65192,6.74777 21.93713,6.98653 2.92387,0.1325 6.40026,-0.0512 7.91532,-0.80878 4.50768,-2.25509 5.44897,-5.12771 10.30417,-1.77132 3.53389,2.44134 6.46276,5.88148 10.47417,4.22642 3.44889,-1.42381 6.73652,-10.47918 6.00649,-13.97557 -0.32501,-1.55756 -1.17004,-3.21888 -1.63006,-5.0027 -1.18755,-4.60269 -0.15126,-6.00274 -5.11646,-6.21275 -3.94016,-0.16501 -6.314,0.48377 -9.51913,2.5226 -1.85008,1.1763 -4.14392,2.85637 -5.06146,4.46393 -2.04508,3.5839 -0.61002,4.98645 -4.51393,6.1215 -3.14388,0.91378 -18.15073,-0.24501 -21.34836,-0.94004 -1.33756,-0.29001 -6.174,-2.25009 -4.8852,-4.01266 0.59627,-0.81628 4.33393,-1.59757 5.09521,-1.69507 4.54893,-0.57627 12.78051,-0.0263 12.78051,-0.0263 0,0 0.66128,-3.17263 1.75632,-6.16525 l 1.39881,-3.82265 -5.20521,0.15875 c -0.63753,0.0188 -1.36131,0.0325 -2.02258,0.0238 -2.61011,-0.0375 -5.38897,-0.77753 -7.57906,-1.90257 -10.09541,-5.17771 -16.13815,-10.45793 -26.533568,-8.60535 -3.63765,0.64877 -6.09399,2.53885 -6.69902,6.179 -0.39877,2.39259 -0.72378,6.62152 -0.72378,6.62152 0,0 8.6316,0.28751 10.34042,-0.87254 1.885068,-1.28005 1.31755,-2.28134 2.908868,-2.34259 1.06754,-0.04 2.28134,0.53002 3.90265,1.55256 1.96883,1.2413 4.53644,3.14763 4.53644,3.14763 0,0 -3.12888,1.01254 -5.46147,1.98883 -8.234088,3.44513 -13.336788,9.68539 -13.863058,18.45574 -0.20126,3.35639 0.21001,8.01407 0.21001,8.01407 0,0 -1.05255,-0.0925 -1.87258,-0.28626 -4.9502,-1.16754 -10.28292,-13.19053 -10.89919,-16.66567 -0.21876,-1.23005 -0.21876,-2.38135 0.0112,-3.57014 0.58502,-3.02013 2.65886,-6.28151 3.02012,-9.23413 0.78753,-6.45401 -7.35404,-16.82943 -14.44558,-17.62696 -5.13521,-0.57627 -7.87782,3.29638 -8.31534,9.24412 -0.11125,1.51257 -0.14375,3.09888 -0.30376,4.53394 -0.75628,6.75027 1.03379,8.97786 8.63285,9.63164 1.01504,0.0862 1.90758,0.14375 2.86637,-0.0763 2.05508,-0.47127 5.22896,-2.64635 4.53268,-0.35876 -0.26251,0.86128 -0.90254,1.90383 -1.57632,2.70761 -0.91003,1.08129 -1.14504,1.32255 -2.34384,2.40635 -10.62168,9.60913 -15.56938,15.23811 -23.23469,19.24952 -3.7039,1.93758 -10.619181,4.60269 -17.355701,7.12904 -15.35937,5.75898 -9.62414,4.38393 -1.29755,6.62777 7.13654,1.923815 21.919631,-4.78145 26.848581,-8.87036 3.21138,-2.66511 7.56531,-7.09029 11.1492,-10.57793 l 7.2403,-7.04528 1.4313,4.26517 c 0.33002,0.98629 0.62628,2.10133 0.83129,2.93262 2.07758,8.41534 6.3765,12.80052 10.45792,15.04936 z M 6.59348,64.586787 c -0.440143,3.80516 -1.47406,13.6068 -1.078794,18.63951 0.946539,12.04798 10.346295,12.97552 21.717625,7.77156 8.03783,-3.67765 12.223,-8.03157 21.109601,-15.56063 3.42514,-2.90137 3.34389,-3.54014 3.92516,-9.8879 0.89629,-9.76039 1.41381,-13.6543 -7.61531,-17.02569 -4.921441,-1.83757 -10.875431,-3.66889 -11.197951,-4.44142 -0.44626,-1.0688 0.92504,-2.4676 0.23126,-3.57765 -0.82253,-1.3163 -4.55393,-2.22384 -7.19779,-4.26142 -4.13016,-3.18138 -5.39147,-6.07275 -6.69777,-1.47131 -2.39985,8.45534 1.3163,12.67801 11.31546,18.80826 1.76507,1.08129 3.63139,2.06883 5.48147,2.77261 2.4151,0.92004 12.546761,3.49264 12.129241,8.26658 -0.04,0.45877 -0.16501,0.64253 -1.2513,1.84508 -1.41631,1.56756 -2.98262,3.12388 -4.62269,4.31517 -1.087541,0.79004 -2.206341,1.41881 -3.230131,2.18634 -1.01504,0.76003 -1.93758,1.65632 -2.92387,2.4776 -2.17383,1.81132 -10.34041,6.70652 -15.99064,8.38409 C 8.787318,87.362707 6.21834,67.829417 6.59348,64.586787 z" />
</svg>
