<?xml version="1.0" encoding="UTF-8" standalone="no"?>
<svg>
  <path
     d="m 116.47599,17.626288 c 1.096,-1.051 2.3,-2.211 4.134,-3.474 1.466,-1.009 3.333,-2.083 3.333,-2.083 0,0 -0.726,2.895 -1.064,4.919 -0.365,2.188 -0.256,3.673 0.229,5.343 0.751,2.581 1.136,-7.414 4.484,-11.609 0.532,-0.666 1.069,-1.1630005 1.565,-1.3650005 0.426,-0.174 0.852,-0.203 1.244,-0.389 1.599,-0.758 3.373,-5.746 3.823,-7.749 0.275,-1.22399997 0.101,-1.43599997 -1.062,-1.03399997 -2.682,0.92799997 -5.913,3.19599997 -8.068,5.04899997 -3.125,2.688 -5.979,5.9430005 -9.249,8.4640005 -1.654,1.276 -5.159,3.41 -6.58,4.992 -0.685,0.764 -3.005,3.946 -3.176,5.137 -0.054,0.37 -0.068,0.813 -0.065,1.226 0.016,1.991 0.988,1.306 1.739,0.445 3.044,-3.493 7.845,-7.039 8.713,-7.872 z m -17.212903,25.578 -0.4164,-30.3 c -0.0168,-1.225 -0.0318,-1.399 -0.1493,-1.742 -0.0871,-0.254 -0.1097,-0.524 -0.1275,-0.791 -0.23,-3.4430005 -0.0852,-9.50400047 -2.1924,-8.4710005 -1.8042,0.884 -0.9018,2.822 -2.8192,6.318 -0.7133,1.301 -0.9286,1.9350005 0.1951,4.3280005 0.483,1.029 0.5413,1.279 0.5832,2.504 l 1.3228,38.658 c 0.0419,1.225 0.1381,1.414 0.9617,1.899 2.7274,1.606 7.976903,1.761 9.557903,1.656 1.276,-0.085 2.5,-0.176 3.54,-0.681 1.156,-0.561 2.085,-1.633 3.022,-2.042 0.679,-0.296 1.363,-0.244 2.242,0 7.923,2.201 10.054,5.912 13.115,3.177 0.952,-0.851 4.106,-6.932 4.311,-8.314 0.02,-0.132 0.019,-1.113 -0.048,-2.435 -0.826,-2.323 -0.351,-4.759 -0.95,-6.584 -0.223,-0.677 -0.492,-1.21 -0.817,-1.5 -2.315,-2.065 -7.551,0.396 -10.664,2.042 -2.064,1.091 -7.713,3.872 -7.942,4.614 -0.274,0.888 0.401,2.187 0,2.801 -0.382,0.586 -3.069,1.163 -4.311,1.207 -3.08,0.111 -6.752,-1.01 -7.714503,-2.722 -0.2297,-0.409 -0.4461,-0.962 -0.54,-1.482 -0.1266,-0.701 -0.1426,-0.914 -0.1594,-2.14 z m 26.792903,6.344 c 0,0 -0.377,0.023 -0.726,0 -0.08,-0.005 -1.54,-0.555 -2.631,-1.143 -3.146,-1.697 -0.348,-2.117 0.795,-2.231 0.585,-0.058 1.261,-0.126 1.772,-0.177 1.43,-0.143 1.221,0.535 1.037,1.822 -0.113,0.787 -0.247,1.729 -0.247,1.729 z m -10.619,-25.866 -0.726,0 c 0,0 -0.504,2.977 -0.196,4.604 0.392,2.075 2.126,2.088 2.465,4.163 0.003,0.019 0.006,0.038 0.009,0.057 0.287,1.905 0.291,6.085 1.445,0.093 0.589,-3.061 1.243,-5.287 -1.76,-8.099 -0.787,-0.736 -0.91,-0.818 -1.237,-0.818 z m -2.58,-14.2200005 c 0.03,-0.33 0.05,-0.56 0.065,-0.629 0.065,-0.294 0.148,-0.585 0.255,-0.867 0.157,-0.417 0.377,-0.748 0.657,-1.052 4.448,-1.16 4.355,2.363 3.839,-3.067 -0.08,-0.849 -0.267,-1.603 -0.555,-2.174 -2.794,-5.539 -5.031,4.491 -4.972,3.979 -0.231,1.989 -1.083,4.184 -3.726,1.069 -4.286,-5.051 -5.726,-2.699 -6.2,-0.899 0.276,7.3770005 1.281,6.9100005 1.985,5.8810005 1.565,-2.2880005 3.008,-2.0590005 3.97,-1.369 5.328,3.826 4.338,2.894 4.682,-0.8720005 z M 90.023987,60.901288 c 1.4429,-2.497 2.726,-7.571 2.4508,-9.628 -0.2015,-1.507 -1.0214,-3.362 -1.5883,-4.901 -0.3831,-1.04 -0.6506,-1.936 -0.6807,-3.631 -0.0075,-0.428 0,-0.907 0,-0.907 0,0 0.0061,0 0.0742,0 3.9924,0 3.9235,-0.364 3.0028,-1.055 -1.4908,-1.119 -4.0892,-3.685 -4.767,-5.522 -0.5161,-1.4 -0.5561,-2.379 -2.2398,-2.953 -2.778,-0.948 -4.3987,2.191 -4.6923,5.446 -0.1954,2.166 0.3566,2.506 2.0421,5.899 1.1082,2.231 3.4732,10.522 3.8573,13.523 0.1982,1.549 -0.1624,2.099 -2.269,3.494 -13.4045,8.879 -43.7099,11.048 -60.1275,8.298 -11.4381,-0.961 -39.9737,-20.69 -15.3788004,-1.183 6.1843004,4.905 14.2334004,7.453 22.4848004,8.594 24.3896,3.37 38.9405,-3.13 43.405,-4.925 6.4535,-2.594 13.0242,-8.123 14.4264,-10.549 z m -4.9551,-60.80800047 c -1.9115,-0.46 -6.1735,0.884 -6.8887,1.81499997 -0.1829,0.238 -0.3259,0.59 -0.4359,0.994 -0.805,7.9200005 -0.8645,4.099 1.5117,3.511 1.9526,-0.484 4.3985,-1.767 3.6891,-0.149 -0.5368,1.225 -3.5192,2.884 -5.4037,4.4210005 -3.1504,2.57 -1.9053,4.933 1.2932,2.932 1.4943,-0.935 3.1773,-2.252 4.0582,-2.933 3.0214,-2.3330005 4.404,-3.7980005 5.0441,-7.7780005 0.2435,-1.514 -0.4504,-2.23199997 -2.868,-2.81299997 z m 0.5195,29.31000047 5.8624,-5.863 -5.8624,-5.862 -5.8625,5.862 5.8625,5.863 z"
     style="fill:#000000;stroke:none" />
</svg>
