<?xml version="1.0" encoding="UTF-8" standalone="no"?>
<svg
   xmlns:dc="http://purl.org/dc/elements/1.1/"
   xmlns:cc="http://creativecommons.org/ns#"
   xmlns:rdf="http://www.w3.org/1999/02/22-rdf-syntax-ns#"
   xmlns:svg="http://www.w3.org/2000/svg"
   xmlns="http://www.w3.org/2000/svg"
   xmlns:sodipodi="http://sodipodi.sourceforge.net/DTD/sodipodi-0.dtd"
   xmlns:inkscape="http://www.inkscape.org/namespaces/inkscape"
   id="svg2"
   version="1.1"
   inkscape:version="0.48.0 r9654"
   width="100%"
   height="100%"
   sodipodi:docname="mat.svg">
  <metadata
     id="metadata10">
    <rdf:RDF>
      <cc:Work
         rdf:about="">
        <dc:format>image/svg+xml</dc:format>
        <dc:type
           rdf:resource="http://purl.org/dc/dcmitype/StillImage" />
      </cc:Work>
    </rdf:RDF>
  </metadata>
  <defs
     id="defs8" />
  <sodipodi:namedview
     pagecolor="#ffffff"
     bordercolor="#666666"
     borderopacity="1"
     objecttolerance="10"
     gridtolerance="10"
     guidetolerance="10"
     inkscape:pageopacity="0"
     inkscape:pageshadow="2"
     inkscape:window-width="806"
     inkscape:window-height="480"
     id="namedview6"
     showgrid="false"
     inkscape:zoom="1.9737724"
     inkscape:cx="17.110141"
     inkscape:cy="1005.5324"
     inkscape:window-x="0"
     inkscape:window-y="0"
     inkscape:window-maximized="0"
     inkscape:current-layer="svg2" />
  <path
     inkscape:connector-curvature="0"
     style="fill:#000000;stroke:none"
     d="m 9.1468871,19.215813 c 0.5579,0.60716 0.71317,1.23452 0.44648,1.99189 -0.48149,1.67713 -2.25153,3.14901 -3.53744,4.81732 -0.35456,0.46083 -2.38625,3.63753 -1.74399,4.06941 0.19832,0.13347 0.64505,0.0919 0.9675,0.0554 0.43477,-0.0503 0.59644,-0.19767 1.61681,-1.47315 2.17661,-2.72091 4.4083599,-6.4214 6.0905199,-8.48255 0.75369,-0.92293 1.39696,-1.51721 1.59943,-2.98532 0.1861,-1.34724 0,-3.43232 0,-3.43232 l -6.2542099,-0.46838 c -1.62725,-0.12212 -1.92503,-0.0919 -2.97776,0.29967 -3.68085,1.37242 -4.66534002,3.99638 -5.27286002,7.11895 -0.52164,2.68188 1.39206002,-1.19112 7.85678002,-1.51092 0.59946,-0.029 1.20874,0 1.20874,0 z m 6.3216899,66.00452 c -0.008,-0.0567 -0.0181,-0.10828 -0.0312,-0.15361 -0.67752,-2.31423 -5.22476,-2.27268 -6.7380799,-2.0133 -1.12386,0.19137 -2.2364,0.79952 -2.59475,1.64941 -0.58321,1.38501 -0.19075,5.73646 -1.86661,4.95204 -0.0811,-0.0378 -0.16041,-0.0856 -0.23797,-0.14353 -4.80963002,-3.58969 1.45011,-21.68799 -1.36524,-16.01072 -2.25341002,4.54536 -3.47373002,12.90326 -1.65559002,17.80494 0.69389002,1.87101 1.67951002,3.93217 2.98344002,4.67629 0.25849,0.14857 0.56899,0.29463 0.89207,0.43439 0.74828,0.17124 1.44482,0.24552 2.09287,0.23671 9.9379499,-0.6371 8.9197199,-8.44478 8.5210899,-11.43262 z m 25.301727,-36.27466 5.12893,5.12956 7.38148,-7.38209 -7.38148,-7.38084 -5.12893,5.12831 -5.128937,-5.12831 -7.38148,7.38084 7.38148,7.38209 z m -4.06462,-33.44672 c 0.2921,0.21783 0.5409,0.3664 0.75445,0.45076 1.07061,0.4218 1.39759,-1.46181 1.52363,-2.57864 0.18698,-1.65697 0.28985,-3.10619 1.03133,-4.2494597 0.61117,-0.94307 1.41221,-1.47566 2.47451,-1.5512 2.34646,-0.16873 2.55118,-0.15991 2.86935,-4.45975 0.17553,-2.37338996 -0.1973,-3.70425996 -3.40763,-2.85184996 -2.71121,0.71894 -5.02065,2.63529996 -5.4179,4.58689996 -1.035217,5.0867604 -1.145527,1.93776 -2.811177,-1.02113 -1.10688,-1.96672 -2.9327,-2.8015 -5.39273,-2.3092 -0.13359,0.0315 -0.26768,0.068 -0.40139,0.10704 -2.22635,0.6648 -2.69095,3.98505 -1.88626,6.48058 0.97378,3.0218397 3.07522,3.6047997 5.27814,3.4108997 1.57313,-0.1385 2.4565,0.57919 2.89404,1.13948 1.871027,2.39733 1.55713,2.14929 2.491637,2.84557 z m 24.26875,71.29022 c 0.53954,0.78945 0.95869,3.86165 0.55753,4.08577 -0.11218,0.063 -0.26541,0.0378 -0.44597,0 -1.17223,-0.24426 -3.49865,-1.00728 -4.57154,-1.89746 -0.72234,-0.59807 -0.24464,-1.26792 0.8363,-1.75015 0.38767,-0.17375 3.17331,-1.09668 3.62368,-0.43816 z m -35.467307,9.82223 c -0.35218,-0.044 -0.71504,0.004 -1.05991,0.0302 -1.0059,0.0731 -1.85982,-0.0541 -2.31649,0.26063 -0.41753,0.28707 -0.50276,0.94559 -0.18132,1.36864 0.0362,0.0466 0.0838,0.0944 0.14191,0.14103 2.8924,2.309177 16.581067,-0.18635 19.985297,-0.63963 0.14618,-0.0188 0.14794,-0.0188 0.14794,-0.0188 1.11998,-0.14984 1.30091,-0.18383 1.80933,-0.345 0.37711,-0.11835 0.72864,-0.30973 1.05186,-0.55022 1.39797,-1.04253 2.26423,-3.01932 3.65188,-4.0203 3.75351,-2.70833 5.96134,0.46459 11.20511,1.70481 2.37693,0.56282 4.40156,-1.01357 4.37675,-3.66776 -0.003,-0.31477 -1.64387,-4.90041 -1.28427,-6.46421 0.24313,-1.05764 0.29161,-1.14704 -0.66695,-1.56128 -2.28854,-0.9884 -3.63515,-0.10576 -6.05853,1.00853 -2.88233,1.32584 -6.68431,3.59852 -7.6003,4.6826 -0.38302,0.45327 -0.70611,0.94307 -1.0336,1.45048 -2.22042,5.91903 -19.619797,6.9452 -22.168707,6.62035 z m 53.307367,-31.12746 0,0.29211 c 0,0 -0.36161,0.0479 -0.55752,0 -0.20071,-0.0491 -0.2002,-0.40417 0,-0.70006 1.48359,-2.19335 6.60938,-3.3769 8.55204,-3.09361 0.72802,0.10577 1.34586,0.30974 1.48298,0.77561 0.22084,0.75043 -0.80419,2.17824 -0.45316,3.38949 0.33505,1.15712 2.14451,2.77884 0.11873,2.25506 -1.21552,-0.31352 -2.71045,-1.15837 -3.89564,-1.77912 -0.91223,-0.47971 -1.64086,-0.82597 -3.01743,-0.99342 -0.95805,-0.11584 -2.23,-0.14606 -2.23,-0.14606 z m -19.51252,0.43817 0,2.56604 c 0,1.15207 0.0248,1.36486 0.24792,2.12284 1.11078,3.77605 4.26419,4.30361 7.78011,4.79591 1.27558,0.17879 2.50195,0.32485 3.68512,0 1.75859,-0.48349 3.42174,-2.00826 5.10112,-2.33436 2.49856,-0.48602 4.10907,0.67235 6.60083,1.89746 1.89483,0.93047 5.67099,1.65823 6.50602,1.31323 0.63307,-0.26315 3.30047,-5.19378 3.94702,-7.29648 0.96839,-3.15026 1.14932,-4.2696 -0.28606,-7.55837 -0.47002,-1.07778 -0.53713,-1.1974 -0.67072,-1.1974 l -0.29753,0 0.18723,-2.68189 c 0.0823,-1.17977 0.0811,-1.34471 -0.0127,-1.64942 -0.34549,-1.1269 -1.89531,-1.85339 -2.73929,-2.08885 -4.23323,-1.18354 -14.04236,6.18093 -14.85738,8.17156 -1.74372,4.25953 -0.77258,6.16203 -3.42865,6.12804 -2.49932,-0.0302 -7.52287,-1.10422 -8.27884,-3.50155 -0.9583,-3.03821 0.29326,-6.18974 -1.31827,-5.99332 -1.33289,0.16117 -3.01165,2.56479 -4.80484,4.03794 -1.81638,1.49329 -7.84596,3.46 -10.29529,4.25197 -10.01123,3.23715 -18.377437,3.9095 -28.182037,1.798 -7.15018,-1.54114 -14.4321799,-9.83357 -11.3949799,-18.31738 0.65095,-1.81814 1.47188,-3.4386 0.36589,-3.30514 -0.13359,0.0151 -0.19805,0.1385 -0.64415,1.2251 -2.72571,6.64176 -3.71623,10.50719 -2.16174,16.26002 1.56026,5.77423 4.7653,9.59056 10.2115299,11.71717 9.64697,3.76598 21.00619,0.95189 31.080747,-1.89746 4.00885,-1.13445 7.02339,-1.84332 10.31366,-4.96085 1.51471,-1.43537 3.34505,-3.50281 3.34505,-3.50281 z m 11.15008,-17.94846 -0.18596,0 c -0.0835,0 -0.11924,-0.12844 -0.35696,-1.28429 -0.81526,-3.9649 -2.058,-7.62762 0.26416,-10.53488 0.61873,-0.77561 1.6425,-1.244 2.73175,-1.3145 3.86694,-0.2493 5.57327,1.68719 6.46698,-3.01176 0.55224,-2.90223 -0.86122,-8.00662 -4.37084,-7.20206 -0.92266,0.21153 -2.40776,1.10423 -2.73728,1.75141 -0.42407,0.83227 -0.10451,2.31674 -0.55753,3.20945 -0.38126,0.75293 -1.30997,1.08659 -1.95122,1.7514 -1.40831,1.46182 -2.2995,5.56018 -2.36938,7.06229 -0.19528,4.1991 2.43749,19.22771 2.43749,19.22771 0,0 0.66531,-1.60158 0.90744,-3.42097 0.37936,-2.84934 -0.27865,-6.2338 -0.27865,-6.2338 z m -49.083587,-1.33969 c 0.35896,0.29966 0.66304,0.39915 0.85971,0.1725 0.38276,-0.44069 -0.0858,-3.31647 -0.41815,-4.08578 -0.88867,-2.05863 -2.35035,-3.13641 -2.09061,-4.20287 0.2012,-0.82472 1.36247,-1.76401 2.50876,-2.65544 12.64074,-9.83861 26.831527,-16.80899 41.951937,-22.61847 3.10254,-1.19236 6.31048,-2.37088 8.50193,-2.91859 2.30618,-0.5766793 0.66268,0.86123 -0.27876,4.52394 -0.16091,0.62577 0.0239,1.3485 0.94773,1.02114 0.3217,-0.11332 0.52806,-0.46336 0.72474,-0.87508 1.32407,-2.77002 1.22963,-3.95986 3.21121,-5.1774193 2.57171,-1.5814304 7.55321,-2.4288004 9.89009,-4.0152604 0.28343,-0.19264 0.52794,-0.39662 0.66733,-0.72147 0.18232,-0.42558 0.18508,-1.0589 0.39485,-1.44041 0.22701,-0.41298 0.69628,-0.5326 0.88905,-1.09542 0.26894,-0.78567 0,-2.43383996 0,-2.43383996 0,0 -1.02566,-0.034 -2.007,0 -2.2125,0.0743 -11.15663,4.04800996 -16.91008,6.15699996 -14.62269,5.3612397 -23.74196,8.3805697 -37.022827,16.9159997 -1.65596,1.0652 -3.33069,2.19083 -4.94624,3.31647 -7.36145,5.12957 -18.7795899,10.19871 -6.87367,20.133 z"
     id="path4-1" />
</svg>
