<?xml version="1.0" encoding="UTF-8" standalone="no"?>
<!-- Created with Inkscape (http://www.inkscape.org/) -->

<svg
   xmlns:dc="http://purl.org/dc/elements/1.1/"
   xmlns:cc="http://creativecommons.org/ns#"
   xmlns:rdf="http://www.w3.org/1999/02/22-rdf-syntax-ns#"
   xmlns:svg="http://www.w3.org/2000/svg"
   xmlns="http://www.w3.org/2000/svg"
   xmlns:sodipodi="http://sodipodi.sourceforge.net/DTD/sodipodi-0.dtd"
   xmlns:inkscape="http://www.inkscape.org/namespaces/inkscape"
   width="744.09448819"
   height="1052.3622047"
   id="svg2"
   version="1.1"
   inkscape:version="0.48.0 r9654"
   sodipodi:docname="che.svg">
  <defs
     id="defs4" />
  <sodipodi:namedview
     id="base"
     pagecolor="#ffffff"
     bordercolor="#666666"
     borderopacity="1.0"
     inkscape:pageopacity="0.0"
     inkscape:pageshadow="2"
     inkscape:zoom="3.9687194"
     inkscape:cx="43.751147"
     inkscape:cy="1004.834"
     inkscape:document-units="px"
     inkscape:current-layer="layer1"
     showgrid="false"
     inkscape:window-width="1280"
     inkscape:window-height="738"
     inkscape:window-x="-8"
     inkscape:window-y="-8"
     inkscape:window-maximized="1" />
  <metadata
     id="metadata7">
    <rdf:RDF>
      <cc:Work
         rdf:about="">
        <dc:format>image/svg+xml</dc:format>
        <dc:type
           rdf:resource="http://purl.org/dc/dcmitype/StillImage" />
        <dc:title></dc:title>
      </cc:Work>
    </rdf:RDF>
  </metadata>
  <g
     inkscape:label="Layer 1"
     inkscape:groupmode="layer"
     id="layer1">
    <g
       id="g3829"
       transform="matrix(1.25,0,0,1.25,3.0238694e-5,1052.3619)">
      <path
         id="path3831"
         d="m 16.9712,-804.852 c 0.2851,0.238 0.5266,0.317 0.6828,0.137 0.304,-0.35 -0.0682,-2.634 -0.3321,-3.245 -0.7058,-1.635 -1.8667,-2.491 -1.6604,-3.338 0.1598,-0.655 1.0821,-1.401 1.9925,-2.109 10.0395,-7.814 21.3101,-13.35 33.319,-17.964 2.4641,-0.947 5.0119,-1.883 6.7524,-2.318 1.8316,-0.458 0.5263,0.684 -0.2214,3.593 -0.1278,0.497 0.019,1.071 0.7527,0.811 0.2555,-0.09 0.4194,-0.368 0.5756,-0.695 1.0516,-2.2 0.9766,-3.145 2.5504,-4.112 2.0425,-1.256 5.9989,-1.929 7.8549,-3.189 0.2251,-0.153 0.4193,-0.315 0.53,-0.573 0.1448,-0.338 0.147,-0.841 0.3136,-1.144 0.1803,-0.328 0.553,-0.423 0.7061,-0.87 0.2136,-0.624 0,-1.933 0,-1.933 0,0 -0.8146,-0.027 -1.594,0 -1.7572,0.059 -8.8608,3.215 -13.4303,4.89 -11.6136,4.258 -18.8563,6.656 -29.4042,13.435 -1.3152,0.846 -2.6453,1.74 -3.9284,2.634 -5.8466,4.074 -14.9151,8.1 -5.4592,15.99 z m 38.9831,1.064 -0.1477,0 c -0.0664,0 -0.0947,-0.102 -0.2835,-1.02 -0.6475,-3.149 -1.6345,-6.058 0.2098,-8.367 0.4914,-0.616 1.3045,-0.988 2.1696,-1.044 3.0712,-0.198 4.4264,1.34 5.1362,-2.392 0.4386,-2.305 -0.684,-6.359 -3.4714,-5.72 -0.7328,0.168 -1.9123,0.877 -2.174,1.391 -0.3368,0.661 -0.083,1.84 -0.4428,2.549 -0.3028,0.598 -1.0404,0.863 -1.5497,1.391 -1.1185,1.161 -1.8263,4.416 -1.8818,5.609 -0.1551,3.335 1.9359,15.271 1.9359,15.271 0,0 0.5284,-1.272 0.7207,-2.717 0.3013,-2.263 -0.2213,-4.951 -0.2213,-4.951 z m -8.8556,14.255 0,2.038 c 0,0.915 0.0197,1.084 0.1969,1.686 0.8822,2.999 3.3867,3.418 6.1791,3.809 1.0131,0.142 1.9871,0.258 2.9268,0 1.3967,-0.384 2.7176,-1.595 4.0514,-1.854 1.9844,-0.386 3.2635,0.534 5.2425,1.507 1.5049,0.739 4.504,1.317 5.1672,1.043 0.5028,-0.209 2.6213,-4.125 3.1348,-5.795 0.7691,-2.502 0.9128,-3.391 -0.2272,-6.003 -0.3733,-0.856 -0.4266,-0.951 -0.5327,-0.951 l -0.2363,0 0.1487,-2.13 c 0.0654,-0.937 0.0644,-1.068 -0.0099,-1.31 -0.2744,-0.895 -1.5053,-1.472 -2.1756,-1.659 -3.3621,-0.94 -11.1527,4.909 -11.8,6.49 -1.3849,3.383 -0.6136,4.894 -2.7231,4.867 -1.985,-0.024 -5.9748,-0.877 -6.5752,-2.781 -0.7611,-2.413 0.2329,-4.916 -1.047,-4.76 -1.0586,0.128 -2.3919,2.037 -3.8161,3.207 -1.4426,1.186 -6.2314,2.748 -8.1767,3.377 -7.9511,2.571 -14.5957,3.105 -22.3827,1.428 -5.6788,-1.224 -11.4623,-7.81 -9.0501,-14.548 0.517,-1.444 1.169,-2.731 0.2906,-2.625 -0.1061,0.012 -0.1573,0.11 -0.5116,0.973 -2.1648,5.275 -2.9515,8.345 -1.7169,12.914 1.2392,4.586 3.7847,7.617 8.1102,9.306 7.6618,2.991 16.6835,0.756 24.6849,-1.507 3.1839,-0.901 5.5781,-1.464 8.1913,-3.94 1.203,-1.14 2.6567,-2.782 2.6567,-2.782 z m 15.4972,-0.348 0,0.232 c 0,0 -0.2872,0.038 -0.4428,0 -0.1594,-0.039 -0.159,-0.321 0,-0.556 1.1783,-1.742 5.2493,-2.682 6.7922,-2.457 0.5782,0.084 1.0689,0.246 1.1778,0.616 0.1754,0.596 -0.6387,1.73 -0.3599,2.692 0.2661,0.919 1.7032,2.207 0.0943,1.791 -0.9654,-0.249 -2.1527,-0.92 -3.094,-1.413 -0.7245,-0.381 -1.3032,-0.656 -2.3965,-0.789 -0.7609,-0.092 -1.7711,-0.116 -1.7711,-0.116 z m -42.3377,24.722 c -0.2797,-0.035 -0.5679,0.003 -0.8418,0.024 -0.7989,0.058 -1.4771,-0.043 -1.8398,0.207 -0.3316,0.228 -0.3993,0.751 -0.144,1.087 0.0288,0.037 0.0666,0.075 0.1127,0.112 2.2972,1.834 13.169,-0.148 15.8727,-0.508 0.1161,-0.015 0.1175,-0.015 0.1175,-0.015 0.8895,-0.119 1.0332,-0.146 1.437,-0.274 0.2995,-0.094 0.5787,-0.246 0.8354,-0.437 1.1103,-0.828 1.7983,-2.398 2.9004,-3.193 2.9811,-2.151 4.7346,0.369 8.8993,1.354 1.8878,0.447 3.4958,-0.805 3.4761,-2.913 -0.0023,-0.25 -1.3056,-3.892 -1.02,-5.134 0.1931,-0.84 0.2316,-0.911 -0.5297,-1.24 -1.8176,-0.785 -2.8871,-0.084 -4.8118,0.801 -2.2892,1.053 -5.3088,2.858 -6.0363,3.719 -0.3042,0.36 -0.5608,0.749 -0.8209,1.152 -1.7635,4.701 -15.5824,5.516 -17.6068,5.258 z m 28.1688,-7.801 c 0.4285,0.627 0.7614,3.067 0.4428,3.245 -0.0891,0.05 -0.2108,0.03 -0.3542,0 -0.931,-0.194 -2.7787,-0.8 -3.6308,-1.507 -0.5737,-0.475 -0.1943,-1.007 0.6642,-1.39 0.3079,-0.138 2.5203,-0.871 2.878,-0.348 z m -19.2747,-56.62 c 0.232,0.173 0.4296,0.291 0.5992,0.358 0.8503,0.335 1.11,-1.161 1.2101,-2.048 0.1485,-1.316 0.2302,-2.467 0.8191,-3.375 0.4854,-0.749 1.1216,-1.172 1.9653,-1.232 1.8636,-0.134 2.0262,-0.127 2.2789,-3.542 0.1394,-1.885 -0.1567,-2.942 -2.7064,-2.265 -2.1533,0.571 -3.9875,2.093 -4.303,3.643 -0.8222,4.04 -0.9098,1.539 -2.2327,-0.811 -0.8791,-1.562 -2.3292,-2.225 -4.283,-1.834 -0.1061,0.025 -0.2126,0.054 -0.3188,0.085 -1.7682,0.528 -2.1372,3.165 -1.4981,5.147 0.7734,2.4 2.4424,2.863 4.192,2.709 1.2494,-0.11 1.951,0.46 2.2985,0.905 1.486,1.904 1.2367,1.707 1.9789,2.26 z m 3.2282,26.564 4.0735,4.074 5.8625,-5.863 -5.8625,-5.862 -4.0735,4.073 -4.0735,-4.073 -5.8625,5.862 5.8625,5.863 4.0735,-4.074 z m -20.0951,28.81 c -0.0061,-0.045 -0.0143,-0.086 -0.0248,-0.122 -0.5381,-1.838 -4.1496,-1.805 -5.3515,-1.599 -0.8926,0.152 -1.7762,0.635 -2.0608,1.31 -0.4632,1.1 -0.1515,4.556 -1.4825,3.933 -0.0644,-0.03 -0.1274,-0.068 -0.189,-0.114 -3.8199,-2.851 1.1517,-17.225 -1.0843,-12.716 -1.7897,3.61 -2.7589,10.248 -1.3149,14.141 0.5511,1.486 1.3339,3.123 2.3695,3.714 0.2053,0.118 0.4519,0.234 0.7085,0.345 0.5943,0.136 1.1475,0.195 1.6622,0.188 7.8929,-0.506 7.0842,-6.707 6.7676,-9.08 z m -5.0208,-52.422 c 0,0 -0.0473,0.324 0,0.48 0.0467,0.153 0.197,0.141 0.2937,0.186 0.2178,0.102 0.1735,0.524 0.0609,0.916 -0.3824,1.332 -1.7882,2.501 -2.8095,3.826 -0.2816,0.366 -1.8952,2.889 -1.3851,3.232 0.1575,0.106 0.5123,0.073 0.7684,0.044 0.3453,-0.04 0.4737,-0.157 1.2841,-1.17 1.7287,-2.161 3.5012,-5.1 4.8372,-6.737 0.5986,-0.733 1.1095,-1.205 1.2703,-2.371 0.1478,-1.07 0,-2.726 0,-2.726 l -4.9672,-0.372 c -1.2924,-0.097 -1.5289,-0.073 -2.365,0.238 -2.9234,1.09 -3.7053,3.174 -4.1878,5.654 -0.4143,2.13 1.1056,-0.946 6.24,-1.2 0.4761,-0.023 0.96,0 0.96,0 z"
         style="fill:#000000;stroke:none"
         inkscape:connector-curvature="0" />
    </g>
  </g>
</svg>
