<?xml version="1.0" encoding="UTF-8" standalone="no"?>
<svg>
  <path
     style="fill:#000000;stroke:none"
     d="m 63.36747,11.054993 5.84124,5.904997 8.39,-8.479995 L 69.20871,0 63.36747,5.903746 57.52497,0 l -8.38874,8.479995 8.38874,8.479995 5.8425,-5.904997 z m 59.07996,32.98998 1.6375,-0.02875 0.0625,3.581248 c 0,0 -0.43,0.0238 -0.81875,0.0138 -1.32875,-0.035 -4.2925,-1.52125 -4.33625,-2.22625 -0.0137,-0.21875 0.8525,-0.876248 1.89625,-1.138748 0.66625,-0.1675 0.8225,-0.1875 1.55875,-0.20125 z m -30.76873,9.632498 3.80875,1.60999 c 1.96125,0.2325 4.37749,0.4475 6.18749,0.37625 3.40875,-0.135 8.96,-1.41124 10.90875,-3.87624 1.7425,-2.20625 1.94625,-3.14375 4.01124,-2.31 1.02,0.41125 2.2025,1.1125 3.4975,1.58125 2.94,1.0625 2.9875,1.04875 4.94125,-1.87625 0.85125,-1.275 1.7325,-2.25875 1.985,-3.8175 0.125,-0.766248 0.14,-1.017498 0.11875,-2.284997 -0.07,-4.272498 -0.545,-4.858747 -5.2075,-2.612499 -0.6625,0.31875 -1.24125,0.62875 -1.475,0.79875 -0.96875,0.707499 -1.5975,1.823749 -2.5125,2.602498 -0.875,0.74375 -2.01125,1.179998 -2.78124,1.838748 -1.095,0.93625 -1.4475,2.32125 -2.24375,3.365 -0.45,0.59 -11.46375,2.69 -18.17499,3.9825 l -3.06375,0.6225 z M 20.80249,30.551231 c -0.475,2.963749 0.1025,3.691248 2.07375,2.781249 1.34125,-0.61875 18.65499,-10.689994 21.18374,-13.706242 1.01875,-1.213749 2.03375,-3.362498 2.3925,-5.296247 0.22125,-1.189999 -0.13625,-1.147499 -1.41875,-0.671249 -2.97125,1.104999 -22.55874,13.028742 -23.17249,14.106241 -0.5725,1.006249 -0.94125,2.049999 -1.05875,2.786248 z m 68.91996,2.403749 -0.0112,-0.125 c -0.0112,-0.11125 0.0737,-0.1625 0.8525,-0.50125 2.14375,-0.932499 5.1825,-1.213749 6.62625,-0.295 0.8525,0.5425 2.01499,2.223749 2.23749,3.723748 0.0838,0.56 0.1175,1.247499 0.1175,1.247499 0,0 -0.73375,0.11 -1.24749,0.1175 -0.63625,0.0087 -0.93625,-0.14 -1.2925,-0.351249 -1.3775,-0.815 -4.6,-3.424998 -6.6125,-3.626248 -0.5925,-0.05875 -0.66,-0.0775 -0.67,-0.19 z M 0,25.016235 c 0,0 0.0563,3.282498 0.1,5.878746 0.1175,6.862496 1.56375,14.66874 8.67625,17.75874 2.9075,1.26375 6.2675,1.71875 9.23624,1.685 2.55625,-0.0275 14.39875,-1.5875 16.73499,-2.2075 4.6975,-1.2475 22.42249,-7.432496 24.92749,-14.874991 0.0512,-0.15125 0.0925,-0.3025 0.1,-0.46125 0.009,-0.2125 0.0512,-0.24 0.425,-0.275 l 0.8325,-0.07875 1.7,8.978745 c 0.1575,0.831249 0.19,0.976249 0.3225,1.448749 0.45125,1.614999 3.85874,3.593747 5.63999,4.117497 2.16875,0.63875 7.3275,0.525 9.38875,-0.5675 1.8975,-1.00625 3.6925,-3.251247 5.40749,-3.813747 1.19375,-0.39125 3.585,-0.16375 5.06,0.2325 1.3125,0.35375 2.51,0.963749 3.795,1.296249 3.35625,0.86875 7.00624,0.8 8.91874,-1.403749 2.7225,-3.136248 4.41,-9.291244 3.875,-13.174992 -0.135,-0.976249 -1.62625,-3.979998 -2.0175,-4.062498 -0.93625,-0.198749 -1.77125,0.34625 -1.46,-1.013749 0.3075,-1.338749 0.78,-1.931249 -0.7025,-2.556248 -2.24375,-0.9475 -6.97749,0.105 -8.73499,0.819999 -2.0875,0.85125 -5.90125,3.889998 -7.4425,6.207496 -0.57875,0.87 -0.94125,1.933749 -1.1525,2.992499 -0.42125,2.112498 -0.37375,2.532498 -2.14624,3.769997 -3.5825,2.501249 -5.58875,2.472499 -10.245,1.1925 -1.1,-0.3025 -3.6925,-1.25625 -4.41875,-2.786249 -0.13625,-0.28625 -0.17375,-0.41 -0.37375,-1.232499 L 63.81747,22.098736 c -0.20125,-0.822499 -0.255,-0.946249 -0.5425,-1.234999 -0.5275,-0.532499 -0.885,-0.668749 -1.2975,-0.471249 -0.80625,0.386249 -2.0075,4.004997 -3.21,5.993746 -2.16875,3.589998 -9.87874,7.258745 -13.23124,8.613745 -7.47375,3.019998 -23.50999,7.227495 -32.29873,4.608747 -0.30125,-0.09 -0.59125,-0.1825 -0.86875,-0.28 C 7.495,37.633727 4.725,32.43373 2.15625,28.288733 0.5725,25.907484 0,25.016235 0,25.016235 z" />
</svg>
