<?xml version="1.0" encoding="UTF-8" standalone="yes"?>
<svg xmlns="http://www.w3.org/2000/svg" xmlns:xlink="http://www.w3.org/1999/xlink"
  width="595.276pt" height="841.89pt" viewBox="0 0 595.276 841.89">
  <path
    style="stroke:none; fill:#000000"
    d="m 108.37616,23.274025 -0.20096,-4.59782 c -0.0818,-1.858938 -0.0546,-2.191968 0.26843,-3.330298 0.23973,-0.845493 0.49237,-1.768502 1.13259,-2.364223 1.56179,-1.451264 5.42896,-0.948848 7.22186,-2.144597 2.58242,-1.7196966 2.58386,-7.6309741 0.59716,-10.02677853 -2.10584,-2.53935157 -6.36489,1.49432743 -8.11042,3.80256783 -1.07086,1.4182473 -2.08574,3.0432027 -2.54222,4.9394627 -0.21245,0.878509 -0.32873,1.876163 -0.49381,2.750366 l -0.81104,4.276274 -2.67557,-3.404942 C 99.099714,8.3508479 100.21665,6.9182459 94.834923,5.6062236 93.03182,5.1669689 89.121451,5.3306128 88.369837,7.361807 c -0.588113,1.5876331 0.792668,5.451926 1.657541,6.369193 0.665054,0.704818 3.358143,2.456095 4.470634,2.563755 1.817745,0.175128 5.532028,-0.931622 5.532028,-0.931622 0,0 2.9977,4.315032 4.82922,6.340484 0.79812,0.884251 1.45987,1.596246 2.48336,1.616343 0.42347,0.0071 1.03354,-0.04593 1.03354,-0.04593 z M 97.51997,49.30058 c -0.05914,-1.603419 -0.240011,-3.615952 -0.76668,-4.121238 -0.305331,-0.294272 -0.726786,-0.08182 -0.9912,-0.239724 -1.188997,-0.71343 0.833585,-3.657585 1.797361,-4.782996 8.748199,-10.211955 31.420059,-22.890052 43.399079,-25.514096 1.14264,-0.249773 2.2824,-0.450739 2.49916,-0.0646 0.10622,0.192354 -0.0144,0.52969 -0.1981,0.91009 -0.43351,0.895735 -1.12541,1.978082 -1.89482,3.13938 -15.95241,24.090107 9.21143,-9.3406227 16.35147,-10.2808575 0.65314,-0.321546 1.26609,-0.5813666 1.81013,-0.7536233 2.77764,-0.874203 5.78783,-1.0593791 6.15244,-3.7236168 0.0517,-0.373223 0.0589,-0.8397517 0.0459,-1.2904902 -0.12058,-4.3638378 -7.24052,-2.27666015 -12.25893,-0.3674811 -4.6452,1.7656317 -11.54121,4.6767709 -18.85638,8.0616159 -9.46551,4.379628 -37.805612,17.524254 -41.793505,28.942006 -1.285033,3.679117 -1.04617,7.801795 1.515572,11.347409 0.109785,0.15216 0.209579,0.289965 0.300588,0.413416 -1.156417,-1.570408 3.135073,5.032768 2.887885,-1.675197 z m 12.85371,73.39933 5.11606,2.16253 c 2.63257,0.3122 5.88076,0.60159 8.31164,0.50512 4.57763,-0.18064 12.03513,-1.89419 14.65367,-5.20726 2.33967,-2.96231 2.61503,-4.22159 5.38792,-3.10263 1.36979,0.55423 2.9588,1.49607 4.69864,2.12395 3.94799,1.42767 4.01288,1.41013 6.63669,-2.52032 1.14353,-1.71179 2.32741,-3.03422 2.66765,-5.12835 0.16838,-1.02952 0.18767,-1.36627 0.15961,-3.06753 -0.0947,-5.74045 -0.73313,-6.52795 -6.99623,-3.51127 -0.88922,0.4297 -1.66795,0.84538 -1.98014,1.07338 -1.30313,0.95059 -2.14675,2.45017 -3.37621,3.49548 -1.17511,0.99971 -2.70274,1.58551 -3.73577,2.47121 -1.46974,1.25579 -1.94506,3.11666 -3.01492,4.51975 -0.60508,0.79275 -15.39732,3.61475 -24.41401,5.34934 l -4.1146,0.8366 z m 41.33018,-12.93837 2.19937,-0.0386 0.0842,4.80914 c 0,0 -0.57703,0.0334 -1.09969,0.0194 -1.78369,-0.0474 -5.765,-2.04503 -5.82463,-2.99037 -0.0175,-0.29465 1.14527,-1.17686 2.54663,-1.52938 0.89624,-0.22625 1.1067,-0.25256 2.09413,-0.2701 z M 141.57759,74.53442 c 0,0 0.87747,-2.022633 1.40821,-3.625116 0.8955,-2.70489 0.75124,-4.658735 0.39802,-7.456582 -0.9851,-7.804239 -2.49966,-25.4818 -2.49966,-25.4818 0,0 2.71716,-0.306742 4.79371,-0.250968 5.61597,0.146797 7.25247,2.792269 10.20648,-0.159886 1.92336,-1.922239 3.64371,-8.730028 2.41359,-11.273188 -1.40692,-2.907521 -6.17294,-4.307374 -8.36343,-1.935254 -1.0102,1.09497 -1.58651,2.822016 -2.74263,3.959746 -1.79044,1.76051 -4.97125,2.110012 -6.54698,3.578638 -2.69837,2.515288 -3.06052,20.090596 -2.56379,24.252972 0.83788,7.023448 3.49648,18.391438 3.49648,18.391438 z M 29.668546,23.274025 29.467579,18.676205 c -0.08176,-1.858938 -0.05455,-2.191968 0.268434,-3.330298 0.239724,-0.845493 0.492367,-1.768502 1.132588,-2.364223 1.561795,-1.451264 5.42896,-0.948848 7.221866,-2.144597 C 40.672882,9.1173904 40.674318,3.2061129 38.687623,0.81030847 36.581784,-1.7290431 32.322735,2.3046359 30.5772,4.6128763 29.506337,6.0311236 28.491458,7.656079 28.034977,9.552339 c -0.21245,0.878509 -0.328723,1.876163 -0.493802,2.750366 L 26.730132,16.578979 24.05456,13.174037 C 20.392097,8.3508479 21.509033,6.9182459 16.127307,5.6062236 14.324203,5.1669689 10.413835,5.3306128 9.6622213,7.361807 9.0741081,8.9494401 10.45489,12.813733 11.319762,13.731 c 0.665055,0.704818 3.358142,2.456095 4.470633,2.563755 1.817746,0.175128 5.532026,-0.931622 5.532026,-0.931622 0,0 2.997702,4.315032 4.829216,6.340484 0.798123,0.884251 1.459876,1.596246 2.483368,1.616343 0.423465,0.0071 1.033541,-0.04593 1.033541,-0.04593 z m 36.828648,50.550159 0.80243,-0.01435 c 0.360303,-0.0057 0.45648,-0.225369 0.966073,-2.193402 C 71.198368,60.293426 71.7338,54.041941 64.520548,46.781319 63.331976,45.58557 61.94818,44.582174 61.056752,45.653037 c -0.60577,0.727785 -1.223023,5.861036 -0.947412,6.98214 0.482319,1.959421 1.91205,2.595335 3.562843,3.927454 3.729359,3.005881 4.663852,5.261009 4.188711,9.264543 -0.363175,3.073343 -1.3637,7.997015 -1.3637,7.997015 z M 18.812353,49.30058 c -0.05914,-1.603419 -0.240011,-3.615952 -0.76668,-4.121238 -0.305331,-0.294272 -0.726786,-0.08182 -0.9912,-0.239724 -1.188997,-0.71343 0.833585,-3.657585 1.797361,-4.782996 8.748195,-10.211955 31.420056,-22.890052 43.399078,-25.514096 1.142636,-0.249773 2.282402,-0.450739 2.499158,-0.0646 0.106225,0.192354 -0.01436,0.52969 -0.198095,0.91009 -0.433513,0.895735 -1.125411,1.978082 -1.894825,3.13938 -15.95241,24.090107 9.21143,-9.3406227 16.351473,-10.2808575 0.65314,-0.321546 1.266087,-0.5813666 1.810131,-0.7536233 2.77764,-0.874203 5.787827,-1.0593791 6.152437,-3.7236168 0.05168,-0.373223 0.05891,-0.8397517 0.04594,-1.2904902 C 86.896547,-1.7850266 79.776601,0.30215105 74.758187,2.2113301 70.112997,3.9769618 63.216985,6.888101 55.901815,10.272946 46.436306,14.652574 18.096201,27.7972 14.108308,39.214952 c -1.285032,3.679117 -1.046169,7.801795 1.515573,11.347409 0.109785,0.15216 0.209579,0.289965 0.300588,0.413416 -1.156417,-1.570408 3.135073,5.032768 2.887884,-1.675197 z m 53.301579,-5.418738 -4.05716,-3.9002 4.06173,-4.0458 4.06172,-4.0458 4.05713,4.0621 4.05712,4.0621 -4.06169,3.8839 -4.06166,3.8839 -4.05719,-3.9002 z m 41.625968,11.8642 -4.05925,-3.9138 4.07555,-4.0596 4.07555,-4.0596 3.89796,4.0764 3.89796,4.0764 -3.91426,3.897 -3.91426,3.8971 -4.05925,-3.9139 z M 124,66.125 c -0.37196,-0.0075 -0.87314,-0.0012 -1.4375,0.03125 -3.61279,0.2098 -5.71539,1.42075 -11.3125,6.40625 -2.68937,2.3955 -9.13773,9.18695 -10.40625,10.96875 -0.38865,0.5459 -1.00306,1.3006 -1.34375,1.6875 -0.94664,1.0753 -2.80279,4.286502 -4.875,8.4375 -1.90164,3.8093 -5.30313,9.51565 -6.78125,11.34375 -0.97917,1.211 -3.55979,3.30595 -4.875,3.96875 -1.0959,0.5522 -4.45763,1.1026 -5.4375,0.875 -6.321762,-3.92538 -8.343305,-17.26976 -8.663636,-23.106818 -5.039744,12.771948 0.753015,35.249028 8.476136,38.388068 0.55986,0.1857 1.62753,0.299 2.65625,0.25 1.50475,-0.0716 2.02145,-0.24855 3.9375,-1.21875 1.77814,-0.9005 2.51842,-1.45185 3.90625,-2.90625 3.68321,-3.86 4.41709,-4.96945 9.28125,-14.09375 3.66248,-6.8702 4.65159,-8.56535 5.6875,-9.84375 0.47034,-0.5805 1.64367,-2.0763 2.625,-3.3125 3.73474,-4.704598 8.03438,-8.6414 12.3125,-11.3125 0.87301,-0.5451 0.99986,-0.58085 1,-0.21875 1e-4,0.2273 0.46133,2.2745 1.03125,4.5625 1.18885,4.7724 1.79002,6.00985 3.84375,7.96875 1.99457,1.9025 4.67131,3.2094 7.78125,3.75 5.59434,0.9724 9.58583,0.15745 13.3125,-2.65625 1.56289,-1.18 3.10943,-1.84375 4.28125,-1.84375 1.27996,0 3.52786,0.8982 7.65625,3.0625 4.68234,2.4547 7.07129,3.02175 9.34375,2.21875 1.08215,-0.3824 1.54052,-0.8818 3.3125,-3.625 1.5868,-2.4566 5.21342,-9.7748 6.09375,-12.3125 0.88357,-2.5471 0.84324,-4.25545 -0.21875,-8.28125 -1.22747,-4.6532 -2.13288,-6.41025 -3.78125,-7.28125 -1.19518,-0.6315 -3.96583,-0.4533 -8.09375,0.5 -6.27135,1.4484 -10.12343,2.82775 -11.78125,4.21875 -0.49684,0.4168 -1.32852,1.09755 -1.84375,1.53125 -0.5152,0.4335 -1.35714,1.42685 -1.875,2.21875 -0.99035,1.5143 -2.34375,5.25065 -2.34375,6.46875 0,0.6055 -0.0751,0.71875 -0.5625,0.71875 -1.9767,0.9972 -4.13851,1.352086 -6.0625,0.84375 -2.40283,-0.6705 -5.60292,-1.8085 -6.59375,-2.3125 -6.31397,-3.254618 -7.35676,-9.31062 -7.65625,-16 0,-0.0445 -0.22179,-0.08625 -0.59375,-0.09375 z m 41.47319,16.368438 c 0.33679,1.683736 0.33619,1.683736 -2.02139,1.658456 -1.84222,-0.02022 -2.66129,-0.344745 -3.74285,-1.483555 -1.95062,-2.053305 -2.31065,-3.747385 -0.89207,-4.197623 0.72944,-0.231439 1.33805,-0.05125 1.75591,0.520336 0.38715,0.52953 1.41385,0.874505 2.60152,0.874505 1.0791,0 1.96197,0.212363 1.96197,0.471612 0,0.259479 0.15166,1.229823 0.33691,2.156269 z M 90.40625,54.46875 c -0.172748,0.01695 -0.369983,0.05152 -0.53125,0.125 -3.898617,4.448001 -6.707951,11.864448 -6.09375,17.5 l 0.15625,1.3125 0.8125,0 c 1.866841,-2.341093 3.792742,2.374964 5.1875,7.1875 -0.17949,0.1795 -11.86177,2.90665 -13.78125,3.21875 -10.24617,1.6661 -16.69626,0.585 -20.71875,-3.4375 -2.33245,-2.3324 -3.08773,-4.32705 -3.65625,-9.65625 -0.59905,-5.6154 -2.09036,-8.5625 -4.3125,-8.5625 -1.45858,0 -3.13394,0.46095 -4.09375,1.15625 -1.03124,0.7471 -6.58805,7.34555 -8.875,10.53125 -3.37201,4.6971 -4.9574,7.98725 -7.21875,15.03125 -1.14513,3.567 -3.39931,8.2056 -4.71875,9.75 -1.37892,1.614 -2.52719,2.0888 -4.84375,1.9375 -2.04642,-0.1336 -3.18084,-0.6529 -5.40625,-2.5 -1.93453,-1.6057 -3.76017,-4.2058 -6,-8.5 C 3.34852,83.8799 2.79535,80.1076 3.84375,72.75 c 0.47328,-3.3215 0.50919,-4.5995 0.125,-5.0625 -0.62097,-0.7483 -1.42274,-0.38765 -2.125,0.96875 -0.38864,0.7506 -1.36141,6.5631 -1.6875,10.125 -0.59783,6.53 0.53564999,14.5456 2.875,20.1875 1.13353,2.7338 4.35185,8.25515 6.09375,10.46875 2.866409,3.6428 5.97575,5.73945 9.4375,6.34375 2.21876,0.3874 3.82256,0.21435 5.3125,-0.53125 1.0775,-0.5392 2.42785,-1.9438 3.09375,-3.25 0.54024,-1.0597 1.95653,-5.6254 2.40625,-7.75 0.55041,-2.6004 1.87676,-6.33835 3.9375,-11.09375 1.94255,-4.4826 2.64331,-5.72155 4.84375,-8.65625 1.62295,-2.1646 2.81111,-2.9388 4.875,-3.1875 1.14597,-0.1381 1.08312,-0.3074 1.5,4.0625 1.854859,7.827103 7.612347,13.802347 14.5625,13.8125 5.795621,0.84664 17.703092,0.305026 24.21875,-2.90625 2.602,-1.2935 3.35487,-1.78465 5.15625,-3.46875 2.62335,-2.4527 3.52787,-3.78105 5.28125,-7.65625 1.56356,-3.4556 2.13272,-4.42215 3.875,-6.59375 0.67268,-0.8385 1.50531,-2.0761 1.84375,-2.75 l 0.625,-1.21875 -0.5625,-2.1875 c -0.31203,-1.1966 -1.06484,-3.4762 -1.65625,-5.0625 -0.59141,-1.5863 -1.0625,-2.9893 -1.0625,-3.125 0,-0.3886 -1.80182,-4.7413 -2.6875,-6.5 -1.077676,-2.139988 -2.509517,-3.368635 -3.71875,-3.25 z"/>
</svg>