<?xml version="1.0" encoding="UTF-8" standalone="no"?>
<svg>
  <path
     style="fill:#000000;stroke:none"
     d="m 60.290076,66.725012 c 0,0 0.62,-1.428749 0.995,-2.562498 0.63375,-1.911249 0.53125,-3.292499 0.28125,-5.269997 -0.69625,-5.514997 -1.76625,-18.00999 -1.76625,-18.00999 0,0 1.92,-0.21625 3.38875,-0.1775 3.96875,0.10375 5.125,1.973749 7.21375,-0.112499 1.35875,-1.35875 2.57499,-6.169997 1.705,-7.967496 -0.99375,-2.054999 -4.3625,-3.044998 -5.91125,-1.367499 -0.71375,0.77375 -1.12125,1.993749 -1.9375,2.797498 -1.26625,1.245 -3.51375,1.491249 -4.6275,2.529999 -1.9075,1.777499 -2.16375,14.198741 -1.8125,17.14249 0.5925,4.963747 2.47125,12.997492 2.47125,12.997492 z m -15.27124,30.203732 c 0.20375,2.807498 1.51375,4.553746 3.89625,5.057496 3.07375,0.65 4.8125,-1.01625 5.6,-4.388746 0.1725,-0.74 0.13375,-1.35625 -0.3425,-1.653749 -0.905,-0.56625 -3.3925,0.02125 -4.595,-0.6175 -1.495,-0.793749 -1.87625,-4.171247 -1.50625,-5.751247 0.37125,-1.579999 1.315,-3.272498 1.5725,-4.489997 0.0513,-0.2475 0.075,-0.475 -0.0325,-0.60125 -0.0125,-0.01625 -0.0263,-0.03125 -0.04,-0.045 -3.6175,-0.824999 -4.4975,13.247493 -4.5525,12.489993 z M 13.801356,11.048795 7.6851125,17.125041 c -1.016249,1.01 -1.161249,1.19125 -1.444999,1.812499 -0.39875,0.87125 -0.53625,2.327499 -0.34,2.524999 0.6325,0.63875 2.872498,-0.9125 3.652498,-1.487499 6.8274945,-5.034997 9.9374945,-8.207495 11.0412445,-14.7274917 0.56125,-3.313748 -1.19375,-4.59624698 -4.29875,-5.01874698 -4.926245,-0.671249 -9.8137425,0.015 -11.7274915,3.72374798 0.29875,14.1599917 0.718749,6.0624967 4.896247,5.057497 4.6474945,-1.118749 9.6449945,-3.602498 4.3374945,2.0387487 z m 69.20996,65.598711 c 0.58875,-0.365 1.1625,-0.801249 1.65,-1.344999 1.01875,-1.136249 3.965,-9.379995 3.075,-11.892493 -0.8825,-2.488749 -5.895,-5.487497 -8.72125,-6.042496 -1.81375,-0.35625 -2.125,0.0175 -2.94125,1.862498 -0.13125,0.29625 -0.54625,1.1875 -0.99625,2.286249 -1.3125,5.024997 -0.53375,6.408746 -0.0225,8.348745 l 0.77,2.918748 -2.5625,0.61375 c -1.44124,0.34375 -3.30249,0.62 -4.41499,0.7125 -4.25,0.353749 -12.6375,-2.271249 -15.71124,-4.901247 -1.73625,-1.485 -8.43625,-16.191241 -13.42625,-23.699986 -1.64374,-2.473749 -5.62499,-6.632496 -8.85874,-9.654995 -1.2575,-1.174999 -2.54625,-2.397498 -4.20374,-3.107498 -0.36,-0.15375 -0.7375,-0.28375 -0.99875,-0.46375 -0.77,-0.529999 -1.27625,-0.772499 -1.5325,0.29875 -0.5975,2.491249 -0.905,5.884997 -0.61375,7.032496 0.28875,1.136249 4.80374,7.042496 6.94624,9.084995 2.10625,2.008749 4.15,3.742497 5.94875,5.726246 3.26749,3.602498 3.74499,4.114998 4.23999,7.761246 0.0625,0.461249 0.1625,0.894999 0.18,1.347499 0.0512,1.349999 -0.76375,3.144998 -1.53375,4.782497 -4.78874,10.187494 -5.60874,12.977492 -12.83123,20.193738 -2.62125,2.619999 -8.08375,6.037496 -12.115,5.322497 -1.495,-0.265 -2.847495,-0.74875 -4.074995,-1.414999 -7.2412455,-3.926248 -7.8062455,-9.682494 -8.2224955,-16.98999 -0.1125,-1.982499 -0.16625,-4.126248 0.10375,-5.999997 0.44625,-3.089998 -1.027499,-1.588749 -1.76249895,-0.0075 -0.634999,1.36625 -0.397499,5.869997 0.1325,10.422494 1.02999995,8.843745 3.86749795,20.697486 14.84873945,22.176236 7.36125,0.9925 14.30124,-5.154996 20.05374,-12.283742 5.32749,-6.603746 7.73624,-13.001242 9.25999,-16.65124 l 1.88625,-4.514997 2.07125,4.294997 c 2.32875,4.828747 5.18875,6.807496 12.23249,8.321245 3.015,0.64875 7.8925,0.81 11.14375,-0.07375 0.20999,-0.0575 0.47124,-0.142499 0.76499,-0.238749 l 10.23625,-4.224998 z m -6.025,-9.629994 0.39625,-2.013749 1.99625,1.353749 c 0.9175,0.62125 1.7775,1.266249 2.62,1.971249 0.935,0.7825 1.04125,0.8875 1.0625,1.049999 0.10875,0.8025 -1.44625,1.50125 -2.82125,1.978749 l -3.14,1.09 -0.3175,-2.361249 c -0.0275,-0.20125 -0.0463,-0.41625 -0.0563,-0.6425 -0.0337,-0.724999 0.1125,-1.678749 0.26,-2.426248 z M 16.112606,40.562528 c 0.165,0.861249 4.61,12.798742 3.92375,15.97249 -0.21875,1.011249 -0.86375,2.042499 -1.4425,3.132498 -0.88125,1.662499 -1.80375,5.424997 -1.5375,6.277496 0.5825,1.871249 5.01625,5.007497 8.26375,4.117498 1.91,-0.52375 2.54625,-3.631248 2.09625,-5.359997 -0.3925,-1.502499 -2.1,-3.943747 -3.39875,-4.539997 -0.96625,-0.445 -1.99875,-0.1125 -2.52,-0.4475 -0.45625,-0.2925 -0.0937,-2.492498 0.21625,-4.996247 0.6975,-5.647497 -0.61,-9.074994 -2.6325,-14.349991 -0.47875,-1.2475 -0.89,-2.161249 -1.1125,-2.344999 -0.35125,-0.29125 -0.74875,-0.37125 -1.10625,0.02125 -0.4725,0.52125 -0.875,1.872499 -0.75,2.517499 z m 12.47374,-36.2287287 0,9.9037437 6.4,0 c 1.67125,0 1.88375,0.0175 2.12,0.17875 0.61,0.41625 0.99,1.284999 1.15625,2.109999 0.1225,0.604999 0.22749,1.424999 0.22749,1.424999 l 3.095,0 0,-2.344999 c 0,-1.053749 0.0225,-1.242499 0.23125,-1.889999 0.49375,-1.541249 2.06375,-2.994998 3.41,-3.467497 4.005,-1.4012497 4.93,-0.0025 5.9525,-2.8199987 1.04625,-2.882498 2.14125,-7.49374498 -1.8575,-7.42749498 -1.0875,0.0175 -4.1775,2.41874798 -5.17375,3.51624698 -2.33625,2.576249 -2.9075,4.822498 -5.11875,3.667498 -2.39874,-1.251249 -2.28249,-2.103748 -4.17624,-2.504998 -2.03,-0.42875 -6.26625,-0.34625 -6.26625,-0.34625 z m 13.46749,13.9937417 c -0.3775,0.24 -0.7425,0.476249 -1.09125,0.706249 -3.12624,2.062499 -7.83749,6.162497 -6.80999,9.594995 0.045,0.1475 0.43,-0.0125 0.62,0 0.16625,0.01 0.18,0.24375 0.24,0.378749 0.12375,0.2775 0.64125,0.145 1.16,-0.02375 1.57875,-0.513749 5.50999,-3.207498 9.17749,-5.803746 4.71625,-3.339998 5.54,-4.203748 10.74249,-6.758746 5.1275,-2.518749 11.13375,-4.931247 11.48875,-4.491247 0.60375,0.747499 -0.875,2.357498 -2.60125,5.077497 -1.23375,1.946248 -4.105,8.166245 -3.58875,9.158744 1.23625,2.374999 4.4575,-4.883747 5.26125,-6.189996 1.0825,-1.757499 6.54499,-6.491246 9.28499,-8.046245 5.075,-2.8812487 9.8775,-5.0537467 11.45125,-9.7799947 0.71875,-2.15999798 0.0288,-2.39499798 -1.98125,-1.98124898 -2.905,0.59875 -6.3275,1.60249998 -10.0325,2.88624898 -11.48124,3.976247 -24.18123,9.4662437 -33.32123,15.2724907 z" />
</svg>
