<?xml version="1.0" encoding="UTF-8" standalone="no"?>
<!-- Created with sK1/UniConvertor (http://sk1project.org/) -->

<svg
   xmlns:dc="http://purl.org/dc/elements/1.1/"
   xmlns:cc="http://creativecommons.org/ns#"
   xmlns:rdf="http://www.w3.org/1999/02/22-rdf-syntax-ns#"
   xmlns:svg="http://www.w3.org/2000/svg"
   xmlns="http://www.w3.org/2000/svg"
   xmlns:sodipodi="http://sodipodi.sourceforge.net/DTD/sodipodi-0.dtd"
   xmlns:inkscape="http://www.inkscape.org/namespaces/inkscape"
   width="595.276pt"
   height="841.89pt"
   viewBox="0 0 595.276 841.89"
   fill-rule="evenodd"
   id="svg2"
   version="1.1"
   inkscape:version="0.48.0 r9654"
   sodipodi:docname="md.ai.svg">
  <metadata
     id="metadata12">
    <rdf:RDF>
      <cc:Work
         rdf:about="">
        <dc:format>image/svg+xml</dc:format>
        <dc:type
           rdf:resource="http://purl.org/dc/dcmitype/StillImage" />
      </cc:Work>
    </rdf:RDF>
  </metadata>
  <defs
     id="defs10" />
  <sodipodi:namedview
     pagecolor="#ffffff"
     bordercolor="#666666"
     borderopacity="1"
     objecttolerance="10"
     gridtolerance="10"
     guidetolerance="10"
     inkscape:pageopacity="0"
     inkscape:pageshadow="2"
     inkscape:window-width="1280"
     inkscape:window-height="738"
     id="namedview8"
     showgrid="false"
     inkscape:zoom="0.24801339"
     inkscape:cx="-109.78134"
     inkscape:cy="526.18127"
     inkscape:window-x="-8"
     inkscape:window-y="-8"
     inkscape:window-maximized="1"
     inkscape:current-layer="svg2" />
  <path
     inkscape:connector-curvature="0"
     id="path6"
     d="m 1.8326085,54.894437 c -2.24900003,7.277 -3.2539,13.636 1.9366,17.559 3.914,2.958 9.5271995,2.204 13.0516995,-0.414 0.8252,-0.612 10.5715,-9.786 11.0785,-13.048 0.2183,-1.403 0.1325,-1.895 0.7518,-1.793 0.1174,0.02 0.187,0.139 0.6962,1.196 5.4394,11.288 4.7657,12.793 12.5876,16.261 0.8356,0.37 1.4982,0.662 2.7551,0.748 1.4632,0.1 3.7318,-0.079 3.7318,-0.079 0,0 1.7833,-3.064 2.1749,-4.647 0.0975,-0.395 0.1087,-0.697 0.0734,-1.046 -0.0476,-0.472 -0.1769,-0.564 -1.2932,-0.927 -5.9938,-1.948 -8.4089,-2.238 -10.0559,-6.309 -1.4179,-3.504 0.9047,-5.205 4.9074,-6.13 1.1228,-0.259 2.0551,-0.362 2.8387,0.099 1.6681,0.984 3.1368,5.235 5.2601,6.92 1.8047,1.432 6.3532,2.337 9.0267,2.575 3.2866,0.292 9.7852,0.187 13.0642,-0.5 2.2279,-0.467 4.1914,-1.289 6.5713,-1.509 5.0065,-0.462 12.9944,0.116 13.5272,-0.643 0.5674,-0.808 0.5383,-2.144 1.3668,-2.748 0.3598,-0.262 0.8815,-0.386 1.1137,-1.03 0.2916,-0.808 0.1267,-2.436 0.1267,-2.436 0,0 -6.1259,-0.599 -9.9641,-1.836 -2.093,-0.675 -4.8016,-2.499 -7.0329,-3.939 -2.2492,-1.453 -2.4476,-2.337 0.1848,-3.822 2.2742,-1.283 6.9741,-0.05 10.7421,2.03 2.524,1.394 3.6706,2.501 5.163,1.112 1.8516,-1.724 4.651202,-6.709 4.669202,-8.895 0.01,-1.168 -0.529,-2.827 -1.378802,-4.191 -0.7993,-1.283 -1.8538,-2.467 -1.7661,-3.209 0.0241,-0.203 0.108,-0.401 0.2173,-0.605 1.0649,-1.993 -2.1017,-4.145 -4.4849,-4.33 -1.1822,-0.092 -2.332,0.417 -4.2321,1.583 -1.8051,1.108 -4.9319,4.061 -5.7703,5.451 -2.0771,3.442 -2.4766,5.329 -5.6984,7.623 -1.4601,1.04 -4.5238,2.242 -6.6092,2.594 -4.3443,0.733 -5.213,0.292 -6.674,2.68 -0.665,1.087 -1.2411,2.083 -1.5908,3.905 -0.1746,0.909 -0.2928,2.025 -0.2928,2.025 0,0 0.7516,0.061 1.389,0.048 1.6967,-0.034 2.5841,-0.592 3.6763,-0.74 2.6437,-0.359 6.1331,1.162 8.3371,2.681 0.6558,0.452 0.6627,0.96 -0.0455,1.302 -2.1698,1.048 -11.9841,0.29 -12.4798,0.216 -4.1577,-0.622 -7.6743,-1.691 -9.7296,-5.12 -2.1352,-3.563 -1.9494,-5.356 -5.5192,-4.973 -3.1354,0.336 -3.2647,0.662 -6.3564,2.82 -0.7509,0.524 -1.4712,0.948 -2.0138,1.668 -1.038,1.376 -2.4905,7.383 -4.0883,5.072 -0.3148,-0.455 -0.5991,-1.112 -0.8075,-1.766 -0.2989,-0.939 -0.4413,-1.87 -0.7771,-2.635 -0.3656,-0.833 -0.9603,-1.47 -1.4434,-2.223 -1.2175,-1.899 -2.0825,-9.366 -3.4214,-14.026 -0.6498,-2.262 -4.9609,-10.842 -7.8149,-12.659 -2.7483,-1.749 -3.6985,-0.678 -4.0322,3.467 -0.086,1.067 -0.2306,3.597 0.2845,4.297 0.3409,0.464 0.9984,0.688 1.5991,1.047 4.815,2.886 7.9564,14.34 8.5051,18.154 0.3462,2.407 -1.5757,4.478 -3.857,7.237 -3.485,4.215 -7.4899,7.398 -12.0194,7.429 -9.8176995,0.067 -10.2612995,-11.24 -10.1588995,-11.571 z m 24.5746995,-31.341 c 0.0293,0.053 0.0621,0.1 0.0984,0.14 0.2308,0.251 0.5979,0.231 1.0417,0.036 0.4219,-0.185 0.9269,-0.532 1.4807,-0.959 2.8085,-2.164 26.4489,-15.3549999 27.6001,-15.8989999 3.9622,-1.869 4.833,-2.084 5.4197,-5.404 0.2345,-1.32700003 0.2207,-1.69600003 -0.9963,-1.33900003 -0.7705,0.227 -1.6652,0.682 -2.5959,1.23200003 -8.1851,4.838 -21.7936,13.6199999 -28.0842,17.3959999 -0.7285,0.438 -5.8229,1.433 -3.9642,4.797 z m 21.7694,9.253 -0.0955,2.734 c 0,0 -1.9518,-0.801 -2.7627,-0.531 -0.8493,0.283 -0.4471,1.743 -1.0025,2.573 -0.18,0.269 -0.624,0.643 -1.1388,0.908 -1.0538,0.541 -4.7435,-10.063 -3.0237,1.631 0.2718,3.2 2.6357,2.916 5.329,1.321 0.458,-1.589 1.1503,-2.199 1.8384,-2.464 0.305,-0.117 0.5758,-0.216 0.8174,-0.303 7.891,-2.863 -4.9997,-14.593 0.0384,-5.869 z m 32.0026,-31.90899993 c 0.2666,-0.928 -0.258,-1.087 -1.427,-0.702 -0.3497,0.115 -0.7527,0.301 -1.199,0.544 -4.2352,2.30400003 -30.6259,16.38899993 -35.0949,23.26799993 -0.487,0.622 -0.8873,1.234 -1.1752,1.823 -0.4318,0.885 -1.0334,2.604 -0.7571,3.016 0.1637,0.244 0.6151,0.203 1.0417,0.036 0.8767,-0.342 2.6462,-2.718 4.1795,-4.558 0.7892,-0.631 1.908,-1.426 3.2407,-2.322 4.6239,-3.108 20.0505,-12.6939999 22.0104,-13.3299999 0.0054,-0.003 0.0106,-0.006 0.0158,-0.009 0.6298,-0.338 1.1998,-0.59 1.6527,-0.7 0.5794,-0.141 1.1462,-0.133 1.6858,-0.328 0.2074,-0.075 4.5783,-3.888 5.1073,-4.808 0.3553,-0.617 0.577,-1.435 0.7193,-1.93000003 z m 9.8314,14.75199993 c 1.0439,-0.082 1.9831,0.575 2.8459,2.021 1.249,2.094 0.9171,2.279 0.8838,4.638 -0.0258,1.83 0.8527,1.868 1.5352,-0.118 1.0589,-3.082 1.3932,-6.663 -1.0029,-8.938 -0.4753,-0.452 -1.0254,-0.671 -1.2983,-1.099 -0.9483,-1.487 1.4999,-6.3649999 1.8336,-8.0089999 0.4754,-2.341 -1.5793,-4.62900003 -4.1172,-4.05500003 -0.9202,0.209 -3.4461,1.54400003 -3.852,2.03900003 -1.1565,1.408 -1.0808,6.635 -0.288,8.2469999 0.5502,1.118 1.6344,2.725 1.6344,2.725 0,0 -0.824,0.776 -2.1063,1.947 -2.2749,2.077 -21.9986,18.242 -24.686,19.731 -2.1066,1.167 -6.456,3.144 -1.06,2.855 0.4333,-0.023 0.8564,-0.064 1.2169,-0.131 1.0707,-0.2 1.5889,-0.634 2.2036,-1.104 0.8911,-0.683 2.0081,-1.466 3.2561,-2.315 9.1265,-6.209 10.8562,-6.769 18.592,-14.686 0.9439,-0.966 1.9238,-1.939 2.9083,-2.83 0.8702,-0.788 1.0203,-0.88 1.5009,-0.918 z m 2.2593,-8.6849999 c -0.3444,0.563 -0.9177,1.283 -1.6487,2.366 -0.9738,-0.101 -1.8337,-1.198 -2.3218,-2.67 -0.2901,-0.875 0.4837,-1.82 1.9742,-2.213 1.8707,-0.493 2.7598,1.267 1.9963,2.517 z m -3.4828,32.7039999 c 0,0 0.0337,-0.967 0.0337,-0.967 0,0 0.8799,0.031 1.7538,0.061 2.8097,0.099 1.0231,-0.495 1.8786,1.66 0.2941,0.741 0.657,1.196 -1.1846,0.733 -0.487,-0.122 -1.0382,-0.253 -1.4828,-0.482 -0.914,-0.47 -1.0139,-0.57 -0.9987,-1.005 z M 20.221308,6.7124371 c 0,0 3.2713,-1.068 4.5682,-0.773 0.6841,0.155 1.3916,1.386 1.8357,2.33 0.806,1.712 1.5826,3.9169999 1.8777,5.6659999 0.0982,0.583 0.2047,1.121 0.8043,1.326 0.3775,0.129 0.9525,0.137 0.9525,0.137 0,0 0.0016,-0.009 0.0047,-0.026 0.2863,-1.614 0.9239,-4.32 1.0867,-5.9509999 0.171,-1.714 0.1324,-2.309 1.5919,-2.2 2.205,0.164 2.9541,0.553 3.9232,-1.207 0.869,-1.578 1.822,-4.8 0.3045,-5.84500003 -4.6938,-1.26399997 -6.4458,4.91100003 -6.7399,6.32500003 -0.4153,1.996 -0.5892,4.1359999 -0.5892,4.1359999 0,0 -1.1498,-3.6959999 -1.9956,-5.6919999 -0.9512,-2.246 -3.4067,-5.27000003 -6.0556,-4.51400003 -1.3161,0.375 -1.7787,1.45200003 -1.7778,2.87600003 8e-4,1.311 0.2087,3.412 0.2087,3.412 z"
     style="fill:#000000;stroke:none" />
</svg>
