<?xml version="1.0" encoding="UTF-8" standalone="no"?>
<svg>
  <path
     style="stroke:none; fill:#000000"
     d="m 45.246248,19.622995 -7.91499,7.91499 7.91499,7.91375 7.91374,-7.91375 -7.91374,-7.91499 z m -28.6736,46.96996 0.21775,-3.06125 -3.812499,0.97125 c -18.5344852,4.72 -4.1798712,-31.18372 -7.7309932,-24.61498 -4.089872,7.56625 -5.87862101,16.59749 -5.04812101,24.67748 0.09063,0.88125 0.1895,1.6825 0.310125,2.4175 1.93462301,11.77999 15.42673821,8.56124 16.06373821,-0.39 z m 6.62362,-6.11624 0.64625,-0.0125 c 0.29125,-0.006 0.36875,-0.2075 0.78,-2.01375 2.36249,-10.38874 2.79374,-16.12624 -3.01875,-22.78873 -0.95625,-1.0975 -2.07125,-2.0175 -2.79,-1.035 -0.4875,0.6675 -0.98512,5.37749 -0.76287,6.40624 0.38912,1.79875 1.54037,2.3825 2.87037,3.60375 3.00375,2.75875 3.7575,4.82749 3.375,8.50249 -0.29375,2.81875 -1.1,7.3375 -1.1,7.3375 z m 53.9187,-45.66997 c -0.45875,3.26375 0.0988,4.065 2.00375,3.06375 1.2975,-0.6825 12.58624,-7.63499 15.03124,-10.9549896 0.98375,-1.3375 1.96625,-3.70375 2.3125,-5.83125 0.21375,-1.31125 -0.1325,-1.265 -1.37125,-0.74 -2.8725,1.21625 -16.35999,10.2087496 -16.95374,11.3949996 -0.55375,1.10749 -0.90875,2.25749 -1.0225,3.06749 z M 110.8937,7.4205054 c 0.9475,0.395 2.53624,2.2075 2.62999,2.8887496 0.0687,0.50625 0,1.11625 0,1.11625 0,0 -0.69,0 -1.59124,0 -0.83875,0 -3.91875,-2.5499996 -3.91875,-3.5049996 0,-0.51375 0,-0.67875 0,-0.67875 0,0 1.63375,0 1.63375,0 0.73375,0 0.8575,0.0175 1.24625,0.17875 z m 2.55874,15.6712396 1.06375,-3.01 0.84375,3.2225 c 0,0.68875 0,1.36999 0,1.36999 0,0 0.54875,0 1.00375,0 0.23125,0 1.4875,-2.42624 1.3425,-3.28999 -0.19875,-1.18375 -0.7075,-2.6175 -0.81625,-2.98625 -2.9725,-10.0999896 -0.0387,-16.2224896 -6.01124,-18.1287396 -3.26875,-1.04374 -4.58625,1.03375 -6.5375,4.88125 -0.995,1.95875 -0.86625,3.23375 -0.6125,6.2887496 0.12125,1.47249 0.1925,2.62749 0.9175,3.47249 1.485,1.73125 5.71125,2.1675 6.78125,3.7825 1.32749,2.005 -2.0225,8.75124 -4.02625,11.90624 -5.8475,9.20874 -8.533742,10.16624 -9.794992,17.08374 -0.10625,0.58625 -0.185,1.12999 0,1.39499 1.035,1.47875 4.059992,-2.54499 4.787492,-3.59124 1.6925,-2.43625 3.4925,-4.83 5.0075,-7.56625 2.3525,-4.24624 4.02,-9.31624 5.77999,-14.10623 0.1025,-0.27875 0.1925,-0.51875 0.27125,-0.72375 z m -72.753692,-12.37124 0.23375,4.35499 0.075,1.39625 c 0.31,0.18125 0.81375,-0.0225 1.21625,-0.385 0.91625,-0.82375 1.34625,-2.32 2.20375,-3.835 1.00125,-1.76874 2.58625,-3.5624896 3.9325,-4.2362396 0.52375,-0.2625 1.0125,-0.355 1.55625,-0.68125 1.33125,-0.79875 3.53624,-3.18 3.69374,-4.495 0.1175,-0.985 0,-2.79 0,-2.79 0,0 -1.29625,-0.11 -2.44874,0 -1.705,0.16375 -6.1725,3.2975 -8.87625,4.88125 -0.315,0.18375 -0.635,0.35 -0.96125,0.505 -7.88749,3.74125 -18.70248,10.8312396 -25.2746,17.1412396 -2.200999,2.11374 -5.149372,5.03249 -5.598247,6.06124 -0.292624,0.67125 -1.1787492,5.10875 -0.9183742,5.57875 0.08237,0.14875 0.252375,0.2125 0.4783752,0.215 -1.5094992,-0.015 26.279106,-20.73249 25.517856,-20.21749 3.39,-2.29125 5.16999,-3.49374 5.16999,-3.49374 z m 49.51246,42.89371 c 0,0 -8.47374,1.3075 -11.83499,1.8275 0.0762,-0.0125 -9.41999,1.42125 -8.58124,1.42125 -2.14375,0 -4.7825,0 -4.7825,0 0,0 5.4125,-9.98499 8.31375,-13.31749 3.81749,-4.3875 8.95499,-3.4075 12.50999,0.54875 1.88875,2.1 4.22874,4.62999 4.37499,7.19124 0.0562,0.97125 0,2.32875 0,2.32875 z m -44.68996,3.5275 0,1.11625 -1.96,0 c -0.88,0 -1.0475,-0.0263 -1.665,-0.26375 -1.26,-0.4825 -2.39875,-1.625 -2.49625,-3.50125 -0.0275,-0.51375 0,-1.11625 0,-1.11625 0,0 2.06625,-0.3675 3.26875,0 1.05875,0.325 1.4475,1.22 2.01,2.01625 0.75875,1.0725 0.8425,1.2475 0.8425,1.74875 z m 87.928682,23.42873 -3.44625,0 0.6125,-5.5775 c 0,0 2.51,-0.2125 4.08875,0 1.16625,0.15625 1.82375,0.545 2.64374,1.06875 1.0875,0.6975 1.2225,0.85875 1.22625,1.53125 0.0112,2.22875 -3.20124,2.9775 -5.12499,2.9775 z m -20.00624,-0.6875 c -0.18625,0.80375 -2.62124,1.615 -4.76374,1.79125 -5.785,0.475 -10.407492,0.535 -14.669992,0.5175 -2.3875,-0.009 -3.8875,-0.2475 -3.18625,-2.4575 1.025,-3.23125 7.97375,-9.52249 10.322492,-10.66374 3.94375,-1.91625 4.585,0.8225 9.10875,5.78624 1.55375,1.70375 3.38999,4.15375 3.18874,5.02625 z m 29.15248,4.765 c 1.04125,-1.90375 1.78875,-4.50375 2.52875,-8.10375 0.585,-2.8425 -0.58625,-6.19374 -2.8775,-8.17624 -0.495,-0.4275 -6.87499,-3.58375 -8.16624,-3.1375 -1.04625,0.3625 -3.74125,4.975 -4.30625,6.33375 -1.35375,3.24874 -1.36375,7.59249 -2.8325,9.00624 -1.015,0.97875 -5.44624,0.065 -8.56999,-1.045 -2.61375,-0.92875 -0.73,-2.05375 -0.6125,-7.18249 0.0775,-3.37875 -4.75625,-8.47875 -7.95874,-10.59875 -5.85125,-3.87249 -15.451242,5.61625 -18.537492,11.96374 -1.605,3.30125 -3.02625,8.24375 -5.54624,6.8625 -2.93,-1.60625 -4.40125,-8.09374 -6.73375,-6.275 -0.955,0.745 -1.57625,2.98875 -2.84375,4.025 -0.46999,0.38375 -1.02874,0.6025 -1.60249,0.74875 -2.305,0.585 -6.585,0.95375 -9.60875,-3.875 -0.65625,-1.05 -1.1375,-2.135 -1.3475,-2.99124 -0.51124,-2.08875 -0.91874,-5.85625 -0.91874,-5.85625 0,0 5.08874,-1.37 10.18374,-2.01875 -1.62625,0.2075 18.32498,-3.52625 17.82748,-3.28625 0.0625,-0.03 0.125,-0.0613 0.185,-0.0925 0.9975,-0.52499 5.34875,-8.64749 5.475,-10.22249 0.375,-4.68249 -3.3875,-13.71124 -7.34625,-16.52498 -4.64249,-3.3 -11.60624,-1.67875 -14.99873,3.13749 -0.8925,1.2675 -1.2425,2.6 -2.755,4.5325 -0.87625,1.12 -2.1425,2.44 -2.1425,2.44 l -4.77875,-27.51248 c 0,0 2.91125,1.06375 3.67375,0.69625 0.4675,-0.225 0.12375,-0.99125 0.0737,-1.4875 -0.0662,-0.66875 -0.14125,-0.9375 -0.74875,-2.68875 L 63.394938,2.0092554 c -0.60625,-1.75125 -0.71125,-1.95 -1.04125,-1.99375 -3.0825,-0.4 -5.89875,7.06 -6,8.41625 -0.2175,2.9249996 2.07125,6.0487396 3.3675,9.7612396 1.1175,3.2025 2.89625,10.18749 3.2475,14.26499 0.52625,6.09749 4.11749,20.62998 -0.2725,24.05998 -1.27,0.9925 -13.66124,3.74375 -14.11374,3.135 -0.275,-0.37125 -0.25625,-0.90375 0,-1.67375 2.05375,-6.1675 4.84374,-7.325 -0.6125,-11.80749 -1.70375,-1.4 -5.3475,-2.75 -6.94125,-1.86 -1.21375,0.6775 -3.79999,6.65874 -4.38374,9.06499 -0.85625,3.5325 -0.15125,6.96125 -1.53625,9.54124 -1.4675,2.7325 -8.17,5.62 -10.76499,9.23875 -1.7175,2.39374 -3.73375,9.72374 -2.6975,12.13749 0.37375,0.8725 1.0875,1.65124 1.79375,2.29124 0.95375,0.8625 1.2425,0.94875 2.89375,0.8675 l 10.49624,-0.51625 c 1.65125,-0.0812 2.01875,-0.0662 3.66749,0.14625 0.80125,0.1025 4.5825,1.135 5.57375,1.8375 0.0437,0.0312 0.085,0.06 0.1225,0.0888 3.8625,3.25875 -5.74625,6.58875 -6.0925,6.65625 -12.98999,2.57874 -24.0216,4.883745 -29.168472,-8.81875 -0.567875,-1.5125 -0.9579992,-2.76499 -0.918249,-4.88124 0.07062,-3.765 1.501624,-10.26249 1.501624,-10.26249 0,0 -1.8409992,1.62874 -3.0321232,3.28999 -3.252622,4.535 -2.569748,18.37124 -0.306125,23.00998 0.381375,0.78125 1.051124,1.7725 1.9176242,2.785005 6.616621,7.73125 12.408241,7.19625 21.884481,5.41875 6.9925,-1.31125 11.98874,-4.1575 15.07249,-10.294995 0.85375,-1.7 4.44249,-12.54749 3.36625,-15.57749 -0.25125,-0.7075 -1.39875,-1.87375 -2.545,-2.2925 -0.64,-0.23375 -0.895,-0.26 -2.54875,-0.26 l -16.33249,0 c 0,0 -0.18,-1.38 0,-2.32875 0.19375,-1.02625 1.69875,-1.9975 3.06125,-2.55249 4.21125,-1.7125 7.33874,-4.58625 11.75374,-4.88 1.33625,-0.09 2.6025,0.1375 4.04,0 5.57999,-0.54 10.07624,-4.96375 10.33624,0.58125 0.11,2.35125 -0.3875,4.90749 -0.21375,7.26249 0.25125,3.41 2.33375,9.41999 4.6925,11.33124 2.45374,1.9875 7.22874,3.235 9.39124,1.7425 2.1475,-1.48125 4.65249,-5.02999 4.65249,-5.02999 0,0 4.0825,4.21249 5.8525,6.42499 0.95375,1.19125 1.2625,2.36625 0.91875,3.48625 -0.535,1.74125 -3.735,8.267495 -3.06125,9.064995 0.9475,1.12125 2.03625,-0.4275 2.44875,-1.74375 0.86125,-2.741255 2.44875,-9.412495 2.44875,-9.412495 l 15.746232,-0.61875 c 0,0 12.12499,-2.62625 12.12499,-2.62625 3.40875,0.0863 6.945,0.69375 9.57875,1.26375 2.91624,0.63125 5.71749,0.68625 8.17499,0.46625 7.51874,-0.67375 10.09749,-2.70875 11.65749,-5.56499 z" />
</svg>
