<?xml version="1.0"?>
<svg xmlns="http://www.w3.org/2000/svg" version="1.1">
  <path
     d="m 81.532434,35.840799 0.276,-0.007 0,0.579 0.614,-0.015 c 0.277,-0.007 0.34,-0.133 0.633,-1.253 0.85,-3.253 0.384,-6.985 -0.419,-10.192 -0.061,-0.242 -0.123,-0.475 -0.24,-0.686 -0.157,-0.285 -0.263,-0.406 -1.057,-1.211 l -4.07,-4.122 c 0,0 -0.573,2.571 -0.704,3.713 -0.214,1.857 0.631,2.663 2.119,3.706 2.337,1.637 2.637,2.774 2.733,5.754 0.049,1.503 0.115,3.734 0.115,3.734 z m -21.292,-4.657 -4.388,4.574 c -0.729,0.76 -0.832,0.897 -1.036,1.365 -0.286,0.655 -0.385,1.751 -0.244,1.9 0.454,0.482 2.061,-0.687 2.62,-1.119 4.897,-3.791 7.128,-6.178 7.92,-11.086 0.402,-2.495 -0.856,-3.46 -3.084,-3.779 -3.533,-0.505 -7.039,0.012 -8.412,2.804 0.214,10.659 0.516,4.564 3.513,3.807 3.333,-0.842 6.917,-2.712 3.111,1.534 z m 66.572996,0 -4.387,4.574 c -0.729,0.76 -0.833,0.897 -1.037,1.365 -0.285,0.655 -0.384,1.751 -0.244,1.9 0.454,0.482 2.061,-0.687 2.62,-1.119 4.898,-3.791 7.128,-6.178 7.92,-11.086 0.403,-2.495 -0.856,-3.46 -3.083,-3.779 -3.534,-0.505 -7.04,0.012 -8.413,2.804 0.215,10.659 0.517,4.564 3.513,3.807 3.333,-0.842 6.917,-2.712 3.111,1.534 z m -38.212996,54.457 -5.577,5.996 5.577,5.71 5.578,-5.996 -5.578,-5.71 z m 0,-3.145 4.549,4.657 5.577,-5.997 -5.577,-5.71 -4.549,4.89 -4.548,-4.656 -5.577,5.996 5.577,5.71 4.548,-4.89 z m -17.786,-48.736 -5.577,5.997 5.577,5.71 5.578,-5.997 -5.578,-5.71 z m 41.347996,-3.717 -5.578,5.997 5.578,5.71 5.577,-5.997 -5.577,-5.71 z m -37.808996,42.582 0.464,-1.591 c 0,0 6.878,1.198 10.137,0.949 2.902,-0.222 5.182,-1.285 6.315,-3.442 1.986,-3.78 2.843,-5.944 3.178,-8.675 0.158,-1.29 -0.25,-5.281 -0.731,-7.953 -1.187,-6.6 -2.051,-7.185 -5.175,-1.209 -0.752,1.438 -1.398,2.99 -1.401,3.654 -0.004,1.01 0.939,2.168 1.724,3.699 1.048,2.046 1.851,4.861 0.892,5.549 -0.37,0.265 -1.105,0.377 -1.833,0.482 -5.28,0.758 -9.313,0.595 -11.964,-3.168 -1.247,-1.77 -3.14,-5.515 -3.14,-5.515 0,0 -0.65,0.839 -1.138,1.57 -2.035,3.053 -2.623,6.885 -1.655,9.889 0.625,1.94 1.922,4.226 2.836,5.952 0.305,0.574 0.448,0.722 1.013,0.639 0.221,-0.032 0.269,-0.115 0.478,-0.83 z m 49.267996,-10.08 c 1.566,-2.781 2.327,-6.402 1.554,-10.631 -0.416,-2.167 -1.318,-4.291 -2.444,-5.854 -1.608,-2.231 -3.607,3.008 -4.295,4.85 -0.411,1.103 -0.394,1.337 0.166,2.339 0.66,1.181 1.198,2.06 1.76,3.668 0.549,1.572 1.122,3.841 1.122,3.841 0,0 -3.167,0.892 -5.376,1.11 -4.132,0.409 -8.412,-1.885 -10.209,-4.661 -0.927,-1.431 -2.023,-4.896 -2.622,-7.897 -0.995,-4.983 -3.161,-24.006 -3.173,-27.864 0,-0.034 0,-0.069 0,-0.103 -0.198996,-6.848 1.795,-30.1530003 -4.640996,-17.7840003 -0.578,1.11 -1.083,2.262 -1.219,2.908 -0.448,2.122 0.666,4.4900003 1.583,8.4280003 0.651,2.798 0.656,4.69 0.531,7.048 -0.406,7.634 1.806,27.536 3.315,35.03 0.779996,3.875 2.185996,7.794 5.239996,10.071 1.574,1.174 3.277,1.776 4.984,1.991 11.348,1.433 14.021,-7.017 13.724,-6.49 z m -8.566,-54.1080003 c 0,0 -1.001,-1.486 -1.621,-2.658 -1.473,-2.786 -1.288,-3.777 -3.534,-4.618 -3.434,-1.28600001 -5.3,0.482 -5.519,4.109 -0.152,2.51 0.463,4.584 2.759,4.215 1.215,-0.195 3.526,-1.146 3.526,-1.146 0,0 1.237,1.461 1.893,2.5330003 0.998,1.628 1.033,2.906 3.025,3.32 0.406,0.084 0.592,0.01 0.8,-0.31 0.852,-1.309 0.296,-4.0680003 1.242,-5.0520003 0.804,-0.835 2.689,-0.39 3.886,-0.774 1.632,-0.524 2.336,-5.29 1.219,-7.08000001 -1.586,-2.54099999 -5.107,0.44000001 -6.125,2.58300001 -0.83,1.746 -1.551,4.878 -1.551,4.878 z m -12.397,22.3190003 c 0,0 5.138,-4.238 10.553,-8.225 6.915,-5.09 14.282,-9.77 14.282,-9.77 0,0 -1.016,5.126 -0.552,5.989 0.12,0.224 0.461,0.11 0.773,-0.236 0.906,-1.003 1.835,-3.46 2.814,-5.213 2.504,-4.4850003 5.545,-5.6290003 10.146,-7.9230003 1.809,-0.902 1.921,-1.488 2.272,-3.893 0.205,-1.41100001 0.201,-1.68100001 -0.884,-1.36700001 -0.596,0.172 -1.214,0.39 -1.846,0.645 -3.122,1.26000001 -33.525,21.00500031 -35.764,23.66200031 -0.404,0.48 -0.829,1.018 -1.311,1.647 -0.207,0.269 -0.382,0.496 -0.483,0.924 -0.272,1.152 0,3.76 0,3.76 z m -31.665996,-11.388 0.798,-0.021 c 0.359,-0.009 0.416,-0.109 0.564,-1.001 0.674,-4.062 4.508,-8.309 7.192,-9.7680003 3.814,-2.073 9.253,-2.363 10.072,-5.037 0.201,-0.658 0.563,-3.32900001 0.414,-3.48600001 -0.127,-0.132 -0.843,-0.01 -1.719,0.204 -5.159,1.26300001 -34.622,13.97200031 -46.508,22.68000031 -2.708,1.983 -8.958,7.809 -4.356,12.353 0.446,0.44 1.062,0.879 1.903,1.364 1.474,0.851 3.635,1.852 3.635,1.852 0,0 0.66,-1.848 0.962,-3.213 0.319,-1.445 0.238,-2.351 -0.179,-2.587 -0.37,-0.21 -1.004,0.104 -2.035,-0.387 -0.953,-0.454 -2.245,-1.596 -2.245,-1.596 0,0 2.181,-1.719 4.045,-3.123 5.907,-4.448 20.73,-13.654 27.677,-15.48 0.839,-0.22 1.114,-0.152 0.883,0.673 -0.235,0.84 -0.916,1.967 -1.103,3.671 -0.141,1.287 0,2.902 0,2.902 z m -18.575,-10.9310003 c 0,0 -1.001,-1.486 -1.621,-2.658 -1.473,-2.786 -1.288,-3.777 -3.534,-4.618 -3.434,-1.28600001 -5.3,0.482 -5.519,4.109 -0.152,2.51 0.463,4.584 2.759,4.215 1.215,-0.195 3.525,-1.146 3.525,-1.146 0,0 1.238,1.461 1.894,2.5330003 0.998,1.628 1.033,2.906 3.025,3.32 0.406,0.084 0.592,0.01 0.8,-0.31 0.852,-1.309 0.296,-4.0680003 1.242,-5.0520003 0.804,-0.835 2.689,-0.39 3.886,-0.774 1.632,-0.524 2.336,-5.29 1.219,-7.08000001 -1.586,-2.54099999 -5.107,0.44000001 -6.125,2.58300001 -0.83,1.746 -1.551,4.878 -1.551,4.878 z m 3.141,85.7210003 c 5.002,-1.744 11.58,-4.733 13.588,-7.15 1.763,-2.123 3.6,-7.413 2.949,-7.815 -0.711,-0.44 -5.034,2.896 -8.554,4.853 -5.426,3.018 -18.193,5.805 -23.524,5.817 -6.862,0.014 -19.551,-2.023 -26.008,-5.415 -0.449,-0.235 -0.9,-0.487 -1.35,-0.753 -8.475,-5.615 -15.719,-20.189 -11.344,-7.291 7.931,23.388 37.501,23.591 54.243,17.754 z"
     style="fill:#000000;stroke:none" />
</svg>
