<?xml version="1.0" encoding="UTF-8" standalone="yes"?>
<svg xmlns="http://www.w3.org/2000/svg" xmlns:xlink="http://www.w3.org/1999/xlink"
  width="595.276pt" height="841.89pt" viewBox="0 0 595.276 841.89">
  <path
    style="stroke:none; fill:#000000"
    d="m 34.63495,47.3038 5.40375,5.4025 6.46625,-6.555 -6.46625,-6.46625 -5.40375,5.40375 -5.315,-5.40375 -6.555,6.46625 6.555,6.555 5.315,-5.4025 z m 116.31,11.42625 -10.8075,-10.80625 -1.15125,-1.1525 -0.88625,-0.70875 -0.7975,-0.35375 -0.88625,-0.355 -1.59375,-0.4425 -0.88625,-0.1775 -0.97375,-0.17625 -1.06375,-0.1775 -1.0625,-0.0888 -1.0625,-0.0888 -1.06375,0 -1.15125,0 -1.06375,0.0888 -0.97375,0.26625 -0.975,0.265 -0.885,0.355 -0.7975,0.4425 -0.70875,0.62 -0.62,0.62 -0.7975,1.50625 -0.53125,1.15125 -0.53125,1.32875 -0.53125,1.4175 -0.44375,1.32875 -0.35375,1.0625 -0.0888,1.1525 -0.0887,-0.355 0,1.595 -0.0888,-0.44375 0.0888,1.24125 11.95875,0 c 4.05373,0.35685 3.89833,0.79822 6.02375,2.6575 l 0.7975,0.62 1.15125,0.97375 -0.0888,-0.0888 0.53125,0.53125 -0.53125,0.0888 -1.595,0.26625 -1.0625,0.1775 -1.32875,0.17625 -1.4175,0.1775 -1.505,0.1775 -1.68375,0.265 -1.6825,0.1775 -1.68375,0.26625 -1.77125,0.1775 -1.7725,0.265 -1.6825,0.1775 -1.595,0.0887 -1.59375,0.17625 -0.7975,0 -0.97375,0.0888 -1.06375,0 -1.15125,0.0887 -1.24,0 -1.24,0 -1.32875,-0.0887 -1.32875,-0.0888 -1.24,-0.0875 -1.32875,-0.0888 -1.24125,-0.26625 -1.15125,-0.1775 -1.0625,-0.35375 -0.975,-0.26625 -0.885,-0.4425 -1.32875,-1.0625 0.62,0.62 -1.2412,-1.1525 -0.97375,-1.0625 -0.88625,-0.97375 -0.70875,-0.975 -0.79625,-0.88625 -0.88625,-0.70875 -1.24,-0.70875 -1.595,-0.53125 -0.885,-0.17625 -0.975,0 -1.0625,0.0875 -1.06375,0.26625 -1.15125,0.4425 -1.0625,0.5325 -1.1525,0.62 -1.0625,0.70875 -1.0625,0.79625 -1.06375,0.88625 -0.97375,0.88625 -0.88625,0.97375 -0.88625,1.06375 -0.70875,1.0625 -0.62,1.0625 -0.53125,1.06375 -0.26625,0.97375 -0.35375,0.88625 -0.26625,0.97375 -0.35375,0.88625 -0.35375,0.88625 -0.5325,0.885 -0.4425,0.88625 -0.4425,0.975 -0.5325,1.6825 -0.265,1.50625 -0.1775,1.4175 -0.1775,1.24 -0.53125,1.6825 -1.32875,0.355 -1.50625,-0.70875 -0.79625,-0.62 -0.88625,-0.70875 -0.88625,-0.88625 -0.885,-0.97375 -0.7975,-1.06375 -0.88625,-1.15125 -0.885,-1.15125 -0.7975,-1.1525 -0.70875,-1.15125 -0.70875,-1.15125 c -2.00848,-3.86353 -2.2663,-4.45362 -3.18875,-8.77 l -0.26625,-1.0625 -0.265,-1.06375 -0.355,-1.0625 -0.26625,-0.88625 -0.79625,-1.59375 -1.06375,-1.06375 -1.4175,-0.62 -0.885,0 -0.975,0.0888 -0.97375,0.1775 -0.88625,0.35375 -0.88625,0.44375 -0.885,0.53125 -0.88625,0.62 -0.7975,0.70875 -0.7975,0.70875 -0.7075,0.7975 -0.70875,0.79625 -0.62,0.88625 -0.62125,0.88625 -0.62,0.97375 -0.53125,0.88625 -0.53125,0.97375 -0.4425,0.88625 -0.355,0.88625 -0.62,1.6825 -0.35375,0.88625 -0.26625,0.7975 -0.265,0.885 -0.26625,0.88625 -0.26625,0.88625 -0.265,0.885 -0.26625,0.88625 -0.265,0.88625 -0.26625,0.885 -0.355,0.88625 -0.265,0.88625 -0.62,1.6825 -0.62,1.595 -0.70875,1.505 -0.7975,1.4175 -0.975,1.32875 -1.0625,1.15125 -1.15125,0.975 -1.32875,0.7975 -1.50625,0.53125 -1.6825,0.35375 0.885,-0.0875 -1.505,0.0875 -1.50625,-0.17625 -1.32875,-0.44375 -1.32875,-0.70875 -1.06375,-0.97375 -1.0625,-1.15125 -0.7975,-1.32875 -0.62,-1.4175 -0.4425,-1.24 -0.4425,-1.4175 -0.44375,-1.595 -0.4425,-1.6825 -0.26625,-1.15125 -0.17625,-1.1525 -0.1775,-1.15125 -0.0888,-1.0625 -0.1775,-1.06375 -0.0888,-0.97375 0,-0.975 0,-0.885 0,-1.7725 0.0888,-1.6825 0.26625,-1.50625 0.1775,-1.4175 0.265,-1.24 0.355,-1.24 0.265,-1.15125 0.355,-0.975 0.17625,-0.97375 0.44375,-1.68375 0,-1.4175 0.0888,0.70875 0.0888,-1.59375 0,0.17625 0,-0.70875 -0.70875,0.88625 -0.62,0.88625 -0.62125,1.0625 -0.62,1.06375 -0.53125,1.41625 -0.53125,1.50625 -0.4425,1.68375 -0.1775,0.885 -0.1775,0.88625 -0.1775,0.97375 -0.17625,0.975 -0.0888,0.97375 -0.1775,0.975 -0.0888,0.975 -0.0888,0.97375 -0.17625,1.0625 -0.0888,0.975 0,0.975 -0.0888,0.97375 -0.0888,0.975 0,0.885 -0.0888,1.7725 0,1.6825 0,1.50625 0,1.24 0.0888,1.0625 0.1775,0.88625 0.0888,0.97375 0.17625,0.975 0.1775,0.97375 0.26625,0.975 0.17625,0.975 0.26625,0.97375 0.26625,0.975 0.35375,0.97375 0.355,0.975 0.35375,0.885 0.355,0.88625 0.4425,0.88625 0.35375,0.885 0.5325,0.7975 0.4425,0.7975 0.53125,0.7975 1.0625,1.32875 1.24125,1.24 1.32875,0.97375 1.41625,0.7975 1.50625,0.53125 1.68375,0.26625 1.77125,-0.0887 0.97375,-0.1775 1.50625,-0.53125 1.50625,-0.7975 1.32875,-1.0625 0.70875,-0.70875 0.62,-0.62 0.53125,-0.70875 0.62,-0.7975 0.53125,-0.7975 0.5325,-0.79625 0.4425,-0.88625 0.4425,-0.88625 0.44375,-0.885 0.35375,-0.88625 0.35375,-0.88625 0.355,-0.885 0.26625,-0.88625 0.265,-0.88625 0.26625,-0.885 0.265,-0.88625 0.1775,-0.88625 0.4425,-1.77125 0.355,-1.6825 0.4425,-1.68375 0.355,-1.59375 0.53125,-1.595 L 42.076,75.295 42.696,73.8775 43.4935,72.54875 44.46725,71.22 45.531,70.1575 46.85975,69.095 48.366,68.20875 49.251,67.76625 50.40225,67.5 l 0.88625,0.4425 0.26625,0.5325 0.53125,1.505 0.26625,0.88625 0.4425,1.6825 0.4425,1.50625 0.4425,1.32875 0.355,1.24 0.4425,1.15125 0.355,1.06375 C 57.2789,84.8893 60.56447,87.67098 64.1335,91.24 l 1.24,1.15125 1.24,1.06375 1.32875,1.0625 1.32875,0.975 1.32875,0.885 1.4175,0.88625 1.4175,0.70875 1.4175,0.70875 1.505,0.53125 1.50625,0.53125 1.595,0.355 1.59375,0.265 1.68375,0.0888 1.0625,0.0888 1.0625,0 1.06375,0 0.97375,0 1.595,-0.0888 -0.0888,0.0888 0.70875,-0.0888 0.0888,-0.62 0.265,-1.59375 c 0.80174,-4.27742 1.07553,-3.65317 2.835,-7.17625 l 0.26625,-1.32885 0.0888,-0.97375 0,0.265 -0.0888,-0.7075 -1.32875,0 -1.32875,0 -1.24,0 -1.32875,-0.26625 -1.4175,-0.70875 -1.50625,-0.88625 -0.7975,-0.53125 -0.70875,-0.53125 -0.70875,-0.62 -0.70875,-0.62 -0.7075,-0.62 -1.1525,-1.32875 -0.97375,-1.24 -0.62,-1.1525 0.265,0.5325 -0.62,-1.4175 -0.35375,-0.975 -0.26625,-0.97375 -0.265,-1.06375 -0.0888,-0.97375 0.0888,-1.4175 0.4425,-0.88625 0.7975,-0.885 1.0625,-0.88625 1.24,-0.88625 1.24,-0.7975 1.32875,-0.7075 1.06375,-0.5325 1.4175,-0.4425 -0.5325,0.0888 0.88625,-0.1775 1.77125,0.0888 0.975,0.1775 0.88625,0.4425 0.97375,0.4425 0.975,0.70875 1.0625,0.70875 0.88625,0.7975 0.79625,0.62 1.50625,0.975 0.88625,0.35375 0.97375,0.4425 1.32875,0.355 1.7725,0.4425 1.24,0.355 1.4175,0.265 1.505,0.26625 1.68375,0.1775 1.6825,0.265 1.68375,0.1775 1.77125,0.0887 0.975,0.0888 0.885,0.0888 0.88625,0 0.88625,0 1.77125,0.0875 1.77125,-0.0875 1.7725,0 1.6825,-0.1775 1.50625,-0.1775 1.505,-0.1775 1.32875,-0.265 1.1525,-0.355 1.0625,-0.265 1.15125,-0.355 1.24125,-0.265 1.15125,-0.1775 1.4175,-0.0888 1.77125,-0.0888 0.88625,0 0.97375,0 1.06375,0 1.0625,0 1.0625,0 1.06375,0 1.15125,0 1.0625,0.0888 1.1525,0 1.0625,0.0888 1.0625,0 1.06375,0 1.0625,0.0888 0.975,0 0.97375,0.0888 1.7725,0.0875 1.505,0.0888 1.1525,0 1.32875,0.0888 -0.44375,0 0.53125,0 0.7975,-0.97375 0.70875,-1.06375 0.975,-1.4175 0.97375,-1.505 0.88625,-1.50625 0.70875,-1.50625 0.35375,-1.32875 0.1775,-0.885 0,0.17625 0.0887,-0.62 -0.88625,-0.17625 -0.97375,-0.1775 -1.1525,-0.1775 -1.32875,-0.26625 -1.32875,-0.35375 -1.24,-0.35375 -1.0625,-0.355 -0.88625,-0.35375 -0.7975,-0.5325 -0.79625,-0.7075 z m -128.3575,9.47875 0.26625,0.0888 0.4425,0.1775 -0.0875,-0.26625 0.17625,0.1775 0.26625,0.35375 -0.1775,-0.1775 0.4425,0.26625 1.32875,-0.4425 -0.62,0.265 0.975,-0.53125 0.97375,-0.70875 0.7975,-0.88625 0.88625,-0.79625 0.7975,-0.44375 0.97375,-0.4425 1.68375,-0.26625 0.265,0.5325 -0.70875,1.6825 0.44375,-0.7975 -0.44375,0.7975 -0.70875,0.7975 -0.885,0.70875 -0.975,0.70875 -1.0625,0.70875 -0.88625,0.62 -0.885,0.70875 -0.62125,0.79625 -0.4425,0.7975 -0.35375,1.15125 0,1.68375 0.53125,0.0887 1.6825,-0.62 -0.885,0.35375 0.885,-0.35375 0.88625,-0.53125 0.7975,-0.5325 0.885,-0.62 0.7975,-0.62 0.88625,-0.70875 0.7975,-0.70875 0.70875,-0.79625 0.79625,-0.88625 0.62,-0.7975 0.62125,-0.88625 0.62,-0.885 0.53125,-0.975 0.35375,-0.885 0.355,-0.975 0.265,-0.88625 0.1775,-1.505 -0.1775,-1.1525 -0.4425,-0.97375 -0.7975,-0.62 -0.97375,-0.4425 -1.1525,-0.1775 -1.32875,-0.0888 -1.505,0.1775 -1.7725,0.35375 -1.41625,0.4425 -1.06375,0.62125 -0.97375,0.79625 -0.70875,0.975 -0.62,1.24 -0.5325,1.595 -0.17625,0.885 -0.26625,0.975 -0.26625,0.97375 0.355,1.32875 -0.355,-0.4425 z m 91.06375,29.675 0,0.975 0.265,0.4425 1.32875,0.62 1.595,0.4425 1.68375,0.26625 1.505,0.1775 1.50625,0.17625 1.32875,0.1775 1.24,0.1775 1.24,0.1775 1.15125,0.0875 1.06375,0.0887 1.0625,0.0888 0.975,0.0888 0.885,0.0887 1.86125,0 1.6825,-0.1775 1.595,-0.265 1.59375,-0.44375 1.68375,-0.53125 0.885,-0.35375 0.88625,-0.355 0.88625,-0.4425 0.97375,-0.53125 0.975,-0.5325 0.97375,-0.62 1.1525,-0.62 1.15125,-0.70875 1.15125,-0.79625 1.32875,-0.7975 1.32875,-0.88625 1.4175,-0.88625 1.15125,-0.79625 1.06375,-0.70875 1.0625,-0.70875 1.0625,-0.7975 1.06375,-0.70875 0.97375,-0.7975 0.975,-0.7975 0.97375,-0.79625 0.88625,-0.88625 0.88625,-0.88625 0.885,-0.885 0.7975,-0.975 0.7975,-1.0625 0.70875,-1.06375 0.70875,-1.15125 0.62,-1.15125 0.4425,-0.7975 0.355,-0.88625 0.35375,-0.885 0.355,-0.7975 0.35375,-0.88625 0.26625,-0.885 0.35375,-0.88625 0.26625,-0.88625 0.35375,-0.885 0.62,-1.595 0.70875,-1.595 0.70875,-1.32875 0.7975,-1.15125 -0.4425,0.53125 0.885,-1.24 0.7975,-1.24 0.62,-1.32875 0.355,-1.24 0.0875,-1.595 -0.0875,-0.79625 -0.0888,-0.975 -0.0888,-0.97375 -0.1775,-0.88625 -0.1775,-0.975 -0.17625,-0.885 -0.355,-1.7725 -0.35375,-1.32875 -0.355,-1.24 0.975,-0.17625 1.505,-0.355 0.5325,-0.53125 -0.62,-1.4175 0.35375,0.70875 -0.97375,-1.50625 -0.62125,-0.7975 -0.7075,-0.97375 -0.7975,-1.15125 -0.7975,-1.24 -0.7975,-1.32875 -0.7975,-1.50625 -0.4425,-1.15125 -0.4425,-1.1525 -0.44375,-1.0625 -0.35375,-1.0625 -0.53125,-1.50625 0,0.0888 -0.26625,-0.7975 -0.88625,0.88625 -0.885,0.79625 -0.88625,0.975 -0.70875,0.7975 -0.70875,0.79625 -0.62,0.7975 -0.53125,0.7975 -0.88625,1.50625 -0.62,1.505 -0.35375,1.50625 0,1.50625 0.265,1.4175 0.62,1.50625 0.44375,0.885 0.62,0.975 0.53125,0.97375 0.62,0.975 0.53125,0.97375 0.5325,0.975 0.35375,0.88625 0.26625,1.6825 -0.0888,-0.7975 0.0888,0.975 0,0.97375 -0.0888,0.975 0,1.15125 0.17625,0.975 0.355,1.6825 0.53125,1.4175 0.4425,1.32875 0.5325,1.24 0.35375,0.97375 0.26625,0.975 -0.355,1.77125 0.1775,-0.4425 -0.70875,1.0625 -0.53125,0.70875 -0.70875,0.70875 -0.7975,0.7975 -0.88625,0.88625 -0.885,0.79625 -0.975,0.88625 -1.0625,0.88625 -0.975,0.885 -0.97375,0.7975 -0.975,0.7975 -0.7975,0.70875 -0.79625,0.62 -1.24,0.975 -0.7975,0.70875 -0.88625,0.7075 -0.7975,0.62125 -0.885,0.62 -0.7975,0.62 -0.88625,0.62 -0.7975,0.62 -0.79625,0.53125 -0.88625,0.53125 -0.88625,0.62 -0.7975,0.53125 -0.885,0.44375 -0.88625,0.53125 -0.88625,0.53125 -0.885,0.4425 -0.88625,0.5325 -0.97375,0.4425 -0.975,0.53125 -0.97375,0.44375 -0.975,0.4425 -0.97375,0.4425 -1.06375,0.44375 -1.0625,0.4425 -1.06375,0.53125 -1.15125,0.4425 -1.15125,0.44375 -1.15125,0.4425 -1.1525,0.4425 -1.24,0.44375 -1.32875,0.53125 -1.32875,0.4425 -1.32875,0.44375 -0.885,0.35375 -0.975,0.26625 -1.15125,0.17625 -1.50625,0.1775 -0.88625,0 -0.97375,0 -0.975,0 -1.77125,0 -1.0625,0 -0.1775,0 z m -44.02625,-34.99 0.26625,-0.7975 0.62,-1.59375 0.355,-1.32875 0.0875,-1.1525 0,-1.24 -0.17625,-1.32875 -0.0888,-1.0625 -0.1775,-1.15125 -0.0888,-1.32875 -0.1775,-1.32875 -0.0875,-1.4175 -0.1775,-1.4175 -0.1775,-1.4175 -0.0888,-1.4175 -0.0888,-1.32875 -0.17625,-1.24 -0.0888,-1.0625 -0.1775,-1.7725 -0.0888,-1.0625 0,-0.0888 1.15125,-0.0887 0.975,-0.0888 1.15125,0 1.24,0.0888 1.1525,0.1775 1.6825,0.4425 1.4175,0 1.32875,-0.7975 0.88625,-1.505 0.4425,-1.06375 0.26625,-1.0625 0.265,-1.15125 0.0887,-1.06375 -0.35375,-1.77125 -1.06375,-1.24 -1.50625,-0.70875 -1.6825,-0.0888 -1.32875,0.70875 -0.88625,1.32875 -0.97375,1.32875 -1.06375,0.7975 -1.15125,0.53125 -1.24,0.53125 -0.975,0.62 -0.53125,1.06375 -0.265,0.79625 -0.26625,0.975 -0.1775,1.0625 -0.17625,1.24 -0.0888,1.24125 -0.0888,1.32875 -0.0888,1.32875 -0.0888,1.32875 0,1.24 0,1.15125 0,1.15125 c 0.12226,2.81784 0.17402,3.08539 0.70875,6.29 l 0.1775,1.0625 0.1775,0.975 0.17625,1.0625 0.26625,0.975 0.35375,1.6825 0.26625,1.4175 z m -64.8425,-32.155 0.7975,-0.62125 0.7975,-0.62 0.70875,-0.70875 0.70875,-0.62 0.62,-0.79625 0.53125,-0.70875 0.62,-0.70875 0.70875,-0.62 1.0625,-0.53125 1.1525,-0.44375 1.24,-0.35375 1.15125,-0.44375 1.4175,-0.79625 1.24,-0.975 1.24,-1.15125 0.975,-1.32875 0.885,-1.4175 0.62,-1.4175 0.5325,-1.4175 0.265,-1.4175 0,-1.15125 0,-1.0625 -0.0888,-1.06375 -0.17625,-0.885 -0.70875,-1.595 -0.975,-1.50625 -0.53125,-0.62 -0.70875,-0.70875 -0.70875,-0.62 -0.7975,-0.62 -0.885,-0.70875 -0.88625,-0.62 L 14.5274,1.7713 13.5524,1.06255 12.40115,0.3538 10.8949,5e-5 l -1.0625,0 -1.1525,0.0888 -1.15125,0.1775 0,0.4425 0,1.32875 0.0888,1.77125 0.26625,1.7725 0.4425,1.6825 0.62,1.32875 0.53125,1.24 0.53125,1.24 0.0888,0.53125 -0.4425,0.355 0.35375,0 -0.35375,0 L 8.76875,11.4276 9.2125,11.78135 8.32625,11.0726 7.6175,10.4526 6.555,9.2126 5.58,8.50385 4.25125,8.7701 3.5425,9.3901 3.01125,10.1876 2.6575,11.33885 2.48,12.6676 l 0,1.4175 0.265,1.6825 0.1775,1.24 0.26625,1.32875 0.1775,1.4175 0.17625,1.32875 0.1775,1.24 0.0888,1.1525 -0.0888,1.59375 -0.70875,1.24 -0.97375,1.24 -0.355,0.44375 -0.62,0.885 0.35375,-0.4425 -0.0875,0 L 0.62,29.94135 0.17625,31.4476 0,32.7751 l 0,1.24125 0.265,1.15125 0.44375,1.0625 0.7075,0.88625 0.7975,0.7975 1.06375,0.62 1.0625,0.53125 1.15125,0.4425 1.24,0.355 1.32875,0.265 1.32875,0.0888 1.24125,0.0888 1.24,0 1.24,-0.1775 1.0625,-0.0888 0.975,-0.265 1.59375,-0.70875 -0.70875,0.35375 1.4175,-0.53125 1.50625,-0.70875 0.88625,-0.35375 0.79625,-0.355 0.975,-0.4425 0.88625,-0.4425 1.24,-0.53125 1.505,-0.62125 1.50625,-0.7075 1.595,-0.70875 0.885,-0.44375 0.88625,-0.35375 0.7975,-0.44375 0.88625,-0.4425 0.885,-0.35375 0.88625,-0.44375 0.88625,-0.4425 0.885,-0.53125 0.88625,-0.44375 0.88625,-0.4425 0.79625,-0.53125 0.7975,-0.4425 0.7975,-0.5325 0.7975,-0.53125 0.7975,-0.53125 1.41625,-1.0625 1.24,-1.06375 1.1525,-1.15125 0.885,-1.15125 0.70875,-1.1525 -0.265,0.62125 0.4425,-0.88625 0.53125,-0.7975 0.62,-1.4175 -0.97375,-0.70875 -0.44375,0.26625 -0.885,0.4425 -0.7975,0.44375 -0.88625,0.53125 -0.885,0.62 -1.06375,0.62 -1.0625,0.62 -1.0625,0.70875 -1.1525,0.70875 -1.24,0.70875 -1.32875,0.7975 -1.24,0.79625 -1.32875,0.70875 -1.4175,0.7975 -1.4175,0.70875 -1.4175,0.7975 -1.41625,0.70875 -1.4175,0.70875 -1.50625,0.62 -1.4175,0.62 -1.50625,0.62 -1.41625,0.53125 -1.50625,0.4425 -1.4175,0.355 -1.4175,0.35375 -1.4175,0.26625 -1.32875,0.1775 -1.4175,0.0875 -1.24,0 L 9.4775,34.0164 8.2375,33.75015 7.08625,33.4839 5.935,33.0414 l -1.06375,-0.62 -0.62,-0.53125 0.1775,-0.62 0.26625,-0.26625 0.4425,-0.53125 -0.26625,0.26625 -0.0888,0 z m 6.91,-22.32375 -0.1775,-1.32875 0.53125,0 1.4175,0.26625 -0.53125,-0.355 0.88625,0.355 0.62,0.53125 1.0625,0.7975 0.975,0.70875 0.97375,0.62 0.88625,0.62 0.97375,1.24 -0.265,1.50625 -1.15125,1.24 -0.88625,0.88625 -0.975,0.885 -1.24,0.975 -1.4175,0.0887 -0.0875,-1.06375 0,-1.24 -0.1775,-1.32875 -0.1775,-1.4175 -0.35375,-1.32875 -0.355,-1.15125 -0.53125,-1.4175 0.0888,0.355 -0.0888,-0.44375 z m -3.0125,10.8075 -1.59375,0.0888 -0.70875,0 -1.32875,-0.355 0.88625,0.26625 -1.1525,-0.62 -0.79625,-0.975 -0.1775,-0.4425 0,-0.62 -0.0888,-1.24 1.24,-0.0887 0.62,0 1.15125,0.35375 -0.79625,-0.265 0.885,0.4425 0.7975,0.7975 0.975,1.24 0.0875,0.88625 0.0887,-0.26625 -0.0887,0.7975 z m 101.1625,23.74 -0.0888,-1.15125 -0.0887,-1.06375 -0.53125,-1.41625 -0.44375,-0.0888 -0.62,-0.62 0.26625,0.53125 -0.355,-0.7975 0.44375,-1.15125 0.70875,-1.24 1.15125,-1.32875 -0.4425,0.35375 0.79625,-0.88625 0.7975,-0.79625 0.88625,-0.88625 0.97375,-0.88625 0.975,-0.885 1.0625,-0.7975 1.06375,-0.88625 1.15125,-0.885 1.15125,-0.88625 1.24,-0.88625 1.24,-0.7975 1.24125,-0.885 1.32875,-0.7975 1.32875,-0.88625 1.32875,-0.79625 1.32875,-0.7975 1.32875,-0.70875 1.32875,-0.7975 1.41625,-0.70875 1.32875,-0.70875 1.32875,-0.62 1.32875,-0.70875 1.32875,-0.53125 1.32875,-0.62 1.24125,-0.53125 1.24,-0.53125 1.24,-0.44375 1.15125,-0.4425 1.15125,-0.355 1.1525,-0.35375 1.0625,-0.26625 0.97375,-0.265 1.4175,-0.26625 0.355,1.15125 0.4425,-0.97375 0,0.35375 -0.4425,0.975 0.265,-0.53125 -0.70875,1.32875 -0.97375,1.4175 -0.62,0.97375 -0.53125,0.88625 -0.5325,0.79625 -0.97375,1.4175 -0.70875,1.1525 -0.53125,0.885 -0.53125,1.1525 0.53125,0 0.97375,-0.88625 0.62,-0.70875 0.70875,-0.70875 0.7975,-0.7975 0.7975,-0.885 0.88625,-0.975 0.97375,-0.975 0.975,-1.0625 0.97375,-0.97375 1.06375,-1.06375 1.0625,-0.97375 0.97375,-0.975 1.06375,-0.97375 0.97375,-0.88625 0.975,-0.7975 0.88625,-0.70875 0.885,-0.70875 1.595,-0.885 1.24,-0.26625 -0.26625,0 0.7975,-0.35375 1.4175,-0.44375 -0.62,0.1775 0.88625,-0.26625 0.885,-0.265 1.68375,-0.53125 1.24,-0.7975 0.62,-1.4175 0.0888,-0.53125 -0.0888,-1.1525 0.0888,0.5325 -0.355,-1.1525 -0.79625,-0.70875 -1.1525,-0.265 -1.505,0 -1.68375,0.1775 -0.79755,0.265 -0.97375,0.1775 -0.88625,0.35375 -0.88625,0.26625 -0.885,0.26625 -1.595,0.62 0.7975,-0.26625 -1.595,0.62 -0.885,0.355 -0.88625,0.35375 -0.97375,0.355 -0.975,0.4425 -0.97375,0.4425 -1.06375,0.355 -1.0625,0.53125 -1.06375,0.4425 -1.15125,0.4425 -1.0625,0.5325 -1.1525,0.53125 -1.24,0.53125 -1.15125,0.53125 -1.15125,0.5325 -0.88625,0.35375 -0.88625,0.4425 -0.97375,0.44375 -1.0625,0.53125 -1.1525,0.53125 -1.15125,0.62 -1.32875,0.62 -1.24,0.62 -1.32875,0.70875 -1.4175,0.70875 -1.4175,0.70875 -1.4175,0.70875 -1.4175,0.7975 -1.41625,0.79625 -1.50625,0.88625 -1.4175,0.7975 -1.4175,0.88625 -1.4175,0.885 -1.32875,0.88625 -1.4175,0.97375 -1.24,0.88625 -1.24,0.975 -1.24,0.885 -1.15125,0.975 -1.06375,0.97375 -0.97375,0.88625 -0.88625,0.975 -0.7975,0.97375 -0.7075,0.975 -0.62125,0.885 -0.53125,0.975 -0.35375,0.97375 -0.355,1.1525 -0.265,1.24 -0.0887,1.32875 0.0887,1.24 0.265,1.24 0.355,1.24 0.53125,1.24 0.7975,1.15125 0.0888,0.1775 0.265,0.355 -0.0888,-0.1775 0.88625,0.97375 1.15125,0.0888 0.355,-0.79625 0.0888,-1.68375 z m 25.86625,5.935 0.7075,0 0.44375,-0.35375 0.4425,-1.595 0.1775,-0.88625 0.265,-0.885 0.355,-1.68375 0.35375,-1.59375 0.26625,-1.595 0.1775,-1.4175 0.17625,-1.4175 0,-1.32875 -0.0875,-1.32875 -0.1775,-1.24 -0.355,-1.24 -0.35375,-1.15125 -0.53125,-1.15125 -0.70875,-1.1525 -0.7975,-1.15125 -0.975,-1.24 -1.0625,-1.15125 -0.7975,-0.70875 -1.59375,-0.62 -0.62,0.35375 -0.355,1.06375 -0.1775,0.885 -0.17625,0.975 c 0.23664,2.45574 -0.42125,2.39037 0.35375,4.25125 l 0.70875,0.7975 0.88625,0.70875 1.0625,0.7975 1.06375,0.97375 0.885,0.88625 0.70875,0.975 0.53125,0.885 0.355,0.975 0.1775,1.0625 0,1.06375 -0.0888,1.24 -0.1775,1.0625 -0.1775,1.15125 -0.1775,1.24 -0.17625,1.06375 -0.355,1.77125 0.0888,-0.1775 z m -16.38875,-28.6125 -0.17625,-3.98625 0,-1.6825 0.17625,-1.24 0.44375,-1.15125 0.62,-0.88625 1.32875,-0.70875 1.6825,-0.355 1.77125,-0.265 1.50625,-0.53125 0.70875,-0.70875 0.53125,-1.06375 0.355,-1.15125 0.0887,-1.24 0,-1.32875 -0.26625,-1.24 -0.35375,-1.15125 -0.62,-0.88625 -0.70875,-0.53125 -0.88625,-0.1775 -0.975,0.26625 -1.0625,0.53125 -0.975,0.70875 -0.97375,0.885 -0.7975,0.7975 -0.62,0.7975 -0.70875,0.975 -0.62,1.0625 -0.53125,1.15125 -0.355,1.15125 -0.265,1.24125 -0.1775,1.15125 -0.70875,3.72 -2.3025,-2.9225 -1.06375,-1.50625 -0.70875,-1.15125 -0.62,-0.975 -0.53125,-0.88625 -0.62,-0.62 -0.7975,-0.53125 -1.0625,-0.53125 -1.50625,-0.4425 -1.50625,-0.1775 -1.6825,0.1775 -1.50625,0.53125 -0.97375,0.97375 -0.0888,1.4175 0.35375,1.595 0.53125,1.59375 1.06375,1.06375 -0.4425,-0.0887 0.7075,0.62 1.1525,0.70875 1.15125,0.62 1.32875,0.0888 -0.4425,0.1775 1.4175,0 1.59375,-0.355 1.32875,-0.265 -0.1775,0.0875 0.70875,-0.265 0.44375,0.62 0.4425,0.70875 0.62,0.7975 0.62,0.885 0.70875,0.88625 0.70875,0.88625 1.15125,1.32875 -0.53125,-0.62125 1.0625,1.06375 1.1525,0.35375 0.53125,0 -0.1775,0 0.53125,0 z M 66.2587,18.3363 l 0.975,-0.53125 0.975,-0.4425 0.97375,-0.44375 0.975,-0.4425 0.97375,-0.4425 0.975,-0.44375 0.885,-0.35375 0.975,-0.35375 0.88625,-0.355 0.885,-0.35375 1.68375,-0.5325 1.59375,-0.53125 1.50625,-0.35375 c 2.88254,-0.30547 2.37606,0.074 1.32875,2.0375 l -0.975,1.4175 -0.62,0.97375 -0.53125,0.88625 -0.53125,0.79625 -0.88625,1.4175 -0.7975,1.1525 -0.53125,0.885 -0.53125,1.1525 0.53125,0 0.975,-0.88625 0.62,-0.70875 0.70875,-0.70875 0.7975,-0.7975 0.79625,-0.885 0.88625,-0.975 0.975,-0.975 0.97375,-1.0625 1.06375,-0.97375 0.97375,-1.06375 1.0625,-0.97375 0.975,-0.975 1.0625,-0.97375 0.975,-0.88625 0.97375,-0.7975 0.88625,-0.70875 0.88625,-0.70875 1.59375,-0.885 1.24,-0.26625 -0.265,0 0.7975,-0.35375 1.4175,-0.44375 -0.62125,0.1775 0.88625,-0.26625 0.88625,-0.265 1.6825,-0.53125 1.24,-0.7975 0.62,-1.4175 0.0888,-0.53125 -0.0888,-1.1525 0.0888,0.5325 L 101.78125,1.1513 101.0725,0.44255 100.00875,0.0888 98.68,0 97.26375,0.26625 96.3775,0.4425 95.40245,0.70875 94.33995,0.975 93.1887,1.32875 92.03745,1.77125 90.7087,2.215 89.46745,2.74625 88.0512,3.2775 l -1.4175,0.53125 -1.4175,0.62 -1.4175,0.62 -1.50625,0.62 -1.505,0.62 -1.50625,0.70875 -1.4175,0.70875 -1.50625,0.62 -1.4175,0.70875 -1.41625,0.62 -1.4175,0.70875 -1.32875,0.62 -1.32875,0.62 -1.24,0.62125 -1.1525,0.62 -1.15125,0.53125 -0.975,0.53125 -0.97375,0.4425 c -3.72926,2.20418 -2.35892,1.20922 -5.66875,3.2775 l -1.4175,0.975 -1.32875,0.88625 -1.32875,0.97375 -1.32875,0.975 -1.24,0.885 -1.1525,0.975 -1.0625,0.97375 -1.0625,0.975 -0.975,0.97375 -0.7975,0.975 -0.70875,0.97375 -0.70875,0.975 -0.4425,0.97375 -0.4425,0.975 -0.355,1.24 -0.1775,1.24 -0.0875,1.24 0,1.24125 0.265,1.24 0.355,1.24 0.62,1.24 0.70875,1.15125 0.17625,0.1775 0.1775,0.35375 -0.0888,-0.17625 0.975,0.97375 1.0625,0.0888 0.355,-0.7975 0.0888,-1.6825 0,-1.06375 -0.1775,-1.0625 -0.44375,-1.50625 -0.4425,-0.0888 -0.62,-0.62 0.1775,0.5325 -0.26625,-0.7975 0.355,-1.1525 0.70875,-1.24 1.15125,-1.32875 -0.355,0.355 0.70875,-0.7975 0.7975,-0.88625 0.88625,-0.885 0.97375,-0.7975 0.975,-0.88625 1.0625,-0.885 1.06375,-0.88625 1.15125,-0.88625 1.15125,-0.885 1.24,-0.7975 1.24,-0.88625 1.24125,-0.7975 1.32875,-0.885 1.32875,-0.7975 1.3275,-0.7975 z m -11.0725,1.94875 -0.1775,-3.98625 0,-1.6825 0.26625,-1.24 0.355,-1.15125 0.62,-0.88625 1.32875,-0.70875 1.77125,-0.355 1.77125,-0.265 1.4175,-0.53125 0.70875,-0.70875 0.53125,-1.06375 0.355,-1.15125 0.17625,-1.24 -0.0875,-1.32875 -0.1775,-1.24 L 63.60245,1.59505 63.06995,0.7088 62.2737,0.17755 61.38745,5e-5 l -0.975,0.26625 -0.97375,0.53125 -0.975,0.70875 -0.97375,0.885 -0.7975,0.7975 -0.70875,0.7975 -0.62,0.975 -0.70875,1.0625 -0.4425,1.15125 -0.44375,1.15125 -0.17625,1.24125 -0.26625,1.15125 -0.70875,3.72 -2.3025,-2.9225 -0.975,-1.50625 -0.7975,-1.15125 -0.53125,-0.975 -0.53125,-0.88625 -0.62,-0.62 -0.7975,-0.53125 -1.15125,-0.53125 -1.50625,-0.4425 -1.4175,-0.1775 -1.6825,0.1775 -1.595,0.53125 -0.88625,0.97375 -0.0875,1.4175 0.265,1.595 c 1.32336,3.78539 4.38793,5.26608 8.15,4.42875 l 1.24,-0.265 -0.0887,0.0875 0.62,-0.265 0.44375,0.62 0.53125,0.70875 0.53125,0.7975 0.70875,0.885 0.70875,0.88625 0.70875,0.88625 1.15125,1.32875 -0.53125,-0.62125 0.97375,1.06375 1.1525,0.35375 0.62,0 -0.1775,0 z"/>
</svg>