<?xml version="1.0" encoding="UTF-8" standalone="no"?>
<!-- Created with sK1/UniConvertor (http://sk1project.org/) -->

<svg
   xmlns:dc="http://purl.org/dc/elements/1.1/"
   xmlns:cc="http://creativecommons.org/ns#"
   xmlns:rdf="http://www.w3.org/1999/02/22-rdf-syntax-ns#"
   xmlns:svg="http://www.w3.org/2000/svg"
   xmlns="http://www.w3.org/2000/svg"
   xmlns:sodipodi="http://sodipodi.sourceforge.net/DTD/sodipodi-0.dtd"
   xmlns:inkscape="http://www.inkscape.org/namespaces/inkscape"
   width="595.276pt"
   height="841.89pt"
   viewBox="0 0 595.276 841.89"
   fill-rule="evenodd"
   id="svg2"
   version="1.1"
   inkscape:version="0.48.0 r9654"
   sodipodi:docname="rahmah.svg">
  <metadata
     id="metadata12">
    <rdf:RDF>
      <cc:Work
         rdf:about="">
        <dc:format>image/svg+xml</dc:format>
        <dc:type
           rdf:resource="http://purl.org/dc/dcmitype/StillImage" />
      </cc:Work>
    </rdf:RDF>
  </metadata>
  <defs
     id="defs10" />
  <sodipodi:namedview
     pagecolor="#ffffff"
     bordercolor="#666666"
     borderopacity="1"
     objecttolerance="10"
     gridtolerance="10"
     guidetolerance="10"
     inkscape:pageopacity="0"
     inkscape:pageshadow="2"
     inkscape:window-width="640"
     inkscape:window-height="480"
     id="namedview8"
     showgrid="false"
     inkscape:zoom="0.24801339"
     inkscape:cx="-109.78134"
     inkscape:cy="526.18127"
     inkscape:window-x="0"
     inkscape:window-y="0"
     inkscape:window-maximized="0"
     inkscape:current-layer="svg2" />
  <path
     inkscape:connector-curvature="0"
     id="path6"
     d="m 142.089,47.444252 1.318,4.528 -2.838,2.97 c -7.735,8.095 -15.67,13.747 -25.093,18.294 -16.8963,8.155 -20.0727,5.536 -8.32,7.544 0.218,0.037 0.43,0.074 0.634,0.108 4.822,0.802 16.268,-2.849 20.561,-6.131 0.707,-0.54 1.491,-1.202 2.48,-2.065 2.961,-2.584 6.352,-5.593 9.637,-8.621 3.501,-3.227 5.864,-9.436 5.823,-12.495 -0.013,-1.019 -0.007,-2.13 0.051,-3 0.173,-2.624 0.813,-3.06 0.514,-5.005 -0.344,-2.228 -1.922,-6.437 -1.922,-6.437 0,0 0.245,0 0.485,0 3.007,0 2.35,-0.64 -0.165,-3.742 -0.755,-0.933 -1.495,-1.881 -2.001,-2.984 -1.257,-2.735 -2.168,-8.871 -4.748,-5.243 -1.887,2.654 -3.872,7.529 -2.698,9.73 0.635,1.193 2.361,1.905 3.603,3.2 1.04,1.085 1.803,2.713 1.986,4.228 0.143,1.181 0.029,2.152 0.243,3.239 0.142,0.724 0.295,1.347 0.45,1.882 z m -110.4987,33.41 c 0.4242,-0.007 0.8438,-0.053 1.2564,-0.142 2.2939,-0.493 3.6725,-2.922 4.4773,-5.044 2.2137,-5.836 1.7344,-18.467 5.7649,-23.54 1.1915,-1.5 3.2879,-3.611 3.2879,-3.611 0,0 3.2492,13.363 5.5995,18.263 1.9467,4.059 8.3593,9.99 12.8844,11.05 2.0514,0.48 7.8424,0.3 10.9051,0 1.5714,-0.155 2.4073,-0.442 3.6221,-2.199 0.6227,-0.901 0.6919,-1.145 0.6919,-2.442 l 0,-5.521 -8.1788,0.471 c -1.2949,0.074 -1.5212,0.068 -2.2629,-0.066 -2.9167,-0.527 -5.3592,-3.393 -6.3723,-5.136 -1.9649,-3.379 -0.5203,-4.791 3.4823,-8.251 1.9304,-1.669 5.0085,-2.793 7.0865,-1.357 1.0842,0.749 2.1983,2.427 3.3628,3.603 5.3366,5.388 19.0685,5.921 26.4216,3.843 2.914,-0.823 5.419,-2.145 8.167,-2.882 4.14,-1.11 14.345,-1.138 19.862,-0.807 1.295,0.078 1.454,-0.021 1.586,-0.984 0.098,-0.714 0.327,-1.28 0.651,-2.052 0.865,-2.063 2.408,-5.599 2.408,-5.599 0,0 -4.904,-0.551 -7.452,-1.367 -4.907,-1.572 -5.965,-4.206 -8.648,-7.687 -3.456,-4.484 -11.662,-5.009 -16.574,-3.603 -3.383,0.97 -4.5804,2.376 -4.8035,6.476 -0.0902,1.659 0,3.853 0,3.853 l 10.5685,0 c 0,0 -0.102,-0.937 0,-1.441 0.098,-0.481 0.884,-0.481 1.922,0 2.159,0.999 6.335,3.225 6.335,3.225 0,0 -6.881,2.418 -11.139,3.5 -8.0135,2.038 -13.7995,1.535 -20.6573,-0.48 -1.8614,-0.547 -3.7158,-1.018 -5.2845,-2.162 -4.1953,-3.058 -4.0198,-6.386 -8.359,-5.524 -7.1287,1.414 -11.5582,9.504 -11.8179,16.718 -0.0786,2.185 0,5.38 0,5.38 0,0 -0.6204,0.064 -1.1529,0 -0.8084,-0.097 -2.6192,-1.939 -3.5209,-3.283 -2.1551,-3.213 -3.1703,-3.188 -4.4538,-8.727 -1.7127,-7.391 -0.4265,-12.56 -6.2452,-13.451 -3.2735,-0.502 -5.8783,3.62 -7.4463,7.206 -1.8397,4.208 -3.6348,18.686 -5.2844,22.098 -1.1186,2.315 -3.1743,2.959 -5.7638,2.553 -0.7472,-0.118 -1.4382,-0.278 -2.0782,-0.479 -7.3645,-2.304 -8.0775,-10.155 -9.4514,-16.449 -0.2298,-1.053 -0.387,-1.78 -0.387,-1.78 -0.7138,-3.513 -1.2232,-8 -1.2752,-1.01 -0.0676,9.087 3.3201,16.356 6.1995,20.787 6.5793,10.124 16.0068,7.983 12.0666,8.05 z m 12.712,-3.795 c 0.1543,2.13 1.1477,3.454 2.9547,3.836 2.3312,0.493 3.6494,-0.771 4.2469,-3.329 0.131,-0.561 0.1017,-1.028 -0.2595,-1.254 -0.6867,-0.429 -2.5729,0.017 -3.4847,-0.468 -1.1343,-0.602 -1.4227,-3.164 -1.1421,-4.361 0.2809,-1.199 0.9969,-2.482 1.1918,-3.406 0.0394,-0.187 0.0575,-0.36 -0.0239,-0.456 -0.0103,-0.012 -0.0206,-0.023 -0.0309,-0.034 -2.7437,-0.625 -3.4106,10.047 -3.4523,9.472 z m -44.3023,0 c 0.1543,2.13 1.1477,3.454 2.9547,3.836 2.3312,0.493 3.6494,-0.771 4.2469,-3.329 0.131,-0.561 0.1016,-1.028 -0.2595,-1.254 -0.6867,-0.429 -2.5729,0.017 -3.4847,-0.468 -1.1343,-0.602 -1.4227,-3.164 -1.1421,-4.361 0.2808,-1.199 0.9968,-2.482 1.1917,-3.406 0.0395,-0.187 0.0576,-0.36 -0.0238,-0.456 -0.0103,-0.012 -0.0206,-0.023 -0.031,-0.034 -2.7436,-0.625 -3.4105,10.047 -3.4522,9.472 z m 90.3407,-52.82 -4.6386,4.607 c -0.7708,0.766 -0.8804,0.904 -1.0961,1.375 -0.302,0.661 -0.4065,1.765 -0.258,1.915 0.4804,0.485 2.179,-0.692 2.7702,-1.128 5.1779,-3.819 7.5366,-6.224 8.3738,-11.169 0.4255,-2.513 -0.9053,-3.486 -3.26,-3.806 -3.7358,-0.509 -7.4431,0.011 -8.8944,2.824 0.2266,10.739 0.5456,4.598 3.7136,3.835 3.5243,-0.848 7.3139,-2.731 3.2895,1.547 z m -31.2224,28.705 c 0,0 0.4485,-1.033 0.7198,-1.853 0.4577,-1.382 0.384,-2.381 0.2034,-3.811 -0.5035,-3.989 -1.2777,-13.025 -1.2777,-13.025 0,0 1.3889,-0.156 2.4504,-0.128 2.8705,0.075 3.707,1.427 5.217,-0.082 0.9831,-0.982 1.8625,-4.462 1.2337,-5.762 -0.7191,-1.486 -3.1553,-2.202 -4.2749,-0.989 -0.5164,0.56 -0.811,1.442 -1.402,2.024 -0.9152,0.9 -2.541,1.078 -3.3465,1.829 -1.3793,1.286 -1.5643,10.269 -1.3104,12.397 0.4282,3.59 1.7872,9.4 1.7872,9.4 z m -54.2181,-9.717 c 0.3832,2.337 1.0977,6.091 0.7462,7.057 -0.2592,0.712 -0.7838,1.239 -1.2664,1.871 -2.0129,2.637 -2.3054,5.729 -1.2157,9.284 1.1633,3.794 5.2489,2.213 8.9665,-0.144 2.2155,-1.405 7.6295,-5.253 8.8009,-7.77 0.0648,-0.139 0.1253,-0.281 0.1819,-0.428 -0.5095,-1.943 -2.09,0.052 -2.0948,0.055 -6.0514,4.135 -12.3974,6.638 -14.3778,5.862 -0.441,-0.173 -0.6616,-0.631 -0.3856,-1.604 0.1749,-0.617 0.533,-1.258 0.6138,-1.356 0.8857,-1.069 2.7246,-2.159 3.8604,-3.4 0.7137,-0.78 1.1498,-1.62 1.9026,-2.15 0.9531,-0.672 2.4139,-0.846 3.534,-1.347 2.9018,-1.297 5.1389,-4.808 5.4144,-7.554 0.494,-4.923 -2.1402,-6.545 -6.4611,-9.559 -0.5771,-0.403 -1.0419,-0.721 -2.0006,-0.782 -1.0067,-0.064 -2.5581,0.157 -2.5581,0.157 0,0 -0.0788,2.372 0.2485,4.062 0.366,1.889 1.2398,2.923 1.6122,4.186 0.0829,0.282 0.1409,0.574 0.0413,0.676 -0.1026,0.105 -0.3723,0.007 -0.6301,-0.156 -2.0259,-1.282 -2.1313,-3.112 -3.7415,-2.289 -0.8854,0.453 -1.2929,1.513 -1.3616,2.964 -0.0438,0.925 -0.0268,1.162 0.1706,2.365 z m 6.807,-5.599 -0.1137,-0.97 c 0,0 0.6351,-0.112 1.0809,-0.067 0.5674,0.058 0.828,0.37 1.1691,0.668 1.997,1.745 4.5906,2.429 3.4666,4.175 -0.1807,0.281 -1.3062,1.446 -2.3025,2.3 -1.3567,1.163 -2.1907,1.43 -2.0577,-0.024 0.2066,-2.26 -1.2888,-6.475 -1.2427,-6.082 z m -2.2649,8.202 -1.2016,0.073 c -0.5398,0.033 -0.6323,0.027 -0.924,-0.059 -0.5262,-0.157 -1.1904,-0.704 -1.4453,-1.225 -0.123,-0.252 -0.1396,-0.328 -0.166,-0.76 l -0.0588,-0.961 0.9613,-0.059 c 0.4319,-0.026 0.5093,-0.019 0.7742,0.072 0.7409,0.256 1.9203,1.516 1.9941,1.838 0.1056,0.462 0.0661,1.081 0.0661,1.081 z m 102.5947,-28.874 -0.146,-3.35 c -0.06,-1.354 -0.04,-1.597 0.195,-2.427 0.175,-0.615 0.359,-1.2879995 0.826,-1.7219995 1.138,-1.057 3.955,-0.692 5.261,-1.562 1.881,-1.254 1.882,-5.56 0.435,-7.30500003 -1.535,-1.84999997 -4.637,1.08900003 -5.909,2.77100003 -0.78,1.032 -1.52,2.216 -1.852,3.598 -0.154,0.64 -0.24,1.367 -0.36,2.003 l -0.591,3.1159995 -1.949,-2.4809995 c -2.668,-3.513 -1.854,-4.558 -5.775,-5.513 -1.314,-0.32 -4.1623,-0.201 -4.7098,1.278 -0.4285,1.158 0.5774,3.972 1.2075,4.6399995 0.4845,0.514 2.4463,1.79 3.2573,1.868 1.324,0.128 4.03,-0.678 4.03,-0.678 0,0 2.184,3.143 3.518,4.619 0.582,0.644 1.063,1.163 1.81,1.177 0.308,0.006 0.752,-0.032 0.752,-0.032 z m -10.477,10.964 0.108,5.735 c 0.974,-1.013 2.074,-2.142 3.105,-3.166 2.944,-2.924 17.748,-14.678 23.672,-17.112 0.559,-0.23 1.029,-0.361 1.203,-0.052 0.139,0.246 -1.246,6.224 0.498,4.5 0.482,-0.477 0.717,-1.728 1.083,-2.811 0.583,-1.725 1.5,-3.023 2.834,-4.143 6.502,-5.4589995 8.424,-3.8479995 9.167,-8.6909995 0.318,-2.07000003 0.094,-2.54000003 -1.692,-1.93600003 -1.976,0.669 -4.809,2.19600003 -7.924,4.09000003 -3.653,2.222 -22.815,14.6649995 -32.054,23.5859995 z m -44.5862,-10.964 -0.1463,-3.35 c -0.0591,-1.354 -0.0395,-1.597 0.1956,-2.427 0.1744,-0.615 0.3586,-1.2879995 0.8255,-1.7219995 1.1379,-1.057 3.9552,-0.692 5.2614,-1.562 1.8807,-1.254 1.8821,-5.56 0.4348,-7.30500003 -1.5347,-1.84999997 -4.6372,1.08900003 -5.9085,2.77100003 -0.7808,1.032 -1.5201,2.216 -1.8527,3.598 -0.1541,0.64 -0.2393,1.367 -0.3599,2.003 L 54.8334,12.078252 52.8842,9.5972525 c -2.6682,-3.513 -1.8545,-4.558 -5.7752,-5.513 -1.3136,-0.32 -4.1624,-0.201 -4.7099,1.278 -0.4285,1.158 0.5774,3.972 1.2075,4.6399995 0.4845,0.514 2.4465,1.79 3.257,1.868 1.3242,0.128 4.0301,-0.678 4.0301,-0.678 0,0 2.1839,3.143 3.5179,4.619 0.5821,0.644 1.0635,1.163 1.81,1.177 0.3082,0.006 0.7522,-0.032 0.7522,-0.032 z m -10.4773,10.964 0.1082,5.735 c 0.9741,-1.013 2.074,-2.142 3.105,-3.166 2.9444,-2.924 17.7479,-14.678 23.6718,-17.112 0.5594,-0.23 1.0294,-0.361 1.2036,-0.052 0.1392,0.246 -1.2462,6.224 0.4979,4.5 0.4824,-0.477 0.7172,-1.728 1.0832,-2.811 0.5831,-1.725 1.4993,-3.023 2.8338,-4.143 6.502,-5.4589995 8.4243,-3.8479995 9.167,-8.6909995 0.3175,-2.07000003 0.094,-2.54000003 -1.6923,-1.93600003 -1.976,0.669 -4.8085,2.19600003 -7.9239,4.09000003 -3.6529,2.222 -22.8146,14.6649995 -32.0543,23.5859995 z"
     style="fill:#000000;stroke:none" />
</svg>
