<?xml version="1.0" encoding="UTF-8" standalone="yes"?>
<svg>
  <path style="stroke:none; fill:#000000"
    d="m 54.089934,37.8605 c -0.08606,-0.08603 -0.15645,-0.55452 -0.15645,-1.04107 0,-3.187393 5.663262,-11.47478 7.841388,-11.47478 0.833861,0 0.970024,0.759268 0.526347,2.934934 -0.35628,1.747054 -1.040995,2.941376 -2.017238,3.518557 -1.224211,0.72379 -2.51667,2.06192 -3.319871,3.437196 -0.501254,0.858262 -1.237899,1.83523 -1.636995,2.17105 -0.755733,0.635907 -0.974938,0.716361 -1.237181,0.454113 z M 0.31085151,73.586011 c -0.4612805,-0.366363 -0.4555479,-0.38469 0.33352019,-1.066466 0.4415739,-0.381541 2.1093749,-1.329033 3.706224,-2.105561 1.5968479,-0.776515 3.2420106,-1.663413 3.6559098,-1.970877 0.4139033,-0.307463 1.4917685,-0.960563 2.3952575,-1.451314 1.592355,-0.864931 5.022169,-3.452468 7.136191,-5.383705 1.126933,-1.029493 3.219359,-3.743766 3.894598,-5.052019 0.554884,-1.075069 1.048558,-2.954647 1.052052,-4.005508 0.0047,-1.419957 -0.623789,-3.03218 -2.372336,-6.085407 -1.837779,-3.209026 -2.311311,-4.56923 -2.31554,-6.65129 -0.0036,-1.785588 0.863509,-6.021399 1.340588,-6.548563 0.387697,-0.428398 1.354174,-0.558081 1.568973,-0.210538 0.131485,0.212752 2.381596,1.053475 3.507592,1.310574 0.428716,0.0979 1.225987,-0.03174 2.211141,-0.359627 1.927793,-0.641523 3.158502,-1.845394 4.543105,-4.444002 l 0.993115,-1.86388 1.255725,4.509717 c 0.690647,2.480341 1.4103,4.745636 1.599225,5.033973 0.623472,0.951534 1.245911,1.09841 5.092261,1.201604 4.429795,0.11884 4.445911,0.107237 3.16666,-2.27115 -0.931078,-1.731116 -1.579264,-3.9447 -1.579264,-5.393268 0,-1.373488 2.643261,-8.909277 3.258371,-9.289431 0.211283,-0.130578 1.232024,1.977812 3.002638,6.202099 1.128164,2.691559 1.131077,2.705404 1.095518,5.208726 -0.03713,2.613919 -0.422738,4.792199 -1.444998,8.162679 -0.462557,1.5251 -0.823524,2.22851 -1.545593,3.011867 -1.185589,1.286206 -2.055668,1.719751 -4.788694,2.386136 -1.802665,0.439534 -2.517867,0.503822 -4.106767,0.36919 -3.221866,-0.273025 -3.802375,-0.492872 -4.594559,-1.740052 -0.579985,-0.913107 -1.923285,-4.025074 -2.495957,-5.782265 -0.130283,-0.399788 -0.233783,-0.312852 -0.698354,0.586678 -0.664781,1.287193 -1.695908,2.297452 -2.988975,2.928491 -1.443288,0.704357 -1.537644,0.997656 -0.923563,2.870779 1.089819,3.324265 0.859168,6.729344 -0.794905,11.735135 -1.203778,3.643038 -3.808527,8.793651 -5.290251,10.460892 -1.515549,1.705307 -2.67818,2.295025 -6.525524,3.309927 -1.685047,0.444509 -3.9372154,1.199857 -5.0048226,1.678564 -1.74609,0.78293 -2.1886415,0.880937 -4.4051565,0.975515 -2.0104856,0.08576 -2.55045523,0.03655 -2.93340539,-0.267623 z M 28.995122,68.57874 26.240487,65.816917 28.2363,63.831463 l 1.995818,-1.985441 -2.00921,-2.018559 -2.009209,-2.018559 2.774814,-2.59566 2.774812,-2.595673 2.769193,2.614599 2.769194,2.6146 -2.009968,1.989802 -2.009966,1.989803 1.994498,2.003781 1.994497,2.00378 -2.760508,2.753313 -2.76051,2.753326 -2.754633,-2.761835 z m 35.200853,-20.65116 -2.754634,-2.761823 2.006417,-1.990363 2.006415,-1.990363 -2.019006,-1.877378 -2.019009,-1.877378 2.774419,-2.757474 2.77441,-2.757474 2.771133,2.778361 2.771118,2.778361 -2.025201,1.838619 -2.025201,1.838618 2.007395,2.016745 2.007395,2.016745 -2.760501,2.753313 -2.760516,2.753313 -2.754634,-2.761822 z M 34.848988,8.1294986 32.080595,5.5148991 34.855773,2.7574381 37.630949,-3.6104906e-5 40.399569,2.7758177 l 2.76862,2.7758404 -2.775405,2.59622 -2.775402,2.5962199 -2.768394,-2.6145994 z m -3.848189,10.0527204 -2.595664,-2.774814 2.614596,-2.769198 2.614595,-2.7691851 1.989801,2.0099701 1.989806,2.009956 2.003778,-1.994498 2.003782,-1.9944981 2.753319,2.7605161 2.753317,2.760502 -2.761829,2.754633 -2.761823,2.754633 -1.985448,-1.995804 -1.985446,-1.995818 -2.01856,2.009209 -2.01856,2.009209 -2.595664,-2.774813 z M 7.2760692,49.434227 c 0,0 0.4719752,-1.087944 0.75746,-1.949896 C 8.5152036,46.029411 8.4376084,44.978467 8.247618,43.473547 7.717746,39.275763 6.9030892,29.767266 6.9030892,29.767266 c 0,0 1.4615224,-0.164992 2.5784641,-0.134992 3.0207407,0.07896 3.9009947,1.50192 5.4899117,-0.086 1.034545,-1.033944 1.959897,-4.695752 1.298232,-6.06368 -0.756761,-1.563912 -3.320327,-2.316873 -4.498564,-1.040944 -0.543372,0.588968 -0.853356,1.51792 -1.475223,2.129888 -0.9630487,0.946952 -2.6739592,1.134944 -3.5215144,1.924896 -1.4514233,1.352936 -1.6462129,10.806433 -1.3790273,13.045313 0.450676,3.777808 1.8807009,9.89248 1.8807009,9.89248 z M 34.873208,84.573449 c -1.551735,0.859274 -2.605941,1.352914 -4.052939,1.772856 -1.053236,0.305497 -2.314015,0.573167 -3.62329,0.833085 -18.1164817,3.607779 -7.016746,4.542699 -0.948499,4.643557 3.271244,0.05432 11.167623,-2.401301 15.078959,-4.360368 7.86147,-3.937517 12.589403,-11.605016 15.439744,-16.533709 2.068653,-3.576741 3.214025,-5.836456 3.31683,-11.839724 0.0078,-0.453881 -0.03104,-0.765198 -0.131903,-0.868965 -0.370474,-0.384054 -1.068755,-0.449039 -1.690419,-0.891281 -0.255061,-0.181354 -0.49752,-0.426724 -0.72834,-0.692461 -4.186766,-4.824918 -3.491395,-9.001014 -8.808023,-10.06395 -1.812615,-0.362723 -4.840437,-0.121234 -5.998418,1.520696 -1.964879,2.783416 -3.689245,11.398444 -3.293552,13.517526 0.396663,2.124909 1.087184,3.394417 2.295594,4.144096 3.677606,2.280083 5.450461,1.519735 9.741972,0.833093 0.50722,-0.08147 1.085245,-0.162932 1.743758,-0.255068 1.106583,-0.155174 2.124909,-0.338475 2.432347,0 0.548919,0.605175 -0.861214,2.067683 -1.859172,3.484605 -0.437392,0.621664 -0.989229,1.318975 -1.569193,1.993977 C 40.038727,82.17713 41.668785,80.765422 34.873208,84.573449 z m 7.600573,-29.641001 c 2.916288,-1.39947 3.214026,-1.742795 5.066408,-0.506257 2.12103,1.415959 5.320507,4.05293 4.560159,5.320506 -0.28125,0.46843 -6.848964,-0.557656 -8.106832,-1.267576 -0.699251,-0.393753 -2.58946,-1.920269 -2.026955,-2.989025 0.117347,-0.22306 0.337505,-0.476189 0.50722,-0.557648 z M 20.503699,8.8167346 15.622955,13.66548 c -0.81096,0.80596 -0.926952,0.950952 -1.153936,1.446928 -0.317984,0.69496 -0.427984,1.856904 -0.270992,2.014896 0.504976,0.509968 2.29288,-0.727968 2.914849,-1.186944 5.448711,-4.018784 7.930582,-6.5496488 8.811535,-11.7523775 0.447976,-2.6448641 -0.951953,-3.66880823 -3.430816,-4.00579219 -3.930792,-0.5359681 -7.831592,0.012 -9.359512,2.97184809 0.238992,11.3004016 0.573976,4.8377442 3.907801,4.0357842 3.708799,-0.8919521 7.69659,-2.8748481 3.461815,1.626912 z M 72.471677,49.906141 c -0.815026,-0.09748 -2.045012,1.220578 -3.52942,3.750008 -1.292217,2.201936 -1.777328,4.261313 -1.351105,5.845599 0.420402,1.562661 0.793686,2.2032 2.729785,4.77023 2.133326,2.828516 3.224538,4.977441 3.391551,6.672808 0.109467,1.111096 0.01142,1.513872 -0.606619,2.647064 -2.022392,3.708107 -10.565393,8.630531 -15.000029,8.630531 -8.153633,-0.450145 -8.392128,-10.982783 -8.38237,-13.593776 -3.504213,2.210541 -3.334912,7.708691 -3.076832,11.132075 0.239178,2.858981 1.006568,5.489402 2.44264,6.956195 3.554426,4.128904 8.380913,5.942952 13.31804,3.612139 3.01886,-1.478438 7.578936,-4.835779 9.871344,-7.279425 1.765023,-1.881463 1.959267,-2.220772 2.61949,-4.356626 0.392119,-1.268533 1.170135,-4.213631 1.737136,-6.562513 0.92971,-3.851332 1.507936,-5.134768 1.510914,-8.186094 L 77.683084,61.101016 76.49742,58.646967 C 75.837006,57.30491 74.804411,54.812961 74.208813,53.104677 73.23925,50.32381 73.054433,49.97587 72.471677,49.906141 z"/>
</svg>