<?xml version="1.0" encoding="UTF-8" standalone="yes"?>
<svg>
  <path style="stroke:none; fill:#000000"
    d="m 110.71069,20.267972 -0.175,-4.00375 c -0.0712,-1.61875 -0.0475,-1.90875 0.23375,-2.9 0.20875,-0.73625 0.42875,-1.54 0.98625,-2.05875 1.36,-1.26375 4.7275,-0.82625 6.28875,-1.8674998 2.24875,-1.4975 2.25,-6.645 0.52,-8.73125001 -1.83375,-2.21124999 -5.5425,1.30125001 -7.0625,3.31125001 -0.9325,1.235 -1.81625,2.65 -2.21375,4.30125 -0.185,0.765 -0.28625,1.63375 -0.43,2.3949998 l -0.70625,3.72375 -2.32987,-2.965 c -3.18925,-4.1999998 -2.21663,-5.4474998 -6.903002,-6.5899998 -1.57013,-0.3825 -4.97525,-0.24 -5.62975,1.52875 -0.51213,1.3825 0.69025,4.7474998 1.44337,5.5462498 0.57913,0.61375 2.92425,2.13875 3.893,2.2325 1.582882,0.1525 4.817252,-0.81125 4.817252,-0.81125 0,0 2.61038,3.7575 4.20525,5.52125 0.695,0.77 1.27125,1.39 2.1625,1.4075 0.36875,0.0062 0.9,-0.04 0.9,-0.04 z m 16.44875,28.666767 0.69875,-0.0125 c 0.31375,-0.005 0.3975,-0.19625 0.84125,-1.91 2.55375,-9.86 3.02,-15.30375 -3.26125,-21.62625 -1.035,-1.04125 -2.24,-1.915 -3.01625,-0.9825 -0.5275,0.63375 -1.065,5.10375 -0.825,6.08 0.42,1.70625 1.665,2.26 3.1025,3.42 3.2475,2.6175 4.06125,4.58125 3.6475,8.0675 -0.31625,2.67625 -1.1875,6.96375 -1.1875,6.96375 z M 41.994006,20.071488 41.427756,9.2577384 c -0.0838,-1.60375 -0.1175,-1.8825 -0.33125,-2.79125 -0.655,-2.78625 -2.41875,-4.31125 -4.26375,-5.29625 -2.34375,-1.25249995 -4.13375,-1.71749995 -6.55,0.045 -1.9875,1.45 -2.175,6.7 -1.39375,7.52 0.5825,0.6125 2.1275,0.5575 3.99625,0.11875 4.66875,-1.09625 5.13625,-0.84375 6.3525,4.0937496 0.5775,2.34625 0.64625,4.54375 0.3625,6.90375 -0.60375,5.01 -2.0225,7.4475 0.75625,10.38875 1.1575,1.225 2.365,1.41 5.00375,0.86625 1.875,-0.38625 2.2475,-1.25625 3.03375,-3.8525 0.5525,-1.8275 0.99,-3.465 0.84875,-5.2875 -0.28125,-3.615 -4.19,-10.41 0.52125,-12.0974996 0.86875,-0.3125 1.99875,-0.10875 2.97375,0.10375 1.31375,0.2862496 1.53625,0.1562496 2.22875,-1.2975 0.57,-1.19625 1.22875,-2.29625 1.59,-3.58375 1.360002,-4.82999995 -0.72125,-6.19375 -4.8975,-4.21499995 -4.79125,2.26999995 -6.9425,11.99499955 -5.91875,18.51499955 0.3125,2.6875 0.65625,5.1075 0.65625,5.1075 0,0 -0.28625,-0.0038 -0.6275,-0.03625 -1.34125,-0.1325 -3.645,-1.9125 -3.775,-4.39125 z m -33.8903026,0.04884 c -0.1944,-0.01612 -0.45615,0.015 -0.78125,0.0625 -0.487325,0.07062 -0.640738,0.236338 -1.46875,1.59375 -2.60895,4.275863 -6.73271303,14.430188 -5.68750003,19.625 0.4235,2.106713 2.84702503,4.93475 4.12500003,5.84375 1.277962,0.909 6.9806356,3.1279 9.9374976,0.9688 0.856526,-0.856525 1.946739,-4.541725 1.656251,-5.5625 -0.545687,-1.9126 -2.690338,-0.611275 -5.687501,-0.46875 -4.5663476,0.2199 -7.5575856,-4.921087 -6.6562476,-9.125 0.738425,-3.438325 3.243175,-7.663737 4.65625,-11.28125 0.473387,-1.212512 0.4894,-1.607962 -0.09375,-1.65625 z m 73.5723946,-5.583639 0.55997,9.87823 2.63737,48.2687 c 0,0 1.7899,-1.79365 2.86234,-3.42732 1.52117,-2.31487 1.60117,-4.30477 2.05865,-6.52715 0.35873,-1.74366 0.38248,-2.13239 0.23498,-3.89355 l -2.88734,-34.43693 -0.27499,-5.84594 c 0.28749,0.15749 0.56122,0.29998 0.81871,0.42622 l 4.44226,2.19989 -0.84745,-2.33738 c -0.0962,-0.26498 -0.19874,-0.54622 -0.30124,-0.82871 -1.23243,-3.39482 -1.91615,-6.75214 -2.73735,-10.2332102 -0.78496,-3.33232 -1.83241,-7.77083999 -1.83241,-7.77083999 0,0 -0.74121,-0.0387 -1.42492,0.0587 -1.8774,0.26874 -5.88594,6.24841999 -6.14593,7.60709999 -0.025,0.12874 -0.04,0.25749 -0.045,0.38498 -0.0113,0.28123 0.01,0.5762204 0.0575,0.8812004 0.34373,2.1898898 1.44618,4.0585398 2.82485,5.5959598 z m 61.756672,59.705306 c 0.3975,-1.35 0.87875,-2.772499 1.3675,-4.198749 2.58125,-7.51375 2.715,-7.04375 0.9125,-14.0375 -0.355,-1.37625 -0.57625,-2.6175 -0.4575,-3.28875 l 2.00125,-1.165 -3.105,-6.01125 c -1.6725,-3.45875 -4.10875,-6.996249 -4.99375,-7.539999 -0.99374,-0.60875 -1.70874,-0.12875 -2.58499,1.7275 -1.5325,3.246249 -1.5575,6.487499 -0.41375,9.255 0.41625,1.0075 0.5175,1.11875 1.01,1.11875 0,0 1.09625,0 1.09625,0 0,0 0.0788,0.832499 0.22125,2.322499 0.19625,2.06625 2.96749,6.70375 4.40749,9.4325 1.71,3.24375 2.595,5.8175 -0.24875,8.21125 l -7.46874,7.217499 c -10.97625,9.35125 -16.3575,15.39625 -28.5225,17.8375 -2.54375,0.51 -5.63625,1.012496 -5.63625,1.012496 0,0 7.83625,0.84 11.93,1.2775 9.1175,0.97625 13.04625,-2.348746 20.32625,-9.789996 4.35,-4.44625 9.16624,-10.00875 10.15874,-13.38125 z M 95.154468,37.890772 c -0.65908,-0.265951 -0.41657,-2.069684 0.53405,-3.972033 1.07798,-2.15723 1.43419,-2.508225 4.584902,-4.517846 1.3149,-0.838681 3.77464,-2.598636 5.46606,-3.91099 2.40358,-1.864915 17.96657,-11.379271 22.58126,-13.804953 2.40082,-1.261966 5.51482,-2.5764064 6.7095,-2.8321296 4.85204,-1.0385619 6.09954,-1.1044812 6.09954,-0.3223084 0,0.1564295 0.20587,0.284423 0.45747,0.284423 0.25161,0 0.45747,0.061446 0.45747,0.136601 0,0.075143 -0.67643,1.381515 -1.50318,2.903088 -2.30181,4.236339 -3.45585,5.649419 -5.3843,6.592922 -1.5825,0.774256 -1.82882,0.807191 -4.54455,0.60785 -3.4392,-0.252456 -4.08673,-0.07024 -8.84895,2.49096 -5.73389,3.083694 -10.2861,5.998505 -16.38581,10.491911 -3.23265,2.381351 -6.446402,4.717804 -7.141672,5.192106 -1.1831,0.807091 -2.18576,1.02195 -3.08179,0.660399 z m 11.664262,7.591155 -3.69557,-3.929134 3.71908,-3.69706 3.71907,-3.697072 3.90693,3.718509 3.90692,3.718497 -3.93043,3.907685 -3.93044,3.907685 -3.69556,-3.92911 z M 70.392718,91.289486 c -1.10035,-0.611959 -2.06176,-1.414387 -2.41152,-2.012737 -1.8571,-3.176981 -1.8496,-11.134732 0.017,-17.989522 0.87713,-3.221199 6.87988,-15.439264 8.24892,-16.789943 l 0.7728,-0.762445 -0.20038,1.677373 c -0.1102,0.922556 -0.52968,3.255629 -0.93216,5.184617 -1.17941,5.652724 -1.69581,10.747044 -1.37207,13.535822 0.43177,3.719351 0.72405,4.338963 2.53733,5.378944 1.80161,1.033285 2.58451,1.098387 5.16582,0.429494 4.49326,-1.164319 9.10151,-4.57448 14.95003,-11.063221 9.922842,-11.009037 14.062242,-14.620186 20.168272,-17.594458 4.57237,-2.227233 7.39203,-2.766688 10.2751,-1.965855 2.85598,0.793319 4.71324,3.259198 4.36071,5.789677 -0.20948,1.503754 -2.39008,6.794274 -3.0881,7.492295 -0.61242,0.612423 -2.12623,0.544292 -4.23467,-0.190583 -4.40446,-1.535131 -5.52691,-1.4958 -9.07346,0.317923 -5.3648,2.743579 -10.76503,7.163728 -18.940102,15.502682 -8.7419,8.917137 -12.72493,11.680218 -19.20787,13.324758 -3.95301,1.002762 -4.81479,0.970318 -7.03561,-0.264821 z M 66.473138,0.00111111 c -0.27077,0.0025 -0.62689,0.0138 -0.96875,0.0625 -1.8774,0.26874 -5.89626,6.26631999 -6.15625,7.62499999 -0.025,0.12874 -0.02635,0.24751 -0.03125,0.375 -0.0113,0.28123 -0.01615,0.57002 0.03125,0.875 0.34373,2.1898899 1.46508,4.0563299 2.84375,5.5937499 l 0.5625,9.875 1.25,20.4375 0.0312,0 c -0.003,0.02708 0.003,0.121967 0,0.125 -0.0908,0.09082 -1.25971,0.35549 -2.5625,0.5625 -1.30278,0.207009 -4.862377,0.873465 -7.90625,1.53125 -4.274649,0.923739 -6.161316,1.483182 -8.34375,2.4375 -3.520103,1.539247 -7.747737,3.778497 -8.5625,4.53125 -0.890772,0.822951 -2.973959,5.351759 -3.3125,7.21875 -0.360699,1.989101 -0.01123,3.424689 1.125,4.71875 1.299138,1.479637 5.349575,2.740281 11.1875,3.5 3.455177,0.449642 7.052063,1.243904 8.5625,1.875 2.001579,0.836317 1.810738,2.436266 -0.46875,3.59375 -9.789771,3.64333 -19.780999,8.502457 -28.25,6.65625 -6.735662,-1.477547 -9.811931,-2.802782 -12.03125,-5.25 -3.8383606,-4.232563 -5.3788396,-11.585173 -3.6561996,-17.28125 0.8258266,-2.730673 2.9556356,-9.264228 3.9687496,-11.46875 -0.751618,0.179707 -1.057329,0.817143 -4.5312496,6.59375 -4.387069,7.295028 -6.034142,11.791676 -6.25,16.90625 -0.115658,2.740691 -0.05944,3.297046 0.5,5.46875 0.342721,1.330389 0.981127,3.217291 1.4375,4.21875 1.502472,3.296961 4.311466,6.644784 6.8124996,8.09375 2.064329,1.195971 7.836821,2.862094 11.53125,3.34375 0.466652,0.06123 1.889611,0.05864 3.15625,0 7.856188,-0.84691 21.202787,-5.534129 27.78125,-10.375 1.171471,-0.925295 3.392464,-3.842305 4.375,-5.78125 1.58111,-3.12014 3.36616,-8.684276 3.375,-10.5625 0.01,-2.118334 -3.562544,-4.528864 -7.5625,-5.09375 -1.112407,-0.157099 -2.950098,-0.457191 -4.0625,-0.6875 -1.112449,-0.230299 -2.29128,-0.46892 -2.625,-0.53125 -0.369853,-0.06912 -0.625,-0.320736 -0.625,-0.625 0,-0.606743 0.916895,-0.848472 5.6875,-1.625 2.818097,-0.45872 5.387994,-1.120473 9.5,-2.375 1.67732,-2.127837 5.64937,-6.248618 7.15625,-9.25 l -1.78125,-20.90625 -0.28125,-5.84375 c 0.28749,0.15749 0.55501,0.28001 0.8125,0.40625 l 4.4375,2.21875 -0.84375,-2.34375 c -0.0962,-0.26498 -0.17875,-0.56126 -0.28125,-0.84375 -1.23243,-3.39482 -1.9288,-6.73768 -2.75,-10.2187499 -0.78496,-3.33232 -1.84375,-7.78124999 -1.84375,-7.78124999 0,0 -0.16673,-0.0025 -0.4375,0 z M 38.963378,104.36665 l -3.775971,-3.57848 3.950784,-3.715946 3.95079,-3.715934 2.716416,2.729054 2.716412,2.729067 2.755995,-2.744535 2.755994,-2.744535 3.731,3.739984 3.731,3.739985 -3.58824,3.57889 c -1.97353,1.96839 -3.72647,3.57889 -3.89539,3.57889 -0.16891,0 -1.467761,-1.16669 -2.886308,-2.59265 l -2.579196,-2.59267 -2.604717,2.59267 c -1.432595,1.42596 -2.739249,2.58861 -2.903668,2.58367 -0.16442,-0.005 -1.998129,-1.61931 -4.074901,-3.58746 z"/>
</svg>