<?xml version="1.0" encoding="UTF-8" standalone="no"?>
<svg>
    <path
       style="fill:#000000;stroke:none"
       d="m 90.67251,101.965 c 2.95375,0.0463 8.08875,-0.50875 10.07375,-0.925 8.07,-1.69125 21.6375,-9.41125 24.3775,-14.21 1.235,-2.16375 1.85375,-4.78375 2.435,-6.9525 0.325,-1.215 0.63875,-2.29 1.49375,-3.36 0.8925,-1.11625 8.11124,-5.07875 9.31125,-5.11 0.30875,-0.0075 0.56125,0.03125 0.90875,0.17625 2.86375,1.1975 4.50125,3.09375 4.16874,4.28625 -0.405,1.455 -2.705,4.36875 -3.29124,6.50125 -0.205,0.74125 -0.415,2.99875 -0.2175,3.30125 0.69625,1.0675 3.45125,-2.7125 4.21625,-4.0175 1.2775,-2.17875 2.76874,-5.17375 2.76874,-5.17375 0,0 8.64625,0.39125 13.9525,0.03125 4.03,-0.27375 9.9375,-1.475 11.72125,-2.83625 1.0125,-0.7725 3.37125,-5.38625 3.68125,-7.19875 0.905,-5.29625 -3.3325,-12.74625 -10.6375,-13.68625 -5.77125,-0.74375 -10.51375,7.22625 -15.86625,13.34625 -0.97749,1.1175 -1.17125,1.225 -1.94375,1.07625 -0.5725,-0.11 -1.10999,-0.27625 -1.62875,-0.615 -1.6275,-1.0625 -3.0825,-3.8275 -4.24875,-4.04875 -0.2975,-0.0575 -0.57625,0.05125 -0.90249,0.22125 -1.15001,0.59625 -2.895,1.94625 -4.76,2.90125 -2.40876,1.2325 -6.92375,2.54375 -7.8475,2.06 -0.86875,-0.45375 -1.82001,-3.23125 -2.93126,-5.44625 -3.9075,-7.78125 -10.88,-9.82375 -15.435,-2.47875 -2.02125,3.2575 -3.6425,11.4725 -1.4,14.3175 1.4175,1.79625 3.77875,3.01 5.60875,3.2 5.7325,0.5975 13.46001,-2.27875 11.24251,1.64 -2.25125,3.97625 -15.43375,11.25 -17.92251,12.495 -2.56749,1.28375 -6.3375,2.97875 -10.49374,4.62125 -14.77,5.8375 -25.33125,5.5875 -6.43375,5.88375 z M 170.95875,68.09 153.9225,68.3875 c 0,0 0.1175,-0.64 0.285,-1.2 0.68875,-2.2975 4.8175,-5.76125 6.11,-6.31875 1.79375,-0.77625 4.50875,0.4125 7.055,1.77875 1.355,0.7275 3.45875,3.16125 3.56375,4.12375 0.0675,0.61375 0.0225,1.31875 0.0225,1.31875 z M 120.95,68.9625 c 0,0 -1.755,0.14125 -3.07749,0.05375 -1.92501,-0.12625 -5.49751,-1.5375 -5.77,-3.01 -0.135,-0.7325 -0.0312,-1.83625 -0.0312,-1.83625 0,0 2.84875,-0.2025 4.46625,0.22875 0.34,0.09125 4.20125,2.45875 4.39,3.245 0.13,0.54625 0.0225,1.31875 0.0225,1.31875 z m -97.517502,31.65125 c 4.778762,1.0575 9.80125,1.42375 14.893762,1.3425 3.216237,-0.0512 6.06,-0.24125 7.86625,-0.4175 14.4825,-1.41625 24.024988,-4.92625 36.638738,-9.71 1.52125,-0.57625 2.809999,-1.08625 3.91625,-1.60125 6.0125,-2.795 8.31875,-11.985 10.87125,-17.44125 0.20375,-0.43625 0.36875,-0.88375 0.475,-1.355 0.42375,-1.88 -0.12,-4.225 -0.42625,-6.31625 -0.21625,-1.47 -0.18125,-1.64375 0.3475,-1.72875 1.25875,-0.20375 1.6675,-0.52375 1.0225,-1.86375 -0.6625,-1.3775 -2.02875,-2.6275 -2.7925,-4.285 -1.1725,-2.55 -1.169988,-6.35625 -3.295,-4.89 -0.81,0.55875 -2.78875,4.02125 -3.02125,5.17625 -0.1825,0.90625 -0.0325,1.89375 0.27125,2.89375 0.4625,1.52375 1.28125,3.075 1.50875,4.58375 0.1925,1.28125 -0.04,2.5325 0.0675,3.86875 0.33625,4.185 3.0675,7.53875 1.82375,10.04 -1.4075,2.8325 -18.2825,8.3525 -20.182501,8.96 -9.677499,3.0925 -22.052499,5.68 -31.759999,6.08875 -15.85375,0.66875 -32.3775005,-6.39125 -39.0200005,-12.56 -1.4,-1.3 -2.6375,-2.56375 -2.6375,-2.56375 0,0 0.23125,2.02375 0.44875,3.92375 1.5225,13.32 23.4449995,17.9575 22.9837495,17.855 z M 105.8,15.08 109.0975,15.0225 105.25,0 c 0,0 -2.53,2.315 -3.99124,3.67875 -1.696262,1.585 -1.95,1.8875 -1.9325,2.71875 0.0475,2.13125 1.89124,7.7375 2.32374,13.06625 0.42626,5.2475 -0.51625,10.2275 0.0775,14.2125 0.5225,3.50875 2.2375,6.325 2.40375,11.7775 0.055,1.77375 -0.05,3.83375 -0.16751,5.43875 l -0.56375,3.86375 1.6425,-1.1825 c 0.22126,-0.07875 0.415,-0.365 0.57626,-0.775 C 110.765,39.67625 107.725,40.42625 106.05125,27.2 106.035,27.075 106.02,26.9475 106.005,26.8175 105.45,21.9575 105.8,15.08 105.8,15.08 z m 82.86,64.3725 c 2.71876,-5.59625 5.92501,-11.125 5.08876,-14.60875 -0.54875,-2.2875 -2.16625,-7.055 -2.16625,-7.055 0,0 1.85875,-0.06875 2.52125,-0.46875 0.53874,-0.32625 0.2875,-0.87125 -0.0275,-1.525 -1.30625,-2.715 -3.71251,-7.3075 -5.2425,-9.63 -0.7725,-1.1725 -1.81126,-1.125 -2.59125,0.03625 -2.3075,3.435 -4.29875,6.565 -2.1075,9.32625 0.8175,1.03 2.11375,1.66375 2.79625,2.7 1.1425,1.735 0.56375,4.59625 1.22375,7.125 0.45375,1.7375 1.3225,3.03875 1.86625,4.22625 l 0.9975,2.1725 -1.54875,2.06375 c -0.59,0.7875 -1.3775,1.63125 -2.17875,2.41875 -1.2475,1.22625 -2.085,1.995 -2.64125,2.43375 l 0.0312,0.07625 c -2.465,2.32875 -4.65125,4.38 -4.82125,4.48875 -3.67125,2.3525 -10.50625,6.71125 -15.425,8.92125 -5.9325,2.665 -11.35,3.5675 -18.56,7.47 -1.87375,1.01375 -3.9425,2.24 -3.9425,2.24 0,0 7.2775,0.08 9.435,0.10375 3.18375,0.0337 11.855,-1.3675 15.3675,-2.97125 0.23625,-0.1075 0.47,-0.21625 0.7025,-0.3275 13.735,-6.51 16.30625,-9.10125 21.2225,-19.21625 z m -97.445002,-43.54625 -6.595001,6.59625 6.595001,6.595 6.59625,-6.595 -6.59625,-6.59625 z m 59.606252,0 -6.59625,6.59625 6.59625,6.595 6.595,-6.595 -6.595,-6.59625 z" />
</svg>
