<?xml version="1.0" encoding="UTF-8" standalone="no"?>
<svg>
  <path
     style="stroke:none; fill:#000000"
     d="m 23.624022,78.74869 c -4.18874,-0.3675 -11.97624,-1.68875 -13.8737303,-6.43374 -1.9625,-4.90625 -3.04625,-8.93375 -2.4875,-11.53625 -2.59,3.76875 -7.59874998,11.065 -7.24499998,14.42999 0.1725,1.6325 1.01749998,3.6575 2.30874998,5.655 2.37375,3.675 10.5799903,18.01748 42.1862203,2.2475 2.28499,-2.52875 4.86749,-9.35125 5.21374,-10.50499 1.005,-3.35 1.2275,-6.1175 1.30875,-9.98125 0.17625,-8.44749 -0.33,-22.13498 -0.76375,-31.73247 -0.0875,-1.93125 -1.90875,-15.81749 3.005,-8.56749 0.335,0.49375 0.66625,1.05 0.99,1.64625 3.81,7.02124 5.56999,13.49998 5.44374,21.46123 -0.0263,1.60875 -2.11749,18.18998 3.8025,0.27625 0.1025,-0.3125 0.19875,-0.62 0.28625,-0.92125 2.9225,-10.03624 1.5125,-15.67374 -2.22625,-26.07998 -0.96875,-2.69625 -1.84375,-4.89375 -3.99249,-7.95624 C 54.452752,6.2925 48.626502,0 48.626502,0 c 0,0 -3.54624,4.53375 -5.11874,7.47875 -2.37875,4.45499 -0.17125,6.74499 0.9825,12.19999 1.275,6.03374 0.0537,15.50874 0.65375,23.14498 0.26375,3.355 0.915,6.52374 0.91625,9.81624 0.002,3 -0.53375,6.1025 -0.52625,8.95624 0.006,1.79625 0.21625,3.62375 0.275,5.32625 0,0 0.19625,5.6575 0.19625,5.6575 0,0 -0.87625,0.3525 -1.87875,0.75499 -6.6125,2.66125 -13.48124,4.39875 -20.50249,5.41375 z m 76.883688,-48.19996 -5.801238,5.76374 c -0.96375,0.9575 -1.10125,1.13 -1.37125,1.71875 -0.3775,0.82625 -0.5075,2.2075 -0.3225,2.395 0.60125,0.60625 2.72499,-0.865 3.46499,-1.41125 6.476248,-4.77499 9.426248,-7.78374 10.473748,-13.96874 0.5325,-3.14374 -1.1325,-4.35999 -4.0775,-4.76124 -4.672498,-0.63625 -9.309988,0.015 -11.124988,3.5325 0.28375,13.43248 0.6825,5.75124 4.64499,4.79749 4.407498,-1.06 9.147498,-3.41625 4.113748,1.93375 z m -22.673728,59.60495 4.9675,4.9675 7.91374,-7.915 -7.91374,-7.91499 -4.9675,4.9675 -4.9675,-4.9675 -7.91499,7.91499 7.91499,7.915 4.9675,-4.9675 z m 2.10375,-57.05745 -7.91375,7.91374 7.91375,7.91499 7.91499,-7.91499 -7.91499,-7.91374 z m 54.578698,46.59371 c 1.71125,-3.81625 3.99875,-13.99749 4.09125,-14.75999 0.10375,-0.8525 0.12,-1.5875 -0.0775,-2.7375 -0.2,-1.17125 -0.62375,-2.77124 -1.005,-4.10499 l -0.69375,-2.425 2.1425,-0.38625 c 0.9575,-0.17125 1.6525,-0.37125 2.135,-0.59375 l 1.9875,-0.915 -2.69375,-2.06125 c -0.73875,-0.55 -1.18375,-0.8625 -1.59125,-1.1675 -5.71375,-3.76624 -5.40625,-20.37998 -10.44874,-9.56374 -1.1375,2.08125 -2.3875,4.715 -2.565,6.50125 -0.2275,2.27749 3.79375,7.30374 4.765,11.14624 0.305,1.205 0.28625,2.52749 0.655,3.92749 0.5175,1.96625 1.79874,4.08625 2.95999,5.995 l 1.4,2.30375 -3.3775,2.82874 c -1.06999,0.89375 -8.92249,6.5925 -15.82623,11.59124 -4.67875,2.4975 -10.83749,5.28625 -12.97499,5.75375 -9.556238,2.095 -25.654978,2.4775 -28.182478,3.94625 -0.47625,0.2775 -0.92125,0.58625 -1.495,0.99 -0.33625,0.23625 -0.7175,0.50625 -1.1275,0.65875 -0.55125,0.2075 -0.6125,0.26625 -0.6125,0.58 l 0,0.69874 c 0,0 4.83,-0.85249 8.64,-0.65499 4.09624,0.21124 11.10624,4.89874 15.57748,5.23624 2.48875,0.1875 9.307498,-2.1625 14.978738,-4.67625 6.69625,-2.96999 20.17124,-11.05249 23.33873,-18.11123 z m -91.966168,22.33623 c 2.845,-1.33 6.49124,-4.44 8.15749,-6.55874 2.915,-3.70625 4.825,-9.04 7.5275,-13.41749 2.15624,-3.4925 10.88124,-15.52999 16.99248,-14.83124 0.8125,0.0925 0.91375,0.23625 1.00625,1.44 0.365,4.71874 3.93375,8.12749 6.97125,9.94624 5.64874,3.3825 9.34874,2.90875 16.26748,1.48125 3.614998,-0.74625 7.601248,-1.845 8.951238,-2.985 1.1075,-0.935 4.5975,-9.15749 4.79375,-11.29749 0.31625,-3.4375 -0.475,-17.22874 -3.665,-18.77248 -2.41499,-1.16875 -4.34374,4.84249 -4.84374,8.63999 -0.32375,2.455 0.0213,2.695 1.4325,5.21374 1.285,2.29625 2.30874,5.9325 1.83999,6.69875 -0.98624,1.6125 -11.782488,2.58 -13.746228,2.35625 -3.66,-0.41625 -6.755,-1.64 -9.13375,-3.685 -4.82874,-4.15375 -4.03624,-7.65124 -4.73999,-9.22749 -0.955,-2.14375 -3.74125,-4.89625 -10.31749,-0.52375 -3.89,2.58625 -7.565,6.79124 -9.845,10.16374 -3.52624,5.21375 -5.96749,11.33124 -9.81874,16.03624 -1.8275,2.23375 -5.39624,6.08874 -7.63124,6.87249 -0.14875,0.0525 -0.30375,0.1 -0.4625,0.14375 -0.33375,0.0925 -0.9075,0.2 -1.5675,0.26375 -2.1725,-0.05 -3.75,-0.93375 -4.88125,-2.3575 -6.01624,-7.56624 -2.62124,-26.00873 -2.22874,-30.09247 -0.4975,-1.86 -1.48875,-0.19625 -3.57375,9.30124 -2.48375,11.32249 -1.365,19.62623 0.4975,25.13623 1.955,5.77999 7.16124,12.32624 12.01749,10.05499 z m 29.43122,-77.48119 c -0.1075,0.64625 -0.3075,2.13625 0,2.61875 0.25,0.39375 0.8375,0.1175 1.43375,-0.27125 2.34,-1.5225 5.25125,-5.32874 7.88875,-8.34374 2.18124,-2.49375 4.31374,-4.53625 7.04124,-6.1125 3.72375,-2.15249 9.47249,-5.03749 10.14499,-6.21874 0.25375,-0.44375 1.509998,-5.2325 0.9825,-5.89 -0.9875,-1.22874 -4.91124,1.3225 -6.45749,2.41375 -6.41625,4.52875 -19.55124,12.90249 -21.03374,21.80373 z" />
</svg>
