<?xml version="1.0" encoding="UTF-8" standalone="no"?>
<svg>
    <path
       style="fill:#000000;stroke:none"
       d="m 139.4327,75.931633 c -7.36626,6.04626 -29.88628,11.32502 -34.95129,12.62502 -0.11375,0.0288 -0.22875,0.0588 -0.3425,0.0875 -22.400034,5.72876 -6.378764,3.36251 0.99875,4.40626 10.85251,1.53625 5.09001,4.19875 16.12502,0.2275 3.12375,-1.12375 6.01876,-2.46876 7.82626,-3.30251 3.54501,-1.6325 7.25876,-3.48375 10.25376,-5.775 l 12.92502,-10.49502 c 1.34375,-0.9625 2.69625,-1.9875 3.67751,-3.11875 1.125,-1.295 4.29375,-13.56002 3.04125,-18.21253 -0.61625,-2.2925 -1.4375,-2.9225 -1.445,-5.02125 -0.002,-0.5375 0.035,-1.23625 0.05,-1.505 6.26001,1.1175 7.21251,2.35875 6.06501,1.1925 -13.83377,-14.41377 -5.11876,-22.82878 -14.39127,-15.32002 -2.93126,4.09625 -4.19501,8.13001 -0.77625,12.42001 0.28125,0.355 0.57125,0.60625 0.75625,0.94001 0.44,0.78875 0.3075,2.03625 0.46875,3.3725 0.83875,6.93126 6.41876,11.77001 4.91375,14.54002 -0.83,1.52625 -4.34125,4.62375 -6.96376,6.81376 l -8.23126,6.125 z M 13.921286,64.160373 c 0,0 0.0975,1.7825 0.26625,4.88626 0.37125,6.80125 2.44501,21.79877 11.60002,24.24003 0.945,0.25125 1.8575,0.12 2.6925,-0.54 4.64876,-3.66876 8.77876,-17.12253 11.50252,-22.76753 0.6525,-1.35125 1.3175,-2.39751 3.1,-3.67376 1.70125,-1.2175 4.46001,-2.7075 4.46001,-2.7075 0,0 0.89625,2.18875 1.4025,3.875 2.0175,6.70876 0.5625,8.24376 7.71501,11.12377 3.78375,1.52375 5.1,0.82 12.22626,-0.855 2.25001,-0.5275 4.96626,-1.46625 6.03126,-2.49001 0.68,-0.655 1.22,-1.285 1.66875,-1.85375 l 2.44626,-3.10125 3.6275,2.68875 c 0.485,0.35875 0.985,0.7 1.4875,0.9675 1.34,0.7125 3.58001,1.205 4.72001,0.975 1.355,-0.2725 2.9175,-1.42625 4.3275,-2.3625 l 2.62501,-1.74375 2.5075,1.26 c 1.635,0.82125 3.643764,2.04 3.643764,2.04 l -0.2175,6.23126 c 0,0 1.475,-2.145 2.35625,-3.375 0.35,-0.48625 0.60625,-0.83 0.7925,-1.30626 0.2525,-0.6425 0.4425,-0.70875 1.9,-0.6575 0,0 4.04126,0.14125 6.66376,0.2325 4.71126,0.165 22.32878,-1.58625 24.97003,-4.70875 0.335,-0.395 0.6925,-0.845 1.035,-1.28625 0.585,-0.75875 1.02376,-1.50001 1.35251,-1.91376 l 3.2625,-7.03376 -0.004,-0.0713 -1.975,-7.40875 c -0.14625,-0.60251 -0.46875,-1.54751 -1.5625,-2.47876 -0.88001,-0.74875 -1.71251,-1.70125 -2.20126,-2.1925 -0.45,-0.45375 -0.91125,-0.89 -1.38375,-1.26125 -3.1275,-2.45876 -8.98626,-3.64501 -12.14501,-3.12501 -1.81501,0.2975 -3.34751,1.05875 -4.57376,2.27126 -3.71626,3.6725 -11.52127,17.84877 -12.87877,18.19002 -0.74125,0.18625 -2.525,0.009 -3.9325,-0.9475 -2.12125,-1.4425 -2.91751,-3.41876 -4.290014,-2.85001 -0.8575,0.35501 -1.6525,1.67876 -2.725,2.60501 -2.90376,2.50625 -7.50626,2.17125 -10.26251,-0.0888 l -3.62001,-3.30251 -2.095,2.32751 c -0.4475,0.4975 -0.89375,0.975 -1.2675,1.33875 -2.37126,2.31125 -7.39376,4.41125 -9.77002,4.99501 -3.5425,0.87 -10.55251,0.515 -13.60876,-2.36626 -0.93125,-0.87875 -2.10626,-2.6975 -2.72376,-4.20625 -2.28,-5.57251 -1.22375,-8.63001 -4.8575,-7.67501 -8.34251,2.19375 -11.79377,13.53001 -16.02752,22.67253 -2.03126,4.38625 -3.93876,6.36625 -6.12126,5.7575 -4.27501,-1.1925 -8.81751,-11.63751 -10.42127,-14.95127 -1.2775,-2.49125 -1.71875,-3.37625 -1.71875,-3.37625 z m 122.797664,-0.91875 c -0.0575,0.0188 -0.1175,0.0387 -0.17875,0.0587 -3.0825,1.015 -20.29003,2.49375 -22.90753,1.67625 -0.11625,-0.0362 -0.2325,-0.0738 -0.35,-0.1125 -1.38625,-0.46 -1.545,-0.56625 -1.5825,-1.06 -0.22,-2.835 4.81875,-8.14751 6.63001,-9.45876 5.07625,-3.67376 12.56876,-0.13125 17.59377,4.44625 1.3625,1.2425 3.29875,3.61376 0.795,4.45001 z m -71.605094,-14.31377 -6.52876,6.52876 6.52876,6.53001 6.52876,-6.53001 -6.52876,-6.52876 z m 51.668814,-24.57128 -6.53,6.52876 6.53,6.53001 6.52876,-6.53001 -6.52876,-6.52876 z m -51.668814,65.91383 5.0875,5.08751 6.53001,-6.52876 -6.53001,-6.52876 -5.0875,5.08751 -5.08751,-5.08751 -6.52876,6.52876 6.52876,6.52876 5.08751,-5.08751 z m 33.55504,-43.19255 c 0.20375,2.80125 1.510004,4.5425 3.887514,5.045 3.06625,0.64876 4.8,-1.01375 5.58625,-4.3775 0.1725,-0.73875 0.13375,-1.35375 -0.34125,-1.65 -0.90375,-0.565 -3.385,0.0213 -4.58375,-0.61625 -1.4925,-0.79251 -1.87125,-4.16126 -1.5025,-5.73626 0.36875,-1.5775 1.31125,-3.26626 1.5675,-4.48126 0.0525,-0.245 0.0763,-0.4725 -0.0312,-0.59875 -0.0137,-0.0162 -0.0275,-0.0312 -0.0412,-0.045 -3.608764,-0.8225 -4.486264,13.21627 -4.541264,12.46002 z m -8.48626,-4.14751 c -0.0525,-1.39625 -0.21,-3.14875 -0.66875,-3.58875 -0.265,-0.25625 -0.6325,-0.07 -0.8625,-0.20875 -1.035,-0.62125 0.72625,-3.18501 1.565,-4.16501 7.61876,-8.89251 27.361294,-19.93252 37.792554,-22.21753 0.99375,-0.2175 1.9875,-0.3925 2.175,-0.0563 0.0937,0.1675 -0.0125,0.46125 -0.1725,0.7925 -0.37625,0.78001 -0.98,1.72251 -1.65,2.73376 -13.89127,20.97753 8.02126,-8.13376 14.23877,-8.95251 0.56875,-0.28 1.10375,-0.50625 1.57625,-0.655 2.42,-0.76251 5.04001,-0.92376 5.35876,-3.24376 0.0437,-0.325 0.0512,-0.73 0.04,-1.12375 -0.10625,-3.8 -6.30626,-1.98250002 -10.67627,-0.32 -4.04375,1.53875 -10.04876,4.0725 -16.41877,7.02001 -8.24251,3.81375 -32.921294,15.26127 -36.393794,25.20253 -1.12001,3.20376 -0.91126,6.79376 1.31875,9.88126 0.0962,0.1325 0.1825,0.2525 0.2625,0.36 -1.0075,-1.3675 2.73,4.38251 2.515,-1.45875 z m 9.45251,-22.66253 -0.175,-4.005 c -0.07,-1.61875 -0.0462,-1.90875 0.23375,-2.90001 0.20875,-0.735 0.428754,-1.54 0.987504,-2.05875 1.36001,-1.2625 4.72751,-0.82625 6.28876,-1.8675 2.24751,-1.4975 2.25001,-6.64501 0.51875,-8.73001002 -1.83375,-2.21249998 -5.5425,1.30000002 -7.06126,3.31125002 -0.933754,1.23375 -1.817504,2.64876 -2.215004,4.30001 -0.18375,0.765 -0.28625,1.63375 -0.43,2.395 l -0.705,3.72376 -2.33125,-2.96501 c -3.18876,-4.2 -2.21626,-5.44751 -6.90251,-6.59001 -1.57,-0.3825 -4.97501,-0.24 -5.63001,1.52876 -0.51125,1.3825 0.69,4.7475 1.44375,5.54625 0.57875,0.61375 2.92376,2.13876 3.89251,2.23251 1.58375,0.1525 4.8175,-0.81126 4.8175,-0.81126 0,0 2.61001,3.75751 4.20501,5.52126 0.69625,0.77 1.27125,1.39125 2.16375,1.4075 0.36875,0.007 0.89875,-0.0387 0.89875,-0.0387 z m -83.2351,61.22633 c 0.725,-0.9325 1.5825,-2.0875 2.65125,-3.55 1.91125,-2.61251 3.0725,-4.93876 3.64375,-6.38126 l 1.06251,-2.68125 2.71625,-0.63875 c 2.26375,-0.53376 4.90125,-0.65251 6.35126,-1.93001 0.20625,-0.18125 3.21125,-6.27376 2.5725,-8.83751 -0.39,-1.57 -3.02375,-4.85251 -3.895,-5.53501 -2.93126,-2.295 -9.26752,-4.875 -9.26752,-4.875 0,0 -0.91875,1.3225 -1.96875,3.135 -6.65626,11.49377 -4.61251,13.99627 -1.29375,16.55377 1.2725,1.02625 2.0125,2.29626 1.76125,3.14626 -0.065,0.22125 -0.195,0.4925 -0.37375,0.79875 -12.3162705,17.22002 -24.2162805,21.84628 -19.1725205,20.80878 6.245,-1.28501 14.1775105,-8.68252 15.2125205,-10.01377 z m 2.9175,-20.73252 c -0.505,-0.29625 -0.83,-0.53626 -0.8325,-0.55126 -0.14,-0.6675 0.075,-2.15875 0.075,-2.15875 0,0 2.305,0.0812 3.11,0.10875 0.56,0.02 0.81625,0.71375 0.92625,1.34125 0.7025,3.99126 -3.05125,1.39376 -3.27875,1.26001 z m 5.67501,1.2425 0.1725,-1.11875 c 0.19375,-1.25126 0.17125,-2.69126 -0.0925,-3.78626 -0.002,-0.0125 -0.006,-0.0263 -0.009,-0.04 0,0 0.025,-0.72 0.025,-0.72 0,0 0.29875,-0.0275 0.6925,-0.0213 1.25,0.0188 2.8725,1.125 3.7725,1.9475 1.4075,1.28875 2.24001,3.39126 -0.415,3.52626 -0.95625,0.0487 -2.14625,0.11 -2.9775,0.1525 l -1.16875,0.06 z" />
</svg>
