<?xml version="1.0" encoding="UTF-8" standalone="yes"?>
<svg xmlns="http://www.w3.org/2000/svg" xmlns:xlink="http://www.w3.org/1999/xlink"
  width="595.276pt" height="841.89pt" viewBox="0 0 595.276 841.89">
  <path style="stroke:none; fill:#000000"
    d="m 17.532964,24.017315 c 0.01429,-0.278914 0.0232,-0.529165 0.02752,-0.723193 0.0441,-1.705456 -1.213773,-1.352679 -2.309587,-0.724295 -1.981054,1.135501 -3.656418,2.700949 -6.1861534,2.218085 C 8.1390323,24.611524 7.3966582,24.111021 6.6829472,23.418697 0.33914268,17.271567 1.9485755,13.004068 6.3011772,6.3939186 7.4213525,4.6928723 8.8977223,2.3215585 9.0327696,1.3833923 9.6845236,-3.1387671 4.3622287,5.0247031 5.6221919,3.2773636 4.4472259,4.9067433 2.9437364,7.1115992 2.0374312,8.9030451 0.46327608,12.014088 -0.55746111,17.935229 0.32789788,21.395741 1.1507493,24.611524 3.3848169,28.431428 6.1144259,29.57685 c 0.9607651,0.403489 1.945893,0.618463 2.9151467,0.676891 2.7853884,0.169774 8.2762474,-1.777114 8.5033474,-6.236426 z m -5.595915,9.034388 c 0,0 -1.428526,0.665867 -1.428526,0.665867 -5.5403567,9.884351 -9.2080199,15.998417 -9.1250071,25.794574 0.089407,10.544715 6.0480231,18.274931 16.4967131,19.188844 7.045608,0.616257 16.555143,-0.199539 22.250277,-3.78684 2.709768,-1.705447 5.201256,-4.64452 5.32142,-7.298064 0.0044,-0.0915 0.01103,-0.181901 0.02425,-0.271198 0.143306,-0.986673 1.023044,-1.877426 1.524649,-3.087892 0.437664,-1.056126 0.587594,-2.354786 0.9536,-2.972145 0.468532,-0.788236 1.019746,-0.897377 -0.288836,-2.829933 -0.582082,-0.859885 -1.471742,-1.600717 -2.204847,-2.294144 -2.250056,-2.133198 -5.303781,-2.889464 -8.721299,-2.958917 -4.221197,-0.08599 -4.053628,0.619565 -8.112759,-0.594208 -1.038487,-0.309782 -1.669076,-0.498298 -1.669076,-0.498298 -0.157647,-0.01543 -0.319704,-0.04516 -0.433254,-0.10473 -0.102526,-0.05186 -0.167569,-0.12678 -0.201744,-0.217179 -0.360494,-0.922732 2.330532,-4.21788 2.829932,-4.657749 2.108936,-1.858694 5.695134,-4.392064 7.729114,-5.735924 2.84205,-1.878537 7.804079,-4.247655 10.492892,-2.425341 0.507117,0.343957 0.866508,0.588696 0.866508,0.588696 0,0 -0.116857,0.569955 -0.143315,1.032975 -0.04745,0.818002 0.489478,1.6801 0.950292,1.584189 0.76729,-0.157647 2.355889,-3.857395 2.899386,-5.890273 1.210466,-4.529867 -1.175188,-7.560442 -5.43497,-6.643222 -3.392162,0.729808 -9.149032,3.988585 -11.524764,5.906801 -4.741543,3.825425 -11.799278,11.869833 -12.246864,17.2166 -0.214973,2.574169 0,6.266191 0,6.266191 0,0 1.383547,1.181803 2.933561,2.129891 2.963326,1.812392 10.54692,0.627282 13.056037,1.444181 3.12869,1.019746 6.201157,2.637008 6.201157,2.637008 0,0 -2.817806,1.545595 -5.190231,2.708656 -6.055628,2.965531 -18.357604,5.341264 -24.98981,2.135403 C 5.6694199,65.69456 3.6971789,54.029779 6.8178182,44.473942 c 0.7799669,-2.38785 2.5191584,-5.931054 4.1046618,-9.298971 0.336576,-0.715467 0.675127,-1.466221 1.014569,-2.123268 z m 2.937585,57.406862 4.890036,4.891464 7.038994,-7.038991 -7.038994,-7.03789 -4.890036,4.89036 -4.8905814,-4.89036 -7.038333,7.03789 7.038333,7.038991 4.8905814,-4.891464 z M 30.661761,19.276884 30.117162,8.8909184 C 30.036641,7.3497237 30.004714,7.0818337 29.799672,6.2098132 29.170185,3.5342293 27.475753,2.0691025 25.705254,1.1232193 c -2.25226,-1.20385123 -3.970937,-1.65033456 -6.29265,0.042951 -1.908303,1.3923665 -2.087999,6.4348633 -1.338348,7.2230993 0.560034,0.5875945 2.043902,0.534678 3.838655,0.1135501 4.483565,-1.0528188 4.933356,-0.8102846 6.100827,3.9312493 0.555624,2.253363 0.620667,4.364512 0.348367,6.631104 -0.579877,4.81209 -1.942478,7.153647 0.727603,9.979161 1.110136,1.175188 2.270993,1.352679 4.805475,0.83123 1.800265,-0.370415 2.157451,-1.207158 2.912614,-3.700842 0.531371,-1.755065 0.951387,-3.327127 0.815797,-5.077783 -0.270095,-3.471537 -4.024965,-9.999004 0.500494,-11.6195726 0.834537,-0.2998604 1.920429,-0.1047306 2.85639,0.099218 1.26228,0.275607 1.476151,0.1510327 2.140916,-1.245744 0.546804,-1.14873 1.178495,-2.204856 1.526862,-3.4417801 C 45.953522,0.25005236 43.954829,-1.0596321 39.944196,0.84095366 35.342671,3.0204538 33.275618,12.361309 34.258984,18.6231 c 0.300963,2.581877 0.630589,4.905795 0.630589,4.905795 0,0 -0.274505,-0.0035 -0.601926,-0.03528 -1.288738,-0.12678 -3.501311,-1.836645 -3.625886,-4.216779 z m 48.380378,30.398355 -6.10093,6.06093 c -1.0137,1.00745 -1.15869,1.18869 -1.44242,1.80866 -0.39748,0.8687 -0.53498,2.32113 -0.33874,2.51862 0.63122,0.63746 2.8661,-0.90996 3.64356,-1.48368 6.81089,-5.02348 9.91323,-8.18706 11.01442,-14.69047 0.55997,-3.30608 -1.18994,-4.58601 -4.28852,-5.00724 -4.91349,-0.66996 -9.78949,0.015 -11.69939,3.71481 0.29874,14.1255 0.71747,6.04718 4.88475,5.04473 4.636,-1.11494 9.62074,-3.59356 4.32727,2.03364 z m 35.747351,-14.584919 -6.10093,6.06093 c -1.0137,1.00745 -1.15869,1.18869 -1.44242,1.80866 -0.39748,0.8687 -0.53498,2.32113 -0.33874,2.51862 0.63122,0.63746 2.8661,-0.90996 3.64356,-1.48368 6.81089,-5.02348 9.91323,-8.18706 11.01442,-14.69047 0.55997,-3.30608 -1.18994,-4.58601 -4.28852,-5.00724 -4.91349,-0.66996 -9.78949,0.015 -11.69939,3.71481 0.29874,14.1255 0.71747,6.04718 4.88475,5.04473 4.636,-1.11494 9.62074,-3.59356 4.32727,2.03364 z m -42.81605,-13.570501 -0.175,-4.00375 c -0.07125,-1.61875 -0.0475,-1.90875 0.23375,-2.9 0.20875,-0.73625 0.42875,-1.54 0.98625,-2.05875 1.36,-1.26375 4.7275,-0.82625 6.28875,-1.8675 2.24875,-1.4974996 2.25,-6.6449996 0.52,-8.7312496 -1.83375,-2.21125003 -5.5425,1.30125 -7.0625,3.31125 -0.9325,1.235 -1.81625,2.65 -2.21375,4.30125 -0.185,0.7649996 -0.28625,1.6337496 -0.43,2.3949996 l -0.70625,3.72375 -2.329875,-2.965 c -3.18925,-4.1999996 -2.216625,-5.4474996 -6.903,-6.5899996 -1.570125,-0.3825 -4.97525,-0.24 -5.62975,1.52875 -0.512125,1.3825 0.69025,4.7474996 1.443375,5.5462496 0.579125,0.61375 2.92425,2.13875 3.893,2.2325 1.582875,0.1525 4.81725,-0.81125 4.81725,-0.81125 0,0 2.610375,3.7575 4.20525,5.52125 0.695,0.77 1.27125,1.39 2.1625,1.4075 0.36875,0.0062 0.9,-0.04 0.9,-0.04 z m 18.44875,28.62375 0.69875,-0.0125 c 0.31375,-0.005 0.3975,-0.19625 0.84125,-1.91 2.55375,-9.86 3.02,-15.30375 -3.26125,-21.62625 -1.035,-1.04125 -2.24,-1.915 -3.01625,-0.9825 -0.5275,0.63375 -1.065,5.10375 -0.825,6.08 0.42,1.70625 1.665,2.26 3.1025,3.42 3.2475,2.6175 4.06125,4.58125 3.6475,8.0675 -0.31625,2.67625 -1.1875,6.96375 -1.1875,6.96375 z m -27.90225,-5.96 c -0.0515,-1.39625 -0.209,-3.14875 -0.667625,-3.58875 -0.265875,-0.25625 -0.632875,-0.07125 -0.863125,-0.20875 -1.035375,-0.62125 0.725875,-3.185 1.565125,-4.165 7.617875,-8.8925 27.360375,-19.9325 37.791625,-22.2175 0.995,-0.2175 1.9875,-0.3925 2.17625,-0.05625 0.0925,0.1675 -0.0125,0.46125 -0.1725,0.7925 -0.3775,0.78 -0.98,1.7225 -1.65,2.73375 -13.89125,20.9775 8.02125,-8.1337496 14.23875,-8.9524996 0.56875,-0.28 1.1025,-0.50625 1.57625,-0.65625 2.41875,-0.76125 5.04,-0.9225 5.3575,-3.2425 0.045,-0.325 0.0513,-0.73125 0.04,-1.12375 -0.105,-3.80000003 -6.305,-1.9825 -10.675,-0.32 -4.045,1.5375 -10.05,4.0725 -16.42,7.0199996 -8.2425,3.81375 -32.920875,15.26 -36.3935,25.2025 -1.119,3.20375 -0.911,6.79375 1.31975,9.88125 0.09563,0.1325 0.1825,0.2525 0.26175,0.36 -1.007,-1.3675 2.73,4.3825 2.51475,-1.45875 z m 15.804143,47.707215 -3.455243,-3.459244 3.459247,-3.455246 3.459247,-3.455246 3.455242,3.459256 3.455243,3.459244 -3.459247,3.455235 -3.459247,3.455246 -3.455242,-3.459245 z M 105.2079,69.524735 c 1.22935,-0.18125 2.73809,-0.48744 3.35277,-0.68041 0.61467,-0.19298 1.54313,-0.43984 2.06324,-0.54859 0.52011,-0.10875 1.30763,-0.35111 1.75004,-0.53858 2.162,-0.91614 1.37651,-3.88773 -1.23896,-4.68715 -1.30548,-0.39901 -3.33084,-0.5194 -4.70687,-0.27978 -1.26456,0.22022 -3.5999,1.23496 -5.0888,2.21118 -0.52011,0.34101 -1.23112,0.80618 -1.58002,1.0337 -0.34891,0.22752 -0.90985,0.76727 -1.24655,1.19943 -0.5072,0.65102 -0.61217,0.92709 -0.61217,1.60999 l 0,0.82424 1.33251,0.0586 c 3.09691,0.13619 3.85003,0.11065 5.97481,-0.20263 z M 15.720208,103.99123 c -0.226378,-0.27277 -0.208748,-0.3396 0.172041,-0.65211 0.43835,-0.35976 2.926756,-1.59303 5.926247,-2.9371 9.642948,-4.320975 16.269259,-7.825465 22.725879,-12.019145 4.64497,-3.01699 8.295325,-6.4914 9.269358,-8.82259 0.317849,-0.76072 0.122522,-1.61701 -0.880333,-3.85927 -0.401798,-0.89837 -0.892954,-2.13631 -1.091459,-2.75099 l -0.360916,-1.11759 1.272675,-4.51351 c 0.9686,-3.43511 1.382457,-4.64698 1.732156,-5.07213 0.887102,-1.07853 5.471623,-5.28639 6.256621,-5.74258 0.436395,-0.25361 1.106098,-0.71512 1.488229,-1.02559 0.903819,-0.73432 2.427359,-1.43786 3.118334,-1.43998 0.718622,-0.002 1.073205,0.46537 1.574248,2.07595 1.448271,4.65539 1.375308,4.49628 3.888453,8.47934 3.033404,4.80761 3.530405,5.26306 6.225253,5.7048 2.102109,0.34458 3.993566,0.24865 5.152373,-0.26131 0.464518,-0.20443 1.337255,-0.85573 1.95626,-1.45992 1.072006,-1.04634 1.66495,-1.47333 2.045957,-1.47333 0.09749,0 0.431408,0.22212 0.742034,0.49361 0.779009,0.68084 2.786322,1.65883 3.883027,1.89185 1.130984,0.2403 2.53097,0.2499 2.960006,0.0203 0.178102,-0.0953 0.865159,-1.24454 1.526791,-2.55381 2.129958,-4.21489 5.570708,-9.69658 7.536388,-12.00673 1.17712,-1.38339 3.51382,-3.30152 5.07707,-4.16761 1.39,-0.7701 1.44749,-0.78529 2.96492,-0.78334 1.44464,0.002 1.62738,0.0437 2.75099,0.63003 1.73804,0.90693 2.69484,1.64142 4.01399,3.08135 1.42078,1.55085 2.24235,2.86424 3.05933,4.89073 0.50599,1.25508 0.6249,1.77889 0.64238,2.82971 0.0212,1.27129 0.004,1.326 -1.24333,3.86858 -0.69563,1.41848 -1.41287,3.15934 -1.59386,3.86858 -0.53424,2.09346 -1.58728,4.11714 -2.70641,5.20102 -0.90385,0.87539 -3.87349,2.71359 -5.90255,3.65367 -0.44649,0.20686 -0.91374,0.46072 -1.03834,0.56413 -0.4267,0.35413 -3.53575,0.72541 -6.10437,0.72899 -2.90964,0.004 -7.753508,0.39825 -8.641682,0.70327 -0.962182,0.33043 -1.222515,0.58588 -1.637417,1.60673 -0.48472,1.19263 -1.669289,3.02871 -2.142775,3.3213 -0.584571,0.36123 -0.611101,-0.14575 -0.131731,-2.51741 0.241432,-1.19447 0.403416,-2.2298 0.359961,-2.30072 -0.04345,-0.0709 -0.219557,-0.12895 -0.391341,-0.12895 -0.171782,0 -0.761646,-0.19871 -1.310809,-0.44158 -1.34629,-0.59539 -4.259655,-1.691956 -4.869363,-2.233688 -0.693062,0.495582 -2.4498,1.496328 -4.819794,2.657728 -1.524981,0.7473 -1.937251,0.87722 -2.783727,0.87722 -1.020049,0 -2.755573,-0.5238 -4.281279,-1.29214 -1.461099,-0.7358 -3.203051,-2.9162 -4.35508,-5.45126 -0.60425,-1.32966 -2.35888,-6.51998 -2.688388,-7.95244 -0.108161,-0.4702 -0.230207,-0.88847 -0.271214,-0.92948 -0.04101,-0.041 -0.404218,0.0628 -0.807139,0.23067 -0.402918,0.16787 -1.119438,0.44308 -1.592264,0.61158 -2.958682,1.05438 -5.201362,2.25953 -5.356729,2.87856 -0.06792,0.27063 0.105633,1.27709 0.44923,2.60507 0.336986,1.30244 0.593732,2.78017 0.644846,3.71149 0.08055,1.46765 0.02543,1.79121 -1.069108,6.2757 -0.634718,2.60054 -1.301564,5.01801 -1.481877,5.37215 -0.651982,1.28051 -4.911322,5.80004 -7.972937,8.45998 -1.910441,1.6598 -6.020482,4.432305 -8.183112,5.520075 -2.084771,1.04861 -5.05194,2.12633 -6.689431,2.4297 -1.747316,0.32371 -7.435357,0.70897 -12.551498,0.85013 -3.901288,0.10764 -4.231196,0.0938 -4.464784,-0.18768 z"/>
</svg>