<?xml version="1.0" encoding="UTF-8" standalone="yes"?>
<svg>
  <path
    style="stroke:none; fill:#000000"
    d="m 18.486672,42.04924 c 0.162,2.24 1.208,3.634 3.109,4.036 2.454,0.519 3.841,-0.812 4.47,-3.503 0.138,-0.59 0.107,-1.082 -0.274,-1.32 -0.722,-0.451 -2.707,0.017 -3.667,-0.492 -1.193,-0.634 -1.497,-3.33 -1.201,-4.59 0.295,-1.261 1.048,-2.612 1.254,-3.584 0.041,-0.197 0.06,-0.378 -0.026,-0.48 -0.01,-0.012 -0.021,-0.024 -0.032,-0.035 -2.887,-0.659 -3.589,10.572 -3.633,9.968 z m 2.957,-33.2319998 -4.881,4.8489998 c -0.812,0.806 -0.927,0.951 -1.154,1.447 -0.318,0.695 -0.428,1.857 -0.271,2.015 0.505,0.51 2.293,-0.728 2.915,-1.187 5.449,-4.018 7.931,-6.5499998 8.812,-11.7529998 0.448,-2.645 -0.952,-3.66899996 -3.431,-4.00599996 -3.931,-0.536 -7.832,0.012 -9.36,2.97199996 0.239,11.3009998 0.575,4.839 3.908,4.036 3.709,-0.892 7.697,-2.875 3.462,1.627 z m 21.867,7.2389998 -0.453,-8.6509998 c -0.067,-1.283 -0.094,-1.506 -0.265,-2.233 -0.524,-2.229 -1.935,-3.449 -3.41,-4.23699996 -1.876,-1.002 -3.308,-1.374 -5.241,0.036 -1.59,1.15999996 -1.739,5.35999996 -1.115,6.01599996 0.467,0.49 1.702,0.446 3.197,0.095 3.735,-0.877 4.109,-0.675 5.082,3.2749998 0.463,1.877 0.517,3.635 0.29,5.523 -0.483,4.009 -1.618,5.958 0.606,8.312 0.925,0.979 1.892,1.127 4.002,0.692 1.5,-0.308 1.798,-1.005 2.427,-3.082 0.442,-1.462 0.793,-2.772 0.679,-4.229 -0.225,-2.893 -3.352,-8.3289998 0.417,-9.6789998 0.695,-0.249 1.6,-0.087 2.379,0.083 1.051,0.229 1.229,0.125 1.783,-1.038 0.456,-0.957 0.983,-1.837 1.272,-2.866 1.088,-3.86499996 -0.577,-4.95599996 -3.918,-3.37299996 -3.832,1.81599996 -5.554,9.59599976 -4.735,14.81199976 0.25,2.15 0.525,4.086 0.525,4.086 0,0 -0.229,-0.002 -0.502,-0.029 -1.073,-0.106 -2.916,-1.53 -3.02,-3.513 z m 56.611,0 -0.453,-8.6509998 c -0.067,-1.283 -0.094,-1.506 -0.265,-2.233 -0.524,-2.229 -1.935,-3.449 -3.411,-4.23699996 -1.875,-1.002 -3.307,-1.374 -5.24,0.036 -1.59,1.15999996 -1.74,5.35999996 -1.115,6.01599996 0.466,0.49 1.702,0.446 3.197,0.095 3.735,-0.877 4.109,-0.675 5.082,3.2749998 0.462,1.877 0.517,3.635 0.289,5.523 -0.482,4.009 -1.617,5.958 0.606,8.312 0.926,0.979 1.891998,1.127 4.002998,0.692 1.5,-0.308 1.798,-1.005 2.426,-3.082 0.443,-1.462 0.793,-2.772 0.68,-4.229 -0.225,-2.893 -3.352,-8.3289998 0.416,-9.6789998 0.696,-0.249 1.6,-0.087 2.38,0.083 1.051,0.229 1.229,0.125 1.783,-1.038 0.456,-0.957 0.982,-1.837 1.272,-2.866 1.087,-3.86499996 -0.578,-4.95599996 -3.918,-3.37299996 -3.833,1.81599996 -5.554,9.59599976 -4.736,14.81199976 0.251,2.15 0.526,4.086 0.526,4.086 0,0 -0.229,-0.002 -0.502,-0.029 -1.073,-0.106 -2.916,-1.53 -3.019998,-3.513 z m -9.443,13.927 -4.882,4.849 c -0.811,0.806 -0.926,0.951 -1.153,1.447 -0.318,0.695 -0.428,1.857 -0.272,2.015 0.506,0.51 2.293,-0.728 2.916,-1.187 5.449,-4.019 7.931,-6.55 8.812,-11.753 0.448,-2.645 -0.953,-3.669 -3.431,-4.006 -3.931,-0.536 -7.833,0.012 -9.36,2.972 0.238,11.301 0.574,4.838 3.908,4.036 3.709,-0.892 7.697,-2.875 3.462,1.627 z m -28.137,12.066 c 0.162,2.24 1.208,3.634 3.11,4.036 2.453,0.519 3.84,-0.812 4.469,-3.503 0.138,-0.59 0.107,-1.082 -0.273,-1.32 -0.723,-0.451 -2.708,0.017 -3.668,-0.492 -1.193,-0.634 -1.497,-3.33 -1.201,-4.59 0.295,-1.261 1.049,-2.612 1.254,-3.584 0.041,-0.197 0.06,-0.378 -0.025,-0.48 -0.011,-0.012 -0.022,-0.024 -0.033,-0.035 -2.887,-0.659 -3.589,10.572 -3.633,9.968 z m -20.245,17.88 -4.074,4.074 5.686,5.686 5.687,-5.686 -4.074,-4.074 4.074,-4.074 -5.687,-5.686 -5.686,5.686 4.074,4.074 z m 50.268,5.686 4.074,4.074 5.685998,-5.686 -5.685998,-5.686 -4.074,4.074 -4.074,-4.074 -5.686,5.686 5.686,5.686 4.074,-4.074 z m -71.253,-45.262 -5.686,5.686 5.686,5.687 5.686,-5.687 -5.686,-5.686 z m 43.277,-5.886 c 0.994,0.85 2.219,1.481 3.084,1.131 0.506,-0.205 1.242,-1.925 1.522,-3.234 0.507,-2.3709998 -2.725,-2.9009998 -4.541,-2.115 -0.772,0.334 -0.791,1.206 -0.67,-0.6529998 0.168,-2.592 1.295,-4.94 0.85,-7.387 -0.219,-1.209 -1.057,-3.457 -1.767,-1.32999996 -1.548,4.64299996 0.103,5.15199996 0.064,5.60799996 -0.021,0.25 -0.043,0.508 -0.063,0.764 -0.561,6.8309998 1.118,6.8719998 1.521,7.2159998 z m 75.476998,51.794 c 2.889,-1.519 6.135,-3.274 6.135,-3.274 0,0 0.391,2.822 1.116,3.783 0.352,0.466 2.52,1.216 3.149,1.228 0.695,0.013 1.322,-0.329 1.999,-0.79 1.41,-0.96 2.088,-1.698 3.146,-1.347 1.636,0.543 5.146,3.379 5.146,3.379 0,0 2.031,-1.921 2.655,-4.142 0.573,-2.036 -0.037,-4.326 -0.037,-4.326 l -1.398,0.012 -1.793,3.156 c 0,0 -2.274,-1.634 -3.409,-1.855 -0.408,-0.08 -0.668,0.023 -0.985,0.202 -2.76,1.559 -3.531,2.875 -5.78,1.321 -0.266,-0.183 -0.479,-0.373 -0.633,-0.622 -0.554,-0.888 -0.362,-2.52 -0.833,-3.162 -0.871,-1.189 -4.347,0.954 -6.08,2.177 -0.484,0.341 -0.938,0.649 -1.372,0.929 -4.141,2.672 -13.756,4.301 -18.312,3.463 -3.222,-0.593 -9.459,-1.334 -1.697,1.448 8.002,2.868 11.337,2.44 18.983,-1.58 z m -9.126,-32.975 -2.736,1.692 c -1.367,0.865 -2.444,1.454 -3.333,1.806 l -1.955,0.774 -1.585,-0.955 c -0.568,-0.342 -1.193,-0.796 -1.679,-1.217 -0.462,-0.4 -2.245,-1.941 -2.262,-1.956 -0.13,-0.112 0.185,-0.206 0.777,-0.286 2.03,-0.272 8.879,-0.973 11.293,-0.206 0.759,0.178 1.48,0.348 1.48,0.348 z m -78.123998,20.317 c 0.916,7.172 5.655,11.35 13.507,8.072 3.361,-1.402 9.331,-5.693 11.346,-9.166 1.627,-2.803 1.869,-5.127 3.623,-4.342 1.168,0.523 2.721,2.325 4.19,3.299 3.49,2.316 8.52,1.686 11.633,-1.149 l 1.834,-1.67 1.763998,1.464 c 1.465,1.527 7.098,2.05 8.631,1.774 1.822,-0.327 4.451,-1.666 6.134,-2.923 0.54,-0.403 1.025,-0.792 1.469,-1.152 l 3.712,-3.014 1.734,2.442 c 4.078,5.776 6.31,7.86 12.742,7.351 1.876,-0.148 4.31,-0.732 5.593,-1.513 0.468,-0.285 0.854,-0.545 1.184,-0.777 l 2.113,-1.48 2.364,1.041 c 0.869,0.383 1.813,0.835 2.707,1.143 2.079,0.717 5.093,0.895 7.113,-0.062 l 4.131,-2.097 4.787,2.937 c 2.436,1.495 4.671,3.045 5.899,2.587 0.655,-0.244 3.89,-5.267 4.607,-7.153 1.222,-3.213 0.63,-5.422 -1.35,-10.868 -0.485,-1.334 -0.967,-2.269 -2.039,-1.655 -0.842,0.48 -2.504,3.317 -2.749,4.342 -0.139,0.581 -0.168,4.377 0.464,5.301 0.363,0.531 0.966,0.911 0.848,1.248 -0.09,0.258 -0.736,0.164 -1.397,0.012 -0.777,-0.178 -2.951,-1.522 -4.332,-2.566 -3.188,-2.411 -1.217,-2.779 -2.906,-1.105 -0.311,0.309 -0.716,0.66 -1.238,1.052 -1.772,1.331 -5.315,1.24 -7.162,1.082 -1.486,-0.127 -4.46,-1.279 -4.753,-1.841 -0.531,-1.021 -0.282,-1.583 -1.358,-1.265 -1.447,0.429 -3.129,2.074 -4.903,2.993 -3.594,1.862 -11.888,1.557 -14.873,-2.171 -1.332,-1.664 -0.537,-2.528 1.477,-3.5 1.754,-0.847 3.986,-1.609 5.574,-1.839 0.742,-0.107 1.344,-0.099 1.895,-0.386 0.887,-0.462 3.654,-5.907 3.351,-8.366 -0.074,-0.605 -0.192,-0.734 -1.18,-1.288 -9.238,-5.178 -24.081,-1.79 -32.794,0.713 -2.818,0.81 -3.334,1.691 -3.947,5.02 -0.296,1.606 -0.579,3.765 -0.579,3.765 0,0 5.137,0.222 7.957,0.809 1.019,0.212 7.135,2.008 6.309,3.669 -0.585,1.175 -4.417,1.926 -5.255,1.971 -1.966,0.106 -3.603,-0.349 -5.614,-0.788 -1.119,-0.244 -2.432,-0.637 -2.733,-1.232 -0.437,-0.862 -0.073,-1.406 -1.16,-1.077 -1.587998,0.481 -3.543998,2.512 -5.302998,3.435 -3.126,1.641 -9.842,-0.546 -12.377,-3.867 -1.769,-2.316 -1.716,-5.03 -2.584,-8.346 -0.711,-2.717 -5.656,-11.287 -8.786,-13.021 -0.556,-0.308 -1.658,-0.757 -2.121,-1.663 -0.13,-0.254 -0.169,-0.282 -0.395,-0.28 l -0.252,0.002 c -0.225,0.002 -0.291,0.121 -0.654,1.195 -0.737,2.179 -0.959,5.627 -0.617,6.49 0.677,1.708 4.049,3.881 6.004,6.171 1.776,2.078 5.066,7.337 4.592,9.411 -0.77,3.371 -7.113,10.12 -9.179,11.566 -5.803,4.061 -12.006,3.485 -13.971,-3.33 -0.464,-1.609 -0.789,-3.965 -0.791,-5.633 -0.014,-10.227 -2.906,10.138 -1.316,0.357 -0.269,1.651 -1.109,6.044 -0.62,9.871 z m 65.873998,-35.928 c 1.214,1.038 2.71,1.809 3.768,1.381 0.618,-0.25 1.517,-2.352 1.859,-3.95 0.62,-2.897 -3.329,-3.544 -5.548,-2.584 -0.943,0.408 -0.967,1.473 -0.819,-0.798 0.206,-3.1669998 1.583,-6.0359998 1.04,-9.0249998 -0.269,-1.477 -1.293,-4.223 -2.159,-1.625 -1.892,5.672 0.126,6.294 0.078,6.852 -0.026,0.305 -0.052,0.621 -0.078,0.932 -0.684,8.3459998 1.367,8.3959998 1.859,8.8169998 z m -61.725998,21.64 c 1.128,-1.884 2.397,-3.915 3.031,-5.817 1.01,-3.03 0.954,-7.701 -1.35,-10.868 -0.769,-1.056 -1.406,-0.129 -2.01,1.316 -0.678,1.618 -1.531,3.27 -1.496,4.489 0.04,1.373 0.933,2.692 1.293,4.341 0.277,1.263 0.171,1.767 -0.399,2.221 -0.919,0.733 -6.596,2.546 -8.754,2.796 -4.015,0.465 -10.606,-1.238 -12.193,-5.752 -1.125,-3.198 -0.615,-4.416 -2.316,-4.206 -0.336,0.041 -0.424,0.16 -0.887,1.194 -1.367,3.05 -1.822,4.571 -1.175,7.06 0.603,2.323 1.979,5.161 2.388,7.677 0.26,1.595 0.147,6.646 -0.767,7.966 -0.81,1.168 -5.803,3.595 -7.749,3.833 -3.894,0.476 -9.606,-1.564 -11.914,-3.453 -0.246,-0.201 -0.486,-0.408 -0.719,-0.621 -7.9512998,-7.243 -4.6874998,-14.622 -0.862,-22.871 0.658,-1.421 1.013,-2.428 1.127,-3.118 0,0 -0.012,0.013 -0.035,0.038 -0.665,-1.19 -3.9894998,4.427 -5.4167998,9.239 -0.1898,0.639 -0.3717,1.284 -0.5553,1.926 -3.3821,11.824 -1.6691,16.405 0.7064,19.798 0.5585,0.798 1.2053,1.562 1.9411,2.289 4.6365998,4.584 14.3165998,5.064 19.7025998,2.357 1.922,-0.967 3.644,-2.03 4.387,-2.795 1.083,-1.115 1.958,-2.465 2.461,-3.77 1.113,-2.891 2.316,-9.143 2.316,-9.143 0,0 2.609,0.533 3.827,0.523 0.284,-0.002 0.492,-0.034 0.702,-0.048 0.773,-0.049 1.571,0.151 2.689,0.126 0.637,-0.014 1.378,-0.101 2.155,-0.23 5.812,-0.97 7.061,-1.802 9.872,-6.497 z m -48.4642998,-9.667 3.7122998,-4.028 c 0.321,-1.941 -1.267,-1.365 -3.3595998,-0.393 -0.1601,0.074 -0.3248,0.144 -0.4926,0.208 -15.386,5.893 1.1537,-22.6289998 -5.119,-11.933 -1.9466,3.319 -3.19520003,7.026 -3.02500003,10.296 0.1816,3.49 1.81020003,6.637 5.87110003,6.524 1.2161,-0.034 1.9017,-0.411 2.4128,-0.674 z"/>
</svg>