<?xml version="1.0" encoding="UTF-8" standalone="no"?>
<svg>
  <path
     style="stroke:none; fill:#000000"
     d="m 42.838549,19.188401 -0.16125,-3.79125 c -0.065,-1.53249 -0.0437,-1.80624 0.21625,-2.74499 0.1925,-0.6975 0.39625,-1.45875 0.9125,-1.95 1.25875,-1.1962499 4.37249,-0.7824999 5.81749,-1.7674999 2.07875,-1.41875 2.08,-6.29124 0.48,-8.26623999 -1.69625,-2.09375001 -5.12624,1.23124999 -6.53249,3.13499999 -0.8625,1.16875 -1.68,2.50874 -2.0475,4.07124 -0.17,0.725 -0.265,1.5475 -0.3975,2.2674999 l -0.65375,3.52625 -2.15499,-2.8075 c -2.94875,-3.9762499 -2.05,-5.1574899 -6.38375,-6.2387399 -1.4525,-0.3625 -4.60249,-0.2275 -5.20749,1.44625 -0.47375,1.30999 0.63875,4.4949899 1.335,5.2512399 0.53625,0.58125 2.70499,2.025 3.60124,2.11375 1.46375,0.145 4.455,-0.7675 4.455,-0.7675 0,0 2.415,3.55749 3.88874,5.22749 0.64375,0.72875 1.17625,1.31625 2.00125,1.3325 0.34125,0.006 0.83125,-0.0375 0.83125,-0.0375 z m 23.39872,73.97491 c 3.15875,4.47 10.01624,4.56875 15.26124,4.1125 2.01374,-0.17625 3.90624,-0.375 5.91249,-1.26625 2.92625,-1.29875 6.09749,-4.06874 8.40999,-5.16999 0.4825,-0.23125 0.92875,-0.3875 1.29875,-0.27625 0.95375,0.2875 1.4075,2.35749 2.4275,3.18249 1.177491,0.9525 6.957491,-0.35375 8.869991,-1.40749 0.65499,-0.36 3.26624,-2.3475 4.06124,-3.48 0.625,-0.89125 0.83375,-0.9125 2.07875,-0.21875 1.5225,0.84875 3.34874,1.47125 4.77124,2.1175 1.25625,0.57125 2.10125,1.0375 3.07125,0.55375 1.4825,-0.7375 2.275,-3.84 1.9775,-5.6725 -0.3725,-2.30249 -1.82,-6.78374 -3.2925,-5.40249 -0.7425,0.6975 -0.8475,2.7475 -1.655,3.45 -0.3875,0.3375 -0.93625,0.365 -1.46375,0.21125 -1.12124,-0.32875 -2.14124,-1.4775 -2.98374,-1.3875 -1.2475,0.1325 -2.1025,2.98999 -3.785,4.22499 -1.54125,1.1325 -8.22249,2.39875 -9.14999,1.765 -0.92875,-0.63625 -1.28625,-2.27375 -2.125001,-2.95625 -1.87249,-1.52374 -4.73249,1.55125 -7.44499,3.39875 -2.51249,1.71125 -4.98374,2.525 -7.69624,2.78125 -4.28999,0.40375 -11.64248,0.0175 -15.23998,-0.21625 -5.17124,-0.33625 -3.1525,1.86999 -3.30375,1.65624 z m 29.17872,-72.89616 -0.175,-4.00375 c -0.0712,-1.61874 -0.0475,-1.90874 0.23375,-2.89999 0.20875,-0.73625 0.42875,-1.54125 0.98625,-2.05875 1.36,-1.26375 4.727491,-0.8275 6.288741,-1.8674999 2.24875,-1.49875 2.25,-6.64499 0.52,-8.73123999 -1.83375,-2.21125001 -5.542491,1.30124999 -7.062491,3.31124999 -0.9325,1.235 -1.81625,2.64999 -2.21375,4.30124 -0.185,0.765 -0.28625,1.63375 -0.43125,2.3937499 l -0.705,3.725 -2.32999,-2.965 c -3.18875,-4.1999999 -2.21625,-5.4487399 -6.9025,-6.5899899 -1.56999,-0.38375 -4.97624,-0.24 -5.62999,1.52749 -0.5125,1.38375 0.69,4.7474999 1.44375,5.5462499 0.57875,0.615 2.92375,2.13875 3.89249,2.2325 1.5825,0.15375 4.8175,-0.81125 4.8175,-0.81125 0,0 2.61,3.75749 4.20499,5.52249 0.695,0.77 1.27125,1.39 2.1625,1.40625 0.36875,0.008 0.9,-0.0387 0.9,-0.0387 z m 16.447481,28.62372 0.7,-0.0125 c 0.31375,-0.005 0.3975,-0.19625 0.84125,-1.91125 2.55375,-9.85874 3.02,-15.30248 -3.26125,-21.62623 -1.035,-1.04125 -2.24124,-1.91499 -3.01624,-0.98125 -0.5275,0.63375 -1.065,5.1025 -0.825,6.07875 0.42,1.70749 1.665,2.26124 3.10249,3.41999 3.2475,2.6175 4.06125,4.5825 3.6475,8.06874 -0.31625,2.67625 -1.18875,6.96375 -1.18875,6.96375 z m -25.901221,-5.96125 c -0.0513,-1.395 -0.20875,-3.14749 -0.6675,-3.58874 -0.26625,-0.255 -0.6325,-0.07 -0.8625,-0.2075 -1.03625,-0.6225 0.725,-3.185 1.565,-4.165 7.61749,-8.89249 27.359971,-19.93373 37.791211,-22.21747 0.99375,-0.2175 1.98749,-0.39375 2.17499,-0.0575 0.0937,0.1675 -0.0113,0.46125 -0.1725,0.79375 -0.37624,0.77875 -0.97999,1.72249 -1.64874,2.73374 -13.89249,20.97623 8.02124,-8.1349899 14.23873,-8.9524899 0.56875,-0.28125 1.1025,-0.5075 1.57625,-0.65625 2.41875,-0.76124 5.03999,-0.92374 5.35749,-3.24249 0.045,-0.32625 0.0513,-0.73125 0.04,-1.125 -0.105,-3.79875 -6.30499,-1.98124999 -10.67499,-0.32 -4.04499,1.53875 -10.04998,4.07375 -16.41998,7.02124 -8.24249,3.8124999 -32.921211,15.2599799 -36.393701,25.2024699 -1.11875,3.20375 -0.91125,6.79374 1.31999,9.88124 0.095,0.1325 0.1825,0.25125 0.26125,0.36 -1.00625,-1.3675 2.73,4.3825 2.515,-1.46 z m -37.32496,11.44499 c 0,0 0.59,-1.36 0.9475,-2.4375 0.60125,-1.81875 0.505,-3.13249 0.2675,-5.01374 -0.6625,-5.2475 -1.68125,-17.13373 -1.68125,-17.13373 0,0 1.8275,-0.205 3.22375,-0.16875 3.77625,0.0987 4.87625,1.8775 6.86249,-0.1075 1.2925,-1.29125 2.45,-5.87 1.6225,-7.57999 -0.94625,-1.955 -4.14999,-2.89625 -5.62374,-1.3 -0.67875,0.735 -1.06625,1.89625 -1.84375,2.66125 -1.20375,1.18499 -3.3425,1.41874 -4.4025,2.40624 -1.81374,1.69125 -2.05749,13.50874 -1.72374,16.30873 0.56375,4.72125 2.35124,12.36499 2.35124,12.36499 z m 8.90624,-43.7862 c 1.09125,-1.3399999 1.86125,-2.8237499 2.52,-4.7699899 0.17,-0.49875 0.3225,-0.99125 0.19125,-1.2225 -0.1575,-0.2775 -0.7225,-0.17875 -1.2975,0 -0.21,0.065 -0.5475,0.25375 -0.98625,0.54375 -3.75999,2.48374 -26.32872,23.0212199 -26.32872,23.0212199 0.007,0.9175 0.0412,3.76 0.89875,3.04 l 25.00247,-20.61248 z m -45.85869,78.41241 c 2.38124,0.87125 5.30374,0.62125 7.37624,-0.5625 5.59499,-3.19625 5.67374,-12.64124 9.19374,-19.62998 0.735,-1.45875 3.86624,-6.72124 6.27374,-7.61749 0.9775,-0.36375 1.20125,0.03 1.48875,1.2075 2.84875,11.68249 3.32249,16.56123 10.77249,21.08623 2.66374,1.61999 14.76623,5.45499 17.97123,1.72999 0.70999,-0.82375 2.70124,-5.27874 2.50249,-7.16499 -0.0613,-0.58625 -0.2275,-0.68625 -1.66125,-1.00125 -5.21374,-1.145 -10.97498,-2.81374 -12.46873,-7.53749 -0.18375,-0.57875 -0.1775,-1.03 0,-1.4875 0.36625,-0.94 7.60999,-5.40249 11.35749,-7.71249 1.53249,-0.94375 4.00874,-3.87124 4.85499,-5.73874 0.895,-1.97375 1.88,-4.7125 1.88,-4.7125 l 1.005,17.19373 c 0.0913,1.57875 0.11375,1.815 0.22,2.3625 0.35625,1.83 2.35624,3.64875 3.39749,4.3725 4.59625,3.19874 12.90999,3.49749 18.92873,1.75874 1.20375,-0.34749 2.32125,-0.81999 3.245,-1.75874 2.119991,-2.15 1.981241,-3.23125 3.893741,-2.42125 4.11125,1.74375 4.9175,3.21 8.54624,3.3 3.0475,0.0762 5.4575,-1.12375 6.74249,-3.99375 0.6275,-1.39875 0.81125,-1.93375 2.88375,-1.28 3.02,0.95375 9.28249,7.73999 12.43874,8.78999 1.335,0.44375 1.77375,-0.095 2.97249,-1.84625 4.02625,-5.87874 5.41,-6.37624 4.7075,-12.56873 -0.44625,-3.92875 -1.58125,-10.58499 -2.97375,-14.29749 -0.2975,-0.79249 -0.665,-1.50124 -1.1675,-1.79999 -2.00374,-1.19125 -3.20749,-0.635 -3.93124,0.6875 -1.83625,3.35499 -0.96375,10.25373 -0.2825,12.25998 0.5775,1.70125 1.305,3.84375 1.305,3.84375 0.50375,1.485 0.56375,1.68125 0.59375,1.9625 0.0213,0.20875 0.045,0.50124 -0.0337,0.62499 -0.11375,0.18125 -0.44625,0.003 -0.765,-0.20875 -1.755,-1.15999 -3.1225,-3.30124 -5.18375,-4.77124 -1.6975,-1.21125 -3.86624,-1.96625 -4.60124,-3.19 -0.5325,-0.88624 -0.65375,-2.03749 -2.0725,-1.20499 -1.1325,0.66374 -1.44625,3.24374 -2.235,4.77999 -1.71875,3.35125 -6.79249,1.91 -10.63123,0.32375 -0.5325,-0.22 -1.0425,-0.445 -1.47875,-0.8425 -1.5125,-1.37875 -2.47875,-3.78625 -4.04,-1.9175 -0.665,0.79625 -0.76625,2.36625 -1.4425,3.2225 -0.6875,0.8725 -5.744991,2.45625 -6.478741,2.6375 -2.85375,0.7025 -13.09123,0.0588 -15.96498,-2.93 -0.6625,-0.68875 -1.1975,-1.67875 -1.58375,-2.64875 -0.5225,-1.3075 -0.5925,-1.62875 -0.70125,-3.20624 -0.88,-12.71249 -2.33125,-35.04121 -3.12374,-38.09246 -1.11625,-4.29374 -2.84375,-10.1362399 -2.975,-13.1837299 -0.05,-1.18125 -0.085,-2.48125 -0.1925,-3.53875 -0.43625,-4.3075 -2.045,-1.42874999 -3.09375,-0.0888 -1.1725,1.49875 -2.51499,5.40999 -2.66249,6.38124 -0.59375,3.9212499 2.99499,12.2962399 4.05624,16.2899799 2.615,9.84249 3.37625,23.55623 -2.975,28.12622 -9.97498,7.17749 -14.70373,4.06 -15.41373,15.82123 -0.26375,4.3775 0.09,6.265 -2.00125,5.06625 -3.02999,-1.7375 -5.31374,-5.11375 -6.45249,-8.66124 -3.31374,-10.31999 -1.32125,-17.90248 -7.32749,-15.74249 -6.92874,2.4925 -8.72124,11.34999 -12.61248,21.09498 -2.2125,5.54249 -5.25375,8.66874 -9.95124,8.20374 -0.55,-0.055 -1.06375,-0.12625 -1.54375,-0.2325 -6.7899896,-1.505 -8.5674896,-27.26997 -7.8387396,-35.31121 -0.0163,-5.64999 -0.44,-6.16249 -0.95875,-4.55374 -1.39000001,4.29874 -1.56250001,13.24248 -1.44000001,20.02622 0.445,24.80248 11.34248961,30.18997 11.65248961,30.30247 z" />
</svg>
