<?xml version="1.0" encoding="UTF-8" standalone="yes"?>
<svg xmlns="http://www.w3.org/2000/svg" xmlns:xlink="http://www.w3.org/1999/xlink"
  width="595.276pt" height="841.89pt" viewBox="0 0 595.276 841.89">
  <path
    style="stroke:none; fill:#000000"
    d="m 72.364885,79.333427 c -0.363,2.270007 0.07896,2.826997 1.587997,2.130997 1.028006,-0.475 14.287979,-8.187977 16.224967,-10.49798 0.780007,-0.929999 1.557997,-2.575995 1.832997,-4.055992 0.169,-0.911991 -0.105,-0.879999 -1.08699,-0.514991 -2.274996,0.84599 -17.277974,9.97898 -17.747965,10.803979 -0.438999,0.770998 -0.719998,1.569997 -0.811006,2.133987 z m 48.287535,-63.120013 -0.14,-3.202986 c -0.057,-1.294998 -0.038,-1.526997 0.187,-2.319996 0.167,-0.588999 0.343,-1.2319972 0.789,-1.6469962 1.088,-1.010999 3.78199,-0.660999 5.03099,-1.493997 1.799,-1.197998 1.8,-5.31599 0.416,-6.98498697 -1.467,-1.76899703 -4.43399,1.04099797 -5.64999,2.64899497 -0.746,0.987998 -1.453,2.119996 -1.771,3.440993 -0.148,0.611999 -0.22899,1.306998 -0.34399,1.915996 l -0.565,2.9789952 -1.8639,-2.3719962 c -2.55139,-3.359993 -1.7733,-4.357991 -5.52239,-5.271989 -1.2561,-0.306 -3.98019,-0.192 -4.50379,1.222997 -0.4097,1.105998 0.5522,3.797993 1.1547,4.436992 0.4633,0.4909992 2.33939,1.7109962 3.11439,1.7859962 1.2663,0.122 3.85379,-0.648999 3.85379,-0.648999 0,0 2.0883,3.005987 3.3642,4.416984 0.556,0.615999 1.017,1.111998 1.72999,1.125998 0.295,0.0048 0.72,-0.032 0.72,-0.032 z m -7.56277,18.130973 c -0.0412,-1.116998 -0.1672,-2.518996 -0.5341,-2.870995 -0.2127,-0.204999 -0.5063,-0.05696 -0.69051,-0.167 -0.82829,-0.496999 0.58071,-2.547995 1.25211,-3.331993 6.09428,-7.113986 21.88824,-15.945969 30.23324,-17.773966 0.79599,-0.173999 1.58999,-0.3139992 1.74099,-0.04504 0.074,0.134 -0.01,0.369 -0.138,0.633999 -0.302,0.623999 -0.784,1.377997 -1.31999,2.186996 -11.11298,16.781967 6.41698,-6.5069872 11.39097,-7.1619862 0.455,-0.224 0.882,-0.404999 1.261,-0.524999 1.935,-0.608999 4.03199,-0.737999 4.28599,-2.593995 0.036,-0.26 0.041,-0.584999 0.032,-0.898998 -0.084,-3.039994 -5.04399,-1.58599697 -8.53998,-0.256 -3.23599,1.229998 -8.03998,3.257994 -13.13597,5.615989 -6.59399,3.0509942 -26.33665,12.2079692 -29.11475,20.1619612 -0.8952,2.562995 -0.7288,5.43499 1.0558,7.904985 0.0765,0.106 0.146,0.201999 0.2094,0.287999 -0.8056,-1.093998 2.18399,3.505994 2.0118,-1.166997 z m 13.35543,0.506295 -4.88073,4.848734 c -0.81096,0.805959 -0.92695,0.95095 -1.15394,1.446925 -0.31798,0.694959 -0.42798,1.856901 -0.27099,2.014892 0.50498,0.509968 2.29288,-0.727966 2.91485,-1.186941 5.4487,-4.018776 7.93056,-6.549636 8.81151,-11.752353 0.44798,-2.644859 -0.95195,-3.668801 -3.4308,-4.005785 -3.93079,-0.535967 -7.83158,0.012 -9.3595,2.971843 0.23899,11.300378 0.57398,4.837734 3.90779,4.035776 3.7088,-0.891951 7.69658,-2.874843 3.46181,1.626909 z M 92.759588,16.056246 92.306581,7.4052548 c -0.06704,-1.282998 -0.094,-1.505997 -0.264999,-2.232996 -0.523999,-2.228996 -1.934996,-3.448993 -3.410994,-4.23699197 -1.874996,-1.001998 -3.306993,-1.373997 -5.239989,0.036 -1.589997,1.15999797 -1.739997,5.35998997 -1.114998,6.01598897 0.465999,0.489999 1.701996,0.445999 3.196994,0.095 3.734992,-0.876998 4.108992,-0.674998 5.08199,3.2749942 0.461999,1.876996 0.516999,3.635001 0.289999,5.522997 -0.482999,4.007993 -1.617997,5.957989 0.604999,8.310984 0.925998,0.979998 1.891996,1.127998 4.002992,0.692999 1.499997,-0.309 1.797997,-1.004998 2.426996,-3.081994 0.441999,-1.461997 0.791998,-2.771995 0.678998,-4.229992 -0.224999,-2.891994 -3.351993,-8.3279922 0.416999,-9.6779892 0.694999,-0.25 1.599002,-0.087 2.378992,0.083 1.05101,0.228999 1.229,0.124999 1.783,-1.037998 0.456,-0.956998 0.983,-1.836997 1.272,-2.866995 1.088,-3.86399197 -0.577,-4.95498997 -3.91799,-3.37199297 C 96.658573,2.5162648 94.937576,10.29625 95.756575,15.512248 c 0.249999,2.149996 0.524999,4.085992 0.524999,4.085992 0,0 -0.229,-0.0032 -0.501999,-0.02896 -1.072998,-0.106 -2.915995,-1.529997 -3.019987,-3.512993 z m -81.727345,46.66871 c 0.488375,-0.627967 1.06475,-1.404926 1.783901,-2.387868 1.285733,-1.758908 2.066788,-3.323825 2.451371,-4.293767 l 0.714759,-1.803901 1.827204,-0.429975 c 1.522517,-0.357983 3.296818,-0.438983 4.273064,-1.297934 0.138088,-0.121991 2.15998,-4.220767 1.730605,-5.944676 -0.262984,-1.055942 -2.034692,-3.264818 -2.620555,-3.723793 -1.971796,-1.544917 -6.234964,-3.279826 -6.234964,-3.279826 0,0 -0.618167,0.889959 -1.324022,2.108892 -4.4782549,7.731577 -3.102834,9.415478 -0.870558,11.136387 0.856454,0.689966 1.353829,1.543917 1.185038,2.116884 -0.04384,0.147991 -0.130896,0.330983 -0.251784,0.536975 C 5.4114546,67.046715 -2.5946099,70.158549 0.79910359,69.460583 4.9996714,68.596632 10.336285,63.619906 11.032243,62.724956 z M 12.99564,48.777719 c -0.339984,-0.199992 -0.558375,-0.361984 -0.560463,-0.371984 -0.0937,-0.448975 0.05072,-1.450917 0.05072,-1.450917 0,0 1.550805,0.054 2.09178,0.07296 0.376575,0.01296 0.549279,0.479975 0.62347,0.90095 0.472271,2.685859 -2.052884,0.93795 -2.205475,0.848959 z m 3.817192,0.83495 0.116392,-0.752959 c 0.130192,-0.84095 0.114696,-1.8099 -0.062,-2.545859 -0.0024,-0.009 -0.004,-0.018 -0.0064,-0.02696 0,0 0.01688,-0.484975 0.01688,-0.484975 0,0 0.201296,-0.018 0.466479,-0.014 0.840559,0.012 1.9323,0.756959 2.537163,1.309934 0.94715,0.86695 1.507021,2.280875 -0.279183,2.372867 -0.642967,0.032 -1.443221,0.07296 -2.002692,0.101992 l -0.786455,0.04 z m 144.767148,-28.109458 -2.76688,-2.788242 2.78824,-2.766883 2.78825,-2.766874 2.76689,2.788242 2.76687,2.788243 -2.78824,2.766882 -2.78825,2.766875 -2.76688,-2.788243 z m -4.53931,8.834375 -2.80174,-2.549619 2.81395,-2.779074 2.81395,-2.779075 2.23769,2.265836 2.23769,2.265843 2.2874,-2.263523 2.28739,-2.263524 2.7922,2.813771 2.79221,2.81377 -2.83688,2.515091 -2.83689,2.515083 -2.2167,-2.244579 -2.21671,-2.244588 -2.27591,2.2421 -2.27592,2.242099 -2.80173,-2.549611 z m -19.18846,51.054708 c -2.9076,-0.88228 -3.49941,-1.846563 -2.03317,-3.3128 0.68607,-0.686071 1.37146,-0.822879 4.12256,-0.822879 3.7912,0 6.95028,-1.061525 10.19389,-3.425409 2.60397,-1.897724 5.99929,-3.569033 7.25061,-3.569033 0.74468,0 1.35935,0.489599 2.26229,1.801965 1.12619,1.636868 1.97598,2.312411 2.90885,2.312411 0.18637,0 1.11448,-0.648015 2.06247,-1.440029 1.32064,-1.103366 2.09765,-1.440037 3.32349,-1.440037 1.50659,0 1.6607,-0.119976 2.64236,-2.057188 1.01096,-1.995053 1.55612,-2.371996 2.51979,-1.742309 1.44968,0.947246 0.80045,7.083138 -0.97238,9.190022 -1.17539,1.396878 -2.30759,1.501077 -4.01604,0.369607 -1.64362,-1.088525 -2.0746,-1.040565 -3.61886,0.402664 -2.84347,2.657445 -4.99473,2.408535 -7.13496,-0.825575 -0.59483,-0.898854 -1.34383,-1.634277 -1.66443,-1.634277 -0.9234,0 -3.024,1.20215 -5.52999,3.164746 -1.27248,0.996558 -3.26479,2.173351 -4.42737,2.615091 -2.165,0.82263 -5.8956,1.01795 -7.88911,0.41303 z m -4.18188,-25.220686 c 0,0.37028 -0.57206,0.155248 -2.36575,-0.889278 -0.96174,-0.560047 -1.74861,-1.260846 -1.74861,-1.557325 0,-0.825686 3.62436,-5.042902 4.53968,-5.282262 1.05128,-0.274911 1.02302,0.06472 -0.27545,3.310354 -0.8625,2.1559 -0.98881,2.863842 -0.61716,3.458953 0.25702,0.411543 0.46729,0.843343 0.46729,0.959558 z m 45.66308,-20.972615 c -0.8072,0 -1.24367,0.414463 -2.09999,1.999996 -1.46179,2.706595 -1.70037,4.479215 -0.95,7.374986 0.34576,1.334309 0.55713,2.517859 0.45,2.624995 -0.10713,0.107127 -2.19656,-1.296662 -4.62499,-3.124994 l -4.39999,-3.324994 -1.8,2.449995 c -0.97939,1.345966 -2.17681,2.658363 -2.675,2.924995 -1.25232,0.670222 -6.84818,0.239327 -8.77498,-0.674999 -1.74756,-0.829278 -3.35866,-3.03705 -3.74999,-5.12499 -0.14775,-0.788318 -0.63364,-2.039548 -1.075,-2.774995 -0.76809,-1.279893 -0.91879,-1.324997 -3.37499,-1.324997 -5.47379,0 -10.56413,2.391243 -15.29997,7.174986 -2.92583,2.955418 -3.48893,3.779081 -4.62499,6.724987 -0.71203,1.846332 -1.3,3.826969 -1.3,4.399991 l 0,1.024999 -4.57499,0 c -3.92732,0 -4.78231,-0.112872 -5.97499,-0.849999 -1.73803,-1.074158 -2.2,-1.929116 -2.2,-4.049992 0,-1.362149 -0.14596,-1.674997 -0.775,-1.674997 -1.09157,0 -1.46554,0.583095 -2.74999,4.399992 l -1.125,3.374993 -2.29999,0.325 c -5.384377,0.739062 -8.699987,-0.022 -8.699987,-1.974997 0,-1.590653 -1.308366,-1.274565 -4.824991,1.124998 -1.396837,0.953126 -1.821508,1.031358 -4.224992,0.824999 -4.960774,-0.425936 -5.683909,-0.658687 -6.974986,-2.224996 -1.136261,-1.378485 -1.296725,-1.431701 -2.374995,-0.949998 -0.63143,0.282087 -1.8677,0.995446 -2.749994,1.599997 -1.445478,0.990446 -2.019756,1.124805 -5.949989,1.249997 -3.84344,0.122432 -4.693391,0.01968 -7.049986,-0.874998 -3.050122,-1.157958 -3.311906,-1.608445 -4.124992,-6.774987 -0.677583,-4.305472 -1.934012,-3.881704 -3.874993,1.274998 -1.173509,3.117746 -1.314173,5.049398 -0.424999,6.224988 0.33224,0.439255 0.624999,0.903286 0.624999,1.049997 0,0.953847 -6.981235,2.572212 -9.074982,2.099996 -2.886595,-0.651038 -4.630576,-2.636514 -5.099991,-5.799988 -0.321903,-2.169364 -1.219037,-3.299994 -2.599995,-3.299994 -0.547975,0 -2.596771,0.685895 -4.549991,1.524997 -5.619357,2.414043 -7.815025,5.018286 -12.024976,14.224973 -0.642895,1.405949 -1.37319,2.241395 -2.624995,2.974994 -2.228356,1.305909 -2.567947,1.294677 -4.899991,-0.25 C 10.732132,66.815892 9.8990856,62.233381 9.6838221,59.023947 9.3923586,54.621811 9.3465187,52.947455 9.6088622,52.22396 9.4601025,52.097464 9.3368547,51.945248 9.183863,51.823961 8.9787594,51.661353 8.7412559,51.533633 8.5338643,51.373962 c -0.2115356,-0.162864 -0.1969036,-0.15632 -0.2499995,-0.2 -0.01664,0.273319 -0.06224,0.556767 -0.1249998,0.799998 -1.7090684,8.851463 -4.2288155,20.837032 4.049912,26.824949 1.095086,0.744134 2.06514,1.024995 3.499993,1.024995 1.822621,0 2.126836,-0.15184 3.974993,-1.999994 1.424813,-1.424813 2.641211,-3.298425 4.149992,-6.449987 1.651324,-3.449329 2.624219,-4.917783 4.374991,-6.599987 2.613491,-2.511147 5.11719,-3.874993 7.199986,-3.874993 1.533069,0 1.961556,0.609639 1.974996,2.774995 0.01456,2.345643 2.484372,4.713591 5.42499,5.22499 1.82738,0.317807 8.003048,-0.354344 9.474982,-1.024998 0.75107,-0.342216 1.214581,-0.984566 1.524997,-2.174996 0.719102,-2.757763 1.04879,-3.078306 2.399995,-2.249996 3.091714,1.895261 4.435039,2.430252 7.199986,2.824995 3.671737,0.524207 5.397886,0.253719 8.824983,-1.349998 1.692405,-0.791966 3.543953,-1.325589 4.343856,-1.638996 0.442927,0.520143 1.80338,1.270941 3.156129,2.138995 1.6641,1.067854 2.354051,1.255598 4.599991,1.249998 2.18046,-0.0056 2.999818,-0.241488 4.699991,-1.249998 1.489149,-0.883334 2.282491,-1.123061 3.089074,-1.506077 2.022668,2.709587 3.440537,2.841355 6.910906,2.581075 6.866912,-0.479335 6.833492,-0.472999 7.899982,-2.749994 l 0.95,-1.999996 1.325,1.174997 c 3.24005,2.844803 7.82106,3.199498 13.07497,1.024998 l 2.8,-1.149998 4.29999,2.149996 c 4.58448,2.280012 6.56959,2.629915 7.67498,1.399998 0.35592,-0.396008 1.5131,-2.339404 2.55,-4.324992 1.38459,-2.651395 1.875,-4.079904 1.875,-5.37499 0,-1.796804 -1.43746,-6.054532 -2.625,-7.749985 -0.36131,-0.515847 -0.65,-1.135477 -0.65,-1.399997 0,-1.300373 6.52505,-2.467411 7.27499,-1.299997 0.18171,0.282863 0.7829,1.902812 1.35,3.599993 l 1.02499,3.074994 3.02496,1.574997 c 3.3405,1.750228 6.48483,2.325979 8.74998,1.574997 0.76802,-0.254624 2.32674,-1.379414 3.47499,-2.499996 l 2.1,-2.049996 3.47499,2.299996 c 1.90668,1.25299 4.12433,2.623739 4.94999,3.049994 1.49429,0.771447 1.50433,0.773703 2.875,-0.15 0.94244,-0.635102 2.08637,-2.244451 3.57499,-5.04999 l 2.175,-4.074992 -0.125,-4.549991 c -0.14789,-5.365374 -1.03982,-7.799985 -2.8,-7.799985 z m -138.553008,44.013931 -2.515795,-2.515787 2.493563,-2.812603 2.493555,-2.812603 2.554555,2.24278 2.554555,2.242772 2.238732,-2.238732 2.238732,-2.238732 2.795922,2.817507 2.795931,2.817515 -2.836883,2.515091 -2.83689,2.515082 -2.200988,-2.228667 -2.200996,-2.228684 -2.529099,2.220428 -2.529091,2.220423 -2.515795,-2.51579 z"/>
</svg>