<?xml version="1.0" encoding="UTF-8" standalone="yes"?>
<svg xmlns="http://www.w3.org/2000/svg" xmlns:xlink="http://www.w3.org/1999/xlink"
  width="595.276pt" height="841.89pt" viewBox="0 0 595.276 841.89">
  <path
    style="stroke:none; fill:#000000"
    d="m 136.62425,19.99862 c -0.65189,-0.36716 -1.69884,-1.44585 -2.67668,-2.7578 -0.88331,-1.18513 -1.84691,-2.47472 -2.14135,-2.86577 l -0.53534,-0.71099 -1.60601,0.39084 c -2.27039,0.55251 -3.31584,0.49516 -4.84263,-0.26568 -1.75076,-0.87244 -2.88249,-2.10751 -3.42013,-3.73242 -0.69725,-2.10731 -0.58553,-3.38978 0.37552,-4.31052 0.70598,-0.67638 1.05717,-0.79178 2.69029,-0.88406 3.5268,-0.19929 5.68669,0.91103 7.28486,3.74486 0.52674,0.93398 1.68275,2.58212 2.56893,3.66252 1.44154,1.75747 1.62417,1.89843 1.73401,1.33834 0.0675,-0.34431 0.324,-1.71008 0.56997,-3.03504 0.24596,-1.32496 0.5568,-2.75753 0.69076,-3.18351 0.41845,-1.33057 2.04667,-3.53172 3.78975,-5.12325 C 142.84305,0.6803 144.05232,0 145.13438,0 c 2.0409,0 3.29835,4.71294 2.09961,7.86932 -0.57569,1.51583 -1.04738,1.82698 -3.66799,2.41953 -2.89886,0.65548 -4.00952,1.14977 -4.41282,1.96391 -0.23341,0.47118 -0.39843,2.07868 -0.46641,4.54343 -0.11855,4.29837 -0.11807,4.29761 -2.06252,3.20243 z m -57.236422,1.77174 c -0.36035,-0.36035 -0.16289,-2.38149 0.29638,-3.03357 0.25921,-0.36805 2.41424,-2.64156 4.78895,-5.05225 4.19815,-4.26177 5.18934,-5.46199 4.81769,-5.83364 -0.21484,-0.21484 -2.12232,0.20631 -5.23622,1.1561 -1.96968,0.6008 -2.48544,0.8934 -3.82225,2.1685 l -1.54532,1.47399 -0.28512,-0.74993 c -0.15682,-0.41246 -0.35772,-2.26753 -0.44644,-4.12238 -0.13386,-2.79854 -0.0881,-3.51406 0.269,-4.20459 0.67722,-1.30959 1.86193,-2.1258 4.23051,-2.91461 1.9862,-0.66147 2.44863,-0.71698 4.89419,-0.58752 4.8571,0.25713 6.84823,1.48204 6.84712,4.21223 -0.001,2.58077 -1.4636,6.40462 -3.35839,8.78054 -1.77024,2.21975 -7.53026,7.22495 -9.41139,8.17807 -1.47199,0.74583 -1.74984,0.81793 -2.03871,0.52906 z m 11.66241,10.27958 -3.81092,-3.81774 3.81774,-3.81092 3.81773,-3.81093 3.81093,3.81774 3.810922,3.81774 -3.817732,3.81092 -3.81774,3.81093 -3.81093,-3.81774 z m 36.152652,13.34682 c -0.41852,-0.35215 -1.24029,-1.58634 -1.82616,-2.74264 -1.0202,-2.01349 -1.06516,-2.20985 -1.06357,-4.64521 0.002,-2.3567 0.0666,-2.66757 0.88928,-4.24649 3.20711,-6.15547 8.28082,-10.17182 22.93155,-18.15256 7.76816,-4.23157 11.08473,-5.8054 23.15332,-10.98707 5.41025,-2.3229 5.96629,-2.53665 9.10072,-3.49847 3.76497,-1.1553 7.00251,-1.3546 7.64959,-0.47091 0.40067,0.54717 0.53045,3.53645 0.17562,4.04492 -0.43085,0.61739 -2.19022,1.45573 -4.21747,2.00963 -4.4225,1.20833 -5.95087,2.35279 -14.48038,10.84297 -6.53378,6.50366 -7.86197,7.49758 -6.01342,4.49998 0.44317,-0.71864 1.13209,-1.84864 1.53094,-2.51112 0.39885,-0.66248 1.10421,-1.68631 1.56748,-2.27518 0.82816,-1.0527 2.54557,-3.91892 2.54557,-4.24836 0,-0.34266 -1.34413,-0.14749 -4.17981,0.60691 -6.18612,1.64576 -19.20683,8.23448 -25.62197,12.96521 -1.05431,0.77748 -2.63963,1.90608 -3.52293,2.50801 -2.35088,1.60199 -6.95672,6.25195 -7.75707,7.83136 -0.85453,1.68634 -0.84633,2.04027 0.0573,2.47338 0.80802,0.38727 1.09874,1.38666 1.12645,3.87235 0.0183,1.63762 -0.14693,2.15496 -0.79967,2.5043 -0.36888,0.19742 -0.66598,0.10652 -1.24538,-0.38101 z m 27.75665,3.33631 c 0,-0.28485 0.11002,-0.8073 0.2445,-1.161 0.65576,-1.72477 1.06647,-7.17629 0.69455,-9.21877 -0.19593,-1.07594 -2.02451,-3.24332 -3.91542,-4.64086 -2.20232,-1.6277 -2.64697,-2.4152 -2.63286,-4.66287 0.007,-1.03467 0.16513,-2.46275 0.35251,-3.17349 0.56658,-2.14906 1.46665,-2.32591 3.29963,-0.64833 0.68363,0.62567 1.92935,2.0595 2.76827,3.18628 2.5506,3.42583 3.1357,6.74613 2.25075,12.77255 -0.43661,2.97328 -1.31155,6.75917 -1.7525,7.58308 -0.35293,0.65946 -1.30943,0.63273 -1.30943,-0.0366 z m -25.69617,32.884427 c -7.64841,-1.66181 -10.3171,-2.7727 -12.56228,-5.229287 -1.56623,-1.7137 -2.20248,-3.2766 -2.94704,-7.23918 -1.25741,-6.69201 -1.87825,-14.7072 -1.88549,-24.34195 -0.003,-3.53477 -0.18233,-6.26748 -0.66427,-10.10276 -0.8406,-6.68945 -0.93471,-7.24236 -3.77046,-22.15062 -0.59458,-3.12589 -0.50706,-5.74679 0.25998,-7.78461 C 108.88479,1.60493 109.99216,0 110.98438,0 c 1.40215,0 2.40756,4.24447 3.29702,13.91876 0.12859,1.39856 0.60926,5.55412 1.06817,9.23456 1.13889,9.13379 1.25249,10.76419 1.59458,22.88564 0.32943,11.67227 0.39237,12.12975 2.29354,16.66847 0.79178,1.89024 1.22065,2.54279 2.19899,3.34586 2.16802,1.77963 9.6634,4.13081 13.32698,4.18046 1.98104,0.0269 2.31859,-0.0519 4.19414,-0.97848 2.09917,-1.03706 3.20401,-2.11354 4.87227,-4.74719 1.16807,-1.84401 2.55963,-3.47969 2.96036,-3.47969 0.19824,0 0.99222,1.05395 1.7644,2.3421 1.95563,3.26241 3.77559,4.77391 6.85793,5.69562 2.10768,0.63027 5.83323,-0.5889 8.86829,-2.90211 0.95558,-0.7283 4.06191,-4.47883 4.06191,-4.90427 0,-0.12724 0.12045,-0.23134 0.26766,-0.23134 0.14722,0 0.26767,0.32649 0.26767,0.72553 0,0.39904 0.26607,1.41169 0.59126,2.25033 0.53175,1.37136 0.7543,1.61858 2.21144,2.45665 0.8911,0.51252 2.10585,1.07736 2.69944,1.2552 2.42586,0.72681 3.23255,-0.0838 3.60307,-3.62044 0.21527,-2.05485 1.041,-6.44689 1.49375,-7.94526 0.0767,-0.25381 0.48951,-0.71074 0.91738,-1.01541 1.29292,-0.92064 2.0398,-0.30973 3.4258,2.8021 1.43748,3.22742 2.15227,7.69972 1.67169,10.45942 -0.65213,3.74478 -1.47232,5.41554 -4.69143,9.55657 -2.40177,3.089617 -3.2154,3.623487 -4.80573,3.153357 -1.27582,-0.37717 -6.66486,-2.65007 -10.4635,-4.413137 l -2.64599,-1.22809 -1.42495,1.0124 c -6.14431,4.365367 -8.50809,5.121117 -11.65903,3.727617 -1.78795,-0.79072 -3.1241,-2.307277 -4.55351,-5.168377 l -1.09188,-2.18547 -2.06528,2.74314 c -3.54732,4.711637 -5.62588,6.092917 -9.34776,6.211927 -1.25135,0.04 -2.81721,-0.045 -3.47969,-0.18895 z m -3.41277,21.525233 c -0.84046,-0.33913 -0.0355,-0.92997 4.04104,-2.96616 4.61786,-2.306563 8.46321,-4.699113 9.48905,-5.904013 0.33831,-0.39735 1.29258,-1.74141 2.12061,-2.98679 2.81061,-4.22726 4.73893,-5.81184 7.40779,-6.08729 1.3821,-0.14265 1.51422,-0.10327 2.22089,0.66193 0.41325,0.44748 1.03155,1.18633 1.37398,1.64188 1.02688,1.36609 2.66943,0.97521 4.52285,-1.0763 1.91047,-2.11466 3.34186,-2.3773 4.60495,-0.84495 l 0.82249,0.99783 0,-1.00643 c 0,-1.96145 1.65062,-4.73659 2.81727,-4.73659 0.97955,0 1.46543,1.18966 1.46543,3.58806 0,2.29034 -0.8679,5.11115 -1.91584,6.22683 -0.74097,0.78886 -1.25178,0.75918 -4.89534,-0.28448 l -2.39465,-0.68591 -1.88804,1.82816 c -2.05814,1.99286 -3.38695,2.82331 -4.13677,2.58533 -0.26516,-0.0842 -1.15325,-0.67417 -1.97353,-1.31113 -2.72989,-2.1198 -3.69863,-2.20958 -5.57268,-0.51649 -1.09189,0.98645 -5.42299,6.27171 -6.74614,8.232333 -0.39335,0.58285 -1.34385,1.45612 -2.11222,1.94059 l -1.39703,0.88086 -3.75977,-0.0211 c -2.06786,-0.0116 -3.91032,-0.0819 -4.09434,-0.15613 z m -26.368922,-3.506633 -3.67686,-3.68391 3.83677,-3.82992 3.836772,-3.82992 2.63446,2.84494 2.63447,2.84493 2.83416,-2.82537 2.83416,-2.82537 3.81047,3.81729 3.81048,3.81728 -3.68402,3.67698 c -2.02622,2.022333 -3.78885,3.676973 -3.91696,3.676973 -0.12812,0 -1.46097,-1.13718 -2.9619,-2.52707 l -2.72895,-2.527063 -2.51656,2.527063 c -1.38411,1.38989 -2.641,2.52707 -2.7931,2.52707 -0.1521,0 -1.93112,-1.65776 -3.953392,-3.683903 z m -65.374419,3.124833 c -4.40742,-0.77217 -10.71457,-2.36371 -12.84033,-3.240113 -10.199151,-4.20491 -17.0526708,-10.98367 -20.46695084,-20.24368 -0.88806,-2.408537 -1.03684,-3.728417 -0.44584,-3.955197 0.2154,-0.0827 1.83636004,0.9831 3.81427004,2.50784 9.2176098,7.105697 15.4416908,10.133737 26.4591608,12.872467 7.507449,1.86621 11.536219,2.27801 20.652399,2.11099 7.73388,-0.14169 10.34121,-0.43259 19.83986,-2.21358 5.91638,-1.10931 16.35929,-3.84379 18.99653,-4.97424 0.64013,-0.27439 1.90366,-0.69059 2.80785,-0.92489 1.87944,-0.48701 3.46733,-1.23937 4.23414,-2.00618 1.86647,-1.86648 -2.8273,-5.647167 -8.58057,-6.911397 -4.1974,-0.92233 -7.93642,-1.37114 -11.42306,-1.37114 l -3.29871,0 0,-2.02413 c 0,-2.07176 0.39851,-3.78413 1.42603,-6.12765 0.74814,-1.70632 1.61059,-2.72433 2.82342,-3.33269 2.46848,-1.23819 13.28795,-4.82557 17.56553,-5.82415 0.8833,-0.2062 1.91674,-0.49756 2.29652,-0.64746 l 0.69051,-0.27256 -0.59274,-1.25783 c -2.0346,-4.31746 -2.70143,-8.30318 -1.86851,-11.16832 0.73026,-2.51201 2.17131,-5.14037 3.07432,-5.60733 1.232662,-0.63744 1.731772,-0.51075 2.345312,0.59531 1.47242,2.65443 3.43846,10.83851 3.12662,13.01525 -0.4266,2.97774 -2.9295,8.06449 -5.586592,11.35383 -0.51041,0.63187 -1.05795,1.63137 -1.21675,2.22112 -0.26298,0.97661 -0.23378,1.1187 0.32729,1.59263 0.33882,0.2862 0.91717,0.59888 1.28521,0.69484 2.590632,0.6755 5.035262,2.69398 6.805732,5.61935 1.24113,2.05073 1.18124,2.56262 -0.78436,6.703467 -2.30101,4.84744 -5.840472,9.10472 -9.634892,11.58888 -3.88635,2.54434 -12.94392,6.45711 -17.44523,7.53616 -0.71036,0.17029 -2.01427,0.52624 -2.89757,0.79101 -2.01265,0.603293 -4.22731,1.030183 -12.35989,2.382453 l -6.47118,1.07601 -9.85659,-0.0216 c -8.46947,-0.0186 -10.270949,-0.0942 -12.800939,-0.53745 z"/>
</svg>