<?xml version="1.0" encoding="UTF-8" standalone="yes"?>
<svg>
<path
	d="m 71.38842,34.072731 -4.881,4.849 c -0.811,0.806 -0.927,0.951 -1.154,1.447 -0.318,0.695 -0.428,1.857 -0.271,2.015 0.505,0.51 2.293,-0.728 2.915,-1.187 5.449,-4.019 7.931,-6.55 8.81201,-11.753 0.448,-2.645 -0.95201,-3.669 -3.43101,-4.006 -3.931,-0.536 -7.832,0.012 -9.36,2.972 0.239,11.301 0.574,4.838 3.908,4.036 3.709,-0.892 7.697,-2.875 3.462,1.627 z m -4.71093,-17.85894 -0.14,-3.203 c -0.057,-1.295 -0.038,-1.527 0.187,-2.32 0.167,-0.589 0.343,-1.2320003 0.789,-1.6470003 1.088,-1.011 3.782,-0.661 5.031,-1.494 1.799,-1.198 1.8,-5.316 0.416,-6.98500001 -1.467,-1.76899999 -4.434,1.04100001 -5.65,2.64900001 -0.746,0.988 -1.453,2.12 -1.771,3.441 -0.148,0.612 -0.229,1.307 -0.344,1.916 l -0.565,2.9790003 -1.8639,-2.3720003 c -2.5514,-3.36 -1.7733,-4.358 -5.5224,-5.272 -1.2561,-0.306 -3.9802,-0.192 -4.5038,1.223 -0.4097,1.106 0.5522,3.798 1.1547,4.437 0.4633,0.4910003 2.3394,1.7110003 3.1144,1.7860003 1.2663,0.122 3.8538,-0.649 3.8538,-0.649 0,0 2.0883,3.006 3.3642,4.417 0.556,0.616 1.017,1.112 1.73,1.126 0.295,0.005 0.72,-0.032 0.72,-0.032 z m 14.759,19.699 0.559,-0.01 c 0.251,-0.004 0.318,-0.157 0.673,-1.528 2.043,-7.888 2.416,-12.243 -2.609,-17.301 -0.828,-0.833 -1.792,-1.532 -2.413,-0.786 -0.422,0.507 -0.852,4.083 -0.66,4.864 0.336,1.365 1.332,1.808 2.482,2.736 2.598,2.094 3.249,3.665 2.918,6.454 -0.253,2.141 -0.95,5.571 -0.95,5.571 z m -23.9218,-1.568 c -0.0412,-1.117 -0.1672,-2.519 -0.5341,-2.871 -0.2127,-0.205 -0.5063,-0.057 -0.6905,-0.167 -0.8283,-0.497 0.5807,-2.548 1.2521,-3.332 6.0943,-7.114 21.8883,-15.946 30.2333,-17.774 0.796,-0.174 1.59,-0.3140003 1.741,-0.045 0.074,0.134 -0.01,0.369 -0.138,0.634 -0.302,0.624 -0.784,1.378 -1.32,2.187 -11.113,16.782 6.417,-6.5070003 11.391,-7.1620003 0.455,-0.224 0.882,-0.405 1.261,-0.525 1.935,-0.609 4.032,-0.738 4.286,-2.594 0.036,-0.26 0.041,-0.585 0.032,-0.899 -0.084,-3.04 -5.044,-1.58600001 -8.54,-0.256 -3.236,1.23 -8.04,3.258 -13.136,5.616 -6.594,3.0510003 -26.3367,12.2080003 -29.1148,20.1620003 -0.8952,2.563 -0.7288,5.435 1.0558,7.905 0.0765,0.106 0.146,0.202 0.2094,0.288 -0.8056,-1.094 2.184,3.506 2.0118,-1.167 z M 16.48,52.658301 c 0.194,-0.509 0.389,-0.924 0.511,-1.142 l 2.29,-3.767 2.799,1.801 c 1.313,0.846 2.797,2.363 4.622,4.044 0.305,0.282 0.342,0.338 0.37,0.565 0.158,1.29 -1.855,2.307 -2.902,2.895 -0.257,0.144 -0.52,0.28 -0.781,0.401 -6.388,2.946 -7.459,-0.485 -7.528,-2.412 l 0.619,-2.385 z m 12.82,6.739 c 0.07,-0.098 0.138,-0.195 0.203,-0.292 2.533,-3.795 1.777,-9.962 -2.241,-13.189 -0.74,-0.594 -1.374,-1.048 -1.891,-1.437 l -2.512,-1.889 3.268,-5.421 c 1.255,-2.082 2.675,-4.23 3.991,-6.678 1.348,-2.507 6.58,-13.71 2.941,-15.896 -3.886,-2.335 -12.027,7.932 -12.991,11.212 -0.284,0.963 -0.38,1.967 0,2.12 0.229,0.093 0.634,-0.127 1.059,-0.441 3.344,-2.478 7.226,-10.336 10.017,-6.532 2.022,2.755 -3.478,9.061 -5.949,12.922 -1.397,2.182 -2.339,3.817 -3.149,4.96 l -1.882,2.653 -2.763,-0.844 c -1.199,-0.355 -3.389,-1.417 -2.523,-2.893 0.185,-0.316 0.561,-0.532 0.759,-0.812 l 1.126,-1.051 -4.528,-3.954 c -2.851,-2.49 -6.41,-5.064 -6.41,-5.064 0,0 -0.826,1.414 -1.346,2.492 -1.954,4.051 0.685,3.359 2.666,6.974 0.684,1.248 0.684,2.73 1.334,4.102 0.774,1.637 2.473,3.117 4.027,4.122 0.464,0.301 0.915,0.559 1.318,0.814 l 1.899,1.201 -0.512,2.331 c -0.252,1.149 -0.729,2.507 -1.179,3.69 -0.807,2.124 -1.069,5.867 -0.528,7.533 0.17,0.523 0.387,1.074 0.617,1.606 1.178,2.723 2.845,3.886 4.582,4.184 6.464,1.11 11.281,-7.479 10.597,-6.523 z m -29.3,9.37 c 0.166,2.296 1.237,3.723 3.185,4.135 2.513,0.532 3.935,-0.831 4.579,-3.588 0.141,-0.605 0.109,-1.109 -0.28,-1.352 -0.74,-0.463 -2.774,0.017 -3.757,-0.505 -1.223,-0.649 -1.534,-3.411 -1.231,-4.702 0.303,-1.292 1.075,-2.676 1.285,-3.672 0.042,-0.202 0.062,-0.387 -0.026,-0.491 -0.011,-0.013 -0.022,-0.025 -0.033,-0.037 -2.958,-0.674 -3.677,10.832 -3.722,10.212 z m 35.157,-33.39 c 0,0 -2.689,4.9 -2.806,6.841 -0.107,1.789 3.251,7.11 3.978,8.541 2.004,3.944 2.384,4.747 0.39,7.057 -2.511,2.908 -13.7,12.133 -17.102,13.985 -4.153,2.26 -11.821,5.971 -16.868,8.451 -1.066,0.523 -1.184,0.617 -1.184,0.933 l 0,0.704 c 0,0 3.672,0.131 6.465,0 6.08,-0.286 8.804,-1.982 13.46,-4.973 2.354,-1.512 5.721,-4.008 8.373,-6.138 0.932,-0.748 8.711,-8.376 9.515,-9.194 2.057,-2.091 2.483,-5.521 2.027,-7.825 -0.653,-3.293 -1.789,-9.3 -1.377,-9.521 0.847,-0.454 1.719,0.212 1.409,-1.177 -0.199,-0.891 -0.895,-1.917 -2.052,-3.253 -1.647,-1.902 -4.228,-4.431 -4.228,-4.431 z m 28.112,19.407 1.871,-1.055 0.195,1.439 c 0.042,0.309 0.086,0.636 0.197,0.901 0.518,1.235 4.094,1.916 5.061,1.915 1.121,-0.001 5.576,-1.189 7.149,-2.312 l 1.845,-1.564 1.106,1.596 c 2.094,2.359 10.047,-0.684 11.033,-1.277 0.421,-0.254 0.798,-0.524 1.122,-0.813 1.036,-0.926 4.307,-7.104 4.344,-8.206 0.078,-2.296 -2.173,-11.271 -4.663,-12.55 -1.561,-0.802 -2.827,1.508 -3.302,2.896 -1.325,3.874 -1.258,4.812 0.736,7.416 1.028,1.343 2.15,4.028 1.437,4.816 -0.316,0.348 -2.761,0.727 -4.785,0.985 l -0.017,-0.046 c -0.833,0.069 -1.487,0.037 -1.688,-0.112 -1.535,-1.137 -1.367,-3.627 -3.255,-2.635 -0.653,0.343 -1.311,1.122 -2.035,1.73 -0.731,0.615 -1.487,0.926 -2.308,1.23 -1.593,0.587 -3.374,0.701 -5.045,0.688 -1.178,-0.009 -2.157,-0.048 -2.157,-0.048 0,0 0.113,-1.032 0.277,-1.865 0.17,-0.86 1.732,-4.446 1.171,-4.893 -0.131,-0.105 -0.39,0.016 -0.68,0.192 -1.474,0.895 -3.741,3.22 -5.595,4.394 -2.54,1.609 -7.083,2.945 -9.461,2.655 -3.804,-0.464 -6.326,-0.878 -6.801,-3.507 -0.134,-0.745 -0.157,-0.973 -0.226,-2.274 L 46.458,0.06030069 c 0,0 -1.161,-0.135 -1.931,0 -1.755,0.308 -3.502,4.99000001 -3.379,6.51600001 0.087,1.079 0.682,2.03 0.966,3.128 0.482,1.8680003 0.055,4.2270003 0,6.6470003 -0.111,4.818 2.452,13.68 2.896,19.574 0.169,2.247 0.025,4.31 0,6.902 -0.033,3.423 1.077,11.794 1.689,12.743 0.99,1.533 4.962,2.351 8.047,2.185 3.694,-0.199 6.423,-1.787 8.523,-2.971 z m -27.231,-36.514 0.512,-0.009 c 0.23,-0.004 0.292,-0.144 0.617,-1.4 C 39.039,9.6353007 39.381,5.6443007 34.776,1.0103007 34.018,0.24730069 33.134,-0.39369931 32.565,0.29030069 c -0.386,0.465 -0.78,3.74000001 -0.604,4.45600001 0.308,1.251 1.22,1.657 2.274,2.507 2.38,1.918 2.976,3.3580003 2.674,5.9130003 -0.233,1.962 -0.871,5.104 -0.871,5.104 z m 20.716,50.497 c 0.167,2.296 1.238,3.723 3.186,4.135 2.513,0.532 3.934,-0.831 4.578,-3.588 0.142,-0.605 0.11,-1.109 -0.28,-1.352 -0.74,-0.463 -2.773,0.017 -3.756,-0.505 -1.223,-0.649 -1.534,-3.411 -1.232,-4.702 0.303,-1.292 1.075,-2.676 1.285,-3.672 0.043,-0.202 0.062,-0.387 -0.026,-0.491 -0.011,-0.013 -0.022,-0.025 -0.033,-0.037 -2.958,-0.674 -3.677,10.832 -3.722,10.212 z"
	style="stroke:none; fill:#000000"/>
</svg>