<?xml version="1.0" encoding="UTF-8" standalone="no"?>
<svg>
  <path
     style="stroke:none; fill:#000000"
     d="m 43.249729,39.506989 0.755,-0.0112 c 0.33875,-0.006 0.43,-0.19 0.90875,-1.845 2.75875,-9.51375 3.2625,-14.7675 -3.5225,-20.86875 -1.1175,-1.005 -2.42,-1.84875 -3.2575,-0.9475 -0.57,0.61125 -1.15125,4.92375 -0.89125,5.86625 0.45375,1.6475 1.7975,2.18125 3.35125,3.3 3.50625,2.52625 4.38625,4.42125 3.94,7.78625 -0.3425,2.5825 -1.28375,6.72 -1.28375,6.72 z m -24.49875,-22.15875 c -0.535,2.99 0.11625,3.72375 2.34,2.80625 1.515,-0.625 21.055,-10.7812504 23.90875,-13.8212504 1.15,-1.225 2.29625,-3.39125 2.70125,-5.34124997 0.24875,-1.20001 -0.155,-1.15751 -1.60125,-0.6775 -3.35375,1.11499997 -25.46125,13.13875037 -26.15375,14.22500037 -0.6475,1.015 -1.0625,2.0675 -1.195,2.80875 z m -3.51,75.78876 c 0,0 8.67625,0.285 13.7975,-0.53875 10.36375,-1.6675 23.17125,-12.49125 28.1925,-20.17 6.965,-10.65251 5.31625,-11.60126 3.55625,-23.55501 -1.19,-8.085 -1.46,-21.76375 -1.52125,-28.09125 l -0.0362,-3.745 3.295,0.51625 c 4.10875,0.6425 6.7325,2.2025 0.57125,-4.7425 -0.47875,-0.54 -0.96,-1.0725 -1.32875,-1.69375 -2.2775,-3.8412504 -0.67,-10.0750004 -5.37125,-11.00875037 -2.33375,-0.46251 -3.52625,0.59625 -5.405,2.45499997 -3.61125,3.57625 -4.22,4.345 -3.385,7.8050004 0.1575,0.65125 0.58375,1.475 1.08,2.205 1.26375,1.85375 2.88125,1.77 2.98875,3.4375 0.10375,1.625 2.63625,41.18 2.63625,41.18 0,0 -4.03125,-5.685 -6.72875,-8.78375 -1.92625,-2.2125 -3.1725,-3.10625 -4.61875,-4.5875 -2.28625,-2.34125 -13.83375,-19.7025 -16.3425,-24.57 -0.1425,-0.2775 -0.27,-0.53125 -0.39375,-1.07375 -0.15,-0.65625 -0.295,-1.735 -0.295,-1.735 0,0 0.33875,-0.0138 1.03,-0.04 0.64625,-0.165 1.2,-0.33 1.67,-0.49375 l 3.75125,-1.30625 -2.48375,-1.77375 c -1.26375,-0.84 -2.6175,-1.455 -3.34125,-1.99625 -0.6375,-0.475 -1.3175,-0.9975004 -1.9225,-1.6312504 -1.41625,-1.4825 -2.5575,-3.355 -3.60625,-4.8225 l -3.00625,-4.20749997 -2.3725,4.01249997 c -4.48,7.5750004 2.84375,17.1187504 7.07625,24.0412504 5.6375,9.22 14.01,22.3225 16.9375,25.655 2.7525,3.13125 12.53,12.90376 10.94125,17.87751 -0.7925,2.48375 -5.3425,5.43375 -7.82625,6.845 -4.48875,2.55375 -17.63375,7.7725 -26.5725,11.43 -1.54,0.63125 -1.7075,0.7625 -1.68125,1.32375 l 0.0612,1.24625 0.62625,-0.0238 0.0275,0.56 z m 63.92126,2.50875 c 0,0 5.635,-1.4675 7.86875,-1.0625 1.1775,0.215 2.39625,1.90375 3.16125,3.19875 1.3875,2.351251 2.72625,5.377501 3.23375,7.780001 0.17,0.8 0.3525,1.53875 1.385,1.82 0.65125,0.1775 1.64125,0.1875 1.64125,0.1875 0,0 0.003,-0.0125 0.008,-0.0362 0.49375,-2.215 1.59125,-5.93 1.8725,-8.168751 0.29375,-2.35375 0.2275,-3.17 2.741251,-3.02 3.7975,0.225 5.0875,0.75875 6.7575,-1.6575 1.49625,-2.16625 3.1375,-6.59 0.52375,-8.02375 -8.08375,-1.735 -11.101251,6.7425 -11.607501,8.6825 -0.71625,2.74 -1.015,5.678751 -1.015,5.678751 0,0 -1.98,-5.073751 -3.4375,-7.815001 -1.63875,-3.0825 -5.8675,-7.23375 -10.43,-6.19625 -2.26625,0.515 -3.0625,1.9925 -3.06125,3.94875 0.001,1.8 0.35875,4.68375 0.35875,4.68375 z m 57.312511,-63.00126 -6.52501,5.7925 c -1.085,0.9625 -1.23875,1.135 -1.5425,1.7275 -0.425,0.83 -0.5725,2.21875 -0.36375,2.4075 0.67625,0.60875 3.06625,-0.87 3.89875,-1.41875 7.28376,-4.8 10.60251,-7.8225 11.78001,-14.03875 0.59875,-3.15875 -1.27375,-4.38125 -4.58625,-4.785 -5.25626,-0.63875 -10.47126,0.015 -12.51376,3.55125 0.31875,13.49875 0.7675,5.77875 5.225,4.82 4.95876,-1.065 10.29001,-3.43375 4.62751,1.94375 z m 14.8425,69.465011 c 0.23875,2.95125 1.78,4.785 4.5825,5.315 3.615,0.6825 5.65875,-1.06875 6.585,-4.6125 0.20375,-0.77625 0.1575,-1.425 -0.4025,-1.7375 -1.065,-0.59375 -3.98875,0.0225 -5.40375,-0.6475 -1.75875,-0.835001 -2.20625,-4.383751 -1.77125,-6.043751 0.43625,-1.66 1.54625,-3.43875 1.84875,-4.71875 0.0613,-0.25875 0.0888,-0.4975 -0.0375,-0.63125 -0.015,-0.0163 -0.0312,-0.0325 -0.0475,-0.0475 -4.255,-0.86625 -5.28875,13.921251 -5.35375,13.123751 z m 13.48625,-88.292511 -7.135,6.92375 7.135,6.9225 7.13375,-6.9225 -7.13375,-6.92375 z m 0,21.03875 4.5875,4.45375 7.13375,-6.92375 -7.13375,-6.92375 -4.5875,4.4525 -4.58875,-4.4525 -7.13375,6.92375 7.13375,6.92375 4.58875,-4.45375 z m -55.33751,-24.47625 c -0.3225,-0.9287504 -0.53875,-1.8062504 -0.57625,-1.8737504 -1.87875,-3.44375 -6.85125,-8.17374997 -10.760001,-5.29125 -2.3025,1.6975 -3.34125,3.5225 -3.48625,5.8175 -0.57625,9.1737504 8.220001,6.6437504 11.282501,4.8500004 1.2225,-0.71625 1.8825,0.53875 2.56125,1.97 -0.0113,-0.0238 2.6625,6.4625 5.28,6.05625 3.9825,-0.6175 2.25875,-6.2125 2.015,-8.07125 -0.13625,-1.035 -0.1375,-1.9225 0.26375,-2.29 0.61125,-0.56 0.815,-0.625 1.7325,-0.625 l 1.6625,0 c 0.955,0 1.14125,-0.009 1.8625,-0.085 2.94,-0.31 3.68875,-2.1737504 4.0225,-4.5962504 0.3225,-2.35 0.13625,-4.5775 -1.3625,-5.195 -9.21125,-3.79751 -10.5375,3.64125 -11.47625,8.11625 -1.39375,6.6425004 -2.86,1.6812504 -3.02125,1.2175004 z m -13.562501,22.02125 c -2.68,3.37875 -2.5225,6.935 0.025,11.53375 0.42375,0.76375 1.13875,1.19 1.6725,0.3975 0.455,-0.675 0.72625,-3.6825 0.53,-4.46875 -0.32875,-1.32125 -0.81625,-1.65625 -0.58625,-2.485 0.0737,-0.265 0.2625,-0.575 0.53875,-0.91625 5.673751,-7.00375 42.855011,-22.745 51.237511,-25.17375 0.40625,-0.1175 0.73875,-0.2025 0.97625,-0.24875 1.6325,-0.3125 -0.06,2.33875 -0.7075,3.77625 -0.1475,0.325 -1.73625,5.12375 -0.885,5.49125 0.155,0.0663 0.3775,0.0525 0.56625,0.0312 0.24125,-0.0263 0.3175,-0.11625 0.65,-0.85 5.21875,-11.5237504 11.00875,-11.7600004 14.03375,-12.6300004 2.0475,-0.59 4.72625,-3.85125 3.93125,-6.18499997 -0.4625,-1.36126 -3.0775,-0.3075 -4.6025,0.12625 C 157.626,2.4069386 135.94475,11.204439 123.84849,16.063189 c -24.286251,9.755 -28.221251,16.68625 -27.945001,16.3375 z m 34.008751,43.74751 c -3.43875,0.40875 -7.77,0.57875 -9.2025,0.4425 -2.44,-0.23125 -5.5175,-0.85375 -5.5175,-0.85375 0,0 2.435,-6.2 3.8325,-7.99125 1.08375,-1.39 3.55625,-0.41 6.8575,0.4575 0.13875,0.0362 0.2775,0.0738 0.41875,0.11125 6.73375,1.84375 13.88001,6.615 3.61125,7.83375 z m -28.67125,-11.7425 c 4.3825,-3.51626 7.51875,-4.81001 10.72875,-0.62625 2.14625,2.7975 3.46125,4.68125 2.15625,5.33875 -0.5325,0.2675 -2.84625,0.83125 -5.285,1.33375 -6.7975,1.4025 -14.835001,-0.24 -7.6,-6.04625 z M 41.440979,39.816989 c 0,0 1.7775,-0.0962 4.6775,-0.25375 6.22375,-0.33875 6.9,-0.0375 12.8725,-1.7125 7.125,-1.9975 11.00375,-4.415 16.78126,-10.505 0.99625,-1.05 2.105,-2.12375 2.9875,-2.855 2.065,-1.70875 2.81375,0.27625 3.22625,1.96875 2.75,11.2525 4.29875,10.02875 2.1325,21.455 -0.69125,3.645 -0.5025,6.12375 4.915,7.1225 1.01375,0.1875 1.965,0.2575 2.8375,0.2125 12.361251,-0.63375 2.62125,-10.1225 0.585,-10.9375 -5.0725,-2.02875 -0.70125,5.1925 -2.48875,5.6 -0.145,0.0325 -0.40125,0.01 -0.82375,-0.06 -0.85625,-0.1425 -1.71375,-0.41125 -2.21625,-0.9375 -0.4675,-0.48875 0.52375,-6.21875 0.89125,-10.035 0.2525,-2.615 -1.64,-11.415 -2.94125,-14.63 -0.84625,-2.09 -2.04,-4.1375 -2.09875,-5.7525 -0.085,-2.29125 1.4225,-4.82375 1.81875,-7.19875 0.27125,-1.6287504 -0.23875,-3.5037504 -1.1475,-5.2550004 -1.34,-2.585 -4.9575,-7.75001 -9.78375,-5.48124997 -8.27876,3.89249997 -2.92626,14.24375037 2.0125,18.26625037 1.11375,0.90625 2.16875,1.37125 1.4725,2.45625 -0.4175,0.64875 -1.44,1.54375 -2.405,2.30875 -1.57125,1.245 -7.21126,4.61875 -12.00501,7.2775 -4.4575,2.47375 -9.8925,4.48 -14.69125,6.365 -3.5875,1.40875 -6.60875,2.58125 -6.60875,2.58125 z m 39.92376,-28.3475 c 0.44625,1.765 0.445,3.13125 -0.49125,4.22125 -1.015,1.18 -2.345,-0.7475 -3.66125,-2.26375 -1.88125,-2.1675 -7.18751,-6.2537504 -2.54625,-7.4975004 0.285,-0.0763 0.71875,-0.0725 1.19125,-0.015 2.19625,0.26625 5.2675,4.6087504 5.5075,5.5550004 z m 33.798751,41.34125 c -0.38375,0.33625 -0.78125,0.60125 -1.24125,0.72625 -0.76625,0.20875 -1.7075,0.0312 -2.99375,0.002 -7.3675,-0.165 -14.332501,9.3 -15.942501,13.78376 -0.8525,2.3775 -1.45625,4.52375 -1.45625,4.52375 0,0 -0.6475,0.0462 -1.53375,0.0912 -5.25625,0.2625 -9.56,-0.4275 -13.45125,-3.3875 -6.21875,-4.73125 -9.03876,-12.92751 -11.33251,-4.71 -1.10875,3.96875 -1.41875,8.77875 0.08,11.53 0.985,1.8075 2.94375,3.24375 3.91876,5.185 1.71875,3.42375 1.5475,5.42375 -1.37126,7.47375 -10.14125,7.12 -31.165,12.300001 -43.26125,15.057501 -1.78375,0.40625 -3.77375,0.805 -5.7125,1.13 -19.1312602,3.205 -31.30126,3.59375 -8.42625,5.845 15.88,1.5625 31.47,-1.95875 45.015,-7.8425 14.58001,-6.333751 20.07251,-8.576251 17.94376,-21.187501 -0.8125,-4.81125 0.05,-4.31625 2.505,-3.02125 7.17,3.7825 11.41625,1.83 19.54875,1.765 1.5675,-0.0125 2.758751,0.035 3.090001,0.17 1.0925,0.44875 1.68125,1.25125 2.65625,1.91625 3.24,2.21375 11.44,3.15875 19.18625,2.75125 8.59,-0.4525 27.39501,-5.7425 18.69251,-17.37875 -2.74625,-3.67375 -10.86251,-6.81251 -14.80251,-7.72501 -3.39875,-0.78625 -8.345,-1.68125 -8.345,-1.68125 0,0 3.375,-1.63125 5.99375,-2.58875 0.3025,-0.11 0.66375,-0.22875 1.06875,-0.35 4.58125,-1.3725 13.87001,-3.1225 15.48251,1.10125 0.0888,0.2325 0.18125,0.47375 0.27625,0.72 2.9725,7.68501 11.0625,8.31126 19.9,3.64375 5.29625,-2.79875 3.71625,-2.76125 9.23,-0.1575 12.81875,6.05251 17.715,2.01375 16.09375,-11.29875 -0.0412,-0.34 -0.085,-0.67875 -0.13125,-1.0125 -0.27125,-1.95125 -1.105,-9.74625 -4.6,-3.775 -1.92875,3.29375 -2.45625,4.32375 -1.63625,6.91375 1.0475,3.31 2.14875,4.42125 -3.42375,3.45125 -2.2975,-0.4 -4.62875,-1.97 -5.47125,-3.59625 -1.525,-2.94125 -0.0138,-4.29125 -3.185,-1.38625 -3.1475,2.88375 -3.805,3.71125 -8.39125,5.0275 -4.52625,1.29875 -8.73875,0.9975 -11.5775,-1.25125 -3.45125,-2.735 -2.9275,-9.20375 -8.955,-8.6175 -11.81376,1.14875 -19.22876,4.22375 -23.44001,8.15875 z" />
</svg>
