<?xml version="1.0" encoding="UTF-8" standalone="yes"?>
<svg xmlns="http://www.w3.org/2000/svg" xmlns:xlink="http://www.w3.org/1999/xlink"
  width="595.276pt" height="841.89pt" viewBox="0 0 595.276 841.89">
  <path
    style="stroke:none; fill:#000000"
    d="m 29.423888,59.424024 c 3.40733,-1.63512 3.7552,-2.03625 5.91949,-0.59151 2.47817,1.65438 6.21638,4.73537 5.32801,6.21638 -0.32861,0.54731 -8.0022,-0.65155 -9.47187,-1.48101 -0.817,-0.46005 -3.02548,-2.24361 -2.36826,-3.49232 0.13711,-0.26062 0.39434,-0.55637 0.59263,-0.65154 z m 56.78617,-12.10096 c -1.42684,0.25746 -2.88038,4.68071 -3.15625,6.25 -0.36252,2.05634 -0.0676,4.07614 1.21875,6.46875 0.50753,0.94254 1.22376,2.26873 1,2.59375 -0.0312,0.045 -0.09,0.0488 -0.15625,0.0625 -0.46502,0.095 -2.00744,-0.73871 -3.34375,-1.6875 -1.55257,-1.1013 -1.79245,-1.39617 -2.84375,-3 -1.49382,-2.27885 -1.95371,-3.15893 -2.84375,0.84375 -0.05,0.055 -0.105,0.10375 -0.15625,0.15625 -1.85134,1.97634 -4.30738,3.27507 -6.90625,1.78125 -0.77753,-0.44627 -1.54372,-1.12371 -2.28125,-2.0625 l -1.625,-2.03125 -2.78125,3.03125 c -0.115,0.11876 -0.23749,0.22374 -0.375,0.34375 -4.95983,3.71109 -9.53558,4.32701 -14.09375,2.15625 -0.29801,-0.21189 -0.57406,-0.50202 -0.84375,-0.8125 -4.89173,-5.63735 -4.06941,-10.50809 -10.28125,-11.75 -2.11783,-0.4238 -5.67829,-0.13715 -7.03125,1.78125 -2.29573,3.25209 -4.30607,13.30536 -3.84375,15.78125 0.46346,2.48271 1.27562,3.96783 2.6875,4.84375 4.29685,2.664 6.36088,1.77101 11.375,0.96875 0.59262,-0.0952 1.26186,-0.20485 2.03125,-0.3125 1.29291,-0.1813 2.48455,-0.39547 2.84375,0 0.64135,0.70707 -0.99026,2.43824 -2.15625,4.09375 -0.51104,0.72634 -1.16613,1.52384 -1.84375,2.3125 -14.23081,12.11111 -12.31018,10.45703 -20.25,14.90625 -1.81302,1.00396 -3.05935,1.6031 -4.75,2.09375 -1.23058,0.35694 -2.68902,0.66507 -4.21875,0.96875 -21.1669601,4.215266 -8.2150201,5.288406 -1.125,5.406246 3.82206,0.0635 13.05507,-2.804816 17.625,-5.093746 9.1852,-4.60052 14.70096,-13.5539 18.03125,-19.3125 1.35955,-2.35068 2.37915,-4.227 3.03125,-6.65625 2.74082,0.16625 5.54975,-0.24747 7.65625,-1.125 1.16756,-0.48627 2.28745,-1.23369 3.40625,-2.4375 l 1.6875,-1.78125 1.34375,1.1875 c 0.87129,0.74878 1.47997,1.28499 2.15625,1.6875 2.2926,1.36382 4.64741,1.39757 6.5625,-0.15625 l 2.15625,-1.75 3.34375,2.15625 c 4.89648,3.12389 9.99363,4.57533 12.4375,-2.75 1.57882,-4.73146 -0.25495,-10.20354 -1.5,-14.8125 -0.13001,-0.48127 -0.26124,-0.98873 -0.375,-1.46875 -0.53088,-2.25713 -1.16394,-2.99203 -1.8125,-2.875 z m -52.77894,-16.72958 c 0,0 0,1.69632 0,1.69632 0,0 0.66878,0.0138 1.46881,0.0113 8.94791,-0.0312 21.60097,-7.00781 27.66249,-13.42935 1.72008,-1.82259 2.2026,-3.55516 3.81892,-0.85629 0.16876,0.28126 0.29377,0.68628 0.39502,1.1663 1.24131,5.87777 1.35256,16.84076 10.70424,14.99443 0.085,-0.0175 0.16625,-0.0362 0.24376,-0.0587 0.35751,-0.10126 0.68628,-0.20376 0.99129,-0.31252 3.2564,-1.15255 4.85647,-5.689 3.56016,-9.02666 -0.38252,-0.98629 -1.0713,-1.92383 -2.08009,-3.19389 -1.04005,-1.30756 -2.73888,-3.91393 -3.90393,-1.04505 -0.79253,1.95259 -0.77503,3.31765 1.0363,4.74897 0.98879,0.78003 1.88883,0.73378 2.57636,2.02134 0.62878,1.17755 -0.66878,1.60882 -2.07884,1.93259 -1.26006,0.28876 -2.73137,0.16625 -3.96018,-0.17501 -2.81137,-0.78129 -5.01272,-8.11912 -4.98272,-10.87549 0.0125,-1.31006 0.015,-2.75763 -0.74504,-4.18769 -0.82253,-1.54882 -1.32006,-1.66008 -1.2638,-2.78888 0.0562,-1.1213 0.60002,-2.5963703 0.81753,-3.9151703 0.007,-0.0513 0.015,-0.10126 0.0225,-0.15126 0.52128,-3.58641 -2.16134,-9.20042 -6.99156,-6.38528996 -0.0325,0.0187 -0.0662,0.0387 -0.0988,0.06 -4.5677,2.82262996 -6.67155,10.09296026 -0.54377,12.92684026 1.51757,0.70253 2.35011,1.07505 1.0563,2.3876 -0.21626,0.22001 -0.43127,0.43252 -0.64378,0.64128 -7.38783,7.21158 -15.10942,8.40913 -24.43359,11.74553 -0.37252,0.13376 -0.75254,0.27127 -1.13755,0.41252 -0.35877,0.13126 -0.71379,0.26376 -1.0238,0.48252 -0.42002,0.29502 -0.46627,0.41252 -0.46627,1.17381 z m 32.17394,-22.2822603 0,2.3401103 c 0,0 -0.49627,0.0188 -0.95254,0 -1.24506,-0.0487 -6.5253,-2.2776103 -5.89902,-3.7789203 0.62503,-1.49757 3.02139,-1.89259 4.23019,-1.70633 0.9713,0.15 2.1176,0.62378 2.51011,1.87633 0.10001,0.31877 0.11126,0.44627 0.11126,1.26881 z m 7.49114,79.9436103 c -3.37141,3.62516 -2.99639,2.10509 -6.71656,-1.21131 -1.1313,-1.00879 -2.81262,-1.85633 -3.64391,-1.68632 -0.61128,0.12375 -1.34256,0.52627 -2.05884,1.02004 -2.41635,1.66508 -4.6452,4.37395 -6.81905,5.83652 -2.2376,1.50631 -6.23278,2.60011 -9.83045,3.04763 -2.19384,0.27252 -9.14666,0.59378 -8.34162,2.40761 0.085,0.19126 0.73878,0.48127 1.53757,0.73254 5.08398,1.603816 14.20189,-0.25877 18.23957,-4.10644 2.31636,-2.20635 5.18897,-4.94397 6.73654,-4.67146 1.45507,0.25501 2.95764,2.00634 4.23895,3.09889 3.02638,2.58262 4.40769,1.81633 7.01281,-1.47257 0.50753,-0.64128 0.59628,-0.71628 0.89504,-0.75128 0.22126,-0.0263 0.43752,0.006 0.66378,0.0387 0.66378,0.095 1.50632,0.29501 2.26886,0.53002 2.78887,0.86254 4.12518,5.20899 5.87026,-0.61753 0.69503,-2.32385 -0.09,-5.04397 -1.06505,-7.14782 -0.51127,-1.1013 -1.22505,-1.95259 -2.11134,-1.60257 -0.0188,0.007 -0.0375,0.0163 -0.0575,0.0275 -2.45386,1.30631 -1.63132,3.22014 -0.79128,5.07273 1.36631,3.01138 1.0738,2.49511 0.33126,1.45756 -2.79012,-3.89767 -5.40774,-1.02379 -6.35903,-0.002 z"/>
</svg>