<?xml version="1.0" encoding="UTF-8" standalone="yes"?>
<svg>
<path
	d="m 105.48641,70.20024 c 0.162,2.241 1.208,3.634 3.11,4.036 2.453,0.519 3.84,-0.811 4.469,-3.503 0.138,-0.59 0.107,-1.082 -0.273,-1.32 -0.723,-0.451 -2.708,0.018 -3.667,-0.492 -1.194,-0.634 -1.498,-3.33 -1.202,-4.59 0.295,-1.261 1.049,-2.612 1.254,-3.584 0.041,-0.197 0.06,-0.378 -0.025,-0.479 -0.011,-0.013 -0.022,-0.025 -0.033,-0.036 -2.887,-0.658 -3.589,10.573 -3.633,9.968 z m -4.212,-53.986 -0.14,-3.204 c -0.056,-1.294 -0.038,-1.526 0.187,-2.32 0.167,-0.588 0.343,-1.232 0.79,-1.647 1.088,-1.01 3.782,-0.661 5.031,-1.493 1.798,-1.199 1.799,-5.316 0.415,-6.985 -1.467,-1.77 -4.434,1.041 -5.649,2.649 -0.747,0.987 -1.454,2.119 -1.772,3.44 -0.147,0.613 -0.229,1.308 -0.344,1.916 l -0.565,2.98 -1.864,-2.372 c -2.551,-3.36 -1.773,-4.359 -5.522,-5.273 -1.256,-0.306 -3.98,-0.191 -4.504,1.223 -0.409,1.107 0.552,3.798 1.155,4.437 0.463,0.491 2.339,1.711 3.114,1.786 1.267,0.122 3.854,-0.649 3.854,-0.649 0,0 2.088,3.006 3.364,4.418 0.557,0.616 1.017,1.112 1.731,1.125 0.295,0.006 0.719,-0.031 0.719,-0.031 z m 3.531,22.986 0.513,-0.009 c 0.23,-0.004 0.291,-0.144 0.617,-1.401 1.872,-7.226 2.213,-11.216 -2.391,-15.851 -0.758,-0.763 -1.642,-1.403 -2.211,-0.719 -0.386,0.464 -0.78,3.74 -0.604,4.455 0.307,1.251 1.22,1.658 2.274,2.507 2.38,1.919 2.976,3.358 2.673,5.914 -0.232,1.961 -0.871,5.104 -0.871,5.104 z m -74.672,7.994 -4.881,4.849 c -0.811,0.806 -0.927,0.95 -1.154,1.446 -0.317,0.695 -0.427,1.857 -0.271,2.015 0.505,0.51 2.293,-0.728 2.915,-1.187 5.449,-4.018 7.931,-6.549 8.812,-11.753 0.448,-2.645 -0.952,-3.669 -3.43,-4.006 -3.932,-0.535 -7.833,0.012 -9.36,2.972 0.238,11.301 0.574,4.839 3.908,4.036 3.708,-0.892 7.696,-2.874 3.461,1.628 z m 26.409,-31.137 -0.454,-8.651 c -0.067,-1.284 -0.093,-1.507 -0.264,-2.234 -0.525,-2.228 -1.936,-3.449 -3.411,-4.237 -1.876,-1.002 -3.307,-1.374 -5.241,0.037 -1.589,1.16 -1.739,5.359 -1.114,6.016 0.466,0.49 1.701,0.445 3.197,0.094 3.735,-0.877 4.109,-0.675 5.082,3.275 0.462,1.877 0.516,3.635 0.289,5.523 -0.483,4.009 -1.617,5.959 0.606,8.312 0.925,0.979 1.892,1.127 4.003,0.693 1.5,-0.309 1.797,-1.006 2.426,-3.083 0.443,-1.462 0.793,-2.771 0.679,-4.229 -0.225,-2.892 -3.352,-8.329 0.417,-9.679 0.696,-0.249 1.6,-0.087 2.38,0.083 1.051,0.229 1.229,0.125 1.783,-1.038 0.455,-0.957 0.982,-1.837 1.272,-2.866 1.087,-3.865 -0.578,-4.956 -3.919,-3.373 -3.832,1.816 -5.554,9.597 -4.735,14.812 0.251,2.15 0.526,4.087 0.526,4.087 0,0 -0.229,-0.003 -0.502,-0.03 -1.073,-0.106 -2.916,-1.53 -3.02,-3.512 z m 25.684,42.329 2.303,0.129 10.81,-0.026 c 1.243,-0.003 1.472,-0.018 2.295,-0.152 1.652,-0.268 2.126,-0.618 1.908,-1.517 -0.712,-2.924 -2.719,-4.774 -5.273,-5.851 -4.116,-1.736 -6.526,0.209 -10.042,4.376 l -2.001,3.041 z m -74.999,-19.784 1.923,-6.853 -3.949,6.866 c -1.354,2.353 -2.432,4.409 -3.217,6.238 -10.0756,23.478 20.774,25.487 35.135,19.583 0.592,-0.243 1.084,-0.475 1.497,-0.689 l 2.736,-1.415 1.551,1.367 c 0.416,0.365 0.772,0.674 1.193,1.027 1.515,1.273 7.693,2.049 9.339,1.721 1.125,-0.224 4.461,-1.33 4.913,-1.784 1.076,-1.079 1.509,-3.645 2.441,-4.001 0.959,-0.366 2.997,1.665 4.574,2.604 2.945,1.753 7.739,3.252 7.739,3.252 0,0 -2.328,3.5 -3.474,5.827 -0.011,0.024 -2.146,5.431 1.692,1.563 1.297,-2.02 1.236,-1.634 2.739,-4.82 0.367,-0.778 0.838,-1.489 1.57,-2.113 0.672,-0.574 0.885,-0.641 2.128,-0.668 0,0 11.787,-0.256 13.786,-0.3 4.42,-0.096 9.598,-3.338 12.137,-7.306 0.653,-1.021 1.132,-1.89 1.24,-2.241 0.529,-1.722 -1.807,-7.304 -3.655,-9.652 -2.788,-3.542 -7.642,-4.205 -10.442,-2.169 -2.92,2.122 -7.574,7.406 -7.574,7.406 0,0 -0.008,-0.156 -0.11,-2.262 0,0 -1.481,-30.624 -1.481,-30.624 0,-0.002 0,-0.002 0,-0.002 -0.06,-1.242 -0.065,-1.491 -0.047,-2.489 0.013,-0.741 0.041,-1.911 0.45,-2.164 0.492,-0.304 1.536,0.722 2.449,1.098 1.422,0.585 1.39,-0.291 1.086,-1.881 -0.744,-3.896 -1.58,-8.939 -3.376,-12.449 -0.568,-1.11 -0.672,-1.237 -1.043,-1.266 -1.656,-0.131 -2.598,1.97 -3.757,3.864 -0.255,0.417 -0.507,0.844 -0.645,1.315 -0.185,0.635 -0.194,0.843 -0.086,2.081 l 0.525,5.985 c 0.109,1.238 0.148,1.411 0.398,1.729 0.972,1.238 0.534,2.717 0.036,3.989 -1.297,3.307 0.157,12.455 0.386,15.885 0.063,0.952 0.101,1.842 0.099,2.626 -0.005,1.486 -0.213,2.788 -0.3,4.617 -0.253,5.345 0.53,15.186 0.53,15.186 0,0 -1.435,0.114 -2.577,0.09 -0.479,-0.01 -0.961,-0.068 -1.444,-0.17 -4.61,-0.968 -10.476,-6.052 -10.638,-10.694 -0.007,-0.221 -0.017,-0.48 -0.026,-0.746 -0.09,-2.58 -1.438,-2.144 -2.319,0.099 -1.801,4.585 -2.058,5.315 -1.198,9.848 0.232,1.224 0.17,1.402 -0.623,1.777 -1.857,0.877 -5.939,0.807 -6.798,0.691 -1.671,-0.225 -5.037,-1.225 -6.289,-2.772 -0.381,-0.47 -0.427,-0.635 -0.463,-1.647 0,0 -0.002,-0.076 -0.014,-0.412 -0.007,-0.192 -0.25,-4.488 -1.938,-0.821 -0.265,0.577 -0.517,1.295 -0.791,1.837 -0.724,1.433 -9.826,4.227 -11.351,4.543 -2.832,0.587 -7.044,0.498 -11.276,-0.298 -15.985,-3.008 -16.595,-8.588 -13.391,-20.006 z m 5.139,-4.638 c 0.127,-0.028 0.243,-0.06 0.345,-0.098 1.384,-0.505 3.268,-2.196 3.393,-3.896 0.065,-0.891 -0.077,-2.209 -0.077,-2.209 0,0 -1.216,-0.025 -2.209,0.077 -0.092,0.009 -0.182,0.02 -0.27,0.031 -0.58,0.072 -1.138,0.188 -1.672,0.317 -8.305,1.992 -8.289,-6.869 -5.92,-12.666 1.009,-2.468 2.594,-4.962 3.445,-7.135 0.053,-0.108 0.103,-0.213 0.151,-0.314 0.119,-0.248 -0.961,0.376 -2.328,1.808 -2.81,2.946 -6.04,10.944 -5.198,17.031 1.081,7.819 6.687,7.859 10.34,7.054 z m 76.959,-8.641 c -0.116,0.35 -0.147,1.129 0.051,1.473 0.157,0.27 0.504,0.249 0.92,0.09 l 24.741,-19.464 c 0.356,-0.644 0.614,-1.386 0.767,-2.283 0.199,-1.163 -0.07,-1.282 -1.511,-0.73 -2.326,0.89 -4.291,2.33 -6.224,3.974 l -17.064,13.714 c -0.699,0.94 -1.273,1.997 -1.68,3.226 z m -54.038,0.482 -2.21,0.078 0.032,0.92 c 0,0 -0.954,0.201 -1.38,0.048 -0.452,-0.163 -0.215,-0.996 0.106,-1.807 3.134,-7.92 3.852,-16.062 0.604,-24.019 -0.372,-0.912 -0.666,-1.249 -1.366,-0.874 -0.637,0.341 -1.498,2.447 -1.528,3.739 -0.037,1.541 1.513,5.457 2.36,8.211 0.47,1.531 0.505,6.726 0.054,8.144 -1.408,4.424 -4.864,7.686 -1.664,11.724 1.052,1.329 5.996,3.213 7.386,2.507 1.233,-0.627 2.895,-5.359 2.374,-6.69 -0.36,-0.919 -1.652,-1.706 -2.898,-1.9 -0.69,-0.107 -0.877,-0.115 -1.87,-0.081 z m -11.799,43.541 -5.431,5.432 5.431,5.431 5.431,-5.431 -5.431,-5.432 z m 25.352,4.278 -4.288,-4.278 -5.444,5.432 5.444,5.431 4.288,-4.278 4.288,4.278 5.445,-5.431 -5.445,-5.432 -4.288,4.278 z"
	style="stroke:none; fill:#000000"/>
</svg>