<?xml version="1.0" encoding="UTF-8" standalone="yes"?>
<svg xmlns="http://www.w3.org/2000/svg" xmlns:xlink="http://www.w3.org/1999/xlink"
  width="595.276pt" height="841.89pt" viewBox="0 0 595.276 841.89">
  <path style="stroke:none; fill:#000000"
    d="m 90.014864,44.771746 -6.10093,6.06093 c -1.0137,1.00745 -1.15869,1.18869 -1.44242,1.80866 -0.39748,0.8687 -0.53498,2.32113 -0.33874,2.51862 0.63122,0.63746 2.8661,-0.90996 3.64356,-1.48368 6.81089,-5.02348 9.91323,-8.18706 11.01442,-14.69047 0.55997,-3.30608 -1.18994,-4.58601 -4.28852,-5.00724 -4.91349,-0.66996 -9.78949,0.015 -11.69939,3.71481 0.29874,14.1255 0.71747,6.04718 4.88475,5.04473 4.636,-1.11494 9.62074,-3.59356 4.32727,2.03364 z m -26.867955,-7.082671 0.69875,-0.0125 c 0.31375,-0.005 0.3975,-0.19625 0.84125,-1.91 2.55375,-9.86 3.02,-15.30375 -3.26125,-21.62625 -1.034997,-1.04125 -2.239997,-1.915 -3.016247,-0.9825 -0.5275,0.63375 -1.065,5.10375 -0.825,6.08 0.42,1.70625 1.665,2.26 3.1025,3.42 3.247497,2.6175 4.061247,4.58125 3.647497,8.0675 -0.31625,2.67625 -1.1875,6.96375 -1.1875,6.96375 z m 25.586592,-17.422214 -0.175,-4.003751 c -0.07125,-1.61875 -0.0475,-1.90875 0.23375,-2.899999 0.20875,-0.73625 0.42875,-1.54 0.98625,-2.05875 1.36,-1.26375 4.7275,-0.82625 6.28875,-1.8674999 2.24875,-1.4975 2.25,-6.6450001 0.52,-8.73125003 -1.83375,-2.21124997 -5.5425,1.30125003 -7.0625,3.31125003 -0.9325,1.235 -1.81625,2.65 -2.21375,4.30125 -0.185,0.765 -0.28625,1.63375 -0.43,2.3949999 l -0.70625,3.723749 -2.329875,-2.964999 c -3.18925,-4.1999999 -2.216625,-5.4474999 -6.903,-6.5899999 -1.570125,-0.3825 -4.97525,-0.24 -5.62975,1.52875 -0.512125,1.3825 0.69025,4.7474999 1.443375,5.5462499 0.579125,0.61375 2.92425,2.138749 3.893,2.232499 1.582875,0.1525 4.81725,-0.811249 4.81725,-0.811249 0,0 2.610375,3.757499 4.20525,5.521249 0.695,0.77 1.27125,1.390001 2.1625,1.407501 0.36875,0.0062 0.9,-0.04 0.9,-0.04 z m 13.736789,26.914065 0.69875,-0.0125 c 0.31375,-0.005 0.3975,-0.19625 0.84125,-1.91 2.55375,-9.86 3.02,-15.30375 -3.26125,-21.62625 -1.034996,-1.04125 -2.239996,-1.915 -3.016246,-0.9825 -0.5275,0.63375 -1.065,5.10375 -0.825,6.08 0.42,1.70625 1.665,2.26 3.102496,3.42 3.2475,2.6175 4.06125,4.58125 3.6475,8.0675 -0.31625,2.67625 -1.1875,6.96375 -1.1875,6.96375 z m 6.03285,40.557876 c 0.20374,2.79985 1.50992,4.54226 3.88729,5.04473 3.06609,0.64872 4.79975,-1.01495 5.58596,-4.37852 0.17249,-0.73746 0.13374,-1.35243 -0.34123,-1.64991 -0.9037,-0.56372 -3.38482,0.0225 -4.58351,-0.61497 -1.49242,-0.79246 -1.8724,-4.16228 -1.50242,-5.7372 0.36873,-1.57616 1.31118,-3.26483 1.56742,-4.47976 0.0512,-0.24624 0.075,-0.47248 -0.0312,-0.59872 -0.0138,-0.0163 -0.0275,-0.0312 -0.0412,-0.045 -3.60856,-0.8237 -4.48601,13.21556 -4.54101,12.45935 z m -82.7846,0 c 0.20374,2.79985 1.50992,4.54226 3.88729,5.04473 3.06609,0.64872 4.79975,-1.01495 5.58596,-4.37852 0.17249,-0.73746 0.13374,-1.35243 -0.34123,-1.64991 -0.9037,-0.56372 -3.38482,0.0225 -4.58351,-0.61497 -1.49242,-0.79246 -1.8724,-4.16228 -1.50242,-5.7372 0.36873,-1.57616 1.31118,-3.26483 1.56742,-4.47976 0.0512,-0.24624 0.075,-0.47248 -0.0312,-0.59872 -0.0138,-0.0163 -0.0275,-0.0312 -0.0412,-0.045 -3.60856,-0.8237 -4.48601,13.21556 -4.54101,12.45935 z M 95.228364,13.697643 c 1.455017,-0.904881 3.320077,-2.092936 4.144587,-2.640259 C 102.66047,8.8750892 108.82541,5.7162304 111.76075,4.709839 112.89947,4.3193841 113.98922,4 114.18242,4 c 0.52758,0 0.60563,0.6674907 0.26119,2.233725 -0.40625,1.8473217 -1.11229,3.2019425 -2.14283,4.111242 -0.80686,0.711925 -2.63573,1.748267 -3.58045,2.028986 -0.2425,0.07242 -0.95678,0.349456 -1.58729,0.616428 -0.63051,0.267095 -1.86066,0.785327 -2.73367,1.151721 -2.37183,0.995467 -3.7648,1.724822 -5.772069,3.022366 -4.599898,2.97339 -10.684754,8.022654 -17.503814,14.524981 -2.011813,1.918392 -4.162229,3.558887 -4.942615,3.770623 -0.194003,0.05278 -0.492079,0.01596 -0.66239,-0.08347 l 0,9.85e-4 c -0.389053,-0.224747 -0.367419,-0.324785 1.132594,-5.232892 0.102566,-0.335586 0.482139,-0.813189 0.911003,-1.146321 5.385078,-6.028905 10.993643,-11.144133 17.666285,-15.300731 z m 17.748476,25.013225 -3.56136,-3.581717 2.71197,-2.821799 2.71196,-2.821922 -2.72181,-2.735387 -2.72182,-2.735509 3.58329,-3.580122 3.58329,-3.580121 3.46062,3.594605 3.46062,3.594483 -2.71385,2.70961 -2.71386,2.70961 2.7029,2.834688 2.7029,2.834687 -3.46174,3.580245 -3.46175,3.580244 -3.56136,-3.581595 z m -38.530199,47.652466 -3.581549,-3.584786 3.582704,-3.459463 3.582707,-3.459463 2.733668,2.711083 2.733668,2.711206 2.82185,-2.711942 2.82185,-2.711942 3.472473,3.46069 3.472472,3.460813 -3.449448,3.582945 -3.449448,3.582945 -2.855559,-2.722866 -2.855562,-2.722744 -2.72414,2.724094 -2.724139,2.724094 -3.581547,-3.584664 z M 52.898393,92.767097 C 51.696517,92.560147 49.98845,91.950838 48.222926,91.099474 46.374683,90.208218 43.32146,87.699052 41.858221,85.868915 39.498841,82.917987 37.583494,79.324854 36.322774,75.484512 35.984659,74.454553 35.13381,70.271873 34.637992,67.20225 c -0.365144,-2.260729 -0.379493,-2.299025 -0.859514,-2.299025 -0.999567,0 -2.835117,1.371682 -4.870314,3.63953 -1.454781,1.621225 -3.6868,5.814706 -6.367724,11.963649 -0.379394,0.870144 -1.246408,2.592265 -1.926701,3.82684 -1.047474,1.900839 -1.438088,2.429996 -2.550556,3.455044 -3.744736,3.450625 -8.042184,4.308617 -11.8737866,2.370709 C 4.8759568,89.494821 3.9551313,88.419815 3.061715,86.508051 1.7422363,83.684411 0.76883882,79.049536 0.17263875,72.751458 -0.17237467,69.106894 0.03159174,61.301009 0.50261582,60.123387 c 0.0930412,-0.232603 0.17474068,-0.343565 0.18152852,-0.246596 0.007365,0.09697 0.17158611,1.088999 0.36621156,2.204512 0.1946378,1.115512 0.4734668,3.218758 0.61962,4.673785 0.3750493,3.733431 0.718197,5.485993 1.5885003,8.11275 1.4069227,4.246385 2.0809926,5.434685 3.5719101,6.296482 0.9351376,0.540449 1.1192315,0.581815 2.593873,0.581815 1.4788387,0 1.6653507,-0.04173 2.7298137,-0.617288 0.836769,-0.452072 1.4415,-0.971286 2.259674,-1.939995 1.287282,-1.524255 1.845456,-2.572134 4.086644,-7.67197 2.857076,-6.501345 3.681239,-8.065861 5.847822,-11.100992 2.208121,-3.093435 5.152481,-6.307775 6.958266,-7.596359 1.243278,-0.887205 2.798122,-1.668481 3.325768,-1.671181 0.460002,0 2.445965,1.310064 3.086586,2.039664 0.582158,0.663072 0.65081,1.025171 0.799823,4.219626 0.109489,2.346406 0.317334,3.178498 1.916575,7.67197 0.798031,2.242195 1.996053,5.336489 2.176157,5.620768 0.137439,0.216892 0.973398,-0.236531 1.181869,-0.6411 1.309399,-6.72611 4.041746,-10.283295 8.741698,-13.749352 3.393479,-2.491859 4.968711,-3.216426 7.003333,-3.221091 1.21129,0 2.370051,0.619743 4.783931,2.570171 3.136946,2.534697 5.536585,3.383974 10.909119,3.861209 3.308741,0.293976 9.402055,0.337796 12.587459,0.09083 1.115513,-0.08715 3.417084,-0.250156 5.114605,-0.363573 3.473356,-0.231989 3.865535,-0.356821 5.040346,-1.604653 1.092788,-1.160806 1.685048,-2.003945 2.800722,-3.987147 1.22206,-2.172474 2.40662,-3.56711 3.02978,-3.56711 0.59267,0 1.21392,0.671664 1.83436,1.983201 0.73362,1.550645 0.71062,2.570416 -0.0974,4.319296 -0.34081,0.737701 -0.57936,1.466565 -0.53012,1.619874 0.23163,0.720885 3.18281,1.754158 6.88166,2.409128 2.36757,0.419299 2.92339,0.457596 5.29097,0.363818 1.45501,-0.05769 3.43476,-0.22622 4.39943,-0.374496 2.58591,-0.397574 5.79955,-1.294844 6.7136,-1.874572 0.92775,-0.58832 0.96207,-0.812453 0.52358,-3.419816 -0.3905,-2.321856 -0.40952,-2.380897 -0.76615,-2.380897 -0.57386,0 -0.87259,-0.582796 -1.2406,-2.420298 -0.32181,-1.60674 -0.84516,-3.323461 -1.95045,-6.397993 -0.41148,-1.144603 -0.46092,-2.873475 -0.11845,-4.144629 0.3178,-1.179708 1.92115,-5.105973 2.84491,-6.966428 0.40937,-0.824483 0.83878,-1.790368 0.95425,-2.146331 0.39964,-1.232243 0.56964,-1.163751 1.72614,0.695477 2.28461,3.672672 3.89692,7.147356 4.82907,10.406866 0.26036,0.910404 0.33857,1.746547 0.33857,3.619768 0,2.707523 -0.15292,3.941731 -0.88926,7.177183 -0.45703,2.008118 -0.72382,2.667017 -2.99442,7.394197 -3.41183,7.103289 -4.29908,8.420473 -6.12227,9.088454 -3.23313,1.811337 -7.3446,3.180572 -9.92337,3.182181 -2.69311,0 -10.78913,-0.662213 -11.99287,-0.980983 -2.50867,-0.277037 -3.09627,-1.700527 -4.391674,-3.784491 -3.055303,1.828166 -7.398195,3.157605 -10.863953,3.697832 -4.234182,0.630176 -14.960051,0.832093 -19.365285,0.364555 -2.986788,-0.316929 -3.505299,-0.452809 -5.406778,-1.416853 -1.533118,-0.777225 -3.316716,-2.323698 -4.803188,-4.164759 -1.198478,-1.484363 -3.23016,-1.562184 -5.521514,-0.211246 -1.970117,1.16142 -4.959721,3.387412 -5.170353,3.849672 -0.289164,0.634595 -0.269807,0.840685 0.234248,2.493209 0.771824,2.530401 2.715416,4.900005 4.936105,6.01785 0.897725,0.451949 2.871494,0.875422 5.076465,1.089245 1.90798,0.184977 2.532706,0.462628 3.486995,1.54954 0.911981,1.038674 1.104185,1.693154 0.998747,3.401036 -0.07004,1.134416 -0.226866,1.819582 -0.644732,2.816644 -0.83436,1.990934 -1.275255,2.642959 -2.706189,4.002122 -1.050955,0.99829 -1.531071,1.319024 -2.428051,1.62196 -1.157289,0.390822 -2.54073,0.458946 -4.047789,0.199339 z"/>
</svg>