<?xml version="1.0" encoding="UTF-8" standalone="no"?>
<svg>
  <path
     d="m 18.817663,48.060922 1.36875,-3.02375 c 0.015,-0.28 0.0238,-0.57 0.0263,-0.8725 0.0337,-4.7025 -1.27875,-3.12 -4.222499,-1.62375 -3.76875,1.91625 -9.3849911,1.2475 -11.4687401,-1.5925 -2.15125,-2.93375 -1.3475,-11.18999 -0.31875,-14.65499 0.80375,-2.7075 2.17875,-5.53125 2.8675,-7.96375 0.2725,-0.965 0.1325,-1.0875 -0.68,-0.995 -0.305,0.035 -0.42,0.2125 -1.1425,1.77625 -4.65749996,10.08625 -7.4675,20.90749 -2.99375,28.14999 0.865,1.39874 6.92,6.34499 16.5637401,0.8 z M 40.52676,21.313432 39.92426,9.8309424 c -0.0888,-1.70375 -0.12375,-2 -0.35125,-2.965 -0.69625,-2.95875 -2.568749,-4.57875 -4.527486,-5.62375 -2.49,-1.32999999 -4.39,-1.82499999 -6.95625,0.0475 -2.11,1.54 -2.30875,7.11375 -1.48,7.98625 0.62,0.65 2.26,0.59125 4.24375,0.125 4.95874,-1.16375 5.45499,-0.89625 6.746237,4.3474996 0.61375,2.49124 0.68625,4.82499 0.38375,7.33124 -0.64,5.32125 -2.146247,7.90875 0.805,11.03249 1.2275,1.3 2.51125,1.4975 5.31375,0.92 1.99,-0.41 2.385,-1.335 3.22,-4.09124 0.5875,-1.94125 1.0525,-3.68 0.9025,-5.615 -0.29875,-3.83875 -4.45,-11.05499 0.5525,-12.84749 0.92375,-0.33125 2.12375,-0.115 3.15874,0.11125 1.395,0.30375 1.63125,0.16625 2.36625,-1.3787496 0.605,-1.27 1.305,-2.4375 1.68875,-3.805 1.443749,-5.12999999 -0.76625,-6.5775 -5.20124,-4.47624999 -5.087501,2.40999999 -7.372501,12.73874959 -6.285,19.66123959 0.3325,2.855 0.6975,5.425 0.6975,5.425 0,0 -0.305,-0.004 -0.66625,-0.04 -1.425,-0.14 -3.87125,-2.03 -4.008751,-4.6625 z m 73.78837,41.12367 -12.9076,4.34837 c 0,0 -2.677262,-6.46568 -5.043302,-9.57665 -2.43978,-3.20971 -9.88537,-6.39443 -12.88635,-2.1998 -3.32721,4.65208 -2.58477,11.72895 -1.25739,16.97348 0.69619,2.75101 2.50603,5.43452 6.1382,6.09071 0.97116,0.17499 1.26739,0.19498 2.96474,0.19498 l 5.66949,0 0,1.00616 c 0,0.45246 -0.14249,0.6262 -1.42612,1.7411 -10.69155,9.28542 -19.96072,12.3489 -32.647087,14.82493 -16.43854,3.20721 -20.54942,2.08356 -1.91858,5.258278 1.49237,0.25498 3.11847,0.48746 4.60834,0.63744 3.834657,0.38747 6.960627,0.28748 9.751627,-0.25498 12.47139,-2.419778 21.39184,-13.067578 24.0691,-18.840818 0.963672,-2.07606 2.935992,-5.19703 3.849662,-5.83948 6.33694,-4.45085 10.6778,-2.1973 13.51505,-6.7044 2.92599,-4.65083 3.75841,-12.75011 1.57111,-16.97349 -0.87742,-1.69484 -2.2248,-3.3622 -3.56094,-4.87081 -1.12864,-1.27364 -1.30988,-1.42112 -1.81483,-1.47862 -2.76726,-0.31622 -2.65727,2.74726 -3.4247,5.97322 -0.28497,1.19739 -0.5037,1.90483 0,3.10472 0.98741,2.34979 4.74958,6.58566 4.74958,6.58566 z m -28.008762,2.37854 c -0.19498,-0.15873 -0.18623,-0.70993 0,-1.00616 0.44871,-0.70743 3.51219,0.40997 4.40086,0.94367 1.01116,0.60494 1.96233,2.04607 1.25739,2.8285 -0.57495,0.63744 -3.88965,-1.33239 -5.65825,-2.76601 z m 23.714852,-40.75163 c -0.37871,-1.6136 -1.01116,-2.64726 -0.98241,-4.07213 0.0637,-3.29971 3.66717,-8.69173 4.39961,-12.5101396 0.63119,-3.28846 -0.96117,-6.73939999 -3.97215,-7.29184999 -2.57852,-0.47246 -8.34426,-0.006 -9.15418,0.76868 -0.821182,0.78492999 -2.006072,7.37683999 -1.331132,9.71663959 0.20123,0.69993 0.56495,1.29863 1.063652,2.00357 2.03107,2.87099 3.84216,4.59959 3.33595,5.95572 -0.86992,2.33104 -10.499062,7.64682 -13.201322,9.21543 -7.56683,4.39335 -13.53662,6.52175 -18.2937,8.14411 -8.652975,2.95098 -23.225425,9.06919 -23.686635,9.94411 -1.34613,2.55852 3.71467,3.45344 8.09678,2.94224 6.63316,-0.77243 27.235065,-11.09651 29.104905,-11.94394 5.67324,-2.56602 13.68786,-7.18419 15.373962,-8.89154 1.93107,-1.95233 2.95098,-3.29096 4.11463,-2.70976 0.85367,0.42496 1.53861,1.83109 1.89608,4.05589 0.18373,1.1499 0.27998,2.51852 0.32872,3.75466 0.26123,6.60566 1.43862,3.58093 2.2648,0.36247 1.75359,-6.82439 0.44246,-10.29408 0.64244,-9.44416 z m -1.53986,-10.97777 c -0.21123,0.13374 -0.59495,0.29997 -0.95117,0.30497 -0.73743,0.0113 -2.7535,-3.4871896 -3.38344,-5.3407696 -0.44497,-1.31238 -0.11499,-1.49737 2.37728,-0.94492 3.05473,0.67619 5.12205,2.39979 2.90224,5.0807996 -0.28872,0.34997 -0.66994,0.72494 -0.94491,0.89992 z m -53.71491,56.21641 c -4.55459,-8.14177 -5.49326,-11.84019 -12.266409,-12.81136 -7.675561,-1.09865 -9.95786,5.16454 -11.7427,14.58496 -1.13615,5.99571 1.672349,9.25167 8.749219,10.40407 4.20213,0.68494 11.36649,0.78493 11.36649,0.78493 l 0,1.00616 c 0,0.45246 -0.16624,0.5937 -1.65486,1.41612 -3.277199,1.80984 -6.988119,3.34595 -10.88278,4.57459 -9.245419,2.91599 -14.36122,4.91332 -23.45541,-1.84358 -4.258989,-3.16472 -7.1037401,-7.59557 -7.7375601,-13.31256 -0.97529,-8.79922 1.16052,-14.27373 4.5826001,-22.09554 1.87758,-4.29211 2.68876,-6.80814 4.12113,-8.32675 l 5e-5,10e-6 -1.928579,-0.77119 c -0.876171,1.68735 -2.41803,4.70584 -3.9729011,7.99304 -6.610779,13.97751 -12.686869,35.70182 1.4487501,46.43961 10.11597,7.684318 18.21275,4.475858 30.520411,-0.14498 0.16623,-0.0625 0.33247,-0.12499 0.4987,-0.18874 4.19838,-1.59735 11.8052,-9.52415 13.39381,-13.44255 0.32872,-0.80993 0.70493,-1.57861 1.05363,-7.33122 -1.06868,-5.27641 -1.26491,-5.45265 -2.093591,-6.93502 z m -18.98076,-1.24488 c -0.15248,-0.34372 -0.20998,-1.06865 0,-1.50861 0.94367,-1.97608 8.26052,1.70235 9.42916,2.93349 0.76368,0.80493 1.05866,1.6811 0.6287,2.09606 -0.87493,0.84617 -6.1782,-0.21873 -8.80047,-2.1998 -0.54995,-0.41622 -1.07241,-0.90367 -1.25739,-1.32114 z m -4.557089,-32.59602 -7.54433,7.54432 7.54433,7.54308 7.54308,-7.54308 -7.54308,-7.54432 z m 86.434619,52.12078 6.84314,-6.84314 -7.54307,-7.54307 -7.54308,7.54307 6.84314,6.84314 -6.84314,6.84439 7.54308,7.543078 7.54307,-7.543078 -6.84314,-6.84439 z m -41.312222,-76.5611 -6.10196,6.06071 c -1.01366,1.00741 -1.157388,1.18739 -1.441118,1.80733 -0.397459,0.86868 -0.534949,2.3223 -0.339969,2.51853 0.63245,0.63869 2.865997,-0.90992 3.643427,-1.48362 6.81064,-5.02205 9.91411,-8.18552 11.01527,-14.6899396 0.5587,-3.30595 -1.19115,-4.58583999 -4.28837,-5.00704999 -4.91456,-0.66869 -9.790377,0.015 -11.698957,3.71466999 0.29747,14.1249896 0.717439,6.04821 4.884567,5.0458 4.63583,-1.11615 9.62039,-3.59343 4.32711,2.0335696 z"
     style="fill:#000000;stroke:none" />
</svg>
