<?xml version="1.0" encoding="UTF-8" standalone="yes"?>
<svg xmlns="http://www.w3.org/2000/svg" xmlns:xlink="http://www.w3.org/1999/xlink"
  width="595.276pt" height="841.89pt" viewBox="0 0 595.276 841.89">
  <path
    style="stroke:none; fill:#000000"
    d="M 0,51.606301 C 0,51.606301 4.318,60.510301 4.318,60.510301 C 4.645,60.984301 4.993,61.482301 5.37,61.974301 C 9.57,67.461301 20.192999,72.436301 26.355999,74.535301 C 29.817999,75.714301 33.159999,76.191301 39.388999,76.514301 C 56.054999,77.379301 65.362999,76.261301 79.688999,73.169301 C 86.952999,71.601301 90.769999,70.822301 93.394999,67.127301 C 97.319999,61.603301 99.468999,55.757301 97.116999,49.750301 C 96.220999,47.462301 94.733999,47.008301 90.193999,45.890301 C 87.643999,45.263301 84.399999,44.503301 84.399999,44.503301 C 84.399999,44.503301 85.710999,42.830301 86.850999,41.773301 C 87.972999,40.732301 94.441999,37.701301 95.598999,37.398301 C 96.459999,37.172301 97.245999,37.155301 97.852999,37.666301 C 98.903999,38.550301 98.926999,39.459301 99.795999,38.713301 C 101.451,37.292301 102.981,33.111301 102.608,31.386301 C 101.899,28.101301 99.340999,28.639301 95.922999,29.935301 C 88.138999,32.887301 81.244999,38.123301 80.165999,45.108301 C 79.601999,48.764301 79.779999,50.861301 82.075999,52.067301 C 86.952999,54.627301 94.767999,54.605301 93.535999,58.160301 C 93.261999,58.952301 86.358999,63.598301 84.406999,64.306301 C 73.624999,68.213301 45.830999,69.872301 35.303999,68.071301 C 25.991999,66.476301 15.672999,62.792301 6.982,56.921301 L 0,51.606301 zM 111.963,49.459301 C 111.963,49.459301 113.357,49.459301 113.357,49.459301 L 113.373,49.459301 L 113.192,47.081301 C 112.92,43.168301 112.332,41.880301 110.311,38.435301 L 108.464,35.245301 L 105.933,39.246301 C 105.728,39.571301 105.522,39.917301 105.316,40.275301 C 104.634,41.463301 103.889,42.810301 104.526,43.972301 C 104.895,44.645301 105.789,44.918301 106.188,45.560301 C 106.633,46.273301 106.467,47.443301 106.592,48.728301 C 106.865,51.556301 108.546,54.941301 109.289,57.450301 L 110.086,60.136301 L 106.527,63.066301 C 103.296,65.727301 98.316999,69.475301 96.392999,70.561301 C 92.785999,72.596301 88.073999,75.284301 83.843999,76.222301 C 79.357999,77.217301 72.913999,78.422301 72.653999,79.014301 C 71.403999,81.852301 80.505999,82.683301 83.047999,82.627301 C 86.019999,82.563301 88.157999,82.278301 90.264999,81.563301 C 96.484999,79.455301 108.734,70.652301 110.555,63.677301 C 111.401,60.434301 112.137,56.494301 112.149,54.283301 C 112.16,52.346301 111.963,49.459301 111.963,49.459301 zM 144.283,61.596301 C 145.146,58.318301 146.359,55.269301 146.775,53.718301 C 146.789,53.665301 146.802,53.615301 146.815,53.566301 C 147.3,51.699301 147.754,51.485301 146.543,51.638301 C 146.208,51.681301 146.128,51.804301 145.736,52.874301 C 145.583,53.292301 145.371,53.709301 145.141,54.092301 C 143.189,57.347301 141.945,59.880301 141.138,61.977301 C 139.806,65.432301 139.661,67.700301 139.486,70.059301 C 138.982,76.881301 142.155,81.683301 147.844,82.566301 C 152.148,83.235301 153.849,78.514301 156.35,73.817301 C 160.203,66.579301 168.155,60.145301 174.709,58.119301 C 176.058,57.702301 177.388,57.458301 178.751,57.605301 C 181.914,57.948301 182.388,58.601301 183.772,56.318301 C 184.051,55.857301 184.293,55.409301 184.469,54.609301 C 184.872,52.780301 184.934,49.112301 184.934,49.112301 L 180.751,49.112301 C 179.496,49.112301 179.23,49.122301 178.093,49.217301 C 175.824,49.407301 168.932,52.813301 168.667,52.972301 C 165.174,55.061301 159.144,60.522301 157.279,63.523301 C 154.692,67.689301 152.543,74.993301 147.435,73.817301 C 146.542,73.611301 145.718,73.179301 145.013,72.559301 C 142.66,70.255301 143.192,65.743301 144.283,61.596301 zM 140.773,45.725301 C 141.502,46.977301 139.07,48.689301 138.196,48.966301 C 137.441,49.206301 135.666,48.585301 135.314,47.597301 C 134.824,46.218301 137.146,43.584301 137.945,43.305301 C 139.063,42.914301 139.937,44.288301 140.773,45.725301 zM 151.69,59.125301 C 152.149,59.020301 152.534,58.893301 152.818,58.740301 C 155.242,57.440301 156.079,54.860301 157.784,50.462301 C 158.975,47.391301 158.801,46.330301 157.237,43.411301 C 156.165,41.412301 154.459,39.404301 152.976,38.415301 C 150.616,36.841301 147.373,36.060301 145.54,34.298301 C 144.844,33.629301 144.993,33.421301 145.379,32.833301 C 146.407,31.264301 144.569,30.105301 143.31,29.024301 C 142.614,28.425301 142.019,27.737301 141.589,26.835301 C 140.25,24.025301 140.368,22.615301 138.103,24.519301 C 136.201,26.118301 135.34,28.703301 135.779,31.158301 C 136.201,33.514301 137.649,36.253301 137.174,37.818301 C 136.892,38.745301 135.936,39.260301 135.082,40.217301 C 133.669,41.800301 131.801,46.019301 131.364,48.452301 C 130.828,51.439301 131.102,53.400301 128.343,53.084301 C 127.558,52.994301 126.079,52.266301 124.716,51.345301 C 120.892,48.759301 120.171,44.920301 119.511,40.288301 C 118.785,35.190301 118.703,29.631301 118.954,27.452301 C 119.226,25.092301 119.511,23.021301 119.652,20.144301 C 120.012,12.761301 119.419,0.071301093 119.419,0.071301093 C 119.419,0.071301093 118.502,-0.088698907 117.867,0.071301093 C 116.677,0.37230109 114.887,6.0773011 114.771,6.5563011 C 114.144,9.1673011 115.402,16.423301 115.701,21.817301 C 115.911,25.605301 116.102,30.885301 115.639,35.584301 C 114.847,43.617301 115.302,55.379301 120.906,59.003301 C 124.207,61.137301 126.973,61.265301 131.131,59.517301 C 133.814,58.390301 134.401,57.972301 136.523,58.231301 C 137.356,58.332301 138.74,58.553301 139.886,58.895301 C 140.715,59.142301 142.264,59.342301 144.025,59.449301 C 146.497,59.598301 150.33,59.436301 151.69,59.125301 zM 144.422,51.310301 C 142.909,51.149301 141.822,51.025301 141.822,51.025301 C 141.822,51.025301 141.946,50.442301 142.077,49.904301 C 144.003,41.972301 145.776,43.818301 150.188,46.650301 C 151.478,47.479301 152.873,48.939301 152.976,49.790301 C 153.045,50.352301 152.976,51.025301 152.976,51.025301 C 152.976,51.025301 152.509,51.072301 151.511,51.173301 C 149.359,51.389301 145.814,51.458301 144.422,51.310301 zM 110.423,77.967301 C 110.33,78.399301 110.267,78.867301 110.247,79.336301 C 110.186,80.784301 110.247,82.630301 110.247,82.630301 C 110.247,82.630301 111.23,82.543301 112.187,82.374301 C 113.516,82.138301 123.258,76.082301 123.836,75.133301 C 124.153,74.612301 125.354,71.238301 124.655,70.278301 C 124.471,70.023301 122.027,71.035301 119.521,72.303301 L 110.423,77.967301 zM 173.875,45.268301 L 179.552,38.982301 L 173.875,32.696301 L 168.198,38.982301 L 173.875,45.268301 zM 99.665999,4.3373011 C 99.516999,6.2923011 100.279,6.3073011 101.223,7.9303011 C 101.79,8.9043011 102.179,11.877301 101.92,12.912301 C 101.728,13.683301 101.227,14.429301 100.856,15.200301 C 99.085999,18.875301 99.189999,25.028301 102.999,25.944301 C 104.543,26.316301 106.385,25.909301 107.033,25.172301 C 107.702,24.411301 108.588,20.814301 108.427,19.511301 C 108.301,18.483301 107.72,17.651301 106.568,16.937301 C 105.218,16.101301 103.822,16.179301 103.315,15.445301 C 102.634,14.459301 104.352,10.196301 104.244,7.1073011 C 104.213,6.2133011 102.905,0.92830109 101.614,0.21030109 C 99.736999,-0.83369891 99.824999,2.2443011 99.665999,4.3373011 zM 163.747,78.184301 C 163.904,80.586301 164.916,82.080301 166.758,82.511301 C 169.133,83.068301 170.476,81.641301 171.085,78.756301 C 171.219,78.123301 171.189,77.595301 170.821,77.340301 C 170.121,76.856301 168.199,77.359301 167.27,76.812301 C 166.114,76.133301 165.82,73.242301 166.106,71.891301 C 166.392,70.539301 167.122,69.090301 167.32,68.048301 C 167.361,67.837301 167.379,67.642301 167.296,67.534301 C 167.286,67.520301 167.275,67.507301 167.265,67.495301 C 164.469,66.790301 163.789,78.832301 163.747,78.184301 zM 159.302,12.469301 L 159.664,20.943301 L 161.368,62.351301 C 161.368,62.351301 162.524,60.812301 163.217,59.411301 C 164.2,57.425301 164.252,55.717301 164.547,53.811301 C 164.779,52.316301 164.794,51.982301 164.699,50.472301 L 162.833,20.929301 L 162.656,15.914301 C 162.842,16.050301 163.019,16.172301 163.185,16.281301 L 166.055,18.167301 L 165.507,16.162301 C 165.445,15.935301 165.379,15.694301 165.313,15.451301 C 164.516,12.539301 164.075,9.6593011 163.544,6.6733011 C 163.037,3.8143011 162.361,0.0073010925 162.361,0.0073010925 C 162.361,0.0073010925 161.881,-0.026698907 161.44,0.056301093 C 160.227,0.28730109 157.637,5.4173011 157.469,6.5833011 C 157.453,6.6933011 157.443,6.8033011 157.44,6.9133011 C 157.433,7.1543011 157.447,7.4073011 157.478,7.6693011 C 157.699,9.5473011 158.411,11.150301 159.302,12.469301 zM 74.595999,31.624301 C 74.753999,34.026301 75.765999,35.520301 77.606999,35.951301 C 79.982999,36.508301 81.325999,35.081301 81.934999,32.196301 C 82.067999,31.563301 82.037999,31.035301 81.669999,30.780301 C 80.970999,30.296301 79.048999,30.799301 78.118999,30.252301 C 76.963999,29.573301 76.669999,26.682301 76.955999,25.331301 C 77.241999,23.979301 77.971999,22.530301 78.169999,21.488301 C 78.209999,21.277301 78.228999,21.082301 78.145999,20.974301 C 78.134999,20.960301 78.124999,20.947301 78.113999,20.935301 C 75.318999,20.229301 74.638999,32.272301 74.595999,31.624301 zM 85.365999,17.217301 L 84.926999,7.9403011 C 84.861999,6.5643011 84.835999,6.3253011 84.670999,5.5463011 C 84.162999,3.1563011 82.795999,1.8473011 81.367999,1.0033011 C 79.551999,-0.071698907 78.164999,-0.47069891 76.293999,1.0423011 C 74.753999,2.2853011 74.608999,6.7883011 75.213999,7.4923011 C 75.665999,8.0183011 76.861999,7.9703011 78.309999,7.5943011 C 81.925999,6.6533011 82.288999,6.8703011 83.230999,11.105301 C 83.677999,13.118301 83.730999,15.003301 83.510999,17.027301 C 83.043999,21.326301 81.944999,23.416301 84.097999,25.940301 C 84.993999,26.990301 85.929999,27.149301 87.973999,26.683301 C 89.425999,26.351301 89.713999,25.604301 90.322999,23.377301 C 90.751999,21.809301 91.090999,20.405301 90.980999,18.842301 C 90.762999,15.741301 87.734999,9.9123011 91.383999,8.4643011 C 92.057999,8.1973011 92.933999,8.3713011 93.687999,8.5533011 C 94.705999,8.7993011 94.878999,8.6883011 95.414999,7.4403011 C 95.855999,6.4143011 96.365999,5.4713011 96.646999,4.3673011 C 97.699999,0.22330109 96.086999,-0.94669891 92.851999,0.75130109 C 89.141999,2.6983011 87.474999,11.040301 88.266999,16.633301 C 88.509999,18.939301 88.775999,21.014301 88.775999,21.014301 C 88.775999,21.014301 88.553999,21.012301 88.289999,20.983301 C 87.250999,20.869301 85.465999,19.342301 85.365999,17.217301 zM 122.28,24.150301 C 122.187,25.076301 122.182,26.325301 122.42,26.927301 C 123.044,28.511301 125.64,25.447301 128.462,22.553301 C 130.953,19.997301 133.087,18.140301 136.947,15.537301 C 141.52,12.454301 148.514,8.3253011 148.514,8.3253011 L 147.983,17.148301 L 148.727,17.148301 C 149.061,17.148301 149.109,17.000301 149.209,15.663301 C 149.374,13.448301 150.921,9.6233011 151.469,8.9133011 C 152.677,7.3493011 154.871,6.3023011 155.896,4.6073011 C 156.578,3.4793011 157.194,0.58830109 156.814,0.16430109 C 156.249,-0.46569891 152.278,0.88030109 150.771,1.4513011 C 148.339,2.3723011 136.331,9.8343011 133.653,12.088301 C 130.043,15.127301 126.762,18.395301 123.452,21.725301 C 122.523,22.659301 122.406,22.902301 122.28,24.150301 zM 138.075,3.2633011 L 138.075,0.00030109252 L 136.835,0.00030109252 C 136.278,0.00030109252 136.183,0.013301093 135.889,0.13230109 C 135.67,0.22030109 135.473,0.34930109 135.286,0.51430109 C 133.677,1.9403011 132.739,5.7853011 131.382,5.1473011 C 130.876,4.9093011 130.595,3.9193011 129.966,3.2943011 C 128.602,1.9393011 125.663,2.0373011 124.596,3.6033011 C 123.559,5.1253011 124.213,7.4053011 124.829,9.2643011 C 125.371,10.902301 126.655,10.964301 128.533,9.3273011 C 129.184,8.7603011 129.334,8.8133011 130.026,9.8483011 C 131.321,11.784301 132.857,12.794301 133.585,11.838301 C 134.087,11.179301 134.221,9.6483011 134.824,8.3543011 C 135.146,7.6633011 136.451,5.8063011 137.467,5.1813011 C 138.014,4.8443011 138.075,4.6533011 138.075,3.2633011 zM 153.459,36.798301 L 153.955,36.789301 C 154.178,36.785301 154.237,36.634301 154.552,35.287301 C 156.365,27.539301 156.696,23.260301 152.237,18.291301 C 151.503,17.472301 150.648,16.786301 150.097,17.519301 C 149.723,18.017301 149.341,21.530301 149.511,22.297301 C 149.81,23.638301 150.693,24.074301 151.713,24.984301 C 154.018,27.042301 154.595,28.585301 154.302,31.326301 C 154.077,33.429301 153.459,36.798301 153.459,36.798301 zM 179.235,32.077301 L 179.731,32.067301 C 179.954,32.063301 180.014,31.913301 180.329,30.566301 C 182.141,22.817301 182.472,18.538301 178.014,13.569301 C 177.28,12.751301 176.424,12.064301 175.873,12.798301 C 175.499,13.296301 175.117,16.808301 175.288,17.575301 C 175.586,18.917301 176.469,19.352301 177.49,20.263301 C 179.794,22.320301 180.372,23.864301 180.079,26.604301 C 179.854,28.707301 179.235,32.077301 179.235,32.077301 zM 168.9,7.7283011 C 168.807,8.1613011 168.744,8.6283011 168.724,9.0983011 C 168.663,10.545301 168.724,12.392301 168.724,12.392301 C 168.724,12.392301 169.707,12.305301 170.664,12.135301 C 171.993,11.900301 181.735,5.8443011 182.312,4.8953011 C 182.629,4.3733011 183.831,0.99930109 183.132,0.039301093 C 182.948,-0.21469891 180.504,0.79630109 177.998,2.0643011 L 168.9,7.7283011 z"/>
</svg>