<?xml version="1.0" encoding="UTF-8" standalone="no"?>
<svg>
  <path
     style="stroke:none; fill:#000000"
     d="m 92.468998,26.291091 c -0.135,2.22125 0.1175,2.62 2.47625,1.40375 1.74375,-0.9 3.68499,-1.87625 5.681242,-3.13875 7.15875,-4.52624 17.9575,-13.11999 20.23249,-13.42249 1.295,-0.17125 2.42625,0.12 3.71125,-0.26875 3.5175,-1.0637499 6.8125,-5.6312499 7.32125,-8.8662499 0.32,-2.02748999 -0.12375,-2.29873999 -1.6225,-1.74749999 -4.85,1.78124999 -31.592492,17.89999989 -36.976232,23.74623989 -0.43875,0.4775 -0.75375,1.12625 -0.82375,2.29375 z m -0.885,-15.19249 c 0.89125,1.43375 3.11375,-1.6649999 4.41375,-0.9975 0.355,0.1825 0.725,0.455 1.1075,0.85125 0.2825,0.29375 0.565,0.68125 0.82749,1.0875 0.6425,0.995 4.161252,7.075 4.971252,1.18 0.09,-0.64875 0.14875,-1.36375 0.26125,-2.0275 0.29125,-1.7224999 1.23125,-3.7949999 3.19,-4.0974999 0.8475,-0.13125 1.43875,-0.09 1.6175,-2.27375 0.49375,-6.03624 -0.715,-6.29874 -4.4975,-1.36875 -0.0712,0.0937 -0.1225,0.16375 -0.14875,0.2025 -1.42875,2.16625 -2.99,2.30875 -4.360002,1.7225 -1.41499,-1.2025 -13.45124,-10.96499 -7.38249,5.7212499 z m -0.62125,81.32746 5.2075,5.2075 7.156242,-7.15625 -7.156242,-7.15624 -5.2075,5.2075 -5.2075,-5.2075 -7.15625,7.15624 7.15625,7.15625 5.2075,-5.2075 z m 17.011242,-63.37497 -7.15625,7.15625 7.15625,7.1575 7.1575,-7.1575 -7.1575,-7.15625 z m -29.054992,6.63 -7.15624,7.1575 7.15624,7.15624 7.1575,-7.15624 -7.1575,-7.1575 z m -15.33499,32.70248 c 0.20125,0.29625 0.32875,1.05375 0.15,1.42375 -0.5475,1.135 -5.28875,-1.665 -6.1375,-2.17624 -1.685,-1.015 -4.53875,-3.3675 -3.57,-4.6 1.07125,-1.36125 5.185,0.845 6.3675,1.8625 1.18625,1.0225 2.525,2.5125 3.19,3.48999 z m -34.19998,35.229989 c -9.60375,2.16875 -2.61625,0.13 2.96749,3.04 0.11625,0.0613 0.2375,0.12125 0.3625,0.18 0.32625,0.1525 0.6875,0.295 0.98125,0.5225 0.39625,0.30875 0.61875,0.355 2.225,0.4675 0,0 1.09625,0.0775 3.05125,0.21375 7.84875,0.55 19.28374,-4.82625 25.46249,-10.609999 0.4425,-0.41375 0.85875,-0.83375 1.24375,-1.25625 0.79875,-0.87875 9.94624,-14.95999 9.75249,-15.63999 -0.23249,-0.81625 -0.68999,-1.67625 -0.62874,-2.4125 0.0475,-0.56375 0.40125,-1.055 0.82124,-1.68375 1.46875,-2.1975 3.76,-6.085 3.76,-6.085 l 0.47875,4.5625 c 0.16875,1.60125 0.2475,1.8425 0.78125,2.41625 3.1825,3.4125 13.05875,3.11125 16.11125,2.2 6.934992,-2.07 7.041242,-3.0875 11.327492,-11.50625 0.3375,-0.66499 0.65375,-1.21124 0.83375,-1.95624 0.205,-0.8475 0.14125,-2.31 -0.0775,-3.60875 0.0113,0.0675 -1.12375,-8.6725 -2.345,-11.75 -0.88,-2.215 -2.9525,0.46375 -4.4425,2.9075 -1.6225,2.65875 -3.056252,5.21625 -3.063752,8.3425 -0.004,1.54375 0.16875,3.1425 0.50125,3.7925 0.875002,1.71 2.461252,3.63874 2.461252,3.63874 0,0 -3.277502,0.4525 -5.824992,0.6125 -4.09875,0.255 -7.70875,-0.4775 -9.75625,-2.64624 -0.59,-0.625 -0.75875,-0.9125 -0.895,-1.9 -0.33625,-2.4425 0.16,-5.30125 -2.49375,-4.86125 -0.58875,0.0987 -0.83625,0.345 -1.70125,1.49625 -0.75875,1.00875 -1.40625,2.23625 -1.81625,3.305 -0.6225,1.625 -0.97625,2.125 -3.98375,3.17749 -4.30499,1.5075 -3.66624,-2.14874 -5.35749,-5.66874 -1.425,-2.96375 -8.92125,-13.08 -13.63125,-8.4575 -1.01125,0.9925 -2.2675,2.57625 -2.72625,3.21625 -2.07249,2.88125 -6.49499,12.22499 -4.31124,16.76249 1.84375,3.83375 9.07374,6.355 12.67624,6.345 1.3525,-0.004 2.715,-0.30125 4.015,-0.71375 1.54125,-0.49 1.775,-0.4325 2.33375,0.56625 0.74,1.32375 1.19875,3.775 1.05125,4.37125 -0.15,0.60625 -0.9675,1.5425 -2.0675,2.57125 -11.56875,10.81374 -21.38624,12.27999 -38.07623,16.048739 z M 125.02023,77.996071 c -0.0163,-0.08 -0.0288,-0.1625 -0.0363,-0.245 -0.1425,-1.53375 1.2775,-3.5025 1.25,-5.22875 -0.0237,-1.41375 -2.47,-5.75999 -1.64125,-7.02374 0.2175,-0.33125 0.62375,-0.575 1.00875,-0.8325 l 1.875,-1.2475 -3.0225,-3.465 -2.22,-2.545 -3.10624,-3.56125 -1.9775,3.57 c -0.485,0.875 -0.94875,1.74875 -1.2475,2.39875 -0.7025,1.5325 -0.55,2.39125 -0.13125,4.45125 0.8825,4.34874 2.075,8.03499 4.79499,14.24749 1.04625,2.38875 2.3225,5.16625 2.3225,5.16625 0,0 -0.0238,0.0238 -0.07,0.07 -4.37499,4.38 -9.86999,8.18999 -16.22374,11.36499 -10.039992,5.014999 -20.592492,8.089999 -31.767482,8.597499 -4.95,0.225 -8.735,0.7775 2.12124,3.07625 0.82125,0.21125 1.7975,0.44375 2.945,0.70125 0.74375,0.27625 1.5725,0.4725 2.415,0.555 5.27,0.5175 30.536242,-5.78375 37.762492,-11.622499 1.15499,-0.93375 2.09249,-1.9675 2.54874,-3.1325 0.44,-1.12625 0.7175,-2.1025 0.94125,-2.84875 l 1.45875,-12.44624 z M 40.889398,0.00111111 c -0.27078,0.0025 -0.62688,0.01375 -0.96875,0.0625 -1.8775,0.26875 -5.89625,6.26624989 -6.15625,7.62499999 -0.025,0.12875 -0.0263,0.2475 -0.0312,0.375 -0.0113,0.28125 -0.0163,0.57 0.0312,0.875 0.34375,2.1899999 1.465,4.0562499 2.84375,5.5937499 l 0.5625,9.875 0.28125,5.15625 c 2.9e-4,0.01013 -2.9e-4,0.02113 0,0.03125 0.30353,10.429552 0.88081,18.909306 1.4375,26.3125 0.13455,8.842506 1.40847,17.083098 1.3125,25.03125 -0.0224,0.44125 -0.0488,0.7325 -0.0937,0.875 -1.3775,4.3025 -9.06501,8.00001 -15.59375,9.03125 -10.41125,1.645 -16.0012602,-1.4025 -19.4687502,-11.625 -0.0913,-0.26875 -0.17,-0.53125 -0.25,-0.8125 l -1.09375,-6.5 c -1.35912,2.932572 -4.81652,5.253424 -3.34375004,15.625 1.03000004,7.00624 9.25750004,15.856249 23.06250024,12.687499 0.63625,-0.14625 1.26125,-0.286249 1.8125,-0.437499 1.1987,-0.32875 2.57245,-0.89125 3.9687,-1.59375 6.94249,-3.4875 15.5075,-17.90625 15.25,-26.0625 1.33696,-17.113364 -0.95213,-32.089315 -2.37495,-47.71875 l -0.28125,-5.84375 c 0.2875,0.1575 0.555,0.28 0.8125,0.40625 l 4.4375,2.21875 -0.8438,-2.34375 c -0.0962,-0.265 -0.17875,-0.56125 -0.28125,-0.84375 -1.2325,-3.395 -1.92875,-6.7375 -2.75,-10.2187499 -0.785,-3.3325001 -1.84375,-7.78124999 -1.84375,-7.78124999 0,0 -0.16672,-0.0025 -0.4375,0 z m 34.6346,9.43873999 c -2.10374,-0.1375 -4.14124,-0.74625 -3.65999,-2.11125 0.0412,-0.1175 0.12875,-0.26 0.25125,-0.41625 1.07125,-1.365 2.8725,-1.87375 4.23749,-0.5125 0.4525,0.45 0.8375,1.11875 1.0825,2.06625 -0.2225,0.81125 -1.1675,1.0225 -1.91125,0.97375 z m -1.82499,5.2187499 c 0.5575,-0.0587 1.0625,-0.1125 1.0625,-0.1125 0,0 0.0113,0.0537 0.03,0.15 0.0238,0.12 0.0412,0.2425 0.0525,0.365 -0.81875,6.1825 -9.13625,13.31249 -13.475,18.63874 -0.115,0.69 -0.185,1.76625 0.0275,2.04 0.24,0.30875 0.84,0.14125 1.42375,-0.14875 1.20125,-0.59875 4.00625,-3.75875 6.715,-7.04875 3.0825,-3.74375 6.98374,-8.23124 8.47874,-12.84249 0.4375,-1.35 0.855,-1.9125 0.75375,2.1025 0.008,0.009 0.015,0.0163 0.0213,0.025 0.0625,0.0812 0.10625,0.17 0.1725,0.2425 0.25125,0.27125 0.82625,0.29625 1.2175,0.105 0.42375,-0.20625 0.6375,-0.745 0.7575,-1.42125 0.17625,-0.9925 0.5075,-4.9525 -0.1575,-5.45875 -0.9775,-0.74125 0.6925,-2.7699999 0.6175,-3.9624999 -0.16125,-2.59625 -0.87875,-4.7125 -2.965,-6.36374999 -1.86625,-1.47749 -4.52749,-1.18499 -6.25999,0.35749999 -0.0213,0.0188 -0.0412,0.0387 -0.0625,0.0588 -4.16625,4.04 -4.13625,13.8749999 1.59,13.2737499 z" />
</svg>
