<?xml version="1.0" encoding="UTF-8" standalone="no"?>
<!-- Created with Inkscape (http://www.inkscape.org/) -->

<svg
   xmlns:dc="http://purl.org/dc/elements/1.1/"
   xmlns:cc="http://creativecommons.org/ns#"
   xmlns:rdf="http://www.w3.org/1999/02/22-rdf-syntax-ns#"
   xmlns:svg="http://www.w3.org/2000/svg"
   xmlns="http://www.w3.org/2000/svg"
   xmlns:sodipodi="http://sodipodi.sourceforge.net/DTD/sodipodi-0.dtd"
   xmlns:inkscape="http://www.inkscape.org/namespaces/inkscape"
   width="744.09448819"
   height="1052.3622047"
   id="svg3150"
   version="1.1"
   inkscape:version="0.48.2 r9819"
   sodipodi:docname="cut.svg">
  <defs
     id="defs3152" />
  <sodipodi:namedview
     id="base"
     pagecolor="#ffffff"
     bordercolor="#666666"
     borderopacity="1.0"
     inkscape:pageopacity="0.0"
     inkscape:pageshadow="2"
     inkscape:zoom="0.66612048"
     inkscape:cx="372.04724"
     inkscape:cy="225.9351"
     inkscape:document-units="px"
     inkscape:current-layer="layer2"
     showgrid="false"
     inkscape:window-width="1280"
     inkscape:window-height="920"
     inkscape:window-x="-8"
     inkscape:window-y="-8"
     inkscape:window-maximized="1" />
  <metadata
     id="metadata3155">
    <rdf:RDF>
      <cc:Work
         rdf:about="">
        <dc:format>image/svg+xml</dc:format>
        <dc:type
           rdf:resource="http://purl.org/dc/dcmitype/StillImage" />
        <dc:title></dc:title>
      </cc:Work>
    </rdf:RDF>
  </metadata>
  <g
     inkscape:groupmode="layer"
     id="layer2"
     inkscape:label="art"
     style="display:inline">
    <g
       id="g7123"
       transform="matrix(0.47125277,0,0,0.47125277,-15.007689,857.30674)">
      <path
         sodipodi:nodetypes="ssssscsssscccsscc"
         inkscape:connector-curvature="0"
         d="m 295.28125,293.75463 c 3.35561,0 6.125,1.38469 6.125,3.0625 0,1.6778 -2.76939,3.0625 -6.125,3.0625 -3.35561,0 -6.09375,-1.3847 -6.09375,-3.0625 0,-1.67781 2.73814,-3.0625 6.09375,-3.0625 z M 297,281.84838 c -5.34887,-0.006 -9.85467,3.7872 -11.9375,11.09375 -3.72644,13.07238 1.52568,19.48468 15.21875,18.5625 15.07856,-1.01549 19.25783,4.73015 10.34375,14.21875 -10.39785,11.06801 -47.43449,36.07122 -71.9375,48.5625 -11.64846,5.93822 -20.34184,10.84905 -19.3125,10.90625 12.92187,0.71761 36.48594,-8.08614 55.65625,-20.78125 10.47909,-8.32146 25.60984,-15.90801 34.74985,-25.68745 7.21714,-7.54248 8.34633,-11.12151 8,-25.53125 -0.31241,-12.99851 -2.00322,-18.42818 -7.53125,-24.3125 -4.421,-4.70594 -9.08977,-7.02642 -13.25,-7.03125 z"
         style="fill:#000000;display:inline"
         id="path6722" />
      <path
         inkscape:connector-curvature="0"
         d="M 407.875,317.483 390.5,328.608 c -9.55754,6.12158 -18.20818,13.81125 -19.25,17.09375 -1.04183,3.28249 -2.92584,5.96875 -4.15625,5.96875 -2.53812,0 -16.49708,-27.59668 -14.8125,-29.28125 0.60212,-0.60214 13.34941,-1.95106 28.34375,-3 l 27.25,-1.90625 z m -14.59375,-53.59375 c 3.84657,-0.18164 13.09375,5.45528 13.09375,8.59375 0,4.84454 -12.26679,3.30581 -14.21875,-1.78125 -0.99366,-2.58907 -1.05876,-5.44127 -0.15625,-6.34375 0.28654,-0.28654 0.73174,-0.4428 1.28125,-0.46875 z m 2.625,-9.8125 c -7.21508,0 -13.01924,14.20124 -8.65625,21.1875 2.96612,4.74948 1.34239,6.86366 -11.9375,15.46875 -8.85195,5.73586 -17.01528,13.87267 -19.25,19.1875 l -3.875,9.21875 -2.25,-7.375 c -4.09871,-13.36418 -23.59629,-51.59375 -26.3125,-51.59375 -4.46675,0 -3.14721,4.45834 9.53125,32.03125 6.71122,14.59546 12.1875,29.36286 12.1875,32.8125 0,11.72452 -28.19095,43.21583 -41.96875,46.875 -18.5177,-2.92916 -19.88145,-27.5846 -10.94357,-36.52248 -4.78928,4.65225 -5.65429,6.23644 -6.31174,8.63961 -3.53552,12.9233 -1.97416,25.92436 5.88036,35.16412 3.02141,3.33861 7.00897,6.0625 8.875,6.0625 6.77742,0 35.72508,-28.4504 42.5,-41.78125 l 6.93745,-13.6875 3.6875,12.3125 c 5.94785,19.85216 37.125,41.29302 37.125,25.53125 0,-3.27341 -3.7708,-6.84926 -9.46875,-9 -5.34158,-2.01622 -8.8871,-5.27621 -8.15625,-7.46875 1.81972,-5.45922 31.46942,-22.644 49.65625,-28.78125 27.0998,-9.14497 23.06231,-11.7187 -20.71875,-13.375 l -40.3125,-1.53125 16.71875,-9.71875 c 11.98897,-6.97236 17.38004,-8.72179 19.03125,-6.125 1.54712,2.4331 2.31235,1.89199 2.34375,-1.65625 0.0269,-3.04322 3.20806,-6.0712 7.53125,-7.15625 9.2944,-2.33275 14.52135,-8.27513 12.3125,-14.03125 -2.05448,-5.35396 -17.42965,-14.6875 -24.15625,-14.6875 z"
         style="fill:#000000;display:inline"
         id="path6467" />
      <path
         sodipodi:nodetypes="cccsssssscsccccccssssssssssssscssssccccscsssssccccc"
         inkscape:connector-curvature="0"
         id="path7121"
         d="m 873.03125,309.75 -2.0625,-14.96875 -7.25,21.34375 c -3.9943,11.73409 -7.97468,23.46972 -8.84375,26.09375 -3.34594,10.10265 -62.77678,15.77845 -90.9375,8.6875 -7.23903,-1.82281 -17.74942,-7.48415 -23.34375,-12.59375 -5.81353,-5.30986 -10.65468,-7.81717 -11.3125,-5.84375 -0.63299,1.89899 -4.70449,3.46875 -9.03125,3.46875 -9.05795,0 -29.34259,11.21166 -50.625,28 -15.48412,12.21444 -25.58481,14.6176 -30.6875,7.25 -0.98657,-5.78021 -0.21912,-11.426 1.57514,-16.79253 4.43512,-13.26519 15.14404,-24.82403 21.14361,-32.48872 -27.96049,21.89155 -27.3125,42.71875 -27.3125,42.71875 l 0.0781,0.15625 0.0781,0.15625 c -0.18135,5.4178 1.48152,11.87045 4.3125,16.0625 10.21611,14.39812 25.20005,-2.33644 34,-8.96875 26.95222,-20.43983 44.41938,-28.37919 52.71875,-23.9375 3.37557,1.80654 6.15625,5.08361 6.15625,7.28125 0,2.19764 2.73814,6.49446 6.09375,9.53125 5.92174,5.35914 6.09375,5.31818 6.09375,-1.0625 0,-7.8497 -1.86983,-7.71536 21.875,-1.625 20.26277,5.19723 54.74323,4.34765 70.78125,-1.75 5.1577,-1.96094 8.03125,-1.97736 8.03125,-0.0625 0,1.63628 2.04579,2.96875 4.5625,2.96875 2.51671,0 4.59375,2.32823 4.59375,5.15625 0,6.70986 11.87033,19.25 18.21875,19.25 10.9195,0 15.99207,-14.79626 9.34375,-27.21875 -2.25711,-4.21748 -1.19694,-6.9338 4.59375,-11.96875 4.12429,-3.58603 7.5,-7.90485 7.5,-9.59375 0,-5.52813 4.2053,0.16893 6.96875,3 3.53981,13.53628 23.63577,11.44099 29.65625,-3.09375 4.22984,-10.21177 2.74659,-37.11704 -4.28125,-77.53125 -3.43531,-19.75451 -3.42214,-23.16168 0.0937,-21.8125 3.3173,1.27296 3.17731,-0.71749 -0.6875,-9.75 -2.66969,-6.23935 -5.61124,-13.16832 -6.53125,-15.40625 -0.66179,-1.60975 -1.29782,-2.37903 -2,-2.3125 l 10e-5,0 c -0.54614,0.0517 -1.131,0.60413 -1.78125,1.65625 -1.16226,1.88062 -0.28567,15.38133 1.96875,30 5.98541,38.81208 11.12164,77.39999 11.40625,85.6875 0.31025,9.03128 -10.42507,13.9741 -18.125,8.34375 -5.60339,-4.09728 -7.73369,-14.31174 -15.28125,-73.53125 -6.3015,-49.44258 -7.53509,-55.23148 -10.84375,-50 -1.46772,2.32064 -1.87255,8.55938 -0.90625,13.84375 3.48102,19.03677 12.37992,103.31496 11.15625,105.59375 -0.68857,1.28233 -6.8092,5.17909 -13.625,8.65625 l -12.40625,6.3125 L 870.125,340 c 0.84527,-3.72384 3.88912,-10.88109 4.32533,-14.6781 -0.26874,-4.16187 -0.60847,-9.65771 -1.41908,-15.5719 z"
         style="fill:#00ff00;display:inline" />
      <path
         sodipodi:nodetypes="ssscs"
         inkscape:connector-curvature="0"
         id="path7117"
         d="m 868.84375,336.6875 c -1.62053,3.02959 -5.12875,5.34375 -7.4375,5.34375 -3.41049,0 -3.24699,-2.29885 0.90625,-12.1875 5.32218,-12.67178 9.6875,-15.86934 10.08456,-3.78662 -0.55946,5.06374 -1.85075,7.44744 -3.55331,10.63037 z"
         style="fill:#00ff00;display:inline" />
      <path
         inkscape:connector-curvature="0"
         id="path6463"
         d="m 863.25,363.9375 c 5.17624,0.18944 14.84375,5.14987 14.84375,8.53125 0,1.71378 -1.77271,3.125 -3.96875,3.125 -5.89904,0 -16.19479,-8.30523 -13.5625,-10.9375 0.54006,-0.54006 1.49298,-0.76247 2.6875,-0.71875 z"
         style="fill:#00ff00;display:inline" />
      <path
         inkscape:connector-curvature="0"
         id="path6461"
         d="m 478,212.10255 c -0.0903,0.0228 -0.16426,0.0705 -0.25,0.15625 -1.3718,1.37178 -0.32234,25.81183 2.34375,54.3125 3.54979,37.94737 4.89677,48.6245 8.71875,54.59375 -3.19814,1.20584 -7.22147,3.00075 -11.5,5.1875 -14.74596,7.53662 -15.13908,16.57797 -1.0625,19.21875 5.70371,1.07003 11.9537,3.84122 13.875,6.15625 2.82326,3.4018 0.0988,5.83057 -14.1875,12.59375 -9.7223,4.60255 -23.44943,9.01518 -30.5,9.8125 -18.54643,1.9997 -32.18434,-11.80355 -30.75,-34.65625 0.77441,-9.33848 0.26819,-15.03986 -1.125,-12.84375 -1.37675,2.17018 -2.50685,12.23078 -2.53125,22.34375 -0.0547,21.54073 4.96207,30.59899 19.15625,34.59375 12.22498,3.44055 20.77734,1.8456 40.96875,-7.6875 28.17894,-13.30429 36.45983,-31.27169 17.59375,-38.09375 -7.11197,-2.57173 -10.08149,-5.41766 -7.625,-6.90625 4.56525,-2.76646 7.87268,-4.92635 10.21875,-6.625 0.32383,0.32553 0.64589,0.67153 1,1 8.73112,8.09899 26.23138,9.12773 42.09375,2.5 6.64007,-3.02937 8.70877,-1.97515 21.25,-10.25 4.09098,-1.86398 8.92146,-6.1771 10.75,-9.59375 3.08484,-5.7641 2.27485,-5.66755 -11.25,1.59375 -18.41706,9.88786 -35.55468,8.64925 -45.84375,-3.3125 -10.80778,-12.56481 -8.95702,-19.23712 7.25,-26.40625 13.34231,-5.90194 20.76277,-6.12659 36.21875,-1 3.35561,1.11303 1.79324,-0.88134 -3.46875,-4.4375 -18.62243,-12.58535 -42.12515,-6.80572 -50.03125,12.28125 -3.12054,7.53361 -2.92314,11.20018 1,21.1875 2.61143,6.64809 3.50414,12.09375 2,12.09375 -6.55317,0 -11.89495,-15.89263 -14.90625,-44.25 -1.78171,-16.77806 -4.14401,-38.44872 -5.21875,-48.1875 -1.0076,-9.13011 -2.83334,-15.71755 -4.1875,-15.375 z"
         style="fill:#00ff00;display:inline" />
      <path
         sodipodi:nodetypes="csscccssssscc"
         inkscape:connector-curvature="0"
         id="path6748"
         d="m 227.53125,212.08993 c -3.50129,0 -3.0512,8.03746 3.8125,67.09375 3.41249,29.36161 5.51181,56.14439 4.65625,59.5 -3.99457,15.66709 -43.57366,32.03125 -77.46875,32.03125 -28.89508,-1.40812 -56.33083,-10.50779 -76.198872,-20.39077 20.001782,23.05734 51.465332,29.94401 77.497652,28.53116 17.6158,-1.01425 36.8933,-4.07317 46.63872,-8.26554 16.95619,-7.29436 29.67207,-19.95726 32.875,-32.71875 1.98069,-7.8917 -4.27667,-89.66264 -7.5,-98.0625 -1.17004,-3.0491 -0.19235,-3.80897 3.21875,-2.5 4.46026,1.71156 4.45228,0.66263 -0.125,-11.6875 -2.7622,-7.4528 -6.09035,-13.53125 -7.40625,-13.53125 z"
         style="fill:#008080;display:inline" />
      <path
         sodipodi:nodetypes="sssssssssssscssssssssscsssss"
         inkscape:connector-curvature="0"
         d="m 709.5659,326.5971 c 5.45286,-1.66664 9.9143,-5.04532 9.9143,-7.50818 0,-5.94717 -13.71777,-19.45337 -19.75811,-19.45337 -4.97244,0 -32.10134,23.34158 -32.10134,27.61984 0,6.00865 21.22214,5.67558 41.94515,-0.65829 z m -183.93466,47.91574 c -6.05438,-6.05435 -7.40026,-10.28813 -7.03068,-22.11653 0.32135,-10.28499 0.8468,-11.91135 1.76957,-5.47714 1.97008,13.73691 12.02419,18.87917 25.16117,18.87917 13.08499,0 37.2439,-11.39766 51.16402,-24.13809 11.91095,-10.90155 12.17223,-11.14893 5.10407,-78.97925 -3.43563,-32.97048 -3.8715,-47.10063 -1.52528,-49.44686 2.34624,-2.34623 3.29521,-1.14918 3.32086,4.18892 0.0183,4.11062 2.08048,28.64516 4.57938,54.52119 4.9559,51.31814 7.71375,58.19686 23.33269,58.19686 5.46245,0 11.15085,-2.81981 15.28875,-7.57881 6.40638,-7.368 6.70412,-7.41545 10.70333,-1.70575 3.9034,5.57289 4.81882,5.11918 17.91092,-8.87735 7.5885,-8.11272 17.9506,-16.47076 23.02691,-18.57343 8.08394,-3.34849 10.24679,-3.06701 17.42435,2.2677 17.17164,12.7628 10.41231,33.59051 -13.55121,41.7557 -19.16262,6.52936 -31.04948,6.18058 -43.26928,-1.2696 l -10.10518,-6.16096 -7.84691,6.17236 c -9.38504,7.38227 -15.59554,7.7646 -24.5255,1.50983 -6.25858,-4.3837 -6.92143,-4.15565 -11.08337,3.81319 -6.69286,12.81482 -19.90128,24.011 -38.52746,32.65797 -21.22671,9.85423 -31.73603,9.94602 -41.32115,0.36088 z"
         style="fill:#00ff00;display:inline"
         id="path6449" />
      <path
         sodipodi:nodetypes="ccccsccccc"
         inkscape:connector-curvature="0"
         id="path6443"
         d="m 944.9375,212.09375 c -0.5461,0.0517 -1.13098,0.60413 -1.78125,1.65625 -1.03207,1.66997 -0.45647,12.50264 1.26395,25.14444 5.2402,32.43051 8.538,68.9348 13.611,102.32431 5.8583,38.11769 6.644,15.58924 1.0313,-29.5625 -2.8259,-22.73243 -6.1732,-49.86857 -7.4375,-60.3125 -0.3533,-2.78971 -1.3327,-13.1663 2.5312,-11.78125 3.3175,1.27296 3.1772,-0.71749 -0.6874,-9.75 -2.6699,-6.23935 -5.6113,-13.16832 -6.5313,-15.40625 -0.6618,-1.60975 -1.2978,-2.37903 -2,-2.3125 z"
         style="fill:#00ff00;display:inline" />
      <path
         inkscape:connector-curvature="0"
         id="path6441"
         d="m 257.74012,308.06742 c -1.097,-23.48929 -2.71802,-55.74892 -3.60227,-71.68808 -1.46005,-26.3185 -1.21895,-28.15569 2.62496,-20.0025 2.33765,4.9583 3.5862,13.83585 2.78873,19.82862 -0.79416,5.96796 -0.002,30.19315 1.76108,53.83377 1.76277,23.64061 2.12885,46.97737 0.81353,51.85945 -1.63764,6.07846 -3.02021,-4.58586 -4.38603,-33.83126 z"
         style="fill:#008080;display:inline" />
      <path
         inkscape:connector-curvature="0"
         id="path6385"
         d="m 454.86765,254.65246 c -0.16534,-10.70645 -2.15577,-18.03846 -6.34195,-23.36033 -3.35562,-4.26597 -6.10112,-10.8136 -6.10112,-14.55029 0,-6.50045 0.28981,-6.42575 6.70421,1.72901 6.62428,8.42142 11.38202,38.23755 7.61074,47.69528 -0.89707,2.2497 -1.73942,-2.93145 -1.87188,-11.51367 z"
         style="fill:#00ff00;display:inline" />
      <path
         inkscape:connector-curvature="0"
         d="m 627.32792,299.82056 c 0.23637,3.24832 1.75177,5.26983 4.50994,5.85278 3.55721,0.75263 5.56856,-1.17752 6.48071,-5.07986 0.20011,-0.85558 0.15516,-1.56905 -0.39589,-1.91418 -1.04845,-0.65402 -3.92699,0.0261 -5.31768,-0.71348 -1.73147,-0.91939 -2.17232,-4.82898 -1.74308,-6.65616 0.4278,-1.82863 1.5212,-3.78778 1.81849,-5.19732 0.0594,-0.28568 0.087,-0.54816 -0.0362,-0.69462 -0.016,-0.0189 -0.0319,-0.0362 -0.0478,-0.0522 -4.18657,-0.95563 -5.20456,15.33239 -5.26837,14.45505 z"
         style="fill:#00ff00;stroke:none"
         id="path6591" />
      <path
         id="path6600"
         style="fill:#00ff00;stroke:none"
         d="m 580.35651,312.31003 c 0.23637,3.24832 1.75177,5.26982 4.50994,5.85278 3.55721,0.75263 5.56856,-1.17752 6.4807,-5.07986 0.20012,-0.85558 0.15517,-1.56906 -0.39588,-1.91419 -1.04845,-0.65401 -3.92699,0.0261 -5.31769,-0.71347 -1.73147,-0.91939 -2.17231,-4.82898 -1.74307,-6.65617 0.42779,-1.82862 1.5212,-3.78778 1.81849,-5.19731 0.0594,-0.28568 0.087,-0.54816 -0.0362,-0.69462 -0.016,-0.0189 -0.0319,-0.0362 -0.0478,-0.0522 -4.18657,-0.95564 -5.20457,15.33239 -5.26838,14.45505 z"
         inkscape:connector-curvature="0" />
      <path
         inkscape:connector-curvature="0"
         d="m 540.5198,247.94393 c 0.23637,3.24832 1.75177,5.26982 4.50994,5.85278 3.55721,0.75263 5.56856,-1.17752 6.48071,-5.07986 0.20011,-0.85558 0.15516,-1.56906 -0.39589,-1.91419 -1.04845,-0.65401 -3.92699,0.0261 -5.31768,-0.71347 -1.73147,-0.91939 -2.17232,-4.82898 -1.74308,-6.65617 0.4278,-1.82862 1.5212,-3.78778 1.81849,-5.19731 0.0594,-0.28568 0.087,-0.54816 -0.0362,-0.69462 -0.016,-0.0189 -0.0319,-0.0362 -0.0478,-0.0522 -4.18657,-0.95564 -5.20456,15.33239 -5.26837,14.45505 z"
         style="fill:#00ff00;stroke:none"
         id="path6602" />
      <path
         inkscape:connector-curvature="0"
         style="fill:#00ff00;stroke:none"
         d="m 431.47709,342.30804 c 0,0 4.77875,-1.56125 6.67375,-1.13 0.99875,0.2275 2.0325,2.02625 2.68125,3.40375 1.1775,2.50125 2.3125,5.7225 2.74375,8.28 0.14375,0.85125 0.29875,1.63625 1.175,1.93625 0.55125,0.1875 1.39125,0.2 1.39125,0.2 0,0 0.002,-0.0138 0.007,-0.0387 0.4175,-2.3575 1.35,-6.31 1.5875,-8.69375 0.25,-2.50375 0.19375,-3.3725 2.325,-3.21375 3.2225,0.23875 4.31625,0.8075 5.7325,-1.76375 1.27,-2.30625 2.66125,-7.0125 0.445,-8.53875 -6.8575,-1.8475 -9.4175,7.175 -9.8475,9.24 -0.60625,2.91625 -0.86,6.0425 -0.86,6.0425 0,0 -1.68,-5.39875 -2.91625,-8.31625 -1.39,-3.28 -4.9775,-7.69875 -8.8475,-6.59375 -1.9225,0.5475 -2.5975,2.12 -2.59625,4.20125 0.001,1.91625 0.305,4.985 0.305,4.985 z"
         id="path6616" />
      <path
         id="path6628"
         style="fill:#00ff00;stroke:none"
         d="m 422.54394,226.58531 c 0.23637,3.24832 1.75177,5.26982 4.50994,5.85278 3.55721,0.75263 5.56856,-1.17752 6.48071,-5.07986 0.20011,-0.85558 0.15516,-1.56906 -0.39589,-1.91419 -1.04845,-0.65401 -3.92699,0.0261 -5.31768,-0.71347 -1.73147,-0.91939 -2.17232,-4.82898 -1.74308,-6.65617 0.4278,-1.82862 1.5212,-3.78778 1.81849,-5.19731 0.0594,-0.28568 0.087,-0.54816 -0.0362,-0.69462 -0.016,-0.0189 -0.0319,-0.0362 -0.0478,-0.0522 -4.18657,-0.95564 -5.20456,15.33239 -5.26837,14.45505 z"
         inkscape:connector-curvature="0" />
      <path
         id="path6630"
         d="m 812.02732,324.57976 c 0,0 4.77875,-1.56125 6.67375,-1.13 0.99875,0.2275 2.0325,2.02625 2.68125,3.40375 1.1775,2.50125 2.3125,5.7225 2.74375,8.28 0.14375,0.85125 0.29875,1.63625 1.175,1.93625 0.55125,0.1875 1.39125,0.2 1.39125,0.2 0,0 0.002,-0.0138 0.007,-0.0387 0.4175,-2.3575 1.35,-6.31 1.5875,-8.69375 0.25,-2.50375 0.19375,-3.3725 2.32496,-3.21375 3.2225,0.23875 4.3163,0.8075 5.7325,-1.76375 1.27,-2.30625 2.6613,-7.0125 0.445,-8.53875 -6.8575,-1.8475 -9.41746,7.175 -9.84746,9.24 -0.60625,2.91625 -0.86,6.0425 -0.86,6.0425 0,0 -1.68,-5.39875 -2.91625,-8.31625 -1.39,-3.28 -4.9775,-7.69875 -8.8475,-6.59375 -1.9225,0.5475 -2.5975,2.12 -2.59625,4.20125 10e-4,1.91625 0.305,4.985 0.305,4.985 z"
         style="fill:#00ff00;stroke:none"
         inkscape:connector-curvature="0" />
      <path
         sodipodi:nodetypes="ssssccs"
         inkscape:connector-curvature="0"
         id="path6395"
         d="m 734.73298,288.9105 c 0,-0.82456 7.32228,-5.50012 16.01542,-10.81959 l 104.43,-63.90232 c 4.46693,-2.73338 4.47241,-3.18851 2.86188,1.00848 -0.51627,1.34539 -3.36843,3.92461 -7.56386,7.01082 L 756.08688,279.71 c -16.24845,10.13194 -21.3539,12.33166 -21.3539,9.2005 z"
         style="fill:#00ff00;display:inline" />
      <path
         id="path6626"
         style="fill:#00ff00;stroke:none"
         d="m 800.81229,266.63884 c 0.23637,3.24832 1.75177,5.26983 4.50994,5.85278 3.55721,0.75263 5.56856,-1.17752 6.48071,-5.07986 0.20011,-0.85558 0.15516,-1.56905 -0.39589,-1.91418 -1.04845,-0.65402 -3.92699,0.0261 -5.31768,-0.71348 -1.73147,-0.91939 -2.17232,-4.82898 -1.74308,-6.65616 0.4278,-1.82863 1.5212,-3.78778 1.81849,-5.19732 0.0594,-0.28568 0.087,-0.54816 -0.0362,-0.69462 -0.016,-0.0189 -0.0319,-0.0362 -0.0478,-0.0522 -4.18657,-0.95563 -5.20456,15.33239 -5.26837,14.45505 z"
         inkscape:connector-curvature="0" />
      <path
         inkscape:connector-curvature="0"
         d="m 803.91948,225.0428 -7.17046,7.12345 c -1.19141,1.18406 -1.36182,1.39708 -1.69529,2.12573 -0.46716,1.02099 -0.62877,2.72804 -0.39812,2.96015 0.74187,0.74921 3.36854,-1.06948 4.2823,-1.74378 8.00488,-5.90413 11.65108,-9.6223 12.94532,-17.2658 0.65814,-3.88566 -1.39855,-5.38997 -5.04033,-5.88505 -5.77486,-0.78741 -11.50565,0.0176 -13.75037,4.36604 0.35111,16.6018 0.84325,7.1073 5.74108,5.92911 5.44872,-1.3104 11.30732,-4.22354 5.08587,2.39015 z"
         style="fill:#00ff00;stroke:none"
         id="path6664" />
      <path
         inkscape:connector-curvature="0"
         style="fill:#ff00ff;display:inline"
         d="m 59.052013,326.90951 c -5.34289,-5.3429 -4.06974,-26.509 2.44045,-40.57239 6.99407,-15.10865 7.64802,-12.77525 1.38867,4.95493 -5.58081,15.80816 -3.7013,27.07591 4.51635,27.07591 3.18383,0 6.48118,-1.71594 7.32744,-3.8132 0.84625,-2.09726 1.64702,-0.99906 1.77948,2.44045 0.25929,6.73342 -5.00029,13.57497 -10.43611,13.57497 -1.84559,0 -5.00291,-1.6473 -7.01628,-3.66067 z"
         id="path6712" />
      <path
         inkscape:connector-curvature="0"
         id="path6750"
         style="fill:#000000;display:inline"
         d="m 188.18793,317.483 -17.375,11.125 c -9.55754,6.12158 -18.20818,13.81125 -19.25,17.09375 -1.04183,3.28249 -2.92584,5.96875 -4.15625,5.96875 -2.53812,0 -16.49708,-27.59668 -14.8125,-29.28125 0.60212,-0.60214 13.34941,-1.95106 28.34375,-3 l 27.25,-1.90625 z m -14.59375,-53.59375 c 3.84657,-0.18164 13.09375,5.45528 13.09375,8.59375 0,4.84454 -12.26679,3.30581 -14.21875,-1.78125 -0.99366,-2.58907 -1.05876,-5.44127 -0.15625,-6.34375 0.28654,-0.28654 0.73174,-0.4428 1.28125,-0.46875 z m 2.625,-9.8125 c -7.21508,0 -13.01924,14.20124 -8.65625,21.1875 2.96612,4.74948 1.34239,6.86366 -11.9375,15.46875 -8.85195,5.73586 -17.01528,13.87267 -19.25,19.1875 l -3.875,9.21875 -2.25,-7.375 c -4.09871,-13.36418 -23.59629,-51.59375 -26.3125,-51.59375 -4.46675,0 -3.14721,4.45834 9.53125,32.03125 6.71122,14.59546 12.1875,29.36286 12.1875,32.8125 0,11.72452 -28.19095,43.21583 -41.968754,46.875 -18.5177,-2.92916 -19.88145,-27.5846 -10.94357,-36.52248 -4.78928,4.65225 -5.65429,6.23644 -6.31174,8.63961 -3.53552,12.9233 -1.97416,25.92436 5.88036,35.16412 3.02141,3.33861 7.00897,6.0625 8.875,6.0625 6.77742,0 35.725084,-28.4504 42.500004,-41.78125 l 6.93745,-13.6875 3.6875,12.3125 c 5.94785,19.85216 37.125,41.29302 37.125,25.53125 0,-3.27341 -3.7708,-6.84926 -9.46875,-9 -5.34158,-2.01622 -8.8871,-5.27621 -8.15625,-7.46875 1.81972,-5.45922 31.46942,-22.644 49.65625,-28.78125 27.0998,-9.14497 23.06231,-11.7187 -20.71875,-13.375 l -40.3125,-1.53125 16.71875,-9.71875 c 11.98897,-6.97236 17.38004,-8.72179 19.03125,-6.125 1.54712,2.4331 2.31235,1.89199 2.34375,-1.65625 0.0269,-3.04322 3.20806,-6.0712 7.53125,-7.15625 9.2944,-2.33275 14.52135,-8.27513 12.3125,-14.03125 -2.05448,-5.35396 -17.42965,-14.6875 -24.15625,-14.6875 z" />
      <path
         id="path6758"
         style="fill:#00ff00;stroke:none"
         d="m 772.71995,337.23763 c 0.23637,3.24832 1.75177,5.26983 4.50994,5.85278 3.55721,0.75263 5.56856,-1.17752 6.48071,-5.07986 0.20011,-0.85558 0.15516,-1.56905 -0.39589,-1.91418 -1.04845,-0.65402 -3.92699,0.0261 -5.31768,-0.71348 -1.73147,-0.91939 -2.17232,-4.82898 -1.74308,-6.65616 0.4278,-1.82863 1.5212,-3.78778 1.81849,-5.19732 0.0594,-0.28568 0.087,-0.54816 -0.0362,-0.69462 -0.016,-0.0189 -0.0319,-0.0362 -0.0478,-0.0522 -4.18657,-0.95563 -5.20456,15.33239 -5.26837,14.45505 z"
         inkscape:connector-curvature="0" />
      <path
         inkscape:connector-curvature="0"
         d="m 936.82052,354.5736 c 0.23637,3.24832 1.75177,5.26983 4.50994,5.85278 3.55724,0.75263 5.56854,-1.17752 6.48074,-5.07986 0.2001,-0.85558 0.1551,-1.56905 -0.3959,-1.91418 -1.0485,-0.65402 -3.92701,0.0261 -5.3177,-0.71348 -1.73147,-0.91939 -2.17232,-4.82898 -1.74308,-6.65616 0.4278,-1.82863 1.5212,-3.78778 1.81849,-5.19732 0.0594,-0.28568 0.087,-0.54816 -0.0362,-0.69462 -0.016,-0.0189 -0.0319,-0.0362 -0.0478,-0.0522 -4.18657,-0.95563 -5.20456,15.33239 -5.26837,14.45505 z"
         style="fill:#00ff00;stroke:none"
         id="path6760" />
      <path
         inkscape:connector-curvature="0"
         style="fill:#00ff00;stroke:none"
         d="m 727.57165,242.79674 c 0,0 4.77875,-1.56125 6.67375,-1.13 0.99875,0.2275 2.0325,2.02625 2.68125,3.40375 1.1775,2.50125 2.3125,5.7225 2.74375,8.28 0.14375,0.85125 0.29875,1.63625 1.175,1.93625 0.55125,0.1875 1.39125,0.2 1.39125,0.2 0,0 0.002,-0.0138 0.007,-0.0387 0.4175,-2.3575 1.35,-6.31 1.5875,-8.69375 0.25,-2.50375 0.19375,-3.3725 2.32496,-3.21375 3.2225,0.23875 4.3163,0.8075 5.7325,-1.76375 1.27,-2.30625 2.6613,-7.0125 0.445,-8.53875 -6.8575,-1.8475 -9.41746,7.175 -9.84746,9.24 -0.60625,2.91625 -0.86,6.0425 -0.86,6.0425 0,0 -1.68,-5.39875 -2.91625,-8.31625 -1.39,-3.28 -4.9775,-7.69875 -8.8475,-6.59375 -1.9225,0.5475 -2.5975,2.12 -2.59625,4.20125 10e-4,1.91625 0.305,4.985 0.305,4.985 z"
         id="path6762" />
      <path
         inkscape:connector-curvature="0"
         style="fill:#00ff00;stroke:none"
         d="m 566.66032,261.50527 c 0,0 4.77875,-1.56125 6.67375,-1.13 0.99875,0.2275 2.0325,2.02625 2.68125,3.40375 1.1775,2.50125 2.3125,5.7225 2.74375,8.28 0.14375,0.85125 0.29875,1.63625 1.175,1.93625 0.55125,0.1875 1.39125,0.2 1.39125,0.2 0,0 0.002,-0.0138 0.007,-0.0387 0.4175,-2.3575 1.35,-6.31 1.5875,-8.69375 0.25,-2.50375 0.19375,-3.3725 2.32496,-3.21375 3.2225,0.23875 4.3163,0.8075 5.7325,-1.76375 1.27,-2.30625 2.6613,-7.0125 0.445,-8.53875 -6.8575,-1.8475 -9.41746,7.175 -9.84746,9.24 -0.60625,2.91625 -0.86,6.0425 -0.86,6.0425 0,0 -1.68,-5.39875 -2.91625,-8.31625 -1.39,-3.28 -4.9775,-7.69875 -8.8475,-6.59375 -1.9225,0.5475 -2.5975,2.12 -2.59625,4.20125 10e-4,1.91625 0.305,4.985 0.305,4.985 z"
         id="path6764" />
      <path
         inkscape:connector-curvature="0"
         d="m 551.90627,342.77821 c 0.23637,3.24832 1.75177,5.26982 4.50994,5.85278 3.55721,0.75263 5.56856,-1.17752 6.4807,-5.07986 0.20012,-0.85558 0.15517,-1.56906 -0.39588,-1.91419 -1.04845,-0.65401 -3.92699,0.0261 -5.31769,-0.71347 -1.73147,-0.91939 -2.17231,-4.82898 -1.74307,-6.65617 0.42779,-1.82862 1.5212,-3.78778 1.81849,-5.19731 0.0594,-0.28568 0.087,-0.54816 -0.0362,-0.69462 -0.016,-0.0189 -0.0319,-0.0362 -0.0478,-0.0522 -4.18657,-0.95564 -5.20457,15.33239 -5.26838,14.45505 z"
         style="fill:#00ff00;stroke:none"
         id="path6766" />
      <path
         style="fill:#00ff00;display:inline"
         d="m 612.86025,288.9105 c 0,-0.82456 7.32228,-5.50012 16.01542,-10.81959 l 104.43,-63.90232 c 4.46693,-2.73338 4.47241,-3.18851 2.86188,1.00848 -0.51627,1.34539 -3.36843,3.92461 -7.56386,7.01082 L 634.21415,279.71 c -16.24845,10.13194 -21.3539,12.33166 -21.3539,9.2005 z"
         id="path6768"
         inkscape:connector-curvature="0"
         sodipodi:nodetypes="ssssccs" />
      <path
         id="path6770"
         d="m 626.01104,221.89626 c 0,0 4.77875,-1.56125 6.67375,-1.13 0.99875,0.2275 2.0325,2.02625 2.68125,3.40375 1.1775,2.50125 2.3125,5.7225 2.74375,8.28 0.14375,0.85125 0.29875,1.63625 1.175,1.93625 0.55125,0.1875 1.39125,0.2 1.39125,0.2 0,0 0.002,-0.0138 0.007,-0.0387 0.4175,-2.3575 1.35,-6.31 1.5875,-8.69375 0.25,-2.50375 0.19375,-3.3725 2.32496,-3.21375 3.2225,0.23875 4.3163,0.8075 5.7325,-1.76375 1.27,-2.30625 2.6613,-7.0125 0.445,-8.53875 -6.8575,-1.8475 -9.41746,7.175 -9.84746,9.24 -0.60625,2.91625 -0.86,6.0425 -0.86,6.0425 0,0 -1.68,-5.39875 -2.91625,-8.31625 -1.39,-3.28 -4.9775,-7.69875 -8.8475,-6.59375 -1.9225,0.5475 -2.5975,2.12 -2.59625,4.20125 10e-4,1.91625 0.305,4.985 0.305,4.985 z"
         style="fill:#00ff00;stroke:none"
         inkscape:connector-curvature="0" />
      <path
         id="path6772"
         style="fill:#00ff00;stroke:none"
         d="m 690.39256,218.10293 c -0.23637,-3.24832 -1.75177,-5.26982 -4.50994,-5.85278 -3.55721,-0.75263 -5.56856,1.17752 -6.48071,5.07986 -0.20011,0.85558 -0.15516,1.56906 0.39589,1.91419 1.04845,0.65401 3.92699,-0.0261 5.31768,0.71347 1.73147,0.91939 2.17232,4.82898 1.74308,6.65617 -0.4278,1.82862 -1.5212,3.78778 -1.81849,5.19731 -0.0594,0.28568 -0.087,0.54816 0.0362,0.69462 0.016,0.0189 0.0319,0.0362 0.0478,0.0522 4.18657,0.95564 5.20456,-15.33239 5.26837,-14.45505 z"
         inkscape:connector-curvature="0" />
      <path
         sodipodi:nodetypes="ccccsccscc"
         inkscape:connector-curvature="0"
         id="path6790"
         d="m 623.1875,354.92515 c -0.48036,0.12475 -1.57696,0.8979 -3.53125,2.09375 l -4.77547,2.92085 -26.00335,16.06319 c -6.48153,4.03825 -11.31493,7.25158 -11.31493,7.92221 0,2.63508 3.66853,1.44903 14.5135,-5.03016 l 22.8615,-13.84484 c 4.19543,-3.08621 7.04623,-5.65461 7.5625,-7 0.80526,-2.0985 1.20217,-3.05583 0.84375,-3.125 -0.0448,-0.009 -0.0876,-0.0178 -0.15625,0 z"
         style="fill:#00ff00;display:inline" />
      <path
         inkscape:connector-curvature="0"
         d="m 582.88981,222.46145 -0.85922,0.0141 c -1.1045,0.0204 -1.25292,0.15778 -1.48882,1.38257 -0.10311,0.53585 -0.41086,1.35446 -0.75611,2.14495 -2.01528,4.60546 -4.41644,3.54158 -6.14583,0.13903 -1.57786,-3.10416 -3.47128,-6.53794 -3.78373,0.35151 -0.12336,2.76359 0.18435,8.02988 2.31367,9.46401 2.2793,1.53567 5.81151,0.34368 8.01582,-1.14511 0.51866,-0.34995 0.98108,-0.75769 1.23261,-1.27635 0.14372,-0.29683 0.21871,-0.63114 0.27183,-0.95922 l 0.31087,-1.92779 2.14807,0.24214 c 0.39057,0.0453 0.79987,0.0827 1.19199,0.0656 1.36695,-0.061 2.4199,-0.72019 3.20883,-1.69502 3.58219,-4.42893 1.92779,-9.77803 -0.88111,-13.54144 -2.1012,-2.81671 -5.64903,-7.23626 -2.18087,1.60128 1.26541,3.2229 1.07013,5.0757 -2.598,5.13976 z"
         style="fill:#00ff00;stroke:none"
         id="path6895" />
      <path
         id="path6904"
         style="fill:#00ff00;stroke:none"
         d="m 763.04694,293.92705 -0.85922,0.0141 c -1.1045,0.0204 -1.25292,0.15778 -1.48882,1.38257 -0.10311,0.53585 -0.41086,1.35446 -0.75611,2.14495 -2.01528,4.60546 -4.41644,3.54158 -6.14583,0.13903 -1.57786,-3.10416 -3.47128,-6.53794 -3.78373,0.35151 -0.12336,2.76359 0.18435,8.02988 2.31367,9.46401 2.2793,1.53567 5.81151,0.34368 8.01582,-1.14511 0.51866,-0.34995 0.98108,-0.75769 1.23261,-1.27635 0.14372,-0.29683 0.21871,-0.63114 0.27183,-0.95922 l 0.31087,-1.92779 2.14807,0.24214 c 0.39057,0.0453 0.79987,0.0827 1.19199,0.0656 1.36695,-0.061 2.4199,-0.72019 3.20883,-1.69502 3.58219,-4.42893 1.92779,-9.77803 -0.88111,-13.54144 -2.1012,-2.81671 -5.64903,-7.23626 -2.18087,1.60128 1.26541,3.2229 1.07013,5.0757 -2.598,5.13976 z"
         inkscape:connector-curvature="0" />
      <path
         id="path6906"
         style="fill:#00ff00;stroke:none"
         d="m 903.12074,276.64931 c 0.23637,3.24832 1.75177,5.26983 4.50994,5.85278 3.55724,0.75263 5.56854,-1.17752 6.48074,-5.07986 0.2001,-0.85558 0.1551,-1.56905 -0.3959,-1.91418 -1.0485,-0.65402 -3.92701,0.0261 -5.3177,-0.71348 -1.73147,-0.91939 -2.17232,-4.82898 -1.74308,-6.65616 0.4278,-1.82863 1.5212,-3.78778 1.81849,-5.19732 0.0594,-0.28568 0.087,-0.54816 -0.0362,-0.69462 -0.016,-0.0189 -0.0319,-0.0362 -0.0478,-0.0522 -4.18657,-0.95563 -5.20456,15.33239 -5.26837,14.45505 z"
         inkscape:connector-curvature="0" />
      <path
         inkscape:connector-curvature="0"
         d="m 824.32483,283.5145 0.32618,-0.002 c 0.44657,-0.004 0.90534,-0.0137 1.32904,-0.038 0.8139,-0.0441 1.74515,-0.22709 2.73584,-0.50754 9.97856,-4.18834 11.76029,-6.73213 19.53798,-13.56182 2.7084,-2.37918 4.25541,-3.73871 4.25541,-3.73871 l 1.39002,1.31838 c 0.27433,0.3475 0.35664,0.45572 0.43895,0.57002 0.58374,0.81238 1.06079,1.68266 1.39916,2.79833 0.24081,0.79561 0.95869,5.85118 2.16885,5.59665 0.91753,-0.19356 1.46775,-3.69757 1.63235,-4.93974 0.44505,-4.11062 -1.30923,-6.95161 -3.59392,-9.74841 -0.32922,-0.40086 -0.51059,-0.50297 -0.51059,-0.50297 l 2.15209,-4.26455 c 0.67063,-1.70094 1.6857,-3.53448 2.15208,-5.13179 0.85353,-2.91721 -0.78035,-8.05052 -4.42153,-8.8705 -3.04828,-0.68586 -7.51249,1.13091 -8.71962,2.96445 -0.44962,0.68129 -2.06978,8.46508 -1.54852,11.30609 0.24234,1.32142 0.85352,3.0559 1.42203,4.49775 0.60812,1.54547 1.87317,2.22067 1.87317,2.22067 0,0 -2.08198,1.71618 -2.86692,2.36242 -0.53955,0.44505 -1.89298,1.56529 -3.59392,2.95683 -4.38649,3.59241 -9.4695,7.94383 -14.52965,10.54249 -1.02422,0.52583 -2.1018,1.0791 -3.04828,1.56377 -4.45964,2.29079 -4.52975,2.31213 0.0198,2.60933 z m 30.66575,-27.10533 -1.97072,2.62304 -2.60475,-2.60628 c -1.19188,-1.1934 -2.25727,-2.83185 -1.8686,-3.86218 0.64471,-1.70856 4.80714,-2.12161 5.83289,-1.67808 2.66267,1.14769 2.29841,3.27386 0.61118,5.5235 z"
         style="fill:#00ff00;stroke:none"
         id="path6920" />
      <path
         id="path6929"
         d="m 444.8404,298.71545 c 0,0 4.77875,-1.56125 6.67375,-1.13 0.99875,0.2275 2.0325,2.02625 2.68125,3.40375 1.1775,2.50125 2.3125,5.7225 2.74375,8.28 0.14375,0.85125 0.29875,1.63625 1.175,1.93625 0.55125,0.1875 1.39125,0.2 1.39125,0.2 0,0 0.002,-0.0138 0.007,-0.0387 0.4175,-2.3575 1.35,-6.31 1.5875,-8.69375 0.25,-2.50375 0.19375,-3.3725 2.32496,-3.21375 3.2225,0.23875 4.3163,0.8075 5.7325,-1.76375 1.27,-2.30625 2.6613,-7.0125 0.445,-8.53875 -6.8575,-1.8475 -9.41746,7.175 -9.84746,9.24 -0.60625,2.91625 -0.86,6.0425 -0.86,6.0425 0,0 -1.68,-5.39875 -2.91625,-8.31625 -1.39,-3.28 -4.9775,-7.69875 -8.8475,-6.59375 -1.9225,0.5475 -2.5975,2.12 -2.59625,4.20125 0.001,1.91625 0.305,4.985 0.305,4.985 z"
         style="fill:#00ff00;stroke:none"
         inkscape:connector-curvature="0" />
      <path
         inkscape:connector-curvature="0"
         style="fill:#00ff00;stroke:none"
         d="m 506.21746,377.53954 c 0.0479,-0.1266 0.10528,-0.26571 0.16972,-0.39509 0.59125,-1.18527 1.76316,-1.54419 2.75575,-2.11874 1.16524,-0.67333 2.04293,-1.59984 2.60552,-2.66269 1.92843,-3.64763 0.87309,-7.12276 -2.09997,-7.07129 -0.21312,0.004 -0.393,0.007 -0.54227,0.01 -3.24322,0.80688 0.45923,-3.53495 0.74983,-4.09141 1.302,-2.49158 2.69135,-4.59223 -1.47852,-3.21776 -2.88695,0.95155 -5.29088,3.89386 -6.49257,6.80418 -1.76412,4.27226 -1.50023,5.71212 2.91561,6.10721 1.00539,0.0905 1.73103,0.33388 0.95879,1.17414 -2.71235,2.95066 -6.32159,7.19649 -4.77934,10.01777 3.43603,6.28388 15.16118,1.55949 18.72492,-0.68724 3.56987,-2.24951 6.76565,-5.13061 9.18835,-7.3203 0.10061,-0.0918 0.20131,-0.18224 0.30175,-0.27267 1.31716,-1.18944 4.97453,-4.53658 3.99125,-5.605 -0.79769,-0.86808 -2.93535,0.69698 -4.87436,2.46375 -4.63174,4.22219 -6.04154,6.07243 -12.4096,7.20484 -0.13522,0.0237 -0.27225,0.0473 -0.41123,0.0709 -0.25694,0.0431 -0.52085,0.0848 -0.79198,0.12521 -3.942,0.58429 -9.0996,1.10737 -8.48165,-0.5356 z"
         id="path7003" />
      <path
         inkscape:connector-curvature="0"
         d="m 340.80717,379.21985 c 0.23637,3.24832 1.75177,5.26982 4.50994,5.85278 3.55721,0.75263 5.56856,-1.17752 6.48071,-5.07986 0.20011,-0.85558 0.15516,-1.56906 -0.39589,-1.91419 -1.04845,-0.65401 -3.92699,0.0261 -5.31768,-0.71347 -1.73147,-0.91939 -2.17232,-4.82898 -1.74308,-6.65617 0.4278,-1.82862 1.5212,-3.78778 1.81849,-5.19731 0.0594,-0.28568 0.087,-0.54816 -0.0362,-0.69462 -0.016,-0.0189 -0.0319,-0.0362 -0.0478,-0.0522 -4.18657,-0.95564 -5.20456,15.33239 -5.26837,14.45505 z"
         style="fill:#000000;stroke:none"
         id="path7053" />
      <path
         inkscape:connector-curvature="0"
         d="m 273.36603,330.23496 c 0.23637,3.24832 1.75177,5.26982 4.50994,5.85278 3.55721,0.75263 5.56856,-1.17752 6.48071,-5.07986 0.20011,-0.85558 0.15516,-1.56906 -0.39589,-1.91419 -1.04845,-0.65401 -3.92699,0.0261 -5.31768,-0.71347 -1.73147,-0.91939 -2.17232,-4.82898 -1.74308,-6.65617 0.4278,-1.82862 1.5212,-3.78778 1.81849,-5.19731 0.0594,-0.28568 0.087,-0.54816 -0.0362,-0.69462 -0.016,-0.0189 -0.0319,-0.0362 -0.0478,-0.0522 -4.18657,-0.95564 -5.20456,15.33239 -5.26837,14.45505 z"
         style="fill:#ff00ff;stroke:none"
         id="path7059" />
      <path
         id="path7061"
         style="fill:#ff00ff;stroke:none"
         d="m 268.45148,282.0567 c 0.23637,3.24832 1.75177,5.26982 4.50994,5.85278 3.55721,0.75263 5.56856,-1.17752 6.48071,-5.07986 0.20011,-0.85558 0.15516,-1.56906 -0.39589,-1.91419 -1.04845,-0.65401 -3.92699,0.0261 -5.31768,-0.71347 -1.73147,-0.91939 -2.17232,-4.82898 -1.74308,-6.65617 0.4278,-1.82862 1.5212,-3.78778 1.81849,-5.19731 0.0594,-0.28568 0.087,-0.54816 -0.0362,-0.69462 -0.016,-0.0189 -0.0319,-0.0362 -0.0478,-0.0522 -4.18657,-0.95564 -5.20456,15.33239 -5.26837,14.45505 z"
         inkscape:connector-curvature="0" />
      <path
         inkscape:connector-curvature="0"
         d="m 324.08324,324.94776 c 0.23637,3.24832 1.75177,5.26982 4.50994,5.85278 3.55721,0.75263 5.56856,-1.17752 6.48071,-5.07986 0.20011,-0.85558 0.15516,-1.56906 -0.39589,-1.91419 -1.04845,-0.65401 -3.92699,0.0261 -5.31768,-0.71347 -1.73147,-0.91939 -2.17232,-4.82898 -1.74308,-6.65617 0.4278,-1.82862 1.5212,-3.78778 1.81849,-5.19731 0.0594,-0.28568 0.087,-0.54816 -0.0362,-0.69462 -0.016,-0.0189 -0.0319,-0.0362 -0.0478,-0.0522 -4.18657,-0.95564 -5.20456,15.33239 -5.26837,14.45505 z"
         style="fill:#ff00ff;stroke:none"
         id="path7063" />
      <path
         id="path7065"
         style="fill:#000000;stroke:none"
         d="m 364.09985,270.05637 -0.85922,0.0141 c -1.1045,0.0204 -1.25292,0.15778 -1.48882,1.38257 -0.10311,0.53585 -0.41086,1.35446 -0.75611,2.14495 -2.01528,4.60546 -4.41644,3.54158 -6.14583,0.13903 -1.57786,-3.10416 -3.47128,-6.53794 -3.78373,0.35151 -0.12336,2.76359 0.18435,8.02988 2.31367,9.46401 2.2793,1.53567 5.81151,0.34368 8.01582,-1.14511 0.51866,-0.34995 0.98108,-0.75769 1.23261,-1.27635 0.14372,-0.29683 0.21871,-0.63114 0.27183,-0.95922 l 0.31087,-1.92779 2.14807,0.24214 c 0.39057,0.0453 0.79987,0.0827 1.19199,0.0656 1.36695,-0.061 2.4199,-0.72019 3.20883,-1.69502 3.58219,-4.42893 1.92779,-9.77803 -0.88111,-13.54144 -2.1012,-2.81671 -5.64903,-7.23626 -2.18087,1.60128 1.26541,3.2229 1.07013,5.0757 -2.598,5.13976 z"
         inkscape:connector-curvature="0" />
      <path
         id="path7067"
         style="fill:#008080;stroke:none"
         d="m 374.12599,253.26056 0.32618,-0.002 c 0.44657,-0.004 0.90534,-0.0137 1.32904,-0.038 0.8139,-0.0441 1.74515,-0.22709 2.73584,-0.50754 9.97856,-4.18834 11.76029,-6.73213 19.53798,-13.56182 2.7084,-2.37918 4.25541,-3.73871 4.25541,-3.73871 l 1.39002,1.31838 c 0.27433,0.3475 0.35664,0.45572 0.43895,0.57002 0.58374,0.81238 1.06079,1.68266 1.39916,2.79833 0.24081,0.79561 0.95869,5.85118 2.16885,5.59665 0.91753,-0.19356 1.46775,-3.69757 1.63235,-4.93974 0.44505,-4.11062 -1.30923,-6.95161 -3.59392,-9.74841 -0.32922,-0.40086 -0.51059,-0.50297 -0.51059,-0.50297 l 2.15209,-4.26455 c 0.67063,-1.70094 1.6857,-3.53448 2.15208,-5.13179 0.85353,-2.91721 -0.78035,-8.05052 -4.42153,-8.8705 -3.04828,-0.68586 -7.51249,1.13091 -8.71962,2.96445 -0.44962,0.68129 -2.06978,8.46508 -1.54852,11.30609 0.24234,1.32142 0.85352,3.0559 1.42203,4.49775 0.60812,1.54547 1.87317,2.22067 1.87317,2.22067 0,0 -2.08198,1.71618 -2.86692,2.36242 -0.53955,0.44505 -1.89298,1.56529 -3.59392,2.95683 -4.38649,3.59241 -9.4695,7.94383 -14.52965,10.54249 -1.02422,0.52583 -2.1018,1.0791 -3.04828,1.56377 -4.45964,2.29079 -4.52975,2.31213 0.0198,2.60933 z m 30.66575,-27.10533 -1.97072,2.62304 -2.60475,-2.60628 c -1.19188,-1.1934 -2.25727,-2.83185 -1.8686,-3.86218 0.64471,-1.70856 4.80714,-2.12161 5.83289,-1.67808 2.66267,1.14769 2.29841,3.27386 0.61118,5.5235 z"
         inkscape:connector-curvature="0" />
      <path
         id="path7069"
         style="fill:#008080;stroke:none"
         d="m 79.166245,225.0428 -7.17046,7.12345 c -1.19141,1.18406 -1.36182,1.39708 -1.69529,2.12573 -0.46716,1.02099 -0.62877,2.72804 -0.39812,2.96015 0.74187,0.74921 3.36854,-1.06948 4.2823,-1.74378 8.00488,-5.90413 11.65108,-9.6223 12.94532,-17.2658 0.65814,-3.88566 -1.39855,-5.38997 -5.04033,-5.88505 -5.77486,-0.78741 -11.50565,0.0176 -13.75037,4.36604 0.35111,16.6018 0.84325,7.1073 5.74108,5.92911 5.44872,-1.3104 11.30732,-4.22354 5.08587,2.39015 z"
         inkscape:connector-curvature="0" />
      <path
         id="path7071"
         d="m 99.99496,221.89626 c 0,0 4.77875,-1.56125 6.67375,-1.13 0.99875,0.2275 2.0325,2.02625 2.68125,3.40375 1.1775,2.50125 2.3125,5.7225 2.74375,8.28 0.14375,0.85125 0.29875,1.63625 1.175,1.93625 0.55125,0.1875 1.39125,0.2 1.39125,0.2 0,0 0.002,-0.0138 0.007,-0.0387 0.4175,-2.3575 1.35,-6.31 1.5875,-8.69375 0.25,-2.50375 0.19375,-3.3725 2.32496,-3.21375 3.2225,0.23875 4.3163,0.8075 5.7325,-1.76375 1.27,-2.30625 2.6613,-7.0125 0.445,-8.53875 -6.8575,-1.8475 -9.41746,7.175 -9.84746,9.24 -0.60625,2.91625 -0.86,6.0425 -0.86,6.0425 0,0 -1.68,-5.39875 -2.91625,-8.31625 -1.39,-3.28 -4.9775,-7.69875 -8.8475,-6.59375 -1.9225,0.5475 -2.5975,2.12 -2.59625,4.20125 0.001,1.91625 0.305,4.985 0.305,4.985 z"
         style="fill:#008080;stroke:none"
         inkscape:connector-curvature="0" />
      <path
         id="path7073"
         style="fill:#000000;stroke:none"
         d="m 142.20137,257.41895 -0.85922,0.0141 c -1.1045,0.0204 -1.25292,0.15778 -1.48882,1.38257 -0.10311,0.53585 -0.41086,1.35446 -0.75611,2.14495 -2.01528,4.60546 -4.41644,3.54158 -6.14583,0.13903 -1.57786,-3.10416 -3.47128,-6.53794 -3.78373,0.35151 -0.12336,2.76359 0.18435,8.02988 2.31367,9.46401 2.2793,1.53567 5.81151,0.34368 8.01582,-1.14511 0.51866,-0.34995 0.98108,-0.75769 1.23261,-1.27635 0.14372,-0.29683 0.21871,-0.63114 0.27183,-0.95922 l 0.31087,-1.92779 2.14807,0.24214 c 0.39057,0.0453 0.79987,0.0827 1.19199,0.0656 1.36695,-0.061 2.4199,-0.72019 3.20883,-1.69502 3.58219,-4.42893 1.92779,-9.77803 -0.88111,-13.54144 -2.1012,-2.81671 -5.64903,-7.23626 -2.18087,1.60128 1.26541,3.2229 1.07013,5.0757 -2.598,5.13976 z"
         inkscape:connector-curvature="0" />
      <path
         inkscape:connector-curvature="0"
         style="fill:#ff00ff;stroke:none"
         d="m 85.953388,319.07574 c 0,0 4.77875,-1.56125 6.67375,-1.13 0.99875,0.2275 2.032502,2.02625 2.681252,3.40375 1.1775,2.50125 2.3125,5.7225 2.74375,8.28 0.14375,0.85125 0.29875,1.63625 1.175,1.93625 0.55125,0.1875 1.39125,0.2 1.39125,0.2 0,0 0.002,-0.0138 0.007,-0.0387 0.4175,-2.3575 1.35,-6.31 1.5875,-8.69375 0.25,-2.50375 0.19375,-3.3725 2.32496,-3.21375 3.2225,0.23875 4.3163,0.8075 5.7325,-1.76375 1.27,-2.30625 2.6613,-7.0125 0.445,-8.53875 -6.8575,-1.8475 -9.41746,7.175 -9.84746,9.24 -0.60625,2.91625 -0.86,6.0425 -0.86,6.0425 0,0 -1.68,-5.39875 -2.91625,-8.31625 -1.39,-3.28 -4.977502,-7.69875 -8.847502,-6.59375 -1.9225,0.5475 -2.5975,2.12 -2.59625,4.20125 0.001,1.91625 0.305,4.985 0.305,4.985 z"
         id="path7075" />
      <path
         id="path7077"
         d="m 206.70027,347.41382 c 0.0559,-0.29724 0.12368,-0.70219 0.011,-0.90568 -0.20747,-0.37903 -1.03733,-0.0658 -1.87119,0.34113 -2.34397,1.14705 -4.71189,3.04018 -7.07581,4.38074 -1.07125,0.60843 -2.28014,1.22087 -3.55288,1.69764 -3.67455,1.37446 -9.35395,1.91308 -6.96409,-3.35139 1.29466,-2.85068 5.26845,-5.77117 6.226,-8.06926 0.51268,-1.23483 -0.22543,-4.53037 -1.88118,-5.39813 -2.28612,-1.19693 -7.28926,1.38245 -8.55202,2.79881 -1.67969,1.88316 -3.99573,6.83244 -2.6452,7.45882 0.71815,0.33515 2.6093,-0.97349 4.34284,-1.39441 0.7381,-0.17954 1.44629,-0.19749 1.69165,0.11776 0.26731,0.3471 -0.0239,1.09917 -0.43288,1.88914 -2.55743,4.94329 -6.59905,8.19495 -5.6036,11.56627 2.98033,10.09208 18.65605,-4.37675 24.26963,-9.05672 1.75948,-1.46423 1.96295,-1.6717 2.03677,-2.07467 z"
         style="fill:#000000;stroke:none"
         inkscape:connector-curvature="0" />
      <path
         inkscape:connector-curvature="0"
         d="m 161.7379,253.26056 0.32618,-0.002 c 0.44657,-0.004 0.90534,-0.0137 1.32904,-0.038 0.8139,-0.0441 1.74515,-0.22709 2.73584,-0.50754 9.97856,-4.18834 11.76029,-6.73213 19.53798,-13.56182 2.7084,-2.37918 4.25541,-3.73871 4.25541,-3.73871 l 1.39002,1.31838 c 0.27433,0.3475 0.35664,0.45572 0.43895,0.57002 0.58374,0.81238 1.06079,1.68266 1.39916,2.79833 0.24081,0.79561 0.95869,5.85118 2.16885,5.59665 0.91753,-0.19356 1.46775,-3.69757 1.63235,-4.93974 0.44505,-4.11062 -1.30923,-6.95161 -3.59392,-9.74841 -0.32922,-0.40086 -0.51059,-0.50297 -0.51059,-0.50297 l 2.15209,-4.26455 c 0.67063,-1.70094 1.6857,-3.53448 2.15208,-5.13179 0.85353,-2.91721 -0.78035,-8.05052 -4.42153,-8.8705 -3.04828,-0.68586 -7.51249,1.13091 -8.71962,2.96445 -0.44962,0.68129 -2.06978,8.46508 -1.54852,11.30609 0.24234,1.32142 0.85352,3.0559 1.42203,4.49775 0.60812,1.54547 1.87317,2.22067 1.87317,2.22067 0,0 -2.08198,1.71618 -2.86692,2.36242 -0.53955,0.44505 -1.89298,1.56529 -3.59392,2.95683 -4.38649,3.59241 -9.4695,7.94383 -14.52965,10.54249 -1.02422,0.52583 -2.1018,1.0791 -3.04828,1.56377 -4.45964,2.29079 -4.52975,2.31213 0.0198,2.60933 z m 30.66575,-27.10533 -1.97072,2.62304 -2.60475,-2.60628 c -1.19188,-1.1934 -2.25727,-2.83185 -1.8686,-3.86218 0.64471,-1.70856 4.80714,-2.12161 5.83289,-1.67808 2.66267,1.14769 2.29841,3.27386 0.61118,5.5235 z"
         style="fill:#008080;stroke:none"
         id="path7079" />
      <path
         style="fill:#00ff00;display:inline"
         d="m 563.37774,212.10009 c -0.48036,0.12475 -1.57696,0.8979 -3.53125,2.09375 l -4.77547,2.92085 -46.40276,26.73365 c -6.48153,4.03825 -11.31493,7.25158 -11.31493,7.92221 0,2.63508 3.66853,1.44903 14.5135,-5.03016 l 43.26091,-24.5153 c 4.19543,-3.08621 7.04623,-5.65461 7.5625,-7 0.80526,-2.0985 1.20217,-3.05583 0.84375,-3.125 -0.0448,-0.009 -0.0876,-0.0178 -0.15625,0 z"
         id="path7081"
         inkscape:connector-curvature="0"
         sodipodi:nodetypes="ccccsccscc" />
      <path
         inkscape:connector-curvature="0"
         d="m 528.60099,218.10294 c -0.23637,-3.24832 -1.75177,-5.26982 -4.50994,-5.85278 -3.55721,-0.75263 -5.56856,1.17752 -6.48071,5.07986 -0.20011,0.85558 -0.15516,1.56906 0.39589,1.91419 1.04845,0.65401 3.92699,-0.0261 5.31768,0.71347 1.73147,0.91939 2.17232,4.82898 1.74308,6.65617 -0.4278,1.82862 -1.5212,3.78778 -1.81849,5.19731 -0.0594,0.28568 -0.087,0.54816 0.0362,0.69462 0.016,0.0189 0.0319,0.0362 0.0478,0.0522 4.18657,0.95564 5.20456,-15.33239 5.26837,-14.45505 z"
         style="fill:#00ff00;stroke:none"
         id="path7083" />
      <path
         inkscape:connector-curvature="0"
         style="fill:#ff00ff;stroke:none"
         d="m 291.29128,260.80877 c 0,0 4.77875,-1.56125 6.67375,-1.13 0.99875,0.2275 2.0325,2.02625 2.68125,3.40375 1.1775,2.50125 2.3125,5.7225 2.74375,8.28 0.14375,0.85125 0.29875,1.63625 1.175,1.93625 0.55125,0.1875 1.39125,0.2 1.39125,0.2 0,0 0.002,-0.0138 0.007,-0.0387 0.4175,-2.3575 1.35,-6.31 1.5875,-8.69375 0.25,-2.50375 0.19375,-3.3725 2.32496,-3.21375 3.2225,0.23875 4.3163,0.8075 5.7325,-1.76375 1.27,-2.30625 2.6613,-7.0125 0.445,-8.53875 -6.8575,-1.8475 -9.41746,7.175 -9.84746,9.24 -0.60625,2.91625 -0.86,6.0425 -0.86,6.0425 0,0 -1.68,-5.39875 -2.91625,-8.31625 -1.39,-3.28 -4.9775,-7.69875 -8.8475,-6.59375 -1.9225,0.5475 -2.5975,2.12 -2.59625,4.20125 0.001,1.91625 0.305,4.985 0.305,4.985 z"
         id="path7085" />
      <g
         transform="translate(10,9.3956401)"
         style="fill:#008080"
         id="g7093">
        <path
           style="fill:#008080;display:inline"
           d="m 333.00991,202.70445 c -0.48036,0.12475 -1.57696,0.8979 -3.53125,2.09375 l -4.77547,2.92085 -46.40276,26.73365 c -6.48153,4.03825 -11.31493,7.25158 -11.31493,7.92221 0,2.63508 3.66853,1.44903 14.5135,-5.03016 l 43.26091,-24.5153 c 4.19543,-3.08621 7.04623,-5.65461 7.5625,-7 0.80526,-2.0985 1.20217,-3.05583 0.84375,-3.125 -0.0448,-0.009 -0.0876,-0.0178 -0.15625,0 z"
           id="path7087"
           inkscape:connector-curvature="0"
           sodipodi:nodetypes="ccccsccscc" />
        <path
           inkscape:connector-curvature="0"
           d="m 298.23316,208.7073 c -0.23637,-3.24832 -1.75177,-5.26982 -4.50994,-5.85278 -3.55721,-0.75263 -5.56856,1.17752 -6.48071,5.07986 -0.20011,0.85558 -0.15516,1.56906 0.39589,1.91419 1.04845,0.65401 3.92699,-0.0261 5.31768,0.71347 1.73147,0.91939 2.17232,4.82898 1.74308,6.65617 -0.4278,1.82862 -1.5212,3.78778 -1.81849,5.19731 -0.0594,0.28568 -0.087,0.54816 0.0362,0.69462 0.016,0.0189 0.0319,0.0362 0.0478,0.0522 4.18657,0.95564 5.20456,-15.33239 5.26837,-14.45505 z"
           style="fill:#008080;stroke:none"
           id="path7089" />
      </g>
      <path
         inkscape:connector-curvature="0"
         d="m 275.3559,229.33207 c 0.23637,3.24832 1.75177,5.26982 4.50994,5.85278 3.55721,0.75263 5.56856,-1.17752 6.48071,-5.07986 0.20011,-0.85558 0.15516,-1.56906 -0.39589,-1.91419 -1.04845,-0.65401 -3.92699,0.0261 -5.31768,-0.71347 -1.73147,-0.91939 -2.17232,-4.82898 -1.74308,-6.65617 0.4278,-1.82862 1.5212,-3.78778 1.81849,-5.19731 0.0594,-0.28568 0.087,-0.54816 -0.0362,-0.69462 -0.016,-0.0189 -0.0319,-0.0362 -0.0478,-0.0522 -4.18657,-0.95564 -5.20456,15.33239 -5.26837,14.45505 z"
         style="fill:#ff00ff;stroke:none"
         id="path7091" />
      <g
         transform="translate(-155.35506,9.3956401)"
         id="g7097"
         style="fill:#008080">
        <path
           sodipodi:nodetypes="ccccsccscc"
           inkscape:connector-curvature="0"
           id="path7099"
           d="m 333.00991,202.70445 c -0.48036,0.12475 -1.57696,0.8979 -3.53125,2.09375 l -4.77547,2.92085 -46.40276,26.73365 c -6.48153,4.03825 -11.31493,7.25158 -11.31493,7.92221 0,2.63508 3.66853,1.44903 14.5135,-5.03016 l 43.26091,-24.5153 c 4.19543,-3.08621 7.04623,-5.65461 7.5625,-7 0.80526,-2.0985 1.20217,-3.05583 0.84375,-3.125 -0.0448,-0.009 -0.0876,-0.0178 -0.15625,0 z"
           style="fill:#008080;display:inline" />
        <path
           id="path7101"
           style="fill:#008080;stroke:none"
           d="m 298.23316,208.7073 c -0.23637,-3.24832 -1.75177,-5.26982 -4.50994,-5.85278 -3.55721,-0.75263 -5.56856,1.17752 -6.48071,5.07986 -0.20011,0.85558 -0.15516,1.56906 0.39589,1.91419 1.04845,0.65401 3.92699,-0.0261 5.31768,0.71347 1.73147,0.91939 2.17232,4.82898 1.74308,6.65617 -0.4278,1.82862 -1.5212,3.78778 -1.81849,5.19731 -0.0594,0.28568 -0.087,0.54816 0.0362,0.69462 0.016,0.0189 0.0319,0.0362 0.0478,0.0522 4.18657,0.95564 5.20456,-15.33239 5.26837,-14.45505 z"
           inkscape:connector-curvature="0" />
      </g>
      <path
         id="path7103"
         style="fill:#008080;stroke:none"
         d="m 204.42871,226.58531 c 0.23637,3.24832 1.75177,5.26982 4.50994,5.85278 3.55721,0.75263 5.56856,-1.17752 6.48071,-5.07986 0.20011,-0.85558 0.15516,-1.56906 -0.39589,-1.91419 -1.04845,-0.65401 -3.92699,0.0261 -5.31768,-0.71347 -1.73147,-0.91939 -2.17232,-4.82898 -1.74308,-6.65617 0.4278,-1.82862 1.5212,-3.78778 1.81849,-5.19731 0.0594,-0.28568 0.087,-0.54816 -0.0362,-0.69462 -0.016,-0.0189 -0.0319,-0.0362 -0.0478,-0.0522 -4.18657,-0.95564 -5.20456,15.33239 -5.26837,14.45505 z"
         inkscape:connector-curvature="0" />
      <path
         inkscape:connector-curvature="0"
         d="m 206.93941,282.0567 c 0.23637,3.24832 1.75177,5.26982 4.50994,5.85278 3.55721,0.75263 5.56856,-1.17752 6.48071,-5.07986 0.20011,-0.85558 0.15516,-1.56906 -0.39589,-1.91419 -1.04845,-0.65401 -3.92699,0.0261 -5.31768,-0.71347 -1.73147,-0.91939 -2.17232,-4.82898 -1.74308,-6.65617 0.4278,-1.82862 1.5212,-3.78778 1.81849,-5.19731 0.0594,-0.28568 0.087,-0.54816 -0.0362,-0.69462 -0.016,-0.0189 -0.0319,-0.0362 -0.0478,-0.0522 -4.18657,-0.95564 -5.20456,15.33239 -5.26837,14.45505 z"
         style="fill:#ff00ff;stroke:none"
         id="path7105" />
      <path
         id="path7107"
         style="fill:#ff00ff;stroke:none"
         d="m 213.84383,337.01529 c 0.23637,3.24832 1.75177,5.26982 4.50994,5.85278 3.55721,0.75263 5.56856,-1.17752 6.48071,-5.07986 0.20011,-0.85558 0.15516,-1.56906 -0.39589,-1.91419 -1.04845,-0.65401 -3.92699,0.0261 -5.31768,-0.71347 -1.73147,-0.91939 -2.17232,-4.82898 -1.74308,-6.65617 0.4278,-1.82862 1.5212,-3.78778 1.81849,-5.19731 0.0594,-0.28568 0.087,-0.54816 -0.0362,-0.69462 -0.016,-0.0189 -0.0319,-0.0362 -0.0478,-0.0522 -4.18657,-0.95564 -5.20456,15.33239 -5.26837,14.45505 z"
         inkscape:connector-curvature="0" />
      <path
         inkscape:connector-curvature="0"
         d="m 241.57847,282.0567 c 0.23637,3.24832 1.75177,5.26982 4.50994,5.85278 3.55721,0.75263 5.56856,-1.17752 6.48071,-5.07986 0.20011,-0.85558 0.15516,-1.56906 -0.39589,-1.91419 -1.04845,-0.65401 -3.92699,0.0261 -5.31768,-0.71347 -1.73147,-0.91939 -2.17232,-4.82898 -1.74308,-6.65617 0.4278,-1.82862 1.5212,-3.78778 1.81849,-5.19731 0.0594,-0.28568 0.087,-0.54816 -0.0362,-0.69462 -0.016,-0.0189 -0.0319,-0.0362 -0.0478,-0.0522 -4.18657,-0.95564 -5.20456,15.33239 -5.26837,14.45505 z"
         style="fill:#ff00ff;stroke:none"
         id="path7109" />
      <path
         inkscape:connector-curvature="0"
         d="m 84.15365,285.33356 c 0.23637,3.24832 1.75177,5.26982 4.50994,5.85278 3.55721,0.75263 5.56856,-1.17752 6.48071,-5.07986 0.20011,-0.85558 0.15516,-1.56906 -0.39589,-1.91419 -1.04845,-0.65401 -3.92699,0.0261 -5.31768,-0.71347 -1.73147,-0.91939 -2.17232,-4.82898 -1.74308,-6.65617 0.4278,-1.82862 1.5212,-3.78778 1.81849,-5.19731 0.0594,-0.28568 0.087,-0.54816 -0.0362,-0.69462 -0.016,-0.0189 -0.0319,-0.0362 -0.0478,-0.0522 -4.18657,-0.95564 -5.20456,15.33239 -5.26837,14.45505 z"
         style="fill:#ff00ff;stroke:none"
         id="path7111" />
      <path
         sodipodi:nodetypes="cccccccccccccc"
         inkscape:connector-curvature="0"
         d="m 239.84045,207.96116 c 0.041,-0.0404 0.0859,-0.077 0.12279,-0.12115 0.0492,-0.0589 0.0869,-0.12678 0.13445,-0.18705 1.59773,-1.76759 3.87575,-3.37185 5.81414,-4.25702 2.15388,-0.96084 4.39612,-1.23335 6.56239,-0.14805 2.40009,1.63774 4.83993,1.22954 7.38565,0.40159 2.20185,-0.72445 4.37017,-1.7171 6.58478,-2.33946 l 0,0 c -0.19164,0.0131 -0.29791,0.0464 -0.42088,0.20815 -0.10842,0.16091 -0.19999,0.33298 -0.31221,0.49125 -3.28533,3.01784 -8.17573,5.62823 -11.85039,6.78815 -2.38199,0.88312 -4.50579,0.17826 -6.58953,-1.13258 -1.28606,-0.80476 -2.76704,-1.46163 -7.43116,0.29628 z"
         id="path7113"
         style="color:#000000;fill:#008000;fill-opacity:1;fill-rule:nonzero;stroke:none;stroke-width:1.01065493;marker:none;visibility:visible;display:inline;overflow:visible;enable-background:accumulate" />
    </g>
    <rect
       style="color:#000000;fill:#00ff00;fill-opacity:1;fill-rule:nonzero;stroke:none;stroke-width:1.01065493;marker:none;visibility:visible;display:inline;overflow:visible;enable-background:accumulate"
       id="rect7190"
       width="450"
       height="112.5"
       x="0"
       y="939.86218" />
  </g>
</svg>
