<?xml version="1.0" encoding="UTF-8" standalone="yes"?>
<svg>
  <path style="stroke:none; fill:#000000"
    d="m 4.6955155,33.327012 -3.8175,13.94498 c -1.69625,6.5675 -0.86625,10.28374 1.89875,15.61999 2.46625,4.759993 4.15125,5.852493 9.3862395,5.747493 3.91125,-0.0775 6.92249,-1.6675 10.507495,-4.21874 0.46375,-0.330003 0.95125,-0.683753 1.4525,-1.055003 7.10374,-5.25125 13.15749,-9.57374 15.98373,-15.68624 0.38875,-0.84 0.67875,-1.73125 0.8325,-2.655 0.29875,-1.81249 0.0725,-3.74499 0.73375,-5.06874 0.29625,-0.5925 0.77125,-1.0625 1.2125,-1.64625 3.33625,-4.40625 1.72625,-9.53374 -1.7475,-12.69249 -2.14499,-1.95 -5.39124,-3.54624 -8.48124,-4.85249 -3.93249,-1.66375 -7.17999,-2.77375 -10.80124,-5.63625 -1.450005,-1.14625 -1.613755,-1.365 -1.636255,-2.1875 0.820851,-0.151509 3.531013,-0.835746 6.044815,-2.158462 0,0 -6.324017,-3.0208749 -8.129822,-4.8216071 -0.121765,-0.1214231 -4.873733,-6.50371098 -7.189983,-5.93621098 -0.81125,0.19875 -1.4537495,1.43124998 -2.4449995,3.21123998 -1.32999,2.3875 -3.28749,5.7575 -3.28749,5.7575 0,0 2.72,2.7862501 4.10124,4.8574901 0.7962495,1.1925 1.1474995,2.1475 1.6687495,3.1325 4.7275,8.92749 12.494995,9.52999 21.372485,15.05874 2.89625,1.80374 7.71624,6.63249 6.62625,10.40374 -0.37875,1.31125 -3.4775,4.28999 -5.98375,5.75124 -1.93125,1.1275 -3.78,2.075 -5.42624,3.29375 -5.7325,4.24499 -10.497495,10.03499 -17.281245,5.68124 -3.7324895,-2.395 -5.0674895,-7.05499 -5.2062395,-11.48124 l -0.3875,-12.36373 z"/>
</svg>