<?xml version="1.0" encoding="UTF-8" standalone="yes"?>
<svg xmlns="http://www.w3.org/2000/svg" xmlns:xlink="http://www.w3.org/1999/xlink"
  width="595.276pt" height="841.89pt" viewBox="0 0 595.276 841.89">
  <path style="stroke:none; fill:#000000"
    d="m 16.339342,5.9424996 5.94125,5.9412504 5.9425,-5.9412504 L 22.280592,0 16.339342,5.9424996 z M 43.03125,8 c -0.245494,0.045355 -0.556764,0.2069507 -0.9375,0.46875 -2.65334,1.823012 -5.072107,11.274147 -4.5,14.3125 0.973532,3.155038 2.372467,7.041237 2.90625,9.78125 0.533783,2.740013 0.3461,3.904588 -0.997916,5.286096 -1.302859,0.848957 -3.014647,1.89826 -4.595834,2.620154 -1.93125,0.88125 -7.645,2.015 -9.3125,2.0625 C 20.5375,42.67125 13.24625,39.98125 10.28125,37 8.0287495,34.73375 5.15875,29.50125 4.8125,26.40625 4.36625,22.4025 5.25,14.46875 5.25,14.46875 c 0,0 -2.36125,4.01 -3.59375,6.78125 -3.07625,6.9225 -1.70999499,17.98125 3.03125,23.71875 8.02875,9.7175 24.555,9.4625 33.28125,1.40625 C 41.6575,42.97 42.92,38.48875 44.84375,33.0625 45.583745,30.194626 46.573561,25.174696 46,21.71875 45.522213,19.121074 43.947023,16.414653 43.8125,13.5 43.708222,11.25622 44.430662,8.1015951 43.25,8 43.18189,7.99414 43.113081,7.984882 43.03125,8 z"/>
</svg>