<?xml version="1.0"?>
<svg xmlns="http://www.w3.org/2000/svg" version="1.1">
  <path
     style="fill:#000000;stroke:none"
     d="m 135.78908,40.502193 c 0.75759,-0.8501 3.14412,-7.880927 3.54166,-10.431227 0.59257,-3.811698 -0.53381,-8.335981 -4.42052,-10.907534 -0.22127,-0.146267 -0.44255,-0.266281 -0.66007,-0.361292 l -1.55519,-0.67383 -1.48142,0.916358 c -1.32016,0.816346 -2.36028,2.494044 -2.87534,4.354263 -0.13001,0.470055 -0.15627,1.228895 -0.10501,1.968982 l 0.14752,2.181506 1.85521,0.960113 c 1.2314,0.637575 2.62031,1.18389 3.07287,2.705319 l 0.30503,1.028871 -1.45267,0.618823 c -0.68133,0.290034 -1.54893,0.468805 -2.31777,0.587569 -1.33766,0.207524 -2.71532,0.17002 -3.84545,-0.277533 -2.46405,-0.973865 -3.00536,-2.20651 -4.41928,1.026371 -1.38516,3.167873 -1.87022,7.272105 0.45506,8.75228 1.7052,1.086377 3.05536,1.153885 5.08935,0.817596 2.16525,-0.356292 8.05095,-2.575303 8.66602,-3.266635 z M 114.85286,2.2114379 c -0.25378,0.331289 -0.51131,0.7063331 -0.73258,1.0763767 -0.8151,1.3614101 -1.72896,4.5230322 -1.75521,6.0719644 -0.0888,5.224364 0.45505,18.767208 1.03762,22.783931 l 0.64258,4.428021 1.82646,-4.237999 c 0.36005,-0.836348 0.71384,-1.851468 0.96637,-2.774076 2.1265,-7.779665 2.31152,-15.841864 -0.10252,-25.9568044 L 116.0355,0.67125667 114.85286,2.2114379 z m -20.067358,32.7963591 2.136501,-2.681566 0.906357,1.752707 0.733836,1.417666 -3.209127,1.18889 -2.702818,1.001368 2.135251,-2.679065 z M 101.15875,0.67500667 c -0.4363,-0.08626 -1.472672,1.11638183 -2.078993,2.22776253 -1.386413,2.5440494 -2.519046,5.0493442 -1.988984,7.1633428 0.417549,1.666446 1.916476,3.190375 2.505295,5.10435 0.351291,1.142635 0.198773,4.493029 -0.276283,6.074466 l -0.638825,2.1265 -1.640193,-1.961481 C 96.801989,21.123663 96.574462,20.794874 96.365688,20.471086 95.406825,18.985911 94.824256,17.584496 93.875395,16.285594 90.742526,11.997589 83.314152,7.7208362 77.822256,6.8982394 75.803268,6.5957038 75.258204,7.4833082 74.726892,9.5623028 c -1.142635,4.4705262 0.406297,12.4264622 5.633162,11.1888162 1.318906,-0.312537 2.752824,-1.251397 3.90421,-1.2764 2.058992,-0.04751 7.437125,5.231866 8.572258,6.495765 0.911358,1.015119 1.536431,2.311522 1.468923,3.047858 -0.06751,0.735087 -3.711686,5.119353 -5.006839,6.025709 -3.214128,2.246515 -4.309257,2.507795 -4.974335,5.164358 -0.897606,3.589172 -0.206274,3.959216 2.614057,3.65543 0.987617,-0.106262 2.147753,-0.207524 2.986602,-0.572567 l 2.201509,-0.957613 1.206392,0.131265 c 1.596438,0.173771 3.667931,0.558816 4.570538,0.33504 2.04649,-0.50881 4.279251,-4.061728 4.493031,-5.636913 0.17127,-1.256398 -0.8376,-5.610661 -1.24265,-8.423492 l -0.33004,-2.282768 1.39017,-3.015355 c 1.03262,-2.237763 2.25901,-6.249486 2.51529,-8.164711 0.12877,-0.963863 0.27628,-1.921476 0.56007,-2.815331 0.43505,-1.372662 1.22389,-2.761575 1.50893,-4.0292241 l 0.4563,-2.0377398 -1.86022,-1.1601365 C 104.82043,4.8767515 104.1591,4.4954567 103.60404,3.8003749 102.73769,2.7152472 101.73882,0.79002067 101.15875,0.67500667 z m 53.9151,23.39025233 5.84693,-0.101262 2.98036,1.283902 c 0,0 -5.99196,3.785445 -8.53601,4.719305 -1.05012,0.383795 -1.40891,0.121264 -2.61781,-0.725085 -1.81896,-1.2739 -3.77294,-2.749074 -4.29425,-3.73169 -0.34879,-0.656327 -0.4138,-3.40165 -0.45256,-6.231983 0.18128,-12.0226646 -3.26038,-19.76732633 -2.46404,-18.90722433 -1.11388,-1.202642 -2.08399,0.75508853 -2.66656,2.47404083 -0.69758,2.0539917 -1.31265,3.9792182 -1.40516,6.0669639 -0.095,2.1427516 2.26151,8.3909866 2.70156,13.3140666 0.67383,7.540887 -1.01262,10.022429 3.27664,14.660475 2.80533,3.034107 8.03094,7.925933 10.49498,6.929565 0.47631,-0.193772 5.73193,-6.385751 5.57816,-7.660901 -0.065,-0.532563 -0.79134,-1.127633 -1.74521,-1.428918 -1.11263,-0.351291 -2.83033,-1.177639 -2.91534,-1.663946 -0.0475,-0.273782 -0.01,-0.603821 -0.01,-0.603821 l 18.93973,0.221276 c 1.63144,0.01875 1.92398,-0.05001 2.92909,-0.686331 0.74509,-0.472555 1.29266,-0.94011 1.95773,-1.763957 1.44517,-1.78646 3.44791,-5.251868 3.44791,-5.251868 0,0 -5.90569,-1.790211 -9.3386,-3.405401 -1.81146,-0.852601 -2.93409,-1.655195 -3.97422,-2.649062 -0.65382,-0.626324 -1.27515,-1.327656 -1.96148,-1.973982 -1.78896,-1.686449 -6.12072,-3.007854 -8.59976,-2.481542 -2.5328,0.538813 -3.94296,1.95273 -5.82193,4.686801 -0.69009,1.003868 -1.32516,2.295271 -1.37517,3.461658 -0.0288,0.656327 0.025,1.44892 0.025,1.44892 z m 16.84323,9.243588 -5.31938,5.319376 5.32063,5.319376 5.31812,-5.319376 -5.31937,-5.319376 z m -132.356826,13.130295 -3.645429,-3.645429 -5.319376,5.319376 5.320626,5.319376 3.644179,-3.644179 3.645429,3.644179 5.319376,-5.318126 -5.320627,-5.320626 -3.644178,3.645429 z M 31.54431,23.123899 c -0.01125,-0.0175 -0.02125,-0.035 -0.0325,-0.05251 l -1.943982,-3.182871 -1.808963,1.420167 c -1.057624,0.831348 -1.876471,2.424035 -2.342776,3.897959 -0.327538,1.030121 -0.17502,3.409151 0.302536,4.728056 0.466305,1.291402 1.200141,2.591555 1.826465,3.690434 l 1.493926,2.619058 -0.923859,1.518929 C 26.087418,41.097263 19.5604,46.945452 16.153749,48.169346 9.1154208,50.697143 -1.132035,52.148564 0.10186022,52.45985 3.5847701,53.338704 12.188282,54.83763 15.851214,55.106412 c 5.44314,0.400047 5.739425,-0.916358 10.486234,-6.995823 3.82795,-4.901827 5.383133,-6.684537 6.343246,-12.225189 l 0,0.07501 c 0.06001,-0.08751 0.117514,-0.158769 0.175021,-0.212525 0.802594,-0.751338 1.992734,-1.001368 3.105365,-1.831465 1.051374,-0.785093 2.900341,-2.976601 3.434154,-4.324259 0.498809,-1.260149 0.992617,-3.529166 0.992617,-3.529166 0,0 0.753839,8.318479 1.550182,10.735014 0.370044,1.122632 1.391414,3.309139 2.530298,4.801815 1.406416,1.842716 6.050712,2.536548 9.486116,1.288901 3.094114,-1.122632 8.649768,-3.460407 12.457716,-4.59054 l 2.347776,-0.697582 1.445171,0.222526 c 0.788842,0.120014 1.580185,0.321288 2.274017,0.25503 0.885104,-0.08626 3.22913,-1.87272 5.106851,-3.74294 1.300153,-1.295153 2.690317,-3.944214 2.641561,-5.09685 -0.0225,-0.538813 -0.06376,-0.961363 -0.06376,-0.961363 0,0 -2.862837,0.322538 -5.243117,0.09126 C 73.62926,28.242001 63.011761,21.616221 60.797751,21.0099 c -0.955113,-0.261281 -5.69192,0.496308 -6.727042,1.076377 -1.605189,0.898855 -6.589525,5.761928 -4.706804,7.332112 0.452553,0.377545 2.306522,-0.138766 4.035475,-0.07126 1.122632,0.045 3.14787,0.778842 4.750559,1.547682 l 2.399032,1.150135 -2.342775,0.828848 c -0.222527,0.08001 -0.496309,0.17502 -0.835099,0.291284 -5.520647,1.911477 -6.997071,2.922846 -9.786149,-0.915106 -0.701333,-0.966363 -1.335157,-2.008986 -1.628942,-3.266634 -0.833848,-3.575421 0.756339,-8.15846 -1.323906,-10.96254 -2.091496,-2.819082 -5.281871,3.527915 -6.420755,5.910696 -0.363793,0.761339 -0.607572,1.163887 -0.973865,1.330156 -5.253118,1.500177 -6.29574,-3.127868 -5.69317,-2.137751 z M 59.296326,6.0468892 53.97695,11.365015 l 5.320626,5.320626 5.318126,-5.319376 -5.319376,-5.3193758 z" />
</svg>
