<?xml version="1.0"?>
<svg xmlns="http://www.w3.org/2000/svg" version="1.1">
  <path
     d="m 0,13.878533 3.64605,1.54117 c 1.87615,0.22249 4.19103,0.42873 5.92344,0.35998 3.26233,-0.12874 8.57705,-1.34993 10.4432,-3.71105 1.66741,-2.1111399 1.86365,-3.0085899 3.8398,-2.2111399 0.9762,0.3949799 2.10864,1.0661999 3.34857,1.5136699 2.8136,1.01745 2.85985,1.00495 4.72975,-1.7961499 0.81496,-1.21994 1.65867,-2.16239 1.90115,-3.65481 0.12,-0.73371 0.13375,-0.9737 0.11375,-2.18613 -0.0675,-4.09104004 -0.52248,-4.65226004 -4.98599,-2.50237 -0.63372,0.30623 -1.18869,0.60247 -1.41118,0.76496 -0.9287,0.67746 -1.52992,1.74616 -2.40612,2.49112 -0.83746,0.71246 -1.92615,1.12994 -2.66236,1.76115 -1.04744,0.89496 -1.38618,2.22114 -2.14864,3.22108 C 19.9002,10.034983 9.35825,12.046133 2.93234,13.282313 L 0,13.878533 z m 29.45469,-9.2207599 1.56742,-0.0275 0.06,3.42732 c 0,0 -0.41123,0.0238 -0.78371,0.0138 -1.27118,-0.0338 -4.10853,-1.45743 -4.15103,-2.13114 -0.0125,-0.20999 0.8162,-0.83871 1.8149,-1.08994 0.63872,-0.16124 0.78871,-0.17999 1.49242,-0.19249 z"
     style="fill:#000000;stroke:none" />
</svg>
