<?xml version="1.0"?>
<svg xmlns="http://www.w3.org/2000/svg" version="1.1">
  <path
     style="fill:#000000;stroke:none"
     d="m 53.049143,27.466 1.71,-2.145 0.724,1.403 0.587,1.134 -2.567,0.951 -2.161,0.8 1.707,-2.143 z m 5.098,-27.462 c -0.348,-0.069 -1.178,0.892 -1.663,1.781 -1.109,2.035 -2.015,4.04 -1.591,5.731 0.334,1.333 1.534,2.552 2.004,4.083 0.281,0.914 0.159,3.594 -0.221,4.859 l -0.511,1.701 -1.311,-1.57 c -0.192,-0.229 -0.373,-0.491 -0.541,-0.75 -0.767,-1.188 -1.232,-2.31 -1.991,-3.349 -2.506,-3.429 -8.449,-6.85 -12.842,-7.508 -1.615,-0.242 -2.051,0.468 -2.476,2.131 -0.914,3.576 0.325,9.94 4.506,8.949 1.055,-0.25 2.202,-1 3.123,-1.021 1.647,-0.037 5.949,4.186 6.857,5.197 0.73,0.812 1.229,1.849 1.175,2.437 -0.054,0.588 -2.968,4.095 -4.005,4.82 -2.571,1.798 -3.447,2.006 -3.979,4.132 -0.718,2.87 -0.164,3.167 2.091,2.923 0.79,-0.085 1.719,-0.166 2.389,-0.457 l 1.761,-0.766 0.965,0.105 c 1.277,0.139 2.934,0.447 3.656,0.267 1.637,-0.407 3.423,-3.249 3.595,-4.509 0.136,-1.004 -0.67,-4.488 -0.995,-6.738 l -0.264,-1.825 1.113,-2.412 c 0.826,-1.791 1.806,-5 2.011,-6.531 0.103,-0.772 0.221,-1.538 0.448,-2.253 0.348,-1.098 0.979,-2.208 1.207,-3.223 l 0.365,-1.63 -1.488,-0.927 c -0.458,-0.286 -0.988,-0.592 -1.432,-1.147 -0.693,-0.868 -1.492,-2.408 -1.956,-2.5 z m 63.852997,16.505 c -0.846,0.664 -1.501,1.939 -1.875,3.117 -0.261,0.824 -0.139,2.728 0.242,3.783 0.374,1.033 0.961,2.072 1.462,2.951 l 1.194,2.095 -0.739,1.216 c -1.621,2.666 -6.842,7.345 -9.567,8.323 -5.63,2.022 -13.827997,3.183 -12.839997,3.432 2.784997,0.704 9.667997,1.903 12.597997,2.118 4.354,0.32 4.591,-0.734 8.388,-5.596 3.687,-4.723 4.738,-5.825 5.497,-12.918 0.359,-3.354 0.171,-4.609 -1.358,-7.112 l -1.555,-2.545 -1.447,1.136 z m -20.523,17.186 -4.254997,4.254 4.254997,4.256 4.255,-4.255 -4.255,-4.255 z M 92.579143,21.259 c -1.058,-0.194 -2.127,-0.499 -3.396,-0.937 -1.472,-0.507 -2.046,-0.754 -2.199,-1.574 -0.23,-1.239 1.111,-7.632 0.824,-8.302 -0.283,-0.662 -4.355,-2.642 -6.357,-2.843 -3.369,-0.339 -7.15,2.587 -7.733,6.353 -0.136,0.877 -0.109,2.887 0.483,3.388 0.75,0.634 2.739,1.131 2.739,1.131 0,0 -2.508,3.215 -3.947,5.47 -0.595,0.932 -1.092,1.891 -1.516,2.856 -1.683,3.829 -2.576,10.336 -1.859,13.378 1.798,7.633 10.739,13.84 16.195,13.198 1.657,-0.195 3.663,-0.462 5.679,-0.769 6.562,-0.999 9.480997,-2.757 10.804997,-3.938 l 1.86,-1.66 -4.075,-0.263 c -2.133997,-0.138 -5.058997,-0.242 -7.789997,-0.257 -7.006,-0.036 -11.744,-0.947 -15.674,-5.156 -4.237,-4.537 -4.116,-6.054 -2.175,-11.11 0.49,-1.276 2.001,-3.21 3.061,-3.954 0.174,-0.122 0.361,-0.252 0.563,-0.393 1.413,-0.984 2.962,-1.942 3.351,-1.794 0.496,0.189 0.934,1.995 1.966,3.002 0.504,0.491 1.206,0.855 1.97,1.23 3.618,1.777 10.759,0.353 13.576,-0.316 0.368,-0.087 0.734,-0.17 1.083997,-0.244 l 2.111,-0.444 1.73,0.633 c 0.56,0.204 1.19,0.457 1.836,0.721 2.804,1.151 6.457,0.632 7.509,-1.006 0.731,-1.139 1.439,-2.476 1.993,-3.714 0.43,-0.965 0.96,-3.153 1.17,-4.552 0.711,-4.757 -2.953,3.525 -6.84,2.18 l -3.755,-1.299 c 0,0 0.487,-1.457 0.776,-2.649 0.996,-4.11 -0.552,-0.279 -4.642,2.214 -1.2,0.731 -5.844997,1.089 -7.065997,1.208 -0.815,0.079 -1.564,0.15 -2.257,0.212 z m -6.822,15.351 -2.916,-2.915 -4.254,4.254 4.255,4.256 2.916,-2.916 2.915,2.916 4.255,-4.255 -4.255,-4.255 -2.916,2.915 z m -18.664,-35.377 c -0.204,0.265 -0.409,0.564 -0.587,0.861 -0.652,1.089 -1.382,3.617 -1.403,4.857 -0.071,4.178 0.363,15.012 0.83,18.225 l 0.513,3.542 1.461,-3.391 c 0.289,-0.669 0.572,-1.48 0.774,-2.219 1.701,-6.222 1.849,-12.671 -0.082,-20.763 l -0.56,-2.345 -0.946,1.233 z m -30.308,23.696 c 0.263,0.276 0.242,1.145 0,1.526 -0.772,1.217 -5.466,-1.731 -6.194,-2.86 -0.439,-0.679 -0.315,-1.297 0.672,-1.711 1.141,-0.479 3.802,1.239 5.522,3.045 z m -14.092,14.605 -5.611,-0.384 c -2.74,-0.188 -0.167,1.383 5.577,3.259 0.581,0.19 1.079,0.416 1.664,0.609 1.315,0.434 5.593,0.743 6.68,0.483 3.173,-0.758 9.112,-8.124 10.49,-12.087 1.487,-4.279 0.51,-7.298 -1.193,-11.496 -0.433,-1.066 -1.174,-2.384 -1.949,-3.008 -1.195,-0.961 -3.273,-1.932 -3.273,-1.932 0,0 -3.293,3.772 -5.088,6.354 -2.857,4.111 -3.84,8.714 0.462,10.566 0.712,0.306 2.279,0.306 2.91,0 0.792,-0.385 2.932,-2.325 3.539,-1.934 0.29,0.187 0.21,0.927 0,1.615 -0.094,0.307 -0.449,0.849 -0.889,1.416 -1.973,2.544 -6.405,5.635 -8.914,6.156 -0.512,0.106 -1.039,0.188 -1.52,0.262 -1.295,0.199 -1.583,0.211 -2.885,0.121 z M 20.837143,0 c 0,0 -1.522,1.09 -2.383,1.976 -0.869,0.896 -1.247,2.3 -1.247,3.733 0,1.085 0.506,2.508 1.128,3.215 l 1.236,1.408 0.357,2.331 c 0.441,2.883 1.111,7.435 1.557,10.539 l 0.59,4.111 -2.144,0.761 c -2.941,1.044 -8.82,1.323 -11.6720005,0.801 -5.598,-1.024 -5.588,-8.696 -5.766,-8.479 -0.266,0.325 -0.532,0.741 -0.758,1.13 -2.33099997,4.02 -2.26399997,10.466 -0.096,12.907 2.362,2.658 7.334,4.075 11.3090005,2.99 3.498,-0.954 8.264,-3.18 9.895,-5.543 1.399,-2.027 2.936,-8.964 2.972,-9.723 0.079,-1.645 -0.679,-5.843 -1.421,-8.386 -0.067,-0.23 -0.127,-0.498 -0.179,-0.791 l -0.599,-3.39 1.293,-2.721 c 0.218,-0.46 0.447,-0.901 0.655,-1.286 l 0.588,-1.088 -1.256,-0.525 c -0.918,-0.384 -2.206,-0.957 -3.09,-2.257 -0.55,-0.807 -0.969,-1.713 -0.969,-1.713 z" />
</svg>
