<?xml version="1.0" encoding="UTF-8" standalone="yes"?>
<svg xmlns:svg="http://www.w3.org/2000/svg" xmlns="http://www.w3.org/2000/svg" xmlns:xlink="http://www.w3.org/1999/xlink">
<g transform="scale(1.1,1.1)">
  <path
     id="frame"
     d="M 390.9525,457.025 C 416.2825,431.3575 432.4175,398.6525 442.27125,362.015 C 447.0225,344.77875 449.27125,329.52875 449.7275,311.43125 L 450,120.77875 C 449.74,112.84125 448.885,106.15875 447.145,98.478747 C 445.44875,89.271247 441.07625,82.141247 434.15125,77.291247 C 425.79375,72.927497 418.04375,70.949997 408.88625,70.846247 C 397.97,70.583747 388.72375,71.477497 377.9925,73.829997 C 377.85125,55.268747 363.3625,44.171247 349.22,43.248747 C 324.99125,41.201247 304.65,37.36125 281.105,30.3925 C 272.78375,27.92875 265.85125,25.405 257.805,21.91 C 248.13125,18.1625 240.1025,13.3325 232.335,6.50375 L 224.935,0 L 218.445,5.80625 C 211.83625,11.71875 205.08875,16.06125 196.9425,19.7125 C 189.0175,23.48625 182.15625,26.2 173.8975,28.8275 C 149.16625,36.615 127.72875,40.879997 102.18125,43.094997 C 93.0125,43.219997 85.225,47.052497 78.75375,54.626247 C 74.29,59.994997 72.055,66.356247 72.0075,73.832497 C 56.92125,70.523747 32.24425,67.894997 15.97338,77.219997 C 9.53825,81.458747 5.356375,87.784997 3.479125,96.119997 C 1.29575,104.5625 0.24925,111.985 0,120.79875 L 0.27375,311.43125 C 0.6485,327.77625 2.527625,341.5525 6.52025,357.22625 C 11.8115,379.03375 18.51825,396.75 28.77075,416.00375 C 44.98625,446.12125 65.09625,467.11625 92.55375,482.5925 C 120.04,496.505 143.72875,506.96625 172.22375,517.7725 C 180.3675,520.61875 187.2,523.19125 195.235,526.43375 C 202.78625,529.3525 209.32375,532.3075 216.17,535.92625 L 223.87625,540 L 232.19875,536.11625 C 247.46625,528.995 261.4225,523.39 277.7775,517.7725 C 306.26875,506.96625 329.95625,496.5075 357.44,482.59625 C 370.27125,475.6925 380.38875,467.9725 390.9525,457.025 z M 416.76,412.76 C 402.86125,438.82375 380.39125,464.54625 354.945,477.8075 C 329.285,490.89625 302.915,502.54125 275.9575,512.6875 C 260.28125,518.01875 244.91,524.2075 229.91375,531.225 L 224.02625,533.97125 L 218.69375,531.1525 C 211.73625,527.475 204.5625,524.22125 197.21375,521.40875 C 189.57,518.3125 181.85,515.4075 174.0625,512.695 C 147.11125,502.55125 120.7475,490.91 95.09375,477.82625 C 81.29375,470.14625 68.8125,460.30625 58.12375,448.68 C 48.54125,437.9625 40.2825,426.13125 33.52513,413.4425 C 23.774,395.3375 16.46163,376.02125 11.77838,355.99625 L 11.74598,355.86625 C 7.962,341.3325 5.9235,326.39875 5.673625,311.3825 L 5.400125,120.855 C 5.577,112.96625 6.684625,105.1275 8.7,97.499997 L 8.7615,97.241247 C 9.4645,93.928747 10.77763,90.774997 12.63412,87.943747 C 14.2585,85.533747 16.33837,83.463747 18.75675,81.852497 C 22.7045,79.714997 26.96587,78.217497 31.3825,77.413747 C 35.61375,76.626247 39.9075,76.217497 44.21125,76.191247 C 51.75125,76.178747 59.2725,76.868747 66.67875,78.252497 L 76.545,80.094997 L 77.53625,70.876247 C 78.8475,58.686247 89.66125,48.558747 102.20875,48.494997 C 102.345,48.494997 102.4825,48.488997 102.61875,48.477497 C 127.40125,46.462497 151.86875,41.594997 175.535,33.9725 C 183.6375,31.42375 191.54625,28.2975 199.20125,24.6175 C 210.11375,19.59125 215.6975,15.51125 224.9675,7.2175 L 228.76,10.55125 C 236.69625,17.595 245.845,23.1375 255.7625,26.91125 C 263.50375,30.3 271.45375,33.19125 279.56375,35.56875 C 302.10625,42.387497 325.315,46.766247 348.7925,48.632497 C 355.73625,49.163747 362.22,52.239997 366.77,57.578747 C 369.2275,60.504997 370.95875,63.934997 371.865,67.591247 L 374.89875,79.842497 L 383.16125,78.267497 C 391.57875,76.664997 400.15,75.984997 408.72375,76.243747 L 408.875,76.245747 C 416.7025,76.261947 424.405,78.201997 431.3075,81.893247 C 434.22125,83.968247 436.6475,86.655747 438.41625,89.765747 C 440.085,92.763247 441.2375,96.021997 441.825,99.403247 C 441.8425,99.501947 441.8625,99.599497 441.885,99.695747 C 443.49125,106.6395 444.4,113.7245 444.6,120.84825 L 444.3275,311.37825 C 444.02125,328.01075 441.58375,344.537 437.07375,360.55075 C 437.07375,360.55075 437.04625,360.65075 437.04625,360.65075 C 432.325,378.74875 425.5175,396.235 416.76,412.76 z"
     style="fill:#ff0000;stroke:none" />
  <path
     id="alfatihah"
     d="M 281.72192,95.856247 C 281.82317,96.498747 281.89942,97.522497 281.72192,98.463747 C 281.59067,99.154997 279.53067,101.75625 279.07192,101.81125 C 277.77692,101.9625 274.63067,100.39875 272.87317,98.757497 C 271.61442,97.582497 270.31317,96.126247 269.95067,95.644997 C 269.39817,94.913747 269.08192,94.282497 268.96567,93.684997 C 268.46817,91.152497 271.74067,86.304997 274.62942,84.451247 C 275.22442,84.069997 275.87317,84.157497 276.85317,84.936247 C 279.60192,87.122497 280.97317,91.139997 281.72192,95.856247 z M 187.78442,105.28375 C 180.12692,104.44625 173.14817,103.52875 167.33317,102.68625 C 166.55567,102.57375 165.75692,102.45125 164.95317,102.32125 C 156.07817,100.88375 144.35692,97.153747 141.40817,94.837497 C 137.37567,91.671247 134.63192,86.962497 134.00067,82.151247 C 133.44692,77.923747 133.96317,65.273747 133.53442,61.711247 C 133.03817,57.581247 131.89317,54.213747 131.36567,52.808747 L 131.09442,52.087497 L 130.61442,52.588747 C 127.35567,55.986247 126.44817,58.598747 126.17192,60.017497 C 126.06442,60.564997 127.06067,59.928697 129.53942,74.378747 C 129.80192,75.908747 129.98192,77.193747 130.00442,77.863747 C 130.57067,95.043747 129.18442,102.43875 142.00317,107.435 C 144.29442,108.3275 146.81317,109.145 149.52442,109.8925 C 165.03317,114.1675 198.05692,117.1275 217.83442,116.84875 C 231.68192,116.65375 243.59692,115.88375 250.72692,114.895 C 252.40942,114.66125 254.64067,114.235 256.93442,113.735 C 261.02067,112.84125 267.77192,110.64 270.74692,109.21625 L 271.42192,108.89375 L 273.20692,109.2125 C 275.61567,109.64375 280.08942,110.92625 283.21317,111.40625 C 286.83442,111.965 295.66317,110.9075 298.66192,109.3725 C 299.82567,108.77625 302.09067,106.61875 302.63067,105.5925 L 304.42817,102.17 L 304.44567,102.1375 L 304.70317,101.85625 C 306.01817,100.415 307.93692,98.497497 308.18567,96.174997 C 308.25567,95.513747 308.24817,94.833747 308.18567,94.081247 C 307.79192,89.347497 306.61067,79.169997 305.95817,76.489997 C 305.55942,74.849997 305.19817,71.946247 305.21317,70.692497 L 305.23817,68.657497 L 307.46942,65.073747 L 308.89442,62.782497 L 307.69942,61.997497 C 298.97567,56.262497 299.39942,51.222497 299.10567,51.581247 C 298.94692,51.773747 298.79067,51.971247 298.63942,52.172497 C 298.26192,52.676247 297.58442,54.008747 296.82942,55.608747 C 294.78567,59.941247 295.79067,65.459997 298.92442,66.968747 L 300.56942,67.759997 C 300.56942,67.759997 298.74942,71.176247 298.14192,73.029997 C 297.90692,73.747497 297.85442,74.231247 297.85067,74.849997 C 297.84667,75.684997 297.87437,75.948747 298.12567,77.493747 L 301.08567,100.58375 L 301.20692,101.5375 L 290.98192,101.4913 L 282.05067,100.62755 L 287.38692,92.878797 C 288.37192,90.878797 289.83692,87.020047 289.81317,86.265047 C 289.78317,85.311297 286.43442,76.900047 283.31817,74.488797 C 279.95567,71.886297 278.17942,74.543797 274.58942,79.430047 C 271.62192,83.468797 265.95192,92.595047 264.80067,99.186297 C 264.65817,100.0038 264.57317,100.9213 264.60317,101.81755 L 264.67937,104.08755 L 262.82062,104.54755 C 257.50187,105.8663 251.49937,106.7688 245.07812,107.3413 C 234.58687,108.2763 205.75437,107.2488 187.78437,105.2838 z M 168.70817,82.941247 C 168.70817,82.941247 166.80817,83.251247 165.01692,82.941247 C 163.22692,82.632497 161.54442,81.702497 161.54442,81.702497 C 161.54442,81.702497 166.62942,78.302497 168.00817,77.409997 C 168.32692,77.204997 168.41442,77.608747 168.47692,79.557497 C 168.52062,80.908747 168.70817,82.941247 168.70817,82.941247 z M 189.60567,91.008747 C 184.67567,90.401247 179.35692,89.349997 177.78442,88.191247 C 177.00942,87.619997 175.47942,84.958747 174.76442,82.941247 C 174.55317,82.343747 174.32817,81.703747 174.27192,81.052497 C 174.19692,80.173747 174.18442,79.904997 174.15942,78.358747 L 173.86942,61.093747 C 173.86942,61.093747 172.23067,62.638747 170.42317,64.361247 C 168.67692,66.023747 167.63192,67.114997 167.07317,67.994997 L 166.24942,69.293747 L 166.82442,70.921247 C 167.04567,71.548747 167.29442,72.363747 167.56067,73.428747 C 167.64197,73.752497 167.68192,73.999997 167.57067,74.136247 C 166.73567,75.153747 157.92817,79.386247 156.24442,80.911247 C 154.10442,82.848747 149.30942,89.376247 149.30942,89.376247 C 149.30942,89.376247 151.11567,90.513747 152.55942,91.248747 C 155.18567,92.586247 161.57692,93.689997 163.51817,91.821247 C 164.43317,90.939997 165.05942,90.044997 165.57817,89.346247 L 168.43067,86.263747 L 168.81442,88.964997 C 169.02817,90.473747 169.56067,92.164997 170.25567,93.726247 C 174.52442,103.32 189.72817,102.49625 212.23317,100.05625 C 216.72567,99.568747 222.21192,98.976247 228.48442,98.308747 L 231.82317,97.952497 L 232.18692,98.127497 C 236.36192,98.268747 239.57317,98.504997 240.98942,98.577497 C 243.33317,98.698747 246.47067,99.146247 248.86567,99.137497 L 251.31817,99.128497 L 252.02817,98.364747 C 253.29067,97.007247 256.49317,92.373497 257.64567,90.274747 L 258.54692,88.633497 L 257.84567,88.498497 C 256.91567,88.320997 254.55567,88.038497 253.13942,87.932247 L 252.20442,87.862247 L 248.83942,86.177247 C 248.61192,86.063497 248.38192,85.947247 248.14942,85.829747 C 246.30692,84.890997 239.93442,80.805997 235.25192,77.570997 C 234.48067,77.038497 233.85567,76.552247 233.85567,76.552247 L 234.02692,76.377247 C 234.61942,75.774747 236.65192,73.718497 238.51442,71.999747 C 240.44942,70.212247 242.30567,68.314747 243.54067,66.895997 C 244.35442,69.199747 245.36317,71.793497 246.30442,73.932247 C 246.79067,75.039747 247.25692,76.169747 247.61817,77.065997 L 248.82192,80.053497 L 250.05942,77.438497 C 251.48567,74.424747 253.00567,67.535997 250.26067,54.553497 L 249.48442,50.879997 L 249.36317,50.847497 C 247.50067,54.763747 245.06817,58.356247 242.17192,61.517497 L 241.97067,61.734997 C 237.97442,66.037497 233.11192,69.526247 227.66317,71.923747 L 227.49567,71.806247 L 226.07817,71.357497 C 224.55817,70.876247 222.05442,70.279997 220.98067,70.136247 C 220.61317,70.087547 220.27067,70.046247 219.96442,70.018747 L 218.56067,69.889997 L 217.57817,71.023747 C 216.43442,72.342497 214.77442,74.732497 213.72817,76.671247 C 213.30192,77.462497 212.93317,78.136247 212.63942,78.708747 L 211.79317,80.357497 C 211.72437,80.493747 215.56317,80.991247 219.11692,82.566247 C 221.43567,83.593747 224.33067,85.383747 227.88692,88.412497 C 228.21567,88.692497 225.74942,89.109997 221.65317,89.553747 C 210.04067,90.812497 193.95942,91.546247 189.60567,91.008747 z M 267.08942,58.474997 L 258.95942,66.604997 L 267.08692,74.732497 L 275.21692,66.603747 L 267.08942,58.474997 z M 153.13192,63.391247 L 159.13942,69.398747 L 168.05317,60.486247 L 159.12817,51.562497 L 153.12067,57.569997 L 147.11192,51.562497 L 138.19817,60.474997 L 147.12317,69.398747 L 153.13192,63.391247 z M 225.09567,50.543747 L 231.10317,56.558747 L 240.01567,47.636247 L 231.09192,38.702497 L 225.08442,44.717497 L 219.07692,38.702497 L 210.16442,47.624997 L 219.08817,56.558747 L 225.09567,50.543747 z M 181.03442,76.931247 C 181.07192,77.007447 181.70817,76.923247 182.50067,76.774997 C 186.84567,75.957497 193.94567,72.074997 196.44567,69.306247 C 198.62067,66.898747 201.48942,62.983747 203.16942,60.123747 C 204.54192,57.787497 205.70192,55.087497 206.05317,53.543747 C 206.92067,49.728747 206.81567,50.076247 204.39942,53.861247 C 204.10942,54.314997 203.78192,54.831247 203.41942,55.386247 C 202.62817,56.596247 201.45692,58.046247 200.27317,59.334997 C 197.56067,62.292497 191.03067,66.114997 187.33067,66.773747 L 185.69692,67.064997 L 185.49317,67.819997 C 184.89567,70.042497 183.41067,73.443747 182.48817,74.741247 C 181.59567,75.997497 180.91192,76.676247 181.03442,76.931247 z M 320.87692,56.864997 C 320.89942,54.794997 320.93072,53.421247 320.93072,53.421247 C 320.93072,53.421247 319.09072,56.794997 317.89447,59.431247 C 314.89322,66.042497 315.07322,64.221247 315.53197,71.532497 C 315.61447,72.839997 315.74572,74.399997 315.91447,76.137497 L 315.90317,76.137497 C 315.92697,76.346247 315.95197,76.556247 315.97697,76.766247 C 316.11197,78.117497 316.26697,79.566247 316.43697,81.078747 L 316.49577,81.078747 C 317.27202,87.448747 318.04202,93.718747 318.17702,98.742497 C 318.34827,105.0875 318.17702,112.5825 318.17702,112.5825 C 318.17702,112.5825 320.01702,109.20875 321.21452,106.5725 C 324.21577,99.962497 324.03452,92.993747 323.57577,85.682497 C 323.51077,84.647497 323.41577,83.454997 323.29452,82.141247 C 322.10192,69.179997 320.87192,57.292497 320.87692,56.864997 z"
     style="fill:#ff0000;stroke:none" />
  <text
     id="name"
     style="font-size:35.82610703px;text-align:center;stroke:#000000;stroke-width:1;font-family:Arial Black"
     x="23.240698"
     y="256.93262"
     transform="scale(0.96667355,1.0344754)">YAHYA BIN CHE MAT</text>
  <path
     id="kembali"
     d="M 316.56375,290.66875 C 316.60375,291.09875 316.53255,291.3475 316.36125,291.74 C 315.3125,294.13875 313.445,294.365 310.62375,294.37 C 309.85625,294.371 309.29375,294.361 308.83625,294.3813 L 307.07375,294.4538 L 304.80625,296.5763 C 304.03875,297.2938 303.2225,298.13755 302.58125,298.87255 C 300.90875,300.7913 299.91625,301.81005 299.7925,302.4013 C 299.5175,303.71755 306.23375,302.08255 312.52875,304.50505 C 313.17625,304.7538 313.8875,305.1038 314.83625,305.59505 C 316.20125,306.30255 318.06,307.30505 318.06,307.30505 C 318.06,307.30505 316.2625,308.70005 314.74,309.67505 C 310.05375,312.67755 297.24625,314.57005 292.02,312.60505 C 288.265,311.1938 285.28,308.6263 284.82875,304.96505 C 284.5325,302.5638 285.53,293.0013 285.53,293.0013 C 285.53,293.0013 283.71375,295.47255 282.69625,297.0313 C 279.60625,301.76255 278.51625,309.77255 280.97625,314.7563 C 283.9925,320.86755 291.7125,322.00005 299.375,321.15005 C 306.45,320.3663 316.55375,316.4588 320.76,312.14505 C 322.27875,310.58755 325.9575,305.70255 326.505,304.20255 C 326.70375,303.66255 325.62375,300.69755 325.07875,300.2863 C 323.41375,299.0288 319.04125,297.31505 319.04125,297.31505 C 319.04125,297.31505 321.01,293.90755 322.0525,291.81505 C 322.56125,290.7913 322.87875,291.26755 322.715,289.9063 C 322.5225,288.30505 322.1025,286.18255 321.67375,284.9688 C 321.07375,283.2688 320.17125,283.97755 321.055,282.83755 C 321.305,282.51755 321.86125,282.52255 322.42875,282.4938 C 322.98625,282.4663 324.81625,281.0038 326,279.64505 C 327.0375,278.4538 328.0775,276.3563 328.0775,276.3563 C 328.0775,276.3563 322.42,274.37755 321.14375,273.40005 C 320.75375,273.10005 320.415,272.81505 320.12125,272.54505 C 318.24875,270.81755 318.29875,267.95005 317.5975,268.29255 C 317.1175,268.52755 316.43,268.67255 315.6775,268.94255 C 314.14,269.4938 312.19125,271.6113 311.655,273.31255 L 310.7225,276.27005 L 311.8025,277.4613 C 312.13625,277.83005 312.5775,278.25005 313.0275,278.67505 L 314.58,280.1438 L 315.81875,282.40755 C 316.24375,284.46505 315.545,283.64755 315.78375,285.78505 C 316.035,288.04755 316.2975,287.7963 316.56375,290.6688 z M 325.9975,319.02625 L 321.34125,314.36625 L 315.345,320.3675 L 321.34125,326.36875 L 325.9975,321.7075 L 330.65375,326.36875 L 336.65,320.3675 L 330.65375,314.36625 L 325.9975,319.02625 z M 359.525,315.25 C 365.1375,315.1 371.4925,314.48125 375.54375,313.5675 C 376.79,313.2875 378.04125,312.9625 379.05125,312.51375 C 380.8375,311.72 381.2475,310.85875 381.675,310.89375 C 381.99125,310.92005 382.47,311.86375 383.10125,312.7725 C 384.0775,314.1775 386.3925,315.31625 388.31,315.47125 C 388.73375,315.50495 389.62625,315.14125 390.62125,314.5875 C 394.3075,312.53625 395.9375,311.295 396.71625,310.62 L 397.4925,309.9475 L 398.09875,310.33125 C 398.41375,310.53125 398.8375,310.86875 399.815,311.1725 C 400.10625,311.2625 400.455,311.3725 400.84125,311.4975 C 403.36375,312.30625 406.04625,312.75125 407.89875,312.76125 L 409.16375,312.77245 C 410.07625,312.77945 411.80625,309.4687 412.56625,307.8162 L 412.85375,307.1912 L 411.72,307.0912 C 410.5975,306.9912 408.80125,306.76745 407.44,306.2862 C 405.7875,305.70245 402.98375,304.0487 402.22875,303.2137 C 401.59875,302.5162 400.885,301.6062 400.885,301.6062 C 400.885,301.6062 402.755,300.65995 403.79375,299.8737 C 405.3625,298.68745 406.475,296.7062 406.8475,295.1987 C 407.39125,293.0012 406.315,289.0087 404.69625,287.1262 L 403.76125,286.0387 L 405.36,284.98245 C 407.995,283.2437 411.18125,281.37495 412.57375,280.7237 C 416.21,279.0237 418.99,278.2362 421.20875,277.3087 L 423.85625,276.20245 C 425.2175,275.6337 426.88875,273.1587 427.2775,271.1912 C 427.43625,270.38745 427.52875,269.31745 427.49125,268.53245 L 424.66625,269.3937 C 419.5625,270.9512 407.24125,277.92995 406.51,278.38745 C 404.74125,279.49495 397.5925,284.49245 394.09125,287.8287 L 391.79875,290.0137 L 394.6675,290.1237 C 396.75125,290.2037 399.445,290.9762 400.63875,294.03245 C 401.17375,295.39995 401.6325,297.2062 401.48375,297.66745 C 401.165,298.6562 399.1725,300.2637 398.10625,301.94495 C 396.2425,304.8837 396.03875,308.82495 391.6575,309.1212 C 389.32625,309.2787 387.07125,307.3887 386.3175,305.52495 C 385.86125,304.39495 385.4525,302.69245 385.4525,302.69245 C 385.4525,302.69245 382.78375,305.4912 381.0925,306.50745 C 380.11875,307.0912 378.2325,307.5187 376.70125,307.69745 C 363.85375,309.19245 356.88875,310.2787 344.8875,306.33995 C 341.69875,305.2937 341.24125,304.81995 340.7675,302.2312 C 340.07375,298.4337 339.1825,288.05245 338.92625,284.03245 C 338.595,278.8287 340.15125,275.58745 337.4975,270.3362 L 336.83375,269.0212 L 335.565,270.94745 C 334.555,272.4812 333.61125,274.0812 333.4975,274.4737 L 332.765,277.00245 L 333.45875,278.9187 C 334.71125,282.37745 334.69625,281.27995 334.32875,286.48745 C 334.17375,288.67745 334.1425,297.5412 334.24125,299.6837 C 334.7975,311.68745 338.36,311.94745 342.19875,313.0812 C 345.48375,314.0512 349.7325,314.8612 351.50875,315.0487 C 353.19125,315.22745 355.32,315.29995 357.65125,315.28245 L 352.58875,320.34745 L 358.60625,326.36745 L 364.62125,320.3487 L 359.525,315.25 z M 359.525,315.25 C 358.88875,315.2675 358.26375,315.2775 357.65125,315.2825 L 358.60375,314.32875 L 359.525,315.25 z M 199.13625,301.13875 C 198.5525,300.495 197.87625,299.66625 197.2175,298.825 L 194.27375,295.07 L 190.76,304.78625 L 192.31,306.765 C 192.9425,307.57125 193.65875,308.44 194.29625,309.19875 L 196.14875,311.4025 L 193.76,313.45375 C 183.89375,321.9275 182.19,324.275 173.20375,322.475 C 172.78875,322.3925 172.4075,322.29875 172.0775,322.1975 C 171.89625,322.1425 171.72125,322.0875 171.55,322.0325 L 165.79375,320.195 L 168.65625,323.4075 C 171.925,327.075 184.4375,328.745 190.66125,323.71125 C 192.7025,322.06125 194.515,320.16625 195.3,318.7225 C 196.015,317.40625 196.44875,316.31875 196.775,315.44375 L 197.9675,312.23875 L 201.56125,312.80625 C 206.9,313.65 214.36375,314.37 225.87375,314.55125 C 242.19125,314.80625 263.23875,313.9875 267.03,312.82875 L 269.46125,312.085 L 273.65875,306.6925 C 273.79,306.21875 273.9175,305.72625 274.03375,305.24625 C 274.8075,302.0325 274.14125,298.15375 272.62,295.46 C 270.67,292.0025 264.595,289.675 260.20375,290.69125 C 259.085,290.95125 257.79875,291.305 256.18625,291.69 C 247.26125,293.82375 230.60125,295.215 222.685,294.58125 L 209.4,293.5175 C 209.4,293.5175 213.06875,290.365 216.43875,287.3725 C 219.45625,284.6925 226.14,281.54375 229.5475,281.245 L 231.2125,281.1 L 232.24625,279.7675 C 233.285,278.42875 233.92375,276.37 234.30125,274.525 C 234.44,273.84875 234.525,273.1625 234.43875,272.6475 L 234.04875,270.31625 L 232.11125,271.11 C 229.12,272.335 223.38125,276.35125 218.045,281.11875 C 214.1325,284.615 209.0525,289.7925 208.1075,291.2975 C 207.0825,292.9275 206.005,296.09875 205.2125,298.11625 C 204.92625,298.84375 205.47625,299.84875 206.45375,300.63625 C 209.79375,303.32625 234.235,302.79625 255.55125,299.45 C 256.01375,299.3775 256.52,299.32375 257.11875,299.28875 C 261.0175,299.065 266.90125,300.59 267.175,303.385 C 267.2638,304.28375 267.175,305.69375 267.175,305.69375 C 267.175,305.69375 252.6325,306.8325 252.6325,306.8325 C 230.3625,308.57625 206.69875,309.49 199.13625,301.13875 z M 123.17875,311.09625 L 120.09625,310.58125 L 120.21125,309.89625 C 120.26245,309.5875 120.4575,309.50375 122.165,309.055 C 123.45875,308.71625 125.41,308.28125 126.1375,308.61625 C 126.525,308.795 126.57625,309.0375 127.22125,308.78125 C 128.205,308.39 129.96625,306.785 129.96625,306.785 L 129.56625,309.18 C 129.38625,310.25625 129.28875,310.4075 128.585,310.69625 C 128.43,310.75995 125.7125,311.3375 125.46875,311.34125 C 124.7925,311.35255 124.56375,311.32875 123.17875,311.09625 z M 149.41125,303.2 C 150.05625,303.3075 150.485,303.37625 150.85375,303.4225 L 153.91625,303.80375 L 156.31875,302.7275 C 156.825,302.50125 157.3075,302.23125 157.745,301.92375 C 158.81375,301.1725 159.07,301.19375 160.31125,302.13 L 163.0725,304.21625 C 163.0725,304.21625 154.2525,305.7 149.515,307.17875 C 147.35,307.855 145.01,308.8025 143.7375,310.17375 C 142.00625,312.04 139.6575,316.23125 139.6575,316.23125 C 139.6575,316.23125 138.2075,314.525 137.3175,313.06125 C 136.49625,311.71 135.5025,307.56875 135.28875,305.46 C 135.145,304.03125 135.1875,302.1775 135.25125,300.36125 C 135.375,296.8425 134.135,290.57 132.69375,287.8775 C 131.61375,285.8625 130.515,283.435 130.515,283.435 C 130.055,282.42125 127.955,285.87 126.17375,290.56625 C 126.03,290.945 127.18375,292.33625 127.95625,294.98625 C 128.39375,296.4875 128.67375,298.085 128.63125,299.06875 C 128.59375,299.9075 128.36,300.7225 127.75,301.2275 C 126.86,301.96125 123.37375,302.46125 120.795,303.365 C 116.81375,304.7625 115.9125,306.72 113.7325,310.10625 C 111.04875,314.27625 109.5375,316.115 112.98,318.56375 C 115.95375,320.68 122.135,321.515 126.03,319.42625 C 128.0325,318.3525 129.9125,315.72625 130.4625,315.83125 C 130.7425,315.88495 130.92375,316.6375 131.18,317.6375 C 131.28875,318.0625 131.45125,318.47375 131.6625,318.87125 C 133.18,321.72 138.55625,324.42 144.225,325.76875 C 144.73875,325.89 145.2675,325.98625 145.8025,326.05625 C 152.34625,326.92 153.01875,326.08505 153.8525,326.09505 C 154.3175,326.10105 156.45125,323.3338 158.1525,320.4463 C 158.77,319.39755 153.73125,319.6888 150.6925,317.0238 C 149.23875,315.7488 148.14375,314.5513 148.14375,314.5513 C 148.14375,314.5513 150.1225,314.0488 152.75375,313.61505 C 153.49125,313.49255 160.76,313.1438 168.36125,312.8488 C 171.605,312.72255 176.165,313.1713 177.3725,313.7863 C 178.12875,314.17255 178.67625,314.47755 179.075,314.34005 C 182.2675,313.2363 184.26375,309.33505 185.1175,306.7613 L 185.725,304.93255 L 183.9675,304.4913 C 182.645,304.16005 180.55875,303.6188 179.17625,303.1688 C 177.43375,302.6038 176.39,301.98505 174.7625,300.87005 C 166.505,295.2113 160.1025,288.4888 154.33125,289.99755 L 151.67375,290.69255 L 149.23125,293.9363 C 147.7225,295.94005 146.00875,298.70255 145.83875,299.56505 C 145.70125,300.26755 145.71375,300.9363 145.82245,301.61255 L 145.98745,302.62755 L 149.4112,303.20005 z M 131.035,274.61 L 126.37875,269.95 L 120.3825,275.95125 L 126.37875,281.9525 L 131.035,277.29125 L 135.6925,281.9525 L 141.6875,275.95125 L 135.6925,269.95 L 131.035,274.61 z M 102.93625,282.89875 L 104.92875,301.535 C 105.17125,304.43 104.6725,308.69625 104.3075,310.62 L 103.7225,313.70125 C 103.7225,313.70125 107.6875,308.21625 108.86,304.97375 C 109.0825,304.35625 110.025,301.2 109.97375,299.7675 C 109.94375,298.94125 109.92505,298.6975 109.785,297.33625 L 107.11375,278.06125 C 106.77,275.57875 106.5125,271.5825 106.59375,270.115 C 106.55125,269.75875 105.245,269.44 102.6375,275.34375 C 102.46875,275.72625 102.29375,276.145 102.09875,276.61625 L 100.92125,279.4625 C 100.92125,279.4625 102.33875,280.90375 102.33875,280.90375 C 102.76125,281.33375 102.82125,281.53375 102.93625,282.89875 z M 67.58125,289.91125 L 68.42,302.995 C 68.42,302.995 62.785,304.74625 59.19375,305.41375 C 57.03625,305.815 53.09375,305.555 49.765,304.46875 C 45.55375,303.095 43.94,301.075 42.8025,287.45625 C 42.53875,284.30125 42.3675,281.07625 42.41875,279.25875 C 42.48245,276.9875 42.6,274.45625 42.6,274.45625 C 42.6,274.45625 41.22875,275.17375 40.02375,276.11 C 38.73875,277.1075 37.89875,277.9775 37.36375,278.65125 L 36.6975,279.4925 L 37.185,281.675 C 37.32875,282.315 37.515,284.1675 37.56375,285.3575 L 37.58755,285.91125 L 36.36255,286.34125 C 35.6188,286.6025 34.57442,286.84625 33.54592,287.27875 C 30.44905,288.585 22.33893,296.80625 22.50255,302.2625 C 22.56915,304.49 26.30368,308.08125 27.3548,308.5175 C 28.07543,308.81625 29.76405,308.415 32.3138,307.3925 C 35.01255,306.31 39.1163,304.7125 39.1163,304.7125 C 39.1163,304.7125 39.3588,308.155 40.0813,310.02125 C 40.2113,310.3575 41.00005,311.10875 41.9038,311.85375 C 45.73255,315.00125 55.0038,315.81125 60.8563,313.36625 C 63.1838,312.39375 65.2763,311.0425 66.5963,309.51125 C 67.4788,308.48625 69.19005,306.755 69.19005,306.755 C 69.19005,306.755 70.13505,309.45 71.0738,310.85125 C 71.92255,312.11625 72.23505,312.62875 72.84005,313.06875 C 73.78755,313.75875 79.62005,314.93 81.57755,314.8225 C 85.30005,314.62 87.3213,313.81875 89.8113,310.66375 C 91.2088,308.89125 92.49505,307.2 93.47005,305.56125 C 97.3413,299.06 95.3763,289.4075 93.64755,283.73625 L 91.49755,276.685 L 86.26255,286.42625 L 87.15005,290.02875 C 88.42755,295.22125 90.5363,303.97625 87.91505,305.03625 C 87.42255,305.23625 86.86505,305.44625 86.35755,305.6 C 83.6538,306.41875 77.47755,305.16125 76.3513,304.64375 C 75.7013,304.34625 73.6763,301.0325 73.41755,299.8425 C 72.57505,295.96125 71.3238,275.585 71.3238,275.585 C 71.3238,275.585 70.48505,276.5725 69.6738,277.7275 C 68.5088,279.38625 66.9938,282.15875 66.52255,283.8675 C 66.4013,284.30625 67.3538,286.36625 67.5813,289.91125 z M 30.88012,295.77125 C 32.839,295.23875 35.955,294.3125 36.60875,293.575 C 37.29,292.805 37.91875,291.68875 37.91875,291.68875 C 37.91875,291.68875 38.45625,294.5 38.5475,296.21375 C 38.77875,300.565 33.36775,299.2375 30.30725,298.385 C 29.2375,298.0875 28.3575,297.55375 29.037,296.47375 C 29.17388,296.25625 29.35813,296.185 30.88012,295.77125 z"
     style="fill:#ff0000;stroke:none" />
  <text
     id="deathmuslim"
     style="font-size:48px;text-align:center;stroke:#000000;stroke-width:1;font-family:jawi"
     x="29.123077"
     y="367.0845"
     dx="0 7.074275 0 0 215.7655">143129</text>
  <path
     id="muslimMonthGlyph"
     transform="translate(141.04117,321.14032)"
     d="m 113.22436,1.54 c -0.255,0.3325 -0.5125,0.70625 -0.73375,1.0775 -0.815,1.36125 -1.72875,4.52125 -1.755,6.07125 -0.0875,5.2225 0.455,18.765 1.0375,22.78125 l 0.6425,4.4275 1.82625,-4.23875 c 0.36,-0.83625 0.715,-1.85125 0.9675,-2.77375 2.125,-7.77875 2.31125,-15.83875 -0.10375,-25.95375 L 114.40561,0 113.22436,1.54 z M 99.219359,0.005 c -0.435,-0.0875 -1.4725,1.115 -2.07875,2.22625 -1.38625,2.54375 -2.51875,5.04875 -1.98875,7.16375 0.4175,1.665 1.9175,3.19 2.505,5.1025 0.35125,1.14375 0.2,4.4925 -0.27625,6.075 l -0.63875,2.12625 -1.63875,-1.9625 c -0.24,-0.28625 -0.46625,-0.61375 -0.67625,-0.93875 -0.95875,-1.485 -1.54,-2.88625 -2.48875,-4.185 -3.1325,-4.2875 -10.56125,-8.5625 -16.0525,-9.385 -2.01875,-0.3025 -2.56375,0.58375 -3.095,2.66375 -1.1425,4.47 0.40625,12.42375 5.6325,11.18625 1.31875,-0.3125 2.7525,-1.25 3.90375,-1.27625 2.05875,-0.0475 7.43625,5.23125 8.57125,6.495 0.9125,1.01625 1.53625,2.31125 1.46875,3.0475 -0.0675,0.735 -3.71,5.11875 -5.00625,6.025 -3.21375,2.24625 -4.30875,2.5075 -4.97375,5.165 -0.8975,3.5875 -0.205,3.9575 2.61375,3.65375 0.9875,-0.10625 2.14875,-0.2075 2.98625,-0.57125 l 2.20125,-0.9575 1.20625,0.13125 c 1.59625,0.1725 3.6675,0.5575 4.57,0.33375 2.04625,-0.50875 4.278751,-4.06125 4.493751,-5.63625 0.17,-1.255 -0.837501,-5.61 -1.243751,-8.4225 l -0.33,-2.2825 1.391251,-3.01375 c 1.0325,-2.23875 2.2575,-6.25 2.51375,-8.165 0.12875,-0.96375 0.27625,-1.92125 0.56,-2.815 0.435,-1.3725 1.22375,-2.76125 1.50875,-4.02875 l 0.45625,-2.0375 -1.86,-1.15875 c -0.5725,-0.3575 -1.235,-0.74 -1.79,-1.435 C 100.79811,2.045 99.799359,0.12 99.219359,0.005 z m -6.3725,34.3275 2.1375,-2.68125 0.905,1.7525 0.73375,1.41875 -3.20875,1.1875 -2.7025,1.00125 2.135,-2.67875 z M 31.540609,22.45 c -0.01125,-0.0175 -0.02125,-0.035 -0.0325,-0.0525 l -1.94375,-3.1825 -1.80875,1.42125 c -1.0575,0.83 -1.87625,2.4225 -2.34375,3.89625 -0.32625,1.03 -0.17375,3.41 0.3025,4.7275 0.4675,1.2925 1.20125,2.59125 1.8275,3.69 l 1.4925,2.61875 -0.92375,1.51875 c -2.02625,3.33375 -8.5525,9.18125 -11.95875,10.405 -7.0387498,2.5275 -17.2837498,3.97875 -16.04999978,4.29 3.48124998,0.88 12.08499978,2.37875 15.74749978,2.6475 5.4425,0.4 5.73875,-0.9175 10.48375,-6.995 3.82875,-4.9025 5.3825,-6.685 6.34375,-12.225 l 0,0.075 c 0.05875,-0.0875 0.1175,-0.15875 0.17375,-0.2125 0.8025,-0.75125 1.9925,-1.00125 3.105,-1.83125 1.0525,-0.785 2.90125,-2.975 3.435,-4.32375 0.49875,-1.26 0.99125,-3.52875 0.99125,-3.52875 0,0 0.755,8.3175 1.55125,10.73375 0.37,1.1225 1.39125,3.30875 2.53,4.8025 1.40625,1.84125 6.05,2.53625 9.485,1.28875 3.09375,-1.12375 8.64875,-3.46125 12.45625,-4.59125 l 2.34625,-0.69625 1.44625,0.22125 c 0.78875,0.12125 1.58,0.32125 2.27375,0.255 0.885,-0.085 3.22875,-1.8725 5.10625,-3.7425 1.3,-1.295 2.69,-3.94375 2.64125,-5.09625 -0.0225,-0.5375 -0.06375,-0.96125 -0.06375,-0.96125 0,0 -2.8625,0.32375 -5.24375,0.0913 -1.29125,-0.12625 -11.90625,-6.75125 -14.12,-7.3575 -0.955,-0.26125 -5.6925,0.49625 -6.7275,1.07625 -1.605,0.89875 -6.5875,5.76125 -4.705,7.33125 0.4525,0.37875 2.30625,-0.13875 4.035,-0.07 1.1225,0.0437 3.1475,0.7775 4.75,1.54625 l 2.3975,1.15 -2.34125,0.83 c -0.22375,0.0787 -0.49625,0.17375 -0.835,0.29125 -5.52,1.91125 -6.99625,2.92125 -9.785,-0.91625 -0.70125,-0.96625 -1.33625,-2.00875 -1.62875,-3.26625 -0.83375,-3.57375 0.75625,-8.15625 -1.32375,-10.96125 -2.09125,-2.8175 -5.2825,3.5275 -6.42125,5.91 -0.3625,0.76125 -0.60625,1.16375 -0.9725,1.33125 -5.2525,1.49875 -6.295,-3.12875 -5.6925,-2.13875 z m 8.01375,23.3125 -3.64375,-3.645 -5.31875,5.31875 5.31875,5.32 3.645,-3.645 3.645,3.645 5.3175,-5.31875 -5.31875,-5.32 -3.645,3.645 z m 19.735,-40.3875 -5.31875,5.31875 5.32,5.31875 5.3175,-5.3175 -5.31875,-5.32 z M 182.00561,20.41625 c -1.0575,0.83 -1.875,2.42375 -2.3425,3.8975 -0.32625,1.03 -0.175,3.40875 0.3025,4.7275 0.4675,1.29125 1.2,2.59125 1.8275,3.68875 l 1.4925,2.62 -0.92375,1.51875 c -2.0275,3.33375 -8.5525,9.18125 -11.95875,10.40375 -7.03875,2.52875 -17.285,3.97875 -16.05125,4.29125 3.4825,0.87875 12.085,2.3775 15.74875,2.64625 5.44125,0.4 5.73875,-0.91625 10.48375,-6.995 4.61,-5.90375 5.9225,-7.28125 6.87125,-16.1475 0.44875,-4.1925 0.21375,-5.76125 -1.69625,-8.89 l -1.945,-3.18125 -1.80875,1.42 z m -25.65375,21.4825 -5.31875,5.31875 5.32,5.31875 5.3175,-5.31875 -5.31875,-5.31875 z M 145.22936,26.355 c -1.3225,-0.24375 -2.6575,-0.625 -4.24375,-1.1725 -1.84125,-0.63375 -2.55875,-0.94125 -2.74875,-1.9675 -0.28875,-1.5475 1.3875,-9.54 1.02875,-10.3775 -0.35375,-0.82625 -5.4425,-3.3025 -7.94625,-3.55375 -4.21125,-0.42375 -8.9375,3.23375 -9.66625,7.94125 -0.17,1.09625 -0.135,3.60875 0.605,4.235 0.93625,0.7925 3.4225,1.41375 3.4225,1.41375 0,0 -3.135,4.01875 -4.93375,6.8375 -0.7425,1.165 -1.365,2.36375 -1.895,3.57125 -2.10375,4.785 -3.22,12.91875 -2.32375,16.72125 2.2475,9.54125 13.425,17.30125 20.24375,16.4975 2.07125,-0.24375 4.58,-0.5775 7.09875,-0.96125 8.2025,-1.24875 11.8525,-3.44625 13.5075,-4.9225 l 2.325,-2.07375 -5.095,-0.33 c -2.66625,-0.1725 -6.3225,-0.3025 -9.73625,-0.32 -8.7575,-0.0462 -14.68,-1.185 -19.59375,-6.44625 -5.29625,-5.67125 -5.145,-7.5675 -2.71875,-13.8875 0.6125,-1.595 2.50125,-4.0125 3.8275,-4.9425 0.21625,-0.1525 0.45,-0.315 0.70375,-0.49125 1.765,-1.23 3.7025,-2.42625 4.1875,-2.2425 0.62,0.23625 1.1675,2.49375 2.4575,3.7525 0.63,0.61375 1.5075,1.06875 2.4625,1.5375 4.52375,2.22125 13.44875,0.44125 16.97,-0.39375 0.46,-0.11 0.9175,-0.21375 1.355,-0.305 l 2.63875,-0.55625 2.1625,0.79125 c 0.7,0.25625 1.48875,0.57125 2.295,0.9025 3.505,1.4375 8.07125,0.79 9.3875,-1.25875 0.91375,-1.42375 1.79875,-3.09375 2.49,-4.6425 0.53875,-1.205 1.20125,-3.94 1.4625,-5.69 0.89,-5.94625 -3.69125,4.40625 -8.54875,2.725 l -4.69375,-1.62375 c 0,0 0.60875,-1.82125 0.96875,-3.31 1.24625,-5.13875 -0.68875,-0.35 -5.8025,2.76625 -1.49875,0.915 -7.30625,1.36125 -8.83125,1.51 -1.01875,0.0988 -1.955,0.18875 -2.8225,0.26625 z m -8.5275,19.18875 -3.64375,-3.645 -5.31875,5.31875 5.32,5.31875 3.64375,-3.645 3.645,3.645 5.31875,-5.31875 -5.32,-5.31875 -3.645,3.645 z"
     style="fill:#000000;stroke:none" />
  <path
     id="equals"
     d="M 206.65609,400.83445 C 206.01359,400.62695 205.41859,400.4107 204.86984,400.1882 C 202.75609,399.3307 200.66109,398.3557 200.16234,397.82445 C 199.56984,397.19195 199.04234,395.3107 198.91859,393.61195 C 198.57609,388.88195 198.92559,382.9507 198.36234,377.9432 C 197.88859,373.7482 196.67359,371.4032 195.71734,370.28945 L 194.91984,369.36195 L 191.02109,376.7882 L 192.08984,379.2107 C 192.47859,380.0907 192.93984,381.0307 193.28109,381.93445 C 195.54484,387.92945 193.43609,390.8082 193.57984,399.34695 C 193.67234,404.84195 194.96109,406.95445 199.49734,409.02695 C 204.76359,411.43195 210.37734,406.29945 214.47859,408.7807 C 215.08984,409.1507 215.60734,409.52695 215.92484,409.8132 C 216.60109,410.4257 217.15359,410.99445 217.62734,411.47695 L 219.55609,413.4432 L 221.06734,412.8832 C 222.55359,412.33445 224.08359,410.59445 224.94109,408.3832 L 225.52109,406.88445 L 224.85609,405.8057 C 224.58234,405.36195 224.21359,404.88445 223.80484,404.44695 C 221.23984,401.70195 217.25484,398.44445 219.38609,397.2457 C 223.60734,394.8707 223.60234,396.7582 226.48359,401.7232 C 228.29484,404.84195 230.40609,405.5732 234.25109,404.7132 C 235.50984,404.43195 236.82109,403.9807 237.72609,403.3582 C 237.89984,403.2382 238.05984,403.11195 238.20984,402.9857 L 239.91359,401.55445 L 244.22734,402.78445 C 245.26859,403.0807 246.32984,403.4007 247.22484,403.66445 C 249.84234,404.43945 252.73234,403.94445 254.86234,402.7132 C 255.96984,402.0732 260.23984,397.0832 260.53484,396.08445 C 260.78359,395.2432 260.33609,392.5882 259.43359,390.7657 L 258.15609,388.18445 L 253.06359,392.58945 L 252.95984,395.30445 C 252.87614,397.51445 247.19359,396.2732 247.27609,395.5032 L 247.38984,394.43695 C 247.44364,393.9307 247.49234,393.3357 247.48734,392.8707 C 247.48334,392.5957 247.45234,392.3332 247.39364,392.10195 C 247.17989,391.25445 246.95614,390.6557 246.72364,390.2582 C 245.70614,388.5282 247.00239,393.9207 239.26989,397.21695 C 237.56989,397.94195 235.38489,397.65695 233.91989,396.54445 C 233.37114,396.1282 232.94989,395.57195 232.56864,394.91195 C 230.17239,390.76945 229.23739,388.00695 225.24739,388.68945 C 224.06739,388.8907 220.21489,391.0907 219.26364,392.1057 C 217.69989,393.77445 216.14364,396.2407 214.97864,397.7257 L 213.88984,399.1132 C 213.88984,399.1132 211.60234,399.7607 211.60234,399.7607 C 210.26234,400.1407 208.53484,400.5032 206.65609,400.83445 z M 281.06859,396.67945 C 281.06859,396.67945 278.35359,396.9782 276.77609,396.77695 C 275.84984,396.65945 274.16609,395.9682 273.32234,395.3757 L 268.10859,391.71945 L 264.44859,402.56445 L 268.90984,406.90945 L 265.87109,408.80695 C 261.55234,411.5032 253.02609,414.82195 250.32484,414.94195 C 247.21484,415.07945 240.22109,413.9632 240.22109,413.9632 C 240.22109,413.9632 241.78109,415.59195 242.73734,416.29695 C 243.06609,416.5382 243.32484,416.67195 243.55609,416.83695 C 244.74359,417.67945 245.25734,419.35695 246.39109,420.24195 C 247.90234,421.4207 254.96234,420.65445 257.89484,419.73695 C 261.64984,418.56195 268.56484,413.54945 272.13609,410.33445 L 277.02484,405.9332 L 277.93234,405.50945 C 278.88859,405.0632 280.24984,404.57195 282.33359,403.9682 C 283.01109,403.77195 283.82109,403.4782 284.80359,403.0357 C 285.12859,402.88945 285.43234,402.7382 285.69859,402.58195 C 288.06609,401.1907 290.05109,397.1257 290.02484,395.17195 C 290.00984,394.07695 289.71484,392.7107 289.25984,391.4207 L 286.80359,384.45945 L 280.08984,394.8207 L 281.06859,396.67945 z M 281.99734,417.36195 L 287.93859,411.42445 L 281.99734,405.4857 L 276.05609,411.42445 L 281.99734,417.36195 z M 187.18109,378.8482 C 187.35109,377.7032 187.06484,377.26195 185.86484,376.6782 C 184.81609,376.1682 183.10359,375.47695 182.08234,375.0732 C 181.81109,374.96695 181.73609,374.5907 181.84484,374.17445 C 183.17734,369.0657 183.29234,369.1332 182.62109,369.51945 C 182.18609,369.76945 181.73359,370.0382 181.37734,370.27445 C 178.35734,372.27695 174.92234,378.6257 175.58859,380.2482 C 175.83109,380.8382 176.66609,381.6932 177.91359,382.33445 L 179.67234,383.2382 C 180.15859,383.4882 179.64234,387.88945 180.12109,388.0832 C 180.43609,388.2107 181.21859,387.4857 182.93984,385.1107 C 182.93984,385.1107 186.04359,380.82445 186.04359,380.82445 C 186.99984,379.5032 187.11359,379.3057 187.18109,378.8482 z M 173.89234,395.8782 L 179.83359,389.9407 L 173.89234,384.00195 L 167.95109,389.9407 L 173.89234,395.8782 z M 184.24359,408.5532 C 187.46484,404.6307 189.81609,399.44695 189.38734,398.08195 L 185.94859,387.1407 L 180.50984,398.57195 C 180.50984,398.57195 181.29734,400.1232 181.90109,401.41195 L 183.37484,404.5632 L 182.10234,405.3032 C 181.70734,405.53195 181.12609,405.7007 180.34109,405.91695 C 175.80484,407.1657 171.07734,406.85695 167.57359,403.21445 C 166.28109,401.8707 164.91609,400.3882 164.30734,398.81695 C 163.43734,396.56945 165.53984,392.4882 164.56234,393.1507 C 164.12984,393.4432 163.69234,394.11445 163.51234,394.45445 C 160.14609,400.78445 157.60234,407.08195 163.53614,411.0707 C 163.75864,411.2207 163.99489,411.36945 164.23989,411.51445 C 170.25864,415.0907 180.21489,413.4582 184.24364,408.5532 z"
     style="fill:#ff0000;stroke:none" />
  <text
     id="death"
     x="92.281265"
     y="453.09964"
     style="font-size:48px;text-align:center;stroke:#000000;stroke-width:1;font-family:jawi"
     dx="0 4.5331993 4.5331993 4.5331993 4.5331993 4.5331993 4.5331993 4.5331993 4.5331993">16.8.2010</text>
  <text
     id="age"
     style="font-size:46px;text-align:center;stroke:#000000;stroke-width:1;font-family:jawi"
     x="135.58331"
     y="479.90973"
     transform="scale(0.97146629,1.0293718)">60</text>
  <text
     id="old"
     style="font-size:36.79852295px;text-align:center;stroke:#000000;stroke-width:1.08517933;font-family:Arial Black"
     x="230.82187"
     y="405.37744"
     dx="4.752954"
     transform="scale(0.82166474,1.2170414)">TAHUN</text>
</g>
</svg>