<?xml version="1.0" encoding="UTF-8" standalone="yes"?>
<!DOCTYPE svg PUBLIC "-//W3C//DTD SVG 1.1//EN" "http://www.w3.org/Graphics/SVG/1.1/DTD/svg11.dtd">
<svg viewBox = "0 0 600 600" version = "1.1" xmlns:svg="http://www.w3.org/2000/svg" xmlns="http://www.w3.org/2000/svg" xmlns:xlink="http://www.w3.org/1999/xlink">
  <path
     id="frame"
     style="color:#000000;fill:none;stroke:#000000;"
     d="M 394.24995,56.84023 C 349.12695,22.612785 277.74938,0.5 197.37499,0.5 117.00061,0.5 45.62304,22.612785 0.50004,56.84023 0.43024,291.89796 83.39347,424.00961 197.37499,450.5 311.35652,424.00961 394.31977,291.89796 394.24995,56.84023 z"/>
  <path
     id="alfatihah"
     d="m 243.57678,57.95784 c 0.086,0.545604 0.15073,1.414963 0,2.214263 -0.11146,0.587003 -1.86079,2.795958 -2.25035,2.842664 -1.09971,0.12844 -3.77147,-1.199481 -5.26392,-2.593215 -1.06892,-0.997798 -2.17393,-2.234431 -2.48176,-2.643104 -0.46918,-0.62097 -0.73773,-1.157021 -0.83645,-1.664413 -0.42247,-2.150574 2.3565,-6.267023 4.8096,-7.841209 0.50527,-0.323754 1.05618,-0.24945 1.88838,0.411857 2.33422,1.856542 3.49867,5.268164 4.1345,9.273157 z m -79.7708,8.00574 c -6.50267,-0.711197 -12.42896,-1.490329 -17.367,-2.205772 -0.66025,-0.09553 -1.33854,-0.199559 -2.02107,-0.309954 -7.53657,-1.220711 -17.49014,-4.38819 -19.99418,-6.355127 -3.42436,-2.688748 -5.75433,-6.687372 -6.29038,-10.773038 -0.47024,-3.589952 -0.0318,-14.332207 -0.39594,-17.357447 -0.42141,-3.507155 -1.39373,-6.366803 -1.84168,-7.559915 l -0.23034,-0.612479 -0.40761,0.425657 c -2.7673,2.885123 -3.53794,5.103633 -3.77253,6.308421 -0.0913,0.464932 0.75472,-0.07541 2.85965,12.195432 0.22291,1.299261 0.37577,2.39047 0.39487,2.959428 0.48086,14.589087 -0.69633,20.868848 10.18922,25.111614 1.94571,0.757902 4.08461,1.452115 6.38697,2.086885 13.16988,3.630288 41.21333,6.143891 58.00818,5.907179 11.75916,-0.165592 21.87726,-0.819469 27.93199,-1.659105 1.42876,-0.198499 3.32352,-0.560466 5.27135,-0.985061 3.47,-0.758964 9.2031,-2.628244 11.72944,-3.837278 l 0.5732,-0.273864 1.51581,0.27068 c 2.04548,0.366213 5.84455,1.455299 8.4972,1.86291 3.07513,0.474485 10.57242,-0.423533 13.11893,-1.72704 0.98825,-0.50633 2.91166,-2.338457 3.37022,-3.209939 l 1.52642,-2.906353 0.0149,-0.0276 0.21867,-0.238835 c 1.11669,-1.223895 2.74607,-2.852217 2.95731,-4.824461 0.0594,-0.561527 0.0531,-1.138976 0,-1.777992 -0.33437,-4.019854 -1.33748,-12.662487 -1.89158,-14.938316 -0.33861,-1.392672 -0.64538,-3.858508 -0.63264,-4.92318 l 0.0212,-1.728102 1.89475,-3.043285 1.2101,-1.945707 -1.01478,-0.666614 c -7.40813,-4.870106 -7.04828,-9.150024 -7.29773,-8.845377 -0.13481,0.163469 -0.2675,0.331184 -0.39594,0.502083 -0.32057,0.42778 -0.89589,1.559326 -1.53703,2.91803 -1.73553,3.679116 -0.8821,8.365584 1.77905,9.6468 l 1.39692,0.671922 c 0,0 -1.54553,2.901046 -2.06141,4.475232 -0.19956,0.609294 -0.24414,1.02009 -0.24732,1.545526 -0.003,0.709074 0.0202,0.933048 0.23352,2.245046 l 2.51361,19.607801 0.10296,0.809915 -8.68297,-0.03923 -7.58433,-0.733488 4.53149,-6.580163 c 0.83645,-1.69838 2.08052,-4.975192 2.06035,-5.616331 -0.0255,-0.809915 -2.8692,-7.952666 -5.51549,-10.000276 -2.8554,-2.210017 -4.36378,0.04671 -7.41237,4.196061 -2.51997,3.429667 -7.33488,11.179589 -8.31251,16.776813 -0.12101,0.694213 -0.19319,1.473345 -0.16771,2.234432 l 0.0648,1.927661 -1.57843,0.390628 c -4.51663,1.119869 -9.6139,1.886264 -15.06676,2.372425 -8.90907,0.793993 -33.39334,-0.07855 -48.65329,-1.747209 z M 147.60662,46.990549 c 0,0 -1.61347,0.263249 -3.13458,0 -1.52005,-0.262188 -2.94881,-1.051935 -2.94881,-1.051935 0,0 4.31813,-2.887246 5.48895,-3.645148 0.27068,-0.174084 0.34499,0.168776 0.39806,1.823636 0.0371,1.147468 0.19638,2.873447 0.19638,2.873447 z m 17.74595,6.850841 c -4.18651,-0.515883 -8.70314,-1.408594 -10.03849,-2.392593 -0.65812,-0.4851 -1.95739,-2.745007 -2.56456,-4.458248 -0.17939,-0.507391 -0.37046,-1.050873 -0.41822,-1.603908 -0.0637,-0.746226 -0.0743,-0.974446 -0.0955,-2.287506 L 151.9895,28.437867 c 0,0 -1.39161,1.311999 -2.92652,2.774729 -1.4829,1.411778 -2.3703,2.338457 -2.84479,3.085744 l -0.69952,1.102886 0.48828,1.382057 c 0.18789,0.532867 0.39912,1.224957 0.62522,2.129344 0.069,0.274926 0.10296,0.4851 0.008,0.600803 -0.70907,0.86405 -8.18831,4.458248 -9.61814,5.753263 -1.81726,1.645306 -5.88913,7.188394 -5.88913,7.188394 0,0 1.53385,0.965954 2.75987,1.590109 2.23018,1.135792 7.65757,2.073085 9.30606,0.486161 0.77701,-0.748349 1.30881,-1.508374 1.74933,-2.101745 l 2.42232,-2.617629 0.32587,2.293875 c 0.18152,1.281216 0.63371,2.717408 1.2239,4.043207 3.62498,8.146918 16.53585,7.447397 35.64688,5.375373 3.81498,-0.41398 8.47385,-0.917125 13.8004,-1.48396 l 2.83523,-0.302524 0.3089,0.148609 c 3.54536,0.119948 6.27233,0.320569 7.47499,0.382135 1.99029,0.102965 4.65463,0.482977 6.68844,0.475547 l 2.08263,-0.0076 0.60293,-0.648569 c 1.0721,-1.152776 3.79163,-5.08771 4.77033,-6.869948 l 0.76533,-1.393734 -0.5955,-0.11464 c -0.78974,-0.150732 -2.79383,-0.390628 -3.9965,-0.480854 l -0.79399,-0.05944 -2.85753,-1.430886 c -0.19319,-0.0966 -0.3885,-0.195314 -0.58594,-0.295093 -1.56463,-0.797178 -6.97609,-4.266119 -10.95243,-7.01325 -0.65493,-0.452193 -1.18568,-0.865112 -1.18568,-0.865112 l 0.14543,-0.148608 c 0.50314,-0.511637 2.22912,-2.257785 3.81074,-3.71733 1.64318,-1.517928 3.21949,-3.129266 4.26824,-4.334054 0.69103,1.956321 1.54765,4.158908 2.34695,5.975114 0.41292,0.940478 0.80885,1.900063 1.11562,2.661149 l 1.02221,2.536956 1.05088,-2.220632 c 1.21115,-2.559247 2.50192,-8.409106 0.1709,-19.433717 l -0.65919,-3.119712 -0.10296,-0.0276 c -1.58162,3.325641 -3.64727,6.376357 -6.10674,9.060859 l -0.1709,0.184699 c -3.39358,3.65364 -7.52276,6.616253 -12.14979,8.652186 l -0.14224,-0.09978 -1.20372,-0.381074 c -1.29077,-0.408673 -3.41693,-0.915002 -4.32875,-1.037073 -0.31208,-0.04136 -0.60293,-0.07643 -0.86299,-0.09978 l -1.19205,-0.109333 -0.83433,0.962769 c -0.97126,1.119869 -2.38092,3.149434 -3.26938,4.795801 -0.36197,0.671922 -0.67511,1.244064 -0.92456,1.730225 l -0.71863,1.400102 c -0.0583,0.115703 3.20145,0.538175 6.21926,1.875649 1.96906,0.872543 4.42747,2.392593 7.4474,4.964578 0.27917,0.237773 -1.81515,0.59231 -5.29364,0.969138 -9.86122,1.068918 -23.51726,1.692012 -27.21442,1.235572 z m 65.79843,-27.62734 -6.90391,6.903916 6.90179,6.901793 6.90392,-6.902854 -6.9018,-6.902855 z m -96.77158,4.174831 5.10151,5.10151 7.56947,-7.568407 -7.57903,-7.577961 -5.10151,5.10151 -5.10257,-5.10151 -7.56947,7.568408 7.57903,7.57796 5.10257,-5.10151 z m 61.11091,-10.90997 5.10151,5.107879 7.5684,-7.576899 -7.57796,-7.586453 -5.10151,5.107879 -5.10151,-5.107879 -7.5684,7.576899 7.57796,7.586453 5.10151,-5.107879 z m -37.41638,22.408005 c 0.0318,0.06471 0.57214,-0.0059 1.24512,-0.132686 3.68973,-0.694213 9.71898,-3.991194 11.84196,-6.342389 1.84699,-2.044425 4.2831,-5.369005 5.70974,-7.797688 1.16551,-1.983921 2.15057,-4.276734 2.44885,-5.587672 0.73667,-3.23966 0.64751,-2.944567 -1.40435,0.269618 -0.24626,0.38532 -0.52437,0.823715 -0.8322,1.295015 -0.67192,1.02752 -1.66654,2.258846 -2.67177,3.35324 -2.30343,2.51148 -7.84864,5.757509 -10.99064,6.316913 l -1.38736,0.247327 -0.17303,0.641138 c -0.50739,1.887325 -1.76844,4.775633 -2.55181,5.877458 -0.75791,1.066795 -1.33854,1.643182 -1.23451,1.859726 z M 276.82682,24.846854 c 0.0191,-1.757823 0.0456,-2.924398 0.0456,-2.924398 0,0 -1.56251,2.864955 -2.57835,5.103632 -2.54863,5.614209 -2.39578,4.067621 -2.00621,10.276263 0.07,1.110316 0.18151,2.435052 0.32481,3.91052 l -0.01,0 c 0.0202,0.177269 0.0414,0.355599 0.0627,0.533929 0.11464,1.147468 0.24626,2.377732 0.39062,3.662132 l 0.0498,0 c 0.65918,5.409341 1.31306,10.733764 1.4277,14.999883 0.14543,5.388111 0,11.752791 0,11.752791 0,0 1.56251,-2.864955 2.57942,-5.103632 2.54863,-5.613147 2.39471,-11.530941 2.00515,-17.739583 -0.0552,-0.878912 -0.13587,-1.891571 -0.23884,-3.007194 -1.01266,-11.006566 -2.05716,-21.101314 -2.05292,-21.464343 z"
     style="fill:#ff0000;stroke:none" />
  <text
	 id="name"
     style="font-size:30px;text-align:center;stroke:#000000;font-family:Arial Black"
     x="37.507107"
     y="195.52356"
     transform="scale(0.96667355,1.0344754)">FATIMAH BT RAMLI</text>
  <path
	 id="kembali"
     style="fill:#ff0000;stroke:none"
     d="m 267.75639,205.22864 c -0.40761,0.19955 -0.97975,0.328 -1.61877,0.55728 -1.30562,0.46812 -2.96792,2.27052 -3.4233,3.71521 l -0.79611,2.52103 0.9288,1.00842 c 0.28342,0.31314 0.65281,0.67404 1.03495,1.03495 l 1.32686,1.24724 1.03495,1.91068 c 0.3609,1.74721 -0.22928,1.05088 -0.0265,2.86602 0.21336,1.92129 0.43734,1.7005 0.66343,4.1398 0.034,0.36514 -0.0138,0.5955 -0.15922,0.9288 -0.8906,2.03701 -2.48707,2.22488 -4.88284,2.22913 -0.65175,8.5e-4 -1.12412,-0.017 -1.51262,0 l -1.51262,0.0796 -1.91068,1.77799 c -0.65175,0.60928 -1.3396,1.3396 -1.88414,1.96375 -1.42028,1.62938 -2.28326,2.49662 -2.38835,2.9987 -0.23353,1.11775 5.48152,-0.27917 10.82718,1.77799 0.54985,0.21124 1.15808,0.51164 1.96375,0.92881 1.15915,0.6008 2.73333,1.45954 2.73333,1.45954 10e-6,1e-5 -1.52005,1.18887 -2.81294,2.01683 -3.97951,2.5497 -14.85446,4.13662 -19.29254,2.46796 -3.18869,-1.19843 -5.72036,-3.36598 -6.10356,-6.47508 -0.25162,-2.03907 0.58378,-10.1637 0.58378,-10.1637 10e-6,0 -1.55083,2.09962 -2.41489,3.4233 -2.62399,4.01773 -3.54855,10.81443 -1.45954,15.04659 2.56137,5.1896 9.12349,6.16193 15.63041,5.44012 6.00802,-0.66554 14.57953,-3.97952 18.15143,-7.64271 1.2897,-1.32261 4.41792,-5.4932 4.88285,-6.76698 0.16877,-0.45858 -0.73137,-2.96792 -1.19418,-3.31715 -1.41391,-1.06786 -5.14821,-2.52104 -5.14821,-2.52104 -1e-5,0 1.68883,-2.89361 2.57411,-4.67054 0.43203,-0.86936 0.69633,-0.46281 0.55728,-1.61877 -0.16346,-1.35977 -0.51164,-3.16217 -0.87573,-4.19288 -0.50952,-1.44362 -1.28122,-0.83645 -0.53074,-1.80453 0.2123,-0.27173 0.68572,-0.26749 1.16763,-0.29191 0.47344,-0.0233 2.02001,-1.26104 3.02524,-2.41488 0.88104,-1.01159 1.75146,-2.81294 1.75146,-2.81294 -10e-6,-1e-5 -4.78094,-1.66442 -5.86472,-2.4945 -0.33119,-0.25475 -0.62628,-0.51376 -0.87573,-0.74304 -1.5901,-1.46699 -1.55402,-3.89991 -2.14951,-3.60906 z m 93.3313,0.2123 -2.41488,0.74304 c -4.33406,1.32262 -14.79714,7.22767 -15.41811,7.61617 -1.50201,0.94047 -7.56204,5.20766 -10.53527,8.04077 l -1.93721,1.83107 2.41488,0.10615 c 1.7695,0.0679 4.05489,0.72181 5.06861,3.31715 0.45431,1.16127 0.84282,2.68662 0.7165,3.07831 -0.27069,0.83963 -1.96057,2.2079 -2.86601,3.6356 -1.58269,2.49555 -1.74615,5.85198 -5.46667,6.10355 -1.97967,0.13375 -3.89778,-1.4691 -4.53786,-3.05178 -0.38744,-0.95957 -0.74304,-2.41488 -0.74304,-2.41488 -10e-6,0 -2.25247,2.37455 -3.68867,3.23754 -0.82689,0.4957 -2.44142,0.85662 -3.74174,1.00841 -10.90998,1.26953 -16.82352,2.20365 -27.01486,-1.1411 -2.70787,-0.88846 -3.07407,-1.30457 -3.47638,-3.50291 -0.58913,-3.22481 -1.34808,-12.0309 -1.56569,-15.44464 -0.28128,-4.41898 1.03283,-7.16398 -1.22071,-11.62329 l -0.55728,-1.11457 -1.08803,1.61877 c -0.85768,1.30244 -1.65486,2.6654 -1.75145,2.99871 l -0.63689,2.14951 0.61035,1.61877 c 1.06362,2.93712 1.05512,2.02638 0.74304,6.44853 -0.13163,1.85974 -0.16347,9.37931 -0.0796,11.1987 0.47237,10.19347 3.48062,10.42169 6.74045,11.38445 2.78958,0.82373 6.39971,1.51262 7.90808,1.67185 1.42877,0.1518 3.24816,0.20062 5.22783,0.18576 l 0.79612,-0.79612 0.79611,0.76958 c 4.76609,-0.12738 10.14676,-0.65706 13.58705,-1.43301 1.05829,-0.23777 2.14102,-0.52119 2.9987,-0.90226 1.51688,-0.67405 1.86609,-1.38312 2.22912,-1.3534 0.26855,0.0223 0.65812,0.82053 1.19418,1.59223 0.82902,1.19312 2.80338,2.15058 4.43171,2.2822 0.35985,0.0286 1.1188,-0.2728 1.96375,-0.74304 3.13033,-1.74189 4.51344,-2.79702 5.17475,-3.37022 l 0.66343,-0.58382 0.50421,0.34498 c 0.26749,0.16985 0.62946,0.45856 1.45954,0.71651 0.24733,0.0764 0.54773,0.15922 0.87573,0.26537 2.14209,0.68678 4.42428,1.05299 5.99741,1.06149 l 1.06148,0.0265 c 0.77489,0.007 2.24717,-2.81613 2.89256,-4.21941 l 0.23883,-0.53075 -0.95534,-0.0796 c -0.95321,-0.0849 -2.47963,-0.28129 -3.63559,-0.68996 -1.40329,-0.49572 -3.79057,-1.89157 -4.43171,-2.60065 -0.535,-0.59231 -1.1411,-1.37993 -1.1411,-1.37993 -1e-5,-1e-5 1.58586,-0.79187 2.46796,-1.45955 1.33216,-1.00735 2.28432,-2.70042 2.60064,-3.98058 0.46175,-1.8661 -0.45644,-5.24799 -1.83106,-6.84659 l -0.79612,-0.9288 1.37993,-0.90227 c 2.23761,-1.47654 4.92106,-3.05602 6.10356,-3.60906 3.08786,-1.44362 5.46666,-2.10493 7.3508,-2.89255 l 2.22912,-0.95534 c 1.15596,-0.48298 2.58897,-2.57517 2.9191,-4.24595 0.13479,-0.68254 0.2176,-1.58905 0.18576,-2.25566 z m -57.71839,39.6731 c -0.54029,0.0149 -1.0721,0.0223 -1.59223,0.0265 l -4.29903,4.29902 5.09514,5.12168 5.12168,-5.12168 -4.32556,-4.32556 z M 104.83033,206.63511 c -0.43099,0.0312 -1.47069,0.83088 -3.13138,4.59094 -0.14329,0.32481 -0.28554,0.68784 -0.45113,1.08802 l -1.00842,2.41489 1.22071,1.22071 c 0.35878,0.36515 0.40655,0.53923 0.50421,1.69838 l 1.69838,15.81616 c 0.20593,2.45841 -0.22079,6.0887 -0.53075,7.72233 l -0.5042,2.60064 c 0,-1e-5 3.38296,-4.65038 4.37863,-7.40388 0.18895,-0.52437 0.97233,-3.1887 0.9288,-4.40517 -0.0255,-0.70163 -0.0403,-0.91394 -0.15922,-2.0699 l -2.25566,-16.37345 c -0.29191,-2.10811 -0.52013,-5.49426 -0.45113,-6.74044 -0.009,-0.0757 -0.0952,-0.16965 -0.23884,-0.15923 z m 17.03688,0 -5.09514,5.09514 5.09514,5.09514 3.95404,-3.95404 3.95404,3.95404 5.09514,-5.09514 -5.09514,-5.09514 -3.95404,3.98058 z m 91.44717,0.31845 -1.64531,0.68997 c -2.54015,1.04026 -7.43678,4.44338 -11.96827,8.4919 -3.32247,2.96899 -7.63635,7.37309 -8.43883,8.65112 -0.87043,1.38419 -1.76844,4.07187 -2.44142,5.78511 -0.24308,0.61779 0.2314,1.45424 1.06148,2.12298 2.83629,2.28431 7.09648,1.83318 25.19803,-1.00842 0.39277,-0.0616 0.81841,-0.10296 1.32686,-0.13268 3.31079,-0.19002 8.31251,1.10288 8.54498,3.47637 0.0753,0.7632 0,1.96375 0,1.96375 -1e-5,-1e-5 -12.36633,0.98188 -12.36633,0.98188 -18.91147,1.48078 -22.51778,2.23549 -28.93978,-4.85631 -0.49572,-0.54667 -1.05936,-1.24937 -1.61876,-1.96375 l -2.4945,-3.18446 -2.9987,8.25306 1.32686,1.67184 c 0.53712,0.68466 1.13048,1.42558 1.67184,2.06991 l 1.59223,1.88414 -2.04336,1.75145 c -8.37833,7.19583 -9.8039,9.17125 -17.43494,7.64271 -0.35242,-0.0701 -0.70164,-0.15285 -0.98187,-0.23883 -0.15393,-0.0467 -0.27918,-0.086 -0.4246,-0.13269 l -4.90938,-1.56569 2.44142,2.73333 c 2.77579,3.1144 13.39704,4.53998 18.68219,0.26537 1.7334,-1.40115 3.28742,-3.01993 3.95404,-4.24595 0.60716,-1.11775 0.9702,-2.04336 1.24724,-2.78641 l 1.00842,-2.70679 3.05178,0.47767 c 4.53362,0.71651 10.87175,1.33217 20.64593,1.48608 13.85667,0.21655 15.23809,-0.47554 18.45758,-1.45954 l 2.0699,-0.6369 3.55599,-4.59093 c 0.11145,-0.4023 0.21972,-0.8131 0.31844,-1.22071 0.65706,-2.72909 0.0977,-6.01864 -1.19417,-8.30614 -1.65591,-2.93607 -6.80626,-4.92318 -10.53527,-4.06019 -0.95004,0.22079 -2.05398,0.52225 -3.42329,0.84919 -7.57902,1.81196 -5.23357,3.00613 -11.95597,2.46796 l -11.27831,-0.90227 c 1e-5,1e-5 3.1091,-2.68662 5.97087,-5.22782 2.56243,-2.27583 8.252,-4.9476 11.14562,-5.20129 l 1.40647,-0.13269 0.87573,-1.11456 c 0.8821,-1.13685 1.43088,-2.89149 1.75145,-4.45825 0.11784,-0.57426 0.17939,-1.1549 0.10615,-1.59223 z m -162.593378,3.52945 c 0,0 -1.152776,0.61141 -2.17605,1.40647 -1.09121,0.84707 -1.801345,1.57737 -2.255662,2.14951 l -0.583818,0.7165 0.424595,1.85761 c 0.122071,0.54349 0.277049,2.09431 0.318447,3.10485 l 0.02649,0.47767 -1.03495,0.37152 c -0.631585,0.22185 -1.541493,0.42884 -2.414885,0.79611 -2.629831,1.10926 -9.506573,8.07793 -9.367628,12.71132 0.05656,1.89156 3.220664,4.96352 4.113264,5.33397 0.611952,0.25371 2.054191,-0.087 4.219414,-0.95533 2.291752,-0.91924 5.785108,-2.2822 5.785108,-2.2822 0,1e-5 0.209113,2.92652 0.822653,4.51132 0.110394,0.28555 0.771701,0.90651 1.539157,1.53916 3.251345,2.67281 11.111653,3.37659 16.081538,1.30032 1.976499,-0.82583 3.761913,-1.99029 4.882844,-3.29061 0.74941,-0.87043 2.202587,-2.33528 2.202587,-2.33528 0,0 0.795054,2.28645 1.592231,3.47638 0.720742,1.07421 0.99886,1.51049 1.51262,1.88414 0.804599,0.58593 5.741587,1.57737 7.403877,1.48608 3.16111,-0.17197 4.891335,-0.85025 7.005818,-3.52945 1.186752,-1.50519 2.276892,-2.93395 3.104852,-4.32556 3.287427,-5.5208 1.627261,-13.70699 0.159223,-18.52296 l -1.831066,-5.9974 -4.458248,8.2796 0.769578,3.05178 c 1.084841,4.40942 2.862832,11.83771 0.636893,12.73785 -0.418226,0.16984 -0.895896,0.34711 -1.32686,0.47767 -2.295989,0.69526 -7.535501,-0.35666 -8.491901,-0.79612 -0.551974,-0.25262 -2.274768,-3.07619 -2.494496,-4.08672 -0.715452,-3.29592 -1.777992,-20.59287 -1.777992,-20.59287 -9e-6,1e-5 -0.691029,0.82372 -1.379934,1.80453 -0.989307,1.40859 -2.280076,3.77678 -2.680257,5.22783 -0.102964,0.37259 0.709074,2.1113 0.902265,5.12168 l 0.690009,11.11908 c 9e-6,0 -4.778817,1.47653 -7.828471,2.04337 -1.832128,0.34072 -5.187491,0.12631 -8.014232,-0.79612 -3.576152,-1.16658 -4.925303,-2.87132 -5.891257,-14.43623 -0.223974,-2.67919 -0.388505,-5.43588 -0.344984,-6.97928 0.05418,-1.92874 0.159224,-4.06019 0.159228,-4.06019 z m 74.649118,7.61617 c -0.39063,-0.86087 -2.14951,2.06247 -3.66213,6.05048 -0.12207,0.32163 0.85662,1.51793 1.51262,3.76828 0.37152,1.27486 0.59337,2.61444 0.55728,3.44984 -0.0319,0.71225 -0.22504,1.40222 -0.74304,1.83106 -0.75578,0.62309 -3.72795,1.06361 -5.9178,1.83107 -3.38083,1.18675 -4.14617,2.82992 -5.9974,5.70549 -2.27901,3.54112 -3.56023,5.11213 -0.63689,7.19158 2.52527,1.7971 7.78495,2.51679 11.09254,0.74304 1.70051,-0.9118 3.30123,-3.14094 3.76828,-3.05177 0.23778,0.0457 0.39275,0.66343 0.61036,1.51262 0.0924,0.3609 0.21866,0.72393 0.39806,1.06149 1.28864,2.41913 5.8541,4.71937 10.66795,5.86471 0.43627,0.10298 0.89908,0.1794 1.35339,0.23884 5.55689,0.7335 6.11205,0.0181 6.82006,0.0265 0.39488,0.005 2.21745,-2.35119 3.66214,-4.80323 0.52436,-0.89059 -3.76192,-0.62946 -6.34239,-2.89255 -1.23451,-1.08271 -2.14952,-2.09644 -2.14952,-2.09644 0,1e-5 1.66654,-0.42778 3.90097,-0.79612 0.62628,-0.10401 6.81369,-0.41291 13.2686,-0.66343 2.75455,-0.10721 6.61731,0.27387 7.64271,0.79612 0.64221,0.328 1.09439,0.59443 1.43301,0.47767 2.71103,-0.93729 4.42322,-4.26293 5.14821,-6.44854 l 0.50421,-1.53915 -1.48608,-0.37153 c -1.12305,-0.28128 -2.88619,-0.75896 -4.06019,-1.14109 -1.4797,-0.47981 -2.38623,-0.99037 -3.76829,-1.93722 -7.01219,-4.80535 -12.42789,-10.51616 -17.32878,-9.23494 l -2.25566,0.58382 -2.09644,2.75986 c -1.28121,1.70157 -2.72166,4.04427 -2.86602,4.7767 -0.11677,0.59655 -0.11889,1.17719 -0.0265,1.75145 l 0.15922,0.84919 2.89255,0.47767 c 0.54773,0.0913 0.90758,0.17303 1.22071,0.2123 l 2.60065,0.31845 2.04336,-0.92881 c 0.42991,-0.19213 0.84919,-0.4023 1.22071,-0.66343 0.90757,-0.63794 1.122,-0.63583 2.17605,0.15923 l 2.33528,1.77799 c -1e-5,0 -7.49411,1.26529 -11.51714,2.52103 -1.8385,0.57428 -3.80225,1.38312 -4.88285,2.54757 -1.47016,1.58481 -3.47637,5.12168 -3.47637,5.12168 0,-1e-5 -1.23451,-1.43725 -1.99029,-2.68025 -0.6974,-1.14747 -1.5434,-4.65781 -1.72492,-6.44854 -0.12207,-1.21327 -0.0807,-2.78322 -0.0265,-4.32556 0.10509,-2.98808 -0.95216,-8.32844 -2.17605,-10.61488 -0.91713,-1.71112 -1.8576,-3.76828 -1.8576,-3.76828 z M 46.740423,225.105 c 0,0 0.479792,2.39259 0.557281,3.84789 0.196375,3.69504 -4.406873,2.555 -7.005819,1.83107 -0.908421,-0.25265 -1.66505,-0.70165 -1.088025,-1.61877 0.116237,-0.1847 0.273236,-0.23247 1.565694,-0.58382 1.663462,-0.45218 4.301149,-1.25786 4.856307,-1.88414 0.57851,-0.65389 1.114562,-1.59223 1.114562,-1.59223 z m 78.178567,12.81746 -0.34499,2.04337 c -0.15285,0.91395 -0.22503,1.02858 -0.82265,1.27378 -0.13162,0.0541 -2.44673,0.5541 -2.65372,0.55728 -0.57426,0.01 -0.76108,-0.0149 -1.93721,-0.2123 l -2.62718,-0.42459 0.10614,-0.58382 c 0.0436,-0.26218 0.19532,-0.33543 1.64531,-0.7165 1.09864,-0.28766 2.75244,-0.656 3.37022,-0.37152 0.32907,0.1518 0.38108,0.35029 0.92881,0.13268 0.83539,-0.33224 2.33527,-1.69838 2.33527,-1.69838 z m 146.02186,6.44854 -5.09514,5.09514 5.09514,5.09514 3.95404,-3.95404 3.95404,3.95404 5.09515,-5.09514 -5.09515,-5.09514 -3.95404,3.95404 z" />
  <text
	 id="deathmuslim"
     style="font-size:40.76112747px;text-align:center;stroke:#000000;stroke-width:0.84919018;font-family:jawi"
     x="52.601727"
     y="292.43127"
     dx="0 4.7896876 2.5369997 1.9027498 128.90591 5.0739999">138319</text>
  <path
     id="muslimMonthGlyph"
     d="m 209.19071,261.61485 c -0.21649,0.28124 -0.43406,0.59855 -0.62296,0.91375 -0.69194,1.1557 -1.46665,3.83856 -1.48894,5.15452 -0.0753,4.43499 0.38524,15.93159 0.87978,19.3414 l 0.54549,3.75898 1.55049,-3.59873 c 0.30671,-0.70998 0.60705,-1.57065 0.82142,-2.35492 1.80414,-6.60314 1.96226,-13.44719 -0.0881,-22.03382 l -0.59324,-2.48971 -1.00395,1.30853 z m -15.41051,-1.30853 c 0,0 -1.61523,1.15677 -2.52897,2.09705 -0.92223,0.95088 -1.32339,2.44089 -1.32339,3.96167 0,1.15146 0.537,2.66164 1.1971,3.41194 l 1.31171,1.49425 0.37887,2.47379 c 0.46802,3.0596 1.17906,7.8915 1.65132,11.18458 l 0.62614,4.36283 -2.27427,0.80761 c -3.12116,1.10796 -9.36029,1.40404 -12.387,0.85008 -5.94091,-1.08673 -5.9303,-9.2287 -6.1192,-8.99841 -0.28336,0.34597 -0.56459,0.7864 -0.80443,1.19923 -2.47379,4.26625 -2.40269,11.10711 -0.10189,13.69764 2.50563,2.82082 7.78326,4.32462 12.0007,3.17422 3.71334,-1.0135 8.77128,-3.37586 10.5022,-5.88361 1.4847,-2.15117 3.11585,-9.5131 3.15405,-10.3186 0.0838,-1.74577 -0.7206,-6.20093 -1.5091,-8.89969 -0.0711,-0.2441 -0.13373,-0.52851 -0.18891,-0.8384 l -0.63675,-3.59766 1.37326,-2.88874 c 0.23135,-0.48818 0.47332,-0.95619 0.69513,-1.36478 l 0.62402,-1.15358 -1.33294,-0.55823 c -0.97424,-0.40752 -2.34114,-1.01562 -3.27929,-2.39526 -0.58369,-0.85643 -1.02836,-1.81793 -1.02836,-1.81793 z m 40.12187,30.55571 6.44078,0.21968 c 2.38358,0.0807 5.92393,-0.35553 7.00217,-0.90843 l 1.88692,-0.96682 2.53958,0.69089 c 0.87554,0.23772 1.95378,0.54124 3.47774,0.77259 1.71499,0.26107 4.53687,-0.0191 6.08525,-0.67602 0.70786,-0.29927 1.39236,-0.72484 2.00471,-1.10477 l 1.74259,-1.07717 2.14586,0.93284 c 1.49424,0.64843 3.42786,1.55368 4.79051,1.92512 3.0925,0.84264 5.05794,-2.62236 6.85253,-6.22321 0.4054,-0.81505 0.79064,-1.78079 0.71847,-2.68179 -0.0849,-1.06126 -0.57413,-2.52579 -0.57413,-2.52579 0,0 -1.06551,0.64099 -1.82113,1.13767 -0.79487,0.52213 -1.24697,0.88402 -1.72029,1.48045 -0.34916,0.44041 -1.94529,0.46907 -3.26336,0.0191 l -1.72455,-0.59006 0.54336,-3.47455 c 0.34703,-2.21803 -4.54429,5.14391 -8.51339,5.90696 -1.89753,0.364 -4.13996,0.29184 -4.76398,-0.433 -0.23985,-0.27911 -0.2112,-0.70149 -0.0297,-1.29048 0.36932,-1.19498 0.94452,-2.42392 0.75561,-2.93969 0.0637,0.17299 -5.57372,4.40103 -8.91137,4.45728 l -7.23989,0.45422 -9.59908,-0.56034 c -0.23347,-0.63145 -0.49136,-1.28201 -0.76728,-1.96121 -0.45953,-1.13236 -1.24486,-2.53109 -2.06839,-3.19332 -1.2682,-1.01987 -3.47243,-2.05035 -3.47243,-2.05035 0,0 -3.49578,4.00307 -5.40074,6.74322 -3.03201,4.36284 -4.07416,9.2478 0.49136,11.21325 0.75456,0.32474 2.41861,0.32474 3.08826,0 0.84051,-0.40859 3.11054,-2.46743 3.75473,-2.05247 0.30776,0.19845 0.22286,0.98378 0,1.71393 -0.0998,0.3258 -0.47544,0.90101 -0.9424,1.50273 -2.09492,2.69984 -6.79841,5.98019 -9.4611,6.5331 -0.54337,0.1125 -1.10265,0.20058 -1.61312,0.27805 -1.37433,0.21119 -1.67997,0.22393 -3.06172,0.12841 l -5.95472,-0.40752 c -2.90784,-0.19951 -0.17722,1.46772 5.91864,3.45863 0.61765,0.20165 1.14509,0.44149 1.76592,0.64631 1.39662,0.46059 5.93561,0.78957 7.09027,0.51258 3.3663,-0.80442 9.67017,-8.62164 11.13152,-12.8274 0.34172,-0.98061 0.56034,-1.89965 0.67601,-2.78262 z m -5.67135,-4.09964 c 0.27911,0.29397 0.25576,1.21514 0,1.61948 -0.82035,1.29155 -5.80083,-1.83703 -6.57449,-3.0352 -0.46589,-0.72058 -0.33429,-1.37644 0.71317,-1.8158 1.21196,-0.50834 4.03489,1.31489 5.86132,3.23152 z m 35.80893,-26.45607 -4.51565,4.51565 4.51565,4.51565 4.51565,-4.51459 -4.51565,-4.51671 z m 0,11.16655 -3.09462,-3.09463 -4.51566,4.51565 4.51672,4.51671 3.09356,-3.09462 3.09462,3.09462 4.51565,-4.51565 -4.51671,-4.51671 -3.09356,3.09463 z"
     style="fill:#000000;stroke:none" />
  <path
     id="equals"
     d="m 179.83154,335.87261 c -0.54561,-0.1762 -1.05087,-0.35984 -1.51687,-0.54878 -1.79497,-0.72819 -3.57403,-1.55615 -3.99756,-2.00728 -0.50314,-0.53711 -0.95109,-2.13465 -1.05618,-3.57721 -0.29085,-4.01667 0.006,-9.05343 -0.47236,-13.30575 -0.40231,-3.56235 -1.43407,-5.5537 -2.24611,-6.49949 l -0.67723,-0.78762 -3.31078,6.3063 0.90757,2.05716 c 0.33013,0.74729 0.72182,1.54552 1.0116,2.31298 1.92236,5.0909 0.13163,7.5355 0.2537,14.78652 0.0786,4.6663 1.17294,6.46022 5.02508,8.22016 4.47205,2.04231 9.23919,-2.31616 12.72193,-0.20911 0.51907,0.3142 0.95852,0.63371 1.22814,0.87679 0.57427,0.52013 1.04344,1.00311 1.44575,1.41284 l 1.63787,1.66972 1.28334,-0.47555 c 1.26211,-0.46599 2.56137,-1.94358 3.28955,-3.82135 l 0.49253,-1.27273 -0.56471,-0.91606 c -0.23247,-0.37683 -0.5456,-0.78232 -0.89271,-1.15384 -2.17817,-2.33102 -5.5622,-5.09726 -3.75236,-6.11523 3.58464,-2.01682 3.5804,-0.41398 6.02713,3.80225 1.53809,2.64841 3.33095,3.26938 6.59608,2.53908 1.06892,-0.23883 2.18242,-0.62203 2.95094,-1.15065 0.14754,-0.1019 0.28341,-0.20912 0.41079,-0.31633 l 1.44681,-1.2154 3.66319,1.04451 c 0.88422,0.25157 1.78543,0.52331 2.54545,0.74728 2.22276,0.65812 4.67692,0.23778 6.48569,-0.80779 0.94048,-0.54348 4.56652,-4.78094 4.81703,-5.62907 0.21124,-0.71438 -0.16877,-2.96898 -0.93517,-4.51663 l -1.08484,-2.19197 -4.3245,3.74068 -0.0881,2.30555 c -0.0712,1.87671 -4.89664,0.82266 -4.82659,0.16878 l 0.0966,-0.90545 c 0.0456,-0.4299 0.087,-0.93517 0.0828,-1.33004 -0.003,-0.23353 -0.0297,-0.45644 -0.0796,-0.65282 -0.18152,-0.71969 -0.37152,-1.22814 -0.56896,-1.56569 -0.86405,-1.4691 0.23671,3.11016 -6.32965,5.9093 -1.44363,0.61566 -3.29911,0.37364 -4.54317,-0.57108 -0.46599,-0.35348 -0.82371,-0.82584 -1.14747,-1.3863 -2.03487,-3.51777 -2.82886,-5.86366 -6.21713,-5.28409 -1.00205,0.1709 -4.27355,2.03912 -5.08134,2.90105 -1.32792,1.41708 -2.64948,3.5114 -3.63878,4.77244 l -0.92456,1.17826 c 0,0 -1.94252,0.54985 -1.94252,0.54985 -1.13792,0.32269 -2.60489,0.63052 -4.20031,0.91181 z m 63.19036,-3.52838 c 0,0 -2.30555,0.25369 -3.64515,0.0828 -0.78656,-0.0998 -2.21638,-0.68679 -2.93289,-1.18993 l -4.42746,-3.10485 -3.10804,9.20946 3.78845,3.68973 -2.58048,1.61134 c -3.66744,2.28963 -10.90784,5.10788 -13.20172,5.20978 -2.64098,0.11677 -8.58,-0.83114 -8.58,-0.83114 0,0 1.32473,1.38312 2.13677,1.9818 0.27917,0.20486 0.4989,0.31844 0.69528,0.45856 1.00841,0.71544 1.44468,2.13996 2.40745,2.89149 1.28334,1.00099 7.27862,0.35029 9.76887,-0.42884 3.18871,-0.9978 9.06086,-5.25436 12.09353,-7.98451 l 4.15148,-3.7375 0.77064,-0.35984 c 0.81204,-0.37895 1.968,-0.79612 3.7375,-1.30882 0.57532,-0.16665 1.26317,-0.4161 2.0975,-0.79187 0.27598,-0.12419 0.53393,-0.25263 0.76002,-0.38532 2.01046,-1.18143 3.6961,-4.63339 3.67381,-6.29249 -0.0127,-0.92987 -0.26325,-2.09007 -0.64963,-3.18553 l -2.08582,-5.91142 -5.70125,8.79867 0.83114,1.57843 z m 0.78869,17.56337 5.04525,-5.04206 -5.04525,-5.04313 -5.04525,5.04313 5.04525,5.04206 z m -80.51703,-32.70549 c 0.14436,-0.97233 -0.0987,-1.34703 -1.11775,-1.84275 -0.89058,-0.43308 -2.34482,-1.02008 -3.21206,-1.36295 -0.23034,-0.0902 -0.29403,-0.40973 -0.20168,-0.76321 1.13155,-4.3383 1.2292,-4.28097 0.65918,-3.95298 -0.36939,0.2123 -0.75365,0.44052 -1.05618,0.64114 -2.56455,1.70051 -5.48152,7.0918 -4.91575,8.46961 0.20593,0.50103 0.91501,1.22708 1.97437,1.77163 l 1.49351,0.76745 c 0.41292,0.2123 -0.0255,3.9498 0.38108,4.11433 0.26749,0.10827 0.93199,-0.50739 2.39365,-2.52422 0,0 2.63568,-3.63984 2.63568,-3.63984 0.81204,-1.12199 0.90863,-1.28971 0.96595,-1.67821 z m -11.28467,14.46171 5.04525,-5.04207 -5.04525,-5.04313 -5.04526,5.04313 5.04526,5.04207 z m 8.79018,10.76348 c 2.73545,-3.33095 4.73211,-7.73294 4.36802,-8.89208 l -2.92016,-9.2912 -4.61853,9.7073 c 0,0 0.66874,1.31731 1.18144,2.4117 l 1.25149,2.67601 -1.08059,0.6284 c -0.33543,0.19426 -0.82902,0.33756 -1.49564,0.52119 -3.85214,1.06043 -7.86668,0.79824 -10.84203,-2.29493 -1.09758,-1.1411 -2.25673,-2.40003 -2.77367,-3.73432 -0.7388,-1.90855 1.04663,-5.37431 0.21654,-4.81172 -0.36727,0.24839 -0.73879,0.81841 -0.89165,1.10713 -2.85858,5.37537 -5.01871,10.72315 0.0202,14.11036 0.18895,0.12738 0.38957,0.25369 0.59762,0.37683 5.11106,3.03691 13.56581,1.65061 16.98699,-2.51467 z"
     style="fill:#ff0000;stroke:none" />
  <path
     id="circle"
     style="fill:none;stroke:none"
     d="m 74.324071,340.61518 c 49.456819,67.92411 144.722499,82.91207 212.646609,33.45525 67.92411,-49.45682 82.91205,-144.7225 33.45525,-212.64662 C 270.9691,93.499703 175.70342,78.511752 107.7793,127.96857 39.855199,177.42538 24.867257,272.69107 74.324071,340.61518 z" />
  <text
     style="font-size:40px;text-align:center;stroke:#000000;font-family:jawi">
    <textPath
       dx="20.292963"
       xlink:href="#circle"
       id="death">3.3.1964</textPath>
  </text>
</svg>
