<?xml version="1.0" encoding="UTF-8" standalone="no"?>
<!-- Created with sK1/UniConvertor (http://sk1project.org/) -->
<svg
   xmlns:dc="http://purl.org/dc/elements/1.1/"
   xmlns:cc="http://creativecommons.org/ns#"
   xmlns:rdf="http://www.w3.org/1999/02/22-rdf-syntax-ns#"
   xmlns:svg="http://www.w3.org/2000/svg"
   xmlns="http://www.w3.org/2000/svg"
   xmlns:xlink="http://www.w3.org/1999/xlink"
   xmlns:sodipodi="http://sodipodi.sourceforge.net/DTD/sodipodi-0.dtd"
   xmlns:inkscape="http://www.inkscape.org/namespaces/inkscape"
   version="1.0"
   id="svg2"
   sodipodi:version="0.32"
   inkscape:version="0.46"
   width="630"
   height="630"
   sodipodi:docname="yahya bin che mat2.svg"
   inkscape:output_extension="org.inkscape.output.svg.inkscape">
  <metadata
     id="metadata79">
    <rdf:RDF>
      <cc:Work
         rdf:about="">
        <dc:format>image/svg+xml</dc:format>
        <dc:type
           rdf:resource="http://purl.org/dc/dcmitype/StillImage" />
      </cc:Work>
    </rdf:RDF>
  </metadata>
  <defs
     id="defs77">
    <inkscape:perspective
       sodipodi:type="inkscape:persp3d"
       inkscape:vp_x="0 : 526.18109 : 1"
       inkscape:vp_y="0 : 1000 : 0"
       inkscape:vp_z="744.09448 : 526.18109 : 1"
       inkscape:persp3d-origin="372.04724 : 350.78739 : 1"
       id="perspective81" />
  </defs>
  <sodipodi:namedview
     inkscape:window-height="637"
     inkscape:window-width="728"
     inkscape:pageshadow="2"
     inkscape:pageopacity="0.0"
     guidetolerance="10.0"
     gridtolerance="10.0"
     objecttolerance="10.0"
     borderopacity="1.0"
     bordercolor="#666666"
     pagecolor="#ffffff"
     id="base"
     showgrid="false"
     units="in"
     inkscape:zoom="0.73333333"
     inkscape:cx="315"
     inkscape:cy="315"
     inkscape:window-x="110"
     inkscape:window-y="97"
     inkscape:current-layer="svg2"
     showguides="false">
    <inkscape:grid
       type="xygrid"
       id="grid3356"
       visible="true"
       enabled="true" />
  </sodipodi:namedview>
  <path
     id="frame"
     d="M 480.9525,502.025 C 506.2825,476.3575 522.4175,443.6525 532.27125,407.015 C 537.0225,389.77875 539.27125,374.52875 539.7275,356.43125 L 540,165.77875 C 539.74,157.84125 538.885,151.15875 537.145,143.47875 C 535.44875,134.27125 531.07625,127.14125 524.15125,122.29125 C 515.79375,117.9275 508.04375,115.95 498.88625,115.84625 C 487.97,115.58375 478.72375,116.4775 467.9925,118.83 C 467.85125,100.26875 453.3625,89.17125 439.22,88.24875 C 414.99125,86.20125 394.65,82.36125 371.105,75.3925 C 362.78375,72.92875 355.85125,70.405 347.805,66.91 C 338.13125,63.1625 330.1025,58.3325 322.335,51.50375 L 314.935,45 L 308.445,50.80625 C 301.83625,56.71875 295.08875,61.06125 286.9425,64.7125 C 279.0175,68.48625 272.15625,71.2 263.8975,73.8275 C 239.16625,81.615 217.72875,85.88 192.18125,88.095 C 183.0125,88.22 175.225,92.0525 168.75375,99.62625 C 164.29,104.995 162.055,111.35625 162.0075,118.8325 C 146.92125,115.52375 122.24425,112.895 105.97338,122.22 C 99.53825,126.45875 95.356375,132.785 93.479125,141.12 C 91.29575,149.5625 90.24925,156.985 90,165.79875 L 90.27375,356.43125 C 90.6485,372.77625 92.527625,386.5525 96.52025,402.22625 C 101.8115,424.03375 108.51825,441.75 118.77075,461.00375 C 134.98625,491.12125 155.09625,512.11625 182.55375,527.5925 C 210.04,541.505 233.72875,551.96625 262.22375,562.7725 C 270.3675,565.61875 277.2,568.19125 285.235,571.43375 C 292.78625,574.3525 299.32375,577.3075 306.17,580.92625 L 313.87625,585 L 322.19875,581.11625 C 337.46625,573.995 351.4225,568.39 367.7775,562.7725 C 396.26875,551.96625 419.95625,541.5075 447.44,527.59625 C 460.27125,520.6925 470.38875,512.9725 480.9525,502.025 z M 506.76,457.76 C 492.86125,483.82375 470.39125,509.54625 444.945,522.8075 C 419.285,535.89625 392.915,547.54125 365.9575,557.6875 C 350.28125,563.01875 334.91,569.2075 319.91375,576.225 L 314.02625,578.97125 L 308.69375,576.1525 C 301.73625,572.475 294.5625,569.22125 287.21375,566.40875 C 279.57,563.3125 271.85,560.4075 264.0625,557.695 C 237.11125,547.55125 210.7475,535.91 185.09375,522.82625 C 171.29375,515.14625 158.8125,505.30625 148.12375,493.68 C 138.54125,482.9625 130.2825,471.13125 123.52513,458.4425 C 113.774,440.3375 106.46163,421.02125 101.77838,400.99625 L 101.746,400.86625 C 97.962,386.3325 95.9235,371.39875 95.673625,356.3825 L 95.400125,165.855 C 95.577,157.96625 96.684625,150.1275 98.7,142.5 L 98.7615,142.24125 C 99.4645,138.92875 100.77763,135.775 102.63412,132.94375 C 104.2585,130.53375 106.33837,128.46375 108.75675,126.8525 C 112.7045,124.715 116.96587,123.2175 121.3825,122.41375 C 125.61375,121.62625 129.9075,121.2175 134.21125,121.19125 C 141.75125,121.17875 149.2725,121.86875 156.67875,123.2525 L 166.545,125.095 L 167.53625,115.87625 C 168.8475,103.68625 179.66125,93.55875 192.20875,93.495 C 192.345,93.495 192.4825,93.48875 192.61875,93.4775 C 217.40125,91.4625 241.86875,86.595 265.535,78.9725 C 273.6375,76.42375 281.54625,73.2975 289.20125,69.6175 C 300.11375,64.59125 305.6975,60.51125 314.9675,52.2175 L 318.76,55.55125 C 326.69625,62.595 335.845,68.1375 345.7625,71.91125 C 353.50375,75.3 361.45375,78.19125 369.56375,80.56875 C 392.10625,87.3875 415.315,91.76625 438.7925,93.6325 C 445.73625,94.16375 452.22,97.24 456.77,102.57875 C 459.2275,105.505 460.95875,108.935 461.865,112.59125 L 464.89875,124.8425 L 473.16125,123.2675 C 481.57875,121.665 490.15,120.985 498.72375,121.24375 L 498.875,121.24625 C 506.7025,121.2625 514.405,123.2025 521.3075,126.89375 C 524.22125,128.96875 526.6475,131.65625 528.41625,134.76625 C 530.085,137.76375 531.2375,141.0225 531.825,144.40375 C 531.8425,144.5025 531.8625,144.6 531.885,144.69625 C 533.49125,151.64 534.4,158.725 534.6,165.84875 L 534.3275,356.37875 C 534.02125,373.01125 531.58375,389.5375 527.07375,405.55125 C 527.07375,405.55125 527.04625,405.65125 527.04625,405.65125 C 522.325,423.74875 515.5175,441.235 506.76,457.76 z"
     style="fill:#ff0000;stroke:none" />
  <path
     id="alfatihah"
     d="M 377.9975,140.85625 C 378.09875,141.49875 378.175,142.5225 377.9975,143.46375 C 377.86625,144.155 375.80625,146.75625 375.3475,146.81125 C 374.0525,146.9625 370.90625,145.39875 369.14875,143.7575 C 367.89,142.5825 366.58875,141.12625 366.22625,140.645 C 365.67375,139.91375 365.3575,139.2825 365.24125,138.685 C 364.74375,136.1525 368.01625,131.305 370.905,129.45125 C 371.5,129.07 372.14875,129.1575 373.12875,129.93625 C 375.8775,132.1225 377.24875,136.14 377.9975,140.85625 z M 284.06,150.28375 C 276.4025,149.44625 269.42375,148.52875 263.60875,147.68625 C 262.83125,147.57375 262.0325,147.45125 261.22875,147.32125 C 252.35375,145.88375 240.6325,142.15375 237.68375,139.8375 C 233.65125,136.67125 230.9075,131.9625 230.27625,127.15125 C 229.7225,122.92375 230.23875,110.27375 229.81,106.71125 C 229.31375,102.58125 228.16875,99.21375 227.64125,97.80875 L 227.37,97.0875 L 226.89,97.58875 C 223.63125,100.98625 222.72375,103.59875 222.4475,105.0175 C 222.34,105.565 223.33625,104.92875 225.815,119.37875 C 226.0775,120.90875 226.2575,122.19375 226.28,122.86375 C 226.84625,140.04375 225.46,147.43875 238.27875,152.435 C 240.57,153.3275 243.08875,154.145 245.8,154.8925 C 261.30875,159.1675 294.3325,162.1275 314.11,161.84875 C 327.9575,161.65375 339.8725,160.88375 347.0025,159.895 C 348.685,159.66125 350.91625,159.235 353.21,158.735 C 357.29625,157.84125 364.0475,155.64 367.0225,154.21625 L 367.6975,153.89375 L 369.4825,154.2125 C 371.89125,154.64375 376.365,155.92625 379.48875,156.40625 C 383.11,156.965 391.93875,155.9075 394.9375,154.3725 C 396.10125,153.77625 398.36625,151.61875 398.90625,150.5925 L 400.70375,147.17 L 400.72125,147.1375 L 400.97875,146.85625 C 402.29375,145.415 404.2125,143.4975 404.46125,141.175 C 404.53125,140.51375 404.52375,139.83375 404.46125,139.08125 C 404.0675,134.3475 402.88625,124.17 402.23375,121.49 C 401.835,119.85 401.47375,116.94625 401.48875,115.6925 L 401.51375,113.6575 L 403.745,110.07375 L 405.17,107.7825 L 403.975,106.9975 C 395.25125,101.2625 395.675,96.2225 395.38125,96.58125 C 395.2225,96.77375 395.06625,96.97125 394.915,97.1725 C 394.5375,97.67625 393.86,99.00875 393.105,100.60875 C 391.06125,104.94125 392.06625,110.46 395.2,111.96875 L 396.845,112.76 C 396.845,112.76 395.025,116.17625 394.4175,118.03 C 394.1825,118.7475 394.13,119.23125 394.12625,119.85 C 394.1225,120.685 394.15,120.94875 394.40125,122.49375 L 397.36125,145.58375 L 397.4825,146.5375 L 387.2575,146.49125 L 378.32625,145.6275 L 383.6625,137.87875 C 384.6475,135.87875 386.1125,132.02 386.08875,131.265 C 386.05875,130.31125 382.71,121.9 379.59375,119.48875 C 376.23125,116.88625 374.455,119.54375 370.865,124.43 C 367.8975,128.46875 362.2275,137.595 361.07625,144.18625 C 360.93375,145.00375 360.84875,145.92125 360.87875,146.8175 L 360.955,149.0875 L 359.09625,149.5475 C 353.7775,150.86625 347.775,151.76875 341.35375,152.34125 C 330.8625,153.27625 302.03,152.24875 284.06,150.28375 z M 264.98375,127.94125 C 264.98375,127.94125 263.08375,128.25125 261.2925,127.94125 C 259.5025,127.6325 257.82,126.7025 257.82,126.7025 C 257.82,126.7025 262.905,123.3025 264.28375,122.41 C 264.6025,122.205 264.69,122.60875 264.7525,124.5575 C 264.79625,125.90875 264.98375,127.94125 264.98375,127.94125 z M 285.88125,136.00875 C 280.95125,135.40125 275.6325,134.35 274.06,133.19125 C 273.285,132.62 271.755,129.95875 271.04,127.94125 C 270.82875,127.34375 270.60375,126.70375 270.5475,126.0525 C 270.4725,125.17375 270.46,124.905 270.435,123.35875 L 270.145,106.09375 C 270.145,106.09375 268.50625,107.63875 266.69875,109.36125 C 264.9525,111.02375 263.9075,112.115 263.34875,112.995 L 262.525,114.29375 L 263.1,115.92125 C 263.32125,116.54875 263.57,117.36375 263.83625,118.42875 C 263.9175,118.7525 263.9575,119 263.84625,119.13625 C 263.01125,120.15375 254.20375,124.38625 252.52,125.91125 C 250.38,127.84875 245.585,134.37625 245.585,134.37625 C 245.585,134.37625 247.39125,135.51375 248.835,136.24875 C 251.46125,137.58625 257.8525,138.69 259.79375,136.82125 C 260.70875,135.94 261.335,135.045 261.85375,134.34625 L 264.70625,131.26375 L 265.09,133.965 C 265.30375,135.47375 265.83625,137.165 266.53125,138.72625 C 270.8,148.32 286.00375,147.49625 308.50875,145.05625 C 313.00125,144.56875 318.4875,143.97625 324.76,143.30875 L 328.09875,142.9525 L 328.4625,143.1275 C 332.6375,143.26875 335.84875,143.505 337.265,143.5775 C 339.60875,143.69875 342.74625,144.14625 345.14125,144.1375 L 347.59375,144.12875 L 348.30375,143.365 C 349.56625,142.0075 352.76875,137.37375 353.92125,135.275 L 354.8225,133.63375 L 354.12125,133.49875 C 353.19125,133.32125 350.83125,133.03875 349.415,132.9325 L 348.48,132.8625 L 345.115,131.1775 C 344.8875,131.06375 344.6575,130.9475 344.425,130.83 C 342.5825,129.89125 336.21,125.80625 331.5275,122.57125 C 330.75625,122.03875 330.13125,121.5525 330.13125,121.5525 L 330.3025,121.3775 C 330.895,120.775 332.9275,118.71875 334.79,117 C 336.725,115.2125 338.58125,113.315 339.81625,111.89625 C 340.63,114.2 341.63875,116.79375 342.58,118.9325 C 343.06625,120.04 343.5325,121.17 343.89375,122.06625 L 345.0975,125.05375 L 346.335,122.43875 C 347.76125,119.425 349.28125,112.53625 346.53625,99.55375 L 345.76,95.88 L 345.63875,95.8475 C 343.77625,99.76375 341.34375,103.35625 338.4475,106.5175 L 338.24625,106.735 C 334.25,111.0375 329.3875,114.52625 323.93875,116.92375 L 323.77125,116.80625 L 322.35375,116.3575 C 320.83375,115.87625 318.33,115.28 317.25625,115.13625 C 316.88875,115.0875 316.54625,115.04625 316.24,115.01875 L 314.83625,114.89 L 313.85375,116.02375 C 312.71,117.3425 311.05,119.7325 310.00375,121.67125 C 309.5775,122.4625 309.20875,123.13625 308.915,123.70875 L 308.06875,125.3575 C 308,125.49375 311.83875,125.99125 315.3925,127.56625 C 317.71125,128.59375 320.60625,130.38375 324.1625,133.4125 C 324.49125,133.6925 322.025,134.11 317.92875,134.55375 C 306.31625,135.8125 290.235,136.54625 285.88125,136.00875 z M 363.365,103.475 L 355.235,111.605 L 363.3625,119.7325 L 371.4925,111.60375 L 363.365,103.475 z M 249.4075,108.39125 L 255.415,114.39875 L 264.32875,105.48625 L 255.40375,96.5625 L 249.39625,102.57 L 243.3875,96.5625 L 234.47375,105.475 L 243.39875,114.39875 L 249.4075,108.39125 z M 321.37125,95.54375 L 327.37875,101.55875 L 336.29125,92.63625 L 327.3675,83.7025 L 321.36,89.7175 L 315.3525,83.7025 L 306.44,92.625 L 315.36375,101.55875 L 321.37125,95.54375 z M 277.31,121.93125 C 277.3475,122.0075 277.98375,121.92375 278.77625,121.775 C 283.12125,120.9575 290.22125,117.075 292.72125,114.30625 C 294.89625,111.89875 297.765,107.98375 299.445,105.12375 C 300.8175,102.7875 301.9775,100.0875 302.32875,98.54375 C 303.19625,94.72875 303.09125,95.07625 300.675,98.86125 C 300.385,99.315 300.0575,99.83125 299.695,100.38625 C 298.90375,101.59625 297.7325,103.04625 296.54875,104.335 C 293.83625,107.2925 287.30625,111.115 283.60625,111.77375 L 281.9725,112.065 L 281.76875,112.82 C 281.17125,115.0425 279.68625,118.44375 278.76375,119.74125 C 277.87125,120.9975 277.1875,121.67625 277.31,121.93125 z M 417.1525,101.865 C 417.175,99.795 417.20625,98.42125 417.20625,98.42125 C 417.20625,98.42125 415.36625,101.795 414.17,104.43125 C 411.16875,111.0425 411.34875,109.22125 411.8075,116.5325 C 411.89,117.84 412.02125,119.4 412.19,121.1375 L 412.17875,121.1375 C 412.2025,121.34625 412.2275,121.55625 412.2525,121.76625 C 412.3875,123.1175 412.5425,124.56625 412.7125,126.07875 L 412.77125,126.07875 C 413.5475,132.44875 414.3175,138.71875 414.4525,143.7425 C 414.62375,150.0875 414.4525,157.5825 414.4525,157.5825 C 414.4525,157.5825 416.2925,154.20875 417.49,151.5725 C 420.49125,144.9625 420.31,137.99375 419.85125,130.6825 C 419.78625,129.6475 419.69125,128.455 419.57,127.14125 C 418.3775,114.18 417.1475,102.2925 417.1525,101.865 z"
     style="fill:#ff0000;stroke:none" />
  <path
     id="jawi"
     d="M 439.965,256.40875 C 439.57125,256.79 439.125,257.2075 438.68125,257.5975 C 428.16375,266.83 397.07625,270.105 385.6225,271.42125 C 372.5675,272.92 359.02375,271.26625 347.30625,268.215 C 337.80875,267.66 320.14875,256.18375 312.5975,250.8575 L 300.1925,242.1075 L 308.1775,252.6875 C 312.915,258.96625 322.91,268.8025 324.6075,269.96875 C 327.3875,271.88125 327.59375,272.0225 327.59375,272.0225 C 328.60125,272.715 329.61,273.3575 330.68625,273.92875 C 333.705,275.53 350.03375,281.25 351.15125,281.55375 C 360.37125,284.05875 372.78875,284.025 384.2925,282.935 C 392.95125,282.11375 433.36875,274.63125 439.6925,266.50625 C 439.78625,266.385 439.87375,266.25875 439.95375,266.1225 C 440.54,265.13375 440.8225,263.69375 441.34,262.4025 C 442.23125,260.17375 443.82125,258.38625 444.97625,256.11375 C 445.1,255.86875 445.22,255.61875 445.33375,255.36375 L 446.48,254.73875 C 447.02625,252.91375 447.41375,251.07375 447.72875,249.5375 C 448.4725,245.915 445.7475,244.6175 440.60375,241.01875 C 440.04,240.625 439.50375,240.25 438.87625,240.0175 C 438.03125,239.70375 437.74875,239.6625 436.055,239.60375 L 430.60875,239.41375 C 430.60875,239.41375 430.52625,238.545 430.66125,237.9075 C 430.84625,237.02875 432.45625,236.18375 433.8775,235.75875 C 438.2925,234.4375 444.905,231.30625 448.735,231.25125 C 450.215,231.23 451.83375,231.36 451.83375,231.36 C 451.83375,231.36 452.51125,240.135 453.3575,244.605 C 454.18375,248.97125 455.94875,250.31 460.3425,251.445 C 462.75375,252.06875 465.23375,252.59375 467.83875,252.65 C 472.46125,252.75 477.47875,251.375 482.085,251.2625 C 492.88125,250.9975 495.26125,253.02625 502.48875,246.1075 C 506.97125,241.81375 509.69,236.255 509.43375,230.85875 C 509.3275,228.61625 505.9425,218.76 505.065,218.14125 C 503.5175,217.04875 499.1925,221.37125 497.68,225.62375 C 497.38875,226.4425 497.355,227.15125 497.58625,228.30875 C 498.2525,231.6425 501.115,238.70375 501.115,238.70375 C 501.115,238.70375 490.115,240.67125 483.3025,241.5675 C 474.84125,242.68125 464.28,243.23125 461.1275,237.96625 C 459.46875,235.19625 458.13375,231.385 459.20125,230.1475 C 460.34,228.8275 466.97,227.685 470.34625,227.60875 C 473.94875,227.5275 479.48625,227.9275 479.48625,227.9275 C 479.48625,227.9275 480.63375,223.9375 481.7975,221.72625 C 482.83625,219.7525 483.88875,219.19625 484.52,216.94 C 484.69625,216.31125 484.84,215.55125 484.84,215.55125 L 484.2125,215.52875 L 484.23375,214.90125 L 477.06,215.14875 C 475.365,215.20625 475.0575,215.19125 473.9775,214.99125 C 471.405,214.51625 465.1225,210.3175 464.92625,210.14375 C 457.465,203.56375 458.86125,200.025 448.26875,201.08125 C 444.6825,201.43875 438.085,203.64125 435.82625,206.92875 C 434.7825,208.4475 433.24,213.69875 432.6825,215.99125 C 432.24625,217.7875 431.91625,219.9525 432.5425,220.00625 C 432.73875,220.02375 433.01875,219.89 433.17,220.02875 C 433.26,220.11125 433.305,220.29125 433.4,220.42125 C 433.62625,220.72625 434.13375,220.74375 434.65375,220.70875 C 436.78875,220.56375 440.07125,219.0525 442.735,217.615 C 445.77125,215.975 449.93625,213.48875 452.42625,214.41875 C 453.93875,214.98375 454.31125,215.88875 453.8575,217.1225 C 453.7025,217.5425 453.50375,217.63625 451.86,218.0575 C 438.79,221.40375 430.0475,224.36375 419.87,232.12875 C 415.3925,235.54375 414.11,238.80875 413.44875,245.09625 C 412.90625,250.2525 416.44375,252.21125 422.4725,252.95 C 426.87625,253.49 432.43375,251.45875 436.39,253.75 C 437.5775,254.4375 438.97,255.5575 439.965,256.40875 z M 290.52875,196.8575 L 290.47125,198.53125 C 290.47125,198.53125 291.2425,198.58375 291.97625,198.58375 C 293.795,198.5825 311.83625,188.68625 315.30625,186.4025 C 318.41375,184.35875 319.83875,181.33625 320.74125,177.22375 C 321.775,172.50875 319.91,171.08875 314.82,170.48375 C 309.32,169.83 304.84375,170.975 304.43125,176.52875 C 304.33375,177.84 304.32625,179.54 304.32625,179.54 C 304.32625,179.54 306.39625,179.91125 307.89,179.665 C 309.84,179.3425 310.80875,177.9675 311.9325,177.6075 C 312.70625,177.35875 316.2675,177.53 316.665,178.35375 C 316.77,178.56875 316.69125,178.83875 316.6425,179.07625 C 316.5775,179.39625 316.43125,179.56 315.17875,180.7075 C 310.16375,185.30625 295.68625,194.24125 291.47125,195.82625 C 291.2725,195.90125 291.07875,195.97125 290.87,195.99125 C 290.59,196.01875 290.55625,196.105 290.52875,196.8575 z M 378.74625,231.0825 C 378.86875,231.73 378.80125,232.7125 378.65375,233.7175 C 377.91375,238.76875 375.1475,244.37625 374.3875,247.95375 C 374.2475,248.61 374.17625,249.1975 374.3325,249.5225 C 374.55125,249.97875 375.21875,249.92 375.83875,249.575 C 376.63375,249.13375 381.63875,233.08125 381.9225,230.0625 C 382.5475,223.41375 381.865,219.3425 378.1025,213.5325 C 376.31,210.765 374.9975,208.93375 373.83,209.92875 C 373.1175,210.535 372.635,214.2 372.975,216.43125 C 373.38875,219.14625 374.48625,221.74375 375.84625,223.58375 C 377.525,225.85375 377.82875,226.235 378.74625,231.0825 z M 479.525,196.21625 C 479.525,196.21625 482.035,196.30375 482.035,196.30375 C 482.035,196.30375 481.96,194.99875 481.99875,193.49875 C 482.1525,187.46375 488.47125,181.11625 494.2925,180.6575 C 496.1,180.515 497.84375,180.49125 498.96125,180.1075 C 499.74375,179.8375 500.91,176.9 500.9975,174.97875 C 501.02375,174.38625 501.04125,173.72375 501.04125,173.72375 L 496.00875,173.54875 C 494.315,173.48875 493.9425,173.5225 492.285,173.8775 C 478.9975,176.72375 433.59,185.5 416.09875,195.5725 C 410.65125,198.70875 409.18625,201.255 408.12875,207.92125 C 407.64375,210.97875 408.185,211.92 409.425,215.75625 C 409.68875,216.57125 409.93125,217.40375 409.9675,218.26125 C 410.01625,219.4175 410.09125,219.55625 410.71625,219.65 C 411.18125,219.72 411.70125,219.8125 412.1175,219.61875 C 412.7875,219.3075 413.4325,213.97125 413.00125,212.3125 C 412.28375,209.55625 410.64375,207.855 411.0125,206.45375 C 411.8575,203.23375 425.48625,197.72625 430.85375,195.77375 C 438.48,192.99875 446.28,190.16125 454.67875,188.125 C 465.94875,185.39125 482.51625,182.5 482.51625,182.5 C 482.51625,182.5 482.51625,182.5 482.51625,182.5 C 482.51625,182.5 479.885,190.29625 479.71875,192.14375 C 479.675,192.62 479.64,193.13875 479.6125,193.70625 C 479.555,194.86 479.525,196.21625 479.525,196.21625 z M 482.6175,264.15 L 476.77125,258.31625 L 469.3475,265.7225 L 476.77125,273.1275 L 482.6175,267.295 L 488.46375,273.1275 L 495.8875,265.7225 L 488.46375,258.31625 L 482.6175,264.15 z M 399.44625,232.455 L 392.72875,239.1275 C 391.6125,240.23625 391.45375,240.435 391.14125,241.1175 C 390.70375,242.07375 390.5525,243.67375 390.7675,243.89 C 391.46375,244.5925 393.9225,242.88875 394.77875,242.2575 C 402.2775,236.7275 405.69375,233.24375 406.90625,226.08375 C 407.52125,222.44375 405.595,221.035 402.185,220.57125 C 396.775,219.83375 391.40625,220.5875 389.305,224.66125 C 389.6325,240.2125 390.095,231.31875 394.6825,230.215 C 399.78625,228.9875 405.27375,226.25875 399.44625,232.455 z M 339.64375,217.57875 C 339.5875,216.0425 339.41375,214.11375 338.90875,213.6275 C 338.61625,213.34625 338.2125,213.55125 337.95875,213.39875 C 336.81875,212.715 338.7575,209.8925 339.68125,208.81375 C 348.0675,199.025 369.8025,186.87 381.285,184.35625 C 382.38,184.11625 383.47375,183.9225 383.68,184.2925 C 383.78375,184.4775 383.6675,184.8 383.49,185.16625 C 383.07625,186.02375 382.41125,187.0625 381.675,188.175 C 366.38125,211.26875 390.505,179.22 397.35,178.32 C 397.975,178.01125 398.56375,177.7625 399.085,177.5975 C 401.74875,176.75875 404.63375,176.58125 404.98375,174.0275 C 405.0325,173.67 405.03875,173.22375 405.0275,172.79 C 404.91125,168.6075 398.085,170.60875 393.275,172.4375 C 388.8225,174.13125 382.21125,176.9225 375.19875,180.16625 C 366.125,184.36375 338.9575,196.96625 335.135,207.91125 C 333.9025,211.43875 334.13125,215.39 336.5875,218.79 C 336.6925,218.935 336.78875,219.06625 336.875,219.185 C 335.76625,217.68 339.88125,224.01 339.64375,217.57875 z M 350.05,192.63 L 349.8575,188.2225 C 349.78,186.44 349.80625,186.12125 350.115,185.02875 C 350.345,184.22 350.5875,183.33375 351.20125,182.7625 C 352.69875,181.3725 356.40625,181.85375 358.125,180.7075 C 360.6,179.0575 360.60125,173.3925 358.6975,171.09625 C 356.6775,168.66125 352.595,172.5275 350.9225,174.74125 C 349.895,176.1 348.9225,177.6575 348.485,179.475 C 348.28125,180.31875 348.17,181.275 348.01125,182.11125 L 347.23375,186.21125 L 344.66875,182.9475 C 341.15875,178.32375 342.22875,176.95 337.07,175.6925 C 335.34125,175.27125 331.5925,175.42875 330.8725,177.375 C 330.30875,178.8975 331.6325,182.60125 332.46125,183.48125 C 333.09875,184.1575 335.68,185.835 336.74625,185.93875 C 338.49,186.10625 342.05,185.04625 342.05,185.04625 C 342.05,185.04625 344.92375,189.1825 346.67875,191.125 C 347.445,191.9725 348.07875,192.655 349.06125,192.67375 C 349.46625,192.68125 350.05,192.63 350.05,192.63 z M 426.12,192.63 L 425.9275,188.2225 C 425.85,186.44 425.87625,186.12125 426.185,185.02875 C 426.415,184.22 426.6575,183.33375 427.27125,182.7625 C 428.76875,181.3725 432.47625,181.85375 434.195,180.7075 C 436.66875,179.0575 436.67125,173.3925 434.76625,171.09625 C 432.7475,168.66125 428.665,172.5275 426.9925,174.74125 C 425.965,176.1 424.99125,177.6575 424.55375,179.475 C 424.35125,180.31875 424.23875,181.275 424.08,182.11125 L 423.30375,186.21125 L 420.73875,182.9475 C 417.2275,178.32375 418.29875,176.95 413.14,175.6925 C 411.41125,175.27125 407.6625,175.42875 406.94125,177.375 C 406.37875,178.8975 407.70125,182.60125 408.53125,183.48125 C 409.16875,184.1575 411.75,185.835 412.81625,185.93875 C 414.55875,186.10625 418.12,185.04625 418.12,185.04625 C 418.12,185.04625 420.99375,189.1825 422.74875,191.125 C 423.515,191.9725 424.1475,192.655 425.13,192.67375 C 425.53625,192.68125 426.12,192.63 426.12,192.63 z M 490.5875,225.03 L 491.3575,225.01625 C 491.7025,225.01125 491.795,224.8 492.28375,222.9125 C 495.095,212.06 495.60875,206.06625 488.6925,199.105 C 487.55375,197.95875 486.2275,196.9975 485.3725,198.025 C 484.7925,198.7225 484.2,203.6425 484.465,204.71625 C 484.9275,206.59625 486.2975,207.20625 487.88,208.48125 C 491.455,211.36375 492.35125,213.525 491.89625,217.36375 C 491.54625,220.31 490.5875,225.03 490.5875,225.03 z M 129.21625,209.95125 C 132.52,210.58375 136.815,209.31375 138.81375,206.38 C 139.3875,205.53875 141.4775,200.43125 140.64125,199.81 C 140.37125,199.60875 139.79125,199.79875 139.165,200.06875 C 135.89875,201.47875 133.7425,202.82 131.70375,203.08875 C 113.83787,205.44 132.7575,172.6 127.755,179.5075 C 126.1825,181.6775 124.53987,184.8275 123.42562,187.445 C 123.40975,187.4825 123.39388,187.52 123.37812,187.5575 C 114.93275,207.49625 127.9725,209.7125 129.21625,209.95125 z M 309.03375,256.8125 C 303.8525,256.7125 298.9025,255.55375 294.8125,252.8525 C 286.93125,249.025 285.00875,240.5125 283.105,232.94 L 283.05125,232.82 L 282.8325,247.095 C 282.8175,248.03625 282.82,248.9825 282.85,249.835 C 282.9175,251.71125 283.19625,253.23875 283.68,254.55 C 290.8075,273.9075 317.92375,267.46875 328.815,259.21125 C 332.2875,256.5775 334.47,253.18 337.23,248.17625 C 338.0325,246.72125 338.83375,245.05375 338.92375,244.1075 C 338.98125,243.51 339.07625,243.44625 339.86875,243.4675 C 339.86875,243.4675 340.2475,243.4775 340.655,243.4875 C 352.79125,243.805 359.78,242.3325 362.59,238.25125 C 363.855,236.415 365.18,234.02 365.36875,232.9625 C 366.03125,229.245 366.17125,227.20875 364.8675,222.32375 C 363.845,218.4925 361.96,212.66375 361.96,212.66375 C 361.96,212.66375 359.3625,214.7425 358.19,216.31625 C 356.44,218.665 356.00625,222.68375 357.17,225.295 C 358.23625,227.69 359.14625,227.9625 359.15,231.7275 C 359.15125,232.4925 359.1075,233.38125 359.1075,233.38125 C 359.1075,233.38125 353.075,233.5575 351.365,233.60875 C 346.4675,233.7525 338.30875,232.945 335.775,226.75875 C 334.975,224.80875 334.4175,223.03125 332.65125,224.085 C 330.32125,225.47375 329.0825,231.98625 329.29875,234.32125 C 329.66125,238.21625 331.7625,243.48 332.7525,247.82375 C 332.835,248.18875 332.91,248.54625 332.89625,248.91375 C 332.87625,249.41 332.69625,249.55625 331.105,250.37125 C 324.95,253.52375 316.91125,256.17375 309.0675,256.7175 L 309.03375,256.8125 z M 191.37875,267.1325 C 181.0275,265.79875 170.5575,263.25125 163.48,258.76375 L 149.02625,249.6 L 155.805,259.9625 C 160.86375,267.69875 169.74375,272.64875 180.41625,275.43375 C 202.49625,281.19625 212.06625,278.335 233.16,270.62125 C 243.035,267.01 250.35125,262.4425 252.8275,257.62 C 254.14875,255.04875 255.4375,252.36375 255.58625,251.96875 C 256.6825,249.05125 253.87125,247.09125 250.34875,245.3875 C 248.74625,244.61375 247.04625,244.32625 244.65375,244.23625 C 239.825,244.055 232.17875,244.67875 232.17875,244.67875 C 232.17875,244.67875 235.90125,241.555 238.6775,239.43625 C 240.675,237.9125 250.11125,231.5 253.77375,232.5775 C 257.085,233.55125 257.0225,236.58625 258.8775,240 C 261.42375,244.68625 267.615,245.94 272.56625,244.3525 C 273.64625,244.00625 274.81125,243.51875 275.8525,243.04125 C 279.93,241.1725 282.45125,239.9275 283.96375,239.10625 C 287.9825,236.925 295.8825,237.38875 300.97625,238.03875 C 300.915,238.03125 304.30875,238.705 307.16875,239.30375 C 309.4325,239.7775 311.02125,240.12875 311.02125,240.12875 C 311.02125,240.12875 313.76,236.13125 314.69625,233.8375 C 316.2425,230.05125 311.325,229.6875 307.36625,228.445 C 304.68,227.60125 297.7175,223.45125 295.71875,221.50125 C 292.71,218.56625 290.47125,215 287.22875,212.66125 C 281.97375,208.87 277.765,207.79125 271.755,209.5825 C 268.63625,210.51125 266.55625,212.10625 266.03625,216.7825 C 265.40125,222.49125 268.03625,221.015 272.38875,221.89125 C 272.4575,221.905 272.52625,221.92 272.59375,221.935 C 277.92125,223.13 278.11375,217.77125 283.12875,221.91125 C 285.475,223.85 288.22625,226.75375 287.4775,227.82375 C 286.98125,228.53375 285.3275,228.82 283.8575,229.3975 C 281.1325,230.4675 279.0425,232.535 276.7625,233.54875 C 272.1475,235.60125 264.95625,234.7325 262.835,230.84375 C 259.04625,223.9 260.755,220.98625 252.97375,222.6275 C 250.5825,223.13125 248.4025,223.99875 246.48625,225.425 C 245.40875,226.225 244.41625,227.20125 243.3125,227.98375 C 241.94375,228.95375 240.40625,229.6225 238.89625,230.5075 C 231.815,234.65875 228.945,239.045 227.555,245.50125 C 226.39875,250.87625 226.41625,253.065 230.13125,254.0425 C 233.1725,254.84125 237.79375,254.6725 241.90375,254.57375 C 243.545,254.53375 245.8375,254.75375 245.10125,256.42625 C 244.97875,256.7025 244.73375,256.9225 244.46125,257.1375 C 242.66,258.555 239.9375,259.855 236.70625,261.0275 C 223.6275,265.77125 204.59125,268.83375 191.37875,267.1325 z M 165.83625,238.345 C 156.17,238.9825 146.28125,238.0675 139.60875,234.17125 C 133.845,230.80625 133.39125,217.06 131.79625,222.32875 C 128.94375,231.7525 128.335,239.9025 135.615,244.01375 C 137.34,244.98875 139.14625,245.7975 141.01875,246.4575 C 149.82,249.5625 164.58625,249.975 176.63375,243.815 C 177.3675,243.44 178.08875,242.96375 178.8125,242.29875 C 179.63,241.54625 180.31625,240.80625 180.90125,240.13875 L 184.085,236.515 L 185.56875,240.4075 C 186.38625,242.5525 186.5375,243.67625 189.97,245.9 C 191.86375,247.12625 193.92875,247.655 196.34625,247.06 C 199.54875,246.27125 201.97375,243.40375 204.85875,242.905 C 207.415,242.46375 212.44125,245.115 216.83125,246.2725 C 219.8475,247.0675 220.6575,246.7225 222.09125,245.08625 C 227.02375,239.46 229.6625,235.11125 227.53125,226.90875 C 226.26,222.0125 219.71875,223.41625 214.335,225.35875 C 209.9775,226.93 202.39,230.6075 201.8125,234.6975 C 201.6675,235.71875 201.85875,236.70875 201.4475,237.265 C 200.13,239.0525 194.2475,236.8875 192.23125,235.36875 C 190.6825,234.2025 189.7575,232.64125 189.3975,230.12125 C 189.095,228.005 189.09,225.7825 186.9325,226.9575 C 185.67125,227.64375 185.0675,230.01375 183.72875,231.50625 C 182.24,233.16625 176.03875,235.415 173.6775,236.2075 C 171.38875,236.97625 168.73,237.70625 165.83625,238.345 z M 219.44375,237.8475 C 219.3525,237.81 219.2625,237.77 219.17375,237.73 C 218.02125,237.20375 217.14,236.5975 215.38,235.975 C 213.34125,235.255 210.12375,234.51375 210.12375,234.51375 C 210.12375,234.51375 210.8175,233.79625 211.48125,233.22625 C 212.165,232.63875 213.68875,232.0275 215.29875,231.6125 C 220.065,230.385 220.8075,230.91625 220.74125,233.44 C 220.73625,233.66 220.72625,234.0225 220.71625,234.42125 C 220.58125,239.57 219.285,237.78125 219.44375,237.8475 z M 270.24,258.05875 L 262.9525,265.3475 L 270.24,272.635 L 277.52875,265.3475 L 270.24,258.05875 z M 319.83125,194.84375 L 312.54375,202.13125 L 319.83125,209.42 L 327.12,202.13125 L 319.83125,194.84375 z M 346.06625,249.8225 L 338.77875,257.11 L 346.06625,264.3975 L 353.355,257.11 L 346.06625,249.8225 z M 155.85,216.99625 L 161.53125,222.67875 L 168.81875,215.39 L 161.53125,208.1025 L 155.85,213.78375 L 150.16875,208.1025 L 142.88,215.39 L 150.16875,222.67875 L 155.85,216.99625 z M 252.97375,275.7825 L 258.655,281.46375 L 265.9425,274.17625 L 258.655,266.8875 L 252.97375,272.56875 L 247.2925,266.8875 L 240.005,274.17625 L 247.2925,281.46375 L 252.97375,275.7825 z M 270.24,254.41125 L 275.92125,260.0925 L 283.21,252.805 L 275.92125,245.5175 L 270.24,251.19875 L 264.55875,245.5175 L 257.27125,252.805 L 264.55875,260.0925 L 270.24,254.41125 z M 233.23,210.86125 C 233.49125,210.66375 233.8325,210.51 234.25125,210.40875 C 235.90125,210.0075 238.745,210.40875 238.745,210.40875 C 238.745,210.40875 239.7175,206.55 239.3575,204.69 C 238.955,202.615 235.23875,202.465 233.235,203.98 C 230.67125,205.9175 229.31625,214.34125 230.17375,216.9475 C 230.41125,217.66875 230.77625,218.3225 231.25875,218.84625 C 231.435,219.0375 231.62625,219.21 231.82625,219.39 L 233.23375,220.655 L 233.9875,222.70375 C 234.30125,223.55625 234.5025,224.29 234.5025,224.29 C 234.5025,224.29 240.23,220.67125 242.1125,218.3675 C 242.94625,217.3475 243.02625,216.585 243.33625,215.30625 C 243.9,212.9925 244.74625,210.81875 244.255,210.40875 C 243.8475,210.0675 242.66625,210.2275 241.735,210.75 C 240.3575,211.52125 239.525,213.08375 237.325,213.47 C 236.71125,213.5775 235.9925,213.59375 235.3675,213.57625 C 231.965,213.0525 232.86375,211.36875 233.23,210.86125 z M 271.6825,196.76125 C 275.045,199.715 279.93125,201.2525 281.8575,198.36875 C 283.10625,196.49875 285.14,192.59625 285.14,192.59625 C 285.14,192.59625 283.0725,189.47375 281.3475,188.13125 C 280.18875,187.22875 277.975,186.8525 276.6675,187.5625 C 275.5125,188.18875 274.165,190.00375 273.43375,189.26125 C 272.97875,188.79875 273.5175,186.97875 274.175,185.27375 C 275.2875,182.38625 280.2675,176.115 274.1875,170.77125 C 274.16,170.7625 274.13375,170.755 274.1075,170.74875 L 273.17125,170.31875 L 272.19125,170.93625 C 270.66375,171.39 270.95625,174.965 271.455,175.45375 C 271.725,175.7175 272.11375,176.50625 272.48125,177.21875 C 273.29625,181.46 272.64,185.1 270.98,189.15125 C 270.31625,190.77125 269.8325,192.42125 270.07125,194.23125 C 270.22125,195.365 270.38125,195.61875 271.6825,196.76125 z M 197.00625,230.575 C 197.00625,230.575 197.62125,229.15625 197.99375,228.03125 C 198.6225,226.13375 198.52125,224.7625 198.27375,222.7975 C 197.5825,217.32125 196.51875,204.915 196.51875,204.915 C 196.51875,204.915 198.42625,204.7 199.88375,204.7375 C 203.825,204.84125 204.97375,206.6975 207.04625,204.62625 C 208.39625,203.2775 209.60375,198.49875 208.74,196.715 C 207.75375,194.67375 204.40875,193.69125 202.87125,195.35625 C 202.1625,196.125 201.7575,197.33625 200.94625,198.135 C 199.69,199.37125 197.4575,199.61625 196.35125,200.64625 C 194.4575,202.41125 194.20375,214.74625 194.55125,217.66875 C 195.14,222.5975 197.00625,230.575 197.00625,230.575 z M 249.625,182.4525 L 242.9075,189.125 C 241.79125,190.23375 241.6325,190.43375 241.32,191.11625 C 240.8825,192.0725 240.73125,193.67125 240.94625,193.88875 C 241.6425,194.59125 244.1025,192.88625 244.95875,192.255 C 252.45625,186.725 255.8725,183.2425 257.085,176.08125 C 257.70125,172.4425 255.77375,171.03375 252.36375,170.56875 C 246.95375,169.8325 241.585,170.58625 239.48375,174.65875 C 239.81125,190.21 240.27375,181.3175 244.86125,180.21375 C 249.965,178.985 255.4525,176.2575 249.625,182.4525 z M 153.37125,182.4525 L 146.65375,189.125 C 145.5375,190.23375 145.37875,190.43375 145.06625,191.11625 C 144.62875,192.0725 144.4775,193.67125 144.6925,193.88875 C 145.38875,194.59125 147.84875,192.88625 148.705,192.255 C 156.2025,186.725 159.61875,183.2425 160.83125,176.08125 C 161.4475,172.4425 159.52,171.03375 156.11,170.56875 C 150.7,169.8325 145.33125,170.58625 143.23,174.65875 C 143.5575,190.21 144.02,181.3175 148.6075,180.21375 C 153.71125,178.985 159.19875,176.2575 153.37125,182.4525 z M 193.29625,187.12625 L 193.35875,186.93875 C 192.62375,187.42125 191.8875,187.91375 191.1525,188.4125 C 189.21125,189.5925 187.1775,190.86625 185.135,192.20875 L 184.89125,192.945 C 178.705,197.7475 173.61625,202.88 172.3875,207.45 C 171.4175,211.0575 171.93625,214.9825 174.63375,218.1925 C 174.75,218.33 174.855,218.45375 174.95,218.56625 C 173.735,217.14625 178.3025,223.1575 177.59375,216.76125 C 177.425,215.2325 177.11,213.32125 176.57125,212.875 C 176.25875,212.615 175.87,212.84875 175.60625,212.71625 C 174.42,212.1175 176.14625,209.16 176.98875,208.0175 C 179.9825,203.9525 184.9925,199.375 190.6575,195.10875 L 190.8325,194.58 C 197.26875,190.50875 203.71125,187.25375 208.46125,185.84125 C 209.535,185.5225 210.6125,185.24875 210.84625,185.6025 C 210.9625,185.77875 210.87,186.11 210.72,186.4875 C 210.37,187.37375 209.78375,188.4575 209.13,189.6225 C 195.5725,213.775 217.27875,180.04375 224.04,178.64375 C 224.64125,178.28875 225.21,177.9975 225.7175,177.79625 C 228.3125,176.76375 231.17625,176.375 231.3375,173.8025 C 231.36,173.44125 231.335,172.99625 231.29125,172.565 C 230.86875,168.4025 224.2075,170.89875 219.54375,173.07625 C 215.22875,175.09125 208.84,178.36 202.08375,182.11 C 199.9775,183.27875 196.86,185.0125 193.29625,187.12625 z M 193.29625,187.12625 L 190.8325,194.58 C 187.9825,196.3825 185.13375,198.345 182.43375,200.37875 L 184.89125,192.945 C 186.895,191.39 189.01375,189.86875 191.1525,188.4125 C 191.8825,187.97 192.5975,187.54125 193.29625,187.12625 z M 181.82375,192.63 L 181.63125,188.2225 C 181.55375,186.44 181.58,186.12125 181.88875,185.02875 C 182.11875,184.22 182.36125,183.33375 182.975,182.7625 C 184.4725,181.3725 188.18,181.85375 189.89875,180.7075 C 192.3725,179.0575 192.375,173.3925 190.47,171.09625 C 188.45125,168.66125 184.36875,172.5275 182.69625,174.74125 C 181.66875,176.1 180.695,177.6575 180.2575,179.475 C 180.055,180.31875 179.9425,181.275 179.78375,182.11125 L 179.0075,186.21125 L 176.4425,182.9475 C 172.93125,178.32375 174.0025,176.95 168.84375,175.6925 C 167.115,175.27125 163.36625,175.42875 162.64625,177.375 C 162.08125,178.8975 163.405,182.60125 164.235,183.48125 C 164.8725,184.1575 167.45375,185.835 168.52,185.93875 C 170.2625,186.10625 173.82375,185.04625 173.82375,185.04625 C 173.82375,185.04625 176.6975,189.1825 178.4525,191.125 C 179.21875,191.9725 179.8525,192.655 180.83375,192.67375 C 181.24,192.68125 181.82375,192.63 181.82375,192.63 z"
     style="fill:#000000;stroke:none" />
  <text
     xml:space="preserve"
     style="font-size:35.82610703px;font-style:normal;font-variant:normal;font-weight:normal;font-stretch:normal;text-align:start;line-height:100%;writing-mode:lr-tb;text-anchor:start;fill:#000000;fill-opacity:1;stroke:none;stroke-width:1px;stroke-linecap:butt;stroke-linejoin:miter;stroke-opacity:1;font-family:Arial Black;-inkscape-font-specification:Arial Black"
     x="116.34348"
     y="308.16632"
     id="name"
     sodipodi:linespacing="100%"
     transform="scale(0.9666736,1.0344754)">YAHYA BIN CHE MAT</text>
  <path
     id="kembali"
     d="M 406.56375,346.66875 C 406.60375,347.09875 406.5325,347.3475 406.36125,347.74 C 405.3125,350.13875 403.445,350.365 400.62375,350.37 C 399.85625,350.37125 399.29375,350.36125 398.83625,350.38125 L 397.07375,350.45375 L 394.80625,352.57625 C 394.03875,353.29375 393.2225,354.1375 392.58125,354.8725 C 390.90875,356.79125 389.91625,357.81 389.7925,358.40125 C 389.5175,359.7175 396.23375,358.0825 402.52875,360.505 C 403.17625,360.75375 403.8875,361.10375 404.83625,361.595 C 406.20125,362.3025 408.06,363.305 408.06,363.305 C 408.06,363.305 406.2625,364.7 404.74,365.675 C 400.05375,368.6775 387.24625,370.57 382.02,368.605 C 378.265,367.19375 375.28,364.62625 374.82875,360.965 C 374.5325,358.56375 375.53,349.00125 375.53,349.00125 C 375.53,349.00125 373.71375,351.4725 372.69625,353.03125 C 369.60625,357.7625 368.51625,365.7725 370.97625,370.75625 C 373.9925,376.8675 381.7125,378 389.375,377.15 C 396.45,376.36625 406.55375,372.45875 410.76,368.145 C 412.27875,366.5875 415.9575,361.7025 416.505,360.2025 C 416.70375,359.6625 415.62375,356.6975 415.07875,356.28625 C 413.41375,355.02875 409.04125,353.315 409.04125,353.315 C 409.04125,353.315 411.01,349.9075 412.0525,347.815 C 412.56125,346.79125 412.87875,347.2675 412.715,345.90625 C 412.5225,344.305 412.1025,342.1825 411.67375,340.96875 C 411.07375,339.26875 410.17125,339.9775 411.055,338.8375 C 411.305,338.5175 411.86125,338.5225 412.42875,338.49375 C 412.98625,338.46625 414.81625,337.00375 416,335.645 C 417.0375,334.45375 418.0775,332.35625 418.0775,332.35625 C 418.0775,332.35625 412.42,330.3775 411.14375,329.4 C 410.75375,329.1 410.415,328.815 410.12125,328.545 C 408.24875,326.8175 408.29875,323.95 407.5975,324.2925 C 407.1175,324.5275 406.43,324.6725 405.6775,324.9425 C 404.14,325.49375 402.19125,327.61125 401.655,329.3125 L 400.7225,332.27 L 401.8025,333.46125 C 402.13625,333.83 402.5775,334.25 403.0275,334.675 L 404.58,336.14375 L 405.81875,338.4075 C 406.24375,340.465 405.545,339.6475 405.78375,341.785 C 406.035,344.0475 406.2975,343.79625 406.56375,346.66875 z M 415.9975,375.02625 L 411.34125,370.36625 L 405.345,376.3675 L 411.34125,382.36875 L 415.9975,377.7075 L 420.65375,382.36875 L 426.65,376.3675 L 420.65375,370.36625 L 415.9975,375.02625 z M 449.525,371.25 C 455.1375,371.1 461.4925,370.48125 465.54375,369.5675 C 466.79,369.2875 468.04125,368.9625 469.05125,368.51375 C 470.8375,367.72 471.2475,366.85875 471.675,366.89375 C 471.99125,366.92 472.47,367.86375 473.10125,368.7725 C 474.0775,370.1775 476.3925,371.31625 478.31,371.47125 C 478.73375,371.505 479.62625,371.14125 480.62125,370.5875 C 484.3075,368.53625 485.9375,367.295 486.71625,366.62 L 487.4925,365.9475 L 488.09875,366.33125 C 488.41375,366.53125 488.8375,366.86875 489.815,367.1725 C 490.10625,367.2625 490.455,367.3725 490.84125,367.4975 C 493.36375,368.30625 496.04625,368.75125 497.89875,368.76125 L 499.16375,368.7725 C 500.07625,368.78 501.80625,365.46875 502.56625,363.81625 L 502.85375,363.19125 L 501.72,363.09125 C 500.5975,362.99125 498.80125,362.7675 497.44,362.28625 C 495.7875,361.7025 492.98375,360.04875 492.22875,359.21375 C 491.59875,358.51625 490.885,357.60625 490.885,357.60625 C 490.885,357.60625 492.755,356.66 493.79375,355.87375 C 495.3625,354.6875 496.475,352.70625 496.8475,351.19875 C 497.39125,349.00125 496.315,345.00875 494.69625,343.12625 L 493.76125,342.03875 L 495.36,340.9825 C 497.995,339.24375 501.18125,337.375 502.57375,336.72375 C 506.21,335.02375 508.99,334.23625 511.20875,333.30875 L 513.85625,332.2025 C 515.2175,331.63375 516.88875,329.15875 517.2775,327.19125 C 517.43625,326.3875 517.52875,325.3175 517.49125,324.5325 L 514.66625,325.39375 C 509.5625,326.95125 497.24125,333.93 496.51,334.3875 C 494.74125,335.495 487.5925,340.4925 484.09125,343.82875 L 481.79875,346.01375 L 484.6675,346.12375 C 486.75125,346.20375 489.445,346.97625 490.63875,350.0325 C 491.17375,351.4 491.6325,353.20625 491.48375,353.6675 C 491.165,354.65625 489.1725,356.26375 488.10625,357.945 C 486.2425,360.88375 486.03875,364.825 481.6575,365.12125 C 479.32625,365.27875 477.07125,363.38875 476.3175,361.525 C 475.86125,360.395 475.4525,358.6925 475.4525,358.6925 C 475.4525,358.6925 472.78375,361.49125 471.0925,362.5075 C 470.11875,363.09125 468.2325,363.51875 466.70125,363.6975 C 453.85375,365.1925 446.88875,366.27875 434.8875,362.34 C 431.69875,361.29375 431.24125,360.82 430.7675,358.23125 C 430.07375,354.43375 429.1825,344.0525 428.92625,340.0325 C 428.595,334.82875 430.15125,331.5875 427.4975,326.33625 L 426.83375,325.02125 L 425.565,326.9475 C 424.555,328.48125 423.61125,330.08125 423.4975,330.47375 L 422.765,333.0025 L 423.45875,334.91875 C 424.71125,338.3775 424.69625,337.28 424.32875,342.4875 C 424.17375,344.6775 424.1425,353.54125 424.24125,355.68375 C 424.7975,367.6875 428.36,367.9475 432.19875,369.08125 C 435.48375,370.05125 439.7325,370.86125 441.50875,371.04875 C 443.19125,371.2275 445.32,371.3 447.65125,371.2825 L 442.58875,376.3475 L 448.60625,382.3675 L 454.62125,376.34875 L 449.525,371.25 z M 449.525,371.25 C 448.88875,371.2675 448.26375,371.2775 447.65125,371.2825 L 448.60375,370.32875 L 449.525,371.25 z M 289.13625,357.13875 C 288.5525,356.495 287.87625,355.66625 287.2175,354.825 L 284.27375,351.07 L 280.76,360.78625 L 282.31,362.765 C 282.9425,363.57125 283.65875,364.44 284.29625,365.19875 L 286.14875,367.4025 L 283.76,369.45375 C 273.89375,377.9275 272.19,380.275 263.20375,378.475 C 262.78875,378.3925 262.4075,378.29875 262.0775,378.1975 C 261.89625,378.1425 261.72125,378.0875 261.55,378.0325 L 255.79375,376.195 L 258.65625,379.4075 C 261.925,383.075 274.4375,384.745 280.66125,379.71125 C 282.7025,378.06125 284.515,376.16625 285.3,374.7225 C 286.015,373.40625 286.44875,372.31875 286.775,371.44375 L 287.9675,368.23875 L 291.56125,368.80625 C 296.9,369.65 304.36375,370.37 315.87375,370.55125 C 332.19125,370.80625 353.23875,369.9875 357.03,368.82875 L 359.46125,368.085 L 363.65875,362.6925 C 363.79,362.21875 363.9175,361.72625 364.03375,361.24625 C 364.8075,358.0325 364.14125,354.15375 362.62,351.46 C 360.67,348.0025 354.595,345.675 350.20375,346.69125 C 349.085,346.95125 347.79875,347.305 346.18625,347.69 C 337.26125,349.82375 320.60125,351.215 312.685,350.58125 L 299.4,349.5175 C 299.4,349.5175 303.06875,346.365 306.43875,343.3725 C 309.45625,340.6925 316.14,337.54375 319.5475,337.245 L 321.2125,337.1 L 322.24625,335.7675 C 323.285,334.42875 323.92375,332.37 324.30125,330.525 C 324.44,329.84875 324.525,329.1625 324.43875,328.6475 L 324.04875,326.31625 L 322.11125,327.11 C 319.12,328.335 313.38125,332.35125 308.045,337.11875 C 304.1325,340.615 299.0525,345.7925 298.1075,347.2975 C 297.0825,348.9275 296.005,352.09875 295.2125,354.11625 C 294.92625,354.84375 295.47625,355.84875 296.45375,356.63625 C 299.79375,359.32625 324.235,358.79625 345.55125,355.45 C 346.01375,355.3775 346.52,355.32375 347.11875,355.28875 C 351.0175,355.065 356.90125,356.59 357.175,359.385 C 357.26375,360.28375 357.175,361.69375 357.175,361.69375 C 357.175,361.69375 342.6325,362.8325 342.6325,362.8325 C 320.3625,364.57625 296.69875,365.49 289.13625,357.13875 z M 213.17875,367.09625 L 210.09625,366.58125 L 210.21125,365.89625 C 210.2625,365.5875 210.4575,365.50375 212.165,365.055 C 213.45875,364.71625 215.41,364.28125 216.1375,364.61625 C 216.525,364.795 216.57625,365.0375 217.22125,364.78125 C 218.205,364.39 219.96625,362.785 219.96625,362.785 L 219.56625,365.18 C 219.38625,366.25625 219.28875,366.4075 218.585,366.69625 C 218.43,366.76 215.7125,367.3375 215.46875,367.34125 C 214.7925,367.3525 214.56375,367.32875 213.17875,367.09625 z M 239.41125,359.2 C 240.05625,359.3075 240.485,359.37625 240.85375,359.4225 L 243.91625,359.80375 L 246.31875,358.7275 C 246.825,358.50125 247.3075,358.23125 247.745,357.92375 C 248.81375,357.1725 249.07,357.19375 250.31125,358.13 L 253.0725,360.21625 C 253.0725,360.21625 244.2525,361.7 239.515,363.17875 C 237.35,363.855 235.01,364.8025 233.7375,366.17375 C 232.00625,368.04 229.6575,372.23125 229.6575,372.23125 C 229.6575,372.23125 228.2075,370.525 227.3175,369.06125 C 226.49625,367.71 225.5025,363.56875 225.28875,361.46 C 225.145,360.03125 225.1875,358.1775 225.25125,356.36125 C 225.375,352.8425 224.135,346.57 222.69375,343.8775 C 221.61375,341.8625 220.515,339.435 220.515,339.435 C 220.055,338.42125 217.955,341.87 216.17375,346.56625 C 216.03,346.945 217.18375,348.33625 217.95625,350.98625 C 218.39375,352.4875 218.67375,354.085 218.63125,355.06875 C 218.59375,355.9075 218.36,356.7225 217.75,357.2275 C 216.86,357.96125 213.37375,358.46125 210.795,359.365 C 206.81375,360.7625 205.9125,362.72 203.7325,366.10625 C 201.04875,370.27625 199.5375,372.115 202.98,374.56375 C 205.95375,376.68 212.135,377.515 216.03,375.42625 C 218.0325,374.3525 219.9125,371.72625 220.4625,371.83125 C 220.7425,371.885 220.92375,372.6375 221.18,373.6375 C 221.28875,374.0625 221.45125,374.47375 221.6625,374.87125 C 223.18,377.72 228.55625,380.42 234.225,381.76875 C 234.73875,381.89 235.2675,381.98625 235.8025,382.05625 C 242.34625,382.92 243.01875,382.085 243.8525,382.095 C 244.3175,382.10125 246.45125,379.33375 248.1525,376.44625 C 248.77,375.3975 243.73125,375.68875 240.6925,373.02375 C 239.23875,371.74875 238.14375,370.55125 238.14375,370.55125 C 238.14375,370.55125 240.1225,370.04875 242.75375,369.615 C 243.49125,369.4925 250.76,369.14375 258.36125,368.84875 C 261.605,368.7225 266.165,369.17125 267.3725,369.78625 C 268.12875,370.1725 268.67625,370.4775 269.075,370.34 C 272.2675,369.23625 274.26375,365.335 275.1175,362.76125 L 275.725,360.9325 L 273.9675,360.49125 C 272.645,360.16 270.55875,359.61875 269.17625,359.16875 C 267.43375,358.60375 266.39,357.985 264.7625,356.87 C 256.505,351.21125 250.1025,344.48875 244.33125,345.9975 L 241.67375,346.6925 L 239.23125,349.93625 C 237.7225,351.94 236.00875,354.7025 235.83875,355.565 C 235.70125,356.2675 235.71375,356.93625 235.8225,357.6125 L 235.9875,358.6275 L 239.41125,359.2 z M 221.035,330.61 L 216.37875,325.95 L 210.3825,331.95125 L 216.37875,337.9525 L 221.035,333.29125 L 225.6925,337.9525 L 231.6875,331.95125 L 225.6925,325.95 L 221.035,330.61 z M 192.93625,338.89875 L 194.92875,357.535 C 195.17125,360.43 194.6725,364.69625 194.3075,366.62 L 193.7225,369.70125 C 193.7225,369.70125 197.6875,364.21625 198.86,360.97375 C 199.0825,360.35625 200.025,357.2 199.97375,355.7675 C 199.94375,354.94125 199.925,354.6975 199.785,353.33625 L 197.11375,334.06125 C 196.77,331.57875 196.5125,327.5825 196.59375,326.115 C 196.55125,325.75875 195.245,325.44 192.6375,331.34375 C 192.46875,331.72625 192.29375,332.145 192.09875,332.61625 L 190.92125,335.4625 C 190.92125,335.4625 192.33875,336.90375 192.33875,336.90375 C 192.76125,337.33375 192.82125,337.53375 192.93625,338.89875 z M 157.58125,345.91125 L 158.42,358.995 C 158.42,358.995 152.785,360.74625 149.19375,361.41375 C 147.03625,361.815 143.09375,361.555 139.765,360.46875 C 135.55375,359.095 133.94,357.075 132.8025,343.45625 C 132.53875,340.30125 132.3675,337.07625 132.41875,335.25875 C 132.4825,332.9875 132.6,330.45625 132.6,330.45625 C 132.6,330.45625 131.22875,331.17375 130.02375,332.11 C 128.73875,333.1075 127.89875,333.9775 127.36375,334.65125 L 126.6975,335.4925 L 127.185,337.675 C 127.32875,338.315 127.515,340.1675 127.56375,341.3575 L 127.5875,341.91125 L 126.3625,342.34125 C 125.61875,342.6025 124.57437,342.84625 123.54587,343.27875 C 120.449,344.585 112.33888,352.80625 112.5025,358.2625 C 112.56912,360.49 116.30363,364.08125 117.35475,364.5175 C 118.07538,364.81625 119.764,364.415 122.31375,363.3925 C 125.0125,362.31 129.11625,360.7125 129.11625,360.7125 C 129.11625,360.7125 129.35875,364.155 130.08125,366.02125 C 130.21125,366.3575 131,367.10875 131.90375,367.85375 C 135.7325,371.00125 145.00375,371.81125 150.85625,369.36625 C 153.18375,368.39375 155.27625,367.0425 156.59625,365.51125 C 157.47875,364.48625 159.19,362.755 159.19,362.755 C 159.19,362.755 160.135,365.45 161.07375,366.85125 C 161.9225,368.11625 162.235,368.62875 162.84,369.06875 C 163.7875,369.75875 169.62,370.93 171.5775,370.8225 C 175.3,370.62 177.32125,369.81875 179.81125,366.66375 C 181.20875,364.89125 182.495,363.2 183.47,361.56125 C 187.34125,355.06 185.37625,345.4075 183.6475,339.73625 L 181.4975,332.685 L 176.2625,342.42625 L 177.15,346.02875 C 178.4275,351.22125 180.53625,359.97625 177.915,361.03625 C 177.4225,361.23625 176.865,361.44625 176.3575,361.6 C 173.65375,362.41875 167.4775,361.16125 166.35125,360.64375 C 165.70125,360.34625 163.67625,357.0325 163.4175,355.8425 C 162.575,351.96125 161.32375,331.585 161.32375,331.585 C 161.32375,331.585 160.485,332.5725 159.67375,333.7275 C 158.50875,335.38625 156.99375,338.15875 156.5225,339.8675 C 156.40125,340.30625 157.35375,342.36625 157.58125,345.91125 z M 120.88012,351.77125 C 122.839,351.23875 125.955,350.3125 126.60875,349.575 C 127.29,348.805 127.91875,347.68875 127.91875,347.68875 C 127.91875,347.68875 128.45625,350.5 128.5475,352.21375 C 128.77875,356.565 123.36775,355.2375 120.30725,354.385 C 119.2375,354.0875 118.3575,353.55375 119.037,352.47375 C 119.17388,352.25625 119.35813,352.185 120.88012,351.77125 z"
     style="fill:#ff0000;stroke:none" />
  <text
     style="font-size:48px;font-style:normal;font-variant:normal;font-weight:normal;font-stretch:normal;text-align:start;line-height:100%;writing-mode:lr-tb;text-anchor:start;fill:#000000;fill-opacity:1;stroke:none;stroke-width:1px;stroke-linecap:butt;stroke-linejoin:miter;stroke-opacity:1;font-family:jawi;-inkscape-font-specification:jawi"
     x="121.953"
     y="426.97043"
     id="deathmuslim"
     dx="0 0 0 0 0 169.17995">1431 29</text>
  <path
     id="deathmonth"
     d="M 347.0275,383.91625 C 346.7725,384.24875 346.515,384.6225 346.29375,384.99375 C 345.47875,386.355 344.565,389.515 344.53875,391.065 C 344.45125,396.2875 344.99375,409.83 345.57625,413.84625 L 346.21875,418.27375 L 348.045,414.035 C 348.405,413.19875 348.76,412.18375 349.0125,411.26125 C 351.1375,403.4825 351.32375,395.4225 348.90875,385.3075 L 348.20875,382.37625 L 347.0275,383.91625 z M 333.0225,382.38125 C 332.5875,382.29375 331.55,383.49625 330.94375,384.6075 C 329.5575,387.15125 328.425,389.65625 328.955,391.77125 C 329.3725,393.43625 330.8725,394.96125 331.46,396.87375 C 331.81125,398.0175 331.66,401.36625 331.18375,402.94875 L 330.545,405.075 L 328.90625,403.1125 C 328.66625,402.82625 328.44,402.49875 328.23,402.17375 C 327.27125,400.68875 326.69,399.2875 325.74125,397.98875 C 322.60875,393.70125 315.18,389.42625 309.68875,388.60375 C 307.67,388.30125 307.125,389.1875 306.59375,391.2675 C 305.45125,395.7375 307,403.69125 312.22625,402.45375 C 313.545,402.14125 314.97875,401.20375 316.13,401.1775 C 318.18875,401.13 323.56625,406.40875 324.70125,407.6725 C 325.61375,408.68875 326.2375,409.98375 326.17,410.72 C 326.1025,411.455 322.46,415.83875 321.16375,416.745 C 317.95,418.99125 316.855,419.2525 316.19,421.91 C 315.2925,425.4975 315.985,425.8675 318.80375,425.56375 C 319.79125,425.4575 320.9525,425.35625 321.79,424.9925 L 323.99125,424.035 L 325.1975,424.16625 C 326.79375,424.33875 328.865,424.72375 329.7675,424.5 C 331.81375,423.99125 334.04625,420.43875 334.26125,418.86375 C 334.43125,417.60875 333.42375,413.25375 333.0175,410.44125 L 332.6875,408.15875 L 334.07875,405.145 C 335.11125,402.90625 336.33625,398.895 336.5925,396.98 C 336.72125,396.01625 336.86875,395.05875 337.1525,394.165 C 337.5875,392.7925 338.37625,391.40375 338.66125,390.13625 L 339.1175,388.09875 L 337.2575,386.94 C 336.685,386.5825 336.0225,386.2 335.4675,385.505 C 334.60125,384.42125 333.6025,382.49625 333.0225,382.38125 z M 326.65,416.70875 L 328.7875,414.0275 L 329.6925,415.78 L 330.42625,417.19875 L 327.2175,418.38625 L 324.515,419.3875 L 326.65,416.70875 z M 265.34375,404.82625 C 265.3325,404.80875 265.3225,404.79125 265.31125,404.77375 L 263.3675,401.59125 L 261.55875,403.0125 C 260.50125,403.8425 259.6825,405.435 259.215,406.90875 C 258.88875,407.93875 259.04125,410.31875 259.5175,411.63625 C 259.985,412.92875 260.71875,414.2275 261.345,415.32625 L 262.8375,417.945 L 261.91375,419.46375 C 259.8875,422.7975 253.36125,428.645 249.955,429.86875 C 242.91625,432.39625 232.67125,433.8475 233.905,434.15875 C 237.38625,435.03875 245.99,436.5375 249.6525,436.80625 C 255.095,437.20625 255.39125,435.88875 260.13625,429.81125 C 263.965,424.90875 265.51875,423.12625 266.48,417.58625 L 266.48,417.66125 C 266.53875,417.57375 266.5975,417.5025 266.65375,417.44875 C 267.45625,416.6975 268.64625,416.4475 269.75875,415.6175 C 270.81125,414.8325 272.66,412.6425 273.19375,411.29375 C 273.6925,410.03375 274.185,407.765 274.185,407.765 C 274.185,407.765 274.94,416.0825 275.73625,418.49875 C 276.10625,419.62125 277.1275,421.8075 278.26625,423.30125 C 279.6725,425.1425 284.31625,425.8375 287.75125,424.59 C 290.845,423.46625 296.4,421.12875 300.2075,419.99875 L 302.55375,419.3025 L 304,419.52375 C 304.78875,419.645 305.58,419.845 306.27375,419.77875 C 307.15875,419.69375 309.5025,417.90625 311.38,416.03625 C 312.68,414.74125 314.07,412.0925 314.02125,410.94 C 313.99875,410.4025 313.9575,409.97875 313.9575,409.97875 C 313.9575,409.97875 311.095,410.3025 308.71375,410.07 C 307.4225,409.94375 296.8075,403.31875 294.59375,402.7125 C 293.63875,402.45125 288.90125,403.20875 287.86625,403.78875 C 286.26125,404.6875 281.27875,409.55 283.16125,411.12 C 283.61375,411.49875 285.4675,410.98125 287.19625,411.05 C 288.31875,411.09375 290.34375,411.8275 291.94625,412.59625 L 294.34375,413.74625 L 292.0025,414.57625 C 291.77875,414.655 291.50625,414.75 291.1675,414.8675 C 285.6475,416.77875 284.17125,417.78875 281.3825,413.95125 C 280.68125,412.985 280.04625,411.9425 279.75375,410.685 C 278.92,407.11125 280.51,402.52875 278.43,399.72375 C 276.33875,396.90625 273.1475,403.25125 272.00875,405.63375 C 271.64625,406.395 271.4025,406.7975 271.03625,406.965 C 265.78375,408.46375 264.74125,403.83625 265.34375,404.82625 z M 273.3575,428.13875 L 269.71375,424.49375 L 264.395,429.8125 L 269.71375,435.1325 L 273.35875,431.4875 L 277.00375,435.1325 L 282.32125,429.81375 L 277.0025,424.49375 L 273.3575,428.13875 z M 293.0925,387.75125 L 287.77375,393.07 L 293.09375,398.38875 L 298.41125,393.07125 L 293.0925,387.75125 z M 415.80875,402.7925 C 414.75125,403.6225 413.93375,405.21625 413.46625,406.69 C 413.14,407.72 413.29125,410.09875 413.76875,411.4175 C 414.23625,412.70875 414.96875,414.00875 415.59625,415.10625 L 417.08875,417.72625 L 416.165,419.245 C 414.1375,422.57875 407.6125,428.42625 404.20625,429.64875 C 397.1675,432.1775 386.92125,433.6275 388.155,433.94 C 391.6375,434.81875 400.24,436.3175 403.90375,436.58625 C 409.345,436.98625 409.6425,435.67 414.3875,429.59125 C 418.9975,423.6875 420.31,422.31 421.25875,413.44375 C 421.7075,409.25125 421.4725,407.6825 419.5625,404.55375 L 417.6175,401.3725 L 415.80875,402.7925 z M 390.155,424.275 L 384.83625,429.59375 L 390.15625,434.9125 L 395.47375,429.59375 L 390.155,424.275 z M 379.0325,408.73125 C 377.71,408.4875 376.375,408.10625 374.78875,407.55875 C 372.9475,406.925 372.23,406.6175 372.04,405.59125 C 371.75125,404.04375 373.4275,396.05125 373.06875,395.21375 C 372.715,394.3875 367.62625,391.91125 365.1225,391.66 C 360.91125,391.23625 356.185,394.89375 355.45625,399.60125 C 355.28625,400.6975 355.32125,403.21 356.06125,403.83625 C 356.9975,404.62875 359.48375,405.25 359.48375,405.25 C 359.48375,405.25 356.34875,409.26875 354.55,412.0875 C 353.8075,413.2525 353.185,414.45125 352.655,415.65875 C 350.55125,420.44375 349.435,428.5775 350.33125,432.38 C 352.57875,441.92125 363.75625,449.68125 370.575,448.8775 C 372.64625,448.63375 375.155,448.3 377.67375,447.91625 C 385.87625,446.6675 389.52625,444.47 391.18125,442.99375 L 393.50625,440.92 L 388.41125,440.59 C 385.745,440.4175 382.08875,440.2875 378.675,440.27 C 369.9175,440.22375 363.995,439.085 359.08125,433.82375 C 353.785,428.1525 353.93625,426.25625 356.3625,419.93625 C 356.975,418.34125 358.86375,415.92375 360.19,414.99375 C 360.40625,414.84125 360.64,414.67875 360.89375,414.5025 C 362.65875,413.2725 364.59625,412.07625 365.08125,412.26 C 365.70125,412.49625 366.24875,414.75375 367.53875,416.0125 C 368.16875,416.62625 369.04625,417.08125 370.00125,417.55 C 374.525,419.77125 383.45,417.99125 386.97125,417.15625 C 387.43125,417.04625 387.88875,416.9425 388.32625,416.85125 L 390.965,416.295 L 393.1275,417.08625 C 393.8275,417.3425 394.61625,417.6575 395.4225,417.98875 C 398.9275,419.42625 403.49375,418.77875 404.81,416.73 C 405.72375,415.30625 406.60875,413.63625 407.3,412.0875 C 407.83875,410.8825 408.50125,408.1475 408.7625,406.3975 C 409.6525,400.45125 405.07125,410.80375 400.21375,409.1225 L 395.52,407.49875 C 395.52,407.49875 396.12875,405.6775 396.48875,404.18875 C 397.735,399.05 395.8,403.83875 390.68625,406.955 C 389.1875,407.87 383.38,408.31625 381.855,408.465 C 380.83625,408.56375 379.9,408.65375 379.0325,408.73125 z M 370.505,427.92 L 366.86125,424.275 L 361.5425,429.59375 L 366.8625,434.9125 L 370.50625,431.2675 L 374.15125,434.9125 L 379.47,429.59375 L 374.15,424.275 L 370.505,427.92 z"
     style="fill:#000000;stroke:none" />
  <path
     id="equals"
     d="M 296.65625,477.41625 C 296.01375,477.20875 295.41875,476.9925 294.87,476.77 C 292.75625,475.9125 290.66125,474.9375 290.1625,474.40625 C 289.57,473.77375 289.0425,471.8925 288.91875,470.19375 C 288.57625,465.46375 288.92625,459.5325 288.3625,454.525 C 287.88875,450.33 286.67375,447.985 285.7175,446.87125 L 284.92,445.94375 L 281.02125,453.37 L 282.09,455.7925 C 282.47875,456.6725 282.94,457.6125 283.28125,458.51625 C 285.545,464.51125 283.43625,467.39 283.58,475.92875 C 283.6725,481.42375 284.96125,483.53625 289.4975,485.60875 C 294.76375,488.01375 300.3775,482.88125 304.47875,485.3625 C 305.09,485.7325 305.6075,486.10875 305.925,486.395 C 306.60125,487.0075 307.15375,487.57625 307.6275,488.05875 L 309.55625,490.025 L 311.0675,489.465 C 312.55375,488.91625 314.08375,487.17625 314.94125,484.965 L 315.52125,483.46625 L 314.85625,482.3875 C 314.5825,481.94375 314.21375,481.46625 313.805,481.02875 C 311.24,478.28375 307.255,475.02625 309.38625,473.8275 C 313.6075,471.4525 313.6025,473.34 316.48375,478.305 C 318.295,481.42375 320.40625,482.155 324.25125,481.295 C 325.51,481.01375 326.82125,480.5625 327.72625,479.94 C 327.9,479.82 328.06,479.69375 328.21,479.5675 L 329.91375,478.13625 L 334.2275,479.36625 C 335.26875,479.6625 336.33,479.9825 337.225,480.24625 C 339.8425,481.02125 342.7325,480.52625 344.8625,479.295 C 345.97,478.655 350.24,473.665 350.535,472.66625 C 350.78375,471.825 350.33625,469.17 349.43375,467.3475 L 348.15625,464.76625 L 343.06375,469.17125 L 342.96,471.88625 C 342.87625,474.09625 337.19375,472.855 337.27625,472.085 L 337.39,471.01875 C 337.44375,470.5125 337.4925,469.9175 337.4875,469.4525 C 337.48375,469.1775 337.4525,468.915 337.39375,468.68375 C 337.18,467.83625 336.95625,467.2375 336.72375,466.84 C 335.70625,465.11 337.0025,470.5025 329.27,473.79875 C 327.57,474.52375 325.385,474.23875 323.92,473.12625 C 323.37125,472.71 322.95,472.15375 322.56875,471.49375 C 320.1725,467.35125 319.2375,464.58875 315.2475,465.27125 C 314.0675,465.4725 310.215,467.6725 309.26375,468.6875 C 307.7,470.35625 306.14375,472.8225 304.97875,474.3075 L 303.89,475.695 C 303.89,475.695 301.6025,476.3425 301.6025,476.3425 C 300.2625,476.7225 298.535,477.085 296.65625,477.41625 z M 371.06875,473.26125 C 371.06875,473.26125 368.35375,473.56 366.77625,473.35875 C 365.85,473.24125 364.16625,472.55 363.3225,471.9575 L 358.10875,468.30125 L 354.44875,479.14625 L 358.91,483.49125 L 355.87125,485.38875 C 351.5525,488.085 343.02625,491.40375 340.325,491.52375 C 337.215,491.66125 330.22125,490.545 330.22125,490.545 C 330.22125,490.545 331.78125,492.17375 332.7375,492.87875 C 333.06625,493.12 333.325,493.25375 333.55625,493.41875 C 334.74375,494.26125 335.2575,495.93875 336.39125,496.82375 C 337.9025,498.0025 344.9625,497.23625 347.895,496.31875 C 351.65,495.14375 358.565,490.13125 362.13625,486.91625 L 367.025,482.515 L 367.9325,482.09125 C 368.88875,481.645 370.25,481.15375 372.33375,480.55 C 373.01125,480.35375 373.82125,480.06 374.80375,479.6175 C 375.12875,479.47125 375.4325,479.32 375.69875,479.16375 C 378.06625,477.7725 380.05125,473.7075 380.025,471.75375 C 380.01,470.65875 379.715,469.2925 379.26,468.0025 L 376.80375,461.04125 L 370.09,471.4025 L 371.06875,473.26125 z M 371.9975,493.94375 L 377.93875,488.00625 L 371.9975,482.0675 L 366.05625,488.00625 L 371.9975,493.94375 z M 277.18125,455.43 C 277.35125,454.285 277.065,453.84375 275.865,453.26 C 274.81625,452.75 273.10375,452.05875 272.0825,451.655 C 271.81125,451.54875 271.73625,451.1725 271.845,450.75625 C 273.1775,445.6475 273.2925,445.715 272.62125,446.10125 C 272.18625,446.35125 271.73375,446.62 271.3775,446.85625 C 268.3575,448.85875 264.9225,455.2075 265.58875,456.83 C 265.83125,457.42 266.66625,458.275 267.91375,458.91625 L 269.6725,459.82 C 270.15875,460.07 269.6425,464.47125 270.12125,464.665 C 270.43625,464.7925 271.21875,464.0675 272.94,461.6925 C 272.94,461.6925 276.04375,457.40625 276.04375,457.40625 C 277,456.085 277.11375,455.8875 277.18125,455.43 z M 263.8925,472.46 L 269.83375,466.5225 L 263.8925,460.58375 L 257.95125,466.5225 L 263.8925,472.46 z M 274.24375,485.135 C 277.465,481.2125 279.81625,476.02875 279.3875,474.66375 L 275.94875,463.7225 L 270.51,475.15375 C 270.51,475.15375 271.2975,476.705 271.90125,477.99375 L 273.375,481.145 L 272.1025,481.885 C 271.7075,482.11375 271.12625,482.2825 270.34125,482.49875 C 265.805,483.7475 261.0775,483.43875 257.57375,479.79625 C 256.28125,478.4525 254.91625,476.97 254.3075,475.39875 C 253.4375,473.15125 255.54,469.07 254.5625,469.7325 C 254.13,470.025 253.6925,470.69625 253.5125,471.03625 C 250.14625,477.36625 247.6025,483.66375 253.53625,487.6525 C 253.75875,487.8025 253.995,487.95125 254.24,488.09625 C 260.25875,491.6725 270.215,490.04 274.24375,485.135 z"
     style="fill:#ff0000;stroke:none" />
  <path
     style="fill:none;fill-opacity:1;fill-rule:evenodd;stroke:none;stroke-width:1;stroke-linecap:butt;stroke-linejoin:round;stroke-miterlimit:4;stroke-dasharray:none;stroke-dashoffset:0;stroke-opacity:1"
     d="M 169.99064,476.53654 C 228.27303,556.5817 340.53887,574.24426 420.58403,515.96188 C 500.62919,457.67949 518.29173,345.41365 460.00936,265.36848 C 401.72697,185.32332 289.46113,167.66077 209.41596,225.94315 C 129.3708,284.22553 111.70826,396.49137 169.99064,476.53654 z"
     id="circle" />
  <text
     xml:space="preserve"
     style="font-size:48px;font-style:normal;font-variant:normal;font-weight:normal;font-stretch:normal;text-align:start;line-height:100%;writing-mode:lr-tb;text-anchor:start;fill:#000000;fill-opacity:1;stroke:none;stroke-width:1px;stroke-linecap:butt;stroke-linejoin:miter;stroke-opacity:1;font-family:jawi;-inkscape-font-specification:jawi"
     id="death"
     sodipodi:linespacing="100%"><textPath
       xlink:href="#circle"
       id="textPath2396"
       dx="0 13.211403 9.9085531 11.946027 9.9085531 13.597451 11.946027 11.946026 13.597451">14.4.2010</textPath></text>
</svg>
