<?xml version="1.0"?>
<svg xmlns="http://www.w3.org/2000/svg" version="1.1">
  <path
     d="m 162.45089,38.03798 c 0.75734,-0.84982 3.14307,-7.87954 3.53923,-10.42898 0.59237,-3.81042 -0.53238,-8.33194 -4.41779,-10.90263 -0.22245,-0.14747 -0.4424,-0.26744 -0.6611,-0.36242 l -1.55342,-0.67361 -1.48092,0.91606 c -1.31972,0.81732 -2.35949,2.49445 -2.87438,4.3528 -0.12997,0.4699 -0.15621,1.22973 -0.10623,1.96832 l 0.14872,2.18203 1.8546,0.95979 c 1.23098,0.63736 2.61943,1.18349 3.07058,2.70441 l 0.30618,1.02727 -1.45218,0.61987 c -0.6811,0.28994 -1.54841,0.4674 -2.317,0.58737 -1.33721,0.20746 -2.71441,0.16871 -3.84416,-0.27744 -2.46321,-0.97479 -3.00435,-2.20702 -4.41779,1.02478 -1.3847,3.16681 -1.86959,7.27092 0.4549,8.75059 1.70338,1.08477 3.05434,1.15225 5.08765,0.81733 2.16327,-0.35743 8.04699,-2.57444 8.66311,-3.26554 z m -26.64795,-6.8835 c 0.32868,0.34492 0.30243,1.42968 0,1.90583 -0.96479,1.52217 -6.82976,-2.16328 -7.74082,-3.57422 -0.54863,-0.84732 -0.39366,-1.6209 0.83982,-2.13704 1.42594,-0.59862 4.75147,1.54842 6.901,3.80543 z m -17.61117,18.25227 -7.01223,-0.47989 c -3.42425,-0.23495 -0.2087,1.72837 6.96974,4.07286 0.72609,0.23745 1.34846,0.51989 2.07955,0.76109 1.64339,0.54113 6.98973,0.92854 8.34818,0.60361 3.96539,-0.94854 11.38752,-10.15279 13.10965,-15.10546 1.85834,-5.34758 0.63736,-9.12051 -1.49093,-14.36687 -0.54113,-1.33221 -1.46718,-2.9806 -2.43572,-3.75918 -1.49342,-1.20099 -4.09036,-2.41573 -4.09036,-2.41573 0,0 -4.11535,4.71398 -6.35861,7.94202 -3.57048,5.13764 -4.79896,10.89013 0.57737,13.20463 0.88981,0.38242 2.84813,0.38242 3.63671,0 0.98978,-0.48115 3.6642,-2.90687 4.42279,-2.41697 0.36242,0.23245 0.26244,1.15849 0,2.01706 -0.11748,0.38491 -0.56113,1.06102 -1.11101,1.77086 -2.46571,3.17931 -8.00451,7.04222 -11.14008,7.69208 -0.63986,0.13372 -1.29846,0.2362 -1.89958,0.32868 -1.6184,0.24744 -1.97832,0.26244 -3.60547,0.15121 z m 32.82786,-45.60757 -5.3176,5.31759 5.3176,5.31759 5.31759,-5.31634 -5.31759,-5.31884 z M 117.72812,1.53967 c -0.25369,0.33243 -0.51114,0.7061 -0.73234,1.07602 -0.81483,1.36095 -1.72838,4.52151 -1.75462,6.07117 -0.0887,5.22137 0.4549,18.76092 1.03727,22.77505 l 0.64236,4.42654 1.82586,-4.23658 c 0.35992,-0.83607 0.7136,-1.85085 0.96604,-2.77315 2.12579,-7.77706 2.31075,-15.83655 -0.10248,-25.9481 L 118.91036,0 117.72812,1.53967 z M 54.616847,0 c 0,0 -1.848348,2.13204 -3.154314,3.29304 -1.734622,1.54091 -5.227612,1.12975 -6.822265,-0.78983 -0.483645,-0.58362 -0.939796,-1.16475 -0.939796,-1.16475 0,0 -1.258476,1.21224 -2.505705,2.28451 -0.949793,0.81732 -1.892088,1.55216 -2.267006,1.6084 C 38.772794,5.25507 38.575337,5.18387 38.360384,5.04266 36.557026,3.86041 35.709711,2.58694 35.366036,1.80336 L 35.0686,1.12476 34.442487,1.67089 c -1.905836,1.66464 -3.717941,5.47756 -3.752934,7.85329 -0.01125,0.7061 0.09873,1.29972 0.296186,1.79211 0.791078,1.96582 3.250542,2.96061 5.072646,2.0608 0.942295,-0.4649 1.733373,-1.28722 2.441969,-1.87459 l 1.232231,-1.02103 0.716095,0.56238 c 1.297217,1.01603 3.465496,1.28222 5.156378,1.04227 C 49.399232,11.54874 53.814521,6.27739 54.458131,1.50468 54.574356,0.64861 54.616847,0 54.616847,0 z m 4.517767,43.84796 -5.316343,5.3176 5.317592,5.31759 5.317593,-5.31634 -5.318842,-5.31885 z m 44.990216,-3.38801 0.0537,0.55988 c 0.11747,-0.32743 0.24744,-0.69985 0.38616,-1.10976 0.14247,-0.18871 0.28119,-0.38367 0.41616,-0.58237 l -0.002,-0.66361 c 1.36346,-4.17159 3.20805,-10.39274 3.23555,-10.97386 0.0987,-2.0558 -0.84732,-7.30216 -1.77587,-10.48147 -0.0837,-0.28619 -0.15871,-0.62236 -0.2237,-0.98729 l -0.74858,-4.23657 1.61589,-3.40051 c 0.27245,-0.57613 0.55863,-1.12601 0.81858,-1.60715 l 0.73609,-1.35971 -1.56966,-0.65611 C 105.91865,4.48153 104.309,3.76419 103.20424,2.14079 102.51689,1.13226 101.99325,0 101.99325,0 c 0,0 -1.90208,1.36221 -2.978104,2.46947 -1.08601,1.1185 -1.55841,2.87437 -1.55841,4.66398 0,1.35596 0.63236,3.13557 1.40969,4.01913 l 1.544674,1.75961 0.44615,2.91312 c 0.55113,3.60172 1.38845,9.29173 1.94583,13.17088 l 0.60236,4.19784 -4.062864,0.52239 c -0.71485,0.0112 -1.55841,0.007 -2.23701,-0.0487 -2.55195,-0.20746 -4.877693,-1.86335 -5.577541,-3.82667 l -0.526135,-1.47593 1.427189,-3.10557 c 1.363457,-2.96311 2.614427,-4.79271 -0.432406,-6.4211 C 88.33497,16.88262 80.679136,14.27694 77.406098,12.21489 73.138277,9.52547 73.368227,9.01558 69.379095,8.19201 64.081497,7.0985 61.883226,7.76336 58.980107,12.21489 c -1.339708,2.05455 -1.957074,4.62024 0.334928,5.69876 1.215985,0.57112 3.153063,0.59112 4.771461,0.94604 l 4.401543,0.96479 -5.095142,1.24973 c -6.558573,1.60965 -18.216036,4.46903 -19.515753,5.41007 -0.923549,0.66986 -5.383829,6.33862 -2.651923,8.18947 0.637361,0.43116 1.712127,0.78858 2.450717,0.67485 0.628613,-0.0962 2.673168,-0.64486 4.701477,-0.87106 0.893555,-0.1 4.710225,0.96729 7.823297,2.21202 L 44.90692,37.76183 c -1.51842,0.17246 -3.850412,0.25119 -6.126167,0.28619 -6.452346,0.1 -14.79803,-2.72566 -16.320199,-5.83374 -0.838568,-1.71462 -2.909367,-16.63763 -2.909367,-16.63763 0,0 -2.403227,1.74962 -3.452999,3.34178 -0.362421,0.55238 -0.434905,1.76086 -0.543631,2.87562 l -0.222452,2.26326 -2.676918,0.6886 c -0.933546,0.23995 -1.993316,0.51239 -2.9218644,0.87731 -2.783144,1.09351 -9.26923268,7.96327 -9.69289048,10.24527 -0.4773961,2.57444 3.34427228,5.58129 7.68332848,5.84498 1.817104,0.10997 3.4767434,-0.4749 5.9587034,-1.79211 1.272223,-0.67486 2.875624,-1.59341 2.875624,-1.59341 0,0 1.002282,2.40323 1.88584,3.72044 1.763366,2.62818 9.459192,5.84998 12.368559,6.23115 7.433382,0.97479 16.473915,-2.62068 23.812318,-4.22033 3.423005,-0.74609 7.795804,-1.08727 10.289011,-0.80483 1.69963,0.19371 3.005596,0.40491 4.067865,0.54238 l 2.909367,0.37367 1.420941,-0.97478 c 0.679852,-0.46615 1.390947,-1.186 2.292001,-2.25826 1.084764,-1.29222 3.011845,-4.53652 1.132254,-6.15241 -0.284938,-0.2437 -0.676103,-0.34868 -1.117257,-0.44616 -5.797489,-1.28347 -6.553574,-0.4349 -10.34275,-2.92061 l -1.700879,-1.11476 3.911648,-0.90355 c 2.701912,-0.62487 6.276135,-1.39845 8.846825,-1.76587 2.16328,-0.30868 6.261138,-0.11247 8.558138,1.11351 l 1.623397,0.86606 -0.408661,4.89394 c -0.04874,0.56862 -0.05874,1.126 0.01,1.62714 0.199956,1.47218 2.913116,5.82498 4.020375,6.58357 3.204303,2.19827 10.17404,1.08851 12.72973,-1.00478 0.44116,-0.36117 0.86106,-0.78358 1.25848,-1.25348 z m -89.031883,-11.0051 0,3.4405 -1.47218,0.75983 c -1.895837,0.97729 -3.58422,0.9473 -4.4002924,0.16497 -1.299717,-1.24723 0.121223,-3.18931 3.0568354,-3.78918 l 2.815637,-0.57612 z"
     style="fill:#000000;stroke:none" />
</svg>
