<?xml version="1.0"?>
<svg xmlns="http://www.w3.org/2000/svg" version="1.1">
  <path
     d="m 13.790333,28.95223 c 0.610468,-0.78496 1.33093,-1.75616 2.229882,-2.98484 1.607166,-2.19864 2.583489,-4.15479 3.064214,-5.36722 l 0.893453,-2.25488 2.284004,-0.53747 c 1.90315,-0.44748 4.121033,-0.54873 5.341343,-1.62242 0.172616,-0.15249 2.699983,-5.27597 2.163261,-7.43086 C 29.437758,7.43461 27.223124,4.67351 26.490788,4.09979 24.026043,2.16864 18.697074,0 18.697074,0 c 0,0 -0.772709,1.11245 -1.655038,2.63612 -5.59783,9.66449 -3.878545,11.76937 -1.088192,13.92051 1.070568,0.86246 1.692286,1.9299 1.481297,2.64611 -0.05475,0.18499 -0.163617,0.41373 -0.314734,0.67122 C 6.7643281,34.35444 -3.2432696,38.24424 0.99888239,37.37178 6.2496052,36.29184 12.920379,30.07092 13.790333,28.95223 z m 2.454245,-17.43408 c -0.424977,-0.24999 -0.697963,-0.45248 -0.700588,-0.46498 -0.117119,-0.56122 0.06337,-1.81365 0.06337,-1.81365 0,0 1.938523,0.0675 2.614738,0.0912 0.470725,0.0162 0.686588,0.59997 0.779334,1.12619 0.590343,3.35733 -2.566115,1.17244 -2.756855,1.0612 z m 4.771499,1.04369 0.145492,-0.9412 c 0.162742,-1.05119 0.143368,-2.26238 -0.0775,-3.18233 -0.0027,-0.0113 -0.0055,-0.0225 -0.0083,-0.0337 0,0 0.02112,-0.60622 0.02112,-0.60622 0,0 0.251612,-0.0225 0.583095,-0.0175 1.050694,0.015 2.415372,0.9462 3.171457,1.63742 1.183938,1.08369 1.883776,2.8511 -0.348981,2.96609 -0.803708,0.04 -1.80403,0.0912 -2.503368,0.12749 l -0.983073,0.05 z"
     style="fill:#000000;stroke:none" />
</svg>
