<?xml version="1.0" encoding="UTF-8" standalone="no"?>
<svg>
  <path
     style="fill:#000000;stroke:none"
     d="m 7.088267,10.480046 c 0.3055,-0.165 0.648875,-0.47875 0.96325,-0.8150003 1.54975,-1.65125 1.454875,-1.3 3.78975,-1.45625 0.821375,-0.055 1.470625,0.03875 1.525,0.92875 0,0 0.04325,0.7075 0.04325,0.7075 0,0 -1.1255,0.06 -2.33625,0.125 -5.75775,0.3987503 -8.76725,1.7925003 -10.35625002,8.7462503 -0.46275,2.025 -0.738125,3.95125 -0.71575,4.81125 0.07575,2.91625 1.56100002,8.92 2.50662502,13.11 l 1.085375,4.78875 1.90975,-4.49875 c 0.14,-0.51375 0.2665,-0.93 0.324875,-1.4425 0.15975,-1.4 -1.747125,-9.6575 -2.807875,-14.45 -0.247375,-1.1175 -0.238125,-1.27875 0.09287,-1.61 0.422125,-0.42125 1.579375,-1.035 2.146625,-1.18 0.622875,-0.15875 0.818625,-0.18875 1.957625,-0.29875 l 10.29525,-0.76875 c 0,0 0.479125,-2.72125 1.154625,-4.68125 0.8325,-2.41625 1.963125,-3.6762503 1.817625,-4.9950003 -0.18975,-1.71875 -3.03875,-5.55875 -4.64425,-6.50875001 -2.608875,-1.5449996 -4.270125,-1.3375 -5.672125,0.98375001 -0.952875,1.5775 -1.883,3.565 -2.22775,5.23125 -0.1575,0.76125 -0.646125,2.69625 -0.85225,3.2725003 z" />
</svg>
