<?xml version="1.0" encoding="UTF-8" standalone="yes"?>
<svg xmlns="http://www.w3.org/2000/svg" xmlns:xlink="http://www.w3.org/1999/xlink"
  width="595.276pt" height="841.89pt" viewBox="0 0 595.276 841.89">
  <path
     style="fill:#000000;stroke:none"
     d="m 93.593756,32.393166 c 0.60592,-0.679904 2.51464,-6.303105 2.8326,-8.342809 0.473928,-3.048568 -0.426944,-6.666048 -3.535496,-8.722752 -0.176976,-0.117984 -0.353952,-0.213968 -0.527928,-0.28996 l -1.243816,-0.53892 -1.184832,0.732888 c -1.055848,0.652912 -1.887729,1.99572 -2.299673,3.482504 -0.103984,0.375944 -0.124984,0.982864 -0.08399,1.574776 l 0.117984,1.744752 1.483793,0.767888 c 0.984856,0.509928 2.095696,0.947864 2.457648,2.163688 l 0.24396,0.822888 -1.161832,0.494928 c -0.54492,0.232968 -1.238824,0.374944 -1.853736,0.470929 -1.069841,0.165984 -2.171689,0.134984 -3.075561,-0.222969 -1.970712,-0.778888 -2.403656,-1.764744 -3.534488,0.820889 -1.107848,2.53364 -1.495792,5.817168 0.363944,7.001 1.363808,0.867872 2.443648,0.921864 4.070416,0.653904 1.731752,-0.28596 6.439081,-2.060704 6.931009,-2.613624 z M 76.849157,1.7685414 c -0.202976,0.26596 -0.408944,0.56492 -0.58592,0.86088 -0.651904,1.08884 -1.3828,3.61748 -1.4038,4.857304 -0.07096,4.1773996 0.363952,15.0098556 0.82988,18.2213916 l 0.513928,3.541497 1.460792,-3.389521 c 0.28796,-0.668904 0.57092,-1.480784 0.772888,-2.21868 1.700758,-6.222112 1.848734,-12.670184 -0.08198,-20.7600316 L 77.795021,0.53671738 76.849157,1.7685414 z M 60.799453,27.99879 l 1.708752,-2.144689 0.724896,1.401801 0.58692,1.134832 -2.566632,0.949864 -2.161696,0.800888 1.70776,-2.142696 z M 65.896725,0.53971738 c -0.348952,-0.06896 -1.177832,0.89287202 -1.662768,1.78174402 -1.10884,2.034712 -2.014712,4.038424 -1.590768,5.730184 0.333952,1.331808 1.532776,2.5506316 2.003712,4.0814156 0.28096,0.914872 0.158976,3.593488 -0.220968,4.859304 l -0.510928,1.69976 -1.311816,-1.568776 c -0.190968,-0.228968 -0.372944,-0.490936 -0.53992,-0.750896 -0.766888,-1.187832 -1.232824,-2.308672 -1.991712,-3.34752 -2.505648,-3.4295116 -8.446793,-6.8490236 -12.839169,-7.5069276 -1.614768,-0.241968 -2.050704,0.466936 -2.475648,2.130696 -0.913864,3.5744876 0.32496,9.9375756 4.50536,8.9477196 1.054848,-0.24996 2.201688,-0.999856 3.122552,-1.020856 1.646769,-0.038 5.948153,4.184408 6.856025,5.195256 0.728888,0.812888 1.228824,1.848736 1.174832,2.437656 -0.054,0.587912 -2.968576,4.094417 -4.004432,4.819313 -2.570632,1.796744 -3.446505,2.005712 -3.978433,4.131408 -0.717896,2.869592 -0.164976,3.165544 2.090705,2.922584 0.789888,-0.08499 1.717752,-0.165976 2.388656,-0.456936 l 1.760752,-0.765896 0.964856,0.103992 c 1.276824,0.138976 2.933584,0.446936 3.65548,0.26796 1.636768,-0.406944 3.422512,-3.248536 3.593488,-4.50836 0.136976,-1.003856 -0.669904,-4.487353 -0.993856,-6.737033 l -0.263968,-1.825744 1.11184,-2.410648 c 0.825888,-1.790744 1.806744,-4.999288 2.011712,-6.531072 0.102992,-0.770888 0.220976,-1.536776 0.447936,-2.2516716 0.347952,-1.097848 0.978864,-2.208688 1.206832,-3.222544 l 0.364944,-1.629768 -1.487784,-0.926864 c -0.458936,-0.28596 -0.987856,-0.59192 -1.431792,-1.14784 -0.692904,-0.867872 -1.491792,-2.40765602 -1.95572,-2.49964002 z m 43.120835,18.70832762 4.67632,-0.08199 2.38366,1.027856 c 0,0 -4.79231,3.027568 -6.82702,3.773456 -0.83988,0.30696 -1.12684,0.09799 -2.0937,-0.579912 -1.45479,-1.018856 -3.01757,-2.197688 -3.43451,-2.984576 -0.27896,-0.524928 -0.33095,-2.720608 -0.36195,-4.984288 0.14498,-9.6156236 -2.60763,-15.80973562 -1.97072,-15.12183962 -0.89087,-0.961856 -1.666756,0.60492 -2.132692,1.97872002 -0.55792,1.643768 -1.049848,3.183544 -1.12384,4.852304 -0.076,1.71376 1.808744,6.7110396 2.160692,10.6484796 0.53892,6.031136 -0.809884,8.015856 2.62063,11.726321 2.24368,2.425656 6.42308,6.338096 8.3938,5.541208 0.38094,-0.153976 4.58434,-5.107264 4.46136,-6.12612 -0.052,-0.426944 -0.63291,-0.902872 -1.3958,-1.14384 -0.88987,-0.28096 -2.26368,-0.941864 -2.33167,-1.330809 -0.038,-0.218968 -0.008,-0.482928 -0.008,-0.482928 l 15.14784,0.176976 c 1.30481,0.01496 1.53877,-0.04 2.34266,-0.548928 0.59591,-0.377944 1.03386,-0.751888 1.56578,-1.409792 1.15583,-1.4298 2.75761,-4.2004 2.75761,-4.2004 0,0 -4.72333,-1.4318 -7.46894,-2.724616 -1.44879,-0.680896 -2.34667,-1.323808 -3.17855,-2.118696 -0.52292,-0.500928 -1.01985,-1.061848 -1.56877,-1.578776 -1.43079,-1.3488 -4.8953,-2.405656 -6.87802,-1.983712 -2.02571,0.429936 -3.15355,1.560776 -4.65633,3.747464 -0.55192,0.803888 -1.05985,1.836736 -1.09984,2.7686 -0.023,0.524928 0.02,1.15984 0.02,1.15984 z m 13.47107,7.391944 -4.25439,4.254385 4.25539,4.254392 4.25339,-4.253392 -4.25439,-4.255385 z M 40.32738,25.462157 c 0.26296,0.27596 0.24096,1.143832 0,1.524777 -0.772896,1.217832 -5.465224,-1.730753 -6.19412,-2.858593 -0.437936,-0.678896 -0.313952,-1.297808 0.671904,-1.710752 1.14184,-0.478928 3.801456,1.238824 5.522216,3.044568 z m -14.090985,14.602913 -5.6102,-0.383952 c -2.738608,-0.187968 -0.166976,1.382808 5.5762,3.258536 0.58192,0.189976 1.079848,0.415944 1.664761,0.608912 1.314816,0.432944 5.5922,0.742896 6.679048,0.482936 3.171544,-0.758896 9.110696,-8.12284 10.487496,-12.085272 1.487792,-4.278392 0.510928,-7.296961 -1.192824,-11.494361 -0.431936,-1.065848 -1.172832,-2.384656 -1.94872,-3.007568 -1.193832,-0.960864 -3.271536,-1.932728 -3.271536,-1.932728 0,0 -3.293528,3.771464 -5.088272,6.354096 -2.855592,4.110408 -3.838448,8.712753 0.462936,10.564489 0.710896,0.30596 2.278672,0.30596 2.909584,0 0.791888,-0.384944 2.930576,-2.325664 3.537496,-1.93372 0.289952,0.186968 0.209968,0.926864 0,1.613768 -0.09399,0.307952 -0.447936,0.84888 -0.88788,1.416792 -1.973712,2.54364 -6.40408,5.6342 -8.91272,6.15412 -0.512928,0.106984 -1.039856,0.188976 -1.520784,0.262968 -1.293817,0.197968 -1.582777,0.209968 -2.884585,0.120984 z M 20.833163,0.53671738 c 0,0 -1.520784,1.08984802 -2.381656,1.97572002 -0.86988,0.894872 -1.246824,2.299672 -1.246824,3.731464 0,1.084848 0.505928,2.50864 1.12684,3.215544 l 1.236824,1.4077916 0.356944,2.330672 c 0.440936,2.881584 1.11084,7.433936 1.555784,10.537488 l 0.589912,4.110417 -2.142696,0.759888 c -2.940576,1.044856 -8.818736,1.323816 -11.6703283,0.801888 -5.5972,-1.023856 -5.5872,-8.695753 -5.765176,-8.478785 -0.2669601,0.325952 -0.5319201,0.741888 -0.7578881,1.130832 -2.33067209,4.019432 -2.26368009,10.464505 -0.095992,12.905161 2.3606641,2.656616 7.3329522,4.074416 11.3063844,2.989568 3.498504,-0.954864 8.263816,-3.180544 9.894584,-5.542208 1.3988,-2.026704 2.935584,-8.963713 2.971576,-9.721609 0.07896,-1.64476 -0.678904,-5.84216 -1.421792,-8.3858 -0.06696,-0.228968 -0.125984,-0.497928 -0.177976,-0.789888 l -0.59992,-3.389512 1.292816,-2.7206156 c 0.218968,-0.460928 0.446936,-0.900872 0.655912,-1.285816 l 0.587912,-1.08784 -1.255816,-0.524928 c -0.917872,-0.383944 -2.205688,-0.957864 -3.09056,-2.256672 -0.54892,-0.806888 -0.968864,-1.71276002 -0.968864,-1.71276002 z" />
</svg>
