<?xml version="1.0" encoding="UTF-8" standalone="no"?>
<svg>
  <path
     style="fill:#000000;stroke:none"
     d="M 28.774302,23.71129 26.060552,1.00376 c 0,0 -3.81501,4.26625 -4.55876,5.90875 -0.3875,0.85626 2.56251,15.25627 2.34001,17.33378 -0.0713,0.66875 -2.52876,3.3825 -3.48376,3.84625 -2.1925,1.0675 -13.5390183,4.19501 -15.7040213,-0.30125 -0.546626,-1.13625 -0.982126,-3.27 -0.982126,-3.27 0,0 -1.443752,1.6825 -2.232378,2.74 -1.15150195,1.54375 -1.98162795,4.27376 -1.01375195,6.17126 0.534501,1.0475 4.18513095,2.735 5.89825795,3.24875 2.581004,0.77376 9.2692593,-0.37 12.2227693,-2.54875 2.035,-1.5 5.13375,-5.13376 5.13375,-5.13376 0,0 0.63376,1.75001 1.37251,3.51251 0.8125,1.9375 5.2,4.26625 8.85376,4.78251 2.09,0.29625 3.97125,0.4875 4.5675,0.4025 9.98752,-1.41626 14.51627,-0.54 17.82378,-8.69752 2.03875,-5.025 0.075,-12.33126 -5.73751,-16.61127 -2.97375,-2.18875 -4.22125,-0.66875 -7.24876,2.71876 -2.14125,2.39625 -4.17875,5.30125 -4.33375,6.255 -0.1125,0.69125 1.95375,4.99001 2.51,5.22126 1.405,0.58625 3.54,0.30875 5.90001,-1.155 1.00875,-0.625 2.38875,-1.6 2.38875,-1.6 0,0 1.39,2.0625 1.99125,3.35875 0.95375,2.06 -0.15625,2.23875 -1.8125,2.71876 -2.37875,0.68875 -7.17376,1.63 -9.06001,1.51 -1.95875,-0.125 -6.32001,-1.175 -9.07376,-1.87876 -1.24251,-0.3175 -2.73751,-3.22625 -3.04751,-5.825 z m 15.57405,-5.98779 c 0.0681,-0.24602 0.528,0.14186 0.91407,0.45798 1.2888,1.0579 2.87092,2.36183 1.82816,3.2002 -0.89326,0.71914 -2.00227,-0.32172 -2.36563,-1.29257 -0.26305,-0.69833 -0.53936,-1.7884 -0.3766,-2.36561 z M 42.964322,0 l -5.38751,5.38751 5.38751,5.38751 5.38751,-5.38751 L 42.964322,0 z" />
</svg>
