<?xml version="1.0" encoding="UTF-8" standalone="yes"?>
<!-- Created with sK1/UniConvertor (http://sk1project.org/) -->
<svg xmlns="http://www.w3.org/2000/svg" xmlns:xlink="http://www.w3.org/1999/xlink"
  width="595.276pt" height="841.89pt" viewBox="0 0 595.276 841.89">
  <path
     d="m 90.579447,1.2319629 c -0.204,0.266 -0.41,0.565 -0.587,0.862 -0.651999,1.088999 -1.382999,3.616998 -1.403999,4.856998 -0.07,4.1779981 0.364,15.0119931 0.83,18.2249911 l 0.513999,3.541999 1.461,-3.390999 c 0.288,-0.668999 0.571999,-1.480999 0.773999,-2.218999 1.7,-6.222997 1.849,-12.670994 -0.083,-20.7629901 L 91.524447,-3.6104905e-5 90.579447,1.2319629 z M 79.375451,0.0039639 c -0.347999,-0.07 -1.177999,0.891999 -1.662999,1.780999 -1.108999,2.034999 -2.014999,4.038998 -1.590999,5.730997 0.334,1.332 1.533999,2.5519991 2.003999,4.0819981 0.281,0.915 0.16,3.593999 -0.221,4.859998 l -0.511,1.700999 -1.310999,-1.569999 c -0.192,-0.229 -0.373,-0.491 -0.541,-0.750999 -0.767,-1.188 -1.231999,-2.308999 -1.990999,-3.347999 C 71.044455,9.0599599 65.101458,5.6399609 60.70846,4.9819609 c -1.614999,-0.241999 -2.050999,0.467 -2.475999,2.130999 -0.914,3.5759991 0.325,9.9389961 4.505998,8.9489961 1.054999,-0.249999 2.201999,-0.999999 3.122998,-1.020999 1.647,-0.038 5.948998,4.184998 6.856997,5.195998 0.73,0.812999 1.229,1.848999 1.175,2.437998 -0.054,0.588 -2.967999,4.094999 -4.004998,4.819998 -2.570999,1.796999 -3.446999,2.005999 -3.978999,4.131998 -0.717999,2.869999 -0.163999,3.165999 2.090999,2.922999 0.79,-0.085 1.719,-0.166 2.388999,-0.457 l 1.761,-0.765999 0.964999,0.105 c 1.277,0.138 2.933999,0.445999 3.655999,0.266999 1.636999,-0.406999 3.422999,-3.248998 3.594999,-4.508998 0.136,-1.003999 -0.670001,-4.487997 -0.995001,-6.737996 l -0.264,-1.826 1.113001,-2.410999 c 0.825999,-1.790999 1.805999,-4.999997 2.010999,-6.531997 0.103,-0.770999 0.221,-1.536999 0.448,-2.2519991 0.348,-1.097999 0.978999,-2.208999 1.206999,-3.222998 l 0.365,-1.629999 -1.487999,-0.927 c -0.458,-0.286 -0.988,-0.592 -1.432,-1.147999 -0.692999,-0.867 -1.492,-2.406999 -1.956,-2.498999 z m -5.097997,27.4619871 1.709999,-2.144999 0.724,1.402 0.586999,1.134999 -2.566999,0.95 -2.161999,0.800999 1.708,-2.142999 z M 25.232476,17.959956 c -0.009,-0.014 -0.017,-0.028 -0.026,-0.042 l -1.554999,-2.545999 -1.447,1.136999 c -0.845999,0.664 -1.500999,1.937999 -1.874999,3.116999 -0.261,0.823999 -0.139,2.727999 0.242,3.781998 0.374,1.034 0.960999,2.072999 1.461999,2.951999 l 1.194,2.094999 -0.739,1.214999 c -1.620999,2.666999 -6.841997,7.344997 -9.566996,8.323997 -5.6309969,2.021999 -13.82699323,3.182998 -12.83999366,3.431998 2.78499876,0.704 9.66799546,1.902999 12.59799366,2.117999 4.353999,0.32 4.590998,-0.734 8.386997,-5.595997 3.062998,-3.921999 4.305998,-5.347998 5.074997,-9.779996 l 0,0.06 c 0.047,-0.07 0.094,-0.127 0.139,-0.17 0.642,-0.601 1.594,-0.801 2.483999,-1.464999 0.842,-0.628 2.320999,-2.379999 2.747999,-3.458999 0.399,-1.007999 0.793,-2.822998 0.793,-2.822998 0,0 0.603999,6.653996 1.240999,8.586996 0.296,0.897999 1.113,2.646998 2.023999,3.841998 1.125,1.472999 4.839998,2.028999 7.587997,1.030999 2.474999,-0.898999 6.918997,-2.768998 9.964995,-3.672998 l 1.876999,-0.557 1.157,0.177 c 0.631,0.097 1.263999,0.257 1.818999,0.204 0.708,-0.068 2.582999,-1.497999 4.084998,-2.993998 1.04,-1.036 2.151999,-3.154999 2.112999,-4.076999 -0.018,-0.429999 -0.051,-0.768999 -0.051,-0.768999 0,0 -2.289999,0.259 -4.194998,0.07304 -1.032999,-0.101 -9.524996,-5.400998 -11.295995,-5.885998 -0.763999,-0.209 -4.553998,0.397 -5.381997,0.861 -1.284,0.719 -5.269998,4.608998 -3.763999,5.864997 0.362,0.303 1.845,-0.111 3.227999,-0.056 0.898,0.03496 2.517999,0.622 3.799998,1.237 l 1.917999,0.919999 -1.872999,0.664 c -0.179,0.06296 -0.397,0.139 -0.668,0.233 -4.415998,1.528999 -5.596997,2.336999 -7.827996,-0.733 -0.561,-0.772999 -1.069,-1.606999 -1.302999,-2.612999 -0.667,-2.858998 0.604999,-6.524997 -1.059,-8.768996 -1.672999,-2.253999 -4.225998,2.821999 -5.136998,4.727998 -0.289999,0.609 -0.484999,0.931 -0.777999,1.065 -4.201998,1.198999 -5.035998,-2.502999 -4.553998,-1.710999 z m 6.410997,18.649991 -2.914999,-2.915999 -4.254998,4.254999 4.254998,4.255998 2.915999,-2.915999 2.915999,2.915999 4.253998,-4.254998 -4.254998,-4.255999 -2.915999,2.915999 z M 47.431466,4.2999619 43.176468,8.5549599 47.432466,12.809958 51.686464,8.5559599 47.431466,4.2999619 z M 145.60442,16.332956 c -0.846,0.664 -1.5,1.938999 -1.874,3.117999 -0.261,0.824 -0.14,2.726999 0.242,3.781998 0.374,1.033 0.96,2.072999 1.462,2.950999 l 1.194,2.095999 -0.739,1.214999 c -1.622,2.666999 -6.84199,7.344997 -9.56699,8.322997 -5.631,2.022999 -13.828,3.182998 -12.841,3.432998 2.786,0.703 9.668,1.901999 12.599,2.116999 4.35299,0.32 4.59099,-0.733 8.38699,-5.595997 3.688,-4.722998 4.738,-5.824998 5.497,-12.917995 0.359,-3.353998 0.171,-4.608997 -1.357,-7.111996 l -1.556,-2.544999 -1.447,1.135999 z m -20.52299,17.185993 -4.255,4.254998 4.256,4.254998 4.254,-4.254998 -4.255,-4.254998 z m -8.89799,-12.434995 c -1.058,-0.195 -2.126,-0.5 -3.395,-0.937999 -1.473,-0.507 -2.047,-0.753 -2.199,-1.574 -0.231,-1.237999 1.11,-7.631996 0.823,-8.301996 -0.283,-0.6610001 -4.354,-2.6419991 -6.357,-2.8429991 -3.369,-0.339 -7.149996,2.5869991 -7.732996,6.3529971 -0.136,0.877 -0.108,2.886999 0.484,3.387999 0.748999,0.634 2.737996,1.130999 2.737996,1.130999 0,0 -2.507996,3.214999 -3.946996,5.469998 -0.593999,0.932 -1.091999,1.890999 -1.515999,2.856999 -1.682999,3.827998 -2.575999,10.334995 -1.858999,13.376994 1.797999,7.632996 10.739994,13.840993 16.194994,13.197994 1.657,-0.195 3.664,-0.462 5.679,-0.769 6.56199,-0.999 9.48199,-2.756999 10.80599,-3.937998 l 1.86,-1.658999 -4.076,-0.264 c -2.133,-0.138 -5.058,-0.242 -7.78899,-0.256 -7.006,-0.03696 -11.744,-0.948 -15.675,-5.156998 -4.236995,-4.536998 -4.115995,-6.053997 -2.174996,-11.109995 0.489999,-1.275999 2.000996,-3.209998 3.061996,-3.953998 0.173,-0.122 0.36,-0.252 0.563,-0.393 1.412,-0.983999 2.962,-1.940999 3.35,-1.793999 0.496,0.189 0.934,1.994999 1.966,3.001999 0.504,0.490999 1.206,0.854999 1.97,1.229999 3.619,1.776999 10.75899,0.353 13.57599,-0.315 0.368,-0.088 0.734,-0.171 1.084,-0.244 l 2.111,-0.445 1.73,0.633 c 0.56,0.205 1.191,0.457 1.836,0.722 2.804,1.149999 6.457,0.632 7.51,-1.007 0.731,-1.138999 1.439,-2.474999 1.992,-3.713998 0.431,-0.964 0.96099,-3.151999 1.16999,-4.551998 0.712,-4.756998 -2.95299,3.524998 -6.83899,2.179999 l -3.755,-1.298999 c 0,0 0.487,-1.457 0.775,-2.647999 0.997,-4.110998 -0.551,-0.28 -4.642,2.212999 -1.199,0.731999 -5.845,1.088999 -7.065,1.207999 -0.815,0.07904 -1.56399,0.151 -2.25799,0.213 z m -6.822,15.350993 -2.915,-2.915998 -4.255,4.254998 4.256,4.254998 2.915,-2.915999 2.916,2.915999 4.255,-4.254998 -4.256,-4.254998 -2.916,2.915998 z"
     style="fill:#000000;stroke:none" />
</svg>
