<?xml version="1.0" encoding="UTF-8" standalone="yes"?>
<svg xmlns="http://www.w3.org/2000/svg" xmlns:xlink="http://www.w3.org/1999/xlink"
  width="595.276pt" height="841.89pt" viewBox="0 0 595.276 841.89">
  <path
     style="fill:#000000;stroke:none"
     d="m 33.0019,18.380004 c 1.423688,-0.138968 2.700408,-0.280936 3.798168,-0.420912 1.539664,-0.195952 3.060328,-0.408904 4.336048,-0.855808 0.36292,-0.126976 0.721848,-0.271944 1.068768,-0.416912 l 2.548441,-1.061768 2.266504,1.444688 c 0.881808,0.561872 1.892592,1.214736 2.846384,1.702624 5.947697,3.045337 10.793633,0.012 17.889082,-1.774608 2.142528,-0.538888 8.40516,-1.037776 10.340737,-0.822824 0.485896,0.054 0.9218,0.111976 1.321712,0.156968 l 2.253503,0.257944 1.071768,-0.9088 c 1.190736,-1.010784 2.936352,-3.201304 3.330272,-4.783952 l 0.438904,-1.7596173 -2.133536,-0.475896 c -0.797824,-0.17796 -1.8236,-0.258944 -3.020336,-0.473896 C 79.70068,7.8882997 77.005271,6.7655477 74.842743,5.5738027 67.637319,1.6006748 60.91779,-3.0383096 56.52875,2.6604429 c -1.865592,2.4224718 -2.675417,4.9789128 -0.456896,5.7887358 0.8958,0.326928 2.823376,-0.156968 4.521008,0.03896 0.37492,0.04296 1.218736,0.235944 2.02556,0.53488 l 4.126097,1.5246653 -4.643985,1.325712 c -0.899808,0.256944 -1.770616,0.431904 -2.02456,0.471896 -1.222728,0.19196 -2.123536,0.16796 -3.400256,-0.03 -0.962784,-0.148968 -2.760393,-0.714848 -4.182081,-1.256728 l -2.38048,-0.9078 0.753832,-1.4986733 c 0.435904,-0.865807 0.9008,-1.819599 0.55588,-2.174519 -0.36592,-0.37692 -2.92736,2.041551 -6.859496,3.372256 C 40.187324,11.330508 33.331828,11.73942 28.105971,11.89938 21.861339,12.09034 13.258218,11.8174 11.180674,11.320508 4.8230656,9.7998437 3.6443215,7.1024357 3.3653855,4.5679867 3.1504335,2.6154109 3.0454575,0.0829707 3.0454575,0.0829707 c 0,0 -1.5606642,3.179304 -2.21652023,4.889928 -0.81581608,2.129537 -1.14574411,5.5517853 -0.45189605,7.9192653 0.46089605,1.571656 1.80060018,3.135312 4.09610438,4.38604 3.1073203,1.693632 17.3801934,2.19452 28.5287544,1.10176 z M 94.557432,1.1367788 c -0.845816,0.663856 -1.500672,1.9375759 -1.874592,3.1163119 -0.260944,0.823824 -0.138968,2.726409 0.241944,3.781176 0.37392,1.032776 0.960792,2.0725453 1.46168,2.9513533 l 1.193744,2.094544 -0.73884,1.214736 c -1.620648,2.666416 -6.840504,7.343393 -9.564905,8.322177 -5.628767,2.02156 -13.824976,3.182304 -12.837192,3.431248 2.784392,0.703848 9.66588,1.901584 12.59524,2.117536 4.353049,0.318928 4.590001,-0.73384 8.386169,-5.594776 3.686192,-4.721969 4.73696,-5.824721 5.495793,-12.9161703 0.35892,-3.352271 0.170968,-4.607992 -1.357705,-7.1094478 L 96.004112,2.6695327e-5 94.557432,1.1367788 z m -26.760145,18.5729372 -4.254073,4.254065 4.255073,4.254072 4.253064,-4.254072 -4.254064,-4.254065 z m -32.952787,0 -4.253073,4.254065 4.254073,4.254072 4.254064,-4.254072 -4.255064,-4.254065 z" />
</svg>