<?xml version="1.0"?>
<svg xmlns="http://www.w3.org/2000/svg" version="1.1">
  <path
     style="fill:#000000;stroke:none"
     d="m 41.252371,22.975048 c 1.77961,-0.17371 3.37551,-0.35117 4.74771,-0.52614 1.92458,-0.24494 3.82541,-0.51113 5.42006,-1.06976 0.45365,-0.15872 0.90231,-0.33993 1.33596,-0.52114 l 3.18555,-1.32721 2.83313,1.80586 c 1.10226,0.70234 2.36574,1.51842 3.55798,2.12828 7.43462,3.80667 13.49204,0.015 22.36135,-2.21826 2.67816,-0.67361 10.50645,-1.29722 12.92592,-1.02853 0.60737,0.0675 1.15225,0.13997 1.65214,0.19621 l 2.816879,0.32243 1.33971,-1.136 c 1.48842,-1.26348 3.67044,-4.00163 4.16284,-5.97994 l 0.54863,-2.19952 -2.66692,-0.59487 c -0.99728,-0.22245 -2.2795,-0.32368 -3.77542,-0.59237 -2.072049,-0.3736696 -5.441309,-1.7771096 -8.144469,-3.2667896 -9.00678,-4.96641 -17.40619,-10.76514 -22.89249,-3.6417 -2.33199,3.02809 -3.34427,6.22364 -0.57112,7.2359196 1.11975,0.40866 3.52922,-0.19621 5.65126,0.0487 0.46865,0.0537 1.52342,0.29493 2.53195,0.6686 l 5.15762,1.90583 -5.80498,1.65714 c -1.12476,0.32118 -2.21327,0.53988 -2.5307,0.58987 -1.52841,0.23995 -2.65442,0.20995 -4.25032,-0.0375 -1.20348,-0.18621 -3.45049,-0.89356 -5.2276,-1.57091 l -2.9756,-1.13475 0.94229,-1.87334 c 0.54488,-1.0822596 1.126,-2.2744996 0.69485,-2.7181496 -0.4574,-0.47115 -3.6592,2.5519396 -8.57437,4.2153196 -5.47006,1.85085 -14.03943,2.36199 -20.57175,2.56194 -7.80579,0.2387 -18.55969,-0.10248 -21.15662,-0.72359 -7.9470095,-1.90083 -9.4204395,-5.2725896 -9.7691095,-8.4406496 -0.26869,-2.44072 -0.39991,-5.60626996 -0.39991,-5.60626996 0,0 -1.95083,3.97412996 -2.77065,6.11240996 -1.01977001,2.66192 -1.43218001,6.9397296 -0.56487001,9.8990796 0.57612001,1.96457 2.25075001,3.91914 5.12013001,5.48255 3.88415,2.11704 21.7252395,2.74315 35.6609395,1.3772 z M 118.19678,1.4210184 c -1.05727,0.82982 -1.87584,2.42197 -2.34324,3.89539 -0.32618,1.02978 -0.17371,3.40801 0.30243,4.7264696 0.4674,1.29097 1.20099,2.59068 1.8271,3.68919 l 1.49218,2.61818 -0.92355,1.51842 c -2.02581,3.33302 -8.55063,9.17924 -11.95613,10.40272 -7.035959,2.52695 -17.281219,3.97788 -16.046489,4.28906 3.48049,0.87981 12.082349,2.37698 15.744049,2.64692 5.44131,0.39866 5.7375,-0.9173 10.48271,-6.99347 4.60774,-5.90246 5.9212,-7.2809 6.86974,-16.14521 0.44865,-4.1903396 0.21371,-5.7599896 -1.69713,-8.8868096 L 120.00513,7.8435021e-5 118.19678,1.4210184 z m -33.450179,23.2161696 -5.31759,5.31758 5.31884,5.31759 5.31633,-5.31759 -5.31758,-5.31758 z m -41.19098,0 -5.31634,5.31758 5.31759,5.31759 5.31758,-5.31759 -5.31883,-5.31758 z" />
</svg>
