<?xml version="1.0" encoding="UTF-8" standalone="yes"?>
<svg xmlns="http://www.w3.org/2000/svg" xmlns:xlink="http://www.w3.org/1999/xlink"
  width="595.276pt" height="841.89pt" viewBox="0 0 595.276 841.89">
  <path
     style="fill:#000000;stroke:none"
     d="M 37.556054,-3.6104905e-5 33.301345,4.2546723 37.557054,8.5093813 41.810762,4.2556723 37.556054,-3.6104905e-5 z M 25.91285,25.682206 c 0.164989,0.021 0.378974,0.054 0.656955,0.09899 1.602891,0.257982 3.202781,0.539963 4.842668,0.417971 0.916938,-0.06699 3.214781,-0.765947 5.27664,-1.141922 l 2.585823,-0.470968 1.494898,0.731951 c 0.42397,0.206985 0.850941,0.448969 1.30591,0.656954 1.328909,0.608959 10.975249,1.734882 13.898049,0.485967 3.665749,-1.566892 3.923731,-4.122717 5.681611,-1.831874 0.277981,0.360975 0.548962,0.684953 0.742949,0.999931 l 0.516965,0.839943 -0.59496,0.941936 c -0.443969,0.702951 -0.957934,1.270912 0.229984,1.189918 0.368976,-0.025 0.725951,-0.123992 1.084927,-0.229985 l 1.212917,-0.359975 3.448764,0.272982 c 1.352907,0.106992 2.817806,0.235984 4.043722,0.300979 3.383769,0.177988 9.649345,-1.046928 12.278161,-2.713815 2.010864,-1.275912 5.9076,-4.920662 5.409632,-6.907526 -0.462968,-1.845874 -5.656616,-5.128649 -6.612544,-5.210644 -1.25592,-0.107992 -5.077659,1.546895 -6.81754,2.689816 -1.778878,1.16892 -3.384768,3.022793 -4.832669,4.365701 l -2.576824,2.389837 -0.671953,-0.552963 c -4.358702,-3.590754 -3.607753,-5.39163 -3.869736,-5.647613 -0.410972,-0.403973 -3.030793,1.675885 -5.095651,4.080721 -0.699952,0.815944 -0.897939,0.906938 -1.970865,0.913937 -2.47783,0.016 -4.589686,0.102993 -7.419492,-0.308979 -2.288843,-0.331977 -5.25564,-0.979932 -5.25564,-0.979932 0,0 3.401766,-4.334704 3.908732,-5.55762 1.047928,-2.524827 -0.489967,-5.7406067 -2.910801,-7.7304707 -0.900939,-0.739949 -1.236915,-0.73595 -2.277844,0.08399 -2.699815,2.125855 -8.147443,8.1354437 -9.571345,12.0841727 -0.365975,1.012931 -0.503966,1.133922 -1.380905,1.210917 -1.357907,0.118992 -4.348703,-0.705952 -5.081653,-1.290912 -0.194987,-0.155989 -0.513965,-0.535963 -0.887939,-1.026929 -0.08099,-1.482899 -0.508965,-2.580823 -1.498897,-4.201713 l -1.554894,-2.545825 -1.446901,1.136922 c -0.845942,0.663955 -1.500897,1.937867 -1.873872,3.116787 -0.159989,0.503965 -0.176988,1.411903 -0.07799,2.281843 0.06199,0.552962 0.170988,1.090926 0.318978,1.499898 0.373974,1.033929 0.960934,2.072858 1.4619,2.951797 l 0.823944,1.444902 0.369974,0.649955 c 0,0 -0.737949,1.214917 -0.737949,1.214917 -0.653955,1.075926 -1.892871,2.47783 -3.316773,3.831738 -2.108855,2.005862 -4.623684,3.907733 -6.250572,4.491693 -0.72895,0.261981 -1.501897,0.508964 -2.291844,0.741948 -5.3076365,1.565893 -11.40721899,2.472832 -10.54727784,2.689817 2.78580934,0.703952 9.66733814,1.901869 12.59813784,2.117855 4.352702,0.319977 4.589686,-0.73395 8.386426,-5.595617 2.77881,-3.558757 4.059723,-5.061654 4.846668,-8.62141 z m 47.391757,-3.642751 c 0.831943,-0.824944 1.841873,-1.722882 2.374837,-2.04886 2.860805,-1.75188 3.134785,-2.124854 5.610621,-0.250983 1.054928,0.797946 2.394832,1.941867 2.8508,2.733813 0.197992,0.341977 0.085,0.393973 -0.444968,0.451969 -0.900936,0.09799 -7.567484,1.184919 -10.449286,1.03793 l -1.789878,-0.09099 1.847874,-1.832874 z M 40.799831,19.013662 C 39.65991,18.468699 38.534986,17.625757 38.397996,17.427771 38.001023,16.85581 37.90803,16.228853 38.066018,15.557898 c 0.138991,-0.592959 2.769811,-3.748743 3.111788,-3.733744 0.87394,0.039 3.012793,3.698747 3.580754,5.613616 0.243983,0.820944 0.015,1.197918 -0.788945,1.561893 l -1.643888,0.742949 -1.525896,-0.72895 z" />
</svg>