<?xml version="1.0" encoding="UTF-8" standalone="yes"?>
<svg xmlns="http://www.w3.org/2000/svg" xmlns:xlink="http://www.w3.org/1999/xlink"
  width="595.276pt" height="841.89pt" viewBox="0 0 595.276 841.89">
  <path
     d="m 129.96039,30.430274 c 0.60587,-0.679854 2.51445,-6.303616 2.83138,-8.343163 0.4739,-3.048329 -0.4259,-6.665536 -3.53422,-8.722083 -0.17796,-0.117976 -0.35392,-0.213952 -0.52888,-0.289935 l -1.24273,-0.538887 -1.18474,0.732846 c -1.05577,0.653854 -1.88758,1.995555 -2.2995,3.482232 -0.10397,0.375919 -0.12496,0.983781 -0.085,1.574652 l 0.11898,1.745619 1.48367,0.767831 c 0.98478,0.509886 2.09554,0.946789 2.45646,2.163522 l 0.24494,0.821814 -1.16174,0.495895 c -0.54488,0.231951 -1.23872,0.373919 -1.85359,0.469895 -1.06977,0.165968 -2.17152,0.134968 -3.07532,-0.221952 -1.97057,-0.77983 -2.40348,-1.765611 -3.53423,0.819822 -1.10775,2.533442 -1.49566,5.816722 0.36392,7.000455 1.3627,0.867814 2.44347,0.921798 4.07011,0.653863 1.73062,-0.285944 6.43758,-2.059547 6.93047,-2.612426 z m -21.3183,-5.506786 c 0.26294,0.275935 0.24194,1.143741 0,1.52466 -0.77183,1.217733 -5.4638,-1.73062 -6.19264,-2.859369 -0.43891,-0.677854 -0.31493,-1.296717 0.67185,-1.709628 1.14075,-0.478895 3.80117,1.238733 5.52079,3.044337 z m -14.088905,14.60178 -5.60977,-0.383911 c -2.739394,-0.18796 -0.16696,1.382692 5.575778,3.25828 0.580871,0.189959 1.078765,0.415911 1.663636,0.60887 1.314709,0.432903 5.591771,0.742831 6.678531,0.482887 3.1723,-0.75883 9.10999,-8.122212 10.48769,-12.084338 1.48667,-4.278054 0.50989,-7.29639 -1.19274,-11.493468 -0.4329,-1.065766 -1.17374,-2.384474 -1.94857,-3.007337 -1.19473,-0.960789 -3.27228,-1.932579 -3.27228,-1.932579 0,0 -3.29227,3.771175 -5.08688,6.3536 -2.856374,4.110102 -3.839156,8.712083 0.4619,10.563679 0.71184,0.305935 2.2785,0.305935 2.90936,0 0.79182,-0.38492 2.93135,-2.325491 3.53822,-1.933572 0.28994,0.18596 0.20995,0.92679 0,1.613644 -0.094,0.307928 -0.4489,0.848814 -0.8888,1.416685 -1.97257,2.543442 -6.4036,5.633762 -8.912046,6.153649 -0.511887,0.106976 -1.038765,0.188959 -1.51966,0.262943 -1.294717,0.197952 -1.582652,0.209952 -2.884369,0.120968 z m 26.262225,-36.4859671 -4.25407,4.254062 4.25407,4.2540611 4.25406,-4.2530611 -4.25406,-4.255062 z M 94.182266,1.2316969 c -0.202952,0.265944 -0.408911,0.564879 -0.585871,0.860814 -0.651862,1.088758 -1.3827,3.6172 -1.403692,4.856925 -0.07096,4.1770851 0.363919,15.0086991 0.829814,18.2199951 l 0.513886,3.541223 1.460685,-3.389255 c 0.287935,-0.668855 0.570878,-1.480677 0.77283,-2.218515 1.700628,-6.221633 1.848595,-12.669209 -0.08198,-20.7584291 L 95.12806,-3.6104905e-5 94.18227,1.2316969 z M 43.693371,-3.6104905e-5 c 0,0 -1.478675,1.705628004905 -2.523445,2.634426004905 -1.387694,1.232725 -4.18208,0.903798 -5.457799,-0.631862 -0.386915,-0.466895 -0.751835,-0.931798 -0.751835,-0.931798 0,0 -1.006778,0.96979 -2.004559,1.827603 -0.759832,0.653855 -1.513667,1.241725 -1.8136,1.286717 -0.123974,0.01896 -0.281939,-0.038 -0.453901,-0.150967 -1.442683,-0.945798 -2.120533,-1.964572 -2.395472,-2.591434 l -0.237949,-0.542879 -0.500889,0.436903 c -1.524665,1.331709 -2.974345,4.382038 -3.00234,6.282617 -0.009,0.564878 0.07898,1.039773 0.236949,1.433684 0.63286,1.5726531 2.600427,2.3684831 4.058107,1.6486361 0.753834,-0.371919 1.386695,-1.0297731 1.95357,-1.4996681 l 0.985782,-0.816822 0.572875,0.449903 c 1.037771,0.812822 2.77239,1.025773 4.125092,0.833814 3.035332,-0.429903 6.567555,-4.646973 7.082441,-8.465131 0.09298,-0.684855 0.126973,-1.203742004905 0.126973,-1.203742004905 z M 47.307576,35.078247 l -4.253064,4.254069 4.254063,4.254062 4.254064,-4.253062 -4.255063,-4.255069 z m 35.992084,-2.710402 0.04296,0.447903 c 0.09398,-0.261943 0.197952,-0.559878 0.308928,-0.887806 0.113975,-0.150967 0.224951,-0.306935 0.332927,-0.465894 l -0.0016,-0.530887 c 1.090765,-3.337264 2.566433,-8.314172 2.588433,-8.779067 0.07896,-1.644636 -0.677854,-5.841713 -1.420692,-8.385155 -0.06696,-0.228952 -0.126968,-0.497887 -0.17896,-0.78983 l -0.598862,-3.3892481 1.292709,-2.720401 c 0.217959,-0.460903 0.446903,-0.900806 0.654862,-1.285717 l 0.588871,-1.087765 -1.255725,-0.524887 C 84.734713,3.5851799 83.446996,3.0113089 82.56319,1.7125919 82.013312,0.9057699 81.594401,-3.6104905e-5 81.594401,-3.6104905e-5 c 0,0 -1.521661,1.089766004905 -2.382478,1.975572004905 -0.868806,0.894797 -1.246725,2.29949 -1.246725,3.731175 0,1.084765 0.505887,2.508449 1.12775,3.215296 l 1.235736,1.4076841 0.356919,2.330491 c 0.440903,2.881369 1.110757,7.433365 1.55666,10.536678 l 0.481887,3.358264 -3.250283,0.417911 c -0.571879,0.009 -1.246725,0.0056 -1.789604,-0.03896 -2.041555,-0.165968 -3.902145,-1.490677 -4.462022,-3.061329 l -0.420907,-1.180741 1.141749,-2.48445 c 1.090762,-2.370482 2.091536,-3.834159 -0.345924,-5.136867 -2.929356,-1.564661 -9.054008,-3.649199 -11.672432,-5.2988351 -3.414248,-2.151531 -3.230289,-2.559442 -6.421587,-3.218297 -4.238068,-0.874805 -5.99668,-0.342919 -8.31917,3.218297 -1.071763,1.6436361 -1.565655,3.6961831 0.267942,4.5589961 0.972786,0.456895 2.522444,0.472895 3.81716,0.756831 l 3.521225,0.77183 -4.076103,0.999781 c -5.246846,1.287717 -14.572794,3.575216 -15.612565,4.328046 -0.738837,0.535886 -4.307052,5.070883 -2.121533,6.55156 0.509888,0.344927 1.369698,0.630862 1.960569,0.539878 0.502889,-0.07696 2.138529,-0.515886 3.761172,-0.696846 0.714843,-0.08 3.768171,0.77383 6.258623,1.769612 l -9.035012,0.857814 c -1.214733,0.137967 -3.080322,0.200951 -4.900921,0.228951 -5.161865,0.08 -11.838395,-2.180523 -13.056128,-4.66698 -0.670852,-1.371693 -2.327488,-13.310072 -2.327488,-13.310072 0,0 -1.922577,1.399693 -2.762392,2.673418 -0.289936,0.441902 -0.347923,1.408684 -0.434904,2.30049 l -0.177961,1.810603 -2.141529,0.550879 c -0.7468351,0.19196 -1.594649,0.409911 -2.3374859,0.701846 -2.2265098,0.874806 -7.41536807,6.370601 -7.75429348,8.196196 -0.38191595,2.059547 2.67541128,4.465021 6.14664778,4.675973 1.4536796,0.08798 2.7813879,-0.379919 4.7669506,-1.433685 1.017776,-0.539886 2.300494,-1.274724 2.300494,-1.274724 0,0 0.801824,1.922579 1.508668,2.976344 1.41069,2.102539 7.567335,4.679973 9.894823,4.984908 5.946691,0.77983 13.1791,-2.096539 19.049808,-3.376256 2.738398,-0.59687 6.236628,-0.869814 8.231189,-0.643862 1.359701,0.154968 2.404471,0.323927 3.254284,0.433903 l 2.327488,0.298935 1.13675,-0.779822 c 0.54388,-0.372919 1.112755,-0.948798 1.833596,-1.806604 0.867809,-1.033773 2.40947,-3.629207 0.905801,-4.921916 -0.22795,-0.194959 -0.540881,-0.278943 -0.893803,-0.356927 -4.63798,-1.026773 -5.242847,-0.347919 -8.27418,-2.336482 l -1.3607,-0.891806 3.129311,-0.722838 c 2.161524,-0.499895 5.020896,-1.118757 7.077443,-1.412693 1.730619,-0.246943 5.008898,-0.08998 6.846493,0.890806 l 1.298715,0.692847 -0.326928,3.915142 c -0.03899,0.454895 -0.04699,0.900798 0.008,1.301709 0.159964,1.177741 2.330487,4.659972 3.216292,5.266843 2.563436,1.758612 8.139212,0.870806 10.183759,-0.803822 0.352927,-0.288935 0.688846,-0.626863 1.006781,-1.002782 z m -71.225332,-8.804058 0,2.752393 -1.177741,0.607863 c -1.5166659,0.78183 -2.867369,0.757838 -3.5202253,0.131975 -1.0397711,-0.997781 0.096978,-2.551441 2.4454623,-3.031336 l 2.252504,-0.460895 z"
     style="fill:#000000;stroke:none" />
</svg>
