<?xml version="1.0" encoding="UTF-8" standalone="no"?>
<!-- Generator: Adobe Illustrator 15.1.0, SVG Export Plug-In . SVG Version: 6.00 Build 0)  -->

<svg
   xmlns:dc="http://purl.org/dc/elements/1.1/"
   xmlns:cc="http://creativecommons.org/ns#"
   xmlns:rdf="http://www.w3.org/1999/02/22-rdf-syntax-ns#"
   xmlns:svg="http://www.w3.org/2000/svg"
   xmlns="http://www.w3.org/2000/svg"
   xmlns:sodipodi="http://sodipodi.sourceforge.net/DTD/sodipodi-0.dtd"
   xmlns:inkscape="http://www.inkscape.org/namespaces/inkscape"
   version="1.1"
   id="svg1340"
   inkscape:version="0.48.4 r9939"
   sodipodi:version="0.32"
   sodipodi:docname="TortoiseSVN_logo.svg"
   inkscape:output_extension="org.inkscape.output.svg.inkscape"
   x="0px"
   y="0px"
   width="468px"
   height="64px"
   viewBox="-200.541 -49.375 468 64"
   enable-background="new -200.541 -49.375 468 64"
   xml:space="preserve"><metadata
   id="metadata60"><rdf:RDF><cc:Work
       rdf:about=""><dc:format>image/svg+xml</dc:format><dc:type
         rdf:resource="http://purl.org/dc/dcmitype/StillImage" /></cc:Work></rdf:RDF></metadata><defs
   id="defs58" />

<sodipodi:namedview
   height="92.125984px"
   width="131.10236px"
   id="base"
   borderopacity="1.0"
   inkscape:cy="31.893515"
   inkscape:cx="41.520919"
   bordercolor="#666666"
   pagecolor="#ffffff"
   inkscape:zoom="4.8822899"
   inkscape:window-width="1600"
   inkscape:window-x="-8"
   inkscape:current-layer="svg1340"
   inkscape:pageopacity="0.0"
   inkscape:window-y="-8"
   inkscape:pageshadow="2"
   inkscape:window-height="796"
   showgrid="false"
   inkscape:window-maximized="1">
	</sodipodi:namedview>



























<g
   id="g3829"><path
     d="M-174.749-7.283l2.254,0.662l2.917,0.664l0.839,0.044l-0.442,1.104  l-0.486,1.459l-0.442,0.84l-1.149,0.795l-1.414,0.354l-1.193-0.354l-0.795-0.752l-0.663-1.9l-0.177-1.325l0.265-1.061  L-174.749-7.283z"
     stroke="#000000"
     fill="#497FFF"
     id="path5328" /><path
     style="fill:#809cc8;fill-opacity:1"
     d="M-187.598-13.844L-187.598-13.844  c-5.375-3.188-9.875-6.875-9.875-6.875c-3.25-3.563,2.25-1.375,2.25-1.375l9.438,3.313l-0.125,0.875l-2.75,1.188L-187.598-13.844z"
     stroke="#000000"
     fill="#FFFFFF"
     sodipodi:nodetypes="cccccccc"
     id="path3580" /><path
     d="M-179.723-29.531  c3.063-3.125,7.188-5,13.438-5.688c5.938,0.063,8.688-0.25,15.5,3.688c1.813,1.375,5.875,3,4.688,5.813  c-1.875,3.688-1.938,3.438-2.875,6.813s-0.188,3.063-1.313,4.625c-2,2.125-0.563,2-3.125,3.125  c-3.938-1.625-3.188-1.313-5.375-1.625c-3.75-0.313-3.75-0.438-8.438,1.813c-3.125,0.5-0.688,0.75-3.875,0.375  c-7.625-3.75-5.625-4.938-9.5-5.875s-4.625-0.125-5-1.875C-185.473-21.844-182.348-26.781-179.723-29.531z"
     stroke="#000000"
     fill-opacity="0.5667"
     fill="#FFFFFF"
     sodipodi:nodetypes="ccccccccccccc"
     id="path3584" /><path
     style="fill:#809cc8;fill-opacity:1"
     d="M-186.473-13.344  c5.297,0.189,6.639,3.826,9.188,5c3.074,0.762,5.028,2.375,8.563,2.5c3.898-1.875,9.679-1.688,15.063-0.188  c2.854,0.063,4.196-1.97,6.75-7.5c1.365-4.211,1.595-8.071,3.688-10.125c1.218-0.992,2.096-2.313-0.375-3.313  c-2.751-0.563-3.917,2.585-5.375,7.313c-0.866,4.17-2.55,9.244-5.5,7.5c-5.193-1.747-3.086-1.188-5.563-1.313  c-4.637,0.313-8.396,3.891-14.438,0.625c-4.475-3.277-5.971-4.108-11.313-5.438C-186.969-18.596-192.103-18.009-186.473-13.344z"
     stroke="#000000"
     fill="#FFFFFF"
     sodipodi:nodetypes="ccccccccccccc"
     id="path3590" /><path
     style="fill:#809cc8;fill-opacity:1"
     d="M-187.004-13.406  c-0.369,0.369-2.537,2.323-3.719,4.5c-1.201,2.213-1.463,4.51-0.063,7.563c1.099,2.885,4.241,3.217,7.938,4.313  c1.572-0.264,2.72,0.717,4.125-0.875c1.145-1.27,1.986-0.889,0.938-3.25c-2.196-3.509-2.688-5.781-0.688-7.75  c-0.563-1.44-1.227-2.164-4.25-3.938C-183.806-13.24-185.181-13.65-187.004-13.406"
     stroke="#000000"
     fill="#FFFFFF"
     sodipodi:nodetypes="ccccccccc"
     id="path3593" /><path
     d="M-174.723-7.219  c-0.971,1.283-0.875,1.449-0.625,3.188c0.688,1.629,0.441,2.282,3.25,2.625c3.247-0.985,3.282-2.938,3.313-4.375  C-172.389-5.906-174.101-7.52-174.723-7.219z"
     stroke="#000000"
     fill-opacity="0.8074"
     fill="#424242"
     sodipodi:nodetypes="ccccc"
     id="path3599" /><path
     style="fill:#809cc8;fill-opacity:1"
     d="M-169.598-0.281  c0.225,2.339,3.31,3.582,8.125,4.375c3.634-0.247,6.751,1.433,9.125-2.125c0.429-2.651-0.181-6.563-2.188-8.188  c-2.137-1.875-9.244-2.015-12.375-0.813C-169.624-5.546-170.015-2.388-169.598-0.281z"
     stroke="#000000"
     fill="#FFFFFF"
     sodipodi:nodetypes="cccccc"
     id="path3601" /><path
     d="M-179.535-4.719c-4.354-0.625-7.48-0.911-9,5.688  c5.003,2.233,8.318,2.48,9.563,1.563C-175.525,0.102-179.079-2.5-179.535-4.719z"
     stroke="#000000"
     fill="none"
     sodipodi:nodetypes="cccc"
     id="path3604" /><path
     d="M-153.285-3.969  c-3.938,0.211-7.545,1.59-9.813,7.313c0.628,0.744,0.848,0.736,1.938,0.813c2.557-0.127,5.253,0.404,7.125-0.438  c3.194-2.099,1.235-7.48,0.688-7.563"
     stroke="#000000"
     fill="none"
     sodipodi:nodetypes="ccccc"
     id="path3606" /><path
     d="M-184.223-4.781c0.983,1.576,2.17,2.91,1.313,7.438"
     stroke="#000000"
     fill="none"
     sodipodi:nodetypes="cc"
     id="path3608" /><path
     d="M-181.723-4.969c1.117,2.08,2.188,4.099,1.563,7.813"
     stroke="#000000"
     fill="none"
     sodipodi:nodetypes="cc"
     id="path3610" /><path
     d="M-160.098-1.656c1.378,0.453,3.222,2.262,3.688,5.938"
     stroke="#000000"
     fill="none"
     sodipodi:nodetypes="cc"
     id="path3612" /><path
     d="M-157.285-3.406c1.583,1.52,3.337,2.661,3.438,6.813"
     stroke="#000000"
     fill="none"
     sodipodi:nodetypes="cc"
     id="path3614" /><path
     style="fill:#809cc8;fill-opacity:1"
     d="M-150.973-6.719  c-0.387,3.142,0.974,7.86,4.625,7.875c5.565,0.573,6.946-1.42,8.25-3.375c1.022-3.738-2.875-7.688-5.625-10.188  c-1.096-0.979-1.259-0.938-2.625-1c-2.085,0.75-2.548,6.109-4.688,6.688"
     stroke="#000000"
     fill="#FFFFFF"
     sodipodi:nodetypes="cccccc"
     id="path3616" /><path
     style="fill:#809cc8;fill-opacity:1"
     d="M-146.848,0.906c4.226,1.352,5.138,0.112,8-1.938  c1.905-1.906,0.685-6.129-2-8.375C-143.421-8.73-149.497-4.117-146.848,0.906z"
     stroke="#000000"
     fill="#FFFFFF"
     sodipodi:nodetypes="cccc"
     id="path3618" /><path
     d="M-146.098-5.531c-0.021-0.021,3.093,1.557,3.938,6.188  "
     stroke="#000000"
     fill="none"
     sodipodi:nodetypes="cc"
     id="path3620" /><path
     d="M-143.723-7.406c1.093,0.982,3.503,2.541,4.375,6.563"
     stroke="#000000"
     fill="none"
     sodipodi:nodetypes="cc"
     id="path3622" /><path
     style="fill:#809cc8;fill-opacity:1"
     d="M-135.785-28.844  c0.927-5.541,0.935-5.607,2.688-7.313c4.095-2.618-0.835,12.554,7.625,7.188c0.415,0.699,2.976,0.388,3.813,1.375  c2.112,1.882,2.438,2.721,1.875,3.563c-2.125,3.585-2.967,1.967-5.813,2.938c-0.595,1.72-2.022,2.115-6.875,2.188  c-3.147,0.271-3.613,2.325-5,3.625c-1.526,1.194-3.143,3.587-9.313,1.563c1.45-4.123,0.669-8.002,4.063-10.375  C-137.589-23.334-137.048-26.32-135.785-28.844z"
     stroke="#000000"
     fill="#FFFFFF"
     sodipodi:nodetypes="ccccccccccc"
     id="path3624" /><path
     d="M-131.348-24.906c1.182,2.098,2.757,3.438,6.25,3.563"
     stroke="#000000"
     fill="none"
     sodipodi:nodetypes="cc"
     id="path3626" /><path
     style="fill:#809cc8;fill-opacity:1"
     fill="#FFFFFF"
     stroke="#000000"
     d="M-185.576-19.127c1.37-4.331,4.11-8.397,4.11-8.397l3.093-3.358l3.359-2.033  l4.552-1.635l4.508-0.751l4.199,0.089l5.083,0.839l4.109,1.812l3.801,2.387l1.945,1.547l0.618,0.884l0.177,0.972l-0.397,0.972  l-1.326,2.475l-1.503,4.994l-1.193,3.889l-1.369,1.9l-0.885,0.531l-1.104,0.221l-1.415-0.53l-2.696-0.973l-1.37-0.132l-2.828,0.309  l-3.934,1.149l-3.005,0.574l-1.989-0.044l-2.298-0.795l-1.326-0.708l-1.768-1.414l-2.254-1.414l-3.05-1.414l-3.182-1.061  l-0.795-0.486L-185.576-19.127z"
     id="path3809" /><path
     style="fill:#ffffff;stroke:#231f20;fill-opacity:1"
     id="path3053"
     sodipodi:cx="74.4375"
     sodipodi:type="arc"
     sodipodi:ry="5.375"
     sodipodi:rx="3.375"
     sodipodi:cy="17.424681"
     d="m 77.8125,17.424681 a 3.375,5.375 0 1 1 -6.75,0 3.375,5.375 0 1 1 6.75,0 z"
     transform="translate(-199.66842,-50.868711)" /><path
     id="path3055"
     sodipodi:cx="60.5"
     sodipodi:type="arc"
     sodipodi:ry="1.09375"
     sodipodi:rx="0.8125"
     sodipodi:cy="14.330931"
     d="m 61.3125,14.330931 a 0.8125,1.09375 0 1 1 -1.625,0 0.8125,1.09375 0 1 1 1.625,0 z"
     transform="translate(-184.67073,-49.410325)" /><path
     transform="translate(-202.78078,-50.868711)"
     d="m 77.8125,17.424681 a 3.375,5.375 0 1 1 -6.75,0 3.375,5.375 0 1 1 6.75,0 z"
     sodipodi:cy="17.424681"
     sodipodi:rx="3.375"
     sodipodi:ry="5.375"
     sodipodi:type="arc"
     sodipodi:cx="74.4375"
     id="path3628"
     style="fill:#ffffff;stroke:#231f20;fill-opacity:1" /><path
     transform="translate(-188.21542,-49.237391)"
     d="m 61.3125,14.330931 a 0.8125,1.09375 0 1 1 -1.625,0 0.8125,1.09375 0 1 1 1.625,0 z"
     sodipodi:cy="14.330931"
     sodipodi:rx="0.8125"
     sodipodi:ry="1.09375"
     sodipodi:type="arc"
     sodipodi:cx="60.5"
     id="path5912" /></g></svg>