<?xml version="1.0" encoding="UTF-8" standalone="no"?>
<svg
   xmlns:dc="http://purl.org/dc/elements/1.1/"
   xmlns:cc="http://creativecommons.org/ns#"
   xmlns:rdf="http://www.w3.org/1999/02/22-rdf-syntax-ns#"
   xmlns:svg="http://www.w3.org/2000/svg"
   xmlns="http://www.w3.org/2000/svg"
   xmlns:xlink="http://www.w3.org/1999/xlink"
   xmlns:sodipodi="http://sodipodi.sourceforge.net/DTD/sodipodi-0.dtd">
  <path
     id="frame"
     d="m 317.86759,55.552513 c 29.63003,28.765033 81.57884,44.388801 121.33639,49.725057 4.80501,0.65375 8.82251,1.5175 13.47127,2.8975 5.4225,1.38751 9.77751,3.52626 14.19626,6.97376 5.81626,4.36001 8.09376,11.58002 5.83876,18.50627 l -4.27251,14.35627 3.07001,-0.86 c 5.7525,-2.2275 10.63876,-4.02876 16.46127,-6.06626 11.53626,-3.89125 30.69628,-7.69376 37.27629,7.03251 2.68125,5.78626 4.4825,10.89126 6.02626,17.08127 1.67875,10.00876 2.54,18.55752 2.89,28.70128 1.23,36.82005 0.007,68.00133 -4.10001,104.61012 -3.705,26.02503 -8.24,47.80506 -15.23126,73.14009 -8.02001,29.63753 -17.80252,53.88256 -32.59004,80.76884 -16.89502,32.43629 -36.93004,56.95007 -65.31883,79.91759 l -12.04751,9.87252 10.70751,-2.23126 c 0.99625,-0.1425 1.86375,-0.10875 2.84751,0.10875 2.305,0.6925 4.37875,1.71 5.14125,4.05626 2.48375,7.63626 -2.665,14.33501 -8.23751,18.76502 -12.39376,9.63876 -25.35378,14.71002 -40.97629,16.03377 -5.57001,0.4475 -10.35877,-0.0375 -15.72752,-1.59125 -5.32001,-1.45751 -19.30253,-7.04751 -17.53627,-16.15252 0.815,-3.66876 2.6975,-6.53251 5.7375,-8.72876 7.31751,-6.56376 16.17627,-9.23501 25.88503,-7.80501 2.91126,0.39375 9.22376,2.465 7.64501,6.93126 -3.0725,8.68626 -19.42502,8.96501 -26.63128,9.08251 l -6.46251,0.3575 3.83001,1.9925 c 6.50001,1.67 12.30001,1.955 18.93127,0.93125 7.14001,-1.39875 12.78376,-3.37625 15.35502,-10.38751 1.52625,-4.11251 0.18625,-8.55001 -3.35751,-11.11751 -2.655,-1.98251 -5.35375,-3.06876 -8.63751,-3.47876 -11.17001,-1.64625 -21.36127,1.40875 -29.80503,8.93376 -4.16001,3.09626 -6.70376,7.10001 -7.74376,12.19377 -1.91125,9.51626 5.73501,15.91876 13.14877,19.48502 8.31876,4.3625 16.49376,5.96501 25.83628,5.065 16.96377,-1.49 31.01878,-7.13 44.33255,-17.78877 6.755,-5.73125 9.28376,-8.74626 10.31251,-16.72127 1.23875,-6.425 -2.105,-12.63751 -8.13751,-15.11626 28.28128,-23.20128 48.25381,-47.80256 65.18507,-80.2926 14.97127,-27.22503 24.87628,-51.77506 32.99754,-81.78634 6.24001,-22.60503 10.44251,-41.99255 14.12377,-65.15633 4.575,-33.16253 6.46251,-61.45132 6.33251,-94.93136 0.19875,-15.07751 -0.5875,-27.82878 -2.63751,-42.76754 -1.1925,-8.96877 -3.40375,-16.40127 -7.30751,-24.55628 -4.42375,-9.26376 -13.54376,-14.51627 -23.74252,-13.67377 -10.87502,0.73 -19.97378,3.13251 -29.80129,7.86751 1.92001,-4.78625 2.56251,-9.25126 2.07001,-14.38627 -1.38751,-12.38876 -13.58002,-19.67377 -24.56878,-22.73002 -4.86751,-1.44 -9.07251,-2.34125 -14.10127,-3.023756 -22.43878,-2.973754 -41.1313,-7.597509 -62.37882,-15.427518 -11.34251,-4.096255 -20.62003,-8.41626 -31.06129,-14.466267 -13.48751,-7.582508 -19.88752,-13.233765 -31.31378,-24.696278 -12.02752,11.713763 -17.82752,17.03627 -31.48629,24.708778 -10.43626,6.045007 -19.70877,10.362512 -31.04629,14.455017 -21.24502,7.830009 -39.93754,12.453764 -62.37507,15.426268 -14.33251,1.923756 -36.62504,7.878756 -38.67004,25.785026 -0.48625,5.12501 0.1575,9.57877 2.0725,14.35502 -9.82626,-4.735 -18.92627,-7.13751 -29.80091,-7.86751 -10.19776,-0.8425 -19.31852,4.41001 -23.74203,13.67377 -2.338744,4.85875 -3.920624,9.15626 -5.290624,14.37501 l -2.01963,10.20377 c -5.5775,32.66878 -1.89912,99.96886 3.69951,137.6889 3.681374,23.16003 7.883374,42.5438 14.121884,65.14383 8.12076,30.01128 18.02552,54.56131 32.99679,81.78634 16.93127,32.49004 36.90379,57.09132 65.18632,80.2926 -6.035,2.48 -9.38126,8.69876 -8.13626,15.12501 0.535,6.30126 3.43251,11.47252 8.51876,15.20377 13.58502,11.63502 28.33129,17.80502 46.12631,19.29752 13.69126,1.66001 26.07128,-2.66 35.78754,-12.48751 2.95,-3.43875 4.05375,-7.60001 3.19625,-12.05751 -1.03875,-5.09501 -3.5825,-9.10126 -7.74501,-12.19877 -8.44251,-7.52501 -18.63377,-10.58001 -29.80378,-8.93376 -7.54751,1.0275 -14.82877,6.73501 -11.99876,14.59127 1.555,4.43875 4.82375,7.54251 9.32376,8.85501 5.16875,1.7525 9.83876,2.37875 15.28376,2.04875 l 8.76376,-1.2175 5.65876,-2.3225 -7.41001,-0.25125 c -4.84125,0.10625 -8.94251,-0.2225 -13.70501,-1.1 -4.79876,-0.80876 -11.26127,-3.22751 -12.90752,-8.03626 -1.44375,-4.21751 4.32376,-6.43126 7.68501,-6.88126 9.73626,-1.42625 18.61877,1.26875 25.93878,7.86876 3,2.19125 4.85626,5.0325 5.66126,8.66751 0.5,3.00625 -0.41125,5.795 -2.58751,7.92001 -3.9725,3.7625 -8.09626,6.1575 -13.32626,7.73751 -5.87626,1.935 -11.18501,2.57375 -17.35002,2.08625 -15.03752,-1.3025 -27.51628,-6.01751 -39.6763,-14.99502 -6.50126,-4.87501 -11.95251,-11.02501 -9.69501,-19.37002 0.7775,-2.87251 2.86375,-3.74876 5.30376,-4.49126 0.88,-0.20125 1.655,-0.2425 2.55125,-0.135 l 11.15501,2.38626 -12.20626,-10.00127 C 184.78744,509.36304 164.74991,484.84301 147.85364,452.39922 133.07113,425.51794 123.29061,401.27791 115.27286,371.64538 108.2831,346.3116 103.74784,324.53282 100.04284,298.51029 95.931216,261.899 94.709216,230.71647 95.942836,193.89392 c 0.35113,-10.14126 1.212,-18.68752 2.89001,-28.69503 1.546364,-6.19751 3.350744,-11.31001 6.036124,-17.10377 8.48376,-18.92002 37.38592,-7.64876 52.71093,-1.3325 1.63501,0.67375 2.54501,0.77625 4.06501,1.025 l -4.25376,-14.14502 c -2.25125,-6.92875 0.0337,-14.15001 5.85626,-18.50502 4.42501,-3.44875 8.78626,-5.5875 14.21627,-6.97251 4.63875,-1.375 8.64501,-2.23625 13.43626,-2.8875 22.81378,-3.0225 41.8188,-7.723759 63.42008,-15.685018 11.61626,-4.192505 21.11752,-8.61626 31.81128,-14.807517 12.10877,-6.805008 18.61377,-12.030014 28.92129,-21.937525 l 2.815,2.705003 z"
     style="fill:#ff0000;stroke:none" />
  <path
     id="alfatihah"
     d="m 371.72197,148.85625 c 0.10125,0.6425 0.1775,1.66625 0,2.6075 -0.13125,0.69125 -2.19125,3.2925 -2.65,3.3475 -1.295,0.15125 -4.44125,-1.4125 -6.19875,-3.05375 -1.25875,-1.175 -2.56,-2.63125 -2.9225,-3.1125 -0.5525,-0.73125 -0.86875,-1.3625 -0.985,-1.96 -0.4975,-2.5325 2.775,-7.38 5.66375,-9.23375 0.595,-0.38125 1.24375,-0.29375 2.22375,0.485 2.74875,2.18625 4.12,6.20375 4.86875,10.92 z m -93.9375,9.4275 c -7.6575,-0.8375 -14.63625,-1.755 -20.45125,-2.5975 -0.7775,-0.1125 -1.57625,-0.235 -2.38,-0.365 -8.875,-1.4375 -20.59625,-5.1675 -23.545,-7.48375 -4.0325,-3.16625 -6.77625,-7.875 -7.4075,-12.68625 -0.55375,-4.2275 -0.0375,-16.8775 -0.46625,-20.44 -0.49625,-4.13 -1.64125,-7.4975 -2.16875,-8.9025 l -0.27125,-0.72125 -0.48,0.50125 c -3.25875,3.3975 -4.16625,6.01 -4.4425,7.42875 -0.1075,0.5475 0.88875,-0.0888 3.3675,14.36125 0.2625,1.53 0.4425,2.815 0.465,3.485 0.56625,17.18 -0.82,24.575 11.99875,29.57125 2.29125,0.8925 4.81,1.71 7.52125,2.4575 15.50875,4.275 48.5325,7.235 68.31,6.95625 13.8475,-0.195 25.7625,-0.965 32.8925,-1.95375 1.6825,-0.23375 3.91375,-0.66 6.2075,-1.16 4.08625,-0.89375 10.8375,-3.095 13.8125,-4.51875 l 0.675,-0.3225 1.785,0.31875 c 2.40875,0.43125 6.8825,1.71375 10.00625,2.19375 3.62125,0.55875 12.45,-0.49875 15.44875,-2.03375 1.16375,-0.59625 3.42875,-2.75375 3.96875,-3.78 l 1.7975,-3.4225 0.0175,-0.0325 0.2575,-0.28125 c 1.315,-1.44125 3.23375,-3.35875 3.4825,-5.68125 0.07,-0.66125 0.0625,-1.34125 0,-2.09375 -0.39375,-4.73375 -1.575,-14.91125 -2.2275,-17.59125 -0.39875,-1.64 -0.76,-4.54375 -0.745,-5.7975 l 0.025,-2.035 2.23125,-3.58375 1.425,-2.29125 -1.195,-0.785 c -8.72375,-5.735 -8.3,-10.775 -8.59375,-10.41625 -0.15875,0.1925 -0.315,0.39 -0.46625,0.59125 -0.3775,0.50375 -1.055,1.83625 -1.81,3.43625 -2.04375,4.3325 -1.03875,9.85125 2.095,11.36 l 1.645,0.79125 c 0,0 -1.82,3.41625 -2.4275,5.27 -0.235,0.7175 -0.2875,1.20125 -0.29125,1.82 -0.004,0.835 0.0237,1.09875 0.275,2.64375 l 2.96,23.09 0.12125,0.95375 -10.225,-0.0462 -8.93125,-0.86375 5.33625,-7.74875 c 0.985,-2 2.45,-5.85875 2.42625,-6.61375 -0.03,-0.95375 -3.37875,-9.365 -6.495,-11.77625 -3.3625,-2.6025 -5.13875,0.055 -8.72875,4.94125 -2.9675,4.03875 -8.6375,13.165 -9.78875,19.75625 -0.1425,0.8175 -0.2275,1.735 -0.1975,2.63125 l 0.0762,2.27 -1.85875,0.46 c -5.31875,1.31875 -11.32125,2.22125 -17.7425,2.79375 -10.49125,0.935 -39.32375,-0.0925 -57.29375,-2.0575 z m -19.07625,-22.3425 c 0,0 -1.9,0.31 -3.69125,0 -1.79,-0.30875 -3.4725,-1.23875 -3.4725,-1.23875 0,0 5.085,-3.4 6.46375,-4.2925 0.31875,-0.205 0.40625,0.19875 0.46875,2.1475 0.0437,1.35125 0.23125,3.38375 0.23125,3.38375 z m 20.8975,8.0675 c -4.93,-0.6075 -10.24875,-1.65875 -11.82125,-2.8175 -0.775,-0.57125 -2.305,-3.2325 -3.02,-5.25 -0.21125,-0.5975 -0.43625,-1.2375 -0.4925,-1.88875 -0.075,-0.87875 -0.0875,-1.1475 -0.1125,-2.69375 l -0.29,-17.265 c 0,0 -1.63875,1.545 -3.44625,3.2675 -1.74625,1.6625 -2.79125,2.75375 -3.35,3.63375 l -0.82375,1.29875 0.575,1.6275 c 0.22125,0.6275 0.47,1.4425 0.73625,2.5075 0.0813,0.32375 0.12125,0.57125 0.01,0.7075 -0.835,1.0175 -9.6425,5.25 -11.32625,6.775 -2.14,1.9375 -6.935,8.465 -6.935,8.465 0,0 1.80625,1.1375 3.25,1.8725 2.62625,1.3375 9.0175,2.44125 10.95875,0.5725 0.915,-0.88125 1.54125,-1.77625 2.06,-2.475 l 2.8525,-3.0825 0.38375,2.70125 c 0.21375,1.50875 0.74625,3.2 1.44125,4.76125 4.26875,9.59375 19.4725,8.77 41.9775,6.33 4.4925,-0.4875 9.97875,-1.08 16.25125,-1.7475 l 3.33875,-0.35625 0.36375,0.175 c 4.175,0.14125 7.38625,0.3775 8.8025,0.45 2.34375,0.12125 5.48125,0.56875 7.87625,0.56 l 2.4525,-0.009 0.71,-0.76375 c 1.2625,-1.3575 4.465,-5.99125 5.6175,-8.09 l 0.90125,-1.64125 -0.70125,-0.135 c -0.93,-0.1775 -3.29,-0.46 -4.70625,-0.56625 l -0.935,-0.07 -3.365,-1.685 c -0.2275,-0.11375 -0.4575,-0.23 -0.69,-0.3475 -1.8425,-0.93875 -8.215,-5.02375 -12.8975,-8.25875 -0.77125,-0.5325 -1.39625,-1.01875 -1.39625,-1.01875 l 0.17125,-0.175 c 0.5925,-0.6025 2.625,-2.65875 4.4875,-4.3775 1.935,-1.7875 3.79125,-3.685 5.02625,-5.10375 0.81375,2.30375 1.8225,4.8975 2.76375,7.03625 0.48625,1.1075 0.9525,2.2375 1.31375,3.13375 l 1.20375,2.9875 1.2375,-2.615 c 1.42625,-3.01375 2.94625,-9.9025 0.20125,-22.885 l -0.77625,-3.67375 -0.12125,-0.0325 c -1.8625,3.91625 -4.295,7.50875 -7.19125,10.67 l -0.20125,0.2175 c -3.99625,4.3025 -8.85875,7.79125 -14.3075,10.18875 l -0.1675,-0.1175 -1.4175,-0.44875 c -1.52,-0.48125 -4.02375,-1.0775 -5.0975,-1.22125 -0.3675,-0.0487 -0.71,-0.09 -1.01625,-0.1175 l -1.40375,-0.12875 -0.9825,1.13375 c -1.14375,1.31875 -2.80375,3.70875 -3.85,5.6475 -0.42625,0.79125 -0.795,1.465 -1.08875,2.0375 l -0.84625,1.64875 c -0.0688,0.13625 3.77,0.63375 7.32375,2.20875 2.31875,1.0275 5.21375,2.8175 8.77,5.84625 0.32875,0.28 -2.1375,0.6975 -6.23375,1.14125 -11.6125,1.25875 -27.69375,1.9925 -32.0475,1.455 z m 77.48375,-32.53375 -8.13,8.13 8.1275,8.1275 8.13,-8.12875 -8.1275,-8.12875 z m -113.9575,4.91625 6.0075,6.0075 8.91375,-8.9125 -8.925,-8.92375 -6.0075,6.0075 -6.00875,-6.0075 -8.91375,8.9125 8.925,8.92375 6.00875,-6.0075 z m 71.96375,-12.8475 6.0075,6.015 8.9125,-8.9225 -8.92375,-8.93375 -6.0075,6.015 -6.0075,-6.015 -8.9125,8.9225 8.92375,8.93375 6.0075,-6.015 z m -44.06125,26.3875 c 0.0375,0.0762 0.67375,-0.007 1.46625,-0.15625 4.345,-0.8175 11.445,-4.7 13.945,-7.46875 2.175,-2.4075 5.04375,-6.3225 6.72375,-9.1825 1.3725,-2.33625 2.5325,-5.03625 2.88375,-6.58 0.8675,-3.815 0.7625,-3.4675 -1.65375,0.3175 -0.29,0.45375 -0.6175,0.97 -0.98,1.525 -0.79125,1.21 -1.9625,2.66 -3.14625,3.94875 -2.7125,2.9575 -9.2425,6.78 -12.9425,7.43875 l -1.63375,0.29125 -0.20375,0.755 c -0.5975,2.2225 -2.0825,5.62375 -3.005,6.92125 -0.8925,1.25625 -1.57625,1.935 -1.45375,2.19 z M 410.87697,109.865 c 0.0225,-2.07 0.0538,-3.44375 0.0538,-3.44375 0,0 -1.84,3.37375 -3.03625,6.01 -3.00125,6.61125 -2.82125,4.79 -2.3625,12.10125 0.0825,1.3075 0.21375,2.8675 0.3825,4.605 l -0.0113,0 c 0.0238,0.20875 0.0488,0.41875 0.0738,0.62875 0.135,1.35125 0.29,2.8 0.46,4.3125 l 0.0588,0 c 0.77625,6.37 1.54625,12.64 1.68125,17.66375 0.17125,6.345 0,13.84 0,13.84 0,0 1.84,-3.37375 3.0375,-6.01 3.00125,-6.61 2.82,-13.57875 2.36125,-20.89 -0.065,-1.035 -0.16,-2.2275 -0.28125,-3.54125 -1.1925,-12.96125 -2.4225,-24.84875 -2.4175,-25.27625 z"
     style="fill:#ff0000;stroke:none" />
  <!--path
     id="jawi"
     d="M 439.96487,262.40875 C 439.57112,262.79 439.12487,263.2075 438.68112,263.5975 C 428.16362,272.83 397.07612,276.105 385.62237,277.42125 C 372.56737,278.92 359.02362,277.26625 347.30612,274.215 C 337.80862,273.66 320.14862,262.18375 312.59737,256.8575 L 300.19237,248.1075 L 308.17737,258.6875 C 312.91487,264.96625 322.90987,274.8025 324.60737,275.96875 C 327.38737,277.88125 327.59362,278.0225 327.59362,278.0225 C 328.60112,278.715 329.60987,279.3575 330.68612,279.92875 C 333.70487,281.53 350.03362,287.25 351.15112,287.55375 C 360.37112,290.05875 372.78862,290.025 384.29237,288.935 C 392.95112,288.11375 433.36862,280.63125 439.69237,272.50625 C 439.78612,272.385 439.87362,272.25875 439.95362,272.1225 C 440.53987,271.13375 440.82237,269.69375 441.33987,268.4025 C 442.23112,266.17375 443.82112,264.38625 444.97612,262.11375 C 445.09987,261.86875 445.21987,261.61875 445.33362,261.36375 L 446.47987,260.73875 C 447.02612,258.91375 447.41362,257.07375 447.72862,255.5375 C 448.47237,251.915 445.74737,250.6175 440.60362,247.01875 C 440.03987,246.625 439.50362,246.25 438.87612,246.0175 C 438.03112,245.70375 437.74862,245.6625 436.05487,245.60375 L 430.60862,245.41375 C 430.60862,245.41375 430.52612,244.545 430.66112,243.9075 C 430.84612,243.02875 432.45612,242.18375 433.87737,241.75875 C 438.29237,240.4375 444.90487,237.30625 448.73487,237.25125 C 450.21487,237.23 451.83362,237.36 451.83362,237.36 C 451.83362,237.36 452.51112,246.135 453.35737,250.605 C 454.18362,254.97125 455.94862,256.31 460.34237,257.445 C 462.75362,258.06875 465.23362,258.59375 467.83862,258.65 C 472.46112,258.75 477.47862,257.375 482.08487,257.2625 C 492.88112,256.9975 495.26112,259.02625 502.48862,252.1075 C 506.97112,247.81375 509.68987,242.255 509.43362,236.85875 C 509.32737,234.61625 505.94237,224.76 505.06487,224.14125 C 503.51737,223.04875 499.19237,227.37125 497.67987,231.62375 C 497.38862,232.4425 497.35487,233.15125 497.58612,234.30875 C 498.25237,237.6425 501.11487,244.70375 501.11487,244.70375 C 501.11487,244.70375 490.11487,246.67125 483.30237,247.5675 C 474.84112,248.68125 464.27987,249.23125 461.12737,243.96625 C 459.46862,241.19625 458.13362,237.385 459.20112,236.1475 C 460.33987,234.8275 466.96987,233.685 470.34612,233.60875 C 473.94862,233.5275 479.48612,233.9275 479.48612,233.9275 C 479.48612,233.9275 480.63362,229.9375 481.79737,227.72625 C 482.83612,225.7525 483.88862,225.19625 484.51987,222.94 C 484.69612,222.31125 484.83987,221.55125 484.83987,221.55125 L 484.21237,221.52875 L 484.23362,220.90125 L 477.05987,221.14875 C 475.36487,221.20625 475.05737,221.19125 473.97737,220.99125 C 471.40487,220.51625 465.12237,216.3175 464.92612,216.14375 C 457.46487,209.56375 458.86112,206.025 448.26862,207.08125 C 444.68237,207.43875 438.08487,209.64125 435.82612,212.92875 C 434.78237,214.4475 433.23987,219.69875 432.68237,221.99125 C 432.24612,223.7875 431.91612,225.9525 432.54237,226.00625 C 432.73862,226.02375 433.01862,225.89 433.16987,226.02875 C 433.25987,226.11125 433.30487,226.29125 433.39987,226.42125 C 433.62612,226.72625 434.13362,226.74375 434.65362,226.70875 C 436.78862,226.56375 440.07112,225.0525 442.73487,223.615 C 445.77112,221.975 449.93612,219.48875 452.42612,220.41875 C 453.93862,220.98375 454.31112,221.88875 453.85737,223.1225 C 453.70237,223.5425 453.50362,223.63625 451.85987,224.0575 C 438.78987,227.40375 430.04737,230.36375 419.86987,238.12875 C 415.39237,241.54375 414.10987,244.80875 413.44862,251.09625 C 412.90612,256.2525 416.44362,258.21125 422.47237,258.95 C 426.87612,259.49 432.43362,257.45875 436.38987,259.75 C 437.57737,260.4375 438.96987,261.5575 439.96487,262.40875 z M 290.52862,202.8575 L 290.47112,204.53125 C 290.47112,204.53125 291.24237,204.58375 291.97612,204.58375 C 293.79487,204.5825 311.83612,194.68625 315.30612,192.4025 C 318.41362,190.35875 319.83862,187.33625 320.74112,183.22375 C 321.77487,178.50875 319.90987,177.08875 314.81987,176.48375 C 309.31987,175.83 304.84362,176.975 304.43112,182.52875 C 304.33362,183.84 304.32612,185.54 304.32612,185.54 C 304.32612,185.54 306.39612,185.91125 307.88987,185.665 C 309.83987,185.3425 310.80862,183.9675 311.93237,183.6075 C 312.70612,183.35875 316.26737,183.53 316.66487,184.35375 C 316.76987,184.56875 316.69112,184.83875 316.64237,185.07625 C 316.57737,185.39625 316.43112,185.56 315.17862,186.7075 C 310.16362,191.30625 295.68612,200.24125 291.47112,201.82625 C 291.27237,201.90125 291.07862,201.97125 290.86987,201.99125 C 290.58987,202.01875 290.55612,202.105 290.52862,202.8575 z M 378.74612,237.0825 C 378.86862,237.73 378.80112,238.7125 378.65362,239.7175 C 377.91362,244.76875 375.14737,250.37625 374.38737,253.95375 C 374.24737,254.61 374.17612,255.1975 374.33237,255.5225 C 374.55112,255.97875 375.21862,255.92 375.83862,255.575 C 376.63362,255.13375 381.63862,239.08125 381.92237,236.0625 C 382.54737,229.41375 381.86487,225.3425 378.10237,219.5325 C 376.30987,216.765 374.99737,214.93375 373.82987,215.92875 C 373.11737,216.535 372.63487,220.2 372.97487,222.43125 C 373.38862,225.14625 374.48612,227.74375 375.84612,229.58375 C 377.52487,231.85375 377.82862,232.235 378.74612,237.0825 z M 479.52487,202.21625 C 479.52487,202.21625 482.03487,202.30375 482.03487,202.30375 C 482.03487,202.30375 481.95987,200.99875 481.99862,199.49875 C 482.15237,193.46375 488.47112,187.11625 494.29237,186.6575 C 496.09987,186.515 497.84362,186.49125 498.96112,186.1075 C 499.74362,185.8375 500.90987,182.9 500.99737,180.97875 C 501.02362,180.38625 501.04112,179.72375 501.04112,179.72375 L 496.00862,179.54875 C 494.31487,179.48875 493.94237,179.5225 492.28487,179.8775 C 478.99737,182.72375 433.58987,191.5 416.09862,201.5725 C 410.65112,204.70875 409.18612,207.255 408.12862,213.92125 C 407.64362,216.97875 408.18487,217.92 409.42487,221.75625 C 409.68862,222.57125 409.93112,223.40375 409.96737,224.26125 C 410.01612,225.4175 410.09112,225.55625 410.71612,225.65 C 411.18112,225.72 411.70112,225.8125 412.11737,225.61875 C 412.78737,225.3075 413.43237,219.97125 413.00112,218.3125 C 412.28362,215.55625 410.64362,213.855 411.01237,212.45375 C 411.85737,209.23375 425.48612,203.72625 430.85362,201.77375 C 438.47987,198.99875 446.27987,196.16125 454.67862,194.125 C 465.94862,191.39125 482.51612,188.5 482.51612,188.5 C 482.51612,188.5 482.51612,188.5 482.51612,188.5 C 482.51612,188.5 479.88487,196.29625 479.71862,198.14375 C 479.67487,198.62 479.63987,199.13875 479.61237,199.70625 C 479.55487,200.86 479.52487,202.21625 479.52487,202.21625 z M 482.61737,270.15 L 476.77112,264.31625 L 469.34737,271.7225 L 476.77112,279.1275 L 482.61737,273.295 L 488.46362,279.1275 L 495.88737,271.7225 L 488.46362,264.31625 L 482.61737,270.15 z M 399.44612,238.455 L 392.72862,245.1275 C 391.61237,246.23625 391.45362,246.435 391.14112,247.1175 C 390.70362,248.07375 390.55237,249.67375 390.76737,249.89 C 391.46362,250.5925 393.92237,248.88875 394.77862,248.2575 C 402.27737,242.7275 405.69362,239.24375 406.90612,232.08375 C 407.52112,228.44375 405.59487,227.035 402.18487,226.57125 C 396.77487,225.83375 391.40612,226.5875 389.30487,230.66125 C 389.63237,246.2125 390.09487,237.31875 394.68237,236.215 C 399.78612,234.9875 405.27362,232.25875 399.44612,238.455 z M 339.64362,223.57875 C 339.58737,222.0425 339.41362,220.11375 338.90862,219.6275 C 338.61612,219.34625 338.21237,219.55125 337.95862,219.39875 C 336.81862,218.715 338.75737,215.8925 339.68112,214.81375 C 348.06737,205.025 369.80237,192.87 381.28487,190.35625 C 382.37987,190.11625 383.47362,189.9225 383.67987,190.2925 C 383.78362,190.4775 383.66737,190.8 383.48987,191.16625 C 383.07612,192.02375 382.41112,193.0625 381.67487,194.175 C 366.38112,217.26875 390.50487,185.22 397.34987,184.32 C 397.97487,184.01125 398.56362,183.7625 399.08487,183.5975 C 401.74862,182.75875 404.63362,182.58125 404.98362,180.0275 C 405.03237,179.67 405.03862,179.22375 405.02737,178.79 C 404.91112,174.6075 398.08487,176.60875 393.27487,178.4375 C 388.82237,180.13125 382.21112,182.9225 375.19862,186.16625 C 366.12487,190.36375 338.95737,202.96625 335.13487,213.91125 C 333.90237,217.43875 334.13112,221.39 336.58737,224.79 C 336.69237,224.935 336.78862,225.06625 336.87487,225.185 C 335.76612,223.68 339.88112,230.01 339.64362,223.57875 z M 350.04987,198.63 L 349.85737,194.2225 C 349.77987,192.44 349.80612,192.12125 350.11487,191.02875 C 350.34487,190.22 350.58737,189.33375 351.20112,188.7625 C 352.69862,187.3725 356.40612,187.85375 358.12487,186.7075 C 360.59987,185.0575 360.60112,179.3925 358.69737,177.09625 C 356.67737,174.66125 352.59487,178.5275 350.92237,180.74125 C 349.89487,182.1 348.92237,183.6575 348.48487,185.475 C 348.28112,186.31875 348.16987,187.275 348.01112,188.11125 L 347.23362,192.21125 L 344.66862,188.9475 C 341.15862,184.32375 342.22862,182.95 337.06987,181.6925 C 335.34112,181.27125 331.59237,181.42875 330.87237,183.375 C 330.30862,184.8975 331.63237,188.60125 332.46112,189.48125 C 333.09862,190.1575 335.67987,191.835 336.74612,191.93875 C 338.48987,192.10625 342.04987,191.04625 342.04987,191.04625 C 342.04987,191.04625 344.92362,195.1825 346.67862,197.125 C 347.44487,197.9725 348.07862,198.655 349.06112,198.67375 C 349.46612,198.68125 350.04987,198.63 350.04987,198.63 z M 426.11987,198.63 L 425.92737,194.2225 C 425.84987,192.44 425.87612,192.12125 426.18487,191.02875 C 426.41487,190.22 426.65737,189.33375 427.27112,188.7625 C 428.76862,187.3725 432.47612,187.85375 434.19487,186.7075 C 436.66862,185.0575 436.67112,179.3925 434.76612,177.09625 C 432.74737,174.66125 428.66487,178.5275 426.99237,180.74125 C 425.96487,182.1 424.99112,183.6575 424.55362,185.475 C 424.35112,186.31875 424.23862,187.275 424.07987,188.11125 L 423.30362,192.21125 L 420.73862,188.9475 C 417.22737,184.32375 418.29862,182.95 413.13987,181.6925 C 411.41112,181.27125 407.66237,181.42875 406.94112,183.375 C 406.37862,184.8975 407.70112,188.60125 408.53112,189.48125 C 409.16862,190.1575 411.74987,191.835 412.81612,191.93875 C 414.55862,192.10625 418.11987,191.04625 418.11987,191.04625 C 418.11987,191.04625 420.99362,195.1825 422.74862,197.125 C 423.51487,197.9725 424.14737,198.655 425.12987,198.67375 C 425.53612,198.68125 426.11987,198.63 426.11987,198.63 z M 490.58737,231.03 L 491.35737,231.01625 C 491.70237,231.01125 491.79487,230.8 492.28362,228.9125 C 495.09487,218.06 495.60862,212.06625 488.69237,205.105 C 487.55362,203.95875 486.22737,202.9975 485.37237,204.025 C 484.79237,204.7225 484.19987,209.6425 484.46487,210.71625 C 484.92737,212.59625 486.29737,213.20625 487.87987,214.48125 C 491.45487,217.36375 492.35112,219.525 491.89612,223.36375 C 491.54612,226.31 490.58737,231.03 490.58737,231.03 z M 129.21612,215.95125 C 132.51987,216.58375 136.81487,215.31375 138.81362,212.38 C 139.38737,211.53875 141.47737,206.43125 140.64112,205.81 C 140.37112,205.60875 139.79112,205.79875 139.16487,206.06875 C 135.89862,207.47875 133.74237,208.82 131.70362,209.08875 C 113.83774,211.44 132.75737,178.6 127.75487,185.5075 C 126.18237,187.6775 124.53974,190.8275 123.42549,193.445 C 123.40962,193.4825 123.39375,193.52 123.37799,193.5575 C 114.93262,213.49625 127.97237,215.7125 129.21612,215.95125 z M 309.03362,262.8125 C 303.85237,262.7125 298.90237,261.55375 294.81237,258.8525 C 286.93112,255.025 285.00862,246.5125 283.10487,238.94 L 283.05112,238.82 L 282.83237,253.095 C 282.81737,254.03625 282.81987,254.9825 282.84987,255.835 C 282.91737,257.71125 283.19612,259.23875 283.67987,260.55 C 290.80737,279.9075 317.92362,273.46875 328.81487,265.21125 C 332.28737,262.5775 334.46987,259.18 337.22987,254.17625 C 338.03237,252.72125 338.83362,251.05375 338.92362,250.1075 C 338.98112,249.51 339.07612,249.44625 339.86862,249.4675 C 339.86862,249.4675 340.24737,249.4775 340.65487,249.4875 C 352.79112,249.805 359.77987,248.3325 362.58987,244.25125 C 363.85487,242.415 365.17987,240.02 365.36862,238.9625 C 366.03112,235.245 366.17112,233.20875 364.86737,228.32375 C 363.84487,224.4925 361.95987,218.66375 361.95987,218.66375 C 361.95987,218.66375 359.36237,220.7425 358.18987,222.31625 C 356.43987,224.665 356.00612,228.68375 357.16987,231.295 C 358.23612,233.69 359.14612,233.9625 359.14987,237.7275 C 359.15112,238.4925 359.10737,239.38125 359.10737,239.38125 C 359.10737,239.38125 353.07487,239.5575 351.36487,239.60875 C 346.46737,239.7525 338.30862,238.945 335.77487,232.75875 C 334.97487,230.80875 334.41737,229.03125 332.65112,230.085 C 330.32112,231.47375 329.08237,237.98625 329.29862,240.32125 C 329.66112,244.21625 331.76237,249.48 332.75237,253.82375 C 332.83487,254.18875 332.90987,254.54625 332.89612,254.91375 C 332.87612,255.41 332.69612,255.55625 331.10487,256.37125 C 324.94987,259.52375 316.91112,262.17375 309.06737,262.7175 L 309.03362,262.8125 z M 191.37862,273.1325 C 181.02737,271.79875 170.55737,269.25125 163.47987,264.76375 L 149.02612,255.6 L 155.80487,265.9625 C 160.86362,273.69875 169.74362,278.64875 180.41612,281.43375 C 202.49612,287.19625 212.06612,284.335 233.15987,276.62125 C 243.03487,273.01 250.35112,268.4425 252.82737,263.62 C 254.14862,261.04875 255.43737,258.36375 255.58612,257.96875 C 256.68237,255.05125 253.87112,253.09125 250.34862,251.3875 C 248.74612,250.61375 247.04612,250.32625 244.65362,250.23625 C 239.82487,250.055 232.17862,250.67875 232.17862,250.67875 C 232.17862,250.67875 235.90112,247.555 238.67737,245.43625 C 240.67487,243.9125 250.11112,237.5 253.77362,238.5775 C 257.08487,239.55125 257.02237,242.58625 258.87737,246 C 261.42362,250.68625 267.61487,251.94 272.56612,250.3525 C 273.64612,250.00625 274.81112,249.51875 275.85237,249.04125 C 279.92987,247.1725 282.45112,245.9275 283.96362,245.10625 C 287.98237,242.925 295.88237,243.38875 300.97612,244.03875 C 300.91487,244.03125 304.30862,244.705 307.16862,245.30375 C 309.43237,245.7775 311.02112,246.12875 311.02112,246.12875 C 311.02112,246.12875 313.75987,242.13125 314.69612,239.8375 C 316.24237,236.05125 311.32487,235.6875 307.36612,234.445 C 304.67987,233.60125 297.71737,229.45125 295.71862,227.50125 C 292.70987,224.56625 290.47112,221 287.22862,218.66125 C 281.97362,214.87 277.76487,213.79125 271.75487,215.5825 C 268.63612,216.51125 266.55612,218.10625 266.03612,222.7825 C 265.40112,228.49125 268.03612,227.015 272.38862,227.89125 C 272.45737,227.905 272.52612,227.92 272.59362,227.935 C 277.92112,229.13 278.11362,223.77125 283.12862,227.91125 C 285.47487,229.85 288.22612,232.75375 287.47737,233.82375 C 286.98112,234.53375 285.32737,234.82 283.85737,235.3975 C 281.13237,236.4675 279.04237,238.535 276.76237,239.54875 C 272.14737,241.60125 264.95612,240.7325 262.83487,236.84375 C 259.04612,229.9 260.75487,226.98625 252.97362,228.6275 C 250.58237,229.13125 248.40237,229.99875 246.48612,231.425 C 245.40862,232.225 244.41612,233.20125 243.31237,233.98375 C 241.94362,234.95375 240.40612,235.6225 238.89612,236.5075 C 231.81487,240.65875 228.94487,245.045 227.55487,251.50125 C 226.39862,256.87625 226.41612,259.065 230.13112,260.0425 C 233.17237,260.84125 237.79362,260.6725 241.90362,260.57375 C 243.54487,260.53375 245.83737,260.75375 245.10112,262.42625 C 244.97862,262.7025 244.73362,262.9225 244.46112,263.1375 C 242.65987,264.555 239.93737,265.855 236.70612,267.0275 C 223.62737,271.77125 204.59112,274.83375 191.37862,273.1325 z M 165.83612,244.345 C 156.16987,244.9825 146.28112,244.0675 139.60862,240.17125 C 133.84487,236.80625 133.39112,223.06 131.79612,228.32875 C 128.94362,237.7525 128.33487,245.9025 135.61487,250.01375 C 137.33987,250.98875 139.14612,251.7975 141.01862,252.4575 C 149.81987,255.5625 164.58612,255.975 176.63362,249.815 C 177.36737,249.44 178.08862,248.96375 178.81237,248.29875 C 179.62987,247.54625 180.31612,246.80625 180.90112,246.13875 L 184.08487,242.515 L 185.56862,246.4075 C 186.38612,248.5525 186.53737,249.67625 189.96987,251.9 C 191.86362,253.12625 193.92862,253.655 196.34612,253.06 C 199.54862,252.27125 201.97362,249.40375 204.85862,248.905 C 207.41487,248.46375 212.44112,251.115 216.83112,252.2725 C 219.84737,253.0675 220.65737,252.7225 222.09112,251.08625 C 227.02362,245.46 229.66237,241.11125 227.53112,232.90875 C 226.25987,228.0125 219.71862,229.41625 214.33487,231.35875 C 209.97737,232.93 202.38987,236.6075 201.81237,240.6975 C 201.66737,241.71875 201.85862,242.70875 201.44737,243.265 C 200.12987,245.0525 194.24737,242.8875 192.23112,241.36875 C 190.68237,240.2025 189.75737,238.64125 189.39737,236.12125 C 189.09487,234.005 189.08987,231.7825 186.93237,232.9575 C 185.67112,233.64375 185.06737,236.01375 183.72862,237.50625 C 182.23987,239.16625 176.03862,241.415 173.67737,242.2075 C 171.38862,242.97625 168.72987,243.70625 165.83612,244.345 z M 219.44362,243.8475 C 219.35237,243.81 219.26237,243.77 219.17362,243.73 C 218.02112,243.20375 217.13987,242.5975 215.37987,241.975 C 213.34112,241.255 210.12362,240.51375 210.12362,240.51375 C 210.12362,240.51375 210.81737,239.79625 211.48112,239.22625 C 212.16487,238.63875 213.68862,238.0275 215.29862,237.6125 C 220.06487,236.385 220.80737,236.91625 220.74112,239.44 C 220.73612,239.66 220.72612,240.0225 220.71612,240.42125 C 220.58112,245.57 219.28487,243.78125 219.44362,243.8475 z M 270.23987,264.05875 L 262.95237,271.3475 L 270.23987,278.635 L 277.52862,271.3475 L 270.23987,264.05875 z M 319.83112,200.84375 L 312.54362,208.13125 L 319.83112,215.42 L 327.11987,208.13125 L 319.83112,200.84375 z M 346.06612,255.8225 L 338.77862,263.11 L 346.06612,270.3975 L 353.35487,263.11 L 346.06612,255.8225 z M 155.84987,222.99625 L 161.53112,228.67875 L 168.81862,221.39 L 161.53112,214.1025 L 155.84987,219.78375 L 150.16862,214.1025 L 142.87987,221.39 L 150.16862,228.67875 L 155.84987,222.99625 z M 252.97362,281.7825 L 258.65487,287.46375 L 265.94237,280.17625 L 258.65487,272.8875 L 252.97362,278.56875 L 247.29237,272.8875 L 240.00487,280.17625 L 247.29237,287.46375 L 252.97362,281.7825 z M 270.23987,260.41125 L 275.92112,266.0925 L 283.20987,258.805 L 275.92112,251.5175 L 270.23987,257.19875 L 264.55862,251.5175 L 257.27112,258.805 L 264.55862,266.0925 L 270.23987,260.41125 z M 233.22987,216.86125 C 233.49112,216.66375 233.83237,216.51 234.25112,216.40875 C 235.90112,216.0075 238.74487,216.40875 238.74487,216.40875 C 238.74487,216.40875 239.71737,212.55 239.35737,210.69 C 238.95487,208.615 235.23862,208.465 233.23487,209.98 C 230.67112,211.9175 229.31612,220.34125 230.17362,222.9475 C 230.41112,223.66875 230.77612,224.3225 231.25862,224.84625 C 231.43487,225.0375 231.62612,225.21 231.82612,225.39 L 233.23362,226.655 L 233.98737,228.70375 C 234.30112,229.55625 234.50237,230.29 234.50237,230.29 C 234.50237,230.29 240.22987,226.67125 242.11237,224.3675 C 242.94612,223.3475 243.02612,222.585 243.33612,221.30625 C 243.89987,218.9925 244.74612,216.81875 244.25487,216.40875 C 243.84737,216.0675 242.66612,216.2275 241.73487,216.75 C 240.35737,217.52125 239.52487,219.08375 237.32487,219.47 C 236.71112,219.5775 235.99237,219.59375 235.36737,219.57625 C 231.96487,219.0525 232.86362,217.36875 233.22987,216.86125 z M 271.68237,202.76125 C 275.04487,205.715 279.93112,207.2525 281.85737,204.36875 C 283.10612,202.49875 285.13987,198.59625 285.13987,198.59625 C 285.13987,198.59625 283.07237,195.47375 281.34737,194.13125 C 280.18862,193.22875 277.97487,192.8525 276.66737,193.5625 C 275.51237,194.18875 274.16487,196.00375 273.43362,195.26125 C 272.97862,194.79875 273.51737,192.97875 274.17487,191.27375 C 275.28737,188.38625 280.26737,182.115 274.18737,176.77125 C 274.15987,176.7625 274.13362,176.755 274.10737,176.74875 L 273.17112,176.31875 L 272.19112,176.93625 C 270.66362,177.39 270.95612,180.965 271.45487,181.45375 C 271.72487,181.7175 272.11362,182.50625 272.48112,183.21875 C 273.29612,187.46 272.63987,191.1 270.97987,195.15125 C 270.31612,196.77125 269.83237,198.42125 270.07112,200.23125 C 270.22112,201.365 270.38112,201.61875 271.68237,202.76125 z M 197.00612,236.575 C 197.00612,236.575 197.62112,235.15625 197.99362,234.03125 C 198.62237,232.13375 198.52112,230.7625 198.27362,228.7975 C 197.58237,223.32125 196.51862,210.915 196.51862,210.915 C 196.51862,210.915 198.42612,210.7 199.88362,210.7375 C 203.82487,210.84125 204.97362,212.6975 207.04612,210.62625 C 208.39612,209.2775 209.60362,204.49875 208.73987,202.715 C 207.75362,200.67375 204.40862,199.69125 202.87112,201.35625 C 202.16237,202.125 201.75737,203.33625 200.94612,204.135 C 199.68987,205.37125 197.45737,205.61625 196.35112,206.64625 C 194.45737,208.41125 194.20362,220.74625 194.55112,223.66875 C 195.13987,228.5975 197.00612,236.575 197.00612,236.575 z M 249.62487,188.4525 L 242.90737,195.125 C 241.79112,196.23375 241.63237,196.43375 241.31987,197.11625 C 240.88237,198.0725 240.73112,199.67125 240.94612,199.88875 C 241.64237,200.59125 244.10237,198.88625 244.95862,198.255 C 252.45612,192.725 255.87237,189.2425 257.08487,182.08125 C 257.70112,178.4425 255.77362,177.03375 252.36362,176.56875 C 246.95362,175.8325 241.58487,176.58625 239.48362,180.65875 C 239.81112,196.21 240.27362,187.3175 244.86112,186.21375 C 249.96487,184.985 255.45237,182.2575 249.62487,188.4525 z M 153.37112,188.4525 L 146.65362,195.125 C 145.53737,196.23375 145.37862,196.43375 145.06612,197.11625 C 144.62862,198.0725 144.47737,199.67125 144.69237,199.88875 C 145.38862,200.59125 147.84862,198.88625 148.70487,198.255 C 156.20237,192.725 159.61862,189.2425 160.83112,182.08125 C 161.44737,178.4425 159.51987,177.03375 156.10987,176.56875 C 150.69987,175.8325 145.33112,176.58625 143.22987,180.65875 C 143.55737,196.21 144.01987,187.3175 148.60737,186.21375 C 153.71112,184.985 159.19862,182.2575 153.37112,188.4525 z M 193.29612,193.12625 L 193.35862,192.93875 C 192.62362,193.42125 191.88737,193.91375 191.15237,194.4125 C 189.21112,195.5925 187.17737,196.86625 185.13487,198.20875 L 184.89112,198.945 C 178.70487,203.7475 173.61612,208.88 172.38737,213.45 C 171.41737,217.0575 171.93612,220.9825 174.63362,224.1925 C 174.74987,224.33 174.85487,224.45375 174.94987,224.56625 C 173.73487,223.14625 178.30237,229.1575 177.59362,222.76125 C 177.42487,221.2325 177.10987,219.32125 176.57112,218.875 C 176.25862,218.615 175.86987,218.84875 175.60612,218.71625 C 174.41987,218.1175 176.14612,215.16 176.98862,214.0175 C 179.98237,209.9525 184.99237,205.375 190.65737,201.10875 L 190.83237,200.58 C 197.26862,196.50875 203.71112,193.25375 208.46112,191.84125 C 209.53487,191.5225 210.61237,191.24875 210.84612,191.6025 C 210.96237,191.77875 210.86987,192.11 210.71987,192.4875 C 210.36987,193.37375 209.78362,194.4575 209.12987,195.6225 C 195.57237,219.775 217.27862,186.04375 224.03987,184.64375 C 224.64112,184.28875 225.20987,183.9975 225.71737,183.79625 C 228.31237,182.76375 231.17612,182.375 231.33737,179.8025 C 231.35987,179.44125 231.33487,178.99625 231.29112,178.565 C 230.86862,174.4025 224.20737,176.89875 219.54362,179.07625 C 215.22862,181.09125 208.83987,184.36 202.08362,188.11 C 199.97737,189.27875 196.85987,191.0125 193.29612,193.12625 z M 193.29612,193.12625 L 190.83237,200.58 C 187.98237,202.3825 185.13362,204.345 182.43362,206.37875 L 184.89112,198.945 C 186.89487,197.39 189.01362,195.86875 191.15237,194.4125 C 191.88237,193.97 192.59737,193.54125 193.29612,193.12625 z M 181.82362,198.63 L 181.63112,194.2225 C 181.55362,192.44 181.57987,192.12125 181.88862,191.02875 C 182.11862,190.22 182.36112,189.33375 182.97487,188.7625 C 184.47237,187.3725 188.17987,187.85375 189.89862,186.7075 C 192.37237,185.0575 192.37487,179.3925 190.46987,177.09625 C 188.45112,174.66125 184.36862,178.5275 182.69612,180.74125 C 181.66862,182.1 180.69487,183.6575 180.25737,185.475 C 180.05487,186.31875 179.94237,187.275 179.78362,188.11125 L 179.00737,192.21125 L 176.44237,188.9475 C 172.93112,184.32375 174.00237,182.95 168.84362,181.6925 C 167.11487,181.27125 163.36612,181.42875 162.64612,183.375 C 162.08112,184.8975 163.40487,188.60125 164.23487,189.48125 C 164.87237,190.1575 167.45362,191.835 168.51987,191.93875 C 170.26237,192.10625 173.82362,191.04625 173.82362,191.04625 C 173.82362,191.04625 176.69737,195.1825 178.45237,197.125 C 179.21862,197.9725 179.85237,198.655 180.83362,198.67375 C 181.23987,198.68125 181.82362,198.63 181.82362,198.63 z"
     style="fill:#000000;stroke:none" /-->
  <text
	 id="name"
     style="font-size:35.82610703px;text-align:center;line-height:100%;stroke:#000000;stroke-width:1;font-family:Arial Black"
     x="116.34348"
     y="286.89948"
     transform="scale(0.96667355,1.0344754)">YAHYA BIN CHE MAT</text>
  <path
     id="born"
     style="fill:#ff0000;stroke:none"
     d="m 452.37348,342.56842 -3.85125,-3.85 -4.985,4.98375 4.985,4.985 3.85125,-3.85125 3.85125,3.85125 4.985,-4.985 -4.985,-4.98375 -3.85125,3.85 z m 57.56123,-3.18 c 0,0 0.7363,-1.56875 1.4075,-3.13125 l 1.2438,-2.8975 -0.7125,-3.50375 c -0.13,-0.6375 -0.3638,-1.2275 -0.5888,-1.85125 l -0.7512,-2.07625 0.675,-4.15375 c 0.3662,-2.2525 0.86,-4.88375 1.1875,-6.57875 l 0.3162,-1.6425 0.9113,0.77125 c 0.2525,0.2125 0.5175,0.39625 0.7375,0.45375 0.97,0.25375 2.2875,-3.8375 2.5087,-4.90625 0.615,-2.9675 0.9,-6.36375 -2.0075,-6.245 -3.3037,0.13375 -4.2162,6.16125 -4.6837,8.92 -0.7763,4.58 -1.25,11.8825 -1.25,11.8825 0,0 -3.4163,-6.00375 -5.9988,-10.20875 -1.5012,-2.4475 -5.6187,-8.565 -9.4775,-8.92125 -1.395,-0.12875 -2.5887,1.9925 -3.1725,4.3375 -0.44,1.76625 0.3975,3.5975 2.2025,5.83625 0.6175,0.76625 1.2263,1.34 1.8063,1.395 0.775,0.075 1.4987,-0.77875 2.2137,-0.725 0.5088,0.0388 2.35,2.66375 3.7913,4.855 2.0675,3.14375 4.5912,6.77125 4.5325,7.44 -0.053,0.59875 -1.5988,2.35625 -2.4525,2.7875 -0.735,0.37125 -1.54,0.6275 -2.2663,1.11375 -0.5887,0.3925 -2.2212,3.92 -2.195,4.74125 0.03,0.925 0.225,1.9825 0.225,1.9825 0,0 7.7625,-0.6925 9.4788,-0.35125 1.2337,0.245 2.3187,0.67625 2.3187,0.67625 z m -2.6425,-8.305 1.2138,2.4275 -3.7425,-0.10125 c 0,0 1.72,-0.50625 2.5287,-2.32625 z m -43.32373,-0.1225 c -1.15875,-0.19125 -2.47375,-0.62625 -2.855,-0.84875 -2.74375,-1.5975 -2.10625,-4.835 -2.23,-8.095 -0.0538,-1.3875 -0.48125,-2.75125 -1.395,-4.45 -1.12625,-2.09375 -3.07375,-5.0175 -3.07375,-5.0175 0,0 -0.9,1.4625 -1.74625,2.9075 -1.15625,1.9775 -1.495,4.57625 -0.775,5.23125 l 0.48375,0.43875 c 0.3675,0.335 -1.19625,2.40625 -4.69,0.49 -0.53375,-0.2925 -1.0575,-0.70875 -1.49625,-1.16625 -1.14125,-1.19 -1.925,-1.99875 -2.50875,-2.46125 l -1.2325,-0.97625 -0.99,1.76 c -0.78875,1.405 -2.02125,3.9225 -1.92375,4.64875 0.11,0.83375 2.71625,3.5975 3.53,5.18625 1.11375,2.1725 -3.30375,5.26375 -6.63,7.41 -1.68,1.085 -4.51625,2.20125 -7.66125,3.015 -2.2975,0.595 -5.20125,1.235 -5.20125,1.235 0,0 4.4025,3.07375 5.87,3.505 2.17375,0.6375 5.90375,-1.15875 7.695,-2.51 2.17625,-1.64 8.70125,-7.85625 9.2825,-11.7025 0.0512,-0.34375 0.0462,-0.65875 0.195,-0.8425 0.29,-0.35375 2.41375,0.12875 3.535,0 0.57125,-0.065 1.22375,-0.685 1.7625,-1.6725 0.795,-1.4575 1.97,-3.94 1.97,-3.94 0,0 0.8625,2.7675 1.09625,4.855 0.445,3.965 -0.94125,6.2825 1.6725,8.285 1.28,0.98 3.24625,1.59125 5.32125,1.855 2.45625,0.3125 6.59,-0.25125 8.36253,-1.17625 l 1.585,-0.8275 5.3612,0.555 c 2.8125,0.29125 5.845,0.7775 7.3588,1.30875 1.425,0.50125 1.6625,0.4425 2.3737,-0.58625 1.6575,-2.395 2.2538,-6.43875 1.9763,-8.21 -0.5275,-3.37 -4.6275,-11.40375 -8.8088,-12.7125 -1.6412,-0.51375 -1.76,0.37 -3.155,1.8175 -0.985,1.02375 -2.3987,1.61 -3.5875,2.44875 -1.485,1.04625 -4.70873,4.8425 -5.71498,7.03125 -0.11875,0.2575 -0.21875,0.4725 -0.30375,0.65125 -0.71625,1.4925 -2.4125,2.73 -3.4525,2.56 z m 19.44753,-0.0113 -7.07,-0.5175 1.1825,-1.37 c 0.36,-0.41625 1.1825,-2.00875 1.6562,-3.24 l 0.4263,-1.10875 c 0,0 2.2612,2.41375 3.045,3.395 0.2837,0.3575 0.3737,0.525 0.4837,1.085 0.125,0.62875 0.2763,1.75625 0.2763,1.75625 z m -10.3038,-1.77375 c -0.1562,0.0962 -0.4525,0.0437 -0.7337,-0.0138 -1.175,-0.2425 -1.9488,-0.58625 -1.7863,-1.335 0.1375,-0.6375 2.7975,-2.76625 3.7875,-2.33875 1.895,0.8175 -0.475,3.19625 -1.2675,3.6875 z m -71.13873,-3.66495 -2.505,-20.96125 c 0,0 -3.52125,3.93875 -4.2075,5.455 -0.3575,0.78875 2.365,14.0825 2.16,16 -0.0663,0.6175 -2.335,3.12125 -3.215,3.55 -2.025,0.985 -12.49875,3.8725 -14.4975,-0.27875 -0.50375,-1.0475 -0.90625,-3.0175 -0.90625,-3.0175 0,0 -1.3325,1.5525 -2.06,2.52875 -1.06375,1.425 -1.83,3.945 -0.93625,5.6975 0.49375,0.96625 3.86375,2.52375 5.445,2.9975 2.3825,0.715 8.55625,-0.34125 11.28125,-2.35125 1.87875,-1.385 4.74,-4.74 4.74,-4.74 0,0 0.585,1.61625 1.26625,3.2425 0.75,1.78875 4.8,3.93875 8.1725,4.415 1.93,0.27375 3.66625,0.45 4.2175,0.3725 9.21875,-1.30875 13.39875,-0.5 16.4525,-8.03 1.88125,-4.6375 0.0688,-11.3825 -5.2975,-15.3325 -2.745,-2.02125 -3.89625,-0.6175 -6.69,2.50875 -1.9775,2.2125 -3.8575,4.89375 -4.00125,5.775 -0.10375,0.6375 1.80375,4.605 2.3175,4.81875 1.29625,0.54125 3.2675,0.285 5.44625,-1.06625 0.93125,-0.57625 2.205,-1.4775 2.205,-1.4775 0,0 1.28375,1.905 1.8375,3.10125 0.88125,1.90125 -0.14375,2.06625 -1.6725,2.51 -2.19625,0.63625 -6.62125,1.505 -8.36375,1.39375 -1.8075,-0.11625 -5.83375,-1.085 -8.375,-1.73375 -1.14625,-0.29375 -2.5275,-2.97875 -2.81375,-5.3775 z m 15.0925,-5.155 c 0.0425,-0.15 0.3225,0.0863 0.5575,0.27875 0.785,0.64375 1.75,1.44 1.115,1.95125 -0.545,0.43875 -1.22125,-0.19625 -1.4425,-0.7875 -0.16,-0.42625 -0.32875,-1.09125 -0.23,-1.4425 z m -1.99375,-16.7325 -4.9725,4.97375 4.9725,4.9725 4.9725,-4.9725 -4.9725,-4.97375 z" />
  <text
     id="borndate"
     style="font-size:48px;text-align:center;stroke:#000000;stroke-width:1;font-family:jawi"
     x="116.72442"
     y="343.07431">26.8.1937</text>
  <path
	 id="kembali"
     style="fill:#ff0000;stroke:none"
     d="m 406.59096,342.28125 c -0.48,0.23499 -1.15375,0.38625 -1.90625,0.65625 -1.53749,0.55125 -3.495,2.67375 -4.03125,4.375 l -0.9375,2.96875 1.09375,1.1875 c 0.33376,0.36876 0.76875,0.79375 1.21875,1.21875 l 1.5625,1.46875 1.21875,2.25 c 0.425,2.0575 -0.27,1.2375 -0.0312,3.375 0.25125,2.2625 0.515,2.0025 0.78125,4.875 0.04,0.42999 -0.0163,0.70125 -0.1875,1.09375 -1.04876,2.39876 -2.92875,2.62 -5.75,2.625 -0.76749,10e-4 -1.32375,-0.02 -1.78125,0 l -1.78125,0.0937 -2.25,2.09375 c -0.76749,0.71749 -1.5775,1.5775 -2.21875,2.3125 -1.67251,1.91875 -2.68875,2.94 -2.8125,3.53125 -0.27501,1.31625 6.455,-0.32875 12.75,2.09375 0.64751,0.24875 1.36375,0.6025 2.3125,1.09375 1.36501,0.7075 3.21875,1.71875 3.21875,1.71875 1e-5,10e-6 -1.79,1.4 -3.3125,2.375 -4.68624,3.00251 -17.4925,4.87125 -22.71875,2.90625 -3.75498,-1.41126 -6.73625,-3.96375 -7.1875,-7.625 C 373.5447,376.5675 374.52846,367 374.52846,367 c 1e-5,0 -1.82625,2.4725 -2.84375,4.03125 -3.09,4.73125 -4.17875,12.735 -1.71875,17.71875 3.01625,6.11124 10.74375,7.25625 18.40625,6.40625 7.075,-0.78374 17.16875,-4.68625 21.375,-9 1.51874,-1.55749 5.2025,-6.46875 5.75,-7.96875 0.19875,-0.54001 -0.86125,-3.495 -1.40625,-3.90625 -1.66501,-1.2575 -6.0625,-2.96875 -6.0625,-2.96875 -10e-6,0 1.98875,-3.4075 3.03125,-5.5 0.50876,-1.02375 0.82,-0.545 0.65625,-1.90625 -0.19249,-1.60125 -0.6025,-3.72375 -1.03125,-4.9375 -0.60001,-1.7 -1.50875,-0.985 -0.625,-2.125 0.25001,-0.31999 0.8075,-0.315 1.375,-0.34375 0.55751,-0.0275 2.37875,-1.485 3.5625,-2.84375 1.0375,-1.19124 2.0625,-3.3125 2.0625,-3.3125 -10e-6,-10e-6 -5.63,-1.96 -6.90625,-2.9375 -0.39001,-0.29999 -0.7375,-0.605 -1.03125,-0.875 -1.87249,-1.72751 -1.83,-4.5925 -2.53125,-4.25 z m 109.90625,0.25 -2.84375,0.875 c -5.10376,1.55751 -17.425,8.51125 -18.15625,8.96875 -1.76876,1.10749 -8.905,6.1325 -12.40625,9.46875 L 480.80971,364 l 2.84375,0.125 c 2.08374,0.08 4.775,0.85 5.96875,3.90625 0.53499,1.3675 0.9925,3.16375 0.84375,3.625 -0.31876,0.98874 -2.30875,2.6 -3.375,4.28125 -1.86376,2.93874 -2.05625,6.89125 -6.4375,7.1875 -2.33125,0.1575 -4.59,-1.73 -5.34375,-3.59375 -0.45625,-1.12999 -0.875,-2.84375 -0.875,-2.84375 -10e-6,0 -2.6525,2.79625 -4.34375,3.8125 -0.97374,0.58374 -2.875,1.00875 -4.40625,1.1875 -12.84751,1.49499 -19.81125,2.595 -31.8125,-1.34375 -3.18876,-1.04625 -3.62,-1.53625 -4.09375,-4.125 -0.69376,-3.79751 -1.5875,-14.1675 -1.84375,-18.1875 -0.33123,-5.20375 1.21625,-8.43625 -1.4375,-13.6875 l -0.65625,-1.3125 -1.28125,1.90625 c -1.01,1.53374 -1.94875,3.13875 -2.0625,3.53125 l -0.75,2.53125 0.71875,1.90625 c 1.25251,3.45874 1.2425,2.38625 0.875,7.59375 -0.15501,2.19001 -0.1925,11.045 -0.0937,13.1875 0.55626,12.00375 4.09875,12.2725 7.9375,13.40625 3.28499,0.97001 7.53625,1.78125 9.3125,1.96875 1.6825,0.17876 3.825,0.23625 6.15625,0.21875 l 0.9375,-0.9375 0.9375,0.90625 c 5.61251,-0.15 11.94875,-0.77375 16,-1.6875 1.24624,-0.28 2.52125,-0.61375 3.53125,-1.0625 1.78627,-0.79376 2.1975,-1.62875 2.625,-1.59375 0.31624,0.0263 0.775,0.96625 1.40625,1.875 0.97625,1.40501 3.30125,2.5325 5.21875,2.6875 0.42376,0.0337 1.3175,-0.32125 2.3125,-0.875 3.68626,-2.05124 5.315,-3.29375 6.09375,-3.96875 l 0.78125,-0.6875 0.59375,0.40625 c 0.315,0.20001 0.74125,0.54 1.71875,0.84375 0.29125,0.09 0.645,0.1875 1.03125,0.3125 2.52251,0.80875 5.21,1.24 7.0625,1.25 l 1.25,0.0312 c 0.9125,0.008 2.64625,-3.31625 3.40625,-4.96875 l 0.28125,-0.625 -1.125,-0.0937 c -1.1225,-0.1 -2.92,-0.33125 -4.28125,-0.8125 -1.6525,-0.58375 -4.46375,-2.2275 -5.21875,-3.0625 -0.63001,-0.6975 -1.34375,-1.625 -1.34375,-1.625 -10e-6,-10e-6 1.8675,-0.9325 2.90625,-1.71875 1.56874,-1.18625 2.69,-3.18 3.0625,-4.6875 0.54375,-2.19751 -0.5375,-6.18 -2.15625,-8.0625 l -0.9375,-1.09375 1.625,-1.0625 c 2.63499,-1.73876 5.795,-3.59875 7.1875,-4.25 3.63624,-1.7 6.4375,-2.47875 8.65625,-3.40625 l 2.625,-1.125 c 1.36124,-0.56876 3.04875,-3.0325 3.4375,-5 0.15873,-0.80375 0.25625,-1.87125 0.21875,-2.65625 z M 448.52846,389.25 c -0.63624,0.0175 -1.2625,0.0263 -1.875,0.0312 l -5.0625,5.0625 6,6.03125 6.03125,-6.03125 -5.09375,-5.09375 z M 205.30971,343.9375 c -0.50754,0.0368 -1.73188,0.97844 -3.6875,5.40625 -0.16874,0.3825 -0.33625,0.81 -0.53125,1.28125 l -1.1875,2.84375 c 0,10e-6 1.4375,1.4375 1.4375,1.4375 0.42249,0.43 0.47875,0.635 0.59375,2 l 2,18.625 c 0.2425,2.895 -0.26,7.17 -0.625,9.09375 l -0.59375,3.0625 c 0,-10e-6 3.98375,-5.47625 5.15625,-8.71875 0.2225,-0.6175 1.145,-3.755 1.09375,-5.1875 -0.03,-0.82624 -0.0475,-1.07625 -0.1875,-2.4375 l -2.65625,-19.28125 c -0.34375,-2.4825 -0.6125,-6.47 -0.53125,-7.9375 -0.0106,-0.0891 -0.11207,-0.19977 -0.28125,-0.1875 z m 20.0625,0 -6,6 6,6 4.65625,-4.65625 4.65625,4.65625 6,-6 -6,-6 -4.65625,4.6875 -4.65625,-4.6875 z m 107.6875,0.375 -1.9375,0.8125 c -2.99126,1.22501 -8.7575,5.2325 -14.09375,10 -3.91251,3.49626 -8.9925,8.6825 -9.9375,10.1875 -1.02501,1.63001 -2.0825,4.795 -2.875,6.8125 -0.28624,0.72751 0.2725,1.7125 1.25,2.5 3.33999,2.68999 17.7775,2.15875 39.09375,-1.1875 0.46252,-0.0725 0.96375,-0.12125 1.5625,-0.15625 3.89876,-0.22376 9.78875,1.29875 10.0625,4.09375 0.0887,0.89874 0,2.3125 0,2.3125 -10e-6,-10e-6 -14.5625,1.15625 -14.5625,1.15625 -22.27,1.74376 -35.9375,2.6325 -43.5,-5.71875 -0.58376,-0.64376 -1.2475,-1.47125 -1.90625,-2.3125 l -2.9375,-3.75 -3.53125,9.71875 1.5625,1.96875 c 0.63251,0.80624 1.33125,1.67875 1.96875,2.4375 l 1.875,2.21875 -2.40625,2.0625 c -9.86626,8.47376 -11.545,10.8 -20.53125,9 -0.41501,-0.0825 -0.82625,-0.18 -1.15625,-0.28125 -0.18126,-0.055 -0.32875,-0.10125 -0.5,-0.15625 l -5.78125,-1.84375 2.875,3.21875 c 3.26875,3.6675 15.77625,5.34625 22,0.3125 2.04125,-1.64999 3.87125,-3.55625 4.65625,-5 0.71499,-1.31625 1.1425,-2.40625 1.46875,-3.28125 l 1.1875,-3.1875 3.59375,0.5625 c 5.33876,0.84376 12.8025,1.56875 24.3125,1.75 16.31751,0.25501 27.365,-0.56 31.15625,-1.71875 l 2.4375,-0.75 4.1875,-5.40625 c 0.13125,-0.47375 0.25875,-0.9575 0.375,-1.4375 0.77375,-3.21375 0.115,-7.0875 -1.40625,-9.78125 -1.94999,-3.45749 -8.015,-5.7975 -12.40625,-4.78125 -1.11876,0.26 -2.41875,0.615 -4.03125,1 -8.92499,2.13375 -15.58375,3.54 -23.5,2.90625 l -13.28125,-1.0625 c 1e-5,10e-6 3.66125,-3.16375 7.03125,-6.15625 3.0175,-2.68 9.7175,-5.82625 13.125,-6.125 l 1.65625,-0.15625 1.03125,-1.3125 c 1.03876,-1.33874 1.685,-3.405 2.0625,-5.25 0.13877,-0.67624 0.21125,-1.36 0.125,-1.875 l -0.375,-2.34375 z m -191.46875,4.15625 c 0,10e-6 -1.3575,0.72 -2.5625,1.65625 -1.285,0.99751 -2.12125,1.8575 -2.65625,2.53125 l -0.6875,0.84375 0.5,2.1875 c 0.14375,0.64001 0.32625,2.46625 0.375,3.65625 l 0.0312,0.5625 -1.21875,0.4375 c -0.74375,0.26125 -1.81525,0.505 -2.84375,0.9375 -3.09687,1.30625 -11.19487,9.5125 -11.03125,14.96875 0.0666,2.22749 3.79263,5.845 4.84375,6.28125 0.72063,0.29876 2.419,-0.1025 4.96875,-1.125 2.69875,-1.08249 6.8125,-2.6875 6.8125,-2.6875 0,10e-6 0.24625,3.44625 0.96875,5.3125 0.13,0.33626 0.90875,1.0675 1.8125,1.8125 3.82876,3.14749 13.085,3.97625 18.9375,1.53125 2.32751,-0.97249 4.43,-2.34375 5.75,-3.875 0.8825,-1.02501 2.59375,-2.75 2.59375,-2.75 0,0 0.93625,2.6925 1.875,4.09375 0.84874,1.26499 1.17625,1.77875 1.78125,2.21875 0.94749,0.68999 6.76125,1.8575 8.71875,1.75 3.7225,-0.20251 5.76,-1.00125 8.25,-4.15625 1.39751,-1.77251 2.68125,-3.455 3.65625,-5.09375 3.87125,-6.50125 1.91625,-16.14125 0.1875,-21.8125 l -2.15625,-7.0625 -5.25,9.75 0.90625,3.59375 c 1.2775,5.1925 3.37125,13.94 0.75,15 -0.4925,0.2 -1.055,0.40875 -1.5625,0.5625 -2.70374,0.81874 -8.87375,-0.42 -10,-0.9375 -0.65,-0.29749 -2.67875,-3.6225 -2.9375,-4.8125 -0.84251,-3.88125 -2.09375,-24.25 -2.09375,-24.25 -1e-5,10e-6 -0.81375,0.97 -1.625,2.125 -1.165,1.65874 -2.685,4.4475 -3.15625,6.15625 -0.12125,0.43876 0.835,2.48625 1.0625,6.03125 L 167.40346,377 c 1e-5,0 -5.6275,1.73875 -9.21875,2.40625 -2.1575,0.40124 -6.10875,0.14875 -9.4375,-0.9375 -4.21125,-1.37375 -5.8,-3.38125 -6.9375,-17 -0.26375,-3.15499 -0.4575,-6.40125 -0.40625,-8.21875 0.0638,-2.27126 0.1875,-4.78125 0.1875,-4.78125 z m 87.90625,8.96875 c -0.46,-1.01375 -2.53125,2.42875 -4.3125,7.125 -0.14375,0.37875 1.00875,1.7875 1.78125,4.4375 0.4375,1.50126 0.69875,3.07875 0.65625,4.0625 -0.0375,0.83874 -0.265,1.65125 -0.875,2.15625 -0.89,0.73374 -4.39,1.2525 -6.96875,2.15625 -3.98124,1.39751 -4.8825,3.3325 -7.0625,6.71875 -2.68374,4.16999 -4.1925,6.02 -0.75,8.46875 2.97374,2.11625 9.1675,2.96375 13.0625,0.875 2.00251,-1.07374 3.8875,-3.69875 4.4375,-3.59375 0.28,0.0538 0.4625,0.78125 0.71875,1.78125 0.10875,0.42499 0.2575,0.8525 0.46875,1.25 1.5175,2.84875 6.89375,5.5575 12.5625,6.90625 0.51375,0.12126 1.05875,0.21125 1.59375,0.28125 6.54375,0.86376 7.1975,0.0213 8.03125,0.0312 0.465,0.006 2.61125,-2.76875 4.3125,-5.65625 0.61749,-1.04876 -4.43,-0.74125 -7.46875,-3.40625 -1.45375,-1.27499 -2.53125,-2.46875 -2.53125,-2.46875 0,10e-6 1.9625,-0.50375 4.59375,-0.9375 0.7375,-0.12249 8.02375,-0.48625 15.625,-0.78125 3.24374,-0.12625 7.7925,0.3225 9,0.9375 0.75626,0.38625 1.28875,0.7 1.6875,0.5625 3.19249,-1.10375 5.20875,-5.02 6.0625,-7.59375 l 0.59375,-1.8125 -1.75,-0.4375 c -1.32249,-0.33124 -3.39875,-0.89375 -4.78125,-1.34375 -1.74248,-0.56501 -2.81,-1.16625 -4.4375,-2.28125 -8.25751,-5.65875 -14.635,-12.38375 -20.40625,-10.875 l -2.65625,0.6875 -2.46875,3.25 c -1.50874,2.00375 -3.205,4.7625 -3.375,5.625 -0.13751,0.7025 -0.14,1.38625 -0.0312,2.0625 l 0.1875,1 3.40625,0.5625 c 0.645,0.10749 1.06875,0.20375 1.4375,0.25 l 3.0625,0.375 2.40625,-1.09375 c 0.50625,-0.22626 1,-0.47375 1.4375,-0.78125 1.06874,-0.75124 1.32125,-0.74875 2.5625,0.1875 l 2.75,2.09375 c -10e-6,0 -8.825,1.49 -13.5625,2.96875 -2.165,0.67626 -4.4775,1.62875 -5.75,3 -1.73125,1.86626 -4.09375,6.03125 -4.09375,6.03125 0,-1e-5 -1.45375,-1.6925 -2.34375,-3.15625 -0.82125,-1.35125 -1.8175,-5.485 -2.03125,-7.59375 -0.14375,-1.42874 -0.095,-3.2775 -0.0312,-5.09375 0.12375,-3.51874 -1.12125,-9.8075 -2.5625,-12.5 -1.08,-2.015 -2.1875,-4.4375 -2.1875,-4.4375 z m -92.59375,8.25 c 0,0 0.565,2.8175 0.65625,4.53125 0.23125,4.35125 -5.1895,3.00875 -8.25,2.15625 -1.06975,-0.29751 -1.96075,-0.82625 -1.28125,-1.90625 0.13688,-0.2175 0.32176,-0.27375 1.84375,-0.6875 1.95888,-0.53249 5.065,-1.48125 5.71875,-2.21875 0.68125,-0.77001 1.3125,-1.875 1.3125,-1.875 z m 92.0625,15.09375 -0.40625,2.40625 c -0.18,1.07626 -0.265,1.21125 -0.96875,1.5 -0.155,0.0637 -2.88125,0.6525 -3.125,0.65625 -0.67625,0.0113 -0.89625,-0.0175 -2.28125,-0.25 l -3.09375,-0.5 0.125,-0.6875 c 0.0513,-0.30874 0.23,-0.395 1.9375,-0.84375 1.29375,-0.33874 3.24125,-0.7725 3.96875,-0.4375 0.38751,0.17876 0.44875,0.4125 1.09375,0.15625 0.98375,-0.39125 2.75,-2 2.75,-2 z m 181.375,7.59375 -6,6 6,6 4.65625,-4.65625 4.65625,4.65625 6,-6 -6,-6 -4.65625,4.65625 -4.65625,-4.65625 z" />
  <text
	 id="deathmuslim"
     style="font-size:48px;text-align:center;stroke:#000000;stroke-width:1;font-family:jawi"
     x="141.70949"
     y="444.97043"
     dx="0 5.6403008 0 0 172.02667">143129</text>
  <path
     id="muslimMonthGlyph"
     d="m 342.26553,404.68032 c -0.255,0.3325 -0.5125,0.70625 -0.73375,1.0775 -0.815,1.36125 -1.72875,4.52125 -1.755,6.07125 -0.0875,5.2225 0.455,18.765 1.0375,22.78125 l 0.6425,4.4275 1.82625,-4.23875 c 0.36,-0.83625 0.715,-1.85125 0.9675,-2.77375 2.125,-7.77875 2.31125,-15.83875 -0.10375,-25.95375 l -0.7,-2.93125 -1.18125,1.54 z m -14.005,-1.535 c -0.435,-0.0875 -1.4725,1.115 -2.07875,2.22625 -1.38625,2.54375 -2.51875,5.04875 -1.98875,7.16375 0.4175,1.665 1.9175,3.19 2.505,5.1025 0.35125,1.14375 0.2,4.4925 -0.27625,6.075 l -0.63875,2.12625 -1.63875,-1.9625 c -0.24,-0.28625 -0.46625,-0.61375 -0.67625,-0.93875 -0.95875,-1.485 -1.54,-2.88625 -2.48875,-4.185 -3.1325,-4.2875 -10.56125,-8.5625 -16.0525,-9.385 -2.01875,-0.3025 -2.56375,0.58375 -3.095,2.66375 -1.1425,4.47 0.40625,12.42375 5.6325,11.18625 1.31875,-0.3125 2.7525,-1.25 3.90375,-1.27625 2.05875,-0.0475 7.43625,5.23125 8.57125,6.495 0.9125,1.01625 1.53625,2.31125 1.46875,3.0475 -0.0675,0.735 -3.71,5.11875 -5.00625,6.025 -3.21375,2.24625 -4.30875,2.5075 -4.97375,5.165 -0.8975,3.5875 -0.205,3.9575 2.61375,3.65375 0.9875,-0.10625 2.14875,-0.2075 2.98625,-0.57125 l 2.20125,-0.9575 1.20625,0.13125 c 1.59625,0.1725 3.6675,0.5575 4.57,0.33375 2.04625,-0.50875 4.27875,-4.06125 4.49375,-5.63625 0.17,-1.255 -0.8375,-5.61 -1.24375,-8.4225 l -0.33,-2.2825 1.39125,-3.01375 c 1.0325,-2.23875 2.2575,-6.25 2.51375,-8.165 0.12875,-0.96375 0.27625,-1.92125 0.56,-2.815 0.435,-1.3725 1.22375,-2.76125 1.50875,-4.02875 l 0.45625,-2.0375 -1.86,-1.15875 c -0.5725,-0.3575 -1.235,-0.74 -1.79,-1.435 -0.86625,-1.08375 -1.865,-3.00875 -2.445,-3.12375 z m -6.3725,34.3275 2.1375,-2.68125 0.905,1.7525 0.73375,1.41875 -3.20875,1.1875 -2.7025,1.00125 2.135,-2.67875 z m -61.30625,-11.8825 c -0.0112,-0.0175 -0.0212,-0.035 -0.0325,-0.0525 l -1.94375,-3.1825 -1.80875,1.42125 c -1.0575,0.83 -1.87625,2.4225 -2.34375,3.89625 -0.32625,1.03 -0.17375,3.41 0.3025,4.7275 0.4675,1.2925 1.20125,2.59125 1.8275,3.69 l 1.4925,2.61875 -0.92375,1.51875 c -2.02625,3.33375 -8.5525,9.18125 -11.95875,10.405 -7.03875,2.5275 -17.28375,3.97875 -16.05,4.29 3.48125,0.88 12.085,2.37875 15.7475,2.6475 5.4425,0.4 5.73875,-0.9175 10.48375,-6.995 3.82875,-4.9025 5.3825,-6.685 6.34375,-12.225 l 0,0.075 c 0.0587,-0.0875 0.1175,-0.15875 0.17375,-0.2125 0.8025,-0.75125 1.9925,-1.00125 3.105,-1.83125 1.0525,-0.785 2.90125,-2.975 3.435,-4.32375 0.49875,-1.26 0.99125,-3.52875 0.99125,-3.52875 0,0 0.755,8.3175 1.55125,10.73375 0.37,1.1225 1.39125,3.30875 2.53,4.8025 1.40625,1.84125 6.05,2.53625 9.485,1.28875 3.09375,-1.12375 8.64875,-3.46125 12.45625,-4.59125 l 2.34625,-0.69625 1.44625,0.22125 c 0.78875,0.12125 1.58,0.32125 2.27375,0.255 0.885,-0.085 3.22875,-1.8725 5.10625,-3.7425 1.3,-1.295 2.69,-3.94375 2.64125,-5.09625 -0.0225,-0.5375 -0.0637,-0.96125 -0.0637,-0.96125 0,0 -2.8625,0.32375 -5.24375,0.0913 -1.29125,-0.12625 -11.90625,-6.75125 -14.12,-7.3575 -0.955,-0.26125 -5.6925,0.49625 -6.7275,1.07625 -1.605,0.89875 -6.5875,5.76125 -4.705,7.33125 0.4525,0.37875 2.30625,-0.13875 4.035,-0.07 1.1225,0.0437 3.1475,0.7775 4.75,1.54625 l 2.3975,1.15 -2.34125,0.83 c -0.22375,0.0787 -0.49625,0.17375 -0.835,0.29125 -5.52,1.91125 -6.99625,2.92125 -9.785,-0.91625 -0.70125,-0.96625 -1.33625,-2.00875 -1.62875,-3.26625 -0.83375,-3.57375 0.75625,-8.15625 -1.32375,-10.96125 -2.09125,-2.8175 -5.2825,3.5275 -6.42125,5.91 -0.3625,0.76125 -0.60625,1.16375 -0.9725,1.33125 -5.2525,1.49875 -6.295,-3.12875 -5.6925,-2.13875 z m 8.01375,23.3125 -3.64375,-3.645 -5.31875,5.31875 5.31875,5.32 3.645,-3.645 3.645,3.645 5.3175,-5.31875 -5.31875,-5.32 -3.645,3.645 z m 19.735,-40.3875 -5.31875,5.31875 5.32,5.31875 5.3175,-5.3175 -5.31875,-5.32 z m 122.71625,15.04125 c -1.0575,0.83 -1.875,2.42375 -2.3425,3.8975 -0.32625,1.03 -0.175,3.40875 0.3025,4.7275 0.4675,1.29125 1.2,2.59125 1.8275,3.68875 l 1.4925,2.62 -0.92375,1.51875 c -2.0275,3.33375 -8.5525,9.18125 -11.95875,10.40375 -7.03875,2.52875 -17.285,3.97875 -16.05125,4.29125 3.4825,0.87875 12.085,2.3775 15.74875,2.64625 5.44125,0.4 5.73875,-0.91625 10.48375,-6.995 4.61,-5.90375 5.9225,-7.28125 6.87125,-16.1475 0.44875,-4.1925 0.21375,-5.76125 -1.69625,-8.89 l -1.945,-3.18125 -1.80875,1.42 z m -25.65375,21.4825 -5.31875,5.31875 5.32,5.31875 5.3175,-5.31875 -5.31875,-5.31875 z m -11.1225,-15.54375 c -1.3225,-0.24375 -2.6575,-0.625 -4.24375,-1.1725 -1.84125,-0.63375 -2.55875,-0.94125 -2.74875,-1.9675 -0.28875,-1.5475 1.3875,-9.54 1.02875,-10.3775 -0.35375,-0.82625 -5.4425,-3.3025 -7.94625,-3.55375 -4.21125,-0.42375 -8.9375,3.23375 -9.66625,7.94125 -0.17,1.09625 -0.135,3.60875 0.605,4.235 0.93625,0.7925 3.4225,1.41375 3.4225,1.41375 0,0 -3.135,4.01875 -4.93375,6.8375 -0.7425,1.165 -1.365,2.36375 -1.895,3.57125 -2.10375,4.785 -3.22,12.91875 -2.32375,16.72125 2.2475,9.54125 13.425,17.30125 20.24375,16.4975 2.07125,-0.24375 4.58,-0.5775 7.09875,-0.96125 8.2025,-1.24875 11.8525,-3.44625 13.5075,-4.9225 l 2.325,-2.07375 -5.095,-0.33 c -2.66625,-0.1725 -6.3225,-0.3025 -9.73625,-0.32 -8.7575,-0.0462 -14.68,-1.185 -19.59375,-6.44625 -5.29625,-5.67125 -5.145,-7.5675 -2.71875,-13.8875 0.6125,-1.595 2.50125,-4.0125 3.8275,-4.9425 0.21625,-0.1525 0.45,-0.315 0.70375,-0.49125 1.765,-1.23 3.7025,-2.42625 4.1875,-2.2425 0.62,0.23625 1.1675,2.49375 2.4575,3.7525 0.63,0.61375 1.5075,1.06875 2.4625,1.5375 4.52375,2.22125 13.44875,0.44125 16.97,-0.39375 0.46,-0.11 0.9175,-0.21375 1.355,-0.305 l 2.63875,-0.55625 2.1625,0.79125 c 0.7,0.25625 1.48875,0.57125 2.295,0.9025 3.505,1.4375 8.07125,0.79 9.3875,-1.25875 0.91375,-1.42375 1.79875,-3.09375 2.49,-4.6425 0.53875,-1.205 1.20125,-3.94 1.4625,-5.69 0.89,-5.94625 -3.69125,4.40625 -8.54875,2.725 l -4.69375,-1.62375 c 0,0 0.60875,-1.82125 0.96875,-3.31 1.24625,-5.13875 -0.68875,-0.35 -5.8025,2.76625 -1.49875,0.915 -7.30625,1.36125 -8.83125,1.51 -1.01875,0.0988 -1.955,0.18875 -2.8225,0.26625 z m -8.5275,19.18875 -3.64375,-3.645 -5.31875,5.31875 5.32,5.31875 3.64375,-3.645 3.645,3.645 5.31875,-5.31875 -5.32,-5.31875 -3.645,3.645 z"
     style="fill:#000000;stroke:none" />
  <path
     id="equals"
     d="m 296.65609,475.41625 c -0.6425,-0.2075 -1.2375,-0.42375 -1.78625,-0.64625 -2.11375,-0.8575 -4.20875,-1.8325 -4.7075,-2.36375 -0.5925,-0.6325 -1.12,-2.51375 -1.24375,-4.2125 -0.3425,-4.73 0.007,-10.66125 -0.55625,-15.66875 -0.47375,-4.195 -1.68875,-6.54 -2.645,-7.65375 l -0.7975,-0.9275 -3.89875,7.42625 1.06875,2.4225 c 0.38875,0.88 0.85,1.82 1.19125,2.72375 2.26375,5.995 0.155,8.87375 0.29875,17.4125 0.0925,5.495 1.38125,7.6075 5.9175,9.68 5.26625,2.405 10.88,-2.7275 14.98125,-0.24625 0.61125,0.37 1.12875,0.74625 1.44625,1.0325 0.67625,0.6125 1.22875,1.18125 1.7025,1.66375 l 1.92875,1.96625 1.51125,-0.56 c 1.48625,-0.54875 3.01625,-2.28875 3.87375,-4.5 l 0.58,-1.49875 -0.665,-1.07875 c -0.27375,-0.44375 -0.6425,-0.92125 -1.05125,-1.35875 -2.565,-2.745 -6.55,-6.0025 -4.41875,-7.20125 4.22125,-2.375 4.21625,-0.4875 7.0975,4.4775 1.81125,3.11875 3.9225,3.85 7.7675,2.99 1.25875,-0.28125 2.57,-0.7325 3.475,-1.355 0.17375,-0.12 0.33375,-0.24625 0.48375,-0.3725 l 1.70375,-1.43125 4.31375,1.23 c 1.04125,0.29625 2.1025,0.61625 2.9975,0.88 2.6175,0.775 5.5075,0.28 7.6375,-0.95125 1.1075,-0.64 5.3775,-5.63 5.6725,-6.62875 0.24875,-0.84125 -0.19875,-3.49625 -1.10125,-5.31875 l -1.2775,-2.58125 -5.0925,4.405 -0.10375,2.715 c -0.0838,2.21 -5.76625,0.96875 -5.68375,0.19875 l 0.11375,-1.06625 c 0.0537,-0.50625 0.1025,-1.10125 0.0975,-1.56625 -0.004,-0.275 -0.035,-0.5375 -0.0937,-0.76875 -0.21375,-0.8475 -0.4375,-1.44625 -0.67,-1.84375 -1.0175,-1.73 0.27875,3.6625 -7.45375,6.95875 -1.7,0.725 -3.885,0.44 -5.35,-0.6725 -0.54875,-0.41625 -0.97,-0.9725 -1.35125,-1.6325 -2.39625,-4.1425 -3.33125,-6.905 -7.32125,-6.2225 -1.18,0.20125 -5.0325,2.40125 -5.98375,3.41625 -1.56375,1.66875 -3.12,4.135 -4.285,5.62 l -1.08875,1.3875 c 0,0 -2.2875,0.6475 -2.2875,0.6475 -1.34,0.38 -3.0675,0.7425 -4.94625,1.07375 z m 74.4125,-4.155 c 0,0 -2.715,0.29875 -4.2925,0.0975 -0.92625,-0.1175 -2.61,-0.80875 -3.45375,-1.40125 l -5.21375,-3.65625 -3.66,10.845 4.46125,4.345 -3.03875,1.8975 c -4.31875,2.69625 -12.845,6.015 -15.54625,6.135 -3.11,0.1375 -10.10375,-0.97875 -10.10375,-0.97875 0,0 1.56,1.62875 2.51625,2.33375 0.32875,0.24125 0.5875,0.375 0.81875,0.54 1.1875,0.8425 1.70125,2.52 2.835,3.405 1.51125,1.17875 8.57125,0.4125 11.50375,-0.505 3.755,-1.175 10.67,-6.1875 14.24125,-9.4025 l 4.88875,-4.40125 0.9075,-0.42375 c 0.95625,-0.44625 2.3175,-0.9375 4.40125,-1.54125 0.6775,-0.19625 1.4875,-0.49 2.47,-0.9325 0.325,-0.14625 0.62875,-0.2975 0.895,-0.45375 2.3675,-1.39125 4.3525,-5.45625 4.32625,-7.41 -0.015,-1.095 -0.31,-2.46125 -0.765,-3.75125 l -2.45625,-6.96125 -6.71375,10.36125 0.97875,1.85875 z m 0.92875,20.6825 5.94125,-5.9375 -5.94125,-5.93875 -5.94125,5.93875 5.94125,5.9375 z M 277.18109,453.43 c 0.17,-1.145 -0.11625,-1.58625 -1.31625,-2.17 -1.04875,-0.51 -2.76125,-1.20125 -3.7825,-1.605 -0.27125,-0.10625 -0.34625,-0.4825 -0.2375,-0.89875 1.3325,-5.10875 1.4475,-5.04125 0.77625,-4.655 -0.435,0.25 -0.8875,0.51875 -1.24375,0.755 -3.02,2.0025 -6.455,8.35125 -5.78875,9.97375 0.2425,0.59 1.0775,1.445 2.325,2.08625 l 1.75875,0.90375 c 0.48625,0.25 -0.03,4.65125 0.44875,4.845 0.315,0.1275 1.0975,-0.5975 2.81875,-2.9725 0,0 3.10375,-4.28625 3.10375,-4.28625 0.95625,-1.32125 1.07,-1.51875 1.1375,-1.97625 z m -13.28875,17.03 5.94125,-5.9375 -5.94125,-5.93875 -5.94125,5.93875 5.94125,5.9375 z m 10.35125,12.675 c 3.22125,-3.9225 5.5725,-9.10625 5.14375,-10.47125 l -3.43875,-10.94125 -5.43875,11.43125 c 0,0 0.7875,1.55125 1.39125,2.84 l 1.47375,3.15125 -1.2725,0.74 c -0.395,0.22875 -0.97625,0.3975 -1.76125,0.61375 -4.53625,1.24875 -9.26375,0.94 -12.7675,-2.7025 -1.2925,-1.34375 -2.6575,-2.82625 -3.26625,-4.3975 -0.87,-2.2475 1.2325,-6.32875 0.255,-5.66625 -0.4325,0.2925 -0.87,0.96375 -1.05,1.30375 -3.36625,6.33 -5.91,12.6275 0.0238,16.61625 0.2225,0.15 0.45875,0.29875 0.70375,0.44375 6.01875,3.57625 15.975,1.94375 20.00375,-2.96125 z"
     style="fill:#ff0000;stroke:none" />
  <path
	 id="circle"
     style="fill:none;stroke:none"
     d="m 169.99064,466.53654 c 58.28239,80.04516 170.54823,97.70772 250.59339,39.42534 80.04516,-58.28239 97.7077,-170.54823 39.42533,-250.5934 -58.28239,-80.04516 -170.54823,-97.70771 -250.5934,-39.42533 -80.04516,58.28238 -97.7077,170.54822 -39.42532,250.59339 z" />
  <text
     style="font-size:48px;text-align:center;stroke:#000000;stroke-width:1;font-family:jawi">
    <textPath
	   id="death"
       xlink:href="#circle"
       dx="0 13.211403 9.9085531 11.946027 9.9085531 13.597451 11.946027 11.946026 13.597451">14.4.2010</textPath>
  </text>
</svg>
