<?xml version="1.0" encoding="UTF-8" standalone="yes"?>
<svg xmlns="http://www.w3.org/2000/svg" xmlns:xlink="http://www.w3.org/1999/xlink"
  width="595.276pt" height="841.89pt" viewBox="0 0 595.276 841.89">
  <path
     style="fill:#000000;stroke:none"
     d="M 23.019641,18.969161 20.848622,0.8029789 c 0,0 -3.052034,3.4130297 -3.647039,4.7270407 -0.310003,0.685014 2.050025,12.2051224 1.872024,13.8671444 -0.05704,0.535005 -2.023026,2.706024 -2.787032,3.077027 C 14.532559,23.328198 5.4552662,25.830228 3.7232488,22.233189 3.2859442,21.324181 2.9375412,19.617166 2.9375412,19.617166 c 0,0 -1.1550116,1.346012 -1.7859179,2.192019 -0.9212095,1.235011 -1.58531606,3.419038 -0.81100855,4.937051 0.4276045,0.838007 3.34813375,2.188019 4.71864725,2.599022 2.0648211,0.619014 7.415472,-0.296002 9.7783,-2.039017 1.628014,-1.200011 4.107036,-4.107044 4.107036,-4.107044 0,0 0.507012,1.40002 1.098017,2.810033 0.650006,1.550013 4.160036,3.413029 7.08307,3.826041 1.672014,0.237002 3.177027,0.390003 3.654031,0.322003 7.990085,-1.133018 11.613117,-0.432004 14.259148,-6.958077 1.631014,-4.020035 0.06,-9.865093 -4.590048,-13.2891314 -2.379021,-1.751015 -3.377029,-0.535004 -5.799058,2.1750274 -1.713015,1.917017 -3.343029,4.241037 -3.46703,5.004043 -0.09,0.553005 1.563013,3.992043 2.008017,4.177045 1.12401,0.469004 2.832025,0.247002 4.720049,-0.924008 0.807007,-0.500005 1.911017,-1.280012 1.911017,-1.280012 0,0 1.112009,1.650015 1.593013,2.687024 0.763007,1.648014 -0.125001,1.791015 -1.450012,2.175027 -1.903017,0.551004 -5.739058,1.304011 -7.248071,1.20801 -1.567014,-0.100001 -5.056052,-0.940008 -7.259071,-1.503021 -0.994017,-0.254002 -2.190027,-2.581022 -2.438029,-4.66004 z m 12.459348,-4.790274 c 0.05448,-0.196818 0.422404,0.113489 0.731262,0.366387 1.031049,0.846328 2.296756,1.889481 1.462541,2.560182 -0.714614,0.575317 -1.60183,-0.257378 -1.89252,-1.034064 C 35.56983,15.512723 35.34878,14.640659 35.478989,14.178887 z M 34.371755,-3.6104905e-5 30.06171,4.3100096 34.371755,8.6200546 38.681801,4.3100096 34.371755,-3.6104905e-5 z" />
</svg>