<?xml version="1.0" encoding="UTF-8" standalone="yes"?>
<svg xmlns="http://www.w3.org/2000/svg" xmlns:xlink="http://www.w3.org/1999/xlink"
  width="595.276pt" height="841.89pt" viewBox="0 0 595.276 841.89">
  <path
     style="fill:#000000;stroke:none"
     d="m 52.874832,27.375716 1.704382,-2.137954 0.721618,1.39839 0.585073,1.130279 -2.558566,0.947871 -2.1539,0.797369 1.701393,-2.135955 z M 57.956081,0.0039499 c -0.346851,-0.06879 -1.174125,0.889068 -1.657529,1.775147 -1.105358,2.028318 -2.008384,4.02673 -1.585782,5.712168 0.332909,1.328623 1.528967,2.5436171 1.997422,4.0695871 0.28008,0.911 0.158476,3.582189 -0.22027,4.843035 l -0.50933,1.695409 -1.306692,-1.56484 c -0.19137,-0.228252 -0.371771,-0.489389 -0.53922,-0.747537 -0.764483,-1.184097 -1.227953,-2.302407 -1.984463,-3.337998 -2.497763,-3.4177271 -8.421236,-6.8274891 -12.7998,-7.4833281 -1.609693,-0.241202 -2.044261,0.466466 -2.467865,2.123995 -0.910993,3.5642521 0.323933,9.9073461 4.491195,8.9195971 1.051534,-0.249176 2.194764,-0.996713 3.112743,-1.017646 1.641581,-0.03691 5.929448,4.172248 6.834464,5.179923 0.727602,0.809337 1.224964,1.842932 1.171137,2.428995 -0.05385,0.586073 -2.958245,4.081549 -3.991839,4.804166 -2.562553,1.792092 -3.435672,1.999403 -3.965928,4.11842 -0.715634,2.86057 -0.163454,3.15659 2.084134,2.913398 0.787406,-0.08472 1.713354,-0.16546 2.381153,-0.455504 l 1.755213,-0.763476 0.96183,0.10465 c 1.272799,0.138542 2.924352,0.445532 3.643981,0.266123 1.631627,-0.405664 3.411759,-3.238326 3.583195,-4.494179 0.135554,-1.000708 -0.667799,-4.473261 -0.991736,-6.715865 l -0.263126,-1.819002 1.109337,-2.404075 c 0.823287,-1.785119 1.800067,-4.983575 2.004396,-6.509538 0.102661,-0.769469 0.22027,-1.532953 0.446531,-2.2455981 0.346851,-1.094396 0.975781,-2.200745 1.203025,-3.212407 l 0.363806,-1.624652 -1.483114,-0.923951 C 60.876455,3.3539089 60.348197,3.0489159 59.90566,2.4957379 59.214938,1.6305919 58.41856,0.0956489 57.956081,0.0039499 z M 121.59928,16.454718 c -0.84322,0.661814 -1.49608,1.932632 -1.86884,3.106758 -0.26015,0.821291 -0.13855,2.71904 0.2412,3.770571 0.37277,1.029607 0.95784,2.06519 1.4572,2.941307 l 1.19008,2.088113 -0.73658,1.212005 c -1.61567,2.657239 -6.81952,7.320864 -9.53556,8.295654 -5.61151,2.01535 -13.782571,3.172537 -12.797819,3.420723 2.775859,0.701684 9.636239,1.896743 12.556609,2.111036 4.33969,0.318951 4.57592,-0.73159 8.36044,-5.577613 3.67488,-4.70748 4.72242,-5.805855 5.47894,-12.875553 0.35782,-3.342976 0.17044,-4.593852 -1.35354,-7.088627 l -1.54989,-2.536642 -1.44224,1.132268 z m -20.45558,17.129529 -4.241018,4.240024 4.241018,4.242014 4.24103,-4.241015 -4.24103,-4.241023 z M 92.274949,21.189108 c -1.054536,-0.19336 -2.120015,-0.497362 -3.384846,-0.933922 -1.46716,-0.505328 -2.039279,-0.751516 -2.191775,-1.568827 -0.22924,-1.234928 1.107343,-7.606922 0.821287,-8.27472 -0.282063,-0.6598261 -4.340685,-2.6333181 -6.3361,-2.8336531 -3.357932,-0.337887 -7.126514,2.5784921 -7.707592,6.3321241 -0.135554,0.874111 -0.108645,2.877509 0.481406,3.37686 0.747538,0.631917 2.730002,1.12729 2.730002,1.12729 0,0 -2.499761,3.204433 -3.934025,5.452022 -0.593047,0.928944 -1.088411,1.88479 -1.511022,2.84662 -1.677471,3.816416 -2.567529,10.302039 -1.852895,13.334038 1.792102,7.607919 10.703719,13.794526 16.141788,13.154636 1.651551,-0.194359 3.650965,-0.460482 5.66034,-0.766473 6.540437,-0.995714 9.449853,-2.747939 10.769493,-3.925061 l 1.85388,-1.654541 -4.061601,-0.262136 c -2.126983,-0.137551 -5.042374,-0.24121 -7.764404,-0.256159 -6.98298,-0.03587 -11.705418,-0.943885 -15.622494,-5.139055 -4.223078,-4.522095 -4.102473,-6.034107 -2.167851,-11.073498 0.488382,-1.271809 1.994418,-3.199456 3.050942,-3.941008 0.173425,-0.121596 0.35981,-0.251174 0.561152,-0.391705 1.408345,-0.980766 2.952265,-1.935622 3.339985,-1.788107 0.494368,0.188375 0.930927,1.988441 1.959535,2.992138 0.502352,0.48938 1.202039,0.852187 1.963527,1.225954 3.60611,1.77116 10.72365,0.351837 13.531392,-0.314963 0.3668,-0.08671 0.731592,-0.169439 1.08044,-0.243192 l 2.104067,-0.442545 1.72432,0.630919 c 0.55815,0.203331 1.18607,0.455496 1.82995,0.71863 2.7948,1.147216 6.4358,0.629929 7.48434,-1.00269 0.72859,-1.135263 1.43427,-2.467866 1.98645,-3.701802 0.42858,-0.961822 0.95685,-3.14264 1.16615,-4.537044 0.70867,-4.741365 -2.94328,3.513421 -6.81752,2.172837 l -3.74266,-1.294731 c 0,0 0.4854,-1.452209 0.77345,-2.640293 0.99273,-4.096497 -0.55019,-0.278083 -4.62675,2.206729 -1.19605,0.728593 -5.825795,1.085415 -7.042786,1.204031 -0.81232,0.07878 -1.558856,0.149505 -2.249575,0.211297 z m -6.799588,15.300563 -2.906415,-2.905424 -4.240025,4.240024 4.241017,4.242014 2.906415,-2.906415 2.905422,2.906415 4.241022,-4.241015 -4.241022,-4.241023 -2.906414,2.905424 z M 66.87269,1.2289149 c -0.203331,0.264125 -0.407661,0.562143 -0.585073,0.858171 -0.649854,1.085416 -1.377457,3.605111 -1.39839,4.841037 -0.07079,4.1642741 0.361816,14.9626771 0.827275,18.1651201 l 0.511312,3.53036 1.456204,-3.379857 c 0.288046,-0.6668 0.570124,-1.475139 0.771458,-2.211714 1.695409,-6.201556 1.842923,-12.629366 -0.08174,-20.6947711 L 67.815585,-3.6104905e-5 66.87269,1.2289149 z M 36.664272,24.847055 c 0.262136,0.275087 0.241205,1.141233 0,1.520985 -0.76946,1.212996 -5.448035,-1.725314 -6.173643,-2.850607 -0.437558,-0.676764 -0.313966,-1.292733 0.669791,-1.70538 1.137251,-0.47742 3.789508,1.234935 5.503852,3.035002 z M 22.618579,39.40406 17.026016,39.021327 c -2.730997,-0.187383 -0.166452,1.378456 5.558676,3.248289 0.57909,0.189374 1.075454,0.414636 1.658531,0.606997 1.31068,0.432574 5.574624,0.740562 6.658052,0.481414 3.162573,-0.75551 9.082056,-8.097307 10.455528,-12.047288 1.482114,-4.264936 0.508324,-7.274012 -1.189081,-11.45822 -0.431576,-1.062501 -1.170142,-2.376168 -1.942596,-2.998122 -1.191073,-0.957843 -3.262241,-1.92565 -3.262241,-1.92565 0,0 -3.28218,3.759609 -5.071282,6.333124 -2.847612,4.097495 -3.827382,8.68537 0.460483,10.531281 0.709659,0.304993 2.271511,0.304993 2.900438,0 0.789397,-0.383731 2.922362,-2.317362 3.527368,-1.927647 0.289046,0.186385 0.209309,0.923959 0,1.609695 -0.09369,0.305992 -0.447526,0.84621 -0.886076,1.411349 -1.966517,2.535644 -6.383955,5.616484 -8.88471,6.135769 -0.510318,0.105657 -1.035586,0.187384 -1.515007,0.261145 -1.290744,0.198346 -1.577798,0.210307 -2.87552,0.120597 z M 20.768677,-3.6104905e-5 c 0,0 -1.516998,1.086422004905 -2.375169,1.969505004905 -0.866145,0.893054 -1.242903,2.292443 -1.242903,3.720739 0,1.081428 0.504339,2.499753 1.124294,3.204433 l 1.231939,1.4033751 0.355827,2.32334 c 0.43955,2.873529 1.10735,7.410572 1.551884,10.504372 l 0.588061,4.097487 -2.136955,0.758499 C 16.934319,29.022291 11.074635,29.300374 8.2320057,28.78009 2.6523984,27.759447 2.6623656,20.112657 2.4849508,20.328947 2.2198246,20.652876 1.9546991,21.067512 1.7294409,21.455231 -0.59390001,25.462026 -0.52711936,31.88684 1.6337569,34.319823 3.9879959,36.969088 8.9436594,38.381437 12.905599,37.3 c 3.486507,-0.950869 8.236847,-3.16955 9.862488,-5.524784 1.394403,-2.020345 2.926352,-8.934547 2.962234,-9.691056 0.07874,-1.639593 -0.676769,-5.823801 -1.416331,-8.358445 -0.06677,-0.229242 -0.126583,-0.496364 -0.178411,-0.788405 l -0.597032,-3.3788571 1.288751,-2.712057 c 0.217285,-0.458492 0.445532,-0.89804 0.652848,-1.281779 l 0.586068,-1.084425 -1.251873,-0.523273 C 23.899357,3.5741779 22.61559,3.0030629 21.734494,1.7073329 21.186302,0.9029889 20.768677,-3.6104905e-5 20.768677,-3.6104905e-5 z"/>
</svg>