<?xml version="1.0"?>
<svg xmlns="http://www.w3.org/2000/svg" version="1.1">
  <path
     style="fill:#000000;stroke:none"
     d="M 46.945068,0 41.626682,5.3183859 46.946318,10.636772 52.263453,5.3196358 46.945068,0 z M 32.391064,32.102802 c 0.206236,0.02625 0.473718,0.0675 0.821194,0.123741 2.003613,0.322478 4.003476,0.674954 6.053335,0.522464 1.146172,-0.08374 4.018475,-0.957434 6.595799,-1.427402 l 3.232279,-0.58871 1.868622,0.914938 c 0.529963,0.258732 1.063677,0.561211 1.632388,0.821193 1.661136,0.761198 13.71906,2.168602 17.37256,0.607459 4.582187,-1.958616 4.904664,-5.153397 7.102014,-2.289843 0.347476,0.451219 0.686203,0.856191 0.928686,1.249914 l 0.646206,1.049928 -0.743699,1.17742 c -0.554962,0.878689 -1.197418,1.588641 0.28748,1.487398 0.461219,-0.03125 0.907438,-0.15499 1.356158,-0.287481 l 1.516146,-0.449969 4.310955,0.341227 c 1.691134,0.133741 3.522258,0.29498 5.054653,0.376224 4.229711,0.222485 12.06168,-1.30866 15.3477,-3.392268 2.51358,-1.59489 7.3845,-6.150828 6.76204,-8.634408 -0.57871,-2.307342 -7.07077,-6.410811 -8.26568,-6.513304 -1.5699,-0.134991 -6.347073,1.933618 -8.521924,3.362269 -2.223598,1.46115 -4.23096,3.778492 -6.040836,5.457127 l -3.22103,2.987295 -0.839942,-0.691203 c -5.448377,-4.488442 -4.509691,-6.739538 -4.837169,-7.059516 -0.513715,-0.504966 -3.788491,2.094856 -6.369564,5.100901 -0.87494,1.01993 -1.122423,1.133672 -2.463581,1.142421 -3.097288,0.02 -5.737107,0.128742 -9.274365,-0.386223 -2.861054,-0.414972 -6.56955,-1.224916 -6.56955,-1.224916 0,0 4.252208,-5.418379 4.885915,-6.947024 C 62.327764,15.77642 60.405396,11.756695 57.379353,9.2693654 56.25318,8.3444287 55.833209,8.3494283 54.532048,9.3743582 51.157279,12.031676 44.347745,19.543662 42.567867,24.479573 42.110399,25.745737 41.93791,25.896976 40.841736,25.99322 39.144352,26.14196 35.405858,25.11078 34.48967,24.37958 34.245937,24.184594 33.847214,23.709626 33.379746,23.095918 33.278503,21.242295 32.74354,19.86989 31.506125,17.843778 l -1.943617,-3.182282 -1.808626,1.421153 c -1.057428,0.829943 -1.876122,2.422334 -2.34234,3.895983 -0.199986,0.629957 -0.221235,1.764879 -0.09749,2.852304 0.07749,0.691203 0.213735,1.363657 0.398722,1.874872 0.467468,1.292412 1.201168,2.591073 1.827375,3.689747 l 1.02993,1.806127 0.462468,0.812444 c 0,0 -0.922437,1.518646 -0.922437,1.518646 -0.817444,1.344908 -2.366088,3.097288 -4.145966,4.789672 -2.636069,2.507328 -5.779604,4.884666 -7.813215,5.614616 -0.911187,0.327477 -1.877371,0.636206 -2.864804,0.927436 -6.6345458,1.957366 -14.2590237,3.091039 -13.1840973,3.36227 3.4822615,0.87994 12.0841723,2.377337 15.7476723,2.647319 5.440877,0.399972 5.737107,-0.917437 10.483032,-6.994521 3.473512,-4.448446 5.074653,-6.327067 6.058335,-10.776762 z m 59.239694,-4.553439 c 1.039929,-1.031179 2.302342,-2.153602 2.968547,-2.561074 3.576005,-2.18985 3.918481,-2.656068 7.013275,-0.313729 1.31866,0.997432 2.99354,2.427334 3.5635,3.417266 0.24749,0.427471 0.10625,0.492466 -0.55621,0.564961 -1.12617,0.122492 -9.459354,1.481149 -13.061607,1.297412 l -2.237347,-0.113743 2.309842,-2.291093 z M 50.99979,23.767122 c -1.424902,-0.681203 -2.831056,-1.734881 -3.002294,-1.982364 -0.496216,-0.714951 -0.612458,-1.498647 -0.414972,-2.33734 0.173738,-0.741199 3.462263,-4.685929 3.889734,-4.66718 1.092425,0.04875 3.765992,4.623433 4.475943,7.017019 0.304979,1.02618 0.01875,1.497398 -0.986182,1.952366 l -2.05486,0.928687 -1.907369,-0.911188 z" />
</svg>
