<?xml version="1.0" encoding="UTF-8" standalone="yes"?>
<svg xmlns="http://www.w3.org/2000/svg" xmlns:xlink="http://www.w3.org/1999/xlink"
  width="595.276pt" height="841.89pt" viewBox="0 0 595.276 841.89">
  <path
     d="m 35.350423,1.2326949 c -0.203955,0.264942 -0.408911,0.563877 -0.586872,0.860812 -0.651857,1.088763 -1.381698,3.61621 -1.402694,4.85594 -0.07098,4.1780881 0.362922,15.0087221 0.82882,18.2210191 l 0.513887,3.541229 1.460682,-3.390261 c 0.288936,-0.668855 0.571874,-1.479676 0.77383,-2.218514 1.699629,-6.220643 1.848597,-12.668234 -0.08298,-20.7574681 L 36.296218,-3.6104905e-5 35.350424,1.2326949 z M 20.832593,-3.6104905e-5 c 0,0 -1.521667,1.089762004905 -2.382479,1.975569004905 -0.868811,0.895804 -1.246728,2.299498 -1.246728,3.732185 0,1.084763 0.505889,2.507453 1.127753,3.214298 l 1.235731,1.4076931 0.356922,2.330491 c 0.440903,2.88237 1.110757,7.434377 1.55566,10.536699 l 0.589871,4.110102 -2.142532,0.760831 c -2.940358,1.043775 -8.818074,1.322711 -11.6694518,0.800831 -5.5967771,-1.023775 -5.5867795,-8.694104 -5.764741,-8.477152 -0.2669414,0.325929 -0.5318836,0.740838 -0.7578346,1.129754 -2.33049104,4.019121 -2.26350549,10.463716 -0.095979,12.904186 2.3604846,2.657414 7.3323989,4.074109 11.3055314,2.990342 3.498236,-0.954792 8.263196,-3.180302 9.893839,-5.542788 1.398695,-2.026558 2.935359,-8.962043 2.971351,-9.720878 0.07898,-1.644641 -0.678851,-5.841724 -1.421689,-8.384169 -0.06698,-0.22995 -0.125973,-0.497891 -0.177961,-0.789828 l -0.59987,-3.3892601 1.293719,-2.721406 c 0.217951,-0.459898 0.445902,-0.900803 0.654856,-1.285719 l 0.587872,-1.086762 -1.255726,-0.525885 C 23.972908,3.5851809 22.685189,3.0123069 21.801381,1.7125909 21.251502,0.9057669 20.832593,-3.6104905e-5 20.832593,-3.6104905e-5 z M 58.63034,28.785679 l 6.067683,0.206952 c 2.245511,0.076 5.58078,-0.334928 6.596555,-0.855807 l 1.777615,-0.910807 2.392478,0.650863 c 0.824815,0.223952 1.840599,0.509888 3.276285,0.72784 1.615646,0.245943 4.27406,-0.018 5.732746,-0.636864 0.666856,-0.281936 1.311711,-0.682847 1.888583,-1.040775 l 1.641647,-1.014775 2.021558,0.878807 c 1.407687,0.610871 3.229294,1.463679 4.513013,1.813607 2.913365,0.793823 4.764956,-2.470463 6.455587,-5.862722 0.38192,-0.767832 0.74484,-1.677633 0.67686,-2.526448 -0.08,-0.999782 -0.54088,-2.379481 -0.54088,-2.379481 0,0 -1.00379,0.603869 -1.715635,1.071767 -0.748832,0.491892 -1.174743,0.832818 -1.620647,1.394695 -0.328928,0.414909 -1.832599,0.441903 -3.074326,0.01799 l -1.624646,-0.555879 0.511887,-3.273285 c 0.326928,-2.089544 -4.28106,4.845942 -8.020241,5.564785 -1.787615,0.342925 -3.900149,0.27494 -4.488021,-0.407911 -0.225952,-0.262942 -0.19896,-0.660856 -0.028,-1.215734 0.347928,-1.125755 0.889807,-2.283502 0.711847,-2.769396 0.06,0.162965 -5.25085,4.146095 -8.395167,4.199083 l -6.820507,0.427907 -9.043033,-0.527885 c -0.219952,-0.59487 -0.462896,-1.207736 -0.72284,-1.847596 -0.432903,-1.066767 -1.172743,-2.38448 -1.948574,-3.008343 -1.194735,-0.960791 -3.271285,-1.931579 -3.271285,-1.931579 0,0 -3.293281,3.771177 -5.087896,6.352613 -2.856373,4.110107 -3.838158,8.712095 0.462904,10.563694 0.710847,0.305936 2.278502,0.305936 2.909366,0 0.791826,-0.38492 2.930361,-2.324494 3.537232,-1.933575 0.289936,0.186952 0.209952,0.926792 0,1.614647 -0.09398,0.306928 -0.447904,0.848816 -0.887807,1.415687 -1.973575,2.543446 -6.404606,5.633772 -8.91306,6.154659 -0.511888,0.105976 -1.038773,0.18896 -1.519668,0.261944 -1.294717,0.198952 -1.582654,0.210952 -2.88437,0.120968 l -5.609775,-0.383912 c -2.739402,-0.18796 -0.166964,1.382695 5.575782,3.258286 0.581874,0.18996 1.078765,0.415911 1.663637,0.608863 1.315713,0.433912 5.591775,0.74384 6.679543,0.482896 3.171312,-0.757831 9.110012,-8.122226 10.486715,-12.084359 0.321927,-0.923799 0.527879,-1.789606 0.636855,-2.62143 z m -5.342828,-3.862157 c 0.262936,0.276936 0.240944,1.144751 0,1.525663 -0.772831,1.216735 -5.464815,-1.730614 -6.193654,-2.859372 -0.438904,-0.678851 -0.314928,-1.296717 0.671855,-1.710627 1.141751,-0.478895 3.801169,1.23873 5.521799,3.044336 z M 87.02214,-3.6104905e-5 82.768072,4.2540349 87.02214,8.5081059 91.276217,4.2550349 87.02214,-3.6104905e-5 z m 0,10.519703104905 -2.915357,-2.9153631 -4.254075,4.2540711 4.255075,4.255071 2.914357,-2.915363 2.915366,2.915363 4.254069,-4.254071 -4.255069,-4.2550711 -2.914366,2.9153631 z"
     style="fill:#000000;stroke:none" />
</svg>
