<?xml version="1.0" encoding="UTF-8" standalone="yes"?>
<svg xmlns="http://www.w3.org/2000/svg" xmlns:xlink="http://www.w3.org/1999/xlink"
  width="595.276pt" height="841.89pt" viewBox="0 0 595.276 841.89">
  <path
     style="fill:#000000;stroke:none"
     d="m 17.041406,7.7710047 c 0,0 -1.829997,2.4069953 -2.610995,3.6259933 -0.279999,0.435999 -0.424999,0.720998 -0.482999,1.062998 -0.171,1.002006 1.176998,5.105998 0.965998,5.864996 -0.294999,1.062006 -4.245,2.361004 -6.602995,2.350004 -2.1270036,-0.009 -4.9129982,-1.721005 -5.4299972,-3.520001 -0.4339991,-1.509997 -0.7839985,-4.819999 -0.7839985,-4.819999 0,0 -0.498999,0.933998 -1.0549979,2.075004 -1.88800432,3.869992 -1.10600587,9.19399 1.514997,10.906995 0.6839987,0.446999 1.4729972,0.806998 2.3609954,1.057998 2.3060035,0.650998 7.8510002,-0.827999 9.9959962,-2.416004 3.041994,-2.251995 4.585999,-7.131994 3.867,-10.638987 C 18.319411,11.069999 17.041406,7.7710047 17.041406,7.7710047 z M 8.6264143,3.0330057 4.8004141,6.8579987 8.6244143,10.681999 12.449415,6.8559987 8.6264143,3.0330057 z M 28.048399,19.863997 c -3.438992,0.382 -4.366998,-4.588999 -2.470994,-4.588999 3.141992,0 2.470994,4.588999 2.470994,4.588999 z m 10.066996,-4.698998 0,1.546997 c 0,0 -3.203002,0.517998 -4.199,0.263999 C 33.418396,16.847995 31.5594,14.253 30.673402,12.507996 30.182403,11.540998 29.137397,10.434 28.542398,10.253 c -0.443999,-0.136 -2.407995,0.772999 -2.993993,1.384997 -1.819004,1.899005 -5.817996,8.146001 -4.350999,10.068997 0.357999,0.468999 2.256995,0.912998 3.819,1.408997 l 1.619996,0.514999 -0.291,1.098998 c -0.05496,0.210999 -0.161,0.437007 -0.313999,0.678007 -1.171996,1.853996 -4.544998,2.826994 -6.597994,3.350993 -4.068,1.036998 -7.916,1.354997 -7.925,1.573997 -0.022,0.551999 4.229999,1.701005 8.520999,2.272003 0.134,0.01704 0.266,0.03496 0.394999,0.05104 2.938995,0.371 3.922001,0.261 5.606996,-0.724998 1.446997,-0.846999 3.959,-3.093002 4.591999,-4.107 0.608999,-0.974998 1.085998,-2.124996 1.480997,-3.065002 l 0.819998,-1.957996 2.271996,-0.29 c 1.382005,-0.175999 3.118002,-0.355999 4.368999,-0.725998 1.072998,-0.317 1.957996,-0.885999 2.900003,-0.917999 0.807998,-0.028 5.686996,2.771995 6.465995,2.730995 0.945998,-0.048 5.097998,-4.479999 5.618997,-7.272994 0.547999,-2.941994 -0.692999,-5.308997 -2.556003,-7.7039933 -4.379999,-5.630997 -4.733999,-5.608997 -9.33299,-0.632998 -0.225999,0.243999 -3.731001,4.0449923 -4.299999,5.6919963 -0.221,0.640999 -0.246,0.789999 -0.246,1.484998 z m 4.252,-1.663997 c -0.450999,-0.333008 -0.628007,-0.819007 -0.271,-1.507005 0.239,-0.460999 0.956998,-0.729999 1.654997,-0.683999 l 2.500995,0.858998 -1.019998,2.040004 -0.729998,0.867999 -2.134996,-1.575997 z m 6.883994,1.520997 c 0.113,0.154 0.223,0.314999 0.326,0.473999 l 0.911998,2.557995 -1.341997,-0.446999 c -0.521999,-0.174 -1.344998,-0.664999 -1.646005,-0.960998 l -0.567999,-0.558999 1.063006,-2.770995 1.254997,1.705997 z m 32.599979,7.698993 c 2.297003,-1.951996 4.021,-5.003998 3.528001,-6.187996 -1.044998,-2.507995 -2.476003,-4.366 -4.385999,-3.639001 -1.715999,0.652007 -2.623998,3.133002 -2.011999,4.640999 l 0.435999,1.757004 -1.167997,0.05896 c -2.105004,0.106 -5.371998,0.235 -6.382996,0.251 -5.465997,0.09 -8.816999,-0.334999 -9.823997,-4.216 C 61.540381,13.446962 61.308382,3.8839647 59.505377,1.2539614 L 58.645379,-3.6104905e-5 57.509381,1.0609618 c -0.825998,0.7730069 -1.488997,2.3120039 -1.508997,3.3170019 -0.02896,1.416997 1.237998,4.665999 1.709997,7.2829933 1.059998,5.880997 -0.443999,10.314996 5.540997,12.655992 3.308001,1.294005 10.670995,0.543999 14.533996,-0.032 1.364997,-0.204 3.417995,-1.012998 4.065994,-1.563997 z m -8.389994,-15.1359873 3.080994,3.0789943 3.817003,-3.8150003 -3.817003,-3.815993 -3.080994,3.079994 -3.081002,-3.079994 -3.817993,3.815993 3.817993,3.8150003 3.081002,-3.0789943 z" />
</svg>
