<?xml version="1.0" encoding="UTF-8" standalone="no"?>
<svg>
  <path
     style="fill:#000000;stroke:none"
     d="m 21.301799,9.71382 c 0,0 -2.2875,3.00875 -3.26375,4.5325 -0.35,0.545 -0.53125,0.90125 -0.60375,1.32875 -0.21375,1.25251 1.47125,6.38251 1.2075,7.33126 -0.36875,1.32751 -5.30626,2.95126 -8.25376,2.93751 -2.6587597,-0.0113 -6.1412597,-2.15126 -6.7875097,-4.40001 -0.5425,-1.8875 -0.98,-6.02501 -0.98,-6.02501 0,0 -0.62375,1.1675 -1.31875,2.59376 -2.36001,4.8375 -1.38251003,11.49251 1.89375,13.63377 0.855,0.55875 1.84125,1.00875 2.95125,1.3225 2.88251,0.81375 9.8137697,-1.035 12.4950197,-3.02001 3.8025,-2.815 5.73251,-8.91501 4.83376,-13.29876 -0.57625,-2.81251 -2.17376,-6.93626 -2.17376,-6.93626 z m -10.51876,-5.92251 -4.7825097,4.78125 4.7800097,4.78001 4.78126,-4.78251 -4.77876,-4.77875 z m 24.277528,21.03878 c -4.298748,0.4775 -5.458758,-5.73626 -3.088748,-5.73626 3.927498,0 3.088748,5.73626 3.088748,5.73626 z m 12.58377,-5.87376 0,1.93375 c 0,0 -4.00376,0.6475 -5.24876,0.33 -0.6225,-0.16 -2.94625,-3.40375 -4.05375,-5.58501 -0.61375,-1.20875 -1.92001,-2.5925 -2.66376,-2.81875 -0.555,-0.17 -3.01,0.96625 -3.742498,1.73125 -2.27376,2.37376 -7.27251,10.18252 -5.43876,12.58627 0.4475,0.58625 2.82125,1.14125 4.77376,1.76125 l 2.024998,0.64375 -0.36375,1.37375 c -0.0687,0.26375 -0.20125,0.54626 -0.3925,0.84751 -1.464998,2.3175 -5.681258,3.53375 -8.247508,4.18875 -5.08501,1.29625 -9.89502,1.69375 -9.90627,1.9675 -0.0275,0.69 5.28751,2.12626 10.65127,2.84001 0.1675,0.0213 0.3325,0.0437 0.49375,0.0638 3.67375,0.46375 4.90251,0.32625 7.008758,-0.90625 1.80875,-1.05875 4.94876,-3.86626 5.74001,-5.13376 0.76125,-1.21875 1.3575,-2.65625 1.85125,-3.83126 l 1.025,-2.4475 2.84,-0.3625 c 1.72751,-0.22 3.89751,-0.445 5.46126,-0.9075 1.34125,-0.39625 2.4475,-1.1075 3.62501,-1.1475 1.01,-0.035 7.10876,3.465 8.08251,3.41375 1.1825,-0.06 6.37251,-5.60001 7.02376,-9.09126 0.685,-3.6775 -0.86625,-6.63626 -3.19501,-9.63001 -5.47501,-7.03876 -5.91751,-7.01126 -11.66626,-0.79125 -0.2825,0.305 -4.66376,5.05625 -5.37501,7.11501 -0.27625,0.80125 -0.3075,0.9875 -0.3075,1.85625 z m 5.31501,-2.08 c -0.56375,-0.41626 -0.78501,-1.02376 -0.33875,-1.88376 0.29875,-0.57625 1.19625,-0.9125 2.06875,-0.855 l 3.12625,1.07375 -1.275,2.55001 -0.9125,1.085 -2.66875,-1.97 z m 8.60501,1.90125 c 0.14125,0.1925 0.27875,0.39375 0.4075,0.5925 l 1.14,3.1975 -1.6775,-0.55875 c -0.6525,-0.2175 -1.68125,-0.83125 -2.05751,-1.20125 l -0.71,-0.69875 1.32876,-3.46375 1.56875,2.1325 z m 40.750053,9.62376 c 2.87126,-2.44 5.02626,-6.25501 4.41001,-7.73501 -1.30625,-3.135 -3.09501,-5.45751 -5.48251,-4.54876 -2.145003,0.81501 -3.280003,3.91626 -2.515003,5.80126 l 0.545,2.19626 -1.46,0.0737 c -2.63126,0.1325 -6.71501,0.29375 -7.97876,0.31375 -6.83251,0.1125 -11.02127,-0.41875 -12.28002,-5.27001 -0.6275,-2.42375 -0.9175,-14.37752 -3.17126,-17.66503 L 73.306867,0 l -1.42,1.32625 c -1.0325,0.96626 -1.86125,2.89001 -1.88625,4.14626 -0.0362,1.77125 1.5475,5.83251 2.1375,9.10376 1.325,7.35126 -0.555,12.89377 6.92626,15.82002 4.13501,1.61751 13.33877,0.68 18.16753,-0.04 1.70625,-0.255 4.272503,-1.26625 5.082503,-1.955 z M 91.826897,9.48132 l 3.85125,3.84875 4.771263,-4.76876 -4.771263,-4.77 -3.85125,3.85 -3.85126,-3.85 -4.7725,4.77 4.7725,4.76876 3.85126,-3.84875 z" />
</svg>
