<?xml version="1.0" encoding="UTF-8" standalone="no"?>
<svg>
  <path
     style="fill:#000000;stroke:none"
     d="M 8.09751,21.58748 0,21.09373 c 1.6075,0.0975 8.22126,4.515 11.70752,4.3375 0.65875,-0.0338 1.1675,-0.009 1.34375,0.16375 1.07,1.04751 1.3375,1.92001 3.8625,0.0288 C 23.34628,20.80503 28.82004,14.33627 27.18254,6.58501 26.60254,3.845 25.11879,0 25.11879,0 c 0,0 -1.90001,1.64 -3.07126,2.9725 -2.95,3.35501 -1.07,4.13501 -0.3025,7.61126 1.1925,5.39876 -3.49375,8.11376 -8.45626,10.20752 -0.72,0.30375 -1.4475,0.61375 -2.22125,0.73125 -1.04501,0.1575 -1.34126,0.16375 -2.97001,0.065 z m 28.14754,-11.26877 1.5675,0.845 c 1.0675,0.57501 2.51001,2.13501 2.96626,3.21376 l 0.42125,0.99625 c 0,0 -3.42376,0.0812 -4.27001,-1.22125 -0.82375,-1.26625 -0.685,-3.83376 -0.685,-3.83376 z m 24.00378,-0.15 1.76626,-0.2525 c 1.2675,-0.18125 1.4125,-0.18625 1.4475,-0.0487 0.0888,0.34875 0.245,0.375 0.41375,0.6025 0.58625,0.79125 -0.18875,2.03376 -0.55375,2.16501 -0.93875,0.33625 -3.24376,-0.68 -3.82501,-1.71126 -0.1725,-0.3075 0.205,-0.6775 0.75125,-0.755 z m 25.53879,4.57376 c -0.43125,-0.0213 -0.85125,-0.0438 -1.25625,-0.07 C 80.46011,14.41372 74.2376,13.74872 72.48385,12.73497 71.4926,12.16247 68.97759,9.76246 68.19384,8.36871 67.23009,6.65621 66.68884,3.2537 65.18759,3.55495 c -0.57,0.11375 -0.8475,1.45251 -1.76375,2.23376 -0.845,0.72 -6.64376,1.77625 -7.24876,2.41625 -0.415,0.43875 -0.57,1.05875 -0.91375,1.565 -0.4025,0.59125 -1.06376,1.0275 -2.10626,1.455 -1.34,0.55001 -3.3075,1.08626 -4.76375,1.44876 -0.97,0.24125 -2.14751,-0.2525 -2.41376,-1.02501 C 45.58381,10.51121 44.99631,8.95996 44.39631,7.90246 43.15006,5.70621 40.56256,3.6162 39.05755,4.27871 c -1.92875,0.8475 -8.19001,10.93501 -7.04376,13.49376 0.54876,1.225 2.23751,2.04001 3.98751,2.21126 1.10375,0.1075 2.59,0.09 3.64,0.0562 0.64251,-0.02 0.57876,0.70375 -0.0913,1.3775 -1.07375,1.0775 -2.59875,2.51375 -3.91125,3.39875 -1.355,0.91125 -3.59376,1.48125 -5.47751,1.96376 -0.715,0.18375 -1.18,0.29125 -1.625,0.34625 -0.31625,0.0387 -5.93126,-0.21625 -11.01877,-0.49875 -0.17875,1.35875 6.64501,3.53 13.61127,4.34 0.3875,0.045 0.755,0.0862 1.10125,0.12125 2.10251,0.21125 2.52751,-0.0888 4.54626,-1.84 1.59625,-1.3825 3.39001,-2.83876 4.60001,-4.43251 0.2225,-0.29375 0.43625,-0.6 0.64,-0.90875 l 2.89375,-4.3825 2.58751,-0.71251 c 1.33375,-0.36625 2.915,-0.75625 4.285,-1.26625 0.66,-0.245 1.31375,-0.55125 1.9275,-0.92 l 2.45501,-1.47625 0.985,1.18 c 2.59875,3.11751 4.3225,5.42751 6.75626,4.25751 0.61125,-0.29375 1.07,-0.55375 1.44125,-0.775 l 1.91,-1.14251 c 0.4375,-0.26125 0.795,0.0687 1.86125,0.60876 8.88377,4.485 19.14503,2.995 28.37504,0.65625 4.64876,-1.17751 9.15377,-3.07126 11.69627,-6.59626 0.9825,-1.3625 1.85375,-3.14251 0.76375,-3.48126 -0.315,-0.0987 -0.77875,-0.0475 -1.25875,0.0388 -2.00125,0.36 -4.41626,1.33625 -6.20751,1.85876 l -1.86625,0.54375 -1.065,-0.69626 c -0.68626,-0.4475 -1.57876,-1.2025 -2.68876,-2.27375 -0.31625,-0.305 -0.6675,-0.63875 -1.005,-0.95625 l -1.52875,-1.4425 1.80875,-0.79125 c 0.83375,-0.36375 1.84,-0.74125 2.73,-0.89875 1.85251,-0.3275 6.19251,0.88875 5.78751,-1.32376 -0.33875,-1.8425 -3.8775,-3.6 -5.43625,-3.865 -3.81001,-0.65 -9.73627,5.11251 -11.36627,9.46501 -0.13125,0.34875 -0.20125,0.665 -0.11125,1.045 0.2425,1.005 0.81875,1.84501 1.25875,2.48501 l 0.89,1.2925 -1.31125,0.17125 c -0.72875,0.095 -1.68625,0.1725 -2.79625,0.2325 z" />
</svg>
