<?xml version="1.0" encoding="UTF-8" standalone="yes"?>
<svg xmlns="http://www.w3.org/2000/svg" xmlns:xlink="http://www.w3.org/1999/xlink"
  width="595.276pt" height="841.89pt" viewBox="0 0 595.276 841.89">
  <path
     style="fill:#000000;stroke:none"
     d="M 6.478026,17.269996 0,16.874995 c 1.2860036,0.078 6.5770262,3.61201 9.366042,3.47001 0.5270014,-0.02704 0.934003,-0.0072 1.075003,0.131 0.856002,0.83801 1.070003,1.536012 3.090009,0.02304 5.146022,-3.855011 9.525042,-9.030033 8.215038,-15.2310584 C 21.282091,3.0759725 20.095088,-3.6104905e-5 20.095088,-3.6104905e-5 c 0,0 -1.520012,1.312003704905 -2.457015,2.378006604905 -2.360007,2.6840151 -0.856002,3.3080171 -0.242001,6.0890251 0.954003,4.3190204 -2.795007,6.4910264 -6.765027,8.1660384 -0.576001,0.243001 -1.1580027,0.491002 -1.7770044,0.585002 -0.8360104,0.126 -1.073011,0.131 -2.3760146,0.052 z m 22.518094,-9.0150414 1.254004,0.676002 c 0.854002,0.460009 2.008013,1.7080134 2.373014,2.5710154 l 0.337001,0.797002 c 0,0 -2.739015,0.06496 -3.416017,-0.977002 C 28.88512,10.308969 28.99612,8.2549546 28.99612,8.2549546 z m 19.203078,-0.12 1.413012,-0.202001 c 1.014002,-0.145 1.130003,-0.149 1.158003,-0.03896 0.07104,0.279001 0.196,0.300001 0.331001,0.482002 0.469001,0.633001 -0.151001,1.6270124 -0.443001,1.7320124 -0.751003,0.269001 -2.595016,-0.5440014 -3.060017,-1.3690114 -0.138,-0.246001 0.164,-0.542002 0.601002,-0.604002 z m 20.431088,3.6590184 c -0.345001,-0.01704 -0.681002,-0.03504 -1.005002,-0.056 C 64.368267,11.530972 59.390245,10.998971 57.987241,10.187969 57.194239,9.7299666 55.182225,7.8099536 54.555223,6.6949506 53.784221,5.3249466 53.35122,2.6029311 52.150217,2.8439318 c -0.456002,0.091 -0.678002,1.1620108 -1.411004,1.7870128 -0.676002,0.576002 -5.315023,1.421004 -5.799024,1.933006 -0.332001,0.351001 -0.456002,0.847002 -0.731002,1.252003 -0.322001,0.473001 -0.851011,0.822002 -1.685013,1.164003 -1.072003,0.440009 -2.646007,0.869011 -3.811011,1.1590114 C 37.937161,10.331969 36.995151,9.9369676 36.78215,9.3189576 36.467149,8.4089556 35.997148,7.1679516 35.517147,6.3219496 34.520144,4.5649446 32.450138,2.8929319 31.246127,3.4229414 29.703122,4.1009436 24.694101,12.170974 25.611103,14.21798 c 0.439009,0.980002 1.790013,1.632012 3.190017,1.769013 0.883002,0.086 2.072006,0.072 2.912008,0.04496 0.514009,-0.016 0.463009,0.563001 -0.07304,1.102003 -0.859003,0.862002 -2.079006,2.011005 -3.129009,2.719007 -1.084003,0.729002 -2.875016,1.185004 -4.38202,1.571013 -0.572002,0.147 -0.944003,0.233 -1.300004,0.277001 -0.253,0.03096 -4.745021,-0.173001 -8.81504,-0.399002 -0.143001,1.087003 5.316023,2.824008 10.889046,3.47201 0.310001,0.036 0.604002,0.06896 0.881003,0.097 1.682012,0.169001 2.022013,-0.07104 3.637018,-1.472004 1.277003,-1.106003 2.712015,-2.271014 3.680018,-3.546018 0.178,-0.235 0.349001,-0.480001 0.512001,-0.727002 l 2.315007,-3.506009 2.070013,-0.57001 c 1.067003,-0.293001 2.332007,-0.605002 3.42801,-1.013003 0.528001,-0.196 1.051003,-0.441001 1.542004,-0.736002 l 1.964014,-1.181003 0.788002,0.944003 c 2.079006,2.494014 3.458009,4.34202 5.405023,3.406017 0.489001,-0.235001 0.856002,-0.443001 1.153003,-0.620002 l 1.528004,-0.91401 c 0.350001,-0.209001 0.636002,0.05496 1.489004,0.487009 7.107036,3.58801 15.316067,2.396007 22.700095,0.525002 3.719019,-0.942011 7.323037,-2.457015 9.357042,-5.277023 0.786002,-1.0900034 1.483004,-2.5140154 0.611002,-2.7850164 -0.252001,-0.07896 -0.623002,-0.038 -1.007003,0.03104 -1.601004,0.288001 -3.533018,1.069003 -4.966022,1.487012 l -1.493004,0.435002 -0.852002,-0.55701 c -0.54901,-0.358001 -1.263012,-0.962003 -2.151014,-1.819005 -0.253001,-0.244001 -0.534002,-0.511001 -0.804002,-0.765002 l -1.223004,-1.154003 1.447004,-0.633002 c 0.667002,-0.291001 1.472004,-0.593002 2.184006,-0.719002 1.482013,-0.262001 4.954022,0.711002 4.630021,-1.059011 -0.271,-1.4740041 -3.102008,-2.880008 -4.349012,-3.0920086 -3.048016,-0.5200014 -7.789037,4.0900196 -9.093041,7.5720286 -0.105,0.279001 -0.161,0.532002 -0.089,0.836003 0.194,0.804002 0.655002,1.476012 1.007003,1.9880134 l 0.712001,1.034003 -1.049002,0.137001 c -0.583002,0.076 -1.349004,0.138 -2.237007,0.186 z" />
</svg>
