<?xml version="1.0" encoding="UTF-8" standalone="yes"?>
<svg xmlns="http://www.w3.org/2000/svg" xmlns:xlink="http://www.w3.org/1999/xlink"
  width="595.276pt" height="841.89pt" viewBox="0 0 595.276 841.89">
  <path
     d="M 33.92377,27.656913 C 29.936643,27.256001 26.402417,26.107259 24.678793,23.543814 24.518829,23.307871 24.316873,22.876967 24.09992,22.34008 20.798643,14.186866 23.340087,12.93314 21.49749,10.84559 L 20.732658,9.9777839 19.418945,12.060325 c -0.666855,1.056775 -1.124754,2.604437 -1.264723,3.556227 -0.911801,6.190648 3.37726,9.797852 -0.966789,11.552474 -2.478457,1.001782 -5.712749,1.429686 -7.2834057,-0.444904 C 9.5701006,26.326211 9.1831851,25.801323 8.8802519,25.378412 L 8.3363701,24.617581 7.612529,25.211452 c -0.2769389,0.227952 -0.5798729,0.494895 -0.8158214,0.749839 -1.3017153,1.410686 -2.2365101,6.74152 -1.69063,7.89827 1.4216888,3.01134 6.6475454,1.609646 9.6648844,0.560879 0.661855,-0.229951 1.217734,-0.431911 1.933577,-0.96679 0.63786,-0.477896 1.403693,-1.221735 2.065548,-1.911582 l 1.531665,-1.594654 c 0,0 1.018777,1.534662 1.018777,1.534662 0.307932,0.462903 0.654857,0.937799 0.992782,1.296718 2.919362,3.103324 12.51626,2.310493 16.324428,0.970791 0.766831,-0.269943 1.494672,-0.599871 2.169525,-1.002783 l 1.856593,-1.108758 c 0,0 1.727622,1.175742 1.727622,1.175742 0.82082,0.55988 2.05755,0.901807 3.401256,1.105759 6.010684,0.609871 5.825724,-0.408912 9.702876,-0.578871 3.590214,-0.251944 7.012465,-0.397912 7.956258,-0.128976 0.578874,0.164968 1.123755,0.408911 1.661637,0.613871 1.057768,0.403912 4.612992,0.235944 7.272405,-0.330928 1.667637,-0.355927 3.007348,-0.728839 3.093324,-0.830822 l 4.771964,-6.901488 c 0.396911,-0.653855 0.773823,-1.31571 0.984783,-1.889589 0.308927,-0.838815 0.239943,-2.073542 0,-3.229292 -0.786831,-3.787171 -2.442469,-8.361165 -1.226735,-11.2135461 0.839815,-1.969573 2.617429,-4.304058 2.474461,-4.733962 C 84.33874,4.2620309 82.286191,3.5901839 80.928481,2.8083529 80.539569,2.5844009 80.196642,2.3184569 79.768739,1.6915939 79.323835,1.0407389 78.786956,-3.6104905e-5 78.786956,-3.6104905e-5 c 0,0 -1.725625,1.257727004905 -2.558448,2.275501004905 -1.214734,1.483678 -1.973565,4.226075 -1.444678,5.517793 0.16296,0.39692 0.391912,0.783831 0.645855,1.151751 0.450904,0.656855 0.975791,1.2577261 1.254727,1.9745651 0.365919,0.943799 0.304935,2.08955 0.398911,3.254292 0.123976,1.53367 1.990569,7.611334 1.730625,10.243763 -0.118976,1.204735 -0.225952,1.360702 -1.069767,1.567654 0,0 -1.877592,0.458896 -1.877592,0.458896 0,0 -7.609334,-0.453896 -7.849281,-0.468896 l 1.73762,-4.304058 c 0.565876,-1.349703 -0.573875,-6.251632 -1.741619,-7.794294 -0.899803,-1.188735 -2.692411,-0.318928 -4.591995,0.482895 -3.986128,1.68263 -4.595994,2.975348 -6.765519,7.492358 -0.153966,0.319936 -0.307933,0.635864 -0.377917,0.981791 -0.09498,0.464896 -0.104978,0.619863 -0.104978,1.546662 l 0,1.804606 -2.64542,-0.113976 -1.114757,-0.048 c -1.303714,-0.056 -1.528665,-0.078 -2.248507,-0.216952 -2.727404,-0.526887 -2.138533,-1.419694 -1.232731,-3.850155 0.73484,-1.972573 0.180961,-2.399477 -1.675633,-3.575219 -0.497891,-0.314936 -0.947793,-0.607871 -1.453682,-0.850815 -0.761833,-0.36592 -5.156871,-0.572871 -5.746742,-0.269944 -1.074765,0.55188 -3.367263,3.930139 -3.976129,5.955697 -0.839817,2.793388 0.509888,2.035557 2.294497,3.162308 0.199956,0.125975 0.347924,0.282943 0.349923,0.412911 0.004,0.310936 -1.099759,0.503887 -2.160527,0.619863 -0.845814,0.09298 -1.730621,0.17696 -2.639422,0.245944 z m 30.218386,-3.55122 -0.221951,1.055767 -2.01056,-0.636855 c -1.231731,-0.39092 -2.2865,-1.202743 -1.870591,-2.140533 0.27294,-0.616864 2.235511,-1.67963 2.657419,-1.611646 0.822819,0.133968 1.519667,1.69663 1.515668,2.64942 -0.001,0.220952 -0.02399,0.465896 -0.06998,0.683847 z m 26.594184,15.419629 -5.609777,-0.38492 c -2.739396,-0.186959 -0.16696,1.383703 5.575785,3.259292 0.580871,0.189952 1.078767,0.414904 1.663638,0.607863 1.31471,0.433904 5.591777,0.743839 6.678535,0.483896 3.172309,-0.758839 9.110009,-8.123222 10.487709,-12.084361 1.48667,-4.278058 0.50989,-7.297399 -1.19274,-11.493481 -0.43291,-1.065767 -1.17375,-2.384477 -1.94858,-3.00834 -1.19473,-0.959791 -3.27228,-1.931582 -3.27228,-1.931582 0,0 -3.292278,3.771179 -5.086883,6.352616 -2.856381,4.111099 -3.839163,8.713093 0.461895,10.563683 0.711847,0.305935 2.278498,0.305935 2.909368,0 0.79182,-0.383912 2.93135,-2.324485 3.53822,-1.933574 0.28994,0.18696 0.20996,0.927799 0,1.614646 -0.094,0.306936 -0.4489,0.848815 -0.8888,1.415694 -1.97257,2.544437 -6.403603,5.634761 -8.912056,6.154648 -0.511887,0.105976 -1.038766,0.18896 -1.519662,0.262944 -1.294718,0.19796 -1.582654,0.209952 -2.884372,0.120976 z m 14.08892,-14.601806 c 0.26294,0.275936 0.24194,1.143751 0,1.524662 -0.77183,1.217735 -5.463803,-1.730621 -6.19265,-2.859372 -0.438903,-0.678847 -0.314928,-1.296718 0.671855,-1.710622 1.140755,-0.478895 3.801175,1.238727 5.520795,3.045332 z M 90.365421,1.2316989 c -0.202952,0.264943 -0.408912,0.564871 -0.585872,0.860807 -0.651863,1.088766 -1.382702,3.617211 -1.403694,4.855937 -0.07096,4.1780911 0.36392,15.0087251 0.829815,18.2210171 l 0.513887,3.541228 1.460686,-3.38926 c 0.287936,-0.668855 0.57088,-1.480678 0.772832,-2.218517 1.700629,-6.221632 1.848597,-12.669224 -0.08198,-20.7584541 L 91.311215,-3.6104905e-5 90.365425,1.2316989 z m -26.206269,4.721962 -2.914361,-2.914357 -4.254069,4.253067 4.255068,4.2550671 2.914362,-2.9153571 2.915362,2.9153571 4.253072,-4.2540671 -4.254072,-4.254067 -2.915362,2.914357 z M 126.14359,30.429309 c 0.60587,-0.679847 2.51445,-6.302616 2.83138,-8.342173 0.4739,-3.048332 -0.4259,-6.665543 -3.53423,-8.723093 -0.17796,-0.116976 -0.35392,-0.212952 -0.52888,-0.288935 l -1.24273,-0.53888 -1.18473,0.732839 c -1.05578,0.652856 -1.88759,1.994566 -2.29951,3.482236 -0.10397,0.375919 -0.12496,0.982783 -0.085,1.574654 l 0.11898,1.744622 1.48367,0.767831 c 0.98479,0.509887 2.09555,0.94679 2.45647,2.163525 l 0.24494,0.822823 -1.16174,0.494887 c -0.54488,0.232952 -1.23873,0.37492 -1.8536,0.469896 -1.06977,0.165967 -2.17153,0.135975 -3.07533,-0.221944 -1.97056,-0.778831 -2.40347,-1.764614 -3.53422,0.820815 -1.10776,2.533445 -1.49567,5.815728 0.36392,7.000471 1.3627,0.867807 2.44347,0.921799 4.07011,0.652855 1.73062,-0.284936 6.43759,-2.059549 6.93048,-2.612429 z m -9.145,-27.3900051 -4.25407,4.253067 4.25407,4.2550671 4.25407,-4.2540671 -4.25407,-4.254067 z M 11.164751,3.8601189 C 9.3101577,2.6113929 8.1874031,3.0153039 7.255607,3.8910789 3.26748,7.6402589 -0.16576844,11.574398 0.00619374,17.426118 0.15616074,22.529 5.881908,22.827935 10.018002,19.804595 12.301503,18.134957 15.41882,12.819124 15.335839,10.413655 15.295849,9.2429119 12.986353,5.0868219 11.164751,3.8600869 z m -3.1773041,6.9364871 1.2007374,3.004341 -2.0585491,0 c -0.96079,0 -1.9035841,-0.973783 -1.807605,-1.933574 0.1419694,-1.412694 0.7108448,-2.5764371 1.8365986,-2.4494691 0.2609428,0.02896 0.3439243,0.166968 0.8288181,1.3787021 z"
     style="fill:#000000;stroke:none" />
</svg>
