<?xml version="1.0" encoding="UTF-8" standalone="no"?>
<!-- Created with Inkscape (http://www.inkscape.org/) -->

<svg
   xmlns:dc="http://purl.org/dc/elements/1.1/"
   xmlns:cc="http://creativecommons.org/ns#"
   xmlns:rdf="http://www.w3.org/1999/02/22-rdf-syntax-ns#"
   xmlns:svg="http://www.w3.org/2000/svg"
   xmlns="http://www.w3.org/2000/svg"
   xmlns:xlink="http://www.w3.org/1999/xlink"
   xmlns:sodipodi="http://sodipodi.sourceforge.net/DTD/sodipodi-0.dtd"
   xmlns:inkscape="http://www.inkscape.org/namespaces/inkscape"
   width="744.09448819"
   height="1052.3622047"
   id="svg2"
   version="1.1"
   inkscape:version="0.48.4 r9939"
   sodipodi:docname="drawing.svg">
  <defs
     id="defs4">
    <linearGradient
       inkscape:collect="always"
       id="linearGradient4243">
      <stop
         style="stop-color:#008080;stop-opacity:1;"
         offset="0"
         id="stop4245" />
      <stop
         style="stop-color:#008080;stop-opacity:0;"
         offset="1"
         id="stop4247" />
    </linearGradient>
    <linearGradient
       inkscape:collect="always"
       id="linearGradient4194">
      <stop
         style="stop-color:#008080;stop-opacity:1;"
         offset="0"
         id="stop4196" />
      <stop
         style="stop-color:#008080;stop-opacity:0;"
         offset="1"
         id="stop4198" />
    </linearGradient>
    <linearGradient
       inkscape:collect="always"
       id="linearGradient3800">
      <stop
         style="stop-color:#008080;stop-opacity:1;"
         offset="0"
         id="stop3802" />
      <stop
         style="stop-color:#008080;stop-opacity:0;"
         offset="1"
         id="stop3804" />
    </linearGradient>
    <linearGradient
       inkscape:collect="always"
       xlink:href="#linearGradient3800"
       id="linearGradient3806"
       x1="55.554165"
       y1="24.623356"
       x2="55.554165"
       y2="-0.050975583"
       gradientUnits="userSpaceOnUse"
       gradientTransform="matrix(0.96969697,0,0,0.96969697,1.2745623,0.98484848)" />
    <linearGradient
       inkscape:collect="always"
       xlink:href="#linearGradient3800"
       id="linearGradient3819"
       gradientUnits="userSpaceOnUse"
       gradientTransform="matrix(0.6277916,0,0,0.6277916,131.3048,0.81389579)"
       x1="55.554165"
       y1="24.623356"
       x2="55.554165"
       y2="-0.050975583" />
    <linearGradient
       inkscape:collect="always"
       xlink:href="#linearGradient3800"
       id="linearGradient3825"
       gradientUnits="userSpaceOnUse"
       gradientTransform="matrix(0.6277916,0,0,0.6277916,131.3048,0.81389579)"
       x1="55.554165"
       y1="24.623356"
       x2="55.554165"
       y2="-0.050975583" />
    <linearGradient
       inkscape:collect="always"
       xlink:href="#linearGradient3800"
       id="linearGradient3829"
       gradientUnits="userSpaceOnUse"
       gradientTransform="matrix(0.79669011,0,0,0.79669011,127.72671,6.6075701)"
       x1="55.554165"
       y1="24.623356"
       x2="55.554165"
       y2="-0.050975583" />
    <linearGradient
       inkscape:collect="always"
       xlink:href="#linearGradient3800"
       id="linearGradient3835"
       gradientUnits="userSpaceOnUse"
       gradientTransform="matrix(0.79669011,0,0,0.79669011,127.72671,6.6075701)"
       x1="55.554165"
       y1="24.623356"
       x2="55.554165"
       y2="-0.050975583" />
    <linearGradient
       inkscape:collect="always"
       xlink:href="#linearGradient3800"
       id="linearGradient3843"
       gradientUnits="userSpaceOnUse"
       gradientTransform="matrix(0.79669011,0,0,0.79669011,127.72671,6.6075701)"
       x1="55.554165"
       y1="24.623356"
       x2="55.554165"
       y2="-0.050975583" />
    <linearGradient
       inkscape:collect="always"
       xlink:href="#linearGradient3800"
       id="linearGradient3893"
       gradientUnits="userSpaceOnUse"
       gradientTransform="matrix(0.79669011,0,0,0.79669011,127.72671,6.6075701)"
       x1="55.554165"
       y1="24.623356"
       x2="55.554165"
       y2="-0.050975583" />
    <linearGradient
       inkscape:collect="always"
       xlink:href="#linearGradient3800"
       id="linearGradient3897"
       gradientUnits="userSpaceOnUse"
       gradientTransform="matrix(0.96969694,0,0,0.96969694,175.08273,0.9848484)"
       x1="55.554165"
       y1="24.623356"
       x2="55.554165"
       y2="-0.050975583" />
    <linearGradient
       inkscape:collect="always"
       xlink:href="#linearGradient3800"
       id="linearGradient3914"
       gradientUnits="userSpaceOnUse"
       gradientTransform="matrix(0.96969694,0,0,0.96969694,174.93508,0.98484852)"
       x1="55.554165"
       y1="24.623356"
       x2="55.554165"
       y2="-0.050975583" />
    <linearGradient
       inkscape:collect="always"
       xlink:href="#linearGradient3800"
       id="linearGradient3936"
       gradientUnits="userSpaceOnUse"
       gradientTransform="matrix(0.96969694,0,0,0.96969694,258.45961,0.98484852)"
       x1="55.554165"
       y1="32.087128"
       x2="55.554165"
       y2="-0.050975583" />
    <linearGradient
       inkscape:collect="always"
       xlink:href="#linearGradient4194"
       id="linearGradient4200"
       x1="154.54395"
       y1="123.45053"
       x2="154.54395"
       y2="59.723637"
       gradientUnits="userSpaceOnUse"
       gradientTransform="matrix(0.98461535,0,0,0.98461535,1.9646108,1.9032439)" />
    <linearGradient
       inkscape:collect="always"
       xlink:href="#linearGradient4243"
       id="linearGradient4249"
       x1="-12.04581"
       y1="91.829068"
       x2="40.462125"
       y2="91.829068"
       gradientUnits="userSpaceOnUse" />
  </defs>
  <sodipodi:namedview
     id="base"
     pagecolor="#ffffff"
     bordercolor="#666666"
     borderopacity="1.0"
     inkscape:pageopacity="0.0"
     inkscape:pageshadow="2"
     inkscape:zoom="2.0141441"
     inkscape:cx="128.74096"
     inkscape:cy="985.654"
     inkscape:document-units="px"
     inkscape:current-layer="layer1"
     showgrid="false"
     inkscape:window-width="1600"
     inkscape:window-height="796"
     inkscape:window-x="-8"
     inkscape:window-y="-8"
     inkscape:window-maximized="1" />
  <metadata
     id="metadata7">
    <rdf:RDF>
      <cc:Work
         rdf:about="">
        <dc:format>image/svg+xml</dc:format>
        <dc:type
           rdf:resource="http://purl.org/dc/dcmitype/StillImage" />
        <dc:title></dc:title>
      </cc:Work>
    </rdf:RDF>
  </metadata>
  <g
     inkscape:label="Layer 1"
     inkscape:groupmode="layer"
     id="layer1">
    <rect
       style="color:#000000;fill:#008080;fill-opacity:1;fill-rule:nonzero;stroke:#888ff0;stroke-width:0.23407766;stroke-linecap:butt;stroke-linejoin:miter;stroke-miterlimit:4;stroke-opacity:0;stroke-dasharray:none;stroke-dashoffset:0;marker:none;visibility:visible;display:inline;overflow:visible;enable-background:accumulate"
       id="rect2992"
       width="31.765923"
       height="31.765923"
       x="0.11703883"
       y="0.11703883"
       ry="4.5188832" />
    <path
       style="fill:#ffffff;stroke:none"
       d="m 23.375666,24.312221 c 1.125778,-1.140777 1.842889,-2.594331 2.280833,-4.222666 0.211168,-0.766055 0.311112,-1.443833 0.33139,-2.248166 l 0.01211,-8.4734449 C 25.988446,9.0151671 25.950444,8.7181671 25.873112,8.3768331 25.797724,7.9676109 25.603389,7.6507223 25.295612,7.4351666 24.924168,7.2412224 24.579723,7.1533334 24.172722,7.1487224 23.687556,7.1370548 23.276612,7.1767778 22.799668,7.281333 22.793388,6.4563889 22.149444,5.9631666 21.520888,5.9221664 20.444055,5.8311665 19.54,5.6604999 18.493555,5.3507777 18.123722,5.2412777 17.815611,5.1291114 17.458,4.9737779 17.028056,4.8072224 16.671223,4.5925556 16.326,4.2890556 L 15.997111,4.0000001 15.708667,4.2580555 C 15.414945,4.5208334 15.115056,4.7138333 14.753,4.8761112 14.400778,5.0438334 14.095834,5.1644444 13.728779,5.281222 12.629611,5.6273331 11.676833,5.8168888 10.54139,5.9153335 10.13389,5.9208907 9.7877785,6.0912224 9.5001672,6.4278335 9.3017783,6.6664445 9.2024455,6.9491668 9.200334,7.2814444 8.5298344,7.1343891 7.4330788,7.0175556 6.7099292,7.4319999 6.423923,7.6203888 6.2380616,7.9015554 6.1546286,8.272 6.0575899,8.6472221 6.0110785,8.9771111 6.0000009,9.3688341 l 0.012166,8.4725549 c 0.016657,0.726444 0.100172,1.338722 0.2776225,2.035332 0.2351663,0.969223 0.5332442,1.756613 0.988911,2.612335 0.7206884,1.338553 1.6144662,2.271666 2.8347996,2.9595 1.221611,0.618332 2.274444,1.083276 3.540889,1.563555 0.361944,0.126499 0.665611,0.240832 1.022722,0.384943 0.33561,0.129724 0.626167,0.261057 0.930443,0.421889 L 15.950055,28 16.319944,27.827388 c 0.678555,-0.316499 1.298833,-0.565611 2.025722,-0.815277 1.266278,-0.480279 2.319055,-0.94511 3.540556,-1.563389 0.570277,-0.306834 1.019943,-0.649944 1.489444,-1.136501 z"
       id="path2996"
       inkscape:connector-curvature="0" />
    <path
       inkscape:connector-curvature="0"
       id="path3000"
       d="m 65.01091,27.247114 c 1.455552,-1.474944 2.382726,-3.354287 2.948957,-5.459609 0.273025,-0.990455 0.402245,-1.866774 0.428463,-2.90672 L 68.403988,7.9252206 C 68.389051,7.4691049 68.339917,7.0851049 68.239932,6.6437841 68.14246,6.1146888 67.891199,5.7049742 67.493265,5.4262759 67.013015,5.1755198 66.567672,5.0618855 66.041448,5.0559238 65.414163,5.0408384 64.882841,5.0921974 64.266186,5.22738 64.258041,4.1607856 63.425493,3.5230839 62.612814,3.4700736 61.220545,3.3524172 60.051666,3.1317573 58.698686,2.7313084 58.220518,2.5897327 57.822153,2.4447095 57.359787,2.2438743 56.8039,2.0285298 56.34254,1.7509808 55.896191,1.3585768 L 55.470961,0.98484848 55.098023,1.3184959 C 54.718262,1.6582491 54.330526,1.9077843 53.862413,2.1175982 53.407015,2.3344511 53.012744,2.4903926 52.538168,2.6413778 51.117021,3.088875 49.885147,3.3339571 48.417099,3.4612392 47.890231,3.4684246 47.442734,3.6886511 47.070873,4.1238654 46.81437,4.4323726 46.68594,4.7979125 46.683209,5.227524 45.816301,5.0373919 44.398273,4.8863344 43.463292,5.4221816 c -0.369787,0.2435736 -0.610091,0.6071021 -0.717964,1.0860607 -0.125466,0.4851356 -0.1856,0.9116588 -0.199924,1.418129 l 0.01574,10.9544137 c 0.02154,0.939241 0.129514,1.730874 0.358947,2.631541 0.304052,1.253137 0.689446,2.271177 1.278592,3.377565 0.931798,1.730654 2.08739,2.937103 3.665194,3.826424 1.579456,0.799459 2.940696,1.400599 4.578119,2.021566 0.467968,0.163554 0.860588,0.311379 1.322307,0.497704 0.43392,0.167724 0.80959,0.337528 1.202997,0.545473 l 0.442822,0.234094 0.47824,-0.223175 c 0.877324,-0.409211 1.679299,-0.731295 2.619116,-1.054096 1.637207,-0.620967 2.998374,-1.221961 4.577688,-2.021352 0.737327,-0.396714 1.318714,-0.840331 1.925745,-1.469415 z"
       style="fill:url(#linearGradient3806);fill-opacity:1;stroke:#008080;stroke-width:0.96969700000000003;stroke-miterlimit:4;stroke-opacity:1;stroke-dasharray:none" />
    <g
       id="g3008"
       transform="translate(0,-2.3279839)">
      <text
         sodipodi:linespacing="125%"
         id="text3002"
         y="32.327984"
         x="78.957642"
         style="font-size:32px;font-style:normal;font-variant:normal;font-weight:normal;font-stretch:normal;line-height:125%;letter-spacing:0px;word-spacing:0px;fill:#008080;fill-opacity:1;stroke:none;font-family:Calibri;-inkscape-font-specification:Calibri"
         xml:space="preserve"><tspan
           style="font-size:32px;font-style:normal;font-variant:normal;font-weight:normal;font-stretch:normal;text-align:start;line-height:125%;writing-mode:lr-tb;text-anchor:start;fill:#008080;font-family:iconFont;-inkscape-font-specification:iconFont"
           y="32.327984"
           x="78.957642"
           id="tspan3004"
           sodipodi:role="line"></tspan></text>
      <path
         inkscape:connector-curvature="0"
         id="path3006"
         d="m 100.95511,28.568921 c 0.91544,-0.927638 1.49857,-2.109614 1.85469,-3.433715 0.17171,-0.622928 0.25298,-1.174072 0.26947,-1.828125 l 0.01,-6.890291 c -0.009,-0.286865 -0.0403,-0.528374 -0.10318,-0.805934 -0.0613,-0.332765 -0.21932,-0.590447 -0.4696,-0.765728 -0.30204,-0.157709 -0.58213,-0.229177 -0.91309,-0.232926 -0.39452,-0.0095 -0.72868,0.02282 -1.11651,0.107834 -0.005,-0.670814 -0.528745,-1.071884 -1.039864,-1.105224 -0.875642,-0.074 -1.610788,-0.212778 -2.461719,-0.464632 -0.300734,-0.08904 -0.551275,-0.180251 -0.842074,-0.306562 -0.349616,-0.135437 -0.639775,-0.309996 -0.920499,-0.556791 l -0.267441,-0.235049 -0.234551,0.209841 c -0.238844,0.213681 -0.482703,0.370621 -0.777114,0.50258 -0.286413,0.136385 -0.534383,0.234462 -0.832858,0.32942 -0.893803,0.281445 -1.668566,0.435585 -2.591866,0.515636 -0.331364,0.0045 -0.612809,0.143027 -0.846684,0.416747 -0.161322,0.194029 -0.242096,0.423929 -0.243813,0.694124 -0.545225,-0.11958 -1.437066,-0.214584 -2.025104,0.122426 -0.232571,0.153192 -0.383705,0.381825 -0.45155,0.683057 -0.07891,0.305117 -0.11673,0.573371 -0.125738,0.891905 l 0.0099,6.889567 c 0.01354,0.590717 0.08146,1.088599 0.225753,1.655056 0.191228,0.788137 0.433614,1.428413 0.804146,2.124254 0.586036,1.088462 1.312823,1.847235 2.305153,2.406556 0.993368,0.502804 1.849493,0.880879 2.879319,1.271424 0.294319,0.102864 0.54125,0.195836 0.831639,0.313022 0.272906,0.105486 0.509176,0.212281 0.756602,0.343064 l 0.278505,0.147229 0.300777,-0.140362 c 0.551775,-0.257365 1.056164,-0.459933 1.647246,-0.662953 1.02969,-0.390545 1.885767,-0.768528 2.879052,-1.27129 0.463723,-0.249506 0.829373,-0.52851 1.211153,-0.92416 z"
         style="fill:#008080;stroke:none" />
    </g>
    <path
       style="fill:#008080;stroke:none"
       d="m 140.83294,27.082961 c 1.50104,-1.521036 2.45719,-3.459108 3.04111,-5.630221 0.28156,-1.021407 0.41482,-1.925111 0.44186,-2.997555 l 0.0161,-11.2979263 c -0.0154,-0.4703693 -0.0661,-0.8663693 -0.16918,-1.3214813 -0.10052,-0.5456296 -0.35963,-0.9681478 -0.77,-1.2555554 -0.49526,-0.2585922 -0.95452,-0.3757776 -1.49719,-0.3819256 -0.64688,-0.015557 -1.19481,0.037407 -1.83073,0.1768142 -0.008,-1.0999255 -0.86697,-1.7575553 -1.70504,-1.8122222 -1.43578,-0.1213332 -2.64119,-0.3488887 -4.03645,-0.7618516 -0.49311,-0.146 -0.90392,-0.2955551 -1.38074,-0.5026664 -0.57326,-0.222074 -1.04903,-0.5082964 -1.50933,-0.9129631 L 130.99487,0 130.61028,0.3440739 c -0.39163,0.3503705 -0.79148,0.6077037 -1.27423,0.8240742 -0.46962,0.2236296 -0.87622,0.3844443 -1.36562,0.5401478 -1.46556,0.4614814 -2.73593,0.7142224 -4.24986,0.845482 -0.54333,0.00741 -1.00481,0.2345185 -1.38829,0.6833333 -0.26452,0.318148 -0.39696,0.6951111 -0.39978,1.1381479 -0.894,-0.1960737 -2.35634,-0.3518517 -3.32054,0.2007407 -0.38134,0.2511852 -0.62916,0.626074 -0.7404,1.1200001 -0.12939,0.5002961 -0.1914,0.9401481 -0.20617,1.4624455 l 0.0162,11.2967396 c 0.0222,0.968592 0.13356,1.784963 0.37016,2.713776 0.31356,1.292298 0.711,2.342151 1.31855,3.483114 0.96092,1.784737 2.15262,3.028888 3.77973,3.946 1.62882,0.824442 3.0326,1.444368 4.72119,2.08474 0.48259,0.168665 0.88748,0.321109 1.36363,0.513257 0.44748,0.172965 0.83489,0.348076 1.24059,0.562519 L 130.93213,32 l 0.49318,-0.230149 c 0.90474,-0.421999 1.73178,-0.754148 2.70097,-1.087036 1.68837,-0.640372 3.09207,-1.260147 4.72074,-2.084519 0.76037,-0.409112 1.35992,-0.866592 1.98592,-1.515335 z"
       id="path3013"
       inkscape:connector-curvature="0" />
    <text
       sodipodi:linespacing="125%"
       id="text3017"
       y="13.542331"
       x="120.42603"
       style="font-size:32px;font-style:normal;font-variant:normal;font-weight:normal;font-stretch:normal;line-height:125%;letter-spacing:0px;word-spacing:0px;fill:#ffffff;fill-opacity:1;stroke:none;font-family:Calibri;-inkscape-font-specification:Calibri"
       xml:space="preserve"><tspan
         style="font-size:8px;font-style:normal;font-variant:normal;font-weight:normal;font-stretch:normal;text-align:start;line-height:125%;writing-mode:lr-tb;text-anchor:start;fill:#ffffff;font-family:iconFont;-inkscape-font-specification:iconFont"
         y="13.542331"
         x="120.42603"
         id="tspan3019"
         sodipodi:role="line"><tspan
   style="font-size:8px;font-style:normal;font-variant:normal;font-weight:normal;font-stretch:normal;text-align:start;line-height:125%;writing-mode:lr-tb;text-anchor:start;font-family:Segoe UI;-inkscape-font-specification:Segoe UI"
   id="tspan3028"> ___</tspan></tspan><tspan
         style="font-size:8px;font-style:normal;font-variant:normal;font-weight:normal;font-stretch:normal;text-align:start;line-height:125%;writing-mode:lr-tb;text-anchor:start;fill:#ffffff;font-family:iconFont;-inkscape-font-specification:iconFont"
         y="25.337912"
         x="120.42603"
         sodipodi:role="line"
         id="tspan3026"><tspan
   style="-inkscape-font-specification:Segoe UI;font-family:Segoe UI;font-weight:normal;font-style:normal;font-stretch:normal;font-variant:normal;font-size:8px;text-anchor:start;text-align:start;writing-mode:lr;line-height:125%"
   id="tspan3030"> ___</tspan></tspan></text>
    <path
       id="rect3971"
       style="color:#000000;fill:#ffffff;fill-opacity:1;fill-rule:nonzero;stroke:none;stroke-width:1;marker:none;visibility:visible;display:inline;overflow:visible;enable-background:accumulate"
       d="m 49.974696,13.012375 11,0 0,2 -11,0 z m 2.39731,-3.37175 0,2.875 6.1875,0 0,-2.875 -6.1875,0 z m 0,5.875 0,7.84375 6.1875,-4.5625 0,-3.28125 -6.1875,0 z"
       inkscape:connector-curvature="0" />
    <path
       style="fill:#008080;fill-opacity:1;stroke:none;stroke-width:0.96969706000000000;stroke-miterlimit:4;stroke-opacity:1;stroke-dasharray:none"
       d="m 184.18626,27.247116 c 1.45555,-1.474946 2.38273,-3.35429 2.94896,-5.459611 0.27303,-0.990454 0.40223,-1.866774 0.42847,-2.906719 l 0.0158,-10.9555661 c -0.0154,-0.456115 -0.0641,-0.8401158 -0.16404,-1.2814363 -0.0974,-0.5290945 -0.34873,-0.938809 -0.74667,-1.2175075 -0.48025,-0.2507563 -0.92561,-0.3643904 -1.45182,-0.3703528 -0.62729,-0.015085 -1.15862,0.036274 -1.77525,0.1714559 -0.007,-1.0665934 -0.8407,-1.7042952 -1.65338,-1.7573054 -1.39228,-0.1176565 -2.56115,-0.3383164 -3.91413,-0.7387652 -0.4782,-0.1415764 -0.87657,-0.2865989 -1.33892,-0.4874342 -0.5559,-0.2153445 -1.01725,-0.4928935 -1.4636,-0.8852976 l -0.42523,-0.37372828 -0.37294,0.33364758 c -0.37977,0.3397532 -0.76749,0.5892884 -1.23561,0.7991021 -0.45541,0.2168531 -0.84966,0.3727947 -1.32425,0.5237798 -1.42116,0.4474972 -2.65302,0.6925792 -4.12107,0.8198613 -0.52687,0.00718 -0.97435,0.2274119 -1.34622,0.6626262 -0.25649,0.3085072 -0.38494,0.6740471 -0.38767,1.1036586 -0.8669,-0.190132 -2.28494,-0.3411896 -3.21991,0.1946575 -0.36979,0.2435738 -0.6101,0.6071021 -0.71797,1.0860606 -0.12541,0.4851369 -0.1856,0.9116579 -0.1999,1.4181291 l 0.0158,10.9544147 c 0.0215,0.939241 0.12943,1.730872 0.35894,2.63154 0.30405,1.253135 0.68946,2.271178 1.2786,3.377566 0.9318,1.730653 2.08738,2.937102 3.66519,3.826423 1.57945,0.799459 2.94067,1.400598 4.57812,2.021566 0.46797,0.163554 0.8606,0.311379 1.32229,0.497705 0.43393,0.167723 0.8096,0.337528 1.20301,0.545474 l 0.44281,0.234092 0.47825,-0.223174 c 0.87733,-0.409212 1.6793,-0.731295 2.61913,-1.054097 1.6372,-0.620968 2.99837,-1.221961 4.57769,-2.021351 0.73732,-0.396714 1.31871,-0.840331 1.92573,-1.469414 z"
       id="path3815"
       inkscape:connector-curvature="0" />
    <path
       inkscape:connector-curvature="0"
       id="path3839"
       d="m 238.67142,27.247116 c 1.45555,-1.474946 2.38273,-3.35429 2.94895,-5.459611 0.27303,-0.990454 0.40223,-1.866774 0.42847,-2.906719 l 0.0158,-10.9555665 c -0.0155,-0.456115 -0.0642,-0.840116 -0.16405,-1.281436 -0.0974,-0.529095 -0.34873,-0.938809 -0.74667,-1.217508 -0.48025,-0.250756 -0.92561,-0.36439 -1.45182,-0.370353 -0.62729,-0.01508 -1.15861,0.03627 -1.77525,0.171456 -0.007,-1.066593 -0.8407,-1.704295 -1.65337,-1.757305 -1.39225,-0.117657 -2.56113,-0.338316 -3.91411,-0.738765 -0.47819,-0.141577 -0.87657,-0.286599 -1.33892,-0.487434 -0.5559,-0.215345 -1.01725,-0.492894 -1.46359,-0.885298 l -0.42524,-0.37372798 -0.37294,0.33364698 c -0.37976,0.339753 -0.76749,0.589289 -1.23561,0.799102 -0.45541,0.216853 -0.84966,0.372795 -1.32425,0.52378 -1.42115,0.447497 -2.65301,0.692579 -4.12106,0.819861 -0.52687,0.0072 -0.97436,0.227412 -1.34623,0.662627 -0.25649,0.308507 -0.38494,0.674047 -0.38766,1.103658 -0.86691,-0.190132 -2.28495,-0.341189 -3.21992,0.194658 -0.36978,0.243574 -0.6101,0.607102 -0.71796,1.08606 -0.12542,0.485137 -0.18561,0.911658 -0.19991,1.418129 l 0.0158,10.9544155 c 0.0215,0.939241 0.12944,1.730872 0.35894,2.63154 0.30405,1.253135 0.68946,2.271178 1.2786,3.377566 0.9318,1.730653 2.08738,2.937102 3.66519,3.826423 1.57946,0.799459 2.94068,1.400598 4.57812,2.021566 0.46797,0.163554 0.8606,0.311379 1.32229,0.497705 0.43393,0.167723 0.80961,0.337528 1.20302,0.545474 l 0.4428,0.234092 0.47826,-0.223174 c 0.87732,-0.409212 1.6793,-0.731295 2.61912,-1.054097 1.6372,-0.620968 2.99837,-1.221961 4.57769,-2.021351 0.73732,-0.396714 1.31871,-0.840331 1.92573,-1.469414 z"
       style="fill:url(#linearGradient3914);fill-opacity:1;stroke:#008080;stroke-width:0.96969706;stroke-miterlimit:4;stroke-opacity:1;stroke-dasharray:none" />
    <path
       id="path3841"
       style="color:#000000;fill:#000000;fill-opacity:1;fill-rule:nonzero;stroke:none;stroke-width:1;marker:none;visibility:visible;display:inline;overflow:visible;enable-background:accumulate"
       d="m 232.77828,18.444515 14.94254,0 0,2.716824 -14.94254,0 z m 3.25654,-4.580225 0,3.905434 8.40518,0 0,-3.905434 -8.40518,0 z m 0,7.980668 0,10.655043 8.40518,-6.197754 0,-4.457289 -8.40518,0 z"
       inkscape:connector-curvature="0" />
    <g
       id="g3922"
       transform="translate(-36.01405,9.9999988e-7)">
      <path
         inkscape:connector-curvature="0"
         d="m 218.17657,28.78125 0,3.71875 8.40625,-6.1875 0,-4.46875 -3.4375,0 c -0.28079,1.027247 -0.65107,2.008916 -1.125,2.90625 -0.48452,0.917369 -1.08472,1.762527 -1.8125,2.5 -0.60702,0.629083 -1.16893,1.072036 -1.90625,1.46875 -0.0439,0.02222 -0.0814,0.04059 -0.125,0.0625 z m 5.09375,-7.625 6.59375,0 0,-2.71875 -6.28125,0 0,0.4375 c -0.0206,0.815988 -0.14539,1.53256 -0.3125,2.28125 z m 0.3125,-3.375 3,0 0,-3.90625 -3,0 0,3.90625 z"
         style="color:#000000;fill:#008080;fill-opacity:1;fill-rule:nonzero;stroke:none;stroke-width:1;marker:none;visibility:visible;display:inline;overflow:visible;enable-background:accumulate"
         id="path3904" />
      <path
         inkscape:connector-curvature="0"
         d="m 218.17657,28.78125 c 0.0436,-0.02191 0.0811,-0.04028 0.125,-0.0625 0.73732,-0.396714 1.29923,-0.839667 1.90625,-1.46875 0.72778,-0.737473 1.32798,-1.582631 1.8125,-2.5 0.47393,-0.897334 0.84421,-1.879003 1.125,-2.90625 l -4.96875,0 0,6.9375 z m 5.09375,-7.625 c 0.16711,-0.74869 0.29191,-1.465262 0.3125,-2.28125 l 0,-0.4375 -8.65625,0 0,2.71875 8.34375,0 z m 0.3125,-3.375 0,-3.90625 -5.40625,0 0,3.90625 5.40625,0 z"
         style="color:#000000;fill:#ffffff;fill-opacity:1;fill-rule:nonzero;stroke:none;stroke-width:1;marker:none;visibility:visible;display:inline;overflow:visible;enable-background:accumulate"
         id="path3899" />
    </g>
    <path
       inkscape:connector-curvature="0"
       style="fill:url(#linearGradient4249);fill-opacity:1;stroke:none"
       d="m 14.176412,60.337005 -0.761905,0.634921 c -0.771576,0.690291 -1.52509,1.224507 -2.476191,1.650793 -0.925277,0.44059 -1.765912,0.772602 -2.7301584,1.079365 -2.8874158,0.909201 -5.3982475,1.392189 -8.38095222,1.650794 -1.07046598,0.01463 -1.97461328,0.449087 -2.73015868,1.333333 -0.5211225,0.626808 -0.7563784,1.349362 -0.7619048,2.222222 -1.7613409,-0.386299 -4.6400608,-0.64426 -6.5396819,0.444445 -0.7513,0.49488 -1.241174,1.185609 -1.460318,2.15873 -0.254822,0.985675 -0.351898,1.891614 -0.380952,2.920635 l 0,22.222222 c 0.04368,1.908299 0.295619,3.503405 0.761904,5.333335 0.617753,2.54605 1.3427001,4.60924 2.5396829,6.85714 1.893181,3.51625 4.2863543,6.00265 7.4920634,7.80952 3.2090615,1.6243 5.942979,2.86534 9.2698411,4.12699 0.9507962,0.3323 1.7921219,0.6373 2.7301586,1.01587 0.881636,0.34077 1.613389,0.65687 2.412699,1.07937 l 0.888888,0.44444 0.952381,-0.44444 c 1.782492,-0.83142 3.423858,-1.43939 5.333334,-2.09524 1.347454,-0.51107 2.579382,-1.06006 3.809523,-1.5873 l 0,-14.4127 -6.603174,0 0,-13.079366 6.603174,0 0,-9.269841 16.31746,0 0,-8 c -0.03149,-0.92671 -0.11459,-1.706525 -0.31746,-2.603175 -0.197892,-1.074986 -0.715296,-1.909945 -1.523809,-2.47619 -0.975746,-0.509473 -1.915002,-0.74979 -2.984127,-0.761905 -1.274494,-0.03064 -2.3027,0.0428 -3.555556,0.31746 -0.01422,-2.167046 -1.71394,-3.447852 -3.365079,-3.555555 -2.828699,-0.239049 -5.251088,-0.710199 -8,-1.52381 C 19.744533,63.54142 18.988805,63.284733 18.049427,62.876688 16.91998,62.439161 15.97215,61.832683 15.0653,61.035418 l -0.888888,-0.698413 z"
       id="path3926"
       inkscape:export-filename="E:\projects\JawiWeb\path3928.png"
       inkscape:export-xdpi="89.440002"
       inkscape:export-ydpi="89.440002" />
    <path
       inkscape:connector-curvature="0"
       d="m 21.593686,95.779829 30.359446,0 0,5.519891 -30.359446,0 z m 6.616462,-9.305854 0,7.93485 17.077191,0 0,-7.93485 -17.077191,0 z m 0,16.214695 0,21.64834 17.077191,-12.59227 0,-9.05607 -17.077191,0 z"
       style="color:#000000;fill:#008080;fill-opacity:1;fill-rule:nonzero;stroke:none;stroke-width:1;marker:none;visibility:visible;display:inline;overflow:visible;enable-background:accumulate"
       id="path3928"
       inkscape:export-xdpi="89.440002"
       inkscape:export-ydpi="89.440002" />
    <path
       style="fill:url(#linearGradient3936);fill-opacity:1;stroke:#008080;stroke-width:0.96969706000000000;stroke-miterlimit:4;stroke-opacity:1;stroke-dasharray:none"
       d="m 322.19595,27.247116 c 1.45555,-1.474946 2.38273,-3.35429 2.94895,-5.459611 0.27303,-0.990454 0.40223,-1.866774 0.42847,-2.906719 l 0.0158,-10.9555665 c -0.0155,-0.456115 -0.0642,-0.840116 -0.16405,-1.281436 -0.0974,-0.529095 -0.34873,-0.938809 -0.74667,-1.217508 -0.48025,-0.250756 -0.92561,-0.36439 -1.45182,-0.370353 -0.62729,-0.01508 -1.15861,0.03627 -1.77525,0.171456 -0.007,-1.066593 -0.8407,-1.704295 -1.65337,-1.757305 -1.39225,-0.117657 -2.56113,-0.338316 -3.91411,-0.738765 -0.47819,-0.141577 -0.87657,-0.286599 -1.33892,-0.487434 -0.5559,-0.215345 -1.01725,-0.492894 -1.46359,-0.885298 l -0.42524,-0.37372798 -0.37294,0.33364698 c -0.37976,0.339753 -0.76749,0.589289 -1.23561,0.799102 -0.45541,0.216853 -0.84966,0.372795 -1.32425,0.52378 -1.42115,0.447497 -2.65301,0.692579 -4.12106,0.819861 -0.52687,0.0072 -0.97436,0.227412 -1.34623,0.662627 -0.25649,0.308507 -0.38494,0.674047 -0.38766,1.103658 -0.86691,-0.190132 -2.28495,-0.341189 -3.21992,0.194658 -0.36978,0.243574 -0.6101,0.607102 -0.71796,1.08606 -0.12542,0.485137 -0.18561,0.911658 -0.19991,1.418129 l 0.0158,10.9544155 c 0.0215,0.939241 0.12944,1.730872 0.35894,2.63154 0.30405,1.253135 0.68946,2.271178 1.2786,3.377566 0.9318,1.730653 2.08738,2.937102 3.66519,3.826423 1.57946,0.799459 2.94068,1.400598 4.57812,2.021566 0.46797,0.163554 0.8606,0.311379 1.32229,0.497705 0.43393,0.167723 0.80961,0.337528 1.20302,0.545474 l 0.4428,0.234092 0.47826,-0.223174 c 0.87732,-0.409212 1.6793,-0.731295 2.61912,-1.054097 1.6372,-0.620968 2.99837,-1.221961 4.57769,-2.021351 0.73732,-0.396714 1.31871,-0.840331 1.92573,-1.469414 z"
       id="path3932"
       inkscape:connector-curvature="0" />
    <path
       inkscape:connector-curvature="0"
       d="m 316.30281,22.024057 14.94254,0 0,2.716824 -14.94254,0 z m 3.25654,-4.580225 0,3.905434 8.40518,0 0,-3.905434 -8.40518,0 z m 0,7.980668 0,10.655043 8.40518,-6.197754 0,-4.457289 -8.40518,0 z"
       style="color:#000000;fill:#008080;fill-opacity:1;fill-rule:nonzero;stroke:none;stroke-width:1;marker:none;visibility:visible;display:inline;overflow:visible;enable-background:accumulate"
       id="path3934" />
    <path
       id="path4040"
       style="color:#000000;fill:#008080;fill-opacity:1;fill-rule:nonzero;stroke:none;stroke-width:1;marker:none;visibility:visible;display:inline;overflow:visible;enable-background:accumulate"
       d="m 274.73477,65.758581 0,10.034268 7.91549,-5.836666 0,-4.197602 -7.91549,0 z m 0,-7.515706 0,3.677899 7.91549,0 0,-3.677899 -7.91549,0 z m -3.06681,4.313377 14.07197,0 0,2.558538 -14.07197,0 z m -3.23486,-18.763403 -0.34363,0.312387 c -0.35763,0.319958 -0.71498,0.583377 -1.15583,0.780967 -0.42888,0.204219 -0.80261,0.326391 -1.24955,0.46858 -1.33835,0.421425 -2.49108,0.6611 -3.87359,0.780967 -0.49617,0.0068 -0.93059,0.214915 -1.28079,0.624773 -0.24155,0.290534 -0.3723,0.626295 -0.37486,1.030877 -0.81641,-0.179055 -2.14966,-0.317196 -3.03016,0.187432 -0.34824,0.229383 -0.55443,0.579823 -0.65601,1.030876 -0.11812,0.456872 -0.17396,0.8663 -0.18743,1.343263 l 0,10.308764 c 0.0203,0.884519 0.1275,1.619661 0.34363,2.467855 0.28633,1.180126 0.66348,2.144417 1.2183,3.186345 0.87752,1.629823 1.95038,2.75494 3.43626,3.592448 1.48744,0.752881 2.76889,1.320769 4.31094,1.905559 0.4407,0.154025 0.81475,0.29311 1.24954,0.46858 0.40865,0.157952 0.75411,0.335227 1.1246,0.531058 l 0.43734,0.218671 0.43734,-0.218671 c 0.82621,-0.385371 1.58279,-0.695643 2.46785,-0.999638 0.86213,-0.326993 1.65568,-0.648454 2.43662,-0.999637 l 0,-4.779518 -3.06139,0 0,-4.467131 3.06139,0 0,-4.310937 6.87251,0 0,-6.903748 c -0.0146,-0.429541 -0.0622,-0.8027 -0.15619,-1.218308 -0.0918,-0.49827 -0.31249,-0.893369 -0.68725,-1.155831 -0.45227,-0.236147 -0.87895,-0.33801 -1.37451,-0.343626 -0.59073,-0.0142 -1.10618,0.02888 -1.68689,0.156194 -0.007,-1.004452 -0.76537,-1.605728 -1.53069,-1.65565 -1.31114,-0.110802 -2.41201,-0.310133 -3.68616,-0.687251 -0.45033,-0.133329 -0.84538,-0.279446 -1.28079,-0.46858 -0.52351,-0.202799 -0.95416,-0.442664 -1.3745,-0.812206 l -0.4061,-0.374864 z"
       inkscape:connector-curvature="0" />
    <path
       style="fill:#008080;fill-opacity:1;stroke:none"
       d="M 229.34375 41.46875 L 228.9375 41.8125 C 228.5519 42.15748 228.16283 42.411959 227.6875 42.625 C 227.22509 42.845189 226.82564 43.002943 226.34375 43.15625 C 224.90074 43.610632 223.64689 43.870759 222.15625 44 C 221.62127 44.0073 221.19009 44.214339 220.8125 44.65625 C 220.55206 44.969503 220.40901 45.34503 220.40625 45.78125 C 219.526 45.588193 218.07435 45.424659 217.125 45.96875 C 216.74953 46.216071 216.51577 46.607423 216.40625 47.09375 C 216.2789 47.58635 216.23327 48.016987 216.21875 48.53125 L 216.21875 59.65625 C 216.24055 60.609941 216.36072 61.397976 216.59375 62.3125 C 216.90248 63.584914 217.2768 64.626591 217.875 65.75 C 218.82114 67.507278 219.99167 68.721997 221.59375 69.625 C 223.19751 70.436758 224.58737 71.056979 226.25 71.6875 C 226.72517 71.85357 227.12495 71.998307 227.59375 72.1875 C 228.03435 72.357803 228.41304 72.538855 228.8125 72.75 L 229.28125 72.96875 L 229.75 72.75 C 230.64082 72.334492 231.45197 72.015268 232.40625 71.6875 C 233.45092 71.291272 234.39593 70.872735 235.34375 70.4375 L 235.34375 62.9375 L 232.03125 62.9375 L 232.03125 58.1875 L 235.34375 58.1875 L 235.34375 53.5625 L 242.46875 53.5625 L 242.46875 48.53125 C 242.45305 48.068118 242.38262 47.666859 242.28125 47.21875 C 242.18235 46.681515 241.93531 46.251737 241.53125 45.96875 C 241.04361 45.714136 240.59681 45.599805 240.0625 45.59375 C 239.42556 45.57844 238.87613 45.643986 238.25 45.78125 C 238.243 44.698248 237.41892 44.053825 236.59375 44 C 235.18008 43.880532 233.96754 43.65661 232.59375 43.25 C 232.1082 43.106245 231.71946 42.953925 231.25 42.75 C 230.68555 42.531342 230.20321 42.242191 229.75 41.84375 L 229.34375 41.46875 z "
       id="path4154"
       inkscape:export-filename="E:\projects\JawiWeb\path4156.png"
       inkscape:export-xdpi="179.98489"
       inkscape:export-ydpi="179.98489" />
    <path
       inkscape:connector-curvature="0"
       d="m 233.03324,59.199742 15.17243,0 0,2.758622 -15.17243,0 z m 3.30664,-4.65069 0,3.965518 8.53449,0 0,-3.965518 -8.53449,0 z m 0,8.103448 0,10.818966 8.53449,-6.293104 0,-4.525862 -8.53449,0 z"
       style="color:#000000;fill:#008080;fill-opacity:1;fill-rule:nonzero;stroke:none;stroke-width:1;marker:none;visibility:visible;display:inline;overflow:visible;enable-background:accumulate"
       id="path4156"
       inkscape:export-xdpi="179.98489"
       inkscape:export-ydpi="179.98489" />
    <path
       style="fill:#008080;fill-opacity:1;stroke:none"
       d="m 239.01705,-14.816328 c 1.47794,-1.497637 2.41938,-3.405894 2.99431,-5.543605 0.27723,-1.005691 0.40842,-1.895493 0.43507,-2.951437 l 0.016,-11.124114 c -0.0157,-0.463133 -0.0652,-0.853041 -0.16658,-1.301151 -0.0989,-0.537235 -0.35409,-0.953252 -0.75815,-1.236239 -0.48764,-0.254613 -0.93985,-0.369996 -1.47416,-0.37605 -0.63694,-0.01531 -1.17643,0.03683 -1.80256,0.174093 -0.007,-1.083002 -0.85363,-1.730515 -1.67881,-1.78434 -1.41367,-0.119467 -2.60053,-0.343521 -3.97432,-0.750131 -0.48555,-0.143755 -0.89006,-0.291008 -1.35952,-0.494933 -0.56445,-0.218658 -1.0329,-0.500477 -1.48611,-0.898918 l -0.43178,-0.379477 -0.37868,0.33878 c -0.3856,0.34498 -0.7793,0.598355 -1.25462,0.811396 -0.46241,0.220189 -0.86273,0.37853 -1.34462,0.531838 -1.44301,0.454381 -2.69383,0.703234 -4.18446,0.832474 -0.53498,0.0073 -0.98935,0.230911 -1.36694,0.672821 -0.26044,0.313254 -0.39086,0.684417 -0.39363,1.120638 -0.88024,-0.193057 -2.3201,-0.346438 -3.26945,0.197652 -0.37547,0.247322 -0.61949,0.616442 -0.72901,1.102769 -0.12735,0.492601 -0.18847,0.925683 -0.20299,1.439946 l 0.0161,11.122946 c 0.0218,0.95369 0.13143,1.7575 0.36446,2.672025 0.30873,1.272414 0.70007,2.306119 1.29827,3.429528 0.94614,1.757279 2.11949,2.982288 3.72158,3.885291 1.60376,0.811759 2.98592,1.422146 4.64855,2.052667 0.47517,0.16607 0.87384,0.31617 1.34263,0.505362 0.44061,0.170304 0.82207,0.342721 1.22153,0.553866 l 0.44961,0.2376933 0.48562,-0.2266073 c 0.89082,-0.415507 1.70514,-0.742546 2.65942,-1.070314 1.66238,-0.630521 3.04449,-1.24076 4.64811,-2.052448 0.74867,-0.402818 1.339,-0.85326 1.95536,-1.492021 z"
       id="path4178"
       inkscape:connector-curvature="0" />
    <path
       inkscape:connector-curvature="0"
       d="m 228.16025,-25.079161 11.79883,0 0,2.145239 -11.79883,0 z m 2.57141,-3.616604 0,3.08378 6.63684,0 0,-3.08378 -6.63684,0 z m 0,6.301638 0,8.413359 6.63684,-4.893826 0,-3.519533 -6.63684,0 z"
       style="color:#000000;fill:#ffffff;fill-opacity:1;fill-rule:nonzero;stroke:none;stroke-width:1;marker:none;visibility:visible;display:inline;overflow:visible;enable-background:accumulate"
       id="path4180" />
    <path
       inkscape:connector-curvature="0"
       id="path4190"
       d="m 107.81216,113.37653 c 3.00207,-3.04207 4.91437,-6.91821 6.08222,-11.26044 0.56311,-2.04281 0.82963,-3.850223 0.88371,-5.995111 l 0.0323,-22.595854 c -0.0308,-0.940738 -0.13213,-1.732738 -0.33837,-2.642962 -0.20104,-1.091259 -0.71926,-1.936296 -1.54,-2.51111 -0.99052,-0.517186 -1.90904,-0.751557 -2.99437,-0.763853 -1.29378,-0.03112 -2.38963,0.07483 -3.66148,0.353629 -0.0168,-2.19985 -1.73393,-3.515109 -3.41008,-3.624445 -2.871555,-0.242667 -5.282368,-0.697776 -8.072888,-1.523701 -0.986221,-0.292 -1.807851,-0.591112 -2.76148,-1.005334 C 90.885205,61.3632 89.93365,60.790757 89.013055,59.981424 l -0.877037,-0.770816 -0.769184,0.688147 c -0.783259,0.700741 -1.582963,1.215408 -2.548445,1.648149 -0.939259,0.447259 -1.752443,0.768888 -2.731256,1.080296 -2.931115,0.922963 -5.471856,1.428445 -8.499704,1.690963 -1.086667,0.01493 -2.00963,0.469037 -2.776595,1.366666 -0.529037,0.636296 -0.793923,1.390224 -0.799555,2.276296 -1.787997,-0.392146 -4.71268,-0.703701 -6.64108,0.401483 -0.762682,0.502371 -1.258312,1.252147 -1.4808,2.24 -0.258773,1.000592 -0.3828,1.880296 -0.412341,2.924891 l 0.03245,22.59348 c 0.04443,1.937184 0.267126,3.569925 0.740328,5.427551 0.62711,2.5846 1.421984,4.6843 2.637096,6.96623 1.921835,3.56947 4.305243,6.05777 7.559464,7.892 3.25763,1.64888 6.065184,2.88873 9.442371,4.16948 0.965184,0.33733 1.774963,0.64222 2.727259,1.02651 0.89496,0.34593 1.669778,0.69615 2.481181,1.12504 l 0.913336,0.48282 0.986371,-0.4603 c 1.80948,-0.844 3.463554,-1.5083 5.401925,-2.17407 3.376741,-1.28075 6.184151,-2.5203 9.441481,-4.16904 1.52074,-0.81822 2.71985,-1.73318 3.97185,-3.03067 z"
       style="fill:#008080;stroke:none"
       inkscape:export-xdpi="89.437508"
       inkscape:export-ydpi="89.437508" />
    <path
       inkscape:export-ydpi="89.437508"
       inkscape:export-xdpi="89.437508"
       style="fill:url(#linearGradient4200);fill-opacity:1;stroke:#008080;stroke-width:0.98461533;stroke-opacity:1"
       d="m 173.81401,113.53552 c 2.95588,-2.99527 4.83876,-6.81178 5.98865,-11.08721 0.55444,-2.01138 0.81686,-3.790985 0.87011,-5.902874 l 0.0318,-22.248225 c -0.0303,-0.926265 -0.13009,-1.706081 -0.33316,-2.602301 -0.19795,-1.07447 -0.7082,-1.906507 -1.51631,-2.472478 -0.97528,-0.509229 -1.87967,-0.739994 -2.9483,-0.752101 -1.27388,-0.03064 -2.35287,0.07368 -3.60515,0.348189 -0.0165,-2.166006 -1.70725,-3.461031 -3.35762,-3.568685 -2.82737,-0.238933 -5.20109,-0.687041 -7.94868,-1.500259 -0.97105,-0.287508 -1.78004,-0.582018 -2.719,-0.989867 -1.12888,-0.437316 -2.0658,-1.000952 -2.97222,-1.797834 l -0.86355,-0.758957 -0.75735,0.67756 c -0.77121,0.68996 -1.5586,1.196709 -2.50924,1.622793 -0.92481,0.440378 -1.72548,0.757059 -2.68923,1.063676 -2.88603,0.908763 -5.38768,1.406468 -8.36895,1.664948 -1.06994,0.0147 -1.97871,0.461821 -2.73387,1.34564 -0.5209,0.626507 -0.78171,1.368836 -0.78726,2.241276 -1.76048,-0.386113 -4.64018,-0.692875 -6.53891,0.395306 -0.75094,0.494643 -1.23895,1.232884 -1.45802,2.205539 -0.25478,0.985198 -0.37691,1.851368 -0.40599,2.879892 l 0.0319,22.245888 c 0.0437,1.907381 0.26302,3.515004 0.72894,5.344054 0.61746,2.54483 1.4001,4.61223 2.59653,6.85905 1.89226,3.51456 4.239,5.96458 7.44316,7.77059 3.20751,1.62351 5.97187,2.84429 9.2971,4.10533 0.95034,0.33214 1.74765,0.63234 2.6853,1.01072 0.88119,0.34061 1.64409,0.68544 2.44301,1.10773 l 0.89929,0.47539 0.9712,-0.45322 c 1.78164,-0.83101 3.41026,-1.48509 5.31881,-2.14062 3.32479,-1.26104 6.08901,-2.48152 9.29622,-4.1049 1.49735,-0.80563 2.67801,-1.70652 3.91075,-2.98404 z"
       id="path4192"
       inkscape:connector-curvature="0" />
    <path
       inkscape:export-ydpi="89.437508"
       inkscape:export-xdpi="89.437508"
       style="fill:#008080;stroke:none"
       d="m -33.264272,113.37653 c 3.00207,-3.04207 4.91437,-6.91821 6.08222,-11.26044 0.56311,-2.04281 0.82963,-3.850223 0.88371,-5.995111 l 0.0323,-22.595854 c -0.0308,-0.940738 -0.13213,-1.732738 -0.33837,-2.642962 -0.20104,-1.091259 -0.71926,-1.936296 -1.54,-2.51111 -0.99052,-0.517186 -1.90904,-0.751557 -2.99437,-0.763853 -1.29378,-0.03112 -2.38963,0.07483 -3.66148,0.353629 -0.0168,-2.19985 -1.73393,-3.515109 -3.41008,-3.624445 -2.871555,-0.242667 -5.282368,-0.697776 -8.072888,-1.523701 -0.986221,-0.292 -1.807851,-0.591112 -2.76148,-1.005334 -1.146517,-0.444149 -2.098072,-1.016592 -3.018667,-1.825925 l -0.877037,-0.770816 -0.769184,0.688147 c -0.783259,0.700741 -1.582963,1.215408 -2.548445,1.648149 -0.939259,0.447259 -1.752443,0.768888 -2.731256,1.080296 -2.931115,0.922963 -5.471856,1.428445 -8.499704,1.690963 -1.086667,0.01493 -2.00963,0.469037 -2.776595,1.366666 -0.529037,0.636296 -0.793923,1.390224 -0.799555,2.276296 -1.787997,-0.392146 -4.71268,-0.703701 -6.64108,0.401483 -0.762682,0.502371 -1.258312,1.252147 -1.4808,2.24 -0.258773,1.000592 -0.3828,1.880296 -0.412341,2.924891 l 0.03245,22.59348 c 0.04443,1.937184 0.267126,3.569925 0.740328,5.427551 0.62711,2.5846 1.421984,4.6843 2.637096,6.96623 1.921835,3.56947 4.305243,6.05777 7.559464,7.892 3.25763,1.64888 6.065184,2.88873 9.442371,4.16948 0.965184,0.33733 1.774963,0.64222 2.727259,1.02651 0.89496,0.34593 1.669778,0.69615 2.481181,1.12504 l 0.913336,0.48282 0.986371,-0.4603 c 1.80948,-0.844 3.463554,-1.5083 5.401925,-2.17407 3.376741,-1.28075 6.184151,-2.5203 9.441481,-4.16904 1.52074,-0.81822 2.71985,-1.73318 3.97185,-3.03067 z"
       id="path4251"
       inkscape:connector-curvature="0" />
    <path
       inkscape:export-ydpi="89.440002"
       inkscape:export-xdpi="89.440002"
       id="path4253"
       style="color:#000000;fill:#ffffff;fill-opacity:1;fill-rule:nonzero;stroke:none;stroke-width:1;marker:none;visibility:visible;display:inline;overflow:visible;enable-background:accumulate"
       d="m -68.112431,83.465963 30.359446,0 0,5.519891 -30.359446,0 z m 6.616462,-9.305854 0,7.93485 17.077191,0 0,-7.93485 -17.077191,0 z m 0,16.214695 0,21.648346 17.077191,-12.592276 0,-9.05607 -17.077191,0 z"
       inkscape:connector-curvature="0" />
  </g>
</svg>
