<?xml version="1.0" encoding="UTF-8" standalone="yes"?>
<!-- Created with sK1/UniConvertor (http://sk1project.org/) -->
<svg xmlns="http://www.w3.org/2000/svg" xmlns:xlink="http://www.w3.org/1999/xlink"
  width="595.276pt" height="841.89pt" viewBox="0 0 595.276 841.89"
  fill-rule="evenodd">
  <path
     d="M 48.908123,45.230375 45.37511,34.113342 c -0.453001,-1.425005 -0.503002,-1.641006 -0.501002,-2.164008 0.009,-1.787006 1.465006,-2.82801 2.929011,-4.200015 2.473009,-2.318009 5.166011,-4.352008 8.414023,-6.360016 5.889022,-3.643013 15.160048,-9.284034 16.117051,-10.563039 0.831004,-1.1099961 0.559003,-1.5789971 0.829004,-4.2810081 0.424001,-4.247016 2.351008,-7.308027 -0.263001,-6.378023 -2.323009,0.825003 -5.495021,3.192011 -8.632024,5.46902 C 56.827144,11.037265 47.254117,17.83629 43.809104,21.124302 c -0.22,0.210001 -0.419001,0.404002 -0.599002,0.590002 -7.487019,7.711021 0.184001,27.338085 2.962011,33.960102 1.292005,3.078011 2.64101,8.17603 3.257012,10.189037 0.603002,1.966999 0.429002,2.045 -1.532005,2.851003 -3.844015,1.580005 -5.22702,2.289008 -9.406035,2.215008 -0.968996,-0.018 -1.886999,-0.093 -2.592002,-0.691003 -1.355005,-1.152004 -1.545005,-2.84801 -2.73401,-2.062007 -0.470001,0.311001 -1.005003,0.996003 -1.551005,1.549005 -3.519013,3.565009 -11.374034,4.200019 -15.63505,3.048011 -4.612017,-1.247004 -5.40002,-3.057011 -7.7730206,1.116008 -4.176015,7.34502 -7.33102666,11.50403 -8.17102974,19.59406 -0.04104015,0.397 -0.06600024,0.758 0.04304016,0.893 0.12600047,0.155 0.42900158,0.01 0.72500266,-0.22 1.86400682,-1.44901 4.15901532,-8.62603 6.43602372,-11.09604 1.8130063,-1.968 3.9270058,-0.666 7.2010178,0.428 1.758007,0.588 6.189023,0.66 7.618028,0.125 0.407002,-0.153 2.625002,-1.61501 4.85201,-2.776 l 3.805014,-1.98501 1.724007,1.195 c 0.459001,0.31801 0.931003,0.68501 1.409005,0.93501 2.290008,1.19799 5.902014,-0.316 8.870024,-1.475 8.364031,-3.26701 5.498021,-9.466038 10.32503,-16.510056 0.811003,-1.185004 1.128005,-1.670006 0.849004,-3.127011 C 53.359172,57.086411 51.443173,52.1394 50.002167,48.362387 49.470165,46.968381 49.361165,46.65538 48.908163,45.230375 z m -22.929076,56.928175 5.031018,5.47902 6.648025,-7.24003 -6.648025,-7.239022 -5.031018,5.47902 -5.032011,-5.47902 -6.648024,7.239022 6.648024,7.24003 5.032011,-5.47902 z"
     style="fill:#000000;stroke:none" />
</svg>
