<?xml version="1.0"?>
<svg xmlns="http://www.w3.org/2000/svg" version="1.1">
  <path
     d="m 143.02212,15.264802 -0.125,-3.016 c -0.051,-1.219 -0.034,-1.438 0.168,-2.184 0.149,-0.5550004 0.307,-1.1610004 0.708,-1.5510004 0.977,-0.951 3.395,-0.622 4.517,-1.406 1.614,-1.129 1.615,-5.005 0.373,-6.576 -1.318,-1.666 -3.981,0.98 -5.072,2.494 -0.67,0.93 -1.305,1.995 -1.59,3.239 -0.133,0.576 -0.206,1.231 -0.309,1.804 l -0.507,2.8050004 -1.673,-2.2330004 c -2.29,-3.164 -1.592,-4.104 -4.957,-4.964 -1.128,-0.288 -3.573,-0.18 -4.043,1.151 -0.368,1.042 0.495,3.575 1.036,4.177 0.416,0.463 2.1,1.6110004 2.796,1.6810004 1.137,0.116 3.459,-0.61 3.459,-0.61 0,0 1.875,2.83 3.02,4.158 0.5,0.58 0.913,1.047 1.554,1.06 0.264,0.005 0.645,-0.029 0.645,-0.029 z m -3.728,0.582 c -1.647,1.37 -2.903,2.79 -3.545,4.231 -1.032,2.315 -1.144,5.02 0.225,7.504 0.059,0.107 0.112,0.203 0.161,0.289 -0.62,-1.101 1.632,3.492 1.903,-0.901 0.064,-1.05 0.079,-2.375 -0.217,-2.74 -0.171,-0.212 -0.447,-0.101 -0.601,-0.222 -0.5,-0.392 0.108,-1.426 0.738,-2.225 2.607,-3.308 13.409,-9.733 17.032,-11.073 0.879,-0.325 1.706,-0.589 2.465,-0.7830004 0.71,-0.181 1.421,-0.331 1.561,-0.081 0.07,0.125 -0.001,0.3480004 -0.11,0.6010004 -0.258,0.593 -0.675,1.314 -1.139,2.087 -9.624,16.037 5.623,-6.2650004 10.073,-6.9890004 0.404,-0.222 0.783,-0.401 1.121,-0.522 1.724,-0.616 3.603,-0.783 3.793,-2.535 0.026,-0.246 0.024,-0.551 0.01,-0.847 -0.139,-2.859 -4.56,-1.383 -7.67,-0.055 -1.202,0.513 -2.646,1.163 -4.25,1.916 -1.471,0.69 -15.142,7.0170004 -21.55,12.3450004 z m 14.76,25.893 0.502,-0.009 c 0.226,-0.004 0.286,-0.148 0.605,-1.439 1.834,-7.426 2.169,-11.526 -2.343,-16.288 -0.742,-0.784 -1.608,-1.442 -2.166,-0.739 -0.378,0.477 -0.764,3.843 -0.592,4.578 0.302,1.285 1.196,1.703 2.228,2.576 2.332,1.971 2.916,3.45 2.62,6.076 -0.228,2.016 -0.854,5.245 -0.854,5.245 z M 43.843119,8.8178016 l -4.655,4.8490004 c -0.773,0.806 -0.883,0.951 -1.099,1.447 -0.303,0.695 -0.408,1.857 -0.259,2.015 0.482,0.51 2.186,-0.728 2.779,-1.187 5.196,-4.019 7.563,-6.5500004 8.403,-11.7540004 0.427,-2.645 -0.908,-3.668 -3.271,-4.006 -3.749,-0.535 -7.469,0.013 -8.925,2.973 0.227,11.3010004 0.547,4.838 3.726,4.036 3.537,-0.893 7.339,-2.875 3.301,1.627 z m -16.233,1.178 c 0.154,2.2410004 1.151,3.6340004 2.964,4.0370004 2.34,0.518 3.662,-0.812 4.262,-3.503 0.131,-0.5900004 0.102,-1.0820004 -0.261,-1.3200004 -0.689,-0.451 -2.581,0.017 -3.496,-0.492 -1.138,-0.634 -1.428,-3.33 -1.146,-4.59 0.282,-1.261 1,-2.612 1.196,-3.584 0.039,-0.197 0.057,-0.379 -0.024,-0.48 -0.011,-0.012 -0.021,-0.024 -0.031,-0.036 -2.753,-0.658 -3.423,10.5730004 -3.464,9.968 z m -7.891,38.6710004 -4.655,4.849 c -0.773,0.806 -0.883,0.95 -1.1,1.446 -0.303,0.695 -0.408,1.857 -0.259,2.015 0.482,0.51 2.187,-0.728 2.78,-1.187 5.196,-4.018 7.563,-6.549 8.403,-11.753 0.427,-2.645 -0.909,-3.668 -3.272,-4.006 -3.748,-0.535 -7.468,0.012 -8.924,2.972 0.227,11.301 0.547,4.839 3.726,4.036 3.536,-0.892 7.339,-2.874 3.301,1.628 z m 119.574001,-3.423 -4.654,4.849 c -0.774,0.806 -0.883,0.951 -1.1,1.447 -0.303,0.695 -0.408,1.857 -0.259,2.015 0.482,0.51 2.187,-0.728 2.78,-1.187 5.196,-4.019 7.562,-6.55 8.402,-11.753 0.427,-2.645 -0.908,-3.669 -3.271,-4.006 -3.749,-0.536 -7.468,0.012 -8.925,2.972 0.228,11.301 0.548,4.838 3.727,4.036 3.536,-0.892 7.339,-2.875 3.3,1.627 z M 53.124119,8.0159816e-4 52.731119,0.0078016 c -0.353,0.006 -0.439,0.098 -0.869,0.92 -1.794,3.43 0.426,5.169 1.892,9.1900004 1.832,5.023 0.797,7.381 -0.028,11.502 -0.829,4.144 0.788,6.526 4.951,7.285 2.114,0.385 3.38,-1.308 3.886,-3.902 0.306,-1.571 -0.476,-4.333 -2.127,-4.878 -0.456,-0.15 -0.949,-0.022 -1.541,0.221 -2.865,1.177 -4.077,2.617 -3.279,-0.922 1.701,-7.539 1.322,-8.686 -1.683,-18.1200004 -0.376,-1.179 -0.457,-1.31 -0.809,-1.30300000184 z M 41.387119,52.993802 l -3.879,4.069 4.99,5.233 4.989,-5.233 -3.879,-4.069 3.879,-4.069 -4.989,-5.233 -4.99,5.233 3.879,4.069 z m 90.520001,16.671 -4.99,5.233 4.99,5.233 4.99,-5.233 -4.99,-5.233 z m -18.433,-47.686 0.011,-0.698 c 0,0 2.911,0.053 2.911,0.053 0,0 -0.007,0.417 -0.018,1.044 -0.026,1.588 0.386,1.971 -1.276,1.142 -0.341,-0.17 -0.624,-0.372 -0.925,-0.617 -0.638,-0.518 -0.709,-0.61 -0.703,-0.924 z m -3.864,12.526 0.09,1.793 c 0.158,-0.24 0.399,-0.455 0.789,-0.766 4.546,-3.614 8.283,-11.645 7.611,-16.644 -0.356,-2.645 -3.227,-3.345 -5.8,-1.336 -1.811,1.414 -2.46,6.606 -1.174,8.048 1.315,1.473 2.768,1.095 2.248,2.396 -0.347,0.868 -1.495,2.115 -2.247,3.347 -0.519,0.851 -0.85,1.696 -1.254,2.57 -0.09,0.195 -0.184,0.39 -0.263,0.592 z m -9.034,17.273 0.091,8.578 c -0.034,0.64 -0.003,1.005 0.114,1.897 0.352,2.691 2.028,5.359 3.308,6.089 3.756,2.14 11.464,-4.966 13.244,-8.576 1.168,-2.366 2.275,-5.607 2.275,-5.607 0,0 0.596,1.328 1.037,2.491 2.273,5.993 1.219,8.498 5.691,10.49 2.084,0.928 5.389,1.273 7.439,0.219 1.788,-0.921 2.374,-2.017 3.459,-1.737 1.007,0.261 2.38,1.61 3.601,2.302 3.888,2.202 16.402,-0.309 18.727,-0.748 4.217,-0.794 9.683,-2.709 10.714,-8.036 0.194,-1.003 0.27,-2.23 0.27,-2.23 l -0.887,-0.017 c -0.399,-0.007 -0.56,0.038 -1.615,0.445 -5.7,2.202 -10.579,4.519 -14.213,2.155 -1.54,-1.002 -4.752,-4.253 -3.604,-6.157 0.467,-0.774 3.584,-1.492 4.6,-1.512 2.004,-0.039 7.009,2.53 7.904,-0.117 0.532,-1.574 -2.43,-4.518 -3.656,-5.257 -1.64,-0.99 -3.038,-1.32 -4.471,-1.173 -5.031,0.519 -6.513,2.765 -7.922,7.016 -0.379,1.145 -0.594,2.128 -0.691,3.767 -0.122,2.073 -0.054,5.197 -0.054,5.197 0,0 -0.936,0.058 -1.663,-0.031 -0.518,-0.063 -3.462,-1.656 -4.334,-2.566 -1.105,-1.153 -1.186,-0.421 -3.606,1.221 -4.025,2.73 -9.397,0.658 -10.926,-2.053 -0.645,-1.144 -1.54,-3.185 -2.178,-5.261 -3.331,-10.841 -2.7,-9.773 -5.112,-13.636 -1.296,-2.075 -2.763,-4.099 -3.593,-4.419 -1.337,-0.516 -1.907,1.632 -2.303,3.439 -0.276,1.264 -0.405,2.244 -0.053,3.209 0.658,1.8 2.992,3.547 4.273,5.6 0.767,1.227 1.955,4.276 1.781,5.484 -0.24,1.669 -3.957,5.457 -5.098,6.449 -1.959,1.704 -5.208,3.552 -7.385,2.432 -3.745,-1.977 -5.176,-10.499 -5.164,-9.347 z m 1.55,3.45 c 0.147,-0.155 0.292,-0.312 0.431,-0.474 0.788,-0.922 4.861,-8.802 4.643,-10.56 -0.062,-0.508 -0.297,-0.945 -0.434,-1.526 -0.078,-0.333 -0.124,-0.714 -0.147,-1.12 l -0.704,-7.008 c -0.33,-2.713 -0.927,-8.22 -1.082,-13.677 -0.173,-6.066 0.2,-12.0690004 0.2,-12.0690004 0,0 1.194,-0.015 2.205,0.04 0.514,0.029 1.474,0.209 2.581,0.492 3.487,0.8920004 9.592,4.3870004 11.592,7.5390004 1.376,2.169 2.872,4.952 3.026,5.227 0.002,0.003 0.233,0.394 0.514,0.914 1.885,3.49 1.246,11.482 -1.273,17.35 -0.657,1.531 -1.935,4.51 -1.935,4.51 -0.509,1.186 -0.581,1.336 -0.72,1.495 -0.193,0.224 -0.332,0.32 -0.547,0.338 l 1.056,2.507 c 0.023,-0.065 0.047,-0.128 0.073,-0.189 0.121,-0.277 0.287,-0.567 0.458,-0.89 1.254,-2.359 2.386,-5.318 3.377,-7.501 3.714,-8.184 5.621,-9.336 4.382,-19.005 -0.768,-5.992 -3.648,-11.331 -8.673,-15.1810004 -3.35,-2.568 -9.088,-4.327 -13.395,-5.673 -4.437,-1.387 -4.472,-1.1 -6.049,2.61 -0.734,1.725 -1.011,4.02 -1.012,6.506 -0.003,12.2090004 2.289,39.3400004 2.289,39.3400004 0,0 -0.599,-0.011 -1.172,-0.022 -3.390001,-0.062 -8.447001,1.28 -12.187001,-4.55 -0.731,-1.139 -1.367,-2.386 -2.121,-3.66 -0.768,-1.297 -1.603,-2.425 -2.875,-3.199 -1.325,-0.807 -1.788,-0.882 -1.666,-1.847 0.025,-0.202 0.091,-0.267 0.521,-0.307 4.697,-0.435 11.924,-5.501 13.149,-8.113 0.308,-0.657 0.58,-1.384 0.773,-1.913 0.324,-0.891 0.482,-1.358 0.026,-1.541 -1.338,-0.539 -7.236,-0.133 -7.236,-0.133 0,0 1.367,-2.658 2.027,-4.298 0.401,-0.997 0.54,-1.618 0.262,-1.923 -0.854,-0.934 -2.673,0.624 -3.849,1.932 -0.464,0.516 -0.915,1.041 -1.144,1.688 -0.117,0.328 -0.177,0.687 -0.33,0.896 -0.145,0.197 -0.374,0.259 -0.545,0.408 -0.791,0.688 -0.635,5.604 0.225,6.206 0.536,0.375 1.829,0.817 1.829,0.817 0,0 -5.36,1.968 -7.315,3.268 -0.843,0.561 -1.053,0.997 -1.938,1.134 -1.411,0.217 -4.54,-0.33 -4.54,-0.33 0,0 1.112,-2.021 2.106,-3.713 0.949,-1.615 10.266,-15.735 12.48,-17.293 0.108,-0.076 0.218,-0.15 0.329,-0.22 2.832,-1.794 6.883,-2.252 5.379,-7.3460004 -0.393,-1.333 -1.097,-3.11 -1.097,-3.11 0,0 -2.645,1.853 -4.834,3.56 -1.24,0.967 -14.276,19.7340004 -15.53,22.3580004 -0.857,1.792 -1.81,3.757 -1.81,3.757 0,0 -1.738,-8.862 -2.329,-17.312 -0.341,-4.8940004 -0.298,-9.6500004 -0.298,-9.6500004 0,0 -0.892,-0.199 -1.534,-0.028 -0.606,0.162 -1.592,2.371 -1.974,3.818 -0.233,0.879 -0.52,1.5510004 -0.728,2.2990004 -0.577,2.076 1.644,16.735 2.519,25.952 0.808,8.506 10e-4,12.175 1.564,18.539 0.982,4.001 4.732,6.642 9.409,5.953 1.71,-0.251 5.762,-2.208 6.631,-3.732 1.118,-1.96 0.944,-4.467 2.314,-3.812 0.627,0.3 0.932,1.432 2.076,2.206 1.208,0.817 4.68,1.304 6.71,1.527 4.433001,0.486 6.474001,-2.899 5.867001,-2.261 z m -30.257001,-13.319 2.456,0.045 c 1.104,0.02 1.305,0.039 2.012,0.186 1.073,0.224 4.182,2.067 4.221,2.096 1.759,1.279 6.228,6.595 3.996,8.263 -1.106,0.826 -3.748,1.611 -4.39,1.605 -1.757,-0.016 -5.53,-1.668 -6.313,-2.524 -0.682,-0.747 -1.107,-2.584 -1.453,-5.305 -0.245,-1.92 -0.529,-4.366 -0.529,-4.366 z m 0.455,-41.90800040184 c 0,0 -0.662,2.96400000184 -0.486,4.21300000184 0.063,0.449 0.235,0.676 0.475,0.96 1.139,1.347 3.859,4.226 4.258,6.7960004 0.099,0.643 0.113,0.86 0.097,1.894 -0.054,3.526 1.09,3.871 1.39,0.196 0.281,-3.432 -0.332,-6.4440004 -1.13,-8.7490004 -1.508,-4.351 -4.604,-5.31000000184 -4.604,-5.31000000184 z M 61.353119,72.941802 l -0.329,2.767 c 0,0 0.877,-0.077 1.721,-0.206 1.266,-0.194 9.648,-4.722 10.191,-5.506 0.519,-0.749 1.691,-3.729 1.15,-4.517 -0.75,-1.093 -7.99,3.249 -11.511,5.486 -0.961,0.61 -1.083,0.808 -1.222,1.976 z m -22.452,-16.386 -0.141,8.505 c -0.022,1.31 10e-4,1.599 0.23,2.891 0.592,3.33 1.578,7.065 5.296,7.715 1.589,0.278 5.897,-0.921 6.764,-1.255 3.498,-1.35 9.032,-4.438 10.923,-6.74 0.918,-1.117 4.279,-10.044 4.24,-11.264 -0.087,-2.773 -1.578,-6.612 -4.14,-8.429 -1.868,-1.324 -5.014,-3.118 -5.165,-3.824 -0.171,-0.803 0.189,-1.818 0.093,-2.783 -0.217,-2.169 -4.959,-6.045 -6.488,-6.73 -1.839,-0.823 -3.175,3.994 -3.469,5.444 -0.422,2.083 0.214,4.766 1.789,6.332 0.624,0.621 1.402,1.069 1.952,1.742 0.219,0.267 0.401,0.57 0.602,0.866 0.679,1.006 1.563,1.949 2.514,2.626 1.947,1.386 4.577,2.264 5.842,4.152 1.332,1.988 2.308,5.386 2.308,5.386 0,0 -3.73,3.051 -6.642,4.729 -0.37,0.213 -0.767,0.422 -1.184,0.62 -10.57,5.025 -15.316,-10.452 -15.324,-9.983 z m -27.024,10.247 c 0.129,-0.015 0.255,-0.03 0.38,-0.046 7.952,-0.991 22.852,-11.288 24.598,-18.139 0.415,-1.631 0.307,-3.322 0.231,-6.686 -0.037,-1.623 -0.067,-3.635 -0.067,-3.635 0,0 1.19,-0.16 2.144,-0.332 4.637,-0.832 6.704,-3.897 7.806,-8.959 0.726,-3.333 -0.131,-6.353 -1.283,-10.352 -0.213,-0.738 -0.476,-1.227 -1.191,-0.894 -1.359,0.633 -2.196,6.336 -2.033,7.203 0.412,2.194 1.95,3.833 1.162,5.142 -0.969,1.609 -5.508,1.308 -7.153,0.435 -1.38,-0.731 -2.664,-2.064 -3.941,-2.786 -1.546,-0.875 -1.973,2.236 -2.244,4.139 -0.153,1.072 -0.28,2.113 -0.049,2.913 0.186,0.642 0.603,1.13 1.008,1.902 1.566,2.986 2.951,10.226 2.951,10.226 0,0 -2.622,2.826 -4.656,4.791 -1.769,1.709 -5.621,4.301 -7.571,5.095 -2.748,1.12 -7.258,2.98 -10.892,4.572 -11.14999996,4.884 -18.328,3.434 0.8,5.411 z"
     style="fill:#000000;stroke:none" />
</svg>
