<?xml version="1.0" encoding="UTF-8" standalone="yes"?>
<svg>
  <path
    style="stroke:none; fill:#000000"
    d="m 105.16599,81.39112 c 0.031,-0.172 0.07,-0.404 0.006,-0.522 -0.119,-0.218 -0.597,-0.037 -1.076,0.197 -1.35,0.66 -2.712,1.749 -4.073,2.521 -0.616,0.35 -1.313,0.703 -2.044,0.977 -2.116,0.791 -5.385,1.101 -4.008,-1.929 0.745,-1.64 3.032,-3.321 3.582,-4.644 0.296,-0.71 -0.13,-2.607 -1.082,-3.106 -1.316,-0.689 -4.195,0.795 -4.922,1.611 -0.966,1.083 -2.299,3.931 -1.522,4.292 0.413,0.192 1.502,-0.56 2.499,-0.803 0.425,-0.103 0.832,-0.114 0.973,0.068 0.155,0.2 -0.013,0.633 -0.248,1.088 -1.472,2.844 -3.799,4.715 -3.226,6.656 1.716,5.808 10.737,-2.519 13.968,-5.212 1.012,-0.844 1.13,-0.963 1.173,-1.194 z m -8.918,-74.328 c 0.242,-0.232 0.59,-0.408 1.038,-0.517 1.452,-0.353 3.954,0 3.954,0 0,0 0.856,-3.395 0.539,-5.032 -0.353,-1.825 -3.623,-1.958 -5.387,-0.625 -2.256,1.706 -3.449,9.118 -2.694,11.411 0.209,0.635 0.53,1.211 0.955,1.671 0.155,0.168 0.324,0.32 0.499,0.478 l 1.239,1.113 0.663,1.803 c 0.276,0.75 0.453,1.396 0.453,1.396 0,0 5.04,-3.184 6.697,-5.211 0.733,-0.898 0.803,-1.569 1.077,-2.694 0.495,-2.036 1.24,-3.949 0.808,-4.31 -0.359,-0.299 -1.398,-0.159 -2.218,0.3 -1.212,0.679 -1.944,2.054 -3.881,2.394 -0.539,0.095 -1.172,0.109 -1.722,0.094 -4.23,-0.652 -0.904,-3.339 -2.02,-2.271 z m -88.964,50.177 4.748,-0.166 1.395,-3.468 6.283,-0.22 c 0,0 -6.792,8.803 -7.858,12.243 -0.54,1.743 -0.536,2.494 0.708,2.308 0.408,-0.062 0.562,-0.2 1.543,-1.387 4.536,-5.491 7.556,-9.372 8.364,-15.198 0.463,-3.336 -0.554,-4.291 -4.042,-4.76 -3.227,-0.434 -4.868,0.468 -8.288,2.569 -1.954,1.201 -2.902,1.902 -2.948,5.346 -0.017,1.219 0.095,2.733 0.095,2.733 z m 39.786,-12.661 0.116,6.72 c 0.243,-0.346 0.482,-0.651 0.672,-0.874 6.745,-7.873 23.052,-17.44 33.86,-21.039 14.201,-3.368 13.796,-12.684 8.651,-9.436 -3.144,1.319 -6.734,2.896 -10.449,4.615 -6.824,3.157 -24.981,11.578 -32.85,20.014 z m 4.549,-23.743 -0.174,-3.979 c -0.07,-1.608 -0.047,-1.897 0.232,-2.882 0.208,-0.731 0.426,-1.531 0.981,-2.046 1.352,-1.255 4.698,-0.821 6.25,-1.855 2.233,-1.489 2.235,-6.604 0.516,-8.677 -1.823,-2.198 -5.508,1.293 -7.018,3.291 -0.928,1.227 -1.806,2.632 -2.201,4.274 -0.183,0.76 -0.284,1.623 -0.427,2.379 l -0.702,3.701 -2.315,-2.946 c -3.169,-4.174 -2.203,-5.414 -6.86,-6.549 -1.56,-0.381 -4.944,-0.238 -5.594,1.518 -0.509,1.375 0.685,4.718 1.434,5.512 0.575,0.611 2.906,2.125 3.869,2.218 1.573,0.153 4.787,-0.805 4.787,-0.805 0,0 2.594,3.734 4.178,5.487 0.692,0.765 1.264,1.381 2.15,1.398 0.366,0.007 0.894,-0.039 0.894,-0.039 z m -7.609,4.586 c -2.65,2.368 -4.622,4.77 -5.432,7.09 -1.112,3.184 -0.906,6.751 1.311,9.819 0.095,0.132 0.181,0.251 0.26,0.358 -1,-1.359 2.713,4.355 2.499,-1.45 -0.051,-1.387 -0.207,-3.129 -0.663,-3.567 -0.264,-0.253 -0.629,-0.069 -0.858,-0.207 -1.029,-0.617 0.721,-3.165 1.555,-4.138 1.712,-1.998 4.04,-4.105 6.737,-6.196 3.254,-2.523 15.606,-10.278 20.75,-12.125 0.94,-0.337 1.874,-0.627 2.099,-0.323 0.114,0.152 0.048,0.456 -0.068,0.803 -0.27,0.817 -0.743,1.824 -1.272,2.907 -10.981,22.462 6.854,-9.05 12.875,-10.659 0.524,-0.35 1.021,-0.642 1.468,-0.85 2.286,-1.062 4.847,-1.56 4.861,-3.886 0.002,-0.327 -0.044,-0.727 -0.105,-1.113 -0.431,-2.699 -3.625,-2.089 -6.908,-0.712 -1.486,0.624 -31.044,17.044 -39.109,24.249 z m -36.151,-13.972 4.747,-0.166 1.395,-3.468 6.283,-0.22 c 0,0 -6.791,8.803 -7.858,12.244 -0.54,1.742 -0.536,2.493 0.708,2.307 0.408,-0.061 0.563,-0.2 1.543,-1.387 4.537,-5.491 7.557,-9.372 8.365,-15.198 0.462,-3.336 -0.554,-4.291 -4.042,-4.76 -3.228,-0.434 -4.868,0.468 -8.289,2.569 -1.954,1.201 -2.901,1.903 -2.948,5.347 -0.016,1.218 0.096,2.732 0.096,2.732 z m 106.176,3.6 0.58,10.228 2.731,49.976 c 0,0 1.853,-1.857 2.964,-3.548 1.575,-2.397 1.657,-4.458 2.131,-6.759 0.372,-1.805 0.396,-2.208 0.243,-4.03 l -2.989,-35.656 -0.284,-6.053 c 0.297,0.163 0.581,0.311 0.847,0.442 l 4.6,2.277 -0.878,-2.42 c -0.1,-0.275 -0.206,-0.565 -0.312,-0.858 -1.276,-3.515 -1.984,-6.991 -2.834,-10.595 -0.813,-3.45 -1.897,-8.046 -1.897,-8.046 0,0 -0.768,-0.041 -1.475,0.061 -1.944,0.278 -6.095,6.47 -6.364,7.876 -0.025,0.134 -0.041,0.266 -0.047,0.398 -0.011,0.291 0.011,0.597 0.06,0.913 0.355,2.267 1.497,4.202 2.924,5.794 z m -23.799,20.812 4.747,-0.166 1.395,-3.468 6.283,-0.22 c 0,0 -6.791,8.803 -7.858,12.243 -0.54,1.743 -0.536,2.494 0.708,2.308 0.408,-0.062 0.562,-0.2 1.543,-1.387 4.537,-5.491 7.557,-9.372 8.365,-15.198 0.462,-3.336 -0.554,-4.291 -4.042,-4.76 -3.228,-0.434 -4.868,0.468 -8.289,2.569 -1.954,1.201 -2.901,1.902 -2.948,5.346 -0.016,1.219 0.096,2.733 0.096,2.733 z m -18.83,36.96 -5.134,0.18 c -1.537,0.054 -1.806,0.045 -2.691,-0.083 -1.553,-0.225 -5.167,-2.036 -5.38,-2.861 -0.196,-0.765 -0.073,-2.095 -0.073,-2.095 0,0 5.044,-1.078 9.033,-1.832 3.701,-0.699 18.654,-1.221 23.008,-0.803 5.336,0.512 12.561,1.271 12.561,1.271 0,0 0.985,-3.457 2.718,-6.364 1.319,-2.212 3.07,-4.105 3.07,-4.105 0,0 -7.089,-1.944 -11.023,-3.312 -2.843,-0.988 -9.1,-4.367 -13.35,-7.24 -6.615,-4.472 -7.583,-4.642 -16.61,-3.97 -0.992,0.074 -1.954,0.317 -2.885,0.959 -1.844,1.271 -4.718,7.022 -4.795,9.571 -0.032,1.083 0.08,2.277 0.08,2.277 0,0 1.92,0.034 3.188,-0.111 2.212,-0.254 2.438,-1.055 4.286,-1.29 2.346,-0.298 7.306,0.315 7.306,0.315 l 0.06,1.708 -5.579,0.195 c -1.537,0.053 -1.865,0.076 -3.288,0.231 -1.668,0.181 -7.551,2.409 -8.67,3.321 -1.121,0.912 -2.912,3.67 -3.448,5.018 -1.552,3.91 -1.24,7.631 -3.753,7.487 -5.438,-0.313 -9.059,-9.12 -10.191,-12.753 -1.543,-4.953 -2.538,-10.182 -3.952,-15.25 -2.018,-7.23 -4.387,-13.972 -9.529,-19.9 -1.752,-2.02 -4.014,-4.343 -4.014,-4.343 0,0 -0.646,1.517 -1.169,2.814 -1.599,3.957 -3.309,10.749 -0.632,14.555 1.451,2.064 4.395,3.041 6.156,4.915 1.581,1.682 6.667,16.393 6.603,17.722 -0.277,5.777 -9.868,17.13 -16.337,18.524 -4.077,0.879 -6.336,-0.734 -9.076,-3.673 -0.956,-1.025 -1.88,-2.029 -2.3965,-3.336 -1.5267,-3.862 -1.5365,-11.55 -2.6628,-12.203 -1.5931,-0.924 -2.0091,-0.164 -2.2689,1.547 -0.865,5.695 -1.3348,19.276 3.1516,24.967 2.4156,3.064 7.4316,5.704 11.3936,4.732 1.923,-0.472 7.044,-3.545 8.093,-4.27 1.73,-1.196 6.732,-7.235 7.294,-8.806 0.653,-1.825 1.051,-3.945 2.106,-4.975 0.806,-0.788 2.881,-1.304 3.729,-0.928 1.376,0.609 2.099,4.801 3.617,7.282 3.281,5.363 14.648,7.504 19.482,7.869 1.165,0.088 2.225,0.127 3.757,-0.131 2.284,-0.384 5.613,-1.427 5.613,-1.427 0,0 0.381,-2.738 0.849,-4.498 0.566,-2.131 1.261,-2.83 1.579,-5.13 0.11,-0.791 0.174,-1.771 0.174,-1.771 z"/>
</svg>