<?xml version="1.0" encoding="UTF-8" standalone="no"?>
<svg>
  <path
     style="fill:#000000;stroke:none"
     d="m 78.570333,23.207966 c 0.19286,2.651629 1.42934,4.299875 3.67986,4.776719 2.90247,0.612916 4.54362,-0.960787 5.28787,-4.144871 0.16329,-0.698109 0.12661,-1.28026 -0.32302,-1.56187 -0.85548,-0.533639 -3.2042,0.02012 -4.33892,-0.582152 -1.41278,-0.750171 -1.77249,-3.940172 -1.42225,-5.431047 0.34905,-1.492059 1.24121,-3.09061 1.48378,-4.240714 0.0485,-0.233097 0.071,-0.448446 -0.0296,-0.567952 -0.013,-0.0142 -0.026,-0.0284 -0.0391,-0.0426 -3.416,-0.778569 -4.24663,12.51034 -4.29869,11.794484 z m -38.38177,0.572686 c -0.51353,0.499325 -0.99865,0.985635 -1.40568,1.419882 -3.4018,3.631347 -3.86445,9.604316 -0.60464,14.211832 0.51353,0.72414 1.48733,1.613933 2.23513,1.096859 0.97735,-0.674444 1.12526,-5.110391 1.06728,-5.235814 -0.71112,-1.532289 -2.84805,-3.341455 -2.84805,-3.341455 0,0 1.31458,-1.318123 2.92733,-2.904841 9.72974,-9.570003 20.33507,-14.527757 27.3765,-17.487027 1.24595,-0.623565 2.01505,-1.00575 2.01505,-1.00575 0,0 -0.36325,1.447097 -0.48749,2.940339 -0.13016,1.584351 -0.0201,3.220765 -0.0201,3.220765 0,0 0.0473,0.0059 0.12424,0.01065 0.46738,-0.812882 3.59112,-4.56137 4.3969,-5.239363 0.67918,-0.57032 1.44473,-1.087393 2.13219,-1.4849599 1.18678,-0.6850931 2.24578,-1.2518626 3.20893,-1.9618034 1.10633,-0.8152488 2.86698,-3.9650197 2.95927,-5.2949758 0.0852,-1.231747 -0.0473,-2.72498899999992 -0.0473,-2.72498899999992 0,0 -3.22549,0.0556099999999 -3.22549,0.0556099999999 0,0 -13.09131,6.8958918 -19.12581,10.0740601 -6.13034,3.227865 -16.07425,9.180719 -20.67821,13.65098 z m -11.54246,17.821882 0.60582,-0.01065 c 0.27214,-0.0047 0.3455,-0.170386 0.73124,-1.657712 2.21383,-8.550054 2.6185,-13.271161 -2.82912,-18.755454 -0.89689,-0.902809 -1.94287,-1.660079 -2.61613,-0.850746 -0.45673,0.549021 -0.9241,4.425298 -0.71586,5.272494 0.36444,1.480227 1.44473,1.96062 2.69186,2.965186 2.8161,2.270628 3.52131,3.973303 3.16279,6.997651 -0.27451,2.320323 -1.0306,6.03923 -1.0306,6.03923 z M 5.763533,23.780652 c -0.51353,0.499325 -0.99865,0.985635 -1.40569,1.419882 -3.40179997,3.631347 -3.86443997,9.604316 -0.60463,14.211832 0.51352,0.72414 1.48733,1.613933 2.23513,1.096859 0.97735,-0.674444 1.12526,-5.110391 1.06728,-5.235814 -0.71113,-1.532289 -2.84805,-3.341455 -2.84805,-3.341455 0,0 1.31458,-1.318123 2.92733,-2.904841 9.72973,-9.570003 20.33388,-14.527757 27.3765,-17.487027 1.24594,-0.623565 2.01505,-1.00575 2.01505,-1.00575 0,0 -0.36444,1.447097 -0.4875,2.940339 -0.13015,1.584351 -0.0201,3.220765 -0.0201,3.220765 0,0 0.0473,0.0059 0.12424,0.01065 0.46738,-0.812882 3.58993,-4.56137 4.3969,-5.239363 0.67918,-0.57032 1.44473,-1.087393 2.131,-1.4849599 1.18797,-0.6850931 2.24697,-1.2518626 3.21012,-1.9618034 1.10632,-0.8152488 2.86698,-3.9650197 2.95927,-5.2949758 0.0852,-1.231747 -0.0473,-2.72498899999992 -0.0473,-2.72498899999992 0,0 -3.2255,0.0556099999999 -3.2255,0.0556099999999 0,0 -13.09131,6.8958918 -19.1258,10.0740601 -6.13034,3.227865 -16.07425,9.180719 -20.67821,13.65098 z M 0.25912303,7.2638778 0.50641303,11.988534 5.574213,11.309357 c 1.45893,-0.195233 1.70149,-0.138438 2.43155,0.573869 0.23546,0.229548 0.50524,0.57032 0.7762,0.963153 6.85921,9.949821 3.15923,0.960787 6.01201,-3.1758019 0.55021,-0.7975001 0.44017,-0.3253894 0.80579,-0.6235645 1.70859,-1.3950338 5.26421,-0.912274 6.04041,-2.1676861 C 22.686153,5.1849343 22.145413,0 22.145413,0 c 0,0 -2.3712,0.0497 -4.00288,0.420048 -2.98057,0.675627 -3.92361,2.109708 -4.97195,4.9956171 -0.79159,2.1759687 -1.68138,5.5470039 -1.68138,5.5470039 0,0 -0.74781,-0.87441 -1.29919,-1.6648107 C 8.755933,7.244946 8.654173,5.7611696 7.779763,4.7116404 7.220093,4.0407463 2.638603,1.822181 1.469573,2.659911 1.001013,2.99595 0.70401303,3.8987581 0.49222303,4.5921337 c -0.28753,0.9347555 -0.31001,1.2021665 -0.2331,2.6717441 z M 54.018213,39.445497 l -5.77656,5.737505 c -0.9596,0.953687 -1.09567,1.124073 -1.36427,1.712141 -0.37626,0.822348 -0.50642,2.197267 -0.32065,2.383035 0.59753,0.604633 2.71315,-0.861395 3.44913,-1.4045 6.44744,-4.754237 9.38423,-7.749004 10.42666,-13.906558 0.53009,-3.129656 -1.12762,-4.340105 -4.05968,-4.740038 -4.65129,-0.633031 -9.26827,0.0142 -11.07507,3.516573 0.28279,13.371736 0.67917,5.725673 4.62408,4.776719 4.38861,-1.056629 9.10736,-3.4018 4.09636,1.925123 z m -8.10753,40.358954 5.16837,5.169553 6.91956,-6.919557 -6.91956,-6.919557 -5.16837,5.169553 -5.16955,-5.169553 -6.91837,6.919557 6.91837,6.919557 5.16955,-5.169553 z m -28.63546,-42.668628 -6.91956,6.919556 6.91956,6.919557 6.91955,-6.919557 -6.91955,-6.919556 z m 11.60043,38.832581 c 2.59602,-1.974819 4.81103,-4.338922 6.11732,-7.176319 0.43188,-0.939488 0.78212,-1.949971 1.08858,-2.994767 0.0627,0.06981 0.12542,0.139622 0.18695,0.205883 0.86613,0.944221 2.02925,1.673094 3.40062,2.219748 5.67716,2.261162 6.21553,0.985635 10.7201,-3.243246 1.21164,-1.137089 2.2233,-2.180702 2.2233,-2.180702 0,0 0.77384,0.926473 1.4045,1.612749 1.92513,2.096692 5.30444,3.12729 9.20084,3.470428 8.04599,0.707574 18.29399,-1.520457 22.47081,-3.362753 6.01675,-2.653996 8.01523,-5.018099 9.53569,-12.493776 0.86494,-4.252546 -3.40062,1.572519 -13.75037,3.376952 -2.53213,0.441346 -7.50881,-0.328939 -9.88948,-2.022148 -2.10024,-1.494426 -4.6016,-4.264378 -4.6016,-4.264378 0,0 0.7336,-0.737156 1.45893,-1.339422 2.25524,-1.873061 8.41753,-3.736656 10.83369,-3.92124 3.89995,-0.298175 11.42295,0.789217 11.42295,0.789217 0,0 -4.57083,-5.529256 -7.36327,-7.414149 -3.54023,-2.388951 -9.51557,-0.675627 -13.10077,2.082494 -1.6447,1.264878 -2.72854,2.76167 -3.89639,4.466711 -0.91583,1.337055 -3.2752,10.36277 -2.95572,11.306991 0.5431,1.610383 1.58671,3.316607 1.58671,3.316607 0,0 -0.70994,0.0012 -1.31575,-0.02248 -0.14672,-0.0059 -0.29226,-0.0142 -0.43543,-0.02603 -2.45285,-0.190501 -4.26675,-1.17022 -5.61919,-3.034998 -1.3406,-1.848212 -1.9334,-3.860895 -3.1545,-3.128472 -1.10632,0.663794 -2.05883,3.625431 -3.15924,5.150621 -1.20571,1.673094 -4.03128,2.493075 -6.40721,2.541588 -2.15586,-0.293442 -3.78635,-1.260145 -5.02875,-2.972286 -1.33942,-1.848213 -1.93341,-3.860895 -3.15332,-3.128473 -1.05426,0.631848 -1.96772,3.347372 -3.00187,4.922257 -3.85616,5.871211 -7.50052,17.376986 -20.4037,13.924307 -0.3881,-0.104125 -0.79158,-0.227181 -1.20808,-0.36917 C 5.916163,70.165823 2.561693,58.996087 1.706213,55.097328 0.41530303,49.209552 0.44370303,51.789004 0.21297303,54.930492 -1.261337,75.082163 5.260653,79.366656 9.251703,80.997154 c 2.64926,1.08266 5.75762,1.284993 9.12393,0.43188 1.16666,-0.295808 2.33688,-0.720589 3.49054,-1.27671 2.39605,-1.15247 4.83588,-2.532122 7.00948,-4.183918 z" />
</svg>
