<?xml version="1.0"?>
<svg xmlns="http://www.w3.org/2000/svg" version="1.1">
  <path
     d="m 56.590885,8.43696 c 0,0 -1.001,-1.486 -1.621,-2.658 -1.473,-2.786 -1.288,-3.777 -3.534,-4.618 -3.434,-1.286 -5.3,0.482 -5.519,4.109 -0.152,2.51 0.463,4.584 2.759,4.215 1.215,-0.195 3.525,-1.146 3.525,-1.146 0,0 1.237,1.461 1.894,2.533 0.998,1.628 1.033,2.906 3.025,3.32 0.406,0.084 0.592,0.01 0.8,-0.31 0.851,-1.309 0.296,-4.068 1.242,-5.052 0.803,-0.835 2.689,-0.39 3.886,-0.774 1.632,-0.524 2.336,-5.29 1.219,-7.08 -1.586,-2.541 -5.107,0.44 -6.125,2.583 -0.83,1.746 -1.551,4.878 -1.551,4.878 z m -32.59,38.815 -4.388,4.573 c -0.729,0.76 -0.832,0.897 -1.036,1.365 -0.286,0.655 -0.385,1.752 -0.244,1.9 0.454,0.482 2.061,-0.687 2.62,-1.119 4.897,-3.791 7.128,-6.178 7.92,-11.086 0.402,-2.495 -0.857,-3.46 -3.084,-3.779 -3.533,-0.504 -7.039,0.012 -8.412,2.804 0.214,10.659 0.516,4.564 3.512,3.807 3.334,-0.842 6.918,-2.712 3.112,1.535 z m 27.703,37.704 c -2.673,1.37 -6.807,4.186 -10.486,5.916 -2.915,1.37 -3.402,1.429 -4.139,4.942 -0.303,1.44 -0.071,1.692 0.912,1.455 1.524,-0.366 10.269,-5.338 11.939,-6.787 1.406,-1.221 2.032,-2.299 2.809,-4.323 0.218,-0.565 0.379,-1.047 0.068,-1.232 -0.26,-0.155 -0.853,-0.1 -1.103,0.029 z m 16.054,-16.134 c 3.192,-1.258 7.793,-4.511 8.816,-7.247 0.629,-1.683 1.111,-3.873 1.536,-5.898 0.325,-1.548 0.316,-1.882 -0.578,-1.611 -2.847,0.862 -7.905,4.661 -11.479,6.521 -2.239,1.164 -6.792,1.699 -9.934,0.545 -0.58,-0.213 -1.23,-0.575 -1.882,-1.02 -5.315,-3.627 -6.177,-5.943 -1.236,-8.716 0.219,-0.123 0.432,-0.237 0.634,-0.337 1.514,-0.747 3.937,-1.031 5.74,-0.871 3.193,0.283 4.89,1.507 7.506,0.097 1.585,-0.854 0.651,-1.963 -0.826,-3.933 -3.214,-4.288 -7.736,-4.993 -11.833,-2.831 -8.751,6.554 -6.578,11.765 -7.052,14.693 -0.339,0.906 -0.631,1.595 -0.631,1.595 0,0 -0.205,-0.235 -0.488,-0.577 -2.91,-3.517 -5.586,-36.464 -5.959,-40.845 -0.076,-0.884 -0.121,-1.477 -0.128,-1.702 -0.285,-8.454 -0.402,-16.668 -0.402,-16.668 0,0 -0.553,-0.05 -0.922,0.024 -0.85,0.171 -2.02,3.301 -2.409,4.159 -0.22,0.485 -0.425,0.959 -0.519,1.474 -0.127,0.695 -0.134,0.902 -0.075,2.072 0.49,9.661 0.959,23.323 1.718,28.962 0.728,5.412 2.047,12.526 2.37,18.34 0.062,1.114 0.113,2.302 0.113,2.302 0,0 -2.911,0.017 -5.963,0.097 -6.726,0.174 -14.493,1.243 -18.396,8.24 -0.544,0.975 -0.938,2.134 -1.304,3.709 -1.051,4.522 -0.386,6.188 3.035,7.214 0.942,0.282 2.278,0.505 3.509,0.626 2.356,0.393 16.841,-1.227 7.644,3.199 -0.99,0.476 -2.073,0.907 -3.181,1.28 -16.2109996,5.459 -23.9099996,-5.124 -21.1129996,-21.215 0.256,-1.472 0.533,-2.751 0.533,-2.751 0,0 -0.334,0.249 -0.747,0.595 -3.14099996,2.627 -3.74699996,9.935 -3.83299996,13.603 -0.086,3.645 0.048,6.639 1.01199996,9.671 2.003,6.299 7.693,9.044 13.6029996,9.228 9.073,0.282 24.215,-6.031 20.761,-19.199 -0.056,-0.214 -0.138,-0.435 -0.251,-0.664 -0.39,-0.793 -1.196,-1.451 -1.932,-1.734 -2.229,-0.857 -13.222,-0.63 -13.222,-0.63 0,0 1.256,-1.079 2.185,-1.693 3.474,-2.298 12.573,-1.888 15.364,-1.987 0.66,-0.024 1.17,-0.074 1.744,-0.817 0.73,-0.945 1.563,-3.011 1.563,-3.011 0,0 0.264,0.803 0.604,1.755 1.475,4.129 3.818,6.814 7.175,7.715 6.514,1.749 14.048,0.244 19.13,-1.759 z m -15.227,-32.017 0,-2.577 c 0,-1.158 -0.037,-1.333 -0.372,-1.754 -0.248,-0.312 -0.497,-0.509 -0.884,-0.782 -0.651,-0.458 -1.69,-1.13 -1.69,-1.13 0,0 0.568,-1.376 1.169,-2.514 1.581,-2.995 13.069,-11.465 15.635,-13.321 1.154,-0.834 2.287,-1.635 3.389,-2.401 0.795,-0.553 1.574,-1.087 1.793,-0.915 0.154,0.12 0.034,0.587 -0.122,1.21 -0.373,1.483 -1.293,4.742 -0.981,5.189 0.21,0.301 0.834,0.321 1.197,-0.03 0.4,-0.387 0.482,-1.221 0.713,-2 0.78,-2.637 4.846,-7.703 6.644,-8.47 0.856,-0.365 1.705,-0.355 2.328,-0.849 0.99,-0.787 1.607,-3.339 1.719,-5.119 0.165,-2.626 -2.063,-0.906 -5.205,0.982 -2.069,1.243 -4.391,2.667 -6.821,4.228 -5.964,3.831 -20.973,13.909 -23.915,21.194 -0.993,2.459 -0.908,5.003 1.58,7.153 0.451,0.389 1.003,0.856 1.67,1.462 0.228,0.206 0.412,0.411 0.829,0.478 0.497,0.08 1.324,-0.034 1.324,-0.034 z"
     style="fill:#000000;stroke:none" />
</svg>
