<?xml version="1.0" encoding="UTF-8" standalone="no"?>
<svg>
  <path
     style="fill:#000000;stroke:none"
     d="m 51.850104,31.435642 -6.10093,6.06093 c -1.0137,1.00745 -1.15869,1.18869 -1.44242,1.80866 -0.39748,0.8687 -0.53498,2.32113 -0.33874,2.51862 0.63122,0.63746 2.8661,-0.90996 3.64356,-1.48368 6.81089,-5.02348 9.91323,-8.18706 11.01442,-14.69047 0.55997,-3.30608 -1.18994,-4.58601 -4.28852,-5.00724 -4.91349,-0.66996 -9.78949,0.015 -11.69939,3.71481 0.29874,14.1255 0.71747,6.04718 4.88475,5.04473 4.636,-1.11494 9.62074,-3.59356 4.32727,2.03364 z M 67.684144,20.070377 67.117894,9.2566272 c -0.0837,-1.60375 -0.1175,-1.8825 -0.33125,-2.79125 -0.655,-2.78625 -2.41875,-4.31125 -4.26375,-5.2962499 -2.34375,-1.25249997 -4.13375,-1.71749997 -6.55,0.045 -1.9875,1.4499999 -2.175,6.6999999 -1.39375,7.5199999 0.5825,0.6125 2.1275,0.5575 3.99625,0.11875 4.66875,-1.09625 5.13625,-0.84375 6.3525,4.0937498 0.5775,2.34625 0.64625,4.54375 0.3625,6.90375 -0.60375,5.01 -2.0225,7.4475 0.75625,10.38875 1.1575,1.225 2.365,1.41 5.00375,0.86625 1.875,-0.38625 2.2475,-1.25625 3.03375,-3.8525 0.5525,-1.8275 0.99,-3.465 0.84875,-5.2875 -0.28125,-3.615 -4.19,-10.41 0.52125,-12.0974998 0.86875,-0.3125 1.99875,-0.10875 2.97375,0.10375 1.31375,0.2862498 1.53625,0.1562498 2.22875,-1.2975 0.57,-1.19625 1.22875,-2.29625 1.59,-3.58375 1.36,-4.82999987 -0.72125,-6.1937499 -4.8975,-4.21499987 -4.79125,2.26999987 -6.9425,11.99499967 -5.91875,18.51499967 0.3125,2.6875 0.65625,5.1075 0.65625,5.1075 0,0 -0.28625,-0.0038 -0.6275,-0.03625 -1.34125,-0.1325 -3.645,-1.9125 -3.775,-4.39125 z m 31.36598,-1.099067 c 0.003,-1.01674 0.45614,-1.69541 1.655206,-2.47644 2.65975,-1.73246 10.77971,-5.90407 18.45854,-9.4830498 C 133.08313,0.52429003 134.30741,2.9511646e-8 135.5373,2.9511646e-8 c 1.1569,0 1.22015,0.132960000488354 0.90857,1.909860170488354 -0.67734,3.86285 -2.61569,5.49831 -8.60286,7.25856 -1.9724,0.57989 -4.73209,1.4046598 -6.13266,1.8328198 l -18.28911,8.57767 c -4.422896,1.02573 -4.375196,1.03236 -4.371116,-0.6076 z m 76.038526,54.273117 c 0.81881,-2.1338 1.96459,-11.43131 1.72166,-13.97061 -0.33598,-3.51202 -1.68837,-12.44346 -2.07606,-13.71068 -0.43115,-1.4093 -3.27003,-27.24484 -3.6583,-33.29276 -0.38865,-6.0539298 -0.26728,-6.4625298 2.95944,-9.9631098 1.46565,-1.59002997 2.44353,-2.21834997 3.45254,-2.21834997 1.98861,0 3.06696,2.78035997 2.69013,6.93610997 0.45896,4.0359058 0.90292,9.0268828 3.18329,12.4682488 -0.29101,0.731688 -1.85986,0.458221 -2.70615,0.458221 -1.16307,0 -0.60049,12.60003 0.80726,18.08004 3.24002,12.61256 3.47286,20.84334 0.75641,26.73808 -1.55501,3.37437 -5.89004,9.16735 -6.86017,9.16735 -0.29469,0 -0.41622,-0.31165 -0.27005,-0.69254 z M 49.772174,85.787177 c -1.4026,-0.12633 -2.16452,-0.44147 -2.16452,-0.89529 0,-0.82212 0.40046,-0.95843 6.11157,-2.08026 5.46506,-1.0735 5.74749,-1.22876 9.34171,-5.13542 1.63653,-1.77879 3.50693,-3.36753 4.15644,-3.53055 0.6879,-0.17266 2.18369,0.14717 3.58277,0.76605 1.32101,0.58434 2.67152,1.06244 3.00114,1.06244 0.32961,0 1.37676,-0.80214 2.327,-1.78254 1.25873,-1.29867 2.16577,-1.78253 3.34154,-1.78253 1.41139,0 1.76968,-0.30348 2.85614,-2.41916 1.67022,-3.25246 3.05048,-3.46828 4.1769,-0.65309 1.3976,3.49296 0.98674,6.14149 -1.29171,8.32673 -0.79583,0.76328 -1.6704,0.90142 -4.99033,0.78825 -3.78601,-0.12906 -4.1075,-0.0551 -5.40629,1.24368 -0.7595,0.7595 -2.09241,1.57669 -2.96204,1.81597 -1.35965,0.37413 -1.79854,0.2308 -3.13326,-1.02322 -0.85368,-0.80207 -1.81464,-1.4583 -2.13548,-1.4583 -0.32084,0 -1.91422,1.22789 -3.54084,2.72865 -4.74688,4.37962 -5.80548,4.70098 -13.27074,4.02859 z M 93.562544,5.3229512e-5 C 93.443794,0.00101563 93.309344,0.01422323 93.156294,0.03130323 c -1.36878,0.15275 -3.3486,2.24059997 -5.40625,5.65624997 -1.41038,2.3412 -1.46588,3.94407 -0.21875,6.9374998 0.49432,1.18648 1.38578,4.60181 1.09375,17.0625 l -0.375,16.09375 -4.6875,1.84375 c -8.46628,3.30975 -12.6749,4.0785 -22.71875,4.125 -8.26536,0.03828 -9.09507,-0.06752 -11.5,-1.15625 -1.4263,-0.6457 -3.6982,-2.30238 -5.0625,-3.6875 -3.36796,-3.41933 -4.84248,-3.43621 -6.53125,-0.09375 -1.87007,3.70137 -2.55243,7.62686 -1.8125,10.625 0.33687,1.365 2.33331,5.80842 4.4375,9.84375 l 3.84375,7.3125 -1.3125,1.125 c -1.24856,1.07396 -7.7146,2.83924 -13.1875,3.59375 -3.25838,0.44922 -9.82015,-0.63671 -13.3125,-2.1875 -3.22349,-1.43141 -6.5658902,-4.69111 -7.9062502,-7.6875 -0.62608,-1.39957 -0.866,-3.41696 -0.875,-7.9375 -0.009,-4.24303 -0.16842,-6.13947 -0.59375,-6.28125 -0.81279,-0.27093 -3.49263,3.4137 -5.4375,7.5 -1.40023002,2.94197 -1.59075002,3.83747 -1.593750019428,7.9375 C -0.00295622,74.921853 0.14390378,75.541083 1.7812938,78.750053 c 0.97403,1.90892 2.63349,4.188 3.6875,5.09375 2.72385,2.34069 7.7870702,4.78352 11.0625002,5.3125 3.90357,0.63039 5.38892,0.64858 9,0.0625 10.98974,-1.78363 19.11326,-7.565 22.9375,-16.3125 1.72097,-3.93654 1.88076,-5.78851 0.625,-8.25 -0.61245,-1.20051 -1.1589,-2.27184 -1.1875,-2.375 -0.0286,-0.10315 3.86307,-0.2454 8.625,-0.3125 12.39816,-0.17469 15.78377,-0.84842 25.1875,-5.09375 7.6508,-3.45398 7.15025,-3.53606 7.15625,0.84375 0.004,2.85278 0.26597,4.33194 1.1875,6.28125 1.59554,3.375 3.32628,4.89782 8.15625,7.1875 3.693596,1.75099 4.479396,1.9297 9.437496,2.125 4.97237,0.19587 5.73221,0.10982 9.71875,-1.28125 2.38096,-0.83081 6.66974,-2.597673 7.5392,-2.961003 0.88473,0.01641 0.47848,0.260563 4.49205,1.492253 2.49189,0.76472 5.09421,1.62473 5.78125,1.90625 0.68705,0.28152 3.99753,0.65292 7.375,0.8125 10.28905,0.48616 12.5841,-0.73665 18.34375,-9.78125 6.29797,-10.377937 4.39265,-13.600158 1.375,-25.46875 -1.40775,-5.48001 -1.97557,-18.09375 -0.8125,-18.09375 0.84629,0 2.39649,0.294188 2.6875,-0.4375 -2.28037,-3.441366 -2.72854,-8.432844 -3.1875,-12.4687498 0.37683,-4.15575 -0.69889,-6.93749997 -2.6875,-6.93749997 -1.00901,0 -1.97185,0.62872 -3.4375,2.21874997 -3.22672,3.50058 -3.35741,3.91482 -2.96875,9.9687498 0.23588,3.674268 1.3755,14.647658 2.33038,23.011237 0.53809,7.410604 2.3364,15.306982 2.89462,22.13561 0.2051,2.743954 0.0228,5.087295 -1.13125,6.040653 -2.20659,1.54555 -10.95573,0.84362 -19.125,-1.53125 -2.01564,-0.58597 -2.83239,-1.09724 -3.1875,-2.03125 -0.62119,-1.63385 -1.60527,-1.58152 -5.3125,0.3125 -5.72767,2.92626 -7.8637,3.53097 -12.59375,3.53125 -4.65278,2.7e-4 -10.21476,-1.04675 -12.84375,-2.40625 -3.026166,-1.56489 -8.195326,-6.734092 -7.937496,-9.75 0,-0.89217 3.08395,-3.61856 6.187496,-5.4375 3.07632,-1.80299 6.38079,-4.45296 12.625,-10.1875 4.2643,-3.91624 7.21501,-5.93153 12.03125,-8.21875 3.58323,-1.70167 4.00684,-1.77846 5.875,-1.21875 1.88923,0.56603 2,0.69357 2,2.5625 0,1.52293 -0.56133,2.80593 -2.375,5.46875 -3.33125,4.89091 -5.15814,7.15776 -7.9375,9.84375 -2.70664,2.61571 -3.13895,4.0625 -1.1875,4.0625 1.74276,0 5.27677,-3.67683 10.84375,-11.28125 5.27787,-7.2095 8.13875,-13.42828 7.5625,-16.5 -0.35572,-1.89614 -2.9693,-4.29415 -4.65625,-4.28125 -1.17101,0.0089 -4.83821,1.24233 -7.03125,2.375 -2.48743,1.28472 -11.52178,7.70301 -14.125,10.03125 -5.40565,4.83462 -8.03396,6.86731 -11.40625,8.84375 -1.96079,1.1492 -4.347706,2.68533 -5.312496,3.40625 -0.96478,0.72091 -1.95346,1.3125 -2.1875,1.3125 -0.23404,0 -1.10225,-6.84135 -0.9375,-15.875 0.16475,-9.03365 0.10143,-18.6988698 -0.125,-21.4999998 -0.35402,-4.37940157 -0.41872,-5.00673707 -1.25,-4.999999970488 z M 104.22201,89.044177 l -3.71182,-3.73676 4.0202,-3.62416 4.0202,-3.62416 2.71711,2.75128 2.7171,2.75128 3.09883,-2.74901 3.09883,-2.749 3.66235,3.62365 3.66236,3.62366 -3.34281,3.735 c -1.83854,2.05424 -3.59454,3.734986 -3.90223,3.734986 -0.30769,0 -1.85108,-1.278166 -3.42975,-2.840366 l -2.87032,-2.84037 -2.42661,2.84037 c -1.33463,1.5622 -2.69098,2.840366 -3.01411,2.840366 -0.32312,0 -2.25782,-1.681536 -4.29933,-3.736766 z" />
</svg>
