<?xml version="1.0" encoding="UTF-8" standalone="no"?>
<svg>
  <path
     style="fill:#000000;stroke:none"
     d="m 92.51002,7.6109016 c -0.055,0.0412 -0.105,0.0838 -0.1525,0.12875 0.3575,-0.34125 0.29875,-0.3325 0.1525,-0.12875 z m 0,0 c 0.2525,-0.19125 0.58125,-0.33875 0.98501,-0.4375 1.59125,-0.38625 4.33375,0 4.33375,0 0,0 0.9375,-3.72 0.59,-5.51375 -0.3875,-2.00126002 -3.97125,-2.14626002 -5.90376,-0.68500002 -2.4725,1.86875002 -3.77875,9.99125042 -2.9525,12.50501042 0.22875,0.695 0.58125,1.32625 1.0475,1.83125 0.17,0.18375 0.355,0.35 0.54625,0.52375 l 1.3575,1.22 0.7275,1.975 c 0.30251,0.8225 0.49626,1.53 0.49626,1.53 0,0 5.5225,-3.48875 7.33875,-5.71 0.80375,-0.985 0.88,-1.72 1.18,-2.95251 0.54375,-2.2312504 1.36,-4.3275004 0.88625,-4.7237504 -0.39375,-0.3275 -1.5325,-0.17375 -2.43125,0.32875 -1.3275,0.745 -2.13,2.25125 -4.2525,2.6237504 -0.59125,0.10375 -1.285,0.12 -1.8875,0.1025 C 91.29127,9.7234016 92.15627,8.1009016 92.51002,7.6109016 z M 16.05621,45.127182 c -0.98875,6.10501 -4.41875,15.33001 1.21,18.13252 4.05626,2.01875 6.96876,0.26375 7.85251,-4.11876 0.32125,-1.59375 0.14,-2.65375 -1.08125,-3.3025 -2.04,-1.08625 -6.58376,-0.795 -7.68251,-1.9975 -0.405,-0.4425 -0.38375,-1.085 -0.23875,-1.87875 1.13625,-6.24751 2.65001,-7.06626 1.99875,-11.90126 -0.31125,-2.31001 -2.485,-12.92001 -5.535,-11.20626 -1.61,0.905 -2.3325,4.175 -1.6075,5.30625 0.4225,0.6575 1.4,1.34875 2.05625,2.09375 1.305,1.4775 3.3875,6.64876 3.0275,8.87251 z m 60.5663,17.44751 c 0,0 0.59375,-1.36875 0.9525,-2.45375 0.60625,-1.83 0.50875,-3.1525 0.27,-5.04625 -0.6675,-5.28126 -1.6925,-17.24502 -1.6925,-17.24502 0,0 1.84,-0.2075 3.245,-0.17 3.80126,0.0987 4.90876,1.88876 6.90751,-0.10875 1.30125,-1.3 2.46625,-5.9075 1.63375,-7.62875 -0.9525,-1.9675 -4.1775,-2.91625 -5.66,-1.31 -0.68375,0.74125 -1.07375,1.91 -1.85626,2.68 -1.2125,1.19125 -3.365,1.4275 -4.43125,2.42125 -1.82625,1.7025 -2.07125,13.59751 -1.735,16.41501 0.56625,4.75251 2.36625,12.44626 2.36625,12.44626 z m -19.43001,-9.4425 0.6025,-0.01 c 0.27,-0.005 0.3425,-0.17 0.725,-1.6475 2.20125,-8.49626 2.6025,-13.18876 -2.81126,-18.63752 -0.89125,-0.8975 -1.93,-1.65125 -2.59875,-0.84625 -0.455,0.54625 -0.91875,4.3975 -0.71125,5.23875 0.36125,1.47126 1.435,1.94876 2.67375,2.94751 2.79876,2.25625 3.50001,3.94875 3.14376,6.95375 -0.27375,2.30625 -1.02375,6.00126 -1.02375,6.00126 z m -13.56501,-35.66503 -0.15001,-3.45125 c -0.0613,-1.39501 -0.0413,-1.64501 0.20126,-2.49876 0.18,-0.635 0.37,-1.3275 0.85,-1.7750004 1.1725,-1.08875 4.075,-0.7125 5.42,-1.60875 1.9375,-1.29125 1.93875,-5.7275 0.44875,-7.52501002 -1.58125,-1.90624998 -4.7775,1.12126002 -6.08625,2.85376002 -0.80501,1.06375 -1.56626,2.28375 -1.90876,3.70625 -0.15875,0.66 -0.2475,1.40875 -0.37125,2.06375 l -0.6075,3.2100004 -2.00875,-2.5550004 c -2.74875,-3.62 -1.91,-4.695 -5.94875,-5.68 -1.35375,-0.33 -4.28751,-0.20625 -4.85251,1.3175 -0.44125,1.1925 0.595,4.09125 1.245,4.7800004 0.49875,0.52875 2.52001,1.8425 3.35501,1.92375 1.36375,0.13125 4.15125,-0.69875 4.15125,-0.69875 0,0 2.25,3.23751 3.62375,4.75876 0.6,0.66375 1.095,1.1975 1.865,1.2125 0.3175,0.006 0.77376,-0.0337 0.77376,-0.0337 z m -8.14626,19.53126 c -0.045,-1.2025 -0.18,-2.71375 -0.575,-3.0925 -0.23,-0.22125 -0.54625,-0.0612 -0.745,-0.18 -0.89125,-0.535 0.62625,-2.745 1.35,-3.58875 6.565,-7.66376 23.58002,-17.18002 32.56877,-19.14752 0.85751,-0.1875 1.71376,-0.34 1.87501,-0.05 0.0812,0.145 -0.01,0.3975 -0.1475,0.68375 -0.325,0.67125 -0.845,1.48501 -1.42251,2.35626 -11.9725,18.07876 6.91251,-7.0100104 12.27126,-7.7150104 0.49001,-0.2425 0.95126,-0.4375 1.35876,-0.56625 2.085,-0.65625 4.34375,-0.795 4.6175,-2.795 0.0387,-0.28 0.0437,-0.62875 0.035,-0.96875 -0.0913,-3.27376 -5.435,-1.70751002 -9.20126,-0.275 -3.485,1.325 -8.66,3.51 -14.15001,6.05 C 56.2125,10.995902 34.94373,20.860912 31.95123,29.429672 c -0.96501,2.76125 -0.785,5.855 1.1375,8.51625 0.0825,0.11376 0.15625,0.21751 0.225,0.31001 -0.8675,-1.17876 2.3525,3.7775 2.1675,-1.25751 z m 69.0388,61.9213 c 0.205,2.818758 1.52001,4.572508 3.91251,5.078758 3.08625,0.6525 4.8325,-1.02125 5.6225,-4.407508 0.17375,-0.7425 0.135,-1.3625 -0.3425,-1.66125 -0.91,-0.5675 -3.4075,0.0225 -4.615,-0.61875 -1.50125,-0.7975 -1.8825,-4.19 -1.51125,-5.775 0.37125,-1.58625 1.32,-3.28625 1.5775,-4.51001 0.0525,-0.2475 0.0762,-0.475 -0.0312,-0.6025 -0.0138,-0.0163 -0.0275,-0.0312 -0.0412,-0.045 -3.63251,-0.82875 -4.51626,13.30251 -4.57126,12.54126 z m -42.08878,0.265 4.95125,4.952508 7.24751,-7.247508 -7.24751,-7.24625 -4.95125,4.95125 -4.9525,-4.95125 -7.24626,7.24625 7.24626,7.247508 4.9525,-4.952508 z m 48.64879,-84.55256 0.56375,9.9425 2.655,48.58754 c 0,0 1.80125,-1.80625 2.88125,-3.45 1.53126,-2.33 1.61126,-4.33375 2.07251,-6.57125 0.36125,-1.75376 0.385,-2.14626 0.23625,-3.91751 l -2.90751,-34.66503 -0.275,-5.88375 c 0.28875,0.1575 0.56375,0.30125 0.8225,0.42875 l 4.47251,2.21375 -0.85375,-2.3525 c -0.0975,-0.2675 -0.2,-0.55 -0.30375,-0.83375 -1.24,-3.4175 -1.92875,-6.79751 -2.75376,-10.3000104 -0.79125,-3.355 -1.845,-7.82251002 -1.845,-7.82251002 0,0 -0.74625,-0.04 -1.43375,0.0587 -1.89,0.27 -5.92625,6.29001002 -6.1875,7.65751002 -0.025,0.13 -0.04,0.25875 -0.045,0.3875 -0.0112,0.2825 0.01,0.58 0.0588,0.88625 0.345,2.2050004 1.45375,4.0850004 2.8425,5.6337604 z m -16.06376,57.04754 -0.085,3.99626 c 0,0 -0.675,-0.1475 -1.3025,-0.27375 -2.14001,-0.43126 -3.93126,-1.15126 -4.20626,-1.90251 -0.095,-0.2625 -0.145,-0.57125 -0.145,-0.57125 0,0 2.59125,-1.15875 4.59626,-1.27375 0.5975,-0.0338 1.1425,0.025 1.1425,0.025 z M 0.0162,106.60473 0,107.36598 c 0,0 5.055,0.44125 8.54126,1.32375 7.075,1.79125 7.565,4.45876 13.46126,3.1425 6.29625,-1.40625 18.55376,-11.55125 22.17877,-16.332508 1.73375,-2.28625 3.6025,-6.17375 4.07125,-8.46501 0.18,-0.87875 0.27875,-1.76 0.5425,-2.6975 0.6425,-2.27875 2.265,-4.89625 2.34125,-6.8325 0.0462,-1.175 -0.475,-2.09875 -0.16875,-2.95501 0.31125,-0.8675 3.1975,-2.6125 5.01375,-3.1275 0.95001,-0.27 1.66001,-0.3475 2.10126,0.045 1.16875,1.035 0.4625,5.35001 1.635,8.03251 2.01,4.59375 10.56626,7.665 15.47501,4.9575 2.485,-1.36875 2.72625,-2.13 4.735,-1.6725 2.01876,0.45875 4.48626,1.84 7.13001,2.84625 2.84375,1.08125 7.83001,2.42751 8.95501,2.065 1.275,-0.41125 6.9875,-11.83125 8,-15.74751 0.11625,-0.45 0.2,-0.88625 0.16625,-1.33125 -0.0925,-1.22375 -1.075,-2.51 -1.06,-3.9075 0.0312,-2.75 1.45875,-3.26875 0.0912,-4.28251 -5.03875,-3.7375 -13.94501,2.39251 -18.39251,5.32251 -1.315,0.86625 -2.56125,1.69875 -3.52125,2.73 -1.23876,1.33 -2.00251,2.99 -3.27626,3.695 -1.38,0.76375 -6.88,-0.04 -9.3,-1.625 -1.90126,-1.245 -3.69376,-3.7275 -4.16751,-5.51625 -1.04125,-3.93 -0.13875,-9.28251 -2.61625,-8.62376 -1.0675,0.28375 -2.55625,1.72125 -3.9975,2.82 -2.35251,1.79501 -4.91501,2.89251 -7.12126,2.08501 -2.59125,-0.94876 -5.19125,-3.79876 -6.7125,-1.85626 -1.43001,1.82626 -3.68001,8.43251 -3.58251,9.31751 0.20375,1.835 2.0325,3.675 3.25501,6.10001 3.37875,6.69625 2.48375,9.3 -2.85376,13.36376 -13.70751,10.436258 -22.07876,13.308758 -39.20128,15.743758 -1.5275,0.21625 -1.69875,0.27875 -1.70625,0.62125 z" />
</svg>
