<?xml version="1.0" encoding="UTF-8" standalone="no"?>
<svg>
  <path
     d="m 153.18152,103.83398 c 0.20375,2.80124 1.51,4.54249 3.88749,5.04499 3.06625,0.64875 4.8,-1.01375 5.58625,-4.37749 0.1725,-0.73875 0.13375,-1.35375 -0.34125,-1.65 -0.90375,-0.565 -3.385,0.0213 -4.58375,-0.61625 -1.4925,-0.7925 -1.8725,-4.161248 -1.5025,-5.737488 0.36875,-1.57625 1.31125,-3.265 1.5675,-4.48 0.0512,-0.24625 0.075,-0.4725 -0.0312,-0.59875 -0.0138,-0.0163 -0.0275,-0.0312 -0.0412,-0.045 -3.60874,-0.8225 -4.48624,13.216238 -4.54124,12.459988 z M 27.556694,44.181232 l -6.10249,6.06125 c -1.01375,1.00749 -1.1575,1.18749 -1.44125,1.80874 -0.3975,0.86875 -0.535,2.32125 -0.34,2.51875 0.6325,0.6375 2.86625,-0.91125 3.64375,-1.48375 6.81124,-5.02374 9.91498,-8.18749 11.01623,-14.69248 0.55875,-3.30624 -1.19125,-4.58499 -4.28874,-5.00749 -4.915,-0.66875 -9.79124,0.0163 -11.69999,3.71624 0.2975,14.12623 0.7175,6.04749 4.885,5.045 4.63624,-1.11625 9.62123,-3.59375 4.32749,2.03374 z m 10.93874,-24.10997 -0.5675,-10.8137303 c -0.0837,-1.60375 -0.11625,-1.88375 -0.33,-2.7925 -0.65625,-2.78499 -2.42,-4.31124 -4.26375,-5.29499 -2.34499,-1.25249999 -4.13374,-1.71874999 -6.55124,0.045 -1.98625,1.45 -2.17375,6.69874 -1.3925,7.51999 0.5825,0.6125 2.1275,0.5575 3.99625,0.1175 4.66874,-1.09625 5.13624,-0.8425 6.35249,4.0937403 0.5775,2.34625 0.645,4.545 0.36125,6.90375 -0.60375,5.01124 -2.02125,7.44874 0.7575,10.38998 1.15625,1.22375 2.365,1.41 5.00374,0.86625 1.875,-0.38625 2.24625,-1.2575 3.0325,-3.85374 0.55375,-1.8275 0.99125,-3.46375 0.85,-5.28625 -0.2825,-3.61499 -4.19125,-10.40998 0.52,-12.0987303 0.87,-0.31125 1.99999,-0.1075 2.97499,0.10375 1.31375,0.2862503 1.53625,0.1575003 2.22875,-1.2975 0.56875,-1.195 1.2275,-2.295 1.59,-3.5825 1.35875,-4.83123999 -0.7225,-6.19374 -4.89875,-4.21498999 -4.78999,2.26999999 -6.94124,11.99498029 -5.91874,18.51498029 0.31375,2.68749 0.6575,5.10749 0.6575,5.10749 0,0 -0.28625,-0.004 -0.6275,-0.0375 -1.34125,-0.13125 -3.64499,-1.9125 -3.77499,-4.39 z m 42.15244,0.19625 -0.17375,-4.00374 c -0.0713,-1.61875 -0.0475,-1.90875 0.2325,-2.90125 0.20875,-0.735 0.42875,-1.53999 0.9875,-2.05749 1.36,-1.26375 4.72749,-0.8275 6.28874,-1.8675003 2.2475,-1.49875 2.25,-6.64499 0.52,-8.73123999 -1.835,-2.21125001 -5.54249,1.30124999 -7.06249,3.31124999 -0.93375,1.23499 -1.8175,2.64874 -2.215,4.29999 -0.18375,0.76625 -0.28625,1.635 -0.43,2.3950003 l -0.70499,3.72499 -2.33,-2.96499 c -3.19,-4.2000003 -2.2175,-5.4487503 -6.90374,-6.5912503 -1.57,-0.3825 -4.975,-0.23875 -5.62875,1.52875 -0.51249,1.38375 0.69,4.7475003 1.4425,5.5462503 0.57875,0.61499 2.925,2.13874 3.89375,2.23249 1.5825,0.1525 4.81624,-0.81125 4.81624,-0.81125 0,0 2.61125,3.7575 4.205,5.5225 0.69624,0.77 1.27124,1.38999 2.16374,1.40624 0.36875,0.007 0.89875,-0.0387 0.89875,-0.0387 z m 16.44873,28.62372 0.69875,-0.0125 c 0.31375,-0.005 0.39875,-0.19625 0.8425,-1.91125 2.553746,-9.85874 3.019986,-15.30248 -3.2625,-21.62622 -1.03375,-1.04125 -2.23999,-1.915 -3.01624,-0.98125 -0.52625,0.63375 -1.065,5.10249 -0.825,6.07874 0.42125,1.7075 1.66625,2.26125 3.10249,3.42 3.2475,2.61749 4.06125,4.58124 3.64875,8.06874 -0.3175,2.67624 -1.18875,6.96374 -1.18875,6.96374 z m -25.90122,-5.96124 c -0.0513,-1.395 -0.20875,-3.1475 -0.6675,-3.58875 -0.26624,-0.255 -0.63374,-0.07 -0.86374,-0.20875 -1.035,-0.62125 0.72625,-3.18375 1.56499,-4.16374 7.61874,-8.89249 27.36122,-19.93373 37.792456,-22.21748 0.99374,-0.2175 1.98749,-0.39375 2.17499,-0.0575 0.0937,0.1675 -0.0112,0.46125 -0.1725,0.79375 -0.37625,0.77875 -0.98,1.7225 -1.64875,2.73375 -13.892476,20.97622 8.01999,-8.1349903 14.23749,-8.9524903 0.57,-0.28125 1.10374,-0.5075 1.57624,-0.65625 2.42,-0.7625 5.04,-0.92375 5.35875,-3.24249 0.045,-0.32625 0.0512,-0.73125 0.04,-1.125 -0.105,-3.79875 -6.30624,-1.98124999 -10.67624,-0.32 -4.04374,1.53875 -10.04874,4.07374 -16.41873,7.02124 -8.242486,3.8124903 -32.921206,15.2599803 -36.393696,25.2024703 -1.11875,3.20374 -0.91125,6.79374 1.32,9.88123 0.095,0.1325 0.1825,0.25125 0.26125,0.35875 -1.0075,-1.36624 2.72999,4.38375 2.51499,-1.45874 z m -32.8387,21.96622 c -0.98375,6.06624 -4.39125,15.23123 1.20125,18.01497 4.02999,2.005 6.92374,0.2625 7.80123,-4.09124 0.32,-1.58375 0.14,-2.6375 -1.07374,-3.2825 -2.02625,-1.07875 -6.54,-0.78875 -7.63249,-1.98374 -0.40125,-0.44 -0.38125,-1.07875 -0.2375,-1.86625 1.12875,-6.20749 2.63374,-7.02124 1.98624,-11.82499 -0.30875,-2.29374 -2.46874,-12.83623 -5.49874,-11.13248 -1.6,0.89875 -2.3175,4.14749 -1.5975,5.27124 0.41875,0.6525 1.39125,1.34 2.04375,2.08 1.29625,1.46875 3.365,6.60499 3.0075,8.81499 z m 42.28369,15.59873 5.33375,5.33374 7.04624,-7.04749 -7.04624,-7.04749 -5.33375,5.33249 -5.33249,-5.33249 -7.04749,7.04749 7.04749,7.04749 5.33249,-5.33374 z m -27.94371,-46.16619 -7.04624,7.04749 7.04624,7.04749 7.04749,-7.04749 -7.04749,-7.04749 z m 59.302416,13.47623 -7.04749,7.04749 7.04749,7.04749 7.04749,-7.04749 -7.04749,-7.04749 z m -46.374936,25.97497 2.82625,-0.53125 c 1.675,-0.315 3.78624,-0.71625 5.38874,-1.035 2.93125,-0.58125 4.75999,-1.34125 5.61374,-2.33125 1.1575,-1.3425 4.2775,-9.30124 4.4825,-11.42998 0.24625,-2.5675 -0.51125,-5.5475 -1.755,-9.34624 -1.15375,-3.52125 -2.52375,-11.50624 -6.07999,-2.3025 -1.035,2.68 -1.3875,5.31749 -0.51875,8.02624 1.74375,5.43624 4.37999,7.57249 -2.295,8.29499 -2.56875,0.27875 -6.55749,0.28 -8.59999,-0.58125 -2.24624,-0.945 -4.47124,-3.15125 -6.46624,-3.93625 -0.91375,-0.35999 -1.45875,-0.28499 -2.08,0.415 -2.00749,2.26625 -2.23124,7.47374 -1.61749,9.58124 1.41124,4.8475 6.57749,10.18249 6.23374,12.64624 -0.12875,0.91999 -5.01375,5.44624 -7.51374,6.96124 -1.86125,1.12875 -3.61125,2.14249 -5.28375,3.05874 -13.31748,7.29624 -25.11746,8.838738 -39.6986901,12.327488 -13.594862,3.25124 -7.78786895,2.83374 -1.16125,2.64249 2.71624,-0.0788 6.6537401,-0.3925 9.3312301,0.95375 10.18624,5.11875 20.63123,-1.66625 29.80372,-6.50374 5.07124,-2.673748 11.30248,-6.576238 13.53623,-10.648738 0.19125,-0.34875 0.34875,-0.70499 0.48625,-1.06749 0.0888,-0.23125 0.185,-0.50125 0.28875,-0.795 l 1.90875,-5.41125 3.16999,-8.98748 z m 1.055,-2.869122 c -0.11,0.25375 -0.68,1.57375 -1.095,2.5325 -1.8575,4.29624 -0.85,20.25747 0.20625,24.70746 1.4575,6.135 4.625,11.88874 11.39999,10.71249 0.39125,-0.0688 0.79,-0.17 1.19624,-0.3075 1.4375,-0.485 3.28375,-1.99 4.8025,-3.49625 9.53374,-9.46498 6.24249,-17.25997 19.767466,-23.11122 1.44375,-0.62499 2.785,-1.10249 2.785,-1.10249 0,0 0.90375,4.01249 1.775,6.71374 2.22374,6.89999 7.21499,8.15249 14.69498,8.88874 6.32499,0.62375 15.85248,-0.33625 23.74872,-3.22625 8.53374,-3.12375 11.45998,-5.14874 12.18373,-14.29123 0.245,-3.09625 -0.26375,-5.37624 -3.27874,-2.36375 -5.53125,5.52624 -7.83499,6.55249 -15.66248,8.42124 -0.82625,0.19625 -1.12375,0.0412 -1.7625,-0.58125 -1.45625,-1.4175 -4.6075,-7.72124 -4.75125,-8.00999 -2.02124,-4.03749 -1.91749,-5.69499 2.62,-7.70624 3.6875,-1.63375 7.67499,0.2125 12.43374,1.305 0.43874,0.1 0.88749,0.195 1.31999,0.2725 3.79625,0.67875 3.5,-0.73375 1.46625,-3.2225 -1.9825,-2.42624 -5.35624,-5.31249 -6.02749,-5.75124 -3.10875,-2.03125 -9.64499,-2.21875 -13.49873,0.47125 -5.54375,3.8675 -9.01874,12.52623 -7.61249,17.61248 1.20125,4.34124 3.94124,7.05749 0.1075,6.44874 -5.5025,-0.87625 -10.19374,-2.99 -12.20124,-7.80124 -0.11625,-0.28 -0.23,-0.585 -0.34,-0.9075 -2.19249,-6.43499 -0.82125,-8.56749 -3.19749,-7.20374 -2.49375,1.43125 -4.42375,2.54875 -6.0075,3.55875 -5.514986,3.51749 -7.438736,6.69249 -10.963726,12.07873 -0.16375,0.24875 -0.33,0.50375 -0.5,0.765 -4.94874,7.58124 -10.90999,15.63748 -17.43623,9.79874 -1.9475,-1.7425 -3.52499,-4.665 -4.39374,-7.61624 -0.7225,-2.45625 -1.94125,-17.21248 -1.77875,-17.58873 z"
     style="fill:#000000;stroke:none" />
</svg>
