<?xml version="1.0"?>
<svg xmlns="http://www.w3.org/2000/svg" version="1.1">
  <path
     d="m 88.897826,6.821118 c -0.0238,-0.0788 -0.215,0.0113 -0.305,0 -0.085,-0.01 -0.08,-0.13125 -0.11875,-0.20125 -0.12375,-0.225 -0.73125,0.0312 -1.11125,0.21625 -12.56125,6.13 -22.32875,10.64375 -33.20875,20.4875 -1.17875,1.0675 -2.02625,1.98125 -2.3275,2.61375 -0.42375,0.89 -1.19125,3.5725 0.64125,3.9625 0.4575,0.0975 1.22875,-0.41875 1.905,-0.92125 0.5225,-0.38875 1.03875,-0.82 1.54875,-1.27375 8.0975,-7.175 20.31875,-14.31625 29.45875,-18.27125 0.3575,-0.15375 0.72,-0.315 1.07625,-0.5025 1.64125,-0.86875 2.15875,-2.62375 2.44125,-5.0525 0.045,-0.38875 0.0725,-0.805 0,-1.0575 z m -25.445,13.44625 -0.17375,-4.00375 c -0.0713,-1.61875 -0.0475,-1.90875 0.23375,-2.90125 0.2075,-0.735 0.4275,-1.54 0.98625,-2.05875 1.36,-1.2625 4.7275,-0.82625 6.28875,-1.86625 2.2475,-1.49875 2.25,-6.645 0.52,-8.73124997 -1.835,-2.21250003 -5.5425,1.30124997 -7.0625,3.31124997 -0.93375,1.235 -1.8175,2.64875 -2.215,4.3 -0.18375,0.76625 -0.285,1.635 -0.43,2.395 l -0.705,3.725 -2.33,-2.965 c -3.19,-4.2 -2.2175,-5.44875 -6.90375,-6.59125 -1.57,-0.3825 -4.975,-0.23875 -5.62875,1.52875 -0.5125,1.38375 0.69,4.7475 1.4425,5.54625 0.57875,0.615 2.925,2.13875 3.89375,2.2325 1.5825,0.1525 4.81625,-0.81125 4.81625,-0.81125 0,0 2.61125,3.7575 4.205,5.5225 0.69625,0.77 1.27125,1.39 2.16375,1.40625 0.36875,0.007 0.89875,-0.0387 0.89875,-0.0387 z m 53.055004,0 -0.175,-4.00375 c -0.07,-1.61875 -0.0475,-1.90875 0.23375,-2.90125 0.20875,-0.735 0.42875,-1.54 0.9875,-2.05875 1.36,-1.2625 4.7275,-0.82625 6.28875,-1.86625 2.2475,-1.49875 2.24875,-6.645 0.51875,-8.73124997 -1.83375,-2.21250003 -5.5425,1.30124997 -7.06125,3.31124997 -0.93375,1.235 -1.8175,2.64875 -2.215,4.3 -0.18375,0.76625 -0.28625,1.635 -0.43,2.395 l -0.70625,3.725 -2.33,-2.965 c -3.18875,-4.2 -2.21625,-5.44875 -6.9025,-6.59125 -1.57,-0.3825 -4.975004,-0.23875 -5.630004,1.52875 -0.51125,1.38375 0.69,4.7475 1.443754,5.54625 0.57875,0.615 2.92375,2.13875 3.8925,2.2325 1.58375,0.1525 4.8175,-0.81125 4.8175,-0.81125 0,0 2.61,3.7575 4.205,5.5225 0.69625,0.77 1.27125,1.39 2.16375,1.40625 0.3675,0.007 0.89875,-0.0387 0.89875,-0.0387 z m -9.45375,22.6625 c -0.0512,-1.395 -0.20875,-3.1475 -0.6675,-3.58875 -0.265,-0.255 -0.6325,-0.07 -0.8625,-0.20875 -1.035,-0.62125 0.72625,-3.185 1.565,-4.16375 7.61875,-8.8925 27.36125,-19.93375 37.79125,-22.2175 0.995,-0.2175 1.98875,-0.39375 2.17625,-0.0575 0.0937,0.1675 -0.0125,0.46125 -0.1725,0.79375 -0.3775,0.77875 -0.98,1.7225 -1.65,2.73375 -13.89125,20.97625 8.02125,-8.135 14.23875,-8.9525 0.56875,-0.28125 1.1025,-0.5075 1.57625,-0.65625 2.42,-0.7625 5.04,-0.92375 5.35875,-3.2425 0.0438,-0.32625 0.0513,-0.73125 0.04,-1.125 -0.10625,-3.8 -6.30625,-1.98124997 -10.67625,-0.32 -4.04375,1.53875 -10.05,4.07375 -16.42,7.02 -8.2425,3.81375 -32.92,15.26125 -36.39375,25.20375 -1.11875,3.20375 -0.91,6.7925 1.32,9.88125 0.0963,0.1325 0.1825,0.25125 0.2625,0.35875 -1.0075,-1.3675 2.73,4.38375 2.51375,-1.45875 z m 62.9275,64.411252 c 0.2025,2.80125 1.50875,4.5425 3.88625,5.045 3.06625,0.64875 4.8,-1.01375 5.58625,-4.37875 0.1725,-0.7375 0.13375,-1.3525 -0.34125,-1.64875 -0.9025,-0.565 -3.38375,0.0212 -4.58375,-0.61625 -1.4925,-0.7925 -1.87125,-4.16125 -1.5025,-5.7375 0.37,-1.576252 1.31125,-3.265002 1.5675,-4.480002 0.0525,-0.24625 0.0763,-0.4725 -0.0312,-0.59875 -0.0137,-0.0163 -0.0263,-0.0312 -0.04,-0.045 -3.61,-0.8225 -4.4875,13.216252 -4.54125,12.460002 z M 12.447826,6.689868 l 0,1.805 1.9375,0 c 0.87,0 1.03875,-0.0337 1.685,-0.3425 0.89875,-0.42875 2.19125,-1.73125 2.82,-2.34 0.16875,-0.1625 0.34,-0.32875 0.54625,-0.44375 0.27625,-0.15625 0.39375,-0.17375 1.175,-0.17375 l 1.73625,0 c 0,0 0.125,1.02875 0,1.9025 -0.12375,0.87375 -2.2175,3.415 -3.9525,4.79625 -2.215,1.765 -3.79375,3.43875 -2.9475,4.80375 0.2275,0.36625 0.81375,0.89 1.44,0.8175 0.1625,-0.0175 0.27875,-0.1125 1.1675,-0.94375 3.1125,-2.91125 8.3775,-9.58 7.2925,-14.28 -0.455,-1.97249997 -3.255,-2.54124997 -5.30375,-2.19624997 -1.585,0.2675 -4.84625,2.06624997 -6.335,3.23249997 -0.585,0.4575 -0.93,0.9 -1.13,1.84125 -0.1175,0.55875 -0.13125,0.71 -0.13125,1.52125 z m 71.215,19.12625 0,1.805 1.9375,0 c 0.87,0 1.03875,-0.035 1.685,-0.34375 0.89875,-0.42875 2.19125,-1.73125 2.82,-2.33875 0.16875,-0.16375 0.34125,-0.32875 0.54625,-0.445 0.27625,-0.15625 0.39375,-0.1725 1.175,-0.1725 l 1.73625,0 c 0,0 0.125,1.02875 0,1.90125 -0.12375,0.875 -2.2175,3.415 -3.9525,4.7975 -2.215,1.765 -3.79375,3.4375 -2.9475,4.8025 0.2275,0.36625 0.81375,0.89 1.44,0.81875 0.1625,-0.0188 0.27875,-0.1125 1.1675,-0.94375 3.1125,-2.91125 8.3775,-9.58 7.2925,-14.28125 -0.455,-1.97125 -3.255,-2.54125 -5.30375,-2.195 -1.585,0.26625 -4.84625,2.06625 -6.335,3.23125 -0.585,0.4575 -0.93,0.90125 -1.13,1.8425 -0.1175,0.5575 -0.13125,0.71 -0.13125,1.52125 z m 44.091254,83.693752 c -0.45375,2.8375 0.0987,3.53375 1.985,2.66375 1.285,-0.59375 17.86,-10.23625 20.28125,-13.122502 0.975,-1.1625 1.9475,-3.22 2.29,-5.07 0.21125,-1.14 -0.13,-1.1 -1.3575,-0.64375 -2.845,1.0575 -21.5975,12.473752 -22.185,13.505002 -0.54875,0.96375 -0.90125,1.9625 -1.01375,2.6675 z m -59.385004,-62.396252 7.3275,-7.3275 -7.3275,-7.32875 -7.32875,7.32875 7.32875,7.3275 z m 67.426254,0 7.3275,-7.3275 -7.3275,-7.32875 -7.32875,7.32875 7.32875,7.3275 z m -70.327504,53.515002 5.0925,5.09125 7.3275,-7.327502 -7.3275,-7.32875 -5.0925,5.0925 -5.09125,-5.0925 -7.32875,7.32875 7.32875,7.327502 5.09125,-5.09125 z m 14.64875,-23.011252 -0.005,8.0875 c -0.005,9.58 1.31125,26.895002 13.08375,26.588752 8.632504,-0.22625 11.722504,-12.796252 13.446254,-19.801252 2.18,-8.8575 2.94875,-16.37375 12.41,-21.06875 0.66625,-0.33125 1.30875,-0.5925 1.88,-0.75125 1.4775,-0.4125 1.90125,-0.0787 2.16625,1.65125 0.0425,0.28125 0.0888,0.57875 0.1375,0.88375 1.53125,9.48125 8.465,12.5225 15.96,13.14375 12.64125,1.04625 36.17375,-2.285 42.03,-16.95625 0.4325,-1.08125 0.72,-2.095 0.8025,-2.94875 0.0763,-0.7825 0.1075,-1.71875 0.1075,-1.71875 0,0 -0.77375,0.0425 -1.2575,0.185 -0.34125,0.10125 -0.53875,0.2525 -0.73125,0.40125 -6.38375,4.92625 -21.625,9.06625 -28.5625,3.8725 -2.02875,-1.51875 -3.9225,-3.6575 -5.99875,-6.3825 -0.11,-0.14375 -0.2175,-0.285 -0.3225,-0.425 -4.85375,-6.4125 10.985,-8.61 15.08625,-7.96125 0.405,0.0638 0.81625,0.1375 1.21875,0.21875 5.69625,1.15375 7.2675,3.4975 2.16,-3.2375 -4.195,-5.53 -12.545,-7.06625 -18.02125,-3.1075 -7.00375,5.0625 -10.12125,17.16875 -3.21375,23.39375 2.015,2.66 4.88375,5.92125 4.88375,5.92125 0,0 -0.53875,0.0213 -1.3425,0.04 -9.715,0.22625 -15.9925,-1.895 -20.72375,-11.85 -0.13875,-0.29 -0.22125,-0.50875 -0.23,-0.62625 -0.001,-0.0175 -0.002,-0.035 -0.004,-0.0525 -0.165,-2.4675 0.3375,-4.93375 -3.055,-4.94 -1.92375,-0.002 -4.3825,1.45375 -6.3675,2.80125 -9.14125,6.20625 -9.9125,15.28625 -12.965,26.36125 -1.78625,6.48125 -3.498754,15.837502 -12.187504,13.476252 -4.21125,-1.14375 -6.225,-5.985002 -7.3,-10.951252 l -3.085,-14.2475 z m -52.075,15.4225 c 0.5425,-0.2075 1.085,-0.4275 1.58,-0.6775 3.2875,-1.66625 6.13625,-4.715 7.43625,-8.15125 0.54,-1.42875 0.72375,-3.00375 0.94875,-4.64625 0.3875,-2.8425 0.92375,-5.455 1.08,-7.79875 0.3375,-5.05875 -2.35,-9.1775 -6.74875,-10.7625 l -6.29375,-2.26625 3.7525,-4.725 c 5.38875,-6.78375 22.07625,-26.89625 15.83625,-35.29875 -0.4425,-0.59375 -1.065,-1.00375 -1.83625,-1.215 -4.02875,-1.0975 -14.0225,12.41125 -17.49625,17.18125 -0.7275,0.99875 -1.87375,2.34875 -1.6475,3.82375 0.009,0.0575 0.025,0.105 0.0475,0.1375 0.1475,0.20625 0.57625,0.1375 0.97625,0 0.9625,-0.33375 2.52625,-1.7025 3.8625,-3 0.8675,-0.84375 10.985,-14.9225 12.7125,-8.36 0.0463,0.17375 0.0888,0.36125 0.125,0.5525 0.72625,3.79125 -9.86625,15.01625 -11.66625,17.51125 -0.91875,1.2725 -1.9175,2.63375 -3.1175,4.12875 l -6.6475,8.27625 -3.31625,-2.185 c -1.44125,-0.95 -2.985,-2.05875 -3.455,-2.725 -0.435,-0.6175 -0.53,-1.18125 -0.665,-1.82 -0.18125,-0.86 -0.1325,-0.9875 0.4875,-1.265 l 4.08625,-2.11875 -4.06125,-3.16125 c -2.39,-1.93625 -7.8775004,-3.83 -8.8475004,-5.00875 -0.78,-0.94625 -1.48375,-2.535 -2.545,-1.81625 -0.75375,0.51125 -2.4625,7.1625 -2.5875,7.875 -0.23,1.31125 0.5125,2.82 1.77625,3.8475 0.7425,0.605 1.6875,0.83875 2.2875,1.48625 0.57375,0.61875 0.83125,1.61375 1.28875,2.595 0.83375,1.79375 2.81375,4.3525 4.05125,5.495 1.0812504,1 3.3712504,2.475 4.9775004,3.8325 l 2.19875,1.85875 -1.6275,2.46875 c -4.3575,6.61125 -8.4337504,18.9775 -3.6575,26.3325 1.5,2.31 3.94375,3.55375 7.72875,2.4275 0.11,-0.0325 0.21625,-0.065 0.315,-0.0975 l 8.66125,-2.73125 z m -9.0475,-7.075 c -0.99875,0.21375 -2.43375,0.16125 -3.7325,-0.12625 -6.9137504,-1.52875 2.98,-15.115 4.43625,-17.8575 0.27375,-0.515 0.60625,-0.84125 1.20875,-0.76375 l 4.28,1.61375 c 1.2725,0.38 3.06125,0.92 4.39625,1.345 3.14375,1.00375 4.27625,1.72875 6.6375,4.25 0.5875,0.6275 0.62625,0.77375 0.38875,1.46 -0.98375,2.84375 -4.58875,5.72875 -5.83625,6.45875 -1.4225,0.83 -4.45875,2.055 -5.97,2.4225 l -5.80875,1.1975 z m 5.00875,2.9675 c -1.2625,-4.55375 -1.8725,-8.88875 -1.785,-10.455 0.2375,-4.24875 1.02125,-9.05625 1.045,-9.14 0.0325,-0.11375 0.065,-0.22 0.0962,-0.3175 l -1.0275,-0.2575 c 0.0162,0.4975 -0.0838,1.095 -0.21,1.77625 -0.0112,0.0637 -0.0238,0.12625 -0.035,0.19 0.38625,-2.13125 -0.98375,5.26375 -1.7925,10.47375 -0.51375,3.30875 -0.52375,6.42625 -0.19375,9.30625 1.26,10.992502 7.48,18.518752 9.60125,19.991252 4.91,3.40625 10.3825,2.02875 13.255,-0.56125 0.7925,-0.71375 1.425,-1.43125 1.72875,-1.95125 0.56625,-0.975 1.27875,-3.81375 1.525,-5.945 0.23875,-2.065002 0.43,-4.090002 0.72625,-6.082502 0.545,-3.6775 1.21375,-5.7075 2.73875,-9.04375 2.6775,-5.86 7.075,-12.765 10.565,-15.10625 0.37875,-0.25375 0.72125,-0.4225 1.0125,-0.4775 0.96,-0.1825 1.0875,0.3575 1.555,1.5675 0.25375,0.65625 0.56875,1.255 0.93125,1.7975 1.57,2.34125 3.67625,3.66125 5.97375,4.395 9.175,2.92875 15.18875,1.55 22.25625,-2.4075 0.6825,-0.3825 1.26875,-0.8525 1.7325,-1.46375 2.13375,-2.8075 4.24875,-11.45625 3.61375,-15.1225 -0.57125,-3.30625 -5.54875,-14.07125 -5.64375,-14.19375 -1.06125,-1.37125 -2.60125,0.8825 -3.20375,2.0925 -0.33375,0.6675 -0.6,1.625 -0.75875,2.6625 -0.9925,6.52 0.0537,6.16 2.35375,8.985 0.1375,0.16875 0.28,0.37375 0.41125,0.59125 3.09125,5.105 3.93125,8.39375 -1.855,9.58 -3.06125,0.6275 -6.945,0.895 -9.6175,0.97875 -7.89875,0.24625 -8.59625,-2.32 -12.46125,-7.0075 -3.185,-3.86375 -2.585,-4.8025 -7.42125,-1.635 -1.76875,1.15875 -3.47,2.8125 -5.04875,4.7625 -4.70625,5.8075 -8.905,14.89 -9.83,22.58625 -0.065,0.54375 -0.13,1.11 -0.19875,1.68625 -0.64875,5.4125 -1.68625,9.882502 -5.6625,11.091252 -0.74125,0.225 -1.455,0.37125 -2.14125,0.44375 -7.16625,0.7625 -9.955,-6.455002 -11.67875,-11.915002 -0.1975,-0.625 -0.3825,-1.25125 -0.55625,-1.875 z"
     style="fill:#000000;stroke:none" />
</svg>
