<?xml version="1.0" encoding="UTF-8" standalone="yes"?>
<svg>
<path
	style="stroke:none; fill:#000000"
	d="m 12.681005,16.21354 -0.1247,-3.203 c -0.0504,-1.295 -0.0337,-1.527 0.1668,-2.32 0.1487,-0.589 0.3057,-1.232 0.7039,-1.647 0.9704,-1.011 3.373,-0.661 4.487,-1.494 1.604,-1.199 1.605,-5.316 0.371,-6.985 -1.309,-1.769 -3.9548,1.041 -5.039,2.649 -0.6658,0.988 -1.2963,2.12 -1.5799,3.441 -0.1314,0.612 -0.2041,1.307 -0.3069,1.916 l -0.5034,2.979 -1.6623,-2.372 c -2.2753,-3.36 -1.5814,-4.358 -4.9248,-5.272 -1.1203,-0.306 -3.5496,-0.192 -4.0165,1.222 -0.3654,1.107 0.4924,3.798 1.0297,4.438 0.4132,0.491 2.0863,1.71 2.7775,1.785 1.1292,0.123 3.4368,-0.648 3.4368,-0.648 0,0 1.8623,3.006 2.9999,4.417 0.4964,0.616 0.9069,1.112 1.5434,1.126 0.2629,0.005 0.6415,-0.032 0.6415,-0.032 z m 51.591,0 -0.125,-3.203 c -0.05,-1.295 -0.034,-1.527 0.167,-2.32 0.149,-0.589 0.306,-1.232 0.704,-1.647 0.97,-1.011 3.373,-0.661 4.487,-1.494 1.603,-1.199 1.604,-5.316 0.37,-6.985 -1.308,-1.769 -3.954,1.041 -5.038,2.649 -0.666,0.988 -1.297,2.12 -1.58,3.441 -0.132,0.612 -0.204,1.307 -0.307,1.916 l -0.503,2.979 -1.663,-2.372 c -2.275,-3.36 -1.581,-4.358 -4.925,-5.272 -1.12,-0.306 -3.549,-0.192 -4.016,1.222 -0.365,1.107 0.492,3.798 1.03,4.438 0.413,0.491 2.086,1.71 2.777,1.785 1.129,0.123 3.437,-0.648 3.437,-0.648 0,0 1.862,3.006 3,4.417 0.496,0.616 0.907,1.112 1.543,1.126 0.263,0.005 0.642,-0.032 0.642,-0.032 z m -9.837,56.056 c 0.144,2.241 1.077,3.634 2.773,4.036 2.187,0.519 3.425,-0.811 3.985,-3.502 0.123,-0.591 0.096,-1.083 -0.243,-1.32 -0.645,-0.452 -2.415,0.017 -3.271,-0.493 -1.064,-0.634 -1.335,-3.329 -1.072,-4.589 0.264,-1.262 0.936,-2.612 1.119,-3.585 0.037,-0.196 0.054,-0.378 -0.022,-0.479 -0.01,-0.013 -0.02,-0.025 -0.03,-0.036 -2.574,-0.658 -3.2,10.573 -3.239,9.968 z m -3.599,-42.306 -4.326,4.851 4.326,4.851 4.325,-4.851 -4.325,-4.851 z m -33.482,0.599 -4.3262,4.851 4.3262,4.851 4.325,-4.851 -4.325,-4.851 z m 11.871,6.3 1.115,0.288 c 0,0 0.546,-2.169 0.811,-3.802 0.843,-5.196 -0.385,-6.824 -2.996,-10.286 -0.622,-0.824 -1.59,-1.704 -2.282,-1.8 -0.591,-0.082 -1.357,0 -1.357,0 l 0,3.921 c 0,0 1.071,0.459 1.926,0.999 0.778,0.49 3.005,3.571 3.211,4.44 0.17,0.72 0.183,1.259 0,2.88 -0.149,1.32 -0.428,3.36 -0.428,3.36 z m -1.527,5.623 -1.951,4.881 c -0.354,0.887 -0.397,1.014 -0.423,1.273 -0.02,0.192 0,0.383 0.029,0.577 0.185,1.24 0.734,2.631 1.203,3.988 2.841,8.225 -1.11,10.144 -7.36,11.9 -10.9754,3.083 -18.2529,-7.745 -13.0585,-19.54 0.4704,-1.069 1.0242,-2.104 1.6433,-3.1 0.3117,-0.501 0.6126,-0.944 0.664,-1.792 0.0212,-0.35 0,-0.768 0,-0.768 l -0.6421,0 0,-1.92 -3.109,0.183 c -0.8656,0.051 -1.0206,0.043 -1.5498,-0.075 -1.4183,-0.316 -1.9325,-1.069 -1.5481,-2.35 0.275,-0.916 1.0533,-1.678 1.4539,-2.646 0.2125,-0.513 0.6856,-2.728 0.4724,-3.032 -0.5641,-0.807 -1.9796,1.573 -2.4045,2.442 -1.3446,2.749 -1.6472,7.625 0.0502,8.838 0.5617,0.401 1.1916,0.821 2.2088,0.96 1.3981,0.19 3.5279,-0.153 3.5279,-0.153 0,0 -1.2423,2.313 -2.3586,4.571 -8.0509,16.286 2.7932,33.387 19.1861,21.8 0.381,-0.269 0.742,-0.537 1.054,-0.784 4.395,-3.474 0.676,3.745 7.352,7.576 1.283,0.736 2.727,1.237 3.634,1.07 4.547,-0.84 6.833,-12.418 7.988,-14.88 0.27,-0.577 1.561,-2.997 2.857,-4.984 1.265,-1.937 4.043,-5.157 5.662,-2.718 0.219,0.33 0.456,0.674 0.684,0.982 4.251,5.714 13.25,3.403 20.078,1.704 6.358,-1.582 7.645,-2.084 9.031,-10.056 0.14,-0.806 0.06,-1.109 -0.856,-0.768 -1.097,0.407 -2.464,1.682 -3.746,2.4 -1.806,1.011 -6.621,2.365 -7.277,2.4 -2.116,0.112 -3.499,-0.48 -4.433,-2.258 -2.25,-4.286 -2.855,-6.932 2.878,-7.333 0.052,-0.003 0.106,-0.007 0.16,-0.009 0.618,-0.034 1.41,-0.072 2.186,-0.108 0.832,-0.039 7.421,2.544 4.71,-2.909 -1.186,-2.386 -5.507,-3.804 -7.534,-3.463 -3.461,0.58 -6.189,4.28 -7.063,7.516 -0.402,1.486 -0.55,4.512 -0.28,5.709 0.751,3.33 1.936,4.67 -0.277,4.055 -1.65,-0.459 -4.669,-1.785 -5.543,-3.36 -0.17,-0.306 -0.305,-0.586 -0.419,-0.84 -1.278,-2.852 -3.632,-1.567 -5.581,0.128 -2.363,2.055 -4.319,5.33 -5.451,7.912 -2.561,5.842 -3.739,16.354 -9.417,13.8 -2.786,-1.254 -3.533,-2.79 -4.531,-6.154 -0.77,-2.59 -1.138,-5.24 0.785,-7.646 0.849,-1.063 2.719,-0.282 5.407,-0.423 7.859,-0.414 9.13,-7.156 9.261,-7.694 0.973,-4.002 -0.046,-8.496 -0.725,-12.551 -0.144,-0.855 -0.288,-1.676 -0.429,-2.425 -1.401,-7.45 -2.35,-9.92 -2.047,-17.233 0.367,-8.843 6.72,4.209 1.72,-7.931 -0.097,-0.236 -0.187,-0.485 -0.263,-0.752 -0.639,-2.251 -0.513,-7.107 -2.402,-6.431 -0.544,0.194 -1.058,1.123 -1.533,1.92 -0.972,1.63 -1.799,3.06 -1.842,3.944 -0.08,1.657 1.715,4.358 2.163,7.096 0.233,1.418 -0.186,4.756 -0.499,7.331 -0.786,6.469 0.085,9.18 1.677,15.709 0.755,3.097 2.236,9.343 1.07,11.04 -1.362,1.98 -5.742,1.825 -8.176,1.68 -1.739,-0.105 -2.024,-0.261 -3.134,-1.911 -1.059,-1.575 -2.933,-4.388 -2.933,-4.388 z m -4.243,-25.303 0.243,0.081 c 0.218,0.072 0.288,-0.016 0.694,-0.875 2.098,-4.439 3.554,-6.987 6.143,-9.171 0.673,-0.567 1.395,-1.191 2.108,-1.472 0.347,-0.137 0.692,-0.192 1.045,-0.325 1.128,-0.423 2.139,-1.308 2.367,-2.314 0.242,-1.069 0.259,-3.106 0.259,-3.106 0,0 -0.523,0.214 -1.302,0.547 -6.716,2.876 -24.4642,16.377 -29.329,22.31 -1.09,1.329 -1.9687,2.573 -2.1609,3.27 -0.2454,0.889 0.0261,3.742 0.4281,4.497 0.2959,0.556 1.8197,2.247 2.9436,2.708 0.4551,0.187 0.5211,-0.069 0.628,-0.829 0.2513,-1.783 0.3592,-2.708 -0.6088,-3.476 -0.7826,-0.621 -1.1875,-0.731 -1.0365,-1.412 0.4249,-1.92 4.3592,-5.431 5.5648,-6.432 4.4997,-3.739 13.3007,-10.269 13.3007,-10.269 0,0 -0.853,1.763 -1.208,2.829 -0.095,0.284 -0.467,2.05 -0.385,2.784 0.058,0.518 0.088,0.584 0.306,0.655 z m 32.933,9.703 c 2.298,-3.051 11.494,-9.338 11.809,-9.57 3.444,-2.531 8.876,-6.022 9.808,-6.188 0.29,-0.052 0.555,-0.06 0.729,0.168 0.585,0.767 0.232,1.54 1.056,1.272 1.029,-0.336 2.033,-2.812 3.602,-4.38 2.091,-2.092 5.628,-2.974 6.492,-4.26 0.367,-0.546 1.222,-3.353 0.963,-3.84 -0.138,-0.26 -1.331,0.092 -2.666,0.639 -4.36,1.786 -30.027,18.972 -33.183,23.081 -1.336,1.738 -2.169,3.742 -1.178,6.121 0.372,0.896 2.304,2.132 4,2.745 0.875,0.316 1.442,-0.677 1.564,-1.861 0.144,-1.388 0.255,-2.349 -0.615,-2.496 -0.414,-0.07 -1.045,0.005 -1.478,-0.113 -0.305,-0.083 -1.379,-0.686 -0.903,-1.318 z"/>
</svg>