<?xml version="1.0" encoding="UTF-8" standalone="yes"?>
<svg>
  <path
    style="stroke:none; fill:#000000"
    d="m 20.02865,41.527933 -4.9617,4.941 c -0.82506,0.821 -0.94211,0.968 -1.17281,1.474 -0.32389,0.708 -0.43526,1.892 -0.27616,2.053 0.51368,0.52 2.33085,-0.742 2.96384,-1.21 5.53902,-4.094 8.06192,-6.673 8.95857,-11.975 0.45458,-2.695 -0.96938,-3.737 -3.48774,-4.081 -3.99686,-0.546 -7.96304,0.012 -9.51542,3.028 0.24206,11.514 0.58299,4.93 3.973,4.112 3.76958,-0.909 7.8244,-2.929 3.51842,1.658 z M 0,76.364933 c 0.16592,2.283 1.22849,3.703 3.16158,4.112 2.49336,0.529 3.90368,-0.826 4.5435,-3.568 0.13978,-0.602 0.10909,-1.103 -0.27843,-1.345 -0.73414,-0.46 -2.75133,0.018 -3.72753,-0.502 -1.21372,-0.646 -1.5217,-3.392 -1.22168,-4.676 0.30002,-1.285 1.06599,-2.662 1.27509,-3.652 0.0421,-0.201 0.0614,-0.385 -0.0261,-0.488 -0.0102,-0.013 -0.0216,-0.025 -0.0329,-0.037 -2.93543,-0.671 -3.64798,10.772 -3.69344,10.156 z m 47.6226,-66.18 c 0.16592,2.283 1.22849,3.702 3.16158,4.112 2.49335,0.529 3.90367,-0.827 4.54349,-3.569 0.13978,-0.601 0.1091,-1.1020004 -0.27843,-1.3440004 -0.73414,-0.46 -2.75246,0.017 -3.72753,-0.502 -1.21372,-0.646 -1.52169,-3.392 -1.22167,-4.676 0.30002,-1.285 1.06598,-2.662 1.27509,-3.65200003 0.042,-0.201 0.0614,-0.386 -0.0261,-0.489 -0.0102,-0.013 -0.0216,-0.025 -0.033,-0.036 -2.93429,-0.671 -3.64798,10.77200043 -3.69343,10.15600043 z m 17.17959,14.872 -4.96171,4.941 c -0.82506,0.821 -0.94211,0.968 -1.17281,1.474 -0.32275,0.708 -0.43525,1.892 -0.27615,2.052 0.51367,0.52 2.33084,-0.741 2.96384,-1.209 5.53902,-4.094 8.06192,-6.673 8.95743,-11.975 0.45572,-2.695 -0.96825,-3.738 -3.4866,-4.081 -3.99687,-0.546 -7.96305,0.012 -9.51543,3.028 0.24206,11.514 0.583,4.93 3.973,4.112 3.76958,-0.909 7.8244,-2.929 3.51843,1.658 z m 5.15944,40.351 -4.14006,4.15 5.95951,5.973 5.9595,-5.973 -4.1412,-4.15 4.1412,-4.151 -5.9595,-5.973 -5.95951,5.973 4.14006,4.151 z m -48.90677,11.032 4.14119,4.15 5.9595,-5.973 -5.9595,-5.973 -4.14119,4.15 -4.1412,-4.15 -5.9595,5.973 5.9595,5.973 4.1412,-4.15 z m 27.50303,-42.807 5.9595,-5.973 -5.9595,-5.973 -5.9595,5.973 5.9595,5.973 z m 39.31293,38.88 5.9595,-5.973 -5.9595,-5.973 -5.9595,5.973 5.9595,5.973 z M 76.88597,21.231933 76.42458,9.7929326 c -0.0682,-1.697 -0.0955,-1.993 -0.2682,-2.954 -0.53413,-2.946 -1.96832,-4.56 -3.46729,-5.602 -1.90695,-1.32500003 -3.36273,-1.81700003 -5.32764,0.048 -1.61602,1.534 -1.7683,7.087 -1.13303,7.955 0.4739,0.648 1.72967,0.589 3.24909,0.125 3.79685,-1.16 4.17756,-0.892 5.16626,4.3300004 0.47049,2.482 0.52618,4.807 0.29434,7.303 -0.49094,5.301 -1.64443,7.879 0.61595,10.991 0.94098,1.295 1.924,1.491 4.0696,0.916 1.52511,-0.408 1.8274,-1.33 2.46608,-4.076 0.45003,-1.933 0.80687,-3.665 0.69096,-5.592 -0.22843,-3.825 -3.40706,-11.013 0.42389,-12.799 0.70687,-0.329 1.62625,-0.114 2.41835,0.11 1.06825,0.303 1.25008,0.166 1.81262,-1.3720004 0.46367,-1.265 0.99893,-2.429 1.29327,-3.79 1.10576,-5.11100003 -0.58754,-6.553 -3.98323,-4.46000003 C 80.84988,3.3279326 79.09976,13.614933 79.93164,20.511933 c 0.2557,2.843 0.53412,5.403 0.53412,5.403 0,0 -0.23297,-0.003 -0.51026,-0.039 -1.08985,-0.14 -2.96384,-2.023 -3.06953,-4.644 z m -28.85198,23.305 c -0.40344,-0.586 0.1966,-1.229 0.49321,-1.433 1.68989,-1.161 2.82406,-1.082 4.43781,0 0.66595,0.448 2.93088,2.454 1.97173,3.212 -0.22616,0.18 -0.70005,0.093 -1.18304,0 -1.46487,-0.28 -3.02862,-0.619 -4.73328,-1.235 -0.40912,-0.148 -0.82619,-0.311 -0.98643,-0.544 z m 38.45833,-0.197 c 0,0 -4.13324,0.802 -6.74479,0 -2.94565,-0.905 -4.33893,-4.44 -6.09246,-3.698 -1.06144,0.449 -1.47169,2.588 -3.43319,3.945 -2.19674,1.519 -6.33794,2.059 -6.33794,2.059 0,0 -2.4263,-3.444 -4.01618,-5.518 -1.69558,-2.211 -5.72426,-5.364 -8.87561,-4.695 -3.69571,0.785 -5.26855,4.993 -5.91632,8.391 -0.17047,0.892 -0.15115,4.536 0.97166,6.297 2.21379,3.475 11.04621,2.025 13.5998,2.123 0.36934,0.014 0.47276,0.049 0.59663,0.133 0.61368,0.419 0.98416,1.51 1.10235,1.993 0.67163,2.737 0.0216,4.086 -1.47851,5.524 -4.13779,3.963 -15.76018,11.434 -21.86742,13.752 -0.49549,0.187 -6.07655,1.868 -7.54256,2.831 -1.04326,0.686 -1.15917,0.802 -1.15917,1.157 l 0,0.791 c 0,0 3.67298,0.667 6.01518,0.989 3.44001,0.472 4.24802,0.03 7.2971,-1.73 4.80033,-2.772 14.4169,-8.138 17.25687,-12.107 2.36039,-3.301 3.70934,-9.38 6.04132,-13.735 0.43071,-0.806 0.90006,-1.559 1.51147,-1.92 0.27729,-0.164 0.58413,-0.247 0.88415,-0.418 2.4729,-1.412 2.75019,-4.18 4.54918,-3.199 0.75346,0.41 1.47169,1.492 2.29788,2.224 2.28993,2.029 9.59498,1.576 11.24282,0.415 10e-4,0 3.53547,-5.874 4.04232,-8.371 0.48413,-2.386 -1.00688,-8.285 -2.7911,-9.093 -1.46828,-0.665 -3.05589,1.084 -3.61843,3.291 -0.70459,2.758 0.26366,4.65 2.04673,6.713 0.19775,0.23 0.3648,0.443 0.41822,0.868 0.05,0.4 0,0.988 0,0.988 z m -51.25239,-1.63 c 0.61481,-0.07 1.54556,-0.141 1.84217,0.105 0.35684,0.296 -0.14433,1.649 1.18303,0.988 0.17161,-0.085 1.45692,-2.599 1.63421,-3.794 0.12728,-0.855 0.14092,-1.055 0.14092,-2.003 l 0,-2.109 c 0,0 -0.8512,-0.029 -1.57739,0 -4.44917,0.175 -11.86899,5.823 -13.46001,9.389 -1.5342,3.434 -2.26379,10.485 1.88308,11.366 4.27643,0.908 6.24589,-1.122 8.69378,1.009 1.71489,1.493 0.74323,2.685 -1.45578,3.685 -6.38112,2.902 -16.77729,2.573 -20.87303,-3.757 -1.23645,-1.911 -2.4013,-4.336 -2.30016,-6.373 0.10342,-2.104 0.9853,-5.436 0.9853,-5.436 l -0.78869,0 c -0.35457,0 -0.46708,0.117 -1.11826,1.17 -1.83422,2.963 -2.45358,9.891 -2.0365,12.014 2.06605,10.541 12.14288,11.209 21.02758,8.223 5.51402,-1.854 8.05964,-3.961 10.28025,-9.053 1.6092,-3.689 1.08303,-7.657 -2.91043,-8.17 -2.40016,-0.308 -5.92654,0.072 -8.21306,-0.103 -1.26372,-0.097 -1.86831,-0.481 -1.44896,-1.778 0.683,-2.111 3.97641,-3.658 6.16292,-4.774 0.30002,-0.153 0.60459,-0.31 0.93529,-0.384 0.44549,-0.099 0.58641,-0.12 1.41374,-0.215 z"/>
</svg>