<?xml version="1.0" encoding="UTF-8" standalone="yes"?>
<svg>
<path
	style="stroke:none; fill:#000000"
	d="m 52.642265,48.08749 6.68749,-6.68749 -6.68749,-6.6875 -6.6875,6.6875 6.6875,6.68749 z M 25.613515,13.37625 32.301015,6.68875 25.613515,0 l -6.6875,6.68875 6.6875,6.6875 z m 19.155,18.09625 c -1.42625,2.67625 -4.88375,5.57125 -12.86125,6.92375 -7.70875,1.3075 -18.79375,-0.14625 -23.32,-5.3425 -3.495,-4.01125 -4.54875,-11.2875 -3.615,-16.585 0.285,-1.61875 0.59,-3.025 0.89625,-4.26625 l -2.33875,2.44125 c -0.805,1.8225 -2.91249998,6.82625 -3.44749998,10.415 -0.635,4.2575 2.49999998,13.61375 6.16624998,17.3925 4.71375,4.85999 11.70125,5.80249 18.565,4.89874 13.21625,-1.74124 20.48625,-5.18749 22.84375,-18.15999 0.76625,-4.2125 1.965,-3.78875 2.1875,-3.86875 2.17125,-0.77875 6.62875,-1.16875 8.92625,-2.16125 5.56374,-2.40375 4.78874,-11.94875 2.98499,-18.42 -0.69625,-2.4975 -1.595,-5.7025 -3.18999,-4.465 -1.8725,1.45125 -2.13125,6.7025 -1.4875,8.7175 1.1,3.44875 4.83749,7.5125 0.6375,8.7175 -1.58375,0.455 -6.4825,-0.39125 -8.08,-1.48875 -2.73125,-1.87375 -6.16625,-6.37875 -6.16625,-6.37875 0,0 -1.0075,1.035 -1.70125,1.91375 -0.78625,0.99625 -1.1525,4.585 -0.6375,6.23875 0.86625,2.78375 2.34625,7.115 3.45625,10.315 0.0537,0.15625 0.44375,1.4425 0.18125,3.1625 z m -22.44813,-7.820941 c 0.19625,2.715 1.455,4.4025 3.74625,4.89 2.955,0.62875 4.62625,-0.98375 5.38375,-4.24375 0.16625,-0.715 0.12875,-1.31125 -0.32875,-1.6 -0.87125,-0.54625 -3.26125,0.0213 -4.4175,-0.59625 -1.43875,-0.7675 -1.80375,-4.03375 -1.44875,-5.56125 0.35625,-1.5275 1.265,-3.165 1.51125,-4.3425 0.05,-0.23875 0.0725,-0.45875 -0.03,-0.58125 -0.0125,-0.015 -0.0263,-0.03 -0.0387,-0.0437 -3.47875,-0.7975 -4.32375,12.81125 -4.3775,12.07875 z"/>
</svg>