<?xml version="1.0" encoding="UTF-8" standalone="yes"?>
<svg>
<path
	d="m 140.78079,16.213964 -0.14,-3.204 c -0.056,-1.294 -0.038,-1.526 0.187,-2.32 0.167,-0.588 0.343,-1.2320001 0.789,-1.6470001 1.089,-1.01 3.783,-0.661 5.032,-1.493 1.798,-1.199 1.799,-5.316 0.415,-6.985 -1.467,-1.77 -4.434,1.041 -5.65,2.649 -0.746,0.987 -1.453,2.119 -1.771,3.44 -0.147,0.613 -0.229,1.308 -0.344,1.916 l -0.565,2.9800001 -1.864,-2.3720001 c -2.551,-3.36 -1.773,-4.359 -5.522,-5.273 -1.256,-0.306 -3.98,-0.191 -4.504,1.223 -0.409,1.107 0.552,3.798 1.155,4.437 0.463,0.4910001 2.339,1.7110001 3.114,1.7860001 1.267,0.122 3.854,-0.649 3.854,-0.649 0,0 2.088,3.006 3.364,4.418 0.557,0.616 1.017,1.112 1.731,1.125 0.294,0.006 0.719,-0.031 0.719,-0.031 z m 7.952,19.021 0.512,-0.009 c 0.23,-0.004 0.292,-0.144 0.617,-1.4 1.872,-7.226 2.214,-11.217 -2.391,-15.851 -0.758,-0.763 -1.641,-1.404 -2.21,-0.72 -0.386,0.465 -0.781,3.741 -0.605,4.456 0.308,1.251 1.221,1.657 2.274,2.507 2.38,1.918 2.977,3.358 2.674,5.913 -0.232,1.962 -0.871,5.104 -0.871,5.104 z m -61.599999,17.091 0.173,-5.63 c 0.039,-1.242 0.027,-1.471 -0.117,-2.291 -0.107,-0.608 -0.378,-1.145 -0.624,-1.734 -0.888,-2.135 -1.382,-4.099 -2.441,-2.945 -0.541,0.59 -0.826,2.772 -0.518,3.969 0.774,3.006 1.948,2.657 2.034,5.458 0.103,3.37 -2.626,8.484 0.361,10.354 1.409,0.882 3.296,1.034 3.92,0.094 1.675,-2.523 1.522,-6.589 -1.723,-7.143 -0.454,-0.077 -1.065,-0.132 -1.065,-0.132 z m 69.962999,17.874 c 0.163,2.241 1.208,3.634 3.11,4.036 2.453,0.519 3.84,-0.811 4.469,-3.503 0.138,-0.59 0.107,-1.082 -0.273,-1.32 -0.723,-0.451 -2.708,0.018 -3.667,-0.492 -1.194,-0.634 -1.497,-3.33 -1.202,-4.59 0.296,-1.261 1.049,-2.612 1.254,-3.584 0.042,-0.197 0.061,-0.378 -0.025,-0.479 -0.011,-0.013 -0.022,-0.025 -0.033,-0.036 -2.887,-0.658 -3.589,10.573 -3.633,9.968 z m 1.469,-30.494 c 0,0 0.472,-1.088 0.758,-1.95 0.481,-1.455 0.404,-2.506 0.214,-4.011 -0.53,-4.198 -1.345,-13.707 -1.345,-13.707 0,0 1.462,-0.164 2.579,-0.135 3.021,0.079 3.901,1.502 5.49,-0.086 1.034,-1.033 1.96,-4.696 1.298,-6.063 -0.757,-1.565 -3.32,-2.318 -4.499,-1.041 -0.543,0.588 -0.853,1.517 -1.475,2.129 -0.963,0.948 -2.674,1.135 -3.522,1.925 -1.451,1.353 -1.646,10.807 -1.379,13.047 0.451,3.778 1.881,9.892 1.881,9.892 z M 93.633791,8.8179639 l -4.882,4.8490001 c -0.811,0.806 -0.926,0.95 -1.153,1.446 -0.318,0.695 -0.428,1.858 -0.272,2.015 0.506,0.511 2.293,-0.728 2.916,-1.187 5.449,-4.018 7.931,-6.5490001 8.812,-11.7530001 0.448,-2.645 -0.953,-3.669 -3.431,-4.006 -3.931,-0.535 -7.833,0.012 -9.36,2.972 0.239,11.3010001 0.574,4.839 3.908,4.037 3.709,-0.893 7.697,-2.875 3.462,1.627 z m -28.811,47.7310001 -4.882,4.849 c -0.811,0.806 -0.926,0.951 -1.153,1.447 -0.318,0.695 -0.428,1.857 -0.272,2.015 0.506,0.51 2.294,-0.728 2.916,-1.187 5.449,-4.019 7.931,-6.55 8.812,-11.753 0.448,-2.645 -0.953,-3.669 -3.431,-4.006 -3.931,-0.536 -7.833,0.012 -9.36,2.972 0.239,11.301 0.574,4.838 3.908,4.036 3.709,-0.892 7.697,-2.875 3.462,1.627 z m 36.948999,-0.496 c -0.531,0.432 -1.001,0.827 -1.281,1.061 -10.862999,9.094 -34.441999,10.072 -47.686999,9.806 -19.235,-0.386 -39.772,-4.161 -49.7359999,-13.891 -0.037,-0.037 -0.074,-0.074 -0.112,-0.111 -0.095,-0.094 -4.138,-5.466 -2.612,-0.772 1.122,3.454 1.867,5.435 3.08,7.044 15.3469999,20.34 79.3269999,19.209 95.7369999,2.564 0.074,-0.075 0.148,-0.151 0.222,-0.228 l 5.712999,-7.611 c 1.607,-3.856 -0.111,-9.042 -1.215,-12.524 -0.167,-0.529 -0.339,-1.058 -0.512,-1.582 -1.311,-3.982 -2.672,-8.019 -5.490999,-1.751 -0.131,0.292 -0.265,0.583 -0.401,0.864 -0.1,0.205 -0.205,0.407 -0.355,0.578 -0.202,0.23 -0.211,0.393 -0.092,1.63 l 0.458,4.754 c 0.12,1.237 0.18,1.375 0.6,1.381 1.226,0.015 1.401,0.391 1.913999,2.214 0.509,1.809 1.225,3.932 1.637,5.95 0.051,0.251 0.094,0.456 0.133,0.624 z m -14.193999,23.565 0.011,0.307 c 0,0 4.569,0.476 7.563,0.196 2.646,-0.247 4.062,-1.083 5.949999,-1.129 1.261,-0.031 2.732,0.291 4.173,0.525 3.99,0.648 6.639,-1.098 10.117,-2.842 0.188,-0.094 0.371,-0.186 0.548,-0.276 7.591,-3.84 16.829,-10.568 17.198,-20.623 0.006,-0.145 0.001,-0.271 -0.014,-0.377 -0.547,-3.839 -2.177,-3.982 0.49,-5.769 0.686,-0.46 1.511,-0.96 2.111,-1.627 1.257,-1.397 2.148,-3.67 3.439,-3.975 0.84,-0.198 1.997,-0.069 1.997,-0.069 0,0 0.332,2.52 0.156,4.454 -0.487,5.351 -3.602,6.233 0.113,9.819 1.462,1.413 5.463,3.53 7.245,2.973 1.134,-0.355 2.451,-1.604 3.704,-2.497 2.637,-1.878 5.956,-1.051 9.585,0.42 1.567,0.635 3.445,1.575 3.445,1.575 0,0 4.218,-4.718 5.574,-7.189 0.416,-0.758 0.563,-1.305 0.643,-2.058 0.132,-1.23 0.087,-3.01 0.3,-4.398 0.179,-1.166 0.54,-2.055 0.544,-3.732 0.001,-0.634 -0.048,-1.38 -0.048,-1.38 0,0 -3.315,-0.116 -5.084,0.068 -5.029,0.525 -10.941,5.237 -13.379,8.341 -0.478,0.61 -0.966,1.257 -1.193,1.899 -0.456,1.282 -0.202,1.942 -2.047,1.507 -4.161,-0.98 -6.885,-4.341 -6.045,-7.885 1.128,-4.755 2.213,-5.323 0.618,-8.973 -1.956,-4.476 -5.242,1.878 -8.361,4.669 -1.548,1.386 -5.738,3.877 -7.281,3.012 -0.784,-0.439 -1.479,-1.491 -1.978,-2.529 -1.681,-3.501 -1.326,-4.334 -5.292,-6.321 -6.108,-3.061 -8.588,3.878 -10.852,10.642 -0.888,2.654 -0.737,5.225 1.86,7.076 0.688,0.491 3.285,1.407 3.921,1.476 2.565,0.28 6.731,-1.775 8.224,-1.209 1.759,0.667 2.784,4.149 2.117,5.978 -0.148,0.405 -0.382,0.824 -0.687,1.253 -5.453,7.671 -25.971,14.998 -34.334999,17.419 -1.419,0.41 -2.682,0.72 -3.688,0.879 -1.23,0.195 -1.367,0.232 -1.362,0.37 z m 33.464999,-34.87 c -1.883,-1.328 -4.554,-2.593 -5.256,-1.746 -0.504,0.608 0.264,1.761 1.469,2.483 0.44,0.264 1.343,0.638 2.239,0.903 1.066,0.315 4.724,0.602 1.548,-1.64 z m 43.781,3.913 c 0,0 -0.596,-10e-4 -1.105,0.039 -1.4,0.111 -3.162,0.543 -3.007,1.579 0.025,0.165 0.114,0.228 0.891,0.623 0.576,0.294 1.051,0.528 1.844,0.572 0.56,0.031 1.278,-0.033 1.44,-0.048 -1.519,-1.116 -0.059,-2.643 -0.061,-2.688 -0.002,-0.075 -0.002,-0.077 -0.002,-0.077 z m -124.044999,-2.916 c 0.023,0.241 0.058,0.475 0.105,0.697 0.339,1.563 1.361,2.502 1.515,3.78 0.185,1.542 -0.89,3.577 -1.198,5.295 -0.249,1.396 0.926,4.922 2.808,5.707 1.993,0.832 3.259,-2.546 3.69,-4.368 0.174,-0.737 0.281,-1.374 -0.067,-1.905 -0.658,-1.004 -2.942,-1.631 -3.584,-2.678 -0.715,-1.166 0.472,-3.66 0.547,-5.122 0.057,-1.112 -1.848,-5.949 -2.511,-6.374 -0.306,-0.197 -0.552,-0.191 -0.743,0.005 -1.203,1.23 -0.755,3.693 -0.562,4.963 z m 65.590999,-18.102 c 5.196,-2.965 9.792,-6.781 12.824,-10.735 3.145,-4.102 3.035,0.699 2.836,2.226 -0.392,3.011 0.855,3.794 2.014,-1.731 0.117,-0.558 0.169,-1.127 0.106,-1.532 -0.422,-2.705 -1.501,-4.987 -1.166,-7.0000001 0.426,-2.557 1.779,-3.476 0.015,-6.174 -1.489,-2.277 -3.646,-3.066 -6.401,-2.541 -2.745,0.522 -3.42,1.576 -3.892,4.651 -0.533,3.466 1.271,4.952 5.169,7.5690001 2.302,1.546 -1.736,4.702 -3.851,6.414 -1.44,1.165 -2.984,2.4 -4.518,3.326 -7.649,4.605 -15.147999,7.851 -19.511999,9.661 -2.478,1.028 -2.197,1.39 -1.172,1.477 0.166,0.014 0.35,0.018 0.549,0.016 1.065,-0.015 2.294,-0.192 3.577,-0.465 6.142,-1.308 10.467999,-3.476 13.421999,-5.162 z m 10.87,-21.0460001 c 0.069,0.062 0.143,0.128 0.223,0.2 0.689,0.614 3.487,2.891 4.15,2.399 0.317,-0.236 0.104,-1.158 -0.25,-1.92 -0.535,-1.152 -2.075,-2.842 -3.424,-3.02 -0.095,-0.013 -0.193,-0.021 -0.29,-0.022 -1.974,-0.019 -1.212,1.639 -0.409,2.363 z m 58.918,0.079 c -0.066,0.754 0.055,1.509 0.217,2.248 0.677,3.0990001 2.075,5.9400001 2.149,8.7720001 0.066,2.531 -0.927,5.055 -1.114,7.687 -0.088,1.253 0.005,2.531 0.135,3.865 0.798,8.187 4.722,25.688 3.493,34.047 -0.177,1.201 -1.111,4.929 -0.733,5.389 0.563,0.687 1.931,-0.55 2.483,-1.469 0.964,-1.608 1.618,-3.304 2.06,-5.037 2.505,-9.816 -0.217,-17.635 -1.025,-26.543 -0.459,-5.068 -1.604,-17.7 -1.604,-17.7 0,0 0.576,0.059 1.032,0.163 1.646,0.376 1.854,1.297 2.221,0.645 0.592,-1.052 -3.54,-18.743000104905 -3.54,-18.743000104905 0,0 -4.687,4.581000004905 -4.687,4.581000004905 -0.889,0.869 -0.998,1.079 -1.087,2.095 z m -7.908,-6.64 c -1.331,0.432 -3.432,1.129 -5.289,1.813 -5.423,1.995 -25.973,12.5370001 -28.956,18.4650001 -1.428,2.838 -1.134,5.215 -0.122,8.493 0.302,0.979 0.892,2.201 1.7,1.514 0.505,-0.43 0.55,-3.05 0.294,-4.217 -0.223,-1.016 -0.712,-1.747 -0.625,-2.419 0.207,-1.598 8.509,-7.359 9.253,-7.916 2.98,-2.229 13.546,-8.2530001 14.776,-8.4240001 3.993,-0.556 4.857,0.493 9.46,-3.053 3.849,-2.965 0.427,-4.555 -0.491,-4.256 z m -72.709999,15.8730001 -5.431,5.432 5.431,5.431 5.431999,-5.431 -5.431999,-5.432 z m 41.816999,47.575 -5.431,5.431 5.431,5.432 5.432,-5.432 -5.432,-5.431 z"
	style="stroke:none; fill:#000000"/>
</svg>