<?xml version="1.0" encoding="UTF-8" standalone="yes"?>
<svg>
  <path style="stroke:none; fill:#000000"
    d="m 10.566249,88.72244 c 3.15858,4.46976 10.01572,4.56851 15.2617,4.11103 2.01364,-0.17499 3.90479,-0.37498 5.91093,-1.26493 2.9261,-1.29868 6.09718,-4.069787 8.40956,-5.170977 0.48248,-0.22999 0.9287,-0.38748 1.29868,-0.27499 0.9537,0.28624 1.40743,2.356127 2.42738,3.181087 1.17743,0.9537 6.957133,-0.35248 8.869533,-1.406177 0.65496,-0.36123 3.26608,-2.34863 4.06103,-3.47982 0.62497,-0.8912 0.83371,-0.9137 2.07864,-0.21873 1.52242,0.8487 3.34858,1.47117 4.771,2.11738 1.25619,0.56997 2.10114,1.0362 3.07109,0.55247 1.48242,-0.73746 2.27488,-3.83854 1.9774,-5.67095 -0.37248,-2.30362 -1.81991,-6.78464 -3.29233,-5.40221 -0.74246,0.69746 -0.84746,2.7461 -1.65491,3.44982 -0.38748,0.33748 -0.9362,0.36498 -1.46368,0.20999 -1.12119,-0.32749 -2.14113,-1.47743 -2.98359,-1.38743 -1.24743,0.13374 -2.10239,2.99109 -3.78355,4.22603 -1.54117,1.13244 -8.222073,2.39862 -9.150773,1.76365 -0.9287,-0.63496 -1.28493,-2.27238 -2.12488,-2.95609 -1.87241,-1.52242 -4.73226,1.55117 -7.44461,3.39982 -2.51237,1.70991 -4.98349,2.52487 -7.69585,2.77985 -4.28977,0.40498 -11.64188,0.0175 -15.23919,-0.21624 -5.1709804,-0.33623 -3.15234,1.871157 -3.30358,1.657417 z m 89.830081,-55.383083 -6.10093,6.06093 c -1.0137,1.00745 -1.15869,1.18869 -1.44242,1.80866 -0.39748,0.8687 -0.53498,2.32113 -0.33874,2.51862 0.63122,0.63746 2.8661,-0.90996 3.64356,-1.48368 6.81089,-5.02348 9.91323,-8.18706 11.01442,-14.69047 0.55997,-3.30608 -1.18994,-4.58601 -4.28852,-5.00724 -4.91349,-0.66996 -9.78949,0.015 -11.69939,3.71481 0.29874,14.1255 0.71747,6.04718 4.88475,5.04473 4.636,-1.11494 9.62074,-3.59356 4.32727,2.03364 z m -41.968856,26.430605 0.69875,-0.0125 c 0.31375,-0.005 0.3975,-0.19625 0.84125,-1.91 2.55375,-9.86 3.02,-15.30375 -3.26125,-21.62625 -1.034996,-1.04125 -2.239996,-1.915 -3.016246,-0.9825 -0.5275,0.63375 -1.065,5.10375 -0.825,6.08 0.42,1.70625 1.665,2.26 3.102496,3.42 3.2475,2.6175 4.06125,4.58125 3.6475,8.0675 -0.31625,2.67625 -1.1875,6.96375 -1.1875,6.96375 z M 82.5974,47.658625 c 0.20374,2.79985 1.50992,4.54226 3.88729,5.04473 3.06609,0.64872 4.79975,-1.01495 5.58596,-4.37852 0.17249,-0.73746 0.13374,-1.35243 -0.34123,-1.64991 -0.9037,-0.56372 -3.38482,0.0225 -4.58351,-0.61497 -1.49242,-0.79246 -1.8724,-4.16228 -1.50242,-5.7372 0.36873,-1.57616 1.31118,-3.26483 1.56742,-4.47976 0.0512,-0.24624 0.075,-0.47248 -0.0312,-0.59872 -0.0138,-0.0163 -0.0275,-0.0312 -0.0412,-0.045 -3.60856,-0.8237 -4.48601,13.21556 -4.54101,12.45935 z m -2.65889,41.771155 -3.58155,-3.584787 3.5827,-3.459463 3.58271,-3.459463 2.73367,2.711083 2.73366,2.711206 2.82185,-2.711942 2.82185,-2.711942 3.47248,3.46069 3.47247,3.460813 -3.44945,3.582945 -3.44945,3.58295 -2.85556,-2.72287 -2.85556,-2.722745 -2.72414,2.724095 -2.72414,2.72409 -3.58154,-3.58466 z M 8.8813458,82.863821 c -1.492977,-0.456979 -3.784725,-2.182606 -5.151066,-3.878629 -0.905623,-1.124137 -2.298676,-4.159803 -2.78752203,-6.074425 -0.652275,-2.554711 -1.029367,-6.110374 -0.925736,-8.728947 0.171171,-4.325526 1.25256903,-8.888975 2.46681103,-10.409834 l 0.329809,-0.413088 -0.09991,0.419083 c -0.513836,2.155437 -0.548798,8.848316 -0.05953,11.395251 0.319226,1.661792 1.427692,4.553546 2.402569,6.267818 0.711683,1.251458 0.897109,1.454564 1.77268,1.941689 0.741066,0.412299 1.177914,0.54404 1.804029,0.544048 2.1268942,2.6e-5 4.5947402,-1.269944 5.6946322,-2.93048 0.282722,-0.426834 0.700576,-1.409733 0.928552,-2.184226 1.861115,-6.322519 3.792535,-9.932045 7.634931,-14.26851 1.310503,-1.479012 1.580827,-1.695897 3.021764,-2.424405 1.2514,-0.632678 1.821829,-0.82342 2.726383,-0.911643 1.129267,-0.110143 1.153239,-0.104148 1.876116,0.469707 0.402718,0.319702 1.010025,0.994541 1.349552,1.499643 0.59675,0.887739 1.681277,3.460843 2.21599,5.257538 0.142891,0.480128 0.602007,1.569812 1.020268,2.421512 1.668881,3.39834 4.205683,4.827787 8.148648,4.591611 1.961955,-0.11752 2.600858,-0.319447 5.671347,-1.792438 1.881635,-0.902672 2.687113,-1.202777 3.383135,-1.260498 0.983068,-0.08149 1.355361,0.15411 1.355361,0.857839 0,0.686245 0.681937,1.753983 1.379061,2.159261 0.714346,0.415293 2.965858,0.918182 4.110795,0.918182 0.363838,0 1.757018,-0.1854 3.09597,-0.412003 2.607633,-0.441309 4.028423,-0.957493 5.19595,-1.887733 1.005025,-0.800771 1.737255,-1.210595 1.989785,-1.113689 0.12707,0.04876 0.52643,0.488515 0.88746,0.977225 0.79879,1.081289 2.08696,1.732919 3.72877,1.886232 1.34953,0.126025 3.17613,-0.314512 4.22824,-1.019768 0.93806,-0.628803 2.25355,-2.339327 4.09225,-5.321152 0.79596,-1.290805 1.49119,-2.350377 1.54496,-2.354608 0.0538,-0.0042 0.19141,0.308322 0.30585,0.694563 0.11444,0.386242 0.63753,1.594522 1.16242,2.685079 0.88589,1.840611 1.02045,2.028342 1.87611,2.617478 1.9731,1.358498 4.06324,1.680701 10.85072,1.672696 2.77183,-0.0034 5.25049,-0.06207 5.50814,-0.130596 l 0.46845,-0.12466 -0.0554,-1.852228 c -0.0599,-2.003124 0.0107,-1.792446 -1.61606,-4.826464 -0.7436,-1.386888 -0.67036,-2.358967 0.32571,-4.323423 1.78216,-3.514783 4.98871,-6.152833 5.84149,-4.805834 0.30586,0.483106 1.36678,4.649069 1.77712,6.978255 0.41556,2.358915 0.59653,7.480668 0.32158,9.101875 l -0.19802,1.167629 -4.32762,4.306565 -4.32761,4.306566 -0.99141,0.17943 c -2.22561,0.402803 -4.68907,0.561543 -7.10513,0.457853 -3.74266,-0.160639 -9.24743,-1.021277 -10.40597,-1.626914 -0.18389,-0.09613 -0.88273,-0.573041 -1.553,-1.059809 -1.0646,-0.773145 -1.65401,-1.875161 -2.33624,-1.875161 -0.65783,0.902469 -0.52998,1.066285 -1.58419,2.003323 -1.97561,1.756077 -3.92687,2.400143 -6.84825,2.260474 -1.39031,-0.06648 -1.499307,-0.101109 -2.82591,-0.897838 -1.394542,-0.837532 -2.100428,-1.209541 -2.708016,-1.208477 -1.736087,1.994767 -5.431389,3.001958 -7.924998,3.046162 -4.468578,-0.157321 -8.391206,-2.407285 -9.679096,-4.04735 0,0 -2.012071,0.594317 -3.942728,1.563173 -2.058802,1.033174 -3.152487,1.29903 -5.002112,1.215929 -1.353749,-0.0608 -1.680981,-0.140195 -2.774056,-0.67283 -1.836227,-0.894752 -3.092392,-2.016658 -4.287774,-3.829507 -0.890368,-1.350264 -1.119023,-1.871129 -1.758019,-4.004502 -0.900323,-3.005856 -1.474331,-4.535848 -1.909042,-5.088486 -0.430464,-0.547254 -1.112121,-0.548645 -1.935211,-0.0042 -1.062692,0.703255 -4.472878,5.081457 -5.466978,7.01883 -0.623435,1.215004 -2.24767,5.226816 -2.403171,5.935769 -0.169534,0.772933 -1.487423,4.012307 -2.107526,5.180308 -0.653174,1.230277 -1.987708,2.613798 -3.025674,3.136724 -1.357794,0.684057 -3.2843472,0.961233 -4.3704682,0.628787 z M 32.450544,41.912431 c -0.174826,-0.282874 0.102096,-1.838703 0.465434,-2.614926 2.496661,-3.353226 4.991228,-5.411595 8.717282,-7.038332 L 68.81892,20.390338 c 1.98904,-0.919809 2.5384,-1.101394 3.80041,-1.256165 0.8114,-0.09951 1.72625,-0.181135 2.033,-0.181389 l 0.55774,-5e-4 -0.0719,1.369962 c -0.055,1.049074 -0.16635,1.54104 -0.47512,2.100353 -0.44078,0.798448 -0.71499,1.002842 -2.99218,2.230312 -1.16984,0.630576 -1.88948,1.178254 -3.03964,2.313295 -1.43815,1.419246 -1.56096,1.598761 -2.69092,3.933323 -0.6545,1.352231 -1.25734,2.400881 -1.34799,2.344856 -0.22222,-0.137337 -0.19153,-2.175381 0.0577,-3.829786 l 0.20364,-1.35202 -0.50181,0.08983 -22.468598,9.278599 c -3.388274,2.112445 -6.018834,3.866589 -7.324546,4.325511 -1.022049,0.359225 -1.940484,0.427139 -2.108128,0.15589 z m 78.914936,-27.376853 0.55997,9.87823 2.63737,48.2687 c 0,0 1.7899,-1.79365 2.86234,-3.42732 1.52117,-2.31487 1.60117,-4.30477 2.05865,-6.52715 0.35873,-1.74366 0.38248,-2.13239 0.23498,-3.89355 l -2.88734,-34.43693 -0.27499,-5.84594 c 0.28749,0.15749 0.56122,0.29998 0.81871,0.42622 l 4.44226,2.19989 -0.84745,-2.33738 c -0.0962,-0.26498 -0.19874,-0.54622 -0.30124,-0.82871 -1.23243,-3.39482 -1.91615,-6.75214 -2.73735,-10.2332103 -0.78496,-3.33232 -1.83241,-7.77084 -1.83241,-7.77084 0,0 -0.74121,-0.0387 -1.42492,0.0587 -1.8774,0.26874 -5.88594,6.24842 -6.14593,7.6071 -0.025,0.12874 -0.04,0.25749 -0.045,0.38498 -0.0113,0.28123 0.01,0.57622 0.0575,0.8812 0.34373,2.1898903 1.44618,4.0585403 2.82485,5.5959603 z"/>
</svg>