<?xml version="1.0" encoding="UTF-8" standalone="yes"?>
<svg>
  <path
    style="stroke:none; fill:#000000"
    d="m 23.154352,58.255589 c 0.20374,2.79985 1.50992,4.54226 3.88729,5.04473 3.06609,0.64872 4.79975,-1.01495 5.58596,-4.37852 0.17249,-0.73746 0.13374,-1.35243 -0.34123,-1.64991 -0.9037,-0.56372 -3.38482,0.0225 -4.58351,-0.61497 -1.49242,-0.79246 -1.8724,-4.16228 -1.50242,-5.7372 0.36873,-1.57616 1.31118,-3.26483 1.56742,-4.47976 0.0512,-0.24624 0.075,-0.47248 -0.0312,-0.59872 -0.0138,-0.0163 -0.0275,-0.0312 -0.0412,-0.045 -3.60856,-0.8237 -4.48601,13.21556 -4.54101,12.45935 z m 5.17777,-47.23462 -6.10093,6.06093 c -1.0137,1.00745 -1.15869,1.18869 -1.44242,1.80866 -0.39748,0.8687 -0.53498,2.32113 -0.33874,2.51862 0.63122,0.63746 2.8661,-0.90996 3.64356,-1.48368 6.81089,-5.02348 9.91323,-8.18706 11.01442,-14.6904699 0.55997,-3.30608 -1.18994,-4.58600998 -4.28852,-5.00723998 -4.91349,-0.66996 -9.78949,0.015 -11.69939,3.71480998 0.29874,14.1254999 0.71747,6.04718 4.88475,5.04473 4.636,-1.11494 9.62074,-3.59356 4.32727,2.0336399 z m -4.34911,20.69649 -3.36828,-3.08489 3.4045,-3.36953 3.4045,-3.36954 3.05062,3.40854 3.05063,3.40854 -3.08685,3.04588 -3.08685,3.04589 -3.36827,-3.08489 z m -5.1138,11.77949 -3.33222,-3.35461 3.358,-3.33559 3.35801,-3.33559 2.52375,2.55764 2.52375,2.55764 2.30644,-2.58101 2.30643,-2.581 3.34468,3.38135 3.34467,3.38136 -3.39274,3.37009 -3.39275,3.3701 -2.22011,-2.59866 -2.22011,-2.59867 -2.58778,2.56078 -2.58778,2.56078 -3.33224,-3.35461 z m 37.8392,-23.62903 -0.14122,-9.5717 -1.74153,-2.2727699 c -2.19327,-2.86231 -2.50565,-4.09005 -1.55038,-6.09327 1.46087,-3.06349 2.8833,-2.51839998 4.9791,1.90803 1.01954,2.15332 1.31114,3.43334 1.31357,5.76609 0.002,1.6490899 0.13462,4.6871499 0.29531,6.7512299 l 0.29219,3.75287 2.00483,0.22597 c 2.39183,0.2696 4.32457,1.42453 4.32457,2.5842 0,0.46104 -0.63893,2.11688 -1.41986,3.67965 l -1.41986,2.8414 -3.39776,0 -3.39775,0 -0.14121,-9.5717 z m -55.77067036,10.7656 c -1.4354,-3.36314 -1.23662,-7.91158 0.69085996,-13.07587 0.95384,-2.55562 2.10788,-4.72789 3.00203,-5.65076 1.1646,-1.202 1.90726,-1.6524 2.20974,-1.49502 -1.66586,3.66273 -3.77489,7.1054 -3.78,11.0472 0.001,2.86346 0.20788,3.84653 1.16695,5.55496 2.55282,2.96923 5.36667,1.86219 8.4170204,1.24218 l -0.322,1.71642 c -0.5216,2.78034 -1.8064,4.37811 -3.8268404,5.38961 -3.43953,1.22528 -6.30794,-1.88539 -7.55775996,-4.72872 z M 97.226852,64.253579 c -1.15467,-0.66688 -2.16616,-1.79065 -2.88304,-3.20308 -1.6204,-3.19253 -1.4698,-4.21646 0.85614,-5.82088 1.07825,-0.74378 2.37562,-1.81443 2.88304,-2.37923 1.28283,-1.4279 2.906028,-2.08692 17.067598,-6.92941 6.85011,-2.34238 12.88513,-4.52527 13.41117,-4.85088 0.52603,-0.3256 3.10009,-0.74399 5.72012,-0.92974 l 4.76371,-0.33773 -0.26623,1.98487 c -0.14643,1.09168 -0.66684,2.52179 -1.15647,3.17802 -0.80293,1.07614 -1.22471,1.20252 -4.30068,1.28857 -2.09773,0.0587 -5.00844,0.56971 -7.56203,1.32761 -2.28337,0.6777 -5.60463,1.5888 -7.38058,2.02464 -1.77596,0.43585 -4.52012,1.34337 -6.09815,2.01672 -1.57803,0.67335 -3.10038,1.22427 -3.38301,1.22427 -0.28263,0 -2.57009,0.88221 -5.08325,1.96047 -5.079338,2.17927 -5.493458,2.79243 -3.13341,4.63944 1.29245,1.01149 1.41265,1.3068 1.1348,2.78789 -0.26177,1.39532 -1.68936,3.09459 -2.567698,3.05634 -0.13382,-0.006 -1.04374,-0.47287 -2.02203,-1.03789 z m -80.61571,15.14386 c -3.74004,-0.78095 -5.98165,-1.89349 -8.7723104,-4.35384 -7.02541996,-6.19384 -8.89908,-18.20309 -4.35954,-27.94245 0.83288,-1.7869 1.91561,-3.73443 2.40606,-4.32785 0.88902,-1.07566 0.89118,-1.05983 0.70848,5.19222 -0.16924,5.79152 -0.0889,6.57389 1.05085,10.22936 1.42364,4.56612 3.3950704,7.08057 7.1565804,9.12785 4.31324,2.34756 12.69989,2.53429 19.16289,0.42666 2.90897,-0.94863 11.76281,-5.60962 11.76281,-6.19238 0,-0.23988 -0.2788,-1.10411 -0.61955,-1.92052 -0.34075,-0.8164 -0.7709,-2.31468 -0.95589,-3.32951 -0.18499,-1.01483 -1.06916,-4.2323 -1.96482,-7.14994 -2.04326,-6.65598 -2.16068,-9.51633 -0.52073,-12.68538 1.09756,-2.12094 2.96294,-4.33058 3.27522,-3.87967 0.0721,0.10416 0.66449,0.9159 1.31634,1.80388 1.65301,2.25178 4.08229,7.17134 4.08229,8.26708 0,0.50205 -0.33059,1.09782 -0.73466,1.32394 -0.66042,0.3696 -0.61299,0.89701 0.46935,5.21968 l 1.20401,4.80855 -1.10726,2.76044 c -2.17126,5.41305 -6.19295,13.44901 -7.36204,14.71047 -3.69398,3.98588 -13.1773,7.9668 -19.91595,8.36035 -1.77595,0.10372 -4.60291,-0.0983 -6.28213,-0.44894 z m 79.24642,1.51656 c -8.2258,-0.93997 -15.08976,-6.89104 -17.14903,-14.86823 -1.77621,-6.88071 -4.46267,-24.05091 -4.69935,-30.0354 -0.57061,-14.42779 -1.0379,-20.40247 -1.72155,-22.01162 -0.40074,-0.94325 -0.72862,-2.57877 -0.72862,-3.63448 0,-2.1046699 1.96189,-8.0357499 3.05913,-9.2481899 0.72133,-0.79705998 2.47337,-1.45226998 2.48031,-0.92755998 0.002,0.16653 0.30929,2.89195998 0.68241,6.05650998 0.37312,3.16455 0.80806,10.8449699 0.96653,17.0676099 0.15847,6.22263 0.56563,13.38966 0.90479,15.92674 1.06542,7.96966 2.03258,14.12086 2.28429,14.52811 0.13336,0.21579 0.44674,1.46941 0.69639,2.78582 0.54543,2.87608 3.19301,7.40221 5.24586,8.96799 3.68881,2.8136 12.491328,5.3196 18.657588,5.31165 4.43163,-0.006 15.79466,-0.78281 20.37709,-1.39355 6.36936,-0.84891 7.66684,-1.73565 5.28313,-3.61067 -2.00839,-1.5798 -3.79763,-1.71503 -5.20997,-0.39375 -1.6449,1.53884 -2.83665,1.83678 -5.84401,1.46104 l -2.53231,-0.31639 3.6e-4,-2.59925 c 4.7e-4,-4.4349 3.17318,-9.80807 6.54254,-11.08071 2.58247,-0.97543 9.8893,1.40629 11.81158,3.85008 1.39185,1.76944 5.96104,5.21989 8.87984,6.70565 2.53072,1.28822 5.57691,2.01547 10.7065,2.55609 1.94203,0.20467 2.6524,0.46717 2.6524,0.98013 0,0.82552 -3.68454,9.32333 -4.17351,9.62552 -0.18432,0.11392 -1.46696,-0.0202 -2.85031,-0.298 -3.0268,-0.60786 -10.23811,0.21232 -21.19323,2.41043 -3.88925,0.78037 -9.25095,1.69875 -11.91488,2.04086 -5.42084,0.69616 -17.71293,0.77218 -23.213968,0.14357 z m -29.0642,5.8036 c -0.46768,-1.21875 0.80876,-4.20388 2.25468,-5.2729 2.44047,-1.80432 8.37196,-4.61046 9.74535,-4.61046 1.26332,0 1.32236,0.0847 1.04532,1.49918 -0.47369,2.4185 -1.78526,3.7201 -5.17286,5.13349 -1.75045,0.73034 -4.05035,1.92392 -5.11089,2.6524 -2.23633,1.53613 -2.38902,1.56921 -2.7616,0.59829 z m -33.2905,1.18064 c -3.04683,-1.03886 -4.74028,-1.36651 -6.36386,-1.2313 -1.8288,0.15231 -2.18793,0.0577 -2.07176,-0.5455 0.10323,-0.53598 2.46658,-1.31727 8.90095,-2.94248 6.98557,-1.76444 9.78842,-2.71848 13.83456,-4.70901 4.94082,-2.43067 12.96839,-7.76043 15.61185,-10.36522 l 1.31198,-1.29277 -0.78526,-2.71541 c -0.43189,-1.49348 -1.69808,-5.51773 -2.81376,-8.94278 -1.11568,-3.42506 -2.02573,-6.9539 -2.02233,-7.84188 0.007,-1.85899 2.59361,-7.28535 3.8283,-8.0316 0.69059,-0.4174 1.06314,-0.22958 2.20631,1.1123 1.99213,2.33842 4.08811,6.61086 4.41572,9.00103 0.2597,1.89479 0.20037,2.06985 -0.70157,2.06985 -1.16688,0 -1.22129,0.59893 -0.29335,3.22901 1.05288,2.98417 0.85317,4.6936 -0.94413,8.08146 -0.89983,1.69616 -2.12309,4.87898 -2.71835,7.07293 -1.64884,6.07706 -2.60963,7.86428 -5.63025,10.47317 -3.56737,3.0811 -6.12337,4.79054 -10.31195,6.89656 -3.01763,1.51727 -3.9606,1.76237 -7.38058,1.91835 -3.44411,0.15708 -4.42581,0.007 -8.07252,-1.23671 z"/>
</svg>