<?xml version="1.0" encoding="UTF-8" standalone="no"?>
<svg>
  <path
     style="fill:#000000;stroke:none"
     d="m 67.260404,61.769621 c 0.255,1.940004 1.063752,4.421259 2.188754,5.052511 1.021252,0.572501 2.103755,-0.796252 2.335005,-1.700004 0.300001,-1.175002 0.630002,-2.720006 0.481251,-3.352507 -0.115,-0.490001 -0.518751,-0.433751 -1.087502,-1.057502 -0.716252,-0.783752 -1.695004,-2.641256 -1.695004,-2.641256 0,0 4.860011,-3.285007 8.920019,-5.805012 4.322509,-2.682506 25.242553,-12.647527 32.988823,-13.925029 0.7325,-0.12125 1.33,-0.147501 1.4525,0.26875 0.0987,0.332501 -3.20251,7.092515 -0.64375,5.512512 0.7075,-0.436251 1.3325,-1.866254 2.0675,-3.058756 1.17126,-1.901254 2.62251,-3.198757 4.52626,-4.170009 9.27002,-4.73126 11.12253,-2.277505 13.34253,-7.858767 0.95,-2.385005 0.81125,-3.008756 -1.48875,-2.777506 -2.54376,0.255001 -6.34877,1.298753 -10.59128,2.703756 -6.52751,2.162504 -49.7851,17.993788 -52.632606,26.228805 -0.516251,1.493753 -0.568751,3.493758 -0.16375,6.580014 z M 107.85299,10.053262 c 0,0 4.90126,-1.6025032 6.84501,-1.1600022 1.02501,0.23375 2.08501,2.0775042 2.75001,3.4912572 1.2075,2.565005 2.37125,5.868762 2.81376,8.491268 0.1475,0.873752 0.30625,1.678753 1.205,1.986254 0.56625,0.1925 1.4275,0.205 1.4275,0.205 0,0 0.002,-0.01375 0.006,-0.04 0.43,-2.417505 1.385,-6.471263 1.62875,-8.916268 0.25625,-2.567506 0.19875,-3.458758 2.38501,-3.296257 3.30501,0.24625 4.42626,0.828751 5.87876,-1.8075041 1.3025,-2.365005 2.73001,-7.193765 0.45625,-8.758768 -7.03251,-1.893754 -9.65752,7.358765 -10.09877,9.47752 -0.6225,2.9900061 -0.8825,6.1975131 -0.8825,6.1975131 0,0 -1.72375,-5.537512 -2.99001,-8.5300181 -1.42625,-3.363757 -5.10501,-7.895017 -9.07377,-6.762515 -1.9725,0.562502 -2.665,2.175005 -2.66375,4.310009 0.001,1.963755 0.3125,5.1125111 0.3125,5.1125111 z M 1.4990152,30.953306 c 3.0100063,2.645006 7.3862655,4.022509 9.1112688,1.440003 1.117503,-1.675003 2.940007,-5.168761 2.940007,-5.168761 0,0 -1.851254,-2.797506 -3.396258,-3.998758 C 9.1152812,22.417038 7.134027,22.079537 5.9627746,22.715789 4.9290224,23.27704 3.7227699,24.902043 3.0677685,24.237042 2.2727668,23.43079 4.8627723,18.143279 5.0252726,17.690778 7.0065268,12.142016 6.9002766,8.6757588 5.3790233,4.0682498 4.9115224,2.6507468 4.3940213,1.2094938 3.6702697,0.6469918 L 2.831518,-0.0055092 1.9552661,0.9307428 c -1.36875285,1.460003 -1.1075023,5.281261 -0.6600014,6.850014 0.4187509,1.467503 1.1500025,2.9250072 1.5637533,4.5012602 0.4900011,1.873754 0.2512506,6.251263 -0.4487509,8.225017 -0.965002,2.718756 -2.74625579,5.211261 -2.35500497,8.180017 0.13375029,1.016252 0.27875059,1.242503 1.44375307,2.266255 z M 66.205401,98.920949 c 2.193755,-0.05125 3.722508,-0.15125 4.32501,-0.305 2.025004,-0.515001 4.445009,-1.867504 3.936258,-3.576258 -0.0925,-0.3125 -0.263751,-0.352501 -1.708754,-0.410001 l -46.277597,0.02125 c 0,0 -0.192501,-0.787501 0.19125,-1.283752 2.367505,-3.051257 5.858763,-7.882517 5.993763,-10.110022 0.09125,-1.512503 -0.298751,-3.913758 -1.793754,-4.77626 -1.608753,-0.927502 -2.687506,0.903752 -3.007506,4.170009 -0.223751,2.287505 -0.193751,5.543762 -0.193751,5.543762 0,0 -7.571266,1.527503 -9.74627,2.960006 -0.701252,0.461251 -1.666254,1.688754 -1.975004,2.877506 -0.297501,1.146252 -0.375001,3.907508 -0.393751,4.93626 l 50.650106,-0.0475 z M 43.447854,10.177012 37.811592,15.777024 c -0.937502,0.930002 -1.070003,1.097502 -1.332503,1.670004 -0.367501,0.802501 -0.493751,2.145004 -0.313751,2.326255 0.583751,0.590001 2.647506,-0.840002 3.366257,-1.370003 6.292514,-4.64126 9.15877,-7.563766 10.176272,-13.5725292 0.517501,-3.053756 -1.100003,-4.236259 -3.961259,-4.62626 -4.540009,-0.617501 -9.045019,0.015 -10.808772,3.432508 0.275,13.0500272 0.662501,5.587511 4.512509,4.661259 4.282509,-1.031252 8.888769,-3.320006 3.997509,1.8787542 z m 34.953823,-2.4312552 5.031261,5.0312612 7.153765,-7.1525152 -7.147515,-7.147515 -5.031261,5.03251 -5.03251,-5.03251 -7.153765,7.153765 7.147515,7.1462652 5.03251,-5.0312612 z m 0,-22.3775468 -7.147515,7.1462648 7.153765,7.153765 7.146265,-7.146265 -7.152515,-7.1537648 z m -38.497581,85.42393 5.032511,5.032511 7.153765,-7.152515 -7.146265,-7.147515 -5.032511,5.03251 -5.032511,-5.03251 -7.153765,7.153765 7.147515,7.146265 5.031261,-5.032511 z m 72.705154,8.642518 -8.48002,-0.14875 c 0,0 0.1075,-1.016252 0.3325,-1.902504 0.2925,-1.147502 3.49251,-5.985013 4.41876,-6.496264 1.55625,-0.861251 3.62251,2.778756 3.78751,5.155011 0.10125,1.442503 -0.0588,3.392507 -0.0588,3.392507 z M 98.110469,70.093389 c 1.593753,-0.641252 3.321261,1.103752 3.716261,2.282504 0.9825,2.930007 -2.355008,4.74251 -5.671265,5.558762 -1.617504,0.398751 -4.993761,-0.045 -5.320012,-0.698751 -0.31125,-0.625002 1.831254,-3.848758 3.243757,-4.880011 1.337503,-0.976252 2.958756,-1.832503 4.031259,-2.262504 z M 54.777877,46.029588 c 0.282501,9.61002 0.863752,29.395062 0.863752,29.395062 0.04875,1.635003 0.07,1.921254 0.222501,2.858756 0.725001,4.448759 7.700016,8.637518 12.360026,10.070021 3.003756,0.923752 6.367513,1.328753 9.54502,1.218753 3.231257,-0.111251 6.410013,-0.770002 9.837521,-0.880002 10.080021,-0.325001 19.048793,3.521257 23.627553,0.10875 1.56,-1.162502 5.59626,-7.533766 8.27501,-11.746275 2.19251,-3.446257 2.73876,-6.015012 0.2975,-10.823772 -0.22125,-0.436251 -0.46375,-0.801252 -0.81,-1.008753 -0.38375,-0.23125 -0.89625,-0.2675 -1.27125,-0.530001 -0.545,-0.382501 -0.80125,-1.241252 -1.13125,-2.016254 -0.7575,-1.777504 -2.41001,-3.653758 -5.02626,-5.710012 -1.95501,-1.536253 -4.55751,-3.391257 -4.55751,-3.391257 0,0 1.85875,-1.197503 2.44625,-1.823754 0.23625,-0.250001 0.125,-0.653751 -0.25875,-0.943752 -2.09375,-1.581253 -9.683768,-7.022515 -9.683768,-7.022515 0,0 -3.740008,4.088759 -5.191261,7.253766 -0.567502,1.237502 -0.431251,5.593761 0.2175,6.950014 0.900002,1.882504 1.900004,3.415007 1.391253,5.002511 -0.550001,1.717503 -3.078756,2.546255 -5.546262,5.351261 -3.060006,3.477507 -6.027512,9.992521 -6.027512,9.992521 l -5.536262,-0.09625 c -1.635003,-0.02875 -1.985004,-0.04625 -3.501257,-0.185001 -3.070007,-0.28 -12.011276,-4.87876 -13.416279,-8.951268 -0.26625,-0.772502 -0.30375,-1.040003 -0.375,-2.673756 0,0 -1.087503,-24.968803 -1.213753,-27.882559 -0.075,-1.710003 0.02375,-20.583793 -1.636253,-32.5500682 -0.477501,-3.442508 -1.027503,-6.001263 -1.027503,-6.001263 0,0 -3.307507,5.300011 -4.687509,8.117517 -0.406251,0.826252 -0.645002,1.438753 -0.775002,2.2137552 -0.17375,1.045002 -0.18375,1.342502 -0.0925,2.976256 0,0 0.06125,1.100002 0.14625,2.648755 0.563751,10.153772 2.291255,21.782546 2.535005,30.078814 z M 43.879104,29.748304 c -0.648751,-0.065 -1.060002,-0.207501 -1.857503,-0.543752 -0.903752,-0.38125 -1.725004,-0.878751 -2.437506,-1.616253 -3.897508,-4.025008 -3.070006,-7.240015 -7.642516,-6.495014 -2.557505,0.417501 -8.736268,4.040009 -9.902521,4.977511 -2.820006,2.267505 -6.993764,9.44127 -8.425017,14.09128 -0.935002,3.040006 -1.067503,6.398763 -2.298755,8.887518 -0.950002,1.918754 -2.5537555,3.320007 -3.7037579,5.245011 -0.025,0.0425 -3.4712574,8.286268 -3.6987578,10.790023 -0.1387503,1.516253 -0.1487504,1.866254 -0.1037503,3.501257 0,0 1.0875023,39.650085 1.0875023,39.650085 0,0 0.3300007,-0.3175 0.7487516,-0.73125 1.7712537,-1.75501 3.786258,-7.09252 3.9512583,-8.867521 0.09375,-1.013752 0.1662504,-1.797504 0.1662504,-1.797504 0.1500003,-1.628753 0.1612503,-1.991254 0.1012502,-3.626258 L 8.7702805,62.892123 c -0.05875,-1.635003 -0.0275,-1.843753 0.3162507,-2.090004 0.8900018,-0.637501 3.9112578,-1.228752 4.1287588,-1.260003 2.603755,-0.3675 4.76251,0.491251 8.055017,2.518756 1.990004,1.225002 3.042506,2.060004 3.781258,1.631253 0.912502,-0.527501 3.513757,-6.591264 4.230009,-9.133769 0.801251,-2.836256 -2.516256,-3.948758 -6.411264,-6.661264 -2.188754,-1.525003 -5.611262,-6.431264 -4.68876,-9.073769 0.727502,-2.085005 7.035015,-5.222511 8.776269,-5.700012 2.252505,-0.616252 3.525007,-0.175001 4.92251,1.903754 0.827502,1.232502 1.513753,2.796256 2.656256,3.985008 0.387501,0.402501 0.967502,0.868752 1.596253,1.303753 9.163769,5.705012 18.393789,-2.543755 24.130051,-6.363763 0.975002,0.44875 1.963754,1.292502 3.003756,1.623753 1.928754,0.611251 7.852517,-0.686251 8.918769,-1.360003 1.848754,-1.166252 3.121257,-2.838756 4.277509,-3.951258 l 2.155005,-2.072505 2.401255,2.328755 c 0.472501,0.458751 0.967502,0.972502 1.505003,1.452503 1.033752,0.922502 11.097523,3.775008 11.890025,3.370007 0.17125,-0.0875 5.533762,-5.912512 6.367509,-7.995017 0.87251,-2.181254 -0.355,-13.326278 -1.236248,-15.981283 -0.950002,-2.8600062 -2.173755,-5.8800122 -4.058759,-4.9175102 -1.106252,0.565001 -3.398757,3.9962582 -3.521257,5.2700112 -0.112501,1.172502 0.27125,1.410003 0.865002,2.560005 1.516253,2.938756 2.545005,10.345022 2.545005,10.345022 0,0 -3.930008,-1.790004 -6.080013,-2.732506 -0.845002,-0.370001 -1.415003,-0.610001 -1.865004,-1.118752 -0.605001,-0.683752 -0.992502,-1.851254 -1.671253,-2.632506 -0.291251,-0.336251 -0.636252,-0.601251 -0.845002,-0.945002 -0.728752,-1.205002 -0.182501,-2.537505 -1.736254,-1.872504 -1.441253,0.616251 -2.252505,3.823758 -3.491257,5.695012 -1.863754,2.810006 -4.49251,2.380005 -8.273768,1.760004 -1.076252,-0.176251 -2.180004,-0.352501 -3.191256,-0.788752 -1.362503,-0.588751 -1.536254,-0.765001 -1.741254,-1.758754 0,0 -0.457501,-2.211254 -0.457501,-2.211254 0,0 -3.955008,4.496259 -6.318763,6.863764 -4.81751,4.82376 -12.453776,5.207511 -15.825034,4.865011 z" />
</svg>
