<?xml version="1.0" encoding="UTF-8" standalone="no"?>
<svg>
  <path
     style="fill:#000000;stroke:none"
     d="m 28.67361,46.636056 5.09271,5.0927 7.32779,-7.32904 -7.32779,-7.3278 -5.09271,5.09271 -5.09145,-5.09271 -7.32905,7.3278 7.32905,7.32904 5.09145,-5.0927 z m 39.91661,62.997384 7.32905,-7.32905 -7.32905,-7.327794 -7.32779,7.327794 7.32779,7.32905 z M 6.47647,96.847223 c 7.90657,9.716647 11.04169,-5.49772 12.89677,-12.3705 0.48752,-1.80757 1.12004,-3.7914 2.01133,-5.95274 1.03504,-2.5151 5.47897,-10.62293 9.13162,-10.15666 0.56377,0.0725 0.65252,0.26751 0.89628,1.94758 2.07134,14.26433 6.00275,26.59358 19.51579,25.84229 1.76882,-0.0987 3.28388,-0.61877 5.00895,-1.4163 6.0715,-2.80762 6.66777,-3.94391 12.2355,-3.94516 4.33767,-0.001 11.97798,0.42377 11.97798,0.42377 0,0 2.97512,-4.8852 3.55139,-7.50406 0.17126,-0.77878 0.13126,-1.3563 0.0413,-2.02883 -0.12001,-0.90504 -0.24251,-1.01379 -1.22255,-1.07629 -0.72753,-0.0462 -1.43506,-0.31752 -2.11884,-0.55002 -1.67132,-0.56628 -3.20513,-0.89879 -4.43268,-1.53632 -1.54631,-0.80378 -2.6076,-2.09258 -4.50143,-4.40892 -1.96383,-2.40135 -4.82269,-5.90524 -4.82269,-5.90524 l 5.70773,-6.59152 c 1.05754,-1.2213 1.2438,-1.3663 1.86382,-1.44506 1.35881,-0.17375 1.70757,-0.004 2.03508,1.34756 1.48881,6.14524 0.94754,6.78277 4.22017,11.02044 2.31635,2.99887 6.68152,3.32139 11.254213,2.83387 3.28263,-0.35002 5.25021,-1.61882 8.389087,-3.01138 1.06629,-0.47251 2.06758,-0.83878 3.12012,-1.02879 4.90895,-0.88253 13.76931,1.57007 15.51438,0.57128 0.92754,-0.53003 3.52639,-5.53523 4.33767,-8.34784 0.42127,-1.46506 0.38627,-1.89508 -0.97254,-2.3526 -1.51006,-0.50877 -3.43013,-0.66877 -5.0652,-1.26005 -1.96633,-0.71003 -3.56139,-2.07758 -5.06395,-3.77765 -8.07533,-9.13287 -7.74157,-13.84556 -18.019477,-12.28049 -3.04012,0.46251 -3.36514,1.17254 -5.335223,4.40767 -0.70628,1.1613 -1.4313,2.46135 -1.77882,3.94516 -0.89629,7.57531 0.0862,6.39401 2.30384,5.16146 2.628863,-1.46256 5.037713,-0.86878 7.861573,-0.005 3.103877,0.94879 6.306507,2.62011 5.401467,4.9677 -1.38631,3.5914 -11.495457,2.81511 -13.32554,2.30509 -3.01762,-0.84128 -5.69773,-4.42392 -6.93403,-9.13161 -1.2163,-4.63644 -0.47502,-7.45656 -3.93891,-6.61277 -4.20267,1.02504 -5.61772,6.32775 -9.76164,10.45292 -3.6589,3.6414 -9.32663,5.0227 -13.87306,5.60648 -1.54256,0.1975 -3.15513,1.01379 -3.7064,2.01383 -1.52006,2.75636 -1.92133,9.63539 -1.92133,9.63539 l 6.2015,0 c 1.51881,0 1.80757,0.035 2.88012,0.34626 1.3613,0.39627 3.32763,1.87383 4.35642,2.59011 1.02505,0.71377 1.33131,1.00629 1.23255,1.97633 -0.035,0.34001 -0.19125,0.46126 -1.55631,1.21754 -2.58135,1.43006 -5.20021,2.22384 -7.77031,2.3526 -15.19437,0.75753 -17.18195,-16.66692 -17.85072,-21.70463 -1.04505,-2.45635 -2.97012,-5.95524 -3.6214,-6.30025 -2.82511,-1.49631 -9.28662,5.68773 -11.44546,10.07666 -2.08259,4.23017 -4.47268,20.89334 -10.80544,19.52203 -0.31876,-0.0688 -0.63377,-0.1575 -0.94379,-0.26251 -5.52522,-1.88132 -7.97407,-16.21815 -8.04782,-16.80193 -0.30751,-2.43634 -1.02504,-8.12532 -1.02504,-8.12532 0,0 -0.56252,0 -0.56252,0 0,0 0,5.83648 0,8.97536 0,20.39582 4.32767,23.71096 6.47651,26.35106 z" />
</svg>
