<?xml version="1.0" encoding="UTF-8" standalone="no"?>
<svg>
  <path
     style="fill:#000000;stroke:none"
     d="m 39.148257,46.636056 5.09271,5.0927 7.32779,-7.32904 -7.32779,-7.3278 -5.09271,5.09271 -5.09145,-5.09271 -7.32905,7.3278 7.32905,7.32904 5.09145,-5.0927 z m 39.91661,62.997384 7.32905,-7.32905 -7.32905,-7.327794 -7.32779,7.327794 7.32779,7.32905 z M 121.21658,90.831049 c 0.0337,-0.18626 0.075,-0.43877 0.008,-0.56752 -0.12876,-0.23751 -0.63878,-0.0412 -1.15005,0.21376 -1.44256,0.72002 -2.89762,1.90507 -4.35018,2.74636 -0.65877,0.38126 -1.40255,0.76503 -2.18383,1.06254 -2.2601,0.86128 -5.75149,1.1988 -4.28143,-2.10009 0.79503,-1.78632 3.23888,-3.61514 3.82641,-5.05645 0.31626,-0.77378 -0.13876,-2.83886 -1.1563,-3.38139 -1.40506,-0.75003 -4.48143,0.86504 -5.25771,1.75382 -1.03129,1.18005 -2.4551,4.28018 -1.62632,4.67269 0.44252,0.21001 1.60507,-0.61002 2.67136,-0.87378 0.45252,-0.11251 0.88754,-0.12376 1.03879,0.075 0.16501,0.21751 -0.0138,0.68753 -0.26626,1.1838 -1.57256,3.09637 -4.05766,5.13396 -3.44514,7.24654 1.83258,6.324011 11.46922,-2.74261 14.9206,-5.67398 1.0813,-0.91878 1.2063,-1.04879 1.25256,-1.3013 z M 51.771267,32.410476 c 0.19876,2.80012 1.48131,4.54269 3.81391,5.04521 3.00762,0.64877 4.70894,-1.01504 5.48022,-4.37893 0.17,-0.73753 0.13125,-1.35255 -0.33502,-1.65007 -0.88503,-0.56377 -3.32013,0.0225 -4.49643,-0.61502 -1.46381,-0.79253 -1.83632,-4.16267 -1.47381,-5.73773 0.36252,-1.57632 1.28631,-3.26513 1.53757,-4.48018 0.0512,-0.24626 0.0738,-0.47252 -0.0313,-0.59878 -0.0125,-0.0162 -0.0262,-0.0312 -0.04,-0.045 -3.54014,-0.82378 -4.40143,13.21679 -4.45518,12.4605 z m 24.6335,-6.47276 c -0.94629,1.98133 -1.2438,4.22142 -0.71503,6.86903 0.21251,1.06129 1.18755,2.25134 1.95258,2.38385 0.89003,0.155 2.19634,-0.055 2.19634,-0.055 l -0.15001,-3.65139 c -0.0575,-1.40756 -0.0913,-1.56757 -0.34001,-1.60007 -0.88004,-0.11375 -1.0988,-0.68377 -0.80879,-1.68132 0.87254,-2.99012 12.88177,-9.33537 15.26937,-10.64792 2.97637,-1.63632 15.496873,-8.2265899 19.880803,-9.3753799 2.05008,-0.53628 2.36135,-0.35752 1.89508,1.15879 -0.0863,0.28126 -0.18501,0.58628 -0.29126,0.9100399 -2.86887,6.81653 -2.63636,6.72277 -1.35381,4.77269 2.4301,-3.69265 4.65269,-7.8065599 9.04412,-8.5203399 3.29263,-0.53627 3.77265,2.44135 4.55518,-6.5002599504 0,0 -1.69507,-0.007 -3.23888,0.0813000004 -1.2038,0.0688 -6.90528,2.01132995 -11.51922,3.80014995 -10.67168,4.14017 -31.388763,11.6079699 -36.376463,22.0558899 z m -7.43905,17.1732 -0.67378,0.0125 c -0.86754,0.015 -0.98379,0.125 -1.1688,1.10504 -0.0813,0.42877 -0.32251,1.0838 -0.59502,1.71632 -1.58007,3.6864 -3.46514,2.83387 -4.8227,0.11126 -1.2388,-2.48385 -2.72636,-5.23147 -2.97012,0.28251 -0.0987,2.21009 0.14376,6.42401 1.81508,7.57155 1.79007,1.2288 4.56268,0.27501 6.29275,-0.91503 0.40752,-0.28127 0.77128,-0.60753 0.96754,-1.02255 0.11375,-0.23751 0.17126,-0.50502 0.21376,-0.76753 l 0.24376,-1.54256 1.68632,0.19501 c 0.30751,0.035 0.62752,0.065 0.93628,0.0513 1.07255,-0.0475 1.89883,-0.57627 2.51761,-1.3563 2.81261,-3.5439 1.51381,-7.82282 -0.69128,-10.83544 -1.65007,-2.25384 -4.43393,-5.79023 -1.71132,1.2813 0.99379,2.57885 0.84003,4.06141 -2.04008,4.11267 z m -37.46527,-17.1732 c -0.94628,1.98133 -1.2438,4.22142 -0.71502,6.86903 0.21125,1.06129 1.18629,2.25134 1.95257,2.38385 0.89004,0.155 2.19634,-0.055 2.19634,-0.055 l -0.15,-3.65139 c -0.0588,-1.40756 -0.0925,-1.56757 -0.34002,-1.60007 -0.88128,-0.11375 -1.10004,-0.68377 -0.80878,-1.68132 0.87254,-2.99012 12.88177,-9.33537 15.26812,-10.64792 2.97762,-1.63632 15.49812,-8.2265899 19.8808,-9.3753799 2.05008,-0.53628 2.36259,-0.35752 1.89508,1.15879 -0.0863,0.28126 -0.18501,0.58628 -0.29127,0.9100399 -2.86761,6.81653 -2.63635,6.72277 -1.35255,4.77269 2.4301,-3.69265 4.65269,-7.8065599 9.04286,-8.5203399 3.29389,-0.53627 3.77391,2.44135 4.55644,-6.5002599504 0,0 -1.69507,-0.007 -3.24013,0.0813000004 -1.20255,0.0688 -6.90528,2.01132995 -11.51797,3.80014995 -10.67168,4.14017 -31.38876,11.6079699 -36.37647,22.0558899 z m -20.78208,-10.75668 0.0362,1.05129 c 0,0 -0.62753,0.07 -1.09505,0.0387 -1.21755,-0.0775 -1.83632,-1.3713 -2.18634,-2.4701 -0.10375,-0.32501 -0.155,-0.60252 -0.025,-0.75503 0.35752,-0.42001 2.22634,0.26751 2.97387,1.2463 0.25126,0.32877 0.28126,0.41752 0.29627,0.88879 z m 7.55405,-0.60628 c -1.06379,0.93379 -2.67886,1.86258 -3.85015,1.99759 -0.82129,0.0937 -1.82633,0.065 -1.82633,0.065 0,0 0.21251,-1.37881 0.30001,-2.66386 0.13126,-1.94383 -2.6051,-6.8902799 -5.37646,-5.2964599 -3.45639,1.9875799 -0.53628,7.4790499 -0.34877,9.8903999 0.0113,0.1525 0.0125,0.15375 0.0125,0.15375 0,0 -0.38376,0.0763 -0.69753,0.15376 -2.87261,0.72003 -6.08899,4.55268 -6.394,6.39151 -0.33002,1.99258 0.23126,5.75398 1.67756,6.73527 2.60636,1.77132 10.85044,-1.15755 13.4493,-2.64261 1.18379,-0.67753 2.19009,-1.36755 3.24013,-2.01133 7.79781,-4.78019 3.28138,-3.18513 -1.1038,-1.99008 -2.69886,0.73628 -6.11899,1.55756 -9.35787,2.01758 -1.1488,0.16251 -9.61164,1.86258 -3.72765,-2.49885 1.3938,-1.03254 2.81886,-2.04633 4.37517,-2.72886 2.52135,-1.10879 5.38772,-1.35005 7.70656,-2.57635 5.36397,-2.83637 6.40776,-7.47281 2.66011,-12.5292599 -0.33501,-0.45127 -0.68003,-0.89754 -1.02504,-1.3413 -0.73878,-0.95379 -5.54272,-10.16791 -5.69023,-2.97637 -0.009,0.43126 -0.004,0.87378 0.0263,1.2938 0.10875,1.54756 1.3138,4.21017 2.25509,6.3940099 0.89379,2.07383 1.28005,1.98258 1.43631,1.4313 1.05879,-3.7301499 0.17501,-3.7501499 1.61256,-2.5088499 1.47756,1.2750499 2.30885,3.7801599 0.64628,5.2402099 z m -1.3213,82.272467 c 7.90657,9.716647 11.04169,-5.49772 12.89677,-12.3705 0.48752,-1.80757 1.12004,-3.7914 2.01133,-5.95274 1.03504,-2.5151 5.47897,-10.62293 9.13162,-10.15666 0.56377,0.0725 0.65252,0.26751 0.89628,1.94758 2.07134,14.26433 6.00275,26.59358 19.51579,25.84229 1.76882,-0.0987 3.28388,-0.61877 5.00895,-1.4163 6.0715,-2.80762 6.66777,-3.94391 12.2355,-3.94516 4.33767,-0.001 11.97798,0.42377 11.97798,0.42377 0,0 2.97512,-4.8852 3.55139,-7.50406 0.17126,-0.77878 0.13126,-1.3563 0.0413,-2.02883 -0.12001,-0.90504 -0.24251,-1.01379 -1.22255,-1.07629 -0.72753,-0.0462 -1.43506,-0.31752 -2.11884,-0.55002 -1.67132,-0.56628 -3.20513,-0.89879 -4.43268,-1.53632 -1.54631,-0.80378 -2.6076,-2.09258 -4.50143,-4.40892 -1.96383,-2.40135 -4.82269,-5.90524 -4.82269,-5.90524 l 5.70773,-6.59152 c 1.05754,-1.2213 1.2438,-1.3663 1.86382,-1.44506 1.35881,-0.17375 1.70757,-0.004 2.03508,1.34756 1.48881,6.14524 0.94754,6.78277 4.22017,11.02044 2.31635,2.99887 6.68152,3.32139 11.254213,2.83387 3.28263,-0.35002 5.25021,-1.61882 8.38909,-3.01138 1.06629,-0.47251 2.06758,-0.83878 3.12012,-1.02879 4.90895,-0.88253 13.76931,1.57007 15.51438,0.57128 0.92754,-0.53003 3.52639,-5.53523 4.33767,-8.34784 0.42127,-1.46506 0.38627,-1.89508 -0.97254,-2.3526 -1.51006,-0.50877 -3.43013,-0.66877 -5.0652,-1.26005 -1.96633,-0.71003 -3.56139,-2.07758 -5.06395,-3.77765 -8.07533,-9.13287 -7.74157,-13.84556 -18.01948,-12.28049 -3.04012,0.46251 -3.36514,1.17254 -5.335223,4.40767 -0.70628,1.1613 -1.4313,2.46135 -1.77882,3.94516 -0.89629,7.57531 0.0862,6.39401 2.30384,5.16146 2.628863,-1.46256 5.037713,-0.86878 7.861573,-0.005 3.10388,0.94879 6.30651,2.62011 5.40147,4.9677 -1.38631,3.5914 -11.49546,2.81511 -13.325543,2.30509 -3.01762,-0.84128 -5.69773,-4.42392 -6.93403,-9.13161 -1.2163,-4.63644 -0.47502,-7.45656 -3.93891,-6.61277 -4.20267,1.02504 -5.61772,6.32775 -9.76164,10.45292 -3.6589,3.6414 -9.32663,5.0227 -13.87306,5.60648 -1.54256,0.1975 -3.15513,1.01379 -3.7064,2.01383 -1.52006,2.75636 -1.92133,9.63539 -1.92133,9.63539 l 6.2015,0 c 1.51881,0 1.80757,0.035 2.88012,0.34626 1.3613,0.39627 3.32763,1.87383 4.35642,2.59011 1.02505,0.71377 1.33131,1.00629 1.23255,1.97633 -0.035,0.34001 -0.19125,0.46126 -1.55631,1.21754 -2.58135,1.43006 -5.20021,2.22384 -7.77031,2.3526 -15.19437,0.75753 -17.18195,-16.66692 -17.85072,-21.70463 -1.04505,-2.45635 -2.97012,-5.95524 -3.6214,-6.30025 -2.82511,-1.49631 -9.28662,5.68773 -11.44546,10.07666 -2.08259,4.23017 -4.47268,20.89334 -10.80544,19.52203 -0.31876,-0.0688 -0.63377,-0.1575 -0.94379,-0.26251 -5.52522,-1.88132 -7.97407,-16.21815 -8.04782,-16.80193 -0.30751,-2.43634 -1.02504,-8.12532 -1.02504,-8.12532 0,0 -0.56252,0 -0.56252,0 0,0 0,5.83648 0,8.97536 0,20.39582 4.32767,23.71096 6.47651,26.35106 z M 108.89983,19.358706 c -0.84629,-0.84754 -1.76007,-1.42506 -2.63261,-1.55381 -1.2788,-0.19001 -1.37255,0.44251 -1.66257,2.38259 -0.10125,0.68128 -0.23,1.37256 -0.1875,2.06633 0.0575,0.93504 0.16875,1.07755 1.10254,1.42881 0.52877,0.19876 1.05879,0.51002 1.57132,0.90254 3.79015,2.90012 3.69639,4.93895 4.10141,9.66664 0.30126,3.50764 0.56127,6.90778 0.81503,3.8639 0.36752,-4.42267 1.62132,-14.02556 -3.10762,-18.757 z m -63.006293,-5.94649 c -0.0188,-0.29501 -0.0525,-0.56878 -0.10626,-0.80628 -0.40627,-1.80633 -1.72132,-2.45135 0.29501,-3.6376499 1.58632,-0.93254 3.93266,-0.84379 4.87395,-2.00883 0.92254,-1.1413 1.58631,-6.09774995 -0.56502,-6.89027995 -0.61378,-0.22501 -1.51381,0.12125 -2.36885,0.71503 -1.89633,1.31629995 -4.20392,5.36895995 -4.58643,7.81030995 -0.32627,2.0800899 -0.48002,3.8201599 -2.79762,-1.63131 -0.0237,-0.0337 -0.0487,-0.0675 -0.0725,-0.10126 -0.60627,-0.86503 -1.69757,-2.23259 -2.93637,-3.31138 -3.88266,-3.38388995 -8.09533,0.22501 -6.44151,5.98899 1.2613,4.3914299 1.52881,3.6951499 1.82883,2.5651099 0.94128,-3.5338999 5.34646,-2.6613599 6.2565,-0.67503 0.34126,0.74628 0.75503,1.65881 1.3413,2.70136 0.38627,0.68627 5.22521,5.55272 5.27897,-0.71878 z" />
</svg>
