<?xml version="1.0"?>
<svg xmlns="http://www.w3.org/2000/svg" version="1.1">
  <path
     d="m 95.218216,44.28241 -5.399,5.364 c -0.898,0.891 -1.025,1.051 -1.276,1.6 -0.352,0.769 -0.474,2.055 -0.301,2.229 0.559,0.565 2.537,-0.805 3.225,-1.313 6.028,-4.445 8.774004,-7.245 9.748004,-13.001 0.495,-2.926 -1.054,-4.058 -3.795004,-4.432 -4.349,-0.592 -8.665,0.014 -10.354,3.288 0.264,12.501 0.635,5.353 4.323,4.465 4.103,-0.987 8.514,-3.18 3.829,1.8 z m -75.643,-34.528 -5.4,5.364 c -0.897,0.891 -1.025,1.051 -1.276,1.6 -0.352,0.769 -0.473,2.054 -0.301,2.229 0.56,0.564 2.537,-0.806 3.225,-1.313 6.028,-4.446 8.774,-7.245 9.748,-13.002 0.496,-2.925 -1.054,-4.058 -3.795,-4.431 -4.349,-0.592 -8.664,0.014 -10.354,3.288 0.264,12.501 0.635,5.352 4.323,4.465 4.103,-0.988 8.515,-3.18 3.83,1.8 z m 146.844004,70.814 c 0.036,-0.192 0.08,-0.453 0.008,-0.584 -0.134,-0.245 -0.669,-0.042 -1.206,0.22 -1.512,0.74 -3.038,1.959 -4.562,2.824 -0.69,0.392 -1.47,0.787 -2.289,1.094 -2.37,0.886 -6.031,1.233 -4.49,-2.16 0.835,-1.838 3.397,-3.72 4.013,-5.202 0.331,-0.796 -0.145,-2.92 -1.213,-3.479 -1.473,-0.772 -4.698,0.89 -5.513,1.804 -1.082,1.214 -2.574,4.403 -1.704,4.808 0.463,0.215 1.682,-0.628 2.8,-0.899 0.475,-0.116 0.931,-0.128 1.089,0.076 0.174,0.224 -0.014,0.708 -0.278,1.218 -1.649,3.185 -4.255,5.281 -3.613,7.455 1.922,6.506 12.026,-2.821 15.645,-5.837 1.134,-0.945 1.265,-1.079 1.313,-1.338 z m -69.959004,-68.7 -1.661,2.214 -2.198,-2.2 c -1.006,-1.007 -1.906,-2.389 -1.578,-3.258 0.544,-1.442 4.056,-1.79 4.923,-1.417 2.246,0.969 1.938,2.763 0.514,4.661 z m -34.004,27.225 0.274,-0.002 c 0.377,-0.003 0.765,-0.012 1.122,-0.032 0.687,-0.038 1.472,-0.192 2.308,-0.429 8.42,-3.533 18.055,-10.035 24.617,-15.799 2.285,-2.007 3.591,-3.153 3.591,-3.153 l 1.172,1.112 c 0.232,0.292 0.301,0.385 0.37,0.481 0.492,0.686 0.896,1.419 1.181,2.361 0.203,0.671 0.809,4.936 1.829,4.722 0.775,-0.163 1.239004,-3.12 1.377004,-4.168 0.377,-3.468 -1.103004,-5.865 -3.032004,-8.225 -0.277,-0.339 -0.429,-0.425 -0.429,-0.425 l 1.814,-3.598 c 0.566,-1.435 1.423004,-2.981 1.817004,-4.329 0.719,-2.461 -0.659004,-6.793 -3.730004,-7.484 -2.573,-0.579 -6.339,0.955 -7.358,2.5 -0.38,0.576 -1.746,7.142 -1.307,9.54 0.205,1.115 0.721,2.579 1.2,3.795 0.514,1.304 1.58,1.873 1.58,1.873 0,0 -1.756,1.448 -2.418,1.993 -0.455,0.376 -1.597,1.322 -3.032,2.496 -3.702,3.031 -16.122,11.059 -20.391,13.25 -0.864,0.444 -1.774,0.911 -2.572,1.32 -3.763,1.932 -3.822,1.951 0.017,2.201 z m 15.141,46.491 c 3.249,4.599 10.304,4.7 15.7,4.23 2.072,-0.18 4.017,-0.386 6.081,-1.302 3.011004,-1.336 6.273004,-4.186 8.652004,-5.319 0.497,-0.237 0.956,-0.399 1.337,-0.284 0.981,0.295 1.448,2.425 2.497,3.273 1.211,0.981 7.157,-0.363 9.125,-1.447 0.674,-0.371 3.361,-2.415 4.178,-3.58 0.643,-0.917 0.857,-0.939 2.138,-0.225 1.567,0.873 3.445,1.514 4.909,2.178 1.293,0.588 2.161,1.067 3.16,0.57 1.524,-0.759 2.339,-3.95 2.034,-5.836 -0.383,-2.369 -1.872,-6.979 -3.387,-5.557 -0.765,0.717 -0.873,2.825 -1.703,3.549 -0.398,0.347 -0.964,0.375 -1.506,0.217 -1.153,-0.338 -2.203,-1.52 -3.069,-1.428 -1.284,0.137 -2.163,3.077 -3.894,4.348 -1.585,1.164 -8.458,2.467 -9.413,1.814 -0.955,-0.653 -1.323,-2.338 -2.187,-3.041 -1.926,-1.566 -4.867,1.596 -7.659,3.497 -2.584,1.76 -5.127004,2.598 -7.916004,2.861 -4.414,0.416 -11.978,0.018 -15.679,-0.223 -5.32,-0.345 -3.243,1.925 -3.398,1.705 z m -31.007,-64.937 -0.583,-11.124 c -0.087,-1.65 -0.121,-1.938 -0.341,-2.872 -0.674,-2.866 -2.489,-4.435 -4.386,-5.449 -2.412,-1.288 -4.253,-1.767 -6.739,0.047 -2.044,1.492 -2.236,6.892 -1.433,7.736 0.6,0.63 2.188,0.573 4.111,0.122 4.803,-1.128 5.284,-0.868 6.535,4.211 0.595,2.414 0.665,4.675 0.372,7.102 -0.621,5.155 -2.08,7.663 0.779,10.689 1.19,1.259 2.433,1.45 5.148,0.891 1.929,-0.397 2.311,-1.294 3.12,-3.964 0.569,-1.881 1.019,-3.564 0.874,-5.439 -0.29,-3.719 -4.311,-10.71 0.535,-12.446 0.895,-0.321 2.058,-0.112 3.06,0.107 1.352,0.294 1.581,0.161 2.293,-1.335 0.586,-1.23 1.263,-2.362 1.636,-3.686 1.398,-4.97 -0.743,-6.372 -5.039,-4.337 -4.928,2.336 -7.142,12.34 -6.089,19.048 0.322,2.764 0.676,5.254 0.676,5.254 0,0 -0.295,-0.003 -0.646,-0.038 -1.379,-0.136 -3.75,-1.967 -3.883,-4.517 z m -29.706,26.083 0.222,-2.737 -3.885,0.868 c -18.8821,4.222 -4.258,-27.893 -7.876,-22.017 -4.1664,6.767 -5.9888,14.846 -5.1427,22.073 0.0923,0.788 0.193,1.505 0.3159,2.162 1.971,10.536 15.7168,7.659 16.3658,-0.349 z m 42.967,37.967 5.303,5.303 6.958,-6.958 -6.958,-6.959 -5.303,5.303 -5.302,-5.303 -6.958,6.959 6.958,6.958 5.302,-5.303 z m -34.389,-56.857 -6.959,6.958 6.959,6.958 6.958,-6.958 -6.958,-6.958 z m -12.577,19.842 c 0,0 -0.157,0.098 -0.76,0.475 -2.978,1.861 -4.097,4.465 -5.621,7.844 -3.2056,7.113 -6.2223,20.04 -2.7163,26.152 3.2193,5.611 10.7793,8.592 16.8513,7.687 4.985,-0.744 11.223,-3.199 15.132,-6.191 2.467,-1.888 7.82,-15.902 6.904,-19.112 -0.131,-0.459 -0.239,-0.844 -0.12,-1.097 0.287,-0.608 1.892,-0.449 3.494,-0.675 1.941,-0.275 3.879,-1.117 5.731,-1.922 1.444,-0.629 1.658,-0.865 2.132,-2.364 l 1.453,-4.586 0,7.812 c 0,1.572 0.068,1.908 0.684,3.362 2.897,6.833 9.758,8.254 16.213,7.305 1.657,-0.244 3.403,-0.64 4.646,-1.456 0.89,-0.584 1.523,-1.382 2.155,-1.951 l 1.367,-1.229 2.955,1.708 c 1.431,0.827 3.054,1.868 4.574,2.346 1.923,0.604 5.387,0.213 7.737,-1.108 l 2.717,-1.527 3.478004,2.183 c 1.039,0.652 2.1,1.288 3.152,1.616 1.843,0.575 6.932,-0.064 9.794,-1.005 1.498,-0.493 1.742,-0.704 2.435,-2.116 l 1.781,-3.628 c 0,0 0.975,1.38 1.699,2.188 3.218,3.593 12.408,4.082 15.558,3.397 2.169,-0.473 4.338,-1.287 6.394,-2.038 2.854,-1.044 10.498,-2.26 12.809,-2.038 4.557,0.437 10.551,2.019 10.551,2.019 0,0 3.359,-5.225 4.006,-7.609 0.316,-1.167 -0.366,-1.791 -1.747,-2.271 -1.651,-0.573 -3.68,-0.549 -5.24,-1.164 -1.179,-0.465 -2.091,-1.295 -3.02,-2.243 -7.984,-8.148 -10.492,-11.79 -21.435,-8.82 -2.707,0.734 -4.094,1.456 -4.896,4.437 -0.31,1.152 -0.345,1.429 -0.345,2.77 l 0,2.982 c 0,0 1.24,0.055 2.329,0 3.596,-0.18 7.223,-2.514 9.712,-1.746 0.52,0.16 4.033,2.096 4.263,2.678 0.089,0.226 0.066,0.466 0.039,0.699 -0.035,0.314 -0.207,0.398 -1.718,0.838 -10.213,2.976 -21.036,5.298 -26.076,-4.143 -1.05,-1.967 -2.58,-3.119 -3.978,-0.655 -0.52,0.915 -0.832,2.228 -0.874,3.377 -0.059,1.62 0.419,2.915 0,3.808 -0.33,0.705 -3.567,1.662 -5.24,1.549 -1.832,-0.123 -5.991,-1.093 -6.405,-2.678 -0.612,-2.34 2.406,-5.983 -1.281,-4.309 -3.52,1.599 -5.016004,4.563 -7.639004,5.24 -2.298,0.594 -7.741,0.202 -8.548,-1.358 -0.416,-0.804 -0.52,-2.193 -0.32,-3.389 0.167,-1 0.545,-1.866 0.32,-2.24 -1.044,-1.736 -4.601,3.707 -5.24,4.367 -6.571,6.795 -17.753,4.15 -21.253,-2.038 -0.691,-1.222 -1.28,-2.562 -1.455,-4.064 -0.325,-2.789 0.779,-6.135 0.582,-8.978 -0.117,-1.694 -2.393,-10.061 -4.46,-10.83 -2.819,-1.049 -3.887,3.573 -4.274,6.637 -0.442,3.503 1.263,4.195 3.327,8.948 0.878,2.021 -0.404,2.244 -3.909,3.338 -4.347,1.357 -8.44,2.257 -12.228,-1.164 -0.615,-0.556 -1.143,-1.227 -1.422,-1.97 -0.499,-1.331 -0.544,-2.68 -2.269,-1.815 -1.91,0.958 -3.555,7.256 -3.296,9.316 0.628,4.986 5.719,14.262 5.241,15.954 -0.75,2.651 -9.607,6.725 -14.324,7.336 -6.929,0.899 -14.602,-2.752 -15.954,-9.502 -0.791,-3.951 0.829,-11.856 2.329,-15.826 0.066,-0.173 1.99,-3.957 3.519,-7.513 z"
     style="fill:#000000;stroke:none" />
</svg>
