<?xml version="1.0" encoding="UTF-8" standalone="no"?>
<svg>
  <path
     style="fill:#000000;stroke:none"
     d="M 91.038353,20.070453 90.472103,9.256697 c -0.08375,-1.6037509 -0.1175,-1.882501 -0.331251,-2.7912515 -0.655,-2.7862516 -2.418751,-4.3112525 -4.262502,-5.296253 -2.345001,-1.25250071 -4.135002,-1.71750097 -6.551254,0.045 -1.987501,1.4500008 -2.173751,6.7000038 -1.39375,7.5200042 0.58375,0.6125004 2.127501,0.5575003 3.996252,0.1187501 4.668752,-1.0962506 5.136253,-0.8437505 6.352503,4.0937522 0.577501,2.346251 0.646251,4.543753 0.362501,6.903754 -0.603751,5.011253 -2.022502,7.447504 0.7575,10.390006 1.156251,1.22375 2.363751,1.408751 5.003753,0.865 1.873751,-0.385 2.246251,-1.25625 3.032502,-3.852502 0.5525,-1.827501 0.99,-3.465002 0.84875,-5.286253 -0.28125,-3.616252 -4.190002,-10.411256 0.52125,-12.0987566 0.868751,-0.3125002 2.000003,-0.1087501 2.973753,0.10375 1.31375,0.2862506 1.5375,0.1562506 2.22875,-1.2975007 0.57,-1.1962507 1.22875,-2.2962513 1.59,-3.582502 1.36,-4.83125272 -0.72125,-6.1950035 -4.8975,-4.21625237 C 95.913356,3.1454436 93.760854,12.870449 94.784605,19.390453 c 0.31375,2.687501 0.65625,5.107503 0.65625,5.107503 0,0 -0.28625,-0.0025 -0.6275,-0.03625 -1.341251,-0.132501 -3.645002,-1.912502 -3.775002,-4.391253 z m -3.611252,72.690041 -5.947503,-5.933754 -7.551255,7.533755 7.551255,7.533755 5.947503,-5.933754 5.947503,5.933754 7.551256,-7.533755 -7.551256,-7.533755 -5.947503,5.933754 z M 54.668333,11.017948 48.568329,17.077951 c -1.01375,1.007501 -1.1575,1.187501 -1.441251,1.807501 -0.3975,0.868751 -0.535,2.321252 -0.34,2.517502 0.632501,0.63875 2.866252,-0.910001 3.643752,-1.482501 6.808754,-5.021253 9.910006,-8.185005 11.011256,-14.6875082 0.560001,-3.3050019 -1.19,-4.5837526 -4.287502,-5.00500283 -4.912503,-0.66875038 -9.787505,0.015 -11.696257,3.71375203 0.298751,14.121258 0.717501,6.0462534 4.883753,5.0437529 4.635003,-1.1150007 9.618756,-3.592502 4.326253,2.0325011 z m 65.270037,61.380034 -14.11751,-0.8875 c -1.78625,-0.1125 -2.12625,-0.2525 -3.40625,-1.398751 -2.0625,-1.848751 -3.500003,-4.580002 -4.138753,-7.046254 -0.6875,-2.658751 -0.80125,-8.075004 -4.108752,-6.900004 -1.841251,0.653751 -4.123753,7.290004 -4.285003,8.351255 -0.3675,2.428751 -0.34,5.406253 -0.34,5.406253 0,0 -6.892504,0.8675 -10.967506,1.201251 -2.666252,0.21875 -3.611252,0.29875 -3.952502,-1.576251 -0.27625,-1.517501 -0.395,-4.577503 -0.395,-4.577503 0,0 -2.258752,1.725001 -3.801253,2.652502 -3.648752,2.193751 -9.708755,2.592501 -12.652507,0.5325 -1.28,-0.89625 -2.290001,-2.286251 -3.242501,-3.986252 -1.246251,-2.222501 -3.806253,-8.358755 -5.597504,-7.528754 -0.60625,0.28 -1.07125,1.4325 -1.555,2.558751 -2.883752,6.696254 -3.975003,8.700005 -1.620001,15.173758 2.168751,5.961254 5.271253,10.632506 1.50375,13.046258 -2.846251,1.825001 -16.411259,6.665004 -23.175013,5.537503 C -7.8625774,87.631741 12.029434,40.006714 4.5534295,59.399225 3.1914288,62.931727 1.9935531,66.507979 1.1254276,69.999231 -3.7379501,89.560492 7.3916811,108.6605 30.044569,103.8905 37.652073,102.288 46.945828,98.260497 49.88583,93.229244 c 2.837502,-4.855003 3.281252,-11.667506 6.435004,-12.546257 1.23125,-0.3425 2.942501,0.13375 5.333753,-0.32875 3.151251,-0.608751 7.485004,-2.850002 7.485004,-2.850002 0,0 -0.08125,1.297501 -0.14875,2.362502 -0.248751,3.962502 12.166256,1.691251 14.606258,1.27625 1.866251,-0.3175 3.383752,-0.6725 3.763752,-1.0125 1.807501,-1.620001 3.817502,-7.420004 3.817502,-7.420004 0,0 1.118751,3.421251 2.171251,5.321253 1.278751,2.307501 4.122503,3.912502 6.013754,4.695002 1.791252,0.741251 15.653762,1.338751 16.785012,0.723751 3.105,-1.686251 10.05125,-11.997507 10.7975,-16.85501 0.4975,-3.243752 0.36625,-7.622504 -0.30125,-11.043756 -0.8125,-4.160002 -2.675,-10.610006 -2.675,-10.610006 0,0 -1.92125,2.481251 -3.23625,4.261252 -1.86625,2.527502 -2.5075,3.640002 -2.9925,5.337503 -0.6575,2.302502 -0.64375,8.358755 0.0225,10.202506 0.38,1.050001 2.27,3.762502 2.3,5.671253 0.0137,0.822501 -0.125,1.983751 -0.125,1.983751 z m 24.31376,19.296261 2.97375,-10.345006 c 0.11875,-0.2975 0.2225,-0.58 0.305,-0.84 0.36125,-1.121251 0.365,-1.847501 0.17875,-2.831252 -0.515,-2.721251 -2.5225,-7.111254 -1.15875,-8.286254 0.0888,-0.0775 0.19125,-0.14625 0.305,-0.21125 8.72251,0.79875 6.72126,0.19 4.21626,-2.652502 -0.315,-0.3575 -6.01626,-9.897505 -6.31501,-10.618756 -1.08125,-2.606251 -1.445,-4.263752 -3.2525,-4.171252 -0.36,0.0175 -0.5325,0.16875 -1.7225,1.508751 -2.0625,2.322501 -5.3525,5.787503 -5.72125,7.337504 -0.30875,1.29375 0.73,4.790002 1.74875,5.893753 0.4975,0.53875 1.03875,0.925001 1.5425,1.647501 0.99625,1.433751 2.55,9.415005 3.62375,15.503759 1.665,9.447505 -3.31125,10.537506 -11.13876,14.892508 -16.7125,9.297503 -24.01376,9.821253 -44.23252,14.915013 -1.583751,0.39875 -3.103752,0.7825 -4.471253,1.12625 -15.257508,3.84375 0.741251,3.35875 3.906253,3.4825 2.051251,0.08 4.507502,0.17625 6.867503,0.2675 9.717507,0.38 16.006257,-0.62125 21.927517,-2.85125 11.73375,-4.41751 27.33251,-13.04001 30.41751,-23.767517 z m -3.55875,0.44 -2.41625,16.908757 c 0.21375,0.84625 0.45625,1.675 0.71875,2.35875 1.84625,4.82001 8.56875,7.32376 13.27001,6.95501 9.1525,-0.72 25.00001,-9.69876 28.28001,-13.49751 0.795,-0.92125 9.35001,-15.325008 8.25001,-20.296261 -0.2375,-1.07625 -0.9225,-2.068751 -1.81125,-2.876251 -2.92375,-2.658752 -9.26626,-4.558753 -12.77376,-8.110005 -2.1125,-2.140001 -4.13875,-5.102503 -4.13875,-5.102503 0,0 1.22,-0.55875 2.36125,-1.273751 1.59375,-1.00125 3.03125,-2.311251 3.03125,-2.311251 0,0 -3.5825,-2.177501 -6.065,-4.566252 -6.48626,-6.242504 -5.49876,-11.258757 -10.28251,-3.896253 -3.57125,5.498754 -3.92,7.340005 -1.4175,13.965008 0.9475,2.507502 8.1475,12.782507 9.85001,14.057508 6.45,4.827503 18.59876,8.100005 11.1175,13.318758 -5.64375,3.935003 -16.69126,9.025003 -24.50251,9.416253 -3.04875,0.15375 -6.97251,-1.9775 -9.31626,-4.81375 l -4.155,-10.236257 z m 20.12126,-81.937545 c 0,0 -2.62,0.0625 -3.6875,-0.09625 -0.6975,-0.1037496 -1.28375,-0.7787499 -0.84375,-1.7825005 0.1525,-0.3450002 1.2525,-1.1750007 2.19875,-1.4575008 -0.004,0.00125 2.46875,1.1712506 2.45625,1.3675007 -0.0312,0.5037503 -0.12375,1.9687516 -0.12375,1.9687516 z M 150.26339,9.0016969 c -1.34875,5.7175031 4.55375,9.6637551 8.33375,8.3625051 2.9125,-1.002501 8.91001,-10.3837563 7.27875,-13.7162581 -0.28375,-0.5787503 -3.1425,-2.90375164 -4.64875,-3.38750192 -2.09625,-0.67375037 -6.52,0.12375007 -7.1275,0.54750031 -0.5525,0.38625021 -3.1825,5.42000301 -3.83625,8.19375461 z M 25.234566,34.535461 c -15.042133,1.440001 -3.206252,-18.51001 1.972501,-24.9037638 1.855001,-2.2900013 14.310008,-21.8275122 -4.875003,2.3125018 -0.24125,0.3025 -0.4775,0.60625 -0.7125,0.91125 -3.691252,4.810003 -17.4358847,31.975018 -1.680001,33.595019 1.525001,0.15625 3.146252,0.09625 3.687502,-0.25375 1.565001,-1.015001 3.520002,-5.201253 4.428753,-8.052505 1.527501,-4.791252 -2.398752,-3.648752 -2.821252,-3.608752 z m 101.258804,-14.308758 1.08,-8.583755 c 0.2225,-1.7762506 0.21125,-2.1525008 -0.12,-3.7650018 -0.32125,-1.5575008 -3.34875,-8.38125464 -5.26875,-7.84750434 -0.9975,0.27625015 -1.6975,2.42125134 -1.95375,3.59625204 -0.295,1.3600007 -0.38,2.6450015 0.12375,3.631252 0.525,1.0325006 1.695,1.738751 2.4625,2.7737511 3.7725,5.091253 -0.38,12.771258 -2.1325,18.065011 -1.035,3.123751 -0.47125,3.675002 2.35,4.863752 6.4425,2.712502 9.53626,2.626252 11.62501,-5.312503 0.6725,-2.552501 0.62875,-5.008752 -1.61375,-6.013753 -2.0975,-0.940001 -6.55251,-1.407501 -6.55251,-1.407501 z m 69.78129,73.167541 c -0.0913,3.148752 0.1975,9.500006 4.15875,-0.165 0.56125,-1.370001 1.08875,-2.953752 1.56876,-4.557503 2.83375,-9.462505 0.77625,-20.586261 -0.19626,-30.317516 -1.3425,-13.420008 -3.86,-38.608772 -3.86,-38.608772 0,0 0.31125,0.01875 1.1125,0.07 5.88126,1.295001 5.64751,1.058751 4.50126,-0.3425 -6.12626,-11.5200067 0.7025,-22.6537629 -7.68501,-18.63501069 -0.98375,0.50125029 -2.0875,1.43000079 -3.215,2.63375149 -2.67,2.8525016 -3.01,4.1000023 -2.47125,7.2575042 0.605,3.542502 1.69,8.251254 1.88375,12.631257 0.2175,4.916253 -0.68625,9.420005 -0.52625,13.648758 0.1275,3.366251 0.93,6.557503 1.6325,10.995006 0.685,4.325002 1.27375,9.832505 1.7575,15.283758 0.995,11.221257 1.6325,19.987511 1.33875,30.106267 z m -12.68251,19.437516 c -0.37,1.3325 -1.57,4.71875 -1.1525,5.4125 0.2,0.33125 0.76875,0.0487 1.4625,-0.2775 5.03126,-2.365 19.10627,-9.67251 20.53752,-11.20876 1.09,-1.17125 2.9075,-4.6275 2.32,-5.58125 -0.27375,-0.44375 -1.1225,-0.34375 -2.11625,-0.1325 -2.32125,0.49375 -19.07251,9.4875 -20.48501,10.99875 -0.25876,0.27625 -0.50126,0.555 -0.56626,0.78876 z" />
</svg>
