<?xml version="1.0" encoding="UTF-8" standalone="yes"?>
<svg>
<path
	style="stroke:none; fill:#000000"
	d="m 13.651,51.004964 -4.102,4.849 c -0.682,0.806 -0.779,0.951 -0.97,1.447 -0.267,0.695 -0.359,1.857 -0.228,2.015 0.425,0.51 1.927,-0.728 2.45,-1.187 4.58,-4.019 6.666,-6.55 7.407,-11.753 0.376,-2.645 -0.801,-3.669 -2.884,-4.006 -3.304,-0.536 -6.583,0.012 -7.866,2.972 0.2,11.301 0.482,4.839 3.284,4.036 3.117,-0.892 6.469,-2.875 2.909,1.627 z m 97.574,10.429 c 0,0 0,0 0,0 0,0 2.944,-2.398 3.106,-11.513 0.095,-1.439 0.137,-3.079 0.169,-5.049 0.108,-6.717 0.163,-14.03 -0.198,-21.362 -0.14,-2.854 -0.344,-5.711 -0.474,-8.26 -0.041,-0.8 -0.074,-1.57 0.137,-1.76 0.121,-0.108 0.322,-0.028 0.534,0.19 0.034,0.035 0.069,0.074 0.104,0.115 2.403,1.964 2.269,1.436 1.868,0.463 -0.65,-1.578 -0.939,-6.4640001 -1.093,-8.2570001 -0.126,-1.482 -0.222,-2.609 -0.222,-2.609 -0.102,-1.186 -0.12,-1.365 -0.178,-1.788 L 114.812,-3.6104905e-5 113.453,0.8039639 c -0.383,0.227 -0.824,0.584 -1.309,1.021 -0.593,0.533 -0.983,1.052 -1.314,1.949 -0.488,1.323 -0.805,4.958 -0.485,5.578 0.078,0.152 0.176,0.263 0.271,0.432 0.756,1.3510001 0.893,3.6830001 0.659,4.7400001 -0.189,0.853 -0.61,1.684 -0.945,2.549 -0.418,1.078 0.173,13.372 0.415,23.746 0.111,4.76 0.48,20.615 0.48,20.615 z m -40.294,-18.475 0.304,2.933 c 0.111,1.072 0.057,1.282 -0.538,2.098 -5.664,7.767 -7.186,7.975 -15.841,13.276 -1.322,0.81 -2.387,1.465 -4.324,2.135 -2.2,0.761 -5.525,1.542 -5.525,1.542 0,0 2.243,0.619 3.912,0.91 3.109,0.541 11.321,0.041 11.866,-0.171 0.708,-0.274 2.998,-2.266 5.342,-4.528 4.82,-4.649 8.287,-11.638 8.279,-19.567 -0.002,-1.876 -0.297,-4.714 -0.776,-6.957 -0.722,-3.387 -3.061,-8.512 -5.552,-10.292 -0.375,-0.269 -0.806,-0.568 -1.301,-0.907 -1.067,-0.73 -2.041,-1.312 -2.469,-1.472 -3.26,-1.225 -5.04,3.946 -6.243,9.397 -0.719,3.26 -0.673,4.342 0.504,7.587 1.006,2.776 2.349,4.269 4.844,4.651 2.262,0.346 7.518,-0.635 7.518,-0.635 z m -3.872,-7.882 -1.722,0.054 c -0.773,0.024 -0.922,0.004 -1.492,-0.206 -1.443,-0.529 -2.798,-2.242 -2.923,-3.658 -0.058,-0.656 -0.035,-1.599 -0.035,-1.599 0,0 0.757,-0.09 1.344,-0.042 1.165,0.095 4.595,2.885 4.798,4.116 0.099,0.595 0.03,1.335 0.03,1.335 z m -29.507,13.9 c -0.386,0.502 -0.757,1.443 -1.225,2.064 -1.637,2.176 -5.976,2.246 -7.632,1.041 -0.58,-0.422 -1.176,-1.027 -1.699,-1.807 -2.268,-3.383 -2.766,-6.612 -4.206,-2.949 -1.879,4.781 -3.015,7.374 -1.429,11.79 1.158,3.222 2.181,4.671 1.444,5.92 -1.562,2.646 -8.836,3.321 -11.091,2.931 -5.369,-0.926 -10.26,-7.205 -11.714,-14.496 0,0.005 0.02,2.337 0.04,4.72 0.032,3.752 1.095,15.87 9.948,17.567 1.203,0.231 2.544,0.146 4.166,-0.199 4.556,-0.97 9.305,-3.574 10.458,-8.707 0.479,-2.134 0.74,-5.084 1.4,-6.408 0.302,-0.604 0.524,-0.437 1.418,-0.162 1.549,0.475 4.024,-0.004 5.603,-0.815 3.646,-1.951 4.934,-4.463 5.277,-6.574 1.58,4.883 4.923,5.811 8.066,5.841 2.579,0.025 5.643,-0.397 6.863,-1.475 1.061,-0.937 0.799,-1.67 1.43,-3.505 0.494,-1.437 1.575,-2.75 2.145,-3.967 0.286,-0.609 0.444,-1.195 0.562,-1.871 0.135,-0.77 0.42,-8.806 -0.921,-10.835 -1.231,-1.862 -2.965,1.901 -3.544,3.534 -0.567,1.598 -0.586,2.387 -0.354,4.253 0.263,2.114 0.789,5.66 0.789,5.66 0,0 -0.788,0.227 -1.502,0.382 -4.71,1.024 -8.956,-0.18 -9.62,-5.111 -0.266,-1.98 -0.235,-5.278 -1.617,-4.236 -0.856,0.646 -3.075,6.413 -3.075,6.858 0,0.18 0.008,0.367 0.02,0.556 z m 32.317,16.755 c -1.938,1.053 -3.811,1.998 -5.172,2.65 -1.993,0.954 -8.323,2.722 -11.681,3.262 -2.774,0.446 -6.174,0.9 -6.174,0.9 0,0 -0.064,0.45 0.007,0.697 0.012,0.041 0.027,0.076 0.046,0.107 4.86,0.612 8.536,0.33 11.944,1.881 0.119,0.067 0.235,0.133 0.357,0.193 2.223,1.092 5.483,0.121 8.531,-1.452 9.138,-4.717 14.466,-9.575 17.712,-17.925 0.511,-1.315 0.984,-2.418 1.26,-2.866 0.149,-0.242 0.295,-0.468 0.487,-0.649 0.259,-0.244 0.289,-0.388 0.303,-1.435 0.02,-1.563 0.024,-3.112 -0.233,-4.674 -0.218,-1.332 -1.468,-5.232 -0.943,-5.432 0.134,-0.051 0.379,0.092 0.665,0.258 0.175,0.101 2.824,1.637 2.824,1.637 0,0 -0.527,-0.985 -1.361,-2.543 -2.812,-5.254 -2.439,-4.173 -4.41,-9.953 -0.341,-0.999 -0.845,-2.477 -0.845,-2.477 l -2.148,2.311 c -1.412,1.519 -2.352,4.182 -2.355,4.86 -0.009,2.204 4.72,16.196 4.74,18.517 0.006,0.678 -0.068,1.289 -0.31,1.553 -0.082,0.09 -0.243,0.277 -0.463,0.535 -1.528,1.791 -5.072,5.857 -12.781,10.045 z m 10.788,-13.759 -1.282,15.594 c 0.297,0.977 0.378,2.827 0.805,4.088 1.035,3.052 4.124,4.566 6.283,4.171 3.886,-0.713 14.7,-7.583 16.109,-10.294 1.028,-1.979 1.413,-4.711 2.537,-6.618 0.654,-1.108 1.557,-1.937 1.898,-3.06 0.65,-2.141 -0.527,-5.064 -1.994,-6.618 -1.454,-1.539 -7.391,-5.359 -6.286,-6.944 0.7,-1.003 1.19,-0.778 0.713,-1.959 -0.224,-0.556 -0.553,-1.191 -0.966,-1.783 -1.138,-1.633 -2.915,-2.949 -3.701,-4.656 -0.701,-1.521 -1.032,-4.002 -2.257,-3.065 -0.231,0.176 -2.556,4.843 -2.759,5.923 -0.36,1.919 1.555,7.332 2.305,8.736 0.823,1.538 4.378,5.874 6.068,7.612 1.475,1.519 5.033,4.524 4.54,6.004 -0.188,0.567 -0.879,1.203 -1.608,1.803 -0.751,0.618 -9.802,6.528 -12.685,7.148 -0.986,0.212 -1.979,-0.118 -2.828,-0.717 -3.33,-3.945 -4.012,-11.737 -4.815,-15.389 -0.025,0.007 -0.051,0.015 -0.077,0.024 z m 22.338,21.887 c -0.305,1.908 0.066,2.377 1.335,1.791 0.863,-0.399 12.008,-6.881 13.636,-8.823 0.655,-0.781 1.309,-2.165 1.54,-3.409 0.142,-0.766 -0.088,-0.739 -0.913,-0.432 -1.913,0.711 -14.521,8.386 -14.917,9.08 -0.368,0.648 -0.605,1.32 -0.681,1.793 z m -5.684,-51.59 c 2.166,1.903 5.314,2.893 6.554,1.036 0.804,-1.206 2.115,-3.719 2.115,-3.719 0,0 -1.332,-2.012 -2.443,-2.876 -0.747,-0.582 -2.172,-0.824 -3.015,-0.367 -0.744,0.404 -1.612,1.572 -2.083,1.094 -0.571,-0.58 1.292,-4.383 1.408,-4.709 1.426,-3.9910001 1.35,-6.4840001 0.255,-9.7990001 -0.337,-1.02 -0.709,-2.056 -1.229,-2.461 L 98.27,-3.6104905e-5 97.639,0.6739639 c -0.984,1.049 -0.796,3.799 -0.474,4.927 0.3,1.055 0.827,2.104 1.124,3.238 0.353,1.3480001 0.181,4.4970001 -0.322,5.9160001 -0.695,1.956 -1.976,3.749 -1.694,5.885 0.096,0.73 0.2,0.894 1.038,1.63 z m -27.089,0 c 2.165,1.903 5.314,2.893 6.554,1.036 0.804,-1.206 2.115,-3.719 2.115,-3.719 0,0 -1.332,-2.012 -2.443,-2.876 -0.747,-0.582 -2.173,-0.824 -3.015,-0.367 -0.744,0.404 -1.612,1.572 -2.083,1.094 -0.572,-0.58 1.292,-4.383 1.408,-4.709 1.426,-3.9910001 1.35,-6.4840001 0.255,-9.7990001 -0.337,-1.02 -0.709,-2.056 -1.23,-2.461 L 71.181,-3.6104905e-5 70.55,0.6739639 c -0.984,1.049 -0.796,3.799 -0.475,4.927 0.301,1.055 0.828,2.104 1.125,3.238 0.353,1.3480001 0.181,4.4970001 -0.323,5.9160001 -0.694,1.956 -1.975,3.749 -1.693,5.885 0.096,0.73 0.2,0.894 1.038,1.63 z M 85.996,7.4109639 81.893,11.485964 c -0.682,0.678 -0.779,0.799 -0.969,1.216 -0.267,0.584 -0.36,1.561 -0.229,1.694 0.425,0.428 1.928,-0.612 2.451,-0.998 4.579,-3.377 6.665,-5.5050001 7.406,-9.8780001 0.376,-2.223 -0.801,-3.083 -2.884,-3.367 -3.304,-0.45 -6.583,0.01 -7.866,2.498 0.2,9.4980001 0.482,4.067 3.284,3.392 3.117,-0.75 6.469,-2.416 2.91,1.368 z"/>
</svg>