<?xml version="1.0" encoding="UTF-8" standalone="no"?>
<svg>
  <path
     d="m 91.565519,31.66775 c 0.005,-0.202 -0.0215,-0.416 -0.0702,-0.584 -0.1026,-0.352 -0.3037,-0.503 -0.745,-0.674 -0.374,-0.144 -0.9205,-0.302 -1.4933,-0.451 -2.3828,-0.618 -3.3705,-0.255 -1.7285,-1.471 1.6915,-1.252 33.536501,-13.207 38.919501,-15.082 4.914,-1.711 3.264,-0.417 1.753,1.981 -1.822,2.894 -6.227,10.882 2.376,0.63 4.217,-5.025 7.796,-4.485 15.734,-8.035 3.109,-1.391 4.455,-2.078 4.533,-4.004 0.005,-0.114 0.008,-0.238 0.011,-0.367 0.043,-2.512 -1.907,-1.579 -4.279,-0.86 -10.371,3.14 -46.419,15.464 -57.093201,20.472 -5.8607,2.75 -8.3879,7.188 -2.758,9.654 2.1923,0.96 4.7598,2.086 4.8407,-1.209 z m -68.0406,43.187 c 15.8955,6.032 36.1306,7.157 52.4407,5.378 0.5849,-0.064 1.1719,-0.131 1.7602,-0.201 11.5023,-1.363 28.619201,-3.761 37.817201,-11.7 6.119,-4.603 6.767,-11.106 -1.814,-12.94 -0.935,-0.2 -1.986,-0.278 -3.431,-0.341 -0.76,-0.034 -1.629,-0.063 -2.526,-0.088 -5.077,-0.145 -8.616701,0.617 -3.843,-2.355 0.246,-0.154 0.491,-0.301 0.727,-0.437 1.719,-0.99 6.023,-2.258 9.675,-2.938 3.536,-0.658 6.56,-1.228 7.93,1.943 2.229,5.16 6.784,5.044 12.113,2.955 0.53,-0.208 1.68,-0.861 2.401,-0.651 0.947,0.276 3.873,0.796 6.506,0.765 6.745,-0.081 2.882,-3.765 7.966,-1.212 4.152,2.085 10.963,4.676 16.393,1.249 0.531,-0.424 1.104,-1.01 1.501,-1.58 0.774,1.073 2.037,1.727 4.474,2.669 10.94,4.225 19.549,4.189 30.36,-0.134 1.811,-0.725 2.918,-1.233 3.785,-2.106 2.021,-2.037 3.644,-5.105 1.946,-5.974 -0.602,-0.308 -1.527,-0.201 -2.488,0 -2.866,0.6 -5.672,1.648 -8.339,2.535 -7.564,2.516 -14.311,2.198 -17.236,-5.83 -0.384,-1.055 -0.005,-1.932 1.751,-2.585 6.643,-2.468 9.731,-1.548 15.559,0.335 3.389,1.095 5.086,1.297 3.976,-1.344 -1.719,-4.089 -5.323,-7.432 -10.605,-7.743 -3.72,-0.219 -7.242,1.297 -9.926,3.685 -3.451,3.071 -6.432,8.808 -3.706,12.837 0.268,0.397 0.512,0.818 0.635,1.204 0.136,0.43 -0.081,0.445 -0.795,0.32 -2.299,-0.405 -5.765,-1.889 -6.904,-3.414 -0.64,-0.858 -1.685,-5.033 -2.393,-8.11 -0.394,-1.717 -0.32,-5.623 -3.139,-2.019 -2.506,3.205 -1.316,3.548 -0.123,5.52 0.68,1.124 1.154,2.804 1.544,4.237 0.871,3.196 0.767,3.356 -3.26,3.752 -3.946,0.389 -8.487,-0.615 -10.775,-1.62 -2.402,-1.054 -2.134,-1.512 -2.184,-4.056 -0.005,-0.263 -0.012,-0.538 -0.024,-0.822 -0.18,-4.233 -1.219,-7.637 -3.657,-3.289 -1.257,2.242 -1.435,4.292 -0.365,6.807 0.452,1.062 0.209,0.88 -2.954,0.88 -0.161,0 -0.314,0 -0.455,0 -1.134,0 -4.007,0.337 -4.376,-1.024 -0.109,-0.402 -0.035,-0.671 -0.587,-0.581 -0.979,0.159 -1.712,1.436 -2.655,1.96 -0.194,0.109 -0.397,0.185 -0.608,0.255 -0.32,0.108 -2.381,0.585 -4.437,0.802 -4.31,0.457 -4.288,-0.097 -6.054,-3.23 -2.004,-3.553 -4.272,-4 -8.93,-3.174 -0.153,0.028 -0.308,0.056 -0.463,0.086 -5.854,1.128 -17.909001,4.946 -19.315401,10.88 -1.8587,7.841 6.623401,6.47 12.340401,6.366 1.715,-0.031 3.391,0.136 4.962,0.887 0.535,0.256 1.101,0.576 1.624,0.893 3.815,2.318 -5.29,5.703 -7.925,6.543 -9.714801,3.097 -25.278801,5.346 -32.750001,5.83 -19.5469,1.265 -38.2735,-0.023 -55.5264,-8.156 -8.7742,-4.136 -10.2860002,-5.118 -15.9521002,-13.009 -3.113,-4.335 -4.8321,-7.094 -0.9512,1.312 7.8910002,17.093 21.7458002,19.953 21.2856002,19.778 z m 184.308101,-11.126 0,-1.426 -0.795,0 c -0.358,0 -0.501,0.037 -1.432,0.363 -4.266,1.497 -9.664,3.631 -13.294,5.397 -3.365,1.638 -8.366,4.288 -8.366,4.288 0,0 -0.458,2.67 -0.201,3.393 0.114,0.32 0.52,0.194 1.046,-0.071 2.171,-1.091 6.926,-3.041 11.161,-4.897 3.619,-1.586 6.857,-3.103 9.685,-4.25 1.451,-0.588 1.929,-0.816 2.118,-1.719 0.07,-0.329 0.078,-0.437 0.078,-1.078 z m -22.878,-50.848 c -0.337,-2.018 0.005,-4.189 1.975,-4.451 0.757,-0.1 1.702,-0.282 2.632,-0.5 3.344,-0.786 4.437,-1.011 5.279,-4.12 0.297,-1.1 0.059,-2.142 -1.414,-3.106 -2.336,-1.265 -5.166,0.162 -6.993,1.781 -2.6,2.304 -2.494,6.869 -2.518,10.302 -0.03,4.134 -0.412,2.657 0.388,6.737 0.712,3.629 -2.595,2.249 -1.996,-0.589 0.43,-2.032 0.286,-1.471 0.231,-3.608 -0.058,-2.253 -0.094,-9.273 -1.042,-11.202 -1.067,-2.174 -3.133,-4.579 -5.473,-4.051 -1.647,0.371 -2.675,1.391 -3.192,2.623 -1.044,2.488 -0.541,5.879 3.508,4.697 0.312,-0.091 0.622,-0.189 0.918,-0.275 2.842,-0.822 3.44,2.63 3.326,4.296 -0.054,0.783 -0.176,1.668 -0.311,2.595 -0.44,3 -1.164,7.989 0.625,10.847 0.623,0.994 1.639,1.67 3.321,1.359 2.755,-0.509 3.023,-4.572 2.685,-5.978 -0.002,-0.008 -0.004,-0.015 -0.005,-0.023 -0.726,-2.999 -1.621,-5.395 -1.944,-7.334 z m -43.457,58.995 c 0.215,-1.519 -0.551,-1.233 -2.311,-0.716 -8.308,2.444 -5.41,-5.381 -2.67,-10.131 0.148,-0.592 0.036,-0.787 -1.01,0.262 -2.918,2.924 -6.16,11.092 -2.663,13.765 0.331,0.253 0.736,0.459 1.225,0.608 0.397,0.122 0.85,0.203 1.366,0.237 5.408,0.36 5.823,-2.333 6.063,-4.025 z m 9.526,-39.129 c -1.086,1.059 -2.574,2.459 -4.512,4.293 1.536,-0.146 3.286,-0.766 4.942,-1.657 1.868,-1.006 4.354,-2.693 5.575,-4.583 1.243,-1.923 0.971,-4.868 -1.769,-5.848 -1.974,-0.706 -4.61,0.043 -6.703,0.624 -0.816,0.227 -1.938,0.757 -2.309,2.202 -0.891,3.48 0.256,2.899 2.67,2.467 3.025,-0.54 6.473,-1.759 2.106,2.502 z m -49.372,0.177 c -0.796,-0.857 -1.736301,-1.563 -2.798501,-2.022 -1.2911,-0.558 -2.957,-0.976 -2.9311,0.851 10e-4,0.071 0.0031,0.143 0.0058,0.215 0.0344,0.908 -0.4799,3.136 1.3351,3.72 2.5563,0.822 3.942701,2.551 4.718701,4.155 1.801,5.158 2.23,5.163 2.395,3.734 0.083,-0.72 0.131,-1.385 0.152,-1.995 0.118,-3.403 -0.353,-5.943 -2.877,-8.658 z m 0.758,-21.931 3.085,-0.242 c 1.314,-0.104 1.522,-0.195 2.087,-0.912 0.934,-1.186 2.151,-4.712 2.096,-6.027 l -0.071,-1.196 c 0,0 -1,0.02 -1,0.02 -0.453,0.009 -1.154,0.039 -1.819,0.136 -2.788,0.406 -5.059,3.084 -5.739,5.534 -0.073,0.263 -0.149,0.521 -0.234,0.761 l -1.032701,2.932 -1.4323,-2.712 c -0.2875,-0.544 -0.5454,-1.221 -0.8691,-1.822 -1.6618,-3.089 -4.3368,-4.087 -7.2061,-3.35 -2.1061,0.541 -2.1599,1.361 -2.3053,3.804 -0.1287,2.164 0.4536,3.759 2.8596,3.986 1.4223,0.134 2.8782,-1.023 3.9225,-0.798 0.6805,0.146 1.9504,2.658 3.018,4.587 0.7854,1.42 1.9137,2.702 2.870401,1.803 1.147,-1.076 1.77,-6.504 1.77,-6.504 z m 60.051,61.54 3.4,3.401 4.894,-4.894 -4.894,-4.894 -3.4,3.4 -3.401,-3.4 -4.893,4.894 4.893,4.894 3.401,-3.401 z m -34.996,-38.282 c -0.509,-0.052 -1.362,-0.093 -2.036,0.196 -1.157,0.498 -1.222,1.046 -1.714,0.858 -0.456,-0.175 0.768,-3.885 1.422,-7.061 0.559,-2.719 0.083,-5.826 -2.56,-7.367 -0.569,-0.332 -1.123,-0.517 -1.439,-0.319 -0.202,0.126 -1.376,3.88 -0.785,4.415 0.287,0.26 1.034,0.08 1.631,0.337 0.772,0.333 1.562,1.767 1.731,2.383 0.4,1.452 -1.727,8.287 -1.404,10.308 0.37,2.322 2.525,3.819 5.154,3.273 1.507,-0.313 1.904,-1.44 2.219,-3.301 0.208,-1.225 -0.169,-3.51 -2.219,-3.722 z"
     style="fill:#000000;stroke:none" />
</svg>
