<?xml version="1.0" encoding="UTF-8" standalone="yes"?>
<svg>
  <path
    style="stroke:none; fill:#000000"
    d="m 11.894,38.67158 0,-1.583 c 0,0 -3.6081,0.934 -5.8252,1.348 -2.8425,0.532 -4.2995,-0.453 -4.4229,-3.505 -0.0461,-1.143 0.234,-2.324 0.6743,-3.506 0.532,-1.429 2.9298,-6.181 1.5775,-7.376 -1.0833,-0.958 -2.2894,2.437 -2.7911,4.274 -0.7801,2.857 -2.401,10.671 0.809,13.754 1.8,1.729 5.0538,0.798 7.2815,0.27 1.9756,-0.469 2.3556,-0.542 2.5954,-2.188 0.0913,-0.628 0.1015,-0.777 0.1015,-1.488 z m 101.407,35.026 c 0.166,2.292 1.235,3.717 3.18,4.128 2.509,0.531 3.928,-0.83 4.571,-3.582 0.141,-0.604 0.109,-1.107 -0.28,-1.35 -0.739,-0.462 -2.769,0.018 -3.75,-0.503 -1.221,-0.649 -1.531,-3.405 -1.229,-4.694 0.302,-1.29 1.073,-2.671 1.283,-3.665 0.042,-0.202 0.061,-0.387 -0.026,-0.491 -0.011,-0.013 -0.022,-0.025 -0.033,-0.037 -2.953,-0.673 -3.671,10.813 -3.716,10.194 z m -6.854,-14.029 c 3.63,-0.985 7.387,-2.183 8.231,-2.764 2.468,-1.698 5.487,-6.156 6.043,-9.538 0.048,-0.29 0.058,-0.846 -0.069,-1.171 -0.16,-0.405 -0.704,-0.434 -1.013,-0.371 l -1.589,0.413 -1.769,0.621 c -2.549,1.01 -5.135,1.887 -7.75,2.628 -6.072,1.643 -8.476,-2.623 -11.413,-7.49 -0.653,-1.082 -0.688,-1.805 -0.692,-3.005 6.03,-1.799 10.961,-2.216 16.913,-0.941 0.273,0.059 0.529,-0.175 0.548,-0.5 0.093,-1.601 -0.038,-2.657 -0.901,-3.698 -1.301,-1.568 -3.088,-2.742 -4.84,-3.547 -2.955,-1.374 -6.253,-1.321 -9.175,0.148 -3.277,1.681 -5.844,4.831 -7.128,8.746 -1.65,4.759 -0.044,7.994 1.793,11.953 -0.511,0.036 -1.023,0.044 -1.534,0.025 -0.502,-0.038 -1.131,-0.275 -1.803,-0.651 -4.709,-2.634 -4.705,-4.752 -5.674,-9.365 -0.387,-1.842 -0.557,-3.49 -1.605,-2.861 -0.183,0.11 -2.295,3.073 -2.622,4.219 -0.189,0.658 -0.216,0.864 -0.268,2.056 0,0 -0.045,1.035 -0.088,2.03 -0.075,1.703 -0.235,2.595 -2.546,2.338 -0.189,-0.021 -0.379,-0.048 -0.562,-0.074 -1.125,-0.163 -1.922,-0.324 -2.709,-0.782 -1.775,-1.034 -2.537,-2.305 -3.942,-1.487 -0.758,0.442 -1.444,1.452 -2.279,2.1 -1.317,1.023 -3.533,1.373 -4.994,0.888 -1.597,-0.53 -3.043,-2.101 -3.985,-1.944 -0.803,0.134 -1.24,1.522 -2.368,2.552 -2.71,2.472 -5.21,2.063 -7.728,-0.338 -0.441,-0.42 -0.773,-0.827 -1.046,-1.373 -1.707,-3.409 -0.94,-4.589 -3.664,-5.469 -3.038,-0.982 -5.503,0.331 -8.566,1.838 -7.883,3.879 -12.537,6.215 -14.021,14.096 -1.008,5.353 2.82,6.234 6.477,6.56 2.378,0.213 5.514,0.493 5.514,0.493 0,0 0.12,0.844 -0.064,1.475 -0.231,0.792 -7.267,2.308 -9.755,2.52 -4.317,0.369 -7.917,-0.707 -10.7116,-2.713 -11.6431,-8.355 -1.3841,-31.764 -3.1046,-28.561 -0.9382,1.747 -1.9833,3.794 -2.83,5.536 -2.4338,5.009 -3.9341,9.373 -4.541,13.147 -2.17,13.495 16.4602,26.4 29.3012,17.701 1.844,-1.25 3.391,-2.916 4.712,-5.078 1.059,-1.732 4.502,-9.095 3.472,-10.532 -0.445,-0.619 -2.944,-1.289 -4.659,-1.559 -1.884,-0.297 -4.545,-0.466 -6.389,-0.553 -5.723,-0.272 -0.608,-2.9 1.246,-3.773 0.414,-0.195 0.831,-0.376 1.233,-0.532 4.815,-1.877 7.932,-3.949 10.059,-1.353 1.495,1.824 2.402,5.958 4.003,7.333 1.138,0.979 4.524,1.403 6.452,0.446 1.198,-0.595 1.957,-1.352 2.675,-1.92 l 1.558,-1.231 1.922,0.748 c 0.708,0.276 1.365,0.636 2.101,0.772 1.048,0.195 3.258,-0.356 4.566,-1.138 l 3.198,-1.985 2.217,0.9 c 0.876,0.355 1.79,0.79 2.682,1.006 1.486,0.36 6.543,0.028 7.364,-1.448 0.507,-0.912 0.96,-3.236 0.96,-3.236 0,0 0.448,0.792 1.086,1.696 0.581,0.824 1.034,1.514 1.402,2.098 1.578,2.501 4.307,3.915 7.273,4.673 8.956,2.287 14.088,-0.419 15.396,-0.774 z m -79.385,-43.673 -0.138,-3.16 c -0.055,-1.278 -0.037,-1.507 0.185,-2.289 0.164,-0.581 0.338,-1.216 0.779,-1.625 1.073,-0.997 3.731,-0.652 4.963,-1.474 1.774,-1.182 1.775,-5.244 0.41,-6.89 -1.448,-1.746 -4.374,1.026 -5.574,2.613 -0.736,0.974 -1.434,2.091 -1.747,3.394 -0.146,0.604 -0.226,1.29 -0.34,1.89 l -0.557,2.939 -1.839,-2.339 c -2.517,-3.315 -1.749,-4.3 -5.448,-5.202 -1.239,-0.302 -3.9263,-0.189 -4.4428,1.206 -0.4042,1.092 0.5447,3.747 1.1391,4.378 0.4567,0.485 2.3077,1.688 3.0727,1.761 1.249,0.121 3.802,-0.64 3.802,-0.64 0,0 2.06,2.966 3.318,4.358 0.549,0.608 1.003,1.098 1.708,1.111 0.291,0.005 0.709,-0.031 0.709,-0.031 z m 12.982,22.59 0.551,-0.009 c 0.248,-0.005 0.315,-0.155 0.665,-1.508 2.016,-7.782 2.384,-12.078 -2.574,-17.069 -0.817,-0.821 -1.768,-1.511 -2.381,-0.774 -0.416,0.5 -0.84,4.027 -0.651,4.797 0.332,1.348 1.314,1.785 2.449,2.7 2.563,2.066 3.205,3.616 2.879,6.367 -0.25,2.112 -0.938,5.496 -0.938,5.496 z m -20.442,-4.704 c -0.041,-1.101 -0.165,-2.485 -0.527,-2.832 -0.21,-0.202 -0.5,-0.056 -0.681,-0.165 -0.818,-0.49 0.572,-2.513 1.235,-3.287 6.012,-7.018 21.594,-15.732 29.826,-17.534 0.785,-0.172 1.569,-0.311 1.717,-0.045 0.074,0.132 -0.009,0.364 -0.136,0.626 -0.298,0.615 -0.774,1.359 -1.302,2.157 -10.964,16.556 6.33,-6.42 11.238,-7.065 0.449,-0.222 0.87,-0.4 1.243,-0.518 1.91,-0.601 3.978,-0.729 4.229,-2.559 0.036,-0.257 0.041,-0.577 0.032,-0.888 -0.083,-2.998 -4.977,-1.564 -8.425,-0.252 -3.192,1.214 -7.932,3.214 -12.959,5.54 -6.506,3.01 -25.983,12.044 -28.723,19.891 -0.883,2.529 -0.719,5.362 1.041,7.799 0.076,0.104 0.144,0.199 0.207,0.283 -0.795,-1.079 2.154,3.46 1.985,-1.151 z m 57.483,6.261 c 0.6,-0.461 0.879,-1.251 1.311,-2.676 0.452,-1.495 0.811,-2.834 0.695,-4.325 -0.231,-2.957 -3.428,-8.517 0.426,-9.898 0.711,-0.255 1.636,-0.088 2.433,0.085 1.075,0.235 1.257,0.128 1.824,-1.061 0.465,-0.979 1.004,-1.879 1.3,-2.932 1.113,-3.952 -0.59,-5.067 -4.007,-3.448 -3.919,1.857 -5.68,9.813 -4.842,15.147 0.256,2.199 0.537,4.179 0.537,4.179 0,0 -0.653,-0.008 -1.077,-0.125 -0.526,-0.146 -0.697,-0.46 -1.083,-0.781 -0.235,-0.196 -0.55,-0.394 -0.864,-0.514 -0.424,-0.163 -0.479,-0.326 -0.548,-1.639 l -0.493,-9.41 c -0.069,-1.313 -0.096,-1.541 -0.271,-2.284 -0.536,-2.279 -1.979,-3.527 -3.488,-4.333 -1.918,-1.025 -3.382,-1.405 -5.359,0.037 -1.626,1.186 -1.779,5.481 -1.14,6.152 0.477,0.501 1.74,0.456 3.269,0.097 3.82,-0.897 4.203,-0.69 5.197,3.349 0.473,1.919 0.529,3.718 0.296,5.648 -0.374,3.106 -1.13,5.003 -0.487,6.787 -2.957,0.696 -6.936,0.871 -9.435,0.449 -1.042,-0.176 -2.022,-0.407 -3.081,-0.76 -2.052,-0.685 -4.395,-1.831 -6.209,-2.301 -0.826,-0.213 -1.201,-0.127 -0.915,0.668 0.54,1.496 3.66,3.13 6.367,4.239 4.155,1.703 14.399,3.679 19.644,-0.35 z m -29.936,33.555 c 0.166,2.292 1.235,3.717 3.18,4.128 2.509,0.531 3.928,-0.83 4.571,-3.582 0.141,-0.604 0.109,-1.107 -0.28,-1.35 -0.739,-0.462 -2.769,0.018 -3.75,-0.503 -1.221,-0.649 -1.531,-3.405 -1.229,-4.694 0.302,-1.29 1.073,-2.671 1.282,-3.665 0.043,-0.202 0.063,-0.387 -0.025,-0.491 -0.011,-0.013 -0.022,-0.025 -0.033,-0.037 -2.953,-0.673 -3.671,10.813 -3.716,10.194 z m 45.158,-56.714 -0.493,-9.41 c -0.069,-1.312 -0.096,-1.541 -0.271,-2.284 -0.536,-2.279 -1.979,-3.527 -3.488,-4.333 -1.918,-1.025 -3.382,-1.405 -5.359,0.037 -1.626,1.186 -1.779,5.481 -1.14,6.152 0.477,0.501 1.74,0.456 3.27,0.097 3.819,-0.897 4.202,-0.69 5.197,3.349 0.472,1.92 0.528,3.718 0.296,5.648 -0.494,4.1 -1.654,6.094 0.619,8.5 0.947,1.002 1.935,1.154 4.094,0.709 1.534,-0.316 1.838,-1.028 2.481,-3.152 0.453,-1.496 0.811,-2.835 0.695,-4.326 -0.23,-2.957 -3.428,-8.517 0.426,-9.898 0.711,-0.255 1.636,-0.088 2.433,0.085 1.075,0.235 1.257,0.129 1.824,-1.061 0.466,-0.979 1.004,-1.879 1.301,-2.932 1.112,-3.952 -0.591,-5.067 -4.008,-3.448 -3.919,1.857 -5.679,9.813 -4.842,15.147 0.256,2.199 0.537,4.179 0.537,4.179 0,0 -0.653,-0.008 -1.077,-0.125 -0.526,-0.146 -0.697,-0.46 -1.083,-0.781 -0.235,-0.196 -0.55,-0.394 -0.864,-0.514 -0.424,-0.163 -0.479,-0.326 -0.548,-1.639 z m -20.48,51.681 4.23,4.23 5.305,-5.305 -5.305,-5.304 -4.23,4.23 -4.23,-4.23 -5.304,5.304 5.304,5.305 4.23,-4.23 z"/>
</svg>