<?xml version="1.0" encoding="UTF-8" standalone="no"?>
<svg>
  <path
     style="stroke:none; fill:#000000"
     d="m 73.270763,98.31201 c -0.41875,3.0525 0.09,3.8025 1.82875,2.865 1.18375,-0.6375 16.4525,-11.01251 18.68375,-14.11876 0.8975,-1.25125 1.79375,-3.46375 2.11,-5.455 0.19375,-1.22625 -0.12125,-1.1825 -1.25125,-0.69125 -2.62125,1.1375 -19.89625,13.42 -20.4375,14.53001 -0.50625,1.03625 -0.83,2.11125 -0.93375,2.87 z M 2.3657532,95.97826 c 0.1875,3.01375 1.39125,4.8875 3.58125,5.42875 2.825,0.6975 4.4224998,-1.09125 5.1462498,-4.71125 0.15875,-0.79375 0.12375,-1.455 -0.315,-1.77501 -0.8312498,-0.6075 -3.1174998,0.0238 -4.2224998,-0.6625 -1.37375,-0.8525 -1.72375,-4.4775 -1.38375,-6.1725 0.34,-1.69625 1.2075,-3.5125 1.44375,-4.82 0.0487,-0.265 0.07,-0.50875 -0.0288,-0.645 -0.0125,-0.0175 -0.025,-0.0338 -0.0375,-0.0488 -3.325,-0.885 -4.1325,14.22001 -4.18375,13.40626 z M 57.798263,50.48075 57.277013,38.84574 c -0.0775,-1.72625 -0.10875,-2.02625 -0.305,-3.00375 -0.60375,-2.9975 -2.22875,-4.63875 -3.9275,-5.69875 -2.16,-1.3475 -3.80875,-1.8475 -6.03501,0.0487 -1.83,1.56 -2.0025,7.20875 -1.28375,8.09125 0.5375,0.65875 1.96001,0.6 3.68251,0.1275 4.3,-1.18 4.73125,-0.9075 5.85125,4.40376 0.5325,2.525 0.595,4.89 0.33375,7.42875 -0.55625,5.39125 -1.8625,8.01375 0.6975,11.17875 1.065,1.31625 2.17875,1.51625 4.61,0.93125 1.72625,-0.415 2.06875,-1.3525 2.79375,-4.14625 0.50875,-1.96625 0.9125,-3.7275 0.7825,-5.6875 -0.26,-3.89 -3.86125,-11.20126 0.47875,-13.01751 0.80125,-0.335 1.8425,-0.11625 2.74,0.1125 1.21125,0.3075 1.41625,0.16875 2.05375,-1.39625 0.525,-1.28625 1.13125,-2.47 1.465,-3.855 1.2525,-5.1975 -0.665,-6.665 -4.5125,-4.53625 -4.4125,2.4425 -6.395,12.90626 -5.4525,19.92126 0.28875,2.8925 0.605,5.49625 0.605,5.49625 0,0 -0.26375,-0.004 -0.5775,-0.04 -1.23625,-0.1425 -3.35875,-2.0575 -3.47875,-4.72375 z m -2.8175,46.37376 4.025,4.70125 4.93625,-5.765 -4.93625,-5.76376 -4.025,4.70125 -4.025,-4.70125 -4.93501,5.76376 4.93501,5.765 4.025,-4.70125 z m 54.771257,-6.82751 -4.935,5.76376 4.935,5.765 4.93625,-5.765 -4.93625,-5.76376 z M 29.050753,68.3045 c -0.6175,0.49375 -1.17875,0.82375 -1.7275,0.95625 -4.41,1.07 -3.6475,-3.89625 -1.93625,-5.2525 1.06375,-0.8425 1.4675,-0.69875 2.55125,0.1975 1.3525,1.1175 3.345,2.32 1.1125,4.09875 z m 1.9275,2.16875 c 0,0 0.77125,-2.0125 1.3375,-4.14125 0.70375,-2.64125 1.09125,-5.45875 1.09125,-5.45875 0,0 3.0775,0.63125 4.65375,1.46375 0.79,0.41625 5.4125,5.0475 4.925,6.04 -0.59875,1.21875 -4.4025,2.37 -5.08875,2.4275 -2.4475,0.205 -6.91875,-0.33125 -6.91875,-0.33125 z M 3.0444632,0.00824006 c -0.35889,0.074646 -0.88031,0.66210937 -1.625,1.87500004 -1.81124996,2.95 -1.44874996,4.305 -1.24999996,14.4687499 0.0375,0.6625 0.0863,1.29625 0.125,1.875 0.56295,8.086646 0.71255996,17.37151 0.6875,22.25 0.73874996,18.23126 0.99999996,27.0075 2.84374996,32.21875 0.9525,2.68875 3.18875,5.2375 5.8125,7.03125 5.5799998,3.81375 8.5812498,2.8987 14.1562498,0.09375 2.16875,-1.09125 2.58125,-0.6575 4.875,-0.3125 2.9775,0.4475 6.69875,0.9475 7.8125,0.6875 1.61875,-0.37875 2.44875,-1.44375 3.21875,-1.0625 0.41375,0.20625 0.79875,0.82375 1.25,1.53125 2.82,4.43125 9.40375,4.21375 13.5,3.03125 1.22125,-0.3525 2.28625,-0.815 3.03125,-1.40625 1.98375,-1.57125 2.99875,-3.53625 3.9375,-2.71875 0.20375,0.17875 0.3925,0.47 0.59375,0.84375 1.44625,2.68125 7.85,5.905 11.84375,4.625 5.62375,-1.80125 5.61375,-12.7425 4.8125,-17.4375 -0.77375,-4.52875 -2.74125,-28.735 -2.59375,-32.0625 0.0913,-2.03375 0.23,-8.235 0.375,-10.1875 0.0825,-18.1412495 6.86,3.1975 1.5,-17.1562499 -0.29,-1.1025 -0.5675,-2.185 -0.875,-3.1875 -1.425,-4.63125005 -1.97375,-6.5325 -5.03125,-1.59375 -1.1425,1.845 -2.055,4.145 -1.6875,5.53125 0.1325,0.50125 0.39375,0.9762504 0.6875,1.4687499 2.1725,3.65375 2.38875,11.33125 2.125,17.15625 -0.89375,19.68501 -0.52875,17.65375 1.15625,37.28125 0.125,1.45625 0.2375,2.8775 0.34375,4.21875 0.30875,3.87875 1.4175,7.975 -1.90625,7.78125 -1.26,-0.075 -2.515,-0.1675 -3.6875,-0.53125 -4.64625,-1.44 -4.27375,-7.7175 -7.71875,-3.65625 -0.10875,0.1275 -0.20625,0.2275 -0.3125,0.34375 -2.265,2.48875 -10.75874,4.2025 -14.21875,2.25 -1.24625,-0.7025 -2.8125,-2.03125 -2.8125,-2.03125 0,0 0.39625,-1.01125 0.84375,-2.34375 3.55501,-10.5875 0.98625,-13.98 -7.59375,-17.125 -1.22125,-0.4475 -2.46375,-1.02125 -3.71875,-2 -1.74125,-1.3575 -3.75,-3.5 -3.75,-3.5 0,0 1.7775,0.28 2.625,0 1.1325,-0.375 0.89875,-1.69125 0.21875,-2.46875 -1.0575,-1.20625 -2.8725,-2.19124 -4.21875,-3.5 -3.63125,-3.53375 -3.83125,-2.98126 -5.375,2.25 -1.45875,4.95 -0.4375,3.435 1.78125,7.3125 0.85375,1.49375 1.8625,3.84625 1.75,4.5 -0.0925,0.535 -0.62125,1.07625 -1.1875,1.65625 -2.81875,2.8875 -3.1325,5.75625 -3.84375,9.71875 -0.3625,2.02 -0.61375,5.47875 -2.78125,5.75 -1.59,0.19875 -3.75125,-0.335 -4.78125,-0.78125 -5.2074998,-2.2525 -7.2399998,-6.09875 -7.9374998,-11.96875 -0.955,-8.03 -1.43375,-24.10375 -1.59375,-30.625 l -0.51986,-16.360431 c -0.27245,-2.556644 -0.1375,-5.3310458 -0.10514,-8.1708189 0.0395,-3.4211719 0.008,-5.72672123 -0.78125,-5.56250004 z M 11.044503,40.99949 c 0,0 1.76,1.88251 2.87625,3.14126 1.12625,1.26875 1.8225,2.65 1.84375,3.6575 0.13125,6.2 -0.8925,7.32625 0.92875,7.0825 0.35625,-0.0475 0.44125,-0.18625 0.85625,-1.38875 1.9075,-5.53375 1.305,-10.35875 -2.05875,-14.64001 -1.02625,-1.30625 -2.6825,-3.13375 -2.6825,-3.13375 l -1.76375,5.28125 z M 119.48077,49.152 c 0.6075,0.245 1.09875,-0.485 1.20375,-0.85 0.29375,-1.025 0.135,-3.23125 -0.22375,-5.56125 -1.12,-7.26501 -2.43625,-10.03501 -8.04125,-13.77626 -1.61625,-1.07875 -1.88875,-0.50125 -2.12625,2.6425 -0.685,9.07125 2.545,3.1275 5.445,6.4275 0.7325,0.83375 1.60125,2.60125 1.93625,3.9275 0.58625,2.31876 0.41875,5.25001 1.505,6.87001 0.0975,0.145 0.205,0.28125 0.30125,0.32 z m 8.97625,29.2 c 1.68125,0.7125 2.6375,0.895 4.41,-2.975 0.7325,-1.6 2.14375,-4.68 2.14375,-4.68 0,0 -4.3725,-1.28875 -7.1275,-2.2825 -2.73125,-0.985 -5.005,-2.1775 -7.0625,-4.0375 -5.33875,-4.8275 -6.395,-8.2825 -9.70625,-8.9475 -0.72375,-0.145 -2.0525,-0.15875 -3.53875,-0.05 -4.33125,0.31625 -7.2275,0.37 -8.767507,5.57 -1.81125,6.1175 -0.34875,5.32 6.027507,4.15 0.80875,-0.14875 1.55875,-0.33375 2.16875,-0.5625 2.29875,-0.865 2.2525,-0.27875 4.85375,1.71 2.11875,1.62125 3.53125,2.67125 2.95,3.5875 -1.22125,1.9275 -10.12875,3.75375 -10.8125,3.80875 -0.67125,0.0537 -1.3525,0.05 -2.0375,-0.01 C 94.069513,72.947 89.435763,66.702 88.577013,57.912 c -0.36125,-3.70375 -0.8125,-9.19125 -1.215,-14.66125 -0.58375,-7.94751 -1.6475,-30.13626 -1.70625,-38.1237599 -0.0263,-3.53375 0.0475,-8.8075 -3.20375,-1.295 -0.4625,1.06875 -0.91,2.24125 -0.90875,3.135 0.001,0.48625 0.01,0.68375 0.0838,1.975 1.00875,17.7274999 2.255,42.8950099 3.275,54.8100099 0.77625,9.04875 4.74375,16.6375 13.23625,17.9875 2.222507,0.3525 4.680007,0.25875 7.386257,-0.22875 2.2175,-0.4 2.95,-0.92875 5.03625,-2.275 0.2375,-0.1525 0.46375,-0.29625 0.695,-0.425 2.985,-1.6675 8.89,-1.6625 12.53375,-1.475 3.4425,0.1775 7.09875,2.0475 4.6675,1.01625 z M 107.24952,8.6869901 c 0.94625,-0.05 2.30875,0.29125 3.36625,0.11875 2.52875,-0.41125 3.36375,-3.63 2.955,-6.6075 -0.37,-2.69625004 -3.23625,-2.65125004 -5.47125,-1.22000004 -0.83,0.53000004 -1.4725,1.17125004 -2.32625,2.39625004 -1.26125,1.8125 -2.98125,4.905 -2.98125,4.905 0,0 -2.28125,-3.06375 -3.863757,-4.5025 -1.7425,-1.58625 -4.145,-1.48375 -5.1925,1.195 -1.1075,2.83375 -0.70875,6.2199999 0.865,7.0299999 0.70125,0.36125 1.62875,0.49 2.4675,0 0.0638,-0.0375 0.12625,-0.075 0.185,-0.1125 3.300007,-2.0699999 3.510007,-0.4225 5.181257,3.38 0.5525,1.26 1.17375,2.35625 2.3275,2.80375 0.2275,0.0875 0.47625,0.0575 0.7125,-0.0625 1.8125,-0.92375 0.825,-4.295 0.11625,-5.56375 -0.52375,-0.9375 -0.71,-1.415 1.65875,-3.7599999 z M 49.384513,21.91574 c 18.18125,-16.3237499 19.2725,-15.6287499 20.125,-20.7487499 0.1025,-2.12875004 -1.82125,-0.87500004 -3.32875,0.205 -2.12375,1.5225 -3.9825,3.76625 -5.7175,5.585 -3.11,3.2612499 -7.2725,6.3537499 -10.7225,9.4912499 -1.7025,1.55 -2.26375,2.17875 -3.01,4.155 -0.0362,0.095 -0.0725,0.195 -0.1075,0.2925 -2.19376,6.24 3.905,-0.007 2.76125,1.02 z m 48.82625,24.62251 0.27375,-4.26251 c 0,0 -2.58375,-2.74125 -3.94,-3.40625 -0.37,-0.18125 -0.455,-0.225 -0.4375,-0.76625 0.01,-0.32625 0.22125,-0.89875 0.535,-1.54625 5.3575,-11.06375 34.900007,-25.9 44.137507,-29.5624999 2.25125,-0.8925 4.0875,-1.7075 4.4025,-2.105 0.39375,-0.4975 1.98875,-3.80875 1.26375,-4.68250004 -0.17875,-0.21625 -0.8075,-0.22875 -1.5225,-0.16375 -7.23,0.66 -13.685,4.47500004 -19.9075,8.46625004 -7.0025,4.4924999 -16.575,10.9312499 -19.06,12.9462499 -7.120007,5.775 -8.722507,6.4625 -12.112507,13.6275 -1.50375,3.1775 -1.07375,5.89875 0.895,8.42001 0.90875,1.1625 3.665,2.98375 4.59625,3.035 0.42,0.0237 0.87625,0 0.87625,0 z" />
</svg>
