<?xml version="1.0" encoding="UTF-8" standalone="yes"?>
<svg>
<path
	d="m 50.32428,80.995026 -4.165,-4.179 -6.569,6.591 6.572,6.593 4.165,-4.179 4.164,4.179 6.569,-6.591 -6.571,-6.593 -4.165,4.179 z m 0.503,-34.709 0.792,0 c 0.356,0 0.437,-0.143 0.806,-1.429 2.44,-8.502 2.681,-13.999 0.134,-19.355 -1.197,-2.518 -3.17,-5.942 -4.454,-3.959 -0.809,1.25 -0.903,4.095 -0.742,4.79 0.472,2.038 2.678,4.993 3.711,7.087 0.633,1.282 0.825,2.241 0.743,4.157 -0.134,3.101 -0.99,8.709 -0.99,8.709 z m 10.457,-37.7419996 c 2.333,0.972 3.892,-3.906 4.453,-6.83 0.312,-1.62499995 0.194,-1.93699995 -1.187,-1.58299995 -2.325,0.595 -15.642,9.45599995 -20.017,13.21199955 -1.035,0.888 -4.675,4.897 -3.539,6.088 0.24,0.252 0.884,0.033 1.556,-0.281 2.772,-1.294 6.014,-4.193 8.792,-5.998 2.081,-1.351 3.901,-2.089 6.948,-3.9249996 1.389,-0.837 3.022,-1.721 2.994,-1.178 -0.01,0.173 -0.115,0.447 0,0.495 z m 53.45,9.8759996 c -0.128,0.375 -0.208,1.219 0,1.584 0.648,1.138 3.418,-1.888 4.109,-2.518 3.33,-3.04 9.354,-5.42 13.56,-8.3799996 1.584,-1.115 8.591,-6.884 6.58,-8.89699995 -0.736,-0.737 -3.287,0.599 -5.519,2.09099995 l -15.647,11.3639996 c -1.298,1.363 -2.498,3.051 -3.083,4.756 z m -18.699,-1.765 c -3.077,2.182 -3.717,2.721 -4.191,5.894 -0.22,1.472 -0.082,1.694 1.583,1.238 1.597,-0.438 27.599,-17.1379996 28.675,-18.4169996 0.865,-1.029 1.479,-1.971 1.908,-3.358 0.623,-2.00799995 0.263,-2.23799995 -1.015,-1.86199995 -0.443,0.131 -0.618,0.223 -1.757,0.92199995 -0.966,0.593 -2.047,1.259 -3.189,1.962 l -22.014,13.6209996 z m 4.222,-3.408 1.612,-1.116 c -0.312,-0.103 -0.354,-0.47 -0.128,-1.257 0.769,-2.6709996 2.069,-2.8719996 4.062,-4.4649996 1.151,-0.919 1.835,-1.941 2.145,-3.127 0.699,-2.67599995 -0.036,-3.74499995 -1.852,-3.09799995 -0.304,0.109 -0.602,0.252 -0.891,0.495 -1.186,0.99899995 -2.217,3.68399995 -3.266,3.95899995 -0.259,0.068 -0.52,-0.011 -0.831,-0.15 -0.89,-0.399 -2.189,-1.285 -3.326,-1.582 -0.402,-0.105 -2.451,-0.217 -3.343,0.058 -0.554,0.171 -0.616,0.338 -0.616,1.674 l 0,2.148 c 0,1.336 0.029,1.524 0.289,1.878 0.45,0.613 1.666,1.3759996 1.988,1.4179996 0.481,0.063 1.188,0 1.188,0 l 0,-0.4949996 1.484,0 0,0.4949996 0.495,0 0,2.474 0.99,0 0,0.691 z m -29.237,25.987 c 0.52,3.944 1.126,13.361 1.334,16.316 0.174,2.476 0.247,5.444 0.247,5.444 l -7.326,0.411 c -1.334,0.075 -1.571,0.069 -2.368,-0.066 -0.591,-0.099 -1.093,-0.175 -1.688,-0.593 -1.376,-0.966 -3.242,-3.764 -3.242,-3.764 0,0 -1.476,2.262 -2.696,3.517 -2.075,2.133 -7.577,3.058 -10.234,2.474 -2.623,-0.577 -4.724,-2.277 -5.673,-4.546 -0.872,-2.087 -0.985,-4.89 -2.13,-6.144 -1.681,-1.84 -6.409,-0.437 -9.181,1.535 -5.976,4.252 -6.451,8.197 -10.392,15.341 -1.989,3.605 -5.396,4.122 -8.3010003,2.208 -5.191,-3.418 -6.545,-14.492 -6.545,-19.484 0,-1.513 0,-2.89 0,-2.89 0,-1.336 0.014,-1.51 0.144,-1.734 0.097,-0.166 0.15,-0.36 0.199,-0.539 0.133,-0.475 0.241,-0.848 0.151,-1.067 -0.137,-0.334 -0.738,-0.309 -1.187,0 -0.514,0.353 -0.835,2.091 -1.15700004,3.935 -3.16499996,18.111 2.20100004,27.228 4.35600004,29.48 1.773,1.853 4.067,3.306 6.5000003,3.7 4.019,0.65 7.099,-4.51 8.561,-8.413 2.134,-5.69 2.052,-6.039 7.769,-10.506 1.028,-0.804 2.653,-2.079 4.106,-1.913 0.376,0.043 0.47,0.187 0.936,1.441 2.864,7.71 5.686,10.036 13.18,8.999 1.572,-0.218 3.347,-0.597 4.444,-1.485 0.417,-0.337 0.754,-0.659 1.04,-0.953 l 1.652,-1.696 3.701,1.668 c 0.388,0.175 0.849,0.334 1.515,0.486 2.725,0.622 10.402,-0.154 13.321,-2.797 0.601,-0.544 0.513,-0.809 0.807,-1.685 0.426,-1.27 2.46,-3.033 3.814,-4.512 0.543,-0.593 0.974,-1.165 1.312,-1.731 2.367,-3.955 -1.023,-24.746 -1.84,-28.648 -0.816,-3.897 -1.499,-7.506 -1.568,-9.922 -0.071,-2.463 0,-5.147 0,-5.147 l 0.731,0 2.665,0 -1.351,-6.5849996 -1.499,-7.301 c -0.269,-1.30899995 -0.315,-1.47299995 -0.461,-1.63999995 -0.822,-0.939 -1.595,-0.168 -2.232,0.73999995 -0.92,1.311 -3.757,4.919 -4.133,6.999 -0.138,0.764 -0.145,0.997 -0.065,2.3309996 0.482,8.099 1.006,19.27 1.891,24.261 0.26,1.468 0.576,2.943 0.891,4.476 l 0.002,-10e-4 z m 17.273,17.352 c 3.095,3.379 7.52,4.336 11.892,5.935 l 4.554,1.666 c 0,0 1.583,-6.144 2.941,-8.573 0.361,-0.647 0.664,-1.019 0.495,-1.435 -0.311,-0.762 -2.472,-0.907 -3.959,-1.535 -1.39,-0.586 -3.214,-2.24 -3.017,-3.956 0.043,-0.376 0.189,-0.465 1.459,-0.884 4.392,-1.448 14.94,-3.858 18.185,-2.83 0.947,0.3 1.603,0.838 3.158,0.99 1.989,0.194 5.45,-0.243 5.45,-0.243 0,0 3.239,-5.623 3.962,-8.071 1.021,-3.456 -6.534,-1.939 -10.392,-3.068 -2.051,-0.601 -5.288,-3.068 -7.351,-5.29 -4.54,-4.887 -4.277,-5.43 -10.588,-5.433 -7.578,-0.003 -8.341,0.235 -10.516,4.784 -0.77,1.61 -1.614,3.504 -1.732,5.543 -0.064,1.086 0,2.375 0,2.375 0,0 1.93,0.067 3.563,0 4.16,-0.171 6.386,-1.213 9.075,-1.683 0.886,-0.155 1.822,-0.248 2.208,0.198 0.57,0.659 0.099,1.263 -0.567,1.611 -1.388,0.726 -3.732,1.139 -5.372,2.101 -1.886,1.106 -3.397,3.426 -4.206,5.691 -0.724,2.028 -1.545,5.327 -1.545,5.327 0,0 -0.994,-0.695 -2.065,-1.531 -6.356,-2.924 -7.826,-28.459 -7.84,-31.978 -0.02,-4.885 0.853,-9.9929996 -10e-4,-14.2539996 -0.937,-4.673 -3.977,-0.042 -4.278,1.236 -0.343,1.457 -1.578,6.708 -1.578,6.708 l 0,4.2989996 c 0,0 0.729,0 0.729,0 0,0 0.147,2.856 0.394,6.52 0.363,5.366 0.926,10.645 1.516,15.294 1.561,12.286 1.991,16.735 5.426,20.486 z m 42.293,-10.932 -6.59,6.589 6.596,6.595 6.589,-6.589 -6.595,-6.595 z"
	style="stroke:none; fill:#000000"/>
</svg>