<?xml version="1.0" encoding="UTF-8" standalone="no"?>
<svg>
  <path
     d="m 43.92167,44.251968 c 0.2025,2.80124 1.51,4.54249 3.88625,5.04499 3.06624,0.64875 4.80124,-1.01375 5.58624,-4.37749 0.1725,-0.73875 0.13375,-1.35375 -0.34125,-1.65 -0.9025,-0.565 -3.38374,0.0213 -4.58374,-0.61625 -1.49125,-0.7925 -1.87125,-4.16125 -1.5025,-5.73624 0.37,-1.5775 1.31125,-3.265 1.5675,-4.48125 0.0525,-0.245 0.0763,-0.4725 -0.0312,-0.59875 -0.0137,-0.0162 -0.0263,-0.0312 -0.04,-0.045 -3.61,-0.8225 -4.48625,13.21624 -4.54125,12.45999 z m 39.72996,-21.31623 c 0,0 2.10874,-5.40374 2.58249,-8.26999 0.6825,-4.13624 -1.84999,-10.2362402 -3.85374,-14.07623018 -0.125,-0.23875 -0.23625,-0.45125 -0.58,-0.53625 -0.44375,-0.11125 -1.27625,-0.0125 -1.27625,-0.0125 0,0 -0.77375,3.45999998 -0.58625,5.73748998 0.14125,1.72625 1.055,3.07125 1.81875,4.3775002 3.64749,6.23374 0.95625,7.54874 -0.40625,14.77873 -0.71875,3.8075 0.6875,6.00249 4.35624,7.06124 3.9925,1.15125 5.535,-1.39875 6.26625,-5.78999 0.35375,-2.12625 -0.12625,-2.62625 -2.33625,-2.90125 -2.18625,-0.27125 -5.98499,-0.36875 -5.98499,-0.36875 z m 22.68497,-10.98623 c -0.0962,0.83374 -0.18875,2.67624 0.11625,3.35749 0.475,1.06 3.01375,-1.16375 5.96499,-2.8275 9.72499,-5.4862402 12.01999,-4.2887402 12.80499,-9.8349802 0.85125,-6.015 -4.445,-0.615 -15.44373,4.74124 -2.33625,1.13875 -3.13,1.8325 -3.4425,4.5637502 z m -40.1987,6.27874 -5.515,5.47874 c -0.91625,0.91 -1.0475,1.07375 -1.30375,1.635 -0.35874,0.785 -0.48249,2.0975 -0.30624,2.27625 0.57124,0.57625 2.59124,-0.8225 3.29374,-1.34125 6.15624,-4.54125 8.96124,-7.39999 9.95624,-13.27999 0.50625,-2.98874 -1.07625,-4.1449902 -3.87625,-4.5262402 -4.44124,-0.605 -8.84999,0.0138 -10.57498,3.3587502 0.26875,12.76873 0.64875,5.46624 4.41499,4.55999 4.19125,-1.00875 8.69624,-3.24875 3.91125,1.83875 z m -11.49374,69.65242 -4.61124,-4.62625 -7.27125,7.29624 7.27375,7.29874 4.61124,-4.62499 4.61124,4.62499 7.27125,-7.29624 -7.275,-7.29874 -4.60999,4.62625 z m 65.17742,-69.48367 -4.60999,-4.62625 -7.27249,7.29624 7.27499,7.29875 4.61124,-4.62625 4.61,4.62625 7.27249,-7.29625 -7.27499,-7.29874 -4.61125,4.62625 z m -0.0525,23.53122 c -0.2425,-0.20625 -0.2025,-0.92625 0.0125,-1.27625 0.4,-0.64875 3.48375,0.52 4.7725,1.375 0.6025,0.4 0.8975,0.91 0.51875,1.335 -0.53,0.595 -4.0125,-0.3375 -5.30375,-1.43375 z M 98.04911,0.03076782 c 0,0 -0.56125,-0.0625 -0.9575,-0.009 -1.2275,0.1675 -3.28625,5.37123998 -3.5675,6.08123998 -1.57999,3.9875002 -0.27875,8.0674902 0.93625,13.3024902 1.43375,6.17624 3.8425,25.36997 5.5275,38.0887 0.1875,1.42375 0.31875,1.6975 1.3125,2.7375 5.39124,5.64624 10.95873,8.12999 18.11622,7.53624 7.44624,-0.6175 9.84249,-3.535 12.51749,-9.51624 4.34999,-9.72374 5.83374,-12.36373 2.22125,-19.32373 -2.68875,-5.17999 -7.105,-10.05248 -12.67249,-9.42624 -2.79,0.31375 -4.14374,2.96625 -5.37499,6.06375 -2.90375,7.30374 -4.505,15.13623 2.00875,18.00373 1.60249,0.70625 3.43499,1.14124 4.72374,0.9375 2.3075,-0.365 9.64999,-4.8925 7.98749,-1.30625 -0.83875,1.81249 -4.42249,3.07374 -6.40249,3.44874 -3.8525,0.72875 -10.21624,0.39375 -12.76374,-0.92 -2.19999,-1.13374 -6.58999,-5.29874 -7.70749,-7.20499 -0.79375,-1.35375 -1.14125,-2.91624 -1.48375,-4.84749 C 100.36286,31.769228 98.04911,0.03051782 98.04911,0.03051782 z M 57.97166,63.517688 l -0.57375,8.95624 -0.13125,2.03875 c -0.0913,1.4325 -0.09,1.7125 0.0187,2.79875 0.3475,3.50374 2.92999,7.13124 5.28249,7.69249 1.85375,0.4425 3.52,-0.1025 5.15499,-0.74875 3.1525,-1.24625 11.02249,-5.89874 12.83374,-7.58749 1.225,-1.14125 2.6125,-2.4725 3.9725,-3.77 3.73374,-3.56249 10.63373,-7.25124 9.34998,-13.13248 -0.1725,-0.78875 -0.24875,-1.51 -0.22375,-2.1 0.0987,-2.325 0.19125,-4.53374 0.19125,-4.53374 0.06,-1.435 0.009,-1.74375 -0.5125,-3.085 -1.12249,-2.88625 -2.51999,-5.18749 -4.48374,-6.53374 -4.60249,-3.15625 -7.68374,-3.16375 -7.20374,-5.75 0.38875,-2.08749 0.77625,-2.76249 -0.15375,-3.35999 -1.16375,-0.7475 -3.3175,-1.21125 -5.82374,-2.715 -2.225,-1.335 -4.7275,-3.49124 -4.7275,-3.49124 0,0 -2.52375,4.35124 -3.2825,7.04124 -1.94124,6.87749 9.67749,13.48998 15.13999,17.41498 4.48999,3.22749 7.02499,6.23874 3.47749,9.71249 -3.18124,3.11624 -15.35873,12.62498 -20.94372,11.49873 -1.61375,-0.32625 -2.07375,-1.00375 -2.8725,-2.41499 l -4.48874,-7.93125 z m 3.00374,7.8925 c 0.24625,-1.1275 0.4,-2.41 0.7975,-3.64875 1.5625,-4.87249 3.125,-4.59 2.47125,-8.16499 -0.645,-3.51875 -3.23875,-10.52499 -3.23875,-10.52499 0,0 -1.04625,1.8325 -1.74375,3.245 -0.84124,1.7025 -1.17624,2.79374 -1.53624,4.26624 -0.3425,1.39875 -0.37,1.71375 -0.2825,3.14625 l 0.3625,5.86749 -6.93,0.36625 c -1.43374,0.075 -1.72124,0.0537 -2.87999,-0.22125 -2.30875,-0.54625 -4.87875,-2.6775 -5.83499,-4.54874 -1.1725,-2.295 -1.31125,-4.8725 -3.06875,-3.75125 -0.79125,0.50375 -2.0325,3.7275 -2.53625,5.99499 -0.505,2.28 -0.573747,4.39625 -0.0637,6.7525 0.99875,4.62374 4.0675,12.59123 4.0675,12.59123 0,0 -3.29875,2.79 -5.827497,4.66375 -1.06999,0.7925 -2.25999,1.56874 -3.52749,2.32124 -1.485,0.88 -26.1174699,11.648742 -26.8574699,11.781242 -1.7775,0.70375 -3.50375004,1.42625 -4.06500004,1.78625 -0.21249,0.13625 -0.25874,0.22125 -0.27374,0.795 -0.009000002,0.3225 -0.0080000021,0.7975 -0.0080000021,0.7975 0,0 0.7487400021,-0.0813 1.7812400421,-0.0813 -0.65,-0.15 -0.4475,-0.17875 0.2975,-0.10875 1.02375,-0.6775 12.2599899,1.30499 11.9274899,1.01749 1.3975,0.0512 2.50125,0.30625 3.66374,0.2275 3.6875,-0.2475 13.06124,-6.188742 15.89624,-7.912492 2.677487,-1.62874 5.554987,-3.81624 6.162487,-4.99249 0.74,-1.4325 0.40375,-2.98625 1.11875,-5.83874 1.00625,-4.0125 4.08999,-10.59624 4.08999,-10.59624 0,0 2.87125,0.0275 5.095,0.0488 12.23873,0.11625 11.33373,-7.06874 10.94248,-5.27874 z"
     style="fill:#000000;stroke:none" />
</svg>
