<?xml version="1.0" encoding="UTF-8" standalone="no"?>
<svg>
  <path
     style="fill:#000000;stroke:none"
     d="m 83.203571,3.2376489 -34.41491,32.5109001 0.5236,5.85482 34.74812,-33.3677001 z m -20.90554,5.52485 -0.65375,0.0125 c -0.84125,0.0162 -0.955,0.1325 -1.135,1.1675 -0.0788,0.4525001 -0.3125,1.1437501 -0.57625,1.8125001 -1.53375,3.89 -3.36375,2.99125 -4.68,0.1175 -1.2025,-2.6225001 -2.64625,-5.5237501 -2.8825,0.29625 -0.095,2.335 0.14,6.78375 1.76125,7.995 1.7375,1.29625 4.4275,0.29 6.10625,-0.9675 0.39625,-0.29625 0.74875,-0.64 0.94,-1.07875 0.10875,-0.25125 0.16625,-0.5325 0.20625,-0.81 l 0.2375,-1.62875 1.635,0.205 c 0.29875,0.0375 0.61,0.0687 0.90875,0.055 1.04125,-0.0513 1.84375,-0.60875 2.44375,-1.43125 2.73,-3.74125 1.46875,-8.2600001 -0.67,-11.4400001 -1.60125,-2.37875001 -4.30375,-6.1125 -1.66125,1.3525 0.96375,2.7225 0.81375,4.28875 -1.98,4.3425 z m -5.71013,55.3391201 -7.4375,7.4375 7.4375,7.40625 4.6875,-4.6875 4.71875,4.6875 7.4375,-7.40625 -7.4375,-7.4375 -4.71875,4.71875 -4.6875,-4.71875 z m 47.531649,-49.5652 0.55997,9.87823 2.63737,48.2687 c 0,0 1.7899,-1.79365 2.86234,-3.42732 1.52117,-2.31487 1.60117,-4.30477 2.05865,-6.52715 0.35873,-1.74366 0.38248,-2.13239 0.23498,-3.89355 l -2.88734,-34.43693 -0.27499,-5.84594 c 0.28749,0.15749 0.56122,0.29998 0.81871,0.42622 l 4.44226,2.19989 -0.84745,-2.33738 c -0.0962,-0.26498 -0.19874,-0.54622 -0.30124,-0.82871 -1.23243,-3.39482 -1.91615,-6.75214 -2.73735,-10.2332101 -0.78496,-3.33232 -1.83241,-7.77084001 -1.83241,-7.77084001 0,0 -0.74121,-0.0387 -1.42492,0.0587 -1.8774,0.26874 -5.88594,6.24842001 -6.14593,7.60710001 -0.025,0.12874 -0.04,0.25749 -0.045,0.38498 -0.0113,0.28123 0.01,0.57622 0.0575,0.8812 0.34373,2.1898901 1.44618,4.0585401 2.82485,5.5959601 z m 50.45933,36.37072 -7.4375,7.4375 7.4375,7.40625 4.6875,-4.6875 4.71875,4.6875 7.4375,-7.40625 -7.4375,-7.4375 -4.71875,4.71875 -4.6875,-4.71875 z m 31.07358,-9.42992 -7.4325,7.43375 7.4325,7.43249 7.43375,-7.43249 -7.43375,-7.43375 z m -161.995389,10.5784 -7.4325,7.43375 7.4325,7.43249 7.43375,-7.43249 -7.43375,-7.43375 z m 46.79906,-16.3995 c 0.1975,2.72125 1.46625,4.4125 3.775,4.90125 2.97875,0.63 4.6625,-0.985 5.42625,-4.2525 0.1675,-0.7175 0.13,-1.315 -0.33125,-1.6025 -0.8775,-0.54875 -3.2875,0.02 -4.4525,-0.59875 -1.44875,-0.76875 -1.8175,-4.0425 -1.45875,-5.5725 0.35875,-1.53125 1.2725,-3.17125 1.5225,-4.35125 0.05,-0.23875 0.0737,-0.45875 -0.0312,-0.5825 -0.0125,-0.015 -0.0263,-0.03 -0.0387,-0.0438 -3.50625,-0.79875 -4.3575,12.8375 -4.41125,12.1025 z m 47.690279,23.84696 c -0.40266,-0.40266 -0.16369,-3.07382 0.36829,-4.11658 0.5402,-1.05888 2.1482,-2.30654 3.66061,-2.8403 0.40176,-0.14179 1.15081,-0.40701 1.66456,-0.5894 5.11121,-1.8145 27.3563,-8.55603 28.71113,-8.70112 l 1.71331,-0.18348 0,1.37934 c 0,1.57898 -0.82719,3.29152 -1.80508,3.73707 -0.33408,0.15222 -1.79907,0.57884 -3.25554,0.94803 -1.45646,0.36919 -2.98531,0.8013 -3.39745,0.96026 -0.41213,0.15895 -2.97111,0.87181 -5.68663,1.58412 -6.88754,1.8067 -14.91623,4.70086 -18.76396,6.76401 -2.26841,1.21629 -2.85696,1.41034 -3.20924,1.05805 z m -78.625749,26.84664 c -6.02192,4.93436 -12.88513,8.02091 -18.79657,8.45329 -4.46499,0.32658 -9.97265,-1.2199 -14.0562396,-3.94682 -3.04919,-2.03617 -5.63347,-6.08309 -6.40521997,-10.03042 -0.56824,-2.90646 -0.19564,-7.59547 0.93627997,-11.78278 0.8805,-3.25722 3.37612,-10.54945 3.7322,-10.90554 0.32413,-0.32413 0.38978,0.16169 0.13884,1.02748 -0.14608,0.50401 -0.45139,2.33542 -0.67846,4.06976 -1.28421,9.80866 2.88029,17.20962 10.8277996,19.2427 2.57195,0.65795 6.83524,1.11226 8.80707,0.93853 1.8321,-0.16142 7.80745,-2.15226 12.10342,-4.03258 2.20637,-0.9657 5.8061,-3.4662 7.3062,-5.07511 l 0.59449,-0.63764 -3.61222,-9.46344 c -3.02306,-7.91991 -3.59392,-9.64308 -3.49997,-10.56479 0.17648,-1.7313 1.47179,-4.70793 2.76657,-6.35761 0.98231,-1.25157 1.28365,-1.478 1.76992,-1.32996 0.931,0.28343 1.46482,0.8836 2.57909,2.89967 1.24966,2.26104 2.35612,3.38414 4.14523,4.20757 1.23614,0.56892 1.67335,0.6126 5.93694,0.59308 2.53139,-0.0119 4.66286,-0.0814 4.73661,-0.15515 0.0738,-0.0737 -0.17989,-1.02503 -0.56362,-2.11398 -0.56973,-1.61672 -0.72171,-2.61629 -0.8286,-5.44934 -0.15203,-4.02989 0.17249,-5.82662 1.63012,-9.02518 1.09135,-2.3948 1.91273,-3.01659 2.85656,-2.16244 0.82149,0.74343 0.98348,1.13582 2.0068,4.86097 1.41413,5.1478 2.23966,8.79985 2.23966,9.90797 0,0.56755 -0.30293,1.56537 -0.70178,2.31154 -1.48135,2.77134 -1.97313,3.83371 -2.65887,5.74384 -1.2133,3.37968 -1.84841,4.41175 -3.20359,5.20594 -1.51788,0.88953 -3.72671,1.42904 -5.87329,1.43453 -0.89588,0.003 -2.34911,0.0795 -3.2294,0.17146 l -1.60055,0.16729 -0.29624,1.63416 c -0.29626,1.63425 0.12236,3.73323 -0.35336,6.36262 -0.5725,6.26015 -4.33763,10.18565 -8.75582,13.80038 z M 190.0941,75.360269 c 1.03733,-0.79258 -1.30963,-3.3926 -3.41973,-3.78844 -1.0842,-0.2034 -3.75211,0.27214 -4.02761,0.7179 -0.10204,0.16506 0.21846,0.63155 0.72356,1.05322 1.19758,0.99979 3.13685,1.73331 6.13799,2.32168 0.082,0.0161 0.34563,-0.1209 0.58579,-0.30436 z m -30.93821,13.01972 c -0.0596,-1.65314 -1.09612,-3.71351 -1.92896,-3.83421 -0.95238,-0.13802 -2.02936,0.43505 -2.93467,1.5616 -0.94729,1.17878 -1.07367,2.24684 -0.31395,2.65342 0.56604,0.30295 4.53036,1.06887 4.95641,0.95761 0.14678,-0.0384 0.24632,-0.64061 0.22117,-1.33842 z M 83.941151,107.85547 c -1.02749,-0.20348 -2.38544,-0.37734 -3.01767,-0.38636 -0.63223,-0.009 -1.65305,-0.12748 -2.26849,-0.26339 -0.61544,-0.13584 -2.17522,-0.39623 -3.46617,-0.57863 -1.29095,-0.1824 -2.40894,-0.43155 -2.4844,-0.55365 -0.0755,-0.12208 -0.1001,-0.22436 -0.0547,-0.22722 3.4676,-0.21907 10.95275,-1.799 14.72975,-3.10907 9.69199,-3.361741 25.586689,-10.948591 33.360369,-15.923571 7.02481,-4.49571 11.70933,-8.15305 12.59149,-9.83054 0.49844,-0.94781 0.13956,-1.95178 -2.10501,-5.88863 -2.19097,-3.84284 -2.97083,-6.14972 -2.76544,-8.18026 0.30352,-3.00069 2.40657,-7.23636 3.59291,-7.23636 0.88309,0 2.34386,2.50036 3.42015,5.85417 0.20894,0.65107 0.69468,2.68545 1.07942,4.52085 0.81491,3.88745 0.77079,5.327 -0.29552,9.64106 -0.38094,1.54123 -0.76521,3.77358 -0.85393,4.96077 -0.15014,2.00945 -0.11206,2.24267 0.55249,3.37652 1.23465,2.10676 2.75422,3.60216 4.56747,4.49483 2.44081,1.20161 3.7409,1.29229 5.4206,0.37808 1.42458,-0.77535 2.17939,-2.00375 2.59121,-4.21701 0.25765,-1.38465 2.38529,-4.02391 5.73015,-7.10808 6.49145,-5.98549 7.42248,-6.17212 7.99043,-1.60172 0.38976,3.13652 0.97382,4.61864 2.75025,6.97895 1.46551,1.94721 2.82281,3.22816 4.16983,3.9353 1.51713,0.79642 4.64554,1.67046 7.23915,2.0225 5.22587,0.70935 9.0204,0.40604 15.12375,-1.20887 3.39338,-0.89786 4.89232,-1.59063 4.89232,-2.2611 0,-0.73969 -1.29127,-0.73148 -4.99144,0.0318 -2.55153,0.5263 -4.46071,0.75853 -6.21756,0.7563 -2.30733,-0.003 -2.66685,-0.0749 -3.99713,-0.80048 -2.03177,-1.10813 -2.66629,-2.2826 -2.66562,-4.93391 5.3e-4,-2.58296 0.59755,-6.70152 1.41179,-9.74115 1.75851,-6.56463 2.27372,-7.57524 4.67461,-9.16934 1.9012,-1.26233 4.17727,-1.47714 6.04929,-0.5709 2.9599,1.43285 7.56023,6.82247 9.54105,11.17801 1.91673,4.2146 1.03651,10.70549 -2.35653,17.37734 -2.32347,4.56877 -3.77105,6.29533 -6.43184,7.67147 -2.92543,1.51299 -4.31038,1.92909 -7.82691,2.35155 -4.48687,0.539001 -8.10592,0.484501 -11.30052,-0.17019 -4.43014,-0.90791 -5.49194,-1.04055 -6.1938,-0.7737 -0.35947,0.13667 -0.6536,0.4229 -0.6536,0.63605 0,0.69519 -1.31663,1.453191 -2.85886,1.645881 -1.79321,0.22406 -6.05353,-0.25295 -8.39525,-0.939941 -1.69525,-0.49734 -4.00872,-1.67869 -5.336,-2.72475 -0.99764,-0.78625 -1.77354,-0.51088 -3.60854,1.28066 l -1.5351,1.498731 -2.32102,-0.132331 c -1.59792,-0.0911 -2.68147,-0.3074 -3.47798,-0.69426 -1.8385,-0.89293 -3.86066,-2.84762 -4.93696,-4.77224 -0.84079,-1.50348 -1.00112,-2.06186 -1.10444,-3.84662 l -0.12086,-2.08784 -0.73435,0.43379 c -0.40389,0.23858 -1.49949,1.32238 -2.43465,2.40841 -0.93517,1.08604 -2.36083,2.47353 -3.16815,3.08332 -0.80731,0.60979 -2.13483,1.66069 -2.95005,2.33535 -1.80657,1.49509 -9.1858,5.285461 -14.26377,7.326661 -2.05499,0.82604 -5.83803,2.05421 -8.406759,2.72926 -4.57032,1.20106 -4.77051,1.22915 -9.34083,1.31093 -3.21693,0.0576 -5.25181,-0.0316 -6.53859,-0.2864 z M 92.641381,8.8888889e-4 c -0.27077,0.002000001 -0.62689,0.0138000011 -0.96875,0.0625000011 -1.8774,0.26874 -5.89626,6.26632001 -6.15625,7.62500001 -0.025,0.12874 -0.0263,0.24751 -0.0312,0.375 -0.0113,0.28123 0.015,0.57002 0.0625,0.875 0.34373,2.1898901 1.43383,4.0563301 2.8125,5.5937501 l 0.5625,9.875 2.625,48.28125 c 0.30691,7.22144 0.30624,8.17061 -0.0937,9.96875 -0.30243,1.35932 -0.70028,2.31645 -1.21875,2.9375 -0.71503,0.85645 -0.8668,0.90625 -2.375,0.90625 -2.09947,0 -2.85433,-0.5334 -4.0625,-2.9375 l -0.9375,-1.875 0,-7.875 c 0,-8.85218 -0.21627,-10.8828 -2.25,-19.59375 -1.68226,-7.20551 -1.87931,-7.81442 -2.96875,-9.5 -0.86131,-1.33262 -1.14575,-1.59375 -1.78125,-1.59375 -0.91249,0 -1.62836,0.70604 -2.53125,2.53125 -1.73496,3.50725 -1.63751,6.4144 0.375,11.875 1.89086,5.13052 2.87844,8.87154 3.0625,11.5 l 0.15625,2.25 -1.78125,2.65625 c -2.61154,3.86918 -3.96011,5.5692 -6.84375,8.5625 -2.99314,3.10698 -5.33966,4.54477 -9.03125,5.5 -2.03062,0.52545 -2.44257,0.53495 -4,0.25 -3.03515,-0.55532 -4.91142,-2.06542 -6.71875,-5.4375 -0.791,-1.47586 -1.11874,-4.95051 -0.7082,-7.65328 -2.73061,4.348 -4.32505,8.30899 -4.32305,9.40328 0.007,4.09945 1.70442,9.73286 3.5625,11.84375 0.9573,1.08755 2.7953,2.26586 4.4375,2.8125 1.00809,0.33556 6.09683,0.0652 7.625,-0.40625 2.94825,-0.90953 5.62412,-3.27873 9.875,-8.6875 1.68709,-2.14663 3.51519,-4.44371 4.0625,-5.125 0.54732,-0.68128 1.5896,-2.3763 2.3125,-3.75 l 1.3125,-2.5 0.34375,1.34375 c 0.36624,1.39874 1.15625,8.49331 1.15625,10.375 0,0.76157 0.381,1.84322 1.21875,3.53125 1.13388,2.28473 1.26533,2.45566 2.5625,3.0625 1.17211,0.54833 1.77498,0.65725 4.0625,0.65625 1.47886,-0.001 3.11125,-0.16201 3.625,-0.34375 1.48939,-0.52686 6.16303,-5.21916 7.03125,-7.0625 l 0.71875,-1.53125 -0.28125,-6.09375 c -1.20506,-19.13547 -2.46396,-37.04593 -3.3125,-58.28125 l -0.28135,-5.84375 c 0.28749,0.15749 0.55501,0.28001 0.8125,0.40625 l 4.46875,2.21875 -0.875,-2.34375 c -0.0962,-0.26498 -0.17875,-0.56126 -0.28125,-0.84375 -1.23243,-3.39482 -1.9288,-6.73768 -2.75,-10.2187501 -0.78496,-3.33232 -1.8125,-7.78125001111 -1.8125,-7.78125001111 0,0 -0.19798,-0.001999999 -0.46875,0 z" />
</svg>
