<?xml version="1.0" encoding="UTF-8" standalone="yes"?>
<svg>
  <path
     d="M 61.507283,20.070378 60.941033,9.2566272 c -0.08375,-1.60375 -0.1175,-1.8825 -0.33125,-2.79125 -0.655,-2.78625 -2.41875,-4.31125 -4.26375,-5.29625 -2.34375,-1.25249978 -4.13375,-1.71749978 -6.55,0.045 -1.9875,1.45 -2.175,6.7 -1.39375,7.52 0.5825,0.6125 2.1275,0.5575 3.99625,0.11875 4.66875,-1.09625 5.13625,-0.84375 6.3525,4.0937508 0.5775,2.34625 0.64625,4.54375 0.3625,6.90375 -0.60375,5.01 -2.0225,7.4475 0.75625,10.38875 1.1575,1.225 2.365,1.41 5.00375,0.86625 1.875,-0.38625 2.2475,-1.25625 3.03375,-3.8525 0.5525,-1.8275 0.99,-3.465 0.84875,-5.2875 -0.28125,-3.615 -4.19,-10.41 0.52125,-12.0975008 0.86875,-0.3125 1.99875,-0.10875 2.97375,0.10375 1.31375,0.2862508 1.53625,0.1562508 2.22875,-1.2975 0.57,-1.19625 1.22875,-2.29625 1.59,-3.58375 1.36,-4.82999978 -0.72125,-6.1937498 -4.8975,-4.21499998 -4.79125,2.26999998 -6.9425,11.99500078 -5.91875,18.51500078 0.3125,2.6875 0.65625,5.1075 0.65625,5.1075 0,0 -0.28625,-0.0038 -0.6275,-0.03625 -1.34125,-0.1325 -3.645,-1.9125 -3.775,-4.39125 z M 128.46549,0.0065691 c -1.62146,0.12805 -3.64619,2.14229 -4.625,3.4375 -0.80149,1.05966 -1.56486,2.30045 -1.90625,3.71875 -0.1582,0.65729 -0.25117,1.37771 -0.375,2.03125 l -0.59375,3.2187499 -2,-2.5624999 c -2.739,-3.60759 -1.91291,-4.67531 -5.9375,-5.65625 -1.34857,-0.32864 -4.28168,-0.20576 -4.84375,1.3125 -0.43986,1.18837 0.6032,4.09522 1.25,4.7812499 0.49734,0.52733 2.51189,1.82503 3.34375,1.90625 1.35932,0.13121 4.15625,-0.6875 4.15625,-0.6875 0,0 2.22443,3.20423 3.59375,4.718751 0.59756,0.66229 1.10875,1.20501 1.875,1.21875 0.3164,0.006 0.75,-0.0312 0.75,-0.0312 l -0.15625,-3.437551 c -0.0606,-1.39081 -0.0227,-1.64778 0.21875,-2.5 0.17906,-0.63105 0.36441,-1.30514 0.84375,-1.7499999 1.168,-1.0859 4.06543,-0.73028 5.40625,-1.625 1.93051,-1.28584 1.92327,-5.70932 0.4375,-7.5 -0.39384,-0.47485 -0.89701,-0.63643 -1.4375,-0.59375 z m 2.78204,21.2475859 c -0.20466,0.0284 -0.39599,0.11225 -0.5625,0.3125 -0.45235,0.54482 -0.92494,4.38027 -0.71875,5.21875 0.36113,1.46578 1.42164,1.94281 2.65625,2.9375 2.78911,2.248029 3.47989,3.943459 3.125,6.937499 -0.27241,2.29802 -1,5.96875 -1,5.96875 l 0.59375,0 c 0.26867,-0.005 0.33762,-0.15297 0.71875,-1.625 2.19305,-8.4673 2.61328,-13.164229 -2.78125,-18.593749 -0.66635,-0.67104 -1.41726,-1.24136 -2.03125,-1.15625 z M 81.125423,96.093417 c -0.44125,2.75625 0.095,3.4325 1.9275,2.5875 1.2475,-0.57625 17.347497,-9.941255 19.698747,-12.746255 0.9475,-1.13 1.89125,-3.1275 2.225,-4.925 0.205,-1.10625 -0.1275,-1.0675 -1.31875,-0.62375 -2.76375,1.02625 -20.977497,12.115005 -21.548747,13.116255 -0.5325,0.93625 -0.875,1.9075 -0.98375,2.59125 z M 10.368559,61.486405 c 0.1975,2.72125 1.46625,4.4125 3.775,4.90125 2.97875,0.63 4.6625,-0.985 5.42625,-4.2525 0.1675,-0.7175 0.13,-1.315 -0.33125,-1.6025 -0.8775,-0.54875 -3.2875,0.02 -4.4525,-0.59875 -1.44875,-0.76875 -1.8175,-4.0425 -1.45875,-5.5725 0.35875,-1.53125 1.2725,-3.17125 1.5225,-4.35125 0.05,-0.23875 0.0737,-0.45875 -0.0312,-0.5825 -0.0125,-0.015 -0.0263,-0.03 -0.0387,-0.0438 -3.50625,-0.79875 -4.3575,12.8375 -4.41125,12.1025 z M 62.121304,42.808126 c -3.63439,0.0863 -6.80881,1.20869 -8.28125,4.0625 0.3064,14.52662 0.74574,6.21842 5.03125,5.1875 4.76736,-1.14713 9.88138,-3.69316 4.4375,2.09375 l -6.28125,6.21875 c -1.04279,1.03592 -1.17697,1.23646 -1.46875,1.875 -0.4085,0.89347 -0.54444,2.39131 -0.34375,2.59375 0.64992,0.65604 2.919,-0.94143 3.71875,-1.53125 7.00426,-5.16585 10.21124,-8.43589 11.34375,-15.125 0.57557,-3.40017 -1.2209,-4.69139 -4.40625,-5.125 -1.26338,-0.17182 -2.53854,-0.27876 -3.75,-0.25 z M 21.752176,0.00465949 c -3.63439,0.0863 -6.80881,1.20869001 -8.28125,4.06250001 0.3064,14.5266195 0.74574,6.2184195 5.03125,5.1875 4.76736,-1.14713 9.88138,-3.69316 4.4375,2.0937495 l -6.28125,6.21875 c -1.04279,1.03592 -1.17697,1.23646 -1.46875,1.875 -0.4085,0.89347 -0.54444,2.39131 -0.34375,2.59375 0.64992,0.65604 2.919,-0.94143 3.71875,-1.53125 7.00426,-5.16585 10.21124,-8.43589 11.34375,-15.1249995 0.57557,-3.40017 -1.2209,-4.69139001 -4.40625,-5.12500001 -1.26338,-0.17182 -2.53854,-0.27876 -3.75,-0.25 z M 114.92111,37.123999 c -1.52384,-1.83167 -2.37701,-6.00511 -1.75904,-8.60481 0.18899,-0.7951 1.43394,-3.0588 2.76654,-5.03046 2.51307,-3.71823 3.27647,-4.30564 19.05294,-14.6608397 6.24707,-4.1003903 14.82588,-8.69602033 16.4436,-8.80875033 1.29956,-0.0906 1.48096,0.0912 1.62883,1.63231003 0.0915,0.95383 -0.17143,2.24983 -0.58433,2.88001 -0.88365,1.3486203 -5.51032,4.1727103 -14.79688,9.03193 -6.57721,3.44154 -16.65003,10.36219 -17.68615,12.15147 -0.28723,0.49602 -1.18431,1.75257 -1.99351,2.79232 -1.37067,1.76122 -1.41716,1.97323 -0.67991,3.10074 0.43524,0.66564 0.86231,2.50279 0.94903,4.08256 0.13959,2.54272 0.0378,2.88699 -0.88679,3.00023 -0.64292,0.0787 -1.5865,-0.52359 -2.45433,-1.56671 z m 26.30136,10.244063 -3.24993,-3.27907 3.27907,-3.24993 3.27908,-3.24993 3.24993,3.27907 3.24992,3.27908 -3.27907,3.24992 -3.27907,3.24993 -3.24993,-3.27907 z m -19.35329,36.931323 c -9.63356,-0.87484 -15.20836,-3.96286 -17.84282,-9.88357 -1.22045,-2.74287 -1.31746,-3.66914 -1.73822,-16.59928 -0.2451,-7.53187 -0.55832,-13.87706 -0.69605,-14.10041 -0.13772,-0.22335 -0.51655,-3.22618 -0.84184,-6.67295 -1.392866,-14.75883 -1.745086,-17.41927 -2.755206,-20.81076 -0.73012,-2.45137 -0.97268,-4.34118 -0.77085,-6.00572 0.50627,-4.1754206 4.159736,-11.8204107 4.746416,-9.9320406 1.21421,3.90821 3.13097,24.2390706 3.98157,42.2320106 0.81361,17.21064 1.32608,20.30426 4.0489,24.44184 2.52774,3.84113 6.06782,5.58523 13.43592,6.61953 3.03667,0.42627 6.98126,0.65515 8.76578,0.50862 4.33658,-0.3561 10.29559,-1.37268 10.2914,-1.75567 -0.01,-0.87389 -4.55287,-5.44095 -6.29864,-6.33157 -3.69791,-1.88654 -5.89095,-1.20645 -11.25085,3.48904 -3.63061,3.18056 -5.11982,3.62247 -4.58175,1.35959 1.51748,-6.3819 3.75775,-10.55288 6.91147,-12.86792 5.1055,-3.74779 8.531,-4.31979 13.28333,-2.21808 2.81464,1.24477 5.28392,3.94177 7.38454,8.06556 0.48385,0.94988 1.97031,2.41867 3.30324,3.26399 2.2633,1.43534 2.76649,1.53694 7.61196,1.53694 l 5.18846,0 -0.3063,1.88755 c -0.34557,2.12951 -3.33735,7.45747 -4.53049,8.06823 -0.43085,0.22054 -2.89842,0.88112 -5.48349,1.46794 -2.58508,0.58682 -7.63772,1.76092 -11.22811,2.60911 -7.14502,1.68793 -14.00601,2.22941 -20.62837,1.62802 z M 8.0214336,92.487763 c -1.43615,-0.67894 -3.24485,-1.91043 -4.01934,-2.73664 -3.33732995,-3.56024 -4.75812995,-10.33673 -3.60919995,-17.21409 1.93772995,-11.59908 3.71175995,-14.85659 3.71175995,-6.8156 0,8.53181 1.92838,13.56755 6.0057304,15.68332 2.94666,1.52904 5.67914,1.28196 9.98141,-0.90255 3.88463,-1.97244 6.54501,-4.48402 11.67297,-11.02006 3.57937,-4.56222 4.37772,-6.1101 4.25916,-8.25787 -0.22735,-4.11874 -6.49791,-16.16201 -10.38132,-19.93841 -1.83111,-1.78066 -1.95062,-2.08947 -1.89963,-4.90862 0.0607,-3.35277 0.92278,-6.4796 2.04284,-7.40916 1.18549,-0.98388 3.45571,1.03187 6.68571,5.9363 4.60538,6.9928 6.06401,10.46875 9.78412,23.31588 2.12671,7.34447 4.343,10.3705 9.51991,12.99817 2.53856,1.2885 4.26267,1.76207 7.23294,1.98671 4.44691,0.33632 6.14187,-0.27135 9.15147,-3.28095 2.15335,-2.15335 3.80776,-2.2892 4.95014,-0.40646 1.23425,2.03416 4.08249,2.7861 10.5873,2.79508 l 5.69616,0.008 -0.34393,-9.11675 c -0.18917,-5.01421 -0.57665,-10.24311 -0.86107,-11.61978 -0.47883,-2.31763 -2.76511,-27.97797 -2.71717,-29.74259 0.0117,-0.43085 0.18489,-1.75929 0.38486,-2.95209 0.29243,-1.74439 0.12792,-2.58802 -0.84078,-4.3116 -1.13203,-2.01416 -1.16294,-2.30731 -0.51481,-4.8814598 1.24312,-4.9372103 2.69564,-8.2346603 4.00537,-9.09283031 0.70298,-0.46061 1.40358,-0.71204 1.55689,-0.55873 0.15331,0.15331 0.61979,1.77144001 1.03662,3.59584001 0.41684,1.8244103 0.9662,3.9046203 1.22083,4.6227003 2.98088,8.4066098 3.20155,11.4892198 0.82246,11.4892198 -1.27434,0 -1.28622,0.043 -1.04553,3.78622 0.1339,2.08242 0.36635,10.35629 0.51655,13.49748 0.15021,3.14119 0.74685,9.36887 1.32588,13.83929 2.15654,16.64979 2.10275,15.59701 0.95377,18.66792 -0.57452,1.53556 -1.84899,3.98726 -2.83214,5.44821 -0.98315,1.46096 -1.78754,2.95915 -1.78754,3.32931 0,2.25154 -4.28232,4.118408 -10.83375,4.72296 -1.739065,0.160477 -3.339215,0.130994 -4.746467,-0.06219 -3.126499,-0.362954 -5.232106,-2.34881 -7.589347,-3.659894 -0.976835,0.714456 -1.472714,0.800508 -2.648779,1.719223 -1.060271,0.828259 -3.503817,2.024558 -5.193497,2.540138 -4.81056,1.46787 -8.80963,0.32809 -15.20617,-4.33393 -2.02417,-1.47528 -2.54072,-2.2762 -4.90572,-7.6064 -1.25036,-2.81802 -1.93924,-2.80532 -2.45517,0.0452 -0.59372,3.28031 -1.69046,4.87677 -7.18412,10.45751 -5.99634,6.09138 -11.29418,9.90106 -15.16499,10.90513 -3.38409,0.87783 -3.25682,0.88912 -6.3243804,-0.56107 z m 44.6034404,4.22593 -3.2645,-3.30264 3.28249,-3.25331 3.28249,-3.25332 2.28222,2.32541 2.28222,2.32541 2.69503,-2.30243 2.69503,-2.30244 3.23052,3.25949 3.23051,3.25949 -3.28137,3.25221 -3.28138,3.25221 -2.59431,-2.6406 -2.59431,-2.6406 -2.35007,2.66188 -2.35007,2.661877 -3.2645,-3.302637 z"
     style="fill:#000000;stroke:none" />
</svg>
