<?xml version="1.0" encoding="UTF-8" standalone="no"?>
<svg>
  <path
     d="m 114.90655,97.676212 5.73875,-6.09625 -7.33,-7.785 -7.33,7.785 5.74,6.09625 -5.74,6.097498 7.33,7.785 7.33,-7.785 -5.73875,-6.097498 z m 24.15,-15.77875 -7.33,7.78625 7.33,7.78625 7.32999,-7.78625 -7.32999,-7.78625 z m -129.9962377,4.0325 c -5.55625,-6.345 -11.13875,-15.56625 -8.29250003,-6.37 0.35375003,1.1425 0.75250003,2.3825 1.17625003,3.615 6.24,18.158748 18.7312497,27.117498 37.0387397,30.002498 1.5075,0.2375 2.8225,0.39125 3.8025,0.435 15.92875,0.7175 32.515005,-2.3925 45.653745,-6.89125 6.99,-2.39375 11.04125,-5.4925 14.723753,-12.581248 2.65875,-5.11875 3.695,-7.795 -0.18375,-9.45375 -4.230003,-1.8075 -18.603743,-3.0175 -18.603743,-3.0175 0,0 0.44375,-0.3775 0.98375,-0.88375 3.52874,-3.31375 10.72749,-9.17375 16.517493,-8.645 1.675,0.1525 2.92375,1.06125 3.66375,2.39625 4.09375,7.3775 3.40875,10.74125 10.49,9.66125 2.40625,-0.3675 5.82625,-1.0025 7.25875,-2.43375 1.8375,-1.83625 2.29625,-4.05125 3.89875,-3.68625 0.71,0.16125 1.5075,0.86 2.3475,1.4025 1.54375,0.9975 5.29,1.7925 7.9725,1.69125 2.94749,-0.11125 8.25499,-1.53 9.23874,-2.47125 1.43375,-1.37125 3.32875,-6.5 4.71125,-10.395 0.58875,-1.6625 0.6375,-2.04375 0.48625,-3.81 0,0 -3.6575,-42.65874 -3.6575,-42.65874 0,0 0.16375,-0.004 0.71375,-0.0138 5.6525,1.13625 4.7675,0.34 3.55375,-1.3625 -0.4325,-0.6075 -1.05875,-2.54625 -1.70125,-4.97 -1.57125,-5.9274994 -1.43,-5.9862494 -2.05875,-11.0249994 -0.0475,-0.3775 -0.105,-0.8175 -0.17625,-1.33 -0.36875,-2.67749999 -1.53875,-5.505 -5.04375,0.105 -0.3775,0.60625 -0.72375,1.23375 -1.0325,1.86625 -4.12124,8.4449994 -0.0612,6.3062494 0.1575,13.3462494 0.155,5.025 0.51625,16.80875 0.74875,25.28375 0.18625,6.77499 0.57375,12.35999 1.4825,15.32124 0.43375,1.41375 1.01125,2.72625 1.35,4.58125 0.5675,3.10875 0.5175,5.49625 -2.76625,5.825 -3.08875,0.3075 -8.17124,0.675 -9.71374,-0.0512 -2.21625,-1.04375 -2.6775,-3.70875 -4.58375,-2.205 -0.88125,0.695 -1.47375,2.25 -2.4,3.32 -2.425,2.80125 -11.45625,4.165 -13.90875,0.58625 -0.92125,-1.3425 -1.4675,-3.76 -2.15875,-5.77875 -1.3925,-4.07625 -3.03125,-5.05375 -6.23875,-4.5775 -9.460003,1.40125 -22.562493,10.53625 -24.878743,18.20125 -1.48,4.89875 -2.1075,10.85125 0.5225,12.16 1.24875,0.62125 3.20375,0.1775 5.805,0.2075 4.12624,0.0462 10.86374,1.3975 9.71624,4.025 -0.4075,0.93375 -3.0775,2.06 -5.52125,2.79624 -13.65374,4.111258 -35.803745,8.297508 -53.019995,4.448758 -10.84249,-2.42375 -21.81874,-9.523748 -28.0737397,-16.666248 z m 145.3724777,6.26875 c 0.195,2.8475 1.44625,4.61875 3.72125,5.13 2.93625,0.65999 4.59625,-1.03125 5.34875,-4.4525 0.165,-0.75 0.12875,-1.37625 -0.32625,-1.6775 -0.865,-0.57375 -3.24125,0.0213 -4.38875,-0.62625 -1.42875,-0.80625 -1.7925,-4.2325 -1.43875,-5.83375 0.35375,-1.60375 1.255,-3.32125 1.50125,-4.55625 0.05,-0.25125 0.0725,-0.48125 -0.03,-0.61 -0.0138,-0.0163 -0.0263,-0.0312 -0.0387,-0.045 -3.45625,-0.8375 -4.29625,13.44 -4.34875,12.67125 z"
     style="fill:#000000;stroke:none" />
</svg>
