<?xml version="1.0" encoding="UTF-8" standalone="no"?>
<svg>
  <path
     d="m 139.34374,49.736733 c 0,0 0.5675,-1.3075 0.91,-2.3425 0.57875,-1.74875 0.48625,-3.01125 0.2575,-4.82 -0.63625,-5.04375 -1.615,-16.47 -1.615,-16.47 0,0 1.755,-0.1975 3.0975,-0.1625 3.63,0.095 4.6875,1.805 6.5975,-0.1025 1.2425,-1.2425 2.355,-5.6425 1.56,-7.28625 -0.91,-1.88 -3.99,-2.785 -5.40625,-1.25125 -0.6525,0.7075 -1.025,1.82375 -1.7725,2.55875 -1.1575,1.13875 -3.2125,1.36375 -4.23125,2.31375 -1.74375,1.625 -1.97875,12.985 -1.6575,15.67625 0.54125,4.54 2.26,11.88625 2.26,11.88625 z m -123.567498,7.49625 0.2075,-2.5575 -3.62925,0.81125 c -17.6441266,3.945 -3.9791266,-26.06375 -7.3596266,-20.57375 -3.893375,6.32375 -5.59625005,13.8725 -4.80562505,20.62625 0.08625,0.73625 0.18025,1.40625 0.295125,2.02 1.84175005,9.845 14.68562665,7.15625 15.29187665,-0.32625 z m 14.13,18.1725 c 0.2225,3.07125 1.655,4.98 4.26125,5.53125 3.3625,0.71125 5.26375,-1.1125 6.125,-4.8 0.18875,-0.80875 0.14625,-1.48375 -0.37375,-1.80875 -0.99125,-0.61875 -3.71125,0.0238 -5.02625,-0.675 -1.63625,-0.86875 -2.05125,-4.56375 -1.6475,-6.29 0.405,-1.72875 1.4375,-3.58 1.71875,-4.9125 0.0575,-0.27 0.0837,-0.5175 -0.0337,-0.65625 -0.015,-0.0175 -0.03,-0.0338 -0.045,-0.05 -3.95625,-0.90125 -4.91875,14.49 -4.97875,13.66125 z m 4.45375,-53.40125 -0.62125,-11.855 c -0.0925,-1.7587504 -0.12875,-2.0650004 -0.3625,-3.0612504 -0.71875,-3.05375 -2.6525,-4.72625 -4.67375,-5.80625 -2.57125,-1.3725 -4.53375,-1.8825 -7.1825,0.05 -2.17875,1.59 -2.38375,7.345 -1.5275,8.245 0.63875,0.6712504 2.33125,0.6100004 4.38125,0.12875 5.1175,-1.20125 5.63125,-0.92375 6.96375,4.4887504 0.63375,2.5725 0.70875,4.98125 0.3975,7.56875 -0.6625,5.49375 -2.21625,8.16625 0.83,11.39125 1.2675,1.34125 2.5925,1.545 5.48625,0.94875 2.055,-0.4225 2.4625,-1.3775 3.325,-4.22375 0.60625,-2.00375 1.08625,-3.79875 0.93,-5.79625 -0.3075,-3.96375 -4.59375,-11.41375 0.57125,-13.265 0.95375,-0.34125 2.1925,-0.11875 3.26125,0.115 1.44,0.31375 1.685,0.17125 2.44375,-1.4237504 0.62375,-1.31 1.34625,-2.51625 1.74375,-3.9275 1.49,-5.29625 -0.7925,-6.79125 -5.37,-4.62125 -5.2525,2.48875 -7.61125,13.1500004 -6.49,20.2987504 0.34375,2.94625 0.72,5.6 0.72,5.6 0,0 -0.31375,-0.004 -0.6875,-0.0412 -1.47,-0.14375 -3.99625,-2.09625 -4.13875,-4.81375 z m 60.3825,0.21625 -0.1925,-4.39 c -0.0775,-1.775 -0.0513,-2.0925 0.25625,-3.18 0.22875,-0.80625 0.47,-1.68875 1.0825,-2.25625 1.49125,-1.385 5.182498,-0.90625 6.894998,-2.0475 2.46375,-1.6425004 2.46625,-7.2850004 0.56875,-9.5725004 -2.01125,-2.425 -6.076248,1.42625 -7.742498,3.63 -1.02375,1.35375 -1.9925,2.905 -2.4275,4.715 -0.2025,0.84 -0.31375,1.7912504 -0.4725,2.6262504 l -0.7725,4.0825 -2.555,-3.25 c -3.49625,-4.6050004 -2.43,-5.9737504 -7.5675,-7.2262504 -1.7225,-0.41875 -5.455,-0.2625 -6.1725,1.67625 -0.56125,1.51625 0.75625,5.2050004 1.5825,6.0800004 0.635,0.67375 3.205,2.345 4.2675,2.4475 1.73625,0.16875 5.28125,-0.88875 5.28125,-0.88875 0,0 2.8625,4.12 4.61,6.05375 0.76375,0.845 1.39375,1.525 2.3725,1.5425 0.40375,0.007 0.98625,-0.0425 0.98625,-0.0425 z m 18.032498,31.38125 0.76625,-0.0138 c 0.34375,-0.005 0.43625,-0.215 0.92375,-2.095 2.8,-10.80875 3.31125,-16.7775 -3.57625,-23.71 -1.135,-1.14125 -2.45625,-2.09875 -3.3075,-1.07625 -0.5775,0.695 -1.1675,5.595 -0.90375,6.665 0.46,1.87125 1.825,2.47875 3.40125,3.75 3.56,2.87 4.4525,5.0225 3.99875,8.845 -0.3475,2.93375 -1.3025,7.635 -1.3025,7.635 z m -28.397498,-6.535 c -0.0563,-1.53 -0.22875,-3.45125 -0.73125,-3.935 -0.29125,-0.28 -0.695,-0.0763 -0.94625,-0.2275 -1.13625,-0.68125 0.795,-3.4925 1.715,-4.56625 8.3525,-9.75 29.997498,-21.85375 41.433748,-24.35875 1.09,-0.23875 2.17875,-0.43125 2.385,-0.0625 0.1025,0.18375 -0.0125,0.50625 -0.18875,0.87 -0.41375,0.85375 -1.075,1.88875 -1.80875,2.9975 -15.23,22.9975 8.79375,-8.9187504 15.61125,-9.8150004 0.62375,-0.30875 1.20875,-0.55625 1.7275,-0.72 2.6525,-0.835 5.52625,-1.0125 5.87375,-3.555 0.05,-0.3575 0.0563,-0.80125 0.045,-1.2325 -0.11625,-4.16625 -6.91375,-2.17375 -11.705,-0.35125 -4.43375,1.6875 -11.0175,4.46625 -18.00125,7.6975 -9.0375,4.1800004 -36.093748,16.7300004 -39.901248,27.6312504 -1.22625,3.5125 -0.9975,7.4475 1.4475,10.8325 0.105,0.14625 0.2,0.27625 0.28625,0.395 -1.10375,-1.49875 2.99375,4.805 2.7575,-1.6 z m -49.22625,-6.69625 -8.79375,8.7925 8.79375,8.79375 8.7925,-8.79375 -8.7925,-8.7925 z m 87.306248,27.36625 c -1.07625,-0.58875 0.0525,-1.7125 0.30125,-1.86375 4.09875,-2.50375 4.7525,-1.28 6.4425,3.23125 0.175,0.46875 0.3475,0.89625 0.21125,1.06375 -0.14,0.1725 -0.61,0.0662 -1.10875,-0.0712 -1.99875,-0.55 -4.46375,-1.6025 -5.84625,-2.36 z m -15.26,17.2375 c 4.185,-2.3925 4.71375,-4.28 4.17875,-3.7575 0.37125,-0.3625 0.74875,-0.66625 1.18125,-0.87875 1.0775,-0.5275 2.49,-0.4775 4.09,-0.21375 4.835,0.79625 12.9025,4.46125 15.81875,0.6 0.86125,-1.14125 1.0675,-2.88 1.91375,-4.3875 0.735,-1.3075 1.9525,-2.4425 2.6625,-3.71125 1.7175,-3.06375 1.825,-7.56375 0.97625,-10.7475 -0.44875,-1.68875 -1.11125,-3.35125 -1.025,-5.0775 0.135,-2.69625 0.62625,-4.085 -2.6725,-4.75 -1.97,-0.39625 -6.6375,1.8175 -8.22375,2.57375 -4.88375,2.33125 -10.89625,5.7525 -13.05,9.97125 -3.44,6.7375 -1.79125,9.1675 -6.47375,10.34125 -0.73,0.1825 -1.5225,0.33375 -2.35875,0.445 -10.758748,1.44 -29.097498,2.26125 -30.339998,-9.91375 -0.0312,-0.3025 -0.0613,-0.655 -0.095,-1.08375 -1.2675,-15.92875 -3.31125,-39.26875 -3.1625,-47.82875 0.0487,-2.82125 0.60375,-12.3412504 -1.0525,-14.2862504 -1.61,-1.89125 -2.87,2.1375 -4.045,5.62375 -0.2175,0.64625 -0.43375,1.24875 -0.48625,1.905 -0.07,0.8837504 -0.0613,1.1962504 0.0788,3.1162504 0,0 3.70875,50.7275 4.19,57.3175 0.77625,10.6075 3.5225,18.15 18.2925,18.105 8.44375,-0.025 17.202498,-1.99125 19.602498,-3.3625 z m -51.851248,-2.93 0.7,3.4325 -2.7925,1.77625 c -1.5075,0.95875 -3.155,2.2175 -4.84875,3.03375 -4.54375,2.19125 -13.02,2.475 -19.6575,1.8975 -11.6,-1.0075 -17.048,-7.11625 -17.2335,-18.42125 0.002,0.15125 1.296,-15.34875 -3.0695016,-1.82125 -3.56775,11.05375 -3.347625,24.1775 7.1405016,30.646247 7.34875,4.5325 23.15125,2.155 29.8825,-1.35 2.86125,-1.489997 7.80125,-4.706247 9.00375,-6.402497 0.0163,-0.025 0.055,-0.10625 0.10875,-0.235 l 6.115,-19.82625 c 0.565,-1.61 0.75125,-3.02875 0.35125,-4.43 -0.54875,-1.9225 -2.39,-5.22625 -1.45125,-6.19375 0.02,-0.02 0.04,-0.0375 0.0613,-0.055 5.09375,1.14125 4.73,0.67875 3.3825,-0.66 -2.78,-2.7625 -4.54,-7.35125 -5.47625,-11.21375 -0.53625,-2.21125 -1.24875,-4.08 -2.91625,-3.1175 -4.19625,2.42375 -5.3075,10.16 -4.705,13.82 0.6075,3.6975 2.00125,7.905 3.1275,11.98125 0.46625,1.68375 0.88625,3.345 1.60125,4.91625 0.29375,0.64375 0.51125,1.41125 0.67625,2.2225 z"
     style="fill:#000000;stroke:none" />
</svg>
