<?xml version="1.0" encoding="UTF-8" standalone="yes"?>
<svg>
<path
	style="stroke:none; fill:#000000"
	d="M 53.464041,9.4554373 34.573031,21.740437 c -0.75,0.488 -0.89999,0.595 -1.494,1.072 -0.74,0.594 -1.621,1.654 -1.694,2.067 -0.13,0.735 0,2.323 0,2.323 0,0 0.386,-0.038 0.824,-0.105 l 12.93,-8.681 c 0.326,-0.151 0.533,-0.246 0.533,-0.246 0,0 -1.165,2.785 -1.873,4.832 -0.49599,1.435 -0.718,3.362 -0.428,3.72 1.113,1.377 1.418,-1.719 2.461,-4.32 0.517,-1.29 2.654,-4.512 3.746,-5.28 0.63601,-0.448 1.40301,-0.709 1.851,-1.193 0.516,-0.559 1.462,-2.542 1.605,-3.128 0.33,-1.352 0.43001,-3.3459997 0.43001,-3.3459997 z m 2.39756,34.0420157 1.498,0 c 0,0 0.47,-3.981 0.214,-6.576 -0.311,-3.153 -2.15,-5.389 0.711,-5.664 0.734,-0.071 1.671,0.148 2.504,0 1.042,-0.186 2.332,-0.88 2.671,-1.68 0.369,-0.871 0.706,-3.179 0.535,-3.682 -0.222,-0.653 -1.006,-1.409 -1.58,-2.04 -0.62,-0.682 -0.702,-0.76 -0.817,-0.774 -0.854,-0.11 -2.185,1.398 -2.312,1.696 -0.348,0.818 -0.255,2.116 -0.722,2.701 -0.412,0.515 -1.261,0.476 -1.846,0.819 -1.277,0.748 -1.891,4.208 -1.713,6.032 0.137,1.394 0.689,2.375 0.857,4.522 0.146,1.877 0,4.646 0,4.646 z m -35.967,-6.989 -1.769,2.132 -0.685,-0.548 c -0.509,-0.407 -1.165,-0.986 -1.462,-1.478 -0.273,-0.451 -0.243,-0.828 0,-1.123 0.669,-0.816 1.381,-1.035 0.45,-2.017 -0.617,-0.65 -1.521,-1.352 -2.224,-2.049 -1.15,-1.141 -1.765,-2.27 -3.423,-3.616 -0.9060002,-0.735 -2.1230002,-1.535 -2.1230002,-1.535 0,0 -0.444,1.177 -0.907,2.22 -2.976,6.709 -1.228,5.133 2.6430002,9.529 0.736,0.836 1.761,2.158 2.521,3.237 l 1.409,2.002 -0.989,1.221 c -0.641,0.791 -1.695,1.794 -2.76,3.602 -1.2210002,2.072 -1.6300002,7.606 -1.1260002,8.968 0.524,1.418 2.1640002,2.536 3.8320002,2.279 3.231,-0.496 7.415,-3.4 8.261,-6.36 0.911,-3.186 1.468,-7.356 0.152,-9.991 -0.112,-0.224 -0.225,-0.431 -0.33,-0.624 l -0.817,-1.507 1.583,-1.835 c 0.149,-0.173 0.299,-0.342 0.443,-0.503 3.061,-3.42 3.836,-5.956 6.032,-11.58 0.2,-0.511 3.761,-9.058 3.425,-11.712 -0.321,-2.539 -1.922,-3.461 -3.596,-2.688 -0.539,0.25 -0.973,0.614 -1.414,1.047 -0.936,0.921 -6.967,11.159 -7.725,13.113 -0.321,0.829 -0.608,1.638 -0.749,2.28 -0.086,0.394 -0.004,0.546 0.514,0.36 0.218,-0.078 0.387,-0.206 0.556,-0.36 1.759,-1.595 4.835,-8.264 6.421,-9.6 1.011,-0.851 2.216,-1.155 2.844,-0.087 1.149,1.955 0.591,2.266 -0.918,5.127 -1.121,2.128 -1.746,3.63 -3.212,5.797 -1.343,1.987 -3.393,4.534 -4.857,6.299 z m -2.529,8.929 1.567,1.72 c 0.179,0.197 0.312,0.344 0.41,0.457 l 1.02,1.17 -0.696,0.839 c -1.291,1.553 -5.373,2.826 -6.086,2.989 -0.989,0.228 -1.361,0.131 -1.027,-0.96 0.274,-0.894 2.124,-3.326 3.484,-4.788 l 1.32799,-1.427 z m -9.5070002,26.294 -6.836,2.469 c -0.825,0.297 -0.921,0.342 -0.964,0.446 -0.417,1.003 1.508,0.729 2.095,0.815 0.328,0.048 0.604,0.153 0.888,0.248 2.686,0.901 4.627,0.833 6.69,0.394 11.4170002,-2.431 27.8940002,-8.281 28.8750002,-23.434 0.172,-2.663 -0.142,-5.923 -0.142,-5.923 0,0 2.174,-1.324 3.27,-2.096 0.681,-0.478 0.947,-0.743 1.392,-1.559 0.492,-0.903 1.203,-2.478 1.203,-2.478 0,0 1.186,4.366 2.114,6.557 1.172,2.765 4.235,5.128 7.106,4.801 0.82,-0.094 1.66199,-0.388 2.526,-0.841 4.875,-2.554 4.646,-4.429 8.668,-1.56 5.104,3.641 5.416,1.501 8.668,-5.88 0.296,-0.671 0.582,-1.252 0.642,-1.876 0.092,-0.952 -0.341,-2.004 -0.142,-2.924 0.471,-2.186 2.325,-2.775 0.998,-4.68 -2.21,-3.172 -9.178,2.036 -10.584,3.178 -0.992,0.806 -1.881,1.618 -2.472,2.583 -0.819,1.338 -1.062,2.968 -1.941,4.063 -0.419,0.522 -4.282,1.802 -5.122,1.696 -1.87,-0.235 -4.626,-1.604 -5.671,-3.84 -1.304,-2.788 -2.575,-8.487 -3.232,-8.64 -0.084,-0.019 -0.172,-0.027 -0.257,-0.016 -0.116,0.015 -0.17,0.114 -0.544,0.992 -1.267,2.972 -1.234,3.235 -2.923,4.424 -1.931,1.359 -2.568,1.83 -4.022,0.64 -1.001,-0.819 -2.894,-2.872 -4.16,-2.71 -0.215,0.027 -0.271,0.132 -0.563,1.049 -1.09,3.419 -1.764,6.672 -0.245,9.861 0.375,0.787 0.868,1.436 1.284,2.2 0.141,0.258 0.523,1.08 0.913,2.046 0.434,1.075 0.441,2.168 0.139,3.241 -3.273,8.592 -25.5400002,15.992 -27.6510002,16.754 z m 57.8260002,-30.496 c 0.455,-0.375 3.35,-1.993 3.661,-1.745 0.325,0.26 -0.647,2.195 -0.428,2.962 0.097,0.343 0.431,0.452 0.696,0.755 0.3,0.342 0.511,0.93 0.72,1.499 0.191,0.518 0.175,0.6 -0.147,0.559 -0.102,-0.013 -0.197,-0.068 -0.949,-0.551 l -4.173,-2.68 c 0,0 0,-0.192 0,-0.192 0,-0.086 0.062,-0.147 0.62,-0.607 z m -51.932,-23.223 3.528,3.956 4.326,-4.85 -4.326,-4.851 -3.528,3.956 -3.528,-3.956 -4.3260002,4.851 4.3260002,4.85 3.528,-3.956 z m 35.285,46.733 3.528,3.956 4.326,-4.851 -4.326,-4.851 -3.528,3.956 -3.528,-3.956 -4.326,4.851 4.326,4.851 3.528,-3.956 z m -6.879,-48.532 -0.124,-3.203 c -0.051,-1.295 -0.034,-1.527 0.166,-2.32 0.149,-0.589 0.306,-1.2320002 0.704,-1.6470002 0.971,-1.011 3.373,-0.661 4.487,-1.494 1.604,-1.199 1.605,-5.316 0.371,-6.98500004 -1.309,-1.76899996 -3.955,1.04100004 -5.039,2.64900004 -0.666,0.988 -1.296,2.12 -1.58,3.441 -0.131,0.612 -0.204,1.307 -0.307,1.916 l -0.503,2.9790002 -1.662,-2.3720002 c -2.276,-3.36 -1.582,-4.358 -4.925,-5.272 -1.12,-0.306 -3.55,-0.192 -4.017,1.222 -0.365,1.107 0.493,3.798 1.03,4.438 0.413,0.4910002 2.086,1.7100002 2.778,1.7850002 1.129,0.123 3.436,-0.648 3.436,-0.648 0,0 1.863,3.006 3,4.417 0.497,0.616 0.907,1.112 1.544,1.126 0.263,0.005 0.641,-0.032 0.641,-0.032 z"/>
</svg>