<?xml version="1.0" encoding="UTF-8" standalone="no"?>
<svg>
  <path
     d="m 13.83061,8.666415 c 0.4421,-0.041 0.9961,-0.113 1.5075,-0.242 1.1047,-0.279 1.5085,-0.591 1.8138,-1.701 0.0889,-0.323 0.1716,-0.64 0.3561,-0.897 0.5478,-0.763 1.698,-0.937 2.8899,-0.699 1.0683,0.214 2.5958,0.723 2.5958,0.723 0,0 -2.9823,3.552 -4.9115,5.262 -0.2579,0.228 -0.4936,0.433 -0.7093,0.618 0.1895,-0.162 -7.5425997,5.608 -5.3436,6.183 0.5186,0.136 1.4017,0.331 2.1892,0.333 2.1058,0.005 9.6796,-7.739 10.5078,-9.028 0.533,-0.829 1.4896,-5.658 1.2402,-6.26 -0.7999,-1.931 -5.2228,-3.38099998 -8.4028,-2.84599998 -4.323,0.728 -4.8613,2.44099998 -5.0217,6.33399998 -0.127,3.084 1.2892,2.22 1.2886,2.22 z m 93.0174,13.927 c 0,0 -0.035,1.318 -0.035,1.318 0,0 0.572,0.286 1.136,0.515 0.378,0.154 1.721,0.016 3.176,-0.245 3.494,-0.626 12.256,-5.93 14.438,-8.915 0.236,-0.323 0.476,-0.683 0.725,-1.092 0.698,-1.144 1.189,-2.112 1.189,-2.112 l -0.231,10.762 c -0.005,0.229 0.008,0.275 0.13,0.469 1.886,2.984 2.629,2.992 6.158,3.175 5.532,-0.905 3.882,-4.323 2.2,-6.457 -0.636,-0.807 -2.172,-2.393 -3.078,-2.865 -0.404,-0.21 -0.752,-0.21 -0.985,0.115 -0.412,0.576 -0.47,2.566 -0.298,3.459 0.069,0.362 0.169,0.555 0.715,0.954 0.626,0.458 1.838,1.186 1.838,1.186 0,0 -0.473,0.031 -1.019,0.028 -4.16,-0.018 -4.313,-3.418 -4.151,-6.315 0.139,-2.479 0.658,-11.779 0.658,-11.779 0.013,-0.229 0.006,-0.278 -0.075,-0.492 -1.012,-2.701 -1.397,-4.08399998 -3.435,-4.27499998 -3.338,-0.313 -5.073,2.12499998 -5.437,5.10099998 -0.16,1.31 0.231,3.799 0.738,4.696 0.238,0.421 0.507,0.627 1.33,1.014 0.932,0.438 2.577,1.107 2.577,1.107 0,0 -4.995,4.11 -7.713,6.067 -1.321,0.951 -2.104,1.393 -3.701,2.05 -2.459,1.011 -6.85,2.531 -6.85,2.531 z m 20.323,-15.695 -1.446,-0.142 c -0.918,-0.4 0.912,0.021 -1.954,-0.369 -0.084,-0.012 -0.164,-0.023 -0.239,-0.035 -0.582,-0.092 -0.709,-0.196 -0.654,-0.567 0.019,-0.124 0.045,-0.145 0.265,-0.209 0,0 0.01,-0.003 0.112,-0.032 0.059,-0.018 2.866,-0.585 3.221,0.133 0.054,0.109 0.131,0.265 0.207,0.419 l 0.488,0.802 z m -117.6210997,38.152 c 0.7532997,-0.048 1.4849997,-0.161 1.9944997,-0.393 0.533,-0.242 1.2465,-1.829 1.6479,-3.178 0.9526,-3.201 -0.5132,-1.856 -4.5001997,-1.463 -3.6848,0.363 -4.5325,-3.613 -3.8696,-6.221 0.8589,-3.378 5.7901997,-10.641 5.8889997,-10.572 -0.2733,-0.19 -0.5497,-0.307 -0.5497,-0.307 0,0 -0.4391997,0.408 -1.0743997,1.022 -3.7723,3.648 -8.48529996,9.407 -7.4065,15.244 0.7115,3.849 3.9131,6.12 7.869,5.868 z m -5.683,0.868 0.0101,-0.104 c 0,0 -3.05379996,7.736 -3.76429996,11.819 -0.4702,2.703 0.5646,10.667 2.47299996,13.292 1.1832,1.628 4.3425,3.89 6.5151,3.8 0.786,-0.033 1.5918997,-0.325 2.2757997,-0.298 0.3614,0.015 0.6888,0.118 1.0615,0.161 2.4961,0.289 5.4966,-1.423 6.6802,-2.583 0.6444,-0.631 2.2051,-2.608 3.6041,-4.624 1.7107,-2.466 4.7077,-9.466 4.744,-12.41 0.0197,-1.607 -0.0117,-3.583 0.0287,-4.951 0.0067,-0.229 0.0134,-0.261 0.0665,-0.323 0.0911,-0.105 0.1301,-0.129 0.2229,-0.115 0.0374,0.006 0.0497,0.031 0.1229,0.247 4.2455,12.575 4.0416,15.768 12.1771,20.193 1.423,0.774 3.2179,1.328 5.3839,1.59 1.5182,0.184 3.496,0.319 3.496,0.319 l 0.135,-5.083 0.2451,0.006 c 0,0 0.3514,-1.273 0.2578,-1.915 -0.0738,-0.506 -0.4246,-0.618 -0.8665,-0.701 -3.5309,-0.661 -5.3201,-0.391 -7.2839,-1.538 -3.2573,-1.902 -5.9658,-7.311 -5.2666,-9.656 0.5815,-1.95 2.6492,-3.423 4.7236,-4.098 3.6096,-1.174 3.4029,-0.077 5.9641,1.941 3.5655,2.808 4.7721,3.886 9.376,4.281 5.1543,0.442 10.7376,-0.029 16.133,-0.66 18.4925,-2.164 14.7525,-3.776 18.8959,-10.611 0.3219,-0.28 0.6461,-0.525 0.9345,-0.692 1.9593,-1.136 5.0089,-2.381 5.0089,-2.381 0,0 -0.2532,2.775 -0.4316,4.664 -0.3851,4.08 -0.1207,5.53 2.6977,9.02 1.5396,1.907 3.1526,2.917 5.8036,3.545 1.403,0.333 11.311,0.126 13.516,-0.281 1.019,-0.189 1.976,-0.397 2.755,-0.828 0.596,-0.331 1.087,-0.793 1.643,-1.164 0.753,-0.503 4.093,-1.102 5.034,-0.904 3.745,0.79 9.959,6.04 12.461,2.196 0.736,-1.13 0.857,-3.153 1.594,-4.677 1.061,-2.192 2.303,-2.741 1.652,-4.732 -0.315,-0.964 -1.118,-1.666 -1.554,-3.207 -0.603,-2.13 -0.507,-5.865 -0.507,-5.865 0,0 -4.266,0.083 -7.178,0.8 -0.779,0.192 -7.831,3.756 -8.852,5.084 -0.693,0.902 -0.815,2.193 -1.184,3.213 -0.277,0.766 -2.231,2.638 -3.117,2.986 -0.933,0.367 -13.082,0.429 -14.6,0.076 -2.818,-0.657 -6.713,-3.082 -7.5072,-6.757 -0.3184,-1.473 -0.3589,-3.513 -0.3589,-3.513 l 10.5451,-1.19 1.691,0.158 0.814,-4.387 1.198,-3.01 -11.946,-0.549 c -0.229,-0.011 -0.279,-0.018 -0.5,-0.076 -0.808,-0.212 -1.6542,-0.4 -2.4104,-0.685 -1.7938,-0.673 -3.0841,-1.885 -4.7448,-2.64 -2.9978,-1.361 -8.7735,-1.378 -11.8251,-0.979 -1.3837,0.181 -4.1114,1.31 -4.4465,1.84 -0.342,0.541 -0.4199,1.237 -0.6056,1.864 -0.0651,0.219 -0.0798,0.243 -0.1475,0.241 l -0.1507,-0.004 -0.0968,5.876 c 0,0 2.233,-0.29 3.7944,-0.247 1.9921,0.054 2.8913,0.65 3.4228,0.263 0.5885,-0.428 0.7261,-2.06 1.5534,-2.609 0.4699,-0.312 4.7702,-0.336 6.3111,0.733 0.3548,0.246 0.7198,0.565 0.7198,0.565 0,0 -1.7171,1.54 -2.5618,2.815 -0.1491,0.225 -0.2711,0.442 -0.3744,0.65 -2.0864,4.212 -2.9663,6.08 -7.36,7.139 -2.0251,0.488 -4.1903,0.926 -5.1599,0.988 -6.5833,0.416 -19.2393,1.909 -24.4386,-1.351 -2.7091,-1.698 -6.2319,-5.091 -7.5472,-5.264 -1.7469,-0.231 -6.1776,1.714 -7.702,3.751 -0.8646,1.156 -2.6446,4.495 -3.0001,6.084 -0.4874,2.179 -0.5894,6.436 -0.5894,6.436 0,0 -2.0942,-5.658 -3.1001,-9.984 -1.1724,-5.042 -0.8667,-8.273 -1.926,-11.206 -1.0437,-2.889 -5.1104,-9.29 -7.8117,-11.266 -3.1836,-2.33 -3.6659,-1.23 -3.8734,2.186 -0.1003,1.653 0.2513,3.839 0.7762,4.825 1.0688,2.008 3.715,4.673 5.1077,6.645 0.019,0.026 2.9622,4.48 3.9174,7.228 0.0442,0.127 0.0831,0.254 0.1169,0.379 0.4283,1.587 -1.4991,8.038 -2.3842,10.02 -1.801,4.035 -5.5688,9.384 -8.1795,10.819 -2.0843,1.146 -5.8484,2.03 -7.5229997,1.609 -3.0962,-0.778 -5.7941,-3.877 -6.4727,-6.816 -1.158,-5.015 1.7141,-15.676 1.6886,-15.413 z m 134.9000997,0.952 -0.039,1.445 -0.052,1.984 -1.353,-0.227 c -0.167,-0.028 -0.354,-0.059 -0.561,-0.094 -5.194,-0.873 -0.196,0.392 -5.006,-1.238 -0.528,-0.179 -1.227,-0.303 -1.227,-0.303 l 0.015,-0.565 c 0,0 0.975,-0.358 1.739,-0.679 1.633,-0.685 2.68,-1.133 3.506,-0.991 0.422,0.073 0.91,0.235 1.313,0.32 l 1.665,0.348 z m -11.567,23.952 c 0.153,2.11 1.137,3.423 2.928,3.801 2.31,0.489 3.617,-0.764 4.209,-3.298 0.13,-0.556 0.101,-1.02 -0.257,-1.243 -0.681,-0.425 -2.55,0.016 -3.454,-0.464 -1.124,-0.597 -1.41,-3.135 -1.132,-4.322 0.279,-1.188 0.988,-2.46 1.181,-3.375 0.039,-0.186 0.057,-0.357 -0.023,-0.452 -0.011,-0.012 -0.021,-0.023 -0.031,-0.034 -2.719,-0.62 -3.38,9.957 -3.421,9.387 z m -68.1252,0 c 0.153,2.11 1.1374,3.423 2.9282,3.801 2.3103,0.489 3.6166,-0.764 4.2088,-3.298 0.1298,-0.556 0.1007,-1.02 -0.2572,-1.243 -0.6805,-0.425 -2.5497,0.016 -3.4534,-0.464 -1.1241,-0.597 -1.4099,-3.135 -1.1318,-4.322 0.2783,-1.188 0.9879,-2.46 1.181,-3.375 0.0391,-0.186 0.0571,-0.357 -0.0236,-0.452 -0.0102,-0.012 -0.0204,-0.023 -0.0307,-0.034 -2.719,-0.62 -3.38,9.957 -3.4213,9.387 z m -6.6324,-44.203 -0.5173,0.009 c -0.6657,0.011 -0.7555,0.094 -0.8977,0.832 -0.0623,0.324 -0.2477,0.817 -0.4562,1.294 -1.2143,2.776 -2.6616,2.134 -3.7039,0.084 -0.9512,-1.872 -2.0934,-3.942 -2.2809,0.212 -0.0752,1.665 0.1109,4.84 1.3941,5.704 1.3743,0.926 3.5034,0.207 4.8319,-0.69 0.313,-0.211 0.5921,-0.457 0.7434,-0.77 0.0868,-0.179 0.1315,-0.38 0.1635,-0.578 l 0.1877,-1.162 1.2946,0.147 c 0.2361,0.026 0.4819,0.049 0.7188,0.038 0.8237,-0.036 1.4584,-0.434 1.9337,-1.021 2.1599,-2.67 1.1625,-5.894 -0.5308,-8.163 -1.2669,-1.698 -3.4054,-4.362 -1.3142,0.965 0.7627,1.943 0.6445,3.06 -1.5667,3.099 z m 33.9137,39.86 c -1.4831,2.182 -3.5963,3.828 -3.1688,5.56 1.0263,4.16 7.7635,2.594 10.7278,1.232 1.54,-0.708 4.0321,-3.097 4.5718,-4.384 0.2218,-0.529 0.3745,-1.089 0.1005,-1.222 -0.175,-0.085 -0.5239,0.005 -0.8821,0.129 -1.2883,0.448 -2.6972,1.35 -4.0958,1.877 -2.372,0.894 -5.7616,1.219 -6.537,-0.982 -0.158,-0.449 -0.1081,-0.903 0.1122,-1.365 1.4298,-2.994 5.4563,-4.13 4.7351,-6.369 -0.9938,-3.085 -4.6081,-2.567 -6.6411,-1.09 -0.0217,0.016 -3.8018,3.629 -2.6466,4.293 0.183,0.105 0.5515,0.041 0.9263,-0.07 0.6754,-0.2 1.3711,-0.552 2.2181,-0.714 1.4025,-0.267 1.602,0.512 1.4609,1.315 -0.1575,0.895 -0.8391,1.728 -0.8813,1.79 z m -50.7957,-32.284 c -0.041,-1.112 -0.1665,-2.508 -0.5318,-2.859 -0.2117,-0.204 -0.5041,-0.056 -0.6875,-0.166 -0.8247,-0.495 0.5782,-2.537 1.2467,-3.317 6.068,-7.083 21.7936,-15.878 30.1021,-17.697 0.792,-0.173 1.5833,-0.313 1.733,-0.045 0.0745,0.133 -0.0097,0.367 -0.1375,0.631 -0.3001,0.621 -0.7805,1.372 -1.3138,2.178 -11.0653,16.709 6.3889,-6.479 11.3415,-7.131 0.4531,-0.224 0.8784,-0.404 1.2554,-0.523 1.9273,-0.606 4.0146,-0.735 4.2679,-2.583 0.0356,-0.259 0.0407,-0.582 0.032,-0.895 -0.0842,-3.027 -5.0229,-1.57899998 -8.5035,-0.255 -3.2213,1.225 -8.0047,3.244 -13.0787,5.592 -6.5654,3.037 -26.2225,12.155 -28.9886,20.075 -0.8913,2.551 -0.7256,5.411 1.0512,7.87 0.0762,0.106 0.1454,0.201 0.2085,0.287 -0.802,-1.089 2.1746,3.491 2.0031,-1.162 z m 7.5297,-18.052 -0.1392,-3.189 c -0.0563,-1.29 -0.0377,-1.521 0.1862,-2.31 0.166,-0.586 0.3413,-1.227 0.7859,-1.64 1.0834,-1.006 3.7657,-0.659 5.0093,-1.488 1.7906,-1.193 1.7919,-5.293 0.4139,-6.95399998 -1.4611,-1.76200002 -4.4149,1.03599998 -5.6253,2.63699998 -0.7434,0.984 -1.4472,2.111 -1.7639,3.426 -0.1468,0.61 -0.2279,1.302 -0.3427,1.908 l -0.562,2.966 -1.8558,-2.362 c -2.5404,-3.345 -1.7656,-4.339 -5.4985,-5.249 -1.2507,-0.305 -3.9629,-0.191 -4.4842,1.217 -0.4079,1.102 0.5497,3.782 1.1496,4.418 0.4613,0.49 2.3293,1.704 3.101,1.778 1.2607,0.122 3.837,-0.646 3.837,-0.646 0,0 2.0792,2.993 3.3493,4.399 0.5542,0.613 1.0125,1.107 1.7232,1.12 0.2935,0.006 0.7162,-0.031 0.7162,-0.031 z m 22.4302,18.052 c -0.041,-1.112 -0.1665,-2.508 -0.5318,-2.859 -0.2118,-0.204 -0.5041,-0.056 -0.6875,-0.166 -0.8247,-0.495 0.5782,-2.537 1.2466,-3.317 6.0681,-7.083 21.7937,-15.878 30.1022,-17.697 0.792,-0.173 1.5833,-0.313 1.733,-0.045 0.0745,0.133 -0.0097,0.367 -0.1375,0.631 -0.3001,0.621 -0.7805,1.372 -1.3139,2.178 -11.0652,16.709 6.3886,-6.479 11.3416,-7.131 0.453,-0.224 0.878,-0.404 1.255,-0.523 1.928,-0.606 4.015,-0.735 4.268,-2.583 0.036,-0.259 0.041,-0.582 0.032,-0.895 -0.084,-3.027 -5.023,-1.57899998 -8.503,-0.255 -3.222,1.225 -8.005,3.244 -13.079,5.592 -6.5653,3.037 -26.2224,12.155 -28.9885,20.075 -0.8913,2.551 -0.7256,5.411 1.0512,7.87 0.0762,0.106 0.1454,0.201 0.2085,0.287 -0.8021,-1.089 2.1746,3.491 2.0031,-1.162 z"
     style="fill:#000000;stroke:none" />
</svg>
