<?xml version="1.0" encoding="UTF-8" standalone="no"?>
<svg>
  <path
     d="m 27.031621,36.451617 29.94695,-20.693741 c 0,0 -1.7512,7.978836 -1.45255,10.334137 0.17818,1.39317 1.5883,0.385196 3.49732,-1.157288 5.16028,-4.17267 15.92544,-16.0883468 16.61269,-18.8457999 0.7144,-2.8626883 0.77379,-6.08850020824 0.77379,-6.08850020824 0,0 -14.37446,6.44315280824 -24.75104,11.74088210824 -8.17567,4.176077 -34.2554,17.588409 -34.4183,29.571936 -0.0339,2.457128 4.63086,16.023865 9.41273,13.480194 2.16864,-1.152197 1.70878,-5.32488 -0.13059,-7.653031 -1.51026,-1.909015 -4.8243,-2.922052 -4.25414,-5.540387 0.30205,-1.39146 2.22126,-2.682803 3.39551,-3.955493 0.56337,-0.612569 0.69912,-0.731352 1.3677,-1.192909 z m -2.78122,-19.424458 c 1.68333,1.206497 6.38037,-0.899359 7.98392,0.164599 0.53623,0.35635 0.72628,1.069049 1.29983,1.535697 2.59966,2.107567 4.5019,0.407257 4.79716,-1.296433 0.61767,-3.580465 -0.12055,-5.46233 2.32305,-7.4392209 2.67602,-2.1652613 5.01266,-2.2331374 3.45321,-7.7904935 -0.69234,-2.46728284 -1.83946,-2.80496646 -3.72981,-1.2913429 -2.47577,1.9836791 -4.28977,5.8169957 -6.90809,5.8543276 -2.64037,0.035703 -6.09697,-3.7807126 -8.05691,-2.823646 -1.70876,0.8348761 -4.49847,10.6989837 -1.16236,13.0865127 z m 73.02964,39.855179 c 0,0 -0.10358,2.143188 -0.3869,3.19186 -0.40895,1.518728 -3.4549,2.277257 -5.54547,1.157288 -1.05718,-0.568463 -2.18901,-1.65277 -2.18901,-1.65277 0,0 3.48373,-3.18848 5.8017,-3.566889 0.62277,-0.100185 1.16069,0 1.16069,0 l 0,0.436104 0.77209,0 0,0.434407 0.3869,0 z m 8.820499,49.067652 2.39602,-4.27619 c 1.74103,-2.949224 2.70656,-10.583602 2.70656,-10.583602 0,0 -18.408009,-2.962779 -24.751029,-7.245774 -6.32436,-4.269394 -10.2476,-11.021383 -10.2476,-11.021383 0,0 13.84844,2.292516 19.14277,2.759164 2.14659,0.188356 2.88813,0.07806 3.71283,-0.434407 1.903909,-1.184425 4.759809,-7.654714 5.182339,-11.742566 0.85015,-8.229992 -0.77379,-21.2096 -0.77379,-21.2096 0,0 -3.1851,-0.59731 -5.414819,-0.534524 -3.69756,0.105208 -13.95363,6.544953 -14.88862,7.393404 -5.03642,4.562972 -6.90471,12.667379 -11.7952,17.220182 -4.95154,4.612181 -13.07802,5.699896 -16.24275,10.437648 -2.17034,3.247885 -2.93225,9.651996 -0.36315,11.219934 4.25754,2.599641 20.08626,2.435041 20.08626,2.435041 0,0 -6.94033,5.596399 -9.66896,10.872073 -2.58778,5.00586 -1.0419,13.84843 -5.21966,8.69833 -0.93501,-1.15389 -1.92769,-3.03746 -2.82026,-4.61049 -0.42084,-0.74323 -0.50059,-0.91632 -0.79416,-1.73253 -2.22801,-6.18521 -12.14982,-45.400656 -22.10386,-48.451701 -4.1676,-1.277768 -5.00756,7.366268 -3.48034,13.045801 1.366,5.087328 4.99397,7.970352 8.24016,13.439482 4.08784,6.889425 7.69546,17.316892 6.84191,21.089118 -0.60409,2.67431 -10.50214,13.97909 -14.69517,16.78748 -5.06357,3.387 -9.97102,4.07255 -14.11316,2.10414 C 7.5426905,120.02413 0.84670051,97.764129 2.4451905,98.522645 c -5.93238,-12.353451 0.77718,19.331135 0.91632,19.697665 0.86033,2.27044 1.93787,4.99907 2.90001,7.08966 3.7722105,8.19605 10.7634705,10.64297 19.4736705,8.10951 5.25532,-1.52722 18.42328,-10.02871 20.11,-17.24564 0.91124,-3.89948 0.97403,-9.49927 0.97403,-9.49927 0,0 4.61897,10.20179 8.30803,15.00402 5.01945,6.53308 26.5786,13.2681 30.55105,10.43767 2.05834,-1.46614 5.40804,-8.82731 5.02794,-11.04685 -0.83149,-4.84975 -5.23496,-1.0928 -11.60174,-1.13013 -3.76543,-0.0221 -12.00728,-6.05627 -10.44274,-10.43766 1.17085,-3.27673 8.55747,-5.4759 11.98862,-6.52289 4.15741,-1.2676 7.8312,-2.39435 13.1493,-2.17375 4.78867,0.19854 10.911089,1.48818 10.227239,2.58609 l 2.07362,2.55892 z m -56.927719,-67.959296 -0.94519,0.01697 c -1.21497,0.02376 -1.37957,0.195144 -1.6375,1.710491 -0.11362,0.663489 -0.45307,1.674843 -0.83317,2.653956 -2.21616,5.698199 -4.85825,4.381402 -6.76046,0.171387 -1.73594,-3.840104 -3.82144,-8.089135 -4.16252,0.436104 -0.13745,3.417562 0.20193,9.933668 2.54367,11.708628 2.50801,1.898848 6.39393,0.424226 8.8188,-1.416914 0.57186,-0.43271 1.08092,-0.938373 1.35751,-1.579802 0.15781,-0.368228 0.23926,-0.780576 0.29866,-1.187832 l 0.34277,-2.384162 2.3621,0.300352 c 0.43102,0.0543 0.8807,0.101814 1.31171,0.07982 1.50345,-0.07303 2.66245,-0.890874 3.52956,-2.095675 3.9419,-5.479298 2.12282,-12.097218 -0.96892,-16.755216 -2.3112,-3.483755 -6.21578,-8.951161 -2.39774,1.981969 1.39146,3.987734 1.17595,6.280236 -2.85928,6.359991 z M 100.41929,11.973783 c 0.46665,0.934993 -0.583729,1.98877 -1.029999,2.173732 -1.42201,0.593929 -3.43453,-0.58034 -3.99791,-2.460509 -0.22399,-0.746637 -0.0848,-1.486486 0.3869,-1.8869549 1.49836,-1.2794782 3.76712,0.4276189 4.641009,2.1737319 z m -6.295509,10.327363 c -1.94463,3.451486 -14.2404,14.152168 -19.61619,17.069143 -9.91502,5.382589 -22.75378,12.759025 -23.20346,14.639179 -0.29696,1.242133 0.0187,2.541974 1.41522,3.191888 2.30439,1.072442 16.68565,-6.003642 19.12918,-7.266138 5.66935,-2.930564 12.49602,-8.2249 16.58215,-13.173068 1.79533,-2.175429 7.08458,-10.035482 9.79962,-7.827812 1.1505,0.934993 1.50855,2.927143 2.961079,2.173719 0.83829,-0.434407 1.06398,-2.436739 1.12167,-4.417024 0.095,-3.371759 -0.30375,-6.673932 0.28169,-9.845443 1.30152,-7.0489327 4.07767,-12.2584238 -1.65789,-15.7438753 -3.519359,-2.1380838 -9.548459,-0.95196237 -11.347179,1.7393252 -1.17087,1.7546108 -3.59744,11.1673291 -1.93278,13.1951281 1.85642,2.261971 7.59705,4.259225 6.46689,6.264978 z"
     style="fill:#000000;stroke:none" />
</svg>
