<?xml version="1.0" encoding="UTF-8" standalone="no"?>
<svg>
  <path
     d="m 49.769434,8.2994936 -0.68627,0.0113 c -0.88378,0.0163 -1.00378,0.12625 -1.19254,1.10628 -0.0825,0.42877 -0.32876,1.0837804 -0.60501,1.7163004 -1.61255,3.68511 -3.53261,2.83383 -4.9164,0.11126 -1.26253,-2.4838304 -2.77883,-5.2314104 -3.02758,0.28125 -0.10001,2.21132 0.14625,6.42519 1.85005,7.57272 1.8238,1.22879 4.65013,0.27501 6.41394,-0.91627 0.41501,-0.28001 0.78627,-0.60627 0.98627,-1.02128 0.11626,-0.23751 0.17501,-0.50502 0.21751,-0.76753 l 0.24876,-1.54254 1.7188,0.19376 c 0.31376,0.0362 0.64002,0.0663 0.95377,0.0525 1.09379,-0.0487 1.93631,-0.57752 2.56758,-1.35629 2.86633,-3.54385 1.54254,-7.8239804 -0.70502,-10.83532 -1.6813,-2.25505998 -4.52013,-5.79016 -1.74505,1.2812896 1.01253,2.57883 0.85627,4.06137 -2.07881,4.11262 z m 26.82452,84.0549304 c 0.20251,2.801332 1.51005,4.542632 3.88762,5.045152 3.06633,0.64877 4.80013,-1.01378 5.58641,-4.378882 0.1725,-0.73752 0.13375,-1.35254 -0.34126,-1.65005 -0.90378,-0.56376 -3.3851,0.0225 -4.58388,-0.61502 -1.49255,-0.79252 -1.87256,-4.16262 -1.50255,-5.73766 0.36876,-1.5763 1.31129,-3.2651 1.56755,-4.48013 0.0513,-0.24626 0.075,-0.47251 -0.0312,-0.59877 -0.0137,-0.0163 -0.0275,-0.0312 -0.0413,-0.045 -3.60885,-0.82252 -4.48637,13.216632 -4.54138,12.46036 z m -47.34762,0 c 0.20376,2.801332 1.51005,4.542632 3.88762,5.045152 3.06634,0.64877 4.80014,-1.01378 5.58641,-4.378882 0.1725,-0.73752 0.13375,-1.35254 -0.34126,-1.65005 -0.90378,-0.56376 -3.3851,0.0225 -4.58388,-0.61502 -1.49255,-0.79252 -1.87131,-4.16262 -1.50255,-5.73766 0.37001,-1.5763 1.31129,-3.2651 1.56755,-4.48013 0.0525,-0.24626 0.0763,-0.47251 -0.0312,-0.59877 -0.0137,-0.0163 -0.0275,-0.0312 -0.0412,-0.045 -3.60886,-0.82252 -4.48638,13.216632 -4.54139,12.46036 z m 58.22294,-31.30215 -0.60002,0 0,-0.90003 c 0,0 1.80255,0.23751 2.85008,0.60127 0.58877,0.20375 3.4501,2.85383 2.85009,3.6001 -0.47127,0.58377 -3.3876,-1.10128 -4.00012,-1.8013 -0.26251,-0.29876 -0.45126,-0.61627 -0.59127,-0.97003 -0.18875,-0.47626 -0.23875,-0.53001 -0.50876,-0.53001 z m -56.29413,-0.16376 c 0.0462,-0.30251 0.0725,-0.49751 0.0725,-0.49751 0,0 1.20129,3.74135 1.6963,6.19143 0.36126,1.78755 0.34626,2.88758 0.67377,4.07011 1.72255,6.23893 10.12779,15.93671 14.25041,18.45054 4.15137,2.53382 12.0166,3.90011 15.11544,0.69627 1.24504,-1.28879 2.22131,-3.69761 2.96134,-5.29891 0.11875,-0.255 0.23125,-0.49001 0.32001,-0.91252 0.12375,-0.58627 0.20375,-1.53505 0.20375,-1.53505 l -6.65519,0.25001 c -1.21504,0.0462 -1.48004,0.0138 -2.65133,-0.31376 -2.18006,-0.61002 -9.42402,-3.81011 -11.09407,-5.93642 -1.25629,-1.5988 -2.32882,-7.71897 -2.40007,-9.77903 -0.14,-3.97637 1.51505,-5.12015 5.63266,-7.89648 1.12629,-0.75877 2.23882,-1.5388 3.45885,-2.27882 2.05756,-1.24878 4.41888,-2.38507 6.50894,-3.44635 0.78628,-0.39876 1.53505,-0.78752 1.80005,-0.60001 0.50502,0.35876 -0.60501,2.23381 -0.94627,3.30634 -1.31254,4.12762 -0.0725,6.87645 1.70755,10.56781 1.6838,3.4901 3.82386,5.3414 8.05898,5.92767 2.23756,0.30876 6.24893,-0.30126 8.5065,-1.90881 0.78877,-0.56126 1.14878,-1.24378 1.7288,-1.41629 0.69127,-0.205 2.55257,0.85003 4.40387,1.88256 2.56633,1.43254 5.64642,2.66382 7.76898,3.14509 2.61507,0.59126 3.55885,-2.41257 5.83517,-6.57769 1.6963,-3.10259 1.53004,-4.10887 -0.31251,-9.82654 -0.39751,-1.23003 -1.15629,-3.4026 -2.48507,-3.7126 -0.36627,-0.0863 -0.75253,0.009 -1.06129,-0.14626 -0.51876,-0.25876 -0.81752,-1.22003 -1.30253,-1.54129 -0.78753,-0.52002 -4.47638,1.15128 -5.2014,1.65004 -2.55508,1.75756 -5.52641,7.54522 -8.374,9.63903 -2.23881,1.6463 -7.1302,1.20254 -10.52655,-0.93877 -2.67758,-1.6863 -4.27637,-5.66642 -4.80014,-9.03026 -0.29126,-1.86256 -0.1325,-2.25132 1.89506,-2.52008 1.73755,-0.23 4.04261,-0.18875 6.05017,0.27001 3.85761,0.88253 4.43513,1.16253 6.30518,-2.37007 1.09629,-2.07006 2.85009,-5.70016 2.85009,-5.70016 0,0 -4.48263,0.0825 -7.31522,0 -2.66132,-0.0763 -3.86511,-0.29626 -5.58516,-0.90003 -2.56757,-0.89878 -12.37785,-6.34768 -13.64414,-7.57647 -0.43626,-0.42376 -0.76377,-0.82377 -1.25504,-1.12378 -0.80877,-0.49252 -5.65141,-0.69002 -7.36146,-0.30001 -1.42254,0.32501 -3.15259,0.95128 -3.99012,1.80005 -1.37254,1.39129 -2.43632,4.76514 -3.53135,6.63644 -0.39501,0.67502 -0.79377,1.15379 -0.81877,2.12382 -0.025,0.94002 0.30001,2.34006 0.30001,2.34006 0,0 5.32765,-1.06378 7.80022,-0.90002 1.07503,0.0725 2.31882,0.74127 2.70008,-0.15001 0.26001,-0.61001 0.30001,-1.95005 0.30001,-1.95005 l 2.40507,0 c 1.08003,0 1.25254,0.01 1.71505,0.0937 0.34376,0.0625 0.62877,0.16625 0.98003,0.35626 1.54004,0.83627 4.34137,3.3176 4.34137,3.3176 0,0 -7.20146,4.87639 -10.79156,7.93272 -2.25131,1.91756 -3.69511,3.63136 -4.95014,6.45019 -1.18754,2.66758 -2.62258,7.0227 -2.62258,7.0227 0,0 -0.45626,-0.44376 -0.82752,-0.87252 -0.86753,-1.00003 -1.59255,-3.20134 -1.80005,-4.80014 -0.87378,-6.69394 -1.5838,-8.13273 -4.35013,-13.35039 -1.56755,-2.95508 -2.60383,-6.37143 -4.36513,-9.17401 -1.7963,-2.85883 -4.40887,-5.14765 -7.0352,-7.47647 -4.13762,-3.6676 -4.48888,-2.88383 -6.15018,2.40007 -0.40501,1.28754 -0.93002,2.27257 -0.85002,3.26385 0.0775,0.97753 1.49879,2.88883 2.80008,4.38637 0.64877,0.74878 5.41016,6.49769 8.5365,10.98407 4.84389,6.9527 4.83014,16.88799 -0.87253,24.66696 -2.39757,3.27135 -5.74517,6.61895 -8.26399,7.55022 -6.37393,2.35757 -10.9503203,-0.0612 -12.7503703,-5.25015 -0.52126,-1.50004 -1.05003,-9.68653 -0.75252,-10.87781 l -2.73508,-2.63758 c -0.1025,1.6913 -0.34751,7.27396 -0.41251,10.4303 -0.22376,10.76531 1.6888,18.499292 12.2103503,17.785522 7.71648,-0.52252 9.79279,-5.650172 15.03544,-12.734122 1.7063,-2.30507 3.59885,-5.79392 3.80511,-7.16146 0.31626,-2.10506 0.2125,-9.45277 0.1075,-14.16916 z m 46.7776,-53.0427804 c 0.30126,0.47251 -0.34876,1.9363 -0.45126,2.10006 -0.98878,1.5950404 -2.93133,-0.28251 -4.53388,-1.49129 -1.23004,-0.92878 -2.05006,-1.96256 -0.71502,-2.85884 0.93253,-0.62627 2.61757,-0.85752 3.40135,-0.45001 0.99378,0.51751 1.8213,1.95381 2.29881,2.70008 z M 38.685364,27.346294 c 0.0225,0.20001 0.0437,0.47127 -0.0337,0.60002 -0.0838,0.13875 -0.28001,0.11625 -0.40501,0.195 -0.19126,0.12001 -0.22126,0.47252 -0.19626,0.76503 0.20126,2.25506 3.81261,1.10378 7.05145,0.24 15.5042,-4.13387 19.32056,-3.77636 29.71711,-12.19785 0.94503,-0.76502 1.10503,-0.81127 1.59505,-0.45751 1.32629,0.95503 2.99008,4.25262 3.03759,4.45388 0.70127,2.90633 -1.10629,7.30396 0.99502,9.61152 2.48133,2.72508 7.45897,2.38132 9.65653,0.39002 2.18132,-1.97756 2.27757,-3.90887 1.95006,-6.7077 -0.30376,-2.58757 -0.83877,-2.82883 -3.49635,-5.78642 -0.81252,-0.90502 -0.94878,-1.00627 -1.37004,-1.00627 l -0.46876,0 c -0.42127,0 -0.50502,0.13 -0.84753,1.29878 -0.27501,0.93753 -0.80377,2.08131 -0.56126,2.87384 0.33126,1.07753 2.09256,1.50379 2.99383,2.72757 1.33879,1.82256 1.11628,3.03884 -1.17003,3.3001 -1.94756,0.22251 -4.37513,-0.27001 -4.9814,-1.50004 -0.29375,-0.59752 -0.51001,-1.42004 -0.59876,-2.29132 -0.47502,-4.64138 0.99753,-6.49894 -1.7563,-9.92279 -0.40002,-0.49626 -0.79753,-0.77877 -0.94378,-1.22628 -0.43501,-1.31879 1.42629,-4.2351204 1.71005,-6.0764304 0.32501,-2.09381 -2.28757,-6.14517958 -4.50638,-6.58393958 -1.03503,-0.20375 -3.32385,0.30876 -4.10512,0.90003 -1.29004,0.98002998 -3.00134,5.18639958 -3.00009,6.54018958 0.001,0.84377 0.77878,3.5676004 1.45004,4.4813804 0.95753,1.30253 1.99256,1.65754 1.55005,2.58132 -0.89128,1.86256 -8.44899,5.01265 -9.60028,5.44766 -6.01642,2.27381 -14.90918,4.53888 -22.4019,6.68019 -1.16878,0.33376 -1.29503,0.40001 -1.26378,0.67002 z"
     style="fill:#000000;stroke:none" />
</svg>
