<?xml version="1.0" encoding="UTF-8" standalone="no"?>
<svg>
  <path
     style="fill:#000000;stroke:none"
     d="m 72.134355,31.643049 c -0.03796,-1.02914 -0.154049,-2.320862 -0.492089,-2.645175 -0.19597,-0.188875 -0.466476,-0.05252 -0.636188,-0.153864 -0.763148,-0.457908 0.535024,-2.347582 1.153614,-3.069915 5.614939,-6.554433 20.166628,-14.691733 27.855228,-16.3759475 0.73339,-0.1603137 1.46494,-0.2893017 1.60406,-0.04146 0.0682,0.12346 -0.009,0.3399755 -0.12715,0.5841314 -0.27824,0.5749181 -0.72233,1.2696101 -1.21617,2.0149771 -10.238877,15.461976 5.91226,-5.9951781 10.49502,-6.5986577 0.41921,-0.2063807 0.81262,-0.3731438 1.16181,-0.4837049 1.7828,-0.5610978 3.71485,-0.6799511 3.94888,-2.3899635 0.0332,-0.2395491 0.0378,-0.5389855 0.0295,-0.8282872 -0.0774,-2.8008823 -4.64726,-1.46124982 -7.86827,-0.2358638 -2.98147,1.1332517 -7.40759,3.0017351 -12.102758,5.1742616 -6.07533,2.8110169 -24.265125,11.2477535 -26.824708,18.5761145 -0.824786,2.361402 -0.671474,5.007499 0.972754,7.283216 0.07049,0.09766 0.134516,0.186111 0.192929,0.265346 -0.742233,-1.007949 2.012213,3.230228 1.853558,-1.075207 z m 19.091882,4.392963 0.51503,-0.0092 c 0.231257,-0.0037 0.292987,-0.14465 0.620064,-1.407811 1.882303,-7.267553 2.225962,-11.280001 -2.403784,-15.940153 -0.762871,-0.767479 -1.651046,-1.411497 -2.2232,-0.724176 -0.388807,0.467121 -0.784984,3.761843 -0.608086,4.481412 0.309571,1.257633 1.227229,1.665788 2.286773,2.520794 2.393649,1.929292 2.993443,3.376722 2.688478,5.946347 -0.2331,1.972595 -0.875275,5.132801 -0.875275,5.132801 z M 79.102286,14.938182 78.973298,11.987121 C 78.920778,10.793982 78.938288,10.58023 79.145589,9.8496055 79.299453,9.3069345 79.46161,8.714511 79.872529,8.3321537 80.87495,7.4006761 83.357047,7.7231461 84.507804,6.9556677 86.1653,5.851899 86.166222,2.057809 84.891083,0.52008778 83.539473,-1.1097677 80.805849,1.4792057 79.685496,2.960725 78.998174,3.8710118 78.346785,4.9139719 78.053798,6.1310658 77.917439,6.6949277 77.84281,7.3352609 77.736856,7.8963586 L 77.216297,10.641039 75.499006,8.4556137 C 73.148293,5.3599019 73.865189,4.4404017 70.410983,3.5982943 69.253684,3.3163634 66.743854,3.4213964 66.261439,4.7250967 c -0.377474,1.0190051 0.508766,3.4992599 1.063875,4.087998 0.426858,0.4523794 2.155389,1.5764173 2.86943,1.6455183 1.166696,0.112404 3.55067,-0.5979514 3.55067,-0.5979514 0,0 1.924041,2.7695564 3.099582,4.0695714 0.512267,0.567547 0.937006,1.024533 1.593923,1.037432 0.271796,0.0046 0.663367,-0.02948 0.663367,-0.02948 z m -2.091452,21.968212 c 0.157565,2.165305 1.167719,3.512823 3.006293,3.901416 2.371205,0.501697 3.711956,-0.784926 4.319983,-3.386192 0.133398,-0.570326 0.10343,-1.045922 -0.263895,-1.275983 -0.698889,-0.435961 -2.6177,0.0174 -3.544724,-0.475596 -1.154185,-0.61286 -1.448048,-3.21896 -1.161919,-4.436948 0.285163,-1.218946 1.01402,-2.524904 1.212187,-3.464488 0.0396,-0.190433 0.058,-0.365399 -0.02413,-0.463029 -0.01067,-0.01261 -0.02127,-0.02413 -0.03186,-0.0348 -2.790733,-0.63702 -3.469322,10.220447 -3.511857,9.635621 z M 32.972392,61.229417 c 0.309007,-1.049458 0.683119,-2.155274 1.063061,-3.264006 2.006601,-5.841007 2.110575,-5.475641 0.709355,-10.912413 -0.275968,-1.069863 -0.447962,-2.034781 -0.355649,-2.556594 l 1.555723,-0.905643 -2.413751,-4.672999 c -1.300161,-2.688749 -3.194043,-5.438715 -3.882021,-5.861413 -0.772516,-0.473228 -1.32834,-0.100088 -2.009515,1.342916 -1.191329,2.523556 -1.210763,5.043225 -0.32164,7.194613 0.323583,0.783206 0.402292,0.869689 0.78515,0.869689 0,0 0.852198,0 0.852198,0 0,0 0.06122,0.647165 0.171995,1.805454 0.15256,1.606253 2.306861,5.211333 3.426282,7.332597 1.329313,2.521613 2.017291,4.522384 -0.193372,6.383227 l -5.806024,5.610709 C 18.021513,70.864989 13.838259,75.564226 4.3814834,77.461994 2.4040346,77.858456 0,78.249087 0,78.249087 c 0,0 6.0917102,0.652996 9.2740932,0.993098 7.0877228,0.758912 10.1418378,-1.825862 15.8011328,-7.610509 3.381585,-3.456407 7.12562,-7.78056 7.897166,-10.402259 z m -10.87728,-9.03881 c -0.0834,-1.348392 -0.22107,-3.092207 -0.30591,-3.875144 -0.0848,-0.782937 -0.19601,-2.064107 -0.24702,-2.847044 -0.051,-0.782937 -0.15922,-2.064107 -0.24045,-2.847044 -0.0812,-0.782937 -0.25962,-3.060573 -0.39643,-5.061412 -0.47443,-6.938576 -1.01821,-12.669486 -1.50082,-15.816912 -0.26677,-1.739861 -0.73019,-5.07573 -1.02981,-7.413041 -0.29963,-2.337312 -0.61009,-4.5081835 -0.68991,-4.8241585 -0.32248,-1.27649 -0.35208,-2.347565 -0.0926,-3.349117 0.39197,-1.512652 1.35533,-3.273511 2.39767,-4.382536 0.84756,-0.90178097 0.98622,-0.98855697 1.57963,-0.98855697 l 0.65051,0 0.0982,0.83038697 c 0.60051,5.078966 2.20566,23.9665695 2.46994,29.0635775 0.43747,8.436886 0.57228,10.658498 0.8494,13.997967 0.12995,1.565875 0.27804,3.736746 0.3291,4.824158 0.25797,5.494082 0.66315,9.042823 1.30023,11.388177 0.41911,1.542899 1.36858,3.369354 2.03866,3.921685 0.52422,0.432107 0.7414,0.507047 1.46943,0.507047 1.77361,0 4.72686,-1.40504 6.37995,-3.035331 1.40924,-1.389806 1.57018,-1.472409 2.22194,-1.140482 0.68886,0.350821 1.79781,1.148599 3.52432,2.535411 2.00399,1.609692 2.85509,1.946912 5.94113,2.353932 2.63581,0.34765 5.6612,0.30875 7.62737,-0.0981 1.94877,-0.40321 3.7681,-1.216051 4.03553,-1.802984 0.7003,-1.537005 -0.72678,-2.552299 -4.58562,-3.262432 -1.49691,-0.275474 -2.19577,-0.316647 -4.24365,-0.250013 -2.0978,0.06826 -2.98208,0.179802 -5.31661,0.670651 -0.30585,0.0643 -0.3434,-0.01865 -0.44139,-0.975054 -0.13175,-1.285966 0.19872,-2.914829 0.95724,-4.718218 0.2916,-0.693303 0.53019,-1.345877 0.53019,-1.450164 0,-0.469122 1.07281,-0.857429 2.79484,-1.011612 2.26015,-0.202362 2.79952,-0.384343 5.89277,-1.988197 2.98093,-1.54561 3.26518,-1.783229 6.22439,-5.203146 5.628735,-6.505054 7.552015,-8.303879 8.878405,-8.303879 0.82422,0 0.94172,0.482976 1.06712,4.386101 0.1461,4.547312 0.34473,5.318559 1.68685,6.549784 1.12455,1.031632 3.77128,2.308801 5.88029,2.837517 1.19554,0.299713 1.85507,0.369825 3.22733,0.343085 2.34566,-0.04571 2.30834,-0.02765 2.30979,-1.117735 0.003,-2.115126 0.47838,-3.814125 1.90293,-6.798372 1.49674,-3.135457 2.07903,-3.669674 3.99987,-3.669674 1.83928,0 3.68546,1.268041 5.303575,3.642732 0.68028,0.998357 1.06976,1.760295 1.24885,2.443115 0.25791,0.983336 0.25649,1.00373 -0.15777,2.261103 -0.61131,1.855465 -2.735735,5.84179 -3.259525,6.11627 -0.2304,0.120736 -0.66803,0.481064 -0.9725,0.800728 -0.70076,0.735721 -1.70336,1.248899 -3.27263,1.675094 -0.67936,0.184504 -1.35421,0.44058 -1.49968,0.569057 -0.54324,0.479789 -2.69229,1.00938 -4.55967,1.123643 -4.573,0.279816 -7.44601,-0.147328 -10.17301,-1.512467 -2.46182,-1.232392 -3.83812,-2.853918 -4.70783,-5.546654 -0.46591,-1.442512 -0.49548,-1.680781 -0.52343,-4.217757 -0.0198,-1.79917 -0.0948,-2.80663 -0.2267,-3.044755 -0.5725,-1.03385 -3.19944,0.258937 -4.48854,2.208933 -0.98409,1.488607 -2.144905,3.50269 -2.553655,4.430709 -0.21948,0.498307 -0.63448,1.19897 -0.92222,1.557027 l -0.52317,0.651014 0.39382,0.318902 c 0.21661,0.175397 0.78552,0.519896 1.26424,0.765555 1.24173,0.637192 4.025275,2.709837 5.849155,4.355315 0.39344,0.354952 1.24916,1.013169 1.90161,1.462705 0.99967,0.688773 1.41019,0.865266 2.60979,1.122037 1.52892,0.32726 6.99347,1.202457 8.52323,1.365071 l 0.93111,0.09898 -0.0843,1.229839 c -0.0671,0.978716 -0.17061,1.360266 -0.507,1.868596 -0.23249,0.35131 -0.52587,0.98375 -0.65196,1.40541 -0.73042,2.44266 -1.30834,3.04588 -2.64022,2.75582 -0.36719,-0.08 -1.34379,-0.22439 -2.17022,-0.32093 -2.23629,-0.26123 -3.67554,-0.57227 -5.6564,-1.22242 l -1.78126,-0.58464 -0.9867,0.24682 c -1.18128,0.29549 -3.59814,0.97487 -5.020015,1.41113 -0.56545,0.1735 -2.16385,0.88984 -3.55199,1.59188 -3.67257,1.85737 -3.80385,1.89514 -6.89866,1.98455 -3.78852,0.10946 -8.01547,-0.40327 -9.4976,-1.15205 -0.92879,-0.46923 -1.37503,-1.00603 -2.36897,-2.8498 -0.44035,-0.81683 -0.92531,-1.63913 -1.0777,-1.82733 -0.45376,-0.56036 -1.01886,-0.2762 -2.5318,1.27314 -2.29977,2.35508 -3.9532,2.88921 -6.99535,2.25978 -7.771105,-2.915768 -6.481327,-11.504994 -6.93971,-18.695273 z m 70.496325,-2.01005 c 0.28565,-0.109613 0.21932,-0.992091 -0.12987,-1.727866 -0.26823,-0.565183 -1.70527,-1.323496 -2.50808,-1.323496 -0.56437,0 -0.58963,0.02738 -1.32718,1.43867 -0.42121,0.805958 -0.71054,1.54638 -0.65789,1.683583 0.0814,0.212175 0.38041,0.230059 2.23662,0.133781 1.17845,-0.06112 2.25233,-0.153224 2.3864,-0.204672 z M 59.27559,6.3376241 c 0.22218,-0.764278 0.21961,-0.877516 -0.0319,-1.404885 -0.21516,-0.451184 -0.41019,-0.6104 -0.91383,-0.746017 -1.22655,-0.330276 -2.46254,0.04065 -2.46254,0.739017 0,0.362126 0.6434,0.996419 1.11602,1.100224 0.32084,0.07047 0.60538,0.30474 0.85998,0.708049 0.65715,1.040996 1.04564,0.933479 1.43224,-0.396388 z M 50.708845,20.111157 c -0.13692,-0.356817 1.143675,-2.363343 2.465455,-3.863037 2.56097,-2.905676 3.4839,-4.266299 3.4839,-5.136097 0,-0.54357 -0.5476,-1.1644142 -1.41451,-1.6037092 -1.33674,-0.677383 -1.54259,-1.4347577 -0.94235,-3.4672387 0.89463,-3.029358 2.04018,-5.05730192 3.20501,-5.67378002 0.9303,-0.4923559 2.75692,-0.4892079 3.69392,0.0064 0.793,0.4194061 0.91319,0.6163441 1.14021,1.86827012 0.51249,2.8262159 -1.29576,6.9616286 -5.48731,12.5493028 -2.15196,2.868732 -3.95474,4.770249 -4.95107,5.222251 -0.837775,0.380069 -1.077365,0.399681 -1.193255,0.09767 z m -9.515162,31.38472 -2.9758,-2.877253 1.90825,-1.895651 1.90826,-1.89565 -1.90765,-1.912246 -1.90766,-1.912244 2.98591,-2.865636 2.98591,-2.865635 2.86565,2.877471 2.86565,2.877473 -1.79237,1.896753 -1.79237,1.896753 1.7927,1.910792 1.79271,1.910794 -2.87669,2.865765 -2.8767,2.865765 -2.9758,-2.877251 z" />
</svg>
