<?xml version="1.0" encoding="UTF-8" standalone="no"?>
<svg>
  <path
     d="m 181.91854,89.372123 c 0.1843,2.698597 1.36455,4.376829 3.51147,4.86138 2.77061,0.624913 4.33777,-0.977646 5.0469,-4.218159 0.15623,-0.711571 0.12083,-1.303529 -0.30758,-1.590354 -0.81653,-0.543137 -3.05743,0.02075 -4.14126,-0.593179 -1.34869,-0.762832 -1.69166,-4.009448 -1.35723,-5.52657 0.3332,-1.519563 1.18391,-3.146532 1.41581,-4.317023 0.0464,-0.236783 0.0684,-0.455258 -0.0281,-0.577312 -0.0122,-0.01465 -0.0244,-0.02929 -0.0366,-0.04272 -3.26127,-0.793346 -4.05339,12.732593 -4.10343,12.003935 z M 45.992607,19.597952 45.473758,9.0391268 C 45.396743,7.4731838 45.366474,7.1997845 45.1707,6.3124576 44.570442,3.5931115 42.955556,2.1040621 41.267316,1.1422826 c -2.147039,-1.22297335 -3.785481,-1.67701137 -5.998184,0.043939 -1.819448,1.4158175 -1.99081,6.5408327 -1.275579,7.3427224 0.533617,0.5980609 1.947482,0.5443575 3.658912,0.1159506 4.274549,-1.0716274 4.702955,-0.8238593 5.816447,3.9960234 0.529101,2.290939 0.59147,4.437855 0.331252,6.741 -0.552657,4.893114 -1.851181,7.273152 0.693507,10.145064 1.058934,1.194902 2.165224,1.376761 4.58139,0.845829 1.716557,-0.377144 2.057085,-1.227855 2.776711,-3.762901 0.506643,-1.784418 0.907466,-3.382095 0.777723,-5.161631 C 52.371841,17.918499 48.792874,11.283686 53.106357,9.6347465 53.90251,9.330834 54.9374,9.5297807 55.829731,9.7372712 57.032566,10.016773 57.236639,9.8898378 57.870583,8.4691382 58.39175,7.3023093 58.994815,6.2282408 59.326434,4.9710925 60.571011,0.25373511 58.665272,-1.0766451 54.841588,0.85545754 50.455361,3.0719442 48.485178,12.567686 49.42218,18.933982 c 0.286948,2.624145 0.601357,4.987095 0.601357,4.987095 0,0 -0.262293,-0.0037 -0.574505,-0.03662 -1.227977,-0.128155 -3.337423,-1.867414 -3.456425,-4.286509 z m 47.267677,0 L 92.741558,9.0391268 C 92.664664,7.4731838 92.634151,7.1997845 92.437645,6.3124576 91.838364,3.5931115 90.223599,2.1040621 88.534383,1.1422826 c -2.146917,-1.22297335 -3.784871,-1.67701137 -5.997696,0.043939 -1.819814,1.4158175 -1.990688,6.5408327 -1.275456,7.3427224 0.533372,0.5980609 1.946749,0.5443575 3.659156,0.1159506 4.274304,-1.0716274 4.702711,-0.8238593 5.815836,3.9960234 0.529711,2.290939 0.591958,4.437855 0.331985,6.741 -0.552901,4.893114 -1.851548,7.273152 0.693262,10.145064 1.058202,1.194902 2.165225,1.376761 4.580658,0.845829 1.717289,-0.377144 2.057817,-1.227855 2.776711,-3.762901 0.506521,-1.784418 0.908081,-3.382095 0.777479,-5.161631 -0.257532,-3.52978 -3.836133,-10.164593 0.477232,-11.8135327 0.79578,-0.3039125 1.83202,-0.1049658 2.72422,0.1025247 1.20223,0.279502 1.40606,0.1525666 2.04073,-1.268133 0.52117,-1.1668289 1.12411,-2.2408974 1.45488,-3.4980457 1.24494,-4.71735739 -0.66031,-6.0477376 -4.48424,-4.11563496 C 97.72255,3.0719442 95.752611,12.567686 96.68998,18.933982 c 0.286825,2.624145 0.600502,4.987095 0.600502,4.987095 0,0 -0.262415,-0.0037 -0.573651,-0.03662 -1.227855,-0.128155 -3.338156,-1.867414 -3.456547,-4.286509 z m -78.43275,31.306654 0.194797,-2.564338 -3.411021,0.814095 C -4.9714522,53.107667 7.8715991,23.03253 4.6944314,28.53469 1.0352755,34.871693 -0.56520853,42.438994 0.17785155,49.206845 c 0.0810434,0.738423 0.16953194,1.409715 0.277427,2.024864 C 2.1862375,61.098492 14.257668,58.403557 14.827534,50.904606 z m 86.684766,-4.528175 -5.511921,5.839027 c -0.91662,0.970323 -1.045996,1.144859 -1.302308,1.74292 -0.358837,0.837285 -0.483331,2.236015 -0.307574,2.426418 0.571209,0.613928 2.589969,-0.877563 3.292996,-1.429243 6.153927,-4.839411 8.956267,-7.888301 9.950997,-14.154514 0.50652,-3.185589 -1.07529,-4.418327 -3.87397,-4.824764 -4.440293,-0.644441 -8.845194,0.01465 -10.569806,3.579821 0.268517,13.608936 0.648102,5.826822 4.412224,4.86016 4.188862,-1.074068 8.692632,-3.46143 3.909362,1.960175 z M 19.540986,10.619716 14.028452,16.458743 c -0.916132,0.970323 -1.046362,1.144859 -1.302674,1.74292 -0.358959,0.837285 -0.483087,2.236015 -0.30672,2.426418 0.570965,0.613928 2.589603,-0.877563 3.292264,-1.429243 6.15368,-4.839411 8.956876,-7.888301 9.951854,-14.1545135 0.505667,-3.1855894 -1.075899,-4.41832703 -3.874458,-4.8247643 -4.439808,-0.64444106 -8.845685,0.0146464 -10.57042,3.5798213 0.26925,13.6101555 0.648347,5.8268213 4.413445,4.8601597 4.188379,-1.0740684 8.692143,-3.4614297 3.909243,1.9601748 z m 2.810398,30.198411 6.620533,-7.06078 -6.620533,-7.059559 -6.620534,7.059559 6.620534,7.06078 z m 24.395145,47.448194 -4.600308,4.905319 6.620534,7.06078 6.620533,-7.06078 -4.600308,-4.905319 4.600308,-4.90532 -6.620533,-7.060779 -6.620534,7.060779 4.600308,4.90532 z m 116.198831,1.236399 1.41582,-0.02563 0.0549,3.30154 c 0,0 -0.37226,0.02319 -0.70791,0.01343 -1.14974,-0.03173 -3.71286,-1.403613 -3.75069,-2.054156 -0.0122,-0.201388 0.7372,-0.806772 1.63917,-1.049658 0.57731,-0.155008 0.71279,-0.173316 1.34869,-0.185521 z m -26.61249,8.884255 3.29422,1.485388 c 1.69532,0.214817 3.78609,0.412537 5.35081,0.346627 2.94881,-0.12449 7.75038,-1.301084 9.43594,-3.574935 1.50736,-2.034628 1.68433,-2.898765 3.46997,-2.129829 0.88123,0.379585 1.90525,1.026467 3.0257,1.457315 2.54115,0.980088 2.58387,0.969103 4.27309,-1.730715 0.73598,-1.175372 1.49759,-2.082228 1.71729,-3.520015 0.10862,-0.707908 0.12083,-0.938589 0.10252,-2.107859 -0.061,-3.941099 -0.47113,-4.481795 -4.50498,-2.410551 -0.57243,0.294148 -1.07285,0.579752 -1.27424,0.737201 -0.83851,0.652985 -1.38286,1.681894 -2.17377,2.399567 -0.75673,0.687159 -1.74048,1.089935 -2.40567,1.69654 -0.94713,0.864136 -1.25226,2.140813 -1.94064,3.103813 -0.38935,0.544358 -9.91561,2.482563 -15.72168,3.673803 l -2.64856,0.57365 z m -33.88198,-3.061095 4.60019,4.90654 6.62139,-7.06078 -6.62139,-7.059559 -4.60019,4.90532 -4.600184,-4.90532 -6.620167,7.059559 6.620167,7.06078 4.600184,-4.90654 z M 62.057375,12.037975 c 0.183324,2.698597 1.363945,4.376829 3.511472,4.86138 2.770608,0.624913 4.336551,-0.977646 5.046901,-4.21816 0.156228,-0.71157 0.120832,-1.303528 -0.308795,-1.589133 -0.815316,-0.544357 -3.057433,0.02075 -4.141266,-0.593178 C 64.818219,9.7348302 64.47525,6.4882142 64.808455,4.9710925 65.142881,3.4527503 65.993592,1.8257807 66.225493,0.65406971 66.271873,0.41728644 66.293843,0.19881115 66.197421,0.07675792 66.185215,0.06211153 66.17179,0.04746515 66.159584,0.03403929 62.899542,-0.75930672 62.106807,12.766633 62.057375,12.037975 z M 176.60922,70.160944 c -0.0964,-0.02075 -0.1904,-0.04394 -0.2795,-0.06835 -0.83485,-0.22824 -1.28034,-0.602943 -1.82714,-1.065525 -0.73598,-0.623692 -0.81776,-0.739643 -0.81776,-1.154624 0,0 0,-0.925163 0,-0.925163 0,0 0.72378,-0.09642 1.771,-0.236784 1.94553,-0.258752 3.67868,-0.899532 3.64817,1.430464 -0.0232,1.843004 -0.64932,2.425198 -2.49477,2.019981 z m 8.14217,-10.807813 c -2.2409,-3.25516 -9.34195,-1.163168 -12.22119,0.246547 -1.64528,0.804331 -4.55869,3.111137 -5.4216,4.579437 -2.31047,3.934997 -1.12778,5.314198 -3.18193,6.524966 -8.14217,4.800354 -25.59823,0.379586 -31.43969,-3.468753 -3.75192,-2.471578 -5.84147,-6.041635 -7.31831,-10.693083 -0.73843,-2.329996 -2.23236,-29.230529 -2.43863,-38.200221 -0.18796,-8.112878 -0.54191,-18.26770714 -0.54191,-18.26770714 0,0 -1.80518,-0.16721293 -2.89511,0 -1.73804,0.26729658 -3.66526,5.45577944 -3.61034,8.20930034 0.0415,2.0370688 1.07773,4.6697568 1.89793,7.3988668 0.83118,2.769388 2.94759,36.028894 4.1791,49.537746 0.14159,1.553737 0.23557,1.878399 0.94592,3.249057 3.94598,7.61246 9.44204,9.597045 16.8287,11.773254 6.47126,1.906472 11.21181,3.00373 17.88812,0.289266 8.83177,-3.592026 9.14789,-6.526186 14.52678,-2.142034 2.05049,1.670909 2.55823,2.139593 4.01189,1.852768 3.00861,-0.593178 3.77877,-1.191239 4.88091,-2.986642 1.19612,-1.946749 2.95246,-4.445179 3.68356,-7.025384 0.69327,-2.445947 0.51751,-5.778 0.53338,-8.680426 0.009,-1.562282 -0.0232,-1.783198 -0.30758,-2.196958 z M 11.567493,53.16015 10.681264,52.812298 c -0.622715,1.374319 -1.9410121,3.201456 -2.9053546,4.546483 -2.8274852,3.94354 -5.9649856,16.225756 -5.4207502,20.243749 1.2770429,9.428612 9.9149938,15.829084 18.3220208,15.01865 5.091938,-0.491874 12.338605,-2.769388 15.286313,-6.069707 0.39533,-0.443053 6.894054,-11.153224 7.046987,-13.007213 0.191135,-2.317791 -0.54216,-5.780441 -0.54216,-5.780441 0,0 3.394056,0.371042 6.179677,0.578532 0.380318,0.02807 0.884398,0.01343 1.459756,-0.03295 8.640759,-0.699365 15.281675,-6.385825 15.118124,-16.483289 -0.03662,-2.231133 -0.308795,-4.503764 -0.80311,-7.185274 -0.506521,-2.740095 -1.164144,-5.820719 -2.168886,-7.514817 -0.294759,-0.496757 -0.567304,-0.700586 -1.247018,-0.61759 -0.29244,0.0354 -0.413883,0.185521 -1.213697,1.495152 -2.658076,4.353639 -4.040329,6.301609 -3.230994,10.106008 0.419497,1.97116 1.339169,4.12662 1.626238,6.069707 0.208345,1.410936 -0.376412,3.749475 -1.084199,4.335331 -0.872559,0.723776 -5.789229,1.451213 -8.239448,1.155844 -2.171327,-0.259973 -6.878187,-2.01754 -8.022559,-3.467532 -1.554225,-1.97116 -2.373325,-6.247905 -4.011401,-5.20313 -1.666515,1.063084 -2.743024,7.666164 -2.710436,8.39116 0.140361,3.123342 5.746632,14.702532 4.553562,17.852726 -1.429732,3.775107 -12.924705,7.276814 -17.346328,6.705605 C 14.976073,83.130321 10.17572,79.50656 8.0468675,74.122792 5.0132345,66.449306 7.3609284,61.188811 11.567493,53.16015 z M 111.6891,51.312264 c -1.60622,1.504916 -2.39224,5.627874 -2.25798,7.608798 0.0818,1.193681 0.39545,2.218928 1.08505,3.275909 2.4313,3.733608 5.56441,6.468821 0.91052,7.707662 -4.1132,1.093597 -13.102418,-1.331601 -16.08906,-3.758019 -4.987095,-4.050947 -4.808897,-7.478202 -6.775175,-13.584525 -1.219312,-3.78365 -7.846802,-14.297316 -9.487198,-16.185479 -2.099315,-2.417875 -4.680741,-4.418327 -6.233258,-1.734377 -1.5574,2.691274 -0.993514,8.25446 0,10.405038 1.794182,3.884955 10.625954,12.331038 11.653642,15.215156 1.532989,4.298715 -2.98176,12.246822 -7.317091,17.734335 -4.071696,5.153087 -7.812627,6.71781 -12.606878,4.121737 -1.547025,-0.837285 -3.247837,-2.366612 -3.655373,-3.543205 -0.916497,-2.644893 -0.316117,-7.436703 -1.355279,-8.09335 -1.156088,-0.729878 -1.912452,1.449993 -2.168275,3.457768 -0.427675,3.357685 0.217987,11.720772 1.355279,13.884776 2.799291,5.327624 9.618283,5.355696 14.364933,2.600954 1.617205,-0.938589 10.086479,-10.184121 11.382684,-12.42868 0.568768,-0.982529 0.959339,-1.816152 1.356012,-3.467532 0.584635,-2.432521 1.182695,-6.639696 1.182695,-6.639696 0,0 1.302308,2.47646 2.340981,4.037521 3.909366,5.882965 11.236221,7.190155 17.020321,6.648239 6.40902,-0.600502 7.27438,-1.430464 9.90584,-7.064441 3.02082,-6.467601 3.86665,-7.052236 1.53177,-12.589791 -0.6066,-1.439007 -1.22785,-2.915852 -1.98825,-4.298715 -3.17094,-5.765794 -4.11685,-3.346699 -4.15591,-3.310083 z"
     style="fill:#000000;stroke:none" />
</svg>
