<?xml version="1.0" encoding="UTF-8" standalone="yes"?>
<svg>
<path
	style="stroke:none; fill:#000000" 
	d="m 13.129598,47.97986 0.1726,-2.129 -3.0205,0.675 c -14.6839,3.283 -3.3115,-21.69 -6.1248,-17.121 -3.2402,5.262 -4.6574,11.545 -3.9994,17.165 0.0717,0.613 0.15,1.17 0.2456,1.681 1.5327,8.194 12.222,5.956 12.7265,-0.271 z m 10.826,-11.999 -4.8814,4.849 c -0.8112,0.806 -0.9266,0.951 -1.1535,1.447 -0.3179,0.695 -0.4278,1.857 -0.2716,2.015 0.5056,0.51 2.2931,-0.728 2.9153,-1.187 5.449,-4.019 7.9312,-6.55 8.8123,-11.753 0.4477,-2.645 -0.9527,-3.669 -3.4308,-4.006 -3.9314,-0.536 -7.8328,0.012 -9.3601,2.972 0.2384,11.301 0.5741,4.838 3.9081,4.036 3.7088,-0.892 7.6968,-2.875 3.4617,1.627 z m 3.6245,-19.924 -0.4533,-8.651 c -0.0673,-1.284 -0.0938,-1.507 -0.2648,-2.234 -0.5245,-2.228 -1.9354,-3.449 -3.4106,-4.237 -1.8758,-1.001 -3.3074,-1.374 -5.2407,0.037 -1.5897,1.16 -1.7394,5.359 -1.1145,6.016 0.4662,0.49 1.7016,0.445 3.1968,0.094 3.7349,-0.877 4.1092,-0.675 5.082,3.275 0.4623,1.877 0.5168,3.635 0.2895,5.523 -0.4828,4.009 -1.6174,5.959 0.6059,8.312 0.9252,0.979 1.8919,1.127 4.0029,0.693 1.4998,-0.309 1.7973,-1.006 2.4261,-3.083 0.4427,-1.462 0.7929,-2.771 0.6794,-4.229 -0.225,-2.892 -3.352,-8.329 0.4167,-9.679 0.6957,-0.249 1.5999,-0.087 2.3796,0.083 1.0509,0.229 1.2292,0.126 1.7831,-1.038 0.4553,-0.956 0.9823,-1.837 1.2723,-2.866 1.087,-3.865 -0.578,-4.955 -3.9188,-3.372 -3.8324,1.815 -5.5538,9.596 -4.7351,14.812 0.2507,2.15 0.5254,4.086 0.5254,4.086 0,0 -0.2292,-0.003 -0.502,-0.03 -1.0728,-0.106 -2.916,-1.53 -3.0199,-3.512 z m 47.0354,0.157 -0.14,-3.203 c -0.056,-1.295 -0.037,-1.527 0.187,-2.321 0.167,-0.588 0.343,-1.232 0.79,-1.647 1.088,-1.01 3.782,-0.661 5.031,-1.493 1.798,-1.199 1.8,-5.316 0.416,-6.985 -1.468,-1.77 -4.434,1.041 -5.65,2.649 -0.747,0.988 -1.454,2.119 -1.772,3.44 -0.147,0.613 -0.229,1.308 -0.344,1.916 l -0.564,2.98 -1.864,-2.372 c -2.552,-3.36 -1.774,-4.359 -5.523,-5.273 -1.256,-0.306 -3.98,-0.191 -4.503,1.223 -0.41,1.107 0.552,3.798 1.154,4.437 0.463,0.492 2.34,1.711 3.115,1.786 1.266,0.122 3.853,-0.649 3.853,-0.649 0,0 2.089,3.006 3.364,4.418 0.557,0.616 1.017,1.112 1.731,1.125 0.295,0.006 0.719,-0.031 0.719,-0.031 z m 13.159,22.899 0.559,-0.01 c 0.251,-0.004 0.319,-0.157 0.674,-1.529 2.043,-7.887 2.416,-12.243 -2.61,-17.301 -0.827,-0.833 -1.792,-1.532 -2.413,-0.785 -0.421,0.507 -0.852,4.082 -0.66,4.863 0.337,1.365 1.332,1.809 2.482,2.736 2.598,2.094 3.249,3.665 2.919,6.455 -0.254,2.141 -0.951,5.571 -0.951,5.571 z m -20.721,-4.769 c -0.041,-1.116 -0.168,-2.518 -0.534,-2.871 -0.213,-0.204 -0.507,-0.056 -0.691,-0.167 -0.828,-0.497 0.581,-2.548 1.252,-3.331 6.095,-7.114 21.889,-15.947 30.234,-17.774 0.795,-0.174 1.59,-0.315 1.74,-0.046 0.075,0.134 -0.01,0.369 -0.138,0.635 -0.301,0.623 -0.784,1.378 -1.32,2.187 -11.113,16.781 6.417002,-6.508 11.391002,-7.162 0.456,-0.225 0.883,-0.406 1.261,-0.525 1.936,-0.61 4.032,-0.739 4.287,-2.594 0.035,-0.261 0.041,-0.585 0.032,-0.9 -0.085,-3.04 -5.045,-1.585 -8.541,-0.256 -3.235,1.231 -8.039002,3.259 -13.135002,5.616 -6.594,3.051 -26.337,12.209 -29.115,20.163 -0.896,2.563 -0.729,5.434 1.056,7.905 0.076,0.106 0.145,0.201 0.209,0.287 -0.806,-1.094 2.184,3.506 2.012,-1.167 z m -22.75,-24.348 c 0.162,2.241 1.208,3.634 3.11,4.036 2.453,0.519 3.84,-0.811 4.469,-3.502 0.138,-0.591 0.107,-1.083 -0.273,-1.32 -0.723,-0.452 -2.708,0.017 -3.668,-0.493 -1.193,-0.634 -1.497,-3.329 -1.201,-4.589 0.295,-1.262 1.049,-2.613 1.254,-3.585 0.041,-0.197 0.06,-0.378 -0.025,-0.479 -0.011,-0.013 -0.022,-0.025 -0.033,-0.036 -2.887,-0.658 -3.589,10.573 -3.633,9.968 z m 32.317,64.04 c 0,0 3.823,-1.249 5.339,-0.904 0.799,0.182 1.626,1.62 2.145,2.723 0.942,2.001 1.85,4.578 2.195,6.623 0.115,0.681 0.239,1.31 0.94,1.549 0.441,0.151 1.113,0.16 1.113,0.16 0,0 0.002,-0.01 0.006,-0.03 0.335,-1.886 1.08,-5.049 1.27,-6.956 0.2,-2.003 0.155,-2.697 1.861,-2.571 2.577,0.192 3.452,0.647 4.585,-1.41 1.016,-1.845 2.129,-5.611 0.356,-6.831 -5.486,-1.478 -7.534,5.74 -7.878,7.392 -0.485,2.332 -0.688,4.834 -0.688,4.834 0,0 -1.344,-4.32 -2.333,-6.653 -1.111,-2.624 -3.981,-6.159 -7.077,-5.276 -1.539,0.439 -2.079,1.697 -2.078,3.362 0.001,1.533 0.244,3.988 0.244,3.988 z m 30.810002,-53.185 -6.51,6.511 6.51,6.51 6.511,-6.51 -6.511,-6.511 z m -10.579002,36.445 c 0,0 -1.95,0.364 -4.205,0.733 -6.007,0.982 -7.279,0.79 -13.226,-0.067 -1.189,-0.171 -0.161,-1.065 0.763,-2.585 1.275,-2.098 3.584,-5.681 5.395,-7.302 3.775,-3.379 7.393,-0.553 10.495,4.447 0.403,0.649 0.653,1.143 0.739,2.488 0.059,0.937 0.039,2.286 0.039,2.286 z m 21.109002,7.857 c 0.036,-0.033 0.071,-0.067 0.105,-0.103 -0.028,0.03 4.926,-9.882 4.918,-9.847 1.243,-4.948 -0.058,-10.997 -2.139,-16.078 -1.085,-2.649 -2.175,-3.357 -3.648,-1.267 -0.626,0.887 -1.477,2.085 -2.117,3.196 -4.347,7.541 1.296,8.134 2.501,13.018 0.599,2.426 1.134,4.593 1.134,4.593 0,0 -0.83,0.435 -1.871,0.733 -1.147,0.329 -7.523,0.517 -8.704,0.371 -3.116,-0.387 -7.388,-2.146 -7.59,-2.88 -0.331,-1.196 1.84,-3.73 2.212,-5.873 0.428,-2.458 -3.870002,-9.596 -7.141002,-11.219 -3.871,-1.921 -6.458,0.177 -9.429,3.637 -1.921,2.237 -3.792,4.836 -5.641,8.433 -1.28,2.49 -2.725,5.697 -2.725,5.697 0,0 -3.891,-3.192 -5.367,-5.093 -0.641,-0.825 -0.827,-1.406 -0.966,-2.298 -0.845,-5.385 -0.251,-9.117 -2.422,-8.755 -2.772,0.461 -11.035,4.921 -12.663,6.703 -2.97,3.251 -4.905,10.238 -3.934,13.349 0.471,1.512 1.417,2.94 2.166,4.741 0.906,2.177 1.679,4.845 1.257,5.691 -0.468,0.938 -5.721,3.838 -7.833,4.978 -5.479,2.959 -16.0049,6.201 -22.0544,7.589 -8.5372,1.958 -12.6185,0.413 2.6147,3.353 7.2125,1.392 13.9277,-1.471 20.7097,-5.436 3.939,-2.302 6.91,-5.057 9.032,-9.336 2.925,-5.899 3.364,-7.008 1.277,-12.02 -1.136,-2.73 -3.058,-6.788 -3.058,-6.788 0,0 1.685,-1.394 3.591,-2.482 2.592,-1.481 5.593,-2.398 5.593,-2.398 0,0 0.637,4.291 1.338,7.344 1.4,6.096 5.071,7.923 13.365,9.135 3.918,0.572 8.538,0.49 13,-1.406 0.789,-0.335 1.36,-0.452 2.187,-0.116 0.953,0.388 2.073,1.265 3.2,1.814 1.187002,0.579 2.825002,0.95 4.477002,1.137 -0.365,-0.041 11.935,0.322 14.625,-2.117 z m -71.443002,-24.611 0.085,4.918 c 0,0 3.01,-4.418 4.174,-6.906 1.4,-2.991 1.423,-5.525 -1.388,-5.934 -2.445,-0.356 -10.437,3.695 -11.8116,4.49 -1.8575,1.074 -8.9999,7.619 -10.173,9.322 -1.1042,1.602 -4.173,7.469 -4.6729,10.824 -0.9785,6.567 9.8774,4.829 14.9201,5.898 1.4854,0.314 4.4954,1.755 3.7584,3.129 -0.335,0.626 -1.564,1.061 -2.752,1.483 -6.6878,2.376 -13.835,3.852 -19.4576,-0.586 -1.3296,-1.05 -2.9747,-3.031 -3.9993,-5.132 -4.255,-9.494 -0.1645,-19.039 -3.4811,-12.209 -3.2059,6.602 -4.4714,11.402 -2.0049,17.738 2.1762,5.59 7.3076,9.579 13.3703,9.953 5.4803,0.339 8.0425,-0.465 11.8224,-2.104 4.1512,-1.801 9.6952,-8.922 11.0862,-13.638 0.335,-1.135 0.509,-2.117 0.386,-2.63 -0.971,-4.041 -6.886,-5.012 -10.645,-5 -2.3527,0.007 -5.7707,0.56 -7.9819,-1.018 -2.112,-1.508 2.0967,-4.757 4.5158,-6.562 2.9719,-2.218 7.3171,-5.669 11.2861,-5.985 1.34,-0.106 2.963,-0.051 2.963,-0.051 z"/>
</svg>