<?xml version="1.0" encoding="UTF-8" standalone="no"?>
<svg>
  <path
     style="fill:#000000;stroke:none"
     d="m 78.719957,48.911928 7.346246,-7.346246 -7.346246,-7.344996 -7.344996,7.344996 7.344996,7.346246 z M 38.087481,11.0482 31.971235,17.124446 c -1.01625,1.01 -1.16125,1.19125 -1.444999,1.812499 -0.39875,0.87125 -0.53625,2.327499 -0.34125,2.524999 0.633749,0.63875 2.873748,-0.9125 3.653748,-1.487499 6.827496,-5.034997 9.937494,-8.207495 11.041243,-14.7274921 0.56125,-3.313748 -1.193749,-4.59624703 -4.298747,-5.01874703 -4.926247,-0.671249 -9.814995,0.015 -11.728743,3.72374803 0.298749,14.1599921 0.719999,6.0624971 4.897497,5.057497 4.647497,-1.118749 9.643744,-3.602498 4.337497,2.0387491 z m -5.861246,74.627456 c -4.012498,2.762498 -9.482495,5.723746 -13.411242,7.224995 -2.795124,1.0675 -5.541997,1.763749 -8.365495,2.871249 -3.0494981,1.196249 -6.1883713,2.872498 -9.2236195,4.43 -1.08374938,0.55625 -1.20587431,0.63625 -1.2212493,0.79875 -0.16087491,1.70375 3.9153727,0.975 5.3574969,0.9325 8.4344949,-0.25 12.1686169,-0.40375 20.4628619,-4.358751 2.603749,-1.24125 4.912498,-2.536249 8.169996,-5.123747 2.496248,-1.982499 5.567496,-4.733747 7.731245,-6.718746 l 7.758745,-8.483745 c 1.20125,-1.175 2.513749,-2.489999 3.084999,-3.811248 0.443749,-1.027499 0.832499,-4.047498 0.814999,-5.513747 0,0 0.01,-0.08875 0.01,-0.08875 0,0 0.1375,-1.089999 0.23625,-1.887499 0.375,-2.996248 0.26375,-5.021247 -0.5825,-8.358745 -0.2975,-1.169999 -0.649999,-2.098748 -1.093749,-2.912498 -1.432499,-2.631248 -2.698748,-4.017497 -3.533748,-6.527496 l -0.66375,-1.998749 2.907499,0.71875 c 0.897499,0.22125 1.611249,0.26625 1.888749,-0.025 0.657499,-0.6925 -0.97,-2.947498 -1.914999,-4.338748 -0.905,-1.332499 -6.086247,-9.804994 -8.019996,-9.174994 -0.866249,0.2825 -4.371247,6.428746 -4.613747,7.904995 -0.31875,1.946249 0.9025,3.003748 2.873749,4.368748 0.542499,0.376249 0.998749,0.654999 1.413749,1.021249 1.501249,1.322499 3.742497,8.673745 6.303746,13.079992 0.872499,1.502499 1.927499,2.789999 2.333749,4.014998 0.284999,0.854999 0.951249,2.086249 0.951249,2.086249 0,0 -1.514999,2.531248 -1.999999,3.339998 -2.437498,4.073747 -14.427491,14.307491 -17.654989,16.52999 z m 13.537492,10.871243 c 1.581249,1.866249 3.487498,3.449998 5.052497,4.070001 1.432499,0.5675 6.543746,1.48 7.548745,1.505 6.792496,0.17125 22.712487,-11.233747 24.341236,-16.419994 0.717499,-2.288749 1.004999,-5.468747 1.113749,-7.184996 0.065,-0.2175 0.125,-0.46125 0.18,-0.72625 0.45625,-2.189998 0.59625,-5.836246 0.59625,-5.836246 0,0 2.126248,-0.76375 4.113747,-1.477499 4.678747,-1.681249 8.929995,-3.572498 11.401239,-8.549995 1.05875,-2.132499 1.99625,-5.368747 2.2,-6.808746 0.65125,-4.569997 -1.55375,-9.213745 -3.698745,-14.166242 -0.1225,-0.2825 -0.24875,-0.572499 -0.375,-0.863749 -5.028747,-9.641244 -4.747497,-12.178743 -7.422495,-3.439998 -0.47625,1.553749 -0.725,3.314998 -0.51125,4.364997 0.30375,1.496249 4.673747,9.358745 6.392496,11.502493 0.24625,0.3075 0.4775,0.5825 0.74875,1.005 0.2225,0.34625 0.47,0.791249 0.7175,1.262499 l 1.553749,2.966248 -1.629999,1.23125 c -0.325,0.246249 -0.67625,0.504999 -1.02125,0.751249 -2.489998,1.767499 -10.992493,3.979998 -13.873742,4.868747 -0.224999,0.07 -0.352499,0.11 -0.352499,0.11 0,0 -0.90875,-3.212498 -2.101249,-5.413747 -1.218749,-2.251248 -3.812498,-4.301247 -5.517497,-5.304996 -1.209999,-0.7125 -7.391245,-1.948749 -8.213745,-1.643749 -2.291249,0.851249 -7.494996,15.017491 -4.807497,20.096238 1.249999,2.363748 5.874996,1.976248 10.124994,1.606249 3.718748,-0.325 9.197494,-1.12625 9.197494,-1.12625 0,0 0.4025,3.469998 0.94625,5.437497 0.04375,0.16 0.0875,0.30375 0.13,0.4325 -1.379999,1.588749 -3.583748,4.072497 -5.141247,5.557497 -4.798747,4.577497 -11.846243,8.466245 -16.84499,9.003744 -6.044997,0.64875 -9.602495,-0.4775 -13.209992,-4.214997 -2.927499,-3.034998 -3.778748,-8.156245 -4.337498,-12.241243 -0.37375,-1.843749 -0.45,-2.289999 -0.45,-2.289999 l -0.528749,-4.951247 c 0,0 -0.48125,0.01 -0.48125,0.01 -0.21625,0.0038 -0.27,0.13625 -0.545,1.323749 -0.13125,0.57375 -0.289999,1.17125 -0.419999,1.766249 -0.5575,2.531249 1.912499,19.996239 5.124997,23.788736 z M 76.346208,65.350668 c -3.168748,1.247499 -11.497493,0.767499 -12.333742,-0.09 -0.62625,-0.63875 0.04875,-3.571248 1.722499,-4.164998 2.323748,-0.823749 7.187495,0.035 8.618745,1.22 0.857499,0.709999 1.269999,1.339999 1.802499,2.302498 0.158749,0.28625 0.364999,0.66375 0.189999,0.7325 z m -57.968715,-4.716247 -0.09625,-4.913747 c 0,0 -2.964623,0.983749 -4.847122,1.298749 -3.346498,0.562499 -7.7352451,-0.4075 -9.0189944,-2.829999 C 3.867002,53.155675 3.6337521,51.645676 3.3742522,50.340677 3.1365024,49.144427 3.1105024,48.876928 3.1151274,47.658178 l 0.042625,-11.489993 -1.0041244,0.02 c 0,0 -0.8543745,7.833745 -0.8457495,12.949992 0.00613,3.637498 0.9256244,9.213745 4.1336225,11.347494 1.8823739,1.252499 6.982496,2.109998 8.935119,1.628749 1.804874,-0.445 4.000873,-1.479999 4.000873,-1.479999 z M 74.10996,13.203199 72.809961,11.98695 C 69.651212,9.0332009 66.614964,7.7407019 70.683712,6.0119529 c 2.362498,-1.003749 3.752498,-0.81125 5.179997,2.028749 0.692499,1.377499 0.548749,2.2424991 -0.455,3.5924981 l -1.298749,1.569999 z m -41.984975,16.63249 c -1.549999,0.23625 -2.999999,0.43375 -4.321248,0.59125 -4.998747,0.591249 -10.100744,0.931249 -15.163116,1.262499 -3.5522471,0.2325 -2.538873,1.541249 -2.515623,1.587499 0.11675,0.2375 0.282125,0.45 0.39225,0.5525 0.28375,0.262499 0.599625,0.462499 0.953874,0.633749 3.307873,1.599999 16.012615,0.39125 21.465112,-0.34375 0.04375,-0.0062 0.08875,-0.0125 0.135,-0.01875 11.026244,-1.541249 26.693734,-5.263746 34.914979,-11.007493 0.4875,-0.34125 0.93125,-0.67375 1.33,-0.999999 0.653749,-0.535 1.373749,-1.14375 2.192498,-1.836249 1.12625,-0.9525 2.468749,-2.076249 2.468749,-2.076249 0,0 0.763749,2.587498 1.091249,4.874997 0.03,0.21 0.0575,0.41625 0.0825,0.6175 0.8225,6.543746 1.02625,10.142494 7.283746,11.281243 4.029997,0.08 6.656246,-2.471249 5.681246,-7.328746 -0.197499,-0.982499 -0.774999,-2.681248 -1.881248,-2.884998 -0.51625,-0.09625 -1.30375,-0.05625 -1.30375,-0.05625 0,0 0.0063,2.387499 -0.329999,4.514997 -0.09375,0.6 -0.21625,1.18 -0.21625,1.18 0,0 -0.70375,-0.09625 -1.627499,-0.2325 -6.713746,-0.99125 -6.258747,-6.143747 -6.721246,-12.488743 -0.07125,-0.971249 -0.09375,-1.723749 -0.04375,-2.087499 l 0.1325,-0.959999 0.576249,-1.126249 c 0.3775,-0.74125 0.8375,-1.537499 1.13625,-2.348749 1.227499,-3.3237481 0.423749,-6.1974961 -1.28375,-8.6337451 -2.152498,-3.07124803 -3.508748,-3.24749803 -6.884996,-0.897499 -2.507498,1.746249 -3.174998,2.619998 -3.504997,5.824996 -0.19875,1.927499 0.649999,5.1549971 2.752498,6.9637461 0.32,0.27625 0.59625,0.505 0.821249,0.705 l 1.0875,0.973749 -1.17875,0.99375 c -0.371249,0.302499 -0.647499,0.509999 -0.974999,0.748749 -1.269999,0.9275 -2.718748,1.862499 -4.307497,2.794998 -11.838743,6.949996 -39.367477,10.312494 -32.238731,9.226245 z" />
</svg>
