<?xml version="1.0" encoding="UTF-8" standalone="no"?>
<svg>
    <path
       style="fill:#000000;stroke:none"
       d="m 56.077563,109.07652 c 0.22375,3.00125 1.6575,4.8675 4.2675,5.40625 3.3675,0.69375 5.27125,-1.0875 6.13375,-4.69125 0.18875,-0.79125 0.1475,-1.45 -0.375,-1.7675 -0.99125,-0.605 -3.715,0.0225 -5.0325,-0.66 -1.6375,-0.84875 -2.055,-4.45875 -1.64875,-6.14625 0.405,-1.689997 1.43875,-3.498743 1.72,-4.799993 0.0575,-0.26375 0.0838,-0.5075 -0.0337,-0.6425 -0.015,-0.0175 -0.03,-0.0325 -0.045,-0.0488 -3.9625,-0.88125 -4.92625,14.159993 -4.98625,13.349993 z m 63.097507,-7.52375 1.88625,-0.0325 0.0725,4.025 c 0,0 -0.495,0.0275 -0.9425,0.0163 -1.53125,-0.0388 -4.94625,-1.71125 -4.99625,-2.50375 -0.0163,-0.24625 0.98125,-0.98375 2.18375,-1.28 0.76875,-0.18875 0.94875,-0.21125 1.79625,-0.225 z m -35.449997,10.82875 4.38875,1.81 c 2.25875,0.26125 5.04375,0.50375 7.12875,0.4225 3.92625,-0.15125 10.323747,-1.58625 12.568747,-4.3575 2.0075,-2.48 2.2425,-3.53375 4.62125,-2.59625 1.175,0.4625 2.5375,1.25125 4.03,1.7775 3.38625,1.19375 3.44125,1.17875 5.6925,-2.11 0.98125,-1.43375 1.995,-2.53875 2.2875,-4.2925 0.14375,-0.86125 0.16125,-1.14375 0.1375,-2.56875 -0.0825,-4.803743 -0.62875,-5.462493 -6.00125,-2.937493 -0.7625,0.35875 -1.43,0.7075 -1.69875,0.89875 -1.11625,0.794996 -1.84125,2.049993 -2.895,2.924993 -1.0075,0.8375 -2.3175,1.3275 -3.205,2.0675 -1.26,1.0525 -1.6675,2.61 -2.585,3.78375 -0.51875,0.66375 -13.207497,3.025 -20.941247,4.4775 l -3.52875,0.7 z M 45.608813,94.026527 c -3.8875,3.04375 -8.355,6.278743 -10.90125,7.448743 -9.41125,4.32375 -21.92126,2.79625 -26.5362603,-2.466243 -1.81625,-2.0725 -3.3425,-4.38375 -3.79,-8.44875 -0.72,-6.53625 1.3525,-17.605 1.3525,-17.605 0,0 -2.38875,4.8725 -3.7,8.79 -3.305,9.88 -2.78624999,23.642493 3.06875,28.184993 6.3475003,4.92375 18.3137603,6.54 25.9950103,2.11375 3.7525,-2.1625 7.97125,-5.76375 11.51625,-8.6025 11.15625,-8.934993 8.96625,-13.163743 10.33,-20.286243 0.68625,-3.58625 1.61875,-6.7 2.91375,-8.1425 1.1875,-1.32125 2.6825,-1.35375 3.07125,-2.19125 0.67625,-1.45125 -8.91625,-16.02876 -12.79125,-16.09001 -2.32125,-0.0375 -5.81625,3.1875 -6.375,5.86875 -0.0713,0.34 1.34625,5.3225 3.92375,7.01376 0.50625,0.3325 0.7225,0.525 1.05625,1.105 4.86125,8.4425 7.07625,18.445 0.86625,23.3075 z m 99.338767,-20.1725 3.2075,-2.245 0.91125,-4.22876 c 0.15125,-0.6975 0.28,-1.41 0.41625,-2.11125 l 1.0975,-5.64875 -4.61375,3.3325 c -1.1625,0.83875 -2.29,1.67625 -3.21875,2.3575 l -8.755,5.60376 0,0.2625 -9.92876,0 c -1.4625,0 -1.735,-0.1175 -2.725,-1.16875 -1.345,-1.43126 -9.8125,-9.98626 -7.32875,-12.00001 0.1725,-0.14 0.38875,-0.25875 0.62375,-0.3725 0.47125,-0.22625 2.195,-1.115 3.42375,-1.76375 3.10125,-1.585 16.06251,-4.13125 19.27001,-2.1025 0.7775,0.49125 1.35625,0.8575 1.35625,0.8575 0.11625,0.0163 0.24375,0.0125 0.3625,-0.009 1.18625,-0.20875 1.6225,-2.02 1.44375,-3.52375 -0.28875,-2.4475 -2.20375,-4.08125 -5.34375,-5.43375 -4.475,-1.92875 -15.71501,-2.0025 -20.12501,3.66 -4.1325,5.30625 -6.8775,17.75625 -4.24125,21.35251 1.46375,1.9975 4.43625,3.57875 3.7625,4.66625 -0.75125,1.21375 -6.0475,1.81375 -7.2675,0.4175 -0.255,-0.2925 -0.3325,-0.6725 -0.545,-1.12125 -2.3175,-4.86375 -12.441247,-12.06501 -13.624997,-12.19126 -5.065,-0.54 -9.28375,2.94375 -12.40875,7.82126 -3.08,4.805 -5.5525,11.76125 -5.5525,16.7175 0,0.72125 0,1.22875 0,1.275 -0.2825,-0.055 -0.56625,-0.20875 -0.85,-0.44375 -4.98875,-4.1325 -7.35376,-22.39126 -7.41626,-22.77751 -3.075,-19.15125 -4.73625,-47.39 -5.265,-57.6225101 l -0.9525,-7.01249996 -2.96,4.71624996 c -0.8575,2.9525 -2.50375,9.0837601 -1.69125,10.0412601 0.185,0.21875 0.49875,0.1675 0.86625,0.45 0.5475,0.42125 1.2125,1.5875 1.68125,2.46375 0.63125,1.1825 0.71,1.4725 0.78375,2.8975 0.5625,10.9025 0.5375,24.5625 1.49375,34.38125 0.8775,9.00625 3.91875,32.77626 10.00626,42.68876 1.9575,3.187493 4.39375,5.791243 7.41625,7.166243 2.13125,0.97 4.66125,1.52375 7.71875,1.5525 3.94625,0.0387 8.9525,-0.8175 8.9525,-0.8175 0,0 2.96125,-10.456243 2.96125,-10.456243 0,0 -1.355,-0.0425 -3.895,-0.1225 -2.83875,-0.0888 -12.245,-2.10375 -14.06625,-6.35875 -1.5025,-3.5125 -1.52875,-8.375 -0.8125,-9.725 2.71125,-5.1125 11.14125,-8.12625 14.79,-4.6525 2.985,2.84125 4.07,8.03625 9.037497,10.29 2.73875,1.2425 6.6575,1.59 9.8725,1.63 2.515,0.0312 12.3325,-2.84625 16.24126,-4.03625 5.21,-1.5875 11.85375,-5.82875 15.89125,-8.65625 z m -10.295,-63.38877 c -0.235,0.7075 -0.58125,1.4075 -0.9725,2.1375 l -1.6575,3.08751 -1.6875,-1.67875 c -0.0775,-0.0775 -0.16125,-0.16125 -0.2525,-0.25375 -1.89375,-1.90376 -5.37376,-5.1525101 -1.99,-6.1337601 0.2025,-0.0587 0.435,-0.11125 0.67875,-0.15875 1.38125,-0.27 7.88125,-3.02 5.88125,3.0000001 z m 11.04375,19.78626 c -0.26875,-1.30875 -0.3425,-2.49375 -1.1225,-3.8475 -2.2125,-3.84 -10.10875,-9.04 -10.10875,-9.04 l 2.62,-10.6825101 -1.37125,-5.03375 c -1.0625,-1.43624996 -1.84875,-2.47374996 -5.89375,-0.74499996 -1.47375,0.62874996 -2.63875,1.75249996 -3.85875,2.75499996 -1.12001,0.92125 -1.25501,1.18125 -1.34876,2.605 l -0.51375,7.7575101 c -0.0937,1.42375 0.003,1.68 0.96,2.55875 0.3125,0.2875 0.59,0.57 0.83501,0.84625 l 2.68875,3.03875 -2.40375,3.295 c -3.46751,4.295 -10.51126,8.51375 -14.57751,15.8475 -1.1675,2.10875 -1.70625,4.19625 -0.965,4.5325 1.70625,0.77625 7.215,-5.145 9.6875,-8.25875 3.3675,-4.24 5.63251,-7.755 7.72751,-9.84875 l 3.22125,-3.21625 3.53375,1.92375 c 2.945,2.10875 4.11375,3.20875 5.435,4.60375 1.18625,1.2525 1.63125,2.17125 1.93,4.055 0.26625,1.67875 0.41875,4.1225 0.50375,6.55125 0.17625,5.06 -1.3525,8.895 4.3525,8.4475 1.2125,-0.095 2.44125,-0.30625 3.3225,-0.73375 2.1575,-1.04875 2.15375,-4.53875 1.4225,-7.4775 -0.30625,-1.22875 -0.6775,-2.375 -1.55,-1.5375 -0.41875,0.4025 -0.905,1.26125 -1.21375,1.9675 -0.4175,0.9525 -0.56,1.0575 -1.42625,1.0575 l -1.92625,0 c 0,0 0.30375,-8.28 0.30375,-8.28 0.0512,-1.42625 0.025,-1.74 -0.26375,-3.14125 z m -104.922517,19.76875 8.81875,-8.60625 -8.81875,-8.60625 -8.82,8.60625 8.82,8.60625 z m 0.6225,-39.30626 -6.07875,5.89251 c -1.01,0.98 -1.15375,1.155 -1.43625,1.75875 -0.39625,0.84375 -0.5325,2.25625 -0.33875,2.4475 0.63,0.62125 2.85625,-0.88375 3.63125,-1.44125 6.785,-4.88375 9.87625,-7.95876 10.97375,-14.2825101 0.5575,-3.21375 -1.18625,-4.45749996 -4.2725,-4.86749996 -4.89625,-0.65125 -9.75375,0.0138 -11.65625,3.61124996 0.2975,13.7325101 0.715,5.8800001 4.8675,4.905 4.6175,-1.085 9.58375,-3.49375 4.31,1.9762501 z m 68.211257,0 -6.07875,5.89251 c -1.01,0.98 -1.15375,1.155 -1.43625,1.75875 -0.395,0.84375 -0.5325,2.25625 -0.3375,2.4475 0.62875,0.62125 2.855,-0.88375 3.63,-1.44125 6.785,-4.88375 9.87625,-7.95876 10.97375,-14.2825101 0.5575,-3.21375 -1.18625,-4.45749996 -4.2725,-4.86749996 -4.89625,-0.65125 -9.75375,0.0138 -11.65625,3.61124996 0.2975,13.7325101 0.715,5.8800001 4.8675,4.905 4.6175,-1.085 9.58375,-3.49375 4.31,1.9762501 z m -33.827497,16.10626 0.77,-0.0137 c 0.34625,-0.005 0.43875,-0.21125 0.92875,-2.055 2.81625,-10.60875 3.33,-16.4662601 -3.59625,-23.2687601 -1.14125,-1.12124996 -2.47,-2.05999996 -3.32625,-1.05624996 -0.58125,0.68124996 -1.17375,5.48999996 -0.90875,6.53999996 0.4625,1.83625 1.835,2.4325001 3.42,3.6800001 3.58125,2.81626 4.4775,4.93001 4.0225,8.68126 -0.34875,2.87875 -1.31,7.4925 -1.31,7.4925 z m 15.6625,17.22 6.1275,5.98 8.818747,-8.60625 -8.818747,-8.60625 -6.1275,5.98 -6.12875,-5.98 -8.81875,8.60625 8.81875,8.60625 6.12875,-5.98 z m 0.2225,-9.76 8.818747,-8.60625 -8.818747,-8.605 -8.81875,8.605 8.81875,8.60625 z" />
</svg>
