<?xml version="1.0" encoding="UTF-8" standalone="yes"?>
<svg>
  <path
    style="stroke:none; fill:#000000"
    d="m 49.50184,77.287408 4.073,4.073 5.863,-5.862 -5.863,-5.863 -4.073,4.074 -4.074,-4.074 -5.861996,5.863 5.861996,5.862 4.074,-4.073 z m -3.131,-61.231 -0.454,-8.6509997 c -0.067,-1.283 -0.093,-1.507 -0.265,-2.233 -0.523996,-2.229 -1.934996,-3.449 -3.409996,-4.23699996 -1.876,-1.002 -3.307,-1.374 -5.241,0.036 -1.59,1.15999996 -1.739,5.35899996 -1.114,6.01599996 0.466,0.49 1.701,0.446 3.197,0.095 3.734,-0.877 4.109,-0.675 5.082,3.2749997 0.462,1.876 0.516,3.635 0.289,5.523 -0.483,4.008 -1.617,5.958 0.606,8.311 0.924996,0.98 1.891996,1.128 4.002996,0.693 1.5,-0.309 1.797,-1.006 2.426,-3.082 0.443,-1.463 0.793,-2.772 0.679,-4.23 -0.225,-2.892 -3.352,-8.3279997 0.417,-9.6789997 0.696,-0.249 1.6,-0.086 2.38,0.084 1.051,0.229 1.229,0.125 1.783,-1.039 0.455,-0.956 0.982,-1.836 1.272,-2.866 1.087,-3.86399996 -0.578,-4.95499996 -3.919,-3.37199996 -3.832,1.81599996 -5.554,9.59599966 -4.735,14.81199966 0.251,2.15 0.526,4.086 0.526,4.086 0,0 -0.23,-0.003 -0.502,-0.03 -1.073,-0.105 -2.916,-1.529 -3.02,-3.512 z m 36.258,62.892 c -0.363,2.27 0.079,2.828 1.588,2.131 1.028,-0.475 14.288,-8.188 16.225,-10.498 0.78,-0.93 1.557,-2.576 1.832,-4.056 0.169,-0.912 -0.105,-0.88 -1.086,-0.515 -2.276,0.846 -17.278,9.979 -17.748,10.804 -0.439,0.771 -0.721,1.571 -0.811,2.134 z m 31.499,-37.506 5.863,-5.863 -5.863,-5.862 -5.862,5.862 5.862,5.863 z m 16.647,8.666 -4.872,0 -2.195,-1.725 0,-1.785 c 0,-0.802 0.05,-0.936 0.499,-1.346 1.78,-1.621 2.254,-0.479 4.212,0.851 1.143,0.776 2.221,1.614 2.356,2.431 0.111,0.666 0,1.574 0,1.574 z m -23.47,-0.464 -4.653,-44.4649997 c -0.132,-1.265 -0.23,-1.521 -0.98,-2.555 -1.841,-2.53899996 -3.52,-3.858 -4.585,-1.047 -0.347,0.915 -0.559,1.8 -0.707,2.733 -0.288,1.816 0.914,13.5579997 1.649,16.1139997 0.541,1.881 1.147,3.595 1.649,5.419 1.496,5.438 2.36,23.024 4.241,33.217 1.744,9.456 7.467,14.685 17.527,15.549 4.132,0.354 12.501,-1.912 14.609,-6.678 0.44,-0.994 0.601,-2.218 1.081,-3.217 0.418,-0.871 1.08,-1.572 1.649,-2.356 0.984,-1.354 1.865,-3.822 1.885,-5.277 0.025,-1.867 -0.631,-3.838 -0.573,-5.472 0.019,-0.519 0.11,-1.003 0.101,-1.501 -0.027,-1.674 -5.409,-8.98 -8.009,-11.073 -1.617,-1.3 -4.004,-2.347 -5.749,-2.12 -1.186,0.155 -4.045,1.848 -4.774,2.827 -2.175,2.922 -3.127,12.208 -1.021,15.549 1.454,2.306 5.452,3.789 8.095,2.827 1.309,-0.477 2.379,-1.549 3.836,-2.158 1.23,-0.515 1.671,-0.433 2.111,0.334 0.373,0.652 2.008,4.66 1.742,5.753 -0.599,2.461 -8.959,4.902 -10.177,5.023 -4.982,0.496 -9.41,-1.384 -12.563,-4.338 -3.74,-3.501 -4.278,-4.97 -5.84,-10.323 -0.357,-1.223 -0.411,-1.499 -0.544,-2.765 z M 64.57848,24.924683 c -0.51134,-0.01664 -1.10106,0.03944 -1.75,0.175 -6.418,1.339 -12.678,9.85 -14.375,15.45 -0.446,1.472 -0.449,2.728001 -0.125,5.300001 0.282,2.245 0.825,5.5 0.825,5.5 0,0 2.299,0.683 4.175,1.075 2.253,0.472 5.447,0.383 7.8,0 7.031,-1.143 17.443,-2.61 25.72501,-3.75 3.991,-0.549 4.912,-0.594 6.7,1.4 1.058,1.179 1.63,1.998 1.475,3.35 -0.059,0.519 -0.194,0.638 -1.4,1.05 -1.637,0.559 -3.342,0.891 -5.025,1.25 -17.35501,3.697 -23.70001,4.99 -38.87501,0.25 -5.410988,-1.69 -9.274996,-5.099 -10.349996,-11.075 -0.882001,-4.909001 -0.164,-6.941001 -2.900001,-5.850001 -2.313,0.922 -7.299,4.095001 -8.425,5.375001 -0.321,0.366 -0.491,0.693 -0.7,1.425 -0.283028,1.233939 -0.799902,1.66298 -0.525959,3.219982 0.671248,3.815135 3.226073,9.389662 4.750959,13.680018 0,0 -2.757,3.466 -4.925,5.7 -4.295,4.425001 -15.186001,10.548001 -20.325001,13.450001 -3.388,1.913 -7.38,4.373 -6.07499996,5.4 0.97499996,0.767 9.25799996,-0.763 12.22500096,-1.75 7.629,-2.538 14.704,-8.719 19.025,-14.325 0.282,-0.366 0.567,-0.744 0.75,-1.175 0.247,-0.581 0.32,-0.789001 0.625,-2.025001 0.954,-3.868 2.742,-10.795 2.45,-11.7 -0.518,-1.604 -3.549,-3.443 -2.55,-5.45 0.686,-1.379 2.975,-3.675 2.975,-3.675 0,0 0.77,3.66 1.5,6.175 1.522001,5.237 4.366009,7.894 8.699997,9.9 1.997,0.925 12.091,3.156 14.925,3.3 1.627,0.083 3.092,0.07 4.775,0 3.364,-0.138 25.25901,-4.16 26.95001,-4.95 3.109,-1.451 4.057,-2.633 6.125,-6.475 1.43,-2.659 2.161,-3.715 1.9,-5.175 -0.57,-3.199 -3.492,-7.385001 -5.675,-8.600001 -0.668,-0.372 -1.354,-0.6 -2.15,-0.725 -1.606,-0.251 -11.984,1.34 -18.57501,2.600001 -1.646,0.314 -20.216,3.051 -22.15,0.7 -1.235,-1.501001 3.604,-6.856001 6.75,-8.975001 0.769,-0.518 2.247,-1.473 3.075,-1.575 0.477,-0.059 1.186,-0.028 1.825,0.025 0.584,0.049 5.061,-1.25 5.05,-2.525 -0.004,-0.428 -0.082,-0.939 -0.2,-1.4 -0.767,-2.990812 -1.78416,-4.502903 -4,-4.575 z M 75.35284,6.5504083 c 0.474,1.476 1.413,1.691 2.98,2.858 1.334,0.9929997 1.623,1.8449997 1.791,3.3419997 0.461,4.105 0.089,10.101 0.236,14.304 0.096,2.767 0.668,3.747 3.254,5.314 2.11,1.279 4.396,1.314 5.463,-0.772 0.735,-1.436 1.672,-5.208 1.178,-6.285 -0.389,-0.848 -2.445,-2.585 -3.711,-2.874 -1.09,-0.249 -3.357,-0.264 -3.357,-0.264 l -0.421,-11.789 c -0.045,-1.2719997 -0.065,-1.4939997 -0.196,-2.2209997 -0.327,-1.807 -2.739,-5.057 -3.267,-5.893 -0.674,-1.066 -1.697,-2.13699996 -2.524,-2.24199996 -0.508,-0.064 -1.131,0 -1.131,0 l 0,0.471 -0.471,0 c 0,0 0,4.08999996 0,4.08999996 0,1.272 0.018,1.468 0.176,1.961 z"/>
</svg>