<?xml version="1.0" encoding="UTF-8" standalone="yes"?>
<svg>
<path
	d="m 104.62063,9.2332913 c -0.26,3.6339997 -0.115,5.3349997 2.748,6.9689997 0.013,0.007 0.025,0.014 0.038,0.021 2.139,1.21 5.18,0.853 6.25,-1.94 0.159,-0.415 0.252,-0.909 0.355,-1.585 0.178,-1.169 -0.089,-2.372 -1.19099,-2.016 -0.806,0.261 -1.753,1.469 -2.70401,1.956 -1.386,0.708 -3.257,-0.512 -3.89299,-2.114 -0.574,-1.4459997 0.856,-4.7779997 1.48899,-6.8019997 0.46601,-1.491 0.87701,-3.27700003 0.573,-3.60000003 -1.008,-1.066 -2.972,5.15800003 -3.207,6.24000003 -0.242,1.115 -0.406,2.145 -0.458,2.871 z M 91.290626,69.337291 c 0,0 3.475,-1.19 4.852,-0.862 0.727,0.174 1.479,1.544 1.95,2.594 0.857,1.906 1.682,4.36 1.995004,6.308 0.104,0.648 0.217,1.247 0.854,1.475 0.402,0.144 1.012,0.153 1.012,0.153 0,0 0.002,-0.01 0.005,-0.03 0.304,-1.796 0.982,-4.808 1.155,-6.624 0.181,-1.907 0.14,-2.569 1.691,-2.448 2.342,0.182 3.138,0.615 4.167,-1.344 0.923,-1.756 1.936,-5.343 0.324,-6.506 -4.986,-1.407 -6.848,5.467 -7.16,7.04 -0.441,2.222 -0.626,4.605 -0.626,4.605 0,0 -1.221,-4.114 -2.120004,-6.337 -1.01,-2.499 -3.619,-5.865 -6.433,-5.024 -1.398,0.418 -1.889,1.616 -1.888,3.202 0.001,1.459 0.222,3.798 0.222,3.798 z m -33.96999,-41.233 3.988,4.18 5.74,-6.015 -5.74,-6.015 -3.988,4.18 -3.98901,-4.18 -5.74,6.015 5.74,6.015 3.98901,-4.18 z m -15.82,46.721 3.98899,4.18 5.74,-6.015 -5.74,-6.015 -3.98899,4.18 -3.988,-4.18 -5.74,6.015 5.74,6.015 3.988,-4.18 z m 54.11399,-50.768 5.740004,-6.014 -5.740004,-6.015 -5.74,6.015 5.74,6.014 z m -51.272,16.198 -4.65699,4.848 c -0.774,0.805 -0.88401,0.95 -1.101,1.446 -0.303,0.695 -0.40801,1.857 -0.25901,2.014 0.48301,0.511 2.188,-0.728 2.78201,-1.186 5.198,-4.018 7.567,-6.548 8.407,-11.75 0.428,-2.644 -0.909,-3.668 -3.273,-4.005 -3.751,-0.535 -7.473,0.012 -8.93,2.971 0.227,11.298 0.548,4.838 3.728,4.035 3.539,-0.892 7.344,-2.874 3.303,1.627 z m -2.69099,-24.203 -0.433,-8.6489997 c -0.064,-1.283 -0.09,-1.506 -0.253,-2.233 -0.5,-2.227 -1.846,-3.447 -3.254,-4.23500003 -1.789,-1.002 -3.155,-1.374 -5,0.036 -1.516,1.16000003 -1.659,5.35800003 -1.063,6.01400003 0.445,0.49 1.624,0.446 3.05,0.095 3.563,-0.877 3.921,-0.675 4.849,3.2739997 0.441,1.876 0.493,3.634 0.276,5.521 -0.461,4.008 -1.543,5.957 0.578,8.31 0.883,0.979 1.805,1.127 3.819,0.693 1.431,-0.309 1.715,-1.006 2.315,-3.082 0.422,-1.462 0.756,-2.771 0.648,-4.228 -0.215,-2.892 -3.198,-8.3259997 0.397,-9.6759997 0.664,-0.25 1.527,-0.087 2.271,0.083 1.002,0.229 1.173,0.125 1.701,-1.038 0.43399,-0.956 0.937,-1.836 1.21299,-2.866 1.03801,-3.86300003 -0.55099,-4.95400003 -3.738,-3.37100003 -3.656,1.81500003 -5.29899,9.59299973 -4.51799,14.80799973 0.23899,2.149 0.502,4.085 0.502,4.085 0,0 -0.219,-0.003 -0.47901,-0.03 -1.024,-0.105 -2.78199,-1.529 -2.88099,-3.511 z m 22.64099,-7.2369997 -4.65699,4.8479997 c -0.77401,0.805 -0.88401,0.95 -1.101,1.446 -0.303,0.695 -0.40801,1.857 -0.25901,2.014 0.48201,0.51 2.188,-0.728 2.781,-1.186 5.19901,-4.018 7.567,-6.5479997 8.40801,-11.7499997 0.42699,-2.645 -0.909,-3.66800003 -3.27301,-4.00500003 -3.75099,-0.535 -7.473,0.012 -8.93,2.97100003 0.22701,11.2979997 0.54701,4.837 3.728,4.035 3.539,-0.892 7.34301,-2.874 3.303,1.627 z m 17.73701,41.9689997 c 0.14299,0.235 0.17699,0.821 0.019,1.113 -0.38801,0.713 -2.945,-0.585 -4.002,-1.086 -0.96101,-0.455 -1.81001,-0.876 -1.79401,-1.359 0.025,-0.734 1.689,-1.453 2.725,-1.209 0.811,0.191 2.374,1.431 3.052,2.541 z m 17.95999,-11.337 0.017,0.99 -1.677008,0.03 c -0.753,0.014 -0.889,-0.001 -1.354,-0.148 -1.261,-0.398 -2.635,-2.101 -2.781,-3.301 -0.061,-0.501 -0.019,-1.113 -0.019,-1.113 l 0.443,-0.008 -0.008,-0.464 c 0,0 1.091,0.047 1.832,0.219 0.916,0.213 2.87,1.622 3.357,2.845 0.164,0.41 0.183,0.505 0.19,0.95 z m 2.337004,7.441 0.558,4.243 c 0,0 -1.279,0.548 -2.677,0.898 -3.367004,0.844 -10.337004,0.189 -10.337004,0.189 0,0 -0.993,-2.933 -1.926,-5.067 -3.366,-7.701 -8.34,-8.445 -12.87899,-2.547 -1.91901,2.493 -5.20501,10.254 -1.779,12.788 0.041,0.03 3.89799,2.123 5.02499,2.315 0.685,0.117 0.894,0.127 2.089,0.106 l 4.877,-0.09 c 0,0 0.18701,1.379 0.041,2.477 -0.105,0.788 -2.875,3.842 -4.34699,4.792 -1.822,1.175 -3.5,2.537 -5.24901,3.806 -2.19,1.59 -10.452,5.654 -12.73199,6.263 -4.745,1.268 -11.75401,2.722 -12.779,3.481 -0.60901,0.45 -0.79901,1.336 0.031,1.854 0.74899,0.469 2.46799,0.674 4.19599,0.772 13.00401,0.733 15.349,-0.217 26.18401,-8.726 0.01,-0.007 0.02,-0.015 0.03,-0.023 4.57101,-3.604 5.834,-6.545 7.14101,-12.456 0.088,-0.4 0.176,-0.802 0.164,-1.211 -0.016,-0.552 0.11399,-0.627 1.30399,-0.751 l 8.183,-0.851 c 1.19,-0.123 1.422,-0.173 2.329,-0.493 3.597004,-1.269 7.112014,-8.235 7.611004,-11.198 0.826,-4.903 -1.003,-12.636 -4.222,-16.821 -4.808004,-6.25 -9.634004,-2.612 -11.877994,4.392 -1.33601,4.169 -1.948,10.622 1.607,12.494 1.012,0.534 4.238,0.753 5.379,0.366 0.945,-0.321 1.584,-0.893 3.171004,-0.986 0.411,-0.024 0.885,-0.016 0.885,-0.016 z m -57.384004,9.002 c -0.729,0.072 -1.374,0.085 -1.836,0.027 -2.92,-0.363 -7.035,-2.264 -8.168,-4.025 -2.275,-3.537 -2.104,-12.325 -6.711,-11.347 -3.724,0.791 -7.201,5.843 -8.602,8.844 -2.943,6.302 -5.293,21.319 -12.147,14.833 -0.038,-0.036 -0.075,-0.071 -0.112,-0.107 -5.105995,-4.941 -5.977995,-26.427 -6.189995,-24.862 -0.33600004,2.468 -0.82000004,6.279 -1.04300004,9.231 -0.635,8.393 0.784,20.633 8.82699504,24.988 7.256,3.928 9.445,-9.068 11.27,-14.353 0.94,-2.724 3.224,-7.132 5.602,-9.148 0.605,-0.513 1.195,-0.856 1.976,-0.776 0.338,0.034 0.421,0.168 0.828,1.346 2.807,8.104 2.983,9.985 9.585,12.423 3.343,1.234 5.249,1.018 8.633,0.074 0.814,-0.227 1.593,-0.458 2.197,-0.968 0.447,-0.376 0.80001,-0.905 1.141,-1.42 l 1.47901,-2.233 4.365,1.073 c 3.56,0.875 7.466,1.966 10.07,-0.272 0.33499,-0.288 3.26799,-4.422 3.60599,-5.791 0.559,-2.265 -2.425,-11.138 -2.624,-11.4 -1,-1.314 -2.288,-0.746 -2.865,0.748 -0.997,2.579 -2.255,4.952 -1.655,6.942 0.975,3.234 4.112,6.151 -0.512,4.968 -6.46199,-0.832 -9.9,-3.679 -9.867,-3.69 -1.288,0.4 0.825,4.096 -7.247,4.895 z m -24.439,-36.271 2.029,-0.037 0.035,2.126 c 0,0 -0.519,-0.108 -0.861,-0.208 -0.50299,-0.147 -0.621,-0.275 -0.82099,-0.787 -0.164,-0.418 -0.38201,-1.094 -0.38201,-1.094 z m 4.08601,1.627 c 0,0 -0.303,-2.292 -0.672,-3.816 -0.583,-2.404 -1.863,-3.544 -3.891,-2.056 -1.48,1.086 -1.724,2.895 -1.134,5.04 0.446,1.625 1.23,3.08 1.031,3.927 -0.289,1.23 -3.696,3.049 -5.548,5.174 -1.735,1.99 -1.975,5.257 -0.271,8.087 1.894,3.145 6.35,1.109 9.595,-0.296 2.002,-0.867 4.181,-1.749 5.475,-2.914 0.247,-0.223 2.328,-2.318 2.483,-3.151 0.133,-0.718 -0.034,-2.042 -0.034,-2.042 0,0 -1.312,-0.123 -2.305,0.043 -1.092,0.181 -2.43,1.348 -3.544,2.191 -2.245,1.7 -5.654,2.369 -8.27,3.129 -0.872,0.253 -0.976,0.124 -0.879,-0.931 0.039,-0.427 0.134,-0.56 0.944,-1.335 2.022,-1.933 4.831,-4.776 6.301,-5.507 3.042,-1.513 4.396,-0.506 6.983,-4.097 1.341,-1.862 2.234,-6.369 1.321,-9.105 -0.254,-0.762 -4.021,-6.3729997 -5.708,-6.6969997 -0.677,-0.131 -1.712,-0.109 -1.712,-0.109 0,0 -0.008,1.298 0.04,2.381 0.084,1.8919997 0.717,4.2609997 1.515,5.6719997 1.744,3.083 2.836,3.681 1.103,5.297 -0.514,0.48 -0.941,0.985 -1.849,1.097 -0.432,0.054 -0.974,0.018 -0.974,0.018 z m 62.89999,-14.4229997 0.027,1.633 c 0,0 -2.24,-1.629 -2.24,-1.629 0,0 -0.003,-0.16 -0.007,-0.422 -0.005,-0.303 0.533,-1.165 0.822,-1.17 0.026,-0.001 0.056,-0.001 0.088,-0.002 0.89,-0.016 1.295,0.676 1.31,1.59 z m -5.122,16.9059997 c 2.742,-3.4 5.41,-6.658 6.143,-8.464 0.707,-1.743 1.526,-8.0489997 1.134,-11.9599997 -0.272,-2.71200003 -1.683,-3.72100003 -4.656,-3.15200003 -1.685,0.322 -4.704,2.10100003 -5.082,3.18200003 -0.52099,1.488 -0.055,5.185 0.54,5.868 1.072,1.2309997 4.973,3.4389997 4.973,3.4389997 0,0 -1.382,2.04 -2.639,3.786 -1.797,2.493 -10.536,12.463 -14.602,15.93 -5.382,4.589 -6.131,5.087 -1.846,4.394 8.472,-1.37 13.286,-9.616 16.035,-13.023 z m 32.353004,51.199 c 0.152,2.203 1.133,3.573 2.918,3.968 2.30201,0.51 3.603,-0.798 4.193,-3.444 0.13,-0.58 0.101,-1.064 -0.256,-1.298 -0.67799,-0.444 -2.54,0.017 -3.44099,-0.484 -1.12,-0.623 -1.405,-3.273 -1.128,-4.513 0.278,-1.239 0.985,-2.568 1.177,-3.523 0.039,-0.194 0.057,-0.372 -0.023,-0.472 -0.011,-0.012 -0.021,-0.024 -0.031,-0.035 -2.709,-0.647 -3.368,10.395 -3.409,9.801 z"
	style="stroke:none; fill:#000000"/>
</svg>