<?xml version="1.0" encoding="UTF-8" standalone="yes"?>
<svg>
  <path
    style="stroke:none; fill:#000000"
    d="m 13.790331,67.358505 c 0.61047,-0.78496 1.33093,-1.75616 2.22988,-2.98484 1.60717,-2.19864 2.58349,-4.15479 3.06422,-5.36722 l 0.89345,-2.25488 2.28401,-0.53747 c 1.90315,-0.44748 4.12103,-0.54873 5.34134,-1.62242 0.17261,-0.15249 2.69998,-5.27597 2.16326,-7.43086 -0.32873,-1.31993 -2.54337,-4.08103 -3.2757,-4.65475 -2.46475,-1.93115 -7.79372,-4.09979 -7.79372,-4.09979 0,0 -0.77271,1.11245 -1.65503,2.63612 -5.59783,9.66449 -3.87855,11.76937 -1.0882,13.92051 1.07057,0.86246 1.69229,1.9299 1.4813,2.64611 -0.0548,0.18499 -0.16362,0.41373 -0.31473,0.67122 -10.3560796,14.48048 -20.3636796,18.37028 -16.1215296,17.49782 5.25072,-1.07994 11.9214996,-7.30086 12.7914496,-8.41955 z m 2.45425,-17.43408 c -0.42498,-0.24999 -0.69797,-0.45248 -0.70059,-0.46498 -0.11712,-0.56122 0.0634,-1.81365 0.0634,-1.81365 0,0 1.93852,0.0675 2.61474,0.0912 0.47072,0.0162 0.68659,0.59997 0.77933,1.12619 0.59034,3.35733 -2.56611,1.17244 -2.75685,1.0612 z m 4.7715,1.04369 0.14549,-0.9412 c 0.16274,-1.05119 0.14337,-2.26238 -0.0775,-3.18233 -0.003,-0.0113 -0.006,-0.0225 -0.008,-0.0337 0,0 0.0211,-0.60622 0.0211,-0.60622 0,0 0.25161,-0.0225 0.58309,-0.0175 1.0507,0.015 2.41538,0.9462 3.17146,1.63742 1.18394,1.08369 1.88378,2.8511 -0.34898,2.96609 -0.80371,0.04 -1.80403,0.0912 -2.50337,0.12749 l -0.98307,0.05 z m 153.085809,25.20542 c 0.3975,-1.35 0.87875,-2.772499 1.3675,-4.198749 2.58125,-7.51375 2.715,-7.04375 0.9125,-14.0375 -0.355,-1.37625 -0.57625,-2.6175 -0.4575,-3.28875 l 2.00125,-1.165 -3.105,-6.011249 c -1.6725,-3.45875 -4.10875,-6.99625 -4.99375,-7.54 -0.99375,-0.60875 -1.70875,-0.12875 -2.585,1.7275 -1.5325,3.24625 -1.5575,6.4875 -0.41375,9.255 0.41625,1.0075 0.5175,1.11875 1.01,1.11875 0,0 1.09625,0 1.09625,0 0,0 0.0788,0.832499 0.22125,2.322499 0.19625,2.06625 2.9675,6.70375 4.4075,9.4325 1.71,3.24375 2.595,5.8175 -0.24875,8.21125 l -7.46875,7.217499 c -10.97625,9.35125 -16.3575,15.39625 -28.5225,17.8375 -2.54375,0.51 -5.63625,1.0125 -5.63625,1.0125 0,0 7.83625,0.84 11.93,1.2775 9.1175,0.976245 13.04625,-2.34875 20.32625,-9.79 4.35,-4.44625 9.16625,-10.00875 10.15875,-13.38125 z m -29.2517,-61.637954 0.55997,9.878222 2.63737,48.2687 c 0,0 1.7899,-1.79365 2.86234,-3.42732 1.52117,-2.31487 1.60117,-4.30477 2.05865,-6.52715 0.35873,-1.74366 0.38248,-2.13239 0.23498,-3.89355 l -2.88734,-34.43693 -0.27499,-5.845932 c 0.28749,0.15749 0.56122,0.29998 0.81871,0.42622 l 4.44226,2.199882 -0.84745,-2.337372 c -0.0962,-0.26498 -0.19874,-0.54622 -0.30124,-0.82871 -1.23243,-3.39482 -1.91615,-6.75214 -2.73735,-10.2332099 -0.78496,-3.33232 -1.83241,-7.77084002 -1.83241,-7.77084002 0,0 -0.74121,-0.0387 -1.42492,0.0587 -1.8774,0.26874 -5.88594,6.24842002 -6.14593,7.60710002 -0.025,0.12874 -0.04,0.25749 -0.045,0.38498 -0.0113,0.28123 0.01,0.57622 0.0575,0.8812 0.34373,2.1898899 1.44618,4.0585399 2.82485,5.5959599 z M 67.837231,42.930609 c -0.0515,-1.39625 -0.209,-3.14875 -0.66763,-3.58875 -0.26587,-0.25625 -0.63287,-0.07125 -0.86312,-0.20875 -1.03538,-0.62125 0.72587,-3.185 1.56512,-4.165 7.61788,-8.8925 27.36038,-19.932498 37.791629,-22.217498 0.995,-0.2175 1.9875,-0.3925 2.17625,-0.0563 0.0925,0.1675 -0.0125,0.46125 -0.1725,0.7925 -0.3775,0.78 -0.98,1.7225 -1.65,2.73375 -13.891249,20.977498 8.02125,-8.1337499 14.23875,-8.9524999 0.56875,-0.28 1.1025,-0.50625 1.57625,-0.65625 2.41875,-0.76125 5.04,-0.9225 5.3575,-3.2425 0.045,-0.325 0.0512,-0.73125 0.04,-1.12375 -0.105,-3.8 -6.305,-1.98250002 -10.675,-0.32 -4.045,1.5375 -10.05,4.0725 -16.42,7.02 -8.242499,3.8137499 -32.920879,15.2599979 -36.393499,25.2024979 -1.119,3.20375 -0.911,6.79375 1.31975,9.88125 0.0956,0.1325 0.1825,0.2525 0.26175,0.36 -1.007,-1.3675 2.73,4.3825 2.51475,-1.45875 z m 25.90225,5.96 0.69875,-0.0125 c 0.31375,-0.005 0.3975,-0.19625 0.84125,-1.91 2.55375,-9.86 3.02,-15.30375 -3.26125,-21.62625 -1.035,-1.04125 -2.24,-1.915 -3.01625,-0.9825 -0.5275,0.63375 -1.065,5.10375 -0.825,6.08 0.42,1.70625 1.665,2.26 3.1025,3.42 3.2475,2.6175 4.06125,4.58125 3.6475,8.0675 -0.31625,2.67625 -1.1875,6.96375 -1.1875,6.96375 z m -16.44875,-28.62375 -0.175,-4.003748 c -0.0713,-1.61875 -0.0475,-1.90875 0.23375,-2.9 0.20875,-0.73625 0.42875,-1.54 0.98625,-2.05875 1.36,-1.26375 4.7275,-0.82625 6.28875,-1.8674999 2.24875,-1.4975 2.25,-6.645 0.52,-8.73125002 -1.83375,-2.21124998 -5.5425,1.30125002 -7.0625,3.31125002 -0.9325,1.235 -1.81625,2.65 -2.21375,4.30125 -0.185,0.765 -0.28625,1.63375 -0.43,2.3949999 l -0.70625,3.72375 -2.32988,-2.965 c -3.18925,-4.1999999 -2.21662,-5.4474999 -6.903,-6.5899999 -1.57012,-0.3825 -4.97525,-0.24 -5.62975,1.52875 -0.51212,1.3825 0.69025,4.7474999 1.44338,5.5462499 0.57912,0.61375 2.92425,2.13875 3.893,2.2325 1.58287,0.1525 4.81725,-0.81125 4.81725,-0.81125 0,0 2.61037,3.7575 4.20525,5.52125 0.695,0.769998 1.27125,1.389998 2.1625,1.407498 0.36875,0.006 0.9,-0.04 0.9,-0.04 z m 47.343119,15.106301 -5.77073,5.73076 c -0.95804,0.95304 -1.09544,1.12416 -1.36274,1.70998 -0.37597,0.82189 -0.50587,2.19587 -0.32101,2.38198 0.59706,0.60331 2.71049,-0.86061 3.44495,-1.40271 6.44147,-4.75023 9.37555,-7.74176 10.41728,-13.892199 0.52836,-3.12644 -1.12667,-4.33679 -4.05575,-4.73524 -4.64655,-0.63328 -9.25814,0.0137 -11.06305,3.51239 0.28104,13.358849 0.67825,5.71952 4.61908,4.77147 4.383,-1.05547 9.09701,-3.39873 4.09197,1.923569 z m 34.57455,-8.201489 c 0,-2.619981 4.15522,-7.703481 13.29008,-16.25912 12.7549,-11.9461399 13.77528,-12.6098599 13.76788,-8.9554599 -0.005,2.67983 -1.28881,4.32165 -7.34989,9.4027399 -2.91208,2.44125 -8.02913,7.38015 -11.37121,10.975329 -6.38561,6.869211 -8.33686,8.001201 -8.33686,4.836511 z m -48.70274,19.22052 c -3.39135,0.146329 -6.58643,1.130838 -7.875,2.75 -0.78012,0.980249 -2.18912,5.563559 -2.59375,8.4375 l -0.312499,2.28125 7.468749,0.34375 c 4.1136,0.201982 8.27508,0.636025 9.25,0.9375 1.84179,0.569533 3.29743,2.419093 2.5,3.1875 -0.25218,0.242993 -2.66488,0.962369 -5.34375,1.59375 -4.16748,0.982238 -5.30165,1.052502 -7.8125,0.53125 -3.98535,-0.827362 -6.503749,-1.954985 -7.312499,-3.25 -0.90212,-1.444518 -1.29789,-1.370276 -6.15625,0.84375 -2.29847,1.047444 -4.79093,1.90625 -5.53125,1.90625 -0.97137,0 -2.51398,-1.23363 -5.53125,-4.375 -4.00343,-4.168077 -4.26617,-4.344166 -6.59375,-4.34375 -3.16157,5.55e-4 -8.46479,2.496033 -11.28125,5.3125 -2.80375,2.803749 -4.85742,7.111125 -5.625,11.84375 l -0.59375,3.8125 -1.75,-1.65625 c -0.94947,-0.902686 -2.27419,-2.512426 -2.9375,-3.59375 -1.33969,-2.18392 -3.90625,-9.702767 -3.90625,-11.40625 0,-1.290761 -2.02678,-5.40625 -2.65625,-5.40625 -0.23987,0 -1.57584,0.400391 -2.96875,0.875 -3.50519,1.194338 -7.11871,5.906723 -9.59375,12.46875 -2.92413,7.752729 -5.69125,12.888629 -7.875,14.59375 -2.70443,2.111685 -5.09522,2.875831 -7.14111,2.305139 -6.05655,-3.048573 -7.035,-12.738566 -7.8643,-18.270911 C 9.7230114,62.989177 9.5223814,57.875275 9.7558114,53.454691 c -0.0659,-0.147882 -0.15703,-0.287818 -0.21875,-0.4375 -0.004,-0.009 0.003,-0.02214 0,-0.03125 l -0.875,0.5 c -1.10188,17.513674 -0.27855,28.180763 1.4870996,32.882118 1.76566,4.701355 3.33767,12.158583 10.41915,13.086632 6.14813,-1.543085 9.43299,-5.890426 15.71875,-20.84375 3.0553,-7.268307 4.77584,-9.40625 7.59375,-9.40625 1.7127,0 1.96875,0.183504 1.96875,1.34375 0,2.610184 1.74612,8.778493 3.3125,11.71875 6.21994,11.076358 12.89396,13.335019 21,13.3125 4.25458,-0.01493 7.87601,-0.157244 8.03125,-0.3125 0.22603,-0.22603 2.46875,-10.363897 2.46875,-11.15625 0,-0.116689 -1.53582,-0.21695 -3.40625,-0.21875 -1.87044,-0.0017 -4.37083,-0.262919 -5.5625,-0.59375 -3.25815,-0.904536 -7.97581,-4.541383 -9.34375,-7.1875 l -1.1875,-2.28125 1.4375,-1.53125 c 2.1776,-2.317755 4.03775,-3.069174 7.9375,-3.21875 l 3.53125,-0.15625 2.0625,2.375 c 1.13976,1.306096 2.81225,3.240262 3.71875,4.28125 2.22883,2.559499 4.55773,2.619318 8.25,0.25 3.52633,-2.262852 5.22992,-2.209601 8.90625,0.28125 2.63017,1.782028 3.338849,2.02157 5.999999,1.9375 1.65849,-0.05237 3.97167,-0.511348 5.15625,-1.03125 1.67654,-0.735823 4.16285,-0.988378 11.1875,-1.15625 7.983,-0.190772 9.55843,-0.100383 13.75,0.96875 2.60608,0.664715 4.81555,1.143035 4.90625,1.03125 0.85015,-1.047296 4.15625,-8.999819 4.15625,-10 0,-1.114528 -0.38416,-1.367612 -2.75,-1.875 -5.92614,-1.270921 -9.48067,-4.052308 -12.21875,-9.59375 -2.19893,-4.450295 -4.1983,-6.357466 -9.25,-8.75 -2.03721,-0.964845 -4.79978,-1.363811 -7.4375,-1.25 z m -16.396399,49.473815 -3.60814,-3.645225 3.65014,-3.983474 3.65014,-3.983465 2.992689,3.052606 2.99269,3.052597 2.72064,-3.044513 2.72063,-3.044513 3.97465,4.018112 3.97465,4.018103 -4.02365,3.601143 -4.02365,3.601144 -2.62658,-2.666678 -2.62657,-2.666677 -3.07975,2.668037 -3.079759,2.668037 -3.60813,-3.645234 z"/>
</svg>