<?xml version="1.0" encoding="UTF-8" standalone="no"?>
<svg>
  <path
     d="m 150.83634,50.365037 1.39914,4.806755 -3.01271,3.15284 c -8.21119,8.593348 -16.63468,14.593299 -26.63779,19.420223 -17.93647,8.657042 -21.30842,5.87681 -8.8322,8.008427 0.23142,0.03928 0.45647,0.07856 0.67303,0.114649 5.11886,0.851373 17.2695,-3.024391 21.82679,-6.508439 0.75052,-0.573244 1.58279,-1.275998 2.63267,-2.192127 3.14329,-2.743077 6.74305,-5.937318 10.23028,-9.151729 3.71653,-3.425662 6.225,-10.016903 6.18148,-13.264223 -0.0138,-1.081732 -0.007,-2.261128 0.0541,-3.184687 0.18365,-2.78554 0.86305,-3.248381 0.54564,-5.31312 -0.36518,-2.365161 -2.04032,-6.833277 -2.04032,-6.833277 0,0 0.26008,0 0.51486,0 3.19211,0 2.49467,-0.6794 -0.17516,-3.972367 -0.80148,-0.990438 -1.58704,-1.996799 -2.12419,-3.167702 -1.33438,-2.903373 -2.30147,-9.41712 -5.0403,-5.565772 -2.00316,2.817387 -4.11037,7.992504 -2.86409,10.329002 0.67409,1.266444 2.50635,2.022277 3.82481,3.397 1.10402,1.151795 1.91399,2.880019 2.10826,4.488286 0.1518,1.253705 0.0308,2.284482 0.25796,3.438401 0.15074,0.768571 0.31316,1.429924 0.4777,1.99786 z M 33.535075,85.831838 c 0.450315,-0.0074 0.895747,-0.05626 1.333747,-0.150742 2.435118,-0.52335 3.898588,-3.101885 4.752934,-5.354521 2.349981,-6.195278 1.841174,-19.603873 6.119801,-24.989179 1.264852,-1.592344 3.490311,-3.833302 3.490311,-3.833302 0,0 3.449229,14.185658 5.944219,19.387314 2.066544,4.308882 8.873919,10.605009 13.677595,11.730265 2.177689,0.50955 8.325197,0.318469 11.576444,0 1.668139,-0.164542 2.555499,-0.469211 3.845085,-2.334376 0.661035,-0.956467 0.734495,-1.215489 0.734495,-2.592335 l 0,-5.860886 -8.682306,0.499996 c -1.374617,0.07855 -1.614849,0.07219 -2.40221,-0.07006 -3.096259,-0.559444 -5.689125,-3.601882 -6.764594,-5.452185 -2.085864,-3.58702 -0.552331,-5.085946 3.696679,-8.758952 2.04924,-1.771747 5.316835,-2.964943 7.522762,-1.44054 1.150946,0.79511 2.333633,2.576412 3.569822,3.82481 5.665134,5.719698 20.242401,6.285511 28.048181,4.079584 3.09339,-0.873666 5.7526,-2.277051 8.66978,-3.059423 4.39487,-1.178334 15.22811,-1.208058 21.08475,-0.856681 1.37472,0.0828 1.54351,-0.02229 1.68364,-1.044577 0.10403,-0.757956 0.34713,-1.3588 0.69107,-2.178326 0.91826,-2.190004 2.55625,-5.943688 2.55625,-5.943688 0,0 -5.2059,-0.584921 -7.91077,-1.451156 -5.20908,-1.668776 -6.33222,-4.464932 -9.18039,-8.160231 -3.66876,-4.760045 -12.37994,-5.317366 -17.59433,-3.824809 -3.59127,1.029716 -4.86238,2.522272 -5.09922,6.874678 -0.0957,1.761132 0,4.0902 0,4.0902 l 11.21912,0 c 0,0 -0.10828,-0.994684 0,-1.529711 0.10404,-0.510612 0.93843,-0.510612 2.04033,0 2.29191,1.060501 6.72499,3.423539 6.72499,3.423539 0,0 -7.30461,2.566858 -11.82474,3.715468 -8.50683,2.163464 -14.64903,1.629499 -21.929012,-0.50955 -1.975993,-0.580674 -3.944554,-1.08067 -5.609827,-2.295098 -4.453573,-3.246258 -4.267269,-6.779137 -8.8736,-5.864071 -7.56756,1.50105 -12.269751,10.08909 -12.545439,17.747201 -0.08344,2.319514 0,5.711206 0,5.711206 0,0 -0.658593,0.06794 -1.223875,0 -0.858167,-0.102972 -2.780444,-2.05837 -3.737655,-3.48511 -2.287773,-3.4108 -3.365472,-3.384261 -4.727987,-9.264255 -1.818138,-7.846008 -0.452756,-13.333224 -6.62967,-14.279076 -3.475024,-0.532904 -6.240182,3.842856 -7.904712,7.649619 -1.952956,4.467055 -3.858567,19.836355 -5.60972,23.458406 -1.187464,2.457517 -3.369718,3.141163 -6.118634,2.710169 C 27.35519,76.026186 26.62165,75.856336 25.94225,75.642962 18.124374,73.197122 17.36748,64.862795 15.908999,58.181321 15.665052,57.063496 15.498174,56.29174 15.498174,56.29174 14.740431,52.562472 14.199671,47.799241 14.14447,55.219562 c -0.07176,9.646418 3.524493,17.362915 6.581156,22.066698 6.984338,10.747258 16.992218,8.474453 12.809449,8.545578 z m 13.494582,-4.02863 c 0.163799,2.261128 1.218355,3.666637 3.136598,4.072154 2.474715,0.52335 3.874066,-0.818465 4.50835,-3.533941 0.139065,-0.595537 0.107961,-1.091287 -0.275476,-1.3312 -0.728975,-0.45541 -2.731294,0.01805 -3.699226,-0.496811 -1.20413,-0.63906 -1.510285,-3.358783 -1.212411,-4.629474 0.298193,-1.272813 1.058272,-2.634798 1.26517,-3.615681 0.04183,-0.198512 0.06104,-0.382163 -0.02537,-0.484073 -0.01093,-0.01274 -0.02187,-0.02442 -0.0328,-0.03609 C 47.781883,71.084616 47.073927,82.41361 47.02966,81.803211 z M 0,81.803208 c 0.16379908,2.261128 1.2183552,3.666637 3.1365985,4.072154 2.4747143,0.52335 3.8740659,-0.818465 4.5083494,-3.533941 0.1390647,-0.595537 0.1078548,-1.091287 -0.2754754,-1.3312 -0.7289749,-0.45541 -2.731294,0.01805 -3.6992266,-0.496811 -1.2041302,-0.63906 -1.5102848,-3.358783 -1.2124104,-4.629474 0.2980867,-1.272813 1.0581654,-2.634798 1.2650639,-3.615681 0.041932,-0.198512 0.061146,-0.382163 -0.025265,-0.484073 -0.010934,-0.01274 -0.021868,-0.02442 -0.032908,-0.03609 C 0.75222313,71.084613 0.04426715,82.413607 0,81.803208 z m 95.902292,-56.071727 -4.924163,4.890618 c -0.818252,0.813157 -0.9346,0.959653 -1.163579,1.459649 -0.320592,0.701692 -0.431525,1.873657 -0.273883,2.032892 0.509975,0.514858 2.313145,-0.734601 2.94074,-1.197443 5.496665,-4.054107 8.000573,-6.607164 8.889313,-11.85659 C 101.82241,18.3929 100.40969,17.36 97.910025,17.0203 c -3.965785,-0.540335 -7.901315,0.01168 -9.44196,2.997852 0.24055,11.400119 0.579188,4.881064 3.942218,4.071092 3.741264,-0.900205 7.764157,-2.899127 3.492009,1.642237 z m -33.144526,30.47215 c 0,0 0.476111,-1.096594 0.764112,-1.967076 0.485878,-1.467079 0.40764,-2.52758 0.215922,-4.045614 -0.534496,-4.234572 -1.356358,-13.82685 -1.356358,-13.82685 0,0 1.474404,-0.165604 2.601252,-0.13588 3.047215,0.07962 3.935212,1.514849 5.538172,-0.08705 1.043622,-1.042454 1.97716,-4.736691 1.309649,-6.116722 -0.763369,-1.577482 -3.349548,-2.337561 -4.538073,-1.049886 -0.548191,0.594475 -0.860927,1.530774 -1.488311,2.148603 -0.971541,0.955406 -2.69743,1.144364 -3.552518,1.941598 -1.464213,1.365169 -1.660602,10.901184 -1.391072,13.160189 0.454561,3.811009 1.897225,9.978687 1.897225,9.978687 z M 5.2018682,45.888429 c 0.4067907,2.480871 1.1652771,6.465976 0.7921379,7.491446 -0.275157,0.755832 -0.8320527,1.315275 -1.3443627,1.986183 -2.136819,2.79934 -2.447326,6.081691 -1.2905414,9.855545 1.2349155,4.027568 5.572035,2.349238 9.518499,-0.152865 2.351892,-1.491495 8.099191,-5.576387 9.342705,-8.24834 0.06879,-0.147557 0.133014,-0.298299 0.193098,-0.454348 -0.540866,-2.062616 -2.218665,0.0552 -2.223761,0.05839 C 13.765705,60.814 7.0290294,63.471091 4.9267112,62.647319 4.4585622,62.463668 4.2243815,61.977473 4.5173727,60.944572 4.70304,60.289588 5.0831855,59.609127 5.1689597,59.505094 6.1091856,58.370284 8.0612927,57.21318 9.2670153,55.895782 10.024652,55.067763 10.4876,54.17605 11.286744,53.613422 c 1.011775,-0.71337 2.562506,-0.898081 3.751562,-1.429924 3.080441,-1.376847 5.455263,-5.103992 5.747723,-8.019043 0.524412,-5.226072 -2.271956,-6.947926 -6.858861,-10.147475 -0.612627,-0.42781 -1.106042,-0.765387 -2.123762,-0.830142 -1.068674,-0.06794 -2.7155824,0.166665 -2.7155824,0.166665 0,0 -0.083651,2.518027 0.2637982,4.312067 0.3885319,2.005291 1.3161252,3.102947 1.7114512,4.4437 0.088,0.299361 0.149574,0.609337 0.04384,0.717617 -0.108916,0.111464 -0.395219,0.0074 -0.66889,-0.165604 C 8.2874035,41.30036 8.1755148,39.357701 6.466187,40.231366 5.5262797,40.712254 5.093693,41.83751 5.0207636,43.377837 c -0.046496,0.981946 -0.02845,1.233536 0.1811026,2.510596 z m 7.2260558,-5.943688 -0.1207,-1.029716 c 0,0 0.674198,-0.118895 1.147443,-0.07113 0.60233,0.06157 0.878973,0.392778 1.241072,0.709124 2.119941,1.852426 4.873209,2.578535 3.680013,4.432023 -0.191825,0.298299 -1.386613,1.535019 -2.444248,2.441594 -1.440222,1.234597 -2.325565,1.518034 -2.184377,-0.02548 0.219319,-2.399131 -1.368141,-6.873616 -1.319203,-6.456422 z m -2.404333,8.706935 -1.2755735,0.07749 c -0.5730314,0.03503 -0.671226,0.02866 -0.9808837,-0.06263 C 7.2085396,48.499872 6.5034499,47.919197 6.2328576,47.366123 6.1022854,47.09861 6.0846635,47.017931 6.0566382,46.559336 l -0.06242,-1.020161 1.0204799,-0.06263 c 0.4584888,-0.0276 0.5406538,-0.02017 0.8218617,0.07643 0.7865116,0.27176 2.0385183,1.609328 2.1168616,1.951152 0.1121016,0.490441 0.070169,1.147549 0.070169,1.147549 z M 118.93427,18.000122 118.77928,14.443888 c -0.0637,-1.437355 -0.0425,-1.695315 0.20701,-2.576412 0.18577,-0.652861 0.3811,-1.367292 0.87685,-1.82801 1.20805,-1.1220714 4.19848,-0.7346011 5.58488,-1.6581604 1.9968,-1.3311993 1.99786,-5.9022871 0.46178,-7.75471355 -1.6295,-1.96389045 -4.92247,1.15604155 -6.27278,2.94158955 -0.82802,1.0955324 -1.61357,2.3524223 -1.96601,3.8195016 -0.16348,0.6793999 -0.25478,1.4511558 -0.38216,2.1263095 l -0.62739,3.3078283 -2.06898,-2.633736 c -2.83225,-3.729269 -1.96814,-4.8386017 -6.13052,-5.8523938 -1.3949,-0.3397 -4.41855,-0.213374 -4.99975,1.3566768 -0.45488,1.2292893 0.61295,4.2165259 1.28184,4.925649 0.51432,0.545643 2.5969,1.900197 3.45782,1.982999 1.40551,0.13588 4.2781,-0.71974 4.2781,-0.71974 0,0 2.31845,3.336491 3.73458,4.903357 0.61783,0.683646 1.12844,1.234597 1.92142,1.249459 0.32697,0.0064 0.7983,-0.03397 0.7983,-0.03397 z m -11.12199,11.638971 0.11465,6.08806 c 1.03396,-1.075363 2.20168,-2.273867 3.29615,-3.360907 3.12524,-3.104008 18.84061,-15.581613 25.12931,-18.165456 0.59341,-0.244159 1.09234,-0.383224 1.27705,-0.0552 0.14756,0.261144 -1.3227,6.607165 0.52866,4.777031 0.51168,-0.506365 0.76114,-1.83438 1.14968,-2.984052 0.61889,-1.831195 1.59234,-3.209103 3.00846,-4.398053 6.90228,-5.7950689 8.9426,-4.0848918 9.73135,-9.2260387 0.33757,-2.19743421 0.0998,-2.69636855 -1.79617,-2.05518484 -2.09765,0.71018526 -5.10505,2.33119114 -8.41182,4.34179034 -3.87789,2.3587917 -24.21955,15.5678122 -34.02732,25.0380112 z M 60.481245,18.000122 60.325939,14.443888 c -0.06274,-1.437355 -0.04193,-1.695315 0.207641,-2.576412 0.185137,-0.652861 0.380676,-1.367292 0.87632,-1.82801 C 62.617852,8.9173946 65.608592,9.3048649 66.995204,8.3813056 68.991685,7.0501063 68.993171,2.4790185 67.456772,0.62659205 65.827592,-1.3372984 62.534095,1.7826336 61.18453,3.5681816 60.355662,4.663714 59.570849,5.9206039 59.217774,7.3876832 59.054187,8.0670831 58.963742,8.838839 58.835717,9.5139927 l -0.62664,3.3078283 -2.069198,-2.633736 c -2.83246,-3.729269 -1.968667,-4.8386017 -6.130735,-5.8523938 -1.394468,-0.3397 -4.418647,-0.213374 -4.999853,1.3566768 -0.454879,1.2292893 0.612946,4.2165259 1.281837,4.925649 0.514327,0.545643 2.597112,1.900197 3.457509,1.982999 1.405721,0.13588 4.278202,-0.71974 4.278202,-0.71974 0,0 2.318347,3.336491 3.734471,4.903357 0.617935,0.683646 1.128972,1.234597 1.921428,1.249459 0.327173,0.0064 0.798507,-0.03397 0.798507,-0.03397 z m -11.122308,11.638971 0.114861,6.08806 c 1.034068,-1.075363 2.201681,-2.273867 3.296152,-3.360907 3.125664,-3.104008 18.840503,-15.581613 25.129093,-18.165456 0.593838,-0.244159 1.092772,-0.383224 1.277696,-0.0552 0.14777,0.261144 -1.322919,6.607165 0.528552,4.777031 0.512098,-0.506365 0.761353,-1.83438 1.149885,-2.984052 0.618997,-1.831195 1.5916,-3.209103 3.008255,-4.398053 C 90.76571,5.7454461 92.806352,7.4556232 93.594774,2.3144763 93.93182,0.11704209 93.694561,-0.38189225 91.798292,0.25929146 89.700645,0.96947672 86.693769,2.5904826 83.386578,4.6010818 79.508796,6.9598735 59.167455,20.168894 49.358937,29.639093 z"
     style="fill:#000000;stroke:none" />
</svg>
