<?xml version="1.0" encoding="UTF-8" standalone="yes"?>
<svg>
<path
	style="stroke:none; fill:#000000"
	d="m 38.77054,9.41102 -5.21,5.175 c -0.866,0.86 -0.989,1.014 -1.231,1.544 -0.339,0.742 -0.457,1.982 -0.29,2.15 0.54,0.545 2.447,-0.777 3.111,-1.267 5.816,-4.288 8.465,-6.99 9.405,-12.543 0.478,-2.823 -1.016,-3.916 -3.661,-4.276 -4.196,-0.571 -8.36,0.013 -9.99,3.172 0.255,12.062 0.613,5.164 4.171,4.308 3.958,-0.952 8.215,-3.068 3.695,1.737 z m -15.358,53.752 4.313,0.801 0.804,-0.043 0.026,0.502 4.519,-0.236 0.028,0.536 c 0.013,0.24 0.162,0.297 1.498,0.562 1.762,0.35 7.424,1.935 6.761,3.301 -0.516,1.062 -5.249,2.691 -6.386,3.054 -9.401,3.003 -16.648,3.122 -24.247,-1.499 -2.737,-1.665 -3.55,-3.192 -4.424,-7.562 -0.314,-1.572 -0.486,-2.97 -0.238,-4.54 0.361,-2.281 1.611,-4.926 2.143,-7.151 0.251,-1.05 0.058,-1.162 -0.859,-1.008 -0.359,0.06 -0.458,0.206 -0.995,1.454 -1.567,3.646 -3.54,7.735 -5.112,10.745 -0.924,1.767 -1.259,2.643 -1.243,5.1 0.044,6.973 3.48,12.678 9.919,16.347 3.988,2.273 14.505,0.746 20.574,-1.33 4.428,-1.514 10.082,-4.467 12.286,-7.555 1.7,-2.381 5.496,-10.291 6.115,-12.745 0.3,-1.187 0.142,-1.71 -0.98,-2.767 -1.289,-1.214 -3.368,-2.357 -5.179,-2.749 -3.342,-0.724 -4.837,-0.134 -3.937,-2.149 1.144,-2.564 5.245,-7.705 5.794,-10.446 0.297,-1.479 -1.08,-7.698 -2.777,-9.763 -1.334,-1.623 -2.822,0.585 -4.361,3.249 -0.63,1.09 -1.047,1.763 -1.089,3.24 -0.07,2.424 0.871,7.013 0.871,7.013 0,0 -7.231,2.403 -10.414,4.065 -3.495,1.823 -5.815,5.771 -5.113,9.979 0.198,1.187 0.368,1.347 1.703,1.595 z m 66.342,-9.091 1.459,-3.404 -4.072,0.214 c -1.356,0.071 -1.617,0.072 -2.612,0.008 -3.146,-0.202 -2.844,-1.372 -5.899,-4.849 -4.14,-4.712 -10.045,-5.37 -14.244,-2.778 -1.227,0.758 -2.571,2.482 -3.066,3.937 -0.202,0.59 0.838,3.802 0.496,4.796 -0.118,0.342 3.513,-1.1 7.465,-0.678 5.042,0.539 9.381,0.809 9.161,1.018 -0.161,0.153 -1.967,0.75 -4.162,1.385 -21.965,3.026 -19.34,-6.794 -19.777,-20.042 -0.258,-7.817 -0.474,-21.952 -0.153,-24.441 0.103,-0.798 0.234,-1.518 0.27,-2.679 0.072,-2.366 -0.251,-6.559 -0.251,-6.559 0,0 -1.391,1.083 -2.409,2.063 -1.003,0.965 -2.688,4.591 -2.715,5.842 -0.05,2.324 0.406,5.146 0.419,7.999 0.013,2.711 -0.372,11.3 -0.57,14.188 -0.315,4.607 0.103,22.081 2.709,27.677 2.714,5.824 6.943,6.831 14.23,7.31 1.724,0.113 3.4,0.136 5.031,-0.264 3.216,-0.787 6.52,-3.239 9.865,-3.538 4.577,-0.408 5.459,0.888 6.539,-1.463 1.259,-2.737 1.802,-4.612 2.286,-5.742 z m 2.907,24.743 c -4.256,1.921 -5.19,2.343 -5.19,2.343 -1.237,0.558 -1.385,0.653 -1.479,0.952 -0.011,0.032 -0.02,0.064 -0.029,0.095 -0.043,0.148 -0.07,0.289 -0.082,0.424 -0.157,1.748 4.193,2.177 6.754,1.427 3.017,1.096 7.866,0.548 11.791,-0.511 8.824,-2.381 19.469,-8.883 25.368,-15.903 3.291,-3.915 6.622,-8.897 7.422,-13.562 0.197,-1.143 0.314,-2.27 0.376,-3.297 0.037,-0.633 0.057,-1.262 -0.095,-1.808 -0.256,-0.915 -0.995,-1.597 -1.168,-3.061 -0.054,-0.463 -0.052,-1.004 -0.052,-1.004 l 3.541,0.318 c 0,0 0.02,-1.29 -0.126,-2.41 -0.358,-2.732 -3.383,-5.966 -4.245,-8.941 -0.679,-2.34 -0.493,-4.92 -2.641,-3.89 -2.222,1.066 -6.433,6.877 -5.398,9.014 0.455,0.94 1.71,1.57 2.148,2.566 0.271,0.617 0.228,1.375 0.109,2.079 -0.169,0.999 -0.493,1.888 -0.539,3.169 -0.134,3.66 1.992,10.519 1.992,10.519 0,0 -2.326,1.613 -5.064,3.795 -5.542,4.418 -15.697,9.599 -22.393,12.773 l -11,4.913 z m 5.456,-24.371 c 0.891,0.109 1.751,0.043 2.556,-0.233 2.074,-0.71 4.799,-2.877 7.333,-3.358 1.064,-0.202 2.28,-0.039 2.189,1.608 -0.007,0.118 -0.02,0.236 -0.039,0.347 -0.284,1.715 -3.078,3.976 -4.274,4.906 -3.592,2.794 -17.432,10.519 -20.537,11.65 -8.283,3.017 -22.816,6.46 -24.262,7.817 -1.148,1.079 -0.738,2.211 0.898,2.722 2.094,0.655 5.22,1.236 8.429,1.43 11.138,0.674 28.188,-9.1 35.71,-16.761 3.626,-3.693 6.656,-7.782 8.12,-11.599 3.264,-8.517 2.393,-15.962 -6.423,-20.882 -2.07,-1.155 -4.394,-1.965 -5.88,-1.611 -3.659,0.871 -6.941,5.23 -8.238,8.069 -0.746,1.634 -1.297,4.481 -1.563,8.029 -0.205,2.736 0.517,4.544 1.393,5.691 1.346,1.763 2.765,1.952 4.588,2.175 z m 1.117,-13.242 c 0.787,-0.024 2.013,-0.028 2.828,0.126 0.809,0.153 1.214,0.461 1.741,0.837 0.711,0.506 0.792,0.602 0.811,0.963 l 0.042,0.804 -2.907,0.152 c -1.306,0.069 -1.511,0.061 -2.045,-0.08 -0.799,-0.211 -1.586,-0.778 -1.644,-1.035 -0.038,-0.171 -0.056,-0.416 -0.063,-0.641 -0.01,-0.332 0.923,-1.117 1.237,-1.126 z m 29.528,-23.612 c 0.142,-0.143 0.284,-0.28 0.427,-0.406 0.684,-0.604 0.982,-0.466 1.591,-0.09 1.556,0.964 1.522,-1.159 1.95,-2.963 0.366,-1.546 1.215,-2.717 1.798,-4.122 0.853,-2.057 1.545,-6.541 0.332,-8.074 -1.393,-1.76 -4.645,-2.323 -6.472,-1.674 -3.476,1.233 -6.33,6.297 -5.691,9.764 0.104,0.566 0.253,1.05 0.837,1.567 1,0.885 3.274,1.865 3.274,1.865 0,0 -3.601,1.784 -6.691,3.239 -6.527,3.073 -9.303,3.891 -10.917,6.812 -0.151,0.275 -0.325,0.612 -0.404,0.947 -0.014,0.057 -0.026,0.107 -0.038,0.151 -2.089,4.826 19.561,-6.569 20.004,-7.016 z m 1.27,-8.428 c -0.794,-0.434 -1.621,-1.032 -1.768,-1.147 -1.071,-0.845 -1.193,-0.979 -1.212,-1.34 l -0.042,-0.804 2.238,-0.117 c 1.005,-0.053 1.163,-0.049 1.585,0.034 0.474,0.093 0.858,0.272 1.156,0.561 1.217,2.148 0.404,2.892 -0.627,3.098 l -1.33,-0.285 z m -97.121,12.54 -5.351,5.351 5.351,5.351 5.351,-5.351 -5.351,-5.351 z m 53.034,8.892 -4.694,4.663 c -0.78,0.775 -0.891,0.914 -1.109,1.391 -0.306,0.668 -0.412,1.786 -0.261,1.938 0.486,0.49 2.205,-0.701 2.803,-1.142 5.24,-3.864 7.627,-6.298 8.474,-11.302 0.431,-2.543 -0.916,-3.527 -3.299,-3.852 -3.781,-0.515 -7.532,0.012 -9.001,2.858 0.229,10.867 0.552,4.653 3.758,3.881 3.567,-0.858 7.401,-2.764 3.329,1.565 z m -22.71,6.06 c -0.044,-1.192 -0.179,-2.688 -0.57,-3.064 -0.227,-0.219 -0.541,-0.06 -0.737,-0.178 -0.884,-0.531 0.62,-2.719 1.336,-3.556 6.504,-7.593 23.361,-17.019 32.267,-18.969 0.849,-0.186 1.697,-0.336 1.857,-0.049 0.08,0.143 -0.01,0.394 -0.147,0.677 -0.322,0.665 -0.836,1.471 -1.408,2.334 -11.861,17.91 6.848,-6.945 12.157,-7.643 0.485,-0.24 0.941,-0.433 1.346,-0.56 2.065,-0.651 4.303,-0.789 4.574,-2.769 0.038,-0.278 0.044,-0.624 0.035,-0.96 -0.091,-3.244 -5.385,-1.692 -9.115,-0.273 -3.453,1.313 -8.581,3.477 -14.02,5.994 -7.037,3.255 -28.108,13.029 -31.073,21.518 -0.955,2.735 -0.777,5.8 1.127,8.437 0.082,0.113 0.156,0.215 0.224,0.306 -0.86,-1.167 2.331,3.743 2.147,-1.245 z m 10.815,-19.35 -0.149,-3.419 c -0.061,-1.381 -0.041,-1.629 0.199,-2.476 0.178,-0.628 0.366,-1.315 0.843,-1.757 1.161,-1.079 4.036,-0.706 5.369,-1.595 1.919,-1.279 1.921,-5.673 0.444,-7.454 -1.566,-1.889 -4.733,1.111 -6.03,2.827 -0.797,1.054 -1.552,2.262 -1.891,3.672 -0.157,0.653 -0.244,1.395 -0.367,2.044 l -0.603,3.18 -1.989,-2.531 c -2.723,-3.586 -1.893,-4.652 -5.894,-5.627 -1.34,-0.327 -4.248,-0.205 -4.806,1.305 -0.438,1.181 0.589,4.053 1.232,4.735 0.494,0.525 2.497,1.826 3.324,1.906 1.351,0.131 4.113,-0.692 4.113,-0.692 0,0 2.228,3.208 3.59,4.714 0.594,0.658 1.085,1.187 1.847,1.202 0.315,0.006 0.768,-0.034 0.768,-0.034 z"/>
</svg>