<?xml version="1.0" encoding="UTF-8" standalone="yes"?>
<svg>
<path
	style="stroke:none; fill:#000000"
	d="m 36.897692,36.769429 0.543,-0.01 c 0.245,-0.004 0.31,-0.153 0.656,-1.487 1.987,-7.67 2.349,-11.906 -2.539,-16.826 -0.804,-0.81 -1.742,-1.49 -2.346,-0.764 -0.41,0.493 -0.829,3.971 -0.642,4.73 0.327,1.328 1.296,1.759 2.414,2.661 2.527,2.037 3.16,3.565 2.838,6.278 -0.246,2.082 -0.924,5.418 -0.924,5.418 z m 24.066,-27.0470003 c 0.158,2.1790003 1.174,3.5340003 3.024,3.9250003 2.386,0.505 3.735,-0.789 4.347,-3.406 0.134,-0.5750003 0.104,-1.0530003 -0.266,-1.2840003 -0.703,-0.439 -2.633,0.017 -3.567,-0.479 -1.161,-0.617 -1.456,-3.238 -1.168,-4.464 0.287,-1.227 1.02,-2.54 1.219,-3.48600003 0.041,-0.191 0.059,-0.368 -0.024,-0.466 -0.011,-0.012 -0.021,-0.024 -0.032,-0.035 -2.808,-0.64 -3.491,10.28300033 -3.533,9.69500003 z m 29.914,6.0470003 -0.137,-3.116 c -0.054,-1.259 -0.036,-1.485 0.182,-2.256 0.163,-0.5730003 0.334,-1.1990003 0.768,-1.6020003 1.058,-0.983 3.678,-0.643 4.893,-1.453 1.749,-1.166 1.751,-5.17 0.405,-6.79300003 -1.428,-1.72099997 -4.313,1.01200003 -5.495,2.57600003 -0.727,0.961 -1.414,2.062 -1.723,3.347 -0.144,0.595 -0.223,1.271 -0.335,1.863 l -0.549,2.8980003 -1.813,-2.3070003 c -2.481,-3.268 -1.725,-4.239 -5.371,-5.128 -1.222,-0.298 -3.871,-0.186 -4.38,1.189 -0.399,1.076 0.537,3.694 1.123,4.315 0.45,0.478 2.275,1.6640003 3.029,1.7370003 1.231,0.119 3.748,-0.631 3.748,-0.631 0,0 2.031,2.924 3.272,4.297 0.541,0.599 0.989,1.081 1.683,1.094 0.286,0.006 0.7,-0.03 0.7,-0.03 z m -6.831,1.25 c -2.358,2.012 -4.126,4.066 -4.817,6.043 -0.871,2.493 -0.709,5.286 1.027,7.688 0.074,0.103 0.142,0.196 0.203,0.28 -0.783,-1.064 2.125,3.41 1.957,-1.135 -0.04,-1.086 -0.163,-2.45 -0.519,-2.793 -0.207,-0.198 -0.493,-0.054 -0.672,-0.162 -0.805,-0.483 0.565,-2.478 1.218,-3.24 1.73,-2.02 4.265,-4.182 7.188,-6.276 3.442,-2.465 6.044,-4.1 9.975,-5.683 2.073998,-0.835 3.989998,-1.464 5.615998,-1.8200003 0.774,-0.17 1.547,-0.306 1.693,-0.045 0.073,0.1300003 -0.009,0.3590003 -0.134,0.6170003 -0.293,0.607 -0.763,1.341 -1.284,2.127 -10.807998,16.322 6.241,-6.3290003 11.079,-6.9650003 0.443,-0.219 0.858,-0.395 1.226,-0.511 1.883,-0.592 3.922,-0.718 4.169,-2.523 0.035,-0.253 0.04,-0.568 0.031,-0.875 -0.076,-2.763 -4.297,-1.70800003 -7.624,-0.502 -5.893,2.136 -11.189,4.49 -15.357998,6.516 -1.611,0.783 -9.391,4.4950003 -14.974,9.2590003 z m 26.318998,0.162 -0.528,5.543 c 1.661,-1.732 3.844,-3.54 6.301,-5.3 2.183,-1.564 4.029,-2.794 6.091,-3.888 4.756,-2.525 19.512,-7.2420003 24.527,-9.0990003 0.902,-0.334 1.586,-0.819 1.722,-1.816 0.035,-0.253 0.04,-0.568 0.032,-0.875 -0.077,-2.763 -4.298,-1.70800003 -7.625,-0.502 -5.893,2.136 -11.189,4.49 -15.358,6.516 -1.611,0.783 -9.391,4.4950003 -14.974,9.2590003 -0.063,0.054 -0.126,0.108 -0.188,0.162 z m 22.318,16.251 0.543,-0.01 c 0.245,-0.004 0.31,-0.153 0.656,-1.486 1.987,-7.671 2.35,-11.907 -2.538,-16.827 -0.805,-0.81 -1.743,-1.49 -2.347,-0.764 -0.41,0.493 -0.829,3.971 -0.642,4.73 0.327,1.328 1.296,1.759 2.414,2.661 2.527,2.037 3.16,3.565 2.838,6.278 -0.246,2.082 -0.924,5.418 -0.924,5.418 z m -63.323998,34.64 c -0.354,2.208 0.076,2.75 1.544,2.073 1,-0.462 13.896,-7.964 15.78,-10.21 0.759,-0.905 1.515,-2.505 1.782,-3.945 0.165,-0.887 -0.101,-0.855 -1.056,-0.501 -2.214,0.823 -16.804,9.705 -17.262,10.508 -0.427,0.75 -0.7,1.527 -0.788,2.075 z m -30.665,-55.257 c -0.354,2.208 0.076,2.75 1.544,2.073 1,-0.462 13.896,-7.9640003 15.78,-10.2100003 0.759,-0.905 1.515,-2.505 1.782,-3.94500003 0.165,-0.887 -0.101,-0.856 -1.056,-0.501 -2.213,0.82300003 -16.804,9.70500003 -17.262,10.50800033 -0.427,0.75 -0.7,1.527 -0.788,2.075 z m -5.492,54.088 3.515,3.515 4.874,-4.874 -4.874,-4.875 -3.515,3.515 -3.515,-3.515 -4.875,4.875 4.875,4.874 3.515,-3.515 z m 72.047998,-3.722 c 2.596,-2.113 5.342,-4.132 7.246,-1.527 1.703,2.331 1.277,4.18 4.622,2.572 0.87,-0.418 1.603,-0.918 2.282,-1.326 l 2.422,-1.454 2.949,2.021 c 1.353,0.928 2.015,1.684 3.248,0.426 1.88,-1.918 2.241,-3.377 1.879,-5.951 -0.216,-1.536 -0.664,-3.368 -1.864,-2.8 -0.567,0.269 -1.017,1.135 -1.181,2.007 -0.241,1.28 0.001,2.414 -1.152,2.124 -0.695,-0.174 -1.13,-0.425 -1.462,-0.656 l -1.285,-0.892 -1.423,0.908 c -0.685,0.437 -1.424,1.023 -2.159,1.416 -1.072,0.575 -2.805,1.06 -3.376,0.699 -0.651,-0.411 -0.927,-1.738 -1.557,-2.604 -1.795,-2.469 -5.113,-1.196 -7.31,0.598 -1.006,0.821 -1.791,1.77 -2.783,2.515 -2.8,2.1 -9.268998,3.929 -13.016998,4.619 -4.871,0.896 -2.53,1.421 0.367,1.692 0.396,0.037 0.785,0.062 1.165,0.076 6.188,0.221 9.199998,-1.866 12.388998,-4.463 z m -3.343,-30.124 c 0,0 -0.043,0.454 -0.191,0.865 -0.607,1.687 -2.485998,2.521 -2.813998,2.47 -0.706,-0.11 -2.973,-2.26 -3.089,-2.931 -0.056,-0.324 -0.017,-0.651 -0.017,-0.651 l 6.110998,0.247 z m -25.386998,3.922 -2.168,-30.4670003 -1.355,-5.286 c -0.273,-1.06400003 -0.34,-1.18500003 -0.668,-1.21400003 -0.704,-0.062 -0.968,0.118 -1.187,0.479 -2.924,4.83500003 -0.197,10.08600033 1.007,15.11300033 0.968,4.042 1.03,24.818 1.963,28.363 1.189,4.516 3.407,7.311 8.265,7.915 2.486,0.309 6.231,-1.225 8.877,-3.015 2.085,-1.412 5.695,-4.504 5.695,-4.504 0,0 1.151,1.45 2.03,2.475 3.216998,3.754 7.534998,4.325 12.587998,3.873 1.927,-0.172 4.371,-0.763 5.819,-1.577 1.582,-0.889 2.369,-1.744 3.652,-1.305 1.193,0.41 2.169,1.944 3.568,2.541 1.458,0.621 4.403,0.25 5.816,-0.763 0.938,-0.673 2.411,-2.119 2.411,-2.119 0,0 1.482,1.643 2.625,2.659 2.072,1.84 5.299,2.865 6.828,2.004 1.228,-0.693 5.03,-7.095 5.458,-9.306 0.481,-2.478 -1.453,-8.744 -2.743,-11.527 -0.796,-1.716 -1.848,-1.431 -2.842,0.278 -2.994,5.15 -1.055,5.24 0.689,10.767 0.609,1.929 0.976,3.029 -0.5,2.658 -2.318,-0.582 -4.565,-2.716 -6.294,-4.959 -1.016,-1.318 -1.558,0.362 -2.988,1.743 -2.009,1.941 -5.377,1.333 -7.529,-0.006 -0.66,-0.411 -1.317,-0.909 -1.651,-1.528 -0.382,-0.707 -0.336,-0.913 -1.151,-0.653 -1.793,0.573 -3.897,2.244 -5.926,3.02 -1.454,0.556 -8.805,0.787 -11.398,-0.109 -1.577,-0.545 -3.895,-1.869 -3.895,-1.869 0,0 1.867,-1.591 3.371,-2.594 0.802,-0.534 5.444,-2.755 7.511,-2.686 0.862,0.028 1.004,-0.082 1.418,-1.101 1.54,-3.783 2.699,-6.061 0.962,-7.053 -1.146,-0.654 -6.558,-1.783 -9.535,-1.989 -4.601,-0.317 -12.619998,0.212 -17.713998,2.703 -1.055,0.516 -1.549,0.971 -1.969,2.493 -0.592,2.146 -1.002,6.267 -1.002,6.267 0,0 3.777,0.516 6.513,2.135 1.473,0.873 2.659,2.067 2.659,2.067 0,0 -3.174,1.677 -4.982,2.471 -3.371,1.48 -8.027,1.119 -10.43,-1.966 -0.125,-0.16 -1.427,-2.017 -1.612,-2.791 -0.09,-0.377 -0.108,-0.541 -0.186,-1.637 z m -30.118,12.637 c 1.372,-2.147 2.556,-5.932 2.732,-7.289 0.195,-1.507 0.12,-3.033 -0.343,-4.388 -0.062,-0.182 -0.131,-0.361 -0.24,-0.518 -0.146,-0.212 -0.2,-0.351 -0.543,-1.395 0,0 -2.167,-6.589 -2.167,-6.589 0,0 -0.929,1.803 -1.505,3.085 -1.758,3.91 -0.106,8.694 1.633,10.775 0.218,0.262 0.217,0.711 -0.039,1.01 -1.349,1.582 -8.393,1.739 -9.969,1.599 -4.399,-0.391 -6.061,-1.533 -7.832,-5.341 -0.231,-0.496 -0.454,-1.035 -0.542,-1.591 -0.119,-0.75 -0.135,-0.941 -0.16,-1.917 0,0 -0.057,-2.17 -0.057,-2.17 0,0 -0.888,-0.085 -1.727,-0.041 -2.443,0.127 -6.274,7.084 -7.033,8.964 -0.116,0.288 -0.23,0.581 -0.344,0.88 -0.389,1.023 -3.516,11.934 -5.749,13.58 -3.6959997,2.726 -6.7549997,-2.889 -8.3979997,-6.257 -2.17,-4.446 -3.58699997,-19.071 -3.74999997,-15.499 -0.087,1.906 -0.345,7.558 -0.345,7.558 -0.05,1.097 -0.035,1.339 0.148,2.423 1.22699997,7.245 2.19799997,11.919 5.90899997,17.35 2.395,3.506 6.2149997,4.035 8.4309997,0.681 1.474,-2.23 2.265,-6.886 3.587,-10.675 0.997,-2.858 3.781,-9.69 6.84,-10.761 0.882,-0.308 0.751,0.231 0.681,1.321 -0.241,3.802 3.796,8.35 7.361,8.846 0.009,10e-4 0.017,0.003 0.025,0.004 0.413,0.057 0.704,0.094 0.966,0.117 5.716,0.501 9.087,1.467 12.43,-3.762 z m -1.262,9.018 -2.527,-4.295 0.17,6.523 0.034,1.303 c 0.029,1.098 0.055,1.328 0.254,2.301 0.714,3.485 3.497,5.682 6.473,5.922 4.059,0.328 8.125,-2.102 11.689,-4.583 6.173,-4.295 9.401,-8.707 11.196,-15.325 0.109,-0.405 0.175,-0.682 0.179,-0.719 0.426,-3.762 -3.368,-7.422 -6.348,-9.316 -1.988,-1.263 -4.93,-2.876 -4.93,-2.876 0,0 0.353,-10e-4 0.845,-0.027 6.094,-2.558 5.323,-1.23 3.255,-2.023 -2.195,-0.842 -7.561,-5.035 -8.852,-6.627 -0.747,-0.922 -2.097,-2.587 -2.097,-2.587 l -1.656,3.633 c -0.908,1.991 -0.801,5.472 0.138,7.803 1.868,4.642 7.93,7.423 12.218,10.553 1.096,0.799 4.32,3.243 3.848,4.654 -0.154,0.46 -0.66,0.875 -1.187,1.293 -6.873,5.454 -16.95,12.724 -22.115,5.311 -0.192,-0.277 -0.393,-0.588 -0.587,-0.918 z"/>
</svg>