<?xml version="1.0" encoding="UTF-8" standalone="yes"?>
<svg>
<path
	style="stroke:none; fill:#000000"
	d="M 10.697567,39.299858 C 9.6431671,38.739858 7.4318671,39.898858 5.9162671,40.065858 C 5.7766671,40.081858 5.6298671,40.083858 5.4782671,40.074858 C 0.18126711,39.741858 2.7394671,31.219858 3.4231671,27.953858 C 3.4968671,27.601858 3.5621671,27.298858 3.6147671,27.060858 C 4.3964671,23.526858 -2.1553329,32.755858 0.74596711,41.137858 C 1.6637671,43.789858 4.0531671,45.023858 6.7491671,44.855858 C 7.0478671,44.837858 7.3127671,44.785858 7.5358671,44.680858 C 8.2442671,44.347858 8.5318671,43.482858 9.5415671,41.991858 C 10.243267,40.954858 11.038067,39.480858 10.697567,39.299858 z M 88.359967,58.982858 L 89.732967,60.718858 C 91.603967,63.083858 97.454967,63.581858 100.08997,61.271858 C 100.35597,61.038858 100.61497,60.807858 100.86497,60.590858 L 103.39697,58.382858 L 107.48897,62.800858 C 108.87497,64.296858 111.40697,66.632858 113.51897,66.229858 C 113.89197,66.158858 114.00997,66.056858 114.70097,65.209858 C 118.98697,59.949858 119.82497,59.197858 119.61397,53.391858 C 119.42997,48.315858 117.48397,39.812858 117.48397,39.812858 C 117.48397,39.812858 117.00497,39.758858 116.58397,39.866858 C 114.96897,40.279858 112.88997,45.594858 112.86797,45.793858 C 112.59097,48.364858 114.53797,57.548858 114.53797,57.548858 C 114.53797,57.548858 113.95897,57.493858 113.41097,57.377858 C 112.62597,57.211858 107.75497,52.788858 107.38797,51.907858 C 106.04197,48.682858 106.09397,49.532858 103.77597,52.622858 C 101.13497,56.143858 95.848967,56.809858 93.457967,53.238858 C 92.749967,52.180858 91.718967,50.299858 91.718967,50.299858 C 91.718967,50.299858 88.591967,53.280858 86.565967,54.720858 C 83.553967,56.859858 76.725967,57.952858 73.116967,56.807858 C 70.957967,56.122858 67.723967,54.400858 67.723967,54.400858 C 67.723967,54.400858 68.280967,53.881858 68.822967,53.423858 C 70.198967,52.258858 75.253967,50.026858 78.537967,48.503858 C 79.476967,48.067858 79.605967,47.894858 79.822967,46.765858 L 81.079967,40.227858 C 81.079967,40.227858 79.627967,39.741858 78.333967,39.364858 C 71.056967,37.243858 48.672967,37.786858 44.251967,41.267858 C 43.739967,41.670858 42.879967,44.647858 42.893967,45.967858 C 42.913967,47.751858 43.091967,50.246858 43.091967,50.246858 L 46.756967,49.700858 C 47.762967,49.549858 47.979967,49.535858 48.922967,49.558858 C 49.791967,49.579858 52.345967,50.402858 54.388967,51.403858 C 55.341967,51.870858 55.984967,52.332858 56.380967,52.784858 L 58.368967,55.055858 L 52.934967,57.385858 C 51.209967,58.079858 50.101967,58.413858 49.444967,58.580858 C 47.711967,59.021858 46.005967,59.235858 44.629967,59.149858 C 39.934967,58.856858 35.049967,56.572858 32.456967,52.166858 C 30.692967,49.168858 28.222967,39.908858 27.601967,36.608858 C 26.353967,29.978858 25.582967,22.107858 19.429967,18.465858 C 18.623967,17.988858 17.423967,17.547858 16.773967,17.981858 C 16.030967,18.476858 16.196967,23.310858 16.337967,24.860858 C 16.749967,29.380858 18.130967,30.277858 20.788967,33.685858 C 23.056967,36.593858 24.256967,40.017858 25.101967,43.602858 C 25.588967,45.669858 25.888967,51.277858 25.571967,52.385858 C 24.885967,54.785858 20.508967,59.880858 17.673967,62.042858 C 14.688967,64.318858 11.739767,65.867858 8.7568671,64.501858 C 6.6530671,63.538858 5.2895671,62.274858 4.4474671,60.774858 C 2.0565671,56.513858 3.9826671,51.112858 4.0988671,46.621858 C 4.1380671,45.108858 4.1600671,43.877858 3.0267671,47.677858 C 2.0838671,50.838858 0.31396711,62.389858 1.3150671,66.307858 C 2.4948671,70.925858 7.1876671,73.612858 11.316567,72.701858 C 14.395967,72.021858 16.646967,70.225858 19.083967,68.168858 C 19.949967,67.437858 21.796967,65.384858 23.473967,63.382858 C 28.303967,57.618858 26.775967,53.161858 32.318967,61.649858 C 34.333967,64.734858 39.357967,67.021858 42.744967,67.399858 C 47.145967,67.891858 52.456967,65.290858 55.895967,62.760858 C 58.200967,61.064858 61.221967,58.624858 61.221967,58.624858 C 61.221967,58.624858 63.589967,60.648858 65.453967,61.976858 C 70.505967,65.574858 80.193967,66.462858 85.576967,61.846858 C 85.958967,61.518858 86.328967,61.145858 86.678967,60.772858 L 88.359967,58.982858 z M 65.599967,48.568858 C 64.291967,49.615858 63.957967,50.171858 63.300967,49.763858 C 62.807967,49.456858 61.952967,48.606858 61.609967,47.479858 C 61.427967,46.882858 61.338967,46.160858 61.338967,46.160858 C 61.338967,46.160858 62.725967,46.176858 64.228967,46.193858 C 66.827967,46.223858 69.475967,45.466858 65.599967,48.568858 z M 41.312967,76.344858 C 45.466967,77.403858 48.398967,78.184858 51.136967,77.614858 C 54.432967,76.927858 59.427967,74.491858 62.544967,73.468858 C 63.080967,73.292858 63.560967,73.158858 63.967967,73.382858 C 64.583967,73.722858 65.033967,74.880858 65.669967,75.452858 C 67.312967,76.929858 71.154967,75.382858 73.152967,74.576858 C 73.581967,74.403858 73.958967,74.256858 74.354967,74.339858 C 75.333967,74.542858 76.428967,76.148858 77.323967,76.530858 C 79.088967,77.285858 80.749967,73.230858 80.922967,70.930858 C 80.974967,70.233858 80.705967,69.536858 79.931967,68.985858 C 78.918967,68.266858 79.080967,70.355858 77.757967,71.597858 C 76.938967,72.366858 76.161967,70.943858 75.175967,70.735858 C 74.129967,70.514858 72.773967,72.079858 71.397967,72.541858 C 70.470967,72.853858 68.298967,72.703858 67.587967,72.178858 C 66.752967,71.559858 66.259967,70.088858 65.524967,69.734858 C 64.720967,69.346858 60.887967,71.212858 59.669967,71.932858 C 58.951967,72.356858 58.322967,72.816858 57.635967,73.170858 C 54.764967,74.650858 47.566967,75.320858 45.055967,74.913858 C 41.657967,74.361858 36.857967,73.470858 36.635967,73.838858 C 36.013967,74.872858 38.800967,75.704858 41.312967,76.344858 z M 88.753967,36.686858 C 88.916967,38.927858 89.961967,40.321858 91.863967,40.723858 C 94.316967,41.241858 95.703967,39.911858 96.332967,37.220858 C 96.470967,36.630858 96.439967,36.138858 96.059967,35.900858 C 95.336967,35.449858 93.351967,35.917858 92.392967,35.408858 C 91.198967,34.774858 90.895967,32.078858 91.190967,30.818858 C 91.485967,29.557858 92.239967,28.206858 92.444967,27.234858 C 92.486967,27.037858 92.505967,26.855858 92.419967,26.754858 C 92.408967,26.742858 92.397967,26.730858 92.386967,26.718858 C 89.499967,26.060858 88.797967,37.291858 88.753967,36.686858 z M 11.138967,8.8178583 L 6.2575671,13.666858 C 5.4463671,14.472858 5.3310671,14.616858 5.1040671,15.113858 C 4.7862671,15.808858 4.6762671,16.970858 4.8324671,17.127858 C 5.3380671,17.638858 7.1256671,16.399858 7.7478671,15.940858 C 13.196767,11.922858 15.678967,9.3918583 16.559967,4.1878583 C 17.007967,1.5428583 15.606967,0.51985832 13.129267,0.18185832 C 9.1978671,-0.35314168 5.2964671,0.19385832 3.7692671,3.1538583 C 4.0076671,14.454858 4.3433671,7.9928583 7.6772671,7.1908583 C 11.386167,6.2978583 15.373967,4.3158583 11.138967,8.8178583 z M 35.692967,34.343858 C 35.651967,33.227858 35.525967,31.825858 35.158967,31.472858 C 34.946967,31.268858 34.652967,31.416858 34.468967,31.305858 C 33.639967,30.808858 35.049967,28.757858 35.720967,27.974858 C 41.814967,20.860858 57.609967,12.027858 65.953967,10.200858 C 66.749967,10.026858 67.544967,9.8858583 67.694967,10.154858 C 67.769967,10.288858 67.684967,10.523858 67.556967,10.789858 C 67.254967,11.412858 66.772967,12.167858 66.236967,12.976858 C 55.123967,29.757858 72.653967,6.4688583 77.627967,5.8148583 C 78.082967,5.5898583 78.509967,5.4088583 78.888967,5.2898583 C 80.824967,4.6798583 82.920967,4.5508583 83.175967,2.6958583 C 83.210967,2.4348583 83.215967,2.1108583 83.207967,1.7958583 C 83.122967,-1.2441417 78.162967,0.21085832 74.666967,1.5398583 C 71.431967,2.7708583 66.626967,4.7988583 61.530967,7.1558583 C 54.936967,10.206858 35.194967,19.364858 32.415967,27.318858 C 31.520967,29.881858 31.687967,32.752858 33.471967,35.223858 C 33.548967,35.329858 33.617967,35.424858 33.681967,35.510858 C 32.875967,34.416858 35.865967,39.016858 35.692967,34.343858 z M 56.414967,39.112858 L 56.973967,39.102858 C 57.224967,39.098858 57.291967,38.945858 57.647967,37.573858 C 59.689967,29.686858 60.063967,25.330858 55.037967,20.272858 C 54.209967,19.439858 53.245967,18.740858 52.624967,19.487858 C 52.202967,19.994858 51.772967,23.569858 51.964967,24.350858 C 52.300967,25.715858 53.296967,26.159858 54.446967,27.086858 C 57.044967,29.180858 57.695967,30.751858 57.365967,33.541858 C 57.111967,35.682858 56.414967,39.112858 56.414967,39.112858 z M 43.255967,16.213858 L 43.115967,13.010858 C 43.059967,11.715858 43.077967,11.483858 43.302967,10.689858 C 43.469967,10.101858 43.645967,9.4578583 44.091967,9.0428583 C 45.180967,8.0328583 47.874967,8.3818583 49.123967,7.5498583 C 50.921967,6.3508583 50.922967,2.2338583 49.538967,0.56485832 C 48.071967,-1.2051417 45.104967,1.6058583 43.889967,3.2138583 C 43.142967,4.2018583 42.435967,5.3328583 42.117967,6.6538583 C 41.969967,7.2668583 41.888967,7.9618583 41.773967,8.5698583 L 41.208967,11.549858 L 39.344967,9.1778583 C 36.793967,5.8178583 37.571967,4.8188583 33.822967,3.9048583 C 32.566967,3.5988583 29.842967,3.7138583 29.318967,5.1278583 C 28.908967,6.2348583 29.870967,8.9258583 30.473967,9.5648583 C 30.936967,10.056858 32.812967,11.275858 33.587967,11.350858 C 34.854967,11.472858 37.441967,10.701858 37.441967,10.701858 C 37.441967,10.701858 39.529967,13.707858 40.805967,15.119858 C 41.361967,15.735858 41.822967,16.231858 42.536967,16.244858 C 42.830967,16.250858 43.255967,16.213858 43.255967,16.213858 z M 78.999967,34.343858 C 78.957967,33.227858 78.831967,31.825858 78.464967,31.472858 C 78.252967,31.268858 77.958967,31.416858 77.774967,31.305858 C 76.946967,30.808858 78.355967,28.757858 79.026967,27.974858 C 85.120967,20.860858 100.91597,12.027858 109.25997,10.200858 C 110.05597,10.026858 110.85097,9.8858583 111.00097,10.154858 C 111.07597,10.288858 110.99097,10.523858 110.86297,10.789858 C 110.56097,11.412858 110.07897,12.167858 109.54297,12.976858 C 98.429967,29.757858 115.95997,6.4688583 120.93397,5.8148583 C 121.38897,5.5898583 121.81597,5.4088583 122.19497,5.2898583 C 124.13097,4.6798583 126.22697,4.5508583 126.48197,2.6958583 C 126.51697,2.4348583 126.52297,2.1108583 126.51397,1.7958583 C 126.42897,-1.2441417 121.46897,0.21085832 117.97297,1.5398583 C 114.73797,2.7708583 109.93297,4.7988583 104.83697,7.1558583 C 98.242967,10.206858 78.500967,19.364858 75.721967,27.318858 C 74.826967,29.881858 74.993967,32.752858 76.777967,35.223858 C 76.854967,35.329858 76.923967,35.424858 76.987967,35.510858 C 76.181967,34.416858 79.171967,39.016858 78.999967,34.343858 z M 107.26197,40.569858 L 107.82097,40.559858 C 108.07197,40.554858 108.13997,40.402858 108.49497,39.030858 C 110.53797,31.143858 110.91097,26.787858 105.88497,21.729858 C 105.05797,20.896858 104.09297,20.197858 103.47197,20.944858 C 103.05097,21.451858 102.61997,25.026858 102.81197,25.807858 C 103.14897,27.172858 104.14397,27.616858 105.29497,28.543858 C 107.89197,30.637858 108.54297,32.208858 108.21297,34.998858 C 107.95897,37.138858 107.26197,40.569858 107.26197,40.569858 zz"/>
</svg>