<?xml version="1.0" encoding="UTF-8" standalone="yes"?>
<svg>
  <path
    style="stroke:none; fill:#000000"
    d="m 59.17563,33.95101 c -2.747,0 -5.68,-10e-4 -5.892,-0.005 -3.715,-0.076 -4.885,-1.309 -5.59,-4.087 -0.975,-3.843 -0.671,-5.177 -3.44,-4.461 -0.984,0.254 -2.085,0.668 -3.064,1.413 -2.043,1.555 -3.559,4.551 -5.66,6.262 -3.303,2.692 -6.663,2.63 -11.466,4.208 -2.194,0.721 -2.775,1.697 -2.828,5.407 -0.018,1.244 0.024,2.791 0.024,2.791 0,0 3.788,-0.877 5.948,-1.036 1.106,-0.082 4.015,0.478 5.753,1.58 0.94,0.595 1.045,0.694 1.047,0.989 l 0.006,0.658 -6.823,-0.288 c -1.109,-0.047 -1.322,-0.062 -2.131,-0.15 -2.108,-0.228 -5.122,-2.127 -6.071,-3.128 -4.266,-4.501 -3.51,-11.13 -3.469,-17.741 l -0.54,-11.108 c -0.329,-4.73 -0.716,-12.407 -1.195,-13.475 -0.391,-0.872 -0.886,-1.762 -0.886,-1.762 0,0 -1.459,2.398 -2.066,3.899 -0.173,0.427 -0.536,1.866 -0.264,2.564 0.074,0.189 0.089,0.334 0.142,1.441 0,0 0.442,9.138 0.442,9.138 0,0 -0.076,0.007 -0.202,0.016 l 1.64,13.807 c 0.251,5.808 0.623,13.875 1.076,15.321 1.974,6.299 5.996,8.387 13.012,8.308 7.553,-0.085 20.669,-1.207 20.669,-1.207 l 2.472,-7.416 -3.095,0.027 c -1.109,0.01 -1.303,-10e-4 -1.938,-0.111 -1.985,-0.34 -4.723,-2.349 -5.476,-3.111 -1.361,-1.377 -3.636,-3.841 -3.636,-3.841 0,0 2.012,-3.079 3.562,-4.58 0.663,-0.64 2.471,-1.66 3.778,-1.522 0.411,0.043 0.486,0.168 0.746,1.248 1.033,4.297 1.751,6.274 4.64,7.025 3.225,0.838 16.913,1.493 17.902,-3.337 1.129,-1.823 2.509,-4.335 2.968,-5.513 0.746,-1.914 -0.211,-16.895 -0.223,-18.292 -0.006,-0.659 -0.009,-1.025 -0.009,-1.025 0,0 0.336,0.026 0.723,0.084 3.794,1.65 3.865,2.154 3.27,0.934 -2.241,-4.591 -2.461,-8.598 -2.744,-13.351 -0.032,-0.536 -0.267,-0.642 -1.114,-0.402 -2.773,0.785 -5.832,2.651 -4.538,5.45 0.252,0.544 0.704,0.987 0.861,1.565 0.244,0.899 -0.223,2.124 -0.042,3.26 0.115,0.719 0.489,1.403 0.588,2.017 0.074,0.467 -0.041,1.409 -0.399,2.108 -0.255,0.498 -0.279,0.676 -0.245,1.785 l 0.533,17.117 -6.772,0.416 0.016,0.111 z m 0.796,15.346 c 0.478,0.279 0.99,0.519 1.529,0.715 1.948,0.71 8.081,0.715 10.005,-0.08 0.917,-0.379 1.772,-0.942 2.57,-1.424 l 2.387,-1.44 2.233,1.724 c 1.512,1.058 6.358,0.563 8.479,-0.465 l 1.585,-0.737 2.238,1.017 c 0.164,0.075 0.327,0.154 0.485,0.236 2.693,1.405 4.105,1.8 8.647,0.819 0.605,-0.131 1.168,-0.297 1.627,-0.507 0.556,-0.255 2.765,-5.427 2.884,-6.749 0.226,-2.53 0.578,-5.265 -1.092,-7.393 -0.655,-0.835 -1.413,-0.56 -2.05,0.429 -1.069,1.659 -1.968,4.393 -1.385,6.042 0.381,1.078 1.255,2.585 1.255,2.585 0,0 -0.696,0.035 -1.315,0.012 -1.716,-0.066 -3.34,-0.852 -4.859,-1.395 -0.483,-0.173 -0.997,-0.323 -1.436,-0.604 -0.593,-0.379 -0.632,-0.528 -0.399,-1.496 0.174,-0.717 0.397,-1.805 0.154,-2.199 -0.788,-1.28 -4.783,3.872 -4.895,3.945 -1.501,0.98 -4.771,0.751 -6.572,0.057 -0.923,-0.355 -1.791,-1.087 -1.828,-1.68 -0.07,-1.099 1.749,-3.325 -0.811,-2.199 -1.248,0.549 -2.272,2.158 -3.53,3.112 -2.951,2.238 -8.978,2.295 -12.772,0.822 -5.342,-2.075 -4.921,-8.828 -5.072,-12.992 -0.087,-2.424 -0.942,-26.076 -0.942,-26.076 -0.04,-1.109 -0.057,-1.297 -0.173,-1.879 -0.174,-0.874 -0.565,-1.812 -1.286,-1.394 -0.682,0.395 -2.115,4.025 -2.174,4.786 -0.068,0.886 -0.067,1.107 0.012,2.214 0,0 0.855,12.006 1.382,19.393 1.379,19.354 0.517,20.117 5.119,22.801 z m -12.207,-37.974 0.184,-2.451 c 0.083,-1.106 0.082,-1.346 -0.002,-2.398 -0.162,-2.002 -1.729,-5.806 -2.683,-6.365 -0.769,-0.45 -1.444,0.541 -1.789,2.152 -0.355,1.661 0.558,2.751 1.689,5.243 1.514,3.335 0.872,5.898 0.253,11.157 -0.13,1.102 -0.076,1.258 0.54,1.554 1.518,0.73 3.117,0.701 3.631,-0.015 0.983,-1.368 1.747,-3.716 1.399,-4.531 -0.07,-0.162 -1.848,-2.308 -2.777,-2.821 -0.483,-0.267 -0.528,-0.419 -0.445,-1.525 z m 29.479,11.696 c 4.83,-4.894 15.595,-10.941 20.841,-14.278 0.316,-0.201 0.59,-0.378 1.229,-0.422 0.022,-0.001 0.044,-0.003 0.067,-0.004 0.628,0.313 0.707,1.112 0.639,1.908 -0.272,4.275 0,3.727 0.639,2.274 0.891,-2.027 3.359,-5.596 5.298,-6.975 1.484,-1.057 3.369,-1.657 3.572,-3.536 0.087,-0.808 -0.017,-1.972 -0.017,-1.972 0,0 -0.873,-0.04 -1.644,0.015 -1.082,0.076 -4.272,1.65 -5.931,2.927 -4.834,3.721 -12.982,7.185 -18.512,11.151 -3.424,2.456 -7.486,5.243 -8.433,7.981 -0.168,0.484 -1.59,5.757 -0.969,6.721 0.466,0.722 4.016,2.056 4.546,1.688 0.373,-0.26 0.818,-1.153 0.96,-1.757 0.53,-2.266 -0.655,-3.077 -1.66,-3.331 -3.006,-0.758 -1.061,-1.948 -0.625,-2.39 z m 8.987,-15.035 -0.008,-0.934 2.957,-0.026 c 1.109,-0.009 1.265,-0.09 1.565,-0.803 0.222,-0.529 0.331,-0.981 0.385,-1.67 0.128,-1.614 -0.039,-4.527 -0.039,-4.527 0,0 -0.944,-0.062 -1.643,0.015 -2.344,0.258 -3.765,3.064 -4.352,5.212 -0.371,1.359 -0.827,3.316 -0.827,3.316 0,0 -0.442,-1.025 -0.873,-1.785 -0.612,-1.08 -3.284,-3.874 -4.056,-4.19 -0.849,-0.348 -3.106,-0.026 -3.997,1.211 -0.214,0.296 -0.236,0.452 -0.227,1.561 0,0 0.001,0.103 0.006,0.662 0.073,8.304 4.55,-0.227 6.368,2.855 0.058,0.1 0.115,0.198 0.171,0.295 2.336,4.086 3.807,6.581 4.57,-1.192 z m -29.039,51.98 4.056,4.055 5.04,-5.04 -5.04,-5.04 -4.056,4.056 -4.056,-4.056 -5.04,5.04 5.04,5.04 4.056,-4.055 z m 21.323,-0.091 c 0.162,2.24 1.208,3.634 3.11,4.036 2.453,0.519 3.84,-0.812 4.469,-3.503 0.138,-0.59 0.107,-1.082 -0.273,-1.32 -0.723,-0.451 -2.708,0.018 -3.667,-0.492 -1.194,-0.634 -1.498,-3.33 -1.202,-4.59 0.295,-1.261 1.049,-2.612 1.254,-3.584 0.041,-0.197 0.06,-0.378 -0.025,-0.479 -0.011,-0.013 -0.022,-0.025 -0.033,-0.036 -2.887,-0.659 -3.589,10.572 -3.633,9.968 z m -69.861,3.949 c 2.323,-0.029 5.747,-0.072 9.279,-0.117 9.644,-0.121 14.496,-0.162 21.101,-2.712 0.814,-0.273 1.356,-0.53 1.349,-0.777 l -35.285,0 1.242,-3.796 c 0.331,-1.011 0.769,-1.97 1.16,-2.734 0.242,-0.474 0.763,-1.057 1.38,-0.364 0.444,0.497 0.174,1.674 1.388,1.2 0.784,-0.307 1.132,-2.168 1.167,-3.104 0.042,-1.15 -0.071,-2.687 -0.071,-2.687 0,0 -1.187,-0.111 -2.082,0.055 -0.818,0.151 -2.407,1.782 -2.881,2.956 -0.585,1.452 -1.059,3.015 -2.033,4.192 -0.579,0.7 -1.932,1.507 -2.953,2.456 -0.58,0.539 -0.94,0.974 -1.127,1.518 -1.847,5.382 5.703,3.947 8.366,3.914 z m 83.581,-32.448 0.46,-0.008 c 0.207,-0.004 0.262,-0.13 0.555,-1.259 1.683,-6.496 1.99,-10.084 -2.149,-14.25 -0.682,-0.686 -1.476,-1.261 -1.988,-0.647 -0.347,0.418 -0.701,3.363 -0.543,4.006 0.277,1.124 1.097,1.49 2.044,2.253 2.14,1.725 2.676,3.019 2.404,5.316 -0.209,1.764 -0.783,4.589 -0.783,4.589 z"/>
</svg>