<?xml version="1.0"?>
<svg xmlns="http://www.w3.org/2000/svg" version="1.1">
  <path
     d="m 94.412086,80.25149 -0.594,-0.01 1.518,-2.185 c 0.044,-0.062 0.079,-0.109 0.101,-0.134 1.366,-1.611 2.44,-1.654 4.376,-0.703 0.393004,0.193 0.730004,0.373 0.851004,0.888 0.06,0.251 0.068,0.581 0.06,0.857 -0.008,0.301 -0.015,0.535 -0.015,0.535 0,0 -0.007,0.001 -0.07,0.012 -0.192,0.033 -1.096004,0.203 -2.080004,0.374 -1.184,0.207 -2.771,0.528 -4.147,0.366 z m -26.42,1.289 -2.39,-0.148 0.133,0.49 c 0.033,0.122 0.071,0.249 0.112,0.365 0.903,2.532 8.064,3.022 9.45,2.714 1.091,-0.243 2.867,-0.888 3.726,-1.528 2.414,-1.796 3.507,-5.31 5.923,-4.074 0.343,0.176 0.65,0.457 0.917,0.82 0.527,0.717 0.897,1.752 1.502,2.273 0.541,0.464 1.269,0.519 2.092,0.59 5.035,0.432 10.715004,0.948 13.537004,-3.162 1.683,-2.452 0.702,-6.029 -2.13,-6.65 -2.713004,-0.596 -5.075004,1.215 -6.696004,3.878 -0.133,0.22 -0.256,0.429 -0.371,0.627 l -1.421,2.446 -0.896,0.029 c -0.284,0 -0.529,-0.038 -0.812,-0.115 -0.293,-0.079 -0.58,-0.193 -0.843,-0.403 -0.469,-0.376 -0.859,-1.062 -1.272,-1.676 -0.672,-1 -3.475,-2.6 -4.77,-1.698 -0.193,0.134 -0.378,0.307 -0.569,0.507 -1.016,1.066 -2.203,2.893 -3.406,3.669 -0.202,0.129 -0.804,0.436 -1.36,0.67 -1.952,0.82 -7.592,0.553 -10.456,0.376 z m -52.752,-12.407 c -0.351,2.188 0.075,2.726 1.53,2.054 0.991,-0.457 13.771,-7.892 15.638,-10.118 0.751,-0.896 1.501,-2.482 1.766,-3.909 0.163,-0.879 -0.101,-0.848 -1.047,-0.496 -2.194,0.815 -16.653,9.617 -17.106,10.413 -0.423,0.743 -0.694,1.513 -0.781,2.056 z m 83.214004,-11.354 c 0.156,2.16 1.164,3.503 2.997,3.89 2.364,0.5 3.701,-0.782 4.307,-3.376 0.133,-0.569 0.103,-1.043 -0.263,-1.272 -0.697,-0.435 -2.61,0.017 -3.535,-0.474 -1.15,-0.611 -1.443,-3.209 -1.158,-4.424 0.285,-1.215 1.011,-2.518 1.209,-3.454 0.04,-0.19 0.058,-0.365 -0.024,-0.462 -0.011,-0.013 -0.021,-0.024 -0.032,-0.035 -2.783,-0.634 -3.459,10.19 -3.501,9.607 z m -9.334004,2.852 c 0,0 -8.245,0 -11.267,0 -3.086,0 -11.089,1.355 -2.033,-6.758 1.068,-0.881 2.346,-1.514 3.367,-1.685 3.335,-0.557 6.349,1.912 8.781,4.407 0.369,0.379 0.683,0.662 0.875,1.493 0.214,0.929 0.277,2.543 0.277,2.543 z m -46.15,4.426 c 2.358,1.592 6.376,2.671 9.101,3.023 2.067,0.268 4.163,-0.309 6.106,-1.926 1.224,-1.019 2.05,-2.146 2.833,-2.047 0.797,0.101 1.942,1.3 2.285,2.314 0.079,0.234 0.116,0.458 0.122,0.681 0.1,3.253 -4.638,16.111 1.786,2.846 0.759,-1.566 1.879,-1.714 4.516,-1.614 2.763,0.105 5.8,0.446 8.475,0.243 3.716,-0.283 10.346,-1.578 12.319,-3.693 3.139,-3.364 4.811,-7.613 4.069,-10.551 -0.292,-1.159 -2.203,-5.725 -3.476,-6.863 -1.578,-1.411 -7.915,-3.216 -8.194,-3.228 -1.225,-0.054 -4.324,1.159 -5.712,2.235 -3.736,2.898 -4.936,5.473 -7.815,9.597 -0.902,1.291 -1.68,2.161 -2.783,1.577 -1.962,-1.04 -2.359,-3.442 -3.973,-2.483 -0.95,0.564 -1.778,2.36 -2.811,3.228 -1.407,1.182 -4.064,1.064 -6.554,0.523 -6.03,-1.31 -9.424,-5.728 -9.162,-15.008 0.135,-4.8 0.971,-22.546 0.321,-26.708 -0.567,-3.626 -1.485,-4.132 -1.309,-9.11 0.115,-3.279 0.812,-8.093 0.812,-8.093 l -2.1,0 c -0.944,0 -1.12,0.131 -1.76,1.312 -0.835,1.54 -1.624,3.007 -2.099,4.806 -0.436,1.649 -0.074,11.317 0.496,13.26 0.529,1.805 1.198,3.093 1.49,5.771 0.266,2.44 0.218,17.995 0.135,20.535 -0.35,10.58 -0.238,17.266 2.882,19.373 z m -15.769,-28.324 c 0.082,-0.154 0.172,-0.303 0.273,-0.444 0.418,-0.592 1.045,-0.876 2.234,-1.242 1.525,-0.469 3.973,-1.073 3.973,-1.073 0,0 -0.233,-2.034 0,-4.042 0.278,-2.392 1.218,-4.748 1.218,-4.748 0,0 -7.372,-0.219 -12.143,-1.063 -7.844,-1.387 -8.644,-3.101 -15.3959,-0.496 -2.821,1.088 -4.0028,1.654 -4.2803,4.146 -0.2376,2.135 -0.1894,6.035 -0.1894,6.035 0,0 1.7451,0.091 3.1784,0 3.7542,-0.239 8.2102,-3.018 10.2302,-1.987 1.513,0.772 -1.778,2.448 -4.221,4.47 -6.1165,5.062 -9.246,11.334 -10.9258,18.375 -1.5716,6.587 -1.6552,15.555 0.4966,20.859 5.412,13.338 11.2152,14.887 24.4342,14.402 2.347,-0.086 4.771,-0.392 6.605,-1.242 1.974,-0.915 4.24,-2.55 6.325,-4.094 l 7.045,-5.215 -9.017,2.38 c -6.081,1.606 -13.949,0.601 -19.748,-0.52 -5.383,-1.041 -9.5765,-3.306 -13.0674,-8.262 -3.9297,-5.579 -2.0388,-14.622 0.8996,-19.301 3.4789,-5.541 11.9938,-13.616 18.5248,-15.396 0.372,-0.101 0.673,-0.167 0.914,-0.189 -0.283,0.94 -0.553,1.829 -0.757,2.695 -1.568,6.667 3.755,9.087 8.3,9.926 6.598,1.218 11.585,0.5 18.166,-1.4 0.396,-0.114 0.769,-0.251 1.1,-0.417 0.656,-0.329 2.588,-5.424 2.732,-7.201 0.572,-7.106 0.745,-27.172 0.745,-27.172 0,0 0.01,0 0.158,0 4.563,1.77 4.403,1.036 3.506,-0.503 -3.215,-5.521 -2.215,-6.834 -3.44,-12.009 -0.011,-0.048 -0.023,-0.096 -0.035,-0.143 -1.022,-4.011 -2.929,-0.471 -3.644,0.7 -0.94,1.54 -1.888,3.347 -2.008,4.009 -0.273,1.5 0.528,3.236 0.993,5.091 1.014,4.049 0.993,29.202 0.993,29.202 0,0 -1.121,0.32 -2.475,0.652 -2.425,0.594 -12.436,1.849 -15.833,0.543 -0.321,-0.124 -0.588,-0.238 -0.769,-0.321 -1.565,-0.716 -3.207,-1.671 -3.768,-2.284 -0.548,-0.599 -1.033,-1.591 -1.327,-2.721 z m 35.324,-34.204 c -0.753,-1.405 -1.531,-2.398 -2.228,-2.496 -0.533,-0.075 -1.193,0 -1.193,0 0,0 -0.478,2.659 -0.215,4.547 0.085,0.611 0.711,1.627 1.447,2.676 3.363,4.791 3.216,4.485 3.277,10.373 0.087,8.329 1.019,5.55 1.832,1.323 0.111,-0.572 0.186,-1.162 0.232,-1.76 0.437,-5.643 -1.348,-11.296 -3.152,-14.663 z"
     style="fill:#000000;stroke:none" />
</svg>
