<?xml version="1.0" encoding="UTF-8" standalone="yes"?>
<svg>
<path
	style="stroke:none; fill:#000000"
	d="m 45.035608,21.87324 c 0.266,-0.223 0.544,-0.445 0.835,-0.668 1.203,-0.847 2.464,-1.682 3.759,-2.49 0.915,-0.538 1.885,-1.067 2.894,-1.585 0,0 -0.075,-0.106 -0.075,-0.106 3.866,-2.226 7.849,-4.149 11.304,-5.441 0.881,-0.329 20.969,-7.2369998 21.484,-8.1239998 0.125,-0.217 0.212,-0.468 0.253,-0.763 0.036,-0.261 0.041,-0.585 0.032,-0.9 -0.084,-3.04 -5.045,-1.58599996 -8.54,-0.256 -3.236,1.231 -8.04,3.259 -13.136,5.616 -2.076,0.961 -5.456,2.527 -9.199,4.4699998 -6.391,3.317 -14.678,6.905 -12.288,12.722 0.084,0.205 0.177,0.409 0.279,0.612 0.059,0.116 0.112,0.222 0.161,0.317 -0.622,-1.208 1.6,3.808 2.171,-0.833 0.11,-0.89 0.195,-1.969 0.066,-2.571 z m 19.655,13.798 4.073,4.073 5.863,-5.862 -5.863,-5.863 -4.073,4.074 -4.074,-4.074 -5.862,5.863 5.862,5.862 4.074,-4.073 z m -8.489,17.154 c -0.064,-0.048 -0.131,-0.1 -0.202,-0.155 -1.648,-1.288 -4.491,-2.943 -4.754,-4.089 -0.12,-0.524 0.067,-1.068 -0.257,-1.249 -0.308,-0.172 -1.078,-0.017 -1.597,0.121 -0.539,0.144 -0.722,0.267 -0.868,0.857 -1.424,5.766 -1.364,2.016 0.115,8.571 0.73,3.236 1.455,7.245 1.292,9.859 -0.168,2.689 -8.156,9.806 -15.133,11.843 -4.445,1.298 -11.544,2.015 -14.08,3.948 -1.444,1.101 -2.851,2.632 -2.851,2.632 0,0 7.256,0.3 12.325,0 9.821,-0.582 15.51,-5.573 22.37,-12.107 1.498,-1.426 2.841,-3.499 3.29,-5.658 0.497,-2.392 0.658,-5.921 0.658,-5.921 0,0 9.486,2.315 17.426,0.192 0.183,-0.085 0.367,-0.179 0.551,-0.28 l 0.641,-0.353 1.843,0.843 c 1.836,0.839 3.548,1.291 7.172,-0.402 2.128,-0.994 3.949,-2.569 5.586,-3.603 l 3.025,-1.912 2.82,2.546 c 2.116,1.91 2.764,3.902 5.018002,2.969 0.699,-0.29 1.863,-1.239 3.104,-2.082 l 3.998,-2.715 0.877,2.527 c 0.956,2.761 7.121,2.762 8.12,2.847 0.808,0.069 1.62,0.106 2.323,0.081 1.392,-0.051 4.099,-1.753 4.606,-2.895 0.693,-1.564 2.584,-12.451 0,-14.212 -1.568,-1.068 -4.55,1.524 -4.864,4.506 -0.534,5.058 2.032,6.942 -1.716,6.021 -1.755,-0.431 -5.716,-3.362 -5.921,-4.382 -0.245,-1.212 0,-2.755 0,-2.755 0,0 -4.95,4.823 -7.387,6.089 -1.305,0.678 -3.513,0.245 -4.830002,-1.233 -1.788,-2.005 -1.534,-5.04 -4.133,-3.891 -1.094,0.483 -2.012,2.034 -3.786,3.08 -2.735,1.611 -3.871,1.833 -6.139,1.975 -2.539,0.158 -6.975,1.061 -6.738,-1.345 0.337,-3.406 0.263,-7.101 -1.151,-8.065 -1.568,-1.068 -4.55,1.524 -4.864,4.506 -0.2,1.896 0.035,3.346 0.21,4.369 0,0 -0.068,0.001 -0.58,0.008 -7.307,0.097 -13.619,0.364 -15.519,-1.086 z m -3.223,-36.611 -0.14,-3.204 c -0.056,-1.294 -0.038,-1.526 0.187,-2.32 0.167,-0.588 0.343,-1.2319998 0.789,-1.6469998 1.088,-1.01 3.782,-0.661 5.032,-1.493 1.798,-1.199 1.799,-5.316 0.415,-6.98499996 -1.467,-1.77000004 -4.434,1.04099996 -5.649,2.64899996 -0.747,0.987 -1.454,2.119 -1.772,3.44 -0.147,0.613 -0.229,1.308 -0.344,1.916 l -0.565,2.9799998 -1.864,-2.3719998 c -2.551,-3.36 -1.773,-4.359 -5.522,-5.273 -1.256,-0.306 -3.98,-0.191 -4.504,1.223 -0.41,1.107 0.552,3.798 1.155,4.437 0.463,0.4919998 2.339,1.7109998 3.114,1.7859998 1.267,0.122 3.854,-0.649 3.854,-0.649 0,0 2.088,3.006 3.364,4.418 0.556,0.616 1.017,1.112 1.731,1.125 0.294,0.006 0.719,-0.031 0.719,-0.031 z m 30.953,25.448 0.559,-0.01 c 0.251,-0.004 0.318,-0.157 0.673,-1.528 2.043,-7.888 2.416,-12.243 -2.609,-17.301 -0.828,-0.833 -1.792,-1.532 -2.413,-0.786 -0.422,0.507 -0.852,4.083 -0.66,4.863 0.336,1.366 1.332,1.809 2.482,2.736 2.598,2.095 3.249,3.666 2.918,6.455 -0.253,2.141 -0.95,5.571 -0.95,5.571 z m -15.323,-19.789 c 0.266,-0.223 0.544,-0.445 0.835,-0.668 1.203,-0.847 2.464,-1.682 3.759,-2.49 0.915,-0.538 1.884,-1.067 2.894,-1.585 l -0.075,-0.106 c 5.711,-3.288 11.681,-5.917 15.819,-6.823 0.796,-0.175 1.591,-0.3149998 1.741,-0.046 0.075,0.134 -0.01,0.369 -0.138,0.634 -0.301,0.624 -0.784,1.379 -1.32,2.188 -11.113,16.781 6.417,-6.5079998 11.391002,-7.1619998 0.455,-0.225 0.883,-0.406 1.261,-0.525 1.936,-0.61 4.032,-0.739 4.287,-2.594 0.036,-0.261 0.041,-0.585 0.032,-0.9 -0.085,-3.04 -5.045,-1.58599996 -8.541,-0.256 -3.235002,1.231 -8.039002,3.259 -13.135002,5.616 -2.077,0.961 -5.456,2.527 -9.199,4.4699998 -6.391,3.317 -14.678,6.905 -12.289,12.722 0.085,0.205 0.177,0.409 0.28,0.612 0.058,0.116 0.112,0.222 0.161,0.317 -0.622,-1.208 1.599,3.808 2.171,-0.833 0.11,-0.89 0.195,-1.969 0.066,-2.571 z m -44.501,-5.816 -0.454,-8.6509998 c -0.067,-1.284 -0.093,-1.507 -0.264,-2.234 -0.525,-2.228 -1.936,-3.449 -3.411,-4.23699996 -1.876,-1.002 -3.307,-1.374 -5.241,0.037 -1.589,1.15999996 -1.739,5.35899996 -1.114,6.01599996 0.466,0.49 1.701,0.445 3.197,0.094 3.735,-0.877 4.109,-0.675 5.082,3.2749998 0.462,1.877 0.516,3.635 0.289,5.523 -0.483,4.009 -1.617,5.959 0.606,8.312 0.925,0.979 1.892,1.127 4.003,0.693 1.5,-0.309 1.797,-1.006 2.426,-3.083 0.443,-1.462 0.793,-2.771 0.679,-4.229 -0.225,-2.892 -3.352,-8.3289998 0.417,-9.6789998 0.696,-0.249 1.6,-0.087 2.38,0.083 1.051,0.229 1.229,0.125 1.783,-1.038 0.455,-0.957 0.982,-1.837 1.272,-2.866 1.087,-3.86499996 -0.578,-4.95599996 -3.919,-3.37299996 -3.832,1.81599996 -5.554,9.59699976 -4.735,14.81199976 0.251,2.151 0.526,4.087 0.526,4.087 0,0 -0.229,-0.003 -0.502,-0.03 -1.073,-0.106 -2.916,-1.53 -3.02,-3.512 z m -2.659,19.409 -4.881,4.849 c -0.811,0.806 -0.926,0.951 -1.153,1.447 -0.318,0.695 -0.428,1.857 -0.272,2.015 0.506,0.51 2.293,-0.729 2.915,-1.187 5.449,-4.019 7.932,-6.55 8.813,-11.754 0.447,-2.645 -0.953,-3.668 -3.431,-4.006 -3.932,-0.535 -7.833,0.013 -9.36,2.973 0.238,11.301 0.574,4.838 3.908,4.036 3.709,-0.893 7.697,-2.875 3.461,1.627 z m 31.198,47.418 c -0.364,2.27 0.078,2.828 1.588,2.131 1.028,-0.475 14.288,-8.188 16.225,-10.498 0.78,-0.93 1.558,-2.576 1.832,-4.056 0.169,-0.912 -0.105,-0.88 -1.086,-0.515 -2.276,0.846 -17.278,9.979 -17.748,10.804 -0.439,0.771 -0.721,1.57 -0.811,2.134 z m -36.214,-24.088 c 0.478,0.63 0.738,1.281 1.653,1.69 0.584,0.261 1.435,0.423 2.157,0.521 1.924,0.193 5.064,0.051 7.1,-0.133 -2.993,0.27 7.704,-2.106 2.699,2.401 -1.031,0.928 -2.856,1.982 -4.455,2.474 -8.739,2.69 -17.6518996,-0.638 -21.0540996,-7.895 -0.5546,-1.183 -0.9288,-4.265 -0.9343,-6.611 -0.9186,-2.859 6.8746996,-15.109 6.7566996,-15.125 -0.0705,-0.009 -0.1544,-0.007 -0.2521,0.004 -0.1576996,0.018 -0.2765996,0.128 -1.1885996,1.101 -6.9375,7.396 -10.372,13.857 -8.3294,23.263 1.4056,6.472 6.2226,11.191 11.8427996,12.501 2.445,0.569 10.332,0.154 12.501,-0.658 7.659,-2.87 12.995,-9.737 11.185,-16.015 -0.328,-1.137 -2.49,-2.816 -3.948,-3.066 -4.53,-0.774 -14.405,0 -14.405,0 0,0 8.956,-7.143 12.695,-10.527 2.028,-1.835 3.421,-2.588 5,-2.631 2.737,-0.075 7.895,0.658 7.895,0.658 0,0 0.998,-2.8 1.316,-4.606 0.803,-4.555 -4.152,-4.129 -8.553,-2.632 -4.617,1.571 -12.215,6.757 -16.576,12.322 -1.706,2.177 -3.82,6.11 -3.82,8.375 0,1.028 0,2.167 0,2.167 0,1.332 0.071,1.574 0.715,2.422 z m -9.7193996,-20.645 c 2.096,0.405 4.3983996,0.549 4.3983996,0.549 l 0.785,-2.355 0.75,-2.25 -2.5579,0 c -0.1700996,0 -0.3606996,0 -0.5712996,0 -7.0376,-0.447 -5.4327,-5.806 -4.4021,-10.615 0.4108,-1.917 1.391,-6.491 1.391,-6.491 0,0 -0.689,0.272 -1.2563,0.636 -1.4225,0.913 -2.8048,7.06 -3.2221,9.981 -0.7087,4.959 -1.1389,9.418 4.6853,10.545 z"/>
</svg>