<?xml version="1.0" encoding="UTF-8" standalone="yes"?>
<svg>
<path
	style="stroke:none; fill:#000000"
	d="m 45.291547,77.745373 c 0.153,2.174 1.142,3.526 2.939,3.916 2.319,0.504 3.631,-0.787 4.225,-3.399 0.13,-0.572 0.101,-1.05 -0.258,-1.28 -0.683,-0.438 -2.56,0.017 -3.467,-0.478 -1.128,-0.615 -1.415,-3.231 -1.136,-4.454 0.28,-1.224 0.992,-2.535 1.186,-3.478 0.039,-0.191 0.057,-0.367 -0.024,-0.465 -0.01,-0.012 -0.02,-0.024 -0.031,-0.035 -2.729,-0.639 -3.393,10.26 -3.434,9.673 z m -34.178,-34.248 -0.202,0.131 c -0.206,1.25 -0.359,2.319 -0.411,3.285 -0.074,0.43 -0.144,0.84 -0.209,1.232 l 0.198,-0.129 c 0.094,2.325 1.006,4.149 3.597,6.795 0.227,0.232 0.454,0.444 0.677,0.632 2.901,2.446 7.661,2.623 11.485,1.107 1.081,-0.429 1.249,-0.61 1.686,-1.81 l 1.661,-4.558 c 0,0 0.394,1.319 0.725,2.211 2.611,7.031 9.929,5.305 15.228,3.572 l 2.092,-0.684 0.82,1.096 c 0.308,0.412 0.617,0.892 0.984,1.264 1.177,1.19 3.785,1.367 6.06,0.97 l 4.848,-2.395 1.592,-1.251 1.295,1.693 c 0.3,0.391 0.611,0.825 0.997,1.17 0.499,0.446 3.094,0.911 5.452,1.229 2.47,0.333 2.939,0.909 4.291,-1.315 1.343,-2.209 3.832,-5.936 3.798,-5.854 0.543,-1.311 0.503,-2.837 0.241,-4.582 -0.49,-3.261 -1.825,-8.638 -1.825,-8.638 0,0 -2.027,3.224 -3.093,4.79 -0.749,1.1 -1.024,1.423 -1.017,2.58 0.009,1.554 0.494,4.648 0.494,4.648 0,0 -0.551,0.03 -1.014,0.02 -1.001,-0.023 -3.599,-0.992 -4.461,-2.192 -0.346,-0.483 -0.625,-0.917 -0.917,-1.234 l -0.97,-1.05 -1.709,1.193 c -1.316,0.878 -2.499,2.113 -3.751,2.556 -1.453,0.513 -3.273,0.321 -4.972,-0.211 -5.636,-1.49 0.286,-7.675 -6.347,-2.279 -0.514,0.601 -4.053,1.245 -5.126,1.373 -4.774,0.572 -10.728,-1.192 -10.764,-7.338 -10e-4,-0.246 0.002,-0.503 0.006,-0.758 0.017,-1.04 -1.35,-4.897 -2.402,-1.153 -0.459,1.636 -0.903,4.009 -0.95,4.451 -0.18,1.704 -0.182,4.12 -0.182,4.12 0,0 -4.981,0.483 -4.981,0.483 -0.93,0.09 -1.244,0.107 -1.769,0.057 -1.685,-0.162 -3.038,-0.626 -4.109,-1.321 -4.072,-3.443 -4.058,-7.662 -1.854,-13.484 0.663,-1.753 1.31,-3.216 1.592,-3.435 2.363,-1.833 7.779,-3.22 8.402,-4.445 1.299,-2.554 1.976,-8.94 1.976,-8.94 0,0 -4.255,0.736 -7.469,0.629 -3.868,-0.128 -7.021,-1.991 -9.883,-2.45 -6.0659999,-0.972 -10.00099989,2.186 -10.84199989,9.405 -0.289,2.487 0.167,4.562 1.73999999,5.175 0.678,0.265 3.779,-0.829 4.232,-1.492 1.585,-2.319 0.865,-3.684 3.306,-3.539 4.4879999,0.266 1.2719999,2.522 -2.18,8.087 -0.446,0.72 -0.882,1.54 -1.302,2.439 -2.469,5.275 -4.241,12.799 -4.92599999,18.693 -0.368,3.175 -0.456,6.096 -0.178,8.335 1.05799999,8.534 3.04999999,12.529 8.64299999,16.341 2.7759999,1.893 9.0719999,3.408 12.8089999,2.971 5.248,-0.613 13.568,-5.617 18.346,-9.864 6.495,-5.773 -1.572,-1.598 -2.403,-1.169 -0.018,0.009 -0.036,0.019 -0.054,0.028 -10.51,5.379 -24.023,8.819 -31.8879999,-6.94 -2.353,-4.269 -3.887,-9.677 -3.221,-13.757 0.653,-4.004 4.689,-10.955 7.9109999,-14.694 0.801,-0.928 0.912,-1.035 1.114,-1.065 0.15,-0.023 0.314,-0.023 0.451,0.02 0.402,0.125 -0.502,4.586 -1.368,9.245 z m 13.758,22.572 4.241,4.353 5.624,-5.772 -5.624,-5.773 -4.241,4.353 -4.241,-4.353 -5.624,5.773 5.624,5.772 4.241,-4.353 z m 19.56,-25.686 4.242,4.353 5.623,-5.773 -5.623,-5.772 -4.242,4.353 -4.241,-4.353 -5.623,5.772 5.623,5.773 4.241,-4.353 z m 0,-16.44 -5.623,5.773 5.623,5.773 5.624,-5.773 -5.624,-5.773 z M 14.071547,3.7303565e-4 8.4485471,5.773373 l 5.6229999,5.772 5.624,-5.772 -5.624,-5.77299996435 z m 19.827,15.57999996435 -0.414,-8.394 c -0.062,-1.245 -0.086,-1.462 -0.242,-2.167 -0.479,-2.163 -1.767,-3.347 -3.114,-4.11199996 -1.713,-0.972 -3.02,-1.333 -4.785,0.036 -1.452,1.12499996 -1.589,5.19999996 -1.018,5.83699996 0.426,0.476 1.554,0.433 2.919,0.092 3.41,-0.851 3.752,-0.655 4.64,3.178 0.423,1.821 0.472,3.527 0.265,5.359 -0.441,3.89 -1.477,5.782 0.553,8.066 0.845,0.95 1.727,1.094 3.655,0.672 1.369,-0.3 1.641,-0.976 2.215,-2.991 0.405,-1.419 0.724,-2.69 0.621,-4.104 -0.206,-2.807 -3.061,-8.082 0.38,-9.392 0.635,-0.242 1.461,-0.084 2.173,0.081 0.96,0.222 1.122,0.121 1.628,-1.008 0.416,-0.928 0.897,-1.782 1.161,-2.781 0.993,-3.74999996 -0.527,-4.80899996 -3.577,-3.27299996 -3.5,1.76299996 -5.072,9.31199996 -4.324,14.37299996 0.229,2.087 0.48,3.966 0.48,3.966 0,0 -0.21,-0.003 -0.459,-0.029 -0.979,-0.103 -2.662,-1.485 -2.757,-3.409 z"/>
</svg>