<?xml version="1.0" encoding="UTF-8" standalone="yes"?>
<svg>
<path
	style="stroke:none; fill:#000000"
	d="m 62.641754,16.883964 4.112,4.111 5.508,-5.507 -5.508,-5.5080001 -4.112,4.1110001 -4.111,-4.1110001 -5.508,5.5080001 5.508,5.507 4.111,-4.111 z m 0,-16.884000101179 -5.508,5.508000001179 5.508,5.5080001 5.508,-5.5080001 -5.508,-5.508000001179 z M 40.092754,60.26128 c 0.163,2.241 1.208,3.634 3.11,4.036 2.453,0.519 3.84,-0.811 4.469,-3.502 0.138,-0.591 0.107,-1.083 -0.273,-1.32 -0.723,-0.452 -2.708,0.017 -3.667,-0.492 -1.194,-0.635 -1.497,-3.33 -1.202,-4.59 0.295,-1.262 1.049,-2.612 1.254,-3.585 0.042,-0.196 0.061,-0.378 -0.025,-0.479 -0.011,-0.013 -0.022,-0.025 -0.033,-0.036 -2.887,-0.658 -3.589,10.573 -3.633,9.968 z m 23.563,-16.759 -3.541,0.123 c -1.149,0.04 -1.336,0.001 -1.871,-0.395 -1.942,-1.435 -1.257,-2.886 0.445,-3.818 1.006,-0.55 3.291,-0.275 4.886,1.398 0.953,1 2.006,2.624 0.081,2.692 z m 13.183,2.95 0.069,-1.04 1.904,-1.682 c 1.871,-1.653 4.381,-4.953 4.505,-5.178 1.618,-2.958 2.105,-7.506 1.564,-10.149 -0.366,-1.786 -4.643,-10.921 -5.759,-12.298 -0.527,-0.651 -1.24,-0.688 -1.703,0.059 -0.973,1.57 -1.76,5.742 -1.242,7.154 0.221,0.603 0.652,1.172 0.995,1.886 0.909,1.894 1.197,4.812 2.252,6.075 1.251,1.499 3.78,2.558 2.298,4.345 -0.354,0.428 -0.893,0.84 -1.658,1.336 -2.615,1.698 -7.878,4.382 -7.878,4.382 0,0 -4.387,-4.702 -6.931,-7.275 -2.357,-2.384 -3.859,-3.36 -6.408,-2.334 -3.448,1.389 -4.163,5.251 -4.633,9.668 -0.471,4.437 0.359,8.999 3.629,10.403 0.918,0.395 2.423,0.331 4.488,-0.156 3.266,-0.772 8.356,-2.424 8.356,-2.424 0,0 0.163,1.958 -0.056,3.068 -0.192,0.971 -1.844,2.771 -2.694,3.636 -1.106,1.125 -3.555,2.796 -6.329,4.493 -11.622,7.113 -15.334,7.232 -27.809,12.477 -9.878,4.153 -9.017,1.621 1.968,3.279 1.371,0.207 2.765,0.577 3.994,0.558 2.133,-0.034 7.066,-1.692 8.599,-2.256 0.401,-0.147 1.003,-0.383 1.741,-0.687 6.579,-2.71 12.408,-5.623 17.42,-10.433 9.662,-9.274 9.575,-20.789 9.318,-16.907 z m -29.19,-39.4154135 c -0.105,0.247 -0.213,0.485 -0.311,0.702 -0.114,-0.02 -0.229,-0.058 -0.409,-0.122 -0.851,-0.304 -2.007,-1.432 -2.126,-2.146 -0.006,-0.034 -0.011,-0.07 -0.016,-0.106 -0.035,-0.285 0.305,-0.695 0.763,-1.001 2.913,-1.947 2.509,1.71 2.099,2.673 z m 3.321,-1.326 c 0.587,-1.132 0.89,-2.057 0.56,-2.922 -0.345,-0.904 -2.038,-2.48200003 -2.935,-2.73600003 -1.116,-0.316 -4.257,0.825 -5.392,2.32000003 -0.894,1.176 -1.804,4.418 -1.058,5.628 1.085,1.761 2.373,2.1539995 1.879,3.0479995 -0.332,0.601 -1.314,1.243 -2.373,1.822 -2.219,1.214 -4.777,2.155 -6.996,3.062 -5.864,2.53 -11.257,4.281 -5.969,4.198 12.988,-0.202 19.243,-8.554 22.284,-14.4199995 z m -7.29,28.0124135 c 0.808,1.776 -2.151,2.863 -3.297,3.244 -1.17,0.389 -1.592,0.101 -2.371,-0.77 -1.545,-1.727 -3.809,-4.682 -2.961,-5.438 0.74,-0.661 6.147,0.925 7.746,2.074 0.396,0.285 0.753,0.604 0.883,0.89 z m -2.044,14.71 c 0,0 -0.11,-1.83 -0.107,-3.065 0.006,-2.303 0.688,-3.236 2.842,-4.064 2.003,-0.769 4.64,-0.808 5.908,-1.913 1.274,-1.111 2.655,-7.116 2.267,-8.135 -0.295,-0.778 -2.266,-2.22 -4.023,-3.191 -1.947,-1.076 -7.82,-4.674 -11.865,-5.072 -4.818,-0.474 -5.44,7.883 -5.357,10.269 0.027,0.75 0.032,0.901 0.032,0.901 0.04,1.149 0.123,1.378 0.829,2.289 1.019,1.312 2.644,3.235 2.74,4.154 0.064,0.618 -1.398,2.534 -2.622,3.437 -6.213,4.58 -8.611,11.027 -16.177,19.926 -1.663,1.956 -4.288,4.157 -6.7920004,5 -17.609,5.927 3.9270004,-37.044 -4.887,-20.116 -2.611,5.014 -4.52,11.245 -4.42,15.955 0.071,3.29 2.004,10.135 4.667,11.56 2.251,1.204 7.3060004,-0.775 9.4980004,-2.676 1.197,-1.038 2.268,-2.431 3.349,-3.882 4.91,-6.591 11.946,-17.387 18.105,-22.659 1.086,-0.929 2.653,-2.14 3.347,-1.408 0.337,0.355 0.513,1.178 0.856,1.824 0.303,0.571 0.56,0.879 1.172,0.889 0.262,0.004 0.638,-0.023 0.638,-0.023 z"/>
</svg>