<?xml version="1.0" encoding="UTF-8" standalone="no"?>
<svg>
  <path
     d="m 60.42539,43.126121 c 0.2025,2.80125 1.51001,4.5425 3.88626,5.045 3.0675,0.64875 4.80125,-1.015 5.5875,-4.37875 0.1725,-0.7375 0.13375,-1.3525 -0.34125,-1.65 -0.90375,-0.56376 -3.385,0.0225 -4.585,-0.61501 -1.49125,-0.7925 -1.87125,-4.1625 -1.50125,-5.7375 0.36875,-1.57625 1.31,-3.265 1.5675,-4.48 0.0513,-0.24625 0.075,-0.4725 -0.0325,-0.59875 -0.0125,-0.0163 -0.0262,-0.0312 -0.04,-0.045 -3.60876,-0.8225 -4.48626,13.21626 -4.54126,12.46001 z M 56.96789,6.8548409 c -1.4175,-0.1625 -1.74,0.0225 -1.91625,1.8725 -0.27375,2.8825001 -0.33875,3.2587501 -2.55,4.8000001 -0.52875,0.36875 -1.0775,0.65376 -1.63,0.83751 -4.90501,1.63375 -5.95501,-4.04501 -5.41251,-7.0962601 0.0825,-0.465 0.17125,-0.905 0.24625,-1.265 0.7825,-3.69625 -0.56875,-1.315 -1.15875,-0.335 -0.8475,1.405 -1.555,4.21125 -1.56,6.2950001 -0.002,1.1175 0.12125,2.28876 0.39625,3.33501 2.13875,8.12 9.45251,4.55375 12.21751,0.0337 l 1.29375,-2.09876 2.5075,1.64376 c 1.305,0.695 3.59251,0.56375 5.28501,0.004 7.86,-2.59751 4.87,-9.2137601 1.3525,-13.3050101 -0.3375,-0.39125 -0.65625,-0.71624998 -0.9375,-0.94874998 -0.34125,-0.2825 -0.8975,-0.68251 -1.44,-0.62126 -0.1625,0.0188 -0.22,0.1025 -0.575,0.83251 -0.98875,2.03124998 -1.41875,2.66874998 -0.41,3.91124998 0.14,0.1725 0.3025,0.36 0.475,0.5575 1.44125,1.64375 4.18,4.1 0.12375,4.5575 -0.8325,0.0937 -1.70001,0.10125 -2.19376,0.0625 -2.32875,-0.18625 -3.04625,-0.77125 -3.3525,-2.345 -0.115,-0.59 -0.19125,-0.6625 -0.76125,-0.7275 z m -10.62251,82.6163101 4.43626,4.43625 6.36375,-6.36375 -6.36375,-6.36376 -4.43626,4.43626 -4.43625,-4.43626 -6.36375,6.36376 6.36375,6.36375 4.43625,-4.43625 z M 84.84041,7.5698409 c 0,0 -0.20375,0.0263 -0.29875,0 -0.095,-0.0263 -0.08,-0.12625 -0.1175,-0.18375 -0.205,-0.32625 -1.3025,0.30125 -1.335,0.31125 -0.36625,0.1225 -0.86875,0.0838 -1.37125,0.0412 -1.96,-0.165 -26.03877,17.5537601 -27.43377,18.9200101 -0.4525,0.4425 -0.89875,0.89 -1.345,1.34501 -1.70125,1.73625 -1.835,2.02 -2.22625,3.6975 -0.62875,2.69125 -0.875,3.22625 0.49625,5.1725 0.81625,1.16125 1.8425,2.25125 2.83375,1.89625 0.98125,-0.35125 1.115,-2.3075 0.6375,-3.64 -0.0913,-0.2525 -0.6075,-1.45625 -0.8425,-1.7725 -0.35625,-0.48 -0.33,-0.595 0.25625,-1.155 0.24125,-0.23125 0.6025,-0.5575 1.05875,-0.955 3.19375,-2.79 9.12001,-7.54751 12.61376,-9.95376 1.3425,-0.925 2.41375,-1.56875 2.97375,-1.72375 0.37625,-0.10375 0.46,0.0337 0.30125,0.72 -0.32375,1.3925 -1.39375,2.7975 -1.95,4.38 -0.0838,0.23625 -1.03125,4.19626 -0.75,4.50001 0.36125,0.39 0.78625,0.02 0.9925,-0.33625 0.425,-0.735 0.7675,-1.88376 1.2,-3.10001 1.79375,-5.05375 4.595,-7.515 8.64626,-10.355 1.92875,-1.35376 3.83,-2.70751 3.7175,-2.59001 1.12625,-1.18375 1.91625,-2.9325001 1.9425,-4.7687501 0.004,-0.22 0,-0.45 0,-0.45 z M 2.6115998,63.053631 0.45659977,71.532391 c -1.59624997,6.70875 0.74250003,22.23001 11.01126023,22.37501 0.0375,0.001 0.0737,0.001 0.11,0 0,0 0.001,0 0.001,0 2.80875,-0.0288 6.27125,-1.60375 9.62001,-4.00375 5.255,-3.7675 9.5875,-8.42876 11.4175,-14.31001 0.305,-0.97875 1.1575,-13.47001 3.73251,-8.00751 0.0262,0.0575 0.0537,0.11625 0.0812,0.17625 0.05,0.1075 0.1,0.22 0.15125,0.33625 1.65625,3.73126 2.5925,5.35001 5.68875,6.09001 4.95875,1.1825 8.99501,0.69625 11.92626,-3.1375 l 2.84375,-3.72001 1.595,1.5325 c 2.67125,2.41251 5.18626,2.25751 8.53251,2.24376 1.65375,-0.006 3.73375,-0.21 4.36,-0.6 1.85,-1.14751 2.71625,-3.07001 3.87,-2.87501 0.86126,0.14625 1.80751,1.425 3.53001,2.12501 0.5125,0.20875 1.09375,0.36625 1.66875,0.48375 3.49625,0.71875 6.26375,-0.5475 7.70875,-1.37751 l 2.50001,-1.43625 3.76625,2.89626 c 0.7175,0.5525 1.4975,1.10375 2.38625,1.5275 2.40375,1.14375 5.72375,2.39375 6.60126,1.85875 0.0987,-0.06 0.185,-0.15 0.2825,-0.29 5.82125,-8.25001 6.51875,-7.21126 3.3975,-17.13376 -0.71,-2.26126 -1.5525,-4.50751 -1.80875,-4.67876 -1.20125,-0.80125 -5.10626,5.00251 -5.20251,6.99626 -0.11625,2.4375 1.0425,4.47 -0.13,4.1525 -0.71375,-0.19375 -4.42125,-2.6375 -4.245,-3.4475 0.0138,-0.06 0.0288,-0.125 0.045,-0.195 0,0 0.0188,-0.0775 0.0888,-0.3725 0.51,-2.14125 -1.49625,-1.015 -3.05375,0.1025 -2.955,2.12 -5.01626,3.61375 -8.52876,3.005 -1.79,-0.31 -5.03625,-1.51125 -4.965,-3.76 0.0175,-0.565 0.0887,-1.08125 0.0887,-1.08125 l -0.66875,0 c -0.3,0 -0.37875,0.0775 -0.79375,0.775 -1.1025,1.8575 -1.8225,3.0175 -2.70751,3.73375 -0.43375,0.35125 -0.99125,0.6275 -1.63125,0.83375 -1.90875,0.6125 -5.94125,0.965 -8.7225,0.3525 -3.1925,-0.7025 -3.07,-2.3375 -3.80751,-4.9925 -0.1525,-0.55125 -0.39625,-0.86625 -1.27,-0.4025 -0.56875,0.3025 -1.08375,1.2675 -1.4625,2.145 -1.2325,2.8575 -2.51875,4.41375 -5.63625,5.805 -0.2425,0.10875 -0.4825,0.20625 -0.725,0.29125 -6.96501,2.48375 -10.41126,-1.85 -12.74876,-7.395 -0.12,-0.285 -0.23875,-0.57875 -0.35625,-0.88 -2.455,-6.27251 -7.17001,-22.23002 -14.70876,-25.37002 -0.4775,-0.19875 -0.91375,-0.255 -1.2625,-0.0962 -1.06875,0.48875 -2.24625,4.13375 -2.4875,5.22 -0.81376,3.655 0.26625,4.10375 2.73875,6.48001 0.0738,0.0712 0.17125,0.18375 0.2875,0.33125 2.7675,3.49375 9.49,15.14251 9.22875,19.85751 -10e-4,0.04 -0.005,0.08 -0.01,0.12 -0.05,0.44375 -0.0975,0.57375 -0.47125,1.2925 -0.7975,1.535 -1.52625,2.94625 -2.23,4.255 -2.915,5.41626 -9.40125,14.82127 -16.71876,15.03252 -1.97125,0.0562 -3.7537502,-0.85 -5.5962502,-2.86876 -3.32376,-3.6425 -3.85126,-5.36 -4.44001,-10.24 l -0.71625,-8.23376 z"
     style="fill:#000000;stroke:none" />
</svg>
