<?xml version="1.0" encoding="UTF-8" standalone="yes"?>
<svg>
  <path
	d="M 70.507644,80.956237 c 0.161078,2.213578 1.193752,3.591138 3.073315,3.988394 2.424069,0.512882 3.794711,-0.802426 4.416293,-3.461684 0.136372,-0.583041 0.105736,-1.06924 -0.269778,-1.304429 -0.714471,-0.44568 -2.676059,0.01779 -3.623751,-0.486199 -1.179916,-0.626524 -1.48033,-3.290724 -1.187822,-4.535865 0.29152,-1.246121 1.036627,-2.581194 1.239212,-3.541725 0.04048,-0.194679 0.0593,-0.373546 -0.02467,-0.473352 -0.01091,-0.01289 -0.02174,-0.02467 -0.03257,-0.03558 -2.852949,-0.651222 -3.546667,10.448301 -3.59015,9.850437 z M 26.758516,7.8360167 c 0.3921,-0.83792 0.421,-0.99256 0.2706,-1.44835 -0.136,-0.41199 -0.3236,-0.58366 -0.9739,-0.89131 -1.0201,-0.48261 -2.0111,-0.47007 -2.0818,0.0263 -0.047,0.3308 0.5825,1.7159 0.8571,1.88564 0.087,0.0535 0.3168,0.45767 0.5116,0.89824 0.3264,0.73805 0.3787,0.78791 0.6658,0.63426 0.1714,-0.0917 0.5092,-0.58889 0.7506,-1.10483 z M 10.546913,28.065288 c -0.2263,-0.226221 -0.069,-1.209451 0.3253,-2.029331 0.5002,-1.04107 1.167,-1.70168 3.2443,-3.21405 4.690803,-3.41508 5.381903,-3.96998 7.487103,-6.0107 1.431,-1.38729 2.7408,-3.15661 2.7964,-3.77748 0.017,-0.19104 0.021,-0.51809 0.01,-0.72677 -0.025,-0.41356 -0.2436,-0.54328 -2.9568,-1.75334 -1.7346,-0.7736203 -2.1493,-1.0791803 -2.8548,-2.1035803 l -0.5612,-0.81488 0.076,-1.2152 c 0.042,-0.66836 0.1853,-1.47515 0.3185,-1.79288 0.6365,-1.51921 2.0604,-3.09527 3.2888,-3.64028999 1.0344,-0.45889 3.2163,-0.99022 4.0523,-0.986769996953 0.994,0.003999997 2.4485,0.320479996953 2.9331,0.637969996953 0.6148,0.40284999 1.2049,1.46706999 1.4068,2.53735999 0.2251,1.19263 0.054,2.55955 -0.6858,5.47683 -0.4012,1.5826703 -0.7354,2.4592703 -1.6639,4.3645603 -1.3116,2.69151 -2.0356,3.86837 -3.6775,5.97769 -2.4973,3.20816 -5.9929,6.07861 -9.6088,7.89045 -1.970303,0.98725 -3.624503,1.484311 -3.928403,1.180411 z m 52.301003,-2.808671 -3.1265,-3.03482 1.5862,-1.54051 c 0.8724,-0.84728 2.2802,-2.21681 3.1284,-3.0434 l 1.5423,-1.50289 3.0421,3.04469 3.0421,3.04469 -3.044,3.03354 -3.044,3.033531 -3.1266,-3.034831 z m 26.1934,10.129351 -3.0425,-3.04509 3.0455,-3.04298 3.0456,-3.042971 2.1972,2.200811 2.1971,2.20081 2.2038,-2.20034 2.203804,-2.200351 2.9691,2.971771 c 1.633,1.63447 2.9691,3.0378 2.9691,3.1185 0,0.0807 -1.3375,1.48303 -2.9722,3.11629 l -2.9722,2.96957 -2.197204,-2.2008 -2.1971,-2.2008 -2.2038,2.20033 -2.2037,2.20033 -3.0425,-3.04508 z m -30.6034,-0.0085 -3.1356,-3.03725 3.1356,-3.03279 3.1356,-3.032791 2.2023,2.191421 2.2022,2.19142 2.1972,-2.20082 2.1971,-2.200811 3.0456,3.042981 3.0455,3.04298 -3.0425,3.04508 -3.0425,3.04508 -2.2031,-2.19971 -2.2032,-2.19971 -2.1993,2.19108 -2.1993,2.19108 -3.1356,-3.03724 z m 23.094,17.03762 c 0.826098,-0.461714 2.7065,-2.19017 2.7065,-2.48778 0,-0.44711 -2.5619,-1.0061 -6.9446,-1.51527 -1.4008,-0.16274 -1.9284,-0.0221 -1.774,0.47273 0.2404,0.77033 1.8233,2.33404 3.4416,3.39979 0.369466,0.243333 1.496964,0.723994 1.496964,0.723994 0,0 0.463073,-0.252271 1.073536,-0.593464 z m -52.7352,5.25596 c 0.3117,-0.25246 0.3219,-0.30685 0.139,-0.74827 -0.2761,-0.6666 -1.4124,-1.79074 -2.3585,-2.33323 -0.6513,-0.37345 -0.9617,-0.45792 -1.687,-0.45904 -0.5242,-8.8e-4 -1.0018,0.0813 -1.1644,0.20013 -0.2551,0.18657 -0.2615,0.26543 -0.086,1.06356 0.2253,1.02273 0.4318,1.28449 1.4055,1.78198 1.5702,0.80225 3.1191,1.0066 3.7511,0.49487 z m -18.494303,34.37955 c -1.7540999,-0.64534 -3.7594999,-1.08065 -6.4014999,-1.38957 -1.4413,-0.16852 -2.95059999,-0.35808 -3.35399999,-0.42123 -0.8659,-0.13555 -1.1261,0.0207 2.49389999,-1.49722 7.1752999,-3.00868 10.0736999,-4.35876 12.9828029,-6.04734 0.6051,-0.35125 2.4313,-1.40456 4.0581,-2.34068 1.6269,-0.93613 3.5743,-2.11548 4.3276,-2.62078 1.8731,-1.25633 5.2296,-3.78482 6.6509,-5.01012 1.4218,-1.22573 3.1295,-3.11581 3.2504,-3.59755 0.232,-0.92424 -0.2928,-2.59067 -1.0563,-3.35414 -0.4473,-0.44735 -1.5596,-0.46351 -2.7075,-0.0393 -0.4438,0.16397 -1.5,0.52812 -2.3472,0.8092 -3.3403,1.10827 -5.8258,0.73372 -7.6656,-1.15517 -1.152,-1.18271 -1.3913,-1.64559 -1.6716,-3.23272 -0.2243,-1.27008 -0.2324,-1.63689 -0.069,-3.15402 0.2629,-2.44484 0.518,-3.58506 1.4346,-6.41113 1.1705,-3.60883 2.448,-5.65142 4.0461,-6.46911 1.0969,-0.56128 3.3328,-1.23257 4.1053,-1.23257 1.0871,0 2.0823,0.64589 3.584,2.32592 2.0324,2.27385 2.8938,3.54295 4.4047,6.48952 0.6246,1.21823 0.9072,1.62641 1.1717,1.69282 0.5289,0.13273 2.2492,-0.0873 2.249,-0.28771 0,-1.5214 -0.5983,-5.48449 -1.0629,-7.05364 -0.5949,-2.00918 -3.6964,-8.03459 -5.0307,-9.77361 -0.8735,-1.13835 -2.2837,-2.418 -3.7422,-3.39574 -0.684,-0.45858 -1.3882,-0.9876 -1.5648,-1.17559 -0.4608,-0.49055 -0.7752,-1.32916 -0.7752,-2.06797 0,-0.91268 0.8233,-4.869761 1.3108,-6.300451 1.6695,-4.89878 4.5943,-9.14723 7.498,-10.89117 0.5206,-0.3127 1.3427,-0.83559 1.8268,-1.16198 2.5799,-1.73934 17.663,-9.1942603 23.1784,-11.4560203 0.6455,-0.2647 1.5037,-0.63191 1.9071,-0.81603 1.1287,-0.51511999 3.0352,-0.85912999 4.7971,-0.86561999 1.8633,-0.007 2.8453,0.17769 3.4946,0.65677 1.3633,1.00581999 1.522,2.42799999 0.5768,5.17027999 -0.6344,1.84049 -2.2744,5.1247603 -3.2726,6.5535703 -0.7155,1.02422 -1.8888,2.28345 -2.1275,2.28345 -0.2413,0 -0.2064,-0.61289 0.056,-0.9877 0.1231,-0.17572 0.4923,-0.7934 0.8205,-1.37262 0.5259,-0.92797 0.5857,-1.12741 0.5031,-1.67826 -0.077,-0.5117 -0.1977,-0.69715 -0.6663,-1.0218703 -0.8637,-0.59855 -1.5663,-0.79396 -2.8802,-0.80105 -1.6058,-0.009 -3.0492,0.33546 -4.8957,1.1672803 -0.8472,0.38163 -2.2005,0.98047 -3.0073,1.33075 -2.5421,1.1036 -9.0815,4.49345 -13.2739,6.88082 -2.2201,1.26426 -4.5647,2.58415 -5.2102,2.93308 -0.6454,0.34894 -1.3056,0.74574 -1.4669,0.88178 -0.1614,0.13605 -0.6164,0.43166 -1.0112,0.65692 -0.6786,0.38724 -3.0231,2.49339 -3.0231,2.71578 0,0.057 0.1816,0.18528 0.4035,0.28501 0.2218,0.0997 1.154,0.68795 2.0715,1.30716 3.2128,2.168421 3.7685,2.519021 4.899,3.090961 1.3578,0.68698 2.7888,0.96688 4.3577,0.85234 1.4674,-0.10713 2.6745,-0.38126 2.6044,-0.59145 -0.031,-0.0918 -0.4796,-0.44823 -0.9978,-0.79202 -1.793,-1.1895 -1.6411,-0.99583 -1.5765,-2.010231 0.075,-1.17797 0.637,-2.32636 1.7009,-3.47549 0.9947,-1.07441 1.5228,-1.44457 3.7185,-2.60671 1.5474,-0.81904 2.183,-0.99437 2.183,-0.60219 0,0.0639 -0.2414,0.46947 -0.5364,0.90117 -1.4696,2.15013 -1.7238,2.57505 -1.9098,3.19327 -0.3227,1.0723 -0.1497,1.29402 1.7335,2.22095 1.7862,0.879231 2.6212,1.613641 2.6179,2.302621 0,0.68775 -1.0842,2.42634 -2.0541,3.30406 -1.3674,1.23748 -2.3806,1.71604 -3.853,1.81994 -1.5792,0.11145 -4.2928,-0.16466 -6.3755,-0.64872 -0.907,-0.21078 -1.683,-0.34924 -1.7245,-0.30769 -0.042,0.0416 0.443,1.15893 1.0768,2.48308 0.6338,1.32415 1.2954,2.7925 1.4702,3.26301 0.1748,0.4705 0.4094,1.03264 0.5214,1.24919 0.2364,0.45723 0.8945,3.63035 1.0334,4.9829 0.232,2.25948 1.7896,6.04209 3.4598,8.40251 2.1683,3.06418 4.9061,5.18383 8.3891,6.4948 2.1217,0.79861 5.2564,0.97296 7.3895,0.41101 1.6572,-0.43657 5.0316,-1.5425 6.4686,-2.12001 l 1.2033,-0.48358 -0.9099,-0.81251 c -1.3251,-1.18326 -2.254,-1.81055 -3.3205,-2.24219 -2.1594,-0.87397 -7.3051,-1.99093 -9.1786,-1.99239 -1.6742,-10e-4 -5.0637,0.28988 -6.0728,0.5217 -0.5162,0.11857 -0.968,0.18603 -1.0041,0.14992 -0.115,-0.11495 0.6867,-3.63003 1.1429,-5.01129 0.5784,-1.75156 1.5724,-3.39899 2.6109,-4.32727 0.9933,-0.88779 4.7996,-2.82308 6.9049,-3.51069 2.472,-0.80739 8.1433,-1.86898 11.0287,-2.06442 3.4222,-0.23181 8.551,-0.10005 11.1351,0.28606 4.4224,0.66078 8.2836,2.12933 9.769,3.71549 0.7607,0.81236 0.7796,0.99004 0.2711,2.55478 -0.5655,1.74013 -3.5009,7.56149 -4.1491,8.22841 -0.2971,0.30556 -1.0674,0.81948 -1.7119,1.14206 -0.6444,0.32257 -1.8319,1.02057 -2.6387,1.55111 -0.8069,0.53054 -1.7527,1.12335 -2.1019,1.31736 l -0.6349,0.35274 0.6349,0.56162 c 1.4377,1.27178 2.8188,2.3226 3.6808,2.80064 1.3442,0.74541 3.5481,1.2111 8.1471,1.72152 1.3287,0.14746 1.9692,0.14748 3.2274,1e-4 2.1337,-0.24992 2.0901,-0.23245 1.9848,-0.7947 -0.048,-0.25771 -0.3028,-1.02969 -0.5655,-1.71551 -1.3647,-3.56132 -2.2694,-7.20309 -2.2699,-9.13661 -10e-5,-0.46648 0.1283,-1.22965 0.2854,-1.69594 0.258,-0.76582 3.280404,-6.68839 3.826704,-7.49845 0.2159,-0.32021 0.2515,-0.25343 0.9061,1.7006 0.3748,1.11864 0.8564,2.69404 1.0702,3.50088 0.2139,0.80685 0.6488,2.27604 0.9666,3.26489 0.3178,0.98884 0.6783,2.24312 0.8012,2.78727 0.1229,0.54416 0.3594,1.54257 0.5254,2.2187 0.2186,0.88994 0.2866,1.5582 0.2464,2.42053 -0.055,1.17944 -0.068,1.21436 -1.3296,3.53837 -0.7866,1.44913 -1.5031,3.01381 -1.8727,4.0895 -0.7339,2.13546 -1.1744,3.0249 -1.7298,3.49223 -0.810104,0.68164 -2.749604,1.56546 -4.502904,2.05199 -1.7154,0.476 -1.8298,0.48815 -4.4743,0.47535 -4.6779,-0.0226 -7.778,-0.75366 -10.3423,-2.43882 -2.499857,-1.718571 -4.716355,-5.637257 -5.494739,-6.255509 -2.736594,1.479621 -4.492781,2.769031 -7.461761,4.159299 -2.0481,0.92936 -5.5531,2.11878 -7.5813,2.57273 -2.7315,0.61134 -6.3149,0.38351 -9.0219,-0.5736 -1.1349,-0.40124 -3.3953,-1.71585 -4.4574,-2.59228 -0.9949,-0.82102 -3.162,-3.32613 -4.055,-4.68749 -1.2124,-1.84811 -1.1897,-1.82602 -1.607,-1.56492 -0.2033,0.12717 -0.6058,0.43227 -0.8946,0.67802 -0.2887,0.24574 -1.004,0.83966 -1.5894,1.31981 -1.2114,0.9934 -1.6537,1.72199 -1.9222,3.16609 -0.217,1.16668 -1.6959,7.76981 -1.921,8.57698 -0.6146,2.20348 -2.1795,3.86179 -8.1255,8.61032 -3.9333,3.14125 -5.9437,4.61831 -7.1476,5.25149 -0.4618,0.24288 -1.4346,0.83223 -2.1617,1.30967 -0.7271,0.47745 -2.1764,1.30256 -3.2207,1.83359 -2.202903,1.12013 -2.782603,1.19875 -4.413603,0.59865 z"
     style="fill:#000000;stroke:none" />
</svg>