<?xml version="1.0" encoding="UTF-8" standalone="yes"?>
<svg>
<path
	d="m 101.52719,21.45413 -5.751,5.955 5.955,5.751 5.751,-5.955 -5.955,-5.751 z m 22.41934,54.408357 4.443,4.443 6.39499,-6.394 -6.39499,-6.395 -4.443,4.443 -4.444,-4.443 -6.394,6.395 6.394,6.394 4.444,-4.443 z m 47.54452,-46.317264 4.443,4.443 6.39499,-6.394 -6.39499,-6.395 -4.443,4.443 -4.444,-4.443 -6.394,6.395 6.394,6.394 4.444,-4.443 z m -26.456,4.131972 -5.199,5.164 c -0.863,0.858 -0.986,1.012 -1.228,1.54 -0.338,0.74 -0.455,1.978 -0.289,2.146 0.538,0.543 2.442,-0.776 3.105,-1.264 5.802,-4.28 8.446,-6.975 9.384,-12.517 0.477,-2.816 -1.015,-3.906 -3.654,-4.266 -4.186,-0.57 -8.341,0.013 -9.967,3.166 0.254,12.034 0.611,5.152 4.161,4.298 3.95,-0.951 8.197,-3.062 3.687,1.733 z M 128.962,11.906678 c 1.218,-0.059 2.752,0.038 3.644,-0.311 0.821,-0.321 1.098,-1.022 1.347,-0.993 0.504,0.058 0.892,3.11 3.178,4.029 1.03,0.415 2.444,0.396 2.444,0.396 l 0.805,-6.5620001 6.16,-1.77 -0.487,-6.11699997 c 0,0 -0.931,-0.369 -1.673,-0.517 -1.917,-0.383 -3.804,1.10399997 -4.949,2.51399997 -1.157,1.426 -2.575,3.831 -2.575,3.831 0,0 -2.33,-2.278 -4.043,-3.319 -2.753,-1.673 -5.47,-1.172 -6.392,1.322 -1.37,3.702 -0.563,5.574 1.361,7.1150001 0.466,0.373 0.584,0.411 1.18,0.382 z m -8.257,23.821 c 0.118,1.652 0.247,3.445 0.288,4.026 0.103,1.435 3.22,4.239 4.428,4.143 0.227,-0.018 0.393,-0.031 0.393,-0.031 0,0 -0.067,-1.318 -0.133,-2.605 -0.136,-2.68 0.22,-1.264 -1.009,-3.079 -0.318,-0.47 -1.73,-2.555 -1.73,-2.555 0,0 4.518,-4.573 8.066,-8.125 1.171,-1.172 3.168,-2.815 5.477,-4.568 6.874,-5.217 11.597,-8.526 19.79,-11.306 0.655,-0.222 1.065,-0.357 1.065,-0.357 l 0.469,10.878 c 0,0 0.891,-4.494 2.49,-7.911 1.168,-2.497 5.677,-6.9960001 7.319,-7.3030001 1.689,-0.317 2.63,-0.409 3.764,-4.657 0.634,-2.37799997 -0.379,-2.59499997 -2.788,-1.99299997 C 158.026,2.9226779 134.823,18.576678 127.677,24.970678 c -0.724,0.648 -1.439,1.307 -2.147,1.974 -4.45,4.188 -5.186,3.759 -4.825,8.783 z m -92.794,23.249 c 0,0 4.009,-1.31 5.598,-0.948 0.838,0.191 1.705,1.699 2.25,2.855 0.987,2.098 1.939,4.8 2.3,6.945 0.121,0.714 0.251,1.372 0.986,1.624 0.463,0.158 1.167,0.168 1.167,0.168 0,0 0.002,-0.011 0.006,-0.033 0.351,-1.977 1.132,-5.293 1.332,-7.292 0.209,-2.1 0.162,-2.829 1.951,-2.696 2.702,0.201 3.62,0.678 4.807,-1.479 1.065,-1.934 2.233,-5.882 0.373,-7.162 -5.752,-1.549 -7.898,6.018 -8.259,7.751 -0.509,2.445 -0.722,5.068 -0.722,5.068 0,0 -1.409,-4.529 -2.445,-6.976 -1.166,-2.751 -4.175,-6.457 -7.421,-5.531 -1.613,0.46 -2.18,1.779 -2.179,3.525 10e-4,1.607 0.256,4.181 0.256,4.181 z m 40.576,-21.644 -5.325,5.289 c -0.885,0.879 -1.011,1.037 -1.258,1.578 -0.347,0.758 -0.467,2.026 -0.296,2.198 0.551,0.557 2.501,-0.794 3.18,-1.295 5.943,-4.383 8.651,-7.144 9.612,-12.82 0.488,-2.885 -1.039,-4.002 -3.742,-4.37 -4.289,-0.584 -8.544,0.014 -10.21,3.242 0.26,12.327 0.626,5.278 4.263,4.403 4.045,-0.973 8.395,-3.136 3.776,1.775 z m 10.753,-20.498 -0.476,-9.0700001 c -0.07,-1.345 -0.098,-1.58 -0.277,-2.342 -0.55,-2.336 -2.03,-3.616 -3.576,-4.44199997 -1.967,-1.05 -3.468,-1.441 -5.495,0.038 -1.667,1.216 -1.824,5.619 -1.168,6.308 0.488,0.514 1.784,0.467 3.351,0.099 3.916,-0.92 4.309,-0.708 5.329,3.4340001 0.484,1.967 0.541,3.811 0.303,5.79 -0.506,4.203 -1.696,6.248 0.635,8.715 0.971,1.027 1.984,1.182 4.197,0.726 1.573,-0.323 1.885,-1.054 2.544,-3.232 0.464,-1.533 0.831,-2.906 0.712,-4.434 -0.235,-3.032 -3.514,-8.7320001 0.437,-10.1480001 0.73,-0.261 1.678,-0.091 2.495,0.087 1.102,0.241 1.289,0.132 1.87,-1.088 0.477,-1.003 1.03,-1.926 1.333,-3.005 C 92.594,0.21867793 90.849,-0.92532207 87.346,0.73467793 83.328,2.6386779 81.523,10.795678 82.381,16.264678 c 0.263,2.254 0.551,4.284 0.551,4.284 0,0 -0.24,-0.003 -0.526,-0.031 -1.125,-0.111 -3.057,-1.604 -3.166,-3.683 z m -69.41,54.472 c -0.22,-0.128 -0.44,-0.259 -0.658,-0.395 L 0,65.224678 c 0,0 3.959,6.793 3.959,6.793 1.917,3.288 2.771,5.187 7.35,8.451 12.41,8.845 43.439,5.325 54.896,-0.101 5.88,-2.297 12.256,-5.424 15.303,-8.594 0.973,-1.011 3.116,-4.035 3.796,-5.767 0.404,-1.029 0.631,-2.188 1.068,-3.133 0.698,-1.514 1.323,-1.956 0.741,-3.297 -0.769,-1.773 -2.926,-2.698 -4.761,-2.829 -4.384,-0.314 -10.657,1.704 -12.083,-2.607 -0.333,-1.004 0.246,-1.602 1.497,-2.596 3.604,-2.862 8.094,-5.709 11.527,-6.304 0.986,-0.172 2.187,-0.269 2.705,0.15 0.65,0.526 0.332,1.158 1.495,0.783 0.715,-0.23 3.784,-5.969 3.603,-6.737 -0.176,-0.746 -1.933,-1.932 -3.261,-2.145 -3.092,-0.495 -12.053,5.605 -14.681,7.431 -3.685,2.56 -5.706,6.782 -6.446,12.956 -0.407,3.391 3.202,7.015 7.076,7.122 2.176,0.061 6.19,-1.487 7.733,0.32 0.248,0.29 0.333,1.094 -0.283,1.663 -0.172,0.158 -0.33,0.248 -1.582,0.894 -8.755,4.518 -14.246,6.989 -20.425,8.519 -33.041,5.929 -51.002,-5.822 -49.397,-4.89 z M 114.841,9.3906779 109.642,14.554678 c -0.863,0.858 -0.986,1.012 -1.228,1.54 -0.338,0.74 -0.455,1.978 -0.289,2.146 0.538,0.543 2.442,-0.776 3.105,-1.264 5.802,-4.28 8.446,-6.975 9.384,-12.5170001 0.477,-2.816 -1.015,-3.90599997 -3.654,-4.26599997 -4.186,-0.57 -8.341,0.013 -9.967,3.16599997 0.254,12.0340001 0.611,5.152 4.161,4.298 3.95,-0.951 8.197,-3.062 3.687,1.733 z m 70.291,41.5540001 c 0.195,-0.565 0.379,-1.172 0.551,-1.824 0.159,-0.602 0.274,-1.174 0.327,-1.696 0.266,-2.62 -1.011,-12.442 -1.659,-13.538 -1.371,-2.32 -2.568,-2.085 -4.067,0.183 -3.415,5.165 -1.631,5.482 -0.039,12.441 0.193,0.842 0.305,1.7 0.223,2.556 -0.11,1.155 -0.273,1.329 -1.623,1.74 -1.713,0.522 -3.521,1.2 -5.244,1.108 -0.929,-0.05 -5.179,-1.356 -6.32,-2.183 -1.888,-1.369 -4.661,-5.025 -4.661,-5.025 0,0 -1.221,4.833 -1.548,7.118 -0.068,0.474 -0.097,0.839 -0.039,1.255 0.079,0.561 0.146,0.769 0.662,2.08 l 4.291,10.903 c 0,0 -2.238,1.924 -4.105,3.384 -4.724,3.694 -17.283,9.626 -24.887,11.76 -12.701,3.565 -19.048,2.78 -2.112,5.309 0.06,0.009 0.12,0.018 0.18,0.026 6.462,0.884 10.715,-0.806 15.277,-3.159 1.747,-0.901 14.527,-7.04 16.392,-10.29 0.719,-1.254 1.178,-3.746 1.334,-5.579 0.113,-1.328 0.067,-2.31 0.39,-4.047 0.316,-1.704 0.987,-4.136 0.987,-4.136 0,0 1.614,0.124 3.492,-0.007 8.266,-0.575 10.988,-4.87 12.198,-8.379 z m -92.262,33.884 c -0.294,1.837 0.064,2.288 1.285,1.724 0.832,-0.384 11.564,-6.627 13.131,-8.496 0.631,-0.753 1.261,-2.084 1.483,-3.282 0.137,-0.738 -0.085,-0.712 -0.879,-0.417 -1.842,0.685 -13.983,8.076 -14.364,8.744 -0.355,0.624 -0.583,1.271 -0.656,1.727 z m -11.028,-0.06 c 1.26,-0.528 2.616,-1.207 4.19,-2.085 6.78,-3.778 13.913,-9.685 16.398,-13.301 1.763,-2.563 3.806,-7.553 3.159,-10.712 -0.242,-1.182 -0.894,-1.96 -0.907,-2.952 -0.009,-0.667 6.043,-5.623 6.98,-5.715 0.848,-0.084 1.742,-0.046 1.742,-0.046 0,0 -0.684,3.897 -0.349,6.627 0.324,2.639 2.896,5.936 4.883,7.086 3.108,1.797 8.544,1.372 11.475,-0.301 0.696,-0.396 3.843,-2.894 4.88,-2.998 0.947,-0.095 2.722,1.236 4.361,2.273 3.858,2.439 7.09,3.293 9.269,-0.02 0.665,-1.012 1.041,-2.423 1.675,-3.572 1.034,-1.873 2.183,-2.597 2.234,-4.645 0.042,-1.664 -1.087,-3.42 -1.089,-5.509 -0.002,-3.355 0.975,-4.392 -2.175,-5.081 -3.414,-0.747 -12.932,4.467 -15.029,7.7 -0.961,1.483 -1.034,3.392 -2.026,4.333 -0.75,0.713 -5.889,1.416 -7.841,1.145 -2.836,-0.394 -6.456,-4.471 -7.143,-7.287 -0.798,-3.273 -0.269,-10.28 -0.269,-10.28 0,0 -5.098,5.036 -8.161,7.275 -1.494,1.093 -2.895,1.735 -4.556,1.424 -4.139,-0.774 -4.943,-2.469 -5.792,2.031 -0.321,1.703 -0.579,3.108 -0.226,4.651 0.872,3.813 4.289,6.934 3.72,9.214 -0.513,2.057 -8.73,7.755 -11.494,9.519 -5.359,3.42 -14.609,7.4 -21.701,10.067 -5.123,1.926 -3.407,2.726 -0.758,3.034 2.183,0.254 4.834,0.117 7.054,-0.109 4.29,-0.437 5.002,-0.72 7.496,-1.766 z m 62.912,-33.544 c 0.544,0.589 0.058,2.141 0.375,3.187 0.378,1.246 1.991,2.648 -0.447,2.034 -0.902,-0.227 -5.345,-2.029 -4.587,-3.742 0.319,-0.721 3.768,-2.445 4.659,-1.479 z"
	style="stroke:none; fill:#000000"/>
</svg>