<?xml version="1.0" encoding="UTF-8" standalone="yes"?>
<svg>
  <path
    style="stroke:none; fill:#000000"
    d="m 17.8427,21.95496 -4.89,4.849 c -0.81,0.806 -0.92,0.951 -1.15,1.447 -0.32,0.695 -0.43,1.857 -0.27,2.015 0.5,0.51 2.29,-0.728 2.91,-1.187 5.45,-4.019 7.94,-6.55 8.82,-11.753 0.44,-2.645 -0.96,-3.669 -3.43,-4.006 -3.94,-0.536 -7.84,0.012 -9.36,2.972 0.23,11.301 0.57,4.839 3.9,4.036 3.71,-0.892 7.7,-2.875 3.47,1.627 z m 18.29,0.843 c -0.43,-6.898 -2.65,-22.798 -2.65,-22.798 0,0 -1.31,2.302 -1.99,3.656 -1.58,3.158 -0.7,5.749 0.35,11.731 0.76,4.28 1.75,9.97 2.06,14.712 0.29,4.414 -0.08,22.273 4.63,25.561 1.87,1.311 4.31,2.191 5.88,2.081 2.75,-0.19 6.2,-1.491 8.07,-3.518 l 1.68,-1.831 1.7,1.783 c 0.36,0.38 0.72,0.771 1.06,1.103 3.23,3.184 7.97,2.329 12.63,1.21 0.72,-0.174 1.31,-0.299 2.12,-0.911 0.31,-0.24 0.67,-0.555 1,-0.871 l 1.27,-1.215 0.59,0.949 c 0.2,0.316 0.43,0.648 0.67,0.909 0.84,0.915 2.89,1.168 4.04,1.025 1.01,-0.123 2.11,-0.626 3.13,-1.057 l 2.59,-1.097 1.79,1.769 c 0.41,0.401 0.85,0.828 1.39,1.183 0.09,0.061 0.25,0.149 0.46,0.253 4.87,2.435 5.8,0.706 7.63,-3.853 1,-2.498 1.26,-5.096 0.66,-7.88 -0.46,-2.138 -1.6,-5.625 -1.6,-5.625 0,0 -1.46,1.905 -2.21,3.096 -0.69,1.099 -0.77,1.589 -0.7,2.323 0.18,2.147 1.57,6.388 1.17,7.016 -0.19,0.299 -1,-0.427 -2.31,-1.092 -1.38,-0.7 -3.65,-2.365 -3.81,-2.931 -0.27,-0.986 0,-2.355 0,-2.355 l -0.52,0 c -0.24,0 -0.31,0.091 -0.75,0.91 -1.55,2.883 -1.36,3.267 -4.23,3.418 -1.6,0.084 -2.4,0.202 -3.54,-0.848 -0.97,-0.892 -2.38,-2.658 -2.38,-2.658 0,0 -1.54,1.848 -2.5,2.64 -1.46,1.2 -5.9,1.808 -8.82,1.801 -2.68,-0.007 -5.02,-1.556 -7.2,-3.015 -0.74,-0.492 -1.28,-0.911 -1.36,-1.109 -0.24,-0.612 -0.07,-2.308 -0.8,-2.05 -0.36,0.13 -0.8,0.916 -1.08,1.594 -0.16,0.384 -0.26,0.734 -0.37,1.051 -0.99,2.995 -7.75,4.222 -10.27,3.324 -2.49,-0.889 -4.73,-2.76 -5.48,-4.375 -0.38,-0.832 -0.92,-4.956 -1.32,-9.07 l -0.68,-14.939 z m -26.67,-11.641 c -0.31,1.923 0.07,2.394 1.35,1.805 0.87,-0.402 12.09,-6.934 13.73,-8.889 0.66,-0.788 1.32,-2.181 1.56,-3.435 0.14,-0.772 -0.09,-0.744 -0.92,-0.435 -1.93,0.716 -14.63,8.449 -15.03,9.148 -0.37,0.652 -0.61,1.329 -0.69,1.806 z m 39.41,2.669 -0.12,-2.732 c -0.05,-1.104 -0.03,-1.302 0.16,-1.978 0.14,-0.502 0.29,-1.051 0.67,-1.405 0.93,-0.861 3.23,-0.563 4.29,-1.273 1.54,-1.022 1.54,-4.533 0.36,-5.956 -1.25,-1.509 -3.78,0.887 -4.82,2.259 -0.64,0.842 -1.24,1.807 -1.51,2.933 -0.13,0.522 -0.2,1.115 -0.3,1.634 l -0.48,2.54 -1.59,-2.022 c -2.17,-2.865 -1.51,-3.717 -4.7,-4.496 -1.08,-0.261 -3.4,-0.163 -3.85,1.043 -0.34,0.943 0.48,3.238 0.99,3.783 0.39,0.419 1.99,1.459 2.66,1.523 1.07,0.104 3.28,-0.553 3.28,-0.553 0,0 1.78,2.563 2.87,3.767 0.47,0.525 0.87,0.948 1.48,0.959 0.25,0.005 0.61,-0.026 0.61,-0.026 z m -8.16,15.459 c -0.04,-0.952 -0.14,-2.147 -0.46,-2.448 -0.18,-0.174 -0.43,-0.048 -0.58,-0.142 -0.71,-0.424 0.49,-2.172 1.06,-2.841 5.2,-6.066 18.67,-13.598 25.78,-15.156 0.68,-0.148 1.36,-0.268 1.49,-0.039 0.06,0.115 -0.01,0.315 -0.12,0.541 -0.26,0.532 -0.67,1.175 -1.13,1.865 -9.47,14.31 5.48,-5.549 9.72,-6.107 0.39,-0.191 0.75,-0.346 1.07,-0.447 1.65,-0.52 3.44,-0.63 3.66,-2.212 0.03,-0.222 0.03,-0.499 0.02,-0.767 -0.07,-2.592 -4.3,-1.352 -7.28,-0.219 -2.76,1.05 -6.85,2.779 -11.2,4.789 -5.62,2.602 -22.46,10.41 -24.82,17.193 -0.77,2.185 -0.63,4.634 0.9,6.74 0.06,0.091 0.12,0.172 0.17,0.246 -0.68,-0.933 1.87,2.989 1.72,-0.996 z m 39.71,7.206 -4.88,4.85 c -0.81,0.805 -0.93,0.95 -1.15,1.446 -0.32,0.695 -0.43,1.857 -0.28,2.015 0.51,0.51 2.3,-0.728 2.92,-1.187 5.45,-4.018 7.93,-6.55 8.81,-11.753 0.45,-2.645 -0.95,-3.669 -3.43,-4.006 -3.93,-0.535 -7.83,0.012 -9.36,2.972 0.24,11.301 0.58,4.839 3.91,4.036 3.71,-0.892 7.7,-2.875 3.46,1.627 z m 18.8,-24.164 0.47,8.378 2.24,40.935 c 0,0 1.52,-1.521 2.43,-2.906 1.29,-1.963 1.36,-3.652 1.74,-5.536 0.31,-1.479 0.33,-1.809 0.2,-3.302 l -2.45,-29.205 -0.23,-4.958 c 0.24,0.134 0.48,0.255 0.7,0.362 l 3.76,1.865 -0.72,-1.982 c -0.08,-0.225 -0.16,-0.463 -0.25,-0.703 -1.05,-2.879 -1.63,-5.726 -2.32,-8.678 -0.67,-2.826 -1.56,-6.59 -1.56,-6.59 0,0 -0.63,-0.034 -1.2,0.049 -1.6,0.228 -5,5.3 -5.22,6.452 -0.02,0.109 -0.03,0.218 -0.04,0.326 -0.01,0.239 0.01,0.489 0.05,0.748 0.29,1.857 1.23,3.441 2.4,4.745 z m -49.19,25.212 3.82,3.698 4.68,-4.534 -4.68,-4.534 -3.82,3.697 -3.82,-3.697 -4.69,4.534 4.69,4.534 3.82,-3.698 z m -25.96,-13.1 -4.69,4.534 4.69,4.533 4.68,-4.533 -4.68,-4.534 z m 59.79,38.194 -0.56,2.93 c 0,0 -1.13,-0.17 -2.02,-0.089 -0.97,0.091 -2.4,1.161 -3.5,1.733 -1.06,0.559 -1.68,0.475 -2.31,-0.261 -2.62,-3.045 -2.17,-5.163 -5.33,-3.27 -4.04,2.41 -5.45,4.685 -8.95,5.467 -1.85,0.415 -8.6,1.063 -10.04,0.911 -5,-0.529 -13.65,-3.298 -13.84,-2.734 -0.51,1.522 3.19,3.281 5.75,4.258 2.32,0.886 4.21,1.732 6.48,2.121 2.95,0.502 8.79,0.099 12.21,-1.093 1.72,-0.596 3.33,-1.476 4.7,-2.507 2.93,-2.212 5.3,-5.432 6.75,-1.867 0.99,2.438 1.32,3.5 4.38,2.21 2.4,-1.012 3.23,-2.151 5.38,-1.185 2.13,0.953 3.17,1.925 3.53,-0.565 0.27,-1.839 -0.22,-4.923 -1.29,-6.611 -0.23,-0.365 -0.44,-0.532 -0.93,-0.479 -0.19,0.021 -0.23,0.124 -0.41,1.031 z m -83.21,-1.518 -0.45,2.638 c -1.27,6.842 3.58,10.122 10.26,10.157 0.61,0.003 1.22,-0.027 1.83,-0.097 1.35,-0.153 8.28,-2.883 9.84,-3.872 2.49,-1.583 8.23,-5.659 9.13,-6.895 0.45,-0.614 3.48,-9.714 2.65,-12.507 -0.38,-1.299 -2.33,-3.498 -3.72,-4.319 -1.76,-1.045 -4.67,-1.856 -5.83,-3.158 -0.61,-0.691 -1.18,-1.608 -1.18,-1.608 l 1.26,-0.398 2.98,-0.94 -2.66,-2.495 c -0.68,-0.638 -1.65,-1.325 -2.86,-2.322 -1.07,-0.884 -3.51,-3.238 -4.68,-2.716 -1.86,0.837 -1.85,4.876 -1.6,5.942 1.19,5.072 3.16,7.831 7.18,10.701 1.34,0.955 9.42,4.999 8.62,8.264 -0.17,0.729 -1.03,1.426 -1.88,2.087 -5.07,3.959 -10.27,7.124 -16.62,8.086 -2.41,0.365 -6.04,0.195 -8.09,-1.708 -0.41,-0.38 -0.87,-0.895 -1.25,-1.355 l -2.93,-3.485 z m 90.24,-56.143 c 0.15,0.188 0.09,0.589 0,0.943 -0.12,0.52 -1.45,3.562 -2.27,3.69 -0.53,0.082 -3.28,-2.445 -3.55,-3.123 -0.55,-1.39 1.92,-2.368 3.09,-2.572 0.95,-0.166 1.89,-0.009 2.73,1.062 z m -1.17,7.147 0.21,-0.33 c 0,-10e-4 0,-0.002 0,-0.003 0.04,-0.864 1.05,-2.119 1.73,-3.342 1.48,-2.68 1.89,-6.016 -0.06,-7.381 -2.13,-1.492 -4.28,-1.34 -6.12,0 -2.25,1.637 -2.75,2.555 -3.06,3.982 -0.22,1.003 -0.21,2.628 0.19,3.388 0.89,1.677 3.4,3.739 3.4,3.739 0,0 -2.2,1.984 -4.28,3.603 -3.64,2.828 -11.97,7.007 -17.21,9.273 -6.7,2.891 -3.79,3.095 -1.6,2.953 4.74,-0.307 14.35,-5.089 17.51,-7.328 0.26,-0.18 0.51,-0.361 0.75,-0.54 2.89,-2.162 6.77,-5.315 6.91,-5.426 l 0.13,-0.217 c 0.22,0.275 0.68,0.869 0.98,1.369 0.53,0.869 0.58,1.456 0.62,2.194 0.24,4.294 0.09,6.546 3.47,7.378 0.66,0.163 1.25,0.157 1.85,0 2.37,-0.614 3.36,-2.342 2.53,-4.223 -0.6,-1.358 -3.23,-4.859 -4.04,-3.953 -0.78,0.874 0.81,2.335 1.44,3.988 0.37,0.961 0.41,1.48 -0.52,1.311 -1.06,-0.195 -2.65,-1.196 -2.88,-1.51 -0.73,-1.004 -0.68,-5.163 -1.38,-7.333 -0.2,-0.619 -0.49,-1.104 -0.57,-1.592 z"/>
</svg>