<?xml version="1.0" encoding="UTF-8" standalone="no"?>
<svg>
  <path
     d="M 0.46779143,97.376969 C 1.4467684,103.29564 6.5765424,108.08444 12.59883,108.43545 c 8.486855,1.32479 17.277444,-1.28405 24.516272,-5.63409 4.55178,-3.519173 6.63741,-9.290165 8.40214,-14.575845 0.36049,-4.72826 3.83913,-9.136328 0.75641,-13.685587 0.7461,-3.082331 2.41016,-5.007518 -0.25937,-8.522188 -2.8589,-2.784784 -2.01493,-9.961452 -6.56368,-10.036424 -3.50956,4.206135 -5.49486,10.020501 -2.64515,15.134326 1.81036,5.624161 3.91194,11.165059 5.36287,16.900881 -0.50426,3.201362 -6.78768,4.870509 -10.199401,6.568789 -7.534894,2.913041 -17.410182,4.216941 -23.7772006,-1.837765 -2.727093,-1.529687 -3.597111,-8.726349 -5.368955,-7.859631 -2.10945397,3.738402 -3.63267997,8.2072 -2.35497397,12.489053 z M 24.049427,8.1974203 c -1.524496,2.8770117 -4.128947,5.2203197 -7.101908,6.4840577 0.342576,0.369131 -0.477879,2.989967 -0.440717,4.234121 3.493878,0.489271 5.57603,-2.877372 7.573002,-5.156365 0.960863,-1.317309 1.904645,-2.658371 2.660599,-4.1061647 -0.193504,0.4781907 1.388346,-2.450848 1.572539,-3.476162 1.10571,-2.2550405 0.14571,-5.37504404 -2.551952,-5.79149684 -5.176372,-1.3523916 -11.193207,0.91486164 -13.600456,5.85015884 -0.792669,1.588425 -1.342208,3.310969 -1.476428,5.0932217 1.710157,1.544638 3.775789,-0.58969 5.523282,-1.17369 1.082757,-3.1778067 10.569754,-5.099122 7.842039,-1.9576807 z M 57.049422,0.43066912 c -3.34334,-1.98609062 -6.97315,3.32096558 -8.51335,7.26652938 -0.36284,0.7888837 -0.40376,1.7961963 -0.0662,3.7306955 0.8235,4.829003 3.47224,9.273921 3.46278,14.235699 -0.7136,2.727691 -1.66815,5.410127 -1.32339,8.292704 -0.12566,7.364159 0.22703,14.747615 1.14661,22.057021 1.41338,12.949777 2.26007,25.947783 3.26429,38.930688 -0.004,0.861801 0.42707,5.203714 0.17679,2.800496 0.0244,2.371748 1.28423,-1.684511 1.76411,-2.471253 1.36066,-3.243778 3.55542,-6.351506 3.7934,-9.927453 -0.68171,-10.164332 -2.31982,-20.233947 -3.1759,-30.390697 -1.08942,-9.48742 -1.03984,-19.063531 -0.6175,-28.585611 1.81231,-0.188886 3.17031,0.324612 3.69877,-1.708178 0.67851,-3.797724 -0.68202,-7.65573 -1.14037,-11.437394 -0.69429,-4.2894352 -1.65534,-8.5242415 -2.47001,-12.79324688 0.13248,0.79295468 0.10321,0.61757668 0,0 z m 12.12595,2.84681538 c -1.79053,0.1192676 -4.29261,-0.4127179 -3.36626,2.1932401 0.0929,2.5041698 0.18584,5.0083274 0.27875,7.5124974 4.72328,-1.020285 6.60005,-1.852792 8.70093,2.455093 -0.10197,1.51532 3.20783,3.131868 2.4642,2.655097 0.16416,0.08441 1.30393,-2.171478 1.09668,-3.779772 1.10442,-3.418944 6.18403,-4.014597 6.1298,-7.9688263 0.21854,-1.9798285 0.45995,-3.9875939 0.31148,-5.97805427 -2.31934,-0.97819287 -5.50377,0.046188 -6.46756,2.52608117 -0.85857,1.4855529 -1.74859,2.9602248 -2.44265,4.531618 -3.61301,-3.648279 -2.92002,-4.1093264 -6.70537,-4.1469741 z M 68.348462,38.25185 c 0.42386,0.178005 2.07917,-2.14206 2.73083,-3.193344 5.50416,-6.163106 12.98274,-10.190178 18.51864,-16.313544 1.30966,-1.757117 1.29923,-4.187859 1.2423,-6.29542 -3.47264,0.08516 -6.0023,2.993876 -8.63231,4.929645 -4.02373,3.657081 -6.21972,5.350431 -9.61821,8.778015 -2.83715,2.122688 -9.47077,11.408822 -4.24125,12.094648 z m -15.18083,73.96161 c 8.24929,0.51707 15.92815,-3.4736 22.35242,-8.27117 4.63835,-3.30002 9.22374,-7.000037 11.85067,-12.180493 3.62976,-6.594536 6.02907,-14.324988 4.96844,-21.897019 -1.16674,-4.852757 -3.84667,-9.287604 -6.90775,-13.172824 -2.53759,-2.899185 -6.0746,-6.495163 -10.2964,-5.354726 -5.27002,2.084878 -7.03912,7.972112 -8.51291,12.912539 -1.01762,4.733053 -1.83387,10.672813 2.07271,14.349676 3.70591,2.226194 8.44826,1.808347 12.44589,0.6674 1.60947,-0.331783 3.31444,-1.98741 4.89689,-1.336232 2.90651,1.778119 1.99726,5.991662 -0.15481,8.02907 -3.85888,4.145069 -8.74689,7.146988 -13.37381,10.349059 -6.45623,4.18523 -14.15098,5.49273 -21.40076,7.66252 -3.77887,1.06961 -7.67077,1.84812 -11.26294,3.47773 2.35822,0.92544 -2.4146,0.0813 -0.0884,2.47 3.71427,2.20159 8.30422,1.75351 12.46327,2.22666 0.31583,0.0227 0.63165,0.0452 0.94748,0.0678 z m 26.55632,-44.466366 c -2.61235,0.03996 -6.18622,0.699807 -7.76484,-1.940898 -0.61819,-1.990597 -0.0169,-3.234901 2.20607,-2.646793 1.93297,0.753913 4.25861,1.660246 5.32231,3.46273 -0.006,0.893398 0.4255,-0.05889 0.23646,1.124961 z M 22.879889,51.660657 c -2.23512,2.264589 -4.470254,4.529178 -6.705374,6.793767 2.23512,2.23471 4.470254,4.46942 6.705374,6.704129 2.264589,-2.234709 4.529178,-4.469419 6.793767,-6.704129 -2.264589,-2.264589 -4.529178,-4.529178 -6.793767,-6.793767 z m 62.835743,2.475009 0.69868,-0.0125 c 0.31372,-0.005 0.39871,-0.19623 0.84242,-1.91106 2.55349,-9.85775 3.01969,-15.30095 -3.26217,-21.62406 -1.03365,-1.04114 -2.23978,-1.91355 -3.01595,-0.98115 -0.52619,0.63369 -1.06489,5.10324 -0.82491,6.07814 0.4212,1.70732 1.66483,2.26102 3.10343,3.41965 3.24592,2.61724 4.05959,4.58204 3.64713,8.06793 -0.31747,2.67598 -1.18863,6.96305 -1.18863,6.96305 z"
     style="fill:#000000;stroke:none" />
</svg>