<?xml version="1.0" encoding="UTF-8" standalone="yes"?>
<svg>
  <path
     style="fill:#000000;stroke:none"
     d="m 52.803173,9.175123 c 0.42125,-0.015 0.8575,-0.07 1.26625,-0.1925 1.065,-0.31625 1.9425,-1.085 1.9425,-1.085 0,0 1.09125,3.88499 2.09,5.90812 0.3325,0.672 0.65375,1.13837 0.82625,1.73087 0.2975,1.02888 0.2225,1.681 0.92375,1.25075 0.62875,-0.38575 1.5025,-2.32062 1.39875,-3.09975 -0.0888,-0.66712 -0.53375,-1.15337 -0.7175,-1.8025 -0.285,-1.00125 0.66625,-4.47749 1.25125,-5.04249 0.28375,-0.27375 0.69625,-0.32875 1.19125,-0.35125 0.2775,-0.0125 2.67999,0.0913 3.49624,-0.2525 0.3425,-0.145 0.38125,-0.29125 0.38125,-1.45375 l 0,-2.6824998 c 0,-1.16249999 -0.0387,-1.32249999 -0.3875,-1.59749999 -0.8275,-0.6525 -1.3475,-0.56125 -2.17125,-0.34125 -1.44249,0.38625 -3.40749,1.57249999 -3.83249,2.33874999 -1.19375,2.1487498 -1.7575,7.8012398 -1.7575,7.8012398 0,0 -0.865,-2.28124 -1.1875,-4.50749 -0.0113,-0.0763 -0.0225,-0.15125 -0.0312,-0.2275 -0.3225,-2.4812498 -3.7725,-5.24499979 -7.07,-3.4537498 -0.60875,0.33 -1.0725,0.8475 -1.3125,1.5512498 -1.1375,3.345 1.36375,5.59124 3.7,5.50875 z m -39.55372,0 c 0.42125,-0.015 0.8575,-0.07 1.26625,-0.1925 1.06499,-0.31625 1.94249,-1.085 1.94249,-1.085 0,0 1.09125,3.88499 2.09,5.90812 0.3325,0.672 0.65375,1.13837 0.825,1.73087 0.29875,1.02888 0.22375,1.681 0.925,1.25075 0.62875,-0.38575 1.5025,-2.32062 1.39875,-3.09975 -0.0888,-0.66712 -0.53375,-1.15337 -0.7175,-1.8025 -0.285,-1.00125 0.66625,-4.47749 1.25125,-5.04249 0.28375,-0.27375 0.69625,-0.32875 1.19,-0.35125 0.27875,-0.0125 2.68,0.0913 3.4975,-0.2525 0.3425,-0.145 0.38,-0.29125 0.38,-1.45375 l 0,-2.6824998 c 0,-1.16249999 -0.0387,-1.32249999 -0.38625,-1.59749999 -0.8275,-0.6525 -1.3475,-0.56125 -2.17125,-0.34125 -1.4425,0.38625 -3.4075,1.57249999 -3.8325,2.33874999 -1.195,2.1487498 -1.7575,7.8012398 -1.7575,7.8012398 0,0 -0.865,-2.28124 -1.18875,-4.50749 -0.01,-0.0763 -0.0213,-0.15125 -0.0312,-0.2275 -0.32125,-2.4812498 -3.77124,-5.24499979 -7.06874,-3.4537498 -0.60875,0.33 -1.0737499,0.8475 -1.3124999,1.5512498 -1.1375,3.345 1.3637499,5.59124 3.6999999,5.50875 z m 37.63747,26.055604 c 0.815,0.6525 1.805,1.157374 2.10875,0.7625 0.2325,-0.301 0.0412,-3.687623 -0.19625,-3.961248 -0.45875,-0.526125 -1.6575,-0.593875 -1.9375,-1.110374 -0.24375,-0.4525 0.225,-1.407249 0.6675,-2.107872 2.92875,-4.64325 15.94874,-12.66999 18.51749,-13.98599 0.595,-0.30513 1.14625,-0.56 1.355,-0.373 0.31875,0.2855 -0.16125,1.60225 -0.56125,3.02162 -0.42375,1.512 -0.6275,3.2515 -0.23875,3.58337 0.81625,0.699 0.99125,-0.4195 1.22375,-1.33925 1.10125,-4.34349 8.065,-10.56661 11.17999,-12.15786 1.865,-0.95375 4.11375,-1.4975 4.80125,-3.15875 0.015,-0.0363 0.11375,-0.6525 0.215,-1.4087498 0.57125,-4.27125 -0.75,-3.18374999 -3.74375,-1.5625 -7.51999,4.0712498 -24.89998,15.7239898 -28.25998,18.1077398 -0.105,0.0744 -0.2125,0.1515 -0.32125,0.231 -4.32875,3.14887 -11.55624,10.055117 -4.81,15.459364 z m -26.27998,20.503988 0.64,-0.01112 c 0.2875,-0.0051 0.365,-0.180125 0.7725,-1.750874 2.33875,-9.032745 2.76625,-14.020742 -2.98875,-19.813738 -0.9475,-0.953875 -2.0525,-1.754249 -2.76375,-0.89925 -0.4825,0.58025 -0.97625,4.675247 -0.75625,5.569247 0.385,1.563999 1.52625,2.071624 2.8425,3.133498 2.975,2.398373 3.72125,4.197747 3.3425,7.392245 -0.29,2.451624 -1.08875,6.379997 -1.08875,6.379997 z m 73.26495,17.334489 4.392497,-4.729372 -5.657487,-6.092121 -5.65875,6.092121 4.3925,4.729372 -4.3925,4.729372 5.65875,6.091996 5.657487,-6.091996 -4.392497,-4.729372 z m -70.47245,15.341116 4.39249,4.729372 5.65875,-6.091997 -5.65875,-6.091996 -4.39249,4.729247 -4.3925,-4.729247 -5.65875,6.091996 5.65875,6.091997 4.3925,-4.729372 z m 30.89373,-6.159872 c -0.42,0.388875 -0.85875,0.788625 -1.18625,1.212625 -0.17875,0.231374 -0.34125,0.500624 -0.4875,0.798624 -2.08125,4.250247 -1.17375,11.024616 4.74,8.215995 1.51625,-0.720125 2.93374,-1.804499 3.65249,-2.470623 2.16875,-2.008499 4.36875,-4.471498 5.06125,-5.474622 0.23875,-0.34525 1.03625,-1.642499 0.77125,-1.930999 -0.325,-0.35325 -2.315,1.371999 -2.6375,1.644749 -1.44,1.215624 -3.99625,3.294123 -6.42124,4.169248 -1.77375,0.639874 -6.5325,0.560249 -3.90625,-3.224499 0.8,-1.151749 2.035,-2.373373 2.695,-3.450872 1.57,-2.562124 1.33375,-5.353372 -1.01875,-6.030872 -2.4025,-0.691874 -5.195,2.112124 -6.05,5.261122 -0.18125,0.667375 -0.25,1.346999 0,1.631124 0.705,0.80025 1.6975,-0.600875 2.345,-1.626124 0.6725,-1.065749 0.9925,-1.415374 2.155,-1.304624 3.0275,0.288875 0.845,2.063374 0.2875,2.579748 z m -0.2275,-37.855727 c 0.815,0.652375 1.80375,1.157375 2.10875,0.762375 0.2325,-0.301 0.0412,-3.687748 -0.1975,-3.961248 -0.4575,-0.525999 -1.65625,-0.593749 -1.93625,-1.110249 -0.245,-0.4525 0.225,-1.407374 0.6675,-2.107999 2.9275,-4.643247 15.94874,-12.669867 18.51624,-13.985867 0.59625,-0.30525 1.1475,-0.56 1.35625,-0.37325 0.31875,0.28575 -0.1625,1.60225 -0.56125,3.022 -0.425,1.51187 -0.6275,3.251497 -0.23875,3.583372 0.81625,0.698625 0.99125,-0.41975 1.22375,-1.339502 1.10125,-4.34349 8.06499,-10.56637 11.17999,-12.15799 1.865,-0.95337 4.1125,-1.4975 4.80125,-3.159 0.015,-0.036 0.11375,-0.65175 0.215,-1.40837 0.57125,-4.27012 -0.75,-3.18387 -3.74375,-1.56263 -7.52,4.072 -24.89999,15.72424 -28.25998,18.10787 -0.105,0.0745 -0.2125,0.15137 -0.32125,0.23087 -4.32875,3.148876 -11.5575,10.055372 -4.81,15.459618 z m 26.30998,22.872361 c 0,0 2.31125,-5.479746 2.74125,-7.27937 0.2425,-1.015999 -0.35125,-1.488999 -2.2675,-2.067624 -2.27125,-0.685749 -4.56124,-0.375375 -6.00249,-1.148749 -1.47,-0.78875 -2.05625,-2.704248 -4.80125,-4.451247 -1.11375,-0.709125 -2.5825,-1.3905 -2.5825,-1.3905 0,0 3.0625,-2.564623 5.25,-4.209622 3.76624,-2.831623 10.93624,-6.692996 15.05124,-3.503998 0.37625,0.291625 0.50625,0.395125 0.91,0.12425 0.67375,-0.451625 1.9675,-3.272373 2.325,-4.901122 0.8175,-3.719248 -1.64375,-4.737372 -5.57875,-3.780623 -8.6,2.090749 -8.32625,3.479873 -15.74624,8.599495 -1.5,1.034875 -2.99,1.812374 -4.7675,2.395249 -8.32749,2.730123 -9.23124,1.288499 -10.42249,5.637121 -0.4625,1.685124 -1.05875,4.184373 -0.71,4.619497 0.32625,0.40875 1.30625,-0.077 2.68,-0.275749 2.2325,-0.322875 5.50374,-0.164125 6.92249,0.850124 1.06375,0.76075 2.52625,2.243499 2.52625,2.243499 0,0 -0.7825,0.372124 -1.45875,0.628124 -4.73749,1.791999 -14.53624,-0.608749 -17.60624,-3.733247 -7.89624,-8.036245 -5.46749,-38.014357 -5.33499,-44.297477 0.0263,-1.23375 0.2575,-12.04123979 -1.36375,-11.28748979 -1.215,0.56625 -2.26125,4.21249979 -2.37,4.74874979 -0.3375,1.66 1.16125,36.198851 1.80625,41.625222 1.2675,10.665119 2.7275,17.894364 12.12499,20.423363 6.49625,1.747874 9.52999,0.160875 17.27874,-2.022624 1.4225,-0.401 2.8175,-0.56325 4.40125,-0.191375 2.6925,0.632625 6.99499,2.646123 6.99499,2.646123 z M 8.1832031,57.580963 c -0.3825,-0.297874 -0.73375,-0.616749 -1.055,-0.958874 -1.55,-1.650624 -2.5375,-1.777999 -3.0375,-43.174096 -0.12625,-6.23912 0.0438,-13.11161979 -0.4675,-13.39786979 -0.79875,-0.44875 -2.73249998,2.23124999 -3.35499998,4.71374979 -0.53,2.115 -0.18625,7.61724 0.27,12.43862 -0.0238,5.03224 1.25749998,15.442111 1.21499998,32.525975 -0.0825,5.629747 0.46625,11.686868 3.14625,14.285866 5.02125,4.868622 13.3312399,4.452373 19.8637399,4.097623 2.1825,-0.1185 4.00125,-0.2535 5.55875,-0.524 8.19124,-1.422874 11.55999,-10.660868 8.83749,-18.023739 -0.955,-2.581998 -2.09625,-5.243996 -2.52,-5.655371 -0.2825,-0.274125 -0.5425,-0.372625 -0.83,-0.20725 -1.3875,0.798999 -3.19625,6.519496 -2.57625,7.851495 0.25375,0.545125 0.8325,0.971374 1.35625,1.720749 0.045,0.06462 0.295,0.575875 0.61,1.271124 1.35125,2.983123 2.91625,5.161872 -0.8975,5.719247 -8.93999,1.306749 -21.90498,1.854249 -26.1187299,-2.683249 z M 32.684433,30.543355 c 0.66875,-0.04125 1.265,-0.3205 1.665,-0.937624 0.36875,-0.569498 0.585,-1.410748 0.48,-2.298128 -0.0725,-0.60425 -0.2,-0.69062 -1.27,-0.8635 -4.41624,-0.71375 -5.32874,-2.02224 -4.82249,-6.41424 0.5125,-4.45237 0.955,-8.306 3.15499,-10.25225 2.9325,-2.59249 5.69125,-2.81374 5.79125,-6.01874 0.0362,-1.1749998 -0.18125,-1.3437498 -0.8775,-1.0412498 -0.17125,0.0737 -0.3525,0.15875 -0.5425,0.2525 -8.32624,4.1287498 -17.59999,11.7917398 -24.10498,18.7389898 -2.4537499,2.621 -3.2212499,5.04187 -2.08375,8.758117 0.635,2.075874 3.92375,9.132869 5.46874,7.466745 0.40875,-0.440874 0.40875,-2.980498 0,-3.543747 -0.44875,-0.61725 -1.23124,-0.674625 -1.86749,-1.33825 -0.4775,-0.497999 -0.87125,-1.337249 -1.25,-2.160248 -1.6775,-3.644997 -0.58375,-4.444127 2.01125,-7.346497 2.75374,-3.0805 8.83249,-7.55674 12.70624,-10.01874 1.5625,-0.99275 1.39,1.389 0.98625,3.42637 -2.09375,10.52674 0.42875,13.843992 4.55499,13.590492 z" />
</svg>
