<?xml version="1.0" encoding="UTF-8" standalone="yes"?>
<svg>
  <path
    style="stroke:none; fill:#000000"
    d="m 58.741,46.603842 0.647,-0.011 c 0.29,-0.005 0.368,-0.182 0.779,-1.768 2.363,-9.123 2.795,-14.161 -3.018,-20.012 -0.958,-0.964 -2.073,-1.772 -2.792,-0.909 -0.487,0.587 -0.985,4.722 -0.763,5.626 0.389,1.579 1.541,2.092 2.871,3.164 3.005,2.423 3.758,4.24 3.376,7.467 -0.293,2.476 -1.1,6.443 -1.1,6.443 z m 35.586,-6.879 c -0.047,-1.291 -0.193,-2.913 -0.618,-3.321 -0.246,-0.236 -0.585,-0.064 -0.798,-0.192 -0.958,-0.575 0.671,-2.947 1.448,-3.854 7.049,-8.229 25.318,-18.445 34.971,-20.559 0.92,-0.201 1.839,-0.364 2.013,-0.053 0.086,0.155 -0.011,0.427 -0.16,0.734 -0.349,0.721 -0.907,1.594 -1.526,2.53 -12.855,19.411 7.422,-7.5270001 13.176,-8.2840001 0.526,-0.26 1.02,-0.469 1.458,-0.607 2.239,-0.705 4.664,-0.855 4.958,-3.001 0.042,-0.301 0.047,-0.676 0.037,-1.041 -0.097,-3.515 -5.835,-1.83399996 -9.878,-0.295 -3.743,1.423 -9.3,3.769 -15.194,6.496 -7.628,3.5280001 -30.464,14.1210001 -33.677,23.3210001 -1.036,2.965 -0.843,6.287 1.221,9.144 0.089,0.122 0.169,0.233 0.242,0.332 -0.932,-1.265 2.526,4.056 2.327,-1.35 z m -26.664,11.059 4.747,-0.165 1.395,-3.469 6.283,-0.219 c 0,0 -6.791,8.802 -7.858,12.243 -0.54,1.743 -0.536,2.493 0.708,2.307 0.408,-0.061 0.562,-0.2 1.543,-1.387 4.537,-5.49 7.557,-9.371 8.365,-15.197 0.462,-3.337 -0.554,-4.292 -4.042,-4.761 -3.228,-0.433 -4.868,0.468 -8.289,2.57 -1.954,1.2 -2.901,1.902 -2.948,5.346 -0.016,1.218 0.096,2.732 0.096,2.732 z m 83.223,-12.785 0.647,-0.011 c 0.29,-0.006 0.368,-0.182 0.779,-1.769 2.363,-9.123 2.795,-14.161 -3.019,-20.012 -0.957,-0.963 -2.072,-1.772 -2.791,-0.908 -0.487,0.586 -0.985,4.722 -0.763,5.625 0.389,1.58 1.541,2.092 2.871,3.165 3.005,2.422 3.758,4.239 3.376,7.466 -0.294,2.476 -1.1,6.444 -1.1,6.444 z m -44.112,-19.245 -0.161,-3.705 c -0.066,-1.498 -0.044,-1.766 0.216,-2.684 0.193,-0.68 0.397,-1.425 0.913,-1.905 1.259,-1.1680001 4.375,-0.7640001 5.82,-1.7270001 2.08,-1.387 2.081,-6.149 0.48,-8.07999996 -1.697,-2.04600004 -5.129,1.20399996 -6.535,3.06399996 -0.863,1.143 -1.681,2.452 -2.049,3.98 -0.17,0.708 -0.265,1.512 -0.398,2.216 l -0.653,3.4460001 -2.156,-2.743 C 99.3,6.7288419 100.2,5.5738419 95.863,4.5168419 c -1.453,-0.354 -4.603,-0.221 -5.209,1.415 -0.474,1.28 0.639,4.3930001 1.335,5.1320001 0.536,0.568 2.707,1.979 3.603,2.065 1.465,0.142 4.458,-0.75 4.458,-0.75 0,0 2.415,3.477 3.891,5.11 0.643,0.712 1.176,1.286 2.001,1.302 0.341,0.006 0.832,-0.037 0.832,-0.037 z m -61.251,0 -0.162,-3.705 c -0.065,-1.498 -0.044,-1.766 0.217,-2.684 0.192,-0.68 0.396,-1.425 0.913,-1.905 1.258,-1.1680001 4.374,-0.7640001 5.819,-1.7270001 2.08,-1.387 2.082,-6.149 0.481,-8.07999996 -1.698,-2.04600004 -5.129,1.20399996 -6.535,3.06399996 -0.864,1.143 -1.681,2.452 -2.049,3.98 -0.171,0.708 -0.265,1.512 -0.398,2.216 L 43.156,13.358842 41,10.615842 C 38.049,6.7288419 38.949,5.5738419 34.612,4.5168419 c -1.453,-0.354 -4.604,-0.221 -5.209,1.415 -0.474,1.28 0.638,4.3930001 1.335,5.1320001 0.536,0.568 2.706,1.979 3.602,2.065 1.465,0.142 4.458,-0.75 4.458,-0.75 0,0 2.416,3.477 3.891,5.11 0.644,0.712 1.176,1.286 2.002,1.302 0.341,0.006 0.832,-0.037 0.832,-0.037 z m -12.361,20.971 c -0.048,-1.291 -0.193,-2.913 -0.618,-3.321 -0.246,-0.236 -0.585,-0.064 -0.798,-0.192 -0.959,-0.575 0.671,-2.947 1.448,-3.854 7.049,-8.229 25.318,-18.445 34.97,-20.559 0.92,-0.201 1.84,-0.364 2.014,-0.053 0.086,0.155 -0.012,0.427 -0.16,0.734 -0.349,0.721 -0.907,1.594 -1.526,2.53 -12.855,19.411 7.422,-7.5270001 13.175,-8.2840001 0.527,-0.26 1.021,-0.469 1.459,-0.607 2.239,-0.705 4.664,-0.855 4.958,-3.001 0.041,-0.301 0.047,-0.676 0.037,-1.041 -0.098,-3.515 -5.835,-1.83399996 -9.878,-0.295 -3.743,1.423 -9.3,3.769 -15.194,6.496 -7.628,3.5280001 -30.464,14.1210001 -33.677,23.3210001 -1.036,2.965 -0.843,6.287 1.221,9.144 0.088,0.122 0.169,0.233 0.242,0.332 -0.932,-1.265 2.526,4.056 2.327,-1.35 z m 113.433,39.146 -4.914,-4.903 -6.24,6.225 6.24,6.225 4.914,-4.903 4.915,4.903 6.239,-6.225 -6.239,-6.225 -4.915,4.903 z m -36.068,-9.271 c -0.312,0.301 -0.665,0.631 -1.016,0.939 -8.317,7.301 -32.9,9.891 -41.956,10.931 -10.323,1.186 -21.034,-0.122 -30.299,-2.535 -7.51,-0.438 -21.475,-9.514 -27.446,-13.725 l -9.81,-6.919 6.314,8.366 c 3.747,4.964 11.65,12.742 12.993,13.665 2.198,1.512 2.362,1.625 2.362,1.625 0.796,0.547 1.594,1.055 2.445,1.507 2.387,1.265 15.299,5.789 16.183,6.029 7.29,1.98 17.109,1.954 26.206,1.092 6.847,-0.649 38.807,-6.566 43.808,-12.992 0.074,-0.095 0.143,-0.195 0.206,-0.302 0.464,-0.782 0.688,-1.921 1.097,-2.942 0.705,-1.762 1.961,-3.176 2.875,-4.973 0.098,-0.193 0.193,-0.391 0.283,-0.593 l 0.906,-0.494 c 0.432,-1.443 0.738,-2.898 0.988,-4.113 0.588,-2.865 -1.567,-3.89 -5.634,-6.736 -0.446,-0.312 -0.87,-0.609 -1.366,-0.792 -0.669,-0.248 -0.892,-0.281 -2.232,-0.327 l -4.306,-0.151 c 0,0 -0.065,-0.686 0.041,-1.191 0.147,-0.695 1.419,-1.363 2.544,-1.699 3.491,-1.045 8.72,-3.521 11.748,-3.564 1.171,-0.017 2.451,0.086 2.451,0.086 0,0 0.535,6.938 1.204,10.474 0.654,3.452 2.05,4.511 5.524,5.409 1.906,0.492 3.867,0.907 5.928,0.952 3.655,0.079 7.622,-1.008 11.265,-1.097 8.537,-0.209 10.419,1.394 16.134,-4.077 3.545,-3.394 5.694,-7.79 5.492,-12.058 -0.084,-1.773 -2.761,-9.566 -3.454,-10.056 -1.224,-0.864 -4.644,2.555 -5.84,5.917 -0.231,0.648 -0.257,1.208 -0.074,2.123 0.527,2.636 2.79,8.22 2.79,8.22 0,0 -8.698,1.556 -14.085,2.265 -6.691,0.881 -15.043,1.315 -17.535,-2.848 -1.312,-2.19 -2.368,-5.204 -1.523,-6.183 0.9,-1.044 6.143,-1.947 8.813,-2.007 2.848,-0.065 7.227,0.252 7.227,0.252 0,0 0.907,-3.155 1.827,-4.904 0.822,-1.561 1.654,-2 2.154,-3.785 0.139,-0.497 0.252,-1.098 0.252,-1.098 l -0.496,-0.018 0.017,-0.496 -5.673,0.196 c -1.34,0.046 -1.583,0.033 -2.437,-0.125 -2.035,-0.376 -7.002,-3.696 -7.158,-3.833 -5.899,-5.203 -4.795,-8.001 -13.172,-7.166 -2.836,0.283 -8.052,2.024 -9.838,4.624 -0.826,1.201 -2.046,5.353 -2.486,7.166 -0.345,1.42 -0.606,3.132 -0.111,3.175 0.155,0.013 0.377,-0.093 0.496,0.017 0.072,0.066 0.107,0.209 0.182,0.311 0.178,0.241 0.581,0.255 0.992,0.227 1.687,-0.114 4.283,-1.31 6.389,-2.446 2.401,-1.296 5.695,-3.262 7.664,-2.527 1.196,0.446 1.49,1.162 1.132,2.137 -0.122,0.333 -0.28,0.407 -1.579,0.74 -10.336,2.646 -17.249,4.986 -25.297,11.126 -3.541,2.701 -4.554,5.283 -5.078,10.255 -0.429,4.077 2.368,5.626 7.135,6.21 3.483,0.427 7.878,-1.179 11.007,0.633 0.938,0.544 2.039,1.429 2.827,2.103 z"/>
</svg>