<?xml version="1.0" encoding="UTF-8" standalone="yes"?>
<svg>
<path
	d="m 88.863197,77.90624 c -0.364,2.27 0.078,2.828 1.587,2.131 1.028,-0.475 14.288003,-8.188 16.225003,-10.498 0.78,-0.93 1.558,-2.576 1.833,-4.056 0.169,-0.912 -0.105,-0.88 -1.087,-0.515 -2.275,0.846 -17.277003,9.979 -17.748003,10.804 -0.439,0.771 -0.72,1.57 -0.81,2.134 z m 52.228003,-61.692 -0.14,-3.204 c -0.056,-1.294 -0.038,-1.526 0.187,-2.32 0.167,-0.588 0.343,-1.232 0.79,-1.647 1.088,-1.01 3.782,-0.661 5.031,-1.493 1.798,-1.199 1.799,-5.317 0.415,-6.985 -1.467,-1.77 -4.434,1.04 -5.649,2.649 -0.747,0.987 -1.454,2.119 -1.772,3.44 -0.147,0.613 -0.229,1.307 -0.344,1.916 l -0.565,2.979 -1.864,-2.371 c -2.551,-3.36 -1.773,-4.359 -5.522,-5.273 -1.256,-0.306 -3.98,-0.191 -4.504,1.223 -0.409,1.107 0.552,3.798 1.155,4.437 0.463,0.491 2.339,1.711 3.114,1.786 1.266,0.122 3.854,-0.649 3.854,-0.649 0,0 2.088,3.006 3.364,4.418 0.557,0.615 1.017,1.112 1.731,1.125 0.294,0.006 0.719,-0.031 0.719,-0.031 z m 13.159,22.899 0.559,-0.01 c 0.251,-0.005 0.318,-0.158 0.674,-1.529 2.043,-7.887 2.416,-12.243 -2.61,-17.301 -0.828,-0.833 -1.792,-1.532 -2.413,-0.785 -0.422,0.506 -0.852,4.082 -0.66,4.863 0.336,1.365 1.332,1.809 2.482,2.736 2.598,2.094 3.249,3.665 2.918,6.455 -0.253,2.14 -0.95,5.571 -0.95,5.571 z m -20.722,-4.769 c -0.041,-1.116 -0.167,-2.519 -0.534,-2.871 -0.212,-0.205 -0.506,-0.056 -0.69,-0.167 -0.828,-0.497 0.581,-2.548 1.252,-3.331 6.094,-7.115 21.889,-15.947 30.233,-17.774 0.796,-0.175 1.59,-0.315 1.741,-0.046 0.075,0.134 -0.01,0.369 -0.138,0.634 -0.302,0.624 -0.784,1.378 -1.32,2.187 -11.113,16.782 6.417,-6.507 11.391,-7.161 0.455,-0.225 0.882,-0.406 1.261,-0.525 1.936,-0.61 4.032,-0.739 4.287,-2.595 0.035,-0.26 0.04,-0.584 0.032,-0.899 -0.085,-3.04 -5.045,-1.586 -8.541,-0.256 -3.235,1.231 -8.039,3.259 -13.136,5.616 -6.594,3.051 -26.336,12.209 -29.115,20.163 -0.895,2.562 -0.728,5.434 1.056,7.905 0.077,0.105 0.146,0.201 0.21,0.287 -0.806,-1.094 2.184,3.506 2.011,-1.167 z m -52.941003,-8.857 0.173,-2.129 -3.021,0.675 c -14.684,3.283 -3.311,-21.69 -6.125,-17.121 -3.24,5.262 -4.657,11.545 -3.999,17.165 0.072,0.613 0.15,1.171 0.245,1.681 1.533,8.194 12.222,5.956 12.727,-0.271 z m -54.184,-16.669 -4.881,4.849 c -0.8112,0.805 -0.9265,0.95 -1.1535,1.446 -0.3178,0.695 -0.4278,1.857 -0.2716,2.015 0.5056,0.51 2.2932,-0.728 2.9154,-1.187 5.4487,-4.018 7.9307,-6.549 8.8117,-11.753 0.448,-2.645 -0.952,-3.669 -3.43,-4.006 -3.932,-0.535 -7.8331,0.012 -9.3603,2.972 0.2384,11.301 0.5741,4.839 3.908,4.036 3.7093,-0.892 7.6973,-2.874 3.4613,1.628 z m 21.018,7.238 -0.454,-8.65 c -0.067,-1.284 -0.093,-1.507 -0.264,-2.234 -0.525,-2.228 -1.936,-3.449 -3.411,-4.237 -1.876,-1.002 -3.307,-1.374 -5.241,0.037 -1.589,1.159 -1.739,5.359 -1.114,6.016 0.466,0.49 1.701,0.445 3.197,0.094 3.735,-0.877 4.109,-0.675 5.082,3.275 0.462,1.877 0.517,3.635 0.289,5.523 -0.483,4.009 -1.617,5.958 0.606,8.312 0.925,0.979 1.892,1.127 4.003,0.693 1.5,-0.309 1.797,-1.006 2.426,-3.083 0.443,-1.462 0.793,-2.772 0.679,-4.229 -0.224,-2.892 -3.351,-8.329 0.417,-9.679 0.696,-0.249 1.6,-0.087 2.38,0.083 1.051,0.229 1.229,0.125 1.783,-1.038 0.455,-0.957 0.982,-1.837 1.272,-2.866 1.087,-3.865 -0.578,-4.956 -3.919,-3.373 -3.832,1.816 -5.554,9.596 -4.735,14.812 0.251,2.15 0.526,4.086 0.526,4.086 0,0 -0.23,-0.002 -0.502,-0.029 -1.073,-0.106 -2.916,-1.53 -3.02,-3.513 z m -22.084,12.472 -6.3179,6.318 6.3179,6.318 6.318,-6.318 -6.318,-6.318 z m 34.028,47.422 4.368,4.368 6.318,-6.318 -6.318,-6.318 -4.368,4.368 -4.368,-4.368 -6.318,6.318 6.318,6.318 4.368,-4.368 z m 71.654003,0 4.368,4.368 6.318,-6.318 -6.318,-6.318 -4.368,4.368 -4.368,-4.368 -6.318,6.318 6.318,6.318 4.368,-4.368 z m -74.661003,-24.092 1.579,0 0,0.526 0.527,0 0,2.816 c 0,1.266 0.016,1.497 0.163,2.31 0.835,4.621 6.311,6.673 10.524,6.983 2.988,0.22 7.637,0.171 10.372,-0.79 1.804,-0.633 3.163,-1.38 4.353,-1.933 l 2.679,-1.244 4.216,1.726 c 0.65,0.266 1.299,0.511 1.914,0.662 1.132,0.277 2.151,0.233 3.169,0 1.59,-0.365 3.18,-1.193 4.838003,-1.832 l 2.417,-0.931 4.079,0.817 c 3.014,0.604 7.025,1.324 7.788,0.893 1.203,-0.679 2.724,-5.449 2.98,-7.371 0.347,-2.612 -0.12,-7.891 -1.316,-10.53 -0.617,-1.358 -1.769,-3.368 -1.769,-3.368 0,0 -2.766,3.687 -3.233,6.696 -0.398,2.567 0.527,5.096 0.527,5.096 0,0 -1.485,0.104 -2.527,0 -1.084,-0.108 -2.613,-0.798 -2.991,-1.558 -0.661,-1.33 0.118,-3.261 -1.537,-2.654 -0.419,0.154 -0.791,0.537 -1.106,1.053 -0.659,1.081 -1.062,2.742 -1.842,3.422 -0.385,0.335 -2.383003,1.08 -3.341003,1.186 -1.068,0.118 -1.345,0.131 -2.767,0.131 l -3.895,0 0,-4.739 c 0,0 -0.702,-0.083 -1.264,0 -0.886,0.132 -2.07,1.835 -2.948,2.896 -2.618,3.162 -12.315,4.197 -15.584,3.949 -4.724,-0.359 -9.377,-2.22 -9.976,-6.533 -0.39,-2.812 0.211,-7.265 -0.139,-10.459 -0.387,-3.532 -2.946,-13.107 -6.069,-10.912 -1.298,0.912 -1.782,6.29 -1.103,8.15 1.406,3.852 3.783,5.182 1.545,8.171 -2.079,2.778 -6.092,4.218 -8.518,3.685 -1.825,-0.401 -3.992,-1.53 -5.434,-2.895 -2.105,-1.994 -3.44,-3.684 -5.001,-1.317 -3.12,4.731 -2.002,7.279 0.263,12.11 1.129,2.408 2.432,7.747 2.106,8.634 -1.243,3.385 -10.356,6.763 -15.005,6.633 -5.1084,-0.142 -9.0565,-1.564 -12.0158,-5.019 -7.2736,-8.491 -2.5062,-12.848 -0.0547,-20.174 1.768,-5.284 2.8501,-9.94 -0.9652,-3.345 -1.7888,3.092 -4.1592,8.646 -4.3377,9.059 -3.5699,8.262 -4.0706,13.69 0,20.532 3.077,5.172 8.3693,7.506 14.4782,7.898 5.9292,0.38 13.8122,-2.843 17.3812,-7.557 1.29,-1.703 5.592,-9.129 5.702,-11.21 0.107,-2.023 -0.445,-4.925 -0.445,-4.925 0,0 3.02,0.641 4.633,0.526 0.202,-0.014 6.662,-3.041 6.95,-4.422 0.083,-0.398 0,-0.842 0,-0.842 z m -41.575,-18.307 0,-2.226 c 0,0 -0.9336,-0.055 -1.6847,0 -1.3951,0.102 -2.1602,0.581 -3.0093,0.9 -14.9553,5.63 -2.781,-24.665 -5.2692,-20.287 -1.5324,2.697 -2.9166,8.365 -3.1988,9.384 -1.7013,6.141 -3.1477,12.574 1.5795,16.057 3.0535,2.251 6.2068,1.723 10.0031,-1.052 0.4285,-0.314 0.8079,-0.64 1.1168,-1.05 0.4164,-0.553 0.4626,-0.725 0.4626,-1.726 z m 132.708003,23.767 c 0.072,-0.082 0.142,-0.165 0.211,-0.249 2.271,-2.775 3.261,-8.033 1.579,-11.583 -1.34,-2.829 -2.889,-4.572 -5.317,-5.265 -1.659,-0.473 -2.327,1.197 -3.37,5.792 -0.144,0.637 -0.173,0.962 0.279,1.609 1.027,1.469 4.535,4.598 4.535,4.598 0,0 -2.928,0.79 -5.15,1.163 -2.787,0.469 -8.386,0.181 -10.193,-1.053 -0.714,-0.487 -1.233,-1.226 -1.843,-2.106 -0.147,-0.213 -0.301,-0.434 -0.391,-0.682 -0.122,-0.334 -0.147,-0.528 -0.251,-1.946 -0.04,-0.552 -1.158,-35.984 -4.623,-46.334 -0.349,-1.044 -0.848,-1.588 -2.021,-1.053 -1.746,0.797 -2.707,4.682 -2.98,6.212 -0.316,1.771 5.312,48.366 6.054,50.121 1.504,3.555 3.281,5.541 8.853,5.782 11.347,0.489 14.476,-4.833 14.628,-5.006 z M 87.420197,3.41124 c -0.005,0.067 -0.01,0.138 -0.016,0.212 -0.578,7.53 1.108,2.422 4.431,7.887 1.265,2.08 1.694,5.12 1.376,7.011 -0.359,2.136 -1.601,4.588 -2.106,7.002 -0.564,2.706 -0.66,8.139 1.58,9.751 2.018,1.452 6.497,1.344 7.897003,0 1.066,-1.025 2.513,-4.922 2.106,-6.234 -0.2,-0.644 -0.811,-1.228 -1.579,-1.664 -5.012003,-2.842 -8.601003,-0.812 -7.371003,-5.317 0.513,-1.878 1.781,-4.287 2.106,-6.423 0.253,-1.663 -0.091,-4.695 -0.79,-6.423 -0.582,-1.439 -1.574,-2.702 -2.106,-4.212 -0.851,-2.417 -0.927,-6.003 -4.127,-4.738 -0.74,0.292 -1.286,1.626 -1.401,3.148 z"
	style="stroke:none; fill:#000000"/>
</svg>