<?xml version="1.0" encoding="UTF-8" standalone="no"?>
<svg>
  <path
     style="fill:#000000;stroke:none"
     d="m 69.738046,93.630773 c 0.20373,2.801 1.50986,4.5421 3.88715,5.04455 3.06598,0.6487 4.79957,-1.01366 5.58575,-4.37711 0.17249,-0.73868 0.13374,-1.35363 -0.34122,-1.64985 -0.90367,-0.56495 -3.3847,0.0213 -4.58334,-0.61619 -1.49237,-0.79243 -1.87108,-4.16088 -1.50236,-5.73574 0.36871,-1.57611 1.31113,-3.26471 1.56736,-4.4796 0.0525,-0.24623 0.0762,-0.47371 -0.0312,-0.59995 -0.0137,-0.015 -0.0275,-0.0312 -0.0412,-0.045 -3.60843,-0.82242 -4.48585,13.21508 -4.54084,12.45889 z m -26.18267,-82.60888 -6.10196,6.06071 c -1.01366,1.00741 -1.15739,1.18739 -1.44112,1.80733 -0.39746,0.86868 -0.53495,2.3223 -0.33997,2.51853 0.63245,0.63869 2.866,-0.90992 3.64343,-1.48362 6.81064,-5.02205 9.91411,-8.18552 11.01527,-14.6899398 0.5587,-3.30595 -1.19115,-4.58583999 -4.28837,-5.00704999 -4.91456,-0.66869 -9.79038,0.015 -11.69896,3.71466999 0.29747,14.1249898 0.71744,6.04821 4.88457,5.0458 4.63583,-1.11615 9.62039,-3.59343 4.32711,2.0335698 z m 72.546034,35.29435 -6.10195,6.06071 c -1.01366,1.00741 -1.1574,1.18739 -1.44112,1.80859 -0.39747,0.86742 -0.53496,2.32104 -0.33997,2.51727 0.63244,0.6387 2.86599,-0.90991 3.64342,-1.48361 6.81065,-5.02206 9.91412,-8.18552 11.01527,-14.68994 0.5587,-3.30596 -1.19114,-4.5846 -4.28837,-5.00706 -4.91456,-0.66869 -9.79037,0.015 -11.69895,3.71467 0.29747,14.12499 0.71743,6.04821 4.88456,5.0458 4.63584,-1.11615 9.62039,-3.59343 4.32711,2.03357 z m 42.76619,38.11035 6.84314,-6.84314 -7.54307,-7.54307 -7.54308,7.54307 6.84314,6.84314 -6.84314,6.84439 7.54308,7.54308 7.54307,-7.54308 -6.84314,-6.84439 z m -130.434624,-48.96438 -7.54433,7.54432 7.54433,7.54308 7.54308,-7.54308 -7.54308,-7.54432 z M 82.951866,8.0509032 c 0.80993,0.72868 1.0624,1.58986 0.77743,2.2035498 -0.83368,1.79234 -1.80859,2.56477 -2.62477,2.31855 -0.76368,-0.22998 -1.96232,-1.40363 -2.69351,-2.6347698 -1.02615,-1.72984 -0.19748,-2.53227 0.78618,-2.88349 2.46228,-0.87867 5.38952,2.46853 3.75467,0.99616 z m -5.36827,9.2366798 c 0,0 -9.24168,8.3805 -17.28596,14.14374 -5.20704,3.73091 -15.67985,9.26917 -19.56076,11.28899 -0.71369,0.37247 -1.32238,0.73743 -1.49862,2.03857 -0.15498,1.14115 0,3.01723 0,3.01723 0,0 2.76851,0.24498 4.82832,0 2.00233,-0.23998 4.43086,-1.70235 6.38819,-2.97474 1.33488,-0.86867 2.88599,-1.69984 4.38835,-2.56727 3.79092,-2.18855 7.26811,-4.60459 10.79779,-7.65931 4.31587,-3.73717 10.04661,-9.10419 12.57138,-10.37158 1.67985,-0.84367 1.37988,-0.06 2.15356,1.30488 0.17248,0.30498 0.45871,0.32248 0.73868,0.26623 0.69619,-0.14124 5.98322,-18.1396298 5.90948,-20.1157098 -0.13249,-3.48469 -1.36363,-5.62699999 -5.34328,-5.65823999016 C 75.692516,-0.04582679 73.220236,4.2012432 72.555296,10.561933 c -0.14249,1.36612 -0.0387,2.1873 0.94241,3.26845 1.27489,1.40363 4.08589,3.4572 4.08589,3.4572 z m -44.59353,46.59834 c -0.15248,-0.34372 -0.20998,-1.06865 0,-1.50861 0.94367,-1.97608 8.26052,1.70235 9.42916,2.93349 0.76368,0.80493 1.05866,1.6811 0.6287,2.09606 -0.87493,0.84617 -6.1782,-0.21873 -8.80047,-2.1998 -0.54995,-0.41622 -1.07241,-0.90367 -1.25739,-1.32114 z m -19.93947,-24.37407 -1.92858,-0.77119 c -0.87617,1.68735 -2.4180301,4.70584 -3.9728961,7.99304 -6.61078603,13.97751 -12.686869,35.70182 1.448746,46.43961 10.1159701,7.684317 18.2127501,4.47586 30.5204101,-0.14498 0.16623,-0.0625 0.33247,-0.12499 0.4987,-0.18874 4.19838,-1.59735 11.8052,-9.52415 13.39381,-13.44255 0.32872,-0.80993 0.70493,-1.57861 1.19114,-2.16231 1.32238,-1.5936 6.7769,-1.88358 10.02911,-3.55218 1.36613,-0.70244 2.47853,-1.80984 3.64717,-1.87483 1.42862,-0.0812 2.94224,1.39612 4.71458,2.1998 2.97974,1.34988 6.78565,1.45237 9.37542,-0.0875 1.37237,-0.81618 2.44353,-1.93358 3.60718,-2.37729 1.04615,-0.39746 4.17587,0.42246 7.7618,1.83609 3.00599,1.18489 6.974384,2.54227 6.974384,2.54227 0,0 4.28962,-6.18695 5.59825,-9.97286 0.6287,-1.81984 0.49496,-3.68967 0,-5.70824 -0.55495,-2.26855 -1.36488,-5.30578 -1.57111,-7.95429 -0.15748,-2.02357 0.0362,-3.82091 -0.5812,-4.72833 -0.46495,-0.68244 -1.76984,-0.82368 -2.46103,-0.26623 -0.82117,0.66119 -1.26863,2.13731 -1.987324,3.77217 -0.28747,0.65244 -0.61744,1.33113 -0.74743,2.05106 -0.17624,0.97117 -0.18249,1.26739 -0.0613,2.95974 l 0.49496,6.93188 c 0,0 -1.05366,0.0412 -2.01232,0 -1.76484,-0.075 -5.47201,-1.6686 -5.85073,-2.51477 -0.38497,-0.86618 -0.24498,-3.52219 -1.81734,-2.51353 -1.1274,0.72244 -2.09981,4.16713 -3.52093,5.34327 -0.89992,0.74494 -4.15088,1.47987 -5.02831,1.57111 -1.55986,0.16374 -6.29194,-1.34238 -6.91563,-2.1998 -0.92492,-1.27364 -1.1674,-4.29212 -2.766,-3.45719 -1.17615,0.61369 -2.70976,3.61093 -4.14838,4.71458 -1.61111,1.23489 -8.84297,2.50727 -10.93778,2.8285 -0.72243,0.11124 -1.38113,0.19748 -2.07106,0.11874 -0.93117,-0.10749 -1.1274,-0.28373 -1.95608,-1.7661 -4.55459,-8.14177 -5.49326,-11.84019 -12.26641,-12.81136 -7.67556,-1.09865 -9.95786,5.16454 -11.7427,14.58496 -1.13615,5.99571 1.67235,9.25167 8.74922,10.40407 4.20213,0.68494 11.36649,0.78493 11.36649,0.78493 l 0,1.00616 c 0,0.45246 -0.16624,0.5937 -1.65486,1.41612 -3.2772,1.80984 -6.98812,3.34595 -10.88278,4.57459 -9.24542,2.91599 -14.36122,4.91332 -23.45541,-1.84358 -4.2589901,-3.16472 -7.1037371,-7.59557 -7.7375561,-13.31256 -0.975288,-8.79922 1.160522,-14.27373 4.582596,-22.09554 1.8775801,-4.29211 2.6887601,-6.80814 4.1211301,-8.32675 z m 3.89465,-0.35122 c 1.13115,-0.39372 1.99982,-0.87492 2.34604,-1.62361 0.92742,-1.99732 1.31239,-6.99562 1.31239,-6.99562 0,0 -5.79574,1.44737 -8.91796,1.96732 -2.8779901,0.47871 -4.4377301,-0.0712 -7.1667361,-2.1998 -3.057353,-2.38479 -1.051407,-5.56201 2.716633,-9.82538 4.0738831,-4.60709 4.7313231,-4.71458 6.0837031,-9.66164 0.27873,-1.0186598 0.1,-1.1273998 -1.00616,-1.0011598 -0.45246,0.0512 -0.63494,0.1924898 -1.82983,1.4023798 -7.2144851,7.3056 -8.9970761,12.43764 -10.36470413,21.2856 -0.07074,0.45871 -0.08887,0.91617 -0.05487,1.35488 0.794804,10.26283 12.69936413,6.75315 16.88149413,5.29703 z M 123.68574,13.086703 c -0.21123,0.13374 -0.59495,0.29997 -0.95117,0.30497 -0.73743,0.0113 -2.7535,-3.4871898 -3.38344,-5.3407698 -0.44497,-1.31238 -0.11499,-1.49737 2.37728,-0.94492 3.05473,0.67619 5.12205,2.39979 2.90224,5.0807998 -0.28872,0.34997 -0.66994,0.72494 -0.94491,0.89992 z m 1.53986,10.97777 c -0.37871,-1.6136 -1.01116,-2.64726 -0.98241,-4.07213 0.0637,-3.29971 3.66717,-8.69173 4.39961,-12.5101398 0.63119,-3.28846 -0.96117,-6.73939999 -3.97215,-7.29184999 -2.57852,-0.47246 -8.34426,-0.006 -9.15418,0.76868 -0.82118,0.78492999 -2.00607,7.37683999 -1.33113,9.71663979 0.20123,0.69993 0.56495,1.29863 1.06365,2.00357 2.03107,2.87099 3.84216,4.59959 3.33595,5.95572 -0.86992,2.33104 -10.49906,7.64682 -13.20132,9.21543 -7.566834,4.39335 -21.644324,11.26399 -26.401404,12.88635 -8.65298,2.95098 -23.22543,9.06919 -23.68664,9.94411 -1.34613,2.55852 3.71467,3.45344 8.09678,2.94224 6.63316,-0.77243 27.23507,-11.09651 29.10491,-11.94394 5.67324,-2.56602 21.795564,-11.92643 23.481664,-13.63378 1.93107,-1.95233 2.95098,-3.29096 4.11463,-2.70976 0.85367,0.42496 1.53861,1.83109 1.89608,4.05589 0.18373,1.1499 0.27998,2.51852 0.32872,3.75466 0.26123,6.60566 1.43862,3.58093 2.2648,0.36247 1.75359,-6.82439 0.44246,-10.29408 0.64244,-9.44416 z m -1.71485,37.5954 c -0.19498,-0.15873 -0.18623,-0.70993 0,-1.00616 0.44871,-0.70743 3.51219,0.40997 4.40086,0.94367 1.01116,0.60494 1.96233,2.04607 1.25739,2.8285 -0.57495,0.63744 -3.88965,-1.33239 -5.65825,-2.76601 z m 28.00876,-2.37854 -12.9076,4.34837 c 0,0 -2.67726,-6.46568 -5.0433,-9.57665 -2.43978,-3.20971 -9.88537,-6.39443 -12.88635,-2.1998 -3.32721,4.65208 -2.58477,11.72895 -1.25739,16.97348 0.69619,2.75101 2.50603,5.43452 6.1382,6.09071 0.97116,0.17499 1.26739,0.19498 2.96474,0.19498 l 5.66949,0 0,1.00616 c 0,0.45246 -0.14249,0.6262 -1.42612,1.7411 -10.69155,9.28542 -19.96072,12.3489 -32.64709,14.82493 -16.438544,3.20721 -20.549424,2.08356 -1.918584,5.25828 1.49237,0.25498 3.118474,0.48746 4.608344,0.63744 3.83466,0.38747 6.96063,0.28748 9.75163,-0.25498 12.47139,-2.41978 21.39184,-13.06758 24.0691,-18.84082 0.96367,-2.07606 2.93599,-5.19703 3.84966,-5.83948 6.33694,-4.45085 10.6778,-2.1973 13.51505,-6.7044 2.92599,-4.65083 3.75841,-12.75011 1.57111,-16.97349 -0.87742,-1.69484 -2.2248,-3.3622 -3.56094,-4.87081 -1.12864,-1.27364 -1.30988,-1.42112 -1.81483,-1.47862 -2.76726,-0.31622 -2.65727,2.74726 -3.4247,5.97322 -0.28497,1.19739 -0.5037,1.90483 0,3.10472 0.98741,2.34979 4.74958,6.58566 4.74958,6.58566 z" />
</svg>
