<?xml version="1.0" encoding="UTF-8" standalone="yes"?>
<!-- Created with sK1/UniConvertor (http://sk1project.org/) -->
<svg xmlns="http://www.w3.org/2000/svg" xmlns:xlink="http://www.w3.org/1999/xlink"
  width="595.276pt" height="841.89pt" viewBox="0 0 595.276 841.89"
  fill-rule="evenodd">
  <path
     d="m 69.935559,22.125526 -0.4392,0.008 c -0.565599,0.0096 -0.642398,0.0808 -0.763198,0.707199 -0.0528,0.2752 -0.2104,0.694399 -0.3872,1.099198 -1.031198,2.358396 -2.260796,1.812797 -3.146394,0.0712 -0.807999,-1.589597 -1.778397,-3.347994 -1.937597,0.18 -0.064,1.415198 0.0944,4.111993 1.183998,4.846392 1.167198,0.785598 2.975995,0.175999 4.104793,-0.586399 0.2656,-0.1792 0.503199,-0.388 0.631199,-0.653599 0.0744,-0.1528 0.112,-0.3232 0.1392,-0.491999 l 0.159199,-0.986399 1.099999,0.124 c 0.200799,0.0224 0.409599,0.0416 0.610399,0.0328 0.699998,-0.0304 1.239197,-0.368799 1.643197,-0.867998 1.834397,-2.267197 0.987198,-5.006392 -0.451199,-6.934389 -1.075999,-1.442397 -2.892796,-3.704793 -1.115999,0.819999 0.647999,1.650397 0.5472,2.599196 -1.331197,2.631995 z M 62.527571,9.2615479 c -0.0312,0.1408 -0.0472,0.424 0.0304,0.575199 0.1104,0.2176001 0.462399,0.156 0.925599,-0.0504 l 12.011979,-6.862388 c 0.204,-0.372799 0.3608,-0.814399 0.471999,-1.349598 0.718399,-3.455994 -3.795993,0.4128 -10.027982,3.086395 -1.214398,0.520799 -2.191197,0.952798 -2.603996,1.675197 -0.470399,0.821599 -0.643199,2.184797 -0.807999,2.925595 z m 42.472729,-4.135193 0.0616,1.759997 c 0,0 -0.2408,-0.0744 -0.4632,-0.155999 -0.9792,-0.3576 -1.72719,-0.977599 -2.22719,-1.846397 -0.0712,-0.124 -0.1408,-0.256 -0.1712,-0.3128 -0.1728,-0.0712 2.14799,-2.140796 2.79999,0.555199 z m -0.5416,-4.882391 c -0.8512,-0.1408 -1.96719,0.130399 -2.75039,0.645598 -1.4336,0.943999 -1.5912,5.243192 -1.1904,5.92479 0.5328,0.907199 1.9576,1.735198 2.82479,2.660796 1.6728,2.9407951 -1.20479,7.6543871 0.6256,5.3903911 1.5664,-1.936797 3.2832,-7.9703871 3.2064,-10.7847821 -0.0536,-1.948797 -0.7464,-3.511194 -2.716,-3.836793 z M 56.985981,49.19588 l 0.565599,0 c 0.254399,0 0.332799,-0.0936 0.785598,-0.935998 2.215997,-4.124793 2.266397,-6.337589 1.829597,-12.281579 -0.393599,-5.360791 -0.883198,-11.190381 -1.767197,-16.999171 -0.343999,-2.260796 -0.747998,-4.519193 -1.059998,-6.538389 -0.0984,-0.633599 -0.1872,-1.243998 0,-1.413598 0.1064,-0.0968 0.3024,-0.0504 0.519999,0.1048 0.0352,0.0248 0.0704,0.0528 0.1072,0.0824 2.422396,1.352798 2.255996,0.943998 1.803997,0.204 -0.732799,-1.199198 -1.367998,-5.0655921 -1.646397,-6.4815891 -0.2296,-1.168798 -0.404,-2.057597 -0.404,-2.057597 C 57.53638,1.9423609 57.50678,1.8015609 57.41958,1.4695609 l -0.2752,-1.262397 -1.228797,0.759998 c -0.3464,0.2144 -0.737599,0.537599 -1.165598,0.927999 -0.5224,0.476799 -0.853599,0.924798 -1.100799,1.667997 -0.364799,1.097598 -0.395999,4.020793 -0.0472,4.487192 0.0848,0.1136 0.1864,0.1928 0.2888,0.32 0.816799,1.008798 1.118398,2.8551951 0.974398,3.7167941 -0.115999,0.695998 -0.453599,1.395997 -0.706398,2.113596 -0.4608,1.307198 2.876795,21.438363 3.003994,28.279952 0.0592,3.215994 -0.176799,6.715188 -0.176799,6.715188 z M 4.866069,10.105547 c -0.4162393,0.663999 -0.8003186,1.309598 -0.9621584,1.671997 -0.1105598,0.248 -0.2243996,0.496799 -0.3398394,0.746399 -0.6254389,1.355997 -1.1946379,2.593595 -1.6382372,3.771193 -1.13415808,3.010395 -1.55359737,10.399183 2.968395,11.86318 0.9980783,0.3232 2.1100764,-0.1176 3.2387948,-1.902397 0.8834385,-1.396797 1.4922374,-3.263194 1.4922374,-3.263194 0,0 -2.2831964,0.687199 -3.3643146,0.327999 C 1.911034,21.877527 3.7391109,15.863137 4.9984688,12.344743 6.050387,9.4055479 6.7979857,7.0223519 4.866069,10.105547 z m 107.343021,26.386355 -3.69519,3.671194 c -0.6144,0.610399 -0.7016,0.719999 -0.8736,1.095198 -0.2408,0.526399 -0.324,1.406398 -0.2056,1.525597 0.3832,0.3864 1.73599,-0.551199 2.20719,-0.899198 4.1248,-3.041595 6.00399,-4.957592 6.67119,-8.897585 0.3392,-2.002397 -0.7208,-2.776795 -2.59679,-3.031995 -2.9768,-0.405599 -5.93039,0.0088 -7.08639,2.249596 0.18,8.555186 0.4344,3.663194 2.95839,3.055995 2.808,-0.675999 5.82719,-2.176796 2.6208,1.231198 z M 19.448445,6.8823519 15.752451,10.553546 c -0.613599,0.609599 -0.700799,0.719199 -0.872959,1.095198 -0.240639,0.525599 -0.323839,1.405598 -0.205599,1.524798 0.382559,0.386399 1.736157,-0.551199 2.207356,-0.898399 4.124793,-3.0423951 6.00399,-4.9583911 6.671189,-8.8975851 0.339199,-2.002396 -0.721599,-2.777595 -2.597596,-3.032795 -2.975995,-0.404799 -5.92959,0.0096 -7.085908,2.250397 0.18048,8.5551851 0.434639,3.663193 2.958715,3.055194 2.807995,-0.675198 5.82639,-2.175996 2.620796,1.231998 z m 15.746373,-5.49279 c -0.432799,-0.4424 -0.966399,-0.828799 -1.540798,-0.995199 -0.413599,-0.119999 -0.902398,-0.187199 -0.902398,-0.187199 l -0.807199,3.887993 c 0,0 2.228797,1.221598 3.247995,2.834395 0.691199,1.091998 1.013598,2.599996 1.257598,3.8767941 0.647199,3.391994 -0.1048,10.247182 1.283997,3.381594 C 39.278011,6.5559529 35.928417,2.1391599 35.194818,1.3895619 z m -7.734387,13.1103771 2.719995,2.719996 3.915194,-3.915194 -3.915194,-3.9151931 -2.719995,2.7207951 -2.720795,-2.7207951 -3.915194,3.9151931 3.915194,3.915194 2.720795,-2.719996 z m 16.456772,7.417588 3.915193,-3.915194 -3.915193,-3.915193 -3.915193,3.915193 3.915193,3.915194 z m 70.271887,42.791927 3.91519,-3.915193 -3.91519,-3.914394 -3.9152,3.914394 3.9152,3.915193 z m -80.04627,-33.339143 -3.967994,-0.1384 c -1.035998,-0.036 -1.201598,-0.0744 -1.651197,-0.387999 -0.742399,-0.515999 -1.531997,-1.659998 -1.581597,-2.337596 -0.0368,-0.5128 0.0432,-1.227998 0.0432,-1.227998 0,0 1.761597,-0.3744 3.007195,-0.2792 1.090398,0.0832 4.062393,1.754397 4.208792,2.706396 0.0968,0.632798 -0.0584,1.664797 -0.0584,1.664797 z m -9.544784,-1.747197 c -1.018398,5.125591 -0.3672,8.278386 3.827193,9.232784 1.484798,0.337599 2.415196,0.1928 3.550394,-0.452799 3.725594,-2.118397 5.96159,-5.160791 6.917588,-0.0272 0.2088,1.122398 -0.242399,1.555197 -1.624797,2.517596 -6.149589,4.282392 -12.901578,6.931188 -20.460765,7.162387 -4.992711,0.1528 -8.8659052,-1.876796 -11.6708605,-5.78719 C 2.6869527,38.854298 2.7735126,37.269501 3.3571116,32.716708 3.5519112,31.196711 3.722951,29.709514 4.4813497,28.029516 4.9834288,26.917518 5.7429475,25.72072 5.5345479,25.376721 c -0.0896,-0.148 -0.3582394,-0.1384 -0.613999,-0.0216 -1.5111174,0.688799 -3.99015321,9.071185 -4.36615258,10.598382 -1.73623702,7.051988 0.59799898,14.069576 7.11038798,17.66477 6.0639097,3.347194 14.7852547,0.833598 20.3748457,-1.519998 2.094396,-0.881598 7.571187,-4.379192 8.615185,-5.50079 1.586398,-1.705597 5.108792,-7.839187 5.79919,-11.171181 0.1,-0.479999 0.1496,-0.930399 0.0488,-1.381598 -0.203999,-0.908798 -1.020798,-1.821597 -1.057598,-2.726395 -0.0472,-1.151998 1.171198,-2.290396 0.867999,-2.866395 -0.2336,-0.4456 -1.375198,-0.555199 -2.205597,-1.019999 -1.122398,-0.627999 -1.195998,-1.615197 -2.064796,-3.225594 -1.510398,-2.800795 -7.319188,-6.519989 -9.870383,-3.418394 -0.973599,1.183998 -3.353595,7.723187 -3.574394,8.835185 z m 23.18076,-6.427989 c 0,0 -1.193598,1.463997 -1.941596,2.507195 -2.055197,2.867195 -1.664797,4.209593 -0.0632,7.298388 0.977598,1.884797 2.922395,8.253586 2.773595,9.079985 -0.393599,2.184796 -7.724787,8.019186 -11.389581,10.322382 -2.038396,1.280798 -14.431175,6.239989 -21.714363,9.200784 -0.960158,0.3904 -1.077198,0.4656 -1.169998,0.753599 -0.420719,1.304798 0.1864,0.639999 2.994795,0.0024 2.475996,-0.561599 7.003988,0.393599 9.739984,0.339999 4.049593,-0.0792 8.897585,-3.117594 12.412779,-5.87359 2.066396,-1.620797 5.119191,-4.455192 6.861588,-6.287189 1.417598,-1.489597 5.75039,-10.733582 5.68319,-12.981578 -8e-4,-0.04 -0.0032,-0.0784 -0.0072,-0.1144 -0.148799,-1.456797 -1.074398,-3.051994 -0.475999,-3.695193 0.128,-0.1384 0.3192,-0.1784 0.452799,-0.3104 0.915199,-0.907198 -0.412799,-3.665594 -1.196798,-5.066391 -1.107998,-1.979997 -2.959995,-5.175991 -2.959995,-5.175991 z m 26.381556,21.843162 -0.1728,4.952792 c -0.036,1.035998 -0.0352,1.247998 0.0048,2.122396 0.1176,2.514396 2.904795,7.017589 4.246393,8.169587 2.499198,2.145596 6.031192,1.640797 8.770387,-0.3816 2.996795,-2.211996 8.443986,-7.835986 8.883185,-10.014383 0.494399,-2.447996 0.2096,-5.99599 0.2096,-5.99599 0,0 0.611199,0.857599 1.094398,1.684798 1.687997,2.890395 1.783197,6.527988 2.966395,8.556785 1.7096,2.928795 6.10399,4.008793 9.61758,1.866397 0.6488,-0.395199 1.2224,-0.875199 1.744,-1.275998 l 1.336,-1.026398 1.7872,0.983998 c 1.92559,1.238398 5.87919,2.167996 6.95598,2.275996 3.6896,0.372 15.49918,-2.513595 20.68237,-4.235193 2.29039,-0.760798 3.05279,-1.300797 4.15679,-3.504794 0.9216,-1.840796 1.8376,-4.338392 2.332,-6.258389 0.0688,-0.2672 0.1288,-0.522399 0.02,-0.575999 -0.0864,-0.0424 -0.28,0.0432 -0.384,-0.0128 -0.0712,-0.0392 -0.1,-0.1448 -0.1544,-0.2272 -0.208,-0.311999 -0.7872,-0.294399 -1.3672,-0.210399 -2.56,0.368799 -6.51599,2.999995 -9.74798,4.078393 -2.8808,0.960798 -6.21519,1.384797 -8.07279,0.1024 -1.008,-0.695999 -1.952,-1.643998 -3.14799,-3.375995 -0.992,-1.437597 -2.1576,-3.415194 -2.1576,-3.415194 0,0 1.8384,-0.532799 3.27119,-0.964798 3.3928,-1.023198 5.74799,-1.475198 7.73599,-1.459198 1.3504,0.0112 3.0696,0.1072 3.0696,0.1072 0,0 0.096,-0.902398 0.0536,-1.535197 -0.1064,-1.595998 -3.3008,-3.947194 -4.8344,-4.587192 -3.48319,-1.453598 -6.57999,-0.829599 -9.29118,1.980796 -2.1448,2.223196 -4.41199,9.611184 -3.49679,12.11198 0.74879,2.045596 2.76319,4.706392 2.76319,4.706392 0,0 -3.28399,-0.528 -5.18799,-1.271198 -0.9752,-0.3808 -1.588,-0.817599 -2.0648,-1.308798 l -1.15439,-1.108798 -1.1688,1.189598 c -0.4416,0.449599 -0.8792,1.024798 -1.3824,1.410397 -0.7816,0.599999 -2.2616,0.977599 -3.65999,1.133599 -5.73919,0.640798 -7.17999,-2.663196 -8.54959,-7.419988 C 98.501113,37.5615 97.501114,32.289509 92.975522,27.495117 92.398723,26.883918 91.821124,26.339919 91.348325,25.96792 c -1.501598,-1.183198 -3.686394,-2.572796 -3.686394,-2.572796 0,0 -1.267198,3.939994 -1.429598,6.04399 -0.203999,2.643996 1.294398,2.323996 3.670394,3.839993 2.491196,1.589598 5.81519,8.706386 5.73679,9.826384 -0.109599,1.566397 -5.81199,8.467985 -9.086384,10.167182 -4.188793,2.174397 -6.952791,0.967199 -9.308787,-3.014394 l -3.083994,-5.219992 z m 7.723189,-1.531997 c 0.1312,-0.483199 0.257599,-1.021598 0.412799,-1.528797 0.447999,-1.469598 1.860797,-3.143195 2.467196,-4.647992 0.420799,-1.042399 0.416799,-2.773596 0.1648,-4.711992 -0.969599,-7.447988 -3.080795,-24.2191591 -3.080795,-24.2191591 0,0 3.686394,1.9695961 5.73519,3.2167941 4.039193,2.458396 9.755184,9.571184 11.255981,13.265578 0.681599,1.678397 1.499198,4.922391 1.099198,7.031188 -0.0616,0.324799 -0.1488,0.696799 -0.248799,1.082398 -1.647998,6.352789 -0.2408,4.268793 1.011999,1.840797 2.216,-4.293593 2.70639,-7.147988 2.58319,-6.612789 0.48,-2.079196 0.5704,-4.197593 0.1736,-6.202389 C 102.64111,17.895934 94.07392,7.3607509 90.736326,5.0919549 89.269928,4.0951569 87.720331,3.2375579 86.170734,2.5367599 83.676338,1.4079619 80.078744,-3.6104905e-5 80.078744,-3.6104905e-5 c 0,0 -2.181599,3.565594004905 -2.654398,5.427991004905 -0.2256,0.888798 -0.0616,1.390397 0.084,2.232796 0.0248,0.1416 0.0496,0.293599 0.1096,0.428799 0.0816,0.1832 0.103999,0.3176 0.224799,1.347198 L 81.126742,37.4695 c 0.1208,1.029599 0.1096,1.160798 -0.1104,1.313598 -0.570399,0.393599 -2.495998,0.737599 -2.631198,0.751999 -1.383197,0.1528 -5.56879,-0.871999 -6.693588,-1.962397 -0.963999,-0.934398 -1.539198,-2.943995 -2.743196,-2.208796 -0.827998,0.504799 -2.168796,3.670394 -2.330396,4.451992 -0.487999,2.356796 0.588799,4.516793 1.272798,7.575987 0.542399,2.427996 -0.661599,2.912796 -4.390392,4.687993 -2.727996,1.297597 -5.247991,2.622395 -8.463986,3.774393 -6.615189,2.368796 -18.171969,6.604789 -18.623168,7.190388 -0.3744,0.486399 -0.3448,0.803199 0.774398,0.995198 0.4256,0.0728 0.587999,0.0896 1.622398,0.1696 9.963983,0.768799 11.70638,1.317598 20.551165,-3.629594 3.655193,-2.043996 8.922385,-5.095991 10.277582,-8.765585 0.0328,-0.0872 0.775199,-3.959993 1.652797,-5.130391 0.3168,-0.4208 0.4328,-0.4648 1.161598,-0.4392 0,0 0.0896,0.0032 0.3808,0.0128 1.051198,0.0368 3.535194,-0.227199 5.121591,-0.424799 3.900796,-0.487999 3.599196,-1.114398 3.927996,-2.326396 z"
     style="fill:#000000;stroke:none" />
</svg>
