<?xml version="1.0" encoding="UTF-8" standalone="yes"?>
<!-- Created with sK1/UniConvertor (http://sk1project.org/) -->
<svg xmlns="http://www.w3.org/2000/svg" xmlns:xlink="http://www.w3.org/1999/xlink"
  width="595.276pt" height="841.89pt" viewBox="0 0 595.276 841.89"
  fill-rule="evenodd">
	<path
		style="stroke:none;fill:#000000"
		d="m 19.948339,19.941972 0.539,-0.01 c 0.242,-0.004 0.307,-0.157001 0.649,-1.528001 1.969001,-7.888003 2.329001,-12.2430051 -2.515001,-17.3010071 -0.797,-0.833 -1.727,-1.531992 -2.325,-0.786 -0.405993,0.507 -0.820993,4.083002 -0.635993,4.863002 0.324,1.366 1.282993,1.809001 2.391993,2.736001 2.503001,2.0950011 3.131001,3.6660011 2.812001,6.4550021 -0.244,2.141001 -0.916,5.571003 -0.916,5.571003 z m 79.77702,-3.728002 -0.135,-3.203001 c -0.054,-1.295001 -0.036,-1.527001 0.181,-2.321001 0.16,-0.588 0.330001,-1.2320011 0.761001,-1.6460011 1.048,-1.011 3.644,-0.662 4.84799,-1.494 1.733,-1.199001 1.735,-5.316002 0.401,-6.985003 -1.41499,-1.769993 -4.27399,1.041 -5.44499,2.649001 -0.720001,0.988 -1.401002,2.119001 -1.708002,3.440001 -0.142,0.613001 -0.22,1.308001 -0.331,1.916001 l -0.544,2.9800011 -1.797001,-2.3720011 c -2.458001,-3.360001 -1.708,-4.359001 -5.322002,-5.273002 -1.21,-0.306 -3.835001,-0.191 -4.340001,1.223001 -0.395001,1.107 0.532,3.798001 1.113,4.437002 0.446,0.4920001 2.254001,1.7110001 3.001001,1.7860001 1.221001,0.122 3.714002,-0.649 3.714002,-0.649 0,0 2.013,3.006001 3.242001,4.418002 0.536,0.616 0.98,1.112 1.668,1.125 0.284001,0.0056 0.693001,-0.03104 0.693001,-0.03104 z m -4.507002,1.609001 c -2.781001,2.311001 -4.900002,4.696002 -5.670002,6.981002 -0.863001,2.563001 -0.702,5.435003 1.018,7.905004 0.07304,0.106 0.14,0.202 0.201,0.288 -0.776,-1.094001 2.105001,3.506001 1.939001,-1.167001 -0.03904,-1.117 -0.161,-2.519001 -0.514,-2.871001 -0.205,-0.205 -0.488,-0.056 -0.666,-0.167 -0.798001,-0.497 0.56,-2.548001 1.207,-3.331001 2.951001,-3.575002 8.262004,-7.584003 13.836994,-10.919005 l 0.011,-0.048 c 2.787,-1.524 5.39901,-2.700001 7.52501,-3.335001 0.754,-0.226 1.509,-0.418 1.671,-0.159 0.08,0.129 0.013,0.369 -0.093,0.642 -0.251,0.642001 -0.668,1.426001 -1.133,2.268001 -9.63601,17.468007 5.764,-6.9110021 10.507,-7.8870031 0.423,-0.254 0.823,-0.462 1.179,-0.606 1.823,-0.734 3.832,-0.999 3.96,-2.867001 0.018,-0.262 0.003,-0.586 -0.026,-0.900001 -0.271,-3.026993 -4.95,-1.254 -8.229,0.300001 -2.785,1.32 -6.8,3.397001 -11.117,5.805002 -0.35501,0.198 -9.777,5.2230021 -15.607003,10.0680041 z m 10.995993,22.407008 0.539,-0.01 c 0.242,-0.004 0.307,-0.157 0.649,-1.528 1.969,-7.888003 2.329,-12.243005 -2.515,-17.301007 -0.79699,-0.833 -1.72699,-1.532 -2.32499,-0.786 -0.406,0.507 -0.821,4.083001 -0.636,4.863002 0.324,1.366 1.284,1.809 2.392,2.736001 2.50399,2.095001 3.13099,3.666001 2.81299,6.455002 -0.245,2.141001 -0.917,5.571002 -0.917,5.571002 z m -9.629992,7.065995 -4.704002,4.849002 c -0.782001,0.805 -0.893001,0.95 -1.112001,1.446001 -0.306,0.695 -0.412,1.857 -0.262,2.015 0.488,0.510001 2.210001,-0.728 2.810001,-1.187 5.251002,-4.018002 7.643004,-6.549003 8.492004,-11.752997 0.432,-2.645001 -0.918,-3.669001 -3.306002,-4.006001 -3.789001,-0.535 -7.549003,0.012 -9.021003,2.972001 0.23,11.300996 0.554,4.838994 3.767001,4.035994 3.574002,-0.892001 7.418004,-2.873994 3.336002,1.628 z M 29.887343,12.897969 36.343345,6.4489659 29.887343,-3.6104906e-5 23.43134,6.4489659 29.887343,12.897969 z m 5.941002,36.302006 6.455003,-6.448995 -6.455003,-6.449002 -6.455002,6.449002 6.455002,6.448995 z M 22.11534,82.821985 c 0.179,2.465 1.33,3.997 3.424001,4.44 2.702001,0.57 4.229002,-0.893 4.921002,-3.853 0.152,-0.65 0.118,-1.191 -0.3,-1.452 -0.796,-0.497 -2.982001,0.019 -4.038002,-0.542 -1.315,-0.697 -1.649,-3.661999 -1.324,-5.049 0.326,-1.387 1.155,-2.873001 1.381,-3.942001 0.046,-0.217 0.06704,-0.416 -0.02696,-0.527 -0.012,-0.01496 -0.024,-0.028 -0.036,-0.04 C 22.93638,71.132983 22.16338,83.486985 22.11538,82.821985 z m 69.694016,4.561 6.455002,-6.449 -6.455002,-6.448 -6.456003,6.448 6.456003,6.449 z M 13.555344,54.040977 C 8.5553426,52.507976 5.8333419,49.491975 6.051342,43.909981 5.8673419,42.68298 5.6753418,41.19798 5.5003418,39.673979 4.5683414,31.576976 4.6783414,19.134971 4.6963414,12.689969 c 0.01104,-4.1240021 0.024,-9.1590041 0.02896,-11.1040051 0.0016,-0.521 0.0048,-1.586000004906 0.0048,-1.586000004906 0,0 -0.5910003,0.08400000491 -0.9750004,0.138000004906 -2.1040008,0.296 -3.43600133,3.976001 -3.59300139,5.772002 -0.30800012,3.534001 -0.11200005,9.1980041 0.054,12.6100051 0.21800008,4.483002 0.34400013,7.781003 0.41300016,10.246004 0.13200005,4.664002 0.3090001,8.690003 0.54100023,12.159005 1.1720004,17.550999 3.6880014,21.676 11.779004,22.536 4.453994,0.473001 24.511002,0.839001 27.156003,-3.104001 0.92,-1.372 2.088001,-3.740001 2.088001,-3.740001 0,0 1.602,1.387 2.783001,2.197001 0.771,0.528 1.849,0.983 2.916001,1.215 5.312002,1.158001 8.845003,-4.778002 9.823004,-4.975002 0.49,-0.393 1.181,-0.572 2.115,-0.439 0.760993,0.108 1.601993,0.266 2.285993,0.741 1.767001,1.226001 2.313001,3.550002 3.970002,2.717001 1.303,-0.654 3.456001,-4.990002 3.648001,-6.027002 0.281,-1.528001 -0.43,-2.714001 -1.812,-4.233002 -1.638001,-1.8 -3.338002,-2.898001 -4.378002,-4.392993 -0.399,-0.574001 -0.868,-7.633003 -0.97,-13.157005 0.0048,-0.190001 0.01104,-0.372001 0.018,-0.547001 0.296,-7.491003 0,-17.290006 0,-17.290006 0,0 0.808,-0.03 1.523,0 6.063002,0.25 12.874005,7.582003 14.902006,12.350004 1.446997,3.401002 3.348998,11.371005 2.618998,13.675006 -0.469,1.48 -1.613001,3.522001 -2.581998,5.109002 -2.485001,4.070993 -2.501001,4.937994 -1.864001,4.776994 2.093001,-0.529001 3.942999,-4.992994 4.831999,-7.009995 1.27,-2.883001 2.501001,-6.382003 3.503001,-11.277005 0.162,-2.206 -0.01496,-4.564001 -0.553,-7.211002 -1.047,-5.150002 -3.644001,-9.468004 -7.011,-13.2890051 -1.648,-1.869001 -3.725001,-3.782002 -5.371002,-4.535002 -2.518001,-1.152001 -5.699002,-0.993001 -9.046003,-2.964001 -1.353001,-0.796001 -2.851001,-1.929001 -2.851001,-1.929001 0,0 -1.453993,2.980001 -2.147993,4.893002 -1.357001,3.739001 -1.129,8.2880031 -0.702,12.7100051 1.203,12.452005 1.205,12.340004 1.252,25.085009 0.0048,1.476993 -0.02304,2.688993 -0.02304,2.688993 0,0 -1.454,-0.199 -2.276001,0.004 -0.717,0.176001 -0.952,0.658001 -1.108,1.207001 -0.313,1.108 -0.3,2.489001 -0.927001,3.261001 -0.475,0.585 -2.629001,0.965001 -3.919001,0.692 -1.132,-0.24 -1.966001,-0.69 -3.485001,-1.977 -1.166001,-0.987001 -2.735001,-2.467001 -2.735001,-2.467001 0,0 -1.823001,3.053001 -2.979002,4.691002 -0.282,0.399 -0.529,0.711 -0.77,0.958 -0.501,0.513 -1.682001,0.935 -3.321001,1.278 -5.750002,1.205001 -17.259007,2.960002 -23.997002,0.895001 z m 42.285009,-0.578 -0.593,9.237003 -0.115,1.791001 c -0.086,1.331 -0.086,1.613 0.0024,2.822001 0.326,4.489002 4.501001,8.661003 8.757995,8.043003 2.575001,-0.374 8.051003,-3.571001 9.475004,-5.928002 1.635,-2.709001 3.629001,-8.366003 4.725002,-8.683004 0.44,-0.128 0.94,-0.21 0.94,-0.21 0,0 0.981997,3.963002 1.951997,5.928003 1.542001,3.124001 5.852003,6.278002 8.808004,5.929002 0.811,-0.096 1.625001,-0.289 2.381001,-0.741 0.829,-0.496001 1.441,-0.967001 1.922001,-1.388001 l 2.437,-2.133001 2.213001,0.781001 c 2.695002,0.949 2.987002,1.358 5.806002,1.011 4.90999,-0.606 21.585,-2.984001 23.568,-10.375004 0.244,-0.912 0.251,-1.923001 0.476,-2.964001 0.714,-3.309001 3.334,-6.376003 0.185,-5.253002 -2.342,0.835 -4.542,2.186001 -7.029,3.000001 -1.734,0.568 -5.507,0.726 -6.573,0.277 -1.011,-0.427 -2.864,-1.777001 -3.781,-2.943001 -1.30601,-1.660001 -2.80501,-4.623002 -2.80501,-4.623002 0,0 2.073,-1.383 3.57701,-2.068001 4.129,-1.879992 7.924,-0.394 12.141,0.741001 1.281,0.345 1.829,-0.004 1.19,-1.975993 -0.911,-2.810001 -3.26,-4.771002 -5.713,-5.681002 -6.323,-2.346001 -9.95701,0.183 -13.62701,6.303994 -0.882,1.470001 -1.54099,2.833001 -1.60899,4.416002 -0.297,6.941002 4.46099,13.389005 -1.049,11.090004 -1.303,-0.544 -4.822002,-2.709001 -5.778002,-2.296001 -0.693,0.3 -0.994,1.693001 -1.742001,2.717001 -1.363,1.866001 -4.052001,2.535001 -5.618002,2.223001 -5.043002,-1.005 -7.249003,-6.522002 -8.904003,-11.362004 -0.983001,-2.878001 -1.648998,-4.746002 -1.700998,-6.469003 l -0.676,-3.094993 c -0.07,0.104 -0.109,0.161 -0.109,0.161 0,0 -0.919,-2.981001 -1.799001,-5.418002 -0.465,-1.291001 -3.294001,-7.644003 -5.189002,-6.916003 -1.49,0.571 -1.865001,7.889003 -1.714001,8.991004 0.432001,3.156001 3.086002,5.987994 4.761002,9.286995 2.916001,5.745003 1.393001,11.297005 -4.285001,15.562006 -4.540002,3.411002 -9.319004,3.328002 -11.663997,-2.223 L 55.840753,53.462977 z M 43.194348,6.4339659 c 1.746001,-0.388 3.398001,1.600001 3.904001,3.7540021 0.151001,0.642 -0.02304,1.237 -0.449,1.74 l -1.088,1.285001 -1.856001,-0.02304 c -1.223,-0.01504 -2.411001,-0.575 -2.796001,-1.648001 -0.583,-1.6260001 0.427,-4.6960021 2.285001,-5.1080021 z M 21.221339,25.537974 c -3.648001,-1.191001 -6.968994,-3.853002 -8.401995,-6.754003 -2.057001,-4.162002 -1.966001,-7.189003 0.08,-11.6470041 0.397,-0.867001 1.963001,-3.475002 1.768001,-3.801002 -0.192,-0.321 -0.647,-0.147 -1.087001,0.134 -3.346001,2.136001 -6.1750015,13.0280051 -5.5220016,18.1800071 0.6920003,5.464002 3.7900016,10.029004 8.7089956,12.092005 7.062002,2.962001 19.658007,3.093001 28.026011,-3.176001 7.356002,-5.509002 11.365004,-16.157007 5.037002,-27.0390111 -3.062002,-3.761993 -7.516003,-5.113994 -10.111004,-1.046 -2.119001,3.321001 -4.174002,12.4220051 -1.905001,15.8090061 0.508,0.758 1.29,1.482 2.278001,1.962001 1.541,0.75 3.552001,1.103 2.721001,2.188001 -0.02,0.026 -0.042,0.05096 -0.066,0.07496 -8.041003,4.870001 -19.107008,3.812001 -21.526009,3.023001 z"/>
</svg>