<?xml version="1.0" encoding="UTF-8" standalone="yes"?>
<!-- Created with sK1/UniConvertor (http://sk1project.org/) -->
<svg xmlns="http://www.w3.org/2000/svg" xmlns:xlink="http://www.w3.org/1999/xlink"
  width="595.276pt" height="841.89pt" viewBox="0 0 595.276 841.89"
  fill-rule="evenodd">
  <path
     style="fill:#000000;stroke:none"
     d="m 92.499051,42.216886 -0.494999,0 c 0,0 -0.154,0.732998 0,0.989998 0.139,0.231999 0.527999,0.076 0.792999,0.046 0.355999,-0.041 0.446999,-0.186 0.911999,-1.444998 1.727989,-4.686991 1.293998,-9.389982 -0.714999,-12.217977 -0.885999,-1.247998 -2.081998,-3.076995 -3.366996,-3.218994 -0.629999,-0.07 -1.583998,0 -1.583998,0 0,0 -0.857999,2.903994 -0.496,4.624991 0.172,0.814998 2.502997,2.406996 3.713996,3.297995 0.673999,0.495998 1.078998,1.142997 1.237998,2.633995 0.207,1.934996 0,5.28899 0,5.28899 z M 47.953133,60.038852 c 0,0 4.018995,-1.312998 5.611993,-0.950998 0.840999,0.192 1.70999,1.703997 2.254989,2.862995 0.990999,2.102996 1.944998,4.81199 2.306997,6.961987 0.121,0.715998 0.252,1.376997 0.988999,1.627997 0.462999,0.159 1.169998,0.169 1.169998,0.169 0,0 0.0016,-0.011 0.0056,-0.033 0.351,-1.981997 1.134999,-5.305991 1.334999,-7.310987 0.209999,-2.104996 0.162,-2.835995 1.954997,-2.701995 2.708997,0.201 3.629996,0.678999 4.819986,-1.482997 1.067999,-1.938996 2.238997,-5.897989 0.374,-7.180987 -5.765985,-1.552997 -7.918982,6.033989 -8.279982,7.769986 -0.509999,2.451995 -0.723999,5.081991 -0.723999,5.081991 0,0 -1.412998,-4.539992 -2.451997,-6.992988 -1.167998,-2.758995 -4.184987,-6.474987 -7.439982,-5.545989 -1.615998,0.460999 -2.184998,1.783996 -2.183998,3.533993 8e-4,1.610997 0.257,4.191992 0.257,4.191992 z m 77.699857,-44.566917 -0.519,0.009 c -0.668,0.011 -0.758,0.095 -0.901,0.834999 -0.062,0.324999 -0.249,0.819998 -0.458,1.297997 -1.218,2.785995 -2.66999,2.141996 -3.71599,0.084 -0.955,-1.876997 -2.101,-3.953993 -2.289,0.213 -0.075,1.670996 0.111,4.85699 1.399,5.723989 1.379,0.928998 3.51499,0.207999 4.84799,-0.691999 0.314,-0.211999 0.595,-0.458999 0.746,-0.772998 0.087,-0.179 0.132,-0.381 0.164,-0.579999 l 0.189,-1.165998 1.29899,0.147 c 0.237,0.027 0.483,0.049 0.721,0.039 0.826,-0.036 1.463,-0.436 1.94,-1.024999 2.168,-2.678995 1.167,-5.913988 -0.532,-8.190984 -1.272,-1.7039971 -3.41699,-4.3769921 -1.319,0.968998 0.765,1.948996 0.647,3.069995 -1.57199,3.108994 z m 44.84591,66.719877 6.04799,-6.04799 -6.04799,-6.047988 -6.04799,6.047988 6.04799,6.04799 z m -95.913817,-46.010915 6.047991,-6.047989 -6.047991,-6.047989 -6.047992,6.047989 6.047992,6.047989 z m 14.704972,-25.870953 2.283997,3.752994 0.885999,0 c 0.397,0 0.463,-0.12 0.655999,-1.197998 0.355,-1.986996 2.029998,-4.4509921 3.409988,-4.7439911 1.267998,-0.27 2.930996,0.529999 3.802992,0 0.603,-0.367 1.929,-4.149993 2.308,-5.74499 0.13,-0.548998 0.231,-1.115998 0,-1.187997 -0.13,-0.04 -0.363,0.075 -0.495,0 -0.088,-0.049 -0.131,-0.182 -0.211,-0.285 -0.986,-1.279998 -4.511993,0.822999 -4.740993,1.027999 -1.701998,1.520996 -4.441986,5.02399 -4.441986,5.02399 0,0 -2.093998,-2.891995 -3.480996,-4.033992 -1.824997,-1.500998 -3.598995,-0.961999 -4.703994,0.742998 -0.664999,1.024998 -1.103998,2.058996 -1.237998,3.950992 -0.117,1.656998 0,3.9719931 0,3.9719931 0,0 1.402998,0.247 2.772996,0 1.619998,-0.292999 3.191996,-1.276998 3.191996,-1.276998 z m 14.283975,36.284933 c -0.354,0 -0.462,0 -0.462,0 0,0 0,-0.744998 0,-1.051998 0,0.082 1.511,-0.928998 1.429,-0.928998 0.438,0 1.047,0 1.047,0 0,0 0,0.397 0,0.767998 0,1.364998 -0.649,1.212998 -2.014,1.212998 z M 98.160036,31.333906 c 0,0 5.819994,-0.787999 8.665994,-1.574997 2.26098,-0.626 3.52298,-0.869998 4.99698,1.433997 1.615,2.524995 -2.178,3.006995 -6.23498,4.754991 -3.598,1.550997 -8.915992,6.339989 -10.150991,10.151981 -1.08199,3.335994 -0.444991,4.900991 -5.040985,3.465994 -1.567998,-0.489999 -4.005995,-1.585998 -4.862994,-2.970995 -1.112999,-1.799996 -1.293998,-5.39099 -3.386996,-4.456991 -1.28399,0.572998 -2.243987,5.21799 -2.306987,6.437988 -0.074,1.414997 0.252998,2.886994 0.741997,4.455992 2.498989,8.014985 4.800986,8.945983 -2.722995,12.626976 C 62.673106,73.088828 41.347141,76.900821 23.38818,73.086828 17.607187,71.858831 13.420201,69.814834 7.590208,67.047839 5.8842102,66.238841 4.1792123,65.440842 3.0862137,64.173844 2.4042146,63.382846 0.99121635,61.048851 0.11522545,61.944849 c -0.87899889,0.899998 3.54898755,6.415988 3.87998715,6.829987 5.4339931,6.795988 6.9929914,7.526986 15.4679724,10.138981 14.338974,4.419995 23.519954,4.198995 40.320925,0.362999 8.05899,-1.840996 13.544975,-4.475991 20.972964,-9.776982 0.716999,-0.510998 1.37599,-1.007997 1.85999,-1.743996 0.516999,-0.783999 0.834999,-1.839997 1.387998,-2.425995 0.329999,-0.35 0.742999,-0.531999 1.069999,-0.870999 0.800999,-0.828998 1.079998,-2.596995 1.447998,-3.998993 0.269999,-1.024997 0.585999,-1.854996 1.237998,-2.227995 0.727999,-0.417 1.873998,-0.266 2.971996,-0.496 1.336999,-0.278999 3.640996,-1.335997 4.207995,-2.227995 0.581991,-0.913999 1.28299,-2.967995 1.28299,-2.967995 0,0 5.244992,1.883997 7.877992,3.710993 2.008,1.392998 2.313,2.298996 3.47799,1.480997 0.929,-0.652998 3.04899,-4.469991 3.66699,-6.603987 0.914,-3.151995 0.146,-4.271992 -0.707,-7.998985 -0.404,-1.761997 -0.064,-1.981997 1.733,-2.475996 9.28099,-2.552995 10.23698,-2.994994 18.74297,-2.130996 1.332,0.135 1.503,0.119 1.709,-0.158 0.153,-0.205999 0.256,-0.438998 0.345,-0.681998 0.404,-1.102998 0.516,-2.425996 0.99099,-3.466993 1.125,-2.467996 2.43499,-3.676994 -0.90199,-4.455992 -1.298,-0.304 -2.678,0.01 -4.1,0 -2.879,-0.021 -12.12998,-3.359995 -14.55797,-6.189989 -0.744,-0.866998 -1.189,-1.907996 -1.981,-2.475996 -2.166,-1.554996 -6.88898,-0.719998 -9.40798,0 -3.610996,1.031999 -4.613994,2.312997 -4.951994,6.486988 -0.126,1.561997 0,3.753994 0,3.753994 z M 81.819065,22.491922 c -0.147992,1.189998 -0.119992,1.491997 1.548998,0.723999 C 105.29903,13.119939 105.61303,10.671944 118.513,7.9659489 c 4.69999,-0.985998 7.46398,-2.109996 8.86298,-6.073988 0.502,-1.421998 -0.139,-1.639997 -2.37699,-1.187999 -5.02499,1.014999 -33.503938,13.4559751 -39.21793,17.0829691 -2.348997,1.491997 -3.728996,2.839995 -3.961995,4.704991 z M 172.9319,11.087943 c 0,0 3.94199,-0.933998 5.14999,-0.495999 0.803,0.292 1.536,2.667995 2.17199,3.869993 0.519,0.979999 1.686,1.825997 2.657,0.773999 0.155,-0.168 0.207,-0.331 0.52,-1.630997 l 0.89,-3.7059931 0,-0.791999 1.876,0 c 0.843,0 0.983,-0.012 1.393,-0.115 1.77699,-0.447999 2.17098,-2.138996 2.67298,-5.33199 0.351,-2.231996 -0.82399,-3.721993 -3.13898,-2.970995 -1.064,0.345 -2.696,1.933997 -3.05,2.970995 -1.139,3.326994 -0.185,5.22699 -2.093,5.41399 -0.3,0.03 -0.388,-0.106 -0.875,-1.356998 -1.53399,-3.941992 -4.61099,-7.068987 -7.43098,-3.561993 -0.365,0.454 -0.607,0.927998 -0.743,1.643997 -0.35,1.842996 0,5.2889901 0,5.2889901 z m 26.73995,22.055959 -0.495,0 c 0,0 -0.154,0.733999 0,0.989999 0.138,0.231999 0.528,0.076 0.792,0.046 0.357,-0.041 0.448,-0.186 0.912,-1.444998 1.729,-4.686991 1.295,-9.389982 -0.714,-12.217977 -0.887,-1.247998 -2.082,-3.075995 -3.36699,-3.218994 -0.63,-0.069 -1.585,0 -1.585,0 0,0 -0.857,2.903994 -0.495,4.624991 0.172,0.814998 2.50299,2.407996 3.71399,3.297994 0.674,0.495999 1.079,1.142998 1.238,2.634995 0.206,1.933997 0,5.28799 0,5.28799 z M 174.9909,29.419909 c -0.245,2.002997 -0.126,2.585995 1.16,4.446992 1.10999,1.606997 2.47899,3.672993 3.41699,2.970995 0.81599,-0.611 1.57299,-3.815994 1.28699,-4.624992 -0.409,-1.155998 -2.43099,-2.509995 -2.97099,-3.624993 -0.8,-1.651997 1.804,-3.535994 4.06399,-5.22599 4.22,-3.154995 7.24199,-5.31899 12.77198,-8.806984 3.15899,-1.992996 11.77598,-5.9419891 11.88398,-5.4469901 0.0389,0.174999 0.004,0.413999 -0.146,0.728999 -0.335,0.7019981 -1.243,1.7799961 -1.587,2.7369951 -0.206,0.574998 -0.41,2.233995 -0.247,2.475995 0.134,0.201 0.462,0.147 0.792,0 1.79899,-0.798999 3.65999,-4.332992 5.70299,-6.1089891 0.475,-0.411999 0.959,-0.728998 1.473,-0.989998 2.75299,-1.394997 4.94298,-2.274996 5.89698,-5.27999 0.702,-2.215996 -0.087,-2.441995 -1.98099,-1.980997 -12.76798,3.109995 -25.66696,10.4019811 -35.65294,18.5689661 -4.44099,3.631993 -5.20698,4.774991 -5.86398,10.160981 z m 21.69496,23.408957 -6.551,-6.969987 c 0,0 1.708,-0.992998 3.099,-1.633997 5.49299,-2.530996 7.85599,-0.759999 14.11297,0.724999 0.542,0.128999 1.024,0.209999 1.238,0 0.658,-0.644 -0.668,-2.531996 -1.338,-3.307995 -4.14098,-4.79999 -8.97798,-6.078988 -14.50797,-2.253995 -3.44999,2.386995 -5.16998,7.155986 -3.96099,11.375978 0.018,0.062 3.11399,6.547988 2.47599,7.244987 -0.405,0.442 -5.61198,-0.432999 -6.43798,-0.724999 -1.329,-0.471999 -3.085,-1.905996 -3.781,-3.582993 -0.683,-1.642997 -0.464,-2.899995 -2.25999,-2.462995 -2.028,0.493999 -4.74599,4.348992 -6.33799,5.561989 -3.16899,2.414996 -9.47399,1.474998 -12.13197,-2.176996 -2.631,-3.614993 -3.883,-12.712976 -4.704,-15.95997 -0.589,-2.327996 -4.17199,-9.659982 -5.19999,-10.64098 -0.86,-0.819999 -1.84299,-1.492998 -2.67899,-2.235996 -0.332,-0.296 -0.642,-0.602999 -1.282,-0.665999 -0.328,-0.032 -0.743,0 -0.743,0 l -0.414,7.421987 c -0.073,1.303997 -0.013,1.577997 0.601,2.741994 0.719,1.362998 1.612,2.822995 2.537,3.861993 1.01599,1.142998 2.07099,1.775997 2.97099,2.901995 2.02099,2.530995 3.71299,8.380985 3.21899,10.32198 -0.623,2.439996 -9.06498,11.658979 -11.38997,13.135976 -5.227,3.321994 -9.19599,3.197994 -12.69498,-1.647996 -0.607,-0.840999 -0.722,-1.150999 -0.674,-2.076997 0.302,-5.895989 1.969,-3.236994 6.13998,-3.287993 8.00199,-0.099 10.58299,-9.566983 9.70499,-15.650972 -0.616,-4.273992 -2.62999,-8.368985 -3.71399,-15.302971 -1.095,-7.011987 -1.237,-16.927969 -1.237,-16.927969 0,0 1.051,-0.063 1.98,0 6.34799,0.427999 16.48397,13.683975 18.56996,17.894967 1.90399,3.843993 2.74399,8.550984 2.22799,13.251975 -0.386,3.504993 -1.48599,8.995983 -1.48599,8.995983 0,0 0.77599,0.09 1.18899,0 0.59,-0.129 1.304,-1.938996 1.535,-2.417995 0.939,-1.949996 3.272,-12.465977 3.218,-14.509973 -0.253,-9.726982 -5.127,-17.622967 -13.90598,-25.5859521 -2.20399,-1.998997 -3.52399,-2.961995 -6.64298,-4.399992 -3.441,-1.586998 -9.15499,-3.839993004905 -9.15499,-3.839993004905 L 136.31596,5.0929539 c -0.47,1.222998 -0.509,1.502997 -0.394,2.803995 0.8,8.9799831 1.664,20.4479621 2.843,26.8969501 1.252,6.846987 3.272,15.446972 3.272,15.446972 0,0 -3.166,0.562998 -5.154,0.512998 -1.46899,-0.037 -3.96298,-0.722998 -4.80298,-1.933996 -0.545,-0.785999 -0.613,-1.773997 -1.486,-2.901994 -0.853,-1.103998 -2.477,-2.341996 -2.477,-2.341996 0,0 -1.62,3.820993 -2.227,6.200988 -0.42799,1.678997 -0.35199,2.640995 0,3.888993 1.618,5.73799 3.306,6.303988 -1.48499,9.904982 -12.24998,9.205983 -16.47297,11.150979 -32.771938,16.961966 -1.255998,0.448 -1.395998,0.537 -1.395998,0.884 l 0,0.775 16.679966,-0.889 c 1.335,-0.071 1.618,-0.14 2.83199,-0.69 5.874,-2.664993 9.01099,-4.35099 13.16998,-8.335983 1.733,-1.659996 4.02999,-3.988992 4.02999,-3.988992 0,0 1.035,1.728997 1.912,3.021994 7.11698,10.481981 15.50897,2.882995 23.02596,-6.529987 0.92199,-1.153998 1.68299,-2.107997 2.72399,-4.110993 0.786,-1.513997 1.733,-3.626993 1.733,-3.626993 0,0 0.559,1.765996 0.99,2.901994 1.538,4.047993 5.40298,5.892989 9.65598,6.286989 1.204,0.112 2.17,0.028 3.46599,-0.724999 2.774,-1.612996 7.06199,-6.295988 7.06199,-6.295988 0,0 1.836,3.042994 2.84199,4.360992 3.539,4.635991 17.22997,1.241998 22.71697,0.215 8.88398,-1.663997 13.45597,-2.995995 15.72396,-11.00198 0.387,-1.364998 0.629,-2.710995 0.183,-2.996995 -0.225,-0.143999 -0.623,-0.02 -1.12,0.17 -6.26298,2.401995 -11.92397,6.216988 -18.52896,4.665991 -0.405,-0.095 -0.778,-0.219999 -1.125,-0.421999 -0.467,-0.272999 -0.619,-0.409999 -1.52399,-1.371997 z" />
</svg>
