<?xml version="1.0" encoding="UTF-8" standalone="yes"?>
<!-- Created with sK1/UniConvertor (http://sk1project.org/) -->
<svg xmlns="http://www.w3.org/2000/svg" xmlns:xlink="http://www.w3.org/1999/xlink"
  width="595.276pt" height="841.89pt" viewBox="0 0 595.276 841.89"
  fill-rule="evenodd">
	<path
		style="stroke:none;fill:#000000"
		d="m 16.701964,8.8177822 -4.70399,4.8489898 c -0.781998,0.804998 -0.892998,0.949998 -1.111997,1.445997 -0.306,0.694998 -0.411999,1.856996 -0.262,2.014996 0.487999,0.509998 2.209996,-0.727999 2.809994,-1.186998 5.250989,-4.017991 7.643976,-6.5489858 8.492974,-11.7529748 0.430999,-2.644994 -0.918998,-3.66899201 -3.306985,-4.00599101 -3.788992,-0.534999 -7.547984,0.012 -9.0199805,2.97199301 0.2299995,11.3009758 0.5529985,4.83899 3.7659915,4.035992 3.573993,-0.891998 7.417977,-2.873994 3.335993,1.627996 z M 0.14221733,39.010983 c -0.41589911,5.755979 -0.18369961,8.448974 4.39548977,11.036968 0.0198,0.012 0.039704,0.02296 0.059504,0.034 3.4204927,1.914996 8.2845799,1.349997 9.9947759,-3.071994 0.255,-0.657998 0.402999,-1.439996 0.567999,-2.510994 0.284999,-1.850988 -0.142,-3.756984 -1.904596,-3.191985 -1.288597,0.411999 -2.802392,2.325995 -4.324389,3.095985 C 6.7150064,45.524961 3.7237136,43.593973 2.7062158,41.055978 1.7881178,38.765983 4.0755121,33.488994 5.0871099,30.284001 5.8324083,27.923006 6.4902069,25.094012 6.002808,24.583013 4.3919114,22.895017 1.2507189,32.750996 0.87481973,34.464992 0.48752059,36.230989 0.22522115,37.861985 0.14222133,39.010983 z M 40.415928,16.214031 l -0.135,-3.202993 c -0.054,-1.294997 -0.03696,-1.526997 0.18,-2.320995 0.161,-0.587999 0.330999,-1.2319968 0.760998,-1.6459958 1.04899,-1.010998 3.644984,-0.661999 4.848982,-1.493997 1.732996,-1.198998 1.733996,-5.315989 0.399999,-6.98498501 -1.413997,-1.76998899 -4.272991,1.04099701 -5.44498,2.64899401 -0.718999,0.987998 -1.399997,2.118995 -1.706997,3.439993 -0.141999,0.612998 -0.220999,1.307997 -0.331999,1.915996 L 38.442932,11.550041 36.646936,9.1780462 c -2.458995,-3.359993 -1.708996,-4.35899 -5.321989,-5.272989 -1.210997,-0.305999 -3.835991,-0.190999 -4.34099,1.222998 -0.393999,1.106997 0.532999,3.797992 1.112997,4.436991 0.446999,0.4919978 2.254996,1.7109958 3.001994,1.7859958 1.219997,0.121999 3.713992,-0.648999 3.713992,-0.648999 0,0 2.011996,3.005994 3.241993,4.417991 0.535999,0.615998 0.979998,1.111997 1.667996,1.124997 0.284,0.0056 0.692999,-0.03104 0.692999,-0.03104 z m 5.099981,27.486942 0.538999,-0.009 c 0.241999,-0.0048 0.306999,-0.158 0.648999,-1.528997 1.968995,-7.886983 2.328995,-12.242974 -2.514995,-17.300963 -0.796998,-0.832998 -1.725996,-1.531997 -2.324995,-0.784998 -0.405991,0.505998 -0.82099,4.081991 -0.635991,4.862989 0.324,1.364997 1.28399,1.807996 2.391987,2.735994 2.503995,2.093996 3.130993,3.664992 2.812994,6.453986 -0.244999,2.140996 -0.916998,5.570989 -0.916998,5.570989 z m -12.387965,-9.35698 c -0.04,-1.115998 -0.162,-2.517995 -0.514999,-2.870994 -0.205,-0.204 -0.487999,-0.056 -0.665999,-0.167 -0.797998,-0.496999 0.559999,-2.546995 1.206998,-3.330993 5.872987,-7.113985 21.094946,-15.946966 29.136929,-17.773962 0.765999,-0.173999 1.531997,-0.3149988 1.676997,-0.046 0.072,0.134 -0.009,0.368999 -0.133,0.634999 -0.289999,0.622999 -0.754998,1.377997 -1.271997,2.186995 -10.709977,16.780964 6.183986,-6.5079858 10.977976,-7.1619848 0.438999,-0.224999 0.849998,-0.405999 1.214998,-0.524998 1.865996,-0.609999 3.885991,-0.738999 4.130991,-2.593995 0.03496,-0.260999 0.04,-0.584999 0.03096,-0.899998 -0.081,-3.038986 -4.86199,-1.58499701 -8.229983,-0.255999 -3.117993,1.230997 -7.748983,3.258993 -12.659973,5.616988 C 51.672856,10.207044 32.646905,19.365025 29.96891,27.319008 c -0.861998,2.562994 -0.701998,5.434988 1.017998,7.904983 0.074,0.105999 0.141,0.200999 0.202,0.286999 -0.776999,-1.092998 2.104995,3.506993 1.938996,-1.166997 z m 63.749849,-27.0409428 -0.604999,0.01096 c -0.778998,0.01304 -0.883998,0.111 -1.049998,0.972998 -0.07304,0.376999 -0.288999,0.953998 -0.532998,1.509997 -1.419997,3.2429928 -3.112994,2.4939948 -4.330991,0.098 -1.111998,-2.185996 -2.447995,-4.60299 -2.666994,0.2479988 -0.088,1.944996 0.128999,5.653988 1.629996,6.662986 1.606997,1.080998 4.095991,0.242 5.649988,-0.804998 0.365999,-0.247 0.691998,-0.534999 0.868998,-0.899998 0.102,-0.209 0.154,-0.443999 0.191,-0.674999 l 0.219999,-1.356997 1.513997,0.171 c 0.275999,0.03096 0.562999,0.05704 0.839998,0.04496 0.962998,-0.042 1.705001,-0.506999 2.260991,-1.192998 2.526,-3.1189928 1.36,-6.8849848 -0.61999,-9.5349798 -1.482001,-1.98399501 -3.982996,-5.094981 -1.537001,1.126998 0.891998,2.268995 0.752998,3.573992 -1.831996,3.618992 z M 137.9757,82.821878 c 0.179,2.465 1.32999,3.997 3.42399,4.44 2.70199,0.56999 4.22899,-0.893 4.92199,-3.853 0.152,-0.65 0.118,-1.19099 -0.301,-1.45199 -0.796,-0.497 -2.98099,0.019 -4.03799,-0.542 -1.314,-0.697 -1.649,-3.661996 -1.323,-5.048993 0.325,-1.386997 1.155,-2.872994 1.38,-3.941992 0.046,-0.216999 0.067,-0.415999 -0.027,-0.526999 -0.012,-0.01496 -0.024,-0.028 -0.036,-0.04 -3.17899,-0.723998 -3.95199,11.629974 -4.00099,10.964974 z M 24.189963,45.221961 l 6.454986,-6.448978 -6.454986,-6.447986 -6.455987,6.447986 6.455987,6.448978 z m 90.811787,42.160907 6.45599,-6.44898 -6.45599,-6.447989 -6.45498,6.447989 6.45498,6.44898 z M 59.03688,52.279946 c -0.07,0.163 -0.393999,0.141 -0.705998,0.056 -0.540999,-0.148 -2.293995,-1.803996 -2.482995,-2.344995 -0.06,-0.174 -0.078,-0.317999 -0.03696,-0.473999 0.07,-0.270999 3.549992,-3.259993 4.84699,-3.720992 0.455999,-0.163 0.523999,-0.06304 0.405999,0.376999 -0.119,0.445999 -0.330999,0.998998 -0.568999,1.445997 -0.217999,0.408999 -0.458999,0.730999 -0.633999,1.152998 -0.430999,1.035997 -0.468999,2.679994 -0.823998,3.507992 z M 12.461788,45.373961 c -1.440296,1.881996 -4.158789,4.77299 -5.7280856,7.082985 -2.6588943,3.912991 -3.6365914,7.020985 -4.3692899,11.733975 -0.5160989,3.319993 -0.5808987,4.65599 0.4394991,8.863981 1.7064956,7.036986 5.7121862,11.858976 12.7610694,13.790976 5.539988,1.51899 10.243978,-0.361 15.316967,-3.423 1.825996,-1.10199 6.331987,-4.65299 6.845986,-5.393987 0.464999,-0.668998 1.487997,-4.280991 1.613996,-5.695988 0.152,-1.697996 0.353,-4.000991 0.781999,-5.045989 0.367999,-0.896998 0.858998,-1.531997 0.312999,-2.711994 -0.214,-0.460999 -0.695999,-0.887998 -0.779998,-1.487997 -0.03,-0.217999 -0.04096,-0.526999 -0.04096,-0.526999 l 4.358982,-0.195999 c 0.712999,-0.032 0.858999,-0.05296 1.462997,-0.204 1.351997,-0.338999 4.393991,-2.645994 4.87999,-3.361993 0.494999,-0.727998 1.060998,-1.920996 1.060998,-1.920996 0,0 4.206991,4.435991 6.265986,5.708988 1.450997,0.896998 3.629992,1.157998 4.377991,0.579999 0.671998,-0.518999 1.282997,-3.944992 2.375995,-6.321987 1.461997,-3.175993 2.078995,-3.634992 0.876998,-6.647985 -0.449999,-1.127998 -0.899998,-2.058996 -2.004996,-3.547993 -0.518999,-0.699998 -1.181997,-1.521997 -1.181997,-1.521997 0,0 1.038997,-0.997989 2.017995,-1.790988 3.867992,-3.132993 21.523956,-7.210984 27.078936,-7.376984 2.955994,-0.088 7.574984,0.408999 8.082983,-1.699996 0.12,-0.496999 0.148999,-1.182998 0.380999,-1.883996 1.385993,-4.209991 3.289993,-4.316991 1.822993,-5.355989 -0.249,-0.175999 -0.356,-0.201999 -1.06699,-0.253999 -5.253993,-0.381999 -7.651988,-0.139 -10.683982,-1.534997 -1.526997,-0.702998 -3.487992,-1.863996 -5.034981,-2.319995 -0.445999,-0.131 -0.857998,-0.204 -1.253997,-0.378999 -0.707999,-0.313 -1.367997,-0.951998 -2.098996,-1.464997 -1.276997,-0.895998 -3.645994,-1.929996 -5.847989,-2.751994 -4.053991,-1.513997 -17.768962,0.345999 -19.396959,5.566988 -0.451999,1.450997 -0.942998,3.385993 -0.947997,3.867992 -0.01104,1.004998 0.183999,2.315995 0.183999,2.315995 l 10.419978,-2.428995 c 0.694998,-0.162 0.808998,-0.224 1.138997,-0.612999 1.592997,-1.876996 3.380993,-1.268997 5.347989,-0.480999 1.644996,0.658999 3.369993,1.337997 4.909989,2.021996 0.710999,0.314999 0.974998,0.475999 0.957998,0.964998 -0.0048,0.144 -0.081,0.183999 -0.760998,0.399999 -2.022996,0.641999 -11.695975,3.870992 -13.639971,5.429988 -0.533999,0.428999 -1.001998,0.921998 -1.561996,1.294998 -0.576999,0.385999 -1.251998,0.643998 -1.900996,0.977998 -1.780997,0.915998 -6.756986,5.283988 -8.107983,7.251976 -0.778998,1.135998 -1.358997,2.494995 -2.240995,3.487993 -0.547999,0.617998 -1.213998,1.094997 -1.575997,1.846996 -0.624999,1.295997 -0.388999,2.743994 -1.285997,3.279993 -1.594997,0.953998 -5.224989,0.195999 -6.286979,-0.164 -1.397997,-0.472999 -3.152993,-1.263997 -4.039991,-2.459995 -0.912998,-1.228997 -2.222995,-4.77899 -3.432993,-3.169993 -1.633996,2.171995 -1.854996,6.426986 -1.577996,8.493982 0.242999,1.818996 1.484996,6.177987 2.389995,8.390982 1.184997,2.895994 2.934993,6.635986 2.934993,6.635986 0,0 -1.370997,1.314997 -2.365995,2.189995 -2.051995,1.804996 -6.108987,4.133991 -8.627981,4.789987 -5.595988,1.458 -11.436976,-0.384996 -15.440066,-4.071989 C 8.1163394,71.864904 6.6538426,67.603913 6.0150439,63.424922 5.9207441,62.807924 5.8603443,62.169925 5.8438443,61.549926 7.1020416,53.876943 15.051022,41.990976 12.461828,45.373961 z m 135.932882,18.82896 5.97199,-4.008992 0.882,-1.852996 c 0.13,-0.272999 0.249,-0.559999 0.35,-0.862998 0.348,-1.043998 0.216,-4.47699 -0.385,-5.782988 -0.74,-1.606996 -1.509,-0.299999 -2.27799,0.747999 -0.298,0.406999 -8.53499,3.764992 -9.65798,3.936991 -1.724,0.265 -2.472,0.224 -4.293,-0.585998 -1.11799,-0.497999 -4.05799,-2.669995 -5.28198,-3.902992 -2.182,-2.196995 -5.05299,-5.527988 -5.05299,-5.527988 l 9.66798,-2.433987 c 0.69199,-0.174 0.78699,-0.189 0.95399,-0.147 0.123,0.03096 0.251,0.03096 0.379,0.028 2.998,-0.06704 3.097,-0.580998 5.49299,0.213 1.35,0.446991 2.338,0.96499 3.115,0.573991 1.76499,-0.88799 1.13799,-2.271988 0.29699,-3.465985 -0.42599,-0.605999 -5.94398,-4.319991 -6.86298,-4.61999 -2.476,-0.808998 -6.05399,-0.193 -8.67298,0.952998 -1.213,0.530999 -5.85498,3.796992 -6.15098,4.327991 -0.319,0.573998 -0.418,1.159997 -0.767,1.822996 -0.76,1.442989 -1.913,2.363987 -2.101,3.785984 -0.092,0.699998 0.104,1.440997 0.064,2.283995 -0.063,1.332997 -0.71799,2.922994 -0.37899,3.476992 0.168,0.274 0.57999,0.295 0.98799,0.456999 0.582,0.233 2.36,2.183996 4.22899,4.482991 0.84,1.032998 1.82299,2.186995 1.82299,2.186995 0,0 -1.36399,0.183 -2.50798,0.199 -2.267,0.03104 -5.03099,-0.995998 -6.15299,-2.424995 -1.534,-1.953996 -2.41,-5.524988 -3.71699,-3.412993 -0.362,0.584999 -0.57,1.322997 -0.908,1.925996 -1.397,2.495995 -7.18699,4.305991 -9.71298,4.212991 -3.33699,-0.122 -4.20899,-2.216995 -5.32299,-6.036987 -0.119,-0.406999 -0.219,-0.794998 -0.224,-1.205998 -0.008,-0.553998 0.05,-0.627998 0.572,-0.742998 0.388,-0.084 0.739,-0.271999 1.097,-0.444999 2.57599,-1.245997 5.96999,-2.379995 6.52798,-3.143993 0.768,-1.049998 0.512,-2.616995 1.359,-4.367991 0.079,-0.163 0.244,-0.408999 0.441,-0.69999 1.579,-2.323995 0.778,-11.553976 0.525,-14.36597 -0.593,-6.583986 -2.195,-18.73496 -2.195,-18.73496 l 0.762,-0.06 c 0.343,-0.02696 0.448,0.012 1.051,0.394 8.48598,5.365988 12.14597,9.24798 12.40597,18.45396 0.151,5.364989 -0.69,5.852988 -3.37699,9.21898 -0.936,1.172998 -2.038,3.381993 -1.398,4.082992 0.822,0.902998 2.648,-2.245995 3.658,-3.997992 3.79199,-6.571986 5.40698,-9.00498 5.00899,-17.027963 -0.107,-2.176996 -0.614,-4.81199 -1.875,-7.283985 -0.28,-0.549999 -0.591,-1.061997 -0.816,-1.559996 -0.343,-0.758999 -0.488,-1.482997 -0.836,-2.184996 -0.331,-0.666998 -3.67799,-3.7709918 -4.86599,-4.5129898 -0.815,-0.508999 -1.60799,-0.953998 -2.30299,-1.479997 -0.774,-0.586999 -1.425,-1.273997 -2.256,-1.911996 -1.052,-0.807998 -4.75999,-2.61699401 -6.24198,-3.04699301 -0.871,-0.251992 -0.966,-0.163 -1.408,0.561998 -0.488,0.80099901 -1.282,1.84599601 -1.569,2.81099401 -0.153,0.514999 -0.162,1.007998 -0.263,1.530997 -0.169,0.880998 -0.361,1.402997 -0.509,1.886996 -0.80299,2.628995 0.507,10.2219778 0.956,12.7189728 0.64,3.558992 2.632,20.160957 2.573,21.701954 -0.077,1.968995 -0.492,2.008995 -3.206,3.034985 -2.03699,0.769998 -3.92799,1.484997 -5.73298,1.910996 -0.285004,0.06704 -0.568003,0.128 -0.858003,0.118 -0.390999,-0.014 -0.465999,-0.088 -0.748998,-0.743999 -0.701998,-1.628988 -3.225993,-6.355978 -4.025991,-7.533976 -0.251,-0.368999 -0.516999,-0.729998 -0.786999,-1.087997 -0.262999,-0.347999 -4.58899,-7.503984 -6.279986,-4.81599 -0.04504,0.07304 -0.093,0.156 -0.143,0.252 -0.914998,1.763996 -1.306997,6.643985 -0.827998,7.925983 0.643998,1.721996 3.035993,3.830983 3.596992,5.22898 0.186,0.462999 0.03896,0.499999 -0.589999,0.385 -4.571982,-0.837999 -7.286976,-1.642997 -10.313971,-4.154984 -0.601999,-0.499998 -1.110998,-1.007997 -1.463997,-1.737996 -0.539999,-1.115997 -0.763998,-2.559994 -1.836996,-1.972996 -0.519999,0.285 -1.413997,2.275996 -1.624997,2.806994 -1.290997,3.245985 -1.229997,5.286981 0.04904,7.911975 1.379997,2.835994 4.402991,7.759984 4.402991,7.759984 0,0 -3.428993,4.048991 -5.564988,5.970987 -1.314997,1.182998 -2.279995,1.953996 -2.713994,0.876998 -0.227,-0.560999 -0.416,-1.239997 -0.568999,-2.152995 -0.458999,-2.729994 -0.600999,-7.552984 -0.600999,-7.552984 0,0 -0.643999,0.04096 -1.044998,0.215 -0.366999,0.159999 -0.659998,0.892998 -0.726998,1.547996 -0.092,0.898998 -0.265,1.872996 -0.374999,2.909994 -0.261,2.474995 -0.154,5.301989 -0.112,7.954983 0.01104,0.712998 -0.05,0.840998 -0.613999,1.277997 -3.235993,2.512995 -9.35998,7.257985 -12.820972,9.138981 -4.71799,2.565994 -14.91296,6.083984 -17.327955,7.633984 -0.788999,0.507 -1.316997,1.515 -0.248,2.681 0.106,0.116 0.211,0.17999 0.326,0.23899 0.411999,0.21 15.125959,-1.80799 16.230957,-2.22599 1.524997,-0.577 4.42799,-2.256 5.918987,-3.42399 0.628999,-0.493 8.984981,-8.096987 10.407978,-7.260989 0.441999,0.258999 0.889998,1.589996 1.447997,2.665994 1.163997,2.243995 5.080989,5.795985 7.392984,6.298985 1.293997,0.281 5.40499,0.201 6.269988,-0.1 2.018988,-0.703 8.077975,-7.189983 8.829973,-8.38098 0.700999,-1.109998 1.160998,-2.226995 1.998996,-3.203993 0.728999,-0.848999 1.530997,-1.415997 1.680996,-2.204996 0.103,-0.547999 -0.105999,-1.202997 -0.156999,-1.967995 -0.173,-2.574995 1.965996,-7.041985 -0.532999,-5.571989 -0.578999,0.34 -1.573997,1.758997 -2.071996,2.811994 -1.492996,3.154994 -1.426997,3.236994 -6.372986,7.668984 -2.051988,1.837996 -2.794986,2.267995 -5.47098,2.442995 -2.649996,0.173999 -5.036991,-0.544999 -7.059987,-2.785994 -0.704998,-0.780999 -1.549996,-1.922996 -1.549996,-1.922996 0,0 2.968993,-3.789992 4.681989,-4.95399 0.809999,-0.549998 1.380998,-0.566998 1.714997,-1.027997 0.346001,-0.477999 0.467,-2.282995 0.597,-3.648993 0.157,-1.643996 0.528999,-2.932993 1.316997,-5.352988 0.255,-0.780998 0.552999,-1.680996 0.552999,-1.680996 0,0 12.569965,1.915995 12.569965,1.915995 0,0 0.266,1.058998 0.577999,2.129996 1.285997,4.41899 5.195984,11.713975 11.211974,11.531975 0.997,-0.03104 1.987,-0.11 2.507,-0.230999 2.10299,-0.489999 5.28399,-1.280998 6.75998,-3.102994 0.778,-0.960998 1.151,-1.854996 1.862,-1.817996 0.655,0.034 2.03099,2.495995 3.34899,3.441993 0.701,0.502999 4.32499,0.984998 5.49999,1.050998 1.2,0.06704 2.39399,-0.07304 3.62499,-0.265 2.31899,-0.361999 4.76698,-0.907998 6.97998,-1.080998 0.991,-0.07704 1.93399,-0.08 2.94699,-0.156999 1.266,-0.097 6.74299,-1.707997 7.43999,-2.187996 0.267,-0.183999 0.542,-0.381999 0.81799,-0.566998 z M 174.35662,5.5260542 c 0.022,-0.01904 0.044,-0.04 0.066,-0.062 0.73999,-0.746998 1.93899,-5.43798801 1.93899,-5.43798801 0,0 -2.80299,-0.112 -5.22898,0.128 -0.68,0.06704 -8.20499,4.12899101 -8.33799,4.50099001 -0.263,0.736998 -0.233,0.845998 -0.53899,1.319997 -0.17,0.262999 -2.507,1.786996 -5.44899,3.606992 -10.41898,6.4469868 -14.53697,8.4919818 -23.11795,17.3889628 -1.452,1.505997 -2.443,2.811994 -2.854,4.70599 -0.08,0.370999 -0.162,0.719999 -0.181,1.254998 -0.024,0.685998 0.058,1.677996 0.058,1.677996 0,0 0.56,-0.089 1.062,-0.226 0.43,-0.117999 1.358,-1.008997 2.433,-2.101995 5.25398,-5.343989 15.89996,-13.127972 22.20695,-17.188963 1.41499,-0.910998 2.72999,-1.769997 3.82599,-2.554995 0.296,-0.211999 0.575,-0.417999 1.155,-0.488999 0.182,-0.022 0.395,-0.03104 0.395,-0.03104 0,0 -0.504,3.250993 -0.652,5.135989 -0.109,1.376997 -0.028,2.024996 0.184,2.315995 0.878,1.209998 1.94999,-3.775992 3.61899,-7.834983 0.384,-0.934998 1.12,-1.8499958 2.14999,-2.6419938 l 7.26599,-3.466993 z m -23.87995,-1.135998 -0.349,-4.38999000509 c 0,0 -0.65,0 -1.054,0.08399999509 -0.97499,0.201999 -3.49699,3.16799301 -3.68099,3.37499201 -0.782,0.878999 -2.49099,2.912994 -2.76499,3.967992 -0.115,0.440999 -0.13,0.535999 -0.537,0.608999 -0.159,0.028 -0.224,-0.03296 -0.646,-0.607999 -2.75199,-3.743992 -5.41599,-5.944987 -9.09898,-5.015989 -1.841,0.464999 -2.73899,1.071997 -3.01499,2.765994 -0.311,1.898996 0.067,5.5289878 1.45899,6.6849858 1.041,0.862998 2.573,1.229997 3.81899,0.755998 0.556,-0.211 3.351,-2.405995 4.259,-2.191995 0.61699,0.146999 2.71999,2.568994 2.91199,2.946993 0.339,0.669999 0.666,2.776994 1.811,2.769994 0.16399,-8e-4 0.39499,-0.03096 0.39499,-0.03096 0,0 -0.017,-1.849997 0.276,-3.199994 0.094,-0.434999 2.09,-4.0189908 3.3,-4.6329898 0.34,-0.171999 0.73599,-0.194999 1.09599,-0.361999 0.576,-0.266 1.577,-1.497997 1.781,-2.328995 0.091,-0.368999 0.094,-0.487999 0.038,-1.198998 z"/>
</svg>