<?xml version="1.0" encoding="UTF-8" standalone="yes"?>
<!-- Created with sK1/UniConvertor (http://sk1project.org/) -->
<svg xmlns="http://www.w3.org/2000/svg" xmlns:xlink="http://www.w3.org/1999/xlink"
  width="595.276pt" height="841.89pt" viewBox="0 0 595.276 841.89"
  fill-rule="evenodd">
    <path
       style="fill:#000000;stroke:none"
       d="m 36.5952,35.91811 -3.936001,3.909601 c -0.6536,0.6496 -0.7464,0.7664 -0.9296,1.1664 -0.2568,0.56 -0.3448,1.4976 -0.2192,1.6248 0.408,0.4112 1.8488,-0.5872 2.3504,-0.9576 4.393601,-3.24 6.395201,-5.280801 7.105601,-9.476001 0.3608,-2.1328 -0.7688,-2.9584 -2.7664,-3.2304 -3.1696,-0.4312 -6.315201,0.0104 -7.547201,2.3968 0.1928,9.112001 0.4632,3.9008 3.1512,3.2544 2.990401,-0.72 6.205601,-2.3176 2.791201,1.312 z m -13.372002,-23.729602 -0.4424,0.008 c -0.5704,0.0096 -0.6472,0.0808 -0.7688,0.7128 -0.0536,0.2768 -0.212,0.6992 -0.3912,1.1072 -1.0392,2.3768 -2.2784,1.828 -3.1704,0.072 -0.8144,-1.6024 -1.7928,-3.3744 -1.9536,0.1816 -0.064,1.4256 0.0952,4.144001 1.1944,4.884001 1.176,0.792 2.9992,0.1776 4.1368,-0.5904 0.268,-0.1816 0.5064,-0.392 0.636,-0.6592 0.0744,-0.1536 0.1128,-0.3256 0.14,-0.4952 l 0.1608,-0.995201 1.1088,0.1256 c 0.2016,0.0224 0.412,0.0424 0.6152,0.0328 0.705601,-0.0304 1.248801,-0.3712 1.655201,-0.8744 1.8496,-2.2856 0.996,-5.0456 -0.4544,-6.9887997 -1.084001,-1.4536 -2.915201,-3.734401 -1.124801,0.8264 0.652801,1.6631997 0.552001,2.6199997 -1.3416,2.6527997 z m 16.683202,40.850404 -4.2208,4.221601 4.2208,4.2208 4.2216,-4.2208 -4.2216,-4.221601 z M 8.2135968,6.1277083 c -0.6244802,0.0104 -1.1238402,0.404 -1.1156002,0.8784 0.00832,0.4752 0.52112,0.8504 1.1452002,0.84 0.6248001,-0.0112 1.1240001,-0.4048 1.1160001,-0.8792 -0.0088,-0.4744 -0.5216,-0.8504 -1.1456001,-0.8392 z m 4.5640002,0.008 -1.2424,0.0216 c 0,0 -0.0312,-1.758401 -0.0312,-1.758401 0,0 0.4296,-0.06 0.7728,-0.024 1.4072,0.1472 2.0168,1.734401 0.5008,1.760801 z m -7.2133606,0.6184 c -0.09384,1.1104 -0.1708,3.2224 0.4168,3.7223997 0.9996801,0.8496 1.9897602,0.4392 1.7856002,1.5168 -0.1404,0.74 -0.9146401,1.7616 -1.1843201,2.6944 -0.14344,0.496 -0.27328,1.6224 -0.1452,1.7616 0.4564,0.495201 2.4604804,-1.556 2.6068804,-1.8048 0.9072001,-1.5384 0.6848001,-3.1864 1.8640001,-4.0784 0.9808,-0.7415997 2.888,-0.8519997 3.8432,-1.5327997 0.903201,-0.644 2.096001,-4.119201 1.557601,-5.500801 -0.9896,-2.54240003 -5.735201,-4.7344 -7.3312011,-2.78400003 -0.1072,0.132 -0.2032,0.28080003 -0.2608,0.44400003 -0.1328,0.3696 -0.0712,0.8088 -0.2448,1.1616 -0.3200001,0.648 -1.4346404,1.0008 -1.9930404,1.5104 -0.5770401,0.5264 -0.8211201,1.7832 -0.9147201,2.889601 z M 62.951202,42.942911 c 0.2704,-0.2384 0.5432,-0.5232 0.7784,-0.8512 0.968001,-1.3496 1.484801,-5.655201 1.484801,-5.655201 0,0 -0.6472,-0.0376 -1.125601,0.02 -0.6736,0.0808 -1.012,0.351201 -1.528,0.692801 l -6.0808,3.1904 c -1.5072,0.6976 -4.508001,0.4824 -5.505601,0.2152 -0.6704,-0.1792 -1.2272,-0.4432 -1.8864,-0.8464 -1.1736,-0.7176 -4.860801,-4.572801 -5.017601,-5.245601 -0.1416,-0.6096 -0.0176,-1.1696 0.3232,-1.6504 0.338401,-0.4752 3.192001,-1.3736 4.339201,-1.3656 3.6432,0.0248 9.028001,1.2496 9.028001,1.2496 0,0 -0.0392,-0.2368 -0.0064,-0.3512 0.0336,-0.1136 0.1392,-0.1064 0.2128,-0.1408 0.1752,-0.08 0.168,-0.3968 0.1248,-0.7096 -0.2192,-1.5632 -1.8192,-3.9208 -2.8944,-4.5584 -1.700001,-1.008001 -5.977601,-1.413601 -7.295201,-1.104001 -1.0248,0.2408 -3.319201,1.716001 -3.938401,2.531201 -1.644,2.168 -2.764,8.2152 -1.7328,10.281601 0.86,1.7224 2.925601,3.328 3.400801,4.6416 0.2752,0.7616 -0.2288,0.7584 -1.679201,0.5576 -1.0624,-0.148 -2.5488,-0.3184 -3.2512,-0.8232 -1.2016,-0.8632 -1.8472,-2.6632 -2.6424,-2.2408 -0.56,0.2984 -0.9928,1.8288 -1.4968,2.7768 -1.404,2.64 -6.246401,2.5576 -7.972801,0.9072 -0.7168,-0.6856 -1.1768,-1.7016 -1.456,-2.7896 -0.5992,-2.3312 -0.372,-4.9912 -1.3696,-7.892001 -0.9032,-2.6264 -2.448801,-6.1688 -2.226401,-6.6104 0.3528,-0.700801 3.995201,-2.456801 5.537601,-3.003201 1.336,-0.4736 1.0888,0.2088 2.8784,1.4136 0.8352,0.5616 4.243201,1.179201 5.059201,0.7912 1.0096,-0.48 3.1088,-5.196 3.5552,-6.0848 0.344,-0.6848 0.6208,-1.2192 0.7576,-2.012 0.36,-2.082401 -1.2472,-10.9544007 -1.2472,-10.9544007 0,0 0.6488,-0.0536 1.1256,-0.02 1.6768,0.1176 3.4048,2.3344 4.116001,3.5095997 0.9736,1.612 2.7688,5.1024 2.3264,6.792001 -0.1064,0.4056 -1.328,2.5544 -1.0032,2.9728 0.6016,0.776 2.024,-2.1704 2.2256,-2.5656 1.7304,-3.395201 2.8304,-5.066401 1.2768,-8.4024007 -0.7864,-1.6888 -2.8848,-4.669601 -4.1464,-5.732001 C 44.0344,2.2205073 40.0168,5.0727036e-4 40.0168,5.0727036e-4 c 0,0 -0.904,1.17680002964 -1.4368,2.07120002964 -0.548,0.9192 -0.7032,1.5384 -1.0152,2.304 -0.104,0.2552 -0.2248,0.5264 -0.2672,0.808 -0.0568,0.38 -0.0608,0.528 -0.0416,1.477601 0.072,3.5247997 0.0768,8.5007997 0.5328,10.5592007 0.6448,2.9104 1.8376,4.3088 -0.636,3.8744 -1.8344,-0.3232 -4.688001,-1.1096 -5.328801,-2.9544 -0.104,-0.2992 -0.0824,-0.5952 -0.016,-0.8928 0.1432,-0.637601 0.4944,-1.282401 0.6656,-2.192801 0.3392,-1.7976 -1.8632,-12.8440007 -1.8632,-12.8440007 0,0 -0.5992,-0.0992 -0.9432,0.016 -0.4544,0.152 -0.4648,0.7016 -0.5624,1.2416 -0.1232,0.6856 -0.404,1.3616 -0.6192,2.0736 -0.4472,1.480801 -0.592,3.277601 -0.216,4.7896007 0.1944,0.7816 0.4848,1.5 0.6496,2.6392 0.3568,2.4712 0.1208,6.921601 0.1208,6.921601 0,0 -2.8232,1.3088 -4.540001,1.9504 -1.9832,0.7424 -3.4656,1.0936 -4.8248,-0.0456 -0.6968,-0.5848 -1.6096,-1.592 -2.0256,-1.4176 -0.5008,0.2096 -0.8712,1.8216 -1.4408,2.136 -0.5664,0.3128 -3.175201,-0.852 -3.679201,-1.1672 -1.0424,-0.652 -2.044,-1.6856 -2.948,-3.0144 -1.8663204,-2.743201 -1.8979204,-3.076801 -4.1224806,-1.0336 -3.1043203,2.852 -3.6105604,5.5312 -5.15640055,10.644001 -0.27504002,0.9096 -0.30528003,1.0288 -0.30256002554,1.1864 l 0.006159996,0.352 0.37536004,-0.0064 c 0.16864002,-0.0032 0.22992003,-0.1 0.61272008,-0.9704 0.55088006,-1.2528 2.67992026,-5.832001 4.65104046,-6.509601 0.41504,-0.1432 1.1073601,0.1696 1.2825601,0.9136 0.01,0.0424 0.01864,0.0864 0.02624,0.132 -0.0028,-0.0168 4.1265605,4.392001 7.7577605,4.766401 0.0416,0.0048 0.0792,0.0072 0.112,0.0088 1.094401,0.0392 2.116801,-0.2872 2.863201,-0.0504 2.008,0.6384 5.8168,9.466401 5.86,10.009601 0.3064,3.8456 -5.464,10.698401 -10.340801,11.488801 -11.412161,1.8496 -4.7688002,-8.897601 -4.1704001,-12.247201 0.02,-0.1096 0.044,-0.2192 0.0776,-0.3256 0.304,-0.952801 1.3872001,-1.607201 1.7056001,-2.472801 0.212,-0.5736 0.1992,-1.6992 0.1456,-1.7616 -0.2504,-0.2888 -1.2344,0.0944 -2.1872001,0.296 -5.2722407,1.112 -2.6748804,-7.193601 -3.2785605,-5.5968 -0.5100801,1.3488 -1.9473602,5.7304 -1.5392002,7.112 0.1664801,0.5632 0.8404801,1.3976 1.4036002,1.6776 1.1491201,0.5704 2.0435202,0.2896 1.8146402,1.292001 -0.1417601,0.62 -0.7593601,1.4232 -1.1292802,2.2072 -2.3690402,6.9352 -1.2804001,12.680001 3.1416005,14.718401 2.2200001,1.024 5.0360001,0.8848 7.4104011,-0.5928 2.6032,-1.62 5.2432,-4.3456 6.58,-6.5504 1.1456,-1.888801 2.383201,-4.556801 2.383201,-4.556801 0,0 -0.1192,1.9248 0.0584,3.3464 0.5488,4.393601 4.08,6.013601 7.7192,5.255201 0.8656,-0.1808 1.669601,-0.4552 2.204001,-1.0944 0.3536,-0.4224 0.5896,-0.8472 0.7848,-1.2232 l 0.9168,-1.7672 c 0,0 2.6016,1.5024 2.6016,1.5024 3.0872,1.6624 6.901601,1.66 10.088801,0.92 6.136801,-1.424 10.782401,-4.488001 13.013601,-6.460801 z M 22.079198,6.7413083 c 0.052,-0.4456 0.096,-0.935201 0.1048,-1.365601 0.0272,-1.3928 -1.0648,-5.99040003 -2.3448,-5.30640003 -0.732,0.3904 -1.0736,2.05360003 -0.8648,2.82960003 0.1944,0.7232 0.8216,1.552 1.2736,2.44 0.2024,0.3976 0.3688,0.806401 0.4888,1.228801 0.54,1.9008 -0.0344,7.5983997 1.3424,0.1736 z" />
</svg>
