<?xml version="1.0" encoding="UTF-8" standalone="yes"?>
<!-- Created with sK1/UniConvertor (http://sk1project.org/) -->
<svg xmlns="http://www.w3.org/2000/svg" xmlns:xlink="http://www.w3.org/1999/xlink"
  width="595.276pt" height="841.89pt" viewBox="0 0 595.276 841.89"
  fill-rule="evenodd">
  <path
     d="M 13.575264,17.591579 8.69426,22.440584 c -0.8110006,0.806001 -0.9270007,0.951001 -1.1540009,1.447001 -0.3180003,0.695001 -0.4280004,1.857002 -0.2710003,2.015002 0.5050005,0.51 2.293002,-0.728001 2.9150022,-1.187001 5.449005,-4.019004 7.931008,-6.550006 8.812008,-11.753011 0.448001,-2.645002 -0.952,-3.6690029 -3.431003,-4.0060039 -3.931003,-0.536 -7.8320067,0.012 -9.3600081,2.9720029 0.2390002,11.301011 0.5740005,4.838005 3.9080031,4.036004 3.709004,-0.892001 7.697007,-2.875003 3.462003,1.627001 z m -1.349186,23.688556 0.1606,-1.983002 -2.8126052,0.629 C -4.0992502,42.983136 6.4904675,19.728099 3.8707635,23.983103 0.8535583,28.883115 -0.46604375,34.733121 0.14665681,39.966134 c 0.0668001,0.571 0.13970013,1.091001 0.22870101,1.566001 C 1.80266,49.16215 11.756176,47.07814 12.226078,41.280135 z m 25.017442,-3.581012 0.44,-0.008 c 0.198,-0.0032 0.251,-0.123 0.530001,-1.203001 1.608001,-6.207005 1.902001,-9.634017 -2.053002,-13.61502 -0.652001,-0.655001 -1.410002,-1.205001 -1.899002,-0.618001 -0.332,0.399001 -0.671001,3.213003 -0.519,3.827004 0.264,1.075001 1.048001,1.424001 1.953001,2.15301 2.044002,1.648001 2.557003,2.885002 2.296002,5.080004 -0.199,1.685002 -0.748,4.384004 -0.748,4.384004 z m 2.032002,-22.156036 c 0.884,-0.508 1.678001,-0.916001 2.346002,-1.190001 0.498,-0.205 0.917001,-0.321 1.072001,-0.04696 0.124,0.22 -1.109001,5.543013 0.444,4.007012 0.429009,-0.424001 0.638009,-1.53801 0.964009,-2.502011 0.519001,-1.537001 1.335001,-2.692002 2.523002,-3.690003 5.790006,-4.8600049 7.501015,-3.4260029 8.163016,-7.7380149 0.282,-1.844002 0.083,-2.262003 -1.50701,-1.724002 -1.322001,0.448 -3.074002,1.326001 -5.041004,2.451002 -7.136015,4.082012 -14.706022,8.9520169 -21.004035,14.9370299 -0.259001,0.246 -0.506001,0.487001 -0.740001,0.723001 -2.181002,2.195002 -3.601003,4.111004 -3.746004,5.470005 -0.122,1.142001 0.168001,2.56601 0.957001,4.684012 0.497001,1.332001 1.474002,2.956003 2.374003,3.219003 0.816,0.239 1.358001,-0.906001 1.375001,-1.584001 0.02104,-0.881001 0.0032,-2.028002 -0.206,-2.451003 -0.162001,-0.328 -0.438001,-0.223 -0.942001,-0.571 -0.635001,-0.438 -1.631002,-1.593002 -1.631002,-1.593002 0,0 0.863001,-0.927008 2.047002,-2.16501 4.550004,-4.762004 7.253015,-7.193006 12.55202,-10.236017 z m -4.766005,-0.445 -0.13,-2.983003 c -0.05304,-1.205001 -0.036,-1.421001 0.174,-2.1600019 0.155,-0.548001 0.319001,-1.148001 0.735001,-1.534001 1.013001,-0.941002 3.522003,-0.615001 4.685004,-1.391002 1.674002,-1.116009 1.676002,-4.950013 0.387001,-6.50401396 -1.367002,-1.64700204 -4.129004,0.96900096 -5.261005,2.46700196 -0.695001,0.920001 -1.354001,1.974002 -1.650002,3.204003 -0.137,0.570009 -0.213,1.217009 -0.32,1.78401 L 32.603508,10.755083 30.867506,8.5460811 c -2.375002,-3.128012 -1.651002,-4.058012 -5.142005,-4.909013 -1.170001,-0.285 -3.706011,-0.179 -4.194012,1.138001 -0.381,1.031001 0.514009,3.537011 1.075009,4.132012 0.432001,0.458 2.179002,1.5930009 2.900003,1.6630019 1.180001,0.114 3.589003,-0.6040009 3.589003,-0.6040009 0,0 1.945002,2.7990029 3.132003,4.1130039 0.519009,0.574 0.947009,1.036001 1.61201,1.048001 0.274,0.0056 0.67,-0.02896 0.67,-0.02896 z m 103.546173,3.675011 c 0.151,2.087002 1.12501,3.384003 2.89601,3.759004 2.284,0.483 3.576,-0.756001 4.161,-3.262003 0.128,-0.549001 0.1,-1.008001 -0.254,-1.229002 -0.673,-0.42 -2.521,0.016 -3.415,-0.458 -1.111,-0.591009 -1.394,-3.101011 -1.119,-4.274012 0.275,-1.175001 0.977,-2.433002 1.168,-3.3380029 0.038,-0.183 0.056,-0.352 -0.024,-0.446 -0.01,-0.012 -0.02,-0.02304 -0.03,-0.034 -2.688,-0.613001 -3.34201,9.8460169 -3.38301,9.2820159 z m -7.90301,18.926025 0.44,-0.008 c 0.198,-0.0032 0.251,-0.123 0.531,-1.203001 1.607,-6.207005 1.901,-9.634017 -2.054,-13.61502 -0.651,-0.655001 -1.41101,-1.205001 -1.89901,-0.618001 -0.332,0.399001 -0.67,3.213003 -0.519,3.827004 0.264,1.075001 1.048,1.424001 1.95301,2.15301 2.044,1.648001 2.557,2.885002 2.297,5.080004 -0.2,1.685002 -0.749,4.384004 -0.749,4.384004 z M 117.31265,22.388101 c -2.181,2.196002 -3.601,4.112004 -3.746,5.471013 -0.122,1.142001 0.167,2.566003 0.957,4.684005 0.497,1.332001 1.474,2.956002 2.374,3.219003 0.81601,0.238 1.35801,-0.906001 1.37401,-1.584002 0.021,-0.881001 0.003,-2.028002 -0.206,-2.451002 -0.161,-0.328 -0.437,-0.223 -0.94201,-0.572001 -0.634,-0.438 -1.63,-1.592001 -1.63,-1.592001 0,0 1.741,-1.87001 3.67101,-3.849012 3.711,-3.808003 6.81801,-6.145005 11.16102,-9.190016 2.981,-2.090002 5.783,-3.856004 7.62301,-4.612004 0.498,-0.205 0.91701,-0.321001 1.07201,-0.04704 0.124,0.22 -1.11001,5.543013 0.443,4.007003 0.43,-0.424 0.639,-1.538001 0.964,-2.502002 0.52,-1.537001 1.335,-2.692002 2.524,-3.6900029 5.789,-4.860013 7.50101,-3.426012 8.16201,-7.738016 0.283,-1.84400096 0.084,-2.26200196 -1.507,-1.72400096 -1.75901,0.596 -4.28101,1.95500196 -7.05501,3.64200296 -0.147,0.089 -0.321,0.197 -0.521,0.322 -7.05102,4.392013 -19.34804,12.7990199 -24.71805,18.2060329 z m 7.49602,-7.290014 -0.13,-2.983003 c -0.053,-1.205001 -0.035,-1.421001 0.174,-2.1600019 0.155,-0.548001 0.319,-1.148001 0.735,-1.534001 1.013,-0.941002 3.52201,-0.615001 4.68501,-1.391002 1.674,-1.116009 1.676,-4.950013 0.387,-6.50401396 -1.367,-1.64700204 -4.12901,0.96900096 -5.26101,2.46700196 -0.695,0.920001 -1.354,1.974002 -1.65,3.204003 -0.137,0.570009 -0.213,1.217009 -0.32,1.78401 l -0.52601,2.7740029 -1.736,-2.2090019 c -2.375,-3.128012 -1.651,-4.058012 -5.14201,-4.909013 -1.17,-0.285 -3.706,-0.179 -4.194,1.138001 -0.381,1.031001 0.515,3.537011 1.076,4.132012 0.431,0.458 2.178,1.5930009 2.9,1.6630019 1.179,0.114 3.58801,-0.6040009 3.58801,-0.6040009 0,0 1.945,2.7990029 3.133,4.1130039 0.518,0.574 0.94701,1.036001 1.61101,1.048001 0.275,0.0056 0.67,-0.02896 0.67,-0.02896 z m -108.861986,13.824028 -5.099509,5.099005 5.099509,5.100013 5.099805,-5.100013 -5.099805,-5.099005 z m 84.413946,36.634058 -5.099015,5.100013 5.099015,5.099004 5.1,-5.099004 -5.1,-5.100013 z M 40.172522,58.456158 c 0.151001,2.08701 1.125001,3.384012 2.896003,3.759012 2.28401,0.483 3.576011,-0.756001 4.161012,-3.262011 0.129,-0.550001 0.1,-1.008001 -0.254,-1.229001 -0.673001,-0.421001 -2.521003,0.016 -3.415003,-0.459001 -1.111009,-0.59 -1.39401,-3.100002 -1.119009,-4.274004 0.275,-1.174001 0.977008,-2.432002 1.168009,-3.337003 0.03904,-0.183 0.056,-0.352 -0.02296,-0.446 -0.01104,-0.012 -0.02104,-0.02304 -0.03104,-0.034 -2.688011,-0.613009 -3.342012,9.845009 -3.383012,9.282008 z m 41.707073,-52.2730879 -0.512,0.009 c -0.658001,0.01104 -0.747001,0.093 -0.887001,0.823009 -0.062,0.32 -0.245,0.808001 -0.451001,1.279001 -1.201003,2.7450029 -2.632004,2.1110019 -3.663005,0.083 -0.940001,-1.85101 -2.07001,-3.897012 -2.25501,0.21 -0.074,1.6460009 0.109,4.7860039 1.378009,5.6400049 1.359001,0.915001 3.464003,0.205 4.778007,-0.682001 0.31,-0.209 0.586,-0.452 0.735,-0.761 0.086,-0.177001 0.13,-0.376001 0.162,-0.572001 l 0.186001,-1.149001 1.280001,0.145 c 0.233,0.026 0.476,0.048 0.71,0.038 0.815001,-0.03504 1.443002,-0.429 1.912002,-1.010001 2.13601,-2.6400029 1.150009,-5.8280129 -0.524,-8.0720149 -1.253001,-1.67900196 -3.368003,-4.313004 -1.300001,0.955 0.754,1.921002 0.637,3.025003 -1.549002,3.064003 z M 45.024535,65.493173 c -5.762013,2.205002 -14.377029,4.259004 -19.829034,5.505013 -1.173001,0.268 -1.302001,0.333 -1.288001,0.653001 l 0.016,0.357 c 0.014,0.32 0.148,0.371 1.346001,0.505 1.677001,0.188001 3.408003,0.311001 4.962004,0.959001 1.692002,0.705001 3.176011,2.032002 4.648013,2.250002 1.340001,0.199 4.247004,-0.527 6.812006,-1.323001 9.539017,-2.960003 24.637046,-10.207017 27.274049,-19.737034 0.122,-0.439 0.223,-0.908001 0.303,-1.405001 0.299,-1.855002 0.551001,-4.513012 0.551001,-4.513012 0,0 1.282001,0 3.503003,-0.0024 5.227013,-0.0048 16.876034,-1.815002 20.818037,-4.879005 1.282002,-0.996001 1.951002,-2.603002 2.997011,-6.096014 0.22,-0.732 0.452001,-1.483001 0.479001,-2.256002 0.03704,-1.040001 0.02496,-1.289001 -0.124001,-2.483002 L 95.765616,19.200698 c -0.149,-1.194001 -0.158,-1.364001 -0.094,-1.700001 0.048,-0.25 0.03904,-0.498009 0.01304,-0.758009 -0.336001,-3.413003 -1.904002,-5.488005 0.282,-4.794004 0.260008,0.083 0.566009,0.199 0.815009,0.367 0.334,0.225 0.453,0.356 1.188001,1.310001 3.611004,4.689013 4.129004,5.549013 5.427004,9.149017 0.737,2.042002 1.55,7.835015 1.295,9.221016 -0.515,2.795003 -1.929,6.251006 -1.929,6.251006 0,0 1.325,-1.344001 2.311,-2.610002 4.38801,-5.637006 4.79001,-14.836022 2.22201,-20.614035 -2.19801,-4.945005 -6.11401,-9.0340169 -9.734014,-12.2340199 -4.455013,-3.939004 -5.104013,-4.041004 -7.100015,1.870002 -0.801001,2.36901 -2.461002,8.1280159 -0.456,10.2780179 0.318,0.341 0.37,0.512 0.517,1.706001 0.776001,6.299014 1.953002,16.623031 2.724003,18.841033 1.148001,3.302011 0.298,2.772003 -3.026003,3.522012 -4.697013,1.061001 -10.70002,2.858002 -15.395033,1.499001 -0.235,-0.068 -0.426,-0.131 -0.546,-0.178 -1.076001,-0.424001 -5.481005,-3.118011 -6.214006,-4.412012 -0.661001,-1.168001 -0.750001,-2.672003 -1.834002,-2.150002 -1.296001,0.624 -2.69301,7.830015 -2.55301,8.942016 0.362,2.876003 3.517011,9.035016 3.517011,9.035016 0,0 -1.251001,1.393002 -2.639002,2.748003 -7.837015,7.654015 -34.659064,16.792031 -19.532034,11.003018 z m 18.369025,6.908014 c 3.470011,1.595002 7.170014,-0.57 10.529017,-3.206011 3.058011,-2.401002 6.110016,-5.397005 7.186017,-6.937006 0.153001,-0.218 0.291001,-0.425 0.417001,-0.623001 4.187012,-6.555014 -1.016001,-15.94603 4.833012,-2.38001 2.264002,5.252013 4.455004,8.150016 10.352018,6.122014 1.594001,-0.548001 3.136003,-1.288001 3.805005,-2.020002 1.024,-1.122001 0.963,-1.874002 2.292,-1.600001 1.536,0.316 3.215,2.267002 4.95401,3.129002 4.60901,2.285002 21.29604,-3.915003 24.72604,-5.763013 1.267,-0.683001 2.474,-1.602001 2.949,-2.621002 0.457,-0.979001 0.541,-2.265002 0.96901,-3.383003 0.273,-0.712001 1.843,-3.559004 0.997,-4.023004 -0.477,-0.262008 -4.73501,2.631002 -4.79001,2.662002 -1.435,0.799001 -5.54501,2.138002 -8.82901,2.227002 -2.24101,0.06104 -7.10302,-4.183003 -8.14402,-6.441014 -0.321,-0.694 -0.328,-1.340001 0.209,-1.744001 1.101,-0.828001 3.77501,-1.509002 5.13201,-1.647002 4.24501,-0.431 10.13902,1.280002 8.96202,-2.466002 -1.176,-3.740011 -6.56101,-4.861012 -9.99102,-3.872011 -4.03601,1.164009 -12.15502,7.661015 -11.04502,12.436027 0.409,1.759002 1.99301,3.958004 2.47301,5.556005 0.212,0.707001 0.059,0.880001 -0.683,0.699001 -0.84701,-0.206001 -1.66701,-0.749001 -2.84401,-1.550002 -1.68301,-1.146001 -4.09501,-2.818002 -4.09501,-2.818002 0,0 -1.309,2.365002 -2.637,3.671003 -0.889,0.875001 -2.282003,1.470001 -3.729005,1.715002 -4.614012,0.781 -7.455014,-2.710003 -9.037016,-6.603006 -2.371002,-5.835014 -3.944012,-14.35903 -6.890014,-18.183033 -0.221,-0.289 -0.454001,-0.582001 -0.699001,-0.876001 -0.54,-0.647001 -5.496007,-7.115014 -6.272016,-6.437014 0,0 0,0 0,0 0,0 -0.445,0.798001 -0.728001,1.472002 -0.908001,2.160009 -0.554,7.727015 -0.311,8.193015 0.840001,1.613002 3.211011,3.044003 4.693012,4.404012 3.126006,2.868003 4.857007,11.381019 3.813006,13.52902 -0.216,0.444001 -0.529,0.783001 -0.827001,1.156002 -0.437,0.547 -0.842,1.164001 -1.315003,1.760001 -0.937001,1.178001 -7.047015,6.553014 -9.143017,7.444015 -0.7,0.297 -1.434001,0.442 -2.302002,0.629001 -0.04104,0.004 -0.082,0.009 -0.122,0.01304 -6.069013,0.659 -8.072015,-7.169015 -8.408015,-11.971019 -0.974001,-13.908029 -1.790002,-2.117002 -2.271003,5.163004 -0.264,3.989012 -0.355,12.34502 5.821006,15.18403 z M 47.956538,36.214122 c -0.0048,-0.139 -0.0072,-0.284 -8e-4,-0.415 0.028,-0.691001 0.421,-1.120001 1.107001,-1.208001 0.452,-0.05904 1.068001,-0.04704 1.068001,-0.04704 0,0 0.078,1.781001 0.078,1.781001 1.240001,6.589014 -2.075002,0.758001 -2.252002,-0.111 z m 1.068001,-16.787023 c 0,0 5.381013,0.297 7.760015,-0.586001 1.275001,-0.474 1.903001,-1.81001 2.936002,-1.665001 1.431002,0.202 4.946013,2.317002 4.946013,2.317002 0,0 -4.802012,1.686001 -7.918015,3.165003 -4.577013,2.173002 -12.67502,7.725015 -14.118029,13.20802 -0.652001,2.475002 -0.397001,2.66601 -1.698002,3.687011 -1.003001,0.787001 -2.052002,1.632002 -3.276003,1.967002 -0.982001,0.269 -3.785003,-0.259 -4.654004,-0.876001 -0.608009,-0.431 -1.092009,-0.979001 -1.414009,-1.722001 -0.413001,-0.954009 -0.828001,-3.038011 -2.075002,-2.586011 -0.207001,0.07496 -0.373001,0.245 -0.511001,0.470001 -0.086,0.141 -2.386002,4.797012 -1.878002,9.140016 0.570001,1.700002 2.123002,4.144012 3.257003,6.186014 3.613012,6.511006 0.470001,7.473015 -6.270005,9.641017 -4.844013,1.558001 -6.113014,1.983001 -10.238818,0.447 -0.699003,-0.261 -1.358804,-0.577001 -1.978905,-0.945001 C 0.10225677,54.270155 10.222774,35.417121 6.2082672,41.823135 c -1.6078023,2.566003 -2.665404,5.841006 -3.3513055,8.166016 -1.8473033,6.262005 -0.7783015,10.940018 2.9257051,15.929022 4.4026072,5.930014 10.5406182,6.104014 17.7688322,3.462003 2.976003,-1.088001 6.527006,-3.229002 8.458008,-5.499005 0.738009,-0.867 3.863012,-10.873018 3.717011,-11.902018 -0.145,-1.026001 -0.441,-1.994002 -0.116,-2.680003 0.564001,-1.193009 6.174006,-2.68701 6.776006,-3.901012 0.307001,-0.619 0.318001,-0.774 1.19501,-0.61 2.083001,0.39 3.829003,1.766002 5.750005,2.551002 0.873001,0.356001 3.525003,1.198001 4.224004,0.882001 0.578008,-0.26 0.920009,-2.153002 1.376009,-3.572003 1.039001,-3.235003 3.190003,-4.183004 2.464002,-7.157015 -0.41,-1.686001 -1.879001,-3.131003 -2.446002,-4.943004 -0.604001,-1.930002 0.625001,-2.436003 2.545002,-3.010003 5.008005,-1.496001 14.660022,-3.694011 19.412034,-2.854011 2.027002,0.358001 3.558006,0.930001 5.010007,0.456001 0.596001,-0.195 3.490003,-5.973006 3.498003,-6.985007 0.0048,-0.604 -0.02696,-1.235001 -0.02696,-1.235001 0,0 -1.224001,-0.182 -2.318002,-0.352 C 77.556629,17.709097 72.982617,16.574088 69.419613,13.345085 66.534611,10.730083 57.695595,8.0680801 54.033591,9.8570821 c -1.415009,0.6910009 -2.32301,1.7720019 -3.490011,3.4830029 -0.700001,1.025001 -1.527001,2.265002 -1.629002,3.559003 -0.086,1.091009 0.110001,2.528011 0.110001,2.528011 z"
     style="fill:#000000;stroke:none" />
</svg>
