<?xml version="1.0" encoding="UTF-8" standalone="yes"?>
<!-- Created with sK1/UniConvertor (http://sk1project.org/) -->
<svg xmlns="http://www.w3.org/2000/svg" xmlns:xlink="http://www.w3.org/1999/xlink"
  width="595.276pt" height="841.89pt" viewBox="0 0 595.276 841.89"
  fill-rule="evenodd">
  <path
     d="m 17.043953,34.281368 c 0.807998,-1.013997 1.464996,-1.897995 1.887995,-2.570993 1.006997,-1.601996 1.848995,-3.917991 2.896993,-4.487989 1.480996,-0.806998 4.790988,-0.272 6.055985,-0.959998 1.466996,-0.798998 1.963995,-5.501986 1.729996,-7.535981 C 29.107923,14.308417 27.249927,12.343422 23.558937,9.702429 20.358944,7.412434 17.709951,5.01644 16.818953,7.912433 16.655954,8.443432 16.620954,8.644431 16.466954,9.929428 l -1.553996,13.007968 c -0.153,1.284997 -0.059,1.461997 0.940997,1.765996 1.743996,0.530999 2.703994,1.076997 2.557994,2.492994 -0.04,0.385999 -0.135999,0.530999 -0.959997,1.448996 0,0 -3.781991,4.27099 -6.411985,7.240982 -4.6863882,5.291987 -4.3138891,4.971988 -7.7213807,8.41798 -1.3639967,1.378996 -2.71649337,2.88699 -3.11919238,4.373986 -0.22489945,0.829998 -0.30389926,1.980995 0,2.303994 0.26799934,0.285 0.94249768,-0.119999 1.68239588,-0.717998 C 8.4883736,44.924342 16.526954,34.929367 17.043953,34.281368 z m 2.992992,-16.07296 c 0.784998,0.497999 1.667996,1.583996 1.791996,1.889995 0.242999,0.601999 0.240999,1.359997 0,1.603996 -0.411999,0.413999 -2.968993,-0.993997 -4.32599,-1.679996 -0.217999,-0.110999 -0.374999,-0.188999 -0.432999,-0.527998 -0.041,-0.242 -0.032,-0.614999 -0.019,-0.870998 0.073,-1.390997 2.852993,-0.499999 2.985992,-0.414999 z m 6.982983,3.493991 -3.027993,0 0.431999,-4.799988 c 0,0 0.231,0.115 0.432999,0.24 0.837998,0.518998 2.079995,2.364994 2.162995,3.023992 0.076,0.604999 0,1.535996 0,1.535996 z m -7.887981,31.850919 c 0.351,-1.254997 0.687999,-2.643994 1.182998,-4.07899 0.563998,-1.634996 4.06199,-8.166977 5.553986,-6.71998 0.598998,0.580998 0.506999,2.496993 0.933998,3.83999 0.687998,2.156992 4.00599,4.349986 5.978985,4.799985 3.421992,0.779998 5.914985,-0.322999 8.897978,-1.774995 1.158997,-0.563999 2.645994,-1.211997 3.172992,-2.125995 0.476999,-0.825995 0.508999,-1.468993 0.983998,-0.898995 0.431999,0.516996 0.611998,1.258994 0.645998,2.099992 l 3.030993,2.699993 0,0.479999 4.04499,-0.362999 c 1.163997,-0.105 1.357997,-0.157 1.941995,-0.519999 0.432999,-0.269999 0.800998,-0.657998 1.150997,-1.036997 1.289997,-1.397997 3.880991,-6.032982 4.10999,-7.352979 0.586999,-3.389992 -1.965995,-29.234928 -1.297997,-30.729925 0.962998,-2.156994 2.576994,-1.665995 5.622987,0.882998 2.530993,2.116995 8.533979,7.894981 8.977978,12.41897 0.096,0.978997 0.106999,1.231997 0.106999,2.527994 l 0.640999,8.775978 c 0.424999,-0.440999 0.947997,-0.886998 1.304997,-1.402997 1.482996,-2.137994 2.070994,-9.180977 1.946995,-11.039972 C 77.320805,12.907421 70.92582,7.219435 61.406844,1.29245 c -2.857993,-1.77899597 -3.707991,-2.00399597 -4.754989,1.141997 -0.724998,2.176994 -1.014997,4.844988 -1.330996,7.308982 -0.165,1.283997 -0.176,1.570996 -0.109,2.864993 l 1.655996,32.065921 c 0,0 -2.888993,0 -2.888993,0 -0.15,0 -0.283999,0 -0.403999,-9.6e-4 -4.808988,-0.034 -4.905988,-9.558977 -4.939988,-10.090975 -0.066,-1.006998 -0.083,-2.042995 0.014,-2.876993 0.17,-1.453997 0.687998,-2.296995 0.864998,-3.340992 0.218999,-1.289997 -0.234,-9.417977 -1.556996,-10.089975 -1.917996,-0.973998 -3.537992,6.083985 -3.633991,6.710983 -0.326,2.138995 0.374999,10.045976 0.755998,15.056963 0.099,1.291997 0.04304,1.502997 -0.550999,2.111995 -2.043995,2.094995 -7.075983,2.609994 -9.150977,2.039995 -2.381995,-0.653998 -4.940988,-2.369994 -5.544987,-4.799988 -0.942998,-3.788991 0.175,-6.020985 -2.379994,-5.279987 -3.060992,0.887998 -5.109987,2.903993 -6.487984,6.239985 -2.659994,6.433984 -2.194995,9.703972 -5.329987,10.55997 -1.909995,0.521999 -2.683993,0.02104 -3.86699,-1.760995 -3.872691,-5.838983 -2.8576935,-16.861956 -0.987998,-22.364942 0.724998,-2.133995 1.327997,-3.448992 -0.025,-3.277992 -0.310999,0.04 -0.379999,0.182999 -0.689998,1.432996 -0.539899,2.177995 -1.2445973,5.093988 -1.9200956,7.691981 -2.7306933,10.498975 -1.7073958,17.243955 -0.0044,21.155945 5.0244876,10.068976 10.6594736,0.951998 10.9924726,-0.237999 z M 66.82883,26.400388 c -0.797998,-1.246997 -1.520996,-2.164995 -2.065995,-2.477994 -1.510996,-0.867998 -2.261994,2.109995 -2.742993,5.279987 -0.430999,2.842993 1.532996,3.83499 4.411989,8.739978 1.784996,3.042993 3.788991,9.496974 3.374992,12.225967 -0.624998,4.11999 -6.500984,12.725969 -11.610971,15.306963 -3.968991,2.004995 -7.662982,-0.690999 -8.22598,-4.959988 -0.915998,-6.947983 0.453999,-19.427949 0.462999,-19.509949 -0.137,1.249997 -2.178995,11.177969 -3.286992,16.711956 -0.960998,4.800988 -1.371997,8.13598 1.327996,12.421969 1.688996,2.680994 4.24899,4.391989 7.143983,3.702991 4.05999,-0.966998 10.098975,-5.984985 12.674969,-9.119978 0.953997,-1.161997 1.617996,-2.230994 2.356994,-4.434989 0.621998,-1.853995 1.296997,-4.508989 1.296997,-4.508989 0,0 0.459999,1.255997 0.802998,2.147995 1.038997,2.704994 1.711996,2.676994 4.756988,2.955993 0.803998,0.07304 1.564996,0.125 2.335994,0 2.165993,-0.353999 4.407987,-2.114995 6.055983,-1.919995 1.060998,0.123999 2.102995,1.342996 3.373992,2.159994 4.970988,3.193992 16.397957,1.936996 22.061947,-0.479998 4.48599,-1.914996 6.73798,-4.045991 8.11998,-8.757979 0.202,-0.686998 0.35,-1.348997 0.099,-1.561996 -0.334,-0.284999 -1.543,0.274999 -2.595,0.719998 -7.78398,3.285992 -14.18396,5.927986 -18.38495,0.239999 -1.087997,-1.472996 -2.420994,-4.448989 -1.081997,-5.519983 1.498996,-1.199997 6.772987,-1.556996 7.593977,-1.413996 2.884,0.503998 4.74499,2.297994 6.49099,-0.248 0.83,-1.211997 -0.533,-2.272994 -2.83699,-4.337989 -3.395,-3.042993 -6.14499,-3.343992 -9.949981,-0.959998 -1.258996,0.787998 -2.275994,1.677996 -2.811993,2.879993 -2.042995,4.585989 -0.871997,14.116962 -3.76299,12.479966 -1.928996,-1.092997 -3.574992,-3.537991 -4.792989,-3.213992 -0.658998,0.174 -1.617996,1.035998 -2.474994,1.533997 -1.357996,0.787998 -8.234977,1.632996 -9.083975,-0.556999 -0.181999,-0.468999 -0.102,-1.186997 -0.03704,-1.973995 0.247,-2.961993 -1.651996,-8.369976 -3.546991,-12.875965 -3.041993,-7.234983 -4.495989,-9.182978 -5.449987,-10.674974 z m 25.661935,-10.186975 -0.126,-3.202992 c -0.05096,-1.294997 -0.034,-1.526997 0.169,-2.319995 C 92.683764,10.101428 92.842764,9.458429 93.244763,9.04343 94.225761,8.032433 96.653755,8.382432 97.778752,7.549434 99.399748,6.351437 99.400748,2.233447 98.153751,0.56445103 96.831754,-1.204544 94.157761,1.605449 93.061764,3.213445 92.388765,4.201442 91.751767,5.33344 91.465767,6.654436 91.332768,7.266435 91.259768,7.961433 91.155768,8.570432 L 90.646769,11.549424 88.966774,9.17743 C 86.667779,5.817438 87.368778,4.819441 83.989786,3.905443 82.857789,3.599444 80.402795,3.713444 79.930798,5.12844 c -0.368999,1.105997 0.497997,3.796991 1.040995,4.436989 0.416999,0.490999 2.107995,1.710996 2.806993,1.784996 1.140998,0.122999 3.472992,-0.647999 3.472992,-0.647999 0,0 1.881995,3.005993 3.030992,4.416989 0.501999,0.615999 0.916998,1.111998 1.559997,1.125998 0.265999,0.005 0.647998,-0.032 0.647998,-0.032 z m 11.858975,22.898944 0.50399,-0.01 c 0.227,-0.004 0.287,-0.157 0.608,-1.527997 1.841,-7.88798 2.177,-12.24297 -2.35199,-17.300957 -0.746,-0.832998 -1.615,-1.531996 -2.175,-0.785998 -0.37999,0.506999 -0.76799,4.08299 -0.59499,4.863988 0.30299,1.364996 1.20099,1.807995 2.23699,2.735993 2.34099,2.093995 2.92799,3.664991 2.62999,6.453984 -0.228,2.140995 -0.85699,5.570987 -0.85699,5.570987 z M 85.675782,34.344368 c -0.03704,-1.116997 -0.151,-2.518994 -0.480999,-2.870993 -0.192,-0.204999 -0.456999,-0.057 -0.622999,-0.166999 -0.745998,-0.496999 0.523999,-2.547994 1.128998,-3.331992 5.491986,-7.113983 19.725948,-15.945961 27.246928,-17.773956 0.717,-0.174 1.433,-0.314 1.568,-0.045 0.068,0.133999 -0.008,0.368999 -0.124,0.633998 -0.272,0.623999 -0.707,1.377997 -1.189,2.186995 -10.01597,16.781959 5.78299,-6.506984 10.26498,-7.161983 0.41,-0.223999 0.796,-0.404999 1.137,-0.524998 1.74399,-0.608999 3.63399,-0.737998 3.86299,-2.593994 0.032,-0.259999 0.037,-0.584999 0.029,-0.898998 -0.076,-3.039992 -4.54699,-1.58599597 -7.69698,-0.255999 -2.916,1.229997 -7.24599,3.257992 -11.83798,5.615986 -5.94298,3.050993 -23.735937,12.20797 -26.238931,20.161951 -0.806998,2.562993 -0.656998,5.434986 0.950998,7.90498 0.06904,0.106 0.131999,0.202 0.188999,0.287999 -0.725998,-1.093997 1.967995,3.505992 1.812996,-1.166997 z M 42.45589,6.639436 l -0.494999,0.009 c -0.636998,0.013 -0.722998,0.101 -0.858998,0.884998 -0.06,0.342999 -0.236999,0.866998 -0.436998,1.372997 -1.161998,2.947992 -2.546994,2.266994 -3.543992,0.089 -0.910997,-1.986996 -2.003995,-4.18499 -2.182994,0.224999 -0.072,1.768996 0.105999,5.139987 1.333996,6.057985 1.314997,0.982998 3.352992,0.22 4.623989,-0.732998 0.299999,-0.224 0.566999,-0.484999 0.711998,-0.816998 0.083,-0.19 0.126,-0.403999 0.156,-0.613999 l 0.179999,-1.233997 1.238997,0.155 c 0.226,0.029 0.460999,0.053 0.686999,0.042 0.788998,-0.039 1.395996,-0.460999 1.850995,-1.084997 2.066995,-2.834993 1.112997,-6.258985 -0.507999,-8.667979 -1.211997,-1.80299597 -3.258992,-4.631989 -1.257997,1.024997 0.729999,2.062995 0.616999,3.248992 -1.498996,3.289992 z M 23.538937,72.598271 c 0.146999,2.239995 1.088997,3.633991 2.802993,4.03599 2.209994,0.518999 3.460991,-0.811998 4.02699,-3.502991 0.125,-0.589999 0.097,-1.081997 -0.246,-1.319997 -0.650998,-0.450999 -2.439994,0.018 -3.304991,-0.491999 -1.074998,-0.633998 -1.348997,-3.329992 -1.082998,-4.589988 0.267,-1.260997 0.945998,-2.611994 1.129997,-3.583992 0.038,-0.196999 0.055,-0.377999 -0.022,-0.478998 -0.01,-0.01296 -0.02,-0.02496 -0.03,-0.03704 -2.601994,-0.657999 -3.233992,10.572974 -3.273992,9.968975 z m 47.039884,4.14599 5.282987,-5.861986 -5.282987,-5.862985 -5.283987,5.862985 5.283987,5.861986 z"
     style="fill:#000000;stroke:none" />
</svg>
