<?xml version="1.0" encoding="UTF-8" standalone="yes"?>
<!-- Created with sK1/UniConvertor (http://sk1project.org/) -->
<svg xmlns="http://www.w3.org/2000/svg" xmlns:xlink="http://www.w3.org/1999/xlink"
  width="595.276pt" height="841.89pt" viewBox="0 0 595.276 841.89"
  fill-rule="evenodd">
  <path
     style="stroke:none; fill:#000000"
     d="m 140.0722,17.049991 -0.481,-9.1860141 c -0.072,-1.363002 -0.1,-1.600003 -0.282,-2.372004 -0.556,-2.366004 -2.055,-3.662006 -3.621,-4.498007 -1.99201,-1.064002 -3.51201,-1.460002 -5.565,0.038 -1.68801,1.232002 -1.84701,5.691009 -1.18301,6.38801 0.495,0.520001 1.80701,0.473001 3.394,0.101 3.96601,-0.932001 4.36301,-0.717001 5.39701,3.4770061 0.49,1.993003 0.548,3.860006 0.307,5.865009 -0.513,4.256006 -1.718,6.32701 0.643,8.825014 0.983,1.040001 2.009,1.198001 4.25101,0.736001 1.592,-0.328001 1.908,-1.068002 2.576,-3.273005 0.47,-1.553003 0.842,-2.943005 0.721,-4.491007 -0.239,-3.071005 -3.559,-8.8440141 0.443,-10.2770171 0.739,-0.265 1.69901,-0.092 2.52601,0.088 1.116,0.243 1.306,0.133 1.894,-1.102002 0.483,-1.016002 1.043,-1.951003 1.35,-3.044005 1.155,-4.104006 -0.613,-5.262008 -4.16,-3.581005 -4.07001,1.928003 -5.89801,10.1900151 -5.02801,15.7280241 0.266,2.283004 0.558,4.339007 0.558,4.339007 0,0 -0.244,-0.0032 -0.533,-0.03096 -1.139,-0.113 -3.09701,-1.625003 -3.20701,-3.730006 z m 27.41005,59.895086 c -0.304,1.902003 0.066,2.369004 1.331,1.785003 0.861,-0.397001 11.97302,-6.861011 13.59602,-8.796014 0.653,-0.780001 1.305,-2.159004 1.535,-3.399005 0.142,-0.764002 -0.088,-0.737002 -0.91,-0.431001 -1.907,0.709001 -14.47802,8.361013 -14.87202,9.053014 -0.368,0.646001 -0.604,1.316002 -0.68,1.788003 z M 92.020136,8.4749779 87.329129,13.135985 c -0.780001,0.774001 -0.891002,0.913001 -1.109002,1.390002 -0.306,0.668001 -0.411001,1.785003 -0.261,1.936003 0.486,0.491001 2.204003,-0.699001 2.802004,-1.140002 5.237008,-3.863006 7.623012,-6.2950101 8.469013,-11.2970171 0.431001,-2.542004 -0.915001,-3.525006 -3.297005,-3.850006 -3.779006,-0.514001 -7.528012,0.012 -8.996014,2.857004 0.229,10.8620171 0.552001,4.650007 3.756006,3.879006 3.565005,-0.858001 7.398011,-2.763004 3.327005,1.564003 z m 47.150064,32.2090501 -4.69201,4.660999 c -0.779,0.774002 -0.89,0.913002 -1.108,1.390003 -0.306,0.668001 -0.411,1.785002 -0.261,1.937003 0.486,0.49 2.20401,-0.700002 2.80201,-1.141002 5.237,-3.862006 7.62201,-6.29501 8.46901,-11.29601 0.431,-2.542004 -0.915,-3.526005 -3.29701,-3.851006 -3.779,-0.514001 -7.52801,0.012 -8.996,2.857005 0.22899,10.862009 0.55199,4.651007 3.756,3.879006 3.565,-0.857002 7.39701,-2.763005 3.327,1.564002 z M 105.05116,10.614981 c 0.172,2.379004 1.282,3.858006 3.301,4.285007 2.60501,0.551001 4.07801,-0.861002 4.74601,-3.719006 0.146,-0.627001 0.114,-1.149002 -0.29,-1.4010021 -0.767,-0.480001 -2.87501,0.018 -3.89401,-0.523001 -1.267,-0.673001 -1.59,-3.536006 -1.276,-4.874008 0.314,-1.339002 1.114,-2.774004 1.332,-3.806006 0.044,-0.209 0.064,-0.401 -0.027,-0.509001 -0.012,-0.01304 -0.023,-0.026 -0.035,-0.038 -3.065,-0.699001 -3.811,11.2270181 -3.857,10.5850171 z m 53.41107,56.45808 -5.94701,5.94601 5.94701,5.947009 5.94601,-5.947009 -5.94601,-5.94601 z m -22.41203,7.411012 4.482,4.482007 5.94701,-5.947009 -5.94701,-5.94601 -4.482,4.482007 -4.482,-4.482007 -5.94701,5.94601 5.94701,5.947009 4.482,-4.482007 z m -52.301077,-5.947009 -4.482007,4.482007 5.946009,5.947009 5.94701,-5.947009 -4.482007,-4.482007 4.482007,-4.482007 -5.94701,-5.94701 -5.946009,5.94701 4.482007,4.482007 z m -5.189008,-53.154076 -5.946009,5.94701 5.946009,5.946009 5.947009,-5.946009 -5.947009,-5.94701 z m 116.606175,3.485006 0.086,3.307005 c 0.032,1.217002 0.081,1.367002 0.49,1.502002 0.851,0.281001 2.565,1.763003 2.853,2.035004 1.34001,1.266002 2.36301,2.529004 2.67701,3.971006 0.175,-0.109 0.054,1.409002 -0.083,3.065005 -0.367,4.439007 -0.364,6.007009 1.032,0.471 0,0 0,0 0,0 1.283,-5.089008 0.396,-10.191016 -3.93801,-13.476021 -0.677,-0.513001 -1.297,-0.887001 -1.612,-0.915001 -0.699,-0.06304 -1.505,0.04 -1.505,0.04 z m -101.213151,35.034047 0.179,6.83901 c 0.032,1.216002 0.06104,1.485003 0.292001,2.685005 0.672001,3.502005 2.605004,6.938011 4.999008,9.114014 7.618012,6.922011 20.690032,-10.268016 21.894032,-16.294026 0.668,-3.346005 0.316,-4.324006 4.90501,3.749006 2.096,2.060004 4.80201,3.249005 8.204,3.519006 5.00301,0.396 6.54301,-1.221002 10.48102,-3.845006 0.824,-0.549001 1.104,-0.736001 1.104,-0.736001 l 3.74401,1.415002 c 5.81801,2.199003 11.70502,3.853006 15.47002,-2.843005 1.77601,-3.157005 3.32101,-7.089011 3.15401,-8.508013 -0.172,-1.454002 -0.517,-3.029005 -1.015,-4.392007 -2.40601,-6.590002 -6.30601,-2.304003 -7.21202,1.843003 -0.045,0.21 -0.077,0.409001 -0.092,0.590001 -0.116,1.406002 0.195,3.296005 1.26601,3.947006 0.251,0.153 0.473,0.272001 0.67,0.372001 2.435,1.225002 1.338,2.900004 -0.229,2.941004 -0.151,0.004 -0.254,0.0072 -0.254,0.0072 0,0 -1.71001,-0.401 -4.12201,-0.966001 -1.597,-0.374001 -2.852,-0.716001 -3.89201,-0.987002 -8.45001,-4.302006 -4.245,-0.968001 -7.41201,0.724001 -1.408,0.752002 -4.566,1.712003 -4.753,1.757003 -2.24301,0.544001 -8.28602,0.203001 -10.86501,-1.294002 -2.28001,-1.323002 -4.89601,-5.531008 -5.84001,-7.738012 -0.082,-0.192 -0.333,-1.403002 -0.729,-3.131005 -2.43601,-10.636008 -1.82601,-8.728005 -8.05702,-17.139019 -0.747,-1.009001 -1.428,-2.251003 -2.534,-1.529002 -0.517,0.336 -1.51,5.489009 -1.496,5.901009 0.089,2.763005 3.191,5.011008 4.695,7.092011 1.65901,2.296004 3.86001,8.343005 4.25601,10.642009 0.589,3.418005 -2.343,7.255011 -4.82801,10.567016 -2.871,3.826006 -7.32401,8.481014 -12.51002,7.542012 -1.913,-0.346 -3.466001,-1.874003 -4.613003,-3.778006 l -4.860008,-8.066012 z m 7.119011,-6.862011 c 1.833,-2.527004 2.702,-6.303002 3.69301,-9.389007 0.497,-1.545002 0.61,-2.042003 0.199,-3.706005 -1.14601,-4.640008 -5.499012,-14.680023 -5.499012,-14.680023 0,0 -1.732003,3.614005 -2.465004,5.964009 -0.427001,1.367002 -0.939002,5.601009 -0.278001,6.62101 0.292001,0.450001 0.842002,0.498001 1.413003,1.054002 1.505002,1.466002 3.591004,7.874012 3.591004,7.874012 0,0 -1.436,0.803993 -2.256002,1.295994 -0.097,0.058 -0.186001,0.112 -0.268001,0.162 -3.503005,2.130004 -12.96302,3.175005 -16.899026,-3.819997 -0.363001,-0.645001 -0.635001,-1.306003 -0.792001,-1.959004 -0.335001,-1.393002 -0.410001,-3.960006 -1.965003,-4.458007 -1.381003,-0.442 -3.102005,4.766008 -3.201005,5.188009 -0.350001,1.491002 0.169,9.077006 0.730001,10.668008 1.947003,5.523009 4.316006,7.253012 0.17,10.237016 C 67.752098,64.924058 45.722064,66.981061 36.246057,66.05106 26.089041,65.053058 21.441034,63.784056 13.926022,59.68305 12.354019,58.825048 10.569017,57.729047 9.1880144,56.770045 L 0,50.386035 3.9910062,58.412048 c 9.6250148,19.35703 43.3770598,17.677027 60.2130868,11.717018 0.279,-0.099 0.535,-0.192 0.764001,-0.277 1.594002,-0.595001 10.674016,-4.389007 11.607018,-5.367009 1.368002,-1.434002 3.922006,-7.997012 5.515009,-11.294017 l 0.822001,-1.700003 3.035005,0.367001 c 0.829001,0.138 1.875003,0.144 2.903004,0.091 10.969017,-0.566001 13.465019,-6.622011 12.222019,-4.909008 z m 81.68912,-20.535024 1.304,-0.03496 c 0.586,-0.01504 0.727,-0.129 1.414,-1.139002 0.027,-0.04 0.054,-0.08 0.082,-0.119 3.03201,-4.374007 12.74702,-12.58002 16.77003,-15.8630251 1.132,-0.924001 2.074,-1.871003 2.24,-2.355004 0.61001,-1.783002 0.55801,-4.523007 0.55801,-4.523007 0,0 -1.19001,0.083 -1.85501,0.294001 -0.38,0.12 -0.589,0.281 -0.831,0.452 -1.63,1.150002 -4.75601,2.733005 -7.23001,3.920007 -1.098,0.527 -1.217,0.705001 -1.189,1.786002 l 0.032,1.2040021 c 0.028,1.080002 -0.071,1.289002 -0.99,2.089003 -2.26701,1.973004 -4.59901,3.924007 -6.52501,6.21401 -0.73601,0.876002 -3.34001,4.036007 -3.60001,5.308009 -0.215,1.046001 -0.18,2.767004 -0.18,2.767004 z m 10.90202,15.730016 c 0,0 0,0 0,0 1.739,0.06304 9.19801,4.809008 4.097,-2.838996 -1.103,-1.354002 -3.142,-2.788004 -4.839,-3.680006 -3.41201,-1.792003 -8.75302,-1.390002 -11.65002,1.355002 -4.76701,4.517999 -4.65001,17.052019 -4.86701,-1.453002 -0.062,-5.367008 -0.283,-24.219038 -0.283,-24.219038 L 172.75725,-3.6104906e-5 c 0,0 -1.995,3.639006004906 -2.872,5.710009004906 -1.755,4.137007 0.7,6.1460101 2.358,12.5550201 0.84601,3.273005 -0.151,23.308028 0.783,29.912039 0.71101,5.030008 2.65801,10.033016 7.16102,11.410018 3.819,1.168001 6.17201,1.292002 9.30901,1.073001 2.75501,-0.192 7.34101,-1.077001 8.61101,-1.803002 0.67001,-0.384001 1.21001,-0.852002 1.89601,-1.172002 2.234,-1.041002 3.644,-1.142002 4.882,-2.902005 0.65301,-0.927001 2.91301,-7.075011 2.38401,-7.665012 -0.957,-1.066002 -5.21701,2.551004 -6.23201,3.094005 -4.40201,2.359004 -12.60902,1.435002 -16.25803,-0.927001 -0.782,-0.506001 -1.693,-1.416003 -2.3,-2.216004 -1.78,-2.345004 -0.637,-3.595006 0.85,-4.271007 2.54601,-1.157001 8.87001,-0.616001 10.33402,-0.563001 z m -33.52206,-24.80603 c -0.167,-0.095 -0.022,-0.443001 0.117,-0.760002 0.75001,-1.712002 1.31601,-2.539004 1.57101,-3.667005 0.584,-2.585004 -0.456,-6.7500111 -0.932,-9.7520161 -0.279,-1.764002 -0.64101,-3.810006 -1.84001,-3.108004 -0.847,0.495 -1.575,2.626004 -1.533,3.467005 0.058,1.142002 0.783,2.090003 1.214,3.305005 0.524,1.474002 1.182,7.6770121 0.908,8.8510141 -0.978,4.197007 -4.101,5.670009 -1.799,8.759014 1.398,1.876003 4.61401,2.592004 6.13001,1.643002 1.072,-0.671001 2.089,-4.025006 1.657,-5.608008 -0.182,-0.667001 -0.625,-1.202002 -1.395,-1.614003 -1.187,-0.634001 -3.15,-0.973001 -4.09801,-1.516002 z M 189.66528,6.7879749 c 0.243,-0.06104 0.475,-0.126 0.67,-0.195 1.149,-0.401001 1.816,-1.215002 2.04301,-2.598004 0.111,-0.675001 0.121,-0.858002 0.095,-1.830003 L 192.41729,-3.6104906e-5 190.97428,0.0379639 c -0.648,0.01704 -0.77,0.03696 -1.222,0.203001 -0.934,0.341 -2.472,1.810003 -2.684,2.154003 -0.269,0.437001 -0.445,0.966002 -0.592,1.514002 0.958,8.6960141 -0.389,3.288006 -2.83101,1.341003 -4.02,-3.206005 -4.66801,-1.168002 -4.50001,2.703004 0.26,5.9670091 -0.652,3.5200051 1.98101,3.0920051 3.812,-0.620001 3.465,0.737001 5.98801,4.410007 1.198,0.545 1.249,-1.444003 1.053,-3.646006 -0.29,-3.2760051 0.667,-4.4980071 1.498,-5.0210081 z" />
</svg>
