<?xml version="1.0" encoding="UTF-8" standalone="no"?>
<svg>
  <path
     style="stroke:none; fill:#000000"
     d="M 175.08998,21.3125 174.48873,9.83 c -0.09,-1.70375 -0.125,-2 -0.3525,-2.965 -0.695,-2.9575 -2.56875,-4.5775 -4.52625,-5.6225 -2.49,-1.33 -4.39,-1.825 -6.95624,0.0475 -2.11,1.54 -2.30875,7.11375 -1.47875,7.985 0.61875,0.65 2.25875,0.59125 4.24249,0.12625 4.9575,-1.165 5.45375,-0.89625 6.74625,4.34625 0.6125,2.49125 0.685,4.825 0.38375,7.33125 -0.64125,5.32 -2.1475,7.90875 0.80375,11.03125 1.22875,1.3 2.51125,1.4975 5.31375,0.92 1.99,-0.41 2.385,-1.335 3.22,-4.09125 0.5875,-1.94125 1.0525,-3.67875 0.90125,-5.61375 -0.29875,-3.83875 -4.44875,-11.055 0.55375,-12.84625 0.92375,-0.33125 2.12375,-0.115 3.1575,0.11 1.395,0.30375 1.6325,0.16625 2.3675,-1.3775 0.60375,-1.27 1.30375,-2.43875 1.6875,-3.805 1.44375,-5.13 -0.76625,-6.5775 -5.2,-4.47625 -5.0875,2.41 -7.3725,12.7375 -6.285,19.66 0.3325,2.85375 0.6975,5.42375 0.6975,5.42375 0,0 -0.305,-0.004 -0.66625,-0.0387 -1.42375,-0.14125 -3.87125,-2.03125 -4.00875,-4.6625 z m 34.2625,74.86874 c -0.38,2.3775 0.0825,2.96125 1.66375,2.23125 1.07625,-0.49625 14.96625,-8.57625 16.995,-10.995 0.81625,-0.975 1.63125,-2.69875 1.91875,-4.24875 0.1775,-0.955 -0.11,-0.92125 -1.1375,-0.53875 -2.38375,0.88625 -18.0975,10.45125 -18.59,11.31625 -0.46,0.8075 -0.755,1.645 -0.85,2.235 z M 115.02499,10.59375 109.16124,16.42 c -0.975,0.9675 -1.11375,1.14125 -1.38625,1.7375 -0.3825,0.835 -0.51375,2.23125 -0.32625,2.42 0.6075,0.61375 2.755,-0.87375 3.5025,-1.425 6.54625,-4.82875 9.52875,-7.86875 10.58625,-14.12125 0.53875,-3.1775 -1.14375,-4.40625 -4.12125,-4.8125 -4.72375,-0.6425 -9.41,0.015 -11.245,3.57125 0.28625,13.5775 0.69,5.8125 4.695,4.84875 4.45625,-1.0725 9.2475,-3.45375 4.15875,1.955 z m 58.93749,40.26125 -5.865,5.82624 c -0.97375,0.9675 -1.1125,1.14125 -1.385,1.7375 -0.3825,0.835 -0.51375,2.23125 -0.32625,2.42125 0.6075,0.6125 2.755,-0.875 3.5025,-1.42625 6.54625,-4.8275 9.5275,-7.86875 10.58625,-14.11999 0.53875,-3.1775 -1.14375,-4.4075 -4.12125,-4.81375 -4.72375,-0.6425 -9.41,0.015 -11.24499,3.57125 0.28624,13.57749 0.68999,5.81375 4.69499,4.84875 4.45625,-1.07125 9.24625,-3.45375 4.15875,1.955 z M 131.31374,13.26875 c 0.215,2.97375 1.6025,4.8225 4.12625,5.35625 3.25625,0.68875 5.0975,-1.07625 5.9325,-4.64875 0.1825,-0.78375 0.1425,-1.43625 -0.3625,-1.75125 -0.95875,-0.6 -3.59375,0.0225 -4.8675,-0.65375 -1.58375,-0.84125 -1.9875,-4.42 -1.595,-6.0925 0.3925,-1.67375 1.3925,-3.4675 1.665,-4.7575 0.055,-0.26125 0.08,-0.50125 -0.0337,-0.63625 -0.015,-0.0163 -0.0288,-0.0325 -0.0438,-0.0475 -3.83125,-0.87375 -4.76375,14.03375 -4.82125,13.23125 z m 66.76374,70.57249 -7.43375,7.4325 7.43375,7.43375 7.4325,-7.43375 -7.4325,-7.4325 z m -28.015,9.26375 5.6025,5.6025 7.43375,-7.43375 -7.43375,-7.4325 -5.6025,5.6025 -5.60249,-5.6025 -7.43375,7.4325 7.43375,7.43375 5.60249,-5.6025 z m -65.37624,-7.43375 -5.6025,5.6025 7.4325,7.43375 7.43375,-7.43375 -5.6025,-5.6025 5.6025,-5.6025 -7.43375,-7.43375 -7.4325,7.43375 5.6025,5.6025 z m -6.48625,-66.44249 -7.4325,7.43375 7.4325,7.4325 7.43375,-7.4325 -7.43375,-7.43375 z m 145.75749,4.35625 0.1075,4.13375 c 0.04,1.52125 0.10125,1.70875 0.6125,1.8775 1.06375,0.35125 3.20625,2.20375 3.56625,2.54375 1.675,1.5825 2.95375,3.16125 3.34625,4.96375 0.21875,-0.13625 0.0675,1.76125 -0.10375,3.83125 -0.45875,5.54875 -0.455,7.50875 1.29,0.58875 0,0 0,0 0,0 1.60375,-6.36125 0.495,-12.73875 -4.9225,-16.845 -0.84625,-0.64125 -1.62125,-1.10875 -2.015,-1.14375 -0.87375,-0.0788 -1.88125,0.05 -1.88125,0.05 z m -126.51624,43.79249 0.22375,8.54875 c 0.04,1.52 0.0763,1.85625 0.365,3.35625 0.84,4.3775 3.25625,8.6725 6.24875,11.3925 9.5225,8.6525 25.8625,-12.835 27.3675,-20.3675 0.835,-4.1825 0.395,-5.405 6.13125,4.68625 2.62,2.575 6.0025,4.06125 10.25499,4.39875 6.25375,0.495 8.17875,-1.52625 13.10125,-4.80625 1.03,-0.68625 1.38,-0.92 1.38,-0.92 l 4.68,1.76875 c 7.2725,2.74875 14.63125,4.81625 19.3375,-3.55375 2.22,-3.94625 4.15125,-8.86125 3.9425,-10.635 -0.215,-1.8175 -0.64625,-3.78625 -1.26875,-5.49 -3.0075,-8.23749 -7.8825,-2.88 -9.015,2.30375 -0.0562,0.2625 -0.0962,0.51125 -0.115,0.7375 -0.145,1.7575 0.24375,4.12 1.5825,4.93375 0.31375,0.19125 0.59125,0.34 0.8375,0.465 3.04375,1.53125 1.6725,3.625 -0.28625,3.67625 -0.18875,0.005 -0.3175,0.009 -0.3175,0.009 0,0 -2.1375,-0.50125 -5.1525,-1.2075 -1.99625,-0.4675 -3.565,-0.895 -4.865,-1.23375 -10.5625,-5.3775 -5.30625,-1.21 -9.265,0.905 -1.76,0.94 -5.7075,2.14 -5.94125,2.19625 -2.80375,0.68 -10.3575,0.25375 -13.58124,-1.6175 -2.85,-1.65375 -6.12,-6.91375 -7.3,-9.6725 -0.1025,-0.24 -0.41625,-1.75375 -0.91125,-3.91375 -3.045,-13.29499 -2.2825,-10.90999 -10.07125,-21.42374 -0.93375,-1.26125 -1.785,-2.81375 -3.1675,-1.91125 -0.64625,0.42 -1.8875,6.86125 -1.87,7.37625 0.11125,3.45375 3.98875,6.26375 5.86875,8.865 2.07375,2.87 4.825,10.42874 5.32,13.30249 0.73625,4.2725 -2.92875,9.06875 -6.035,13.20875 -3.58875,4.7825 -9.155,10.60125 -15.6375,9.4275 -2.39125,-0.4325 -4.3325,-2.3425 -5.76625,-4.7225 l -6.075,-10.0825 z m 8.89875,-8.5775 c 2.29125,-3.15875 3.3775,-7.87874 4.61625,-11.73624 0.62125,-1.93125 0.7625,-2.5525 0.24875,-4.6325 -1.4325,-5.8 -6.87375,-18.35 -6.87375,-18.35 0,0 -2.165,4.5175 -3.08125,7.455 -0.53375,1.70875 -1.17375,7.00125 -0.3475,8.27625 0.365,0.5625 1.0525,0.6225 1.76625,1.3175 1.88125,1.8325 4.48875,9.8425 4.48875,9.8425 0,0 -1.795,1.00499 -2.82,1.61999 -0.12125,0.0725 -0.2325,0.14 -0.335,0.2025 -4.37875,2.6625 -16.20375,3.96875 -21.12375,-4.77499 -0.45375,-0.80625 -0.79375,-1.6325 -0.99,-2.44875 -0.41875,-1.74125 -0.5125,-4.95 -2.45625,-5.5725 -1.72625,-0.5525 -3.8775,5.9575 -4.00125,6.485 -0.4375,1.86375 0.21125,11.34624 0.9125,13.33499 2.43375,6.90375 5.395,9.06625 0.2125,12.79625 -11.86625,8.54 -39.40375,11.11125 -51.24874,9.94875 -12.69625,-1.2475 -18.50625,-2.83375 -27.9,-7.96 -1.965,-1.0725 -4.19625,-2.4425 -5.9225,-3.64125 L 0,62.98249 4.98875,73.01499 C 17.02,97.21124 59.20999,95.11124 80.25499,87.66124 c 0.34875,-0.12375 0.66875,-0.24 0.955,-0.34625 1.9925,-0.74375 13.3425,-5.48625 14.50875,-6.70875 1.71,-1.7925 4.9025,-9.99625 6.89375,-14.1175 l 1.0275,-2.125 3.79375,0.45875 c 1.03625,0.1725 2.34375,0.18 3.62875,0.11375 13.71125,-0.7075 16.83125,-8.2775 15.2775,-6.13625 z m 102.11124,-25.66874 1.63,-0.0437 c 0.7325,-0.0188 0.90875,-0.16125 1.7675,-1.42375 0.0337,-0.05 0.0675,-0.1 0.1025,-0.14875 3.79,-5.4675 15.93375,-15.725 20.9625,-19.82875 1.415,-1.155 2.5925,-2.33875 2.8,-2.94375 0.7625,-2.22875 0.6975,-5.65375 0.6975,-5.65375 0,0 -1.4875,0.10375 -2.31875,0.3675 -0.475,0.15 -0.73625,0.35125 -1.03875,0.565 -2.0375,1.4375 -5.945,3.41625 -9.0375,4.9 -1.3725,0.65875 -1.52125,0.88125 -1.48625,2.2325 l 0.04,1.505 c 0.035,1.35 -0.0888,1.61125 -1.2375,2.61125 -2.83375,2.46625 -5.74875,4.905 -8.15625,7.7675 -0.92,1.095 -4.175,5.045 -4.5,6.635 -0.26875,1.3075 -0.225,3.45875 -0.225,3.45875 z m 13.6275,19.66249 c 0,0 0,0 0,0 2.17375,0.0788 11.4975,6.01125 5.12125,-3.54874 -1.37875,-1.6925 -3.9275,-3.485 -6.04875,-4.6 -4.265,-2.24 -10.94125,-1.7375 -14.5625,1.69375 -5.95875,5.64749 -5.8125,21.31499 -6.08375,-1.81625 -0.0775,-6.70875 -0.35375,-30.27375 -0.35375,-30.27375 L 215.94623,0 c 0,0 -2.49375,4.54875 -3.59,7.1375 -2.19375,5.17125 0.875,7.6825 2.9475,15.69375 1.0575,4.09125 -0.18875,29.13499 0.97875,37.38999 0.88875,6.2875 3.3225,12.54125 8.95125,14.2625 4.77375,1.46 7.715,1.615 11.63625,1.34125 3.44375,-0.24 9.17625,-1.34625 10.76375,-2.25375 0.8375,-0.48 1.5125,-1.065 2.37,-1.465 2.7925,-1.30125 4.555,-1.4275 6.1025,-3.6275 0.81625,-1.15875 3.64125,-8.84375 2.98,-9.58125 -1.19625,-1.3325 -6.52125,3.18875 -7.79,3.8675 -5.5025,2.94875 -15.76125,1.79375 -20.3225,-1.15875 -0.9775,-0.6325 -2.11625,-1.77 -2.875,-2.77 -2.225,-2.93125 -0.79625,-4.49375 1.0625,-5.33875 3.1825,-1.44625 11.0875,-0.77 12.9175,-0.70375 z m -41.9025,-31.00749 c -0.20875,-0.11875 -0.0275,-0.55375 0.14625,-0.95 0.9375,-2.14 1.645,-3.17375 1.96375,-4.58375 0.73,-3.23125 -0.57,-8.4375 -1.165,-12.19 -0.34875,-2.205 -0.80125,-4.7625 -2.3,-3.885 -1.05875,0.61875 -1.96875,3.2825 -1.91625,4.33375 0.0725,1.4275 0.97875,2.6125 1.5175,4.13125 0.655,1.8425 1.4775,9.59625 1.135,11.06375 -1.2225,5.24625 -5.12625,7.0875 -2.24875,10.94875 1.7475,2.345 5.7675,3.24 7.6625,2.05375 1.34,-0.83875 2.61125,-5.03125 2.07125,-7.01 -0.2275,-0.83375 -0.78125,-1.5025 -1.74375,-2.0175 -1.48375,-0.7925 -3.9375,-1.21625 -5.1225,-1.895 z M 237.08123,8.485 c 0.30375,-0.0763 0.59375,-0.1575 0.8375,-0.24375 1.43625,-0.50125 2.27,-1.51875 2.55375,-3.2475 0.13875,-0.84375 0.15125,-1.0725 0.11875,-2.2875 L 240.52123,0 238.71748,0.0475 c -0.81,0.0213 -0.9625,0.0462 -1.5275,0.25375 -1.1675,0.42625 -3.09,2.2625 -3.355,2.6925 -0.33625,0.54625 -0.55625,1.2075 -0.74,1.8925 1.1975,10.87 -0.48625,4.11 -3.53875,1.67625 -5.025,-4.0075 -5.835,-1.46 -5.625,3.37875 0.325,7.45875 -0.815,4.4 2.47625,3.865 4.765,-0.775 4.33125,0.92125 7.485,5.5125 1.4975,0.68125 1.56125,-1.805 1.31625,-4.5575 -0.3625,-4.095 0.83375,-5.6225 1.8725,-6.27625 z" />
</svg>
