<?xml version="1.0" encoding="UTF-8" standalone="yes"?>
<!-- Created with sK1/UniConvertor (http://sk1project.org/) -->
<svg xmlns="http://www.w3.org/2000/svg" xmlns:xlink="http://www.w3.org/1999/xlink"
  width="595.276pt" height="841.89pt" viewBox="0 0 595.276 841.89"
  fill-rule="evenodd">
  <path
     d="m 37.928135,12.727918 c 0.766998,-0.407998 1.638995,-0.667997 2.324992,-0.886997 0.650998,-0.207999 1.113996,-0.035 1.501995,1.356996 0.422998,1.518994 -0.355999,2.370991 -1.216996,3.613986 -1.086996,1.570995 -1.238995,2.634991 -2.276992,2.148993 -7.234974,-3.379988 2.537991,-7.758972 -0.332999,-6.232978 z m -3.444987,8.37097 c 0.533998,0.801997 1.411995,1.758994 1.411995,1.758994 0,0 -0.579998,0.773997 -1.275996,1.646994 -0.768997,0.962996 -9.552965,8.680968 -8.423969,10.628961 0.168999,0.290999 0.420998,0.555998 0.741997,0.729997 0.137,0.073 0.258999,0.089 0.369999,0.061 0.513998,-0.131999 9.494966,-9.711965 9.969964,-10.114963 0.800997,-0.678998 1.273995,-0.890997 2.215992,-0.198999 0.142999,0.104999 0.238999,0.186999 0.282999,0.335998 0.224999,0.782998 -1.013997,3.416988 -0.565998,3.488988 0.082,0.014 0.218999,-0.058 0.282999,0 0.07696,0.072 0.044,0.338999 0.119999,0.482998 0.352999,0.662998 2.139993,-0.845997 2.252992,-0.976996 0.910997,-1.048997 1.387995,-4.119986 0.312999,-5.62698 -0.620998,-0.870997 -1.400995,-1.249996 -1.271995,-1.958993 0.083,-0.457998 0.552998,-0.988996 0.930996,-1.547994 1.028997,-1.523995 2.041993,-5.126982 2.169992,-6.978975 -0.300998,-5.2329811 -2.77099,-4.7629831 -5.084981,-3.0879891 -1.879993,1.3599951 -4.283985,3.7669861 -4.904982,6.2169781 -0.943997,3.721986 1.458994,6.634976 0.464998,5.140981 z M 28.26217,50.81278 c 0.724998,1.821994 -0.853996,1.583995 -2.935989,1.230996 -1.921993,-0.324999 -4.545983,-0.545998 -5.713979,-1.559994 -0.526998,-0.456999 -1.583994,-2.574991 -1.572995,-3.148989 0.02096,-1.069996 2.743991,-1.869993 4.371985,-1.531995 1.700993,0.351999 3.393987,1.906994 4.745982,3.463988 0.446999,0.513998 0.925997,1.096996 1.104996,1.545994 z m -0.525998,9.056968 3.081989,-0.056 c 0.707998,-0.014 0.813997,0.017 1.062996,0.301999 0.163,0.186999 0.301999,0.384998 0.405999,0.625997 0.781997,1.830994 -0.159,4.085986 -1.946993,6.404977 -0.691998,0.897997 -1.367995,1.717994 -2.030993,2.471991 -9.329966,10.604964 -17.446937,14.393944 -26.3969044,16.161944 -1.98699287,1.47999 -2.69799029,2.76799 -0.8069971,3.52498 10.2899635,4.11899 27.2829015,-10.56296 32.4388825,-19.259925 2.015993,-3.399988 4.087986,-7.686972 4.470984,-11.16496 0.17,-0.045 0.342999,-0.091 0.519998,-0.144999 10.799961,-3.288988 9.617965,-15.289945 5.65398,-23.200916 -0.552998,-1.101996 -1.126996,-2.132993 -1.678994,-3.035989 -1.439995,-2.354992 -2.606991,-1.001997 -3.893986,1.671994 -0.433998,0.900996 -0.809997,2.936989 -0.663998,3.592987 0.408999,1.834993 5.136982,9.331966 5.51398,11.102959 0.243,1.141996 -0.982996,2.049993 -2.883989,2.75199 -1.112996,0.410999 -4.475984,0.740998 -5.346981,0.424999 -1.113996,-0.402999 -1.480994,-2.601991 -2.385991,-5.105982 -0.191999,-0.533998 -0.445999,-1.115996 -0.749997,-1.718993 -2.175993,-4.322985 -7.085975,-10.246963 -12.260956,-6.395977 -3.913986,2.913989 -5.878979,11.05296 -4.570983,16.337941 1.400994,5.653979 9.402965,4.765982 12.468954,4.708983 z M 54.786074,14.564912 c 0,0 0.698998,0.204999 1.420995,0.313998 0.815997,0.124 1.659994,0.126 1.659994,0.126 0,0 -1.678994,-11.1639601 -2.420991,-11.9599571 L 54.380076,-3.6104905e-5 52.140084,1.6269579 c -1.659994,1.205996 -3.882986,3.261989 -3.957986,3.956986 -0.088,0.806997 0.804997,2.935989 1.307996,3.883986 0.629997,1.1859961 1.254995,1.8409931 1.698993,2.7579901 0.389999,0.807997 0.774998,10.605962 1.064997,16.426941 0.191999,3.857986 1.086996,7.925971 1.650994,11.953956 0.312998,2.234992 0.174999,14.977946 -0.181,16.64294 -0.183999,0.861997 -0.403998,1.705994 -0.258999,2.001993 0.07696,0.157999 0.298999,0.157999 0.527998,0 0.930997,-0.643998 1.588995,-2.153992 2.047993,-3.924986 1.919993,-7.412973 1.328995,-17.681936 0.241999,-23.843914 -0.267999,-1.513994 -0.589998,-3.002989 -0.836997,-4.369984 -0.408998,-2.265992 -0.611998,-4.195985 -0.659998,-7.616972 -0.03104,-2.166992 0,-4.930982 0,-4.930982 z m -8.901967,61.198778 5.861978,-5.861979 -5.861978,-5.862979 -5.862979,5.862979 5.862979,5.861979 z M 38.649133,3.3339519 c -0.028,-0.06 -0.169,0.034 -0.241999,0.036 -0.068,0.002 -0.07904,-0.094 -0.118,-0.144999 -0.124999,-0.163 -0.573998,0.111999 -0.852997,0.303999 -9.202966,6.348977 -16.39094,11.0879591 -23.819914,20.1739261 -0.804997,0.985997 -1.365995,1.809994 -1.527994,2.345992 -0.228999,0.754997 -0.515998,2.968989 0.979996,3.057989 0.373999,0.022 0.921997,-0.478998 1.395995,-0.956997 0.366999,-0.368998 0.723998,-0.772997 1.073997,-1.191995 5.546979,-6.642976 14.360948,-13.75295 21.118923,-17.9729351 0.263999,-0.165 0.531998,-0.334999 0.790997,-0.526998 1.193996,-0.882997 1.393995,-2.332992 1.326995,-4.287985 -0.01096,-0.312999 -0.03896,-0.644997 -0.125999,-0.835997 z M 23.138189,16.213906 22.99819,13.010917 c -0.05696,-1.294995 -0.038,-1.526994 0.186999,-2.320991 0.165999,-0.587998 0.342999,-1.2319961 0.788997,-1.6469941 1.087996,-1.009997 3.781986,-0.660998 5.030982,-1.492995 1.798993,-1.198996 1.799993,-5.315981 0.415998,-6.984975 -1.467994,-1.769993 -4.433984,1.040997 -5.649979,2.648991 -0.746998,0.987996 -1.453995,2.118992 -1.770994,3.439987 -0.147999,0.612998 -0.228999,1.307995 -0.344999,1.915993 L 21.091196,11.549922 19.227203,9.1779309 c -2.551991,-3.359988 -1.772993,-4.358984 -5.52198,-5.272981 -1.256995,-0.305999 -3.9809854,-0.190999 -4.5039835,1.222996 -0.4099985,1.106996 0.551998,3.797986 1.1539955,4.436984 0.463999,0.4919981 2.339992,1.7109931 3.114989,1.7859931 1.265995,0.122 3.853986,-0.648997 3.853986,-0.648997 0,0 2.087993,3.005989 3.363988,4.417984 0.555998,0.615997 1.015996,1.111996 1.729994,1.124995 0.294999,0.006 0.719997,-0.031 0.719997,-0.031 z"
     style="fill:#000000;stroke:none" />
</svg>
