<?xml version="1.0" encoding="UTF-8" standalone="no"?>
<svg>
  <path
     d="m 133.53999,21.385608 c 0,0 0.74766,0.11089 1.34387,0.25994 3.25414,0.81325 4.14132,2.838 3.47713,-1.46549 -0.26114,-1.69445 -0.52228,-3.47952 -0.90386,-5.42318 -0.75481,-3.8444 -4.15444,-13.2133402 -5.14773,-14.18278019 -1.6694,-1.63126001 -4.48712,0.32434 -7.50636,4.54196999 -2.68536,3.749 -1.49769,4.72799 0.88002,7.9928702 0.7238,0.99329 7.41573,57.76616 7.25475,61.54617 -0.28975,6.78017 -0.67492,13.89303 -0.67492,13.89303 0,0 1.12089,-1.49292 1.88047,-2.68536 2.59831,-4.08288 4.80789,-14.73965 4.81981,-14.84696 0.51393,-4.66122 -5.42318,-49.63021 -5.42318,-49.63021 l 0,0 z m -48.96244,37.96346 8.94204,0 c 1.62768,0 1.9699,0.0835 3.41989,0.83947 1.87809,0.97779 3.51649,2.34312 3.60712,3.25772 0.0668,0.68446 0,1.92935 0,1.92935 l -17.69212,0 c -1.62767,0 -1.98779,-0.0274 -3.60234,-0.26949 -6.02535,-0.90147 -7.06038,-2.08079 -10.26683,-6.78136 -1.71592,-2.51365 -3.07648,-2.79744 -6.4141,-1.98897 -6.742,1.63363 -10.72591,4.13416 -13.24553,9.94369 -0.82158,1.89358 -1.67775,3.79908 -2.26204,5.79283 -0.45909,1.56567 -0.54613,1.74333 -0.87047,1.7803 -0.73455,0.0835 -2.22389,-0.62722 -2.92862,-1.5132 -0.23968,-0.30168 -0.31361,-0.51036 -0.7405,-2.08079 -2.48025,-9.11018 -6.57983,-24.60583 -7.96186,-27.1791 -0.56761,-1.05769 -7.17964,-12.15446 -8.93013,-13.06429 -2.6317,-1.36891 -3.10509,3.82533 -3.42347,6.19469 -0.29334,2.18096 -0.60218,4.2856 0,5.86915 0.85975,2.25727 3.4974,3.93621 5.42318,6.12194 2.89999,3.29112 6.97335,12.51339 6.02656,16.98143 -0.59623,2.81414 -4.24626,7.5147 -7.69358,11.30306 -3.34954,3.68342 -8.4591,9.38682 -14.23285,8.37564 -3.1432501,-0.5509 -5.8083401,-3.13252 -7.5588301,-7.73888 -0.57952,-1.52631 -0.63676,-1.87689 -0.57118,-3.50217 l 0.52944,-13.06548 c 0,0 -0.53182,-0.0477 -0.96467,0 -0.44597,0.0489 -1.12446,1.72544 -1.49173,3.34954 -1.26874999,5.60801 -2.61977999,20.7984 -0.76315999,26.40044 0.84065999,2.53749 2.22626999,4.64333 4.42511999,5.50188 0.67134,0.26234 1.34029,0.46624 2.00447,0.61649 9.9746901,2.24893 23.1462801,-10.45405 26.5685601,-18.74145 1.02191,-2.47549 1.89717,-5.40649 1.89717,-5.40649 0,0 1.47026,5.49831 2.67223,8.16459 2.78791,6.18871 10.17741,11.58924 16.05252,12.0519 2.85587,0.22537 7.65303,0 7.65303,0 l 3.1182,-10.43497 c 0,0 -4.07096,-0.51633 -6.33538,-1.01356 -1.88763,-0.41497 -4.04831,-1.89001 -5.71771,-3.65839 -5.30752,-5.61755 -2.42899,-7.52305 3.84082,-10.75216 1.87808,-0.67611 5.00225,-0.13713 6.09452,0.8514 0.82517,0.74647 1.47504,2.09749 2.27516,3.19572 2.13445,2.92981 5.95142,3.95053 9.77674,4.03519 2.91073,0.0656 5.99675,-0.61291 8.73815,-0.30049 1.91028,0.21702 3.65242,0.91459 5.42317,1.20435 2.76168,0.45313 6.35209,-0.24921 10.99781,-0.60218 8.00479,-0.60814 20.24034,0 20.24034,0 0,0 3.50097,-6.21018 4.48473,-8.83711 0.35654,-0.95156 0.24802,-1.18051 -0.56759,-1.53823 -6.79448,-2.98347 -8.32676,-1.22702 -12.25701,-5.29201 -1.20556,-1.24729 -2.46238,-2.90477 -3.77763,-4.37981 -7.12955,-7.98691 -6.89225,-8.73933 -17.60506,-6.77063 -1.23655,0.22656 -2.1583,0.45074 -2.41945,0.60457 -0.92652,0.54851 -1.90074,2.60546 -2.71159,5.72486 -0.54017,2.07721 -1.20554,4.82101 -1.20554,4.82101 l 0,0 z M 108.54184,9.1882178 c 0,0 -2.88806,4.0602302 -3.6703,5.1608502 -1.3856,1.94843 -1.72425,2.14399 -2.02117,3.33881 0.002,0.0167 0.004,0.0322 0.006,0.0489 0.0191,0.15383 0.0513,0.28023 0.10017,0.35893 0.1264,0.20033 0.42927,0.0608 0.64391,0.0357 0.28857,-0.0322 0.44001,-0.17291 1.51082,-1.39992 2.14398,-2.45522 6.83144,-7.2523802 9.46671,-8.8633402 2.4099,-1.47385 7.91297,-2.84158 8.86692,-5.23597 0.32196,-0.80609 0.45194,-1.94485999 0,-2.01163999 -0.18006,-0.0274 -0.45432,0.11686 -0.60217,0 -0.093,-0.0739 -0.13594,-0.24803 -0.23372,-0.36965 -0.2206,-0.27069 -0.71785,-0.2695 -1.21271,-0.23372 -2.13206,0.15621 -4.24505,0.9766 -6.38785,1.80772999 -7.36446,2.85945 -44.43479,16.2266102 -47.60427,30.3223502 -0.18244,0.80965 -0.0286,6.34611 1.75169,7.39784 0.93963,0.55687 1.99494,-1.29378 2.18334,-3.25891 0.21105,-2.20005 -0.78343,-4.24387 -0.31958,-5.74156 0.59145,-1.91266 6.60966,-5.86081 8.54617,-7.17845 4.60516,-3.13371 8.65944,-5.48756 15.09857,-8.36728 5.80595,-2.59594 13.87751,-5.8107302 13.87751,-5.8107302 l 0,0 z m -6.74558,19.9589302 c 0.0906,-0.22418 0.35057,-0.40304 1.06007,-0.82397 0.67731,-0.40185 1.25325,-0.74646 2.14996,-0.88121 2.34074,-0.35177 3.28753,0.99091 1.69206,2.66151 -0.0549,0.0573 -0.11209,0.11805 -0.1729,0.18125 -2.53035,2.63885 -6.71101,6.80998 -7.18441,8.27429 -0.1264,0.38991 -0.1729,0.76076 0,0.90386 0.21465,0.17886 0.76913,0.008 1.32122,-0.24922 4.39172,-2.05099 7.82832,-7.28218 9.82683,-11.19932 1.15308,-2.25966 1.14473,-4.88182 -1.30095,-6.02655 -2.05455,-0.95991 -7.18439,0.81682 -8.64154,1.50723 -1.26041,0.59622 -2.8535,2.55776 -3.01328,3.71204 -0.0882,0.63795 -0.093,1.39038 -0.0739,2.00686 1.98897,4.13178 4.88658,-1.43568 4.33687,-0.0668 l 0,0 z M 80.0952,0.04345781 c -0.31243,-0.0668 -0.72381,-0.0549 -1.1662,0.0286 -1.38681,0.25876 -37.25992,22.26986019 -38.81127,24.07282019 -2.92027,3.39246 -4.52409,7.44315 -2.84395,11.65244 0.83231,2.08437 4.88062,5.62947 6.62872,4.41081 0.6618,-0.46148 1.09466,-4.07096 0.60219,-5.02491 -0.47579,-0.92414 -1.34269,-1.48339 -2.33479,-2.00567 -3.50694,-1.84351 -2.60904,-3.84917 1.13042,-6.82906 4.17233,-3.32569 19.46407,-12.90808 22.74088,-14.24956 0.59859,-0.24445 1.14711,-0.44359 1.36294,-0.21225 0.99688,1.07557 -3.35789,8.77987 0.11805,6.40336 0.42212,-0.28858 0.81563,-0.7262 1.15547,-1.22583 1.39514,-2.05217 1.8912,-5.15011 3.54629,-6.98526 1.34268,-1.4881502 3.44732,-2.1463702 4.95217,-3.3900802 0.66538,-0.5509 4.07693,-6.40097999 2.91908,-6.64542999 l 0,0 z M 54.49488,52.198038 c 0,0 1.30809,-1.20911 2.06171,-2.28589 0.60337,-0.86093 0.60337,-4.68983 0,-7.79731 -0.63795,-3.28872 -1.27709,-8.17411 -1.27709,-8.17411 0,0 3.67149,-0.30765 5.47564,-1.38919 0.99449,-0.59621 2.77718,-5.67956 2.43018,-7.1522 -0.48293,-2.05099 -3.96364,-3.19334 -5.0261,-2.20601 -0.90267,0.84067 -1.10658,3.04667 -2.20481,4.62068 -0.54851,0.787 -1.32002,1.41541 -1.921,2.14399 -1.9067,2.31213 -2.04979,5.17635 -1.69445,8.54139 0.53421,5.05591 2.15592,13.69865 2.15592,13.69865 l 0,0 z m 3.18975,-52.19750019481 -2.28232,0 c -1.02667,0 -1.21032,0.0226000048 -1.84111,0.22536000481 -1.17931,0.37801 -2.22626,1.38083999 -2.80579,2.18453999 -1.35461,1.87928 -3.3412,5.89539 -3.3412,5.89539 0,0 -1.66582,-0.67612 -2.38367,-1.37488 -0.5509,-0.53659 -0.54493,-1.0875 -0.89909,-1.54063 -1.17454,-1.50365 -4.90685,-1.98897 -5.93473,-1.77433 -2.50054,0.52228 -2.9775,2.48383 -3.41036,5.06187 -0.43404,2.5816202 -0.30169,4.5717802 3.13372,4.5801302 2.04263,0.005 4.16992,-1.36772 5.50783,-0.60337 1.44047,0.82398 1.96513,4.1294 3.80744,4.82101 0.56522,0.21225 1.25444,0.17886 1.88166,0.10731 0.84543,-0.0966 0.95752,-0.28737 1.12804,-1.91027 0.19317,-1.84112 0.31719,-4.54794 1.11254,-5.42796 0.90267,-0.9980602 2.68058,-0.9515502 3.91713,-1.8077202 1.49412,-1.03503 2.31094,-3.21718 2.40991,-5.54362 0.0537,-1.24847 0,-2.89282999481 0,-2.89282999481 l 0,0 z M 16.78542,8.0673278 l 0,0.61173 -7.8330801,11.2076602 0,0.60338 c 0,0 0.77031,0.0692 1.4452301,0 2.94649,-0.30527 8.97305,-11.9756102 9.40113,-13.4506302 1.26039,-4.34284 0.36727,-5.72487 -4.13059,-6.90895999 -3.3245,-0.87524 -8.6284301,2.79624999 -9.1268701,6.69192999 -0.0501,0.39112 -0.0728,0.82397 -0.0787,1.24609 -0.0345,2.2155402 0.49486,2.9858502 3.22076,1.9758502 C 10.9914,9.5614478 13.31902,8.2771978 13.69584,6.9082878 c 0.0585,-0.21106 0.11565,-0.26353 0.4555,-0.27545 0.67849,-0.0226 2.63408,1.14474 2.63408,1.43449 l 0,0 z m 2.4111,47.0641002 -3.48905,0 c -1.56806,0 -1.82324,-0.0322 -2.5542,-0.3148 -4.0375701,-1.55851 -2.21077,-4.8997 -1.18884,-8.42334 0.10731,-0.36727 0.16931,-0.71188 0,-0.90386 -0.64154,-0.73097 -1.72308,0.0966 -2.1082301,0.60218 -2.61619,3.43301 -4.29872,10.93817 -0.90386,13.55914 2.0199801,1.5597 4.0805001,1.91266 6.6907401,1.49769 1.55254,-0.24683 1.79102,-0.39707 2.38128,-1.4965 0.43762,-0.81563 0.66299,-1.481 0.87405,-2.62335 0.15264,-0.82397 0.29811,-1.89716 0.29811,-1.89716 l 0,0 z"
     style="fill:#000000;stroke:none" />
</svg>
