<?xml version="1.0" encoding="UTF-8" standalone="yes"?>
<!-- Created with sK1/UniConvertor (http://sk1project.org/) -->
<svg xmlns="http://www.w3.org/2000/svg" xmlns:xlink="http://www.w3.org/1999/xlink"
  width="595.276pt" height="841.89pt" viewBox="0 0 595.276 841.89"
  fill-rule="evenodd">
  <path
     d="m 37.281508,6.7495359 c 0,0 -0.800796,-1.188795 -1.296794,-2.126391 -1.178395,-2.228791 -1.030396,-3.021587 -2.827189,-3.694385 -2.747988,-1.028795 -4.239982,0.385599 -4.415181,3.287187 -0.1216,2.007991 0.370398,3.667184 2.207191,3.371986 0.971996,-0.156 2.819988,-0.916797 2.819988,-0.916797 0,0 0.989596,1.168796 1.515194,2.026392 0.798396,1.302395 0.826396,2.3247901 2.41999,2.6559891 0.324798,0.0672 0.473598,0.008 0.639997,-0.247999 0.680797,-1.047196 0.236799,-3.2543861 0.993596,-4.0415831 0.642397,-0.667997 2.151191,-0.311999 3.108787,-0.619198 1.305594,-0.419198 1.868792,-4.231982 0.975196,-5.663976 -1.268795,-2.032792 -4.085583,0.351999 -4.89998,2.066391 -0.663997,1.396795 -1.240795,3.902384 -1.240795,3.902384 z m 13.773543,18.1975251 -3.509585,3.659184 c -0.583198,0.607998 -0.666398,0.717597 -0.829597,1.091996 -0.228799,0.523998 -0.307199,1.400794 -0.195199,1.519994 0.363198,0.385598 1.648793,-0.549598 2.095991,-0.895197 3.917584,-3.032787 5.702377,-4.942379 6.335974,-8.868763 0.321599,-1.995992 -0.684797,-2.767988 -2.46639,-3.023187 -2.827188,-0.403999 -5.631976,0.0096 -6.730372,2.24319 0.171999,8.527165 0.412798,3.651185 2.810388,3.045588 2.666389,-0.673598 5.533577,-2.169591 2.48879,1.227195 z M 62.251005,7.5815329 c 0.587997,4.9903791 0.0872,13.0615451 0.429598,16.6831301 0.354398,3.759985 1.671993,12.511948 2.45599,18.791122 0.0992,0.793597 0.239199,1.999192 0.363998,3.365586 0.187199,2.055192 0.371999,4.80878 0.248799,6.874372 -0.0568,0.951996 -0.178399,1.748793 -0.391998,2.27039 -0.545598,1.336795 -1.383195,2.51679 -1.214395,2.780789 0.340798,0.529598 1.405594,-1.070396 2.28559,-2.612789 4.252783,-7.36877 1.587194,-16.694331 1.492794,-19.33592 -0.143199,-0.638397 -0.299999,-1.336794 -0.466398,-2.141591 -0.915996,-4.413582 -1.103195,-11.053554 -1.680793,-17.025529 -0.251199,-2.59519 -0.146399,-4.82558 0.156799,-5.582377 0.924796,0.911196 1.836793,1.760792 2.599989,2.45839 l 1.304795,1.193595 -0.130399,-1.111196 c -0.1472,-1.251995 -0.791197,-3.892784 -2.231991,-8.8799631 -0.616798,-2.132791 -1.580794,-4.80398 -1.930392,-5.113579 -0.352799,-0.312798 -0.869596,-0.247199 -1.367994,0.1744 -0.1736,0.146399 -0.362399,0.331198 -0.597598,0.491198 -2.067991,1.403194 -3.598385,2.35119 -2.43519,4.935979 0.240799,0.535998 0.627198,1.142395 1.108796,1.783993 z m -7.32557,60.4965481 c 0,0 3.516785,-1.205595 4.91118,-0.872796 0.735197,0.175999 1.495993,1.563993 1.973591,2.628789 0.866397,1.931192 1.701593,4.419182 2.018392,6.393574 0.1056,0.657597 0.219999,1.263994 0.864796,1.495193 0.405599,0.1456 1.023996,0.1544 1.023996,0.1544 0,0 0.0016,-0.0096 0.0048,-0.0296 0.307999,-1.819993 0.993596,-4.87278 1.168795,-6.713572 0.1832,-1.933592 0.1424,-2.60479 1.711193,-2.48239 2.37039,0.185599 3.175987,0.623997 4.217583,-1.361594 0.934396,-1.780793 1.958392,-5.415978 0.327198,-6.594373 -5.045579,-1.426394 -6.929571,5.541577 -7.24557,7.13597 -0.446398,2.251191 -0.633597,4.666381 -0.633597,4.666381 0,0 -1.235995,-4.169583 -2.145591,-6.422373 -1.022396,-2.53279 -3.662385,-5.945576 -6.509573,-5.092779 -1.415194,0.423998 -1.911992,1.638393 -1.911192,3.245586 8e-4,1.479194 0.223999,3.849584 0.223999,3.849584 z m -31.573469,5.796776 c 0.1488,2.162391 1.110396,3.507986 2.859988,3.895984 2.255991,0.500798 3.531986,-0.783197 4.110383,-3.381586 0.1272,-0.569597 0.0984,-1.044796 -0.251199,-1.273595 -0.664797,-0.435998 -2.490389,0.0168 -3.372786,-0.475198 -1.097595,-0.611997 -1.376794,-3.214386 -1.105595,-4.431181 0.271999,-1.217595 0.964796,-2.52159 1.153595,-3.459986 0.0384,-0.189599 0.056,-0.364798 -0.0232,-0.462398 -0.0096,-0.012 -0.02,-0.024 -0.0296,-0.0344 -2.655989,-0.635997 -3.301586,10.205558 -3.341586,9.62236 z m 35.556652,-72.5148981 0,-1.359995004905 L 58.201421,0.0183639 c -0.317598,0.008 -0.441598,0.0568 -1.245594,0.488798 -0.0928,0.0496 -0.1912,0.1024 -0.293599,0.156799 -6.528773,3.481586 -24.910297,12.7111481 -29.258279,19.4399201 -1.819992,2.815988 -2.530389,6.052775 1.822393,7.18797 0.126399,0.0328 0.256799,0.0672 0.392798,0.103199 1.855992,0.490398 2.215991,0.503998 2.834388,-0.590397 0.749597,-1.328795 1.508794,-2.46879 0.779997,-2.971988 -1.843192,-1.272795 -3.972783,-0.662397 -3.354386,-1.888792 0.666397,-1.321594 7.12397,-5.926375 7.883167,-6.391173 0.911197,-0.556798 1.785593,-0.994396 3.043988,-1.766393 2.083191,-1.278395 5.217578,-3.472786 5.217578,-3.472786 0,0 -0.674397,1.604794 -1.023196,2.859988 -0.338398,1.217595 -0.338398,2.671189 0,2.937588 0.775197,0.610398 0.813597,-0.751997 1.435194,-2.585589 0.569598,-1.678393 4.054383,-5.2559781 5.404778,-6.2335741 0.999196,-0.723197 2.216791,-1.387194 3.199187,-1.701593 2.142391,-0.686397 3.653584,-0.849596 3.823184,-2.980788 0.0408,-0.513597 0.0456,-0.638397 0.0456,-1.249594 z M 1.5296572,60.167714 l -1.1191953,0 c -0.18799922,2.198391 -0.37999842,4.335982 -0.40879831,6.319174 -0.12239949,8.348765 6.52557291,15.379941 14.59993941,8.784763 1.344794,-1.098395 2.711188,-2.554389 4.219182,-4.311982 1.111195,-1.295994 2.48479,-3.259186 3.570385,-5.372777 3.313586,-5.873576 0.878397,-14.781539 4.585581,-7.727168 0.154399,0.294399 0.312799,0.595997 0.473598,0.900796 3.322386,6.307974 10.399157,18.423124 19.27272,17.672727 0.513598,-0.0432 1.035196,-0.148 1.567994,-0.322399 2.828788,-0.924796 3.306386,-1.656793 3.850384,-6.313574 0.0608,-0.519198 0.123199,-1.086395 0.123199,-1.086395 l -2.981588,0.250399 c -0.891996,0.0752 -1.058395,0.08 -1.663993,0.0536 -0.448798,-0.02 -0.887996,-0.147999 -1.314394,-0.267198 -1.904792,-0.530398 -3.817584,-1.068796 -4.96958,-1.886393 -0.843196,-0.599197 -2.992787,-3.675184 -3.308786,-4.73518 -0.377598,-1.266395 -0.795196,-3.733584 -0.551997,-4.466381 0.804796,-2.42319 7.942367,-6.011975 10.551956,-6.679173 1.366394,-0.348798 2.603989,-0.475198 4.062383,-0.335998 3.068787,0.292799 5.546377,1.434394 6.755172,0.117599 1.490394,-1.623993 2.43679,-5.431177 2.114391,-5.979975 -0.379198,-0.643997 -5.714376,-0.0272 -9.134362,-0.964796 -1.152795,-0.316799 -4.460782,-2.851188 -6.455173,-4.125583 -3.012788,-1.925592 -7.34077,-1.409594 -11.072754,1.261595 -1.014396,0.726397 -1.762393,1.826392 -1.898392,4.404782 -0.0464,0.865596 0,1.853592 0,1.853592 0,0 4.492781,-1.619193 7.06397,-2.035191 1.293595,-0.2088 2.711189,-0.243199 3.752785,0.483198 0.592797,0.413598 1.392794,1.162395 1.392794,1.162395 0,0 -2.215191,1.208795 -3.711185,2.25679 -2.28319,1.598394 -3.740784,3.638385 -4.524781,6.023175 -0.810397,2.46239 -1.632793,6.858372 -1.632793,6.858372 0,0 -2.725589,-4.267982 -4.327982,-7.16877 -0.949596,-1.719193 -1.504794,-2.957588 -1.940792,-4.324782 -0.175999,-0.552798 -0.331999,-1.126396 -0.479998,-1.714393 -1.721593,-6.839972 -4.079983,-11.229554 -8.176766,-16.92713 -2.44959,-3.406386 -4.247182,-3.971984 -4.983979,1.612793 -0.0472,0.362399 -0.0792,0.647998 -0.092,0.789597 -0.0472,0.532798 -0.052,1.037596 0,1.547194 0.157599,1.543193 5.985575,10.140757 7.937567,14.976737 2.685589,6.655972 -4.143983,15.506335 -9.814359,18.970321 C 9.8984221,71.531667 5.9752388,71.370868 3.8096478,68.564479 2.3384539,66.658087 2.1000549,64.762895 1.7120565,62.130906 1.589657,61.29891 1.4928574,60.661312 1.5296572,60.167714 z"
     style="fill:#000000;stroke:none" />
</svg>
