<?xml version="1.0" encoding="UTF-8" standalone="yes"?>
<!-- Created with sK1/UniConvertor (http://sk1project.org/) -->
<svg xmlns="http://www.w3.org/2000/svg" xmlns:xlink="http://www.w3.org/1999/xlink"
  width="595.276pt" height="841.89pt" viewBox="0 0 595.276 841.89"
  fill-rule="evenodd">
  <path
     style="fill:#000000;stroke:none"
     d="m 62.856162,18.566325 c 0.154288,2.121299 1.14347,3.439894 2.943883,3.821369 2.321972,0.490332 3.63489,-0.768629 4.230289,-3.315892 0.130632,-0.558486 0.101288,-1.024206 -0.258416,-1.249494 -0.684382,-0.42691 -2.563355,0.0161 -3.47113,-0.46572 -1.130222,-0.600136 -1.417989,-3.152133 -1.137798,-4.344831 0.27924,-1.193645 0.992966,-2.472484 1.187022,-3.3925651 0.0388,-0.186478 0.0568,-0.358757 -0.02368,-0.454361 -0.0104,-0.01136 -0.0208,-0.02272 -0.03128,-0.03408 -2.732795,-0.622854 -3.397298,10.0082551 -3.438946,9.4355711 z m -30.705365,0.458148 c -0.410823,0.399459 -0.798919,0.788506 -1.124542,1.135903 -2.721436,2.905073 -3.091555,7.683441 -0.483711,11.369447 0.410823,0.579311 1.189862,1.291144 1.788101,0.877486 0.781878,-0.539554 0.900206,-4.088306 0.853822,-4.188644 -0.568895,-1.225829 -2.278436,-2.67316 -2.278436,-2.67316 0,0 1.051662,-1.054497 2.34186,-2.323869 C 41.03167,15.565647 49.51592,11.59945 55.149055,9.2320379 c 0.996758,-0.498851 1.612037,-0.804599 1.612037,-0.804599 0,0 -0.290599,1.157676 -0.389991,2.3522671 -0.104128,1.267479 -0.01608,2.576608 -0.01608,2.576608 0,0 0.03784,0.0047 0.09939,0.0085 0.373903,-0.650304 2.872891,-3.6490901 3.517514,-4.1914831 0.543343,-0.456256 1.155782,-0.869913 1.705749,-1.187966 0.949422,-0.548074 1.796621,-1.001489 2.56714,-1.56944 0.885062,-0.652198 2.29358,-3.172011 2.367412,-4.235974 0.06816,-0.985396 -0.03784,-2.179987004905 -0.03784,-2.179987004905 0,0 -2.580388,0.0444900049 -2.580388,0.0444900049 0,0 -10.473031,5.516705 -15.300623,8.059235 -4.904263,2.5822881 -12.859378,7.3445631 -16.54254,10.9207661 z m -9.233953,14.257482 0.484656,-0.0085 c 0.217711,-0.0038 0.276399,-0.136309 0.584991,-1.326168 1.771061,-6.840032 2.094796,-10.616911 -2.263293,-15.004338 -0.717511,-0.722246 -1.554293,-1.328061 -2.0929,-0.680596 -0.365384,0.439216 -0.739279,3.540233 -0.572687,4.217989 0.291551,1.184179 1.155782,1.568493 2.153484,2.372144 2.252876,1.8165 2.817043,3.178638 2.530228,5.598112 -0.219608,1.856255 -0.824479,4.831376 -0.824479,4.831376 z M 4.6108187,19.024473 c -0.4108233,0.399459 -0.7989186,0.788506 -1.1245501,1.135903 -2.72143545,2.905073 -3.09154683,7.683441 -0.4837032,11.369447 0.4108153,0.579311 1.189862,1.291144 1.788101,0.877486 0.7818787,-0.539554 0.9002065,-4.088306 0.8538226,-4.188644 -0.568903,-1.225829 -2.2784362,-2.67316 -2.2784362,-2.67316 0,0 1.0516623,-1.054497 2.3418601,-2.323869 C 13.491684,15.565647 21.97499,11.59945 27.609077,9.2320379 c 0.99675,-0.498851 1.612037,-0.804599 1.612037,-0.804599 0,0 -0.291552,1.157676 -0.39,2.3522671 -0.104119,1.267479 -0.01608,2.576608 -0.01608,2.576608 0,0 0.03784,0.0047 0.09939,0.0085 0.373904,-0.650304 2.87194,-3.6490901 3.517514,-4.1914831 0.543344,-0.456256 1.155783,-0.869913 1.704798,-1.187966 0.950374,-0.548074 1.797573,-1.001489 2.568091,-1.56944 0.885055,-0.652198 2.293581,-3.172011 2.367412,-4.235974 0.06816,-0.985396 -0.03784,-2.179987004905 -0.03784,-2.179987004905 0,0 -2.580396,0.0444900049 -2.580396,0.0444900049 0,0 -10.473031,5.516705 -15.300615,8.059235 C 16.249127,10.685994 8.2940126,15.448269 4.6108507,19.024472 z M 0.20729808,5.8110749 0.40512975,9.5907939 4.459363,9.0474529 c 1.167142,-0.156186 1.3611897,-0.11075 1.9452368,0.459095 0.1883676,0.183638 0.4041913,0.456255 0.6209589,0.7705211 5.4873593,7.959843 2.5273798,0.768628 4.8096003,-2.5406371 0.440167,-0.637999 0.352135,-0.260311 0.644631,-0.498851 1.366869,-1.116025 4.211361,-0.729818 4.83232,-1.734146 0.836782,-1.355512 0.404191,-5.503452004905 0.404191,-5.503452004905 0,0 -1.896957,0.03976000491 -3.202299,0.336038004905 -2.384452,0.5405 -3.138883,1.687763 -3.977553,3.996487 -0.6332711,1.740772 -1.3451019,4.437595 -1.3451019,4.437595 0,0 -0.598247,-0.699526 -1.0393503,-1.331846 C 7.0047348,5.7959299 6.9233269,4.6089109 6.2238001,3.7692889 5.7760648,3.2325739 2.1108789,1.4577249 1.1756564,2.1279079 0.80080907,2.3967389 0.56320949,3.1189839 0.39377777,3.6736839 0.16375415,4.4214869 0.14577018,4.6354149 0.20729808,5.8110749 z M 43.214499,31.556328 38.593258,36.146324 c -0.767678,0.762949 -0.876534,0.899257 -1.091414,1.369711 -0.301007,0.657877 -0.405135,1.757811 -0.25652,1.906425 0.478024,0.483705 2.170517,-0.689115 2.7593,-1.123598 5.157943,-3.803384 7.507371,-6.199193 8.341314,-11.125228 0.424071,-2.503721 -0.902094,-3.472079 -3.247739,-3.792024 -3.721025,-0.506424 -7.414603,0.01136 -8.860041,2.813253 0.226232,10.697371 0.543335,4.580531 3.699258,3.821369 3.510882,-0.845302 7.285876,-2.721435 3.277083,1.540096 z m -6.486014,32.287109 4.134689,4.135636 5.535639,-5.535636 -5.535639,-5.535637 -4.134689,4.135636 -4.135633,-4.135636 -5.534687,5.535637 5.534687,5.535636 4.135633,-4.135636 z m -22.90833,-34.134845 -5.5356384,5.535635 5.5356384,5.535637 5.535631,-5.535637 -5.535631,-5.535635 z m 9.280329,31.066013 c 2.076813,-1.579853 3.848818,-3.471132 4.893848,-5.741046 0.345503,-0.751589 0.625695,-1.559974 0.870862,-2.395809 0.05016,0.05585 0.100336,0.111697 0.14956,0.164706 0.692903,0.755375 1.623397,1.338473 2.720492,1.775795 4.54172,1.808927 4.972415,0.788507 8.576065,-2.594592 0.969311,-0.90967 1.778637,-1.744559 1.778637,-1.744559 0,0 0.619071,0.741177 1.123599,1.290197 1.540101,1.677351 4.243545,2.501828 7.360659,2.776338 6.436782,0.566058 14.635168,-1.216364 17.976618,-2.690198 4.813392,-2.123193 6.412174,-4.014473 7.62854,-9.995004 0.691951,-3.402031 -2.720492,1.258013 -11.000278,2.701557 -2.025701,0.353076 -6.007038,-0.263151 -7.911571,-1.617716 -1.680189,-1.195539 -3.681274,-3.411497 -3.681274,-3.411497 0,0 0.586879,-0.589723 1.167142,-1.071535 1.804189,-1.498447 6.734013,-2.98932 8.666938,-3.136987 3.119955,-0.23854 9.138345,0.631372 9.138345,0.631372 0,0 -3.656658,-4.423397 -5.890606,-5.931309 -2.83218,-1.911158 -7.612444,-0.540501 -10.480599,1.665993 -1.315758,1.0119 -2.182828,2.209332 -3.117107,3.573362 -0.732663,1.069643 -2.620155,8.290203 -2.364572,9.045578 0.434479,1.288304 1.269366,2.653281 1.269366,2.653281 0,0 -0.567951,9.6e-4 -1.052598,-0.01798 -0.117376,-0.0047 -0.233808,-0.01136 -0.348344,-0.02082 -1.962276,-0.1524 -3.413394,-0.936174 -4.495344,-2.427994 -1.072478,-1.478567 -1.546718,-3.088711 -2.523596,-2.502773 -0.885055,0.531034 -1.647061,2.90034 -2.527388,4.12049 -0.964566,1.338473 -3.225018,1.994456 -5.125759,2.033267 -1.724685,-0.234762 -3.029075,-1.008123 -4.022994,-2.377833 -1.071534,-1.478568 -1.546725,-3.088711 -2.522651,-2.502775 -0.843407,0.505478 -1.574174,2.677894 -2.401492,3.9378 -3.084923,4.696961 -6.000406,13.901565 -16.322933,11.139427 -0.31048,-0.0833 -0.6332632,-0.181745 -0.9664627,-0.295336 C 4.7329225,56.132548 2.049351,47.196774 1.3649681,44.077772 0.33224187,39.367559 0.35496183,41.431117 0.17037814,43.944303 -1.0090679,60.065613 4.2085154,63.493202 7.4013501,64.797598 c 2.1194045,0.866127 4.6060879,1.027993 7.2991319,0.345504 0.933326,-0.236646 1.869501,-0.576471 2.792427,-1.021367 1.916837,-0.921974 3.868698,-2.025694 5.607575,-3.347128 z" />
</svg>
