<?xml version="1.0" encoding="UTF-8" standalone="yes"?>
<!-- Created with sK1/UniConvertor (http://sk1project.org/) -->
<svg xmlns="http://www.w3.org/2000/svg" xmlns:xlink="http://www.w3.org/1999/xlink"
  width="595.276pt" height="841.89pt" viewBox="0 0 595.276 841.89"
  fill-rule="evenodd">
  <path
     d="m 56.554343,54.207845 -5.716014,5.678014 c -0.950002,0.944003 -1.085002,1.113003 -1.351003,1.694004 -0.372001,0.814002 -0.501001,2.175006 -0.318001,2.360006 0.592002,0.597002 2.685007,-0.853002 3.414009,-1.390003 6.381015,-4.706012 9.288014,-7.670019 10.319017,-13.764034 0.525001,-3.097008 -1.115003,-4.296011 -4.017002,-4.691011 -4.604011,-0.627002 -9.173022,0.01504 -10.961027,3.481008 0.279001,13.234032 0.672002,5.666014 4.576011,4.726012 4.343011,-1.045003 9.013015,-3.366009 4.05401,1.906004 z m -41.701094,0.033 -0.0032,-0.890002 c -0.004,-0.996002 -0.187,-2.112005 -0.506001,-2.929007 -0.004,-0.01 -0.008,-0.02 -0.012,-0.03 0,0 -0.06504,-0.563001 -0.06504,-0.563001 0,0 0.215,-0.058 0.504001,-0.102001 0.916002,-0.139 2.231005,0.520002 2.984007,1.049003 1.179003,0.828002 2.031997,2.358006 0.106001,2.790007 -0.694002,0.156 -1.556004,0.349001 -2.160006,0.485001 l -0.848002,0.19 z m -4.29301,-0.266 C 10.156238,53.806844 9.8902369,53.659844 9.8862369,53.648844 9.7072365,53.147843 9.6912365,51.96384 9.6912365,51.96384 c 0,0 1.6950045,-0.222001 2.2870055,-0.299001 0.411001,-0.054 0.680002,0.454001 0.833002,0.927002 0.976003,3.014008 -2.070005,1.459004 -2.251005,1.383004 z m 0.269,16.46404 c 0.423001,-0.814002 0.915003,-1.817004 1.528004,-3.084008 1.094003,-2.266005 1.674004,-4.21501 1.924005,-5.406013 l 0.467001,-2.214005 1.912005,-0.831002 c 1.593004,-0.692002 3.508,-1.110003 4.421002,-2.281006 0.129001,-0.166 1.621004,-5.268013 0.857003,-7.181017 -0.468002,-1.171003 -2.773999,-3.397009 -3.490001,-3.81901 -2.410006,-1.423003 -7.344018,-2.646006 -7.344018,-2.646006 0,0 -0.518001,1.141003 -1.075003,2.677006 -3.5360087,9.748024 -1.751004,11.440028 0.972003,13.018032 1.051002,0.640002 1.738004,1.536004 1.654004,2.227006 -0.022,0.18 -0.086,0.407001 -0.182001,0.667001 C 5.4642258,76.4579 -2.7027942,81.517903 0.86621455,80.089903 5.2832253,78.322893 10.227238,71.599888 10.829239,70.438885 z m 93.356211,-52.35512 -6.26501,6.182015 6.26501,6.182015 6.26501,-6.182015 -6.26501,-6.182015 z m 0,16.60304 -4.836007,-4.836011 -6.960017,6.960009 6.960017,6.960017 4.836007,-4.836012 4.83601,4.836012 6.96102,-6.960017 -6.96102,-6.960009 -4.83601,4.836011 z m 0.647,46.667098 -4.836005,-4.836003 -6.960017,6.960013 6.960017,6.96002 4.836005,-4.83602 4.83701,4.83602 6.96002,-6.96002 -6.96002,-6.960013 -4.83701,4.836003 z m 27.83407,-58.310126 -5.71602,5.678014 c -0.95,0.944002 -1.085,1.113003 -1.351,1.694004 -0.372,0.814002 -0.501,2.175005 -0.318,2.360006 0.592,0.597001 2.68501,-0.853002 3.41401,-1.390004 6.38101,-4.706011 9.28802,-7.670018 10.31902,-13.764033 0.525,-3.097008 -1.115,-4.296011 -4.01701,-4.691012 -4.60401,-0.627001 -9.17302,0.01504 -10.96102,3.481009 0.279,13.234032 0.672,5.666014 4.57601,4.726011 4.34401,-1.045002 9.01402,-3.366008 4.05401,1.906005 z m -55.861135,32.574072 0.678002,-0.012 c 0.305,-0.0048 0.387001,-0.189001 0.818002,-1.842005 2.479009,-9.501023 2.93101,-14.748036 -3.166008,-20.842043 -1.004003,-1.004002 -2.174005,-1.846004 -2.928007,-0.946002 -0.511002,0.610001 -1.034003,4.918004 -0.800002,5.858006 0.407001,1.645004 1.616004,2.180006 3.011007,3.296008 3.152008,2.523006 3.94201,4.416011 3.541009,7.777019 -0.308001,2.578007 -1.154003,6.711017 -1.154003,6.711017 z M 70.216369,22.764776 c -6.664017,3.514009 -11.35602,6.625016 -12.030022,8.670022 -0.466001,1.412003 -0.483001,3.292008 -0.052,6.185007 0.272001,1.820004 1.076003,4.13801 2.151005,4.713011 0.975995,0.522001 1.977997,-0.780002 2.181998,-1.633004 0.266,-1.109003 0.554001,-2.565006 0.403001,-3.158008 -0.117,-0.458001 -0.497001,-0.400001 -1.045003,-0.975994 -0.689993,-0.726002 -1.645996,-2.455006 -1.645996,-2.455006 0,0 4.548003,-3.163008 8.350013,-5.594014 0.266,-0.17 0.685001,-0.404001 1.239003,-0.692001 5.670014,-2.953008 25.671066,-11.155028 32.231082,-13.591034 3.578,-1.330003 6.39201,-2.256005 7.87501,-2.524006 0.69,-0.125 1.255,-0.16 1.378,0.229001 0.099,0.312001 -2.918,6.715016 -0.522,5.190012 0.662,-0.421001 1.23101,-1.775004 1.90801,-2.907007 1.079,-1.804004 2.432,-3.046007 4.21701,-3.988009 8.69702,-4.5900106 10.48902,-2.3130056 12.50303,-7.5920186 0.86,-2.25600504 0.72,-2.84000704 -1.453,-2.58700604 -1.82701,0.212001 -4.33502,0.864002 -7.18702,1.77400404 -11.74503,3.74601 -41.417099,16.1460396 -50.502121,20.9360506 z m 11.11103,-3.232008 -0.17,-3.859009 c -0.06904,-1.560004 -0.046,-1.840005 0.227,-2.795007 0.202001,-0.709002 0.416001,-1.485004 0.958003,-1.984005 1.320003,-1.2180026 4.588011,-0.797002 6.104015,-1.8000036 2.182005,-1.444003 2.183005,-6.404016 0.504001,-8.41402004 -1.780004,-2.13200596 -5.380013,1.25300304 -6.855017,3.19100704 -0.905002,1.190003 -1.763004,2.553007 -2.149008,4.14501 -0.179001,0.737002 -0.278001,1.574004 -0.418001,2.3070056 L 78.84339,13.913755 76.582384,11.055748 C 73.486377,7.0087384 74.430379,5.8057354 69.882368,4.7047324 c -1.524004,-0.369 -4.830012,-0.231 -5.465013,1.473004 -0.497002,1.333003 0.670001,4.5750106 1.401003,5.3450126 0.562001,0.592001 2.839007,2.061005 3.779009,2.151005 1.536004,0.148 4.676012,-0.781002 4.676012,-0.781002 0,0 2.533006,3.621009 4.08101,5.322013 0.675001,0.742002 1.234003,1.339003 2.100008,1.356003 0.357001,0.0056 0.873002,-0.038 0.873002,-0.038 z M 34.103288,87.686923 c 2.597007,3.64901 8.234021,3.73001 12.546031,3.35701 1.655004,-0.143 3.210008,-0.306 4.859012,-1.033 2.406006,-1.06101 5.013012,-3.32201 6.914017,-4.22102 0.397001,-0.188 0.764002,-0.316 1.068003,-0.225 0.784001,0.235 1.158002,1.92401 1.994996,2.59701 0.968003,0.778 5.720014,-0.288 7.292018,-1.148 0.539002,-0.294 2.686007,-1.91601 3.339008,-2.84001 0.514002,-0.728 0.685002,-0.746 1.709005,-0.179 1.252003,0.693 2.753006,1.201 3.922009,1.728 1.033003,0.46601 1.727005,0.84701 2.52501,0.45201 1.218003,-0.60201 1.870004,-3.13401 1.626004,-4.63002 -0.307001,-1.88 -1.496004,-5.537004 -2.70701,-4.409002 -0.611002,0.569002 -0.697002,2.241002 -1.360004,2.815002 -0.319,0.276 -0.771001,0.298 -1.204002,0.172 -0.921003,-0.267 -1.761005,-1.20501 -2.452006,-1.132 -1.026003,0.109 -1.729005,2.441 -3.112008,3.44901 -1.267003,0.924 -6.759017,1.958 -7.522019,1.44 -0.763001,-0.518 -1.057002,-1.855 -1.748004,-2.41301 -1.537996,-1.243 -3.889001,1.26701 -6.120007,2.77501 -2.065005,1.396 -4.09701,2.06101 -6.326015,2.27001 -3.527009,0.33 -9.571024,0.014 -12.529031,-0.177 -4.25101,-0.274 -2.591006,1.527 -2.715007,1.352 z m 2.219006,-37.497088 0,-4.41101 c 0,0 -0.908002,-0.066 -1.715004,0 -0.880003,0.072 -4.899012,2.670006 -5.788015,3.742009 -2.277005,2.745007 -3.897009,6.108015 -5.181012,10.786026 -1.277003,4.650012 -1.757005,10.852027 -2.859007,15.408038 -0.254001,1.051003 -0.646002,2.104005 -1.141003,3.037995 -3.053,5.75802 -5.500006,5.98702 -7.44701,3.38102 C 7.609231,75.999899 4.8282242,45.972825 4.4542233,50.961837 c -0.04104,0.549002 -0.099,1.082003 -0.1650004,1.604004 -1.1470028,9.077023 2.4000059,37.083082 13.3200331,38.596092 2.840999,0.394 5.252005,-3.27401 6.029007,-6.20302 1.789004,-6.74401 1.627004,-17.839036 4.645011,-22.892048 0.844002,-1.413004 1.974005,-2.579007 3.084008,-3.661009 0.602001,-0.587002 1.017002,-0.910003 1.821004,-0.797002 0.358001,0.05096 0.415001,0.187 0.571002,1.361003 0.833002,6.245015 1.421003,9.585023 5.064012,13.003032 4.719011,4.425011 14.723036,4.17901 20.189049,0.660001 0.181001,-0.117 1.113003,-0.885002 1.987005,-1.487003 l 1.560996,-1.075003 0.519001,1.236003 c 0.109001,0.259001 0.222001,0.531001 0.352001,0.755002 1.022003,1.747004 5.538014,2.289006 6.658017,2.332006 1.094002,0.042 2.111005,-0.092 3.037007,-0.660002 1.153003,-0.709002 2.242005,-2.095005 3.171008,-2.967007 l 1.331003,-1.250003 1.734004,1.499003 c 0.512001,0.444002 1.074006,0.919003 1.739008,1.177003 1.090002,0.422001 4.34101,0.225001 5.603013,-0.661001 0.787002,-0.552002 1.329004,-1.201003 1.808005,-1.669004 l 1.168003,-1.140003 1.402003,1.393003 c 0.432001,0.429001 0.889002,0.926003 1.395004,1.276003 1.681004,1.161003 6.627016,0.964003 8.732023,-0.177 0.286,-0.156 0.511,-0.331001 0.691,-0.645002 0.392,-0.689001 1.07399,-4.690011 2.16,-3.473008 0.216,0.241 0.234,0.717002 0.343,1.165003 0.184,0.747002 2.699,3.243008 3.73901,3.711009 5.20201,2.336006 18.52104,-1.632004 22.69005,-2.862007 3.67801,-1.085003 8.32802,-2.628007 10.18903,-5.878015 0.685,-1.198003 1.199,-3.785009 1.649,-6.361015 0.432,-2.474006 0.51,-3.133008 -0.726,-2.729007 -2.62301,0.860002 -7.14602,4.265011 -10.57603,5.503014 -2.642,0.954002 -6.39601,1.226003 -8.57602,0 -2.002,-1.126003 -7.79702,-8.05702 -6.43101,-10.935027 0.856,-1.806005 5.63201,-2.225006 7.71802,-2.052005 1.905,0.159 4.03701,0.592001 5.90301,1.452003 1.343,0.618002 2.94301,1.671004 3.53001,-0.395001 0.582,-2.050005 -3.62201,-6.496016 -4.28801,-7.000017 -4.17901,-3.160008 -8.02802,-2.437006 -11.79203,1.321003 -3.60701,3.602009 -3.30801,7.110018 -4.64401,15.276038 -0.098,0.593001 -0.199,1.098003 0,1.823004 0.437,1.596004 2.332,4.252011 2.332,4.252011 0,0 -1.771,0.062 -3.119,0 -1.37501,-0.06304 -2.93201,-0.655002 -3.41001,-1.297003 -0.336,-0.452002 -0.603,-1.058003 -0.975,-1.454004 -0.28201,-0.300001 -0.62501,-0.479001 -0.89001,-0.788002 -1.105,-1.287003 -1.176,-7.648019 -1.293,-9.298023 -0.183,-2.589006 -0.432,-5.060012 -1.793,-4.15601 -2.153,1.432004 -2.191,6.731017 -1.572,9.518023 1.235,5.563014 2.629,6.874017 -1.186,7.475019 -1.755007,0.276 -4.940015,0.097 -6.675019,-1.541004 -1.419004,-1.339003 -1.838005,-3.127008 -2.930007,-2.421006 -0.710002,0.460001 -1.245003,2.006005 -2.072005,2.862007 -1.274004,1.317003 -5.126013,1.592004 -6.789017,0.440001 -1.628004,-1.127003 -2.331006,-2.807007 -3.593012,-1.748004 -0.588002,0.492001 -1.092003,1.552004 -1.767004,2.188005 -1.801005,1.699004 -4.992013,2.127005 -6.717017,1.981005 -1.305003,-0.11 -1.949005,-0.206 -2.216005,-1.321003 -0.549002,-2.292006 0.166,-5.168013 -1.908005,-3.96201 -0.655002,0.382001 -1.261003,1.250003 -2.022005,1.981005 -4.623003,4.440011 -13.506025,5.464013 -18.223037,3.96201 -5.001012,-1.592004 -7.061017,-4.299011 -8.754021,-9.905025 -0.303001,-1.000002 -0.587001,-2.024005 -0.724002,-3.084007 -0.153,-1.178003 -0.17,-1.441004 -0.17,-2.630007 z"
     style="fill:#000000;stroke:none" />
</svg>