<?xml version="1.0" encoding="UTF-8" standalone="yes"?>
<!-- Created with sK1/UniConvertor (http://sk1project.org/) -->
<svg xmlns="http://www.w3.org/2000/svg" xmlns:xlink="http://www.w3.org/1999/xlink"
  width="595.276pt" height="841.89pt" viewBox="0 0 595.276 841.89"
  fill-rule="evenodd">
  <path
     d="m 36.794825,10.401139 c 0,0 -0.2194,0.024 -0.384,0 -0.275704,-0.04104 -0.397304,-0.218 -0.524904,-0.4050001 -0.529704,-0.78 -1.744599,-4.119998 -3.540103,-5.494998 -2.171199,-1.660999 -5.4333,1.365 -5.779201,3.504999 -0.486799,3.0119991 3.706502,5.0290061 5.561401,3.7600061 1.1126,-1.325007 2.1144,-0.138 2.931903,1.219 0.566,0.939999 1.802399,3.088999 3.342503,3.100999 2.419495,0.02 2.070495,-2.105 1.716495,-3.552999 -0.806999,-3.2950071 -2.606495,-5.2680061 1.511,-5.0470061 0.483007,0.026 0.617007,-8e-4 0.987007,-0.147 0.423,-0.167 1.422,-0.93 1.498,-1.018 0.701999,-0.815999 0.794999,-4.316998 0.599999,-4.880998 -0.195,-0.56499897 -0.618999,-0.93199897 -1.152999,-1.12599897 -5.728606,-2.07600703 -6.767101,6.71399697 -6.767101,9.43899597 0,0.4690001 0,0.6480001 0,0.6480001 z m 19.282104,2.120007 c -0.784,1.192 -1.511,2.357999 -1.696999,2.946999 -0.04296,0.136 -0.518,2.156999 -0.36,2.399999 0.404999,0.626 1.747999,-1.189 2.089999,-1.642999 0.209,-0.278 0.411,-0.529 0.602,-0.807 0.192,-0.282 0.372999,-0.592 0.544999,-0.918 2.053,-3.870006 3.092999,-6.1050051 7.461005,-7.8280051 1.916,-0.755999 4.867998,-1.389999 5.797998,-2.655999 0.712,-0.969999 1.545999,-2.284999 1.661999,-2.882998 0.05,-0.25999997 0.082,-0.54499997 0.082,-0.54499997 l -0.24,0 c 0,0 0.05296,-0.322 0,-0.480008 -0.07304,-0.214 -0.455999,-0.072 -0.845999,0.102 C 60.655927,4.9061409 26.286818,17.696144 19.616715,28.793148 c -0.2238,0.371999 -0.402199,0.734999 -0.517199,1.074999 -0.902501,2.668999 -0.405301,4.099006 1.844,5.563006 1.0796,0.702 1.9399,1.404999 2.476,0.437 0.006,-0.01 0.733301,-2.424999 0.600001,-2.976007 -0.0998,-0.412 -0.700901,-0.83 -1.2588,-1.129 -0.795201,-0.426999 -1.153801,-0.587999 -0.901201,-1.255999 0.066,-0.175 0.2282,-0.394 0.4482,-0.631 5.190502,-5.582998 20.71721,-13.660002 29.804206,-17.961001 4.203007,-1.9890071 6.937006,-3.9050061 3.965007,0.606 z m 44.431011,5.630998 -4.881002,4.849006 c -0.811,0.806 -0.927,0.950999 -1.154,1.446999 -0.318,0.695 -0.427,1.857 -0.271,2.014999 0.505,0.51 2.293,-0.728999 2.915007,-1.186999 5.448995,-4.019006 7.930995,-6.550005 8.811995,-11.754003 0.448,-2.645007 -0.952,-3.6680071 -3.43,-4.0060071 -3.931995,-0.535 -7.833002,0.01304 -9.361001,2.9730071 0.239,11.301004 0.574,4.837998 3.908006,4.035998 3.708995,-0.892999 7.696995,-2.874998 3.461995,1.627 z m -45.762011,2.931999 -5.091006,5.091006 5.091006,5.090998 5.091998,-5.090998 -5.091998,-5.091006 z m 34.475011,44.636014 -4.321006,0.48 c 0,0 -0.323,-1.537 -0.24,-2.242 0.082,-0.695999 1.275,-0.917999 2.324007,-0.637999 0.547,0.146 2.120999,1.025999 2.236999,1.823999 0.038,0.265 0,0.576 0,0.576 z m -25.824014,8.171005 c 0.643008,-0.329 1.206007,-0.746 1.630007,-1.27 0.11,-0.136 0.21,-0.278 0.314,-0.421 1.066,-1.465999 5.213998,-5.503998 7.155997,-6.000005 1.935,-0.494 2.676007,0.576007 3.445007,2.062007 1.369999,2.645999 3.452999,1.992999 6.336998,1.946999 3.478999,-0.05696 6.805005,-0.308 8.261005,-1.848999 1.297999,-1.373 2.153999,-2.746007 2.062999,-3.900007 -0.328,-4.145998 -4.789998,-6.685997 -7.626005,-3.854998 -1.023999,1.021999 -1.933999,2.291999 -2.236999,3.074999 -0.375,0.971999 -0.215,1.887999 -0.821,2.417999 -0.326,0.285 -2.253,0.536007 -2.619999,0.342 -0.581,-0.307 -0.449,-1.042 -1.238,-2.4 -1.183999,-2.036999 -3.800006,-2.378999 -5.640006,-1.319999 -3.620998,2.082999 -3.389998,2.643999 -5.520997,5.040006 -1.576,1.773999 -2.595999,2.255999 -4.799007,2.879999 -0.464999,0.131 -0.946999,0.279 -1.438999,0.312 -0.649,0.04296 -0.793,0.048 -1.441999,0.046 -2.430999,-0.0072 -6.046998,0.04296 -7.286006,-0.238 -1.122999,-0.254 -3.814998,-1.069 -4.473998,0.158 -0.716999,1.339999 0.129,1.850999 1.133,2.410999 6.561005,3.658998 14.717002,0.607 14.804002,0.562 z m 5.955006,-28.290005 c 0,0 -1.83,0.4 -3.171999,0.634 -2.938007,0.512999 -6.654006,0.513999 -9.743004,0.12 -2.062999,-0.262 -4.676006,-0.741 -4.676006,-0.741 0,0 2.085007,-2.348007 3.379006,-3.579007 1.443,-1.370999 3.085999,-2.205999 4.666998,-2.738999 0.75,-0.253 3.932999,-0.307 4.514007,-0.07696 1.627999,0.645 3.129998,1.834 3.899998,3.535999 0.445,0.987 1.131,2.846007 1.131,2.846007 z m 37.350008,5.311998 c 0.054,-0.034 0.108,-0.068 0.163,-0.101 2.13701,-1.312 5.14801,-3.031999 7.61501,-1.267 0.572,0.409 1.088,1.004 1.541,1.82 0.207,0.374999 0.386,0.603999 0.549,0.715999 -0.392,-0.27 4.228,-5.052998 4.386,-5.464998 0.384,-0.999999 -4.173,-6.165005 -4.425,-6.761005 -0.255,-0.603 -0.403,-1.444999 -0.465,-2.936999 -0.31,-7.492005 -0.259,-25.917013 -0.197,-26.885013 0.036,-0.5770001 0.065,-0.9350001 0.065,-0.9350001 0,0 1.667,0.9170001 2.45999,1.1140001 0.323,0.08 0.501,0.04104 0.701,0.044 0.42601,0.008 5.75101,3.779006 7.35801,5.211006 4.82601,4.301998 8.049,7.851005 9.567,14.165002 0.291,1.21 0.406,2.489999 0.24,3.618999 -0.374,2.551007 -1.554,6.770005 -1.199,7.104005 0.954,0.902 3.697,-4.797998 4.199,-5.999998 4.04101,-9.660004 -0.637,-18.149008 -9.32,-25.2240141 -3.619,-2.947998 -8.41,-5.694997 -12.434,-8.17299597 -3.235,-1.99100803 -3.348,-0.814008 -5.307,2.93999797 -0.199,0.38 -0.405,0.729 -0.507,1.131 -0.136,0.543 -0.15,0.675 -0.141,1.322999 0.011,0.828 0.023,1.713 0.034,2.631999 0.035,2.7600071 0.213,32.3880121 -0.55,34.9010111 -0.352,0.380999 -0.814,0.759007 -1.414,1.150007 -2.97101,1.934999 -5.38501,1.614999 -8.64001,0.48 -0.321,-0.111 -0.616,-0.21 -0.84,-0.6 -0.063,-0.108 -0.121,-0.24 -0.121,-0.24 l 5.602,0.24 c 0,0 0.53,-1.810007 1.478,-3.360007 0.933,-1.521999 2.27001,-2.792998 2.27001,-2.792998 0,0 -2.73801,-0.88 -4.82901,-1.709 -5.166996,-2.047999 -9.247002,-7.856005 -15.015,-8.014005 -0.41,-0.01096 -0.789999,0 -1.121999,0.036 -1.492,0.165 -3.514007,0.784 -4.224007,1.56 -0.225999,0.249 -0.564999,0.841999 -0.894999,1.542999 -0.449,0.953 -2.170999,4.987006 -0.058,4.666006 4.220006,-0.641999 7.606005,-1.495999 10.920003,1.784 0.533,0.526999 0.746,0.951999 0.487,1.273999 -0.173,0.216 -0.529,0.466 -0.964999,0.735 -8.352005,5.159006 -13.401003,6.390005 -18.222002,4.990006 -0.700008,-0.111 -1.256007,-0.264 -1.586007,-0.472 -0.454,-0.285 -0.381,-0.859008 -0.202,-1.711007 0.533,-2.541999 -1.890999,-8.664997 -4.464998,-9.667996 -8.004005,-3.119007 -13.768003,2.995998 -17.750009,9.630996 -0.02,0.03296 -0.03896,0.066 -0.05896,0.099 -2.289999,3.860006 -5.877998,-3.456999 -6.012998,-5.393998 -0.0064,-0.082 -0.01,-0.164 -0.012,-0.246 -0.042,-1.575999 0.154,-3.183999 -1.551999,-2.715999 -2.384007,0.653 -8.697109,2.662999 -10.482004,4.463998 -5.019404,5.067006 -1.2196,13.966003 2.528495,18.217009 0.624704,0.708 1.096207,1.170999 0.712904,2.119999 -0.06416,0.159 -0.156096,0.323 -0.269696,0.489 -4.579102,6.707005 -28.6092136,16.001002 -35.2636157,19.030008 -0.26829988,0.122005 -0.4792998,0.243005 -0.61359975,0.365005 -0.47530061,0.43399 -0.57470057,0.79299 -0.15820073,1.24899 0.26530069,0.29 0.58750052,0.453 0.94830038,0.525 7.1154027,1.406 21.8291068,-4.563002 27.5086088,-8.223 9.860002,-6.351998 15.944807,-15.703002 7.919707,-27.244005 -0.611008,-1.176 -1.088008,-2.109008 -1.088008,-2.109008 0,0 0.461904,-0.262999 1.116008,-0.586999 1.257695,-0.622 2.571095,-1.206 4.000094,-1.227 0.368,-0.0056 0.686,0.014 0.887,0.032 0.280008,0.02496 0.676007,3.082007 0.724007,3.373007 0.091,0.56 0.183,1.079999 0.262,1.450999 0.06496,0.301 0.121,0.504 0.241,0.72 0.611,1.106 2.875999,2.530999 3.239999,3.518999 0.104,0.283999 0.05104,0.531999 -0.07496,0.853999 -0.472,1.201 -1.963999,3.435007 -2.480999,4.975006 -0.208,0.622 -0.53,2.153999 -0.325,2.411999 0.314,0.394 1.241,-0.783999 1.736999,-1.483999 0.791,-1.117 1.562,-2.331999 1.983,-3.556007 0.440999,-1.276999 0.432999,-1.854999 1.238999,-2.159999 0.486,-0.183 4.406998,0.48 7.041005,0.84 2.175999,0.298 8.588997,0.01504 11.040004,-0.96 0.271,-0.107 0.555,-0.226 0.836999,-0.345 l 2.195,-0.918999 1.677999,1.110999 c 3.468999,1.866999 12.863004,0.397 15.87601,-1.512999 2.281999,-1.447 4.445999,-3.329999 6.902998,-4.495998 0.627999,-0.298 1.070999,-0.502 1.070999,-0.502 l 0,3.025999 c 0,0.647999 0.01896,0.765999 0.189,1.177999 0.477,1.163 1.466,1.956999 2.212007,2.219999 0.575,0.204 1.116,0.362 1.936999,0.458 0.04104,0.0048 0.083,0.01 0.126,0.014 5.804996,0.615 10.324006,-3.335999 7.497996,-1.553999 z M 65.282933,17.434144 c -0.55,1.577999 -0.6,3.700999 -0.01,4.885998 0.372,0.748008 2.199999,3.060007 2.511999,3.237007 0.509,0.288 0.87,0.205 1.136,-0.103 1.614999,-1.866999 0.690999,-3.747007 -0.544,-5.027006 -0.083,-0.085 -0.159,-0.174 -0.224,-0.267 -0.044,-0.062 -0.084,-0.125 -0.121,-0.189 -1.801999,-3.173999 18.918009,-10.8320041 20.334009,-11.2650031 0.433,-0.133 0.818999,-0.236 1.146999,-0.306 0.418,-0.089 0.516,-0.01504 0.297,0.550999 -0.213,0.552 -0.593,1.0670001 -0.952999,1.6460001 -1.165,1.875007 -1.167,2.247007 -1.384,3.563006 -0.05,0.301 -0.123,0.676 0,0.72 0.06296,0.02304 0.178,-0.042 0.24,0 0.04,0.028 0.05704,0.103 0.093,0.147 0.07896,0.099 0.248,0.048 0.404,-0.02696 0.308,-0.15 1.047999,-1.463999 1.749999,-2.717999 1.712999,-3.0620071 6.034998,-7.2090051 9.885004,-7.4060051 0.107,-0.0048 0.216996,-0.0032 0.334996,0.009 1.041,0.113 1.233,0.38 1.573,-0.085 0.78,-1.066999 2.428,-4.80000597351 2.428,-4.80000597351 0,0 -1.359,0.0460000035 -2.681,0.14100000351 -0.112,0.008 -0.609,0.166008 -1.388,0.435008 C 91.33894,3.6051819 67.190932,11.954186 65.282933,17.434184 z"
     style="fill:#000000;stroke:none" />
</svg>