<?xml version="1.0" encoding="UTF-8" standalone="yes"?>
<!-- Created with sK1/UniConvertor (http://sk1project.org/) -->
<svg xmlns="http://www.w3.org/2000/svg" xmlns:xlink="http://www.w3.org/1999/xlink"
  width="595.276pt" height="841.89pt" viewBox="0 0 595.276 841.89"
  fill-rule="evenodd">
  <path
     d="m 138.07863,8.8072817 c 0.716,5.7979853 0.106,15.1749613 0.523,19.3819503 0.433,4.367989 2.03899,14.534963 2.99499,21.829936 0.121,0.921998 0.291,2.321994 0.443,3.90899 0.229,2.388994 0.454,5.587986 0.304,7.98698 -0.07,1.105997 -0.218,2.031995 -0.478,2.637993 -0.665,1.551996 -1.687,2.922993 -1.48,3.229992 0.415,0.615998 1.713,-1.242997 2.786,-3.034992 5.18598,-8.560978 1.93499,-19.394951 1.81999,-22.462935 -0.175,-0.741998 -0.365,-1.552996 -0.569,-2.487993 -1.11699,-5.126987 -1.34399,-12.841967 -2.04899,-19.77995 -0.306,-3.013992 -0.178,-5.605985 0.191,-6.484983 1.128,1.058997 2.23999,2.045995 3.16999,2.856993 l 1.591,1.385996 -0.159,-1.290997 c -0.179,-1.454996 -0.965,-4.521988 -2.721,-10.3169733 -0.75199,-2.476993 -1.92699,-5.57998496 -2.35399,-5.93998396 -0.43,-0.363999 -1.059,-0.287 -1.668,0.202999 -0.211,0.169 -0.442,0.384999 -0.72799,0.56999896 -2.522,1.629995 -4.38699,2.730993 -2.97,5.734985 0.294,0.622998 0.765,1.325996 1.353,2.071994 z M 86.480762,50.530207 81.450783,55.527194 c -0.835998,0.830998 -0.954998,0.979998 -1.188997,1.490996 -0.327999,0.716999 -0.440999,1.913996 -0.279999,2.076995 0.520998,0.525999 2.362994,-0.750998 3.004992,-1.222997 5.614978,-4.141989 8.173971,-6.749982 9.081969,-12.112969 0.460998,-2.725985 -0.981998,-3.780982 -3.535991,-4.128981 -4.051982,-0.551999 -8.072972,0.01304 -9.646968,3.062984 0.246,11.64697 0.591999,4.986987 4.02799,4.159989 3.821982,-0.919997 7.931972,-2.962992 3.566983,1.676996 z M 8.2579708,76.894139 c -2.5839854,0.552999 -5.2589785,1.201997 -6.1619762,1.679996 -0.6209984,0.328999 -1.47599619,1.204 -1.74899549,2.051 -0.26299933,0.817 -0.33099915,2.38199 -0.34699911,3.11499 0,0 52.655857,0.06 53.188855,-0.049 1.791996,-0.367 3.93399,-1.231 3.482992,-2.44799 -0.082,-0.223 -50.2988634,-0.176 -50.2988634,-0.176 0,0 0.2309914,-0.295 0.5479906,-0.674 0.2629994,-0.314 0.8449979,-0.677 1.568996,-1.043 0.5619986,-0.284 1.6929958,-0.529001 2.9139928,-0.725 1.072997,-0.172 5.856985,-1.367997 6.805982,-1.823995 2.755993,-1.320997 4.807988,-4.07299 5.080987,-6.265984 0.535999,-4.298989 -2.320994,-5.715986 -7.006982,-8.347979 -0.625998,-0.350999 -1.129997,-0.628998 -2.169994,-0.681998 -1.091997,-0.056 -2.774993,0.136 -2.774993,0.136 0,0 -0.085,2.072994 0.269999,3.54799 0.396999,1.649996 1.344997,2.552994 1.747996,3.655991 0.09,0.245999 0.152999,0.501999 0.04504,0.589999 -0.111,0.092 -0.403999,0.0056 -0.682999,-0.136 -2.196994,-1.118997 -2.311994,-2.717993 -4.0579892,-1.998995 -0.9599976,0.394999 -1.4019964,1.320997 -1.4769962,2.587993 -0.04696,0.808998 -0.02896,1.014998 0.1849995,2.065995 0.2979992,1.461996 0.779998,3.557991 0.8889977,4.939987 z m 31.1149202,-61.898833 -1.302997,0.076 c -0.585998,0.034 -0.685998,0.028 -1.001997,-0.062 -0.570999,-0.159999 -1.290997,-0.722998 -1.567996,-1.259996 -0.133,-0.259 -0.151,-0.337 -0.18,-0.780998 l -0.06304,-0.988998 1.041998,-0.06 c 0.467999,-0.02696 0.551998,-0.02 0.839998,0.074 0.802998,0.262999 2.082994,1.558996 2.161994,1.890995 0.115,0.473999 0.072,1.110997 0.072,1.110997 z m 2.456994,-8.4349783 -0.124,-0.998997 c 0,0 0.688998,-0.115 1.172997,-0.068 0.614998,0.06 0.897998,0.379999 1.267997,0.686998 2.165994,1.794996 4.977987,2.497994 3.75899,4.2939893 -0.195999,0.288999 -1.415996,1.487996 -2.496994,2.365994 -1.470996,1.194997 -2.375993,1.470996 -2.231994,-0.02496 0.224,-2.323994 -1.396996,-6.6599833 -1.346996,-6.2549843 z m -7.382981,5.7579853 c 0.414999,2.403994 1.189997,6.264984 0.808997,7.258982 -0.280999,0.731998 -0.849997,1.273996 -1.372996,1.923995 -2.182994,2.711993 -2.500994,5.891984 -1.318997,9.547975 1.261997,3.90299 5.692986,2.276994 9.724975,-0.148 2.402994,-1.444996 8.274979,-5.401986 9.544976,-7.990979 0.07,-0.143 0.136,-0.289999 0.197999,-0.439999 -0.552998,-1.998995 -2.266994,0.05296 -2.271994,0.056 -6.563983,4.252989 -13.445965,6.827982 -15.59396,6.029985 -0.477998,-0.178 -0.717998,-0.649999 -0.417999,-1.650996 0.189,-0.633999 0.577999,-1.292997 0.664999,-1.393997 0.960997,-1.099997 2.954992,-2.219994 4.186989,-3.496991 0.773998,-0.801998 1.246997,-1.666995 2.063995,-2.211994 1.032997,-0.689998 2.617993,-0.868998 3.83299,-1.383996 3.146992,-1.334997 5.572985,-4.945988 5.871985,-7.770981 0.535998,-5.0629863 -2.320994,-6.7309823 -7.007982,-9.83097426 -0.625999,-0.413999 -1.129997,-0.741998 -2.168995,-0.803998 -1.091997,-0.066 -2.774993,0.161 -2.774993,0.161 0,0 -0.085,2.43999396 0.27,4.17798896 0.396999,1.942995 1.343996,3.005992 1.747995,4.305989 0.09,0.288999 0.153,0.589998 0.04496,0.694998 -0.111,0.107 -0.403999,0.0072 -0.683998,-0.161 -2.196995,-1.317996 -2.310994,-3.199991 -4.05699,-2.353993 -0.960997,0.465998 -1.402996,1.555995 -1.476996,3.047991 -0.048,0.9519983 -0.02896,1.1949973 0.185,2.4329943 z m 54.557852,15.65796 c -0.243,2.042995 0.219999,4.155989 1.629995,6.041984 0.082,0.11 0.156,0.208 0.224,0.297 -0.859998,-1.127997 2.329994,3.61299 2.145994,-1.202997 -0.044,-1.150997 -0.177999,-2.595994 -0.569998,-2.958993 -0.227,-0.210999 -0.539999,-0.058 -0.735998,-0.171999 -0.883998,-0.511999 0.618998,-2.625993 1.334996,-3.432991 0.583999,-0.657999 1.249997,-1.329997 1.985995,-2.008995 4.380989,-4.04299 17.81695,-12.806967 24.05794,-13.480966 0.297,-0.03304 0.52,-0.0072 0.6,0.119 0.084,0.134 0.01,0.380999 -0.108,0.660998 -0.276,0.657999 -0.731,1.460997 -1.238,2.322994 -10.52097,17.877955 6.24798,-7.0479813 11.33097,-7.9929793 0.456,-0.255999 0.886,-0.465998 1.27,-0.608998 1.95799,-0.732998 4.10899,-0.980998 4.26899,-2.903993 0.023,-0.270999 0.01,-0.604998 -0.016,-0.927997 -0.184,-2.27799396 -2.906,-1.95499496 -5.73299,-1.00799796 C 122.43567,3.0673367 115.65869,6.3593287 109.7237,9.7323197 101.08172,14.643307 89.783754,21.43529 89.004756,27.976273 z M 70.433811,16.710302 70.288812,13.40831 c -0.058,-1.333996 -0.03896,-1.572996 0.192999,-2.390993 0.172,-0.605999 0.352999,-1.2699973 0.813998,-1.6969963 1.120997,-1.041997 3.89699,-0.681998 5.184987,-1.539996 1.852995,-1.234997 1.854995,-5.477986 0.427999,-7.19798096 -1.511997,-1.82399604 -4.569989,1.07199696 -5.822985,2.72999296 -0.768999,1.017997 -1.497997,2.183994 -1.824996,3.545991 -0.151999,0.630998 -0.235999,1.346996 -0.354999,1.973994 L 68.323817,11.903314 66.402822,9.4583207 c -2.628994,-3.462991 -1.826996,-4.491989 -5.690986,-5.432986 -1.294997,-0.315999 -4.101989,-0.198 -4.641988,1.259997 -0.421999,1.139997 0.568999,3.913989 1.189997,4.571988 0.477999,0.5069983 2.410994,1.7639953 3.209992,1.8409953 1.304996,0.125999 3.97199,-0.668999 3.97199,-0.668999 0,0 2.151994,3.097993 3.465991,4.552989 0.573998,0.634998 1.048997,1.145997 1.783995,1.159997 0.303999,0.0056 0.741998,-0.032 0.741998,-0.032 z m 9.542976,23.598939 0.576998,-0.01 c 0.259,-0.004 0.327999,-0.161999 0.693998,-1.574996 2.104995,-8.128979 2.489994,-12.617967 -2.688993,-17.830954 -0.852997,-0.857998 -1.846995,-1.577996 -2.486993,-0.808998 -0.434999,0.521999 -0.877998,4.206989 -0.679999,5.011987 0.346,1.406997 1.371997,1.863996 2.557994,2.819993 2.676993,2.157995 3.347991,3.77699 3.006992,6.651983 -0.260999,2.205994 -0.979997,5.740985 -0.979997,5.740985 z M 61.054835,35.395254 c -0.04296,-1.150997 -0.172999,-2.595993 -0.550998,-2.958992 -0.219,-0.211 -0.521999,-0.058 -0.710998,-0.172 -0.853998,-0.511999 0.597998,-2.625993 1.289996,-3.432991 6.280984,-7.331981 22.557942,-16.434958 31.158912,-18.317953 0.819998,-0.18 1.638996,-0.324999 1.793996,-0.04696 0.07696,0.138 -0.01104,0.379999 -0.143,0.652998 -0.309999,0.642999 -0.807998,1.420997 -1.359997,2.253994 -11.452962,17.295956 6.612983,-6.7059823 11.739974,-7.3809803 0.469,-0.231 0.90899,-0.417999 1.29899,-0.540999 1.995,-0.627998 4.15599,-0.760998 4.41799,-2.672993 0.037,-0.268999 0.042,-0.602998 0.033,-0.926998 -0.087,-3.132991 -5.19899,-1.63399496 -8.80198,-0.263999 -3.333987,1.267997 -8.285975,3.357992 -13.537961,5.787985 -6.794975,3.1439923 -27.141922,12.5819683 -30.005915,20.7789473 -0.921998,2.641993 -0.750998,5.601985 1.087997,8.146979 0.07896,0.109999 0.151,0.207999 0.216,0.296999 -0.829998,-1.127997 2.250994,3.612991 2.073994,-1.202997 z m 51.445865,16.50195 c 0,0 0.48599,-1.120998 0.77999,-2.009995 0.497,-1.498996 0.417,-2.581994 0.221,-4.13399 -0.546,-4.325981 -1.38599,-14.125955 -1.38599,-14.125955 0,0 1.50699,-0.17 2.65799,-0.139 3.11299,0.081 4.01999,1.547996 5.65798,-0.089 1.066,-1.064997 2.02,-4.838987 1.338,-6.248984 -0.78,-1.611996 -3.42199,-2.387994 -4.63599,-1.072997 -0.56,0.606998 -0.87999,1.563996 -1.52099,2.194994 -0.992,0.975998 -2.756,1.169997 -3.62899,1.983995 -1.496,1.393997 -1.697,11.137972 -1.422,13.445966 0.465,3.892982 1.939,10.194966 1.939,10.194966 z m 2.83999,27.585931 c 0.167,2.309 1.24499,3.74499 3.20499,4.15999 2.52799,0.534 3.95799,-0.837 4.60599,-3.60999 0.142,-0.608 0.11,-1.116001 -0.282,-1.36 -0.744,-0.465999 -2.78999,0.01704 -3.77899,-0.507999 -1.23,-0.652998 -1.543,-3.430991 -1.239,-4.729988 0.305,-1.299996 1.081,-2.691993 1.293,-3.69399 0.043,-0.203 0.062,-0.389999 -0.026,-0.493999 -0.011,-0.01304 -0.022,-0.026 -0.034,-0.03696 -2.97499,-0.677998 -3.69899,10.895976 -3.74399,10.272976 z m -33.048909,0.075 4.198981,4.19899 6.041984,-6.041988 -6.041984,-6.041984 -4.198981,4.197989 -4.197989,-4.197989 -6.041985,6.041984 6.041985,6.041988 4.197989,-4.19899 z m -16.825957,-27.991931 6.041984,-6.041984 -6.041984,-6.041977 -6.041985,6.041977 6.041985,6.041984 z m 63.732826,10.180974 c 0.042,0.367999 0.052,0.907998 -0.063,1.101997 -0.107,0.18 -0.32,0.06504 -0.714,-0.178999 -1.23299,-0.762998 -4.23298,-2.788993 -4.23298,-2.788993 l 1.87399,0 c 0.842,0 0.993,0.01896 1.511,0.185 0.547,0.174999 1.15099,0.527998 1.41899,0.920997 0.129,0.189 0.149,0.265 0.206,0.759998 z m -96.032743,1.596996 c 0,0 -2.705993,0.824998 -4.12599,0.494999 -1.002997,-0.233999 -1.578995,-1.315997 -1.315996,-2.176994 0.183999,-0.602999 0.798998,-1.237997 1.535996,-1.693996 l 2.301994,-1.422996 1.284997,2.275994 c 0.148999,0.262999 0.264999,0.556998 0.318999,0.939997 0.092,0.658999 0,1.582996 0,1.582996 z m -0.249,-13.868964 -0.582998,-1.166997 1.078997,-0.895998 c 0.400999,-0.353999 0.471999,-0.392999 0.708998,-0.392999 l 0.527999,0 0,0.06104 0.309999,1.204997 0.346999,1.349996 -0.744998,0.486999 -0.550998,0.359999 c -0.25,0 -0.498999,0 -0.590999,0 L 32.916907,49.47525 z m -3.475991,-5.088987 c -0.829997,-0.348991 -1.997994,-2.411986 -2.887992,-3.844982 -0.209,-0.337999 -1.114997,-1.615996 -0.807998,-1.931995 0.417999,-0.426999 2.297994,1.221997 2.416994,1.314996 0.982997,0.765998 2.272994,1.641996 2.822992,2.522994 l -1.543996,1.938987 z m 20.172949,-6.364976 c -0.174,0.310999 -0.333,0.541999 -0.370999,0.587999 -1.222997,1.512996 -3.89699,4.136989 -6.208984,5.749977 l -2.510994,1.753995 -0.746998,-1.057997 -1.669996,-2.360986 2.357994,-2.008995 c 0.442999,-0.375999 0.980998,-0.804998 1.605996,-1.333996 0.06104,-0.05104 4.967987,-4.638988 7.151982,-4.279989 2.001995,0.328999 0.232999,3.234991 0.391999,2.949992 z m -37.318905,36.205939 -1.302996,0.06496 c -0.584999,0.028 -0.685998,0.02296 -1.0019976,-0.05296 C 9.4189678,74.103147 8.6989697,73.625148 8.4229704,73.169149 8.2889707,72.95015 8.2709708,72.88315 8.2429708,72.506151 l -0.064,-0.838998 1.0419973,-0.052 c 0.4689988,-0.02296 0.5529986,-0.01704 0.8399979,0.06304 0.803998,0.222999 2.082995,1.323996 2.162995,1.604996 0.113999,0.402999 0.07104,0.943997 0.07104,0.943997 z m 2.456994,-7.161981 -0.123,-0.847998 c 0,0 0.687999,-0.098 1.171997,-0.058 0.614999,0.05 0.897998,0.322999 1.267997,0.582998 2.165995,1.523997 4.978987,2.120995 3.759991,3.645991 -0.196,0.244999 -1.416997,1.262997 -2.497994,2.008995 -1.470996,1.014997 -2.375994,1.248997 -2.230994,-0.02104 0.223999,-1.973995 -1.397997,-5.654985 -1.347997,-5.310986 z M 36.814897,38.529206 c 0,0 -3.82499,-4.857988 -6.122984,-6.597983 -3.145992,-2.381994 -6.282984,-1.656996 -7.66698,1.730995 -0.680998,1.665996 -1.575996,6.287984 -1.236997,7.75698 0.274999,1.191997 1.187997,2.618994 1.944995,3.904982 l 1.759996,2.990993 -2.216995,1.653996 c -2.920992,2.179994 -9.531975,6.483983 -14.1029635,9.416975 -1.0539973,0.676999 -3.3159835,2.259995 -3.7099825,3.462991 -0.064,0.198 -0.086,0.405999 0,0.494999 0.1179997,0.122 0.4379989,0.02 0.764998,-0.099 1.8119874,-0.656998 3.853982,-1.826995 5.752977,-2.451993 3.780991,-1.244997 4.949988,-0.491999 9.311976,-3.632991 0.615999,-0.442999 1.189997,-0.926998 1.744996,-1.412996 l 4.993987,-4.361989 0.755998,2.015995 0.430999,1.148997 -0.940998,0.795998 c -0.809998,0.683998 -1.913995,1.294996 -2.532993,2.061994 -1.655996,2.053995 -1.648996,6.725983 -0.741998,8.408979 1.067997,1.979995 3.315991,2.235994 6.519983,1.483996 2.426994,-0.568998 2.916993,-1.320997 4.263989,-3.515991 0.603999,-0.983997 1.245997,-1.944995 1.219997,-2.941992 -0.044,-1.632996 -1.527996,-3.96699 -0.872998,-5.087987 0.434999,-0.743998 1.397997,-1.486996 1.397997,-1.486996 0,0 2.635993,7.309981 4.785987,11.054971 2.419994,4.215989 6.446984,4.983987 12.712968,5.440986 3.409991,0.249 9.273976,0.177 12.020969,-1.977995 1.655996,-1.299996 2.205994,-2.466993 3.328991,-1.810995 0.699999,0.409999 1.466997,1.445996 2.323994,2.107994 2.923993,2.255995 16.965949,0.958998 18.147946,-0.358999 1.375996,-1.533996 2.602993,-4.490988 2.602993,-4.490988 0,0 2.987992,2.869993 5.090987,4.151989 2.794989,1.703996 12.437969,2.544994 15.252959,0.647999 2.174,-1.463997 2.80899,-2.867993 4.69999,-2.720993 2.18999,0.170999 6.28898,3.58399 8.81598,4.451988 0.92399,0.317999 1.68299,0.298999 2.48299,0 0.891,-0.331999 5.52899,-6.217984 5.76799,-7.320981 0.40099,-1.848995 -0.203,-4.849988 -0.39,-7.61998 -0.206,-3.061993 -0.167,-3.686991 -2.776,-3.856991 -2.57499,-0.167999 -3.50899,0.171 -6.72798,1.236997 -2.31599,0.766998 -5.06999,1.981995 -5.93598,2.967993 -1.46,1.661995 -2.052,4.403988 -3.46299,5.688985 -2.031,1.848995 -12.18397,1.155997 -15.33597,-1.236997 -1.146992,-0.870998 -2.808988,-3.553991 -3.201987,-5.259986 -0.322999,-1.404997 -0.370999,-2.870993 -2.238994,-1.667996 -0.576999,0.370999 -0.919998,1.049997 -1.150997,1.784995 -0.746998,2.385994 -0.376999,5.451986 -1.549996,6.851983 -1.201997,1.434996 -12.076961,2.443994 -15.602952,0.269999 -0.836998,-0.516999 -1.462996,-1.230997 -1.702996,-2.168994 -0.404999,-1.584996 -0.083,-3.379992 -1.927995,-2.530994 -1.196997,0.551999 -1.954995,2.602993 -3.293991,3.710991 -2.980993,2.465993 -15.231961,2.348994 -18.798952,0.988997 -4.746988,-1.810995 -9.845975,-8.308979 -8.147979,-12.642967 0.916997,-2.338994 3.90099,-4.416989 6.169984,-7.144974 1.067997,-1.283997 5.971985,-10.628973 4.451989,-14.097964 -0.871998,-1.990995 -4.02499,-0.638998 -5.441987,0.246999 -4.346988,2.718993 -11.68597,9.565976 -11.68597,9.565976 z"
     style="fill:#000000;stroke:none" />
</svg>