<?xml version="1.0" encoding="UTF-8" standalone="yes"?>
<!-- Created with sK1/UniConvertor (http://sk1project.org/) -->
<svg xmlns="http://www.w3.org/2000/svg" xmlns:xlink="http://www.w3.org/1999/xlink"
  width="595.276pt" height="841.89pt" viewBox="0 0 595.276 841.89"
  fill-rule="evenodd">
  <path
     style="fill:#000000;stroke:none"
     d="m 74.007836,6.08867 c -0.044,0.03296 -0.084,0.06704 -0.121999,0.103 0.285999,-0.272999 0.238999,-0.265999 0.121999,-0.103 z m 0,0 c 0.202,-0.152999 0.464999,-0.270999 0.788006,-0.349999 1.272997,-0.308999 3.466992,0 3.466992,0 0,0 0.749998,-2.975992 0.471999,-4.410989 C 78.424834,-0.27332198 75.557841,-0.38932198 74.011836,0.77968302 72.033841,2.27468 70.988844,8.772664 71.649842,10.783667 c 0.183,0.555999 0.464999,1.060998 0.837998,1.464997 0.136,0.147 0.283999,0.279999 0.436999,0.418999 l 1.085997,0.975997 0.581999,1.579997 c 0.242007,0.657998 0.397007,1.223997 0.397007,1.223997 0,0 4.417989,-2.790994 5.870986,-4.567989 0.642998,-0.787998 0.703998,-1.375997 0.943997,-2.362003 0.434999,-1.784995 1.087998,-3.461991 0.708999,-3.778991 -0.315,-0.261999 -1.225997,-0.138999 -1.944996,0.263 -1.061997,0.595998 -1.703995,1.800995 -3.401991,2.098995 -0.472999,0.083 -1.027998,0.096 -1.509997,0.082 C 73.032839,7.778666 73.724837,6.48067 74.007836,6.08867 z M 12.844937,36.101622 c -0.790998,4.883996 -3.5349916,12.263978 0.967997,14.505981 3.245001,1.614996 5.574995,0.210999 6.281993,-3.295 0.257,-1.274997 0.112,-2.122995 -0.864998,-2.641994 -1.631996,-0.868998 -5.266995,-0.635998 -6.145993,-1.597996 -0.323999,-0.353999 -0.306999,-0.867998 -0.190999,-1.502996 0.908997,-4.997996 2.120003,-5.652995 1.598996,-9.520985 -0.249,-1.848004 -1.987995,-10.335983 -4.427989,-8.964986 -1.2879973,0.723998 -1.8659959,3.339991 -1.2859973,4.244989 0.3379992,0.525999 1.1199973,1.078998 1.6449963,1.674996 1.043997,1.181997 2.709993,5.318995 2.421994,7.097991 z m 48.452922,13.957974 c 0,0 0.474999,-1.094997 0.761998,-1.962995 0.484999,-1.463997 0.406999,-2.521994 0.216,-4.03699 -0.533999,-4.224998 -1.353997,-13.795983 -1.353997,-13.795983 0,0 1.471997,-0.165999 2.595994,-0.136 3.041,0.07896 3.926998,1.511005 5.525994,-0.087 1.040998,-1.039998 1.972996,-4.725989 1.306997,-6.102986 -0.761998,-1.573996 -3.341992,-2.332994 -4.527989,-1.047997 -0.546998,0.592999 -0.858998,1.527996 -1.485004,2.143995 -0.969998,0.952998 -2.691994,1.141997 -3.544992,1.936995 -1.460996,1.361997 -1.656996,10.877982 -1.387996,13.131976 0.452999,3.801999 1.892995,9.956984 1.892995,9.956984 z m -15.54397,-7.553982 0.481999,-0.008 c 0.215999,-0.004 0.273999,-0.135999 0.579998,-1.317996 1.760996,-6.796992 2.081995,-10.550983 -2.249002,-14.90998 -0.712998,-0.717998 -1.543996,-1.320997 -2.078995,-0.676999 -0.363999,0.436999 -0.734998,3.517992 -0.568999,4.19099 0.289,1.177005 1.147997,1.559005 2.138995,2.358003 2.239003,1.804995 2.800001,3.158992 2.515002,5.562986 -0.219,1.844996 -0.818998,4.800996 -0.818998,4.800996 z M 34.901907,13.97366 34.7819,11.212666 C 34.73286,10.096661 34.74886,9.896662 34.942907,9.213663 35.086907,8.705664 35.238906,8.151666 35.622906,7.793666 36.560903,6.922668 38.882898,7.223668 39.958895,6.506669 41.508891,5.473672 41.509891,1.924681 40.317894,0.48667602 39.052897,-1.03832 36.495903,1.383682 35.448906,2.769679 34.8049,3.620676 34.195901,4.596674 33.921902,5.734671 c -0.127,0.527999 -0.198,1.126998 -0.297,1.650996 L 33.138904,9.953661 31.531907,7.909666 C 29.332913,5.013673 30.003911,4.153675 26.772919,3.365677 c -1.082997,-0.263999 -3.43,-0.164999 -3.881999,1.053998 -0.352999,0.953997 0.475999,3.272992 0.995998,3.823991 0.398999,0.422999 2.016003,1.473996 2.684001,1.538996 1.090998,0.105 3.320992,-0.558999 3.320992,-0.558999 0,0 1.799996,2.590002 2.898993,3.806999 0.479999,0.530999 0.875998,0.957998 1.491997,0.969998 0.253999,0.0048 0.619006,-0.02696 0.619006,-0.02696 z m -6.516992,15.62497 c -0.036,-0.961998 -0.144,-2.170995 -0.459999,-2.473994 -0.183999,-0.177 -0.436999,-0.04896 -0.595998,-0.144 -0.712999,-0.427999 0.500998,-2.195995 1.079997,-2.870993 5.251987,-6.130993 18.86397,-13.743983 26.054953,-15.317979 0.686006,-0.149999 1.371004,-0.271999 1.500004,-0.04 0.06496,0.116 -0.008,0.318 -0.118,0.546999 -0.259999,0.536999 -0.675998,1.188005 -1.138005,1.885003 -9.577977,14.462973 5.529995,-5.607994 9.816984,-6.171993 0.392007,-0.193999 0.761007,-0.349999 1.087006,-0.452999 1.667996,-0.524999 3.474991,-0.635998 3.693991,-2.235994 0.03096,-0.224 0.03496,-0.502999 0.028,-0.774998 -0.07304,-2.619002 -4.34799,-1.36600498 -7.36099,-0.22 -2.787994,1.059997 -6.927984,2.807993 -11.319981,4.839988 -5.682986,2.628994 -22.697961,10.520983 -25.091955,17.375974 -0.772006,2.208995 -0.627999,4.683989 0.909998,6.812984 0.066,0.09101 0.124999,0.174007 0.179999,0.248007 -0.693998,-0.943005 1.881996,3.021993 1.733996,-1.006005 z m 55.230906,49.536924 c 0.164,2.255 1.216005,3.65799 3.13,4.06299 2.468994,0.522 3.865991,-0.817 4.497989,-3.526 0.139,-0.59399 0.108,-1.08999 -0.273999,-1.32899 -0.727998,-0.454 -2.725993,0.018 -3.691991,-0.495 -1.200997,-0.638 -1.505996,-3.351993 -1.208997,-4.61999 0.296999,-1.268997 1.055997,-2.628994 1.261997,-3.607999 0.042,-0.198 0.06096,-0.379999 -0.02496,-0.481999 -0.01104,-0.01304 -0.022,-0.02496 -0.03296,-0.036 -2.906001,-0.662999 -3.612999,10.641978 -3.656999,10.032988 z m -33.670942,0.21199 3.96099,3.962 5.797994,-5.797991 -5.797994,-5.796986 -3.96099,3.960991 -3.961991,-3.960991 -5.796994,5.796986 5.796994,5.797991 3.961991,-3.962 z m 38.918937,-67.641879 0.450999,7.953981 2.123995,38.869938 c 0,0 1.440997,-1.444997 2.304994,-2.759994 1.225005,-1.863995 1.289005,-3.466991 1.658004,-5.256987 0.289,-1.403005 0.308,-1.717004 0.189,-3.134 l -2.326002,-27.731957 -0.22,-4.706989 c 0.231,0.126 0.450999,0.241 0.657999,0.342999 l 3.577999,1.770996 -0.682999,-1.881995 c -0.078,-0.214 -0.159999,-0.439999 -0.242999,-0.666999 C 95.362808,11.770665 94.81181,9.066664 94.151803,6.26467 93.518805,3.580677 92.675807,0.00667702 92.675807,0.00667702 c 0,0 -0.596999,-0.032 -1.146997,0.04696 -1.511997,0.216 -4.740989,5.03199598 -4.949988,6.12599298 -0.02,0.104 -0.032,0.207 -0.036,0.31 -0.009,0.225999 0.008,0.463998 0.04704,0.708998 0.275999,1.763996 1.162997,3.267992 2.273994,4.506997 z m -12.850977,45.637921 -0.068,3.197001 c 0,0 -0.539999,-0.118 -1.041998,-0.219 -1.712004,-0.345007 -3.145,-0.921006 -3.365,-1.522004 -0.076,-0.21 -0.115999,-0.456999 -0.115999,-0.456999 0,0 2.072995,-0.926998 3.676999,-1.018998 0.477999,-0.02704 0.913997,0.02 0.913997,0.02 z M 0.01295997,85.283544 0,85.892544 c 0,0 4.0439902,0.35299 6.8329914,1.05899 5.6599866,1.433 6.0519856,3.567 10.7689816,2.514 5.036988,-1.125 14.842972,-9.24098 17.742973,-13.065978 1.386997,-1.828995 2.881993,-4.938988 3.256992,-6.771991 0.144,-0.702999 0.223,-1.407997 0.433999,-2.157995 0.513999,-1.822996 1.811996,-3.916991 1.872996,-5.465987 0.03696,-0.939998 -0.379999,-1.678996 -0.135,-2.364002 0.248999,-0.693999 2.557994,-2.089995 4.01099,-2.501994 0.760006,-0.216 1.328005,-0.277999 1.681004,0.036 0.934998,0.827998 0.369999,4.279997 1.307997,6.425992 1.607996,3.674991 8.452987,6.131985 12.379978,3.965991 1.987995,-1.094998 2.180995,-1.703996 3.787991,-1.337997 1.615004,0.366999 3.588999,1.471996 5.703994,2.276994 2.274994,0.864998 6.263993,1.942004 7.163991,1.651996 1.019997,-0.328999 5.589986,-9.464977 6.399984,-12.597977 0.093,-0.359999 0.16,-0.708998 0.133,-1.064998 -0.074,-0.978997 -0.859998,-2.007995 -0.847998,-3.125992 0.02496,-2.199995 1.166997,-2.614994 0.07296,-3.426 -4.030991,-2.989992 -11.155981,1.914004 -14.713973,4.257998 -1.051997,0.692998 -2.048995,1.358997 -2.816993,2.183995 -0.991005,1.063997 -1.602004,2.391994 -2.621002,2.955993 -1.103997,0.610998 -5.503986,-0.032 -7.439981,-1.299997 -1.521005,-0.995998 -2.955001,-2.981993 -3.334,-4.41299 -0.832998,-3.143992 -0.111,-7.42599 -2.092995,-6.898991 -0.853998,0.227 -2.044995,1.376997 -3.197993,2.255995 -1.882003,1.436004 -3.931998,2.314002 -5.696994,1.668004 -2.072995,-0.759007 -4.15299,-3.039001 -5.369987,-1.485005 -1.144005,1.461005 -2.944001,6.745992 -2.866001,7.45399 0.163,1.467997 1.625996,2.939993 2.604002,4.879996 2.702993,5.356987 1.986995,7.439982 -2.283002,10.690982 -10.965982,8.348988 -17.662966,10.646978 -31.3609483,12.594978 -1.22199708,0.173 -1.35899675,0.223 -1.36499673,0.497 z" />
</svg>