<?xml version="1.0" encoding="UTF-8" standalone="yes"?>
<!-- Created with sK1/UniConvertor (http://sk1project.org/) -->
<svg xmlns="http://www.w3.org/2000/svg" xmlns:xlink="http://www.w3.org/1999/xlink"
  width="595.276pt" height="841.89pt" viewBox="0 0 595.276 841.89"
  fill-rule="evenodd">
	<path
		style="stroke:none; fill:#000000"
		d="m 91.565318,39.666538 c 0,0 -1.574396,-27.692717 -1.574396,-27.692717 0,0 0.012,0 0.1216,0 3.035191,2.455993 3.096791,2.343993 2.463193,0.961597 -1.847995,-4.0359885 -1.544796,-3.9903885 -1.538396,-8.4031755 8e-4,-0.903197 -0.0232,-1.966394 -0.118399,-3.27119 -0.064,-0.88959698 -0.2976,-1.43839598 -1.091997,-1.20879698 -1.602395,0.463999 -3.734389,4.20718798 -3.946388,4.93358598 -0.583999,1.996794 2.778391,37.6054875 2.264793,40.8750775 -0.219999,1.400796 -0.533599,2.735992 -0.2096,3.111191 1.216797,1.408796 2.944792,-5.159984 3.38959,-6.878379 0.279199,-1.075997 0.303199,-1.318396 0.24,-2.427193 z M 59.207135,8.6427345 c 0.152855,-1.099017 0.0368,-1.266396 0.363198,-1.566395 0.828798,-0.763198 1.505596,-0.655198 2.563193,-0.989597 1.352796,-0.427999 1.786394,-1.468796 2.110393,-2.959191 0.387199,-1.777595 1.275197,-3.89358898 -1.876794,-2.85119198 -0.503998,0.1664 -0.958397,0.397599 -1.103997,0.489599 -0.567998,0.35919898 -1.119196,0.82239698 -1.644795,1.43919598 -0.907197,1.065596 -2.247193,3.584789 -3.041591,3.28879 -0.510398,-0.1904 -0.983197,-1.459996 -1.479995,-2.260793 -1.087197,-1.753595 -3.24639,-1.773595 -4.316787,-0.2056 -0.294399,0.430399 -0.516799,1.011997 -0.643198,1.640795 0.533598,10.0935705 3.651189,1.669595 5.820782,4.075188 1.011997,1.121596 1.922875,4.1987735 2.348073,4.2611735 1.388396,-0.987754 0.693766,-2.868232 0.901518,-4.3619735 z M 48.771702,19.220935 c -0.0376,0.1496 -0.0736,0.451199 0,0.616798 0.146399,0.331199 0.729598,0.112 1.307996,-0.163999 2.103194,-1.004797 4.373587,-2.978391 6.64638,-4.774386 L 69.53084,7.0937715 c 3.756788,-1.579995 6.55998,-2.185594 7.605577,-6.001583 0.299999,-1.09599598 -0.0032,-1.23599598 -0.986397,-0.98639698 -1.508796,0.382399 -12.436763,6.89117998 -18.379945,10.41916948 -4.600786,2.731192 -7.815977,3.966388 -8.998373,8.695974 z m 6.823259,16.131109 0.410399,-0.0072 c 0.184,-0.0032 0.232799,-0.1152 0.493599,-1.119997 1.497595,-5.781583 1.770394,-8.973573 -1.912795,-12.680762 -0.606398,-0.610398 -1.313596,-1.123197 -1.768794,-0.575998 -0.308799,0.371199 -0.623998,2.991991 -0.483199,3.564789 0.246399,1.000797 0.975997,1.325596 1.819195,2.004794 1.903994,1.535195 2.380793,2.687192 2.138393,4.731186 -0.185599,1.569595 -0.696798,4.083188 -0.696798,4.083188 z M 18.953455,49.708429 c 0.1304,1.791995 0.966397,2.907192 2.487993,3.228791 1.962394,0.415199 3.071991,-0.649598 3.575189,-2.802392 0.1104,-0.471999 0.0856,-0.865598 -0.218399,-1.055997 -0.578399,-0.360799 -2.166394,0.0144 -2.933592,-0.393599 -0.955197,-0.507199 -1.198396,-2.663992 -0.961597,-3.671989 0.236,-1.008797 0.839198,-2.089594 1.003197,-2.867192 0.0328,-0.157599 0.048,-0.302399 -0.02,-0.383199 -0.0088,-0.0104 -0.0176,-0.02 -0.0264,-0.0288 -2.309593,-0.527199 -2.871191,8.458375 -2.906391,7.974376 z M 30.83902,27.944337 26.934231,31.823525 c -0.648798,0.644799 -0.741597,0.760798 -0.923197,1.157597 -0.254399,0.555998 -0.342399,1.485596 -0.216799,1.611995 0.403998,0.407999 1.834394,-0.582398 2.331993,-0.949597 4.359187,-3.21519 6.344781,-5.239984 7.049579,-9.402372 0.358399,-2.115994 -0.761598,-2.935192 -2.744792,-3.204791 -3.144791,-0.428799 -6.265581,0.0096 -7.487978,2.377594 0.1912,9.040773 0.459199,3.870388 3.126391,3.22879 2.967191,-0.713598 6.157581,-2.299993 2.769592,1.301596 z m 36.566098,-6.60514 -3.904788,3.879189 c -0.648798,0.644798 -0.741598,0.760798 -0.923198,1.157597 -0.254399,0.555998 -0.342398,1.485595 -0.216799,1.611995 0.403999,0.407999 1.834395,-0.582399 2.331993,-0.949597 4.359187,-3.215191 6.344781,-5.239985 7.049579,-9.402373 0.358399,-2.115994 -0.761598,-2.935191 -2.744792,-3.20479 -3.14479,-0.428799 -6.265581,0.0096 -7.487977,2.377592 0.191199,9.040774 0.459198,3.870389 3.12639,3.228791 2.967191,-0.713598 6.157582,-2.299993 2.769592,1.301596 z M 32.590558,12.844968 32.228159,5.9241885 c -0.0536,-1.026397 -0.0752,-1.204797 -0.211999,-1.786395 -0.419199,-1.783195 -1.547995,-2.759192 -2.728792,-3.38958998 -1.499995,-0.801598 -2.645592,-1.099197 -4.191987,0.0288 -1.271996,0.92799698 -1.391996,4.28798698 -0.891998,4.81278598 0.372799,0.391999 1.361596,0.356799 2.557593,0.076 2.987991,-0.701598 3.28719,-0.539999 4.065588,2.619992 0.369599,1.501595 0.413598,2.9079915 0.231999,4.4183865 -0.386399,3.206391 -1.294396,4.766386 0.483998,6.64878 0.740798,0.783998 1.513596,0.902398 3.202391,0.554399 1.199996,-0.2472 1.438396,-0.803998 1.941594,-2.465593 0.353599,-1.169596 0.633598,-2.217593 0.543198,-3.38399 -0.179999,-2.313593 -2.681592,-6.6623805 0.333599,-7.7423765 0.555999,-0.2 1.279197,-0.0696 1.903195,0.0664 0.840797,0.183199 0.983197,0.1 1.426395,-0.830398 0.364799,-0.765598 0.786398,-1.469596 1.017597,-2.293593 C 42.780928,0.16660552 41.448932,-0.70619248 38.77614,0.56020452 35.709749,2.0129995 34.332953,8.2369815 34.988151,12.409769 c 0.2,1.719995 0.419999,3.26879 0.419999,3.26879 0,0 -0.1832,-0.0024 -0.401599,-0.0232 -0.858397,-0.0848 -2.332793,-1.223996 -2.415993,-2.810391 z m 38.671628,12.652981 -5.199184,5.199185 5.199184,5.199184 5.199185,-5.199184 -5.199185,-5.199185 z M 60.707818,44.464292 c 0.555998,0.662398 0.887197,1.351996 0.578398,1.756795 -0.626398,0.820798 -3.818388,-0.941597 -4.552786,-1.398396 -0.237599,-0.147999 -0.445599,-0.285599 -0.577598,-0.640798 -0.012,-0.0328 -0.0232,-0.0664 -0.0344,-0.102399 -0.255199,-0.839998 0.1088,-1.235997 0.591198,-1.411196 0.295999,-0.1072 0.614398,-0.124 0.936797,-0.08 1.758395,0.239199 2.908792,1.697595 3.058391,1.875994 z M 80.04696,30.582734 c 0,0 -2.306393,4.135988 -2.933591,5.771983 -0.499199,1.299996 -0.304799,3.423989 1.076797,5.593583 0.499198,0.783198 1.118396,1.351996 1.183996,2.422393 0.0176,0.287999 0,0.616798 0,0.616798 0,0 -5.691983,0.764797 -8.550374,1.233596 -1.383196,0.226399 -2.102394,0.383199 -2.688792,0 -1.167997,-0.765598 -2.024794,-4.850385 -3.765589,-7.399978 -2.191193,-3.21039 -4.382387,-4.578386 -7.193578,-2.055194 -2.174394,1.950395 -6.112782,11.410366 -3.905589,14.387957 0.496799,0.669598 1.393596,1.123197 2.260794,1.643995 0.199999,0.12 0.398398,0.2432 0.620798,0.310399 0.299999,0.0912 0.456798,0.1008 1.566395,0.1008 0,0 3.603989,0 5.118385,0 2.258393,0 1.736794,0.506399 1.143996,1.455196 -1.517595,2.429593 -3.28559,3.19519 -6.043182,4.524786 -0.467198,0.2248 -0.935197,0.439999 -1.404795,0.643198 -5.480784,2.372793 -16.134352,3.631989 -16.211152,-6.146381 -0.0272,-3.49919 -0.606398,-6.547981 -1.477595,-1.961594 -2.375193,12.491162 2.303993,22.118333 16.989549,14.613556 2.233593,-1.141597 4.760785,-2.553593 5.791982,-3.166391 1.347996,-0.799997 2.297593,-1.455995 2.892792,-2.187993 1.713595,-2.106394 2.159993,-6.460781 3.495989,-7.731177 0.531199,-0.504798 5.867983,-1.029597 8.893574,-1.481596 1.333596,-0.199199 2.522392,-0.671998 3.512789,-1.561595 0.889597,-0.799997 3.116791,-4.998385 3.37119,-6.353581 0.281599,-1.506395 0.1304,-2.612792 -0.511999,-4.623186 -1.011997,-3.16479 -3.23279,-8.649574 -3.23279,-8.649574 z m -31.162306,12.255502 -1.575196,-28.103915 1.643995,0 c 0,0 -1.005597,-4.295987 -1.398396,-8.5087755 -0.292799,-3.135991 -0.245599,-6.225580976622 -0.245599,-6.225580976622 0,0 -3.15439,3.407989976622 -4.111187,4.867984976622 -1.169597,1.786395 -0.1584,4.687986 0.616798,6.9887795 0.497598,1.474396 2.041594,28.179116 1.850394,31.982304 -0.202399,4.011988 -0.460798,8.388775 -0.460798,8.388775 0,0 1.507195,-1.607195 2.310393,-2.962391 0.863197,-1.456795 0.912797,-2.623992 1.191196,-3.984788 0.223199,-1.090397 0.240799,-1.334396 0.1784,-2.442393 z M 0,68.97869 13.609559,68.578691 c 1.108797,-0.0328 1.303196,-0.0488 1.937594,-0.163999 0.470399,-0.0848 0.903198,-0.283999 1.341596,-0.488799 0.827998,-0.387199 2.219194,-1.191996 3.767989,-2.149593 2.686392,-1.660795 12.271163,-8.011976 14.524757,-11.560766 l 4.391186,-14.228757 c 0.0048,-0.219999 -0.0176,-0.431199 -0.0736,-0.631198 -0.2712,-0.965597 -1.675995,-2.327193 -1.644795,-3.49439 0.024,-0.877597 0.681598,-0.191999 1.470395,-0.791197 0.1928,-0.1464 0.1552,-0.445599 0.0664,-0.769598 -0.233599,-0.860797 -2.908791,-5.080785 -4.167188,-4.811186 -0.857597,0.184 -2.554392,4.327987 -2.713591,5.064785 -0.1528,0.704798 -0.1448,1.430396 0,2.203194 0.573598,3.050391 3.29599,6.847179 3.699988,9.422371 0.216,1.376796 -0.609598,1.819995 -2.815191,3.34079 -2.010394,1.387196 -3.558389,2.784792 -5.121585,4.023988 C 25.886322,55.435531 19.93594,58.96032 14.322357,61.807512 8.2599752,64.881902 0,68.97869 0,68.97869 z"/>
</svg>