<?xml version="1.0" encoding="UTF-8" standalone="no"?>
<svg>
  <path
     d="m 8.7286849,63.992794 -1.51875,0.0925 c -0.68375,0.0425 -0.8,0.035 -1.16875,-0.075 -0.66625,-0.1975 -1.505,-0.88875 -1.8275,-1.54875 -0.15625,-0.31875 -0.1775,-0.415 -0.21,-0.96125 l -0.075,-1.215 1.21625,-0.075 c 0.54625,-0.0325 0.64375,-0.0238 0.97875,0.0912 0.93625,0.32375 2.42875,1.9175 2.52125,2.325 0.13375,0.58375 0.0838,1.36625 0.0838,1.36625 z m 2.8637501,-10.37125 -0.14375,-1.2275 c 0,0 0.80375,-0.14125 1.3675,-0.0838 0.7175,0.0738 1.04625,0.4675 1.4775,0.845 2.52625,2.20625 5.805,3.07 4.38375,5.27875 -0.22875,0.355 -1.65125,1.82875 -2.91125,2.90875 -1.715,1.47 -2.77,1.80875 -2.6025,-0.0312 0.26125,-2.85625 -1.62875,-8.1875 -1.57125,-7.69 z m -8.6075001,7.08 c 0.485,2.955 1.38875,7.70125 0.94375,8.92375 -0.3275,0.90125 -0.99125,1.56625 -1.60125,2.36625 -2.54499996,3.33375 -2.91499996,7.24375 -1.53749996,11.73875 1.47124996,4.79875 6.63749996,2.79875 11.33875006,-0.1825 2.80125,-1.77625 9.6475,-6.64125 11.12875,-9.82375 0.0813,-0.17625 0.15875,-0.35625 0.23,-0.54125 -0.64375,-2.4575 -2.6425,0.065 -2.64875,0.0688 -7.6525,5.22875 -15.6775001,8.39375 -18.1812501,7.4125 -0.5575,-0.2175 -0.83625,-0.79875 -0.4875,-2.02875 0.22125,-0.77875 0.67375,-1.59 0.77625,-1.71375 1.12,-1.3525 3.445,-2.73 4.88125,-4.29875 0.9025,-0.9875 1.45375,-2.05 2.4062501,-2.72 1.205,-0.84875 3.0525,-1.06875 4.46875,-1.7025 3.66875,-1.64 6.4975,-6.08 6.84625,-9.5525 0.625,-6.225 -2.70625,-8.27625 -8.17,-12.0875 -0.73,-0.50875 -1.3175,-0.91125 -2.53,-0.98875 -1.2725001,-0.08 -3.2350001,0.1975 -3.2350001,0.1975 0,0 -0.0987,3.00125 0.315,5.1375 0.4625,2.38875 1.5675,3.69625 2.03875,5.29375 0.1037501,0.35625 0.1775001,0.72625 0.0512,0.85375 -0.1287502,0.1325 -0.4700002,0.009 -0.7962502,-0.1975 -2.56125,-1.62 -2.695,-3.93375 -4.73125,-2.89375 -1.12,0.5725 -1.635,1.9125 -1.72125,3.7475 -0.0562,1.17 -0.0337,1.47 0.215,2.99125 z m 82.6550101,-31.89 -8.5975,7.64625 8.5975,7.645 8.5975,-7.645 -8.5975,-7.64625 z m 46.298745,62.24375 c 0.235,2.89 1.75125,4.6875 4.51,5.20625 3.55875,0.66875 5.57,-1.0475 6.4825,-4.51875 0.2,-0.76125 0.155,-1.39625 -0.39625,-1.7025 -1.0475,-0.5825 -3.9275,0.0225 -5.31875,-0.635 -1.73125,-0.8175 -2.1725,-4.295 -1.74375,-5.92 0.42875,-1.62625 1.52125,-3.37 1.81875,-4.62375 0.06,-0.25375 0.0888,-0.4875 -0.0362,-0.6175 -0.015,-0.0162 -0.0312,-0.0325 -0.0475,-0.0462 -4.1875,-0.85 -5.20625,13.6375 -5.26875,12.8575 z m 5.7875,-78.17125 0,7.3475 c 0,0 3.17375,-4.25625 5.32375,-6.82125 1.64875,-1.96875 3.56625,-3.8862502 5.635,-4.4262502 1.13125,-0.29375 2.44375,-0.22375 3.46125,-0.57625 1.63625,-0.5675 3.235,-2.55 3.46,-4.51 0.1775,-1.53375 0,-3.85250001 0,-3.85250001 0,0 -1.30875,-0.10125 -2.30625,0 -1.58125,0.15875 -2.38125,0.82 -3.50875,1.29125001 -2.29125,0.9575 -5.93125,1.1275 -7.8375,2.17 -0.73375,0.40125 -1.21,0.93125 -1.8525,1.4625 -2.055,1.7 -7.07875,3.95625 -11.0775,5.6712502 -6.7075,2.87625 -23.2075,10.7175 -23.59625,17.66625 -0.055,0.98875 0,2.30625 0,2.30625 0,0 1.24125,0.11 2.3075,0 1.8525,-0.18875 5.77375,-4.51125 10.95875,-8.3625 4.325,-3.2125 19.0325,-9.36625 19.0325,-9.36625 z m -44.368745,10.14375 0,7.1175 c 0,1.5575 0.13375,1.785 1.33375,2.2825 1.91875,0.795 2.6575,1.53 3.06625,2.8025 0.19375,0.60375 0.215,0.84375 0.215,2.40125 0,0 0,0.2875 0,1.0525 0,2.20875 -3.3725,8.33 1.3275,2.105 3.203745,-4.24375 1.767495,-13.52 -2.84875,-17.05875 -0.235,-0.17875 -0.4875,-0.31875 -0.7625,-0.4025 -0.94125,-0.29 -2.33125,-0.3 -2.33125,-0.3 z m -80.28376,77.822496 c 3.4425,3.02875 7.8575,5.185 11.39375,3.80375 5.49125,-2.14375 9.815,-21.232496 10.74125,-23.753746 0.8125,-2.2125 4.32875,-6.71 6.4475,-8.2475 2.22875,-1.61625 5.31125,-3.46375 5.31125,-3.46375 0,0 -0.37625,3.5825 0,6.2225 1.07625,7.5575 9.87876,13.24875 15.93001,14.0675 0.29,0.0388 0.65,0.0638 1.07,0.0738 16.1775,0.41625 30.655,-4.32125 31.5425,-20.18375 0.002,-0.0375 0.004,-0.0725 0.006,-0.1075 0.17,-3.67875 -0.33625,-7.63875 -0.845,-11.43625 -0.2375,-1.77125 -0.37625,-2.0025 -1.39375,-2.315 -0.75375,-0.23125 -1.44125,-0.59625 -2.0825,-1.01375 -3.0075,-1.95125 -5.0275,-5.025 -8.03375,-6.56875 -0.2475,-0.12625 -8.47375,-2.3675 -11.01,-1.9975 -7.245,1.0575 -8.7425,15.135 -8.49625,18.87125 0.21,3.16375 1.3175,3.625 6.06875,4.5525 3.12375,0.61 7.18375,1.4475 10.01375,0.99 6.665,-1.08 8.8875,-4.47 10.4675,1.31875 0.65,2.38125 -0.05,2.825 -3.03375,3.63 -12.75,3.43875 -23.09625,5.57 -31.9,-2.54375 -0.7675,-0.70875 -1.255,-1.3625 -1.675,-2.48625 -1.4325,-3.83125 -2.07751,-13.115 -2.07751,-13.115 0,0 -2.69375,-0.2 -4.30875,0 -2.8975,0.35875 -8.585,5.48125 -9.725,6.5975 -2.31375,2.26375 -4.43875,5.59125 -5.69,8.9075 -2.4725,6.55875 -3.25375,22.3925 -12.74375,20.785 -1.875,-0.31875 -3.4975,-1.15375 -4.84625,-2.30625 -7.3262501,-6.25875 -7.2075001,-17.6775 -6.7012501,-21.5475 0.13375,-1.02875 0.3725,-2.0175 0.77625,-2.76375 0.0762,-0.1425 0.15875,-0.275 0.2475,-0.40125 0,0 -4.04125,1.1725 -4.04125,1.1725 0,0 0,1.8375 0,3.78 0,2.1825 0.055,4.18875 0.155,6.03625 0.5025,9.2625 1.9425,17.7325 8.4325001,23.442496 z m 67.91251,-77.728746 c -0.135,0.80875 -0.29125,2.52875 0,3.27625 0.93125,2.39125 9.22,-6.1025 12.68875,-8.3625 4.48375,-2.92375 9.577495,-4.6425 13.842495,-6.92125 0.3675,-0.1975 0.73,-0.39875 1.08125,-0.5425 1.005,-0.4125 1.9225,-0.36375 2.9875,-0.6275002 3.83625,-0.9525 5.98875,-3.06 6.60125,-4.88625 1.7975,-5.36250001 1.19625,-5.57375001 -2.9875,-4.61500001 -3.4,0.78000001 -16.022495,7.50750001 -21.524995,11.24750021 -2.21375,1.50375 -12.105,7.9225 -12.68875,11.43125 z m 36.114995,17.0275 -6.83625,6.03875 c -1.135,1.00375 -1.2975,1.18375 -1.615,1.8025 -0.445,0.865 -0.59875,2.3125 -0.38,2.50875 0.7075,0.635 3.21125,-0.90625 4.0825,-1.47875 7.63125,-5.00375 11.1075,-8.15625 12.34125,-14.63625 0.62625,-3.29375 -1.335,-4.56875 -4.805,-4.98875 -5.505,-0.66625 -10.96875,0.015 -13.1075,3.70125 0.33375,14.07375 0.80375,6.02625 5.4725,5.02625 5.19375,-1.11125 10.77875,-3.58 4.8475,2.02625 z m -43.922495,21.50875 c -0.14625,-0.07 -0.28625,-0.14375 -0.42,-0.22125 -1.2975,-0.74875 -2.73375,-2.7625 -2.27625,-3.89375 0.7275,-1.7975 3.94875,-2.9375 6.06875,-3.035 0.2775,-0.0125 0.57625,-0.02 0.87375,-0.0225 9.67375,2.30125 9.7575,4.03125 8.115,4.9775 -7.07625,4.08 -9.82875,3.40875 -12.36125,2.195 z m 38.276245,27.70125 c 1.8725,-3.57625 2.8325,-7.20875 4.26125,-11.64125 0.2,-0.61875 0.40375,-1.2325 0.4425,-1.87625 0.0525,-0.87 0.25625,-0.965 2.0375,-0.95375 13.28625,0.085 15.90125,0.47 23.48,-1.94875 3.91375,-1.24875 19.115,-8.97375 20.12375,-10.22625 0.8325,-1.03375 3.1075,-5.025 3.62875,-7.47 0.58375,-2.73875 0.66,-7.04625 0.66,-7.04625 0,0 -1.68625,-0.20625 -2.86375,0 -1.39,0.24375 -2.37375,1.52125 -3.405,2.63875 -5.0925,5.52625 -17.86,9.27125 -23.4225,5.60875 -3.5925,-2.36375 -6.2925,-6.3925 -7.25875,-10.6225 -0.5,-2.19125 1.15125,-2.24 5.8075,-2.90375 3.7325,-0.53125 6.34125,-1.0575 10.55625,-0.66 2.155,0.20375 4.81375,0.63 6.62375,0.9425 1.2925,0.22375 3.7375,-0.28 1.92375,-2.76875 -1.765,-2.41875 -6.4325,-5.35625 -8.67625,-6.835 -0.53,-0.35 -1.0775,-0.70625 -1.50875,-1.1825 -0.58125,-0.64125 -0.8425,-0.6975 -2.61875,-0.565 l -4.8675,0.36375 c -1.7775,0.13375 -2.0875,0.16875 -3.10625,0.3525 -4.25125,0.76875 -7.2475,4.165 -8.4225,7.05375 -1.85625,4.56375 -3.0175,9.305 -0.98875,14.305 0.62875,1.55125 1.5625,2.625 2.63875,5.16 0.855,2.0125 1.8,4.9475 1.8,4.9475 0,0 -3.91125,0.31375 -6.8675,0 -1.54,-0.1625 -8.51625,-4.39875 -9.77875,-5.9375 -2.92125,-3.56125 -7.23625,-9.5625 -9.89625,-5.27875 -0.6475,1.0425 -0.9375,2.5 -1.635,3.785 -0.907495,1.6725 -1.396245,1.89625 -1.334995,3.0775 0.08,1.535 2.182495,5.2775 4.238745,7.84375 3.7425,4.6725 6.65375,7.0175 8.14875,12.14125 0.0725,0.24625 0.13875,0.4925 0.1425,0.7475 0.006,0.3425 -0.13125,0.5225 -1.3775,1.79875 -1.76625,1.80875 -3.51625,3.54 -5.36875,5.23875 -9.823745,9.0075 -17.004995,11.3175 -29.262495,15.362496 -0.32,0.10625 -0.64625,0.2175 -0.97625,0.33375 -14.70375,5.2 -18.66375,8.79 -3.75875,8.7425 8.0725,-0.025 15.09625,-2.2025 20.8,-5.02125 4.6525,-2.29875 15.759995,-9.253746 20.081245,-17.506246 z"
     style="fill:#000000;stroke:none" />
</svg>
