<?xml version="1.0" encoding="UTF-8" standalone="yes"?>
<!-- Created with sK1/UniConvertor (http://sk1project.org/) -->
<svg xmlns="http://www.w3.org/2000/svg" xmlns:xlink="http://www.w3.org/1999/xlink"
  width="595.276pt" height="841.89pt" viewBox="0 0 595.276 841.89"
  fill-rule="evenodd">
  <path
     style="fill:#000000;stroke:none"
     d="m 115.8719,85.151481 c -0.413,2.582 0.09,3.216 1.80599,2.424 1.169,-0.54 16.25198,-9.31399 18.45498,-11.940994 0.888,-1.058 1.772,-2.93 2.085,-4.613992 0.192,-1.037 -0.119,-1 -1.236,-0.585 -2.588,0.962 -19.65298,11.349986 -20.18797,12.288986 -0.499,0.877 -0.819,1.786 -0.922,2.427 z m 74.99792,-71.129938 0.54,9.528992 2.544,46.56296 c 0,0 1.727,-1.731 2.762,-3.306 1.467,-2.233 1.544,-4.153992 1.985,-6.296992 0.347,-1.682 0.369,-2.057 0.227,-3.755 l -2.785,-33.220968 -0.265,-5.638992 c 0.277,0.152 0.541,0.289 0.789,0.412 l 4.28599,2.121 -0.81899,-2.254 c -0.092,-0.256 -0.191,-0.527 -0.29,-0.8 -1.189,-3.275 -1.848,-6.512992 -2.64,-9.8709924 -0.758,-3.213992 -1.768,-7.49599196 -1.768,-7.49599196 0,0 -0.715,-0.038 -1.374,0.056 -1.811,0.259 -5.678,6.02799196 -5.929,7.33899196 -0.024,0.124 -0.038,0.248 -0.043,0.371 -0.012,0.271 0.009,0.556 0.056,0.85 0.33,2.1120004 1.394,3.9150004 2.724,5.3979924 z m -58.70894,4.421 -0.159,-3.644 c -0.064,-1.472992 -0.043,-1.735992 0.213,-2.638992 0.189,-0.669 0.39,-1.402 0.897,-1.873 1.23799,-1.1500004 4.30199,-0.7520004 5.72299,-1.6990004 2.046,-1.364 2.047,-6.046992 0.473,-7.94499196 -1.669,-2.01300004 -5.044,1.18399996 -6.42599,3.01299996 -0.85,1.123 -1.654,2.410992 -2.015,3.912992 -0.168,0.697 -0.261,1.487 -0.392,2.18 l -0.642,3.3890004 -2.12,-2.698 c -2.90199,-3.8220004 -2.017,-4.9580004 -6.28199,-5.9979924 -1.429,-0.348 -4.52699,-0.218 -5.12299,1.390992 -0.466,1.259 0.628,4.3200004 1.31399,5.0470004 0.527,0.559 2.661,1.946 3.542,2.032 1.441,0.139 4.38399,-0.738 4.38399,-0.738 0,0 2.375,3.418992 3.826,5.023992 0.633,0.701 1.157,1.265 1.969,1.281 0.335,0.0056 0.818,-0.036 0.818,-0.036 z m 14.96798,26.046976 0.635,-0.012 c 0.286,-0.0048 0.363,-0.178 0.767,-1.738 2.324,-8.971992 2.748,-13.925984 -2.969,-19.679984 -0.941,-0.947 -2.038,-1.741992 -2.744,-0.893 -0.48,0.576 -0.96899,4.643 -0.75099,5.532 0.38199,1.553 1.51499,2.057 2.82399,3.111992 2.954,2.382 3.695,4.169 3.319,7.342 -0.288,2.434992 -1.081,6.336992 -1.081,6.336992 z m -23.56997,-5.424 c -0.047,-1.269992 -0.19,-2.864992 -0.608,-3.265992 -0.242,-0.233 -0.576,-0.064 -0.785,-0.19 -0.942,-0.565 0.66,-2.898 1.424,-3.789 6.93199,-8.092992 24.89797,-18.138984 34.38897,-20.217976 0.905,-0.198 1.80899,-0.358 1.97999,-0.052 0.085,0.153 -0.011,0.42 -0.157,0.722 -0.343,0.709 -0.89099,1.567992 -1.50099,2.487992 -12.641,19.087984 7.29899,-7.4029924 12.95698,-8.1469924 0.518,-0.255 1.004,-0.461 1.434,-0.597 2.202,-0.693 4.58699,-0.839992 4.87599,-2.950992 0.041,-0.296 0.047,-0.665 0.037,-1.023 -0.096,-3.457 -5.73899,-1.80299996 -9.71499,-0.291 -3.67999,1.4 -9.14498,3.706992 -14.94098,6.387992 -7.501,3.4700004 -29.95797,13.8869844 -33.11797,22.9339764 -1.018,2.916 -0.829,6.182 1.201,8.991992 0.087,0.12 0.166,0.229 0.238,0.327 -0.916,-1.244 2.485,3.988 2.289,-1.327 z m -28.069978,3.565 6.668988,-6.668992 -6.668988,-6.667992 -6.667992,6.667992 6.667992,6.668992 z m -6.559992,-25.396976 -0.048,0.544 -0.543,-0.048 c 0,0 1.96,-4.930992 2.393,-8.5599924 0.05104,-0.428 -0.754,-8.014992 -2.829,-9.01599196 -1.544,-0.745 -2.302,1.37899996 -2.677,3.04299996 -0.676,2.988992 -0.36,3.436992 0.676,5.195992 1.385,2.3510004 1.751,4.3480004 1.033,6.5839924 -1.259,3.922 -2.591,4.656 -2.552,8.544992 0.01504,1.481 0.117,1.7 1.023,2.187 1.721,0.926 5.817,1.358 6.706992,1.12 0.879,-0.234 3.993,-4.621 3.17,-7.033992 -0.265,-0.776 -2.031,-2.005 -3.741992,-2.333 -1.148,-0.22 -2.611,-0.228 -2.611,-0.228 z m 82.11092,59.969944 c -1.529,0.376004 -2.075,-1.462 -3.267,-2.752 -4.07799,-4.415992 -11.80798,5.323004 -14.33498,7.240994 -0.89,0.675 -1.781,1.216 -2.886,1.665 -2.355,0.958 -8.63399,2.321 -6.932,4.053 0.936,0.952 4.257,0.331 6.702,-0.405 1.757,-0.529 2.32,-0.703 3.684,-1.918 2.589,-2.306 8.50699,-7.813994 10.87499,-6.77899 1.197,0.524 1.936,2.76399 3.15199,3.56499 1.071,0.704 2.674,0.279 3.93,-0.671 0.899,-0.68 1.547,-1.60599 2.409,-1.79899 1.39699,-0.313 3.35499,1.30099 4.80599,1.25199 1.743,-0.058 4.065,-3.773994 3.896,-5.687994 -0.152,-1.707 -2.103,-5.985992 -3.597,-5.246992 -0.678,0.335 -1.209,1.552 -1.472,2.545992 -0.169,0.639 -0.227,1.185 -0.533,1.431 -0.518,0.414 -1.743,-0.032 -2.55199,0.291 -0.915,0.366 -1.296,1.719 -2.395,2.523 -0.476,0.348 -1.087,0.594 -1.485,0.692 z M 0,67.443535 5.507,77.733531 c 5.986992,11.17298 22.771976,12.97698 33.524968,12.87898 12.947984,-0.118 27.586976,-2.42399 35.294968,-4.70699 4.103992,-1.216 7.607992,-2.464 9.695984,-3.447 7.342,-3.45999 14.908992,-9.000994 12.440992,-16.292986 -0.817,-2.413992 -3.32,-2.945992 -6.601992,-2.828992 -2.297,0.082 -5.256,0.795992 -7.376992,0.998992 -0.597,0.05704 -1.129,0.074 -1.36,-0.119 -0.916,-0.765992 1.652,-1.936992 2.957992,-2.481992 2.383,-0.993 4.177,-1.88 6.395,-2.18 2.175992,-0.296 10.15498,1.022 15.20398,1.777 1.458,0.218 1.711,0.12 2.525,-0.979 1.305,-1.761 2.208,-2.529 3.176,-2.065 0.788,0.378 1.885,1.411 2.972,1.985 1.554,0.822 7.47899,1.95 8.37699,2.103 7.54999,1.29 20.35097,1.697992 26.56297,-2.867 0.956,-0.703 1.551,-1.43 2.287,-1.55 1.591,-0.26 4.024,2.53 6.547,3.13 1.29799,0.308 3.84799,-0.33 5.97399,-1.138 0.51,-0.194 0.957,-0.362 1.367,-0.493 l 3.82599,-1.226 7.30099,5.412 c 2.207,1.635992 3.955,2.924992 5.411,2.273992 1.355,-0.606 5.60399,-5.611992 5.53399,-8.284992 -0.014,-0.494 -0.046,-0.71 -0.321,-2.158 l -1.829,-9.600984 c -0.275,-1.448 -0.319,-1.649 -0.441,-2.01 -0.529,-1.573 -1.98299,-1.319 -3.12799,0.115 -0.902,1.129 -2.241,3.853992 -2.332,4.728992 -0.183,1.744 0.844,4.014 1.132,5.854 0.241,1.546992 -0.121,1.692992 -1.425,1.244992 -2.165,-0.742992 -6.16499,-3.316992 -6.84699,-4.404992 -0.918,-1.465 -1.295,-4.349 -3.427,-3.071 -1.267,0.76 -1.592,3.819 -2.98699,4.946 -1.527,1.233 -6.719,0.444 -8.11099,-1.258 -1.608,-1.967 -2.067,-5.830992 -4.409,-2.852 -0.738,0.939 -1.192,2.274 -1.917,3.121 -2.725,3.183992 -14.04399,3.554992 -16.79999,3.461992 -4.54899,-0.153 -15.44398,-1.251992 -18.49597,-4.083992 -2.506,-2.325 -3.231,-9.688992 -3.863,-14.352984 -0.198,-1.462 -0.263,-1.633 -0.65,-1.712 -1.353,-0.276 -1.884,0.275 -2.59,3.286992 -0.375,1.599 -0.545,3.131 -0.394,4.504 0.156,1.428 0.657,2.684 0.659,4.989992 0.002,2.304 -0.495,5.657 -0.495,5.657 l -14.070988,-2.214 c -1.456,-0.229 -1.78,-0.231 -3.243992,-0.02 -5.308,0.766 -12.915992,4.635992 -15.180992,9.668992 -0.548,1.218 -0.623,1.517 -0.751,2.984992 l -0.650992,7.441 c 0,0 1.881992,0.274992 3.915992,0.341992 5.472992,0.182 12.046992,-1.137992 12.046992,-1.137992 0,0 0.028,0.799 -0.114,1.305992 -0.185,0.662 -0.659,0.824 -1.188,1.047 -1.459,0.613 -3.332,1.678 -5.157,2.563 -14.942984,7.244994 -43.978952,9.654994 -59.668936,5.466994 -2.696,-0.72 -10.139992,-3.35499 -14.590992,-6.597994 L 0,67.443535 z m 165.57085,-46.185952 -0.152,1.740992 1.574,0.138 c 0.70699,0.062 0.85899,-0.036 1.51299,-0.979 1.201,-1.731992 1.823,-2.079992 3.45,-2.118992 0.354,-0.009 0.768,-0.01504 1.119,0.02104 2.228,0.223 1.042,2.775992 0.265,3.653992 -2.047,2.312 -6.78299,5.854 -7.57099,7.810992 -0.132,0.328 -0.211,0.664 -0.072,0.815 0.72,0.781 4.40399,-2.101992 4.49699,-2.175992 2.866,-2.299 7.86199,-6.594 9.24999,-10.870992 1.029,-3.167 -2.026,-4.155 -5.71099,-4.884 -3.037,-0.601 -4.86,0.551 -7.06999,3.766 -0.314,0.457 -0.592,0.92 -0.762,1.438 -0.229,0.698 -0.262,0.862 -0.33,1.645 z m -61.15995,62.003898 4.633,4.634 6.669,-6.669 -6.669,-6.667994 -4.633,4.633004 -4.633988,-4.633004 -6.668,6.667994 6.668,6.669 4.633988,-4.634 z" />
</svg>