<?xml version="1.0" encoding="UTF-8" standalone="yes"?>
<!-- Created with sK1/UniConvertor (http://sk1project.org/) -->
<svg xmlns="http://www.w3.org/2000/svg" xmlns:xlink="http://www.w3.org/1999/xlink"
  width="595.276pt" height="841.89pt" viewBox="0 0 595.276 841.89"
  fill-rule="evenodd">
  <path
     d="m 44.841931,16.064931 c 0.715999,5.797988 0.106,15.174969 0.522999,19.38196 0.432999,4.367992 2.038996,14.534971 2.994994,21.829948 0.121,0.921998 0.291,2.321995 0.442999,3.908992 0.229,2.388995 0.453999,5.587989 0.304,7.986984 -0.07,1.105998 -0.218,2.031996 -0.477999,2.637995 -0.665999,1.551996 -1.686997,2.922994 -1.479997,3.229993 0.414999,0.615999 1.712996,-1.242997 2.784994,-3.034994 5.18599,-8.560982 1.935996,-19.39496 1.820996,-22.462946 -0.174999,-0.741999 -0.364999,-1.552997 -0.568999,-2.487995 -1.116997,-5.12699 -1.343997,-12.841974 -2.048995,-19.77996 -0.306,-3.013994 -0.178,-5.605989 0.190999,-6.484987 1.127998,1.058998 2.239996,2.045996 3.169994,2.856994 l 1.590997,1.385998 -0.159,-1.290998 c -0.179,-1.454997 -0.964998,-4.521991 -2.721995,-10.316979 -0.750998,-2.476995 -1.926996,-5.5799881 -2.352995,-5.9399881 -0.429999,-0.363999 -1.059998,-0.286999 -1.667996,0.203 -0.211,0.169 -0.441999,0.384999 -0.727999,0.569999 -2.521995,1.629997 -4.387991,2.7309941 -2.969994,5.7349881 0.294,0.622999 0.764999,1.325997 1.352997,2.071996 z m 50.2949,0 c 0.716998,5.797988 0.106,15.174969 0.522999,19.38196 0.432999,4.367992 2.039996,14.534971 2.995994,21.829948 0.119999,0.921998 0.290999,2.321995 0.441999,3.908992 0.228999,2.388995 0.453999,5.587989 0.303999,7.986984 -0.06904,1.105998 -0.216999,2.031996 -0.476999,2.637995 -0.665998,1.551996 -1.686996,2.922994 -1.480997,3.229993 0.414999,0.615999 1.713997,-1.242997 2.785994,-3.034994 5.18598,-8.560982 1.936,-19.39496 1.821,-22.462946 -0.175,-0.741999 -0.366,-1.552997 -0.569,-2.487995 -1.117,-5.12699 -1.345,-12.841974 -2.049998,-19.77996 -0.305999,-3.013994 -0.176999,-5.605989 0.192,-6.484987 1.126998,1.058998 2.239998,2.045996 3.169998,2.856994 l 1.59098,1.385998 -0.15999,-1.290998 c -0.179,-1.454997 -0.965,-4.521991 -2.72099,-10.316979 -0.751,-2.476995 -1.926998,-5.5799881 -2.352997,-5.9399881 -0.429999,-0.363999 -1.059998,-0.286999 -1.667997,0.203 -0.211999,0.169 -0.441999,0.384999 -0.727998,0.569999 -2.521995,1.629997 -4.387991,2.7309941 -2.969994,5.7349881 0.293999,0.622999 0.764998,1.325997 1.351997,2.071996 z m -58.992882,-1.113998 -4.258991,4.230991 c -0.707999,0.702999 -0.807999,0.829999 -1.005998,1.262998 -0.277,0.605999 -0.373,1.619997 -0.237,1.757996 0.440999,0.444999 2.000996,-0.635998 2.543995,-1.035998 4.75399,-3.505993 6.919986,-5.714988 7.687984,-10.254978 0.391,-2.3079961 -0.830998,-3.2009941 -2.992993,-3.4949931 -3.429994,-0.467999 -6.833987,0.01 -8.166984,2.5929941 0.208,9.85998 0.500999,4.221992 3.409993,3.521993 3.235994,-0.778998 6.715987,-2.508995 3.019994,1.418997 z M 14.401001,-3.6104905e-5 8.3874134,6.0139509 14.401001,12.026939 20.414989,6.0139509 14.401001,-3.6104905e-5 z m 0,18.137963104905 4.87899,4.87899 6.013988,-6.013988 -6.013988,-6.013988 -4.87899,4.87899 -4.8786939,-4.87899 -6.0136853,6.013988 6.0136853,6.013988 4.8786939,-4.87899 z m 73.947844,68.438856 c 0.173999,2.39799 1.291997,3.88899 3.326993,4.31899 2.624995,0.555 4.109992,-0.868 4.78199,-3.74799 0.148,-0.631 0.115,-1.158002 -0.291999,-1.412002 -0.772999,-0.482999 -2.896994,0.018 -3.923992,-0.526999 -1.276998,-0.677998 -1.601997,-3.562992 -1.285998,-4.91099 0.316,-1.349997 1.122998,-2.794994 1.341998,-3.834992 0.044,-0.210999 0.06504,-0.404999 -0.02696,-0.512999 -0.01104,-0.014 -0.02304,-0.02704 -0.03504,-0.03904 -3.088994,-0.703998 -3.839992,11.313982 -3.886992,10.665982 z M 58.592903,32.262898 c -0.961998,0.816998 -1.875996,1.621997 -2.725994,2.404995 L 55.60291,40.81888 c 0.795998,-0.820998 1.638996,-1.679996 2.440995,-2.475994 0.387999,-0.386 0.977998,-0.920999 1.723996,-1.566997 11.039978,-9.560981 11.351977,-8.916982 24.203953,-15.702968 2.659994,-1.403998 4.979989,-2.628995 4.979989,-2.628995 l 0.638999,-3.058994 c 0.04704,-0.227999 0.091,-0.470999 0.131,-0.733998 0.324999,-2.117996 0.096,-2.599995 -1.730997,-1.980996 -1.124997,0.380999 -2.519994,1.032998 -4.084991,1.869996 -4.841992,2.588995 -11.493979,7.192985 -16.428969,10.770978 -7.561984,5.480989 -7.171985,5.496989 -8.883982,6.951986 z m 3.025994,8.608982 c -0.962998,0.817999 -1.876996,1.621997 -2.726994,2.404996 l -0.263,6.151987 c 0.795999,-0.821998 1.637997,-1.679997 2.439995,-2.476995 0.389,-0.384999 0.977998,-0.920998 1.723997,-1.566997 11.040978,-9.55998 11.351977,-8.916982 24.203952,-15.701968 2.660995,-1.404997 4.97999,-2.628995 4.97999,-2.628995 l 0.638999,-3.058993 c 0.048,-0.228 0.092,-0.471999 0.132,-0.733999 0.324999,-2.118996 0.096,-2.599995 -1.731997,-1.980996 -1.123997,0.379999 -2.518995,1.031998 -4.083991,1.868996 -4.841991,2.589995 -11.493979,7.193986 -16.429969,10.770978 -7.561984,5.481989 -7.170985,5.497989 -8.882982,6.951986 z m 9.87698,-16.264967 -0.148999,-3.427993 c -0.06104,-1.384997 -0.04104,-1.632996 0.199999,-2.481995 0.178,-0.629998 0.366999,-1.318997 0.843998,-1.761996 1.164998,-1.081998 4.046992,-0.707999 5.38399,-1.598997 1.923996,-1.282997 1.925996,-5.6879881 0.444999,-7.4739841 -1.569997,-1.892996 -4.744991,1.113997 -6.045988,2.8349941 -0.798998,1.055998 -1.554997,2.267995 -1.894996,3.680992 -0.158,0.654999 -0.245,1.398997 -0.369,2.049996 l -0.603998,3.187994 -1.993996,-2.537995 c -2.729995,-3.594993 -1.897996,-4.663991 -5.909988,-5.640989 -1.343998,-0.327999 -4.258992,-0.204999 -4.81899,1.307998 -0.438,1.183997 0.590998,4.063991 1.235997,4.74799 0.494999,0.525999 2.502995,1.829996 3.331993,1.910996 1.354998,0.131 4.123992,-0.694999 4.123992,-0.694999 0,0 2.234995,3.216994 3.599993,4.726991 0.594998,0.658998 1.087997,1.189997 1.851996,1.204997 0.314999,0.0056 0.768998,-0.034 0.768998,-0.034 z m -51.101888,60.49087 c 0.03704,-0.098 0.081,-0.205 0.131,-0.304 0.454999,-0.911998 1.355997,-1.187997 2.119995,-1.628996 0.895999,-0.518999 1.570997,-1.230998 2.002996,-2.049996 1.483989,-2.804995 0.671999,-5.477989 -1.614996,-5.437989 -0.164,0.0032 -0.302,0.0048 -0.417,0.0072 -2.493994,0.620998 0.353,-2.718995 0.576999,-3.146994 1.001998,-1.915996 2.069996,-3.531993 -1.136997,-2.474995 -2.220996,0.731999 -4.069992,2.994994 -4.99399,5.23399 -1.356997,3.285993 -1.153998,4.393991 2.241995,4.69799 0.773999,0.06904 1.331998,0.256999 0.737999,0.902998 -2.085996,2.269996 -4.86299,5.534992 -3.675993,7.704982 2.642995,4.833 11.660969,1.199 14.402963,-0.52899 2.744994,-1.730003 5.203989,-3.945998 7.066986,-5.629995 0.07704,-0.07 0.154999,-0.14 0.231999,-0.21 1.012998,-0.914998 3.825992,-3.489992 3.069994,-4.311991 -0.613999,-0.666998 -2.257996,0.536999 -3.748992,1.895996 -3.562993,3.246994 -4.646991,4.670991 -9.544981,5.541989 -0.104,0.018 -0.21,0.036 -0.316999,0.054 -0.197,0.03296 -0.4,0.06496 -0.608999,0.096 -3.031986,0.448999 -6.998978,0.852001 -6.523979,-0.410999 z m 50.43089,-36.372919 0.026,-0.854998 1.158997,-0.131 c 0.177,-0.02104 0.386999,-0.01104 0.594999,0.014 1.146998,0.142 5.337989,2.089996 5.550989,3.323994 0.089,0.517991 0.02104,1.242989 0.02104,1.242989 0,0 -1.755997,0.196 -2.941994,0.05104 -0.924998,-0.113 -4.146992,-1.730988 -4.360991,-2.825986 -0.05096,-0.261 -0.056,-0.572999 -0.04904,-0.819999 z M 49.977921,90.602773 c 0.046,0.014 0.092,0.028 0.139,0.042 6.628986,2.026 17.558964,-4.721992 24.143951,-9.522982 8.370984,-6.101988 10.215981,-10.353979 13.358974,-20.193959 1.294998,-4.054992 1.322997,-8.023984 0.632999,-9.867972 -0.585999,-1.563997 -7.468985,-10.18698 -8.733984,-10.940978 -4.97299,-2.964994 -8.799982,-0.967998 -11.297977,5.896988 -2.770994,7.617976 -3.488993,13.267965 2.861994,15.49596 2.344995,0.823999 4.404991,0.661999 7.553985,-0.111999 2.713996,-0.666999 4.184993,-1.246998 4.865991,-0.881998 0.563999,0.303999 0.968999,3.239993 0.592999,4.311991 -1.065998,3.043994 -9.688982,8.906982 -14.818971,12.000975 -3.409993,2.056996 -7.234986,3.932992 -11.280977,5.725989 -13.443973,5.958995 -17.293965,5.228995 -8.017984,8.045985 z m -49.92579223,-8.575984 0.59889878,8.987984 0.82929835,-0.015 c 0.3725992,-0.006 0.4498991,-0.158 0.7729984,-1.521 3.2377934,-13.653972 8.5606837,-21.059957 19.0956627,-29.917939 2.253995,-1.895996 4.561983,-3.495992 7.429977,-4.79399 5.03299,-2.276995 7.075986,-2.407995 8.035984,-5.408981 0.343999,-1.076998 0.612998,-2.508995 0.933998,-3.955992 0.06504,-0.295999 0.945998,-5.372989 0.945998,-5.372989 0,0 -0.312,0.119 -0.889998,0.339999 -0.444999,0.169 -0.860999,0.331 -1.250998,0.486999 -4.65699,1.858997 -11.698968,7.178986 -16.054959,9.618981 -0.790999,0.442999 -1.110998,0.621999 -1.110998,0.621999 l -5.06099,-3.656993 C 11.690007,45.533911 7.1015137,42.896916 5.2134183,40.668921 4.6622194,40.017922 4.3098201,39.326924 4.0432207,38.566925 3.6838214,37.541927 3.6817214,37.392927 4.0219247,37.080928 4.9713228,36.21093 8.3262175,35.214932 8.4858172,35.169932 c 2.6361948,-0.736999 5.3851888,-1.104998 8.8021818,-1.148998 6.566987,-0.085 13.190966,0.790999 12.393967,-1.759996 C 28.601968,28.804945 23.572987,26.23995 21.112992,25.880951 15.057004,24.996953 6.2235194,26.23295 2.4784278,32.424938 0.50643184,35.684931 0.37053212,41.20492 1.0498307,44.386913 c 1.2474975,5.843988 3.2941934,6.804986 8.5611842,10.71497 4.1639911,3.090994 1.4089971,4.020992 -2.1819979,8.587983 -2.2783946,2.898994 -6.61058578,11.899976 -7.20688458,15.250969 -0.2459995,1.381997 -0.26299946,1.689997 -0.16999965,3.085994 z"
     style="fill:#000000;stroke:none" />
</svg>