<?xml version="1.0" encoding="UTF-8" standalone="yes"?>
<!-- Created with sK1/UniConvertor (http://sk1project.org/) -->
<svg xmlns="http://www.w3.org/2000/svg" xmlns:xlink="http://www.w3.org/1999/xlink"
  width="595.276pt" height="841.89pt" viewBox="0 0 595.276 841.89"
  fill-rule="evenodd">
  <path
     d="m 115.09808,34.893311 0.468,-4.916003 c -0.179,0.04904 -0.356,0.068 -0.529,0.046 -0.974,-0.124 -2.071,-0.951001 -1.917,-2.302002 0.048,-0.416 0.169,-0.566 1.212,-1.501001 4.893,-4.389002 19.30301,-11.819007 25.24101,-14.055008 1.73501,-0.654001 9.00602,-3.4050024 9.31802,-2.8470024 0.525,0.9370014 -0.518,6.5900044 -0.518,6.5900044 0,0 4.549,-6.0240044 7.765,-8.4020134 2.732,-2.020001 7.38001,-0.77 7.76501,-5.260003 0.083,-0.977001 0,-2.24600096709 0,-2.24600096709 l -2.21,0 c -0.993,0 -1.25,0.0519999971 -2.56501,0.52499999709 -24.41502,8.76301297 -26.96202,8.61401297 -42.15503,18.10701937 -5.574,3.483002 -7.958,7.500004 -5.87,14.849009 0.374,1.317001 1.738,3.554002 2.795,2.754002 0.34,-0.257 0.796,-0.807001 1.2,-1.342001 z m 9.39301,-25.6620164 c 0.514,-0.937009 2.647,-0.750009 4.086,-1.208009 1.999,-0.635 2.924,-2.983001 3.106,-5.124003 0.102,-1.206 0,-2.89900096709 0,-2.89900096709 0,0 -1.155,0.0339999971 -2.037,0.14099999709 -1.525,0.184 -2.232,0.584 -3.053,1.30399997 -1.003,0.879001 -1.88,1.826002 -2.68201,2.606002 l -2.64,2.568002 -1.721,-1.847001 c -0.558,-0.599001 -1.143,-1.370001 -1.844,-1.925002 -1.798,-1.425001 -6.064,-2.08200097 -7.246,0.083 -0.216,0.394001 -0.371,0.848001 -0.474,1.330001 -0.42,11.5390154 3.112,5.628011 7.561,6.6370124 6.96001,1.580001 0.089,10.840007 6.94401,-1.6660014 z M 86.678062,43.875316 81.796059,48.724319 c -0.811001,0.806001 -0.926001,0.950001 -1.153001,1.447001 -0.318,0.695001 -0.428,1.857001 -0.272,2.014002 0.506,0.511 2.293001,-0.728001 2.916002,-1.187001 5.449003,-4.018003 7.931005,-6.549004 8.812005,-11.753007 0.448,-2.645002 -0.953001,-3.668003 -3.431002,-4.006003 -3.931003,-0.535 -7.833005,0.012 -9.360006,2.972002 0.238,11.301007 0.574,4.839003 3.908003,4.037002 3.709002,-0.893 7.697004,-2.875001 3.462002,1.627001 z M 101.82507,8.8172946 96.943068,13.667298 c -0.811,0.805 -0.926001,0.95 -1.153001,1.446001 -0.318,0.695 -0.428,1.857001 -0.272,2.015001 0.506,0.51 2.293002,-0.728001 2.916002,-1.187001 5.449001,-4.018002 7.931001,-6.5500044 8.812001,-11.7530154 0.448,-2.645001 -0.953,-3.66900197 -3.431,-4.00600197 -3.931,-0.535001 -7.833003,0.012 -9.360003,2.97200197 0.238,11.3010144 0.574,4.839003 3.908002,4.036002 3.709001,-0.892001 7.697001,-2.875002 3.462001,1.627009 z M 78.456057,16.056299 78.003056,7.4052856 c -0.068,-1.283001 -0.094,-1.506001 -0.265,-2.233001 -0.525,-2.229002 -1.936001,-3.449002 -3.411002,-4.23700297 -1.875001,-1.002 -3.307002,-1.374001 -5.240003,0.03696 C 67.49705,2.1312426 67.34705,6.3312446 67.97205,6.9872456 c 0.466,0.49 1.702001,0.446 3.197002,0.095 3.735002,-0.877001 4.109003,-0.675 5.082003,3.2750104 0.462001,1.877001 0.517001,3.635002 0.289,5.523003 -0.483,4.009003 -1.617001,5.958004 0.606001,8.312005 0.926,0.979001 1.892001,1.127001 4.003002,0.692001 1.500001,-0.308001 1.798001,-1.005001 2.426002,-3.082002 0.443,-1.462001 0.793,-2.772002 0.68,-4.229003 -0.225,-2.893002 -3.352002,-8.3290054 0.416,-9.6790144 0.696001,-0.249 1.600001,-0.087 2.380002,0.083 1.051001,0.228999 1.229001,0.124999 1.783001,-1.038001 0.455,-0.957001 0.982001,-1.837001 1.272001,-2.866002 1.087,-3.86500197 -0.578001,-4.95600297 -3.918003,-3.37300197 -3.833002,1.81600097 -5.554003,9.59601437 -4.736003,14.81201737 0.251001,2.150001 0.526001,4.086002 0.526001,4.086002 0,0 -0.229,-0.0016 -0.502001,-0.02896 -1.073,-0.106 -2.916001,-1.530001 -3.020001,-3.513002 z m 63.081043,54.695034 -4.63401,4.633003 6.21201,6.212007 6.21201,-6.212007 -4.634,-4.633003 4.634,-4.634003 -6.21201,-6.212004 -6.21201,6.212004 4.63401,4.634003 z m -5.56301,-48.11203 2.588,0 c 0,0 0.067,1.030001 0,1.729001 -0.08,0.841001 -0.71,1.458001 -1.294,1.377001 -0.6,-0.083 -1.228,-0.861 -1.294,-1.864001 -0.036,-0.543 0,-1.242001 0,-1.242001 z m -4.869,1.087001 c -0.25,3.156002 0.741,4.070002 0.822,4.203003 0.516,0.849 1.15,1.665001 1.15,1.665001 0,0 -2.317,1.791001 -4.41,3.025001 -3.164,1.867002 -6.09901,3.192002 -6.41101,3.996003 -0.081,0.211 -0.52,2.362001 -0.258,2.589002 0.215,0.187 0.736,0.105 1.104,0.06304 0.343,-0.03896 0.543,-0.084 1.057,-0.289001 7.06901,-2.829001 14.19001,-7.588004 16.93102,-15.236009 0.519,-1.449001 0.703,-2.811002 0.578,-4.561003 -0.057,-0.793 -0.125,-1.443001 -0.874,-1.933001 -0.318,-0.209 -0.76001,-0.39 -1.24201,-0.542 -4.044,-1.282001 -6.369,1.575001 -7.393,3.265002 -1.131,1.867001 -1.189,5.451003 -1.054,3.755002 z m -5.148,28.048017 0,0.553001 c 0,0 -1.233,0.116 -2.07001,0 -0.799,-0.111 -1.237,-0.434001 -1.778,-0.799001 -0.73,-0.493 -0.811,-0.589 -0.811,-0.961 l 0,-0.829001 c 0,0 1.373,-0.178 2.247,0 0.80301,0.165 1.18401,0.63 1.67601,1.083001 0.663,0.61 0.736,0.705 0.736,0.953 z m 28.96402,-36.032022 c -1.87,2.334001 -2.962,5.850004 -2.767,7.457005 0.293,2.407001 1.889,5.159003 2.329,7.745004 0.335,1.964002 -0.374,5.331004 -0.776,8.250006 -0.302,2.192001 1.74,21.374013 3.106,31.214019 0.327,2.358001 0.518,4.750003 0,6.843004 -0.292,1.181996 -1.354,3.593006 -1.035,4.131006 0.179,0.303 0.765,0.267 1.242,0 1.838,-1.028 4.20701,-11.694011 4.64601,-13.750012 0.291,-1.368001 0.304,-1.674001 0.13,-3.061002 0,0 -3.75501,-29.965018 -3.75501,-29.965018 -0.163,-1.307001 -0.115,-1.537001 0.527,-1.707001 5.96101,1.355 5.66201,0.479 4.44001,-0.991001 -2.583,-3.109002 -2.87,-5.447003 -3.78001,-9.425006 -0.953,-4.164002 -2.336,-9.199006 -4.307,-6.741004 z M 0,50.28932 9.628006,61.279327 c 6.159004,7.031005 24.467015,12.031008 31.86502,12.858008 18.351011,2.051001 39.334032,-2.169001 55.146042,-9.628006 5.973002,-2.817002 7.504002,-4.717003 9.885002,-11.233007 1.478,-4.047002 3.51001,-9.688006 1.72701,-13.430008 -0.82001,-1.721001 -2.42601,-3.517002 -2.02101,-3.918002 0.664,-0.659001 2.44601,0.426 1.797,-1.805002 -0.316,-1.087 -1.484,-1.943001 -2.595,-3.701002 -1.79,-2.835002 -3.429,-8.013005 -3.429,-8.013005 0,0 -2.207,2.572002 -3.552001,4.571003 -3.388002,5.034003 -1.772001,6.047004 1.844001,12.028007 1.615,2.671002 5.412,10.354007 4.626,12.477008 -1.314,3.551002 -13.270005,7.534005 -16.047007,8.365005 C 79.552057,62.640328 71.058052,64.626329 62.833047,65.50433 46.416029,67.256331 23.032014,62.708328 8.5970053,54.587323 3.296002,52.012321 0,50.28932 0,50.28932 z m 87.613062,18.884012 -6.212004,6.211004 6.212004,6.212007 6.212004,-6.212007 -6.212004,-6.211004 z m 43.210028,-7.306004 c 0.829,1.117 1.02,1.706001 0.665,2.484001 -1.043,2.288002 -9.49501,8.037005 -11.78601,9.397006 -5.357,3.180002 -17.74101,8.268008 -22.992012,9.120008 -2.755002,0.447 -6.305004,0.989 -7.506005,1.812 -0.579,0.396 -0.722,0.733 -0.275,1.306 0.833001,1.07 6.833004,2.40701 8.040005,2.57601 9.664002,1.349 22.544012,-6.32301 29.506022,-11.647016 4.687,-3.585002 3.956,-4.931003 5.445,-10.596007 0.721,-2.743001 2.003,-5.706003 3.942,-6.891004 1.535,-0.939001 3.879,-1.100001 5.23501,-2.176001 0.796,-0.632001 3.98901,-9.621006 4.38701,-11.681008 0.414,-2.144001 -0.087,-3.469002 -1.15001,-6.185003 -1.029,-2.627002 -2.208,-5.573004 -3.624,-7.248005 -0.48601,-0.575 -0.85901,-0.788 -1.50101,-0.517 -0.698,0.294 -2.23,3.732002 -2.381,5.342003 -0.106,1.125001 -0.067,4.166003 0.517,5.183003 0.542,0.943001 1.697,1.522001 2.33,2.416002 0.567,0.801 1.03601,2.975002 0.88901,4.260002 -0.101,0.891001 -0.24501,1.054001 -1.44001,1.629002 -1.638,0.789 -4.058,1.124 -4.543,0.84 -1.258,-0.736 -1.888,-4.364003 -3.189,-6.211004 -1.896,-2.695001 -7.10901,-4.478003 -9.23401,-3.624002 -3.274,1.316001 -4.132,5.124003 -5.26,9.318006 -1.194,4.443002 -1.26,6.263004 1.41,8.902005 3.083,3.047002 4.182,2.289002 10.42001,1.617001 1.392,-0.15 1.601,-0.092 2.095,0.574001 z"
     style="fill:#000000;stroke:none" />
</svg>