<?xml version="1.0" encoding="UTF-8" standalone="no"?>
<svg>
  <path
     d="m 49.023838,100.15142 c 0,0 -0.12371,0.0113 -0.30365,0.0262 -5.59937,0.49109 -5.72933,-3.16269 -5.09829,-7.72366 0.20493,-1.477 0.49983,-2.84404 0.66603,-3.76499 0.12245,-0.68227 0.20993,-1.13212 0.20993,-1.13212 0,0 -0.42861,-0.0425 -0.70852,0 -0.29865,0.0437 -0.59605,0.52608 -0.8722,1.21335 -1.39079,3.46384 -4.51099,16.90058 2.74158,16.88934 1.35579,-0.002 3.73999,-0.0387 4.24357,-1.25333 0.44735,-1.07589 1.87437,-4.36604 -0.39361,-4.28857 -0.12746,0.004 -0.28491,0.0163 -0.48484,0.0337 z M 119.9788,57.17833 c -0.4536,2.83655 0.0987,3.53381 1.98433,2.66286 1.28457,-0.59355 17.85402,-10.23157 20.27446,-13.11811 0.97467,-1.16211 1.94684,-3.21892 2.29048,-5.0683 0.21118,-1.13961 -0.13121,-1.09838 -1.3583,-0.64228 -2.84279,1.05715 -21.58901,12.46832 -22.17756,13.49922 -0.54857,0.96343 -0.8997,1.9631 -1.01341,2.66661 z m -75.784592,-38.26842 -0.1637,-3.73625 c -0.0662,-1.50949 -0.0437,-1.78065 0.21868,-2.70534 0.19368,-0.68602 0.39986,-1.43702 0.91969,-1.92061 1.26957,-1.17835 4.41102,-0.77099 5.86803,-1.74191 2.09805,-1.39828 2.0993,-6.20042 0.48484,-8.14727 -1.71068,-2.06306 -5.17077,1.21459 -6.58904,3.09021 -0.87096,1.15212 -1.69568,2.47167 -2.06681,4.01241 -0.17119,0.71351 -0.26616,1.52449 -0.40111,2.23425 l -0.65853,3.47508 -2.17302,-2.76657 c -2.97651,-3.91869 -2.06806,-5.08329 -6.44159,-6.14919 -1.46451,-0.35738 -4.6422,-0.22367 -5.25199,1.42577 -0.47734,1.29082 0.64353,4.42977 1.34704,5.17577 0.53982,0.57231 2.72784,1.99433 3.63129,2.0818 1.477,0.1437 4.49474,-0.756 4.49474,-0.756 0,0 2.43543,3.50633 3.92369,5.15203 0.64853,0.71851 1.18585,1.29706 2.01807,1.31206 0.34363,0.007 0.83972,-0.0362 0.83972,-0.0362 z m -8.8208,21.14541 c -0.0475,-1.30206 -0.19493,-2.93776 -0.62229,-3.34888 -0.24866,-0.23867 -0.59105,-0.065 -0.80598,-0.19368 -0.96592,-0.57981 0.67728,-2.97151 1.46076,-3.8862 7.10762,-8.29722 25.52769,-18.59876 35.26068,-20.7293 0.92719,-0.20368 1.85438,-0.36738 2.02932,-0.0537 0.0875,0.1562 -0.0113,0.4311 -0.16119,0.73975 -0.35114,0.72726 -0.91345,1.60821 -1.53824,2.55165 -12.9619,19.57218 7.48374,-7.58996 13.28555,-8.35345 0.52982,-0.26117 1.0284,-0.47235 1.4695,-0.6123 2.258,-0.70976 4.70343,-0.86096 4.99958,-3.02523 0.0412,-0.30365 0.0475,-0.68228 0.0375,-1.0484 -0.0987,-3.54631 -5.88428,-1.84938 -9.96042,-0.29865 -3.77373,1.43452 -9.37685,3.79997 -15.31986,6.5503 -7.69117,3.55756 -30.71595,14.23773 -33.95611,23.51462 -1.04465,2.989 -0.85097,6.33787 1.23083,9.21941 0.0887,0.1237 0.16995,0.23492 0.24367,0.33488 -0.93843,-1.27582 2.5479,4.08988 2.34671,-1.36079 z M 15.668768,11.01881 9.5695642,17.07802 c -1.013661,1.00717 -1.157737,1.18711 -1.441392,1.80815 -0.397117,0.86846 -0.534571,2.32047 -0.339386,2.51665 0.631788,0.63854 2.8655418,-0.90969 3.6430318,-1.48325 6.80859,-5.02082 9.91005,-8.1835 11.01218,-14.68632 0.55856,-3.30515 -1.19085,-4.58347 -4.28731,-5.00583 -4.91336,-0.66852 -9.7880968,0.0163 -11.6964568,3.71376 0.2979,14.12276 0.717385,6.04672 4.8833668,5.04456 4.63507,-1.11588 9.6184,-3.59255 4.32517,2.03307 z m 69.2093,20.71805 -6.09921,6.05922 c -1.01341,1.00716 -1.15836,1.1871 -1.44201,1.80814 -0.39612,0.86846 -0.53358,2.32047 -0.33864,2.51666 0.63104,0.63853 2.86529,-0.9097 3.64253,-1.48325 6.80896,-5.02082 9.91042,-8.18351 11.01131,-14.68633 0.55981,-3.30514 -1.18961,-4.58346 -4.28607,-5.00582 -4.91335,-0.66853 -9.78797,0.015 -11.69608,3.71375 0.2974,14.12152 0.71726,6.04672 4.88337,5.04456 4.63344,-1.11587 9.61802,-3.59254 4.3248,2.03307 z m 49.264732,52.59986 -6.20917,6.21042 6.20917,6.20917 6.20917,-6.20917 -6.20917,-6.21042 z m -45.146112,-1.12837 -6.20917,6.21042 6.20917,6.20917 6.21041,-6.20917 -6.21041,-6.21042 z m -65.48555,-47.79522 -6.21042,6.20917 6.21042,6.21041 6.20917,-6.21041 -6.20917,-6.20917 z m 41.43236,42.59197 -6.21042,6.20917 6.21042,6.20916 6.20917,-6.20916 -6.20917,-6.20917 z m 46.251992,22.14632 c 0,0 -0.12371,0.0113 -0.30364,0.0262 -5.60063,0.49109 -5.72933,-3.16269 -5.0983,-7.72366 0.20494,-1.477 0.49984,-2.84404 0.66603,-3.76499 0.12246,-0.68227 0.20868,-1.13212 0.20868,-1.13212 0,0 -0.42736,-0.0425 -0.70726,0 -0.29865,0.0437 -0.59605,0.52608 -0.87221,1.21335 -1.39078,3.46384 -4.51099,16.90058 2.74158,16.88934 1.3558,-0.002 3.74,-0.0387 4.24358,-1.25333 0.44735,-1.07589 1.87437,-4.36604 -0.39362,-4.28857 -0.12746,0.004 -0.2849,0.0163 -0.48484,0.0337 z M 26.750058,88.81147 c -2.15178,0.47484 -4.47475,0.53607 -7.19509,0.025 C 3.1132282,85.745 8.7314702,67.06377 13.167108,58.74405 c 0.80723,-1.51324 1.33455,-2.58663 1.19335,-2.73158 -0.37113,-0.38112 -1.07589,0.25741 -1.89774,1.37579 -6.7322418,9.15943 -10.3727718,21.07418 -6.1215718,31.16955 0.361379,0.85846 0.751873,1.64695 1.167983,2.3717 5.9003988,10.27531 29.5699588,9.14694 31.7367388,-5.18326 0.49608,-3.28015 0.23117,-7.1626 0.56231,-11.7748 0.19493,-0.74475 0.2899,-0.83972 0.75974,-0.8997 0.36738,-0.0462 0.73975,0.005 1.10213,0.07 0.2949,0.055 0.58356,0.11871 0.86721,0.19118 8.00107,2.01933 11.68483,1.5045 19.01238,-2.05681 4.29106,-2.08555 9.79421,-4.51598 12.86818,-4.68843 0.41237,-0.0237 0.69477,-0.0337 0.69477,-0.0337 0,0 -0.035,0.72975 -0.0937,1.9206 -0.55981,11.4774 7.53623,12.35211 16.31453,9.31438 0.4686,-0.1612 0.9072,-0.32114 1.29082,-0.46984 0.74975,-0.28991 1.40578,-0.58731 1.98433,-0.89845 4.24483,-2.28299 7.060142,-8.71833 6.725252,-13.28055 -0.28241,-3.84996 -1.389532,-8.39718 -2.241752,-10.41526 -0.29615,-0.69976 -0.5873,-1.33955 -0.80848,-1.79814 -3.93618,-8.18476 -4.31855,9.28438 -4.45225,7.93109 0.0137,0.1362 0.0275,0.27865 0.0437,0.4261 0.22118,2.14179 0.55606,5.68685 1.66194,7.59121 0.20119,0.34613 0.38987,0.67727 0.47234,0.97217 0.26991,0.97093 -2.27798,1.84064 -2.88903,2.07931 -4.93459,1.9306 -11.38243,2.8103 -13.5642,-2.92527 -0.64853,-0.98467 -0.37487,-1.76566 0.83972,-1.76566 0.24867,0 0.61604,0 0.95593,0 0.72726,0 2.78781,-4.90086 3.29514,-5.75807 0.58356,-0.98592 0.95219,-1.62696 0.74475,-2.60913 -0.0737,-0.34863 -0.16994,-0.39236 -0.96717,-0.44735 -3.11271,-0.21118 -6.38661,-1.34455 -9.13069,-2.85529 -8.24474,-4.53723 -9.11944,-11.10503 -19.37975,-5.64436 -1.77191,0.94469 -2.28299,1.7844 -3.30639,4.1736 -0.53108,1.23959 -1.01091,2.70785 -1.08839,4.1811 -0.008,0.1562 -0.0137,0.31865 -0.0175,0.48234 -0.0525,2.27174 0.60105,2.43668 2.84154,1.2021 7.21633,-3.98242 7.09138,-2.88778 13.43675,1.37953 0.44735,0.43236 0.65103,0.7585 0.54981,1.08714 -0.16994,0.55107 -1.81939,1.51949 -3.68626,2.43918 -6.07921,2.994 -24.0207,5.67435 -27.13965,-4.4685 -0.0225,-0.0725 -0.0462,-0.1487 -0.0712,-0.22867 -1.0334,-3.25766 -1.63945,-5.16327 -3.05647,-2.31673 -0.20743,0.41486 -0.41236,0.83972 -0.58605,1.22584 -0.84222,1.86813 -1.29957,3.8937 -1.43952,5.35821 -0.0712,0.72975 0.45485,4.53473 1.01716,7.85736 0.5873,2.21301 0.95967,4.10987 1.15836,5.74308 0.97467,8.02231 -2.94526,11.71107 -7.77614,12.77446 z M 154.60094,67.40615 c 1.89686,-4.59346 0.83972,-10.43775 -2.72534,-14.3252 -0.60354,-0.65853 -1.31705,-1.19085 -2.19301,-1.57822 -1.08214,-0.47734 -1.45076,0.77224 -2.16802,3.17519 -0.46735,1.56447 -0.83847,3.00399 -0.73726,4.11862 0.0437,0.48733 0.16995,0.94343 0.33114,1.44326 2.30048,7.1826 5.63561,8.43218 -4.7709,9.77673 -1.4845,0.19243 -3.21642,0.2899 -5.0508,0.31364 -6.17044,0.0762 -20.35318,0.0862 -23.19098,-7.25007 -4.27732,-11.05379 -9.678,-54.52047 -9.77672,-59.28512 -0.04,-1.86688 0.0612,-7.07013 -2.98775,-0.76974 -0.55481,1.14711 -1.29332,2.25049 -1.616962,3.36262 -0.31739,1.09088 -0.23492,2.19051 -0.12121,3.4201 0.12121,1.30956 0.34864,3.18768 0.639792,5.35196 0.62604,4.66218 7.31255,49.99823 11.90601,58.67408 3.37636,6.37286 20.08701,5.53939 28.22553,4.57096 0.9122,-0.10871 1.77066,-0.26991 2.58039,-0.47484 8.1835,-2.0718 10.32779,-7.3063 11.65609,-10.52397 z M 16.387278,51.24532 c 0,0 -0.82222,-0.0637 -1.41578,0 -0.1262,0.0137 -0.24366,0.0325 -0.35113,0.0562 C -0.27950878,54.56543 1.4390402,43.50163 4.2272302,34.13228 c 0.136954,-0.45985 0.260787,-0.9072 0.363003,-1.33456 0.232422,-0.97092 0.130831,-1.09463 -0.472092,-1.0184 -0.212179,0.0275 -0.271784,0.1212 -0.595925,0.93343 -0.01212,0.03 -0.02412,0.06 -0.03624,0.0912 -2.389074,6.00174 -6.776603,17.82652 0.616668,22.73488 1.779279,1.18085 4.11687,1.78315 6.9690418,1.69318 1.41215,-0.045 2.95638,-0.19493 3.54618,-0.55106 0.66103,-0.39987 1.65445,-2.19427 1.76941,-3.85496 0.0487,-0.72101 0,-1.58072 0,-1.58072 z"
     style="fill:#000000;stroke:none" />
</svg>
