<?xml version="1.0" encoding="UTF-8" standalone="yes"?>
<!-- Created with sK1/UniConvertor (http://sk1project.org/) -->
<svg xmlns="http://www.w3.org/2000/svg" xmlns:xlink="http://www.w3.org/1999/xlink"
  width="595.276pt" height="841.89pt" viewBox="0 0 595.276 841.89"
  fill-rule="evenodd">
  <path
     d="M 69.873203,0.61058563 C 65.069194,-2.4510204 46.608357,6.8329976 41.644348,10.029004 c -2.945606,1.896804 -4.261609,4.324009 -4.85201,7.992816 -0.497601,3.092806 0.144001,6.154412 3.015206,7.906415 0.512801,0.312801 1.078402,0.641601 1.640003,0.952802 3.930408,2.177604 4.573609,1.920004 5.552811,4.792809 0.972802,2.853606 2.784006,7.860016 2.564805,11.007222 -0.1744,2.507205 -1.896803,1.874404 -2.852005,1.874404 -1.568803,8e-4 -3.213607,-0.313601 -4.140808,-1.579203 -1.677604,-2.290405 -3.000006,-6.523213 -5.267211,-3.804808 -0.835201,1.327203 -0.910402,3.731207 -0.804001,5.31921 0.0016,0.0208 0.0032,0.0432 0.0056,0.0656 0.501601,5.710411 3.000006,7.904815 2.325604,10.936021 -1.166402,5.24081 -14.920829,13.284026 -18.788036,15.21283 -3.328007,1.660803 -3.764808,1.571203 -7.330415,3.913607 -0.484801,0.318401 -0.538401,0.394401 -0.538401,0.757602 0,0 0,8e-4 0,0.0304 0,1.233602 11.576023,-1.298403 12.504825,-1.729603 8.412816,-3.907208 20.395239,-14.361629 18.140035,-22.141644 -0.1616,-0.558401 -0.368001,-1.004002 -0.368001,-1.004002 0,0 0.360001,0.016 1.259203,0.0584 3.898407,0.180001 6.821613,0.919202 7.887215,-4.015207 0.048,-0.223201 0.0968,-0.444001 0.145601,-0.657602 0.932801,-4.052808 1.652003,-0.392801 2.147204,0.681602 0.0792,0.1736 0.16,0.34 0.2408,0.500801 2.160804,4.300808 7.268014,5.893611 11.322422,5.27921 4.669609,-0.707201 5.788812,-2.448005 7.484015,-6.927214 0.835202,-2.206404 1.505603,-4.612009 1.309603,-5.736011 -0.244801,-1.404803 -3.088807,-5.816011 -4.332809,-6.428012 -1.385603,-0.682402 -2.472805,2.608005 -2.587205,4.857609 -0.0208,0.405601 -0.0016,0.750402 0.116,1.069602 0.304801,0.822402 1.266403,1.477603 2.197604,2.802406 1.529603,2.174404 1.712804,2.742405 0.468001,3.334406 -2.149604,1.021602 -3.744007,1.376003 -6.076011,1.070402 -7.109614,-0.932802 -8.910418,-8.611217 -11.024822,-15.22883 -0.392001,-1.226402 -0.670401,-2.152004 -0.705601,-2.385604 -0.0384,-0.252001 -0.0744,-0.512801 -0.0744,-0.512801 0,0 2.284005,0.474401 3.880008,0.378401 0.603201,-0.0368 2.904006,-1.118403 3.460007,-1.627204 0.837601,-0.766401 2.785605,-2.891205 2.516805,-4.244008 -0.0136,-0.0648 -0.0272,-0.128 -0.0424,-0.1896 -0.733602,-3.004006 -4.576009,-2.571205 -6.572813,-3.465607 -0.340001,-0.152 -0.652001,-0.347201 -0.934402,-0.612001 -0.454401,-0.424801 -0.649601,-0.956002 -0.2096,-1.248003 0.3744,-0.2488 2.069604,-0.447201 2.448804,-0.3408 0.132801,0.0376 0.260001,0.1024 0.379201,0.1936 1.888804,1.442403 3.064806,0.312801 2.424005,-2.970406 -0.0824,-0.423201 -0.488001,-0.449601 -1.761604,-0.429601 -0.1536,0.0024 -0.3096,0.0072 -0.462401,0.0128 -1.688803,0.0696 -9.359218,2.412005 -5.755211,6.736814 1.545603,1.854403 5.443211,2.306404 6.735213,2.958405 0.604802,0.304001 1.056002,0.688002 0.815202,1.079202 -0.1312,0.212801 -0.868802,0.505601 -1.402403,0.680002 -1.686403,0.550401 -6.075212,-0.257601 -7.736015,-0.613601 -0.371201,-0.08 -0.612801,-0.140801 -0.662401,-0.165601 -1.392803,-0.700001 -2.398405,-2.040004 -4.040008,-3.055206 -2.345605,-1.450403 -4.430409,-1.783203 -5.557611,-3.291206 -0.863202,-1.155202 0.302401,-1.916004 1.690403,-2.609605 3.408007,-1.702404 19.484838,-11.9496244 25.011249,-9.4608194 4.76241,2.144804 1.204803,6.8728144 -0.992802,10.0840204 0.762402,-1.113602 -3.561607,5.34001 -0.3848,3.066406 0.212,-0.152 0.4528,-0.355201 0.710401,-0.589601 1.678403,-1.524803 2.983206,-3.767208 4.028808,-6.010412 2.286404,-4.9048104 3.847207,-9.5360194 0.0584,-11.95042337 z M 24.644315,41.540266 l 0,1.155202 1.240002,0 c 0.556801,0 0.664801,-0.0224 1.078402,-0.22 0.575201,-0.273601 1.402403,-1.108003 1.804804,-1.496803 0.108,-0.104801 0.2184,-0.210401 0.3496,-0.284801 0.177601,-0.0992 0.252801,-0.1104 0.752002,-0.1104 l 1.111202,0 c 0,0 0.08,0.658401 0,1.216802 -0.0792,0.560001 -1.419203,2.185604 -2.529605,3.070406 -1.417603,1.129602 -2.428005,2.200805 -1.886404,3.073606 0.145601,0.234401 0.520801,0.569601 0.921602,0.524001 0.104,-0.012 0.1784,-0.072 0.747202,-0.604001 1.992003,-1.863204 5.36161,-6.131212 4.667209,-9.140018 -0.291201,-1.261602 -2.083204,-1.626403 -3.394407,-1.404803 -1.014402,0.171201 -3.101606,1.322403 -4.054408,2.068004 -0.374401,0.292801 -0.595201,0.576802 -0.722401,1.179203 -0.076,0.3568 -0.0848,0.454401 -0.0848,0.973602 z m 40.078478,22.797644 4.690409,-4.689609 -4.690409,-4.690409 -4.689609,4.690409 4.689609,4.689609 z m -53.494505,-47.640093 -0.112,-2.562405 c -0.0448,-1.036002 -0.0304,-1.221602 0.1496,-1.856804 0.133601,-0.4704 0.274401,-0.985601 0.632002,-1.317602 0.870401,-0.808002 3.025606,-0.528801 4.024807,-1.1944024 1.438403,-0.959202 1.439203,-4.252809 0.332801,-5.588011 -1.174402,-1.416003 -3.548007,0.832801 -4.520009,2.119204 -0.597601,0.790401 -1.163202,1.695203 -1.417603,2.752005 -0.1176,0.490401 -0.1832,1.0464024 -0.2752,1.5328034 L 9.5906855,12.96661 8.1002826,11.069006 C 6.0586786,8.3810006 6.6810798,7.5817986 3.6818739,6.8505976 2.677072,6.6057966 0.4978677,6.6977976 0.07866688,7.8289996 c -0.32720064,0.885602 0.44160087,3.0384064 0.92400182,3.5496074 0.3704007,0.3936 1.8712036,1.368802 2.4912049,1.428803 1.0136019,0.0976 3.083206,-0.519201 3.083206,-0.519201 0,0 1.6704032,2.404804 2.6912052,3.534406 0.4456009,0.492801 0.8136012,0.889602 1.3848022,0.900002 0.236001,0.0048 0.575201,-0.0248 0.575201,-0.0248 z m 10.527221,18.319236 0.447201,-0.008 c 0.2008,-0.0032 0.2544,-0.1256 0.539201,-1.223202 1.634403,-6.309613 1.932804,-9.79442 -2.088004,-13.840828 -0.661602,-0.666401 -1.433603,-1.225602 -1.930404,-0.628001 -0.337601,0.405601 -0.681601,3.265607 -0.528001,3.890408 0.2688,1.092802 1.065602,1.447203 1.985604,2.188804 2.078404,1.675203 2.599205,2.932006 2.335204,5.16401 -0.2032,1.712804 -0.760801,4.456809 -0.760801,4.456809 z M 5.1786768,31.201845 C 5.1450768,30.309044 5.0442766,29.187442 4.750676,28.905041 4.5810757,28.741841 4.3458752,28.860241 4.1986749,28.771441 3.5362736,28.37384 4.6634758,26.733037 5.2002769,26.106636 10.075486,20.415424 22.711511,13.349011 29.386724,11.887408 c 0.636801,-0.139201 1.272802,-0.252001 1.392803,-0.0368 0.06,0.1072 -0.008,0.2952 -0.110401,0.508001 -0.2416,0.498401 -0.627201,1.102402 -1.056002,1.749603 -8.890417,13.424826 5.13361,-5.2064104 9.112818,-5.7296114 0.364001,-0.18 0.706401,-0.324801 1.008802,-0.420001 1.548803,-0.488001 3.225606,-0.591201 3.429607,-2.075204 0.028,-0.2088 0.032,-0.468001 0.0256,-0.720001 -0.068,-2.432005 -4.036008,-1.268003 -6.832814,-0.204801 -2.588005,0.984802 -6.431212,2.607205 -10.50882,4.492809 -5.27521,2.4408054 -21.0688409,9.7672194 -23.2912453,16.1304314 -0.7168014,2.050405 -0.5832011,4.347209 0.8440017,6.324013 0.0616,0.0848 0.1168002,0.1608 0.1680003,0.2296 -0.6448013,-0.875201 1.7472034,2.805606 1.6096031,-0.933602 z"
     style="fill:#000000;stroke:none" />
</svg>