<?xml version="1.0" encoding="UTF-8" standalone="yes"?>
<!-- Created with sK1/UniConvertor (http://sk1project.org/) -->
<svg xmlns="http://www.w3.org/2000/svg" xmlns:xlink="http://www.w3.org/1999/xlink"
  width="595.276pt" height="841.89pt" viewBox="0 0 595.276 841.89"
  fill-rule="evenodd">
  <path
     d="M 23.257969,60.55263 22.77697,51.362639 c -0.072,-1.36299 -0.1,-1.59999 -0.281,-2.371989 -0.556999,-2.366998 -2.055998,-3.663997 -3.622996,-4.500996 -1.992998,-1.063999 -3.513997,-1.458999 -5.566995,0.03896 -1.688998,1.231999 -1.847998,5.692994 -1.183999,6.389986 0.495,0.520999 1.806998,0.473999 3.395997,0.101 3.966996,-0.931991 4.364996,-0.716992 5.397995,3.477996 0.490999,1.993998 0.548999,3.861996 0.306999,5.866995 -0.511999,4.257995 -1.717998,6.329993 0.644,8.828991 0.982999,1.040999 2.009998,1.197999 4.251996,0.735999 1.59299,-0.327999 1.90899,-1.067999 2.576989,-3.273997 0.471,-1.552998 0.842999,-2.943997 0.721999,-4.492995 -0.238999,-3.071997 -3.560988,-8.846992 0.443,-10.28099 0.738999,-0.265 1.698998,-0.092 2.526998,0.089 1.116998,0.242999 1.305998,0.133 1.893998,-1.102999 0.483999,-1.015991 1.043999,-1.95099 1.351998,-3.044989 1.154999,-4.104996 -0.613999,-5.263995 -4.162996,-3.581997 -4.070996,1.928998 -5.898986,10.192982 -5.029987,15.733977 0.267,2.283998 0.558,4.339996 0.558,4.339996 0,0 -0.243,-0.0032 -0.533,-0.03104 -1.138999,-0.112 -3.096997,-1.624999 -3.207997,-3.730997 z M 8.1439841,66.526625 2.7489973,71.888619 c -0.8959991,0.891 -1.022999,1.050999 -1.2739987,1.599999 -0.3519997,0.767999 -0.4729996,2.05299 -0.2999997,2.22799 0.5579994,0.563999 2.5339895,-0.805992 3.2209888,-1.312991 6.0219943,-4.442996 8.7649913,-7.241993 9.7389903,-12.995987 0.495,-2.923998 -1.052999,-4.055997 -3.791996,-4.428996 C 5.9989862,56.386634 1.6869984,56.991674 0,60.264631 c 0.26299974,12.495988 0.63399938,5.349994 4.3179878,4.462995 4.098996,-0.986999 8.5059922,-3.178997 3.8259963,1.798999 z m 52.5999329,9.573982 c 0.167,2.301002 1.239999,3.730992 3.191997,4.144002 2.518998,0.533 3.942996,-0.833 4.588995,-3.596002 0.142,-0.606 0.11,-1.110999 -0.279999,-1.354999 -0.742,-0.463991 -2.779998,0.01696 -3.765997,-0.505991 -1.224998,-0.651 -1.536998,-3.417997 -1.233998,-4.711996 0.303999,-1.294999 1.077999,-2.681997 1.287998,-3.679996 0.04304,-0.202 0.062,-0.389 -0.026,-0.492 -0.01104,-0.01296 -0.022,-0.026 -0.03296,-0.03696 -2.963997,-0.675999 -3.684996,10.854982 -3.729996,10.233982 z m 24.524968,4.258002 6.018994,-6.018992 -6.018994,-6.019994 -6.018994,6.019994 6.018994,6.018992 z M 59.913918,33.650664 62.522915,52.789638 c 0.18,1.318999 0.169,1.487998 -0.106,1.692998 -0.204999,0.152 -0.438999,0.251 -0.679999,0.344 -5.993994,2.320998 -11.209981,-0.640999 -15.532977,-5.970986 -1.337999,-1.648999 -2.051998,-0.349 -2.946997,1.781998 -1.393999,3.315989 -1.201999,4.988987 0,7.391985 1.133999,2.267998 2.954997,8.381992 2.954997,8.381992 0,0 -2.645997,2.172998 -4.679995,3.691996 -8.924992,6.663986 -26.185967,12.306978 -36.0579573,15.729978 -1.2569988,0.436 -1.3969987,0.51 -1.3969987,0.747 l 0,0.526 c 0,0 8.881991,-1.508 13.032987,-1.237 0.877,0.057 1.391999,0.153 1.988998,0.159 6.595994,0.074 18.738974,-7.20399 23.801969,-10.703991 0.223,-0.154 0.408,-0.286 0.549,-0.391992 2.540997,-1.902998 2.809997,-2.571997 4.345996,-6.643993 0.978999,-2.593998 2.438997,-6.315994 2.438997,-6.315994 0,0 3.118989,0.04896 5.588987,0 5.532994,-0.11 6.971993,-0.275 8.942991,-4.073996 1.454999,-2.805997 3.449997,-7.642985 3.449997,-7.642985 0,0 1.032999,4.183988 1.897998,6.295986 0.869999,2.120998 2.050998,2.981997 4.188996,3.941996 0.879999,0.395 4.817987,2.132998 6.278986,1.574999 0.226,-0.087 0.398999,-0.096 1.729998,-0.096 l 7.366993,0 c 1.330999,0 1.625998,-0.02104 2.946997,-0.207 3.089997,-0.435999 4.323996,-0.706999 5.332995,-2.256998 3.761987,-5.784994 3.817987,-10.985981 0.492999,-15.770976 -0.953999,-1.371999 -2.415997,-2.339998 -3.449996,-0.984999 -1.002999,1.312998 -1.428999,4.713995 -0.951999,5.985994 0.239999,0.639999 0.685999,1.039999 1.188999,2.04799 0.598999,1.198999 1.278998,3.260997 1.278998,3.260997 0,0 -4.234996,0.700999 -7.306993,1.024999 -5.277994,0.556999 -12.760987,-0.238 -15.400977,-3.941996 -1.587998,-2.22899 -1.836998,-7.009986 -4.187996,-13.05998 -0.811999,-2.087998 -1.894998,-4.357996 -1.894998,-4.357996 0,0 2.034998,1.045999 4.400996,1.792999 2.332998,0.736999 13.313979,3.151997 16.569976,0.526999 1.961998,-1.582998 3.843996,-4.177996 3.592996,-5.275995 -0.182999,-0.800999 -0.928999,-1.585998 -1.970998,-2.049998 -2.201998,-0.980999 -5.545994,-0.693999 -4.927995,-2.414989 0.341,-0.948999 2.145998,-1.897999 3.202997,-3.251997 0.575999,-0.738 1.554999,-3.002997 1.231999,-3.449997 -0.197,-0.273 -0.874999,-0.162 -1.576999,0 -1.829998,0.422 -7.431992,3.421997 -8.278992,4.434996 -2.008998,2.402989 -2.460997,4.862987 0,6.652985 0.55,0.401 1.060999,0.723 1.970998,0.985999 1.599999,0.462 4.434996,0.739 4.434996,0.739 l 0,1.478998 c 0,0 -2.175998,0.426 -3.843996,0.493 -3.033997,0.121 -15.589977,-4.761996 -16.727976,-5.422995 -2.235998,-1.295999 -3.935996,-3.011989 -6.499994,-4.232988 -1.926998,-0.917999 -3.820996,-1.428998 -3.481996,-2.368998 0.07304,-0.204999 0.263,-0.421999 0.539999,-0.645999 3.777997,-3.058997 28.099965,-12.0629879 32.702961,-13.1719869 4.606995,-1.109999 8.720991,-1.449998 10.26099,0.215 0.375999,0.406999 0.502999,0.933999 0.219999,1.6299979 -0.900999,2.217998 -4.627995,6.269994 -5.283994,8.473992 -0.23,0.769999 0.0048,0.993999 0.787999,0.738999 3.216997,-1.048999 5.396984,-6.440994 6.742984,-9.580991 2.309,-5.3849939 3.229,-7.6769919 -0.957,-9.63898185 -1.050989,-0.492999 -6.782983,-0.492999 -9.047981,0 -2.876997,0.626 -32.099961,12.37897985 -33.935959,13.64797885 -3.387997,2.342997 -5.402995,3.940996 -6.175994,8.746991 -0.190992,1.184999 -0.289992,2.428998 -0.498992,3.514997 -0.327999,1.71299 -0.753999,2.582989 0.455992,3.658988 1.976998,1.760998 8.278992,3.711996 8.278992,3.711996 z"
     style="fill:#000000;stroke:none" />
</svg>
