<?xml version="1.0" encoding="UTF-8" standalone="yes"?>
<!-- Created with sK1/UniConvertor (http://sk1project.org/) -->
<svg xmlns="http://www.w3.org/2000/svg" xmlns:xlink="http://www.w3.org/1999/xlink"
  width="595.276pt" height="841.89pt" viewBox="0 0 595.276 841.89"
  fill-rule="evenodd">
  <path
     style="stroke:none; fill:#000000"
     d="m 38.3875,43.405317 c 0,0 3.823007,-1.249 5.339007,-0.904 0.799,0.182 1.626,1.62 2.145,2.723 0.941999,2.000999 1.849999,4.578007 2.194999,6.623006 0.115,0.681 0.239,1.31 0.94,1.549 0.441,0.151 1.113008,0.16 1.113008,0.16 0,0 0.0016,-0.01 0.0056,-0.03 0.335,-1.886 1.08,-5.049007 1.27,-6.956007 0.2,-2.002999 0.155,-2.696999 1.860999,-2.570999 2.577,0.192 3.452,0.647 4.585008,-1.41 1.015999,-1.845008 2.128999,-5.611007 0.356,-6.831007 -5.486008,-1.478 -7.534007,5.740007 -7.878007,7.392007 -0.485,2.331999 -0.688,4.833999 -0.688,4.833999 0,0 -1.344008,-4.319999 -2.333008,-6.652999 C 46.187107,38.70731 43.317107,35.17231 40.2201,36.05531 c -1.538,0.439 -2.078,1.697 -2.077,3.361999 8e-4,1.533 0.244,3.988008 0.244,3.988008 z m 6.449007,28.446019 c 0.163,2.241008 1.208,3.634007 3.109999,4.036007 2.453008,0.519 3.840008,-0.811 4.469008,-3.502007 0.138,-0.59 0.107,-1.083 -0.273,-1.32 -0.723,-0.452 -2.708008,0.01704 -3.667008,-0.493 -1.194,-0.633 -1.498,-3.328999 -1.202,-4.588999 0.295,-1.261008 1.049,-2.612008 1.254,-3.584007 0.04096,-0.197 0.06104,-0.379 -0.02496,-0.48 -0.01104,-0.01304 -0.022,-0.02496 -0.03296,-0.036 -2.886999,-0.658 -3.588999,10.573006 -3.632999,9.968006 z m 94.863073,-36.558026 -4.881,4.848999 c -0.811,0.806 -0.927,0.951008 -1.154,1.447008 -0.317,0.695 -0.427,1.857 -0.271,2.015 0.505,0.51 2.293,-0.728 2.915,-1.187 5.449,-4.019007 7.931,-6.550007 8.812,-11.754014 0.448,-2.645 -0.952,-3.667999 -3.43,-4.005999 -3.932,-0.535 -7.833,0.01296 -9.36,2.972999 0.238,11.301006 0.574,4.838007 3.908,4.036007 3.708,-0.893007 7.696,-2.875007 3.461,1.627 z m 2.023,-19.236021 -0.453,-8.6510062 c -0.068,-1.284 -0.094,-1.507 -0.265,-2.234 -0.524,-2.227999 -1.935,-3.448999 -3.411,-4.23699901 -1.875,-1.002008 -3.307,-1.374008 -5.24,0.03696 -1.59001,1.16000001 -1.74001,5.35899901 -1.11501,6.01599901 0.46601,0.49 1.70201,0.445 3.19701,0.094 3.735,-0.877 4.109,-0.675 5.082,3.2750072 0.462,1.877 0.517,3.635 0.289,5.522999 -0.482,4.009008 -1.617,5.959007 0.606,8.312007 0.926,0.979008 1.892,1.127008 4.003,0.693008 1.5,-0.309008 1.798,-1.006008 2.426,-3.083008 0.443,-1.461999 0.793,-2.770999 0.68,-4.228999 -0.225,-2.892007 -3.352,-8.3290062 0.41701,-9.6790142 0.695,-0.249 1.599,-0.087 2.379,0.083 1.051,0.229 1.229,0.125 1.783,-1.038 0.455,-0.957 0.982,-1.837 1.272,-2.866 1.088,-3.86499901 -0.577,-4.95600701 -3.918,-3.37299901 -3.83301,1.81600001 -5.55401,9.59700621 -4.73501,14.81200621 0.25,2.151007 0.525,4.087007 0.525,4.087007 0,0 -0.229,-0.0032 -0.502,-0.03 -1.073,-0.106 -2.916,-1.53 -3.02,-3.512008 z m 13.67701,68.059062 c -0.364,2.27 0.078,2.828 1.58701,2.131 1.028,-0.475 14.289,-8.18801 16.22501,-10.498008 0.78,-0.929999 1.558,-2.576007 1.833,-4.056007 0.169,-0.912 -0.105,-0.879 -1.087,-0.515 -2.27501,0.846 -17.27701,9.979005 -17.74701,10.804005 -0.44001,0.77101 -0.72101,1.57101 -0.81101,2.13401 z m -17.40901,-17.589014 4.065,4.064999 5.65,-5.650007 -5.65,-5.649999 -4.065,4.064999 -4.066,-4.064999 -5.65001,5.649999 5.65001,5.650007 4.066,-4.064999 z m -29.10702,16.374014 4.065,4.065 5.651,-5.65001 -5.651,-5.650998 -4.065,4.065998 -4.06601,-4.065998 -5.649999,5.650998 5.649999,5.65001 4.06601,-4.065 z m 4.065,-23.609021 -5.65,5.649999 5.65,5.650007 5.651,-5.650007 -5.651,-5.649999 z m 51.62404,0 -5.651,5.649999 5.651,5.650007 5.65,-5.650007 -5.65,-5.649999 z m -101.97908,1.155 c 1.805,0.01704 3.482007,0.07704 4.693007,0.209 2.916,0.32 5.389999,2.819999 6.424999,-1.124 0.879008,-3.343007 -5.346999,-2.490007 -8.321007,-2.482007 -7.489998,0.02 -54.887038,0.150999 -54.887038,0.150999 0,0 -0.098,-0.732999 -0.02,-1.121999 0.132,-0.653 2.970999,-1.875 3.236999,-1.972 2.032,-0.739 3.822007,-0.12 5.124007,-1.025 1.453,-1.009 2.298,-3.917007 3.41,-5.434007 0.421,-0.573 0.789,-0.701 1.722999,-0.325 0.168,0.06704 0.395,0.183 0.64,0.308 1.117008,0.568 2.424008,-0.03 2.132008,-2.106 -0.022,-0.157 -0.05496,-0.309999 -0.1,-0.448999 -0.381,-1.204 -1.877008,-1.615 -2.983008,-1.192 -0.637999,0.245 -1.215999,0.786 -1.685999,1.431999 -1.147,1.576 -1.652,3.774 -2.904,4.793008 -1.236,1.005 -3.199007,0.863 -5.308007,1.457999 -3.179999,0.896 -5.469007,2.496 -6.082007,4.898 -0.7939998,3.109007 0.665,4.172007 3.258008,4.488007 1.651999,0.201 55.478046,-0.47 51.649039,-0.506 z m 59.47304,-11.269014 -9.036,0.157008 c -1.262,0.022 -1.463,-0.009 -2.009,-0.311008 -0.406,-0.224 -0.735,-0.562 -1.08,-0.866 -0.607,-0.534 -1.263,-0.962 -1.707,-1.543 -0.737,-0.964 -0.889,-2.347999 -1.234,-3.717999 -1.48401,-5.891007 -8.441017,-3.149008 -12.644016,-1.415 -3.731999,1.54 -10.552006,5.382999 -13.058014,10.325006 -0.791,1.559 -0.987,3.585 -1.820997,5.154 -1.058,1.991007 -1.483,2.929007 0.737997,4.398007 1.125,0.744 4.748008,2.471999 6.638007,3.038999 1.89,0.568 3.586,0.5 6.059007,1.413008 2.186,0.807 4.978999,2.382 4.978999,2.382 0,0 -1.034999,1.274999 -2.093999,2.240999 -0.935,0.852 -6.842007,3.079 -9.751007,3.676008 -2.755999,0.565 -5.465007,1.498999 -8.374004,2.248999 -1.424999,0.368 -5.287007,0.936 -9.686006,1.481 C 50.460514,80.015341 18.240487,82.645351 4.6664735,67.327337 0.30747429,62.40833 -2.4155333,61.76933 3.0394738,71.494336 c 0.213,0.38 0.3829999,0.658 0.4829999,0.785 0.7119999,0.911 2.8699995,2.712007 5.0760072,4.442007 21.7140121,17.016018 62.4440451,12.289008 85.0140631,0.35 3.006,-1.589 5.023999,-3.595007 7.602006,-7.987007 0.892,-1.518999 1.855,-3.399007 1.97,-3.836007 0.77,-2.936999 -2.232,-5.875999 -5.314007,-6.914999 -3.432999,-1.158008 -7.352998,-1.354007 -11.458006,-3.392007 -1.548999,-0.769 -3.248999,-1.802 -3.248999,-1.802 0,0 6.892999,-3.680999 10.840006,-5.108007 2.951,-1.066 6.782006,-1.754 8.121006,1.074 1.751,3.698007 1.018,5.012007 3.699,6.666007 0.606,0.373 1.19901,0.682 1.80101,0.904 0.401,0.458999 7.96,0.458999 12.483,-1.933 1.085,-1.903 1.452,-4.139999 2.783,-3.009 0.386,0.329 0.73401,0.911 1.17501,1.437 1.937,2.312 4.563,2.441 7.375,2.854 2.33301,0.344 11.98701,-0.171 13.01801,-0.694 1.269,-0.644 2.473,-1.561 3.61001,-2.375 l 3.389,-2.421999 2.106,1.515999 c 0.145,0.104 0.303,0.217 0.478,0.34 0.771,0.536 1.56,0.938 2.39201,1.263 3.155,1.232 12.507,4.774007 15.325,1.403 1.75501,-2.1 4.26601,-6.164007 4.70901,-7.702007 1.003,-3.477999 -1.569,-13.190006 -3.081,-16.832013 -0.414,-0.995 -0.98901,-1.81 -1.84701,-1.37 -0.678,0.349 -3.198,5.069007 -3.443,6.230007 -0.383,1.811 0.568,2.823 1.485,4.787999 1.056,2.262008 1.424,5.096008 2,7.443007 0.288,1.174 0.211,1.315 -0.727,1.224 -0.337,-0.03296 -0.511,-0.06704 -1.742,-0.348 -3.118,-0.712 -7.722,-1.638 -9.245,-2.541 -1.911,-1.132999 -4.02701,-3.547999 -5.31501,-3.255999 -1.088,0.246 -2.691,2.236 -4.132,3.259999 -2.76501,1.967 -13.34001,2.899 -15.75601,2.539 -3.34301,-0.498 -7.65101,-2.32 -8.70801,-4.053999 -0.748,-1.228 -1.504,-6.189007 -2.05,-9.328007 -0.216,-1.244 -0.278,-1.386 -0.614,-1.418 -0.72301,-0.07 -0.99101,0.099 -1.25301,0.532 -1.258,2.073 -1.903,4.952 -1.518,6.756999 0.26,1.220008 0.922,2.392008 1.246,4.465007 0.25,1.599 0.299,3.734 0.299,3.734 z M 166.3246,14.09029 c -0.003,-0.259 0.059,-0.511 0.124,-0.765 0.869,-3.4070002 1.958,-5.7490072 1.107,-8.8500072 -0.511,-1.866999 -1.654,-4.47500701255 -1.654,-4.47500701255 0,0 -1.586,2.53800801255 -1.984,3.96200701255 -0.185,0.665 -0.111,1.087 0.064,1.622 0.861,2.624 1.961,3.985008 1.826,5.8480072 -0.385,5.346007 -5.698,9.720007 -1.655,12.274006 1.476,0.932 4.373,1.293008 5.18,0.844 1.725,-0.959 2.595,-7.155999 1.186,-8.500007 -0.666,-0.634999 -1.838,-0.932999 -2.831,-1.201999 -1.223,-0.332 -1.359,-0.408 -1.363,-0.758 z m -54.56704,4.613007 c -1.888,6.167007 -3.866,10.672006 1.593,13.457006 3.841,1.960007 6.09,0.04504 6.938,-4.187 0.404,-2.016999 -0.142,-2.930999 -2.876,-4.063007 -0.874,-0.362 -1.764,-0.611 -2.65,-0.609 -2.243,0.0072 -3.1,0.7 -2.536,-2.010999 0.501,-2.41 2.037,-5.376008 2.896,-8.089007 0.561,-1.771 0.989,-3.9519992 0.603,-5.6290072 -0.279,-1.213 -0.981,-2.412 -1.233,-3.708 -0.321,-1.653999 -0.639,-4.59300701 -2.355,-3.69799901 -0.701,0.366 -1.534,2.10100001 -1.625,3.29999901 -0.042,0.548 0.052,0.994 0.215,1.485 1.704,5.1460072 3.594,6.9680072 1.7,12.0440142 -0.227,0.608 -0.536,1.27 -0.67,1.708 z" />
</svg>
