<?xml version="1.0" encoding="UTF-8" standalone="yes"?>
<!-- Created with sK1/UniConvertor (http://sk1project.org/) -->
<svg xmlns="http://www.w3.org/2000/svg" xmlns:xlink="http://www.w3.org/1999/xlink"
  width="595.276pt" height="841.89pt" viewBox="0 0 595.276 841.89"
  fill-rule="evenodd">
  <path
     d="m 0,47.303557 c 0,0 9.1981475,15.4355 9.1981475,15.4355 0.5256083,0.546592 1.0871895,1.072201 1.6817465,1.576825 9.247111,7.853149 25.001373,10.445218 34.009662,6.53613 7.851151,-3.406462 13.955602,-8.42872 16.41477,-15.00482 0.381716,-1.02024 0.636526,-1.889593 0.596556,-2.212352 -0.229829,-1.871606 -4.022004,-3.602317 -7.781203,-3.865121 -3.697246,-0.258807 -9.259102,0.417689 -9.259102,0.417689 l 3.97304,-3.380481 7.683276,-4.136918 c 1.083193,-0.583565 1.252067,-0.669502 1.686743,-0.857362 1.013246,-0.437673 3.299542,-0.343743 3.700244,-0.246816 0.660508,0.160881 1.157138,0.501627 1.58382,1.046221 0.609546,0.77842 1.076198,1.974529 1.592813,3.022748 2.816901,5.716741 9.588856,4.353756 12.059016,4.004017 2.653023,-0.37572 8.467691,-1.485893 9.520903,-2.37623 0.251815,-0.212841 0.429686,-0.462655 0.60855,-0.729456 1.216091,-1.816647 2.523118,-4.427702 3.224595,-6.839904 0.330758,-1.138152 -1.054212,-13.500942 -1.782673,-15.901154 -0.749437,-2.474156 -1.656762,-5.348015 -1.656762,-5.348015 0,0 -1.894592,2.463165 -2.899836,3.980034 -1.417946,2.140406 -1.847625,5.057233 -0.454662,8.259847 0.274791,0.632528 0.631525,1.125162 0.910316,1.766684 0.648518,1.493887 0.874349,3.791175 1.139156,5.742721 0.08093,0.597555 0.165871,1.163133 0.09993,1.7447 -0.08993,0.784416 -0.232831,0.903327 -1.430938,1.194111 -1.751697,0.423684 -3.106684,0.822387 -5.303048,0.88634 l -6.526138,-1.030233 c -3.943063,-1.247071 -3.203614,-2.235335 -5.398978,-6.195384 -2.109428,-3.804166 -10.332302,0.908322 -13.798719,2.89884 -5.406972,3.105686 -8.447706,5.469925 -10.25436,9.7987 -0.735453,1.761687 -1.445923,3.732219 -1.595812,6.107449 -0.11891,1.902583 0,4.374741 0,4.374741 0,0 2.702987,0.09393 5.976548,0.206846 0.564579,0.01898 13.910636,-0.586563 5.918591,3.402464 -1.926565,0.961285 -4.704495,1.997513 -6.793939,2.729967 C 36.58974,67.399584 28.029118,65.502997 22.371333,63.084799 12.698539,60.490732 0,47.303557 0,47.303557 z m 59.140938,-22.610155 -4.61656,4.584584 c -0.766429,0.762432 -0.876348,0.89933 -1.090189,1.367981 -0.300775,0.65751 -0.404698,1.756691 -0.256808,1.90558 0.477644,0.482641 2.168385,-0.688487 2.755947,-1.122163 5.153161,-3.800169 7.500412,-6.193386 8.333791,-11.113721 0.422685,-2.501136 -0.901328,-3.469415 -3.244583,-3.788177 -3.71723,-0.506623 -7.406482,0.01099 -8.850405,2.809907 0.224831,10.687037 0.542595,4.57559 3.695246,3.817156 3.506387,-0.844371 7.277578,-2.718975 3.273561,1.538853 z M 69.37931,16.044846 68.926647,7.4002859 c -0.06695,-1.282045 -0.09393,-1.505879 -0.264802,-2.232337 -0.52361,-2.226342 -1.933559,-3.446433 -3.407462,-4.23284704 -1.874603,-1.001254 -3.305537,-1.373976 -5.237098,0.03597 -1.588816,1.15913604 -1.737705,5.35501004 -1.11317,6.01152104 0.465653,0.489635 1.699733,0.445668 3.19362,0.09393 3.73222,-0.876347 4.106941,-0.673498 5.078217,3.2725621 0.462656,1.875602 0.516615,3.633293 0.289784,5.518889 -0.48264,4.006015 -1.616796,5.954563 0.605549,8.305811 0.924311,0.978271 1.890591,1.12716 4.000019,0.692484 1.498884,-0.30877 1.795663,-1.005251 2.424195,-3.080705 0.441671,-1.460911 0.792409,-2.768937 0.678494,-4.225852 -0.224832,-2.889847 -3.349504,-8.3217991 0.416689,-9.6717941 0.695482,-0.248814 1.598809,-0.08594 2.377229,0.08294 1.050218,0.228829 1.229085,0.125906 1.782672,-1.037228 0.454659,-0.955288 0.981273,-1.835632 1.271055,-2.863866 C 82.107826,0.20764086 80.444065,-0.88154714 77.105554,0.70027386 73.276407,2.5149219 71.555689,10.28913 72.374079,15.501247 c 0.250814,2.1484 0.524609,4.082958 0.524609,4.082958 0,0 -0.228829,-0.003 -0.501626,-0.02998 C 71.32586,19.44931 69.483233,18.025371 69.37931,16.044847 z M 83.203014,9.9883579 c 0.161879,2.2393321 1.207099,3.6312941 3.106683,4.0329951 2.451175,0.518614 3.838137,-0.810396 4.465671,-3.499393 0.137895,-0.5905611 0.106919,-1.0821941 -0.272799,-1.3190181 -0.721461,-0.451663 -2.704982,0.01698 -3.664266,-0.492633 -1.192115,-0.633528 -1.49589,-3.326521 -1.201107,-4.585583 0.295783,-1.261061 1.04822,-2.610056 1.253067,-3.58233104 0.042,-0.195854 0.06096,-0.377719 -0.02496,-0.478644 -0.01096,-0.01299 -0.02096,-0.02498 -0.032,-0.03597 -2.885844,-0.65751 -3.586321,10.56512914 -3.630289,9.96058004 z M 57.75597,73.361143 l 3.398468,3.398468 4.890357,-4.890357 -4.890357,-4.890356 -3.398468,3.398468 -3.397469,-3.398468 -4.890357,4.890356 4.890357,4.890357 3.397469,-3.398468 z m 23.803266,-13.436989 4.890357,-4.890357 -4.890357,-4.890356 -4.890356,4.890356 4.890356,4.890357 z"
     style="fill:#000000;stroke:none" />
</svg>
