<?xml version="1.0" encoding="UTF-8" standalone="yes"?>
<!-- Created with sK1/UniConvertor (http://sk1project.org/) -->
<svg xmlns="http://www.w3.org/2000/svg" xmlns:xlink="http://www.w3.org/1999/xlink"
  width="595.276pt" height="841.89pt" viewBox="0 0 595.276 841.89"
  fill-rule="evenodd">
    <path
       style="fill:#000000;stroke:none"
       d="m 26.911795,86.98979 c 5.227014,1.259 10.449019,2.105 13.80002,2.33701 9.521016,0.662 25.811043,-1.13101 35.975053,-4.11402 6.886012,-2.02099 20.349039,-7.8 24.270042,-14.076011 1.873,-2.997 3.04201,-8.609014 0.321,-10.446011 -0.744,-0.502001 -4.958005,-1.217003 -5.986008,-1.290003 -2.245006,-0.159001 -5.366006,0 -5.366006,0 0,0 -0.07496,-0.700002 0,-1.238004 0.232001,-1.655004 7.745004,-5.465006 8.256006,-5.728006 2.003008,-1.030003 3.475008,-1.306004 4.644008,0.258 1.13601,1.521004 1.28501,4.230003 2.322,5.676007 2.19201,3.057008 12.96003,1.352003 14.73702,-0.018 0.87201,-0.672002 3.39701,-6.235008 3.58001,-7.887013 0.417,-3.761001 -0.612,-9.341016 -2.322,-13.766019 -0.384,-0.994003 -0.94601,-1.745005 -1.98101,-1.032003 -0.57499,0.395001 -2.242,4.770012 -2.405,5.676007 -0.091,0.506001 -0.082,0.952002 0,1.548004 0.381,2.762007 2.334,8.751014 2.334,8.751014 l -5.537,0.419002 c -1.39001,0.105 -1.62901,0.101 -2.398,-0.046 -1.09701,-0.21 -1.86101,-0.605001 -2.39701,-1.385003 -0.967,-1.408004 -1.05,-3.763002 -2.063,-5.159005 -3.60001,-4.962005 -13.955024,3.046999 -15.738029,4.385003 -3.345001,2.511006 -6.439009,5.430006 -7.481011,9.546017 -0.686994,2.712007 -0.958995,7.24701 -0.958995,7.24701 l 14.632022,1.525004 c 0,0 0.076,0.658002 0,1.237995 -0.03496,0.265001 -1.489004,1.141003 -3.330009,2.106006 -10.294018,5.39801 -21.530034,8.53501 -33.065047,9.55601 -6.85201,0.607 -14.154021,0.846 -18.495032,0.515 -1.565004,-0.119 -9.110016,-1.278 -15.784025,-2.626 C 17.038786,77.05578 7.2967688,74.429777 3.7287676,67.727768 2.7997652,65.982764 1.1467609,62.936756 0.14575827,64.044759 c -0.2730007,0.302 -0.12600032,1.103002 0.14100037,2.030005 0.24500063,0.852002 0.49100127,1.620004 0.72400186,2.313006 5.3840059,16.02601 28.0490405,19.11902 25.9010345,18.60202 z m 89.524135,-11.944011 6.30201,-6.302008 -6.30201,-6.302017 -6.30201,6.302017 6.30201,6.302008 z M 93.722898,89.9588 l 4.379004,4.379 6.302018,-6.30201 -6.302018,-6.30201 -4.379004,4.37901 -4.379003,-4.37901 -6.302008,6.30201 6.302008,6.30201 4.379003,-4.379 z M 61.357852,50.86174 c 0,0 4.110003,-1.342003 5.739007,-0.972002 0.860002,0.196 1.748997,1.742004 2.306998,2.928007 1.012003,2.150998 1.988005,4.921005 2.359006,7.119011 0.123,0.733002 0.257001,1.408004 1.010003,1.666004 0.475001,0.162001 1.197003,0.172001 1.197003,0.172001 0,0 0.0016,-0.012 0.0056,-0.03296 0.360001,-2.027006 1.161003,-5.427014 1.365003,-7.477012 0.215001,-2.153005 0.167001,-2.900007 1.999997,-2.764007 2.77101,0.206001 3.712012,0.695002 4.929016,-1.516004 1.091994,-1.983005 2.288998,-6.031007 0.383001,-7.343011 -5.897018,-1.588004 -8.098016,6.170008 -8.468017,7.946013 -0.522001,2.507006 -0.740002,5.197005 -0.740002,5.197005 0,0 -1.445003,-4.644004 -2.507006,-7.15201 -1.196003,-2.821 -4.281003,-6.621009 -7.609012,-5.671007 -1.653004,0.472001 -2.233998,1.824005 -2.232998,3.614009 8e-4,1.646997 0.262001,4.286003 0.262001,4.286003 z M 113.72593,20.649694 113.23892,9.5236819 c -0.072,-1.650004 -0.101,-1.937005 -0.285,-2.872008 -0.563,-2.865999 -2.07999,-4.436003 -3.666,-5.449006 -2.016,-1.289003 -3.55501,-1.767004 -5.633,0.04704 -1.70901,1.491004 -1.87001,6.89201 -1.19901,7.737012 0.502,0.630002 1.83001,0.573002 3.437,0.122001 4.01501,-1.129003 4.41702,-0.868003 5.46302,4.2110021 0.49699,2.414007 0.55499,4.676013 0.311,7.103011 -0.519,5.156013 -1.73901,7.664012 0.65099,10.690019 0.995,1.260004 2.03401,1.450004 4.30301,0.891003 1.61201,-0.397001 1.93201,-1.293004 2.608,-3.964011 0.476,-1.880996 0.853,-3.565001 0.731,-5.439006 -0.242,-3.720001 -3.604,-10.712011 0.44801,-12.448016 0.747,-0.3210011 1.719,-0.112 2.557,0.107001 1.13,0.294 1.32201,0.161 1.91701,-1.3360041 0.49,-1.230003 1.056,-2.362006 1.36699,-3.686009 1.16901,-4.970005 -0.62099,-6.373009 -4.212,-4.337004 -4.119,2.335007 -5.97001,12.3410161 -5.09001,19.0500261 0.27,2.765007 0.56501,5.255013 0.56501,5.255013 0,0 -0.246,-0.004 -0.53901,-0.038 -1.154,-0.136 -3.135,-1.968005 -3.247,-4.518012 z" />
</svg>
