<?xml version="1.0" encoding="UTF-8" standalone="yes"?>
<!-- Created with sK1/UniConvertor (http://sk1project.org/) -->
<svg xmlns="http://www.w3.org/2000/svg" xmlns:xlink="http://www.w3.org/1999/xlink"
  width="595.276pt" height="841.89pt" viewBox="0 0 595.276 841.89"
  fill-rule="evenodd">
    <path
       style="fill:#000000;stroke:none"
       d="m 107.75975,16.056795 -0.454,-8.6509765 c -0.067,-1.282997 -0.093,-1.506997 -0.264,-2.232995 -0.525,-2.228996 -1.93599,-3.448993 -3.41099,-4.236984 -1.876,-1.001998 -3.30699,-1.373997 -5.240989,0.036 -1.588997,1.15999 -1.738996,5.358982 -1.113998,6.01598 0.465999,0.489999 1.700997,0.445999 3.196997,0.095 3.73399,-0.876998 4.10899,-0.674999 5.08199,3.2749945 0.462,1.875996 0.516,3.634985 0.289,5.521981 -0.483,4.008992 -1.617,5.958988 0.606,8.311984 0.92499,0.97999 1.89199,1.127989 4.00298,0.692998 1.5,-0.308999 1.797,-1.005998 2.42599,-3.081994 0.443,-1.462997 0.793,-2.771994 0.68,-4.229991 -0.226,-2.891994 -3.35299,-8.3279765 0.416,-9.6789735 0.696,-0.249 1.6,-0.086 2.38,0.084 1.051,0.229 1.22899,0.125 1.78299,-1.038999 0.455,-0.955998 0.982,-1.835996 1.272,-2.865994 1.087,-3.863984 -0.578,-4.954982 -3.91899,-3.371985 -3.83199,1.815988 -5.55299,9.5959735 -4.73499,14.8119555 0.251,2.149996 0.526,4.085992 0.526,4.085992 0,0 -0.23,-0.0032 -0.502,-0.03 -1.073,-0.105 -2.91599,-1.528997 -3.01999,-3.511993 z m -52.691052,27.533889 -4.88099,4.84899 c -0.810999,0.80599 -0.926999,0.95099 -1.153998,1.446989 -0.316999,0.694999 -0.426999,1.856996 -0.271,2.014996 0.504999,0.509999 2.292996,-0.727998 2.914995,-1.186998 5.448989,-4.018983 7.930984,-6.549978 8.811974,-11.752968 0.447999,-2.644987 -0.95199,-3.668985 -3.429985,-4.005984 -3.931992,-0.535999 -7.832984,0.012 -9.359973,2.971986 0.237999,11.300969 0.573998,4.83799 3.907984,4.035992 3.707992,-0.891998 7.695984,-2.874994 3.460993,1.626997 z M 73.555837,8.8177765 68.674855,13.66676 c -0.810999,0.805998 -0.926999,0.950998 -1.153998,1.446997 -0.317999,0.694998 -0.426999,1.856996 -0.271,2.014996 0.504999,0.509999 2.292996,-0.727999 2.914995,-1.186998 5.448981,-4.018984 7.930976,-6.5499795 8.811974,-11.7539695 0.447999,-2.644995 -0.951998,-3.667985 -3.430993,-4.005984 -3.930984,-0.534999 -7.831976,0.01296 -9.359973,2.972986 0.238999,11.3009705 0.574998,4.837991 3.907992,4.035992 3.708984,-0.892998 7.696976,-2.874994 3.461985,1.626997 z m 58.923853,0 -4.88099,4.8489835 c -0.811,0.805998 -0.927,0.950998 -1.154,1.446997 -0.318,0.694998 -0.428,1.856996 -0.271,2.014996 0.505,0.509999 2.29299,-0.727999 2.91499,-1.186998 5.44898,-4.018984 7.93098,-6.5499795 8.81198,-11.7539695 0.448,-2.644995 -0.953,-3.667985 -3.431,-4.005984 -3.93098,-0.534999 -7.83197,0.01296 -9.35997,2.972986 0.239,11.3009705 0.574,4.837991 3.90799,4.035992 3.70899,-0.892998 7.69698,-2.874994 3.462,1.626997 z m -48.282874,1.177998 c 0.162999,2.2409955 1.207989,3.6349855 3.109985,4.0369845 2.452995,0.517999 3.839993,-0.811999 4.468991,-3.502985 0.138,-0.5899995 0.107,-1.0819985 -0.272999,-1.3199975 -0.722999,-0.451 -2.707995,0.01704 -3.666993,-0.492 -1.193997,-0.633998 -1.496997,-3.329994 -1.201997,-4.589991 0.294999,-1.260998 1.048998,-2.611995 1.253997,-3.583985 0.042,-0.196999 0.06104,-0.378999 -0.02496,-0.479999 -0.01104,-0.012 -0.022,-0.024 -0.03296,-0.036 -2.886994,-0.657998 -3.588985,10.5729725 -3.632984,9.967973 z M 98.446771,74.918597 c -0.362999,2.269995 0.07896,2.827994 1.587999,2.130996 1.028,-0.474999 14.28796,-8.187976 16.22496,-10.497971 0.78,-0.929998 1.55799,-2.575995 1.83199,-4.055992 0.17,-0.911998 -0.104,-0.879998 -1.08599,-0.514999 -2.276,0.845998 -17.277962,9.97898 -17.747961,10.803978 -0.438999,0.770991 -0.720998,1.570989 -0.810998,2.133988 z m 7.226989,-19.195946 4.45898,4.459992 6.41799,-6.417988 -6.41799,-6.417979 -4.45898,4.458983 -4.45999,-4.458983 -6.417984,6.417979 6.417984,6.417988 4.45999,-4.459992 z m -31.419925,24.060941 4.459992,4.45899 6.417979,-6.417991 -6.417979,-6.417979 -4.459992,4.459983 -4.459983,-4.459983 -6.417987,6.417979 6.417987,6.417991 4.459983,-4.45899 z m 63.954835,-19.600949 6.41798,-6.417988 -6.41798,-6.417979 -6.41798,6.417979 6.41798,6.417988 z m -47.424876,13.994956 6.41798,-6.41798 -6.41798,-6.417987 -6.417979,6.417987 6.417979,6.41798 z m -9.932972,-17.08695 -6.480987,3.757992 c -6.266979,1.856988 -14.294955,2.926986 -22.10194,3.480985 l -0.05104,-0.04896 c -4.702983,0 -8.664975,-0.168999 -11.19897,-0.411999 C 26.408923,62.46367 16.91995,59.027685 6.487979,50.083703 L 0,44.521722 3.1649857,50.936701 c 1.3229973,2.681995 3.1099937,6.325987 4.3929912,8.598983 3.8139921,6.756978 13.2839651,9.935972 21.9319401,11.441969 16.856958,2.935986 32.475911,3.065986 45.424877,-3.073994 0.0048,-0.0024 0.01,-0.0048 0.01504,-0.0072 3.291993,-1.572997 8.510983,-6.308987 9.840972,-9.062974 0.044,-0.093 2.074996,-7.070986 1.523997,-9.210981 -0.315999,-1.22299 -1.453997,-2.444987 -2.309987,-2.903987 -2.513995,-1.344997 -10.760979,-1.003998 -12.800966,-2.264995 -0.503999,-0.310999 -1.103998,-1.138998 -0.664999,-1.976996 0.410999,-0.785998 5.370981,-2.266996 5.620981,-2.320995 1.729996,-0.374 5.919988,-0.547999 6.880986,0.308999 0.817998,0.730999 0.966998,2.370995 1.809988,3.297993 2.256996,2.478995 9.551981,1.758997 12.148968,0.466999 0.758998,-0.377999 1.618997,-0.910998 2.425995,-1.451997 l 3.020991,-2.025996 1.805,1.598997 c 0.72,0.637999 1.535,1.309998 2.22,1.742997 2.98698,1.890996 8.38997,1.913996 11.08196,0.278999 0.893,-0.541999 1.915,-1.526997 2.908,-2.382995 l 2.94199,-2.534995 1.62199,2.509995 c 0.292,0.450999 0.581,0.921998 0.879,1.296997 1.821,2.296996 9.14197,2.389996 13.02897,2.512995 2.92499,0.093 3.93599,-0.585998 5.50899,-3.108993 2.88998,-4.636991 5.34098,-8.884975 4.18898,-13.382966 -0.495,-1.935996 -1.489,-3.644992 -1.709,-6.333979 -0.072,-0.885998 -0.101,-1.877996 -0.155,-2.709995 -0.053,-0.797998 -1.80799,-3.410993 -2.86998,-2.380995 -1.56,1.513997 -3.151,6.246988 -3.392,8.210976 -0.104,0.848998 -0.063,1.667996 0.198,2.830994 0.597,2.655995 2.345,7.105986 2.345,7.105986 0,0 -1.754,0.197999 -3.202,0.223999 -1.00499,0.018 -7.04198,-1.011998 -8.76197,-1.757996 -0.606,-0.263 -1.084,-0.618999 -1.402,-1.218998 -1.29599,-2.439995 -0.511,-4.009992 -2.17399,-3.266993 -2.19,0.977998 -5.18499,4.343991 -8.10598,5.565989 -2.46699,1.031998 -9.65498,0.615999 -11.89197,-3.304994 -1.41299,-2.476995 -2.01299,0.379 -5.89199,2.704995 -2.239991,1.342997 -8.118971,1.804996 -10.483966,0.732999 -0.605999,-0.274 -1.076998,-0.638999 -1.723997,-1.354998 -1.193997,-1.322997 -2.985994,-3.846992 -2.985994,-3.846992 l -6.16998,0.431999 c -1.414997,0.099 -1.725996,0.148 -3.108993,0.493999 -5.209982,1.302997 -7.640977,4.778991 -9.624973,9.350973 -1.538997,3.547993 -3.640993,10.94797 0.672999,13.385966 1.023998,0.578998 3.951992,1.136997 6.544979,1.511997 l 6.131987,1.432997 z M 2.8670343,80.096592 c 0.1629996,2.23999 1.2079975,3.63399 3.1099937,4.03599 2.4529951,0.519 3.8399924,-0.812 4.468983,-3.50299 0.138,-0.59 0.107,-1.082 -0.272991,-1.32 -0.7229989,-0.451003 -2.7079949,0.018 -3.666993,-0.492003 -1.1939976,-0.633998 -1.496997,-3.329993 -1.2019976,-4.589991 0.2949994,-1.260989 1.0489979,-2.611986 1.2539975,-3.583984 0.042,-0.197 0.06104,-0.378 -0.02496,-0.478999 -0.01104,-0.01304 -0.022,-0.02496 -0.03296,-0.036 -2.8869942,-0.658999 -3.5889928,10.571977 -3.6329927,9.967977 z" />
</svg>
