<?xml version="1.0" encoding="UTF-8" standalone="yes"?>
<!-- Created with sK1/UniConvertor (http://sk1project.org/) -->
<svg xmlns="http://www.w3.org/2000/svg" xmlns:xlink="http://www.w3.org/1999/xlink"
  width="595.276pt" height="841.89pt" viewBox="0 0 595.276 841.89"
  fill-rule="evenodd">
  <path
     style="fill:#000000;stroke:none"
     d="m 9.557009,18.291065 c 0.694999,-0.845999 1.210998,-1.776997 0.991998,-2.668987 C 10.180008,14.126081 8.5570111,14.69408 6.8780147,14.172081 4.2910201,13.369083 4.1800203,9.4180905 4.5840195,6.5930965 4.6940192,5.8280975 4.9070188,5.1030995 5.272018,4.3081015 5.776017,3.2111035 6.5690154,1.9801056 6.8780147,1.0961076 7.0620143,0.57110865 6.8669747,0.51310865 6.1440162,0.59610865 c -0.3299993,0.03696 -0.4369991,0.16 -1.0729977,1.22699795 C 2.1560245,6.7190965 1.911025,9.5010905 2.2900242,14.87008 c 0.03304,0.463999 0.1039998,0.942998 0.2119996,1.388997 0.8919981,3.671984 5.4259888,4.013984 7.0549852,2.031988 z M 5.6240173,19.093063 C 0.78502735,27.389046 -1.2089685,32.718035 0.74002744,40.90001 2.6630234,48.969993 11.954004,52.182986 20.926977,49.426992 c 5.675989,-1.743996 11.314977,-6.063987 12.872974,-11.357976 0.633999,-2.152988 0.761998,-4.033984 1.934988,-4.738983 1.545997,-0.928998 6.843986,-0.482999 9.43198,-0.917998 0.975998,-0.163999 1.612997,-0.481999 2.232996,-1.146997 0.892998,-0.956998 3.143993,-6.848986 3.226993,-8.441983 0.11,-2.130995 -1.883996,-10.57097 -3.305993,-11.745967 -1.372997,-1.1339985 -1.906996,0.916998 -2.650995,3.211993 -0.244999,0.756998 -0.486999,1.336997 -0.495999,2.293987 -0.022,2.207996 1.190998,6.422987 1.190998,6.422987 l 0.793998,0 0,2.752994 c 0,0 -2.790994,0.494999 -4.76499,0.458999 -1.970996,-0.03496 -6.143979,-1.726996 -7.395977,-3.211993 -1.203997,-1.425997 -1.862996,-4.629991 -3.891992,-3.669993 -1.693996,0.800999 -2.510994,5.552989 -2.312995,6.698987 0.292,1.687996 3.979992,8.185983 3.588993,11.348968 -0.103,0.826998 -0.23,1.005998 -1.273998,1.790996 -5.267989,3.957992 -11.639975,5.02299 -17.205956,3.330994 C 7.2980139,40.80301 4.2390202,36.777026 3.4700218,30.990038 3.1480224,28.562043 3.8070211,27.432046 4.9590187,24.383052 5.7000172,22.425056 6.6130153,19.968061 7.4670135,18.497064 10.578007,13.247083 5.6620172,19.028063 5.6240173,19.093063 z M 37.402935,8.2200925 c -0.283999,-0.06696 -0.814998,-0.152999 -1.165997,0 -0.95099,0.415 -0.571999,2.5849955 -1.21999,3.4409935 -0.368999,0.486999 -1.069997,0.548999 -1.376997,0.229 -0.887998,-0.922998 1.627997,-5.9119885 2.064988,-7.3409855 1.413997,-4.62598985 1.173997,-7.3159839 -1.768988,-11.0619689 -1.000998,-1.273997 -1.853997,-1.403997 -2.359996,0.05096 -0.512998,1.470997 -1.106997,3.095986 -0.445999,4.154984 0.402,0.643998 1.261998,1.112997 1.821997,1.80899605 0.863998,1.074997 1.638996,3.98599085 1.605996,4.81798985 -0.06304,1.577996 -1.162997,3.371993 -1.834996,5.275989 -1.207997,3.4229935 -1.814996,6.1079875 0.457999,7.5709765 1.957996,1.258997 5.65498,1.368997 7.111977,-0.687999 0.961998,-1.357989 1.456997,-4.250983 1.146998,-5.202981 C 40.989928,9.8900495 39.084932,8.6180525 37.402935,8.2200525 z m 2.346996,42.3578975 5.603988,-5.602989 -5.603988,-5.603988 -5.602981,5.603988 5.602981,5.602989 z M 16.518983,11.20694 22.122972,5.6039519 16.518983,-3.6104905e-5 10.915003,5.6039519 16.518983,11.20694 z m -3.657977,49.92402 c 0.156,2.141996 1.154989,3.472993 2.971986,3.857992 2.344995,0.495999 3.670992,-0.775998 4.271991,-3.347993 0.132,-0.564999 0.103,-1.034998 -0.261,-1.261997 -0.689998,-0.432 -2.587994,0.01704 -3.504992,-0.471 -1.140998,-0.605998 -1.430997,-3.181985 -1.148998,-4.386982 0.282999,-1.204998 1.002998,-2.496995 1.198998,-3.425993 0.04,-0.188 0.058,-0.361 -0.024,-0.457999 -0.01,-0.012 -0.02096,-0.024 -0.03096,-0.034 -2.759995,-0.629999 -3.430985,10.105971 -3.472985,9.527972 z M 6.7208922,28.954025 c 0,0 3.6549928,-1.193998 5.1039888,-0.863999 0.763998,0.174 1.553997,1.548997 2.049988,2.602995 0.900998,1.911996 1.768996,4.375991 2.097995,6.330979 0.11,0.650999 0.229,1.250997 0.898999,1.479997 0.421999,0.145 1.063997,0.154 1.063997,0.154 0,0 0.0016,-0.01 0.0048,-0.03 0.32,-1.801997 1.031998,-4.824982 1.213998,-6.647979 0.190999,-1.914996 0.148,-2.578994 1.778996,-2.457994 2.462995,0.182999 3.299993,0.617998 4.382991,-1.347998 0.970998,-1.762996 2.034996,-5.362989 0.339999,-6.529986 -5.243989,-1.411997 -7.200985,5.486988 -7.529984,7.065985 -0.463999,2.229996 -0.657999,4.620991 -0.657999,4.620991 0,0 -1.284997,-4.128992 -2.229995,-6.358987 -1.061998,-2.508995 -3.805984,-5.887988 -6.7649771,-5.04299 -1.4699973,0.418999 -1.9869962,1.621997 -1.9859962,3.212994 8e-4,1.464997 0.2329995,3.811992 0.2329995,3.811992 z" />
</svg>
