<?xml version="1.0" encoding="UTF-8" standalone="yes"?>
<!-- Created with sK1/UniConvertor (http://sk1project.org/) -->
<svg xmlns="http://www.w3.org/2000/svg" xmlns:xlink="http://www.w3.org/1999/xlink"
  width="595.276pt" height="841.89pt" viewBox="0 0 595.276 841.89"
  fill-rule="evenodd">
	<path
		style="stroke:none;fill:#000000"
		d="m 38.010842,36.882321 c 0.178999,2.464992 1.329995,3.996986 3.423988,4.439985 2.700992,0.569998 4.228987,-0.892997 4.920984,-3.852987 0.152,-0.649998 0.118,-1.190996 -0.300999,-1.451995 -0.794997,-0.496999 -2.98099,0.01904 -4.037986,-0.541999 -1.313996,-0.696997 -1.647995,-3.661988 -1.322996,-5.048983 0.324999,-1.386995 1.154996,-2.872991 1.380995,-3.941987 0.046,-0.216999 0.06704,-0.415999 -0.028,-0.526998 -0.012,-0.014 -0.024,-0.028 -0.036,-0.04 -3.17899,-0.723998 -3.951987,11.629961 -3.999987,10.964964 z M 23.578897,23.205366 18.874913,28.05435 c -0.781998,0.804997 -0.892997,0.949997 -1.111996,1.445995 -0.305999,0.694998 -0.411999,1.856994 -0.262,2.014993 0.487999,0.509999 2.209993,-0.727997 2.809991,-1.186996 5.250983,-4.017986 7.643967,-6.548978 8.492964,-11.752961 0.430999,-2.644991 -0.918997,-3.668988 -3.306981,-4.005987 -3.788987,-0.534998 -7.547975,0.012 -9.01997,2.97199 0.229999,11.300963 0.552998,4.838985 3.765987,4.035987 3.573989,-0.891997 7.417968,-2.87399 3.335989,1.627995 z m 15.82894,-7.148977 -0.436998,-8.650971 c -0.06504,-1.282996 -0.09,-1.506995 -0.255,-2.233992 C 38.209841,2.943433 36.850846,1.722437 35.42885,0.93544 c -1.807994,-1.001997 -3.187989,-1.374988 -5.050983,0.036 -1.531995,1.159997 -1.675995,5.358983 -1.073997,6.015981 0.448999,0.489998 1.639995,0.445998 3.08099,0.094 3.598988,-0.876997 3.959987,-0.673998 4.897984,3.274989 0.444999,1.876994 0.497999,3.635988 0.278999,5.522982 -0.465998,4.008987 -1.558995,5.95898 0.583998,8.311973 0.890997,0.978996 1.822994,1.127996 3.856988,0.692997 1.445995,-0.308999 1.731994,-1.005996 2.337992,-3.08299 0.426998,-1.461995 0.764997,-2.77099 0.654998,-4.228986 -0.217,-2.89199 -3.22999,-8.327972 0.401998,-9.678967 0.669998,-0.249 1.541995,-0.086 2.292993,0.083 1.012996,0.228999 1.184996,0.126 1.717994,-1.037996 0.438999,-0.955997 0.946997,-1.835994 1.225996,-2.865991 1.047997,-3.864987 -0.556998,-4.954975 -3.775987,-3.371989 -3.692988,1.815994 -5.351983,9.595968 -4.562985,14.811951 0.240999,2.149993 0.505998,4.085987 0.505998,4.085987 0,0 -0.220999,-0.0032 -0.483998,-0.03 -1.033997,-0.105 -2.809991,-1.529995 -2.909991,-3.511989 z m -17.220935,29.164896 6.455971,-6.448971 -6.455971,-6.447978 -6.455979,6.447978 6.455979,6.448971 z m 20.037926,36.225879 6.454979,-6.448977 -6.454979,-6.447979 -6.455979,6.447979 6.455979,6.448977 z M 1.0499718,52.535261 c -0.77599745,2.113993 -0.99099674,3.612988 -1.04799655,7.287976 -0.02799991,1.821994 0.24499919,4.555985 0.60799799,5.419982 0.23799924,0.567998 0.56499816,1.044997 0.79099746,1.610995 0.283999,0.714997 0.4059986,1.570995 0.7149976,2.326992 0.5759981,1.405995 4.0129868,5.468982 5.143983,6.344979 0.7839974,0.607998 4.4829847,2.127993 5.7909807,2.379992 1.667995,0.321999 9.07397,0.732998 11.783961,-0.386998 5.502974,-2.276993 6.969969,-4.991984 9.235962,-9.10097 0.01704,-0.06304 0.03296,-0.126 0.048,-0.187 0.123999,-0.523998 0.141999,-0.967997 0.400998,-1.620994 0.436999,-1.097997 1.556995,-2.788991 1.556995,-2.788991 0,0 4.302986,0.781997 6.484979,0.561998 0.399998,-0.04 4.224986,-1.462995 5.242982,-2.401992 1.396996,-1.286996 3.837988,-7.967974 3.857988,-8.170973 0.091,-0.956997 -0.244999,-1.362996 -0.859997,-2.811991 -1.026997,-2.421992 -1.428996,-5.460982 -2.211993,-7.484967 -0.329999,-0.852997 -0.700998,-1.335996 -1.358996,-0.950997 -0.839997,0.489998 -1.766994,2.760983 -2.119993,3.874979 -0.318999,1.002997 -0.495998,1.911994 -0.691997,2.96799 -0.24,1.287996 -0.186,4.056987 0.085,4.410986 0.380999,0.497998 1.118997,1.138996 1.196996,1.710994 0.02496,0.184 0.03096,0.394999 0.03096,0.394999 l -1.948993,0.154999 c -0.711998,0.056 -0.850997,0.06096 -1.389996,0.044 -0.706997,-0.02104 -3.03199,-0.807997 -3.103989,-0.838997 -1.559995,-0.662998 -5.475982,-3.769988 -6.019981,-5.019983 -0.260999,-0.598999 -0.728997,-3.05099 -1.809994,-2.476992 -0.193999,0.102999 -0.354998,0.325999 -0.511998,0.569998 -1.481995,2.314992 -2.599991,5.834981 -2.154993,7.904974 0.415999,1.937993 1.968994,4.338985 2.410992,6.984977 0.290999,1.743994 0.308999,3.892987 0.308999,3.892987 0,0 -2.105993,1.161996 -3.695988,1.857994 C 23.02786,71.0932 17.835877,70.448202 13.130893,68.739208 9.3009045,67.349212 7.5879102,65.322219 5.7239164,61.215232 3.3219243,55.92025 3.6119234,49.457271 7.2209114,44.102297 7.7299098,43.348299 11.304898,38.562315 10.5799,37.259319 c -0.095,-0.170999 -0.318999,-0.180999 -0.6319976,0.05104 -0.2139993,0.158 -0.4709985,0.428999 -0.7049977,0.703998 -5.0879831,5.95998 -6.6859779,10.410958 -8.1929729,14.520944 z"/>
</svg>