<?xml version="1.0" encoding="UTF-8" standalone="no"?>
<svg>
  <path
     d="m 13.070566,11.262357 -5.7762498,6.193694 c -0.96045,1.028323 -1.0962,1.213285 -1.36431,1.847927 -0.37671,0.88748 -0.50736,2.372283 -0.32241,2.572518 0.599,0.653294 2.71334,-0.929903 3.44981,-1.515348 6.4482298,-5.133144 9.3838798,-8.365729 10.4274698,-15.0124974 0.52945,-3.3785467 -1.12844,-4.68516167 -4.06069,-5.11617494 -4.65121,-0.68383818 -9.2667998,0.01534 -11.0739798,3.79598474 0.28168,14.4355506 0.67876,6.1801196 4.62404,5.1551766 4.3881898,-1.1403186 9.1072898,-3.6720837 4.0963198,2.07872 z m 17.64611,-0.04073 -8.26052,9.246436 8.26052,9.244725 8.25884,-9.244725 -8.25884,-9.246436 z m 8.37253,65.673552 c -7.65474,2.39095 -15.85248,1.903925 -22.37367,-2.124508 -1.534,-0.946872 -2.88475,-2.00745 -4.06578,-3.16304 -11.3522998,-11.109635 -6.3311598,-26.475089 0.73983,-37.815489 0.28508,-0.456467 0.52265,-0.892571 0.66689,-1.296447 0.0629,-0.171387 0.10697,-0.337684 0,-0.446285 -0.18157,-0.188357 -0.80943,-0.210416 -0.95875,0 -2.44862,3.456604 -9.7283298,15.596245 -11.5474298,21.063666 -3.15624,9.490789 -1.49667001,22.214165 5.01096,28.679378 1.04359,1.036794 2.07191,1.946334 3.09346,2.740484 0.0848,0.06625 0.17139,0.132358 0.25793,0.196841 18.5505398,13.934978 37.5083498,-2.519887 43.0996498,-17.958321 0.67367,-1.858108 1.54078,-2.485962 2.92717,-2.06513 1.19122,0.363137 2.74727,1.388066 4.20491,1.790232 3.47527,0.958764 14.02152,-2.082099 17.79204,-3.999599 10.88902,-5.540387 8.45228,-19.858865 5.35542,-28.791361 -0.63294,-1.827578 -1.24892,-3.392122 -1.70708,-4.216803 -1.19122,-2.139794 -2.83042,-4.547712 -2.83042,-4.547712 0,0 -2.15339,3.371759 -3.3514,5.766075 -2.02272,4.038641 -1.8157,5.453858 -0.51925,8.418347 0.55828,1.272677 1.00287,2.440146 1.35413,3.512589 8.2724,10.072814 -5.32658,12.782767 -11.29289,12.37042 -2.63529,-0.181569 -5.43519,-1.255708 -8.56088,-3.443002 -1.45086,-1.014748 -3.52957,-3.622901 -4.41365,-5.319803 -0.72967,-1.401628 -0.97742,-2.879644 -1.94464,-5.250217 -0.75683,-1.851321 -1.95315,-4.249044 -1.95315,-4.249044 0,0 -1.89713,4.537517 -2.96449,7.412084 -0.86034,2.319652 -1.13015,3.434517 -1.07754,5.15857 0.0357,1.143726 0.6075,3.918148 1.28457,6.543257 5.34524,20.739557 -9.61806,22.093686 -6.22594,21.034818 z m 24.90376,-34.63719 c 0.09,-0.668579 0.25283,-0.544705 0.84505,-0.819604 2.06003,-0.953659 2.07021,-6.112243 1.91919,-7.447705 -0.27151,-2.404525 -0.90954,-2.765965 -2.79648,-4.912533 -0.35975,-0.407257 -0.64143,-0.777182 -1.19971,-1.118259 -1.17935,-0.71779 -3.59576,-1.296434 -3.59576,-1.296434 0,0 0.44968,-1.880181 0.79925,-3.400606 1.25061,-5.453845 1.06226,-6.502531 -0.20024,-10.736303 C 58.080956,6.8843475 57.118806,4.7479471 53.752146,0.95365928 52.990236,0.09502655 52.857876,0 52.416676,0 l -0.4921,0 c -0.4395,0 -0.52774,0.12719983 -0.86881,1.2777676 -0.41405,1.3914602 -0.82638,4.540925 -0.68384,5.1365379 0.23585,0.9825066 2.00063,2.6454576 3.19695,4.0980205 1.46443,1.778354 4.1184,7.188079 4.39669,9.349933 0.15781,1.230268 -0.11376,4.574849 -0.99948,5.637111 -0.34786,0.419134 -0.8213,0.639732 -1.12674,1.062274 -0.68896,0.953659 -0.97573,4.211699 -1.07076,5.290929 -0.33429,3.824832 0.33259,5.599792 2.39774,8.633854 1.49156,2.194095 2.09905,1.973498 5.59299,2.004042 1.08093,0.0081 1.2048,-0.01358 1.23365,-0.232476 z m 1.91918,27.858064 -8.86121,10.140704 9.01732,9.964199 8.86124,-10.13898 -9.01735,-9.965923 z"
     style="fill:#000000;stroke:none" />
</svg>
