<?xml version="1.0" encoding="UTF-8" standalone="yes"?>
<!-- Created with sK1/UniConvertor (http://sk1project.org/) -->
<svg xmlns="http://www.w3.org/2000/svg" xmlns:xlink="http://www.w3.org/1999/xlink"
  width="595.276pt" height="841.89pt" viewBox="0 0 595.276 841.89"
  fill-rule="evenodd">
  <path
     d="M 49.368171,17.050728 48.88617,7.8647239 c -0.07104,-1.363002 -0.099,-1.600002 -0.281,-2.372003 -0.557001,-2.367003 -2.055003,-3.663005 -3.621997,-4.49900603 -1.992002,-1.064001 -3.512004,-1.460002 -5.565007,0.038 -1.688002,1.232002 -1.847002,5.691008 -1.184002,6.389008 0.496001,0.520001 1.808003,0.473001 3.395005,0.100001 3.966997,-0.931002 4.363997,-0.717001 5.396999,3.4780041 0.491,1.992994 0.549,3.859997 0.307,5.864999 -0.512,4.257006 -1.717002,6.327009 0.644001,8.826004 0.982001,1.040001 2.009003,1.198001 4.251005,0.736001 1.592003,-0.328001 1.908003,-1.068002 2.576004,-3.272997 0.47,-1.553002 0.842001,-2.944003 0.722001,-4.492005 -0.239001,-3.071004 -3.560005,-8.8440041 0.442,-10.2780061 0.739001,-0.265 1.699002,-0.092 2.526996,0.089 1.116001,0.243 1.305001,0.133 1.893002,-1.103002 0.484001,-1.016001 1.044001,-1.950002 1.351002,-3.044004 C 62.89418,0.22071287 61.126178,-0.93728813 57.578181,0.74371387 53.508176,2.6717159 51.680174,10.934727 52.550175,16.472726 c 0.266,2.284003 0.558001,4.340005 0.558001,4.340005 0,0 -0.244001,-0.0032 -0.533001,-0.032 -1.140002,-0.112 -3.097004,-1.624002 -3.207004,-3.730004 z M 27.617159,9.3637259 22.433152,14.512724 c -0.861001,0.856001 -0.984001,1.010002 -1.225001,1.537002 -0.337001,0.738001 -0.454001,1.972003 -0.288001,2.139003 0.537001,0.542001 2.435003,-0.773001 3.096004,-1.260002 5.786008,-4.268005 8.422011,-6.9550001 9.358004,-12.4810071 0.475001,-2.809004 -1.011993,-3.89600503 -3.643997,-4.25400603 -4.175005,-0.569001 -8.31801,0.01304 -9.939004,3.15600403 0.253,12.0010071 0.608992,5.138007 4.149997,4.286006 3.938005,-0.948001 8.173011,-3.053004 3.676005,1.728002 z m 1.898002,32.3290171 6.226,-6.225 -6.226,-6.226008 -6.225008,6.226008 6.225008,6.225 z m 22.640013,37.756025 6.225,-6.226 -6.225,-6.225008 -6.226008,6.225008 6.226008,6.226 z M 14.46215,39.663741 12.478147,40.884742 c 0.161,-0.022 0.249001,-0.034 0.249001,-0.034 0,0 -2.023003,3.164004 -3.3350046,5.402007 -2.9249959,4.990999 -5.6319993,14.08701 -3.822997,19.115009 2.5189953,6.998009 7.4740016,9.827005 14.8330026,10.704006 5.979008,0.712001 10.944015,-0.858001 15.496012,-3.822997 1.681003,-1.095002 4.950007,-4.700006 5.428007,-5.987008 0.909002,-2.446003 0.780001,-3.620005 2.376003,-3.263004 0.687001,0.154 1.608003,0.533 2.472996,0.855001 3.955005,1.478002 5.756007,1.271002 9.603012,-0.27 1.111001,-0.446001 2.175003,-0.918002 2.802996,-1.783995 0.553,-0.763001 0.767001,-1.832002 1.274001,-2.804003 0.499001,-0.955002 1.280002,-1.817003 1.784003,-2.803004 1.990002,-3.892005 -0.042,-7.593002 -2.038003,-12.351008 -0.532001,-1.271002 -0.637001,-1.417002 -1.047001,-1.464002 -1.392994,-0.159 -2.080995,0.836001 -2.829996,2.985004 -0.410001,1.177002 -0.447001,1.461002 -0.370001,2.835004 l 0.424001,7.485001 1.019001,0 0,1.529002 -4.424005,0 c -1.377002,0 -1.660002,-0.046 -2.838004,-0.456 -2.234003,-0.779001 -4.616998,-2.964004 -5.486999,-4.795006 -1.109001,-2.332995 -1.578002,-6.059 -3.256004,-5.452999 -2.127003,0.767001 -3.169004,8.378002 -2.855004,10.296005 0.405001,2.475003 2.071003,6.764001 2.071003,6.764001 0,0 -3.459005,1.916002 -6.149008,3.074004 C 25.865157,70.084764 15.948152,68.707762 10.922145,61.799761 8.4511422,58.403757 8.324142,54.116751 9.6471437,50.075746 11.555146,44.248747 13.651149,42.694745 14.46215,39.663741 z m 0.592001,-2.814996 1.095001,-2.419003 c 0.012,-0.224 0.01904,-0.456001 0.02104,-0.698001 0.02696,-3.762005 -1.023001,-2.496003 -3.378004,-1.299002 C 9.7771839,33.965741 5.284186,33.430741 3.6171839,31.158738 1.8961817,28.811735 2.5391825,22.206734 3.3621835,19.434731 c 0.6430009,-2.166003 1.7430023,-4.425006 2.294003,-6.371009 0.2180003,-0.772001 0.1060001,-0.870001 -0.5440007,-0.796001 -0.2440003,0.028 -0.3360004,0.170001 -0.9140012,1.421002 -3.7260048,8.069011 -5.9740077,16.726014 -2.3950031,22.520021 0.6920009,1.118994 5.5360072,5.075999 13.2510095,0.640001 z"
     style="fill:#000000;stroke:none" />
</svg>
