<?xml version="1.0" encoding="UTF-8" standalone="yes"?>
<!-- Created with sK1/UniConvertor (http://sk1project.org/) -->
<svg xmlns="http://www.w3.org/2000/svg" xmlns:xlink="http://www.w3.org/1999/xlink"
  width="595.276pt" height="841.89pt" viewBox="0 0 595.276 841.89"
  fill-rule="evenodd">
  <path
     d="M 68.654667,16.05619 68.245669,7.4052307 c -0.06,-1.282994 -0.084,-1.505993 -0.237999,-2.232989 -0.472998,-2.22899 -1.743992,-3.448984 -3.073985,-4.23697998 -1.689992,-1.001995 -2.980986,-1.373994 -4.722978,0.036 -1.432993,1.15999398 -1.566993,5.35997398 -1.003995,6.01597098 0.419998,0.489998 1.532993,0.445998 2.880986,0.095 3.365984,-0.876996 3.702983,-0.674997 4.579979,3.2749843 0.415998,1.876991 0.464997,3.634983 0.260998,5.522974 -0.434998,4.007981 -1.457993,5.957972 0.545998,8.310961 0.832996,0.979995 1.704992,1.127994 3.606983,0.692996 1.351993,-0.308998 1.619992,-1.004995 2.186989,-3.081985 0.398998,-1.461993 0.713997,-2.771987 0.611997,-4.22998 -0.202999,-2.891986 -3.020985,-8.3279613 0.374999,-9.6779543 0.626997,-0.249999 1.441993,-0.087 2.144989,0.083 0.946996,0.228998 1.107995,0.124999 1.606993,-1.037996 0.409998,-0.956995 0.884996,-1.836991 1.145994,-2.866986 C 80.133613,0.20826472 78.63362,-0.88273028 75.622634,0.70026272 72.16865,2.5162537 70.617658,10.296217 71.355654,15.512193 c 0.224999,2.149989 0.472998,4.08598 0.472998,4.08598 0,0 -0.205999,-0.0032 -0.451998,-0.02896 -0.966995,-0.105999 -2.627987,-1.529992 -2.721987,-3.512983 z m -17.492917,6.740968 -4.398979,4.848977 c -0.730997,0.804996 -0.834996,0.949996 -1.038995,1.445993 -0.286999,0.694997 -0.385999,1.856992 -0.244999,2.014991 0.455998,0.509997 2.06599,-0.727997 2.626987,-1.186995 4.910977,-4.017981 7.147967,-6.548969 7.941963,-11.752944 0.403998,-2.644987 -0.858996,-3.668983 -3.091986,-4.005981 -3.542983,-0.534997 -7.058966,0.012 -8.43496,2.971986 0.213999,11.300946 0.516998,4.838977 3.521984,4.035981 3.341984,-0.891996 6.935967,-2.873987 3.118985,1.627992 z m 2.320989,18.859911 5.283975,-5.862972 -5.283975,-5.861973 -5.282975,5.861973 5.282975,5.862972 z m 14.480931,35.086834 5.283975,-5.861972 -5.283975,-5.862973 -5.282975,5.862973 5.282975,5.861972 z m 3.685983,-25.42488 -3.036986,0 c -1.167994,0 -1.415993,-0.026 -2.485988,-0.262999 -1.887991,-0.415998 -3.610983,-1.641992 -4.20998,-3.096985 -0.388998,-0.943995 -1.402993,-6.899967 -3.027986,-4.319979 -1.216994,1.93099 -2.182989,5.717972 -1.94699,7.103966 0.197999,1.163994 0.796996,2.525988 1.297993,3.935981 0.850996,2.398989 1.415994,4.935977 1.729992,7.295966 0.472998,3.555983 -1.357993,3.473983 -6.055971,4.943976 -9.158957,2.864987 -27.94386,4.992977 -40.040803,0.572998 C 10.299951,66.185953 8.4019602,65.628955 4.869977,61.913973 L 0,56.792997 2.11399,61.323976 c 1.5959924,3.419984 4.637978,8.153961 6.4709694,9.777954 7.8559626,6.961967 29.2658536,6.18397 37.1098166,4.456978 3.667982,-0.807996 10.790949,-2.819986 12.358941,-4.601978 1.119995,-1.271994 1.914991,-3.761982 2.853987,-5.793972 0.655997,-1.419994 1.454993,-2.701988 1.875991,-5.131976 0.122999,-0.706997 0.213999,-1.511993 0.213999,-1.511993 l 4.334979,0 c 1.167995,0 1.371994,-0.01496 2.039991,-0.148999 1.646992,-0.329999 2.202989,-1.207994 3.181985,-2.869987 1.339993,-2.271989 3.045985,-5.428974 3.261984,-6.922967 0.246999,-1.706992 -0.330998,-3.816982 -0.705996,-6.37797 -0.305999,-2.08899 -0.564998,-6.787968 -2.23699,-5.577973 -1.282994,0.927995 -2.189989,4.799977 -2.323989,5.993971 -0.200999,1.777992 -0.099,4.044981 0.447998,5.403975 0.244999,0.609997 0.581997,1.085995 0.651997,2.09999 0.036,0.526997 0,1.199994 0,1.199994 z"
     style="fill:#000000;stroke:none" />
</svg>
