<?xml version="1.0" encoding="UTF-8" standalone="no"?>
<svg>
  <path
     d="m 17.686667,10.398931 0.1725,-2.4199996 -3.015,0.7675 C 0.18416758,12.478931 11.537917,-15.908569 8.7291676,-10.714819 c -3.235,5.9812501 -4.65,13.12375 -3.9925,19.5112504 0.07125,0.69625 0.15,1.3312496 0.245,1.9112496 1.53,9.31375 12.2012494,6.76875 12.7049994,-0.30875 z m -3.40875,17.0275 0.47875,1.01125 -1.3325,0.875 c -0.70625,0.4625 -1.73375,0.75375 -2.745,0.9325 -1.5024994,0.26625 -3.7712494,0.73375 -4.0087494,-1.39875 -0.0025,-0.01625 1.335,-0.65 2.41375,-1.23 0.9812504,-0.5275 2.1324994,-0.78125 3.0124994,-0.8975 1.39875,-0.185 1.96875,0.255 2.18125,0.7075 z m -5.0299994,7.96875 c 1.2912494,0.13 2.6237494,-0.01625 3.9899994,-0.5075 2.78625,-1.00125 5.625,-2.74 6.92375,-3.92375 0.945,-0.86125 1.70125,-1.7125 1.8575,-2.2125 0.9525,-3.0325 -0.83,-2.735 -3.09875,-4.0425 -1.7625,-1.015 -2.835,-3.21875 -4.39875,-4.295 -2.5475,-1.755 -8.0637494,-0.5475 -8.6049994,3.49625 -0.30375,2.27 -0.0675,3.51625 -0.6225,3.635 -0.345,0.07375 -0.635,-0.01375 -0.8775,-0.225 -2.84625,-2.48375 -0.42,-11.7625 0.7375,-14.0225 0.985,-1.9225 1.99625,-4.0399996 1.495,-5.3837496 -0.1775,-0.47625 -0.76375,-0.3 -1.44625,0.34 -0.3075,0.28875 -0.78375,0.88 -1.2625,1.6 -1.525,2.2924996 -3.12875002,7.5374996 -3.62750002,11.4674996 -1.22749996,9.67625 5.07125002,13.68375 8.93500002,14.07375 z m 10.6737494,24.1425 4.8275,-5.49625 -4.8275,-5.49625 -4.82625,5.49625 4.82625,5.49625 z m 22.266247,30.090005 4.8275,-5.496255 -4.8275,-5.49625 -4.8275,5.49625 4.8275,5.496255 z M 33.795417,20.245181 33.296667,9.4314314 c -0.07375,-1.60375 -0.1025,-1.8825 -0.29,-2.7912504 -0.57625,-2.78625 -2.125,-4.31125 -3.745,-5.29625 -2.05875,-1.25249999 -3.63,-1.71749999 -5.7525,0.045 -1.74625,1.45 -1.91,6.7000004 -1.22375,7.5200004 0.51125,0.6125 1.8675,0.5575 3.51,0.11875 4.1,-1.09625 4.51125,-0.84375 5.57875,4.0937496 0.5075,2.34625 0.5675,4.54375 0.3175,6.90375 -0.53,5.01 -1.775,7.4475 0.665,10.38875 1.01625,1.225 2.077497,1.41 4.394997,0.86625 1.64625,-0.38625 1.97375,-1.25625 2.66375,-3.8525 0.48625,-1.8275 0.87,-3.465 0.74625,-5.2875 -0.2475,-3.615 -3.68125,-10.41 0.4575,-12.0975 0.76375,-0.3124996 1.75625,-0.1087496 2.6125,0.10375 1.15375,0.28625 1.34875,0.15625 1.9575,-1.2974996 0.5,-1.19625 1.0775,-2.2962504 1.39625,-3.5837504 1.19375,-4.82999999 -0.635,-6.19374997 -4.3025,-4.215 -4.2075,2.27 -6.0975,11.995 -5.19875,18.515 0.27625,2.6875 0.5775,5.1075 0.5775,5.1075 0,0 -0.25125,-0.0038 -0.55125,-0.03625 -1.1775,-0.1325 -3.201247,-1.9125 -3.314997,-4.39125 z m 9.834997,45.615 0,1.015 c 0,0 -3.28375,0.6025 -5.12625,0 -2.48375,-0.81125 -2.64125,-4.34875 -5.529997,-5.56875 -0.355,-0.15 -0.7525,-0.27625 -1.125,-0.37625 -1.29375,-0.35 -2.29,1.1325 -2.77375,2.83125 -1.54875,3.31625 2.4625,8.9475 0.8625,15.345 -0.0725,0.115 -0.15375,0.22625 -0.24375,0.3325 -3.19625,3.7725 -12.375,2.57875 -15.86,-1.0425 -3.295,-3.42375 -2.9625,-15.28 -0.96875,-19.0575 0.69375,-1.67375 1.2975,-2.93 1.2975,-2.93 -0.02375,-0.31875 -0.08125,-0.595 -0.17375,-0.78375 -0.1475,-0.3 -0.6125,-0.3 -0.87875,0 -0.07125,0.08 -0.14375,0.1775 -0.21625,0.28875 -1.62125,2.47 -3.0074994,5.84 -3.9187494,9.0925 -2.54375,9.08 -3.5075,17.445 4.6649994,25.013755 1.1075,0.58 2.45375,0.98375 3.72625,1.26125 4.69625,1.02625 16.38375,-2.950005 16.38375,-11.722505 0,-0.25 0,-0.50875 0,-0.76125 l 0,-3.1725 3.668747,0 c 0.34125,0 0.67375,0 0.96625,0 7.5675,0 10.06375,-5.02375 10.2575,-11.28125 0.1075,-3.44625 -0.20625,-12.95 -3.4225,-14.97125 -0.3425,-0.21625 -0.75,-0.16625 -1.15,0.0025 -1.0125,0.42875 -2.42125,2.98625 -2.635,4.7875 -0.1275,1.06875 -0.13125,2.3175 -0.1025,3.32375 0.13625,4.695 2.50375,5.025 2.2975,8.37375 z"
     style="fill:#000000;stroke:none" />
</svg>