<?xml version="1.0" encoding="UTF-8" standalone="yes"?>
<!-- Created with sK1/UniConvertor (http://sk1project.org/) -->
<svg xmlns="http://www.w3.org/2000/svg" xmlns:xlink="http://www.w3.org/1999/xlink"
  width="595.276pt" height="841.89pt" viewBox="0 0 595.276 841.89"
  fill-rule="evenodd">
  <path
     d="m 16.910833,6.5470557 -3.535208,3.6008093 c -0.587201,0.598401 -0.670401,0.705601 -0.835202,1.074402 -0.2296,0.516001 -0.309601,1.379203 -0.1968,1.496003 0.366401,0.379201 1.660804,-0.540801 2.111205,-0.881602 3.946409,-2.9840063 5.744013,-4.8632113 6.381614,-8.7272203 0.324001,-1.964004 -0.689601,-2.72400603 -2.484006,-2.97440603 -2.847206,-0.397601 -5.672813,0.0096 -6.778415,2.20720503 0.1728,8.3912193 0.416001,3.592808 2.830406,2.996807 2.685607,-0.662402 5.573613,-2.134405 2.506406,1.208002 z m 1.877604,18.7008433 5.191212,-5.191212 -5.191212,-5.191212 -5.192011,5.191212 5.192011,5.191212 z M 34.676474,14.219074 34.274873,6.5582557 c -0.0592,-1.136802 -0.0832,-1.334403 -0.234401,-1.977604 -0.464801,-1.973605 -1.713603,-3.054407 -3.020006,-3.75200903 -1.661604,-0.887202 -2.929607,-1.216803 -4.641611,0.032 -1.407203,1.02720303 -1.540004,4.74561103 -0.986402,5.32721203 0.412801,0.434401 1.506403,0.395201 2.831206,0.084 3.307208,-0.776802 3.638408,-0.597602 4.50001,2.900006 0.409601,1.6624043 0.457601,3.2192083 0.256001,4.8912123 -0.427201,3.549608 -1.432003,5.276012 0.536801,7.360016 0.819202,0.867202 1.675204,0.998403 3.544808,0.613602 1.328003,-0.273601 1.592004,-0.890402 2.148805,-2.729606 0.392001,-1.295203 0.701602,-2.454406 0.601602,-3.745609 -0.199201,-2.560806 -2.968807,-7.3752173 0.368801,-8.5712203 0.616001,-0.22 1.416803,-0.076 2.107204,0.0744 0.930403,0.202401 1.088803,0.110401 1.579204,-0.920002 0.403201,-0.847202 0.869602,-1.626403 1.126403,-2.537605 C 45.9565,0.18464067 44.481296,-0.78176233 41.52289,0.62064167 38.129282,2.2286447 36.605278,9.1182607 37.33008,13.737472 c 0.221601,1.904004 0.464801,3.618408 0.464801,3.618408 0,0 -0.2024,-0.0024 -0.444001,-0.0264 -0.950402,-0.0936 -2.582406,-1.354403 -2.674406,-3.110407 z m 1.171203,40.167292 5.191212,-5.192012 -5.191212,-5.191212 -5.192012,5.191212 5.192012,5.192012 z M 8.1924132,20.782289 5.7100071,20.707089 C 5.5228067,21.16709 3.469202,26.212701 2.0851988,29.76711 c -2.36720542,6.084013 -2.87840659,9.09922 -0.7032016,14.040832 0.456001,1.036802 1.1064025,1.900004 1.9048043,2.616806 0.1248003,0.1112 0.2560006,0.2192 0.3952009,0.3256 4.0120092,3.058408 12.7560296,3.489608 17.4080406,2.385606 1.216803,-0.288001 2.278405,-0.689602 3.093607,-1.206403 0.508001,-0.321601 0.912002,-0.649601 1.116802,-0.937602 1.570404,-2.202405 3.228008,-6.456015 3.228008,-6.456015 0,0 4.41681,1.647204 7.244816,1.972805 2.184805,0.2512 5.856014,-0.728002 6.978416,-2.048005 1.105603,-1.300803 2.438406,-8.54162 2.274406,-9.787222 -0.193601,-1.479204 -2.868807,-7.408817 -4.708011,-7.267217 -2.804807,0.2152 -2.694406,5.426412 -1.968005,7.134416 0.252001,0.592002 2.641606,3.682409 1.748804,4.689611 -0.084,0.0952 -0.0936,0.1176 -0.0936,0.224801 l 0,0.2392 c 0,0 -3.042407,-0.335201 -5.092812,-0.717602 -2.112004,-0.3936 -3.256807,-0.946402 -4.052809,-1.972004 -2.101605,-2.708006 -2.691206,-6.160014 -5.020811,-4.30401 -1.837605,1.463203 -2.554406,5.968814 -1.564804,8.985621 0.956802,2.917606 1.041602,4.109609 -2.560006,4.822411 C 15.834831,43.673541 7.9676123,42.238338 5.7540072,37.846328 3.6388023,33.648718 5.1820059,27.535904 7.3916109,22.548693 7.6420115,21.983892 7.9148121,21.38229 8.1924132,20.782289 z m -0.6088018,2.903207 1.4984038,-3.163208 c 0.7496017,-1.583203 1.3552028,-2.820006 1.3552028,-2.820006 0,0 -2.2296048,-0.240801 -3.6072083,-0.811202 C 3.3828018,15.463077 3.7228025,9.7350637 5.3940064,6.6822567 5.9780077,5.6166537 9.2628156,1.5390447 8.8028146,0.39264167 8.6540142,0.02224067 8.0884129,-0.05615933 7.5476113,0.03424067 6.8068096,0.15824167 1.7179979,8.7366607 1.2707969,10.614266 0.25159461,14.899875 -0.07720615,17.937482 3.8164027,20.931889 4.0052032,21.07749 4.2076036,21.22709 4.4068041,21.37189 l 3.1768073,2.313606 z"
     style="fill:#000000;stroke:none" />
</svg>
