<?xml version="1.0" encoding="UTF-8" standalone="yes"?>
<!-- Created with sK1/UniConvertor (http://sk1project.org/) -->
<svg xmlns="http://www.w3.org/2000/svg" xmlns:xlink="http://www.w3.org/1999/xlink"
  width="595.276pt" height="841.89pt" viewBox="0 0 595.276 841.89"
  fill-rule="evenodd">
  <path
     d="m 46.892447,75.272863 5.861961,-5.861961 -5.861961,-5.862962 -5.862962,5.862962 5.862962,5.861961 z m -21.548549,-43.852654 5.861962,-5.861961 -5.861962,-5.862962 -5.862961,5.862962 5.862961,5.861961 z M 26.276453,8.8171435 21.395485,13.666112 c -0.810994,0.805994 -0.926994,0.950993 -1.153992,1.44699 -0.317998,0.694996 -0.427997,1.856988 -0.270998,2.014987 0.504996,0.509997 2.292985,-0.727995 2.91498,-1.186992 5.448965,-4.018974 7.930948,-6.5499575 8.811942,-11.7529235 0.447997,-2.644982 -0.951993,-3.668975 -3.430977,-4.005973 -3.930974,-0.535997 -7.831948,0.012 -9.359938,2.97198 0.238998,11.3009265 0.573996,4.837968 3.907974,4.035974 3.708975,-0.891995 7.696949,-2.874981 3.461977,1.626989 z M 17.297988,73.822434 c 1.880821,0.277997 3.676939,0.371387 5.188546,0.243247 0.237818,-0.02063 0.496267,-0.04886 0.772093,-0.08362 8.247595,-1.056604 14.40913,-5.209179 15.946799,-12.047245 0.215013,-0.955614 0.456088,-1.904712 0.976246,-2.270668 1.184744,-0.83399 5.005026,0.862224 5.348178,0.91652 0.213927,0.03366 0.945839,-0.0054 1.844986,-0.137912 13.760834,-2.027421 11.157872,-17.859113 7.986973,-28.554382 -0.917606,-3.093799 -1.795033,-4.747662 -3.66608,-0.349668 -1.064206,2.50197 -1.33786,5.923718 -1.221666,7.215967 0.163975,1.813494 0.423511,3.371796 0.982762,5.734767 0.670015,2.831006 1.768971,6.818519 1.768971,6.818519 0,0 -1.623457,0.620064 -2.807115,0.835077 -2.776708,0.507127 -8.133573,-2.276098 -10.13276,-4.636898 -0.615719,-0.727569 -1.076152,-1.684268 -1.347632,-2.795169 -0.607032,-2.474822 -0.494096,-5.746712 -2.191396,-4.110224 -1.140221,1.100042 -2.810372,5.468715 -3.052534,7.276779 -0.152029,1.123932 -0.169403,2.285872 0,3.478217 0.312747,2.2142 1.15651,4.78784 1.771143,6.864127 C 37.220356,64.1425 30.698294,64.973233 26.2232,65.454297 9.1253206,67.292771 0.38797307,56.124038 6.5636251,38.649343 7.2130079,36.809787 8.0426542,35.259087 9.0851417,34.422925 9.8485462,33.810464 10.696653,33.710559 11.380785,33.026426 12.066004,32.341209 12.951032,29.407041 12.718644,28.590425 12.282102,27.060358 10.560913,28.089814 8.1631918,28.203837 4.5101421,28.379756 2.1080774,24.257587 2.8291311,20.894479 3.419874,18.143833 5.445123,14.786155 6.5755703,11.892166 7.0805251,10.59883 6.8980899,10.448972 5.8577742,10.601002 5.4679275,10.65747 5.3506476,10.784523 4.6882337,11.870448 2.601087,15.291109 -0.70338095,23.418167 0.13278084,27.574 c 0.33880841,1.685354 1.91339876,4.060272 3.29578056,4.682506 2.2630664,1.019683 4.4490322,0.519072 3.8962968,2.366229 -0.2790826,0.928466 -1.2846486,2.100178 -2.098006,3.249086 -1.5572156,2.200083 -3.2686324,6.7892 -4.151489,10.869018 -5.3470917,24.724326 16.2009048,25.078338 16.2226248,25.081595 z"
     style="fill:#000000;stroke:none" />
</svg>
