<?xml version="1.0" encoding="UTF-8" standalone="no"?>
<svg>
  <path
     d="m 60.620596,11.023812 -6.10208,6.062073 c -1.01389,1.007637 -1.15891,1.187661 -1.4427,1.808996 -0.39755,0.868868 -0.53507,2.321565 -0.33879,2.517841 0.63133,0.638837 2.86664,-0.910123 3.64424,-1.483951 6.81218,-5.023182 9.9151,-8.187361 11.0165,-14.6932445 0.56007,-3.306699 -1.19141,-4.58562297 -4.28933,-5.00817997 -4.91442,-0.668841 -9.79133,0.015 -11.70159,3.71550397 0.29879,14.1281685 0.71884,6.049571 4.88691,5.046935 4.63563,-1.116401 9.62131,-3.594238 4.32684,2.0340265 z m 30.61415,59.328053 -6.36461,7.089712 6.36461,7.089713 6.36462,-7.089713 -6.36462,-7.089712 z m -38.39021,-40.688023 -6.36461,7.090963 6.36461,7.089712 6.36462,-7.089712 -6.36462,-7.090963 z m -28.3876,48.097779 c 5.28197,-0.646338 11.65158,-2.331567 16.26971,-5.623263 l 4.91316,-3.501726 0.64759,1.733986 c 0.7026,1.558961 0.65634,2.235303 1.4502,2.809131 5.07069,3.661747 14.65699,0.275037 15.02829,-3.97554 0.0588,-0.156271 0.11626,-0.307541 0.12252,-0.325044 0.57257,-1.512705 0.7851,-0.577578 1.49395,0.630086 1.03889,1.77274 2.9504,2.782877 4.69814,3.451718 4.51936,1.730235 10.57518,1.790243 13.94814,-0.366299 0.70384,-0.450062 1.30268,-1.140155 2.02527,-2.292812 0.61259,-0.977632 1.18016,-1.966517 1.69023,-2.965402 5.01818,-9.823834 1.94152,-12.747981 -0.80386,-22.383038 -1.67647,-5.883299 -3.23668,0.973882 -3.723,2.450332 -0.42881,1.302677 -0.80636,2.756624 -0.82511,3.381709 -0.03,1.02764 0.14127,1.430194 0.45006,2.540345 0.009,0.03251 0.0175,0.06501 0.0263,0.09751 1.74524,6.410871 6.9972,11.725342 -3.63674,11.681586 -4.73064,-0.02 -9.53255,-2.272809 -11.18277,-7.424758 -1.97902,-6.173338 0.18503,-8.817447 -3.60549,-14.635736 -0.66384,-1.018889 -1.39394,-1.778992 -1.95651,-1.416443 -0.54633,0.352548 -1.12891,1.755239 -1.55147,2.982905 -2.86663,8.349884 2.77288,8.857452 2.32157,17.401112 -0.002,0.03876 -0.005,0.07876 -0.007,0.117516 -0.0538,0.901372 -0.0925,1.025139 -0.3913,1.231417 -0.22003,0.152521 -0.46757,0.238783 -0.71885,0.325044 -3.45047,1.187662 -7.59728,2.260307 -9.81633,0.690094 -2.60911,-1.847751 -1.99152,-7.004701 -4.66314,-4.27308 -0.0238,0.025 -0.0488,0.05001 -0.0725,0.07376 -4.38684,4.460605 -11.52656,7.314743 -17.10232,8.021089 -6.2871,0.797608 -14.65824,1.76899 -19.43389,-1.976519 C 1.1605856,59.247855 2.6795356,44.904658 6.1600156,35.41212 c 0.33129,-0.905123 0.63133,-1.757739 0.82261,-2.474086 0.18252,-0.682593 0.0763,-0.768855 -0.48007,-0.698845 -0.21628,0.0275 -0.28129,0.120016 -0.65759,0.921375 -0.0125,0.0275 -0.0262,0.05626 -0.04,0.08501 -4.65563,9.987605 -8.67743,26.244812 -3.07042,36.668727 5.8708,10.913981 22.6405704,7.7348 21.7229504,7.847315 z m 1.19391,-38.730257 4.32059,4.813153 6.36461,-7.089712 -6.36461,-7.090963 -4.32059,4.813154 -4.32059,-4.813154 -6.36461,7.090963 6.36461,7.089712 4.32059,-4.813153 z M 6.2682156,20.525102 c 0.0613,0.597581 0.17127,1.18266 0.32754,1.738986 1.48271,5.275716 5.1544504,4.399347 8.2786304,3.625492 l 2.14154,-0.530072 0.43006,-0.926376 c 0.3863,-0.832613 0.69259,-2.030275 0.83511,-2.997907 0.24753,-1.688979 0.38755,-2.320315 0.38755,-2.320315 0,0 -1.53646,0.485066 -2.10903,0.666341 -3.14793,0.995135 -5.30572,1.628971 -7.5397804,-1.32643 -1.06139,-2.067781 -0.24878,-4.824405 1.1401604,-7.29099 1.67023,-2.9629025 4.90941,-7.3997545 5.25071,-9.0237245 0.0975,-0.460063 0.27629,-1.76648997 0.15002,-2.00527297 -0.11251,-0.212529 -0.41505,-0.143769 -0.7201,0 -0.28503,0.135019 -0.58383,0.356299 -0.89137,0.647588 C 10.307516,4.2328905 5.7556456,15.57818 6.2682156,20.525102 z"
     style="fill:#000000;stroke:none" />
</svg>
