<?xml version="1.0" encoding="UTF-8" standalone="yes"?>
<svg xmlns="http://www.w3.org/2000/svg" xmlns:xlink="http://www.w3.org/1999/xlink"
  width="595.276pt" height="841.89pt" viewBox="0 0 595.276 841.89"
  fill-rule="evenodd">
  <path
     style="fill:#000000;stroke:none"
     d="m 17.877712,76.858711 c -0.363959,2.26977 0.078,2.826716 1.586836,2.129779 1.027894,-0.473951 14.286518,-8.187148 16.223321,-10.495911 0.779918,-0.929902 1.557837,-2.57573 1.832812,-4.056582 0.168975,-0.910902 -0.104992,-0.878902 -1.086894,-0.513943 -2.274762,0.84591 -17.275206,9.976968 -17.746157,10.802878 -0.438959,0.770926 -0.719926,1.569836 -0.809918,2.133779 z m 26.759232,-4.721509 c -0.03,2.037787 -1.76682,6.536321 -1.084894,8.077165 0.08399,0.18798 5.437435,2.9197 6.802296,2.16777 0.403959,-0.22297 1.691828,-3.745606 1.595836,-5.020475 -0.109992,-1.454853 -2.59373,-4.425542 -4.179566,-3.137673 -1.166877,0.947902 -1.408852,2.306755 -2.088787,1.831804 -0.83691,-0.585935 0.745926,-5.604419 0.680935,-8.396124 -0.03096,-1.322869 -1.322869,-5.757402 -1.986796,-6.753304 -0.582942,-0.87291 -1.477844,-0.84091 -2.089787,0 -2.910697,3.997591 -0.570942,4.143574 1.434853,7.909181 0.595943,1.118886 0.927902,2.460746 0.91591,3.321656 z M 62.154126,8.8167626 57.273633,13.665263 c -0.811918,0.805918 -0.926909,0.950902 -1.153885,1.446845 -0.317967,0.694934 -0.427951,1.856811 -0.270967,2.014795 0.504943,0.509951 2.292762,-0.728927 2.914697,-1.186877 5.448435,-4.018583 7.930173,-6.5493214 8.811083,-11.7527804 0.447958,-2.64473 -0.951902,-3.66762296 -3.43064,-4.00558996 -3.930599,-0.534943 -7.831189,0.01304 -9.359034,2.97269596 0.238976,11.2998294 0.573943,4.837501 3.907599,4.035583 3.708615,-0.89291 7.696197,-2.874705 3.46164,1.626828 z M 16.008909,48.648635 c 0.162983,2.24077 1.207869,3.633623 3.109672,4.035582 2.452746,0.518951 3.839607,-0.810918 4.468541,-3.501639 0.137984,-0.590935 0.106984,-1.082886 -0.272975,-1.319861 -0.722926,-0.451951 -2.707713,0.01704 -3.666615,-0.492951 -1.193877,-0.633935 -1.496844,-3.328656 -1.201877,-4.588525 0.295967,-1.261869 1.048893,-2.61273 1.253869,-3.584623 0.042,-0.195984 0.06096,-0.377959 -0.02496,-0.478951 -0.01104,-0.01304 -0.022,-0.02496 -0.03296,-0.036 -2.886705,-0.657927 -3.588631,10.57191 -3.632623,9.966968 z M 19.258573,16.055017 18.805614,7.4049096 c -0.06696,-1.282869 -0.09399,-1.506844 -0.264967,-2.23377 -0.523951,-2.227771 -1.934804,-3.44764 -3.410648,-4.23555796 -1.874804,-1.001902 -3.306656,-1.373861 -5.2394596,0.036 C 8.3007032,2.1314666 8.1507196,6.3300326 8.7756541,6.9869586 c 0.4659509,0.489951 1.7018279,0.445959 3.1966719,0.09499 3.734607,-0.87791 4.108574,-0.674926 5.081468,3.2736644 0.461959,1.876804 0.516951,3.635623 0.288975,5.522427 -0.48195,4.008582 -1.616836,5.958377 0.605935,8.31114 0.925902,0.978893 1.891803,1.127877 4.002582,0.692926 1.499853,-0.308967 1.79782,-1.005894 2.425755,-3.082681 0.44295,-1.461852 0.792918,-2.770713 0.679926,-4.228565 -0.224976,-2.891697 -3.351648,-8.3271324 0.416959,-9.6779934 0.694926,-0.248975 1.598836,-0.08599 2.378754,0.08399 1.050894,0.228975 1.228869,0.124983 1.782812,-1.038894 0.455959,-0.955901 0.981902,-1.835811 1.271869,-2.865705 C 31.995246,0.20765964 30.330418,-0.88222636 26.98977,0.70060964 23.157163,2.5164216 21.436344,10.295611 22.255262,15.511071 c 0.249967,2.149778 0.524942,4.085582 0.524942,4.085582 0,0 -0.228975,-0.0032 -0.50195,-0.03 -1.072886,-0.104992 -2.915697,-1.529844 -3.019681,-3.511632 z M 63.378995,61.5843 57.10965,67.852645 63.378995,74.120998 69.647348,67.852645 63.378995,61.5843 z M 49.101477,24.9081 42.833124,31.177445 49.101477,37.445798 55.37083,31.177445 49.101477,24.9081 z m -29.26597,7.304238 5.23346,5.23346 6.269353,-6.268353 -6.269353,-6.269345 -5.23346,5.234451 -5.233459,-5.234451 -6.2683449,6.269345 6.2683449,6.268353 5.233459,-5.23346 z m 58.822907,-13.196632 0,1.044894 c 0,0 -0.320967,0.064 -0.522943,0 -0.521951,-0.165984 -0.253975,-1.198877 0,-2.089787 1.185877,-4.158566 2.143776,-7.42823 1.159877,-13.4756004 -0.307967,-1.889803 -1.693828,-5.38544296 -2.935697,-4.28555696 -0.721926,0.639934 -1.31786,3.68261496 -1.096885,4.83649996 0.237975,1.242869 1.119885,2.076787 1.535844,3.45664 0.468951,1.5578364 0.34296,3.8116064 0.507943,5.5954184 0.06,0.651934 0.159984,1.241877 0.169984,1.866812 0.072,4.615516 -2.802706,7.750197 -1.430853,10.541902 0.491951,0.999902 4.289555,3.374656 7.074268,3.055689 0.783918,-0.08899 0.927902,-0.245976 1.443844,-1.564844 1.531845,-3.917591 1.441853,-6.543321 -0.159983,-7.676198 -0.79791,-0.563943 -1.854804,-1.178885 -3.656615,-1.305869 -0.942899,-0.06696 -2.088784,0 -2.088784,0 z M 38.705558,11.873443 c -0.03,2.037795 -1.76682,6.536329 -1.084893,8.077165 0.08399,0.187983 5.437435,2.919697 6.802295,2.167779 0.403959,-0.222976 1.691828,-3.745615 1.595836,-5.020484 -0.109991,-1.454845 -2.593729,-4.425542 -4.179566,-3.137673 -1.166877,0.947902 -1.408852,2.307763 -2.088786,1.831812 -0.83691,-0.585943 0.745926,-5.604419 0.680934,-8.3961324 -0.03104,-1.322861 -1.322869,-5.757402 -1.986795,-6.75330396 -0.582943,-0.872901 -1.477845,-0.839909 -2.089787,0 -2.910697,3.99759096 -0.570935,4.14357496 1.434852,7.90918096 0.595943,1.118886 0.927902,2.4607464 0.91591,3.3216564 z M 9.5785721,62.39721 c 6.0963689,1.793819 16.6552719,0.161983 21.7737479,-0.979894 1.756812,-0.391959 3.466639,-0.750926 5.187459,-1.620836 0.798918,-0.403959 1.662828,-0.980894 2.524738,-1.554836 l 4.36355,-2.901697 1.960795,2.386746 c 0.358959,0.436959 0.732926,0.88691 1.151877,1.221877 2.165779,1.72782 6.716304,0.252975 9.664001,-1.305869 0.540943,-0.286967 1.029893,-0.592934 1.306869,-1.044885 0.788918,-1.292869 0.283967,-2.743722 2.126779,-1.808812 0.596934,0.301967 1.107885,0.85391 1.70482,1.287861 3.291664,2.389754 12.007755,2.907697 14.190533,-0.523943 0.774919,-1.219877 0.952902,-2.995689 1.70682,-4.622525 1.619836,-3.491639 2.500738,-3.330656 2.210771,-5.407435 -0.408959,-2.919697 -2.61573,-9.823984 -4.879492,-8.77609 -0.710927,0.328967 -2.386755,4.213557 -2.433746,5.64141 -0.014,0.426959 0.03296,0.759926 0.186975,1.254877 0.589943,1.892803 2.747713,6.163361 2.747713,6.163361 l -4.690508,0 c -1.409853,0 -1.684828,-0.01296 -2.751714,-0.128992 -3.296664,-0.358959 -4.542533,-1.987795 -5.156467,-4.572525 -1.042894,-4.382549 -1.828812,-13.059648 -1.828812,-13.059648 0,0 -0.06,0 -0.433959,0 -3.483631,0 -3.282656,1.600836 -3.649615,5.173467 -0.05304,0.517943 -0.08799,1.029894 -0.09499,1.512845 -0.05296,3.503631 1.507845,5.66541 2.088779,8.567107 0.496951,2.478746 -0.161983,2.816713 -2.611729,3.813607 -2.721714,1.107885 -6.429329,1.581836 -8.097157,-1.305861 -1.034893,-1.79282 -0.573943,-3.306664 -2.527738,-2.61173 -1.494844,0.530943 -2.865705,2.59473 -4.523533,3.917591 C 35.20592,55.569922 18.9616,56.215849 12.06432,54.769004 7.1178257,53.731111 5.2070223,50.990397 3.4442106,46.149897 3.1772352,45.415971 2.876268,44.657052 2.7902762,43.866134 c -0.1159918,-1.066893 -0.1179918,-1.34086 -0.02,-2.748721 l 0.412959,-5.937378 -0.5569426,0 c -0.2509754,0 -0.3479672,0.140984 -0.9699017,1.413853 -1.38685264,2.838705 -1.70881986,6.036369 -1.649828,9.210042 0.2069755,11.220837 3.7836069,14.88946 9.5720092,16.59328 z" />
</svg>
