<?xml version="1.0" encoding="UTF-8" standalone="no"?>
<svg>
  <path
     style="fill:#000000;stroke:none"
     d="m 22.347194,96.073665 c -0.45495,2.83722 0.0975,3.5334 1.98355,2.66223 1.28487,-0.59244 17.85819,-10.23396 20.2792,-13.11992 0.9749,-1.16238 1.9473,-3.21967 2.29102,-5.07074 0.21122,-1.13863 -0.13124,-1.09863 -1.35862,-0.64243 -2.84346,1.05739 -21.59406,12.47124 -22.18275,13.50363 -0.5487,0.96366 -0.89991,1.9623 -1.0124,2.66723 z m 33.44912,-5.9019 c -0.0375,2.54724 -2.20853,8.17042 -1.35612,10.096485 0.10499,0.23497 6.79681,3.64963 8.50289,2.70972 0.50495,-0.27872 2.11479,-4.682025 1.9948,-6.275615 -0.13749,-1.81857 -3.24217,-5.53194 -5.22447,-3.9221 -1.4586,1.18488 -1.76107,2.88345 -2.61099,2.28976 -1.04614,-0.73242 0.93241,-7.00554 0.85117,-10.49518 -0.0387,-1.65359 -1.65359,-7.19677 -2.4835,-8.44165 -0.72868,-1.09114 -1.84731,-1.05114 -2.61224,0 -3.63838,4.997 -0.71368,5.17948 1.79357,9.8865 0.74493,1.39861 1.15988,3.07594 1.14489,4.15208 z m 21.89653,-79.15074 -6.10063,6.06064 c -1.0149,1.0074 -1.15864,1.18863 -1.44236,1.80856 -0.39746,0.86867 -0.53494,2.32102 -0.33871,2.5185 0.63118,0.63744 2.86596,-0.91116 3.64338,-1.4836 6.81056,-5.02324 9.91274,-8.18667 11.01388,-14.6910099 0.55995,-3.30592 -1.18988,-4.58454003 -4.28831,-5.00700003 -4.91326,-0.66868 -9.78901,0.0163 -11.69882,3.71588003 0.29872,14.1248199 0.71743,6.04689 4.88451,5.04449 4.63578,-1.11614 9.62027,-3.59339 4.32706,2.0335399 z m -57.68166,49.78996 c 0.20373,2.80097 1.50984,4.54204 3.8871,5.04449 3.06594,0.64869 4.79952,-1.01365 5.58569,-4.37706 0.17248,-0.73867 0.13373,-1.35361 -0.34122,-1.64983 -0.90366,-0.56494 -3.38465,0.0213 -4.58328,-0.61619 -1.49235,-0.79242 -1.87106,-4.16083 -1.50235,-5.73567 0.36996,-1.57734 1.31112,-3.26592 1.56734,-4.48079 0.0525,-0.24498 0.0762,-0.47245 -0.0312,-0.59869 -0.0138,-0.0163 -0.0275,-0.0312 -0.0412,-0.045 -3.60839,-0.82241 -4.4858,13.21492 -4.54079,12.45874 z m 4.06209,-40.74212 -0.5662,-10.8126599 c -0.0837,-1.60359 -0.11749,-1.88356 -0.33121,-2.79222 -0.65494,-2.78472 -2.41851,-4.30956 -4.26332,-5.29446 -2.34351,-1.25238003 -4.13333,-1.71733003 -6.54934,0.045 -1.9873,1.44986 -2.17478,6.69808 -1.39361,7.51924 0.58244,0.61244 2.12729,0.55745 3.99585,0.11874 4.66827,-1.09739 5.13573,-0.84366 6.35185,4.0920899 0.57745,2.34601 0.64619,4.54454 0.36122,6.90305 -0.60244,5.01074 -2.02105,7.44799 0.75742,10.38895 1.15738,1.22362 2.36476,1.40985 5.00324,0.86616 1.87482,-0.38621 2.24728,-1.25737 3.0322,-3.85336 0.55369,-1.82732 0.99115,-3.4634 0.84991,-5.28572 -0.28122,-3.61463 -4.18957,-10.40894 0.5212,-12.0975199 0.86866,-0.31122 1.99855,-0.10749 2.97345,0.10499 1.31362,0.2862199 1.53609,0.1562299 2.22852,-1.29862 0.56995,-1.19488 1.22738,-2.29477 1.58984,-3.58214 1.35986,-4.83076003 -0.72118,-6.19312 -4.897,-4.21457003 -4.79077,2.26977003 -6.9418,11.99377993 -5.91815,18.51311993 0.31246,2.68723 0.65618,5.10699 0.65618,5.10699 0,0 -0.28622,-0.004 -0.62744,-0.0375 -1.34111,-0.13124 -3.64463,-1.91231 -3.77461,-4.38955 z m 55.15066,56.91174 -7.8367,7.83545 7.8367,7.83546 7.83546,-7.83546 -7.83546,-7.83545 z m -17.84694,-45.84536 -7.83546,7.8367 7.83546,7.83546 7.83671,-7.83546 -7.83671,-7.8367 z m -36.58255,9.13032 6.54184,6.54184 7.83671,-7.83546 -7.83671,-7.8367 -6.54184,6.54308 -6.54184,-6.54308 -7.83545,7.8367 7.83545,7.83546 6.54184,-6.54184 z m 73.52881,-16.49583 0,1.30612 c 0,0 -0.40121,0.08 -0.65368,0 -0.65244,-0.20748 -0.31747,-1.4986 0,-2.61224 1.48235,-5.19822 2.679726,-9.28531 1.44985,-16.8445399 -0.38496,-2.36226 -2.11729,-6.73182 -3.66963,-5.35696003 -0.90241,0.79992003 -1.64733,4.60328003 -1.37111,6.04564003 0.29747,1.55359 1.39986,2.59599 1.91981,4.3208099 0.58619,1.9473 0.4287,4.76452 0.63493,6.99429 0.075,0.81492 0.19998,1.55235 0.21248,2.33352 0.09,5.76941 -3.50339,9.68777 -1.78857,13.17741 0.61494,1.24988 5.361956,4.21833 8.842856,3.81962 0.9799,-0.11124 1.15988,-0.30747 1.80481,-1.95606 1.91481,-4.897 1.80232,-8.17917 -0.19998,-9.59527 -0.99739,-0.70493 -2.31851,-1.47361 -4.57078,-1.63234 -1.178626,-0.0837 -2.610986,0 -2.610986,0 z m -49.94119,-8.92785 c -0.0375,2.54725 -2.20853,8.17043 -1.35612,10.09648 0.10499,0.23498 6.79681,3.64963 8.50289,2.70973 0.50495,-0.27872 2.11479,-4.68203 1.9948,-6.27562 -0.13749,-1.81856 -3.24217,-5.53194 -5.22447,-3.9221 -1.4586,1.18488 -1.76107,2.88471 -2.61099,2.28977 -1.04614,-0.73243 0.93241,-7.00554 0.85117,-10.4951899 -0.0388,-1.65358 -1.65359,-7.19677 -2.4835,-8.44165003 -0.72868,-1.09113 -1.84731,-1.04989 -2.61224,0 -3.63838,4.99700003 -0.71367,5.17948003 1.79357,9.88649993 0.74493,1.39861 1.15988,3.07594 1.14489,4.15208 z m -36.40882,63.15486 c 7.62048,2.24228 20.81914,0.20248 27.21725,-1.22487 2.19602,-0.48995 4.33331,-0.93866 6.48434,-2.02605 0.99865,-0.50495 2.07854,-1.22612 3.15593,-1.94355 l 5.45445,-3.62713 2.451,2.98344 c 0.4487,0.5462 0.91616,1.10864 1.43985,1.52735 2.70723,2.15978 8.3954,0.31622 12.08003,-1.63234 0.67618,-0.35871 1.28737,-0.74117 1.63359,-1.30611 0.98615,-1.61609 0.35496,-3.42966 2.65848,-2.26102 0.74617,0.37746 1.38486,1.06739 2.13103,1.60983 4.11459,2.9872 15.00973,3.63463 17.73821,-0.65493 0.96865,-1.52485 1.19113,-3.74462 2.13353,-5.77817 2.0248,-4.36456 3.12593,-4.16333 2.76347,-6.75931 -0.5112,-3.64963 -3.26967,-12.28001 -6.09938,-10.97014 -0.88866,0.41121 -2.98345,5.26696 -3.04219,7.05178 -0.0175,0.5337 0.0412,0.94991 0.23372,1.5686 0.73743,2.36601 3.43465,7.70422 3.43465,7.70422 l -5.86315,0 c -1.76232,0 -2.10604,-0.0162 -3.43965,-0.16124 -4.12084,-0.4487 -5.67818,-2.48475 -6.4456,-5.71567 -1.30362,-5.4782 -2.28602,-16.3246 -2.28602,-16.3246 0,0 -0.075,0 -0.54245,0 -4.35455,0 -4.10333,2.00105 -4.56203,6.46685 -0.0663,0.64743 -0.10999,1.28737 -0.11874,1.89106 -0.0662,4.37955 1.88481,7.08178 2.61098,10.70891 0.62119,3.09844 -0.20248,3.5209 -3.26467,4.76702 -3.40215,1.38486 -8.03668,1.9773 -10.12147,-1.63233 -1.29362,-2.24103 -0.71743,-4.13334 -3.15968,-3.26467 -1.86856,0.66368 -3.58214,3.24342 -5.65443,4.897 -6.98679,5.57194 -27.29224,6.37935 -35.91386,4.57079 -6.1831304,-1.29737 -8.5716404,-4.72327 -10.7751604,-10.77391 -0.33372,-0.91741 -0.70993,-1.86606 -0.81742,-2.85471 -0.14499,-1.33362 -0.14749,-1.67608 -0.025,-3.43591 l 0.5162,-7.42174 -0.69618,0 c -0.31372,0 -0.43496,0.17623 -1.21238,1.76732 -1.73356996,3.54839 -2.13602996,7.54548 -2.06228996,11.51258 0.25872,14.02608 4.72951996,18.61187 11.96504036,20.74165 z" />
</svg>
