<?xml version="1.0" encoding="UTF-8" standalone="yes"?>
<!-- Created with sK1/UniConvertor (http://sk1project.org/) -->
<svg xmlns="http://www.w3.org/2000/svg" xmlns:xlink="http://www.w3.org/1999/xlink"
  width="595.276pt" height="841.89pt" viewBox="0 0 595.276 841.89"
  fill-rule="evenodd">
  <path
     d="m 73.717079,35.919804 4.893979,-4.893978 -4.893979,-4.893978 -4.893978,4.893978 4.893978,4.893978 z M 18.675324,6.3869349 22.076309,9.7879199 26.970287,4.8939419 22.076309,-3.6104905e-5 18.675324,3.3999489 15.275339,-3.6104905e-5 10.381361,4.8939419 l 4.893978,4.893978 3.399985,-3.400985 z M 45.385205,9.7879199 50.279184,4.8939419 45.385205,-3.6104905e-5 40.491227,4.8939419 45.385205,9.7879199 z M 16.829332,23.780858 C 14.905341,23.532859 13.082349,23.009861 11.372357,22.105865 5.1213843,18.80288 2.8983942,13.005906 3.1273931,1.0259589 L 0.7864035,8.9379239 C -0.52159068,12.05091 -0.18159219,21.813867 1.6843996,24.908853 c 1.4039937,2.32899 3.6219838,4.217981 6.1099728,5.529975 5.1439776,2.711988 13.9349386,1.187995 20.6249086,-1.481993 2.20199,-0.878996 4.024982,-1.925991 5.123977,-3.146986 0.191999,-0.210999 0.355998,-0.403998 0.501998,-0.574997 l 1.190995,-1.390994 c 0,0 1.926991,1.357994 1.926991,1.357994 0.207999,0.146999 0.419998,0.302998 0.632997,0.462998 3.329985,2.492989 6.443971,2.10999 10.439954,1.412993 2.28399,-0.397998 4.310981,-1.025995 4.994978,-1.829991 0.572997,-0.673997 0.936995,-1.547994 1.254994,-2.31799 l 1.118995,-2.716988 2.34499,2.852987 c 0.197999,0.239999 0.402998,0.475998 0.615997,0.686997 1.361994,1.349994 3.134986,2.030991 5.038977,2.31099 3.632984,0.534997 9.756957,-1.868992 12.398945,-5.929974 1.654993,-2.543988 4.369982,-7.812965 4.324982,-8.590962 C 80.167052,8.6939249 76.185068,-3.6104905e-5 76.185068,-3.6104905e-5 c 0,0 -2.334989,3.502984004905 -3.344985,5.449976004905 -0.609997,1.174994 -0.736996,1.782992 -0.830996,3.159985 -0.140999,2.0839911 -0.206999,5.9289741 -0.206999,5.9289741 0,0 1.545993,-0.01104 2.18799,0.279999 0.508998,0.230999 0.452998,0.650997 0.170999,0.954996 -0.635997,0.686997 -5.160977,1.291994 -6.70297,1.463993 -2.761987,-0.356998 -5.370976,-1.423994 -6.852969,-3.739983 -0.166,-0.259999 -1.278995,-2.648988 -1.407994,-3.5379851 -0.108,-0.744996 -0.122999,-0.971995 -0.149999,-2.267989 0,0 -0.148,-7.220968 -0.148,-7.220968 0,0 -0.193999,-0.036 -0.456998,-0.066 -1.728992,-0.198999 -1.926991,1.092995 -2.662988,2.417989 -1.101995,1.981991 -1.660992,2.986987 -1.300994,5.466976 0.193999,1.330994 1.249994,6.0439731 0.962996,8.0419641 -0.164,1.143995 -0.322999,1.303994 -1.586993,1.594993 -3.436985,0.792997 -9.799957,2.31499 -12.835943,-0.549997 -1.325994,-1.251995 -2.33899,-3.901983 -3.521985,-2.28399 -0.532997,0.727996 -0.932995,1.988991 -1.539993,2.827987 -1.977991,2.734988 -9.037959,4.176982 -11.448949,4.642979 -0.850996,0.165 -1.691992,0.322999 -2.521989,0.470998 -1.769992,0.315999 -3.489984,0.580998 -5.155977,0.745997 z M 57.82715,37.610797 c 2.33899,-0.083 3.211986,-0.372999 5.900974,-3.091987 0.671997,-0.678997 1.213994,-1.351994 1.514993,-2.670988 0.791997,-3.463984 -3.698983,-1.204994 -5.261977,-0.251999 -1.284994,0.784997 -2.710987,1.827992 -4.101981,2.813988 -4.170982,2.955987 -8.027965,5.401976 -11.920947,8.226963 -0.456998,0.331999 -0.849996,0.605997 -1.183995,0.883996 -1.244994,1.036996 -2.15799,3.359985 -0.347998,3.429985 L 57.82715,37.610797 z"
     style="fill:#000000;stroke:none" />
</svg>
