<?xml version="1.0" encoding="UTF-8" standalone="yes"?>
<!-- Created with sK1/UniConvertor (http://sk1project.org/) -->
<svg xmlns="http://www.w3.org/2000/svg" xmlns:xlink="http://www.w3.org/1999/xlink"
  width="595.276pt" height="841.89pt" viewBox="0 0 595.276 841.89"
  fill-rule="evenodd">
  <path
     style="fill:#000000;stroke:none"
     d="m 19.366963,36.177598 c 0.213,-0.202999 0.518999,-0.357999 0.911999,-0.452999 1.274998,-0.31 3.470996,0 3.470996,0 0,0 0.751999,-2.980997 0.472999,-4.417995 -0.309999,-1.602998 -3.180996,-1.718998 -4.728994,-0.548999 -1.980998,1.496998 -3.027997,8.00499 -2.364998,10.017988 0.183,0.556999 0.465,1.062999 0.837999,1.466998 0.136,0.147 0.284,0.281 0.439,0.42 l 1.086999,0.976999 0.581999,1.582998 c 0.243,0.657999 0.398,1.224999 0.398,1.224999 0,0 4.423994,-2.794997 5.878993,-4.574995 0.643999,-0.787999 0.704999,-1.376999 0.945999,-2.364997 0.434999,-1.786998 1.088999,-3.465996 0.708999,-3.782996 -0.315,-0.263 -1.226999,-0.14 -1.946998,0.263 -1.063999,0.595999 -1.706998,1.802998 -3.406996,2.101997 -0.473999,0.083 -1.029999,0.095 -1.511998,0.082 -3.713996,-0.571999 -0.793999,-2.930997 -1.773998,-1.993998 z M 57.538919,16.184621 57.08192,7.4646315 c -0.068,-1.293999 -0.095,-1.518999 -0.267,-2.250998 -0.528999,-2.245997 -1.950998,-3.476996 -3.437996,-4.27099504 -1.889998,-1.009999 -3.332996,-1.384998 -5.281994,0.03704 -1.601998,1.16899904 -1.752998,5.40199404 -1.122999,6.06399304 0.47,0.493 1.714998,0.449 3.221997,0.095 3.763995,-0.883999 4.141995,-0.679999 5.121994,3.3009965 0.465999,1.891997 0.520999,3.663995 0.292,5.566993 -0.487,4.039996 -1.629999,6.004993 0.610999,8.376991 0.931999,0.986999 1.906998,1.136998 4.033995,0.698999 1.511999,-0.312 1.811998,-1.013999 2.445997,-3.106996 0.446,-1.473999 0.799,-2.793997 0.685,-4.262996 -0.227,-2.914996 -3.378996,-8.3949895 0.419999,-9.7559885 0.700999,-0.251 1.611998,-0.087 2.397997,0.084 1.058999,0.231 1.238999,0.126 1.796998,-1.045999 0.459,-0.964999 0.989999,-1.851998 1.281999,-2.888996 C 70.376905,0.20967946 68.698907,-0.88931954 65.33191,0.70667846 61.468915,2.5366765 59.733917,10.378668 60.558916,15.635662 c 0.253,2.166997 0.529999,4.118995 0.529999,4.118995 0,0 -0.230999,-0.0032 -0.505999,-0.03 -1.081999,-0.107 -2.938997,-1.541998 -3.043997,-3.539996 z M 74.4359,10.075628 c 0.164,2.257997 1.217999,3.662996 3.134997,4.067995 2.471996,0.523 3.869994,-0.817999 4.503994,-3.529996 0.138999,-0.594999 0.108,-1.0909975 -0.275,-1.3309975 -0.727999,-0.455 -2.728996,0.018 -3.695995,-0.495999 -1.202999,-0.639 -1.508998,-3.355997 -1.211999,-4.625995 0.298,-1.270999 1.057999,-2.632997 1.263999,-3.61299604 0.042,-0.198 0.06104,-0.381 -0.02496,-0.483 -0.01096,-0.01304 -0.022,-0.02496 -0.03296,-0.036 C 75.187979,-0.63535954 74.48098,10.684627 74.43598,10.075628 z M 25.771955,8.8876295 20.851961,13.775624 c -0.816999,0.811999 -0.933999,0.957999 -1.161999,1.457998 -0.320999,0.699999 -0.431999,1.871998 -0.273999,2.030998 0.508999,0.513999 2.310997,-0.733999 2.937996,-1.196999 5.492994,-4.049995 7.994991,-6.6009915 8.88299,-11.8459865 0.451,-2.665997 -0.960999,-3.69799504 -3.457996,-4.03799504 -3.962995,-0.539999 -7.894991,0.012 -9.434989,2.99599704 0.241,11.3909865 0.578999,4.876994 3.938995,4.067995 3.737996,-0.899999 7.757992,-2.897997 3.488996,1.639998 z m 27.810969,26.6779695 -4.919995,4.886994 c -0.817999,0.813 -0.933998,0.957999 -1.162998,1.458999 -0.32,0.699999 -0.431,1.870998 -0.274,2.029998 0.509999,0.514999 2.311997,-0.734 2.938997,-1.195999 5.491993,-4.050996 7.993991,-6.601993 8.88199,-11.846987 0.450999,-2.665997 -0.959999,-3.696995 -3.457996,-4.036995 -3.962996,-0.539999 -7.894991,0.012 -9.43399,2.994997 0.24,11.390987 0.578,4.876994 3.938996,4.068995 3.737996,-0.899999 7.757991,-2.897997 3.488996,1.639998 z m -2.598997,39.002956 4.105995,4.105995 5.908993,-5.908993 -5.908993,-5.908994 -4.105995,4.105996 -4.104996,-4.105996 -5.908993,5.908994 5.908993,5.908993 4.104996,-4.105995 z m 83.567903,-1.191999 5.90899,-5.908993 -5.90899,-5.908994 -5.90899,5.908994 5.90899,5.908993 z M 112.60686,50.078583 c 1.16999,-0.284 3.70799,1.220998 4.05499,1.441998 0.894,0.569999 1.879,1.220999 1.791,1.625998 -0.237,1.093999 -6.12099,-0.145 -6.94299,-0.690999 -0.633,-0.42 -1.197,-1.169999 -0.907,-1.625998 0.296,-0.466 1.484,-0.624 2.004,-0.750999 z m -6.642,28.355967 c 2.168,-0.391999 4.537,-0.950999 5.736,-1.426998 2.43099,-0.965999 9.75199,-5.661994 10.55698,-6.771992 1.021,-1.407999 3.136,-7.467992 3.103,-8.89199 -0.025,-1.104999 0.036,-1.418999 1.466,-2.367998 3.41,-2.262997 7.96999,-2.887996 10.71399,-4.966994 0.8,-0.605999 3.68899,-7.416992 3.74199,-8.82299 0.024,-0.631999 -1.079,-11.210987 -4.16499,-12.297986 -1.881,-0.661999 -3.583,5.643994 -3.21,7.403992 0.587,2.768997 3.153,7.907991 3.153,7.907991 l -11.76599,4.373995 c 0,0 -2.516,-4.653995 -4.64399,-7.037992 -1.523,-1.705998 -6.625,-4.475995 -9.28699,-2.575997 -2.034,1.450998 -3.686,7.828991 -3.877,9.601989 -0.671,6.197993 2.113,9.398989 9.09499,8.38899 2.345,-0.338999 5.74399,-2.006998 6.29699,0.537 0.133,0.613999 0.173,1.509998 0.173,1.509998 0,0 -8.25799,6.243993 -13.23998,8.55499 -2.724,1.262999 -5.39199,1.532998 -8.00999,0.759999 -9.076991,-2.679997 -9.283991,-11.844986 -9.237991,-16.613981 0.02296,-2.352997 0.07696,-7.807991 0.07696,-7.807991 l -0.4,0.02104 c -0.179,0.01 -0.205,0.04496 -0.256,0.358 -0.442999,2.694997 -0.903999,6.681992 -1.365998,9.391989 -3.047997,17.84298 7.689991,22.157975 15.345979,20.772976 z m -3.20799,-22.812974 c 0.532,-1.436998 0.898,-4.195995 0.656,-5.420994 -0.791,-3.991995 -4.277999,-7.808991 -9.133993,-10.601988 -3.332996,-1.917997 -8.097991,-3.316996 -8.90299,-4.695994 -1.629998,-2.788997 1.329998,-5.052994 -2.832997,-7.772991 -0.911999,-0.596 -2.174997,-1.228999 -2.174997,-1.228999 0,0 -1.554998,3.734996 -2.024997,6.397993 -0.194,1.099999 1.194998,5.768993 1.993997,6.700992 1.277998,1.490998 2.826996,3.029997 5.048994,4.545995 7.212992,4.921994 10.261988,4.823994 13.398985,9.400989 0.722999,1.053999 1.609998,2.493997 1.404998,2.924997 -0.037,0.07896 -0.111,0.124 -0.117,0.268 -8e-4,0.01704 -8e-4,0.036 8e-4,0.056 l -8.46399,6.503992 0,-0.01296 c -1.464999,1.018999 -9.02899,5.165994 -12.925985,4.480995 -1.728998,-0.304 -4.447995,-1.886998 -4.843994,-2.874997 -0.847999,-2.117997 -0.024,-10.167988 -0.024,-10.167988 0,0 -0.209,0.04504 -0.312,0.01704 -0.098,-0.02696 -0.098,-0.127 -0.122,-0.195 -0.05296,-0.155 -0.269999,-0.145 -0.466999,-0.087 -0.537,0.159 -1.935998,4.504995 -2.186998,6.639993 -0.677999,5.777993 -0.669999,12.889985 7.656992,12.828985 1.110998,-0.0072 2.360996,-0.078 3.959994,-0.485999 0.462,-0.118 0.953999,-0.265 1.459999,-0.431 3.596996,-1.179999 10.613988,-4.140995 13.666984,-7.895991 l 5.284997,-8.89399 z m -70.258922,5.027995 c -1.798998,0.867999 -3.830996,1.875997 -5.098994,2.276997 -8.194991,2.589997 -22.238679,-0.961999 -23.2093779,-8.52199 -0.0972,-0.758 -0.1309998,-1.615999 -0.0919,-2.484998 0.070904,-1.579998 5.261794,-11.908986 6.0842969,-12.106986 -0.1877997,0.04496 -0.4099034,0.15 -0.6319992,0.276 -3.8144995,2.179997 -7.7478951,11.089987 -8.692394,15.663982 -0.59559935,2.882997 0.7551991,6.506993 1.6097982,7.580991 5.256294,6.606993 13.640588,6.372993 21.50758,5.769994 2.432997,-0.186 5.031994,-0.622999 6.642992,-1.499998 0.285,-0.155 0.647999,-0.451 1.040999,-0.823999 1.696998,-1.611999 5.492994,-5.704994 6.815992,-9.52799 0.361,-1.041998 0.06504,-1.380998 0.246,-1.444998 0.533999,-0.188 5.215994,2.019998 8.96999,2.942997 4.486994,1.101998 13.540984,0.418999 16.85198,-1.937998 1.614999,-1.149999 5.504994,-7.435992 6.414993,-10.426988 0.368,-1.209999 0.3,-2.063998 -0.291,-4.051996 -0.713999,-2.403997 -2.192997,-6.465992 -2.192997,-6.465992 0,0 -1.034999,0.819999 -1.817998,1.564998 -0.851999,0.809999 -2.357997,4.675995 -2.378997,6.107993 -0.018,1.289999 0.034,2.879997 0.034,2.879997 l 1.225998,-1.002999 c 0,0 0.806999,1.574998 1.201999,2.557997 0.595999,1.480998 0.21,1.758998 -0.874999,2.196997 -5.500994,2.219998 -12.672986,2.714997 -17.53098,1.074999 -3.585996,-1.209998 -8.69399,-3.514996 -8.69399,-3.514996 0,0 0.554999,-19.997977 -0.47,-32.533963 C 38.538941,7.4916315 37.406942,6.3945601e-4 37.406942,6.3945601e-4 c 0,0 -2.308997,2.18899804399 -3.428996,4.04899604399 -1.043999,1.731998 -1.049999,3.404996 -1.541998,5.117994 -0.087,0.304 -0.094,0.373 -0.06896,0.688999 0.831999,10.7939875 2.549997,29.4529665 2.989997,37.0769575 0.242999,4.216995 0.410999,12.138986 -2.858997,13.715985 z M 98.454872,8.9206295 94.991876,6.2966325 c -0.253,-0.191 -0.282,-0.219 -0.292,-0.281 -0.03096,-0.184999 0.05696,-0.302999 0.197,-0.357999 0.509999,-0.203 2.763997,1.131999 2.987997,1.289998 0.905999,0.641 1.881998,1.769999 1.000999,2.123998 -0.136,0.05504 -0.179,0.04 -0.431,-0.151 z m -5.967993,1.2939985 c 0.685999,1.211999 3.970995,2.455997 4.497995,3.441996 0.592999,1.106999 -2.354998,3.936995 -4.591995,6.915992 -0.881999,1.174999 -2.344997,3.980996 -1.369999,4.686995 0.566,0.408999 3.249997,-2.579997 4.378995,-4.298995 1.669999,-2.540997 2.639997,-5.460994 3.342997,-5.807994 0.326999,-0.161 0.595999,0.235 0.738999,1.410999 0.319999,2.626997 0.01104,9.148989 0.01104,9.148989 0,0 0.899999,-2.229997 1.564999,-4.459995 0.534,-1.792998 0.821,-16.6589805 0.336,-17.4609795 -0.304,-0.503999 -0.652,-0.786999 -1.521,-1.268999 -2.505997,-1.388998 -5.202994,-3.01999604 -5.748993,-2.37899704 -0.247,0.291 -0.542999,0.824999 -0.823999,1.39999904 -2.385997,4.873994 -0.034,10.0509875 -0.814999,8.6709895 z M 9.2193743,7.9776305 8.5243751,6.6576325 c 0,0 -1.2953024,1.100998 -2.2770013,2.074998 -3.538596,3.5109955 -6.71689242,11.7889855 -6.18989302,17.3869795 0.30489966,3.238996 4.85869452,6.769992 9.85738872,2.911996 0.3521035,-0.379999 0.6261035,-0.885999 0.8781035,-1.560998 0.546999,-1.464998 0.991998,-3.019996 0.09,-3.179996 -0.578999,-0.103 -1.5951018,0.445999 -2.5949966,0.864999 -5.8207973,2.439997 -6.7591963,-0.458 -6.2060969,-5.605994 C 2.2553793,17.934619 2.516679,16.685621 3.6368777,14.892623 5.3837758,12.095626 9.2193753,7.9776305 9.2193753,7.9776305 z" />
</svg>
