<?xml version="1.0" encoding="UTF-8" standalone="no"?>
<svg>
  <path
     d="m 78.169117,71.501615 5.862,-5.862 -5.862,-5.863 -5.863,5.863 5.863,5.862 z m -52.0101,-48.57664 5.862,-5.862 -5.862,-5.863 -5.863,5.863 5.863,5.862 z m -5e-4,7.20232 4.074,4.073 5.862,-5.862 -5.862,-5.863 -4.074,4.074 -4.073,-4.074 -5.863,5.863 5.863,5.862 4.073,-4.073 z m 21.2598,-21.3100903 -4.881,4.8490003 c -0.811,0.806 -0.927,0.951 -1.154,1.447 -0.318,0.695 -0.428,1.857 -0.271,2.015 0.505,0.51 2.293,-0.728 2.915,-1.187 5.449,-4.019 7.931,-6.5500003 8.812,-11.7530003 0.448,-2.645 -0.952,-3.66899999 -3.431,-4.00599999 -3.931,-0.536 -7.832,0.012 -9.36,2.97199999 0.239,11.3010003 0.574,4.838 3.908,4.036 3.709,-0.892 7.697,-2.875 3.462,1.627 z M 3.4213173,78.555025 c 0.163,2.24 1.208,3.634 3.11,4.036 2.453,0.519 3.8399997,-0.812 4.4689997,-3.503 0.138,-0.59 0.107,-1.082 -0.273,-1.32 -0.723,-0.451 -2.7079997,0.018 -3.6669997,-0.492 -1.194,-0.634 -1.498,-3.33 -1.202,-4.59 0.295,-1.261 1.049,-2.612 1.254,-3.584 0.041,-0.197 0.06,-0.378 -0.025,-0.479 -0.011,-0.013 -0.022,-0.025 -0.033,-0.036 -2.887,-0.659 -3.589,10.573 -3.633,9.968 z m 49.1537997,-4.57286 c -4.48,2.414 -9.45,4.585 -13.43,5.672 -7.01,1.911 -5.63,2.536 -2.59,2.873 10.68,1.182 24.44,-3.687 30.63,-13.251 2.12,-3.279 3.41,-7.176 4.23,-12.082 0.09,-0.524 0.2,-1.026 0.38,-1.437 0.1,-0.257 0.47,-0.526 1,-0.813 7.74,-4.208 10.69,-8.953 5.67,-17.367 -2.02,-3.366 -4.79,-7.378 -5.14,-7.492 -1.33,-0.427 -1.88,1.622 -2.19,3.49 -0.14,0.839 -0.1,2.197 0.03,3.325 0.34,2.793 1.23,1.826 2.78,3.993 0.51,0.716 1.08,1.639 1.67,2.701 2.36,4.21 1.48,3.944 -3.41,5.553 -1.61,0.532 -1.99,0.68 -3.1,-0.87 -2.27,-3.188 -6,-7.935 -10.59,-7.973 -4.59,-0.038 -5.92,3.412 -6.45,6.898 -1.1,7.276 -0.32,12.408 7.87,11.816 1.83,-0.132 4.52,-0.663 6.46,-1.082 2.01,-0.431 2.61,-0.865 2.14,1.797 -1.19,6.726 -17.03,14.823 -15.96,14.249 z m 8.93,-21.686 c -1.71,0.041 -3.74,-0.189 -4.36,-0.405 -2.75,-0.972 -3.81,-4.695 0.09,-4.725 2.48,-0.019 4.03,1.133 5.8,2.992 2.4,2.076 -0.53,1.932 -1.53,2.138 z m 4.57,-43.5337003 c -0.05,-0.035 -0.1,-0.072 -0.16,-0.112 -1.49,-1.046 -3.65,-2.497 -2.64,-3.514 0.91,-0.919 2.73,-1.318 4.06,-0.852 2.5,0.884 1.36,2.78 0.53,4.234 -0.54,0.943 -0.59,1.076 -1.79,0.244 z m 16.38,9.8860003 c -0.14,-1.42 -0.74,-1.211 -4.19,0.918 -3.94,1.854 -6.45,2.574 -6.58,-1.739 -0.06,-1.974 -0.3,-3.207 -0.91,-4.275 -0.57,-0.979 -1.46,-1.987 -1.44,-2.841 0,-0.506 0.28,-1.0140003 0.58,-1.5480003 1.1,-1.955 0.89,-5.863 -0.78,-7.648 -1.41,-1.50899999 -4,-1.92499999 -5.99,-1.09499999 -3.97,1.65299999 -3.62,7.02699999 -0.57,9.55499999 0.28,0.2320003 1.04,0.7590003 1.63,1.1630003 1.9,1.317 1.28,2.461 0.17,3.755 -4.73,5.525 -10.66,11.064 -16.7,15.413 -1.65,1.253 -12.45,5.867 -4.22,4.666 7.83,-1.142 17.26,-11.431 19.51,-14.057 6.93,-8.072 6.37,-7.613 7.08,-1.195 0.43,3.951 1.04,5.102 2.44,5.292 0.95,0.129 10.61,0.198 9.97,-6.364 z m -61.22,31.63536 c -1.89,-2.147 -1.42,-4.868 2.82,-5.954 5.24,-1.342 7.66,-0.766 12.14,0.319 2.79,0.676 8.05,2.21 3.94,-2.856 -4.07,-5.022 -9.79,-6.57 -15.55,-4.037 -5.01,2.199 -10.4,7.699 -9.39,13.46 0.2,1.131 0.65,2.241 1.41,3.292 2.72,3.813 0.82,3.618 -4.16,1.51 -3.2599997,-1.377 -5.0199997,-3.333 -5.9799997,-7.468 -2.4,-10.434 -1.47,-33.817 -0.94,-41.2850003 0.45,-6.37899999 0.5,-9.761 -3.56,-5.086 -4.02,4.717 -0.66,3.147 -0.46,33.0290003 0.07,11.756 -1.36000004,23.832 11.1299997,28.148 6.47,2.236 18.2,1.832 26.44,-1.31 4,-1.525 8.03,-3.986 9.04,-7.945 0.93,-3.628 -1.27,-2.641 -2.59,-1.814 -3.59,2.249 -6.68,3.411 -9.36,3.841 -5.46,0.873 -11.3,-1.721 -14.93,-5.844 z m -3.04,-38.82463 c 2.29,-1.365 5.59,-3.3810003 8.08,-5.0330003 2.73,-1.802 3.62,-1.888 3.78,-5.127 0.06,-1.07999999 -0.05,-1.73799999 -1.62,-0.95799999 -0.84,0.419 -11.55,7.40499999 -15.59,10.53200029 -0.59,0.451 -1.16,0.718 -1.28,1.956 -0.41,4.185 1.15,1.904 6.63,-1.37 z"
     style="fill:#000000;stroke:none" />
</svg>
