<?xml version="1.0" encoding="UTF-8" standalone="yes"?>
<!-- Created with sK1/UniConvertor (http://sk1project.org/) -->
<svg xmlns="http://www.w3.org/2000/svg" xmlns:xlink="http://www.w3.org/1999/xlink"
  width="595.276pt" height="841.89pt" viewBox="0 0 595.276 841.89"
  fill-rule="evenodd">
  <path
     d="m 62.535209,57.201208 4.689594,-4.689594 -4.689594,-4.690394 -4.690394,4.690394 4.690394,4.689594 z m -41.608024,-38.86126 4.689594,-4.689593 -4.689594,-4.6903941 -4.690393,4.6903941 4.690393,4.689593 z m -4e-4,5.761849 3.259196,3.258395 4.689594,-4.689594 -4.689594,-4.690393 -3.259196,3.259195 -3.258395,-3.259195 -4.690394,4.690393 4.690394,4.689594 3.258395,-3.258395 z M 37.934602,7.0537469 34.029808,10.932942 c -0.6488,0.644799 -0.741599,0.760799 -0.923199,1.157599 -0.2544,0.555999 -0.3424,1.485598 -0.2168,1.611998 0.404,0.407999 1.834398,-0.5824 2.331997,-0.949599 4.359194,-3.2151961 6.344791,-5.2399931 7.04959,-9.4023881 0.3584,-2.115997 -0.761599,-2.93519599 -2.744796,-3.20479499 -3.144796,-0.4288 -6.265591,0.0096 -7.48799,2.37759599 0.1912,9.0407881 0.4592,3.870395 3.126396,3.228796 2.967196,-0.713599 6.157592,-2.299997 2.769596,1.301598 z M 2.7370501,62.843928 c 0.1303999,1.791998 0.9663987,2.907196 2.4879967,3.228796 1.9623973,0.415199 3.0719956,-0.649599 3.5751949,-2.802396 0.1103999,-0.472 0.0856,-0.865599 -0.2183997,-1.055999 -0.5783992,-0.3608 -2.1663968,0.0144 -2.9335958,-0.393599 -0.9551987,-0.5072 -1.1983984,-2.663997 -0.9615987,-3.671996 0.2359997,-1.008798 0.8391989,-2.089597 1.0031987,-2.867196 0.0328,-0.157599 0.048,-0.302399 -0.02,-0.383199 -0.0088,-0.0104 -0.0176,-0.02 -0.0264,-0.0288 C 3.3338493,54.34234 2.7722501,63.327927 2.7370501,62.843928 z M 42.060037,59.185645 c -3.583995,1.931197 -7.55999,3.667995 -10.743986,4.537594 -5.607992,1.528798 -4.503994,2.028797 -2.071997,2.298397 8.543988,0.945599 19.551974,-2.949596 24.503967,-10.600786 1.695998,-2.623196 2.727996,-5.740792 3.383995,-9.665587 0.072,-0.419199 0.16,-0.820799 0.304,-1.149598 0.08,-0.2056 0.375999,-0.4208 0.799999,-0.650399 6.191991,-3.366396 8.551988,-7.162391 4.535994,-13.893582 -1.615998,-2.692796 -3.831995,-5.902392 -4.111995,-5.993591 -1.063998,-0.3416 -1.503998,1.297598 -1.751997,2.791996 -0.112,0.671199 -0.08,1.757597 0.024,2.659996 0.271999,2.234397 0.983998,1.460798 2.223997,3.194396 0.407999,0.572799 0.863998,1.311198 1.335998,2.160797 1.887997,3.367995 1.183998,3.155196 -2.727997,4.442394 -1.287998,0.425599 -1.591997,0.543999 -2.479996,-0.695999 -1.815998,-2.550397 -4.799994,-6.347992 -8.471989,-6.378391 -3.671995,-0.0304 -4.735993,2.729596 -5.159993,5.518392 -0.879999,5.820792 -0.255999,9.926387 6.295992,9.452787 1.463998,-0.1056 3.615995,-0.530399 5.167993,-0.865599 1.607998,-0.344799 2.087997,-0.691999 1.711997,1.437598 -0.951998,5.380793 -13.623981,11.858384 -12.767982,11.399185 z m 7.14399,-17.348776 c -1.367998,0.0328 -2.991996,-0.1512 -3.487995,-0.324 -2.199997,-0.777599 -3.047996,-3.755995 0.072,-3.779995 1.983997,-0.0152 3.223995,0.906399 4.639993,2.393597 1.919998,1.660798 -0.423999,1.545598 -1.223998,1.710398 z M 52.860022,7.0099549 c -0.04,-0.028 -0.08,-0.0576 -0.128,-0.0896 -1.191998,-0.836799 -2.919996,-1.997598 -2.111997,-2.811197 0.727999,-0.735199 2.183997,-1.054398 3.247996,-0.681599 1.999997,0.707199 1.087998,2.223997 0.423999,3.387196 -0.431999,0.754399 -0.471999,0.860798 -1.431998,0.195199 z m 13.103982,7.9087901 c -0.111999,-1.135999 -0.591999,-0.968799 -3.351995,0.734399 -3.151996,1.483198 -5.159993,2.059197 -5.263993,-1.391198 -0.048,-1.579198 -0.24,-2.565597 -0.727999,-3.419996 -0.455999,-0.783198 -1.167998,-1.5895971 -1.151998,-2.2727961 0,-0.4048 0.223999,-0.8112 0.463999,-1.238399 0.879999,-1.563998 0.711999,-4.690394 -0.623999,-6.118392 C 54.18002,0.00516491 52.108023,-0.32763509 50.516025,0.33636391 47.34003,1.6587629 47.620029,5.9579569 50.060026,7.9803539 c 0.224,0.1856 0.831999,0.6072 1.303998,0.930399 1.519998,1.053599 1.023999,1.9687971 0.136,3.0039961 -3.783995,4.419994 -8.527989,8.851188 -13.359982,12.330383 -1.319998,1.002399 -9.959987,4.693594 -3.375995,3.732795 6.263991,-0.913598 13.807981,-9.144787 15.607978,-11.245585 5.543993,-6.457591 5.095994,-6.090391 5.663993,-0.955998 0.343999,3.160796 0.831999,4.081594 1.951997,4.233594 0.759999,0.1032 8.487989,0.1584 7.975989,-5.091193 z M 16.988071,40.226999 c -1.511998,-1.717598 -1.135999,-3.894395 2.255997,-4.763194 4.191994,-1.073598 6.127991,-0.612799 9.711986,0.2552 2.231997,0.540799 6.439992,1.767997 3.151996,-2.284797 -3.255995,-4.017595 -7.831989,-5.255993 -12.439983,-3.229596 -4.007995,1.759198 -8.319989,6.159192 -7.51199,10.767986 0.16,0.904798 0.519999,1.792797 1.127999,2.633596 2.175997,3.050396 0.655999,2.894396 -3.3279959,1.207999 C 7.3480839,43.712594 5.9400858,42.147796 5.1720869,38.839801 3.2520894,30.492612 3.9960884,11.786237 4.4200879,5.8118449 4.7800874,0.70865191 4.8200873,-1.9969441 1.5720917,1.7430509 -1.6439039,5.5166449 1.0440924,4.2606469 1.2040922,28.166215 c 0.056,9.404787 -1.08799858,19.065574 8.9039878,22.51837 5.175993,1.788797 14.55998,1.465598 21.151971,-1.047999 3.199996,-1.219998 6.423992,-3.188796 7.231991,-6.355991 0.743999,-2.902396 -1.015999,-2.112798 -2.071998,-1.451198 -2.871996,1.799197 -5.343992,2.728796 -7.48799,3.072795 -4.367994,0.698399 -9.039987,-1.376798 -11.943983,-4.675193 z M 14.556074,9.1673369 c 1.831997,-1.091999 4.471994,-2.704797 6.463991,-4.026395 2.183997,-1.441598 2.895996,-1.510398 3.023996,-4.101595 0.048,-0.86399799 -0.04,-1.39039799 -1.295998,-0.76639799 -0.671999,0.335199 -9.239988,5.92399099 -12.471983,8.42558799 -0.4719997,0.3608 -0.927999,0.5744 -1.0239989,1.5647981 -0.3279996,3.347996 0.9199989,1.523198 5.3039929,-1.0959981 z"
     style="fill:#000000;stroke:none" />
</svg>
