<?xml version="1.0"?>
<svg xmlns="http://www.w3.org/2000/svg" version="1.1">
  <path
     d="m 19.94109,16.05627 -0.454,-8.651 c -0.067,-1.283 -0.093,-1.506 -0.264,-2.233 -0.525,-2.229 -1.936,-3.449 -3.411,-4.237 -1.876,-1.002 -3.3075,-1.374 -5.2408,0.036 -1.5897,1.16 -1.7394,5.36 -1.1145,6.016 0.4662,0.49 1.7016,0.446 3.1969,0.095 3.7344,-0.877 4.1094,-0.675 5.0824,3.275 0.462,1.877 0.516,3.635 0.289,5.523 -0.483,4.008 -1.617,5.958 0.606,8.311 0.925,0.98 1.892,1.128 4.003,0.693 1.5,-0.309 1.797,-1.005 2.426,-3.082 0.443,-1.462 0.793,-2.772 0.679,-4.23 -0.225,-2.892 -3.352,-8.328 0.417,-9.678 0.696,-0.25 1.6,-0.087 2.38,0.083 1.05,0.229 1.229,0.125 1.783,-1.038 0.455,-0.957 0.982,-1.837 1.272,-2.867 1.087,-3.864 -0.578,-4.955 -3.919,-3.372 -3.832,1.816 -5.554,9.596 -4.735,14.812 0.251,2.15 0.525,4.086 0.525,4.086 0,0 -0.229,-0.003 -0.501,-0.029 -1.073,-0.106 -2.916,-1.53 -3.02,-3.513 z m 22.299,53.953 3.583,-3.583 -5.241,-5.241 -5.241,5.241 3.583,3.583 -3.583,3.583 5.241,5.241 5.241,-5.241 -3.583,-3.583 z m 17.155,-61.192 -4.881,4.849 c -0.812,0.806 -0.927,0.951 -1.154,1.447 -0.318,0.695 -0.428,1.857 -0.271,2.015 0.505,0.51 2.293,-0.728 2.915,-1.187 5.449,-4.019 7.931,-6.55 8.812,-11.753 0.448,-2.645 -0.953,-3.669 -3.431,-4.006 -3.931,-0.536 -7.833,0.012 -9.36,2.972 0.239,11.301 0.574,4.838 3.908,4.036 3.709,-0.892 7.697,-2.875 3.462,1.627 z m -45.789,26.108 0.179,-2.207 -3.1304,0.7 c -15.2167,3.402 -3.4316,-22.477 -6.347,-17.742 -3.3578,5.453 -4.8263,11.964 -4.1445,17.787 0.0744,0.636 0.1555,1.214 0.2545,1.743 1.5884,8.491 12.6654,6.171 13.1884,-0.281 z m 7.697,-5.415 -5.241,5.241 5.241,5.241 5.241,-5.241 -5.241,-5.241 z m 28.38,22.038 c -2.575,-1.968 -3.2,-5.387 -2.714,-8.605 0.114,-0.756 0.277,-1.456 0.482,-1.985 l -1.991,0.497 c -1.406,4.297 -5.439,16.27 5.365,19.064 0.044,0.012 0.089,0.022 0.133,0.032 0.155,0.034 0.313,0.062 0.472,0.085 1.647,0.24 15.219,-1.965 21.474,-6.596 3.52,-2.606 5.829,-6.046 7.357,-9.916 0.847,-2.146 1.765,-6.633 1.548,-7.569 -0.241,-1.037 -2.437,-4.187 -3.662,-5.104 -1.912,-1.433 -4.757,-1.076 -8.306,-3.091 -1.868,-1.06 -3.935,-2.779 -3.935,-2.779 0,0 0.489,0.018 1.416,0.052 5.769,0.215 1.218,-1.82 -0.403,-3.234 -2.228,-1.944 -4.886,-5.693 -6.219,-5.093 -0.669,0.301 -2.643,4.158 -2.988,5.614 -0.591,2.493 0.557,2.715 2.167,4.102 1.361,1.172 2.28,3.222 3.429,4.788 0.985,1.342 2.516,2.618 4.1,3.418 1.325,0.668 9.505,2.785 10.779,5.863 0.442,1.067 0.118,1.599 -0.605,2.263 -2.976,2.732 -5.881,4.722 -9.299,6.238 -0.384,0.17 -0.933,0.384 -1.6,0.629 -6.324,2.318 -11.835,5.275 -17,1.327 z m -1.827,-10.243 c 2.145,-1.894 3.183,-5.782 3.238,-8.295 0.035,-1.597 -1.66,-8.791 -2.497,-10.595 -0.316,-0.681 -0.627,-1.108 -1.226,-0.696 -0.164,0.113 -0.472,0.593 -0.8,1.202 -3.804,7.072 0.168,8.107 0.613,13.197 0.007,0.079 0.008,0.082 0.008,0.082 l -2.341,0.205 c -1.052,0.092 -1.28,0.104 -2.286,0.118 -2.408,0.033 -5.339,-1.248 -6.52,-2.658 -1.357,-1.621 -2.792,-4.094 -3.932,-2.373 -0.932,1.407 -1.748,4.694 -1.722,5.576 0.056,1.905 3.915,8.685 4.949,11.976 0.65,2.068 -0.293,2.822 -2.926,4.855 -0.569,0.44 -1.074,0.84 -1.649,1.218 -1.393,0.915 -5.397,2.327 -6.822,2.405 -1.734,0.095 -4.288,-0.362 -6.814,-1.232 -11.0645,-3.812 -7.815,-28.053 -10.466,-16.143 -4.673,20.994 4.0163,26.159 14.485,25.275 0.263,-0.022 0.501,-0.05 0.706,-0.083 0.144,-0.022 0.294,-0.05 0.451,-0.083 7.183,-1.487 12.588,-6.274 14.668,-12.843 0.504,-1.594 0.996,-3.188 1.363,-4.317 0.262,-0.806 0.556,-1.443 0.658,-2.688 0.046,-0.568 0.053,-1.262 0.053,-1.262 0,0 0.633,-0.056 1.335,-0.117 4.616,-0.404 7.468,-2.719 7.474,-2.724 z m -8.231,-22.535 3.459,-0.303 c 0,0 0.857,-2.365 1.134,-3.844 0.365,-1.95 -0.59,-3.03 -3.228,-3.825 -1.04,-0.313 -1.167,-0.402 -1.266,-0.892 -0.074,-0.364 -0.064,-0.733 -0.034,-1.107 0.124,-1.52 0.585,-3.11 0.424,-4.337 -0.172,-1.312 -1.827,-5.125 -2.953,-4.362 -1.028,0.696 -1.027,2.685 -0.531,3.727 1.257,2.642 2.559,2.774 1.927,5.802 -0.258,1.238 -0.905,2.338 -1.258,3.876 -0.791,3.45 -0.317,5.496 2.326,5.265 z"
     style="fill:#000000;stroke:none" />
</svg>
