<?xml version="1.0" encoding="UTF-8" standalone="no"?>
<svg>
  <path
     style="fill:#000000;stroke:none"
     d="m 65.214035,95.742157 -5.7925,5.791243 8.33499,8.33625 8.33625,-8.33625 -5.7925,-5.791243 5.7925,-5.79249 -8.33625,-8.335 -8.33499,8.335 5.7925,5.79249 z m -32.85997,-32.27122 -0.19,2.17625 1.9675,0.1725 c 0.885,0.0775 1.07375,-0.045 1.89124,-1.22375 1.5025,-2.165 2.28,-2.6 4.3125,-2.64875 0.4425,-0.0112 0.96,-0.0187 1.39875,0.0263 2.785,0.27875 1.3025,3.47125 0.33125,4.5675 -2.55875,2.88999 -8.47874,7.31749 -9.46374,9.76374 -0.165,0.41 -0.26375,0.83 -0.0888,1.02 0.9,0.975 5.50374,-2.62875 5.61999,-2.72125 3.5825,-2.87375 9.82749,-8.24249 11.56374,-13.58874 1.28625,-3.95874 -2.53375,-5.19374 -7.13874,-6.10499 -3.7975,-0.75125 -6.075,0.68875 -8.83874,4.70749 -0.3925,0.57125 -0.74,1.15 -0.9525,1.7975 -0.285,0.8725 -0.32625,1.0775 -0.4125,2.05625 z m -1.675,-10.18249 8.33624,-8.33624 -8.33624,-8.33499 -8.33499,8.33499 8.33499,8.33624 z m 23.27498,-30.45872 -0.645,-12.29999 c -0.0962,-1.8250007 -0.13375,-2.1425007 -0.37625,-3.1762507 -0.74625,-3.16749 -2.7525,-4.90374 -4.85,-6.02374 -2.66624,-1.42375 -4.70249,-1.95375 -7.45124,0.0525 -2.26,1.64875 -2.4725,7.61999 -1.585,8.55374 0.66375,0.6962507 2.42,0.6337507 4.54625,0.1337507 5.30999,-1.2475007 5.84249,-0.9600007 7.22499,4.65625 0.6575,2.66874 0.735,5.16874 0.4125,7.85249 -0.6875,5.69999 -2.3,8.47249 0.86125,11.81874 1.315,1.3925 2.69,1.6025 5.69124,0.985 2.1325,-0.44 2.555,-1.43 3.45,-4.38375 0.62875,-2.07875 1.12625,-3.93999 0.965,-6.01249 -0.31875,-4.1125 -4.765,-11.84249 0.5925,-13.76249 0.99,-0.35375 2.275,-0.1225 3.38375,0.11875 1.49499,0.32625 1.74749,0.17875 2.53499,-1.4762507 0.6475,-1.36 1.3975,-2.61125 1.80875,-4.07499 1.54625,-5.495 -0.82125,-7.04625 -5.57124,-4.795 -5.44875,2.5825 -7.89625,13.6437407 -6.7325,21.0599807 0.35625,3.0575 0.7475,5.80999 0.7475,5.80999 0,0 -0.32625,-0.004 -0.71375,-0.0425 -1.52625,-0.15 -4.14624,-2.17499 -4.29374,-4.99374 z m 30.28122,46.23996 -3.8175,13.94498 c -1.69625,6.5675 -0.86625,10.28374 1.89875,15.61999 2.46625,4.759993 4.15125,5.852493 9.38624,5.747493 3.91125,-0.0775 6.92249,-1.6675 10.507495,-4.21874 0.46375,-0.330003 0.95125,-0.683753 1.4525,-1.055003 7.10374,-5.25125 13.15749,-9.57374 15.98373,-15.68624 0.38875,-0.84 0.67875,-1.73125 0.8325,-2.655 0.29875,-1.81249 0.0725,-3.74499 0.73375,-5.06874 0.29625,-0.5925 0.77125,-1.0625 1.2125,-1.64625 3.33625,-4.40625 1.72625,-9.53374 -1.7475,-12.69249 -2.14499,-1.95 -5.39124,-3.54624 -8.48124,-4.85249 -3.93249,-1.66375 -7.17999,-2.77375 -10.80124,-5.63625 -1.450005,-1.14625 -1.613755,-1.365 -1.636255,-2.1875 -0.0163,-0.61124 -0.045,-1.45249 0.262505,-1.80499 0.47875,-0.54875 1.7725,0.085 2.45625,-0.0763 0.65875,-0.155 0.7525,-1.045 0.4625,-1.9575 -0.0525,-0.16375 -10.139995,-9.64499 -12.456245,-9.07749 -0.81125,0.19875 -1.45375,1.43125 -2.445,3.21124 -1.32999,2.3875 -3.28749,5.7575 -3.28749,5.7575 0,0 2.72,2.78625 4.10124,4.85749 0.79625,1.1925 1.1475,2.1475 1.66875,3.1325 4.7275,8.92749 12.494995,9.52999 21.372485,15.05874 2.89625,1.80374 7.71624,6.63249 6.62625,10.40374 -0.37875,1.31125 -3.4775,4.28999 -5.98375,5.75124 -1.93125,1.1275 -3.78,2.075 -5.42624,3.29375 -5.7325,4.24499 -10.497495,10.03499 -17.281245,5.68124 -3.73249,-2.395 -5.06749,-7.05499 -5.20624,-11.48124 l -0.3875,-12.36373 z m -25.06873,15.18373 c 0.0163,0.0675 0.025,0.10125 0.025,0.10125 0,0 2.13875,-5.24249 3.785,-6.61249 0.74625,-0.62 3.81499,-0.04 6.13374,0.5375 0.7275,0.18125 2.77125,-0.25625 4.635,-0.86375 2.3575,-0.7675 9.10624,-4.4975 10.59874,-13.94124 0.70625,-4.4725 -0.95125,-12.70499 -3.1025,-15.64873 -1.6025,-2.1925 -3.12875,-0.9575 -4.25749,1.68374 -0.97625,2.2825 -1.7775,3.98625 -1.54375,5.89375 0.48125,3.91749 5.50874,10.40374 2.34749,12.33124 -2.14249,1.305 -6.62499,1.53749 -8.57999,0.96125 -2.4325,-0.71625 -6.68249,-3.72875 -7.74999,-6.15875 -1.0725,-2.4375 -1.0625,-5.40874 -3.61375,-4.42624 -2.07249,0.79749 -3.30249,6.09499 -3.29124,8.96124 0.006,1.79375 0.44,3.01374 1.25375,5.24749 0.30875,0.85 0.65124,1.9275 0.99499,3.08625 l 1.9825,6.68624 -8.15499,4.5225 c -3.18625,1.76625 -6.03249,3.4325 -6.31749,3.53875 -12.13124,4.54499 -25.93998,3.31624 -31.34622,-5.825 -2.86625,-4.84499 -4.2212497,-9.03624 -3.2774997,-13.43999 1.1224997,-5.23999 4.3037497,-13.61248 6.4674897,-19.70123 l -2.75749,-10e-4 c -0.175,0.70625 -6.8937497,18.71123 -8.8137497,26.81873 -0.70499,2.97124 -1.07999,4.67124 -0.89749,6.66249 0.1775,1.94125 4.24624,10.38124 5.79874,12.03124 4.7274997,5.021243 16.0449797,6.754993 26.3362197,4.358743 5.0525,-1.176243 16.30874,-5.406243 18.47999,-7.631243 1.7325,-1.77375 2.91249,-4.59624 3.83624,-7.11499 0.16,-0.43625 0.6175,-1.27 1.02875,-2.0575 z m -46.03745,-36.60616 3.02624,-0.2525 c 1.4125,-3.97625 2.39125,-6.98 2.07875,-7.50375 -0.285,-0.4775 -0.89625,-0.5125 -2.17625,-0.19 -6.3962397,1.61125 -10.3974897,1.5125 -12.0849797,-5.16749 -1.31,-5.18625 -0.0913,-11.23874 2.04874,-15.57749 3.4475,-6.99499 11.5824897,-18.8549807 11.5824897,-18.8549807 l -1.0875,-0.095 c -0.49,-0.0425 -0.6725,0.1125 -1.82625,1.55125 C 4.8528353,13.826037 -3.8621547,32.181017 1.7803453,43.932257 c 0.4075,0.85 0.81375,1.35125 2.23124,1.90875 0.10125,0.0387 0.20625,0.0788 0.3175,0.11875 1.9775,0.71875 6.1962497,1.905 8.7999997,1.6875 z m 72.04743,-26.10498 -0.06,0.68 -0.68,-0.06 c 0,0 2.45125,-6.16374 2.99125,-10.69999 0.0637,-0.535 -0.94125,-10.0187407 -3.535,-11.2699907 -1.93125,-0.93125 -2.8775,1.72375 -3.3475,3.80375 -0.84375,3.73624 -0.44875,4.29624 0.84625,6.4949907 1.73125,2.93875 2.1875,5.435 1.29125,8.22999 -1.57375,4.9025 -3.23875,5.82 -3.19,10.68124 0.0187,1.85125 0.14625,2.125 1.27875,2.73375 2.15,1.1575 7.27124,1.6975 8.38374,1.4 1.09875,-0.2925 4.99125,-5.77625 3.96125,-8.79249 -0.33125,-0.97 -2.53875,-2.50625 -4.6775,-2.91625 -1.43374,-0.275 -3.26249,-0.285 -3.26249,-0.285 z" />
</svg>
