<?xml version="1.0" encoding="UTF-8" standalone="yes"?>
<svg xmlns="http://www.w3.org/2000/svg" xmlns:xlink="http://www.w3.org/1999/xlink"
  width="595.276pt" height="841.89pt" viewBox="0 0 595.276 841.89"
  fill-rule="evenodd">
  <path
     d="m 90.600173,77.952372 5.19201,-5.191013 -6.669013,-6.669013 -6.668012,6.669013 5.19101,5.191013 -5.19101,5.19101 6.668012,6.66901 6.669013,-6.66901 -5.19201,-5.19101 z m -9.625018,-67.946133 -5.539011,5.50201 c -0.921002,0.915002 -1.052002,1.079002 -1.309002,1.642003 -0.361001,0.789002 -0.486001,2.107004 -0.309001,2.286005 0.574001,0.579001 2.603005,-0.826002 3.309006,-1.347003 6.183012,-4.560009 9.000018,-7.432014 10.00002,-13.3370251 0.508001,-3.001006 -1.081002,-4.16300803 -3.894008,-4.54600903 -4.461008,-0.607001 -8.888017,0.014 -10.62102,3.37300703 0.271,12.8240241 0.651001,5.49101 4.435008,4.580008 4.208008,-1.013001 8.734017,-3.262006 3.928008,1.8470041 z m -4.354008,12.563024 -6.368013,6.368012 6.368013,6.368012 6.368012,-6.368012 -6.368012,-6.368012 z m 24.316043,-5.12801 -0.492,-9.3970181 c -0.073,-1.394002 -0.102,-1.637003 -0.288,-2.426004 -0.57,-2.421005 -2.102002,-3.746007 -3.705006,-4.602009 -2.037003,-1.08900203 -3.592006,-1.49300303 -5.69201,0.03896 -1.727004,1.260002 -1.890004,5.822011 -1.211003,6.535012 0.507001,0.532001 1.848004,0.484001 3.473007,0.103001 4.057008,-0.953002 4.463008,-0.733002 5.52001,3.5570061 0.502001,2.039004 0.561002,3.949008 0.314001,5.999011 -0.524001,4.355009 -1.757003,6.473013 0.659001,9.029018 1.005,1.064002 2.055,1.225002 4.34801,0.753001 1.629,-0.336001 1.952,-1.093002 2.635,-3.349006 0.481,-1.588003 0.86101,-3.010006 0.73801,-4.594009 -0.24401,-3.141006 -3.64101,-9.047017 0.453,-10.5130201 0.755,-0.271001 1.738,-0.095 2.585,0.09 1.141,0.249 1.335,0.136 1.936,-1.128002 0.49501,-1.039002 1.06701,-1.995003 1.38201,-3.113006 1.181,-4.19800803 -0.627,-5.38301003 -4.25601,-3.66300703 C 105.1732,2.7331849 103.3032,11.184201 104.1922,16.850212 c 0.273,2.336004 0.571,4.439008 0.571,4.439008 0,0 -0.249,-0.0032 -0.545,-0.03296 -1.166,-0.114 -3.16801,-1.661003 -3.28101,-3.815007 z M 0,63.825342 1.5150029,66.443347 c 0.3470007,0.599001 0.7040013,1.213002 1.065002,1.800003 6.9710134,11.320022 26.6170511,15.119032 37.9610731,15.242032 7.600014,0.082 15.415029,-0.676 22.607043,-2.56101 6.273012,-1.645 12.406023,-3.809005 14.443027,-5.497008 0.937002,-0.778002 1.635004,-1.664003 2.539005,-3.114006 2.218004,-3.556007 5.677011,-10.50202 5.677011,-10.50202 0,0 3.487007,0.184 6.174012,0.326 3.188006,0.168001 5.09501,0.742002 8.582014,-2.653005 0.245,-0.239 0.508,-0.493001 0.786,-0.771001 1.22901,-1.226003 3.00701,-5.444011 3.18501,-7.556015 0.161,-1.911003 -4.29401,-18.297035 -4.99101,-18.359035 -1.246002,-0.11 -4.719009,5.07501 -4.240008,9.061017 0.308001,2.558005 2.267005,4.80501 2.667005,9.298018 0.107001,1.202003 0.103001,2.564005 0.103001,2.564005 l -8.668017,-0.389001 c -0.415001,-0.01896 -0.468001,-0.03296 -0.529001,-0.143 -0.283001,-0.502001 -0.982002,-0.518001 -1.421003,-0.652001 -1.093002,-0.333001 -3.237006,-3.256006 -3.972007,-5.09101 -0.283001,-0.705001 -0.458001,-1.281002 -0.855002,-2.197004 -0.700001,-1.613003 -2.089004,-4.285008 -2.089004,-4.285008 0,0 -1.832003,3.058006 -2.877005,5.27001 -0.673002,1.425003 -0.735002,6.818013 -0.102001,8.855017 1.341003,4.318008 3.738007,11.714022 3.738007,11.714022 0,0 -2.100004,1.163002 -3.829007,2.059004 C 62.483119,76.632366 31.35406,77.725372 14.277027,70.884355 11.244022,69.669353 6.783013,67.616349 3.6320069,65.855345 L 0,63.825342 z m 112.53022,7.680014 c -0.60801,0.293001 -1.19401,0.555001 -1.73101,0.764002 -5.34001,2.080004 -9.24702,-1.106002 -11.116019,-6.695013 C 99.58219,65.272344 99.49219,64.986344 99.41219,64.716343 l -2.033004,-6.929013 -0.244,7.078013 -0.167001,4.82401 c -0.014,0.415001 -8e-4,0.505001 0.127001,0.900001 1.601003,4.92901 2.818005,8.543018 7.345014,10.090018 2.043,0.699 4.94401,0.318 7.61601,-0.617 8.88703,-3.111005 13.36504,-8.266015 19.18105,-14.274027 0.486,-0.503001 0.935,-1.005002 1.305,-1.484003 3.34201,-4.316008 2.28201,-9.790018 -0.283,-14.424027 -0.623,-1.126002 -1.127,-2.037004 -2.384,-2.842006 -3.42501,-2.193004 -12.13203,-4.316008 -11.69203,-5.33301 0.048,-0.111 0.136,-0.223 0.103,-0.369001 -0.025,-0.109 -0.115,-0.236 -0.13,-0.349 -0.033,-0.247001 0.298,-0.422001 0.476,-0.648001 0.462,-0.586002 -0.115,-1.512003 -0.781,-2.584005 -1.62001,-2.608005 -6.45202,-10.767021 -8.48802,-10.20402 -1.979,0.547001 -3.92501,4.476009 -4.10301,5.504011 -0.177,1.027002 -0.114,2.177004 0.449,3.062006 0.506,0.794001 1.416,1.374002 1.98801,2.277004 0.477,0.752001 0.719,1.730003 1.063,2.664005 1.868,5.07801 7.28501,9.528018 13.01903,10.863021 0.726,0.17 1.365,0.227 2.22101,0.597001 2.557,1.105002 7.04901,5.001009 7.04901,5.001009 0,0 -2.11301,2.102004 -3.74801,3.731008 -6.29101,6.260012 -14.31603,10.035019 -14.77103,10.255019 z M 66.634127,57.525329 c 0.184001,2.543005 1.371003,4.124008 3.529007,4.580009 2.783005,0.589001 4.358009,-0.920002 5.07101,-3.974007 0.157,-0.670002 0.122,-1.229003 -0.310001,-1.498003 -0.820001,-0.512001 -3.072006,0.02 -4.161008,-0.559001 -1.355002,-0.719002 -1.699003,-3.778008 -1.364002,-5.20801 0.335,-1.431003 1.190002,-2.964006 1.423002,-4.067008 0.04696,-0.224 0.06904,-0.430001 -0.028,-0.544001 -0.01304,-0.01504 -0.02496,-0.028 -0.03696,-0.04096 -3.277006,-0.747002 -4.073007,11.998023 -4.123008,11.311021 z"
     style="fill:#000000;stroke:none" />
</svg>
