<?xml version="1.0" encoding="UTF-8" standalone="yes"?>
<svg xmlns="http://www.w3.org/2000/svg" xmlns:xlink="http://www.w3.org/1999/xlink"
  width="595.276pt" height="841.89pt" viewBox="0 0 595.276 841.89"
  fill-rule="evenodd">
  <path
     d="m 41.703974,16.517909 -0.4664,-8.8991945 c -0.0696,-1.319999 -0.0968,-1.550399 -0.2728,-2.297598 -0.539199,-2.292799 -1.991199,-3.547998 -3.508798,-4.35919705 -1.929598,-1.0304 -3.402397,-1.413599 -5.391196,0.0376 -1.635199,1.19359905 -1.789599,5.51359605 -1.146399,6.18879605 0.479199,0.503999 1.750398,0.458399 3.288797,0.0976 3.842398,-0.9024 4.227198,-0.6944 5.227997,3.3687965 0.4752,1.931199 0.5312,3.739998 0.2976,5.681597 -0.4968,4.123997 -1.663999,6.130396 0.6232,8.551194 0.951999,1.0072 1.946398,1.16 4.118397,0.7128 1.542399,-0.3176 1.848799,-1.0352 2.495998,-3.171198 0.4552,-1.504799 0.8152,-2.851198 0.6984,-4.351197 -0.2312,-2.975199 -3.447998,-8.5679945 0.4288,-9.9567935 0.715999,-0.2568 1.646399,-0.0896 2.447998,0.0856 1.081599,0.2352 1.264799,0.1288 1.834399,-1.067999 0.4688,-0.984 1.010399,-1.889599 1.308799,-2.948798 C 54.807165,0.21391945 53.094367,-0.90767955 49.657569,0.72031945 45.715171,2.5891185 43.943972,10.592312 44.786372,15.958709 c 0.2576,2.211199 0.540799,4.203197 0.540799,4.203197 0,0 -0.235999,-0.0024 -0.516799,-0.0304 -1.104,-0.1088 -2.999998,-1.573599 -3.106398,-3.613597 z m 14.171991,14.83279 -4.319998,4.291197 c -0.718399,0.7128 -0.819999,0.8408 -1.020799,1.28 -0.2816,0.615199 -0.3784,1.643999 -0.2408,1.783199 0.448,0.451999 2.029599,-0.644 2.579999,-1.0504 4.822397,-3.555998 7.019195,-5.795996 7.798395,-10.400793 0.396799,-2.340799 -0.8432,-3.246398 -3.035998,-3.545598 -3.479198,-0.4736 -6.931196,0.0112 -8.283195,2.630398 0.2112,10.000794 0.508,4.282398 3.458398,3.571998 3.282398,-0.789599 6.811195,-2.543998 3.063998,1.439999 z M 78.80715,69.865875 c -0.321599,2.008799 0.0696,2.501598 1.404799,1.885599 0.9096,-0.42 12.643992,-7.246396 14.358391,-9.290394 0.6904,-0.8232 1.3784,-2.279199 1.621599,-3.589598 0.1496,-0.8064 -0.0928,-0.7784 -0.961599,-0.4552 -2.013599,0.7488 -15.28959,8.830395 -15.70639,9.560794 -0.388,0.6824 -0.6376,1.389599 -0.7168,1.888799 z M 97.432739,18.594707 c 0.143999,1.983199 1.068799,3.215998 2.752001,3.571998 2.1704,0.4592 3.39839,-0.7184 3.95519,-3.099998 0.1216,-0.5224 0.0944,-0.957599 -0.2424,-1.167999 -0.6392,-0.3992 -2.39599,0.0152 -3.24479,-0.436 -1.056003,-0.5608 -1.324803,-2.946398 -1.064003,-4.061597 0.2616,-1.116 0.928803,-2.311199 1.110403,-3.171198 0.0368,-0.1744 0.0536,-0.3351995 -0.0224,-0.4247995 -0.01,-0.0112 -0.0192,-0.0216 -0.0288,-0.032 -2.555202,-0.5824 -3.176001,9.3567935 -3.215201,8.8215935 z M 23.344785,68.330676 c 0.144,1.982399 1.0688,3.215998 2.751999,3.571198 2.170398,0.459199 3.398397,-0.7176 3.954397,-3.099198 0.1224,-0.5224 0.0952,-0.9576 -0.2416,-1.168 -0.639199,-0.399999 -2.395998,0.0152 -3.244798,-0.435999 -1.056799,-0.5608 -1.325599,-2.946399 -1.063999,-4.061598 0.2616,-1.115999 0.927999,-2.311998 1.109599,-3.171998 0.0368,-0.1744 0.0544,-0.3344 -0.0216,-0.424 -0.0096,-0.0112 -0.0192,-0.0216 -0.0288,-0.032 -2.555198,-0.582399 -3.176798,9.356795 -3.215198,8.821595 z m 20.167988,-29.294382 5.187996,-5.187996 -5.187996,-5.187997 -5.187997,5.187997 5.187997,5.187996 z m 17.912788,29.359182 3.604798,3.604798 5.187997,-5.187997 -5.187997,-5.187997 -3.604798,3.604798 -3.604797,-3.604798 -5.187997,5.187997 5.187997,5.187997 3.604797,-3.604798 z M 80.511149,46.967489 c -1.489599,0.3872 -2.640798,0.6776 -4.540797,0.7936 -2.513598,0.1528 -6.337596,0 -6.337596,0 0,0 -0.0456,-1.336799 0.1472,-2.170399 0.3936,-1.704799 3.239998,-3.839997 4.572797,-4.083997 1.967199,-0.3608 6.809596,1.452799 7.371995,4.085597 0.0472,0.2224 0.0672,0.4712 0.04,0.7072 -0.036,0.3168 -0.161599,0.384 -1.253599,0.667999 z m -69.252756,-7.545595 -3.7527977,-0.4176 0,-1.250399 c 0,0 0.6223996,0.1104 0.8335994,0 0.108,-0.0568 0.1088,-0.1704 0.1623999,-0.2552 0.4287998,-0.683199 1.6335994,0.2888 1.9223984,0.4632 0.3376,0.204 0.7416,0.3344 0.8344,0.7928 0.0552,0.274399 0,0.667199 0,0.667199 z m 5.419996,-0.4176 -0.833599,0 0,0.4176 -1.667999,0 0,-2.501598 c 0,0 0.8304,-0.0456 1.392799,0 0.6504,0.052 1.064,0.456799 1.108799,1.083999 0.0304,0.4216 0,0.999999 0,0.999999 z m 83.809551,-4.002397 0,0.667199 -0.833603,0 0,-0.416799 c 0,0 -1.247199,-0.104 -2.289598,-0.2464 -1.432799,-0.1944 -3.839998,-0.5632 -3.964798,-2.255999 -0.0144,-0.1928 0,-0.416799 0,-0.416799 l 0.8336,0 0,-0.4168 1.579999,0 c 0.709599,0 0.836799,0.016 1.272799,0.156 0.654399,0.2096 2.247198,1.362399 2.649598,1.792799 0.676803,0.723199 0.752003,0.836799 0.752003,1.136799 z M 60.621562,5.0787165 65.879958,45.25949 c 0,0 -0.268799,-0.04 -0.416799,0 -0.228,0.0608 -0.1264,0.4432 -0.1768,0.6568 -0.0776,0.3264 -0.6424,0.292 -1.157599,0.1768 -0.9672,-0.2168 -1.759999,-0.7176 -2.418399,-1.459199 -2.286398,-2.575999 -2.301598,-3.339198 -4.131997,-0.3248 -1.846399,3.040798 -5.925597,4.998397 -8.793595,3.243198 -1.882399,-1.151999 -3.626397,-4.585597 -4.836797,-4.795197 -2.007998,-0.3464 -7.213595,4.843197 -7.463995,5.420797 -0.76,1.758398 -1.139999,6.873595 -2.876798,6.254396 -0.4864,-0.1736 -0.948,-0.8872 -1.292799,-1.667999 -1.2624,-2.859999 -1.0424,-6.784796 -2.501599,-9.589594 -0.723199,-1.391199 -2.298398,-2.911998 -2.292798,-4.253598 0.0048,-1.417599 1.108799,-4.503197 1.108799,-4.503197 l 2.324798,0 c 1.0448,0 1.252,-0.0176 2.069599,-0.1776 2.197599,-0.428799 2.477599,-1.100799 2.835998,-4.075197 0.2568,-2.139999 -0.527199,-3.610398 -3.335998,-4.086397 -0.990399,-0.168 -3.095198,0.252799 -3.752797,1.251199 -0.2952,0.447999 -0.3584,1.148799 -0.6232,1.667999 -0.513599,1.007999 -1.783999,1.335199 -2.503998,2.084798 -0.5112,0.532 -0.8624,2.637599 -0.6256,3.751998 0.284,1.335999 1.551199,3.885598 1.251199,4.728797 -0.387199,1.090399 -2.681598,1.695999 -3.960797,2.776798 -0.909599,0.768 -1.307199,1.775999 -1.667999,2.919198 -1.594399,5.041597 -2.131999,15.283191 -6.463196,18.554389 -2.166399,1.636799 -3.847998,1.443999 -5.8375963,-0.6256 -1.515199,-1.575999 -3.2551979,-4.492797 -3.2551979,-4.492797 0,0 5.0311972,-7.443995 5.9655962,-10.517593 0.4384,-1.4416 0.5864,-2.750399 1.251199,-3.335998 0.912,-0.8032 2.835998,-0.6864 4.377597,-1.2504 1.958399,-0.715999 2.959999,-2.642398 3.335998,-4.836796 0.2184,-1.2736 -0.112,-3.378398 -0.625599,-4.336798 -1.391999,-2.596798 -6.792796,-5.236796 -9.798394,-5.003197 -0.3767998,0.0288 -2.4655985,0.4232 -3.220798,1.0032 -0.2911998,0.2224 -0.3511998,0.3696 -0.6047996,1.467999 -0.8223995,3.571198 -2.6471984,10.404793 0.0728,11.496793 2.3743985,0.953599 4.5727966,-0.0512 3.7527977,2.293598 -0.6167997,1.763199 -3.0295981,4.119998 -4.0287975,6.203996 -0.1919999,0.4 -0.3311998,0.7896 -0.8079995,0.884 -0.3055998,0.0608 -0.7503995,0 -0.7503995,0 L 3.0855981,41.089093 c 0,0 -0.4751997,-0.032 -0.7503996,0 -0.4047997,0.048 -0.7423995,0.8696 -0.8231995,1.803199 -0.056,0.6448 -0.0592,0.841599 -0.0264,1.967199 0.1071999,3.765597 0.3679997,10.586393 -0.052,11.295193 C 1.0799993,56.750683 0.50319968,56.873083 0.23359985,58.134682 0.02959998,59.086682 0,60.686681 0,60.686681 l 1.7631989,0 c 0.7927995,0 0.9215994,0.1184 1.2911992,1.183199 1.9991987,5.756796 4.9847968,10.712793 10.1215939,10.075194 3.275198,-0.4072 4.574397,-2.339199 6.212796,-5.420797 0.979199,-1.841599 2.283998,-6.257596 2.710398,-9.173594 0.628,-4.291997 0.4464,-7.910395 4.027998,-9.589594 1.109599,-0.5208 1.459999,0.1536 1.874398,1.718399 2.511999,9.486394 1.606399,11.217593 8.691195,17.252789 0.962399,0.819999 1.803999,1.464799 3.752797,2.084799 2.123199,0.676799 5.561597,1.324799 5.561597,1.324799 l 0.915999,-5.859197 c 0.1744,-1.112799 0.168,-1.255199 -0.0656,-1.428799 -0.172799,-0.1288 -0.365599,-0.216 -0.574399,-0.291199 -1.235999,-0.4416 -3.022398,-0.4352 -4.169598,-0.8336 -1.979998,-0.688 -3.989597,-3.662398 -4.586397,-5.345597 -0.307999,-0.866399 -0.403199,-1.662399 0,-2.509598 0.4408,-0.929599 3.657598,-3.937598 4.752797,-3.611198 0.8256,0.2456 1.757599,2.118399 2.787999,3.077598 1.888798,1.759999 6.331196,2.073599 8.303194,0.8832 1.558399,-0.94 3.231998,-3.382398 4.419998,-3.543998 0.970399,-0.132 4.754397,2.056799 5.170396,3.168798 0.4656,1.246399 -2.330398,4.992797 -2.919198,6.555196 -0.4168,1.106399 -0.4168,2.416798 0,2.784798 0.6632,0.5848 1.425599,0.248 1.894399,-0.668799 0.1712,-0.336 0.24,-0.488 0.6872,-1.521599 l 2.839198,-6.565596 c 0,0 4.429597,0.0624 7.338395,0 2.202399,-0.0472 3.531998,-0.1664 5.170397,-0.6256 2.066399,-0.5792 5.324796,-2.091999 7.003995,-1.672799 1.1768,0.2936 2.497599,1.490399 3.836798,2.089599 4.238397,1.895999 13.136796,-0.4392 16.261586,-2.918398 2.2416,-1.778399 1.6944,-2.311199 2.7104,-4.795197 1.2824,-3.135198 2.3072,-2.956798 1.876,-5.845597 -0.5704,-3.824797 -4.6824,-11.662392 -7.50479,-13.959991 -3.404802,-2.771198 -7.939199,-2.792798 -10.215998,1.042399 -1.943199,3.273598 -3.031198,8.609595 -1.250399,11.675193 1.434399,2.469599 5.951996,3.764798 8.964794,3.335198 3.467193,-0.4936 5.032793,-2.274399 5.836793,1.167999 0.3448,1.474399 -0.7568,2.115999 -2.50159,2.793599 -4.782402,1.855998 -7.9232,1.915998 -12.091997,0.833599 -1.295999,-0.336 -2.551999,-0.8096 -3.037598,-1.519199 -0.744,-1.085599 -0.4736,-2.995198 -1.132,-4.526397 -1.092799,-2.543199 -6.197596,-6.595196 -8.472794,-7.088796 -2.047199,-0.443999 -4.919997,0.5912 -6.537596,2.502399 -0.9424,1.113599 -2.084799,2.918398 -2.084799,2.918398 0,0 -0.5232,-5.723997 -1.251199,-11.466393 -1.040799,-8.216795 -2.501599,-16.47039 -2.501599,-16.47039 0,0 2.147999,0.004 2.919199,-0.416799 0.416799,-0.2272 0.357599,-0.9296 0,-1.6679985 -0.6168,-1.271999 -1.549599,-2.963198 -1.876799,-4.586397 -0.1968,-0.979199 -0.1736,-1.934399 -0.4168,-2.918398 -0.4608,-1.86399905 -1.044799,-2.76799805 -2.435198,-2.08479905 -0.9736,0.4784 -1.949599,1.68559905 -2.791199,2.66079805 -0.737599,0.8552 -0.803199,1.0736 -0.657599,2.190399 z m 25.027184,2.551998 0,-5.420796 c 0,0 -0.806399,-0.0576 -1.334399,0 -0.624,0.068 -0.8616,0.2968 -1.167199,0.625599 -2.031999,2.185599 -3.586398,4.315998 -4.728797,3.543998 -0.5464,-0.3696 -0.972,-1.327999 -1.711199,-1.916799 -0.644,-0.511999 -3.178398,-0.871999 -4.126398,-0.584799 -1.401599,0.423999 -2.331998,2.287998 -1.359999,5.081596 0.1376,0.3952 0.3184,0.7664 0.5688,1.0959995 0.3368,0.443999 0.499199,0.493599 1.625599,0.493599 l 3.202398,0 c 0,0 2.076798,2.543199 2.283198,3.615198 0.0512,0.2648 -0.012,0.44 -0.1152,0.6248 -0.842399,1.501599 -4.379197,3.659997 -5.854396,5.767196 -1.663999,2.376799 -1.363199,7.791195 0.976799,10.723193 1.404,1.760799 2.611199,1.12 3.401598,-0.991199 0.4168,-1.114399 0.4168,-3.649598 0,-3.894398 -0.3304,-0.1944 -2.459998,0.292 -2.919198,-1.501599 -0.0424,-0.1648 -0.0472,-0.3336 -0.028,-0.499999 0.0256,-0.2248 0.1128,-0.3424 0.876,-1.1736 2.436798,-2.653598 13.546391,-10.833593 15.71199,-11.692792 0.412799,-0.164 0.815199,-0.2896 0.952799,-0.1424 0.4176,0.4464 -1.618399,3.672797 -1.876799,4.169597 -0.212,0.4072 -0.3992,0.8128 -0.489599,1.255199 -0.1224,0.596 -0.136,0.7512 -0.136,1.551199 l 0,1.779999 0.667999,0 c 0.3,0 0.3872,-0.1128 0.8704,-1.130399 1.342399,-2.821598 4.505597,-10.4015925 6.801595,-11.5871915 1.32,-0.6816 3.508802,-0.6864 4.586402,-1.667999 0.4536,-0.4128 0.7104,-0.9992 0.92639,-1.570399 0.292,-0.7704 0.324,-0.9624 0.324,-1.922399 l 0,-2.13599905 c 0,0 -1.71759,-0.2816 -2.78479,0 -1.224803,0.3232 -1.594403,1.38639905 -2.427202,2.08479905 -0.3024,0.2536 -0.6656,0.4592 -1.042399,0.625599 -1.2152,0.5368 -2.569599,0.664 -3.751998,1.2512 -1.651999,0.819199 -2.969598,2.534398 -4.404797,3.697597 -0.9952,0.8056 -2.046399,1.347199 -3.517598,2.3479985 -2.081599,1.415999 -5.003997,3.752797 -5.003997,3.752797 0,0 0.4704,-2.415198 1.066399,-3.800797 0.5584,-1.2999995 1.3696,-2.0543985 2.646399,-2.2807985 0.521599,-0.0928 1.291199,-0.1728 1.291199,-0.1728 z"
     style="fill:#000000;stroke:none" />
</svg>
