<?xml version="1.0" encoding="UTF-8" standalone="yes"?>
<svg xmlns="http://www.w3.org/2000/svg" xmlns:xlink="http://www.w3.org/1999/xlink"
  width="595.276pt" height="841.89pt" viewBox="0 0 595.276 841.89"
  fill-rule="evenodd">
  <path
     d="m 102.36728,9.6632702 c 0,0 -0.87028,-0.92531 -1.71457,-1.96966 0.36512,0.451152 -8.623885,-7.97467103 -7.953661,-0.273092 1.200399,8.9099848 3.973326,0.868291 7.929651,4.1453888 3.34913,2.773929 2.75293,6.730254 3.61221,1.001336 0.53918,-3.5952038 -0.088,-4.8976408 3.34912,-4.8976408 0.26109,0 0.48316,0 0.62621,0 1.12738,0 1.05435,-2.861958 1.14538,-4.113378 0.024,-0.335111 0.026,-0.365122 0.026,-0.365122 0.094,-1.288431 0.072,-1.478495 -0.22407,-1.903637 -0.62921,-0.90130203 -0.98633,-0.98433003 -1.56352,-0.80226903 -1.10237,0.348116 -2.97,1.80260403 -3.51118,2.83094803 -1.1894,2.258756 -1.72157,6.347126 -1.72157,6.347126 z m 14.11573,2.2057378 c 3.72625,-2.1607228 7.35746,-3.9573248 9.88131,-5.7879378 1.52751,-1.107371 2.16673,-2.35979 2.58086,-4.549524 0.22408,-1.18439603 -0.008,-1.29843403 -1.37645,-0.95732003 -1.15639,0.287096 -8.52386,2.79893703 -9.80729,4.07036303 -0.72524,0.719241 -1.1904,1.796602 -1.94165,2.676897 -0.74925,0.879294 -1.88063,1.628546 -2.99,2.291767 -4.91364,2.9379838 -14.946008,11.0887138 -19.365486,14.8609768 -0.596199,0.509171 -0.742247,0.733246 -1.028343,1.381463 -0.729248,1.651553 -0.70024,4.581535 -0.482168,4.890638 0.23708,0.334112 1.162392,0.157053 1.972663,-0.68723 0.455152,-0.474159 0.780264,-1.128378 1.241416,-1.769593 1.667559,-2.318776 5.105708,-4.453491 7.165408,-6.313114 0.23507,-0.213071 0.45215,-0.421142 0.67922,-0.607204 5.11471,-4.185402 11.0357,-8.088709 13.47051,-9.500182 z m -14.54287,61.528608 -0.55418,-0.01101 1.41447,-2.266759 c 0.041,-0.06502 0.075,-0.113039 0.094,-0.139047 1.27342,-1.67256 2.27476,-1.717576 4.08037,-0.730245 0.36612,0.200067 0.68023,0.38713 0.79326,0.921309 0.055,0.260087 0.063,0.603202 0.056,0.890298 -0.008,0.312105 -0.014,0.554186 -0.014,0.554186 0,0 -0.007,0.002 -0.066,0.01301 -0.17806,0.03401 -1.02134,0.21107 -1.93865,0.38913 -1.10337,0.214072 -2.58286,0.547183 -3.86529,0.379127 z m -24.628251,1.337448 -2.227743,-0.153052 0.12404,0.50817 c 0.03104,0.126042 0.066,0.259087 0.10504,0.379127 0.840279,2.62788 7.516516,3.137051 8.807947,2.816943 1.017344,-0.252084 2.671895,-0.922308 3.473166,-1.58553 2.250751,-1.864625 3.270095,-5.511846 5.520846,-4.228416 0.320111,0.18206 0.606207,0.474159 0.855287,0.850284 0.492168,0.744249 0.83628,1.818609 1.400471,2.35879 0.504168,0.483162 1.182392,0.540181 1.949647,0.613205 4.69357,0.44815 9.98835,0.98433 12.61923,-3.282099 1.56852,-2.544852 0.65422,-6.257095 -1.98567,-6.902312 -2.52884,-0.618206 -4.73158,1.261423 -6.24108,4.025349 -0.12505,0.228076 -0.23908,0.445149 -0.34712,0.650218 l -1.32344,2.539851 -0.836289,0.03001 c -0.264087,0 -0.492159,-0.04002 -0.756247,-0.12004 -0.273096,-0.08203 -0.541184,-0.200067 -0.786264,-0.418141 -0.437152,-0.39013 -0.800271,-1.102369 -1.185399,-1.739582 -0.627208,-1.038348 -3.240086,-2.698904 -4.446486,-1.762591 -0.180064,0.139047 -0.35212,0.319107 -0.530184,0.526177 -0.947311,1.106371 -2.053687,3.003006 -3.175062,3.808275 -0.188064,0.134045 -0.749248,0.452152 -1.268423,0.695233 -1.819607,0.851285 -7.076373,0.574193 -9.746267,0.390131 z m -33.827327,1.223409 c -0.327112,2.270761 0.07,2.827947 1.426479,2.131714 0.923312,-0.475159 18.018031,-7.229421 19.758614,-9.540195 0.70024,-0.930312 1.399471,-2.575863 1.645551,-4.057359 0.152056,-0.912305 -0.09403,-0.879295 -0.975319,-0.514172 -2.044687,0.846283 -20.704942,9.02002 -21.127078,9.845297 -0.395135,0.771259 -0.647215,1.570526 -0.728247,2.134715 z M 83.865085,18.045077 78.11716,24.44422 83.864085,30.842363 89.61101,24.44322 83.865085,18.045077 z m 36.139105,-6.685239 -5.74692,6.399143 5.74592,6.398143 5.74792,-6.399143 -5.74692,-6.398143 z m -20.203769,40.57659 -20.319805,0 c 0,0 0.864295,-1.468492 1.653559,-2.630881 2.71991,-4.005342 7.034356,-7.409482 10.349466,-6.840291 4.40647,0.757253 4.27843,1.801603 7.521517,5.864964 0.354119,0.443148 0.681231,0.74825 0.795263,1.501503 0.12004,0.799267 0,2.104705 0,2.104705 z M 118.27061,40.742679 c -2.06669,-1.409473 -0.71124,-2.753922 0.2901,-3.291103 1.53351,-0.822275 4.1774,1.069359 5.43582,2.078697 3.07003,2.462825 1.74458,2.893969 0.17005,2.818944 -4.24142,-0.202068 -6.38414,-1.939649 -5.89597,-1.606538 z M 54.6323,24.417211 C 53.626957,12.329163 52.733661,0.02804317 52.733661,0.02804317 c 0,0 -0.536176,-0.06202 -0.850287,0 -0.339112,0.06702 -0.419136,0.279094 -0.519168,0.526176 -1.822615,4.50150803 -2.594871,5.77193303 -2.126719,9.47117183 0.409144,3.230082 1.268431,6.804279 1.889639,11.837964 0.317104,2.563859 0.572192,5.506846 0.775256,8.406817 0.554183,7.916651 0.149047,0.47716 0.543183,8.712918 0.169056,3.548188 0.401136,6.611214 0.740248,9.215086 0.05704,0.440147 0.11704,0.86729 0.181064,1.281429 0.02104,0.380127 0.04504,0.795266 0.074,1.25642 l 0.190064,3.037018 -3.001007,0.274092 c -0.638215,0.05902 -1.224415,0.101034 -1.763591,0.128042 l -2.922982,0.17806 0.09303,-0.20907 c -3.210069,-0.303102 -4.103372,-1.647552 -6.838291,-3.677231 -0.231072,-0.171058 -0.475152,-0.202068 -0.784256,-0.007 -0.507175,0.321107 -0.755255,1.276427 -1.296439,1.995668 -1.426479,1.896636 -3.752254,1.917642 -5.326781,1.835615 -1.716575,-0.08903 -4.815614,-1.039348 -5.247758,-1.675562 -0.919311,-1.353453 -0.583199,-2.365792 -1.776599,-1.898636 -1.418471,0.555187 -3.33111,2.822946 -5.105709,3.814279 -1.660551,0.927309 -5.203741,1.123376 -6.882301,0 C 12.16405,54.120121 10.611531,52.169468 10.156379,50.906045 9.806259,49.93572 9.756243,49.684636 9.6522111,48.397205 9.2160593,43.000397 8.5848516,33.160102 8.0706759,24.075059 l -0.07104,0.09203 C 7.4494522,14.302786 7.0573244,5.6348832 7.2333803,4.9956692 7.5374842,3.8932992 8.4527877,1.2524152 7.6165081,0.11303317 7.4354522,-0.13404883 6.3270768,0.02300317 5.7528851,0.59219417 4.8835975,1.4534822 3.5221422,5.5368502 3.3160703,6.8082762 c -0.2150719,1.322443 -0.1160399,3.040018 0,4.7996078 0.3071039,4.698573 0.7302476,11.353802 1.2104074,18.435174 l 0.085024,-0.111037 c 0.6832316,9.988345 1.4724952,20.63491 2.2117428,27.721284 0.134048,1.28443 0.1930639,1.518508 0.5921997,2.336782 1.3714553,2.814944 4.5245178,3.747255 6.4381568,3.8803 1.227407,0.08403 3.946318,-0.837281 4.946653,-1.676562 0.379128,-0.318106 0.696232,-0.604202 0.970328,-0.856287 l 1.757591,-1.619542 2.546847,1.231413 c 2.500838,1.208404 4.785605,2.565859 6.8613,1.807605 1.023344,-0.374125 2.151719,-1.273426 3.162063,-1.914641 l 1.657551,-1.050352 1.339447,1.04335 c 1.039352,0.771258 10.996683,3.772263 15.055048,-0.114039 0.640208,-0.613205 1.43948,-1.627544 2.199735,-2.801938 0.299096,-0.463155 0.569192,-1.066357 0.813272,-1.789599 0.837279,1.752587 1.915639,2.891968 3.31211,3.46516 2.237751,0.917307 4.831614,1.123377 6.356125,-0.02901 0.862288,-0.653218 1.427479,-1.432479 1.922647,-2.022677 l 1.326439,-1.58153 1.920647,2.033682 1.405472,1.641549 -1.1994,2.540852 c -0.783263,1.658555 -1.880631,3.775264 -2.304775,5.542856 -0.193063,0.80627 -0.418143,2.330781 -0.236079,2.630881 0.710239,1.169392 3.179062,-1.934648 3.592206,-2.785933 1.093367,-2.254755 1.580527,-5.34479 2.751918,-5.934988 0.580192,-0.293098 1.347456,-0.104034 2.208743,0.06602 2.448815,0.483161 14.690921,0.271091 16.662576,-0.289097 3.279102,-0.932312 5.163733,-2.054688 7.477505,-1.366457 2.03868,0.607203 3.62522,2.470827 6.52919,3.208074 1.32844,0.336113 3.50017,0.349117 5.58987,0.248083 3.61421,-0.173058 6.52819,-0.731245 8.82496,-1.417475 6.16506,-1.840616 7.84762,-3.704241 10.73159,-9.025022 1.05635,-1.947653 1.86062,-3.8813 2.11971,-5.209745 0.81927,-4.204409 -1.90364,-11.392816 -4.11138,-14.586886 -3.61721,-5.232752 -8.70291,-7.342458 -12.75927,-2.630881 -1.40748,1.635548 -4.21241,9.581209 -4.25243,12.62723 -0.018,1.360455 0.22108,2.936983 0.75426,4.33245 3.45416,6.070033 4.24042,4.410477 9.24209,3.198072 2.55686,-0.619208 5.77894,-1.196401 6.07004,-0.95332 0.20506,0.172058 0.3161,1.07236 -0.29511,1.668559 -0.16004,0.156052 -0.3121,0.223075 -1.52551,0.671225 -0.80026,0.295099 -1.5095,0.593199 -2.27476,0.835279 -3.8773,1.226412 -9.5632,1.238416 -13.02036,0.951319 -0.093,-0.007 -0.19206,-0.01601 -0.29909,-0.02501 -0.83829,-0.07202 -1.64355,-0.400134 -2.43182,-0.681228 -2.05669,-0.734246 -4.09237,-1.526512 -4.25343,-2.188734 -0.22907,-0.941314 0.94732,-2.3908 0.94532,-3.967328 -0.003,-2.698904 -4.99067,-10.149399 -6.783267,-11.478845 -3.335118,-2.473828 -5.885973,-3.411142 -8.862971,-1.387464 -2.732919,1.857622 -5.493837,4.769597 -7.981676,8.235758 -2.678895,3.734251 -6.075029,9.253099 -6.075029,9.253099 0,0 -4.211414,-2.824946 -4.793605,-4.201407 -0.600208,-1.420476 -0.906304,-1.353453 -2.796943,1.037348 -1.597535,2.018676 -3.475158,2.201737 -5.330781,1.803604 -1.681567,-0.361122 -2.895975,-0.68523 -3.804278,-1.13338 -3.337119,-1.645551 -4.616542,-22.297468 -4.929646,-25.513545 -0.05904,-0.605203 -0.05104,-0.47816 0.04704,0.706236 z M 59.706994,4.1744312 c 0.498167,0.752253 1.287431,1.58153 1.608543,2.047687 0.312104,0.45215 2.686894,13.5525378 2.126711,17.3728178 -0.534176,3.651223 -2.184735,4.799607 -0.750248,9.030024 0.760248,2.242751 2.421807,3.452156 4.908638,4.113377 1.667559,0.44415 2.411806,-0.622207 3.256094,-4.09237 0.420136,-1.729579 0.287096,-2.893969 -1.743583,-4.062361 -1.363456,-0.785262 -3.575198,-1.533513 -3.575198,-1.533513 0,0 0.07904,-6.272101 -0.016,-11.130728 C 65.421919,10.839664 64.736687,4.7926382 63.915415,1.7496202 63.797376,1.3124732 63.671336,0.87532717 63.454256,0.48819717 c -0.188056,-0.338113 -0.310104,-0.474159 -0.6162,-0.485163 -3.087038,-0.115038 -3.084038,4.24242103 -3.131054,4.17139703 z m 15.357144,1.394468 c 1.562527,-0.778261 4.428486,-1.135381 4.825621,-0.74625 0.229072,0.225075 0.178056,0.646216 -0.026,1.084363 -0.509167,1.096367 -1.976655,2.302771 -3.44115,3.390135 -2.760927,2.0496868 -3.834286,2.4358158 -4.482502,5.4678308 -0.195064,0.910305 0.04104,0.990332 1.223416,0.492166 3.07703,-1.295434 7.277436,-4.431485 8.477835,-7.2184178 1.054352,-2.44782 1.698568,-4.494506 0.547184,-6.813282 -0.388128,-0.78326303 -0.553184,-0.88329603 -1.646551,-1.00733803 -1.217407,-0.137045 -2.183735,-0.410137 -3.66323,-0.005 -0.07704,0.02101 -0.155048,0.04402 -0.234072,0.06902 -2.605879,0.80527003 -4.73459,1.62754603 -4.878638,4.67156503 -0.149047,3.16406 -1.593535,3.048021 3.298103,0.615206 z M 0,74.222892 c 0.14604793,2.241751 1.0853674,3.635217 2.7939346,4.037352 2.2037429,0.519174 3.4501582,-0.811272 4.0153419,-3.503173 0.124048,-0.591198 0.09604,-1.083363 -0.2450798,-1.320443 C 5.914981,72.984477 4.1313819,73.453636 3.2690943,72.943463 2.1967349,72.30925 1.923647,69.613348 2.1897349,68.352926 c 0.2650878,-1.262423 0.9423115,-2.612875 1.1263754,-3.586201 0.03704,-0.196066 0.054,-0.378127 -0.022,-0.479161 -0.01,-0.01201 -0.02,-0.02501 -0.03,-0.03601 C 0.67023966,63.593336 0.04003198,74.828099 1.5999992e-5,74.222896 z M 36.929365,36.38722 36.522229,27.733322 c -0.06104,-1.284431 -0.08402,-1.507505 -0.238079,-2.234748 -0.471152,-2.228747 -1.738584,-3.450156 -3.064023,-4.23842 -1.685567,-1.001335 -2.971998,-1.374461 -4.708582,0.03702 -1.428471,1.160388 -1.562519,5.360795 -1.001335,6.018015 0.419144,0.490164 1.529519,0.44615 2.871967,0.09403 3.356126,-0.877294 3.692238,-0.674227 4.566525,3.276097 0.415144,1.877629 0.46416,3.637218 0.260088,5.52485 -0.434144,4.010343 -1.453487,5.960996 0.544184,8.314785 0.831279,0.979328 1.699567,1.127377 3.596206,0.693232 1.347447,-0.309104 1.614543,-1.006337 2.179727,-3.084033 0.397136,-1.462489 0.712239,-2.771928 0.610208,-4.230417 -0.202072,-2.892969 -3.012007,-8.33179 0.374119,-9.682242 0.625216,-0.249084 1.437488,-0.08703 2.137719,0.08303 0.94432,0.229077 1.104368,0.126042 1.602535,-1.038347 0.409136,-0.956321 0.882296,-1.837615 1.142384,-2.866961 0.977327,-3.866294 -0.519176,-4.956659 -3.520174,-3.373129 -3.443159,1.815608 -4.989678,9.599214 -4.25443,14.816962 0.22508,2.150721 0.47216,4.087369 0.47216,4.087369 0,0 -0.206072,-0.003 -0.451152,-0.03001 -0.96332,-0.106035 -2.619879,-1.530512 -2.712911,-3.513176 z m -12.324122,37.825669 3.735247,4.158392 5.064701,-5.639889 -5.064701,-5.638888 -3.735247,4.158393 -3.734254,-4.158393 -5.064693,5.638888 5.064693,5.639889 3.734254,-4.158392 z m -3.734254,-41.627942 -5.064693,5.639889 5.064693,5.638888 5.064694,-5.638888 -5.064694,-5.639889 z m 0.23308,-22.9216768 c 0,0 -0.870295,-0.92531 -1.714575,-1.96966 0.36512,0.451152 -8.623891,-7.97467103 -7.95266,-0.273092 1.1994,8.9099848 3.972326,0.868291 7.928652,4.1453888 3.349118,2.773929 2.753919,6.730254 3.612206,1.001336 0.539184,-3.5952038 -0.08802,-4.8976408 3.349127,-4.8976408 0.261087,0 0.484159,0 0.626207,0 1.128376,0 1.054352,-2.861958 1.145384,-4.113378 0.024,-0.335111 0.02704,-0.365122 0.02704,-0.365122 0.09303,-1.288431 0.07104,-1.478495 -0.225072,-1.903637 -0.629216,-0.90130203 -0.986336,-0.98433003 -1.563527,-0.80226903 -1.101368,0.348116 -2.969991,1.80260403 -3.511175,2.83094803 -1.189399,2.258756 -1.721575,6.347126 -1.721575,6.347126 z m 14.116729,2.2057378 c 3.725246,-2.1607228 7.35746,-3.9573248 9.880307,-5.7879378 1.527511,-1.107371 2.166727,-2.35979 2.580863,-4.549524 0.22408,-1.18439603 -0.008,-1.29843403 -1.376464,-0.95732003 -1.155383,0.287096 -8.523851,2.79893703 -9.807283,4.07036303 -0.725239,0.719241 -1.190399,1.796602 -1.940647,2.676897 -0.750255,0.879294 -1.880631,1.628546 -2.990998,2.291767 C 26.652922,12.551237 16.620568,20.701967 12.20109,24.47423 c -0.5962,0.509171 -0.742256,0.733246 -1.028352,1.381463 -0.729239,1.651553 -0.700231,4.581535 -0.482159,4.890638 0.237079,0.334112 1.163391,0.157053 1.973663,-0.68723 0.454151,-0.474159 0.779263,-1.128378 1.240415,-1.769593 1.667559,-2.318776 5.105709,-4.453491 7.165396,-6.313114 0.23508,-0.213071 0.452152,-0.421142 0.679232,-0.607204 5.114709,-4.185402 11.035698,-8.088709 13.471513,-9.500182 z"
     style="fill:#000000;stroke:none" />
</svg>
