<?xml version="1.0" encoding="UTF-8" standalone="yes"?>
<svg xmlns="http://www.w3.org/2000/svg" xmlns:xlink="http://www.w3.org/1999/xlink"
  width="595.276pt" height="841.89pt" viewBox="0 0 595.276 841.89"
  fill-rule="evenodd">
  <path
     d="m 84.844786,25.943352 3.728792,-3.660792 -5.215189,-5.08319 -5.196793,5.101589 3.728796,3.634393 -3.728796,3.659992 5.215193,5.083189 5.196789,-5.100789 -3.728792,-3.634392 z m -57.77988,37.05752 3.659992,3.729592 5.083189,-5.215189 -5.100789,-5.197589 -3.635192,3.728792 -3.659992,-3.728792 -5.083189,5.215189 5.100789,5.197589 3.635192,-3.729592 z M 71.47681,2.0713886e-4 66.393621,5.2153961 71.49441,10.412985 76.578399,5.1969961 71.47681,2.0713886e-4 z M 64.251226,31.887339 l 5.385588,3.001593 c 1.478397,0.823999 3.286393,1.969596 4.318391,3.083994 0.387999,0.419199 0.714399,0.868798 0.657599,1.362397 -0.0176,0.1536 -0.128,0.230399 -1.103998,0.769598 -3.055993,1.690397 -5.843187,0.659999 -7.857583,-1.138397 -0.663999,-0.592799 -1.193598,-1.524797 -1.277597,-2.697595 l -0.1224,-4.38159 z M 95.545563,19.712965 c 3.076793,-4.132791 4.859187,-9.09838 5.449587,-13.8479709 0.9184,-7.387984 -8.64318,-4.59439 -14.052769,-2.171995 -3.264793,1.462397 -7.436788,4.207191 -10.645581,6.3879869 -1.672796,1.136797 -7.923983,7.227184 -10.299178,9.936778 l -2.471994,2.819194 -0.0608,-3.220793 -0.3688,-19.54235786 c 0,0 -1.219997,-0.1656 -1.847996,0 -0.511999,0.1344 -0.629598,0.489599 -0.821598,0.918398 -0.479199,1.07199796 -1.864796,3.29279296 -2.183195,4.72798996 -0.2312,1.042397 -0.244,1.285597 -0.1304,2.429595 0.795198,7.9711829 2.002396,18.8351589 2.002396,23.9463479 0,9.31838 -1.114398,15.951966 6.643186,16.947964 2.468794,0.316799 3.028793,0.088 5.279988,-1.915996 3.096794,-2.756794 3.108794,-3.583192 6.131987,-10.123978 0.483199,-1.044798 0.731198,-4.79279 1.055198,-4.82959 0.930402,-0.1064 -3.778392,-3.324793 -2.920794,-2.765594 1.154398,0.752799 -4.917589,-3.323993 -5.168789,-3.967191 0.304799,-4.439991 14.539973,-13.148772 23.296754,-15.126368 5.303989,-1.1975969 0.675999,6.710386 -1.610396,10.067179 -2.446395,1.570396 -7.091985,7.764783 2.723194,-0.669599 z M 49.008059,5.7705951 c -2.699995,1.831996 -5.319989,3.462393 -6.106387,4.6319899 -0.343999,0.512799 -1.857596,4.925589 -1.063998,5.961587 0.751998,0.981598 1.329597,-0.502399 2.074396,-1.605596 0.897598,-1.331197 3.698392,-3.599993 5.319188,-4.7967899 4.399191,-2.910394 6.183187,-3.505593 7.770384,-8.609582 0.076,-0.243999 0.123199,-0.74559796 0,-1.02239796 -0.660799,-1.47839704 -4.269591,2.44879496 -5.10959,3.19359296 -0.859998,0.762399 -1.855196,1.515997 -2.883993,2.247196 z m -5.301589,27.9983399 -1.516797,0 c -0.681598,0 -0.799198,-0.0328 -1.177597,-0.333599 -2.375195,-1.887996 0.0456,-3.803992 1.517597,-6.256787 0.359199,-0.598399 1.447197,-3.234393 1.176797,-3.628792 -0.585599,-0.854398 -2.318395,1.064797 -2.767994,1.703196 -2.211195,3.139993 -4.55519,7.568784 -3.619992,10.790377 0.519999,1.790396 1.583196,2.099195 3.747192,2.410395 0.239999,0.0344 0.480799,0.068 0.721598,0.0408 0.324,-0.0368 0.423199,-0.1344 0.992798,-0.974398 0.421599,-0.623199 0.813598,-1.140798 0.926398,-2.047196 0.0896,-0.727198 0,-1.703996 0,-1.703996 z m 2.815194,10.236778 c -1.691996,0.403999 -3.399193,0.778398 -5.143189,0.835198 -1.551997,0.0512 -6.511186,-1.188797 -7.664783,-1.915996 -1.643997,-1.036798 -3.991992,-4.37039 -4.258391,-7.281584 -0.1064,-1.160798 0,-2.725594 0,-2.725594 0,0 -1.635997,-0.1448 -2.843994,0 C 21.370518,33.546535 15.142531,45.37931 14.103334,48.751303 13.436135,50.915298 12.026538,54.221691 9.4417437,55.060889 5.5873522,56.312886 1.4089612,44.641711 1.7761604,42.626516 2.0969597,40.86812 3.2249573,38.948924 2.6281586,38.453725 1.3505613,37.392927 0.14736392,42.935315 0.07296408,43.648914 -0.57743452,49.9169 3.1785574,58.593681 9.0153446,60.809677 c 3.0615934,1.162397 4.3095904,1.174397 6.1751864,-1.490397 0.663999,-0.948798 1.251198,-1.908796 1.703197,-2.980794 0.839998,-1.995195 1.209597,-4.37679 2.128795,-6.387986 0.591199,-1.291197 3.952792,-7.783183 5.893587,-6.812785 1.128798,0.563998 1.855196,3.677592 2.623195,5.109589 1.922396,3.587192 8.204782,5.345588 12.476773,4.68479 1.393597,-0.216 7.590384,-2.379195 8.538382,-3.081594 2.546394,-1.886396 6.036787,-9.501579 5.599188,-11.737575 -0.0584,-0.299199 -2.494395,-6.046387 -3.735992,-6.773585 -1.747997,-1.022398 -3.217593,4.414391 -3.503193,6.007187 -0.1152,0.643199 -0.143199,1.195198 0,1.787996 0.400799,1.657597 1.118398,2.241595 0.931998,3.872792 -0.072,0.631199 -0.204799,0.730398 -1.324797,0.998398 z"
     style="fill:#000000;stroke:none" />
</svg>
