<?xml version="1.0" encoding="UTF-8" standalone="yes"?>
<svg xmlns="http://www.w3.org/2000/svg" xmlns:xlink="http://www.w3.org/1999/xlink"
  width="595.276pt" height="841.89pt" viewBox="0 0 595.276 841.89"
  fill-rule="evenodd">
  <path
     d="m 74.155039,75.253616 c 1.725,-0.691 3.452001,-1.431 5.185001,-2.219001 2.205001,-1.002 6.695002,-4.189001 7.110003,-5.045001 0.403,-0.834 0.503,-1.762001 0.917,-2.752001 1.703,-4.079009 3.050001,-4.007009 1.29,-7.29101 -0.902,-1.684001 -1.779,-3.133001 -3.484001,-4.163001 -1.376,-0.831001 -3.692001,-1.848001 -3.692001,-1.848001 l 7.042002,0 c 1.238001,0 1.455001,-0.014 2.163001,-0.142 2.053001,-0.371 2.346001,-1.268 3.561001,-3.986001 1.164,-2.603001 2.994001,-5.556002 2.523001,-7.339003 -0.179,-0.674 -0.673,-1.334 -1.147001,-2.293 -1.737,-3.511001 -3.202001,-11.025004 -3.202001,-11.025004 0,0 -1.561,2.804001 -2.302,4.604002 -0.662,1.607 -0.879001,3.075001 -0.688001,4.403001 0.402001,2.805001 2.637001,8.914003 2.637001,8.914003 l -8.766002,-0.41 c -1.237001,-0.058 -1.510001,-0.03696 -2.725001,0.21 -8.937003,1.815 -10.529003,2.902001 -11.786004,11.559003 -0.291,2.001001 1.039,2.522001 3.660001,2.844001 4.248002,0.522 4.583002,-1.132 9.641003,1.147001 2.860001,1.289 3.240001,2.895008 0.917001,4.587009 -2.729001,1.988001 -6.302002,3.618001 -10.259004,4.945002 -13.385012,4.490001 -26.819016,4.564001 -40.80802,2.28 -8.576011,-1.4 -18.186014,-3.631001 -21.640015,-6.236002 -0.256,-0.193 -0.5,-0.389 -0.7300001,-0.589 -0.231,-0.202 -0.4710001,-0.418 -0.7130002,-0.643 L 0,56.559602 6.1700019,67.069614 c 0.8370003,1.424 1.7250005,2.895001 2.6440008,3.976001 2.7930013,3.286001 13.1130043,6.047002 19.8330143,7.513002 17.697005,3.860002 29.555009,3.091002 45.508022,-3.305001 z M 135.68707,42.670598 c -7.28701,-1 -13.88101,-2.434001 -17.05601,-3.876001 -6.66,-3.026001 -5.225,-5.163002 1.376,-10.091003 2.979,-2.224001 5.209,-3.539001 7.938,-2.787001 0.865,0.238 1.015,0.137 1.504,-1.003 0.652,-1.519009 1.422,-2.840009 1.566,-4.69601 0.067,-0.86 0,-1.834 0,-1.834 0,0 -2.611,-0.144 -4.137,0 -4.468,0.421 -11.785,7.41001 -13.12,9.591011 -0.838,1.37 -1.285,2.748 -1.548,5.270001 -0.37,3.547001 -0.459,9.604003 -0.459,9.604003 0,0 1.774,1.248001 3.211,2.138001 2.438,1.508 6.512,2.697001 11.095,3.613001 10.75201,2.150001 19.99102,3.130001 32.20802,-1.910001 1.445,-0.597 2.671,-1.071 3.319,-1.013 0.891,0.07896 5.071,3.048001 6.277,5.134002 0.986,1.706 -0.363,2.148 -2.752,2.679 -4.168,0.925001 -8.339,1.772001 -12.482,2.482001 -13.78501,2.365001 -26.34802,4.081001 -38.94402,-2.109 -0.109,-0.05296 -0.218,-0.107 -0.326,-0.162 -7.069,-3.541002 -8.351,-5.091002 -9.633,-11.466004 -0.796,-3.960001 -1.467,-8.617003 -1.605,-12.513004 -0.144,-4.060001 0.29,-7.29301 0,-12.742012 -0.36,-6.764002 -1.83501,-16.94300522 -1.83501,-16.94300522 0,0 -0.669003,-0.081 -1.101004,0 -0.561,0.105 -0.72,0.485 -0.963,0.917001 -2.478001,4.41200102 -2.807001,4.84000102 -1.376,10.09100222 2.345,8.602003 1.455,15.941013 1.606,23.869016 0.06696,3.571001 1.785004,15.116004 2.522004,16.953005 1.71701,4.277001 5.30801,6.933002 10.07501,8.923003 18.338,7.65201 25.62701,4.775009 43.15502,1.332 5.969,-1.173 11.566,-2.526001 14.576,-3.587001 2.656,-0.937 5.54801,-3.122001 6.42101,-7.018002 0.091,-0.403 0.096,-0.749 0,-1.101 -0.063,-0.232001 -0.171,-0.466001 -0.304,-0.712001 -7.70701,-14.229004 -12.11901,-11.251003 -12.97501,-11.018003 -2.842,0.773 -7.235,2.147001 -10.801,3.107001 -3.37,0.908 -9.074,1.044 -15.34701,0.686 l -0.085,0.192 z m -37.921024,30.134017 3.892014,3.892002 5.602,-5.602002 -5.602,-5.602002 -3.892014,3.893001 -3.893001,-3.893001 -5.602002,5.602002 5.602002,5.602002 3.893001,-3.892002 z m -13.026004,-44.262021 5.602002,-5.60201 -5.602002,-5.602002 -5.602002,5.602002 5.602002,5.60201 z m 24.238018,0 5.602,-5.60201 -5.602,-5.602002 -5.602,5.602002 5.602,5.60201 z m -40.432023,-8.630011 -0.433,-10.7280032 c -0.06496,-1.592 -0.09,-1.869001 -0.254,-2.770001 -0.501,-2.764001 -1.849001,-4.277001 -3.259001,-5.254001 -1.792001,-1.24300102 -3.160009,-1.70500102 -5.00701,0.04504 -1.519,1.438 -1.662,6.646002 -1.065,7.460002 0.445,0.608 1.626,0.553 3.054001,0.118 3.569009,-1.088 3.927009,-0.837 4.857009,4.0610012 0.441001,2.327001 0.493001,4.508001 0.276001,6.849002 -0.461001,4.97201 -1.545001,7.39001 0.579,10.308011 0.884,1.214001 1.808,1.398001 3.825001,0.859 1.433,-0.383 1.718,-1.247 2.319001,-3.823001 0.423,-1.813 0.757,-3.437009 0.649,-5.245009 -0.215,-3.586001 -3.203001,-10.328003 0.398,-12.0030042 0.665,-0.309 1.529,-0.107 2.274001,0.104 1.004,0.2840002 1.174,0.1550002 1.704,-1.288 0.435,-1.186 0.938,-2.278001 1.215,-3.555001 1.039001,-4.79200202 -0.552,-6.145002 -3.744001,-4.18200102 C 72.272038,3.1206178 70.627038,12.769621 71.409038,19.237623 c 0.24,2.667001 0.502,5.068001 0.502,5.068001 0,0 -0.219,-0.004 -0.479,-0.03696 -1.026,-0.131 -2.787001,-1.897 -2.886001,-4.356001 z m 5.519002,20.562014 c -1.058001,1.099001 -1.989001,2.171001 -2.374001,2.977001 -0.288,0.602001 -0.473,1.231001 -0.239,1.395001 0.393,0.274 1.452,-0.567 2.185001,-1.171001 2.836001,-2.334 8.764002,-7.809002 7.447002,-11.369003 -0.634,-1.715001 -4.488001,-2.803001 -6.577002,-1.22 -0.609,0.461 -2.214001,2.535 -2.435001,3.575001 -0.213,1.006 -0.161,2.387 -0.161,2.387 0,0 0.872,-0.092 1.433001,-0.256 0.828,-0.244 0.976,-0.645 1.72,-0.863 0.356,-0.104 0.849,-0.166 1.291,-0.203 1.565001,-0.131 1.552001,0.529 1.214001,1.142 -0.06,0.109 -0.535,0.608001 -1.051,1.134001 0.139,-0.143 -2.173001,2.18 -2.453001,2.472 z M 83.175042,9.5515798 c 0.155,2.1420012 1.154,3.4730012 2.972,3.8570012 2.344001,0.496 3.669002,-0.775 4.270002,-3.347001 0.132,-0.5640002 0.102,-1.0340002 -0.261,-1.2610002 -0.69,-0.431 -2.587001,0.01704 -3.504001,-0.47 -1.141001,-0.606 -1.431001,-3.182001 -1.148001,-4.386002 0.282,-1.205 1.002001,-2.496 1.198001,-3.42500102 0.04,-0.188 0.058,-0.362 -0.024,-0.458 -0.01,-0.012 -0.02104,-0.024 -0.03096,-0.03496 -2.759001,-0.629 -3.430001,10.10300322 -3.472001,9.52500302 z m 62.000038,2.8670012 c -5.54001,3.397001 -10.52001,7.297002 -11.79001,10.933003 -0.85601,2.449009 -0.69701,5.19301 1.008,7.554011 0.074,0.101 0.14,0.192 0.201,0.274 -0.77,-1.045001 2.087,3.351001 1.922,-1.115001 -0.039,-1.067 -0.16,-2.406 -0.51,-2.743001 -0.204,-0.196 -0.484,-0.054 -0.66,-0.16 -0.792,-0.475 0.555,-2.434 1.196,-3.183009 1.73,-2.02 4.27901,-4.185001 7.21601,-6.276002 4.286,-3.052 8.779,-5.375001 13.771,-7.074002 1.109,-0.377 2.146,-0.6750002 3.085,-0.8810002 0.76,-0.166 1.519,-0.301 1.663,-0.044 0.071,0.128 -0.009,0.3530002 -0.132,0.6070002 -0.288,0.595 -0.749,1.317001 -1.261,2.090001 -10.62,16.035013 6.132,-6.2190022 10.885,-6.8440022 0.435,-0.215 0.84301,-0.388 1.20501,-0.502 1.849,-0.582 3.853,-0.706 4.096,-2.479001 0.034,-0.249 0.039,-0.558 0.03,-0.859 -0.062,-2.26300102 -2.953,-1.92000102 -5.80701,-1.05700102 -1.966,0.59500102 -19.038,7.41600202 -26.118,11.75900422 z m 8.664,24.639015 0.534,-0.009 c 0.24,-0.0048 0.304,-0.151 0.644,-1.461 1.952,-7.537002 2.308,-11.699012 -2.494,-16.533013 -0.791,-0.796 -1.712,-1.463001 -2.306,-0.75 -0.403,0.484 -0.814,3.901001 -0.63,4.647001 0.321,1.305 1.273,1.729009 2.372,2.614009 2.482,2.002 3.104,3.503001 2.788,6.169002 -0.242,2.045 -0.908,5.323001 -0.908,5.323001 z m -10.785,-21.564014 -0.134,-3.061001 c -0.053,-1.237001 -0.036,-1.459001 0.179,-2.217001 0.16,-0.5630002 0.328,-1.1780002 0.755,-1.5740002 1.039,-0.966 3.613,-0.632001 4.807,-1.427001 1.719,-1.146 1.72,-5.080001 0.397,-6.67500202 -1.402,-1.69099998 -4.237,0.99500102 -5.398,2.53200102 -0.714,0.943 -1.389,2.025001 -1.693,3.287001 -0.141,0.585 -0.219,1.249001 -0.329,1.831001 l -0.54,2.8470002 -1.78101,-2.2670002 c -2.438,-3.210001 -1.694,-4.164001 -5.277,-5.038002 -1.20001,-0.292 -3.80301,-0.183 -4.30301,1.169001 -0.392,1.057 0.527,3.629001 1.103,4.240001 0.443,0.469 2.235,1.6350002 2.97601,1.7060002 1.21,0.117 3.683,-0.62 3.683,-0.62 0,0 1.995,2.873001 3.21401,4.221001 0.532,0.589001 0.972,1.063001 1.654,1.076001 0.281,0.0048 0.687,-0.03 0.687,-0.03 z m -26.69802,3.563001 0.534,-0.01 c 0.241,-0.004 0.305,-0.15 0.644,-1.461001 1.953,-7.536002 2.309,-11.6980032 -2.493,-16.5320042 -0.791,-0.79600102 -1.713,-1.46400102 -2.306,-0.75000102 -0.403,0.484 -0.814,3.90100202 -0.631,4.64700202 0.322,1.305 1.273,1.728 2.372,2.614001 2.482,2.001 3.105,3.5030002 2.789,6.1680012 -0.243,2.046001 -0.909,5.324002 -0.909,5.324002 z"
     style="fill:#000000;stroke:none" />
</svg>
