<?xml version="1.0" encoding="UTF-8" standalone="yes"?>
<svg xmlns="http://www.w3.org/2000/svg" xmlns:xlink="http://www.w3.org/1999/xlink"
  width="595.276pt" height="841.89pt" viewBox="0 0 595.276 841.89"
  fill-rule="evenodd">
  <path
     d="m 6.3430076,5.9436866 c 0,0.818001 0,1.438002 0,1.438002 0,1.499002 0.095,1.808002 0.9590012,3.0960044 1.5870019,2.367003 3.3270042,5.043006 5.0470062,7.605009 -0.925001,-1.379002 8.834011,11.847014 12.297015,16.68302 l 3.092003,3.955005 c 1.709002,1.995002 3.459005,4.039005 5.222007,5.990007 1.343001,1.488002 5.254006,8.33601 7.430009,8.33601 0.17,0 0.206,0 0.206,0 0,0 0,-0.31 0,-0.965001 0,-2.057003 -3.244004,-10.322013 -5.021006,-12.328015 -1.355002,-1.529002 -8.34601,-9.420011 -13.156016,-14.849018 -3.824005,-2.203003 -9.433011,-15.2820184 -8.17201,-13.858017 0,0 0,0 0,0 l 2.196003,0 c 0,0 -0.566001,-2.2210024 -1.317002,-3.6000044 -1.054001,-1.933003 -2.473003,-2.213003 -3.294004,-3.400004 -0.894001,-1.292002 -1.081001,-3.65800497 -1.9760021,-4.00000497 -0.5020006,-0.192 -1.2280015,0.254 -1.7910022,0.553001 -0.0056,0.0032 -0.012,0.0056 -0.018,0.009 L 6.3430076,5.9436866 z M 37.271045,11.815694 c 0.346,-0.413 0.592001,-0.753001 0.690001,-0.979001 0.501,-1.1540014 0.527,-3.0220044 0,-3.3400044 -0.253001,-0.153 -0.625001,-0.102 -0.937001,-0.06104 -0.422001,0.054 -0.589001,0.177 -1.677002,1.220002 l -14.074017,13.5010164 0,3.340004 c 0,0 1.036001,0.387 2.108002,0 0.143,-0.052 0.293001,-0.128 0.448001,-0.223 L 37.271045,11.815654 z m 5.748007,42.856052 c 0.06096,1.146001 0.105,2.277003 0.137,3.264004 0.125,3.921005 -3.491004,10.419012 -6.444008,13.204016 -1.418001,1.337001 -4.070005,3.284004 -5.885007,4.491005 -2.667003,1.773002 -6.726008,2.882004 -8.976011,5.261007 -0.603,0.638 -1.034001,1.226 -1.034001,1.226 0,0 1.484002,0.198 3.332004,0.445 6.235008,0.834 6.988009,-0.593 12.258015,-3.897003 6.213007,-4.664006 5.938007,-7.88801 8.39701,-13.548016 0.393,-0.905002 0.804001,-1.569002 1.755002,-0.708001 0.526001,0.476 0.639001,1.537002 1.128001,2.251002 2.258003,3.294004 14.066017,4.086005 16.58802,3.695005 2.237003,-0.348001 4.504006,-0.829001 5.945008,-1.475002 0.365,-0.164 1.124001,-0.706001 1.991002,-1.490002 2.782003,-2.516003 5.273006,-6.750008 5.273006,-10.071012 0,-0.841001 0,-1.202001 0,-1.202001 l -0.937001,0 c -0.421,0 -0.595,0.108 -1.733002,1.083001 -2.060002,1.762002 -4.931006,4.510005 -6.403008,4.917006 -1.250001,0.345 -2.796003,0.445 -4.269005,0.431 -3.562004,-0.036 -10.372012,-2.408002 -10.372012,-7.346008 0,-0.440001 0,-1.533002 0,-2.292003 0,-2.004003 1.826002,-2.170003 3.853004,-2.559003 1.225002,-0.235001 2.621004,-0.394001 3.762005,-0.234001 2.913003,0.410001 4.258005,3.118004 5.735007,3.000004 1.371002,-0.109 1.973002,-1.449002 1.408002,-2.564003 -0.662001,-1.310002 -2.780004,-3.271004 -4.407006,-4.814006 -0.487,-0.462 -0.931001,-0.887001 -1.478002,-1.181001 -0.737,-0.397001 -0.956001,-0.441001 -2.185002,-0.441001 l -1.737002,0 -3.311004,1.484002 c -0.085,0.107 -0.178,0.224 -0.282001,0.354 -0.73,0.913002 -1.423001,1.735003 -2.020002,2.509003 -1.703002,2.207003 -2.672003,6.287008 -2.469003,8.13101 0.248,2.257003 0.706001,6.431008 0.706001,6.431008 0,0 -1.624002,-1.829002 -2.788003,-3.439004 -3.501005,-4.845006 -2.976004,-8.08801 -3.503005,-14.787018 -0.403,-5.137006 -0.804001,-10.230012 -0.804001,-10.230012 -0.01104,-0.141 -0.02,-0.273001 -0.028,-0.395001 l -0.118,-8.18001 c -0.21,-5.260006 -0.873001,-25.87303137 -0.873001,-25.87303137 0,0 -1.263001,0.385 -2.093002,0.98800097 -2.084003,1.513002 -2.085003,6.444008 -1.929003,8.22501 0.399001,4.5430064 0.996001,15.3340194 1.136002,16.9280214 0.056,0.633001 0.155,1.667002 0.27,3.184004 2.571003,24.443029 2.421003,25.53903 2.404003,25.22403 z M 23.188028,54.162745 c 0.471001,-0.557 0.803001,-1.140001 1.632002,-1.367001 0.477,-0.131 1.119001,-0.144 1.680002,-0.119 0.229,0.01104 0.695001,0.648 1.133001,1.378001 0.519001,0.865001 1.504002,3.063004 1.504002,3.063004 0,0 0,0 0,0 -2.124002,-0.428001 -3.207004,-1.322002 -6.382008,-1.322002 -0.238,0 -0.271,0 -0.271,0 0,0 0,-0.533 0,-0.533 0,-0.240001 0.07,-0.350001 0.704001,-1.100002 z M 0,82.795778 c 0,0 2.8300034,0 4.8850059,0 3.5370042,0 8.1810101,-2.232 10.3560121,-6.350006 1.691002,-3.203004 3.038004,-7.353009 3.275004,-9.508011 0.219001,-1.998003 0.455001,-4.142005 0.455001,-4.142005 0,0 1.330001,0 2.162002,0 1.064002,0 4.416006,1.140001 6.346008,2.305003 1.036001,0.626 1.153002,0.732 1.153002,1.028001 0,0 0,0.667001 0,0.667001 0,0 0.796,0 1.672002,0 2.803003,0 3.598004,-7.494009 3.598004,-9.516012 0,-0.343 0,-0.665001 0,-0.965001 -0.208,-2.412003 -2.487003,-6.737008 -2.847004,-7.387009 -0.143,-0.259 -0.275,-0.553001 -0.373,-0.927001 -0.315,-1.195002 -0.293,-3.205004 -0.293,-3.205004 l -5.270007,0 c 0,0 0.074,0.589001 0,1.000001 -0.126,0.698001 -1.753002,0.870001 -2.993003,1.305002 -1.060002,0.371 -4.804006,5.634007 -5.465007,8.24301 -0.293,1.154001 -0.325,1.462002 -0.325,3.082004 0,0 0,0.102 0,0.803 0,3.913005 -1.000002,6.776009 -2.408003,9.801012 -0.648001,1.394002 -2.617003,3.614005 -4.1790053,4.766006 C 7.9200095,75.144771 6.3420076,76.100772 3.8280046,78.640775 2.1280026,80.356768 0,82.795778 0,82.795778 z M 16.26802,41.47373 11.981014,46.322736 c -0.713,0.806001 -0.814001,0.951001 -1.013001,1.447002 -0.279,0.695 -0.376,1.857002 -0.239,2.015002 0.444,0.510001 2.014002,-0.728001 2.561003,-1.187001 4.785006,-4.019005 6.966008,-6.550008 7.739009,-11.753015 0.394001,-2.645003 -0.836001,-3.669004 -3.013003,-4.006004 -3.453004,-0.536001 -6.879009,0.012 -8.2210102,2.972003 0.2100002,11.301014 0.5050002,4.838006 3.4330042,4.036005 3.257004,-0.892001 6.760008,-2.875003 3.040004,1.627002 z M 54.919066,12.872696 c 0.016,0.016 0.032,0.032 0.04896,0.04904 2.675003,2.711003 -2.316003,7.201008 -4.365005,8.92701 -3.819005,3.218004 -7.306009,6.387008 -10.998013,9.440012 -1.211002,1.001001 -5.612007,4.920006 -3.123004,4.816006 3.343004,-0.139001 6.164007,-2.566003 8.35801,-4.485006 3.635004,-3.178004 9.326011,-8.957011 10.926013,-11.355013 l 2.009003,-3.011004 1.693002,1.379002 c 0.646,0.526 1.173001,1.323001 1.364001,2.139002 0.524001,2.232003 -0.658,5.225006 -0.093,7.378009 1.151002,4.381005 7.198009,5.732007 9.591012,1.356002 0.17,-0.311001 0.229,-0.635001 0.295,-1.223002 0.251,-2.226003 -0.528001,-4.371005 -2.239003,-5.171006 -1.216001,-0.568001 -3.162003,-1.000001 -3.162003,-1.000001 0,0 0,6.000007 0,6.000007 0,0 0,0 0,0 0,0 -2.715004,0.196 -2.518003,-2.756003 0.084,-1.827003 0.105,-4.669006 -0.420001,-6.481008 -0.479001,-1.651002 -1.428002,-2.681003 -2.173003,-3.712005 l -1.545001,-2.139002 0.891001,-1.789002 c 0.336,-0.672001 0.803001,-1.3180024 0.999001,-2.2060034 0.078,-0.354 0.158,-0.733001 0.232,-1.116002 0.425001,-2.193002 -0.261,-5.794007 -2.221003,-7.44600897 -0.194,-0.163 -0.403,-0.286 -0.623,-0.355 -0.143,-0.04504 -0.267001,-0.078 -0.376001,-0.099 -1.025001,-0.197 -3.391004,1.92400197 -4.653005,3.86100497 -2.116003,3.247003 1.194001,8.0950104 2.102002,8.9990114 z m 1.364002,-2.761004 c 0,0 0,0 0,0 -0.700001,0 -1.599002,-1.8010024 -1.599002,-2.5980034 0,-0.399001 0,-0.882001 0,-1.310002 0,-1.373001 2.838003,-2.316002 3.513004,-0.503 0,0.474 0,1.150001 0,1.712002 0,0.931001 -1.096001,2.6990034 -1.914002,2.6990034 z m -22.712028,25.114031 0.491001,-0.009 c 0.22,-0.0048 0.279,-0.158001 0.591001,-1.529002 1.795002,-7.88701 2.122002,-12.243015 -2.292003,-17.301021 -0.726001,-0.833001 -1.574002,-1.532002 -2.119003,-0.785001 -0.37,0.506001 -0.748,4.082005 -0.579,4.863006 0.295,1.365001 1.169001,1.808002 2.179002,2.736003 2.282003,2.094003 2.854004,3.665004 2.564003,6.454008 -0.223,2.141002 -0.835001,5.571007 -0.835001,5.571007 z M 29.168035,16.2137 l -0.123,-3.203004 c -0.04896,-1.295002 -0.03296,-1.527002 0.164,-2.320003 0.147,-0.589001 0.301001,-1.2320024 0.694001,-1.6470024 0.955001,-1.011001 3.322004,-0.661001 4.418005,-1.494002 1.580002,-1.199001 1.581002,-5.316006 0.366001,-6.98500797 -1.289002,-1.76900303 -3.895005,1.04100097 -4.963006,2.64900297 -0.655001,0.988001 -1.276002,2.120002 -1.556002,3.441004 -0.129,0.612001 -0.201,1.307001 -0.302,1.916002 L 27.370033,11.549694 25.733031,9.1776906 c -2.241003,-3.360004 -1.557002,-4.358005 -4.850006,-5.272006 -1.103001,-0.306001 -3.496004,-0.192001 -3.956005,1.223001 -0.359,1.106001 0.485001,3.797005 1.014002,4.437006 0.408,0.4910004 2.055002,1.7110024 2.736003,1.7850024 1.112001,0.123 3.385004,-0.648001 3.385004,-0.648001 0,0 1.834002,3.006004 2.954004,4.417005 0.489,0.616001 0.893001,1.112002 1.520001,1.126002 0.259001,0.0048 0.632001,-0.032 0.632001,-0.032 z"
     style="fill:#000000;stroke:none" />
</svg>