<?xml version="1.0" encoding="UTF-8" standalone="no"?>
<svg>
  <path
     style="fill:#000000;stroke:none"
     d="m 43.034508,20.264882 -0.17373,-4.00335 c -0.0712,-1.61859 -0.0475,-1.90856 0.23248,-2.89971 0.20873,-0.73617 0.4287,-1.54109 0.9874,-2.05854 1.35986,-1.26362 4.72702,-0.82616 6.28811,-1.8673098 2.24727,-1.4986 2.24977,-6.64433 0.51995,-8.73036998 -1.83482,-2.21102002 -5.54319,1.30111998 -7.06179,3.31091998 -0.93365,1.23487 -1.81731,2.64973 -2.21477,4.30081 -0.18373,0.76493 -0.28622,1.63359 -0.42996,2.3935098 l -0.70493,3.72463 -2.32976,-2.9647 c -3.18968,-4.1995798 -2.21728,-5.4481998 -6.90305,-6.5893398 -1.56985,-0.38246 -4.9745,-0.23997 -5.62818,1.52735 -0.51245,1.38361 0.68993,4.7470198 1.44235,5.5456898 0.57869,0.61493 2.9247,2.13853 3.89336,2.23227 1.58234,0.15373 4.81576,-0.81117 4.81576,-0.81117 0,0 2.61098,3.75712 4.20457,5.52194 0.69618,0.76993 1.27112,1.38986 2.16353,1.40736 0.36872,0.006 0.89866,-0.04 0.89866,-0.04 z m 27.08601,22.66895 0.69993,-0.0125 c 0.31372,-0.006 0.39746,-0.19623 0.84117,-1.91105 2.55349,-9.85776 3.01969,-15.30221 -3.26092,-21.62407 -1.0349,-1.04114 -2.23978,-1.9148 -3.01595,-0.98115 -0.52745,0.63369 -1.06489,5.10199 -0.82492,6.07814 0.41996,1.70608 1.66484,2.26102 3.10219,3.41965 3.24717,2.61724 4.06084,4.58079 3.64713,8.06794 -0.31622,2.67473 -1.18863,6.96304 -1.18863,6.96304 z m 25.61741,-22.66895 -0.17498,-4.00335 c -0.0713,-1.61859 -0.0475,-1.90856 0.23372,-2.89971 0.20873,-0.73617 0.42871,-1.54109 0.98615,-2.05854 1.35987,-1.26362 4.727022,-0.82616 6.288122,-1.8673098 2.24852,-1.4986 2.24977,-6.64433 0.51994,-8.73036998 -1.83481,-2.21102002 -5.541932,1.30111998 -7.061782,3.31091998 -0.93241,1.23487 -1.81607,2.64973 -2.21353,4.30081 -0.18498,0.76493 -0.28622,1.63359 -0.4312,2.3935098 l -0.70493,3.72463 -2.32977,-2.9647 c -3.18842,-4.1995798 -2.21602,-5.4481998 -6.9018,-6.5893398 -1.57109,-0.38246 -4.97574,-0.23997 -5.62943,1.52735 -0.51245,1.38361 0.68993,4.7470198 1.44236,5.5456898 0.57994,0.61493 2.9247,2.13853 3.89335,2.23227 1.58234,0.15373 4.81701,-0.81117 4.81701,-0.81117 0,0 2.60974,3.75712 4.20333,5.52194 0.69618,0.76993 1.27112,1.38986 2.16353,1.40736 0.36871,0.006 0.89991,-0.04 0.89991,-0.04 z m 16.445832,28.62085 0.69868,-0.0125 c 0.31497,-0.005 0.39871,-0.19623 0.84242,-1.91106 2.55349,-9.85775 3.01969,-15.30095 -3.26217,-21.62406 -1.03365,-1.04114 -2.23852,-1.91355 -3.01595,-0.98115 -0.52619,0.63369 -1.06364,5.10198 -0.82366,6.07814 0.41995,1.70732 1.66483,2.26102 3.10218,3.41965 3.24717,2.61724 4.06084,4.58204 3.64713,8.06793 -0.31746,2.67598 -1.18863,6.96305 -1.18863,6.96305 z m -25.898622,-5.96065 c -0.0513,-1.39486 -0.20873,-3.14718 -0.66744,-3.58838 -0.26622,-0.25498 -0.63243,-0.07 -0.86366,-0.20748 -1.03489,-0.62244 0.72618,-3.18468 1.56609,-4.16458 7.61673,-8.8916 27.357232,-19.93174 37.787432,-22.21525 0.99365,-0.21748 1.9873,-0.39371 2.17603,-0.0575 0.0925,0.16748 -0.0125,0.46121 -0.17373,0.79367 -0.37622,0.77867 -0.97866,1.72233 -1.64859,2.73347 -13.89109,20.97413 8.01919,-8.1341698 14.23731,-8.9515898 0.56869,-0.28122 1.10239,-0.50745 1.57609,-0.65618 2.41851,-0.76118 5.03949,-0.92366 5.35696,-3.24217 0.045,-0.32622 0.0512,-0.73118 0.04,-1.12489 -0.10499,-3.79837 -6.30562,-1.98104998 -10.67392,-0.31997 -4.04459,1.5386 -10.04899,4.07334 -16.41834,7.02054 -8.24167,3.8121198 -32.917922,15.2584598 -36.390072,25.1999498 -1.11864,3.20343 -0.91116,6.79306 1.31987,9.88025 0.095,0.13249 0.18248,0.25123 0.26122,0.35996 -1.00615,-1.36736 2.72972,4.38206 2.51475,-1.45985 z m -13.62238,7.65798 -0.68618,0.0125 c -0.88366,0.015 -1.00239,0.12623 -1.19113,1.10488 -0.0825,0.42996 -0.32871,1.08364 -0.60618,1.71733 -1.61109,3.68463 -3.53215,2.83221 -4.91576,0.11124 -1.26237,-2.4835 -2.77847,-5.23072 -3.02719,0.28122 -0.1,2.20978 0.14748,6.42435 1.85106,7.57048 1.82357,1.22863 4.64953,0.27623 6.41185,-0.9149 0.41621,-0.27997 0.78617,-0.60744 0.9874,-1.0224 0.11499,-0.23748 0.17499,-0.5037 0.21748,-0.76742 l 0.24873,-1.5411 1.71857,0.19373 c 0.31247,0.035 0.63869,0.065 0.95366,0.0513 1.09363,-0.0475 1.93605,-0.57619 2.56599,-1.35611 2.86721,-3.54215 1.54359,-7.82171 -0.70368,-10.83391 -1.68233,-2.25352 -4.5208,-5.78941 -1.74483,1.28112 1.0124,2.57849 0.85492,4.06084 -2.07979,4.11209 z m -0.30871,57.814148 -7.83546,7.83545 7.83546,7.83546 7.8367,-7.83546 -7.8367,-7.83545 z m -46.28782,-53.759558 -6.54184,6.54183 7.83546,7.83546 7.83546,-7.83546 -6.54184,-6.54183 6.54184,-6.54309 -7.83546,-7.83546 -7.83546,7.83546 6.54184,6.54309 z m 98.422542,49.576228 c 0.61494,-0.83617 1.06114,-1.5186 1.23487,-1.88481 0.18749,-0.39496 0.32622,-0.78367 0.20498,-0.95865 -0.16623,-0.23873 -0.82116,-0.0725 -1.47985,0.21748 -3.75462,1.66108 -5.48819,5.33571 -8.57538,5.65942 -1.35236,0.14249 -3.65713,0 -3.65713,0 0,0 0.12749,-1.09239 0.36371,-2.03604 1.34862,-5.369458 5.86066,-6.710568 2.24853,-10.043988 -3.25217,-2.99969 -6.65308,0.43246 -7.83546,4.5058 -0.14624,0.501198 -0.20623,0.873658 0,1.044888 0.70118,0.58369 4.50079,-1.202378 5.22322,-0.65368 0.65244,0.4962 -1.48985,3.69463 -2.28602,5.22447 -1.13613,2.18603 -1.32611,3.63463 -0.34371,5.92315 0.43745,1.01865 0.66868,1.22363 1.87606,1.25487 6.9093,0.17749 10.32145,-4.57328 13.02618,-8.25291 z M 51.489908,43.047572 c 0,0 0,-3.02719 0,-4.21707 0,-0.80242 0.4862,-2.78472 2.19977,-2.31852 0.006,0.002 0.0137,0.004 0.02,0.006 1.67858,0.47495 1.90981,1.96855 1.69733,2.87221 -0.19248,0.82242 -0.66493,1.84231 -1.95855,2.67723 -0.81617,0.52745 -1.95855,0.9799 -1.95855,0.9799 z m -7.18303,-1.95855 c 0,0 0.16124,0 0.85742,0 2.07729,0 3.71337,-0.51995 3.71337,1.55734 0,0.83992 0,1.70733 0,1.70733 0,0 -1.21988,0 -2.18603,0 -1.9123,0 -1.9123,-3.26467 -2.38476,-3.26467 z m 10.81016,15.06472 c -4.08209,2.73973 -4.81576,3.10844 -9.50404,4.19833 -3.86461,0.89741 -5.93815,1.13363 -4.57079,-2.28602 1.0799,-2.70473 6.12938,-8.38665 9.06659,-9.43155 2.67348,-0.95115 3.63463,-0.24872 5.62443,-2.97469 1.73482,-2.37601 3.03344,-8.45415 2.04229,-11.22887 -0.70118,-1.9623 -4.4183,-5.63443 -6.76931,-6.83181 -1.09114,-0.55494 -1.88856,-0.23622 -2.41851,1.66233 -0.53994,1.92981 0.19123,4.12334 -0.68118,5.29072 -0.74118,0.99115 -2.64098,1.23987 -3.92585,1.96605 -2.17103,1.22613 -2.9847,4.55079 -1.63234,7.84796 0.71618,1.74857 2.08104,3.13093 1.79732,4.20332 -0.20748,0.78617 -1.30612,1.40611 -2.21978,2.24477 -3.33716,3.06219 -5.30696,11.92255 -1.53734,14.10858 4.20832,2.4385 9.73277,0.77242 13.05993,-1.95981 1.23737,-1.01614 2.31976,-1.94605 2.83096,-3.35341 2.70723,-7.46674 -2.27852,-2.70597 -1.16238,-3.4559 z M 66.144668,9.1447522 c 0.63994,-1.03489 1.15864,-2.09979 1.37861,-3.09219 0.26123,-1.17988 0.28998,-1.46735 0.28998,-2.87721 l 0,-3.13592998 c 0,0 -1.10489,-0.0887 -2.17978,0 -1.79357,0.14999 -17.52948,17.27324978 -26.32484,24.13005978 -2.70598,2.10979 -5.88315,5.16948 -6.10313,6.33811 -0.28372,1.51485 0,3.48715 0,3.48715 0,0 1.26362,-0.12999 2.05729,-0.32247 1.15363,-0.28122 2.73847,-1.42986 3.70837,-2.11854 1.90606,-1.35361 3.57839,-2.79471 5.23322,-4.3958 4.21458,-4.08084 7.65298,-8.46915 11.95879,-11.63008 0.92241,-0.67743 2.18228,-1.48859 2.5085,-1.12238 0.12124,0.13498 0.0637,0.4412 -0.0725,0.84116 -2.36601,13.20617 1.50734,2.06854 3.4084,-0.38996 1.51735,-1.96105 3.11719,-4.06209 4.13708,-5.7119198 z M 6.0282584,110.30701 c 3.52089,2.83847 8.7103696,2.89346 11.5063296,0.11499 2.61474,-2.59849 5.16073,-11.092628 8.48414,-16.102118 1.33862,-2.0173 4.56579,-6.41685 6.31187,-6.75182 1.4311,-0.27497 3.48714,0 3.48714,0 l 0,4.30957 c 0,1.76232 0.0138,2.14478 0.13374,3.81961 0.23998,3.34466 3.4284,10.175218 4.43705,11.460088 4.27957,5.4482 11.14387,6.71557 17.71571,3.72837 6.30311,-2.86471 10.08898,-4.96824 18.43313,-3.72837 2.09729,0.31122 7.82671,2.06729 8.63038,1.02865 0.68493,-0.88616 -0.15624,-3.65838 0.61619,-4.97325 0.85116,-1.4511 2.78721,-1.56734 1.61983,-4.113328 -0.9974,-2.17228 -5.34946,-1.58484 -7.8367,-1.73733 -2.47475,-0.15123 -5.14448,-1.31361 -7.02179,-2.82596 -1.74858,-1.40986 -3.38341,-3.45715 -5.34946,-4.73202 -1.98855,-1.28987 -3.0122,-1.4686 -2.64723,-3.11094 0.10873,-0.48995 7.08303,-10.07523 8.92034,-10.8789 5.67318,-2.481 4.44705,5.83941 5.77192,9.79401 2.04104,6.09439 11.68007,8.69412 17.96943,7.83671 2.18728,-0.29872 4.523292,-1.08114 6.576832,-2.20353 0.86867,-0.47495 1.68733,-1.01115 2.55225,-1.38861 1.38611,-0.60369 4.77076,-1.41485 6.26436,-1.50859 1.76732,-0.11124 2.15853,-0.11624 3.92086,-0.0462 l 14.62851,0.57619 c 0,0 -0.12623,-2.41225 0.34497,-3.95585 0.93616,-3.06594 3.64338,-2.91595 2.26602,-4.75577 -1.04114,-1.38986 -9.49154,-1.87231 -13.71236,-3.36966 -1.31362,-0.46495 -2.26602,-1.09488 -3.26467,-1.95855 -7.99669,-6.9143 -8.66912,-10.91514 -16.977032,-12.08002 -3.80212,-0.53245 -6.61433,-0.24748 -8.16293,2.61223 -1.57859,2.91846 -3.19967,9.14158 -3.19967,9.14158 0,0 10.31645,-0.83867 14.151062,0.36246 0.67494,0.21123 5.56194,3.36341 5.04699,5.12323 -0.31621,1.08114 -2.81596,2.28852 -3.91835,2.67598 -6.931802,2.4385 -18.233152,1.13488 -20.962882,-6.69432 -0.52619,-1.5086 -0.58494,-1.87231 -0.58494,-3.63588 0,0 0,-0.44871 0,-1.39986 0,-3.25217 -1.46735,-7.14178 -6.04564,-5.12948 -3.97584,1.74607 -7.43299,7.92044 -9.62527,10.98263 -1.95481,2.72973 -5.4707,6.02189 -8.48914,7.18303 -5.017,1.9298 -8.77037,0.1 -9.79526,4.02209 -0.68243,2.61599 -0.65244,8.05793 -0.65244,8.05793 0,0 4.40831,-0.66743 6.9218,-0.65243 2.06229,0.0125 3.11219,0.69243 6.23812,2.12229 1.4911,0.68118 3.54714,1.53359 3.54714,1.53359 0,0 -2.04354,1.123638 -3.64713,1.894808 -9.78526,4.70452 -18.54312,-0.25248 -20.92038,-10.220218 -1.78232,-7.46924 -0.22498,-15.22346 -7.29051,-12.72621 -5.33571,1.88481 -10.73392,10.52769 -12.60123,16.08962 -1.67358,4.9895 -2.61723,8.261668 -8.16167,8.489138 -0.97115,0.04 -2.0547896,-0.26997 -3.0909396,-0.87491 -2.61973,-1.52984 -4.35581,-6.564328 -5.27072,-10.941388 l -2.68471999,-12.8437 -0.52495,11.20012 c -0.0125,0.26997 -0.025,0.53494 -0.0375,0.79117 -0.67618,14.443528 5.88815999,20.316688 5.97939999,20.389178 z" />
</svg>
