<?xml version="1.0" encoding="UTF-8" standalone="yes"?>
<svg>
<path
	style="stroke:none; fill:#000000"
	d="m 48.275785,63.130903 c 0,0 0.63875,-1.47375 1.02625,-2.64125 0.6525,-1.97 0.5475,-3.39375 0.29,-5.4325 -0.7175,-5.685 -1.82125,-18.56375 -1.82125,-18.56375 0,0 1.98,-0.2225 3.4925,-0.18375 4.09125,0.1075 5.28375,2.035 7.435,-0.11625 1.40125,-1.4 2.655,-6.36 1.75875,-8.2125 -1.025,-2.1175 -4.4975,-3.13875 -6.0925,-1.40875 -0.73625,0.7975 -1.15625,2.055 -1.99875,2.88375 -1.30375,1.28375 -3.62125,1.5375 -4.77,2.6075 -1.965,1.8325 -2.22875,14.63625 -1.8675,17.66875 0.61125,5.1175 2.5475,13.39875 2.5475,13.39875 z m 113.078745,-41.17125 -0.18875,-4.33875 c -0.0775,-1.75375 -0.0512,-2.0675 0.2525,-3.1425 0.22625,-0.79625 0.465,-1.66875 1.07,-2.23 1.4725,-1.36875 5.12125,-0.89625 6.81375,-2.02375 2.435,-1.6225 2.4375,-7.2 0.5625,-9.45999993 -1.9875,-2.39625007 -6.005,1.40999993 -7.65125,3.58874993 -1.01125,1.3375 -1.96875,2.87 -2.4,4.65875 -0.2,0.83 -0.31,1.77125 -0.46625,2.595 l -0.76375,4.035 -2.525,-3.2125 c -3.455,-4.55 -2.40125,-5.9025 -7.47875,-7.14 -1.70125,-0.415 -5.39125,-0.26 -6.1,1.65625 -0.555,1.49875 0.7475,5.14375 1.56375,6.00875 0.6275,0.66625 3.16875,2.3175 4.2175,2.41875 1.715,0.16625 5.22,-0.87875 5.22,-0.87875 0,0 2.82875,4.07125 4.55625,5.9825 0.75375,0.835 1.37625,1.50625 2.34375,1.525 0.39875,0.008 0.97375,-0.0425 0.97375,-0.0425 z M 54.254535,13.538403 c 0.22,3.035 1.635,4.9225 4.21125,5.46625 3.3225,0.7025 5.20125,-1.09875 6.0525,-4.74375 0.18625,-0.79875 0.145,-1.46625 -0.37,-1.7875 -0.97875,-0.61125 -3.66625,0.0238 -4.96625,-0.66625 -1.61625,-0.85875 -2.0275,-4.51 -1.6275,-6.2175 0.4,-1.7075 1.42,-3.5375 1.6975,-4.85374993 0.0575,-0.26625 0.0825,-0.5125 -0.0337,-0.64875 -0.0138,-0.0175 -0.0288,-0.0337 -0.0437,-0.0487 -3.91,-0.89125 -4.86125,14.31874993 -4.92,13.49999993 z m 17.77875,35.21125 c 0.22,3.035 1.635,4.9225 4.21125,5.46625 3.3225,0.70375 5.20125,-1.09875 6.0525,-4.74375 0.1875,-0.79875 0.145,-1.465 -0.37,-1.7875 -0.97875,-0.61125 -3.66625,0.0238 -4.96625,-0.66625 -1.61625,-0.85875 -2.0275,-4.51 -1.6275,-6.21625 0.4,-1.70875 1.42,-3.53875 1.6975,-4.855 0.0575,-0.26625 0.0825,-0.5125 -0.0337,-0.64875 -0.0138,-0.0175 -0.0288,-0.0337 -0.0437,-0.0488 -3.91,-0.89125 -4.86125,14.32 -4.92,13.5 z m 60.602495,-22.94125 2.11625,-1.47875 c 0.2825,-0.20625 0.4975,-0.3925 0.65375,-0.5775 l 0.59375,-0.70375 -1.28,-3.06625 c -0.92125,-2.2575 -1.7825,-4.575 -2.6775,-7.995 -1.4175,-5.42125 -1.955,-11.98624993156 -1.955,-11.98624993156 0,0 -4.94,3.05749993156 -7.14125,5.17249993156 -3.79125,3.6425 -0.5825,6.835 1.5025,10.84375 1.4,2.6925 2.14125,29.4525 4.285,38.88 1.56375,6.88375 3.3575,8.42875 1.965,19.03 -0.1975,1.50125 -1.6175,7.95625 -0.99,8.9075 0.95375,1.445 3.20125,-3.2725 4.04125,-5.345 3.61,-8.90375 3.6325,-11.86875 2.6375,-20.37625 -0.96625,-8.27125 -2.05,-18.7225 -3.3325,-28.215 l -0.41875,-3.09 z m -42.464995,-4.06125 -0.615,-11.7175 c -0.0913,-1.7375 -0.12625,-2.04 -0.35875,-3.025 -0.71,-3.0175 -2.62125,-4.67 -4.61875,-5.7375 -2.54,-1.35749993 -4.48,-1.86124993 -7.0975,0.0487 -2.15375,1.57125 -2.35625,7.25875 -1.51,8.14875 0.63125,0.6625 2.305,0.6025 4.33,0.1275 5.05875,-1.1875 5.565,-0.91375 6.8825,4.435 0.62625,2.5425 0.7,4.92375 0.3925,7.48 -0.65375,5.43 -2.19125,8.07 0.82,11.2575 1.25375,1.32625 2.5625,1.5275 5.4225,0.93875 2.03125,-0.41875 2.43375,-1.3625 3.285,-4.175 0.6,-1.98 1.07375,-3.75375 0.92,-5.72875 -0.30375,-3.91625 -4.54,-11.27875 0.565,-13.10875 0.9425,-0.3375 2.166245,-0.11625 3.222495,0.11375 1.42375,0.31 1.665,0.16875 2.415,-1.40625 0.61625,-1.29625 1.33,-2.4875 1.7225,-3.8825 1.4725,-5.23374993 -0.7825,-6.71125 -5.30625,-4.56749993 C 95.450785,3.408353 93.119535,13.945853 94.228285,21.009603 c 0.34,2.9125 0.71125,5.53375 0.71125,5.53375 0,0 -0.31,-0.004 -0.67875,-0.04 -1.45375,-0.1425 -3.95,-2.07125 -4.09,-4.75625 z m 82.453745,22.4775 -5.97625,5.93625 c -0.9925,0.9875 -1.13375,1.16375 -1.41125,1.77125 -0.38875,0.85125 -0.52375,2.27375 -0.3325,2.4675 0.61875,0.62375 2.8075,-0.8925 3.56875,-1.45375 6.67125,-4.92 9.71,-8.01875 10.78875,-14.38875 0.5475,-3.2375 -1.1675,-4.49125 -4.20125,-4.90375 -4.8125,-0.65625 -9.58875,0.015 -11.4575,3.63875 0.29125,13.835 0.7025,5.9225 4.78375,4.94125 4.54,-1.0925 9.4225,-3.52 4.2375,1.99125 z m 2.77875,43.24875 -7.80125,7.80125 7.80125,7.801247 7.80125,-7.801247 -7.80125,-7.80125 z m -96.712495,6.34625 -6.345,-6.34625 -7.80125,7.80125 7.80125,7.801247 6.345,-6.344997 6.34625,6.344997 7.80125,-7.801247 -7.80125,-7.80125 -6.34625,6.34625 z m 122.232495,5.32 c -0.10375,0.903747 -0.20375,2.899997 0.1275,3.637497 0.51375,1.14875 3.265,-1.26 6.46125,-3.063747 10.53875,-5.94375 13.02375,-4.6475 13.875,-10.65625 0.9225,-6.51625 -4.81625,-0.665 -16.73375,5.13875 -2.53125,1.2325 -3.39125,1.985 -3.73,4.94375 z m -49.33375,-18.105 c -3.52375,2.02125 -11.48125,8.62625 -13.6,10.09875 -3.2325,2.245 -12.3675,6.66875 -16.83375,8.18625 -25.199995,8.561247 -22.974995,7.477497 -9.15125,11.101247 1.7425,0.4575 3.34125,0.94875 4.48125,1.16 0.56125,0.10375 1.01125,0.14 1.535,0.09 1.73375,-0.16875 11.52125,-5.33875 17.44125,-9.06625 5.19,-3.267497 12.2325,-7.218747 15.22875,-9.918747 l 4.84,-16.84875 c 0.1875,-0.33 0.375,-0.6075 0.55875,-0.81375 0.605,-0.6775 1.17,-0.5675 1.9375,-0.3925 1.36375,0.31125 3.36625,0.83125 5.5675,1.10625 3.31375,0.41375 27.81625,-1.18 29.505,-2.65625 0.25875,-0.22625 4.85125,-11.4075 5.3375,-14.81 0.44125,-3.095 -1.2875,-13.23375 -2.215,-16.84875 -0.46375,-1.80625 -1.16125,-3.17125 -2.625,-2.51 -1.15375,0.52125 -2.18375,2.88375 -2.84125,4.3275 -0.81,1.78125 -1.3775,3.015 -1.3775,5.25875 0.001,5.20125 3.05125,15.82375 3.05125,15.82375 0,0 -13.1925,0.7925 -22.19375,0.775 -7.26125,-0.0137 -13.035,-0.17 -16.30375,-5.285 -2.42875,-3.79875 -2.585,-8.56375 -5.34375,-6.96875 -1.2225,0.7075 -3.2825,5.78125 -3.405,7.925 -0.0388,0.67625 0.0925,1.27875 0.22375,1.92 0.855,4.16625 3.6,13.51375 5.3075,16.75125 0.28625,0.5425 0.58875,1.09125 0.875,1.595 z m -98.507495,-2.5425 c -1.4525,0.2175 -4.07375,-2.285 -3.50625,-3.55 0.16,-0.3575 0.63375,-0.63 1.2675,-0.955 1.68,-0.865 4.48,-2.10875 4.48,-2.10875 0,0 0.1375,1.16375 0.0725,2.07875 -0.095,1.33 -0.61875,2.135 -1.19375,3.08 -0.775,1.27375 -0.8875,1.42 -1.12,1.455 z m 49.126245,-14.13125 c 0.20875,0.455 0.60125,1.47875 0.40625,1.96375 -0.34625,0.865 -4.189995,-0.21875 -5.231245,-0.79375 -0.655,-0.36125 -0.9025,-0.69625 -0.6975,-1.34125 0.74375,-2.3375 3.10125,-1.93125 4.574995,-0.81375 0.38375,0.29125 0.805,0.67375 0.9475,0.985 z m 13.46875,3.45875 -9.095,0.3175 c 0,0 0.36875,-1.125 0.77,-2.08375 1.285,-3.075 2.98875,-4.9025 3.81,-4.58125 0.69625,0.27375 4.28125,3.595 4.46125,4.78875 0.0937,0.62875 0.0537,1.55875 0.0537,1.55875 z M 6.7770249,111.6234 l 4.9237501,0.0638 c 1.755,0.0237 2.1425,-0.0113 3.86875,-0.3475 7.22,-1.4025 8.69875,-2.7675 13.73625,-6.78125 7.99,-6.366247 9.64875,-7.553747 12.96501,-16.802497 0.52,-1.45125 1.5675,-3.05875 2.93375,-2.01 1.6125,1.2375 2.97125,4.19125 4.9625,6.1525 1.7925,1.765 7.0675,4.215 8.7925,3.27125 1.83625,-1.005 6.0475,-10.67125 6.18,-11.1975 0.91125,-3.61875 0.65375,-6.9475 -1.605,-9.77875 -1.32875,-1.665 -3.72,-4.0975 -3.72,-4.0975 0,0 0.685,-0.39125 1.27625,-0.695 2.9975,-1.54 6.02,-1.6675 7.4825,0.0637 1.195,1.4125 1.48875,4.01375 2.7975,5.79 0.68125,0.92625 1.63875,1.62875 2.6325,2.2075 1.34,0.78125 1.68375,0.86125 3.43875,0.805 8.2,-0.26625 16.7425,-0.7725 24.606245,-0.21375 9.68875,0.68625 12.4875,1.3575 16.555,-4.6175 4.75625,-6.98625 5.4,-9.21625 2.90625,-15.5775 -0.36375,-0.92625 -0.71,-1.7475 -1.39125,-2.55375 -2.1525,-2.55125 -7.41,-4.79125 -6.24,-6.76125 0.75875,-1.27625 1.08125,-1.86625 -0.9325,-3.07 -1.1075,-0.6625 -2.415,-1.2075 -3.65375,-2.15 -4.40125,-3.34625 -6.06625,-8.22375 -8.60375,-4.2525 -2.318745,3.62875 -2.941245,7.27625 -2.173745,9.7425 0.51125,1.6425 0.8875,3.48 0.40625,4.85125 -0.6975,1.985 -3.195,2.9925 -4.69875,5.14625 -2.06,2.95 -2.26125,8.04875 -3.915,9.58875 -1.3925,1.2975 -6.6325,-0.1625 -11.07,-0.93375 -1.01875,-0.1775 -1.7225,-0.2725 -2.47,-1.12875 -1.73625,-1.99 -3.70625,-8.0875 -3.70625,-8.0875 0,0 -4.225,-0.02 -7.27625,0.25375 -8.43,0.75625 -19.985,7.27625 -22.48125,13.795 -0.99,2.585 -0.715,5.28625 -1.67625,7.865 -1.79875,4.82375 -14.35251,15.8825 -19.84251,18.58125 -5.84375,2.872497 -9.2625,2.752497 -15.6200001,7.658747 -5.91249997,4.56125 -10.505,5.07375 0.6125,5.22 z M 213.78328,25.808403 l 2.11625,-1.47875 c 0.2825,-0.20625 0.4975,-0.3925 0.65375,-0.5775 l 0.59375,-0.70375 -1.28,-3.06625 c -0.92125,-2.2575 -1.7825,-4.575 -2.6775,-7.995 -1.4175,-5.42125 -1.955,-11.98624993156 -1.955,-11.98624993156 0,0 -4.94,3.05749993156 -7.14125,5.17249993156 -3.79125,3.6425 -0.5825,6.835 1.50125,10.84375 1.40125,2.6925 2.1425,29.4525 4.28625,38.88 1.56375,6.88375 3.3575,8.42875 1.965,19.03 -0.1975,1.50125 -1.6175,7.95625 -0.99,8.9075 0.95375,1.445 3.20125,-3.2725 4.04125,-5.345 3.61,-8.90375 3.6325,-11.86875 2.6375,-20.37625 -0.9675,-8.27125 -2.05,-18.7225 -3.33375,-28.215 l -0.4175,-3.09 z m -56.15,22.59625 -0.1675,-4.76875 c -0.0612,-1.75375 -0.13125,-1.9725 -0.71,-2.19 -0.42875,-0.16125 -0.8125,-0.4375 -1.18,-0.69125 -2.17625,-1.5 -3.10375,-2.0825 -2.2575,-4.12875 1.9725,-4.76875 22.19375,-17.47375 24.17375,-18.90625 2.65375,-1.92125 7.535,-5.7125 8.175,-4.77 0.52625,0.77625 -1.23625,4.61875 -1.71125,6.89 -0.15625,0.74625 -0.1725,1.3225 0.0575,1.625 1.7475,2.295 5.1275,-6.34375 6.32125,-8.26375 3.735,-6.00875 5.57375,-5.3825 6.68625,-10.405 0.61875,-2.79124993 0,-3.16749993 -2.17,-2.52624993 -3.52,1.04124993 -9.36875,3.95499993 -13.2975,6.64374993 -0.11125,0.0762 -0.2225,0.15375 -0.335,0.23125 l -23.365,16.46875 c -0.91125,0.74 -2.26,1.86875 -4.09625,3.70375 -0.60375,0.6025 -1.175,1.2 -1.6775,1.7675 -2.73375,3.08375 -4.89375,10.65875 -2.0775,15.03375 0.415,0.64375 3.94875,4.19375 5.55125,4.36 0.835,0.085 2.08,-0.0738 2.08,-0.0738 z"/>
</svg>