<?xml version="1.0" encoding="UTF-8" standalone="no"?>
<svg>
  <path
     d="m 45.837619,58.266027 c 0,0 0.58999,-1.36 0.94749,-2.4375 0.60125,-1.81874 0.505,-3.13249 0.2675,-5.01374 -0.6625,-5.24749 -1.68124,-17.13373 -1.68124,-17.13373 0,0 1.82749,-0.205 3.22374,-0.16875 3.77625,0.0987 4.87625,1.8775 6.86249,-0.1075 1.29375,-1.29125 2.45,-5.86999 1.6225,-7.57874 -0.94625,-1.95625 -4.14999,-2.8975 -5.62374,-1.30125 -0.67875,0.735 -1.06625,1.89625 -1.84375,2.66125 -1.20375,1.185 -3.3425,1.41875 -4.40124,2.40624 -1.815,1.69125 -2.05875,13.50874 -1.725,16.30874 0.56375,4.72124 2.35125,12.36498 2.35125,12.36498 z m 96.028631,-37.9987 -0.175,-4.00375 c -0.0713,-1.61875 -0.0475,-1.90875 0.23375,-2.9 0.20875,-0.73625 0.42875,-1.53999 0.98625,-2.05874 1.36,-1.26375 4.72749,-0.82625 6.28874,-1.8674998 2.24875,-1.49875 2.25,-6.64499 0.52,-8.73124005 -1.835,-2.21124995 -5.54249,1.30125005 -7.06249,3.31124005 -0.9325,1.235 -1.81625,2.65 -2.21375,4.30125 -0.185,0.765 -0.28625,1.63375 -0.43125,2.3949998 l -0.705,3.72374 -2.32999,-2.96499 c -3.18875,-4.1999998 -2.21625,-5.4474998 -6.90249,-6.5899998 -1.57125,-0.3825 -4.97625,-0.24 -5.63,1.5275 -0.5125,1.38375 0.69,4.7474998 1.44375,5.5474998 0.57875,0.61374 2.92375,2.13749 3.8925,2.23124 1.58249,0.15375 4.81749,-0.81 4.81749,-0.81 0,0 2.61,3.7575 4.205,5.52125 0.69499,0.77 1.26999,1.39 2.16249,1.4075 0.36875,0.006 0.9,-0.04 0.9,-0.04 z m -91.793641,-7.77125 c 0.20375,2.8 1.51,4.5425 3.8875,5.045 3.06624,0.64875 4.79999,-1.015 5.58624,-4.37875 0.1725,-0.7375 0.13375,-1.35249 -0.34125,-1.64999 -0.90375,-0.56375 -3.385,0.0212 -4.585,-0.615 -1.49124,-0.7925 -1.87124,-4.1624998 -1.50124,-5.7374998 0.36875,-1.57624 1.31125,-3.26499 1.56749,-4.47999005 0.0512,-0.24625 0.075,-0.4725 -0.0312,-0.59875 -0.0138,-0.0163 -0.0275,-0.0312 -0.0412,-0.0463 -3.60874,-0.8225 -4.48624,13.21622985 -4.54124,12.46122985 z m 16.40873,32.49747 c 0.2025,2.80124 1.51,4.54249 3.8875,5.04499 3.06624,0.64875 4.79999,-1.01375 5.58624,-4.37874 0.1725,-0.7375 0.13375,-1.3525 -0.34125,-1.64875 -0.90375,-0.565 -3.385,0.0213 -4.58374,-0.61625 -1.4925,-0.7925 -1.8725,-4.16125 -1.5025,-5.73749 0.36875,-1.57625 1.31125,-3.265 1.5675,-4.48 0.0512,-0.24625 0.075,-0.4725 -0.0312,-0.59875 -0.0138,-0.0163 -0.0275,-0.0312 -0.0413,-0.045 -3.60875,-0.8225 -4.48625,13.21624 -4.54125,12.45999 z m 53.581191,-21.17373 1.95375,-1.365 c 0.25999,-0.19 0.45874,-0.3625 0.60249,-0.5325 l 0.5475,-0.64875 -1.18124,-2.82999 c -0.85,-2.08375 -1.64375,-4.22375 -2.47,-7.37999 -1.30875,-5.0024998 -1.805,-11.06248985 -1.805,-11.06248985 0,0 -4.55874,2.82250005 -6.58999,4.77374005 -3.5,3.3625 -0.53875,6.3087498 1.38625,10.0087398 1.29249,2.485 1.97624,27.18247 3.95374,35.88371 1.445,6.35249 3.09875,7.77874 1.815,17.56248 -0.1825,1.38625 -1.49375,7.34374 -0.91375,8.22124 0.88,1.33375 2.95375,-3.02 3.73,-4.9325 3.33124,-8.21749 3.35124,-10.95373 2.43374,-18.80622 -0.8925,-7.63374 -1.89249,-17.27873 -3.07624,-26.04122 l -0.38625,-2.85125 z m -36.841211,-3.74874 -0.5675,-10.8137398 c -0.0838,-1.60375 -0.11625,-1.8825 -0.33,-2.79125 -0.65625,-2.78624 -2.41999,-4.31124 -4.26374,-5.29624 -2.345,-1.25250005 -4.13375,-1.71750005 -6.55125,0.045 -1.98624,1.45 -2.17374,6.69999 -1.39249,7.51999 0.5825,0.6125 2.12624,0.5575 3.99624,0.11875 4.6675,-1.09625 5.13625,-0.84375 6.35249,4.0937398 0.5775,2.345 0.645,4.54375 0.36125,6.90375 -0.60375,5.00999 -2.02124,7.44749 0.7575,10.38873 1.15625,1.225 2.365,1.41 5.00375,0.86625 1.87499,-0.38625 2.24624,-1.25625 3.03249,-3.85249 0.55375,-1.82875 0.99125,-3.465 0.84875,-5.2875 -0.28125,-3.61499 -4.18999,-10.40998 0.52125,-12.0974798 0.87,-0.3125 2,-0.10875 2.975,0.10375 1.31375,0.2862498 1.53625,0.1562498 2.22875,-1.2975 0.56875,-1.19625 1.22749,-2.29625 1.58999,-3.58375 1.35875,-4.82999005 -0.7225,-6.19374 -4.89874,-4.21499005 -4.78999,2.27000005 -6.94124,11.99497985 -5.91874,18.51497985 0.31375,2.68749 0.6575,5.10749 0.6575,5.10749 0,0 -0.2875,-0.004 -0.6275,-0.0375 -1.34125,-0.13125 -3.645,-1.91125 -3.775,-4.38999 z m 69.046171,20.74622 -5.51499,5.47874 c -0.9175,0.91 -1.0475,1.07375 -1.30375,1.635 -0.35875,0.785 -0.48375,2.0975 -0.3075,2.27625 0.57125,0.57625 2.59124,-0.8225 3.29499,-1.34125 6.15625,-4.53999 8.96124,-7.39999 9.95624,-13.27998 0.50625,-2.98875 -1.07625,-4.145 -3.87624,-4.52625 -4.4425,-0.605 -8.84999,0.0138 -10.57624,3.35875 0.27,12.76873 0.64875,5.46624 4.41624,4.55999 4.19,-1.00875 8.69624,-3.24749 3.91125,1.83875 z m 2.56375,42.63195 -7.2,7.19999 7.2,7.19999 7.19999,-7.19999 -7.19999,-7.19999 z m -82.204911,5.85749 -5.85624,-5.85749 -7.19999,7.19999 7.19999,7.19999 5.85624,-5.85624 5.85625,5.85624 7.19999,-7.19999 -7.19999,-7.19999 -5.85625,5.85749 z m 104.191131,4.91 c -0.095,0.83375 -0.1875,2.67624 0.1175,3.35749 0.475,1.06 3.01375,-1.16374 5.96374,-2.82749 9.72624,-5.48625 12.01999,-4.29 12.80499,-9.83499 0.8525,-6.01499 -4.445,-0.615 -15.44373,4.74124 -2.33625,1.1375 -3.13,1.8325 -3.4425,4.56375 z m -43.96495,-16.51748 c -3.25124,1.865 -10.59624,7.96124 -12.55248,9.31999 -2.9825,2.07249 -11.41249,6.15499 -15.53498,7.55624 -23.258731,7.902483 -21.204981,6.901233 -8.446241,10.246233 1.60749,0.42125 3.08374,0.87499 4.136241,1.06999 0.5175,0.0963 0.9325,0.13 1.41625,0.0825 1.6,-0.155 10.63374,-4.92624 16.09748,-8.366233 4.78999,-3.01624 11.28874,-6.66249 14.05498,-9.15499 l 4.46625,-15.55123 c 0.17375,-0.30375 0.34625,-0.56 0.51625,-0.75 0.55875,-0.625 1.08,-0.525 1.7875,-0.3625 1.25874,0.2875 3.10749,0.7675 5.13874,1.02125 3.05875,0.3825 25.67247,-1.08875 27.23122,-2.45124 0.23875,-0.21 4.47749,-10.52874 4.92624,-13.66874 0.4075,-2.85624 -1.1875,-12.21498 -2.04375,-15.54998 -0.4275,-1.6675 -1.07125,-2.9275 -2.42249,-2.3175 -1.065,0.48125 -2.01625,2.66125 -2.6225,3.99375 -0.7475,1.645 -1.27125,2.78375 -1.27125,4.85499 0,4.79875 2.81625,14.60374 2.81625,14.60374 0,0 -12.17624,0.73 -20.48373,0.715 -6.70124,-0.0125 -12.02998,-0.1575 -15.04748,-4.8775 -2.2425,-3.50625 -2.385,-7.90499 -4.93249,-6.43249 -1.1275,0.6525 -3.02875,5.33624 -3.1425,7.31499 -0.035,0.62375 0.0863,1.18 0.2075,1.7725 0.78875,3.84499 3.32125,12.47123 4.89749,15.45873 0.26375,0.50125 0.54375,1.0075 0.8075,1.4725 z m -83.861151,-2.34625 c -1.34125,0.2 -3.76124,-2.10875 -3.23624,-3.27625 0.1475,-0.33 0.58499,-0.58125 1.16999,-0.88249 1.55,-0.7975 4.13375,-1.945 4.13375,-1.945 0,0 0.1275,1.07375 0.0675,1.91875 -0.0875,1.22624 -0.57,1.96999 -1.10125,2.84249 -0.71625,1.17625 -0.81875,1.31 -1.03375,1.3425 z m 45.33995,-13.04248 c 0.19375,0.42 0.555,1.36499 0.375,1.81249 -0.32,0.79875 -3.86625,-0.2025 -4.8275,-0.7325 -0.605,-0.3325 -0.83375,-0.64249 -0.64375,-1.23749 0.68625,-2.1575 2.8625,-1.7825 4.2225,-0.75125 0.35375,0.26875 0.7425,0.6225 0.87375,0.90875 z m 12.431231,3.19249 -8.394991,0.29375 c 0,0 0.34125,-1.03875 0.71125,-1.92375 1.186251,-2.83749 2.758751,-4.52499 3.516251,-4.22874 0.6425,0.2525 3.95249,3.31875 4.11749,4.41999 0.0863,0.58125 0.05,1.43875 0.05,1.43875 z M 6.2551586,105.93046 l 4.5437504,0.06 c 1.61999,0.0213 1.97749,-0.0113 3.57124,-0.32125 6.66249,-1.29499 8.02749,-2.55374 12.67749,-6.258733 7.37374,-5.87499 8.90499,-6.97124 11.96498,-15.50748 0.48,-1.33875 1.4475,-2.8225 2.70875,-1.855 1.4875,1.1425 2.74125,3.8675 4.57999,5.67875 1.65375,1.62874 6.5225,3.88874 8.11375,3.01874 1.69499,-0.9275 5.58249,-9.84874 5.70499,-10.33374 0.84125,-3.34124 0.6025,-6.41374 -1.48125,-9.02623 -1.2275,-1.53625 -3.435,-3.7825 -3.435,-3.7825 0,0 0.63375,-0.36 1.17875,-0.64125 2.7675,-1.42125 5.555,-1.53875 6.90624,0.0588 1.1025,1.305 1.37375,3.705 2.58125,5.34499 0.62875,0.85375 1.5125,1.5025 2.43,2.0375 1.2375,0.72 1.55375,0.795 3.17375,0.74125 7.56874,-0.245 15.45248,-0.71125 22.70997,-0.19625 8.942491,0.63375 11.524981,1.2525 15.278731,-4.26249 4.38999,-6.44625 4.98374,-8.50499 2.6825,-14.37624 -0.335,-0.855 -0.655,-1.6125 -1.28375,-2.35624 -1.98625,-2.355 -6.83999,-4.4225 -5.75874,-6.24125 0.69999,-1.1775 0.99749,-1.72124 -0.86125,-2.83374 -1.0225,-0.61125 -2.22875,-1.11375 -3.37125,-1.98375 -4.063741,-3.08875 -5.599991,-7.58999 -7.942491,-3.925 -2.14,3.34875 -2.71375,6.71625 -2.005,8.99249 0.47125,1.51625 0.81875,3.21125 0.375,4.4775 -0.64375,1.83125 -2.94874,2.76124 -4.33749,4.74999 -1.9,2.72125 -2.08625,7.42749 -3.6125,8.84999 -1.285,1.19625 -6.12124,-0.15125 -10.21749,-0.8625 -0.94,-0.16375 -1.59,-0.25125 -2.27874,-1.0425 -1.6025,-1.83624 -3.42125,-7.46374 -3.42125,-7.46374 0,0 -3.89875,-0.0188 -6.71624,0.23375 -7.77999,0.69875 -18.44373,6.71624 -20.74748,12.73249 -0.91375,2.38624 -0.66,4.87874 -1.5475,7.25874 -1.65999,4.45249 -13.24623,14.65873 -18.31372,17.14873 -5.3925,2.65125 -8.54749,2.54125 -14.4162404,7.068733 -5.45624005,4.20999 -9.69499,4.68249 0.56625,4.81749 z M 188.6862,23.819317 l 1.95374,-1.365 c 0.26,-0.19 0.45875,-0.3625 0.6025,-0.5325 l 0.5475,-0.64875 -1.18125,-2.82999 c -0.85,-2.08375 -1.64374,-4.22375 -2.46999,-7.37999 -1.30875,-5.0024998 -1.805,-11.0624898487 -1.805,-11.0624898487 0,0 -4.55875,2.8225000487 -6.58999,4.7737400487 -3.5,3.3625 -0.53875,6.3087498 1.385,10.0087398 1.29249,2.485 1.97749,27.18247 3.95499,35.88371 1.44375,6.35249 3.09875,7.77874 1.815,17.56248 -0.1825,1.38625 -1.49375,7.34374 -0.91375,8.22124 0.88,1.33375 2.95375,-3.02 3.72999,-4.9325 3.33125,-8.21749 3.35125,-10.95373 2.43375,-18.80622 -0.8925,-7.63374 -1.8925,-17.27873 -3.07624,-26.04122 l -0.38625,-2.85125 z m -50.25619,20.85498 -0.1525,-4.40125 c -0.0575,-1.61875 -0.1225,-1.82125 -0.65625,-2.02125 -0.39625,-0.14875 -0.75,-0.40375 -1.08875,-0.63749 -2.00875,-1.385 -2.865,-1.9225 -2.08375,-3.81125 1.82125,-4.4 20.48373,-16.12623 22.30997,-17.44873 2.45,-1.77375 6.955,-5.27249 7.54625,-4.40249 0.48499,0.71624 -1.14125,4.26249 -1.58,6.35874 -0.14375,0.68875 -0.15875,1.22125 0.0525,1.5 1.61374,2.11749 4.73249,-5.855 5.83499,-7.62749 3.4475,-5.5449998 5.14374,-4.9674998 6.17124,-9.6024898 0.57125,-2.57625005 0,-2.92375005 -2.00249,-2.33125005 -3.24875,0.96000005 -8.64749,3.64875005 -12.27374,6.13124005 -0.1025,0.0713 -0.205,0.14125 -0.30875,0.2125 L 138.63376,21.793067 c -0.84,0.68375 -2.085,1.72625 -3.78,3.41875 -0.5575,0.55625 -1.085,1.1075 -1.54875,1.63125 -2.5225,2.84624 -4.51624,9.83749 -1.91625,13.87498 0.3825,0.595 3.64375,3.87125 5.1225,4.02375 0.77,0.08 1.91875,-0.0675 1.91875,-0.0675 z"
     style="fill:#000000;stroke:none" />
</svg>
