<?xml version="1.0" encoding="UTF-8" standalone="yes"?>
<svg>
<path
	style="stroke:none; fill:#000000"
	d="m 84.159263,13.17702 c -0.364,2.27 0.078,2.827 1.588,2.131 1.027,-0.475 14.286997,-8.1889985 16.223997,-10.497999 0.78,-0.9300001 1.558,-2.5760001 1.833,-4.05600009 0.169,-0.91200006 -0.105,-0.88000006 -1.087,-0.51499996 C 100.44226,1.0850208 85.440263,10.21802 84.970263,11.04302 c -0.439,0.771 -0.721,1.57 -0.811,2.134 z m 3.262528,28.717986 0.513,-0.009 c 0.23,-0.004 0.291,-0.144 0.617,-1.4 1.872,-7.227 2.213,-11.217 -2.391,-15.851001 -0.758,-0.763 -1.642,-1.404 -2.211,-0.72 -0.386,0.464 -0.78,3.740001 -0.604,4.456001 0.308,1.251 1.22,1.657 2.274,2.506 2.38,1.919 2.976,3.359 2.673,5.914 -0.232,1.962 -0.871,5.104 -0.871,5.104 z M 44.955248,82.077037 c 0.163,2.240001 1.208,3.634001 3.11,4.036001 2.453,0.519 3.84,-0.812 4.469,-3.503 0.138,-0.590001 0.107,-1.082001 -0.273,-1.320001 -0.723,-0.451 -2.708,0.018 -3.667,-0.492 -1.194,-0.634 -1.498,-3.33 -1.202,-4.59 0.295,-1.261 1.049,-2.612 1.254,-3.584 0.041,-0.197 0.06,-0.378001 -0.025,-0.479001 -0.011,-0.013 -0.022,-0.025 -0.033,-0.036 -2.887,-0.659 -3.589,10.573002 -3.633,9.968001 z m -7.828669,-73.2598339 -4.881,4.8489999 c -0.811,0.806 -0.927,0.951 -1.154,1.447 -0.318,0.695 -0.428,1.857 -0.271,2.015 0.505,0.51 2.293,-0.728 2.915,-1.187 5.449,-4.019 7.931,-6.5499999 8.812001,-11.7530004 0.448,-2.6450001 -0.952001,-3.66900105 -3.431001,-4.00600105 -3.931,-0.536 -7.832,0.012 -9.36,2.97200105 0.239,11.3010004 0.574,4.8380005 3.908,4.0360005 3.709,-0.8920004 7.697,-2.8750005 3.462,1.627 z m 77.159051,0 -4.881,4.8489999 c -0.811,0.806 -0.927,0.951 -1.154,1.447 -0.318,0.695 -0.428,1.857 -0.271,2.015 0.505,0.51 2.293,-0.728 2.915,-1.187 5.449,-4.019 7.931,-6.5499999 8.812,-11.7530005 0.448,-2.645 -0.952,-3.66900095 -3.431,-4.00600095 -3.931,-0.536 -7.832,0.012 -9.36,2.97200095 0.239,11.3010005 0.574,4.838001 3.908,4.036001 3.709,-0.892001 7.697,-2.875001 3.462,1.6269996 z M 22.260953,57.69454 l -5.1271,5.127 6.499,6.499 6.499,-6.499 -5.1271,-5.127 5.1271,-5.127 -6.499,-6.499 -6.499,6.499 5.1271,5.127 z m 128.844797,15.531089 -6.499,6.499 6.499,6.499 6.499,-6.499 -6.499,-6.499 z M 80.911753,58.467207 c 0.784,-1.085 1.72,-2.856 0.245,-3.686 0.398,-0.069 0.865,-0.006 1.425,0.132 0.929,0.229 2.034,0.507 3.01,0.935 0.943,0.413 1.651,0.781 2.164,1.109 3.166,2.018 -0.874,2.504 -3.64,2.559 -5.445,0.108 -3.222,-1.023 -3.204,-1.049 z m -4.458,-3.375 c 0.581,2.232 -2.154,3.673 -4.728,3.258 -1.187,-0.192 -4.176,-1.244 -3.494,-2.775 0.368,-0.827 2.724,-1.73 3.247,-1.85 1.365,-0.313 3.267,-0.17 4.461,0.771 0.231,0.182 0.464,0.406 0.514,0.596 z M 49.625793,0.00763095 c -0.801328,0.1097813 -1.657751,1.31675005 -2.725,3.35000005 -0.251,0.4770001 -0.486,0.9769998 -0.6,1.4999998 -0.154,0.704 -0.155,0.9210001 0,2.3000001 l 2.211584,19.6870451 c 1.115246,10.029612 1.150525,20.143164 1.738416,29.237957 0.458,6.382 3.837,10.822001 8.9,12.025001 1.922,0.457 20.738001,-0.104 23.500001,-0.7 2.678,-0.578 6.944,-1.972 8.45,-4.950001 0.463,-0.917 0.581,-1.938 1.025,-3.075 1.552,-3.971 3.060001,-4.566 2.325,-6.85 -0.398,-1.237 -2.784,-3.971 -4.125,-4.725 -2.25,-1.266 -5.149,-1.632 -6.675,-2.825 -0.495,-0.388 -0.837,-0.86 -1.375,-1.65 -1.461,-2.144 -4.325,-6.600001 -4.325,-6.600001 0,0 -1.911,6.228001 -3.8,8.250001 -1.086,1.163 -2.244,1.174 -3.35,1.8 -2.333,1.32 -4.763001,5.442 -5.400001,8.475 -0.794,3.774 -0.386,4.577 -2.4,4.125 -7.405,-1.664 -9.044,-5.142 -9.15,-14.5 -0.609895,-5.201069 -0.529548,-11.004483 -0.457957,-15.944463 0.07356,-5.122972 0.102811,-13.910918 -0.567043,-16.330538 -0.355,-1.283 -0.848,-2.02 -1.025,-3.075001 -0.7,-4.1560002 1.122,-7.168 -1.375,-9.25000005 -0.26,-0.21675 -0.532891,-0.3115937 -0.8,-0.275 z m 60.169957,56.88059305 -1.919,0 c -0.863,0 -1.031,-0.026 -1.687,-0.259 -1.05,-0.373 -3.64,-2.488 -3.074,-3.338 0.61,-0.916 3.858,0.496 4.625,0.771 0.849,0.304 1.904,0.826 2.055,1.593 0.102,0.518 0,1.233 0,1.233 z m -6.34496,-9.720574 c -2.082,2.137 -5.314995,10.855 -4.949995,13.05 0.171,1.028 1.481,4.304 2.724995,4.9 2.977,1.426001 6.75,-0.349 9.9,-1.025 2.119,-0.455 3.626,-0.244 4.325,1.35 0.615,1.404001 -0.449,2.122001 -2.575,3.275001 -7.627,4.134 -22.069996,10.913 -34.424996,13.45 -10.969,2.253 -5.805,2.287 0.975,3.2 2.574,0.347 5.315,0.67 7.25,0.8 4.011,0.268 6.856001,-0.42 11.375001,-2.2 3.686995,-1.453 12.810995,-6.507 14.899995,-8.25 1.668,-1.392 1.418,-1.977 3,-5.8 2.939,-7.104001 5.406,-7.523001 4.125,-12.175001 -0.52,-1.888 -3.249,-6.524 -5,-8.475 -0.64412,-0.717611 -2.72269,-2.728971 -3.525,-4.075 -0.0757,-0.03153 -0.15659,-0.06518 -0.25,-0.075 -3.36653,-0.742704 -4.77869,-1.040609 -7.85,2.05 z m 22.575,-47.16768605 -3.375,6.32499995 1.24114,23.8976741 c 0.70133,9.715767 1.48893,20.073161 2.85886,28.177328 1.647,9.543001 11.28101,20.213001 22.45001,13.525001 0.921,-0.552 1.846,-1.133 2.875,-1.525 1.546,-0.589 9.763,-1.485 12.2,-1.05 3.022,0.538 4.573,2.117 6.325,1.05 0.903,-0.549 3.459,-5.071 4.3,-7.575 0.908,-2.705001 -3.189,-1.407001 -7.05,-2.450001 -1.449,-0.392 -2.375,-1.224 -3.325,-2.325 -4.124,-4.781 -5.853,-8.242 -11.55,-9.25 -2.617,-0.463 -5.318,0.326 -6.95,1.55 -1.052,0.79 -3.23,4.52 -3.35,5.75 -0.112,1.152 0,2.475 0,2.475 l 6.525,-0.425 c 1.385,-0.088 1.657,-0.074 2.675,0.2 2.533,0.682 4.047,2.478 3.15,4 -0.757,1.284001 -6.018,2.892001 -7.725,2.900001 -2.042,0.009 -8.681,-2.231 -10.275,-3.350001 -1.856,-1.303 -4.80401,-5.202 -5.37501,-8.075 C 128.97132,43.765353 129.04845,32.3931 128.5583,23.151753 L 127.27579,-3.605e-5 z M 35.050792,48.833871 c -1.9079,4.043 1.513,6.577 3.475,10.9 0.95,2.094 1.845001,5.675 1.375,6.825 -0.876,2.148001 -14.2405,9.138001 -16.7,10.100001 -3.7205,1.455 -8.8746,2.907 -13.000001,4.175 -9.0819996,2.791 -16.8878999,-0.307 -1.3000001,4.675 6.5284011,2.086 14.7217011,-0.745 20.0250011,-3.975 4.4559,-2.714 9.457,-6.178 10.75,-7.475 0.818001,-0.821 4.586001,-12.046001 4.550001,-13.550001 -0.059,-2.397 -0.028,-5.315 0.525,-5.725 1.225,-0.909 1.34,-1.176 -0.375,-4.925 -1.371356,-3.002026 -4.953394,-6.150527 -4.953394,-6.150527 0,0 -1.208062,-1.36977 -4.371607,5.125527 z M 77.800794,6.306e-5 c -0.286869,0.00165 -0.572625,0.030875 -0.8,0.075 -2.42,0.469 -8.571,4.68800014 -10.1,6.67500014 -1.646001,2.1389999 -4.605001,10.1520008 -4.900001,11.7250008 -0.798,4.252 1.196,6.198 6.175001,7.55 1.93,0.524 7.723,1.921 6.675,4.05 -0.529,1.076 -6.7,3.99 -7.2,4.175 -4.310412,1.587138 -11.963851,2.784244 -14.675001,3.175 -0.002,0.05158 -0.01994,0.09973 -0.025,0.15 -5.793377,0.210354 -11.97484,0.361099 -16.675001,-2.475 -9.2864,-5.712 -9.7211,-10.984999 -9.025,-20.975001 0.1863,-2.675 0.4,-4.7999999 0.4,-4.7999999 0,0 -1.4373,2.4969999 -2.225,4.1749999 -3.79452,12.06226 -4.327897,22.592848 6.875,29.875002 4.111892,2.209669 8.458574,3.04914 13.079385,2.961594 7.551306,-0.72481 13.872054,-1.903889 20.095616,-4.361594 2.088001,-0.830001 8.416001,-5.609001 9.350001,-7.350001 1.92,-3.579 4.505,-8.993 4.65,-10.05 0.371,-2.694 -0.456,-4.499 -3.6,-6 -3.099,-1.48 -7.747,-1.865 -9.750001,-3.35 -1.763,-1.308001 0.830001,-3.001001 3.175001,-4.500001 2.303,-1.4739999 3.248,-2.2539997 5.05,-1.8999999 2.198,0.431 4.256,2.3559999 5.825,2.0499999 0.112,-0.022 4.476,-5.7929999 3.425,-8.4 -0.596752,-1.48224989 -3.791916,-2.48658004 -5.8,-2.47499994 z M 119.45647,82.077037 c 0.163,2.240001 1.208,3.634001 3.11,4.036001 2.453,0.519 3.84,-0.812 4.469,-3.503 0.138,-0.590001 0.107,-1.082001 -0.273,-1.320001 -0.723,-0.451 -2.708,0.018 -3.667,-0.492 -1.194,-0.634 -1.498,-3.33 -1.202,-4.59 0.295,-1.261 1.049,-2.612 1.254,-3.584 0.041,-0.197 0.06,-0.378 -0.025,-0.479 -0.011,-0.013 -0.022,-0.025 -0.033,-0.036 -2.887,-0.659 -3.589,10.573001 -3.633,9.968 z"/>
</svg>