<?xml version="1.0" encoding="UTF-8" standalone="yes"?>
<!-- Created with sK1/UniConvertor (http://sk1project.org/) -->
<svg xmlns="http://www.w3.org/2000/svg" xmlns:xlink="http://www.w3.org/1999/xlink"
  width="595.276pt" height="841.89pt" viewBox="0 0 595.276 841.89"
  fill-rule="evenodd">
<path
	style="stroke:none; fill:#000000"
	d="m 49.92998,73.47364 -4.183,-3.99 -6.916,6.597 6.915,6.597 4.183,-3.99 4.183,3.99 6.916,-6.598 -6.914,-6.596 -4.184,3.99 z m 59.743,-47.827 -6.916,6.598 6.915,6.596 6.916,-6.598 -6.915,-6.596 z m 4.898,52.345 c 0.192,2.532 1.43,4.107 3.683,4.561 2.906,0.586 4.55,-0.917 5.295,-3.958 0.163,-0.667 0.126,-1.224 -0.324,-1.492 -0.856,-0.51 -3.207,0.02 -4.344,-0.556 -1.414,-0.717 -1.774,-3.763 -1.424,-5.188 0.35,-1.425 1.243,-2.952 1.486,-4.05 0.049,-0.223 0.072,-0.428 -0.03,-0.542 -0.013,-0.014 -0.026,-0.028 -0.038,-0.041 -3.421,-0.743 -4.252,11.949 -4.304,11.266 z m -64.415,-63.216 -0.438,-7.96 c -0.064,-1.181 -0.09,-1.387 -0.255,-2.056 -0.506,-2.051 -1.867,-3.174 -3.29,-3.89900003 -1.809,-0.922 -3.19,-1.264 -5.055,0.034 -1.534,1.06700003 -1.678,4.93200003 -1.075,5.53600003 0.449,0.451 1.641,0.41 3.084,0.087 3.602,-0.807 3.963,-0.621 4.902,3.014 0.446,1.727 0.498,3.345 0.279,5.082 -0.466,3.689 -1.56,5.483 0.584,7.649 0.893,0.901 1.825,1.037 3.862,0.637 1.446,-0.284 1.734,-0.925 2.34,-2.836 0.427,-1.346 0.765,-2.551 0.655,-3.892 -0.217,-2.662 -3.233,-7.664 0.402,-8.907 0.671,-0.229 1.544,-0.08 2.296,0.077 1.014,0.21 1.186,0.115 1.72,-0.956 0.439,-0.88 0.947,-1.69 1.227,-2.638 1.049,-3.55600003 -0.557,-4.56000003 -3.78,-3.10300003 -3.697,1.67100003 -5.357,8.83100003 -4.568,13.63100003 0.242,1.978 0.507,3.76 0.507,3.76 0,0 -0.221,-0.003 -0.484,-0.027 -1.035,-0.097 -2.813,-1.408 -2.913,-3.233 z m 28.055,66.196 c 4.586,-2.836 12.844,-7.967 12.886,-8.043 0.671,-1.213 1.446,-3.642 0.645,-4.47 -0.099,-0.102 -0.225,-0.181 -0.382,-0.229 -0.099,-0.031 -0.203,-0.034 -0.304,-0.021 -0.105,0.015 -0.18,0.04 -0.498,0.194 -2.886,1.395 -12.242,7.141 -15.072,8.905 -0.606,0.379 -1.084,0.726 -1.327,1.014 -0.29,0.343 -0.645,1.637 -0.789,2.729 -0.557,4.225 6.734,-1.25 4.841,-0.079 z m 8.496,-27.001 c 0,0 -0.47,0.084 -1.166,0.185 -0.526,0.077 -14.557,-0.528 -14.358,-0.499 -1.476,-0.219 -2.682,-0.466 -2.682,-0.466 0,0 -0.025,-0.309 0,-0.539 0.041,-0.39 0.225,-0.551 0.416,-0.742 3.074,-3.073 4.02,-5.616 6.912,-6.334 2.33,-0.578 6.422,0.391 8.349,2.249 0.917,0.883 2.215,2.82 2.388,4.01 0.113,0.779 0.141,2.136 0.141,2.136 z m -32.65,5.969 0.741,-1.964 c 0.565,-0.787 0.939,-1.472 1.413,-1.307 0.349,0.122 0.679,0.715 1.051,1.369 0.862,1.516 1.155,1.892 2.687,2.245 0.569,0.131 0.892,0.268 0.644,1.254 -0.14,0.556 -0.334,1.113 -0.561,1.679 -0.496,1.241 -3.113,6.416 -2.728,8.011 0.006,0.025 0.013,0.047 0.022,0.066 1.786,4.053 5.737,-10.771 5.261,-9.015 0.079,-0.293 0.213,-0.594 0.462,-0.959 0.277,-0.407 0.384,-0.446 1.065,-0.387 0.215,0.019 0.44,0.041 0.673,0.065 5.968,0.611 19.291,3.503 23.612,-3.565 0.773,-1.264 1.527,-2.86 2.342,-4.871 0.141,-0.349 0.235,-0.613 0.26,-0.752 1.739,-9.539 -4.786,-13.868 -11.417,-13.848 -0.998,0.003 -1.68,0.179 -2.439,0.671 -4.52,2.931 -7.455,8.383 -10.372,13.138 -0.115,0.187 -0.232,0.379 -0.353,0.575 -0.403,0.654 -0.488,0.732 -0.852,0.781 -0.27,0.037 -0.543,-0.006 -0.81,-0.054 -1.14,-0.206 -2.173,-0.498 -3.085,-1.05 -0.645,-0.39 -2.068,-2.231 -2.268,-2.933 -0.382,-1.34 -0.528,-3.053 -1.373,-2.613 -0.624,0.324 -1.272,3.51 -2.175,4.947 -0.803,1.277 -4.455,2.027 -8.152,2.391 -2.045,-0.593 -3.7,-2.078 -4.594,-5.501 -0.019,-0.072 -0.037,-0.146 -0.056,-0.22 -1.035,-4.155 -1.166,-5.445 -2.466,-8.513 -0.389,-0.92 -1.151,-2.342 -1.887,-3.592 -1.864,-3.164 -2.395,-4.077 -3.498,0.43 -0.262,1.069 -0.457,2.158 -0.557,2.802 -0.269,1.726 0.029,1.796 0.652,3.305 0.697,1.687 -1.519,2.149 -3.838,2.452 -0.668,0.087 -1.318,0.118 -1.973,0 -1.627,-0.296 -3.311,-1.507 -4.03,-1.2 -0.398,0.17 -1.921,5.859 -1.431,7.598 0.203,0.722 0.777,1.505 1.395,2.361 4.373,6.054 3.847,11.295 2.259,14.964 -1.959,4.524 -4.791,6.022 -8.43,8.438 -4.362,2.897 -8.78,5.396 -10.6109998,6.428 -1.948,1.098 -8.82899996,4.86 -8.63599996,7.432 0.051,0.67 0.589,1.74 1.19999996,1.69 5.392,-0.437 10.5099998,-2.753 14.8419998,-5.527 8.358,-5.35 23.061,-16.956 15.848,-32.517 -0.34,-0.735 -0.832,-1.299 -0.281,-1.722 1.721,-1.324 3.529,-1.193 4.172,-2.549 0.431,-0.909 0.568,-2.679 1.011,-3.598 0.296,-0.612 0.706,-0.328 1.138,0.3 0.879,1.278 1.439,3.245 1.913,5.166 0.66,2.68 1.399,4.739 2.282,6.288 0.897,1.573 7.406,7.205 11.928,1.411 z m 13.685,-56.174 c -0.287,1.814 0.777,2.192 1.644,3.298 1.758,2.244 2.107,7.467 1.896,10.014 -0.261,3.151 -2.021,8.835 -1.115,11.877 0.642,2.152 5.926,6.064 7.618,4.024 0.03,-0.037 0.061,-0.075 0.09,-0.114 3.096,-4.083 1.897,-11.756 -4.379,-11.483 -0.679,0.03 -1.244,0.272 -1.503,0.073 -0.23,-0.175 0.569,-3.658 1.059,-6.584 0.625,-3.723 0.135,-6.855 -0.758,-9.756 -0.616,-1.997 -2.218,-5.97900003 -3.374,-4.94600003 -0.159,0.142 -1,2.47400003 -1.178,3.59700003 z m -30.329,12.732 c 0.495,-0.037 0.597,-0.003 0.796,0.185 1.147,1.081 0.052,2.432 -1.094,3.363 -3.011,2.445 -9.364,5.978 -9.854,6.909 -0.175,0.333 -0.274,0.676 -0.387,1.186 -0.458,2.071 -0.437,2.705 0.481,2.398 0.624,-0.209 1.364,-0.544 2.158,-0.961 5.02,-2.63 10.554,-5.979 11.359,-13.249 0.048,-0.436 0.066,-0.867 0.048,-1.287 -0.115,-2.607 -3.058,-3.925 -5.983,-4.016 -3.087,-0.096 -5.391,0.649 -6.342,4.374 -0.154,0.604 -0.278,1.223 -0.343,1.748 -0.604,4.842 9.086,-0.645 9.161,-0.65 z m 62.52,44.514 c 0.365,0.35 0.754,0.671 1.167,0.961 -1.356,-0.951 7.334,5.995 17.963,0.135 8.261,-4.553 6.032,-17.22 2.275,-23.831 -2.799,-4.926 -2.131,-5.679 -5.065,-0.383 -0.999,1.804 -1.822,3.872 -1.066,4.969 0.139,0.201 0.311,0.427 0.499,0.667 1.006,1.285 7.062,10.701 3.723,11.793 -0.269,0.088 -0.565,0.184 -0.875,0.282 -0.78,0.249 -1.646,0.499 -2.578,0.738 -3.58,0.19 -7.18,-0.137 -10.096,-1.422 -0.966,-0.427 -1.744,-0.859 -2.38,-1.323 -3.142,-2.294 -4.627,-11.643 -4.976,-14.612 -1.565,-13.331 -2.54,-28.931 -2.853,-32.463 -0.328,-3.711 -0.593,-6.52200002751 -0.593,-6.52200002751 0,0 -0.476,0.0349999975 -0.859,0.15799999751 -0.87,0.28 -3.068,4.79900003 -3.273,5.63400003 -0.224,0.909 -0.123,1.923 0,2.962 0.422,3.57 1.109,7.443 1.673,11.271 0.775,5.268 1.535,12.754 1.952,19.196 0.063,0.972 0.109,2.035 0.153,3.162 0.421,10.954 1.772,15.336 5.209,18.628 z m 4.757,-31.242 c 0.05,-0.533 0.105,-1.315 -0.076,-1.6 -0.193,-0.305 -0.654,-0.044 -1.157,-0.167 -0.533,-0.13 -1.215,-0.793 -1.372,-1.332 -0.096,-0.33 0.048,-0.807 0.344,-1.362 2.909,-5.47 11.469,-11.53 16.201,-14.136 0.639,-0.352 1.089,-0.595 1.089,-0.595 0,0 -0.067,2.726 0.015,4.183 0.026,0.454 0.206,2.033 0.487,2.694 0.2,0.469 0.243,0.521 0.424,0.521 l 0.405,0 0,-0.299 c 0,0 0.253,0 0.253,0 0,0 -0.033,-0.625 -0.027,-1.46 0.038,-4.874 4.062,-8.338 7.581,-9.814 0.772,-0.324 1.523,-0.493 1.954,-1.019 0.263,-0.321 0.452,-1.538 0.654,-2.849 0.214,-1.389 0.737,-2.31700003 -0.643,-2.52100003 -0.031,-0.005 -0.062,-0.008 -0.091,-0.011 -0.131,-0.012 -0.213,0.01 -0.607,0.199 -8.419,4.05300003 -24.637,11.56400003 -29.174,22.24100003 -1.096,2.58 -1.827,5.966 -0.796,7.854 0.492,0.901 1.803,2.463 2.351,2.67 0.276,0.104 1.538,-0.328 1.856,-0.999 0.111,-0.234 0.187,-0.603 0.214,-0.922 0.035,-0.43 0.046,-0.557 0.115,-1.276 z m 4.424,-20.943 c 0.069,-0.218 0.133,-0.42 0.185,-0.58 0.319,-1 1.419,-1.116 2.6,-1.114 1.526,10e-4 6.941,-4.031 1.111,-6.86000003 -1.989,-0.965 -3.888,0.79100003 -4.904,2.80900003 -0.083,0.165 -0.149,0.323 -0.197,0.468 -0.338,1.047 -0.635,5.14 -1.549,4.455 -0.275,-0.206 -0.404,-1.008 -0.594,-1.811 -0.487,-2.057 -4.19,-5.30900003 -6.147,-4.671 -0.818,0.266 -1.781,0.954 -2.008,1.583 -0.198,0.549 0.084,3.653 0.632,4.599 0.788,1.361 2.539,1.695 3.925,1.199 1.162,-0.415 1.593,-1.036 2.271,-0.15 0.065,0.086 0.127,0.182 0.187,0.286 3.785,6.608 2.997,7.192 4.488,-0.213 z"/>
</svg>