<?xml version="1.0" encoding="UTF-8" standalone="yes"?>
<svg xmlns="http://www.w3.org/2000/svg" xmlns:xlink="http://www.w3.org/1999/xlink"
  width="595.276pt" height="841.89pt" viewBox="0 0 595.276 841.89">
<path
	style="stroke:none; fill:#000000"
	d="m 34.25311,7.8029389 c -0.156,0.194 -0.563,-0.079 -0.895,-0.291 -0.827,-0.527 -3.058,-1.49 -2.529,-2.431 0.305,-0.543 1.536,-0.824 2.072,-0.638 0.744,0.258 1.268,1.103 1.405,1.892 0.082,0.471 0.167,1.195 -0.053,1.468 z M 45.363115,55.481939 c -0.198,0.286 -0.393,0.552 -0.583,0.788 -3.613,4.497 -8.947,8.593 -14.211005,5.947 -1.804,-0.906 -6.587,-8.231 -6.893,-10.485 -0.16,-1.173 -0.431,-4.176 -1.191,-3.91 -0.518,0.182 -0.934,2.677 -0.984,3.168 -0.128,1.245 -0.033,2.123 0.186,3.785 0.06,0.458 0.13,0.975 0.201,1.497 0.653,4.807 2.882,9.88 6.805,12.213 1.632,0.969 3.615,1.325 5.574,1.172 3.065005,-0.239 6.590005,-2.947 9.410005,-6.37 4.839,-5.873 5.118,-9.939 6.596,-15.356 0.026,-0.095 0.055,-0.181 0.089,-0.258 0.36,-0.821 2.081,-1.798 2.872,-2.243 0.913,-0.512 1.673,-0.914 2.351,-1.383 5.882,-4.067 4.479,-12.159 2.362,-17.821 -0.231,-0.62 -0.44,-1.129 -0.596,-1.444 -0.073,-0.147 -0.149,-0.297 -0.228,-0.449 -2.497,-4.827 -1.785,-4.885 -3.716,-0.019 -0.922,2.321 -1.388,4.203 -0.123,6.228 0.239,0.384 0.54,0.709 0.836,1.01 1.991,2.023 4.048,5.845 -0.418,7.962 -1.599,0.758 -3.218,1.443 -3.218,1.443 0,0 -1.001,-2.395 -1.909,-3.934 -1.393,-2.364 -4.814,-5.302 -7.087,-4.729 -2.979,0.751 -3.904,2.832 -4.684,6.408 -0.714,3.271 -1.327,8.52 1.391,10.2 2.77,1.713 4.311,0.26 7.919,-0.6 1.129,-0.269 2.568,-0.48 2.568,-0.48 0,0 0.005,0.047 0.026,0.255 0.197,1.987 -2.989,6.888 -3.345,7.405 z m -0.105,-13.756 c 0.067,0.078 0.05,0.271 0,0.433 -0.41,1.315 -4.283,0.791 -4.854,0.623 -1.07,-0.313 -2.405,-1.69 -1.781,-2.961 0.39,-0.796 1.549,-1.141 2.211,-1.057 0.996,0.126 3.561,1.96 4.424,2.962 z m -32.610005,23.745 c -5.5249998,4.198 -10.9309998,7.388 -11.98299981,8.871 -0.587,0.827 -1.196,1.712 0.119,2.04 0.29900001,0.075 0.57500001,0.011 0.87800001,-0.057 2.773,-0.63 5.167,-1.318 7.38,-2.299 8.3999998,-3.725 16.1139998,-12.586 17.6759998,-18.399 0.215,-0.8 0.421,-1.623 0.609,-2.423 0.803,-3.411 3.959,-5.464 0.534,-12.079 -0.399,-0.771 -0.829,-1.559 -1.188,-2.258 -0.067,-0.132 -0.134,-0.268 -0.193,-0.402 l -0.491,-1.098 0.592,-0.164 c 0.167,-0.046 0.38,-0.077 0.608,-0.148 0.213,-0.067 0.397,-0.144 0.555,-0.233 l 1.143,-0.638 -0.503,-1.545 c -0.437,-1.153 -1.111,-2.172 -1.736,-3.137 -0.681,-1.05 -1.521,-2.086 -2.377,-3.028 -2.208,-2.427 -3.924,-4.827 -5.349,0.363 -0.483,1.756 -0.42,3.993 0.235,5.065 0.497,0.814 1.307,1.282 1.983,2.053 1.021,1.165 2.574,5.921 3.884,8.808 l 1.739,3.832 -1.637,2.918 c -3.542,6.279 -7.191,9.94 -12.478,13.958 z m 33.210005,-45.806 -4.326,4.851 4.326,4.85 4.326,-4.85 -4.326,-4.851 z m 6.392,52.604 c 0.144,2.241 1.077,3.634 2.773,4.036 2.187,0.519 3.425,-0.811 3.985,-3.502 0.123,-0.591 0.096,-1.083 -0.243,-1.32 -0.645,-0.452 -2.415,0.017 -3.271,-0.493 -1.064,-0.634 -1.335,-3.329 -1.071,-4.589 0.263,-1.262 0.935,-2.612 1.118,-3.585 0.037,-0.196 0.054,-0.378 -0.022,-0.479 -0.01,-0.013 -0.02,-0.025 -0.029,-0.036 -2.575,-0.658 -3.201,10.573 -3.24,9.968 z m -22.010005,-45.197 0,1.71 c 0,0 1.099,0.131 1.858,0 1.459,-0.254 1.689,-1.713 3.280005,-2.196 1.123,-0.34 2.991,-0.204 2.991,-0.204 0,0 -6.526005,7.067 -7.730005,9.459 -0.228,0.454 -0.258,1.45 0.385,1.821 1.057,0.609 4.197005,-3.394 4.567005,-3.84 1.753,-2.113 2.592,-3.116 3.242,-4.382 2.349,-4.569 1.446,-10.148 -4.707005,-7.091 -1.331,0.661 -2.856,1.498 -3.136,1.873 -0.257,0.342 -0.432,0.841 -0.559,1.304 -0.172,0.623 -0.191,0.778 -0.191,1.546 z m -1.979,-22.2930001 c -0.104,1.133 0.054,3.039 0.321,3.504 0.899,1.565 2.822,2.1770001 2.675,3.2020001 -0.085,0.593 -1.589,1.934 -2.782,2.918 -1.443,1.189 -2.484,2.208 -3.639,3.24 -1.679,1.5 -13.182,8.87 -14.9819998,9.6 -2.163,0.877 -5.094,1.519 -3.746,3.6 0.161,0.247 0.297,0.384 0.463,0.48 0.385,0.225 7.5089998,-2.928 9.4899998,-4.2 4.528,-2.908 11.091,-6.537 14.93,-11.353 1.516,-1.901 2.605,-3.816 3.584,-1.967 0.492995,0.931 0.499995,2.252 0.962995,3.24 1.09,2.331 2.837,2.275 5.35,1.08 1.463,-0.695 2.459,-1.666 2.914,-3.317 0.473,-1.714 0.388,-3.398 -0.486,-3.883 -0.253,-0.14 -0.56,-0.179 -0.788,0 -0.568,0.445 -0.651,2.237 -1.212,2.88 -0.399,0.458 -3.236,0.956 -3.711,0.72 -0.891,-0.442 -1.985,-4.354 -1.997,-4.8650001 -0.038,-1.554 0.706,-3.154 0.708,-4.721 0.003,-2.043 -1.237,-4.65699997 -2.829995,-4.91199997 -1.499,-0.24 -4.287,1.28699997 -4.904,2.97799997 -0.215,0.587 -0.28,1.325 -0.321,1.776 z"/>
</svg>