<?xml version="1.0" encoding="UTF-8" standalone="no"?>
<svg>
  <path
     d="m 111.324,16.213453 -0.123,-3.203 c -0.05,-1.295 -0.033,-1.527 0.164,-2.32 0.147,-0.589 0.301,-1.2320002 0.693,-1.6470002 0.956,-1.011 3.322,-0.661 4.419,-1.494 1.579,-1.199 1.581,-5.316 0.365,-6.98500004 -1.289,-1.76899996 -3.894,1.04100004 -4.962,2.64900004 -0.656,0.988 -1.277,2.12 -1.556,3.441 -0.13,0.612 -0.201,1.307 -0.302,1.916 l -0.496,2.9790002 -1.637,-2.3720002 c -2.241,-3.36 -1.558,-4.358 -4.85,-5.272 -1.104,-0.306 -3.496,-0.192 -3.956,1.223 -0.36,1.106 0.485,3.797 1.014,4.437 0.407,0.4910002 2.055,1.7110002 2.735,1.7850002 1.113,0.123 3.385,-0.648 3.385,-0.648 0,0 1.834,3.006 2.955,4.417 0.489,0.616 0.893,1.112 1.52,1.126 0.259,0.005 0.632,-0.032 0.632,-0.032 z m -12.22,19.796 c -0.036,-1.117 -0.147,-2.519 -0.469,-2.872 -0.187,-0.204 -0.445,-0.056 -0.606,-0.166 -0.728,-0.497 0.51,-2.548 1.099,-3.332 5.353,-7.114 19.225,-15.947 26.554,-17.774 0.698,-0.174 1.396,-0.314 1.529,-0.045 0.065,0.133 -0.009,0.369 -0.122,0.634 -0.265,0.623 -0.688,1.378 -1.159,2.187 -9.761,16.782 5.636,-6.5080002 10.005,-7.1620002 0.4,-0.224 0.775,-0.405 1.107,-0.525 1.7,-0.609 3.542,-0.738 3.765,-2.594 0.031,-0.26 0.036,-0.585 0.028,-0.899 -0.074,-3.04000004 -4.431,-1.586 -7.501,-0.256 -2.842,1.23 -7.061,3.258 -11.537,5.616 -5.791,3.0510002 -23.131,12.2080002 -25.571,20.1620002 -0.786,2.563 -0.64,5.435 0.927,7.905 0.067,0.106 0.128,0.202 0.184,0.288 -0.707,-1.094 1.918,3.506 1.767,-1.167 z m 17.519,-8.378 c 0,0 0,0 0,0 -0.615,0 -1.406,-1.583 -1.406,-2.284 0,-0.351 0,-0.775 0,-1.151 0,-1.207 2.495,-2.036 3.089,-0.443 0,0.417 0,1.011 0,1.505 0,0.819 -0.964,2.373 -1.683,2.373 z m -1.2,2.427 c 0.015,0.014 0.029,0.029 0.044,0.043 2.352,2.384 -2.036,6.33 -3.837,7.848 -3.357,2.829 -6.423,5.614 -9.668,8.298 -1.065,0.88 -4.934,4.325 -2.746,4.234 2.939,-0.123 5.419,-2.256 7.348,-3.943 3.195,-2.794 8.198,-7.874 9.604,-9.982 l 1.766,-2.647 1.489,1.213 c 0.568,0.462 1.031,1.162 1.199,1.88 0.46,1.962 -0.579,4.593 -0.082,6.486 1.012,3.851 6.327,5.038 8.431,1.191 0.149,-0.273 0.201,-0.557 0.26,-1.074 0.22,-1.957 -0.464,-3.843 -1.969,-4.546 -1.068,-0.5 -2.779,-0.879 -2.779,-0.879 0,0 0,5.274 0,5.274 0,0 0,0 0,0 0,0 -2.387,0.172 -2.214,-2.423 0.075,-1.606 0.093,-4.104 -0.369,-5.697 -0.421,-1.451 -1.256,-2.356 -1.911,-3.263 l -1.358,-1.88 0.784,-1.573 c 0.295,-0.591 0.706,-1.159 0.878,-1.939 0.069,-0.312 0.139,-0.644 0.204,-0.981 0.373,-1.928 -0.229,-5.094 -1.952,-6.545 -0.171,-0.144 -0.354,-0.252 -0.548,-0.313 -0.126,-0.04 -0.235,-0.068 -0.33,-0.086 -0.902,-0.174 -2.982,1.691 -4.091,3.393 -1.86,2.855 1.049,7.117 1.847,7.911 z m 21.804,-10.626 c 0.652,2.097 1.241,5.733 1.155,7.275 -0.136,2.426 -0.36,6.422 -0.36,6.422 -0.068,1.203 -0.009,1.398 0.585,1.95 0.953,0.887 4.182,2.348 5.069,1.66 0.117,-0.091 0.179,-0.226 0.342,-0.383 0.09,-0.086 0.209,-0.178 0.345,-0.267 0.96,-0.634 2.117,-2.083 2.167,-3.064 0.026,-0.491 0.022,-1.084 -0.089,-1.542 -0.227,-0.943 -0.948,-1.343 -1.526,-1.896 -0.779,-0.745 -0.983,-0.827 -2.041,-0.827 0,0 -2.967,0 -2.967,0 0,0 0.652,-2.568 0.648,-2.824 -0.058,-4.561 -0.624,-7.268 -1.12,-9.065 -0.133,-0.481 -0.539,-1.687 -1.043,-2.819 -0.169,-0.38 -1.11,-2.431 -1.68,-2.388 -1.203,0.093 -2.032,0.995 -2.032,2.679 0,0.841 0,1.963 0,2.363 0.436,-0.113 2.314,1.35 2.547,2.726 z m -43.365,-0.625 -4.287,4.849 c -0.712,0.806 -0.814,0.95 -1.013,1.447 -0.279,0.695 -0.376,1.857 -0.238,2.014 0.444,0.511 2.014,-0.728 2.56,-1.187 4.786,-4.018 6.966,-6.549 7.74,-11.753 0.393,-2.645 -0.837,-3.668 -3.013,-4.006 -3.453,-0.5350002 -6.88,0.013 -8.221,2.973 0.209,11.301 0.504,4.838 3.432,4.036 3.257,-0.893 6.76,-2.875 3.04,1.627 z m 12.897,60.68 c 0.113,1.788 0.846,2.899 2.178,3.22 1.719,0.414 2.691,-0.647 3.131,-2.794 0.097,-0.471 0.075,-0.864 -0.191,-1.053 -0.506,-0.36 -1.897,0.014 -2.569,-0.393 -0.837,-0.506 -1.049,-2.656 -0.842,-3.661 0.207,-1.006 0.735,-2.084 0.878,-2.859 0.029,-0.158 0.043,-0.302 -0.017,-0.383 -0.008,-0.01 -0.016,-0.02 -0.023,-0.029 -2.023,-0.525 -2.515,8.435 -2.545,7.952 z m -14.109,-25.578 c 0,0 0,-0.664 0,-0.86 -0.426,0.092 1.435,-0.553 2.995,1.557 0.034,0.123 0.058,0.268 0.079,0.439 0.114,0.903 0.095,1.032 -1.008,0.62 -0.466,-0.175 -0.986,-0.384 -1.418,-0.711 -0.583,-0.44 -0.648,-0.544 -0.648,-1.045 z m 21.958,-1.392 0,-2.722 c 0,0 -1.276,0.047 -2.205,0.323 -1.56,0.463 -2.141,1.574 -3.083,2.433 -3.211,2.931 -5.74,2.272 -6.199,1.653 -0.425,-0.572 -0.633,-1.268 -0.973,-1.984 -1.259,-2.657 -6.501,-7.904 -9.445,-6.801 -1.166,0.437 -3.901,7.851 -3.954,8.287 -0.22,1.779 -0.457,3.983 -0.49,5.429 -0.011,0.481 1.076,1.651 2.148,2.493 1.86,1.462 6.646,2.071 8.599,1.305 1.074,-0.42 2.355,-0.617 2.648,0.743 0.142,0.658 0.288,1.565 0.218,2.289 -0.086,0.897 -1.891,2.562 -3.508,3.6 -0.393,0.253 -1.225,0.901 -2.133,1.53 -1.861,1.289 -9.511,4.951 -11.546,5.723 -1.474,0.56 -2.645,1.004 -3.253,1.235 0.118,-0.045 -9.037,4.742 -1.569,4.742 0.491,0 1.095,0 1.762,0 5.953,0 20.677,-7.221 22.367,-15.309 0.792,-3.792 1.977,-7.77 3.879,-8.691 1.264,-0.612 3.223,-1 3.223,-1 0,0 0,0.494 0,1.217 0,1.839 1.296,2.956 3.139,3.146 1.378,0.143 3.081,0.165 4.186,-0.363 2.205,-1.052 4.111,-4.61 4.111,-4.61 0,0 2.241,2.979 3.847,4.61 2.99,3.037 6.24,1.551 7.585,-2.421 1.449,-4.281 0.983,-6.945 0.239,-9.843 -1.482,-5.77 -2.176,-8.51 -5.249,-3.72 -0.494,0.769 -0.951,1.948 -0.942,2.692 0.03,2.69 2.031,5.891 1.529,6.292 -0.548,0.437 -1.166,-1.258 -1.934,-2.702 -1.52,-2.856 -3.285,-2.196 -5.861,-0.597 -7.87,7.325 -7.136,-0.309 -7.136,1.021 z m 24.308,-13.877 -1.964,4.161 c -1.151,2.437 -2.832,4.269 -0.445,3.998 0.305,-0.035 0.653,-0.151 0.936,-0.004 0.416,0.216 0.703,1.027 0.936,1.884 0.13,0.478 3.456,8.962 3.456,12.48 0,0.152 0,0.278 0,0.382 0,3.157 -2.429,6.386 -4.99,8.378 -1.247,0.97 -4.188,2.951 -7.285,4.806 -7.099,4.252 -3.214,1.713 -7.621,3.472 -4.079,1.628 -10.08,4.598 -4.206,4.598 0.379,0 0.959,0 1.678,0 8.567,0 12.084,-0.977 17.155,-5.724 2.634,-2.466 4.973,-5.334 5.859,-6.815 0.722,-1.207 1.211,-2.455 1.755,-4.436 0.412,-1.498 0.855,-3.414 1.224,-5.095 0.687,-6.635 -0.823,-8.928 -0.665,-9.465 0.187,-1.064 0.609,-3.465 0.609,-3.465 0,0 -0.001,0 -0.019,0 -0.912,0 -3.48,-4.468 -4.009,-5.313 l -2.404,-3.842 z m -111.592,40.599 c 0.649,0.217 1.324,0.436 2.027,0.661 9.203,2.934 18.664,3.665 32.86,2.069 0.862,-0.214 1.782,-0.45 2.733,-0.7 5.277,-1.388 19.03,-5.216 21.556,-13.744 0.017,-0.534 0.1,-3.27 0.1,-3.27 0.148,-4.883 0.361,-14.797 -0.168,-19.495 -0.218,-1.94 -0.563,-2.991 -0.863,-4.833 -1.24,-7.629 -1.702,-28.833 -1.702,-28.833 0,0 2.635,0 2.635,0 0,0 -1.332,-7.1630002 -1.513,-8.1350002 -0.537,-2.88400004 -1.094,-4.211 -2.437,-1.422 -1.147,2.384 -3.533,4.732 -2.572,7.412 0.11,0.306 0.133,0.372 0.133,0.372 l 0.314,3.8570002 0.806,20.086 0.878,1.16 c 0,0 0.606,21.648 0.781,27.88 0.03,1.048 0.111,3.968 0.111,3.968 0,0 -0.166,0.229 -0.586,0.809 -4.361,6.016 -19.807,9.134 -26.43,9.388 -8.537,0.328 -18.242,-1.213 -25.896,-3.218 -1.197,-0.313 -2.271,-0.605 -3.256,-0.891 -6.288,-1.831 -18.831,-11.052 -24.185,-15.153 -1.4,-1 -2.201,-1.575 -2.65,-1.898 0.572,1.534 1.914,15.068 27.324,23.93 z"
     style="fill:#000000;stroke:none" />
</svg>