<?xml version="1.0" encoding="UTF-8" standalone="no"?>
<svg>
  <path
     style="fill:#000000;stroke:none"
     d="m 158.67644,65.277243 -0.70851,1.595074 c -0.54107,1.216567 -1.51949,2.345451 -2.30797,3.470994 -2.26175,2.477541 -5.27699,5.754281 -5.48816,5.93299 -0.065,0.05436 -0.12871,0.108782 -0.19369,0.163173 -6.20417,5.249227 -9.57554,7.856639 -12.55454,9.768074 -1.91061,1.224331 -13.79413,7.502535 -15.78721,8.615873 -0.87845,0.490628 -1.81189,1.01788 -2.80906,1.58731 -1.1696,0.669337 -2.02807,1.1977 -2.42418,1.519603 -0.57106,0.465099 -0.68727,1.022323 -0.39112,1.478529 0.84222,1.294267 7.81613,-0.179819 8.90451,-0.435118 6.59654,-1.547354 12.62952,-4.650937 17.99647,-8.463813 11.70233,-8.312845 15.03371,-14.389031 17.00805,-19.14874 2.223,-5.35912 3.21767,-11.668405 0.79098,-16.784432 -0.33614,-0.710403 -2.44168,-2.96705 -0.52482,-2.761692 0.19993,0.02105 0.37987,0.03331 0.54107,0.03438 0.8847,0.0111 1.06339,-0.627151 0.90594,-1.496285 -0.0587,-0.326345 -3.06022,-6.774375 -3.44384,-7.603553 -0.67478,-1.458551 -1.11463,-2.396511 -0.86346,-1.76824 -0.50358,-1.256533 -0.97968,-2.658472 -1.67569,-4.801896 -0.53482,-1.646142 -1.29082,-2.823864 -3.02649,-2.333236 -1.65069,0.46731 -1.86437,2.112342 -2.60038,4.68201 -0.97717,3.407729 -1.12462,5.092717 0.48734,7.709003 0.63854,1.035638 4.56597,9.280777 6.65902,14.961791 0.31239,0.848046 0.57481,1.527377 0.78099,2.092374 l 0.72475,1.985803 z M 15.55798,79.416092 c 1.50756,6.15025 4.31642,12.06049 8.83786,14.21433 9.30537,4.43517 10.11791,-11.35421 12.94302,-20.78209 0.61127,-2.04134 2.77386,-5.43022 4.22017,-6.61152 1.79757,-1.47006 4.41143,-2.96262 4.41143,-2.96262 0,0 0.26376,7.23529 1.2163,10.20416 1.68631,5.25771 10.74418,7.09654 14.40558,6.92778 2.64635,-0.1225 5.90024,-1.07379 7.54155,-2.20384 0.55878,-0.38626 1.10755,-0.83253 1.63757,-1.2938 l 4.79269,-4.16142 2.24884,2.02883 c 0.86504,0.78004 1.79008,1.75633 2.85637,2.48135 4.12266,2.80262 16.87443,2.36635 21.10335,-0.31501 3.10638,-1.97008 3.79015,-4.61268 5.34522,-8.50159 2.5351,-6.33901 4.80019,-7.20029 4.22142,-12.343 -0.73128,-6.48651 -6.27026,-16.30816 -12.09924,-17.2557 -4.87395,-0.79128 -9.83665,12.19925 -10.41042,17.94823 -0.18126,1.81257 0.49502,5.0477 1.35255,6.52276 0.58878,0.61753 1.03754,1.1738 1.35756,1.67007 0.32001,0.49627 3.10512,2.40135 6.48401,1.05879 3.38013,-1.34255 6.33775,-1.98008 7.12529,-0.75003 0.52127,0.81503 0.0825,1.69132 -1.1963,2.20509 0.52377,-0.21126 -3.21013,0.96004 -7.87782,1.41256 -5.48397,0.53252 -12.23924,0.18751 -15.90064,-5.34772 -0.025,-0.0375 -0.0462,-0.075 -0.0638,-0.11 -1.2363,-2.4476 -1.76383,-1.39006 -5.44397,2.00883 -4.10142,3.7864 -13.88556,4.23767 -18.477,2.03508 -3.01262,-1.44506 -6.53026,-4.18392 -7.59656,-7.24154 -1.62756,-4.67269 -0.39626,-8.54785 -4.22017,-7.55656 -3.27138,0.84754 -6.83277,5.71773 -8.16033,8.81536 -1.4438,3.37264 -3.65889,21.85338 -10.86043,20.15206 -1.35381,-0.31876 -3.13138,-1.57256 -4.45393,-2.93887 -3.29764,-3.40388 -3.99642,-19.8008 -3.80141,-24.8185 0.075,-1.93508 0.13626,-7.02528 0,-7.27404 -0.15375,-0.27751 -0.42501,-0.36127 -0.63627,-0.23376 -0.74003,0.44752 -0.72628,3.50014 -1.06505,5.59898 -2.5776,15.99314 -0.1125,26.29856 0.16251,27.41735 z m 89.97113,-22.88842 -3.32263,-0.21001 c -1.1138,-0.22251 -2.3851,-0.43752 -3.6089,-0.47002 -0.23501,0.0113 -0.45502,0.0125 -0.65127,-0.002 -0.93379,-0.065 -3.26764,-2.01008 -3.90266,-3.6914 -0.90629,-2.4026 0.98629,-3.52639 3.29638,-3.03262 2.18884,0.46627 4.54143,2.68261 6.25775,4.75894 l 1.93133,2.64761 z M 69.31265,20.071202 68.75638,9.2570118 c -0.0825,-1.60381 -0.11501,-1.88258 -0.32502,-2.79136 -0.64252,-2.78636 -2.37259,-4.31143 -4.18266,-5.29647 -2.3001,-1.25254996 -4.05642,-1.71756996 -6.42651,0.045 -1.95008,1.45005 -2.13384,6.70027 -1.36756,7.5203 0.57252,0.61252 2.08758,0.55752 3.92141,0.11875 4.58018,-1.09629 5.03895,-0.84378 6.2315,4.0939202 0.56752,2.34634 0.63378,4.54393 0.35501,6.90403 -0.59127,5.01145 -1.98258,7.4478 0.74378,10.38917 1.13505,1.22505 2.3201,1.41005 4.90895,0.86628 1.83883,-0.38626 2.20384,-1.2563 2.97512,-3.85265 0.54252,-1.82758 0.97254,-3.46514 0.83379,-5.28647 -0.27626,-3.61639 -4.11142,-10.41167 0.51002,-12.0992402 0.85378,-0.31251 1.96258,-0.10875 2.91887,0.10376 1.2888,0.2862602 1.50756,0.1562602 2.18633,-1.29755 0.55878,-1.1963 1.20505,-2.29635 1.56007,-3.5839 1.3338,-4.83018996 -0.70753,-6.194 -4.8052,-4.21516996 C 74.09409,3.1455018 71.98276,12.870902 72.98655,19.391162 c 0.30751,2.68761 0.64502,5.10771 0.64502,5.10771 0,0 -0.28126,-0.004 -0.61502,-0.0363 -1.3163,-0.1325 -3.5764,-1.91257 -3.7039,-4.39142 z m -8.84286,74.83604 5.09271,5.09271 7.32779,-7.3278 -7.32779,-7.32904 -5.09271,5.0927 -5.09145,-5.0927 -7.32905,7.32904 7.32905,7.3278 5.09145,-5.09271 z M 27.74722,60.227822 c -0.44002,2.21759 -1.55756,4.83019 -1.61131,5.0602 -0.0525,0.23251 -0.0838,0.44877 0,0.58753 0.0288,0.0462 0.0688,0.0838 0.11875,0.1125 3.04512,1.20255 2.88512,-8.52784 4.13642,-8.7666 1.11129,-0.84629 2.87886,-0.94379 4.09266,-1.72632 2.72261,-1.75382 2.75136,-6.58277 1.36631,-9.01037 -1.57131,-2.75261 -3.6739,-4.69269 -5.91899,-5.54272 -1.74382,-0.66003 -4.45643,-0.81003 -5.91774,0.72628 -0.52252,0.54877 -1.06004,1.2688 -2.30634,2.09008 -1.48631,0.97629 -1.69132,5.29647 -1.86758,6.92903 -0.001,0.01 -0.002,0.0188 -0.004,0.0288 -0.27251,2.49885 0.43502,4.65144 3.15013,5.46397 0.77503,0.23251 1.80257,0.30627 2.71761,0.46627 0.83753,0.14626 1.41256,0.19126 1.79757,0.23376 0.95754,0.10251 0.43627,2.38635 0.24626,3.34764 z m -2.26634,-9.19787 c -0.45877,-0.12501 -0.85378,-0.31377 -1.2738,-0.55003 -0.91629,-0.51627 -2.34635,-2.19133 0.0188,-2.29634 0.16751,-0.007 0.36251,0.02 0.57002,0.07 1.1813,0.28752 2.54136,0.93254 2.85137,2.11509 0.38251,1.45881 -2.73136,0.50752 -2.16634,0.66128 z m 4.9552,0.1525 c 0.58377,-0.23626 0.16626,-1.75257 0.015,-2.4951 -0.11625,-0.57252 0.49502,-0.27251 0.94129,-0.1425 0.51127,0.14875 0.88253,0.28126 1.13755,0.47251 0.47751,0.35752 0.80003,0.80004 0.91878,1.1938 0.33002,1.09255 -1.92133,1.30131 -2.46135,1.31631 -0.42251,0.0113 -0.69378,-0.0725 -0.55127,-0.34502 z m 102.17904,24.554065 c 1.10005,-1.56006 2.07134,-3.10012 2.54136,-4.39893 1.27505,-3.52139 0.88503,-7.66406 1.97008,-11.65047 0.97379,-3.57889 1.47506,-3.92516 0.94253,-6.74777 -0.84003,-4.45643 -4.77269,-11.2592 -8.25783,-14.03432 -1.3213,-1.05129 -6.43276,-3.08512 -8.07032,-2.20383 -1.93258,1.03879 -4.02017,6.49901 -4.59144,8.8166 -0.54127,2.19134 -2.5251,11.86423 -0.47002,15.11311 1.27755,2.01883 5.46147,3.20763 6.66027,3.14888 4.21017,-0.20501 13.65305,-6.87028 11.63922,-0.71628 -0.86379,1.26255 -3.21263,4.04891 -5.85899,7.09279 -5.25521,6.04649 -7.5278,8.56909 -14.46808,13.07802 -12.92052,8.39409 -25.40728,10.36292 -32.98008,14.51434 -3.61015,1.98008 -0.47127,1.75882 7.12154,1.59256 0.96628,-0.0213 1.71381,0.12876 2.43884,0.28126 2.97762,0.625023 6.149,0.437513 9.22163,-0.29501 10.87168,-2.59385 27.30235,-16.69942 32.16129,-23.59095 z m -5.0552,-23.92222 c 0,0 -2.23634,0.18876 -3.7589,0 -1.39381,-0.1725 -2.18884,-0.66002 -3.18763,-1.25255 -1.34505,-0.79878 -1.49756,-0.91378 -1.52006,-1.14004 -0.17626,-1.72507 2.13008,-2.29634 3.51389,-2.01508 0.84628,0.1725 4.71644,1.4138 4.9527,2.89636 0.095,0.60003 0,1.51131 0,1.51131 z M 106.63291,34.110512 c 2.34259,-1.06879 4.34267,-1.94633 6.14399,-2.81011 4.55019,-2.18009 7.58781,-4.19392 11.33546,-8.17283 0.97879,-1.04129 2.00758,-2.22009 3.11388,-3.57139 0.58752,-0.71753 1.11379,-1.41006 1.56256,-2.05884 0.69503,-1.00254 1.45506,-1.99508 2.09883,-2.67136 0.35752,-0.37501 0.74754,-0.78503 0.75754,-0.79503 1.19004,-1.25005 3.38263,4.16142 3.47889,4.67019 0.36626,1.94008 -0.16626,3.87016 0.92378,-0.145 0.99629,-3.66765 -0.47502,-5.40522 -2.10133,-8.21784 -0.39252,-0.6775202 -0.64503,-1.1137902 -0.64503,-1.1137902 l 0.70628,-2.79261 c 0.19251,-0.76128 0.38377,-1.55007 0.43002,-2.25885 0.17751,-2.6801 -1.39131,-4.63017996 -3.42514,-4.07890996 -1.56881,0.42502 -3.03012,2.68760996 -3.82015,4.85394996 -1.25255,3.43138 -0.48377,6.6340102 2.69885,7.3165402 0.59253,0.12751 0.54753,0.33126 -1.43005,2.4001 -0.14751,0.17626 -0.28001,0.31751 -0.42627,0.46877 -0.59127,0.60502 -1.21005,1.23755 -1.85508,1.89007 -8.7266,8.79911 -10.79668,9.09662 -19.65204,15.61938 -2.20634,1.62507 -4.53268,3.5814 0.10501,1.46756 z M 131.00764,7.0231718 c -1.1663,-0.44252 -2.5726,-1.71882 -2.24634,-2.4426 0.0725,-0.16376 0.18751,-0.31376 0.33001,-0.45002 1.00754,-1.2363 3.86391,-0.0937 3.36639,2.73886 -0.55127,3.1426302 -0.85379,0.38002 -1.45006,0.15376 z M 94.73493,12.495892 c 0.19875,2.80011 1.48131,4.54268 3.8139,5.0452 3.00762,0.64878 4.70894,-1.01504 5.48022,-4.37892 0.16876,-0.73753 0.13126,-1.35256 -0.33501,-1.65007 -0.88629,-0.56377 -3.32014,0.0225 -4.49643,-0.61502 -1.46506,-0.79254 -1.83633,-4.1626702 -1.47506,-5.7377402 0.36251,-1.57631 1.28755,-3.26513 1.53881,-4.48017996 0.0512,-0.24626 0.0738,-0.47252 -0.0312,-0.59877 -0.0125,-0.0163 -0.0263,-0.0312 -0.04,-0.045 -3.54015,-0.82379 -4.40143,13.21678016 -4.45518,12.46050016 z m -23.10469,26.12731 c -0.84628,-0.84629 -1.76007,-1.42381 -2.6326,-1.55257 -1.27755,-0.19 -1.37256,0.44127 -1.66132,2.3826 -0.1025,0.68128 -0.23126,1.3713 -0.18876,2.06508 0.0587,0.93629 0.16876,1.0788 1.10255,1.43006 0.52877,0.19876 1.05879,0.51002 1.57131,0.90129 3.79015,2.90136 3.6964,4.9402 4.10142,9.66789 0.30126,3.50764 0.56127,6.90778 0.81503,3.8639 0.36876,-4.42268 1.62131,-14.02681 -3.10763,-18.75825 z M 16.42101,90.83169 c 0.0338,-0.18751 0.0763,-0.44002 0.007,-0.56752 -0.12875,-0.23751 -0.63877,-0.0412 -1.15004,0.21376 -1.44131,0.71878 -2.89762,1.90382 -4.35018,2.74511 -0.65877,0.38126 -1.40255,0.76503 -2.18384,1.06254 -2.26009,0.86254 -5.75148,1.20005 -4.28142,-2.09883 0.79628,-1.78633 3.23888,-3.6164 3.82641,-5.05771 0.31626,-0.77253 -0.13876,-2.83761 -1.1563,-3.38138 -1.40506,-0.75004 -4.48018,0.86503 -5.25771,1.75382 -1.03129,1.18004 -2.4551,4.28017 -1.62632,4.67393 0.44252,0.20876 1.60507,-0.61002 2.67136,-0.87378 0.45252,-0.11251 0.88754,-0.12501 1.03879,0.0738 0.16501,0.21751 -0.0137,0.68878 -0.26501,1.1838 -1.57256,3.09637 -4.05766,5.13396 -3.44639,7.24654 1.83258,6.32526 11.46921,-2.74261 14.9206,-5.67398 1.0813,-0.91878 1.2063,-1.04879 1.25255,-1.30005 z m 75.77631,-60.525078 5.09271,5.09146 7.32779,-7.3278 -7.32779,-7.32905 -5.09271,5.09271 -5.09145,-5.09271 -7.32905,7.32905 7.32905,7.3278 5.09145,-5.09146 z" />
</svg>
