<?xml version="1.0" encoding="UTF-8" standalone="no"?>
<svg>
  <path
     d="m 68.082158,56.754543 2.645,0 c 1.18875,0 1.35625,-0.0825 1.67126,-0.8225 1.16125,-2.72375 4.94625,-4.145 6.31875,-2.725 0.705,0.73 -2.83875,5.28625 -4.6925,8.5125 -0.16125,0.28125 -0.28,0.50625 -0.3125,1.065 -0.025,0.4325 0,1.06375 0,1.06375 l 0.625,0 c 0,0 -0.0538,0.445 0,0.71 0.135,0.6525 0.93625,0.195 1.61125,-0.30125 2.58,-1.895 6.60375,-9.09125 7.1475,-13.03625 0.22125,-1.60875 -0.0425,-2.25 -0.93875,-3.68875 -2.69625,-4.33125 -4.1725,-3.1775 -9.07125,-1.06375 -3.05876,1.31875 -4.77251,3.0675 -5.00376,7.44875 -0.0675,1.2775 0,2.8375 0,2.8375 z m 34.643762,-14.0125 0,-6.62501 c 0,-1.91625 -0.0875,-2.31875 -0.87125,-4.025 -1.29625,-2.82125 -7.918752,-10.81625 -8.512502,-11.34125 -2.5875,-2.29 -4.445,-0.0825 -5.00375,3.12125 -0.9475,5.42375 1.08875,4.1275 6.88125,9.6475 2.68875,2.56375 4.1675,6.84001 4.02125,11.30626 -0.17125,5.24 -1.1675,9.1025 2.858752,11.75 1.22875,0.8075 5.73125,1.6725 7.09376,1.06375 1.8075,-0.80625 4.08875,-6.9275 3.54125,-8.75375 -0.89125,-2.97125 -4.53626,-5.26125 -7.09001,-5.72875 -1.21125,-0.22125 -2.91875,-0.415 -2.91875,-0.415 z m 23.96751,-30.57001 2.645,0 c 1.18875,0 1.35625,-0.0825 1.67125,-0.8225 1.16125,-2.7249997 4.94625,-4.1449997 6.3175,-2.7249997 0.70625,0.73 -2.8375,5.2862497 -4.69125,8.5124997 -0.16125,0.28125 -0.28,0.50625 -0.3125,1.06375 -0.0262,0.4325 0,1.065 0,1.065 l 0.625,0 c 0,0 -0.0537,0.445 0,0.70875 0.135,0.65375 0.93625,0.19625 1.61125,-0.30125 2.58,-1.89375 6.60375,-9.09 7.14625,-13.0349997 0.2225,-1.61 -0.0425,-2.25 -0.9375,-3.68875 -2.69625,-4.33251 -4.1725,-3.17750997 -9.07,-1.065 -3.06,1.32 -4.77375,3.0675 -5.005,7.44875 -0.0675,1.2787497 0,2.8387497 0,2.8387497 z m -106.392532,36.15376 2.64625,0 c 1.1875,0 1.355,-0.0825 1.67,-0.8225 1.16125,-2.72375 4.94625,-4.145 6.31875,-2.725 0.705,0.73 -2.83875,5.28625 -4.6925,8.5125 -0.16125,0.28125 -0.27875,0.50625 -0.3125,1.065 -0.025,0.43125 0,1.06375 0,1.06375 l 0.62625,0 c 0,0 -0.055,0.445 0,0.70875 0.13375,0.65375 0.935,0.19625 1.61125,-0.3 2.57875,-1.895 6.6025,-9.09125 7.14625,-13.03625 0.22126,-1.60875 -0.0425,-2.25 -0.93875,-3.68875 -2.69625,-4.33126 -4.17125,-3.17751 -9.07,-1.06375 -3.05875,1.31875 -4.77375,3.0675 -5.005,7.44875 -0.0675,1.2775 0,2.8375 0,2.8375 z m 11.9775,-27.72251 -0.51375,-11.0999997 c -0.075,-1.6475 -0.105,-1.93375 -0.29875,-2.86625 -0.59375,-2.86 -2.19,-4.42625 -3.85875,-5.43625 -2.1225,-1.28624997 -3.7425,-1.76375997 -5.93,0.0462 -1.79875,1.48875 -1.96875,6.87625 -1.26125,7.71875 0.5275,0.62875 1.925,0.5725 3.6175,0.1225 4.225,-1.12625 4.64875,-0.86625 5.75,4.2012497 0.5225,2.40875 0.585,4.665 0.3275,7.0875 -0.54625,5.14375 -1.83,7.645 0.685,10.665 1.0475,1.25625 2.14125,1.44625 4.53,0.88875 1.69626,-0.39625 2.03376,-1.29 2.74501,-3.955 0.5,-1.87625 0.89625,-3.55625 0.76875,-5.4275 -0.255,-3.71125 -3.79251,-10.68625 0.47125,-12.41875 0.7875,-0.3199997 1.81,-0.11125 2.6925,0.10625 1.18875,0.29375 1.39,0.16125 2.0175,-1.3312497 0.515,-1.2275 1.11125,-2.3575 1.43875,-3.67875 1.23125,-4.95874997 -0.65375,-6.35751 -4.43375,-4.32624997 -4.33625,2.32999997 -6.28376,12.31249967 -5.3575,19.00499967 0.28375,2.75875 0.595,5.24375 0.595,5.24375 0,0 -0.26,-0.004 -0.56875,-0.0387 -1.21376,-0.135 -3.29876,-1.9625 -3.41626,-4.50625 z m 44.83252,0 -0.51375,-11.0999997 c -0.0763,-1.6475 -0.10625,-1.93375 -0.3,-2.86625 -0.5925,-2.86 -2.19,-4.42625 -3.85875,-5.43625 -2.12251,-1.28624997 -3.74251,-1.76375997 -5.93001,0.0462 -1.79875,1.48875 -1.9675,6.87625 -1.26,7.71875 0.5275,0.62875 1.925,0.5725 3.61625,0.1225 4.22626,-1.12625 4.65001,-0.86625 5.75126,4.2012497 0.5225,2.40875 0.58375,4.665 0.32625,7.0875 -0.54625,5.14375 -1.83,7.645 0.68625,10.665 1.04625,1.25625 2.14,1.44625 4.52875,0.88875 1.6975,-0.39625 2.03375,-1.29 2.745,-3.955 0.50125,-1.87625 0.8975,-3.55625 0.76875,-5.4275 -0.25375,-3.71125 -3.7925,-10.68625 0.4725,-12.41875 0.78625,-0.3199997 1.81,-0.11125 2.6925,0.10625 1.18875,0.29375 1.39,0.16125 2.0175,-1.3312497 0.515,-1.2275 1.11125,-2.3575 1.43875,-3.67875 1.23,-4.95874997 -0.65375,-6.35751 -4.43375,-4.32624997 -4.33625,2.32999997 -6.28375,12.31249967 -5.3575,19.00499967 0.28375,2.75875 0.59375,5.24375 0.59375,5.24375 0,0 -0.25875,-0.004 -0.5675,-0.0387 -1.21375,-0.135 -3.3,-1.9625 -3.41625,-4.50625 z m -21.39626,80.650017 5.94125,6.7375 7.03625,-7.97875 -7.03625,-7.978747 -5.94125,6.7375 -5.94125,-6.7375 -7.03625,7.978747 7.03625,7.97875 5.94125,-6.7375 z m 87.297522,-47.360007 0,1.06375 c 0,0 -1.55875,0.0675 -2.8125,0 -1.78375,-0.0962 -3.18875,-0.4875 -3.88125,-1.2225 -1.62125,-1.7225 1.0075,-2.98375 2.225,-2.855 1.08875,0.115 2.5275,0.96625 3.22375,1.51 1.12,0.875 1.245,1.02625 1.245,1.50375 z m -5.1225,12.3575 c 1.57875,0 1.78375,0.01 2.04875,0.105 0.19875,0.0713 0.4075,0.0825 0.61375,0.0937 0.96125,0.0512 1.85875,0.0688 2.69375,-0.19875 2.73251,-0.8775 4.02876,-3.615 5.61376,-1.67375 0.5675,0.69625 1.9925,4.91125 1.7675,5.925 -0.52375,2.3575 -10.56876,8.47876 -11.22126,8.85251 -3.565,2.0425 -7.1975,3.6725 -10.74625,5.4975 -3.765,1.93625 -20.64751,7.98625 -26.41376,9.57875 -4.085002,1.1275 -10.637502,1.4675 0.0587,4.07 15.58876,3.793747 17.87376,0.84125 33.85501,-8.27375 8.43875,-4.815 15.97001,-9.8025 18.08751,-20.99876 0.9825,-5.195 1.0475,-11.87375 1.0575,-14.27 0.007,-1.795 -0.0713,-2.00625 -0.79375,-2.115 -3.42375,-0.5125 -2.37375,-3.49625 -4.17625,-7.1875 -1.72375,-3.5275 -7.51251,-6.8925 -10.65001,-5.97875 -4.0175,1.16875 -6.6525,7.9525 -7.80875,14.15875 -1.44,7.72625 -1.89125,12.415 6.01375,12.415 z m 30.63376,20.34751 6.12375,-12.70625 c 0.54375,-2.95501 2.1075,-5.61126 1.205,-10.48126 -0.4225,-2.28125 -1.96625,-4.275 -1.40875,-6.2125 0.11625,-0.40375 0.21125,-0.4575 0.9575,-0.53125 2.77375,-0.2775 2.15125,-2.1775 0.325,-5.33 -2.0525,-3.54375 -6.46125,-9.635 -6.46125,-9.635 0,0 -3.6825,4.6425 -4.56125,8.3075 -0.44375,1.84625 3.10125,8.395 4.3475,13.08875 0.63625,2.39375 0.43,11.24876 -1.46375,14.62876 -0.87,1.55 -2.35,3.32375 -4.06875,5.09625 -14.28125,14.72625 -17.31375,12.2575 -34.36001,21.206247 -8.605,4.51875 -4.7175,1.88 3.45,3.68 2.33,0.5125 10.50875,0.29 12.52125,-0.38875 3.38251,-1.14125 9.25001,-5.07125 12.57251,-8.314997 4.66,-4.55125 10.79625,-12.44125 10.79625,-12.44125 0,0 0.007,0.01 0.025,0.0338 z m -5.4725,-76.18627 c -0.9675,0.8525 -1.585,0.90125 -1.9125,0.2975 -0.39375,-0.7249997 -0.77375,-3.8562497 0.5825,-3.9424997 0.75,-0.0475 1.7125,0.785 2.03125,1.075 1.3975,1.2725 -1.34,3.1337497 -0.70125,2.5699997 z m -4.8375,-5.5599997 c -0.3525,1.715 -1.08625,4.9125 -1.115,6.9312497 -0.0325,2.295 0.84125,3.07 0.8225,3.96375 -0.0112,0.51375 -9.09125,5.5475 -16.83251,9.51 -6.6,3.38 -16.9475,8.25375 -24.1925,9.44 -0.28375,0.0462 -0.5925,0.0975 -0.92125,0.155 -24.848762,4.31376 -11.82501,4.57876 -3.4475,4.88751 10.185,0.375 21.2875,-4.15501 32.29875,-9.79501 6.14001,-3.14625 11.49001,-6.54625 14.50751,-9.6675 0.22125,-0.23 0.4375,-0.44125 0.65125,-0.63 l 2.4175,-2.14 2.28625,2.4875 c 1.15875,1.26125 1.435,3.165 1.65375,5.20125 0.0425,0.395 0.0825,0.7825 0.1275,1.15 0.3525,2.9075 -0.95375,7.1375 3.28375,0.91875 0.9825,-1.90875 1.3525,-4.56875 0.79375,-5.91 -0.4025,-0.965 -1.32375,-2.0925 -2.16875,-3.3325 -1.00375,-0.88625 -1.72375,-1.6375 -2.23,-2.3075 l -1.465,-1.94 0.78,-2.91125 c 0.15625,-0.58125 0.24375,-0.9087497 0.32875,-1.2599997 0.21625,-0.905 0.55375,-1.9325 0.91625,-3.29 1.135,-4.25625 -0.6425,-7.11500997 -3.98375,-6.11124997 -1.025,0.3075 -4.0375,2.35374997 -4.51125,4.64999997 z M 54.117158,63.353293 l 0.9375,0 0,7.10875 c 0,1.79375 0.0225,2.19125 0.2275,3.97501 0.68,5.9475 2.07625,9.20625 6.86375,11.7125 3.30625,1.73125 7.96,1.805 11.01626,-0.0137 0.74375,-0.4425 1.54375,-1.03125 2.34625,-1.61875 l 4.20125,-3.07875 1.8275,1.57875 c 0.695,0.6 1.44375,1.3925 2.2225,1.9275 1.9075,1.31125 7.90625,2.59375 9.8425,2.325 2.15125,-0.2975 4.2075,-1.49375 6.205,-3.075 1.188752,-0.94 2.215002,-2.01375 3.171252,-3.01375 l 4.88625,-5.1025 5.70626,4.8625 c 1.03,0.8775 2.05875,1.73625 2.995,2.3425 3.6675,2.37875 5.95625,2.22375 7.78125,-0.77625 3.81875,-6.27625 5.90125,-10.96876 4.52,-18.50251 -0.82125,-4.4825 -3.01,-11.11625 -3.01,-11.11625 0,0 -1.64375,2.4775 -2.8475,4.48625 -2.175,3.62625 -2.68875,5.11625 -2.14125,7.38375 1.43625,5.94875 4.8075,10.88376 1.32125,9.88876 -1.98375,-0.56625 -5.04,-2.62876 -7.38125,-4.98251 -1.96125,-1.97 -4.19625,-4.62375 -4.19625,-4.62375 0,0 -2.71501,4.605 -5.17751,7.28125 -1.265,1.37626 -5.485002,3.53376 -7.146252,3.65376 -1.61375,0.1175 -3.6325,0.035 -6.3275,-0.99625 -1.98625,-0.76125 -4.68625,-2.10001 -4.68625,-2.10001 0,0 0.945,-4.26625 0.58625,-5.54 -0.1875,-0.66375 -0.79875,-0.4925 -1.40625,0 -1.015,0.8225 -2.05125,2.42 -3.28,3.65375 -4.16125,4.17626 -12.01376,6.14376 -16.40376,3.98626 -1.3975,-0.6875 -2.67625,-1.58501 -3.7525,-2.76501 -3.23125,-3.53875 -4.555,-48.74626 -4.98875,-53.39376 -0.0162,-0.175 -0.0312,-0.35625 -0.0462,-0.54375 -0.4275,-5.7625 0,-18.20374967 0,-18.20374967 0,0 -0.93625,-0.165 -1.405,0 -0.33875,0.11875 -0.4325,0.41125 -0.56125,0.72625 -0.39375,0.97374997 -1.11125,2.17874997 -1.68375,3.37374997 -4.1025,8.5749997 -1.13625,18.1799997 -0.45,28.4524997 0.0862,1.29375 0.13,2.56 0.0812,3.8025 -0.22625,5.78376 -0.72125,26.69376 -7.69125,26.92501 -1.51125,0.0512 -3.19125,-0.0625 -4.92625,0 -3.08875,0.1125 -12.66751,1.93875 -16.16876,4.9825 -2.55875,2.22625 -4.58125,11.11751 -5.0475,15.22501 -0.2025,1.78375 -0.135,2.07375 0.67,2.905 1.01375,1.045 4.12625,2.6675 4.565,2.7975 1.75375,0.51875 3.83875,-0.12375 6.4025,-0.44375 2.5525,-0.3175 7.74126,0.395 8.05501,1.1075 0.51375,1.16125 -1.15375,2.525 -3.00125,3.49625 -7.14126,3.755 -20.40001,3.2325 -25.70376,-2.5 -0.1075,-0.11625 -0.21375,-0.23625 -0.31875,-0.36 -9.96249953,-11.735 -2.6712495,-34.69501 -5.9187495,-27.86501 -6.06125,12.75001 -7.07376,25.33126 0.38,37.526257 3.555,5.81625 11.2174995,8.3875 18.1724995,7.64 2.705,-0.29125 10.48875,-2.80375 14.97126,-5.765 2.31875,-1.53125 2.1,-1.7125 3.33,-4.353747 1.785,-3.83 4.565,-10.09 4.505,-9.835 0.55375,-2.3625 0.88875,-4.67 0.61375,-5.5175 -0.6125,-1.88625 -2.9475,-3.43375 -4.80125,-4.215 -1.61625,-0.68125 -4.23375,-1.59 -4.23375,-1.59 0,0 2.95375,-0.62 5.2275,-1.27625 4.64,-1.34125 8.77625,-4.32751 10.1625,-10.11626 0.39625,-1.6575 0.4875,-1.8425 0.90875,-1.8425 z M 173.35719,7.9657833 c 0.325,0.2475 0.5725,0.58125 0.84375,0.915 1.0575,1.3049997 2.4675,2.6187497 3.50625,4.1299997 0.9775,1.4225 1.0775,1.78125 0.9925,3.5775 l -0.54,11.43375 c 0,0 0.91625,0.0763 1.41,0 1.31375,-0.20125 1.86625,-6.58375 2.115,-8.86125 0.87625,-7.98 0.0375,-11.5199997 -2.9375,-15.7899997 -0.98375,-1.41375 -2.72625,-3.17874997 -3.8775,-3.33124997 -0.65375,-0.0875 -1.41,0 -1.41,0 l 0,1.33249997 -0.5875,0 c 0,0 0,4.22375 0,4.22375 0,1.79875 0.0487,2.03625 0.485,2.37 z"
     style="fill:#000000;stroke:none" />
</svg>
