<?xml version="1.0" encoding="UTF-8" standalone="yes"?>
<svg>
<path
	style="stroke:none; fill:#000000"
	d="m 84.99139,43.89533 -4.881,4.849 c -0.811,0.806 -0.927,0.951 -1.154,1.447 -0.318,0.695001 -0.428,1.857001 -0.271,2.015001 0.505,0.51 2.293,-0.728 2.915,-1.187 5.449,-4.019001 7.931,-6.550001 8.812,-11.753003 0.448,-2.645 -0.952,-3.669 -3.431,-4.006 -3.931,-0.536 -7.832,0.012 -9.36,2.972 0.239,11.301002 0.574,4.838002 3.908,4.036002 3.709,-0.892 7.697,-2.875002 3.462,1.627 z m -15.5239,-2.958752 5.862,-5.862 -5.862,-5.863 -5.863,5.863 5.863,5.862 z m 19.743,33.246715 4.074,4.073 5.862,-5.862 -5.862,-5.863001 -4.074,4.074 -4.073,-4.074 -5.863,5.863001 5.863,5.862 4.073,-4.073 z m 7.0778,-43.480342 c -0.3691,-0.255401 -0.6363,-0.431903 -0.6745,-0.50622 -1.018,-1.739066 0.1146,-3.147523 1.7816,-4.707286 1.3362,-1.241499 2.876,-2.25623 3.4868,-2.643848 5.0647,-3.200206 18.1593,-11.260536 20.2844,-11.876446 0.4836,-0.14252 0.929,-0.21888 1.1453,0 0,10e-4 0,0.004 0.013,0.005 0.064,0.0305 -1.387,3.4117 -2.0615,5.581401 -0.8017,2.640539 0.1654,1.000223 1.2344,-0.155251 1.7943,-1.93936 4.543,-4.72243 4.6957,-4.85477 1.3616,-1.17329 2.9014,-2.2053298 4.543,-2.7996098 0.6999,-0.47848 1.438,-0.88188 2.2269,-1.19365 1.1835,-0.46448 3.2069,-1.08549 4.0595,-2.50565 -0.3691,0.60828 3.1941,-5.13347004 0.7253,-5.04566002985 C 137.22649,0.01876117 136.60289,0.13712118 135.90299,0.32801118 124.95909,3.2955912 106.50709,12.371411 97.15389,19.907446 c -1.7052,1.373335 -3.0287,2.677061 -3.6777,3.786851 -1.5652,2.713329 -1.0562,5.630648 0.4454,9.172661 0.5091,1.169472 2.6088,4.546944 4.0213,2.302931 1.7434,-2.778992 -1.2471,-4.168616 -1.6543,-4.467028 z m 10.8362,14.799592 c -0.2418,-0.09086 -0.6363,0.03601 -1.1962,0.161995 -5.841,1.271531 -3.0923,-6.077439 -1.1707,-10.149087 0.6617,-1.387588 2.4941,-4.806163 0.6235,-2.734581 -2.3033,2.553243 -4.4285,6.777342 -4.7466,10.761693 -0.1273,1.739447 0.076,3.345276 0.8271,4.51933 1.1072,1.702289 3.6904,1.861994 4.8739,1.076449 1.5398,-1.015239 1.3107,-3.434991 0.789,-3.635799 z m -58.9513,-0.552132 c -0.2672,-0.103203 -0.7126,0.04098 -1.3489,0.184011 -6.6427,1.442943 -3.5122,-6.897979 -1.3235,-11.519368 0.7509,-1.574652 2.8251,-5.454909 0.6999,-3.103747 -2.6087,2.897976 -5.0265,7.692304 -5.3828,12.214561 -0.1527,1.974233 0.089,3.796905 0.9417,5.129264 1.2471,1.932238 4.1866,2.113703 5.5355,1.221901 1.7434,-1.152293 1.4762,-3.898708 0.8781,-4.126622 z m 72.0365,-19.115973 c -0.7126,-1.076704 -1.5398,-1.96418 -2.4815,-2.540899 -1.1453,-0.701047 -2.6214,-1.227373 -2.6087,1.068941 0,0.08933 0.013,0.179684 0.013,0.270162 0.025,1.14135 -0.4326,3.941594 1.1835,4.675218 2.2651,1.03331 3.4995,3.205678 4.1867,5.221651 1.5907,6.481982 1.9724,6.488218 2.1124,4.692651 0.076,-0.904909 0.1273,-1.740847 0.14,-2.507812 0.1018,-4.276019 -0.3054,-7.468081 -2.5451,-10.879912 z m -16.5406,-10.491085 c 0.2545,0.21506 0.4581,0.36268 0.6362,0.44539 0.9163,0.41867 1.1962,-1.44689 1.298,-2.55273 0.1655,-1.64032 0.2545,-3.07448 0.8781,-4.2070499 0.5217,-0.93278 1.2089,-1.45961 2.1124,-1.53469 1.9979,-0.16671 2.1761,-0.1578 2.4433,-4.4144801 0.1527,-2.34912009 -0.1654,-3.66748004 -2.9014,-2.82378009 -2.3033,0.71263 -4.2758,2.61000009 -4.6193,4.54173009 -0.8781,5.0354701 -0.9672,1.9164501 -2.3924,-1.01168 -0.9417,-1.9457301 -2.4942,-2.7741601 -4.5812,-2.2855001 -0.1145,0.0305 -0.2291,0.0662 -0.3436,0.10562 -1.8961,0.6579101 -2.2906,3.9436302 -1.6034,6.4161902 0.8271,2.9904899 2.6087,3.5669599 4.4921,3.3747999 1.3362,-0.13616 2.087,0.57392 2.456,1.12876 1.5907,2.3733 1.3235,2.1277 2.1252,2.81742 z m 7.6539,63.376187 c 0.3945,-0.767093 0.3945,-1.24519 1.0307,-1.067796 0.8527,0.240893 1.3999,1.320142 1.8198,2.171477 0.4708,0.964847 0.8399,1.752555 1.7052,1.478957 0.7381,-0.229695 1.5907,-1.430091 2.4306,-1.962398 0.7253,-0.468171 2.5833,0.63971 3.2704,0.975409 0.929,0.450482 2.2143,1.078358 2.2143,1.078358 0.1018,0.04988 0.1908,0.09455 0.2799,0.134381 4.2376,2.049058 2.4815,-6.465058 2.0488,-7.927471 -0.9289,-3.120163 -1.6925,-2.598672 -2.8123,1.212485 -0.14,0.488531 -0.2036,0.755512 -0.4327,0.837464 -0.6617,0.234276 -2.7741,-1.040691 -3.9576,-1.087266 -0.3563,-0.014 -0.6235,0.08335 -0.929,0.365731 -0.8144,0.779054 -1.2852,1.922567 -1.7688,1.366717 -0.369,-0.410269 -0.649,-1.745173 -1.0689,-2.364268 -0.14,-0.203863 -0.3436,-0.389019 -0.5727,-0.549996 -0.929,-0.629785 -2.5578,-1.138295 -3.2068,0.177393 -0.2545,0.535616 -0.5345,1.235136 -0.8526,1.773297 -0.025,0.0439 -0.051,0.08768 -0.076,0.131327 -5.0393,8.003315 -16.3777,8.19318 -23.0331,9.450328 -3.245,1.06207 -1.4125,1.64859 3.614,2.37063 7.4953,1.07505 18.0575,-4.127508 20.2972,-8.564759 z M 73.11519,55.804133 c 0.051,0.214042 0.089,0.61744 0,0.890148 -0.1273,0.412178 -2.9015,-0.03232 -4.823,-0.617568 -1.8961,-0.582064 -4.683,-1.517515 -3.2832,-3.554611 1.5271,-2.232051 3.1178,-1.467504 5.1793,-0.22855 0.8526,0.50622 2.5833,2.028825 2.9269,3.510581 z M 68.2,43.382245 c -4.4371,0.192411 -5.43998,7.342974 -6.05,14.2 -0.2418,2.802917 -0.2202,4.160699 1.625,5.250001 1.0562,0.619095 2.1783,1.155136 3.4,1.225 2.4432,0.138961 6.3835,0.401008 8.025,0.725 2.9142,0.577609 -2.1276,4.30515 -4.8,6.025 -13.8071,8.883024 -33.35979,10.963429 -46.85,8.45 C 10.05979,76.743817 4.96739,70.846087 0,63.932246 c 0.35688,4.39961 1.53955,7.530212 3.125,10.25 3.38489,6.717152 10.4565,10.257896 17.85,11.95 13.769,3.157833 33.325,0.406824 46.025,-6.8 5.052,-2.868832 9.5156,-6.929912 10.75,-13.425 0.1145,-0.562976 0.2332,-1.140819 0.475,-1.525 0.14,-0.22575 0.6751,-0.371856 1.375,-0.5 3.4868,-0.642128 7.3253,-1.135491 9.425,-5.150001 1.7689,-3.386761 1.1195,2.407408 3.55,4.275001 0.2164,0.162376 0.4459,0.313456 0.675,0.45 3.6904,2.129865 10.0491,2.857603 13.625,0.15 0.8526,-0.643528 2.50531,-1.757964 2.50531,-1.757964 0,0 1.38169,0.987311 2.11969,2.032964 2.1379,3.03872 5.68951,2.616157 8.4,0.625 1.0435,-0.760857 2.65,-1.15 2.65,-1.15 0,0 2.79531,2.197307 5.175,4 5.9555,4.522 10.7711,-4.04004 8.875,-12.750001 -0.25449,-1.191741 -0.6055,-2.429858 -1,-3.75 -0.76349,-2.587092 -1.3529,-5.264731 -2.6,-4.25 -1.5398,1.245698 -2.304,5.279585 -2.075,7.25 0.089,0.757294 0.25871,1.734957 0.475,2.725 0.9163,4.032708 2.0341,4.990705 -1.3,2.75 -1.3616,-0.915599 -2.9238,-2.057004 -3.7,-2.875 -0.1654,-0.180701 -0.2859,-0.361594 -0.375,-0.575 -0.3308,-0.890657 -0.0692,-2.027297 -1.125,-1.425 -0.57269,0.3245 -0.9141,1.394881 -1.525,2.1 -1.527,1.738938 -3.8798,1.934892 -5.725,1.8 -0.97989,-0.0719 -1.8129,-0.07238 -2.5,-0.7 -1.3108,-1.207521 -2.3652,-5.416201 -3.625,-4.65 -0.6236,0.380365 -1.3237,2.014917 -2.1,2.725 -1.5143,1.407821 -5.5684,2.153389 -6.65,2.075 -5.2175,-0.377947 -9.3992,-1.995795 -10.15,-8.575 -0.1399,-1.225847 -0.5192,-3.949047 -1.55,-3.375 -1.3743,0.768874 -1.4824,3.975717 -1.775,5.325 -0.8272,3.762928 -5.5106,5.112508 -9.15,5.225 -1.0181,0.03143 -2.2,0 -2.2,0 0,0 -0.7001,-3.258774 -1.4,-5.275 -1.0562,-3.053863 -2.6257,-5.535686 -4.7,-6.675 -1.42684,-0.785171 -2.62606,-1.119403 -3.65,-1.075 z m 5.06789,-36.3193253 0,-0.4352101 c 0,-0.3894 0.013,-0.45558 0.1399,-0.65409 0.649,-1.0893 1.7053,-0.94423 2.3797,-0.37922 1.0562,0.89969 1.3489,1.3845301 1.2089,2.7970601 -0.064,0.61082 -0.1018,0.69227 -0.3181,0.80807 -0.8653,0.44157 -2.3288,-0.32832 -3.0668,-1.26491 -0.3055,-0.3945 -0.3436,-0.48103 -0.3436,-0.8717 z m 1.4379,13.7257103 c 0.5981,-0.93023 1.069,-1.78029 1.3108,-2.40002 0.2163,-0.56629 0.4326,-1.22292 0.6235,-1.78666 0.509,-1.54361 1.2217,-0.72281 1.9597,1.16947 0.7254,1.86556 0.8018,4.2834 1.2471,5.92626 0.5345,1.953362 1.7562,2.86069 3.245,2.896321 3.4741,0.08144 4.2885,-0.894602 4.9121,-4.172688 0.649,-3.419343 0.6744,-4.959123 -0.9035,-6.254583 -1.8198,-1.5016 -3.3341,-2.05134 -3.525,-1.17838 -0.4072,1.76121 -0.076,3.08721 0.7508,4.17778 1.1326,1.48507 1.3489,1.98263 -0.5981,2.36822 -0.649,0.12598 -1.3234,0.14507 -1.6288,0.0522 -1.5526,-0.46702 -1.4762,-2.31986 -1.6289,-4.72752 -0.089,-1.26364 -0.28,-2.4802 -0.8017,-3.61658 -0.1273,-0.27742 -0.2545,-0.52302 -0.3691,-0.7419 -0.9162,-1.75357 -1.1198,-1.25855 -0.6235,-3.2946303 0.5217,-2.14933 -0.064,-6.1425901 -1.158,-7.4545902 -1.0435,-1.25727998 -2.6342,-2.13660994 -3.8686,-1.58177998 -0.3181,0.14125 -0.5726,0.42121 -0.8017,0.78135 -2.1251,3.31880008 -2.3669,9.29088048 0.42,12.10830048 0.2036,0.2087 0.4072,0.4174 0.6108,0.6121 1.5907,1.59832 -5.2811,10.016229 -6.6045,11.002455 -2.367,1.748482 -2.2525,2.545098 -0.9417,2.68126 3.614,0.06465 5.9046,-3.281903 8.3733,-6.566355 z M 40.125,65.150842 c 2.227,1.860592 4.5613,1.4346 7.45,1.175 0.6618,-0.05917 1.4023,-0.134824 1.975,-0.3 3.86849,-1.10012 5.4397,-3.466951 6.025,-6.750001 1.11989,-14.463663 -2.20691,-32.900978 -2.525,-43.900001 -0.051,-1.5207 -0.075,-2.525 -0.075,-2.525 0,0 0.7333,0.93336 1.675,2.225 5.8664,8.000009 7.2692,15.308116 4.775,24.825001 -0.1655,0.651927 -3.0035,10.57825 1.425,1.725 3.7031,-7.417817 3.456,-16.848773 1,-24.600001 C 60.1066,11.48389 57.416,6.286639 55.1,2.9258388 53.65249,0.84084534 52.82261,0.03101064 52.225,8.3894015e-4 51.45665,-0.03795306 51.08001,1.2183981 50.4,2.7008388 l 0.025,0 C 49.3306,5.0995889 49.21369,6.706399 49.15,9.4258401 48.921,19.97145 49.831,24.036739 50.9,34.47584 c 0.3436,3.321609 0.6464,6.681887 0.85,10.025001 0.25449,4.273219 0.3364,8.513361 0.4,12.775 0.025,1.126461 -0.0297,1.294648 -0.5,1.625 -2.087,1.476284 -7.27071,0.290088 -8.925,-0.9 -0.5345,-0.392199 -1.00551,-0.893354 -1.4,-1.6 -0.71934,-1.306837 -1.67935,-2.896419 -1.96829,-3.94173 -0.14972,-0.541662 -0.90731,0.715927 -1.26733,4.629122 -0.6593,4.739809 -0.48691,5.959777 2.03562,8.062609 z"/>
</svg>