<?xml version="1.0" encoding="UTF-8" standalone="no"?>
<svg
   xmlns:dc="http://purl.org/dc/elements/1.1/"
   xmlns:cc="http://creativecommons.org/ns#"
   xmlns:rdf="http://www.w3.org/1999/02/22-rdf-syntax-ns#"
   xmlns:svg="http://www.w3.org/2000/svg"
   xmlns="http://www.w3.org/2000/svg"
   xmlns:sodipodi="http://sodipodi.sourceforge.net/DTD/sodipodi-0.dtd"
   xmlns:inkscape="http://www.inkscape.org/namespaces/inkscape"
   id="svg2"
   version="1.1"
   inkscape:version="0.48.0 r9654"
   width="100%"
   height="100%"
   sodipodi:docname="samad.svg">
  <metadata
     id="metadata10">
    <rdf:RDF>
      <cc:Work
         rdf:about="">
        <dc:format>image/svg+xml</dc:format>
        <dc:type
           rdf:resource="http://purl.org/dc/dcmitype/StillImage" />
      </cc:Work>
    </rdf:RDF>
  </metadata>
  <defs
     id="defs8" />
  <sodipodi:namedview
     pagecolor="#ffffff"
     bordercolor="#666666"
     borderopacity="1"
     objecttolerance="10"
     gridtolerance="10"
     guidetolerance="10"
     inkscape:pageopacity="0"
     inkscape:pageshadow="2"
     inkscape:window-width="640"
     inkscape:window-height="677"
     id="namedview6"
     showgrid="false"
     inkscape:zoom="2.2194052"
     inkscape:cx="80.048736"
     inkscape:cy="996.72624"
     inkscape:window-x="0"
     inkscape:window-y="0"
     inkscape:window-maximized="0"
     inkscape:current-layer="svg2" />
  <path
     id="path4"
     style="stroke:none; fill:#000000"
     d="m 21.998482,19.31258 c 0.09726,-3.074782 -1.322632,-7.607138 2.203769,-9.128564 7.066877,2.15164 8.699688,-12.1173042 1.685292,-9.32297896 C 21.299146,3.621579 20.365701,8.9521982 19.632232,13.79259 17.306878,11.269351 16.01792,7.8923759 13.503883,5.6181448 8.5340899,1.8209222 2.5415008,7.7195998 7.8826422,12.006848 c 3.3864008,3.487087 8.5533198,-1.530292 10.0534628,4.489405 1.074866,1.200384 2.085994,3.31527 4.062377,2.816327 z M 9.3547517,27.51507 C 4.8325442,30.472933 1.8497238,35.760741 4.4680363,41.042864 5.1924678,47.080339 10.983331,43.62697 8.3576705,39.380373 2.542128,35.754203 12.315831,32.201945 14.929831,29.394267 26.531762,21.561671 39.868806,17.019643 52.528402,11.25009 52.231065,13.793069 50.363042,16.939693 51.47038,19.129965 53.725554,15.218022 56.066724,10.809087 60.777012,9.0700182 64.256511,8.0086617 69.987396,4.1017176 67.570043,0.51293401 57.1515,2.6848448 47.258372,6.9429649 37.461759,11.035621 27.538708,15.472703 17.786372,20.585146 9.3547517,27.51507 z M 17.9375,34.90625 c -0.919004,0.09685 -1.60244,1.075603 -1.78125,3.46875 -2.553294,5.980116 3.484578,9.912557 6.09375,14.4375 2.296416,4.578275 5.250021,9.916459 4.125,15.125 -2.775139,5.755025 -6.721582,11.619326 -12.59375,14.5 C 7.7562873,85.152908 3.4609026,78.28452 2.375,73.28125 1.4799884,71.370233 3.2247509,60.363212 1.375,67.34375 -0.17621262,75.515502 -1.8491611,85.603532 5,91.9375 c 4.4434403,4.915644 11.293167,0.972025 14.78125,-3.03125 4.325668,-3.857482 4.753501,-10.193905 8.5625,-14.34375 2.662035,2.986459 4.09468,9.402831 8.46875,11.96875 4.557357,1.679768 10.822277,5.503333 15.3125,2.3125 2.042334,-2.627336 4.888197,-11.210652 -0.875,-10.0625 -4.322818,0.564868 -8.734104,-1.692091 -9.90625,-6.15625 -3.995728,-6.113688 5.113042,-9.32887 9.84375,-9.375 3.860396,3.272409 5.683433,9.974094 12.03125,10.40625 3.784406,0.138441 -2.948742,10.539311 3.3125,5.625 0.655517,-3.205896 1.235251,-4.687971 4.8125,-3.75 6.627637,0.204558 13.437509,1.517816 19.8125,-1.0625 2.745749,-0.728095 4.110207,-2.078832 5.012292,-3.745777 C 97.376395,67.392452 98.618864,65.025999 99.9375,62.125 99.12193,59.081588 99.88845,55.624998 97.15625,52.84375 94.5901,48.941236 89.789533,43.843971 84.71875,46.6875 77.250099,50.106727 74.956466,58.762985 69.5,64.1875 64.341915,62.946703 58.702835,60.076539 57.09375,54.59375 53.799273,50.207665 46.353853,54.233189 43.03125,57.28125 38.128586,60.411267 39.326792,67.985134 35.28125,70.875 28.041661,62.53813 29.897417,50.213241 24.0625,41.09375 c -1.009743,-2.375987 -4.103192,-6.400573 -6.125,-6.1875 z m 55.778422,30.21253 c 0.604398,-4.460352 6.081998,-8.659137 10.652702,-9.150724 3.571187,0.749708 10.055577,6.681045 8.185978,9.258224 -6.191811,1.436166 -12.619414,0.79949 -18.83868,-0.1075 z m -36.56746,-6.6925 c 2.824619,-5.675039 0.156271,-12.002927 0.123438,-17.98482 -0.561835,-3.724878 -1.733014,-8.556552 3.837871,-6.66339 6.096453,4.074999 10.542757,-7.865544 4.468686,-9.77409 -4.116393,-0.54918 -4.794767,5.417407 -9.042495,5.74984 -2.253755,5.338462 -1.855755,11.527468 -1.567315,17.224587 0.546979,3.847271 1.338538,7.655641 2.179815,11.447873 z m -24.04622,3.8975 C 10.908521,64.836516 7.9746846,66.857781 6.4584431,69.831895 7.5080646,73.965967 14.618425,65.671511 16.545821,63.42976 20.537583,59.056524 19.399482,50.985258 12.125951,52.708165 5.8586803,51.80255 3.4990111,58.940934 6.0925822,63.298778 6.8426158,60.647002 19.367383,56.353801 13.102242,62.32378 z m 52.58619,-21.95122 c 0.339308,5.396404 6.131399,4.926643 4.47494,-0.59875 -6.550881,-3.803716 3.599272,-7.675593 6.318367,-10.917197 8.25743,-5.650949 16.589105,-11.498222 25.934101,-15.206523 3.19553,-1.355446 -1.55425,8.81776 2.16766,3.93249 1.6117,-6.255752 8.26407,-8.3980798 13.26497,-11.2220997 2.70613,-1.8757467 3.55774,-8.7302752 -1.49225,-5.51432607 C 103.86549,5.9399474 92.329959,13.123672 80.898886,20.220669 c -5.540497,3.93006 -11.918621,7.427185 -15.583272,13.337112 -0.82329,2.209616 -0.134616,4.617668 0.372818,6.814779 z m 27.01747,4.31374 c 2.782461,-3.298208 3.237221,-10.122143 1.88113,-14.616365 -0.851797,-4.075753 -7.202924,-8.897575 -6.401219,-1.655646 1.492049,4.427637 8.053715,7.356965 5.062569,13.31486 -0.168702,0.987889 -0.349614,1.973697 -0.54248,2.957151 z m -8.14249,-25.37372 c 0.09726,-3.074677 -1.322217,-7.607187 2.203764,-9.128564 7.067061,2.151662 8.700076,-12.1166231 1.685758,-9.32297896 C 83.865235,3.6215536 82.930821,8.9524215 82.197162,13.79259 79.871797,11.269358 78.582847,7.8923765 76.068808,5.6181448 71.099202,1.8208959 65.106881,7.7198406 70.448266,12.006848 c 3.386184,3.486999 8.552722,-1.530129 10.052763,4.489405 1.074634,1.200338 2.086376,3.314964 4.062383,2.816327 z" />
</svg>
