<?xml version="1.0" encoding="UTF-8" standalone="no"?>
<svg>
  <path
     d="m 128.0272,32.373073 c 0.28504,0.797396 0.71622,1.577926 1.31118,2.321913 0.084,0.104945 0.16066,0.20052 0.2301,0.285788 -0.88621,-1.08787 2.40367,3.487562 2.21399,-1.160956 -0.0456,-1.110358 -0.1845,-2.505567 -0.5877,-2.85601 -0.23426,-0.203331 -0.55765,-0.05622 -0.75976,-0.16585 -0.91213,-0.494742 0.63848,-2.534615 1.37751,-3.314215 0.37004,-0.390734 0.7722,-0.786153 1.20443,-1.185319 7.92722,-7.333047 18.34932,-12.755537 27.05496,-14.824457 0.61154,-0.145236 1.12875,-0.211764 1.27075,-0.02159 0.0943,0.126496 0.0228,0.367308 -0.0943,0.640915 -0.27467,0.641852 -0.73592,1.429879 -1.25106,2.275062 -10.68019,17.539922 6.4533,-6.9732424 11.84937,-8.0255056 0.47886,-0.259552 0.93078,-0.4741275 1.33605,-0.6231123 2.06784,-0.7608528 4.35541,-1.0597593 4.46735,-2.9197258 0.0156,-0.2614261 -0.007,-0.5828208 -0.0456,-0.8948454 -0.24876,-2.04455776 -2.78303,-1.84591146 -5.54739,-1.0054127 -15.82232,4.8087398 -27.61675,11.7098328 -35.37501,17.4359138 1.30807,-0.965129 -11.38916,6.389477 -8.65485,14.037367 z m 26.72316,5.527016 0.61465,-0.0094 c 0.27674,-0.0045 0.35034,-0.156481 0.7411,-1.520769 2.24819,-7.846537 2.65864,-12.178345 -2.87114,-17.210094 -0.91005,-0.829254 -1.97143,-1.524517 -2.65553,-0.781467 -0.46332,0.504112 -0.937,4.061005 -0.72555,4.837787 0.37003,1.357729 1.46562,1.799061 2.73119,2.72108 2.8587,2.08392 3.57493,3.646854 3.21111,6.421343 -0.27882,2.128889 -1.04583,5.54149 -1.04583,5.54149 z m -14.07568,-21.771052 -0.15341,-3.186774 c -0.0622,-1.28839 -0.0415,-1.518894 0.20523,-2.307857 0.18346,-0.585632 0.37729,-1.2256107 0.8686,-1.6388325 1.19716,-1.0044831 4.16158,-0.6577891 5.53599,-1.4851697 1.97973,-1.1928152 1.98077,-5.2884898 0.45814,-6.94887305 -1.61489,-1.75970645 -4.87989,1.03539705 -6.21698,2.63581155 -0.82195,0.9819874 -1.59934,2.1082745 -1.94967,3.4219638 -0.16274,0.609057 -0.25188,1.3005714 -0.37833,1.905888 l -0.62191,2.9637649 -2.05021,-2.3593929 c -2.80791,-3.3423257 -1.95175,-4.3355572 -6.07705,-5.2444578 -1.38271,-0.3045285 -4.38029,-0.1911502 -4.95658,1.2162401 -0.45089,1.1009878 0.60843,3.7780358 1.27075,4.4133291 0.50997,0.4891195 2.57469,1.7025485 3.42774,1.7765725 1.39306,0.121812 4.24035,-0.6456 4.24035,-0.6456 0,0 2.29795,2.990938 3.70138,4.394581 0.61258,0.612805 1.11943,1.10661 1.9051,1.119728 0.32339,0.0052 0.79086,-0.03088 0.79086,-0.03088 z m 29.9609,24.481087 5.0925,5.09125 7.3275,-7.3275 -7.3275,-7.32875 -5.0925,5.0925 -5.09125,-5.0925 -7.32875,7.32875 7.32875,7.3275 5.09125,-5.09125 z m 0.18625,-8.31125 7.3275,-7.3275 -7.3275,-7.32875 -7.32875,7.32875 7.32875,7.3275 z M 9.1899899,29.027944 c 0.2283469,-0.01784 0.4615612,-0.03651 0.6992283,-0.05622 1.1205728,-0.09183 1.9756918,-0.217386 2.5779038,-1.465492 0.646781,-1.339926 1.003339,-3.972926 1.003339,-3.972926 l -7.4486626,0.388859 c 0,0 -0.7100089,-0.798333 -1.2891059,-1.553564 C 4.4711807,22.026591 4.2141267,21.634921 3.9669195,21.206707 0.14614013,14.591402 2.8631412,12.645231 5.4345121,8.1944217 6.8272688,6.3082184 7.8364139,4.5063465 6.6434959,4.3695429 5.7014129,4.2608497 4.709682,5.1997346 3.8440933,6.4337779 1.3871529,9.9382064 -1.1143582,15.915399 0.52581387,21.982552 1.8435274,26.855945 3.7159809,29.442103 9.1899899,29.027944 z m 47.4831981,25.971145 8.356336,-0.119937 c 0.579408,-0.0085 0.702753,-0.03373 1.228262,-0.255804 6.241852,-2.634875 9.478875,-2.7773 10.626289,-9.745858 0.430151,-2.609575 0.142002,-5.718577 -1.541287,-9.171469 -1.144305,-2.34815 -3.011065,-5.261317 -3.011065,-5.261317 0,0 0,0 0,0 0,0 -4.857076,5.616444 -1.397212,10.638829 0.321317,-0.03276 0.684095,-0.06934 0.684095,-0.06934 0,0 1.793159,4.035705 1.203386,5.440285 -0.349303,0.832065 -1.536105,0.740238 -2.332143,1.057885 -0.531729,0.211764 -0.655073,0.233316 -1.234482,0.207079 L 58.153321,47.230325 c 0,0 -0.507889,-1.682872 -1.072786,-3.074333 -2.00046,-4.935236 -8.170801,-9.581881 -11.53116,-8.838831 -3.782218,0.835814 -7.61627,8.175427 -7.449392,13.078813 0.139928,4.067564 5.23541,6.076515 10.886452,6.603115 3.460909,0.323269 5.15249,0.185529 5.15249,0.185529 0,0 -3.329272,3.828633 -10.113217,6.004373 -0.885178,0.282977 -1.771392,0.538781 -2.628585,0.766475 -7.558225,2.011762 -14.773366,2.975009 -23.292434,0.429151 -4.666359,-1.39521 -6.753887,-3.181152 -9.51162,-8.16231 -1.2597761,-2.275062 -2.023787,-7.465173 -1.5756001,-10.703482 0.834078,-6.024988 3.6191791,-15.20582 3.6191791,-15.20582 0,0 -1.6608007,2.804473 -2.902952,5.19104 -5.1237737,9.845181 -5.5708205,22.268078 -0.4483934,30.049024 6.3914244,9.708377 22.6273034,8.315042 32.8037394,5.779491 7.8329,-1.951801 14.856287,-6.013744 16.529211,-13.705673 0.02388,-0.357938 0.05498,-0.627798 0.05498,-0.627798 z m -6.397336,-8.286931 c 0,0 -0.644708,-0.04962 -1.379593,-0.10682 -2.856616,-0.221134 -2.978924,0.357002 -5.526661,-1.224673 -1.299781,-0.806766 -1.999424,-1.801872 -0.114016,-2.29755 0.692388,-7.5e-4 2.512496,0.03373 3.940804,0.39167 0.432224,0.108693 0.82817,0.246434 1.168145,0.409474 0.722446,0.346694 1.829436,2.103589 1.889554,2.579591 0.01866,0.142426 0.02181,0.248308 0.02181,0.248308 z M 67.265272,1.8030702 C 66.812318,0.92883902 66.367656,0.07053705 66.367656,0.07053705 c 0,0 -0.152367,0 -0.414603,0 -5.213644,0 -5.247849,-0.74679766 -9.164813,2.62456745 -1.424162,1.2256102 -2.277208,2.666733 -1.212714,4.8003067 0.967062,1.9396204 2.303121,0.2042688 5.001151,-1.2359173 1.784867,-0.9520031 5.177366,-1.9330535 5.742263,0.026236 0.155476,0.5415923 -0.102614,1.0850586 -0.430151,1.6191552 -2.179776,3.5578379 -7.406895,6.7071319 -10.027187,10.8768379 -0.532765,0.848931 -0.957734,1.740029 -0.883105,2.231022 1.560981,1.835605 10.915475,-8.534302 10.805605,-8.392813 0.895543,-1.154398 1.701946,-2.483079 2.200507,-3.8389343 1.08937,-2.9581512 0.09018,-5.4187417 -0.719337,-6.9779278 z m 29.502152,38.6648468 -0.291259,-1.677249 1.729932,-1.073822 1.479097,-0.919208 -3.562478,-5.765428 c -0.351377,-0.566891 -0.735929,-1.122539 -1.156752,-1.638832 -1.428308,-1.755029 -3.259818,-3.066844 -3.259818,-3.066844 l -4.670505,5.852578 c -0.338938,0.425403 -0.381435,0.512545 -0.419786,0.875168 -0.180352,1.685682 0.947369,1.502965 3.001728,3.142734 1.840838,1.469233 2.834849,6.381989 4.054819,9.753354 l 2.091682,5.786987 c 0,0 -4.162625,5.26319 -4.162625,5.26319 -1.109063,1.401775 -2.999654,3.157734 -4.658067,4.599794 -18.857206,12.670268 -17.428897,8.6102 -29.695979,14.677346 -1.578602,1.003539 -3.091903,2.110156 -3.091903,2.110156 0,0 2.37464,-0.227694 4.159506,-0.347631 2.058506,-0.138685 3.33341,-0.134 4.45803,0.146174 3.038005,0.757105 2.98618,1.818738 7.986295,0.607183 3.188307,-0.772097 10.959008,-5.116088 16.188197,-8.919415 4.384429,-3.189592 10.026151,-12.307653 10.253146,-17.319724 0.04046,-0.883601 0.08707,-1.901195 0.120235,-2.643308 0.126454,-2.779181 0.05489,-4.900574 -0.05282,-6.319208 -0.0964,-1.271524 -0.322354,-2.098905 -0.500634,-3.123995 z m 7.546816,-24.758661 c 0,0 1.41483,23.106711 1.77139,28.663186 0.56698,8.850075 2.12796,16.834352 12.29819,19.664125 0.84786,0.23519 1.732,0.472253 2.62547,0.704632 6.68444,1.732533 23.53393,1.654761 29.38709,-0.818011 0.35657,-0.20052 0.71002,-0.394481 1.06865,-0.568765 l 2.36842,-1.154398 3.3842,0.800208 c 2.4814,0.586569 5.11,1.601351 7.01406,1.415823 1.09663,-0.106819 1.95278,-0.611868 2.90015,-1.007286 l 2.6006,-1.085996 6.62537,2.73982 c 4.29632,1.777509 6.19935,4.018847 8.77094,-1.264965 1.3174,-2.707024 2.66382,-6.288287 2.65657,-7.012597 -0.0352,-3.436019 -3.00691,-10.584482 -3.00691,-10.584482 0,0 -2.05333,1.571367 -3.15203,3.721814 -1.66049,3.246743 -1.14638,7.812797 -1.14638,7.812797 0,0 -4.60313,-1.33524 -6.37349,-2.459653 -1.16192,-0.737428 -0.76494,-1.992085 -0.5649,-1.947109 0.34931,0.07777 -3.89313,3.277664 -5.95267,3.500673 -3.634,0.392607 -8.92331,-0.975429 -8.92331,-0.975429 l 1.16504,-6.655588 c 0,0 -6.71968,8.26631 -6.71968,8.26631 0,0 -11.20155,0.768356 -14.35566,0.985743 -5.56293,0.381363 -9.59806,-0.02526 -15.09467,-0.992302 -6.43465,-1.131909 -9.95463,-2.931907 -11.64932,-7.662875 -2.23575,-6.242374 -5.20949,-48.7527137 -5.20949,-48.7527137 0,0 -1.59105,1.2359174 -2.66798,2.3528343 -3.3728,3.4978616 -1.61177,6.8973454 -0.058,11.1785474 0.18139,0.49849 0.20523,0.611868 0.2384,1.135657 z m 17.12106,11.571155 c 0,0 0.21144,-0.802081 0.40734,-1.548879 1.51123,-5.75231 0.87482,-9.594999 -1.46976,-15.046528 C 119.184,7.9189405 117.43955,4.6150398 115.65676,2.9574676 L 112.47571,2.612411e-4 111.9699,2.5461198 c -0.26742,1.3446106 -0.57423,3.2429946 -0.27364,3.6665235 0.0943,0.1339926 0.24876,0.1208744 0.41564,0.1424257 4.61557,0.604372 7.22239,11.552415 8.39572,16.447367 0.19901,0.826444 0.92768,4.477975 0.92768,4.477975 z M 86.270698,76.740568 c -0.43326,2.449354 0.09432,3.050915 1.894737,2.299433 1.227225,-0.512545 17.052635,-8.834147 19.364065,-11.326604 0.93078,-1.003538 1.85949,-2.778237 2.18703,-4.37584 0.20108,-0.983862 -0.12542,-0.948255 -1.29667,-0.554711 -2.71566,0.912649 -20.620312,10.765326 -21.181063,11.656423 -0.524473,0.831129 -0.860302,1.693179 -0.968099,2.301299 z m 23.796172,-1.102861 c 3.0152,3.858618 9.56179,3.943886 14.5702,3.549404 1.92272,-0.150858 3.72832,-0.323268 5.64379,-1.091617 2.79443,-1.12161 5.82207,-3.512862 8.02983,-4.462991 0.46125,-0.199584 0.88622,-0.334513 1.23967,-0.238938 0.91109,0.248308 1.34436,2.035188 2.31764,2.747317 1.12461,0.821758 6.64298,-0.305466 8.4693,-1.214367 0.62503,-0.312025 3.11886,-2.026755 3.87759,-3.004057 0.59703,-0.769286 0.795,-0.788026 1.98388,-0.188339 1.45422,0.731805 3.19762,1.269649 4.55545,1.827171 1.20028,0.492868 2.00565,0.894845 2.93229,0.477875 1.41483,-0.637167 2.17148,-3.314207 1.88852,-4.895881 -0.35553,-1.987408 -1.73719,-5.855389 -3.14373,-4.662574 -0.70898,0.601561 -0.80952,2.370637 -1.57965,2.977821 -0.37003,0.29141 -0.89451,0.314835 -1.39825,0.18178 -1.06968,-0.283915 -2.04399,-1.275272 -2.84832,-1.1975 -1.19199,0.114315 -2.00772,2.580535 -3.61327,3.646854 -1.47184,0.977302 -7.85052,2.070794 -8.73674,1.522642 -0.88621,-0.548151 -1.22722,-1.961164 -2.02948,-2.55148 -1.78694,-1.314634 -4.51711,1.338988 -7.10734,2.933781 -2.39848,1.476729 -4.75861,2.179487 -7.34782,2.400622 -4.09524,0.349505 -11.11552,0.01499 -14.55051,-0.187403 -4.93688,-0.289536 -3.00898,1.614471 -3.15305,1.42988 z m -65.583026,-44.94938 6.996438,-6.324831 -6.996438,-6.324831 -6.996437,6.324831 6.996437,6.324831 z m 24.847189,34.225282 4.862267,4.394588 6.99643,-6.32483 -6.99643,-6.324831 -4.862267,4.395525 -4.861223,-4.395525 -6.996438,6.324831 6.996438,6.32483 4.861223,-4.394588 z M 26.491084,47.397113 20.665909,52.629389 c -0.968099,0.868609 -1.105954,1.02509 -1.376483,1.560123 -0.379362,0.750546 -0.510998,2.004266 -0.324427,2.173865 0.603248,0.550963 2.736381,-0.785215 3.479558,-1.279957 6.503051,-4.335549 9.4654,-7.066943 10.516419,-12.680575 0.534838,-2.854135 -1.13705,-3.957934 -4.094215,-4.322439 -4.692272,-0.577199 -9.348267,0.01409 -11.170456,3.207396 0.284003,12.192393 0.685132,5.220087 4.664294,4.354289 4.42589,-0.963247 9.185543,-3.101506 4.130485,1.755022 z M 25.607979,22.481979 25.066922,10.369231 C 24.987152,8.5720446 24.954979,8.2600125 24.750787,7.2414813 24.124736,4.1212351 22.441447,2.4130642 20.68042,1.3092654 c -2.237821,-1.40270525 -3.947031,-1.9236833 -6.254298,0.051573 -1.89681,1.6238399 -2.076126,7.503591 -1.32984,8.4227986 0.556605,0.685892 2.030519,0.624049 3.815386,0.1330556 4.456993,-1.2284213 4.903728,-0.945444 6.064617,4.5847944 0.552459,2.628315 0.616723,5.08985 0.346194,7.733158 -0.576299,5.612695 -1.931015,8.343152 0.722446,11.637683 1.103881,1.371784 2.258551,1.578863 4.777266,0.970743 1.790058,-0.432899 2.14558,-1.408327 2.896012,-4.316809 0.527582,-2.046432 0.945295,-3.88017 0.810549,-5.920979 -0.268456,-4.049761 -4.000929,-11.661108 0.497524,-13.551996 0.830243,-0.349505 1.909248,-0.121812 2.838995,0.116189 1.254175,0.320458 1.467696,0.175221 2.128988,-1.4533037 0.54313,-1.3399256 1.171254,-2.5721028 1.517448,-4.0132255 C 40.809423,0.291709 38.822429,-1.2356187 34.834982,0.98041199 30.261909,3.5234595 28.207542,14.417156 29.183932,21.720226 c 0.299559,3.010616 0.627096,5.721389 0.627096,5.721389 0,0 -0.273638,-0.0037 -0.59911,-0.04213 C 27.93183,27.252376 25.73236,25.25748 25.607979,22.482053 z m 49.729626,6.10557 c 3.074283,2.44185 7.544742,3.713374 9.305775,1.329618 1.142232,-1.547005 3.002764,-4.774078 3.002764,-4.774078 0,0 -1.89059,-2.581465 -3.4692,-3.691822 -1.060348,-0.746798 -3.083609,-1.057886 -4.27974,-0.47038 -1.057238,0.518167 -2.289646,2.018322 -2.958194,1.404579 -0.811586,-0.744923 1.834619,-5.626757 1.999424,-6.045601 2.0243,-5.122639 1.916504,-8.3234754 0.361742,-12.5784421 -0.477831,-1.3090042 -1.00645,-2.6395596 -1.74548,-3.15960068 L 76.69854,2.612411e-4 75.802997,0.86512228 c -1.397213,1.34742162 -1.13083,4.87620462 -0.67373,6.32482342 0.427041,1.3549256 1.1754,2.7004732 1.596222,4.1556513 0.50167,1.731596 0.257054,5.772924 -0.458136,7.595417 -0.985719,2.510253 -2.804799,4.812488 -2.404699,7.553245 0.136819,0.938885 0.284003,1.147838 1.474951,2.09329 z"
     style="fill:#000000;stroke:none" />
</svg>
