<?xml version="1.0" encoding="UTF-8" standalone="no"?>
<svg>
  <path
     style="fill:#000000;stroke:none"
     d="m 58.696193,11.146879 -5.72625,5.68875 c -0.95125,0.945 -1.0875,1.115 -1.35375,1.6975 -0.3725,0.815 -0.50125,2.1775 -0.31875,2.3625 0.59375,0.59875 2.69,-0.85375 3.42,-1.3925 6.3925,-4.71375 9.30375,-7.6825 10.3375,-13.7862503 0.525,-3.10375 -1.1175,-4.30375 -4.025,-4.7 -4.61125,-0.62749995 -9.1875,0.015 -10.98,3.48625 0.28,13.2575003 0.67375,5.6762503 4.585,4.735 4.35125,-1.04625 9.02875,-3.3725 4.06125,1.9087503 z m 57.214987,8.67625 -0.16375,-3.7575 c -0.0675,-1.51875 -0.045,-1.79125 0.21875,-2.72125 0.19625,-0.69125 0.4025,-1.44625 0.92625,-1.9325 1.27625,-1.185 4.43625,-0.775 5.90125,-1.7525003 2.11,-1.40625 2.11125,-6.23625 0.4875,-8.19375 -1.72125,-2.07499995 -5.20125,1.22125 -6.6275,3.1075 -0.875,1.15875 -1.705,2.48625 -2.0775,4.03625 -0.17375,0.71875 -0.26875,1.5337503 -0.40375,2.2475003 l -0.6625,3.495 -2.18625,-2.7825 c -2.9925,-3.9412503 -2.08,-5.1125003 -6.47875,-6.1850003 -1.47375,-0.35875 -4.66875,-0.225 -5.282487,1.435 -0.48125,1.2975 0.647487,4.4550003 1.353737,5.2050003 0.54375,0.57625 2.745,2.00625 3.65375,2.095 1.485,0.1425 4.52125,-0.76125 4.52125,-0.76125 0,0 2.44875,3.52625 3.94625,5.18125 0.6525,0.7225 1.1925,1.305 2.03,1.32125 0.345,0.006 0.84375,-0.0375 0.84375,-0.0375 z m -15,17.015 c 0.3,1.04125 0.7875,2.06 1.48625,3.02625 0.0887,0.12375 0.17125,0.23625 0.245,0.3375 -0.945,-1.28375 2.5625,4.1125 2.36,-1.37 -0.0487,-1.30875 -0.19625,-2.95375 -0.62625,-3.3675 -0.25,-0.24 -0.59375,-0.0662 -0.81,-0.195 -0.97125,-0.58375 0.68125,-2.99 1.46875,-3.90875 0.40375,-0.47125 0.845,-0.95 1.3175,-1.4325 7.3075,-7.455 14.945,-10.9425 22.32,-14.42 2.2375,-1.055 4.31625,-1.88 6.11125,-2.39875 0.9175,-0.26625 1.83625,-0.4925 2.03375,-0.18875 0.0975,0.15125 0.0163,0.4325 -0.1125,0.75375 -0.28875,0.7125 -0.7575,1.5775 -1.28625,2.50625 0,0 0.0512,0.006 0.36125,0.0462 2.0125,0.21375 0.25625,-4.305 13.065,-9.5575003 0.24375,-0.12125 0.4775,-0.22625 0.6975,-0.3125 2.21875,-0.86375 4.6625,-1.1775 4.81625,-3.36875 0.0212,-0.3075 0.002,-0.6875 -0.0325,-1.055 -0.31875,-3.37625 -5.48,-1.65749995 -9.415,0.0913 -11.20375,4.97625 -19.8975,9.6350003 -26.47,13.6212503 -6.48125,3.93125 -19.802487,11.33625 -17.53,21.1925 z m -28.974987,-12.26 c 3.0225,2.655 7.41625,4.0375 9.1475,1.445 1.12375,-1.68125 2.9525,-5.19 2.9525,-5.19 0,0 -1.85875,-2.8075 -3.41,-4.015 -1.0425,-0.81125 -3.03125,-1.15 -4.2075,-0.51125 -1.03875,0.56375 -2.25,2.195 -2.9075,1.5275 -0.40875,-0.415 0.075,-2.05125 0.66625,-3.585 1,-2.59625 5.4775,-8.2337503 0.01,-13.0387503 -0.0238,-0.009 -0.0475,-0.015 -0.0712,-0.02 l -0.84125,-0.38749995 -0.88125,0.55624995 c -1.3725,0.4075 -1.11,3.6225 -0.66125,4.06125 0.2425,0.2375 0.59125,0.94625 0.9225,1.58625 0.7325,3.8137503 0.1425,7.0862503 -1.35,10.7287503 -0.5975,1.45625 -1.0325,2.94 -0.8175,4.5675 0.135,1.02 0.27875,1.2475 1.44875,2.275 z m -1.2975,63.2025 c -0.42625,2.66375 0.0925,3.31625 1.8625,2.5 1.205,-0.5575 16.76,-9.605 19.0325,-12.315 0.915,-1.09125 1.8275,-3.02125 2.15,-4.75875 0.1975,-1.06875 -0.12375,-1.03125 -1.275,-0.6025 -2.66875,0.9925 -20.2675,11.705 -20.81875,12.67375 -0.515,0.90375 -0.84625,1.84125 -0.95125,2.5025 z m -46.4,-62.5325 -0.5325,-13.17 c -0.0788,-1.95375 -0.11,-2.2937503 -0.31125,-3.4000003 -0.615,-3.39375 -2.27,-5.25125 -4,-6.45125 -2.2,-1.52499995 -3.88,-2.09124995 -6.1475,0.0563 -1.86513,1.765 -2.04075,8.1587503 -1.30775,9.1587503 0.547,0.745 1.9965,0.67875 3.75025,0.14375 4.38125,-1.335 4.82,-1.0275 5.96125,4.985 0.5425,2.8575 0.60625,5.535 0.34,8.40875 -0.56625,6.1025 -1.8975,9.07125 0.71,12.65375 1.08625,1.49125 2.22,1.71625 4.69625,1.055 1.75875,-0.47 2.10875,-1.53125 2.84625,-4.6925 0.51875,-2.22625 0.93,-4.22 0.79625,-6.43875 -0.26375,-4.40375 -3.93125,-12.68 0.48875,-14.735 0.81625,-0.38 1.8775,-0.1325 2.79125,0.12625 1.23375,0.34875 1.4425,0.19125 2.0925,-1.58125 0.53375,-1.4562503 1.1525,-2.7950003 1.4925,-4.3625003 1.275,-5.88375 -0.67875,-7.54499995 -4.5975,-5.135 -4.495,2.765 -6.515,14.6100003 -5.555,22.5500003 0.295,3.27375 0.6175,6.22125 0.6175,6.22125 0,0 -0.27,-0.004 -0.58875,-0.045 -1.25875,-0.16125 -3.42125,-2.32875 -3.5425,-5.3475 z m 39.125,42.48 4.77875,4.7775 6.87625,-6.87625 -6.87625,-6.8775 -4.77875,4.77875 -4.77875,-4.77875 -6.8775,6.8775 6.8775,6.87625 z m -21.3375,-36.6575 6.8775,-6.87625 -6.8775,-6.8775 -6.87625,6.8775 z m 89.066237,11.7575 4.77875,4.77875 6.87625,-6.8775 -6.87625,-6.87625 -4.77875,4.7775 -4.77875,-4.7775 -6.8775,6.87625 6.8775,6.8775 z m 0.17375,-7.79875 6.8775,-6.8775 -6.8775,-6.8775 -6.8775,6.8775 z m -86.176237,14.98875 c 0.195,0.27625 0.20625,1.025 0,1.35125 -0.2625,0.4175 -2.4225,-0.18875 -3.37875,-0.845 -1.3475,-0.925 -2.13875,-3.075 -1.68875,-3.66 1.0025,-1.3 3.60375,1.085 5.0675,3.15375 z m -30.87875,-13.9575 -2.50175,0.43125 c 0.36125,0.0637 0.578,0.1 0.578,0.1 0,0 -2.9027504,5.8625 -4.6412504,10.2725 -3.4105,8.65125 -3.82713,19.0125 1.4525,25.06875 4.0112504,4.6025 18.3550004,7.8275 24.0287504,6.34 5.1225,-1.3425 11.33625,-4.46375 14.3925,-7.8425 0.45,-0.49875 0.84125,-1.0075 1.13375,-1.66375 0.56875,-1.28125 0.7575,-3.12625 1.5225,-3.86875 0.30875,-0.29875 0.71125,-0.41875 1.03875,-0.6825 1.0225,-0.82 1.32,-3.035 2.32125,-4.11875 0.98,-1.06125 2.635,-1.04 3.94125,-1.68875 2.8,-1.39125 6.8425,-9.45875 7.32,-11.72375 0.79125,-3.74875 -1.08875,-12.09 -2.53375,-16.71125 -0.50125,-1.605 -1.7325,-1.8575 -2.815,-0.56375 -1.0125,1.21 -1.9225,3.4675 -1.97125,5.18 -0.12625,4.4075 3.5375,13.46625 2.815,14.7525 -0.93125,1.6625 -5.42625,2.30625 -6.385,1.465 -1.105,-0.97125 -1.105,-3.565 -2.06,-5.63125 -1.735,-3.75 -7.5325,-8.63875 -10.89,-7.32 -3.15875,1.24 -6.6575,11.645 -6.565,14.92125 0.0737,2.6425 1.88125,5.845 4.50375,6.7575 5.47625,1.9025 13.98125,0.23125 8.44625,4.50375 -5.9425,4.5875 -13.00625,6.5325 -19.71875,5.9125 -11.05875,-1.02125 -18.9420004,-7.28875 -18.0067504,-18.01875 0.17837,-2.04625 0.5838704,-4.0425 1.4076204,-6.75625 0.83038,-2.73625 2.08538,-6.20125 3.18663,-9.115 z m 64.71625,-3.33 c -0.40125,-0.4025 -1.86625,1.7825 -2.61875,3.37875 -0.9975,2.11375 -1.3625,2.56875 -1.4075,3.55875 -0.16125,3.51875 4.535,15.87625 5.0675,21.89125 0.5725,6.4725 -12.78,14.0625 -19.98875,17.3425 -5.29625,2.41 -18.935,7.375 -23.705,6.7575 -1.85375,-0.24 -3.5125,-0.92625 -4.1675,-0.56375 -0.3925,0.21875 -0.42375,0.81375 0,1.35125 2.0925,2.6575 16.78,4.56 19.42625,4.0925 7.12875,-1.26125 18.39375,-8.91625 22.80375,-11.91875 2.30375,-1.56875 4.9775,-4.18125 5.35,-5.34875 1.04,-3.27 0.3675,-9.0325 1.4075,-9.5725 0.1975,-0.1025 0.4475,-0.0825 0.68375,-0.25875 1.61375,-1.205 2.33875,-8.4425 2.13125,-9.76375 -0.19375,-1.23625 -2.14125,-6.59 -1.45,-7.19375 0.40625,-0.355 1.78625,-0.2225 2.3375,-0.4775 1.65625,-0.77 -4.56125,-11.9575 -5.87,-13.275 z m -67.82013,5.045 3.82388,0.74375 1.1,-2.85125 c 0.89125,-2.31 1.54625,-3.92875 1.54625,-3.92875 0,0 -3.385,0.1025 -5.65525,-0.0612 -1.9763804,-0.1425 -3.3910004,-0.49125 -4.5067504,-1.15125 -5.88763,-3.48 -3.81425,-10.81 -1.448,-15.215 0.0294,-0.055 0.0589,-0.11 0.0888,-0.165 0.55675,-1.03 1.08825,-2.11 1.52612,-3.28875 0.91175,-2.4537503 0.76063,-2.9725003 -0.31937,-2.8487503 -0.20313,0.0225 -0.31625,0.115 -0.67013,0.72625 -1.80525,3.1225003 -4.45812,8.2475003 -5.58837,11.6862503 -1.71950005,5.2325 -1.52538005,9.89375 2.91787,13.80375 0.85238,0.75 1.69875,1.22 3.37838,1.69 1.11237,0.31125 2.59025,0.6225 3.8066204,0.86 z m 96.196367,29.635 c 0.5475,-0.0387 1.02625,-0.11875 1.89875,-0.28375 2.35,-0.4475 7.4825,-2.4175 10.07,-4.33875 l 1.7625,-1.30875 1.3225,0.99125 c 1.5225,1.1425 4.40625,2.59625 5.1025,2.72 1.5125,0.26875 3.62625,-0.0587 4.8425,-0.845 0.67,-0.43375 1.81,-1.505 2.25875,-1.915 l 1.35375,-1.23875 7.29375,5.1175 c 3.185,1.8125 6.75,3.29875 6.75,3.29875 0,0 4.81875,-6.85375 5.9925,-9.665 0.47875,-1.1475 0.35125,-1.62125 0,-2.86125 -1.075,-3.79125 -4.2425,-14.7475 -4.2425,-14.7475 0,0 -1.90875,2.67 -3.0775,4.275 -1.3175,1.81 -1.69125,2.6425 -1.68875,4.12125 0.004,2.255 0.5625,6.5775 0.5625,6.5775 0,0 -2.845,-1.60625 -4.505,-2.81625 -1.06625,-0.7775 -1.64375,-1.39125 -1.9425,-2.19625 -0.43,-1.16125 -0.4225,-2.18375 -1.66,-1.745 -0.61625,0.21875 -1.22875,0.89875 -1.74625,1.68875 -1.68125,2.57 -1.60625,3.5725 -3.84,3.9425 -2.41,0.39875 -4.35125,-0.008 -5.955,-1.49125 -1.90375,-1.7625 -3.03625,-3.6625 -4.225,-3.01375 -0.67125,0.36625 -1.41375,1.485 -2.21875,2.3375 -2.3525,2.49125 -13.1525,5.9725 -17.08375,4.9825 -2.34,-0.59 -5.696237,-3.7125 -6.654987,-5.63125 -0.9725,-1.94375 -1.32,-5.60875 -1.73,-8.46125 -0.2175,-1.50625 -0.23875,-1.8425 -0.21375,-3.3625 L 94.868442,0.13808362 c 0,0 -0.75,-0.11 -1.35125,0 -1.27625,0.235 -3.5625,4.89125028 -3.97375,7.08625028 -0.275,1.4775 -0.30125,1.81125 -0.255,3.3299991 0.36125,11.885 2.221501,32.111296 2.941501,43.343796 0.7675,11.9775 4.37625,14.25125 15.073737,13.5125 z" />
</svg>
