<?xml version="1.0" encoding="UTF-8" standalone="no"?>
<svg>
  <path
     style="fill:#000000;stroke:none"
     d="m 25.117563,28.360522 c -2.12375,2.37125 -3.125,5.005 -3.02125,8.5825 0.0937,3.2375 0.9225,5.60625 2.00875,7.7775 0.74375,1.48875 5.245,5.47625 6.30625,5.5875 0.96875,0.10125 2.07375,0 2.07375,0 l 0,-4.55625 c 0,-1.67625 -0.06,-1.89 -0.5975,-2.135 -0.4,-0.18125 -0.7125,-0.43125 -1.0825,-0.7375 -2.225,-1.83375 -6.5525,-5.6825 -6.5525,-5.6825 0,0 2.68125,-2.90625 5.12875,-5.2025 3.76625,-3.53375 23.34249,-14.415 30.34874,-16.885 4.05625,-1.43 0.58125,0.8425 0.0713,7.1375 -0.16375,2.02125 0,4.47 0,4.47 l 0.99375,0 c 0.44625,0 0.5675,-0.1725 1.2025,-1.72625 2.64875,-6.485 6.23625,-12.77125 13.635,-15.0350001 0.04,-0.0125 0.0813,-0.025 0.12125,-0.0375 2.15875,-0.63625 7.52125,-4.21749 8.06,-6.52249 0.11,-0.47125 0.18125,-0.94625 0.2,-1.3875 0.0375,-0.9375 0,-1.98625004 0,-1.98625004 0,0 -1.62875,-0.0475 -2.98,0 -0.99375,0.035 -2.05625,0.20625 -3.14375,0.4875 C 67.962603,3.0667819 31.260113,21.503022 25.117613,28.360522 z m 63.60749,13.62125 5.26875,5.26875 7.582497,-7.5825 -7.582497,-7.5825 -5.26875,5.26875 -5.2675,-5.26875 -7.5825,7.5825 7.5825,7.5825 5.2675,-5.26875 z m -43.28624,59.118738 c 0.21,2.8975 1.5625,4.7 4.02124,5.22 3.17375,0.67125 4.9675,-1.04875 5.78125,-4.53 0.1775,-0.76375 0.1375,-1.4 -0.35375,-1.7075 -0.93375,-0.583748 -3.50125,0.0225 -4.7425,-0.636248 -1.54375,-0.82 -1.93625,-4.30625 -1.555,-5.93625 0.3825,-1.63125 1.3575,-3.37875 1.6225,-4.63625 0.0538,-0.255 0.0787,-0.48875 -0.0325,-0.62 -0.0138,-0.0163 -0.0275,-0.0312 -0.0425,-0.0462 -3.73374,-0.85125 -4.64249,13.674998 -4.69874,12.892498 z m -11.46125,-80.129988 -0.18,-4.1425 c -0.0737,-1.675 -0.05,-1.975 0.24125,-3.00125 0.21625,-0.76125 0.44375,-1.59375 1.02125,-2.13 1.4075,-1.3075 4.89125,-0.855 6.50625,-1.9325001 2.32625,-1.55 2.32875,-6.87499 0.53875,-9.03374004 -1.89875,-2.28874996 -5.735,1.34625004 -7.3075,3.42625004 -0.96625,1.2775 -1.88,2.74125 -2.29125,4.44999 -0.19125,0.7925 -0.29625,1.6912501 -0.445,2.4775001 l -0.73,3.85375 -2.41125,-3.0675 c -3.3,-4.3462501 -2.29375,-5.6374901 -7.1425,-6.8187401 -1.625,-0.39625 -5.1475,-0.24875 -5.825,1.58125 -0.53,1.43124 0.71375,4.9112401 1.49375,5.7387401 0.59875,0.635 3.025,2.2125 4.0275,2.31 1.6375,0.1575 4.985,-0.84 4.985,-0.84 0,0 2.7,3.88875 4.35,5.71375 0.72,0.79625 1.315,1.43875 2.23875,1.45625 0.38125,0.007 0.93,-0.0412 0.93,-0.0412 z m 84.526227,47.11874 c 1.79625,-4.72749 1.18875,-8.41624 -1.07875,-16.71749 -0.60875,-2.22875 -1.1625,-3.9175 -2.42125,-3.10375 -1.02875,0.66375 -3.78875,5.68375 -4.0975,6.9525 -0.52625,2.1625 0.5775,3.58125 1.5525,6.705 0.21375,0.6875 0.73,2.8625 0.92375,4.29749 0.0863,0.6325 0.305,2.24875 0.30875,2.28125 0.0163,0.11625 -38.823737,2.2175 -45.112487,-2.56375 -2.595,-0.90999 -5.56625,-2.43124 -5.9025,-4.41124 -0.3925,-2.31125 1.24125,-4.99 -1.49,-3.93625 -1.00375,0.3875 -3.17,1.95375 -4.0875,3.075 -0.93625,1.14375 -1.22625,1.26125 -2.9,1.17375 l -4.2525,-0.22 c -1.67375,-0.0875 -2.02125,-0.0488 -3.48249,0.38625 -5.04,1.50125 -14.35,11.11249 -14.95875,11.90624 -4.9025,6.4025 -9.34875,19.3325 -18.36125,21.96875 -4.8249999,1.41 -8.5749999,-3.68875 -9.4449999,-8.4775 -1.42125,-7.81125 0.88625,-17.33875 6.5699999,-24.02624 0.95125,-1.12 1.9525,-2.02 2.395,-3.85 0.38625,-1.59625 0.34625,-3.89875 0.34625,-3.89875 0,0 -3.4049999,4.35 -5.5874999,7.55 -5.89875,8.65124 -8.747372,19.93749 -6.82849696,30.43249 1.35724696,7.426248 8.11224696,12.402498 13.92224686,10.977498 1.33,-0.32625 9.105,-7.021248 10.6,-9.127498 4.13875,-5.8325 5.8675,-10.37125 10.24375,-13.96875 4.8,-3.94375 12.04375,-7.8925 16.88624,-7.13875 8.04875,1.2525 5.1625,3.87125 10.12,13.0375 1.395,2.58 2.84375,3.5275 5.43625,3.23125 1.00375,-0.115 1.20125,-0.2925 1.97875,-1.78125 1.1125,-2.13 2.52625,-4.33125 2.8275,-6.61625 0.3025,-2.29 0,-5.38875 0,-5.38875 0,0 0.38875,0.0163 0.99,0.03 5.04375,0.11625 21.435,4.0425 40.758737,-2.14625 1.66125,-1.38875 2.95,-3.4875 4.14625,-6.6325 z m -11.99125,-44.50624 -0.58625,-11.18875 c -0.0875,-1.66 -0.12125,-1.94875 -0.3425,-2.8887501 -0.67874,-2.88249 -2.50374,-4.46124 -4.41124,-5.47999 -2.426247,-1.295 -4.277497,-1.7775 -6.777497,0.0475 -2.05625,1.5 -2.25,6.9312401 -1.4425,7.7812401 0.60375,0.6325 2.20125,0.57625 4.135,0.12125 4.831247,-1.13375 5.314997,-0.8725 6.572497,4.23625 0.59875,2.4275 0.66875,4.70125 0.375,7.1425 -0.62375,5.185 -2.09125,7.7075 0.78375,10.75125 1.19624,1.26625 2.44749,1.4575 5.17749,0.89625 1.94,-0.4 2.325,-1.30125 3.1375,-3.9875 0.5725,-1.89125 1.025,-3.585 0.87875,-5.47 -0.29125,-3.74125 -4.335,-10.77125 0.53875,-12.51875 0.9,-0.3225 2.07,-0.11125 3.0775,0.1075 1.36,0.29625 1.59,0.1625 2.30625,-1.3425 0.58875,-1.2375 1.27125,-2.3750001 1.645,-3.7075001 1.4075,-4.99749 -0.74625,-6.40874 -5.0675,-4.36124 -4.95625,2.34875 -7.1825,12.4112401 -6.12375,19.1574901 0.32375,2.78125 0.67875,5.285 0.67875,5.285 0,0 -0.29625,-0.004 -0.64875,-0.0387 -1.3875,-0.13625 -3.77125,-1.97875 -3.90625,-4.5425 z m -52.868737,18.6575 -6.31374,6.27125 c -1.04875,1.0425 -1.1975,1.22875 -1.49125,1.87125 -0.41125,0.89875 -0.55375,2.40125 -0.35125,2.60625 0.65375,0.66 2.96499,-0.9425 3.76999,-1.53625 7.0475,-5.1975 10.25875,-8.47 11.3975,-15.20125 0.58,-3.42 -1.23125,-4.74375 -4.43625,-5.18125 -5.085,-0.6925 -10.13124,0.0163 -12.10624,3.845 0.3075,14.61625 0.7425,6.2575 5.05374,5.22 4.7975,-1.15375 9.955,-3.71875 4.4775,2.105 z" />
</svg>
