<?xml version="1.0"?>
<svg xmlns="http://www.w3.org/2000/svg" version="1.1">
  <path
     d="m 139.01903,69.94627 c 0.164,2.323 1.225,3.768 3.153,4.185 2.489,0.538 3.896,-0.841 4.533,-3.632 0.14,-0.612 0.109,-1.122 -0.277,-1.369 -0.733,-0.468 -2.746,0.018 -3.719,-0.51 -1.211,-0.658 -1.519,-3.453 -1.219,-4.76 0.3,-1.308 1.064,-2.709 1.272,-3.716 0.042,-0.205 0.061,-0.393 -0.026,-0.498 -0.011,-0.013 -0.022,-0.025 -0.032,-0.037 -2.929,-0.683 -3.641,10.964 -3.685,10.337 z m -53.531004,-41.877 c -0.62,0.702 -1.205,1.388 -1.749,2.054 l -0.137,6.768 c 0.982,-1.317 2.244,-2.988 3.41,-4.466 0.935,-1.185 3.305,-3.737 6.196,-6.637 2.004,-2.01 3.698,-3.764 5.983,-5.382 0.612,-0.433 1.173004,-0.796 1.672004,-1.075 0.515,-0.287 0.954,-0.468 1.155,-0.183 0.16,0.228 -0.538,6.271 0.959,4.381 0.414,-0.522 0.507,-1.781 0.745,-2.888 0.378,-1.764 1.123,-3.143 2.29,-4.392 5.686,-6.089 7.711,-4.711 7.911,-9.565 0.085,-2.075 -0.181,-2.514 -1.838,-1.724 -1.834,0.875 -4.402,2.688 -7.203,4.895 -0.144,0.114 -0.316,0.251 -0.512,0.409 -13.006004,10.473 -21.822004,21.134 -18.882004,17.805 z m 9.942,-11.256 -0.142,-3.321 c -0.058,-1.343 -0.039,-1.584 0.189,-2.406 0.17,-0.611 0.348,-1.278 0.801,-1.708 1.104,-1.048 3.836004,-0.686 5.103004,-1.549 1.824,-1.243 1.825,-5.513 0.422,-7.243 -1.489,-1.835 -4.498004,1.079 -5.731004,2.747 -0.757,1.024 -1.474,2.197 -1.797,3.567 -0.149,0.635 -0.232,1.356 -0.349,1.987 l -0.572,3.09 -1.891,-2.46 c -2.588,-3.484 -1.798,-4.52 -5.601,-5.467 -1.274,-0.318 -4.037,-0.199 -4.568,1.267 -0.416,1.148 0.56,3.939 1.171,4.602 0.47,0.509 2.373,1.774 3.159,1.852 1.284,0.126 3.909,-0.673 3.909,-0.673 0,0 2.118,3.117 3.412,4.581 0.564,0.638 1.031,1.153 1.755,1.167 0.299,0.006 0.73,-0.033 0.73,-0.033 z m -71.882,-0.163 -0.46,-8.971 c -0.068,-1.33 -0.095,-1.562 -0.268,-2.316 -0.532,-2.311 -1.963,-3.576 -3.459,-4.393 -1.903,-1.039 -3.355,-1.425 -5.316,0.038 -1.612,1.202 -1.764,5.557 -1.13,6.238 0.472,0.508 1.726,0.462 3.242,0.098 3.788,-0.909 4.168,-0.7 5.155,3.396 0.469,1.946 0.524,3.77 0.293,5.727 -0.489,4.157 -1.64,6.179 0.615,8.619 0.938,1.016 1.919,1.17 4.06,0.719 1.521,-0.32 1.823,-1.043 2.461,-3.197 0.448,-1.516 0.804,-2.874 0.689,-4.385 -0.229,-3 -3.4,-8.637 0.422,-10.037 0.706,-0.259 1.623,-0.09 2.414,0.086 1.066,0.238 1.246,0.13 1.808,-1.076 0.462,-0.992 0.997,-1.905 1.29,-2.973 1.103,-4.007 -0.585,-5.138 -3.974,-3.497 -3.887,1.883 -5.633,9.951 -4.803,15.36 0.255,2.23 0.533,4.237 0.533,4.237 0,0 -0.232,-0.003 -0.509,-0.03 -1.088,-0.11 -2.957,-1.587 -3.063,-3.643 z m -0.959,26.492 -5.176,5.257 c -0.86,0.874 -0.983,1.031 -1.223,1.569 -0.337,0.753 -0.454,2.013 -0.288,2.184 0.536,0.554 2.432,-0.789 3.091,-1.287 5.778,-4.356 8.411,-7.1 9.345,-12.742 0.475,-2.867 -1.01,-3.977 -3.638,-4.343 -4.169,-0.58 -8.306,0.013 -9.926,3.222 0.253,12.252 0.609,5.246 4.145,4.376 3.932,-0.967 8.161,-3.117 3.67,1.764 z m 28.3,-33.582 -5.177,5.257 c -0.86,0.873 -0.982,1.03 -1.223,1.568 -0.337,0.754 -0.453,2.014 -0.288,2.184 0.537,0.554 2.432,-0.789 3.092,-1.286 5.778,-4.357 8.41,-7.101 9.344,-12.743 0.475,-2.867 -1.01,-3.977 -3.638,-4.343 -4.168,-0.58 -8.306,0.014 -9.925,3.223 0.253,12.252 0.609,5.245 4.144,4.376 3.933,-0.968 8.162,-3.117 3.671,1.764 z m 15.892,24.454 4.576,4.662 6.354,-6.52 -6.377,-6.496 -4.543,4.661 -4.575,-4.661 -6.355,6.519 6.377,6.497 4.543,-4.662 z m -49.588,32.69 -6.354,6.519 6.377,6.496 6.354,-6.519 -6.377,-6.496 z m 102.097004,12.047 4.575,4.662 6.354,-6.519 -6.376,-6.497 -4.543,4.661 -4.576,-4.661 -6.354,6.519 6.377,6.497 4.543,-4.662 z m -112.442804,-42.233 1.9749,-1.044 c 1.1297,-2.758 2.0269,-4.884 1.6919,-5.017 -0.432,-0.172 -1.685,0.72 -3.1676,0.335 -0.5705,-0.148 -1.4942,-0.696 -2.3702,-1.347 -3.4467,-2.564 -2.5783,-6.895 -1.0941,-10.582 0.8214,-2.041 2.1258,-4.097 3.0842,-6.458 0.8147,-2.007 0.6849,-2.384 -0.4041,-2.296 -0.3161,0.026 -0.416,0.146 -0.9982,1.2 -4.2234,7.645 -7.4209,15.355 -4.333,21.352 0.4704,0.914 1.233,1.683 2.5555,2.261 1.2828,0.56 3.2409,1.101 3.2409,1.101 0,0 -0.0625,0.172 -0.1802,0.495 z m 1.9749,-0.648 -1.9749,1.044 c -0.6283,1.726 -2.8489,7.838 -4.1828,11.639 -1.4585,4.157 -1.7061,7.301 -0.0093,11.065 3.5758,7.931 14.7619,7.734 21.5589,6.335 3.138,-0.646 6.024,-1.456 7.306,-2.085 2.892,-1.42 2.355,-2.191 3.92,-5.686 0.853,-1.903 2.242,-3.015 2.563,-4.721 0.182,-0.967 -1.659,-6.887 -2.73,-9.625 -0.353,-0.902 -0.732,-1.571 -1.651,-0.955 -0.202,0.135 -2.095,3.58 -2.41,4.947 -0.253,1.099 -0.286,1.356 -0.327,2.564 0,0 -0.107,3.142 -0.107,3.142 0,0 0.079,0.003 0.322,0.012 0.455,0.016 1.745,1.786 1.514,2.813 -0.043,0.196 -0.109,0.377 -0.198,0.523 -0.345,0.57 -1.267,0.627 -2.214,0.665 -8.854,0.355 -12.114,3.2 -19.727,-1.308 -2.8938,-1.713 -4.3075,-4.077 -4.9356,-8.078 -0.1567,-0.998 -0.1116,-1.957 0.1042,-3.053 0.5347,-2.715 1.9862,-6.328 3.1785,-9.238 z m 40.1719,17.9 c 0.139,0.116 0.28,0.238 0.41,0.371 0.399,0.408 1.413,2.601 1.404,2.857 -0.012,0.332 -0.015,0.44 -0.015,0.44 0,0 -0.82,0.024 -1.401,-0.05 -1.108,-0.141 -3.175,-1.656 -3.328,-2.655 -0.052,-0.339 -0.034,-0.744 -0.005,-1.047 0.239,-2.57 3.499,0.555 2.935,0.084 z m 24.783,1.665 c -0.17,0.08 -0.475,0.157 -0.741,0.108 -0.504,-0.092 -1.601,-3.102 -1.849,-4.905 -0.186,-1.354 -0.13,-1.885 1.1,-1.395 0.925,0.369 3.771,2.934 3.998,4.375 0.122,0.775 -1.001,1.11 -2.508,1.817 z m 35.032004,-4.941 c -0.021,0.01 -0.043,0.019 -0.063,0.026 l -1.828,-1.149 -1.578,-0.896 2.134,-0.268 c 0,0 1.762,-0.04 2.192,0 0.225,0.021 1.204,0.34 1.77,0.529 l -2.627,1.758 z M 73.224026,8.10527 c -0.055,-0.006 -0.109,-0.014 -0.163,-0.023 -0.938,-0.157 -1.568,-0.781 -2.244,-1.34 -0.911,-0.754 -1.011,-0.873 -1,-1.195 0,0 0.002,-0.081 0.008,-0.241 0.016,-0.476 1.393,-0.716 1.913,-0.714 2.88,0.015 2.845,0.059 2.413,2.893 -0.066,0.437 -0.279,0.692 -0.927,0.62 z m -21.573,17.747 c 6.439,-2.784 12.602,-6.188 16.877,-9.256 2.115,-1.518 4.308,-2.826 4.932,-2.226 0.574,0.552 -0.841,3.747 -0.632,5.66 0.116,1.059 0.966,2.455 1.861,2.002 0.421,-0.214 1.334,-1.802 1.536,-2.752 0.145,-0.687 0.17,-0.898 0.241,-2.107 0.111,-1.882 0.218,-3.99 -0.06,-5.647 -0.133,-0.792 -0.355,-1.48 -0.319,-2.22 0.055,-1.118 0.698,-2.352 1.027,-3.526 0.751,-2.675 -0.628,-4.753 -3.498,-5.632 -3.25,-0.995 -6.527,3.219 -7.347,6.616 -0.208,0.862 -0.281,1.71 0.148,2.451 1.051,1.814 2.829,2.075 2.283,3.372 -0.379,0.899 -1.967,2.056 -3.395,2.95 -6.12,3.828 -27.167,11.684 -36.247,13.593 -11.12,2.339 -7.3,2.713 -1.499,2.555 0.326,-0.008 0.641,-0.017 0.946,-0.026 9.444,-0.265 17.053,-3.172 23.146,-5.807 z m 77.242004,24.394 c -0.006,0.647 0.021,1.271 0.103,1.774 0.239,1.46 0.943,1.916 1.212,3.019 0.162,0.663 0.166,1.559 0.052,2.332 -0.154,1.041 -0.3,1.186 -1.457,1.443 -5.161,1.146 -7.388,1.031 -12.955,-0.398 -0.951,-0.244 -2.337,-0.882 -3.125,-1.689 l -1.462,-1.496 1.96,-1.188 c 1.522,-0.923 4.252,-1.534 5.453,-1.553 0.864,-0.014 1.55,0.143 2.133,-0.171 0.597,-0.32 2.319,-4.742 2.72,-6.983 0.385,-2.152 -1.291,-2.744 -4.26,-3.602 -9.495,-2.744 -17.743,-3.367 -26.328004,0.852 -0.882,0.434 -1.617,0.867 -2.242,1.489 -0.668,0.664 -1.995,4.906 -1.968,6.293 0.017,0.926 0.11,1.956 0.11,1.956 0,0 2.902,0.174 5.035,0.552 0.354,0.062 6.850004,2.208 7.628004,3.607 0.837,1.504 -6.752004,3.131 -8.165004,3.468 -1.154,0.274 -1.413,0.3 -2.595,0.258 l -11.102,-0.397 c 0,0 -0.048,-0.938 0.061,-1.79 0.097,-0.756 0.501,-1.635 1.014,-2.524 2.247,-3.897 2.248,-6.924 -2.354,-11.847 -1.812,-1.939 -4.307,-3.903 -4.307,-3.903 0,0 -1.665,1.84 -2.604,3.191 -1.458,2.1 -3.223,7.645 -3.41,10.006 -0.14,1.773 -0.149,4.36 -0.149,4.36 0,0 -4.216,0.97 -6.447,1.409 -4.439,0.874 -2.694,-1.689 -6.232,-8.736 -0.762,-1.517 -3.14,-5.046 -4.265,-5.53 -1.81,-0.78 -4.108,1.206 -5.29,2.948 -2.98,4.39 -5.699,14.232 -1.675,16.969 1.023,0.696 2.892,1.376 4.324,1.722 2.541,0.615 6.971,1.217 6.971,1.217 l -0.037,1.099 c -0.017,0.494 -0.13,0.621 -1.127,1.274 -5.015,3.287 -7.531,4.325 -12.061,6.27 -2.781,1.194 -19.154,5.501 -21,5.524 -3.277,0.041 -7.013,-0.25 -7.013,-0.25 l -0.024,0.716 c -0.011,0.322 0.113,0.399 1.238,0.774 4.096,1.363 13.439,3.77 16.495,3.623 5.046,-0.242 23.068,-7.529 25.583,-14.995 0.542,-1.611 1.164,-4.367 1.164,-4.367 0,0 6.629,-0.848 9.572,-1.972 1.094,-0.417 1.419,-0.662 2.26,-0.355 1.073,0.391 2.179,1.554 3.37,2.349 3.158,2.109 16.953,2.678 20.116,2.05 1.253,-0.249 5.523,-2.88 7.873004,-4.85 1.791,-1.503 4,-3.402 4,-3.402 0,0 2.297,2.865 4.015,4.351 2.681,2.318 6.737,2.123 10.759,1.952 4.755,-0.201 8.024,-0.593 9.924,-2.451 3.055,-2.986 4.837,-8.054 4.274,-11.561 -0.206,-1.286 -0.661,-2.695 -0.738,-4.059 -0.06,-1.064 0.108,-2.099 0.11,-3.223 0.004,-2.299 -0.331,-5.28 -1.767,-4.724 -0.248,0.096 -0.481,0.257 -0.689,0.491 -1.792,2.025 -2.674,7.857 -2.681,8.678 z"
     style="fill:#000000;stroke:none" />
</svg>
