<?xml version="1.0" encoding="UTF-8" standalone="yes"?>
<svg xmlns="http://www.w3.org/2000/svg" xmlns:xlink="http://www.w3.org/1999/xlink"
  width="595.276pt" height="841.89pt" viewBox="0 0 595.276 841.89">
  <path
     d="m 53.229754,69.856412 4.373952,4.374489 6.294931,-6.29545 -6.294931,-6.294387 -4.373952,4.373426 -4.373954,-4.373426 -6.29493,6.294387 6.29493,6.29545 z M 6.0292384,37.738978 9.5362401,38.156979 10.662241,35.262977 c 0.31,-0.796 0.42,-1.429 0.223,-1.780001 -0.651001,-1.157 -4.5560024,-1.522 -6.2120032,-2.671001 -1.6750007,-1.162 -2.4950011,-4.293002 -2.0710009,-5.746002 0.8350004,-2.860009 4.9080022,-7.019011 5.6940027,-9.784012 0.095,-0.334001 0.1420001,-0.648001 0,-0.776001 -0.7260005,-0.656 -3.2940017,1.933001 -3.5800018,2.294001 -3.3610014,4.237002 -8.1160034,17.082016 -1.0780005,20.224017 0.3510002,0.157 0.6890003,0.279 0.9990005,0.388 0.5170002,0.182 0.9850004,0.278 1.3920006,0.327 z m 13.3118696,9.563513 c 0.163,2.240993 1.207993,3.633994 3.109994,4.035994 2.452993,0.519 3.839993,-0.811 4.468994,-3.502993 0.138,-0.590001 0.107,-1.082001 -0.273,-1.320001 -0.723001,-0.451 -2.707994,0.018 -3.666994,-0.492 -1.194001,-0.634001 -1.498001,-3.329994 -1.202001,-4.589994 0.295001,-1.261001 1.049001,-2.612001 1.254001,-3.583994 0.042,-0.197 0.06104,-0.378 -0.02496,-0.479 -0.01104,-0.01304 -0.022,-0.02496 -0.03296,-0.036 -2.887001,-0.658 -3.588994,10.572989 -3.632994,9.967988 z m 25.240971,-4.447986 0.512001,-0.009 c 0.23,-0.004 0.292,-0.144 0.617,-1.4 1.871993,-7.225995 2.213993,-11.216989 -2.391001,-15.850983 -0.758,-0.763 -1.642001,-1.404001 -2.210993,-0.72 -0.386,0.465 -0.78,3.741001 -0.604,4.455993 0.308,1.251001 1.219992,1.657001 2.273993,2.507002 2.380001,1.917992 2.976001,3.357993 2.674001,5.912994 -0.233,1.961993 -0.871001,5.103994 -0.871001,5.103994 z m 5.783995,-26.797971 -0.453,-8.6509876 c -0.06704,-1.283001 -0.094,-1.506001 -0.265,-2.233001 -0.524001,-2.228993 -1.935001,-3.448994 -3.410002,-4.23699397 -1.875993,-1.002 -3.307993,-1.374 -5.240986,0.036 -1.590001,1.16000097 -1.740001,5.35999397 -1.115001,6.01599497 0.467001,0.49 1.701993,0.446 3.196994,0.095 3.734993,-0.877001 4.108994,-0.675001 5.081994,3.2749926 0.462,1.876001 0.517,3.634994 0.29,5.522995 -0.483,4.007993 -1.618001,5.957994 0.606,8.310987 0.925001,0.980001 1.892001,1.128001 4.001994,0.693001 1.500001,-0.309001 1.798001,-1.005001 2.427001,-3.081994 0.442,-1.462 0.792992,-2.772001 0.678992,-4.229994 -0.224992,-2.892001 -3.351993,-8.3279946 0.417001,-9.6779876 0.695,-0.25 1.6,-0.087 2.379001,0.083 1.051,0.229 1.229,0.125 1.783,-1.038 0.455993,-0.957001 0.982993,-1.837001 1.271993,-2.867002 1.088,-3.86399297 -0.577,-4.95499397 -3.917994,-3.37199297 -3.831993,1.81600097 -5.553994,9.59598757 -4.734994,14.81198157 0.25,2.150001 0.525,4.085994 0.525,4.085994 0,0 -0.229,-0.0032 -0.502,-0.02896 -1.073,-0.106 -2.915993,-1.529992 -3.019993,-3.512993 z M 10.07312,35.40151 7.0831212,36.693511 c 0,0 -2.3697971,12.375981 -2.3697971,12.375981 -0.4003993,2.249001 -0.8497987,4.611994 -1.2021981,6.971995 -2.4344979,16.308983 9.619988,28.353962 29.081964,18.080976 2.307001,-1.607993 4.980994,-3.880994 6.076995,-5.652986 1.821001,-2.943002 2.361001,-7.457996 3.640993,-8.300996 1.138001,-0.75 2.987002,0.263 5.311995,0.401 1.334,0.08 5.811994,-1.400001 6.478995,-2.140993 0.606,-0.673 3.647993,-8.620996 4.172993,-10.434988 0.880001,-3.045002 1.225001,-12.54399 -1.463,-15.011983 -1.043993,-0.958 -1.466993,0.01696 -2.426993,1.782993 -0.779001,1.434 -1.592001,2.359001 -1.903001,4.142994 -0.541,3.104001 1.209,12.663989 1.209,12.663989 0,0 -2.476001,0.232 -4.344994,0.197 -3.627993,-0.07 -5.620994,-1.154 -7.320995,-3.450993 -1.409992,-1.905001 -3.500993,-5.519995 -3.500993,-5.519995 0,0 -1.066001,1.518993 -1.826001,2.724994 -1.861993,2.956001 -2.217993,4.620994 -1.755993,7.374995 0.625,3.718993 2.925993,10.77698 2.925993,10.77698 0,0 -2.111992,1.726001 -3.675993,2.811002 C 27.023096,71.45347 15.545115,70.362469 10.719121,64.842475 4.2370247,57.428488 9.08452,42.193505 10.04212,35.62151 c 0.01,-0.074 0.02104,-0.147 0.03104,-0.22 z m 47.302941,39.949954 c -6.571987,3.447995 -10.103988,4.268995 -19.438976,7.616995 -1.139001,0.408 -2.262993,0.82699 -3.450994,1.02599 -1.320001,0.221 -1.466001,0.272 -1.462001,0.508 l 0.009,0.527 c 0,0 3.391994,-0.569 6.016995,-0.599 3.736994,-0.042 5.915995,1.011 8.123988,1.34 3.918001,0.585 8.687995,-1.086 13.673989,-4.22099 4.390994,-2.762 13.079982,-7.959996 14.497983,-13.401983 1.747993,-6.701995 4.169994,-16.015983 4.019994,-17.270983 -0.166041,-1.390001 -0.630041,-2.585993 -0.906041,-3.778994 l -0.459,-1.985001 2.891005,1.048001 -2.174005,-5.755995 c -0.116,-0.227 -0.24,-0.426 -0.369,-0.583 -0.25,-0.304 -0.526,-0.439 -0.797,-0.762 -1.613993,-1.913993 -1.409001,-4.036994 -3.554994,-3.155994 -0.886,0.364001 -2.435001,4.206994 -2.697001,5.678995 -0.269992,1.517 0.278,3.830993 1.273001,5.752994 0.365,0.703001 0.753,1.215001 1.084,1.911993 1.564001,3.296002 2.239001,10.999989 1.938001,11.989989 -0.07696,0.254 -0.327,0.592001 -0.661,0.943001 C 66.642009,70.88547 59.820022,74.069463 57.376021,75.351464 z M 25.750103,15.308533 c 2.906993,-3.251993 4.921994,-6.0339936 5.670987,-10.2839876 0.293,-1.658993 -0.113,-3.972994 -1.393993,-4.61899397 -2.689001,-1.355001 -9.323988,0.93799997 -10.733989,3.15100097 -1.55,2.433993 -2.080001,5.265987 0.746001,5.914987 0.87,0.201 2.368993,-0.241 3.047993,-0.793992 1.166001,-0.948001 1.697001,-2.957002 3.396994,-3.517002 0.01096,-0.004 0.02096,-0.0072 0.032,-0.01 3.683001,-1.176001 2.511001,2.158001 1.309,3.965994 -0.754,1.1329996 -1.800993,2.5680006 -2.913993,4.0710006 -7.156995,9.669989 -7.342995,11.269981 0.839,2.120993 z m 48.496564,1.834688 -6.212001,6.211002 6.212001,6.212003 6.212,-6.212003 -6.212,-6.211002 z m -51.927116,6.832515 -6.212003,6.211002 6.212003,6.212003 6.212002,-6.212003 -6.212002,-6.211002 z"
     style="fill:#000000;stroke:none" />
</svg>