<?xml version="1.0" encoding="UTF-8" standalone="yes"?>
<svg xmlns="http://www.w3.org/2000/svg" xmlns:xlink="http://www.w3.org/1999/xlink"
  width="595.276pt" height="841.89pt" viewBox="0 0 595.276 841.89">
  <path
     style="fill:#000000;stroke:none"
     d="m 98.522288,13.287628 c -4.558387,2.482125 -14.717465,8.736996 -15.095157,9.399521 -0.419426,0.737647 -0.689653,1.503465 -0.776251,2.042876 -0.347435,2.174337 0.07512,2.708531 1.521201,2.040788 0.554018,-0.25562 4.830701,-2.714791 8.789162,-5.207349 l 5.857355,-3.688235 -0.571754,1.600496 c -0.185716,0.52063 -0.204496,0.824245 0.132505,0.799204 5.681031,-6.467713 8.987391,-5.745716 9.730261,-8.269575 0.23371,-0.793988 0.17841,-1.306272 -0.0313,-1.627623 -1.03605,-1.5911052 -10.037006,3.172821 -9.556022,2.909897 z m -60.28464,1.482598 c 0,0 0.234754,-0.0021 0.815898,-0.0063 2.83895,2.275542 2.654277,1.605712 2.305799,0.49246 C 39.596087,9.3051297 39.509489,1.0449447 39.542877,2.0872492 39.485497,0.31773118 39.424978,-0.45643292 38.004982,0.27391058 35.764914,1.42681 33.616661,3.1931979 33.419468,3.7899929 c -0.337001,1.0162208 0.521674,5.2720367 1.259321,9.1230341 0.539411,2.809736 0.881629,31.264962 1.110122,46.902659 0.01878,1.274971 -0.0073,1.454427 -0.25249,1.795602 -0.836765,1.161246 -3.735186,2.327709 -4.423795,2.571852 C 24.116978,66.659005 17.411382,66.729953 11.851172,63.40063 1.922153,57.45463 5.8401328,42.502412 4.0168825,46.804135 0.56413136,54.949552 -0.01242267,62.420966 4.2231523,67.487463 7.1418136,70.978505 14.697425,74.014647 20.048965,73.4888 24.96522,73.004687 31.371376,70.569513 33.770033,67.744127 35.123255,66.149891 38.919998,58.954964 39.54705,56.638732 40.907576,51.615012 38.644554,38.220512 38.39102,32.361071 38.062366,24.782192 38.237648,14.770226 38.237648,14.770226 z M 56.951136,29.22268 c 4.545866,-2.870249 8.795422,-6.217309 13.973557,-10.854991 0.634356,-0.568624 1.257235,-1.135162 1.631796,-1.716307 0.857632,-1.331312 0.89728,-2.16599 3.138391,-1.503464 0.432989,0.128332 0.686523,0.326568 1.027697,0.935883 0.635399,1.134119 1.576499,3.691365 1.576499,3.691365 0,0 0.537324,-2.81704 0.540454,-4.654375 0.0021,-1.301055 -0.262923,-2.110693 -0.733473,-2.827473 C 77.61464,11.544194 76.89786,10.897318 76.65163,10.019863 76.140389,8.2002643 77.648027,5.3936586 77.321459,3.4791152 76.940637,1.2515676 74.334354,-0.35414482 72.096373,0.06736768 67.828037,0.87178888 67.264629,6.8397387 67.472255,11.290661 c 0.02191,0.468463 0.05843,0.836765 0.48307,1.248887 0.661483,0.643746 2.263022,1.394956 2.263022,1.394956 0,0 -3.016319,2.865034 -5.982557,5.328378 -5.588171,4.638724 -14.522359,9.672878 -18.396309,12.356369 -5.23865,3.629807 -5.96795,4.014802 -1.169593,3.284459 4.35076,-0.662526 10.77674,-4.731583 12.281248,-5.68103 z M 75.45804,6.4891738 C 75.943197,8.7365451 74.900892,9.8007599 73.029126,9.5044491 70.847486,9.159101 68.681495,8.4329309 69.318981,6.5434279 69.93873,4.7092224 73.305613,4.6758352 74.98123,5.9455896 75.197203,6.1093952 75.420479,6.312848 75.45804,6.4891738 z M 10.107216,40.262344 c 0.6667,-1.419996 1.249201,-3.354363 1.249201,-3.354363 0,0 -2.8078575,0.647919 -4.5966774,0.550887 -0.060514,-0.0031 -0.120298,-0.0073 -0.1795601,-0.01252 -8.0071732,-0.693826 -2.8920559,-18.210593 -4.5183223,-13.389283 -1.73581782,5.145792 -3.6095662,14.12067 0.00459,16.748863 0.5775974,0.419426 1.2568168,0.693827 2.2852448,0.907713 6.661672,1.385566 5.0623238,0.02608 5.755524,-1.451297 z M 47.826015,73.47002 c -6.283041,3.446178 -13.111752,6.110888 -20.810616,9.165811 -0.820072,0.325524 -1.620319,0.642702 -2.481081,0.75747 -1.160203,0.155459 -1.291665,0.197193 -1.315662,0.424643 -0.01774,0.167979 -0.09077,0.359955 0.03339,0.502893 0.437163,0.509154 7.764595,-0.159632 12.511828,-0.651049 7.253354,-0.752253 9.219021,-1.128902 15.936095,-5.529743 4.531259,-2.967282 10.087087,-7.356646 10.775696,-8.800639 1.537895,-3.227075 1.410607,-8.116203 2.821213,-10.414699 0.512284,-0.834678 1.180026,-1.037087 2.983975,-1.308358 1.061085,-0.160675 1.986534,-0.260837 2.962064,-0.424643 1.902024,-0.317177 5.869876,-2.057481 6.528228,-2.861903 0.586362,-0.717823 1.085082,-1.68918 1.669357,-2.596892 2.300582,-3.578684 3.006928,-2.696011 3.033012,0.298397 0.0063,0.730343 0.0094,1.086125 0.0094,1.086125 0.01148,1.274971 0.02817,1.498248 0.165892,2.225461 0.834679,4.401885 7.708254,3.136304 12.89891,2.718965 2.903637,-0.23371 3.721622,-0.435076 5.850044,-2.049136 0.17842,-0.135635 0.35787,-0.273357 0.49559,-0.449683 0.18676,-0.237883 0.27127,-0.391255 0.84929,-1.528504 3.0977,-6.095238 3.7091,-6.473974 3.26463,-10.954109 -0.29109,-2.942241 -0.83989,-9.434995 -3.5359,-8.092206 -0.35683,0.177369 -2.817037,4.663765 -3.091438,6.166186 -0.193019,1.052738 0.187803,2.643843 0.740778,3.771702 2.06583,4.217212 2.26406,4.627248 -4.062797,5.230303 -3.450351,0.328654 -7.712427,0.132505 -9.238845,-1.20924 -0.405863,-0.357869 -0.759558,-1.522245 -0.954664,-2.992322 -0.147112,-1.114295 0.920233,-11.779397 -3.896904,-2.555159 -1.138292,2.180597 -1.615102,2.856687 -5.199002,4.327807 -1.38348,0.567581 -2.684534,0.968227 -4.709673,1.457557 -2.844166,0.686523 -7.115632,1.547285 -7.115632,1.547285 0,0 -1.709004,-4.936079 -2.852513,-7.362906 -1.246801,-2.646973 -4.911038,-6.295561 -7.603919,-5.600691 -4.897475,1.262451 -6.326862,7.082245 -6.982084,11.696973 -0.745994,5.246996 0.624965,8.723431 5.938736,9.414127 1.940627,0.252491 4.751406,0.215973 6.555355,0.155459 0.675046,0.340132 0.883715,1.407476 0.995353,2.414307 0.548788,4.950686 -14.361696,12.675633 -13.168106,12.020411 z M 58.364872,49.351991 c 0.50811,1.641186 -0.558191,1.662053 -2.634453,1.156029 -1.594236,-0.388125 -5.627819,-1.407476 -4.941296,-3.451395 0.699043,-2.081479 3.708058,-1.531634 5.189612,-0.564451 0.593665,0.387082 2.078349,1.863419 2.386137,2.859817 z M 119.22335,60.29984 c -1.50138,1.292708 -6.00342,5.140575 -9.81269,8.100553 -8.88201,6.902789 -19.09639,9.632187 -21.547214,10.426175 -0.654179,0.212843 -1.336529,0.413165 -2.004271,0.576971 -7.886667,1.92915 -6.754634,0.623922 0.72617,3.86143 0.587405,0.253534 1.140379,0.504981 1.641186,0.741821 0.976573,0.465333 1.313575,0.570711 2.506121,0.450726 2.604197,-0.26188 11.297368,-3.650674 14.591218,-5.709199 3.65902,-2.288062 11.59681,-8.698392 12.05171,-9.635318 1.12995,-2.325622 1.8269,-5.851095 2.15034,-7.812589 0.0146,0.05112 0.0219,0.07408 0.0219,0.07408 0,0 0.57906,-1.934367 1.02874,-3.436788 1.57963,-5.27308 1.31671,-1.999054 0.90876,-8.043168 -0.11999,-1.775778 -0.17946,-2.652191 -0.17946,-2.652191 0,0 0.16381,-0.0021 0.39334,-0.0042 1.29376,-0.01043 3.92299,1.905153 1.73092,-1.567109 -1.35531,-2.149296 -3.31576,-5.03311 -4.91,-7.291958 -1.35635,-1.91976 -2.01992,-2.161816 -3.10187,-0.469506 -4.83696,7.565315 -1.72674,7.480804 1.93958,16.923102 0.75121,1.933324 1.46695,4.173391 1.86551,5.467143 z M 51.73544,12.848379 c -0.95362,0.834678 -1.823772,1.691267 -2.309973,2.505078 -0.444466,0.744951 -0.603055,1.650577 -0.24623,1.974015 0.693827,0.630182 2.692881,-0.761644 3.948029,-1.726741 3.794656,-2.918244 5.0425,-5.032067 5.920999,-10.3134939 C 59.560549,2.2104042 58.126989,0.57026138 53.916037,0.05589088 52.077658,-0.16842892 49.405644,0.29899098 48.257961,1.1764465 47.661166,1.6334329 47.367985,2.3178691 47.25113,3.5813633 47.622562,14.264202 46.210913,8.8283597 51.505903,7.0379748 55.273432,5.7650904 61.902864,3.9496651 51.73544,12.848379 z M 16.686255,16.431236 16.223009,7.578429 C 16.154148,6.2658974 16.127021,6.0374042 15.951738,5.2934972 15.415457,3.0127387 13.971255,1.7638514 12.461635,0.95734348 10.541979,-0.06826752 9.0770152,-0.44908942 7.0985147,0.99490398 5.4717267,2.1811905 5.3185632,6.4787403 5.9580312,7.1506563 6.4351541,7.6525067 7.6993787,7.6076427 9.2295527,7.2476877 13.051544,6.3504085 13.434557,6.5569914 14.43012,10.598921 c 0.473054,1.920803 0.528873,3.720579 0.296206,5.651816 -0.494025,4.102443 -1.655167,6.097324 0.62027,8.506415 0.946317,1.001614 1.935411,1.153942 4.096184,0.708433 1.534765,-0.316135 1.839422,-1.028741 2.483168,-3.154041 0.452813,-1.496161 0.810681,-2.836863 0.69487,-4.327807 -0.23058,-2.959978 -3.430528,-8.5231085 0.426729,-9.9055444 0.711563,-0.2545769 1.637013,-0.088685 2.435174,0.085554 1.074648,0.2347533 1.257234,0.1283318 1.824815,-1.0621281 C 27.772869,6.1219149 28.31228,5.2215057 28.608591,4.1677243 29.721843,0.21343588 28.018056,-0.90294632 24.599005,0.71737298 20.677061,2.5755755 18.914846,10.537363 19.752654,15.875131 c 0.256664,2.199378 0.538368,4.180694 0.538368,4.180694 0,0 -0.234753,-0.0021 -0.514371,-0.03026 -1.097602,-0.107466 -2.983975,-1.565022 -3.090396,-3.594333 z m 68.734714,53.568609 4.033582,4.034626 6.026378,-6.025334 -6.026378,-6.025334 -4.033582,4.033583 -4.034627,-4.033583 -6.025334,6.025334 6.025334,6.025334 4.034627,-4.034626 z m -8.969662,-40.981661 -6.025334,6.025334 6.025334,6.025334 6.025334,-6.025334 -6.025334,-6.025334 z m 31.600913,-6.832885 -6.02533,6.025334 6.02533,6.025334 6.02534,-6.025334 -6.02534,-6.025334 z M 100.67784,7.4469671 c 0.0595,0 0.0876,0 0.0876,0 0.93797,0 1.10907,-0.053211 1.71317,-0.5331507 1.91454,-1.5222445 1.79456,-3.9355082 -0.0981,-6.38320222 -1.21446,-1.57023848 -3.351235,0.66148252 -4.776449,2.58332932 -0.74495,1.004744 -1.419996,2.3850932 -1.671443,3.7560523 -0.26501,1.4356466 -0.202409,2.4299571 -1.267667,1.8300321 C 93.88244,8.2597351 93.044631,6.9513769 92.629379,5.8224745 91.52656,2.8259795 90.925592,1.615696 87.149716,1.7294209 c -1.332355,0.039647 -1.317748,1.055868 -1.317748,3.3522766 0,0.4715933 0,0.5571478 0,0.5571478 0,0.052167 0,0.1022481 10e-4,0.1502421 0.104335,4.1733914 0.525847,3.9615918 1.300011,3.4284411 1.544155,-1.0663016 3.843694,-0.060514 4.814007,1.3949555 0.03026,0.04486 0.05947,0.08973 0.08764,0.135636 0.968226,1.527461 2.044961,4.006456 3.647544,5.050847 1.040218,0.678176 1.364699,-0.297354 1.465903,-0.980747 0.459073,-3.10396 1.527462,-7.3712529 3.529647,-7.3712529 z" />
</svg>
