<?xml version="1.0" encoding="UTF-8" standalone="yes"?>
<svg xmlns="http://www.w3.org/2000/svg" xmlns:xlink="http://www.w3.org/1999/xlink"
  width="595.276pt" height="841.89pt" viewBox="0 0 595.276 841.89">
  <path
     style="fill:#000000;stroke:none"
     d="m 18.443301,51.904614 0.481,-0.009 c 0.216999,-0.004 0.274999,-0.136 0.580999,-1.317998 1.760997,-6.796997 2.081997,-10.550999 -2.248997,-14.909993 -0.712999,-0.717998 -1.543997,-1.319998 -2.079996,-0.676999 -0.363,0.437 -0.733999,3.518995 -0.568,4.190994 0.29,1.177006 1.147999,1.559005 2.138997,2.358004 2.238997,1.804997 2.799996,3.158995 2.514996,5.562991 -0.218999,1.844998 -0.818999,4.802001 -0.818999,4.802001 z m 37.290974,-10.892991 0.481999,-0.009 c 0.217,-0.004 0.275,-0.135 0.580999,-1.317006 1.759998,-6.797989 2.081997,-10.550991 -2.248996,-14.910985 -0.714007,-0.717998 -1.545006,-1.319997 -2.080005,-0.676998 -0.362999,0.436999 -0.733999,3.518994 -0.568999,4.191993 0.29,1.176998 1.147998,1.558998 2.139997,2.358004 2.238004,1.803997 2.799003,3.158995 2.515004,5.562992 -0.219,1.843997 -0.819999,4.801 -0.819999,4.801 z M 37.265288,33.391627 c -0.03496,-0.961999 -0.143,-2.170997 -0.459999,-2.473996 -0.183,-0.177 -0.436,-0.04896 -0.594999,-0.144 -0.713999,-0.429007 0.500999,-2.196004 1.078998,-2.871003 5.252992,-6.131991 18.863986,-13.743987 26.055975,-15.317984 0.685999,-0.151 1.371006,-0.272 1.500006,-0.04 0.06504,0.115999 -0.008,0.317999 -0.119,0.546999 -0.26,0.536999 -0.675007,1.187998 -1.137006,1.884997 -9.577993,14.462985 5.529999,-5.6089995 9.816992,-6.1719985 0.392,-0.194 0.760007,-0.35 1.087007,-0.453 1.667997,-0.524999 3.474994,-0.635999 3.693994,-2.235996 0.03096,-0.224 0.03504,-0.503999 0.02696,-0.774999 -0.072,-2.618996 -4.347001,-1.365998 -7.359997,-0.22 -2.787995,1.059999 -6.928997,2.807996 -11.32099,4.839993 -5.682999,2.6290045 -22.69698,10.5209995 -25.091977,17.3759885 -0.771006,2.208997 -0.628007,4.684001 0.909999,6.812998 0.066,0.091 0.126,0.174 0.181,0.247999 -0.693999,-0.942998 1.881997,3.021996 1.732997,-1.005998 z m -9.927992,-19.417986 -0.12,-2.760995 c -0.04904,-1.116007 -0.03296,-1.3160065 0.160999,-1.9990055 0.144,-0.507999 0.295,-1.061998 0.679999,-1.419998 0.937999,-0.870999 3.259995,-0.569999 4.335994,-1.286998 1.549997,-1.032998 1.550997,-4.581993 0.357999,-6.01999798 -1.263998,-1.52499802 -3.820994,0.89700598 -4.868992,2.28300398 -0.642999,0.850999 -1.251998,1.826997 -1.526998,2.964995 -0.127,0.528 -0.197,1.126999 -0.295999,1.650998 l -0.487,2.567996 -1.606005,-2.043997 c -2.198997,-2.895996 -1.527998,-3.755994 -4.758993,-4.543993 -1.082998,-0.264 -3.430994,-0.165 -3.881994,1.053998 -0.352999,0.953999 0.476,3.272995 0.994999,3.823994 0.399999,0.423 2.016997,1.473998 2.683996,1.538998 1.091998,0.105 3.321994,-0.558999 3.321994,-0.558999 0,0 1.798998,2.5900045 2.899004,3.8070025 0.478999,0.530999 0.875998,0.957998 1.490997,0.969998 0.254,0.0048 0.62,-0.02696 0.62,-0.02696 z M 19.6483,29.598625 c -0.03496,-0.961999 -0.144,-2.170997 -0.46,-2.473996 -0.182999,-0.177 -0.435999,-0.04896 -0.594999,-0.144 C 17.879302,26.55263 19.0933,24.784632 19.6723,24.109634 24.924299,17.978635 38.536286,10.365639 45.728283,8.7916415 c 0.684999,-0.15 1.369998,-0.272 1.499997,-0.04 0.064,0.115999 -0.009,0.317999 -0.118999,0.546999 -0.26,0.536999 -0.675999,1.1880065 -1.136999,1.8850055 -9.577993,14.462985 5.529992,-5.6079995 9.816993,-6.1719995 0.391999,-0.193999 0.759999,-0.349999 1.085998,-0.452999 1.668998,-0.524999 3.474995,-0.635999 3.694994,-2.235996 0.03,-0.224 0.03496,-0.503 0.02696,-0.774999 -0.07304,-2.619004 -4.347993,-1.36600598 -7.359996,-0.22 -2.788996,1.059999 -6.928989,2.807996 -11.32099,4.839993 C 36.23325,8.7966415 19.21826,16.688637 16.824264,23.543634 c -0.770999,2.208997 -0.627999,4.683993 0.909999,6.81299 0.066,0.09101 0.125999,0.174007 0.179999,0.248007 -0.693999,-0.943006 1.882997,3.021996 1.733998,-1.006006 z m 74.127937,49.536967 c 0.163,2.255 1.215006,3.65799 3.129003,4.06299 2.469996,0.522 3.86599,-0.817 4.49899,-3.526 0.139,-0.59399 0.107,-1.08999 -0.275,-1.32899 -0.727,-0.454 -2.724992,0.018 -3.690991,-0.495 -1.201998,-0.638002 -1.506997,-3.351998 -1.209998,-4.619996 0.298,-1.268998 1.055998,-2.628995 1.261998,-3.608002 0.042,-0.198 0.06096,-0.379999 -0.02496,-0.481999 -0.01104,-0.01304 -0.022,-0.02496 -0.03296,-0.036 -2.905995,-0.662999 -3.612002,10.641987 -3.656002,10.032997 z m -77.650932,0.21199 3.961994,3.962 5.796999,-5.797992 -5.796999,-5.796991 -3.961994,3.960994 -3.961002,-3.960994 -5.7979908,5.796991 5.7979908,5.797992 3.961002,-3.962 z m 84.516925,-50.245956 -5.797987,5.796999 5.797987,5.797999 5.798,-5.797999 -5.798,-5.796999 z m -85.612923,39.24997 1.144998,-0.05 c 1.323998,-0.058 9.611993,-0.081 10.572991,-0.235999 1.765998,-0.286 6.76599,-2.670996 7.346989,-3.770995 0.173,-0.326999 0.256008,-0.496999 0.825007,-1.694997 1.785997,-3.755002 4.954992,-10.213992 4.951992,-11.44299 -0.0016,-0.628999 -1.380998,-4.902 -2.773996,-7.248997 -1.041998,-1.756997 -3.091003,-4.420001 -3.091003,-4.420001 0,0 -1.639997,3.341003 -2.516996,5.402 -2.050997,4.819992 0.630999,4.050994 3.152003,10.278992 0.773999,1.913997 0.216,2.234996 -1.593005,2.919995 -4.361994,1.650998 -15.594984,2.445004 -19.444986,0.557999 C 10.772306,57.258606 10.394306,56.103607 9.0643082,52.888612 8.7833086,52.210613 8.4693091,51.510615 8.3563093,50.770616 8.2033095,49.774609 8.1753096,49.51661 8.0783097,48.195612 L 4.544315,0.01764652 c 0,0 -1.1450062,-0.07 -1.6380054,0.072 -0.3349995,0.096 -0.3689994,0.29 -0.4699993,0.565007 C 2.1823107,1.3496525 1.5043118,2.5586505 1.1113124,3.6566495 c -0.29699953,0.827998 -0.43199929,1.592997 -0.6819989,2.336996 -0.0749599,0.225 -0.16099975,0.447999 -0.29599953,0.643999 -0.18099972,0.264 -0.17899972,0.438999 0.014,1.749997 0,0 0.76699878,5.2100005 1.47099763,9.9939935 0.1119998,0.760998 0.2169997,1.469997 0.3159995,2.133004 0.2649996,1.781997 1.1269983,12.823988 1.2199981,15.743983 0.046,1.450998 0.1199998,3.244995 0.2299997,5.466 0.2039996,4.130993 0.5289991,8.981994 1.0760063,13.219987 1.1329982,8.788994 2.8749955,13.742987 10.5689918,13.406987 z M 79.997253,47.479613 c 0.513997,0.764999 0.835996,1.237998 0.835996,1.237998 0,0 -1.398995,0.930998 -3.240992,1.730005 -1.021999,0.444 -10.887991,2.420996 -14.445994,0.996999 -1.842997,-0.736999 -3.784994,-1.761006 -4.442993,-2.200005 -0.873998,-0.582999 -1.545997,-1.178998 -2.173996,-2.157997 -1.118999,-1.745997 -1.292998,-2.447996 -2.395004,-2.273996 -0.263,0.042 -0.36,0.178 -0.968999,1.357998 -2.548996,4.933 -3.167995,6.003999 -1.374998,9.096994 0.173,0.298999 4.820001,8.831994 4.135002,10.305991 -0.137,0.295 -0.441,0.567 -0.800999,0.832999 -12.067997,8.933994 -22.685988,14.275993 -37.336973,18.672983 -5.595,1.68 -8.5079952,0.775 5.005992,4.12199 4.330001,1.07301 6.593997,0.665 12.401996,-2.13399 4.174994,-2.011 16.364983,-9.11799 19.721985,-13.407986 1.756998,-2.244997 2.959996,-4.578001 3.316995,-7.283997 0.284,-2.146996 0.396999,-5.493991 0.410999,-5.94999 2.096997,1.658997 12.759988,0.01504 12.804988,0.004 3.794002,-0.887007 7.909996,-2.140005 9.298991,-4.385002 0.903999,-1.461997 1.193998,-3.621994 2.046997,-5.416991 1.447006,-3.046003 2.530004,-4.956 1.330006,-8.131995 -0.642007,-1.697998 -2.148005,-3.663003 -3.627002,-5.591 l -0.187,0.094 c -0.07696,-0.170999 -0.144,-0.337999 -0.201,-0.501999 -0.141997,-0.402999 -0.221997,-0.783999 -0.04304,-0.980998 0.680999,-0.751999 2.419997,0.747998 3.403995,1.109998 2.206005,0.812999 5.201,-0.741999 5.878999,-2.330996 0.240999,-0.566 0.277999,-1.143999 0.022,-2.024997 -0.701999,-2.417004 -2.299997,-6.692998 3.996994,-4.748001 1.372005,0.423 1.924005,0.882999 -0.309,-1.330998 -1.145998,-1.134998 -2.263996,-1.703997 -3.396995,-1.846997 -4.579992,-0.578999 -8.557994,3.682994 -6.712997,6.937997 0.168,0.297 0.315999,0.598999 0.410999,0.895999 0.108,0.339999 0.149,0.674999 0.032,0.735999 -0.094,0.04896 -0.289999,-0.07896 -0.500999,-0.224 -0.401999,-0.274 -0.877999,-0.643999 -1.364998,-1.061998 0.37,0.316999 -6.590987,-7.381997 -6.960987,-7.698996 0,0 4.138994,-3.236995 7.294987,-5.336 3.309002,-2.200996 14.778992,-7.905987 18.302982,-8.9469945 2.209,-0.651999 6.004,-1.251998 4.56201,2.4010045 -0.85401,2.162997 -2.96901,5.433992 -3.28501,6.56599 -0.101,0.358 -0.117,0.638999 0.032,0.735999 0.394,0.258 1.407,-0.550999 1.985,-1.175998 2.984,-3.227995 4.181,-9.8819935 5.176,-14.8609855 0.342,-1.709997 -0.135,-2.79800398 -3.73999,-3.27600298 C 100.11319,-0.59835248 85.69921,7.4056435 81.886208,9.6396395 74.270222,14.101641 70.13222,16.542637 69.240222,23.861634 c -0.074,0.606999 -0.093,1.146998 -0.068,1.661997 0.171,3.619995 7.836996,17.509989 10.824991,21.955982 z m -14.003986,27.89398 c 3.161995,7.278989 10.392992,11.720989 17.266978,3.541999 2.293005,-2.729 3.363003,-5.792995 5.235,-9.279998 1.613998,-3.004995 8.072996,-11.65299 12.104985,-13.364987 1.912,-0.810999 4.27001,-0.745999 5.724,-1.607997 0.744,-0.44 2.276,-3.763994 2.786,-6.044999 0.057,-0.253 0.106,-0.511999 0.144,-0.765999 0.555,-3.717994 -3.826,-2.435996 -5.905,-1.490997 -3.972994,1.804997 -7.696988,5.557999 -10.403992,9.015993 -8.628986,11.020991 -6.06699,12.995988 -15.068982,19.636986 -3.066995,2.262996 -5.722999,2.387996 -8.578994,-0.502 -0.521999,-0.528999 -1.039999,-1.324997 -1.481998,-2.229996 -3.307995,-6.764997 1.870997,-19.532985 1.695997,-18.598987 0.247,-1.317998 0.414,-2.213996 0.414,-2.213996 0,0 -0.326,0.120999 -0.615999,0.275999 -0.743999,0.397 -1.323998,1.544998 -1.849997,2.680996 -1.972997,4.261993 -4.735001,13.424987 -1.465998,20.947983 z" />
</svg>