<?xml version="1.0" encoding="UTF-8" standalone="no"?>
<!-- Created with Inkscape (http://www.inkscape.org/) -->

<svg
   xmlns:dc="http://purl.org/dc/elements/1.1/"
   xmlns:cc="http://creativecommons.org/ns#"
   xmlns:rdf="http://www.w3.org/1999/02/22-rdf-syntax-ns#"
   xmlns:svg="http://www.w3.org/2000/svg"
   xmlns="http://www.w3.org/2000/svg"
   xmlns:sodipodi="http://sodipodi.sourceforge.net/DTD/sodipodi-0.dtd"
   xmlns:inkscape="http://www.inkscape.org/namespaces/inkscape"
   width="744.09448819"
   height="1052.3622047"
   id="svg2"
   version="1.1"
   inkscape:version="0.48.0 r9654"
   sodipodi:docname="寿.svg">
  <defs
     id="defs4" />
  <sodipodi:namedview
     id="base"
     pagecolor="#ffffff"
     bordercolor="#666666"
     borderopacity="1.0"
     inkscape:pageopacity="0.0"
     inkscape:pageshadow="2"
     inkscape:zoom="2.0432097"
     inkscape:cx="87.390625"
     inkscape:cy="966.36218"
     inkscape:document-units="px"
     inkscape:current-layer="layer1"
     showgrid="false"
     inkscape:window-width="1280"
     inkscape:window-height="716"
     inkscape:window-x="-8"
     inkscape:window-y="-8"
     inkscape:window-maximized="1" />
  <metadata
     id="metadata7">
    <rdf:RDF>
      <cc:Work
         rdf:about="">
        <dc:format>image/svg+xml</dc:format>
        <dc:type
           rdf:resource="http://purl.org/dc/dcmitype/StillImage" />
        <dc:title></dc:title>
        <dc:source>http://pic1.ooopic.com/uploadfilepic/shiliang/2009-09-12/OOOPIC_350382584_20090912819a0beb02c668a8.jpg</dc:source>
      </cc:Work>
    </rdf:RDF>
  </metadata>
  <g
     inkscape:label="Layer 1"
     inkscape:groupmode="layer"
     id="layer1">
    <path
       style="fill:#ff0000"
       d="m 81.90625,0 0,56.6875 -63,0 c 0,-0.33207 1.69088,-4.10082 3.75,-8.03125 9.40831,-15.223429 22.46715,-25.833211 38.75,-32.625 l 0.15625,27.5625 -16.875,0 c 3.33245,-3.785728 7.05114,-6.965999 11.53125,-9.3125 l 0,-7.28125 c 0,0 -5.06123,2.227431 -12.375,8.0625 -2.55212,2.036131 -6.47133,6.53743 -8.8125,9.875 l -4.25,6.0625 42.125,0 0,-50.09375 C 51.57465,4.6916005 27.90778,19.653063 14.03125,40.4375 9.7646105,47.01106 2.97575,62.84563 2.9375,65.6875 l 78.96875,0 0,9.3125 L 0.375,76.0625 C -0.59667,83.023697 -0.90432,90.229416 0.9375,97 l 80.96875,0 0,9 -79.21875,0 c 1.4593,6.35217 7.550631,19.67513 13.28125,28.125 7.06341,10.45356 19.37439,21.68048 29.59375,27.03125 9.3645,4.90316 16.10159,7.47189 23.09375,8.78125 l 4.25,0.8125 0,-50.75 -42.125,0 c 5.34067,8.87342 13.12249,18.1047 22.125,23 l 3.53125,1.75 0,-7.1875 c 0,0 -1.02973,-0.76645 -5,-4.28125 -2.73838,-2.42423 -6.125,-5.40625 -6.125,-5.40625 l 16.46875,0 0,27.5 c 0,0 -11.28502,-4.57201 -17.125,-8.53125 C 34.1466,139.7187 24.4755,128.49536 20.4375,118.75 L 18.875,115 l 63.03125,0 0,57 c 3.65625,0 7.3125,0 10.96875,0 l 0,-57 63.03125,0 -1.5625,3.75 c -4.038,9.74536 -13.7091,20.9687 -24.21875,28.09375 C 124.28502,150.80299 113,155.375 113,155.375 l 0,-27.5 16.46875,0 c 0,0 -3.38662,2.98202 -6.125,5.40625 -3.97027,3.5148 -5,4.28125 -5,4.28125 l 0,7.1875 3.53125,-1.75 c 9.00251,-4.8953 16.78433,-14.12658 22.125,-23 l -42.125,0 0,50.75 4.25,-0.8125 c 6.99216,-1.30936 13.72925,-3.87809 23.09375,-8.78125 10.21936,-5.35077 22.53034,-16.57769 29.59375,-27.03125 5.73062,-8.44987 11.82195,-21.77283 13.28125,-28.125 l -79.21875,0 0,-9 80.96875,0 c 1.84182,-6.770584 1.53417,-13.976303 0.5625,-20.9375 L 92.875,75 l 0,-9.3125 78.96875,0 C 171.8055,62.84563 165.01664,47.01106 160.75,40.4375 146.87347,19.653063 123.2066,4.6916005 101.875,0.90625 L 101.875,51 144,51 139.75,44.9375 c -2.34117,-3.33757 -6.26038,-7.838869 -8.8125,-9.875 C 123.62373,29.227431 118.5625,27 118.5625,27 l 0,7.28125 c 4.48011,2.346501 8.1988,5.526772 11.53125,9.3125 l -16.875,0 0.15625,-27.5625 c 16.28285,6.791789 29.34169,17.401571 38.75,32.625 2.05912,3.93043 3.75,7.69918 3.75,8.03125 l -63,0 L 92.875,0 C 89.21875,0 85.5625,0 81.90625,0 z m -69,83 148.96875,0 0,6 -148.96875,0 z"
       id="path3269"
       inkscape:connector-curvature="0"
       sodipodi:nodetypes="cccccccccsccccccccccccccscccccccscccsccccccccscccscccccccsccccccccccccccsccccccccccccccc"
       inkscape:export-xdpi="16.22093"
       inkscape:export-ydpi="16.22093" />
  </g>
</svg>
