<?xml version="1.0" encoding="UTF-8" standalone="yes"?>
<!-- Created with sK1/UniConvertor (http://sk1project.org/) -->
<svg xmlns="http://www.w3.org/2000/svg" xmlns:xlink="http://www.w3.org/1999/xlink"
  width="595.276pt" height="841.89pt" viewBox="0 0 595.276 841.89"
  fill-rule="evenodd">
  <path
     style="fill:#000000;stroke:none"
     d="m 0.24439617,7.8449826 c 0,0 3.82291843,-1.248973 5.33888603,-0.903981 0.798983,0.181996 1.6259653,1.620965 2.1449542,2.722942 0.9419802,2.0009574 1.8499608,4.5779024 2.1949534,6.6238584 0.1149972,0.680986 0.2389952,1.308973 0.9399802,1.548967 0.44099,0.149997 1.112976,0.159997 1.112976,0.159997 0,0 0.0016,-0.01104 0.0056,-0.03096 0.333993,-1.88596 1.079977,-5.047893 1.269973,-6.954852 0.199996,-2.0029574 0.154996,-2.6979424 1.85996,-2.5709454 2.577945,0.190996 3.452926,0.645986 4.585902,-1.41097 1.015979,-1.8449603 2.128955,-5.60988 0.355993,-6.83085393 -5.485883,-1.47796847 -7.53384,5.73987793 -7.877832,7.39184193 -0.48499,2.33295 -0.687986,4.8338974 -0.687986,4.8338974 0,0 -1.343971,-4.3189084 -2.3329498,-6.6528584 C 8.04283,3.1471228 5.172891,-0.38780183 2.076957,0.49617927 0.53898988,0.93416997 -9.9859469e-4,2.1921431 1.3859302e-6,3.8571076 8.013669e-4,5.3900749 0.24399618,7.8450226 0.24399618,7.8450226 z" />
</svg>
