<?xml version="1.0" encoding="UTF-8" standalone="yes"?>
<!-- Created with sK1/UniConvertor (http://sk1project.org/) -->
<svg xmlns="http://www.w3.org/2000/svg" xmlns:xlink="http://www.w3.org/1999/xlink"
  width="595.276pt" height="841.89pt" viewBox="0 0 595.276 841.89"
  fill-rule="evenodd">
  <path
     style="fill:#000000;stroke:none"
     d="M 6.4728453,34.344353 C 6.4316454,33.227356 6.3056458,31.82536 5.9387469,31.473361 5.7260475,31.268362 5.4324484,31.416361 5.2482489,31.306362 4.4199513,30.809363 5.8289472,28.758369 6.5003452,27.974371 12.594627,20.860392 28.388581,12.028418 36.733557,10.200423 c 0.795998,-0.173999 1.589996,-0.313999 1.740995,-0.045 0.074,0.134 -0.01,0.368999 -0.138,0.633998 -0.301999,0.623999 -0.783997,1.377996 -1.319996,2.186994 -11.112967,16.781951 6.416982,-6.506981 11.390967,-7.161979 0.454999,-0.223999 0.881998,-0.404999 1.260996,-0.524998 1.934995,-0.608999 4.031989,-0.737998 4.285988,-2.593993 0.036,-0.259999 0.041,-0.584998 0.032,-0.898997 -0.084,-3.0399915 -5.043985,-1.5859958 -8.539975,-0.256 C 42.210541,2.770445 37.406555,4.798439 32.31057,7.156432 25.716589,10.207423 5.9739468,19.364396 3.1958549,27.318373 2.3006575,29.881366 2.467057,32.753358 4.2516518,35.22335 c 0.076504,0.106 0.1459996,0.202 0.2093994,0.287999 -0.8055977,-1.093996 2.1839936,3.50599 2.0117941,-1.166996 z m 20.7217397,4.767986 0.558998,-0.01 c 0.251,-0.004 0.317999,-0.157 0.672998,-1.527996 2.042994,-7.887977 2.415993,-12.242964 -2.608992,-17.300949 -0.827998,-0.832998 -1.791995,-1.531996 -2.412993,-0.785998 -0.421999,0.506999 -0.851998,4.082988 -0.659998,4.863986 0.335999,1.364996 1.331996,1.807995 2.481993,2.735992 2.597992,2.093994 3.24899,3.664989 2.917991,6.453981 -0.252999,2.140994 -0.949997,5.570984 -0.949997,5.570984 z M 14.035623,16.213406 13.895624,13.010415 c -0.057,-1.294996 -0.038,-1.526996 0.186999,-2.319993 0.167,-0.588999 0.342999,-1.231997 0.788998,-1.646996 1.087997,-1.010997 3.781989,-0.660998 5.030985,-1.493995 1.798995,-1.197997 1.799995,-5.315985 0.415999,-6.98498 -1.466996,-1.7689946 -4.433987,1.040997 -5.649984,2.648993 -0.745998,0.987997 -1.452995,2.119993 -1.770995,3.44099 -0.147999,0.611998 -0.228999,1.306996 -0.343999,1.915994 L 11.988629,11.549419 10.124735,9.177426 C 7.5733421,5.817436 8.3514397,4.819439 4.6023508,3.905442 c -1.2560964,-0.306 -3.98018848,-0.192 -4.50378696,1.222996 -0.40969881,1.105997 0.5521984,3.797989 1.15469666,4.436987 0.4632987,0.490999 2.3393932,1.710995 3.114391,1.785995 1.2662963,0.121999 3.8537886,-0.648998 3.8537886,-0.648998 0,0 2.0882939,3.005991 3.3641899,4.416987 0.555999,0.615998 1.016997,1.111997 1.729995,1.125997 0.294999,0.005 0.719998,-0.032 0.719998,-0.032 z" />
</svg>
