<?xml version="1.0" encoding="UTF-8" standalone="yes"?>
<!-- Created with sK1/UniConvertor (http://sk1project.org/) -->
<svg xmlns="http://www.w3.org/2000/svg" xmlns:xlink="http://www.w3.org/1999/xlink"
  width="595.276pt" height="841.89pt" viewBox="0 0 595.276 841.89"
  fill-rule="evenodd">
  <path
     style="fill:#000000;stroke:none"
     d="m 13.38945,5.8214625 c 0.028,-0.1490015 0.062,-0.3520035 0.006,-0.4540045 -0.104001,-0.1900018 -0.520005,-0.033 -0.938009,0.1710017 -1.175012,0.5750057 -2.362023,1.524015 -3.5470349,2.196022 C 8.3734009,8.0394847 7.767395,8.3464877 7.1293888,8.5854897 5.2873706,9.2744967 2.4403426,9.5444997 3.6383544,6.9054727 4.2873608,5.4764591 6.2793804,4.0124447 6.7593851,2.8604333 7.0163876,2.2414273 6.646384,0.58941097 5.8163758,0.15440667 4.6703645,-0.44559923 2.1623399,0.84741347 1.5293336,1.5574205 0.68732536,2.5014298 -0.47368607,4.9824542 0.20332059,5.2964573 0.56332414,5.464459 1.5113334,4.8084525 2.380342,4.5974505 c 0.3700036,-0.090001 0.7250071,-0.099001 0.8480083,0.059 0.1340014,0.1740017 -0.012,0.5510055 -0.2170021,0.9470094 C 1.7293356,8.0814847 -0.29668433,9.7115007 0.20232058,11.401518 1.6963353,16.460568 9.5544125,9.2074957 12.36844,6.8614727 13.250449,6.1274655 13.35245,6.0234645 13.38945,5.8214625 z" />
</svg>