<?xml version="1.0" encoding="UTF-8" standalone="yes"?>
<!-- Created with sK1/UniConvertor (http://sk1project.org/) -->
<svg xmlns="http://www.w3.org/2000/svg" xmlns:xlink="http://www.w3.org/1999/xlink"
  width="595.276pt" height="841.89pt" viewBox="0 0 595.276 841.89"
  fill-rule="evenodd">
  <path
     style="fill:#000000;stroke:none"
     d="M 2.8084444,5.5452394 C 1.7524327,7.0992566 0.24741611,8.27127 0.55141947,9.504283 1.2824275,12.467316 6.0804806,11.351304 8.191505,10.381293 9.2875171,9.878287 11.062537,8.176269 11.447541,7.259258 c 0.157002,-0.3760038 0.266003,-0.7750082 0.071,-0.8700092 -0.124002,-0.060001 -0.373004,0.004 -0.628007,0.092001 C 9.9725247,6.8002533 8.9695136,7.44326 7.9735015,7.818265 6.2844828,8.455272 3.8704562,8.686274 3.3184501,7.1192568 3.2054488,6.7992533 3.2414492,6.4752497 3.3984509,6.1472461 4.4164622,4.0142225 7.2834939,3.2052136 6.7704882,1.6111959 6.0624804,-0.58582829 3.4884519,-0.21682419 2.0414359,0.83518731 c -0.016,0.011 -2.7080299,2.58402859 -1.8850208,3.05703379 0.13000144,0.075001 0.39300435,0.029 0.65900727,-0.050001 C 1.2964277,3.700219 1.7924332,3.4492163 2.3954398,3.334215 3.3944509,3.1432129 3.5364525,3.698219 3.4354513,4.2702253 3.3234501,4.9072324 2.8384447,5.5002389 2.8084444,5.5452394 z" />
</svg>
