<?xml version="1.0" encoding="UTF-8" standalone="yes"?>
<!-- Created with sK1/UniConvertor (http://sk1project.org/) -->
<svg xmlns="http://www.w3.org/2000/svg" xmlns:xlink="http://www.w3.org/1999/xlink"
  width="595.276pt" height="841.89pt" viewBox="0 0 595.276 841.89"
  fill-rule="evenodd">
  <path
     style="fill:#000000;stroke:none"
     d="m 4.2644018,13.08119 c -0.78601,4.853048 -3.51203998,12.185121 0.96201,14.412144 3.22403,1.605019 5.5390502,0.210002 6.2410602,-3.273033 0.255,-1.267013 0.112,-2.109021 -0.85901,-2.626026 -1.6220202,-0.862009 -5.2320502,-0.631007 -6.1060602,-1.586016 -0.322,-0.353004 -0.305,-0.863009 -0.191,-1.493015 0.90401,-4.96705 2.10802,-5.617056 1.59001,-9.4610942 -0.247,-1.835019 -1.97502,-10.2681031 -4.40004,-8.90608946 -1.27900998,0.7190072 -1.85401998,3.31903346 -1.27700998,4.21804246 0.335,0.522005 1.11200998,1.07201 1.63400998,1.663016 1.03701,1.175012 2.69203,5.2850532 2.40603,7.0520712 z" />
</svg>
