<?xml version="1.0" encoding="UTF-8" standalone="yes"?>
<!-- Created with sK1/UniConvertor (http://sk1project.org/) -->
<svg xmlns="http://www.w3.org/2000/svg" xmlns:xlink="http://www.w3.org/1999/xlink"
  width="595.276pt" height="841.89pt" viewBox="0 0 595.276 841.89"
  fill-rule="evenodd">
  <path
     d="m 2.4843979,12.603549 c 0.403182,2.458894 1.1550495,6.408721 0.7851654,7.425674 -0.272688,0.749975 -0.8247641,1.303948 -1.3325415,1.968914 -2.11820774,2.774881 -2.4260937,6.028742 -1.27934423,9.769575 1.22404613,3.992828 5.52345823,2.328901 9.43558743,-0.151993 2.331398,-1.478933 8.028649,-5.526753 9.261395,-8.175641 0.0681,-0.146993 0.131794,-0.296987 0.191292,-0.45098 -0.536077,-2.043914 -2.199304,0.05504 -2.204404,0.058 C 10.973526,27.398905 4.2956181,30.032793 2.2116099,29.215826 1.7476297,29.033832 1.5154404,28.550852 1.805827,27.527899 1.9898191,26.878925 2.3667025,26.203959 2.4516992,26.101958 3.383758,24.976012 5.3188737,23.829057 6.5141212,22.523118 7.2651887,21.70215 7.7240688,20.81819 8.5162338,20.260217 9.51919,19.554251 11.056423,19.370258 12.235171,18.843277 15.288738,17.478337 17.642835,13.783504 17.932822,10.89363 18.4527,5.7128557 15.68062,4.0059277 11.13362,0.83506764 10.526446,0.41108784 10.037267,0.07610084 9.028412,0.01210024 c -1.0594546,-0.0669606 -2.6918828,0.1649935 -2.6918828,0.1649935 0,0 -0.082997,2.49689396 0.2614887,4.27481396 0.3850827,1.986914 1.3046429,3.075868 1.6965259,4.404807 0.087196,0.295987 0.1482934,0.603974 0.043496,0.710967 -0.1079954,0.110001 -0.391883,0.0072 -0.663171,-0.163994 -2.1318071,-1.34894 -2.2427017,-3.274853 -3.9371281,-2.408893 -0.9318587,0.47698 -1.3606401,1.591934 -1.4329368,3.1188683 -0.046096,0.973952 -0.028096,1.222947 0.179592,2.489886 z M 9.6474847,6.7118077 9.5278901,5.6898547 c 0,0 0.6682709,-0.116993 1.1373499,-0.07 0.597174,0.06096 0.871362,0.389987 1.230346,0.702974 2.101408,1.83592 4.830689,2.555887 3.64794,4.3938073 -0.190191,0.294987 -1.374639,1.521934 -2.422993,2.419894 -1.427638,1.222947 -2.305299,1.504933 -2.165405,-0.026 0.21749,-2.376893 -1.3561413,-6.8137003 -1.3076433,-6.3987213 z m -2.383396,8.6306213 -1.2644449,0.07704 c -0.5680747,0.03496 -0.6653708,0.028 -0.9723575,-0.06304 C 4.4735109,15.192436 3.7746415,14.616463 3.5064527,14.06749 3.3769587,13.802496 3.3595593,13.722503 3.3317607,13.267523 l -0.061897,-1.010953 1.0115555,-0.062 c 0.4544801,-0.028 0.5359768,-0.02 0.8147649,0.076 0.7795654,0.268986 2.0207117,1.594926 2.0983076,1.933913 0.1111954,0.485981 0.069601,1.137946 0.069601,1.137946 z"
     style="fill:#000000;stroke:none" />
</svg>