<?xml version="1.0" encoding="UTF-8" standalone="yes"?>
<!-- Created with sK1/UniConvertor (http://sk1project.org/) -->
<svg xmlns="http://www.w3.org/2000/svg" xmlns:xlink="http://www.w3.org/1999/xlink"
  width="595.276pt" height="841.89pt" viewBox="0 0 595.276 841.89"
  fill-rule="evenodd">
  <path
     d="m 11.032409,23.162047 c 0.488381,-0.627976 1.064758,-1.404946 1.783928,-2.387903 1.28575,-1.758934 2.066818,-3.323874 2.451403,-4.293831 l 0.714772,-1.803927 1.827227,-0.429982 c 1.522539,-0.357988 3.296869,-0.438989 4.273129,-1.297953 0.138095,-0.121993 2.160015,-4.2208303 1.730631,-5.9447643 C 23.550511,5.9477287 21.77878,3.7388207 21.192904,3.2798387 19.221083,1.7348983 14.957852,-3.6104905e-5 14.957852,-3.6104905e-5 c 0,0 -0.618175,0.889971504905 -1.324047,2.108923304905 -4.478322,7.7316915 -3.102876,9.4156178 -0.870565,11.1365518 0.856465,0.689977 1.353846,1.54394 1.185053,2.116916 -0.0438,0.147994 -0.130895,0.330988 -0.251791,0.536983 C 5.4115324,27.483871 -2.5946492,30.595751 0.79911623,29.897774 4.9997487,29.033811 10.336437,24.057011 11.032409,23.162047 z M 12.99583,9.2146027 c -0.339986,-0.199994 -0.558377,-0.361988 -0.560477,-0.371989 -0.0937,-0.448981 0.0507,-1.450938 0.0507,-1.450938 0,0 1.550839,0.054 2.091818,0.07296 0.376585,0.01296 0.549277,0.479982 0.623475,0.900963 0.47228,2.6858993 -2.052919,0.937964 -2.205513,0.848971 z m 3.817249,0.8349633 0.116395,-0.7529703 c 0.130195,-0.840963 0.114696,-1.809927 -0.062,-2.545897 -0.0022,-0.009 -0.0044,-0.018 -0.0066,-0.02696 0,0 0.0169,-0.484982 0.0169,-0.484982 0,0 0.201292,-0.018 0.466482,-0.014 0.840566,0.012 1.932323,0.756969 2.537199,1.309953 0.947162,0.866963 1.50704,2.280909 -0.279189,2.372902 -0.642975,0.032 -1.443243,0.07296 -2.00272,0.1019933 l -0.786469,0.04 z"
     style="fill:#000000;stroke:none" />
</svg>
