<?xml version="1.0" encoding="UTF-8" standalone="yes"?>
<!-- Created with sK1/UniConvertor (http://sk1project.org/) -->
<svg xmlns="http://www.w3.org/2000/svg" xmlns:xlink="http://www.w3.org/1999/xlink"
  width="595.276pt" height="841.89pt" viewBox="0 0 595.276 841.89"
  fill-rule="evenodd">
  <path
     d="m 0,11.1027 2.9168162,1.232926 c 1.5009078,0.17799 3.3527967,0.342981 4.7387135,0.287982 2.6098423,-0.102992 6.8615843,-1.079936 8.3544923,-2.9688161 1.333917,-1.688898 1.490907,-2.406853 3.071815,-1.768898 0.780953,0.315982 1.686898,0.852953 2.678834,1.210926 2.250861,0.813954 2.287861,0.803954 3.783769,-1.436908 0.651963,-0.975944 1.326925,-1.7298979 1.520908,-2.9238242 0.096,-0.5869632 0.106999,-0.7789536 0.091,-1.7488897 -0.054,-3.27280536 -0.417981,-3.72177766 -3.98876,-2.00187966 C 22.660616,1.2303003 22.216644,1.4672904 22.038654,1.5972813 21.295699,2.1392449 20.814726,2.9941979 20.113772,3.5901611 19.44381,4.1601244 18.572865,4.4941057 17.983902,4.9990696 17.145956,5.7150318 16.874967,6.7759671 16.265004,7.5759129 15.92003,8.0278849 7.486539,9.6367919 2.3458529,10.625728 L 0,11.1027 z m 23.56356,-7.376548 1.253926,-0.022 0.048,2.7418337 c 0,0 -0.328982,0.01904 -0.626963,0.01104 -1.016936,-0.02704 -3.286798,-1.1659345 -3.320797,-1.7048981 -0.01,-0.1679906 0.652954,-0.6709625 1.451908,-0.8719449 0.510972,-0.1289909 0.630963,-0.1439908 1.193926,-0.1539907 z"
     style="fill:#000000;stroke:none" />
</svg>
