<?xml version="1.0" encoding="UTF-8" standalone="yes"?>
<!-- Created with sK1/UniConvertor (http://sk1project.org/) -->
<svg xmlns="http://www.w3.org/2000/svg" xmlns:xlink="http://www.w3.org/1999/xlink"
  width="595.276pt" height="841.89pt" viewBox="0 0 595.276 841.89"
  fill-rule="evenodd">
  <path
     style="stroke:none; fill:#000000"
     d="m 0.29770279,5.9893703 c -0.58341306,3.034068 -0.37600842,3.741084 1.22122661,3.257073 1.4752298,-0.44801 4.1750903,-1.395031 4.8846102,-2.290051 0.6600147,-0.831019 0.7230161,-1.7540394 2.2080492,-1.272029 1.4360242,0.466011 1.7620312,2.179049 1.3540224,3.226073 C 9.4936006,10.120463 8.0045752,11.530495 6.4035396,12.553517 3.8113775,14.211555 3.2361646,14.282556 2.8418598,16.369603 2.628551,17.499628 2.7941787,17.796635 4.0630871,17.387626 8.4675856,15.969594 11.925655,9.7374543 13.01868,5.07335 13.730695,2.03429 10.762629,-0.50876701 7.0145532,0.08724639 3.0424643,0.71926049 1.0160181,2.2542949 0.29770279,5.9893703 z" />
</svg>
