<?xml version="1.0"?>
<svg xmlns="http://www.w3.org/2000/svg" version="1.1">
  <path
     d="m 2.4778249,34.548643 c 0,0 0.589969,-1.35993 0.946825,-2.43737 0.602093,-1.81865 0.505099,-3.13233 0.267611,-5.01348 -0.66234,-5.24723 -1.680661,-17.1328501 -1.680661,-17.1328501 0,0 1.826903,-0.20624 3.22308,-0.16874 3.775926,0.0987 4.8762431,1.8774001 6.8623881,-0.1075 1.293182,-1.29243 2.449871,-5.86969 1.62279,-7.5796 -0.945951,-1.95489 -4.1504071,-2.89609 -5.6232041,-1.30118 -0.679214,0.73621 -1.066694,1.8974 -1.844028,2.66236 -1.203811,1.18369 -3.342449,1.41868 -4.401893,2.40612 -1.81427904,1.69117 -2.05776604,13.5080401 -1.72378404,16.3066401 0.563345,4.72226 2.35087604,12.3656 2.35087604,12.3656 z"
     style="fill:#000000;stroke:none" />
</svg>
