<?xml version="1.0" encoding="UTF-8" standalone="no"?>
<svg>
  <path
     style="fill:#000000;stroke:none"
     d="M 13.533658,20.070377 12.967408,9.2566273 c -0.08375,-1.60375 -0.1175,-1.8825 -0.33125,-2.79125 -0.655,-2.78625 -2.41875,-4.31125 -4.26375,-5.29625 -2.34375,-1.25249993 -4.13375,-1.71749993 -6.55,0.045 -1.98749997,1.45 -2.17499997,6.7 -1.39374997,7.52 0.58249997,0.6125 2.12749997,0.5575 3.99624997,0.11875 4.66875,-1.09625 5.13625,-0.84375 6.3525,4.0937497 0.5775,2.34625 0.64625,4.54375 0.3625,6.90375 -0.60375,5.01 -2.0225,7.4475 0.75625,10.38875 1.1575,1.225 2.365,1.41 5.00375,0.86625 1.875,-0.38625 2.2475,-1.25625 3.03375,-3.8525 0.5525,-1.8275 0.99,-3.465 0.84875,-5.2875 -0.28125,-3.615 -4.19,-10.41 0.52125,-12.0974997 0.86875,-0.3125 1.99875,-0.10875 2.97375,0.10375 1.31375,0.2862497 1.53625,0.1562497 2.22875,-1.2975 0.57,-1.19625 1.22875,-2.29625 1.59,-3.58375 1.36,-4.82999993 -0.72125,-6.19375 -4.8975,-4.21499993 -4.79125,2.26999993 -6.9425,11.99499963 -5.91875,18.51499963 0.3125,2.6875 0.65625,5.1075 0.65625,5.1075 0,0 -0.28625,-0.0038 -0.6275,-0.03625 -1.34125,-0.1325 -3.645,-1.9125 -3.775,-4.39125 z" />
</svg>
