<?xml version="1.0"?>
<svg xmlns="http://www.w3.org/2000/svg" version="1.1">
  <path
     d="m 3.0228101,7.6900749 c 0.26374,-0.25249 0.64247,-0.44498 1.12994,-0.56372 1.58117,-0.38373 4.30477,0 4.30477,0 0,0 0.93246,-3.69606 0.58747,-5.47721 -0.38498,-1.98864998 -3.94604,-2.13238998 -5.86594,-0.68121998 C 0.72293011,2.8240849 -0.57574989,10.893655 0.24671011,13.391025 c 0.22749,0.69121 0.57622,1.31743 1.03993999,1.81865 0.16874,0.18249 0.35248,0.34873 0.54372,0.52122 l 1.34743,1.21119 0.72247,1.96365 c 0.30123,0.8162 0.49372,1.51867 0.49372,1.51867 0,0 5.48596,-3.46482 7.2896099,-5.6722 0.79871,-0.97745 0.87496,-1.70866 1.17369,-2.9336 0.53872,-2.2161301 1.34993,-4.2985201 0.87996,-4.6922501 -0.39123,-0.32623 -1.52242,-0.17249 -2.41488,0.32748 -1.31993,0.73871 -2.1173799,2.23613 -4.2247699,2.6061101 -0.58747,0.1025 -1.27744,0.11875 -1.87615,0.1025 -4.60475999,-0.7099601 -0.9837,-3.6360601 -2.19864,-2.4723701 z"
     style="fill:#000000;stroke:none" />
</svg>
