<?xml version="1.0" encoding="UTF-8" standalone="no"?>
<svg>
  <path
     d="m 61.134929,56.537806 -4.41625,-13.89624 c -0.56625,-1.78125 -0.62875,-2.05125 -0.62625,-2.705 0.0113,-2.23375 1.83125,-3.535 3.66125,-5.25 3.09125,-2.8975 6.45749,-5.43999 10.51749,-7.94999 7.36125,-4.55375 18.94999,-11.605 20.14624,-13.20375 1.03875,-1.38749 0.69875,-1.97374 1.03625,-5.3512408 0.53,-5.30875 2.93875,-9.13499996 -0.32875,-7.97249996 -2.90375,1.03124996 -6.86875,3.98999996 -10.78999,6.83624996 -9.30125,6.7512408 -21.26749,15.2499908 -25.57374,19.3599908 -0.275,0.2625 -0.52375,0.505 -0.74875,0.7375 -9.35874,9.63874 0.23,34.17248 3.7025,42.44997 1.615,3.8475 3.30125,10.22 4.07125,12.73625 0.75375,2.45874 0.53625,2.55624 -1.915,3.56374 -4.805,1.975 -6.53375,2.86125 -11.7575,2.76875 -1.21124,-0.0225 -2.35874,-0.11625 -3.23999,-0.86375 -1.69375,-1.44 -1.93125,-3.56 -3.4175,-2.5775 -0.5875,0.38875 -1.25625,1.245 -1.93875,1.93625 -4.39875,4.45625 -14.21749,5.25 -19.54374,3.81 -5.765,-1.55875 -6.75,-3.82125 -9.71624,1.395 -5.2199996,9.181244 -9.1637496,14.379984 -10.21374958,24.492484 -0.0513,0.49625 -0.0825,0.9475 0.0538,1.11625 0.1575,0.19375 0.53625,0.0125 0.90624998,-0.275 2.33,-1.81125 5.19875,-10.7825 8.045,-13.87 2.2662496,-2.45999 4.9087396,-0.8325 9.0012396,0.535 2.1975,0.735 7.73625,0.825 9.5225,0.15625 0.50875,-0.19125 3.28124,-2.01875 6.06499,-3.46999 l 4.75625,-2.481244 2.155,1.493744 c 0.57375,0.3975 1.16375,0.85625 1.76125,1.16875 2.8625,1.49749 7.37749,-0.395 11.08749,-1.843744 10.455,-4.08375 6.8725,-11.8325 12.90624,-20.63749 1.01375,-1.48125 1.41,-2.0875 1.06125,-3.90875 -0.66625,-3.48 -3.06124,-9.66374 -4.86249,-14.38499 -0.665,-1.7425 -0.80125,-2.13375 -1.3675,-3.915 z m -28.66124,71.159954 6.28875,6.84875 8.31,-9.05 -8.31,-9.04874 -6.28875,6.84874 -6.28999,-6.84874 -8.31,9.04874 8.31,9.05 6.28999,-6.84875 z"
     style="fill:#000000;stroke:none" />
</svg>
