<?xml version="1.0" encoding="UTF-8" standalone="yes"?>
<svg>
  <path
     d="m 40.889398,0.00111111 c -0.27078,0.0025 -0.62688,0.01375 -0.96875,0.0625 -1.8775,0.26875 -5.89625,6.26624989 -6.15625,7.62499999 -0.025,0.12875 -0.0263,0.2475 -0.0312,0.375 -0.0113,0.28125 -0.0163,0.57 0.0312,0.875 0.34375,2.1899999 1.465,4.0562499 2.84375,5.5937499 l 0.5625,9.875 0.28125,5.15625 c 2.9e-4,0.01013 -2.9e-4,0.02113 0,0.03125 0.30353,10.429552 0.88081,18.909306 1.4375,26.3125 0.13455,8.842506 1.40847,17.083098 1.3125,25.03125 -0.0224,0.44125 -0.0488,0.7325 -0.0937,0.875 -1.3775,4.3025 -9.06501,8.00001 -15.59375,9.03125 -10.41125,1.645 -16.0012602,-1.4025 -19.4687502,-11.625 -0.0913,-0.26875 -0.17,-0.53125 -0.25,-0.8125 l -1.09375,-6.5 c -1.35912,2.932572 -4.81652,5.253424 -3.34375005,15.625 1.03000005,7.00624 9.25750005,15.856249 23.06250025,12.687499 0.63625,-0.14625 1.26125,-0.286249 1.8125,-0.437499 1.1987,-0.32875 2.57245,-0.89125 3.9687,-1.59375 6.94249,-3.4875 15.5075,-17.90625 15.25,-26.0625 1.33696,-17.113364 -0.95213,-32.089315 -2.37495,-47.71875 l -0.28125,-5.84375 c 0.2875,0.1575 0.555,0.28 0.8125,0.40625 l 4.4375,2.21875 -0.8438,-2.34375 c -0.0962,-0.265 -0.17875,-0.56125 -0.28125,-0.84375 -1.2325,-3.395 -1.92875,-6.7375 -2.75,-10.2187499 -0.785,-3.3325001 -1.84375,-7.78124999 -1.84375,-7.78124999 0,0 -0.16672,-0.0025 -0.4375,0 z"
     style="fill:#000000;stroke:none" />
</svg>