<?xml version="1.0" encoding="UTF-8" standalone="yes"?>
<svg>
  <path style="stroke:none; fill:#000000"
    d="m 53.41003,20.798368 c -5.99921,-3.07228 -10.13625,-4.13405 -6.60336,-6.42703 3.55209,-1.15471 7.44213,4.06454 6.60336,6.42703 z M 57.84375,0.03109839 c -2.12717,0.31544 -4.89819,2.90818001 -6.5,3.84375001 -7.01,4.50919 -13.4276,10.7448496 -14.125,19.5624996 -0.3462,9.0249 -6.11951,16.38554 -13.34375,21.28125 -7.30066,6.26961 -15.80698,10.92534 -23.875,15.9375 2.6606,1.14236 11.99502,-1.62421 10.5625,-0.75 11.30394,-1.16791 21.83747,-9.67275 25.84375,-20.25 0.78822,-3.65735 0.40483,-8.24294 2.65625,-11.0625 5.8233,2.03155 11.94775,3.45471 17.47354,6.21291 1.56778,1.14394 1.60818,0.22025 3.27646,-0.68161 1.20921,-3.97424 3.5411,-7.38999 6.375,-10.4375 0.18191,-3.89516 -1.62581,-8.24471 -2.96875,-10.0625 C 59.85484,10.227348 58.19804,5.9653884 60.1875,1.3748984 59.65607,0.22322839 58.81065,-0.11223161 57.84375,0.03114839 z"/>
</svg>