<?xml version="1.0" encoding="UTF-8" standalone="yes"?>
<svg>
  <path
     d="m 22.664619,49.16249 c -1.9998,1.10739 -3.35841,1.74357 -5.22323,2.28477 -1.35736,0.39371 -2.98219,0.73867 -4.66952,1.07364 -23.34764,4.64953 -9.0428401,5.85441 -1.22238,5.98439 4.21582,0.07 14.39229,-3.09468 19.43303,-5.61943 10.13148,-5.07448 16.22461,-14.95598 19.89799,-21.30784 2.66598,-4.60953 4.14208,-7.52174 4.27457,-15.25846 0.01,-0.58494 -0.04,-0.98615 -0.16999,-1.11988 -0.47745,-0.49495 -1.37736,-0.5787 -2.17853,-1.14864 -0.32871,-0.23372 -0.64118,-0.54994 -0.93865,-0.89241 -5.3957,-6.2181195 -4.49954,-11.6000695 -11.35135,-12.96992953 -2.33601,-0.46746 -6.23812,-0.15624 -7.73047,1.95980003 -2.53224,3.58713 -4.75452,14.6897595 -4.24457,17.4207295 0.5112,2.73848 1.40111,4.37456 2.95845,5.34071 4.73952,2.93846 7.02429,1.95856 12.55498,1.07365 0.65368,-0.10499 1.39861,-0.20998 2.24727,-0.32872 1.42611,-0.19998 2.73848,-0.43621 3.13469,0 0.70742,0.77992 -1.10989,2.66473 -2.39601,4.49079 -0.56369,0.80117 -1.27487,1.69983 -2.0223,2.56974 -15.69691,13.35883 -13.59617,11.53949 -22.35398,16.44709 z m 9.79525,-38.19988 c 3.75837,-1.8035695 4.14208,-2.2460295 6.52934,-0.65244 2.73348,1.82482 6.85681,5.22322 5.87691,6.85681 -0.36246,0.60369 -8.82661,-0.71868 -10.44769,-1.63359 -0.90116,-0.50745 -3.33717,-2.47475 -2.61224,-3.85211 0.15123,-0.28747 0.43496,-0.61369 0.65368,-0.71867 z"
     style="fill:#000000;stroke:none" />
</svg>