<?xml version="1.0" encoding="UTF-8" standalone="no"?>
<!-- Created with Inkscape (http://www.inkscape.org/) -->

<svg
   xmlns:dc="http://purl.org/dc/elements/1.1/"
   xmlns:cc="http://creativecommons.org/ns#"
   xmlns:rdf="http://www.w3.org/1999/02/22-rdf-syntax-ns#"
   xmlns:svg="http://www.w3.org/2000/svg"
   xmlns="http://www.w3.org/2000/svg"
   xmlns:sodipodi="http://sodipodi.sourceforge.net/DTD/sodipodi-0.dtd"
   xmlns:inkscape="http://www.inkscape.org/namespaces/inkscape"
   width="744.09448819"
   height="1052.3622047"
   id="svg2"
   version="1.1"
   inkscape:version="0.48.2 r9819"
   sodipodi:docname="ali.svg">
  <defs
     id="defs4" />
  <sodipodi:namedview
     id="base"
     pagecolor="#ffffff"
     bordercolor="#666666"
     borderopacity="1.0"
     inkscape:pageopacity="0.0"
     inkscape:pageshadow="2"
     inkscape:zoom="1.3388889"
     inkscape:cx="270"
     inkscape:cy="737.36219"
     inkscape:document-units="px"
     inkscape:current-layer="layer2"
     showgrid="false"
     inkscape:window-width="1280"
     inkscape:window-height="920"
     inkscape:window-x="-8"
     inkscape:window-y="-8"
     inkscape:window-maximized="1" />
  <metadata
     id="metadata7">
    <rdf:RDF>
      <cc:Work
         rdf:about="">
        <dc:format>image/svg+xml</dc:format>
        <dc:type
           rdf:resource="http://purl.org/dc/dcmitype/StillImage" />
        <dc:title></dc:title>
      </cc:Work>
    </rdf:RDF>
  </metadata>
  <g
     inkscape:groupmode="layer"
     id="layer2"
     inkscape:label="art">
    <text
       xml:space="preserve"
       style="font-size:32.04748917px;font-style:normal;font-weight:normal;line-height:125%;letter-spacing:0px;word-spacing:0px;fill:#000000;fill-opacity:1;stroke:none;font-family:Sans"
       x="162.90849"
       y="376.94495"
       id="text3786"
       sodipodi:linespacing="125%"
       transform="scale(0.84546813,1.1827767)"
       inkscape:export-filename="C:\Users\Yeangshing.Then\Desktop\text3786.png"
       inkscape:export-xdpi="300"
       inkscape:export-ydpi="300"><tspan
         sodipodi:role="line"
         id="tspan3788"
         x="162.90849"
         y="376.94495"
         style="font-size:44.8664856px;font-style:normal;font-variant:normal;font-weight:bold;font-stretch:normal;text-align:start;line-height:125%;writing-mode:lr-tb;text-anchor:start;fill:#000000;font-family:Arial;-inkscape-font-specification:Arial Bold">1433             22</tspan></text>
    <text
       transform="scale(0.73814248,1.354752)"
       sodipodi:linespacing="125%"
       id="text3790"
       y="205.56641"
       x="89.559929"
       style="font-size:27.97930908px;font-style:normal;font-weight:normal;line-height:125%;letter-spacing:0px;word-spacing:0px;fill:#000000;fill-opacity:1;stroke:none;font-family:Sans"
       xml:space="preserve"
       inkscape:export-filename="C:\Users\Yeangshing.Then\Desktop\text3786.png"
       inkscape:export-xdpi="300"
       inkscape:export-ydpi="300"><tspan
         style="font-size:35.85744095px;font-style:normal;font-variant:normal;font-weight:bold;font-stretch:normal;text-align:start;line-height:125%;writing-mode:lr-tb;text-anchor:start;fill:#000000;font-family:Arial;-inkscape-font-specification:Arial Bold"
         y="205.56641"
         x="89.559929"
         id="tspan3792"
         sodipodi:role="line">SITI MARIAM BT. KADER MYDIN</tspan></text>
    <text
       transform="scale(0.5447369,1.8357486)"
       sodipodi:linespacing="125%"
       id="text3794"
       y="290.57184"
       x="376.3689"
       style="font-size:38.04105377px;font-style:normal;font-weight:normal;line-height:125%;letter-spacing:0px;word-spacing:0px;fill:#000000;fill-opacity:1;stroke:none;font-family:Sans"
       xml:space="preserve"
       inkscape:export-filename="C:\Users\Yeangshing.Then\Desktop\text3786.png"
       inkscape:export-xdpi="300"
       inkscape:export-ydpi="300"><tspan
         style="font-size:53.25747299px;font-style:normal;font-variant:normal;font-weight:bold;font-stretch:normal;text-align:start;line-height:125%;writing-mode:lr-tb;text-anchor:start;fill:#000000;font-family:Arial;-inkscape-font-specification:Arial Bold"
         y="290.57184"
         x="376.3689"
         id="tspan3796"
         sodipodi:role="line">12.7.2012</tspan></text>
    <text
       sodipodi:linespacing="125%"
       id="text3810"
       y="341.32111"
       x="32.803989"
       style="font-size:38.37031555px;font-style:normal;font-variant:normal;font-weight:normal;font-stretch:normal;line-height:125%;letter-spacing:0px;word-spacing:0px;fill:#ff0000;fill-opacity:1;stroke:none;font-family:Arabic Typesetting;-inkscape-font-specification:Arabic Typesetting"
       xml:space="preserve"
       inkscape:export-filename="C:\Users\Yeangshing.Then\Desktop\text3786.png"
       inkscape:export-xdpi="300"
       inkscape:export-ydpi="300"
       transform="scale(1.0122753,0.98787356)"><tspan
         style="font-size:72px;font-style:normal;font-variant:normal;font-weight:bold;font-stretch:normal;text-align:start;line-height:125%;writing-mode:lr-tb;text-anchor:start;fill:#ff0000;font-family:Traditional Arabic;-inkscape-font-specification:Traditional Arabic Bold"
         y="341.32111"
         x="32.803989"
         id="tspan3812"
         sodipodi:role="line"
         dx="0 0 0 0 0 0 0 4.9041605 0 0 0 0 0 0 0 0 0 0 0 12.697098 0 7.8466568">تـــله منـــيعــكل د نـــيـــا</tspan></text>
    <text
       xml:space="preserve"
       style="font-size:72px;font-style:normal;font-variant:normal;font-weight:bold;font-stretch:normal;text-indent:0;text-align:start;text-decoration:none;line-height:125%;letter-spacing:0px;word-spacing:0px;text-transform:none;direction:ltr;block-progression:tb;writing-mode:lr-tb;text-anchor:start;baseline-shift:baseline;color:#000000;fill:#ff0000;fill-opacity:1;fill-rule:nonzero;stroke:none;marker:none;visibility:visible;display:inline;overflow:visible;enable-background:accumulate;font-family:Traditional Arabic;-inkscape-font-specification:Traditional Arabic Bold"
       x="39.051178"
       y="396.0094"
       id="text3814"
       sodipodi:linespacing="125%"
       inkscape:export-filename="C:\Users\Yeangshing.Then\Desktop\text3786.png"
       inkscape:export-xdpi="300"
       inkscape:export-ydpi="300"
       transform="scale(1.0122753,0.98787356)"><tspan
         sodipodi:role="line"
         id="tspan3816"
         x="39.051178"
         y="396.0094"
         style="font-size:72px;font-style:normal;font-variant:normal;font-weight:bold;font-stretch:normal;text-indent:0;text-align:start;text-decoration:none;line-height:125%;letter-spacing:0px;word-spacing:0px;text-transform:none;direction:ltr;block-progression:tb;writing-mode:lr-tb;text-anchor:start;baseline-shift:baseline;color:#000000;fill:#ff0000;fill-opacity:1;fill-rule:nonzero;stroke:none;marker:none;visibility:visible;display:inline;overflow:visible;enable-background:accumulate;font-family:Traditional Arabic;-inkscape-font-specification:Traditional Arabic Bold"
         dx="0 0 0 0 0 0 0 0 0 0 0 6.1626248"><tspan
           style="font-size:72px;font-style:normal;font-variant:normal;font-weight:bold;font-stretch:normal;text-indent:0;text-align:start;text-decoration:none;line-height:125%;letter-spacing:0px;word-spacing:0px;text-transform:none;direction:ltr;block-progression:tb;writing-mode:lr-tb;text-anchor:start;baseline-shift:baseline;color:#000000;fill:#ff0000;fill-opacity:1;fill-rule:nonzero;stroke:none;marker:none;visibility:visible;display:inline;overflow:visible;enable-background:accumulate;font-family:Traditional Arabic;-inkscape-font-specification:Traditional Arabic Bold"
           id="tspan4725"
           dx="0 0 0 0 5.3922968 0 0 0 11.320521 5.8849926">ڤـد هـا ري</tspan><tspan
           style="fill:#000000"
           id="tspan3027"
           dx="0 8.962657"> خـمـيس</tspan></tspan></text>
    <text
       sodipodi:linespacing="125%"
       id="text3818"
       y="416.92865"
       x="248.79521"
       style="font-size:72px;font-style:normal;font-variant:normal;font-weight:bold;font-stretch:normal;text-indent:0;text-align:start;text-decoration:none;line-height:125%;letter-spacing:0px;word-spacing:0px;text-transform:none;direction:ltr;block-progression:tb;writing-mode:lr-tb;text-anchor:start;baseline-shift:baseline;color:#000000;fill:#ff0000;fill-opacity:1;fill-rule:nonzero;stroke:none;marker:none;visibility:visible;display:inline;overflow:visible;enable-background:accumulate;font-family:Traditional Arabic;-inkscape-font-specification:Traditional Arabic Bold"
       xml:space="preserve"
       transform="scale(0.92465521,1.0814842)"
       inkscape:export-filename="C:\Users\Yeangshing.Then\Desktop\text3786.png"
       inkscape:export-xdpi="300"
       inkscape:export-ydpi="300"><tspan
         style="font-size:72px;font-style:normal;font-variant:normal;font-weight:bold;font-stretch:normal;text-indent:0;text-align:start;text-decoration:none;line-height:125%;letter-spacing:0px;word-spacing:0px;text-transform:none;direction:ltr;block-progression:tb;writing-mode:lr-tb;text-anchor:start;baseline-shift:baseline;color:#000000;fill:#ff0000;fill-opacity:1;fill-rule:nonzero;stroke:none;marker:none;visibility:visible;display:inline;overflow:visible;enable-background:accumulate;font-family:Traditional Arabic;-inkscape-font-specification:Traditional Arabic Bold"
         y="416.92865"
         x="248.79521"
         id="tspan3820"
         sodipodi:role="line">شـعـبان</tspan></text>
    <text
       xml:space="preserve"
       style="font-size:72px;font-style:normal;font-variant:normal;font-weight:bold;font-stretch:normal;text-indent:0;text-align:start;text-decoration:none;line-height:125%;letter-spacing:0px;word-spacing:0px;text-transform:none;direction:ltr;block-progression:tb;writing-mode:lr-tb;text-anchor:start;baseline-shift:baseline;color:#000000;fill:#000000;fill-opacity:1;fill-rule:nonzero;stroke:none;stroke-width:1;marker:none;visibility:visible;display:inline;overflow:visible;enable-background:accumulate;font-family:Traditional Arabic;-inkscape-font-specification:Traditional Arabic Bold"
       x="-145.71394"
       y="210.05898"
       id="text3822"
       sodipodi:linespacing="125%"
       transform="scale(0.95493081,1.0471963)"
       inkscape:export-filename="C:\Users\Yeangshing.Then\Desktop\text3786.png"
       inkscape:export-xdpi="300"
       inkscape:export-ydpi="300"><tspan
         sodipodi:role="line"
         id="tspan3824"
         x="-145.71394"
         y="210.05898"
         style="font-size:72px;font-style:normal;font-variant:normal;font-weight:bold;font-stretch:normal;text-indent:0;text-align:start;text-decoration:none;line-height:125%;letter-spacing:0px;word-spacing:0px;text-transform:none;direction:ltr;block-progression:tb;writing-mode:lr-tb;text-anchor:start;baseline-shift:baseline;color:#000000;fill:#000000;fill-opacity:1;fill-rule:nonzero;stroke:none;stroke-width:1;marker:none;visibility:visible;display:inline;overflow:visible;enable-background:accumulate;font-family:Traditional Arabic;-inkscape-font-specification:Traditional Arabic Bold"
         dx="0 0 0 0 32.126438 0 9.2441702 0 0 13.501575 0 0 0 12.707364 0 0 0 0 14.937762 28.59157">ستي مريم بنت قادير مَيدين</tspan></text>
    <g
       id="g4420"
       transform="matrix(0.97103306,0,0,0.94762557,-41.165688,-111.78981)"
       style="fill:#000000"
       inkscape:export-filename="C:\Users\Yeangshing.Then\Desktop\text3786.png"
       inkscape:export-xdpi="300"
       inkscape:export-ydpi="300" />
    <g
       id="g4424"
       transform="matrix(0.97103306,0,0,0.94762557,1065.3028,-98.95238)"
       style="fill:#ff0000"
       inkscape:export-filename="C:\Users\Yeangshing.Then\Desktop\text3786.png"
       inkscape:export-xdpi="300"
       inkscape:export-ydpi="300">
      <path
         id="rect4428"
         transform="matrix(0.70710678,-0.70710678,0.70710678,0.70710678,0,0)"
         style="color:#000000;fill:#ff0000;fill-opacity:1;fill-rule:nonzero;stroke:none;stroke-width:3;marker:none;visibility:visible;display:inline;overflow:visible;enable-background:accumulate"
         d="m -784.62201,-469.59549 6.7229,0 0,6.7229 -6.7229,0 z m 6.66211,6.66211 6.7229,0 0,6.7229 -6.7229,0 z m 28.77743,18.57342 6.7229,0 0,6.7229 -6.7229,0 z m 6.66211,6.66211 6.7229,0 0,6.7229 -6.7229,0 z m 20.66792,30.87193 6.72289,0 0,6.72289 -6.72289,0 z m 9.17039,50.62177 c 1.22882,-1.23448 8.05936,-10.75513 9.51963,-13.26896 0.46118,-0.79394 1.2518,-2.0236 1.75693,-2.73257 0.50513,-0.70899 1.30296,-1.95117 1.77296,-2.76041 1.71587,-2.95437 4.4047,-4.01306 9.14463,-3.6006 1.27644,0.11108 1.28506,0.12495 0.77896,1.25196 -0.4703,1.0473 -1.12671,1.97279 -3.83293,5.40416 -0.53533,0.67879 -1.7478,2.3045 -2.69439,3.6127 -0.94658,1.30819 -2.22244,3.01242 -2.83525,3.78718 -0.6128,0.77475 -1.73638,2.20555 -2.49683,3.17953 -2.76794,3.54519 -4.38615,5.13193 -6.20979,6.08902 -3.84893,2.01998 -4.20851,2.09856 -5.17603,1.13105 -0.83831,-0.83831 -0.81748,-0.99854 0.27211,-2.09305 z m -17.17112,-29.49592 c 3.45177,1.17888 4.62551,-0.85094 2.38552,-4.12544 -0.99066,-1.4482 -4.51111,-3.2096 -5.14598,-2.57472 -0.4828,0.48279 -0.25235,5.14417 0.27869,5.63749 0.20137,0.18708 1.31816,0.66528 2.48177,1.06267 z m -22.06132,-4.02375 c -7e-5,-0.0668 -0.6406,-0.83182 -1.42336,-1.70004 -1.01195,-1.1224 -1.47142,-2.09276 -1.59014,-3.35806 -0.20643,-2.20011 1.2148,-5.9916 3.15539,-8.41782 3.31855,-4.149 8.26227,-11.10469 9.06956,-12.76064 0.47534,-0.97504 1.57672,-2.43932 2.4475,-3.25395 1.41643,-1.32508 1.88912,-1.48117 4.48629,-1.48117 2.8396,10e-6 3.67759,0.26116 3.48299,1.08545 -0.0531,0.22494 -1.20788,1.83739 -2.56618,3.58323 -1.3583,1.74583 -2.82626,3.66907 -3.26214,4.27386 -1.28886,1.78835 -3.85365,5.20195 -6.60215,8.78715 -3.4294,4.4734 -3.41953,4.8427 0.22683,8.48906 2.02528,2.02528 3.02477,2.77864 3.6138,2.7239 2.81938,-3.07311 5.4405,-3.53139 8.82685,-4.70694 0.50619,-0.26228 2.69732,-0.50291 4.86917,-0.53473 4.2654,-0.0625 6.55165,0.80474 8.1688,3.09862 1.15941,1.64458 1.09404,2.95494 -0.29146,5.84218 -1.54335,3.21621 -3.59386,5.17651 -6.82539,6.52512 -1.44807,0.60432 -2.67803,1.29013 -2.73324,1.52402 -0.0552,0.23389 1.27875,1.8044 2.96437,3.49002 4.14769,4.14769 4.87673,4.2867 7.2964,1.39118 2.02749,-2.42623 4.35273,-5.88272 7.92116,-11.77495 2.51462,-4.15212 6.75932,-9.26606 7.26846,-8.75692 0.14906,0.14906 0.44015,0.10188 0.64687,-0.10484 0.40475,-0.40475 5.19057,-0.36478 5.60213,0.0468 0.36424,0.36425 -0.55664,8.1526 -1.01857,8.61452 -0.21601,0.21602 -0.87084,0.28225 -1.45517,0.1472 -0.58433,-0.13507 -1.72044,0.0246 -2.52471,0.35486 -1.68813,0.69317 -2.30357,1.426 -6.3683,7.58316 -3.42022,5.18085 -4.10367,6.05114 -7.07451,9.00855 -2.30312,2.29321 -3.39565,3.11016 -4.69018,3.50902 -1.5887,0.4895 -6.2886,0.55575 -6.91909,0.0975 -0.48411,-0.35188 -1.06876,-0.68221 -1.22509,-0.69227 -0.0815,-0.005 -1.83645,-1.58514 -3.89994,-3.51088 -3.91183,-3.65074 -6.29328,-6.95612 -6.81448,-9.45829 -0.10425,-0.5005 -0.45365,-1.04532 -0.89516,-1.5036 -1.3071,-0.85649 -2.77194,-1.47894 -4.05246,-1.87361 -0.41283,0.41283 -7.81381,-5.54094 -7.81488,-6.28673 z m -38.21097,-54.45413 c 0.0656,0.0105 0.55882,-0.59078 1.09602,-1.33621 1.13279,-1.57168 0.9239,-1.9091 -1.52854,-2.4691 -0.98841,-0.22571 -1.94383,-0.54359 -2.12314,-0.70641 -0.17934,-0.1628 -0.61071,-0.10331 -0.95866,0.13226 -0.47005,0.31824 -0.39416,0.72641 0.29528,1.5882 0.77653,0.97065 2.79888,2.72421 3.21904,2.79126 z m -3.58087,13.07106 c -1.71152,-2.15612 -1.66517,-3.41432 0.28406,-7.7096 l 0.63361,-1.39619 -2.65742,-0.27022 c -4.2182,-0.42891 -5.04722,-0.92313 -7.14452,-4.25919 -0.32658,-0.51948 -0.71328,-1.65499 -0.85931,-2.52335 -0.23597,-1.40303 -0.10523,-1.70656 1.17408,-2.72591 1.55307,-1.23747 5.90188,-2.9536 7.83235,-3.09079 0.65502,-0.0466 2.81309,0.49343 4.79574,1.19995 3.41288,1.2162 3.6395,1.22858 4.25639,0.23249 0.35836,-0.57865 0.72392,-1.12165 0.81234,-1.20667 1.24044,-1.19279 2.04727,-1.44921 4.55994,-1.44921 2.64433,0 2.94028,0.096 2.81345,0.91286 -0.0779,0.50208 -1.21321,2.4481 -2.52281,4.32451 -6.80893,9.75594 -7.74736,11.4821 -6.95848,12.79966 0.92611,1.54676 8.05001,7.84476 8.97024,7.93029 0.44583,0.0414 0.85431,0.26048 0.90773,0.48678 0.0534,0.22629 0.59981,0.56361 1.21415,0.74965 1.03229,0.31255 0.9564,0.0256 -1.00043,-3.78327 -1.16459,-2.26682 -2.37209,-4.37613 -2.68333,-4.68738 -0.62599,-0.62599 -0.12434,-1.04621 2.89935,-2.42866 2.30173,-1.05237 3.97354,-1.01816 6.42884,0.13153 1.13187,0.53 2.35122,1.0961 2.70966,1.25799 0.35844,0.16188 0.90961,0.46217 1.22482,0.66729 2.5296,1.64616 12.10208,3.03492 13.21918,1.91782 0.70376,-0.70376 4.43088,-0.2765 5.31687,0.6095 1.11199,1.11198 1.075,4.05378 -0.0723,5.74998 -1.55554,2.29981 -4.68062,5.8411 -5.68561,6.44283 -1.59555,0.95532 -2.9542,-1.2079 -1.60564,-2.55647 0.88957,-0.88957 1.53993,-3.47295 1.0235,-4.06555 -1.12574,-1.29177 -1.92038,-1.63249 -4.00083,-1.71543 -3.72396,-0.14846 -5.01634,-0.28218 -6.80214,-0.70375 -2.43976,-0.57594 -2.26054,0.23452 1.40332,6.34633 3.67588,6.13189 4.69395,7.53159 8.14799,11.20241 1.23308,1.31043 1.34791,1.63409 0.82999,2.3389 -0.62356,0.84855 -3.43853,2.55232 -4.89762,2.9643 -0.66862,0.18879 -1.37818,-0.27863 -3.53454,-2.32832 -3.34349,-3.1781 -7.03521,-6.25742 -9.059,-7.55622 -0.84516,-0.5424 -1.98572,-1.29894 -2.53456,-1.6812 -0.54885,-0.38226 -1.67577,-0.95825 -2.50428,-1.27998 -0.8285,-0.32172 -2.18901,-0.89567 -3.02336,-1.27543 -0.83436,-0.37976 -1.66697,-0.68241 -1.85027,-0.67257 -0.86249,0.0463 -3.40802,-0.92193 -4.64019,-1.76504 -1.79412,-1.22762 -5.75425,-5.03496 -7.42099,-7.13467 z"
         inkscape:connector-curvature="0" />
    </g>
    <path
       id="path4679"
       style="fill:#ff0000"
       d="m 291.84144,567.62857 c 79.52789,-42.3373 133.9038,-97.38127 164.36214,-166.38149 12.7391,-28.85908 21.02796,-57.84136 27.60349,-96.51647 3.50329,-20.60521 4.95811,-34.68332 5.30279,-51.31437 0.34491,-16.64337 -0.98705,-29.93748 -4.30102,-42.92781 -6.64854,-26.06124 -21.22243,-43.58125 -43.5143,-52.31065 -2.22231,-0.87024 -4.91208,-2.14767 -5.97724,-2.83874 -5.59489,-3.62979 -10.32452,-10.22737 -14.1182,-19.69404 -1.78247,-4.44792 -3.07768,-6.57879 -5.40421,-8.89082 -5.26676,-5.23394 -10.14947,-7.08914 -33.64659,-12.78404 -11.32981,-2.74596 -25.27861,-6.44334 -29.46172,-7.80935 -16.82817,-5.49532 -38.49057,-18.123924 -61.42701,-35.810313 -4.85707,-3.74531 -14.67057,-11.82288 -18.38718,-15.134642 -1.46056,-1.301459 -2.75628,-2.366287 -2.87938,-2.366287 -0.1231,0 -1.41882,1.064828 -2.87937,2.366287 -3.71662,3.311762 -13.53012,11.389332 -18.38719,15.134642 -22.93644,17.686389 -44.59884,30.314993 -61.42702,35.810313 -4.30549,1.40598 -18.29188,5.1049 -30.04433,7.94571 -10.8882,2.6319 -16.88359,4.23957 -20.76177,5.56731 -6.75081,2.3112 -11.28067,5.24633 -14.13404,9.15818 -1.60957,2.20665 -2.15232,3.2523 -3.70762,7.14307 -3.63716,9.09881 -8.45207,15.7604 -14.00228,19.37261 -1.05454,0.68631 -3.73559,1.95987 -5.957905,2.83011 -32.864759,12.8697 -48.862,44.73296 -47.815323,95.23846 0.344581,16.62689 1.813894,30.855 5.299165,51.31437 2.038373,11.96579 3.844378,21.21 5.859534,29.99259 15.112508,65.86453 42.866269,117.14822 87.517399,161.71571 29.87179,29.81581 66.86204,55.54683 113.01111,78.61213 l 7.4273,3.71223 7.72096,-3.86148 c 4.24652,-2.12372 10.60493,-5.39663 14.12981,-7.27322 z m -31.32395,12.75154 C 213.30751,556.84355 176.45208,531.23847 145.56865,500.52015 102.65788,457.83881 74.911915,408.63828 59.114266,347.2148 52.870086,322.93654 47.452639,291.39313 45.836665,269.90507 c -1.538369,-20.45613 -0.959837,-37.43021 1.773165,-52.0251 3.217654,-17.18295 8.766501,-30.46791 17.45246,-41.7844 2.614759,-3.40664 8.56792,-9.46961 11.789137,-12.00661 5.59384,-4.40563 13.679982,-8.93976 20.629666,-11.56763 6.959167,-2.63146 11.456987,-8.03299 15.997087,-19.21126 3.3916,-8.35051 7.44548,-12.75971 15.2283,-16.56302 5.07275,-2.47895 10.47831,-4.08325 28.9907,-8.60404 25.78267,-6.29622 31.64682,-8.177367 43.37139,-13.91307 19.30589,-9.444491 43.59619,-26.548744 65.2826,-45.969383 l 3.64097,-3.260561 3.64184,3.260362 c 21.77088,19.490412 45.92845,36.501059 65.28346,45.969582 11.72213,5.73449 17.61986,7.62636 43.40783,13.92431 18.51407,4.52151 23.88447,6.11529 28.95427,8.5928 7.80928,3.81624 11.83588,8.20786 15.26014,16.64342 2.66533,6.56596 5.02287,10.60615 8.0651,13.82141 2.46514,2.60534 4.67297,4.08917 7.90016,5.30945 6.96048,2.63195 15.03464,7.16127 20.65187,11.58497 3.16985,2.49634 9.20774,8.65599 11.81834,12.05667 14.88542,19.39047 21.48047,47.36093 19.75701,83.79195 -0.7529,15.91453 -2.10616,27.55812 -5.54055,47.67055 -9.07503,53.14549 -23.53161,94.1049 -46.68982,132.28512 -22.86394,37.69502 -54.86094,71.3996 -95.00045,100.07025 -20.92893,14.94898 -44.19108,28.70566 -69.40302,41.04318 -4.51451,2.2092 -8.25059,3.99832 -8.30241,3.97576 -0.0519,-0.0227 -4.2271,-2.10136 -9.27842,-4.61967 z"
       inkscape:connector-curvature="0" />
    <g
       id="g3126"
       transform="translate(-1.5942715,-0.31885431)">
      <path
         id="path3120"
         d="m 293.98471,298.27581 -2.77585,4.6538 -4.59083,-3.43826 2.84702,-4.61908 z"
         style="font-size:72px;font-style:normal;font-variant:normal;font-weight:bold;font-stretch:normal;text-indent:0;text-align:start;text-decoration:none;line-height:125%;letter-spacing:0px;word-spacing:0px;text-transform:none;direction:ltr;block-progression:tb;writing-mode:lr-tb;text-anchor:start;color:#000000;fill:#ff0000;fill-opacity:1;fill-rule:nonzero;stroke:none;marker:none;visibility:visible;display:inline;overflow:visible;enable-background:accumulate;font-family:Traditional Arabic;-inkscape-font-specification:Traditional Arabic Bold"
         inkscape:connector-curvature="0" />
      <path
         id="path3038"
         d="m 299.03817,305.25652 -2.84702,4.54962 -4.30612,-2.98678 -2.20645,3.85503 -4.662,-3.40354 2.70468,-4.58435 4.30611,3.29934 2.6335,-4.13285 z"
         style="font-size:72px;font-style:normal;font-variant:normal;font-weight:bold;font-stretch:normal;text-indent:0;text-align:start;text-decoration:none;line-height:125%;letter-spacing:0px;word-spacing:0px;text-transform:none;direction:ltr;block-progression:tb;writing-mode:lr-tb;text-anchor:start;color:#000000;fill:#ff0000;fill-opacity:1;fill-rule:nonzero;stroke:none;marker:none;visibility:visible;display:inline;overflow:visible;enable-background:accumulate;font-family:Traditional Arabic;-inkscape-font-specification:Traditional Arabic Bold"
         inkscape:connector-curvature="0" />
    </g>
    <path
       id="path3132"
       d="m 247.75083,289.34789 -2.77585,4.6538 -4.59082,-3.43826 2.84701,-4.61908 z"
       style="font-size:72px;font-style:normal;font-variant:normal;font-weight:bold;font-stretch:normal;text-indent:0;text-align:start;text-decoration:none;line-height:125%;letter-spacing:0px;word-spacing:0px;text-transform:none;direction:ltr;block-progression:tb;writing-mode:lr-tb;text-anchor:start;color:#000000;fill:#ff0000;fill-opacity:1;fill-rule:nonzero;stroke:none;marker:none;visibility:visible;display:inline;overflow:visible;enable-background:accumulate;font-family:Traditional Arabic;-inkscape-font-specification:Traditional Arabic Bold"
       inkscape:connector-curvature="0" />
  </g>
</svg>
