<?xml version="1.0"?>
<svg xmlns="http://www.w3.org/2000/svg" version="1.1">
  <path
     style="fill:#000000;stroke:none"
     d="m 34.745216,13.644135 c -2.942314,-1.25367 -9.00318,2.667331 -10.318096,4.367224 -0.578714,0.748702 -1.783637,3.47478 -2.018622,4.714701 -0.0825,0.438722 -0.109993,0.867445 -0.139992,1.276169 l -0.129991,1.786137 -1.442409,1.311167 c -2.039871,1.853633 -5.753385,3.849756 -7.8945,4.855942 -6.7708209,3.184799 -12.97417788,6.552085 -12.79793904,6.94831 0.08499461,0.191238 0.252484,0.371227 0.49996832,0.552465 0.48621919,0.352478 12.17922872,-2.022372 13.93661772,-2.831071 0.7837,-0.361227 1.433659,-0.684956 2.118615,-1.183675 1.862382,-1.354914 4.682204,-4.010995 6.558335,-5.642142 l 1.859882,-1.617398 1.089931,0.532467 c 0.332479,0.162489 0.686206,0.364977 1.10618,0.543715 1.089931,0.463721 6.394595,0.833697 7.423279,0.518717 0.898693,-0.274982 1.968626,-1.146177 2.652332,-2.156113 0.78995,-1.167426 2.20611,-5.419657 2.113616,-6.343348 -0.15749,-1.567401 -2.163613,-6.587083 -4.617207,-7.633267 z m -2.088618,7.798257 -0.02375,0.898693 c 0,0 -3.306041,-0.886194 -4.715951,-1.551152 -1.003687,-0.47372 -1.249921,-1.176176 -0.698706,-2.202361 0.302481,-0.562464 0.896193,-0.977438 1.513654,-1.056183 2.019872,-0.256234 3.980998,1.766138 3.924751,3.911003 z M 68.470579,1.0486835 c 0,0 0.06,-0.043747 0.06,-0.043747 -0.0375,-0.047497 -0.06,-0.028748 -0.06,0.043747 z m 0,0 -0.338729,0.2437346 c -1.904879,1.372413 -3.824757,5.2609166 -3.859755,7.6257668 -0.02375,1.5836501 0.596212,2.5560881 1.459907,3.0973041 0.194988,0.123742 0.389976,0.239984 0.574964,0.348727 2.386099,1.409911 3.987247,-0.514967 5.289665,-1.592399 l 1.154927,-0.956189 0.671207,0.526217 c 1.216173,0.951189 3.249794,1.199924 4.835944,0.976188 3.557274,-0.503718 7.698262,-5.4409054 8.301974,-9.9093723 C 86.669426,0.6062116 86.709423,0 86.709423,0 c 0,0 -1.73239,1.9961235 -2.958562,3.0835546 -1.626147,1.4424086 -4.90094,1.057433 -6.395845,-0.7399531 -0.454971,-0.5462154 -0.882444,-1.0911809 -0.882444,-1.0911809 0,0 -1.179925,1.1349281 -2.348601,2.1398644 -0.891194,0.7649516 -1.776138,1.4536579 -2.126116,1.5061546 -0.14624,0.022499 -0.331229,-0.044997 -0.532466,-0.1762388 -2.393598,-1.5674007 -2.99356,-3.3072905 -2.99481,-3.6735173 z M 60.517333,21.831117 c 0.222486,-3.121053 -0.171239,-4.663455 -1.834884,-7.387032 l -1.943627,-3.182299 -1.808635,1.42116 c -1.057433,0.829948 -1.876131,2.422347 -2.342352,3.896003 -0.327479,1.029935 -0.174989,3.409785 0.301231,4.727201 0.467471,1.292418 1.201174,2.591086 1.827384,3.689766 l 1.493656,2.618584 -0.923692,1.518654 c -2.027371,3.333539 -8.553208,9.180668 -11.959242,10.404341 -7.037054,2.52734 -17.282655,3.978498 -16.048983,4.289728 3.482279,0.879944 12.084234,2.377349 15.747752,2.647332 5.440905,0.399975 5.737137,-0.917441 10.483086,-6.994556 2.707328,-3.467281 4.277229,-5.37341 5.303414,-8.153234 l 0.619961,-1.674894 2.321103,0.384976 c 2.082368,0.344978 5.272165,0.861195 8.551958,1.346165 5.19717,0.767451 16.080231,0.899943 21.76737,0.277482 12.077987,-1.321166 29.664367,-3.479779 32.101717,-3.342288 1.25616,0.07125 2.35859,0.234985 3.34603,0.304981 l 2.54859,0.181238 1.28992,-1.179925 c 1.6124,-1.474907 5.35091,-7.093301 5.35091,-7.093301 0,0 -3.1723,0.08125 -5.72839,-0.14999 -1.81488,-0.16374 -5.63339,-1.282419 -8.28197,-2.304854 l -4.19598,-1.617398 4.17848,-1.381162 c 1.72864,-0.569964 4.07849,-1.278669 5.44215,-2.004873 1.6999,-0.904943 4.94844,-5.3684102 4.92219,-7.3832825 -0.009,-0.5862129 -0.27748,-1.2424213 -0.67496,-1.8698815 -2.2836,-3.598522 -7.05705,-4.6997022 -9.41439,-2.4860925 -0.77245,0.7249541 -1.53866,1.5774 -1.81239,2.0973671 -0.65871,1.2511707 -1.45616,3.7847602 -2.05237,4.7796971 0.81995,-0.6799569 4.07849,-4.6122077 5.43591,-4.2372315 1.31741,0.363727 2.50983,2.8110719 0.92243,3.3835356 -0.51246,0.1849883 -10.23934,1.7498891 -16.72393,2.9823112 -5.4809,1.041184 -9.145672,3.319789 -10.490587,7.625767 -1.092431,3.497278 0.488719,2.001123 3.813507,3.049807 l 3.01856,0.951189 -2.22236,0.862446 c -1.74114,0.674957 -5.605894,1.074932 -5.98962,1.109929 -2.237358,0.202488 -7.393281,0.459971 -13.202913,0.219986 -8.801942,-0.362477 -17.865118,-0.928691 -23.136034,-2.327352 z" />
</svg>
