<?xml version="1.0"?>
<svg
   xmlns:dc="http://purl.org/dc/elements/1.1/"
   xmlns:cc="http://creativecommons.org/ns#"
   xmlns:rdf="http://www.w3.org/1999/02/22-rdf-syntax-ns#"
   xmlns:svg="http://www.w3.org/2000/svg"
   xmlns="http://www.w3.org/2000/svg"
   xmlns:xlink="http://www.w3.org/1999/xlink"
   xmlns:sodipodi="http://sodipodi.sourceforge.net/DTD/sodipodi-0.dtd">
  <path
     id="frame"
     d="m 480.9525,519.38718 c 25.33,-25.6675 41.465,-58.3725 51.31875,-95.01 4.75125,-17.23625 7,-32.48625 7.45625,-50.58375 L 540,183.14093 c -0.26,-7.9375 -1.115,-14.62 -2.855,-22.3 -1.69625,-9.2075 -6.06875,-16.3375 -12.99375,-21.1875 -8.3575,-4.36375 -16.1075,-6.34125 -25.265,-6.445 -10.91625,-0.2625 -20.1625,0.63125 -30.89375,2.98375 -0.14125,-18.56125 -14.63,-29.65875 -28.7725,-30.58125 -24.22875,-2.0475 -44.57,-5.887497 -68.115,-12.856247 -8.32125,-2.46375 -15.25375,-4.9875 -23.3,-8.4825 -9.67375,-3.7475 -17.7025,-8.5775 -25.47,-15.40625 l -7.4,-6.50375 -6.49,5.80625 c -6.60875,5.9125 -13.35625,10.255 -21.5025,13.90625 -7.925,3.77375 -14.78625,6.4875 -23.045,9.115 -24.73125,7.7875 -46.16875,12.052497 -71.71625,14.267497 -9.16875,0.125 -16.95625,3.9575 -23.4275,11.53125 -4.46375,5.36875 -6.69875,11.73 -6.74625,19.20625 -15.08625,-3.30875 -39.76325,-5.9375 -56.03412,3.3875 -6.43513,4.23875 -10.617005,10.565 -12.494255,18.9 -2.183375,8.4425 -3.229875,15.865 -3.479125,24.67875 l 0.27375,190.6325 c 0.37475,16.345 2.253875,30.12125 6.2465,45.795 5.29125,21.8075 11.998,39.52375 22.2505,58.7775 16.2155,30.1175 36.3255,51.1125 63.783,66.58875 27.48625,13.9125 51.175,24.37375 79.67,35.18 8.14375,2.84625 14.97625,5.41875 23.01125,8.66125 7.55125,2.91875 14.08875,5.87375 20.935,9.4925 l 7.70625,4.07375 8.3225,-3.88375 c 15.2675,-7.12125 29.22375,-12.72625 45.57875,-18.34375 28.49125,-10.80625 52.17875,-21.265 79.6625,-35.17625 12.83125,-6.90375 22.94875,-14.62375 33.5125,-25.57125 z m 25.8075,-44.265 c -13.89875,26.06375 -36.36875,51.78625 -61.815,65.0475 -25.66,13.08875 -52.03,24.73375 -78.9875,34.88 -15.67625,5.33125 -31.0475,11.52 -46.04375,18.5375 l -5.8875,2.74625 -5.3325,-2.81875 c -6.9575,-3.6775 -14.13125,-6.93125 -21.48,-9.74375 -7.64375,-3.09625 -15.36375,-6.00125 -23.15125,-8.71375 -26.95125,-10.14375 -53.315,-21.785 -78.96875,-34.86875 -13.8,-7.68 -26.28125,-17.52 -36.97,-29.14625 -9.5825,-10.7175 -17.84125,-22.54875 -24.59862,-35.2375 -9.75113,-18.105 -17.0635,-37.42125 -21.74675,-57.44625 l -0.0324,-0.13 C 97.962,403.69468 95.9235,388.76093 95.673625,373.74468 l -0.2735,-190.5275 c 0.176875,-7.88875 1.2845,-15.7275 3.299875,-23.355 l 0.0615,-0.25875 c 0.703,-3.3125 2.01613,-6.46625 3.87262,-9.2975 1.62438,-2.41 3.70425,-4.48 6.12263,-6.09125 3.94775,-2.1375 8.20912,-3.635 12.62575,-4.43875 4.23125,-0.7875 8.525,-1.19625 12.82875,-1.2225 7.54,-0.0125 15.06125,0.6775 22.4675,2.06125 l 9.86625,1.8425 0.99125,-9.21875 c 1.31125,-12.19 12.125,-22.3175 24.6725,-22.38125 0.13625,0 0.27375,-0.006 0.41,-0.0175 24.7825,-2.015 49.25,-6.8825 72.91625,-14.504997 8.1025,-2.54875 16.01125,-5.675 23.66625,-9.355 10.9125,-5.02625 16.49625,-9.10625 25.76625,-17.4 l 3.7925,3.33375 c 7.93625,7.04375 17.085,12.58625 27.0025,16.36 7.74125,3.38875 15.69125,6.28 23.80125,8.6575 22.5425,6.818747 45.75125,11.197497 69.22875,13.063747 6.94375,0.53125 13.4275,3.6075 17.9775,8.94625 2.4575,2.92625 4.18875,6.35625 5.095,10.0125 l 3.03375,12.25125 8.2625,-1.575 c 8.4175,-1.6025 16.98875,-2.2825 25.5625,-2.02375 l 0.15125,0.002 c 7.8275,0.0162 15.53,1.95625 22.4325,5.6475 2.91375,2.075 5.34,4.7625 7.10875,7.8725 1.66875,2.9975 2.82125,6.25625 3.40875,9.6375 0.0175,0.0987 0.0375,0.19625 0.06,0.2925 1.60625,6.94375 2.515,14.02875 2.715,21.1525 l -0.2725,190.53 c -0.30625,16.6325 -2.74375,33.15875 -7.25375,49.1725 0,0 -0.0275,0.1 -0.0275,0.1 -4.72125,18.098 -11.52875,35.58425 -20.28625,52.10925 z"
     style="fill:#ff0000;stroke:none" />
  <path
     id="alfatihah"
     d="m 377.9975,158.21843 c 0.10125,0.6425 0.1775,1.66625 0,2.6075 -0.13125,0.69125 -2.19125,3.2925 -2.65,3.3475 -1.295,0.15125 -4.44125,-1.4125 -6.19875,-3.05375 -1.25875,-1.175 -2.56,-2.63125 -2.9225,-3.1125 -0.5525,-0.73125 -0.86875,-1.3625 -0.985,-1.96 -0.4975,-2.5325 2.775,-7.38 5.66375,-9.23375 0.595,-0.38125 1.24375,-0.29375 2.22375,0.485 2.74875,2.18625 4.12,6.20375 4.86875,10.92 z m -93.9375,9.4275 c -7.6575,-0.8375 -14.63625,-1.755 -20.45125,-2.5975 -0.7775,-0.1125 -1.57625,-0.235 -2.38,-0.365 -8.875,-1.4375 -20.59625,-5.1675 -23.545,-7.48375 -4.0325,-3.16625 -6.77625,-7.875 -7.4075,-12.68625 -0.55375,-4.2275 -0.0375,-16.8775 -0.46625,-20.44 -0.49625,-4.13 -1.64125,-7.4975 -2.16875,-8.9025 l -0.27125,-0.72125 -0.48,0.50125 c -3.25875,3.3975 -4.16625,6.01 -4.4425,7.42875 -0.1075,0.5475 0.88875,-0.0888 3.3675,14.36125 0.2625,1.53 0.4425,2.815 0.465,3.485 0.56625,17.18 -0.82,24.575 11.99875,29.57125 2.29125,0.8925 4.81,1.71 7.52125,2.4575 15.50875,4.275 48.5325,7.235 68.31,6.95625 13.8475,-0.195 25.7625,-0.965 32.8925,-1.95375 1.6825,-0.23375 3.91375,-0.66 6.2075,-1.16 4.08625,-0.89375 10.8375,-3.095 13.8125,-4.51875 l 0.675,-0.3225 1.785,0.31875 c 2.40875,0.43125 6.8825,1.71375 10.00625,2.19375 3.62125,0.55875 12.45,-0.49875 15.44875,-2.03375 1.16375,-0.59625 3.42875,-2.75375 3.96875,-3.78 l 1.7975,-3.4225 0.0175,-0.0325 0.2575,-0.28125 c 1.315,-1.44125 3.23375,-3.35875 3.4825,-5.68125 0.07,-0.66125 0.0625,-1.34125 0,-2.09375 -0.39375,-4.73375 -1.575,-14.91125 -2.2275,-17.59125 -0.39875,-1.64 -0.76,-4.54375 -0.745,-5.7975 l 0.025,-2.035 2.23125,-3.58375 1.425,-2.29125 -1.195,-0.785 c -8.72375,-5.735 -8.3,-10.775 -8.59375,-10.41625 -0.15875,0.1925 -0.315,0.39 -0.46625,0.59125 -0.3775,0.50375 -1.055,1.83625 -1.81,3.43625 -2.04375,4.3325 -1.03875,9.85125 2.095,11.36 l 1.645,0.79125 c 0,0 -1.82,3.41625 -2.4275,5.27 -0.235,0.7175 -0.2875,1.20125 -0.29125,1.82 -0.004,0.835 0.0237,1.09875 0.275,2.64375 l 2.96,23.09 0.12125,0.95375 -10.225,-0.0462 -8.93125,-0.86375 5.33625,-7.74875 c 0.985,-2 2.45,-5.85875 2.42625,-6.61375 -0.03,-0.95375 -3.37875,-9.365 -6.495,-11.77625 -3.3625,-2.6025 -5.13875,0.055 -8.72875,4.94125 -2.9675,4.03875 -8.6375,13.165 -9.78875,19.75625 -0.1425,0.8175 -0.2275,1.735 -0.1975,2.63125 l 0.0762,2.27 -1.85875,0.46 c -5.31875,1.31875 -11.32125,2.22125 -17.7425,2.79375 -10.49125,0.935 -39.32375,-0.0925 -57.29375,-2.0575 z m -19.07625,-22.3425 c 0,0 -1.9,0.31 -3.69125,0 -1.79,-0.30875 -3.4725,-1.23875 -3.4725,-1.23875 0,0 5.085,-3.4 6.46375,-4.2925 0.31875,-0.205 0.40625,0.19875 0.46875,2.1475 0.0437,1.35125 0.23125,3.38375 0.23125,3.38375 z m 20.8975,8.0675 c -4.93,-0.6075 -10.24875,-1.65875 -11.82125,-2.8175 -0.775,-0.57125 -2.305,-3.2325 -3.02,-5.25 -0.21125,-0.5975 -0.43625,-1.2375 -0.4925,-1.88875 -0.075,-0.87875 -0.0875,-1.1475 -0.1125,-2.69375 l -0.29,-17.265 c 0,0 -1.63875,1.545 -3.44625,3.2675 -1.74625,1.6625 -2.79125,2.75375 -3.35,3.63375 l -0.82375,1.29875 0.575,1.6275 c 0.22125,0.6275 0.47,1.4425 0.73625,2.5075 0.0813,0.32375 0.12125,0.57125 0.01,0.7075 -0.835,1.0175 -9.6425,5.25 -11.32625,6.775 -2.14,1.9375 -6.935,8.465 -6.935,8.465 0,0 1.80625,1.1375 3.25,1.8725 2.62625,1.3375 9.0175,2.44125 10.95875,0.5725 0.915,-0.88125 1.54125,-1.77625 2.06,-2.475 l 2.8525,-3.0825 0.38375,2.70125 c 0.21375,1.50875 0.74625,3.2 1.44125,4.76125 4.26875,9.59375 19.4725,8.77 41.9775,6.33 4.4925,-0.4875 9.97875,-1.08 16.25125,-1.7475 l 3.33875,-0.35625 0.36375,0.175 c 4.175,0.14125 7.38625,0.3775 8.8025,0.45 2.34375,0.12125 5.48125,0.56875 7.87625,0.56 l 2.4525,-0.009 0.71,-0.76375 c 1.2625,-1.3575 4.465,-5.99125 5.6175,-8.09 l 0.90125,-1.64125 -0.70125,-0.135 c -0.93,-0.1775 -3.29,-0.46 -4.70625,-0.56625 l -0.935,-0.07 -3.365,-1.685 c -0.2275,-0.11375 -0.4575,-0.23 -0.69,-0.3475 -1.8425,-0.93875 -8.215,-5.02375 -12.8975,-8.25875 -0.77125,-0.5325 -1.39625,-1.01875 -1.39625,-1.01875 l 0.17125,-0.175 c 0.5925,-0.6025 2.625,-2.65875 4.4875,-4.3775 1.935,-1.7875 3.79125,-3.685 5.02625,-5.10375 0.81375,2.30375 1.8225,4.8975 2.76375,7.03625 0.48625,1.1075 0.9525,2.2375 1.31375,3.13375 l 1.20375,2.9875 1.2375,-2.615 c 1.42625,-3.01375 2.94625,-9.9025 0.20125,-22.885 l -0.77625,-3.6735 -0.12125,-0.0325 c -1.8625,3.91625 -4.295,7.50875 -7.19125,10.67 l -0.20125,0.2175 c -3.99625,4.3025 -8.85875,7.79125 -14.3075,10.18875 l -0.1675,-0.1175 -1.4175,-0.44875 c -1.52,-0.48125 -4.02375,-1.0775 -5.0975,-1.22125 -0.3675,-0.0487 -0.71,-0.09 -1.01625,-0.1175 l -1.40375,-0.12875 -0.9825,1.13375 c -1.14375,1.31875 -2.80375,3.70875 -3.85,5.6475 -0.42625,0.79125 -0.795,1.465 -1.08875,2.0375 l -0.84625,1.64875 c -0.0688,0.13625 3.77,0.63375 7.32375,2.20875 2.31875,1.0275 5.21375,2.8175 8.77,5.84625 0.32875,0.28 -2.1375,0.6975 -6.23375,1.14125 -11.6125,1.25875 -27.69375,1.9925 -32.0475,1.455 z m 77.48375,-32.53375 -8.13,8.13 8.1275,8.1275 8.13,-8.12875 -8.1275,-8.12875 z m -113.9575,4.91625 6.0075,6.0075 8.91375,-8.9125 -8.925,-8.92375 -6.0075,6.0075 -6.00875,-6.0075 -8.91375,8.9125 8.925,8.92375 6.00875,-6.0075 z m 71.96375,-12.8475 6.0075,6.015 8.9125,-8.9225 -8.92375,-8.93375 -6.0075,6.015 -6.0075,-6.015 -8.9125,8.9225 8.92375,8.93375 6.0075,-6.015 z M 277.31,139.29343 c 0.0375,0.0762 0.67375,-0.008 1.46625,-0.15625 4.345,-0.8175 11.445,-4.7 13.945,-7.46875 2.175,-2.4075 5.04375,-6.3225 6.72375,-9.1825 1.3725,-2.33625 2.5325,-5.03625 2.88375,-6.58 0.8675,-3.815 0.7625,-3.4675 -1.65375,0.3175 -0.29,0.45375 -0.6175,0.97 -0.98,1.525 -0.79125,1.21 -1.9625,2.66 -3.14625,3.94875 -2.7125,2.9575 -9.2425,6.78 -12.9425,7.43875 l -1.63375,0.29125 -0.20375,0.755 c -0.5975,2.2225 -2.0825,5.62375 -3.005,6.92125 -0.8925,1.25625 -1.57625,1.935 -1.45375,2.19 z m 139.8425,-20.06625 c 0.0225,-2.07 0.0538,-3.44375 0.0538,-3.44375 0,0 -1.84,3.37375 -3.03625,6.01 -3.00125,6.61125 -2.82125,4.79 -2.3625,12.10125 0.0825,1.3075 0.21375,2.8675 0.3825,4.605 l -0.0113,0 c 0.0238,0.20875 0.0488,0.41875 0.0738,0.62875 0.135,1.35125 0.29,2.8 0.46,4.3125 l 0.0588,0 c 0.77625,6.37 1.54625,12.64 1.68125,17.66375 0.17125,6.345 0,13.84 0,13.84 0,0 1.84,-3.37375 3.0375,-6.01 3.00125,-6.61 2.82,-13.57875 2.36125,-20.89 -0.065,-1.035 -0.16,-2.2275 -0.28125,-3.54125 -1.1926,-12.96125 -2.4226,-24.84875 -2.4176,-25.27625 z"
     style="fill:#ff0000;stroke:none" />
  <path
     id="jawi"
     d="m 439.965,273.77093 c -0.39375,0.38125 -0.84,0.79875 -1.28375,1.18875 -10.5175,9.2325 -41.605,12.5075 -53.05875,13.82375 -13.055,1.49875 -26.59875,-0.155 -38.31625,-3.20625 -9.4975,-0.555 -27.1575,-12.03125 -34.70875,-17.3575 l -12.405,-8.75 7.985,10.58 c 4.7375,6.27875 14.7325,16.115 16.43,17.28125 2.78,1.9125 2.98625,2.05375 2.98625,2.05375 1.0075,0.6925 2.01625,1.335 3.0925,1.90625 3.01875,1.60125 19.3475,7.32125 20.465,7.625 9.22,2.505 21.6375,2.47125 33.14125,1.38125 8.65875,-0.82125 49.07625,-8.30375 55.4,-16.42875 0.0937,-0.12125 0.18125,-0.2475 0.26125,-0.38375 0.58625,-0.98875 0.86875,-2.42875 1.38625,-3.72 0.89125,-2.22875 2.48125,-4.01625 3.63625,-6.28875 0.12375,-0.245 0.24375,-0.495 0.3575,-0.75 l 1.14625,-0.625 c 0.54625,-1.825 0.93375,-3.665 1.24875,-5.20125 0.74375,-3.6225 -1.98125,-4.92 -7.125,-8.51875 -0.56375,-0.39375 -1.1,-0.76875 -1.7275,-1.00125 -0.845,-0.31375 -1.1275,-0.355 -2.82125,-0.41375 l -5.44625,-0.19 c 0,0 -0.0825,-0.86875 0.0525,-1.50625 0.185,-0.87875 1.795,-1.72375 3.21625,-2.14875 4.415,-1.32125 11.0275,-4.4525 14.8575,-4.5075 1.48,-0.0213 3.09875,0.10875 3.09875,0.10875 0,0 0.6775,8.775 1.52375,13.245 0.82625,4.36625 2.59125,5.705 6.985,6.84 2.41125,0.62375 4.89125,1.14875 7.49625,1.205 4.6225,0.1 9.64,-1.275 14.24625,-1.3875 10.79625,-0.265 13.17625,1.76375 20.40375,-5.155 4.4825,-4.29375 7.20125,-9.8525 6.945,-15.24875 -0.10625,-2.2425 -3.49125,-12.09875 -4.36875,-12.7175 -1.5475,-1.0925 -5.8725,3.23 -7.385,7.4825 -0.29125,0.81875 -0.325,1.5275 -0.0937,2.685 0.66625,3.33375 3.52875,10.395 3.52875,10.395 0,0 -11,1.9675 -17.8125,2.86375 -8.46125,1.11375 -19.0225,1.66375 -22.175,-3.60125 -1.65875,-2.77 -2.99375,-6.58125 -1.92625,-7.81875 1.13875,-1.32 7.76875,-2.4625 11.145,-2.53875 3.6025,-0.0812 9.14,0.31875 9.14,0.31875 0,0 1.1475,-3.99 2.31125,-6.20125 1.03875,-1.97375 2.09125,-2.53 2.7225,-4.78625 0.17625,-0.62875 0.32,-1.38875 0.32,-1.38875 l -0.6275,-0.0225 0.0213,-0.6275 -7.17375,0.2475 c -1.695,0.0575 -2.0025,0.0425 -3.0825,-0.1575 -2.5725,-0.475 -8.855,-4.67375 -9.05125,-4.8475 -7.46125,-6.58 -6.065,-10.11875 -16.6575,-9.0625 -3.58625,0.3575 -10.18375,2.56 -12.4425,5.8475 -1.04375,1.51875 -2.58625,6.77 -3.14375,9.0625 -0.43625,1.79625 -0.76625,3.96125 -0.14,4.015 0.19625,0.0175 0.47625,-0.11625 0.6275,0.0225 0.09,0.0825 0.135,0.2625 0.23,0.3925 0.22625,0.305 0.73375,0.3225 1.25375,0.2875 2.135,-0.145 5.4175,-1.65625 8.08125,-3.09375 3.03625,-1.64 7.20125,-4.12625 9.69125,-3.19625 1.5125,0.565 1.885,1.47 1.43125,2.70375 -0.155,0.42 -0.35375,0.51375 -1.9975,0.935 -13.07,3.34625 -21.8125,6.30625 -31.99,14.07125 -4.4775,3.415 -5.76,6.68 -6.42125,12.9675 -0.5425,5.15625 2.995,7.115 9.02375,7.85375 4.40375,0.54 9.96125,-1.49125 13.9175,0.8 1.1875,0.6875 2.58,1.8075 3.575,2.65875 z m -149.43625,-59.55125 -0.0575,1.67375 c 0,0 0.77125,0.0525 1.505,0.0525 1.81875,-0.001 19.86,-9.8975 23.33,-12.18125 3.1075,-2.04375 4.5325,-5.06625 5.435,-9.17875 1.03375,-4.715 -0.83125,-6.135 -5.92125,-6.74 -5.5,-0.65375 -9.97625,0.49125 -10.38875,6.045 -0.0975,1.31125 -0.105,3.01125 -0.105,3.01125 0,0 2.07,0.37125 3.56375,0.125 1.95,-0.3225 2.91875,-1.6975 4.0425,-2.0575 0.77375,-0.24875 4.335,-0.0775 4.7325,0.74625 0.105,0.215 0.0263,0.485 -0.0225,0.7225 -0.065,0.32 -0.21125,0.48375 -1.46375,1.63125 -5.015,4.59875 -19.4925,13.53375 -23.7075,15.11875 -0.19875,0.075 -0.3925,0.145 -0.60125,0.165 -0.28,0.0275 -0.31375,0.11375 -0.34125,0.86625 z m 88.2175,34.225 c 0.1225,0.6475 0.055,1.63 -0.0925,2.635 -0.74,5.05125 -3.50625,10.65875 -4.26625,14.23625 -0.14,0.65625 -0.21125,1.24375 -0.055,1.56875 0.21875,0.45625 0.88625,0.3975 1.50625,0.0525 0.795,-0.44125 5.8,-16.49375 6.08375,-19.5125 0.625,-6.64875 -0.0575,-10.72 -3.82,-16.53 -1.7925,-2.7675 -3.105,-4.59875 -4.2725,-3.60375 -0.7125,0.60625 -1.195,4.27125 -0.855,6.5025 0.41375,2.715 1.51125,5.3125 2.87125,7.1525 1.67875,2.27 1.9825,2.65125 2.9,7.49875 z M 479.525,213.57843 c 0,0 2.51,0.0875 2.51,0.0875 0,0 -0.075,-1.305 -0.0363,-2.805 0.15375,-6.035 6.4725,-12.3825 12.29375,-12.84125 1.8075,-0.1425 3.55125,-0.16625 4.66875,-0.55 0.7825,-0.27 1.94875,-3.2075 2.03625,-5.12875 0.0263,-0.5925 0.0437,-1.255 0.0437,-1.255 l -5.0325,-0.175 c -1.69375,-0.06 -2.06625,-0.0263 -3.72375,0.32875 -13.2875,2.84625 -58.695,11.6225 -76.18625,21.695 -5.4475,3.13625 -6.9125,5.6825 -7.97,12.34875 -0.485,3.0575 0.0562,3.99875 1.29625,7.835 0.26375,0.815 0.50625,1.6475 0.5425,2.505 0.0488,1.15625 0.12375,1.295 0.74875,1.38875 0.465,0.07 0.985,0.1625 1.40125,-0.0312 0.67,-0.31125 1.315,-5.6475 0.88375,-7.30625 -0.7175,-2.75625 -2.3575,-4.4575 -1.98875,-5.85875 0.845,-3.22 14.47375,-8.7275 19.84125,-10.68 7.62625,-2.775 15.42625,-5.6125 23.825,-7.64875 11.27,-2.73375 27.8375,-5.625 27.8375,-5.625 0,0 0,0 0,0 0,0 -2.63125,7.79625 -2.7975,9.64375 -0.0437,0.47625 -0.0788,0.995 -0.10625,1.5625 -0.0575,1.15375 -0.0875,2.51 -0.0875,2.51 z m 3.0925,67.93375 -5.84625,-5.83375 -7.42375,7.40625 7.42375,7.405 5.84625,-5.8325 5.84625,5.8325 7.42375,-7.405 -7.42375,-7.40625 -5.84625,5.83375 z m -83.17125,-31.695 -6.7175,6.6725 c -1.11625,1.10875 -1.275,1.3075 -1.5875,1.99 -0.4375,0.95625 -0.58875,2.55625 -0.37375,2.7725 0.69625,0.7025 3.155,-1.00125 4.01125,-1.6325 7.49875,-5.53 10.915,-9.01375 12.1275,-16.17375 0.615,-3.64 -1.31125,-5.04875 -4.72125,-5.5125 -5.41,-0.7375 -10.77875,0.0163 -12.88,4.09 0.3275,15.55125 0.79,6.6575 5.3775,5.55375 5.10375,-1.2275 10.59125,-3.95625 4.76375,2.24 z m -59.8025,-14.87625 c -0.0563,-1.53625 -0.23,-3.465 -0.735,-3.95125 -0.2925,-0.28125 -0.69625,-0.0762 -0.95,-0.22875 -1.14,-0.68375 0.79875,-3.50625 1.7225,-4.585 8.38625,-9.78875 30.12125,-21.94375 41.60375,-24.4575 1.095,-0.24 2.18875,-0.43375 2.395,-0.0637 0.10375,0.185 -0.0125,0.5075 -0.19,0.87375 -0.41375,0.8575 -1.07875,1.89625 -1.815,3.00875 -15.29375,23.09375 8.83,-8.955 15.675,-9.855 0.625,-0.30875 1.21375,-0.5575 1.735,-0.7225 2.66375,-0.83875 5.54875,-1.01625 5.89875,-3.57 0.0488,-0.3575 0.055,-0.80375 0.0437,-1.2375 -0.11625,-4.1825 -6.9425,-2.18125 -11.7525,-0.3525 -4.4525,1.69375 -11.06375,4.485 -18.07625,7.72875 -9.07375,4.1975 -36.24125,16.8 -40.06375,27.745 -1.2325,3.5275 -1.00375,7.47875 1.4525,10.87875 0.105,0.145 0.20125,0.27625 0.2875,0.395 -1.10875,-1.505 3.00625,4.825 2.76875,-1.60625 z m 10.40625,-24.94875 -0.1925,-4.4075 c -0.0775,-1.7825 -0.0513,-2.10125 0.2575,-3.19375 0.23,-0.80875 0.4725,-1.695 1.08625,-2.26625 1.4975,-1.39 5.205,-0.90875 6.92375,-2.055 2.475,-1.65 2.47625,-7.315 0.5725,-9.61125 -2.02,-2.435 -6.1025,1.43125 -7.775,3.645 -1.0275,1.35875 -2,2.91625 -2.4375,4.73375 -0.20375,0.84375 -0.315,1.8 -0.47375,2.63625 l -0.7775,4.1 -2.565,-3.26375 c -3.51,-4.62375 -2.44,-5.9975 -7.59875,-7.255 -1.72875,-0.42125 -5.4775,-0.26375 -6.1975,1.6825 -0.56375,1.5225 0.76,5.22625 1.58875,6.10625 0.6375,0.67625 3.21875,2.35375 4.285,2.4575 1.74375,0.1675 5.30375,-0.8925 5.30375,-0.8925 0,0 2.87375,4.13625 4.62875,6.07875 0.76625,0.8475 1.4,1.53 2.3825,1.54875 0.405,0.007 0.98875,-0.0438 0.98875,-0.0438 z m 76.07,0 -0.1925,-4.4075 c -0.0775,-1.7825 -0.0512,-2.10125 0.2575,-3.19375 0.23,-0.80875 0.4725,-1.695 1.08625,-2.26625 1.4975,-1.39 5.205,-0.90875 6.92375,-2.055 2.47375,-1.65 2.47625,-7.315 0.57125,-9.61125 -2.01875,-2.435 -6.10125,1.43125 -7.77375,3.645 -1.0275,1.35875 -2.00125,2.91625 -2.43875,4.73375 -0.2025,0.84375 -0.315,1.8 -0.47375,2.63625 l -0.77625,4.1 -2.565,-3.26375 c -3.51125,-4.62375 -2.44,-5.9975 -7.59875,-7.255 -1.72875,-0.42125 -5.4775,-0.26375 -6.19875,1.6825 -0.5625,1.5225 0.76,5.22625 1.59,6.10625 0.6375,0.67625 3.21875,2.35375 4.285,2.4575 1.7425,0.1675 5.30375,-0.8925 5.30375,-0.8925 0,0 2.87375,4.13625 4.62875,6.07875 0.76625,0.8475 1.39875,1.53 2.38125,1.54875 0.40625,0.007 0.99,-0.0438 0.99,-0.0438 z m 64.4675,32.4 0.77,-0.0137 c 0.345,-0.005 0.4375,-0.21625 0.92625,-2.10375 2.81125,-10.8525 3.325,-16.84625 -3.59125,-23.8075 -1.13875,-1.14625 -2.465,-2.1075 -3.32,-1.08 -0.58,0.6975 -1.1725,5.6175 -0.9075,6.69125 0.4625,1.88 1.8325,2.49 3.415,3.765 3.575,2.8825 4.47125,5.04375 4.01625,8.8825 -0.35,2.94625 -1.30875,7.66625 -1.30875,7.66625 z M 129.21625,227.31343 c 3.30375,0.6325 7.59875,-0.6375 9.5975,-3.57125 0.57375,-0.84125 2.66375,-5.94875 1.8275,-6.57 -0.27,-0.20125 -0.85,-0.0112 -1.47625,0.25875 -3.26625,1.41 -5.4225,2.75125 -7.46125,3.02 -17.86588,2.35125 1.05375,-30.48875 -3.94875,-23.58125 -1.5725,2.17 -3.21513,5.32 -4.32938,7.9375 -0.0159,0.0375 -0.0317,0.075 -0.0475,0.1125 -8.44537,19.93875 4.59438,22.155 5.83813,22.39375 z m 179.8175,46.86125 c -5.18125,-0.1 -10.13125,-1.25875 -14.22125,-3.96 -7.88125,-3.8275 -9.80375,-12.34 -11.7075,-19.9125 l -0.0538,-0.12 -0.21875,14.275 c -0.015,0.94125 -0.0125,1.8875 0.0175,2.74 0.0675,1.87625 0.34625,3.40375 0.83,4.715 7.1275,19.3575 34.24375,12.91875 45.135,4.66125 3.4725,-2.63375 5.655,-6.03125 8.415,-11.035 0.8025,-1.455 1.60375,-3.1225 1.69375,-4.06875 0.0575,-0.5975 0.1525,-0.66125 0.945,-0.64 0,0 0.37875,0.01 0.78625,0.02 12.13625,0.3175 19.125,-1.155 21.935,-5.23625 1.265,-1.83625 2.59,-4.23125 2.77875,-5.28875 0.6625,-3.7175 0.8025,-5.75375 -0.50125,-10.63875 -1.0225,-3.83125 -2.9075,-9.66 -2.9075,-9.66 0,0 -2.5975,2.07875 -3.77,3.6525 -1.75,2.34875 -2.18375,6.3675 -1.02,8.97875 1.06625,2.395 1.97625,2.6675 1.98,6.4325 0.001,0.765 -0.0425,1.65375 -0.0425,1.65375 0,0 -6.0325,0.17625 -7.7425,0.2275 -4.8975,0.14375 -13.05625,-0.66375 -15.59,-6.85 -0.8,-1.95 -1.3575,-3.7275 -3.12375,-2.67375 -2.33,1.38875 -3.56875,7.90125 -3.3525,10.23625 0.3625,3.895 2.46375,9.15875 3.45375,13.5025 0.0825,0.365 0.1575,0.7225 0.14375,1.09 -0.02,0.49625 -0.2,0.6425 -1.79125,1.4575 -6.155,3.1525 -14.19375,5.8025 -22.0375,6.34625 l -0.0337,0.095 z m -117.655,10.32 C 181.0275,283.16093 170.5575,280.61343 163.48,276.12593 l -14.45375,-9.16375 6.77875,10.3625 c 5.05875,7.73625 13.93875,12.68625 24.61125,15.47125 22.08,5.7625 31.65,2.90125 52.74375,-4.8125 9.875,-3.61125 17.19125,-8.17875 19.6675,-13.00125 1.32125,-2.57125 2.61,-5.25625 2.75875,-5.65125 1.09625,-2.9175 -1.715,-4.8775 -5.2375,-6.58125 -1.6025,-0.77375 -3.3025,-1.06125 -5.695,-1.15125 -4.82875,-0.18125 -12.475,0.4425 -12.475,0.4425 0,0 3.7225,-3.12375 6.49875,-5.2425 1.9975,-1.52375 11.43375,-7.93625 15.09625,-6.85875 3.31125,0.97375 3.24875,4.00875 5.10375,7.4225 2.54625,4.68625 8.7375,5.94 13.68875,4.3525 1.08,-0.34625 2.245,-0.83375 3.28625,-1.31125 4.0775,-1.86875 6.59875,-3.11375 8.11125,-3.935 4.01875,-2.18125 11.91875,-1.7175 17.0125,-1.0675 -0.0612,-0.007 3.3325,0.66625 6.1925,1.265 2.26375,0.47375 3.8525,0.825 3.8525,0.825 0,0 2.73875,-3.9975 3.675,-6.29125 1.54625,-3.78625 -3.37125,-4.15 -7.33,-5.3925 -2.68625,-0.84375 -9.64875,-4.99375 -11.6475,-6.94375 -3.00875,-2.935 -5.2475,-6.50125 -8.49,-8.84 -5.255,-3.79125 -9.46375,-4.87 -15.47375,-3.07875 -3.11875,0.92875 -5.19875,2.52375 -5.71875,7.2 -0.635,5.70875 2,4.2325 6.3525,5.10875 0.0687,0.0137 0.1375,0.0287 0.205,0.0437 5.3275,1.195 5.52,-4.16375 10.535,-0.0238 2.34625,1.93875 5.0975,4.8425 4.34875,5.9125 -0.49625,0.71 -2.15,0.99625 -3.62,1.57375 -2.725,1.07 -4.815,3.1375 -7.095,4.15125 -4.615,2.0525 -11.80625,1.18375 -13.9275,-2.705 -3.78875,-6.94375 -2.08,-9.8575 -9.86125,-8.21625 -2.39125,0.50375 -4.57125,1.37125 -6.4875,2.7975 -1.0775,0.8 -2.07,1.77625 -3.17375,2.55875 -1.36875,0.97 -2.90625,1.63875 -4.41625,2.52375 -7.08125,4.15125 -9.95125,8.5375 -11.34125,14.99375 -1.15625,5.375 -1.13875,7.56375 2.57625,8.54125 3.04125,0.79875 7.6625,0.63 11.7725,0.53125 1.64125,-0.04 3.93375,0.18 3.1975,1.8525 -0.1225,0.27625 -0.3675,0.49625 -0.64,0.71125 -1.80125,1.4175 -4.52375,2.7175 -7.755,3.89 -13.07875,4.74375 -32.115,7.80625 -45.3275,6.105 z m -25.5425,-28.7875 c -9.66625,0.6375 -19.555,-0.2775 -26.2275,-4.17375 -5.76375,-3.365 -6.2175,-17.11125 -7.8125,-11.8425 -2.8525,9.42375 -3.46125,17.57375 3.81875,21.685 1.725,0.975 3.53125,1.78375 5.40375,2.44375 8.80125,3.105 23.5675,3.5175 35.615,-2.6425 0.73375,-0.375 1.455,-0.85125 2.17875,-1.51625 0.8175,-0.7525 1.50375,-1.4925 2.08875,-2.16 l 3.18375,-3.62375 1.48375,3.8925 c 0.8175,2.145 0.96875,3.26875 4.40125,5.4925 1.89375,1.22625 3.95875,1.755 6.37625,1.16 3.2025,-0.78875 5.6275,-3.65625 8.5125,-4.155 2.55625,-0.44125 7.5825,2.21 11.9725,3.3675 3.01625,0.795 3.82625,0.45 5.26,-1.18625 4.9325,-5.62625 7.57125,-9.975 5.44,-18.1775 -1.27125,-4.89625 -7.8125,-3.4925 -13.19625,-1.55 -4.3575,1.57125 -11.945,5.24875 -12.5225,9.33875 -0.145,1.02125 0.0462,2.01125 -0.365,2.5675 -1.3175,1.7875 -7.2,-0.3775 -9.21625,-1.89625 -1.54875,-1.16625 -2.47375,-2.7275 -2.83375,-5.2475 -0.3025,-2.11625 -0.3075,-4.33875 -2.465,-3.16375 -1.26125,0.68625 -1.865,3.05625 -3.20375,4.54875 -1.48875,1.66 -7.69,3.90875 -10.05125,4.70125 -2.28875,0.76875 -4.9475,1.49875 -7.84125,2.1375 z m 53.6075,-0.4975 c -0.0913,-0.0375 -0.18125,-0.0775 -0.27,-0.1175 -1.1525,-0.52625 -2.03375,-1.1325 -3.79375,-1.755 -2.03875,-0.72 -5.25625,-1.46125 -5.25625,-1.46125 0,0 0.69375,-0.7175 1.3575,-1.2875 0.68375,-0.5875 2.2075,-1.19875 3.8175,-1.61375 4.76625,-1.2275 5.50875,-0.69625 5.4425,1.8275 -0.005,0.22 -0.015,0.5825 -0.025,0.98125 -0.135,5.14875 -1.43125,3.36 -1.2725,3.42625 z m 50.79625,20.21125 -7.2875,7.28875 7.2875,7.2875 7.28875,-7.2875 -7.28875,-7.28875 z m 49.59125,-63.215 -7.2875,7.2875 7.2875,7.28875 7.28875,-7.28875 -7.28875,-7.2875 z m 26.235,54.97875 -7.2875,7.2875 7.2875,7.2875 7.28875,-7.2875 -7.28875,-7.2875 z M 155.85,234.35843 l 5.68125,5.6825 7.2875,-7.28875 -7.2875,-7.2875 -5.68125,5.68125 -5.68125,-5.68125 -7.28875,7.2875 7.28875,7.28875 5.68125,-5.6825 z m 97.12375,58.78625 5.68125,5.68125 7.2875,-7.2875 -7.2875,-7.28875 -5.68125,5.68125 -5.68125,-5.68125 -7.2875,7.28875 7.2875,7.2875 5.68125,-5.68125 z m 17.26625,-21.37125 5.68125,5.68125 7.28875,-7.2875 -7.28875,-7.2875 -5.68125,5.68125 -5.68125,-5.68125 -7.2875,7.2875 7.2875,7.2875 5.68125,-5.68125 z m -37.01,-43.55 c 0.26125,-0.1975 0.6025,-0.35125 1.02125,-0.4525 1.65,-0.40125 4.49375,0 4.49375,0 0,0 0.9725,-3.85875 0.6125,-5.71875 -0.4025,-2.075 -4.11875,-2.225 -6.1225,-0.71 -2.56375,1.9375 -3.91875,10.36125 -3.06125,12.9675 0.2375,0.72125 0.6025,1.375 1.085,1.89875 0.17625,0.19125 0.3675,0.36375 0.5675,0.54375 l 1.4075,1.265 0.75375,2.04875 c 0.31375,0.8525 0.515,1.58625 0.515,1.58625 0,0 5.7275,-3.61875 7.61,-5.9225 0.83375,-1.02 0.91375,-1.7825 1.22375,-3.06125 0.56375,-2.31375 1.41,-4.4875 0.91875,-4.8975 -0.4075,-0.34125 -1.58875,-0.18125 -2.52,0.34125 -1.3775,0.77125 -2.21,2.33375 -4.41,2.72 -0.61375,0.1075 -1.3325,0.12375 -1.9575,0.10625 -3.4025,-0.52375 -2.50375,-2.2075 -2.1375,-2.715 z m 38.4525,-14.1 c 3.3625,2.95375 8.24875,4.49125 10.175,1.6075 1.24875,-1.87 3.2825,-5.7725 3.2825,-5.7725 0,0 -2.0675,-3.1225 -3.7925,-4.465 -1.15875,-0.9025 -3.3725,-1.27875 -4.68,-0.56875 -1.155,0.62625 -2.5025,2.44125 -3.23375,1.69875 -0.455,-0.4625 0.0838,-2.2825 0.74125,-3.9875 1.1125,-2.8875 6.0925,-9.15875 0.0125,-14.5025 -0.0275,-0.009 -0.0537,-0.0163 -0.08,-0.0225 l -0.93625,-0.43 -0.98,0.6175 c -1.5275,0.45375 -1.235,4.02875 -0.73625,4.5175 0.27,0.26375 0.65875,1.0525 1.02625,1.765 0.815,4.24125 0.15875,7.88125 -1.50125,11.9325 -0.66375,1.62 -1.1475,3.27 -0.90875,5.08 0.15,1.13375 0.31,1.3875 1.61125,2.53 z m -74.67625,33.81375 c 0,0 0.615,-1.41875 0.9875,-2.54375 0.62875,-1.8975 0.5275,-3.26875 0.28,-5.23375 -0.69125,-5.47625 -1.755,-17.8825 -1.755,-17.8825 0,0 1.9075,-0.215 3.365,-0.1775 3.94125,0.10375 5.09,1.96 7.1625,-0.11125 1.35,-1.34875 2.5575,-6.1275 1.69375,-7.91125 -0.98625,-2.04125 -4.33125,-3.02375 -5.86875,-1.35875 -0.70875,0.76875 -1.11375,1.98 -1.925,2.77875 -1.25625,1.23625 -3.48875,1.48125 -4.595,2.51125 -1.89375,1.765 -2.1475,14.1 -1.8,17.0225 0.58875,4.92875 2.455,12.90625 2.455,12.90625 z m 52.61875,-48.1225 -6.7175,6.6725 c -1.11625,1.10875 -1.275,1.30875 -1.5875,1.99125 -0.4375,0.95625 -0.58875,2.555 -0.37375,2.7725 0.69625,0.7025 3.15625,-1.0025 4.0125,-1.63375 7.4975,-5.53 10.91375,-9.0125 12.12625,-16.17375 0.61625,-3.63875 -1.31125,-5.0475 -4.72125,-5.5125 -5.41,-0.73625 -10.77875,0.0175 -12.88,4.09 0.3275,15.55125 0.79,6.65875 5.3775,5.555 5.10375,-1.22875 10.59125,-3.95625 4.76375,2.23875 z m -96.25375,0 -6.7175,6.6725 c -1.11625,1.10875 -1.275,1.30875 -1.5875,1.99125 -0.4375,0.95625 -0.58875,2.555 -0.37375,2.7725 0.69625,0.7025 3.15625,-1.0025 4.0125,-1.63375 7.4975,-5.53 10.91375,-9.0125 12.12625,-16.17375 0.61625,-3.63875 -1.31125,-5.0475 -4.72125,-5.5125 -5.41,-0.73625 -10.77875,0.0175 -12.88,4.09 0.3275,15.55125 0.79,6.65875 5.3775,5.555 5.10375,-1.22875 10.59125,-3.95625 4.76375,2.23875 z m 39.925,4.67375 0.0625,-0.1875 c -0.735,0.4825 -1.47125,0.975 -2.20625,1.47375 -1.94125,1.18 -3.975,2.45375 -6.0175,3.79625 l -0.24375,0.73625 c -6.18625,4.8025 -11.275,9.935 -12.50375,14.505 -0.97,3.6075 -0.45125,7.5325 2.24625,10.7425 0.11625,0.1375 0.22125,0.26125 0.31625,0.37375 -1.215,-1.42 3.3525,4.59125 2.64375,-1.805 -0.16875,-1.52875 -0.48375,-3.44 -1.0225,-3.88625 -0.3125,-0.26 -0.70125,-0.0263 -0.965,-0.15875 -1.18625,-0.59875 0.54,-3.55625 1.3825,-4.69875 2.99375,-4.065 8.00375,-8.6425 13.66875,-12.90875 l 0.175,-0.52875 c 6.43625,-4.07125 12.87875,-7.32625 17.62875,-8.73875 1.07375,-0.31875 2.15125,-0.5925 2.385,-0.23875 0.11625,0.17625 0.0238,0.5075 -0.12625,0.885 -0.35,0.88625 -0.93625,1.97 -1.59,3.135 -13.5575,24.1525 8.14875,-9.57875 14.91,-10.97875 0.60125,-0.355 1.17,-0.64625 1.6775,-0.8475 2.595,-1.0325 5.45875,-1.42125 5.62,-3.99375 0.0225,-0.36125 -0.002,-0.80625 -0.0463,-1.2375 -0.4225,-4.1625 -7.08375,-1.66625 -11.7475,0.51125 -4.315,2.015 -10.70375,5.28375 -17.46,9.03375 -2.10625,1.16875 -5.22375,2.9025 -8.7875,5.01625 z m 0,0 -2.46375,7.45375 c -2.85,1.8025 -5.69875,3.765 -8.39875,5.79875 l 2.4575,-7.43375 c 2.00375,-1.555 4.1225,-3.07625 6.26125,-4.5325 0.73,-0.4425 1.445,-0.87125 2.14375,-1.28625 z m -11.4725,5.50375 -0.1925,-4.4075 c -0.0775,-1.7825 -0.0512,-2.10125 0.2575,-3.19375 0.23,-0.80875 0.4725,-1.695 1.08625,-2.26625 1.4975,-1.39 5.205,-0.90875 6.92375,-2.055 2.47375,-1.65 2.47625,-7.315 0.57125,-9.61125 -2.01875,-2.435 -6.10125,1.43125 -7.77375,3.645 -1.0275,1.35875 -2.00125,2.91625 -2.43875,4.73375 -0.2025,0.84375 -0.315,1.8 -0.47375,2.63625 l -0.77625,4.1 -2.565,-3.26375 c -3.51125,-4.62375 -2.44,-5.9975 -7.59875,-7.255 -1.72875,-0.42125 -5.4775,-0.26375 -6.1975,1.6825 -0.565,1.5225 0.75875,5.22625 1.58875,6.10625 0.6375,0.67625 3.21875,2.35375 4.285,2.4575 1.7425,0.1675 5.30375,-0.8925 5.30375,-0.8925 0,0 2.87375,4.13625 4.62875,6.07875 0.76625,0.8475 1.4,1.53 2.38125,1.54875 0.40625,0.007 0.99,-0.0438 0.99,-0.0438 z"
     style="fill:#000000;stroke:none" />
  <text
     id="name"
     style="font-size:35.82610703px;text-align:center;stroke:#000000;stroke-width:1;font-family:Arial Black"
     x="116.34348"
     y="324.94989"
     transform="scale(0.96667356,1.0344754)">YAHYA BIN CHE MAT</text>
  <path
     id="kembali"
     d="m 406.56375,364.03093 c 0.04,0.43 -0.0312,0.67875 -0.2025,1.07125 -1.04875,2.39875 -2.91625,2.625 -5.7375,2.63 -0.7675,10e-4 -1.33,-0.009 -1.7875,0.0113 l -1.7625,0.0725 -2.2675,2.1225 c -0.7675,0.7175 -1.58375,1.56125 -2.225,2.29625 -1.6725,1.91875 -2.665,2.9375 -2.78875,3.52875 -0.275,1.31625 6.44125,-0.31875 12.73625,2.10375 0.6475,0.24875 1.35875,0.59875 2.3075,1.09 1.365,0.7075 3.22375,1.71 3.22375,1.71 0,0 -1.7975,1.395 -3.32,2.37 -4.68625,3.0025 -17.49375,4.895 -22.72,2.93 -3.755,-1.41125 -6.74,-3.97875 -7.19125,-7.64 -0.29625,-2.40125 0.70125,-11.96375 0.70125,-11.96375 0,0 -1.81625,2.47125 -2.83375,4.03 -3.09,4.73125 -4.18,12.74125 -1.72,17.725 3.01625,6.11125 10.73625,7.24375 18.39875,6.39375 7.075,-0.78375 17.17875,-4.69125 21.385,-9.005 1.51875,-1.5575 5.1975,-6.4425 5.745,-7.9425 0.19875,-0.54 -0.88125,-3.505 -1.42625,-3.91625 -1.665,-1.2575 -6.0375,-2.97125 -6.0375,-2.97125 0,0 1.96875,-3.4075 3.01125,-5.5 0.50875,-1.02375 0.82625,-0.5475 0.6625,-1.90875 -0.1925,-1.60125 -0.6125,-3.72375 -1.04125,-4.9375 -0.6,-1.7 -1.5025,-0.99125 -0.61875,-2.13125 0.25,-0.32 0.80625,-0.315 1.37375,-0.34375 0.5575,-0.0275 2.3875,-1.49 3.57125,-2.84875 1.0375,-1.19125 2.0775,-3.28875 2.0775,-3.28875 0,0 -5.6575,-1.97875 -6.93375,-2.95625 -0.39,-0.3 -0.72875,-0.585 -1.0225,-0.855 -1.8725,-1.7275 -1.8225,-4.595 -2.52375,-4.2525 -0.48,0.235 -1.1675,0.38 -1.92,0.65 -1.5375,0.55125 -3.48625,2.66875 -4.0225,4.37 l -0.9325,2.9575 1.08,1.19125 c 0.33375,0.36875 0.775,0.78875 1.225,1.21375 l 1.5525,1.46875 1.23875,2.26375 c 0.425,2.0575 -0.27375,1.24 -0.035,3.3775 0.25125,2.2625 0.51375,2.01125 0.78,4.88375 z m 9.43375,28.3575 -4.65625,-4.66 -5.99625,6.00125 5.99625,6.00125 4.65625,-4.66125 4.65625,4.66125 5.99625,-6.00125 -5.99625,-6.00125 -4.65625,4.66 z m 33.5275,-3.77625 c 5.6125,-0.15 11.9675,-0.76875 16.01875,-1.6825 1.24625,-0.28 2.4975,-0.605 3.5075,-1.05375 1.78625,-0.79375 2.19625,-1.655 2.62375,-1.62 0.31625,0.0263 0.795,0.97 1.42625,1.87875 0.97625,1.405 3.29125,2.54375 5.20875,2.69875 0.42375,0.0337 1.31625,-0.33 2.31125,-0.88375 3.68625,-2.05125 5.31625,-3.2925 6.095,-3.9675 l 0.77625,-0.6725 0.60625,0.38375 c 0.315,0.2 0.73875,0.5375 1.71625,0.84125 0.29125,0.09 0.64,0.2 1.02625,0.325 2.5225,0.80875 5.205,1.25375 7.0575,1.26375 l 1.265,0.0112 c 0.9125,0.007 2.6425,-3.30375 3.4025,-4.95625 l 0.2875,-0.625 -1.13375,-0.1 c -1.1225,-0.1 -2.91875,-0.32375 -4.28,-0.805 -1.6525,-0.58375 -4.45625,-2.2375 -5.21125,-3.0725 -0.63,-0.6975 -1.34375,-1.6075 -1.34375,-1.6075 0,0 1.87,-0.94625 2.90875,-1.7325 1.56875,-1.18625 2.68125,-3.1675 3.05375,-4.675 0.54375,-2.1975 -0.5325,-6.19 -2.15125,-8.0725 l -0.935,-1.0875 1.59875,-1.05625 c 2.635,-1.73875 5.82125,-3.6075 7.21375,-4.25875 3.63625,-1.7 6.41625,-2.4875 8.635,-3.415 l 2.6475,-1.10625 c 1.36125,-0.56875 3.0325,-3.04375 3.42125,-5.01125 0.15875,-0.80375 0.25125,-1.87375 0.21375,-2.65875 l -2.825,0.86125 c -5.10375,1.5575 -17.425,8.53625 -18.15625,8.99375 -1.76875,1.1075 -8.9175,6.105 -12.41875,9.44125 l -2.2925,2.185 2.86875,0.11 c 2.08375,0.08 4.7775,0.8525 5.97125,3.90875 0.535,1.3675 0.99375,3.17375 0.845,3.635 -0.31875,0.98875 -2.31125,2.59625 -3.3775,4.2775 -1.86375,2.93875 -2.0675,6.88 -6.44875,7.17625 -2.33125,0.1575 -4.58625,-1.7325 -5.34,-3.59625 -0.45625,-1.13 -0.865,-2.8325 -0.865,-2.8325 0,0 -2.66875,2.79875 -4.36,3.815 -0.97375,0.58375 -2.86,1.01125 -4.39125,1.19 -12.8475,1.495 -19.8125,2.58125 -31.81375,-1.3575 -3.18875,-1.04625 -3.64625,-1.52 -4.12,-4.10875 -0.69375,-3.7975 -1.585,-14.17875 -1.84125,-18.19875 -0.33125,-5.20375 1.225,-8.445 -1.42875,-13.69625 l -0.66375,-1.315 -1.26875,1.92625 c -1.01,1.53375 -1.95375,3.13375 -2.0675,3.52625 l -0.7325,2.52875 0.69375,1.91625 c 1.2525,3.45875 1.2375,2.36125 0.87,7.56875 -0.155,2.19 -0.18625,11.05375 -0.0875,13.19625 0.55625,12.00375 4.11875,12.26375 7.9575,13.3975 3.285,0.97 7.53375,1.78 9.31,1.9675 1.6825,0.17875 3.81125,0.25125 6.1425,0.23375 l -5.0625,5.065 6.0175,6.02 6.015,-6.01875 -5.09625,-5.0987 z m 0,0 c -0.63625,0.0175 -1.26125,0.0275 -1.87375,0.0325 l 0.9525,-0.95375 0.92125,0.92125 z M 289.13625,374.50093 c -0.58375,-0.64375 -1.26,-1.4725 -1.91875,-2.31375 l -2.94375,-3.755 -3.51375,9.71625 1.55,1.97875 c 0.6325,0.80625 1.34875,1.675 1.98625,2.43375 l 1.8525,2.20375 -2.38875,2.05125 c -9.86625,8.47375 -11.57,10.82125 -20.55625,9.02125 -0.415,-0.0825 -0.79625,-0.17625 -1.12625,-0.2775 -0.18125,-0.055 -0.35625,-0.11 -0.5275,-0.165 l -5.75625,-1.8375 2.8625,3.2125 c 3.26875,3.6675 15.78125,5.3375 22.005,0.30375 2.04125,-1.65 3.85375,-3.545 4.63875,-4.98875 0.715,-1.31625 1.14875,-2.40375 1.475,-3.27875 l 1.1925,-3.205 3.59375,0.5675 c 5.33875,0.84375 12.8025,1.56375 24.3125,1.745 16.3175,0.255 37.365,-0.56375 41.15625,-1.7225 l 2.43125,-0.74375 4.1975,-5.3925 c 0.13125,-0.47375 0.25875,-0.96625 0.375,-1.44625 0.77375,-3.21375 0.1075,-7.0925 -1.41375,-9.78625 -1.95,-3.4575 -8.025,-5.785 -12.41625,-4.76875 -1.11875,0.26 -2.405,0.61375 -4.0175,0.99875 -8.925,2.13375 -25.585,3.525 -33.50125,2.89125 L 299.4,366.87968 c 0,0 3.66875,-3.1525 7.03875,-6.145 3.0175,-2.68 9.70125,-5.82875 13.10875,-6.1275 l 1.665,-0.145 1.03375,-1.3325 c 1.03875,-1.33875 1.6775,-3.3975 2.055,-5.2425 0.13875,-0.67625 0.22375,-1.3625 0.1375,-1.8775 l -0.39,-2.33125 -1.9375,0.79375 c -2.99125,1.225 -8.73,5.24125 -14.06625,10.00875 -3.9125,3.49625 -8.9925,8.67375 -9.9375,10.17875 -1.025,1.63 -2.1025,4.80125 -2.895,6.81875 -0.28625,0.7275 0.26375,1.7325 1.24125,2.52 3.34,2.69 27.78125,2.16 49.0975,-1.18625 0.4625,-0.0725 0.96875,-0.12625 1.5675,-0.16125 3.89875,-0.22375 9.7825,1.30125 10.05625,4.09625 0.0888,0.89875 0,2.30875 0,2.30875 0,0 -14.5425,1.13875 -14.5425,1.13875 -22.27,1.74375 -45.93375,2.6575 -53.49625,-5.69375 z m -75.9575,9.9575 -3.0825,-0.515 0.115,-0.685 c 0.0512,-0.30875 0.24625,-0.3925 1.95375,-0.84125 1.29375,-0.33875 3.245,-0.77375 3.9725,-0.43875 0.3875,0.17875 0.43875,0.42125 1.08375,0.165 0.98375,-0.39125 2.745,-1.99625 2.745,-1.99625 l -0.4,2.395 c -0.18,1.07625 -0.2775,1.2275 -0.98125,1.51625 -0.155,0.0637 -2.8725,0.64125 -3.11625,0.645 -0.67625,0.0113 -0.905,-0.0125 -2.29,-0.245 z m 26.2325,-7.89625 c 0.645,0.1075 1.07375,0.17625 1.4425,0.2225 l 3.0625,0.38125 2.4025,-1.07625 c 0.50625,-0.22625 0.98875,-0.49625 1.42625,-0.80375 1.06875,-0.75125 1.325,-0.73 2.56625,0.20625 l 2.76125,2.08625 c 0,0 -8.82,1.48375 -13.5575,2.9625 -2.165,0.67625 -4.505,1.62375 -5.7775,2.995 -1.73125,1.86625 -4.08,6.0575 -4.08,6.0575 0,0 -1.45,-1.70625 -2.34,-3.17 -0.82125,-1.35125 -1.815,-5.4925 -2.02875,-7.60125 -0.14375,-1.42875 -0.10125,-3.2825 -0.0375,-5.09875 0.12375,-3.51875 -1.11625,-9.79125 -2.5575,-12.48375 -1.08,-2.015 -2.17875,-4.4425 -2.17875,-4.4425 -0.46,-1.01375 -2.56,2.435 -4.34125,7.13125 -0.14375,0.37875 1.01,1.77 1.7825,4.42 0.4375,1.50125 0.7175,3.09875 0.675,4.0825 -0.0375,0.83875 -0.27125,1.65375 -0.88125,2.15875 -0.89,0.73375 -4.37625,1.23375 -6.955,2.1375 -3.98125,1.3975 -4.8825,3.355 -7.0625,6.74125 -2.68375,4.17 -4.195,6.00875 -0.7525,8.4575 2.97375,2.11625 9.155,2.95125 13.05,0.8625 2.0025,-1.07375 3.8825,-3.7 4.4325,-3.595 0.28,0.0537 0.46125,0.80625 0.7175,1.80625 0.10875,0.425 0.27125,0.83625 0.4825,1.23375 1.5175,2.84875 6.89375,5.54875 12.5625,6.8975 0.51375,0.12125 1.0425,0.2175 1.5775,0.2875 6.54375,0.86375 7.21625,0.0288 8.05,0.0388 0.465,0.006 2.59875,-2.76125 4.3,-5.64875 0.6175,-1.04875 -4.42125,-0.7575 -7.46,-3.4225 -1.45375,-1.275 -2.54875,-2.4725 -2.54875,-2.4725 0,0 1.97875,-0.5025 4.61,-0.93625 0.7375,-0.1225 8.00625,-0.47125 15.6075,-0.76625 3.24375,-0.12625 7.80375,0.3225 9.01125,0.9375 0.75625,0.38625 1.30375,0.69125 1.7025,0.55375 3.1925,-1.10375 5.18875,-5.005 6.0425,-7.57875 l 0.6075,-1.82875 -1.7575,-0.44125 c -1.3225,-0.33125 -3.40875,-0.8725 -4.79125,-1.3225 -1.7425,-0.565 -2.78625,-1.18375 -4.41375,-2.29875 -8.2575,-5.65875 -14.66,-12.38125 -20.43125,-10.8725 l -2.6575,0.695 -2.4425,3.24375 c -1.50875,2.00375 -3.2225,4.76625 -3.3925,5.62875 -0.1375,0.7025 -0.125,1.37125 -0.0163,2.0475 l 0.165,1.015 3.42375,0.5725 z m -18.37625,-28.59 -4.65625,-4.66 -5.99625,6.00125 5.99625,6.00125 4.65625,-4.66125 4.6575,4.66125 5.995,-6.00125 -5.995,-6.00125 -4.6575,4.66 z m -28.09875,8.28875 1.9925,18.63625 c 0.2425,2.895 -0.25625,7.16125 -0.62125,9.085 l -0.585,3.08125 c 0,0 3.965,-5.485 5.1375,-8.7275 0.2225,-0.6175 1.165,-3.77375 1.11375,-5.20625 -0.03,-0.82625 -0.0487,-1.07 -0.18875,-2.43125 l -2.67125,-19.275 c -0.34375,-2.4825 -0.60125,-6.47875 -0.52,-7.94625 -0.0425,-0.35625 -1.34875,-0.675 -3.95625,5.22875 -0.16875,0.3825 -0.34375,0.80125 -0.53875,1.2725 l -1.1775,2.84625 c 0,0 1.4175,1.44125 1.4175,1.44125 0.4225,0.43 0.4825,0.63 0.5975,1.995 z m -35.355,7.0125 0.83875,13.08375 c 0,0 -5.635,1.75125 -9.22625,2.41875 -2.1575,0.40125 -6.1,0.14125 -9.42875,-0.945 -4.21125,-1.37375 -5.825,-3.39375 -6.9625,-17.0125 -0.26375,-3.155 -0.435,-6.38 -0.38375,-8.1975 0.0637,-2.27125 0.18125,-4.8025 0.18125,-4.8025 0,0 -1.37125,0.7175 -2.57625,1.65375 -1.285,0.9975 -2.125,1.8675 -2.66,2.54125 l -0.66625,0.84125 0.4875,2.1825 c 0.14375,0.64 0.33,2.4925 0.37875,3.6825 l 0.0238,0.55375 -1.225,0.43 c -0.74375,0.26125 -1.78813,0.505 -2.81663,0.9375 -3.09687,1.30625 -11.20699,9.5275 -11.04337,14.98375 0.0666,2.2275 3.80113,5.81875 4.85225,6.255 0.72063,0.29875 2.40925,-0.1025 4.959,-1.125 2.69875,-1.0825 6.8025,-2.68 6.8025,-2.68 0,0 0.2425,3.4425 0.965,5.30875 0.13,0.33625 0.91875,1.0875 1.8225,1.8325 3.82875,3.1475 13.1,3.9575 18.9525,1.5125 2.3275,-0.9725 4.42,-2.32375 5.74,-3.855 0.8825,-1.025 2.59375,-2.75625 2.59375,-2.75625 0,0 0.945,2.695 1.88375,4.09625 0.84875,1.265 1.16125,1.7775 1.76625,2.2175 0.9475,0.69 6.78,1.86125 8.7375,1.75375 3.7225,-0.2025 5.74375,-1.00375 8.23375,-4.15875 1.3975,-1.7725 2.68375,-3.46375 3.65875,-5.1025 3.87125,-6.50125 1.90625,-16.15375 0.1775,-21.825 l -2.15,-7.05125 -5.235,9.74125 0.8875,3.6025 c 1.2775,5.1925 3.38625,13.9475 0.765,15.0075 -0.4925,0.2 -1.05,0.41 -1.5575,0.56375 -2.70375,0.81875 -8.88,-0.43875 -10.00625,-0.95625 -0.65,-0.2975 -2.675,-3.61125 -2.93375,-4.80125 -0.8425,-3.88125 -2.09375,-24.2575 -2.09375,-24.2575 0,0 -0.83875,0.9875 -1.65,2.1425 -1.165,1.65875 -2.68,4.43125 -3.15125,6.14 -0.12125,0.43875 0.83125,2.49875 1.05875,6.04375 z m -36.70113,5.86 c 1.95888,-0.5325 5.07488,-1.45875 5.72863,-2.19625 0.68125,-0.77 1.31,-1.88625 1.31,-1.88625 0,0 0.5375,2.81125 0.62875,4.525 0.23125,4.35125 -5.17975,3.02375 -8.24025,2.17125 -1.06975,-0.2975 -1.94975,-0.83125 -1.27025,-1.91125 0.13688,-0.2175 0.32113,-0.28875 1.84312,-0.7025 z"
     style="fill:#ff0000;stroke:none" />
  <text
     id="deathmuslim"
     style="font-size:48px;text-align:center;stroke:#000000;stroke-width:1;font-family:jawi"
     x="119.12308"
     y="444.33261"
     dx="0 7.074275 0 0 215.7655">143129</text>
  <svg id="muslimMonthGlyph"
     x="231.04117"
     y="401.14032">
    <path
		d="m 113.22436,1.54 c -0.255,0.3325 -0.5125,0.70625 -0.73375,1.0775 -0.815,1.36125 -1.72875,4.52125 -1.755,6.07125 -0.0875,5.2225 0.455,18.765 1.0375,22.78125 l 0.6425,4.4275 1.82625,-4.23875 c 0.36,-0.83625 0.715,-1.85125 0.9675,-2.77375 2.125,-7.77875 2.31125,-15.83875 -0.10375,-25.95375 L 114.40561,0 113.22436,1.54 z M 99.219359,0.005 c -0.435,-0.0875 -1.4725,1.115 -2.07875,2.22625 -1.38625,2.54375 -2.51875,5.04875 -1.98875,7.16375 0.4175,1.665 1.9175,3.19 2.505,5.1025 0.35125,1.14375 0.2,4.4925 -0.27625,6.075 l -0.63875,2.12625 -1.63875,-1.9625 c -0.24,-0.28625 -0.46625,-0.61375 -0.67625,-0.93875 -0.95875,-1.485 -1.54,-2.88625 -2.48875,-4.185 -3.1325,-4.2875 -10.56125,-8.5625 -16.0525,-9.385 -2.01875,-0.3025 -2.56375,0.58375 -3.095,2.66375 -1.1425,4.47 0.40625,12.42375 5.6325,11.18625 1.31875,-0.3125 2.7525,-1.25 3.90375,-1.27625 2.05875,-0.0475 7.43625,5.23125 8.57125,6.495 0.9125,1.01625 1.53625,2.31125 1.46875,3.0475 -0.0675,0.735 -3.71,5.11875 -5.00625,6.025 -3.21375,2.24625 -4.30875,2.5075 -4.97375,5.165 -0.8975,3.5875 -0.205,3.9575 2.61375,3.65375 0.9875,-0.10625 2.14875,-0.2075 2.98625,-0.57125 l 2.20125,-0.9575 1.20625,0.13125 c 1.59625,0.1725 3.6675,0.5575 4.57,0.33375 2.04625,-0.50875 4.278751,-4.06125 4.493751,-5.63625 0.17,-1.255 -0.837501,-5.61 -1.243751,-8.4225 l -0.33,-2.2825 1.391251,-3.01375 c 1.0325,-2.23875 2.2575,-6.25 2.51375,-8.165 0.12875,-0.96375 0.27625,-1.92125 0.56,-2.815 0.435,-1.3725 1.22375,-2.76125 1.50875,-4.02875 l 0.45625,-2.0375 -1.86,-1.15875 c -0.5725,-0.3575 -1.235,-0.74 -1.79,-1.435 C 100.79811,2.045 99.799359,0.12 99.219359,0.005 z m -6.3725,34.3275 2.1375,-2.68125 0.905,1.7525 0.73375,1.41875 -3.20875,1.1875 -2.7025,1.00125 2.135,-2.67875 z M 31.540609,22.45 c -0.01125,-0.0175 -0.02125,-0.035 -0.0325,-0.0525 l -1.94375,-3.1825 -1.80875,1.42125 c -1.0575,0.83 -1.87625,2.4225 -2.34375,3.89625 -0.32625,1.03 -0.17375,3.41 0.3025,4.7275 0.4675,1.2925 1.20125,2.59125 1.8275,3.69 l 1.4925,2.61875 -0.92375,1.51875 c -2.02625,3.33375 -8.5525,9.18125 -11.95875,10.405 -7.0387498,2.5275 -17.2837498,3.97875 -16.04999978,4.29 3.48124998,0.88 12.08499978,2.37875 15.74749978,2.6475 5.4425,0.4 5.73875,-0.9175 10.48375,-6.995 3.82875,-4.9025 5.3825,-6.685 6.34375,-12.225 l 0,0.075 c 0.05875,-0.0875 0.1175,-0.15875 0.17375,-0.2125 0.8025,-0.75125 1.9925,-1.00125 3.105,-1.83125 1.0525,-0.785 2.90125,-2.975 3.435,-4.32375 0.49875,-1.26 0.99125,-3.52875 0.99125,-3.52875 0,0 0.755,8.3175 1.55125,10.73375 0.37,1.1225 1.39125,3.30875 2.53,4.8025 1.40625,1.84125 6.05,2.53625 9.485,1.28875 3.09375,-1.12375 8.64875,-3.46125 12.45625,-4.59125 l 2.34625,-0.69625 1.44625,0.22125 c 0.78875,0.12125 1.58,0.32125 2.27375,0.255 0.885,-0.085 3.22875,-1.8725 5.10625,-3.7425 1.3,-1.295 2.69,-3.94375 2.64125,-5.09625 -0.0225,-0.5375 -0.06375,-0.96125 -0.06375,-0.96125 0,0 -2.8625,0.32375 -5.24375,0.0913 -1.29125,-0.12625 -11.90625,-6.75125 -14.12,-7.3575 -0.955,-0.26125 -5.6925,0.49625 -6.7275,1.07625 -1.605,0.89875 -6.5875,5.76125 -4.705,7.33125 0.4525,0.37875 2.30625,-0.13875 4.035,-0.07 1.1225,0.0437 3.1475,0.7775 4.75,1.54625 l 2.3975,1.15 -2.34125,0.83 c -0.22375,0.0787 -0.49625,0.17375 -0.835,0.29125 -5.52,1.91125 -6.99625,2.92125 -9.785,-0.91625 -0.70125,-0.96625 -1.33625,-2.00875 -1.62875,-3.26625 -0.83375,-3.57375 0.75625,-8.15625 -1.32375,-10.96125 -2.09125,-2.8175 -5.2825,3.5275 -6.42125,5.91 -0.3625,0.76125 -0.60625,1.16375 -0.9725,1.33125 -5.2525,1.49875 -6.295,-3.12875 -5.6925,-2.13875 z m 8.01375,23.3125 -3.64375,-3.645 -5.31875,5.31875 5.31875,5.32 3.645,-3.645 3.645,3.645 5.3175,-5.31875 -5.31875,-5.32 -3.645,3.645 z m 19.735,-40.3875 -5.31875,5.31875 5.32,5.31875 5.3175,-5.3175 -5.31875,-5.32 z M 182.00561,20.41625 c -1.0575,0.83 -1.875,2.42375 -2.3425,3.8975 -0.32625,1.03 -0.175,3.40875 0.3025,4.7275 0.4675,1.29125 1.2,2.59125 1.8275,3.68875 l 1.4925,2.62 -0.92375,1.51875 c -2.0275,3.33375 -8.5525,9.18125 -11.95875,10.40375 -7.03875,2.52875 -17.285,3.97875 -16.05125,4.29125 3.4825,0.87875 12.085,2.3775 15.74875,2.64625 5.44125,0.4 5.73875,-0.91625 10.48375,-6.995 4.61,-5.90375 5.9225,-7.28125 6.87125,-16.1475 0.44875,-4.1925 0.21375,-5.76125 -1.69625,-8.89 l -1.945,-3.18125 -1.80875,1.42 z m -25.65375,21.4825 -5.31875,5.31875 5.32,5.31875 5.3175,-5.31875 -5.31875,-5.31875 z M 145.22936,26.355 c -1.3225,-0.24375 -2.6575,-0.625 -4.24375,-1.1725 -1.84125,-0.63375 -2.55875,-0.94125 -2.74875,-1.9675 -0.28875,-1.5475 1.3875,-9.54 1.02875,-10.3775 -0.35375,-0.82625 -5.4425,-3.3025 -7.94625,-3.55375 -4.21125,-0.42375 -8.9375,3.23375 -9.66625,7.94125 -0.17,1.09625 -0.135,3.60875 0.605,4.235 0.93625,0.7925 3.4225,1.41375 3.4225,1.41375 0,0 -3.135,4.01875 -4.93375,6.8375 -0.7425,1.165 -1.365,2.36375 -1.895,3.57125 -2.10375,4.785 -3.22,12.91875 -2.32375,16.72125 2.2475,9.54125 13.425,17.30125 20.24375,16.4975 2.07125,-0.24375 4.58,-0.5775 7.09875,-0.96125 8.2025,-1.24875 11.8525,-3.44625 13.5075,-4.9225 l 2.325,-2.07375 -5.095,-0.33 c -2.66625,-0.1725 -6.3225,-0.3025 -9.73625,-0.32 -8.7575,-0.0462 -14.68,-1.185 -19.59375,-6.44625 -5.29625,-5.67125 -5.145,-7.5675 -2.71875,-13.8875 0.6125,-1.595 2.50125,-4.0125 3.8275,-4.9425 0.21625,-0.1525 0.45,-0.315 0.70375,-0.49125 1.765,-1.23 3.7025,-2.42625 4.1875,-2.2425 0.62,0.23625 1.1675,2.49375 2.4575,3.7525 0.63,0.61375 1.5075,1.06875 2.4625,1.5375 4.52375,2.22125 13.44875,0.44125 16.97,-0.39375 0.46,-0.11 0.9175,-0.21375 1.355,-0.305 l 2.63875,-0.55625 2.1625,0.79125 c 0.7,0.25625 1.48875,0.57125 2.295,0.9025 3.505,1.4375 8.07125,0.79 9.3875,-1.25875 0.91375,-1.42375 1.79875,-3.09375 2.49,-4.6425 0.53875,-1.205 1.20125,-3.94 1.4625,-5.69 0.89,-5.94625 -3.69125,4.40625 -8.54875,2.725 l -4.69375,-1.62375 c 0,0 0.60875,-1.82125 0.96875,-3.31 1.24625,-5.13875 -0.68875,-0.35 -5.8025,2.76625 -1.49875,0.915 -7.30625,1.36125 -8.83125,1.51 -1.01875,0.0988 -1.955,0.18875 -2.8225,0.26625 z m -8.5275,19.18875 -3.64375,-3.645 -5.31875,5.31875 5.32,5.31875 3.64375,-3.645 3.645,3.645 5.31875,-5.31875 -5.32,-5.31875 -3.645,3.645 z"
		style="fill:#000000;stroke:none" />
  </svg>
  <path
     id="equals"
     d="m 296.65625,494.77843 c -0.6425,-0.2075 -1.2375,-0.42375 -1.78625,-0.64625 -2.11375,-0.8575 -4.20875,-1.8325 -4.7075,-2.36375 -0.5925,-0.6325 -1.12,-2.51375 -1.24375,-4.2125 -0.3425,-4.73 0.007,-10.66125 -0.55625,-15.66875 -0.47375,-4.195 -1.68875,-6.54 -2.645,-7.65375 l -0.7975,-0.9275 -3.89875,7.42625 1.06875,2.4225 c 0.38875,0.88 0.85,1.82 1.19125,2.72375 2.26375,5.995 0.155,8.87375 0.29875,17.4125 0.0925,5.495 1.38125,7.6075 5.9175,9.68 5.26625,2.405 10.88,-2.7275 14.98125,-0.24625 0.61125,0.37 1.12875,0.74625 1.44625,1.0325 0.67625,0.6125 1.22875,1.18125 1.7025,1.66375 l 1.92875,1.96625 1.51125,-0.56 c 1.48625,-0.54875 3.01625,-2.28875 3.87375,-4.5 l 0.58,-1.49875 -0.665,-1.07875 c -0.27375,-0.44375 -0.6425,-0.92125 -1.05125,-1.35875 -2.565,-2.745 -6.55,-6.0025 -4.41875,-7.20125 4.22125,-2.375 4.21625,-0.4875 7.0975,4.4775 1.81125,3.11875 3.9225,3.85 7.7675,2.99 1.25875,-0.28125 2.57,-0.7325 3.475,-1.355 0.17375,-0.12 0.33375,-0.24625 0.48375,-0.3725 l 1.70375,-1.43125 4.31375,1.23 c 1.04125,0.29625 2.1025,0.61625 2.9975,0.88 2.6175,0.775 5.5075,0.28 7.6375,-0.95125 1.1075,-0.64 5.3775,-5.63 5.6725,-6.62875 0.24875,-0.84125 -0.19875,-3.49625 -1.10125,-5.31875 l -1.2775,-2.58125 -5.0925,4.405 -0.10375,2.715 c -0.0837,2.21 -5.76625,0.96875 -5.68375,0.19875 l 0.11375,-1.06625 c 0.0538,-0.50625 0.1025,-1.10125 0.0975,-1.56625 -0.004,-0.275 -0.035,-0.5375 -0.0937,-0.76875 -0.21375,-0.8475 -0.4375,-1.44625 -0.67,-1.84375 -1.0175,-1.73 0.27875,3.6625 -7.45375,6.95875 -1.7,0.725 -3.885,0.44 -5.35,-0.6725 -0.54875,-0.41625 -0.97,-0.9725 -1.35125,-1.6325 -2.39625,-4.1425 -3.33125,-6.905 -7.32125,-6.2225 -1.18,0.20125 -5.0325,2.40125 -5.98375,3.41625 -1.56375,1.66875 -3.12,4.135 -4.285,5.62 l -1.0888,1.3875 c 0,0 -2.2875,0.6475 -2.2875,0.6475 -1.34,0.38 -3.0675,0.7425 -4.94625,1.07375 z m 74.4125,-4.155 c 0,0 -2.715,0.29875 -4.2925,0.0975 -0.92625,-0.1175 -2.61,-0.80875 -3.45375,-1.40125 l -5.21375,-3.65625 -3.66,10.845 4.46125,4.345 -3.03875,1.8975 c -4.31875,2.69625 -12.845,6.015 -15.54625,6.135 -3.11,0.1375 -10.10375,-0.97875 -10.10375,-0.97875 0,0 1.56,1.62875 2.51625,2.33375 0.32875,0.24125 0.5875,0.375 0.81875,0.54 1.1875,0.8425 1.70125,2.52 2.835,3.405 1.51125,1.17875 8.57125,0.4125 11.50375,-0.505 3.755,-1.175 10.67,-6.1875 14.24125,-9.4025 l 4.88875,-4.40125 0.9075,-0.42375 c 0.95625,-0.44625 2.3175,-0.9375 4.40125,-1.54125 0.6775,-0.19625 1.4875,-0.49 2.47,-0.9325 0.325,-0.14625 0.62875,-0.2975 0.895,-0.45375 2.3675,-1.39125 4.3525,-5.45625 4.32625,-7.41 -0.015,-1.095 -0.31,-2.46125 -0.765,-3.75125 l -2.45625,-6.96125 -6.71375,10.36125 0.97875,1.85875 z m 0.92875,20.6825 5.94125,-5.9375 -5.94125,-5.93875 -5.94125,5.93875 5.94125,5.9375 z m -94.81625,-38.51375 c 0.17,-1.145 -0.11625,-1.58625 -1.31625,-2.17 -1.04875,-0.51 -2.76125,-1.20125 -3.7825,-1.605 -0.27125,-0.10625 -0.34625,-0.4825 -0.2375,-0.89875 1.3325,-5.10875 1.4475,-5.04125 0.77625,-4.655 -0.435,0.25 -0.8875,0.51875 -1.24375,0.755 -3.02,2.0025 -6.455,8.35125 -5.78875,9.97375 0.2425,0.59 1.0775,1.445 2.325,2.08625 l 1.75875,0.90375 c 0.48625,0.25 -0.03,4.65125 0.44875,4.845 0.315,0.1275 1.0975,-0.5975 2.81875,-2.9725 0,0 3.10375,-4.28625 3.10375,-4.28625 0.95625,-1.32125 1.07,-1.51875 1.1375,-1.97625 z m -13.28875,17.03 5.94125,-5.9375 -5.94125,-5.93875 -5.94125,5.93875 5.94125,5.9375 z m 10.35125,12.675 c 3.22125,-3.9225 5.5725,-9.10625 5.14375,-10.47125 l -3.43875,-10.94125 -5.43875,11.43125 c 0,0 0.7875,1.55125 1.39125,2.84 l 1.47375,3.15125 -1.2725,0.74 c -0.395,0.22875 -0.97625,0.3975 -1.76125,0.61375 -4.53625,1.24875 -9.26375,0.94 -12.7675,-2.7025 -1.2925,-1.34375 -2.6575,-2.82625 -3.26625,-4.3975 -0.87,-2.2475 1.2325,-6.32875 0.255,-5.66625 -0.4325,0.2925 -0.87,0.96375 -1.05,1.30375 -3.36625,6.33 -5.91,12.6275 0.0238,16.61625 0.2225,0.15 0.45875,0.29875 0.70375,0.44375 6.01875,3.57625 15.975,1.94375 20.00375,-2.96125 z"
     style="fill:#ff0000;stroke:none" />
  <path
     id="circle"
     style="fill:none;stroke:none"
     d="m 169.99064,493.89872 c 58.28239,80.04516 170.54823,97.70772 250.59339,39.42534 80.04516,-58.28239 97.7077,-170.54823 39.42533,-250.5934 -58.28239,-80.04516 -170.54823,-97.70771 -250.5934,-39.42533 -80.04516,58.28238 -97.7077,170.54822 -39.42532,250.59339 z" />
  <text
     style="font-size:48px;text-align:center;stroke:#000000;stroke-width:1;font-family:jawi">
    <textPath
       xlink:href="#circle"
	   id="death"
       dx="6.8696022 8.2435226 8.2435226 8.2435226 8.2435226 11.272625 11.272625 8.2435226 11.272625">14.4.2010</textPath>
  </text>
</svg>
