<?xml version="1.0" encoding="UTF-8" standalone="yes"?>
<!DOCTYPE svg PUBLIC "-//W3C//DTD SVG 1.1//EN" "http://www.w3.org/Graphics/SVG/1.1/DTD/svg11.dtd">
<svg viewBox = "0 0 600 600" version = "1.1" xmlns:svg="http://www.w3.org/2000/svg" xmlns="http://www.w3.org/2000/svg" xmlns:xlink="http://www.w3.org/1999/xlink">
  <path
     id="frame"
     d="M 390.9525,457.025 C 416.2825,431.3575 432.4175,398.6525 442.27125,362.015 C 447.0225,344.77875 449.27125,329.52875 449.7275,311.43125 L 450,120.77875 C 449.74,112.84125 448.885,106.15875 447.145,98.478747 C 445.44875,89.271247 441.07625,82.141247 434.15125,77.291247 C 425.79375,72.927497 418.04375,70.949997 408.88625,70.846247 C 397.97,70.583747 388.72375,71.477497 377.9925,73.829997 C 377.85125,55.268747 363.3625,44.171247 349.22,43.248747 C 324.99125,41.201247 304.65,37.36125 281.105,30.3925 C 272.78375,27.92875 265.85125,25.405 257.805,21.91 C 248.13125,18.1625 240.1025,13.3325 232.335,6.50375 L 224.935,0 L 218.445,5.80625 C 211.83625,11.71875 205.08875,16.06125 196.9425,19.7125 C 189.0175,23.48625 182.15625,26.2 173.8975,28.8275 C 149.16625,36.615 127.72875,40.879997 102.18125,43.094997 C 93.0125,43.219997 85.225,47.052497 78.75375,54.626247 C 74.29,59.994997 72.055,66.356247 72.0075,73.832497 C 56.92125,70.523747 32.24425,67.894997 15.97338,77.219997 C 9.53825,81.458747 5.356375,87.784997 3.479125,96.119997 C 1.29575,104.5625 0.24925,111.985 0,120.79875 L 0.27375,311.43125 C 0.6485,327.77625 2.527625,341.5525 6.52025,357.22625 C 11.8115,379.03375 18.51825,396.75 28.77075,416.00375 C 44.98625,446.12125 65.09625,467.11625 92.55375,482.5925 C 120.04,496.505 143.72875,506.96625 172.22375,517.7725 C 180.3675,520.61875 187.2,523.19125 195.235,526.43375 C 202.78625,529.3525 209.32375,532.3075 216.17,535.92625 L 223.87625,540 L 232.19875,536.11625 C 247.46625,528.995 261.4225,523.39 277.7775,517.7725 C 306.26875,506.96625 329.95625,496.5075 357.44,482.59625 C 370.27125,475.6925 380.38875,467.9725 390.9525,457.025 z M 416.76,412.76 C 402.86125,438.82375 380.39125,464.54625 354.945,477.8075 C 329.285,490.89625 302.915,502.54125 275.9575,512.6875 C 260.28125,518.01875 244.91,524.2075 229.91375,531.225 L 224.02625,533.97125 L 218.69375,531.1525 C 211.73625,527.475 204.5625,524.22125 197.21375,521.40875 C 189.57,518.3125 181.85,515.4075 174.0625,512.695 C 147.11125,502.55125 120.7475,490.91 95.09375,477.82625 C 81.29375,470.14625 68.8125,460.30625 58.12375,448.68 C 48.54125,437.9625 40.2825,426.13125 33.52513,413.4425 C 23.774,395.3375 16.46163,376.02125 11.77838,355.99625 L 11.74598,355.86625 C 7.962,341.3325 5.9235,326.39875 5.673625,311.3825 L 5.400125,120.855 C 5.577,112.96625 6.684625,105.1275 8.7,97.499997 L 8.7615,97.241247 C 9.4645,93.928747 10.77763,90.774997 12.63412,87.943747 C 14.2585,85.533747 16.33837,83.463747 18.75675,81.852497 C 22.7045,79.714997 26.96587,78.217497 31.3825,77.413747 C 35.61375,76.626247 39.9075,76.217497 44.21125,76.191247 C 51.75125,76.178747 59.2725,76.868747 66.67875,78.252497 L 76.545,80.094997 L 77.53625,70.876247 C 78.8475,58.686247 89.66125,48.558747 102.20875,48.494997 C 102.345,48.494997 102.4825,48.488997 102.61875,48.477497 C 127.40125,46.462497 151.86875,41.594997 175.535,33.9725 C 183.6375,31.42375 191.54625,28.2975 199.20125,24.6175 C 210.11375,19.59125 215.6975,15.51125 224.9675,7.2175 L 228.76,10.55125 C 236.69625,17.595 245.845,23.1375 255.7625,26.91125 C 263.50375,30.3 271.45375,33.19125 279.56375,35.56875 C 302.10625,42.387497 325.315,46.766247 348.7925,48.632497 C 355.73625,49.163747 362.22,52.239997 366.77,57.578747 C 369.2275,60.504997 370.95875,63.934997 371.865,67.591247 L 374.89875,79.842497 L 383.16125,78.267497 C 391.57875,76.664997 400.15,75.984997 408.72375,76.243747 L 408.875,76.245747 C 416.7025,76.261947 424.405,78.201997 431.3075,81.893247 C 434.22125,83.968247 436.6475,86.655747 438.41625,89.765747 C 440.085,92.763247 441.2375,96.021997 441.825,99.403247 C 441.8425,99.501947 441.8625,99.599497 441.885,99.695747 C 443.49125,106.6395 444.4,113.7245 444.6,120.84825 L 444.3275,311.37825 C 444.02125,328.01075 441.58375,344.537 437.07375,360.55075 C 437.07375,360.55075 437.04625,360.65075 437.04625,360.65075 C 432.325,378.74875 425.5175,396.235 416.76,412.76 z"
     style="fill:#ff0000;stroke:none" />
  <path
     id="alfatihah"
     d="M 281.72192,95.856247 C 281.82317,96.498747 281.89942,97.522497 281.72192,98.463747 C 281.59067,99.154997 279.53067,101.75625 279.07192,101.81125 C 277.77692,101.9625 274.63067,100.39875 272.87317,98.757497 C 271.61442,97.582497 270.31317,96.126247 269.95067,95.644997 C 269.39817,94.913747 269.08192,94.282497 268.96567,93.684997 C 268.46817,91.152497 271.74067,86.304997 274.62942,84.451247 C 275.22442,84.069997 275.87317,84.157497 276.85317,84.936247 C 279.60192,87.122497 280.97317,91.139997 281.72192,95.856247 z M 187.78442,105.28375 C 180.12692,104.44625 173.14817,103.52875 167.33317,102.68625 C 166.55567,102.57375 165.75692,102.45125 164.95317,102.32125 C 156.07817,100.88375 144.35692,97.153747 141.40817,94.837497 C 137.37567,91.671247 134.63192,86.962497 134.00067,82.151247 C 133.44692,77.923747 133.96317,65.273747 133.53442,61.711247 C 133.03817,57.581247 131.89317,54.213747 131.36567,52.808747 L 131.09442,52.087497 L 130.61442,52.588747 C 127.35567,55.986247 126.44817,58.598747 126.17192,60.017497 C 126.06442,60.564997 127.06067,59.928697 129.53942,74.378747 C 129.80192,75.908747 129.98192,77.193747 130.00442,77.863747 C 130.57067,95.043747 129.18442,102.43875 142.00317,107.435 C 144.29442,108.3275 146.81317,109.145 149.52442,109.8925 C 165.03317,114.1675 198.05692,117.1275 217.83442,116.84875 C 231.68192,116.65375 243.59692,115.88375 250.72692,114.895 C 252.40942,114.66125 254.64067,114.235 256.93442,113.735 C 261.02067,112.84125 267.77192,110.64 270.74692,109.21625 L 271.42192,108.89375 L 273.20692,109.2125 C 275.61567,109.64375 280.08942,110.92625 283.21317,111.40625 C 286.83442,111.965 295.66317,110.9075 298.66192,109.3725 C 299.82567,108.77625 302.09067,106.61875 302.63067,105.5925 L 304.42817,102.17 L 304.44567,102.1375 L 304.70317,101.85625 C 306.01817,100.415 307.93692,98.497497 308.18567,96.174997 C 308.25567,95.513747 308.24817,94.833747 308.18567,94.081247 C 307.79192,89.347497 306.61067,79.169997 305.95817,76.489997 C 305.55942,74.849997 305.19817,71.946247 305.21317,70.692497 L 305.23817,68.657497 L 307.46942,65.073747 L 308.89442,62.782497 L 307.69942,61.997497 C 298.97567,56.262497 299.39942,51.222497 299.10567,51.581247 C 298.94692,51.773747 298.79067,51.971247 298.63942,52.172497 C 298.26192,52.676247 297.58442,54.008747 296.82942,55.608747 C 294.78567,59.941247 295.79067,65.459997 298.92442,66.968747 L 300.56942,67.759997 C 300.56942,67.759997 298.74942,71.176247 298.14192,73.029997 C 297.90692,73.747497 297.85442,74.231247 297.85067,74.849997 C 297.84667,75.684997 297.87437,75.948747 298.12567,77.493747 L 301.08567,100.58375 L 301.20692,101.5375 L 290.98192,101.4913 L 282.05067,100.62755 L 287.38692,92.878797 C 288.37192,90.878797 289.83692,87.020047 289.81317,86.265047 C 289.78317,85.311297 286.43442,76.900047 283.31817,74.488797 C 279.95567,71.886297 278.17942,74.543797 274.58942,79.430047 C 271.62192,83.468797 265.95192,92.595047 264.80067,99.186297 C 264.65817,100.0038 264.57317,100.9213 264.60317,101.81755 L 264.67937,104.08755 L 262.82062,104.54755 C 257.50187,105.8663 251.49937,106.7688 245.07812,107.3413 C 234.58687,108.2763 205.75437,107.2488 187.78437,105.2838 z M 168.70817,82.941247 C 168.70817,82.941247 166.80817,83.251247 165.01692,82.941247 C 163.22692,82.632497 161.54442,81.702497 161.54442,81.702497 C 161.54442,81.702497 166.62942,78.302497 168.00817,77.409997 C 168.32692,77.204997 168.41442,77.608747 168.47692,79.557497 C 168.52062,80.908747 168.70817,82.941247 168.70817,82.941247 z M 189.60567,91.008747 C 184.67567,90.401247 179.35692,89.349997 177.78442,88.191247 C 177.00942,87.619997 175.47942,84.958747 174.76442,82.941247 C 174.55317,82.343747 174.32817,81.703747 174.27192,81.052497 C 174.19692,80.173747 174.18442,79.904997 174.15942,78.358747 L 173.86942,61.093747 C 173.86942,61.093747 172.23067,62.638747 170.42317,64.361247 C 168.67692,66.023747 167.63192,67.114997 167.07317,67.994997 L 166.24942,69.293747 L 166.82442,70.921247 C 167.04567,71.548747 167.29442,72.363747 167.56067,73.428747 C 167.64197,73.752497 167.68192,73.999997 167.57067,74.136247 C 166.73567,75.153747 157.92817,79.386247 156.24442,80.911247 C 154.10442,82.848747 149.30942,89.376247 149.30942,89.376247 C 149.30942,89.376247 151.11567,90.513747 152.55942,91.248747 C 155.18567,92.586247 161.57692,93.689997 163.51817,91.821247 C 164.43317,90.939997 165.05942,90.044997 165.57817,89.346247 L 168.43067,86.263747 L 168.81442,88.964997 C 169.02817,90.473747 169.56067,92.164997 170.25567,93.726247 C 174.52442,103.32 189.72817,102.49625 212.23317,100.05625 C 216.72567,99.568747 222.21192,98.976247 228.48442,98.308747 L 231.82317,97.952497 L 232.18692,98.127497 C 236.36192,98.268747 239.57317,98.504997 240.98942,98.577497 C 243.33317,98.698747 246.47067,99.146247 248.86567,99.137497 L 251.31817,99.128497 L 252.02817,98.364747 C 253.29067,97.007247 256.49317,92.373497 257.64567,90.274747 L 258.54692,88.633497 L 257.84567,88.498497 C 256.91567,88.320997 254.55567,88.038497 253.13942,87.932247 L 252.20442,87.862247 L 248.83942,86.177247 C 248.61192,86.063497 248.38192,85.947247 248.14942,85.829747 C 246.30692,84.890997 239.93442,80.805997 235.25192,77.570997 C 234.48067,77.038497 233.85567,76.552247 233.85567,76.552247 L 234.02692,76.377247 C 234.61942,75.774747 236.65192,73.718497 238.51442,71.999747 C 240.44942,70.212247 242.30567,68.314747 243.54067,66.895997 C 244.35442,69.199747 245.36317,71.793497 246.30442,73.932247 C 246.79067,75.039747 247.25692,76.169747 247.61817,77.065997 L 248.82192,80.053497 L 250.05942,77.438497 C 251.48567,74.424747 253.00567,67.535997 250.26067,54.553497 L 249.48442,50.879997 L 249.36317,50.847497 C 247.50067,54.763747 245.06817,58.356247 242.17192,61.517497 L 241.97067,61.734997 C 237.97442,66.037497 233.11192,69.526247 227.66317,71.923747 L 227.49567,71.806247 L 226.07817,71.357497 C 224.55817,70.876247 222.05442,70.279997 220.98067,70.136247 C 220.61317,70.087547 220.27067,70.046247 219.96442,70.018747 L 218.56067,69.889997 L 217.57817,71.023747 C 216.43442,72.342497 214.77442,74.732497 213.72817,76.671247 C 213.30192,77.462497 212.93317,78.136247 212.63942,78.708747 L 211.79317,80.357497 C 211.72437,80.493747 215.56317,80.991247 219.11692,82.566247 C 221.43567,83.593747 224.33067,85.383747 227.88692,88.412497 C 228.21567,88.692497 225.74942,89.109997 221.65317,89.553747 C 210.04067,90.812497 193.95942,91.546247 189.60567,91.008747 z M 267.08942,58.474997 L 258.95942,66.604997 L 267.08692,74.732497 L 275.21692,66.603747 L 267.08942,58.474997 z M 153.13192,63.391247 L 159.13942,69.398747 L 168.05317,60.486247 L 159.12817,51.562497 L 153.12067,57.569997 L 147.11192,51.562497 L 138.19817,60.474997 L 147.12317,69.398747 L 153.13192,63.391247 z M 225.09567,50.543747 L 231.10317,56.558747 L 240.01567,47.636247 L 231.09192,38.702497 L 225.08442,44.717497 L 219.07692,38.702497 L 210.16442,47.624997 L 219.08817,56.558747 L 225.09567,50.543747 z M 181.03442,76.931247 C 181.07192,77.007447 181.70817,76.923247 182.50067,76.774997 C 186.84567,75.957497 193.94567,72.074997 196.44567,69.306247 C 198.62067,66.898747 201.48942,62.983747 203.16942,60.123747 C 204.54192,57.787497 205.70192,55.087497 206.05317,53.543747 C 206.92067,49.728747 206.81567,50.076247 204.39942,53.861247 C 204.10942,54.314997 203.78192,54.831247 203.41942,55.386247 C 202.62817,56.596247 201.45692,58.046247 200.27317,59.334997 C 197.56067,62.292497 191.03067,66.114997 187.33067,66.773747 L 185.69692,67.064997 L 185.49317,67.819997 C 184.89567,70.042497 183.41067,73.443747 182.48817,74.741247 C 181.59567,75.997497 180.91192,76.676247 181.03442,76.931247 z M 320.87692,56.864997 C 320.89942,54.794997 320.93072,53.421247 320.93072,53.421247 C 320.93072,53.421247 319.09072,56.794997 317.89447,59.431247 C 314.89322,66.042497 315.07322,64.221247 315.53197,71.532497 C 315.61447,72.839997 315.74572,74.399997 315.91447,76.137497 L 315.90317,76.137497 C 315.92697,76.346247 315.95197,76.556247 315.97697,76.766247 C 316.11197,78.117497 316.26697,79.566247 316.43697,81.078747 L 316.49577,81.078747 C 317.27202,87.448747 318.04202,93.718747 318.17702,98.742497 C 318.34827,105.0875 318.17702,112.5825 318.17702,112.5825 C 318.17702,112.5825 320.01702,109.20875 321.21452,106.5725 C 324.21577,99.962497 324.03452,92.993747 323.57577,85.682497 C 323.51077,84.647497 323.41577,83.454997 323.29452,82.141247 C 322.10192,69.179997 320.87192,57.292497 320.87692,56.864997 z"
     style="fill:#ff0000;stroke:none" />
  <text
     id="name"
     style="font-size:35.82610703px;text-align:center;stroke:#000000;stroke-width:1;font-family:Arial Black"
     x="23.2407"
     y="264.66602"
     transform="scale(0.96667356,1.0344754)">YAHYA BIN CHE MAT</text>
  <path
     id="kembali"
     d="M 316.56375,311.66875 C 316.60375,312.09875 316.53255,312.3475 316.36125,312.74 C 315.3125,315.13875 313.445,315.365 310.62375,315.37 C 309.85625,315.371 309.29375,315.361 308.83625,315.3813 L 307.07375,315.4538 L 304.80625,317.5763 C 304.03875,318.2938 303.2225,319.13755 302.58125,319.87255 C 300.90875,321.7913 299.91625,322.81005 299.7925,323.4013 C 299.5175,324.71755 306.23375,323.08255 312.52875,325.50505 C 313.17625,325.7538 313.8875,326.1038 314.83625,326.59505 C 316.20125,327.30255 318.06,328.30505 318.06,328.30505 C 318.06,328.30505 316.2625,329.70005 314.74,330.67505 C 310.05375,333.67755 297.24625,335.57005 292.02,333.60505 C 288.265,332.1938 285.28,329.6263 284.82875,325.96505 C 284.5325,323.5638 285.53,314.0013 285.53,314.0013 C 285.53,314.0013 283.71375,316.47255 282.69625,318.0313 C 279.60625,322.76255 278.51625,330.77255 280.97625,335.7563 C 283.9925,341.86755 291.7125,343.00005 299.375,342.15005 C 306.45,341.3663 316.55375,337.4588 320.76,333.14505 C 322.27875,331.58755 325.9575,326.70255 326.505,325.20255 C 326.70375,324.66255 325.62375,321.69755 325.07875,321.2863 C 323.41375,320.0288 319.04125,318.31505 319.04125,318.31505 C 319.04125,318.31505 321.01,314.90755 322.0525,312.81505 C 322.56125,311.7913 322.87875,312.26755 322.715,310.9063 C 322.5225,309.30505 322.1025,307.18255 321.67375,305.9688 C 321.07375,304.2688 320.17125,304.97755 321.055,303.83755 C 321.305,303.51755 321.86125,303.52255 322.42875,303.4938 C 322.98625,303.4663 324.81625,302.0038 326,300.64505 C 327.0375,299.4538 328.0775,297.3563 328.0775,297.3563 C 328.0775,297.3563 322.42,295.37755 321.14375,294.40005 C 320.75375,294.10005 320.415,293.81505 320.12125,293.54505 C 318.24875,291.81755 318.29875,288.95005 317.5975,289.29255 C 317.1175,289.52755 316.43,289.67255 315.6775,289.94255 C 314.14,290.4938 312.19125,292.6113 311.655,294.31255 L 310.7225,297.27005 L 311.8025,298.4613 C 312.13625,298.83005 312.5775,299.25005 313.0275,299.67505 L 314.58,301.1438 L 315.81875,303.40755 C 316.24375,305.46505 315.545,304.64755 315.78375,306.78505 C 316.035,309.04755 316.2975,308.7963 316.56375,311.6688 z M 325.9975,340.02625 L 321.34125,335.36625 L 315.345,341.3675 L 321.34125,347.36875 L 325.9975,342.7075 L 330.65375,347.36875 L 336.65,341.3675 L 330.65375,335.36625 L 325.9975,340.02625 z M 359.525,336.25 C 365.1375,336.1 371.4925,335.48125 375.54375,334.5675 C 376.79,334.2875 378.04125,333.9625 379.05125,333.51375 C 380.8375,332.72 381.2475,331.85875 381.675,331.89375 C 381.99125,331.92005 382.47,332.86375 383.10125,333.7725 C 384.0775,335.1775 386.3925,336.31625 388.31,336.47125 C 388.73375,336.50495 389.62625,336.14125 390.62125,335.5875 C 394.3075,333.53625 395.9375,332.295 396.71625,331.62 L 397.4925,330.9475 L 398.09875,331.33125 C 398.41375,331.53125 398.8375,331.86875 399.815,332.1725 C 400.10625,332.2625 400.455,332.3725 400.84125,332.4975 C 403.36375,333.30625 406.04625,333.75125 407.89875,333.76125 L 409.16375,333.77245 C 410.07625,333.77945 411.80625,330.4687 412.56625,328.8162 L 412.85375,328.1912 L 411.72,328.0912 C 410.5975,327.9912 408.80125,327.76745 407.44,327.2862 C 405.7875,326.70245 402.98375,325.0487 402.22875,324.2137 C 401.59875,323.5162 400.885,322.6062 400.885,322.6062 C 400.885,322.6062 402.755,321.65995 403.79375,320.8737 C 405.3625,319.68745 406.475,317.7062 406.8475,316.1987 C 407.39125,314.0012 406.315,310.0087 404.69625,308.1262 L 403.76125,307.0387 L 405.36,305.98245 C 407.995,304.2437 411.18125,302.37495 412.57375,301.7237 C 416.21,300.0237 418.99,299.2362 421.20875,298.3087 L 423.85625,297.20245 C 425.2175,296.6337 426.88875,294.1587 427.2775,292.1912 C 427.43625,291.38745 427.52875,290.31745 427.49125,289.53245 L 424.66625,290.3937 C 419.5625,291.9512 407.24125,298.92995 406.51,299.38745 C 404.74125,300.49495 397.5925,305.49245 394.09125,308.8287 L 391.79875,311.0137 L 394.6675,311.1237 C 396.75125,311.2037 399.445,311.9762 400.63875,315.03245 C 401.17375,316.39995 401.6325,318.2062 401.48375,318.66745 C 401.165,319.6562 399.1725,321.2637 398.10625,322.94495 C 396.2425,325.8837 396.03875,329.82495 391.6575,330.1212 C 389.32625,330.2787 387.07125,328.3887 386.3175,326.52495 C 385.86125,325.39495 385.4525,323.69245 385.4525,323.69245 C 385.4525,323.69245 382.78375,326.4912 381.0925,327.50745 C 380.11875,328.0912 378.2325,328.5187 376.70125,328.69745 C 363.85375,330.19245 356.88875,331.2787 344.8875,327.33995 C 341.69875,326.2937 341.24125,325.81995 340.7675,323.2312 C 340.07375,319.4337 339.1825,309.05245 338.92625,305.03245 C 338.595,299.8287 340.15125,296.58745 337.4975,291.3362 L 336.83375,290.0212 L 335.565,291.94745 C 334.555,293.4812 333.61125,295.0812 333.4975,295.4737 L 332.765,298.00245 L 333.45875,299.9187 C 334.71125,303.37745 334.69625,302.27995 334.32875,307.48745 C 334.17375,309.67745 334.1425,318.5412 334.24125,320.6837 C 334.7975,332.68745 338.36,332.94745 342.19875,334.0812 C 345.48375,335.0512 349.7325,335.8612 351.50875,336.0487 C 353.19125,336.22745 355.32,336.29995 357.65125,336.28245 L 352.58875,341.34745 L 358.60625,347.36745 L 364.62125,341.3487 L 359.525,336.25 z M 359.525,336.25 C 358.88875,336.2675 358.26375,336.2775 357.65125,336.2825 L 358.60375,335.32875 L 359.525,336.25 z M 199.13625,322.13875 C 198.5525,321.495 197.87625,320.66625 197.2175,319.825 L 194.27375,316.07 L 190.76,325.78625 L 192.31,327.765 C 192.9425,328.57125 193.65875,329.44 194.29625,330.19875 L 196.14875,332.4025 L 193.76,334.45375 C 183.89375,342.9275 182.19,345.275 173.20375,343.475 C 172.78875,343.3925 172.4075,343.29875 172.0775,343.1975 C 171.89625,343.1425 171.72125,343.0875 171.55,343.0325 L 165.79375,341.195 L 168.65625,344.4075 C 171.925,348.075 184.4375,349.745 190.66125,344.71125 C 192.7025,343.06125 194.515,341.16625 195.3,339.7225 C 196.015,338.40625 196.44875,337.31875 196.775,336.44375 L 197.9675,333.23875 L 201.56125,333.80625 C 206.9,334.65 214.36375,335.37 225.87375,335.55125 C 242.19125,335.80625 263.23875,334.9875 267.03,333.82875 L 269.46125,333.085 L 273.65875,327.6925 C 273.79,327.21875 273.9175,326.72625 274.03375,326.24625 C 274.8075,323.0325 274.14125,319.15375 272.62,316.46 C 270.67,313.0025 264.595,310.675 260.20375,311.69125 C 259.085,311.95125 257.79875,312.305 256.18625,312.69 C 247.26125,314.82375 230.60125,316.215 222.685,315.58125 L 209.4,314.5175 C 209.4,314.5175 213.06875,311.365 216.43875,308.3725 C 219.45625,305.6925 226.14,302.54375 229.5475,302.245 L 231.2125,302.1 L 232.24625,300.7675 C 233.285,299.42875 233.92375,297.37 234.30125,295.525 C 234.44,294.84875 234.525,294.1625 234.43875,293.6475 L 234.04875,291.31625 L 232.11125,292.11 C 229.12,293.335 223.38125,297.35125 218.045,302.11875 C 214.1325,305.615 209.0525,310.7925 208.1075,312.2975 C 207.0825,313.9275 206.005,317.09875 205.2125,319.11625 C 204.92625,319.84375 205.47625,320.84875 206.45375,321.63625 C 209.79375,324.32625 234.235,323.79625 255.55125,320.45 C 256.01375,320.3775 256.52,320.32375 257.11875,320.28875 C 261.0175,320.065 266.90125,321.59 267.175,324.385 C 267.2638,325.28375 267.175,326.69375 267.175,326.69375 C 267.175,326.69375 252.6325,327.8325 252.6325,327.8325 C 230.3625,329.57625 206.69875,330.49 199.13625,322.13875 z M 123.17875,332.09625 L 120.09625,331.58125 L 120.21125,330.89625 C 120.26245,330.5875 120.4575,330.50375 122.165,330.055 C 123.45875,329.71625 125.41,329.28125 126.1375,329.61625 C 126.525,329.795 126.57625,330.0375 127.22125,329.78125 C 128.205,329.39 129.96625,327.785 129.96625,327.785 L 129.56625,330.18 C 129.38625,331.25625 129.28875,331.4075 128.585,331.69625 C 128.43,331.75995 125.7125,332.3375 125.46875,332.34125 C 124.7925,332.35255 124.56375,332.32875 123.17875,332.09625 z M 149.41125,324.2 C 150.05625,324.3075 150.485,324.37625 150.85375,324.4225 L 153.91625,324.80375 L 156.31875,323.7275 C 156.825,323.50125 157.3075,323.23125 157.745,322.92375 C 158.81375,322.1725 159.07,322.19375 160.31125,323.13 L 163.0725,325.21625 C 163.0725,325.21625 154.2525,326.7 149.515,328.17875 C 147.35,328.855 145.01,329.8025 143.7375,331.17375 C 142.00625,333.04 139.6575,337.23125 139.6575,337.23125 C 139.6575,337.23125 138.2075,335.525 137.3175,334.06125 C 136.49625,332.71 135.5025,328.56875 135.28875,326.46 C 135.145,325.03125 135.1875,323.1775 135.25125,321.36125 C 135.375,317.8425 134.135,311.57 132.69375,308.8775 C 131.61375,306.8625 130.515,304.435 130.515,304.435 C 130.055,303.42125 127.955,306.87 126.17375,311.56625 C 126.03,311.945 127.18375,313.33625 127.95625,315.98625 C 128.39375,317.4875 128.67375,319.085 128.63125,320.06875 C 128.59375,320.9075 128.36,321.7225 127.75,322.2275 C 126.86,322.96125 123.37375,323.46125 120.795,324.365 C 116.81375,325.7625 115.9125,327.72 113.7325,331.10625 C 111.04875,335.27625 109.5375,337.115 112.98,339.56375 C 115.95375,341.68 122.135,342.515 126.03,340.42625 C 128.0325,339.3525 129.9125,336.72625 130.4625,336.83125 C 130.7425,336.88495 130.92375,337.6375 131.18,338.6375 C 131.28875,339.0625 131.45125,339.47375 131.6625,339.87125 C 133.18,342.72 138.55625,345.42 144.225,346.76875 C 144.73875,346.89 145.2675,346.98625 145.8025,347.05625 C 152.34625,347.92 153.01875,347.08505 153.8525,347.09505 C 154.3175,347.10105 156.45125,344.3338 158.1525,341.4463 C 158.77,340.39755 153.73125,340.6888 150.6925,338.0238 C 149.23875,336.7488 148.14375,335.5513 148.14375,335.5513 C 148.14375,335.5513 150.1225,335.0488 152.75375,334.61505 C 153.49125,334.49255 160.76,334.1438 168.36125,333.8488 C 171.605,333.72255 176.165,334.1713 177.3725,334.7863 C 178.12875,335.17255 178.67625,335.47755 179.075,335.34005 C 182.2675,334.2363 184.26375,330.33505 185.1175,327.7613 L 185.725,325.93255 L 183.9675,325.4913 C 182.645,325.16005 180.55875,324.6188 179.17625,324.1688 C 177.43375,323.6038 176.39,322.98505 174.7625,321.87005 C 166.505,316.2113 160.1025,309.4888 154.33125,310.99755 L 151.67375,311.69255 L 149.23125,314.9363 C 147.7225,316.94005 146.00875,319.70255 145.83875,320.56505 C 145.70125,321.26755 145.71375,321.9363 145.82245,322.61255 L 145.98745,323.62755 L 149.4112,324.20005 z M 131.035,295.61 L 126.37875,290.95 L 120.3825,296.95125 L 126.37875,302.9525 L 131.035,298.29125 L 135.6925,302.9525 L 141.6875,296.95125 L 135.6925,290.95 L 131.035,295.61 z M 102.93625,303.89875 L 104.92875,322.535 C 105.17125,325.43 104.6725,329.69625 104.3075,331.62 L 103.7225,334.70125 C 103.7225,334.70125 107.6875,329.21625 108.86,325.97375 C 109.0825,325.35625 110.025,322.2 109.97375,320.7675 C 109.94375,319.94125 109.92505,319.6975 109.785,318.33625 L 107.11375,299.06125 C 106.77,296.57875 106.5125,292.5825 106.59375,291.115 C 106.55125,290.75875 105.245,290.44 102.6375,296.34375 C 102.46875,296.72625 102.29375,297.145 102.09875,297.61625 L 100.92125,300.4625 C 100.92125,300.4625 102.33875,301.90375 102.33875,301.90375 C 102.76125,302.33375 102.82125,302.53375 102.93625,303.89875 z M 67.58125,310.91125 L 68.42,323.995 C 68.42,323.995 62.785,325.74625 59.19375,326.41375 C 57.03625,326.815 53.09375,326.555 49.765,325.46875 C 45.55375,324.095 43.94,322.075 42.8025,308.45625 C 42.53875,305.30125 42.3675,302.07625 42.41875,300.25875 C 42.48245,297.9875 42.6,295.45625 42.6,295.45625 C 42.6,295.45625 41.22875,296.17375 40.02375,297.11 C 38.73875,298.1075 37.89875,298.9775 37.36375,299.65125 L 36.6975,300.4925 L 37.185,302.675 C 37.32875,303.315 37.515,305.1675 37.56375,306.3575 L 37.58755,306.91125 L 36.36255,307.34125 C 35.6188,307.6025 34.57442,307.84625 33.54592,308.27875 C 30.44905,309.585 22.33893,317.80625 22.50255,323.2625 C 22.56915,325.49 26.30368,329.08125 27.3548,329.5175 C 28.07543,329.81625 29.76405,329.415 32.3138,328.3925 C 35.01255,327.31 39.1163,325.7125 39.1163,325.7125 C 39.1163,325.7125 39.3588,329.155 40.0813,331.02125 C 40.2113,331.3575 41.00005,332.10875 41.9038,332.85375 C 45.73255,336.00125 55.0038,336.81125 60.8563,334.36625 C 63.1838,333.39375 65.2763,332.0425 66.5963,330.51125 C 67.4788,329.48625 69.19005,327.755 69.19005,327.755 C 69.19005,327.755 70.13505,330.45 71.0738,331.85125 C 71.92255,333.11625 72.23505,333.62875 72.84005,334.06875 C 73.78755,334.75875 79.62005,335.93 81.57755,335.8225 C 85.30005,335.62 87.3213,334.81875 89.8113,331.66375 C 91.2088,329.89125 92.49505,328.2 93.47005,326.56125 C 97.3413,320.06 95.3763,310.4075 93.64755,304.73625 L 91.49755,297.685 L 86.26255,307.42625 L 87.15005,311.02875 C 88.42755,316.22125 90.5363,324.97625 87.91505,326.03625 C 87.42255,326.23625 86.86505,326.44625 86.35755,326.6 C 83.6538,327.41875 77.47755,326.16125 76.3513,325.64375 C 75.7013,325.34625 73.6763,322.0325 73.41755,320.8425 C 72.57505,316.96125 71.3238,296.585 71.3238,296.585 C 71.3238,296.585 70.48505,297.5725 69.6738,298.7275 C 68.5088,300.38625 66.9938,303.15875 66.52255,304.8675 C 66.4013,305.30625 67.3538,307.36625 67.5813,310.91125 z M 30.88012,316.77125 C 32.839,316.23875 35.955,315.3125 36.60875,314.575 C 37.29,313.805 37.91875,312.68875 37.91875,312.68875 C 37.91875,312.68875 38.45625,315.5 38.5475,317.21375 C 38.77875,321.565 33.36775,320.2375 30.30725,319.385 C 29.2375,319.0875 28.3575,318.55375 29.037,317.47375 C 29.17388,317.25625 29.35813,317.185 30.88012,316.77125 z"
     style="fill:#ff0000;stroke:none" />
  <path
     id="forgive"
     d="M 130.99762,394.17448 C 131.29418,394.14417 131.59084,394.12051 131.88828,394.15401 C 132.52642,394.18906 133.16419,394.23733 133.80375,394.22121 C 133.66828,394.2916 133.5728,394.33746 133.75038,394.2158 C 134.0745,393.96461 134.41707,393.73396 134.72956,393.46985 C 135.10012,393.07072 135.47069,392.67159 135.84125,392.27246 C 135.98875,392.68579 136.13625,393.09913 136.28375,393.51246 C 136.08923,394.01255 135.9192,394.52331 135.70916,395.01664 C 135.53542,395.34993 135.38294,395.69734 135.19603,396.0219 C 134.84289,396.42625 134.50244,396.84688 134.14141,397.24112 C 133.83814,397.38577 133.54314,397.55328 133.23477,397.68385 C 132.73874,397.79602 132.24364,397.92691 131.74704,398.02739 C 131.30561,397.96369 130.85825,397.91809 130.42049,397.84318 C 130.09815,397.6631 129.76686,397.49497 129.45005,397.30751 C 129.21836,397.07582 128.98668,396.84414 128.755,396.61246 C 128.66625,396.08079 128.5775,395.54913 128.48875,395.01746 C 130.22658,394.26309 129.07464,394.41967 130.99762,394.17448 z M 185.18125,395.63746 C 185.52925,395.17261 185.84176,394.67901 186.25035,394.26325 C 186.7751,393.64906 187.38546,393.11748 187.95799,392.5494 C 188.42033,392.1025 188.88266,391.65561 189.345,391.20871 C 189.61273,392.05711 189.89928,392.90062 190.1552,393.7521 C 190.27708,394.36393 190.40495,394.97668 190.49625,395.59306 C 190.40332,397.92512 190.50549,397.46579 190.40875,398.73871 C 189.78976,398.64939 189.17476,398.52599 188.55312,398.45921 C 188.00476,398.41416 187.45654,398.36539 186.90574,398.38371 C 184.66911,398.50564 184.37848,398.53924 182.9675,398.91621 C 183.70542,397.82329 184.44333,396.73038 185.18125,395.63746 z M 172.86875,402.45871 C 166.66691,404.50086 162.53557,409.8115 158.35652,414.50326 C 156.59066,416.34183 155.07024,418.45016 153.02625,419.99871 C 153.45543,419.66184 150.93714,421.41235 149.92625,421.32746 C 147.29007,421.86259 146.19804,418.6095 146.63799,416.51604 C 146.9876,413.31263 148.37978,410.37384 149.57125,407.41996 C 153.10962,406.35877 156.78593,406.0977 160.39864,405.44321 C 163.65994,404.83916 165.22041,401.59671 166.13625,398.73871 C 167.99829,394.27799 167.29826,389.32121 167.465,384.61068 C 167.57321,383.4005 166.58575,381.26705 167.05356,380.28939 C 168.31505,379.42865 168.12089,380.33567 168.79375,378.27621 C 168.95207,377.09567 170.61134,374.97506 168.55782,374.86325 C 166.27098,374.21421 164.7779,372.21149 163.30125,370.48121 C 164.0155,371.74693 161.79845,367.43007 161.53844,370.08456 C 159.99255,372.77462 157.69884,375.9941 159.315,379.16121 C 161.06582,382.32191 160.73727,386.01758 161.69592,389.40111 C 162.01576,391.40294 162.93278,393.58569 162.25453,395.54748 C 160.95925,396.95616 162.58377,395.87076 160.1263,396.87446 C 156.35533,397.96553 152.40864,398.23006 148.53135,397.59854 C 146.46859,397.29872 144.28846,396.89217 142.57375,395.63746 C 142.03178,395.50065 140.93562,393.60621 140.9662,392.44978 C 140.54749,388.59657 141.00994,384.66844 140.27,380.84496 C 139.24596,379.9095 139.21559,378.55375 138.2325,379.69371 C 136.58608,383.59183 135.93086,385.17442 132.56375,386.95746 C 130.78082,387.83246 129.03233,388.79537 127.42625,389.96871 C 127.80245,389.82852 125.55769,391.50166 125.17984,392.37842 C 123.30429,394.44868 122.01987,397.14177 122.2,399.97871 C 124.54855,402.08822 127.68104,403.99983 130.96875,403.60996 C 133.13679,403.25642 134.80641,401.62238 135.7525,399.71246 C 135.7522,398.86153 136.74554,400.29533 137.08108,401.79381 C 139.96233,406.94549 143.68388,406.66516 146.98462,408.51807 C 145.08634,412.13022 143.12995,415.8205 142.7793,419.96532 C 142.4948,423.13498 142.75052,426.86149 145.06438,429.26872 C 147.55015,431.04337 151.61476,431.48134 153.71964,428.85907 C 157.16357,425.31494 159.28708,420.6904 163.09086,417.46404 C 167.01876,413.79753 171.76103,410.9346 177.0325,409.72246 C 179.26248,409.05519 181.63592,408.35015 183.89184,408.14149 C 187.47521,410.01835 191.24904,411.86646 195.40179,411.79172 C 201.36552,411.78497 207.2785,410.60704 213.10173,409.41746 C 214.88548,408.80613 215.12109,408.92025 216.4942,407.95206 C 219.78662,405.5782 222.63547,402.35158 224.15875,398.56121 C 224.61506,396.91273 222.61466,396.52417 221.47319,397.00136 C 218.96852,398.7278 215.89182,399.85566 212.85893,399.90335 C 210.03568,399.23609 208.29869,396.69927 206.265,394.84121 C 205.4084,394.16381 207.89437,393.68565 208.745,393.24621 C 214.39693,390.66682 217.40081,393.90612 218.17044,391.84608 C 219.24475,389.72273 216.60221,388.20963 214.95701,387.46435 C 212.78629,386.34629 210.07819,385.9797 207.99272,387.49356 C 203.65012,390.30677 201.5641,395.35142 200.24125,400.15621 C 200.16048,401.86093 198.53004,402.27853 197.0792,402.19371 C 195.62846,402.27635 194.24854,401.68247 192.9775,401.04121 C 194.0143,399.39299 194.97227,397.70299 195.9,395.99246 C 195.10386,397.64132 196.60053,394.33399 196.4438,393.62824 C 196.80884,390.33027 195.81873,386.39928 192.89128,384.55923 C 191.57651,384.05375 190.25642,385.48753 189.09557,386.08688 C 186.13735,387.55471 184.19132,390.38344 183.33569,393.51655 C 182.70708,395.23385 182.14273,396.99547 181.9925,398.82746 C 178.78723,400.08221 176.12499,401.41776 172.86875,402.45871 z M 280.65895,416.35814 C 280.33235,416.17422 279.99409,416.00689 279.6748,415.81257 C 279.41293,415.5728 279.13525,415.34709 278.88318,415.09859 C 278.67561,414.79066 278.44582,414.49598 278.25228,414.1797 C 278.03433,413.74387 277.80468,413.31339 277.63151,412.85705 C 277.40559,412.31427 277.17967,411.77149 276.95375,411.22871 C 277.87442,411.31987 278.79645,411.40356 279.71626,411.49939 C 280.04433,411.594 280.38015,411.66936 280.70335,411.77609 C 281.03007,411.96069 281.3697,412.12589 281.68822,412.32282 C 281.97141,412.55469 282.26671,412.776 282.54242,413.01442 C 282.71641,413.31111 282.90273,413.6027 283.06909,413.90256 C 283.18606,414.36961 283.30303,414.83666 283.42,415.30371 C 283.18387,416.44603 283.28405,416.82372 280.65895,416.35814 z M 256.93375,403.96496 C 256.48051,404.0212 256.02776,404.09461 255.57422,404.14009 C 255.19109,404.10686 254.80549,404.08823 254.4239,404.04584 C 253.8726,403.90055 253.3213,403.75525 252.77,403.60996 C 252.44542,403.31496 252.12083,403.01996 251.79625,402.72496 C 251.6235,402.1535 251.42953,401.58794 251.29971,401.00454 C 251.23275,400.80992 251.29378,400.60338 251.29185,400.40271 C 251.31207,400.05471 251.33228,399.70671 251.3525,399.35871 C 251.64792,399.24038 251.94333,399.12204 252.23875,399.00371 C 252.71441,399.27391 253.19536,399.53674 253.66772,399.81153 C 253.96759,400.08733 254.28025,400.35081 254.57213,400.63429 C 255.87736,402.45674 257.04731,402.37854 256.93375,403.96496 z M 273.32125,401.48496 C 270.78272,401.38731 268.18883,401.68417 265.68659,401.32795 C 263.3999,400.91211 261.46981,399.12274 261.13391,396.78341 C 260.6869,395.63962 260.67042,393.96428 259.58419,393.30355 C 257.6765,392.51957 255.66035,393.64312 253.73192,393.87776 C 251.08925,394.54615 248.47751,395.62868 245.74785,395.77701 C 245.69152,395.57766 242.94242,396.41476 244.05254,395.88651 C 243.58955,396.01452 242.39951,397.1875 242.02054,398.0655 C 240.47423,400.76513 239.26265,403.65486 238.33125,406.62246 C 238.31283,406.44031 237.87738,408.57995 237.68815,409.30487 C 236.83737,414.57615 238.49273,419.80572 239.66717,424.89904 C 240.08659,426.26711 240.32507,427.70576 241.0775,428.94496 C 240.52455,428.73296 242.55926,430.82136 241.96662,430.27741 C 242.80654,431.48502 243.34666,429.21531 243.68776,428.49892 C 244.70391,425.0375 244.3334,421.29973 243.4552,417.84251 C 242.68785,414.12965 241.45126,410.17855 242.76,406.44496 C 244.15663,404.65105 243.83806,404.55627 245.70555,404.6742 C 247.55956,405.42441 248.51344,409.93888 253.21384,411.59321 C 254.38123,411.68679 254.95619,412.28692 255.93262,411.5545 C 257.2027,410.56473 258.3745,409.45285 259.5025,408.30496 C 260.86362,409.00505 261.02439,409.25637 261.96621,409.57753 C 266.47754,411.12042 267.89747,411.23519 271.46582,411.22871 C 273.15389,410.71726 272.34167,412.70609 272.52375,413.70063 C 272.65904,416.23688 272.1342,419.01118 273.41,421.32746 C 275.49837,424.38545 279.86185,424.62913 283.06445,423.40023 C 285.81078,422.09337 285.14182,422.6459 286.875,420.61871 C 288.75217,418.06113 290.3229,415.10998 290.66651,411.92559 C 290.71111,410.79706 289.61413,409.2194 291.07738,408.60356 C 292.48514,407.55371 294.07499,406.76814 295.55625,405.82496 C 297.05575,409.21451 299.05808,412.86567 302.73125,414.23996 C 307.56473,415.43367 309.48287,414.74416 311.82453,412.07374 C 313.84362,409.49715 314.80429,406.21275 314.98947,402.96623 C 315.45126,399.19691 313.17208,395.87901 312.71202,392.24704 C 312.38793,389.16394 314.42396,386.54998 315.39875,383.76746 C 314.85462,383.9226 312.22855,380.33492 310.39652,378.13719 C 309.56645,377.28888 308.94924,376.58265 308.15008,376.69337 C 307.68354,376.81629 307.41176,377.428 306.5995,378.57833 C 305.49894,380.32747 304.38669,382.13978 303.61625,384.03371 C 303.55138,384.68364 303.88539,385.26961 304.75513,386.35547 C 305.61574,387.33872 306.9542,387.29789 306.36042,387.45596 C 308.0296,387.5683 307.25792,388.97447 307.09189,390.07661 C 305.35715,396.23418 307.77423,397.00865 307.96658,401.23316 C 308.27472,400.98314 307.54313,403.21822 307.2993,403.90194 C 307.04449,405.25867 306.38523,405.77115 305.21746,404.87306 C 303.86302,404.22781 303.31579,403.91374 303.64527,404.03535 C 300.66672,402.35601 300.10082,398.60775 299.985,395.49812 C 299.79561,391.88077 299.72929,388.21909 298.61702,384.7339 C 298.19704,382.6003 297.5212,380.52872 296.885,378.45246 C 294.72644,381.47581 292.05834,387.11102 292.98625,388.28621 C 293.45242,391.75015 294.41799,395.15183 294.58125,398.64996 C 292.7913,401.06839 289.50253,401.13821 286.84148,401.90661 C 285.76937,402.4022 284.4965,402.22373 284.39024,401.47373 C 283.59762,402.90007 285.08151,400.28277 285.48669,399.83803 C 287.18068,397.50988 287.62849,394.52788 287.82665,391.7286 C 287.92493,389.89668 286.17569,388.82284 285.0743,387.59479 C 284.43358,386.47248 283.63093,386.92476 282.55245,387.74221 C 279.91941,389.48217 277.12263,391.42318 276.0842,394.56584 C 275.08832,396.83818 274.19902,399.16471 273.32125,401.48496 z M 319.03,381.64246 C 319.88651,384.46395 320.48089,383.5971 321.29213,387.52539 C 321.53392,389.08303 321.51287,390.66104 321.51984,392.23237 C 321.66889,393.87624 321.64974,395.54786 322.10927,397.14603 C 323.23825,400.33617 323.39832,400.37273 324.87625,402.36996 C 325.78511,400.70708 326.83114,399.10114 327.39222,397.27532 C 327.68006,396.49177 327.59386,395.62534 327.75148,394.80915 C 327.86133,393.23387 327.77003,391.64677 327.8,390.06679 C 328.37829,385.84233 326.99828,383.94068 326.50471,380.63549 C 326.10653,378.73054 326.1932,376.7711 326.28519,374.84161 C 326.18839,374.14403 326.19742,373.41444 325.77777,372.81455 C 325.04209,371.48363 323.19375,369.06371 323.19375,369.06371 L 323.19375,369.06371 C 323.19375,369.06371 321.84897,372.16649 321.16366,373.71175 C 320.40557,375.35204 320.02165,377.12894 319.48624,378.84822 C 319.27228,379.76998 319.13162,380.70192 319.03,381.64246 z M 272.9675,369.06371 C 271.89518,370.30033 270.85406,371.59754 269.54164,372.58791 C 268.92277,373.03961 268.19091,373.37397 267.41406,373.37702 C 266.38004,373.48698 265.32535,373.34991 264.36904,372.9347 C 263.37656,372.50178 262.69141,371.62147 261.9825,370.83496 C 262.3696,371.29877 261.80608,370.47176 261.67488,370.51902 C 260.36892,371.66814 259.10963,372.87092 257.73125,373.93496 C 255.68438,374.41758 255.02229,374.01977 253.43387,371.52771 C 253.27175,371.14929 253.10962,370.77088 252.9475,370.39246 C 253.12603,370.88875 253.14571,371.00231 252.89533,370.46519 C 251.56765,370.71643 249.95044,373.49113 249.39709,374.76195 C 248.86858,375.78724 248.56481,376.91142 248.33092,378.0347 C 248.47633,381.27086 248.38859,381.87296 251.43143,383.02576 C 251.87804,383.10921 252.32466,383.33611 252.77127,383.13199 C 253.2809,382.986 253.85731,382.98487 254.24721,382.57908 C 255.4356,381.74845 256.48858,380.74629 257.6425,379.86996 C 258.08614,380.30748 258.58604,380.66388 259.15394,380.92224 C 259.71723,381.23802 260.37757,381.34161 261.00102,381.48497 C 261.76683,381.5891 262.53275,381.68915 263.30401,381.5779 C 263.96587,381.54208 264.59029,381.26052 265.22287,381.08331 C 266.12569,380.6214 267.04031,380.16172 267.77223,379.44356 C 268.46102,378.80269 269.15922,378.15675 269.75731,377.43006 C 270.37025,376.6566 270.83435,375.77489 271.3227,374.92028 C 271.94694,373.72333 272.55919,372.49837 272.77958,371.15261 C 272.91634,370.61405 272.91573,370.05651 272.9675,369.50621 C 272.9675,369.77382 272.9675,369.0851 272.9675,369.06371 z M 225.66375,381.64246 C 226.18631,383.64444 226.49337,383.60572 226.86683,384.13459 C 227.51117,385.14759 227.68478,386.36937 227.92597,387.52588 C 228.16764,389.0834 228.14662,390.66126 228.15359,392.23247 C 228.30561,393.92161 228.28387,395.64197 228.78265,397.27836 C 228.98875,398.05045 229.19212,398.84905 229.55771,399.55583 C 230.39808,400.70709 230.37566,400.83427 231.51,402.36996 C 232.47028,400.50155 233.69738,398.72087 234.18124,396.65279 C 234.30684,395.41698 234.50341,394.18747 234.43375,392.94121 C 234.40795,392.02115 234.45787,391.10141 234.51,390.18642 C 234.35536,388.68241 234.49466,387.16571 234.35096,385.659 C 234.28761,383.59125 233.47042,382.83033 233.13852,380.63507 C 232.74012,378.73029 232.82698,376.77092 232.919,374.84156 C 232.8228,374.14381 232.8329,373.41388 232.41178,372.81448 C 231.67557,371.4838 230.6947,370.30929 229.8275,369.06371 C 229.23164,370.55407 229.34357,370.2741 229.8275,369.06371 C 229.10736,370.59479 228.4826,372.16684 227.79718,373.71224 C 227.0475,375.33125 226.66697,377.08515 226.13979,378.78304 C 225.90961,379.72384 225.76913,380.68018 225.66375,381.64246 z M 187.3075,374.73246 L 181.9925,380.04746 L 187.3075,385.27371 L 192.53375,380.04746 L 187.3075,374.73246 z M 207.23875,374.73246 L 202.0125,380.04746 L 207.23875,385.27371 L 212.465,380.04746 L 207.23875,374.73246 z"
     style="fill:#ff0000;stroke:none" />
  <path
     id="amin"
     d="M 257.865,473.11496 C 257.72548,471.14013 259.57956,469.24269 261.55706,470.02527 C 263.58686,470.65782 265.44088,472.10343 266.1025,474.17746 C 265.16601,476.13771 262.39433,475.22133 260.7875,474.61996 C 259.81456,474.13174 258.73761,473.75644 257.865,473.11496 z M 259.14867,467.84414 C 255.97568,469.41598 254.46531,473.23203 250.88906,474.08708 C 243.49426,476.4554 235.61893,476.54319 227.92375,476.65746 C 221.3961,476.55481 214.33421,476.97496 208.53244,473.45543 C 207.79996,473.1679 207.60405,472.9299 206.575,471.07746 C 205.21332,466.44522 208.28673,461.17181 205.18166,456.96006 C 204.44931,455.90069 202.17231,454.39799 201.5662,456.2688 C 199.49933,458.92326 199.06395,463.29668 195.26581,464.17901 C 193.28222,465.08435 192.21225,462.53596 190.86281,461.51836 C 189.6644,459.59116 188.84164,460.08251 188.24561,462.02625 C 186.70298,464.68984 185.66161,467.97765 187.17863,470.89549 C 187.42074,471.62163 187.16851,470.42583 187.85939,472.54552 C 188.31916,473.99467 189.59548,475.88563 187.72394,476.86177 C 182.99508,480.09537 176.57604,480.13001 171.38885,478.02094 C 167.65645,476.48674 165.96749,472.11004 166.97875,468.33121 C 166.88834,467.24684 168.55741,464.61262 167.23719,465.68677 C 164.7205,468.61834 164.21038,472.76641 163.6125,476.48121 C 163.47909,479.27281 163.23881,482.369 164.8525,484.80746 C 164.19192,483.84414 165.77057,486.30908 166.58566,486.56982 C 172.56756,489.96356 180.21709,489.66057 186.36379,486.85182 C 188.94352,485.53732 191.43055,483.59172 192.90504,481.12346 C 193.33578,473.50759 195.82606,473.15828 196.65375,472.84871 C 197.87602,471.81301 199.1567,470.85216 200.4625,469.92496 C 200.58011,471.00611 200.22221,473.91983 200.30471,473.10661 C 200.40877,478.17846 205.3127,481.65602 209.87106,482.62304 C 216.99227,484.05924 224.33274,483.8087 231.555,483.56746 C 237.71749,483.19711 243.91735,482.7212 249.95852,481.44306 C 252.20757,481.0231 253.83106,478.92985 255.2075,477.63246 C 258.08208,479.61497 260.66318,482.17883 263.8579,483.60427 C 266.65905,484.39971 269.31025,482.47332 271.52752,481.00959 C 272.92621,480.30354 273.35031,478.33355 273.8136,478.03309 C 274.44194,475.4279 273.98247,477.83429 274.22906,475.24871 C 274.01151,471.83978 274.01859,467.96512 271.68375,465.23121 C 268.59102,462.28304 263.43604,465.74341 259.14867,467.84414 z M 277.7075,464.96496 C 278.02368,467.08794 278.79253,466.80637 279.03598,467.71174 C 281.12111,472.39886 279.3245,477.86202 281.42135,482.59279 C 282.59727,484.19922 282.01363,483.81355 283.4706,485.58613 C 284.28185,484.66246 285.17047,482.83642 285.7675,481.44121 C 286.91687,477.89997 286.33219,474.05336 286.46282,470.3755 C 286.44951,468.78334 286.14472,467.4764 285.93227,466.54369 C 284.88428,460.88311 285.00024,456.88252 281.87,452.47496 C 280.79196,454.99381 282.51774,450.98006 281.12978,454.12659 C 279.5554,457.59371 278.03838,461.12606 277.7075,464.96496 z M 198.78,487.37621 L 195.06,483.74496 L 189.8325,488.97121 L 195.06,494.10871 L 198.78,490.47621 L 202.5,494.10871 L 207.72625,488.97121 L 202.5,483.74496 L 198.78,487.37621 z M 258.57375,456.01746 C 262.96779,456.06423 267.36796,456.89639 271.75341,456.65027 C 272.73309,456.65836 273.53632,455.89253 274.89365,454.87821 C 276.58879,453.37015 278.62623,451.95672 279.39,449.72871 C 278.18228,450.81652 275.98486,450.63883 274.34125,450.87996 C 272.79469,450.91334 271.23632,450.83905 269.735,450.43746 C 270.95982,450.77912 267.52209,449.78992 266.75855,449.49098 C 262.70188,448.15075 258.81328,451.03095 256.19819,453.86376 C 255.00477,454.78787 254.7137,457.12366 254.62134,456.69136 C 255.40688,456.40819 257.30406,455.95356 258.57375,456.01746 z M 177.16625,449.10871 L 171.93875,454.33496 L 177.16625,459.56121 L 182.3925,454.33496 L 177.16625,449.10871 z"
     style="fill:#ff0000;stroke:none" />
</svg>