<?xml version="1.0"?>
<!DOCTYPE svg PUBLIC "-//W3C//DTD SVG 1.1//EN" "http://www.w3.org/Graphics/SVG/1.1/DTD/svg11.dtd">
<svg xmlns="http://www.w3.org/2000/svg" version="1.1">
  <path
     id="deathmonth"
     d="m 113.22436,1.54 c -0.255,0.3325 -0.5125,0.70625 -0.73375,1.0775 -0.815,1.36125 -1.72875,4.52125 -1.755,6.07125 -0.0875,5.2225 0.455,18.765 1.0375,22.78125 l 0.6425,4.4275 1.82625,-4.23875 c 0.36,-0.83625 0.715,-1.85125 0.9675,-2.77375 2.125,-7.77875 2.31125,-15.83875 -0.10375,-25.95375 L 114.40561,0 113.22436,1.54 z M 99.219359,0.005 c -0.435,-0.0875 -1.4725,1.115 -2.07875,2.22625 -1.38625,2.54375 -2.51875,5.04875 -1.98875,7.16375 0.4175,1.665 1.9175,3.19 2.505,5.1025 0.35125,1.14375 0.2,4.4925 -0.27625,6.075 l -0.63875,2.12625 -1.63875,-1.9625 c -0.24,-0.28625 -0.46625,-0.61375 -0.67625,-0.93875 -0.95875,-1.485 -1.54,-2.88625 -2.48875,-4.185 -3.1325,-4.2875 -10.56125,-8.5625 -16.0525,-9.385 -2.01875,-0.3025 -2.56375,0.58375 -3.095,2.66375 -1.1425,4.47 0.40625,12.42375 5.6325,11.18625 1.31875,-0.3125 2.7525,-1.25 3.90375,-1.27625 2.05875,-0.0475 7.43625,5.23125 8.57125,6.495 0.9125,1.01625 1.53625,2.31125 1.46875,3.0475 -0.0675,0.735 -3.71,5.11875 -5.00625,6.025 -3.21375,2.24625 -4.30875,2.5075 -4.97375,5.165 -0.8975,3.5875 -0.205,3.9575 2.61375,3.65375 0.9875,-0.10625 2.14875,-0.2075 2.98625,-0.57125 l 2.20125,-0.9575 1.20625,0.13125 c 1.59625,0.1725 3.6675,0.5575 4.57,0.33375 2.04625,-0.50875 4.278751,-4.06125 4.493751,-5.63625 0.17,-1.255 -0.837501,-5.61 -1.243751,-8.4225 l -0.33,-2.2825 1.391251,-3.01375 c 1.0325,-2.23875 2.2575,-6.25 2.51375,-8.165 0.12875,-0.96375 0.27625,-1.92125 0.56,-2.815 0.435,-1.3725 1.22375,-2.76125 1.50875,-4.02875 l 0.45625,-2.0375 -1.86,-1.15875 c -0.5725,-0.3575 -1.235,-0.74 -1.79,-1.435 C 100.79811,2.045 99.799359,0.12 99.219359,0.005 z m -6.3725,34.3275 2.1375,-2.68125 0.905,1.7525 0.73375,1.41875 -3.20875,1.1875 -2.7025,1.00125 2.135,-2.67875 z M 31.540609,22.45 c -0.01125,-0.0175 -0.02125,-0.035 -0.0325,-0.0525 l -1.94375,-3.1825 -1.80875,1.42125 c -1.0575,0.83 -1.87625,2.4225 -2.34375,3.89625 -0.32625,1.03 -0.17375,3.41 0.3025,4.7275 0.4675,1.2925 1.20125,2.59125 1.8275,3.69 l 1.4925,2.61875 -0.92375,1.51875 c -2.02625,3.33375 -8.5525,9.18125 -11.95875,10.405 -7.0387498,2.5275 -17.2837498,3.97875 -16.04999978,4.29 3.48124998,0.88 12.08499978,2.37875 15.74749978,2.6475 5.4425,0.4 5.73875,-0.9175 10.48375,-6.995 3.82875,-4.9025 5.3825,-6.685 6.34375,-12.225 l 0,0.075 c 0.05875,-0.0875 0.1175,-0.15875 0.17375,-0.2125 0.8025,-0.75125 1.9925,-1.00125 3.105,-1.83125 1.0525,-0.785 2.90125,-2.975 3.435,-4.32375 0.49875,-1.26 0.99125,-3.52875 0.99125,-3.52875 0,0 0.755,8.3175 1.55125,10.73375 0.37,1.1225 1.39125,3.30875 2.53,4.8025 1.40625,1.84125 6.05,2.53625 9.485,1.28875 3.09375,-1.12375 8.64875,-3.46125 12.45625,-4.59125 l 2.34625,-0.69625 1.44625,0.22125 c 0.78875,0.12125 1.58,0.32125 2.27375,0.255 0.885,-0.085 3.22875,-1.8725 5.10625,-3.7425 1.3,-1.295 2.69,-3.94375 2.64125,-5.09625 -0.0225,-0.5375 -0.06375,-0.96125 -0.06375,-0.96125 0,0 -2.8625,0.32375 -5.24375,0.0913 -1.29125,-0.12625 -11.90625,-6.75125 -14.12,-7.3575 -0.955,-0.26125 -5.6925,0.49625 -6.7275,1.07625 -1.605,0.89875 -6.5875,5.76125 -4.705,7.33125 0.4525,0.37875 2.30625,-0.13875 4.035,-0.07 1.1225,0.0437 3.1475,0.7775 4.75,1.54625 l 2.3975,1.15 -2.34125,0.83 c -0.22375,0.0787 -0.49625,0.17375 -0.835,0.29125 -5.52,1.91125 -6.99625,2.92125 -9.785,-0.91625 -0.70125,-0.96625 -1.33625,-2.00875 -1.62875,-3.26625 -0.83375,-3.57375 0.75625,-8.15625 -1.32375,-10.96125 -2.09125,-2.8175 -5.2825,3.5275 -6.42125,5.91 -0.3625,0.76125 -0.60625,1.16375 -0.9725,1.33125 -5.2525,1.49875 -6.295,-3.12875 -5.6925,-2.13875 z m 8.01375,23.3125 -3.64375,-3.645 -5.31875,5.31875 5.31875,5.32 3.645,-3.645 3.645,3.645 5.3175,-5.31875 -5.31875,-5.32 -3.645,3.645 z m 19.735,-40.3875 -5.31875,5.31875 5.32,5.31875 5.3175,-5.3175 -5.31875,-5.32 z M 182.00561,20.41625 c -1.0575,0.83 -1.875,2.42375 -2.3425,3.8975 -0.32625,1.03 -0.175,3.40875 0.3025,4.7275 0.4675,1.29125 1.2,2.59125 1.8275,3.68875 l 1.4925,2.62 -0.92375,1.51875 c -2.0275,3.33375 -8.5525,9.18125 -11.95875,10.40375 -7.03875,2.52875 -17.285,3.97875 -16.05125,4.29125 3.4825,0.87875 12.085,2.3775 15.74875,2.64625 5.44125,0.4 5.73875,-0.91625 10.48375,-6.995 4.61,-5.90375 5.9225,-7.28125 6.87125,-16.1475 0.44875,-4.1925 0.21375,-5.76125 -1.69625,-8.89 l -1.945,-3.18125 -1.80875,1.42 z m -25.65375,21.4825 -5.31875,5.31875 5.32,5.31875 5.3175,-5.31875 -5.31875,-5.31875 z M 145.22936,26.355 c -1.3225,-0.24375 -2.6575,-0.625 -4.24375,-1.1725 -1.84125,-0.63375 -2.55875,-0.94125 -2.74875,-1.9675 -0.28875,-1.5475 1.3875,-9.54 1.02875,-10.3775 -0.35375,-0.82625 -5.4425,-3.3025 -7.94625,-3.55375 -4.21125,-0.42375 -8.9375,3.23375 -9.66625,7.94125 -0.17,1.09625 -0.135,3.60875 0.605,4.235 0.93625,0.7925 3.4225,1.41375 3.4225,1.41375 0,0 -3.135,4.01875 -4.93375,6.8375 -0.7425,1.165 -1.365,2.36375 -1.895,3.57125 -2.10375,4.785 -3.22,12.91875 -2.32375,16.72125 2.2475,9.54125 13.425,17.30125 20.24375,16.4975 2.07125,-0.24375 4.58,-0.5775 7.09875,-0.96125 8.2025,-1.24875 11.8525,-3.44625 13.5075,-4.9225 l 2.325,-2.07375 -5.095,-0.33 c -2.66625,-0.1725 -6.3225,-0.3025 -9.73625,-0.32 -8.7575,-0.0462 -14.68,-1.185 -19.59375,-6.44625 -5.29625,-5.67125 -5.145,-7.5675 -2.71875,-13.8875 0.6125,-1.595 2.50125,-4.0125 3.8275,-4.9425 0.21625,-0.1525 0.45,-0.315 0.70375,-0.49125 1.765,-1.23 3.7025,-2.42625 4.1875,-2.2425 0.62,0.23625 1.1675,2.49375 2.4575,3.7525 0.63,0.61375 1.5075,1.06875 2.4625,1.5375 4.52375,2.22125 13.44875,0.44125 16.97,-0.39375 0.46,-0.11 0.9175,-0.21375 1.355,-0.305 l 2.63875,-0.55625 2.1625,0.79125 c 0.7,0.25625 1.48875,0.57125 2.295,0.9025 3.505,1.4375 8.07125,0.79 9.3875,-1.25875 0.91375,-1.42375 1.79875,-3.09375 2.49,-4.6425 0.53875,-1.205 1.20125,-3.94 1.4625,-5.69 0.89,-5.94625 -3.69125,4.40625 -8.54875,2.725 l -4.69375,-1.62375 c 0,0 0.60875,-1.82125 0.96875,-3.31 1.24625,-5.13875 -0.68875,-0.35 -5.8025,2.76625 -1.49875,0.915 -7.30625,1.36125 -8.83125,1.51 -1.01875,0.0988 -1.955,0.18875 -2.8225,0.26625 z m -8.5275,19.18875 -3.64375,-3.645 -5.31875,5.31875 5.32,5.31875 3.64375,-3.645 3.645,3.645 5.31875,-5.31875 -5.32,-5.31875 -3.645,3.645 z"
     style="fill:#000000;stroke:none" />
</svg>