<?xml version="1.0"?>
<svg xmlns="http://www.w3.org/2000/svg" version="1.1">
  <path
     d="m 10.44691,8.2982746 -0.6874602,0.0113 c -0.8837,0.0163 -1.00245,0.12624 -1.19119,1.10619 -0.0825,0.42873 -0.32873,1.0836904 -0.60496,1.7161604 -1.61242,3.6848 -3.53357,2.8336 -4.91725,0.11124 -1.26243,-2.4836204 -2.77734997,-5.2309704 -3.02733997,0.28124 -0.0987,2.21113 0.1475,6.42466 1.85115997,7.5721 1.82365,1.22868 4.64975,0.27498 6.41341,-0.9162 0.41498,-0.27999 0.78496,-0.60622 0.9862,-1.0212 0.11499,-0.23749 0.17499,-0.50497 0.21749,-0.76746 l 0.24873,-1.54242 1.7186602,0.19374 c 0.31249,0.0362 0.63997,0.0662 0.9537,0.0525 1.09369,-0.0488 1.93615,-0.57622 2.56737,-1.35618 2.86609,-3.54356 1.54241,-7.8233404 -0.70497,-10.8344304 -1.68116,-2.25362999 -4.5197602,-5.78969 -1.7449,1.28118 1.01244,2.57862 0.8562,4.06104 -2.07865,4.11229 z"
     style="fill:#000000;stroke:none" />
</svg>
