<?xml version="1.0"?>
<!DOCTYPE svg PUBLIC "-//W3C//DTD SVG 1.1//EN" "http://www.w3.org/Graphics/SVG/1.1/DTD/svg11.dtd">
<svg xmlns="http://www.w3.org/2000/svg" version="1.1">
<path
     style="fill:#000000;stroke:none"
     d="M 297.45977,434.14285 C 300.99195,433.36669 304.7361,431.54942 306.53525,429.83589 C 307.74697,428.68103 313.55012,419.23098 313.89332,417.61993 C 314.00031,417.11749 313.92607,411.32197 313.14892,409.31472 C 312.71485,408.19237 311.70235,406.56882 310.97644,405.47021 L 310.15717,404.23036 L 308.66586,405.78517 C 308.35915,406.10388 308.04756,406.43759 307.77672,406.7413 C 306.80009,407.83991 306.11555,409.29723 306.12905,410.24836 C 306.1643,412.73054 307.16092,417.65867 307.44101,420.08337 L 307.60399,421.49319 L 306.32978,422.06187 C 305.15618,422.58555 303.29716,423.29296 301.88584,423.65167 C 298.13606,424.60405 291.24493,423.24422 287.88085,420.94451 C 281.63589,416.6763 286.29405,410.95577 285.58852,411.02576 C 284.84861,411.0995 283.68426,413.28422 282.82086,415.14274 C 281.13195,418.77603 280.80937,424.98275 282.15645,427.95113 C 282.49416,428.69478 282.82049,429.30346 283.07046,429.60467 C 283.43391,430.04086 283.82561,430.48081 284.17794,430.89951 C 286.32167,433.44418 292.92322,435.13897 297.45977,434.14285 z M 297.63487,394.30661 L 292.31717,399.62469 L 297.63587,404.94277 L 302.95358,399.62594 L 297.63487,394.30661 z M 400.2472,384.80031 L 394.93037,390.11839 L 400.24845,395.43647 L 405.56653,390.11964 L 400.2472,384.80031 z M 400.2472,397.95116 L 396.60391,394.30661 L 391.28583,399.62469 L 396.60391,404.94277 L 400.24845,401.29948 L 403.89299,404.94277 L 409.20982,399.62594 L 403.89174,394.30661 L 400.2472,397.95116 z M 326.23152,409.94215 C 325.07167,407.36997 326.0278,403.69418 326.04529,399.81467 C 326.07529,393.35923 324.438,388.72107 323.51186,386.19264 L 323.00193,384.80031 L 321.45212,386.43511 C 321.2534,386.64508 321.05717,386.86505 320.88094,387.08502 C 317.28515,391.55821 320.21603,397.43747 321.15216,402.78055 C 321.2684,403.44671 321.45587,416.80503 323.05317,418.79603 C 324.16553,420.18211 326.72396,421.19198 329.39612,421.86939 C 334.76295,423.23047 345.54909,423.15548 350.87717,420.35333 C 351.09214,420.24085 351.30211,420.12336 351.50834,420.00088 C 351.50834,420.00088 353.83054,418.6148 353.83054,418.6148 C 353.83054,418.6148 354.74793,419.23972 355.23787,419.57343 C 359.56107,422.51806 376.32146,423.74166 380.96338,421.36446 C 381.27584,421.20448 382.80939,420.41833 382.80939,420.41833 L 385.80027,421.23197 C 386.83014,421.51194 388.09998,421.86939 389.89475,422.14186 C 391.91575,422.45057 395.23908,422.11936 397.06135,421.34696 C 397.89624,420.99325 398.70114,420.49207 399.42355,420.04462 L 401.47579,418.77603 L 404.00297,419.87464 C 405.7615,420.6383 408.03996,421.70441 409.64476,422.14186 C 413.2868,423.13423 415.60151,419.0535 417.71375,414.81278 C 418.19244,413.85415 418.64488,412.71555 418.55989,411.65568 C 418.4599,410.40459 417.88372,408.68105 417.88372,408.68105 C 417.88372,408.68105 416.62888,409.43596 415.73899,410.01964 C 414.80411,410.63456 414.27043,411.06075 413.71425,411.76317 C 413.3018,412.2831 411.42204,412.31685 409.87098,411.78566 L 407.83874,411.09075 L 408.47866,406.99877 C 408.88736,404.38784 403.12808,413.05675 398.45242,413.95539 C 396.21895,414.38534 393.57804,414.30035 392.84313,413.44545 C 392.56066,413.11675 392.59441,412.61931 392.80813,411.92565 C 393.24183,410.51832 393.91924,409.071 393.69802,408.46358 C 393.77176,408.66606 387.25008,413.56044 383.30808,413.71042 C 380.36095,413.82291 365.30035,415.4427 361.16087,411.97939 C 360.27098,411.23448 360.87091,408.64231 361.66456,406.51133 C 362.58319,404.04539 361.89203,403.51046 359.56982,402.04189 C 358.9474,401.64819 358.38497,401.28074 357.75255,400.97827 C 356.80017,400.51958 351.30586,400.26211 350.56845,400.64082 C 349.22487,401.33073 346.35898,405.55395 345.59783,408.08488 C 344.54796,411.57694 346.23525,410.63081 348.46747,412.03938 C 348.71619,412.19686 348.90116,412.39309 348.90366,412.55432 C 348.90616,412.75804 348.53246,413.23923 347.98628,413.67418 C 343.17439,417.49994 327.80507,413.42921 326.23152,409.94215 z M 335.82656,423.79665 L 330.50848,429.11348 L 335.82781,434.43281 L 341.14464,429.11473 L 335.82656,423.79665 z"
     id="syaaban" />
</svg>