<?xml version="1.0" encoding="UTF-8" standalone="yes"?>
<!DOCTYPE svg PUBLIC "-//W3C//DTD SVG 1.1//EN" "http://www.w3.org/Graphics/SVG/1.1/DTD/svg11.dtd">
<svg viewBox = "0 0 600 600" version = "1.1" xmlns:svg="http://www.w3.org/2000/svg" xmlns="http://www.w3.org/2000/svg" xmlns:xlink="http://www.w3.org/1999/xlink">
  <path
     id="frame"
     style="color:#000000;fill:none;stroke:#000000;"
     d="M 0.5,0.5 68,383 293,383 360.49997,0.5 z" />
  <path
     id="alfatihah"
     d="m 226.09041,54.148446 c 0.0814,0.516412 0.14266,1.339255 0,2.095788 -0.1055,0.555595 -1.76123,2.646359 -2.12995,2.690566 -1.04086,0.121568 -3.56967,-1.135303 -4.98227,-2.454464 -1.01173,-0.94441 -2.05761,-2.114877 -2.34897,-2.501683 -0.44408,-0.587745 -0.69826,-1.095115 -0.7917,-1.575358 -0.39987,-2.035506 2.23042,-5.931703 4.55226,-7.421662 0.47824,-0.306431 0.99967,-0.236103 1.78735,0.389821 2.20932,1.757207 3.31146,4.986288 3.91328,8.776992 z m -75.50263,7.577389 c -6.15475,-0.673144 -11.76394,-1.410588 -16.43777,-2.087751 -0.62492,-0.09042 -1.26692,-0.188882 -1.91294,-0.29337 -7.13331,-1.155396 -16.55431,-4.153398 -18.92438,-6.015093 -3.24114,-2.544885 -5.44644,-6.329561 -5.95381,-10.196622 -0.44508,-3.397869 -0.0301,-13.565355 -0.37475,-16.428728 -0.39886,-3.319504 -1.31916,-6.026145 -1.74314,-7.155419 l -0.21802,-0.579707 -0.3858,0.402881 c -2.61923,2.730754 -3.34864,4.830561 -3.57067,5.970887 -0.0864,0.440055 0.71433,-0.07137 2.70664,11.54291 0.21098,1.229743 0.35566,2.262567 0.37374,2.801082 0.45513,13.808491 -0.65908,19.75225 9.64404,23.768005 1.8416,0.717351 3.86606,1.37442 6.04524,1.975226 12.46521,3.436047 39.00818,5.815159 54.90442,5.591112 11.12998,-0.156732 20.70671,-0.775622 26.43748,-1.570334 1.35231,-0.187877 3.14569,-0.530477 4.9893,-0.932354 3.28434,-0.718355 8.71068,-2.487618 11.10185,-3.631963 l 0.54253,-0.259211 1.4347,0.256197 c 1.93604,0.346619 5.53184,1.377433 8.04256,1.763235 2.9106,0.449097 10.00674,-0.400872 12.417,-1.634634 0.93536,-0.479239 2.75587,-2.213338 3.18989,-3.03819 l 1.44475,-2.750848 0.0141,-0.02612 0.20696,-0.226055 c 1.05694,-1.158411 2.59914,-2.699608 2.79908,-4.566327 0.0563,-0.531482 0.0502,-1.078035 0,-1.682859 -0.31648,-3.80477 -1.26592,-11.984975 -1.79037,-14.139035 -0.32049,-1.318156 -0.61085,-3.652057 -0.59879,-4.659763 l 0.0201,-1.635639 1.79338,-2.880453 1.14535,-1.841601 -0.96049,-0.630947 c -7.01175,-4.609528 -6.67116,-8.660447 -6.90726,-8.372101 -0.12759,0.154723 -0.25318,0.313464 -0.37475,0.47522 -0.30342,0.404891 -0.84796,1.475893 -1.45479,2.761899 -1.64268,3.482264 -0.8349,7.91798 1.68386,9.130644 l 1.32218,0.63597 c 0,0 -1.46284,2.745824 -1.95112,4.235783 -0.18888,0.576693 -0.23108,0.965509 -0.23409,1.462832 -0.003,0.671134 0.019,0.883124 0.22103,2.124924 l 2.37911,18.558676 0.0975,0.76658 -8.21838,-0.03713 -7.17853,-0.694243 4.28903,-6.228087 c 0.7917,-1.607508 1.9692,-4.708993 1.95011,-5.315827 -0.0241,-0.76658 -2.71568,-7.527155 -5.22038,-9.465206 -2.70262,-2.09177 -4.13029,0.04421 -7.01577,3.971548 -2.38514,3.246161 -6.94242,10.58142 -7.86774,15.879162 -0.11454,0.657069 -0.18286,1.394513 -0.15875,2.114877 l 0.0613,1.824522 -1.49398,0.369726 c -4.27496,1.059951 -9.0995,1.785339 -14.2606,2.245488 -8.43238,0.75151 -31.60661,-0.07435 -46.05007,-1.653724 z m -15.33261,-17.95787 c 0,0 -1.52713,0.249164 -2.96686,0 -1.43872,-0.248159 -2.79103,-0.99565 -2.79103,-0.99565 0,0 4.08709,-2.732763 5.19526,-3.450114 0.2562,-0.164769 0.32653,0.159746 0.37676,1.726062 0.0351,1.086072 0.18587,2.719702 0.18587,2.719702 z m 16.79645,6.484284 c -3.96251,-0.488281 -8.23748,-1.333227 -9.50138,-2.264577 -0.62291,-0.459144 -1.85265,-2.598134 -2.42734,-4.219707 -0.16979,-0.480243 -0.35063,-0.994646 -0.39584,-1.51809 -0.0603,-0.706299 -0.0703,-0.922308 -0.0904,-2.165112 l -0.23309,-13.87681 c 0,0 -1.31715,1.241799 -2.76993,2.626265 -1.40356,1.336241 -2.24348,2.213338 -2.69258,2.920641 l -0.66209,1.043875 0.46216,1.30811 c 0.17783,0.504355 0.37776,1.159415 0.59176,2.015412 0.0653,0.260216 0.0975,0.459145 0.008,0.568656 -0.67113,0.81782 -7.7502,4.219708 -9.10352,5.445433 -1.72003,1.557273 -5.57403,6.803776 -5.57403,6.803776 0,0 1.45178,0.91427 2.6122,1.505029 2.11086,1.075021 7.24785,1.962164 8.80814,0.460149 0.73543,-0.708308 1.23878,-1.427668 1.65573,-1.989291 l 2.29271,-2.477571 0.30844,2.17114 c 0.1718,1.212664 0.5998,2.572012 1.15841,3.826873 3.43102,7.711013 15.6511,7.048921 33.73958,5.087762 3.61086,-0.39183 8.02045,-0.868054 13.062,-1.40456 l 2.68353,-0.286337 0.29237,0.140657 c 3.35567,0.11353 5.93673,0.303417 7.07504,0.361689 1.8838,0.09745 4.40558,0.457135 6.33057,0.450102 l 1.9712,-0.0072 0.57067,-0.613867 c 1.01474,-1.091096 3.58876,-4.81549 4.51509,-6.502368 l 0.72438,-1.319161 -0.56363,-0.108507 c -0.74749,-0.142666 -2.64435,-0.369727 -3.78267,-0.455126 l -0.75151,-0.05626 -2.70463,-1.354325 c -0.18285,-0.09143 -0.36772,-0.184863 -0.55459,-0.279304 -1.48092,-0.754524 -6.60284,-4.037859 -10.36642,-6.638002 -0.61989,-0.427999 -1.12224,-0.818824 -1.12224,-0.818824 l 0.13765,-0.140657 c 0.47622,-0.484262 2.10985,-2.136981 3.60684,-3.518433 1.55527,-1.43671 3.04723,-2.961833 4.03987,-4.102158 0.65405,1.851647 1.46484,3.936384 2.22137,5.655412 0.39083,0.890158 0.76558,1.7984 1.05594,2.518764 l 0.96751,2.401215 0.99465,-2.101817 c 1.14635,-2.422313 2.36806,-7.959172 0.16176,-18.393906 l -0.62392,-2.95259 -0.0975,-0.02612 c -1.497,3.147701 -3.45213,6.035187 -5.78,8.576053 l -0.16175,0.174817 c -3.21201,3.458151 -7.12026,6.262247 -11.49971,8.189247 l -0.13463,-0.09444 -1.13932,-0.360685 c -1.22171,-0.386806 -3.23411,-0.866044 -4.09714,-0.981584 -0.29538,-0.03914 -0.57066,-0.07234 -0.81681,-0.09444 l -1.12827,-0.103483 -0.78969,0.911255 c -0.91929,1.059951 -2.25352,2.980922 -3.09445,4.5392 -0.3426,0.63597 -0.63899,1.1775 -0.87509,1.637649 l -0.68018,1.325189 c -0.0553,0.109511 3.03016,0.509379 5.8865,1.775291 1.8637,0.825857 4.19057,2.264577 7.04892,4.698946 0.26423,0.225051 -1.71803,0.560618 -5.0104,0.917284 -9.33359,1.011725 -22.25896,1.60148 -25.7583,1.169462 z m 62.27786,-26.149127 -6.53452,6.534519 6.53251,6.532509 6.53452,-6.533514 -6.53251,-6.533514 z m -91.59378,3.951455 4.82855,4.828551 7.16446,-7.163456 -7.1735,-7.172498 -4.82855,4.828551 -4.82956,-4.828551 -7.16446,7.163456 7.1735,7.172498 4.82956,-4.828551 z m 57.84114,-10.326227 4.82855,4.834579 7.16346,-7.171493 -7.1725,-7.1805364 -4.82855,4.8345794 -4.82855,-4.8345794 -7.16346,7.1714934 7.1725,7.180536 4.82855,-4.834579 z m -35.4144,21.209054 c 0.0301,0.06125 0.54153,-0.0064 1.1785,-0.125586 3.49232,-0.657069 9.19897,-3.777643 11.20835,-6.003037 1.74817,-1.935037 4.05394,-5.081733 5.40424,-7.380469 1.10315,-1.87777 2.03551,-4.047906 2.31783,-5.288701 0.69725,-3.066321 0.61286,-2.787016 -1.32921,0.255192 -0.23309,0.364703 -0.49632,0.779641 -0.78768,1.225725 -0.63597,0.972542 -1.57737,2.137985 -2.52881,3.173823 -2.18018,2.377102 -7.42869,5.449451 -10.40258,5.978924 l -1.31314,0.234093 -0.16376,0.606834 c -0.48024,1.786343 -1.67382,4.520111 -2.41528,5.562981 -0.71735,1.009716 -1.26692,1.555264 -1.16846,1.760221 z M 257.56139,22.809079 c 0.0181,-1.663771 0.0432,-2.767928 0.0432,-2.767928 0,0 -1.47891,2.711665 -2.4404,4.830561 -2.41226,5.313818 -2.26759,3.849981 -1.89887,9.726426 0.0663,1.050908 0.17181,2.304764 0.30744,3.701287 l -0.009,0 c 0.0191,0.167783 0.0392,0.336572 0.0593,0.50536 0.10851,1.086072 0.23309,2.250511 0.36973,3.466188 l 0.0473,0 c 0.62391,5.119912 1.24281,10.159449 1.35131,14.197307 0.13765,5.099818 0,11.123953 0,11.123953 0,0 1.47891,-2.711664 2.4414,-4.83056 2.41227,-5.312813 2.26659,-10.913973 1.89787,-16.790418 -0.0523,-0.831885 -0.1286,-1.790362 -0.22606,-2.846293 -0.95855,-10.417655 -1.94717,-19.972278 -1.94315,-20.315883 z"
     style="fill:#ff0000;stroke:none" />
  <text
     id="name"
     style="font-size:28px;text-align:center;stroke:#000000;font-family:Arial Black"
     x="43.301525"
     y="176.81802"
     transform="scale(0.93907471,1.064878)">SOFIA BIN HAZRUL</text>
  <path
     id="kembali"
     style="fill:#ff0000;stroke:none"
     d="m 257.9375,229.78125 -4.8125,4.8125 4.8125,4.84375 3.75,-3.75 3.71875,3.75 4.84375,-4.84375 -4.84375,-4.8125 -3.71875,3.75 -3.75,-3.75 z m 23.27061,-0.0625 -4.8125,4.84375 0,0.0312 4.8125,4.84375 4.84375,-4.84375 0,-0.0312 -0.0312,0 z M 325.25,192.9375 l -2.28125,0.6875 c -4.10216,1.25184 -14.006,6.85103 -14.59375,7.21875 -1.42164,0.89016 -7.15461,4.91223 -9.96875,7.59375 l -1.84375,1.78125 2.3125,0.0625 c 1.67482,0.0643 3.82177,0.69977 4.78125,3.15625 0.43001,1.09913 0.80705,2.53552 0.6875,2.90625 -0.2562,0.79471 -1.86175,2.08619 -2.71875,3.4375 -1.498,2.36203 -1.66605,5.54314 -5.1875,5.78125 -1.87375,0.12659 -3.67542,-1.40826 -4.28125,-2.90625 -0.36671,-0.90824 -0.6875,-2.25 -0.6875,-2.25 0,0 -2.14065,2.24568 -3.5,3.0625 -3.7689,1.77939 -7.60368,0.98137 -11.09375,-0.15625 -2.56297,-0.84093 -2.93172,-1.20053 -3.3125,-3.28125 -0.55761,-3.05225 -1.29404,-11.39391 -1.5,-14.625 -0.26625,-4.18254 0.97671,-6.81054 -1.15625,-11.03125 l -0.53125,-1.03125 -1,1.53125 c -0.81179,1.23276 -1.56483,2.52827 -1.65625,2.84375 l -0.59375,2.03125 0.5625,1.53125 c 1.0067,2.77999 0.98288,1.90821 0.6875,6.09375 -0.12458,1.76023 -0.1419,8.87171 -0.0625,10.59375 0.44709,9.64806 3.28959,9.87 6.375,10.78125 5.65328,1.13869 9.76576,1.07839 13.75,-1.75 0.25418,0.0211 0.61763,0.76959 1.125,1.5 0.78467,1.12928 2.64631,2.03166 4.1875,2.15625 0.34059,0.0271 1.07527,-0.24242 1.875,-0.6875 2.96284,-1.6487 4.28033,-2.64496 4.90625,-3.1875 l 0.625,-0.5625 0.46875,0.3125 c 0.25318,0.16075 0.58933,0.44336 1.375,0.6875 0.2341,0.0723 0.5333,0.14953 0.84375,0.25 2.02747,0.65003 4.16729,1.02321 5.65625,1.03125 l 1.03125,0 c 0.73342,0.006 2.1079,-2.6718 2.71875,-4 l 0.25,-0.5 -0.9375,-0.0625 c -0.90221,-0.0804 -2.34339,-0.26945 -3.4375,-0.65625 -1.32821,-0.4692 -3.58066,-1.79761 -4.1875,-2.46875 -0.50636,-0.56062 -1.0625,-1.28125 -1.0625,-1.28125 0,0 1.50885,-0.77429 2.34375,-1.40625 1.26089,-0.95345 2.1381,-2.53835 2.4375,-3.75 0.43704,-1.76625 -0.41768,-4.98693 -1.71875,-6.5 l -0.75,-0.875 1.28125,-0.84375 c 2.11789,-1.39753 4.66202,-2.88281 5.78125,-3.40625 2.92265,-1.36638 5.18542,-2.00452 6.96875,-2.75 l 2.125,-0.90625 c 1.09411,-0.45714 2.43754,-2.44987 2.75,-4.03125 0.1276,-0.64602 0.1864,-1.49405 0.15625,-2.125 z m -70.21875,-0.21875 c -0.031,-0.002 -0.0585,0.014 -0.0937,0.0312 -0.3858,0.18889 -0.95767,0.31424 -1.5625,0.53125 -1.23577,0.44307 -2.78773,2.13261 -3.21875,3.5 l -0.75,2.375 0.875,0.96875 c 0.26825,0.29639 0.60706,0.62715 0.96875,0.96875 l 1.25,1.1875 1,1.8125 c 0.3416,1.65372 -0.22317,1.00072 -0.0312,2.71875 0.20195,1.81849 0.411,1.59747 0.625,3.90625 0.0322,0.34561 -0.0186,0.55953 -0.15625,0.875 -0.84294,1.92801 -2.35741,2.12099 -4.625,2.125 -0.61688,8.1e-4 -1.06978,-0.016 -1.4375,0 l -1.40625,0.0625 -1.8125,1.6875 c -0.61688,0.57669 -1.29709,1.25299 -1.8125,1.84375 -1.34428,1.5422 -2.11928,2.36853 -2.21875,2.84375 -0.22103,1.05794 5.15912,-0.25959 10.21875,1.6875 0.52043,0.19993 1.11243,0.48016 1.875,0.875 1.09712,0.56866 2.59375,1.375 2.59375,1.375 0,0 -1.46378,1.12259 -2.6875,1.90625 -3.76659,2.41327 -14.04938,3.95437 -18.25,2.375 -3.0181,-1.1343 -5.41855,-3.21351 -5.78125,-6.15625 -0.23811,-1.93002 0.5625,-9.625 0.5625,-9.625 0,0 -1.46343,1.99715 -2.28125,3.25 -2.4836,3.80276 -3.35223,10.24429 -1.375,14.25 2.42432,4.91194 8.62248,5.80819 14.78125,5.125 5.68655,-0.62994 13.80671,-3.75156 17.1875,-7.21875 1.2207,-1.25185 4.18494,-5.20061 4.625,-6.40625 0.15974,-0.43402 -0.7182,-2.79445 -1.15625,-3.125 -1.33825,-1.01072 -4.84375,-2.40625 -4.84375,-2.40625 0,0 1.56834,-2.72439 2.40625,-4.40625 0.40891,-0.82284 0.66287,-0.43714 0.53125,-1.53125 -0.15472,-1.28701 -0.49914,-2.99319 -0.84375,-3.96875 -0.48225,-1.36638 -1.17907,-0.80247 -0.46875,-1.71875 0.20094,-0.2572 0.63762,-0.25814 1.09375,-0.28125 0.44809,-0.0221 1.92356,-1.18915 2.875,-2.28125 0.8339,-0.95747 1.65625,-2.65625 1.65625,-2.65625 0,0 -4.53671,-1.58933 -5.5625,-2.375 -0.31346,-0.24113 -0.57639,-0.47049 -0.8125,-0.6875 -1.41096,-1.30171 -1.47199,-3.40603 -1.9375,-3.4375 z m -124.23793,12.0625 c -0.59033,0.0363 -2.05978,2.5722 -3.3125,5.875 -0.11554,0.30442 0.8166,1.4013 1.4375,3.53125 0.35164,1.20663 0.56541,2.49056 0.53125,3.28125 -0.0301,0.67415 -0.19721,1.3441 -0.6875,1.75 -0.71534,0.58975 -3.52107,0.99236 -5.59375,1.71875 -3.19994,1.12325 -3.93531,2.68453 -5.6875,5.40625 -2.15707,3.35165 -3.36067,4.84431 -0.59375,6.8125 2.39017,1.70095 7.33813,2.36634 10.46875,0.6875 1.60951,-0.86303 3.12043,-2.9594 3.5625,-2.875 0.22505,0.0432 0.38779,0.63374 0.59375,1.4375 0.0874,0.34159 0.20521,0.68051 0.375,1 1.2197,2.28969 5.53747,4.44719 10.09375,5.53125 0.41293,0.0975 0.85124,0.19374 1.28125,0.25 5.25956,0.69424 5.79862,0.0231 6.46875,0.0312 0.37374,0.005 2.10136,-2.24166 3.46875,-4.5625 0.49632,-0.84294 -3.5576,-0.60799 -6,-2.75 -1.16846,-1.02478 -2.0625,-1.96875 -2.0625,-1.96875 0,0 1.60388,-0.40137 3.71875,-0.75 0.59277,-0.0985 6.42172,-0.38789 12.53125,-0.625 2.60718,-0.10147 6.27947,0.25569 7.25,0.75 0.60784,0.31045 1.0545,0.54802 1.375,0.4375 2.56598,-0.88714 4.15755,-4.02509 4.84375,-6.09375 l 0.5,-1.46875 -1.40625,-0.34375 c -1.06297,-0.26625 -2.76381,-0.70081 -3.875,-1.0625 -1.40054,-0.45412 -2.22314,-0.94756 -3.53125,-1.84375 -6.637,-4.54824 -11.79884,-9.96266 -16.4375,-8.75 l -2.125,0.5625 -1.96875,2.59375 c -1.21266,1.61052 -2.58212,3.83801 -2.71875,4.53125 -0.11052,0.56463 -0.0874,1.11271 0,1.65625 l 0.125,0.8125 2.75,0.46875 c 0.51842,0.0864 0.85987,0.11907 1.15625,0.15625 l 2.46875,0.3125 1.9375,-0.84375 c 0.4069,-0.18185 0.77336,-0.4091 1.125,-0.65625 0.85901,-0.60382 1.06484,-0.59626 2.0625,0.15625 l 2.21875,1.6875 c 0,0 -7.06722,1.18645 -10.875,2.375 -1.74013,0.54354 -3.63348,1.3041 -4.65625,2.40625 -1.3915,1.5 -3.28125,4.875 -3.28125,4.875 0,0 -1.15966,-1.38601 -1.875,-2.5625 -0.66008,-1.08607 -1.45319,-4.39883 -1.625,-6.09375 -0.11554,-1.14836 -0.0825,-2.63393 -0.0312,-4.09375 0.0995,-2.8282 -0.90409,-7.86714 -2.0625,-10.03125 -0.86805,-1.61956 -1.75,-3.59375 -1.75,-3.59375 -0.0462,-0.10185 -0.10317,-0.13019 -0.1875,-0.125 z m -0.25,18.90625 -0.34375,1.90625 c -0.14467,0.86504 -0.21561,0.98667 -0.78125,1.21875 -0.12458,0.0512 -2.30408,0.52824 -2.5,0.53125 -0.54353,0.009 -0.73055,-6.8e-4 -1.84375,-0.1875 l -2.46875,-0.40625 0.0937,-0.5625 c 0.0412,-0.24816 0.19009,-0.32682 1.5625,-0.6875 1.03986,-0.27227 2.60277,-0.613 3.1875,-0.34375 0.31146,0.14367 0.35658,0.33096 0.875,0.125 0.79069,-0.31447 2.21875,-1.59375 2.21875,-1.59375 z m -66,-12.125 c 0,0 0.426657,2.24756 0.5,3.625 0.185868,3.49733 -4.165111,2.4352 -6.625,1.75 -0.859816,-0.23912 -1.546151,-0.66319 -1,-1.53125 0.110018,-0.17481 0.245444,-0.22994 1.46875,-0.5625 1.574457,-0.42799 4.099546,-1.18848 4.625,-1.78125 0.547557,-0.61889 1.03125,-1.5 1.03125,-1.5 z m 3.78125,-13.875 c 0,0 -1.125226,0.59123 -2.09375,1.34375 -1.032823,0.80174 -1.694992,1.48972 -2.125,2.03125 l -0.53125,0.6875 0.375,1.75 c 0.11554,0.5144 0.273317,2.01229 0.3125,2.96875 l 0.03125,0.4375 -1,0.34375 c -0.597792,0.20998 -1.42334,0.40237 -2.25,0.75 -2.489122,1.0499 -9.006511,7.67702 -8.875,12.0625 0.05353,1.79036 3.061408,4.64936 3.90625,5 0.579209,0.24012 1.919379,-0.0844 3.96875,-0.90625 2.169131,-0.87006 5.46875,-2.125 5.46875,-2.125 0,0 0.200538,2.74999 0.78125,4.25 0.104488,0.27026 0.742357,0.86995 1.46875,1.46875 4.103942,2.97771 7.039987,3.59158 11.84375,-1.875 0.709313,-0.82385 2.09375,-2.21875 2.09375,-2.21875 0,0 0.745476,2.15499 1.5,3.28125 0.682186,1.01675 0.919979,1.42759 1.40625,1.78125 0.761557,0.55459 5.457902,1.5239 7.03125,1.4375 2.991973,-0.16276 4.623653,-0.80791 6.625,-3.34375 1.123246,-1.42466 2.15384,-2.80784 2.9375,-4.125 3.11153,-5.2254 1.54574,-12.97296 0.15625,-17.53125 l -1.75,-5.65625 -4.1875,7.8125 0.6875,2.90625 c 1.026795,4.17349 2.731839,11.21052 0.625,12.0625 -0.395849,0.16075 -0.842095,0.31392 -1.25,0.4375 -2.173149,0.65807 -7.126022,-0.33406 -8.03125,-0.75 -0.52244,-0.23912 -2.167028,-2.91854 -2.375,-3.875 -0.677162,-3.11957 -1.6875,-19.5 -1.6875,-19.5 0,0 -0.660455,0.82167 -1.3125,1.75 -0.936373,1.33323 -2.152481,3.53284 -2.53125,4.90625 -0.09746,0.35265 0.660896,2.02569 0.84375,4.875 l 0.6875,10.5 c 0,0 -2.958387,0.92035 -5.625,1.5625 -0.462787,-0.10806 -0.930019,-0.22979 -1.375,-0.375 -3.384808,-1.10415 -4.67948,-2.71013 -5.59375,-13.65625 -0.21199,-2.53584 -0.353693,-5.13293 -0.3125,-6.59375 0.0512,-1.82553 0.15625,-3.875 0.15625,-3.875 z m 145.875,-3.3125 -1.5625,0.625 c -2.40423,0.9846 -7.02347,4.23061 -11.3125,8.0625 -3.14469,2.81013 -7.2092,6.97785 -7.96875,8.1875 -0.82384,1.31012 -1.70678,3.84717 -2.34375,5.46875 -0.23008,0.58473 0.21434,1.39829 1,2.03125 1.61583,1.30137 9.4302,1.63189 19.09375,1.125 1.94992,0.54055 3.59228,1.4899 3.71875,2.78125 0.0714,0.72237 0,1.875 0,1.875 -8.2265,0.56374 -24.60688,1.75362 -28.6875,-5.375 -0.4692,-0.51741 -1.03302,-1.19884 -1.5625,-1.875 l -2.34375,-3 -2.84375,7.78125 1.25,1.59375 c 0.50838,0.64803 1.08135,1.3589 1.59375,1.96875 l 1.5,1.78125 -1.90625,1.625 c -7.93003,6.81081 -9.30852,8.69675 -16.53125,7.25 -0.33356,-0.0663 -0.64101,-0.13737 -0.90625,-0.21875 -0.14568,-0.0442 -0.29986,-0.0808 -0.4375,-0.125 l -4.625,-1.46875 2.3125,2.5625 c 2.62727,2.94776 12.68514,4.29589 17.6875,0.25 1.64066,-1.3262 3.0878,-2.83958 3.71875,-4 0.57468,-1.05794 0.92528,-1.92171 1.1875,-2.625 l 0.96875,-2.59375 c 5.05653,2.4336 20.95366,3.1569 29.69699,1.6622 l 1.96875,-0.59375 3.17801,-3.81845 c 0.10549,-0.38078 0.18781,-0.77045 0.28125,-1.15625 0.6219,-2.58306 0.0977,-5.67864 -1.125,-7.84375 -0.54624,-0.96854 -1.50373,-1.82466 -2.65625,-2.5 0.004,-0.0535 0.0289,-0.10299 0.0312,-0.15625 -0.085,0.006 -0.16515,0.0252 -0.25,0.0312 -7.65546,-1.85006 -12.80443,1.43535 -21.9375,-0.65625 0,0 2.9476,-2.53227 5.65625,-4.9375 2.42532,-2.15406 7.79245,-4.69738 10.53125,-4.9375 l 1.34375,-0.125 0.8125,-1.0625 c 0.8349,-1.07603 1.35283,-2.73582 1.65625,-4.21875 0.11152,-0.54354 0.19432,-1.08607 0.125,-1.5 z m -102.65625,-0.28125 c -0.40793,0.0296 -1.39691,0.75363 -2.96875,4.3125 -0.13563,0.30744 -0.28076,0.65248 -0.4375,1.03125 l -0.9375,2.28125 1.125,1.15625 c 0.33959,0.34562 0.40757,0.52788 0.5,1.625 l 1.59375,14.96875 c 0.19491,2.32687 -0.20663,5.76628 -0.5,7.3125 l -0.46875,2.46875 c 0,0 3.1826,-4.42508 4.125,-7.03125 0.17884,-0.49632 0.94745,-3.03613 0.90625,-4.1875 -0.0241,-0.66411 -0.0437,-0.84339 -0.15625,-1.9375 l -2.15625,-15.5 c -0.27629,-1.99531 -0.47155,-5.1955 -0.40625,-6.375 -0.008,-0.0716 -0.0828,-0.13486 -0.21875,-0.125 z m 16.09375,-0.0312 -4.8125,4.84375 4.8125,4.8125 3.75,-3.75 3.75,3.75 4.8125,-4.8125 -4.8125,-4.84375 -3.75,3.75 -3.75,-3.75 z" />
  <text
     id="deathmuslim"
     style="font-size:38px;text-align:center;stroke:#000000;font-family:jawi"
     x="56.001297"
     y="265.04916"
     dx="0 4.5269647 2.3978407 1.7983805 121.83519 4.795682"
     transform="scale(0.94514814,1.0580352)">138319</text>
  <path
     id="muslimMonthGlyph"
     d="m 192.48346,249.61485 c -0.19339,0.28124 -0.38775,0.59855 -0.55649,0.91375 -0.61812,1.1557 -1.31017,3.83856 -1.33008,5.15452 -0.0673,4.43499 0.34414,15.93159 0.78591,19.3414 l 0.48729,3.75898 1.38506,-3.59873 c 0.27399,-0.70998 0.54228,-1.57065 0.73378,-2.35492 1.61165,-6.60314 1.7529,-13.44719 -0.0787,-22.03382 l -0.52994,-2.48971 -0.89684,1.30853 z m -13.76629,-1.30853 c 0,0 -1.44289,1.15677 -2.25914,2.09705 -0.82383,0.95088 -1.18219,2.44089 -1.18219,3.96167 0,1.15146 0.47971,2.66164 1.06938,3.41194 l 1.17175,1.49425 0.33845,2.47379 c 0.41809,3.0596 1.05326,7.8915 1.47513,11.18458 l 0.55934,4.36283 -2.03162,0.80761 c -2.78815,1.10796 -8.36159,1.40404 -11.06537,0.85008 -5.30704,-1.08673 -5.29757,-9.2287 -5.46631,-8.99841 -0.25313,0.34597 -0.50435,0.7864 -0.7186,1.19923 -2.20985,4.26625 -2.14634,11.10711 -0.091,13.69764 2.23829,2.82082 6.95282,4.32462 10.72028,3.17422 3.31715,-1.0135 7.83543,-3.37586 9.38167,-5.88361 1.32629,-2.15117 2.78341,-9.5131 2.81753,-10.3186 0.0749,-1.74577 -0.64371,-6.20093 -1.34808,-8.89969 -0.0635,-0.2441 -0.11947,-0.52851 -0.16876,-0.8384 l -0.56881,-3.59766 1.22674,-2.88874 c 0.20667,-0.48818 0.42282,-0.95619 0.62096,-1.36478 l 0.55744,-1.15358 -1.19072,-0.55823 c -0.87029,-0.40752 -2.09135,-1.01562 -2.92941,-2.39526 -0.52141,-0.85643 -0.91864,-1.81793 -0.91864,-1.81793 z m 35.84108,30.55571 5.75358,0.21968 c 2.12926,0.0807 5.29187,-0.35553 6.25507,-0.90843 l 1.6856,-0.96682 2.26862,0.69089 c 0.78212,0.23772 1.74532,0.54124 3.10668,0.77259 1.53201,0.26107 4.05281,-0.0191 5.43598,-0.67602 0.63234,-0.29927 1.24381,-0.72484 1.79082,-1.10477 l 1.55667,-1.07717 1.9169,0.93284 c 1.33482,0.64843 3.06213,1.55368 4.27939,1.92512 2.76255,0.84264 4.51828,-2.62236 6.1214,-6.22321 0.36215,-0.81505 0.70628,-1.78079 0.64181,-2.68179 -0.0758,-1.06126 -0.51287,-2.52579 -0.51287,-2.52579 0,0 -0.95183,0.64099 -1.62683,1.13767 -0.71006,0.52213 -1.11392,0.88402 -1.53674,1.48045 -0.31191,0.44041 -1.73774,0.46907 -2.91518,0.0191 l -1.54054,-0.59006 0.48538,-3.47455 c 0.31001,-2.21803 -4.05944,5.14391 -7.60505,5.90696 -1.69508,0.364 -3.69825,0.29184 -4.25569,-0.433 -0.21426,-0.27911 -0.18867,-0.70149 -0.0265,-1.29048 0.32991,-1.19498 0.84374,-2.42392 0.67499,-2.93969 0.0569,0.17299 -4.97903,4.40103 -7.96057,4.45728 l -6.46743,0.45422 -8.57491,-0.56034 c -0.20856,-0.63145 -0.43894,-1.28201 -0.68542,-1.96121 -0.4105,-1.13236 -1.11204,-2.53109 -1.8477,-3.19332 -1.13289,-1.01987 -3.10194,-2.05035 -3.10194,-2.05035 0,0 -3.1228,4.00307 -4.82451,6.74322 -2.70851,4.36284 -3.63947,9.2478 0.43894,11.21325 0.67405,0.32474 2.16055,0.32474 2.75876,0 0.75083,-0.40859 2.77866,-2.46743 3.35411,-2.05247 0.27493,0.19845 0.19909,0.98378 0,1.71393 -0.0892,0.3258 -0.42471,0.90101 -0.84185,1.50273 -1.8714,2.69984 -6.07305,5.98019 -8.45164,6.5331 -0.4854,0.1125 -0.98501,0.20058 -1.44101,0.27805 -1.2277,0.21119 -1.50073,0.22393 -2.73505,0.12841 l -5.31938,-0.40752 c -2.59759,-0.19951 -0.15832,1.46772 5.28715,3.45863 0.55175,0.20165 1.02291,0.44149 1.5775,0.64631 1.24761,0.46059 5.30231,0.78957 6.33378,0.51258 3.00713,-0.80442 8.63841,-8.62164 9.94384,-12.8274 0.30526,-0.98061 0.50055,-1.89965 0.60388,-2.78262 z m -5.06625,-4.09964 c 0.24933,0.29397 0.22847,1.21514 0,1.61948 -0.73282,1.29155 -5.18191,-1.83703 -5.87303,-3.0352 -0.41618,-0.72058 -0.29862,-1.37644 0.63708,-1.8158 1.08265,-0.50834 3.60439,1.31489 5.23595,3.23152 z m 31.9883,-26.45607 -4.03385,4.51565 4.03385,4.51565 4.03385,-4.51459 -4.03385,-4.51671 z m 0,11.16655 -2.76444,-3.09463 -4.03386,4.51565 4.03481,4.51671 2.76349,-3.09462 2.76444,3.09462 4.03385,-4.51565 -4.0348,-4.51671 -2.76349,3.09463 z"
     style="fill:#000000;stroke:none" />
  <path
     id="equals"
     d="m 165.756,313.27585 c -0.51642,-0.16678 -0.99465,-0.3406 -1.43571,-0.51943 -1.69893,-0.68922 -3.3828,-1.47288 -3.78367,-1.89987 -0.47622,-0.50838 -0.9002,-2.02044 -0.99967,-3.38582 -0.27528,-3.80175 0.006,-8.56902 -0.44709,-12.59382 -0.38078,-3.37174 -1.35734,-5.25655 -2.12593,-6.15173 l -0.64099,-0.74548 -3.13363,5.96888 0.85901,1.94709 c 0.31246,0.70731 0.68319,1.46283 0.95747,2.18923 1.8195,4.8185 0.12458,7.13231 0.24012,13.99536 0.0743,4.41663 1.11019,6.11456 4.75621,7.78034 4.23277,1.93303 8.74485,-2.19224 12.04124,-0.19793 0.4913,0.29739 0.90724,0.59981 1.16243,0.82988 0.54354,0.4923 0.98761,0.94943 1.36839,1.33725 l 1.55024,1.58038 1.21467,-0.45011 c 1.19458,-0.44106 2.42433,-1.83959 3.11355,-3.61689 l 0.46617,-1.20462 -0.53449,-0.86705 c -0.22003,-0.35667 -0.51642,-0.74046 -0.84495,-1.0921 -2.06163,-2.20631 -5.26459,-4.82454 -3.55159,-5.78804 3.39285,-1.90891 3.38883,-0.39183 5.70465,3.59881 1.45579,2.50671 3.15272,3.09445 6.24315,2.40323 1.01173,-0.22606 2.06565,-0.58875 2.79305,-1.08909 0.13965,-0.0965 0.26825,-0.19793 0.38881,-0.2994 l 1.3694,-1.15037 3.46719,0.98862 c 0.83691,0.23811 1.6899,0.49531 2.40926,0.7073 2.10382,0.62291 4.42667,0.22505 6.13867,-0.76457 0.89015,-0.5144 4.32218,-4.52514 4.55929,-5.32789 0.19993,-0.67615 -0.15975,-2.81012 -0.88514,-4.27496 l -1.02679,-2.07469 -4.09312,3.54053 -0.0834,2.1822 c -0.0673,1.77629 -4.63464,0.77863 -4.56833,0.15974 l 0.0914,-0.857 c 0.0433,-0.4069 0.0824,-0.88513 0.0784,-1.25888 -0.003,-0.22103 -0.0281,-0.43202 -0.0753,-0.61789 -0.1718,-0.68118 -0.35164,-1.16242 -0.53852,-1.48192 -0.81782,-1.39049 0.22405,2.94375 -5.99098,5.59313 -1.36638,0.58272 -3.12258,0.35365 -4.30008,-0.54053 -0.44106,-0.33456 -0.77964,-0.78165 -1.08607,-1.31213 -1.926,-3.32955 -2.67751,-5.54992 -5.88448,-5.00136 -0.94843,0.16176 -4.0449,1.93002 -4.80947,2.74583 -1.25687,1.34126 -2.50771,3.32352 -3.44408,4.5171 l -0.87513,1.1152 c 0,0 -1.83859,0.52043 -1.83859,0.52043 -1.07703,0.30543 -2.46551,0.59679 -3.97556,0.86304 z m 59.80933,-3.3396 c 0,0 -2.18219,0.24012 -3.45011,0.0784 -0.74448,-0.0944 -2.0978,-0.65003 -2.77597,-1.12626 l -4.19057,-2.93872 -2.94174,8.71671 3.58575,3.49231 -2.44241,1.52512 c -3.47121,2.16712 -10.32422,4.83458 -12.49536,4.93103 -2.49967,0.11052 -8.12093,-0.78667 -8.12093,-0.78667 0,0 1.25386,1.30911 2.02245,1.87576 0.26423,0.1939 0.47221,0.30141 0.65807,0.43403 0.95446,0.67716 1.36739,2.02546 2.27865,2.73678 1.21467,0.94742 6.88917,0.33155 9.24618,-0.4059 3.01809,-0.94441 8.57605,-4.97322 11.44646,-7.55729 l 3.92935,-3.53753 0.72941,-0.34059 c 0.76859,-0.35867 1.8627,-0.75351 3.53752,-1.23878 0.54454,-0.15774 1.19558,-0.39384 1.98527,-0.7495 0.26122,-0.11755 0.50536,-0.23912 0.71936,-0.36471 1.90289,-1.11822 3.49834,-4.38548 3.47724,-5.95581 -0.0121,-0.88011 -0.24916,-1.97824 -0.61487,-3.01508 l -1.97422,-5.59513 -5.3962,8.32789 0.78667,1.49398 z m 0.74649,16.62364 4.7753,-4.77229 -4.7753,-4.77329 -4.77531,4.77329 4.77531,4.77229 z m -76.20893,-30.95558 c 0.13664,-0.9203 -0.0934,-1.27495 -1.05794,-1.74414 -0.84294,-0.40992 -2.21937,-0.96551 -3.0402,-1.29003 -0.21802,-0.0854 -0.2783,-0.38781 -0.19089,-0.72237 1.071,-4.10618 1.16343,-4.05193 0.62391,-3.74148 -0.34963,0.20094 -0.71333,0.41695 -0.99967,0.60684 -2.42733,1.60951 -5.18823,6.71235 -4.65273,8.01644 0.19491,0.47421 0.86605,1.16142 1.86873,1.67683 l 1.4136,0.72639 c 0.39083,0.20094 -0.0241,3.73846 0.36069,3.89419 0.25318,0.10248 0.88212,-0.48024 2.26558,-2.38916 0,0 2.49465,-3.44509 2.49465,-3.44509 0.76859,-1.06196 0.86002,-1.2207 0.91427,-1.58842 z m -10.68088,13.68793 4.7753,-4.77229 -4.7753,-4.77329 -4.77531,4.77329 4.77531,4.77229 z m 8.31985,10.18758 c 2.5891,-3.15272 4.47892,-7.31918 4.13431,-8.41631 l -2.76391,-8.79407 -4.37141,9.18791 c 0,0 0.63295,1.24683 1.11822,2.28266 l 1.18453,2.53283 -1.02277,0.59478 c -0.31749,0.18386 -0.78467,0.31949 -1.41562,0.4933 -3.64602,1.00369 -7.44577,0.75553 -10.26192,-2.17214 -1.03885,-1.08005 -2.13598,-2.27161 -2.62526,-3.53451 -0.69927,-1.80644 0.99062,-5.08676 0.20495,-4.55427 -0.34762,0.2351 -0.69926,0.77462 -0.84394,1.0479 -2.70563,5.08776 -4.75018,10.1494 0.0191,13.35537 0.17884,0.12056 0.36872,0.24012 0.56564,0.35667 4.8376,2.87442 12.83997,1.56229 16.07809,-2.38012 z"
     style="fill:#ff0000;stroke:none" />
  <text
     id="death"
     y="347.97906"
     x="82.380852"
     style="font-size:38px;text-align:center;letter-spacing:2.8px;stroke:#000000;font-family:jawi"
     dx="0 0 0 0 0 0 0 0 0 3.4908161"
     transform="scale(0.95694193,1.0449955)">22.9.2012</text>
</svg>