<?xml version="1.0" encoding="UTF-8" standalone="no"?>
<!-- Created with Inkscape (http://www.inkscape.org/) -->

<svg
   xmlns:dc="http://purl.org/dc/elements/1.1/"
   xmlns:cc="http://creativecommons.org/ns#"
   xmlns:rdf="http://www.w3.org/1999/02/22-rdf-syntax-ns#"
   xmlns:svg="http://www.w3.org/2000/svg"
   xmlns="http://www.w3.org/2000/svg"
   xmlns:sodipodi="http://sodipodi.sourceforge.net/DTD/sodipodi-0.dtd"
   xmlns:inkscape="http://www.inkscape.org/namespaces/inkscape"
   width="744.09448819"
   height="1052.3622047"
   id="svg2"
   version="1.1"
   inkscape:version="0.48.0 r9654"
   sodipodi:docname="ali_frame.svg">
  <defs
     id="defs4" />
  <sodipodi:namedview
     id="base"
     pagecolor="#ffffff"
     bordercolor="#666666"
     borderopacity="1.0"
     inkscape:pageopacity="0.0"
     inkscape:pageshadow="2"
     inkscape:zoom="0.47227087"
     inkscape:cx="372.04724"
     inkscape:cy="526.18109"
     inkscape:document-units="px"
     inkscape:current-layer="layer2"
     showgrid="false"
     inkscape:window-width="1280"
     inkscape:window-height="716"
     inkscape:window-x="-8"
     inkscape:window-y="-8"
     inkscape:window-maximized="1" />
  <metadata
     id="metadata7">
    <rdf:RDF>
      <cc:Work
         rdf:about="">
        <dc:format>image/svg+xml</dc:format>
        <dc:type
           rdf:resource="http://purl.org/dc/dcmitype/StillImage" />
        <dc:title></dc:title>
      </cc:Work>
    </rdf:RDF>
  </metadata>
  <g
     inkscape:label="Layer 1"
     inkscape:groupmode="layer"
     id="layer1">
    <path
       id="path5744"
       style="color:#000000;fill:#0000ff;stroke:none;stroke-width:1;marker:none;visibility:visible;display:inline;overflow:visible;enable-background:accumulate"
       d="M 195.53182,9.648368 C 176.35804,23.178818 157.68803,38.232655 135.2653,45.981578 C 116.08857,53.474725 95.685017,57.01713 75.952157,62.721441 C 64.953135,66.47454 53.659757,72.942164 48.88755,84.106277 C 44.230833,94.491519 44.834081,106.14138 43.969755,117.24292 C 42.480913,121.1536 37.645056,121.62289 34.052196,121.03398 C 25.521213,121.022 16.919236,120.74578 8.432766,121.21228 C 8.215677,123.30879 9.466952,125.29318 9.199089,127.43605 C 15.419011,188.37395 22.042858,249.27025 28.418842,310.19215 C 34.199628,364.87101 39.980424,419.54986 45.76125,474.22871 C 146.50597,474.22871 247.25075,474.22871 347.9955,474.22871 C 360.4346,356.47812 372.89952,238.73024 385.32397,120.97811 C 373.30265,120.98574 361.28136,120.99473 349.26008,121.00152 C 349.58389,106.50324 349.8616,90.863373 341.63746,78.275168 C 332.86732,67.078869 318.64457,62.263077 305.22941,59.233285 C 281.36109,53.884367 257.22271,47.64228 235.9295,35.388446 C 222.07597,27.783367 209.8552,17.692663 196.90179,8.688228 C 196.44512,9.008275 195.98845,9.328322 195.53182,9.648368 z M 38.967758,481.72195 L 0,113.48292 L 36.881591,113.50704 C 36.732048,100.17853 38.248233,87.785592 44.053977,76.787559 C 49.843612,66.082464 63.066905,59.57936 71.851209,56.250422 C 80.060363,53.205429 88.486919,51.116826 96.206052,49.658223 C 105.50686,47.902879 114.33981,45.183581 122.78139,42.368449 C 131.8276,39.346987 141.10624,35.4978 149.56422,31.427213 C 163.66904,24.628633 176.43297,13.225883 189.19937,5.0115793 C 190.5387,4.269754 191.35455,3.6671948 194.44503,1.1592994 C 195.41788,0.36993501 196.04933,-0.00705809 196.875,1.0001279e-4 C 197.70067,-0.00705809 198.33213,0.36993501 199.30498,1.1592994 C 202.39546,3.6671948 203.2113,4.269754 204.55064,5.0115793 C 217.31704,13.225883 230.08096,24.628633 244.18578,31.427213 C 252.64378,35.4978 261.9224,39.346987 270.96862,42.368449 C 279.41019,45.183581 288.24314,47.902879 297.54395,49.658223 C 305.26309,51.116826 313.68964,53.205429 321.89879,56.250422 C 330.68309,59.57936 343.90639,66.082464 349.69602,76.787559 C 355.50177,87.785592 357.01795,100.17853 356.86841,113.50704 L 393.75,113.48292 L 354.78225,481.72195 z"
       inkscape:connector-curvature="0" />
  </g>
  <g
     inkscape:groupmode="layer"
     id="layer2"
     inkscape:label="lineart">
    <g
       id="g5873"
       transform="matrix(0.35181936,0,0,0.35181936,-411.26994,749.73157)">
      <path
         id="path5787"
         d="M 2841.0625,46.34375 C 2832.0658,46.762667 2803.9688,106.75 2803.9688,106.75 C 2803.9688,106.75 2809.0527,115.68562 2816.9062,128.34375 C 2821.2868,204.35373 2848.9543,696.04507 2834.2812,746 C 2864.0288,725.72971 2880.9591,581.66798 2872.8438,486.3125 C 2866.406,410.66883 2856.4388,246.76225 2852.4688,180.1875 C 2867.3361,199.28135 2882.8574,215.36482 2894.7188,218.25 C 2894.7188,218.25 2845.4787,77.368215 2843.75,51.4375 C 2843.5069,47.790993 2842.5347,46.2752 2841.0625,46.34375 z"
         style="color:#000000;fill:#ff0000;stroke:#ff0000;stroke-width:2;stroke-linecap:round;stroke-linejoin:miter;stroke-miterlimit:4;stroke-opacity:1;stroke-dasharray:none;stroke-dashoffset:0;marker:none;visibility:visible;display:inline;overflow:visible;enable-background:accumulate"
         inkscape:connector-curvature="0" />
      <rect
         transform="matrix(0.93204765,-0.36233572,-0.47754122,0.87860935,0,0)"
         y="1575.3663"
         x="3727.7385"
         height="32.957401"
         width="173.75107"
         id="rect5791"
         style="color:#000000;fill:#ff0000;fill-opacity:1;fill-rule:nonzero;stroke:none;stroke-width:1;marker:none;visibility:visible;display:inline;overflow:visible;enable-background:accumulate" />
      <path
         sodipodi:nodetypes="cscsscccc"
         inkscape:connector-curvature="0"
         id="path5794"
         d="M 1243.6842,338.59561 C 1268.5564,347.73168 1231.1042,378.02347 1209.3883,393.51215 C 1201.5041,399.13547 1195.6942,402.80756 1195.6942,402.80756 C 1195.6942,402.80756 1195.7595,409.17791 1205.1693,405.26888 C 1221.7707,398.37232 1261.4096,373.74695 1276.6497,354.29594 C 1300.0092,324.4822 1301.8166,309.37329 1296.4056,291.95745 C 1286.2668,284.52238 1228.1381,287.90196 1224.7586,290.60562 C 1221.379,293.30928 1157.7695,358.19348 1172.0721,362.81468 C 1172.0721,362.81468 1169.3335,344.00293 1243.6842,338.59561 z"
         style="color:#000000;fill:#ff0000;stroke:#ff0000;stroke-width:2;stroke-linecap:round;stroke-linejoin:miter;stroke-miterlimit:4;stroke-opacity:1;stroke-dasharray:none;stroke-dashoffset:0;marker:none;visibility:visible;display:inline;overflow:visible;enable-background:accumulate" />
      <path
         style="color:#000000;fill:#ff0000;stroke:#ff0000;stroke-width:2;stroke-linecap:round;stroke-linejoin:miter;stroke-miterlimit:4;stroke-opacity:1;stroke-dasharray:none;stroke-dashoffset:0;marker:none;visibility:visible;display:inline;overflow:visible;enable-background:accumulate"
         d="M 1553.57,300.00177 C 1578.4422,309.13784 1540.99,339.42963 1519.2741,354.91831 C 1511.3899,360.54163 1505.58,364.21372 1505.58,364.21372 C 1505.58,364.21372 1505.6453,370.58407 1515.0551,366.67504 C 1531.6565,359.77848 1571.2954,335.15311 1586.5355,315.7021 C 1609.895,285.88836 1611.7024,270.77945 1606.2914,253.36361 C 1596.1526,245.92854 1538.0239,249.30812 1534.6444,252.01178 C 1531.2648,254.71544 1467.6553,319.59964 1481.9579,324.22084 C 1481.9579,324.22084 1479.2193,305.40909 1553.57,300.00177 z"
         id="path5796"
         inkscape:connector-curvature="0"
         sodipodi:nodetypes="cscsscccc" />
      <path
         sodipodi:nodetypes="ccccc"
         inkscape:connector-curvature="0"
         id="rect5800"
         d="M 2244.5095,1080.6207 L 2460.523,1084.874 L 2460.523,1117.8314 L 2244.5095,1113.5781 z"
         style="color:#000000;fill:#ff0000;fill-opacity:1;fill-rule:nonzero;stroke:none;stroke-width:1;marker:none;visibility:visible;display:inline;overflow:visible;enable-background:accumulate"
         transform="matrix(0.93204765,-0.36233572,-0.47754122,0.87860935,0,0)" />
      <path
         style="color:#000000;fill:#ff0000;fill-opacity:1;fill-rule:nonzero;stroke:none;stroke-width:1;marker:none;visibility:visible;display:inline;overflow:visible;enable-background:accumulate"
         d="M 1767.938,295.42428 L 1967.2418,220.89186 L 1951.5032,249.84854 L 1752.1995,324.38096 z"
         id="path5803"
         inkscape:connector-curvature="0"
         sodipodi:nodetypes="ccccc" />
      <path
         sodipodi:nodetypes="ccccc"
         inkscape:connector-curvature="0"
         id="path5805"
         d="M 2165.3108,60.274807 L 2364.6146,-14.257613 L 2348.876,14.699067 L 2149.5723,89.231487 z"
         style="color:#000000;fill:#ff0000;fill-opacity:1;fill-rule:nonzero;stroke:none;stroke-width:1;marker:none;visibility:visible;display:inline;overflow:visible;enable-background:accumulate" />
      <path
         id="rect5807"
         d="M 1549.25,641.28125 L 1492.2812,698.25 L 1549.25,755.1875 L 1593.125,711.34375 L 1636.9688,755.1875 L 1693.9062,698.25 L 1636.9688,641.28125 L 1593.125,685.125 L 1549.25,641.28125 z"
         style="color:#000000;fill:#ff0000;fill-opacity:1;fill-rule:nonzero;stroke:none;stroke-width:1;marker:none;visibility:visible;display:inline;overflow:visible;enable-background:accumulate"
         inkscape:connector-curvature="0" />
      <path
         style="color:#000000;fill:#ff0000;fill-opacity:1;fill-rule:nonzero;stroke:none;stroke-width:1;marker:none;visibility:visible;display:inline;overflow:visible;enable-background:accumulate"
         d="M 2388.0651,256.29857 L 2700.9736,146.12547 L 2685.235,175.08215 L 2372.3266,285.25525 z"
         id="path5812"
         inkscape:connector-curvature="0"
         sodipodi:nodetypes="ccccc" />
      <path
         sodipodi:nodetypes="cccscsccccsccssc"
         inkscape:connector-curvature="0"
         id="path5814"
         d="M 2598.2023,319.83677 C 2598.2023,319.83677 2585.2113,334.92311 2586.4684,344.14253 C 2587.7256,353.36196 2602.812,419.15515 2602.812,419.15515 C 2602.812,419.15515 2585.6303,416.64076 2579.7634,401.97349 C 2573.8965,387.30622 2564.258,323.60835 2564.258,323.60835 C 2564.258,323.60835 2552.1051,338.27562 2552.9433,354.61916 C 2553.7814,370.96269 2558.3911,411.61198 2558.3911,411.61198 C 2537.871,427.27921 2532.5956,396.59551 2534.5044,382.6965 C 2537.4379,363.83858 2529.8947,323.60835 2516.9037,318.57958 C 2508.2189,322.1632 2509.7104,345.26156 2508.9414,343.72347 C 2508.9414,343.72347 2517.528,350.99359 2519.8371,366.77204 C 2522.3515,383.95369 2516.0655,430.88896 2533.2472,442.20372 C 2546.8036,446.60955 2563.0008,427.53644 2566.7724,414.12637 C 2568.4487,420.8314 2578.0837,445.46477 2588.1447,445.13717 C 2601.0147,444.7181 2614.1267,429.2127 2617.0602,413.28824 C 2619.9937,397.36379 2596.1069,322.77022 2598.2023,319.83677 z"
         style="color:#000000;fill:#ff0000;stroke:#ff0000;stroke-width:2;stroke-linecap:round;stroke-linejoin:miter;stroke-miterlimit:4;stroke-opacity:1;stroke-dasharray:none;stroke-dashoffset:0;marker:none;visibility:visible;display:inline;overflow:visible;enable-background:accumulate" />
      <path
         sodipodi:nodetypes="cscccsccccccc"
         inkscape:connector-curvature="0"
         id="path5816"
         d="M 1881.9022,640.19831 C 1881.9022,640.19831 1858.4898,661.77619 1858.4898,668.18879 C 1858.4898,674.6014 1885.8891,658.86136 1890.5528,664.10804 C 1898.399,685.65316 1878.2829,698.87347 1871.0241,714.71238 C 1866.7878,724.10978 1864.7115,733.1999 1870.1491,732.89781 C 1878.653,736.29355 1943.0196,714.24296 1944.7685,710.74518 C 1946.0244,708.23334 1940.0651,727.06655 1909.6192,743.28076 C 1894.0442,748.93206 1864.1737,767.13684 1855.7522,753.35073 C 1846.399,737.79964 1859.6557,716.57482 1859.6557,716.57482 L 1878.3106,685.67772 C 1878.3106,685.67772 1844.4987,695.00514 1839.8349,692.67329 C 1833.4305,686.11406 1858.9015,640.87511 1882.2201,627.46693 C 1885.6151,630.96466 1882.4196,636.70049 1881.9022,640.19831 z"
         style="color:#000000;fill:#ff0000;stroke:#ff0000;stroke-width:2;stroke-linecap:round;stroke-linejoin:miter;stroke-miterlimit:4;stroke-opacity:1;stroke-dasharray:none;stroke-dashoffset:0;marker:none;visibility:visible;display:inline;overflow:visible;enable-background:accumulate" />
      <path
         sodipodi:nodetypes="scscscssccscsccs"
         inkscape:connector-curvature="0"
         d="M 2628.7678,746.83487 C 2613.7419,748.37599 2616.0536,741.44094 2616.0536,741.44094 C 2616.0536,741.44094 2596.4043,754.15519 2589.4692,753.76991 C 2582.5342,753.38463 2580.2225,740.67038 2580.2225,740.67038 C 2580.2225,740.67038 2551.524,756.57556 2505.3604,759.7814 C 2482.6092,761.36136 2455.6159,759.85678 2425.7251,751.84351 C 2430.3898,750.82531 2505.2021,746.95006 2539.3828,741.82622 C 2550.0903,740.22112 2560.3818,738.47017 2569.2825,734.66612 C 2587.9537,726.6863 2601.0033,715.0932 2602.5687,716.39772 C 2604.8804,718.32412 2599.1012,727.18557 2597.9454,730.26781 C 2596.7895,733.35006 2619.5211,736.4323 2621.0622,729.11197 C 2622.6033,721.79164 2634.1617,716.01244 2634.1617,716.01244 C 2634.1617,716.01244 2629.5384,728.34141 2636.8587,727.57085 C 2641.1059,727.12377 2651.2429,716.21317 2658.035,710.68968 C 2667.958,707.74552 2662.7583,712.23945 2660.0015,716.42092 C 2652.551,727.68426 2639.0736,745.77787 2628.7678,746.83487 z"
         style="color:#000000;fill:#ff0000;stroke:#ff0000;stroke-width:2;stroke-linecap:round;stroke-linejoin:miter;stroke-miterlimit:4;stroke-opacity:1;stroke-dasharray:none;stroke-dashoffset:0;marker:none;visibility:visible;display:inline;overflow:visible;enable-background:accumulate"
         id="path5820" />
      <path
         d="M 2063.2142,481.34415 C 2108.1889,475.72231 2134.6919,486.16287 2140.3137,481.34415 C 2145.9356,476.52543 2100.9609,421.9133 2080.8829,420.30706 C 2060.8049,418.70082 2063.2142,481.34415 2063.2142,481.34415 z M 2051.1674,484.55663 C 2051.1674,484.55663 2048.7581,376.9386 2064.8205,370.51365 C 2070.6655,359.54763 2087.0114,355.12265 2087.3078,355.25437 C 2087.3078,355.25437 2178.8635,404.24467 2182.0759,466.08488 C 2185.2884,527.92509 2167.6198,539.97188 2167.6198,539.97188 C 2167.6198,539.97188 2031.0894,526.3188 2014.2239,552.01867 C 2000.8954,572.32878 2015.6556,705.49545 2022.4328,760.4571 C 2026.2208,779.94323 2017.8254,821.18067 2005.3896,837.92925 C 2001.374,837.92925 1974.068,675.69909 1983.7054,616.26824 C 1993.3428,556.83739 2002.9803,497.40654 2051.1674,484.55663 z"
         style="color:#000000;fill:#ff0000;stroke:#ff0000;stroke-width:2;stroke-linecap:round;stroke-linejoin:miter;stroke-miterlimit:4;stroke-opacity:1;stroke-dasharray:none;stroke-dashoffset:0;marker:none;visibility:visible;display:inline;overflow:visible;enable-background:accumulate"
         id="path5825"
         inkscape:connector-curvature="0" />
      <path
         sodipodi:nodetypes="csssssccsc"
         inkscape:connector-curvature="0"
         id="path5827"
         d="M 2059.9394,312.34871 C 2059.9394,312.34871 2061.5525,338.56172 2053.0837,339.77155 C 2044.6149,340.98138 1997.0282,320.41425 1996.2216,308.31594 C 1995.4151,296.21762 2000.2544,256.69647 2014.3691,256.69647 C 2028.4838,256.69647 2046.228,265.97184 2045.4214,292.58813 C 2044.6149,319.20442 1996.6249,379.69598 1991.3823,381.30909 C 1986.1397,382.9222 2012.3527,337.75517 2023.6445,325.25358 C 2033.0716,310.88734 2033.7264,298.23401 2033.7264,298.23401 C 2033.7264,298.23401 2015.5789,271.61772 2007.1101,280.48982 C 1998.6413,289.36191 2026.0641,314.36509 2059.9394,312.34871 z"
         style="color:#000000;fill:#ff0000;stroke:#ff0000;stroke-width:2;stroke-linecap:round;stroke-linejoin:miter;stroke-miterlimit:4;stroke-opacity:1;stroke-dasharray:none;stroke-dashoffset:0;marker:none;visibility:visible;display:inline;overflow:visible;enable-background:accumulate" />
      <path
         sodipodi:nodetypes="cscccscsscc"
         inkscape:connector-curvature="0"
         id="path5831"
         d="M 1420.08,-17.996618 C 1420.08,-17.996618 1418.2747,3.6584432 1408.7927,5.8895194 C 1399.3106,8.1205956 1355.3788,-48.116146 1358.7254,-55.924913 C 1356.7491,-60.602541 1369.8808,-89.948825 1369.8808,-89.948825 C 1369.8808,-89.948825 1396.2566,-108.14466 1403.9047,-98.31536 C 1410.5979,-88.833286 1425.0999,-63.17591 1398.8848,-33.056382 C 1372.6696,-2.9368533 1264.4624,85.748425 1236.574,87.979501 C 1235.2541,71.612565 1276.09,45.307921 1281.1955,42.800209 C 1295.1866,35.928143 1379.3629,-24.132077 1393.3071,-40.307379 C 1407.2513,-56.482682 1393.3071,-79.351213 1376.0162,-78.235675 C 1358.7254,-77.120136 1403.9047,-29.151998 1420.08,-17.996618 z"
         style="color:#000000;fill:#ff0000;stroke:#ff0000;stroke-width:2;stroke-linecap:round;stroke-linejoin:miter;stroke-miterlimit:4;stroke-opacity:1;stroke-dasharray:none;stroke-dashoffset:0;marker:none;visibility:visible;display:inline;overflow:visible;enable-background:accumulate" />
      <path
         sodipodi:nodetypes="scscccscscccccccsscsccccscccsccccscscccscsc"
         inkscape:connector-curvature="0"
         id="path5839"
         d="M 2314.9062,62.25 C 2301.9762,62.531853 2287.3125,136.96875 2287.3125,136.96875 C 2287.3125,136.96875 2296.9273,284.70612 2300.5312,307.53125 C 2303.3673,325.49336 2307.6778,424.25089 2310.5625,506.625 C 2304.8064,559.24573 2286.5576,592.21436 2258.5625,619.40625 C 2209.9686,657.38061 2159.0838,702.92101 2098.0938,715.90625 C 2038.1485,727.89531 2187.8729,730.32694 2211.2188,721.90625 C 2238.2254,712.16514 2293.4562,645.05809 2313.7188,586.46875 C 2321.1741,659.406 2360.6227,700.54332 2420.6562,672.75 C 2448.4002,659.90557 2464.2873,633.86716 2473.375,608.28125 C 2477.2639,645.81794 2489.4759,687.41137 2524.9062,685.21875 C 2545.1592,674.62488 2559.3713,653.04008 2569.25,629.75 C 2570.8759,645.35514 2575.4228,662.34556 2586.2188,674.78125 C 2615.3817,707.50263 2646.93,679.83342 2663.25,645.125 C 2665.8669,639.07347 2668.0835,632.79087 2669.9688,626.46875 C 2670.857,631.47893 2671.625,635.03125 2671.625,635.03125 C 2671.625,635.03125 2701.1811,695.8125 2715.9688,695.8125 C 2730.7562,695.8125 2791.5493,644.88636 2789.9062,552.875 C 2788.2632,460.86364 2766.9062,86.25 2766.9062,86.25 C 2766.9062,86.25 2737.3305,109.23742 2735.6875,138.8125 C 2734.0444,168.38758 2763.6347,587.37216 2757.0625,610.375 C 2734.0596,628.44866 2706.1146,626.82508 2681.4688,597.25 C 2679.9,595.36751 2678.5132,593.85811 2677.25,592.71875 C 2681.0777,566.47578 2680.4062,545.625 2680.4062,545.625 C 2678.5244,535.27527 2654.439,604.94282 2633.6562,616.34375 C 2619.3456,624.19429 2594.2983,607.76014 2580.4062,597.0625 C 2584.5001,582.04233 2587.0783,568.15171 2588.6329,558.01613 C 2591.3672,548.0004 2591.9551,532.8246 2584.4881,547.51162 C 2581.2285,554.19801 2578.1208,567.18982 2572.1113,576.78614 C 2560.8593,594.75392 2545.7109,613.3711 2530.125,615.96875 C 2487.2309,614.1751 2491.6661,577.40241 2484.6875,555.21875 C 2485.5213,546.25203 2485.5312,540.59375 2485.5312,540.59375 C 2474.5152,547.16596 2464.7954,582.93237 2435.0938,599.46875 C 2377.4303,635.50843 2344.9717,593.46696 2336.5625,561.03125 C 2328.1532,528.59553 2329.3708,67.27404 2316.1562,62.46875 C 2315.7433,62.318585 2315.3233,62.240908 2314.9062,62.25 z M 2058.75,138.8125 C 2045.8512,182.53529 2053.3074,241.19582 2063.375,250.84375 C 2063.375,250.84375 2066.6372,224.17514 2070.25,202.90625 C 2063.6778,188.11871 2152.3966,304.77841 2158.9688,327.78125 C 2165.5411,350.78409 2275.6431,569.30479 2274,595.59375 C 2274,595.59375 2276.4375,549.24797 2276.4375,529.53125 C 2276.4375,509.81453 2160.6197,155.2431 2058.75,138.8125 z"
         style="color:#000000;fill:#ff0000;stroke:#ff0000;stroke-width:2;stroke-linecap:round;stroke-linejoin:miter;stroke-miterlimit:4;stroke-opacity:1;stroke-dasharray:none;stroke-dashoffset:0;marker:none;visibility:visible;display:inline;overflow:visible;enable-background:accumulate" />
      <path
         id="path5868"
         d="M 1903.7812,197.0625 C 1903.4866,198.06573 1903.797,198.31533 1904.9375,197.6875 C 1904.5145,197.49249 1904.1523,197.29064 1903.7812,197.0625 z"
         style="color:#000000;fill:#0000ff;stroke:#ff0000;stroke-width:2;stroke-linecap:round;stroke-linejoin:miter;stroke-miterlimit:4;stroke-opacity:1;stroke-dasharray:none;stroke-dashoffset:0;marker:none;visibility:visible;display:inline;overflow:visible;enable-background:accumulate"
         inkscape:connector-curvature="0" />
      <path
         sodipodi:nodetypes="cccccscccscccccccscsccccsccscssssccsccscccscccscsccc"
         inkscape:connector-curvature="0"
         d="M 1358.4062,506.78125 C 1401.3197,529.92171 1403.2179,562.50321 1397.5938,554.46875 C 1380.5286,541.42712 1361.5574,532.21343 1342.8438,522.46875 C 1348.0416,517.87534 1353.2546,512.53579 1358.4062,506.78125 z M 1887.0938,-34.875 C 1535.8578,-20.506258 1342.6694,81.676393 1317.125,88.0625 C 1291.5806,94.448607 1294.9549,227.13055 1302.9375,223.9375 C 1317.5452,248.21872 1328.0795,272.20789 1336.7814,288.66905 C 1365.5017,342.91226 1400.5436,405.09219 1372.4375,444.0625 C 1346.015,431.35171 1319.2295,427.40625 1305.6562,427.40625 C 1277.7662,427.40625 1237.5,465.65625 1237.5,465.65625 L 1206.5,563.78125 C 1208.9992,641.23409 1221.9309,716.14322 1224.3125,790.59375 C 1226.8149,813.30832 1232.4736,836.58221 1234.375,859.1875 C 1271.4441,804.44063 1233.7188,522.03125 1233.7188,522.03125 C 1233.7188,522.03125 1240.0183,478.67589 1310.8125,490.4375 C 1320.4525,492.34308 1329.1145,494.71216 1336.875,497.40625 C 1317.9219,528.92734 1305.4132,557.60524 1312.9062,569.96875 C 1333.5654,604.05642 1408.9688,636.09375 1408.9688,636.09375 C 1408.9688,636.09375 1460.5983,594.74981 1438.9062,519.34375 C 1430.8679,491.40102 1414.3174,471.55264 1395.25,457.625 C 1407.5935,438.73582 1417.9242,420.73643 1424.5938,408.59375 C 1463.6319,500.63434 1485.0511,626.00495 1543.8438,614.90625 C 1578.3082,601.74711 1596.7102,578.07773 1606.375,554.1875 C 1608.2645,578.53868 1630.5399,617.68575 1660.0625,611.78125 C 1681.2725,607.53925 1695.8082,570.07165 1704.2188,539.875 C 1706.2541,573.92142 1721.9038,601.26882 1749.5546,617.48047 C 1775.7211,632.4945 1804.0372,632.47095 1828.5,630.34375 C 1865.6186,627.11604 1972.1361,585.14291 1973.75,578.6875 C 1975.3638,572.23209 1993.9097,518.98109 1989.875,511.71875 C 1985.8404,504.45641 1956.8119,544.8125 1897.9062,544.8125 C 1839.0005,544.8125 1813.9721,517.35728 1809.9375,501.21875 C 1805.9029,485.08021 1829.2966,450.40963 1863.1875,446.375 C 1897.0785,442.34036 1974.5625,473 1974.5625,473 L 1985.0312,455.25 C 1985.0312,455.25 1918.8678,391.47871 1845.4375,401.96875 C 1772.0071,412.4588 1776.8559,543.18173 1792.1875,564.96875 C 1788.9598,564.16182 1723.6048,552.86463 1725.2188,460.875 C 1721.991,349.51912 1702.6207,138.11385 1692.9375,136.5 C 1683.2544,134.88614 1678.4183,186.52735 1666.3125,194.59375 C 1675.1837,214.54287 1681.3223,392.79862 1699.0625,507.75 C 1699.2455,508.93547 1699.4123,509.95619 1699.5938,511.125 C 1691.8109,528.05231 1680.3188,544.775 1668.4688,546.75 C 1646.8003,550.36143 1616.7188,515.46875 1616.7188,515.46875 C 1616.7188,515.46875 1617.35,495.11739 1615.3438,479.6875 C 1612.1507,498.84582 1541.058,562.67069 1529.4688,549.46875 C 1515.1,549.46875 1466.5932,446.64541 1432.0938,361.0625 C 1397.5944,275.4796 1331.2277,177.0395 1318.7188,155.125 C 1353.8424,107.2292 1703.8717,41.235971 1767.3438,30.59375 C 1804.7088,24.328831 1847.9851,23.889057 1880.3438,33.40625 C 1976.2504,85.394226 1877.8836,181.1379 1903.7812,197.0625 C 1907.9326,182.92602 2039.8951,16.382896 1887.0938,-34.875 z"
         style="color:#000000;fill:#ff0000;stroke:#ff0000;stroke-width:2;stroke-linecap:round;stroke-linejoin:miter;stroke-miterlimit:4;stroke-opacity:1;stroke-dasharray:none;stroke-dashoffset:0;marker:none;visibility:visible;display:inline;overflow:visible;enable-background:accumulate"
         id="path5853" />
    </g>
  </g>
</svg>
