<?xml version="1.0" encoding="UTF-8" standalone="no"?>
<!-- Created with Inkscape (http://www.inkscape.org/) -->

<svg>
  <g
     inkscape:label="Layer 1"
     inkscape:groupmode="layer"
     id="layer1">
    <g
       id="g4115"
       transform="translate(-4.4789302e-5,-4.587981)">
      <path
         id="path3122-7"
         d="m 506.902,136.51336 c 0,1.8748 -4.60662,5.19589 -13.92709,10.0704 -8.83837,4.49954 -14.03427,6.80288 -15.53414,6.80288 2.41044,-5.3566 10.55251,-10.8739 24.42602,-16.60546 2.67831,-1.07132 4.23172,-1.66054 4.60674,-1.66054 l 0.16064,0.10713 c 0.21433,0.48209 0.26783,0.91062 0.26783,1.28558 z"
         style="fill:#ff00ff;fill-opacity:1;stroke:none"
         inkscape:connector-curvature="0" />
      <path
         inkscape:connector-curvature="0"
         style="fill:#ff00ff;fill-opacity:1;stroke:none"
         d="m 430.00366,136.51336 c 0,1.8748 -4.60663,5.19589 -13.92709,10.0704 -8.83838,4.49954 -14.03428,6.80288 -15.53415,6.80288 2.41044,-5.3566 10.55251,-10.8739 24.42603,-16.60546 2.6783,-1.07132 4.23172,-1.66054 4.60673,-1.66054 l 0.16065,0.10713 c 0.21432,0.48209 0.26783,0.91062 0.26783,1.28558 z"
         id="path3415" />
      <path
         id="path3420"
         d="m 328.47133,136.51336 c 0,1.8748 -4.60662,5.19589 -13.92709,10.0704 -8.83838,4.49954 -14.03427,6.80288 -15.53414,6.80288 2.41044,-5.3566 10.5525,-10.8739 24.42602,-16.60546 2.67831,-1.07132 4.23172,-1.66054 4.60673,-1.66054 l 0.16065,0.10713 c 0.21433,0.48209 0.26783,0.91062 0.26783,1.28558 z"
         style="fill:#ff00ff;fill-opacity:1;stroke:none"
         inkscape:connector-curvature="0" />
      <path
         inkscape:connector-curvature="0"
         style="fill:#ff00ff;fill-opacity:1;stroke:none"
         d="m 214.60714,136.51336 c 0,1.8748 -4.60663,5.19589 -13.92709,10.0704 -8.83838,4.49954 -14.03428,6.80288 -15.53415,6.80288 2.41044,-5.3566 10.55251,-10.8739 24.42603,-16.60546 2.67831,-1.07132 4.23172,-1.66054 4.60673,-1.66054 l 0.16065,0.10713 c 0.21433,0.48209 0.26783,0.91062 0.26783,1.28558 z"
         id="path3422" />
      <path
         id="path3424"
         d="m 48.538064,136.51336 c 0,1.8748 -4.606624,5.19589 -13.927091,10.0704 -8.838378,4.49954 -14.034272,6.80288 -15.534146,6.80288 2.410441,-5.3566 10.552509,-10.8739 24.426027,-16.60546 2.678307,-1.07132 4.231718,-1.66054 4.606731,-1.66054 l 0.160649,0.10713 c 0.214328,0.48209 0.26783,0.91062 0.26783,1.28558 z"
         style="fill:#ff00ff;fill-opacity:1;stroke:none"
         inkscape:connector-curvature="0" />
      <path
         inkscape:connector-curvature="0"
         style="fill:#ff00ff;stroke:none"
         d="m 407.52724,69.741104 c 0,0 4.01934,-1.313153 5.61322,-0.950432 0.84005,0.191351 1.70952,1.704256 2.25517,2.862855 0.9904,2.103773 1.94501,4.81313 2.30773,6.964215 0.12093,0.715975 0.25128,1.37623 0.9883,1.628555 0.46363,0.157705 1.17015,0.168221 1.17015,0.168221 0,0 0.002,-0.01161 0.006,-0.03255 0.35116,-1.982869 1.13549,-5.307268 1.33525,-7.312215 0.21026,-2.105878 0.16296,-2.836571 1.95553,-2.703045 2.71038,0.200807 3.63033,0.679175 4.82152,-1.483472 1.06817,-1.939762 2.23835,-5.898136 0.37427,-7.181846 -5.76773,-1.553911 -7.92094,6.034812 -8.28259,7.771658 -0.5099,2.452825 -0.72335,5.082275 -0.72335,5.082275 0,0 -1.41302,-4.540824 -2.45281,-6.994701 -1.16912,-2.75877 -4.18655,-6.475328 -7.44154,-5.545924 -1.61702,0.460492 -2.18471,1.783103 -2.18368,3.533622 10e-4,1.611736 0.25653,4.192824 0.25653,4.192824 z"
         id="path3388" />
      <path
         inkscape:connector-curvature="0"
         style="fill:#ff00ff;stroke:none"
         d="m 438.33284,47.439944 c 0,0 4.01934,-1.313154 5.61321,-0.950433 0.84006,0.191351 1.70953,1.704256 2.25518,2.862855 0.9904,2.103774 1.94501,4.81313 2.30773,6.964216 0.12093,0.715975 0.25128,1.37623 0.9883,1.628555 0.46363,0.157705 1.17014,0.168221 1.17014,0.168221 0,0 0.002,-0.01161 0.006,-0.03255 0.35117,-1.982868 1.13549,-5.307268 1.33526,-7.312214 0.21025,-2.105878 0.16295,-2.836572 1.95553,-2.703046 2.71037,0.200807 3.63033,0.679175 4.82152,-1.483472 1.06817,-1.939762 2.23834,-5.898137 0.37427,-7.181846 -5.76774,-1.553911 -7.92094,6.034812 -8.2826,7.771658 -0.5099,2.452825 -0.72334,5.082275 -0.72334,5.082275 0,0 -1.41303,-4.540824 -2.45282,-6.994701 -1.16915,-2.758772 -4.18658,-6.47533 -7.44158,-5.545927 -1.61701,0.460493 -2.1847,1.783103 -2.18367,3.533623 0.001,1.611736 0.25653,4.192824 0.25653,4.192824 z"
         id="path3388-4" />
      <path
         id="path3429"
         d="m 366.00997,49.599063 c 0,0 4.01934,-1.313153 5.61322,-0.950432 0.84006,0.191351 1.70952,1.704256 2.25518,2.862855 0.99039,2.103773 1.945,4.813129 2.30772,6.964215 0.12093,0.715975 0.25128,1.37623 0.9883,1.628554 0.46363,0.157704 1.17015,0.168221 1.17015,0.168221 0,0 0.002,-0.01161 0.006,-0.03255 0.35117,-1.982867 1.13549,-5.307267 1.33525,-7.312213 0.21026,-2.105878 0.16296,-2.836571 1.95553,-2.703046 2.71038,0.200808 3.63033,0.679176 4.82152,-1.483471 1.06817,-1.939762 2.23835,-5.898137 0.37427,-7.181846 -5.76773,-1.553911 -7.92093,6.034812 -8.28259,7.771658 -0.5099,2.452825 -0.72334,5.082275 -0.72334,5.082275 0,0 -1.41303,-4.540824 -2.45282,-6.994701 -1.16912,-2.75877 -4.18654,-6.475328 -7.44154,-5.545924 -1.61701,0.460492 -2.18471,1.783102 -2.18368,3.533622 0.001,1.611736 0.25653,4.192824 0.25653,4.192824 z"
         style="fill:#ff00ff;stroke:none"
         inkscape:connector-curvature="0" />
      <path
         id="path3429-0"
         d="m 228.39994,56.544961 c 0,0 4.01934,-1.313154 5.61322,-0.950433 0.84005,0.191351 1.70952,1.704256 2.25517,2.862855 0.9904,2.103775 1.94501,4.813131 2.30773,6.964217 0.12093,0.715975 0.25128,1.37623 0.9883,1.628555 0.46363,0.157701 1.17014,0.168217 1.17014,0.168217 0,0 0.002,-0.01161 0.006,-0.03255 0.35116,-1.982868 1.13549,-5.307268 1.33525,-7.312215 0.21026,-2.105878 0.16295,-2.836572 1.95553,-2.703046 2.71037,0.200807 3.63033,0.679175 4.82152,-1.483472 1.06817,-1.939762 2.23835,-5.898136 0.37427,-7.181846 -5.76773,-1.553911 -7.92094,6.034812 -8.28259,7.771658 -0.5099,2.452825 -0.72335,5.082276 -0.72335,5.082276 0,0 -1.41303,-4.540825 -2.45281,-6.994702 -1.16912,-2.758771 -4.18655,-6.475328 -7.44155,-5.545925 -1.61701,0.460492 -2.1847,1.783103 -2.18367,3.533622 0.001,1.611737 0.25653,4.192826 0.25653,4.192826 z"
         style="fill:#ff00ff;stroke:none;display:inline"
         inkscape:connector-curvature="0" />
      <path
         id="path3429-9"
         d="m 28.212728,90.663112 c 0,0 4.019339,-1.313153 5.613213,-0.950432 0.840058,0.191351 1.709525,1.704256 2.255178,2.862855 0.990396,2.103773 1.945006,4.813129 2.307724,6.964215 0.120929,0.71598 0.251284,1.37623 0.988305,1.62856 0.463628,0.1577 1.170143,0.16822 1.170143,0.16822 0,0 0.0018,-0.0116 0.0059,-0.0326 0.351167,-1.98286 1.13549,-5.307264 1.335256,-7.31221 0.210289,-2.105878 0.162952,-2.836571 1.955529,-2.703046 2.710373,0.200808 3.630366,0.679176 4.821555,-1.483471 1.068134,-1.939762 2.238348,-5.898137 0.374269,-7.181846 -5.767768,-1.553911 -7.920972,6.034812 -8.282627,7.771658 -0.509902,2.452828 -0.723345,5.082275 -0.723345,5.082275 0,0 -1.413029,-4.540824 -2.452818,-6.994701 -1.169115,-2.75877 -4.186542,-6.475328 -7.441541,-5.545924 -1.617011,0.460492 -2.184703,1.783102 -2.183676,3.533622 0.0011,1.611736 0.256528,4.192824 0.256528,4.192824 z"
         style="fill:#ff00ff;stroke:none;display:inline"
         inkscape:connector-curvature="0" />
      <path
         id="path3429-4"
         d="m 34.37861,39.280353 c 0,0 4.019339,-1.313153 5.613213,-0.950432 0.840058,0.191351 1.709525,1.704256 2.255178,2.862855 0.990396,2.103774 1.945006,4.813129 2.307724,6.964216 0.120929,0.715975 0.251284,1.37623 0.988305,1.628554 0.463628,0.157704 1.170143,0.16822 1.170143,0.16822 0,0 0.0018,-0.01161 0.0059,-0.03255 0.351167,-1.982867 1.13549,-5.307267 1.335256,-7.312214 0.210254,-2.105878 0.162952,-2.836571 1.955529,-2.703045 2.710373,0.200807 3.630331,0.679175 4.82152,-1.483472 1.06817,-1.939762 2.238348,-5.898137 0.374269,-7.181847 -5.767732,-1.55391 -7.920937,6.034813 -8.282592,7.771659 -0.509902,2.452825 -0.723345,5.082274 -0.723345,5.082274 0,0 -1.413029,-4.540823 -2.452817,-6.9947 -1.169151,-2.758771 -4.186578,-6.475329 -7.441577,-5.545926 -1.617012,0.460493 -2.184703,1.783103 -2.183676,3.533623 0.0011,1.611736 0.256528,4.192824 0.256528,4.192824 z"
         style="fill:#ff00ff;stroke:none;display:inline"
         inkscape:connector-curvature="0" />
      <path
         inkscape:connector-curvature="0"
         d="m 96.275957,61.00218 c 0.203734,2.799854 1.509936,4.542263 3.887283,5.044731 3.06611,0.648722 4.79977,-1.01495 5.58597,-4.37852 0.17248,-0.737461 0.13375,-1.35243 -0.34121,-1.649908 -0.90373,-0.56372 -3.38483,0.0225 -4.58353,-0.614969 -1.492429,-0.792459 -1.872402,-4.162279 -1.502421,-5.737199 0.368741,-1.57616 1.311201,-3.264831 1.567411,-4.479761 0.0512,-0.246239 0.075,-0.47248 -0.0312,-0.59872 -0.0138,-0.0163 -0.0275,-0.0312 -0.0412,-0.045 -3.608542,-0.823701 -4.486016,13.215557 -4.541007,12.459345 z"
         style="fill:#ff00ff;stroke:none"
         id="path3475" />
      <path
         inkscape:connector-curvature="0"
         d="m 414.15569,46.130463 c 0.26376,-0.25249 0.64249,-0.44498 1.12996,-0.56372 1.58116,-0.38373 4.30475,0 4.30475,0 0,0 0.93246,-3.69606 0.58749,-5.47721 -0.385,-1.988651 -3.94606,-2.132391 -5.86594,-0.68122 -2.45612,1.85616 -3.75481,9.92573 -2.93236,12.4231 0.22751,0.691211 0.57623,1.31743 1.03997,1.818651 0.16872,0.18249 0.35247,0.34873 0.5437,0.52122 l 1.34744,1.211191 0.72246,1.96365 c 0.30125,0.816198 0.49371,1.51867 0.49371,1.51867 0,0 5.48598,-3.464821 7.28961,-5.672201 0.79871,-0.977449 0.87496,-1.70866 1.17369,-2.933602 0.53874,-2.216129 1.34996,-4.298519 0.87999,-4.692249 -0.39124,-0.32623 -1.52244,-0.17249 -2.41491,0.32748 -1.31991,0.73871 -2.11738,2.23613 -4.22477,2.60611 -0.58746,0.1025 -1.27743,0.11875 -1.87613,0.1025 -4.60478,-0.70996 -0.9837,-3.63606 -2.19866,-2.47237 z"
         style="fill:#ff00ff;stroke:none"
         id="path3357" />
      <path
         inkscape:connector-curvature="0"
         d="m 161.6348,122.66149 c 0.20374,2.79985 1.50994,4.54226 3.88728,5.04473 3.06612,0.64872 4.79977,-1.01495 5.58597,-4.37852 0.17248,-0.73746 0.13376,-1.35243 -0.34121,-1.64991 -0.90373,-0.56372 -3.38482,0.0225 -4.58352,-0.61497 -1.49244,-0.79246 -1.87241,-4.16228 -1.50243,-5.73719 0.36874,-1.57617 1.3112,-3.26483 1.56741,-4.47976 0.0512,-0.24625 0.075,-0.47249 -0.0312,-0.59872 -0.0138,-0.0163 -0.0275,-0.0312 -0.0412,-0.045 -3.60854,-0.82369 -4.48601,13.21556 -4.541,12.45935 z"
         style="fill:#ff00ff;stroke:none;display:inline"
         id="path3475-8" />
      <path
         inkscape:connector-curvature="0"
         d="m 266.0446,109.09645 c 0.20373,2.79985 1.50993,4.54226 3.88728,5.04473 3.06611,0.64872 4.79976,-1.01495 5.58597,-4.37852 0.17248,-0.73747 0.13375,-1.35243 -0.34122,-1.64991 -0.90372,-0.56372 -3.38482,0.0225 -4.58352,-0.61497 -1.49243,-0.79246 -1.8724,-4.16228 -1.50242,-5.7372 0.36874,-1.57616 1.3112,-3.264831 1.5674,-4.479764 0.0512,-0.246238 0.075,-0.472479 -0.0312,-0.598719 -0.0138,-0.0163 -0.0275,-0.0312 -0.0412,-0.045 -3.60854,-0.823699 -4.48602,13.215563 -4.54101,12.459353 z"
         style="fill:#ff00ff;stroke:none;display:inline"
         id="path3475-82" />
      <path
         inkscape:connector-curvature="0"
         d="m 247.74342,91.387432 c 4.22524,-2.2 8.35147,-4 9.16942,-4 1.10477,0 1.19689,-0.29032 0.35815,-1.129049 -1.1564,-1.156392 -33.27096,-2.686492 -33.27096,-1.585201 0,0.313202 2.6434,2.175229 5.87427,4.137859 3.2308,1.962633 6.43591,4.245211 7.12244,5.072403 1.7349,2.09043 2.10187,2.005188 10.74668,-2.496012 z M 147.03404,151.63589 c -5.41408,-2.7312 -7.54433,-7.35964 -7.47828,-16.24845 0.0943,-12.69564 5.01962,-20.57927 18.23683,-29.19062 4.21875,-2.74863 6.63964,-3.7772 7.31069,-3.10613 0.67108,0.67106 -1.55306,2.95595 -6.71657,6.90002 -6.6609,5.08781 -8.12651,6.78839 -10.68375,12.39673 -3.47184,7.61413 -3.79466,13.05077 -0.99936,16.82887 6.72025,9.08295 13.50694,6.47418 51.79642,-19.91024 10.45001,-7.20085 21.4036,-14.4695 24.34131,-16.15255 l 5.34131,-3.06007 -5.74091,-5.134626 c -5.466,-4.88872 -5.76299,-5.40084 -6.20192,-10.693432 -0.42936,-5.177669 -0.26482,-5.713359 2.39964,-7.812979 2.80366,-2.209332 3.26842,-2.245232 23.36058,-1.804812 17.33526,0.379991 35.43412,2.201792 42.71377,4.299492 2.85458,0.82258 -3.18994,11.44034 -6.51283,11.44034 -1.54399,0 -20.51458,6.807879 -28.45093,10.210047 l -4.75001,2.03624 0,6.31784 c 0,3.47482 -0.38377,6.55504 -0.85285,6.84494 -1.71119,1.05758 -9.63741,-3.84056 -9.96668,-6.15906 -0.17578,-1.23751 -0.94221,-2.25001 -1.70318,-2.25001 -1.61312,0 -17.60012,10.64559 -35.61738,23.71727 -20.82772,15.1107 -34.76807,22.2855 -43.29142,22.28119 -1.68766,-8.5e-4 -4.62817,-0.78836 -6.53448,-1.75 z"
         style="fill:#0000ff"
         id="path3255" />
      <path
         inkscape:connector-curvature="0"
         d="m 450.27556,72.055472 -6.10093,6.060928 c -1.01371,1.00745 -1.1587,1.188692 -1.44244,1.80866 -0.39748,0.868701 -0.53499,2.321131 -0.33873,2.518622 0.63122,0.637461 2.8661,-0.909962 3.64355,-1.483681 6.81088,-5.023479 9.91324,-8.187059 11.01443,-14.69047 0.55997,-3.306078 -1.18995,-4.58601 -4.28851,-5.00724 -4.91351,-0.66996 -9.78952,0.015 -11.69941,3.714811 0.29876,14.125499 0.71746,6.047181 4.88476,5.04473 4.636,-1.114939 9.62072,-3.593559 4.32728,2.03364 z"
         style="fill:#0000ff;stroke:none"
         id="path3316" />
      <path
         inkscape:connector-curvature="0"
         id="path3253"
         d="m 271.78597,152.01284 c -1.30383,-0.98381 -1.57074,-2.17655 -1.11523,-4.98366 0.32938,-2.02967 0.9882,-3.93094 1.46409,-4.22504 1.77263,-1.09555 0.87666,-3.23245 -1.13478,-2.70645 -1.28292,0.33549 -1.99451,0.033 -1.98469,-0.84362 0.0435,-3.88421 5.11575,-5.96299 8.05636,-3.30178 2.5421,2.30058 2.43322,3.68165 -0.57166,7.25278 -4.90543,5.82972 -2.68185,6.79093 4.72075,2.0407 3.49352,-2.24178 5.20401,-2.83356 5.97153,-2.06601 0.76757,0.76755 0.10637,1.97774 -2.30832,4.22496 -5.01207,4.66449 -10.4758,6.58672 -13.09805,4.60812 z"
         style="fill:#ff00ff" />
      <path
         d="m 180.84484,8.9929822 c -0.93292,2.1488828 -3.0946,3.9308748 -6.39771,5.2728108 -3.30312,1.341947 -6.05246,1.536307 -8.29478,0.562791 -1.26131,-0.547603 -2.42734,-1.442487 -3.49813,-2.684666 -1.11753,-1.262456 -1.90983,-1.995082 -2.4237,-2.2181847 -0.654,-0.283947 -1.61839,0.019123 -2.86673,0.9761997 -1.27474,0.890087 -2.2594,1.239871 -2.9804,0.982361 0.95138,-1.807754 2.55681,-3.3315526 4.84267,-4.5044318 2.23916,-1.1931414 4.27976,-1.4175916 6.10168,-0.6266098 0.93431,0.4056362 1.86061,1.0853986 2.8521,2.126589 1.85742,-1.0812686 3.73514,-2.2092526 5.6129,-3.3372256 2.40569,-1.0653196 4.42609,-1.2430421 6.1078,-0.5129013 0.65404,0.2839476 1.0259,0.834037 1.16239,1.6705805 0.13652,0.8365435 0.0861,1.5919636 -0.21809,2.2926872 z m -4.88593,-0.5111821 c -0.86114,-0.3183557 -1.95153,-0.2365485 -3.27119,0.2453962 -1.3461,0.4149527 -2.29203,1.0591569 -2.91092,1.8453417 0.11986,0.107557 0.23973,0.215115 0.37986,0.275961 1.26131,0.547608 2.18329,0.725815 2.76601,0.534632 1.41306,-0.441393 2.38723,-1.406456 3.03624,-2.9013309 z"
         style="fill:#0000ff;fill-opacity:1;stroke:none"
         id="path3088-4"
         inkscape:connector-curvature="0" />
      <path
         inkscape:connector-curvature="0"
         id="path3536"
         style="fill:#0000ff;fill-opacity:1;stroke:none"
         d="m 328.07729,8.9929822 c -0.93292,2.1488828 -3.09459,3.9308748 -6.39771,5.2728108 -3.30312,1.341947 -6.05246,1.536307 -8.29478,0.562791 -1.26131,-0.547603 -2.42734,-1.442487 -3.49813,-2.684666 -1.11753,-1.262456 -1.90983,-1.995082 -2.4237,-2.2181847 -0.654,-0.283947 -1.61839,0.019123 -2.86673,0.9761997 -1.27474,0.890087 -2.2594,1.239871 -2.9804,0.982361 0.95138,-1.807754 2.55681,-3.3315526 4.84267,-4.5044318 2.23916,-1.1931414 4.27977,-1.4175916 6.10168,-0.6266098 0.93431,0.4056362 1.86061,1.0853986 2.8521,2.126589 1.85742,-1.0812686 3.73514,-2.2092526 5.6129,-3.3372256 2.40569,-1.0653196 4.42609,-1.2430421 6.1078,-0.5129013 0.65404,0.2839476 1.0259,0.834037 1.16239,1.6705805 0.13652,0.8365435 0.0861,1.5919636 -0.21809,2.2926872 z m -4.88593,-0.5111821 c -0.86114,-0.3183557 -1.95153,-0.2365485 -3.27119,0.2453962 -1.3461,0.4149527 -2.29203,1.0591569 -2.91092,1.8453417 0.11986,0.107557 0.23973,0.215115 0.37987,0.275961 1.2613,0.547608 2.18328,0.725815 2.766,0.534632 1.41306,-0.441393 2.38723,-1.406456 3.03624,-2.9013309 z" />
      <path
         d="m 400.65081,8.9929823 c -0.93293,2.1488827 -3.0946,3.9308747 -6.39772,5.2728107 -3.30311,1.341948 -6.05246,1.536307 -8.29478,0.562791 -1.26131,-0.547603 -2.42734,-1.442487 -3.49813,-2.684666 -1.11753,-1.262456 -1.90982,-1.995082 -2.42369,-2.2181847 -0.65401,-0.2839469 -1.6184,0.019123 -2.86674,0.9761997 -1.27474,0.890087 -2.25939,1.239871 -2.9804,0.982361 0.95139,-1.807754 2.55681,-3.3315525 4.84267,-4.5044318 2.23917,-1.1931413 4.27977,-1.4175915 6.10168,-0.6266097 0.93431,0.4056361 1.86061,1.0853986 2.85211,2.126589 1.85741,-1.0812687 3.73513,-2.2092527 5.61289,-3.3372257 2.40569,-1.0653196 4.4261,-1.2430421 6.10781,-0.5129013 0.65404,0.2839477 1.0259,0.834037 1.16238,1.6705805 0.13652,0.8365435 0.0861,1.5919636 -0.21808,2.2926873 z m -4.88594,-0.5111821 c -0.86114,-0.3183558 -1.95152,-0.2365485 -3.27119,0.2453962 -1.3461,0.4149526 -2.29203,1.0591569 -2.91092,1.8453416 0.11987,0.107557 0.23974,0.215115 0.37987,0.275961 1.26131,0.547608 2.18329,0.725815 2.766,0.534632 1.41307,-0.441393 2.38723,-1.406456 3.03624,-2.9013308 z"
         style="fill:#0000ff;fill-opacity:1;stroke:none"
         id="path3538"
         inkscape:connector-curvature="0" />
      <path
         inkscape:connector-curvature="0"
         id="path3217"
         d="M 25.53676,71.137431 C 27.154125,65.718262 28.762066,64.7904 54.144616,54.62941 107.08159,33.437999 133.9075,25.192618 136.463,29.327509 c 0.40552,0.656139 0.56167,1.36864 0.34695,1.583329 -0.21468,0.214691 -11.39724,4.172971 -24.85011,8.796191 -20.880911,7.175911 -57.624954,21.416251 -71.540388,27.725803 -5.011329,2.272249 -14.302139,5.9546 -15.023818,5.9546 -0.291712,0 -0.228182,-1.012502 0.141126,-2.250001 z"
         style="fill:#000000" />
      <path
         inkscape:connector-curvature="0"
         id="path3271"
         d="m 221.19813,156.57275 c -4.35385,-2.1457 -6.55081,-6.50558 -5.95258,-11.81294 0.4474,-3.96958 10.47329,-23.49855 14.76226,-28.75481 1.77394,-2.17402 1.87198,-2.1865 2.59377,-0.33004 0.49442,1.27168 -0.0246,3.31703 -1.52241,6 -7.52488,13.47872 -8.50677,15.87996 -8.5427,20.89105 -0.0313,4.37177 0.29809,5.25762 2.33841,6.28853 3.83803,1.93924 6.91024,0.13119 20.73901,-12.20533 13.88081,-12.38295 22.94695,-17.87854 31.32871,-18.99042 5.6399,-0.74816 13.65203,-4.90195 16.22805,-8.41323 1.67547,-2.28376 1.74581,-3.45147 0.81295,-13.500003 -0.56167,-6.050001 -2.6045,-19.71757 -4.53966,-30.372393 -3.66852,-20.198429 -5.70863,-37.27416 -4.75132,-39.76889 0.92732,-2.41652 3.7025,-1.07851 5.47832,2.64128 0.94359,1.97653 2.58537,10.899711 3.77174,20.500001 1.15547,9.350001 3.21177,24.425001 4.56956,33.500002 2.8087,18.772133 2.95099,21.721963 1.31177,27.193163 -2.67746,8.93667 -11.13572,15.0526 -25.38914,18.35819 -10.92894,2.53459 -16.92854,6.25655 -27.43485,17.01973 -12.5535,12.86044 -18.27315,15.46648 -25.80189,11.75611 z"
         style="fill:#ff0000" />
      <path
         style="fill:#ff00ff"
         d="m 109.95538,116.97735 c -1.30383,-0.98381 -1.57074,-2.17655 -1.11523,-4.98366 0.32938,-2.02967 0.9882,-3.93094 1.46409,-4.22504 1.77263,-1.09555 0.87666,-3.23245 -1.13478,-2.70645 -1.28292,0.33549 -1.9945,0.033 -1.98469,-0.84362 0.0435,-3.88421 5.11575,-5.96299 8.05636,-3.30178 2.5421,2.30058 2.43322,3.68165 -0.57166,7.25278 -4.90542,5.82972 -2.68185,6.79093 4.72075,2.0407 3.49353,-2.24178 5.20401,-2.83356 5.97154,-2.06601 0.76756,0.76755 0.10636,1.97774 -2.30833,4.22496 -5.01207,4.66449 -10.4758,6.58672 -13.09805,4.60812 z"
         id="path3542"
         inkscape:connector-curvature="0" />
      <path
         inkscape:connector-curvature="0"
         style="fill:#800080;stroke:none"
         d="m 198.95302,104.00717 7.32749,-7.327504 -7.32749,-7.328751 -7.32876,7.328751 7.32876,7.327504 z"
         id="path3577" />
      <path
         inkscape:connector-curvature="0"
         style="fill:#800080;stroke:none;display:inline"
         d="m 490.65518,131.1885 7.32748,-7.3275 -7.32748,-7.32875 -7.32876,7.32875 7.32876,7.3275 z"
         id="path3577-5" />
      <path
         inkscape:connector-curvature="0"
         id="path3267"
         d="m 360.29826,153.13744 c -4.28791,-3.04003 -5.98465,-8.96681 -4.38535,-15.31829 1.62233,-6.44279 4.58632,-12.39653 7.96154,-15.99227 2.87014,-3.05764 2.8712,-3.06382 1.12086,-6.44858 l -1.75201,-3.38803 -2.03401,3.94859 c -1.1187,2.17171 -3.63398,5.48536 -5.58951,7.36365 -2.93767,2.82159 -4.47347,3.48396 -8.83763,3.81152 -9.49037,0.71232 -15.24825,-4.42331 -16.4635,-14.68437 -0.73872,-6.23729 -1.62718,-5.53794 -3.28813,2.58829 -0.68918,3.37179 -2.22669,7.87178 -3.41667,9.99999 -1.8205,3.25582 -2.74772,3.91832 -5.84639,4.17733 -4.94238,0.41315 -7.34085,-1.05815 -9.92986,-6.09127 -3.33327,-6.48003 -2.9949,-22.71657 0.47347,-22.71657 0.80569,0 1.86692,3.14636 2.89126,8.57214 1.71976,9.10948 3.85142,12.7071 7.2417,12.22189 2.50005,-0.35781 3.86688,-4.17422 6.09272,-17.01191 1.81001,-10.439346 3.76596,-15.338557 6.76447,-16.943306 3.62356,-1.939273 4.69882,1.199757 4.69882,13.717466 0,9.79024 0.25667,11.5003 2.07259,13.80886 4.02087,5.11172 14.98407,2.68916 19.75432,-4.36513 2.04021,-3.01704 2.28689,-4.29011 1.78779,-9.22596 -0.31846,-3.149276 -1.71204,-8.514358 -3.09683,-11.922406 -1.38482,-3.408051 -2.51787,-6.724131 -2.51787,-7.369061 0,-1.825359 3.92594,-4.970381 4.87952,-3.90895 1.43588,1.598207 4.98646,11.5802 7.26566,20.42637 3.48449,13.524317 10.522,18.631007 17.45591,12.666707 l 2.71264,-2.3333 -4.24111,-10.416708 c -2.33256,-5.729178 -5.08219,-11.785908 -6.11025,-13.459388 -1.6426,-2.67375 -1.71548,-3.489952 -0.60114,-6.731331 0.69744,-2.028753 1.54806,-3.9686 1.89026,-4.310792 0.66081,-0.660818 6.94181,11.136663 12.55658,23.584814 2.56028,5.676275 3.26216,8.405035 2.88633,11.221895 -0.71679,5.37261 -4.2893,10.53078 -8.93507,12.90089 -3.84151,1.95978 -5.47815,2.04846 -13.24662,0.71765 -1.49474,-0.25606 -3.04383,1.23112 -6.25,6.00027 -5.089,7.56978 -5.59018,11.92275 -1.80817,15.70475 4.68015,4.68013 8.69729,3.26107 23.91903,-8.44944 5.43049,-4.17782 11.37801,-8.60559 13.21672,-9.8395 l 3.34315,-2.2435 -0.50434,-7.25651 c -1.1176,-16.07975 -6.34708,-47.590829 -12.36312,-74.495921 -2.36403,-10.5723 -2.69521,-21.017781 -0.75077,-23.676961 1.18687,-1.623161 1.59008,-1.18609 4.13286,4.47998 2.21479,4.93521 2.61914,6.8304 1.88991,8.857501 -0.9821,2.72997 0.097,9.38201 5.69049,35.078892 1.6162,7.425002 3.87574,19.938383 5.02118,27.807511 1.89891,13.045018 1.95457,14.809808 0.63098,19.999998 -0.79843,3.13087 -1.13624,6.03693 -0.75074,6.45792 0.38554,0.421 2.13404,0.0505 3.88555,-0.82323 3.12411,-1.55851 3.18456,-1.7214 3.18456,-8.57737 0,-11.13966 5.72698,-20.880959 13.69802,-23.299648 1.75548,-0.532678 2.5032,-0.0767 3.71409,2.264822 3.03766,5.87423 11.39005,10.938436 16.09369,9.7579 1.39953,-0.351259 4.23399,-2.164901 6.29875,-4.030302 l 3.75417,-3.391639 1.67413,2.91702 c 2.46876,4.301569 6.96877,4.043319 11.39908,-0.654181 1.85246,-1.964157 3.36807,-3.989158 3.36807,-4.499999 0,-2.042671 2.82347,-0.768269 3.40165,1.535362 0.45991,1.832367 1.65411,2.743027 4.65757,3.551788 4.21982,1.13627 7.94078,0.58195 7.94078,-1.18293 0,-0.567721 -2.92498,-6.65184 -6.5,-13.520282 -6.49101,-12.470831 -7.8364,-17.576342 -5.3,-20.11274 0.65999,-0.66 1.6725,-1.19881 2.25001,-1.19735 1.20058,0.003 13.32379,21.245891 15.95125,27.950492 2.33391,5.955589 1.42968,10.089139 -3.29302,15.053737 -3.39828,3.57234 -4.30297,3.99312 -8.58536,3.99312 -3.12868,0 -5.9726,-0.73286 -8.21002,-2.11565 -2.97466,-1.83846 -3.57977,-1.92315 -4.61804,-0.64632 -3.76376,4.6286 -9.51268,5.94175 -14.56795,3.32758 -2.56634,-1.32709 -3.2089,-1.21492 -8.59124,1.50001 -6.39101,3.22369 -7.97663,3.45708 -11.20251,1.64895 -2.04977,-1.14891 -6.55304,-6.35818 -8.90693,-10.303377 -0.95756,-1.60484 -1.41923,-1.656709 -4.26273,-0.478888 -8.43041,3.491975 -2.12656,15.697155 10.45773,20.247675 3.76972,1.36316 4.02533,2.33695 1.92984,7.35215 -1.65021,3.9495 -1.95351,4.03331 -6.98638,1.93045 -2.52322,-1.05428 -5.31144,-1.35507 -8.87211,-0.9571 -11.27029,1.25962 -14.49882,2.89871 -28.84716,14.64538 -15.74734,12.892 -23.5127,15.58639 -30.54716,10.59915 z"
         style="fill:#ff00ff" />
      <path
         inkscape:connector-curvature="0"
         id="path3577-51"
         d="m 49.125669,145.69626 -7.343749,7.34375 7.343749,7.3125 4.812485,-4.8125 4.81252,4.8125 7.312497,-7.3125 -7.312497,-7.34375 -4.81252,4.8125 -4.812485,-4.8125 z"
         style="fill:#800080;stroke:none;display:inline" />
      <path
         inkscape:connector-curvature="0"
         id="path3215"
         d="m 186.65502,67.55869 c -2.71749,-3.002819 -2.07511,-6.74904 1.64373,-9.58554 8.59039,-6.5522 49.81726,-22.760321 76.6915,-30.150862 13.47628,-3.70603 15.00978,-3.95616 15.00978,-2.44828 0,1.33605 -4.00378,2.92061 -24.23395,9.591011 -36.01503,11.875041 -61.70594,22.632062 -63.94454,26.774141 -0.79296,1.46724 -0.42419,2.453522 1.77596,4.75 l 2.77671,2.898273 -4.0321,0 c -2.63625,0 -4.60503,-0.633082 -5.68709,-1.828743 z"
         style="fill:#000000" />
      <path
         inkscape:connector-curvature="0"
         d="m 94.093486,93.504513 c 2.973598,-1.035611 6.686374,-2.47712 8.250594,-3.20336 l 2.84402,-1.320449 -3.84402,-1.386541 c -4.607081,-1.661762 -19.658608,-2.7455 -24.782008,-1.784349 -3.17882,0.596349 -3.578848,0.976719 -3.031246,2.882317 0.346951,1.20741 1.744567,3.207804 3.105795,4.445303 3.148171,2.86204 9.886103,3.003718 17.456865,0.367079 z m -4.322637,11.070427 c 0.599971,-1.79987 -1.466992,-1.42165 -2.164507,0.39605 -0.373737,0.97391 -0.150232,1.43108 0.580518,1.18751 0.653473,-0.21784 1.366295,-0.93045 1.583989,-1.58356 z m -9.442069,48.36672 c -8.453834,-3.70929 -8.043957,-15.7923 1.208197,-35.61756 2.45466,-5.25985 4.463054,-9.90455 4.463054,-10.32157 0,-0.41703 -1.012506,-0.67622 -2.250005,-0.57597 -6.682481,0.5413 -8.155674,-0.0472 -12.979284,-5.18502 l -4.831228,-5.145886 -2.561559,2.395889 c -4.07029,3.807017 -4.594259,5.442387 -2.980861,9.303747 0.955991,2.28803 3.832293,5.19137 8.522962,8.60306 7.131653,5.18713 8.370357,7.40066 6.126588,10.94792 -0.801933,1.26777 -1.838037,1.22143 -7.911724,-0.35389 -12.196024,-3.16323 -21.342165,-0.34097 -36.634877,11.30469 -8.102278,6.16998 -15.741175,10.45995 -20.7480047,11.65195 -2.247312,0.53503 -3.2851161,0.0793 -5.6959114,-2.50152 -5.554077,-5.94568 -5.3893535,-18.03054 0.402933,-29.56006 3.4211751,-6.8098 3.477512,-7.1087 2.0727383,-11 C 4.1477895,100.28349 4.5990164,86.660572 7.5706654,75.522471 8.9845096,70.2232 10.840298,63.988952 11.694599,61.66859 c 1.375365,-3.73542 1.77922,-4.097959 3.524531,-3.1639 2.321435,1.242401 2.086308,3.288829 -1.925519,16.758932 -3.9107745,13.130671 -5.0297888,20.018392 -4.0411998,24.873818 1.0517648,5.16572 2.6731698,5.40058 5.1776828,0.74999 2.15611,-4.003647 3.111003,-4.362946 3.871055,-1.456566 0.828507,3.168286 -0.972007,8.020636 -4.227041,11.391726 -4.8433457,5.01605 -9.4995042,16.10984 -9.5396842,22.72927 -0.018921,3.11543 0.3002156,6.00003 0.7091367,6.41022 1.5103257,1.51487 8.5937905,-1.71965 21.2564545,-9.70635 7.150006,-4.5097 16.375019,-9.69378 20.500016,-11.52019 l 7.500004,-3.32071 -0.342167,-5.96941 c -0.188215,-3.28318 0.20136,-7.67684 0.865675,-9.763697 1.438399,-4.518431 8.221755,-11.981912 12.608452,-13.8726 2.35166,-1.01359 3.289758,-2.191 3.765327,-4.725861 0.348332,-1.85678 1.736453,-4.412301 3.084712,-5.678929 2.270131,-2.132671 3.06395,-2.262002 10.734701,-1.749003 5.249928,0.351111 12.860835,1.915793 20.783295,4.272714 10.34598,3.077909 14.52479,3.803787 24.25,4.212319 6.46252,0.271469 11.75001,0.833159 11.75001,1.248199 0,1.52936 -3.00315,7.882791 -4.02441,8.513952 -0.58009,0.358519 -5.64942,0.98933 -11.26515,1.401808 -9.25673,0.679912 -11.33882,1.236582 -22.29086,5.959731 l -12.080409,5.209757 -4.089424,7.70682 c -7.222465,13.61119 -9.967349,25.12892 -7.214563,30.27255 1.267793,2.36889 7.692719,2.65269 11.764461,0.51965 1.485205,-0.77804 6.435662,-5.48366 11.001075,-10.45693 9.62377,-10.48359 17.37626,-15.93881 33.85318,-23.8217 6.51535,-3.11707 12.2108,-6.14875 12.65661,-6.73707 1.61779,-2.135167 -0.29923,-21.438066 -3.83045,-38.569701 -3.63019,-17.611769 -5.71197,-39.000001 -3.79601,-39.000001 0.53204,0 1.99184,1.09057 3.24408,2.4235 1.76863,1.88263 2.48333,4.281741 3.20235,10.750001 0.50909,4.579571 2.45576,17.326501 4.32593,28.326503 3.88296,22.838902 5.06303,33.29421 4.1627,36.881378 -0.8796,3.50463 -8.14204,8.39768 -16.78302,11.30749 -13.44153,4.52639 -21.86227,10.43689 -33.71489,23.66444 -13.201796,14.73322 -19.593522,18.35962 -26.79246,15.20092 z"
         style="fill:#ff0000"
         id="path3261" />
      <path
         inkscape:connector-curvature="0"
         d="m 273.97223,54.269024 -0.57336,0.0094 c -0.73709,0.0136 -0.83613,0.105293 -0.99355,0.922642 -0.0688,0.357591 -0.27421,0.903875 -0.50459,1.4314 -1.34486,3.073388 -2.94724,2.363426 -4.10136,0.09278 -1.05294,-2.071518 -2.31648,-4.363005 -2.525,0.234574 -0.0823,1.844241 0.12306,5.358628 1.54399,6.315675 1.52106,1.024808 3.87825,0.229352 5.34925,-0.764176 0.34613,-0.233533 0.65471,-0.50563 0.82259,-0.851755 0.0959,-0.198082 0.14594,-0.42118 0.18141,-0.640118 l 0.20745,-1.286488 1.43348,0.161594 c 0.26063,0.03019 0.53378,0.05521 0.79544,0.04379 0.9122,-0.0407 1.61489,-0.480608 2.14137,-1.131151 2.39053,-2.955584 1.28647,-6.525228 -0.58799,-9.036693 -1.40222,-1.879689 -3.76979,-4.829017 -1.45537,1.068596 0.84445,2.150754 0.71413,3.387199 -1.73376,3.429945 z"
         style="fill:#ff00ff;stroke:none"
         id="path3700" />
      <path
         id="path3709"
         style="fill:#ff00ff;stroke:none"
         d="m 357.19856,58.348746 -0.57336,0.0094 c -0.73709,0.0136 -0.83613,0.105293 -0.99355,0.922642 -0.0688,0.357591 -0.27421,0.903876 -0.50459,1.431402 -1.34486,3.073385 -2.94723,2.363423 -4.10136,0.09278 -1.05294,-2.071519 -2.31648,-4.363007 -2.52499,0.234574 -0.0823,1.844241 0.12305,5.358627 1.54398,6.315674 1.52106,1.024808 3.87825,0.229352 5.34925,-0.764177 0.34613,-0.233532 0.65471,-0.505629 0.82259,-0.851754 0.0959,-0.198082 0.14594,-0.42118 0.18141,-0.640118 l 0.20745,-1.286488 1.43348,0.161592 c 0.26063,0.0302 0.53378,0.05522 0.79544,0.04379 0.9122,-0.0407 1.61489,-0.480611 2.14138,-1.131153 2.39052,-2.955582 1.28646,-6.525226 -0.588,-9.036691 -1.40222,-1.87969 -3.76979,-4.829017 -1.45537,1.068596 0.84445,2.150754 0.71413,3.387198 -1.73376,3.429945 z"
         inkscape:connector-curvature="0" />
      <path
         inkscape:connector-curvature="0"
         d="m 131.58996,54.269024 -0.57336,0.0094 c -0.73709,0.0136 -0.83612,0.105293 -0.99355,0.922642 -0.0688,0.357591 -0.27421,0.903876 -0.50459,1.431402 -1.34485,3.073385 -2.94723,2.363423 -4.10136,0.09278 -1.05293,-2.071519 -2.31647,-4.363006 -2.52499,0.234574 -0.0823,1.844241 0.12305,5.358627 1.54398,6.315674 1.52107,1.024808 3.87825,0.229352 5.34925,-0.764176 0.34613,-0.233533 0.65471,-0.50563 0.82259,-0.851755 0.0959,-0.198082 0.14594,-0.42118 0.18141,-0.640118 l 0.20746,-1.286487 1.43347,0.161591 c 0.26064,0.03019 0.53378,0.05522 0.79545,0.04379 0.9122,-0.0407 1.61488,-0.480611 2.14137,-1.131154 2.39053,-2.955582 1.28646,-6.525226 -0.588,-9.036691 -1.40222,-1.879689 -3.76979,-4.829017 -1.45537,1.068596 0.84445,2.150754 0.71414,3.387199 -1.73376,3.429945 z"
         style="fill:#ff00ff;stroke:none"
         id="path3711" />
      <path
         inkscape:connector-curvature="0"
         id="path3187"
         d="m 184.00003,33.907749 c 0,-0.26382 1.91251,-1.44022 4.25,-2.614221 2.33752,-1.173999 5.71083,-3.22976 7.49625,-4.56836 2.87786,-2.1576 3.67228,-2.31551 7.00002,-1.39135 10.52232,2.92218 23.99482,-0.25156 44.33915,-10.445031 6.03886,-3.02575 11.41506,-5.5013602 11.94715,-5.5013602 2.58696,0 0.42128,2.9074002 -4.28257,5.7492802 -7.00367,4.231371 -25.92235,13.097301 -31.58326,14.800982 -6.51666,1.96123 -17.20108,2.80702 -20.30089,1.60705 -2.01204,-0.778891 -4.09948,-0.56363 -8.83908,0.91149 -5.98986,1.86426 -10.02677,2.44866 -10.02677,1.45152 z"
         style="fill:#000000" />
      <path
         inkscape:connector-curvature="0"
         d="m 324.56442,65.01822 c 3.05555,-2.64133 3.65659,-3.667519 2.78209,-4.75 -0.61354,-0.759429 -1.59058,-3.630789 -2.17117,-6.38079 -1.22336,-5.79451 -0.37895,-7.71742 5.28681,-12.038901 6.18172,-4.71502 42.57261,-18.986231 46.49016,-18.231781 3.55727,0.68507 -6.64305,6.20837 -20.64717,11.180061 -19.61202,6.96259 -27.30509,10.92296 -27.30509,14.056561 0,0.63578 2.25745,1.73453 5.01654,2.44166 7.10812,1.82176 9.11528,6.81742 3.53076,8.787742 -1.2544,0.442557 -5.50202,4.301764 -9.95161,7.995178 l -11.49649,9.542703 c -4.27435,2.084434 -4.83134,2.163405 -5.56939,2.348647 -3.41851,0.858001 -3.9022,-1.082299 -0.90865,-3.498519 4.586,-4.231375 10.61767,-7.745764 14.94321,-11.452561 z m 6.43563,-9.130789 c 0,-0.825001 -0.44999,-1.500001 -1,-1.500001 -0.55001,0 -1,0.675 -1,1.500001 0,0.824999 0.44999,1.5 1,1.5 0.55001,0 1,-0.675001 1,-1.5 z m 5.5,0.499999 c 0.3399,-0.55 -0.0835,-1 -0.941,-1 -0.85746,0 -1.55901,0.45 -1.55901,1 0,0.55 0.42345,1.000001 0.94097,1.000001 0.51755,0 1.21911,-0.450001 1.55904,-1.000001 z"
         style="fill:#000000"
         id="path3855" />
      <path
         sodipodi:nodetypes="zccsccscscsz"
         inkscape:connector-curvature="0"
         d="m 307.07152,58.09099 c -1.92814,-10.855451 -3.05073,-25.255612 -2.88069,-28.253272 l 0.30921,-5.45029 2.52928,2.5 c 2.29529,2.26875 2.84891,4.6044 5.98525,25.250002 2.85146,14.314462 4.95389,28.567245 6.30697,43.074262 1.54916,14.910468 0.98537,21.813338 -2.02777,24.826468 l -2.00057,2.00057 -0.6444,-5.48274 c -0.35442,-3.01551 -1.09421,-9.91205 -1.64394,-15.32565 -0.82188,-6.091904 -1.36495,-11.869702 -1.97767,-17.668427 -0.86008,-8.140126 -2.02753,-14.615471 -3.95567,-25.470923 z"
         style="fill:#ff0000"
         id="path3233" />
      <path
         inkscape:connector-curvature="0"
         style="fill:#008000;stroke:none"
         d="m 122.45016,158.11926 0.64125,-0.0112 c 0.2875,-0.005 0.36375,-0.18 0.77125,-1.75 2.34,-9.03375 2.76625,-14.02125 -2.98876,-19.81375 -0.94749,-0.95375 -2.05251,-1.755 -2.76373,-0.9 -0.48252,0.58 -0.97502,4.675 -0.75502,5.57 0.385,1.56375 1.52499,2.07125 2.84249,3.1325 2.97502,2.39875 3.72001,4.19875 3.34128,7.3925 -0.29001,2.4525 -1.08876,6.38 -1.08876,6.38 z"
         id="path3739" />
      <path
         inkscape:connector-curvature="0"
         style="fill:#008000;stroke:none;display:inline"
         d="m 95.931948,133.46911 0.641248,-0.0112 c 0.287496,-0.005 0.363746,-0.18 0.771249,-1.75 2.340003,-9.03375 2.766245,-14.02126 -2.988762,-19.81376 -0.947488,-0.95375 -2.052507,-1.755 -2.763734,-0.9 -0.482513,0.58 -0.975019,4.675 -0.755021,5.57 0.385004,1.56375 1.524995,2.07125 2.842499,3.1325 2.975015,2.39875 3.720009,4.19876 3.341276,7.39251 -0.290011,2.45249 -1.088755,6.38 -1.088755,6.38 z"
         id="path3739-7" />
      <path
         inkscape:connector-curvature="0"
         d="m 428.86501,149.19874 c 3.56592,2.87239 9.10579,1.38011 13.22182,-0.1904 1.58006,-0.60234 3.05584,-1.19672 4.46599,-2.3726 2.05666,-1.71561 3.97296,-4.67208 5.58108,-6.08811 0.33551,-0.29564 0.65843,-0.52464 0.98189,-0.51893 0.83294,0.0117 1.67247,1.57314 2.68221,2.00312 1.16592,0.49747 5.51691,-1.87825 6.81407,-3.16438 0.44418,-0.44077 2.08957,-2.63833 2.4699,-3.73069 0.29859,-0.86031 0.4614,-0.92626 1.62236,-0.65244 1.41944,0.33391 3.03146,0.41618 4.32406,0.61008 1.14133,0.17068 1.92806,0.35213 2.59759,-0.2594 1.02377,-0.93315 0.95057,-3.60991 0.29121,-5.01607 -0.82772,-1.76812 -3.01941,-5.04177 -3.88724,-3.59198 -0.43755,0.73137 -0.0524,2.40375 -0.54084,3.15504 -0.23442,0.36035 -0.66959,0.50825 -1.1295,0.50444 -0.97722,-0.006 -2.0614,-0.69797 -2.71863,-0.43245 -0.97303,0.39353 -1.00599,2.88851 -2.07557,4.26748 -0.98048,1.26441 -6.06565,3.8145 -6.95846,3.51648 -0.89275,-0.29803 -1.55469,-1.53384 -2.38724,-1.89142 -1.8555,-0.79577 -3.45203,2.33274 -5.21063,4.44185 -1.62956,1.95166 -3.43099,3.17377 -5.55493,4.00063 -3.35871,1.3091 -9.36298,2.6825 -12.31096,3.31898 -4.23764,0.9147 -2.1075,2.22808 -2.27818,2.09077 z"
         style="fill:#ff00ff;stroke:none"
         id="path3798" />
      <path
         inkscape:connector-curvature="0"
         style="fill:#008000;stroke:none;display:inline"
         d="m 351.32251,31.884042 0.64125,-0.01125 c 0.2875,-0.005 0.36375,-0.180002 0.77125,-1.750002 2.34,-9.03375 2.76625,-14.021248 -2.98876,-19.813751 -0.94749,-0.9537491 -2.05251,-1.7549984 -2.76374,-0.8999987 -0.48251,0.5799975 -0.97502,4.6749977 -0.75502,5.5700007 0.38501,1.56375 1.525,2.07125 2.8425,3.1325 2.97502,2.398748 3.72001,4.198749 3.34128,7.3925 -0.29001,2.452498 -1.08876,6.380002 -1.08876,6.380002 z"
         id="path3739-1" />
      <path
         inkscape:connector-curvature="0"
         d="m 442.75051,30.637429 c 0.24412,-0.733181 -0.44514,-1.250001 -1.66712,-1.250001 -1.22835,0 -2.08333,0.64569 -2.08333,1.573321 0,1.83788 3.12043,1.56887 3.75045,-0.32332 z m -5.08379,5.08333 c -0.83301,-0.83301 -0.87003,-5.63983 -0.0597,-7.751541 0.33387,-0.86999 1.6141,-1.58179 2.84501,-1.58179 4.29479,0 7.2225,5.925511 4.34801,8.800001 -1.28339,1.2834 -6.02848,1.63817 -7.13332,0.53333 z"
         style="fill:#000000"
         id="path3189" />
      <path
         d="m 80.481775,30.851073 c 0.244127,-0.733181 -0.445132,-1.250001 -1.667112,-1.250001 -1.228358,0 -2.083332,0.64569 -2.083332,1.573321 0,1.83788 3.120428,1.56887 3.750444,-0.32332 z m -5.083787,5.08333 c -0.833007,-0.83301 -0.870034,-5.639831 -0.0597,-7.751541 0.333876,-0.86999 1.614106,-1.58179 2.845015,-1.58179 4.294787,0 7.2225,5.925511 4.348006,8.800001 -1.283384,1.283401 -6.028477,1.63817 -7.133318,0.53333 z"
         style="fill:#000000;display:inline"
         id="path3189-2"
         inkscape:connector-curvature="0" />
      <path
         id="path3869"
         style="fill:#ff0000"
         d="m 169.54571,58.09099 c -1.92814,-10.855451 -3.05073,-25.255612 -2.88069,-28.253272 l 0.30921,-5.45029 2.52928,2.5 c 2.29529,2.26875 2.84891,4.6044 5.98525,25.250002 2.85146,14.314462 4.95389,28.567245 6.30697,43.074262 1.54916,14.910468 0.98537,21.813338 -2.02777,24.826468 l -2.00057,2.00057 -0.6444,-5.48274 c -0.35442,-3.01551 -1.09421,-9.91205 -1.64394,-15.32565 -0.82188,-6.091904 -1.36495,-11.869702 -1.97767,-17.668427 -0.86008,-8.140126 -2.02753,-14.615471 -3.95567,-25.470923 z"
         inkscape:connector-curvature="0"
         sodipodi:nodetypes="zccsccscscsz" />
    </g>
  </g>
</svg>
