<?xml version="1.0"?>
<svg xmlns="http://www.w3.org/2000/svg" version="1.1">
  <path
     style="fill:#000000;stroke:none"
     d="m 116.99219,40.491504 c 0.7574,-0.84988 3.1433,-7.87888 3.54075,-10.42851 0.59241,-3.81071 -0.53368,-8.33256 -4.41937,-10.90344 -0.22122,-0.14748 -0.44244,-0.26746 -0.65991,-0.36245 l -1.55477,-0.67365 -1.48104,0.91611 c -1.31981,0.81614 -2.35966,2.49465 -2.87459,4.35313 -0.12998,0.46993 -0.15623,1.22858 -0.10499,1.96847 l 0.14748,2.18094 1.85474,0.95986 c 1.23107,0.63741 2.61962,1.18483 3.07206,2.70461 l 0.30495,1.02861 -1.45229,0.61866 c -0.68115,0.29121 -1.54853,0.46868 -2.31717,0.58866 -1.3373,0.20748 -2.71461,0.16873 -3.84445,-0.27871 -2.46339,-0.97361 -3.00457,-2.20593 -4.41811,1.02611 -1.38481,3.16705 -1.86974,7.27146 0.45493,8.75125 1.70476,1.08484 3.05456,1.15233 5.08802,0.81738 2.16469,-0.35745 8.04885,-2.57588 8.66376,-3.26703 z M 96.061443,2.2107244 c -0.25372,0.33245 -0.51118,0.70615 -0.7324,1.0761 -0.81488,1.36105 -1.7285,4.52185 -1.75475,6.07163 -0.0887,5.2217496 0.45494,18.7623196 1.03735,22.7767396 l 0.64241,4.42687 1.82599,-4.2369 c 0.35995,-0.83613 0.71365,-1.85098 0.96611,-2.77335 2.125947,-7.77764 2.310917,-15.83773 -0.10248,-25.9500396 l -0.6999,-2.93083004 -1.18233,1.53978004 z m -20.06213,32.7878096 2.13594,-2.68086 0.90612,1.75225 0.73365,1.41854 -3.20829,1.18733 -2.70212,1.00111 2.1347,-2.67837 z m 6.37159,-34.32383964 c -0.43619,-0.0862 -1.47229,1.11609004 -2.07846,2.22718004 -1.38605,2.54339 -2.51839,5.04803 -1.98846,7.1627296 0.41744,1.66476 1.91597,3.18829 2.50464,5.10177 0.3512,1.14359 0.19872,4.49186 -0.27621,6.07413 l -0.63866,2.1247 -1.63977,-1.96097 c -0.23871,-0.28621 -0.46618,-0.61367 -0.6749,-0.93862 -0.95861,-1.48479 -1.54103,-2.88584 -2.48964,-4.1844 -3.13206,-4.28689 -10.55849,-8.5612796 -16.04896,-9.3836596 -2.01846,-0.30246 -2.56338,0.58367 -3.09456,2.66337 -1.14233,4.4681096 0.4062,12.4219696 5.6317,11.1846496 1.31856,-0.31245 2.75211,-1.24982 3.90319,-1.27607 2.05846,-0.0475 7.43519,5.23051 8.57003,6.49407 0.91111,1.01611 1.53603,2.31092 1.46854,3.04707 -0.0675,0.73489 -3.71072,5.11802 -5.00554,6.02414 -3.21329,2.24593 -4.30813,2.50714 -4.97304,5.16426 -0.89737,3.58699 -0.20622,3.95693 2.61338,3.65323 0.98736,-0.10624 2.14719,-0.20747 2.98582,-0.57117 l 2.20094,-0.95737 1.20607,0.12999 c 1.59603,0.17372 3.66698,0.55867 4.56935,0.33495 2.04596,-0.50868 4.27814,-4.06067 4.49186,-5.63545 0.17122,-1.25482 -0.83738,-5.60919 -1.24232,-8.42129 l -0.32996,-2.28218 1.3898,-3.01331 c 1.03236,-2.23843 2.25843,-6.24911 2.51464,-8.16384 0.12874,-0.96361 0.27622,-1.92097 0.55992,-2.81459 0.43494,-1.37231 1.22358,-2.7608596 1.50854,-4.0281796 l 0.45618,-2.03721 -1.85973,-1.15858 c -0.57367,-0.35745 -1.23482,-0.7399 -1.78974,-1.4348 -0.86613,-1.08484 -1.86474,-3.00957004 -2.44465,-3.12455004 z m 53.901037,23.38540964 5.84541,-0.10249 2.97957,1.28482 c 0,0 -5.99039,3.78446 -8.53378,4.71682 -1.04985,0.3837 -1.40854,0.12249 -2.61712,-0.72489 -1.81849,-1.27357 -3.77196,-2.74711 -4.29314,-3.73072 -0.3487,-0.65616 -0.41369,-3.40076 -0.45243,-6.23036 0.18122,-12.0195296 -3.25954,-19.76216964 -2.4634,-18.90229964 -1.11359,-1.20232 -2.08345,0.75615004 -2.66587,2.47340004 -0.6974,2.05471 -1.31231,3.97943 -1.4048,6.06538 -0.095,2.1421996 2.26093,8.3887996 2.70087,13.3105996 0.67365,7.53892 -1.01236,10.01982 3.27578,14.6579 2.8046,3.03207 8.02885,7.92262 10.49225,6.92651 0.47618,-0.19247 5.73043,-6.38408 5.5767,-7.65765 -0.065,-0.53368 -0.79114,-1.12859 -1.74475,-1.4298 -1.11234,-0.3512 -2.8296,-1.17733 -2.91458,-1.66351 -0.0475,-0.27371 -0.01,-0.60366 -0.01,-0.60366 l 18.93479,0.22122 c 1.63102,0.0187 1.92347,-0.05 2.92833,-0.68616 0.74489,-0.47243 1.29232,-0.93986 1.95722,-1.76224 1.44479,-1.78725 3.44701,-5.2505 3.44701,-5.2505 0,0 -5.90416,-1.78975 -9.33617,-3.40577 -1.81099,-0.85112 -2.93333,-1.65476 -3.97318,-2.64837 -0.65366,-0.62616 -1.27482,-1.32731 -1.96097,-1.97347 -1.78849,-1.686 -6.11912,-3.00707 -8.59752,-2.47964 -2.53214,0.53742 -3.94194,1.95097 -5.82042,4.68433 -0.6899,1.00486 -1.32481,2.29592 -1.3748,3.46075 -0.0287,0.65616 0.025,1.4498 0.025,1.4498 z m 16.83884,9.23993 -5.31799,5.31798 5.31924,5.31799 5.31674,-5.31674 -5.31799,-5.31923 z M 50.409223,31.827744 c 0.3287,0.34495 0.3012,1.42979 0,1.90597 -0.96612,1.52229 -6.83153,-2.16344 -7.74265,-3.57324 -0.54742,-0.84862 -0.39244,-1.62226 0.83988,-2.13844 1.4273,-0.59866 4.75182,1.54853 6.90277,3.80571 z m -17.61373,18.25364 -7.01275,-0.47994 c -3.42326,-0.23496 -0.20872,1.72851 6.97025,4.07317 0.7274,0.23747 1.34981,0.51993 2.08095,0.76114 1.64352,0.54118 6.99025,0.92862 8.34881,0.60367 3.96443,-0.94862 11.38837,-10.15355 13.10937,-15.10659 1.85974,-5.34799 0.63866,-9.1212 -1.49103,-14.36795 -0.53992,-1.33231 -1.46604,-2.98082 -2.4359,-3.75946 -1.49229,-1.20108 -4.08942,-2.41591 -4.08942,-2.41591 0,0 -4.11691,4.71433 -6.36034,7.94262 -3.56949,5.13801 -4.79806,10.89094 0.57867,13.20561 0.88862,0.38245 2.84834,0.38245 3.63698,0 0.98986,-0.48118 3.66322,-2.90708 4.42187,-2.41715 0.36244,0.23371 0.26246,1.15858 0,2.01721 -0.11749,0.38494 -0.55992,1.0611 -1.10985,1.77099 -2.46714,3.17955 -8.0051,7.04275 -11.1409,7.69265 -0.64116,0.13373 -1.29982,0.23622 -1.90098,0.32871 -1.61727,0.24746 -1.97847,0.26246 -3.60573,0.15123 z M 26.041453,0.67094436 c 0,0 -1.90098,1.36231004 -2.97707,2.46965004 -1.08735,1.11859 -1.55853,2.87459 -1.55853,4.66433 0,1.35606 0.63241,3.1357996 1.40855,4.0194296 l 1.54603,1.75974 0.44618,2.91334 c 0.55117,3.60198 1.38855,9.29242 1.94473,13.17186 l 0.73739,5.13802 -2.67837,0.94986 c -3.67572,1.30607 -11.02342,1.65477 -14.58791,1.00236 -6.9964998,-1.27982 -6.9839998,-10.86969 -7.2064698,-10.59848 -0.3337,0.40744 -0.6649,0.92736 -0.94736,1.41354 -2.91334004,5.02429 -2.82960004,13.08063 -0.11999,16.13145 2.95083,3.32077 9.1661898,5.09302 14.1329798,3.73696 4.37313,-1.19358 10.32977,-3.97568 12.36823,-6.92776 1.7485,-2.53338 3.66948,-11.20464 3.71447,-12.15201 0.0987,-2.05595 -0.84863,-7.3027 -1.77724,-10.48225 -0.0837,-0.28621 -0.15748,-0.62241 -0.22247,-0.98736 l -0.7499,-4.23689 1.61602,-3.4007696 c 0.27371,-0.57616 0.55867,-1.12609 0.81989,-1.60727 l 0.73489,-1.3598 -1.56977,-0.65616 c -1.14734,-0.47993 -2.75711,-1.19733 -3.8632,-2.82084 -0.68615,-1.00861 -1.21108,-2.14095004 -1.21108,-2.14095004 z" />
</svg>
