<?xml version="1.0" encoding="UTF-8" standalone="yes"?>
<svg xmlns="http://www.w3.org/2000/svg" xmlns:xlink="http://www.w3.org/1999/xlink"
  width="595.276pt" height="841.89pt" viewBox="0 0 595.276 841.89">
  <path
    style="stroke:none; fill:#000000"
    d="m 129.27043,39.611387 c 0.034,-4.045 -1.035,-8.644 -3.663,-11.42 -0.761,-0.804 -1.703,-1.497 -2.232,-1.558 -0.5,-0.058 -1.081,-0.019 -1.081,-0.019 0,0 -0.018,2.109 0.176,3.668 0.187,1.511 0.88,3.046 1.513,3.354 0.423,0.206 0.901,0.155 1.347,0.471 0.352,0.249 0.838,0.996 1.25,1.875 0.738,1.576 0.802,3.506 0.858,5.225 0.088,2.674 -0.069,4.861 0.042,5.725 l 0.118,0.931 0.399,-0.925 c 0.235,-0.548 0.544,-1.737 0.948,-3.861 0.202,-1.06 0.314,-2.237 0.325,-3.466 z M 44.726434,6.6393874 l -0.549,0.009 c -0.707,0.013 -0.803,0.101 -0.954,0.885 -0.066,0.343 -0.263,0.867 -0.484,1.373 -1.289,2.9479996 -2.826,2.2669996 -3.933,0.089 -1.01,-1.987 -2.223,-4.185 -2.422,0.225 -0.08,1.7689996 0.118,5.1399996 1.48,6.0579996 1.459,0.983 3.72,0.22 5.131,-0.733 0.332,-0.224 0.629,-0.485 0.789,-0.817 0.093,-0.191 0.14,-0.404 0.174,-0.614 l 0.199,-1.234 1.375,0.155 c 0.251,0.029 0.512,0.053 0.763,0.042 0.875,-0.039 1.549,-0.462 2.054,-1.085 2.293,-2.8349996 1.234,-6.2589996 -0.564,-8.6689996 -1.345,-1.80299996 -3.616,-4.631 -1.395,1.026 0.81,2.063 0.684,3.249 -1.664,3.29 z M 121.38943,75.608387 c 0.163,2.241 1.208,3.634 3.11,4.036 2.453,0.519 3.84,-0.811 4.469,-3.502 0.138,-0.591 0.107,-1.083 -0.273,-1.32 -0.723,-0.452 -2.708,0.017 -3.667,-0.493 -1.194,-0.634 -1.497,-3.329 -1.202,-4.589 0.295,-1.262 1.049,-2.613 1.254,-3.585 0.042,-0.197 0.061,-0.378 -0.025,-0.479 -0.011,-0.013 -0.022,-0.025 -0.033,-0.036 -2.887,-0.658 -3.589,10.573 -3.633,9.968 z m -26.164996,-7.359 -5.753,5.753 5.753,5.753 5.752996,-5.753 -5.752996,-5.753 z m -51.162,-17.457 c -2.006,1.104 -5.763,2.683 -6.857,2.823 -2.748002,0.352 -6.775002,-0.69 -7.800002,-1.37 -0.914,-0.605 -1.546,-1.469 -1.874,-2.673 -1.088,-3.986 -0.03,-5.937 -2.788,-5.329 -1.17,0.257 -2.544,0.882 -3.873,1.852 -1.281,0.936 -5.334,6.008 -7.014,8.685 -1.642,2.615 -4.0689996,7.359 -7.8569996,7.469 -2.989,0.087 -4.668,-3.659 -3.716,-7.614 0.373,-1.552 0.909,-3.234 1.243,-5.002 0.081,-0.429 0.133,-0.798 0.017,-0.96 -0.153,-0.213 -0.597,-0.066 -0.992,0.22 -2.40100003,1.735 -3.42000003,10.904 -1.67700003,14.004 0.54800003,0.976 2.45100003,3.206 3.00400003,3.549 0.077,0.048 0.159,0.095 0.243,0.143 6.1949996,3.47 5.394,2.126 9.2089996,-2.798 1.303,-1.683 2.606,-3.485 3.295,-4.783 0.556,-1.044 0.713,-1.761 1.43,-2.88 1.206,-1.884 3.995,-4.906 3.995,-4.906 0,0 0.545,2.07 1.069,3.554 1.281,3.623 3.925,5.112 7.766,5.862 0.136,0.027 7.896002,0.037 14.405002,-5.364 0.184,0.373 0.38,0.879 0.556,1.391 0.139,0.399 0.286,0.764 0.438,1.097 1.231,2.684 2.308,3.113 4.004,3.412 2.858,0.504 6.227,-0.397 7.842,-2.153 0.728,-0.792 1.342,-1.871 1.826,-2.914 0.548,-1.18 0.622,-1.455 0.741,-2.746 0.089,-0.963 0.197,-2.032 0.301,-3.121 l -2.622,-36.151 c 0.027,-1.13 0.052,-1.904 0.052,-1.904 0,0 0.871,0.057 1.524,0.218 1.179,0.291 1.643,0.92 2.209,1.624 2.723,3.381 4.703,5.576 6.317,7.556 6.345,7.78 7.431,13.294 7.345,22.924 -0.076,8.527 3.355,-3.394 3.555,-4.061 0.211,-0.703 0.369,-1.262 0.442,-1.545 1.294,-5.042 0.934,-7.9 -0.605,-11.444 -0.171,-0.394 -0.395,-0.867 -0.663,-1.401 -7.317,-14.605 -7.258,-11.516 -18.204,-23.1249996 -2.731,-2.89599996 -4.132,-4.626 -5.832,-0.415 -1.082,2.682 -1.167,4.489 -1.176,7.7799996 0,0.098 0,0.202 0.002,0.312 l 3.541,44.136 c -0.614,0.916 -1.98,1.547 -3.383,1.042 -0.926,-0.333 -1.805,-0.827 -2.076,-1.031 -0.835,-0.631 -0.946,-0.844 -1.109,-2.13 -0.17,-1.337 -2.312,-23.855 -5.287,-26.084 -2.239,-1.678 -3.298,1.227 -3.737,4.836 -0.108,0.885 -0.169,1.653 -0.043,2.438 0.271,1.698 1.412,3.478 2.065,5.471 0.416,1.271 1.225,6.771 1.152,9.259 -0.038,1.293 -0.189,1.97 -0.403,2.247 z m 1.024,25.393 c 0.07,0.085 0.139,0.167 0.209,0.244 3.726,4.138 7.164,3.969 11.918,1.912 5.062,-2.191 14.571,-9.448 15.221,-15.16 0.042,-0.368 0.072,-0.781 0.092,-1.209 l 0.172,-3.607 1.703,3.302 c 0.991,1.924 2.213,4.167 3.241,5.676 1.789,2.625 3.458,3.306 6.561,3.715 2.265,0.299 4.962,-0.272 6.844,-1.561 0.815,-0.558 1.417,-1.355 1.923,-2.094 l 1.762,-2.572 2.306,2.103 c 0.636,0.579 1.358,1.227 2.184,1.746 3.574996,2.243 11.382996,2.272 17.483996,1.482 14.47,-1.875 19.017,-8.602 18.493,-8.081 0.396,-0.394 0.779,-0.815 1.107,-1.28 1.007,-1.426 1.685,-4.03 2.042,-5.84 0.219,-1.109 0.175,-1.751 -1.131,-1.22 -0.457,0.185 -0.954,0.609 -1.483,1.092 -2.146,1.961 -8.819,6.023 -12.418,6.342 -3.079,0.273 -6.687,0.065 -9.151,-0.29 -2.077,-0.3 -2.531,-0.585 -3.885,-1.927 -1.144,-1.135 -2.536,-2.464 -3.305,-3.878 -0.317,-0.581 -0.645,-1.414 -1.045,-2.089 0.055,-0.017 0.11,-0.035 0.165,-0.054 13.212,-4.375 5.819,-0.467 17.457,-0.263 l 0.269,0.004 c 0,0 0.234,-1.572 0.045,-2.563 -0.327,-1.713 -5.638,-4.399 -7.406,-4.766 -5.499,-1.142 -10.491,0.96 -12.56,5.944 -0.139,0.333 -0.257,0.675 -0.327,0.984 -1.111,1.046 -1.485,4.737 -1.086,6.42 0.447,1.886 1.55,4.112 -0.08,3.558 -0.821,-0.279 -1.771,-0.927 -2.561996,-1.725 -2.36,-2.383 -2.857,-4.391 -4.757,-2.484 -2.87,2.878 -2.686,5.923 -6.833,6.362 -3.091,0.327 -6.317,-1.6 -8.331,-3.986 -1.336,-1.582 -3.711,-6.292 -4.64,-9.203 -2.8,-8.761 -3.058,-11.286 -11.005,-18.131 -0.094,-0.081 -0.184,-0.157 -0.309,-0.216 -2.58,-1.218 -2.252,2.442 -2.411,4.129 -0.017,0.18 -0.034,0.352 -0.049,0.513 -0.352,3.723 0.526,1.837 5.297,7.933 0.489,0.625 0.884,1.158 1.118,1.491 1.861,2.652 2.798,7.168 1.942,10.484 -0.744,2.886 -6.991,10.071 -10.032,12.491 -3.594,2.859 -6.232,3.702 -9.64,2.232 -0.372,-0.16 -0.7,-0.31 -0.995,-0.46 -7.943,-5.904 -7.613,-23.401 -8.819,-23.537 -0.196,-0.165 -0.342,-0.198 -0.407,-0.031 -0.086,0.221 -0.119,0.562 -0.126,0.967 -0.01,0.635 0.042,1.258 0.069,1.842 0.897,18.848 2.819,22.369 5.169,25.259 z m 67.222996,-38.894 c 0,0 -0.008,0.48 -0.008,0.48 0,0 0.004,0 0.073,0.001 -0.51,5.46 1.582,-0.943 3.36,-2.205 0.353,-0.25 0.736,-0.473 1.006,-0.74 0.999,-0.987 1.247,-4.308 0.974,-4.643 -0.326,-0.4 -1.082,-0.253 -1.919,-0.033 -0.102,0.027 -0.209,0.056 -0.322,0.088 l -28.235996,13.837 c -1.872,1.565 -3.788,3.325 -3.921,4.068 -0.047,0.26 -0.07,0.545 -0.078,0.818 -0.037,1.146 0.624,1.413 1.495,1.282 l 27.314996,-12.962 c 0.154,0.004 0.261,0.009 0.261,0.009 z"/>
</svg>