<?xml version="1.0" encoding="UTF-8" standalone="no"?>
<svg>
  <path
     d="m 111.98963,17.93441 c 0,0 0.627,0.093 1.127,0.218 2.729,0.682 3.473,2.38 2.916,-1.229 -0.219,-1.421 -0.438,-2.918 -0.758,-4.548 -0.633,-3.224 -3.484,-11.081 -4.317,-11.894 -1.4,-1.368 -3.763,0.272 -6.295,3.809 -2.252,3.144 -1.256,3.965 0.738,6.703 0.607,0.833 6.219,48.444 6.084,51.614 -0.243,5.686 -0.566,11.651 -0.566,11.651 0,0 0.94,-1.252 1.577,-2.252 2.179,-3.424 4.032,-12.361 4.042,-12.451 0.431,-3.909 -4.548,-41.621 -4.548,-41.621 l 0,0 z m -41.061,31.837 7.499,0 c 1.365,0 1.652,0.07 2.868,0.704 1.575,0.82 2.949,1.965 3.025,2.732 0.056,0.574 0,1.618 0,1.618 l -14.837,0 c -1.365,0 -1.667,-0.023 -3.021,-0.226 -5.053,-0.756 -5.921,-1.745 -8.61,-5.687 -1.439,-2.108 -2.58,-2.346 -5.379,-1.668 -5.654,1.37 -8.995,3.467 -11.108,8.339 -0.689,1.588 -1.407,3.186 -1.897,4.858 -0.385,1.313 -0.458,1.462 -0.73,1.493 -0.616,0.07 -1.865,-0.526 -2.456,-1.269 -0.201,-0.253 -0.263,-0.428 -0.621,-1.745 -2.08,-7.64 -5.518,-20.635 -6.677,-22.793 -0.476,-0.887 -6.021,-10.193 -7.489,-10.956 -2.207,-1.148 -2.604,3.208 -2.871,5.195 -0.246,1.829 -0.505,3.594 0,4.922 0.721,1.893 2.933,3.301 4.548,5.134 2.432,2.76 5.848,10.494 5.054,14.241 -0.5,2.36 -3.561,6.302 -6.452,9.479 -2.809,3.089 -7.094,7.872 -11.936,7.024 -2.636,-0.462 -4.871,-2.627 -6.339,-6.49 -0.486,-1.28 -0.534,-1.574 -0.479,-2.937 l 0.444,-10.957 c 0,0 -0.446,-0.04 -0.809,0 -0.374,0.041 -0.943,1.447 -1.251,2.809 -1.064,4.703 -2.197,17.442 -0.64,22.14 0.705,2.128 1.867,3.894 3.711,4.614 0.563,0.22 1.124,0.391 1.681,0.517 8.365,1.886 19.411,-8.767 22.281,-15.717 0.857,-2.076 1.591,-4.534 1.591,-4.534 0,0 1.233,4.611 2.241,6.847 2.338,5.19 8.535,9.719 13.462,10.107 2.395,0.189 6.418,0 6.418,0 l 2.615,-8.751 c 0,0 -3.414,-0.433 -5.313,-0.85 -1.583,-0.348 -3.395,-1.585 -4.795,-3.068 -4.451,-4.711 -2.037,-6.309 3.221,-9.017 1.575,-0.567 4.195,-0.115 5.111,0.714 0.692,0.626 1.237,1.759 1.908,2.68 1.79,2.457 4.991,3.313 8.199,3.384 2.441,0.055 5.029,-0.514 7.328,-0.252 1.602,0.182 3.063,0.767 4.548,1.01 2.316,0.38 5.327,-0.209 9.223,-0.505 6.713,-0.51 16.974,0 16.974,0 0,0 2.936,-5.208 3.761,-7.411 0.299,-0.798 0.208,-0.99 -0.476,-1.29 -5.698,-2.502 -6.983,-1.029 -10.279,-4.438 -1.011,-1.046 -2.065,-2.436 -3.168,-3.673 -5.979,-6.698 -5.78,-7.329 -14.764,-5.678 -1.037,0.19 -1.81,0.378 -2.029,0.507 -0.777,0.46 -1.594,2.185 -2.274,4.801 -0.453,1.742 -1.011,4.043 -1.011,4.043 l 0,0 z m 20.097,-42.066 c 0,0 -2.422,3.405 -3.078,4.328 -1.162,1.634 -1.446,1.798 -1.695,2.8 0.002,0.014 0.003,0.027 0.005,0.041 0.016,0.129 0.043,0.235 0.084,0.301 0.106,0.168 0.36,0.051 0.54,0.03 0.242,-0.027 0.369,-0.145 1.267,-1.174 1.798,-2.059 5.729,-6.082 7.939,-7.433 2.021,-1.236 6.636,-2.383 7.436,-4.391 0.27,-0.676 0.379,-1.631 0,-1.687 -0.151,-0.023 -0.381,0.098 -0.505,0 -0.078,-0.062 -0.114,-0.208 -0.196,-0.31 -0.185,-0.227 -0.602,-0.226 -1.017,-0.196 -1.788,0.131 -3.56,0.819 -5.357,1.516 -6.176,2.398 -37.264,13.608 -39.922,25.429 -0.153,0.679 -0.024,5.322 1.469,6.204 0.788,0.467 1.673,-1.085 1.831,-2.733 0.177,-1.845 -0.657,-3.559 -0.268,-4.815 0.496,-1.604 5.543,-4.915 7.167,-6.02 3.862,-2.628 7.262,-4.602 12.662,-7.017 4.869,-2.177 11.638,-4.873 11.638,-4.873 l 0,0 z m -5.657,16.738 c 0.076,-0.188 0.294,-0.338 0.889,-0.691 0.568,-0.337 1.051,-0.626 1.803,-0.739 1.963,-0.295 2.757,0.831 1.419,2.232 -0.046,0.048 -0.094,0.099 -0.145,0.152 -2.122,2.213 -5.628,5.711 -6.025,6.939 -0.106,0.327 -0.145,0.638 0,0.758 0.18,0.15 0.645,0.007 1.108,-0.209 3.683,-1.72 6.565,-6.107 8.241,-9.392 0.967,-1.895 0.96,-4.094 -1.091,-5.054 -1.723,-0.805 -6.025,0.685 -7.247,1.264 -1.057,0.5 -2.393,2.145 -2.527,3.113 -0.074,0.535 -0.078,1.166 -0.062,1.683 1.668,3.465 4.098,-1.204 3.637,-0.056 l 0,0 z m -18.199,-24.407 c -0.262,-0.056 -0.607,-0.046 -0.978,0.024 -1.163,0.217 -31.247,18.676 -32.548,20.188 -2.449,2.845 -3.794,6.242 -2.385,9.772 0.698,1.748 4.093,4.721 5.559,3.699 0.555,-0.387 0.918,-3.414 0.505,-4.214 -0.399,-0.775 -1.126,-1.244 -1.958,-1.682 -2.941,-1.546 -2.188,-3.228 0.948,-5.727 3.499,-2.789 16.323,-10.825 19.071,-11.95 0.502,-0.205 0.962,-0.372 1.143,-0.178 0.836,0.902 -2.816,7.363 0.099,5.37 0.354,-0.242 0.684,-0.609 0.969,-1.028 1.17,-1.721 1.586,-4.319 2.974,-5.858 1.126,-1.248 2.891,-1.8 4.153,-2.843 0.558,-0.462 3.419,-5.368 2.448,-5.573 l 0,0 z m -21.469,43.738 c 0,0 1.097,-1.014 1.729,-1.917 0.506,-0.722 0.506,-3.933 0,-6.539 -0.535,-2.758 -1.071,-6.855 -1.071,-6.855 0,0 3.079,-0.258 4.592,-1.165 0.834,-0.5 2.329,-4.763 2.038,-5.998 -0.405,-1.72 -3.324,-2.678 -4.215,-1.85 -0.757,0.705 -0.928,2.555 -1.849,3.875 -0.46,0.66 -1.107,1.187 -1.611,1.798 -1.599,1.939 -1.719,4.341 -1.421,7.163 0.448,4.24 1.808,11.488 1.808,11.488 l 0,0 z m 2.675,-43.774 -1.914,0 c -0.861,0 -1.015,0.019 -1.544,0.189 -0.989,0.317 -1.867,1.158 -2.353,1.832 -1.136,1.576 -2.802,4.944 -2.802,4.944 0,0 -1.397,-0.567 -1.999,-1.153 -0.462,-0.45 -0.457,-0.912 -0.754,-1.292 -0.985,-1.261 -4.115,-1.668 -4.977,-1.488 -2.097,0.438 -2.497,2.083 -2.86,4.245 -0.364,2.165 -0.253,3.834 2.628,3.841 1.713,0.004 3.497,-1.147 4.619,-0.506 1.208,0.691 1.648,3.463 3.193,4.043 0.474,0.178 1.052,0.15 1.578,0.09 0.709,-0.081 0.803,-0.241 0.946,-1.602 0.162,-1.544 0.266,-3.814 0.933,-4.552 0.757,-0.837 2.248,-0.798 3.285,-1.516 1.253,-0.868 1.938,-2.698 2.021,-4.649 0.045,-1.047 0,-2.426 0,-2.426 l 0,0 z m -34.299,6.765 0,0.513 -6.569,9.399 0,0.506 c 0,0 0.646,0.058 1.212,0 2.471,-0.256 7.525,-10.043 7.884,-11.28 1.057,-3.642 0.308,-4.801 -3.464,-5.794 -2.788,-0.734 -7.236,2.345 -7.654,5.612 -0.042,0.328 -0.061,0.691 -0.066,1.045 -0.029,1.858 0.415,2.504 2.701,1.657 1.097,-0.405 3.049,-1.482 3.365,-2.63 0.049,-0.177 0.097,-0.221 0.382,-0.231 0.569,-0.019 2.209,0.96 2.209,1.203 l 0,0 z m 2.022,39.469 -2.926,0 c -1.315,0 -1.529,-0.027 -2.142,-0.264 -3.386,-1.307 -1.854,-4.109 -0.997,-7.064 0.09,-0.308 0.142,-0.597 0,-0.758 -0.538,-0.613 -1.445,0.081 -1.768,0.505 -2.194,2.879 -3.605,9.173 -0.758,11.371 1.694,1.308 3.422,1.604 5.611,1.256 1.302,-0.207 1.502,-0.333 1.997,-1.255 0.367,-0.684 0.556,-1.242 0.733,-2.2 0.128,-0.691 0.25,-1.591 0.25,-1.591 l 0,0 z"
     style="fill:#000000;stroke:none" />
</svg>
