<?xml version="1.0" encoding="UTF-8" standalone="no"?>
<svg>
  <path
     style="fill:#000000;stroke:none"
     d="m 83.00378,24.51757 c 0.20375,2.80125 1.51,4.5425 3.8875,5.04625 3.06625,0.6475 4.8,-1.015 5.58625,-4.37875 0.1725,-0.7375 0.13375,-1.3525 -0.34125,-1.65 -0.90375,-0.56375 -3.385,0.0212 -4.58375,-0.615 -1.4925,-0.7925 -1.8725,-4.16251 -1.5025,-5.73751 0.36875,-1.57625 1.31125,-3.265 1.5675,-4.48 0.0512,-0.24625 0.075,-0.47375 -0.0312,-0.6 -0.0138,-0.015 -0.0275,-0.03 -0.0413,-0.045 -3.60875,-0.8225 -4.48625,13.21626 -4.54125,12.46001 z m -40.54752,0.605 c -0.5425,0.5275 -1.055,1.04125 -1.485,1.5 -3.59375,3.83625 -4.0825,10.14625 -0.63875,15.01375 0.5425,0.765 1.57125,1.70501 2.36125,1.15876 1.0325,-0.71251 1.18875,-5.39876 1.1275,-5.53126 -0.75125,-1.61875 -3.00875,-3.53 -3.00875,-3.53 0,0 1.38875,-1.3925 3.0925,-3.06875 10.27875,-10.11001 21.48251,-15.34751 28.92126,-18.47376 1.31625,-0.65875 2.12875,-1.0625 2.12875,-1.0625 0,0 -0.38375,1.52875 -0.515,3.10625 -0.1375,1.67375 -0.0213,3.4025 -0.0213,3.4025 0,0 0.05,0.006 0.13125,0.0112 0.49375,-0.85875 3.79376,-4.81875 4.64501,-5.535 0.7175,-0.6025 1.52625,-1.14875 2.2525,-1.56875 1.25375,-0.7237501 2.3725,-1.3225 3.39,-2.0725 C 86.00623,7.61126 87.86623,4.28376 87.96373,2.87876 88.05373,1.57751 87.91373,0 87.91373,0 c 0,0 -3.4075,0.0588 -3.4075,0.0588 0,0 -13.83001,7.28501 -20.20501,10.64251 -6.47625,3.41 -16.98126,9.69875 -21.84501,14.42126 z m -12.19376,18.82751 0.64,-0.0113 c 0.2875,-0.005 0.365,-0.18 0.7725,-1.75126 2.33875,-9.0325 2.76625,-14.02 -2.98875,-19.81375 -0.9475,-0.95376 -2.0525,-1.75376 -2.76375,-0.89876 -0.4825,0.58001 -0.97625,4.67501 -0.75625,5.57001 0.385,1.56375 1.52625,2.07125 2.84375,3.1325 2.975,2.39875 3.72,4.1975 3.34125,7.3925 -0.29,2.45125 -1.08875,6.38001 -1.08875,6.38001 z M 6.0887404,25.12257 c -0.5425,0.5275 -1.055,1.04125 -1.485,1.5 -3.59375,3.83625 -4.0825,10.14625 -0.63875,15.01375 0.5425,0.765 1.57125,1.70501 2.36125,1.15876 1.0325,-0.71251 1.18875,-5.39876 1.1275,-5.53126 -0.75125,-1.61875 -3.00875,-3.53 -3.00875,-3.53 0,0 1.38875,-1.3925 3.0925,-3.06875 C 17.81625,20.55506 29.01875,15.31756 36.45876,12.19131 c 1.31625,-0.65875 2.12875,-1.0625 2.12875,-1.0625 0,0 -0.385,1.52875 -0.515,3.10625 -0.1375,1.67375 -0.0213,3.4025 -0.0213,3.4025 0,0 0.05,0.006 0.13125,0.0112 0.49375,-0.85875 3.7925,-4.81875 4.645,-5.535 0.7175,-0.6025 1.52625,-1.14875 2.25125,-1.56875 1.255,-0.7237501 2.37375,-1.3225 3.39125,-2.0725 C 49.63871,7.61126 51.49871,4.28376 51.59621,2.87876 51.68621,1.57751 51.54621,0 51.54621,0 c 0,0 -3.4075,0.0588 -3.4075,0.0588 0,0 -13.83001,7.28501 -20.20501,10.64251 -6.47625,3.41 -16.98126,9.69875 -21.8450096,14.42126 z m -5.815,-17.44876 0.26125,4.99125 5.35375,-0.7175 c 1.54125,-0.20625 1.7975,-0.14625 2.56875,0.60625 0.24875,0.2425 0.53375,0.6025 0.82,1.0175 7.2462596,10.51126 3.3374996,1.015 6.3512596,-3.355 C 16.21,9.37381 16.09375,9.8725599 16.48,9.5575599 18.285,8.08381 22.04125,8.59381 22.86125,7.26756 23.96625,5.47756 23.395,5e-5 23.395,5e-5 c 0,0 -2.505,0.0525 -4.22875,0.44375 -3.14875,0.71375 -4.145,2.22876 -5.25251,5.27751 -0.83625,2.29875 -1.77625,5.86 -1.77625,5.86 0,0 -0.79,-0.92375 -1.3725,-1.7587501 C 9.2499904,7.65381 9.1424904,6.08631 8.2187404,4.97756 c -0.59125,-0.70875 -5.43125,-3.0525 -6.66625,-2.1675 -0.495,0.355 -0.80875,1.30875 -1.0325,2.04125 -0.30375,0.9875 -0.3275,1.27 -0.24625,2.8225 z M 57.06627,41.67132 50.96376,47.73258 c -1.01375,1.0075 -1.1575,1.1875 -1.44125,1.80875 -0.3975,0.86875 -0.535,2.32125 -0.33875,2.5175 0.63125,0.63875 2.86625,-0.91 3.64375,-1.48375 6.81126,-5.0225 9.91376,-8.18626 11.01501,-14.69126 0.56,-3.30625 -1.19125,-4.585 -4.28875,-5.0075 -4.91376,-0.66875 -9.79126,0.015 -11.70001,3.715 0.29875,14.12626 0.7175,6.04875 4.885,5.04625 4.63626,-1.11625 9.62126,-3.59375 4.32751,2.03375 z m -8.56501,42.63628 5.46,5.46125 7.31001,-7.31001 -7.31001,-7.31 -5.46,5.46125 -5.46125,-5.46125 -7.30875,7.31 7.30875,7.31001 5.46125,-5.46125 z M 18.25,39.23132 l -7.31001,7.31001 7.31001,7.31 7.31,-7.31 -7.31,-7.31001 z m 12.255,41.02377 c 2.7425,-2.08625 5.08251,-4.58375 6.46251,-7.58125 0.45625,-0.9925 0.82625,-2.06 1.15,-3.16375 0.0662,0.0738 0.1325,0.1475 0.1975,0.2175 0.915,0.9975 2.14375,1.7675 3.5925,2.345 5.9975,2.38875 6.56625,1.04125 11.325,-3.42625 1.28,-1.20125 2.34876,-2.30375 2.34876,-2.30375 0,0 0.8175,0.97875 1.48375,1.70375 2.03375,2.215 5.60375,3.30375 9.72,3.66625 8.5,0.7475 19.32626,-1.60625 23.73876,-3.5525 6.35626,-2.80375 8.46751,-5.30126 10.07376,-13.19876 0.91375,-4.4925 -3.5925,1.66125 -14.52626,3.5675 -2.675,0.46625 -7.9325,-0.3475 -10.44751,-2.13625 -2.21875,-1.57875 -4.86125,-4.505 -4.86125,-4.505 0,0 0.775,-0.77875 1.54125,-1.415 2.3825,-1.97875 8.89251,-3.9475 11.44501,-4.1425 4.12,-0.315 12.0675,0.83375 12.0675,0.83375 0,0 -4.82875,-5.84126 -7.77875,-7.83251 -3.74,-2.52375 -10.0525,-0.71375 -13.84001,2.2 -1.7375,1.33626 -2.8825,2.91751 -4.11625,4.71876 -0.9675,1.4125 -3.46,10.9475 -3.1225,11.945 0.57375,1.70125 1.67625,3.50375 1.67625,3.50375 0,0 -0.75,10e-4 -1.39,-0.0238 -0.155,-0.006 -0.30875,-0.015 -0.46,-0.0275 -2.59125,-0.20125 -4.5075,-1.23625 -5.93625,-3.20625 -1.41625,-1.9525 -2.0425,-4.07875 -3.3325,-3.305 -1.16875,0.70125 -2.175,3.83 -3.33751,5.44125 -1.27375,1.7675 -4.25875,2.63376 -6.76875,2.68501 -2.2775,-0.31001 -4,-1.33126 -5.3125,-3.14001 -1.415,-1.9525 -2.0425,-4.07875 -3.33125,-3.305 -1.11375,0.6675 -2.07875,3.53625 -3.17125,5.2 -4.07376,6.20251 -7.92376,18.35751 -21.55502,14.71001 -0.41,-0.11 -0.83625,-0.24 -1.27625,-0.39 C 6.2499904,74.12504 2.7062404,62.32503 1.8024904,58.20628 c -1.36375,-6.22 -1.33375,-3.495 -1.5775,-0.17625 -1.5575,21.28876 5.3325,25.81502 9.54875,27.53752 2.7987496,1.14375 6.0825096,1.3575 9.6387596,0.45625 1.2325,-0.3125 2.46875,-0.76125 3.6875,-1.34875 2.53125,-1.21751 5.10875,-2.67501 7.405,-4.42001 z" />
</svg>
