<?xml version="1.0" encoding="UTF-8" standalone="yes"?>
<svg xmlns="http://www.w3.org/2000/svg" xmlns:xlink="http://www.w3.org/1999/xlink"
  width="595.276pt" height="841.89pt" viewBox="0 0 595.276 841.89">
  <path
    style="stroke:none; fill:#000000"
    d="m 56.701677,41.988084 c -0.168,-1.368 1.934,-1.88 3.61,-2.04 1.173,-0.113 2.678,-0.024 2.678,-0.024 0,0 -0.236,1.081 -0.308,1.699 -0.048,0.417 -0.022,0.624 0.096,0.883 0.415,0.915 1.544,2.056 1.092,2.432 -0.649,0.539 -5.153,-1.503 -6.059,-2.049 -0.97,-0.586 -1.081,-0.676 -1.109,-0.901 z m -31.267,-9.344 c -3.338,-0.352 -6.671,4.028 -7.856,6.003 -1.881,3.132 -4.531,12.85 -8.0249998,15.342 -0.679,0.484 -1.395,0.703 -2.109,0.712 -10.257,0.128 -0.604,-33.442 -5.207,-21.023 -0.085,0.228 -0.146,0.403 -0.18,0.502 -2.372,6.943 -4.41,23.123 4.22,27.997 2.395,1.354 4.8669998,0.352 6.0549998,-1.308 5.036,-7.032 4.695,-15.903 10.5,-19.548 0.761,-0.479 1.734,-1.021 1.734,-1.021 0,0 0.69,3.366 1.442,5.386 1.955,5.253 7.971,7.72 13.956,7.259 1.881,-0.145 6.989,-1.001 8.059,-1.802 2.089,-1.563 1.931,-3.236 4.448,-2.34 1.403,0.499 2.779,1.814 4.405,2.564 0.87,0.402 5.696,1.594 6.783,1.104 1.241,-0.559 3.735,-6.266 4.188,-7.15 0.581,-1.131 1.104,-2.075 1.019,-3.147 -0.11,-1.383 -1.235,-2.978 -1.561,-4.333 -0.079,-0.33 -0.111,-0.645 0.039,-0.913 0.548,-0.977 1.486,-0.843 1.042,-1.821 -1.276,-2.809 -7.76,-0.754 -9.623,0.042 -1.816,0.776 -6.465,3.472 -7.695,5.298 -0.739,1.096 -0.849,2.477 -1.621,3.313 -1.051,1.138 -6.837,1.535 -9.594,1.387 -7.755,-0.416 -11.41,-3.589 -13.428,-11.217 -0.289,-1.094 -0.388,-1.223 -0.991,-1.286 z m 12.432,5.285 c 0,0 0.28,-1.967 -0.027,-3.213 -0.397,-1.607 -1.405,-1.839 -1.28,-2.801 0.182,-1.4 6.499,-5.597 7.061,-5.961 2.317,-1.499 10.741,-5.279 12.837,-5.761 0.588,-0.135 1.148,-0.235 1.339,-0.012 0.151,0.177 0.072,0.555 -0.101,0.962 -0.585,1.38 -2.256,3.103 -2.778,4.712 -0.095,0.291 -0.152,0.579 0.005,0.628 0.098,0.031 0.277,-0.03 0.407,-0.08 0.175,-0.066 0.28,-0.166 1.05,-0.994 1.778,-1.914 4.016,-4.511 5.599,-5.473 3.75,-2.28 5.241,-1.382 6.225,-5.954 0.281,-1.307 -0.073,-1.395 -2.017,-0.987 -5.55,1.164 -29.507,9.312 -31.309,17.981 -0.446,2.147 0.038,3.428 0.674,5.3 0.25,0.736 0.688,1.548 1.311,1.662 0.425,0.078 1.004,-0.009 1.004,-0.009 z m 38.736,-22.638 c 0,0 0.093,-10e-4 0.44,-0.004 2.78,1.389 2.916,1.043 2.469,0.084 -4.228,-7.4170004 -0.319,-21.3940004 -6.115,-12.5120004 -0.808,1.164 -1.43,2.404 -1.48,2.849 -0.208,1.826 0.883,4.266 1.315,6.8920004 0.206,1.25 0.263,2.542 0.264,3.858 0.002,2.549 -0.204,5.189 -0.163,7.648 0.107,6.489 1.949,12.779 2.069,21.322 0.053,3.789 -0.158,8.259 -0.158,8.259 0,0 0.824,-0.797 1.471,-1.576 0.603,-0.724 2.289,-7.79 2.22,-9.308 -0.223,-4.976 -0.632,-12.367 -1.398,-16.432 -0.332,-1.763 -0.752,-3.321 -0.89,-6.059 -0.109,-2.148 -0.044,-5.021 -0.044,-5.021 z m -41.518,-7.0920004 0.996,-0.097 2.704,4.0360004 c 0,0 0.535,-1.339 0.934,-2.3940004 0.751,-1.988 1.398,-3.127 2.055,-3.406 1.151,-0.487 3.249,-0.303 4.182,-1.042 0.713,-0.564 1.556,-3.061 1.219,-4.153 -0.577,-1.87100004 -2.712,-1.13200004 -4.184,-0.005 -0.977,0.747 -1.626,1.547 -2.483,3.16 -0.727,1.367 -1.604,3.32 -1.604,3.32 0,0 -0.846,-2.848 -1.95,-4.116 -0.616,-0.707 -3.486,-1.306 -4.556,-1.226 -0.553,0.041 -0.939,0.359 -1.103,1.123 -0.088,0.406 -0.127,0.951 -0.136,1.533 0.237,7.5690004 0.573,2.868 3.926,3.267 z m 23.858,-0.58 c 0,0 -0.039,0.363 -0.123,0.734 -0.786,7.0510004 -1.156,5.2330004 2.57,0.42 0.816,-1.055 1.679,-2.211 2.768,-2.874 2.766,-1.681 4.273,-0.563 4.661,-4.251 0.077,-0.73400004 0.1,-1.648000040122 0.1,-1.648000040122 0,0 -1.103,0.08300000012 -2.156,0.218000000122 -4.061,0.518 -30.75,13.13700044 -34.708,18.93300044 -0.598,0.875 -1.025,1.976 -0.606,2.516 0.895,1.152 5.007,-2.502 7.078,-4.037 2.253,-1.67 5.702,-3.427 10.413,-5.531 4.191,-1.872 10.003,-4.4800004 10.003,-4.4800004 z"/>
</svg>