<?xml version="1.0" encoding="UTF-8" standalone="yes"?>
<svg xmlns="http://www.w3.org/2000/svg" xmlns:xlink="http://www.w3.org/1999/xlink"
  width="595.276pt" height="841.89pt" viewBox="0 0 595.276 841.89">
  <path
    style="stroke:none; fill:#000000"
    d="m 63.576085,52.808179 c 0,0 0.58997,-1.35993 0.94682,-2.43737 0.6021,-1.81865 0.5051,-3.13233 0.26762,-5.01348 -0.66234,-5.24723 -1.68067,-17.13285 -1.68067,-17.13285 0,0 1.82691,-0.20624 3.22308,-0.16874 3.77593,0.0987 4.87625,1.8774 6.86239,-0.1075 1.29318,-1.29243 2.44987,-5.86969 1.62279,-7.5796 -0.94595,-1.95489 -4.1504,-2.89609 -5.6232,-1.30118 -0.67922,0.73621 -1.0667,1.8974 -1.84403,2.66236 -1.20381,1.18369 -3.34245,1.41868 -4.40189,2.40612 -1.81428,1.69117 -2.05777,13.50804 -1.72379,16.30664 0.56335,4.72226 2.35088,12.3656 2.35088,12.3656 z M 8.1037052,27.131719 c -0.1944,-0.0161 -0.45615,0.015 -0.78125,0.0625 -0.48733,0.0706 -0.64074,0.23634 -1.46875,1.59375 -2.60895,4.27587 -6.73272002,14.43019 -5.68750002,19.625 0.4235,2.10672 2.84702002,4.93475 4.12500002,5.84375 1.27796,0.909 6.9806298,3.1279 9.9374898,0.9688 0.85653,-0.85652 1.94674,-4.54172 1.65626,-5.5625 -0.54569,-1.9126 -2.69034,-0.61127 -5.68751,-0.46875 -4.5663398,0.2199 -7.5575798,-4.92108 -6.6562398,-9.125 0.73842,-3.43832 3.24317,-7.66373 4.65625,-11.28125 0.47338,-1.21251 0.4894,-1.60796 -0.0937,-1.65625 z m 11.2293398,18.19205 c -0.049,-1.47375 -0.199,-3.32375 -0.63563,-3.79 -0.25312,-0.26875 -0.60262,-0.0737 -0.82175,-0.21875 -0.98575,-0.65625 0.69113,-3.3625 1.49,-4.3975 7.25288,-9.3875 26.04913,-21.04375 35.97913,-23.455 0.94625,-0.23 1.8925,-0.41625 2.07125,-0.0613 0.0888,0.1775 -0.0113,0.4875 -0.16375,0.8375 -0.35875,0.8225 -0.9325,1.81875 -1.57125,2.88625 -13.225,22.14625 7.6375,-8.5875001 13.55625,-9.4512501 0.5425,-0.29625 1.05,-0.535 1.50125,-0.6925 2.30375,-0.805 4.7975,-0.975 5.10125,-3.42375 0.0425,-0.34375 0.0475,-0.77125 0.0375,-1.1875 -0.1,-4.01125 -6.00375,-2.09250004 -10.16375,-0.3375 -3.85,1.625 -9.5675,4.3 -15.6325,7.4125 -7.84625,4.0250001 -31.34163,16.1100001 -34.64788,26.6075001 -1.06537,3.38125 -0.86725,7.17125 1.2565,10.43125 0.0911,0.14 0.17375,0.26625 0.24913,0.38 -0.95863,-1.44375 2.59912,4.62625 2.39425,-1.54 z m 13.77425,-23.92625 -0.16625,-4.2275 c -0.0677,-1.70875 -0.0455,-2.015 0.2225,-3.0625 0.1975,-0.77625 0.4075,-1.625 0.93875,-2.1725 1.295,-1.33375 4.50125,-0.8725 5.9875,-1.9712501 2.14,-1.5825 2.14125,-7.01625 0.495,-9.21750004 -1.74625,-2.33499996 -5.2775,1.37250004 -6.72375,3.49500004 -0.88875,1.30375 -1.73,2.7975 -2.1085,4.54125 -0.17538,0.8075 -0.27238,1.7250001 -0.4095,2.5275001 l -0.67175,3.9325 -2.21825,-3.13 c -3.03625,-4.4350001 -2.11025,-5.7525001 -6.57188,-6.9587501 -1.49487,-0.40375 -4.73675,-0.2525 -5.35975,1.61375 -0.48762,1.46125 0.657,5.0125001 1.374,5.8550001 0.55138,0.64875 2.78413,2.25875 3.70638,2.3575 1.507,0.16125 4.58625,-0.85625 4.58625,-0.85625 0,0 2.48512,3.96625 4.00325,5.83 0.66237,0.8125 1.21012,1.4675 2.05962,1.485 0.35075,0.008 0.85638,-0.0412 0.85638,-0.0412 z m 11.40881,16.1345 -5.80912,6.39875 c -0.96538,1.06375 -1.10263,1.25375 -1.37275,1.90875 -0.37825,0.9175 -0.50913,2.45125 -0.32325,2.65875 0.60175,0.67375 2.729,-0.96 3.4695,-1.56625 6.4845,-5.3025 9.4385,-8.6425 10.48725,-15.51 0.5325,-3.49 -1.13375,-4.84125 -4.08313,-5.28625 -4.6785,-0.7075 -9.32137,0.0163 -11.13887,3.9225 0.28362,14.91375 0.68312,6.385 4.65075,5.32625 4.41375,-1.1775 9.16,-3.79375 4.11962,2.1475 z m 42.96609,-23.40168 0.545,9.60375 2.56375,46.92246 c 0,0 1.74,-1.74375 2.7825,-3.33125 1.47875,-2.25 1.55625,-4.18625 2.00125,-6.34624 0.34875,-1.69375 0.3725,-2.0725 0.22875,-3.78375 l -2.8075,-33.47747 -0.26625,-5.6825 c 0.27875,0.1525 0.545,0.29125 0.795,0.415 l 4.31875,2.1375 -0.825,-2.2725 c -0.0925,-0.2575 -0.1925,-0.53125 -0.2925,-0.805 -1.1975,-3.30125 -1.8625,-6.56499 -2.66,-9.9474901 -0.76375,-3.24 -1.78125,-7.55499004 -1.78125,-7.55499004 0,0 -0.72125,-0.0387 -1.385,0.0562 -1.825,0.26125 -5.72249,6.07499004 -5.97499,7.39624004 -0.0238,0.125 -0.0387,0.25 -0.0438,0.37375 -0.0112,0.27375 0.01,0.56 0.0563,0.8575 0.33375,2.1275001 1.40499,3.9450001 2.74499,5.4387401 z m -66.68838,42.81018 -3.53695,-3.56426 3.61769,-3.20733 3.6177,-3.20732 3.53695,3.56426 3.53694,3.56426 -3.61769,3.20732 -3.61769,3.20733 -3.53695,-3.56426 z m 53.75214,8.90987 c 0,-0.26512 0.14337,-0.8557 0.31864,-1.31242 0.53205,-1.38649 -2.63763,-1.04796 -4.35789,0.46544 l -1.47293,1.29583 2.75609,0.0166 c 1.51585,0.009 2.75609,-0.20033 2.75609,-0.46545 z m -57.53287,26.54214 c -1.47054,-0.37081 -3.51237,-1.19251 -4.53738,-1.826 -5.4502898,-3.36847 -9.0106898,-13.15258 -7.2351798,-19.88254 1.19055,-4.5127 3.24268,-11.25354 3.90676,-12.83289 0.55744,-1.32578 0.64378,-0.51575 0.60746,5.69906 -0.0406,6.93603 0.0211,7.37359 1.4464898,10.27645 2.32345,4.73166 3.64711,5.99659 7.53,7.19589 5.45497,1.68487 9.11919,1.44281 13.77522,-0.90997 2.14237,-1.08258 4.15037,-2.38483 4.46223,-2.8939 0.43747,-0.71412 0.21577,-1.9135 -0.97039,-5.24969 -2.16611,-6.09241 -2.38822,-11.43952 -0.68115,-16.39836 0.72452,-2.10461 1.60252,-3.74066 2.05485,-3.82897 0.43439,-0.0848 2.06096,0.68296 3.6146,1.70614 4.66676,3.07344 6.01092,2.38838 7.7323,-3.94077 1.02922,-3.78417 2.20948,-4.91676 3.6373,-3.49033 0.73316,0.73244 0.9231,1.78 0.9027,4.9783 -0.0143,2.22786 -0.22409,5.28928 -0.46642,6.80314 -0.89411,5.58585 2.00415,9.58427 6.94716,9.58427 2.53597,0 2.64277,-0.0618 3.40689,-1.97151 1.01071,-2.52602 5.68684,-7.38834 8.92672,-9.28218 1.79409,-1.0487 3.44854,-1.53506 5.77464,-1.69758 4.28936,-0.29968 5.03068,0.19344 4.11161,2.73507 -0.49431,1.367 -0.58964,3.21662 -0.33292,6.46005 0.35555,4.49241 0.33915,4.58081 -1.42832,7.69392 -2.73762,4.82187 -3.09178,5.30748 -4.48896,6.15525 -1.18449,0.7187 -1.59021,0.68292 -4.58867,-0.40467 -1.80912,-0.65619 -3.77099,-1.45086 -4.35971,-1.76594 -1.58351,-0.84747 -4.05957,-0.69533 -4.88117,0.29991 -0.39626,0.48002 -1.73227,1.32134 -2.9689,1.86961 -2.11194,0.93633 -2.41988,0.94699 -5.073,0.17571 -3.09575,-0.89996 -5.22398,-2.90765 -5.78372,-5.45614 -0.18281,-0.83231 -0.0737,-4.05558 0.2423,-7.16286 0.31608,-3.10726 0.4391,-5.78515 0.27339,-5.95085 -0.1657,-0.16571 -1.06133,0.6305 -1.99027,1.76935 -0.92895,1.13885 -2.27044,2.66122 -2.98109,3.38305 -1.19026,1.20899 -1.30472,1.76756 -1.45227,7.08707 -0.0881,3.17605 -0.50463,6.95583 -0.92562,8.39948 -0.67708,2.3218 -1.27156,3.0316 -5.14912,6.14789 -7.28438,5.85428 -13.40688,7.9506 -19.05836,6.52554 z m 28.51265,-0.22528 -3.5287,-3.55595 3.56047,-3.5332 3.56048,-3.5332 2.59931,2.639 2.59932,2.639 2.37139,-2.66853 2.37138,-2.66854 3.54399,3.59 3.54399,3.58999 -3.60443,3.57681 -3.60443,3.57681 -2.26764,-2.68929 -2.26764,-2.68929 -2.67439,2.64117 -2.6744,2.64117 -3.5287,-3.55595 z"/>
</svg>