<?xml version="1.0" encoding="UTF-8" standalone="no"?>
<svg
   xmlns:dc="http://purl.org/dc/elements/1.1/"
   xmlns:cc="http://creativecommons.org/ns#"
   xmlns:rdf="http://www.w3.org/1999/02/22-rdf-syntax-ns#"
   xmlns:svg="http://www.w3.org/2000/svg"
   xmlns="http://www.w3.org/2000/svg"
   xmlns:sodipodi="http://sodipodi.sourceforge.net/DTD/sodipodi-0.dtd"
   xmlns:inkscape="http://www.inkscape.org/namespaces/inkscape"
   id="svg2"
   version="1.1"
   inkscape:version="0.48.0 r9654"
   width="100%"
   height="100%"
   sodipodi:docname="ariffin2.svg">
  <metadata
     id="metadata10">
    <rdf:RDF>
      <cc:Work
         rdf:about="">
        <dc:format>image/svg+xml</dc:format>
        <dc:type
           rdf:resource="http://purl.org/dc/dcmitype/StillImage" />
        <dc:title></dc:title>
      </cc:Work>
    </rdf:RDF>
  </metadata>
  <defs
     id="defs8" />
  <sodipodi:namedview
     pagecolor="#ffffff"
     bordercolor="#666666"
     borderopacity="1"
     objecttolerance="10"
     gridtolerance="10"
     guidetolerance="10"
     inkscape:pageopacity="0"
     inkscape:pageshadow="2"
     inkscape:window-width="640"
     inkscape:window-height="670"
     id="namedview6"
     showgrid="false"
     inkscape:zoom="1.7340415"
     inkscape:cx="90.776466"
     inkscape:cy="997.94652"
     inkscape:window-x="0"
     inkscape:window-y="0"
     inkscape:window-maximized="0"
     inkscape:current-layer="svg2" />
  <path
     id="path4"
     style="fill:#000000;stroke:none"
     d="m 68.59162,97.633219 c -9.06125,2.12 -20.911247,4.352501 -21.727497,5.545001 -1.39625,2.03625 0.47625,2.94875 4.54875,4.62375 6.122497,2.51875 10.289997,3.305 16.092497,1.22625 12.03,-4.30875 24.74125,-13.435001 31.845,-22.038751 0.87625,-1.06125 1.735,-2.16 2.2725,-2.99125 1.9525,-3.0225 4.11875,-11.54375 4.44,-13.76375 0.26375,-1.82875 0.2,-3.10125 -0.28,-5.86375 -0.44,-2.5375 -1.2325,-6.3325 -1.2325,-6.3325 0,0 1.7375,-0.15 2.45875,-0.51125 1.8625,-0.93625 -3.82375,-7.07375 -5.01875,-8.6975 -3.31375,-4.50125 -3.91625,-5.62875 -6.16125,-4.41125 -1.0625,0.57625 -4.04875,5.55625 -4.01625,6.69625 0.0763,2.6175 10.7525,23.24 10.7525,23.24 0,0 -2.5375,3.18 -5.51125,5.9975 -1.07125,1.01625 -2.2,1.985 -3.2875,2.865 -18.645,15.095 -25.02125,14.38125 -25.175,14.41625 z m 42.3825,-78.02375 3.6025,0 c 0,0 0.0737,-1.50875 0,-3.1375 -0.2875,-6.42875 -3.39875,-16.46999974 -3.39875,-16.46999974 0,0 -0.885,0.0187 -1.54625,0.1775 -1.18875,0.28625 -4.61125,3.85250004 -4.96375,4.39750004 -0.875,1.35375 -1.2475,4.7125 -0.9,6.3262497 0.29375,1.36875 1.1425,2.32125 1.7725,3.6375 1.21875,2.55 1.31875,18.47875 2.18875,27.6375 0.755,7.95875 3.24875,15.98 3.245,23.31125 -0.002,4.9175 -0.60125,10.98 -0.60125,10.98 l 0.64125,0 c 0.28875,0 0.42,-0.16375 1.32,-1.64 7.20875,-11.81375 1.12,-24.0175 -0.46,-39.535 -0.70875,-6.97375 -0.9,-15.685 -0.9,-15.685 z M 97.36788,0.00135116 c -0.17154,0.00502197 -0.37047,0.0346875 -0.59375,0.0625 -0.57625,0.0713 -0.815,0.1325 -2.3125,0.8125 -0.68875,0.31250004 -1.4175,0.65625004 -2.1875,1.00000004 -5.24875,2.34125 -17.0175,9.5899998 -22.21875,12.8749998 -6.28444,4.894662 -17.623017,10.570513 -20.4375,18.09375 -1.119,3.20375 -0.91825,6.81875 1.3125,9.90625 0.09562,0.1325 0.202,0.23625 0.28125,0.34375 0.584603,0.73817 2.66359,2.9706 2.5,-1.46875 -0.0515,-1.39625 -0.197625,-3.1225 -0.65625,-3.5625 -0.265875,-0.25625 -0.64475,-0.08125 -0.875,-0.21875 -1.035375,-0.62125 0.723249,-3.17625 1.5625,-4.15625 5.1232,-5.804982 14.2009,-11.584847 20.3125,-14.9375 3.1175,-1.68 6.625,-3.25 6.625,-3.25 0,0 -1.17125,4.90125 -1.25,8.5 -0.0812,3.73375 1.21625,8.45625 2.8125,8.8125 1.61625,0.36 5.625,0 5.625,0 l 0.59375,-7.1875 -3.21875,0 c -1.44,0 -1.63625,-0.0713 -1.96875,-0.625 -0.875,-1.46375 -1.43125,-5.995 -1.4375,-6.25 -0.0362,-1.52125 0.3,-3.9275 1.46875,-4.9375 0.3,-0.26125 0.4975,-0.3525 1.96875,-1.09375 l 9.0625,-4.5624998 c 1.47125,-0.7425 1.64375,-0.8575 1.84375,-1.03125 0.81375,-0.70375 1.41375,-3.06875 1.59375,-3.71875 0.77875,-2.80328129 0.7945,-3.44140385 -0.40625,-3.40625004 z M 65.83663,42.0625 c -0.14224,0.02395 -0.28273,0.0907 -0.4375,0.1875 -2.66375,1.665 -3.81,8.98375 -3.375,11.25 0.76,3.96625 4.43625,9.73375 5.40625,13.46875 0.62125,2.3925 -1.46875,2.815 -4.8125,3.375 -5.20375,0.87125 -15,0.65625 -15,0.65625 0,0 0.10745,-1.13 0.34375,-2.03125 0.52125,-1.9825 1.70625,-2.82125 2.0625,-3.84375 0.8625,-2.47375 -3.56625,-12.15625 -4.5,-13.71875 -3.78625,-6.3375 -6.54125,-0.42625 -10.53125,7.1875 -0.83375,1.5925 -1.46125,2.8475 -2.09375,5.21875 -0.7525,2.815 -1.5,7.1875 -1.5,7.1875 l -3.53125,0 c -7.10675,0.04244 -15.404744,-5.023939 -17.4375,-11.8125 -0.4325003,-1.56375 -0.4606253,-3.01625 0,-4.875 0.782877,-3.15875 2.982,-7.455 2.40625,-8.625 -0.11019,-0.224375 -0.336219,-0.345 -0.59375,-0.34375 -0.257531,0.0012 -0.546565,0.124375 -0.84375,0.34375 -3.6318773,2.68 -5.8651253,17.17875 -5.1562503,21.5625 2.66986,9.748762 11.8911423,15.845573 22.6250003,14.21875 2.715,-0.54375 5.385,-1.755 7.625,-1.5625 1.43625,0.1225 2.70875,0.83 4.1875,1.1875 3.35875,0.8125 13.55375,-1.00125 18.3125,-0.96875 0.44375,0.004 0.86875,-0.03875 1.28125,-0.09375 4.88625,-0.64125 7.50875,-4.245 9.3125,-7.71875 2.31375,-4.45125 3.47875,-9.875 2.65625,-12.875 -0.6325,-2.305 -2.015,-4.79375 -2.71875,-7.375 -0.79453,-2.915625 -1.55394,-10.359193 -3.6875,-10 z M 39.43038,58.5 c 0.683585,-0.0064 1.418203,0.808516 2.46875,2.71875 0.53375,0.97 2.28625,5.22375 1.28125,6.25 -0.48875,0.4975 -1.62125,0.67125 -2.1875,0.78125 -2.46375,0.47625 -3.14375,0.44875 -4.5,-1.8125 -1.3125,-2.1875 -1.10875,-2.3075 0.125,-4.5 1.169297,-2.077734 1.933605,-3.42931 2.8125,-3.4375 z M 17.761243,38.662048 c -2.0375,0.1375 -5.4465,2.4325 -7.8066273,2.615 -2.87575,0.2225 -7.86025,-4.40375 -7.2065,-7.8425 0.635125,-3.34125 5.0035,-9.695 4.203875,-10.4575 -1.80175,-1.7175 -5.331875,8.4525 -5.70525,9.80375 -1.77287496,6.415 -2.12062496,10.245 2.102,13.3975 2.609875,1.94875 3.845,2.59 6.005375,2.2875 5.5908773,-0.7825 7.1633773,-2.30375 8.4071273,-7.71125 0.22375,-0.9725 0.48,-2.12375 0,-2.0925 z m 14.734591,-9.943368 -8.335,8.33625 8.335,8.335 8.33625,-8.335 -8.33625,-8.33625 z m 25.988286,62.005789 6.48875,6.48875 8.335,-8.335 -8.335,-8.33625 -6.48875,6.49 -6.489997,-6.49 -8.335,8.33625 8.335,8.335 6.489997,-6.48875 z m -25.281583,-77.818596 -6.92375,6.8775 c -1.15125,1.14375 -1.315,1.34875 -1.63625,2.0525 -0.45125,0.98625 -0.6075,2.63375 -0.385,2.8575 0.71625,0.72375 3.2525,-1.0325 4.135,-1.68375 7.72875,-5.7 11.25,-9.29 12.5,-16.6712499 0.635,-3.75125 -1.35125,-5.2037501 -4.86625,-5.68250006 -5.5775,-0.75875 -11.11125,0.0175 -13.2775,4.21625006 0.33875,16.0299999 0.815,6.8637499 5.54375,5.7249999 5.26,-1.2662499 10.9175,-4.0774999 4.91,2.30875 z m 30.667833,8.273596 -0.1825,-4.18375 c -0.075,-1.69125 -0.05,-1.995 0.24375,-3.03125 0.2175,-0.76875 0.4475,-1.60875 1.03125,-2.15125 1.42125,-1.32 4.94,-0.86375 6.57125,-1.9512497 2.34875,-1.565 2.35,-6.9425 0.5425,-9.12250004 -1.91625,-2.31124996 -5.79125,1.35875004 -7.37875,3.46000004 -0.975,1.29 -1.89875,2.76875 -2.31375,4.49375 -0.19375,0.8 -0.3,1.7074997 -0.45,2.5024997 l -0.7375,3.89125 -2.435,-3.0975 c -3.3325,-4.3887497 -2.31625,-5.6937497 -7.212497,-6.8874997 -1.64125,-0.39875 -5.19875,-0.25 -5.8825,1.5975 -0.535,1.44625 0.72125,4.9612497 1.5075,5.7949997 0.605,0.6425 3.05625,2.235 4.06875,2.33375 1.65375,0.15875 5.033747,-0.8475 5.033747,-0.8475 0,0 2.7275,3.92625 4.39375,5.77 0.72625,0.80375 1.3275,1.4525 2.26,1.47 0.385,0.007 0.94,-0.0413 0.94,-0.0413 z"
     inkscape:connector-curvature="0" />
</svg>
