<?xml version="1.0" encoding="UTF-8" standalone="no"?>
<svg>
  <path
     d="m 142.34,45.08525 c -0.541,-9.239 -1.031,-23.077 -1.4,-36.995 -0.029,-1.072 -0.071,-7.505 -1.494,-8.043 -1.656,-0.626 -3.414,5.154 -3.659,6.08 -0.851,3.218 -0.375,4.268 0.58,8.068 0.608,2.418 1.609,11.918 1.684,15.981 0.036,1.983 -0.735,20.986 2.01,27.502 2.026,4.809 6.356,5.76 11.581,5.296 2.123,-0.189 11.427,-2.607 12.904,-3.354 1.426,-0.721 5.444,-3.32 6.188,-4.921 0.382,-0.822 0.344,-1.748 0.623,-2.83 0.405,-1.575 2.359,-4.931 1.606,-5.318 -0.393,-0.202 -1.444,0.085 -1.947,0.531 -0.119,0.105 -0.207,0.219 -0.314,0.332 -1.435,1.517 -7.845,3.874 -9.575,4.187 -0.884,0.159 -1.848,0.249 -2.623,0.43 -1.553,0.364 -1.94,0.598 -4.027,-0.386 -1.804,-0.851 -3.645,-3.004 -4.372,-5.43 -0.324,-1.084 0.888,-2.203 2.758,-3.079 1.214,-0.569 4.249,-1.048 5.427,-1.09 2.309,-0.083 9.383,0.821 8.519,-1.788 -0.481,-1.453 -3.441,-3.356 -4.676,-3.769 -3.85,-1.289 -7.278,-0.294 -10.488,2.054 -2.531,1.853 -3.874,3.327 -4.605,6.964 -0.303,1.508 -0.82,6.318 -2.206,5.708 -1.085,-0.477 -2.434,-5.107 -2.494,-6.13 z m 2.852,-23.407 c 0.014,0.087 0.239,-0.013 0.351,-0.01 0.094,0.003 0.108,0.135 0.142,0.211 0.072,0.158 0.361,0.081 0.653,-0.015 1.178,-0.383 5.495,-3.35 6.466,-4.444 1.43,-1.61 1.914,-2.574 3.804,-3.526 0.44,-0.222 0.861,-0.379 1.306,-0.586 1.108,-0.515 5.091,-4.058 5.533,-4.922 0.396,-0.774 0.584,-1.56 0.983,-2.244 0.53,-0.907 1.28,-1.797 0.635,-2.603 -0.568,-0.71 -2.48,0.882 -3.871,1.969 -5.195,4.06 -14.449,11.719 -15.09,12.719 -0.294,0.458 -1.119,2.241 -0.912,3.451 z m -15.697,53.875 c 0,0 0.596,0.025 1.124,-0.032 1.447,-0.154 3.273,-1.953 4.772,-2.771 0.805,-0.44 1.748,-0.622 2.71,-0.954 3.205,-1.106 4.738,-2.649 5.729,-5.732 0.498,-1.547 0.25,-1.776 -1.006,-1.434 -1.456,0.395 -9.581,4.536 -11.613,5.859 -0.203,0.133 -1.754,3.744 -1.763,3.4 0.015,0.538 0.047,1.664 0.047,1.664 z m -36.5383,2.952 c 2.382,0.826 4.5707,1.267 6.8015,0.507 0.6668,-0.227 1.3308,-0.558 2.0438,-0.74 0.797,-0.205 1.653,-0.224 2.449,-0.421 0.952,-0.237 1.817,-0.728 2.72,-1.221 4.833,-2.635 13.324,-7.528 14.864,-8.854 0.912,-0.786 5.277,-4.917 5.844,-6.333 0.604,-1.507 0.362,-3.56 1.115,-4.878 0.239,-0.419 0.58,-0.763 0.888,-1.153 1.455,-1.84 2.905,-8.216 2.435,-11.359 -0.323,-2.161 -1.981,-4.927 -1.566,-5.65 0.302,-0.526 1.402,-0.444 2.454,-1.101 1.522,-0.951 1.203,-2.242 0.037,-4.031 -0.608,-0.932 -1.444,-1.566 -1.826,-2.409 -0.785,-1.733 -0.165,-3.838 -2.272,-4.505 -1.427,-0.452 -4.644,5.374 -4.865,6.957 -0.322,2.306 1.029,4.824 1.956,7.01 0.171,0.403 0.313,0.794 0.386,1.212 0.209,1.19 -0.132,2.601 0.107,3.759 0.158,0.765 0.57,1.419 0.941,2.194 0.604,1.261 1.1,2.84 1.349,4.18 0.044,0.237 0.08,0.467 0.06,0.702 -0.027,0.317 -0.1,0.431 -0.726,1.145 -5.555,6.339 -11.298,10.477 -19.784,14.551 -1.734,0.832 -10.1165,3.974 -15.2903,5.801 -10.1664,1.577 -11.046,1.357 -0.121,4.637 z m -89.4326,-25.41 -3.5241,0 c 1.7224,1.767 0.078,3.994 4.0549,8.633 2.0603,2.128 5.7297,5.505 6.7614,6.117 9.2318,5.476 19.3864,5.925 31.389,3.68 7.6024,-1.422 11.015,-3.066 16.9586,-7.6 3.8789,-2.96 5.7246,-5.782 6.5735,-10.493 0.3923,-2.176 0.4721,-6.426 0.1418,-7.55 -0.2785,-0.947 -0.7578,-1.623 -0.5559,-2.044 0.294,-0.613 2.0339,-0.685 3.2909,-1.71 1.0465,-0.854 2.8111,-4.295 3.5983,-3.266 0.219,0.286 0.166,0.995 0.0478,1.686 -0.65,3.797 -1.0171,5.815 1.1389,9.177 1.6552,2.582 3.4331,3.26 6.4569,3.332 2.6076,0.063 5.4289,-1.024 6.9233,-0.547 0.9191,0.293 1.6245,1.057 2.5646,1.685 2.959,1.975 5.7291,1.68 9.7137,1.657 5.3683,-0.03 9.2513,-0.299 12.2333,-2.455 0.612,-0.443 3.944,-7.155 4.135,-8.331 0.614,-3.767 -0.333,-10.761 -1.49,-16.175 -0.196,-0.914 -0.485,-1.501 -1.379,-1.015 -0.995,0.54 -3.411,5.245 -3.58,5.901 -0.594,2.315 -0.498,7.221 -0.498,7.221 l 1.756,-0.05 0.179,6.322 -9.258,0.262 c -0.949,0.027 -1.134,0.024 -1.853,-0.034 -1.713,-0.137 -2.4696,-0.661 -2.2793,-1.395 0.5027,-1.939 3.1753,-5.226 3.6553,-7.457 0.637,-2.963 -2.5716,-9.822 -5.8451,-10.268 -0.6967,-0.094 -1.0344,0.02 -1.4652,0.393 -2.8648,2.484 -6.0385,11.343 -7.2751,14.694 -0.3286,0.891 -0.4583,1.003 -1.2978,1.121 -2.892,0.409 -6.3483,-1.357 -7.7621,-3.048 -2.5587,-3.062 -0.8343,-5.181 -1.1768,-10.513 -0.0789,-1.228 -0.5499,-4.381 -2.0061,-3.809 -0.3062,0.12 -0.5271,0.395 -0.7177,0.723 -0.8983,1.545 -1.1241,4.258 -2.1287,5.509 -0.7749,0.965 -4.1707,2.266 -5.9161,2.101 -0.4611,-0.044 -0.8747,-0.168 -1.4199,-0.487 -1.2668,-0.74 -3.2437,-2.528 -3.2437,-2.528 0,0 -0.9922,2.214 -1.6491,3.953 -0.4467,1.182 -1.3403,4.024 -1.2531,4.971 0.0894,0.972 0.9556,2.122 1.6781,3.397 1.5774,2.784 2.8856,7.01 2.5254,8.484 -0.1851,0.758 -2.4833,3.448 -3.7425,4.381 -7.9048,5.857 -18.5804,7.686 -28.545,6.807 -6.3536,-0.56 -14.9599,-2.141 -19.9249,-5.433 -1.3475,-0.893 -2.5559,-1.994 -3.5969,-2.886 -0.6147,-0.526 -1.171,-0.981 -1.8159,-2.057 -0.2113,-0.353 -0.4321,-0.773 -0.5767,-1.056 z m 97.2519,-45.223 4.328,-0.406 c 0,0 -0.029,0.228 0.01,0.352 0.061,0.191 0.377,0.102 0.558,0.133 0.252,0.043 0.267,0.385 0.168,0.69 -0.34,1.057 -2.096,1.696 -3.09,2.583 -0.572,0.511 -1.988,3.159 -1.3,3.728 0.152,0.126 0.453,0.029 0.804,-0.115 4.845,-1.987 7.237,-4.488 9.128,-9.13 1.311,-3.22 -0.874,-5.439 -4.45,-5.674 -3.758,-0.248 -6.256,0.877 -7.7227,4.085 -0.3041,0.665 -0.8594,2.971 0.365,3.755 0.1368,0.088 0.2569,0.087 1.2017,-10e-4 z m -10.3667,34.444 c -0.7554,-1.618 -1.0306,-4.261 0.2691,-5.032 0.4456,-0.264 1.0477,-0.264 1.6438,-0.047 0.706,0.257 2.7658,2.536 3.0298,3.352 0.0894,0.277 0.1435,0.546 0.144,0.827 6e-4,0.379 -0.0901,0.475 -0.9071,0.967 -0.9468,0.569 -2.1467,1.009 -3.1522,0.922 -0.5301,-0.045 -0.6328,-0.144 -1.0274,-0.989 z M 77.0852,0.05225 c -2.2167,-0.338 -6.5926,1.033 -7.9112,2.158 -1.2814,1.093 -3.1431,4.747 -1.0187,5.477 0.2997,0.103 0.5778,0.068 0.8921,-0.025 1.4129,-0.421 3.5559,-2.036 5.1335,-2.431 1.6524,-0.413 3.2533,0.088 2.8481,1.269 -0.4702,1.372 -3.6113,3.529 -5.1175,5.474 -0.7271,0.94 -0.8499,1.462 -0.984,2.489 -0.1272,0.974 -0.0536,1.153 0.8054,0.713 3.5856,-1.839 8.12,-6.949 9.1005,-10.871 0.5096,-2.039 -0.1698,-2.525 -2.211,-3.593 -0.5323,-0.279 -1.1238,-0.597 -1.5372,-0.66 z m -25.8968,41.164 c -0.2515,-0.064 -0.6565,0.019 -1.0318,0.112 -3.3801,0.839 -6.2717,2.575 -7.424,5.4 -0.3382,0.829 -0.4504,1.795 -0.1159,2.113 0.1275,0.121 2.0598,0.074 2.7949,-0.607 0.2028,-0.188 0.3048,-0.436 0.4839,-0.648 0.8261,-0.977 3.4706,-1.402 4.1567,-1.065 1.0811,0.53 1.3707,1.871 0.6627,2.793 -0.6592,0.858 -2.0054,1.64 -3.0236,2.458 -1.3082,1.052 -1.8177,1.996 -2.0805,3.487 -0.1129,0.64 0.035,0.764 0.8579,0.503 1.8372,-0.584 8.526,-6.537 9.0838,-9.397 0.3949,-2.025 -2.3797,-4.644 -4.3641,-5.149 z m 7.7384,-17.836 4.8939,-4.894 -4.8939,-4.894 -4.8939,4.894 4.8939,4.894 z m 33.1103,0 4.8939,-4.894 -4.8939,-4.894 -4.8939,4.894 4.8939,4.894 z m 2.4691,42.238 3.4006,3.4 4.8942,-4.894 -4.8942,-4.894 -3.4006,3.401 -3.4005,-3.401 -4.8939,4.894 4.8939,4.894 3.4005,-3.4 z m -22.6493,-1.567 4.8939,-4.894 -4.8939,-4.894 -4.8939,4.894 4.8939,4.894 z m 0,11.487 4.8939,-4.894 -4.8939,-4.894 -4.8939,4.894 4.8939,4.894 z m 47.0651,-75.538 -0.931,1.474 c -0.15,0.238 -0.279,0.524 -0.374,0.826 -0.198,0.63 -0.559,1.601 -0.651,2.562 -0.24,2.503 1.999,5.857 1.867,8.316 -0.073,1.359 -0.882,2.587 -1.186,4.113 -0.693,3.471 0.375,5.61 3.505,6.284 2.505,0.539 2.797,-0.05 3.752,-2.385 0.626,-1.529 1.025,-2.47 0.175,-3.25 -1.101,-1.01 -4.104,-1.373 -4.947,-2.429 -0.804,-1.008 0.357,-2.435 0.848,-4.194 0.531,-1.904 -0.032,-6.595 -0.573,-8.602 -0.152,-0.563 -0.343,-1.08 -0.594,-1.438 l -0.891,-1.277 z"
     style="fill:#000000;stroke:none" />
</svg>