<?xml version="1.0" encoding="UTF-8" standalone="yes"?>
<svg>
  <path
    style="stroke:none; fill:#000000"
    d="m 109.37075,69.356123 c 0.34692,-1.178209 0.76693,-2.419698 1.19349,-3.664459 2.25278,-6.557622 2.36951,-6.14743 0.79638,-12.251219 -0.30983,-1.201129 -0.50293,-2.284426 -0.39929,-2.870259 l 1.7466,-1.016753 -2.70989,-5.246309 c -1.45968,-3.018626 -3.58591,-6.105973 -4.35829,-6.580534 -0.8673,-0.531288 -1.49132,-0.112368 -2.25606,1.507674 -1.33749,2.833162 -1.35931,5.661965 -0.36111,8.077303 0.36329,0.879289 0.45165,0.976385 0.88148,0.976385 0,0 0.95676,0 0.95676,0 0,0 0.0688,0.726553 0.19309,2.026954 0.17127,1.803321 2.58988,5.850693 3.84665,8.232215 1.4924,2.830979 2.26478,5.077221 -0.2171,7.166367 l -6.51835,6.29907 C 92.585589,80.17387 87.889105,85.44964 77.272106,87.58024 c -2.220058,0.4451 -4.919036,0.88366 -4.919036,0.88366 0,0 6.839086,0.73311 10.411902,1.11494 7.957295,0.85201 11.386114,-2.04988 17.739728,-8.54423 3.79647,-3.880456 7.99985,-8.73514 8.86605,-11.678487 z M 59.112874,17.68786 58.960137,14.193593 c -0.06216,-1.41277 -0.04144,-1.665866 0.204009,-2.530979 0.182184,-0.64256 0.374192,-1.344033 0.860752,-1.7967686 1.186937,-1.102937 4.125924,-0.721113 5.488501,-1.629866 1.962594,-1.306937 1.96369,-5.799421 0.453833,-7.62019104 -1.60041,-1.92987396 -4.837221,1.13566504 -6.163798,2.88989104 -0.813841,1.077841 -1.585129,2.312786 -1.93205,3.753915 -0.161456,0.667649 -0.249824,1.42585 -0.37528,2.090234 l -0.616385,3.2498986 -2.033401,-2.587698 c -2.783411,-3.6655476 -1.934554,-4.7543086 -6.02459,-5.7514216 -1.370321,-0.333832 -4.342148,-0.209464 -4.913364,1.334218 -0.446953,1.206577 0.602416,4.14338 1.259713,4.8404836 0.505424,0.535649 2.552138,1.866594 3.397611,1.948418 1.381449,0.133088 4.20426,-0.708025 4.20426,-0.708025 0,0 2.278194,3.279363 3.670131,4.818677 0.606561,0.672016 1.109481,1.213121 1.887314,1.228393 0.321832,0.0056 0.785481,-0.03488 0.785481,-0.03488 z m 2.619442,33.062038 0.609832,-0.01088 c 0.273825,-0.004 0.346921,-0.17128 0.734201,-1.666953 2.228786,-8.605312 2.635707,-13.356349 -2.84625,-18.874306 -0.903297,-0.908752 -1.954962,-1.671313 -2.632435,-0.85748 -0.460376,0.553112 -0.929481,4.4543 -0.720017,5.306324 0.366553,1.48913 1.45313,1.97241 2.707707,2.984803 2.834251,2.284418 3.544451,3.998284 3.183355,7.040911 -0.276008,2.33569 -1.036393,6.077605 -1.036393,6.077605 z M 50.86233,37.467646 c -0.04496,-1.218577 -0.1824,-2.748074 -0.582673,-3.132083 -0.23204,-0.22364 -0.552336,-0.06216 -0.753288,-0.182184 -0.903625,-0.542201 0.633504,-2.779707 1.365961,-3.635003 6.648502,-7.760927 23.878766,-17.396088 32.982635,-19.390322 0.868385,-0.189824 1.734586,-0.342552 1.899322,-0.04912 0.08073,0.146184 -0.01088,0.40256 -0.150552,0.691656 -0.329465,0.680745 -0.855297,1.503314 -1.440042,2.385883 -12.123576,18.308104 7.000551,-7.0987346 12.426868,-7.8132956 0.496376,-0.244368 0.962209,-0.441832 1.375673,-0.572744 2.110966,-0.664377 4.398656,-0.805113 4.675756,-2.829891 0.0393,-0.28364 0.0448,-0.638192 0.0349,-0.980753 -0.0916,-3.316451 -5.502685,-1.73022504 -9.3166,-0.27928 -3.530275,1.341857 -8.771136,3.554275 -14.330554,6.12671 -7.193639,3.3284426 -28.731691,13.3181556 -31.762421,21.9954756 -0.976601,2.796067 -0.795073,5.929237 1.151817,8.623856 0.08343,0.11564 0.159272,0.220368 0.22844,0.314192 -0.878857,-1.193489 2.38261,3.82482 2.194746,-1.273129 z M 34.306523,9.6185164 28.981934,14.908185 c -0.884705,0.879257 -1.011241,1.037433 -1.258873,1.578514 -0.346897,0.758152 -0.466905,2.025762 -0.295633,2.198122 0.550897,0.556344 2.501387,-0.794169 3.179915,-1.294881 5.944206,-4.384244 8.651768,-7.145255 9.612833,-12.8211076 0.488713,-2.885379 -1.038521,-4.00243604 -3.742803,-4.37006804 -4.288244,-0.584705 -8.543776,0.01312 -10.210642,3.24210704 0.260729,12.3280186 0.626177,5.277669 4.263164,4.40278 4.046068,-0.973057 8.396504,-3.136275 3.776628,1.774865 z m 66.603887,16.2112706 -5.324586,5.289677 c -0.884705,0.879249 -1.011249,1.037425 -1.258873,1.578506 -0.346897,0.75816 -0.466905,2.02577 -0.295633,2.19813 0.550897,0.556336 2.501387,-0.794169 3.179915,-1.294882 5.944207,-4.384244 8.651767,-7.145262 9.612837,-12.821107 0.48871,-2.885379 -1.03852,-4.002444 -3.74281,-4.370068 -4.288249,-0.584705 -8.543773,0.01312 -10.210639,3.242099 0.260729,12.328027 0.626169,5.277677 4.263164,4.402788 4.046065,-0.973065 8.396495,-3.136283 3.776625,1.774857 z m 17.39245,-13.1439 0.48872,8.621224 2.30176,52.599496 c 0,0 1.56214,-1.565409 2.49811,-2.991194 1.3276,-2.020298 1.39742,-3.756988 1.79668,-5.696565 0.31309,-1.521778 0.33382,-1.861042 0.20508,-3.3981 l -2.51992,-40.527821 -0.24,-5.102045 c 0.25091,0.137457 0.48981,0.261809 0.71453,0.371985 l 3.87699,1.919954 -0.73962,-2.039946 c -0.084,-0.231264 -0.17345,-0.476713 -0.26291,-0.723257 -1.0756,-2.962827 -1.67232,-5.8929246 -2.38902,-8.9310316 -0.68507,-2.908283 -1.59924,-6.78199904 -1.59924,-6.78199904 0,0 -0.64688,-0.03376 -1.2436,0.0512 -1.63849,0.234545 -5.13695,5.45331004 -5.36385,6.63909504 -0.0218,0.11236 -0.0349,0.22472 -0.0393,0.335992 -0.01,0.24544 0.009,0.502896 0.0502,0.769065 0.29999,1.911226 1.26215,3.5420906 2.46539,4.8838756 z m -43.155852,18.523617 -3.107283,-3.146275 3.148683,-3.124562 3.148691,-3.124555 2.790552,3.147595 2.790554,3.147602 -2.831955,3.123235 -2.831959,3.123243 -3.107283,-3.146283 z M 6.6242731,35.498156 C -0.60414165,31.168496 -0.98254197,24.289234 2.3200051,17.61894 3.9388946,14.445673 6.9156733,10.351637 7.604074,10.351637 c 1.0875452,0 0.7363849,1.031521 -1.2375212,3.635195 -2.8113706,3.708316 -3.334667,5.557326 -2.6837465,9.482777 0.8892249,5.362653 2.2206661,6.665774 6.8262707,6.681102 2.800154,0.0094 3.401779,0.431121 3.006491,2.107866 -0.370993,1.573698 -2.829467,4.330948 -3.8558839,4.3245 -0.3933604,-0.0024 -1.7592899,-0.490688 -3.035411,-1.084921 z m 63.8773149,6.239822 -3.123115,-3.147227 3.152795,-2.795163 3.152787,-2.795162 2.285114,1.997986 2.285122,1.997986 2.071247,-2.012594 2.071266,-2.012586 3.134323,2.851171 3.134322,2.85117 -3.187314,3.148019 -3.187331,3.147995 -1.98821,-2.357898 -1.988207,-2.357898 -2.344842,2.315714 -2.34485,2.315714 -3.123107,-3.147227 z M 9.2807957,78.91745 C 5.8766964,77.71782 4.4911511,76.60025 2.9911577,73.844271 -0.0029091,68.343194 -0.8045178,60.388939 0.8368277,52.46722 c 1.067761,-5.153405 2.4019782,-9.086217 3.1653709,-9.330393 0.4552725,-0.145624 0.5562086,1.49177 0.4662885,7.564079 -0.093768,6.33139 0.03232,8.213328 0.6889126,10.281482 1.1622891,3.661059 2.962235,6.029125 5.5650133,7.321478 3.559403,1.767338 5.411605,1.56417 9.882985,-1.084089 3.831116,-2.269042 6.304158,-4.630956 8.940536,-8.538791 0.768545,-1.139186 1.86509,-2.589067 2.436779,-3.221955 L 33.022146,54.308341 31.7266,49.97333 c -1.847225,-6.181006 -5.511381,-13.092445 -8.381991,-15.810375 -2.243498,-2.124178 -2.308146,-2.256914 -2.017714,-4.142516 0.434136,-2.818466 2.230058,-7.646655 2.946571,-7.921607 1.133449,-0.434952 2.849346,1.343313 5.097836,5.283149 4.041404,7.081374 5.556789,10.489497 6.962031,15.657662 0.76316,2.806747 1.930433,6.179734 2.593946,7.495519 2.776315,5.505645 6.752566,9.000336 10.291665,9.045224 2.298035,0.02912 6.834487,-2.26653 9.151993,-4.631404 1.089553,-1.111817 2.065978,-1.814362 2.169826,-1.561201 1.517129,3.698275 4.872292,5.148844 10.655714,4.606892 3.182723,-0.298248 3.414107,-0.399192 4.5845,-2.000218 1.919306,-2.625466 3.473283,-4.21766 4.116428,-4.21766 0.323429,0 1.061405,0.418209 1.639926,0.929329 4.034372,3.564403 5.483597,4.665684 6.941158,5.274693 0.954129,0.398656 1.767426,0.511776 1.918786,0.26688 0.144488,-0.233792 -0.25868,-1.604025 -0.895937,-3.044979 -0.637256,-1.440945 -1.158649,-3.079835 -1.158649,-3.641971 0,-1.131273 2.984579,-5.96527 4.523812,-7.327015 0.766593,-0.678192 1.124177,-0.751256 1.628514,-0.33268 1.543713,1.281169 3.225139,13.198996 2.146522,15.214406 -0.299785,0.560136 -1.371025,1.869546 -2.380562,2.909803 -1.009537,1.040257 -2.125306,2.584946 -2.479499,3.432627 -0.430064,1.029313 -1.185153,1.767385 -2.273226,2.22201 -1.540481,0.643648 -1.760809,0.614608 -4.044011,-0.533201 -1.328122,-0.667672 -3.71922,-2.12065 -5.313565,-3.228843 -1.865367,-1.296593 -3.318992,-2.120362 -4.289225,-2.07445 -0.283976,0.01344 -0.659257,0.831609 -1.768202,2.169362 -2.392458,2.886091 -4.387812,3.413532 -8.526312,3.413532 -3.782235,0 -5.863373,-0.647081 -8.466247,-2.632395 -1.540634,-1.175089 -1.622866,-1.188625 -2.096034,-0.34496 -1.023481,1.824849 -2.992099,3.236379 -5.688653,4.07886 -5.461406,1.706305 -8.971041,-0.04408 -12.82166,-6.39471 -1.381482,-2.278386 -2.743699,-4.142516 -3.027163,-4.142516 -0.283464,0 -0.842449,1.555129 -1.242193,3.455867 -0.613129,2.915355 -1.129657,3.995196 -3.302555,6.904182 -3.465523,4.639517 -6.57351,7.436119 -10.371026,9.331964 -4.100012,2.04686 -6.180221,2.32395 -9.2706083,1.23486 z"/>
</svg>