<?xml version="1.0" encoding="UTF-8" standalone="yes"?>
<svg xmlns="http://www.w3.org/2000/svg" xmlns:xlink="http://www.w3.org/1999/xlink"
  width="595.276pt" height="841.89pt" viewBox="0 0 595.276 841.89">
  <path
    style="stroke:none; fill:#000000"
    d="m 80.576349,56.09728 c -0.04753,-1.288427 -0.192859,-2.905603 -0.616073,-3.311628 -0.245346,-0.236457 -0.584001,-0.06577 -0.79647,-0.192626 -0.955429,-0.57328 0.669812,-2.939056 1.444259,-3.843382 7.029632,-8.205818 25.247615,-18.393312 34.873355,-20.501861 0.91817,-0.200707 1.83403,-0.362194 2.0082,-0.05193 0.0854,0.154566 -0.0115,0.425627 -0.15917,0.731302 -0.34835,0.719764 -0.90433,1.589484 -1.52259,2.522646 -12.81857,19.357622 7.40184,-7.505658 13.13923,-8.261187 0.52484,-0.258379 1.01737,-0.467152 1.45453,-0.605572 2.23198,-0.702465 4.65082,-0.851262 4.9438,-2.992111 0.0415,-0.299905 0.0474,-0.674789 0.0369,-1.036976 -0.0969,-3.506566 -5.81813,-1.829414 -9.85068,-0.295289 -3.73265,1.418773 -9.27394,3.758018 -15.15205,6.477915 -7.60602,3.519249 -30.37873,14.081618 -33.583191,23.256363 -1.032591,2.956354 -0.840653,6.269134 1.217833,9.118217 0.08822,0.122265 0.168407,0.233001 0.241538,0.332199 -0.929233,-1.261904 2.519192,4.044081 2.320565,-1.346107 z M 79.130417,19.538343 78.96893,15.843766 c -0.06577,-1.493751 -0.04385,-1.761356 0.215694,-2.676067 0.192635,-0.67939 0.395647,-1.421077 0.910098,-1.899768 1.254982,-1.16617 4.362445,-0.762449 5.803133,-1.7232949 2.075104,-1.381864 2.076256,-6.131874 0.479843,-8.057021 -1.692147,-2.04050004 -5.11451,1.200766 -6.517132,3.055552 -0.860495,1.139638 -1.676,2.445371 -2.042803,3.96911 -0.17072,0.70593 -0.264149,1.5075929 -0.396799,2.2100589 L 76.769249,14.15854 74.619287,11.422497 C 71.676311,7.5468151 72.573835,6.3956481 68.249331,5.3413731 c -1.448873,-0.352961 -4.591061,-0.221462 -5.195017,1.4107 -0.472577,1.275745 0.636945,4.3808959 1.331921,5.1179659 0.534402,0.566358 2.698438,1.973602 3.592386,2.06011 1.460635,0.140723 4.445257,-0.748608 4.445257,-0.748608 0,0 2.408799,3.467345 3.880523,5.094899 0.641329,0.710546 1.173083,1.282666 1.995509,1.298812 0.340279,0.0056 0.830507,-0.03688 0.830507,-0.03688 z M 70.40691,40.451997 c -0.04753,-1.288427 -0.192858,-2.905603 -0.616069,-3.311628 -0.245346,-0.236456 -0.584001,-0.06577 -0.796471,-0.192626 -0.955428,-0.57328 0.669813,-2.939056 1.444257,-3.843382 7.029631,-8.205818 25.247618,-18.393312 34.873363,-20.50186 0.91817,-0.200708 1.83402,-0.362195 2.0082,-0.05193 0.0854,0.154566 -0.0115,0.425627 -0.15918,0.731302 -0.34835,0.719764 -0.90432,1.589484 -1.52258,2.522646 -12.818574,19.357622 7.40184,-7.5056579 13.13923,-8.2611859 0.52483,-0.25838 1.01736,-0.467153 1.45453,-0.605572 2.23197,-0.702466 4.65081,-0.851262 4.9438,-2.992111 0.0415,-0.299906 0.0474,-0.67479 0.0369,-1.036976 -0.0969,-3.50656704 -5.81813,-1.829414 -9.85068,-0.295289 -3.73264,1.418773 -9.27393,3.758017 -15.15204,6.477914 -7.60602,3.5192489 -30.378735,14.0816179 -33.583196,23.2563629 -1.032591,2.956355 -0.840653,6.269134 1.217833,9.118218 0.08822,0.122265 0.168407,0.233 0.241537,0.332198 -0.929233,-1.261903 2.51919,4.044081 2.320562,-1.346107 z m 31.40967,7.579692 c 0.16776,2.096891 1.24385,3.400784 3.20063,3.776316 2.52581,0.486099 3.95361,-0.758698 4.60078,-3.277831 0.14202,-0.551861 0.10961,-1.012229 -0.28117,-1.234307 -0.7444,-0.423195 -2.78696,0.01624 -3.77441,-0.46132 -1.2286,-0.592851 -1.54122,-3.115801 -1.23717,-4.294828 0.30405,-1.17998 1.07895,-2.444796 1.29054,-3.354082 0.0429,-0.183953 0.0629,-0.354569 -0.0257,-0.448926 -0.0114,-0.01144 -0.0229,-0.02288 -0.0333,-0.03337 -2.97187,-0.615725 -3.69435,9.894501 -3.7401,9.328335 z m -48.434544,3.553805 0.527089,-0.008 c 0.237329,-0.004 0.300234,-0.135339 0.635736,-1.31151 1.926284,-6.761539 2.277996,-10.495921 -2.460989,-14.832683 -0.78062,-0.713907 -1.689907,-1.313422 -2.276092,-0.672917 -0.397455,0.433676 -0.803487,3.499918 -0.621438,4.169019 0.316436,1.17045 1.255278,1.550751 2.339941,2.345661 2.449555,1.795705 3.064329,3.142484 2.752654,5.533904 -0.239234,1.835735 -0.896901,4.776151 -0.896901,4.776151 z M 11.0338,63.404054 c 0.488444,-0.628055 1.064892,-1.405123 1.784151,-2.388204 1.285915,-1.759156 2.067079,-3.324293 2.451709,-4.294372 l 0.714867,-1.804154 1.827453,-0.430036 c 1.522732,-0.358033 3.297282,-0.439045 4.273665,-1.298116 0.138116,-0.122009 2.160292,-4.221361 1.730849,-5.945513 -0.263021,-1.05609 -2.034971,-3.265277 -2.620924,-3.724317 -1.972066,-1.545134 -6.235833,-3.280287 -6.235833,-3.280287 0,0 -0.618254,0.890084 -1.324216,2.109189 -4.4788856,7.732665 -3.103263,9.416803 -0.870673,11.137953 0.856575,0.690064 1.354012,1.544135 1.185204,2.117182 -0.04385,0.148013 -0.130914,0.33103 -0.251826,0.537051 C 5.4122114,67.726421 -2.5949797,70.838693 0.79921931,70.140628 5.0003782,69.276557 10.337735,64.29913 11.0338,63.404054 z m 1.963664,-13.9492 c -0.340023,-0.20002 -0.558445,-0.362034 -0.560549,-0.372036 -0.0937,-0.449038 0.05073,-1.451121 0.05073,-1.451121 0,0 1.551039,0.05401 2.092082,0.07297 0.376636,0.01296 0.549348,0.480043 0.623558,0.901077 0.472338,2.686237 -2.053181,0.938082 -2.205794,0.849078 z m 3.81773,0.835068 0.116408,-0.753065 c 0.130218,-0.841068 0.114712,-1.810155 -0.06201,-2.546217 -0.0024,-0.009 -0.004,-0.018 -0.0064,-0.02696 0,0 0.01688,-0.485043 0.01688,-0.485043 0,0 0.201324,-0.018 0.466545,-0.014 0.840668,0.012 1.932564,0.757065 2.53752,1.310118 0.947275,0.867072 1.507225,2.281197 -0.279231,2.373201 -0.643049,0.032 -1.443424,0.07297 -2.002966,0.102006 l -0.786573,0.04001 z m 52.244698,35.861584 c 2.527214,3.57631 8.013687,3.65532 12.211057,3.28928 1.611136,-0.14001 3.124266,-0.30002 4.7294,-1.01208 2.341205,-1.03909 4.878421,-3.25628 6.728582,-4.13736 0.386038,-0.18402 0.743063,-0.31003 1.039088,-0.22002 0.763066,0.22902 1.1261,1.88517 1.942174,2.54522 0.942074,0.76307 5.566477,-0.28202 7.096607,-1.1251 0.52404,-0.28902 2.61323,-1.87916 3.24928,-2.78424 0.50004,-0.71306 0.66706,-0.73106 1.66314,-0.17501 1.2181,0.67906 2.67923,1.1771 3.81733,1.69414 1.00509,0.45604 1.68114,0.82908 2.45721,0.44204 1.1861,-0.59005 1.82016,-3.07126 1.58214,-4.53739 -0.29802,-1.84316 -1.45613,-5.428469 -2.63423,-4.322371 -0.59405,0.558045 -0.67806,2.197181 -1.32411,2.760241 -0.31003,0.27002 -0.74906,0.29202 -1.17111,0.16801 -0.89707,-0.26203 -1.71314,-1.182105 -2.3872,-1.11009 -0.99808,0.107 -1.68215,2.3932 -3.02726,3.38129 -1.23311,0.90608 -6.578569,1.91916 -7.321632,1.41112 -0.743063,-0.50804 -1.028086,-1.81816 -1.70014,-2.3652 -1.498136,-1.21811 -3.786333,1.24111 -5.956514,2.72023 -2.010175,1.36812 -3.987345,2.02018 -6.157535,2.22419 -3.432292,0.32403 -9.314799,0.014 -12.193047,-0.17302 -4.137358,-0.26902 -2.522222,1.49714 -2.64323,1.32612 z m 74.015588,-3.47704 c 0,-0.75775 0.18355,-1.99464 0.4079,-2.74865 0.32328,-1.08652 -0.0784,-7.188859 -1.93632,-29.415775 l -2.34421,-28.04486 0.82176,-1.526772 0.82175,-1.526764 -1.37606,-3.980792 c -0.75683,-2.18944 -1.53482,-4.142871 -1.72886,-4.34097 -1.19427,-1.2191699 0.58414,-5.7554949 3.33806,-8.5146459 3.73193,-3.73903 4.64604,-3.50609404 5.31,1.353132 0.52295,3.827179 2.18368,9.0419189 3.87265,12.1602789 1.57755,2.912636 1.53649,4.154585 -0.11708,3.54142 -0.44773,-0.166023 -1.45382,-0.41877 -2.23576,-0.561662 l -1.42172,-0.259804 0.003,4.851001 c 0.002,2.66805 0.17114,8.092507 0.37612,12.054352 1.00384,19.402789 1.12836,20.845461 2.27442,26.349609 1.47549,7.086359 1.47459,9.366859 -0.005,13.09188 -1.53374,3.860972 -2.78071,6.269982 -3.98847,7.705332 -1.36085,1.61728 -2.07248,1.55331 -2.07248,-0.18631 z M 39.593139,49.585112 c -1.473429,-0.05529 -4.812964,0.816778 -6.650923,1.80025 -1.039224,0.556077 -3.266685,2.372905 -4.950687,4.050562 -2.57987,2.570165 -3.405953,3.741951 -5.275732,7.401027 -4.750835,9.297162 -8.34471,12.185115 -12.201693,9.80136 C 8.9963811,71.700309 8.1623694,70.218639 6.8135898,65.937381 5.4148038,61.14154 6.3258982,58.484539 7.0136176,54.160747 c -0.1688314,0.07081 -0.3288456,0.141044 -0.5500763,0.225031 -0.022803,0.680631 -3.1147042,1.29154 -3.0754668,12.726766 0.0088,6.976184 0.031204,7.39101 1.0501457,10.30143 1.4281102,4.079102 2.3484459,5.447822 4.2005833,6.300882 0.8539745,0.39331 1.8832775,0.62739 2.3003195,0.52507 0.417034,-0.10233 1.116795,-0.17182 1.550215,-0.17503 1.479117,-0.01 4.345491,-2.32694 6.275871,-5.0757 1.03784,-1.477833 3.206173,-5.233146 4.800666,-8.326159 2.824496,-5.47896 2.95853,-5.676988 5.500763,-7.526044 2.713569,-1.973682 5.501019,-3.350465 6.750937,-3.350465 0.664884,0 0.7251,0.310083 0.7251,3.575496 0,3.301866 0.09153,3.754393 1.250174,5.975829 1.104265,2.117198 1.508713,2.521222 3.450479,3.500486 1.923099,0.969854 2.731299,1.129132 6.275871,1.275177 4.296028,0.177 6.506662,-0.14266 10.001387,-1.450202 1.56521,-0.585625 2.327699,-1.107889 2.750382,-1.925267 l 0.57508,-1.125156 2.925406,2.050285 c 1.606647,1.126852 3.495781,2.350118 4.225586,2.725378 1.877701,0.965502 5.449372,1.685354 8.551187,1.700236 2.809189,0.01344 3.026764,-0.09638 7.40103,-2.775385 l 2.350326,-1.425198 3.475482,1.500208 c 4.244533,1.835063 5.610827,2.081257 8.226142,1.525212 1.993524,-0.423835 6.597493,-2.545713 8.876233,-4.100569 1.44477,-0.985849 1.88802,-0.973303 3.35046,0.07497 0.65451,0.469161 3.57843,2.329011 6.50091,4.150576 6.91061,4.307342 6.92812,4.311002 10.65147,0.350049 6.35965,-6.765483 6.46664,-7.12106 4.72566,-16.42728 -1.47079,-7.861907 -1.73969,-8.6512 -2.8504,-8.6512 -1.00955,0 -1.6275,0.502005 -3.12543,2.475343 -1.63468,2.153499 -2.40033,3.750321 -2.40033,5.075705 0,0.631567 0.52461,2.935799 1.15016,5.100707 1.32411,4.582452 1.36889,5.175719 0.45006,5.175719 -0.72093,0 -6.9868,-3.450199 -8.17614,-4.500625 -0.38744,-0.342191 -1.09795,-1.434879 -1.60022,-2.425337 -0.50227,-0.990465 -1.18775,-1.800249 -1.50021,-1.800249 -0.31246,0 -1.76239,0.861127 -3.22544,1.925267 -3.54517,2.578526 -8.73626,4.892679 -11.026534,4.90068 -1.832854,0.0064 -5.54937,-1.658022 -6.050839,-2.700375 -0.13974,-0.290472 -0.547492,-1.205727 -0.900125,-2.025281 l -0.625047,-1.475165 -1.80025,1.875261 c -1.137229,1.180563 -3.015346,2.472919 -5.075704,3.525489 -3.086988,1.577035 -3.38555,1.662014 -5.475763,1.425198 -5.949618,-0.674102 -7.849273,-1.365142 -10.976523,-3.900542 -2.205418,-1.788032 -3.116112,-3.430268 -3.400472,-6.150853 -0.133666,-1.278898 -0.449566,-2.607778 -0.700097,-2.95041 -0.717956,-0.981864 -2.188344,-0.367226 -3.800527,1.600223 -1.59455,1.94595 -2.425217,3.872761 -2.45034,5.750797 -0.0091,0.684375 -0.261261,1.809116 -0.550077,2.500347 -0.478218,1.144535 -0.698049,1.277786 -2.550354,1.500209 -3.415426,0.410121 -4.588756,0.289536 -7.200999,-0.825115 -3.187114,-1.359949 -5.222252,-2.91142 -5.875815,-4.475621 -0.287024,-0.686935 -0.525073,-2.589015 -0.525073,-4.300597 0,-3.276214 -0.663972,-5.50898 -1.750243,-5.925822 -0.124689,-0.04785 -0.289576,-0.09211 -0.500069,-0.100014 z m 7.836767,35.300284 -2.892697,-2.91838 2.921301,-3.15511 2.921293,-3.155112 2.085178,2.127402 2.085177,2.1274 1.904008,-2.1439 1.904001,-2.143899 2.907563,3.202619 2.907571,3.20263 -2.92731,2.91014 -2.927302,2.91014 -1.852873,-1.88117 -1.852873,-1.88116 -2.14517,1.8584 -2.145169,1.85838 -2.892698,-2.91838 z"/>
</svg>