<?xml version="1.0" encoding="UTF-8" standalone="no"?>
<svg>
  <path
     d="m 97.31257,20.266861 -0.175,-4.00375 c -0.0713,-1.61875 -0.0475,-1.90875 0.23375,-2.9 0.20875,-0.73625 0.42875,-1.54 0.98625,-2.05875 1.36,-1.26375 4.7275,-0.82625 6.28875,-1.8674999 2.24875,-1.4975 2.25,-6.645 0.52,-8.73125002 -1.83375,-2.21124998 -5.5425,1.30125002 -7.0625,3.31125002 -0.9325,1.235 -1.81625,2.65 -2.21375,4.30125 -0.185,0.765 -0.28625,1.63375 -0.43,2.3949999 l -0.70625,3.72375 -2.32987,-2.965 c -3.18925,-4.1999999 -2.21663,-5.4474999 -6.903,-6.5899999 -1.57013,-0.3825 -4.97525,-0.24 -5.62975,1.52875 -0.51213,1.3825 0.69025,4.7474999 1.44337,5.5462499 0.57913,0.61375 2.92425,2.13875 3.893,2.2325 1.58288,0.1525 4.81725,-0.81125 4.81725,-0.81125 0,0 2.61038,3.7575 4.20525,5.52125 0.695,0.77 1.27125,1.39 2.1625,1.4075 0.36875,0.006 0.9,-0.04 0.9,-0.04 z m 37.4597,26.98011 0.69875,-0.0125 c 0.31375,-0.005 0.3975,-0.19625 0.84125,-1.91 2.55375,-9.86 3.02,-15.30375 -3.26125,-21.62625 -1.035,-1.04125 -2.24,-1.915 -3.01625,-0.9825 -0.5275,0.63375 -1.065,5.10375 -0.825,6.08 0.42,1.70625 1.665,2.26 3.1025,3.42 3.2475,2.6175 4.06125,4.58125 3.6475,8.0675 -0.31625,2.67625 -1.1875,6.96375 -1.1875,6.96375 z m -96.86539,46.63492 c 0.20374,2.79985 1.50992,4.54226 3.88729,5.04473 3.06609,0.64872 4.79975,-1.01495 5.58596,-4.37852 0.17249,-0.73746 0.13374,-1.35243 -0.34123,-1.64991 -0.9037,-0.56372 -3.38482,0.0225 -4.58351,-0.61497 -1.49242,-0.79246 -1.8724,-4.16228 -1.50242,-5.7372 0.36873,-1.57616 1.31118,-3.26483 1.56742,-4.47976 0.0512,-0.24624 0.075,-0.47248 -0.0312,-0.59872 -0.0138,-0.0163 -0.0275,-0.0312 -0.0412,-0.045 -3.60856,-0.8237 -4.48601,13.21556 -4.54101,12.45935 z m 48.49166,0 c 0.20374,2.79985 1.50992,4.54226 3.88729,5.04473 3.06609,0.64872 4.79975,-1.01495 5.58596,-4.37852 0.17249,-0.73746 0.13374,-1.35243 -0.34123,-1.64991 -0.9037,-0.56372 -3.38482,0.0225 -4.58351,-0.61497 -1.49242,-0.79246 -1.8724,-4.16228 -1.50242,-5.7372 0.36873,-1.57616 1.31118,-3.26483 1.56742,-4.47976 0.0512,-0.24624 0.075,-0.47248 -0.0312,-0.59872 -0.0138,-0.0163 -0.0275,-0.0312 -0.0412,-0.045 -3.60856,-0.8237 -4.48601,13.21556 -4.54101,12.45935 z m 15.44321,-41.36728 7.78249,-7.78124 -7.78249,-7.7825 -7.78125,7.7825 7.78125,7.78124 z m -33.00614,-36.72945 0.6175,10.7275 2.90875,52.41999 c 0,0 1.97375,-1.94875 3.15625,-3.7225 1.6775,-2.51375 1.765,-4.675 2.27,-7.08875 0.395,-1.8925 0.42125,-2.315 0.25875,-4.2275 l -3.18375,-37.39874 -0.3025,-6.34875 c 0.31625,0.17125 0.61875,0.32625 0.90125,0.46375 l 4.9,2.38875 -0.93625,-2.53875 c -0.10625,-0.2875 -0.21875,-0.5925 -0.33125,-0.9 -1.36,-3.68625 -2.11375,-7.3325 -3.01875,-11.1124999 -0.86625,-3.61875 -2.02,-8.43875002 -2.02,-8.43875002 0,0 -0.8175,-0.0437 -1.57125,0.0625 -2.07,0.2925 -6.49,6.78625002 -6.77625,8.26250002 -0.0275,0.14 -0.045,0.27875 -0.05,0.4175 -0.0138,0.305 0.0112,0.625 0.0637,0.9575 0.3775,2.3774999 1.59375,4.4074999 3.11375,6.0762499 z M 47.40536,19.973521 46.84911,8.9060211 c -0.0788,-1.5425 -0.10875,-1.81125 -0.30625,-2.68625 -0.605,-2.68 -2.23375,-4.1475 -3.9375,-5.095 -2.165,-1.20500002 -3.8175,-1.65250002 -6.05,0.0438 -1.835,1.395 -2.0075,6.445 -1.28625,7.235 0.5375,0.59 1.96375,0.53625 3.69,0.11375 4.3125,-1.055 4.74375,-0.81125 5.8675,3.9387499 0.53375,2.2575 0.59625,4.3725 0.33375,6.6425 -0.5575,4.82125 -1.8675,7.16625 0.7,9.9975 1.0675,1.1775 2.18375,1.35625 4.62,0.8325 1.7325,-0.37125 2.075,-1.20875 2.80125,-3.7075 0.51125,-1.7575 0.915,-3.3325 0.785,-5.08625 -0.26,-3.47875 -3.87,-10.01625 0.48,-11.6412499 0.80375,-0.3 1.8475,-0.10375 2.7475,0.1 1.21375,0.27625 1.41875,0.15125 2.05875,-1.24875 0.525,-1.15 1.13375,-2.20875 1.4675,-3.44625 1.25625,-4.64875002 -0.66625,-5.96 -4.5225,-4.05625002 -4.425,2.18375002 -6.4125,11.54124992 -5.46625,17.81499992 0.28875,2.585 0.60625,4.91375 0.60625,4.91375 0,0 -0.7375,-0.009 -1.21625,-0.1475 -0.59375,-0.17125 -0.7875,-0.54 -1.2225,-0.9175 -0.265,-0.23 -0.62,-0.46375 -0.975,-0.605 -0.48,-0.19125 -0.54125,-0.38375 -0.61875,-1.9275 z m -18.02551,20.03896 -6.48,6.43624 c -1.07625,1.07 -1.23,1.2625 -1.53125,1.92125 -0.42125,0.9225 -0.5675,2.465 -0.36,2.67375 0.67125,0.6775 3.04375,-0.96625 3.87,-1.575 7.2325,-5.335 10.5275,-8.69374 11.69749,-15.60124 0.59375,-3.51125 -1.26499,-4.87 -4.55499,-5.3175 -5.21875,-0.71125 -10.3975,0.0163 -12.42374,3.945 0.31625,15.00124 0.76124,6.4225 5.18749,5.3575 4.9225,-1.185 10.21625,-3.81625 4.595,2.16 z m 84.46152,-13.59655 c 0.18648,0.94369 0.94019,1.17523 1.86648,1.05664 1.4442,-0.18491 3.30793,-1.22094 4.09555,-1.73609 5.72512,-3.46739 10.19065,-8.9806 16.40548,-11.58951 1.50958,-1.35693 2.33701,9.54765 3.61287,1.60534 2.22948,-4.59168 3.2536,-4.99321 6.90398,-7.6267799 4.04234,-1.91676 4.85781,-2.5335 4.70622,-7.48096002 -1.88328,-2.32336998 -6.49965,2.29265002 -9.12232,3.46591002 -9.51202,6.0228699 -19.36813,11.8202099 -27.77793,19.3490499 -0.50908,0.78258 -0.78909,1.73175 -0.69033,2.9564 z m 16.97113,14.36705 c -11.45219,0.1453 -21.89543,15.4535 -14.90625,25.46875 -1.39813,1.62011 -6.91568,-0.30011 -9.71875,-1.0625 -4.54846,-0.54678 -4.15175,-6.7807 -8.34375,-5.125 -3.90163,1.63064 -4.3802,1.81611 -8.0625,4.125 -9.50474,5.97212 -11.57212,20.75193 -23.28125,23.46875 -6.64102,-0.30491 -9.13189,-6.7205 -8.39646,-12.50416 0.25953,-1.891 0.89651,-5.30844 0.89651,-5.30844 0,0 -5.18645,10.80741 -5.3125,14.71875 -2.03129,8.29207 7.95355,19.185489 15.71875,12.34375 9.14666,-7.57644 12.69975,-21.00171 24.65625,-25.28125 1.08403,-0.93262 4.19817,3.57334 7.625,5.0625 11.81566,6.82224 24.85162,-0.94306 36.40625,-4.5 5.33078,-0.91235 8.78486,-6.71784 10.15625,-12.4375 -2.70483,-2.24254 -7.11998,2.20378 -10.5625,2.40625 -4.91724,0.87279 -10.66068,0.35242 -14.65625,-2.90625 -0.1284,0.0293 -5.32681,-4.55756 -4.15625,-7.875 7.28448,-2.40224 14.36854,-4.53161 21.59375,-2.21875 5.07723,4.63936 -0.0567,-6.27673 -3.3125,-6.75 -2.08494,-1.14159 -4.22297,-1.65191 -6.34375,-1.625 z m -72.96875,-2.6242 c -2.12717,0.31544 -4.89819,2.90818 -6.5,3.84375 -7.01,4.50919 -13.4276,10.74485 -14.125,19.5625 -0.3462,9.0249 -6.11951,16.38554 -13.34375,21.28125 -7.30066,6.26961 -15.80698,10.92534 -23.875,15.9375 2.6606,1.14236 11.99502,-1.62421 10.5625,-0.75 11.30394,-1.16791 21.83747,-9.67275 25.84375,-20.25 0.78822,-3.65735 0.40483,-8.24294 2.65625,-11.0625 5.8233,2.03155 11.94775,3.45471 17.47354,6.21291 1.56778,1.14394 1.60818,0.22025 3.27646,-0.68161 1.20921,-3.97424 3.5411,-7.38999 6.375,-10.4375 0.18191,-3.89516 -1.62581,-8.24471 -2.96875,-10.0625 -3.36391,-3.39755 -5.02071,-7.65951 -3.03125,-12.25 -0.53143,-1.15167 -1.37685,-1.48713 -2.34375,-1.34375 z m -4.43372,20.76727 c -5.99921,-3.07228 -10.13625,-4.13405 -6.60336,-6.42703 3.55209,-1.15471 7.44213,4.06454 6.60336,6.42703 z m 32.61341,-24.92255 c -2.51204,3.91714 3.6321,11.22528 4.68846,6.83375 -0.78491,-4.14054 -4.05082,-5.22188 0.36887,-9.16189 8.43924,-8.15027 17.44169,-16.11556 27.61819,-21.9977999 1.37409,-1.95673 -0.24526,9.3710799 2.59934,1.6691999 1.56946,-3.4705699 5.30237,-4.7699299 8.23925,-6.0048699 1.40372,-5.01379002 -1.45095,-6.97276 -5.51721,-3.80911 -13.09851,8.37671 -28.08643,15.8186399 -36.71316,29.2608899 -0.49567,1.04135 -1.00439,2.08456 -1.28374,3.20983 z"
     style="fill:#000000;stroke:none" />
</svg>
