<?xml version="1.0" encoding="UTF-8" standalone="yes"?>
<svg>
<path
	d="m 25.490129,53.613527 -4.657,4.847 c -0.774,0.806 -0.884,0.95 -1.10001,1.447 -0.303,0.694 -0.408,1.856 -0.259,2.014 0.48201,0.51 2.188,-0.728 2.781,-1.187 5.19901,-4.017 7.567,-6.548 8.40801,-11.75 0.427,-2.644 -0.909,-3.667 -3.27301,-4.005 -3.75099,-0.535 -7.474,0.013 -8.931,2.972 0.22801,11.298 0.548,4.837 3.729,4.035 3.538,-0.892 7.343,-2.874 3.30201,1.627 z m 75.468991,21.069 c 0.162,2.336 1.202,3.788 3.094,4.207 2.44,0.541 3.82,-0.845 4.445,-3.651 0.137,-0.615 0.107,-1.128 -0.271,-1.375 -0.719,-0.471 -2.694,0.018 -3.648,-0.514 -1.188,-0.66 -1.49,-3.47 -1.196,-4.784 0.294,-1.314 1.044,-2.722 1.248,-3.736 0.041,-0.205 0.06,-0.394 -0.025,-0.499 -0.011,-0.013 -0.022,-0.026 -0.033,-0.038 -2.872,-0.686 -3.57,11.021 -3.614,10.39 z m 8.509,-62.592 0.444,8.216 2.094,40.149 c 0,0 1.421,-1.492 2.272,-2.851 1.207,-1.925 1.271,-3.581 1.634,-5.429 0.28501,-1.45 0.304,-1.774 0.18701,-3.238 l -2.292,-28.644 -0.218,-4.863 c 0.228,0.131 0.445,0.25 0.649,0.356 l 3.527,1.829 -0.674,-1.944 c -0.076,-0.221 -0.157,-0.455 -0.239,-0.69 -0.978,-2.824 -1.52,-5.6160005 -2.172,-8.5110005 -0.62401,-2.771 -1.454,-6.46399997 -1.454,-6.46399997 0,0 -0.589,-0.033 -1.131,0.049 -1.491,0.223 -4.673,5.19699997 -4.879,6.32699997 -0.02,0.108 -0.032,0.214 -0.036,0.32 -0.009,0.234 0.008,0.48 0.046,0.734 0.272,1.821 1.147,3.3750005 2.242,4.6540005 z M 84.343119,0.62052653 c -0.1,-0.309 -0.344,-0.516 -0.642,-0.592 -1.65499,-0.417 -9.183,3.88199997 -10.12599,4.39399997 -0.926,0.503 -2.31901,1.263 -3.94901,2.188 -3.644,2.067 -13.28399,7.6540005 -15.745,11.3920005 -0.147,0.223 -0.269,0.44 -0.363,0.649 -1.02999,2.298 -0.962,5.928 0.193,8.412 0.409,0.879 1.653,2.791 2.352,1.957 0.27,-0.323 0.658,-3.176 0.746,-3.665 0.071,-0.389 0.128,-0.665 -0.003,-0.965 -0.296,-0.678 -1.552,-1.477 -1.718,-2.064 -0.262,-0.923 2.34,-3.044 2.979,-3.552 2.364,-1.882 12.118,-8.49 12.258,-8.304 0.128,0.171 0.139,0.484 0.062,0.942 -0.138,0.825 -0.561,2.123 -0.679,3.356 -0.122,1.282 0.209,3.088 0.376,4.636 0.069,0.644 0.235,1.824 0.797,1.433 0.302,-0.209 0.548,-1.511 0.586,-2.031 0.026,-0.363 -0.03,-0.924 -0.084,-1.544 0.636,-7.7400005 6.901,-9.0670005 10.405,-11.6980005 3.003,-2.255 2.744,-4.364 2.555,-4.94399997 z m -17.754,-0.61999999794 -1.001,0.0729999979 c -0.449,0.033 -0.538,0.059 -0.883,0.255 -0.668,0.379 -1.99799,2.02899997 -2.18999,2.26899997 -0.89801,1.122 -1.44901,1.994 -1.768,3.184 l -0.737,2.755 -0.431,-1.887 c -0.027,-0.12 -0.058,-0.254 -0.096,-0.402 -0.114,-0.444 -3.538,-3.922 -3.956,-4.017 -0.84601,-0.193 -3.43201,0.863 -4.21801,2.201 -0.637,1.084 -0.327,6.2490005 1.053,6.7830005 0.414,0.16 1.024,0.086 1.649,-0.121 2.666,-0.883 3.145,-2.0010005 4.38,-0.321 0.396,0.539 0.77301,1.161 1.024,1.817 0.514,1.338 0.61901,1.981 1.977,2.221 0.887,0.157 0.901,-1.114 0.807,-2.411 -0.153,-2.086 -0.278,-2.4470005 0.84,-4.2280005 0.548,-0.872 1.498,-2.078 1.689,-2.239 0.571,-0.484 1.25,-0.591 1.629,-0.948 0.24701,-0.231 0.421,-2.227 0.32,-3.666 -0.043,-0.61799997 -0.088,-1.31799996794 -0.088,-1.31799996794 z M 44.785119,74.928527 c 0.152,2.203 1.133,3.573 2.918,3.968 2.301,0.51 3.603,-0.798 4.193,-3.444 0.129,-0.58 0.1,-1.064 -0.25599,-1.298 -0.678,-0.444 -2.541,0.017 -3.441,-0.484 -1.12,-0.623 -1.405,-3.273 -1.128,-4.513 0.277,-1.239 0.984,-2.568 1.177,-3.523 0.039,-0.194 0.057,-0.372 -0.024,-0.472 -0.01,-0.012 -0.02,-0.024 -0.03,-0.035 -2.709,-0.647 -3.368,10.395 -3.409,9.801 z m 53.624,-40.457 5.501001,-5.764 -5.501001,-5.764 -5.5,5.764 5.5,5.764 z m -23.236,9.202 1.738,0.838 c 0.811,0.355 1.777,0.464 2.544,0.759 0.69,0.265 3.267,1.782 2.845,2.41 -0.117,0.174 -0.468,0.247 -0.881,0.325 -1.668,0.311 -4.351,0.685 -6.20699,0.931 l -2.647,0.351 0.913,-1.796 c 0.166,-0.326 0.362,-0.639 0.532,-0.879 0.21699,-0.306 0.39499,-0.566 0.495,-1.047 l 0.668,-1.892 z m -3.817,2.159 c 0.202,1.135 -3.074,2.414 -3.725,2.591 -0.927,0.253 -1.554,-0.121 -3.058,-0.971 -0.536,-0.302 -0.6,-0.357 -0.633,-0.545 -0.266,-1.503 3.003,-3.156 4.336,-3.025 0.757,0.074 1.878,0.675 2.556,1.329 0.45,0.433 0.502,0.495 0.524,0.621 z m 6.995,10.014 c 0.586,-0.086 0.722,-0.113 1.307,-0.265 1.825,-0.472 2.438,-0.872 3.365,-2.135 0.506,-0.689 2.687,-6.397 2.883,-7.544 0.527,-3.089 0.257,-5.138 -2.164,-7.056 -0.758,-0.601 -1.732,-1.197 -2.581,-1.467 -0.584,-0.186 -1.109,-0.218 -1.833,-0.417 l -2.344,-0.645 1.433,-0.608 1.882,-0.798 -1.899,-1.061 c -1.339,-0.765 -2.951,-1.574 -4.452,-2.787 -1.813,-1.464 -2.588,-2.834 -3.469,-1.535 -0.385,0.566 -0.653,1.317 -0.818,2.064 -0.379,1.717 -0.329,3.587 -0.894,4.468 -0.573,0.896 -2.048,1.444 -3.26,2.344 -2.967,2.203 -3.862,5.755 -4.586,10.058 -0.105,0.628 -0.171,0.709 -0.663,0.809 -1.814,0.369 -4.99,-1.418 -5.745,-1.897 -0.949,-0.602 -3.113,-2.71 -3.501,-3.41 -1.644,-2.968 -0.947,-10.864 -1.149,-15.528 -0.104,-2.403 -1.394,-10.824 -2.36,-17.092 -0.333,-2.1630005 -0.614,-7.8290005 -0.426,-8.5680005 0.071,-0.278 0.162,-0.525 0.201,-0.988 0.058,-0.668 0.01,-1.78499997 0.01,-1.78499997 0,0 -0.815,-0.029 -1.276,0.093 -0.562,0.15 -1.601,1.53699997 -1.791,1.82799997 -1.998,3.055 -0.381,13.9730005 0.031,16.8470005 1.166,8.146 3.381,18.066 3.136,26.7 -0.127,4.48 0.10701,5.375 3.54001,8.386 1.724,1.513 4.165,2.656 6.238,2.903 1.502,0.178 7.59699,-1.253 10.173,-0.185 4.343,0.864 11.01299,-0.729 11.012,-0.729 z m -78.11100027,19.653 c 0,0 0.063,0.271 0.025,0.377 -0.024,0.065 -0.086,0.067 -0.131,0.101 -0.339,0.256 0.056,0.657 0.186,0.722 0.189,0.095 0.434,0.153 0.68999997,0.186 1.271,0.165 2.883,-0.255 3.85,0.191 0.28,0.13 0.523,0.327 0.833,0.445 0.07,0.027 0.143,0.049 0.21801,0.054 0.05,0.004 0.079,0.017 0.099,0.084 2.43599,3.217 10.8840003,0.06 17.3709903,-3.143 5.316,-2.624 14.06901,-7.744 16.78301,-13.662 1.00499,-2.191 2.01299,-4.941 1.721,-5.813 -0.102,-0.306 -0.212,-0.607 -0.181,-0.936 0.055,-0.612 0.75599,-1.529 1.244,-2.448 0.077,-0.144 0.148,-0.29 0.185,-0.45 0.049,-0.215 0.054,-0.31 0.054,-0.949 -10e-4,-0.72 -0.025,-1.691 -0.205,-2.145 -0.063,-0.161 -0.147,-0.257 -0.239,-0.424 -0.599,-1.075 -1.581,-5.088 -1.581,-5.088 0,0 0.383,0.014 0.702,0.047 1.201,0.121 1.712,0.536 2.025,0.226 0.834,-0.825 -2.729,-5.223 -3.713,-6.587 -0.60801,-0.843 -1.214,-1.816 -1.73501,-2.78 -0.30099,-0.555 -0.35399,-0.618 -0.536,-0.626 -1.58499,-0.073 -2.459,5.031 -2.57999,6.135 -0.028,0.26 -0.036,0.476 0,0.701 0.18799,1.15 1.541,2.541 2.047,3.902 0.47,1.264 0.209,2.502 0.41,3.856 0.388,2.617 2.973,6.59 2.013,8.473 -0.749,1.469 -4.225,4.236 -7.132,6.368 -5.553,4.071 -18.712,10.377 -25.3940003,11.836 -3.426,0.748 -7.02899997,1.347 -7.02899997,1.347 z M 104.75112,0.62052653 c -0.1,-0.309 -0.344,-0.516 -0.642,-0.592 -1.655,-0.417 -9.182001,3.88199997 -10.126001,4.39399997 -0.926,0.503 -2.319,1.263 -3.949,2.188 -3.644,2.067 -13.284,7.6540005 -15.745,11.3920005 -0.147,0.223 -0.269,0.44 -0.363,0.649 -1.03,2.298 -0.962,5.928 0.193,8.412 0.409,0.879 1.653,2.791 2.352,1.957 0.27,-0.323 0.659,-3.176 0.747,-3.665 0.07,-0.389 0.127,-0.665 -0.004,-0.965 -0.295,-0.678 -1.552,-1.477 -1.718,-2.064 -0.261,-0.923 2.341,-3.044 2.979,-3.552 2.364,-1.882 12.118,-8.49 12.258,-8.304 0.128,0.171 0.139,0.484 0.063,0.942 -0.139,0.825 -0.562,2.123 -0.679,3.356 -0.123,1.282 0.208,3.088 0.375,4.636 0.07,0.644 0.235,1.824 0.797,1.433 0.302,-0.209 0.548,-1.511 0.586,-2.031 0.026,-0.363 -0.029,-0.924 -0.084,-1.544 0.636,-7.7400005 6.901,-9.0670005 10.405001,-11.6980005 3.004,-2.255 2.744,-4.364 2.555,-4.94399997 z M 67.269119,55.971527 l -1.772,6.998 c -0.14,0.553 -0.277,1.153 -0.394,1.801 -0.581,3.2 0.132,7.216 1.329,9.654 1.05901,2.159 2.471,3.21 5.06,4.196 5.155,1.964 7.49,-3.995 9.19,-8.723 0.485,-1.349 4.29,-8.234 5.198,-9.406 3.846,-4.964 6.726,-6.904 12.173,-9.372 0.611,-0.276 1.112,-0.497 2.035001,-0.622 0.364,-0.049 0.792,-0.083 1.157,-0.105 4.717,-0.294 3.249,3.621 5.086,-1.699 0.049,-0.125 0.101,-0.239 0.146,-0.361 0.30201,-0.836 0.257,-2.103 0.666,-3.083 0.685,-1.641 1.442,-2.179 -0.245,-2.584 -5.529,-1.325 -13.879001,3.369 -17.956001,7.23 -2.929,2.773 -5.18,6.153 -7.002,10.093 -1.528,3.303 -3.786,8.474 -4.554,9.559 -1.92899,2.723 -5.89299,2.464 -8.211,-0.503 -1.45,-1.856 -2.081,-3.942 -2.042,-6.015 l 0.13601,-7.058 z"
	style="stroke:none; fill:#000000"/>
</svg>