<?xml version="1.0" encoding="UTF-8" standalone="no"?>
<svg>
  <path
     d="m 50.193843,105.04777 -5.77627,6.1937 c -0.96046,1.03002 -1.09621,1.21498 -1.36432,1.84791 -0.3767,0.88748 -0.50736,2.37228 -0.32241,2.57421 0.599,0.65161 2.71336,-0.9299 3.44981,-1.51704 6.44823,-5.13142 9.38389,-8.36573 10.42748,-15.012498 0.52944,-3.378533 -1.12844,-4.685148 -4.059,-5.116162 -4.65291,-0.683851 -9.2685,0.01534 -11.07569,3.795972 0.28169,14.435568 0.67876,6.180128 4.62406,5.155208 4.38819,-1.13864 9.10729,-3.672116 4.09634,2.0787 z M 96.695773,20.509738 96.159543,9.4594953 c -0.0798,-1.6392215 -0.112,-1.9243012 -0.31393,-2.8524933 -0.61935,-2.8474026 -2.28911,-4.4051728 -4.03522,-5.4114361 -2.21956,-1.28116148 -3.91307,-1.75628064 -6.20048,0.045748 -1.88188,1.481396 -2.05836,6.8453052 -1.31851,7.6835751 0.55151,0.6261706 2.01254,0.5701729 3.7824,0.122177 4.41875,-1.1216527 4.86164,-0.8620266 6.01383,4.182879 0.54641,2.396026 0.61089,4.642724 0.34108,7.054023 -0.57016,5.119555 -1.9141,7.610622 0.71779,10.615823 1.09449,1.252314 2.23822,1.44067 4.73606,0.885783 1.774967,-0.395378 2.126227,-1.284555 2.871167,-3.936801 0.52263,-1.868303 0.93668,-3.541449 0.80262,-5.402938 -0.26641,-3.694169 -3.965657,-10.637894 0.4938,-12.361947 0.823,-0.3190186 1.89374,-0.1119965 2.81516,0.105208 1.24384,0.293564 1.45426,0.161205 2.10926,-1.3252955 0.53962,-1.2217699 1.16238,-2.3468028 1.50514,-3.6619023 1.28795,-4.93630331 -0.68214,-6.3294468 -4.63593,-4.30675244 -4.53413,2.31966594 -6.570407,12.25674224 -5.60318,18.91878024 0.29696,2.747286 0.62277,5.219672 0.62277,5.219672 0,0 -0.27151,-0.0027 -0.59392,-0.03733 -1.269277,-0.135753 -3.451497,-1.954832 -3.573677,-4.486597 z m 71.314067,-9.246435 -5.77625,6.193694 c -0.96045,1.028323 -1.0962,1.213285 -1.36431,1.847927 -0.37672,0.88748 -0.50738,2.372283 -0.32241,2.572518 0.599,0.653294 2.71333,-0.929903 3.44979,-1.515348 6.44824,-5.133144 9.38388,-8.365729 10.42748,-15.0124969 0.52943,-3.3785467 -1.12844,-4.68516172 -4.059,-5.11617499 -4.65292,-0.68383818 -9.26848,0.01534 -11.07569,3.79598479 0.28168,14.4355501 0.67876,6.1801191 4.62406,5.1551766 4.3882,-1.1403186 9.10729,-3.6720837 4.09633,2.0787195 z m -5.82207,67.96099 -23.73629,10.525887 0,5.674443 23.73629,-10.934854 0,-5.265476 z m -49.20513,50.065427 5.87638,6.5789 8.25884,-9.24642 -8.25884,-9.24643 -5.87638,6.57889 -5.87807,-6.57889 -8.258817,9.24643 8.258817,9.24642 5.87807,-6.5789 z m 68.26983,-95.264152 -8.26052,9.246422 8.26052,9.246436 8.25884,-9.246436 -8.25884,-9.246422 z m 5.83226,93.835362 -4.53413,0.35296 c -1.07753,0.0848 -1.22856,0.0679 -1.51364,-0.168 -0.90784,-0.74492 -1.44745,-2.6302 -1.54587,-3.31744 -0.20872,-1.46952 0.11539,-3.85027 0.80093,-6.03928 0.76361,-2.44524 1.91072,-5.10939 2.39773,-6.93524 0.0966,-0.36653 0.16799,-0.70082 0,-0.89427 -0.67537,-0.77379 -1.44746,-0.007 -1.72915,0.50229 -2.22973,4.03693 -4.20831,12.06158 -4.66648,16.76709 -0.18326,1.89883 0.39877,4.68856 1.91749,6.31589 1.06058,1.13691 5.63883,1.94464 7.03538,1.02152 0.84674,-0.56166 1.70877,-2.94242 1.83774,-5.10089 0.0696,-1.16408 0,-2.50463 0,-2.50463 z m 60.06529,-12.09043 c 0.3275,-0.55659 0.57525,-1.09111 0.68045,-1.4848 0.14933,-0.5515 0.20872,-1.13863 0,-1.43219 -0.30205,-0.42421 -1.2557,-0.2121 -2.0804,0.15781 -1.42708,0.64313 -2.60643,1.72577 -3.73997,2.68452 -5.28754,4.46626 -18.72194,13.68551 -25.7607,12.76579 -7.23898,-0.94685 2.29082,-6.0223 3.75866,-8.66437 2.09058,-3.76374 3.7705,-9.00547 -0.89766,-10.43427 -1.84964,-0.56676 -4.25244,-1.47292 -3.65004,-2.50294 0.13236,-0.22908 0.46154,-0.39877 0.79923,-0.4921 0.84505,-0.23757 1.74272,-0.003 2.39772,-0.44798 0.17479,-0.11879 1.91242,-3.65004 1.99727,-5.369 0.0237,-0.46156 0,-1.118263 0,-1.118263 l -1.70539,0 c -0.76701,0 -0.91464,0.01534 -1.4865,0.145933 -0.41574,0.09503 -0.83488,0.274899 -1.25231,0.52774 -3.18508,1.91241 -10.38674,12.69283 -3.19526,14.71894 2.34852,0.6618 3.99619,0.99439 3.64324,2.23482 -0.13915,0.48871 -0.92651,1.10978 -1.93106,1.81908 -3.40909,2.40791 -10.75838,11.73748 -3.29031,15.76764 4.14385,2.23651 10.34263,1.11825 13.66178,-1.07923 8.07216,-5.34187 21.8595,-17.47302 22.05125,-17.79713 z M 153.77791,56.453543 c 0.66859,0.517556 -0.2223,2.857584 -0.0457,4.252425 0.17987,1.420321 0.97403,1.540801 0.57017,2.166958 -0.24435,0.380106 -9.13953,-2.961095 -10.01683,-3.76373 -0.53283,-0.487011 -0.80603,-0.912934 -0.77379,-1.337159 0.0424,-0.541312 2.31458,-1.987087 3.53635,-2.250107 1.27436,-0.273201 6.02231,0.381817 6.72992,0.931613 z M 95.942333,123.53892 c 3.93683,-1.83435 13.444587,-6.85888 19.287027,-12.73016 6.81985,-6.8521 5.57941,-9.9286 1.59169,-18.112757 -6.92166,-14.201391 -13.97908,-8.102723 -26.315587,-9.672358 -0.879,-0.111996 -1.82078,-0.325806 -2.94242,-0.690626 -0.80263,-0.259626 -0.9282,-0.453073 -0.83996,-1.318493 0.0357,-0.359744 0.12217,-0.497193 0.85524,-1.384673 0.0595,-0.07127 0.11878,-0.14254 0.17647,-0.21381 4.99399,-6.010429 8.8782,-9.670661 15.928827,-12.270303 1.63072,-0.600717 2.94243,-0.965551 4.29657,-0.449692 0.96214,0.366544 3.1715,2.587776 3.76032,3.782396 0.10005,0.203628 0.22908,0.556584 0.38011,0.982506 0.017,0.04412 0.0323,0.09 0.0475,0.133988 1.54758,4.369524 7.16772,5.728743 11.17751,6.400716 4.30335,0.721184 7.71583,-0.274898 12.56048,-5.014333 2.4147,-2.363799 5.39275,-2.606456 8.43871,-1.696916 4.05219,1.213285 9.90144,6.422776 14.09617,4.213409 5.52341,-2.908491 5.70159,-16.487106 3.35309,-20.765011 -0.39877,-0.727971 -0.70082,-1.420308 -0.69743,-2.06004 0.017,-2.536856 2.00573,-2.838905 -0.20023,-5.458936 -0.83489,-0.990991 -2.01254,-1.535697 -3.36158,-1.7529 -8.60501,-1.388053 -19.2853,8.374214 -23.54114,15.765922 -0.79924,1.391474 -1.45084,2.810084 -1.89882,4.226998 -0.0679,0.215507 -0.13236,0.431013 -0.14933,0.658398 -0.0204,0.305443 -0.14254,0.339381 -1.22179,0.339381 0,0 -0.24774,0 -1.03001,0 -6.05286,0 -9.8115,0.02715 -13.29524,-6.254797 -1.28286,-2.312865 -2.15676,-4.376312 -4.58504,-4.929502 -2.75406,-0.627854 -6.77064,1.303235 -10.1831,3.480361 -9.322797,5.949341 -22.697777,18.33673 -20.627577,32.7689 0.23587,1.645996 1.15729,2.528385 3.27333,2.988246 3.82991,0.831482 11.38961,-0.52604 15.11602,0.303745 0.661787,0.147631 1.301527,0.346168 1.934467,0.459861 1.22687,0.2189 2.42487,0.11376 3.45998,0.507374 0.82131,0.315624 3.46,3.54992 5.15521,6.018916 1.95991,2.85081 2.31456,3.89778 -0.10358,5.85261 -2.06343,1.66638 -6.09699,3.45491 -10.753287,5.13823 -4.44249,1.60696 -9.37709,3.15794 -14.66123,4.56807 -9.89635,2.6404 -28.37393,6.43126 -35.59426,5.38258 -15.4503,-2.24163 -29.68224,-7.61231 -40.2132296,-17.61216 -2.84231,-2.69807 -15.63526,-12.292372 -3.43283,5.19253 6.5856896,9.43309 15.9016896,15.83211 26.6719296,19.86733 31.5149,11.80876 75.785417,-12.09382 64.08695,-6.64507 z M 196.49237,75.256921 c -0.44289,-0.548086 -0.84676,-1.191212 -1.215,-1.954818 -0.2189,-0.453086 -0.41235,-0.875615 -0.59391,-1.265903 -2.81176,-6.06982 -7.69546,-5.336759 -12.06159,-2.082099 -14.44403,10.76177 -15.61829,18.284139 -24.83248,35.202269 -1.45595,2.67091 -3.10532,5.48439 -5.07374,8.47262 -2.11943,3.21735 -4.51038,6.33966 -6.39393,7.54275 -0.47853,0.30544 -2.07362,0.99438 -3.49733,1.52891 -14.54246,5.45554 -12.90834,-23.239096 -11.03325,-29.283463 0.0475,-0.149328 0.095,-0.293564 0.14254,-0.429316 1.56962,-4.427219 3.18847,-10.636186 2.79818,-10.738 -0.13059,-0.03217 -0.28508,-0.04412 -0.42592,-0.02715 -0.19175,0.02552 -0.26302,0.151025 -0.70592,1.252301 -4.01147,9.99477 -4.84805,14.33375 -5.66256,27.237008 -0.44459,7.05233 -0.12041,9.51961 2.04986,16.79765 0.61258,2.05833 1.70031,3.95717 3.25296,5.45385 12.42643,11.99032 25.19053,-16.54991 29.58383,-24.001 6.88094,-11.6713 13.73643,-22.784329 20.69035,-28.188964 3.59572,-2.107566 4.17436,-1.181044 6.5704,3.59233 0.77718,1.550982 1.45425,2.65906 2.99504,3.924949 0.27149,0.222294 0.54639,0.437801 0.82298,0.648217 9.99477,7.549533 40.95986,7.709042 57.85763,1.39484 10.95521,-4.092915 13.47512,-11.455789 19.86735,-20.503674 0.59052,-0.836573 1.99895,-2.572491 1.37958,-3.23769 -0.17647,-0.19175 -0.56337,-0.117155 -0.95875,0 -1.30323,0.388604 -2.6896,1.255694 -3.92154,2.211064 -6.21067,4.824307 -20.25086,12.400978 -28.26194,10.700681 -2.98484,-0.632958 -5.59469,-2.149989 -7.9975,-4.210029 -16.20543,-13.90104 -7.70056,-16.974117 7.71751,-16.607586 2.06683,0.04914 3.71454,0.149328 4.12179,0.300352 1.50855,0.558281 3.46337,1.846217 4.12346,-0.295261 0.59563,-1.932772 -1.94295,-5.511553 -2.8966,-6.531378 -0.13059,-0.139146 -0.26641,-0.278292 -0.40895,-0.415741 -10.66505,-10.390149 -21.58292,-5.058481 -26.08312,3.819714 -5.06184,9.982892 -2.90508,15.891507 1.80213,24.050228 0.0747,0.130729 0.14593,0.264717 0.21211,0.398772 0.25284,0.52604 0.42253,1.086018 0.19854,1.34225 -0.21212,0.242657 -0.77718,0.21381 -1.30492,0.14254 -6.15297,-0.819604 -17.34915,0.600703 -22.85729,-6.241222 z M 121.36536,40.816572 c 0.039,-4.413644 -0.68216,-9.813201 -1.01814,-14.070716 -0.3309,-4.182879 -0.33939,-7.641166 0.90614,-8.988507 0.72288,-0.782272 2.12283,-1.345644 3.72472,-1.566241 10.21534,-1.406719 11.57456,2.212761 14.34222,-2.767648 0.0713,-0.128965 0.14423,-0.269808 0.2172,-0.419135 1.45084,-2.972974 3.04593,-8.2927633 0.003,-10.6090489 -1.97181,-1.50006196 -5.08224,-2.7353935 -6.43298,-2.30948451 -1.23363,0.3885907 -2.30439,1.56624111 -2.77273,2.72861941 -0.6618,1.6494029 -0.51926,3.8333166 -1.27268,4.8565353 -0.71949,0.9774159 -3.58896,0.663489 -5.78135,1.6018761 -3.71284,1.5866176 -4.95836,6.5839956 -5.22478,11.6611416 -0.18325,3.493909 0.55998,6.343022 0.79925,11.138455 0.28338,5.662564 -0.13576,14.038489 -0.31902,17.249029 -0.34787,6.047761 0.55149,3.673794 1.29643,1.131848 1.05719,-3.607629 0.47006,0.266413 1.08943,-4.342388 0.24096,-1.793612 0.42762,-3.687369 0.44289,-5.294336 z M 239.12367,16.096081 c -0.23078,0.313927 -0.47853,0.605794 -0.68386,0.884086 -0.57014,0.76191 -1.15727,3.577085 -1.39993,6.709553 -0.0916,1.19462 -0.20193,2.53687 -0.31223,3.826529 -1.03003,12.175277 0.4921,6.585679 1.39316,2.652246 1.73931,-7.600427 2.80666,-11.415064 8.44547,-16.80273 0.0373,-0.03733 0.0763,-0.07466 0.11539,-0.111995 1.77837,-1.683328 8.73397,-6.8537902 9.56715,-8.8815888 1.68672,-4.10651794 1.40334,-5.3825751 -3.40908,-3.5635091 -0.26471,0.10018513 -0.5447,0.2070221 -0.83827,0.3224115 -11.91396,4.6325578 -50.96651,18.2790484 -55.91127,34.8679824 -1.03682,3.473559 -0.93331,6.743491 0.50738,8.601613 1.11147,1.432172 7.6649,6.505924 8.96134,5.791528 1.71388,-0.943491 2.76934,-5.582809 2.3078,-6.721431 -0.40556,-1.001186 -1.86321,-1.165786 -3.64326,-1.780064 -2.07362,-0.714396 -3.54654,-1.462731 -4.37632,-2.255184 -7.26613,-6.933544 29.43619,-22.353312 36.60901,-25.280455 7.05572,-2.879657 0.52095,4.680044 2.66752,1.741008 z m -43.51199,-0.298655 c 0,0 5.87466,-0.744954 5.87466,-0.744954 0,0 0.31394,2.082114 0.78228,3.860468 5.48101,20.793858 6.83004,-8.452272 6.63998,-4.72248 0.0272,-0.536222 0.0357,-0.926509 0.0357,-0.926509 l 4.95836,0.359743 c 1.07584,0.07806 1.26759,0.08145 1.9124,0.02878 2.8457,-0.23587 3.06462,-3.095151 3.51939,-6.0443809 0.55658,-3.5991169 0.11878,-5.6710486 -1.25233,-6.5721039 -6.60774,-4.3423738 -11.02137,6.1428011 -11.26063,9.9455598 -0.008,0.147631 -0.0204,0.291867 -0.0322,0.434407 -0.0509,0.571856 -0.37672,1.528909 -0.7195,2.406208 -1.05377,2.692984 -1.14032,1.724039 -2.02949,-1.036807 -0.0323,-0.101815 -0.0645,-0.203629 -0.095,-0.303746 -0.44629,-1.46273 -6.61453,-20.7429377 -12.67926,-7.4561902 -0.59731,1.308312 -0.90105,2.9169621 -1.10468,4.7479336 -0.31393,2.8134646 -0.50398,3.9792366 1.29983,4.8429736 0.63803,0.307139 1.44915,0.549769 2.20935,0.863696 0.18157,0.07643 0.35974,0.154432 0.51586,0.280003 0.21211,0.16969 0.35465,0.173084 1.42541,0.03733 z"
     style="fill:#000000;stroke:none" />
</svg>
