<?xml version="1.0" encoding="UTF-8" standalone="yes"?>
<svg xmlns="http://www.w3.org/2000/svg" xmlns:xlink="http://www.w3.org/1999/xlink"
  width="595.276pt" height="841.89pt" viewBox="0 0 595.276 841.89">
  <path
    style="stroke:none; fill:#000000"
    d="m 14.280551,7.761434 c 0.621,6.43 1.192,3.318 3.442,2.158 4.274,-1.201 5.55,0.849 7.501,4.217 1.785,3.08 0.731,-0.546 4.172,-4.031 1.006,-1.019 2.605,-1.118 4.427,-2.31 0.999,-0.654 3.348,-6.534 2.528,-7.47300005 -0.793,-0.908 -3.385,0.295 -4.489,1.22300005 -1.07,0.899 -1.905,1.781 -2.615,2.518 -3.563,6.294 -3.714,1.489 -6.852,-0.668 -11.14,-7.655 -8.426,1.131 -8.114,4.366 z m -1.993,18.806 c 0.236,0.376 0.994,0.035 1.744,-0.316 11.165,-5.225 24.975,-13.518 28.11,-14.002 0.391,-0.06 0.777,-0.103 1.163,-0.08 1.005,8.996 1.11,-1.577 6.756,-3.633 2.687,-0.978 6.802,-1.779 8.149,-3.102 0.42,-0.413 1.942,-4.56000005 1.189,-5.32600005 -0.513,-0.523 -7.694,0.99600005 -8.587,1.35500005 -2.086,0.836 -3.577,2.304 -5.363,3.666 -2.255,1.721 -16.746,8.468 -25.075,12.076 -2.076,0.899 -7.736,5.331 -8.059,6.31 -0.366,1.108 -0.432,2.406 -0.027,3.052 z m 50.84311,-18.806 c 0.621,6.43 1.192,3.318 3.442,2.158 4.274,-1.201 5.55,0.849 7.501,4.217 1.785,3.08 0.731,-0.546 4.172,-4.031 1.006,-1.019 2.605,-1.118 4.427,-2.31 0.999,-0.654 3.348,-6.534 2.528,-7.47300005 -0.793,-0.908 -3.385,0.295 -4.489,1.22300005 -1.07,0.899 -1.905,1.781 -2.615,2.518 -3.563,6.294 -3.714,1.489 -6.852,-0.668 -11.14,-7.655 -8.426,1.131 -8.114,4.366 z m -1.993,18.806 c 0.236,0.376 0.994,0.035 1.744,-0.316 11.165,-5.225 24.975,-13.518 28.11,-14.002 0.391,-0.06 0.777,-0.103 1.163,-0.08 1.005,8.996 1.11,-1.577 6.756,-3.633 2.686999,-0.978 6.801999,-1.779 8.148999,-3.102 0.42,-0.413 1.942,-4.56000005 1.189,-5.32600005 -0.513,-0.523 -7.694,0.99600005 -8.586999,1.35500005 -2.086,0.836 -3.577,2.304 -5.363,3.666 -2.255,1.721 -16.746,8.468 -25.075,12.076 -2.076,0.899 -7.736,5.331 -8.059,6.31 -0.366,1.108 -0.432,2.406 -0.027,3.052 z m 2.651,3.063 c 0,0 -4.358,5.116 -5.246,8.342 -0.969,3.514 -0.064,7.248 -0.064,7.248 0,0 -8.532,0.401 -13.132,0.267 -2.223,-0.065 -6.766,-0.573 -7.713,-2.15 -0.543,-0.904 -0.178,-2.238 -1.494,-1.454 -0.817,0.487 -1.684,1.915 -2.812,2.832 -1.838,1.495 -7.742,3.066 -8.316,3.072 -2.345,0.024 -10.163,-3.276 -12.522,-6.398 -0.545,-0.722 -0.835,-1.443 -1.123,-2.297 -0.467,-1.383 -1.6880002,-8.852 -2.4500002,-19.228 -0.184,-2.503 -0.319,-4.26 -0.413,-5.473 -1.669,-9.206 3.2270002,-21.565 -4.439,-7.121 -0.813,1.532 -1.609,3.174 -1.838,4.053 -0.295,1.136 -0.202,2.173 -0.029,3.362 0.729,5.039 2.866,6.952 3.266,12.898 0.755,11.221 -2.1,20.732 5.4890002,26.084 2.966,2.092 8.627,4.204 11.287,3.815 1.685,-0.247 3.853,-1.029 5.916,-2.433 2.426,-1.651 3.247,-2.699 4.233,-2.459 0.923,0.225 1.997,1.384 3.322,2.151 1.002,0.58 12.455,0.68 15.481,0.135 1.931,-0.348 10.739,-1.626 12.097,-3.896 0.506,-0.847 0.652,-2.249 1.173,-3.421 1.993,-4.487 5.676,-4.587 3.787,-8.165 -0.533,-1.011 -1.572,-1.701 -2.539,-3.83 -0.999,-2.199 -1.921,-5.934 -1.921,-5.934 z m 49.430999,-2.135 2.691,40 c 0,0 1.804,-3.103 2.877,-5.06 1.252,-2.283 1.568,-3.38 1.474,-5.122 -0.396,-7.381 -3.11,-36.628 -3.11,-36.628 0,0 0.067,0.012 0.481,0.085 4.104,3.356 4.814,3.738 4.524,2.815 -5.631,-12.172 -1.512,-29.532 -7.09,-21.567 -0.969,1.107 -1.991,2.964 -2.65,4.333 -0.683,1.42 -1.023,2.262 -0.89,3.709 0.29,3.133 2.803,9.104 2.603,12.517 -0.048,0.819 -0.252,1.491 -0.561,2.178 -0.417,0.926 -0.452,1.2 -0.349,2.74 z m -60.531999,-1.898 c -0.147,1.692 -2.715,3.933 -3.584,6.589 -0.118,0.358 -0.156,0.675 -0.008,0.857 0.965,1.184 2.791,-1.38 3.235,-2.207 2.142,-3.997 3.974,-8.424 1.373,-11.396 -0.103,-0.119 -0.207,-0.233 -0.31,-0.344 -3.206,-3.241 -7.379,-1.309 -9.999,1.745 -2.287,2.667 -2.92,4.244 -1.418,6.666 2.417,3.896 1.94,2.019 3.45,-0.391 1.674,-2.672 5.272,-7.914 7.121,-3.012 0.14,0.37 0.195,0.859 0.14,1.493 z m -23.628,52.91 c 5.876,2.272 7.118,2.874 13.852,1.357 7.625,-1.718 9.939,-3.154 18.484,-7.239 6.564,-3.138 16.215,-8.638 17.692,-10.144 2.156,-2.198 3.595,-4.807 5.435,-7.772 0.17,-0.274 0.343,-0.55 0.439,-0.859 0.129,-0.416 0.145,-0.634 0.159,-2.177 0,0 0.073,-8.392 0.073,-8.392 0,0 0.177,0.005 0.444,0.005 3.167,1.65 3.901,1.43 3.68,0.462 -4.663,-5.55 -5.803,-11.345 -6.685,-14.026 -0.818,-2.49 -2.991,-0.157 -4.264,1.503 -1.305,1.702 -2.418,4.203 -2.843,6.254 -0.523,2.519 0.518,2.449 2.241,5.165 0.382,0.602 2.85,8.351 2.201,9.933 -0.196,0.477 -0.65,0.844 -1.155,1.225 -8.69,6.562 -23.684,14.058 -32.729,16.294 -4.929,1.218 -12.126,2.627 -16.422,3.44 -10.189,1.927 -16.131,-1.03 -0.602,4.971 z m 67.564,-39.48 c 0,0 3.36,7.488 4.130999,11.093 0.312,1.461 0.199,2.284 0.536,4.007 0.451,2.298 1.703,6.198 1.703,6.198 0,0 -1.878,1.828 -3.926999,3.642 -9.813,8.691 -25.957,13.793 -38.474,16.673 -0.424,0.097 -0.817,0.184 -1.176,0.257 -1.554,0.32 -15.459,-1.037 -1.649,3.145 1.562,0.473 4.461,1.351 6.25,1.893 9.278,2.809 34.097,-7.656 39.455999,-16.679 0.929,-1.563 1.862,-4.179 2.6,-6.218 0.526,-1.453 0.58,-1.786 0.536,-3.329 0,0 -0.39,-13.543 -0.39,-13.543 0,0 0.313,0.003 0.599,0.005 2.822,0.918 3.803,1.414 3.888,1.246 -8.783,-11.045 -4.42,-17.467 -9.122,-13.829 -1.269,1.391 -4.960999,5.439 -4.960999,5.439 z m -92.6620002,24.916 c 0.085,1.268 0.086,2.825 -0.284,3.812 -0.107,0.288 -0.246,0.527 -0.406,0.734 -2.614,3.385 -5.956,8.949 0.283,11.422 2.062,0.817 4.443,1.145 5.351,0.273 0.888,-0.854 2.0500002,-4.819 1.5760002,-5.898 -0.039,-0.09 -0.087,-0.179 -0.143,-0.268 -0.7490002,-5.652 -6.1660002,-2.2 -6.1380002,-3.362 0.005,-0.221 0.015,-0.447 0.03,-0.661 0.145,-2.052 0.827,-3.022 1.18,-4.278 0.399,-1.419 0.34,-8.755 -0.764,-10.726 -0.276,-0.493 -0.606,-0.696 -1.31,-0.622 -0.269,0.028 -0.38,0.155 -0.807,1.133 -3.809,8.733 1.014,2.268 1.432,8.441 z m 89.0900002,-43.603 -6.861,6.86 6.861,6.86 6.86,-6.86 -6.86,-6.86 z m -62.825,7.316 -6.861,6.86 6.861,6.86 6.86,-6.86 -6.86,-6.86 z m 1.99,38.957 4.841,4.841 6.86,-6.861 -6.86,-6.86 -4.841,4.84 -4.84,-4.84 -6.86,6.86 6.86,6.861 4.84,-4.841 z"/>
</svg>