<?xml version="1.0" encoding="UTF-8" standalone="yes"?>
<svg>
  <path
    style="stroke:none; fill:#000000"
    d="M 9.2540814,65.965311 C 9.2540814,65.965311 9.9154814,66.100311 10.369581,65.965311 C 10.920581,65.800311 11.363881,64.012311 11.577981,62.362311 C 11.973281,59.315311 13.160581,56.267311 13.437181,53.612311 C 13.548481,52.543311 13.512281,51.538311 13.437181,50.524311 C 13.116081,46.188311 12.085481,41.691311 11.577981,34.764311 C 11.087781,28.072311 11.085881,19.112311 11.085881,19.112311 C 11.085881,19.112311 21.095981,18.443311 25.056981,17.327311 C 26.113981,17.029311 26.739981,16.699311 27.380981,16.040311 C 28.251981,15.144311 30.848981,8.718311 30.820981,7.530311 C 30.752981,4.728311 27.570981,-0.74568901 24.219981,0.085310986 C 22.719981,0.45731099 21.593881,1.803311 20.873681,3.688311 C 19.984681,6.014311 20.020281,8.705311 18.800581,9.841311 C 17.643681,10.918311 15.358581,10.663311 13.498881,11.342311 C 9.7870814,12.697311 8.3520814,20.258311 7.8597814,24.944311 C 7.4862814,28.499311 7.7360814,38.210311 8.3245814,43.010311 C 8.7893814,46.801311 9.3965814,49.874311 9.4864814,55.156311 C 9.5643814,59.731311 9.2540814,65.965311 9.2540814,65.965311 z M 23.197981,9.216311 L 23.197981,9.864311 C 23.197981,9.864311 20.873681,9.864311 20.873681,9.864311 C 20.873681,9.864311 20.873681,9.592311 20.873681,9.216311 C 20.873681,8.707311 21.291381,7.805311 21.750481,7.805311 C 21.785881,7.805311 21.823281,7.805311 21.862581,7.805311 C 22.402981,7.805311 23.197981,8.617311 23.197981,9.216311 z M 91.446981,58.807311 L 93.430981,55.249311 C 93.291981,53.902311 96.905981,50.155311 97.331981,47.542311 C 97.600981,45.893311 95.671981,41.986311 93.731981,40.255311 C 92.458981,39.119311 89.763981,37.649311 88.247981,37.424311 C 85.898981,37.076311 82.283981,37.834311 83.506981,35.674311 C 84.377981,34.135311 93.224981,29.908311 94.754981,29.704311 C 95.777981,29.568311 96.863981,29.596311 97.449981,30.219311 C 98.122981,30.934311 99.085981,32.702311 99.085981,32.702311 C 99.085981,32.702311 101.76098,29.165311 102.76898,26.676311 C 103.74498,24.266311 103.09098,23.088311 101.01998,22.498311 C 95.375981,20.891311 84.943981,28.245311 81.265981,31.118311 C 80.613981,31.626311 80.032981,32.116311 79.555981,32.792311 C 78.591981,34.158311 78.049981,36.282311 76.999981,37.424311 C 76.242981,38.247311 75.222981,38.560311 74.210981,39.226311 C 71.528981,40.990311 69.320981,44.321311 68.400981,47.203311 C 67.779981,49.153311 67.006981,52.350311 67.006981,52.350311 C 67.006981,52.350311 65.736981,51.649311 64.914981,51.063311 C 62.998981,49.697311 62.226981,47.116311 61.661981,44.980311 C 61.112981,42.907311 60.408981,25.372311 60.731981,21.855311 C 61.099981,17.866311 61.616981,12.740311 61.490981,6.848311 C 61.425981,3.816311 61.196981,0.054310986 61.196981,0.054310986 C 61.196981,0.054310986 60.220981,-0.067689014 59.644981,0.054310986 C 58.289981,0.34031099 56.724981,5.773311 56.548981,6.735311 C 55.960981,9.958311 56.496981,48.947311 57.710981,52.865311 C 58.711981,56.093311 62.091981,60.548311 65.844981,60.585311 C 67.702981,60.603311 69.768981,59.357311 71.793981,59.041311 C 74.439981,58.628311 77.785981,59.840311 80.717981,60.328311 C 83.278981,60.754311 86.702981,60.636311 88.163981,60.071311 C 89.581981,59.521311 90.508981,58.544311 91.390981,58.790311 C 91.409981,58.795311 91.427981,58.800311 91.446981,58.807311 z M 78.393981,50.806311 L 76.632981,50.806311 C 75.841981,50.806311 75.699981,50.787311 75.213981,50.614311 C 73.737981,50.090311 72.199981,48.474311 72.319981,47.306311 C 72.348981,47.028311 72.445981,46.922311 73.290981,46.245311 C 75.127981,44.773311 75.925981,44.881311 76.999981,45.917311 C 77.599981,46.496311 78.269981,47.421311 78.393981,48.747311 C 78.476981,49.637311 78.393981,50.806311 78.393981,50.806311 z M 91.407981,52.350311 L 81.647981,52.350311 C 81.647981,52.350311 82.953981,50.220311 83.691981,48.710311 C 84.902981,46.233311 84.664981,45.290311 85.923981,45.659311 C 88.418981,46.391311 91.299981,48.610311 91.407981,50.291311 C 91.459981,51.095311 91.407981,52.350311 91.407981,52.350311 z M 51.256981,61.200311 C 50.857981,62.045311 50.372981,63.256311 49.813981,63.859311 C 44.743981,69.329311 38.890981,75.205311 33.436981,74.129311 C 32.815981,74.006311 32.169981,73.557311 31.527981,72.882311 C 27.684981,68.841311 25.491981,61.374311 26.165981,55.804311 C 26.237981,55.216311 26.286981,54.860311 26.343981,54.627311 C 26.343981,54.627311 24.913981,54.275311 24.913981,54.275311 C 24.913981,54.275311 24.225981,59.822311 23.784981,63.380311 C 21.928081,78.354311 29.117981,81.623311 30.160981,82.013311 C 32.151981,82.757311 34.342981,82.780311 35.949981,82.339311 C 40.259981,81.156311 48.404981,75.000311 50.493981,70.355311 C 51.386981,68.369311 51.687981,65.973311 52.262981,63.985311 C 52.553981,62.980311 52.898981,61.200311 52.463981,60.535311 C 52.471981,60.123311 52.528981,59.699311 52.691981,59.322311 C 53.511981,57.421311 54.066981,54.113311 53.760981,52.477311 C 53.585981,51.546311 52.348981,48.694311 53.027981,48.073311 C 53.918981,47.259311 55.201981,48.264311 54.689981,46.620311 C 54.288981,45.329311 52.324981,44.335311 51.203981,42.708311 C 50.099981,41.105311 49.814981,38.887311 48.879981,37.561311 C 48.358981,36.821311 47.341981,35.865311 46.416981,35.982311 C 46.165981,36.013311 46.075981,36.154311 45.515981,37.382311 C 45.099981,38.294311 44.794981,39.254311 44.659981,40.283311 C 44.557981,41.051311 44.550981,41.857311 44.267981,42.490311 C 44.014981,43.054311 43.933981,43.043311 43.999981,43.943311 C 44.101981,45.320311 46.933981,50.678311 48.515981,53.955311 C 49.352981,55.689311 49.882981,57.429311 50.506981,59.435311 C 50.661981,59.932311 50.932981,60.613311 51.256981,61.200311 z M 28.197981,45.205311 L 28.197981,46.029311 L 26.708981,46.029311 C 26.040981,46.029311 25.913981,46.009311 25.444981,45.834311 C 24.638981,45.534311 23.652981,44.588311 23.554981,44.200311 C 23.310981,43.236311 23.863981,42.414311 24.525981,42.374311 C 24.833981,42.355311 25.230981,42.353311 25.566981,42.426311 C 26.424981,42.611311 26.882981,43.279311 27.408981,43.885311 C 28.118981,44.703311 28.197981,44.835311 28.197981,45.205311 z M 15.323381,72.822311 C 12.529581,74.257311 10.222181,75.003311 5.4230814,76.652311 C 2.8815814,77.526311 -1.1508186,79.219311 0.31048138,80.688311 C 0.78978138,81.169311 5.8538814,82.428311 7.0963814,82.571311 C 8.1386814,82.692311 9.3186814,82.623311 10.514181,82.404311 C 16.082281,81.384311 33.483981,66.291311 36.191981,60.936311 C 37.860981,57.634311 38.262981,54.196311 37.683981,48.823311 C 37.124981,43.636311 35.948981,41.485311 32.380981,37.794311 C 29.678981,35.000311 26.872981,32.850311 23.549981,34.963311 C 19.937381,37.260311 18.368981,48.225311 20.063781,51.690311 C 20.400081,52.378311 21.106081,53.059311 21.893881,53.511311 C 25.048981,55.324311 25.234981,54.445311 28.316981,53.674311 C 29.385981,53.406311 30.539981,53.275311 30.799981,53.234311 C 33.492981,52.816311 33.851981,53.005311 34.123981,55.456311 C 34.227981,56.393311 34.141981,56.608311 33.261981,57.598311 C 33.261981,57.598311 31.761981,59.287311 30.372981,60.851311 C 24.196981,67.807311 22.740981,69.014311 15.323381,72.822311 z M 103.38498,45.301311 L 109.06198,39.015311 L 103.38498,32.729311 L 97.707981,39.015311 L 103.38498,45.301311 z M 64.644981,71.745311 C 64.644981,71.745311 68.346981,70.406311 69.814981,70.775311 C 70.588981,70.971311 71.389981,72.513311 71.892981,73.695311 C 72.804981,75.841311 73.683981,78.604311 74.017981,80.797311 C 74.128981,81.528311 74.248981,82.201311 74.927981,82.458311 C 75.354981,82.620311 76.005981,82.630311 76.005981,82.630311 C 76.005981,82.630311 76.007981,82.619311 76.010981,82.597311 C 76.334981,80.575311 77.056981,77.184311 77.240981,75.139311 C 77.433981,72.991311 77.390981,72.246311 79.042981,72.382311 C 81.537981,72.588311 82.385981,73.076311 83.482981,70.870311 C 84.465981,68.892311 85.544981,64.854311 83.826981,63.545311 C 78.514981,61.961311 76.531981,69.700311 76.198981,71.471311 C 75.728981,73.972311 75.532981,76.655311 75.532981,76.655311 C 75.532981,76.655311 74.230981,72.023311 73.273981,69.521311 C 72.197981,66.707311 69.418981,62.917311 66.420981,63.864311 C 64.930981,64.335311 64.407981,65.684311 64.408981,67.469311 C 64.409981,69.112311 64.644981,71.745311 64.644981,71.745311 z M 26.945981,28.965311 L 27.151981,28.963311 C 27.435981,28.961311 27.727981,28.953311 27.996981,28.936311 C 28.513981,28.905311 29.105981,28.777311 29.734981,28.579311 C 36.074981,25.633311 37.206981,23.843311 42.147981,19.038311 C 43.868981,17.364311 44.851981,16.408311 44.851981,16.408311 L 45.733981,17.336311 C 45.908981,17.579311 45.960981,17.656311 46.012981,17.737311 C 46.383981,18.308311 46.687981,18.920311 46.901981,19.705311 C 47.054981,20.265311 47.511981,23.821311 48.279981,23.642311 C 48.862981,23.506311 49.211981,21.041311 49.316981,20.167311 C 49.599981,17.275311 48.485981,15.277311 47.033981,13.309311 C 46.824981,13.026311 46.709981,12.955311 46.709981,12.955311 L 48.076981,9.955311 C 48.501981,8.758311 49.146981,7.469311 49.443981,6.344311 C 49.985981,4.293311 48.947981,0.68031099 46.634981,0.10431099 C 44.698981,-0.37868901 41.861981,0.90031099 41.094981,2.189311 C 40.808981,2.669311 39.780981,8.144311 40.110981,10.144311 C 40.264981,11.074311 40.653981,12.294311 41.013981,13.308311 C 41.400981,14.396311 42.204981,14.870311 42.204981,14.870311 C 42.204981,14.870311 40.881981,16.077311 40.383981,16.532311 C 40.040981,16.845311 39.180981,17.634311 38.100981,18.613311 C 35.312981,21.140311 32.083981,24.201311 28.869981,26.029311 C 28.218981,26.399311 27.533981,26.788311 26.932981,27.130311 C 24.098981,28.741311 24.054981,28.756311 26.945981,28.965311 z M 46.426981,9.896311 L 45.175981,11.742311 L 43.520981,9.907311 C 42.763981,9.068311 42.085981,7.916311 42.332981,7.191311 C 42.742981,5.989311 45.387981,5.698311 46.039981,6.010311 C 47.730981,6.817311 47.499981,8.313311 46.426981,9.896311 z M 67.180981,24.150311 C 67.087981,25.076311 67.082981,26.325311 67.319981,26.927311 C 67.943981,28.511311 70.539981,25.447311 73.361981,22.553311 C 75.853981,19.997311 77.987981,18.140311 81.846981,15.537311 C 86.419981,12.454311 93.413981,8.325311 93.413981,8.325311 L 92.882981,17.148311 L 93.626981,17.148311 C 93.960981,17.148311 94.009981,17.000311 94.108981,15.663311 C 94.273981,13.448311 95.820981,9.623311 96.368981,8.913311 C 97.577981,7.349311 99.770981,6.302311 100.79598,4.607311 C 101.47798,3.479311 102.09398,0.58831099 101.71398,0.16431099 C 101.14898,-0.46568901 97.177981,0.88031099 95.671981,1.451311 C 93.238981,2.372311 81.231981,9.834311 78.552981,12.088311 C 74.942981,15.127311 71.661981,18.395311 68.351981,21.725311 C 67.422981,22.659311 67.305981,22.902311 67.180981,24.150311 z M 82.974981,3.263311 L 82.974981,0.00031098617 L 81.734981,0.00031098617 C 81.177981,0.00031098617 81.082981,0.013310986 80.788981,0.13231099 C 80.569981,0.22031099 80.373981,0.34931099 80.185981,0.51431099 C 78.577981,1.940311 77.638981,5.785311 76.281981,5.147311 C 75.776981,4.909311 75.494981,3.919311 74.865981,3.294311 C 73.501981,1.939311 70.562981,2.037311 69.495981,3.603311 C 68.458981,5.125311 69.112981,7.405311 69.728981,9.264311 C 70.270981,10.902311 71.554981,10.964311 73.433981,9.327311 C 74.084981,8.760311 74.233981,8.813311 74.925981,9.848311 C 76.220981,11.784311 77.756981,12.794311 78.484981,11.838311 C 78.987981,11.179311 79.120981,9.648311 79.724981,8.354311 C 80.046981,7.663311 81.350981,5.806311 82.366981,5.181311 C 82.913981,4.844311 82.974981,4.653311 82.974981,3.263311 z"/>
</svg>