<?xml version="1.0"?>
<svg xmlns="http://www.w3.org/2000/svg" version="1.1">
  <path
     d="m 87.34133,-3.78805 c -6.005,-3.827 -29.081,7.778 -35.286,11.773 -3.682,2.371 -5.327,5.405 -6.065,9.991 -0.622,3.866 0.18,7.693 3.769,9.883 0.641,0.391 1.348,0.802 2.05,1.191 4.913,2.722 5.717,2.4 6.941,5.991 1.216,3.567 3.48,9.825 3.206,13.759 -0.218,3.134 -2.371,2.343 -3.565,2.343 -1.961,10e-4 -4.017,-0.392 -5.176,-1.974 -2.097,-2.863 -3.75,-8.154 -6.584,-4.756 -1.044,1.659 -1.138,4.664 -1.005,6.649 0.002,0.026 0.004,0.054 0.007,0.082 0.627,7.138 3.75,9.881 2.907,13.67 -1.458,6.551 -18.651,16.605 -23.485,19.016 -4.16,2.076 -4.706,1.964 -9.163,4.892 -0.606,0.398 -0.673,0.493 -0.673,0.947 0,0 0,0.001 0,0.038 0,1.542 14.47,-1.623 15.631,-2.162 10.516,-4.884 25.494,-17.952 22.675,-27.677 -0.202,-0.698 -0.46,-1.255 -0.46,-1.255 0,0 0.45,0.02 1.574,0.073 4.873,0.225 8.527,1.149 9.859,-5.019 0.06,-0.279 0.121,-0.555 0.182,-0.822 1.166,-5.066 2.065,-0.491 2.684,0.852 0.099,0.217 0.2,0.425 0.301,0.626 2.701,5.376 9.085,7.367 14.153,6.599 5.837,-0.884 7.236,-3.06 9.355,-8.659 1.044,-2.758 1.882,-5.765 1.637,-7.17 -0.306,-1.756 -3.861,-7.27 -5.416,-8.035 -1.732,-0.853 -3.091,3.26 -3.234,6.072 -0.026,0.507 -0.002,0.938 0.145,1.337 0.381,1.028 1.583,1.847 2.747,3.503 1.912,2.718 2.141,3.428 0.585,4.168 -2.687,1.277 -4.68,1.72 -7.595,1.338 -8.887,-1.166 -11.138,-10.764 -13.781,-19.036 -0.49,-1.533 -0.838,-2.69 -0.882,-2.982 -0.048,-0.315 -0.093,-0.641 -0.093,-0.641 0,0 2.855,0.593 4.85,0.473 0.754,-0.046 3.63,-1.398 4.325,-2.034 1.047,-0.958 3.482,-3.614 3.146,-5.305 -0.017,-0.081 -0.034,-0.16 -0.053,-0.237 -0.917,-3.755 -5.72,-3.214 -8.216,-4.332 -0.425,-0.19 -0.815,-0.434 -1.168,-0.765 -0.568,-0.531 -0.812,-1.195 -0.262,-1.56 0.468,-0.311 2.587,-0.559 3.061,-0.426 0.166,0.047 0.325,0.128 0.474,0.242 2.361,1.803 3.831,0.391 3.03,-3.713 -0.103,-0.529 -0.61,-0.562 -2.202,-0.537 -0.192,0.003 -0.387,0.009 -0.578,0.016 -2.111,0.087 -11.699,3.015 -7.194,8.421 1.932,2.318 6.804,2.883 8.419,3.698 0.756,0.38 1.32,0.86 1.019,1.349 -0.164,0.266 -1.086,0.632 -1.753,0.85 -2.108,0.688 -7.594,-0.322 -9.67,-0.767 -0.464,-0.1 -0.766,-0.176 -0.828,-0.207 -1.741,-0.875 -2.998,-2.55 -5.05,-3.819 -2.932,-1.813 -5.538,-2.229 -6.947,-4.114 -1.079,-1.444 0.378,-2.395 2.113,-3.262 4.26,-2.128 24.356,-14.937 31.264,-11.826 5.953,2.681 1.506,8.591 -1.241,12.605 0.953,-1.392 -4.452,6.675 -0.481,3.833 0.265,-0.19 0.566,-0.444 0.888,-0.737 2.098,-1.906 3.729,-4.709 5.036,-7.513 2.858,-6.131 4.809,-11.92 0.073,-14.938 z m -56.536,51.162 0,1.444 1.55,0 c 0.696,0 0.831,-0.028 1.348,-0.275 0.719,-0.342 1.753,-1.385 2.256,-1.871 0.135,-0.131 0.273,-0.263 0.437,-0.356 0.222,-0.124 0.316,-0.138 0.94,-0.138 l 1.389,0 c 0,0 0.1,0.823 0,1.521 -0.099,0.7 -1.774,2.732 -3.162,3.838 -1.772,1.412 -3.035,2.751 -2.358,3.842 0.182,0.293 0.651,0.712 1.152,0.655 0.13,-0.015 0.223,-0.09 0.934,-0.755 2.49,-2.329 6.702,-7.664 5.834,-11.425 -0.364,-1.577 -2.604,-2.033 -4.243,-1.756 -1.268,0.214 -3.877,1.653 -5.068,2.585 -0.468,0.366 -0.744,0.721 -0.903,1.474 -0.095,0.446 -0.106,0.568 -0.106,1.217 z m 50.098,28.497 5.863,-5.862 -5.863,-5.863 -5.862,5.863 5.862,5.862 z m -66.868,-59.55 -0.14,-3.203 c -0.056,-1.295 -0.038,-1.527 0.187,-2.321 0.167,-0.588 0.343,-1.232 0.79,-1.647 1.088,-1.01 3.782,-0.661 5.031,-1.493 1.798,-1.199 1.799,-5.316 0.416,-6.985 -1.468,-1.77 -4.435,1.041 -5.65,2.649 -0.747,0.988 -1.454,2.119 -1.772,3.44 -0.147,0.613 -0.229,1.308 -0.344,1.916 l -0.565,2.98 -1.863,-2.372 c -2.552,-3.36 -1.774,-4.359 -5.523,-5.273 -1.256,-0.306 -3.98,-0.191 -4.504,1.223 -0.409,1.107 0.552,3.798 1.155,4.437 0.463,0.492 2.339,1.711 3.114,1.786 1.267,0.122 3.854,-0.649 3.854,-0.649 0,0 2.088,3.006 3.364,4.418 0.557,0.616 1.017,1.112 1.731,1.125 0.295,0.006 0.719,-0.031 0.719,-0.031 z m 13.159,22.899 0.559,-0.01 c 0.251,-0.004 0.318,-0.157 0.674,-1.529 2.043,-7.887 2.416,-12.243 -2.61,-17.301 -0.827,-0.833 -1.792,-1.532 -2.413,-0.785 -0.422,0.507 -0.852,4.082 -0.66,4.863 0.336,1.366 1.332,1.809 2.482,2.736 2.598,2.094 3.249,3.665 2.919,6.455 -0.254,2.141 -0.951,5.571 -0.951,5.571 z m -20.721,-4.769 c -0.042,-1.116 -0.168,-2.518 -0.535,-2.871 -0.212,-0.204 -0.506,-0.056 -0.69,-0.167 -0.828,-0.497 0.581,-2.548 1.252,-3.331 6.094,-7.114 21.889,-15.947 30.233,-17.774 0.796,-0.174 1.591,-0.315 1.741,-0.046 0.075,0.134 -0.01,0.369 -0.138,0.635 -0.302,0.623 -0.784,1.378 -1.32,2.187 -11.113,16.781 6.417,-6.508 11.391,-7.162 0.455,-0.225 0.883,-0.406 1.261,-0.525 1.936,-0.61 4.032,-0.739 4.287,-2.594 0.035,-0.261 0.04,-0.585 0.032,-0.9 -0.085,-3.04 -5.045,-1.585 -8.541,-0.256 -3.235,1.231 -8.039,3.259 -13.136,5.616 -6.594,3.051 -26.336,12.209 -29.114,20.163 -0.896,2.563 -0.729,5.434 1.055,7.905 0.077,0.106 0.146,0.201 0.21,0.287 -0.806,-1.094 2.184,3.507 2.012,-1.167 z"
     style="fill:#000000;stroke:none" />
</svg>
