<?xml version="1.0" encoding="UTF-8" standalone="no"?>
<svg>
  <path
     style="fill:#000000;stroke:none"
     d="m 139.28921,33.838749 -7.83545,7.83546 7.83545,7.8367 7.83546,-7.8367 -7.83546,-7.83546 z m -10.61017,-13.45614 c -7.408,1.01115 -22.36149,2.09979 -27.76844,8.55039 -0.64119,0.76492 -1.192379,1.63983 -1.306119,2.61223 -0.15623,1.33487 0.513699,2.85596 0.11624,4.09834 -0.36996,1.15863 -1.33612,1.78482 -1.09614,2.69223 0.35496,1.34111 4.455799,2.9022 5.485689,3.00469 2.61224,0.25623 6.24437,-1.54234 9.32406,-0.65368 2.19728,0.63368 4.70078,2.29727 4.70078,2.29727 0,0 -5.73442,2.86346 -9.71527,4.55953 -17.053279,7.26302 -49.909949,9.49654 -63.469829,8.16168 -6.45934,-0.63619 -14.64102,-1.86981 -22.15776,-4.20708 -12.10252,-3.76462 -29.6332504,-22.40898 -20.0217204,-7.95419 1.92606,2.89846 3.9521,5.51319 5.09074,6.61058 16.8495404,16.24836 51.0373304,14.856 71.8277304,12.40749 15.72965,-1.85356 33.457859,-5.10948 40.484649,-15.34469 2.63473,-3.83836 4.03834,-7.00054 3.26467,-10.89265 -0.16623,-0.83242 -0.42371,-1.68358 -0.9799,-2.16728 -1.20863,-1.05115 -2.80222,-1.79732 -0.9799,-2.93845 2.73722,-1.71358 8.3379,-1.05865 11.94379,-2.55975 0.89616,-0.37246 5.73442,-10.69391 5.68692,-12.13252 -0.12249,-3.77712 -1.08739,-7.6004804 -2.28477,-11.7538104 -0.64993,-2.25477 -2.18478,-5.63568001 -3.85336,-4.57079001 -1.52984,0.97741001 -3.11593,7.43800001 -3.00344,8.48915001 0.9499,8.8791004 5.02324,10.2864504 1.33486,11.2488604 -0.61369,0.15998 -0.87616,0.20498 -2.62348,0.44245 z" />
</svg>
