<?xml version="1.0" encoding="UTF-8" standalone="no"?>
<svg>
  <path
     d="m 7.5371787,29.173748 4.3837503,0.5225 1.4075,-3.6175 c 0.38625,-0.995 0.525,-1.78625 0.27875,-2.225 -0.81375,-1.44625 -5.6962503,-1.9025 -7.7650003,-3.33875 -2.09375,-1.4525 -3.11875,-5.36625 -2.58875,-7.1825 1.04375,-3.5750096 6.135,-8.7737596 7.1175003,-12.2300096 0.11875,-0.41749997 0.1775,-0.80999997 0,-0.96999997 -0.9087503,-0.82 -4.1175003,2.41624997 -4.4750003,2.86749997 -4.2025,5.29625 -10.145,21.3525096 -1.34875,25.2800096 0.44,0.19625 0.86125,0.34875 1.24875,0.485 0.6475,0.2275 1.2325,0.3475 1.74125,0.40875 z m 21.5125003,16.78125 -6.10125,6.06125 c -1.015,1.0075 -1.15875,1.18875 -1.4425,1.80875 -0.3975,0.86875 -0.535,2.32125 -0.33875,2.51875 0.63125,0.6375 2.86625,-0.91 3.64375,-1.48375 6.81125,-5.02375 9.91375,-8.1875 11.015,-14.69125 0.56,-3.30625 -1.19125,-4.58625 -4.28875,-5.0075 -4.91375,-0.67 -9.79125,0.015 -11.7,3.715 0.29875,14.12625 0.7175,6.0475 4.885,5.045 4.63625,-1.115 9.62125,-3.59375 4.3275,2.03375 z m -2.8425,-32.05625 -7.765,7.76375 7.765,7.765 7.765,-7.765 -7.765,-7.76375 z m 29.83001,47.12875 -7.76501,7.765 7.76501,7.765 7.76375,-7.765 -7.76375,-7.765 z m -9.22126,-38.035 0.54875,-10.80875 c 0.0888,-1.74501 0.0863,-2.12126 -0.0337,-3.7612596 -0.20625,-2.84625 -1.9475,-7.40125 -3.53,-8.07749997 -2.03875,-0.87125 -3.63125,0.0362 -4.42625,1.29374997 -0.83625,1.32625 -1.4025,3.6625 -0.97,4.78875 0.4525,1.17875 1.76375,1.88375 2.7675,3.10375 2.69,3.2700096 2.98,8.6012596 2.40875,12.6837596 -1.12125,8.025 -3.64,12.74625 3.74875,14.78875 3.89375,1.07625 6.93126,-0.6525 7.89876,-5.6 0.6175,-3.1625 -2.2825,-7.19 -6.37376,-8.0925 -0.89,-0.19625 -2.03875,-0.31875 -2.03875,-0.31875 z m 15.38876,5.69 -1.01125,0 c -0.9075,0 -1.085,0.17875 -1.7725,1.78875 -1.64,3.84125 -2.88875,6.61625 -1.9675,9.3225 1.92625,5.66125 4.8725,7.56875 -2.09625,8.3 -3.17001,0.3325 -6.51626,-2.2025 -8.66626,-5.94625 -2.015,-3.51125 -2.92375,-5.7925 -5.11125,-1.675 -1.10375,2.07875 -2.65625,6.17375 -2.5275,8.26875 0.18625,3.05375 3.73625,8.255 1.29375,10.02875 -1.9625,1.42625 -8.5325,2.1725 -9.70625,2.265 -3.94,0.31125 -8.375,0.0325 -12.33125,-1.155 -22.8700003,-6.87125 -5.26,-32.65375 -7.30125,-30.52625 -6.1200003,6.37625 -9.3237503,11.01125 -9.9162503,19.09125 -0.79374999,10.845 1.4875,17.28 11.4312503,21.325 5.1625,2.10125 8.4575,1.665 13.82125,1.61875 0.90375,-0.009 2.37375,-0.20625 4,-0.49875 6.9525,-1.2525 11.33375,-2.03625 14.18375,-8.7375 0.3125,-0.735 0.49875,-1.5825 0.97375,-2.1675 0.51375,-0.6325 1.365,-0.9575 2.2525,-1.2025 4.035,-1.11125 9.33126,-0.9325 11.77001,-2.58625 1.48375,-1.00625 6.26,-9.0875 6.705,-12.5025 0.425,-3.26 -1.78375,-10.96125 -2.45,-13.1525 -0.50875,-1.6725 -0.66625,-1.85875 -1.57375,-1.85875 z"
     style="fill:#000000;stroke:none" />
</svg>
