<?xml version="1.0" encoding="UTF-8" standalone="yes"?>
<svg xmlns="http://www.w3.org/2000/svg" xmlns:xlink="http://www.w3.org/1999/xlink"
  width="595.276pt" height="841.89pt" viewBox="0 0 595.276 841.89">
<path
	style="stroke:none; fill:#000000"
	d="m 27.385,20.379341 c -0.353,2.208 0.077,2.75 1.545,2.072 0.999,-0.461 13.896,-7.964 15.779,-10.21 0.759,-0.905 1.516,-2.5049996 1.783,-3.9449996 0.164,-0.887 -0.102,-0.855 -1.057,-0.5 -2.213,0.823 -16.804,9.7049996 -17.261,10.5069996 -0.427,0.75 -0.701,1.528 -0.789,2.076 z m 6.156,-4.61 -0.137,-3.116 c -0.054,-1.259 -0.036,-1.485 0.182,-2.256 0.163,-0.5729996 0.334,-1.1989996 0.768,-1.6019996 1.058,-0.983 3.678,-0.643 4.893,-1.453 1.749,-1.166 1.751,-5.17 0.405,-6.793 -1.428,-1.721 -4.313,1.012 -5.495,2.576 -0.726,0.961 -1.414,2.062 -1.723,3.347 -0.144,0.595 -0.223,1.271 -0.335,1.863 L 31.55,11.233341 29.737,8.9263414 c -2.481,-3.268 -1.725,-4.239 -5.371,-5.128 -1.222,-0.298 -3.871,-0.186 -4.38,1.189 -0.399,1.076 0.537,3.694 1.123,4.315 0.45,0.478 2.275,1.6639996 3.029,1.7369996 1.231,0.119 3.748,-0.631 3.748,-0.631 0,0 2.031,2.924 3.272,4.297 0.541,0.599 0.989,1.081 1.683,1.094 0.287,0.006 0.7,-0.03 0.7,-0.03 z m 4.385,5.677 -4.875,4.875 4.875,4.874 4.874,-4.874 -4.874,-4.875 z m 30.02,28.427 -4.874,4.875 4.874,4.874 4.875,-4.874 -4.875,-4.875 z m -59.028,-39.851 0.323,6.812 1.516,33.283 c 0,0 1.03,-1.238 1.646,-2.364 0.875,-1.596 0.921,-2.969 1.184,-4.501 0.207,-1.202 0.22,-1.47 0.135,-2.684 l -1.66,-23.746 -0.158,-4.03 c 0.165,0.108 0.322,0.206 0.47,0.294 l 2.555,1.516 -0.488,-1.611 c -0.055,-0.183 -0.114,-0.377 -0.173,-0.572 -0.709,-2.341 -1.102,-4.6559996 -1.574,-7.0549996 -0.451,-2.298 -1.053,-5.359 -1.053,-5.359 0,0 -0.427,-0.027 -0.819,0.04 -1.08,0.186 -3.385,4.309 -3.535,5.246 -0.014,0.089 -0.023,0.177 -0.026,0.265 -0.006,0.194 0.006,0.397 0.034,0.608 0.197,1.51 0.831,2.798 1.623,3.8579996 z M 68.055,8.9763414 66.798,10.650341 65.136,8.9863414 c -0.761,-0.761 -1.441,-1.806 -1.193,-2.464 0.411,-1.09 3.068,-1.353 3.723,-1.071 1.699,0.732 1.466,2.089 0.389,3.525 z m -19.568,17.2959996 0.208,-0.001 c 0.285,-0.003 0.578,-0.01 0.848,-0.025 0.52,-0.029 1.113,-0.145 1.746,-0.324 6.368,-2.672 7.505,-4.295 12.468,-8.654 1.728,-1.518 2.715,-2.385 2.715,-2.385 l 0.887,0.841 c 0.175,0.221 0.228,0.291 0.28,0.364 0.372,0.518 0.677,1.073 0.893,1.785 0.153,0.508 0.612,3.734 1.383,3.571 0.587,-0.123 0.937,-2.359 1.042,-3.152 0.285,-2.623 -0.835,-4.435 -2.293,-6.22 -0.21,-0.257 -0.325,-0.322 -0.325,-0.322 l 1.372,-2.7209996 c 0.428,-1.085 1.076,-2.254 1.374,-3.274 0.544,-1.861 -0.498,-5.138 -2.821,-5.661 -1.946,-0.437 -4.795,0.723 -5.565,1.892 -0.287,0.435 -1.32,5.401 -0.988,7.215 0.154,0.8429996 0.545,1.9499996 0.907,2.8699996 0.389,0.986 1.195,1.417 1.195,1.417 0,0 -1.328,1.095 -1.828,1.507 -0.345,0.284 -1.209,0.999 -2.294,1.888 -2.799,2.292 -6.042,5.069 -9.271,6.726 -0.654,0.336 -1.342,0.689 -1.945,0.999 -2.847,1.461 -2.891,1.475 0.012,1.664 z m 3.042,17.551 c -1.472,-0.518 -2.616,-2.437 -1.906,-3.025 0.038,-0.031 0.897,0.05 1.701,0.37 0.079,0.032 0.325,0.243 0.622,0.506 0.734,0.649 1.499,1.102 1.53,1.862 0.009,0.215 0.016,0.39 0.016,0.39 0,0 -0.996,0.041 -0.996,0.041 -0.448,0.019 -0.545,0.004 -0.967,-0.144 z m -23.342,24.399 0.035,0.863 c 0,0 0.07,-0.01 0.187,-0.027 l 10.972,2.368 c 0.79,-0.085 1.68,-0.208 2.435,-0.382 3.381,-0.777 11.006,-7.055 13.306,-9.096 1.551,-1.377 3.311,-3.416 3.819,-4.586 1.339,-3.088 1.949,-8.625 2.838,-9.486 0.803,-0.779 2.015,-1.105 2.985,-1.895 0.625,-0.509 4.662,-6.771 5.052,-8.461 0.578,-2.511 -2.247,-8.606 -3.315,-10.827 -0.421,-0.877 -0.489,-0.976 -0.683,-0.99 -1.664,-0.121 -3.215,3.907 -3.316,4.847 -0.226,2.102 0.768,3.569 1.738,5.387 1.061,1.987 1.691,3.586 0.458,4.431 -1.329,0.911 -4.421,2.266 -4.421,2.266 0,0 -0.583,-1.436 -1.15,-2.576 -1.295,-2.603 -3.345,-4.543 -5.485,-6.027 -0.827,-0.573 -1.224,-0.739 -1.899,-0.513 -0.519,0.174 -1.71,1.212 -2.569,2.147 -0.563,0.611 -2.865,6.657 -2.906,7.515 -0.087,1.83 0.255,4.377 1.012,5.297 1.23,1.495 4.446,2.574 5.938,2.276 1.577,-0.315 4.646,-1.459 4.646,-1.459 0,0 0.527,1.643 0.488,2.471 -0.044,0.966 -3.593,4.234 -4.181,4.797 -4.254,4.078 -11.661,8.597 -16.378,9.784 -3.616,0.91 -9.606,1.876 -9.606,1.876 z m -24.744,-15.321 -3.443,-7.37 0.311,7.574 0.157,3.806 c 0.039,0.971 0.057,1.14 0.18,1.691 0.471,2.116 4.084,5.491 5.156,6.008 1.664,0.802 4.526,1.247 6.165,0.625 1.438,-0.546 4.05,-2.893 6.227,-5.085 l 6.771,-7.562 c 0.481,-0.617 1.037,-2.078 1.19,-3.236 0.174,-1.31 0.313,-2.912 0.313,-2.912 0,0 0.712,1.54 1.291,2.666 1.575,3.066 4.07,5.11 7.291,5.513 0.254,0.032 0.519,0.033 0.779,0.006 3.316,-1.958 5.748,-5.131 6.784,-8.853 0.392,-1.562 0.502,-3.118 0.252,-4.326 -0.18,-0.87 -1.538,-4.878 -2.826,-4.2 -0.459,0.242 -1.843,2.743 -2,3.011 -0.781,1.332 -1.537,2.947 -0.594,4.324 0.327,0.477 0.869,0.822 1.122,1.374 0.225,0.491 0.315,1.311 0.238,1.432 -0.703,1.108 -4.464,-0.839 -5.355,-1.507 -5.247,-3.935 -6.648,-15.822 -8.113,-20.816 -0.972,-3.314 -2.283,-6.51 -4.136,-9.017 -0.872,-1.181 -2.391,-2.181 -3.266,-0.946 -0.262,0.37 -0.464,0.933 -0.657,1.469 -1.82,5.048 -1.435,6.07 2.084,11.444 2.373,3.624 4.686,8.397 5.203,13.189 0.561,5.198 -2.377,8.127 -6.653,12.635 -3.886,4.097 -6.244,5.28 -10.622,3.323 -1.023,-0.457 -2.57,-1.888 -3.169,-2.931 -0.232,-0.404 -0.463,-0.864 -0.68,-1.329 z"/>
</svg>