<?xml version="1.0" encoding="UTF-8" standalone="no"?>
<svg>
    <path
       d="m 53.064817,54.48845 c -0.44627,2.83886 0.0962,3.53514 1.94633,2.66385 1.2613,-0.59252 17.52321,-10.23541 19.8983,-13.12303 0.95629,-1.16254 1.91008,-3.22013 2.24759,-5.0702 0.20751,-1.14005 -0.12875,-1.0988 -1.33255,-0.64253 -2.79136,1.05755 -21.18961,12.47301 -21.76588,13.50555 -0.53877,0.96254 -0.88379,1.96258 -0.99379,2.66636 z"
       style="fill:#ff7d7d;stroke:none" />
    <path
       d="m 119.3525,25.14351 c 0.0663,-0.18501 0.13875,-0.36751 0.2175,-0.54752 0.60378,-1.36131 1.64382,-2.56135 1.99133,-3.84641 0.91254,-3.36513 -3.7089,-17.66696 -3.7489,-17.71571 -2.03508,-2.5001 -3.94516,-2.61011 -5.35896,0.74128 -2.2901,5.42897 -1.88008,6.304 0.86253,10.18166 1.1763,1.66132 2.97512,7.12779 2.57511,7.82157 -1.2063,2.08758 -15.17812,2.35634 -17.374463,2.17133 -5.95649,-0.50502 -13.18303,-2.6051 -14.71059,-7.21279 -0.88379,-2.66511 0.21876,-6.219 -0.25626,-9.81289 -0.23251,-1.76258 -1.01129,-4.26268 -2.72136,-3.51765 -2.27134,0.99129 -3.07887,7.75032 -3.11638,8.84536 -0.155,4.62519 0.90629,11.82423 0.90629,11.82423 0,0 -3.48639,1.88882 -5.31771,2.33759 -1.45006,0.35502 -4.85395,-0.39626 -6.004,-1.04254 -0.80878,-0.45502 -1.16504,-1.07754 -1.85382,-2.35259 -1.09004,-2.01884 -3.01262,-5.67398 -3.01262,-5.67398 0,0 -2.89762,3.57639 -5.35647,5.59397 -3.99391,3.27638 -17.23819,5.69773 -23.15218,6.01149 -11.1217,0.58753 -23.63096,-0.075 -27.708619,-9.47538 -2.57011,-5.92399 -1.35131,-26.50357 -4.04516,-17.00943 -3.17888,11.20545 -3.73016,25.29727 4.39892,31.70503 11.251709,8.87035 34.550149,4.27767 44.831809,0.32126 1.1113,-0.42752 2.08634,-0.82628 3.5364,-1.89258 1.81757,-1.3388 4.38017,-3.7289 4.38017,-3.7289 0,0 0.90879,3.04762 1.91383,4.46268 1.01629,1.43131 5.41397,2.71886 6.94653,2.81887 2.36384,0.15375 8.94786,-1.99133 10.34167,-4.47393 0.88628,-1.57632 1.83757,-4.80645 1.83757,-4.80645 0,0 1.87508,2.3576 3.20763,3.47389 1.85008,1.54881 8.42159,3.10138 9.63789,3.34764 2.62636,0.53127 11.527963,0.29751 14.560593,-0.38252 0.92878,-0.20876 1.98883,-0.49377 2.99762,-0.75878 5.34521,-1.40006 9.31412,-9.43788 8.5941,-7.4078 z"
       style="fill:#ff7d7d;stroke:none" />
    <path
       d="m 96.594077,12.4955 c 0.19875,2.80011 1.48131,4.54268 3.813903,5.0452 3.00762,0.64878 4.70894,-1.01504 5.48022,-4.37892 0.17001,-0.73753 0.13126,-1.35256 -0.33501,-1.65007 -0.88629,-0.56377 -3.32014,0.0225 -4.49643,-0.61502 -1.463813,-0.79254 -1.836333,-4.16267 -1.475063,-5.73774 0.36251,-1.57631 1.287553,-3.26513 1.538813,-4.48018 0.0512,-0.24626 0.0738,-0.47252 -0.0312,-0.59877 -0.0125,-0.0163 -0.0263,-0.0312 -0.04,-0.045 -3.540153,-0.82379 -4.401433,13.21678 -4.455183,12.4605 z"
       style="fill:#ff7d7d;stroke:none" />
    <path
       d="M 64.617787,14.65684 71.946827,7.32779 64.617787,0 l -7.3278,7.32779 7.3278,7.32905 z"
       style="fill:#ff7d7d;stroke:none"/>
    <path
       d="m 27.850047,9.56413 5.09271,5.09271 7.32779,-7.32905 L 32.942757,0 27.850047,5.09145 22.758597,0 l -7.32905,7.32779 7.32905,7.32905 5.09145,-5.09271 z"
       style="fill:#ff7d7d;stroke:none"/>
    <path
       d="m 123.15015,45.29057 7.32779,-7.32779 -7.32779,-7.32905 -7.32905,7.32905 7.32905,7.32779 z"
       style="fill:#ff7d7d;stroke:none"/>
</svg>