<?xml version="1.0" encoding="UTF-8" standalone="no"?>
<svg>
  <path
     d="m 76.13179,39.139378 -6.33088,7.049865 6.33088,7.049865 6.33087,-7.049865 -6.33087,-7.049865 z M 42.81311,0 36.48224,7.049865 42.81311,14.098479 49.14399,7.049865 42.81311,0 z M 20.68194,8.901736 25.351,14.098479 31.68188,7.049865 25.351,0 20.68194,5.197994 16.01412,0 9.68325,7.049865 16.01412,14.098479 20.68194,8.901736 z M 2.79969,11.073715 c -1.88563,4.966665 -3.19982,16.879411 -2.25576,20.254293 3.39614,12.129069 18.72754,10.330966 28.47581,7.24493 2.47207,-0.782762 5.52185,-2.144469 6.93482,-3.471164 1.24542,-1.170392 2.54335,-3.108543 3.5662,-2.722163 0.79651,0.300101 1.22416,2.111958 2.09445,2.887218 1.98567,1.766843 10.97993,-2.424563 13.412,-3.941322 0.33636,-0.21007 0.63021,-0.408887 0.83028,-0.730245 0.55393,-0.892799 0.37637,-2.732166 0.84028,-3.367379 0.3001,-0.410138 0.86904,-0.317607 1.21791,0.03626 0.82903,0.840282 0.41639,3.157309 1.11912,4.585288 1.0316,2.096954 6.17207,2.732167 8.67416,2.482083 4.00635,-0.400134 8.07021,-2.048187 10.00086,-4.795359 2.78468,-3.961329 3.71999,-7.427491 3.54744,-10.522279 C 81.1022,16.235444 78.19248,4.371465 77.31969,2.959741 76.80326,2.12321 75.97173,1.891883 75.29026,2.900971 c -0.95282,1.412974 -0.53018,2.285767 -1.12038,4.489006 -0.90155,3.366129 -2.06194,3.262344 -1.90814,5.596877 0.13254,1.99817 1.81811,5.450578 2.65714,7.873891 0.50017,1.446735 0.30885,1.635549 -0.88905,1.976913 -0.95782,0.272592 -1.9369,0.605203 -3.04852,0.728995 C 68.35043,23.858 64.22779,22.90393 62.93111,21.192106 61.17677,18.87758 62.09583,15.025038 62.13834,11.730182 62.18334,8.337795 61.03797,3.806275 59.53122,0.80151698 58.99104,-0.275094 58.19077,-0.220076 57.57556,0.68897898 56.03505,2.967244 54.33573,8.924242 54.72086,11.4851 c 0.41639,2.778432 3.83878,7.936412 2.62588,9.737016 -0.76901,1.141633 -7.12864,2.748422 -8.29278,2.957242 -1.90814,0.342615 -4.03261,0.520175 -4.70408,-0.702736 -1.02034,-1.856872 -0.38638,-3.629967 -2.25201,-2.592119 -1.13913,0.632712 -2.35579,2.184483 -3.60246,3.269847 -4.6378,4.037604 -16.29546,5.983257 -21.44469,5.309281 C 13.45076,28.992223 11.10498,28.613345 9.24435,27.567995 2.89847,24.004299 2.92973,10.729847 2.79969,11.073713 z m 34.8917,45.401478 c -0.40888,2.838452 0.0875,3.536186 1.7831,2.664644 1.15414,-0.593949 22.52256,-9.036781 24.69829,-11.92525 0.87529,-1.16289 1.74933,-3.22108 2.05819,-5.071701 0.18881,-1.140383 -0.11754,-1.099119 -1.22041,-0.642716 -2.55586,1.057855 -25.88118,11.275032 -26.40886,12.306628 -0.49392,0.964074 -0.80902,1.963159 -0.91031,2.668395 z M 0,13.752113 c 0.19757,3.083534 1.46674,5.000427 3.77627,5.553112 2.9785,0.71399 4.66281,-1.116624 5.42557,-4.819116 C 9.36939,13.674587 9.33188,12.996859 8.87048,12.6705 7.99268,12.049042 5.58312,12.69426 4.41773,11.992773 2.9685,11.121231 2.60087,7.412487 2.95849,5.678155 3.31736,3.943823 4.23267,2.0857 4.4815,0.74775098 4.5328,0.47641 4.5553,0.227577 4.4515,0.08878 4.4377,0.07127 4.4252,0.05377 4.4115,0.03876 0.90658,-0.866543 0.05379,14.584889 2e-5,13.75211 z"
     style="fill:#000000;stroke:none" />
</svg>
