<?xml version="1.0" encoding="UTF-8" standalone="yes"?>
<svg>
<path
	style="stroke:none; fill:#000000"
	d="m 4.9158809,67.815155 c -0.47124,2.9475 0.10246,3.67125 2.0625,2.76625 1.33375,-0.615 18.5500001,-10.63 21.0650001,-13.62875 1.0125,-1.20751 2.0225,-3.345 2.37875,-5.26625 0.22001,-1.18375 -0.13625,-1.14125 -1.41125,-0.66751 -2.95375,1.09751 -22.4312501,12.95501 -23.0412501,14.02626 -0.57,1.00125 -0.93625,2.03875 -1.05375,2.77 z M 92.714631,1.0101447 l -0.1,-2.8724904 c -0.0625,-1.76375 -0.0812,-2.07625 -0.19625,-3.12625 -0.2525,-2.30626 -1.18874,-3.50251 -3.12501,-4.195 -1.70874,-0.6099996 -2.53874,1.07 -2.70249,3.3475 -0.065,0.91625 0.1137,1.75624 0.44625,2.52999 0.83125,1.93375 2.6175,3.44501002 3.11,5.7012504 1.7625,8.0662503 -4.68374,12.7187603 1.93876,14.3287503 3.90999,0.95 6.08124,-3.03374 6.78375,-7.9525003 0.35499,-2.485 -1.55876,-4.66499 -4.70626,-5.455 -1.2425,-0.3125 -1.3875,-0.54249 -1.44875,-2.30625 z m -64.97125,8.35501 6.11375,6.1125003 7.53,-7.5300103 -7.53,-7.52874038 -6.11375,6.11249038 -6.1125,-6.11249038 -7.53,7.52874038 7.53,7.5300103 6.1125,-6.1125003 z m 73.083749,34.6250003 -7.529999,7.53 7.529999,7.52875 7.52876,-7.52875 -7.52876,-7.53 z M 61.653381,0.41890432 l -7.52875,7.52874038 7.52875,7.5300103 7.53,-7.5300103 -7.53,-7.52874038 z M 7.0158809,40.771395 c 4.8112501,3.47501 13.4837501,4.11876 17.4850001,3.89251 3.44376,-0.195 7.28001,-0.42251 10.71501,-1.195 3.37375,-0.75875 12.12999,-3.45125 13.98249,-4.84875 1.15875,-0.875 2.31375,-2.18 3.36625,-3.13125 l 2.34126,-2.11875 1.27999,2.2725 c 0.36375,0.64749 0.735,1.41 1.20751,2.0075 3.11624,3.93875 14.62874,2.23499 17.67125,-1.5225 0.35624,-0.44 0.65124,-0.85375 0.90749,-1.22125 l 1.59375,-2.29251 2.27,2.84376 c 0.64125,0.80374 1.33626,1.63624 2.04625,2.10625 1.07126,0.71 5.77625,1.59375 7.03125,1.815 6.9125,1.22125 11.748749,0.8775 15.307499,-3.2325 9.04001,-10.43876 6.46251,-11.43875 4.99501,-26.1950003 -0.30875,-3.11126 -0.49625,-5.83125 -2.56751,-4.48376 -3.36875,2.18876 -6.767489,13.7337503 -5.395,16.7625103 0.41625,0.91875 1.16375,1.41999 1.4625,3.0975 0.26251,1.4775 0.17751,3.86625 0.17751,3.86625 0,0 -4.826259,-0.0837 -8.026259,-0.28 -4.65625,-0.28501 -9.70999,-1.93875 -10.58125,-6.22125 -0.53624,-2.63126 0.16125,-6.8175 0.34375,-9.8575 0.13625,-2.27375 -0.06,-4.0887603 -1.19249,-7.0050103 -0.90876,-2.33625 -2.4225,-5.41124038 -2.4225,-5.41124038 0,0 -2.82,4.17375038 -4.35125,6.82624038 -2.34626,4.0625103 -1.55501,4.3325103 0.04,7.8500003 0.80125,1.76876 2.12,10.83 1.79124,11.61501 -1.17999,2.815 -7.71374,2.86499 -10.77374,2.51125 -1.91125,-0.22125 -4.20375,-0.81501 -4.94875,-1.7425 -1.70126,-2.11625 -1.325,-5.505 -3.6525,-3.88501 -1.0775,0.75001 -1.96875,2.50626 -3.24625,3.64376 -2.51625,2.24499 -14.49375,5.12874 -17.77625,5.65875 -8.28751,1.33625 -19.49,1.54125 -26.29251,-2.82751 -9.1399901,-5.86999 -5.3899901,-23.8400003 -8.3237401,-17.01499 -1.39,3.23374 -3.06376003,6.725 -3.29625003,8.77375 -0.0487,0.42625 -0.0837,0.87124 -0.1087,1.3275 -0.58625,10.8625 2.26875003,12.68124 6.93999003,17.61624 z"/>
</svg>