<?xml version="1.0" encoding="UTF-8" standalone="no"?>
<svg>
  <path
     style="fill:#000000;stroke:none"
     d="m 100.76112,50.452398 7.70876,-7.70876 -7.70876,-7.70876 -7.708761,7.70876 7.708761,7.70876 z m -22.643781,-35.0888 7.70876,-7.7087605 -7.70876,-7.70875996 -7.70876,7.70875996 7.70876,7.7087605 z m -44.96381,-5.35625 5.35751,5.35625 7.70876,-7.7087605 -7.70876,-7.70875996 -5.35751,5.35625996 -5.35625,-5.35625996 -7.70876,7.70875996 7.70876,7.7087605 5.35625,-5.35625 z m 34.6838,5.6625 c 0,0 -2.09251,6.42126 -4.10251,9.28626 -3.045,4.33876 -17.76752,6.36751 -23.68628,6.75251 -11.68501,0.76125 -29.19128,2.07251 -35.2462897,-7.99626 -2.54875,-4.2375 -0.86375,-8.28876 0.395,-13.68876 0.12,-0.5175 0.18125,-0.9887505 0,-1.2400105 -0.98125,-1.35 -3.01125,1.5312605 -3.40875,2.4787605 -1.63501002,3.8975 -2.74001002,18.00877 -0.61876,21.68502 1.69626,2.94251 6.94126,6.20751 9.6025197,7.12626 6.95626,2.39751 29.61503,1.81126 37.17629,0 3.34001,-0.80125 12.57127,-3.2775 14.25002,-4.9575 1.8725,-1.87376 3.70875,-5.15001 3.70875,-5.15001 0,0 1.35251,2.2 2.48626,3.29125 0.8775,0.84376 1.6225,1.02501 2.47875,1.24001 5.72376,1.43 6.75751,1.2775 13.63127,-0.62 2.545,-0.70251 6.235,-2.74876 6.49875,-3.60376 0.55875,-1.80875 -0.125,-3.26875 1.66001,-2.5875 1.51875,0.58125 3.0375,2.5525 4.8525,3.7125 5.416261,3.46501 29.865041,0.65625 35.316301,-1.23875 1.085,-0.3775 1.9725,-0.77375 2.7875,-1.54875 1.07875,-1.025 3.885,-8.01876 4.0275,-10.03751 0.19875,-2.82376 -0.51375,-7.73251 -1.54875,-11.0287705 -1.05,-3.34625 -2.8325,-7.59875996 -2.8325,-7.59875996 0,0 -1.28625,1.02000996 -2.12375,2.02250996 -0.95251,1.13875 -1.56126,3.82 -1.55001,5.7 0.0113,1.62626 -0.2575,8.0587605 0.93,9.1700105 0.72876,0.68251 2.56626,0.93126 1.54876,3.30876 -1.0475,2.45 -11.23502,2.8425 -11.89627,2.8875 -5.28125,0.3575 -22.380031,1.73375 -25.588781,-4.3375 -2.20125,-4.16501 0.085,-18.40253046 -5.47626,-15.4900205 -0.72375,0.38 -1.9125,5.51875 -1.64875,7.1262605 1.5975,9.72501 5.43876,10.81751 -0.62,13.01126 -5.3025,1.91875 -14.35377,4.08376 -17.96752,-0.93 -1.5525,-2.155 -3.035,-6.74501 -3.035,-6.74501 z m 48.883811,-30.52628 -1.38001,0 c -0.62,0 -0.76875,0.16875 -1.48625,1.68375 -4.52125,9.5525095 -5.64625,19.9075195 -1.8575,28.10378 1.46375,3.16501 5.85751,5.21501 9.68126,2.74001 1.1225,-0.72626 1.72625,-2.16626 1.85875,-4.27501 0.0913,-1.46875 0,-3.46875 0,-3.46875 0,0 -4.81625,1.36625 -7.02625,1.23875 -2.04501,-0.11875 -4.44001,-8.9087605 -3.50751,-13.6437705 0.85375,-4.33125 3.71751,-12.3787595 3.71751,-12.3787595 z" />
</svg>
