<?xml version="1.0" encoding="UTF-8" standalone="yes"?>
<svg>
<path
	style="stroke:none; fill:#000000"
	d="m 29.356,37.71928 -4.881,4.849 c -0.811,0.806 -0.927,0.951 -1.154,1.447 -0.317,0.695 -0.427,1.857 -0.271,2.015 0.506,0.51 2.293,-0.728 2.915,-1.187 5.449,-4.019 7.931,-6.55 8.812,-11.753 0.448,-2.645 -0.952,-3.669 -3.43,-4.006 -3.932,-0.536 -7.833,0.012 -9.36,2.972 0.238,11.301 0.574,4.839 3.908,4.036 3.709,-0.892 7.696,-2.875 3.461,1.627 z m 46.203,20.364 4.111,4.112 5.508,-5.508 -5.508,-5.508 -4.111,4.111 -4.112,-4.111 -5.508,5.508 5.508,5.508 4.112,-4.112 z m 0,14.091 -5.508,-5.508 5.508,-5.508 5.508,5.508 -5.508,5.508 z m -21.492,-5.058 -4.111,4.112 5.507,5.508 5.508,-5.508 -4.111,-4.112 4.111,-4.111 -5.508,-5.508 -5.507,5.508 4.111,4.111 z m -38.261,-10.465 c 0.162,2.24 1.207,3.634 3.109,4.036 2.453,0.519 3.84,-0.812 4.469,-3.503 0.138,-0.59 0.107,-1.082 -0.273,-1.32 -0.722,-0.451 -2.707,0.018 -3.667,-0.492 -1.194,-0.634 -1.497,-3.33 -1.202,-4.59 0.296,-1.261 1.049,-2.612 1.254,-3.584 0.042,-0.197 0.061,-0.378 -0.025,-0.479 -0.011,-0.013 -0.022,-0.025 -0.032,-0.036 -2.888,-0.658 -3.59,10.573 -3.633,9.968 z M 29.978,16.05624 29.525,7.4062402 c -0.068,-1.284 -0.094,-1.507 -0.265,-2.234 -0.525,-2.228 -1.936,-3.449 -3.411,-4.23699995 -1.876,-1.002 -3.307,-1.374 -5.241,0.037 -1.589,1.15899995 -1.739,5.35899995 -1.114,6.01599995 0.466,0.489 1.702,0.445 3.197,0.094 3.735,-0.877 4.109,-0.675 5.082,3.2749998 0.462,1.877 0.517,3.635 0.289,5.523 -0.483,4.009 -1.617,5.958 0.606,8.312 0.925,0.979 1.892,1.127 4.003,0.693 1.5,-0.309 1.797,-1.006 2.426,-3.083 0.443,-1.462 0.793,-2.772 0.68,-4.229 -0.225,-2.893 -3.352,-8.3289998 0.416,-9.6789998 0.696,-0.249 1.6,-0.087 2.38,0.083 1.051,0.229 1.229,0.125 1.783,-1.038 0.455,-0.957 0.982,-1.837 1.272,-2.866 C 42.715,0.20824025 41.05,-0.88275975 37.709,0.70024025 33.877,2.5162402 32.156,10.29624 32.974,15.51224 c 0.251,2.15 0.526,4.086 0.526,4.086 0,0 -0.229,-0.002 -0.502,-0.029 -1.073,-0.106 -2.916,-1.53 -3.02,-3.513 z m 48.855,0.928724 c -0.605,-0.679 -1.152,-1.53 -2.078,-1.754 -1.159,-0.28 -3.095,0.108 -3.095,0.108 0,0 1.869,-4.255 2.297,-6.6110001 0.119,-0.654 -0.161,-3.671 -0.905,-5.211 0.033,0.069 -3.926,-3.45699999 -3.541,-3.516999999663 C 71.426,0.01296391 71.331,0.03796391 71.221,0.07796391 c -0.791,0.284 -1.622,2.29899999 -1.851,3.13399999 -0.638,2.324 0.53,1.816 2.498,3.214 1.566,1.113 1.93,3.129 1.616,4.7420001 -1.032,5.31 -4.212,7.693 -1.973,10.641 0.972,1.28 3.817,3.26 5.541,1.938 0.741,-0.568 2.549,-4.275 2.664,-5.038 0.026,-0.176 0.036,-0.343 0.011,-0.512 -0.034,-0.229 -0.124,-0.35 -0.894,-1.212 z M 57.548,7.4646976 c -1.038,0.711 -1.96,1.58 -2.768,1.644 -0.622,0.049 -4.729,-1.905 -3.945,-3.674 0.264,-0.593 1.089,-0.965 1.8,-1.196 0.945,-0.308 2.18,-0.503 2.419,-0.085 0.258,0.451 -0.16,1.676 1.066,1.242 1.132,-0.402 2.092,-3.314 1.82,-4.045 -0.94,-2.524 -5.952,-1.01500003 -7.318,0.517 -1.239,1.39 -3.245,5.314 -2.222,7.071 0.931,1.6000004 1.79,1.7120004 1.125,2.8140004 -0.018,0.03 -0.035,0.058 -0.052,0.082 -0.045,0.067 -0.141,0.114 -0.262,0.148 -2.035,0.563 -2.379,0.894 -2.292,3.379 0.031,0.898 0.05,1.437 0.05,1.437 0,0 0.551,0.023 1.022,-0.036 1.16,-0.143 1.838,-0.777 2.553,-1.368 0.852,-0.704 1.757,-1.347 2.708,-1.799 2.057,-0.979 4.331,-1.065 5.906,-1.77 0.657,-0.293 1.995,-2.6510004 2.008,-3.5370004 0.001,-0.051 0.001,-0.102 0.001,-0.153 -0.001,-1.424 -0.885,-1.652 -1.737,-1.53 -1.116,0.161 -2.06,0.981 -1.882,0.859 z M 0,46.28128 l 3.491,14.504 c 1.952,8.114 3.032,10.288 9.85,14.253 3.195,1.858 5.009,1.91 9.272,1.468 7.741,-0.803 19.482,-4.438 22.814,-8.328 0.452,-0.527 4.526,-8.561 4.293,-11.376 -0.181,-2.175 -3.27,-5.771 -6.697,-6.051 -0.841,-0.069 -1.063,-0.072 -2.212,-0.032 l -2.81,0.098 c 0,0 -0.111,-0.623 -0.036,-1.022 0.095,-0.505 0.487,-0.65 0.887,-0.84 1.295,-0.614 2.672,-1.697 4.039,-2.393 0.976,-0.497 4.252,-0.731 4.898,-0.35 1.343,0.791 2.313,2.6 3.814,3.49 2.434,1.444 9.626,1.913 12.142,1.495 2.105,-0.35 4.423,-1.164 6.607,-1.723 4.056,-1.038 7.175,-1.039 12.06,-0.754 1.149,0.068 1.299,-0.03 1.498,-0.972 0.148,-0.699 0.43,-1.221 0.807,-1.973 0.8,-1.591 2.032,-4.21 2.032,-4.21 0,0 -6.568,-1.889 -9.537,-3.201 -3.751,-1.657 -3.505,-2.966 -7.054,-6.85 -2.889,-3.161 -5.554,-3.682 -10.364,-3.626 -2.654,0.031 -3.392,0.622 -4.537,3.224 -4.916,11.18 -1.089,4.659 1.101,5.806 0.658,0.032 1.36,0 1.978,0.028 1.543,0.069 6.051,0.272 6.051,0.272 1.149,0.051 1.361,0.153 2.126,1.016 1.888,2.131 4.148,4.111 1.913,4.913 -2.885,1.034 -10.922,0.916 -14.11,-1.213 -2.989,-1.996 -2.484,-3.974 -6.315,-3.829 -3.585,0.136 -12.4,5.86 -14.605,9.036 -0.966,1.391 -2.841,7.459 -2.01,9.594 1.127,2.895 7.636,1.434 10.516,2.045 1.005,0.214 4.29,1.529 3.729,3.025 -0.129,0.343 -0.468,0.641 -0.82,0.924 -4.468,3.589 -19.224,8.005 -25.794,6.016 -3.913,-1.184 -8.313,-4.641 -10.294,-7.941 L 0,46.28128 z"/>
</svg>