<?xml version="1.0" encoding="UTF-8" standalone="no"?>
<svg>
  <path
     d="m 106.21002,72.261377 5.78,5.78 7.7425,-7.74251 -7.7425,-7.7425 -5.78,5.78 -5.77875,-5.78 -7.74251,7.7425 7.74251,7.74251 5.77875,-5.78 z m 0,19.8075 -7.7425,-7.74125 7.7425,-7.7425 7.7425,7.7425 -7.7425,7.74125 z m -28.72251,-4.59 -5.78,5.78 7.7425,7.742493 7.7425,-7.742493 -5.77875,-5.78 5.77875,-5.78 -7.7425,-7.74125 -7.7425,7.74125 5.78,5.78 z m -47.495,-13.57125 c 0.22875,3.15 1.69875,5.10875 4.37125,5.67375 3.44875,0.72875 5.39875,-1.14125 6.2825,-4.92375 0.19375,-0.83 0.15,-1.52125 -0.38375,-1.855 -1.01625,-0.635 -3.80625,0.0237 -5.155,-0.6925 -1.6775,-0.89125 -2.105,-4.68001 -1.69,-6.45251 0.41625,-1.7725 1.475,-3.67125 1.76375,-5.0375 0.0587,-0.2775 0.085,-0.53125 -0.035,-0.67375 -0.015,-0.0175 -0.0312,-0.035 -0.0462,-0.0512 -4.05875,-0.925 -5.045,14.86251 -5.1075,14.01251 z m 16.3575,-51.33751 -0.63625,-12.16 c -0.095,-1.8037495 -0.1325,-2.1174995 -0.3725,-3.1399995 -0.7375,-3.1325 -2.72125,-4.8475 -4.795,-5.955 -2.63625,-1.40874999 -4.64875,-1.93249999 -7.36625,0.0512 -2.235,1.63 -2.445,7.5325 -1.56625,8.45625 0.655,0.6887495 2.39125,0.6262495 4.49375,0.1325 5.25,-1.2325 5.77625,-0.94875 7.14375,4.6037495 0.65,2.6375 0.72625,5.11 0.40625,7.76375 -0.67875,5.635 -2.27375,8.375 0.8525,11.68375 1.3,1.37625 2.65875,1.585 5.62625,0.97375 2.10875,-0.435 2.52625,-1.41375 3.41,-4.33375 0.6225,-2.055 1.115,-3.89625 0.955,-5.945 -0.31625,-4.065 -4.71125,-11.7075 0.58625,-13.605 0.9775,-0.35 2.24875,-0.12125 3.345,0.1175 1.4775,0.32125 1.7275,0.175 2.50625,-1.4599995 0.64,-1.345 1.38125,-2.58125 1.7875,-4.02875 1.52875,-5.43249999 -0.81125,-6.96625 -5.5075,-4.73999999 -5.3875,2.55249999 -7.8075,13.48874949 -6.65625,20.81999949 0.3525,3.0225 0.73875,5.74375 0.73875,5.74375 0,0 -0.3225,-0.004 -0.70625,-0.0412 -1.5075,-0.14875 -4.09875,-2.15 -4.245,-4.9375 z m 64.46376,1.305 c -0.85125,-0.95375 -1.62,-2.15 -2.92125,-2.465 -1.63,-0.39375 -4.35,0.1525 -4.35,0.1525 0,0 2.62625,-5.98125 3.2275,-9.29375 0.1675,-0.92 -0.22625,-5.1599995 -1.27125,-7.3249995 0.0462,0.0962 -5.52,-4.85999999 -4.97875,-4.94374998927 -0.11875,0.0187999993 -0.2525,0.0536999993 -0.40625,0.10874999927 -1.1125,0.4 -2.28125,3.23249999 -2.6025,4.40624999 -0.89751,3.26625 0.745,2.5525 3.51125,4.5175 2.2025,1.5637495 2.7125,4.3987495 2.2725,6.6662495 -1.45125,7.46375 -5.9225,10.81375 -2.77375,14.9575 1.36625,1.79875 5.36375,4.5825 7.78875,2.72375 1.04125,-0.7975 3.5825,-6.00875 3.74375,-7.08125 0.0375,-0.2475 0.0525,-0.48125 0.0163,-0.72 -0.0487,-0.3225 -0.17375,-0.4925 -1.25625,-1.70375 z M 80.89251,10.493867 c -1.4575,0.99875 -2.75375,2.22125 -3.89,2.31 -0.87375,0.0688 -6.6475,-2.6775 -5.545,-5.1637495 0.37,-0.83375 1.53125,-1.35625 2.53,-1.6825 1.3275,-0.4325 3.06375,-0.70625 3.4,-0.11875 0.3625,0.635 -0.225,2.3575 1.49875,1.74625 1.59125,-0.565 2.94125,-4.6575 2.5575,-5.68625 -1.32125,-3.54875 -8.36625,-1.42624999 -10.28625,0.7275 -1.74125,1.95375 -4.56125,7.4699995 -3.12375,9.9399995 1.30875,2.2475 2.51625,2.405 1.5825,3.955 -0.0263,0.0425 -0.05,0.0813 -0.0738,0.115 -0.0637,0.0937 -0.1975,0.16 -0.36875,0.2075 -2.86,0.7925 -3.34375,1.2575 -3.22125,4.75125 0.0437,1.2625 0.07,2.01875 0.07,2.01875 0,0 0.775,0.0325 1.43625,-0.05 1.63125,-0.20125 2.58375,-1.0925 3.58875,-1.9225 1.1975,-0.99 2.47,-1.89375 3.8075,-2.53 2.89125,-1.37625 6.0875,-1.4975 8.3025,-2.4875 0.9225,-0.4125 2.80375,-3.72625 2.8225,-4.9725 0,-0.0713 10e-4,-0.1425 10e-4,-0.215 -0.002,-2.0012495 -1.245,-2.3224995 -2.4425,-2.1499995 -1.56875,0.22625 -2.895,1.3787495 -2.64625,1.2074995 z m -12.2,46.76 c 0.4975,0.49 1.0275,0.9375 1.61375,1.285 3.42125,2.03 13.53,2.68875 17.0675,2.10125 2.9575,-0.49125 6.21625,-1.63625 9.2875,-2.4225 5.70126,-1.45875 10.08501,-1.46 16.95126,-1.05875 1.61625,0.0937 1.82625,-0.0425 2.1075,-1.36625 0.2075,-0.9825 0.6025,-1.7175 1.13375,-2.77375 1.12375,-2.23625 2.85625,-5.9175 2.85625,-5.9175 0,0 -9.2325,-2.65625 -13.4075,-4.50125 -5.27125,-2.32875 -4.925,-4.1675 -9.91376,-9.6275 -4.06125,-4.445 -7.8075,-5.17625 -14.57,-5.0975 -3.73,0.0437 -4.7675,0.87375 -6.37625,4.53125 -6.91125,15.715 -1.5325,6.55 1.5475,8.1625 0.925,0.045 1.91125,-10e-4 2.78,0.0387 2.16875,0.0975 8.505,0.38125 8.505,0.38125 1.615,0.0738 1.915,0.21625 2.98875,1.42875 2.655,2.99625 5.83126,5.78 2.69,6.90625 -4.055,1.45375 -15.35375,1.28875 -19.835,-1.70375 -2.75625,-1.84125 -3.39875,-3.67125 -5.035,-4.655 -7.3725,-4.43 -15.84,4.01875 -18.5,8.87125 -1.18625,2.165 -2.42125,4.7075 -3.64,7.56375 -0.935,2.19 -3.99375,10.485 -2.825,13.48626 1.58375,4.07 10.7325,2.01625 14.78125,2.875 1.4125,0.3 6.03125,2.14875 5.2425,4.25125 -0.18125,0.4825 -0.65875,0.90125 -1.15375,1.29875 -6.28,5.04625 -27.0225,11.2525 -36.2575,8.4575 -5.5,-1.665 -11.68501,-6.525 -14.47126,-11.1625 L 0,58.191317 4.90625,78.578827 c 2.745,11.40625 4.2625,14.4625 13.84626,20.035 4.49125,2.612493 7.04125,2.686243 13.0325,2.063743 10.8825,-1.128743 27.38625,-6.238743 32.07125,-11.706243 0.635,-0.74125 6.36125,-12.03375 6.0325,-15.99 -0.25375,-3.05751 -4.59625,-8.11376 -9.4125,-8.50751 -1.18375,-0.0963 -1.49375,-0.10125 -3.11,-0.045 0,0 -3.95,0.13875 -3.95,0.13875 0,0 -0.13375,-0.75125 -0.07,-1.3075 -0.0275,0.24375 2.3425,-1.9825 4.66375,-4.38125 7.44375,-7.69375 5.85625,-6.36 10.6825,-1.625 z"
     style="fill:#000000;stroke:none" />
</svg>
