<?xml version="1.0" encoding="UTF-8" standalone="yes"?>
<svg xmlns="http://www.w3.org/2000/svg" xmlns:xlink="http://www.w3.org/1999/xlink"
  width="595.276pt" height="841.89pt" viewBox="0 0 595.276 841.89">
  <path
    style="stroke:none; fill:#000000"
    d="m 58.04103,29.500077 -6.100931,6.06093 c -1.0137,1.00745 -1.15869,1.18869 -1.44242,1.80866 -0.39748,0.8687 -0.53498,2.32113 -0.33874,2.51862 0.63122,0.63746 2.8661,-0.90996 3.64356,-1.48368 6.810891,-5.02348 9.913231,-8.18706 11.014421,-14.69047 0.55997,-3.30608 -1.18994,-4.58601 -4.28852,-5.00724 -4.91349,-0.66996 -9.789491,0.015 -11.699391,3.71481 0.29874,14.1255 0.71747,6.04718 4.88475,5.04473 4.636001,-1.11494 9.620741,-3.59356 4.327271,2.03364 z M 8.1037033,18.176059 c -0.1944,-0.01612 -0.45615,0.015 -0.78125,0.0625 -0.487325,0.07062 -0.640738,0.236338 -1.46875,1.59375 -2.60895,4.275863 -6.73271297,14.430188 -5.68749992,19.625 0.4235,2.106713 2.84702492,4.93475 4.12499992,5.84375 1.277962,0.909 6.9806377,3.1279 9.9374997,0.9688 0.856526,-0.856525 1.946739,-4.541725 1.656251,-5.5625 -0.545687,-1.9126 -2.690338,-0.611275 -5.687502,-0.46875 -4.5663487,0.2199 -7.5575867,-4.921087 -6.6562487,-9.125 0.738425,-3.438325 3.243175,-7.663737 4.65625,-11.28125 0.473387,-1.212512 0.4894,-1.607962 -0.09375,-1.65625 z M 26.033554,69.042695 c 0.20374,2.79985 1.50992,4.54226 3.88729,5.04473 3.06609,0.64872 4.79975,-1.01495 5.58596,-4.37852 0.17249,-0.73746 0.13374,-1.35243 -0.34123,-1.64991 -0.9037,-0.56372 -3.38482,0.0225 -4.58351,-0.61497 -1.49242,-0.79246 -1.8724,-4.16228 -1.50242,-5.7372 0.36873,-1.57616 1.31118,-3.26483 1.56742,-4.47976 0.0512,-0.24624 0.075,-0.47248 -0.0312,-0.59872 -0.0138,-0.0163 -0.0275,-0.0312 -0.0412,-0.045 -3.60856,-0.8237 -4.48601,13.21556 -4.54101,12.45935 z m 2.188031,-52.691326 c -0.9825,6.06625 -4.39,15.23125 1.2025,18.015 4.03,2.006254 6.92375,0.2625 7.80125,-4.09125 0.31875,-1.58375 0.14,-2.63625 -1.07375,-3.2825 -2.0275,-1.0775 -6.54,-0.78875 -7.6325,-1.9825 -0.4025,-0.44125 -0.38125,-1.07875 -0.23875,-1.86625 1.13,-6.20875 2.635,-7.02125 1.9875,-11.82625 -0.30875,-2.2937507 -2.46875,-12.8350003 -5.5,-11.13250029 -1.59875,0.89874999 -2.3175,4.14874949 -1.59625,5.27249949 0.41875,0.6525 1.39,1.34 2.0425,2.07875 1.29625,1.4687501 3.365,6.6062508 3.0075,8.8150008 z m 90.638555,0 c -0.9825,6.06625 -4.39,15.23125 1.2025,18.015 4.03,2.006254 6.92375,0.2625 7.80125,-4.09125 0.31875,-1.58375 0.14,-2.63625 -1.07375,-3.2825 -2.0275,-1.0775 -6.54,-0.78875 -7.6325,-1.9825 -0.4025,-0.44125 -0.38125,-1.07875 -0.23875,-1.86625 1.13,-6.20875 2.635,-7.02125 1.9875,-11.82625 -0.30875,-2.2937507 -2.46875,-12.8350003 -5.5,-11.13250029 -1.59875,0.89874999 -2.3175,4.14874949 -1.59625,5.27249949 0.41875,0.6525 1.39,1.34 2.0425,2.07875 1.29625,1.4687501 3.365,6.6062508 3.0075,8.8150008 z M 84.478746,20.070377 83.912496,9.2566273 c -0.08375,-1.60375 -0.1175,-1.8825 -0.33125,-2.79125 -0.655,-2.78625 -2.41875,-4.31125 -4.26375,-5.29625 -2.34375,-1.25249994 -4.13375,-1.71749994 -6.55,0.045 -1.9875,1.45 -2.175,6.7 -1.39375,7.52 0.5825,0.6125 2.1275,0.5575 3.99625,0.11875 4.66875,-1.09625 5.13625,-0.84375 6.3525,4.0937497 0.5775,2.34625 0.64625,4.54375 0.3625,6.90375 -0.60375,5.01 -2.0225,7.4475 0.75625,10.38875 1.1575,1.225 2.365,1.41 5.00375,0.86625 1.875,-0.38625 2.2475,-1.25625 3.03375,-3.8525 0.5525,-1.8275 0.99,-3.465 0.84875,-5.2875 -0.28125,-3.615 -4.19,-10.41 0.52125,-12.0974997 0.86875,-0.3125 1.99875,-0.10875 2.97375,0.10375 1.31375,0.2862497 1.53625,0.1562497 2.22875,-1.2975 0.57,-1.19625 1.22875,-2.29625 1.59,-3.58375 1.360004,-4.82999994 -0.72125,-6.19375 -4.8975,-4.21499994 -4.79125,2.26999994 -6.9425,11.99499964 -5.91875,18.51499964 0.3125,2.6875 0.65625,5.1075 0.65625,5.1075 0,0 -0.28625,-0.0038 -0.6275,-0.03625 -1.34125,-0.1325 -3.645,-1.9125 -3.775,-4.39125 z m -57.849138,29.595003 -3.91128,-3.95431 3.95291,-4.28987 3.95292,-4.28986 4.29213,4.33734 4.29214,4.33734 -4.33376,3.90683 -4.33377,3.90684 -3.91129,-3.95431 z m 76.448512,48.22895 -4.292132,-4.33478 4.337302,-3.91001 4.3373,-3.91002 2.65581,2.69637 2.65582,2.69636 3.10849,-2.69292 3.10848,-2.69292 3.91103,3.95404 3.91103,3.95405 -3.95291,4.29308 -3.95292,4.29308 -3.02111,-3.07873 -3.02112,-3.07873 -2.74646,3.07295 -2.74647,3.07296 -4.29214,-4.33478 z m 9.60428,-21.33765 c -2.01534,0.7154 -5.51812,2.10819 -7.78396,3.09509 -7.485632,3.26044 -15.346162,2.82721 -23.438732,-1.29179 -3.48574,-1.77419 -4.79855,-3.26977 -6.22283,-7.08918 -0.64778,-1.73714 -1.34542,-3.14631 -1.55029,-3.13149 -0.20488,0.0148 -1.36124,1.005 -2.56968,2.20039 -1.28516,1.27128 -3.45119,2.62917 -5.21829,3.27135 -4.21295,1.53104 -4.60004,1.81163 -4.99004,3.61708 -0.43378,2.0081 -8.45867,19.02677 -10.2584,21.75534 -1.66702,2.52736 -7.21456,6.06373 -11.47285,7.31354 -4.33105,1.27118 -14.01305,1.7132 -17.82872,0.81395 C 3.977558,103.01709 -3.650382,82.1106 3.266718,57.5525 c 1.64011,-5.82295 3.51772,-10.58772 4.38292,-11.12244 0.82132,-0.50761 1.12071,1.49635 0.57223,3.83027 -0.28399,1.20845 -0.67459,6.52286 -0.86801,11.80981 -0.31461,8.59949 -0.23641,10.02054 0.74189,13.48291 3.7367,13.22477 11.38156,18.92539 25.38005,18.92539 2.29793,0 5.5912,-0.36808 7.31837,-0.81795 5.5058,-1.43408 13.5693,-6.0453 13.5693,-7.75978 0,-0.41648 -1.23598,-3.15541 -2.74662,-6.08651 -2.98841,-5.79842 -5.49278,-13.20974 -5.49278,-16.25508 0,-2.32084 1.82823,-8.42708 3.03605,-10.14035 1.51579,-2.15011 2.71023,-1.52775 5.95497,3.10285 3.51521,5.01658 6.17158,6.53653 10.27649,5.88012 2.40647,-0.38481 6.55951,-2.27483 7.22748,-3.28918 1.04459,-1.58627 0.25388,-4.14851 -2.88625,-9.35274 -2.05285,-3.40224 -3.28489,-6.05557 -3.28489,-7.07435 0,-1.55016 2.085,-8.01485 3.3432,-10.36583 0.54263,-1.01391 0.66591,-1.03171 1.55743,-0.2249 2.0566,1.86119 5.04551,6.88204 6.39322,10.73949 1.17703,3.36892 1.34897,4.58743 1.04623,7.41438 -0.44647,4.16905 0.19033,6.60491 2.72502,10.42357 2.26189,3.40768 5.18195,5.88344 8.85631,7.50879 2.25478,0.99739 3.36941,1.11302 8.69504,0.90199 5.255402,-0.20824 6.741252,-0.49129 10.636852,-2.02629 2.49048,-0.98133 4.66475,-2.00528 4.83172,-2.27545 0.58416,-0.94519 -0.79136,-2.50685 -3.51261,-3.98794 -2.70669,-1.47317 -2.77525,-1.48107 -5.02786,-0.57976 -1.845,0.73823 -3.28782,0.8432 -7.510162,0.54639 -8.21188,-0.57723 -9.41352,-2.28191 -6.27902,-8.90758 1.75889,-3.71792 3.73777,-5.43782 7.59089,-6.59744 5.945752,-1.78941 14.865212,1.46426 21.665862,7.90333 2.22029,2.10224 5.09968,4.36076 6.39864,5.01892 2.83657,1.43725 11.21983,4.44229 12.39279,4.44229 2.01572,0 1.69627,1.2781 -2.60856,10.43657 -0.41118,0.87479 -1.18747,1.43632 -2.1387,1.54704 -0.82127,0.0956 -1.49323,0.49108 -5.59496,0.50947 -5.44947,-1.05931 -13.18561,0.01 -17.22685,1.44417 z m -43.373282,32.87995 -3.91002,-4.3373 2.69637,-2.65582 2.69637,-2.65582 -2.69293,-3.10848 -2.69292,-3.10848 3.95404,-3.91104 3.95405,-3.91103 4.29309,3.95292 4.29307,3.95292 -3.07872,3.02111 -3.07873,3.02111 3.07295,2.74647 3.07295,2.74647 -4.33478,4.29213 -4.33477,4.29214 -3.91002,-4.3373 z m 39.559532,2.4538 -3.91129,-3.95431 3.95292,-4.28987 3.95291,-4.28987 4.29214,4.33735 4.29214,4.33734 -4.33377,3.90683 -4.33377,3.90683 -3.91128,-3.9543 z"/>
</svg>