<?xml version="1.0" encoding="UTF-8" standalone="yes"?>
<svg xmlns="http://www.w3.org/2000/svg" xmlns:xlink="http://www.w3.org/1999/xlink"
  width="595.276pt" height="841.89pt" viewBox="0 0 595.276 841.89">
  <path
    style="stroke:none; fill:#000000"
    d="m 68.974019,40.99996 0.575,-0.01 c 0.258,-0.004 0.328,-0.162 0.693,-1.572 2.1,-8.108 2.484,-12.586 -2.683,-17.786 -0.851,-0.856 -1.842,-1.575 -2.481,-0.807 -0.433,0.521 -0.876,4.196 -0.678,4.999 0.345,1.404 1.369,1.86 2.552,2.813 2.67,2.153 3.34,3.768 3,6.636 -0.261,2.201 -0.978,5.727 -0.978,5.727 z m 29.003,30.888 1.334,-0.023 0.05,2.915 c 0,0 -0.35,0.02 -0.666,0.011 -1.082,-0.028 -3.495,-1.239 -3.531,-1.812 -0.011,-0.179 0.694,-0.713 1.544,-0.927 0.543,-0.137 0.67,-0.153 1.269,-0.164 z m -25.051,7.842 3.101,1.311 c 1.596,0.189 3.564,0.365 5.037,0.306 2.775,-0.109 7.296,-1.148 8.882,-3.156 1.419,-1.795 1.585,-2.558 3.266,-1.88 0.83,0.335 1.794,0.906 2.848,1.287 2.393,0.866 2.432,0.855 4.023001,-1.528 0.693,-1.037 1.41,-1.838 1.617,-3.107 0.101,-0.625 0.114,-0.829 0.096,-1.861 -0.057,-3.479 -0.444,-3.956 -4.240001,-2.127 -0.539,0.26 -1.01,0.512 -1.201,0.65 -0.789,0.577 -1.301,1.485 -2.045,2.119 -0.713,0.606 -1.638,0.961 -2.265,1.497 -0.891,0.762 -1.179,1.89 -1.827,2.74 -0.367,0.48 -9.333,2.191 -14.799,3.243 l -2.493,0.506 z m -12.95,-63.061 -0.143,-3.294 c -0.059,-1.331 -0.039,-1.569 0.192,-2.385 0.171,-0.605 0.352,-1.267 0.811,-1.693 1.119,-1.039 3.888,-0.68 5.172,-1.536 1.849,-1.232 1.851,-5.465 0.428,-7.18 -1.509,-1.819 -4.559,1.07 -5.808,2.723 -0.768,1.015 -1.495,2.179 -1.822,3.537 -0.151,0.63 -0.235,1.344 -0.354,1.97 l -0.58,3.063 -1.916,-2.439 c -2.623,-3.454 -1.823,-4.481 -5.677,-5.42 -1.292,-0.315 -4.092,-0.197 -4.631,1.257 -0.421,1.138 0.568,3.904 1.188,4.561 0.476,0.506 2.405,1.759 3.201,1.836 1.302,0.126 3.962,-0.667 3.962,-0.667 0,0 2.147,3.091 3.459,4.542 0.572,0.633 1.045,1.143 1.779,1.157 0.303,0.006 0.739,-0.032 0.739,-0.032 z m 1.907,-3.844 c -6.256,3.76 -12.011,8.142 -13.435,12.218 -0.92,2.635 -0.749,5.587 1.086,8.127 0.078,0.109 0.15,0.207 0.215,0.295 -0.828,-1.124 2.245,3.605 2.068,-1.2 -0.042,-1.147 -0.172,-2.589 -0.549,-2.951 -0.219,-0.21 -0.521,-0.058 -0.71,-0.172 -0.851,-0.511 0.597,-2.619 1.287,-3.425 0.809,-0.943 1.783,-1.916 2.885,-2.899 6.127,-5.464 13.114,-9.562 21.014,-11.873 0.621,-0.182 1.214,-0.335 1.775,-0.458 0.818,-0.179 1.635,-0.324 1.789,-0.047 0.077,0.138 -0.01,0.379 -0.142,0.652 -0.31,0.641 -0.806,1.417 -1.357,2.249 -11.425,17.252 6.597,-6.691 11.711,-7.363 0.468,-0.231 0.907,-0.417 1.296,-0.54 1.99,-0.626 4.146,-0.759 4.407,-2.667 0.037,-0.268 0.042,-0.601 0.033,-0.925 -0.073,-2.622 -3.676,-1.991 -6.956,-0.912 -1.873,0.615 -19.313,7.621 -26.417,11.891 z m 45.459001,47.362 -0.037,5.549 1.618,-1.882 c 2.945,-5.481 3.011,-8.422 2.431,-16.32 -0.523,-7.123 -1.173,-14.87 -2.348,-22.589 -0.457,-3.005 -0.994,-6.005 -1.409,-8.688 -0.13,-0.842 -0.248,-1.653 0,-1.879 0.142,-0.129 0.403,-0.067 0.691,0.139 0.047,0.033 0.094,0.07 0.142,0.11 3.22,1.798 2.998,1.254 2.398,0.271 -0.974,-1.594 -1.818,-6.732 -2.187,-8.613 -0.305,-1.553 -0.537,-2.735 -0.537,-2.735 -0.245,-1.244 -0.285,-1.431 -0.4,-1.872 l -0.366,-1.678 -1.633,1.01 c -0.46,0.285 -0.98,0.714 -1.549,1.233 -0.694,0.634 -1.134,1.229 -1.463,2.217 -0.485,1.458 -0.526,5.343 -0.063,5.962 0.113,0.151 0.248,0.257 0.384,0.425 1.086,1.341 1.487,3.794 1.296,4.94 -0.154,0.925 -0.603,1.855 -0.94,2.809 -0.612,1.736 3.823,28.488 3.992,37.579 0.025,1.353 0.011,2.743 -0.02,4.012 z m -76.831001,-32.019 c 2.738,2.407 6.721,3.66 8.289,1.31 1.018,-1.524 2.675,-4.703 2.675,-4.703 0,0 -1.684,-2.545 -3.09,-3.638 -0.944,-0.736 -2.747,-1.043 -3.813,-0.464 -0.941,0.511 -2.039,1.989 -2.635,1.384 -0.723,-0.734 1.635,-5.544 1.782,-5.956 1.803,-5.048 1.706,-8.202 0.322,-12.395 -0.426,-1.29 -0.897,-2.6 -1.555,-3.113 l -0.762,-0.593 -0.799,0.852 c -1.244,1.328 -1.006,4.805 -0.6,6.232 0.381,1.335 1.047,2.662 1.422,4.096 0.447,1.705 0.23,5.688 -0.407,7.483 -0.878,2.474 -2.5,4.742 -2.143,7.443 0.122,0.925 0.254,1.131 1.314,2.062 z m 26.718,50.627 c -0.386,2.413 0.084,3.006 1.688,2.265 1.093,-0.504 15.189,-8.704 17.248,-11.16 0.829,-0.989 1.656,-2.738 1.948,-4.312 0.18,-0.969 -0.111,-0.935 -1.155,-0.547 -2.419,0.9 -18.367,10.608 -18.867,11.486 -0.467,0.819 -0.766,1.669 -0.862,2.268 z m -52.3233,-60.777 c -0.5532,0.882 -1.0635,1.74 -1.2786,2.222 -0.1469,0.329 -0.2982,0.659 -0.4515,0.992 -0.8311,1.801 -1.5875,3.446 -2.177,5.011 -1.5071,4 -2.0644,13.819 3.9445,15.764 1.3259,0.429 2.8039,-0.157 4.3039,-2.528 1.174,-1.856 1.983,-4.337 1.983,-4.337 0,0 -3.034,0.914 -4.471,0.437 -5.78,-1.918 -3.3509,-9.911 -1.6774,-14.586 1.3974,-3.905 2.3914,-7.073 -0.1759,-2.975 z m 13.4953,-10.183 -4.338,4.309 c -0.72,0.716 -0.823,0.845 -1.025,1.286 -0.282,0.617 -0.38,1.65 -0.241,1.79 0.449,0.454 2.038,-0.647 2.591,-1.055 4.842,-3.57 7.047,-5.82 7.83,-10.444 0.398,-2.35 -0.846,-3.259 -3.048,-3.559 -3.494,-0.476 -6.96,0.011 -8.318,2.641 0.212,10.042 0.511,4.299 3.473,3.587 3.296,-0.794 6.839,-2.555 3.076,1.445 z m 66.597,20.211 -4.338,4.309 c -0.721,0.716 -0.823,0.844 -1.025,1.285 -0.282,0.618 -0.38,1.65 -0.241,1.791 0.449,0.453 2.037,-0.647 2.59,-1.055 4.842,-3.571 7.048,-5.82 7.831,-10.444 0.398,-2.35 -0.847,-3.26 -3.049,-3.56 -3.493,-0.475 -6.96,0.011 -8.317,2.641 0.212,10.042 0.51,4.3 3.472,3.587 3.296,-0.793 6.84,-2.555 3.077,1.446 z m -31.979,35.541 -4.592,4.593 4.592,4.592 4.592,-4.592 -4.592,-4.593 z m 35.618,-14.726 c -0.235,1.014 -0.464,2.436 -0.357,4.359 -1.066,0.405 -2.635,-0.595 -4.309,-1.577 -2.084,-1.222 -2.162,-2.122 -0.168,-3.632 0.494,-0.374 1.017,-0.706 1.595,-0.918 0.244,-0.09 0.43,-0.155 0.6,-0.202 4.501,-1.267 2.559,2.315 2.639,1.97 z m -29.504,-6.317 c -0.462,1.281 -0.863,2.715 -0.907,3.5 -0.098,1.741 -0.163,3.813 -0.163,3.813 l -5.323,0.14 c -1.265,0.033 -1.512,0.028 -2.471,-0.051 -1.482,-0.122 -2.687,-0.664 -3.5,-1.668 -3.102,-3.829 -1.396,-8.705 -6.337,-9.212 -4.69,-0.481 -12.686,5.145 -15.044,7.427 -0.266,0.258 -0.525,0.52 -0.767,0.791 -0.948,1.06 -3.207,10.555 -2.576,11.677 0.05,0.09 0.103,0.182 0.16,0.275 0.362,0.602 0.792,1.142 1.449,1.604 1.804,1.267 10,2.505 10,2.505 0,0 -3.043,1.607 -5.18,2.526 -4.118,1.771 -11.614,1.959 -15.882,0.198 -11.3699,-4.692 -9.9394,-21.787 -9.9159,-21.844 -0.9498,2.31 -2.0211,5.419 -2.2542,6.823 -0.0375,0.226 -0.0732,0.449 -0.107,0.669 -2.2572,14.719 7.8281,27.875 23.5991,23.872 5.349,-1.358 10.162,-4.445 11.937,-7.759 1.709,-3.192 4.138,-10.235 3.144,-12.006 -0.403,-0.718 -2.208,-1.597 -3.799,-1.851 -2.978,-0.475 -8.954,-0.198 -8.026,-2.088 1.077,-2.191 9.717,-4.308 11.312,-3.859 0.998,0.281 1.841,1.09 2.479,2.279 1.671,3.12 1.572,5.936 3.704,7.171 3.08,1.784 9.653,1.817 11.258,0.174 1.889,-1.934 2.165,-4.211 3.39,-3.439 0.494,0.312 1.187,1.082 1.896,1.674 2.458,2.05 7.771,3.082 9.738,2.544 2.503,-0.685 4.749,-3.428 6.474,-3.452 1.95,-0.027 7.373,4.012 10.338,4.418 2.824,0.388 4.09,-2.817 6.475,-6.968 1.784,-3.105 1.954,-4.46 0.115,-8.273 -0.833,-1.726 -2.49,-4.058 -3.573,-4.531 -2.238,-0.977 -12.865,2.812 -14.315,5.533 -1.714,3.216 -0.918,4.757 -3.845,4.666 -3.577,-0.111 -8.895,-1.51 -10.169,-4.981 -0.265,-0.722 -0.315,-0.966 -0.346,-1.965 -0.271,-8.647 -3.545,1.265 -2.968,-0.332 z"/>
</svg>