<?xml version="1.0" encoding="UTF-8" standalone="yes"?>
<svg>
  <path
    style="stroke:none; fill:#000000"
    d="m 93.3,78.207964 c -0.364,2.271 0.078,2.828 1.588,2.131 1.027,-0.474 14.288,-8.188 16.225,-10.498 0.78,-0.93 1.557,-2.575 1.832,-4.056 0.169,-0.912 -0.105,-0.879 -1.086,-0.514 -2.276,0.846 -17.278,9.978 -17.748,10.804 -0.439,0.77 -0.721,1.57 -0.811,2.133 z M 36.662,6.7049639 c -1.314,1.038 -3.938,2.563 -5.623,3.6410001 -0.69,0.442 -1.02,0.734 -1.284,1.553 -0.224,0.693 -0.266,1.539 0.03,1.749 0.642,0.455 6.224,-3.331 6.431,-3.484 1.599,-1.1880001 2.43,-2.5130001 3.041,-5.1310001 1.087,-4.656 -3.292,-5.843 -7.864,-4.534 -2.712,0.776 -3.432,2.019 -4.29,5.172 -0.388,1.428 -0.045,1.277 2.005,0.865 1.343,-0.27 2.916,-0.528 3.504,-1.19 1.032,-1.161 1.031,-1.474 3.146,-0.331 0.395,0.214 0.71,0.429 0.89,0.903 0.109,0.286 0.168,0.665 0.014,0.787 z m 49.653,2.113 -4.881,4.8490001 c -0.811,0.806 -0.926,0.95 -1.153,1.447 -0.318,0.695 -0.428,1.857 -0.272,2.014 0.505,0.511 2.293,-0.728 2.915,-1.187 5.449,-4.018 7.931,-6.5490001 8.812,-11.7530001 0.448,-2.645 -0.952,-3.668 -3.43,-4.006 -3.932,-0.535 -7.833,0.012 -9.36,2.972 0.238,11.3010001 0.574,4.839 3.908,4.037 3.709,-0.893 7.697,-2.875 3.461,1.627 z m 11.862,3.5090001 0.476,8.378 2.236,40.935 c 0,0 1.518,-1.521 2.428,-2.906 1.29,-1.963 1.357,-3.652 1.746,-5.536 0.304,-1.479 0.324,-1.809 0.199,-3.302 l -2.449,-29.205 -0.232,-4.958 c 0.243,0.134 0.475,0.255 0.693,0.362 l 3.768,1.865 -0.72,-1.982 c -0.081,-0.225 -0.168,-0.463 -0.255,-0.703 -1.045,-2.879 -1.625,-5.7260001 -2.321,-8.6780001 -0.666,-2.826 -1.554,-6.59 -1.554,-6.59 0,0 -0.629,-0.034 -1.208,0.049 -1.592,0.228 -4.992,5.3 -5.213,6.452 -0.02,0.109 -0.033,0.218 -0.038,0.326 -0.01,0.238 0.009,0.489 0.049,0.748 0.291,1.857 1.226,3.4410001 2.395,4.7450001 z m -15.031,56.154 4.52,4.522 5.833,-5.837 -5.833,-5.837 -4.519,4.522 -4.519,-4.522 -5.834,5.837 5.833,5.837 4.519,-4.522 z m -13.158,-43.609 4.519,4.522 5.833,-5.837 -5.833,-5.837 -4.519,4.522 -4.519,-4.522 -5.834,5.837 5.833,5.837 4.52,-4.522 z m -60.8213003,1.033 -1.6565,0.029 c -0.7444,0.013 -0.8782,-0.001 -1.3383,-0.14 -1.5948,-0.481 -2.6085,-1.827 -3.1687,-3.086 -1.9475,-4.377 -0.7549,-6.157 2.0621,-9.411 0.1261,-0.145 0.2513,-0.294 0.3744,-0.448 0.9461,-1.182 1.0559,-1.566 1.266,-2.647 0.171,-0.8790001 0.12,-0.9720001 -0.4824,-0.8930001 -0.2092,0.028 -0.3286,0.121 -1.194,0.9320001 -2.1425,2.008 -3.7555,5.462 -4.46719996,8.774 -0.6506,3.028 0.0232,12.681 5.46689996,12.173 0.7714,-0.072 1.5435,-0.245 1.9351,-0.487 0.6723,-0.416 1.1919,-1.546 1.2392,-2.697 0.0369,-0.896 -0.0366,-2.099 -0.0366,-2.099 z m 27.3493003,24.678 0.532,5.388 c 0,0 -4.747,3.406 -8.223,5.025 -2.878,1.34 -9.588,2.193 -12.514,1.749 -6.156,-0.933 -11.0820003,-5.885 -12.1512003,-11.588 -0.231,-1.233 -0.2535,-2.335 -0.0704,-4.032 0.483,-4.473 2.3961,-13.076 2.3961,-13.076 0,0 -0.4237,-0.053 -0.6996,0.012 -0.4258,0.101 -0.4993,0.484 -0.5969,0.886 -0.493,2.031 -1.5994,4.562 -2.5014,7.041 -3.7785,10.386 -4.4084,19.301 3.6498,25.333 7.2936003,5.459 15.1576003,3.882 23.4686003,-0.219 0.642,-0.316 1.32,-0.693 1.975,-1.092 2.746,-1.676 7.226,-11.412 8.695,-15.015 0.156,-0.381 0.275,-0.771 0.364,-1.167 0.857,-3.844 -5.092,-19.605 -10.843,-18.915 -2.065,0.247 -3.91,2.078 -5.113,4.783 -2.149,4.837 -3.669,9.828 -0.852,13.793 1.108,1.56 2.355,2.142 4.279,2.112 2.812,-0.044 8.205,-1.018 8.205,-1.018 z m -9.799,-10.151 c -0.08,-0.25 -0.17,-0.777 -0.019,-1.05 0.663,-1.195 4.791,1.958 5.298,2.795 0.264,0.437 0.279,0.848 0.018,1.049 -0.485,0.373 -2.539,-0.005 -3.509,-0.595 -0.406,-0.246 -1.52,-1.358 -1.788,-2.199 z m 62.269,10.006 -0.437,0.008 0.008,0.437 -4.093,0.071 c -1.181,0.021 -1.408,0.006 -2.273,-0.149 -3.298,-0.592 -5.875,-3.887 -6.438,-6.784 -0.107,-0.552 -0.125,-1.085 -0.028,-1.574 0.163,-0.817 0.645,-1.51 0.828,-2.718 0.255,-1.688 -0.077,-4.381 -0.077,-4.381 0,0 -0.549,-0.044 -1.049,0.018 -0.665,0.083 -4.234,4.558 -5.836,6.444 -0.844,0.994 -1.824,1.362 -3.897,2.255 -0.984,0.424 -2.218,0.97 -2.218,0.97 0,0 -1.312,-3.296 -2.446,-5.044 -1.028,-1.584 -4.256,-3.537 -6.401,-3.387 -1.815,0.127 -3.962,1.357 -4.907,2.764 -2.717,4.046 -4.694,9.11 -2.915,12.681 1.381,2.772 2.943,3.258 5.954,2.812 2.63,-0.39 6.965,-1.337 6.965,-1.337 l 2.537,5.176 c 0,0 -2.6,2.992 -4.971,5.194 -5.09,4.729 -19.426,10.868 -26.466,12.271 -3.505,0.699 -7.851,1.231 -7.851,1.231 l 0.022,1.312 c 0,0 5.372,-0.031 8.993,0.535 3.115,0.487 4.934,1.415 6.787,1.376 3.918,-0.083 14.565,-6.302 17.348,-8.394 2.878,-2.163 4.598,-3.798 5.296,-6.02 0.364,-1.161 0.602,-2.727 1.099,-4.247 1.072,-3.283 3.347,-6.347 3.514,-8.624 0.079,-1.086 -0.321,-1.994 0.003,-2.989 0.341,-1.043 2.734,-3.283 4.248,-4.792 0.837,-0.835 0.964,-0.933 1.278,-0.974 1.005,-0.133 1.26,0.153 0.738,2.126 -0.972,3.675 -1.733,5.117 0.81,8.821 2.576,3.754 7.779,4.278 12.511,2.625 3.543,-1.238 5.083,-4.962 7.358,-9.183 1.906,-3.539 1.465,-5.248 -0.149,-9.93 -0.988,-2.865 -1.689,-4.837 -3.652,-2.6 -2.751,3.136 -3.348,4.872 -2.795,8.433 0.093,0.604 0.181,1.204 0.53,1.481 0.205,0.164 0.502,0.215 0.751,0.375 0.68,0.433 1.241,1.768 1.303,2.662 0.033,0.471 0.018,1.049 0.018,1.049 z m -37.907,-5.021 c -0.007,-0.421 -0.014,-0.809 -0.014,-0.809 0,0 0.656,-0.011 1.426,-0.025 0.581,-0.01 2.931,0.681 2.941,1.262 0.008,0.435 0.021,1.17 0.021,1.17 0,0 -0.514,0.009 -1.073,0.019 -1.317,0.023 -3.288,-0.868 -3.301,-1.617 z M 69.337,-3.6104905e-5 64.956,0.0769639 c -1.181,0.02 -1.386,0.037 -2.059,0.171 -2.069,0.411 -2.431,1.434 -3.1,4.433 -0.275,1.229 -0.395,2.472 0.053,3.069 1.273,1.696 3.018,1.382 2.008,2.9000001 -0.715,1.075 -2.834,2.47 -5.005,3.711 -1.38,0.79 -7.54,3.74 -8.386,5.248 -0.393,0.7 -0.508,1.84 -0.181,2.19 0.617,0.662 6.012,-2.146 7.169,-2.749 2.609,-1.36 9.089,-6.081 10.149,-7.394 1.265,-1.567 3.575,-5.0920001 3.807,-7.4230001 0.18,-1.806 -0.074,-4.233000004905 -0.074,-4.233000004905 z M 63.745,5.3459639 c 0,0 0,-0.012 -0.002,-0.102 -0.014,-0.799 0.654,-1.221 1.452,-1.235 0.028,-0.001 0.056,-0.001 0.082,-0.001 0.303,-0.006 1.519,0.772 1.525,1.075 0.005,0.328 0.011,0.647 0.011,0.647 0,0 -3.068,-0.384 -3.068,-0.384 z m -33.234,19.5260001 4.519,4.522 5.833,-5.837 -5.833,-5.837 -4.519,4.522 -4.519,-4.522 -5.834,5.837 5.833,5.837 4.52,-4.522 z"/>
</svg>