<?xml version="1.0" encoding="UTF-8" standalone="yes"?>
<svg xmlns="http://www.w3.org/2000/svg" xmlns:xlink="http://www.w3.org/1999/xlink"
  width="595.276pt" height="841.89pt" viewBox="0 0 595.276 841.89">
  <path
    style="stroke:none; fill:#000000"
    d="m 8.1037034,31.012031 c -0.1944,-0.01613 -0.45615,0.015 -0.78125,0.0625 -0.487325,0.07062 -0.640738,0.236337 -1.4687501,1.59375 -2.60895,4.275862 -6.73271296,14.430188 -5.68749992,19.625 0.4235,2.106713 2.84702492,4.93475 4.12499992,5.84375 1.277962,0.909 6.9806367,3.1279 9.9374987,0.9688 0.856526,-0.856525 1.946739,-4.541725 1.656251,-5.5625 -0.545687,-1.9126 -2.690338,-0.611275 -5.687501,-0.46875 -4.5663487,0.2199 -7.5575867,-4.921087 -6.6562487,-9.125 0.738425,-3.438326 3.2431751,-7.663738 4.6562501,-11.28125 0.473387,-1.212513 0.4894,-1.607963 -0.09375,-1.65625 z m 17.6788106,17.916931 -5.77537,5.73751 c -0.9596,0.95368 -1.09567,1.12525 -1.36427,1.71214 -0.37626,0.82235 -0.50642,2.19727 -0.32183,2.38422 0.59871,0.60345 2.71315,-0.8614 3.44912,-1.4045 6.44745,-4.75542 9.38542,-7.75019 10.42785,-13.90656 0.52891,-3.12966 -1.12762,-4.34129 -4.05968,-4.74004 -4.65248,-0.63421 -9.26827,0.0142 -11.07507,3.51657 0.28161,13.37174 0.67917,5.72449 4.62408,4.77554 4.38862,-1.05545 9.10736,-3.4018 4.09517,1.92512 z m 27.559702,-5.010854 -5.77537,5.73751 c -0.9596,0.95368 -1.09567,1.12525 -1.36427,1.71214 -0.37626,0.82235 -0.50642,2.19727 -0.32183,2.38422 0.59871,0.60345 2.71315,-0.8614 3.44912,-1.4045 6.44745,-4.75542 9.38542,-7.75019 10.42785,-13.90656 0.52891,-3.12966 -1.12762,-4.34129 -4.05968,-4.74004 -4.65248,-0.63421 -9.26827,0.0142 -11.07507,3.51657 0.28161,13.37174 0.67917,5.72449 4.62408,4.77554 4.38862,-1.05545 9.10736,-3.4018 4.09517,1.92512 z m 1.614423,-24.423163 -0.55,-10.5037503 c -0.0812,-1.5575 -0.11375,-1.82875 -0.32125,-2.71125 -0.63625,-2.70625 -2.349999,-4.1875 -4.141249,-5.145 -2.2775,-1.21624999 -4.01538,-1.66749999 -6.36263,0.045 -1.93012,1.4075 -2.11175,6.50625 -1.35312,7.30375 0.566,0.595 2.066,0.54125 3.88137,0.115 4.53438,-1.065 4.98938,-0.81875 6.170629,3.9762503 0.56125,2.27875 0.6275,4.41375 0.35125,6.705 -0.58625,4.8675 -1.963749,7.235 0.735,10.0925 1.12375,1.18875 2.2975,1.36875 4.86,0.84125 1.82125,-0.375 2.1825,-1.22125 2.94625,-3.74375 0.5375,-1.775 0.9625,-3.365 0.825,-5.13375 -0.27375,-3.5125 -4.07,-10.1125 0.50625,-11.7525003 0.84375,-0.3025 1.9425,-0.105 2.88875,0.10125 1.27625,0.27875 1.4925,0.1525 2.165,-1.26 0.5525,-1.16125 1.1925,-2.23 1.54375,-3.48 1.32,-4.69249999 -0.70125,-6.01625 -4.7575,-4.09499999 -4.6525,2.20499999 -6.7425,11.65125029 -5.74875,17.98375029 0.30375,2.61125 0.6375,4.96125 0.6375,4.96125 0,0 -0.2775,-0.004 -0.60875,-0.0362 -1.3025,-0.1275 -3.54125,-1.8575 -3.6675,-4.26375 z m -37.930321,0 -0.55,-10.5037503 c -0.0812,-1.5575 -0.11375,-1.82875 -0.32125,-2.71125 -0.63625,-2.70625 -2.349999,-4.1875 -4.141249,-5.145 -2.2775002,-1.21624999 -4.0153802,-1.66749999 -6.3626302,0.045 -1.93012,1.4075 -2.11175,6.50625 -1.35312,7.30375 0.566,0.595 2.066,0.54125 3.88137,0.115 4.5343802,-1.065 4.9893802,-0.81875 6.1706292,3.9762503 0.56125,2.27875 0.6275,4.41375 0.35125,6.705 -0.58625,4.8675 -1.963749,7.235 0.735,10.0925 1.12375,1.18875 2.2975,1.36875 4.86,0.84125 1.82125,-0.375 2.1825,-1.22125 2.94625,-3.74375 0.5375,-1.775 0.9625,-3.365 0.825,-5.13375 -0.27375,-3.5125 -4.07,-10.1125 0.50625,-11.7525003 0.84375,-0.3025 1.9425,-0.105 2.88875,0.10125 1.27625,0.27875 1.4925,0.1525 2.165,-1.26 0.5525,-1.16125 1.1925,-2.23 1.54375,-3.48 1.32,-4.69249999 -0.70125,-6.01625 -4.7575,-4.09499999 -4.6525,2.20499999 -6.7425,11.65125029 -5.74875,17.98375029 0.30375,2.61125 0.6375,4.96125 0.6375,4.96125 0,0 -0.2775,-0.004 -0.60875,-0.0362 -1.3025,-0.1275 -3.54125,-1.8575 -3.6675,-4.26375 z m 93.175862,-1.552367 c -0.23063,-0.230629 -0.12374,-0.893297 0.40374,-2.503096 0.52551,-1.603767 1.15241,-2.645096 1.92703,-3.200931 0.2249,-0.161384 1.65563,-0.979241 3.1794,-1.817459 1.52376,-0.8382156 3.68473,-2.0464896 4.80215,-2.6850526 1.11743,-0.638563 3.03068,-1.729803 4.25167,-2.424978 4.02391,-2.291024 7.03744,-3.604075 10.38175,-4.52352195 1.68335,-0.4628 3.27674,-0.816359 3.54087,-0.785685 0.43071,0.05002 0.48596,0.14425 0.53574,0.913612 0.0712,1.10028895 -0.56818,3.61319995 -1.01009,3.96996295 -0.71444,0.576791 -2.49414,1.313866 -7.07979,2.932154 -3.14552,1.110061 -9.91118,3.9264286 -12.03257,5.0088436 -1.08158,0.551866 -2.95935,1.699328 -4.17282,2.549914 -1.21347,0.850587 -2.71571,1.803664 -3.3383,2.117946 -1.25335,0.632688 -1.21633,0.62074 -1.38878,0.448291 z m 5.11434,11.720808 -3.11704,-2.992903 3.12967,-2.988433 3.12967,-2.988433 2.98876,2.992879 2.98875,2.992877 -3.00138,2.988459 -3.00138,2.988459 -3.11705,-2.992905 z m 17.94473,3.994724 c -0.13235,-0.416975 -0.0147,-1.201652 0.47183,-3.147944 0.97348,-3.894007 1.089,-5.368208 0.56789,-7.247473 -0.48099,-1.734603 -1.08095,-2.438634 -2.77001,-3.250511 -1.33124,-0.639883 -1.42549,-0.725944 -1.75185,-1.599755 -0.27724,-0.742278 -0.32333,-1.216233 -0.23486,-2.415357 0.26417,-3.580635 1.19357,-4.093112 3.34466,-1.84427 1.49415,1.562051 1.77785,1.978012 2.5513,3.740739 1.22252,2.78616 1.3227,6.083281 0.33002,10.861993 -0.52586,2.531527 -1.68581,5.263902 -2.23463,5.263902 -0.0878,0 -0.21128,-0.162596 -0.27435,-0.361324 z m -60.733379,-3.763369 -3.10496,-2.990528 3.11855,-3.105299 3.11855,-3.105297 2.97721,3.117921 2.97721,3.117922 -2.99081,2.977905 -2.99081,2.977904 -3.10494,-2.990528 z m 55.816799,16.38791 c 0.27482,-0.824477 -1.01994,-2.356284 -2.69882,-3.192902 -0.73431,-0.365924 -1.20704,-0.46186 -2.2758,-0.46186 l -1.34898,0 0,1.079563 c 0,1.170045 0.14099,1.390305 1.2493,1.951766 1.3385,0.678068 4.90983,1.116845 5.0743,0.623433 z m -9.09407,22.016588 c -1.30074,-0.169152 -4.83524,-1.485357 -7.2621,-2.704316 -1.36273,-0.684473 -3.82059,-2.615006 -4.50104,-3.535367 -0.96961,-1.311478 -1.91974,-3.81709 -2.25934,-5.958218 -0.1039,-0.655057 -0.27528,-2.52084 -0.38085,-4.146185 -0.10557,-1.625345 -0.26942,-3.57853 -0.36412,-4.34041 -0.0947,-0.761881 -0.22275,-2.174823 -0.28457,-3.139871 -0.0618,-0.965049 -0.19016,-2.54422 -0.2852,-3.509268 -0.095,-0.965049 -0.25913,-3.416919 -0.36464,-5.4486 -0.21475,-4.135386 -0.64662,-10.178895 -0.9173,-12.836532 -0.26899,-2.641053 -0.82408,-12.142715 -0.77543,-13.2732941 0.0235,-0.544971 0.1306,-1.1552213 0.23811,-1.3561143 0.10752,-0.200891 0.39216,-1.001719 0.63254,-1.779616 1.14202,-3.6956856 1.84431,-5.28316556 2.66634,-6.02708556 1.39771,-1.26491204 2.31988,2.37859996 2.78024,10.98481496 0.1114,2.082473 0.27274,10.601682 0.35853,18.931576 0.17013,16.517957 0.0934,15.378158 1.32988,19.762719 0.31511,1.117424 0.69557,2.281024 0.84547,2.585776 0.46235,0.939957 2.23627,3.165385 3.05548,3.833171 1.48557,1.210978 4.13633,2.458342 6.38582,3.004971 1.885,0.458056 2.31695,0.499203 4.24806,0.404665 2.23067,-0.109201 4.50344,-0.601906 7.21986,-1.565165 2.17887,-0.772635 2.42014,-1.228484 1.55511,-2.938169 -0.31378,-0.620184 -0.66699,-1.034928 -0.99823,-1.172131 -0.5444,-0.225498 -0.82411,-0.18434 -5.62704,0.828001 -1.74629,0.368076 -2.51018,0.443586 -3.60161,0.356021 -2.78755,-0.223646 -4.73012,-1.39612 -5.87644,-3.546845 -0.69091,-1.296285 -0.75892,-2.36279 -0.29426,-4.614731 0.41416,-2.007198 2.31559,-7.185585 3.30474,-9.00021 1.36056,-2.495982 3.34439,-4.048622 5.78698,-4.529172 l 1.15408,-0.227052 1.41329,0.698483 c 3.70561,1.831413 8.45139,8.322537 9.19269,12.573474 0.6968,3.995778 -0.10338,8.980809 -2.07151,12.90514 -0.98443,1.962902 -1.46403,2.652168 -3.16588,4.549923 -0.98385,1.097099 -4.31984,2.871048 -6.69069,3.557847 -1.40174,0.406065 -4.45368,0.897841 -5.15408,0.830507 -0.15238,-0.01465 -0.73418,-0.08608 -1.29289,-0.158737 z M 78.581201,83.127815 c -0.0682,-0.21492 -0.0678,-0.94217 9.3e-4,-1.61611 0.0975,-0.956394 0.26495,-1.439105 0.7627,-2.199225 1.00735,-1.538328 3.09039,-2.732044 12.08264,-6.924125 5.14726,-2.399595 7.43398,-3.316644 8.08352,-3.241762 0.479442,0.05527 0.499699,0.09932 0.451502,0.981359 -0.0602,1.101765 -1.134722,3.389251 -1.997192,4.251724 -0.79464,0.794639 -2.53412,1.612579 -5.24793,2.467691 -3.56753,1.124119 -5.99105,2.266188 -10.62015,5.004691 -3.137,1.855804 -3.31182,1.919233 -3.51605,1.275757 z m -31.17506,-1.054612 -3.10289,-3.106927 3.11838,-2.977651 3.11838,-2.97765 2.11095,2.123192 2.11095,2.123192 2.03168,-2.132604 2.03168,-2.132605 3.10495,3.000661 3.10495,3.00066 -3.12006,3.106805 -3.12005,3.106805 -2.00314,-2.147778 -2.00313,-2.147779 -2.13988,2.134302 -2.13988,2.134302 -3.10289,-3.106925 z M 89.0625,52.65625 c 0.931635,-0.03218 1.868255,0.230514 3.09375,0.8125 2.088864,0.991996 3.640056,2.275303 4.3125,3.5625 0.521932,0.999065 0.53315,1.08578 0.25,1.59375 -0.168332,0.301977 -0.588324,0.650256 -0.96875,0.78125 -0.373927,0.128758 -1.42679,0.22735 -2.34375,0.21875 -1.817979,-0.01712 -10.529764,-0.49638 -10.8125,-0.59375 -0.249295,-0.08586 1.50515,-3.124022 2.5625,-4.4375 0.752059,-0.934228 1.118712,-1.175654 2.1875,-1.5625 0.621609,-0.224992 1.159769,-0.355692 1.71875,-0.375 z M 37.03125,0.15625001 c -0.726773,0 -0.911682,0.0898209 -1.34375,0.65625 C 34.881058,1.8697902 33.330683,5.414152 33,6.9375 c -0.261148,1.203086 -0.217107,3.569354 0.09375,5.09375 0.153984,0.755147 0.530083,3.743539 0.8125,6.65625 0.282418,2.912712 0.717615,13.905356 1,16.65625 0.432155,4.209531 0.48571,5.725587 0.4375,9.6875 -0.08817,7.281573 1.878505,19.52929 2.875,31.625 l 0.09375,1.40625 -0.90625,0.59375 c -1.206928,0.765407 -1.558371,0.88442 -4.3125,1.5625 -3.554665,0.875175 -5.199245,1.093946 -8.53125,1.09375 -6.056303,-3.9e-4 -9.190561,-3.992398 -11.3125,-9.84375 -0.283818,-1.275898 -0.293866,-1.853334 -0.09375,-4.8125 0.473289,-6.998815 0.66372,-9.165341 0.96875,-10.25 -0.108454,0.01553 -0.251698,0.02898 -0.28125,0.03125 -0.13155,0.01009 -0.243063,0 -0.375,0 l -0.6875,0 c 0.01865,0.11493 0.02711,0.239444 0.03125,0.375 0.02038,0.666091 -0.7995,4.531418 -1.96875,9.34375 -1.426222,5.869991 -1.846005,8.716084 -1.71875,11.53125 0.152158,3.365804 0.521408,4.842906 1.65625,6.75 1.326865,2.229786 2.951841,3.782664 5.1875,4.9375 1.860874,0.956218 3.468437,1.476379 5.84375,1.25 2.647646,0.01811 3.001244,-0.02917 5.375,-0.65625 4.057705,-1.071941 8.690479,-3.067056 10.9375,-4.71875 1.141108,-0.838787 1.391685,-1.210379 3.65625,-5.875 2.125502,-4.37817 2.934003,-6.515347 3.25,-8.53125 0.264619,-1.688057 0.348854,-1.77576 2,-1.40625 1.590093,0.355849 3.339717,0.169122 5.09375,-0.9375 1.386254,-0.874591 2.555107,-2.034528 3.0625,-2.15625 0.195022,0.207654 0.33291,0.630961 1.84375,1.65625 0.661686,0.449038 0.892739,0.46875 2.9375,0.46875 2.85716,0 5.575014,-0.541458 7.34375,-1.5 2.891207,-1.566848 2.250193,-1.136421 3.21875,-1.5 0.175928,1.43621 4.755477,2.293083 5.0625,2.59375 0.07846,0.07683 -0.05397,0.747792 -0.3125,1.5 -0.438249,1.275097 -0.891687,4.03125 -0.65625,4.03125 0.421003,0 0.938324,-0.503767 2.21875,-2.125 0.806123,-1.020696 1.46875,-1.91318 1.46875,-2 0,-0.22445 1.866733,-0.953782 2.96875,-1.15625 0.511482,-0.09397 2.72079,-0.14407 4.90625,-0.09375 6.699925,0.154252 9.320412,-0.475069 11.125,-2.75 1.651207,-2.081598 3.5435,-5.155732 4.28125,-6.9375 0.66047,-1.595066 0.70805,-1.873094 0.71875,-3.78125 0.0108,-1.921442 -0.0406,-2.141288 -0.625,-3.375 -0.84416,-1.782038 -2.17247,-3.623802 -3.3125,-4.53125 -2.193168,-1.74574 -5.102196,-3.0625 -6.6875,-3.0625 -1.062384,0 -3.69729,2.073478 -6.46875,5.09375 -2.006371,2.186494 -2.566231,2.929355 -4.0625,5.5625 -1.646112,2.896855 -2.71171,4.25 -3.375,4.25 -0.927091,0 -1.678674,-0.620387 -2.65625,-2.15625 -0.739315,-1.161523 -1.099917,-1.59375 -1.40625,-1.59375 -0.258587,0 -0.941336,0.53812 -1.78125,1.40625 -0.74334,0.768321 -1.713849,1.555519 -2.15625,1.75 -1.921192,0.844549 -6.55947,1.689459 -8.03125,1.46875 -0.916599,-0.137451 -1.23761,-0.431459 -2.5625,-2.21875 -0.41666,-0.56207 -0.880505,-1.06716 -1.03125,-1.125 -0.385534,-0.147943 -0.883105,0.155021 -1.625,1 C 55.648177,58.224505 54.047559,59.496825 53,60.03125 51.145988,60.9771 47.607933,60.652673 45.15625,59.3125 43.954611,58.655642 43,57.850226 43,57.5 43,57.413414 42.807491,56.207057 42.59375,54.8125 42.136704,51.830555 41.334025,45.221138 40.9375,41.28125 40.783431,39.750542 40.536704,37.421813 40.375,36.09375 39.985781,32.897147 39.368404,19.377096 39,13.90625 38.836543,11.478991 38.633623,8.689654 38.53125,7.71875 38.428856,6.747847 38.283,4.8882888 38.21875,3.59375 38.046299,0.12110868 38.042268,0.15625001 37.03125,0.15625001 z M 86.892497,16.457865 c -0.98875,6.10625 -4.41875,15.33126 1.21,18.13251 4.05751,2.01875 6.97001,0.265 7.85251,-4.1175 0.32125,-1.595 0.14125,-2.65375 -1.08,-3.30375 -2.04125,-1.085 -6.58376,-0.79375 -7.68251,-1.99626 -0.405,-0.44375 -0.38375,-1.08625 -0.24,-1.87875 1.13625,-6.24875 2.65125,-7.0675 2,-11.90251 -0.31125,-2.3087502 -2.485,-12.9200106 -5.535,-11.20501059 -1.61,0.90375999 -2.33375,4.17500999 -1.6075,5.30625999 0.42125,0.65625 1.4,1.34875 2.05625,2.0925 1.305,1.4787504 3.3875,6.6487606 3.02625,8.8725106 z"/>
</svg>