<?xml version="1.0" encoding="UTF-8" standalone="no"?>
<svg>
    <path
       d="m 129.43085,14.264605 0,-3.23125 c 0,-1.4287504 0.0987,-1.6037504 0.98375,-1.7587504 0.65625,-0.115 1.32875,-0.46125 1.87875,-0.70625 0.93875,-0.4175 1.525,-0.53875 1.90875,-1.05875 0.47625,-0.64625 0.47625,-4.295 0,-5.46875 -1.46,-3.595 -4.135,-1.9675 -6.44,1.2375 -0.001,0.00125 -0.002,0.0025 -0.002,0.00375 -2.50875,3.48875 -0.34625,2.3 -0.6475,5.5 -0.0113,0.12375 -0.0325,0.2325 -0.0662,0.315 -0.10375,0.25375 -0.48,0.22375 -0.7625,0 -0.72125,-0.57125 -1.03375,-1.91375 -1.6225,-2.91 -1.345,-2.275 -4.3025,-3.33625 -6.20125,-1.58625 -1.84125,1.6975 -1.05125,5.8137504 -0.23875,8.1987504 0.4375,1.2825 0.91625,1.715 2.52875,1.05875 1.59375,-0.64875 2.85875,-2.25 3.50375,-2.09875 0.745,0.17625 0.70625,2.7275 2.7125,4.3975 0.0637,0.05375 0.13,0.10625 0.1975,0.1575 3.025,2.31125 2.2675,-0.79375 2.2675,-2.05 z"
       style="fill:#000000;stroke:none" />
    <path
       d="m 123.66585,19.539605 c -1.41625,1.3975 -2.9375,2.94875 -4.1175,4.2825 -3.22125,3.63875 -4.43875,6.015 -3.33875,11.20375 0.5575,2.63375 3.815,7.23625 5.2475,5.98875 0.53,-0.4625 0.8675,-3.58875 0.47625,-4.4125 -0.795,-1.6725 -2.985,-2.6075 -3.33875,-3.8725 -0.74375,-2.6525 7.66875,-9.79 9.54,-11.28875 1.5825,-1.265 3.00375,-2.2875 5.2475,-3.7025 4.1075,-2.59 10.9725,-6.4975 10.9725,-6.4975 0,0 0,8.085 0,8.085 0,0 2.44625,-7.06 3.045,-7.745 0.81875,-0.9375 1.92125,-1.9312504 2.77875,-2.4200004 3.7875,-2.15875 4.46,-3.6175 5.1475,-7.82125 0.18375,-1.11875 0.0825,-1.71125 -1.52375,-1.085 -6.2,2.4125 -26.48,15.6800004 -30.13625,19.2850004 z"
       style="fill:#000000;stroke:none" />
    <path
       d="m 9.5083525,61.969605 c -2.93875,-0.02375 -6.48375,-0.51125 -6.96875,-2.6425 -0.445,-1.95875 4.7775,-3.82375 5.915,-3.915 2.2350005,-0.1775 4.6287505,0.81125 6.8124995,0.52875 3.507501,-0.45375 12.02875,-7.37875 11.12375,-12.695 -0.56125,-3.3025 -4.379999,-8.30875 -7.03125,-9.87 -1.06375,-0.6275 -1.755,0.105 -1.75,3.47375 0.0013,1.61625 0.172501,3.46125 -0.1925,3.72 -0.88,0.625 -1.1925,0.61375 -2.235,-0.015 -0.524999,-0.3175 -1.005,-0.68625 -1.12375,-0.7525 -2.579999,-1.43625 -4.6487495,3.36125 -5.0787495,6.08875 -0.27125,1.71625 -0.2325,3.205 -0.9575,4.24125 -1.355,1.93625 -5.36,2.755 -6.675,4.75125 -0.94125,1.42875 -1.68,6.52875 -1.1925,7.765 0.18,0.46 0.55625,0.9325 1.02875,1.3825 3.45125,2.54375 8.3025,2.8525 12.9837495,2.385 8.96625,-0.89625 20.135,-5.49125 26.2,-9.45625 0.15375,-0.1 0.30875,-0.20375 0.465,-0.31125 1.425,-0.98125 4.3225,-3.92375 5.1175,-5.9975 0.21875,-0.57 0.0012,-0.67375 -0.763749,-0.5775 -0.3425,0.04375 -0.508751,0.12 -1.662501,0.75625 0,0 -2.3525,1.3 -4.877499,2.695 -4.821251,2.6625 -12.011251,4.96125 -17.167501,6.4 -2.5925,0.72375 -7.47375,2.0825 -11.9699995,2.045 z m 7.8187505,-15.55 c 0.05625,-0.11375 0.22875,-0.23 0.38875,-0.29125 0.43875,-0.1675 0.7875,0.08125 1.1,0.04625 0.6175,-0.0675 1.125,-1.30625 1.5025,-2.4675 0.32125,-0.9875 0.6125,-2.05 1.11125,-2.04875 0.73625,0.0012 1.9325,3.555 1.6225,4.44375 -0.13875,0.39875 -0.535,0.7525 -0.95375,1.11125 -1.39375,1.19125 -3.0375,2.42625 -4.58,2.90875 -1.1375,0.35625 -1.50125,0.10125 -1.145,-1.27 0.22125,-0.85 0.6675,-1.85125 0.95375,-2.4325 z m -5.43375,-1.72625 c 0.21875,0.04125 0.51625,0.22125 0.77375,0.3675 1.37875,0.77625 2.83,1.8825 1.32125,3.21 -0.245,0.21625 -0.54875,0.44625 -0.86375,0.585 -0.425,0.1875 -0.5225,0.20875 -0.98,0.20875 0,0 -0.30875,0 -0.56125,0 -1.0375,0 -1.5575,-4.73 0.31,-4.37125 z"
       style="fill:#000000;stroke:none" />
    <path
       d="m 148.71085,67.697105 c -3.47375,0.15875 -6.82125,0.30875 -7.105,0.2975 -1.15125,-0.04375 -2.04,-0.13125 -3.54375,-0.8925 -1.915,-0.97125 -4.83125,-3.03625 -4.83125,-3.03625 0,0 1.20875,-3.365 1.61,-5.35875 0.91,-4.51625 -3.28,-11.67875 -6.4425,-14.22875 -2.66,-2.14625 -5.12625,-1.9975 -8.0525,0.595 -3.27125,2.89875 -8.31125,9.28875 -8.31125,9.28875 0,0 -3.08875,-31.57 -3.2875,-33.61 -1.1475,-9.245 2.53375,2.45875 2.51375,-4.09375 -0.003,-0.4625 -0.0138,-0.95625 -0.0425,-1.4125 -0.175,-2.7675 -1.01,-4.18375 -1.61,-6.1912504 -0.61625,-2.05875 -0.98625,-4.7375 -1.24125,-7.15375 -0.16875,-1.59875 -0.26125,-1.78625 -0.9275,-1.87 -3.35875,-0.42625 -7.1675,3.71375 -6.42125,6.16625 0.27375,0.89875 1.03375,1.94125 1.60125,3.02875 0.955,1.8237504 1.59875,5.2387504 1.92125,8.7287504 1.26,13.665 3.01625,38.8875 3.38625,44.25625 0.14875,2.15 -1.91125,1.8575 -3.305,0.9825 -0.9425,-0.59125 -1.8425,-1.4975 -2.26125,-2.3425 -0.97,-1.955 -0.69375,-3.885 -2.598747,-2.9775 -1.59375,0.76 -2.83375,4.02375 -4.65,5.65625 -3.6625,3.29125 -9.57375,1.38375 -12.425,-2.97125 -1.91,-2.91625 -1.8725,-5.66375 -5.15375,-4.76125 -1.2325,0.34 -2.72625,0.77375 -3.89625,1.18375 -4.18125,1.465 -7.39875,4.36625 -8.32125,8.6325 -0.4075,1.8825 -0.89625,4.96375 -0.89625,4.96375 0,0 -2.25,-3.1625 -3.39875,-6.155 -1.19125,-3.1 -0.165,-11.905 -1.46125,-16.1625 -0.9725,-3.19625 -1.8475,-4.26125 -4.9275,-3.48375 -6.73375,1.70125 -8.0025,7.4825 -12.13375,17.56375 -1.03875,2.535 -2.0225,4.835 -2.685,7.44125 -1.7025,6.7125 -1.68875,14.15875 -7.62375,15.47875 -1.67625,0.37375 -3.28625,-0.3175 -4.76125,-1.61625 -9.9925,-8.7975 -6.945,-29.44 -6.945,-29.91125 0.0012,-0.12 0.0012,-0.24125 0.0012,-0.36375 0.0087,-4.02 0.36125,-7.79375 -1.66625,-0.20375 -0.225,0.84 -0.42375,1.7275 -0.62125,2.8025 -1.11125,6.04625 -0.88125,11.63 -0.08625,16.36 2.07625,12.3525 6.7225,17.37 9.05625,19.41125 2.0725,1.8125 4.39375,2.63625 6.845,1.63125 2.2,-0.9025 4.9575,-3.77875 6.07,-5.72875 1.0175,-1.78 2.32375,-7.9575 3.22125,-12.50125 0.5975,-3.0275 5.6475,-15.94875 6.98,-17.86125 1.6,-2.2975 2.9675,-4.0625 5.905,-4.1675 0.60875,-0.02125 1.3425,0 1.3425,0 0,0 0.62125,12.38875 2.185,19.53375 1.52,6.94625 10.9325,19.7975 19.4625,20.355 1.81625,0.11875 4.1225,0 4.1225,0 l 0.5625,-8.3275 c 0,0 -4.883751,-0.9075 -7.54125,-2.09125 -3.035,-1.35125 -10.14875,-9.82375 -8.59,-13.5975 1.112499,-2.695 8.39125,-5.95125 9.84625,-5.15625 0.9925,0.5425 2.98,3.72 3.575,5.715 0.38875,1.305 0.49625,1.83 1.965,2.62 2.775,1.495 8.27625,1.19125 10.43125,-0.81875 2.17,-2.025 3.52375,-4.91375 4.8325,-3.63875 0.60375,0.58875 0.90375,1.93 2.098747,2.96875 1.125,0.9775 3.0425,1.6875 3.0425,1.6875 0,0 -0.33125,0.70875 -0.83,1.76625 -0.235,0.4975 -0.4475,0.94125 -0.64125,1.3375 -1.77125,3.62125 -1.93125,3.11625 -2.268747,7.26375 -0.05125,0.625 -0.11,1.36625 -0.1875,2.26 -0.015,0.17375 -0.02875,0.3425 -0.0425,0.50625 -0.1725,2.00875 1.121247,-0.07625 2.416247,-2.58875 1.51625,-2.94 3.105,-6.79625 2.67875,-5.8025 0.925,-2.155 1.55625,-3.75 1.55625,-3.75 0,0 5.00875,0.72 8.9875,0.595 4.235,-0.1325 11.0375,-2.87375 14.37625,-2.0925 2.32125,0.5425 4.2975,2.77125 6.70125,3.87875 0.67125,0.30875 2.325,0.4425 4.4525,0.41875 2.4975,-0.0275 10.09375,0.25375 16.4475,-2.6225 0.5375,-0.24375 0.9775,-0.50125 1.295,-0.77375 1.50875,-1.2925 4.79875,-7.79625 5.36875,-10.90625 1.14625,-6.26875 -2.535,-16.33 -6.98,-20.945 -4.83375,-5.01875 -11.1275,-7.6325 -15.0325,-2.97625 -3.00875,3.5875 -3.77,12.80125 -1.3425,16.9675 0.56375,0.9675 1.29375,1.7875 2.15,2.4525 0.80875,0.62875 1.3575,1.05375 1.7875,1.3425 1.06875,0.71875 4.3225,0.8 5.54,0.73375 0.82,-0.045 1.65625,-0.165 2.495,-0.36125 2.5025,-0.5875 4.9,-1.63125 5.69125,-1.19125 0.71125,0.39625 2.395,5.27 2.11375,6.12 -0.7075,2.1425 -6.465,3.2275 -11.545,3.70375 z m -17.545,-5.71875 c 0,0 -2.93875,1.81375 -4.915,2.7425 -1.8525,0.87 -3.3525,0.95375 -6.12,0.8925 -3.3875,-0.075 -9.44875,0 -9.44875,0 0,0 -0.0575,-0.77 0,-1.42875 0.1225,-1.41125 1.125,-2.73 2.01625,-3.81625 4.74125,-5.78625 6.85625,-10.68375 11.5875,-9.04375 0.92,0.31875 1.735,0.81875 2.77125,2.38125 1.7425,2.63 4.10875,8.2725 4.10875,8.2725 z m 23.54,-11.88375 0,0.635 c 0,0 -2.5,0.6425 -4.4025,0.595 -2.45875,-0.06125 -6.2275,-2.23125 -7.2875,-5.1725 -0.48125,-1.335 0.525,-2.115 2.02625,-2.56625 1.65625,-0.49875 6.54375,2.91 8.49,4.95625 1.05625,1.11125 1.17375,1.26625 1.17375,1.5525 z"
       style="fill:#000000;stroke:none" />
    <path
       d="m 151.5596,28.197105 c 0.19375,2.95625 1.4375,4.795 3.70125,5.32625 2.91875,0.685 4.57,-1.07125 5.3175,-4.6225 0.165,-0.77875 0.1275,-1.42875 -0.325,-1.74125 -0.86,-0.59625 -3.22125,0.0225 -4.36375,-0.65 -1.42,-0.8375 -1.78125,-4.39375 -1.43,-6.0575 0.35125,-1.66375 1.24875,-3.44625 1.4925,-4.73 0.05,-0.26 0.0725,-0.49875 -0.03,-0.6325 -0.0125,-0.01625 -0.0263,-0.0325 -0.0387,-0.0475 -3.43625,-0.86875 -4.27125,13.9525 -4.32375,13.155 z"
       style="fill:#000000;stroke:none" />
    <path
       d="m 85.275853,21.189605 -0.54,-11.4162504 c -0.08,-1.69375 -0.11125,-1.98875 -0.31375,-2.9475 -0.625,-2.94125 -2.30375,-4.55125 -4.06,-5.59125 -2.23125,-1.3225 -3.935,-1.81375 -6.23625,0.0475 -1.89125,1.53125 -2.07,7.0725 -1.32625,7.93875 0.554999,0.6475 2.024999,0.58875 3.805,0.125 4.44375,-1.1575 4.89,-0.89 6.0475,4.3225004 0.549999,2.47625 0.614999,4.7975 0.34375,7.28875 -0.57375,5.29 -1.92375,7.8625 0.72125,10.96875 1.10125,1.29125 2.25125,1.4875 4.76375,0.91375 1.785,-0.4075 2.13875,-1.3275 2.8875,-4.0675 0.52625,-1.93 0.94375,-3.6575 0.80875,-5.58125 -0.26875,-3.8175 -3.98875,-10.99125 0.494999,-12.77375 0.828751,-0.32875 1.905,-0.11375 2.832501,0.11 1.25125,0.3025 1.462499,0.165 2.1225,-1.3700004 0.541247,-1.2625 1.168747,-2.42375 1.513747,-3.7825 1.29375,-5.1 -0.6875,-6.53875 -4.663747,-4.45 -4.56125,2.39625 -6.61,12.6637504 -5.635,19.5462504 0.29875,2.8375 0.625,5.3925 0.625,5.3925 0,0 -0.2725,-0.0038 -0.5975,-0.03875 -1.27625,-0.13875 -3.470001,-2.01875 -3.59375,-4.635 z"
       style="fill:#000000;stroke:none" />
    <path
       d="m 50.223353,92.847105 c 0.193749,2.9575 1.4375,4.79625 3.70125,5.32625 2.91875,0.685 4.57,-1.07 5.31875,-4.62125 0.16375,-0.78 0.1275,-1.42875 -0.325,-1.7425 -0.86,-0.59625 -3.2225,0.0225 -4.365,-0.65 -1.42,-0.83625 -1.78125,-4.39375 -1.43,-6.05625 0.35125,-1.665 1.24875,-3.4475 1.4925,-4.73 0.05,-0.26 0.0725,-0.5 -0.03,-0.6325 -0.0125,-0.0175 -0.025,-0.0325 -0.03875,-0.0475 -3.43625,-0.86875 -4.27125,13.9525 -4.32375,13.15375 z"
       style="fill:#000000;stroke:none" />
    <path
       d="m 133.1371,92.847105 c 0.19375,2.9575 1.4375,4.79625 3.70125,5.32625 2.91875,0.685 4.57,-1.07 5.3175,-4.62125 0.165,-0.78 0.1275,-1.42875 -0.32375,-1.7425 -0.86125,-0.59625 -3.2225,0.0225 -4.365,-0.65 -1.42,-0.83625 -1.78125,-4.39375 -1.43,-6.05625 0.35125,-1.665 1.24875,-3.4475 1.4925,-4.73 0.05,-0.26 0.0725,-0.5 -0.03,-0.6325 -0.0125,-0.0175 -0.0262,-0.0325 -0.0387,-0.0475 -3.43625,-0.86875 -4.27125,13.9525 -4.32375,13.15375 z"
       style="fill:#000000;stroke:none" />
    <path
       d="m 78.257103,46.218355 0.472499,-0.01 c 0.211251,-0.0037 0.268751,-0.1475 0.568751,-1.4325 1.72625,-7.39125 2.0425,-11.4725 -2.205,-16.2125 -0.7,-0.78125 -1.515,-1.43625 -2.040001,-0.73625 -0.35625,0.475 -0.718749,3.825 -0.556249,4.5575 0.28375,1.28 1.125,1.695 2.09625,2.56375 2.196249,1.9625 2.74625,3.435 2.46625,6.04875 -0.21375,2.00625 -0.8025,5.22125 -0.8025,5.22125 z"
       style="fill:#000000;stroke:none" />
    <path
       d="m 118.5771,89.580855 c -0.4325,2.99625 0.0937,3.73125 1.88875,2.81125 1.22375,-0.62625 17.00375,-10.805 19.30875,-13.85375 0.92875,-1.2275 1.85375,-3.39875 2.18125,-5.3525 0.20125,-1.2025 -0.125,-1.16 -1.2925,-0.67875 -2.70875,1.11625 -20.5625,13.1675 -21.12125,14.2575 -0.5225,1.0175 -0.8575,2.0725 -0.965,2.81625 z"
       style="fill:#000000;stroke:none" />
    <path
       d="m 98.564603,92.944605 4.847497,5.375 6.97625,-7.73625 -6.97625,-7.73625 -4.847497,5.375 -4.8475,-5.375 -6.9775,7.73625 6.9775,7.73625 4.8475,-5.375 z"
       style="fill:#000000;stroke:none" />
    <path
       d="m 136.9621,34.274605 6.97625,-7.73625 -6.97625,-7.73625 -6.97625,7.73625 6.97625,7.73625 z"
       style="fill:#000000;stroke:none" />
</svg>
