<?xml version="1.0" encoding="UTF-8" standalone="no"?>
<svg>
    <path
       style="fill:#000000;stroke:none"
       d="m 121.21561,65.222865 c 0.56,9.62501 0.79375,13.63377 0.79375,13.63377 0.10375,1.78375 0.165,2.10125 0.61625,3.18375 3.2375,7.75876 17.82627,9.29751 23.57003,9.26126 2.64125,-0.0163 5.25125,-0.28625 7.47876,-0.8625 2.18,-0.56375 3.995,-1.42125 6.90251,-1.88875 6.37375,-1.02625 17.99752,-0.175 17.99752,-0.175 0,0 -0.035,-2.3275 0.48875,-4.0125 0.48625,-1.56876 2.92875,-3.66751 4.295,-4.94251 0.455,-0.42375 0.82625,-0.87125 0.87,-1.785 0.0325,-0.6675 -0.11,-1.58375 -0.11,-1.58375 l -3.87375,0.27125 c -1.74,0.12125 -2.075,0.1275 -3.345,0.0587 -3.40626,-0.1825 -8.64752,-2.93626 -10.46252,-4.80251 -4.73375,-4.87001 -13.54126,-12.95127 -21.28877,-12.73252 -6.13251,0.1725 -8.01001,1.61876 -9.62126,8.07251 -0.22001,0.88376 -1.62626,6.54626 -0.60626,7.26876 1.29626,0.91875 6.02501,-2.17375 6.67126,-2.45625 0.1025,-0.045 0.20875,-0.0875 0.31625,-0.12875 0.95375,-0.36125 12.34002,2.25875 13.35877,4.38001 0.2325,0.48375 0.3875,1.0525 0.455,1.72375 0.0462,0.465 0.0688,0.99 0.0688,0.99 0,0 -2.23875,0.2025 -4.22251,0.295 -2.67875,0.12375 -16.44627,-1.37125 -20.27627,-4.55001 -0.14875,-0.12375 -1.755,-2.01125 -2.81375,-3.51875 -0.9175,-1.30625 -1.68626,-8.69251 -2.26376,-16.63627 l -0.155,0.2625 c -0.65375,-9.65251 -1.0225,-19.37877 -1.02875,-19.48502 -0.2175,-3.73751 -0.20125,-8.11251 0.13875,-10.30252 0.11125,-0.7175 0.245,-1.3475 0.32875,-2.0425 0.285,-2.38125 -0.47125,-8.03126 -1.17875,-13.0500101 -0.025,-0.18 -1.9125,-12.43752 -5.67251,-9.09001998 -1.525,1.35750998 -1.9125,5.38250998 -1.51,6.87625998 0.40625,1.505 1.63375,4.0725101 1.75501,6.1262601 0,0 0.33,15.30377 0.33,15.30377 0.11625,1.985 0.7675,13.19376 1.33,22.84503 0,0 0.2725,9.21876 0.2725,9.21876 0.14625,2.52 0.28625,4.92 0.26125,4.495 l 0.13,-0.22125 z M 91.119318,36.467835 c -1.09375,4.61875 3.26376,6.78126 6.61001,7.28251 2.1425,0.32125 2.637502,0.18875 3.368752,-0.96 1.01875,-1.60126 2.69501,-4.39876 1.76251,-5.08501 -0.51,-0.375 -1.78626,-0.24 -2.867512,-0.33875 -2.2225,-0.2025 -4.82375,-1.7475 -5.30125,-3.19126 -0.30375,-0.92125 0.17625,-1.8925 1.03875,-2.88375 2.0225,-2.325 8.691262,-6.22751 10.068762,-9.67376 0.16,-0.4025 0.2475,-0.7975 0.12625,-0.985 -0.22125,-0.34375 -1.14125,0.015 -2.05875,0.45125 -6.023762,2.8575 -11.055022,8.24626 -12.747522,15.38377 z m -40.84005,50.06881 0.925,-0.905 c 0,0 2.81751,2.59875 2.81751,2.59875 0.65,0.59875 1.32,1.26625 2.03375,1.83125 2.86125,2.26001 16.93877,1.74625 19.88502,0.035 0.53125,-0.30875 1.01875,-0.6575 1.445,-1.0275 1.14126,-0.9925 1.84251,-2.14125 2.81376,-2.37625 1.57875,-0.38375 7.14251,5.29375 11.16376,6.37126 3.04501,0.8175 10.376262,-1.86751 12.440022,-3.37501 1.2975,-0.9475 6.135,-9.49251 6.295,-11.11626 0.63251,-6.43376 -1.8125,-18.57002 -4.12,-23.76003 -1.13375,-2.54875 -2.08125,-4.29126 -3.61875,-3.6275 -2.01626,0.87 -6.311262,9.02876 -6.351262,10.25751 -0.0675,2.08125 2.00625,4.275 3.44875,7.45876 0.857502,1.89125 1.856252,11.72376 1.243752,12.23751 -0.46375,0.39 -1.133752,0.33 -2.111252,0.14875 -2.45375,-0.45625 -9.42376,-3.835 -10.15751,-4.92625 -1.20125,-1.78376 -1.37125,-4.52001 -3.56626,-3.04751 -1.06375,0.715 -1.96,2.50876 -3.0325,3.50876 -1.65,1.53875 -8.53626,2.185 -13.15127,1.79375 -5.45125,-0.46375 -10.85251,-2.7175 -11.03626,-7.32501 -0.0138,-0.3625 -0.0525,-0.7625 -0.14375,-1.055 -0.2,-0.65 -1.52375,-0.5575 -2.20375,0.15375 -0.61625,0.64375 -1.12375,1.56875 -1.6425,2.51625 -3.44626,6.06751 -12.14502,6.19126 -18.81253,6.67376 -6.25,0.4525 -12.15376,0.20125 -14.54251,-0.51875 -6.92876,-2.08875 -14.3437702,-7.00251 -15.1887702,-13.96752 -0.3375,-2.785 -0.21375,-7.16876 -0.21375,-7.16876 0,0 -1.41125,1.79001 -2.40876,3.48376 -2.24375001,3.81 -3.17000001,16.50752 -1.94500001,19.59127 1.95750001,4.92876 11.66252021,10.51376 17.23877021,11.65752 1.17625,0.2425 3.32626,0.3 5.91126,0.20875 9.15626,-0.325 22.50628,-2.33876 26.58503,-6.33001 z m -21.76127,-41.86255 -7.41001,7.41001 7.40751,7.40876 7.41125,-7.41126 -7.40875,-7.40751 z m -2.37376,50.21631 -7.41001,7.411255 7.40876,7.40751 7.41001,-7.41001 -7.40876,-7.408755 z m 37.88005,9.078755 5.73376,5.74001 7.40125,-7.40876 -7.40125,-7.410005 -5.73376,5.741255 -5.73376,-5.741255 -7.40126,7.410005 7.40126,7.40876 5.73376,-5.74001 z m 28.15003,-9.078755 -7.41126,7.411255 7.40876,7.40751 7.41126,-7.41001 -7.40876,-7.408755 z m -13.93126,-44.37756 -6.65751,6.61376 c -1.1075,1.1 -1.26375,1.2975 -1.57375,1.97375 -0.43375,0.94751 -0.58375,2.53376 -0.37125,2.74876 0.69,0.69625 3.12875,-0.99375 3.9775,-1.62 7.43251,-5.48126 10.81751,-8.93376 12.02001,-16.03127 0.61001,-3.60751 -1.3,-5.00376 -4.68,-5.46376 -5.36251,-0.73 -10.68376,0.0163 -12.76752,4.05376 0.325,15.41501 0.78375,6.6 5.33126,5.505 5.05876,-1.21625 10.49876,-3.92125 4.72126,2.22 z m 85.937602,2.83751 0.7625,-0.0125 c 0.3425,-0.006 0.435,-0.215 0.91875,-2.08625 2.78751,-10.75752 3.29626,-16.69877 -3.55875,-23.59878 -1.13,-1.13625 -2.44501,-2.08876 -3.29251,-1.07125 -0.575,0.69125 -1.16125,5.56875 -0.89875,6.63375 0.4575,1.86251 1.81625,2.46751 3.38501,3.73251 3.54375,2.85625 4.43125,4.99875 3.98,8.80376 -0.345,2.92 -1.29625,7.59876 -1.29625,7.59876 z m -17.94877,-31.23379 -0.19125,-4.37 c -0.0763,-1.76626 -0.0512,-2.08251 0.255,-3.16501 0.2275,-0.8025 0.46875,-1.68 1.0775,-2.24625 1.48375,-1.37875 5.15876,-0.90125 6.86251,-2.0375 2.4525,-1.6350101 2.455,-7.2512601 0.5675,-9.52752008 -2.0025,-2.41375002 -6.04876,1.42000998 -7.70751,3.61375998 -1.0175,1.3475 -1.9825,2.89125 -2.41625,4.6925 -0.20125,0.83501 -0.3125,1.7837601 -0.46875,2.6137601 l -0.77001,4.06375 -2.5425,-3.235 c -3.48125,-4.5837601 -2.41875,-5.9450101 -7.53251,-7.1912601 -1.71375,-0.41875 -5.43,-0.2625 -6.14375,1.6675 -0.55876,1.50875 0.7525,5.1800101 1.575,6.0512601 0.63125,0.67125 3.19125,2.33375 4.2475,2.43625 1.7275,0.1675 5.25751,-0.885 5.25751,-0.885 0,0 2.84875,4.10001 4.5875,6.02626 0.76,0.84 1.38751,1.51625 2.36126,1.535 0.4025,0.007 0.98125,-0.0425 0.98125,-0.0425 z m -99.771372,24.73003 c -0.0562,-1.52375 -0.2275,-3.43625 -0.72875,-3.91625 -0.29,-0.27875 -0.69,-0.0775 -0.94125,-0.2275 -1.13001,-0.67876 0.7925,-3.47501 1.7075,-4.54501 8.31376,-9.70376 29.85628,-21.75128 41.2388,-24.24378 1.085,-0.2375 2.17,-0.42875 2.375,-0.0625 0.10125,0.1825 -0.0138,0.50375 -0.18875,0.86625 -0.41125,0.85 -1.06875,1.87875 -1.8,2.98251 -15.15877,22.89002 8.75251,-8.8762701 15.537522,-9.7687701 0.62125,-0.30625 1.20375,-0.55375 1.72,-0.71625 2.64,-0.83125 5.50001,-1.0075 5.84626,-3.53875 0.0487,-0.355 0.0562,-0.7975 0.0437,-1.22625 -0.115,-4.14626 -6.88126,-2.16250998 -11.648772,-0.34875 -4.41375,1.6775 -10.96626,4.44375 -17.91752,7.66001 -8.99501,4.1612501 -35.92379,16.6525201 -39.7138,27.5012801 -1.22125,3.49625 -0.99375,7.41376 1.44,10.78251 0.105,0.145 0.2,0.275 0.28625,0.3925 -1.09875,-1.49125 2.97876,4.78251 2.74376,-1.59125 z m 12.73751,18.28377 0.7625,-0.0137 c 0.3425,-0.006 0.435,-0.215 0.91876,-2.085 2.78625,-10.75876 3.295,-16.70002 -3.56001,-23.59878 -1.12875,-1.13625 -2.44375,-2.09 -3.29125,-1.07125 -0.575,0.69125 -1.16125,5.56751 -0.9,6.63251 0.45875,1.86375 1.8175,2.4675 3.38625,3.7325 3.5425,2.85626 4.43126,5.00001 3.98,8.80501 -0.345,2.92001 -1.29625,7.59876 -1.29625,7.59876 z m -2.42125,-43.0138 -0.19125,-4.37 c -0.0775,-1.76626 -0.0512,-2.08251 0.255,-3.16501 0.2275,-0.8025 0.4675,-1.68 1.07625,-2.24625 1.485,-1.37875 5.15876,-0.90125 6.86376,-2.0375 2.4525,-1.6350101 2.45375,-7.2512601 0.56625,-9.52752008 -2.00125,-2.41375002 -6.04876,1.42000998 -7.70626,3.61375998 -1.01875,1.3475 -1.9825,2.89125 -2.41625,4.6925 -0.20125,0.83501 -0.3125,1.7837601 -0.47,2.6137601 l -0.77,4.06375 -2.54251,-3.235 c -3.48,-4.5837601 -2.41875,-5.9450101 -7.53251,-7.1912601 -1.71375,-0.41875 -5.42875,-0.2625 -6.1425,1.6675 -0.56,1.50875 0.7525,5.1800101 1.57375,6.0512601 0.6325,0.67125 3.19125,2.33375 4.24875,2.43625 1.72751,0.1675 5.25626,-0.885 5.25626,-0.885 0,0 2.84875,4.10001 4.58876,6.02626 0.75875,0.84 1.3875,1.51625 2.36125,1.535 0.40125,0.007 0.98125,-0.0425 0.98125,-0.0425 z m 79.942602,22.47378 c 0.89,0.935 2.54,2.1 2.3875,-2.02 -0.0562,-1.52376 -0.2275,-3.43626 -0.72875,-3.91626 -0.29,-0.27875 -0.69,-0.0775 -0.94125,-0.2275 -0.53125,-0.31875 -0.3875,-1.10625 0.009,-1.9625 1.30625,-2.82126 6.49626,-7.70876 9.01501,-9.57126 4.15625,-3.07501 12.93876,-8.72501 16.42502,-9.79752 5.77751,-1.77625 10.20626,-2.28 11.34626,-8.4187601 0.335,-1.80125 -0.41625,-1.84 -2.73125,-1.135 -2.18375,0.665 -6.60001,2.8562601 -11.42002,5.4650101 -4.74,2.565 -14.29376,7.39876 -20.34377,12.89126 -3.7,3.35876 -5.14626,6.91876 -5.65126,9.55252 -1.3075,6.8175 6.00626,12.68876 2.63376,9.14001 z m 24.19128,56.470065 c -1.55501,2.2875 -3.77126,4.01375 -3.32376,5.83 1.07625,4.36251 8.14126,2.72001 11.25002,1.29125 1.615,-0.74125 4.22875,-3.2475 4.79375,-4.59625 0.23375,-0.555 0.39375,-1.1425 0.10625,-1.28125 -0.18375,-0.09 -0.55,0.005 -0.925,0.135 -1.35125,0.47 -2.82875,1.41625 -4.29501,1.96875 -2.4875,0.93625 -6.0425,1.2775 -6.855,-1.03 -0.16625,-0.47125 -0.11375,-0.9475 0.1175,-1.43125 1.49875,-3.140005 5.72125,-4.331255 4.965,-6.680005 -1.0425,-3.23376 -4.8325,-2.69125 -6.96376,-1.1425 -0.0225,0.0175 -3.98625,3.80625 -2.775,4.50125 0.19125,0.11125 0.5775,0.0438 0.97125,-0.0725 0.7075,-0.21 1.4375,-0.58 2.325,-0.74875 1.47126,-0.28 1.68001,0.53625 1.53251,1.37875 -0.165,0.938745 -0.88,1.811255 -0.92375,1.877505 z" />
</svg>
