<?xml version="1.0" encoding="UTF-8" standalone="yes"?>
<svg xmlns="http://www.w3.org/2000/svg" xmlns:xlink="http://www.w3.org/1999/xlink"
  width="595.276pt" height="841.89pt" viewBox="0 0 595.276 841.89">
<path style="stroke:none; fill:#000000"
      d="M 1.28421,43.41759 C 1.28021,43.40359 1.28021,43.40359 1.28021,43.40359 C 0.76521,45.89959 0.32621,48.42459 0.06921,50.39459 C -0.28279,60.38859 0.52021,64.88559 6.91421,70.54459 C 8.88121,71.99159 11.13321,72.50659 13.40221,70.98559 C 16.96121,68.59959 18.96821,59.55759 20.04921,56.34359 C 20.60021,54.70759 23.08921,50.93359 24.39821,49.75059 C 25.55221,48.70759 27.04121,47.55059 27.04121,47.55059 C 27.04121,47.55059 27.89821,51.13859 28.57321,53.68959 C 29.75821,58.16459 32.69221,63.55259 37.73721,63.96159 C 39.21721,64.08159 41.87021,63.71059 43.08521,63.06559 C 44.11721,62.51759 44.87821,61.87359 45.53621,61.37259 L 47.90021,59.57059 L 49.51821,61.49559 C 49.65521,61.65759 49.76421,61.83459 49.85021,62.02159 L 50.21121,62.81059 L 50.04321,64.10559 C 50.02721,64.20259 49.99921,64.34559 49.96321,64.52259 C 46.77721,80.05459 53.41621,63.95359 53.62221,63.96459 C 54.99421,64.03859 60.22221,64.27559 64.42021,63.85659 C 67.87921,63.51059 71.07721,62.87559 73.41421,62.56059 L 76.01721,62.21059 C 76.01721,62.21059 77.24121,62.72559 77.24121,62.72559 C 77.72521,62.92959 78.04021,63.11059 78.38221,63.27059 C 79.93921,63.99959 81.89021,63.97259 83.56021,63.89259 C 86.29921,63.76259 89.81421,63.28059 91.04821,62.51659 C 91.54921,62.20759 91.99421,61.84859 92.41521,61.52159 C 92.41521,61.52159 94.51021,59.89359 94.51021,59.89359 C 94.51021,59.89359 95.15421,60.45859 95.48821,60.75159 C 98.59621,63.47859 102.75121,63.55959 106.69321,63.12059 C 108.92621,62.87259 111.26921,62.57259 112.59121,62.01759 C 113.94121,61.45159 114.76421,60.58459 115.96121,60.10459 C 116.91221,59.72359 121.38721,59.86959 125.50921,59.88659 C 130.67721,59.90859 131.42721,62.86159 133.89221,57.03659 C 134.53621,55.51659 135.57821,53.05259 135.57821,53.05259 C 135.57821,53.05259 132.25121,52.39659 129.99021,51.82559 C 126.50921,50.94659 123.31421,49.38259 120.97221,46.63759 C 119.81721,45.28259 119.06521,43.71959 117.91521,42.35559 C 114.44021,38.23259 109.39521,36.40359 104.21321,37.21259 C 102.22621,37.52259 101.23721,38.41459 100.53321,40.04359 C 96.56221,53.74959 98.35621,45.81259 104.89821,46.53159 C 107.55921,46.82459 110.57021,47.22259 112.20521,48.12459 C 114.72121,49.51159 116.38821,51.80059 115.95921,53.18959 C 115.75721,53.84259 115.17021,54.43659 114.41621,54.87259 C 113.76621,55.24959 108.53121,55.55159 105.36221,55.48859 C 103.91421,55.46059 102.31721,55.28459 100.95621,54.73459 C 100.48421,54.54359 100.04821,54.29959 99.65421,53.97159 C 98.98321,53.41359 98.44821,52.76259 97.89121,52.33059 L 96.39621,51.17159 L 94.77921,52.99959 C 94.59921,53.20259 94.41121,53.41259 94.19121,53.60959 C 92.81021,54.83959 87.43321,56.33059 85.26521,56.14559 C 84.26221,56.05959 83.00521,55.67259 81.93421,55.24659 C 80.82321,54.80459 80.69921,54.72959 80.69621,54.49659 C 80.69421,54.32359 80.73121,54.15459 80.77821,53.98659 C 81.47821,51.47359 82.15021,51.54659 81.80321,49.67259 C 81.30321,46.97659 77.19521,39.67859 73.68821,38.98759 C 71.64321,38.58459 68.09021,39.90859 66.40321,40.85059 C 65.17721,41.53559 61.94521,45.06259 61.13421,46.60059 C 59.41221,49.86559 56.33221,54.64159 55.70721,54.78659 C 55.45221,54.84559 55.18321,54.86659 54.91321,54.82159 C 53.79321,54.63159 51.15721,51.36959 49.48921,51.96659 C 48.75521,52.22959 48.30421,53.25359 47.64521,53.94259 C 47.43221,54.16459 46.46621,54.60159 45.34821,55.03859 C 40.84021,56.80259 35.55921,55.34259 33.17821,50.37259 C 32.37321,48.69259 31.70421,46.45659 31.48821,45.24559 C 31.20621,43.66259 31.13721,40.58059 29.89621,39.13259 C 29.00521,38.09359 26.90621,38.84559 25.71921,39.53559 C 24.39321,40.30659 20.97021,44.74559 20.25121,45.88859 C 17.79321,49.79859 16.26421,57.25359 14.05221,60.57959 C 12.60121,62.76159 10.27421,63.70159 7.93221,62.73559 C 7.52221,62.56559 7.14921,62.40559 6.81121,62.25259 C 0.52021,60.71059 1.48321,46.09759 1.28421,43.41759 zM 57.33421,56.04059 C 57.33421,56.04059 60.21821,52.07559 61.94921,50.09759 C 64.13421,47.60259 68.92421,45.49359 71.54021,47.25059 C 72.44721,47.85959 75.55121,51.68559 75.77121,53.11559 C 75.90721,54.00359 75.86321,55.23159 75.86321,55.23159 C 75.86321,55.23159 70.01621,55.87259 64.31621,56.02959 C 60.79821,56.12759 57.33421,56.04059 57.33421,56.04059 zM 88.35221,65.53759 L 83.09821,70.79159 L 88.35221,76.04559 L 93.60621,70.79159 L 88.35221,65.53759 zM 89.09121,17.22859 L 88.94221,13.82459 C 88.88221,12.44859 88.90221,12.20259 89.14121,11.35959 C 89.31821,10.73359 89.50521,10.04959 89.97921,9.60959 C 91.13621,8.53559 93.99821,8.90659 95.32521,8.02159 C 97.23621,6.74859 97.23821,2.37359 95.76721,0.60059 C 94.20821,-1.28041 91.05621,1.70659 89.76421,3.41459 C 88.97121,4.46459 88.21921,5.66659 87.88121,7.07059 C 87.72521,7.72159 87.63821,8.45959 87.51621,9.10659 L 86.91621,12.27259 L 84.93521,9.75159 C 82.22421,6.18159 83.05121,5.12059 79.06721,4.14959 C 77.73321,3.82459 74.83821,3.94659 74.28221,5.44859 C 73.84621,6.62459 74.86821,9.48459 75.50921,10.16359 C 76.00121,10.68559 77.99521,11.98159 78.81821,12.06159 C 80.16421,12.19159 82.91321,11.37159 82.91321,11.37159 C 82.91321,11.37159 85.13221,14.56559 86.48721,16.06559 C 87.07921,16.72059 87.56821,17.24759 88.32621,17.26159 C 88.63921,17.26759 89.09121,17.22859 89.09121,17.22859 zM 76.34121,31.73659 C 76.62121,33.33459 77.37921,35.36059 78.33421,35.84259 C 79.20021,36.28059 80.04621,35.10859 80.20621,34.35159 C 80.41321,33.36759 80.63121,32.07759 80.48521,31.55859 C 80.37221,31.15659 80.04021,31.21759 79.54721,30.72159 C 78.92621,30.09859 78.04921,28.59559 78.04921,28.59559 C 78.04921,28.59559 81.95721,25.70159 85.22821,23.46959 C 88.71221,21.09459 105.67921,12.09559 112.04821,10.76159 C 112.65021,10.63559 113.14321,10.59159 113.26021,10.93259 C 113.35421,11.20459 110.86221,16.91959 112.92421,15.52059 C 113.49421,15.13359 113.96121,13.92659 114.52721,12.91359 C 115.42921,11.29759 116.58521,10.17059 118.12621,9.29859 C 125.63321,5.05059 127.25521,7.01659 128.89421,2.31559 C 129.59521,0.30659 129.45921,-0.20541 127.56221,0.06859 C 125.46421,0.37059 122.35221,1.37059 118.88821,2.68559 C 113.56021,4.70959 78.30521,19.36159 76.24121,26.28259 C 75.86721,27.53859 75.89521,29.19659 76.34121,31.73659 zM 121.19021,39.07559 L 121.78421,39.06559 C 122.05121,39.06059 122.12321,38.89859 122.50021,37.44159 C 124.67121,29.06059 125.06721,24.43259 119.72721,19.05759 C 118.84821,18.17259 117.82321,17.42959 117.16321,18.22359 C 116.71521,18.76159 116.25821,22.56059 116.46221,23.39059 C 116.81921,24.84159 117.87721,25.31259 119.09921,26.29759 C 121.86021,28.52259 122.55221,30.19259 122.20021,33.15659 C 121.93121,35.43159 121.19021,39.07559 121.19021,39.07559 zM 64.48021,21.18959 L 65.07421,21.17959 C 65.34121,21.17459 65.41221,21.01259 65.79021,19.55459 C 67.96121,11.17459 68.35721,6.54659 63.01721,1.17159 C 62.13821,0.28659 61.11321,-0.45641 60.45321,0.33659 C 60.00521,0.87559 59.54821,4.67459 59.75221,5.50459 C 60.10921,6.95559 61.16721,7.42659 62.38921,8.41159 C 65.14921,10.63659 65.84121,12.30659 65.49021,15.27059 C 65.22121,17.54459 64.48021,21.18959 64.48021,21.18959 zM 96.85421,33.06459 L 92.79321,37.09859 C 92.11821,37.76959 92.02221,37.88959 91.83321,38.30259 C 91.56921,38.88059 91.47721,39.84759 91.60721,39.97859 C 92.02821,40.40359 93.51521,39.37259 94.03221,38.99059 C 98.56621,35.64759 100.63121,33.54159 101.36421,29.21259 C 101.73721,27.01259 100.57121,26.16059 98.51021,25.87959 C 95.23921,25.43459 91.99321,25.88959 90.72221,28.35259 C 90.92121,37.75459 91.20021,32.37859 93.97421,31.71059 C 97.06021,30.96859 100.37721,29.31859 96.85421,33.06459 z"/>
</svg>