<?xml version="1.0" encoding="UTF-8" standalone="yes"?>
<svg>
  <path
    style="stroke:none; fill:#000000"
    d="m 15.0456,30.857852 6.158,-6.158 -6.158,-6.157 -6.1577,6.157 6.1577,6.158 z m 28.236,-22.1560002 -4.817,4.7850002 c -0.801,0.795 -0.915,0.938 -1.139,1.428 -0.313,0.685 -0.422,1.832 -0.268,1.988 0.499,0.503 2.263,-0.719 2.877,-1.172 5.377,-3.965 7.827,-6.4630002 8.696,-11.5980002 0.442,-2.61 -0.94,-3.61999999 -3.385,-3.95299999 -3.88,-0.528 -7.73,0.012 -9.237,2.93299999 0.235,11.1520002 0.567,4.775 3.857,3.983 3.66,-0.881 7.595,-2.837 3.416,1.606 z M 0,29.213852 c 0.1602,2.211 1.1918,3.586 3.0684,3.983 2.4209,0.512 3.7898,-0.801 4.4103,-3.457 0.1361,-0.582 0.1056,-1.068 -0.2695,-1.302 -0.7131,-0.446 -2.6718,0.017 -3.6188,-0.486 -1.1779,-0.626 -1.4774,-3.286 -1.186,-4.529 0.2917,-1.245 1.0352,-2.578 1.2376,-3.537 0.041,-0.195 0.0598,-0.374 -0.0248,-0.473 -0.0106,-0.013 -0.0213,-0.025 -0.0321,-0.036 -2.8492,-0.649 -3.5418,10.434 -3.5851,9.837 z m 45.0456,39.274 c 0.16,2.211 1.192,3.586 3.069,3.983 2.421,0.512 3.789,-0.801 4.41,-3.457 0.136,-0.582 0.106,-1.068 -0.269,-1.302 -0.714,-0.446 -2.672,0.017 -3.619,-0.486 -1.178,-0.626 -1.478,-3.286 -1.186,-4.529 0.291,-1.245 1.035,-2.578 1.237,-3.537 0.041,-0.194 0.06,-0.373 -0.025,-0.473 -0.01,-0.013 -0.021,-0.025 -0.032,-0.036 -2.849,-0.649 -3.541,10.434 -3.585,9.837 z m 49.724,-6.321 -1.901,-0.201 0.713,-1.712 2.642,-6.338 c 0,0 0.978,0.27 1.71,0.524 2.319,0.804 6.057,3.811 6.294,6.116 0.054,0.523 0.04,1.136 0.04,1.136 0,0 -2.587,0.565 -5.191,0.655 -1.654,0.058 -3.316,-0.075 -4.307,-0.18 z m -8.137,-4.94 2.869,-3.076 0.379,-0.014 c 0.17,-0.006 0.269,0.057 0.989,0.622 1.152,0.904 1.517,1.344 1.437,2.35 -0.03,0.381 -0.103,0.493 -0.732,1.116 -1.302,1.29 -5.234,2.941 -5.891,0.609 -0.034,-0.122 -0.045,-0.251 -0.035,-0.378 0.014,-0.171 0.112,-0.294 0.984,-1.229 z m -19.093,-12.928 c -0.785,-4.877 -1.64,-10.941 -1.859,-15.365 -0.162,-3.29 0.027,-5.674 -0.291,-8.351 -0.358,-3.006 -1.355,-6.382 -1.268,-9.15 0.063,-1.9760002 0.677,-3.6420002 0.749,-5.7140002 0.127,-3.67 -0.929,-6.33499999 -2.66,-5.59499999 -2.199,0.93999999 -2.715,3.61699999 -2.727,6.09399999 -0.045,9.1220002 2.939,26.5360002 4.788,36.6330002 0.34,1.858 0.759,5.692 1.069,9.288 0.383,4.446 1.664,14.595 11.143,16.43 0.591,0.114 1.167,0.182 1.679,0.196 2.529,0.072 5.216,-0.886 7.558,-0.738 1.7,0.108 3.219,0.798 4.972,1.249 2.576,0.661 11.811,1.152 14.272,-1.21 1.671,-1.604 3.984,-8.28 3.946,-9.143 -0.093,-2.14 -3.344,-9.414 -6.061,-10.689 -1.405,-0.659 -3.333,-1.051 -3.637,-1.719 -0.372,-0.815 0.241,-2.25 -0.123,-3.202 -0.552,-1.443 -5.369,-4.114 -6.52,-4.436 -1.979,-0.553 -2.588,1.124 -2.701,4.075 -0.064,1.665 0.491,3.04 0.148,4.232 -0.295,1.024 -2.488,2.839 -3.881,4.24 -0.964,0.97 -2.307,3.908 -2.642,5.78 -0.34,1.904 -0.576,4.402 -0.576,4.402 0,0 -2.669,-0.37 -4.733,-0.675 -1.197,-0.177 -2.264,-0.555 -3.214,-1.074 -6.513,-3.557 -6.527,-9.944 -7.431,-15.558 z m -18.099,-11.464 -2.274,0.08 c -1.021,0.036 -1.214,0.027 -1.924,-0.083 -0.559,-0.087 -1.965,-0.679 -2.471,-0.949 -0.84,-0.447 -0.557,-1.136 0.26,-2.111 0.391,-0.468 0.514,-0.522 1.226,-0.547 l 0.794,-0.028 c 0.712,-0.025 0.847,-0.012 1.348,0.13 1.069,0.302 2.878,1.777 3.001,2.372 0.102,0.494 0.04,1.136 0.04,1.136 z m 5.564,12.765 c 0.921,-3.1 1.998,-7.764 1.93,-8.846 -0.343,-5.415 -3.31,-11.536 -8.821,-14.773 -3.124,-1.835 -4.498,-1.154 -6.368,2.55 -2.291,4.535 -4.058,12.26 -0.13,14.976 3.306,2.286 5.367,0.985 8.823,-0.533 7.505,-3.745 2.86,4.413 1.371,5.842 -2.741,2.63 -9.937,9.799 -9.587,9.521 -4.225,3.361 -9.006,6.412 -13.803,7.67 -3.844,1.009 -9.429,2.737 -9.87,3.39 -1.204,1.778 1.232,2.187 3.867,2.507 6.505,0.79 9.031,-0.314 13.489,-2.82 9.623,-5.411 16.63,-11.178 19.099,-19.484 z m -1.276,17.349 c 1.253,0.42 2.581,0.56 3.612,0.395 0.236,-0.038 0.48,-0.085 0.729,-0.141 6.436,-1.465 14.272,-8.403 16.875,-13.615 0.715,-1.432 1.361,-3.242 1.787,-5.005 0.431,-1.777 0.997,-3.963 1.635,-5.088 0.178,-0.315 0.362,-0.546 0.481,-0.913 0.628,-1.941 -0.777,-8.665 -0.777,-8.665 l 0.098,-0.003 1.194,-0.831 c 0.626,-0.876 -2.122,-3.209 -3.03,-4.375 -2.822,-3.624 -3.213,-7.644 -5.417,-4.453 -1.377,1.993 -2.32,4.649 -1.955,6.662 0.252,1.391 1.282,3.516 2.05,3.972 0.467,0.276 0.95,0.184 1.425,0.41 0.706,0.335 2.73,4.266 3.046,5.913 0.354,1.85 -0.114,2.987 -1.865,5.245 -1.058,1.363 -2.529,3.018 -3.812,4.413 -1.424,1.546 -7.68,7.07 -11.137,8.557 -1.698,0.73 -3.116,0.613 -4.268,0 -2.606,-1.388 -5.152,-9.355 -5.435,-11.44 -0.157,-1.165 -0.354,-2.614 -0.354,-2.614 0,0 -1.42,0.05 -1.42,0.05 0,0 -0.058,2.591 -0.103,4.575 -0.235,10.308 3.308,15.832 6.641,16.951 z m -47.8931,-31.546 -3.4802,6.173 c -2.3642,4.251 -1.6725,13.551 0.6116,17.515 2.2223,3.857 7.1177,6.184 11.5926,6.231 6.1981,0.065 14.6261,-5.884 16.1301,-12.356 0.432,-1.862 0.192,-4.885 1.791,-6.528 0.477,-0.491 0.586,-0.555 0.566,-1.384 -0.024,-1.066 -0.263,-2.113 -0.819,-3.099 -0.676,-1.2 -1.814,-2.516 -1.781,-3.493 0.007,-0.195 0.046,-0.393 0.165,-0.534 0.14,-0.166 0.39,-0.251 0.55,-0.403 0.31,-0.294 0.28,-0.835 0.155,-1.321 -0.448,-1.738 -2.107,-2.773 -2.766,-4.548 -0.818,-2.204 -0.496,-3.486 -2.703,-2.749 -2.36,0.788 -3.9,3.612 -2.849,5.843 0.45,0.955 1.302,1.747 1.934,2.663 1.123,1.629 1.675,4.382 2.56,6.767 0.751,2.024 1.885,3.991 2.33,5.749 0.072,0.284 0.126,0.562 0.106,0.827 -0.102,1.367 -6.041,4.729 -7.162,5.274 -8.8118,4.278 -18.8767,-0.128 -18.9147,-10.577 -0.0028,-0.778 0.1963,-2.527 0.6187,-4.305 l 1.3649,-5.745 z m 83.2801,-25.7260002 0.033,0.947 -1.894,0.066 -0.049,-1.42 1.91,0.407 z m -13.821,11.3840002 0.132,3.787 c 0,0 1.461,0.059 2.689,-0.094 2.097,-0.263 11.14,-6.878 12.178,-8.483 0.633,-0.979 2.119,-6.0280002 2.111,-7.4200002 -0.006,-1.12 -1.074,-3.374 -1.876,-3.96299999 -1.904,-1.396 -5.079,-1.246 -6.516,1.17499999 -0.835,1.408 -0.929,5.182 -0.212,6.701 0.937,1.9840002 2.085,2.1290002 0.252,3.3880002 -2.244,1.543 -6.22,4.362 -7.675,4.697 -0.522,0.12 -1.083,0.212 -1.083,0.212 z m -58.78,-10.8300002 -1.686,0.059 c 0,0 0.115,3.314 0.115,3.314 0,0 -0.3453,0.012 -0.9042,0.031 -2.0585,0.072 -1.1623,-2.305 -0.2028,-4.005 0.5228,-0.926 1.07,-1.638 1.356,-2.481 0.398,-1.175 0.288,-2.60699999 -0.106,-3.02999999 -0.6967,-0.747 -2.9272,2.15099999 -3.8546,5.26099999 -0.4279,1.434 -0.8619,7.5080002 -0.3942,8.7940002 0.4388,1.206 1.5114,1.479 2.8843,1.16 3.9795,-0.925 4.3845,-2.097 5.0185,-5.5790002 0.318,-1.741 0.182,-2.395 -0.904,-3.198 -0.433,-0.32 -0.565,-0.352 -1.322,-0.326 z"/>
</svg>