<?xml version="1.0" encoding="UTF-8" standalone="yes"?>
<svg>
<path
	d="m 31.166,27.000033 -0.719,6.756 c 0.032,-0.042 0.064,-0.083 0.096,-0.125 2.428,-3.139 15,-16.125 20.313,-19.17 0.502,-0.288 0.931,-0.471 1.135,-0.2 0.162,0.216 -0.407,6.057 1.032,4.205 0.398,-0.513 0.465,-1.728 0.677,-2.8 0.338,-1.708 1.045,-3.053 2.171,-4.281 C 61.356,5.4000333 63.379,6.6880333 63.48,2.0040333 63.523,0.00203332 63.253,-0.41596668 61.635,0.37903332 59.845,1.2600333 57.349,3.0600333 54.631,5.2440333 51.924,7.4190333 39.526,17.980033 31.166,27.000033 z m 10.548,-10.786 -0.139,-3.203 c -0.057,-1.295 -0.038,-1.527 0.187,-2.321 0.166,-0.588 0.343,-1.2319997 0.789,-1.6469997 1.088,-1.01 3.782,-0.661 5.031,-1.493 1.799,-1.199 1.8,-5.316 0.416,-6.98499998 -1.468,-1.77000002 -4.434,1.04099998 -5.65,2.64899998 -0.747,0.988 -1.454,2.119 -1.772,3.44 -0.147,0.613 -0.228,1.308 -0.344,1.916 L 39.668,11.550033 37.804,9.1780333 c -2.552,-3.36 -1.773,-4.359 -5.522,-5.273 -1.257,-0.306 -3.981,-0.191 -4.504,1.223 -0.41,1.107 0.552,3.798 1.154,4.437 0.464,0.4919997 2.34,1.7109997 3.115,1.7859997 1.266,0.122 3.854,-0.649 3.854,-0.649 0,0 2.088,3.006 3.363,4.418 0.557,0.616 1.017,1.112 1.731,1.125 0.295,0.006 0.719,-0.031 0.719,-0.031 z m 51.573,24.068 0.559,-0.01 c 0.251,-0.005 0.318,-0.157 0.673,-1.529 2.043,-7.887 2.417,-12.243 -2.609,-17.301 -0.828,-0.833 -1.792,-1.532 -2.413,-0.785 -0.422,0.507 -0.852,4.082 -0.66,4.863 0.336,1.365 1.332,1.809 2.482,2.736 2.598,2.094 3.249,3.665 2.918,6.455 -0.253,2.14 -0.95,5.571 -0.95,5.571 z m -27.778,-1.952 c 0.533,1.431 1.583,3.175 2.548,3.457 0.877,0.257 1.459,-0.973 1.477,-1.701 0.023,-0.946 0.003,-2.177 -0.221,-2.632 -0.174,-0.352 -0.47,-0.239 -1.012,-0.614 -0.681,-0.47 -1.751,-1.71 -1.751,-1.71 0,0 3.119,-3.349 5.764,-5.975 2.815,-2.796 16.971,-14.035 22.636,-16.363 0.534,-0.22 0.984,-0.345 1.15,-0.05 0.134,0.236 -1.191,5.952 0.476,4.303 0.462,-0.456 0.686,-1.652 1.036,-2.688 0.558,-1.649 1.434,-2.89 2.71,-3.962 6.218,-5.2189997 8.056,-3.6789997 8.766,-8.3099997 0.303,-1.97999998 0.09,-2.42899998 -1.618,-1.85099998 -1.89,0.64 -4.598,2.09999998 -7.577,3.91099998 -4.583,2.787 -34.691,22.3969997 -35.412,29.1549997 -0.131,1.226 0.179,2.756 1.028,5.03 z m 13.751,-22.116 -0.14,-3.203 c -0.057,-1.295 -0.038,-1.527 0.187,-2.321 0.167,-0.588 0.343,-1.2319997 0.789,-1.6469997 1.088,-1.01 3.782,-0.661 5.031,-1.493 1.799,-1.199 1.8,-5.316 0.416,-6.98499998 -1.467,-1.77000002 -4.434,1.04099998 -5.65,2.64899998 -0.746,0.988 -1.453,2.119 -1.771,3.44 -0.148,0.613 -0.229,1.308 -0.344,1.916 L 77.213,11.550033 75.349,9.1780333 c -2.551,-3.36 -1.773,-4.359 -5.522,-5.273 -1.256,-0.306 -3.98,-0.191 -4.504,1.223 -0.41,1.107 0.552,3.798 1.155,4.437 0.463,0.4919997 2.339,1.7109997 3.114,1.7859997 1.266,0.122 3.854,-0.649 3.854,-0.649 0,0 2.088,3.006 3.364,4.418 0.556,0.616 1.017,1.112 1.73,1.125 0.295,0.006 0.72,-0.031 0.72,-0.031 z m -41.558,37.622 0.559,-0.009 c 0.251,-0.005 0.319,-0.158 0.674,-1.529 2.043,-7.887 2.416,-12.243 -2.61,-17.301 -0.827,-0.833 -1.792,-1.532 -2.413,-0.785 -0.421,0.506 -0.852,4.082 -0.66,4.863 0.336,1.365 1.332,1.809 2.482,2.736 2.598,2.094 3.249,3.665 2.919,6.455 -0.254,2.14 -0.951,5.57 -0.951,5.57 z m 16.167,-24.022 -0.549,0.01 c -0.707,0.012 -0.802,0.101 -0.953,0.884 -0.066,0.344 -0.263,0.867 -0.485,1.374 -1.289,2.948 -2.826,2.266 -3.933,0.089 -1.01,-1.987 -2.223,-4.185 -2.422,0.225 -0.08,1.768 0.118,5.14 1.481,6.057 1.459,0.983 3.72,0.221 5.131,-0.732 0.332,-0.225 0.628,-0.486 0.789,-0.818 0.092,-0.19 0.14,-0.403 0.174,-0.614 l 0.199,-1.233 1.375,0.155 c 0.25,0.028 0.511,0.052 0.763,0.041 0.875,-0.038 1.549,-0.461 2.053,-1.085 2.294,-2.835 1.235,-6.258 -0.563,-8.668 -1.346,-1.803 -3.617,-4.632 -1.396,1.025 0.81,2.063 0.685,3.249 -1.664,3.29 z m -40.345,-15.853 -1.151,0.07 c -0.516,0.032 -0.605,0.026 -0.884,-0.057 -0.504,-0.149 -1.14,-0.673 -1.384,-1.173 -0.118,-0.241 -0.134,-0.314 -0.159,-0.727 l -0.057,-0.921 0.921,-0.056 c 0.414,-0.025 0.488,-0.018 0.741,0.069 0.71,0.245 1.839,1.451 1.91,1.76 0.101,0.442 0.063,1.035 0.063,1.035 z m 2.169,-7.8529997 -0.109,-0.93 c 0,0 0.608,-0.107 1.035,-0.063 0.543,0.055 0.793,0.354 1.12,0.639 1.912,1.671 4.395,2.325 3.319,3.998 -0.173,0.2689997 -1.251,1.3849997 -2.205,2.2019997 -1.299,1.113 -2.097,1.37 -1.97,-0.023 0.198,-2.1639997 -1.234,-6.1999997 -1.19,-5.8229997 z M 9.175,11.469033 c 0.367,2.238 1.051,5.832 0.714,6.757 -0.248,0.682 -0.75,1.187 -1.212,1.792 -1.928,2.525 -2.208,5.486 -1.164,8.89 1.113,3.633 5.026,2.119 8.586,-0.138 2.121,-1.346 7.305,-5.03 8.427,-7.44 0.062,-0.133 0.12,-0.27 0.174,-0.41 -0.488,-1.861 -2.001,0.05 -2.006,0.053 -5.794,3.959 -11.871,6.356 -13.767,5.613 -0.423,-0.165 -0.634,-0.605 -0.37,-1.537 0.168,-0.59 0.511,-1.204 0.588,-1.297 0.848,-1.025 2.609,-2.068 3.697,-3.256 0.683,-0.747 1.101,-1.552 1.822,-2.06 0.912,-0.642 2.311,-0.809 3.384,-1.289 2.778,-1.242 4.92,-4.604 5.184,-7.2339997 0.473,-4.714 -2.049,-6.267 -6.187,-9.15299998 -0.552,-0.386 -0.997,-0.691 -1.915,-0.749 -0.964,-0.061 -2.45,0.15 -2.45,0.15 0,0 -0.075,2.27199998 0.238,3.88999998 0.35,1.809 1.187,2.799 1.544,4.009 0.079,0.269 0.135,0.55 0.039,0.647 -0.098,0.1 -0.356,0.006 -0.603,-0.15 -1.94,-1.227 -2.041,-2.979 -3.583,-2.191 -0.848,0.433 -1.238,1.448 -1.304,2.838 -0.042,0.8859997 -0.025,1.1119997 0.164,2.2649997 z m 12.237,26.971 4.008,-4.008 -5.605,-5.605 -5.605,5.605 4.008,4.008 -4.008,4.008 5.605,5.604 5.605,-5.604 -4.008,-4.008 z m 34.851,37.108 -5.604,5.605 5.604,5.605 5.605,-5.605 -5.605,-5.605 z m -54.541,-10.583 -1.722,-3.637 0.282,2.766 0.534,5.213 c 1.205,4.077 2.835,8.702 6.887,9.389 2.813,0.477 5.923,-2.479 7.306,-4.929 1.244,-2.203 1.761,-4.929 2.789,-7.108 0.881,-1.866 2.137,-3.331 3.797,-5.039 1.089,-1.122 2.756,-2.178 3.292,-1.953 0.3,0.126 0.567,0.417 0.787,0.69 0.298,0.367 0.366,0.544 0.677,1.766 2.196,8.614 3.24,11.733 10.703,13.912 6.305,1.842 9.689,-0.765 17.82,-2.258 1.895,-0.348 3.703,-0.463 5.63,-0.197 1.956,0.271 4.035,0.933 6.042,1.192 0.434,0.055 0.864,0.092 1.292,0.028 0.577,-0.086 0.656,-0.225 0.797,-1.383 0.104,-0.859 0.361,-1.737 0.722,-2.482 1.372,-2.84 2.003,-3.518 -1.789,-4.378 -2.314,-0.524 -4.716,-0.561 -6.584,-1.172 -1.507,-0.493 -8.341,-4.615 -8.632,-6.288 -0.28,-1.61 4.774,-6.359 6.791,-7.589 4.288,-2.613 2.978,0.661 4.557,4.669 0.942,2.39 4.73,5.006 6.647,5.376 2.889,0.558 9.572,-0.947 12.638,-1.844 1.211,-0.354 2.353,-0.74 3.469,-1.055 2.011,-0.569 9.715,-0.958 12.393,-0.625 3.609,0.448 8.151,1.317 8.151,1.317 0,0 0.44,-1.624 0.897,-2.712 0.917,-2.182 1.622,-2.278 1.33,-4.229 -0.105,-0.699 -0.256,-0.792 -1.512,-0.924 -4.763,-0.502 -11.842,-2.257 -14.174,-4.058 -2.498,-1.928 -4.438,-5.261 -6.869,-7.131 -2.85,-2.194 -11.806,-4.063 -14.446,-1.004 -0.742,0.86 -1.628,3.282 -1.699,4.873 -0.062,1.361 0.117,3.361 0.117,3.361 l 7.919,-0.744 -0.016,-0.467 c 0,0 0.302,0.034 0.467,-0.016 0.252,-0.077 0.129,-0.501 0.172,-0.743 0.068,-0.377 0.697,-0.355 1.289,-0.243 1.569,0.299 5.69,2.978 6.51,4.769 1.266,2.763 -9.385,3.599 -11.071,3.803 -4.281,0.517 -8.394,-0.847 -10.139,-5.254 -0.824,-2.084 -1.378,-6.028 -1.378,-6.028 0,0 -0.792,0.066 -1.461,0.168 -1.611,0.247 -2.966,0.983 -3.945,1.869 -4.819,4.362 -7.541,8.772 -13.784,10.551 -3.923,1.118 -5.432,1.064 -6.186,3.241 -0.199,0.574 -0.228,0.777 -0.292,2.037 l -0.206,4.069 c 0,0 3.493,-0.328 5.726,-0.281 1.723,0.036 4.022,0.576 5.534,1.523 0.442,0.277 0.581,0.496 0.536,1.057 -0.019,0.252 -0.154,0.329 -1.341,0.765 -5.875,2.158 -15.612,0.743 -18.672,-4.179 -1.769,-2.846 -2.215,-9.228 -3.659,-11.089 -0.792,-1.021 -2.529,-0.455 -3.959,0.372 -1.603,0.926 -3.158,2.382 -4.296,4.122 -2.24,3.423 -3.276,8.321 -5.507,11.116 -1.862,2.333 -3.901,3.441 -6.349,2.422 -2.197,-0.916 -3.753,-3.16 -4.812,-5.397 z"
	style="stroke:none; fill:#000000"/>
</svg>