<?xml version="1.0"?>
<svg xmlns="http://www.w3.org/2000/svg" version="1.1">
  <path
     d="m 20.975274,16.21396 -0.131,-3.203 c -0.053,-1.295 -0.036,-1.527 0.175,-2.32 0.156,-0.589 0.321,-1.233 0.74,-1.647 1.02,-1.011 3.547,-0.662 4.718,-1.494 1.686,-1.199 1.687,-5.316 0.39,-6.985 -1.376,-1.769 -4.158,1.041 -5.298,2.649 -0.7,0.988 -1.363,2.12 -1.661,3.441 -0.139,0.612 -0.215,1.307 -0.323,1.915 l -0.53,2.98 -1.747,-2.372 c -2.393,-3.36 -1.663,-4.359 -5.179,-5.272 -1.178,-0.307 -3.7319998,-0.192 -4.2229998,1.222 -0.385,1.107 0.517,3.798 1.083,4.437 0.434,0.492 2.1929998,1.711 2.9199998,1.786 1.187,0.123 3.614,-0.649 3.614,-0.649 0,0 1.958,3.006 3.154,4.418 0.522,0.616 0.954,1.112 1.623,1.125 0.277,0.006 0.675,-0.031 0.675,-0.031 z m 60.41,25.09 0.524,-0.009 c 0.236,-0.005 0.299,-0.158 0.632,-1.529 1.916,-7.887 2.266,-12.243 -2.447,-17.301 -0.776,-0.833 -1.68,-1.532 -2.263,-0.785 -0.395,0.506 -0.798,4.082 -0.618,4.863 0.315,1.365 1.249,1.809 2.327,2.736 2.436,2.094 3.047,3.665 2.737,6.455 -0.238,2.14 -0.892,5.57 -0.892,5.57 z m -34.33,-6.96 c -0.038,-1.116 -0.157,-2.518 -0.501,-2.871 -0.199,-0.204 -0.474,-0.056 -0.647,-0.166 -0.777,-0.498 0.544,-2.548 1.174,-3.332 5.715,-7.114 20.525,-15.947 28.35,-17.774 0.746,-0.174 1.492,-0.315 1.633,-0.046 0.07,0.134 -0.009,0.369 -0.13,0.635 -0.283,0.623 -0.735,1.378 -1.237,2.187 -10.422,16.781 6.017,-6.508 10.681,-7.162 0.427,-0.225 0.828,-0.406 1.183,-0.525 1.815,-0.609 3.781,-0.739 4.019,-2.594 0.034,-0.261 0.039,-0.585 0.03,-0.9 -0.079,-3.039 -4.73,-1.585 -8.008,-0.256 -3.034,1.231 -7.539,3.259 -12.318,5.617 -6.183,3.05 -24.697,12.208 -27.302,20.162 -0.839,2.563 -0.683,5.435 0.99,7.905 0.072,0.106 0.137,0.201 0.196,0.287 -0.755,-1.093 2.049,3.507 1.887,-1.167 z m -28.336,-5.481 c -0.34,2.27 0.074,2.828 1.489,2.131 0.964,-0.475 13.399,-8.188 15.215,-10.498 0.731,-0.93 1.461,-2.576 1.718,-4.056 0.159,-0.912 -0.098,-0.88 -1.018,-0.515 -2.134,0.846 -16.202,9.979 -16.643,10.804 -0.412,0.771 -0.676,1.571 -0.761,2.134 z m 19.474,17.3 -0.515,0.01 c -0.663,0.012 -0.752,0.101 -0.894,0.884 -0.062,0.344 -0.247,0.868 -0.454,1.374 -1.209,2.948 -2.651,2.266 -3.688,0.089 -0.948,-1.987 -2.085,-4.185 -2.272,0.225 -0.074,1.769 0.111,5.14 1.388,6.057 1.369,0.983 3.489,0.221 4.812,-0.732 0.312,-0.224 0.59,-0.486 0.74,-0.818 0.087,-0.19 0.131,-0.403 0.163,-0.614 l 0.187,-1.233 1.289,0.155 c 0.235,0.028 0.48,0.052 0.716,0.041 0.82,-0.038 1.452,-0.461 1.925,-1.085 2.151,-2.834 1.158,-6.258 -0.528,-8.668 -1.262,-1.803 -3.391,-4.631 -1.309,1.025 0.759,2.063 0.642,3.249 -1.56,3.29 z m -15.703,-5.008 -3.85,4.105 5.427,5.787 5.426,-5.787 -3.85,-4.105 3.85,-4.106 -5.426,-5.787 -5.427,5.787 3.85,4.106 z m 25.126,35.328 -5.427,5.787 5.427,5.788 5.426,-5.788 -5.426,-5.787 z m 26.583,-3.202 c 0,0 0.12,-0.169 0.544,-0.767 0.858,-1.209 5.827,-5.528 2.839,-7.958 -0.27,-0.22 -0.617,-0.39 -1.049,-0.498 -2.344,-0.585 -6.654,2.785 -7.232,4.758 -0.178,0.607 -0.254,1.331 0.012,1.531 0.204,0.153 0.609,0 1.036,-0.179 0.575,-0.241 3.761,-1.843 4.338,-1.307 0.582,0.541 -0.121,1.484 -0.859,2.254 -1.96,2.045 -3.051,3.88 -3.153,5.468 -0.503,7.802 10.991,4.563 13.332,3.544 2.44,-1.062 4.702,-2.427 5.867,-3.492 0.924,-0.843 1.029,-0.962 1.052,-1.192 0.017,-0.17 0.011,-0.362 -0.032,-0.51 -0.131,-0.459 -4.089,1.026 -7.254,1.982 -1.222,0.368 -7.399,0.405 -9.382,-1.054 -0.376,-0.276 -0.725,-0.682 -0.823,-1.186 -0.044,-0.225 0.032,-0.364 0.764,-1.394 z m -74.00999978,-18.739 0,0 -0.168,7.704 c -0.146,6.658 0.327,15.348 5.67699998,18.571 2.747,1.655 5.6419998,0.852 7.5509998,-2.125 1.663,-2.594 3.475,-10.95 5.708,-12.506 1.404,-0.978 3.639,-1.635 3.639,-1.635 0,0 0.491,4.175 0.838,6.373 1.347,8.545 9.156,9.067 16.709,7.407 8.138,-1.789 9.493,-3.283 15.917,-2.626 1.041,0.107 1.166,-0.004 1.249,-1.108 0.061,-0.82 0.268,-1.647 0.524,-2.37 0.452,-1.274 1.059,-2.225 1.132,-3.889 0.024,-0.537 -0.008,-1.148 -0.008,-1.148 l -2.55,0.027 c -1.044,0.012 -1.244,0.002 -2.006,-0.1 -2.218,-0.298 -8.82,-5.656 -9.02,-7.247 -0.261,-2.074 2.721,-5.989 4.626,-6.793 0.766,-0.323 0.877,-0.324 1.108,-0.007 0.819,1.126 1.152,4.224 1.402,5.095 1.668,5.818 9.494,6.407 14.183,4.846 2.304,-0.767 4.478,-2.303 6.887,-3.398 2.361,-1.074 8.21,-2.661 11.555,-2.551 1.046,0.034 1.182,-0.073 1.357,-1.068 0.131,-0.739 0.392,-1.281 0.719,-2.072 0.681,-1.647 1.649,-4.373 1.649,-4.373 0,0 -9.816,-1.955 -11.897,-3.374 -0.79,-0.539 -1.226,-1.135 -1.763,-1.755 -2.534,-2.93 -12.578,-7.576 -14.514,-3.042 -0.634,1.485 -1.41,4.271 -1.49,5.994 -0.059,1.283 0.022,3.063 0.022,3.063 l 8.122,-0.088 c 1.043,-0.011 1.225,0.002 1.823,0.129 0.443,0.094 0.772,0.275 1.265,0.556 0.802,0.455 2.038,1.172 2.038,1.172 0,0 -1.604,1.112 -2.79,1.708 -3.628,1.82 -10.325,1.408 -13.147,-1.294 -2.261,-2.165 -1.955,-3.109 -2.557,-6.434 -0.344,-1.898 -0.857,-2.3 -2.139,-1.891 -1.485,0.474 -3.479,1.828 -4.42,3.398 -0.757,1.264 -1.115,3.039 -1.901,4.328 -0.767,1.257 -3.399,3.575 -4.415,4.116 -2.381,1.269 -5.903,1.167 -7.073,2.401 -0.491,0.518 -0.984,3.215 -0.987,5.392 -0.001,1.39 0.022,3.063 0.022,3.063 l 3.556,-0.4 c 1.039,-0.117 1.27,-0.11 2.307,0.068 1.034,0.178 1.82,0.349 3.029,0.954 1.151,0.576 2.686,1.545 2.686,1.545 0,0 -4.248,1.268 -6.837,1.611 -4.728,0.626 -8.744,-0.235 -11.45,-4.251 -2.207,-3.275 -1.569,-3.735 -1.849,-7.581 -0.186,-2.566 -0.725,-3.151 -2.338,-2.837 -3.425,0.669 -4.838,2.219 -6.614,7.332 -1.011,2.911 -2.188,7.432 -4.365,9.318 -2.5619998,2.218 -4.4419998,2.1 -5.7969998,0.746 -4.079,-4.938 -5.20499998,-18.954 -5.20499998,-18.954 z M 11.471274,24.17596 c -0.11,0.5 -0.22,1.183 -0.088,1.531 0.236,0.62 0.972,0.292 1.817,-0.361 0.6,-0.464 1.154,-0.895 1.665,-1.298 0.181,-0.141 0.357,-0.28 0.528,-0.415 7.115,-5.619 8.402,-6.298 16.168,-10.237 0.183,-0.093 0.371,-0.188 0.563,-0.286 3.664,-1.868 6.765,-4.066 8.203,-7.831 0.406,-1.061 0.454,-1.66 0.189,-1.927 -3.848,-1.124 -22.029,12.753 -22.507,13.114 -0.711,0.535 -1.368,1.082 -1.937,1.642 -0.947,0.934 -1.648,1.903 -2.672,2.973 -0.433,0.453 -0.923,0.924 -1.259,1.493 -0.453,0.767 -0.52,0.927 -0.67,1.602 z m 45.758,-7.962 -0.131,-3.203 c -0.053,-1.295 -0.035,-1.527 0.176,-2.32 0.156,-0.589 0.321,-1.233 0.74,-1.647 1.02,-1.011 3.546,-0.662 4.718,-1.494 1.686,-1.199 1.687,-5.316 0.389,-6.985 -1.376,-1.769 -4.158,1.041 -5.298,2.649 -0.7,0.988 -1.363,2.12 -1.661,3.441 -0.138,0.612 -0.214,1.307 -0.323,1.915 l -0.529,2.98 -1.748,-2.372 c -2.392,-3.36 -1.663,-4.359 -5.178,-5.272 -1.178,-0.307 -3.733,-0.192 -4.224,1.222 -0.384,1.107 0.518,3.798 1.083,4.437 0.435,0.492 2.194,1.711 2.921,1.786 1.187,0.123 3.613,-0.649 3.613,-0.649 0,0 1.959,3.006 3.155,4.418 0.522,0.616 0.953,1.112 1.623,1.125 0.276,0.006 0.674,-0.031 0.674,-0.031 z"
     style="fill:#000000;stroke:none" />
</svg>
