<?xml version="1.0" encoding="UTF-8" standalone="no"?>
<!-- Created with sK1/UniConvertor (http://sk1project.org/) -->

<svg
   xmlns:dc="http://purl.org/dc/elements/1.1/"
   xmlns:cc="http://creativecommons.org/ns#"
   xmlns:rdf="http://www.w3.org/1999/02/22-rdf-syntax-ns#"
   xmlns:svg="http://www.w3.org/2000/svg"
   xmlns="http://www.w3.org/2000/svg"
   xmlns:sodipodi="http://sodipodi.sourceforge.net/DTD/sodipodi-0.dtd"
   xmlns:inkscape="http://www.inkscape.org/namespaces/inkscape"
   width="595.276pt"
   height="841.89pt"
   viewBox="0 0 595.276 841.89"
   fill-rule="evenodd"
   id="svg2"
   version="1.1"
   inkscape:version="0.48.0 r9654"
   sodipodi:docname="hussain.svg">
  <metadata
     id="metadata14">
    <rdf:RDF>
      <cc:Work
         rdf:about="">
        <dc:format>image/svg+xml</dc:format>
        <dc:type
           rdf:resource="http://purl.org/dc/dcmitype/StillImage" />
      </cc:Work>
    </rdf:RDF>
  </metadata>
  <defs
     id="defs12" />
  <sodipodi:namedview
     pagecolor="#ffffff"
     bordercolor="#666666"
     borderopacity="1"
     objecttolerance="10"
     gridtolerance="10"
     guidetolerance="10"
     inkscape:pageopacity="0"
     inkscape:pageshadow="2"
     inkscape:window-width="640"
     inkscape:window-height="480"
     id="namedview10"
     showgrid="false"
     inkscape:zoom="0.24801339"
     inkscape:cx="-109.78134"
     inkscape:cy="526.18127"
     inkscape:window-x="0"
     inkscape:window-y="0"
     inkscape:window-maximized="0"
     inkscape:current-layer="svg2" />
  <path
     inkscape:connector-curvature="0"
     id="path6"
     d="m 386.48,482.848 0,-1.423 1.423,0 0,1.897 -0.949,0 0,-0.474 -0.474,0 z"
     style="fill:#000000;stroke:none" />
  <path
     inkscape:connector-curvature="0"
     id="path8"
     d="m 109.093,37.288215 0,1.265 c 0,0 5.648,0.174 9.029,0 8.289,-0.424 27.618,-8.88 33.654,-12.093 1.779,-0.947 10.852,-5.869 12.943,-8.408 0.802,-0.974 3.099,-4.967 3.656,-4.16 0.125,0.181 0.081,0.646 0,1.138 -1.396,8.449 -3.846,8.94 -1.186,13.09 1,1.559 3.545,3.157 4.743,1.423 1.939,-2.81 1.577,-7.652 -0.474,-8.537 -1.901,-0.82 -2.748,-0.052 -2.609,-1.613 0.154,-1.723 1.368,-4.716 1.897,-7.54 0.669,-3.5720004 0.714,-10.4590004 -2.21,-11.71400043 -2.675,-1.14899997 -5.872,5.12900003 -5.378,7.96700003 0.085,0.487 0.225,0.899 0.711,1.518 0.804,1.0220004 2.553,2.6090004 2.553,2.6090004 0,0 -1.739,1.882 -3.264,3.319 -7.9,7.447 -37.298,17.479 -45.576,19.487 -2.31,0.561 -4.692,1.087 -7.079,1.42 -1.269,0.178 -1.41,0.261 -1.41,0.829 z m -28.576,21.373 -1.7768,2.136 c -0.697,0.838 -1.3596,1.618 -1.8972,2.041 -2.3053,1.813 -9.1661,4.297 -12.3307,5.217 -14.2902,4.151 -30.3447,4.206 -43.1575,0.474 -3.6545,-1.065 -11.8148,-3.695 -14.2888,-6.081 l -7.066,-5.973 1.44,3.826 c 2.8567,7.591 13.0139,13.909 19.4405,15.579 10.254,2.665 25.5915,2.027 36.2933,0.444 13.1704,-1.948 27.8758,-6.861 27.2226,-23.301 -0.0281,-0.706 -0.0229,-1.307 0.2738,-1.812 0.6903,-1.175 2.9585,-1.832 4.5446,-3.023 0.2567,-0.192 1.1571,-0.948 1.4118,-1.418 0.1437,-0.265 0.1849,-0.294 0.4123,-0.294 l 0.5061,0 c 0,0 -0.5277,2.894 -0.4742,4.932 0.1258,4.79 3.588,7.16 8.0624,8.347 3.6978,0.981 7.0138,0.906 10.9698,-1.086 0.592,-0.298 1.2,-0.654 1.784,-0.957 l 2.117,-1.1 1.904,1.733 c 1.813,1.546 4.615,2.444 6.312,1.884 1.17,-0.386 2.062,-1.028 2.876,-1.476 l 1.673,-0.919 1.981,1.331 c 0.612,0.411 1.227,0.853 1.779,1.064 1.203,0.461 3.352,-0.379 4.882,-1.767 l 1.174,-1.064 3.481,1.685 c 3.229,1.562 6.234,2.055 9.054,1.621 4.061,-0.626 8.478,-2.966 12.995,-3.32 2.144,-0.169 8.647,1.109 12.94,1.875 1.261,0.225 1.441,0.2 1.805,-0.244 0.269,-0.33 0.423,-0.679 0.625,-1.108 0.838,-1.775 2.512,-4.928 2.512,-4.928 0,0 -1.886,-1.309 -3.56,-1.998 -2.74,-1.128 -5.885,-0.264 -8.062,-0.948 -2.346,-0.738 -4.182,-3.459 -6.334,-5.777 -2.685,-2.892 -3.87,-3.538 -7.514,-3.946 -3.814,-0.426 -5.102,-0.024 -6.782,2.846 -0.643,1.097 -1.131,2.189 -1.186,4.079 -0.016,0.533 0,1.138 0,1.138 l 6.488,0 c 1.28,0 1.496,0.03 2.16,0.3 0.532,0.216 1.975,1.224 2.09,1.533 0.157,0.421 0.17,1.174 0.17,1.174 0,0 -3.919,1.334 -6.26,1.735 -2.108,0.362 -7.475,-0.406 -9.346,-2.197 -1.543,-1.478 -2.016,-3.131 -3.38,-2.301 -0.97,0.591 -1.803,2.42 -2.83,3.313 -1.209,1.05 -3.404,0.978 -4.743,-0.475 -1.062,-1.152 -1.489,-2.725 -2.56,-2.134 -0.729,0.402 -1.354,1.851 -2.182,2.609 -1.428,1.305 -4.047,0.714 -6.165,0 -0.459,-0.155 -0.907,-0.323 -1.304,-0.592 -0.534,-0.364 -0.578,-0.505 -0.436,-1.415 l 0.317,-2.024 c 0,0 -0.541,0.12 -1.031,0.263 -2.809,0.817 -3.969,2.348 -5.609,3.293 -5.107,2.943 -15.7952,0.918 -17.0732,-5.131 -0.455,-2.154 0.1969,-4.797 0,-7.133 -0.2087,-2.477 -3.3969,-12.254 -6.0041,-13.108 -2.1902,-0.718 -2.6286,2.103 -3.0068,4.553 -0.1575,1.02 -0.2697,1.883 0,2.722 0.4785,1.488 2.1588,2.899 3.0827,4.581 1.3993,2.548 1.0602,3.328 -1.6599,4.743 -0.9927,0.516 -1.6548,0.81 -2.7507,0.474 -2.5538,-0.783 -4.6285,-3.707 -6.0231,-1.897 -1.3916,1.806 -1.4142,4.403 -1.1856,6.175 0.231,1.791 1.225,5.511 2.0985,8.039 l 1.1012,3.188 z m 76.001,5.754 0,1.518 2.372,0 0,-0.948 1.897,0 c 0,0 0.068,0.647 0,1.138 -0.119,0.849 -0.648,1.232 -1.103,1.763 -1.262,1.476 -2.112,4.339 -1.885,6.111 0.128,0.997 0.229,1.186 1.009,1.882 2.393,2.137 5.041,2.181 7.196,1.199 2.625,-1.196 7.145,-3.761 8.062,-6.877 0.06,-0.203 0.085,-0.387 0,-0.474 -0.145,-0.148 -0.613,-0.013 -1.072,0.167 -4.896,1.925 -6.954,5.544 -10.784,2.679 -1.34,-1.002 -1.738,-1.807 -1.294,-2.957 1.134,-2.937 4.684,-5.73 2.716,-8.425 -1.568,-2.149 -5.256,-0.666 -6.402,0.948 -0.212,0.298 -0.413,0.63 -0.532,0.985 -0.162,0.479 -0.18,0.608 -0.18,1.291 z m -62.4711,9.256 4.0248,4.025 5.7923,-5.793 -5.7923,-5.792 -4.0248,4.025 -4.0248,-4.025 -5.7924,5.792 5.7924,5.793 4.0248,-4.025 z m 8.8011,-53.082 L 102.4,9.4962146 c -0.066,-1.646 -0.092,-1.932 -0.261,-2.864 -0.519,-2.858 -1.913,-4.423 -3.3701,-5.433 -1.8534,-1.28500003 -3.2679,-1.76200003 -5.1781,0.047 -1.5707,1.487 -1.7186,6.872 -1.1012,7.714 0.4607,0.628 1.6813,0.571 3.1587,0.121 3.6901,-1.125 4.0599,-0.865 5.0207,4.1990004 0.457,2.407 0.511,4.662 0.286,7.082 -0.477,5.141 -1.5976,7.641 0.599,10.658 0.914,1.256 1.869,1.446 3.955,0.889 1.482,-0.396 1.776,-1.29 2.397,-3.953 0.438,-1.875 0.784,-3.554 0.671,-5.423 -0.222,-3.709 -3.311,-10.68 0.412,-12.411 0.688,-0.3200004 1.581,-0.111 2.351,0.107 1.039,0.293 1.215,0.16 1.762,-1.3320004 0.45,-1.226 0.971,-2.355 1.257,-3.675 1.074,-4.95600003 -0.571,-6.354 -3.872,-4.32400003 C 106.701,3.2262146 105,13.203215 105.809,19.891215 c 0.248,2.757 0.519,5.24 0.519,5.24 0,0 -0.226,-0.004 -0.496,-0.038 -1.06,-0.136 -2.881,-1.962 -2.984,-4.504 z m -25.1047,11.447 5.7923,-5.792 -5.7923,-5.793 -5.7923,5.793 5.7923,5.792 z m 2.1195,-23.3240004 -4.823,4.7910004 c -0.8015,0.796 -0.9155,0.939 -1.1397,1.429 -0.3141,0.687 -0.4227,1.835 -0.2684,1.991 0.4996,0.504 2.2657,-0.719 2.8805,-1.173 5.3838,-3.97 7.8363,-6.4710004 8.7068,-11.6120004 0.4425,-2.614 -0.9413,-3.62500003 -3.3897,-3.95800003 -3.8844,-0.529 -7.7391,0.012 -9.2481,2.93600003 0.2355,11.1660004 0.5672,4.781 3.8613,3.988 3.6645,-0.882 7.6048,-2.84 3.4203,1.608 z M 119.356,75.312215 c -0.359,2.244 0.078,2.794 1.569,2.106 1.015,-0.469 14.117,-8.09 16.03,-10.372 0.771,-0.919 1.54,-2.545 1.811,-4.008 0.167,-0.901 -0.103,-0.869 -1.073,-0.508 -2.249,0.836 -17.072,9.859 -17.536,10.674 -0.434,0.762 -0.712,1.552 -0.801,2.108 z m 9.143,-55.045 c 2.576,2.264 6.322,3.442 7.797,1.232 0.958,-1.434 2.517,-4.424 2.517,-4.424 0,0 -1.585,-2.394 -2.907,-3.423 -0.888,-0.692 -2.584,-0.98 -3.586,-0.436 -0.886,0.481 -1.919,1.871 -2.479,1.302 -0.349,-0.354 0.064,-1.749 0.567,-3.056 0.854,-2.2130004 4.67,-7.0190004 0.01,-11.11600043 -0.02,-0.007 -0.041,-0.012 -0.061,-0.017 L 129.64,2.1456561e-4 128.889,0.47321457 c -1.171,0.348 -0.947,3.08800003 -0.565,3.46200003 0.207,0.203 0.505,0.807 0.787,1.353 0.625,3.251 0.122,6.0410004 -1.151,9.1460004 -0.509,1.241 -0.88,2.507 -0.697,3.893 0.115,0.87 0.239,1.064 1.236,1.94 z"
     style="fill:#000000;stroke:none" />
</svg>
