<?xml version="1.0"?>
<svg xmlns="http://www.w3.org/2000/svg" version="1.1">
  <path
     d="m 124.92784,46.620576 0.16875,-0.485 c -1.47125,-12.5 -3.00875,-25.5475 -3.00875,-25.5475 0,0 0.2,-0.004 0.74125,-0.0137 4.0575,1.18375 4.19875,0.72625 3.4025,-0.39125 -2.77375,-3.8875 -2.65875,-5.64625 -3.69,-10.4750002 -0.3125,-1.4575 -0.60125,-2.80625 -0.82625,-3.85 -0.095,-0.44 -0.17875,-0.82625 -0.22875,-1.2025 L 120.87034,6.2578141e-4 118.84284,0.57937578 c -0.705,0.20125 -1.31625,0.55500002 -1.48625,0.70000002 -2.47125,2.1125 -4.92625,5.2525 -4.14125,7.3 0.20625,0.53875 0.6,1.1075 0.95625,1.7312502 3.96,6.91625 2.91125,16.9075 3.16375,23.2975 0.2425,6.1375 1.98,15.9325 3.4175,24.9675 l 0.025,-0.0725 c 0.3275,2.57625 0.55875,4.9125 0.63125,6.86 0.0725,1.9075 0.10875,3.8875 0.1275,5.4975 0.0325,2.765 -1.77625,9.84625 2.59375,0.57875 1.0425,-2.2125 2.1025,-4.8075 2.4175,-6.38625 0.3125,-1.55875 0.32625,-1.9075 0.14,-3.48125 0,0 -0.52625,-4.46875 -1.76,-14.95125 z m -22.19125,-34.79125 -6.548759,6.50625 c -1.08875,1.08125 -1.24375,1.275 -1.5475,1.94 -0.42625,0.9325 -0.57375,2.4925 -0.365,2.70375 0.67875,0.685 3.0775,-0.9775 3.91125,-1.5925 7.310009,-5.39125 10.641259,-8.7875 11.822509,-15.7687502 0.60125,-3.5475 -1.2775,-4.92125002 -4.6025,-5.37375002 -5.27375,-0.71875 -10.508759,0.0163 -12.557509,3.98750002 0.32,15.1612502 0.77,6.4912502 5.24375,5.415 4.975009,-1.1975 10.325009,-3.85625 4.643759,2.1825002 z m -98.1091289,28.5825 c 0,0 0.6665,-1.53625 1.06962,-2.75375 0.68013,-2.05375 0.5705,-3.5375 0.30213,-5.66375 -0.74813,-5.9275 -1.8985,-19.355 -1.8985,-19.355 0,0 2.06387,-0.2325 3.64112,-0.19 4.2659999,0.11125 5.5084999,2.12 7.7522499,-0.12125 1.46125,-1.46 2.7675,-6.6312502 1.83375,-8.5625002 -1.06875,-2.20875 -4.68875,-3.27250002 -6.3525,-1.47 -0.7675,0.83125 -1.2049999,2.1425 -2.0837499,3.0075 -1.35975,1.3375 -3.77575,1.6025 -4.97262,2.7175 -2.04963,1.91125 -2.32463,15.2600002 -1.94738,18.4225002 0.63638,5.335 2.65588,13.96875 2.65588,13.96875 z m 37.4916199,-9.08875 c 2.91125,2.55875 7.14375,3.89 8.81125,1.3925 1.08125,-1.62 2.8425,-4.99875 2.8425,-4.99875 0,0 -1.79,-2.705 -3.28375,-3.8675 -1.00375,-0.78125 -2.92,-1.1075 -4.0525,-0.49375 -1.00125,0.54375 -2.1675,2.115 -2.80125,1.4725 -0.76875,-0.78125 1.7375,-5.89375 1.89375,-6.33125 1.91625,-5.36625 1.81375,-8.7187502 0.3425,-13.1750002 -0.4525,-1.37125 -0.95375,-2.76375 -1.65375,-3.30875 l -0.81,-0.63 -0.84875,0.905 c -1.3225,1.41125 -1.07,5.1075 -0.6375,6.62375 0.405,1.4200002 1.1125,2.8300002 1.5125,4.3537502 0.47375,1.8125 0.24375,6.04625 -0.43375,7.955 -0.93375,2.62875 -2.65625,5.04 -2.2775,7.91125 0.13,0.9825 0.26875,1.20125 1.39625,2.19125 z m 23.82875,40.66875 c 0,0 -5.89,-50.02125 -5.89,-50.02125 0,0 0.19875,-0.004 0.74125,-0.0138 4.05625,1.18375 4.1975,0.725 3.40125,-0.39125 -2.77375,-3.8875 -2.6575,-5.64625 -3.69,-10.475 -0.31125,-1.4575002 -0.60125,-2.8075002 -0.82625,-3.8500002 -0.095,-0.44125 -0.17875,-0.82625 -0.22875,-1.2025 l -0.61625,-4.655 -2.02625,0.57875 c -0.705,0.20125 -1.31625,0.555 -1.48625,0.7 -2.4725,2.1125 -4.92625,5.25125 -4.1425,7.3 0.20625,0.5387502 0.6,1.1075002 0.9575,1.7300002 3.95875,6.9175 2.91,16.9075 3.1625,23.29875 0.405,10.25625 4.98625,30.72875 5.36625,40.7925 0.0713,1.90875 0.10875,3.88875 0.1275,5.49875 0.0325,2.765 -1.7775,9.845 2.5925,0.57875 1.04375,-2.2125 2.10375,-4.80875 2.41875,-6.38625 0.31125,-1.56 0.325,-1.9075 0.13875,-3.4825 z m 44.952509,25.6075 c -0.41125,2.566254 0.0888,3.195004 1.79375,2.408754 1.16125,-0.536254 16.145,-9.252504 18.33375,-11.862504 0.88125,-1.05125 1.76,-2.91 2.07,-4.58375 0.19125,-1.03 -0.1175,-0.99375 -1.2275,-0.58125 -2.57125,0.95625 -19.5225,11.275 -20.05375,12.20875 -0.49625,0.87 -0.815,1.77375 -0.91625,2.41 z m -59.988759,-4.345 c 1.85625,-0.05 3.15,-0.14625 3.66,-0.295 1.71375,-0.5 3.76125,-1.8125 3.33125,-3.47 -0.0788,-0.30375 -0.22375,-0.34375 -1.44625,-0.39875 l -39.15875,0.0213 c 0,0 -0.16375,-0.765 0.16125,-1.24625 2.0025,-2.96 4.9575,-7.64875 5.07125,-9.81 0.0775,-1.46875 -0.2525,-3.79875 -1.5175,-4.635 -1.36125,-0.9 -2.27375,0.87625 -2.54375,4.04625 -0.19,2.22 -0.165,5.37875 -0.165,5.37875 0,0 -6.40625,1.48375 -8.2475,2.8725 -0.5924999,0.4475 -1.4099999,1.63875 -1.6712499,2.7925 -0.25125,1.1125 -0.31625,3.7925 -0.3325,4.79 l 42.8587499,-0.0462 z m 42.65625,-8.6075 -7.83875,7.84 7.83875,7.838754 7.840009,-7.838754 -7.840009,-7.84 z m -55.23,-9.71125 6.95375,6.95375 7.83875,-7.83875 -7.83875,-7.84 -6.95375,6.95375 -6.95375,-6.95375 -7.83875,7.84 7.83875,7.83875 6.95375,-6.95375 z m -21.43875,-27.16375 c 0,0 -2.4725,0.0462 -3.20875,0.06 -2.4525,0.045 -2.295,-1.1925 -0.8175,-3.06 0.055,-0.07 0.10625,-0.135 0.1525,-0.19125 1.2325,-1.525 2.55625,-3.19375 3.5475,-4.01375 0.60875,-0.5025 1.11875,-0.575 1.25,-0.0237 0.35375,1.4875 -0.92375,7.22875 -0.92375,7.22875 z m 54.265,-10.09375 c -0.385,-0.02 -0.86625,-0.1475 -1.3175,-0.32 -1.2575,-0.48125 -3.92375,-1.69875 -3.74125,-3.7025 0.0275,-0.3 0.12875,-0.46375 1.0125,-1.63625 1.42625,-1.89 1.98875,-2.63625 3.355,-2.495 0.41875,0.0425 0.545,0.17375 1.26,1.31 0.2775,0.44125 0.5375,0.83625 0.74875,1.29 0.985,2.11875 0.84125,5.67125 -1.3175,5.55375 z m 13.80875,0.5075 c 0,0 -6.65625,0.12375 -8.11875,0.15125 -3.565,0.0662 1.59375,-1.53875 1.35,-8.7425 0.07,-0.0762 0.13375,-0.13 0.18875,-0.16125 0.98625,-0.5475 7.66375,2.6775 10.42875,5.9075 0.86875,1.015 1.4625,2.0225 -1.39625,2.6275 -0.80125,0.17 -1.04625,0.19125 -2.4525,0.2175 z m -20.5175,-7.8725 -3.22125,5.16 0.37,5.44125 -10.96125,1.15 c -1.4025,0.105 -1.71,0.0762 -3.08125,-0.285 -2.8725,-0.7575 -6.56,-3.22 -7.6775,-5.52875 -1.4075,-2.91125 -0.6825,-7.46375 -3.0125,-9.09625 -3.7575,-2.6325 -12.48875,0.71625 -15.07,1.945 -3.83375,1.82375 -9.0375,6.855 -10.48625,11.565 -0.7325,2.37625 -0.67375,5.23375 -1.9737499,6.6925 -1.235,1.385 -3.6935,1.51 -5.16087,2.87 -0.86425,0.80125 -3.97713005,9.16375 -4.12350005,11.9925 -0.0727,1.4075 -0.0743,1.73 -0.0151,3.22625 0.44288,11.21375 1.32300005,31.37875 0.86025,33.65375 -0.24025,1.181254 -0.54737,2.303754 -0.30162,2.778754 0.20187,0.39125 0.77737005,0.34375 1.24937005,-0.0225 0.832,-0.6475 1.52863,-2.963754 2.05275,-5.031254 1.143,-4.5075 2.279,-12.8075 2.09288,-15.2925 -0.58725,-7.83625 -3.16025,-20.5275 -2.4445,-22.0525 1.02262,-2.17875 7.1741199,-2.555 9.3478699,-2.20375 4.41375,0.7125 8.86875,3.11875 10.43,1.75375 1.25625,-1.09875 3.8475,-9.51625 3.45625,-11.77375 -0.225,-1.3 -4.8375,-8.66 -4.32625,-9.76 0.555,-1.1925 7.0125,-2.225 7.88,-2.17625 4.0775,0.225 2.875,4.06125 5.26625,9.88625 2.91,7.09 11.46125,7.18625 18.455,5.63375 l 12.91375,-2.8675 5.52375,0.0975 7.61,0.135 c 1.405,0.0237 1.715,-0.006 3.09375,-0.3125 4.28375,-0.9475 6.33625,-1.685 7.84875,-3.7175 1.1375,-1.53 4.74875,-11.10375 4.74125,-12.56875 -0.0137,-2.2975 -1.86125,-5.51625 -4.81375,-7.67625 -3.69625,-2.7025 -10.03375,-4.91125 -10.67625,-6.3675 -0.1175,-0.265 -0.1825,-0.545 -0.22375,-0.8375 7.0875,-0.945 0.0375,-2.355 -1.165,-4.05875 -0.78375,-1.11125 -1.90625,-2.30875 -2.76125,-3.7137502 -1.605,-2.6375 -2.365,-5.78125 -3.89375,-4.365 -0.78375,0.72625 -1.3975,2.745 -2.35875,4.20375 -1.7,2.5812502 -2.89375,2.7912502 -1.705,5.3662502 0.3525,0.76125 0.86125,1.48625 1.29,2.27625 0.86125,1.585 1.48375,4.59125 1.1525,5.5675 -0.52625,1.55375 -2.40125,1.8825 -4.34625,4.88375 -0.66,1.01875 -1.3275,2.34625 -1.835,3.42875 z m 41.880009,31.15125 -6.611259,0.1225 c -1.40625,0.0262 -1.70875,0.02 -3.03125,-0.0575 -4.09,-0.24 -6.73625,-3.16375 -7.88375,-7.40875 -0.4475,-1.655 -0.4125,-3.24625 -2.07625,-2.27625 -0.95125,0.555 -3.50875,5.29625 -3.87625,6.905 -0.655,2.8675 0.65125,4.63625 1.695,8.11125 0.95625,3.185 1.8675,8.32625 1.8675,8.32625 0,0 -2.595,3.0875 -4.76875,5.3175 -5.17875,5.315 -22.7575,16.15375 -26.26875,17.68375 -1.595,0.695 -3.26125,1.31875 -4.91875,1.882504 -24.59,8.37875 -9.365,2.15875 0.295,4.0775 9.53125,1.895 16.46,-2.905 24.8725,-9.665004 2.10125,-1.6875 9.18875,-7.9475 10.39,-11.07 0.49875,-1.29625 0.37125,-2.815 1.065,-4.95125 0.9825,-3.02125 3.61,-7.2775 3.61,-7.2775 0,0 3.52875,-0.06 6.32,-0.1175 10.258759,-0.21375 12.495009,-1.15 15.646259,-9.8275 1.96875,-5.42125 0.6525,-8.375 -1.86875,-17.665 -0.39,-1.43875 -0.48,-1.60375 -0.89875,-1.64625 -1.61125,-0.16625 -1.99875,0.77125 -4.06375,4.56875 -0.7,1.28625 -1.18,1.99125 -1.255,2.9075 -0.1575,1.93375 1.48875,4.80625 1.72375,9.84125 0.05,1.06125 0.0362,2.21875 0.0362,2.21875 z"
     style="fill:#000000;stroke:none" />
</svg>
