<?xml version="1.0" encoding="UTF-8" standalone="yes"?>
<svg xmlns="http://www.w3.org/2000/svg" xmlns:xlink="http://www.w3.org/1999/xlink"
  width="595.276pt" height="841.89pt" viewBox="0 0 595.276 841.89">
<path
	style="stroke:none; fill:#000000"
	d="m 23.796468,14.41449 -0.1244,-2.848 c -0.0502,-1.151 -0.0336,-1.357 0.1663,-2.062 0.1483,-0.524 0.3048,-1.096 0.7018,-1.464 0.9673,-0.899 3.3624,-0.588 4.4729,-1.328 1.5988,-1.066 1.6,-4.727 0.3695,-6.21 -1.3046,-1.573 -3.9421,0.925 -5.0229,2.355 -0.6637,0.878 -1.2923,1.884 -1.575,3.059 -0.1311,0.544 -0.2035,1.162 -0.306,1.703 l -0.5018,2.649 -1.6571,-2.109 c -2.2684,-2.987 -1.5766,-3.875 -4.9096,-4.687 -1.1168,-0.273 -3.5386,-0.171 -4.0041,1.087 -0.3642,0.984 0.4909,3.376 1.0265,3.944 0.4119,0.437 2.0799,1.521 2.7689,1.588 1.1257,0.109 3.4262,-0.577 3.4262,-0.577 0,0 1.8565,2.673 2.9906,3.928 0.4948,0.547 0.9041,0.988 1.5387,1 0.262,0.005 0.6395,-0.028 0.6395,-0.028 z m 10.3098,22.667 0.497,-0.008 c 0.2234,-0.004 0.2833,-0.14 0.5991,-1.359 1.8163,-7.013 2.1479,-10.885 -2.3201,-15.382 -0.7357,-0.74 -1.5932,-1.362 -2.1453,-0.698 -0.3748,0.451 -0.7573,3.63 -0.5865,4.324 0.2987,1.214 1.1841,1.608 2.2066,2.432 2.3095,1.862 2.8883,3.259 2.5945,5.739 -0.2255,1.903 -0.8453,4.952 -0.8453,4.952 z m 15.1262,31.505 4.0735,4.073 5.8625,-5.862 -5.8625,-5.863 -4.0735,4.074 -4.0735,-4.074 -5.8625,5.863 5.8625,5.862 4.0735,-4.073 z m 8.8376,-52.53 -0.4534,-8.651 c -0.0673,-1.283 -0.0937,-1.506 -0.2648,-2.233 -0.5244,-2.229 -1.9354,-3.449 -3.4105,-4.237 -1.8759,-1.002 -3.3075,-1.374 -5.2408,0.036 -1.5897,1.16 -1.7393,5.36 -1.1145,6.016 0.4662,0.49 1.7016,0.446 3.1969,0.095 3.7348,-0.877 4.1091,-0.675 5.082,3.275 0.4622,1.877 0.5168,3.635 0.2894,5.523 -0.4828,4.008 -1.6174,5.958 0.606,8.311 0.9252,0.98 1.8918,1.128 4.0028,0.693 1.4998,-0.309 1.7974,-1.005 2.4262,-3.082 0.4426,-1.462 0.7928,-2.772 0.6794,-4.23 -0.2251,-2.892 -3.3521,-8.328 0.4167,-9.678 0.6956,-0.25 1.5999,-0.087 2.3795,0.083 1.0509,0.229 1.2293,0.125 1.7831,-1.038 0.4554,-0.957 0.9823,-1.837 1.272,-2.867 1.0874,-3.864 -0.5777,-4.955 -3.9185,-3.372 -3.8323,1.816 -5.5538,9.596 -4.7351,14.812 0.2507,2.15 0.5254,4.086 0.5254,4.086 0,0 -0.2291,-0.003 -0.5019,-0.029 -1.0729,-0.106 -2.916,-1.53 -3.0199,-3.513 z m 19.6439,55.412 c 0,0 0,1.191 0,1.191 0,0 0,0 0,0 0,0 13.5804,-9.699 13.8006,-10.197 0.0443,-0.1 0.087,-0.207 0.1282,-0.321 0.1367,-0.376 0.2518,-0.732 0.3187,-1.063 0.7024,-3.472 -2.5545,-0.798 -3.3058,-0.306 -3.1785,2.082 -8.9992,6.141 -9.8456,7.177 -0.1479,0.181 -0.2841,0.365 -0.4067,0.55 -0.3393,0.514 -0.5724,1.047 -0.6386,1.798 -0.0457,0.518 -0.0508,0.635 -0.0508,1.171 z m -13.0515,-26.541 c -0.0656,0 -0.1327,0 -0.2009,0 -2.1037,0 -3.9415,0.501 -5.111,-2.081 -0.012,-0.027 -0.024,-0.054 -0.0359,-0.081 -0.5395,-1.225 -0.9456,-2.746 -1.6866,-2.161 -0.2396,0.188 -0.4384,0.615 -0.6113,1.08 -0.1217,0.328 -0.2326,0.635 -0.3387,0.92 -1.2473,3.352 -2.8549,3.087 -5.6453,2.758 -1.805,-0.213 -1.1396,-0.825 -1.1396,-2.918 0,-0.539 0,-1.03 0,-1.03 l -0.3678,0 c -0.1653,0 -0.2241,0.066 -0.5876,0.659 -2.1839,3.562 -4.0992,5.443 -7.0873,4.07 -0.3363,-0.154 -0.6374,-0.299 -0.9192,-0.54 -0.9514,-0.815 -2.0309,-3.751 -3.1022,-5.27 -1.3289,-1.883 -3.129,-2.182 -5.0435,-1.731 -7.2943,1.719 -11.6179,6.207 -12.4097,15.049 -0.7697,8.596 5.004,6.434 9.9392,6.655 0.5363,0.024 0.6913,0.043 1.2722,0.145 1.3374,0.235 4.5168,1.572 4.0588,2.69 -0.0704,0.172 -0.2355,0.359 -0.4697,0.555 -4.8812,4.089 -12.8758,5.294 -18.7149,3.13 -10.0528003,-3.725 -11.0019003,-11.763 -7.6274003,-21.863 0.4784,-1.431 0.8454,-2.468 0.8454,-2.468 0,0 -0.3594,-0.044 -0.5515,0 -0.1678,0.039 -0.208,0.146 -0.2528,0.27 -0.0346,0.097 -0.0719,0.204 -0.1118,0.321 -3.9973,11.731 -7.6114,17.957 0.1759,27.082 5.6015003,6.564 16.5685003,5.356 23.3895003,1.375 3.5557,-2.076 6.1585,-5.542 6.3738,-11.606 0.0213,-0.6 0.0077,-1.117 -0.0422,-1.504 -0.5453,-4.24 -4.7233,-5.701 -7.7525,-5.726 -2.1959,-0.017 -4.9226,0.571 -6.9973,-0.231 -0.6799,-0.263 -1.271,-0.643 -1.2137,-1.163 0.2784,-2.524 8.4643,-5.647 9.8181,-5.633 0.9928,0.01 1.9042,0.31 2.6715,1.004 0.5684,0.514 1.0727,1.188 1.4937,2.027 0.1758,0.35 0.3283,0.704 0.4688,1.05 0.6526,1.609 2.0395,3.018 3.5464,3.529 2.1813,0.74 3.2058,-0.505 4.6661,-1.846 0.5102,-0.468 0.6653,-0.61 0.6653,-0.61 0,0 1.6303,1.109 1.6303,1.109 0.4946,0.299 1.3796,0.482 2.2484,0.545 3.0367,0.222 4.5723,-1.409 5.3394,-4.023 0.191,-0.651 0.3585,-1.221 0.3585,-1.221 0,0 0.4179,0.739 0.6915,1.222 0.2988,0.529 0.5411,0.971 0.7508,1.342 1.2155,2.149 7.259,2.762 9.3867,1.125 0.4462,-0.344 0.846,-0.816 1.2005,-1.461 0.1928,-0.351 0.4224,-0.577 0.7357,-0.491 0.4985,0.137 1.0365,1.178 1.7026,1.988 3.7844,4.601 14.9005,3.545 19.1763,1.621 4.1582,-1.872 7.8682,-5.14 9.2991,-9.42 0.384,-1.149 0.7021,-2.493 0.9819,-4.134 0.1453,-0.852 0.0703,-1.214 -0.7354,-0.865 -0.4177,0.182 -0.8831,0.547 -1.3722,0.977 -3.5766,3.142 -9.1627,8.018 -13.6535,4.313 -1.1285,-0.931 -5.0299,-4.628 -4.4515,-6.768 0.4769,-1.765 3.3512,-2.471 6.8541,-2.569 1.565,-0.043 3.1811,0.008 3.6337,0.264 1.1698,0.663 1.5598,1.58 2.2335,1.351 0.4535,-0.154 1.2049,-1.045 1.5167,-1.799 0.6071,-1.468 -0.3654,-2.995 -1.9297,-4.208 -5.061,-3.926 -10.3769,-2.178 -14.5359,2.592 -2.6674,3.059 -4.0643,7.315 -1.394,12.069 0.2628,0.374 0.56,0.76 0.84,1.103 0.1235,0.152 0.2007,0.242 0.2007,0.242 0,0 -0.599,0.036 -1.105,0 -0.9575,-0.068 -2.1755,-0.792 -3.3086,-1.682 -4.2638,-3.348 -3.8188,-4.722 -4.7521,-10.376 -0.311,-1.885 -0.5783,-3.408 -0.7689,-3.501 -0.138,-0.067 -0.2917,-0.101 -0.4432,-0.106 -0.2041,-0.008 -0.2584,0.064 -0.5428,0.714 -0.8562,1.959 -1.4711,4.394 -1.2144,6.039 0.0027,0.017 0.0055,0.034 0.0084,0.052 0.1592,0.958 3.0263,8.049 0.0541,8.049 z m -57.6987003,-8.167 c -0.765,-0.497 -2.4759,-0.08 -3.4906,-0.203 -1.5092,-0.183 -2.3918,-2.574 -2.1616,-4.431 0.5032,-4.06 5.4325,-9.424 7.416,-11.616 0.8918,-0.986 0.9755,-1.15 1.0863,-2.084 0.0967,-0.815 0.0407,-1.062 -0.9436,-0.536 -0.3588,0.193 -0.7771,0.516 -1.2248,0.925 -4.3229,3.948 -9.2792,12.146 -7.1251,19.118 0.065,0.211 0.1371,0.419 0.2167,0.625 0.8019,2.074 2.0297,2.26 4.5269,2.702 1.4764,0.261 1.4312,0.092 1.7924,-2.378 0.1244,-0.85 0.1442,-1.969 -0.0926,-2.122 z m 72.7708003,-25.292 -2.3075,0 c -0.5696,0 -0.6807,-0.006 -1.1113,-0.061 -1.4976,-0.191 -1.9816,-1.189 -2.1879,-2.767 -0.1384,-1.058 0.1472,-1.93 0.6896,-3.163 0.0974,-0.221 2.3499,-4.742 1.6308,-5.42 -0.2337,-0.22 -0.6927,0.226 -1.0547,0.745 -1.4389,2.063 -3.1077,7.987 -2.9532,10.071 0.1616,2.18 0.7302,3.244 1.8985,3.944 1.1669,0.699 5.0491,1.929 6.2208,0.127 1.572,-2.416 0.7154,-3.476 -0.8251,-3.476 z m -66.2513,18.697 c -0.0627,-0.724 0.1726,-1.423 0.5747,-2.078 2.4418,-3.971 17.2056,-14.392 20.3409,-17.256 0.4452,-0.406 0.9083,-0.709 1.1833,-0.354 0.1546,0.2 0.0909,0.658 0,1.081 -0.2058,0.957 -0.5507,1.727 -0.8043,2.972 -0.4017,1.973 -0.5745,5.135 -0.5745,5.135 0,0 0.1556,-0.026 0.2298,0 0.073,0.026 0.0672,0.104 0.0893,0.165 0.0572,0.159 0.3093,0.207 0.4622,0.105 0.1647,-0.11 0.2146,-0.393 0.2759,-0.614 0.0826,-0.299 0.1045,-0.411 0.2187,-1.129 0.0226,-0.142 0.0472,-0.3 0.0741,-0.472 2.2013,-14.09 3.2841,-3.626 7.0741,-13.536 0.5575,-1.457 1.2126,-3.598 0.9974,-3.976 -0.3907,-0.687 -1.7826,0.444 -3.0228,1.654 -3.7174,3.627 -18.8459,13.278 -25.5075,20.989 -1.9521,2.26 -3.5247,4.93 -3.3229,7.734 0.1758,2.441 2.6568,6.504 5.1255,6.283 0.1295,-0.012 0.2442,-0.043 0.3405,-0.094 4.2752,-1.882 -3.9464,-8.827 -3.7544,-6.609 z"/>
</svg>