<?xml version="1.0" encoding="UTF-8" standalone="no"?>
<!-- Created with sK1/UniConvertor (http://sk1project.org/) -->

<svg
   xmlns:dc="http://purl.org/dc/elements/1.1/"
   xmlns:cc="http://creativecommons.org/ns#"
   xmlns:rdf="http://www.w3.org/1999/02/22-rdf-syntax-ns#"
   xmlns:svg="http://www.w3.org/2000/svg"
   xmlns="http://www.w3.org/2000/svg"
   xmlns:sodipodi="http://sodipodi.sourceforge.net/DTD/sodipodi-0.dtd"
   xmlns:inkscape="http://www.inkscape.org/namespaces/inkscape"
   width="595.276pt"
   height="841.89pt"
   viewBox="0 0 595.276 841.89"
   fill-rule="evenodd"
   id="svg2"
   version="1.1"
   inkscape:version="0.48.0 r9654"
   sodipodi:docname="ismail.svg">
  <metadata
     id="metadata12">
    <rdf:RDF>
      <cc:Work
         rdf:about="">
        <dc:format>image/svg+xml</dc:format>
        <dc:type
           rdf:resource="http://purl.org/dc/dcmitype/StillImage" />
      </cc:Work>
    </rdf:RDF>
  </metadata>
  <defs
     id="defs10" />
  <sodipodi:namedview
     pagecolor="#ffffff"
     bordercolor="#666666"
     borderopacity="1"
     objecttolerance="10"
     gridtolerance="10"
     guidetolerance="10"
     inkscape:pageopacity="0"
     inkscape:pageshadow="2"
     inkscape:window-width="640"
     inkscape:window-height="480"
     id="namedview8"
     showgrid="false"
     inkscape:zoom="0.24801339"
     inkscape:cx="-109.78134"
     inkscape:cy="526.18127"
     inkscape:window-x="0"
     inkscape:window-y="0"
     inkscape:window-maximized="0"
     inkscape:current-layer="svg2" />
  <g
     id="g4"
     transform="translate(-3.2309106e-5,-337.89008)">
    <path
       style="fill:#000000;stroke:none"
       d="m 98.7624,352.262 c 0,0 0.0718,0.009 0.2479,0.031 3.2867,2.392 3.4407,2.228 3.2097,0.913 -3.9989,-10.776 -2.045,-18.233 -5.4088,-14.21 -0.8729,0.777 -1.8833,1.699 -2.5155,2.348 -2.0781,2.134 -0.3741,4.042 0.4138,10.216 0.8899,6.973 0.2133,14.655 0.7406,20.919 0.4627,5.498 1.863,10.818 1.9419,17.926 0.0454,4.093 -0.248,9.127 -0.248,9.127 0,0 0.549,0.1 0.9771,-0.018 1.7309,-0.477 3.2769,-8.527 3.3359,-9.547 0.308,-5.323 -2.6946,-37.705 -2.6946,-37.705 z M 85.5055,409.37 c -0.1643,0.41 -0.2073,1.348 0.0309,1.767 0.2292,0.403 0.8985,0.284 1.6285,-0.028 2.3982,-1.025 5.8847,-3.364 8.8821,-4.431 2.9849,-1.064 4.69,-1.511 5.614,-5.026 0.117,-0.447 0.164,-0.858 -0.017,-0.977 -0.166,-0.109 -0.522,0.027 -0.911,0.204 -2.8429,1.288 -7.9707,4.829 -10.8,5.498 -2.1604,0.511 -3.4354,0.517 -4.4275,2.993 z m -4.1213,-25.019 c -0.6517,-1.184 -1.2812,-2.732 -2.4958,-1.308 -0.5001,0.586 -1.1247,1.442 -1.9458,2.384 -2.2271,2.554 -8.1632,3.02 -10.3853,-0.023 -0.9449,-1.293 -1.2326,-3.354 -2.1718,-4.034 -1.3316,-0.965 -6.87,0.99 -9.0561,2.398 -2.8035,1.805 -3.5663,3.716 -5.5772,7.733 -0.8114,1.62 -1.9558,2.477 -2.066,0.106 -0.0632,-1.36 -0.9628,-20.722 -0.9628,-20.722 -0.051,-1.098 -0.047,-1.258 0.0404,-1.605 0.3733,-1.48 3.2117,-3.579 3.9745,-3.555 0.8607,0.028 2.1809,1.151 3.4926,1.772 2.4029,1.137 6.1448,1.491 8.0859,1.284 6.8333,-0.728 15.8317,-3.729 18.8778,-8.067 1.1924,-1.698 3.3314,-6.558 3.7213,-8.454 0.1987,-0.967 0.0427,-1.377 -0.9942,-0.96 -1.1942,0.479 -2.9615,2.472 -4.6551,3.95 -3.5479,3.096 -8.5613,5.157 -11.0633,4.062 -0.596,-0.261 -5.146,-4.457 -5.6822,-6.824 -0.0651,-0.288 -0.0968,-0.604 -0.0676,-0.906 0.0395,-0.409 0.1495,-0.516 1.1002,-1.071 0.3321,-0.194 0.8322,-0.474 1.4251,-0.79 3.409,-1.821 5.0059,-2.658 8.9049,-2.726 0.2166,-0.004 0.8764,-0.015 1.5737,-0.027 1.3398,-0.024 4.8623,1.989 1.1802,-2.525 -1.1964,-1.065 -3.3317,-2.205 -4.1195,-2.515 -3.3952,-1.334 -6.8053,-0.323 -9.2886,1.835 -4.2505,3.694 -4.664,9.496 -2.8347,14.477 0.5195,1.414 0.2534,2.12 -5.1898,1.331 -0.4707,-0.17 -0.9909,-0.404 -1.5654,-0.711 -0.7502,-0.958 -0.8934,-1.78 -2.5046,0.923 -0.2707,0.455 -0.5706,0.825 -1.0891,1.271 -1.2024,1.035 -3.5807,2.478 -3.5807,2.478 0,0 -0.6492,-6.041 -0.8511,-12.061 -0.1832,-5.461 0.0017,-10.906 0.0017,-10.906 0,0 -0.5921,-0.062 -0.9771,0.017 -0.5162,0.106 -0.6602,0.465 -0.8408,0.829 -0.5861,1.183 -1.5571,2.417 -2.1752,3.704 -0.4586,0.954 -0.8471,8.246 -0.6135,11.515 0.2624,3.673 0.5546,8.441 0.5546,8.441 l -3.3385,0.058 c -1.0992,0.019 -1.3295,0.015 -2.3033,-0.043 -2.4432,-0.146 -5.974,-2.03 -6.6619,-4.385 -0.1855,-0.635 -0.2213,-0.827 -0.3588,-1.919 -0.4446,-3.528 -1.1447,-8.064 -0.969,-10.619 0.0497,-0.721 0.1635,-1.32 0.2629,-2.371 0.1811,-1.916 0.3142,-5.335 0.3142,-5.335 0,0 -0.5401,-0.079 -0.9771,0.017 -0.5872,0.128 -2.3693,3.452 -2.8125,4.528 -0.4298,1.045 -0.6495,2.517 -0.7941,3.809 -0.1226,1.095 -0.1298,1.339 -0.0718,2.437 l 2.3029,43.553 c 0.058,1.098 0.0413,1.253 -0.1676,1.548 -0.1549,0.219 -0.3573,0.395 -0.5668,0.566 -3.0761,2.503 -7.58,3.576 -11.6686,3.051 -15.7106,-2.016 -6.6751,-24.287 -11.1311,-14.085 -2.6414,6.048 -4.2149,12.577 -0.107,16.931 3.9631,4.201 9.3808,5.567 15.2937,3.48 0.435,-0.153 1.0276,-0.396 1.6904,-0.695 4.5132,-2.036 9.1149,-7.566 10.0156,-12.656 0.6752,-3.816 0.704,-8.152 0.5487,-10.076 -0.1363,-1.69 -0.5143,-3.013 -0.7045,-5.364 -0.2173,-2.686 -0.1893,-6.714 -0.1893,-6.714 0,0 1.9988,1.036 4.3718,1.347 2.8823,0.379 8.9425,-0.97 8.9425,-0.97 l 1.2175,25.237 c 0.0529,1.098 0.0917,1.338 0.3879,2.402 1.0102,3.627 4.1582,7.653 6.4295,8.919 4.1563,2.318 5.5525,2.285 7.9462,-1.068 1.4558,-2.039 2.0963,-3.109 0.3629,-4.087 -3.8278,-2.161 -4.5484,-2.114 -6.3288,-5.921 -1.3205,-2.824 -1.9462,-4.637 -0.2536,-5.832 2.2459,-1.585 6.8432,-3.752 8.0687,-2.857 0.3635,0.265 0.6092,0.822 0.8388,1.467 2.0692,5.816 8.3242,6.196 12.732,2.409 0.9937,-0.854 1.7207,-1.582 1.7207,-1.582 0,0 4.3433,3.977 6.8065,5.262 1.2788,0.666 2.4868,0.744 3.4061,0.551 0.1595,-0.034 0.507,-0.291 0.9537,-0.681 3.9255,-3.428 5.0162,-4.326 4.643,-9.605 -0.0612,-0.867 -0.1643,-1.725 -0.3079,-2.535 -1.796,-10.127 -3.5406,-5.871 -4.5362,-2.068 -0.4762,1.819 -0.1793,8.898 -4.2076,4.622 -0.6093,-0.647 -0.8467,-1.204 -0.9798,-1.446 z m -2.519,-11.616 c 1.2608,-0.734 2.4674,-1.387 3.5249,-1.861 3.5588,-1.594 5.2029,-1.667 6.0244,-4.829 0.2953,-1.136 -0.0526,-1.276 -1.3198,-0.954 -1.6158,0.409 -18.1596,9.342 -19.4866,10.521 -0.6295,0.56 -1.09,1.085 -1.3091,1.937 -0.415,1.614 0.455,1.847 1.3219,1.716 0.6814,-0.104 4.1768,-2.178 6.762,-3.764 2.2372,-1.373 3.0482,-1.93 4.4823,-2.766 z M 54.8881,348.854 c 0.0752,-0.098 0.1529,-0.201 0.2337,-0.31 0.695,-0.937 1.831,-2.833 1.5716,-3.285 -0.1914,-0.333 -1.2074,0.255 -2.5675,0.632 -4.5594,1.263 -2.2963,-3.251 -1.242,-4.798 2.4537,-3.601 -1.7455,-0.908 -3.5136,2.685 -1.1041,2.244 -1.1195,6.906 2.6467,6.338 1.4191,-0.213 2.7631,-1.122 2.8711,-1.262 z M 36.207,348.805 c -1.2098,3.385 3.7104,-4.595 3.4207,-7.972 -0.2236,-2.608 -3.9719,-1.101 -6.2315,1.169 -0.1604,0.161 -0.3226,0.324 -0.4869,0.487 -0.202,0.201 -0.3904,0.379 -0.5492,0.6 -0.4942,3.906 -0.7139,3.636 0.7147,2.646 0.5446,-0.377 1.7433,-1.349 2.7663,-1.859 2.2847,-0.691 1.2223,1.889 0.3659,4.929 z m -17.2417,16.004 c -0.1415,-0.939 -0.4662,-1.715 -1.2132,-1.359 -0.2668,0.127 -0.4931,0.377 -0.6818,0.698 -1.6849,4.797 -1.46,6.109 -1.0941,6.878 2.0888,2.774 -2.2266,8.607 -2.9118,10.849 -0.6965,2.279 -0.6112,4.445 1.6092,5.86 1.1558,0.737 2.9516,1.007 3.6805,0.547 1.0569,-0.667 1.9499,-3.758 1.5351,-5.052 -0.1704,-0.532 -0.5595,-0.991 -1.2438,-1.265 -0.1237,-0.05 -0.2571,-0.093 -0.3976,-0.132 -3.604,-1.001 -3.4965,-0.542 -2.4936,-1.84 0.4943,-0.639 0.9174,-1.344 1.279,-2.091 1.6598,-3.428 2.4607,-9.585 1.9321,-13.093 z m 15.719,34.59 -4.0735,4.073 5.8625,5.863 5.8624,-5.863 -4.0735,-4.073 4.0735,-4.074 -5.8624,-5.862 -5.8625,5.862 4.0735,4.074 z"
       id="path6"
       inkscape:connector-curvature="0" />
  </g>
</svg>
