<?xml version="1.0" encoding="UTF-8" standalone="no"?>
<svg>
  <path
     d="m 217.45884,15.831249 0.61125,10.758749 2.8725,52.571245 c 0,0 1.94875,-1.95375 3.1175,-3.7325 1.65626,-2.52125 1.74375,-4.69 2.24125,-7.11 0.39125,-1.897499 0.41625,-2.322499 0.25625,-4.238749 l -3.145,-37.507496 -0.29875,-6.3675 c 0.3125,0.1725 0.61125,0.3275 0.89125,0.46625 l 4.83875,2.39375 -0.92375,-2.545 c -0.105,-0.28875 -0.21625,-0.595 -0.3275,-0.9025 -1.34375,-3.697499 -2.0875,-7.353749 -2.98125,-11.144998 -0.85625,-3.62875 -1.99625,-8.46375 -1.99625,-8.46375 0,0 -0.8075,-0.0425 -1.55125,0.06375 -2.045,0.2925 -6.41125,6.806249 -6.69374,8.284999 -0.0275,0.14125 -0.0437,0.28 -0.05,0.42 -0.0125,0.305 0.0112,0.6275 0.0637,0.96 0.37376,2.38375 1.57375,4.42 3.075,6.09375 z m -57.775,-3.4775 -6.83875,6.793749 c -1.13625,1.12875 -1.29749,1.33125 -1.61499,2.02625 -0.44626,0.97375 -0.60001,2.6025 -0.38125,2.8225 0.70874,0.715 3.2125,-1.02 4.08499,-1.6625 7.63376,-5.629999 11.11125,-9.176249 12.34501,-16.466249 C 167.90635,2.1625 165.9451,0.72875 162.47259,0.255 c -5.5075,-0.75 -10.97374,0.0175 -13.11249,4.165 0.33374,15.832498 0.80374,6.778749 5.475,5.65375 5.19499,-1.250001 10.78249,-4.027501 4.84874,2.279999 z m -26.49749,70.537493 5.2275,-5.226249 -7.66875,-7.668749 -7.6675,7.668749 5.22625,5.226249 -5.22625,5.22625 7.6675,7.668749 7.66875,-7.668749 -5.2275,-5.22625 z m -6.805,-74.762493 c 0.0862,0.035 0.1725,0.0725 0.25875,0.1175 0.965,0.4975 2.7825,4.11875 3.1475,6.2725 0.49625,2.92 -0.5375,4.5575 -2.23625,8.741249 -2.34875,5.78875 -2.76,9.50625 2.365,10.223749 4.29125,0.60125 7.30499,-2.5525 8.17875,-7.412499 0.35875,-1.99625 -2.0375,-3.795 -5.24,-5.07375 -1.61,-0.64375 -1.795,-0.76875 -1.85126,-1.255 -0.16874,-1.479999 1.32,-5.587499 1.34001,-5.683749 0.51875,-2.47625 -0.49125,-9.161249 -2.6475,-12.363749 -0.52001,-0.77125 -0.78875,-1.13375 -1.0575,-1.30125 -2.7225,-1.698749 -3.485,2.49625 -3.53875,5.18 -0.0437,2.213749 -0.015,2.02875 1.28125,2.554999 z m 53.88749,54.398745 c -0.13874,0.623751 -0.34,1.975001 0,2.555 0.545,0.93125 14.0625,-9.241249 18.53125,-10.542499 3.77375,-1.1 4.985,0.28125 9.58501,-3.514999 1.65124,-1.36375 4.91499,-6.035 3.83374,-7.02875 -1.0275,-0.942499 -5.285,1.31 -7.98749,2.55625 -7.14376,3.29125 -22.01001,11.666249 -22.68501,12.779998 -0.6825,1.126251 -1.09124,2.355 -1.2775,3.195 z M 151.04759,42.357496 c 0.75001,0.39 1.54626,1.155001 3.02251,1.96875 3.83625,2.11375 17.77374,1.6725 19.04125,1.5975 10.31874,-0.61375 23.58749,-2.25375 29.64624,-9.1125 0.18,-0.204999 6.68625,-9.491248 4.9875,-10.696248 -0.355,-0.25125 -1.1375,-0.0425 -1.99,0.21625 -11.58874,3.522499 -19.66,7.317499 -28.68124,1.38125 -0.45751,-0.30125 -0.975,-0.69 -1.50126,-1.1375 -4.9675,-4.22375 -4.92124,-9.096249 2.0925,-11.439999 3.28501,-1.0975 8.71875,-2.42875 10.5275,-2.43875 4.16875,-0.0225 7.93125,0.75875 11.28875,0.82375 2.09875,0.04 3.165,-0.4125 2.26376,-2.637499 -0.27001,-0.667501 -1.08126,-1.87625 -1.98875,-3.055 -7.48626,-9.74 -13.97376,-10.14375 -23.28626,-2.577501 -2.70374,2.195 -5.31124,4.5 -6.10625,5.52875 -3.61625,4.68625 -8.09249,12.424999 -5.11124,18.531249 0.89875,1.842499 2.60875,4.472499 2.60875,4.472499 0,0 -3.45375,0.17125 -5.49751,0 -1.9525,-0.1625 -4.92999,-1.4675 -5.37749,-3.06875 -0.395,-1.414999 0.84,-3.341249 -1.18876,-2.514999 -0.57999,0.23625 -1.28625,0.745 -1.78875,1.276249 -0.51624,0.545 -0.8175,1.11625 -1.50624,1.82 -1.29126,1.32125 -3.94126,3.11375 -5.29376,3.995 l 0.03,0.28125 -15.98375,3.221249 c -1.7225,0.0925 -2.095,0.08875 -3.715,-0.02875 -5,-0.362501 -6.105,-2.787501 -8.29625,-7.53625 -0.3075,-0.66875 -0.6275,-1.355 -0.76,-2.086249 -0.1775,-0.9875 -0.1975,-1.28875 -0.1975,-3.01375 l 0,-24.293748 c 0,0 -2.9575,-0.445 -4.05125,0 -0.58375,0.23625 -0.6375,0.7275 -0.74125,1.2775 -0.3025,1.5875 -1.03375,3.677499 -1.5975,5.737499 -0.89625,3.2725 1.88125,31.523748 3.40751,60.398744 0.36749,6.9525 0.44999,14.71875 0.44999,14.71875 0,0 -8.10624,4.102499 -13.4425,6.367499 -11.352495,4.82125 -24.389985,7.35125 -37.238745,7.914999 -30.50374,1.33875 -79.58124,-20.612498 -60.9774904,-8.357499 2.785,1.83625 6.1600104,3.606249 9.9800004,6.016249 19.98375,12.6075 51.68875,13.53875 73.7125,7.21 10.96625,-3.1525 21.589985,-7.3225 25.042485,-9.709999 0.98125,-0.678751 9.2725,-20.243749 9.29,-21.923748 0.10375,-9.7725 -1.9175,-23.642499 -1.9175,-23.642499 0,0 0.7875,-0.02375 2.035,-0.0625 1.31375,-0.04 2.4925,-0.07125 3.55125,-0.09749 7.36125,-0.18 16.8425,-1.60125 23.78874,-4.84625 1.01375,-0.47375 1.34751,-0.54 1.47,-0.4775 z m -9.80499,8.02625 c -0.0437,1.774999 -0.59125,24.124997 -0.59125,24.124997 l 0.55375,12.43 c 0.0762,1.723749 0.11625,2.014999 0.40249,2.914999 0.62125,1.9625 3.89,5.69 4.15501,5.901249 3.8675,3.06625 13.01749,4.644999 18.0525,4.259999 4.56749,-0.349999 6.4575,-2.154999 7.77625,-8.067499 0.20499,-0.918749 0.36999,-1.943749 0.36999,-1.943749 l -6.61999,0 c -1.725,0 -2.06125,-0.015 -3.36626,-0.1575 -6.19874,-0.675 -10.42624,-7.221249 -11.73875,-11.983749 -0.77124,-2.792499 2.58001,-4.789999 7.02875,-6.708749 2.99,-1.29 6.43626,-1.653751 8.30626,0.106249 2.14499,2.0175 2.40375,6.87125 4.47374,8.84 1.68,1.598749 10.7425,2.95625 13.8525,1.5975 1.21751,-0.5325 2.09625,-1.165 2.86875,-1.653751 l 2.3725,-1.502499 3.3325,2.5 c 0.91751,0.688749 1.86375,1.46875 2.77626,2.1275 3.1175,2.256249 8.18624,3.751249 10.67624,0.949999 0.83251,-0.93625 1.33,-2.449999 2.14125,-3.699999 2.96626,-4.57125 4.64875,-3.60625 5.43125,-8.562499 0.13376,-0.84375 0.13875,-1.61125 0,-2.68375 -0.48374,-3.73625 -2.7175,-11.178749 -2.7175,-11.178749 0,0 -2.43374,2.1 -3.9925,3.89375 -2.42125,2.79 -3.435,5.683749 -2.875,8.052499 0.49,2.07125 1.99625,5.888749 1.99625,5.888749 0,0 -10.38499,-5.627499 -10.9425,-7.294999 -0.2775,-0.83125 0.03,-2.1125 -1.5325,-1.53375 -1.09749,0.40625 -2.28,2.41375 -2.64249,3.56 -0.12125,0.3825 -0.155,0.67125 -0.29751,0.913749 -0.39375,0.665 -7.0675,1.090001 -10.02,0.638751 -6.30125,-0.965001 -4.01,-3.141251 -8.19124,-10.224999 -1.86375,-3.1575 -6.87625,-2.795001 -11.1825,-0.957501 -3.08501,1.31625 -8.6625,5.2575 -10.54375,7.9875 -1.685,2.445 -2.91876,6.172499 -4.1175,6.1525 -0.06,0 -0.12251,-0.0925 -0.18625,-0.258751 -0.27875,-6.132499 0.6,-20.316247 0.2825,-26.719997 -0.0175,-0.378751 -0.0362,-0.751251 -0.0512,-1.1175 -0.0113,-0.26 -0.0175,-0.4875 -0.0188,-0.6875 L 146.39765,35.904997 147.07515,0 c 0,0 -1.74375,2.89375 -2.91,5.0175 -1.46376,2.664999 -2.345,5.613749 -2.49625,8.351249 -0.3625,6.558749 -0.3825,20.823749 -0.38,24.989998 l -0.0462,12.024999 z"
     style="fill:#000000;stroke:none" />
</svg>
