<?xml version="1.0" encoding="UTF-8" standalone="no"?>
<svg>
  <path
     style="fill:#000000;stroke:none"
     d="M 98.762368,14.371954 C 98.762368,14.371954 98.834168,14.380954 99.010268,14.402954 C 102.29697,16.794954 102.45097,16.630954 102.21997,15.315954 C 98.221068,4.5399537 100.17497,-2.9170463 96.811168,1.1059537 C 95.938268,1.8829537 94.927868,2.8049537 94.295668,3.4539537 C 92.217568,5.5879537 93.921568,7.4959537 94.709468,13.669954 C 95.599368,20.642954 94.922768,28.324954 95.450068,34.588954 C 95.912768,40.086954 97.313068,45.406954 97.391968,52.514954 C 97.437368,56.607954 97.143968,61.641954 97.143968,61.641954 C 97.143968,61.641954 97.692968,61.741954 98.121068,61.623954 C 99.851968,61.146954 101.39797,53.096954 101.45697,52.076954 C 101.76497,46.753954 98.762368,14.371954 98.762368,14.371954 L 98.762368,14.371954 z M 85.505468,71.479954 C 85.341168,71.889954 85.298168,72.827954 85.536368,73.246954 C 85.765568,73.649954 86.434868,73.530954 87.164868,73.218954 C 89.563068,72.193954 93.049568,69.854954 96.046968,68.787954 C 99.031868,67.723954 100.73697,67.276954 101.66097,63.761954 C 101.77797,63.314954 101.82497,62.903954 101.64397,62.784954 C 101.47797,62.675954 101.12197,62.811954 100.73297,62.988954 C 97.890068,64.276954 92.762268,67.817954 89.932968,68.486954 C 87.772568,68.997954 86.497568,69.003954 85.505468,71.479954 L 85.505468,71.479954 z M 81.384168,46.460954 C 80.732468,45.276954 80.102968,43.728954 78.888368,45.152954 C 78.388268,45.738954 77.763668,46.594954 76.942568,47.536954 C 74.715468,50.090954 68.779368,50.556954 66.557268,47.513954 C 65.612368,46.220954 65.324668,44.159954 64.385468,43.479954 C 63.053868,42.514954 57.515468,44.469954 55.329368,45.877954 C 52.525868,47.682954 51.763068,49.593954 49.752168,53.610954 C 48.940768,55.230954 47.796368,56.087954 47.686168,53.716954 C 47.622968,52.356954 46.723368,32.994954 46.723368,32.994954 C 46.672368,31.896954 46.676368,31.736954 46.763768,31.389954 C 47.137068,29.909954 49.975468,27.810954 50.738268,27.834954 C 51.598968,27.862954 52.919168,28.985954 54.230868,29.606954 C 56.633768,30.743954 60.375668,31.097954 62.316768,30.890954 C 69.150068,30.162954 78.148468,27.161954 81.194568,22.823954 C 82.386968,21.125954 84.525968,16.265954 84.915868,14.369954 C 85.114568,13.402954 84.958568,12.992954 83.921668,13.409954 C 82.727468,13.888954 80.960168,15.881954 79.266568,17.359954 C 75.718668,20.455954 70.705268,22.516954 68.203268,21.421954 C 67.607268,21.160954 63.057268,16.964954 62.521068,14.597954 C 62.455968,14.309954 62.424268,13.993954 62.453468,13.691954 C 62.492968,13.282954 62.602968,13.175954 63.553668,12.620954 C 63.885768,12.426954 64.385868,12.146954 64.978768,11.830954 C 68.387768,10.009954 69.984668,9.1729537 73.883668,9.1049537 C 74.100268,9.1009537 74.760068,9.0899537 75.457368,9.0779537 C 76.797168,9.0539537 80.319668,11.066954 76.637568,6.5529537 C 75.441168,5.4879537 73.305868,4.3479537 72.518068,4.0379537 C 69.122868,2.7039537 65.712768,3.7149537 63.229468,5.8729537 C 58.978968,9.5669537 58.565468,15.368954 60.394768,20.349954 C 60.914268,21.763954 60.648168,22.469954 55.204968,21.680954 C 54.734268,21.510954 54.214068,21.276954 53.639568,20.969954 C 52.889368,20.011954 52.746168,19.189954 51.134968,21.892954 C 50.864268,22.347954 50.564368,22.717954 50.045868,23.163954 C 48.843468,24.198954 46.465168,25.641954 46.465168,25.641954 C 46.465168,25.641954 45.815968,19.600954 45.614068,13.580954 C 45.430868,8.1199537 45.615768,2.6749537 45.615768,2.6749537 C 45.615768,2.6749537 45.023668,2.6129537 44.638668,2.6919537 C 44.122468,2.7979537 43.978468,3.1569537 43.797868,3.5209537 C 43.211768,4.7039537 42.240768,5.9379537 41.622668,7.2249537 C 41.164068,8.1789537 40.775568,15.470954 41.009168,18.739954 C 41.271568,22.412954 41.563768,27.180954 41.563768,27.180954 L 38.225268,27.238954 C 37.126068,27.257954 36.895768,27.253954 35.921968,27.195954 C 33.478768,27.049954 29.947968,25.165954 29.260068,22.810954 C 29.074568,22.175954 29.038768,21.983954 28.901268,20.891954 C 28.456668,17.363954 27.756568,12.827954 27.932268,10.272954 C 27.981968,9.5519537 28.095768,8.9529537 28.195168,7.9019537 C 28.376268,5.9859537 28.509368,2.5669537 28.509368,2.5669537 C 28.509368,2.5669537 27.969268,2.4879537 27.532268,2.5839537 C 26.945068,2.7119537 25.162968,6.0359537 24.719768,7.1119537 C 24.289968,8.1569537 24.070268,9.6289537 23.925668,10.920954 C 23.803068,12.015954 23.795868,12.259954 23.853868,13.357954 L 26.156768,56.910954 C 26.214768,58.008954 26.198068,58.163954 25.989168,58.458954 C 25.834268,58.677954 25.631868,58.853954 25.422368,59.024954 C 22.346268,61.527954 17.842368,62.600954 13.753768,62.075954 C -1.9568323,60.059954 7.0786677,37.788954 2.6226677,47.990954 C -0.018732309,54.038954 -1.5922323,60.567954 2.5156677,64.921954 C 6.4787677,69.122954 11.896468,70.488954 17.809368,68.401954 C 18.244368,68.248954 18.836968,68.005954 19.499768,67.706954 C 24.012968,65.670954 28.614668,60.140954 29.515368,55.050954 C 30.190568,51.234954 30.219368,46.898954 30.064068,44.974954 C 29.927768,43.284954 29.549768,41.961954 29.359568,39.610954 C 29.142268,36.924954 29.170268,32.896954 29.170268,32.896954 C 29.170268,32.896954 31.169068,33.932954 33.542068,34.243954 C 36.424368,34.622954 42.484568,33.273954 42.484568,33.273954 L 43.702068,58.510954 C 43.754968,59.608954 43.793768,59.848954 44.089968,60.912954 C 45.100168,64.539954 48.248168,68.565954 50.519468,69.831954 C 54.675768,72.149954 56.071968,72.116954 58.465668,68.763954 C 59.921468,66.724954 60.561968,65.654954 58.828568,64.676954 C 55.000768,62.515954 54.280168,62.562954 52.499768,58.755954 C 51.179268,55.931954 50.553568,54.118954 52.246168,52.923954 C 54.492068,51.338954 59.089368,49.171954 60.314868,50.066954 C 60.678368,50.331954 60.924068,50.888954 61.153668,51.533954 C 63.222868,57.349954 69.477868,57.729954 73.885668,53.942954 C 74.879368,53.088954 75.606368,52.360954 75.606368,52.360954 C 75.606368,52.360954 79.949668,56.337954 82.412868,57.622954 C 83.691668,58.288954 84.899668,58.366954 85.818968,58.173954 C 85.978468,58.139954 86.325968,57.882954 86.772668,57.492954 C 90.698168,54.064954 91.788868,53.166954 91.415668,47.887954 C 91.354468,47.020954 91.251368,46.162954 91.107768,45.352954 C 89.311768,35.225954 87.567168,39.481954 86.571568,43.284954 C 86.095368,45.103954 86.392268,52.182954 82.363968,47.906954 C 81.754668,47.259954 81.517268,46.702954 81.384168,46.460954 L 81.384168,46.460954 z M 78.865168,34.844954 C 80.125968,34.110954 81.332568,33.457954 82.390068,32.983954 C 85.948868,31.389954 87.592968,31.316954 88.414468,28.154954 C 88.709768,27.018954 88.361868,26.878954 87.094668,27.200954 C 85.478868,27.609954 68.935068,36.542954 67.608068,37.721954 C 66.978568,38.281954 66.518068,38.806954 66.298968,39.658954 C 65.883968,41.272954 66.753968,41.505954 67.620868,41.374954 C 68.302268,41.270954 71.797668,39.196954 74.382868,37.610954 C 76.620068,36.237954 77.431068,35.680954 78.865168,34.844954 z M 54.888068,10.963954 C 54.963268,10.865954 55.040968,10.762954 55.121768,10.653954 C 55.816768,9.7169537 56.952768,7.8209537 56.693368,7.3689537 C 56.501968,7.0359537 55.485968,7.6239537 54.125868,8.0009537 C 49.566468,9.2639537 51.829568,4.7499537 52.883868,3.2029537 C 55.337568,-0.39804628 51.138368,2.2949537 49.370268,5.8879537 C 48.266168,8.1319537 48.250768,12.793954 52.016968,12.225954 C 53.436068,12.012954 54.780068,11.103954 54.888068,10.963954 z M 36.206968,10.914954 C 34.997168,14.299954 39.917368,6.3199537 39.627668,2.9429537 C 39.404068,0.33495372 35.655768,1.8419537 33.396168,4.1119537 C 33.235768,4.2729537 33.073568,4.4359537 32.909268,4.5989537 C 32.707268,4.7999537 32.518868,4.9779537 32.360068,5.1989537 C 31.865868,9.1049537 31.646168,8.8349537 33.074768,7.8449537 C 33.619368,7.4679537 34.818068,6.4959537 35.841068,5.9859537 C 38.125768,5.2949537 37.063368,7.8749537 36.206968,10.914954 L 36.206968,10.914954 z M 18.965268,26.918954 C 18.823768,25.979954 18.499068,25.203954 17.752068,25.559954 C 17.485268,25.686954 17.258968,25.936954 17.070268,26.257954 C 15.385368,31.054954 15.610268,32.366954 15.976168,33.135954 C 18.064968,35.909954 13.749568,41.742954 13.064368,43.984954 C 12.367868,46.263954 12.453168,48.429954 14.673568,49.844954 C 15.829368,50.581954 17.625168,50.851954 18.354068,50.391954 C 19.410968,49.724954 20.303968,46.633954 19.889168,45.339954 C 19.718768,44.807954 19.329668,44.348954 18.645368,44.074954 C 18.521668,44.024954 18.388268,43.981954 18.247768,43.942954 C 14.643768,42.941954 14.751268,43.400954 15.754168,42.102954 C 16.248468,41.463954 16.671568,40.758954 17.033168,40.011954 C 18.692968,36.583954 19.493868,30.426954 18.965268,26.918954 z M 34.684268,61.508954 L 30.610768,65.581954 L 36.473268,71.444954 L 42.335668,65.581954 L 38.262168,61.508954 L 42.335668,57.434954 L 36.473268,51.572954 L 30.610768,57.434954 L 34.684268,61.508954 z" />
</svg>
