<?xml version="1.0" encoding="UTF-8" standalone="yes"?>
<svg xmlns="http://www.w3.org/2000/svg" xmlns:xlink="http://www.w3.org/1999/xlink"
  width="595.276pt" height="841.89pt" viewBox="0 0 595.276 841.89">
  <path
    style="stroke:none; fill:#000000"
    d="m 93.127854,8.8179639 -4.882,4.8490001 c -0.811,0.806 -0.927,0.95 -1.153,1.447 -0.318,0.695 -0.428,1.857 -0.272,2.014 0.506,0.511 2.293,-0.728 2.915,-1.187 5.449,-4.018 7.931,-6.5490001 8.813,-11.7530001 0.447,-2.645 -0.953,-3.668 -3.431,-4.006 -3.932,-0.535 -7.833,0.012 -9.36,2.972 0.238,11.3010001 0.574,4.839 3.908,4.037 3.709,-0.893 7.697,-2.875 3.462,1.627 z m -81.804,7.2390001 -0.453,-8.6510001 c -0.067,-1.284 -0.094,-1.507 -0.265,-2.234 -0.525,-2.228 -1.9349997,-3.449 -3.4109997,-4.237 -1.875,-1.001 -3.307,-1.374 -5.24,0.037 -1.58999996,1.16 -1.73999996,5.359 -1.11499996,6.016 0.46599996,0.49 1.70199996,0.446 3.19699996,0.094 3.735,-0.877 4.109,-0.675 5.082,3.2750001 0.462,1.877 0.517,3.635 0.289,5.523 -0.482,4.009 -1.617,5.959 0.6059997,8.312 0.926,0.979 1.892,1.127 4.003,0.693 1.5,-0.309 1.798,-1.006 2.426,-3.083 0.443,-1.462 0.793,-2.771 0.68,-4.229 -0.225,-2.892 -3.352,-8.3290001 0.417,-9.6790001 0.695,-0.249 1.599,-0.087 2.379,0.083 1.051,0.229 1.229,0.126 1.783,-1.038 0.456,-0.956 0.982,-1.837 1.272,-2.866 1.088,-3.865 -0.578,-4.955 -3.918,-3.372 -3.833,1.815 -5.554,9.5960001 -4.735,14.8120001 0.25,2.15 0.525,4.086 0.525,4.086 0,0 -0.229,-0.003 -0.502,-0.03 -1.073,-0.106 -2.916,-1.53 -3.02,-3.512 z m 108.843996,45.327 -5.838,5.838 5.837,5.837 5.838,-5.838 -5.837,-5.837 z m -87.107996,-43.664 -5.838,5.838 5.837,5.837 5.839,-5.838 -5.838,-5.837 z m 39.037,50.817 4.519,4.522 5.833,-5.837 -5.833,-5.837 -4.519,4.522 -4.52,-4.522 -5.833,5.837 5.833,5.837 4.52,-4.522 z m -38.47,7.561 4.519,4.522 5.834,-5.837 -5.834,-5.837 -4.519,4.522 -4.519,-4.522 -5.834,5.837 5.833,5.837 4.52,-4.522 z m -12.162,-39.33 c -1.314,1.038 -3.938,2.563 -5.622,3.641 -0.691,0.442 -1.021,0.734 -1.285,1.553 -0.224,0.693 -0.266,1.539 0.03,1.749 0.642,0.455 6.224,-3.33 6.431,-3.484 1.599,-1.188 2.43,-2.513 3.041,-5.131 1.086,-4.656 -3.292,-5.843 -7.864,-4.534 -2.712,0.776 -3.432,2.019 -4.29,5.172 -0.388,1.428 -0.045,1.277 2.005,0.865 1.343,-0.27 2.916,-0.528 3.504,-1.19 1.032,-1.161 1.031,-1.474 3.146,-0.331 0.395,0.214 0.71,0.43 0.89,0.903 0.109,0.286 0.168,0.665 0.014,0.787 z m 33.141,7.759 -3.495,0.061 c -1.18,0.02 -1.393,-0.003 -2.132,-0.238 -2.056,-0.654 -2.715,-1.627 -2.226,-2.814 0.47,-1.141 1.291,-2.116 1.484,-3.24 0.278,-1.62 -2.064,-5.511 -2.783,-9.137 -0.57,-2.869 -0.239,-5.221 -1.838,-3.906 -1.158,0.952 -3.454,4.84 -3.81,6.113 -0.217,0.778 -0.191,1.466 0.045,2.571 0.615,2.886 2.653,8.614 2.653,8.614 l -10.819,0.189 c -1.18,0.021 -1.437,0.06 -2.572,0.393 -8.476,2.485 -10.396,4.523 -12.052,13.246 -0.813,4.287 3.053,5.436 7.936,4.571 0.719,-0.128 1.324,-0.301 2.2,-0.199 1.682,0.197 4.363,1.411 4.363,1.411 0,0 -6.853,2.609 -10.233,3.065 -4.242,0.573 -12.8569997,-1.874 -15.3509997,-4.98 -3.026,-3.767 -2.128,-5.875 -0.843,-10.701 0.191,-0.72 0.038,-0.783 -0.712,-0.684 -0.314,0.042 -0.412,0.162 -0.976,1.201 -2.70899996,4.993 -4.606,10.712 -2.62499996,15.522 1.23199996,2.992 3.86699996,4.303 6.97899996,5.542 7.2769997,2.897 11.2299997,2.32 18.2619997,-0.296 3.831,-1.426 5.177,-2.403 6.909,-5.077 1.091,-1.683 4.386,-7.224 3.771,-9.543 -0.746,-2.812 -5.064,-4.033 -7.852,-3.8 -1.854,0.155 -3.766,1.026 -4.452,0.515 -0.293,-0.217 -0.362,-0.685 -0.019,-1.049 0.423,-0.448 1.472,-0.739 2.271,-0.923 1.079,-0.247 1.33,-0.282 2.509,-0.343 l 9.921,-0.519 c 1.179,-0.062 1.365,-0.101 1.859,-0.39 l 1.584,-0.775 0.74,1.102 c 0.138,0.206 0.29,0.444 0.475,0.708 2.262,3.239 11.123,0.167 11.723,-0.305 0.831,-0.654 3.219,-5.267 3.516,-6.791 0.371,-1.906 0.391,-8.343 -1.473,-10.975 -0.787,-1.111 -2.229,-0.652 -3.053,0.491 -1.032,1.43 -2.618,3.939 -2.605,4.837 0.011,0.759 0.712,1.049 1.423,2.619 0.645,1.428 1.298,3.914 1.298,3.914 z m 2.268,-35.5330001 c -0.103,0.425 -0.147,1.3180001 0.03,1.7490001 0.179,0.434 0.784,0.354 1.461,-0.026 1.348,-0.7550001 5.736,-5.2510001 6.514,-6.6740001 0.421,-0.77 1.448,-3.493 1.024,-3.954 -0.607,-0.662 -4.291,2.573 -5.312,3.621 -1.102,1.132 -1.915,2.182 -2.869,3.662 -0.36,0.558 -0.74,1.177 -0.848,1.622 z m 15.53,36.7450001 -0.291,0.005 c -0.131,0.002 -0.169,-0.127 -0.375,-1.291 -0.436,-2.468 -0.749,-4.885 -1.694,-7.318 -1.07,-2.756 -15.674,-20.564 -17.69,-24.636 -0.073,-0.148 -0.144,-0.296 -0.176,-0.456 -0.043,-0.217 0.028,-0.285 0.711,-0.676 l 1.521,-0.871 c 0,0 -4.456,-3.7910001 -7.221,-6.0870001 -1.741,-1.447 -3.041,-2.599 -3.743,-1.466 -2.163,3.497 -2.014,8.8220001 0.41,10.9280001 0.62,0.539 1.37,0.859 1.954,1.425 0.531,0.513 6.613,7.366 7.194,8.105 0.769,0.979 1.539,2.004 2.223,2.955 5.078,7.069 12.837,17.383 13.453,19.011 1.532,4.046 1.232,5.131 -3.138,8.146 -0.214,0.148 -0.423,0.292 -0.626,0.432 -13.47,9.317 -20.169,10.7 -27.047,13.421 -0.808,0.432 -1.32,0.746 -1.375,0.869 -0.078,0.174 -0.112,0.344 0.008,0.437 0.194,0.151 0.793,0.097 1.399,-0.024 3.658,-0.73 4.469,-1.954 6.96,-1.231 3.311,0.962 3.668,1.906 5.938,1.443 7.008,-1.431 18.047,-10.552 20.862,-14.923 0.364,-0.566 0.777,-1.262 1.2,-2.041 3.323,-6.111 4.102,-11.306 3.687,-17.633 -0.256,-3.903 -0.691,-8.837 -1.051,-11.528 l -1.249,-9.33 1.99,-0.079 2.093,-0.083 -0.387,-0.929 c -0.644,-1.902 -2.971,-4.6500001 -4.312,-9.0230001 -0.474,-1.544 -0.825,-3.291000004905 -0.825,-3.291000004905 0,0 -4.096,4.679000004905 -5.281,7.250000004905 -0.474,1.03 -0.428,2.172 -0.112,3.1480001 0.708,2.189 1.922,5.389 2.799,10.002 1.359,7.15 2.191,25.339 2.191,25.339 z m 31.919996,-0.556 8.019,-0.14 c 1.18,-0.021 1.388,0.035 2.077,0.556 2.297,1.737 1.36,2.24 -0.888,3.505 -1.434,0.807 -2.539,1.339 -4.649,1.685 -2.339,0.384 -5.913,0.541 -5.913,0.541 0,0 -2.823,-4.957 -4.794996,-7.571 -2.696,-3.576 -7.598,-5.764 -10.317,-2.225 -2.027,2.638 -3.331,9.689 -3.072,11.95 0.51,4.439 2.561,6.745 6.915,6.644 5.202,-0.12 7.345,-2.139 8.532996,1.309 0.259,0.752 0.167,1.342 -0.2,1.886 -0.894996,1.322 -9.628996,6.606 -10.997996,7.253 -0.974,0.46 -2.16,0.979 -3.704,1.619 -5.742,2.377 -12.024,4.17 -18.099,6.069 -0.154,0.048 -0.29,0.092 -0.409,0.131 -2.822,0.94 -1.381,1.172 0.411,1.178 2.082,0.007 3.21,-0.344 4.875,0.124 0.924,0.259 1.614,0.618 2.397,0.791 1.296,0.286 3.106,0.084 5.074,-0.373 5.598,-1.3 14.778,-4.871 18.653,-9.399 0.071,-0.083 0.141,-0.167 0.209,-0.251 1.721996,-2.124 3.754996,-8.368 3.871996,-8.949 0.052,-0.262 0.095,-0.541 0.125,-0.841 0.117,-1.152 0.241,-1.283 1.241,-1.308 0.741,-0.019 1.436,-0.21 2.167,-0.446 4.647,-1.503 12.254,-4.836 14.596,-4.835 0.507,0.001 0.515,0.044 0.833,0.226 0.79,0.452 4.357,0.209 6.537,0.116 1.181,-0.05 1.329,-0.162 1.483,-1.117 0.114,-0.709 0.365,-1.258 0.72,-2.016 0.913,-1.945 2.516,-5.259 2.516,-5.259 0,0 -3.462,-0.304 -5.465,-0.813 -1.618,-0.411 -3.276,-1.461 -4.536,-2.64 -4.232,-3.96 -4.031,-5.695 -6.695,-6.349 -1.663,-0.408 -5.798,-0.336 -7.005,0.122 -1.529,0.581 -4.378,3.711 -4.539,7.078 -0.039,0.821 0.031,1.749 0.031,1.749 z m -10.395996,5.838 0.009,0.466 c 0,0 -1.691,0.072 -2.68,-0.197 -0.927,-0.252 -2.967,-1.9 -2.184,-2.779 0.744,-0.836 3.631,0.833 4.323,1.651 0.475,0.563 0.529,0.649 0.532,0.859 z m -6.166,-18.48 c 1.845,-0.324 3.708,-0.577 5.367,-1.166 2.544,-0.905 13.299996,-7.64 14.623996,-8.687 2.037,-1.609 4.34,-3.699 6.063,-5.315 l 3.413,-3.201 3.053,2.424 c 0.871,0.691 2.079,2.211 2.385,3.11 0.524,1.534 0.655,5.214 2.001,4.339 0.904,-0.588 1.255,-4.148 1.04,-5.53 -0.519,-3.338 -1.821,-3.947 -4.605,-6.735 -0.182,-0.183 -0.357,-0.367 -0.539,-0.539 l -1.121,-1.062 0.751,-2.7890001 c 0.695,-2.579 0.68,-4.618 -0.697,-6.437 -0.724,-0.957 -1.164,-1.103 -2.42,-0.832 -4.347,0.937 -4.768,2.605 -5.557,7.358 -0.139,0.834 -0.229,1.451 0.199,2.446 0.58,1.3440001 2.107,3.3770001 2.107,3.3770001 0,0 -1.687,1.837 -3.025,3.112 -4.369,4.16 -20.622996,12.993 -26.031996,14.547 -0.76,0.218 -1.068,0.326 -1.187,0.492 0.822,1.436 5.12,0.923 4.18,1.088 z m 26.358996,-26.3900001 -0.021,-1.167 3.936,-0.069 c 0,0 0.616,1.795 0.486,2.791 -0.047,0.355 -0.196,0.684 -0.408,0.956 l -1.2,1.5390001 -1.521,-1.5050001 c -0.447,-0.443 -0.903,-1.03 -1.086,-1.504 -0.159,-0.413 -0.177,-0.517 -0.186,-1.041 z"/>
</svg>