<?xml version="1.0" encoding="UTF-8" standalone="no"?>
<svg>
  <path
     style="stroke:none; fill:#000000"
     d="m 55.983816,20.697519 -0.175,-4.08873 c -0.0713,-1.65375 -0.0475,-1.94999 0.23375,-2.96249 0.2075,-0.75125 0.4275,-1.5725 0.985,-2.10249 1.3575,-1.29 4.71748,-0.84375 6.27623,-1.9062498 2.24374,-1.52999 2.24499,-6.78623 0.51875,-8.91621997 -1.83125,-2.25874003 -5.53248,1.32874997 -7.04873,3.38123997 -0.93125,1.26125 -1.81374,2.70499 -2.20999,4.39249 -0.185,0.78124 -0.28625,1.6687398 -0.43,2.4449898 l -0.70375,3.80373 -2.32624,-3.02874 c -3.18249,-4.2887298 -2.21249,-5.5637298 -6.88998,-6.7299698 -1.56624,-0.39125 -4.96498,-0.245 -5.61873,1.56124 -0.51125,1.4125 0.68875,4.8474898 1.44,5.6637298 0.57875,0.6275 2.91999,2.18375 3.88623,2.28 1.58,0.15625 4.80874,-0.82875 4.80874,-0.82875 0,0 2.60499,3.83749 4.19623,5.63998 0.695,0.78625 1.26875,1.41874 2.16,1.43624 0.3675,0.007 0.89749,-0.04 0.89749,-0.04 z m -37.64612,26.02617 -6.08998,6.18998 c -1.0125,1.02874 -1.15625,1.21374 -1.43874,1.84749 -0.39625,0.88625 -0.53375,2.36999 -0.33875,2.57124 0.62999,0.65125 2.85999,-0.92874 3.63748,-1.51499 6.79748,-5.12999 9.89497,-8.36122 10.99372,-15.0037 0.55875,-3.37624 -1.18875,-4.68249 -4.27999,-5.11374 -4.90498,-0.68374 -9.77247,0.0163 -11.6787095,3.79374 0.2975,14.4262 0.71625,6.17748 4.8762295,5.15248 4.62749,-1.13874 9.60247,-3.66998 4.31874,2.0775 z m 42.12736,31.50489 -7.31998,7.48873 7.32623,7.49622 7.31997,-7.48872 -7.32622,-7.49623 z m -19.13369,-48.90108 c -0.465,0.75374 -0.83124,1.50374 -1.08374,2.24624 -1.1175,3.27124 -0.90875,6.93748 1.31749,10.09121 0.095,0.135 0.1825,0.25625 0.26125,0.36625 -1.005,-1.39624 2.72499,4.47624 2.50999,-1.48999 -0.0512,-1.425 -0.20875,-3.21499 -0.66624,-3.66499 -0.26625,-0.26 -0.6325,-0.0712 -0.86125,-0.2125 -1.03375,-0.635 0.72375,-3.25249 1.56124,-4.25248 0.5575,-0.66625 1.18125,-1.34375 1.86,-2.02875 6.07373,-6.12748 16.93869,-13.1687 24.97991,-16.04119 1.6,-0.5725 3.09124,-1.02 4.42999,-1.32 0.99249,-0.2225 1.98374,-0.40125 2.17124,-0.0575 0.0937,0.17 -0.0113,0.47 -0.17125,0.81 -0.37625,0.795 -0.97875,1.75874 -1.64624,2.79124 -13.86621,21.42243 8.00497,-8.3074698 14.2112,-9.1424698 0.5675,-0.28625 1.10125,-0.5175 1.57374,-0.67 2.415,-0.7775 5.02999,-0.9425 5.34749,-3.31124 0.045,-0.3325 0.0512,-0.74749 0.04,-1.14874 -0.0975,-3.60124 -5.43499,-2.26124997 -9.68747,-0.69375 -10.26747,3.78499 -19.02869,8.09122 -25.64617,11.7637098 -21.50367,11.93496 -19.50993,15.7262 -20.50118,15.96495 z m 28.71241,18.75493 0.69749,-0.0125 c 0.3125,-0.006 0.3975,-0.20125 0.84,-1.95124 2.54874,-10.06872 3.01499,-15.6287 -3.25624,-22.08618 -1.03249,-1.06374 -2.23499,-1.95499 -3.00999,-1.00249 -0.52625,0.64749 -1.06249,5.21123 -0.82374,6.20873 0.41999,1.74249 1.66249,2.30874 3.09749,3.49248 3.24123,2.6725 4.05248,4.67874 3.64123,8.23998 -0.31625,2.73249 -1.18624,7.11122 -1.18624,7.11122 z M 13.575216,0.19258923 c -0.46375,-0.295 -0.925,-0.28 -1.34375,0.24875 -0.855,1.07749997 -1.57249,3.27623997 -1.41624,4.09123997 0.23249,1.20874 2.10749,2.70249 3.17748,4.24123 1.75125,2.5162498 2.43375,8.8624798 2.17125,12.2587098 -0.11375,1.47625 -0.3775,2.99874 -0.62875,4.48874 -0.0937,0.55125 -0.18625,1.09875 0,1.31999 0.24,0.285 0.59,0.025 0.82125,-0.42249 0.0937,-0.18125 0.135,-0.295 0.2925,-0.8475 2.02874,-7.16873 4.31748,-20.6799298 -3.07374,-25.37866977 z M 29.255156,52.736169 c -6.91247,4.12123 -15.65994,10.41121 -18.36994,17.13494 -0.8887395,2.20624 -1.1049895,2.46249 -2.1337395,-2.93124 -1.91874,-10.06247 -2.10999,-32.81989 -2.38999,-38.94862 -0.53375,-11.74246 -1.05875,-25.4724098 -1.05875,-25.4586598 0.0337,-1.3 0.0662,-2.25499997 0.0662,-2.25499997 l -0.90999,0 c -0.41,0 -0.515,0.0762 -1.05375,0.76749997 -0.37375,0.4775 -0.70375,0.915 -0.995,1.32625 -3.14874004,4.43498 -2.39874004,12.7186998 -2.15374004,17.9649398 0.91500004,19.67618 4.63123004,55.45731 4.54749004,55.01231 2.18249,11.54621 5.3249795,15.8737 17.9649395,19.13869 0.50124,0.13 1.01499,0.26 1.54124,0.39375 0.46125,0.11625 0.84625,0.21125 1.13625,0.0975 0.47624,-0.1875 0.98124,-1.46375 1.45749,-2.95249 0.39625,-1.24125 1.7325,-5.25249 1.04375,-5.45999 -0.47,-0.14249 -1.02375,-0.28874 -1.5975,-0.43499 -7.00497,-1.78375 -13.5212,-5.44624 -11.16871,-15.0237 1.1325,-4.60749 7.63497,-3.43624 13.02996,-11.55996 0.235,-0.355 0.4775,-0.70875 0.71624,-1.03 0,0 0.57875,-1.14625 0.57875,-1.14625 0.0587,1.075 0.10125,1.8625 0.1325,2.43999 0.3175,5.82373 0.42625,10.11872 7.42748,13.33246 1.96874,0.90375 4.15998,1.61999 6.09248,2.10499 3.96498,0.99375 13.78495,0.75125 17.68119,-0.77999 1.86749,-0.735 3.23499,-1.9025 5.99248,-2.4525 1.50874,-0.3 3.43374,-0.41625 5.12873,-0.45125 l 12.20496,-0.24999 2.13249,0.175 c 1.10875,0.09 1.9475,0.20624 1.88375,0.20874 1.84999,-0.0813 3.28374,-0.145 3.28374,-0.145 0,0 3.68748,-5.35998 4.14998,-8.74747 0.1,-0.73124 0.0987,-1.43874 0.0987,-1.43874 0,0 -6.11123,-0.63375 -10.45621,-1.72625 -2.92624,-0.73624 -13.19246,-5.75123 -16.22995,-9.01122 -1.38875,-1.48999 -2.40124,-3.41623 -3.88499,-4.47498 -3.18249,-2.27249 -8.67747,-2.18124 -12.29746,-1.64499 -4.22498,0.62624 -5.03748,1.37999 -6.21247,4.30498 -3.59999,8.96622 -2.94749,9.72747 5.14498,9.90872 1.06374,0.0237 1.27999,0.0287 1.27999,0.0287 1.6475,0.0375 1.90125,-0.009 2.53875,-0.4625 0.47249,-0.33625 0.92624,-0.82875 1.22249,-1.235 1.91249,-2.61749 4.38999,0.035 7.60248,3.27249 0.34499,0.3475 0.61749,0.6375 0.76124,1.2625 0.23875,1.03624 0.12625,2.99374 0.12625,2.99374 l -14.64495,0.64625 c -1.64624,0.0725 -1.99749,0.0538 -3.51749,-0.18625 -0.58249,-0.0912 -1.25499,-0.28 -1.97124,-0.535 -11.81371,-4.19874 -11.13496,-11.84496 -11.54371,-23.18867 -0.0975,-2.71124 -0.1125,-5.00624 -0.10875,-6.26873 0.0337,-10.18372 0.95125,-21.73493 0.35,-30.3273998 -0.1925,-2.74874 -0.955,-5.97123 -3.23624,-4.23123997 -1.00125,0.76249997 -2.89749,4.28623997 -4.00249,7.11747997 0.195,-0.5 1.11625,17.4786898 1.19375,18.8899398 0.395,7.26497 1.26874,23.33867 1.42624,26.23616 z" />
</svg>
