<?xml version="1.0" encoding="UTF-8" standalone="yes"?>
<svg>
  <path style="stroke:none; fill:#000000"
    d="m 65.790478,19.414428 c 0.94767,-1.732526 2.02646,-3.701568 2.99129,-5.582596 1.44443,-2.816058 5.49339,-10.6173964 1.73187,-13.46314806 -1.87829,-1.42122144 -4.94063,1.62692706 -6.249,3.03605626 -5.00762,5.3967 -6.56646,6.8894268 -8.91071,13.0077338 -0.37906,0.988917 -0.13013,1.003218 1.06658,0.866817 0.53153,-0.0616 0.69103,-0.192505 1.59525,-1.307922 1.09848,-1.356326 1.841,-2.31004 2.47659,-3.000854 0.31856,-0.345407 6.78953,-4.5254822 6.14922,-0.731516 -0.0538,0.317904 -0.13894,0.698514 -0.2529,1.149519 -0.0646,0.25521 -0.13343,0.50491 -0.20714,0.750218 -0.70598,1.27052 -1.42001,2.54984 -2.11203,3.778565 -1.93163,3.429867 -3.69167,6.464814 -4.6268,7.82444 -0.29667,0.431213 -1.08417,1.577432 -1.08417,1.577432 0,0 -0.44001,-0.191404 -0.81401,-0.353107 -2.87898,-1.248527 -1.54752,-3.158156 -0.54056,-4.571686 0.35366,-0.496109 0.42857,-1.073614 -0.33584,-1.79083 -7.2477,-1.811731 -7.82686,-5.868607 -9.19385,-3.951268 -0.73746,0.925113 -1.11256,2.965651 -1.38283,5.8983 -0.1495,1.622536 0.55528,7.437239 2.24371,9.324876 0.69114,0.772211 2.01567,1.39482 3.1015,2.008628 l 2.33281,1.318932 -1.34488,2.612544 c -0.80136,1.55653 -2.04593,3.34846 -2.60771,4.438576 -2.26405,4.393482 -3.12031,11.156408 -0.34386,14.632469 2.86665,3.587161 6.21291,2.724744 11.18984,0.838216 1.24731,-0.473007 2.19464,-0.988917 3.63216,-2.038339 1.77664,-1.298021 4.30173,-3.412265 5.03699,-4.032674 l 3.04023,-3.567367 c 0.68729,-2.535539 2.03327,-5.386791 2.12073,-7.82444 0.0971,-2.709342 -1.57787,-6.527519 -3.78121,-7.997144 -2.91758,-1.945932 -9.42156,-3.990871 -9.42156,-3.990871 0,0 1.29384,-2.646646 2.43346,-4.977588 0.46157,-0.943814 1.21069,-2.316641 2.06683,-3.881972 z m -11.25276,19.941163 1.21948,-2.270446 6.07618,2.015237 c 1.99841,0.662212 3.95292,1.408029 5.9213,2.580651 3.03132,1.80513 1.28625,3.012954 -1.55147,4.601379 -3.3565,1.877736 -4.98705,2.993153 -7.95315,3.160356 -1.89236,0.106708 -8.23178,-0.968016 -6.35965,-4.910483 0.16203,-0.341007 0.37786,-0.741418 0.64461,-1.221025 0.17831,-0.320105 0.35278,-0.651211 0.5267,-0.985617 0.65671,-1.266119 1.08759,-2.247345 1.476,-2.970052 z M 28.469158,26.89712 c -0.9825,6.06625 -4.39,15.23125 1.2025,18.015 4.03,2.006254 6.92375,0.2625 7.80125,-4.09125 0.31875,-1.58375 0.14,-2.63625 -1.07375,-3.2825 -2.0275,-1.0775 -6.54,-0.78875 -7.6325,-1.9825 -0.4025,-0.44125 -0.38125,-1.07875 -0.23875,-1.86625 1.13,-6.20875 2.635,-7.02125 1.9875,-11.82625 -0.30875,-2.293751 -2.46875,-12.8350008 -5.5,-11.132501 -1.59875,0.89875 -2.3175,4.14875 -1.59625,5.2725 0.41875,0.6525 1.39,1.34 2.0425,2.07875 1.29625,1.46875 3.365,6.606251 3.0075,8.815001 z M 129.68779,94.823459 c 0.20374,2.799847 1.50992,4.542257 3.88729,5.044727 3.06609,0.648724 4.79975,-1.01495 5.58596,-4.378517 0.17249,-0.73746 0.13374,-1.35243 -0.34123,-1.64991 -0.9037,-0.56372 -3.38482,0.0225 -4.58351,-0.61497 -1.49242,-0.79246 -1.8724,-4.16228 -1.50242,-5.7372 0.36873,-1.57616 1.31118,-3.26483 1.56742,-4.47976 0.0512,-0.24624 0.075,-0.47248 -0.0312,-0.59872 -0.0138,-0.0163 -0.0275,-0.0312 -0.0412,-0.045 -3.60856,-0.8237 -4.48601,13.21556 -4.54101,12.45935 z m 26.41676,-3.687855 7.3275,-7.3275 -7.3275,-7.328748 -7.32875,7.328748 7.32875,7.3275 z m -26.59341,-80.114641 -6.10093,6.06093 c -1.0137,1.00745 -1.15869,1.18869 -1.44242,1.80866 -0.39748,0.8687 -0.53498,2.32113 -0.33874,2.51862 0.63122,0.63746 2.8661,-0.90996 3.64356,-1.48368 6.81089,-5.02348 9.91323,-8.18706 11.01442,-14.6904701 0.55997,-3.30608 -1.18994,-4.58600991 -4.28852,-5.00723991 -4.91349,-0.66996 -9.78949,0.015 -11.69939,3.71480991 0.29874,14.1255001 0.71747,6.04718 4.88475,5.04473 4.636,-1.11494 9.62074,-3.59356 4.32727,2.0336401 z m -27.95927,9.944517 c 1.08432,-0.73146 2.38773,-4.83713 3.29867,-3.22697 1.26963,2.06748 1.76489,4.54115 1.16633,6.91197 0.77846,1.02637 1.31873,0.28613 1.63199,-1.68792 0.34681,-2.24152 0.58585,-4.58324 0.069,-6.81608 0.0242,-0.73699 -1.6638,-3.8203 -0.95758,-5.66191 1.04101,-3.6916702 0.85721,-9.1934599 -3.64942,-10.35308989 -4.786572,-1.04980989 -7.184172,4.41270999 -7.195062,8.35458999 0.2346,2.8100399 -0.0582,2.9005399 2.4634,4.6820799 1.997472,0.0734 4.265172,2.1561 1.755662,3.54533 -7.052232,6.83451 -14.655862,13.11166 -21.441812,20.20333 -2.43144,2.86019 2.15063,1.25363 3.38086,0.21059 0.25903,-0.19054 3.19957,-1.68962 4.88547,-2.77173 5.77945,-3.66075 10.87563,-8.38412 14.947482,-13.88619 l -0.24405,0.34098 -0.11095,0.15502 0,0 z m -1.275,-13.8900002 c 0.76522,-1.76875 4.81606,0.31673 4.75447,1.4051003 -0.11241,2.5073099 -0.92351,0.6731902 -3.21652,-0.4586303 -1.12712,0.2771503 -1.973312,-2.46791 -1.53795,-0.94647 z m 49.96,16.4730662 c 2.79885,-1.89417 5.46688,-3.96985 8.15,-6.023 -0.0404,0.19281 3.11719,2.73465 2.91811,4.72136 -0.0104,1.54641 0.66863,6.01046 2.25489,2.86064 1.49797,-4.33813 -2.45098,-8.42448 -1.417,-12.897 0.1871,-3.5271401 4.2194,-7.3310406 1.5305,-10.6277103 -3.67865,-3.0412199 -9.49999,-1.47259997 -11.52609,2.7663597 -1.33883,2.23437 -1.62698,5.0147805 -0.91741,7.5063506 0.008,-0.0168 3.15685,1.26002 2.834,3.544 -4.04535,4.22416 -9.45519,6.91596 -14.54805,9.68353 -12.92518,6.80884 -26.91312,11.20377 -40.329702,16.85195 -2.81867,0.74122 -2.859,2.72898 0.29289,1.84832 17.230922,-2.39745 33.552872,-9.46611 48.267062,-18.56172 0.83185,-0.55569 1.6865,-1.07429 2.4908,-1.67308 z m 8.434,-17.7160006 c 2.78379,-0.0307 2.85833,3.9026605 0.14668,3.9680005 -1.74259,-0.0488 -5.3718,-1.8821102 -4.27518,-3.6805405 -1.87188,-0.11986 3.39353,-0.72222 3.42843,-0.41056 -1.16367,-0.15946 0.0243,0.0219 0.70007,0.1231 z m 13.464,65.4389376 c 2.31813,0.34712 4.43772,2.86573 6.307,1.63 1.65413,-2.84769 4.36745,-5.36935 4.677,-8.787 -3.36845,-1.59386 -7.54703,-1.97469 -10.79391,-4.16722 -6.37051,-3.33609 -10.34028,-9.77118 -16.51823,-13.29417 -4.29466,-1.73931 -9.90008,-1.44816 -13.57686,1.51639 -1.8147,1.96386 -3.15572,4.52793 -3.331,7.228 -0.48179,-0.39919 -0.0789,3.73985 2.75164,2.197 2.26845,-0.0617 4.29563,-1.18238 6.46036,-1.701 -0.64843,-0.11379 3.39901,-0.1194 4.44631,0.91875 2.04751,1.29873 5.53237,2.15313 5.33369,5.17625 -0.23432,-0.39024 -3.61692,1.62142 -5.25582,1.83815 -6.0438,1.96306 -12.5033,2.06507 -18.76818,2.69685 -2.73299,-0.7321 -2.46769,-4.46229 -3.95482,-6.46319 -1.77309,-4.59997 -7.72414,-8.4564 -12.34418,-5.51281 -4.55885,3.66311 -7.17528,9.79014 -7.016,15.591 0.40113,4.22359 5.20776,5.29064 8.717,4.96 -1.10612,0.15545 3.97679,0.0298 5.386,0.071 3.20271,-0.50561 2.81404,0.46859 0.61302,2.19757 -4.38985,4.90628 -10.23984,7.97996 -16.2453,10.43713 -8.97496,3.91316 -18.360422,6.91414 -27.808722,9.4753 -1.44115,0.15649 -3.64944,0.21817 -5.528,0.071 -0.81357,2.507082 1.05829,3.606487 1.61754,3.193097 5.8397,0.78244 11.66434,2.2911 17.58746,2.0509 -0.005,-0.0328 4.12592,-1.41704 5.660592,-2.17292 8.96497,-4.277537 18.33226,-8.538677 25.42853,-15.658377 2.21513,-2.78228 3.86282,-5.98132 4.62788,-9.4517 2.56371,-0.9159 5.34725,-0.60159 8.007,-0.496 -0.0352,1.8e-4 3.6683,-0.49297 5.01706,-0.93863 7.64014,-1.97438 15.37276,-4.7638 23.38282,-3.42822 1.70509,0.18733 3.52043,0.44521 5.12012,0.82285 z m -54.071,-7.228 c 2.42266,0.0526 4.49405,-0.21575 6.803,0.425 -0.69787,-0.0941 2.80001,3.03023 -1.346,2.41 0.62489,0.008 -4.54158,-0.22851 -5.45878,-1.82129 -0.4692,-0.123 -0.27254,-0.87379 0.002,-1.01371 z m -37.275002,-0.48095 c -2.75804,2.4075 -7.82958,4.16171 -10.26758,0.39208 -1.21291,-1.93944 -3.21202,-4.03379 -5.39442,-1.95108 -4.03589,1.89828 -8.26959,5.33651 -12.968,4.111 -3.56311,-4.39482 -5.64173,-11.23968 -11.75752,-12.64083 -5.10806,-0.61375 -8.48079,4.19078 -9.36048,8.67183 -1.01878,4.399 -2.33276,9.26235 -0.78,13.677 2.59208,3.57286 7.46843,1.81092 11.19025,2.09606 2.04894,0.30368 4.38279,-1.1103 6.17175,-0.0411 -7.35933,7.23167 -16.64772,12.25056 -26.008,16.441 -6.77904,3.064372 -14.4107203,3.279452 -21.25940028,6.094997 -1.73818002,2.02251 3.38396998,1.83254 4.88969998,1.984 1.79849,0.15314 5.9032303,0.23985 6.3129703,0.213 7.04727,0.15636 14.84641,-1.59458 21.11273,-5.456995 5.1508,-3.059222 10.6632,-5.948502 14.669,-10.488002 2.47884,-3.74917 1.57397,-10.40439 6.945,-11.693 2.9821,-0.62668 5.51887,-2.28066 8.22,-3.543 2.67522,0.009 3.24371,3.28011 5.386,4.322 -0.76157,-0.22276 3.97053,0.86447 5.173,-0.637 3.04287,-1.54919 6.59002,-4.43537 10.01305,-2.00947 3.62791,2.03437 7.57557,4.22258 11.88495,3.70947 3.54476,-4.15163 6.082402,-9.43821 5.669002,-15.01164 -0.11624,-2.48403 -0.47094,-5.00443 -1.630002,-7.24036 0.34276,0.98896 -1.72788,-4.84777 -2.80272,-0.79764 -2.3827,2.73711 -4.24685,5.973 -3.97106,9.71887 0.59122,3.61689 -2.33909,0.46249 -4.00867,-0.0558 -0.50477,-0.13897 -2.53581,-1.69159 -4.65894,-2.23134 -1.19676,-0.25405 -1.68128,1.91755 -2.77061,2.36595 z m -38.906,3.898 c -0.75334,1.52172 -4.2363,0.34301 -5.70236,-0.61682 -2.53103,-1.67324 -0.33288,-4.04499 2.08836,-2.64318 2.20306,0.98163 3.7372,2.91869 3.614,3.47868 l 0,-0.21868 z m 0,33.078947 c 0.006,1.92459 3.51715,0.66598 5.02532,1.063 5.06078,0.80805 7.44938,-4.747357 11.55768,-6.448997 1.15831,-0.17893 1.4628,0.16164 4.52073,1.06181 2.17044,-1.40505 3.1216,-6.06249 6.46585,-4.22976 2.06956,1.62489 4.29037,0.0901 4.9899,-2.1038 0.95919,-2.31676 1.01002,-6.01943 0.39352,-7.69625 -0.91243,-0.83742 -2.67602,-0.89917 -3.21734,1.55771 -1.16467,2.51938 -1.32736,3.062671 -4.14382,3.39787 -0.95961,0.114208 -2.06304,3.2547 -3.68692,3.16119 -1.92628,-0.69541 -4.45162,-1.9583 -5.91493,0.34224 -4.04222,5.040309 -13.45952,7.820644 -15.98999,9.894987 z"/>
</svg>