<?xml version="1.0" encoding="UTF-8" standalone="yes"?>
<svg xmlns="http://www.w3.org/2000/svg" xmlns:xlink="http://www.w3.org/1999/xlink"
  width="595.276pt" height="841.89pt" viewBox="0 0 595.276 841.89">
  <path
    style="stroke:none; fill:#000000"
    d="m 149.94617,20.266861 -0.175,-4.00375 c -0.0713,-1.61875 -0.0475,-1.90875 0.23375,-2.9 0.20875,-0.73625 0.42875,-1.54 0.98625,-2.05875 1.36,-1.26375 4.7275,-0.82625 6.28875,-1.8675 2.24875,-1.4975 2.25,-6.6449999 0.52,-8.73124992 -1.83375,-2.21124998 -5.5425,1.30125002 -7.0625,3.31125002 -0.9325,1.235 -1.81625,2.6499999 -2.21375,4.3012499 -0.185,0.765 -0.28625,1.63375 -0.43,2.395 l -0.70625,3.72375 -2.32987,-2.965 c -3.18925,-4.2 -2.21663,-5.4475 -6.903,-6.5899999 -1.57013,-0.3825 -4.97525,-0.24 -5.62975,1.5287499 -0.51213,1.3825 0.69025,4.7475 1.44337,5.54625 0.57913,0.61375 2.92425,2.13875 3.893,2.2325 1.58288,0.1525 4.81725,-0.81125 4.81725,-0.81125 0,0 2.61038,3.7575 4.20525,5.52125 0.695,0.77 1.27125,1.39 2.1625,1.4075 0.36875,0.0062 0.9,-0.04 0.9,-0.04 z m 11.99112,29.509343 0.69875,-0.0125 c 0.31375,-0.005 0.3975,-0.19625 0.84125,-1.91 2.55375,-9.86 3.02,-15.30375 -3.26125,-21.62625 -1.035,-1.04125 -2.24,-1.915 -3.01625,-0.9825 -0.5275,0.63375 -1.065,5.10375 -0.825,6.08 0.42,1.70625 1.665,2.26 3.1025,3.42 3.2475,2.6175 4.06125,4.58125 3.6475,8.0675 -0.31625,2.67625 -1.1875,6.96375 -1.1875,6.96375 z M 139.05189,38.18983 c -0.0458,-1.242063 -0.18592,-2.801034 -0.5939,-3.192445 -0.23652,-0.227952 -0.56299,-0.06338 -0.76781,-0.185698 -0.92104,-0.552645 0.64572,-2.833281 1.39229,-3.705059 6.77663,-7.910503 24.33897,-17.731357 33.6183,-19.764025 0.88512,-0.193481 1.76802,-0.349156 1.93593,-0.05004 0.0823,0.149003 -0.0111,0.410314 -0.15346,0.704984 -0.33581,0.693865 -0.87177,1.532285 -1.46779,2.431863 -12.35724,18.660957 7.13547,-7.2355414 12.66637,-7.9638769 0.50594,-0.2490797 0.98075,-0.4503449 1.40219,-0.5837804 2.15164,-0.6771853 4.48343,-0.8206285 4.76587,-2.8844311 0.04,-0.2891103 0.0456,-0.6504981 0.0356,-0.9996544 -0.0934,-3.3803665 -5.60874,-1.76357279 -9.49616,-0.2846624 -3.59831,1.367714 -8.94018,3.6227742 -14.60674,6.2447822 -7.33228,3.392598 -29.28543,13.57484 -32.37457,22.419391 -0.99543,2.84996 -0.8104,6.043517 1.17401,8.790065 0.085,0.117868 0.16234,0.224616 0.23284,0.320245 -0.89579,-1.216487 2.42853,3.898541 2.23705,-1.29766 z m -19.4329,-21.838461 c -0.9825,6.06625 -4.39,15.23125 1.2025,18.015 4.03,2.006254 6.92375,0.2625 7.80125,-4.09125 0.31875,-1.58375 0.14,-2.63625 -1.07375,-3.2825 -2.0275,-1.0775 -6.54,-0.78875 -7.6325,-1.9825 -0.4025,-0.44125 -0.38125,-1.07875 -0.23875,-1.86625 1.13,-6.20875 2.635,-7.02125 1.9875,-11.82625 -0.30875,-2.2937503 -2.46875,-12.8350003 -5.5,-11.13250029 -1.59875,0.89874999 -2.3175,4.14874999 -1.59625,5.27249999 0.41875,0.6525 1.39,1.34 2.0425,2.07875 1.29625,1.46875 3.365,6.6062503 3.0075,8.8150003 z m -27.426,-5.330405 -6.10093,6.06093 c -1.0137,1.00745 -1.15869,1.18869 -1.44242,1.80866 -0.39748,0.8687 -0.53498,2.32113 -0.33874,2.51862 0.63122,0.63746 2.8661,-0.90996 3.64356,-1.48368 6.81089,-5.02348 9.91323,-8.18706 11.01442,-14.6904707 0.55997,-3.3060803 -1.18994,-4.58601033 -4.28852,-5.00724033 -4.91349,-0.66996 -9.78949,0.015 -11.69939,3.71481003 0.29874,14.125501 0.71747,6.0471806 4.88475,5.0447306 4.636,-1.1149403 9.62074,-3.5935603 4.32727,2.0336404 z m -39.94534,0 -6.10093,6.06093 c -1.0137,1.00745 -1.15869,1.18869 -1.44242,1.80866 -0.39748,0.8687 -0.53498,2.32113 -0.33874,2.51862 0.63122,0.63746 2.8661,-0.90996 3.64356,-1.48368 6.81089,-5.02348 9.91323,-8.18706 11.01442,-14.6904707 0.55997,-3.3060803 -1.18994,-4.58601033 -4.28852,-5.00724033 -4.91349,-0.66996 -9.78949,0.015 -11.69939,3.71481003 0.29874,14.125501 0.71747,6.0471806 4.88475,5.0447306 4.636,-1.1149403 9.62074,-3.5935603 4.32727,2.0336404 z m 31.83983,24.155508 -3.33292,-3.033469 3.37695,-3.335244 3.37695,-3.335245 2.99075,3.373407 2.99076,3.373411 -3.03479,2.995306 -3.03478,2.995307 -3.33292,-3.033473 z m -4.1988,11.21592 -2.99494,-3.034413 3.03347,-3.336992 3.03347,-3.336997 2.199,2.253031 2.199,2.253026 1.97889,-2.281066 1.97889,-2.281071 3.01716,3.403199 3.01717,3.403199 -3.05297,3.025823 -3.05296,3.025828 -1.89637,-1.942063 -1.89637,-1.942058 -2.28425,1.912481 -2.28425,1.912486 -2.99494,-3.034413 z M 74.75819,7.985002 c 0,-0.919943 -2.26954,-2.601123 -3.51142,-2.601123 -2.0084,0 -1.69539,0.884958 0.69712,1.970955 2.25364,1.022966 2.8143,1.148508 2.8143,0.630168 z M 41.47602,33.608306 c 0,-1.605399 0.10423,-1.683279 6.48513,-4.845584 10.01242,-4.962047 22.88149,-13.394283 22.88149,-14.992698 0,-0.220059 -0.87303,-0.661669 -1.94007,-0.981359 C 67.83554,12.46897 66.62416,11.724351 66.21063,11.133954 65.17648,9.657494 65.27086,6.432203 66.40252,4.576292 67.48126,2.807174 71.31807,0 72.65733,0 c 1.30292,0 2.83939,1.208617 4.07211,3.203192 0.89645,1.450491 1.01985,2.158256 0.75118,4.308572 -0.28047,2.244862 -0.1873,2.694401 0.73065,3.525134 1.93066,1.74722 2.51304,3.441894 1.92864,5.612189 -0.28876,1.072371 -0.80925,1.949767 -1.15666,1.949767 -0.34739,0 -1.14743,-1.101248 -1.77785,-2.447217 -0.63041,-1.34597 -1.31594,-2.447218 -1.52339,-2.447218 -0.20744,0 -1.36249,1.266435 -2.56677,2.8143 -2.50465,3.219227 -4.36223,4.71897 -11.62486,9.385428 -5.38966,3.463023 -10.69922,6.331901 -13.65159,7.376256 -0.94218,0.333287 -2.40709,0.910522 -3.25535,1.282754 -2.48149,1.088909 -3.10742,0.896572 -3.10742,-0.954851 z m 33.40884,30.392839 c 0,-1.90976 -5.92268,-2.959225 -6.27273,-1.111487 -0.20349,1.074118 1.39297,1.760303 4.1926,1.802058 1.52064,0.02266 2.08013,-0.163063 2.08013,-0.690571 z M 43.56048,99.984741 c -0.94218,-0.22864 -3.57107,-0.764549 -5.84199,-1.190909 -7.04034,-1.3218 -6.60572,-1.81223 3.88421,-4.38298 11.39661,-2.79296 19.15436,-5.98684 31.87417,-13.12266 3.94961,-2.21574 5.41651,-3.3199 6.10229,-4.59331 1.32865,-2.46716 0.71706,-2.76032 -4.44203,-2.12926 -4.96986,0.60791 -7.13957,0.19875 -9.23268,-1.74108 -1.11993,-1.03792 -1.2979,-1.5964 -1.2979,-4.07299 0,-4.180881 0.8606,-8.180843 2.51224,-11.676532 3.66959,-7.766711 8.82038,-7.47254 13.99495,0.799266 1.55501,2.485756 2.97472,4.217403 3.53195,4.307994 2.32205,0.377493 7.65583,-3.535329 9.38031,-6.881327 0.72364,-1.404076 1.24347,-1.835413 2.21197,-1.835413 0.8723,0 1.18582,0.209012 1.00812,0.672094 -0.59423,1.548546 -0.90306,11.854019 -0.39434,13.158768 0.28952,0.742525 1.56539,2.00896 2.83527,2.8143 1.88063,1.19266 2.8358,1.46425 5.14972,1.46425 l 2.84084,0 -0.008,-4.03791 c -0.004,-2.22085 -0.22008,-6.57078 -0.47932,-9.66651 -0.25925,-3.09573 -0.7045,-9.042469 -0.98943,-13.214976 -0.28494,-4.172506 -0.84769,-20.030215 -1.25056,-23.017132 -1.06063,-7.863625 -1.08758,-17.0852506 -0.0566,-19.3750336 0.91979,-2.04288803 1.6755,-2.68362903 2.35901,-2.00012103 0.9198,0.91980203 2.31754,27.27940763 2.83388,43.16867763 0.39677,12.209752 0.73966,17.113027 1.40498,20.090865 1.32931,5.949705 3.46728,8.29592 9.40102,10.31674 2.51299,0.85584 4.335,0.90811 27.40884,0.78638 23.20315,-0.1224 29.85605,-0.47072 29.85605,-1.56313 0,-0.591 -1.36613,-2.05663 -4.53253,-4.862618 -3.4621,-3.068028 -4.24978,-3.127035 -12.10855,-0.90712 l -5.6286,1.589948 -11.53238,-0.04699 c -17.99948,-0.07332 -26.35751,-1.31256 -28.52298,-4.229076 -2.11886,-2.85374 -1.40736,-9.453954 1.6831,-15.613239 1.3191,-2.628968 5.89166,-6.448076 10.54535,-8.807713 3.41321,-1.730653 4.31532,-2.001584 5.39007,-1.61879 2.07182,0.737924 3.2597,2.786886 3.49406,6.026905 0.18038,2.493807 0.0602,3.037119 -0.87992,3.977223 -0.89745,0.897448 -1.40178,1.028051 -2.86916,0.742985 -0.97917,-0.190222 -2.36509,-0.457194 -3.07981,-0.593274 -2.08204,-0.396396 -11.1813,5.419686 -11.1813,7.146903 0,1.76882 10.31427,2.974197 26.67467,3.117344 11.83229,0.103528 12.42378,0.06267 17.92363,-1.238018 3.12814,-0.739789 6.78632,-1.345074 8.12929,-1.345074 2.63037,0 3.53258,0.561544 8.65,5.383879 6.05518,5.706026 7.63395,7.486059 7.63395,8.607154 0,1.904381 -3.40251,7.934331 -5.32867,9.443491 -2.62762,2.05877 -3.39347,2.36796 -7.91378,3.19497 -5.58749,1.02224 -38.62885,1.88266 -48.67216,1.26745 -10.79484,-0.66124 -13.54478,-1.69349 -15.66665,-5.88079 -1.2634,-2.49318 -2.68748,-3.24953 -2.68748,-1.42735 0,2.70261 -2.47763,4.37281 -6.48676,4.37281 -2.14838,0 -2.98378,-0.26765 -4.64235,-1.48738 -2.78943,-2.05137 -3.26463,-3.77069 -2.9285,-10.595672 0.14998,-3.045298 0.1079,-5.536909 -0.0935,-5.536909 -0.20142,0 -1.08572,1.001872 -1.9651,2.226386 -0.87937,1.224509 -2.45288,2.765503 -3.49669,3.424426 -2.33605,1.474689 -3.15671,2.699819 -3.91943,5.851109 -0.78046,3.22465 -2.98012,8.09708 -4.6348,10.26648 -1.44223,1.89086 -10.49421,7.51671 -16.47367,10.23846 -8.40724,3.82684 -15.13093,5.288528 -19.47627,4.234019 z m 6.36276,-33.270424 c 0,-0.23163 -0.5726,-1.264918 -1.27244,-2.296195 -0.96418,-1.420796 -1.20878,-2.267362 -1.00966,-3.494407 0.30967,-1.908311 -0.13753,-2.01873 -2.4322,-0.600547 -1.25029,0.772723 -1.64846,1.357124 -1.64846,2.419466 0,1.233598 0.36485,1.577609 3.05902,2.884237 3.51527,1.704844 3.30374,1.635221 3.30374,1.087446 z M 0,99.987363 c 0,-0.29268 1.15631,-1.11634 2.56958,-1.830359 3.37098,-1.7031 14.53912,-9.27415 18.09634,-12.26777 13.1031,-11.02709 13.41894,-11.37457 13.81618,-15.20026 0.40887,-3.937749 0.99726,-5.584863 3.87254,-10.840723 4.18769,-7.654868 10.74026,-12.725307 17.03329,-13.180499 3.05905,-0.221273 3.2027,-0.08604 2.3345,2.197498 -0.28674,0.754194 -0.74387,3.190458 -1.01585,5.413921 -0.49432,4.041194 -0.49393,4.043651 1.06828,6.774109 2.18598,3.820699 1.9461,6.600558 -0.97285,11.274034 -2.60648,4.17318 -3.86012,5.57591 -4.98328,5.57591 -1.08192,0 -2.26095,-0.47571 -8.87711,-3.58167 -3.74196,-1.75667 -5.4203,-2.3216 -5.79224,-1.94966 -0.28802,0.28802 -0.64573,1.9257 -0.79492,3.6393 -0.59774,6.86583 -5.5107,12.57127 -16.85698,19.57605 C 14.4555,98.699973 11.69621,99.518643 4.03791,100.17397 1.24441,100.41302 0,100.35551 0,99.987363 z"/>
</svg>