<?xml version="1.0" encoding="UTF-8" standalone="no"?>
<svg>
  <path
     d="m 116.25328,26.144799 c 0.0625,0.597581 0.17253,1.18266 0.32755,1.738986 1.48395,5.275716 5.1557,4.399347 8.27862,3.625492 l 2.14279,-0.530072 0.42881,-0.926376 c 0.3863,-0.831363 0.69385,-2.029025 0.83511,-2.997907 0.24879,-1.688979 0.38756,-2.320315 0.38756,-2.320315 0,0 -1.53521,0.485066 -2.10904,0.666341 -3.14668,0.995135 -5.30447,1.628971 -7.53852,-1.32518 -1.0614,-2.069031 -0.25004,-4.825655 1.14015,-7.29224 1.66898,-2.962902 4.90942,-7.399754 5.25072,-9.023725 0.0963,-0.458812 0.27628,-1.765239 0.15002,-2.005272 -0.11252,-0.212529 -0.41506,-0.142519 -0.7201,0 -0.28504,0.135018 -0.58508,0.356298 -0.89262,0.647588 -3.6405,3.450468 -8.19362,14.795758 -7.68105,19.74268 z M 279.1554,46.7851 l -6.10208,6.062073 c -1.01389,1.007637 -1.15766,1.188911 -1.44145,1.808996 -0.39755,0.868868 -0.53507,2.321565 -0.34004,2.519092 0.63258,0.637586 2.86663,-0.910124 3.64424,-1.483952 6.81217,-5.024432 9.91635,-8.188611 11.01775,-14.694494 0.55882,-3.305449 -1.19142,-4.585623 -4.28934,-5.00693 -4.91566,-0.670091 -9.79258,0.015 -11.70158,3.715504 0.29754,14.128168 0.71759,6.048321 4.88566,5.045685 4.63688,-1.115151 9.62255,-3.594238 4.32684,2.034026 z m -123.50052,-35.761104 -6.10333,6.062073 c -1.01388,1.007637 -1.15765,1.187661 -1.44144,1.808996 -0.39756,0.868868 -0.53507,2.321565 -0.34005,2.517841 0.63259,0.638837 2.86789,-0.910123 3.6455,-1.483951 6.81217,-5.023182 9.91509,-8.187361 11.01649,-14.693244 0.56008,-3.306699 -1.19141,-4.585623 -4.28933,-5.00818 -4.91442,-0.668841 -9.79258,0.015 -11.70159,3.715504 0.29754,14.128168 0.7176,6.049571 4.88566,5.046935 4.63688,-1.116401 9.62256,-3.594238 4.32809,2.034026 z M 92.50881,20.073975 91.94123,9.258757 C 91.85743,7.653539 91.82497,7.374751 91.61119,6.465878 90.95485,3.6805 89.19086,2.154042 87.34686,1.168909 c -2.34532,-1.25142 -4.13431,-1.717734 -6.55214,0.04626 -1.98652,1.450197 -2.17404,6.699659 -1.39269,7.521021 0.58258,0.612583 2.12654,0.557575 3.99679,0.117516 4.66814,-1.096399 5.13695,-0.842615 6.35337,4.094305 0.57758,2.346569 0.64508,4.545617 0.3613,6.904688 -0.60384,5.01193 -2.02153,7.449761 0.7576,10.39141 1.15641,1.223916 2.36532,1.408941 5.00443,0.866368 1.87525,-0.386303 2.24655,-1.257671 3.03291,-3.854273 0.55383,-1.827749 0.99138,-3.464221 0.85012,-5.286968 -0.28254,-3.615491 -4.19182,-10.412663 0.52007,-12.100392 0.87011,-0.311293 2.00027,-0.108765 2.9754,0.103764 1.31393,0.286288 1.53646,0.157521 2.22905,-1.297677 0.56883,-1.195162 1.22767,-2.296561 1.59022,-3.582986 1.35893,-4.831906 -0.7226,-6.194591 -4.89942,-4.215572 -4.79065,2.269058 -6.94219,11.996628 -5.91955,18.517513 0.31379,2.687865 0.65759,5.108194 0.65759,5.108194 0,0 -0.28754,-0.0038 -0.62759,-0.0375 -1.34143,-0.132518 -3.64549,-1.91276 -3.77551,-4.390596 z M 256.31855,0 l -6.36462,7.089712 6.36462,7.089713 6.36461,-7.089713 L 256.31855,0 z m 6.54838,86.177947 4.32059,4.813154 6.36462,-7.089713 -6.36462,-7.089712 -4.32059,4.811903 -4.32058,-4.811903 -6.36462,7.089712 6.36462,7.089713 4.32058,-4.813154 z m 16.07094,-18.12871 c 2.25155,0.956379 4.4181,2.910395 5.35947,4.451854 0.11252,0.183775 0.21003,0.3663 0.29254,0.542573 1.11265,2.392825 1.50021,5.683272 1.34019,8.39614 -0.53383,9.06123 -10.21264,15.549611 -17.2486,15.828399 -9.39627,0.37255 -22.37928,-3.728006 -25.61472,-14.638237 l -1.20267,-4.055551 4.16182,-1.03514 c 3.38546,-0.841365 6.43212,-2.151542 9.93635,-4.080554 0.51507,-0.283789 0.98138,-0.552575 1.46895,-1.042642 0.26253,-0.265036 0.49881,-0.513819 0.71134,-0.748851 l 0.93263,-1.02889 1.85275,-2.045278 2.03278,1.065145 1.12015,0.58758 c 0.30629,0.160021 0.59383,0.307541 0.86262,0.44381 0.48756,0.245033 0.92887,0.44506 1.32893,0.606332 l 2.70411,1.090148 2.95415,-2.889142 c 2.59536,-2.411577 4.94693,-2.322815 7.00721,-1.447696 z M 255.08213,51.286961 c 0.002,-0.0025 0.005,-0.0025 0.007,-0.0025 0,0 -0.001,0 -0.007,0.0025 z m -54.76869,54.011079 c -2.93664,1.27768 -6.14708,2.45409 -9.88634,3.69925 -7.43976,2.47659 -0.47631,5.66577 4.4131,5.4745 6.64715,-0.25879 15.05454,-4.07431 22.15551,-9.11499 13.6331,-9.675063 11.55657,-13.200541 13.2443,-24.68335 0.28754,-1.952765 0.7426,-4.156814 1.34393,-4.323087 0.18877,-0.05251 0.46881,0.0175 0.7401,0.100014 1.05389,0.320043 1.98402,0.826362 3.56298,1.236418 l 3.39546,0.782606 0.30254,2.684114 c 1.49521,13.608097 7.19098,24.407065 20.80783,26.096045 7.29099,0.90387 15.88465,-1.22892 19.69517,-6.34461 6.6359,-8.907463 10.95274,-26.658622 8.20612,-35.976137 -0.13877,-0.472564 -0.29379,-0.900122 -0.46632,-1.262671 -2.61035,-5.491996 -8.92746,-6.915939 -13.42307,-4.353091 -1.19641,0.681342 -2.03403,1.350183 -2.70412,1.896507 l -1.98277,1.613969 -1.36268,-0.550074 c -0.85762,-0.420057 -1.32268,-0.715097 -1.87025,-1.107651 -3.14668,-2.257806 -2.81789,-2.57785 -3.90428,-6.427122 -0.65134,-2.304063 -1.4177,-4.339339 -2.54035,-2.451583 -0.46756,0.785107 -1.02139,3.321701 -1.04889,4.751895 -0.10877,5.568256 0.71885,4.85816 -3.92928,7.683543 -2.80414,1.703981 -5.33698,2.397825 -8.73369,2.937899 l -3.43547,0.537573 1.85776,-3.944286 c 0.93762,-1.77274 7.94482,-11.427801 9.47003,-12.531701 0.17628,-0.126267 0.3313,-0.22128 0.45881,-0.276287 0.18878,-0.08001 0.39006,-0.153771 0.40256,-0.158772 -0.11502,0.08751 -0.0988,2.336567 0.7451,2.336567 1.8165,0 1.42269,-1.25517 1.52021,-3.275444 0.0587,-1.218916 0.0938,-1.939013 0.0938,-1.939013 l 0.0588,-1.201413 2.2203,-1.970268 c 4.43435,-3.935534 13.01176,-9.586301 15.80464,-14.141919 0.04,-0.06626 0.08,-0.132518 0.11752,-0.198777 0.22878,-0.396304 0.4063,-0.761354 0.54632,-1.110151 0.15127,-0.373801 1.4752,-10.812718 1.43395,-11.227774 -0.0875,-0.876369 -0.37005,-1.638972 -1.01264,-2.059029 -0.16377,-0.106265 -0.26879,-0.138769 -0.77511,-0.190026 -9.88509,-0.997636 -25.35969,-1.448947 -33.63081,7.023453 -1.97777,2.026525 -2.13029,3.549232 -2.19655,6.455876 -0.0625,2.806631 0.27129,6.605897 1.93151,7.51102 0.0325,0.0175 0.0675,0.035 0.10252,0.05251 2.15154,1.025139 3.46922,1.901508 4.70439,3.17168 1.17016,1.202664 3.88177,4.178068 2.92289,6.092077 -0.21378,0.426308 -0.51507,0.875119 -0.88262,1.367686 -5.83454,7.81106 -6.17333,8.633672 -8.41489,17.743658 l -0.68009,2.765376 -2.9654,-0.988884 c -4.87942,-1.628972 -8.02484,-3.923033 -10.89398,-9.541296 -0.26129,-0.513819 -0.59633,-0.943878 -1.24392,-1.33143 -1.35143,-0.80636 -1.78399,0.921375 -2.35282,3.676749 -0.41256,1.995271 -0.58008,2.934148 -0.45006,4.411849 0.065,0.7426 1.63272,5.353226 3.40921,10.427665 2.58785,7.389753 -0.13752,12.424186 -2.39032,14.919525 -7.08346,7.852316 -20.68031,14.443212 -22.49056,15.230812 z m 47.92651,-75.956557 2.44783,-1.258921 c 4.33059,-2.226553 16.01718,-2.190298 16.74978,-2.187797 l 4.62687,0.0012 -4.26808,2.87414 c -3.51422,2.296562 -6.38211,4.760646 -9.34877,7.543524 l -3.24544,3.044163 -0.81761,-1.208914 c -2.69786,-4.026796 -4.12181,-5.934556 -4.8244,-6.932191 l -1.32018,-1.875254 z m -89.80344,0.322543 -6.36586,7.090963 6.36586,7.089712 6.36461,-7.089712 -6.36461,-7.090963 z m -26.48484,34.18214 -6.36462,7.089712 6.36462,7.089713 6.36461,-7.089713 -6.36461,-7.089712 z m -11.46156,25.138412 4.32059,4.811903 6.36461,-7.089712 -6.36461,-7.089712 -4.32059,4.813153 -4.31934,-4.813153 -6.36586,7.089712 6.36586,7.089712 4.31934,-4.811903 z m 19.36138,-5.105693 c 3.07666,-1.425193 10.93398,-7.394754 12.09789,-8.311128 0.3613,-0.285039 0.59383,-0.470064 0.59383,-0.470064 0,0 -0.0375,0.596331 -0.11377,1.780242 -0.0288,0.436309 -0.47506,3.334202 0.25254,3.68425 0.57383,0.275037 1.98902,-4.031797 2.16404,-4.425601 0.0513,-0.117516 0.10502,-0.235032 0.15877,-0.351297 0.6776,-1.47145 2.5291,-4.241826 4.33684,-5.835793 1.44645,-1.277673 4.21808,-4.013044 1.25892,-4.776898 -2.88789,-0.745101 -5.532,1.578964 -7.89982,3.182932 -5.49074,3.719255 -13.23304,9.253756 -13.65435,9.64881 -0.29129,0.273787 -0.49507,0.582579 -0.63759,0.985134 -0.65884,1.876504 -0.64634,5.857044 1.4427,4.889413 z M 204.27023,64.24122 c -0.39255,0.991384 -6.30585,1.075146 -6.95844,0.976382 -2.34282,-0.352548 -5.10195,-2.050278 -4.49436,-4.12431 0.7801,-2.662861 4.60937,-3.119173 6.90093,-2.057779 0.64134,0.29629 1.08265,0.707596 1.80025,1.336431 1.01764,0.892622 2.88789,3.524229 2.75162,3.869276 z m -39.7604,41.70066 c 0,0 0.0338,-10e-4 0.57633,-0.0325 15.7859,-0.88637 28.52762,-4.4206 40.67302,-16.621006 5.33948,-5.363228 8.95372,-11.036498 7.97109,-20.436524 -0.56508,-5.403233 -10.03387,-21.770454 -16.77603,-20.04647 -0.0475,0.01125 -0.0938,0.02375 -0.14002,0.03625 -4.83316,1.291426 -6.75592,7.853566 -6.9972,14.036906 -0.0438,1.123902 -0.0138,2.572849 0.09,4.036798 0.62009,8.666176 7.61479,9.731321 14.44821,6.845929 0.26004,-0.110015 0.51507,-0.227531 0.76386,-0.355048 2.94665,-1.506455 3.35795,-2.842886 4.35059,-0.835114 0.0125,0.02375 0.025,0.05001 0.0362,0.07501 1.40394,2.862889 0.98639,3.375459 -0.61258,4.801902 -18.33624,16.35472 -20.30526,14.386953 -41.66941,24.285797 -2.11028,0.97763 -3.80176,1.8165 -4.11056,2.08653 -0.49131,0.42881 -0.49506,0.97388 0.15003,1.83775 0.0662,0.0888 0.13626,0.17378 0.22128,0.23753 0.11376,0.0875 0.21627,0.0913 1.02513,0.0463 z M 5.8833,82.444941 0,75.407735 l 1.60522,7.95608 c 0.25379,1.257671 0.57008,2.460334 1.01139,3.725506 4.01179,11.517813 22.4468,16.849789 35.59358,18.560019 2.81163,0.36505 6.79092,0.41131 11.11401,0.17752 19.1826,-1.03389 44.01847,-11.935366 59.01551,-22.899354 3.02791,-2.21405 5.51575,-4.334338 6.85718,-6.077075 1.14391,-1.486452 1.76774,-3.397961 1.20516,-6.178338 -0.28378,-1.401441 -1.27392,-3.82677 -2.64911,-5.657018 -2.48533,-3.3117 -5.81578,-2.606604 -9.30626,-2.716619 -0.70759,-0.02125 -1.36143,-0.04251 -1.854,-0.05751 -6.14333,-0.191276 -1.22892,-3.007908 1.15266,-4.57187 3.80051,-2.494089 9.215,-5.208207 12.02538,-3.206686 0.64884,0.461313 2.06403,2.315315 2.9454,3.736758 2.74787,4.433101 3.99554,5.416985 9.195,5.019431 0.44006,-0.03375 0.88137,-0.08501 1.32143,-0.15002 1.894,-0.282539 7.59478,-1.443946 8.69368,-3.472972 0.13751,-0.252534 0.28128,-0.545074 0.44006,-0.88637 1.36518,-2.912896 3.51297,-8.596167 3.60799,-9.727571 0.27878,-3.32045 -2.72787,-12.375429 -4.47186,-16.838535 -0.98639,-2.527843 -2.58535,-6.754667 -4.42435,-1.771491 -0.08,0.21753 -0.16002,0.443811 -0.23628,0.672592 -2.29657,6.840928 -0.85137,6.123331 1.72898,12.001629 1.15391,2.626606 2.36657,6.822176 2.60285,8.274873 0.12502,0.772605 -0.20002,1.006387 -0.90012,1.303927 -0.15627,0.06626 -0.3513,0.131268 -0.58008,0.195026 -2.2628,0.625085 -10.54518,1.510205 -12.24666,-1.202663 -0.0863,-0.138769 -0.17502,-0.290039 -0.26379,-0.451311 -2.64035,-4.760646 -3.53297,-8.126103 -9.43878,-7.00095 -0.86261,0.165022 -1.75773,0.431308 -2.67411,0.772604 -0.51632,0.192527 -1.12015,0.453812 -1.77899,0.771355 -8.17611,3.936785 -14.56948,9.878841 -14.69825,20.489031 -0.0175,1.447697 0.10252,2.686615 0.42506,3.304199 1.95277,3.754259 9.55005,2.814132 12.45169,3.009158 1.13266,0.07501 2.94915,0.300041 2.40033,1.783992 -0.11377,0.306292 -0.35255,0.51382 -0.60008,0.722598 -0.21753,0.182525 -0.60009,0.458813 -1.10515,0.802609 -1.19767,0.813861 -6.16459,3.835521 -12.03914,7.055958 C 85.0253,88.960823 72.81364,92.653824 62.63726,94.841621 46.00625,98.415856 34.42218,96.070538 33.00573,95.801751 26.65237,94.592837 20.48529,92.505054 14.93203,89.444639 11.54157,87.574385 9.47004,86.255456 7.43601,84.167672 7.04971,83.771369 6.46213,83.137533 5.8833,82.444939 z m 88.01945,22.275519 c 10.77646,2.1478 24.18828,1.45895 37.38257,-1.54146 22.0855,-5.021927 48.13154,-17.576131 49.39421,-36.229913 0.12127,-1.788993 -0.20128,-3.635493 -1.05014,-6.082075 -0.21753,-0.627586 -1.40519,-3.417964 -1.05015,-3.676749 0.24004,-0.176274 1.26143,1.016388 1.92026,1.002636 0.0713,-0.0012 0.96264,-0.51632 1.08015,-0.868868 0.0538,-0.161272 -0.002,-0.360049 -0.0675,-0.571328 -0.0975,-0.313792 -0.21753,-0.652588 -0.3588,-0.991384 -0.46631,-1.115152 -1.834,-4.56562 -3.54423,-7.347248 -4.02804,-10.477672 -4.72689,-4.711889 -7.90607,0.532573 -0.0838,0.475064 -0.13877,0.965131 -0.16502,1.455197 -0.055,1.020139 3.95178,11.845358 4.32683,13.084276 0.24504,0.81011 0.50507,1.642723 0.76886,2.466585 1.90026,5.928305 -4.23308,11.855359 -8.31738,14.729499 -2.64411,1.861503 -5.20571,3.23794 -8.85495,4.955673 C 140.44783,93.648961 117.4347,97.729515 98.94469,95.707991 88.39576,94.554084 68.7531,86.596754 66.13274,78.951966 c -0.32129,-0.937627 -0.58133,-1.55146 -1.60397,-1.421443 -0.33004,0.04251 -0.39755,0.14127 -0.67509,0.993885 -0.005,0.015 -0.009,0.03 -0.0138,0.04376 -0.28004,0.870118 -0.42756,1.922761 -0.43756,3.022911 3.12417,14.980783 35.22478,24.070771 30.50039,23.129391 z M 215.32048,24.433316 c 0.73885,2.176546 -1.4602,5.884549 -2.40032,5.795787 -0.45007,-0.04251 -4.7319,-3.60674 -5.1007,-4.545617 -0.47131,-1.201413 1.61897,-2.572849 2.76038,-2.807881 1.5102,-0.311292 4.14431,-0.200027 4.74064,1.557711 z m 5.70077,11.476558 c 0,0 -0.49131,4.025547 -0.30004,5.126946 0.0788,0.447561 0.26879,0.412556 0.64009,0.975132 0.62509,0.947629 1.76024,3.590488 1.76024,3.590488 0,0 -0.84261,0 -2.19155,0 -4.97942,0 -3.05041,-1.402691 -3.94053,-6.564641 -0.29254,-1.698981 -0.67009,-3.355456 -0.91888,-3.795515 -0.85386,-1.518957 -1.29517,-1.954016 -0.91137,-3.060416 0.27504,-0.792607 0.82761,-1.658975 1.21141,-2.621606 0.82887,-2.080282 1.83025,-9.702567 -0.45006,-11.530315 -1.04139,-0.835113 -4.43685,-1.066395 -5.30447,-0.836363 -3.61174,0.95888 -4.97067,5.026932 -5.19695,9.35877 -0.0938,1.805245 0.0925,3.136676 1.44644,4.596874 2.42783,2.620356 3.58424,2.522842 1.20517,4.519363 -1.98152,1.661476 -3.6855,3.404212 -5.65202,4.586873 -4.0218,2.417828 -11.4503,5.360728 -12.15165,6.349612 -0.7376,1.041391 -0.64259,3.040413 0.63009,3.676749 0.97888,0.488816 9.72007,-3.236689 10.47142,-3.676749 2.07778,-1.215165 6.67465,-5.08069 8.18611,-6.617148 1.38894,-1.410192 3.06791,-3.280446 3.06791,-3.280446 0,0 0.62759,0.677592 1.04765,1.207664 0.93637,1.181411 1.38393,3.225438 1.61522,5.224459 0.65133,5.614513 -1.59022,9.381274 4.93442,8.556162 5.30822,-0.670091 6.43212,-2.571599 6.59964,-8.517406 0.02,-0.740101 -0.0125,-1.376437 -0.0975,-1.813996 -0.34505,-1.792744 -2.25406,-5.215708 -4.50061,-5.454491 -0.53382,-0.05626 -1.20017,0 -1.20017,0 z m -34.74971,6.893436 c 0,0 0,-1.078897 0,-2.022775 0,-4.529365 -0.39756,-3.347954 -3.74551,-5.069438 -0.70885,-0.363799 -1.51896,-0.88637 -2.09653,-1.276423 -7.34725,-4.969425 30.08408,-21.046607 38.96028,-24.924633 -1.5177,0.66259 5.94206,-3.126675 4.55312,-0.350048 -0.0588,0.116266 -0.12502,0.233782 -0.19503,0.353798 -2.12278,3.634244 -2.9504,14.113166 3.83052,15.533359 0.90013,0.187525 1.34019,-0.557576 2.04903,-1.962767 0.15752,-0.311292 0.30879,-0.648838 0.44631,-1.001386 1.26768,-3.272944 0.92263,-4.040548 -1.65522,-3.808017 -0.28004,0.025 -0.47382,0.04251 -0.48882,0.04376 -3.91553,0.353798 -3.40046,-3.711753 -2.44408,-6.792171 0.98263,-3.16418 1.73524,-5.051936 4.7544,-5.715776 0.15127,-0.03375 0.29879,-0.06751 0.43756,-0.105015 1.4852,-0.405055 2.27155,-1.247669 2.40032,-3.54298 0.0525,-0.938878 0,-2.139041 0,-2.139041 0,0 -1.57646,-0.05251 -3.00666,0 -6.35086,0.232532 -30.91169,12.527951 -34.40717,14.504469 -3.53673,1.999021 -16.64351,9.932598 -18.00244,16.038427 -0.92888,4.174317 -0.31754,6.513384 1.79774,8.957466 0.75136,0.867617 4.4006,3.211686 5.1082,3.279195 0.80011,0.07751 1.70398,0 1.70398,0 z m 0.26003,-30.749174 c -0.0612,-0.192526 -0.11751,-0.382552 -0.16502,-0.561326 -0.67884,-2.535344 -5.31822,-11.874112 -9.96385,-8.207364 -0.0625,0.04876 -0.12502,0.102514 -0.18753,0.157521 -1.72773,1.540209 -5.01068,7.123467 -2.22155,9.841336 1.4252,1.388939 4.99818,1.241419 7.37975,-0.210028 1.4752,-0.898872 1.95527,-1.497704 2.72912,0.483815 0.0538,0.137519 0.10377,0.280038 0.15127,0.428808 0.46632,1.463949 0.7251,4.920668 2.41283,5.748281 2.45283,1.203913 4.81065,-3.289197 4.60063,-6.977197 -0.18128,-3.204185 -0.24004,-2.306563 2.45658,-2.515342 0.39505,-0.03 0.80886,-0.06626 1.21641,-0.108765 3.95054,-0.416306 4.82941,-3.652995 4.49687,-8.054843 -0.11127,-1.468949 -0.78636,-2.120288 -2.27156,-2.076532 -7.01971,0.203778 -7.53978,3.549232 -8.04985,9.194998 -0.4188,4.631879 -2.23655,3.968039 -2.5841,2.856638 z"
     style="fill:#000000;stroke:none" />
</svg>
