<?xml version="1.0" encoding="UTF-8" standalone="yes"?>
<svg xmlns="http://www.w3.org/2000/svg" xmlns:xlink="http://www.w3.org/1999/xlink"
  width="595.276pt" height="841.89pt" viewBox="0 0 595.276 841.89">
  <path
    style="stroke:none; fill:#000000"
    d="m 16.51865,16.056266 -0.453,-8.651 c -0.067,-1.283 -0.094,-1.506 -0.265,-2.2330001 -0.524,-2.229 -1.935,-3.4490001 -3.411,-4.23700014 -1.875,-1.002 -3.3070004,-1.374 -5.2400004,0.036 C 5.5596495,2.1312658 5.4096495,6.331266 6.0346495,6.987266 c 0.466,0.49 1.7020001,0.446 3.1970001,0.095 3.7350004,-0.877 4.1090004,-0.675 5.0820004,3.275 0.462,1.877 0.517,3.635 0.29,5.523 -0.483,4.008 -1.618,5.958 0.605,8.311 0.926,0.98 1.892,1.128 4.003,0.693 1.5,-0.309 1.798,-1.005 2.427,-3.082 0.442,-1.462 0.792,-2.772 0.679,-4.23 -0.225,-2.892 -3.352,-8.3280003 0.417,-9.678 0.695,-0.25 1.599,-0.087 2.379,0.083 1.051,0.2289997 1.229,0.1249998 1.783,-1.038 0.456,-0.957 0.983,-1.8370001 1.272,-2.8670001 1.088,-3.86400014 -0.577,-4.95500024 -3.918,-3.37200004 -3.833,1.81599994 -5.554,9.59600014 -4.735,14.81200014 0.25,2.15 0.525,4.086 0.525,4.086 0,0 -0.229,-0.003 -0.502,-0.029 -1.073,-0.106 -2.916,-1.53 -3.02,-3.513 z M 97.376003,15.0966 c -0.417,2.601 0.09,3.24 1.819,2.442 C 100.372,16.9946 115.565,8.1576 117.784,5.5106 c 0.893,-1.065 1.785,-2.951 2.099,-4.647 0.194,-1.044 -0.12,-1.007 -1.245,-0.589 -2.607,0.969 -19.794997,11.432 -20.333997,12.378 -0.502,0.883 -0.825,1.799 -0.928,2.444 z m -42.491,60.764 4.84,4.84 6.861,-6.86 -6.861,-6.86 -4.84,4.84 -4.841,-4.84 -6.86,6.86 6.86,6.86 4.841,-4.84 z m -34.906,-8.88 -6.86,6.86 6.86,6.86 6.86,-6.86 -6.86,-6.86 z m 85.279997,-41.089 -6.859997,6.86 6.859997,6.86 6.86,-6.86 -6.86,-6.86 z m -41.246997,17.499 c -1.923,-1.554 -3.607,-3.953 -4.182,-5.296 -1.152,-2.692 -2.114,-9.698 -4.056,-8.168 -0.93,0.733 -3.176,8.546 -3.256,9.268 -0.308,2.772 0.828,4.773 0.216,6.18 -0.296,0.68 -6.311,1.423 -7.218,0.891 -2.219,-1.302 -4.07,-4.078 -5.66,-5.228 -1.576,-1.139 -1.332,0.731 -3.116,3.936 -2.117,3.803 -12.607,6.661 -15.749,6.623 -1.056,-0.013 -9.655,-1.459 -11.592,-2.472 -1.227,-0.642 -3.5002,-2.961 -4.2445,-4.935 -0.3994,-1.06 -0.4383,-1.37 -0.3887,-3.094 l 0.2337,-8.117 -0.6813,0.024 c -0.3061,0.01 -0.4188,0.187 -1.1271,1.764 -1.2222,2.722 -2.315,6.018 -2.8846,9.361 -2.7522,16.153 13.5875,21.625 26.6775,15.91 0.018,-0.007 0.036,-0.015 0.053,-0.023 2.085,-0.912 4.176,-1.893 6.022,-3.705 1.628,-1.596 2.26,-2.675 3.5,-2.434 1.646,0.319 3.931,2.742 5.927,3.362 2.04,0.635 10.759,-1.826 12.784,-4.115 1.85,-2.093 2.812,0.815 6.77,2.474 1.273,0.533 2.657,0.534 3.923,0.476 4.545,-0.21 11.488,-0.22 17.064,-2.214 1.775,-0.635 3.327,-1.519 3.996,-2.718 0.867,-1.555 1.569,-4.125 2.465,-5.771 0.838,-1.54 1.846,-2.271 2.377,-3.815 0.87,-2.528 -1.561,-18.586 -1.561,-18.586 0,0 0.157,-0.006 0.707,-0.025 9.374997,1.594 4.385,4.333 0.778,-7.492 -1.156,-3.789 -3.941,-12.917 -3.941,-12.917 -0.503,-1.65 -0.582,-1.857 -0.79,-2.066 -1.199,-1.212 -2.943,0.165 -4.454,1.447 -5.928,5.023 -3.89,6.743 -0.459,16.224 1.214,3.355 2.561,11.335 2.821,16.713 0.201,4.159 0.328,9.385 0.328,9.385 0,0 -0.786,0.071 -2.361,0.214 -15.814,1.433 -17.546,0.051 -18.921,-1.061 z m 17.301,28.716 c 1.443,0.726 2.952,1.281 4.427,1.644 10.617,2.615 19.337997,-0.985 27.664997,-3.074 1.214,-0.305 2.647,-0.653 3.976,-0.948 6.421,-1.425 11.764,-1.626 17.68,-2.153 1.719,-0.154 1.939,-0.303 2.193,-1.498 0.189,-0.886 0.543,-1.763 1.006,-2.512 0.913,-1.475 2.278,-2.764 2.406,-4.302 0.059,-0.703 -0.053,-1.533 -0.053,-1.533 l -3.843,0.135 c -1.724,0.06 -2.026,0.051 -3.018,-0.093 -1.87,-0.271 -5.816,-2.511 -8.338,-4.058 -8.348,-5.121 -9.983,-7.653 -20.591,-7.895 -4.439,-0.101 -7.627997,-0.265 -8.959997,2.608 -1.217,2.623 -2.615,8.833 -2.615,8.833 0,0 3.352,-0.128 6.668,-0.232 3.890997,-0.121 8.864997,-0.107 12.827997,1.764 0.395,0.187 0.774,0.399 1.079,0.617 l 2.134,1.53 -4.292,0.778 c -1.342,0.243 -2.842,0.514 -3.746,0.678 -6.103,1.106 -6.497,1.679 -12.101997,1.468 -4.293,-0.162 -8.115,-1.222 -12.328,-3.798 -6.461,-3.951 -7.96,-15.918 -8.298,-21.297 -0.379,-6.049 -2.432,-38.754 -2.432,-38.754 0,0 -1.009,-0.057 -1.532,0.054 -0.471,0.099 -0.547,0.334 -0.68,0.663 -0.125,0.308 -2.823,5.652 -3.062,7.307 -0.144,0.992 -0.143,1.293 0.007,3.011 0,0 1.82,20.749 2.634,30.031 1.916,21.853 2.447,26.626 11.187,31.026 z m -41.723,-61.873 c 0,0 1.613,-0.169 2.837,-0.475 2.518,-0.63 3.386,-1.84 4.878,-2.558 1.411,-0.679 3.455,-0.811 3.919,-0.137 0.265,0.386 0.182,1.02 0.141,1.534 -0.054,0.694 -0.221,0.902 -1.665,2.085 -5.824,4.771 -7.021,5.007 -7.678,9.829 -0.219,1.602 -0.043,1.846 1.589,1.103 5.785,-2.632 14.499,-11.249 12.996,-18.663 -0.479,-2.363 -1.566,-2.534 -4.23,-2.837 -5.256,-0.597 -12.632,1.066 -12.903,6.807 -0.063,1.348 0.116,3.312 0.116,3.312 z"/>
</svg>