<?xml version="1.0"?>
<svg xmlns="http://www.w3.org/2000/svg" version="1.1">
  <path
     d="m 116.20628,29.086571 c 0.152,2.241 1.133,3.634 2.916,4.036 2.3,0.519 3.601,-0.811 4.191,-3.502 0.129,-0.591 0.1,-1.083 -0.256,-1.32 -0.678,-0.452 -2.539,0.017 -3.439,-0.493 -1.119,-0.634 -1.404,-3.329 -1.127,-4.589 0.277,-1.262 0.984,-2.612 1.176,-3.585 0.039,-0.196 0.057,-0.378 -0.024,-0.479 -0.01,-0.013 -0.02,-0.025 -0.03,-0.036 -2.707,-0.658 -3.366,10.573 -3.407,9.968 z m -1.322,-12.873 -0.131,-3.203 c -0.053,-1.295 -0.036,-1.527 0.175,-2.32 0.157,-0.589 0.322,-1.2329998 0.74,-1.6469998 1.021,-1.011 3.547,-0.662 4.718,-1.494 1.687,-1.199 1.688,-5.316 0.39,-6.98499999 -1.376,-1.76900001 -4.158,1.04099999 -5.298,2.64899999 -0.7,0.988 -1.363,2.12 -1.661,3.441 -0.138,0.612 -0.215,1.307 -0.323,1.915 l -0.529,2.9799998 -1.748,-2.3719998 c -2.393,-3.36 -1.663,-4.359 -5.179,-5.272 -1.178,-0.307 -3.732,-0.192 -4.223,1.222 -0.384,1.107 0.518,3.798 1.083,4.437 0.434,0.4919998 2.194,1.7109998 2.92,1.7859998 1.188,0.123 3.614,-0.649 3.614,-0.649 0,0 1.958,3.006 3.155,4.418 0.521,0.616 0.953,1.112 1.622,1.125 0.277,0.006 0.675,-0.031 0.675,-0.031 z m -10.506,18.13 c -0.039,-1.116 -0.157,-2.518 -0.501,-2.871 -0.2,-0.204 -0.475,-0.056 -0.648,-0.166 -0.776,-0.498 0.545,-2.548 1.174,-3.332 5.715,-7.114 20.526,-15.947 28.351,-17.774 0.746,-0.174 1.491,-0.3149998 1.632,-0.046 0.07,0.134 -0.009,0.369 -0.129,0.635 -0.283,0.623 -0.735,1.378 -1.238,2.187 -10.421,16.781 6.017,-6.5079998 10.682,-7.1619998 0.426,-0.225 0.827,-0.406 1.182,-0.525 1.815,-0.609 3.781,-0.739 4.02,-2.594 0.033,-0.261 0.038,-0.585 0.03,-0.9 -0.079,-3.039 -4.731,-1.58499999 -8.009,-0.256 -3.034,1.231 -7.539,3.259 -12.318,5.617 -6.183,3.0499998 -24.696,12.2079998 -27.301,20.1619998 -0.398,1.213 -0.572,2.495 -0.468,3.771 0.163,2 1.265,4.447 2.443,5.228 0.568,0.376 1.175,0.273 1.098,-1.974 z m 2.166,36.809 3.85,4.105 5.426,-5.787 -5.426,-5.787 -3.85,4.105 -3.85,-4.105 -5.426003,5.787 5.426003,5.787 3.85,-4.105 z m 40.709,-47.013 -5.427,5.787 5.427,5.787 5.426,-5.787 -5.426,-5.787 z m -83.112003,48.141 -5.426,5.787 5.426,5.787 5.427,-5.787 -5.427,-5.787 z m -62.0180005,-30.753 c 0.04,-0.877 0.299,-0.562 1.462,-0.63 1.022,-0.061 1.743,-0.103 1.896,0.863 0.152,0.966 0.153,0.952 -0.649,0.959 -0.028,0 -0.057,10e-4 -0.088,10e-4 -0.463,0.004 -2.645,-0.659 -2.621,-1.193 z m 6.111,1.683 c 0,0 -0.719,0.006 -0.719,0.006 0,0 -10e-4,-0.115 -0.002,-0.332 0.539,-1.316 1.247,-2.415 -0.099,-3.822 -0.235,-0.83 -0.624,-2.946 1.241,-0.629 0.535,0.665 0.978,1.564 1.081,1.891 0.3490005,1.113 0.131,1.757 -0.713,2.502 -0.388,0.342 -0.467,0.381 -0.789,0.384 z m -1.124,-11.633 -2.378,0.615 0.021,2.598 c 0.011,1.292 -0.061,1.454 -0.719,1.625 -1.275,0.331 -2.75,1.621 -3.06499998,2.076 -0.598,0.864 -0.763,2.016 -0.866,3.837 -0.045,0.776 -0.078,1.673 -0.10300000034,2.606 -0.0119999997,0.472 0.36900000034,0.961 0.66900000034,1.451 0.148,0.241 0.94099998,0.805 0.89199998,1.046 -0.398,1.95 -1.65299998,2.807 0.337,5.132 2.449,2.861 8.5630005,2.47 13.4200005,2.219 0.768,-0.04 1.373,-0.097 1.725,-0.167 1.557,-0.311 4.345,-1.346 6.233,-2.711 0.597,-0.432 1.1,-0.815 1.519,-1.155 3.107,-2.521 1.662,-2.977 -1.065,-1.663 -3.789,1.828 -17.3230005,3.739 -19.6200005,-0.393 -0.198,-0.356 0.086,-0.598 1.117,-0.321 0.484,0.062 1.196,0.172 2.188,0.11 2.527,-0.156 4.3070005,-5.677 4.5670005,-7.853 0.209,-1.739 -0.907,-5.707 -2.7540005,-7.48 -0.567,-0.544 -1.484,-1.167 -2.118,-1.572 z m 96.0110035,22.63 c -1.603,0.135 -5.845003,0.069 -6.420003,-0.451 -0.348,-0.315 1.452,-3.664 2.828,-5.259 4.203003,-4.877 7.096003,-6.458 11.758003,-0.661 1.651,2.053 2.714,3.852 1.963,4.525 -0.682,0.609 -7.568,1.63 -10.129,1.846 z m -10.139003,-11.891 -0.018,0.038 0.567,11.408 c 0,0 -2.251,-0.681 -3.503,-1.754 -1.703,-1.461 -1.632,-3.31 -2.875,-2.672 -1.004,0.515 -1.957,2.695 -3.07,3.851 -1.17,1.216 -4.322,1.696 -6.59,1.153 -1.811,-0.433 -2.913,-1.921 -3.534,-3.239 -2.874,-4.916 -0.129,-13.826 -6.236,-12.293 -0.991,0.249 -1.968,0.823 -2.908,1.423 -2.057,1.314 -4.477,2.91 -6.299,4.732 -4.004,4.004 -3.952,6.043 -9.907,8.442 -3.904,1.573 -5.301,1.657 -5.62,5.986 -0.532,7.25 3.048,2.614 7.473,2.933 2.314,0.167 5.044,0.704 6.412,1.321 1.147,0.517 3.377,1.774 2.716,2.799 -0.218,0.336 -0.771,0.435 -1.343,0.539 -8.097,1.472 -13.47,3.058 -18.858,-1.021 -1.197,-0.907 -2.169,-1.923 -2.72,-3.326 -1.284,-3.265 -0.656,-12.229 -5.027,-10.961 -3.558,1.032 -7.807,7.239 -9.336,10.856 -2.349,5.553 -2.677,9.415 -7.378,8.923 -0.712,-0.075 -1.26,-0.166 -1.98,-0.699 -0.64,-0.474 -1.415,-1.295 -2.039,-2.01 l -8.2760005,-9.475 3.885,11.717 c 0.307,0.926 0.696,2.039 1.07,2.928 1.704,4.061 5.2710005,7.018 9.3320005,6.136 1.67,-0.363 2.444,-1.306 3.327,-3.009 1.334,-2.57 2.536,-5.956 4.049,-8.606 1.205,-2.11 3.786,-6.299 5.387,-6.985 1.225,-0.524 2.93,-0.771 2.93,-0.771 0,0 -0.125,2.365 0.035,4.234 0.415,4.837 3.673,9.954 7.274,11.333 2.568,0.984 5.291,0.891 8.508,0.411 6.119,-0.911 12.66,-3.074 18.844,-3.537 2.475,-0.186 4.893,-0.099 7.336,0.067 1.211,0.082 1.358,-0.016 1.474,-0.976 0.086,-0.713 0.301,-1.272 0.591,-2.051 0.71,-1.903 1.87,-5.114 1.87,-5.114 0,0 -7.395,-0.301 -10.003,-1.511 -2.38,-1.103 -6.559,-7.03 -8.591,-7.817 -1.713,-0.663 -3.563,-0.709 -3.159,-2.076 0.386,-1.305 6.946,-5.878 7.427,-6.1 1.057,-0.489 2.911,-0.506 3.378,-0.032 0.411,0.416 0.591,1.127 0.762,1.977 -0.327,-1.625 0.935,9.518 3.73,11.955 1.656,1.445 3.815,2.035 6.33,1.609 1.592,-0.27 3.736,-1.36 4.915,-3.04 0.77,-1.098 0.96,-1.694 1.822,-1.198 0.676,0.389 1.185,1.264 2.34,1.868 1.292,0.674 3.389,1.009 3.389,1.009 l -2.135,5.68 c -0.45,1.199 -0.502,1.349 -0.516,1.492 -0.051,0.515 0.153,0.63 1.004,0.132 0.601,-0.352 4.301,-4.461 5.061,-5.628 0.694,-1.065 0.905,-1.191 2.116,-1.258 2.503,-0.138 11.344003,-0.713 14.205003,-1.989 2.213,-0.988 2.972,-1.782 4.139,-1.535 1.488,0.315 3.761,2.068 5.746,2.878 2.436,0.995 6.806,0.949 8.976,-0.083 1.222,-0.582 2.83,-1.634 4.115,-2.529 6.007,-4.18 14.133,-2.949 11.32,-3.083 4.688,0.223 12.083,0.809 12.083,0.809 l 3.698,-8.557 c 0,0 -5.866,-0.054 -9.117,-0.965 -1.461,-0.41 -5.763,-2.885 -6.989,-4.003 -2.434,-2.221 -4.177,-6.374 -6.35,-8.078 -3.069,-2.407 -12.069,-2.502 -14.131,0.849 -0.101,0.164 -0.767,2.009 -1.296,3.779 -1.491,9.84 0.164,3.833 4.45,3.494 2.523,-0.2 4.984,-0.394 4.984,-0.394 1.209,-0.096 1.374,-0.094 1.652,0.016 0.206,0.083 0.384,0.215 0.568,0.354 1.882,1.427 4.531,4.416 4.633,5.228 0.248,1.978 -4.858,4.466 -8.033,5.168 -1.75,0.387 -12.007,-0.214 -12.897,-3.068 -0.368,-1.179 0.609,-3.199 0.409,-4.799 -0.35,-2.808 -4.68,-7.467 -6.801,-8.466 -3.913,-1.843 -7.443,-0.228 -10.069,3.683 -1.922003,2.864 -4.642003,8.616 -4.642003,8.616 0,0 -0.105,-1.757 -0.055,-3.196 0.135,-3.874 -1.155,-19.614 -1.119,-25.507 0.008,-1.165 0.026,-1.886 0.026,-1.886 0,0 0.572,0.045 1.016,0.159 0.118,0.03 0.229,0.066 0.333,0.105 2.013,1.024 2.592,0.95 2.576,0.3 -4.782,-16.2049998 1.453003,-22.4509998 -4.714,-18.0279998 -1.417,1.601 -3.223,5.265 -3.343,6.111 -0.286,2.013 0.482,2.8339998 0.942,5.4479998 0.216,1.226 0.108,4.865 -0.414,6.58 -0.376,1.235 -0.411,1.516 -0.347,2.806 l 0.995,20.017 0.018,-0.027 z"
     style="fill:#000000;stroke:none" />
</svg>
