<?xml version="1.0" encoding="UTF-8" standalone="no"?>
<svg>
  <path
     style="stroke:none; fill:#000000"
     d="m 34.934364,29.495992 -9.17626,9.17751 9.18501,9.18376 9.17626,-9.17626 -9.18501,-9.18501 z m 59.35006,0 -9.17626,9.17751 9.18501,9.18376 9.176256,-9.17626 -9.185006,-9.18501 z m 47.133796,69.00382 c 0.20375,2.801248 1.51,4.542498 3.8875,5.044998 3.06626,0.64875 4.80001,-1.01375 5.58626,-4.378748 0.1725,-0.7375 0.13375,-1.3525 -0.34125,-1.65 -0.90375,-0.56375 -3.38376,0.0225 -4.58376,-0.615 -1.4925,-0.79251 -1.87125,-4.16251 -1.5025,-5.73751 0.37,-1.57625 1.31125,-3.265 1.5675,-4.48 0.0525,-0.24625 0.0762,-0.47251 -0.0312,-0.59876 -0.0138,-0.0162 -0.0275,-0.0312 -0.04,-0.045 -3.61,-0.8225 -4.4875,13.21627 -4.5425,12.46002 z m -125.006126,-45.41505 0.21563,-2.66125 -3.775506,0.84375 c -18.355019,4.10375 -4.139379,-27.11253 -7.656133,-21.40127 -4.050254,6.5775 -5.82163096,14.43126 -4.99925496,21.45627 0.08975,0.76625 0.187625,1.46375 0.307125,2.10125 1.91587696,10.24251 15.27738896,7.44501 15.90813896,-0.33875 z m 55.24606,-19.30252 c -0.0775,2.8725 0.56125,3.49126 2.3175,2.38 1.195,-0.75625 23.74252,-20.28127 25.76378,-23.46252 0.813746,-1.28 1.507496,-3.4462496 1.604996,-5.3262496 0.06,-1.15751 -0.27375,-1.07251 -1.429996,-0.45876 -2.68126,1.42126 -27.15503,22.9900296 -27.60128,24.0900296 -0.4175,1.0275 -0.63625,2.065 -0.655,2.7775 z m 9.41626,-12.49251 -0.175,-4.005 c -0.07,-1.61751 -0.0475,-1.90751 0.23375,-2.90001 0.20875,-0.735 0.42875,-1.54 0.9875,-2.05875 1.36,-1.2625 4.7275,-0.82625 6.28876,-1.86625 2.2475,-1.4987496 2.24875,-6.6450096 0.52,-8.7312596 -1.83501,-2.21250005 -5.54376,1.30125 -7.06251,3.31125 -0.93375,1.23375 -1.8175,2.64876 -2.215,4.30001 -0.18375,0.7662496 -0.28625,1.6349996 -0.43,2.3949996 l -0.70625,3.725 -2.33001,-2.965 c -3.18875,-4.1999996 -2.21625,-5.4487496 -6.9025,-6.5912596 -1.57001,-0.3825 -4.97501,-0.23875 -5.63001,1.52876 -0.51125,1.38375 0.69,4.7474996 1.44375,5.5462496 0.57875,0.61375 2.92375,2.13875 3.89251,2.2325 1.58375,0.1525 4.8175,-0.81125 4.8175,-0.81125 0,0 2.61,3.75751 4.205,5.52251 0.69626,0.77 1.27126,1.39 2.16376,1.40625 0.3675,0.007 0.89875,-0.0388 0.89875,-0.0388 z m -42.7013,-8.26876 -5.17625,5.14251 c -0.86,0.85375 -0.9825,1.0075 -1.2225,1.53375 -0.3375,0.7375 -0.45375,1.96875 -0.28875,2.13625 0.53625,0.54125 2.4325,-0.77125 3.09125,-1.25875 5.77876,-4.26126 8.41126,-6.94501 9.34501,-12.4625096 0.475,-2.80376 -1.01,-3.89001 -3.6375,-4.24751 -4.16876,-0.5675 -8.30626,0.0125 -9.92501,3.15126 0.2525,11.9837596 0.60875,5.1312496 4.14375,4.2799996 3.9325,-0.94625 8.16126,-3.0487496 3.67,1.725 z m 89.991346,29.60503 c 0.20375,2.8 1.51,4.54251 3.8875,5.04501 3.06625,0.64875 4.8,-1.015 5.58626,-4.37876 0.1725,-0.7375 0.13375,-1.3525 -0.34126,-1.65 -0.90375,-0.56375 -3.385,0.0225 -4.58375,-0.615 -1.4925,-0.7925 -1.8725,-4.1625 -1.5025,-5.73751 0.36875,-1.57625 1.31125,-3.265 1.5675,-4.48 0.0513,-0.24625 0.075,-0.4725 -0.0312,-0.59875 -0.0137,-0.0163 -0.0275,-0.0312 -0.0412,-0.045 -3.60875,-0.82375 -4.48625,13.21501 -4.54125,12.46001 z m -45.713796,26.32878 0.69875,-0.0125 c 0.315,-0.005 0.39875,-0.19625 0.8425,-1.91125 2.55375,-9.85876 3.02,-15.30252 -3.26125,-21.62628 -1.035,-1.04125 -2.24125,-1.915 -3.01751,-0.98125 -0.52625,0.63375 -1.06375,5.10251 -0.82375,6.07876 0.42,1.7075 1.66501,2.26125 3.10251,3.42 3.2475,2.61751 4.06,4.58251 3.6475,8.06876 -0.3175,2.67625 -1.18875,6.96376 -1.18875,6.96376 z m 41.723786,-47.66505 -0.175,-4.005 c -0.0713,-1.61751 -0.0475,-1.90751 0.23375,-2.90001 0.20875,-0.735 0.42875,-1.54 0.98625,-2.05875 1.36,-1.2625 4.72751,-0.82625 6.29001,-1.86625 2.2475,-1.4987496 2.24875,-6.6450096 0.51875,-8.7312596 -1.83375,-2.21250005 -5.54251,1.30125 -7.06251,3.31125 -0.9325,1.23375 -1.81625,2.64876 -2.21375,4.30001 -0.185,0.7662496 -0.28625,1.6349996 -0.43,2.3949996 l -0.70625,3.725 -2.33,-2.965 c -3.18876,-4.1999996 -2.21626,-5.4487496 -6.90251,-6.5912596 -1.57,-0.3825 -4.97626,-0.23875 -5.63001,1.52876 -0.5125,1.38375 0.69,4.7474996 1.44376,5.5462496 0.57875,0.61375 2.92375,2.13875 3.8925,2.2325 1.5825,0.1525 4.8175,-0.81125 4.8175,-0.81125 0,0 2.61001,3.75751 4.20501,5.52251 0.695,0.77 1.27125,1.39 2.1625,1.40625 0.36875,0.007 0.9,-0.0388 0.9,-0.0388 z m -79.416326,32.25253 c -1.4575,-0.235 -3.085,0.0362 -5.0225,0.93625 -5.50751,2.55751 -7.44251,8.08751 -6.81751,14.37377 0.585,5.9 2.9775,8.24126 8.63501,7.50001 3.56,-0.46626 10.14251,-2.35876 10.14251,-2.35876 0,0 1.67125,3.79626 2.24375,5.76751 0.61625,2.1275 -0.3125,2.545 -2.84125,3.9775 -9.81626,5.55751 -23.25003,10.25126 -34.65666,7.10126 -2.035629,-0.5625 -3.866506,-1.515 -5.428258,-2.76875 -9.408009,-7.54876 -2.755378,-29.41628 -4.76013,-25.04628 -4.462379,9.72626 -6.88113096,19.05627 -3.731128,27.53128 0.66825,1.7975 1.580126,3.295 2.686002,4.5375 10.977014,12.322518 35.301414,1.66501 45.635174,-4.405 4.5575,-2.6775 3.64375,-3.15125 8.16376,-13.03001 0.3425,-0.75 0.3325,-1.75126 0.045,-3.12501 -0.25875,-1.24 -0.74501,-2.78375 -1.24251,-4.2075 -4.38625,-12.56501 -10.99751,-16.45127 -13.05126,-16.78377 z m 2.7475,13.11377 0,0.60625 -4.93125,0 c -1.535,0 -1.75125,-0.0137 -2.165,-0.14 -0.92375,-0.2775 -1.8475,-1.24376 -1.99501,-2.01876 -0.1275,-0.67875 0,-1.81875 0,-1.81875 0,0 3.11751,-0.675 4.43251,-0.5675 0.585,0.0475 2.59,1.30875 3.6375,2.4875 0.91875,1.03375 1.02125,1.17875 1.02125,1.45126 z m 41.6963,29.49252 c 0.7825,-0.22625 1.62375,-0.0125 2.5875,0.88626 0.695,0.65 1.1625,1.4275 1.56125,2.1225 3.01875,4.676248 10.797506,-5.71876 11.941256,-8.16626 0.32625,-0.7 0.54625,-1.32 0.765,-1.86 0.12125,-0.73 0.125,-1.285 -0.065,-1.47125 -0.29625,-0.29 -1.02375,-0.10875 -1.73625,0.30125 -4.04375,2.32875 -5.287496,7.08375 -8.268756,5.16 -3.41875,-2.2075 -3.405,-4.9475 -6.09625,-3.75625 -0.14625,0.065 -2.54876,2.32 -5.06251,4.8975 -25.86877,26.518778 1.69625,3.11501 4.37376,1.88625 z m 32.750026,-21.50252 c 0,0 -0.14875,-1.1375 0,-1.8975 0.22625,-1.155 3.36125,-2.8475 4.545,-3.5 3.22376,-1.7725 6.86876,-2.61375 8.23751,0.285 0.5875,1.24125 0.66875,3.0275 1.31375,4.45 0.70125,1.54875 2.21501,3.13501 1.24375,4.07126 -1.16,1.1175 -5.04875,-1.75501 -6.8175,-2.55626 -0.83,-0.37625 -1.71,-0.65625 -2.6175,-0.735 -1.22376,-0.105 -1.51126,-0.1175 -2.87376,-0.1175 l -3.03125,0 z m 19.62627,6.01376 c 0.415,-0.475 0.815,-0.965 1.11125,-1.46875 1.54125,-2.62125 -0.10125,-9.07126 -1.9125,-12.37876 -0.32125,-0.58626 -0.68,-1.14251 -0.89625,-1.75626 -1.1725,-3.33625 -0.35,-4.91375 -3.90751,-5.75 -4.335,-1.0175 -15.68126,5.92375 -17.71376,9.65876 -2.93126,5.385 0.135,8.89001 -6.62751,7.79876 -1.405,-0.22625 -9.93501,-1.64876 -11.837506,-2.97001 -0.4275,-0.29625 -0.65375,-0.6525 -0.67125,-1.15875 -0.25125,-7.08376 -4.07376,3.50875 -14.97252,4.69501 -1.5725,0.17125 -3,0.24375 -3.9,0.1575 -4.80626,-0.46125 -7.84376,-2.41126 -10.00001,-6.25001 -0.26375,-0.46875 -0.5225,-0.95625 -0.655,-1.4825 -0.1775,-0.71125 -0.215,-0.96 -0.3725,-2.485 l -3.05751,-29.56128 c -0.15875,-1.52626 -0.2475,-1.83876 -0.89125,-3.12626 -0.47875,-0.955 -0.745,-1.97875 -0.955,-3.04375 -0.98,-4.97501 -0.71625,-10.86376 -1.73875,-15.41127 -0.3525,-1.57125 -1.3375,-3.3325 -3.3175,-2.2725 -2.41626,1.295 -2.83251,6.94626 -2.64751,8.63626 0.63125,5.74876 2.76126,12.49626 3.95876,19.35002 2.0675,11.83126 2.58375,28.15878 4.27875,33.94128 2.31375,7.88876 7.87126,10.98627 16.42002,10.22751 2.575,-0.23 5.79875,-1.16375 7.58126,-2.2975 1.16625,-0.74125 2.445,-1.66125 3.56375,-2.43125 l 2.88,-1.9825 1.34875,1.95875 c 0.24875,0.36125 0.5275,0.735 0.875,1.05875 2.376256,2.22 15.557516,4.59751 17.998766,3.69375 1.26625,-0.47 2.33751,-1.3875 3.59001,-1.98875 2.44375,-1.1725 5.37125,-1.10375 7.95375,0 0.82876,0.35375 1.62626,0.8125 2.42751,1.20375 7.875,3.85126 8.87126,-0.88625 12.08626,-4.565 z m -34.59254,-31.72503 c 0.66625,1.78875 1.97751,3.96875 3.18501,4.32125 1.09625,0.32125 1.82375,-1.21625 1.84625,-2.12625 0.0288,-1.1825 0.004,-2.72125 -0.27625,-3.29 -0.2175,-0.44125 -0.5875,-0.29875 -1.265,-0.7675 -0.85125,-0.58751 -2.18875,-2.13751 -2.18875,-2.13751 0,0 3.89875,-4.18625 7.205,-7.46875 3.51876,-3.49501 21.21377,-17.54377 28.29378,-20.45377 0.66875,-0.27501 1.23125,-0.43126 1.43875,-0.0625 0.1675,0.295 -1.48875,7.44 0.595,5.37875 0.5775,-0.57 0.8575,-2.065 1.295,-3.36 0.69751,-2.06125 1.79251,-3.61251 3.38751,-4.95251 7.77251,-6.5237496 10.07001,-4.5987496 10.95751,-10.3875096 0.37875,-2.475 0.1125,-3.03625005 -2.02375,-2.31375 -2.36126,0.8 -5.74751,2.62375 -9.47001,4.88875 -5.72876,3.48376 -43.3638,27.9962796 -44.26505,36.4437896 -0.16375,1.5325 0.22375,3.445 1.285,6.28751 z" />
</svg>
