<?xml version="1.0" encoding="UTF-8" standalone="yes"?>
<svg xmlns="http://www.w3.org/2000/svg" xmlns:xlink="http://www.w3.org/1999/xlink"
  width="595.276pt" height="841.89pt" viewBox="0 0 595.276 841.89">
  <path
    style="stroke:none; fill:#000000"
    d="m 167.71492,91.694694 c 0,-1.13339 -0.33981,-1.4764 -1.6071,-1.62222 -1.28479,-0.14784 -1.72524,0.12577 -2.19608,1.36419 -0.79322,2.08631 -0.37279,2.54942 1.89366,2.08587 1.53278,-0.31348 1.90952,-0.67411 1.90952,-1.82784 z M 127.09179,106.6334 c 0,-0.43457 5.29336,-3.01757 10.08311,-4.92025 2.36913,-0.94112 5.2123,-2.26344 6.31816,-2.93848 1.10586,-0.67504 2.41464,-1.37112 2.9084,-1.54685 0.49377,-0.17573 1.80389,-1.64739 2.91139,-3.270336 3.89529,-5.70826 6.48066,-6.61461 8.07051,-2.82927 1.35658,3.22994 2.74831,3.08849 4.25439,-0.43244 2.40918,-5.6322 5.5087,-6.94183 8.75241,-3.69812 1.26024,1.26024 1.70855,2.26476 1.70855,3.82831 0,4.312636 -2.17408,6.417186 -7.36409,7.128546 -1.78388,0.24451 -2.80893,0.75974 -3.44607,1.73214 -1.19016,1.8164 -1.92812,1.75154 -2.15626,-0.18952 -0.14333,-1.21947 -0.61079,-1.68319 -2.07717,-2.06055 -1.31664,-0.33883 -2.00265,-0.92694 -2.25526,-1.93343 -0.2183,-0.869766 -0.78314,-1.446466 -1.41673,-1.446466 -1.01972,0 -4.08013,3.076816 -4.08013,4.102006 0,1.01305 -5.62669,6.34099 -7.03094,6.65762 -7.80973,1.76097 -9.79201,2.09949 -12.29401,2.09949 -1.58744,0 -2.88626,-0.12708 -2.88626,-0.2824 z M 16.685897,49.150009 c -0.9825,6.06625 -4.39,15.23125 1.2025,18.015 4.03,2.006254 6.92375,0.2625 7.80125,-4.09125 0.31875,-1.58375 0.14,-2.63625 -1.07375,-3.2825 -2.0275,-1.0775 -6.54,-0.78875 -7.6325,-1.9825 -0.4025,-0.44125 -0.38125,-1.07875 -0.23875,-1.86625 1.13,-6.20875 2.635,-7.02125 1.9875,-11.82625 -0.30875,-2.29375 -2.46875,-12.835 -5.5,-11.1325 -1.59875,0.89875 -2.3175,4.14875 -1.59625,5.2725 0.41875,0.6525 1.39,1.34 2.0425,2.07875 1.29625,1.46875 3.365,6.60625 3.0075,8.815 z M 162.24348,63.444828 c 0,0 0.58996,-1.35993 0.94682,-2.43737 0.60209,-1.81865 0.5051,-3.13233 0.26761,-5.01348 -0.66234,-5.24723 -1.68066,-17.13285 -1.68066,-17.13285 0,0 1.8269,-0.20624 3.22308,-0.16874 3.77593,0.0987 4.87624,1.8774 6.86239,-0.1075 1.29318,-1.29243 2.44987,-5.86969 1.62279,-7.5796 -0.94595,-1.95489 -4.15041,-2.89609 -5.62321,-1.30118 -0.67921,0.73621 -1.06669,1.8974 -1.84402,2.66236 -1.20381,1.18369 -3.34245,1.41868 -4.4019,2.40612 -1.81428,1.69117 -2.05776,13.50804 -1.72378,16.30664 0.56334,4.72226 2.35088,12.3656 2.35088,12.3656 z m -8.57954,-42.86529 -0.175,-4.00375 c -0.0712,-1.61875 -0.0475,-1.90875 0.23375,-2.9 0.20875,-0.73625 0.42875,-1.54 0.98625,-2.05875 1.36,-1.26375 4.7275,-0.82625 6.28875,-1.8674996 2.24875,-1.4975 2.25,-6.6450002 0.52,-8.7312502 -1.83375,-2.211251 -5.5425,1.30125 -7.0625,3.31125 -0.9325,1.235 -1.81625,2.6500002 -2.21375,4.3012502 -0.185,0.765 -0.28625,1.6337496 -0.43,2.3949996 l -0.70625,3.72375 -2.32988,-2.965 c -3.18925,-4.1999996 -2.21662,-5.4474996 -6.903,-6.5899998 -1.57012,-0.3825 -4.97525,-0.24 -5.62975,1.5287502 -0.51212,1.3825 0.69025,4.7474996 1.44338,5.5462496 0.57912,0.61375 2.92425,2.13875 3.893,2.2325 1.58287,0.1525 4.81725,-0.81125 4.81725,-0.81125 0,0 2.61037,3.7575 4.20525,5.52125 0.695,0.77 1.27125,1.39 2.1625,1.4075 0.36875,0.0062 0.9,-0.04 0.9,-0.04 z m -9.4535,22.66375 c -0.0515,-1.39625 -0.209,-3.14875 -0.66763,-3.58875 -0.26587,-0.25625 -0.63287,-0.07125 -0.86312,-0.20875 -1.03538,-0.62125 0.72587,-3.185 1.56512,-4.165 7.61788,-8.8925 27.36038,-19.9325 37.79163,-22.2175 0.995,-0.2175 1.9875,-0.3925 2.17625,-0.05625 0.0925,0.1675 -0.0125,0.46125 -0.1725,0.7925 -0.3775,0.78 -0.98,1.7225 -1.65,2.73375 -13.89125,20.9775 8.02125,-8.1337496 14.23875,-8.9524996 0.56875,-0.28 1.1025,-0.50625 1.57625,-0.65625 2.41875,-0.76125 5.04,-0.9225002 5.3575,-3.2425002 0.045,-0.325 0.0512,-0.73125 0.04,-1.12375 -0.105,-3.800001 -6.305,-1.98250102 -10.675,-0.32 -4.045,1.5375 -10.05,4.0725002 -16.42,7.0200002 -8.2425,3.8137496 -32.92088,15.2599996 -36.3935,25.2024996 -1.119,3.20375 -0.911,6.79375 1.31975,9.88125 0.0956,0.1325 0.1825,0.2525 0.26175,0.36 -1.007,-1.3675 2.73,4.3825 2.51475,-1.45875 z m -21.74512,-32.044207 -6.10093,6.06093 c -1.0137,1.00745 -1.15869,1.18869 -1.44242,1.80866 -0.39748,0.8687 -0.53498,2.32113 -0.33874,2.51862 0.63122,0.63746 2.8661,-0.90996 3.64356,-1.48368 6.81089,-5.02348 9.91323,-8.18706 11.01442,-14.6904695 0.55997,-3.30608 -1.18994,-4.58601004 -4.28852,-5.00724003 -4.91349,-0.66996 -9.78949,0.015 -11.69939,3.71481003 0.29874,14.1254995 0.71747,6.0471795 4.88475,5.04473 4.636,-1.11494 9.62074,-3.59356 4.32727,2.0336395 z m -55.945284,0 -6.10093,6.06093 c -1.0137,1.00745 -1.15869,1.18869 -1.44242,1.80866 -0.39748,0.8687 -0.53498,2.32113 -0.33874,2.51862 0.63122,0.63746 2.8661,-0.90996 3.64356,-1.48368 6.81089,-5.02348 9.91323,-8.18706 11.01442,-14.6904695 0.55997,-3.30608 -1.18994,-4.58601004 -4.28852,-5.00724003 -4.91349,-0.66996 -9.78949,0.015 -11.69939,3.71481003 0.29874,14.1254995 0.71747,6.0471795 4.88475,5.04473 4.636,-1.11494 9.62074,-3.59356 4.32727,2.0336395 z M 32.518782,20.383054 31.952532,9.5693033 c -0.08375,-1.6037498 -0.1175,-1.8824998 -0.33125,-2.7912498 -0.655,-2.78625 -2.41875,-4.31125 -4.26375,-5.2962495 -2.34375,-1.25249996 -4.13375,-1.71749996 -6.55,0.045 -1.9875,1.4499995 -2.175,6.6999995 -1.39375,7.5199995 0.5825,0.6124998 2.1275,0.5574998 3.99625,0.11875 4.66875,-1.09625 5.13625,-0.84375 6.3525,4.0937505 0.5775,2.34625 0.64625,4.54375 0.3625,6.90375 -0.60375,5.01 -2.0225,7.4475 0.75625,10.38875 1.1575,1.225 2.365,1.41 5.00375,0.86625 1.875,-0.38625 2.2475,-1.25625 3.03375,-3.8525 0.5525,-1.8275 0.99,-3.465 0.84875,-5.2875 -0.28125,-3.615 -4.19,-10.41 0.52125,-12.097501 0.86875,-0.3124997 1.99875,-0.10875 2.97375,0.10375 1.31375,0.286251 1.53625,0.156251 2.22875,-1.2974995 0.57,-1.19625 1.22875,-2.29625 1.59,-3.58375 1.36,-4.82999946 -0.72125,-6.1937495 -4.8975,-4.2149995 -4.79125,2.2699995 -6.9425,11.995 -5.91875,18.515 0.3125,2.6875 0.65625,5.1075 0.65625,5.1075 0,0 -0.28625,-0.0038 -0.6275,-0.03625 -1.34125,-0.1325 -3.645,-1.9125 -3.775,-4.39125 z M 101.29694,9.6704637 c 0.56493,-1.2399 0.47764,-1.5686904 -0.62074,-2.3380204 -1.950059,-1.36588 -5.109545,-1.01047 -5.109545,0.57476 0,0.7615504 3.238242,3.0665407 4.436095,3.1576307 0.35025,0.0267 0.93263,-0.60083 1.29419,-1.3943703 z M 42.961156,44.078824 c -3.969344,-0.72874 -4.389654,-0.89671 -3.495676,-1.39701 0.479375,-0.26827 2.842905,-0.76981 5.252288,-1.11453 11.134907,-1.59314 23.411098,-6.47617 36.820754,-14.64597 8.818459,-5.37262 10.555755,-6.60222 13.305041,-9.41685 1.726974,-1.76802 1.810079,-2.00685 0.879535,-2.52761 -2.766231,-1.54806 -3.65306,-3.00795 -4.032504,-6.6382903 l -0.379268,-3.6286104 2.35115,-2.35115 c 2.653059,-2.653056 4.606424,-2.994746 7.964804,-1.393248 3.17103,1.512158 4.05036,4.760698 2.65196,9.7971987 -0.69499,2.50309 -0.32536,3.6678 2.32208,7.3169 1.93502,2.66712 2.04271,7.91669 0.24079,11.73778 l -1.24036,2.63027 -0.0493,-4.56834 c -0.0541,-5.01484 -0.33715,-5.81392 -3.1255,-8.82257 l -1.89202,-2.04154 -5.260554,5.01963 c -7.316992,6.98189 -11.989664,10.60952 -18.174487,14.10978 -6.737467,3.81303 -8.669661,4.62358 -15.142328,6.35213 -5.082928,1.35742 -15.496229,2.22464 -18.996431,1.58203 z m 47.483986,6.92696 c -2.405346,-2.12196 -3.771406,-8.40805 -2.508681,-11.54398 0.39944,-0.992 0.694258,-0.66883 1.947006,2.1342 1.559998,3.49051 2.763898,4.31797 5.341229,3.6711 1.459195,-0.36624 1.51097,-0.28806 1.51097,2.28127 0,2.08667 -0.280183,2.85674 -1.299069,3.5704 -1.705587,1.19463 -3.556705,1.15274 -4.991455,-0.11299 z m 46.425358,9.54939 -3.8965,-3.92658 3.94592,-3.90584 3.94591,-3.90584 4.31147,3.92944 4.31148,3.92945 -4.3609,3.90298 -4.36089,3.90297 -3.89649,-3.92658 z m -26.65243,3.2067 c 1.7468,-0.29778 4.42538,-0.70844 5.9524,-0.91257 2.53488,-0.33887 2.77563,-0.50788 2.76746,-1.94274 -0.0123,-2.16874 -0.40245,-2.61339 -4.12986,-4.70734 -4.86034,-2.73041 -5.98467,-2.52102 -11.097,2.06673 -2.38982,2.1446 -4.533924,4.38034 -4.764675,4.9683 -0.383132,0.97626 -0.05003,1.06903 3.838065,1.06903 2.34168,0 5.68681,-0.24363 7.43361,-0.54141 z m -41.604415,5.62204 c 1.423925,-0.19722 -4.001204,-5.24026 -6.769573,-6.29279 -1.724631,-0.65571 -2.723364,-0.0451 -4.016575,2.4557 -1.273035,2.46178 -1.038171,3.34727 1.029962,3.88318 1.566194,0.40584 6.667243,0.38174 9.756186,-0.0461 z m 110.052965,2.51794 c 0.2533,-2.65609 0.24391,-2.65881 -4.19172,-1.21235 -5.31029,1.73169 -4.53029,3.20101 1.83825,3.4628 2.07635,0.0854 2.13617,0.0282 2.35347,-2.25045 z M 46.887574,106.33415 c -4.820085,-1.13499 -8.063588,-4.12475 -11.152563,-10.280079 -0.835564,-1.66501 -1.781602,-3.18946 -2.102306,-3.38766 -0.578079,-0.35728 -1.686051,0.31119 -7.329956,4.42233 -1.60739,1.17085 -4.106152,2.550496 -5.552803,3.065889 -2.84669,1.01416 -14.559133,2.73811 -18.38845,2.70657 L 0,102.8417 1.455686,101.63076 c 0.800627,-0.66602 2.68821,-1.835513 4.194628,-2.598873 3.947377,-2.000286 15.203186,-9.425366 20.652435,-13.623726 4.892368,-3.76931 5.371149,-4.53259 5.539007,-8.83032 0.120611,-3.088057 1.376922,-6.949587 1.956097,-6.012467 0.219166,0.35462 0.762648,2.18128 1.207739,4.05925 l 0.809255,3.414487 3.888716,-4.000417 3.888716,-4.00041 -1.417398,-2.42915 c -0.779568,-1.33603 -2.389636,-4.27034 -3.577928,-6.52069 -1.188292,-2.25034 -2.595031,-4.5746 -3.126087,-5.16502 -1.348987,-1.49978 -1.311419,-7.24739 0.06106,-9.34206 0.564639,-0.86175 1.545816,-1.56682 2.180392,-1.56682 0.634576,0 3.061517,1.80611 5.393202,4.01357 2.331684,2.20746 4.831238,4.19789 5.554564,4.42318 1.938936,0.6039 1.609377,1.39158 -1.022885,2.44481 -1.285912,0.51451 -2.338022,1.18043 -2.338022,1.47981 0,0.29938 0.526055,1.57548 1.169011,2.83578 1.329008,2.60507 1.435129,5.10959 0.529415,12.49461 -0.59827,4.878177 -0.793255,5.380987 -3.262111,8.412077 -1.444195,1.77309 -3.062169,4.13884 -3.595498,5.25725 l -0.969689,2.03346 2.625269,2.32972 c 4.203795,3.73054 6.653932,4.72154 11.548155,4.67084 10.074704,-0.10438 19.343039,-8.00092 17.894096,-15.24563 -0.42839,-2.14195 -0.542082,-2.15584 -6.913292,-0.84439 -5.649043,1.1628 -7.905241,0.60618 -9.740212,-2.40296 -2.132283,-3.496697 -1.038888,-12.631937 2.075125,-17.337527 3.559404,-5.37862 6.397722,-5.06048 12.960415,1.4527 2.298814,2.28148 4.295596,4.53265 4.437286,5.00262 0.207961,0.68978 0.925599,0.52079 3.72337,-0.87676 1.90616,-0.95218 3.739048,-2.29499 4.073075,-2.98403 1.653654,-3.41117 4.629635,-4.27189 6.278408,-1.81586 1.475198,2.19748 3.342401,3.94542 4.214618,3.94542 0.454283,0 3.008555,-2.81592 5.676162,-6.2576 7.04244,-9.08596 9.56638,-11.66911 12.49417,-12.78724 2.6884,-1.02671 5.83927,-0.86653 8.71328,0.44296 2.02041,0.92056 4.45799,4.75412 6.1109,9.61057 l 1.36925,4.02301 -1.6211,5.08796 c -1.43312,4.49794 -1.88326,5.26143 -3.88176,6.58398 -2.59923,1.72009 -2.78518,2.55142 -0.94551,4.22703 2.72557,2.482507 3.74819,2.682497 11.46755,2.242727 8.71243,-0.49635 11.0102,-1.28936 14.05398,-4.850267 l 2.26078,-2.64489 2.04165,2.04166 c 2.10718,2.10718 4.26574,2.78212 8.93811,2.79476 2.32503,0.006 2.40488,-0.0618 3.68076,-3.14013 2.41911,-5.83654 10.4759,-11.02779 17.2645,-11.12408 l 3.50704,-0.0497 0.76422,2.92253 c 0.42033,1.60739 1.29967,4.68616 1.95409,6.84171 l 1.18985,3.91919 -1.25384,2.510367 c -2.04829,4.10093 -4.85828,7.96656 -6.01782,8.27852 -0.59611,0.16038 -3.3579,-0.21131 -6.13731,-0.82598 -6.5094,-1.43956 -9.64767,-1.42826 -12.69247,0.0457 -1.3504,0.65372 -3.73494,1.33812 -5.29897,1.5209 -2.4839,0.29028 -3.35336,0.066 -6.87218,-1.77309 -2.21568,-1.15798 -4.36656,-2.10541 -4.77975,-2.10541 -0.41318,0 -1.2442,0.62669 -1.8467,1.39265 -2.46888,3.13867 -10.02404,5.62522 -17.07029,5.61816 -4.35888,-0.004 -7.58798,-0.9524 -9.55073,-2.80399 -1.80768,-1.70532 -3.34716,-6.14009 -3.34716,-9.64213 l 0,-2.300607 -4.23767,0.35033 c -2.33071,0.19268 -6.95483,0.52199 -10.275796,0.7318 l -6.038135,0.38148 -0.938067,1.967147 c -1.094095,2.29434 -2.475065,2.59783 -2.475065,0.54393 0,-3.226737 -3.644615,-8.513377 -5.869126,-8.513377 -2.38179,0 -4.644312,4.97734 -6.114618,13.451577 -1.213042,6.99148 -2.852165,10.12056 -8.274582,15.796136 -5.766679,6.035923 -9.838271,8.185833 -15.343744,8.101923 -2.11863,-0.0323 -4.846955,-0.29299 -6.062945,-0.57933 z M 109.88704,91.694694 c 0,-1.13339 -0.33981,-1.4764 -1.6071,-1.62222 -1.28479,-0.14784 -1.72524,0.12577 -2.19608,1.36419 -0.79322,2.08631 -0.37279,2.54942 1.89366,2.08587 1.53278,-0.31348 1.90952,-0.67411 1.90952,-1.82784 z M 69.263905,106.6334 c 0,-0.43457 5.293358,-3.01757 10.083112,-4.92025 2.369131,-0.94112 5.2123,-2.26344 6.318161,-2.93848 1.105855,-0.67504 2.414639,-1.37112 2.9084,-1.54685 0.493767,-0.17573 1.803889,-1.64739 2.911387,-3.270336 3.895291,-5.70826 6.480659,-6.61461 8.070508,-2.82927 1.356587,3.22994 2.748317,3.08849 4.254397,-0.43244 2.40918,-5.6322 5.5087,-6.94183 8.75241,-3.69812 1.26024,1.26024 1.70855,2.26476 1.70855,3.82831 0,4.312636 -2.17408,6.417186 -7.36409,7.128546 -1.78388,0.24451 -2.80893,0.75974 -3.44607,1.73214 -1.19016,1.8164 -1.92812,1.75154 -2.15626,-0.18952 -0.14333,-1.21947 -0.61079,-1.68319 -2.077172,-2.06055 -1.31664,-0.33883 -2.002651,-0.92694 -2.255262,-1.93343 -0.218295,-0.869766 -0.783138,-1.446466 -1.416725,-1.446466 -1.019722,0 -4.080135,3.076816 -4.080135,4.102006 0,1.01305 -5.62669,6.34099 -7.030935,6.65762 -7.809731,1.76097 -9.792011,2.09949 -12.294017,2.09949 -1.587441,0 -2.886259,-0.12708 -2.886259,-0.2824 z"/>
</svg>