<?xml version="1.0" encoding="UTF-8" standalone="no"?>
<svg>
  <path
     style="fill:#000000;stroke:none"
     d="m 19.66559,20.266861 -0.175,-4.00375 c -0.07125,-1.61875 -0.0475,-1.90875 0.23375,-2.9 0.20875,-0.73625 0.42875,-1.54 0.98625,-2.05875 1.36,-1.26375 4.7275,-0.82625 6.28875,-1.8674999 2.24875,-1.4975 2.25,-6.645 0.52,-8.73125003 -1.83375,-2.21124997 -5.5425,1.30125003 -7.0625,3.31125003 -0.9325,1.235 -1.81625,2.65 -2.21375,4.30125 -0.185,0.765 -0.28625,1.63375 -0.43,2.3949999 l -0.70625,3.72375 -2.329875,-2.965 C 11.587715,7.2718611 12.56034,6.0243611 7.8739661,4.8818611 c -1.5701253,-0.3825 -4.9752503,-0.24 -5.6297503,1.52875 -0.512125,1.3825 0.69025,4.7474999 1.443375,5.5462499 0.579125,0.61375 2.9242503,2.13875 3.8930003,2.2325 1.582875,0.1525 4.8172489,-0.81125 4.8172489,-0.81125 0,0 2.610375,3.7575 4.20525,5.52125 0.695,0.77 1.27125,1.39 2.1625,1.4075 0.36875,0.0062 0.9,-0.04 0.9,-0.04 z m 26.475954,30.007751 0.69875,-0.0125 c 0.31375,-0.005 0.3975,-0.19625 0.84125,-1.91 2.55375,-9.86 3.02,-15.30375 -3.26125,-21.62625 -1.035,-1.04125 -2.24,-1.915 -3.01625,-0.9825 -0.5275,0.63375 -1.065,5.10375 -0.825,6.08 0.42,1.70625 1.665,2.26 3.1025,3.42 3.2475,2.6175 4.06125,4.58125 3.6475,8.0675 -0.31625,2.67625 -1.1875,6.96375 -1.1875,6.96375 z M 10.21209,42.930611 c -0.0515,-1.39625 -0.209,-3.14875 -0.6676239,-3.58875 -0.265875,-0.25625 -0.632875,-0.07125 -0.863125,-0.20875 -1.035375,-0.62125 0.725875,-3.185 1.5651239,-4.165 7.617875,-8.8925 27.360375,-19.9325 37.791625,-22.2175 0.995,-0.2175 1.9875,-0.3925 2.17625,-0.05625 0.0925,0.1675 -0.0125,0.46125 -0.1725,0.7925 -0.3775,0.78 -0.98,1.7225 -1.65,2.73375 -13.89125,20.9775 8.02125,-8.1337499 14.23875,-8.9524999 0.56875,-0.28 1.1025,-0.50625 1.57625,-0.65625 2.41875,-0.76125 5.04,-0.9225 5.3575,-3.2425 0.045,-0.325 0.05125,-0.73125 0.04,-1.12375 -0.105,-3.8 -6.305,-1.98250003 -10.675,-0.32 -4.045,1.5375 -10.05,4.0725 -16.42,7.02 C 34.26684,12.759361 9.5884661,24.205611 6.1158408,34.148111 c -1.119,3.20375 -0.911,6.79375 1.3197503,9.88125 0.09563,0.1325 0.1825,0.2525 0.26175,0.36 -1.007,-1.3675 2.7299989,4.3825 2.5147489,-1.45875 z m 20.253612,60.447619 3.88246,1.6411 c 1.99913,0.23691 4.4641,0.45652 6.3075,0.38465 3.47519,-0.13842 9.1345,-1.43879 11.12032,-3.95167 1.77685,-2.24802 1.98448,-3.20367 4.09009,-2.3545 1.03816,0.41926 2.245364,1.13399 3.565694,1.61181 2.99603,1.08342 3.04527,1.06878 5.03642,-1.91261 0.86779,-1.30037 1.76487,-2.30259 2.02441,-3.891776 0.12644,-0.78128 0.14242,-1.03683 0.12112,-2.32921 -0.0732,-4.35629 -0.55635,-4.95257 -5.30927,-2.66328 -0.67613,0.32475 -1.26576,0.6402 -1.504,0.81455 -0.98759,0.72139 -1.62779,1.85805 -2.560804,2.65131 -0.89176,0.75999 -2.05104,1.20453 -2.83631,1.87535 -1.11536,0.954306 -1.47473,2.366466 -2.28662,3.429916 -0.45919,0.60161 -11.68598,2.74315 -18.52853,4.06082 l -3.12248,0.63354 z m 31.365814,-9.818616 1.66905,-0.0293 0.0639,3.649536 c 0,0 -0.43789,0.0253 -0.83452,0.0146 -1.35494,-0.0346 -4.37625,-1.550586 -4.42018,-2.269306 -0.0146,-0.22361 0.86913,-0.89309 1.93258,-1.16062 0.68013,-0.17169 0.83852,-0.19166 1.58919,-0.20497 z m 10.91401,-22.71005 0.23958,2.74448 c 0,0 -0.93302,0.16105 -1.69833,0.14774 -0.52174,-0.008 -1.81944,-0.41127 -2.86293,-0.89575 -1.71962,-0.79859 -1.89797,-1.40684 -1.3962,-1.85671 0.93036,-0.83453 7.77823,-5.06038 5.71788,-0.13976 z M 8.7814221,86.332824 c 5.4050999,1.63976 12.7041799,1.32565 16.8608199,0.64819 0.80924,-0.1331 2.21342,-0.34872 3.82922,-0.62024 4.709,-0.78927 12.12787,-1.54926 14.501,-6.49916 0.68811,-1.43346 0.94499,-2.45565 2.31058,-1.79283 1.48537,0.72272 2.93081,3.6003 4.50668,4.68771 1.28972,0.88909 4.04218,0.95697 5.91886,0.28349 1.712974,-0.61491 2.998694,-1.94056 4.361614,-1.98581 1.32166,-0.0439 2.71386,1.11935 4.43215,1.75156 2.68858,0.99025 6.54176,1.15396 8.2494,-0.45386 0.83053,-0.78262 1.43879,-1.98582 2.13356,-3.12913 1.71163,-2.81502 3.89044,-6.85986 3.84652,-7.99518 -0.10248,-2.58343 -2.14553,-6.08922 -1.63444,-8.09766 0.3181,-1.24846 0.58297,-1.45476 -0.3181,-1.98848 -3.49249,-2.06568 -7.2139,-0.93967 -11.09902,1.50533 -1.47739,0.92902 -2.90153,2.27198 -3.68015,3.79861 -1.10072,2.16151 -2.36116,6.62427 -2.36116,6.62427 l -3.895774,0.34073 c -1.43346,0.12512 -1.70098,0.0719 -2.68191,-0.54037 -0.72805,-0.45387 -1.323,-1.02885 -1.88201,-1.73427 -2.02175,-2.55813 -2.75246,-4.80749 -4.03286,-3.92638 -1.13399,0.77995 -2.14287,3.81325 -3.5923,5.39578 -2.33188,2.54483 -17.98417,4.90332 -23.1457,5.08434 C 11.204883,78.048196 6.8184586,74.010781 5.0414422,70.574254 4.3716062,69.157799 2.5768147,66.40039 2.9062384,62.268187 3.043107,60.551344 2.87744,60.115791 1.6899821,61.160024 c -0.50577,2.87092 -1.01553998,5.84299 -1.34029998,7.74363 -2.04305002,11.98278 5.40376998,16.51077 8.43173998,17.42914 z M 26.441767,51.59769 l -4.76889,-4.768894 -6.97432,6.975654 6.97432,6.97565 4.76889,-4.76889 4.76889,4.76889 6.97565,-6.97565 -6.97565,-6.975654 -4.76889,4.768894 z m 36.533059,8.391104 c 0,0 0.62822,-1.4481 1.00888,-2.5954 0.64153,-1.93525 0.53771,-3.3341 0.28483,-5.33855 -0.70542,-5.58745 -1.79017,-18.24371 -1.79017,-18.24371 0,0 1.94589,-0.21828 3.43259,-0.17968 4.02089,0.10648 5.19215,1.99913 7.30707,-0.11313 1.37756,-1.37623 2.60871,-6.25027 1.72894,-8.07105 -1.00755,-2.08165 -4.42018,-3.0852 -5.98807,-1.38554 -0.72405,0.78394 -1.13665,2.02042 -1.96452,2.83365 -1.28173,1.26176 -3.55903,1.51065 -4.68637,2.56213 -1.93258,1.80081 -2.19212,14.38387 -1.83542,17.36526 0.59894,5.02843 2.50224,13.16602 2.50224,13.16602 z" />
</svg>
