<?xml version="1.0" encoding="UTF-8" standalone="no"?>
<svg>
  <path
     style="fill:#000000;stroke:none"
     d="m 63.272024,97.559614 1.66905,-0.0293 0.0639,3.649536 c 0,0 -0.43789,0.0253 -0.83452,0.0146 -1.35494,-0.0346 -4.37625,-1.550586 -4.42018,-2.269306 -0.0146,-0.22361 0.86913,-0.89309 1.93258,-1.16062 0.68013,-0.17169 0.83852,-0.19166 1.58919,-0.20497 z M 50.54522,21.704564 50.35888,17.417494 c -0.0759,-1.73427 -0.0506,-2.04438 0.25022,-3.1065 0.22361,-0.78794 0.45919,-1.64908 1.0568,-2.20543 1.45609,-1.35227 5.06304,-0.8851 6.73474,-1.99913 C 60.808384,8.5012734 60.809714,2.9897036 58.956994,0.75632355 56.99247,-1.6128164 53.02083,2.1498536 51.39438,4.3020436 c -0.99956,1.32166 -1.94589,2.8376398 -2.3718,4.6065098 -0.19699,0.81855 -0.30613,1.7489006 -0.46052,2.5634606 l -0.75599,3.98894 -2.49559,-3.17438 C 41.8952,7.7878734 42.93735,6.4515736 37.91824,5.2284036 c -1.68236,-0.40994 -5.32924,-0.25688 -6.02933,1.6357698 -0.54836,1.48271 0.73869,5.0843306 1.54527,5.9401506 0.62023,0.6575 3.13178,2.29061 4.16995,2.39044 1.69433,0.16371 5.15886,-0.8678 5.15886,-0.8678 0,0 2.79506,4.02354 4.5027,5.91353 0.74535,0.82387 1.36159,1.48936 2.31723,1.50667 0.39397,0.008 0.9623,-0.0426 0.9623,-0.0426 z m -10.12342,24.2717 c -0.0546,-1.49468 -0.2236,-3.37136 -0.71473,-3.84386 -0.28483,-0.27418 -0.67747,-0.0745 -0.92503,-0.2236 -1.1087,-0.66549 0.77729,-3.40997 1.67703,-4.45878 8.15889,-9.52447 29.301464,-21.34887 40.472354,-23.7952 1.06612,-0.23293 2.12957,-0.42059 2.33055,-0.0599 0.0998,0.17835 -0.0133,0.49379 -0.18501,0.84916 -0.40329,0.83453 -1.04881,1.84474 -1.76621,2.92682 -14.87766,22.46557 8.59013,-8.7112406 15.24901,-9.5870206 0.60959,-0.30081 1.18057,-0.54304 1.68768,-0.70276 2.591406,-0.8158898 5.398436,-0.9889198 5.737836,-3.4725198 0.0492,-0.34872 0.0559,-0.78261 0.0439,-1.20453 -0.11313,-4.0688 -6.753376,-2.12291005 -11.433086,-0.34207 -4.331,1.64775 -10.76361,4.36162 -17.58487,7.5186898 C 66.184184,13.664134 39.75363,25.923764 36.03488,36.571584 c -1.19788,3.42993 -0.9756,7.27512 1.4135,10.5826 0.10249,0.14108 0.19566,0.26886 0.28084,0.38465 -1.07942,-1.46407 2.92282,4.69303 2.69256,-1.56257 z m 23.993534,14.01253 c 0,0 0.62822,-1.4481 1.00888,-2.5954 0.64153,-1.93525 0.53771,-3.3341 0.28483,-5.33855 -0.70542,-5.58745 -1.79017,-18.24371 -1.79017,-18.24371 0,0 1.94589,-0.21828 3.43259,-0.17968 4.02089,0.10648 5.19215,1.99913 7.30707,-0.11313 1.37756,-1.37623 2.60871,-6.25027 1.72894,-8.07105 -1.00755,-2.08165 -4.42018,-3.0852 -5.98807,-1.38554 -0.72405,0.78394 -1.13665,2.02042 -1.96452,2.83365 -1.28173,1.26176 -3.55903,1.51065 -4.68637,2.56213 -1.93258,1.80081 -2.19212,14.38387 -1.83542,17.36526 0.59894,5.02843 2.50224,13.16602 2.50224,13.16602 z M 3e-5,56.416454 c 0.21562,2.98272 1.60782,4.83677 4.13801,5.37182 3.26488,0.69078 5.11228,-1.08075 5.94947,-4.66241 0.18234,-0.78528 0.14108,-1.44012 -0.36469,-1.75689 -0.96097,-0.60027 -3.60296,0.024 -4.8807,-0.65484 -1.58785,-0.84384 -1.99247,-4.43216 -1.59983,-6.10919 0.39397,-1.67836 1.3962,-3.47651 1.66905,-4.77022 0.0559,-0.2622 0.0812,-0.50311 -0.0333,-0.63754 -0.0133,-0.0173 -0.028,-0.0333 -0.0426,-0.0479 C 0.99291,42.273504 0.05856,57.221704 0,56.416464 z m 54.80298,-8.57549 4.768894,-4.76889 -6.975654,-6.97432 -6.97565,6.97432 4.76889,4.76889 -4.76889,4.76889 6.97565,6.97565 6.975654,-6.97565 -4.768894,-4.76889 z m -44.58108,38.49186 c 5.4051,1.63976 12.70418,1.32565 16.86082,0.64819 0.80924,-0.1331 2.21342,-0.34872 3.82922,-0.62024 4.709,-0.78927 12.12787,-1.54926 14.501,-6.49916 0.68811,-1.43346 0.94499,-2.45565 2.31058,-1.79283 1.48537,0.72272 2.93081,3.6003 4.50668,4.68771 1.28972,0.88909 4.04218,0.95697 5.91886,0.28349 1.712974,-0.61491 2.998694,-1.94056 4.361614,-1.98581 1.32166,-0.0439 2.71386,1.11935 4.43215,1.75156 2.68858,0.99025 6.54176,1.15396 8.2494,-0.45386 0.83053,-0.78262 1.43879,-1.98582 2.13356,-3.12913 1.71163,-2.81502 3.89044,-6.85986 3.84652,-7.99518 -0.10248,-2.58343 -2.14553,-6.08922 -1.63444,-8.09766 0.3181,-1.24846 0.58297,-1.45476 -0.3181,-1.98848 -3.49249,-2.06568 -7.2139,-0.93967 -11.09902,1.50533 -1.47739,0.92902 -2.90153,2.27198 -3.68015,3.79861 -1.10072,2.16151 -2.36116,6.62427 -2.36116,6.62427 l -3.895774,0.34073 c -1.43346,0.12512 -1.70098,0.0719 -2.68191,-0.54037 -0.72805,-0.45387 -1.323,-1.02885 -1.88201,-1.73427 -2.02175,-2.55813 -2.75246,-4.80749 -4.03286,-3.92638 -1.13399,0.77995 -2.14287,3.81325 -3.5923,5.39578 -2.33188,2.54483 -17.98417,4.90332 -23.1457,5.08434 -14.34793,0.50444 -17.19356,-7.68374 -17.45576,-10.67045 -0.14242,-1.63178 -0.2662,-3.05459 -0.2662,-3.05459 0,0 0.0679,-0.012 0.19433,-0.0373 0,0 -2.19079,-2.7671 -2.19079,-2.7671 -0.50577,2.87092 -1.01554,5.84299 -1.3403,7.74363 -2.04305,11.98278 5.40377,16.51077 8.43174,17.42914 z m 63.964104,-15.48326 0.23958,2.74448 c 0,0 -0.93302,0.16105 -1.69833,0.14774 -0.52174,-0.008 -1.81944,-0.41127 -2.86293,-0.89575 -1.71962,-0.79859 -1.89797,-1.40684 -1.3962,-1.85671 0.93036,-0.83453 7.77823,-5.06038 5.71788,-0.13976 z m -42.279824,36.528666 3.88246,1.6411 c 1.99913,0.23691 4.4641,0.45652 6.3075,0.38465 3.47519,-0.13842 9.1345,-1.43879 11.12032,-3.95167 1.77685,-2.24802 1.98448,-3.20367 4.09009,-2.3545 1.03816,0.41926 2.245364,1.13399 3.565694,1.61181 2.99603,1.08342 3.04527,1.06878 5.03642,-1.91261 0.86779,-1.30037 1.76487,-2.30259 2.02441,-3.891776 0.12644,-0.78128 0.14242,-1.03683 0.12112,-2.32921 -0.0732,-4.35629 -0.55635,-4.95257 -5.30927,-2.66328 -0.67613,0.32475 -1.26576,0.6402 -1.504,0.81455 -0.98759,0.72139 -1.62779,1.85805 -2.560804,2.65131 -0.89176,0.75999 -2.05104,1.20453 -2.83631,1.87535 -1.11536,0.954306 -1.47473,2.366466 -2.28662,3.429916 -0.45919,0.60161 -11.68598,2.74315 -18.52853,4.06082 l -3.12248,0.63354 z" />
</svg>
