<?xml version="1.0" encoding="UTF-8" standalone="yes"?>
<svg>
  <path
    style="stroke:none; fill:#000000"
    d="m 40.369587,30.755442 4.279,4.279 6.157,-6.158 -6.157,-6.158 -4.279,4.279 -4.279,-4.279 -6.158,6.158 6.158,6.158 4.279,-4.279 z m -29.68,-14.902 -0.447,-8.5419998 c -0.067,-1.267 -0.093,-1.487 -0.2619995,-2.205 -0.517,-2.2 -1.911,-3.405 -3.367,-4.18299996 -1.852,-0.989 -3.266,-1.357 -5.175,0.036 -1.56900002,1.14499996 -1.71700002,5.29099996 -1.10000002,5.93999996 0.46,0.484 1.68000002,0.44 3.15700002,0.093 3.687,-0.866 4.057,-0.666 5.017,3.2339998 0.457,1.853 0.511,3.589 0.286,5.453 -0.477,3.958 -1.597,5.883 0.598,8.206 0.9139995,0.967 1.8679995,1.114 3.9529995,0.685 1.48,-0.305 1.774,-0.993 2.395,-3.044 0.437,-1.444 0.783,-2.737 0.671,-4.176 -0.222,-2.856 -3.31,-8.2229998 0.411,-9.5559998 0.687,-0.246 1.58,-0.086 2.35,0.082 1.037,0.226 1.214,0.123 1.76,-1.025 0.45,-0.945 0.97,-1.814 1.256,-2.83 1.074,-3.81599996 -0.57,-4.89299996 -3.869,-3.32999996 -3.784,1.79299996 -5.483,9.47499976 -4.675,14.62499976 0.248,2.123 0.519,4.034 0.519,4.034 0,0 -0.226,-0.002 -0.496,-0.029 -1.059,-0.104 -2.879,-1.51 -2.982,-3.468 z m 31.869,52.632 c 0.16,2.212 1.192,3.588 3.07,3.985 2.422,0.512 3.792,-0.801 4.413,-3.459 0.136,-0.582 0.105,-1.068 -0.27,-1.303 -0.713,-0.446 -2.673,0.017 -3.621,-0.486 -1.178,-0.626 -1.478,-3.288 -1.186,-4.532 0.292,-1.245 1.035,-2.579 1.238,-3.539 0.041,-0.194 0.06,-0.373 -0.025,-0.473 -0.011,-0.013 -0.021,-0.024 -0.032,-0.036 -2.851,-0.649 -3.544,10.44 -3.587,9.843 z m -0.62,-59.7789998 -4.82,4.7869998 c -0.801,0.796 -0.914,0.939 -1.138,1.429 -0.314,0.686 -0.423,1.833 -0.269,1.989 0.5,0.504 2.265,-0.719 2.879,-1.172 5.38,-3.968 7.831,-6.4669998 8.701,-11.6049998 0.442,-2.611 -0.941,-3.62199996 -3.388,-3.95499996 -3.881,-0.528 -7.733,0.012 -9.241,2.93499996 0.235,11.1579998 0.566,4.777 3.858,3.985 3.662,-0.881 7.6,-2.838 3.418,1.607 z m 42.063,40.8069998 c 1.378,0 3.825,0 3.825,0 0,0 0,0.239 0,0.752 0,0.809 0.069,2.593 -1.103,2.632 -1.083,0.036 -3.806,-1.6 -4.111,-1.725 -0.218,-0.09 -0.41,-0.148 -0.474,-0.427 -0.031,-0.14 -0.031,-0.335 -0.022,-0.492 0.04,-0.764 1.919,-0.74 1.885,-0.74 z m -24.137,-0.26 0,3.571 0,1.221 c 0,1.185 0.099,1.418 0.998,2.335 2.314,2.36 5.825,4.024 8.802,3.085 1.554,-0.489 2.931,-2.072 4.345,-2.614 0.815,-0.312 1.643,-0.277 2.515,0 2.207,0.703 4.7,2.959 7.188,3.562 1.706,0.414 3.488,0.094 4.588,-0.71 0.962,-0.705 3.547,-5.115 4.028,-6.873 0.545,-1.992 1.459,-8.689 -0.237,-10.189 -1.937,-1.713 -6.701,-0.605 -9.005,0 -2.26,0.593 -5.304,1.926 -6.161,2.843 -3.371,3.609 -2.256,5.67 -5.365,6.399 -2.898,0.679 -7.958,-0.95 -8.379,-4.418 -0.123,-1.007 0.402,-4.34 -1.232,-5.061 -0.252,-0.111 -0.549,-0.068 -0.853,0 -1.301,0.289 -3.53,1.708 -6.013,3.322 -7.367,4.79 -10.7,6.589 -19.571,7.373 -6.171,0.546 -12.552,-0.134 -15.933,-2.875 -2.668,-2.164 -4.138,-5.503 -3.317,-9.251 0.148,-0.681 1.258,-3.318 0.947,-3.782 -0.176,-0.264 -0.743,-0.249 -1.137,0 -0.537,0.339 -0.752,1.113 -0.995,1.895 -2.154,6.916 -3.584,10.704 0.474,16.588 2.359,3.422 6.25,4.848 10.661,5.183 13.41,1.018 19.335,-2.416 30.16,-9.362 1.538,-0.988 3.492,-2.242 3.492,-2.242 z"/>
</svg>