<?xml version="1.0" encoding="UTF-8" standalone="no"?>
<!-- Created with sK1/UniConvertor (http://sk1project.org/) -->

<svg
   xmlns:dc="http://purl.org/dc/elements/1.1/"
   xmlns:cc="http://creativecommons.org/ns#"
   xmlns:rdf="http://www.w3.org/1999/02/22-rdf-syntax-ns#"
   xmlns:svg="http://www.w3.org/2000/svg"
   xmlns="http://www.w3.org/2000/svg"
   xmlns:sodipodi="http://sodipodi.sourceforge.net/DTD/sodipodi-0.dtd"
   xmlns:inkscape="http://www.inkscape.org/namespaces/inkscape"
   width="595.276pt"
   height="841.89pt"
   viewBox="0 0 595.276 841.89"
   fill-rule="evenodd"
   id="svg2"
   version="1.1"
   inkscape:version="0.48.0 r9654"
   sodipodi:docname="md4.svg">
  <metadata
     id="metadata12">
    <rdf:RDF>
      <cc:Work
         rdf:about="">
        <dc:format>image/svg+xml</dc:format>
        <dc:type
           rdf:resource="http://purl.org/dc/dcmitype/StillImage" />
      </cc:Work>
    </rdf:RDF>
  </metadata>
  <defs
     id="defs10" />
  <sodipodi:namedview
     pagecolor="#ffffff"
     bordercolor="#666666"
     borderopacity="1"
     objecttolerance="10"
     gridtolerance="10"
     guidetolerance="10"
     inkscape:pageopacity="0"
     inkscape:pageshadow="2"
     inkscape:window-width="1024"
     inkscape:window-height="682"
     id="namedview8"
     showgrid="false"
     inkscape:zoom="1.2551253"
     inkscape:cx="114.21336"
     inkscape:cy="998.57689"
     inkscape:window-x="-4"
     inkscape:window-y="-4"
     inkscape:window-maximized="1"
     inkscape:current-layer="svg2"
     showguides="true"
     inkscape:guide-bbox="true">
    <sodipodi:guide
       orientation="0,1"
       position="103.57532,950.50272"
       id="guide3052" />
  </sodipodi:namedview>
  <path
     id="path3050"
     style="fill:#000000;stroke:none"
     d="m 70.515881,0.963519 c 0.286272,-0.996475 -0.277038,-1.167208 -1.532297,-0.753799 -0.375503,0.123483 -0.80824,0.323209 -1.287472,0.58414 -4.54771,2.4740092 -32.885742,17.598321 -37.684505,24.984913 -0.522933,0.667896 -0.952772,1.325055 -1.261914,1.957516 -0.463663,0.950304 -1.109654,2.796146 -0.812967,3.238548 0.175779,0.262003 0.660487,0.217978 1.118566,0.03864 0.941391,-0.367234 2.84146,-2.918556 4.487899,-4.894328 0.847434,-0.677559 2.048789,-1.531221 3.479827,-2.493335 4.965092,-3.337336 21.529998,-13.6306726 23.634517,-14.3136021 0.0057,-0.00321 0.01136,-0.00642 0.01697,-0.00963 C 61.350778,8.9396403 61.962838,8.6690457 62.449157,8.5509281 63.071309,8.399525 63.679932,8.4081153 64.25935,8.198726 64.482052,8.118187 69.175475,4.0238359 69.743509,3.0359511 70.125027,2.3734225 70.363085,1.495064 70.515885,0.963539 z m -29.970725,15.249934 -0.14,-3.203 c -0.057,-1.295 -0.038,-1.527 0.187,-2.32 0.167,-0.589 0.343,-1.2319999 0.789,-1.6469999 1.088,-1.0110001 3.782,-0.6610001 5.031,-1.4940003 1.799,-1.1980002 1.8,-5.316 0.416,-6.98500002 -1.467,-1.76900008 -4.434,1.04100002 -5.65,2.64900002 -0.746,0.9880001 -1.453,2.1199998 -1.771,3.4409998 -0.148,0.6120002 -0.229001,1.3070002 -0.344001,1.9160004 l -0.565,2.979 -1.8639,-2.3719999 c -2.551399,-3.3600005 -1.7733,-4.3580002 -5.5224,-5.2720003 -1.2561,-0.306 -3.9802,-0.192 -4.5038,1.2230001 -0.4097,1.1059997 0.5522,3.7980001 1.1547,4.4370002 0.4633,0.4909999 2.3394,1.7109999 3.1144,1.7859999 1.2663,0.122 3.8538,-0.649 3.8538,-0.649 0,0 2.0883,3.006 3.3642,4.417 0.556,0.616 1.017,1.112 1.730001,1.126 0.295,0.005 0.72,-0.032 0.72,-0.032 z m 12.435698,21.55196 -0.550001,0.009 c -0.707,0.013 -0.802,0.101 -0.953,0.885 -0.066,0.343 -0.263,0.867 -0.484,1.373 -1.29,2.948 -2.827,2.267 -3.934,0.089 -1.01,-1.987 -2.222,-4.185 -2.422,0.225 -0.079,1.769 0.118,5.14 1.481,6.058 1.459,0.983001 3.72,0.220001 5.131,-0.733 0.332,-0.224 0.628,-0.485 0.789,-0.817 0.092,-0.19 0.14,-0.404 0.174,-0.614 l 0.199,-1.234 1.375001,0.155 c 0.25,0.029 0.512,0.053 0.763,0.042 0.875,-0.039 1.549,-0.461 2.054,-1.085 2.293001,-2.835 1.234001,-6.259 -0.564,-8.668 -1.345,-1.803 -3.616001,-4.632 -1.396,1.025 0.81,2.063 0.685,3.249 -1.663,3.29 z m 42.357841,4.830109 c 0,0 0.03615,-1.038354 0.03615,-1.038354 0,0 0.944827,0.03329 1.883217,0.06551 3.017018,0.106298 1.098593,-0.531524 2.017214,1.78249 0.3158,0.795678 0.705479,1.284251 -1.272009,0.787086 -0.522934,-0.131 -1.114806,-0.271667 -1.592216,-0.517565 -0.98144,-0.504683 -1.088713,-0.61206 -1.072387,-1.079158 z M 99.078484,7.4782615 C 98.708667,8.0828054 98.093067,8.8559326 97.308133,10.018845 96.262477,9.9103952 95.339118,8.732448 94.815009,7.15183 c -0.31151,-0.9395642 0.519389,-1.954295 2.119873,-2.3762939 2.008732,-0.5293773 2.96344,1.3604905 2.143602,2.7027254 z m -2.426009,9.3258525 c 1.120926,-0.08805 2.129426,0.617429 3.05589,2.170127 1.341165,2.248514 0.984775,2.447165 0.949025,4.980233 -0.0277,1.965032 0.91561,2.005836 1.64847,-0.126706 1.13704,-3.309417 1.49601,-7.154654 -1.0769,-9.597523 -0.51037,-0.485352 -1.10106,-0.720513 -1.394096,-1.180093 -1.018275,-1.596723 1.610566,-6.8346644 1.968896,-8.5999723 0.51048,-2.5137401 -1.69583,-4.97056716 -4.421005,-4.35421316 -0.988101,0.224422 -3.70038,1.65793006 -4.136234,2.18945506 -1.241833,1.511895 -1.160548,7.1245875 -0.30925,8.8555344 0.590802,1.200496 1.755002,2.926072 1.755002,2.926072 0,0 -0.884805,0.833261 -2.261723,2.090667 -2.442764,2.230259 -23.621846,19.588053 -26.507545,21.186923 -2.262042,1.253113 -6.932378,3.375991 -1.138215,3.065667 0.465272,-0.0247 0.919592,-0.06871 1.306693,-0.140667 1.149705,-0.214756 1.706142,-0.680782 2.366201,-1.185462 0.956853,-0.733398 2.156275,-1.574173 3.496363,-2.485822 9.799932,-6.667152 11.657264,-7.268474 19.963879,-15.769658 1.013547,-1.03728 2.065752,-2.082075 3.122901,-3.038822 0.934413,-0.846145 1.095581,-0.944933 1.611648,-0.985737 z M 89.295628,0.963519 C 89.5819,-0.032956 89.01859,-0.203689 87.763331,0.20972 c -0.375503,0.123483 -0.80824,0.323209 -1.287472,0.58414 -4.54771,2.4740092 -32.885742,17.598321 -37.684505,24.984913 -0.522933,0.667896 -0.952772,1.325055 -1.261914,1.957516 -0.463663,0.950304 -1.109654,2.796146 -0.812967,3.238548 0.175779,0.262003 0.660487,0.217978 1.118566,0.03864 0.941391,-0.367234 2.84146,-2.918556 4.487899,-4.894328 0.847434,-0.677559 2.048789,-1.531221 3.479827,-2.493335 4.965092,-3.337336 21.529998,-13.6306726 23.634517,-14.3136021 0.0057,-0.00321 0.01136,-0.00642 0.01697,-0.00963 C 80.130525,8.9396403 80.742585,8.6690457 81.228904,8.5509281 81.851056,8.399525 82.459679,8.4081153 83.039097,8.198726 83.261799,8.118187 87.955222,4.0238359 88.523256,3.0359511 88.904774,2.3734225 89.142832,1.495064 89.295632,0.963539 z M 1.6445072,60.645603 c -2.15864548,7.888612 -3.0142729,14.748413 2.6937373,18.776743 4.3042313,3.037412 10.3019875,2.031493 13.9927915,-0.901702 0.864173,-0.685727 11.002564,-10.87297 11.432372,-14.39157 0.185113,-1.513375 0.07579,-2.038389 0.744008,-1.950625 0.126699,0.01735 0.205562,0.142625 0.789087,1.259169 6.233236,11.923848 5.562952,13.56265 14.079079,17.01045 0.909746,0.367808 1.631092,0.657966 2.983033,0.706215 1.573836,0.05605 4.00226,-0.215564 4.00226,-0.215564 0,0 1.806491,-3.350831 2.171288,-5.063455 0.09079,-0.427338 0.09223,-0.751842 0.04212,-1.125157 -0.06763,-0.50489 -0.209616,-0.599095 -1.42037,-0.949552 -6.500913,-1.880578 -9.103,-2.107174 -11.013255,-6.41852 -1.644509,-3.710862 0.788533,-5.617797 5.051881,-6.750796 1.19593,-0.31731 2.192881,-0.460523 3.050009,0.0068 1.824716,0.997587 3.549924,5.508361 5.887735,7.242321 1.987017,1.473602 6.900258,2.285463 9.777844,2.447197 3.537467,0.198202 10.508192,-0.142227 14.003193,-0.994437 2.374653,-0.579267 4.453108,-1.530261 6.999544,-1.849772 5.356871,-0.671276 13.949876,-0.330881 14.495086,-1.164131 0.58062,-0.887043 0.50258,-2.319842 1.37058,-2.997099 0.37696,-0.293792 0.93251,-0.445153 1.15914,-1.144442 0.28463,-0.877378 0.0506,-2.618797 0.0506,-2.618797 0,0 -6.595404,-0.428175 -10.757975,-1.621238 -2.269899,-0.651073 -5.240736,-2.513698 -7.685866,-3.980935 -2.464799,-1.480561 -2.708705,-2.422332 0.06439,-4.108311 2.395744,-1.456634 7.482965,-0.298065 11.599738,1.80218 2.757652,1.40761 4.027003,2.55548 5.579993,1.012481 1.92675,-1.915113 4.75664,-7.363208 4.69934,-9.709891 -0.0303,-1.253863 -0.6668,-3.015444 -1.62662,-4.449532 -0.90278,-1.348925 -2.07599,-2.582659 -2.00787,-3.382059 0.0188,-0.218708 0.10185,-0.434144 0.21201,-0.656912 1.07303,-2.176239 -2.40083,-4.374829 -4.965015,-4.489856 -1.271974,-0.0573 -2.488123,0.529255 -4.486481,1.847212 -1.898433,1.252385 -5.150678,4.53117 -6.001753,6.052323 -2.108554,3.766801 -2.471173,5.805961 -5.848475,8.380827 -1.530556,1.167311 -4.776447,2.564685 -7.002198,3.015539 -4.636687,0.938912 -5.584445,0.496067 -7.068728,3.110107 -0.675596,1.189891 -1.258972,2.279004 -1.570424,4.24666 -0.155529,0.981673 -0.243273,2.183525 -0.243273,2.183525 0,0 0.808768,0.03914 1.49238,0.0028 1.819737,-0.09595 2.752553,-0.725902 3.919534,-0.923014 2.824682,-0.477933 6.622867,1.032145 9.041469,2.585124 0.719655,0.462112 0.744862,1.007065 -0.0032,1.398922 -2.291938,1.20077 -12.851372,0.73121 -13.385957,0.669163 -4.483912,-0.521836 -8.295448,-1.545868 -10.621398,-5.1539 -2.416394,-3.749045 -2.279826,-5.679833 -6.097573,-5.143688 -3.353187,0.470478 -3.480531,0.824879 -6.722967,3.249228 -0.787515,0.588678 -1.545695,1.068965 -2.10279,1.860697 -1.065779,1.513122 -2.414112,8.010837 -4.209885,5.586626 -1.679747,-2.102603 -2.190884,-5.089721 -3.481836,-7.002873 -1.290952,-1.913151 -2.5632,-9.978764 -4.163436,-14.933033 -0.776647,-2.404846 -5.704074,-11.461962 -8.830708,-13.31198 -3.010815,-1.780743 -3.993053,-0.598028 -4.205926,3.862148 -0.05491,1.148137 -0.12143,3.868442 0.455916,4.601641 0.38212,0.486027 1.09561,0.703386 1.752872,1.067619 5.268677,2.928563 9.041478,15.111099 9.764013,19.185116 0.455899,2.571101 -1.534138,4.861084 -3.885779,7.902036 -3.592444,4.645759 -7.779024,8.202157 -12.639073,8.39416 C 2.4185368,73.123754 1.5462099,61.004434 1.6445075,60.645612 z" />
</svg>
