<?xml version="1.0" encoding="UTF-8" standalone="yes"?>
<svg>
<path
	d="m 65.114104,19.155822 -0.54,-10.3210001 c -0.081,-1.531 -0.112,-1.797 -0.316,-2.664 -0.626,-2.659 -2.309,-4.115 -4.069,-5.055 -2.238,-1.19500002 -3.946,-1.63900002 -6.253,0.043 -1.896,1.384 -2.075,6.394 -1.329,7.178 0.556,0.584 2.03,0.532 3.814,0.113 4.456,-1.047 4.902,-0.806 6.063,3.9070001 0.551,2.239 0.616,4.337 0.345,6.589 -0.576,4.782 -1.93,7.108 0.723,9.916 1.104,1.168 2.257,1.345 4.776,0.827 1.789,-0.369 2.144,-1.2 2.894,-3.678 0.528,-1.744 0.946,-3.307 0.811,-5.046 -0.269,-3.45 -4,-9.936 0.497,-11.5470001 0.83,-0.297 1.908,-0.103 2.839,0.099 1.253,0.274 1.466,0.15 2.127,-1.238 0.543,-1.141 1.172,-2.191 1.517,-3.42 1.298,-4.61100002 -0.689,-5.912 -4.674,-4.02300002 -4.573,2.16600002 -6.626,11.44800012 -5.65,17.67100012 0.3,2.565 0.627,4.875 0.627,4.875 0,0 -0.273,-0.003 -0.599,-0.035 -1.28,-0.126 -3.478,-1.825 -3.603,-4.191 z m -4.546,65.449 5.392,5.395 6.959,-6.964 -6.959,-6.964 -5.392,5.395 -5.391,-5.395 -6.96,6.965 6.959,6.963 z m -34.776,-64.243 -0.322,0 c -0.289,0 -0.399,-0.106 -1.102,-1.061 -0.521,-0.709 -1.053,-1.4 -1.145,-2.363 -0.039,-0.404 0,-0.856 0,-0.856 l 0.535,0 0,-0.535 c 0,0 1.01,-0.094 1.712,0 1.294,0.173 2.595,2.091 2.034,3.392 -0.167,0.385 -0.529,0.721 -0.874,1.002 -0.466,0.379 -0.55,0.421 -0.838,0.421 z m 4.529,0.357 c -0.279,0.126 -0.923,0.314 -1.212,0.178 -0.332,-0.155 -0.195,-0.735 0,-1.284 1.258,-3.556 2.958,-4.157 1.861,-7.886 -0.487,-1.654 -1.555,-3.4500001 -1.861,-4.7410001 -0.049,-0.208 -0.079,-0.402 0,-0.536 0.206,-0.349 1.158,-0.277 1.787,0 1.751,0.773 4.501,7.3460001 4.099,9.0970001 -0.314,1.366 -3.036,4.434 -4.674,5.172 z m -3.887,-11.0580001 -2.263,0 c -1.017,0 -1.174,0.154 -1.574,1.5450001 -1.009,3.516 -1.983,6.797 -1.288,9.321 0.278,1.008 0.157,1.172 -1.212,1.64 -7.775,2.663 -9.501,3.125 -10.786,9.753 -0.71,3.662 1.189,5.378 5.34,6.1 5.15,0.896 20.089844,-3.254087 22.464,-4.601 3.020701,-1.713713 9.125476,-3.146845 10.721,-5.887 0.259,-0.484 0.276,-1.007 0,-1.284 -1.331,-1.339 -5.578864,1.351909 -9.631,2.943 -4.052136,1.591091 -14.72,2.965 -21.135,3.478 -3.124,0.25 -3.755,0.101 -3.546,-1.727 0.061,-0.536 0.218,-0.652 1.569,-1.168 3.012,-1.149 7.203,-2.907 9.19,-2.991 4.811,-0.203 5.557,0.666 8.839,-3.745 4.626,-6.216 5.308,-12.551 2.222,-18.7870001 -1.18,-2.386 -1.799,-3.183 -3.731,-3.68600002 -3.8,-0.99 -5.052,-0.031 -5.179,4.80500002 -0.049,1.849 0,4.291 0,4.291 z m 26.444,30.9090001 11.107,-1.071 c 0,0 -5.397,3.272 -7.078,5.084 -0.815,0.877 -1.445,2.849 -1.07,3.478 0.678,1.136 7.521,-2.593 8.829,-4.281 1.02,-1.317 3.523,-6.776 2.942,-8.208 -0.906,-2.238 -7.426,-1.995 -9.107,-1.958 -1.475,0.032 -3.076,0.464 -3.592,1.201 -1.181,1.686 -2.031,5.755 -2.031,5.755 z m 51.675996,17.248 c 0,0 -1.177,0.096 -2.14,0 -1.666,-0.167 -2.687996,-0.911 -3.934996,-1.587 -1.274,-0.691 -1.416,-0.796 -1.416,-1.053 l 0,-0.571 6.955996,-0.535 0,0.535 1.07,0 z m -0.136,12.5 c 0,0 3.205,-7.091 5.22,-9.825 0.273,-0.371 1.326,-1.543 1.623,-2.251 0.224,-0.536 0.239,-0.756 0.147,-2.198 l -0.331,-5.186 c -0.092,-1.441 -0.131,-1.606 -0.391,-1.645 -1.266,-0.19 -0.529,-1.176 0.063,-2.536 0.867,-1.994 -1.025,-3.133 -3.305,-3.306 -2.028,-0.155 -8.910996,1.816 -10.380996,2.407 -2.895,1.165 -6.858,3.709 -8.216,6.203 -0.992,1.821 -1.163,4.383 -2.303,5.302 -0.536,0.431 -9.346,0.032 -11.419,-1.338 -1.678,-1.11 -2.669,-2.963 -3.959,-2.408 -0.871,0.375 -1.49,1.886 -2.462,2.943 -1.805,1.963 -8.02,3.352 -10.434,3.478 -6.307,0.329 -13.376,-2.44 -15.517,-8.026 -2.098,-5.476 -0.372,-16.017 -6.581,-14.447 -5.388,1.362 -11.036,10.26 -13.752,17.122 -1.976,4.994 -3.573,14.507 -9.727,12.842 -5.835,-1.579 -8.613,-10.318 -9.268,-15.678 -0.377,-3.087 -0.396,-5.741 0,-10.139 0.362,-4.021 1.07,-9.498 1.07,-9.498 0,0 -0.479,-0.066 -0.856,0 -0.624,0.11 -1.372,2.028 -1.551,3.746 -0.432,4.141 -1.46399997,7.81 -1.87299997,11.45 -1.0758,9.58 1.81799997,24.36 10.16599997,30.018 3.388,2.296 7.89,1.945 10.434,-1.873 0.692,-1.038 1.181,-2.407 1.605,-3.746 0.742,-2.338 1.287,-4.585 2.141,-6.955 2.336,-6.489 5.367,-11.006 8.828,-14.18 0.411,-0.376 0.79,-0.702 1.606,-0.803 0.722,-0.088 1.787,0 1.787,0 0,0 0.598,8.677 2.226,12.842 0.837,2.144 3.317,4.808 5.841,6.144 9.331,4.937 11.822,1.682 20.221,-2.136 1.784,-0.811 3.421,-1.345 4.25,-1.078 0.503,0.163 1.065,0.57 1.637,0.877 2.199,1.179 9.359,1.843 11.231,1.544 2.718,-0.433 4.917,-2.89 7.623,-2.978 2.426,-0.078 14.606996,5.312 14.606996,5.312 z m -9.421996,13.553 c 7.605996,-3.582 13.573996,-5.187 15.176996,-10.001 0.357,-1.073 0.586,-2.294 0.267,-2.675 -0.321,-0.385 -1.07,0.051 -2.242,0.654 -11.151996,5.742 -14.003996,5.131 -15.414996,10.154 -0.299,1.064 -0.535,2.404 0,2.568 0.517,0.159 1.688,-0.453 2.213,-0.7 z"
	style="stroke:none; fill:#000000"/>
</svg>