<?xml version="1.0" encoding="UTF-8" standalone="yes"?>
<svg xmlns="http://www.w3.org/2000/svg" xmlns:xlink="http://www.w3.org/1999/xlink"
  width="595.276pt" height="841.89pt" viewBox="0 0 595.276 841.89">
  <path
    style="stroke:none; fill:#000000"
    d="m 66.66478,68.99224 4.073,4.074 5.863,-5.863 -5.863,-5.862 -4.073,4.073 -4.074,-4.073 -5.862,5.862 5.862,5.863 4.074,-4.074 z m 12.832,1.662 c -0.363,2.27 0.079,2.827 1.588,2.131 1.028,-0.475 14.288,-8.189 16.225,-10.498 0.78,-0.931 1.558,-2.576 1.832,-4.056 0.17,-0.912 -0.104,-0.88 -1.086,-0.515 -2.276,0.846 -17.278,9.978 -17.748,10.804 -0.439,0.771 -0.72,1.57 -0.811,2.134 z m -56.435,-61.836 -4.881,4.849 c -0.811,0.805 -0.927,0.95 -1.153,1.446 -0.318,0.695 -0.428,1.858 -0.272,2.015 0.506,0.511 2.293,-0.728 2.915,-1.187 5.449,-4.018 7.932,-6.549 8.812,-11.753 0.448,-2.645 -0.952,-3.669 -3.43,-4.006 -3.932,-0.535 -7.833,0.012 -9.36,2.972 0.238,11.301 0.574,4.839 3.908,4.036 3.709,-0.892 7.697,-2.874 3.461,1.628 z m 41,27.92 -4.881,4.849 c -0.811,0.806 -0.927,0.95 -1.154,1.447 -0.317,0.695 -0.427,1.857 -0.271,2.014 0.505,0.511 2.293,-0.728 2.915,-1.187 5.449,-4.018 7.931,-6.549 8.812,-11.753 0.448,-2.645 -0.952,-3.668 -3.43,-4.006 -3.932,-0.535 -7.833,0.013 -9.36,2.973 0.238,11.301 0.574,4.838 3.908,4.036 3.709,-0.893 7.696,-2.875 3.461,1.627 z m 3.067,-20.681 -0.453,-8.651 c -0.068,-1.284 -0.094,-1.507 -0.265,-2.234 -0.525,-2.228 -1.936,-3.449 -3.411,-4.237 -1.875,-1.002 -3.307,-1.374 -5.24,0.037 -1.59,1.16 -1.74,5.359 -1.115,6.016 0.466,0.49 1.702,0.445 3.197,0.094 3.735,-0.877 4.109,-0.675 5.082,3.275 0.462,1.877 0.517,3.635 0.289,5.523 -0.483,4.009 -1.617,5.959 0.606,8.312 0.926,0.979 1.892,1.127 4.003,0.693 1.5,-0.309 1.798,-1.006 2.426,-3.083 0.443,-1.462 0.793,-2.772 0.68,-4.229 -0.225,-2.892 -3.352,-8.329 0.416,-9.679 0.696,-0.249 1.6,-0.087 2.38,0.083 1.051,0.229 1.229,0.125 1.783,-1.038 0.455,-0.957 0.982,-1.837 1.272,-2.866 1.087,-3.865 -0.578,-4.956 -3.919,-3.373 -3.832,1.816 -5.553,9.597 -4.735,14.812 0.251,2.15 0.526,4.087 0.526,4.087 0,0 -0.229,-0.003 -0.502,-0.03 -1.073,-0.106 -2.916,-1.53 -3.02,-3.512 z m 20.051,21.542 c 0,0 0.472,-1.088 0.757,-1.951 0.482,-1.454 0.404,-2.505 0.214,-4.01 -0.53,-4.198 -1.344,-13.707 -1.344,-13.707 0,0 1.461,-0.165 2.578,-0.135 3.021,0.079 3.901,1.502 5.49,-0.086 1.035,-1.034 1.96,-4.696 1.299,-6.064 -0.757,-1.564 -3.321,-2.317 -4.499,-1.041 -0.544,0.589 -0.854,1.518 -1.475,2.13 -0.963,0.947 -2.674,1.135 -3.522,1.925 -1.452,1.353 -1.646,10.807 -1.379,13.046 0.451,3.778 1.881,9.893 1.881,9.893 z m -71.326,40.539 36.504,-0.459 c 1.083,-0.013 1.321,-0.037 2.383,-0.239 1.587,-0.302 3.313,-0.402 4.704,-1.12 0.426,-0.22 0.873,-0.499 1.296,-0.787 3.076,-2.094 -1.244,-1.432 -4.441,-1.315 -10.697,0.389 -31.511,1.074 -38.039,0.758 -1.193,-0.058 -2.369,-0.126 -3.185,-0.176 -0.13,-0.008 -2.722,-0.564 -0.195,-1.049 0.085,-0.017 0.179,-0.034 0.281,-0.053 1.943,-0.358 5.077,-0.747 5.773,-1.288 1.014,-0.788 1.888,-4.985 3.835,-3.544 0.896,0.663 1.317,2.191 2.139,1.711 0.552,-0.322 1.587,-2.456 1.514,-3.226 -0.039,-0.409 -0.279,-1 -0.531,-1.461 -0.068,-0.123 -0.124,-0.224 -0.171,-0.307 -0.85,-1.491 -2.78,-1.101 -4.22,0.017 -0.229,0.179 -0.405,0.367 -0.56,0.578 -0.735,0.998 -1.002,2.487 -2.006,3.299 -1.069,0.865 -4.781,0.899 -7.22,1.466 -2.171,0.505 -5.075,2.75 -4.547,5.177 0.253,1.159 2.16,1.674 4.285,1.904 1.078,0.116 1.318,0.128 2.401,0.114 z m 87.717,-31.267 c 0.329,0.08 0.163,0.726 0.231,1.229 0.188,1.384 2.162,2.431 -0.445,1.948 -1.265,-0.234 -3.951,-0.783 -5.135,-1.589 -0.42,-0.285 -0.457,-0.708 0,-0.977 0.816,-0.481 5.104,-0.671 5.349,-0.611 z m -60.527,-30.079 c 0.157,0.914 0.315,1.844 0.462,2.733 0.917,5.518 1.949,16.8 1.899,20.747 -0.011,0.88 -0.042,1.888 -0.035,2.913 0.07,10.9 5.956,9.179 -8.396,12.235 -8.214,1.749 -18.494,2.46 -23.928,0.249 -1.411,-0.574 -2.488,-1.084 -3.378,-1.649 -6.524,-4.144 -6.245,-9.669 -5.074,-15.683 0.074,-0.377 0.142,-0.783 0.203,-1.224 0.257,-1.867 -2.046,-1.51 -4.319,7.624 -3.04,12.21 8.947,19.793 21.211,18.385 1.517,-0.174 3.289,-0.437 5.157,-0.752 6.524,-1.101 11.594,-1.785 17.125,-5.229 2.573,-1.602 5.091,-3.133 6.474,-2.539 3.113,1.334 8.51,1.753 11.193,1.556 1.977,-0.145 6.543,-0.975 8.103,-1.955 0.399,-0.251 0.752,-0.557 1.071,-0.852 l 1.626,-1.444 1.008,1.123 c 3.259,3.833 12.709,2.027 16.106,0.22 0.867,-0.461 1.577,-0.707 2.412,-0.514 0.996,0.23 2.447,0.997 3.599,1.55 1.099,0.527 1.928,0.86 3.401,1.068 1.808,0.256 4.586,0.323 5.595,0.34 0.083,10e-4 0.225,-0.097 0.409,-0.269 2.946,-2.772 5.232,-6.309 4.071,-10.095 -0.034,-0.113 -0.07,-0.223 -0.107,-0.329 -0.262,-0.751 -1.105,-2.175 -0.879,-2.539 1.045,-1.686 -2.773,-1.352 -4.838,-1.152 -3.554,0.344 -8.322,2.084 -10.888,4.904 -2.122,2.333 -2.754,3.806 -5.604,3.59 -1.202,-0.092 -2.697,-0.647 -3.958,-0.734 -0.872,-0.059 -1.632,0.106 -2.466,0 -0.916,-0.115 -3.171,-0.979 -3.906,-1.69 -0.684,-0.661 -1.625,-2.088 -1.625,-2.088 0,0 -0.748,1.262 -1.417,1.945 -1.197,1.224 -7.001,2.434 -8.638,2.567 -5.035,0.409 -12.104,-0.343 -14.396,-3.474 -0.752,-1.027 -1.197,-2.326 -1.569,-3.692 -0.367,-1.346 -1.078,-12.028 -1.421,-19.88 -0.278,-6.351 0.072,-8.342 -0.896,-14.417 -0.538,-3.373 -2.279,-12.159 -4.789,-6.47 -0.178,0.403 -0.353,0.843 -0.51,1.257 -0.449,1.179 1.892,13.546 1.912,13.664 z m -4.824,19.218 c 0.273,-0.436 0.495,-0.87 0.633,-1.276 0.294,-0.862 -0.005,-1.101 -1.07,-0.816 -1.568,0.42 -3.392,1.781 -5.081,2.322 -1.432,0.459 -4.892,0.576 -7.599,0.227 -1.818,-0.234 -7.727,-2.648 -4.061,-4.563 1.221,-0.637 6.47,-2.931 7.887,-1.454 1.48,1.542 2.053,0.671 3.588,-1.443 0.266,-0.367 0.478,-0.702 0.586,-0.954 0.659,-1.53 0.788,-2.273 -0.754,-2.689 -3.836,-1.033 -10.186,1.501 -12.216,3.911 -0.987,1.171 -4.025,7.187 -3.209,9.125 0.139,0.33 0.38,0.567 0.802,0.895 1.015,0.788 3.073,2.1 3.912,2.629 -1.528,2.036 -2.174,3.496 -2.401,4.401 -0.649,2.588 0.912,2.056 1.965,1.431 3.926,-2.329 16.001,-10.125 17.018,-11.746 z"/>
</svg>