<?xml version="1.0" encoding="UTF-8" standalone="yes"?>
<svg xmlns="http://www.w3.org/2000/svg" xmlns:xlink="http://www.w3.org/1999/xlink"
  width="595.276pt" height="841.89pt" viewBox="0 0 595.276 841.89">
  <path style="stroke:none; fill:#000000"
        d="m 155.3633,72.04972 c -0.866,2.13 -0.561,2.772 1.066,2.434 1.108,-0.23 15.767,-4.754 18.175,-6.567 0.97,-0.73 2.099,-2.158 2.7,-3.538 0.371,-0.85 0.097,-0.88 -0.942,-0.746 -2.408,0.31 -19.084,5.823 -19.728,6.521 -0.601,0.652 -1.056,1.367 -1.271,1.896 z m -24.11,-72.039 c -2.517,0.074 -3.425,1.495 -3.606,3.99 -0.09,1.232 -0.107,3.07 -0.107,3.07 0,0 2.893,0.49 4.643,0.163 1.956,-0.367 2.701,-1.869 3.725,-1.311 1.542,0.839 1.803,5.356 1.515,6.969 -0.345,1.926 -1.453,3.891 -2.14,6.265 -0.037,0.125 -0.062,0.346 -0.078,0.644 -0.14,2.675 -0.015,14.353 3.265,15.383 0.351,0.11 0.745,0.202 1.061,0.413 0.499,0.333 0.8,0.965 1.215,1.233 2.281,1.475 4.927,-4.184 5.15,-5.257 0.293,-1.412 0.303,-2.798 0.152,-4.355 -0.297,-3.059 -5.058,-19.078 -1.865,-20.046 1.615,-0.489 3.389,0.814 4.977,-0.306 1.038,-0.732 1.888,-2.27 2.046,-3.579 0.144,-1.197 0.107,-3.07 0.107,-3.07 0,0 -2.09,-0.355 -3.521,-0.123 -0.877,0.142 -3.804,2.312 -4.511,3.204 -1.359,1.716 -2.463,7.278 -2.452,8.32 0.05,4.612 2.839,14.953 2.29,16.938 -0.497,1.798 -1.486,3.579 -1.486,3.579 0,0 -1.466,-1.978 -2.347,-3.837 -0.512,-1.081 -0.747,-9.131 -0.328,-11.222 0.758,-3.786 1.319,-9.161 0.207,-12.709 -1.275,-4.065 -4.83,-4.445 -7.912,-4.356 z m -53.353,16.203 -0.14,-3.203 c -0.056,-1.295 -0.038,-1.527 0.187,-2.32 0.167,-0.589 0.343,-1.233 0.79,-1.647 1.088,-1.011 3.782,-0.662 5.031,-1.494 1.798,-1.199 1.799,-5.316 0.415,-6.985 -1.467,-1.769 -4.434,1.041 -5.649,2.649 -0.747,0.988 -1.454,2.12 -1.772,3.441 -0.147,0.612 -0.229,1.307 -0.344,1.915 l -0.565,2.98 -1.864,-2.372 c -2.551,-3.36 -1.773,-4.359 -5.522,-5.272 -1.256,-0.306 -3.98,-0.192 -4.504,1.222 -0.41,1.107 0.552,3.798 1.155,4.437 0.463,0.492 2.339,1.711 3.114,1.786 1.267,0.123 3.854,-0.649 3.854,-0.649 0,0 2.088,3.006 3.364,4.418 0.557,0.616 1.017,1.112 1.731,1.126 0.294,0.005 0.719,-0.032 0.719,-0.032 z m 8.903,28.101 0.559,-0.01 c 0.251,-0.004 0.318,-0.157 0.674,-1.529 2.043,-7.887 2.416,-12.242 -2.61,-17.301 -0.828,-0.833 -1.792,-1.532 -2.413,-0.785 -0.422,0.507 -0.852,4.082 -0.66,4.863 0.336,1.366 1.332,1.809 2.482,2.736 2.598,2.094 3.249,3.665 2.919,6.455 -0.254,2.141 -0.951,5.571 -0.951,5.571 z m -16.466,-9.971 c -0.041,-1.116 -0.167,-2.518 -0.534,-2.871 -0.212,-0.204 -0.506,-0.056 -0.69,-0.166 -0.828,-0.498 0.581,-2.548 1.252,-3.332 6.094,-7.114 21.889,-15.947 30.233,-17.774 0.796,-0.174 1.59,-0.315 1.741,-0.046 0.075,0.134 -0.01,0.369 -0.138,0.635 -0.302,0.623 -0.784,1.378 -1.32,2.187 -11.113,16.781 6.417,-6.508 11.391,-7.162 0.455,-0.225 0.882,-0.406 1.261,-0.525 1.936,-0.609 4.032,-0.739 4.287,-2.594 0.035,-0.261 0.04,-0.585 0.032,-0.9 -0.085,-3.039 -5.045,-1.585 -8.541,-0.256 -3.235,1.231 -8.039,3.259 -13.136,5.617 -6.594,3.05 -26.336,12.208 -29.114,20.162 -0.896,2.563 -0.729,5.435 1.055,7.905 0.077,0.106 0.146,0.201 0.21,0.288 -0.806,-1.094 2.184,3.506 2.011,-1.168 z m 60.773,36.152 4.073,4.073 5.863,-5.862 -5.863,-5.863 -4.073,4.074 -4.074,-4.074 -5.862,5.863 5.862,5.862 4.074,-4.073 z m -33.251,-33.422 5.863,-5.862 -5.863,-5.863 -5.862,5.863 5.862,5.862 z m 68.389,0 c 0,0 0.472,-1.088 0.758,-1.95 0.481,-1.455 0.404,-2.506 0.214,-4.011 -0.53,-4.198 -1.345,-13.707 -1.345,-13.707 0,0 1.462,-0.164 2.579,-0.135 3.02,0.079 3.901,1.502 5.49,-0.086 1.034,-1.033 1.96,-4.696 1.298,-6.063 -0.757,-1.565 -3.32,-2.318 -4.499,-1.041 -0.543,0.588 -0.853,1.517 -1.475,2.129 -0.963,0.948 -2.674,1.135 -3.522,1.925 -1.451,1.353 -1.646,10.807 -1.379,13.047 0.451,3.778 1.881,9.892 1.881,9.892 z m -65.422,36.461 c 1.318,-0.444 2.576,-1.046 3.02,-1.866 1.221,-2.251 -1.276,-1.921 -2.501,-1.677 -0.592,0.118 -1.161,0.255 -1.729,0.382 -0.877,0.195 -33.455,0.589 -38.976,0.479 -3.709,-0.074 -12.826,0.218 -2.035,-0.99 2.551,-0.286 4.684,-0.965 5.385,-2.024 0.646,-0.976 1.196,-2.671 1.551,-3.744 0.192,-0.58 1.246,-0.838 2.125,-0.785 1.683,0.102 1.122,2.283 1.315,-0.751 0.046,-0.721 0.084,-1.332 0.084,-1.332 0.033,-0.51 0.018,-0.592 -0.153,-0.819 -0.985,-1.31 -3.156,-1.271 -4.111,-0.251 -0.272,0.29 -0.507,0.687 -0.662,1.135 -0.635,1.837 -0.205,3.029 -1.213,3.69 -0.837,0.548 -10.858,2.461 -12.13,3.121 -1.753,0.911 -1.876,1.599 -1.544,3.977 0.137,0.978 0.778,1.5 1.793,1.933 0.071,0.03 0.204,0.063 0.385,0.097 3.259,0.618 45.382,0.775 49.396,-0.575 z m 79.871,-17.97 c 0.03,0.066 0.044,0.208 0,0.283 -0.071,0.124 -0.292,0.067 -0.529,0 -1.711,-0.481 -5.151,-1.872 -7.206,-2.909 -0.638,-0.322 -1.004,-0.553 -0.759,-0.872 0.357,-0.464 3.655,-1.397 4.392,-1.516 1.109,-0.179 2.483,-0.143 2.558,0.492 0.044,0.361 -0.281,0.946 -0.369,1.41 -0.153,0.803 0.433,0.876 1.246,1.937 0.302,0.393 0.528,0.871 0.667,1.175 z m -147.634,17.54 c 1.492,1.305 3.192,1.751 5.903,1.285 4.145,-0.713 6.505,-2.984 8.191,-6.244 1.093,-2.113 3.568,-10.947 5.404,-16.176 1.118,-3.187 2.622,-5.51 5.574,-7.494 1.337,-0.898 3.033,-1.516 4.203,-0.925 0.353,0.178 2.245,3.375 2.463,4.162 0.012,0.043 0.024,0.086 0.035,0.129 3.959,14.562 23.687,15.227 36.817,9.592 0.188,-0.081 0.355,-0.153 0.497,-0.215 0.63,-0.276 1.243,-0.543 1.737,-0.962 0.132,-0.112 0.278,-0.268 0.434,-0.439 l 1.597,-1.753 0.839,1.585 c 0.293,0.554 0.597,1.219 0.94,1.617 0.886,1.03 3.916,1.696 5.072,1.892 2.887,0.49 5.873,0.575 8.535,0.473 1.048,-0.04 6.026,-1.16 6.266,-1.41 0.316,-0.33 0.592,-0.844 0.867,-1.392 0.076,-0.153 0.151,-0.294 0.226,-0.424 l 1.173,-2.067 2.921,2.123 c 0.823,0.592 1.696,1.155 2.784,1.549 10.115,3.668 21.01,1.874 31.092,0.197 3.743,-0.622 9.015,2.984 12.547,3.715 0.528,0.109 1.02,0.189 1.302,0.182 0.46,-0.012 0.542,-0.063 0.824,-0.514 0.586,-0.934 1.204,-1.971 1.928,-2.715 0.763,-0.786 0.964,-0.829 1.543,-2.271 0.517,-1.286 0.852,-3.031 0.772,-4.276 -0.045,-0.717 -1.111,-3.465 -1.546,-3.989 -0.256,-0.308 -0.416,-0.464 -0.394,-0.73 0.032,-0.404 0.461,-0.871 0.617,-1.335 0.447,-1.331 -0.557,-1.704 -1.875,-2.157 -1.415,-0.486 -1.818,-0.489 -3.198,-0.094 -0.498,0.142 -3.902,1.108 -5.04,1.749 -0.391,0.22 -0.745,0.499 -1.135,0.71 -0.525,0.284 -1.115,0.444 -1.699,0.666 -2.024,0.77 -4.49,2.962 -5.287,4.958 -0.28,0.701 -0.415,1.536 -0.765,1.809 -0.345,0.269 -1.194,0.345 -1.953,0.419 -0.514,0.05 -1.019,0.125 -1.535,0.189 -4.334,0.536 -13.533,0.172 -18.284,-0.773 -2.855,-0.568 -6.958,-1.424 -8.19,-3.579 -0.565,-0.987 -0.584,-2.031 -1.323,-3.5 -0.702,-1.395 -2.054,-3.175 -2.054,-3.175 0,0 -0.839,0.811 -1.307,1.406 -0.818,1.04 -1.346,3.508 -1.05,4.452 0.335,1.068 1.362,2.762 1.362,2.762 0,0 -2.64,0.723 -4.666,1.083 -3.914,0.695 -10.809,0.253 -14.119,-1.609 -0.485,-0.272 -0.911,-0.566 -1.213,-1.04 -0.921,-1.444 -0.771,-3.732 -1.963,-3.595 -0.526,0.061 -1.833,2.23 -3,3.311 -0.4,0.371 -1.331,0.807 -2.491,1.247 -7.15,2.71 -21.809,4.841 -28.925,0.203 -4.585,-2.988 -6.525,-9.876 -9.023,-13.619 -0.931,-1.394 -1.335,-2.02 -3.052,-1.737 -3.38,0.557 -6.157,2.282 -8.226,4.919 -3.332,4.247 -6.504,15.82 -7.499,18.542 -1.511,4.134 -3.36,6.422 -8.266,7.378 -1.466,0.286 -2.589,0.118 -3.515,-0.395 -2.099,-1.162 -3.376,-4.02 -4.187,-7.15 -0.838,-3.235 -2.206,-10.762 -2.281,-11.375 -1.205,-5.938 -2.126,-6.244 -1.751,-0.307 0.086,1.374 0.118,1.877 0.118,1.877 0.034,0.544 0.063,1.156 0.083,1.764 0.448,13.468 3.856,19.489 6.146,21.491 z m 3.653,-29.367 -1.888,-0.081 -2.122,-0.091 c -0.594,-0.025 -0.721,-0.039 -1.266,-0.132 -1.12,-0.191 -2.348,-0.8 -2.478,-1.372 -0.047,-0.207 -0.017,-0.495 0.064,-0.774 0.146,-0.496 3.48,-1.725 4.048,-1.723 0.408,10e-4 0.519,0.016 0.934,0.112 1.108,0.255 2.577,1.765 2.673,2.915 l 0.035,1.146 z m 2.096,-0.011 c -0.35,-0.553 -0.696,-2.837 -0.956,-4.216 -0.177,-0.939 -0.428,-1.64 -0.293,-1.838 0.249,-0.363 4.677,1.936 5.624,3.216 0.848,1.145 0.234,1.769 -2.282,2.602 -0.182,0.061 -1.879,0.575 -2.093,0.236 z m -14.078,12.657 c -0.016,0.014 -0.054,0.045 -0.118,0.092 0.03,-0.022 0.07,-0.053 0.118,-0.092 z m 10.275,-5.226 c 1.136,-1.527 2.295,-3.094 2.554,-3.175 0.501,-0.157 1.08,-0.114 1.752,-0.187 2.868,-0.309 6.348,-2.562 6.85,-5.011 0.468,-2.287 -1.307,-5.095 -3.308,-6.531 -0.941,-0.676 -2.116,-1.343 -3.327,-1.871 -5.675,-2.474 -11.851,-3.197 -11.889,0.064 -0.013,1.171 -0.567,3.499 -1.27,4.48 -0.06,0.083 -0.116,0.169 -0.166,0.259 -0.249,0.455 -0.366,3.208 -0.335,4.372 0.089,3.321 4.675,3.396 6.575,3.812 0.691,0.151 1.064,0.232 1.064,0.232 0,0 -0.165,0.345 -0.317,0.662 -2.289,4.792 -15.004,12.42 -18.988,15.177 -9.333,6.458 -20.09,14.354 -10.383,9.754 1.358,-0.643 2.896,-1.385 4.339,-2.085 1.533,-0.743 2.896,-1.429 4.112,-2.063 11.775,-6.145 22.015,-16.918 22.737,-17.889 z"/>
</svg>