<?xml version="1.0" encoding="UTF-8" standalone="yes"?>
<svg>
  <path
    style="stroke:none; fill:#000000"
    d="m 80.108767,31.022469 c -0.0575,0.205 -0.08125,0.41625 -0.055,0.5975 0.15375,1.05375 1.19,0.8975 1.9975,0.70875 3.47375,-0.81 8.1625,-1.2075 12.605,-2.4925 3.74,-1.08125 8.857503,-3.5725 12.115003,-5.2675 0.53375,-0.2775 1.04125,-0.54 1.69875,-1.07 1.41375,-1.13625 3.5275,-3.50125 3.5275,-3.50125 0,0 -0.735,7.61125 -1.30375,11.70875 -0.7175,5.17375 -1.0025,6.45625 3.57,8.12625 3.38625,1.23625 6.63,-0.12 6.945,-6.0575 0.0913,-1.735 -0.0713,-4.0375 -0.0713,-4.0375 0,0 -1.3275,-0.88625 -2.16625,-0.87125 -0.94,0.015 -1.43,3.22 -2.50375,4.1175 -0.7575,0.6325 -2.515,0.13125 -3.25625,-1.10875 -0.16375,-0.275 -0.31375,-0.61625 -0.4425,-0.94 -0.11625,-0.295 -0.1225,-0.3625 -0.0738,-0.6775 1.04625,-6.61 3.03125,-16.57625 3.0725,-19.84 0.015,-1.1987501 -0.009,-2.4625001 -0.0475,-3.6212501 -0.075,-2.22125 0.065,-6.94000004 -3.145,-6.79250004 -0.90875,0.0425 -1.83375,0.4125 -2.14875,0.635 -3.98625,2.81000004 -6.39125,11.83125014 -2.08875,14.59875014 0.835,0.5375 2.0775,1.165 2.0775,1.165 0,0 -2.8725,2.26125 -6.07,4.16875 -3.3525,1.99875 -7.061253,3.61 -8.947503,4.3825 -0.6525,0.26625 -6.11875,2.2875 -7.25625,2.6975 -4.37125,1.635 -7.76,2.40125 -8.0325,3.37125 z m 29.103753,-22.7162501 0,-1.61125 2.345,0 c 0.28875,0 0.3425,0.0275 0.53375,0.26875 0.7625,0.965 1.225,1.73125 0.62,2.82 -0.16375,0.2937501 -0.39625,0.3500001 -0.96125,0.09 -0.8725,-0.40375 -2.5375,-1.5675 -2.5375,-1.5675 z M 4.4006593,71.099938 c 0.034459,-0.536421 0.097647,-1.519442 0.168642,-2.623467 -0.2061769,3.207292 0.3570449,-16.484844 -2.050784,3.731954 -0.1063758,0.893051 -0.138534,1.162956 -0.138534,1.162956 -0.1691419,1.420427 -0.2584113,2.951589 -0.3022884,4.361281 -0.1539397,4.947672 1.2524065,16.081379 5.5378701,19.045216 3.636041,2.513019 7.047478,1.953124 11.680008,-1.662649 1.309805,-1.023094 2.25477,-2.035924 3.009517,-3.119155 0.338131,-0.48741 4.332795,-9.309097 6.572217,-14.317712 l 1.971406,-4.40599 0.622494,3.873128 c 0.17619,1.091138 0.369253,2.148139 0.575662,3.074421 0.472317,2.117423 2.149115,6.632316 3.970543,8.964337 3.130129,4.007825 12.705646,4.627097 16.622395,4.839439 1.072175,0.05813 1.74993,0.09487 1.74993,0.09487 -0.362216,-4.907444 1.764721,-6.158441 2.00102,-10.517098 -1.80418,-10e-4 -3.621028,0.32706 -5.589735,-0.06394 -5.118074,-1.028571 -5.369862,-0.217262 -8.816045,-2.990385 -3.55169,-2.858961 -4.737314,-8.213495 -2.019043,-11.871708 0.767018,-1.032492 5.488246,-3.859807 6.922043,-4.145108 3.044773,-0.606062 4.087583,0.617184 5.460822,3.111431 3.754882,6.823273 12.743794,5.932326 19.592966,5.625151 6.658436,-0.298738 7.605067,-2.035039 14.510974,-8.653397 0.603434,-0.578181 1.154972,-1.076555 2.277803,-1.144621 0.155788,-0.01033 0.321087,-0.01138 0.486116,-0.0074 l 1.757901,0.04022 -0.142465,4.89071 c -0.02805,0.956133 -0.02831,2.161637 0.0808,3.12771 0.616882,5.431359 7.768149,8.07236 13.541496,6.689119 1.58539,-0.379734 2.66575,-1.142367 4.12594,-1.452526 0.35587,-0.07585 9.34693,0.425364 10.82899,2.528679 0.12428,0.178239 0.15454,0.358892 0.28292,0.484776 0.43949,0.436933 2.03834,0.224424 3.09422,-0.340495 0.88965,-0.47754 1.39346,-1.203832 1.71728,-2.073827 0.16415,-0.441762 0.28152,-0.921111 0.50013,-1.397476 0.73131,-1.597753 2.59081,-3.154373 3.29759,-4.692117 0.4852,-1.052778 0.42916,-2.097343 0.13566,-3.287476 -0.15609,-0.630625 -0.37755,-1.302349 -0.54385,-1.998622 -0.61339,-2.563214 -0.46936,-5.450901 -1.05657,-7.157693 -0.25296,-0.737275 -2.68828,-2.228796 -3.60087,-2.205665 -1.13447,0.02863 -3.50565,0.771356 -5.59433,1.683373 -2.06312,0.902138 -2.94391,1.47029 -4.70523,2.970892 -1.79664,1.528732 -3.68908,3.439087 -4.07928,4.240389 -1.21997,2.506383 -0.81176,4.028213 -3.46705,4.331164 -0.11841,0.01361 -0.23176,0.02624 -0.34123,0.03658 -1.9647,0.195178 -8.462498,-3.092647 -8.7469,-5.720646 -0.13922,-1.288176 -0.07555,-3.086115 -0.07555,-3.086115 0,0 2.318084,-0.940892 4.79417,-1.378742 4.36432,-0.769869 9.22345,0.02434 9.22345,0.02434 0,0 0.11232,-2.926962 0.81043,-4.396324 0.7249,-1.525496 2.08196,-1.480716 2.38841,-3.161592 0.11425,-0.629738 0.0814,-1.501545 0.0814,-1.501545 0,0 -7.28464,-1.47401 -11.78842,-2.796008 -2.763846,-0.81206 -4.479296,-1.56603 -6.368904,-2.825169 -1.123578,-0.749423 -2.310144,-1.676266 -3.532763,-2.238276 -0.774353,-0.356192 -1.562864,-0.566686 -2.268042,-0.836506 -5.278052,-2.026195 -10.035304,-6.63924 -17.132317,-0.444348 -0.863285,0.753121 -1.552744,1.971334 -2.329826,4.136191 -1.711877,4.76807 -1.734836,5.953566 1.946758,5.469657 0.97957,-0.127158 2.023105,-0.279641 2.952943,-0.574737 1.359065,-0.43081 2.476841,-1.16763 3.644831,-1.583762 4.522539,-1.610036 7.349797,1.357367 11.972324,4.414587 0.247754,0.163652 0.274568,0.200157 0.270831,0.361442 -0.04073,1.79042 -4.193502,2.721979 -6.042837,4.045056 -1.668262,1.192689 -2.203863,2.874911 -3.455065,3.856117 -3.013647,2.364074 -16.075315,2.318172 -19.481054,1.269767 -2.833191,-0.872151 -3.897098,-1.798604 -5.676962,-4.574025 -2.755056,-4.299197 -6.274525,-4.0118 -10.73406,-1.693565 -1.821411,0.946537 -3.443994,2.127932 -5.02295,3.89004 -4.269389,3.566742 -4.510824,11.177608 -4.987417,13.140528 0,0 -0.855782,-1.879083 -1.328151,-3.464479 -0.07097,-0.237941 -0.133615,-0.467919 -0.187723,-0.693679 -1.313268,-5.401513 -1.292708,-9.313637 -2.00722,-13.24433 C 31.181151,51.946639 23.544349,37.410661 20.453541,34.755699 19.252928,33.725444 18.094306,33.1306 17.510431,33.59968 c -0.315674,0.253283 -0.741598,1.281734 -1.057685,2.346184 -0.5624,1.894833 -0.78864,5.405233 -0.05561,7.320223 0.0189,0.04859 0.03779,0.09719 0.05669,0.145783 0.845644,2.137663 1.008698,2.448195 2.1506,3.367609 6.688796,5.38499 6.94876,7.886481 10.420416,17.832752 0.04002,0.116087 0.08025,0.228429 0.111471,0.34529 0.210379,0.783788 -1.349448,5.079397 -2.804321,7.854708 -3.945153,7.525089 -4.808041,10.291004 -7.87835,12.336364 -2.857296,1.288812 -4.65373,2.917558 -7.354101,2.896374 C 5.784782,87.670415 4.6705595,79.525654 4.3852772,74.715658 4.3300843,73.782551 4.3116933,72.484653 4.4006593,71.099938 z M 122.40265,68.937228 c -0.33833,0.652642 -1.05635,0.942948 -1.87252,0.942514 -0.0501,-2.1e-4 -5.62219,-1.98226 -5.66854,-2.004802 -0.1099,-0.05102 -0.23076,-0.10765 -0.36127,-0.171058 -0.23659,-0.115477 -0.44519,-0.239451 -0.57009,-0.360139 -0.71975,-0.693731 2.82414,-1.177594 3.05331,-1.225258 1.11284,-0.230095 2.54191,-0.520659 3.49266,-0.323903 0.38,0.07944 1.92645,3.142646 1.92645,3.142646 z M 14.876285,62.240243 9.06716,68.638993 c -0.965375,1.06375 -1.102625,1.25375 -1.37275,1.90875 -0.37825,0.9175 -0.509125,2.45125 -0.32325,2.65875 0.60175,0.67375 2.729,-0.96 3.4695,-1.56625 6.4845,-5.3025 9.4385,-8.6425 10.48725,-15.51 0.5325,-3.49 -1.13375,-4.84125 -4.083125,-5.28625 -4.6785,-0.7075 -9.321375,0.01625 -11.138875,3.9225 0.283625,14.91375 0.683125,6.385 4.65075,5.32625 4.41375,-1.1775 9.16,-3.79375 4.119625,2.1475 z m 46.796232,-29.059024 -0.65375,0.0125 c -0.84125,0.01625 -0.955,0.1325 -1.135,1.1675 -0.07875,0.4525 -0.3125,1.14375 -0.57625,1.8125 -1.53375,3.89 -3.36375,2.99125 -4.68,0.1175 -1.2025,-2.6225 -2.64625,-5.52375 -2.8825,0.29625 -0.095,2.335 0.14,6.78375 1.76125,7.995 1.7375,1.29625 4.4275,0.29 6.10625,-0.9675 0.39625,-0.29625 0.74875,-0.64 0.94,-1.07875 0.10875,-0.25125 0.16625,-0.5325 0.20625,-0.81 l 0.2375,-1.62875 1.635,0.205 c 0.29875,0.0375 0.61,0.06875 0.90875,0.055 1.04125,-0.05125 1.84375,-0.60875 2.44375,-1.43125 2.73,-3.74125 1.46875,-8.26 -0.67,-11.44 -1.60125,-2.37875 -4.30375,-6.1125 -1.66125,1.3525 0.96375,2.7225 0.81375,4.28875 -1.98,4.3425 z m 14.76875,63.1175 3.47125,1.6275 c 1.78625,0.235 3.99,0.4525 5.63875,0.38 3.1075,-0.13625 8.1675,-1.42625 9.94375,-3.91875 1.58875,-2.22875 1.775,-3.17625 3.65625,-2.33375 0.928753,0.41625 2.007503,1.125 3.188753,1.59875 2.67875,1.07375 2.7225,1.06 4.5025,-1.8975 0.77625,-1.28875 1.57875,-2.2825 1.81,-3.8575 0.11375,-0.775 0.1275,-1.02875 0.1075,-2.31 -0.0637,-4.31875 -0.49625,-4.91 -4.74625,-2.64125 -0.60375,0.3225 -1.13125,0.63625 -1.34375,0.8075 -0.88375,0.71625 -1.45625,1.84375 -2.29,2.63 -0.797503,0.75375 -1.833753,1.19375 -2.536253,1.85875 -0.9975,0.94625 -1.31875,2.34625 -2.045,3.40125 -0.41,0.5975 -10.44875,2.72 -16.56625,4.02625 l -2.79125,0.62875 z m 28.043753,-9.735 1.4925,-0.03 0.0575,3.61875 c 0,0 -0.3925,0.025 -0.74625,0.015 -1.21125,-0.035 -3.9125,-1.53875 -3.9525,-2.25 -0.0125,-0.22125 0.77625,-0.885 1.7275,-1.15125 0.60875,-0.17 0.75125,-0.19 1.42125,-0.2025 z m -99.9542531,-41.24 c -0.049,-1.47375 -0.199,-3.32375 -0.635625,-3.79 -0.253125,-0.26875 -0.602625,-0.07375 -0.82175,-0.21875 -0.98575,-0.65625 0.691125,-3.3625 1.49,-4.3975 7.2528751,-9.3875 26.0491251,-21.04375 35.9791251,-23.455 0.94625,-0.23 1.8925,-0.41625 2.07125,-0.06125 0.08875,0.1775 -0.01125,0.4875 -0.16375,0.8375 -0.35875,0.8225 -0.9325,1.81875 -1.57125,2.88625 -13.225,22.14625 7.6375,-8.5875001 13.55625,-9.4512501 0.5425,-0.29625 1.05,-0.535 1.50125,-0.6925 2.30375,-0.805 4.7975,-0.975 5.10125,-3.42375 0.0425,-0.34375 0.0475,-0.77125 0.0375,-1.1875 -0.1,-4.01125 -6.00375,-2.09250004 -10.16375,-0.3375 -3.85,1.625 -9.5675,4.3 -15.6325,7.4125 C 27.432517,13.469969 3.9371419,25.554969 0.63089187,36.052469 c -1.065375,3.38125 -0.86725,7.17125 1.25650003,10.43125 0.091125,0.14 0.17375,0.26625 0.249125,0.38 -0.958625,-1.44375 2.599125,4.62625 2.39425,-1.54 z m 13.7742501,-23.92625 -0.16625,-4.2275 c -0.06775,-1.70875 -0.0455,-2.015 0.2225,-3.0625 0.1975,-0.77625 0.4075,-1.625 0.93875,-2.1725 1.295,-1.33375 4.50125,-0.8725 5.9875,-1.9712501 2.14,-1.5825 2.14125,-7.01625 0.495,-9.21750004 -1.74625,-2.33499996 -5.2775,1.37250004 -6.72375,3.49500004 -0.88875,1.30375 -1.73,2.7975 -2.1085,4.54125 -0.175375,0.8075 -0.272375,1.7250001 -0.4095,2.5275001 l -0.67175,3.9325 -2.21825,-3.13 c -3.03625,-4.4350001 -2.11025,-5.7525001 -6.5718751,-6.9587501 -1.494875,-0.40375 -4.73675,-0.2525 -5.35975,1.61375 -0.487625,1.46125 0.657,5.0125001 1.374,5.8550001 0.551375,0.64875 2.784125,2.25875 3.706375,2.3575 1.507,0.16125 4.5862501,-0.85625 4.5862501,-0.85625 0,0 2.485125,3.96625 4.00325,5.83 0.662375,0.8125 1.210125,1.4675 2.059625,1.485 0.35075,0.0075 0.856375,-0.04125 0.856375,-0.04125 z m 22.76625,23.92625 c -0.04875,-1.47375 -0.19875,-3.32375 -0.635,-3.79 -0.2525,-0.26875 -0.6025,-0.07375 -0.82125,-0.21875 -0.98625,-0.65625 0.69,-3.3625 1.49,-4.3975 7.2525,-9.3875 26.04875,-21.04375 35.97875,-23.455 0.94625,-0.23 1.8925,-0.41625 2.07125,-0.06125 0.08875,0.1775 -0.01125,0.4875 -0.16375,0.8375 -0.35875,0.8225 -0.9325,1.81875 -1.57125,2.88625 -13.225,22.14625 7.6375,-8.5875001 13.55625,-9.4512501 0.54125,-0.29625 1.05,-0.535 1.50125,-0.6925 2.3025,-0.805 4.7975,-0.975 5.10125,-3.42375 0.04125,-0.34375 0.04875,-0.77125 0.0375,-1.1875 -0.1,-4.01125 -6.00375,-2.09250004 -10.16375,-0.3375 -3.85,1.625 -9.5675,4.3 -15.6325,7.4125 -7.84625,4.0250001 -31.34125,16.1100001 -34.6475,26.6075001 -1.06625,3.38125 -0.8675,7.17125 1.25625,10.43125 0.09125,0.14 0.17375,0.26625 0.24875,0.38 -0.95875,-1.44375 2.59875,4.62625 2.39375,-1.54 z"/>
</svg>