<?xml version="1.0"?>
<svg xmlns="http://www.w3.org/2000/svg" version="1.1">
  <path
     d="m 149.04852,73.22396 c 0.151,2.211 1.118,3.586 2.877,3.983 2.27,0.512 3.554,-0.801 4.135,-3.456 0.128,-0.583 0.099,-1.068 -0.252,-1.303 -0.669,-0.445 -2.505,0.017 -3.393,-0.486 -1.105,-0.625 -1.386,-3.285 -1.112,-4.528 0.273,-1.245 0.97,-2.578 1.16,-3.537 0.038,-0.194 0.056,-0.373 -0.023,-0.473 -0.01,-0.012 -0.02,-0.024 -0.03,-0.035 -2.672,-0.65 -3.321,10.432 -3.362,9.835 z m -111.366104,-57.167 -0.4251,-8.651 c -0.0631,-1.283 -0.0879,-1.507 -0.2483,-2.234 -0.4918,-2.228 -1.8149,-3.448 -3.1981,-4.236 -1.7591,-1.002 -3.1015,-1.374 -4.9144,0.036 -1.4907,1.16 -1.6311,5.359 -1.0451,6.016 0.4372,0.49 1.5956,0.446 2.9978,0.095 3.5022,-0.878 3.8532,-0.675 4.7655,3.274 0.4335,1.877 0.4846,3.636 0.2714,5.523 -0.4528,4.009 -1.5167,5.959 0.5682,8.312 0.8676,0.979 1.774,1.128 3.7536,0.693 1.4064,-0.309 1.6854,-1.006 2.275,-3.083 0.4151,-1.462 0.7435,-2.771 0.6372,-4.229 -0.2111,-2.892 -3.1434,-8.328 0.3907,-9.679 0.6523,-0.249 1.5002,-0.086 2.2313,0.084 0.9855,0.229 1.1527,0.125 1.6721,-1.039 0.427,-0.956 0.9211,-1.836 1.1928,-2.866 1.0197,-3.865 -0.5417,-4.955 -3.6745,-3.372 -3.5937,1.816 -5.2079,9.596 -4.4402,14.812 0.2351,2.15 0.4927,4.086 0.4927,4.086 0,0 -0.2149,-0.003 -0.4707,-0.03 -1.0061,-0.105 -2.7344,-1.53 -2.8319,-3.512 z m 38.7271,0 -0.425,-8.651 c -0.063,-1.283 -0.088,-1.507 -0.249,-2.234 -0.491,-2.228 -1.814,-3.448 -3.198,-4.236 -1.759,-1.002 -3.101,-1.374 -4.914,0.036 -1.491,1.16 -1.631,5.359 -1.045,6.016 0.437,0.49 1.595,0.446 2.998,0.095 3.502,-0.878 3.853,-0.675 4.765,3.274 0.434,1.877 0.485,3.636 0.272,5.523 -0.453,4.009 -1.517,5.959 0.568,8.312 0.867,0.979 1.774,1.128 3.753,0.693 1.407,-0.309 1.686,-1.006 2.275,-3.083 0.415,-1.462 0.744,-2.771 0.637,-4.229 -0.211,-2.892 -3.143,-8.328 0.391,-9.679 0.652,-0.249 1.501,-0.086 2.232,0.084 0.985,0.229 1.152,0.125 1.672,-1.039 0.427,-0.956 0.921,-1.836 1.192,-2.866 1.02,-3.865 -0.541,-4.955 -3.674,-3.372 -3.594,1.816 -5.208,9.596 -4.44,14.812 0.235,2.15 0.492,4.086 0.492,4.086 0,0 -0.215,-0.003 -0.47,-0.03 -1.006,-0.105 -2.735,-1.53 -2.832,-3.512 z m -64.2611,25.65 0.1596,-2.101 -2.7947,0.667 c -13.5865,3.239 -3.064,-21.402 -5.6671,-16.894 -2.998,5.192 -4.3093,11.392 -3.7005,16.937 0.0664,0.605 0.1389,1.155 0.2273,1.659 1.4182,8.084 11.3085,5.876 11.7754,-0.268 z m 71.0221,-3.71 -4.516,4.784 c -0.751,0.795 -0.857,0.938 -1.067,1.428 -0.294,0.686 -0.396,1.832 -0.252,1.988 0.468,0.503 2.122,-0.719 2.698,-1.171 5.042,-3.965 7.338,-6.463 8.153,-11.597 0.415,-2.61 -0.881,-3.62 -3.174,-3.953 -3.638,-0.528 -7.247,0.012 -8.66,2.933 0.22,11.15 0.531,4.774 3.615,3.982 3.432,-0.88 7.122,-2.836 3.203,1.606 z m -67.1603,-29.296 -4.5165,4.784 c -0.7506,0.795 -0.8573,0.938 -1.0673,1.428 -0.2941,0.686 -0.3958,1.832 -0.2513,1.988 0.4678,0.503 2.1217,-0.719 2.6974,-1.171 5.0418,-3.965 7.3385,-6.463 8.1537,-11.597 0.4143,-2.61 -0.8815,-3.62 -3.1744,-3.953 -3.6376,-0.528 -7.2474,0.012 -8.6605,2.933 0.2206,11.151 0.5312,4.774 3.616,3.982 3.4316,-0.88 7.1216,-2.836 3.2029,1.606 z m 2.3026,24.742 5.4243,-5.785 -5.4243,-5.784 -5.4243,5.784 5.4243,5.785 z m 19.9873,38.875 -3.7691,4.019 5.4243,5.785 5.4243,-5.785 -3.7691,-4.019 3.7691,-4.019 -5.4243,-5.785 -5.4243,5.785 3.7691,4.019 z m 95.203404,1.013 1.16,-0.021 0.045,2.705 c 0,0 -0.305,0.019 -0.58,0.011 -0.942,-0.026 -3.042,-1.15 -3.073,-1.683 -0.01,-0.165 0.604,-0.661 1.343,-0.86 0.473,-0.127 0.584,-0.142 1.105,-0.152 z m -21.804,7.279 2.699,1.217 c 1.389,0.176 3.102,0.338 4.384,0.284 2.416,-0.102 6.35,-1.066 7.731,-2.929 1.235,-1.667 1.38,-2.375 2.843,-1.745 0.722,0.311 1.561,0.841 2.479,1.194 2.082,0.803 2.117,0.794 3.501,-1.418 0.603,-0.963 1.227,-1.706 1.407,-2.884 0.089,-0.58 0.099,-0.769 0.084,-1.727 -0.05,-3.229 -0.386,-3.672 -3.691,-1.975 -0.469,0.241 -0.879,0.475 -1.044,0.604 -0.687,0.535 -1.133,1.378 -1.781,1.966 -0.62,0.563 -1.426,0.893 -1.971,1.39 -0.776,0.708 -1.026,1.754 -1.59,2.543 -0.319,0.446 -8.124,2.034 -12.881,3.01 l -2.17,0.47 z m -27.760004,-2.508 3.769,4.02 5.425,-5.785 -5.425,-5.784 -3.769,4.019 -3.769,-4.019 -5.424,5.784 5.424,5.785 3.769,-4.02 z m -33.095,-68.239 c 0.1502,2.211 1.1175,3.586 2.877,3.983 2.27,0.512 3.553,-0.801 4.135,-3.456 0.128,-0.583 0.099,-1.068 -0.253,-1.302 -0.668,-0.446 -2.505,0.017 -3.393,-0.486 -1.104,-0.626 -1.385,-3.286 -1.112,-4.529 0.274,-1.244 0.971,-2.577 1.161,-3.537 0.038,-0.194 0.056,-0.373 -0.023,-0.473 -0.01,-0.012 -0.021,-0.024 -0.031,-0.035 -2.671,-0.65 -3.3205,10.432 -3.361,9.835 z m 93.854004,47.621 c -0.079,-0.017 -0.156,-0.036 -0.229,-0.056 -0.684,-0.187 -1.049,-0.494 -1.497,-0.873 -0.603,-0.511 -0.67,-0.606 -0.67,-0.946 0,0 0,-0.758 0,-0.758 0,0 0.593,-0.079 1.451,-0.194 1.594,-0.212 3.014,-0.737 2.989,1.172 -0.019,1.51 -0.532,1.987 -2.044,1.655 z m 6.671,-8.855 c -1.836,-2.667 -7.654,-0.953 -10.013,0.202 -1.348,0.659 -3.735,2.549 -4.442,3.752 -1.893,3.224 -0.924,4.354 -2.607,5.346 -6.671,3.933 -20.973,0.311 -25.759,-2.842 -3.074,-2.025 -4.786,-4.95 -5.996,-8.761 -0.605,-1.909 -1.829,-23.949 -1.998,-31.298 -0.154,-6.647 -0.444,-14.967 -0.444,-14.967 0,0 -1.479004,-0.137 -2.372004,0 -1.424,0.219 -3.003,4.47 -2.958,6.726 0.034,1.669 0.883,3.826 1.555,6.062 0.681,2.269 2.415,29.519 3.424,40.587 0.116,1.273 0.193,1.539 0.775004,2.662 3.233,6.237 7.736,7.863 13.788,9.646 5.302,1.562 9.186,2.461 14.656,0.237 7.236,-2.943 7.495,-5.347 11.902,-1.755 1.68,1.369 2.096,1.753 3.287,1.518 2.465,-0.486 3.096,-0.976 3.999,-2.447 0.98,-1.595 2.419,-3.642 3.018,-5.756 0.568,-2.004 0.424,-4.734 0.437,-7.112 0.007,-1.28 -0.019,-1.461 -0.252,-1.8 z m -141.892104,-5.074 -0.7261,-0.285 c -0.5102,1.126 -1.5903,2.623 -2.3804,3.725 -2.3166,3.231 -4.8872,13.294 -4.4413,16.586 1.0463,7.725 8.1235,12.969 15.0115,12.305 4.1719,-0.403 10.1092,-2.269 12.5243,-4.973 0.3239,-0.363 5.6484,-9.138 5.7737,-10.657 0.1566,-1.899 -0.4442,-4.736 -0.4442,-4.736 0,0 2.7808,0.304 5.0631,0.474 0.3116,0.023 0.7246,0.011 1.196,-0.027 7.0795,-0.573 12.5205,-5.232 12.3865,-13.505 -0.03,-1.828 -0.253,-3.69 -0.658,-5.887 -0.415,-2.245 -0.9538,-4.769 -1.777,-6.157 -0.2415,-0.407 -0.4648,-0.574 -1.0217,-0.506 -0.2396,0.029 -0.3391,0.152 -0.9944,1.225 -2.1778,3.567 -3.3103,5.163 -2.6472,8.28 0.3437,1.615 1.0972,3.381 1.3324,4.973 0.1707,1.156 -0.3084,3.072 -0.8883,3.552 -0.7149,0.593 -4.7432,1.189 -6.7507,0.947 -1.779,-0.213 -5.6354,-1.653 -6.573,-2.841 -1.2734,-1.615 -1.9445,-5.119 -3.2866,-4.263 -1.3654,0.871 -2.2474,6.281 -2.2207,6.875 0.115,2.559 4.7083,12.046 3.7308,14.627 -1.1714,3.093 -10.5894,5.962 -14.2121,5.494 -5.2039,-0.671 -9.1369,-3.64 -10.8811,-8.051 -2.4855,-6.287 -0.562,-10.597 2.8845,-17.175 z m 82.0311,-1.514 c -1.316,1.233 -1.96,4.611 -1.85,6.234 0.067,0.978 0.324,1.818 0.889,2.684 1.992,3.059 4.559,5.3 0.746,6.315 -3.37,0.896 -10.735,-1.091 -13.182,-3.079 -4.086,-3.319 -3.94,-6.127 -5.551,-11.13 -0.999,-3.1 -6.429,-11.714 -7.773,-13.261 -1.72,-1.981 -3.835,-3.62 -5.107,-1.421 -1.276,2.205 -0.814,6.763 0,8.525 1.47,3.183 8.706,10.103 9.548,12.466 1.256,3.522 -2.443,10.034 -5.995,14.53 -3.336,4.222 -6.401,5.504 -10.329,3.377 -1.2675,-0.686 -2.661,-1.939 -2.9949,-2.903 -0.7509,-2.167 -0.259,-6.093 -1.1104,-6.631 -0.9472,-0.598 -1.5669,1.188 -1.7765,2.833 -0.3504,2.751 0.1786,9.603 1.1104,11.376 2.2935,4.365 7.8804,4.388 11.7694,2.131 1.325,-0.769 8.264,-8.344 9.326,-10.183 0.466,-0.805 0.786,-1.488 1.111,-2.841 0.479,-1.993 0.969,-5.44 0.969,-5.44 0,0 1.067,2.029 1.918,3.308 3.203,4.82 9.206,5.891 13.945,5.447 5.251,-0.492 5.96,-1.172 8.116,-5.788 2.475,-5.299 3.168,-5.778 1.255,-10.315 -0.497,-1.179 -1.006,-2.389 -1.629,-3.522 -2.598,-4.724 -3.373,-2.742 -3.405,-2.712 z"
     style="fill:#000000;stroke:none" />
</svg>
