<?xml version="1.0" encoding="UTF-8" standalone="yes"?>
<svg xmlns="http://www.w3.org/2000/svg" xmlns:xlink="http://www.w3.org/1999/xlink"
  width="595.276pt" height="841.89pt" viewBox="0 0 595.276 841.89">
  <path
    style="stroke:none; fill:#000000"
    d="m 3.1054676,37.364292 c 0.50397,3.07359 1.4438,8.01083 0.98145,9.28201 -0.34086,0.93746 -1.03095,1.62992 -1.66566,2.46112 -2.64773997,3.468568 -3.03258997,7.535858 -1.59916997,12.211858 1.53003997,4.99099 6.90425997,2.9111 11.79438037,-0.18999 2.91422,-1.84865 10.03572,-6.90838 11.57664,-10.21946 0.0851,-0.18374 0.16474,-0.37123 0.23911,-0.56372 -0.67009,-2.554868 -2.7491,0.0688 -2.75548,0.0725 -7.95996,5.43971 -16.3072704,8.73204 -18.9122504,7.71084 -0.57997,-0.22749 -0.87021,-0.83121 -0.50723,-2.10989 0.22999,-0.81121 0.70109,-1.65491 0.80734,-1.78241 1.16506,-1.40742 3.58393,-2.8411 5.07798,-4.47351 0.93882,-1.026198 1.51242,-2.131138 2.5026204,-2.828598 1.25368,-0.88245 3.1752,-1.11244 4.64863,-1.77116 3.81692,-1.70616 6.75952,-6.32466 7.122,-9.93697 0.64984,-6.475911 -2.81523,-8.609551 -8.49893,-12.573091 -0.75896,-0.52997 -1.37043,-0.9487 -2.63149,-1.0287 -1.3243004,-0.0837 -3.3648204,0.20624 -3.3648204,0.20624 0,0 -0.10374,3.12109 0.32686,5.34347 0.48135,2.48362 1.63079,3.844801 2.1206404,5.505961 0.10899,0.36998 0.18536,0.75496 0.0544,0.8887 -0.135,0.1375 -0.4898504,0.009 -0.8289604,-0.20499 -2.66473,-1.68616 -2.80335,-4.093531 -4.92137,-3.011091 -1.16481,0.596221 -1.70078,1.989901 -1.79115,3.898551 -0.0576,1.21743 -0.0351,1.52867 0.22449,3.11233 z m 8.9537804,-7.364611 -0.14949,-1.27743 c 0,0 0.83533,-0.14624 1.42167,-0.0875 0.74646,0.0762 1.08919,0.48748 1.53792,0.87871 2.62674,2.294881 6.03831,3.194831 4.55988,5.492211 -0.23773,0.36873 -1.71828,1.9024 -3.02871,3.02484 -1.78453,1.52867 -2.8816,1.88115 -2.70673,-0.0325 0.27186,-2.97109 -1.69516,-8.517051 -1.63454,-7.998331 z m -2.9792204,10.788181 -1.58054,0.0963 c -0.71009,0.0437 -0.83171,0.035 -1.21544,-0.0788 -0.69221,-0.20499 -1.56579,-0.92495 -1.90102,-1.61116 -0.16187,-0.33124 -0.18362,-0.43123 -0.21837,-0.99995 l -0.0774,-1.26368 1.26444,-0.0775 c 0.56809,-0.035 0.66996,-0.025 1.01844,0.095 0.97445,0.33623 2.52587,1.99364 2.62286,2.41737 0.139,0.60747 0.087,1.42242 0.087,1.42242 z m 22.4450804,2.14275 c -0.0515,-1.39625 -0.209,-3.14875 -0.66762,-3.58875 -0.26588,-0.25625 -0.63288,-0.07125 -0.86313,-0.20875 -1.03537,-0.62125 0.72588,-3.185 1.56513,-4.165 7.61787,-8.892501 27.36037,-19.932501 37.79162,-22.217501 0.995,-0.2175 1.9875,-0.3925 2.17625,-0.0563 0.0925,0.1675 -0.0125,0.46125 -0.1725,0.7925 -0.3775,0.78 -0.98,1.7225 -1.65,2.73375 -13.89125,20.977501 8.02125,-8.1337499 14.23875,-8.9524999 0.56875,-0.28 1.1025,-0.50625 1.57625,-0.65625 2.41875,-0.76125 5.04,-0.9225 5.3575,-3.2425 0.045,-0.325 0.0512,-0.73125 0.04,-1.12375 -0.105,-3.8 -6.305,-1.98250002 -10.675,-0.32 -4.045,1.5375 -10.05,4.0725 -16.42,7.02 -8.2425,3.8137499 -32.92087,15.2599999 -36.3935,25.2025009 -1.119,3.20375 -0.911,6.79375 1.31975,9.88125 0.0956,0.1325 0.1825,0.2525 0.26175,0.36 -1.007,-1.3675 2.73,4.3825 2.51475,-1.45875 z m 25.90225,5.96 0.69875,-0.0125 c 0.31375,-0.005 0.3975,-0.19625 0.84125,-1.91 2.55375,-9.86 3.02,-15.30375 -3.26125,-21.626251 -1.035,-1.04125 -2.24,-1.915 -3.01625,-0.9825 -0.5275,0.63375 -1.065,5.10375 -0.825,6.08 0.42,1.706251 1.665,2.260001 3.1025,3.420001 3.2475,2.6175 4.06125,4.58125 3.6475,8.0675 -0.31625,2.67625 -1.1875,6.96375 -1.1875,6.96375 z m -16.44875,-28.623751 -0.175,-4.00375 c -0.0712,-1.61875 -0.0475,-1.90875 0.23375,-2.9 0.20875,-0.73625 0.42875,-1.54 0.98625,-2.05875 1.36,-1.26375 4.7275,-0.82625 6.28875,-1.8674999 2.24875,-1.4975 2.25,-6.645 0.52,-8.73125002 -1.83375,-2.21124998 -5.5425,1.30125002 -7.0625,3.31125002 -0.9325,1.235 -1.81625,2.65 -2.21375,4.30125 -0.185,0.765 -0.28625,1.63375 -0.43,2.3949999 l -0.70625,3.72375 -2.32987,-2.965 c -3.18925,-4.1999999 -2.21663,-5.4474999 -6.903,-6.5899999 -1.57013,-0.3825 -4.97525,-0.24 -5.62975,1.52875 -0.51213,1.3825 0.69025,4.7474999 1.44337,5.5462499 0.57913,0.61375 2.92425,2.13875 3.893,2.2325 1.58288,0.1525 4.81725,-0.81125 4.81725,-0.81125 0,0 2.61038,3.7575 4.20525,5.52125 0.695,0.77 1.27125,1.39 2.1625,1.4075 0.36875,0.006 0.9,-0.04 0.9,-0.04 z m -5.74636,81.441539 c 0.20374,2.79985 1.50992,4.54226 3.88729,5.04473 3.06609,0.64872 4.79975,-1.01495 5.58596,-4.37852 0.17249,-0.73746 0.13374,-1.35243 -0.34123,-1.64991 -0.9037,-0.56372 -3.38482,0.0225 -4.58351,-0.61497 -1.49242,-0.792463 -1.8724,-4.162284 -1.50242,-5.737204 0.36873,-1.57616 1.31118,-3.26483 1.56742,-4.47976 0.0512,-0.24624 0.075,-0.47248 -0.0312,-0.59872 -0.0138,-0.0163 -0.0275,-0.0312 -0.0412,-0.045 -3.60856,-0.8237 -4.48601,13.215564 -4.54101,12.459354 z m 43.17956,-75.572359 -4.14944,-4.18149 4.18148,-4.14944 4.18149,-4.14945 4.14944,4.18149 4.14944,4.18149 -4.18148,4.14944 -4.18149,4.14944 -4.14944,-4.18148 z m -6.19343,14.631055 -4.20172,-3.822932 4.2211,-4.168802 4.2211,-4.168801 3.04443,3.0909 3.04443,3.090903 3.12442,-3.085613 3.12442,-3.08561 4.18668,4.219017 4.18669,4.219015 -4.25553,3.772805 -4.25552,3.772806 -3.01293,-3.058924 -3.01293,-3.05893 -3.10646,3.053556 -3.10646,3.053549 -4.20172,-3.822939 z m -62.19626,50.018011 c 1.61903,2.219894 4.75484,3.899161 6.47498,3.467433 1.74152,-0.437096 4.08248,-5.559241 4.08979,-8.9487 0.0162,-7.513254 5.01827,-18.619796 10.88443,-24.167776 3.66791,-3.468963 6.26278,-3.991301 9.02686,-1.817083 1.61261,1.268484 4.76498,6.927418 4.76498,8.553809 0,0.500187 0.87496,2.807676 1.94435,5.127747 1.74768,3.791638 2.29378,4.409603 5.39898,6.10945 1.90006,1.040123 5.39092,2.267297 7.75749,2.727044 4.38773,0.852404 10.19729,0.602447 10.19729,-0.438737 0,-0.317103 -0.72124,-2.707971 -1.60275,-5.313041 -1.26406,-3.73558 -1.52919,-5.453643 -1.25466,-8.130146 0.76438,-7.452174 3.17716,-11.206913 9.16428,-14.261311 2.13068,-1.086986 3.32983,-1.26258 7.00966,-1.026425 2.86168,0.183652 5.17566,0.71498 6.51149,1.495149 2.50656,1.463903 4.97191,4.945475 4.72472,6.672225 -0.1668,1.165212 -0.61514,1.259155 -6.04193,1.265991 -6.40692,0.0081 -13.09736,1.77143 -15.09465,3.978412 -1.29554,1.431558 -0.67394,2.820443 2.63373,5.884747 3.35576,3.108847 7.47903,3.857024 11.97855,2.173539 3.77011,-1.410579 11.39868,-5.993195 15.256832,-9.165054 l 2.5023,-2.057186 0,3.51147 c 0,1.931307 -0.4712,5.463726 -1.04712,7.849817 -0.34144,1.414629 -0.58803,2.381473 -0.91125,3.15663 -3.97895,5.405795 -10.655662,10.623132 -16.066832,12.80913 -5.92057,2.374258 -12.44451,4.22036 -17.57974,4.974601 -4.42497,0.649915 -5.66756,0.604489 -9.87244,-0.360905 -20.66033,-3.001294 -15.98827,-13.911011 -22.79293,-23.054124 -0.8799,-0.309234 -2.43301,1.060359 -5.03331,4.081598 -3.47882,4.041966 -3.70733,4.519254 -5.24378,10.95223 -0.88355,3.699348 -1.91342,8.644795 -2.28859,10.989881 -1.36933,8.559198 -4.39584,10.759898 -10.79782,7.851548 C 5.4610176,97.783872 3.1080276,86.202738 2.7859176,75.619212 c -0.18421,-6.657028 0.19128,-12.835845 1.785,-10.817418 0.33941,2.672551 -0.1489,7.324978 0.43225,11.124569 1.00877,6.595486 3.32504,12.536177 5.0189504,14.858744 z"/>
</svg>