<?xml version="1.0" encoding="UTF-8" standalone="no"?>
<!-- Created with sK1/UniConvertor (http://sk1project.org/) -->

<svg
   xmlns:dc="http://purl.org/dc/elements/1.1/"
   xmlns:cc="http://creativecommons.org/ns#"
   xmlns:rdf="http://www.w3.org/1999/02/22-rdf-syntax-ns#"
   xmlns:svg="http://www.w3.org/2000/svg"
   xmlns="http://www.w3.org/2000/svg"
   xmlns:sodipodi="http://sodipodi.sourceforge.net/DTD/sodipodi-0.dtd"
   xmlns:inkscape="http://www.inkscape.org/namespaces/inkscape"
   width="595.276pt"
   height="841.89pt"
   viewBox="0 0 595.276 841.89"
   fill-rule="evenodd"
   id="svg2"
   version="1.1"
   inkscape:version="0.48.0 r9654"
   sodipodi:docname="nor.svg">
  <metadata
     id="metadata12">
    <rdf:RDF>
      <cc:Work
         rdf:about="">
        <dc:format>image/svg+xml</dc:format>
        <dc:type
           rdf:resource="http://purl.org/dc/dcmitype/StillImage" />
      </cc:Work>
    </rdf:RDF>
  </metadata>
  <defs
     id="defs10" />
  <sodipodi:namedview
     pagecolor="#ffffff"
     bordercolor="#666666"
     borderopacity="1"
     objecttolerance="10"
     gridtolerance="10"
     guidetolerance="10"
     inkscape:pageopacity="0"
     inkscape:pageshadow="2"
     inkscape:window-width="640"
     inkscape:window-height="480"
     id="namedview8"
     showgrid="false"
     inkscape:zoom="0.24801339"
     inkscape:cx="-109.78134"
     inkscape:cy="526.18127"
     inkscape:window-x="0"
     inkscape:window-y="0"
     inkscape:window-maximized="0"
     inkscape:current-layer="svg2" />
  <path
     inkscape:connector-curvature="0"
     id="path6"
     d="m 55.439119,11.78443 c -10.071,6.011 -20.1798,7.993 -33.4271,11.29 -1.1678,0.291 -1.3075,0.345 -1.3971,0.537 -0.0666,0.143 -0.1071,0.258 -0.1232,0.455 -0.0215,0.261 0,0.668 0,0.668 0,0 2.1119,0.026 3.9216,0 10.1317,-0.145 20.9025,-3.782 29.7241,-8.467 1.3904,-0.738 2.7865,-1.516 3.7879,-2.451 1.5471,-1.445 2.1599,-3.265 3.0792,-3.127 0.973,0.146 2.3012,2.451 3.8727,2.904 0.9627,0.278 1.626,-0.418 1.9608,-2.139 0.166,-0.853 -0.0372,-1.6010002 -0.6684,-2.3170002 -0.8059,-0.915 -2.2222,-1.532 -2.7076,-2.417 -0.349,-0.637 -0.2169,-1.413 -0.3716,-2.302 -0.5613,-3.225 -3.0567,-5.08999999 -5.3166,-4.19399999 -1.521,0.603 -3.7329,5.49199999 -2.968,7.43299999 0.3379,0.858 1.2023,1.727 1.6157,2.7060002 0.0662,0.156 0.1208,0.316 0.1393,0.484 0.0248,0.226 -0.0874,0.319 -1.1217,0.937 z m -16.6097,43.919 -0.5122,-5.122 -1.4884,0 -1.0405,6.454 c -0.1915,1.188 -0.3268,1.39 -1.3528,2.019 -2.9604,1.816 -5.4325,3.294 -7.6399,4.528 -14.8833,9.153 -29.9289999,10.893 -26.22789992,11.919 2.79950002,0.776 11.09219992,1.783 13.84549992,1.373 3.622,-0.539 12.4172,-4.839 14.4466,-6.156 1.1476,-0.745 7.0578,-5.509 8.272,-4.54 0.5287,0.423 0.5879,1.899 0.9626,3.12 0.6231,2.03 2.7823,5.286 4.2818,6.395 2.7145,2.008 6.2671,3.346 8.5971,2.963 5.487,-0.901 12.7115,-6.966 15.4128,-11.711 0.9594,-1.685 2.5614,-6.344 2.9029,-8.788 0.3336,-2.387 0.1425,-3.547 1.1135,-5.222 0.7966,-1.374 2.1815,-2.65 2.8973,-4.136 0.542,-1.126 0.7003,-2.371 1.1141,-3.565 0.5038,-1.455 1.3865,-2.835 1.7825,-4.154 0.8271,-2.754 -0.9246,-10.061 -2.8966,-12.781 -0.5244,-0.723 -1.2264,-0.743 -1.7826,0 -1.8251,2.441 -2.9654,5.865 -2.451,7.879 1.2711,4.976 5.7035,8 0,9.501 -2.9845,0.785 -2.7558,-2.536 -6.9074,-6.239 -1.1751,-1.048 -5.6682,-3.011 -7.0589,-2.228 -2.859,1.611 -4.2341,12.201 -3.8592,14.269 0.6643,3.666 2.4302,5.886 6.0161,5.785 1.91,-0.054 4.1767,-1.11 6.0516,-1.633 1.3071,-0.364 2.1891,-0.253 2.6384,1.036 1.0161,2.915 -4.1143,7.623 -6.6846,9.732 -2.18,1.789 -6.2215,3.525 -9.1356,3.343 -1.5,-0.094 -5.4248,-1.657 -6.4617,-2.451 -1.0193,-0.781 -3.0984,-4.078 -3.1195,-4.947 -0.0302,-1.242 1.1837,-2.425 2.3329,-4.258 0.7614,-1.214 4.2311,-11.484 3.4604,-14.494 -0.4261,-1.665 -2.1243,-3.52 -2.2282,-5.936 -0.0185,-0.43 0,-0.892 0,-0.892 l 1.7825,0 c 0,0 0.091,-0.98 0,-1.782 -0.1987,-1.753 -2.0725,-3.162 -3.1096,-5.034 -1.8232,-3.29 -1.7292,-5.967 -3.7977,-3.433 -4.9712,6.088 -2.5267,8.829 0.7753,16.08 0.086,0.189 3.2737,7.28 3.0126,8.875 -0.0797,0.487 -0.406,0.891 -0.9764,1.47 -1.0613,1.078 -2.9678,2.761 -2.9678,2.761 z m 23.1066,-6.726 c -0.6319,0.635 -1.8662,1.811 -2.9412,2.05 -0.3644,0.081 -0.7105,0.054 -0.9075,-0.162 -0.1356,-0.149 -0.2005,-0.387 -0.3511,-0.54 -0.2572,-0.262 -0.7644,-0.274 -1.1817,-0.42 -1.8649,-0.655 -1.7281,-3.695 -0.6346,-5.117 1.0338,-1.345 3.2115,-0.024 4.3821,1.337 0.5093,0.592 0.7778,1.194 1.4027,2.176 0.166,0.261 0.3572,0.549 0.2313,0.676 z m 1.7895,-21.668 4.8939,-4.894 -4.8939,-4.894 -4.8939,4.894 4.8939,4.894 z m -28.5164,-15.331 c 2.1061,-1.546 5.4413,-5.0960002 5.9789,-6.1100002 2.3228,-4.382 -0.519,-6.28799999 -4.7791,-5.79099999 -4.7792,0.557 -6.8295,1.96599999 -7.8765,6.54299999 -0.2891,1.264 0.1928,1.284 2.2308,0.612 0.2375,-0.078 3.3738,-1.329 4.9706,-1.515 l 1.2015,-0.139 -0.3876,1.059 c -0.0525,0.143 -0.1168,0.296 -0.1842,0.452 -0.3686,0.85 -1.3093,1.924 -2.1805,2.614 -4.4616,2.3710002 -0.7844,3.1410002 1.0261,2.2750002 z M 11.220919,4.2981445e-4 10.290619,1.4744298 c -0.1501,0.238 -0.2794,0.524 -0.3742999,0.826 -0.198,0.63 -0.5588,1.601 -0.651,2.562 -0.2401,2.503 1.9986999,5.8570002 1.8670999,8.3160002 -0.0726,1.359 -0.8819,2.587 -1.1862999,4.113 -0.6927,3.471 0.3750999,5.61 3.5049999,6.284 2.5056,0.539 2.7969,-0.05 3.7526,-2.385 0.6258,-1.529 1.0252,-2.47 0.1752,-3.25 -1.1012,-1.01 -4.1048,-1.373 -4.9479,-2.429 -0.8037,-1.008 0.3574,-2.435 0.8483,-4.194 0.5314,-1.9040002 -0.0316,-6.5950002 -0.5727,-8.6020002 -0.1518,-0.563 -0.3434,-1.08 -0.5938,-1.438 l -0.8919,-1.27699998555 z"
     style="fill:#000000;stroke:none" />
</svg>
