<?xml version="1.0" encoding="UTF-8" standalone="no"?>
<svg>
    <path
       style="fill:#000000;stroke:none"
       d="m 16.881308,95.38879 6.4,6.9175 8.45501,-9.14125 -8.45501,-9.14125 -6.4,6.91875 -6.4,-6.91875 -8.4550104,9.14125 8.4550104,9.14125 6.4,-6.9175 z m 19.00751,-60.75877 c 2.28625,1.1725 5.21375,4.1875 5.56,6.44125 0.0288,0.1875 0.0312,0.215 0.0312,0.215 l -2.10875,0.31125 c -0.53875,0.0788 -1.11,0.14875 -1.6025,0.17625 -3.085,0.175 -6.31251,-0.66 -7.31876,-2.0175 -0.635,-0.8575 -1.4325,-2.0275 -1.74875,-3.745 -0.0325,-0.17625 -0.28375,-1.54375 -0.36,-1.9575 -0.415,-2.25251 8.77876,1.2075 7.54751,0.57625 z m -4.76001,-11.99501 c -2.46625,2.11625 -4.7,5.7275 -6.66875,10.46251 -0.52,1.25125 -0.93875,2.4675 -1.02125,3.52375 -0.0625,0.79 0.0637,1.49125 0.37125,2.22875 0.41875,1 1.17125,2.06875 1.53,3.31375 0.9575,3.3225 0.0562,4.02125 1.885,5.19 2.64125,1.69 8.12376,2.93 10.25251,2.5975 2.4125,-0.37625 4.8175,-1.7975 7.06375,-2.51875 1.69125,-0.5425 2.0875,-0.23125 1.71125,1.59875 -1.51875,7.39 -8.9225,6.84875 -16.45001,7.005 -3.84125,0.08 -5.425,0.585 -6.6725,3.31626 -0.4475,0.97875 -0.48875,1.26 -0.41375,2.80875 l 0.1675,3.44875 8.70501,-0.49375 c 1.75875,-0.0987 2.1025,-0.10125 3.44,-0.02 1.64875,0.1 7.03,1.80375 6.28875,3.425 -0.48875,1.06625 -3.4175,1.98625 -4.46125,2.3 -9.26751,2.79125 -16.39501,4.24375 -22.67251,1.48375 C 0.12004757,66.12253 4.1550476,50.52002 2.8237976,55.41127 c -0.7425,2.72876 -1.5525,6.00126 -2.17625003,8.80876 C -3.5949524,83.29004 13.888808,88.19004 27.441308,84.42629 c 9.34251,-2.595 19.43001,-8.68126 25.38001,-15.78876 1.62875,-1.94625 3.0075,-4.1125 2.645,-6.44625 -0.10875,-0.70125 -0.29875,-0.8675 -1.90375,-1.665 -4.1475,-2.06125 -5.61125,-2.345 -4.7025,-4.30876 2.69375,-5.81875 4.94125,-7.76125 4.34125,-12.1 -0.47875,-3.45875 -1.33,-6.49 -2.56375,-9.24375 -1.08375,-2.415 -2.3025,-4.48501 -3.5375,-6.23751 -5.13625,-7.2875 -10.77,-10.4625 -15.97126,-6.00125 z M 18.871308,0 l -8.45,9.13501 8.45,9.135 8.45125,-9.135 L 18.871308,0 z" />
</svg>
