<?xml version="1.0" encoding="UTF-8" standalone="no"?>
<svg>
  <path
     style="stroke:none; fill:#000000"
     d="m 86.563412,19.31258 c 0.09726,-3.074677 -1.322217,-7.607187 2.203764,-9.128564 7.067061,2.151662 8.700076,-12.1166231 1.685758,-9.32297896 C 85.865235,3.6215536 84.930821,8.9524215 84.197162,13.79259 81.871797,11.269358 80.582847,7.8923765 78.068808,5.6181448 73.099202,1.8208959 67.106881,7.7198406 72.448266,12.006848 c 3.386184,3.486999 8.552722,-1.530129 10.052763,4.489405 1.074634,1.200338 2.086376,3.314964 4.062383,2.816327 z m 6.14249,25.37372 c 2.782461,-3.298208 3.237221,-10.122143 1.88113,-14.616365 -0.851797,-4.075753 -7.202924,-8.897575 -6.401219,-1.655646 1.492049,4.427637 8.053715,7.356965 5.062569,13.31486 -0.168702,0.987889 -0.349614,1.973697 -0.54248,2.957151 z m -25.01747,-4.31374 c 0.339308,5.396404 6.131399,4.926643 4.47494,-0.59875 -6.550881,-3.803716 3.599272,-7.675593 6.318367,-10.917197 8.25743,-5.650949 16.589105,-11.498222 25.934101,-15.206523 3.19553,-1.355446 -1.55425,8.81776 2.16766,3.93249 1.6117,-6.255752 8.26407,-8.3980798 13.26497,-11.2220997 2.70613,-1.8757467 3.55774,-8.7302752 -1.49225,-5.51432607 C 105.86549,5.9399474 94.329959,13.123672 82.898886,20.220669 c -5.540497,3.93006 -11.918621,7.427185 -15.583272,13.337112 -0.82329,2.209616 -0.134616,4.617668 0.372818,6.814779 z M 13.102242,62.32378 C 10.908521,64.836516 7.9746846,66.857781 6.4584431,69.831895 7.5080646,73.965967 14.618425,65.671511 16.545821,63.42976 20.537583,59.056524 19.399482,50.985258 12.125951,52.708165 5.8586803,51.80255 3.4990111,58.940934 6.0925822,63.298778 6.8426158,60.647002 19.367383,56.353801 13.102242,62.32378 z m 24.04622,-3.8975 c 2.824619,-5.675039 0.156271,-12.002927 0.123438,-17.98482 -0.561835,-3.724878 -1.733014,-8.556552 3.837871,-6.66339 6.096453,4.074999 10.542757,-7.865544 4.468686,-9.77409 -4.116393,-0.54918 -4.794767,5.417407 -9.042495,5.74984 -2.253755,5.338462 -1.855755,11.527468 -1.567315,17.224587 0.546979,3.847271 1.338538,7.655641 2.179815,11.447873 z M 99.122142,42.1588 c -0.134126,6.681058 8.290718,-2.431303 11.406278,-3.321116 4.31927,-3.040575 10.54306,-5.654422 10.93216,-11.709723 -4.7697,0.732551 -9.32456,5.037143 -13.83922,7.367134 -2.81147,2.363028 -7.855272,3.571071 -8.499218,7.663705 z m -25.40622,22.95998 c 0.604398,-4.460352 6.081998,-8.659137 10.652702,-9.150724 3.571187,0.749708 10.055577,6.681045 8.185978,9.258224 -6.191811,1.436166 -12.619414,0.79949 -18.83868,-0.1075 z M 97.162142,52.83879 C 94.595992,48.936276 89.804547,43.834195 84.733764,46.677724 77.265113,50.096951 74.961148,58.756765 69.504682,64.18128 64.346597,62.940483 58.716373,60.086315 57.107288,54.603526 53.812811,50.217441 46.339186,54.227068 43.016583,57.275129 38.113919,60.405146 39.335264,67.972654 35.289722,70.86252 28.050133,62.52565 29.89916,50.213253 24.064243,41.093762 22.595526,37.637781 16.714666,30.720635 16.142474,38.378704 c -2.553294,5.980116 3.487617,9.902487 6.096789,14.42743 2.296416,4.578275 5.272922,9.936306 4.147901,15.144847 C 23.612025,73.706006 19.655197,79.564692 13.783029,82.445366 7.7580663,85.160774 3.4673879,78.272535 2.3814853,73.269265 1.4864737,71.358248 3.2343188,60.353342 1.3845679,67.33388 c -1.55121262,8.171752 -3.2303759,18.256727 3.6187852,24.590695 4.4434403,4.915644 11.2849129,0.975484 14.7729959,-3.027791 4.325668,-3.857482 4.74706,-10.179074 8.556059,-14.328919 2.662035,2.986459 4.101578,9.387306 8.475648,11.953225 4.557357,1.679768 10.828573,5.504049 15.318796,2.313216 2.042334,-2.627336 4.900623,-11.194323 -0.862574,-10.046171 -4.322818,0.564868 -8.760911,-1.693455 -9.933057,-6.157614 -3.995728,-6.113688 5.129541,-9.337861 9.860249,-9.383991 3.860396,3.272409 5.682119,9.980972 12.029936,10.413128 3.784406,0.138441 -2.962868,10.541136 3.298374,5.626825 0.655517,-3.205896 1.247126,-4.703464 4.824375,-3.765493 6.627637,0.204558 13.43032,1.52548 19.805311,-1.054836 3.342248,-0.808057 4.762414,-5.870514 6.747817,-0.901107 4.059387,4.705826 10.910627,5.099401 16.381317,2.908537 4.77418,-1.492208 10.61737,-2.904302 12.03288,-8.45564 3.84074,-6.788948 2.62231,-14.665903 2.91895,-22.102546 0.24616,-8.566136 -0.0852,-17.257469 0.77543,-25.740418 5.7049,5.027091 0.57267,-6.505313 1.23638,-9.566577 -0.63309,-3.8179446 1.45209,-14.105512 -5.24888,-9.1434035 -3.32629,5.219768 0.77427,10.8705295 0.21732,16.3692285 0.64085,11.216316 -1.34999,22.375441 -0.76809,33.578126 0.37976,5.455768 3.4537,14.472481 -4.61101,15.509936 -6.08543,1.821431 -14.06333,4.313564 -18.87642,-1.460334 -3.981624,-3.54491 -0.98383,-8.745599 -4.793018,-12.623166 z M 9.3547517,27.51507 C 4.8325442,30.472933 1.8497238,35.760741 4.4680363,41.042864 5.1924678,47.080339 10.983331,43.62697 8.3576705,39.380373 2.542128,35.754203 12.315831,32.201945 14.929831,29.394267 26.531762,21.561671 39.868806,17.019643 52.528402,11.25009 52.231065,13.793069 50.363042,16.939693 51.47038,19.129965 53.725554,15.218022 56.066724,10.809087 60.777012,9.0700182 64.256511,8.0086617 69.987396,4.1017176 67.570043,0.51293401 57.1515,2.6848448 47.258372,6.9429649 37.461759,11.035621 27.538708,15.472703 17.786372,20.585146 9.3547517,27.51507 z M 21.998482,19.31258 c 0.09726,-3.074782 -1.322632,-7.607138 2.203769,-9.128564 7.066877,2.15164 8.699688,-12.1173042 1.685292,-9.32297896 C 21.299146,3.621579 20.365701,8.9521982 19.632232,13.79259 17.306878,11.269351 16.01792,7.8923759 13.503883,5.6181448 8.5340899,1.8209222 2.5415008,7.7195998 7.8826422,12.006848 c 3.3864008,3.487087 8.5533198,-1.530292 10.0534628,4.489405 1.074866,1.200384 2.085994,3.31527 4.062377,2.816327 z" />
</svg>
