<?xml version="1.0" encoding="UTF-8" standalone="no"?>
<svg>
  <path
     style="stroke:none; fill:#000000"
     d="m 131.63255,32.748519 c 1.92375,1.32875 3.4325,2.05 5.36001,1.83 0.8775,-0.1 1.06125,-0.265 1.83875,-1.64375 1.6875,-2.995 2.07,-6.64875 -0.5725,-8.575 -2.51626,-1.83375 -3.94376,-1.02625 -3.40626,-3.8925 0.32875,-1.7475 1.33125,-3.81875 1.75,-5.82126 0.54626,-2.60875 -0.50125,-12.4974996 -3.95125,-14.4224997 -0.74375,-0.415 -1.095,-0.23625 -1.59,0.41125 -2.92375,3.8287501 -1.20125,4.0537501 0.885,7.2087501 2.3575,3.5637496 2.9125,8.4675096 1.4475,12.0412596 -1.26375,3.08625 -3.8275,6.43875 -3.3525,10.59375 0.13,1.14375 0.29,1.37 1.59125,2.27 z M 263.9375,4.9715011e-4 C 261.65368,0.00652863 258.51336,1.032294 255.96875,2.0004972 247.31608,6.2265801 235.28837,10.439216 225.8817,15.2169 c -6.2973,3.374008 -13.39586,7.421026 -15.8192,13.877347 -1.15875,3.3175 -0.935,7.0225 1.375,10.21875 0.0987,0.1375 0.19875,0.26375 0.28125,0.375 0.63785,0.793535 2.76062,3.035625 2.59375,-1.5 -0.0537,-1.445 -0.21375,-3.2625 -0.6875,-3.71875 -0.27625,-0.265 -0.6675,-0.07625 -0.90625,-0.21875 -1.07251,-0.64375 0.75625,-3.29875 1.625,-4.3125 2.97379,-3.609087 6.05536,-5.731149 9.88396,-7.937212 7.38618,-4.248264 15.10868,-7.640961 20.45974,-8.812788 1.03,-0.22625 2.05625,-0.38005 2.25,-0.03125 0.0975,0.1725 -0.0213,0.46875 -0.1875,0.8125 -0.39,0.8075 -0.99375,1.76624 -1.6875,2.8125 -14.38126,21.7175 8.28125,-8.4037498 14.71875,-9.2499998 0.5888,-0.29125 1.1663,-0.53375 1.6563,-0.6875 2.50501,-0.78875 5.20125,-0.9425 5.53125,-3.34375 0.0462,-0.3375 0.0426,-0.78125 0.0312,-1.1875 -0.0476,-1.72101567 -1.28619,-2.3171912 -3.0625,-2.31250004989 z M 173.94257,20.9825 l -0.18125,-4.145 c -0.0725,-1.67626 -0.0488,-1.97626 0.2425,-3.00251 0.215,-0.7625 0.44375,-1.595 1.02125,-2.13125 1.4075,-1.30875 4.89375,-0.85625 6.51,-1.93375 2.3275,-1.55125 2.33,-6.87875 0.53875,-9.03875015 -1.9,-2.28999985 -5.73875,1.34750015 -7.31125,3.42750015 -0.96625,1.27875 -1.88125,2.74375 -2.2925,4.4525 -0.19125,0.7925 -0.29625,1.6925 -0.44625,2.48 l -0.73,3.855 -2.4125,-3.06875 c -3.30125,-4.34875 -2.29375,-5.64125 -7.14626,-6.82375 -1.625,-0.39625 -5.15125,-0.2475 -5.82875,1.5825 -0.53,1.4325 0.715,4.915 1.495,5.7425 0.59875,0.635 3.0275,2.21375 4.03,2.31 1.63876,0.15875 4.98751,-0.83875 4.98751,-0.83875 0,0 2.7025,3.89001 4.3525,5.71626 0.72125,0.7975 1.31625,1.43875 2.24,1.45625 0.38125,0.007 0.93125,-0.04 0.93125,-0.04 z m 19.4024,24.588287 0.7225,-0.0125 c 0.325,-0.005 0.4125,-0.20375 0.8725,-1.97875 2.64375,-10.20626 3.12625,-15.84251 -3.3775,-22.38876 -1.07,-1.0775 -2.31876,-1.9825 -3.12251,-1.01625 -0.545,0.65625 -1.1025,5.28375 -0.85375,6.29375 0.435,1.7675 1.72375,2.34125 3.21251,3.54 3.36125,2.71 4.20375,4.74375 3.77625,8.35376 -0.32875,2.77 -1.23,7.20875 -1.23,7.20875 z m -31.18865,-1.126008 c -0.0537,-1.445 -0.2175,-3.26001 -0.69125,-3.71626 -0.27625,-0.265 -0.655,-0.0725 -0.89375,-0.215 -1.07251,-0.64375 0.75125,-3.2975 1.62,-4.31125 7.8875,-9.2075 28.32626,-20.63751 39.12501,-23.00126 1.02875,-0.22625 2.0575,-0.4075 2.2525,-0.0587 0.0962,0.1725 -0.0138,0.47625 -0.17875,0.82 -0.39,0.8075 -1.015,1.78375 -1.70875,2.83001 -14.38125,21.7175 8.305,-8.4212596 14.74126,-9.2675096 0.58875,-0.29125 1.14125,-0.525 1.63125,-0.67875 2.505,-0.78875 5.21875,-0.95625 5.5475,-3.3575 0.0462,-0.3375 0.0537,-0.7575 0.0412,-1.16375 -0.10875,-3.93375 -6.5275,-2.0525001 -11.05125,-0.33125 -4.18751,1.5925 -10.40501,4.21625 -16.99876,7.2675 -8.53375,3.9474996 -34.08251,15.7987596 -37.67752,26.0912596 -1.15875,3.3175 -0.94375,7.03376 1.36625,10.23001 0.0987,0.1375 0.18875,0.26125 0.27125,0.3725 -1.0425,-1.41625 2.82626,4.5375 2.60376,-1.51 z m -23.76376,51.18502 c -0.47,2.9375 0.10125,3.65875 2.055,2.7575 1.33,-0.61375 18.49,-10.59626 20.99625,-13.58501 1.00876,-1.20375 2.01626,-3.33375 2.37126,-5.25 0.21875,-1.17875 -0.135,-1.1375 -1.40625,-0.665 -2.94501,1.095 -22.35876,12.91251 -22.96751,13.98126 -0.5675,0.9975 -0.9325,2.03125 -1.04875,2.76125 z M 0,93.384799 c 0.21,2.9 1.5625,4.7025 4.02375,5.2225 3.175,0.67125 4.97,-1.05 5.78375,-4.5325 0.1775,-0.76375 0.1375,-1.4 -0.35375,-1.7075 -0.935,-0.585 -3.50375,0.0225 -4.74625,-0.6375 -1.54375,-0.82001 -1.9375,-4.30876 -1.555,-5.94001 0.3825,-1.63125 1.3575,-3.38 1.62375,-4.6375 0.0537,-0.255 0.0775,-0.49 -0.0325,-0.62 -0.015,-0.0175 -0.0288,-0.0325 -0.0425,-0.0475 C 0.965,79.633539 0.05625,94.167299 0,93.384799 z m 102.12129,-72.60628 -0.5875,-11.1950096 c -0.0863,-1.66 -0.12125,-1.95 -0.3425,-2.89 -0.67875,-2.88375 -2.50375,-4.46375 -4.41375,-5.4825 -2.4275,-1.2975001 -4.28,-1.7787501 -6.78125,0.0462 -2.0575,1.50125 -2.25125,6.93625 -1.4425,7.785 0.60375,0.635 2.2025,0.5775 4.1375,0.1225 4.8325,-1.135 5.3175,-0.8725 6.57625,4.2387496 0.5975,2.42875 0.66875,4.70376 0.375,7.14626 -0.625,5.18875 -2.09375,7.71125 0.78375,10.75625 1.1975,1.2675 2.4475,1.46 5.18,0.8975 1.94125,-0.4 2.32625,-1.3025 3.14,-3.99 0.5725,-1.89125 1.025,-3.58625 0.87875,-5.4725 -0.29125,-3.7425 -4.3375,-10.77751 0.53875,-12.52501 0.90125,-0.3224996 2.07126,-0.1125 3.08001,0.1075 1.36,0.29625 1.59,0.1625 2.3075,-1.3437496 0.58875,-1.2375 1.27125,-2.37625 1.64625,-3.70875 1.40625,-5.0012501 -0.7475,-6.4125 -5.07125,-4.3650001 -4.96001,2.3500001 -7.18751,12.4187497 -6.12751,19.1687597 0.32375,2.7825 0.68,5.2875 0.68,5.2875 0,0 -0.29625,-0.004 -0.65,-0.0388 -1.38875,-0.13625 -3.77375,-1.97875 -3.9075,-4.545 z m -31.13501,72.74128 5.23125,5.23125 7.0475,-7.04625 -7.0475,-7.04626 -5.23125,5.23125 -5.23125,-5.23125 -7.04626,7.04626 7.04626,7.04625 5.23125,-5.23125 z m 162.458,-50.172694 5.23126,5.23126 7.04625,-7.04626 -7.04625,-7.04625 -5.23126,5.23125 -5.23125,-5.23125 -7.04625,7.04625 7.04625,7.04626 5.23125,-5.23126 z m 0,-21.67 -7.04625,7.0475 7.04625,7.04625 7.04626,-7.04625 -7.04626,-7.0475 z m -48.46546,66.035184 c 3.06001,3.57 10.78751,6.54751 14.34876,6.18376 2.31375,-0.2375 8.83875,-1.40125 11.31625,-2.62501 1.38375,-0.68375 2.67126,-1.725 4.08376,-2.33375 1.57,-0.67625 5.15125,-1.4225 6.03125,-0.875 0.8675,0.54 1.40375,2.00625 2.07375,2.95375 0.975,1.38376 2.74,1.87126 5.125,1.13001 2.47875,-0.77126 3.63875,-2.46501 5.9025,-1.75001 3.61376,1.14001 4.15501,3.27251 6.24126,0.5825 1.43125,-1.845 4.31125,-7.16125 2.625,-8.74875 -0.33875,-0.32 -0.9,-0.3225 -1.4,0 -1.12,0.72125 -1.925,3.07625 -3.03375,3.49875 -1.06876,0.40875 -2.42001,-0.98625 -3.89626,-0.98875 -3.23625,-0.004 -5.025,3.93125 -7.6175,2.15625 -1.43625,-0.98375 -2.26125,-4.00875 -3.68625,-4.66625 -1.065,-0.49125 -4.81,0.61875 -6.615,1.4575 -1.88625,0.87625 -3.46875,2.1375 -5.25001,2.91625 -7.4325,3.25125 -17.515,1.915 -24.79001,-0.29125 -0.62,-0.1875 -1.19375,-0.37375 -1.45875,0 -0.24,0.33875 -0.2275,1.13375 0,1.4 z m 5.59001,-28.34579 c -0.44875,0.135 -0.505,0.1525 -0.505,0.1525 l -3.16626,-1.74625 c -0.40625,-0.225 -0.81625,-0.465 -1.205,-0.7075 -1.215,-0.7575 -3.475,-2.97125 -3.475,-2.97125 0,0 0.54875,-0.285 1.21,-0.62875 3.02625,-1.57125 7.33626,-0.93625 10.58251,-0.0725 0.56125,0.14875 1.09875,0.32875 1.565,0.54875 0.42625,0.2025 2.51,1.16625 2.7075,1.2575 z m 59.28127,8.1975 -7.95375,-3.40875 -5.61501,-2.40625 -1.92875,1.25875 c -3.46625,2.2625 -4.3375,4.52875 -9.04625,4.13625 -0.61375,-0.0512 -6.3325,-1.4625 -7.5825,-2.625 -2.07625,-1.92875 -2.0975,-4.00875 -3.5975,-2.96 -0.72375,0.50625 -1.35875,1.54125 -2.23626,2.3775 -1.82625,1.74 -11.08125,4.80375 -14.5825,2.33375 -0.64125,-0.4525 -0.91,-1.1275 -0.58375,-1.6925 0.44375,-0.765 2.005,-1.095 3.5,-1.225 5.215,-0.4525 5.77375,-0.16875 7.29125,-4.9575 1.63875,-5.17125 2.9575,-9.4575 -0.29125,-11.375 -5.44,-3.21126 -20.52626,-4.40376 -29.51501,-4.14501 -4.4875,0.13 -10.6175,3.90376 -11.33875,9.92251 -0.33625,2.80375 0.0225,6.18 0.0225,6.18 0,0 6.99375,-1.125 9.91625,-1.16625 1.35,-0.0188 2.01,0.3075 3.79125,1.75 1.4025,1.13625 3.70125,2.96125 3.70125,2.96125 0,0 -3.73125,2.17375 -6.32625,3.16375 -3.0275,1.15375 -12.395,1.37625 -15.75001,0 -2.89875,-1.19 -5.65125,-3.7625 -6.91375,-6.8325 -0.6025,-1.46375 -0.6825,-1.8 -0.80375,-3.37125 -1.08125,-14.00126 -3.0475,-42.08752 -2.71875,-46.0387703 0.24125,-2.89625 1.055,-10.5949996 -2.63,-9.29749969 -2.10625,0.7425 -3.11875,6.84249969 -2.91625,9.61999969 0.085,1.1562503 0.32,2.1475003 0.525,3.2137503 1.4425,7.47126 1.38375,42.87002 2.91625,51.83127 1.70625,9.97126 9.88375,14.49501 22.66751,12.83251 2.6975,-0.35125 4.975,-1.03875 7.37375,-2.625 1.115,-0.7375 2.2,-1.6225 3.22625,-2.455 l 5.00751,-4.06001 2.81375,4.43501 c 0.1975,0.31 0.4025,0.61875 0.61875,0.91375 4.275,5.8175 9.78,4.36125 16.3325,1.75 0.87125,-0.3475 1.7075,-0.665 2.33375,-1.1675 0.39,-0.3125 0.69875,-0.6975 0.95875,-1.08125 l 1.41875,-2.10625 1.79001,2.17375 c 0.295,0.35875 0.62125,0.73125 0.98375,1.0775 4.13375,3.9525 10.39875,4.14375 15.36,0.38875 l 3.37,-2.55 8.05876,3.32125 c 2.94875,1.21625 5.89625,2.2125 7.34,1.40125 0.295,-0.165 0.55875,-0.4025 0.81375,-0.67875 5.86,-6.36126 11.45125,-14.93751 5.57875,-23.60751 -0.2825,-0.4175 -0.61,-0.88875 -0.98625,-1.42625 -1.415,-2.02 -2.2525,-1.40375 -4.14625,1.21375 -0.84375,1.16625 -1.33125,1.975 -1.45875,3.61625 -0.2825,3.64375 1.21125,11.38625 1.21125,11.38625 z m -120.70505,-6.91922 c 1.2125,4.95625 2.94625,13.85501 3.24,17.29126 0.4725,5.51875 -0.36,5.66 -6.7075,9.3325 -6.75875,3.91 -13.22375,6.35876 -20.70751,8.45876 -1.455,0.4075 -3.08125,0.84875 -4.73375,1.2875 -7.915,2.10125 -29.46001,7.522501 -5.27375,5.218751 0.4175,0.105 0.835,0.2025 1.245,0.29 6.82875,1.4625 10.95875,2.5125 17.60626,-0.31 6.14625,-2.610001 12.90875,-7.141251 15.07125,-8.820001 0.5675,-0.44 1.10375,-0.8825 1.45875,-1.45875 0.10875,-0.175 0.2,-0.3625 0.27875,-0.56001 1.6875,-4.20375 5.195,-12.12375 6.29,-16.64375 0.24376,-1.005 0.38876,-1.8625 0.37376,-2.4225 -0.0362,-1.3775 -0.39501,-2.885 -0.185,-3.66875 3.75625,1.35 4.29875,1.41125 4.0075,0.3575 -3.78625,-3.67876 -4.035,-28.72127 -12.50751,-16.50751 -2.14875,2.60625 -0.4425,4.11875 0.54375,8.155 z m -30.84876,8.71751 c -8.4375,2.7075 -15.50001,4.08 -23.36251,4.51 -15.96751,0.8725 -62.62627,-1.53375 -72.39753,-19.48876 -0.725,-1.3325 -1.33625,-2.79625 -1.6875,-4.24625 0.83375,3.44375 -5.23375,8.01875 10.78876,22.39251 5.41125,4.85375 10.82875,6.845 22.23875,9.18625 20.85376,4.28 39.39377,3.82 56.87378,-0.875 5.14875,-1.3825 22.53876,-8.17 23.91501,-9.3325 2.3875,-2.01875 10.4775,-15.43001 5.25,-18.66626 -1.38125,-0.855 -4.9475,-1.40625 -7.7,-1.45875 -4.11501,-0.0775 -6.34501,0.40875 -10.38251,-0.875 -1.18625,-0.37625 -1.53875,-0.7125 -0.9825,-1.59125 2.11625,-3.345 13.39376,-7.98251 16.26501,-8.61626 0.7625,-0.16875 1.43,-0.255 2.1,0 2.1725,0.8275 3.8,3.60626 5.075,1.75001 1.81875,-2.64876 2.02875,-9.78626 0.58375,-11.66626 -0.8075,-1.04875 -1.9925,-0.96125 -4.025,-0.58375 -7.3875,1.3725 -18.29126,6.69375 -22.22501,12.83376 -1.7175,2.68125 -4.60875,12.59875 -3.79125,14.78 0.3275,0.87375 2.06875,1.90875 4.08375,2.4275 4.10375,1.05625 11.17375,1.6925 14.24751,1.9325 2.44875,0.19 1.92,0.96375 0.8025,1.66875 -3.32751,2.10125 -22.92876,8.24751 -15.67001,5.91876 z" />
</svg>
