<?xml version="1.0" encoding="UTF-8" standalone="yes"?>
<svg xmlns="http://www.w3.org/2000/svg" xmlns:xlink="http://www.w3.org/1999/xlink"
  width="595.276pt" height="841.89pt" viewBox="0 0 595.276 841.89">
  <path
    style="stroke:none; fill:#000000"
    d="m 124.93972,53.57296 -5.716,5.678 c -0.95,0.944 -1.086,1.113 -1.351,1.695 -0.372,0.813 -0.501,2.174 -0.318,2.359 0.592,0.597 2.685,-0.853 3.414,-1.39 6.381,-4.706 9.287,-7.67 10.319,-13.764 0.524,-3.097 -1.116,-4.296 -4.017,-4.691 -4.604,-0.627 -9.173,0.015 -10.961,3.481 0.279,13.234 0.672,5.666 4.576,4.726 4.343,-1.045 9.013,-3.366 4.054,1.906 z m -8.557,-37.359 -0.14,-3.203 c -0.057,-1.295 -0.038,-1.527 0.187,-2.32 0.167,-0.589 0.343,-1.233 0.789,-1.647 1.088,-1.011 3.782,-0.662 5.031,-1.494 1.799,-1.199 1.8,-5.316 0.416,-6.985 -1.468,-1.769 -4.434,1.041 -5.65,2.649 -0.746,0.988 -1.453,2.119 -1.771,3.441 -0.148,0.612 -0.229,1.307 -0.345,1.915 l -0.564,2.98 -1.864,-2.372 c -2.551,-3.36 -1.773,-4.359 -5.522,-5.272 -1.256,-0.307 -3.981,-0.192 -4.504,1.222 -0.41,1.107 0.552,3.798 1.155,4.437 0.463,0.492 2.339,1.711 3.114,1.786 1.266,0.122 3.854,-0.649 3.854,-0.649 0,0 2.088,3.006 3.364,4.418 0.556,0.616 1.017,1.112 1.73,1.125 0.295,0.006 0.72,-0.031 0.72,-0.031 z m 13.158,24.117 0.56,-0.01 c 0.251,-0.004 0.318,-0.157 0.673,-1.528 2.043,-7.888 2.416,-12.243 -2.609,-17.301 -0.828,-0.833 -1.792,-1.532 -2.413,-0.786 -0.422,0.507 -0.852,4.083 -0.66,4.864 0.336,1.365 1.332,1.808 2.482,2.736 2.598,2.094 3.249,3.665 2.918,6.454 -0.253,2.141 -0.951,5.571 -0.951,5.571 z m -20.721,-5.987 c -0.041,-1.116 -0.167,-2.518 -0.534,-2.871 -0.213,-0.204 -0.506,-0.056 -0.691,-0.167 -0.828,-0.497 0.581,-2.547 1.253,-3.331 6.094,-7.114 21.888,-15.947 30.233,-17.774 0.795,-0.174 1.59,-0.315 1.741,-0.046 0.074,0.134 -0.01,0.369 -0.139,0.635 -0.301,0.623 -0.784,1.378 -1.319,2.187 -11.114,16.781 6.417,-6.508 11.391,-7.162 0.455,-0.225 0.882,-0.406 1.261,-0.525 1.935,-0.61 4.032,-0.739 4.286,-2.594 0.036,-0.261 0.041,-0.585 0.032,-0.9 -0.084,-3.039 -5.045,-1.585 -8.54,-0.256 -3.236,1.231 -8.04,3.259 -13.136,5.617 -6.594,3.05 -26.337,12.208 -29.115,20.162 -0.895,2.563 -0.729,5.435 1.056,7.905 0.076,0.106 0.146,0.201 0.209,0.287 -0.805,-1.093 2.184,3.507 2.012,-1.167 z m 48.06,15.196 5.883,-5.884 -5.883,-5.883 -5.884,5.883 5.884,5.884 z m 0,7.409 4.088,4.089 5.883,-5.884 -5.883,-5.883 -4.088,4.088 -4.088,-4.088 -5.884,5.883 5.884,5.884 4.088,-4.089 z m -114.358001,-41.296 -0.441,-8.433 c -0.066,-1.251 -0.092,-1.469 -0.259,-2.178 -0.511,-2.172 -1.886,-3.362 -3.324,-4.13 -1.829,-0.977 -3.225,-1.34 -5.109,0.035 -1.55,1.131 -1.696,5.225 -1.087,5.865 0.455,0.478 1.659,0.435 3.117,0.092 3.641,-0.855 4.005,-0.657 4.954,3.193 0.45,1.83 0.504,3.544 0.282,5.384 -0.471,3.908 -1.577,5.809 0.591,8.103 0.902,0.955 1.844,1.099 3.902,0.675 1.462,-0.301 1.752,-0.98 2.365,-3.005 0.432,-1.425 0.773,-2.702 0.662,-4.123 -0.219,-2.819 -3.267,-8.119 0.407,-9.435 0.678,-0.243 1.559,-0.085 2.319,0.081 1.025,0.223 1.199,0.122 1.739,-1.012 0.444,-0.933 0.957,-1.791 1.24,-2.794 1.06,-3.768 -0.563,-4.831 -3.82,-3.288 -3.736,1.77 -5.414,9.355 -4.616,14.44 0.244,2.096 0.512,3.983 0.512,3.983 0,0 -0.223,-0.003 -0.489,-0.029 -1.046,-0.103 -2.843,-1.491 -2.945,-3.424 z m -29.722,26.606 0.168,-2.075 -2.945,0.658 c -14.3143,3.201 -3.2278,-21.145 -5.9703,-16.691 -3.1588,5.13 -4.5403,11.255 -3.8989,16.733 0.07,0.598 0.1463,1.142 0.2394,1.64 1.4943,7.987 11.9148,5.805 12.4068,-0.265 z m 58.125,36.51 c -0.354,2.213 0.077,2.756 1.548,2.077 1.002,-0.462 13.928,-7.982 15.817,-10.234 0.76,-0.907 1.518,-2.511 1.786,-3.954 0.165,-0.889 -0.102,-0.857 -1.059,-0.502 -2.218,0.825 -16.843,9.728 -17.302,10.533 -0.428,0.751 -0.702,1.53 -0.79,2.08 z m -57.093,-70.05 -4.827,4.795 c -0.802,0.797 -0.916,0.94 -1.1405,1.431 -0.3142,0.687 -0.423,1.836 -0.2685,1.992 0.4999,0.504 2.268,-0.72 2.883,-1.174 5.388,-3.973 7.842,-6.476 8.713,-11.622 0.443,-2.615 -0.942,-3.627 -3.392,-3.961 -3.888,-0.529 -7.7452,0.012 -9.2554,2.939 0.2357,11.175 0.5677,4.785 3.8644,3.991 3.667,-0.882 7.611,-2.842 3.423,1.609 z m 53.403,19.74 5.884,-5.883 -5.884,-5.884 -5.883,5.884 5.883,5.883 z m 0.522,-17.215 c 0.183,2.521 1.359,4.088 3.498,4.541 2.759,0.583 4.32,-0.913 5.027,-3.94 0.155,-0.664 0.12,-1.218 -0.307,-1.485 -0.813,-0.508 -3.046,0.019 -4.125,-0.554 -1.343,-0.713 -1.684,-3.745 -1.352,-5.163 0.332,-1.419 1.18,-2.938 1.411,-4.032 0.046,-0.221 0.068,-0.425 -0.029,-0.539 -0.012,-0.014 -0.024,-0.028 -0.036,-0.04 -3.248,-0.741 -4.038,11.893 -4.087,11.212 z m -7.903,65.179 4.375,4.697 5.929,-6.366 -5.929,-6.367 -4.375,4.697 -4.375,-4.697 -5.929,6.367 5.929,6.366 4.375,-4.697 z m -24.442,-39.045 7.273,-0.069 c 4.002,-0.039 10.794,1.61 11.325,1.944 l 1.448,0.912 -3.838,1.968 c -0.231,0.118 -0.474,0.235 -0.717,0.346 l -2.845,1.288 -3.123,-1.23 c -1.42,-0.56 -2.943,-1.398 -4.543,-2.314 l -4.98,-2.845 z m 44.955,3.706 c 0.09,0.145 0.21,0.468 0.159,0.676 -0.077,0.311 -1.748,0.254 -3.009,0 -3.297,-0.664 -6.619,-0.726 -7.115,-3.354 -0.115,-0.607 -0.072,-0.838 0.289,-1.149 2.063,-1.776 3.176,-1.732 4.917,-0.932 2.515,1.156 3.092,2.074 4.759,4.759 z m -28.822,8.089 c 0,0 3.695,-1.373 6.169,-2.6 l 3.531,-1.921 c 1.082,-0.833 0.953,-2.937 0.99,-4.869 0.101,-5.234 1.396,-6.022 -2.154,-6.609 -6.631,-1.098 -29.724,-4.191 -35.303,1.951 -0.053,0.06 -0.104,0.119 -0.15,0.18 -0.221,0.298 -0.309,0.626 -0.386,0.988 -0.322,1.522 -0.386,4.43 -0.121,5.573 0.136,0.59 1.184,1.727 1.62,1.758 0.986,0.069 2.466,-0.553 3.912,-0.924 2.843,-0.729 8.195,0.859 10.55,2.64 0.393,0.298 0.692,0.601 0.861,0.9 0.555,0.982 0.024,1.12 -1.323,1.577 -4.017,1.36 -10.886,4.645 -13.568,7.942 -1.871,2.299 -2.277,4.234 -2.522,7.266 -0.266,3.273 -0.405,3.806 1.225,5.691 0.534,0.617 0.679,0.681 1.46,0.643 l 10.906,-0.536 c 0.78,-0.038 0.953,-0.03 1.729,0.084 0.873,0.128 6.031,1.36 5.109,3.085 -0.104,0.193 -0.298,0.353 -0.514,0.505 -5.35,3.768 -15.392,5.885 -21.67,5.141 -12.218,-1.447 -22.7907,-11.328 -15.7891,-26.487 0.6528,-1.413 1.3314,-3.004 1.5263,-3.955 0.0388,-0.19 0.0658,-0.376 0,-0.466 -0.3929,-0.542 -1.387,1.129 -1.4463,1.242 -1.3159,2.502 -2.4008,4.711 -3.2427,6.769 -5.3443,13.069 -0.2933,27.354 13.0298,30.431 9.806,2.264 21.594,-0.6 28.417,-8.209 4.677,-5.216 6.933,-12.906 -1.743,-16.186 -2.269,-0.858 -5.972,-0.75 -7.588,-0.61 -1.811,0.158 -4.669,0.599 -4.669,0.599 0,0 0.772,-0.657 1.617,-1.289 2.348,-1.758 14.525,-7.292 14.525,-7.292 0,0 0.728,1.442 1.642,2.994 3.33,5.65 14.034,7.507 19.771,7.859 7.209,0.444 14.474,-1.089 18.334,-7.245 4.546,-7.249 1.687,-13.789 -1.587,-20.673 -0.124,-0.262 -0.245,-0.514 -0.361,-0.748 -1.562,-3.173 -5.007,-6.648 -7.798,-6.277 -0.453,0.06 -0.868,0.14 -1.252,0.241 -3.932,1.034 -6.183,7.106 -7.247,10.757 -0.471,1.617 -0.835,3.364 -0.855,4.917 -0.062,4.755 7.945,6.753 11.413,6.15 0.027,-0.004 0.054,-0.009 0.081,-0.014 2.462,-0.449 4.844,-1.692 5.468,-0.621 0.494,0.851 0.602,2.323 0.433,2.59 -0.075,0.12 -0.284,0.258 -0.583,0.405 -6.846,3.386 -24.356,2.794 -30.78,-2.026 -0.882,-0.662 -1.667,-1.321 -1.667,-1.321 z m 62.313001,30.107 c 1.572,0.128 3.25,0.19 5.087,0.287 6.695,0.353 11.949,-0.15 17.902,-2.978 1.368,-0.649 3.036,-1.685 3.905,-2.639 1.037,-1.139 1.782,-2.608 2.43,-2.33 0.626,0.269 1.187,2.147 1.993,3.141 1.183,1.46 4.659,2.345 6.187,2.139 1.013,-0.136 2.41,-0.789 2.985,-1.398 2.149,-2.271 1.884,-3.828 3.199,-3.096 1.58,0.88 4.331,3.939 6.87,5.909 1.677,1.302 3.241,2.217 4.266,2.147 6.376,-0.433 6.113,-16.767 5.571,-19.888 -0.213,-1.228 -0.527,-2.263 -0.959,-2.93 -1.555,-2.396 -2.223,-1.172 -3.673,1.019 -1.761,2.663 -2.232,3.263 -1.874,4.949 0.234,1.103 0.672,2.79 1.208,3.971 0.528,1.163 1.728,3.087 1.012,4.037 -0.252,0.336 -1.061,-0.112 -2.044,-0.863 -0.671,-0.514 -5.143,-4.277 -5.182,-5.243 -0.004,-0.092 -0.005,-0.195 -0.005,-0.31 l 0,-1.969 c 0,0 -0.644,-0.035 -1.157,0 -0.741,0.05 -1.64,0.533 -2.025,1.087 -1.567,2.254 -1.663,3.885 -4.431,4.503 -1.347,0.301 -6.202,-0.832 -7.139,-2.174 -1.087,-1.556 -1.029,-4.47 -2.141,-4.037 -0.684,0.266 -1.134,2.052 -1.909,3.261 -1.625,2.534 -9.452,4.557 -11.691,4.989 -3.885,0.75 -16.661,0.865 -21.862,-0.952 -3.011,-1.052 -5.572,-2.546 -6.989,-4.767 -3.236,-5.071 -5.980001,-54.495 -5.853001,-59.827 0.056,-2.341 0.006,-4.733 -0.464,-5.189 -0.723,-0.702 -1.908,1.631 -2.926,3.187 -0.719,1.1 -1.249,2.051 -1.413,3.123 -0.23,1.507 0.078,5.299 0.325,7.798 1.12,11.309 3.91,50.855 7.743001,58.601 3.217,6.502 15.014,6.602 13.054,6.442 z m -22.311001,-2.824 c 0.183,2.52 1.358,4.087 3.498,4.54 2.759,0.583 4.32,-0.913 5.027001,-3.94 0.155,-0.664 0.12,-1.218 -0.307001,-1.485 -0.813,-0.508 -3.046,0.019 -4.125,-0.554 -1.343,-0.713 -1.685,-3.745 -1.352,-5.163 0.332,-1.418 1.18,-2.938 1.41,-4.031 0.047,-0.222 0.069,-0.426 -0.028,-0.54 -0.012,-0.014 -0.024,-0.028 -0.036,-0.04 -3.248,-0.741 -4.038,11.893 -4.087,11.213 z"/>
</svg>