<?xml version="1.0" encoding="UTF-8" standalone="no"?>
<svg>
  <path
     style="stroke:none; fill:#000000"
     d="m 181.67312,11.255804 c -0.3225,-0.92875 -0.53875,-1.8062505 -0.57625,-1.8737505 -1.87875,-3.44375 -6.85251,-8.17375 -10.76001,-5.2925 -2.3025,1.69875 -3.3425,3.52375 -3.48625,5.81875 -0.57625,9.1725005 8.21875,6.6437505 11.28251,4.8487505 1.2225,-0.715 1.8825,0.54 2.56125,1.97125 -0.0112,-0.025 2.66125,6.4625 5.28,6.05625 3.9825,-0.6175 2.25875,-6.2125 2.015,-8.0725 -0.13625,-1.03375 -0.13875,-1.92125 0.26375,-2.29 0.61125,-0.56 0.81375,-0.62375 1.7325,-0.62375 l 1.66125,0 c 0.955,0 1.14125,-0.009 1.86375,-0.085 2.94,-0.31 3.68875,-2.1737505 4.02125,-4.5962505 0.32375,-2.35125 0.1375,-4.5775 -1.36125,-5.19625 -9.21125,-3.79626 -10.5375,3.6425 -11.47625,8.1175005 -1.39375,6.6425 -2.86,1.68125 -3.02125,1.2175 z m -166.885027,1.23 -7.1932512,6.38375 c -1.195375,1.06125 -1.365375,1.25125 -1.699875,1.905 -0.46825,0.915 -0.630375,2.445 -0.400125,2.6525 0.745,0.6725 3.379126,-0.95875 4.296001,-1.5625 8.0296262,-5.29125 11.6875022,-8.62375 12.9857522,-15.4750005 0.659875,-3.48125 -1.403875,-4.83 -5.055626,-5.27375 -5.793251,-0.70499997 -11.5423772,0.0162 -13.7930022,3.91375 0.351375,14.8787505 0.846,6.3700005 5.759001,5.3137505 5.4653762,-1.1750005 11.3420012,-3.7850005 5.1011252,2.1425 z m 60.302511,75.23876 c 0.24,2.95 1.78,4.785 4.5825,5.315 3.615,0.6825 5.65875,-1.06875 6.58625,-4.6125 0.2025,-0.77625 0.1575,-1.425 -0.4025,-1.7375 -1.065,-0.595 -3.99,0.0225 -5.40375,-0.6475 -1.76,-0.835 -2.20625,-4.385 -1.77125,-6.04375 0.435,-1.66 1.545,-3.43875 1.8475,-4.71875 0.0613,-0.26 0.09,-0.49875 -0.0362,-0.63125 -0.0163,-0.0163 -0.0325,-0.0325 -0.0488,-0.0475 -4.255,-0.86625 -5.28875,13.92 -5.35375,13.12375 z m 83.660006,-29.23876 -7.19375,6.38501 c -1.195,1.06125 -1.365,1.25125 -1.7,1.905 -0.4675,0.915 -0.63,2.445 -0.4,2.6525 0.745,0.67125 3.37875,-0.95875 4.29625,-1.5625 8.03,-5.29126 11.6875,-8.62376 12.98625,-15.47501 0.66,-3.4825 -1.405,-4.83 -5.05625,-5.27375 -5.79375,-0.705 -11.5425,0.0163 -13.7925,3.9125 0.35125,14.87876 0.845,6.37125 5.75875,5.315 5.465,-1.175 11.34125,-3.78625 5.10125,2.14125 z m 38.73251,-27.89875 -7.135,6.92375 7.135,6.92375 7.13375,-6.92375 -7.13375,-6.92375 z m 0,21.04 4.5875,4.4525 7.13375,-6.92375 -7.13375,-6.92375 -4.5875,4.4525 -4.58875,-4.4525 -7.13375,6.92375 7.13375,6.92375 4.58875,-4.4525 z m -177.127401,-25.4975 -7.134126,6.92375 7.134126,6.92375 7.134127,-6.92375 -7.134127,-6.92375 z m 23.275004,62.60251 4.588126,4.4525 7.134125,-6.92375 -7.134125,-6.92375 -4.588126,4.45375 -4.588126,-4.45375 -7.134126,6.92375 7.134126,6.92375 4.588126,-4.4525 z m 113.331137,4.78875 -5.24875,-1.67625 c 0,0 -0.84875,2.0425 -1.56,3.0275 -0.81875,1.135 -4.52125,3.17625 -5.65875,1.71625 -0.35875,-0.46125 -0.555,-1.2525 -0.88375,-1.8875 -2.29625,-4.4475 -8.655,-3.38875 -11.67125,-0.68625 -3.50625,3.14125 -2.78375,4.3775 -7.78,6.177496 -4.185,1.5075 -18.55001,2.92 -20.69626,3.14875 -0.94875,0.10125 -1.08625,0.1275 -1.37125,0.26875 -0.8575,0.425 -0.98375,1.19875 -0.21375,1.73125 0.52375,0.3625 1.58875,0.66875 2.5025,0.94 5.81,1.7275 10.91626,1.65875 17.52376,0.15125 3.13,-0.71375 4.775,-1.62875 7.80875,-4.98875 2.7875,-3.087496 5.30125,-4.731246 9.3,-3.309996 0.26,0.0912 0.48875,0.1825 0.7075,0.3425 1.04625,0.77 1.8275,3.152496 2.82875,4.118746 1.6475,1.58875 5.62625,-0.74375 7.09875,-2.687496 0.54625,-0.72125 0.73625,-1.35875 1.26875,-1.6025 0.86125,-0.3925 4.68125,1.17875 7.265,1.716246 3.34625,0.69625 5.67875,-0.894996 6.295,-5.148746 0.19,-1.31625 -0.99,-5.70625 -2.70875,-6.1775 -0.20375,-0.0562 -0.4225,-0.0588 -0.6325,-0.035 -0.28375,0.0312 -0.35125,0.13125 -0.66875,1.0075 -1.14125,3.1475 -1.17625,4.05 -2.25875,4.1525 -0.215,0.0213 -0.34,-0.009 -1.24625,-0.29875 z m 7.80625,-22.0175 3.335,-1.90625 c 0.8225,-0.47125 0.9425,-0.52625 1.1975,-0.55375 0.71625,-0.08 0.7525,0.009 0.3925,0.81375 -0.5975,1.33 -1.24375,3.3075 -1.83625,4.32875 -0.57,0.98125 -1.72375,0.22375 -3.29625,-0.82125 -0.5675,-0.3775 -0.79375,-0.6 -0.73125,-1.1325 0.0225,-0.18625 0.11625,-0.25875 0.93875,-0.72875 z m 39.96501,-8.33126 c -1.61,4.08251 -1.42125,5.00626 -3.745,5.73001 -0.0212,0.008 -0.0425,0.0137 -0.065,0.0213 -6.99375,2.1675 -10.6975,-0.5575 -13.315,-5.83251 -2.295,-4.625 -5.27,-6.15875 -10.495,-5.31625 -6.35751,1.025 -16.94876,6.44751 -19.15376,12.65501 -0.4125,1.15875 -0.81375,2.205 -1.5725,2.87625 -0.0312,0.0287 -0.0637,0.0562 -0.0962,0.0837 -2.92,2.4975 -10.31,2.50875 -12.33,-1.205 -0.98,-1.80125 -2.045,-4.24 -3.56875,-3.45375 -0.27,0.13875 -0.49125,0.40125 -0.68875,0.73375 -0.4075,0.685 -0.74125,1.68875 -1.08875,2.625 -1.3275,3.57 -8.62,3.78625 -11.5,1.27125 -0.3775,-0.33 -0.70125,-0.725 -0.92625,-1.1975 -0.41875,-0.88125 -0.525,-2.29125 -1.71125,-1.71625 -0.27375,0.1325 -0.4825,0.42 -0.6625,0.75 -0.39,0.71375 -0.65125,1.63 -1.1625,2.33875 -0.6,0.83125 -1.9425,1.69125 -3.24125,2.30375 -6.50751,3.06875 -13.53251,0.705 -15.68501,-6.23875 -0.06,-0.19 -0.11625,-0.3675 -0.17125,-0.52625 -0.2475,-0.71375 -0.73125,-1.21125 -1.7125,-0.6875 -1.48375,0.79375 -2.953746,6.3675 -3.062496,7.55125 -0.305,3.32125 0.6325,5.58 2.911246,10.34875 0.395,0.8275 1.52125,2.945 2.09,4.4325 0.7675,2.00875 -1.78125,2.84 -3.4425,3.60875 -6.928746,3.20625 -15.176246,5.29375 -22.657496,6.843746 -2.7175,0.5625 -5.12875,0.98625 -6.84125,1.195 -10.87313,1.3225 -24.767006,0.42 -35.366007,-3.432496 -8.128002,-2.95375 -14.821253,-6.04 -20.793504,-11.2475 l -8.7078762,-7.59125 2.3375,8.3575 c 1.295751,4.63375 5.2578762,8.8825 9.5477522,12.166246 19.980378,15.2925 49.889635,13.87125 72.588385,5.67 8.63375,-3.12 15.758746,-5.09 15.811246,-15.768746 0.009,-1.95 0.4475,-3.745 2.9775,-4.0725 0.16625,-0.0225 0.3375,-0.0387 0.51375,-0.0525 4.45251,-0.3475 6.91376,0.265 9.97501,-3.08375 l 1.59875,-1.74875 2.26,1.44625 c 3.35875,2.15 10.3575,2.52875 13.3425,-0.69 l 1.5225,-1.64125 2.07625,1.825 c 3.835,3.36875 10.53625,2.85 14.23875,-0.81625 1.04875,-1.0375 1.365,-1.485 2.16,-1.28625 1.78375,0.44375 5.45375,3.71125 8.34625,5.32 1.3475,0.74875 4.12125,1.89125 5.65875,0.8575 0.0913,-0.0612 0.18,-0.13 0.25,-0.21625 0.0937,-0.11375 0.14625,-0.22125 0.53125,-1.07 0.94125,-2.07625 2.03,-4.7525 3.11,-6.0925 0.995,-1.2375 1.65876,-1.56375 1.41375,-2.9175 -0.64625,-3.5875 -1.47125,-4.07375 -2.88,-6.585 -0.14875,-0.26625 -0.26625,-0.51 -0.3025,-0.96625 -0.035,-0.42375 0,-1.03 0,-1.03 0,0 1.8975,-0.17125 3.315,-0.16625 6.11751,0.0237 5.97251,3.84375 8.75876,7.84625 0.5075,0.72875 1.07375,1.405 1.73625,1.9875 3.2525,2.8625 11.96125,2.6975 14.89,-0.82 l 1.90125,-2.2825 5.25125,3.4625 c 3.1775,2.09375 6.8725,4.41 8.65625,4.06 3.3425,-0.65375 4.63125,-4.99 6.425,-8.8775 0.325,-0.70375 0.47375,-1.4425 0.3475,-2.5325 -0.19375,-1.67625 -0.93375,-4.1925 -1.405,-6.2325 -0.915,-3.96376 1.37375,-4.93376 -0.72125,-8.73251 -0.52125,-0.94375 -1.185,-1.6775 -1.90625,-1.44125 -0.115,0.0387 -0.2325,0.0987 -0.35125,0.17875 -2.87625,1.94 -4.145,7.5375 -3.51875,10.52376 0.09,0.4325 0.19875,0.89125 0.31875,1.39 0.33125,1.37375 2.215,6.8475 -1.11125,4.3025 -1.96125,-1.5 -8.46,-6.27375 -8.465,-7.60376 -0.001,-0.23875 -0.035,-0.44 -0.17,-0.55375 -0.2475,-0.2075 -0.83875,-0.11625 -1.25875,-0.07 -0.56625,0.0625 -0.6675,0.16625 -1.00875,1.0325 z m -156.103896,-16.1425 -0.942125,9.545 c -0.01975,0.2 -0.03787,0.4 -0.05338,0.595 -0.355875,4.4975 2.2345,12.98751 6.366,15.68501 0.1975,0.12875 0.41838,0.25875 0.65163,0.38625 10.92925,5.96875 23.19925,-6.45625 25.978,-14.92876 0.45375,-1.38125 0.81625,-2.375 1.0975,-2.44625 0.35875,-0.0913 0.5225,0.4125 0.71,1.27875 1.625,7.50626 5.80125,11.64751 14.28875,10.64001 0.01,-0.001 0.0188,-0.003 0.0288,-0.004 11.280001,-1.35125 9.221251,-17.18126 8.482501,-23.11751 -0.32375,-2.60125 -0.7,-5.81625 -1.01625,-9.04875 -1.0025,-10.2125 -1.415,-20.5925 -1.415,-20.5925 0,0 0.76,-0.055 1.415,0 0.84,0.07 2.94,1.28625 4.1775,2.31625 2.10375,1.75 4.88376,3.22875 6.90126,4.94625 5.50875,4.68875 8.26625,12.4225 8.22625,20.0925 -0.0163,2.99375 -0.775,6.15875 -2.33,9.37 -1.455,3.00625 -3.78875,6.5125 -4.24375,8.40875 -0.05,0.21125 -0.0775,0.4025 0,0.515 0.6725,0.96 2.71625,-2.0125 3.18375,-2.74625 3.11625,-4.8925 8.28,-12.99875 9.195,-19.09625 1.13125,-7.53875 -3.70625,-22.46125 -10.25625,-26.72375 -0.8625,-0.56125 -1.785,-0.96 -2.6525,-1.545 -1.00125,-0.6737505 -1.92875,-1.5937505 -3.00625,-2.4025005 -1.54751,-1.16125 -3.40626,-2.09125 -5.12876,-2.745 -2.23,-0.84875 -3.705,-1.18625 -6.0125,-3.09 -1.72,-1.41874997 -2.115,-2.07999997 -3.110001,-0.64125 -0.8275,1.1975 -1.26375,2.15125 -1.71875,3.36 -3.12875,8.3200005 0.88125,27.7425005 1.72,36.4337505 0.81875,8.465 1.517501,16.79375 1.517501,16.79375 0,0 -0.4275,0.0838 -1.032501,0.17 -9.57125,1.36 -11.15125,-4.93625 -13.32875,-11.73125 -2.505,-7.81125 -7.23,-18.21625 -13.62,-22.19375 -0.88,-0.54875 -1.67375,-0.82625 -2.2,-0.5675 -0.27,0.1325 -0.51,0.37125 -0.67125,0.68 -1.47375,2.80875 -4.135,8.4 -1.83,11.63 1.56,2.18625 6.80375,7.15375 9.5175,10.3425 1.68375,1.9775 2.7475,4.485 2.12875,6.54875 -0.065,0.2175 -0.59125,0.8775 -1.34625,1.7375 -4.545,5.17125 -10.61125,12.08751 -18.68913,9.23376 -3.30525,-1.16876 -6.05137,-3.82626 -7.28725,-7.15001 l -3.695,-9.93875 z m 5.4915,5.0225 c 0.31813,-0.3875 0.62688,-0.8075 0.93438,-1.24375 1.05825,-1.49875 4.53412,-9.24625 4.60325,-10.26 0.22625,-3.3175 -1.66738,-9.99625 -4.06713,-12.63 -1.55675,-1.70875 -2.88162,1.815 -3.53662,3.4325 -1.3455,3.32125 -1.41338,5.63125 0.4575,8.785 1.96725,3.31625 3.21575,4.55625 -0.28075,5.45875 -4.28613,1.10625 -10.978131,1.18125 -13.969757,-2.575 -1.5275,-1.9175 -2.397,-4.10625 -3.89025,-1.71625 -1.265876,2.02625 -2.140876,5.5925 -1.945251,7.62 0.184,1.905 0.768375,4.11 1.591501,5.76625 0.573625,1.15375 1.355125,2.42625 2.098125,3.69 4.02675,6.85251 -5.768251,11.72501 -5.390626,11.56626 -6.205126,2.59875 -14.562502,2.16625 -19.916003,-1.35125 -8.3567512,-5.49001 -6.3087512,-16.91751 -4.7886262,-25.07626 -0.190375,1.02125 2.320375,-12.6325 -1.512125,-1.83 -0.03187,0.09 -0.064,0.18 -0.09638,0.27125 -3.95025097,11.13875 -9.702377,30.65626 5.6625012,37.28126 2.98375,1.28625 6.651626,1.97 10.340126,1.89625 14.830628,-0.295 19.789504,-14.49375 21.840629,-23.24751 0.2815,-1.20125 0.42725,-2.17 0.42725,-2.17 0,0 1.325125,0 2.65075,0 4.530251,0 7.391001,-1.96625 8.787501,-3.6675 z M 146.21811,7.9058035 c 0.66125,0 0.91625,0 0.91625,0 0.0488,0 0.0962,0 0.14125,0 4.575,0.0188 3.46625,5.6025005 2.39375,4.4862505 -0.31625,-0.3275 -0.6225,-0.67375 -0.8875,-0.8825 -1.0025,-0.79 -3.91,-1.7150005 -4.95125,-2.0600005 -0.17625,-0.0575 -0.3075,-0.10625 -0.35375,-0.3775 -0.006,-0.04 -0.0112,-0.0862 -0.015,-0.13375 -0.0963,-1.37625 3.5525,-1.0325 2.75625,-1.0325 z m -4.72375,6.4987505 c 2.295,1.42 6.0175,3.08375 6.85875,3.68875 1.26625,0.91125 2.07125,1.96375 1.84375,3.26625 -0.1,0.57 -0.3175,1.28 -0.625,2.09 -2.4775,6.525 -8.74375,16.47375 -13.2075,21.85375 -3.33875,4.025 -6.9575,7.99125 -9.3325,11.34 -0.8075,1.13875 -1.6175,3.21625 -1.23875,3.775 0.865,1.2775 4.18625,-1.92125 5.9075,-3.76375 9.04625,-9.6775 25.0125,-34.0075 21.805,-47.3825005 -0.17875,-0.745 -0.395,-1.51375 -0.64875,-2.2575 -0.6825,-2.0025 -5.5,-9.13751 -9.46625,-4.72125 -0.415,0.46125 -0.89125,1.14625 -1.36375,1.9275 -2.30125,3.795 -4.08375,7.9850005 -0.5325,10.1837505 z M 79.444354,1.2020535 c 0,0 -0.24,0.035 -0.35375,0 -0.1125,-0.035 -0.1025,-0.13875 -0.1375,-0.20999997 -0.08,-0.16375 -0.39875,-0.1575 -0.71125,-0.13375 -0.41625,0.0312 -0.775,0.0737 -1.08625,0.12625 C 73.981854,1.5245535 45.839598,24.917054 42.923348,27.080804 c -0.8715,0.6475 -1.55575,1.335 -2.061125,2.19875 -1.868126,3.19 -1.638501,7.99875 2.617125,9.515 1.92625,0.68625 5.196996,-0.84125 1.3495,-5.1825 -0.09875,-0.22625 -0.179375,-0.4075 -0.22375,-0.56375 -1.1915,-4.195 30.300506,-24.3512505 31.434256,-25.0200005 0.0775,-0.045 0.15125,-0.09 0.22125,-0.13375 1.5025,-0.94 3.11875,-3.29625 3.18375,-6.00625 0.007,-0.32125 0,-0.68625 0,-0.68625 z M 165.91311,33.277054 c -2.68,3.37875 -2.5225,6.935 0.025,11.53375 0.42375,0.76375 1.13875,1.19 1.6725,0.3975 0.455,-0.67625 0.72625,-3.6825 0.53,-4.46875 -0.32875,-1.3225 -0.81625,-1.65625 -0.58625,-2.485 0.0737,-0.265 0.2625,-0.57625 0.53875,-0.91625 5.67375,-7.00375 42.85501,-22.745 51.23751,-25.17375 0.40625,-0.1175 0.73875,-0.2025 0.97625,-0.24875 1.6325,-0.31375 -0.06,2.33875 -0.7075,3.775 -0.1475,0.32625 -1.73625,5.125 -0.885,5.4925 0.155,0.0662 0.3775,0.0525 0.56625,0.0312 0.24125,-0.0275 0.3175,-0.11625 0.65,-0.85 5.21875,-11.5250005 11.00875,-11.7600005 14.03375,-12.6312505 2.0475,-0.58875 4.72625,-3.85 3.93125,-6.18375 -0.4625,-1.36249997 -3.0775,-0.3075 -4.6025,0.125 -5.6575,1.60875 -27.33875,10.4062505 -39.435,15.2650005 -24.28626,9.755 -28.22126,16.68625 -27.94501,16.3375 z M 33.246221,13.269554 c 0.324625,-0.21125 0.760501,-0.495 1.167001,-0.81 0.937375,-0.725 2.1255,-4.0787505 0.8345,-4.8137505 -0.138125,-0.0788 -0.38825,-0.0525 -0.639,-0.0175 -1.653876,0.23 -2.785751,0.615 -3.636251,1.23625 -3.966126,2.8975005 -4.258126,9.1312505 0.863875,11.0850005 1.636875,0.62375 3.629376,0.52375 5.722126,-0.2125 0.791,-0.27875 1.4635,-0.66875 2.122,-1.37375 0.292875,-0.3125 0.544876,-0.60625 0.765501,-0.8775 l 1.76575,-2.1675 2.420125,0.98625 c 0.447625,0.1625 0.86975,0.29 1.26925,0.3825 7.108626,1.65375 13.591256,-7.9000005 9.325126,-13.3462505 -0.46175,-0.69625 -0.99787,-1.36 -1.576,-1.96625 -0.99562,-1.04499997 -1.547,-0.32625 -2.09787,1.045 -0.577,1.435 -1.30475,2.58125 -0.42613,4.03125 0.13925,0.22875 0.28438,0.46375 0.4,0.70875 1.563,3.3050005 -1.78175,3.9200005 -4.7795,3.4812505 -0.618126,-0.09 -1.206751,-0.20625 -1.761251,-0.515 -0.307625,-0.1712505 -1.383125,-1.1075005 -2.06425,-1.1800005 -0.17925,-0.0188 -0.227625,0.0512 -0.4835,0.705 -0.188375,0.4812505 -0.756125,1.2875005 -1.297625,1.9750005 -1.475876,1.87375 -4.084751,2.44625 -6.469251,2.49 -3.747626,0.07 0.379625,-2.01625 -1.424626,-0.84625 z" />
</svg>
