<?xml version="1.0" encoding="UTF-8" standalone="yes"?>
<svg>
  <path
    style="stroke:none; fill:#000000"
    d="m 57.800748,16.216404 -0.453,-8.6510004 c -0.067,-1.283 -0.094,-1.507 -0.265,-2.233 -0.524,-2.229 -1.935,-3.449 -3.411,-4.237 -1.875,-1.00200001 -3.307,-1.37400001 -5.24,0.036 -1.59,1.16 -1.74,5.359 -1.115,6.016 0.466,0.49 1.702,0.446 3.197,0.095 3.735,-0.877 4.109,-0.675 5.082,3.2750004 0.462,1.876 0.517,3.635 0.29,5.523 -0.483,4.008 -1.618,5.958 0.605,8.311 0.926,0.98 1.892,1.128 4.003,0.693 1.5,-0.309 1.798,-1.006 2.427,-3.082 0.442,-1.463 0.792,-2.772 0.679,-4.23 -0.225,-2.892 -3.352,-8.3280004 0.417,-9.6790004 0.695,-0.249 1.599,-0.086 2.379,0.084 1.051,0.229 1.229,0.125 1.783,-1.039 0.456,-0.956 0.983,-1.836 1.272,-2.866 1.088,-3.86400001 -0.577,-4.95500001 -3.918,-3.37200001 -3.833,1.81600001 -5.554,9.59600041 -4.735,14.81200041 0.25,2.15 0.525,4.086 0.525,4.086 0,0 -0.229,-0.003 -0.502,-0.03 -1.073,-0.105 -2.916,-1.529 -3.02,-3.512 z m -33.753,59.552 c 0.163,2.241 1.208,3.634 3.11,4.036 2.453,0.519 3.84,-0.811 4.469,-3.502 0.138,-0.591 0.107,-1.083 -0.273,-1.32 -0.723,-0.452 -2.708,0.017 -3.667,-0.493 -1.194,-0.634 -1.498,-3.329 -1.202,-4.589 0.295,-1.262 1.049,-2.613 1.254,-3.585 0.041,-0.197 0.061,-0.378 -0.025,-0.479 -0.011,-0.013 -0.022,-0.025 -0.033,-0.036 -2.887,-0.658 -3.589,10.573 -3.633,9.968 z m 95.612002,0 c 0.162,2.241 1.208,3.634 3.109,4.036 2.454,0.519 3.841,-0.811 4.47,-3.502 0.137,-0.591 0.106,-1.083 -0.274,-1.32 -0.722,-0.452 -2.707,0.017 -3.667,-0.493 -1.193,-0.634 -1.497,-3.329 -1.202,-4.589 0.296,-1.262 1.049,-2.613 1.255,-3.585 0.041,-0.197 0.06,-0.378 -0.026,-0.479 -0.01,-0.013 -0.021,-0.025 -0.032,-0.036 -2.887,-0.658 -3.589,10.573 -3.633,9.968 z m -13.162,-45.757 c -0.376,-0.159 -0.657,-0.266 -0.707,-0.32 -1.175,-1.261 -0.213,-2.533 1.251,-3.993 1.165,-1.162 2.555,-2.169 3.112,-2.557 4.602,-3.204 16.518,-11.317 18.514,-12.079 0.462,-0.176 0.892,-0.294 1.123,-0.147 0.002,0.002 0.004,0.003 0.006,0.004 0.073,0.015 -0.992,2.905 -1.415,4.726 -0.516,2.215 0.263,0.779 1.182,-0.281 1.544,-1.779 3.931,-4.355 4.067,-4.481 1.206,-1.1120004 2.592,-2.1320004 4.131,-2.8160004 0.632,-0.472 1.303,-0.888 2.042,-1.238 1.105,-0.522 3.008,-1.276 3.698,-2.522 -0.296,0.534 2.568,-4.51100001 0.17,-4.12700001 -0.499,0.08 -1.097,0.254 -1.763,0.497 -10.338,3.76300001 -27.37,13.37000041 -35.695,20.58800041 -1.516,1.315 -2.669,2.526 -3.176,3.495 -1.242,2.37 -0.447,4.64 1.39,7.282 0.607,0.872 3.01,3.306 4.151,1.332 1.411,-2.446 -1.649,-3.177 -2.081,-3.363 z m 0.607,-18.501 c 0.216,0.033 0.433,0.043 0.653,0.025 0.766,-0.064 1.476,-0.482 2.109,-0.31 0.476,0.129 1.113,0.805 1.561,1.56 0.656,0.825 1.387,1.65 2.071,2.18 1.703,1.324 2.116,0.76 2.452,-1.076 0.235,-1.282 0.317,-2.859 0.433,-3.236 0.368,-1.1960004 1.085,-2.3400004 2.048,-2.8630004 0.002,-0.001 0.004,-0.002 0.006,-0.003 3.245,-1.753 3.62,0.256 4.014,-3.774 0.164,-1.68 0.251,-3.88000001 -1.263,-3.85300001 -3.561,0.062 -7.082,2.36400001 -7.584,4.72000001 -1.047,4.915 -1.159,1.872 -2.844,-0.987 -1.12,-1.9 -2.967,-2.707 -5.456,-2.231 -0.135,0.03 -0.271,0.065 -0.406,0.103 -2.667,0.76 -2.835,5.118 -1.332,7.493 1.333,2.1060004 3.945,2.3140004 3.538,2.2520004 z m -57.638002,20.974 c 0,0 -0.054,3.099 -0.058,3.304 4.965,-2.531 13.105,-4.43 3.634,6.969 1.783,-0.408 6.659,-4.473 7.136,-5.122 0.453,-0.616 2.166,-5.145 1.791,-6.372 -0.893,-2.93 -5.38,-3.183 -7.641,-2.851 -1.589,0.234 -3.383,0.771 -4.405,2.08 -0.389,0.497 -0.434,0.697 -0.457,1.992 z m 80.248002,6.19 4.692,4.692 5.753,-5.753 -5.753,-5.753 -4.692,4.692 -4.692,-4.692 -5.753,5.753 5.753,5.753 4.692,-4.692 z m 0,-16.727 -5.753,5.753 5.753,5.753 5.753,-5.753 -5.753,-5.753 z m -67.253002,46.335 4.692,4.692 5.753,-5.753 -5.753,-5.753 -4.692,4.691 -4.692,-4.691 -5.753,5.753 5.753,5.753 4.692,-4.692 z m 25.835,5.446 -0.749,6.187 13.387002,-6.75 1.157,-6.616 -13.795002,7.179 z m -13.682,-3.143 c -3.352,2.09 -6.788,3.831 -9.714,4.805 -1.623,0.541 -3.422,0.94 -5.257,1.28 -6.902,1.278 -3.306,2.343 -0.002,2.894 5.468,0.911 7.414,0.04 14.655,-2.503 0.059,-0.021 0.118,-0.042 0.177,-0.063 3.318,-1.208 9.179,-5.248 12.553,-8.503 1.302,-1.257 3.034,-6.432 4.152,-10.3 1.027,-3.554 1.45,-3.783 0.376,-7.29 -0.094,-0.305 -0.138,-0.579 -0.082,-0.795 0.003,-1.986 2.858,0.15 2.078,-1.311 -3.412,-4.768 -5.498,-9.636 -6.838,-10.888 -0.163,-0.246 -0.296,-0.356 -0.477,-0.415 -1.927,-0.631 -2.327,2.474 -2.611,3.794 -0.359,1.665 -0.588,3.36 -0.375,3.914 0.8,2.076 2.807,7.521 3.783,10.121 0.793,2.115 1.405,2.651 1.188,3.387 -1.361,4.601 -17.57,14.345 -13.606,11.873 z m -73.95999961,-3.945 c 0.197,1.621 0.39400001,2.916 0.57100001,3.475 1.865,5.907 8.8729996,12.513 14.0109996,8.645 3.341,-2.514 4.004,-6.788 4.992,-10.954 1.011,-4.265 5.8,-14.152 10.334,-14.462 0.866,-0.059 1.92,0.034 1.92,0.034 l -0.86,9.47 c -0.118,1.291 -0.126,1.519 -0.086,2.284 0.031,0.568 0.212,1.103 0.377,1.655 1.613,5.38 1.268,7.877 5.921,9.968 1.872,0.84 5.224,1.453 6.39,0.831 1.268,-0.676 5.088,-7.716 5.278,-9.183 0.458,-3.541 -0.795,-9.461 -0.795,-9.461 0,0 5.86,1.163 10.056,1.455 1.754,0.123 14.757,-0.986 17.321,-2.178 3.563,-1.656 5.197,-8.04 4.522,-11.529 -0.065,-0.334 -3.386,-10.745 -5.844,-11.777 -1.936,-0.814 -3.44,4.857 -3.071,7.261 0.179,1.169 0.88,2.715 1.671,4.124 1.949,3.475 3.841,5.882 1.374,6.617 -6.45,1.923 -21.223,1.807 -25.167,-2.12 -1.469,-1.463 -2.126,-3.214 -2.558,-5.406 -0.162,-0.826 -2.833,-19.766 -4.614,-32.439 0.05,0.361 -1.787,-12.72200041 -1.736,-12.36100041 -0.007,-0.053 -0.014,-0.102 -0.021,-0.148 -0.297,-0.775 -0.929,-0.485 -1.527,0.522 -0.941,1.58100001 -1.529,4.56200001 -1.319,6.21300001 0.263,2.07 6.816,53.6560004 6.816,53.6560004 0.35,2.64 0.584,5.272 0.57,7.65 -0.007,1.147 -0.042,2.399 -0.042,2.399 0,0 -1.299,0.077 -2.304,-0.04 -4.621,-0.54 -7.31,-6.761 -7.598,-10.214 -0.79,-9.46 1.457,-18.508 -7.499,-12.912 -4.533,2.832 -8.282,9.137 -9.972,15.519 -0.902,3.409 -1.579,8.476 -5.784,9.469 -2.1909996,0.517 -4.4329996,-1.246 -6.1379996,-3.287 -2.066,-2.475 -3.203,-5.929 -3.695,-9.431 -1.78800001,-10.555 3.364,-18.037 3.099,-18.668 0.066,-0.541 -0.05,-0.667 -0.447,-0.062 -0.646,0.984 -1.345,2.23 -1.966,3.463 -4.95,9.836 -1.83900001,24.728 -2.18000001,21.922 z m 103.52100161,-4.103 c 1.045,0.39 2.226,0.609 3.829,0.763 2.77,0.267 7.331,0.615 9.467,-0.555 0.48,-0.262 0.921,-0.57 1.333,-0.888 l 3.632,-2.808 1.616,1.443 c 0.515,0.46 1.051,1.012 1.595,1.436 1.022,0.796 1.755,0.954 2.842,0.656 1.351,-0.369 2.422,-0.892 3.344,-1.369 l 3.411,-1.762 5.509,3.036 c 2.76,1.522 5.43,3.193 5.43,3.193 0,0 1.661,-1.712 2.736,-3.108 3.856,-5.005 3.306,-8.442 0.723,-13.909 -1.047,-2.217 -3.249,-5.586 -5.127,-4.41 -0.977,0.611 -2.401,4.195 -2.333,5.48 0.033,0.619 0.261,1.14 0.691,1.692 0.579,0.744 1.525,1.545 1.878,2.433 0.248,0.627 0.324,1.737 0.206,1.924 -0.754,1.194 -4.819,-1.368 -5.241,-2.252 -0.269,-0.561 -0.315,-1.217 -0.658,-1.488 -0.619,-0.488 -3.412,0.271 -4.112,0.961 -0.421,0.417 -0.621,0.985 -0.987,1.44 -1.062,1.324 -3.309,1.743 -4.523,1.068 -1.694,-0.941 -2.61,-2.239 -3.378,-3.097 l -1.467,-1.64 -2.221,2.289 c -1.99,2.05 -2.424,3.219 -4.947,3.679 -4.454,0.812 -10.533,-0.397 -14.107,-3.319 -3.321002,-2.714 -4.245002,-16.765 -4.713002,-20.632 -0.838,-6.913 -1.799,-14.717 -2.56,-20.714 -0.271,-2.1310004 -1.266,-11.90400041 -2.412,-11.91900041 -0.608,-0.008 -0.756,0.124 -1.419,1.22800001 -1.349,2.246 -2.177,5.209 -2.226,7.398 0.003,-0.153 0.869,4.9910004 1.982,11.6720004 1.583,9.504 3.4,40.813 12.207002,42.079 z m -22.664002,-37.818 0,0.487 -1.44,0 c 0,0 -0.099,-2.207 0,-3.84 0.155,-2.553 0.795,-3.707 0.96,-5.28 0.435,-4.159 -1.66,-8.7290004 -3.282,-12.3760004 -1.289,-2.90000001 -1.804,-3.86400001 -3.534,-3.46400001 -1.476,0.341 -1.673,1.18500001 -1.824,3.64800001 -0.064,1.043 -0.105,1.896 0.237,2.592 0.549,1.115 2.083,1.831 3.164,3.002 1.664,1.8020004 3.234,7.6660004 2.839,10.3180004 -0.176,1.182 -0.694,2.37 -0.96,3.6 -0.558,2.572 -0.148,7.232 1.92,8.76 0.442,0.327 0.958,0.543 1.593,0.72 1.091,0.304 3.335,0.383 4.959,0.26 2.314,-0.175 3.123,-1.309 3.494,-3.568 0.05,-0.301 0.081,-0.604 0.092,-0.903 0.137,-3.517 -3.479,-5.389 -6.549,-5.41 -0.193,-0.002 -0.379,0 -0.544,0.002 -1.5,0.025 -1.125,1.527 -1.125,1.452 z"/>
</svg>