<?xml version="1.0" encoding="UTF-8" standalone="yes"?>
<svg xmlns="http://www.w3.org/2000/svg" xmlns:xlink="http://www.w3.org/1999/xlink"
  width="595.276pt" height="841.89pt" viewBox="0 0 595.276 841.89">
<path
	style="stroke:none; fill:#000000"
	d="m 43.511007,62.02932 3.515,-3.515 -4.875,-4.875 -4.874,4.875 3.515,3.515 -3.515,3.515 4.874,4.874 4.875,-4.874 -3.515,-3.515 z m -13.487,-53.4529998 -4.747,4.7159998 c -0.789,0.783 -0.901,0.924 -1.122,1.407 -0.309,0.676 -0.416,1.806 -0.264,1.959 0.491,0.497 2.23,-0.708 2.835,-1.154 5.299,-3.908 7.714,-6.3699998 8.571,-11.4309998 0.435,-2.573 -0.927,-3.56799998 -3.337,-3.89599998 -3.824,-0.521 -7.618,0.012 -9.104,2.89099998 0.232,10.9909998 0.559,4.705 3.801,3.925 3.608,-0.868 7.486,-2.796 3.367,1.583 z m -14.247,10.0349998 0.168,-2.071 -2.9377,0.657 C -1.2739928,20.39032 9.7865072,-3.8986798 7.0504072,0.54532022 3.8990072,5.6633202 2.5207072,11.77332 3.1606072,17.23932 c 0.0699,0.596 0.146,1.139 0.2389,1.635 1.4908,7.969 11.8864998,5.792 12.3774998,-0.263 z m 20.578,5.974 3.514,3.515 4.875,-4.875 -4.875,-4.874 -3.514,3.515 -3.515,-3.515 -4.875,4.874 4.875,4.875 3.515,-3.515 z m 17.619,-8.969 -0.441,-8.4139998 c -0.065,-1.248 -0.091,-1.465 -0.258,-2.172 -0.509,-2.167 -1.882,-3.354 -3.317,-4.12099998 -1.824,-0.974 -3.216,-1.336 -5.097,0.036 -1.546,1.12799998 -1.691,5.21199998 -1.084,5.85099998 0.454,0.476 1.655,0.433 3.11,0.092 3.632,-0.853 3.996,-0.657 4.942,3.1849998 0.45,1.825 0.503,3.535 0.282,5.371 -0.47,3.899 -1.573,5.795 0.589,8.084 0.9,0.953 1.84,1.097 3.893,0.674 1.459,-0.3 1.748,-0.978 2.36,-2.998 0.43,-1.422 0.771,-2.696 0.661,-4.113 -0.219,-2.813 -3.26,-8.0999998 0.405,-9.4139998 0.676,-0.242 1.556,-0.084 2.314,0.081 1.022,0.223 1.196,0.122 1.735,-1.01 0.442,-0.93 0.955,-1.786 1.237,-2.787 1.057,-3.75899998 -0.562,-4.81999998 -3.812,-3.27999998 -3.727,1.76599998 -5.401,9.33299978 -4.605,14.40599978 0.244,2.091 0.511,3.974 0.511,3.974 0,0 -0.223,-0.003 -0.488,-0.029 -1.043,-0.103 -2.836,-1.488 -2.937,-3.416 z m -40.1888,24.162 c 0.1579,2.179 1.1748,3.534 3.0238,3.926 2.386,0.504 3.736,-0.79 4.347,-3.407 0.134,-0.574 0.104,-1.053 -0.266,-1.284 -0.702,-0.439 -2.633,0.017 -3.566,-0.479 -1.161,-0.616 -1.456,-3.238 -1.169,-4.464 0.287,-1.226 1.02,-2.54 1.22,-3.485 0.04,-0.192 0.059,-0.368 -0.025,-0.467 -0.01,-0.012 -0.021,-0.024 -0.031,-0.035 -2.809,-0.64 -3.4912,10.283 -3.5338,9.695 z m 66.0848,3.254 c 0.158,2.18 1.174,3.535 3.024,3.926 2.386,0.505 3.735,-0.789 4.347,-3.407 0.134,-0.574 0.104,-1.052 -0.266,-1.283 -0.703,-0.44 -2.633,0.016 -3.567,-0.479 -1.161,-0.617 -1.456,-3.239 -1.168,-4.464 0.287,-1.227 1.02,-2.541 1.219,-3.486 0.041,-0.192 0.059,-0.368 -0.024,-0.466 -0.011,-0.013 -0.021,-0.024 -0.032,-0.035 -2.808,-0.64 -3.491,10.283 -3.533,9.694 z m -47.597,2.225 c 0.007,0.249 -0.078,0.463 -0.266,0.615 -0.894,0.722 -3.164,-0.238 -4.735,-0.888 -0.552,-0.229 -1.069,-0.434 -1.184,-1.125 -0.025,-0.151 -0.031,-0.325 -0.029,-0.482 0.022,-1.495 1.951,-0.934 3.518,-0.291 1.714,0.704 2.661,0.75 2.696,2.171 z m 14.102,-8.816 1.877,7.736 c 0,0 -3.307,0.832 -5.429,1.15 -1.258,0.188 -2.098,0.196 -3.147,0.107 -1.128,-0.096 -1.278,-0.209 -1.506,-1.125 -0.168,-0.679 -0.515,-1.284 -0.857,-1.904 -2.148,-3.9 -6.604,-12.124 -9.81,-7.515 -1.749,2.514 -5.976,13.516 -3.131,17.116 0.314,0.397 0.849,0.798 1.588,1.043 0.569,0.188 0.758,0.215 1.884,0.267 l 7.799,0.36 c 0,0 0.146,1.086 0,1.812 -0.205,1.012 -3.632,3.074 -4.592,3.615 -5.306,2.987 -11.566,3.532 -15.863,1.878 -6.1362998,-2.362 -10.7406998,-7.132 -11.6887998,-13.417 -0.4869,-3.227 -0.1242,-7.506 1.0436,-10.169 1.1836,-2.699 3.7269,-6.702 3.1309,-7.097 -1.1135,-0.736 -3.8389,5.324 -4.3832,6.68 -4.01409999,9.995 -5.4753,19.772 2.1773,27.476 3.8492,3.874 9.9921998,6.328 14.7291998,5.92 3.437,-0.296 11.01,-3.394 13.384,-6.411 1.54,-1.957 2.698,-8.658 3.94,-9.87 0.991,-0.966 4.831,-0.971 7.723,-1.878 2.117,-0.664 3.613,-1.905 4.384,-3.966 0.377,-1.009 0.584,-2.198 1.043,-3.34 1.449,-3.599 2.311,-3.502 2.087,-6.094 -0.173,-2.015 -2.019,-9.636 -3.197,-10.604 -1.127,-0.926 -1.705,0.794 -2.647,3.131 -0.413,1.025 -1.016,2.295 -0.892,3.382 0.052,0.45 0.087,0.622 0.353,1.717 z m 54.552003,21.231 -3.286003,-0.363 1.313,-1.527 c 1.400003,-1.92 4.646003,-3.296 6.721003,-2.922 1.492,0.269 3.539,1.002 4.759,1.879 1.18,0.848 2.81,2.341 2.81,2.341 0,0 -1.622,0.535 -3.495,0.79 -2.713,0.369 -6.591,0.049 -8.822,-0.198 z m -37.734003,-32.838 -0.276,4.793 c -0.065,1.125 -0.042,1.344 0.234,2.187 0.631,1.933 2.062,2.678 3.242,3.931 2.313,2.455 5.859,11.92 5.083,14.7 -1.13,4.046 -8.281,10.472 -11.27,11.182 -4.398,1.044 -5.968,-0.388 -7.589,-4.592 -0.256,-0.664 -0.483,-1.294 -0.54,-1.979 -0.078,-0.924 -0.078,-1.152 -0.007,-2.277 l 0.338,-5.346 -0.668,0 c 0,0 -1.411,6.511 -1.836,10.52 -0.318,2.998 0.574,9.595 3.339,11.397 2.194,1.429 5.339,1.273 7.097,0.417 3.305,-1.61 8.938,-7.976 10.982,-11.536 0.238,-0.415 0.434,-0.805 0.484,-1.378 0.173,-2.015 -0.333,-2.852 0.501,-2.756 0.125,0.014 0.141,0.009 0.164,-0.051 0.078,-0.21 0.173,-0.192 0.392,0.067 0.938,1.107 0.943,3.213 1.391,4.638 0.903,2.873 5.316,5.92 8.077,4.963 0.697,-0.241 1.471,-0.824 2.216,-1.293 l 1.717,-1.079 1.555,1.561 c 0.173,0.173 0.359,0.343 0.565,0.491 1.285,0.915 2.003,0.769 1.925,1.724 -0.08,0.977 -0.943,2.565 -0.748,3.188 0.106,0.336 0.52,0.391 1.002,0 0.963,-0.781 2.196,-3.34 2.196,-3.34 l 13.236003,0.763 c 1.125,0.065 1.373,0.047 2.48,-0.179 3.128,-0.64 4.693,-1.232 5.925,-2.671 1.122,-1.31 4.233,-7.532 4.383,-8.766 0.287,-2.357 -2.72,-5.793 -5.427,-7.306 -2.96,-1.655 -5.255,-2.368 -7.514,-1.252 -2.947,1.455 -4.45,2.479 -6.470003,5.635 -1.476,2.305 -3.448,5.911 -3.448,5.911 0,0 -2.828,-0.545 -4.275,-1.527 -0.713,-0.485 -1.208,-1.45 -1.721,-2.108 l -0.983,-1.263 -1.352,1.579 c -0.299,0.348 -0.612,0.713 -0.954,0.957 -0.719,0.513 -2.732,1.044 -3.339,1.043 -1.998,0 -4.989,-2.536 -5.636,-3.339 -1.21,-1.503 -4.513,-14.68 -6.679,-21.29 -0.191,-0.582 -0.365,-1.062 -0.537,-1.473 -0.424,-1.012 -7.047,-8.447 -7.255,-4.846 z"/>
</svg>