<?xml version="1.0" encoding="UTF-8" standalone="yes"?>
<svg xmlns="http://www.w3.org/2000/svg" xmlns:xlink="http://www.w3.org/1999/xlink"
  width="595.276pt" height="841.89pt" viewBox="0 0 595.276 841.89">
  <path
    style="stroke:none; fill:#000000"
    d="m 36.43759,79.3783 4.826,4.83 6.23,-6.234 -6.23,-6.233 -4.826,4.829 -4.825,-4.829 -6.23,6.234 6.229,6.233 4.826,-4.83 z m 79.969,-57.267 0.129,1.012 0.433,-1.006 c 0.256,-0.595 0.592,-1.888 1.032,-4.199 0.941,-4.945 0.096,-12.2529997 -3.63,-16.1889997 -0.828,-0.87500004 -1.853,-1.62800004 -2.428,-1.69500004 -0.544,-0.063 -1.176,-0.02 -1.176,-0.02 0,0 -0.019,2.29400004 0.191,3.98900004 0.204,1.643 0.957,3.313 1.646,3.648 0.46,0.223 0.981,0.168 1.466,0.512 0.381,0.271 0.91,1.083 1.359,2.0389997 0.803,1.714 0.872,3.813 0.933,5.683 0.095,2.908 -0.075,5.286 0.045,6.226 z m -62.168,3.564 -5.309,5.273 c -0.882,0.877 -1.007,1.034 -1.254,1.574 -0.346,0.756 -0.465,2.019 -0.295,2.191 0.549,0.555 2.494,-0.792 3.17,-1.291 5.926,-4.37 8.626,-7.123 9.584,-12.782 0.487,-2.877 -1.036,-3.99 -3.731,-4.357 -4.276,-0.582 -8.519,0.013 -10.18,3.232 0.26,12.291 0.625,5.263 4.251,4.39 4.033,-0.971 8.37,-3.127 3.764,1.77 z M 7.3245899,52.1703 c 0.176,2.436 1.313,3.952 3.3810001,4.389 2.668,0.564 4.177,-0.882 4.861,-3.809 0.15,-0.642 0.116,-1.177 -0.297,-1.436 -0.786,-0.491 -2.945,0.019 -3.989,-0.535 -1.2980001,-0.69 -1.6280001,-3.621 -1.3070001,-4.992 0.3220001,-1.371 1.1410001,-2.841 1.3640001,-3.898 0.046,-0.214 0.066,-0.411 -0.027,-0.521 -0.012,-0.014 -0.024,-0.027 -0.035,-0.039 -3.1400001,-0.716 -3.9040001,11.498 -3.9510001,10.841 z M 129.85359,79.6983 c 0.176,2.437 1.313,3.952 3.381,4.389 2.668,0.565 4.177,-0.882 4.861,-3.809 0.15,-0.642 0.116,-1.177 -0.297,-1.435 -0.786,-0.492 -2.945,0.018 -3.988,-0.536 -1.299,-0.689 -1.629,-3.621 -1.307,-4.992 0.321,-1.371 1.14,-2.84 1.363,-3.898 0.046,-0.214 0.066,-0.411 -0.027,-0.521 -0.012,-0.014 -0.023,-0.027 -0.035,-0.039 -3.14,-0.716 -3.904,11.499 -3.951,10.841 z m -119.397,-50.881 c 2.802,2.462 6.876,3.744 8.48,1.34 1.042,-1.559 2.737,-4.812 2.737,-4.812 0,0 -1.723,-2.603 -3.161,-3.722 -0.966,-0.752 -2.811,-1.066 -3.901,-0.474 -0.963,0.523 -2.086,2.035 -2.695,1.416 -0.74,-0.751 1.671,-5.672 1.822,-6.094 1.845,-5.164 1.746,-8.3909997 0.33,-12.6799997 -0.436,-1.32 -0.918,-2.66 -1.591,-3.18500004 L 11.69759,3.0025654e-4 10.88059,0.87130026 C 9.6075899,2.2293003 9.8505899,5.7873003 10.26659,7.2473003 c 0.389,1.366 1.071,2.723 1.455,4.1899997 0.457,1.744 0.235,5.819 -0.417,7.656 -0.898,2.53 -2.5570001,4.851 -2.1920001,7.614 0.125,0.946 0.259,1.157 1.3440001,2.11 z m 56.387,0 c 2.802,2.462 6.876,3.744 8.48,1.34 1.042,-1.559 2.737,-4.812 2.737,-4.812 0,0 -1.723,-2.603 -3.161,-3.722 -0.966,-0.752 -2.811,-1.066 -3.901,-0.474 -0.962,0.523 -2.086,2.035 -2.695,1.416 -0.74,-0.751 1.671,-5.672 1.822,-6.094 1.845,-5.164 1.746,-8.3909997 0.33,-12.6799997 -0.436,-1.32 -0.918,-2.66 -1.591,-3.18500004 l -0.78,-0.60600000346 -0.817,0.87100000346 c -1.273,1.35800004 -1.03,4.91600004 -0.614,6.37600004 0.39,1.366 1.071,2.723 1.455,4.1899997 0.457,1.744 0.235,5.819 -0.417,7.656 -0.898,2.53 -2.556,4.851 -2.192,7.614 0.125,0.946 0.259,1.157 1.344,2.11 z m -33.053,-11.355 -0.493,-9.4079997 c -0.073,-1.396 -0.102,-1.639 -0.288,-2.429 -0.57,-2.424 -2.105,-3.751 -3.709,-4.608 -2.04,-1.09000004 -3.597,-1.49500004 -5.7,0.039 -1.729,1.262 -1.891,5.829 -1.212,6.543 0.507,0.533 1.851,0.485 3.477,0.103 4.062,-0.954 4.469,-0.734 5.527,3.5609997 0.503,2.042 0.562,3.954 0.315,6.007 -0.525,4.36 -1.759,6.48 0.659,9.04 1.006,1.065 2.057,1.226 4.353,0.753 1.631,-0.336 1.955,-1.094 2.639,-3.352 0.481,-1.591 0.862,-3.015 0.739,-4.6 -0.245,-3.145 -3.646,-9.058 0.453,-10.5259997 0.756,-0.271 1.74,-0.095 2.588,0.09 1.142,0.249 1.336,0.136 1.939,-1.129 0.495,-1.04 1.068,-1.997 1.383,-3.117 1.183,-4.20300004 -0.628,-5.38900004 -4.261,-3.66800004 -4.168,1.97500004 -6.04,10.43699974 -5.15,16.10899974 0.272,2.339 0.571,4.444 0.571,4.444 0,0 -0.249,-0.003 -0.546,-0.032 -1.166,-0.115 -3.171,-1.664 -3.284,-3.82 z m 37.923,64.447 c -0.125,0.524 -0.203,1.763 0.082,2.151 0.122,0.166 0.311,0.176 0.545,0.109 l 12.8,-5.675 c 1.523,-1.129 2.506,-2.61 2.941,-5.016 0.153,-0.845 -0.029,-1.117 -0.934,-0.994 l -13.375,5.896 c -0.359,0.278 -0.639,0.543 -0.818,0.79 -0.551,0.759 -1.068,2.008 -1.241,2.739 z m 52.122,-20.031 -15.169,1.055 c 0,0 -0.086,-0.634 -0.043,-1.139 0.174,-2.033 5.704,-4.803 7.686,-5.332 2.486,-0.663 3.419,0.213 6.105,2.252 0.663,0.504 1.245,0.987 1.378,2.025 0.063,0.498 0.043,1.139 0.043,1.139 z m -16.288,-40.727 0.949,-0.037 0.018,0.475 c 0,0 1.424,-0.054 1.424,-0.054 0,0 -1.398,-11.474 -1.704,-13.9789997 -0.295,-2.421 -0.984,-5.198 -3.849,-1.983 -1.263,1.418 -2.493,3.427 -2.775,4.312 -0.386,1.2099997 -0.352,3.1889997 -0.005,5.0099997 0.517,2.712 1.73,5.075 1.693,7.012 -0.022,1.159 -0.491,2.164 -0.822,3.358 -0.418,1.506 0.099,15.033 0.702,18.391 0.815,4.533 3.188,14.145 1.415,17.092 -1.627,2.707 -8.515,-0.275 -10.601,-2.483 -1.064,-1.127 -1.488,-3.376 -1.882,-5.727 -0.901,-5.385 -2.1,-31.919 -2.653,-45.0959997 -0.121,-2.877 0.74,-11.839 -3.861,-4.814 -0.635,0.971 -1.262,2.024 -1.484,2.683 -0.371,1.096 -0.401,1.36 -0.305,2.639 1.283,17.0479997 2.428,34.7219997 4.275,51.1099997 0.328,2.914 0.98,6.848 2.704,8.595 2.67,2.704 12.382,4.606 15.592,4.69 4.099,0.107 14.464,-0.669 18.839,-2.754 1.162,-0.553 1.326,-0.753 1.645,-2 0.31,-1.214 0.766,-2.373 1.335,-3.503 2.264,-4.49 2.935,-4.953 1.317,-9.08 -2.48,-6.326 -7.062,-9.544 -12.383,-6.895 -2.563,1.277 -6.608,4.835 -6.608,4.835 0,0 -1.741,-9.317 -2.464,-18.39 -0.54,-6.772 -0.512,-13.407 -0.512,-13.407 z m -45.89,40.922 c 0.014,0.367 0.031,0.808 0.031,0.808 0,0 -0.209,0.003 -0.744,0.011 -1.972,0.029 -2.535,0.53 -3.52,-1.482 -0.153,-0.312 -0.618,-1.262 -0.618,-1.262 0,0 0.723,-0.025 1.273,-0.044 1.601,-0.056 3.5,-0.056 3.578,1.969 z m 14.816,1.156 c -2.494,0.703 -4.6,1.514 -7.578,1.694 -1.874,0.112 -4.195,0.015 -4.195,0.015 0,0 0.33,-0.495 0.809,-1.257 0.897,-1.427 3.283,-5.062 3.021,-6.92 0.195,-1.023 0.216,-1.504 0.216,-1.504 l 1.538,1.608 c 0.321,0.335 0.707,0.712 1.196,1.067 2.584,1.879 6.62,1.549 6.398,4.484 -0.029,0.383 -0.17,0.464 -1.405,0.813 z M 2.5475899,78.1143 c 2.949,0.596 10.9230001,1.901 10.3720001,1.786 0.261,0.055 0.558,0.054 0.938,-0.044 0.664,-0.172 1.245,-0.75 1.938,-1.115 0.688,-0.361 1.487,-0.512 2.219,-0.797 2.703,-1.053 10.091,-8.157 11.527,-11.165 1.07,-2.243 1.264,-5.413 2.201,-8.095 0.256,-0.735 0.753,-1.907 1.178,-2.369 0.734,-0.798 2.24,-0.985 3.259,-1.788 1.765,-1.392 3.304,-6.407 4.474,-2.981 0.167,0.491 0.191,0.688 0.24,1.969 l 0.379,9.933 c 0.049,1.282 0.095,1.52 0.461,2.384 1.112,2.629 3.858,4.689 5.539,5.382 1.224,0.504 2.512,0.951 3.833,1.042 1.869,0.127 3.805,-0.462 5.552,-0.212 1.171,0.167 2.258,0.71 3.376,1.139 4.754,1.824 11.619,-0.436 14.28,-1.381 2.33,-0.828 4.848,-1.941 5.669,-2.788 1.532,-1.577 3.941,-7.857 4.145,-8.7 0.98,-4.034 -0.692,-6.962 -4.824,-9.097 -2.559,-1.322 -5.925,-2.591 -8.002,-4.776 l -1.881,-1.976 3.004,-0.114 c 0,0 2.824,-0.68 2.824,-0.68 0,0 -0.957,-0.486 -2.185,-1.109 -4.961,-2.517 -2.882,-1.264 -7.06,-4.749 -1.546,-1.289 -2.024,-2.395 -3.477,0.337 -0.861,1.619 -2.338,5.111 -2.007,6.56 0.296,1.296 1.743,2.807 2.302,4.285 0.848,2.241 0.076,2.394 -2.295,2.742 -2.78,0.408 -4.697,2.793 -5.86,5.693 -1.327,3.307 -0.89,5.774 -3.06,5.301 -3.134,-0.684 -6.325,-4.939 -6.839,-7.334 -1.153,-5.379 1.872,-12.063 -1.821,-16.575 -0.687,-0.84 -1.874,-0.753 -2.586,0.261 -2.145,3.054 -1.398,5.131 -3.065,6.419 -1.177,0.91 -3.213,1.535 -4.262,1.303 -1.628,-0.361 -3.916,-2.386 -5.027,-2.185 -1.526,0.276 -2.954,7.245 -2.824,8.188 0.392,2.853 2.644,5.56 3.148,7.769 0.262,1.147 -0.227,1.624 -1.791,2.873 -9.125,7.287 -10.991,7.377 -24.3500001,12.445 -5.769,2.189 1.859,2.523 0.358,2.219 z"/>
</svg>