<?xml version="1.0" encoding="UTF-8" standalone="yes"?>
<!-- Created with sK1/UniConvertor (http://sk1project.org/) -->
<svg xmlns="http://www.w3.org/2000/svg" xmlns:xlink="http://www.w3.org/1999/xlink"
  width="595.276pt" height="841.89pt" viewBox="0 0 595.276 841.89"
  fill-rule="evenodd">
<path
	style="stroke:none; fill:#000000"
	d="m 120.97497,0.04827 c -0.317,-0.11 -0.828,-0.012 -1.337,0.106 -1.666,0.386 -6.554,2.165 -8.079,3.602 -0.413,0.389 -0.706,0.847 -1.083,1.27 -0.453,0.508 -6.168,3.457 -9.711,5.162 -4.919005,2.367 -14.234005,9.38 -18.634005,13.667 -2.15,2.095 -2.551,2.508 -2.702,4.748 -0.245,3.618 0.37,4.942 2.386,7.21 1.152,1.295 2.084,1.983 2.393,0.785 0.222,-0.86 0.509,-3.455 0.283,-3.893 -0.226,-0.439 -0.904,-0.755 -1.548,-1.304 -1.263,-1.078 -1.266,-1.366 -0.239,-2.458 0.655,-0.696 1.368,-1.259 1.933,-1.853 0.358,-0.375 0.655,-0.762 0.975,-1.143 0.66,-0.785 10.734,-8.275 13.194,-9.81 3.076995,-1.92 10.022995,-5.649 11.129995,-5.976 2.041,-0.602 0.556,1.151 -0.289,3.812 -0.297,0.936 -0.997,5.187 -0.273,5.851 0.45401,0.416 0.719,-0.172 0.90101,-0.927 0.80699,-3.353 0.971,-4.296 2.585,-7.027 0.423,-0.715 0.882,-1.446 1.557,-1.946 0.239,-0.178 0.482,-0.319 0.715,-0.445 2.161,-1.167 3.554,-2.835 4.81899,-5.696 0.49601,-1.122 0.969,-2.355 1,-2.549 0.027,-0.174 0.03,-0.324 0.07,-0.598 0.034,-0.227 0.093,-0.54 -0.046,-0.588 z m -31.055005,14.882 2.815,-0.342 c 0,0 -0.029,-1.135 -0.136,-1.924 -0.165,-1.223 -0.518,-1.611 -0.423,-2.138 0.087,-0.491 1.422,-2.481 1.909,-2.795 0.995,-0.641 3.082,-0.615 3.541,-1.19 0.241,-0.302 0.229,-0.761 0.238,-1.157 0.012,-0.533 0.008,-0.663 -0.042,-1.298 l -0.325,-4.086 c 0,0 -1.13,0.09 -1.13,0.09 -0.142,0.011 -0.252,0.02 -0.344,0.03 -4.736,0.496 -3.17,3.618 -5.703,6.319 -0.107,0.113 -0.211,0.241 -0.306,0.41 -0.348,0.62 -0.565,1.796 -0.565,1.796 0,0 -1.704,-2.926 -2.977,-4.335 -1.441,-1.595 -3.175,-2.661 -4.908,-2.097 -1.774,0.576 -2.999,1.731 -3.048,3.316 -0.032,1.064 0.448,4.993 1.889,5.894 1.013,0.632 3.186,0.278 4.237,-0.337 0.963,-0.564 1.606,-1.306 2.075,-1.145 0.608,0.209 3.203,4.989 3.203,4.989 z m -68.798,-4.605 c 0,0 0.598,-0.02 1.13,-0.089 0.632,-0.083 2.965,-1.383 3.22,-1.795 0.301,-0.487 0.462,-1.033 0.922,-1.38 0.272,-0.206 1.967,-0.791 2.233,-0.647 0.175,0.095 0.152,0.438 0.062,0.786 -0.152,0.589 -2.11,3.157 -3.156,4.14 -1.604,1.508 -2.651,2.528 -2.306,4.621 0.157,0.952 0.795,1.741 1.763,0.95 0.175,-0.143 0.246,-0.208 0.705,-0.651 3.685,-3.555 5.23,-6.148 5.438,-11.087 0.19,-4.494 -2.397,-4.838 -6.647,-2.874 -2.822,1.304 -3.775,2.153 -3.589,5.202 0.072,1.173 0.225,2.824 0.225,2.824 z m 11.141,27.855 c 0,0 0.598,-0.021 1.13,-0.09 0.633,-0.083 2.965,-1.383 3.221,-1.795 0.301,-0.487 0.462,-1.033 0.921,-1.38 0.273,-0.206 1.968,-0.791 2.233,-0.647 0.176,0.095 0.153,0.438 0.063,0.786 -0.153,0.589 -2.11,3.157 -3.157,4.141 -1.603,1.507 -2.65,2.527 -2.305,4.62 0.157,0.952 0.795,1.741 1.763,0.951 0.175,-0.144 0.245,-0.209 0.705,-0.652 3.684,-3.555 5.229,-6.148 5.438,-11.087 0.189,-4.494 -2.398,-4.838 -6.647,-2.874 -2.822,1.304 -3.775,2.153 -3.589,5.202 0.072,1.173 0.224,2.825 0.224,2.825 z m 17.141,-31.239 c 0.301,0.542 -0.376,1.153 -0.663,1.261 -0.917,0.343 -2.214,-0.337 -2.577,-1.427 -0.144,-0.433 -0.054,-0.861 0.25,-1.094 0.966,-0.741 2.427,0.248 2.99,1.26 z m -4.056,5.987 c -1.254,2.001 -9.177,8.204 -12.64,9.895 -6.389,3.12 -14.663,7.397 -14.952,8.486 -0.192,0.721 0.012,1.474 0.912,1.85 0.568,0.238 2.275,-0.215 4.255,-0.907 12.794,-4.47 17.392,-9.964 20.901,-13.408 l 3.259,-3.198 0.911,1.127 c 0.741,0.542 0.972,1.697 1.908,1.261 0.54,-0.252 0.686,-1.413 0.722,-2.561 0.062,-1.955 -0.195,-3.869 0.182,-5.707 0.839,-4.087 2.628,-7.106 -1.068,-9.127 -2.268,-1.24 -6.153,-0.552 -7.312,1.008 -0.754,1.017 -2.318,6.473 -1.246,7.649 1.197,1.312 4.896,2.469 4.168,3.632 z m -30.705,28.104 0.191,-2.385 -3.3454,0.757 c -16.2633,3.678 -3.6677,-24.303 -6.7836,-19.184 -3.5887,5.896 -5.1583,12.936 -4.4296,19.232 0.0795,0.687 0.1662,1.312 0.2721,1.884 1.6976,9.181 13.5365,6.673 14.0955,-0.304 z m 20.947,32.543 c 0.18,2.511 1.338,4.072 3.444,4.523 2.717,0.581 4.253,-0.91 4.95,-3.925 0.153,-0.661 0.118,-1.213 -0.303,-1.479 -0.8,-0.506 -2.998,0.02 -4.061,-0.551 -1.322,-0.711 -1.658,-3.731 -1.331,-5.143 0.327,-1.413 1.162,-2.927 1.389,-4.016 0.046,-0.22 0.067,-0.424 -0.028,-0.537 -0.012,-0.014 -0.024,-0.027 -0.036,-0.04 -3.198,-0.738 -3.975,11.846 -4.024,11.168 z m 62.937,-11.956 4.234005,4.209 5.711,-5.878 -5.811,-5.777 -4.161005,4.284 -4.234,-4.21 -5.71,5.879 5.811,5.776 4.16,-4.283 z m -47.898,-39.66 -5.71,5.878 5.81,5.777 5.711,-5.878 -5.811,-5.777 z m 9.09,23.508 1.376,8.543 c 0,0 -1.752,0.294 -3.052,0.352 -2.066,0.093 -5.163,-0.97 -6.152,-2.712 -0.904,-1.592 -0.749,-3.151 -2.187,-2.681 -0.421,0.138 -0.847,0.465 -1.158,0.867 -0.799,1.031 -0.848,2.554 -1.555,3.356 -1.175,1.334 -5.279,0.76 -6.418,-1.215 -0.634,-1.101 -0.739,-2.27 -1.839,-1.744 -0.839,0.402 -1.423,1.963 -2.372,2.962 -2.103,2.215 -4.789,2.077 -7.155,0.825 -0.733,-0.388 -1.379,-0.804 -1.859,-1.497 -1.184,-1.707 -1.263,-3.61 -2.718,-3.108 -1.743,0.602 -2.966,4.09 -3.046,5.562 -0.216,3.973 1.931,12.722 1.931,12.722 0,0 -3.995,2.561 -6.428,3.115 -2.161,0.491 -5.7292,-0.693 -8.2435,-2.345 -7.9062,-5.194 -1.1271,-22.006 -3.1562,-18.67 -2.8272,4.649 -5.5643,13.14 -5.6698,15.318 -0.3531,7.285 4.6757,12.329 12.5738,13.058 4.2007,0.387 7.1097,-1.65 11.3347,-5.175 2.457,-2.05 4.387,-4.548 4.2,-8.892 -0.037,-0.875 -0.23,-1.587 0.07,-1.907 0.491,-0.523 2.303,0.009 3.825,-0.441 2.067,-0.61 2.937,-2.188 4.706,-1.803 0.617,0.134 1.227,0.538 1.935,0.794 1.328,0.478 3.599,0.575 4.661,0.196 2.268,-0.811 2.981,-2.124 4.399,-1.718 0.875,0.251 1.942,1.132 3.028,1.595 2.089,0.891 7.996,0.978 8.461,0.735 0.957,-0.499 1.705,-1.779 2.221,-3.064 0.094,-0.234 0.183,-0.469 0.324,-0.668 0.325,-0.462 0.928,-0.732 1.403,-1.112 2.158,-1.729 3.139,-9.187 3.269,-11.13 0.174,-2.619 -0.177,-5.662 -2.063,-7.593 -1.568,-1.604 -2.865,1.371 -4.151,3.9 -0.228,0.449 -0.457,0.904 -0.565,1.397 -0.145,0.666 -0.138,0.884 0.07,2.178 z m 14.737,0.876 c -0.314,-0.217 -0.657,-0.368 -0.815,-0.799 -0.16,-0.436 -0.131,-1.158 -0.131,-1.158 0,0 0.151,-0.017 0.379,-0.043 -0.119,0.013 4.994,1.208 4.756,2.563 -0.087,0.497 -3.032,-0.318 -3.275,-0.29 -0.102,0.011 -0.189,0.021 -0.189,0.021 -0.229,0.027 -0.301,-0.003 -0.725,-0.294 z m 17.912,2.859 c 0.443,-0.417 0.923,-0.834 1.35,-1.28 0.854,-0.89 2.936,-6.355 2.984,-7.832 0.017,-0.522 -1.261,-12.524 -3.305,-13.637 -2.204,-1.201 -3.351,2.522 -4.095,5.849 -0.266,1.184 -0.472,2.162 -0.363,3.218 0.501,4.826 3.421,7.445 0.079,9.278 -1.727,0.948 -4.162,1.874 -4.981,0.819 -0.456,-0.587 -0.794,-1.775 -1.28,-2.785 -2.198,-4.564 -6.793,-7.847 -9.98,-4.96 -2.689,2.436 -5.74,11.946 -2.874,15.239 1.171,1.346 5.294,1.878 7.951,1.528 1.397,-0.184 2.35,-0.66 3.052,-0.352 0.557,0.244 1.184,2.738 0.876,3.487 -1.117,2.718 -12.93,9.983 -15.295,10.849 -6.014,2.201 -15.692,5.377 -15.942,5.989 -1.065,2.608 7.586,3.847 9.619,3.572 5.452,-0.736 16.273,-7.026 21.415,-12.841 0.265,-0.301 0.503,-0.593 0.707,-0.951 1.589,-2.785 2.251,-10.543 3.382,-11.518 0.304,-0.262 1.183,-0.613 1.87,-0.8 l 4.83,-2.872 z m -22.162,-42.31 0.007,0.066 -1.962,-0.263 c 0,0 -0.163,-1.447 -0.163,-1.447 0,0 0.512,-0.059 0.856,-0.099 1.185,-0.136 1.127,0.544 1.262,1.743 z m -7.511,-2.333 c -0.119,3.427 -0.045,4.683 2.16,5.605 3.43,1.435 5.069,1.82 5.132,3.37 0.039,0.945 -4.714,9.802 -5.966,11.117 -2.971,3.12 -5.239,4.369 -5.536,6.876 -0.034,0.29 -0.039,0.574 0.082,0.724 0.279,0.346 0.645,0.259 1.022,-0.031 5.828,-4.487 13.614,-11.739 13.969,-20 0.159,-3.703 -0.25,-8.479 -0.369,-8.87 -0.895,-2.941 -3.613,-4.213 -7.4,-2.725 -1.441,0.566 -3.014,1.67 -3.094,3.934 z"/>
</svg>