<?xml version="1.0" encoding="UTF-8" standalone="no"?>
<svg>
  <path
     style="fill:#000000;stroke:none"
     d="m 114.2699,91.482085 -4.84374,4.84374 5.93874,5.938745 5.94,-5.938745 -4.84375,-4.84374 4.84375,-4.84375 -5.94,-5.93874 -5.93874,5.93874 4.84374,4.84375 z m -92.07992,-54.00621 -5.93874,5.93875 5.93874,5.93874 5.93875,-5.93874 -5.93875,-5.93875 z m 28.97373,-27.29122 c -1.17625,1.335 -2.78625,3.09999 -4.88625,5.40999 1.66375,-0.18375 3.55875,-0.965 5.35125,-2.0875 2.02374,-1.26749 4.71374,-3.39499 6.03624,-5.7749902 1.345,-2.425 1.05125,-6.135 -1.91625,-7.36998999 -2.13625,-0.89 -4.98999,0.0538 -7.25624,0.78623999 -0.8825,0.285 -2.09875,0.95375 -2.49875,2.775 -0.965,4.385 0.27625,3.6525 2.89,3.10875 3.275,-0.68 7.00874,-2.2175 2.28,3.1525002 z m -43.6663412,0 c -1.175749,1.335 -2.786373,3.09999 -4.885496,5.40999 1.663373,-0.18375 3.557872,-0.965 5.35112,-2.0875 2.022749,-1.26749 4.7132472,-3.39499 6.0357472,-5.7749902 1.345,-2.425 1.05125,-6.135 -1.91575,-7.36998999 -2.1364982,-0.89 -4.9903712,0.0538 -7.2567442,0.78623999 -0.882874,0.285 -2.098373,0.95375 -2.499123,2.775 -0.964874,4.385 0.277125,3.6525 2.890498,3.10875 3.274497,-0.68 7.0081192,-2.2175 2.279748,3.1525002 z M 72.36994,48.278375 c 0.245,-2.01 -0.62625,-1.63125 -2.6275,-0.94625 -9.44624,3.23374 -6.15249,-7.1225 -3.03625,-13.40874 0.1675,-0.785 0.0413,-1.0425 -1.14875,0.345 -3.31749,3.87124 -7.00374,14.68123 -3.02749,18.21873 0.37625,0.33625 0.8375,0.60875 1.3925,0.80625 0.45125,0.16 0.9675,0.2675 1.55374,0.3125 6.14875,0.47625 6.62,-3.0875 6.89375,-5.32749 z m -12.62249,48.61495 c 0.245,-2.00999 -0.62625,-1.63124 -2.6275,-0.94625 -9.44624,3.23375 -6.15249,-7.12249 -3.03625,-13.40873 0.1675,-0.78375 0.0413,-1.0425 -1.14874,0.34625 -3.31625,3.86999 -7.00375,14.67998 -3.0275,18.217475 0.37625,0.33625 0.8375,0.60875 1.3925,0.80625 0.45125,0.16 0.9675,0.2675 1.55375,0.3125 6.14874,0.47625 6.61999,-3.087495 6.89374,-5.327495 z M 31.57997,66.462105 c -1.60375,-0.14 -7.13499,-0.96125 -7.79249,-2.78625 -0.38,-1.0525 2.94875,-2.27 3.58375,-2.26875 1.635,0 3.86124,1.49 5.38374,3.10125 1.78625,2.07 1.06375,1.99 -1.175,1.95375 z m 30.46123,4.615 1.5075,-0.85875 3.26374,1.64875 c 5.43375,2.74499 11.48874,6.54249 13.19624,-1.58875 0.87375,-4.15875 -1.41125,-12.26749 -4.29249,-15.48624 -0.95,-1.0625 -1.9675,-1.4475 -2.7525,-0.10125 -3.88625,6.66124 -0.51375,4.23375 0.28625,9.83499 0.0812,0.5675 0.14125,0.99125 0.14125,0.99125 0,0 -0.64375,-0.20625 -1.52125,-0.51875 -2.8,-0.9925 -3.72875,-0.96125 -4.87375,-3.8025 -0.41,-1.01499 -0.78625,-1.59874 -1.5625,0.10875 -1.40999,3.09875 -1.83999,4.37625 -5.21374,3.985 -1.1025,-0.12875 -2.37375,-0.36625 -3.40875,-0.7975 -4.61999,-1.92375 -3.68499,-8.47499 -6.72374,-3.04 -0.20375,0.365 -0.41375,0.70875 -0.61875,1 -1.36125,1.9275 -5.62375,3.68875 -7.26875,3.135 -0.67875,-0.2275 -4.06249,-4.9675 -6.25999,-7.83624 -3.5425,-4.62125 -7.37499,-5.7125 -10.95874,-2.31625 -1.225,1.16125 -2.0575,2.3175 -2.705,3.735 -4.45,9.74499 -3.9325,14.60873 7.89874,15.10748 2.51875,0.10625 5.3125,0.0713 7.09625,0.0275 1.98,-0.0475 2.55375,0.0288 3.1125,2.28125 1.08374,4.36375 -7.37375,6.97375 -10.7475,7.77124 -5.36874,1.2675 -10.96124,1.2475 -14.54748,-0.10625 -2.46625,-0.92999 -4.48137,-2.14499 -6.1051232,-3.60124 -5.37837,-4.82625 -6.387869,-12.81624 -5.54612,-20.63623 0.681624,-6.33125 4.371371,-19.68999 2.138623,-13.87124 -3.047497,7.94374 -6.03574499,17.87873 -5.51711999,26.68997 1.00074899,17.00499 14.79099019,23.33248 28.81223019,19.22999 14.36748,-4.60125 14.39623,-12.79874 15.13748,-17.29374 0.1525,-0.92875 1.08375,-2.0475 1.8925,-2.85499 1.78,-1.775 3.925,-5.6525 5.16375,-3.4375 2.62999,4.69999 5.80999,5.53874 10.97624,2.60125 z m 34.90872,-7.83 c 0.085,0.235 0.13125,0.7075 0,0.9975 -0.1675,0.36875 -2.745,-0.0512 -4.33,-0.5975 -0.76625,-0.26375 -1.77875,-0.5925 -1.34375,-1.595 0.30875,-0.71 1.7775,-0.89375 2.38875,-0.79375 0.85625,0.14 1.81375,0.64875 2.6875,1.34375 0.265,0.21125 0.5225,0.43875 0.5975,0.645 z m 12.05124,-1.03125 -1.73625,0.5075 c -1.005,0.29375 -1.15875,0.33125 -1.52875,0.37375 -0.89875,0.1025 -1.15375,-0.0975 -1.6775,-1.00625 -1.92375,-3.33624 -5.34999,-8.54374 -9.19874,-8.89499 -3.07875,-0.28125 -4.66,3.355 -5.9725,7.0175 -1.34124,3.74249 -2.06749,8.17874 0.0125,10.13624 1.66,1.56 6.98,2.57499 10.2,1.95749 0.75,-0.14375 1.38625,-0.31749 1.92749,-0.43499 2.9725,-0.64375 1.8425,1.82124 1.13125,3.50124 -4.24499,10.02124 -20.27498,17.91749 -22.45373,18.86874 -0.83375,0.36375 -1.7,0.71625 -2.61375,1.05875 -0.88124,0.33125 -1.85499,0.68374 -2.86374,1.04624 -14.52124,5.202495 -13.56749,5.891245 -8.5175,5.914995 7.04375,0.0337 11.84874,-0.31 16.28124,-1.82125 13.90124,-4.738735 22.05373,-14.977485 24.17123,-28.122475 0.01,-0.0613 0.0188,-0.12 0.0288,-0.17624 0.28125,-1.75125 0.4325,-1.3925 2.0825,-2.04125 1.04875,-0.4125 2.37375,-0.94 3.52625,-1.4175 10.17874,-4.21 4.62249,-18.02874 1.36624,-24.11248 -1.04374,-1.95125 -1.52374,-2.725 -2.46749,-0.35625 -1.7825,4.47124 -1.65,4.80124 -0.14625,7.25874 2.90249,4.7425 4.63749,8.93374 -1.55125,10.74249 z m -37.07622,-48.54621 -0.11875,0 c -0.1075,0 -0.215,-0.0675 -1.06875,-0.6775 -4.2975,-3.0662402 -6.75999,-3.5887402 -4.2475,-5.7437402 0.545,-0.46625 0.9875,-0.83625 1.36625,-1.12375 6.60125,-4.99625 5.42375,4.6637502 4.76875,6.2037502 -0.0362,0.0863 -0.075,0.17625 -0.115,0.27 -0.41875,0.96374 -0.4775,1.07124 -0.585,1.07124 z m -31.41497,30.45873 c 0,0 0.19,-0.0263 0.29875,0 0.165,0.0412 0.1175,0.30125 0.165,0.4325 0.0675,0.19 0.415,0.14 0.76374,0.0625 1.4425,-0.32375 2.90625,-1.1425 4.3775,-1.94625 8.19999,-4.48 13.96249,-7.99749 20.13623,-15.36749 0.95375,-1.13875 1.6975,-2.20125 3.07625,-3.78624 1.2925,-1.485 3.14375,-3.43125 3.14375,-3.43125 0,0 1.1375,1.43 2.0325,2.65625 2.97749,4.08499 2.74374,4.83499 2.97624,7.60999 0.61125,7.29249 2.80125,14.08374 11.43624,13.24499 3.14375,-0.30625 4.50125,-2.4475 4.06875,-5.5225 -0.46375,-3.30249 -2.80125,-7.42624 -5.32749,-8.42499 -0.8225,-0.325 -2.095,-0.71625 -2.7125,-0.75625 -0.61875,-0.0425 -1.4325,0 -1.4325,0 l 0,4.58 c 0,0 2.16375,0.385 3.28375,0.795 1.325,0.48375 2.06749,1.635 2.73749,3.03499 0.24625,0.51625 0.39625,0.88625 0.24875,1.145 -0.21875,0.38875 -3.83249,0.38875 -4.97999,0 -4.26875,-1.44375 -4.4975,-6.35749 -5.865,-12.27624 -0.56375,-2.43249 -1.2875,-5.16999 -2.14499,-6.53624 -1.0225,-1.63125 -2.595,-2.82875 -2.83625,-4.18125 -0.11875,-0.66625 0.31875,-1.7975 0.76375,-3.06124 1.0475,-2.9800002 1.31625,-9.1800002 -1.44625,-11.46874019 -1.57875,-1.3075 -3.7825,-1.24875 -6.425,0.24998999 -5.06499,2.24 -6.24749,8.81125 -2.40874,12.6837402 1.64624,1.66 4.97874,4.07875 4.97874,4.07875 0,0 -4.88249,6.40875 -9.49749,10.65749 -3.2125,2.95625 -14.39999,8.91999 -18.29374,12.33624 -0.54874,0.48125 -1.03249,0.8725 -1.11749,1.495 -0.08,0.59 0,1.69625 0,1.69625 z M 32.14872,7.4246548 c 0.1375,0.34875 0.0625,0.98125 0,1.49875 -0.13625,1.1462502 -0.3,1.7512502 -0.77625,1.8875002 -0.565,0.1625 -5.77374,-2.3050002 -6.09249,-2.8850002 -0.3625,-0.6625 0.92875,-2.06625 2.485,-2.49 1.73,-0.4725 3.65749,0.14 4.38374,1.98875 z m -0.90125,9.7199902 c 0,0 0.8275,0.84125 1.34875,1.72875 0.59125,1.005 0.4575,3.735 0.60625,6.03124 0.32125,4.96375 3.88375,6.9875 8.40624,5.5475 1.8925,-0.6025 3.67625,-1.61375 4.27625,-2.62 0.12625,-0.21 0.225,-0.4675 0.3,-0.7625 0.8275,-3.25124 0.165,-6.49624 -3.105,-7.70999 -0.04,-0.015 -0.08,-0.03 -0.12,-0.0437 -2.62749,-0.9375 -3.48624,-1.36125 -4.13749,1.495 -0.745,3.26375 -0.6775,2.475 2.61499,3.18 0.4175,0.09 0.78,0.21625 1.00125,0.41875 0.6625,0.60749 -0.185,0.82374 -1.32624,1.10749 -3.5225,0.87375 -6.33875,0.41 -6.0025,-3.73124 0.009,-0.11 0.0175,-0.225 0.025,-0.34375 0.1,-1.52375 -0.745,-5.8825 -1.3125,-6.7725 -0.185,-0.29 -0.385,-0.5175 -0.47875,-0.8125 -0.3775,-1.17874 0.91125,-3.43874 1.19375,-5.2562402 0.52125,-3.34625 -0.5525,-5.49 -2.6875,-7.495 -2.05625,-1.93123999 -6.09624,-1.29998999 -8.21249,1.6425 -0.81125,1.1275 -1.6175,5.6725 -1.2425,7.23 0.73375,3.0424902 2.39125,2.9450002 5.275,3.9687402 1.30125,0.46125 0.80875,1.5175 -0.21625,2.6075 -5.06875,5.39125 -13.59249,10.97249 -20.2139862,14.06874 -0.72075,0.33625 -1.473499,0.6775 -2.261373,1.0225 -2.271998,1.88375 -3.732872,3.7225 0.494999,3.00875 5.5287502,-0.93375 18.8278602,-9.445 22.5766102,-13.62749 1.48,-1.65 3.19749,-3.8825 3.19749,-3.8825 z" />
</svg>
