<?xml version="1.0" encoding="UTF-8" standalone="yes"?>
<svg xmlns="http://www.w3.org/2000/svg" xmlns:xlink="http://www.w3.org/1999/xlink"
  width="595.276pt" height="841.89pt" viewBox="0 0 595.276 841.89">
  <path
    style="stroke:none; fill:#000000"
    d="m 119.8672,48.017156 0.69875,-0.0125 c 0.31375,-0.005 0.3975,-0.19625 0.84125,-1.91 2.55375,-9.86 3.02,-15.30375 -3.26125,-21.62625 -1.035,-1.04125 -2.24,-1.915 -3.01625,-0.9825 -0.5275,0.63375 -1.065,5.10375 -0.825,6.08 0.42,1.70625 1.665,2.26 3.1025,3.42 3.2475,2.6175 4.06125,4.58125 3.6475,8.0675 -0.31625,2.67625 -1.1875,6.96375 -1.1875,6.96375 z m 34.20581,-18.000343 -6.10093,6.06093 c -1.0137,1.00745 -1.15869,1.18869 -1.44242,1.80866 -0.39748,0.8687 -0.53498,2.32113 -0.33874,2.51862 0.63122,0.63746 2.8661,-0.90996 3.64356,-1.48368 6.81089,-5.02348 9.91323,-8.18706 11.01442,-14.69047 0.55997,-3.30608 -1.18994,-4.58601 -4.28852,-5.00724 -4.91349,-0.66996 -9.78949,0.015 -11.69939,3.71481 0.29874,14.1255 0.71747,6.04718 4.88475,5.04473 4.636,-1.11494 9.62074,-3.59356 4.32727,2.03364 z m -110.953036,-18.99585 -6.10093,6.06093 c -1.0137,1.00745 -1.15869,1.18869 -1.44242,1.80866 -0.39748,0.8687 -0.53498,2.32113 -0.33874,2.51862 0.63122,0.63746 2.8661,-0.90996 3.64356,-1.48368 6.81089,-5.02348 9.91323,-8.18706 11.01442,-14.6904699 0.55997,-3.3060801 -1.18994,-4.58601013 -4.28852,-5.00724013 -4.91349,-0.66996 -9.78949,0.015 -11.69939,3.71481013 0.29874,14.1254999 0.71747,6.04718 4.88475,5.04473 4.636,-1.11494 9.62074,-3.59356 4.32727,2.0336399 z m 55.01857,9.245897 -0.175,-4.00375 c -0.0713,-1.61875 -0.0475,-1.90875 0.23375,-2.899999 0.20875,-0.73625 0.42875,-1.54 0.98625,-2.05875 1.359996,-1.26375 4.727496,-0.82625 6.288746,-1.8674999 2.24875,-1.4975 2.25,-6.645 0.52,-8.73125003 -1.83375,-2.21124987 -5.5425,1.30125003 -7.062496,3.31125003 -0.9325,1.235 -1.81625,2.65 -2.21375,4.30125 -0.185,0.765 -0.28625,1.63375 -0.43,2.3949999 l -0.70625,3.723749 -2.32987,-2.964999 c -3.18925,-4.1999999 -2.21663,-5.4474999 -6.903,-6.5899999 -1.57013,-0.3825 -4.97525,-0.24 -5.62975,1.52875 -0.51213,1.3825 0.69025,4.7474999 1.44337,5.5462499 0.57913,0.61375 2.92425,2.138749 3.893,2.232499 1.58288,0.1525 4.81725,-0.811249 4.81725,-0.811249 0,0 2.61038,3.757499 4.20525,5.521249 0.695,0.77 1.27125,1.39 2.1625,1.4075 0.36875,0.0062 0.9,-0.04 0.9,-0.04 z m -9.4535,22.663751 c -0.0515,-1.39625 -0.209,-3.14875 -0.66762,-3.58875 -0.26588,-0.25625 -0.63288,-0.07125 -0.86313,-0.20875 -1.03537,-0.62125 0.72588,-3.185 1.56513,-4.165 7.61787,-8.892501 27.360366,-19.932501 37.791616,-22.2175 0.995,-0.2175 1.9875,-0.3925 2.17625,-0.05625 0.0925,0.1675 -0.0125,0.46125 -0.1725,0.7925 -0.3775,0.779999 -0.98,1.722499 -1.65,2.733749 -13.89125,20.977501 8.02125,-8.1337489 14.23875,-8.9524989 0.56875,-0.28 1.1025,-0.50625 1.57625,-0.65625 2.41875,-0.76125 5.04,-0.9225 5.3575,-3.2425 0.045,-0.325 0.0512,-0.73125 0.04,-1.12375 -0.105,-3.7999999 -6.305,-1.98250003 -10.675,-0.32 -4.045,1.5375 -10.05,4.0725 -16.42,7.02 -8.2425,3.8137499 -32.920866,15.2599989 -36.393496,25.2024999 -1.119,3.20375 -0.911,6.79375 1.31975,9.88125 0.0956,0.1325 0.1825,0.2525 0.26175,0.36 -1.007,-1.3675 2.73,4.3825 2.51475,-1.45875 z M 4.5164539,33.128218 c -2.19132,-0.92138 -4.12675003,-4.601609 -4.43418003,-8.431605 -0.52008,-6.479114 1.40625003,-12.099626 6.32869003,-18.4653379 1.4499,-1.87501 3.09556,-4.0667831 3.6570201,-4.8706001 2.11261,-3.0245156 1.45359,-0.74110803 -1.2202901,4.2281211 -4.88495,9.0783529 -6.3231,17.5293159 -3.38756,19.9063659 1.38203,1.1191 4.8689001,0.887434 7.0390301,-0.467674 0.97314,-0.607661 1.25599,-0.623468 1.30386,-0.07286 0.25387,2.919774 -0.88224,6.864255 -2.17658,7.556902 -1.49062,0.797681 -5.7922101,1.170781 -7.1099901,0.616691 z M 136.03782,50.56173 c -1.05532,-1.142773 -2.72164,-2.956872 -3.70292,-4.03134 l -1.78416,-1.953572 3.72251,-3.684686 3.72251,-3.684685 4.0407,3.705127 4.0407,3.705127 -4.06029,4.010899 -4.06029,4.010901 -1.91876,-2.077771 z m -88.218226,44.990381 -4.03302,-3.714312 4.08622,-4.04429 4.08622,-4.04429 2.37696,2.83901 2.37696,2.83902 2.83249,-2.7973 2.83248,-2.7973 4.01895,4.04595 4.01894,4.04594 -4.08426,3.655402 -4.08426,3.65539 -2.71188,-2.76035 -2.71188,-2.76034 -2.48545,2.77589 -2.48546,2.7759 -4.03301,-3.71432 z m 27.22391,5.388189 c -0.49432,-0.79983 0.77613,-4.469449 2.02137,-5.838599 0.57759,-0.63507 2.34893,-1.71693 3.93632,-2.404142 4.39957,-1.90468 8.213,-3.79917 10.24208,-5.08822 2.59805,-1.65053 3.24206,-0.79082 2.06416,2.75551 -0.50579,1.52279 -1.21668,3.008212 -1.57975,3.300932 -0.36307,0.29273 -2.61124,1.33959 -4.99593,2.32637 -2.38469,0.98676 -5.57862,2.63048 -7.09763,3.6527 -2.87147,1.932349 -4.00014,2.250859 -4.59062,1.295449 z m -3.2612,-90.903179 c -2.48578,0.152097 -6.39817,2.606677 -10.96875,6.90625 -3.21356,3.023014 -5.17954,6.512235 -6.4375,11.46875 -1.47793,5.823242 -1.43312,8.717916 0.125,11.46875 1.51572,2.675973 3.7827,4.075264 7.34375,4.5 3.44521,0.410912 5.83404,1.30252 5.59375,2.09375 -0.36763,1.21054 -5.22764,3.01427 -12.875,4.75 -4.27639,0.97062 -8.61864,1.69285 -9.65625,1.59375 -1.77767,-0.16979 -1.91188,-0.34549 -2.25,-2.6875 -0.83135,-5.758388 -3.25871,-11.051929 -7.5625,-16.4375 -3.38411,-4.234711 -5.66482,-2.668623 -6.5,4.4375 -0.39291,3.343068 0.63798,6.168939 2.46875,6.75 0.95749,0.303899 2.16944,1.82353 4.6875,5.9375 0.91389,1.49309 0.92663,1.53125 -0.375,1.53125 -4.35633,0 -9.82447,-3.88256 -12.46875,-8.84375 -2.18001,-4.090113 -2.78732,-10.096808 -1.75,-17.6875 0.37782,-2.764598 0.55248,-5.166277 0.375,-5.34375 -0.17748,-0.177478 -0.71762,0.62669 -1.1875,1.8125 -0.46986,1.18581 -1.33262,3.289251 -1.9375,4.65625 -1.59013,3.593658 -2.71752,9.388087 -3.09375,15.8125 -0.3205,5.472927 -0.28633,5.71711 1.4375,9.40625 0.97165,2.07938 2.43277,4.48003 3.25,5.34375 2.75597,2.91273 9.98305,5.8401 14.46875,5.875 3.68112,0.02859 3.78441,0.55549 1.34375,5.5625 -2.79958,5.74337 -6.05533,9.15122 -11.25,11.75 -7.401,3.70257 -12.61072,2.39437 -16.0312501,-4.03125 -1.85181,-3.47871 -1.93913,-3.81504 -2.15625,-10.90625 -0.12325,-4.02506 -0.40503,-7.34375 -0.625,-7.34375 -1.33163,0 -4.07925,15.17788 -3.71875,20.5 0.43468,6.41707 3.80784,11.955638 8.9062501,14.625 2.90269,1.51976 3.07952,1.56476 5.9375,0.84375 5.9035,-1.489352 12.66225,-5.64344 17.1875,-10.53125 3.62804,-3.91871 4.41031,-5.24144 5.375,-9.34375 l 0.6875,-2.96875 2.5625,2.8125 c 2.90632,3.19638 7.22716,5.51821 11.03125,5.96875 3.1339,0.37117 8.54514,-0.66196 9.5,-1.8125 0.37885,-0.45648 1.78779,-1.46635 3.125,-2.25 l 2.4375,-1.40625 2.375,2.3125 c 2.8807,2.82716 5.43418,3.53407 10.03125,2.78125 4.71386,-0.772 20.093746,-0.69812 20.093746,0.09375 0,0.34367 -0.73197,2.75684 -1.624996,5.375 -0.89303,2.61817 -1.7769,6.271088 -1.96875,8.09375 -0.30905,2.9361 -0.16184,3.65233 1.21875,6.34375 1.093076,2.130909 2.112716,3.322579 3.468746,3.999999 1.2031,0.60101 3.22303,0.96822 5.3125,0.96875 2.82613,7.2e-4 3.74526,-0.25612 5.90625,-1.6875 2.72654,-1.80599 6.26572,-6.016509 10.5,-12.468749 7.29354,-9.640181 22.76893,-19.525652 30.5,-19.84375 2.44246,-0.04277 4.98334,-0.37534 5.625,-0.71875 1.46018,-0.78146 3.46875,-4.85918 3.46875,-7.03125 0,-0.89972 -0.40513,-2.22206 -0.90625,-2.9375 -0.85654,-1.22289 -1.1473,-1.27554 -5.09375,-1 -2.30882,0.1612 -5.53604,0.78725 -7.15625,1.40625 -9.71216,3.71048 -24.31541,15.248068 -29.0625,23.78125 -4.75181,8.541676 -13.62939,12.55411 -17.40625,7.25 -1.87707,-2.979503 -0.97265,-8.331071 1.21875,-10.875 0.39904,-0.39905 2.74661,-1.06842 5.21875,-1.5 5.85723,-1.02253 8.79191,-2.75865 11.0625,-6.53125 2.21519,-3.68055 2.74696,-5.08195 3.5,-9.40625 0.72344,-4.15427 0.31206,-5.50236 -2.59375,-8.71875 -1.87661,-2.07718 -6.49117,-4.9375 -7.9375,-4.9375 -0.32363,0 -1.47754,-0.40862 -2.59375,-0.875 l -2.03125,-0.84375 1.875,-1.15625 1.90625,-1.125 -1.8125,-1.46875 c -0.99372,-0.800156 -3.37715,-2.881349 -5.28125,-4.625 -5.58403,-5.113485 -7.617376,-4.834608 -9.374996,1.3125 -1.12152,3.922372 -1.14231,5.10266 0,8.09375 l 0.9375,2.40625 -3.90625,3.96875 c -3.9034,3.97203 -5.82784,7.01429 -7.0625,11.15625 l -0.65625,2.1875 -4.09375,0.1875 c -2.2458,0.0958 -5.00312,-0.10686 -6.125,-0.4375 l -2.03125,-0.59375 0.0937,-3.09375 c 0.0693,-2.01869 -0.12716,-3.19057 -0.5625,-3.34375 -0.36826,-0.12957 -1.85809,0.9725 -3.3125,2.46875 -3.67943,3.78529 -5.64792,4.69831 -10.90625,4.96875 -4.24126,0.21813 -4.58632,0.12813 -8.5625,-1.90625 -4.84218,-2.47745 -5.51018,-3.73055 -2.375,-4.46875 8.81532,-2.07563 10.69553,-2.63849 13.03125,-3.8125 8.819,-4.4327 13.55945,-9.281878 15.5625,-15.9375 0.64563,-2.14525 0.60141,-2.570801 -0.34375,-4.125 -1.30396,-2.144196 -5.12765,-3.878157 -11.53125,-5.21875 -5.53204,-1.158133 -7.71875,-2.165211 -7.71875,-3.5625 0,-1.237414 7.85112,-8.34375 9.21875,-8.34375 0.26758,0 1.46457,0.486195 2.65625,1.09375 4.24339,2.163406 6.53235,1.052403 7.28125,-3.5625 0.44207,-2.724151 -2.14928,-8.332316 -4.0625,-8.8125 -0.29367,-0.07371 -0.61364,-0.115478 -0.96875,-0.09375 z m 43.465546,57.675158 c -1.75562,0.33588 -5.02762,0.76257 -7.27112,0.9482 -3.80371,0.31471 -4.04968,0.26948 -3.64336,-0.66988 0.23966,-0.55406 0.5499,-2.68506 0.68941,-4.73556 0.25114,-3.69108 0.26964,-3.72818 1.86209,-3.72818 3.0731,0 12.66153,5.78432 11.82694,7.13472 -0.14957,0.24201 -1.70835,0.71482 -3.46396,1.0507 z m -17.414346,-1.55149 c -2.17897,1.32855 -3.90197,1.39822 -5.09419,0.206 -1.16871,-1.1687 -0.88023,-1.87537 1.39477,-3.4166 1.30644,-0.88507 2.29883,-1.16547 3.26582,-0.92277 2.744686,0.68887 2.945376,2.60191 0.4336,4.13337 z"/>
</svg>