<?xml version="1.0" encoding="UTF-8" standalone="no"?>
<svg>
  <path
     style="fill:#000000;stroke:none"
     d="m 23.054163,64.880914 0.60125,-0.0113 c 0.27125,-0.005 0.34375,-0.17 0.72625,-1.6475 2.20125,-8.49626 2.6025,-13.18877 -2.81125,-18.63752 -0.89125,-0.8975 -1.93,-1.65 -2.6,-0.84625 -0.45375,0.54625 -0.9175,4.39875 -0.71,5.23875 0.3625,1.47126 1.435,1.94876 2.67375,2.94751 2.79875,2.25625 3.5,3.94875 3.14375,6.95375 -0.27375,2.30625 -1.02375,6.00251 -1.02375,6.00251 z m 46.61379,-13.61626 0.6025,-0.0112 c 0.27125,-0.005 0.34375,-0.16875 0.72625,-1.64626 2.2,-8.4975 2.6025,-13.18876 -2.81125,-18.63876 -0.89251,-0.8975 -1.93126,-1.65 -2.60001,-0.84625 -0.45375,0.54625 -0.9175,4.39875 -0.71125,5.24 0.3625,1.47125 1.435,1.94875 2.675,2.94751 2.79751,2.255 3.49876,3.94875 3.14376,6.95375 -0.27375,2.305 -1.025,6.00126 -1.025,6.00126 z m -23.08627,-9.52501 c -0.0437,-1.2025 -0.17875,-2.71375 -0.575,-3.0925 -0.22875,-0.22125 -0.545,-0.0612 -0.74375,-0.18 -0.8925,-0.53626 0.62625,-2.74501 1.34875,-3.58876 6.56625,-7.665 23.58002,-17.18001 32.57002,-19.14751 0.8575,-0.18875 1.71376,-0.34 1.87501,-0.05 0.0813,0.145 -0.01,0.3975 -0.14875,0.68375 -0.325,0.67125 -0.84376,1.485 -1.42126,2.35625 -11.97251,18.07876 6.91251,-7.01126 12.27126,-7.71501 0.49,-0.2425 0.95001,-0.4375 1.35876,-0.56625 2.085,-0.65625 4.34375,-0.795 4.6175,-2.795 0.0387,-0.28 0.0438,-0.63 0.0337,-0.96875 -0.09,-3.27375 -5.43376,-1.7075 -9.20001,-0.275 -3.485,1.325 -8.66126,3.51 -14.15126,6.05 -7.10376,3.28626 -28.37127,13.15127 -31.36502,21.72002 -0.96376,2.76125 -0.78501,5.85501 1.1375,8.51626 0.0825,0.11375 0.1575,0.2175 0.22625,0.31 -0.8675,-1.17875 2.3525,3.7775 2.16625,-1.2575 z m -12.41001,-24.27252 -0.15,-3.45125 c -0.0613,-1.39501 -0.0412,-1.64501 0.20125,-2.49876 0.18,-0.635 0.36875,-1.3275 0.85,-1.775 1.1725,-1.08875 4.075,-0.7125 5.42,-1.60875 1.9375,-1.29125 1.93875,-5.7275 0.4475,-7.52501007 -1.58,-1.90624993 -4.77625,1.12126007 -6.08625,2.85376007 -0.80375,1.06375 -1.565,2.28375 -1.90875,3.70625 -0.15875,0.66 -0.24625,1.40875 -0.37,2.06375 l -0.60875,3.21 -2.00751,-2.555 c -2.74875,-3.62 -1.91,-4.695 -5.94875,-5.68 -1.35375,-0.33 -4.28875,-0.20625 -4.8525,1.3175 -0.44125,1.1925 0.595,4.09125 1.24375,4.78 0.5,0.52875 2.52125,1.8425 3.355,1.92375 1.365,0.13125 4.1525,-0.69875 4.1525,-0.69875 0,0 2.24875,3.23751 3.62376,4.75876 0.59875,0.66375 1.095,1.1975 1.86375,1.2125 0.3175,0.006 0.775,-0.0337 0.775,-0.0337 z m -9.61126,19.53126 c -0.0437,-1.2025 -0.18,-2.71375 -0.575,-3.0925 -0.22875,-0.22125 -0.545,-0.0612 -0.74375,-0.18 -0.8925,-0.535 0.625,-2.745 1.34875,-3.58875 6.56501,-7.66376 23.58002,-17.18002 32.57003,-19.14752 0.85625,-0.1875 1.7125,-0.34 1.875,-0.05 0.08,0.145 -0.0112,0.3975 -0.14875,0.68375 -0.325,0.67125 -0.845,1.48501 -1.42125,2.35626 -11.97251,18.07876 6.9125,-7.01001 12.27126,-7.71501 0.49,-0.2425 0.95,-0.4375 1.3575,-0.56625 2.08625,-0.65625 4.34375,-0.795 4.61875,-2.795 0.0375,-0.28 0.0437,-0.62875 0.0337,-0.96875 -0.0913,-3.27376 -5.435,-1.70751007 -9.20001,-0.275 -3.48625,1.325 -8.66125,3.51 -14.15126,6.05 -7.10375,3.28625 -28.37252,13.15126 -31.36502,21.72002 -0.96375,2.76125 -0.785,5.855 1.1375,8.51625 0.0825,0.11376 0.1575,0.21751 0.225,0.31001 -0.8675,-1.17876 2.35375,3.7775 2.1675,-1.25751 z m 92.660067,61.9213 c 0.20375,2.818756 1.51876,4.572506 3.91126,5.078756 3.0875,0.6525 4.8325,-1.02125 5.62375,-4.407506 0.17375,-0.7425 0.13375,-1.3625 -0.34375,-1.66125 -0.90875,-0.5675 -3.40625,0.0225 -4.61375,-0.61875 -1.5025,-0.7975 -1.88375,-4.19 -1.5125,-5.775 0.3725,-1.58625 1.32,-3.28625 1.5775,-4.51001 0.0525,-0.2475 0.0762,-0.475 -0.0312,-0.6025 -0.0138,-0.0163 -0.0275,-0.0312 -0.0412,-0.045 -3.6325,-0.82875 -4.51501,13.30251 -4.57001,12.54126 z m -97.063817,0.265 4.9525,4.952506 7.24626,-7.247506 -7.24626,-7.24625 -4.9525,4.95125 -4.95126,-4.95125 -7.2475003,7.24625 7.2475003,7.247506 4.95126,-4.952506 z m 105.646327,-62.80755 -7.2475,7.24626 7.2475,7.24751 7.24751,-7.24751 -7.24751,-7.24626 z m -107.016327,49.06254 1.43125,-0.0625 c 1.655,-0.0725 12.01501,-0.10125 13.21626,-0.295 2.2075,-0.3575 8.4575,-3.33875 9.18375,-4.71375 0.21625,-0.40875 0.32001,-0.62125 1.03126,-2.11875 2.2325,-4.69376 6.19375,-12.76751 6.19,-14.30376 -0.002,-0.78625 -1.72625,-6.12751 -3.4675,-9.06126 -1.3025,-2.19625 -3.86376,-5.52501 -3.86376,-5.52501 0,0 -2.05,4.17626 -3.14625,6.75251 -2.56375,6.025 0.78875,5.06375 3.94001,12.84876 0.9675,2.3925 0.27,2.79375 -1.99126,3.65 -5.4525,2.06375 -19.49376,3.05626 -24.30627,0.6975 -3.53875,-1.735 -4.01125,-3.17875 -5.67375,-7.1975 -0.35125,-0.8475 -0.74375,-1.7225 -0.885,-2.6475 -0.19125,-1.24501 -0.22625,-1.56751 -0.3475,-3.21876 L 5.6804027,0.02210393 c 0,0 -1.43126,-0.0875 -2.04751,0.09 -0.41875,0.12 -0.46125,0.3625 -0.5875,0.70626 -0.3175,0.86875007 -1.165,2.38000007 -1.65625,3.75250007 -0.37125,1.035 -0.53999997,1.99125 -0.85249997,2.92125 -0.0937,0.28125 -0.20125,0.56 -0.37,0.805 -0.22625,0.33 -0.22375,0.54875 0.0175,2.1875 0,0 0.95874997,6.51251 1.83874997,12.49251 0.14,0.95125 0.27125,1.8375 0.395,2.66626 0.33125,2.2275 1.40875,16.03001 1.525,19.68001 0.0575,1.81375 0.15,4.05625 0.2875,6.83251 0.255,5.16375 0.66125,11.22751 1.34501,16.52501 1.41625,10.98626 3.59375,17.17876 13.2112603,16.75876 z m 81.21006,-26.09002 c 0.642497,0.95625 1.044997,1.5475 1.044997,1.5475 0,0 -1.748747,1.16375 -4.051247,2.16251 -1.2775,0.555 -13.61001,3.02625 -18.05752,1.24625 -2.30375,-0.92125 -4.73125,-2.20126 -5.55375,-2.75001 -1.0925,-0.72875 -1.9325,-1.47375 -2.7175,-2.6975 -1.39875,-2.1825 -1.61625,-3.06 -2.99376,-2.8425 -0.32875,0.0525 -0.45,0.2225 -1.21125,1.6975 -3.18625,6.16626 -3.96,7.50501 -1.71875,11.37126 0.21625,0.37375 6.02501,11.04001 5.16876,12.88251 -0.17125,0.36875 -0.55125,0.70875 -1.00125,1.04125 -15.08502,11.16751 -28.35753,17.845016 -46.67129,23.341266 -6.99376,2.1 -10.63501,0.96875 6.2575,5.1525 5.41251,1.34126 8.24251,0.83125 15.50252,-2.6675 5.21875,-2.51375 20.45626,-11.397506 24.65252,-16.760006 2.19625,-2.80625 3.7,-5.72251 4.14625,-9.10501 0.355,-2.68375 0.49625,-6.8675 0.51375,-7.4375 2.62125,2.07375 15.95001,0.0188 16.00626,0.005 4.74251,-1.10876 9.88751,-2.67501 11.623757,-5.48126 1.13,-1.8275 1.4925,-4.5275 2.55875,-6.77125 1.80876,-3.80751 3.16251,-6.19501 1.66251,-10.16501 -0.80251,-2.1225 -2.68501,-4.57876 -4.53376,-6.98876 l -0.23375,0.1175 c -0.0962,-0.21375 -0.18,-0.4225 -0.25125,-0.6275 -0.177497,-0.50375 -0.277497,-0.98 -0.0538,-1.22625 0.85125,-0.94 3.025,0.935 4.255,1.3875 2.75751,1.01625 6.50126,-0.9275 7.34876,-2.91375 0.30125,-0.7075 0.3475,-1.43 0.0275,-2.53125 -0.8775,-3.02126 -2.875,-8.36626 4.99625,-5.93501 1.71501,0.52875 2.40501,1.10375 -0.38625,-1.66375 -1.4325,-1.41875 -2.83,-2.13 -4.24625,-2.30875 -5.725,-0.72375 -10.69751,4.60375 -8.39126,8.67251 0.21,0.37125 0.395,0.74875 0.51375,1.12 0.135,0.425 0.18625,0.84375 0.04,0.92 -0.1175,0.0612 -0.3625,-0.0987 -0.62625,-0.28 -0.5025,-0.3425 -1.0975,-0.805 -1.70625,-1.3275 0.4625,0.39625 -8.238747,-9.22751 -8.701247,-9.62376 0,0 5.17375,-4.04625 9.118747,-6.67001 4.13626,-2.75125 18.47377,-9.8825 22.87877,-11.18376 2.76125,-0.815 7.50501,-1.565 5.70251,3.00126 -1.06751,2.70375 -3.71126,6.7925 -4.10626,8.2075 -0.12625,0.4475 -0.14625,0.79875 0.04,0.92 0.4925,0.3225 1.75875,-0.68875 2.48125,-1.47 3.73001,-4.035 5.22626,-12.35251 6.47001,-18.57626 0.4275,-2.1375 -0.16875,-3.49751007 -4.675,-4.09501007 -5.97751,-0.7925 -23.99502,9.21251007 -28.76128,12.00501007 -9.519997,5.57751 -14.692507,8.62876 -15.807507,17.77752 -0.0925,0.75875 -0.11625,1.43375 -0.085,2.0775 0.21375,4.525 9.79626,21.88752 13.53126,27.44502 z m -17.50501,34.86753 c 3.9525,9.098756 12.99126,14.651256 21.583757,4.4275 2.86626,-3.41125 4.20376,-7.24125 6.54376,-11.60001 2.0175,-3.75625 10.09126,-14.56626 15.13126,-16.70626 2.39,-1.01375 5.33751,-0.9325 7.15501,-2.01 0.93,-0.55 2.845,-4.705 3.4825,-7.55626 0.0712,-0.31625 0.1325,-0.64 0.18,-0.9575 0.69375,-4.6475 -4.7825,-3.045 -7.38126,-1.86375 -4.96625,2.25625 -9.62125,6.94751 -13.00501,11.27001 -10.78625,13.77626 -7.58375,16.24501 -18.836257,24.54627 -3.83375,2.82875 -7.15376,2.985 -10.72376,-0.6275 -0.6525,-0.66125 -1.3,-1.65625 -1.8525,-2.7875 -4.135,-8.45626 2.33875,-24.41627 2.12,-23.24877 0.30875,-1.6475 0.5175,-2.7675 0.5175,-2.7675 0,0 -0.4075,0.15125 -0.77,0.345 -0.93,0.49625 -1.655,1.93125 -2.3125,3.35125 -2.46625,5.3275 -5.91876,16.78126 -1.8325,26.18502 z" />
</svg>
