<?xml version="1.0" encoding="UTF-8" standalone="yes"?>
<svg>
  <path
    style="stroke:none; fill:#000000"
    d="m 50.015395,12.992523 c -0.818,1.129 -1.119,2.636 0.333,2.691 0,0 0.028,-0.017 0.396,-0.24 5.176,-3.139 5.075,-3.151 10.293,-6.0230001 4.151,-2.285 9.894,-5.655 10.175,-8.32 -0.03,-1.85100005 -2.484,-0.99400005 -4.211,-0.12500005 -1.704,0.85800005 -16.238,10.98500015 -16.986,12.01700015 z m -23.227,18.644 -4.881,4.849 c -0.811,0.806 -0.926,0.95 -1.154,1.447 -0.317,0.695 -0.427,1.857 -0.271,2.014 0.506,0.511 2.293,-0.728 2.915,-1.187 5.449,-4.018 7.931,-6.549 8.813,-11.753 0.447,-2.645 -0.953,-3.668 -3.431,-4.006 -3.932,-0.535 -7.833,0.012 -9.36,2.972 0.238,11.302 0.574,4.839 3.908,4.037 3.709,-0.893 7.697,-2.875 3.461,1.627 z m 11.033,-15.58 -0.454,-8.6510001 c -0.067,-1.283 -0.094,-1.506 -0.265,-2.233 -0.524,-2.229 -1.935,-3.449 -3.41,-4.23700005 -1.876,-1.002 -3.308,-1.374 -5.241,0.036 -1.59,1.16000005 -1.739,5.36000005 -1.115,6.01600005 0.467,0.49 1.702,0.446 3.197,0.095 3.735,-0.877 4.109,-0.675 5.082,3.2750001 0.463,1.876 0.517,3.635 0.29,5.523 -0.483,4.008 -1.618,5.958 0.606,8.311 0.925,0.98 1.892,1.128 4.003,0.693 1.499,-0.309 1.797,-1.005 2.426,-3.082 0.442,-1.462 0.793,-2.772 0.679,-4.23 -0.225,-2.892 -3.352,-8.3280001 0.417,-9.6780001 0.696,-0.25 1.6,-0.087 2.379,0.083 1.051,0.229 1.23,0.125 1.783,-1.038 0.456,-0.957 0.983,-1.837 1.272,-2.867 1.088,-3.86400005 -0.577,-4.95500005 -3.918,-3.37200005 -3.832,1.81600005 -5.554,9.59600015 -4.735,14.81200015 0.25099,2.15 0.52499,4.086 0.52499,4.086 0,0 -0.22899,-0.003 -0.502,-0.029 -1.07299,-0.106 -2.916,-1.53 -3.019,-3.513 z m -24.843,29.744 0.559,-0.01 c 0.251,-0.004 0.318,-0.157 0.674,-1.528 2.043,-7.888 2.416,-12.243 -2.61,-17.301 -0.828,-0.833 -1.792,-1.532 -2.413,-0.786 -0.422,0.507 -0.852,4.083 -0.66,4.863 0.336,1.366 1.332,1.809 2.482,2.736 2.598,2.095 3.249,3.666 2.919,6.455 -0.254,2.141 -0.951,5.571 -0.951,5.571 z m 96.436995,-25.858 0.559,-0.01 c 0.251,-0.005 0.318,-0.157 0.674,-1.529 2.043,-7.887 2.416,-12.2430001 -2.61,-17.3010001 -0.828,-0.83300005 -1.792,-1.53200005 -2.413,-0.78500005 -0.422,0.506 -0.852,4.08200005 -0.66,4.86300005 0.336,1.365 1.332,1.809 2.482,2.736 2.598,2.0940001 3.249,3.6650001 2.919,6.4550001 -0.254,2.14 -0.951,5.571 -0.951,5.571 z m -43.571995,14.061 -4.881,4.849 c -0.811,0.806 -0.926,0.95 -1.153,1.447 -0.318,0.694 -0.428,1.857 -0.272,2.014 0.506,0.511 2.293,-0.728 2.915,-1.187 5.449,-4.018 7.931,-6.549 8.813,-11.753 0.447,-2.645 -0.953,-3.668 -3.431,-4.006 -3.932,-0.535 -7.833,0.012 -9.36,2.972 0.238,11.301 0.574,4.839 3.908,4.037 3.709,-0.893 7.697,-2.875 3.461,1.627 z m -3.124,32.296 4.347,4.347 6.022,-6.022 -6.022,-6.021 -4.347,4.347 -4.347,-4.347 -6.021,6.021 6.021,6.022 4.347,-4.347 z m -5.815,10.477 c -11.633,3.79 1.581,1.134 4.808,1.104 0.348,-0.003 0.741,-0.007 1.163,-0.01 8.583,-0.08 11.504,-0.046 16.306,-2.24 7.21,-3.295 21.230995,-12.59 24.154995,-20.562 1.452,-3.957 3.53699,-10.709 3.737,-12.501 0.181,-1.632 0.318,-3.146 0.249,-4.726 -0.06,-1.371 -0.029,-1.532 0.312,-1.613 0.017,-0.004 0.033,-0.008 0.049,-0.012 2.607,0.1 2.6,-0.16 1.948,-0.979 -1.188,-1.493 -5.676,-8.863 -6.281,-10.672 -0.311,-0.928 -0.791,-1.647 -1.757,-1.279 -1.166,0.443 -2.524995,4.903 -2.827995,5.809 -0.435,1.301 -0.435,1.59 0,2.888 0,0 4.467995,13.343 4.467995,13.343 0.435,1.298 0.489,1.512 0.545,2.143 0.154,1.763 -0.641,2.608 -2.219,4.212 -1.048,1.066 -1.936995,1.997 -2.757995,2.843 -9.713,10.016 -30.403,18.508 -41.897,22.252 z m -56.23700001,-35.663 c 0.044,11.033 0.303,26.827 7.69800001,30.589 3.447,1.754 6.027,1.887 10.718,1.802 3.054,-0.056 26.113,-4.369 26.907,-5.033 1.147,-0.96 2.51,-3.177 3.123,-6.905 0.156,-0.947 0.252,-1.974 0.252,-1.974 0,0 -3.454,-0.022 -5.756,-0.151 -2.047,-0.115 -4.927,-1.025 -6.757,-2.134 -3.123,-1.894 -8.608,-5.51 -8.608,-5.51 0,0 3.554,-3.923 5.758,-5.792 1.54,-1.306 3.197,-2.089 4.06599,-1.18 0.801,0.838 0.954,3.219 1.61201,4.902 0.588,1.503 1.771,2.978 3.19,4.238 5.07,4.501 11.706,4.916 16.788,-0.435 l 1.871,-1.921 1.444,1.711 c 0.385,0.456 0.774,0.969 1.22699,1.336 2.18201,1.767 7.81701,0.328 11.161,-0.215 0.94901,-0.154 1.85801,-0.282 2.62901,-0.602 4.29399,-1.783 6.587,-7.158 7.225,-11.306 0.405,-2.628 0.417,-5.189 0.266,-6.64 -0.469,-4.504 -2.367,-8.723 -2.699,-13.102 -0.122,-1.606 -0.033,-3.233 0.155,-4.841 0.123,-1.054 0.022,-3.199 0.88,-2.624 0.041,0.028 0.082,0.055 0.122,0.081 2.808,1.002 2.972,0.782 2.389,-0.122 -2.019,-3.127 -2.247,-3.444 -2.517,-7.1190001 -0.122,-1.655 -0.105,-3.495 -0.269,-6.219 -0.014,-0.247 -0.037,-0.482 -0.069,-0.702 -0.152,-1.03000005 -0.598,-1.45200005 -1.79001,-1.15000005 -1.992,0.505 -5.59399,4.96300005 -5.084,7.06800005 0.23301,0.961 1.17501,1.848 1.669,2.9240001 0.217,0.472 0.31,1.291 0.34,2.269 0.2,6.726 1.38,23.141 2.58,29.982 0.02,0.114 0.04,0.227 0.059,0.341 0.521,3.06 0.478,3.744 -1.126,4.28 -4.918,1.645 -11.238,2.447 -13.343,-2.543 -0.683,-1.62 -1.227,-1.131 -2.274,0.003 -2.261,2.448 -6.457,4.72 -9.985,4.665 -2.68,-0.042 -7.292,-2.262 -8.823,-4.294 -0.543,-0.72 -2.365,-4.463 -2.144,-6.23 0.026,-0.206 0.071,-0.428 0.122,-0.651 1.058,-4.57 -3.01999,-2.674 -5.196,-1.123 -2.952,2.103 -5.889,5.556 -7.977,7.353 -2.546,2.19 -7.76,5.795 -10.463,6.064 -2.891,0.288 -3.815,-0.708 -5.938,0.605 -0.778,0.482 -2.826,4.953 -3.05,6.658 -0.132,1.008 -0.223,2.131 -0.223,2.131 0,0 1.632,0.162 2.838,0.074 1.672,-0.122 2.524,-0.727 3.573,-0.921 1.466,-0.27 4.163,0.284 5.702,1.006 0.905,0.425 4.919,2.558 5.042,3.13 0.107,0.502 -0.032,1.216 -0.032,1.216 l -8.324,0.21 c -1.368,0.035 -1.672,0.025 -3.041,-0.096 -4.092,-0.365 -7.789,-2.943 -9.545,-5.226 -0.854,-1.109 -1.906,-4.696 -2.095,-7.143 -0.526,-6.796 -0.13,-18.629 0.062,-23.34 l -0.154,-10.044 0.188,-2.92 c 0.114,-1.764 0.233,-4.039 0.277,-6.3130001 0.085,-4.526 -0.131,-9.04800005 -0.131,-9.04800005 0,0 -2.278,2.80200005 -3.568,4.40900005 -1.21000001,1.506 -1.60900001,2.42 -1.61900001093,3.71 C -0.01261501,10.136523 0.30638499,13.505523 0.53738499,15.686523 c 0.013,0.138 0.024,0.27 0.034,0.397 0.1,1.343 0.098,25.522 0.096,25.03 z m 94.61200001,-30.571 -6.022,6.021 6.022,6.022 6.021985,-6.022 -6.021985,-6.021 z"/>
</svg>