<?xml version="1.0" encoding="UTF-8" standalone="yes"?>
<svg xmlns="http://www.w3.org/2000/svg" xmlns:xlink="http://www.w3.org/1999/xlink"
  width="595.276pt" height="841.89pt" viewBox="0 0 595.276 841.89">
  <path
    style="stroke:none; fill:#000000"
    d="m 76.725171,20.26686 -0.175,-4.00375 c -0.0713,-1.61875 -0.0475,-1.90875 0.23375,-2.899999 0.20875,-0.73625 0.42875,-1.54 0.98625,-2.05875 1.36,-1.26375 4.7275,-0.82625 6.28875,-1.8674999 2.24875,-1.4975 2.25,-6.645 0.52,-8.73125003 -1.83375,-2.21124987 -5.5425,1.30125003 -7.0625,3.31125003 -0.9325,1.235 -1.81625,2.65 -2.21375,4.30125 -0.185,0.765 -0.28625,1.63375 -0.43,2.3949999 l -0.70625,3.723749 -2.32987,-2.964999 c -3.18925,-4.1999999 -2.21663,-5.4474999 -6.903,-6.5899999 -1.57013,-0.3825 -4.97525,-0.24 -5.62975,1.52875 -0.51213,1.3825 0.69025,4.7474999 1.44337,5.5462499 0.57913,0.61375 2.92425,2.138749 3.893,2.232499 1.58288,0.1525 4.81725,-0.811249 4.81725,-0.811249 0,0 2.61038,3.757499 4.20525,5.521249 0.695,0.77 1.27125,1.39 2.1625,1.4075 0.36875,0.0062 0.9,-0.04 0.9,-0.04 z m -9.4535,22.663751 c -0.0515,-1.39625 -0.209,-3.14875 -0.66762,-3.58875 -0.26588,-0.25625 -0.63288,-0.07125 -0.86313,-0.20875 -1.03537,-0.62125 0.72588,-3.185 1.56513,-4.165 7.61787,-8.892501 27.36037,-19.932501 37.791619,-22.2175 0.995,-0.2175 1.9875,-0.3925 2.17625,-0.05625 0.0925,0.1675 -0.0125,0.46125 -0.1725,0.7925 -0.3775,0.779999 -0.98,1.722499 -1.65,2.733749 -13.891249,20.977501 8.02125,-8.1337489 14.23875,-8.9524989 0.56875,-0.28 1.1025,-0.50625 1.57625,-0.65625 2.41875,-0.76125 5.04,-0.9225 5.3575,-3.2425 0.045,-0.325 0.0512,-0.73125 0.04,-1.12375 -0.105,-3.7999999 -6.305,-1.98250003 -10.675,-0.32 -4.045,1.5375 -10.05,4.0725 -16.419999,7.02 -8.2425,3.8137499 -32.92087,15.2599989 -36.3935,25.2024999 -1.119,3.20375 -0.911,6.79375 1.31975,9.88125 0.0956,0.1325 0.1825,0.2525 0.26175,0.36 -1.007,-1.3675 2.73,4.3825 2.51475,-1.45875 z m -29.15956,-31.909648 -6.10093,6.06093 c -1.0137,1.00745 -1.15869,1.18869 -1.44242,1.80866 -0.39748,0.8687 -0.53498,2.32113 -0.33874,2.51862 0.63122,0.63746 2.8661,-0.90996 3.64356,-1.48368 6.81089,-5.02348 9.91323,-8.18706 11.01442,-14.6904699 0.55997,-3.3060801 -1.18994,-4.58601013 -4.28852,-5.00724013 -4.91349,-0.66996 -9.78949,0.015 -11.69939,3.71481013 0.29874,14.1254999 0.71747,6.04718 4.88475,5.04473 4.636,-1.11494 9.62074,-3.59356 4.32727,2.0336399 z M 6.2254614,33.128218 c -2.19132,-0.92138 -4.12675,-4.601609 -4.43418,-8.431605 -0.52008,-6.479114 1.40625,-12.099626 6.32869,-18.4653379 1.4499,-1.87501 3.0955596,-4.0667831 3.6570196,-4.8706001 2.11261,-3.0245156 1.45359,-0.74110803 -1.22029,4.2281211 C 5.6717514,14.667149 4.2336014,23.118112 7.1691414,25.495162 c 1.38203,1.1191 4.8688996,0.887434 7.0390296,-0.467674 0.97314,-0.607661 1.25599,-0.623468 1.30386,-0.07286 0.25387,2.919774 -0.88224,6.864255 -2.17658,7.556902 -1.49062,0.797681 -5.7922096,1.170781 -7.1099896,0.616691 z m 110.4320886,4.176744 -4.0109,-4.052604 2.07777,-1.918765 c 1.14277,-1.055324 2.95687,-2.721639 4.03134,-3.702923 l 1.95357,-1.784153 3.67326,3.722508 3.67326,3.722509 -3.6937,4.033014 -3.6937,4.033019 -4.0109,-4.052605 z M 11.448391,84.673159 C 6.9019614,82.784499 5.2674114,81.451079 3.1155814,77.875529 1.0677514,74.472799 -0.02279861,70.408509 3.6139143e-4,66.265659 0.01606139,63.451059 4.3728214,45.503549 5.3366314,45.182279 c 0.01,8.173521 -0.23146,15.195119 2.37647,21.39074 2.9910696,6.95148 10.2971996,9.76318 19.7620496,7.60525 7.81173,-1.78102 15.5919,-4.92392 15.5919,-6.29854 0,-0.96384 -2.84542,-1.19648 -10.15035,-0.82988 l -7.36552,0.36965 -2.15044,-1.97187 -2.15045,-1.97188 0,-5.70261 c 0,-5.0312 0.17429,-6.07448 1.48033,-8.861 2.31833,-4.946309 4.61407,-7.912036 9.06323,-11.708279 4.35889,-3.719201 14.34646,-9.917166 18.23284,-11.314698 2.8295,-1.017479 4.9721,-0.291853 5.51405,1.867432 0.51475,2.050958 -0.18725,5.848638 -1.47149,7.960395 -1.10449,1.816199 -1.15176,1.832835 -4.14542,1.458802 -2.74381,-0.342816 -3.32466,-0.213181 -6.1852,1.380443 -5.91296,3.294121 -17.92767,13.961515 -17.67935,15.696795 0.15541,1.08601 0.60112,1.14251 11.10297,1.40759 10.86931,0.27435 10.94808,0.28522 12.01467,1.65697 1.62508,2.09006 1.80204,3.47598 0.93045,7.28741 -1.5876,6.94258 -6.50155,12.28647 -15.44514,16.79652 -9.50986,4.7956 -17.00313,5.85167 -23.21384,3.27164 z m 84.14059,-49.948538 c -2.27829,-0.105013 -5.65714,1.209452 -10.125,3.90625 -4.78886,2.89055 -6.08574,4.490977 -7.53125,9.25 -1.75433,5.77575 -3.73819,6.67512 -9.71875,4.4375 -2.38985,-0.89415 -3.43579,-1.68363 -4.75,-3.59375 -0.92535,-1.34496 -2.01848,-2.46875 -2.4375,-2.46875 -1.23356,0 -2.89895,2.56725 -3.625,5.59375 -1.03474,4.31329 -0.33594,7.76987 2.8125,14.25 l 2.78125,5.78125 -4.03125,3.9375 c -2.21569,2.16574 -6.39536,5.4771 -9.28125,7.375 -8.33884,5.48401 -26.1646,13.94354 -35.875,16.999999 -3.08021,0.96953 -4.8520296,2.21046 -4.1249996,2.9375 0.29164,0.29163 3.2563896,0.6344 6.5937496,0.75 11.9877,0.41523 14.53141,-0.13941 25.96875,-5.687499 13.8236,-6.705642 20.58218,-14.3677 23.1875,-26.25 1.44058,-6.57016 1.66499,-7.16468 2.75,-7.375 3.33195,0.863093 6.58827,-1.43277 9.375,-3.75 1.19385,-1.00579 2.64084,-1.84375 3.21875,-1.84375 0.5779,0 2.73611,0.74492 4.8125,1.65625 4.7525,2.08589 6.53726,2.10216 8.40625,0.125 2.07435,-2.19439 6.523699,-12.38316 6.499999,-14.90625 -0.0308,-3.280708 -1.431839,-8.913453 -2.499999,-10.09375 -0.56985,-0.629678 -1.37066,-0.983517 -2.40625,-1.03125 z m -1.7082,16.563178 c 0,0.64255 -0.35699,0.6019 -2.89203,-0.3293 -2.48148,-0.91151 -4.79924,-2.52656 -4.82314,-3.36078 -0.0238,-0.83232 4.15145,-2.650823 4.95128,-2.1565 0.64355,0.39773 2.76389,4.883 2.76389,5.84658 z m 39.614449,-1.063178 c -0.71246,0.0202 -1.82821,0.208449 -3.625,0.5 -12.17485,1.97554 -22.55027,8.02879 -34.906249,20.375 -4.57943,4.5758 -8.67577,9.2422 -10.5,12 -4.00699,6.05759 -6.36724,7.23491 -10.9375,5.40625 -3.23643,-1.29496 -4.21875,-3.93709 -4.21875,-11.28125 -0.004,-5.46016 0.63076,-10.847517 1.65625,-15.0625 -0.003,-0.09725 -0.16757,-0.01734 -0.25,-0.03125 -0.2413,0.913264 -2.7197,6.82296 -3.09375,8.4375 -0.38708,1.67077 -1.2623,5.14639 -1.9375,7.71875 -2.759,10.51127 -0.1046,19.76691 6.15625,21.5625 5.08993,1.459769 8.43174,0.0485 12.28125,-5.1875 1.58977,-2.162342 3.48637,-4.90989 4.21875,-6.125 6.374,-9.052029 12.260379,-14.240757 21.843699,-19.71875 12.34898,-7.08087 19.174,-9.16312 21.875,-6.71875 0.93358,0.84488 1.05077,0.77325 1.625,-0.71875 0.9613,-2.49773 1.69283,-7.92458 1.3125,-9.65625 -0.24404,-1.111131 -0.31257,-1.533659 -1.5,-1.5 z"/>
</svg>