<?xml version="1.0" encoding="UTF-8" standalone="yes"?>
<!-- Created with sK1/UniConvertor (http://sk1project.org/) -->
<svg xmlns="http://www.w3.org/2000/svg" xmlns:xlink="http://www.w3.org/1999/xlink"
  width="595.276pt" height="841.89pt" viewBox="0 0 595.276 841.89"
  fill-rule="evenodd">
  <path
     d="m 2.3082732,11.628505 0.4479791,7.902638 2.1099104,38.615223 c 0,0 1.4319297,-1.43493 2.2898875,-2.741875 1.2169444,-1.851908 1.2809448,-3.443839 1.6469313,-5.221755 0.286986,-1.394938 0.3059861,-1.705924 0.1879853,-3.114861 L 6.681079,19.518143 6.4610855,14.841359 c 0.2299936,0.125993 0.4489791,0.239986 0.6549725,0.340978 L 10.66989,16.942261 9.9919256,15.072345 C 9.9149651,14.860359 9.8329325,14.635366 9.750932,14.409372 8.7649813,11.693498 8.2180016,9.0076231 7.561037,6.2227481 6.9330647,3.5568741 6.095099,0.00603405 6.095099,0.00603405 c 0,0 -0.592972,-0.03096 -1.1399437,0.04696 C 3.453225,0.26798805 0.24637116,5.0517641 0.03837774,6.1387161 0.0183776,6.2417081 0.00637752,6.3447091 0.0023775,6.4467021 c -0.00904007,0.224985 0.00800005,0.460979 0.04600031,0.704965 0.27498587,1.751924 1.15695189,3.2468539 2.25989539,4.4767979 z"
     style="fill:#000000;stroke:none" />
</svg>
