<?xml version="1.0" encoding="UTF-8" standalone="yes"?>
<!-- Created with sK1/UniConvertor (http://sk1project.org/) -->
<svg xmlns="http://www.w3.org/2000/svg" xmlns:xlink="http://www.w3.org/1999/xlink"
  width="595.276pt" height="841.89pt" viewBox="0 0 595.276 841.89"
  fill-rule="evenodd">
  <path
     style="stroke:none; fill:#000000"
     d="M 28.769279,17.485816 28.275278,8.0648191 c -0.07304,-1.398 -0.102,-1.641 -0.287992,-2.432001 -0.571,-2.426993 -2.108001,-3.755994 -3.714002,-4.613994 -2.043001,-1.09200101 -3.601993,-1.49700101 -5.707994,0.03896 -1.731001,1.263 -1.894001,5.836995 -1.214001,6.551995 0.508,0.533 1.854001,0.485 3.482002,0.103 4.066994,-0.955 4.474994,-0.735 5.533995,3.5659939 0.504,2.044001 0.563,3.959002 0.316,6.015003 -0.526001,4.364994 -1.762001,6.488995 0.66,9.051988 1.006993,1.066001 2.059993,1.227001 4.358994,0.754001 1.633001,-0.336 1.957001,-1.095001 2.642002,-3.356994 0.482,-1.592001 0.862992,-3.018002 0.74,-4.606002 -0.245,-3.148994 -3.651002,-9.069989 0.453992,-10.5399899 0.757001,-0.272 1.742001,-0.095 2.591002,0.09 1.145,0.25 1.339,0.137 1.942001,-1.13 0.496,-1.042 1.069,-2.000001 1.385,-3.122001 1.183993,-4.20799501 -0.629,-5.39599501 -4.267002,-3.67199401 C 33.015281,2.7397851 31.14028,11.212773 32.03228,16.892775 c 0.273001,2.341994 0.572001,4.449995 0.572001,4.449995 0,0 -0.249,-0.0032 -0.546001,-0.032 -1.169,-0.115 -3.176001,-1.666001 -3.289001,-3.824994 z M 10.82059,80.239777 15.256288,84.676767 21.641283,78.291772 15.256288,71.90778 10.82059,76.343771 6.3843961,71.90778 0,78.291772 6.3843961,84.676767 10.82059,80.239777 z m 0.963704,-50.258971 c 0,0 -1.295801,0.604 -1.295801,0.604 -5.0255966,8.965989 -8.3524943,14.511992 -8.2771943,23.39798 0.0811,9.564997 5.4860964,16.576993 14.9639903,17.405993 6.390995,0.559001 15.016991,-0.181 20.182986,-3.435001 2.458001,-1.546993 4.718003,-4.212995 4.827003,-6.619996 0.004,-0.083 0.01,-0.165 0.022,-0.246 0.129992,-0.895 0.927992,-1.702993 1.382992,-2.800993 0.397001,-0.958001 0.533001,-2.136001 0.865001,-2.696002 0.425,-0.715 0.925,-0.814 -0.262,-2.567001 -0.528001,-0.779992 -1.335001,-1.451993 -1.999993,-2.080993 -2.041001,-1.935001 -4.811003,-2.621001 -7.910996,-2.684001 -3.829002,-0.078 -3.677002,0.562 -7.358996,-0.539001 -0.942001,-0.281 -1.514001,-0.452 -1.514001,-0.452 -0.143,-0.014 -0.29,-0.04096 -0.393,-0.095 -0.093,-0.04704 -0.152,-0.115 -0.183,-0.197 -0.327,-0.837001 2.114001,-3.825994 2.567001,-4.224994 1.912993,-1.686001 5.165995,-3.983994 7.010996,-5.202995 2.577993,-1.704001 7.078995,-3.853002 9.517989,-2.200001 0.46,0.312 0.786,0.534 0.786,0.534 0,0 -0.106,0.517 -0.13,0.937001 -0.04304,0.742 0.444,1.524 0.862,1.437 0.696001,-0.143 2.137001,-3.499001 2.630002,-5.343002 1.098,-4.108994 -1.066001,-6.857996 -4.930003,-6.025995 -3.076993,0.662 -8.298988,3.618001 -10.453989,5.357994 -4.301002,3.470002 -10.702998,10.766998 -11.108998,15.616992 -0.195,2.335002 0,5.683995 0,5.683995 0,0 1.255001,1.072001 2.661001,1.932001 2.688002,1.644001 9.566997,0.569001 11.84299,1.310001 2.838002,0.925 5.625003,2.392001 5.625003,2.392001 0,0 -2.556001,1.401993 -4.708002,2.456993 C 31.51228,64.326784 20.35329,66.481785 14.337287,63.573783 6.0989959,59.590789 4.3099974,49.009792 7.1406957,40.341795 7.8481952,38.175802 9.4257968,34.961801 10.86399,31.906799 c 0.305304,-0.648992 0.6124,-1.329993 0.920304,-1.925993 z m 5.075995,-8.194996 c 0.01296,-0.253 0.02104,-0.48 0.02496,-0.656 0.04,-1.547001 -1.101001,-1.227001 -2.095001,-0.657001 -1.796993,1.030001 -3.316698,2.450002 -5.6113937,2.012001 -0.8396996,-0.16 -1.5130992,-0.614 -2.1604987,-1.242 C 1.263959,15.666815 2.7238582,11.795813 6.6720562,5.7998181 7.6881551,4.2568171 9.0273542,2.1058241 9.1498543,1.2548241 9.741053,-2.8471779 4.9132569,4.5578181 6.0561559,2.9728251 4.990357,4.4508181 3.6265579,6.4508191 2.8044582,8.0758191 1.3765591,10.897812 0.45065943,16.268815 1.253759,19.407809 c 0.7463996,2.917001 2.7728983,6.381995 5.2488971,7.420996 0.8714997,0.366 1.7650985,0.561 2.6442982,0.614 2.5265957,0.154 7.5072947,-1.612001 7.7132947,-5.656995 z" />
</svg>
