<?xml version="1.0" encoding="UTF-8" standalone="no"?>
<svg>
  <path
     style="stroke:none; fill:#000000"
     d="m 35.96158,21.857304 -0.6175,-11.77624 c -0.0913,-1.7474995 -0.1275,-2.0512495 -0.35999,-3.0399995 -0.71375,-3.03374 -2.635,-4.69499 -4.6425,-5.7674899 -2.55375,-1.36500003 -4.50249,-1.87125003 -7.13499,0.0487 -2.16375,1.5787499 -2.3675,7.2962399 -1.5175,8.1899899 0.635,0.6662495 2.3175,0.6062495 4.3525,0.1287499 5.08374,-1.1937499 5.59374,-0.9187499 6.91749,4.4574896 0.63,2.555 0.70375,4.94875 0.395,7.51875 -0.6575,5.45624 -2.2025,8.11124 0.825,11.31498 1.25874,1.3325 2.57499,1.53375 5.44874,0.9425 2.04125,-0.42 2.44625,-1.36875 3.3025,-4.19624 0.6025,-1.99 1.07874,-3.7725 0.925,-5.7575 -0.30625,-3.93624 -4.56375,-11.33748 0.56749,-13.17498 0.94625,-0.34 2.1775,-0.11875 3.23875,0.1125 1.43125,0.3125 1.67375,0.17125 2.4275,-1.4124995 0.62,-1.3025 1.33625,-2.5 1.73125,-3.9025 C 53.30031,0.28352457 51.03407,-1.2014754 46.48657,0.95352455 41.26908,3.4247745 38.92533,14.016004 40.04033,21.116004 c 0.34125,2.92749 0.715,5.56249 0.715,5.56249 0,0 -0.31125,-0.004 -0.6825,-0.04 -1.46125,-0.14375 -3.97,-2.0825 -4.11125,-4.78124 z m -22.43585,78.442406 5.54462,5.54624 7.98124,-7.98124 L 19.07035,89.884724 13.52573,95.42971 7.980491,89.884724 0,97.86471 l 7.980491,7.98124 5.545239,-5.54624 z m 1.20463,-62.823676 c 0,0 -1.61975,0.755 -1.61975,0.755 -6.281993,11.20748 -10.440613,18.13998 -10.346488,29.24746 0.101375,11.95624 6.857617,20.72123 18.704978,21.75748 7.98874,0.69875 18.77123,-0.22625 25.22872,-4.29375 3.0725,-1.93374 5.8975,-5.26624 6.03375,-8.27499 0.005,-0.10375 0.0125,-0.20625 0.0275,-0.3075 0.16249,-1.11875 1.15999,-2.12874 1.72874,-3.50124 0.49625,-1.1975 0.66625,-2.67 1.08125,-3.37 0.53125,-0.89375 1.15625,-1.0175 -0.3275,-3.20875 -0.66,-0.97499 -1.66875,-1.81499 -2.49999,-2.60124 -2.55125,-2.41875 -6.01375,-3.27625 -9.88874,-3.355 -4.78625,-0.0975 -4.59625,0.7025 -9.19874,-0.67375 -1.1775,-0.35125 -1.8925,-0.565 -1.8925,-0.565 -0.17875,-0.0175 -0.3625,-0.0512 -0.49125,-0.11875 -0.11625,-0.0588 -0.19,-0.14375 -0.22875,-0.24625 -0.40875,-1.04625 2.6425,-4.78249 3.20875,-5.28124 2.39124,-2.1075 6.45749,-4.97999 8.76374,-6.50374 3.22249,-2.13 8.84874,-4.81625 11.89748,-2.75 0.575,0.39 0.9825,0.6675 0.9825,0.6675 0,0 -0.1325,0.64625 -0.1625,1.17125 -0.0538,0.9275 0.555,1.905 1.0775,1.79625 0.87,-0.17875 2.67125,-4.37375 3.2875,-6.67875 1.3725,-5.13624 -1.3325,-8.57249 -6.1625,-7.53249 -3.84624,0.8275 -10.37373,4.5225 -13.06748,6.69749 -5.37625,4.3375 -13.37874,13.45874 -13.88624,19.52123 -0.24375,2.91875 0,7.10499 0,7.10499 0,0 1.56875,1.34 3.32625,2.415 3.36,2.055 11.95874,0.71125 14.80373,1.6375 3.5475,1.15625 7.03125,2.99 7.03125,2.99 0,0 -3.195,1.75249 -5.885,3.07124 -6.86624,3.3625 -20.81497,6.05625 -28.33497,2.42125 -10.297859,-4.97874 -12.534106,-18.20498 -8.995735,-29.03997 0.884374,-2.70749 2.856375,-6.72499 4.654115,-10.54374 0.38163,-0.81124 0.7655,-1.66249 1.15038,-2.40749 z m 6.34499,-10.24374 c 0.0162,-0.31625 0.0263,-0.6 0.0312,-0.82 0.05,-1.93375 -1.37625,-1.53375 -2.61875,-0.82125 -2.24624,1.2875 -4.14587,3.0625 -7.014238,2.515 -1.049624,-0.2 -1.891373,-0.7675 -2.700622,-1.5525 -7.192992,-6.96999 -5.368119,-11.80874 -0.432874,-19.3037295 1.270123,-1.92875 2.944121,-4.61749 3.097246,-5.6812399 0.738998,-5.1275 -5.295744,4.1287399 -3.867121,2.1474999 -1.332248,1.84749 -3.036996,4.34749 -4.06462,6.3787395 -1.784873,3.52749 -2.942247,10.24124 -1.938373,14.16498 0.932999,3.64625 3.466121,7.97749 6.561118,9.27624 1.089374,0.4575 2.206372,0.70125 3.305371,0.7675 3.158243,0.1925 9.384113,-2.015 9.641613,-7.07124 z" />
</svg>
