<?xml version="1.0" encoding="UTF-8" standalone="no"?>
<svg>
  <path
     d="m 16.589985,94.431195 6.28999,6.848755 8.31,-9.050005 -8.31,-9.04874 -6.28999,6.84874 -6.28875,-6.84874 -8.3099902,9.04874 8.3099902,9.050005 6.28875,-6.848755 z M 35.271225,34.28248 c 2.2475,1.16125 5.12374,4.14625 5.46374,6.3775 0.0275,0.185 0.0312,0.2125 0.0312,0.2125 l -2.0725,0.3075 c -0.52874,0.0788 -1.09124,0.1475 -1.57499,0.175 -3.0325,0.17375 -6.20375,-0.65375 -7.1925,-1.9975 -0.625,-0.84875 -1.40875,-2.00625 -1.72,-3.7075 -0.0312,-0.17375 -0.27875,-1.5275 -0.35375,-1.9375 -0.4075,-2.22999 8.6275,1.195 7.41875,0.57 z m -4.67875,-11.87374 c -2.42375,2.095 -4.61875,5.66875 -6.55375,10.3575 -0.51,1.23874 -0.9225,2.44249 -1.00375,3.48874 -0.0613,0.78125 0.0625,1.475 0.365,2.205 0.41125,0.99125 1.15125,2.04875 1.50375,3.28125 0.94,3.28875 0.055,3.98 1.8525,5.13875 2.59625,1.67125 7.98375,2.9 10.07625,2.57125 2.37124,-0.37375 4.73374,-1.78 6.94249,-2.49375 1.6625,-0.53875 2.05,-0.23 1.68125,1.58125 -1.4925,7.31624 -8.76874,6.77999 -16.16749,6.93624 -3.775,0.0788 -5.33125,0.57875 -6.5575,3.2825 -0.43875,0.96875 -0.48,1.2475 -0.40625,2.78125 l 0.165,3.41375 8.55375,-0.48875 c 1.72875,-0.0987 2.0675,-0.10125 3.38125,-0.02 1.62125,0.0987 6.90999,1.78625 6.18124,3.389995 -0.48,1.05624 -3.35874,1.96624 -4.38499,2.27749 -9.1075,2.7625 -16.11249,4.2 -22.28124,1.46875 C 0.11749476,65.45997 4.0837348,50.01248 2.7762348,54.85622 2.0462448,57.55747 1.2499948,60.79747 0.63624476,63.57497 -3.5325052,82.454955 13.648735,87.304945 26.968725,83.578705 c 9.18125,-2.56875 19.09499,-8.59375 24.94249,-15.62999 1.60125,-1.926245 2.95625,-4.071245 2.6,-6.382495 -0.10625,-0.69375 -0.29375,-0.8575 -1.87125,-1.6475 -4.07625,-2.04 -5.515,-2.32125 -4.62125,-4.265 2.64625,-5.75999 4.85625,-7.68374 4.26625,-11.97874 -0.47125,-3.42375 -1.30625,-6.425 -2.52,-9.15 -1.06375,-2.39124 -2.2625,-4.44124 -3.47625,-6.17499 -5.0475,-7.215 -10.58374,-10.35875 -15.69624,-5.94125 z M 18.546235,0 l -8.305,9.04375 8.305,9.04374 8.30499,-9.04374 L 18.546235,0 z"
     style="fill:#000000;stroke:none" />
</svg>
