<?xml version="1.0" encoding="UTF-8" standalone="yes"?>
<!-- Created with sK1/UniConvertor (http://sk1project.org/) -->
<svg xmlns="http://www.w3.org/2000/svg" xmlns:xlink="http://www.w3.org/1999/xlink"
  width="595.276pt" height="841.89pt" viewBox="0 0 595.276 841.89"
  fill-rule="evenodd">
  <path
     style="fill:#000000;stroke:none"
     d="M 10.826867,16.056177 10.37387,7.4052247 c -0.067,-1.282993 -0.094,-1.505992 -0.264999,-2.232988 C 9.5848742,2.9432487 8.1738819,1.7232554 6.6978899,0.93525959 4.8229001,-0.06673481 3.3909079,-0.43873281 1.4579185,0.97125939 -0.13207286,2.1312531 -0.28207204,6.3312307 0.34292456,6.9872267 c 0.46599743,0.489997 1.70199074,0.445998 3.19698254,0.095 3.7349797,-0.876995 4.1089777,-0.674996 5.0819724,3.2749823 0.4619974,1.87699 0.5169971,3.634981 0.2899984,5.52297 -0.4829974,4.007979 -1.6179912,5.957968 0.6049967,8.310955 0.9259954,0.979995 1.8919894,1.127994 4.0029784,0.692996 1.499992,-0.308998 1.79799,-1.004994 2.426987,-3.081983 0.441997,-1.461992 0.791995,-2.771985 0.678996,-4.229977 -0.224999,-2.891984 -3.351982,-8.3279553 0.416998,-9.6779473 0.694996,-0.249999 1.598991,-0.087 2.378987,0.083 1.050994,0.228998 1.228993,0.124999 1.78299,-1.037995 0.455997,-0.956995 0.982995,-1.83699 1.271993,-2.866984 C 23.564798,0.20826469 21.899807,-0.88272951 18.558825,0.70026199 14.725846,2.516252 13.004856,10.29621 13.823851,15.512181 c 0.249999,2.149989 0.524997,4.085978 0.524997,4.085978 0,0 -0.228998,-0.003 -0.501997,-0.029 -1.072994,-0.105999 -2.915984,-1.529991 -3.019984,-3.512981 z" />
</svg>
