<?xml version="1.0" encoding="UTF-8" standalone="no"?>
<svg>
  <path
     style="fill:#000000;stroke:none"
     d="m 0.30550173,9.8064813 c 0,0 4.77874997,-1.56125 6.67374997,-1.13 0.99875,0.2275 2.0325,2.0262497 2.68125,3.4037497 1.1775003,2.50125 2.3125003,5.7225 2.7437503,8.28 0.14375,0.85125 0.29875,1.63625 1.175,1.93625 0.55125,0.1875 1.39125,0.2 1.39125,0.2 0,0 0.002,-0.0138 0.007,-0.0387 0.4175,-2.3575 1.35,-6.31 1.5875,-8.69375 0.25,-2.50375 0.19375,-3.3725 2.325,-3.21375 3.2225,0.23875 4.31625,0.8075 5.7325,-1.7637497 1.27,-2.30625 2.66125,-7.0125 0.445,-8.53875005 -6.8575,-1.84749995 -9.4175,7.17500005 -9.8475,9.24000005 -0.60625,2.9162497 -0.86,6.0424997 -0.86,6.0424997 0,0 -1.68,-5.39875 -2.91625,-8.3162497 -1.39,-3.28 -4.9775003,-7.69875005 -8.8475003,-6.59375005 C 0.67375173,1.1677813 -0.00124827,2.7402813 1.7324514e-6,4.8215313 0.00100173,6.7377813 0.30500173,9.8065313 0.30500173,9.8065313 z" />
</svg>
