<?xml version="1.0" encoding="UTF-8" standalone="yes"?>
<!-- Created with sK1/UniConvertor (http://sk1project.org/) -->
<svg xmlns="http://www.w3.org/2000/svg" xmlns:xlink="http://www.w3.org/1999/xlink"
  width="595.276pt" height="841.89pt" viewBox="0 0 595.276 841.89"
  fill-rule="evenodd">
  <path
     d="m 2.2230452,27.011533 0.2139939,-0.0016 c 0.2929866,-0.0024 0.5939733,-0.009 0.8719598,-0.02496 0.5339808,-0.02896 1.1449543,-0.148994 1.7949201,-0.332987 6.546715,-2.747881 7.715669,-4.416808 12.818443,-8.897616 1.77692,-1.560926 2.791881,-2.452886 2.791881,-2.452886 l 0.91196,0.86496 c 0.179986,0.227986 0.233986,0.298987 0.287987,0.373979 0.382979,0.532981 0.695966,1.103954 0.91796,1.835921 0.157993,0.52198 0.628974,3.838834 1.422933,3.671841 0.601973,-0.126994 0.96296,-2.425894 1.070953,-3.240853 0.291987,-2.696889 -0.858959,-4.560801 -2.357893,-6.395722 -0.215994,-0.262994 -0.334987,-0.329987 -0.334987,-0.329987 l 1.411941,-2.7978811 c 0.43998,-1.115946 1.105946,-2.318893 1.411933,-3.366854 0.559981,-1.913913 -0.511973,-5.28176716 -2.900874,-5.81973996 -1.999906,-0.4499801 -4.928781,0.7419666 -5.720748,1.94491326 -0.294986,0.44698 -1.35794,5.5537537 -1.015953,7.4176747 0.158994,0.8669601 0.559973,2.0049141 0.932961,2.9508741 0.398979,1.013953 1.228947,1.456933 1.228947,1.456933 0,0 -1.365941,1.125954 -1.880921,1.549934 -0.353987,0.291987 -1.241947,1.026953 -2.357893,1.939914 -2.877882,2.356901 -6.2127363,5.211774 -9.53259,6.916693 -0.671966,0.344988 -1.3789404,0.707975 -1.9999059,1.025962 -2.92587418,1.502933 -2.97187459,1.516933 0.01296,1.711919 z M 22.34217,9.2283179 21.049222,10.949237 19.340303,9.2393179 c -0.781967,-0.782967 -1.480941,-1.857921 -1.225947,-2.533895 0.42298,-1.120946 3.15386,-1.39194 3.826834,-1.100954 1.74692,0.752975 1.507934,2.147907 0.40098,3.623849 z"
     style="fill:#000000;stroke:none" />
</svg>
