<?xml version="1.0" encoding="UTF-8" standalone="no"?>
<svg>
  <path
     style="fill:#000000;stroke:none"
     d="m 8.0910802,42.930611 c -0.0515,-1.39625 -0.209,-3.14875 -0.667625,-3.58875 -0.265875,-0.25625 -0.632875,-0.07125 -0.863125,-0.20875 -1.035375,-0.62125 0.725875,-3.185 1.565125,-4.165 7.6178748,-8.8925 27.3603748,-19.9325 37.7916248,-22.2175 0.995,-0.2175 1.9875,-0.3925 2.17625,-0.05625 0.0925,0.1675 -0.0125,0.46125 -0.1725,0.7925 -0.3775,0.78 -0.98,1.7225 -1.65,2.73375 -13.89125,20.9775 8.02125,-8.1337498 14.23875,-8.9524998 0.56875,-0.28 1.1025,-0.50625 1.57625,-0.65625 2.41875,-0.76125 5.04,-0.9225001 5.3575,-3.2425001 0.045,-0.325 0.05125,-0.73125 0.04,-1.12375 -0.105,-3.8 -6.305,-1.98250002 -10.675,-0.32 -4.045,1.5375 -10.05,4.0725001 -16.42,7.0200001 C 32.14583,12.759361 7.4674552,24.205611 3.9948302,34.148111 c -1.119,3.20375 -0.911,6.79375 1.31975,9.88125 0.09563,0.1325 0.1825,0.2525 0.26175,0.36 -1.007,-1.3675 2.73,4.3825 2.51475,-1.45875 z m 25.9022498,5.96 0.69875,-0.0125 c 0.31375,-0.005 0.3975,-0.19625 0.84125,-1.91 2.55375,-9.86 3.02,-15.30375 -3.26125,-21.62625 -1.035,-1.04125 -2.24,-1.915 -3.01625,-0.9825 -0.5275,0.63375 -1.065,5.10375 -0.825,6.08 0.42,1.70625 1.665,2.26 3.1025,3.42 3.2475,2.6175 4.06125,4.58125 3.6475,8.0675 -0.31625,2.67625 -1.1875,6.96375 -1.1875,6.96375 z m -16.44875,-28.62375 -0.175,-4.00375 c -0.07125,-1.61875 -0.0475,-1.90875 0.23375,-2.9 0.20875,-0.73625 0.42875,-1.54 0.98625,-2.05875 1.36,-1.26375 4.7275,-0.82625 6.28875,-1.8674998 2.24875,-1.4975 2.25,-6.6450001 0.52,-8.73125012 -1.83375,-2.21124998 -5.5425,1.30125002 -7.0625,3.31125002 -0.9325,1.235 -1.81625,2.6500001 -2.21375,4.3012501 -0.185,0.765 -0.28625,1.63375 -0.43,2.3949998 l -0.70625,3.72375 -2.329875,-2.965 C 9.4667052,7.2718612 10.43933,6.0243612 5.7529552,4.8818611 c -1.570125,-0.3825 -4.97525004,-0.24 -5.62975004,1.5287501 -0.512125,1.3825 0.69025,4.7474998 1.44337504,5.5462498 0.579125,0.61375 2.92425,2.13875 3.893,2.2325 1.582875,0.1525 4.8172498,-0.81125 4.8172498,-0.81125 0,0 2.610375,3.7575 4.20525,5.52125 0.695,0.77 1.27125,1.39 2.1625,1.4075 0.36875,0.0062 0.9,-0.04 0.9,-0.04 z" />
</svg>
