<?xml version="1.0" encoding="UTF-8" standalone="no"?>
<svg>
  <path
     style="fill:#000000;stroke:none"
     d="m 16.736648,7.2768016 c 0.035,-0.18625 0.0775,-0.44 0.0075,-0.5675 -0.13,-0.2375 -0.65,-0.04125 -1.1725,0.21375 -1.46875,0.71875 -2.9525,1.905 -4.43375,2.745 -0.67125,0.3812504 -1.4287498,0.7650004 -2.2262498,1.0637504 -2.3025,0.86125 -5.86125,1.19875 -4.36375,-2.1000004 0.81125,-1.78625 3.30125,-3.61625 3.90125,-5.05625 0.32125,-0.77375 -0.14125,-2.83875004 -1.17875,-3.38250004 -1.4325,-0.75 -4.5675,0.86625004 -5.35875,1.75375004 -1.05249996,1.18 -2.50374996,4.28125 -1.65749996,4.67375 0.45,0.21 1.63499996,-0.61 2.72124996,-0.87375 0.4625,-0.1125 0.90625,-0.12375 1.06,0.07375 0.1675,0.2175 -0.015,0.68875 -0.27125,1.18375 -1.6025,3.0975004 -4.13499996,5.1350004 -3.51124996,7.2475004 1.86749996,6.32375 11.68999976,-2.7425 15.20749976,-5.6750004 1.1025,-0.9175 1.23,-1.0475 1.27625,-1.3 z" />
</svg>
