<?xml version="1.0" encoding="UTF-8" standalone="no"?>
<svg>
  <path
     style="fill:#000000;stroke:none"
     d="m 5.3304471,16.351369 c -0.9825,6.06625 -4.38999996,15.23125 1.2025,18.015 4.0299999,2.006254 6.9237499,0.2625 7.8012499,-4.09125 0.31875,-1.58375 0.14,-2.63625 -1.07375,-3.2825 -2.0275,-1.0775 -6.5399999,-0.78875 -7.6324999,-1.9825 -0.4025,-0.44125 -0.38125,-1.07875 -0.23875,-1.86625 1.13,-6.20875 2.635,-7.02125 1.9875,-11.82625 -0.30875,-2.2937503 -2.46875,-12.8350003 -5.5,-11.13250029 C 0.27794714,1.0838687 -0.44080286,4.3338687 0.28044714,5.4576187 c 0.41875,0.6525 1.38999996,1.34 2.04249996,2.07875 1.29625,1.46875 3.365,6.6062503 3.0075,8.8150003 z" />
</svg>
