<?xml version="1.0" encoding="UTF-8" standalone="no"?>
<svg>
  <path
     style="fill:#000000;stroke:none"
     d="m 5.0383139,17.954928 c 0.043,-0.11375 0.09463,-0.23875 0.1525,-0.355 0.53125,-1.065 1.58425,-1.3875 2.476125,-1.90375 1.046996,-0.605 1.835626,-1.4375 2.3411261,-2.3925 1.73275,-3.2775 0.7845,-6.3999999 -1.8868761,-6.3537499 -0.1915,0.0037 -0.353125,0.0062 -0.48725,0.0088 -2.914125,0.725 0.412625,-3.17625 0.67375,-3.67625 1.169876,-2.23875 2.4182461,-4.12625004 -1.3285,-2.89125004 -2.594,0.85500004 -4.754,3.49875004 -5.83375,6.11375004 -1.58512501,3.8387499 -1.34800001,5.1324999 2.61975,5.4874999 0.903375,0.08125 1.555375,0.3 0.8615,1.055 -2.437125,2.65125 -5.680125,6.46625 -4.29437501,9.00125 3.08737501,5.64625 13.62275111,1.40125 16.82487111,-0.6175 3.20763,-2.02125 6.07913,-4.61 8.256,-6.5775 0.0904,-0.0825 0.18088,-0.16375 0.27113,-0.245 1.1835,-1.06875 4.46975,-4.07625 3.58625,-5.0362499 -0.71675,-0.78 -2.6375,0.6262499 -4.37975,2.2137499 -4.16175,3.79375 -5.4285,5.45625 -11.15038,6.47375 -0.1215,0.02125 -0.24462,0.0425 -0.3695,0.06375 -0.23087,0.03875 -0.468,0.07625 -0.71162,0.1125 -3.5420001,0.525 -8.1762511,0.995 -7.6210011,-0.48125 z" />
</svg>
