<?xml version="1.0" encoding="UTF-8" standalone="yes"?>
<!-- Created with sK1/UniConvertor (http://sk1project.org/) -->
<svg xmlns="http://www.w3.org/2000/svg" xmlns:xlink="http://www.w3.org/1999/xlink"
  width="595.276pt" height="841.89pt" viewBox="0 0 595.276 841.89"
  fill-rule="evenodd">
  <path
     d="m 17.92474,17.64822 c 0.861455,-1.574914 1.842105,-3.364829 2.71916,-5.074735 1.313032,-2.559876 4.993644,-9.6515101 1.574319,-12.23837709 -1.707413,-1.29193 -4.491169,1.47892199 -5.680509,2.75985999 -4.552066,4.90575 -5.969094,6.26268 -8.1000837,11.8243921 -0.3445829,0.898953 -0.1182946,0.911953 0.9695501,0.787961 0.4831751,-0.056 0.6281676,-0.174992 1.4501256,-1.188938 0.998549,-1.232937 1.673514,-2.099891 2.251284,-2.727859 0.289586,-0.313985 6.171883,-4.1137901 5.589814,-0.664969 -0.0489,0.288984 -0.126294,0.634969 -0.229888,1.044945 -0.0587,0.231992 -0.121294,0.458977 -0.188291,0.681969 -0.641767,1.154938 -1.290834,2.317875 -1.919901,3.434821 -1.755911,3.117844 -3.355828,5.876696 -4.205885,7.112634 -0.269686,0.391984 -0.985549,1.43393 -0.985549,1.43393 0,0 -0.39998,-0.173992 -0.739962,-0.320985 C 7.8118579,23.377924 9.0221959,21.642017 9.9375492,20.35708 10.259033,19.906103 10.327129,19.381134 9.6322647,18.729165 3.0439024,17.082251 2.5174296,13.394438 1.2747935,15.137352 c -0.67036579,0.840953 -1.01134867,2.69586 -1.25703621,5.36172 -0.13589299,1.47493 0.50477431,6.760657 2.03959571,8.476572 0.6282681,0.701961 1.8323057,1.267929 2.8193551,1.825898 l 2.1205918,1.198946 -1.2225377,2.374875 C 5.0462996,35.790293 3.914958,37.419208 3.4042837,38.410153 1.3461896,42.403951 0.56782926,48.551639 3.0917,51.711476 c 2.6058661,3.260828 5.6477107,2.476867 10.171879,0.761961 1.133841,-0.429977 1.994997,-0.898954 3.30173,-1.852907 1.615017,-1.179938 3.9104,-3.101844 4.578766,-3.665813 l 2.763658,-3.242837 c 0.624767,-2.304875 1.848305,-4.896742 1.927801,-7.112634 0.0883,-2.462867 -1.434327,-5.933696 -3.437224,-7.269626 -2.652164,-1.768906 -8.564461,-3.627813 -8.564461,-3.627813 0,0 1.17614,-2.405875 2.212086,-4.524766 0.419579,-0.857953 1.100544,-2.105891 1.878805,-3.528821 z M 7.6956641,35.775293 8.8042076,33.711394 14.327624,35.543301 c 1.816607,0.601969 3.593316,1.279938 5.382624,2.345883 2.755559,1.640915 1.16924,2.73886 -1.410328,4.182782 -3.051143,1.706914 -4.533367,2.72086 -7.229629,2.872852 -1.7202115,0.097 -7.4829167,-0.879953 -5.7811039,-4.463766 0.1472922,-0.309985 0.3434821,-0.673969 0.5859704,-1.109946 0.1620915,-0.290984 0.3206829,-0.591969 0.4787751,-0.895953 0.5969696,-1.150938 0.9886494,-2.042899 1.3417315,-2.69986 z"
     style="fill:#000000;stroke:none" />
</svg>
