<?xml version="1.0" encoding="UTF-8" standalone="yes"?>
<!-- Created with sK1/UniConvertor (http://sk1project.org/) -->
<svg xmlns="http://www.w3.org/2000/svg" xmlns:xlink="http://www.w3.org/1999/xlink"
  width="595.276pt" height="841.89pt" viewBox="0 0 595.276 841.89"
  fill-rule="evenodd">
  <path
     d="m 1.9822805,27.639165 c 0,0 0.4719801,-1.087955 0.7574678,-1.949916 0.4816794,-1.454935 0.4040834,-2.50589 0.2140911,-4.010826 C 2.4239619,17.480596 1.6092966,7.972001 1.6092966,7.972001 c 0,0 1.4615376,-0.164994 2.5784908,-0.134993 3.0207721,0.07896 3.9010349,1.501935 5.4899674,-0.086 C 10.712311,6.717052 11.637672,3.0552059 10.976,1.6872637 10.219232,0.1233355 7.6556401,-0.6296323 6.4773903,0.6463089 5.9340135,1.235283 5.6240263,2.1642447 5.0021526,2.776219 4.0390938,3.723181 2.3281657,3.911175 1.4806017,4.701135 0.02916339,6.054085 -0.16562823,15.507679 0.10156014,17.746582 0.55224082,21.52443 1.9822805,27.639165 1.9822805,27.639165 z"
     style="fill:#000000;stroke:none" />
</svg>
