<?xml version="1.0" encoding="UTF-8" standalone="no"?>
<svg>
  <path
     style="fill:#000000;stroke:none"
     d="M 3.09875,10.924965 0,10.733715 l 0.1725,0.635 c 0.0425,0.1575 0.0925,0.32375 0.14625,0.47375 1.16875,3.28375 10.4575,3.92 12.25375,3.52 1.41625,-0.315 3.71875,-1.1525 4.83375,-1.9825 3.13125,-2.32875 4.54875,-6.8862512 7.68125,-5.2837512 0.445,0.22875 0.84375,0.59375 1.19,1.06375 0.68375,0.9300012 1.16375,2.2725012 1.94875,2.9475012 0.7,0.6025 1.645,0.67375 2.7125,0.76625 6.53,0.56 13.8975,1.22875 17.5575,-4.1012512 2.1825,-3.18 0.90875,-7.81875005 -2.76375,-8.62500005 -3.51875,-0.7725 -6.5825,1.57625005 -8.68375,5.03000005 -0.1725,0.285 -0.3325,0.55625 -0.48125,0.8125 l -1.8425,3.17375 -1.1625,0.03625 c -0.3675,0.0012 -0.68625,-0.04875 -1.05375,-0.14875 -0.37875,-0.10375 -0.7525,-0.25 -1.0925,-0.5225 -0.60875,-0.4875 -1.115,-1.3775 -1.65,-2.17375 -0.8725,-1.2975 -4.5075,-3.3725 -6.1875,-2.2025 -0.25,0.17375 -0.48875,0.39875 -0.73625,0.6575 -1.31875,1.3825 -2.85875,3.7525 -4.41875,4.75875 -0.26125,0.1675 -1.04125,0.5650012 -1.76375,0.8687512 -2.53125,1.06375 -9.8449996,0.7175 -13.56125,0.4875 z m 34.2675,-1.6712512 -0.77125,-0.01375 1.9675,-2.8325 c 0.0575,-0.08125 0.10375,-0.1425 0.13125,-0.175 1.7725,-2.08875 3.165,-2.145 5.67625,-0.91125 0.50875,0.25 0.94625,0.48375 1.10375,1.15125 0.0775,0.325 0.0875,0.75375 0.0775,1.1125 -0.01,0.39 -0.01875,0.6925 -0.01875,0.6925 0,0 -0.0087,0.0013 -0.09125,0.01625 -0.24875,0.0425 -1.42125,0.2625 -2.6975,0.48625 -1.535,0.2675 -3.59375,0.6825 -5.3775,0.47375 z" />
</svg>
