<?xml version="1.0"?>
<svg xmlns="http://www.w3.org/2000/svg" version="1.1">
  <path
     d="m 0.26448766,13.186362 c 3.15858004,4.46976 10.01572034,4.56851 15.26170034,4.11103 2.01364,-0.17499 3.90479,-0.37498 5.91093,-1.26493 2.9261,-1.29868 6.09718,-4.06979 8.40956,-5.17098 0.48248,-0.22999 0.9287,-0.38748 1.29868,-0.27499 0.9537,0.28624 1.40743,2.35613 2.42738,3.18109 1.17743,0.9537 6.95713,-0.35248 8.86953,-1.40618 0.65496,-0.36123 3.26608,-2.34863 4.06103,-3.4798195 0.62497,-0.8912 0.83371,-0.9137 2.07864,-0.21873 1.52242,0.8487 3.34858,1.4711695 4.771,2.1173795 1.25619,0.56997 2.10114,1.0362 3.07109,0.55247 1.48242,-0.73746 2.27488,-3.8385395 1.9774,-5.6709495 -0.37248,-2.30362 -1.81991,-6.78464 -3.29233,-5.40221003 -0.74246,0.69746 -0.84746,2.74610003 -1.65491,3.44982003 -0.38748,0.33748 -0.9362,0.36498 -1.46368,0.20999 -1.12119,-0.32749 -2.14113,-1.47743 -2.98359,-1.38743 -1.24743,0.13374 -2.10239,2.99109 -3.78355,4.22603 -1.54117,1.13244 -8.22207,2.39862 -9.15077,1.76365 -0.9287,-0.63496 -1.28493,-2.27238 -2.12488,-2.95609 -1.87241,-1.52242 -4.73226,1.55117 -7.44461,3.39982 -2.51237,1.7099095 -4.98349,2.5248695 -7.69585,2.7798495 -4.28977,0.40498 -11.6418803,0.0175 -15.2391903,-0.21624 -5.17098,-0.33623 -3.15234004,1.87116 -3.30358004,1.65742 z"
     style="fill:#000000;stroke:none" />
</svg>
