<?xml version="1.0" encoding="UTF-8" standalone="yes"?>
<!-- Created with sK1/UniConvertor (http://sk1project.org/) -->
<svg xmlns="http://www.w3.org/2000/svg" xmlns:xlink="http://www.w3.org/1999/xlink"
  width="595.276pt" height="841.89pt" viewBox="0 0 595.276 841.89"
  fill-rule="evenodd">
  <path
     d="M 0.21158876,10.548986 C 2.7384365,14.124771 8.2241135,14.20377 12.42087,13.837789 c 1.610902,-0.139992 3.123812,-0.299983 4.728714,-1.011938 2.340865,-1.038937 4.877713,-3.2558112 6.727605,-4.1367572 0.385981,-0.183991 0.742955,-0.309982 1.038937,-0.219991 0.762955,0.228991 1.125937,1.8848922 1.941892,2.5448562 0.941937,0.762955 5.565668,-0.281982 7.095578,-1.1249372 0.523964,-0.288982 2.612847,-1.878892 3.248803,-2.783838 0.499973,-0.7129551 0.666964,-0.730955 1.662901,-0.174983 1.217928,0.678956 2.678847,1.176928 3.816776,1.693893 1.004945,0.455973 1.680901,0.828955 2.456856,0.441973 1.185928,-0.589964 1.819892,-3.0708116 1.58191,-4.5367301 C 46.42286,2.6864525 45.264923,-0.89834036 44.086995,0.20759654 43.49303,0.76556094 43.409031,2.4044624 42.763075,2.9674347 42.453093,3.237417 42.01412,3.2594168 41.592139,3.1354256 40.695192,2.8734353 39.879246,1.9534893 39.205282,2.0254888 38.207344,2.1324801 37.523381,4.4183454 36.178461,5.406291 34.945533,6.3122372 29.600848,7.3251748 28.857893,6.8172018 28.114937,6.3092372 27.829955,4.9993096 27.158,4.4523452 25.660081,3.234417 23.372216,5.6932732 21.20235,7.1721838 c -2.009883,1.367919 -3.986766,2.019882 -6.15664,2.223865 -3.431794,0.323982 -9.3134447,0.014 -12.1912742,-0.172991 -4.1367574,-0.268982 -2.52185582,1.4969192 -2.64284704,1.3259282 z"
     style="fill:#000000;stroke:none" />
</svg>
