<?xml version="1.0" encoding="UTF-8" standalone="no"?>
<svg>
  <path
     style="fill:#000000;stroke:none"
     d="m 10.817072,18.909164 c 2.90375,-0.0362 7.1825,-0.09 11.5975,-0.14625 12.05625,-0.15125 18.12125,-0.2025 26.37625,-3.39 1.01875,-0.34125 1.69625,-0.6625 1.68625,-0.97125 l -44.1062502,0 1.55375,-4.7450004 c 0.41375,-1.26375 0.96125,-2.4625 1.44875,-3.4175 0.30375,-0.5925 0.9537502,-1.32125 1.7262502,-0.45625 0.555,0.6225 0.2175,2.09375 1.73375,1.50125 0.98125,-0.38375 1.41625,-2.71 1.45875,-3.88 0.0538,-1.4375 -0.0875,-3.35875 -0.0875,-3.35875 0,0 -1.48375,-0.13875 -2.60375,0.0688 -1.02125,0.18875 -3.0075002,2.2275 -3.6000002,3.695 -0.73125,1.81375 -1.32375,3.76875 -2.5425,5.24 -0.7225,0.87375 -2.41375,1.8825004 -3.69,3.0700004 -0.725,0.67375 -1.17625001,1.2175 -1.40875001,1.8975 -2.30874999,6.72625 7.12750001,4.93375 10.45750021,4.8925 z" />
</svg>
