<?xml version="1.0" encoding="UTF-8" standalone="no"?>
<svg>
  <path
     style="fill:#000000;stroke:none"
     d="m 54.368751,22.199728 c 2.355,-0.055 3.99625,-0.1625 4.6425,-0.3275 2.174999,-0.5525 4.771249,-2.005 4.226249,-3.83875 -0.1,-0.335 -0.28375,-0.37875 -1.834999,-0.44125 l -49.676251,0.02375 c 0,0 -0.20625,-0.845 0.206251,-1.3775 2.539999,-3.275 6.288749,-8.4625003 6.432499,-10.8525003 0.09875,-1.625 -0.32,-4.2025 -1.925,-5.12750004 -1.726249,-0.99625 -2.885,0.97000004 -3.227499,4.47625004 -0.24,2.45625 -0.2075,5.9500003 -0.2075,5.9500003 0,0 -8.127501,1.64125 -10.462501,3.1775 -0.7525,0.495 -1.79,1.81375 -2.12125,3.08875 C 0.1025,18.182228 0.02,21.147228 0,22.250978 l 54.36875,-0.05125 z" />
</svg>
