<?xml version="1.0" encoding="UTF-8" standalone="yes"?>
<!-- Created with sK1/UniConvertor (http://sk1project.org/) -->
<svg xmlns="http://www.w3.org/2000/svg" xmlns:xlink="http://www.w3.org/1999/xlink"
  width="595.276pt" height="841.89pt" viewBox="0 0 595.276 841.89"
  fill-rule="evenodd">
  <path
     style="fill:#000000;stroke:none"
     d="m 43.495048,17.759766 c 1.884002,-0.044 3.197004,-0.13 3.714004,-0.262 1.740001,-0.442001 3.817004,-1.604002 3.381003,-3.071004 -0.08,-0.268 -0.227,-0.303 -1.468001,-0.353 l -39.7410438,0.019 c 0,0 -0.1650002,-0.676001 0.165001,-1.102001 2.0320018,-2.620003 5.0310048,-6.7700083 5.1460048,-8.6820102 0.079,-1.3000014 -0.256,-3.36200374 -1.540002,-4.10200454 -1.381,-0.7970009 -2.308002,0.7760009 -2.582002,3.58100394 -0.192,1.9650025 -0.166,4.7600055 -0.166,4.7600055 0,0 -6.5020078,1.313001 -8.3700098,2.5420033 -0.6020006,0.396 -1.43200154,1.451001 -1.69700183,2.471002 C 0.08200009,14.545762 0.01600002,16.917765 0,17.800766 l 43.495047,-0.041 z" />
</svg>
