<?xml version="1.0" encoding="UTF-8" standalone="no"?>
<svg>
  <path
     d="m 191.42864,91.04884 c 0.2025,2.80125 1.50875,4.5425 3.88625,5.045 3.06626,0.64875 4.80001,-1.01375 5.58626,-4.3775 0.1725,-0.7375 0.13375,-1.3525 -0.34125,-1.65 -0.90375,-0.56501 -3.38376,0.0213 -4.58376,-0.61501 -1.4925,-0.7925 -1.87125,-4.1625 -1.5025,-5.7375 0.37,-1.57625 1.31125,-3.265 1.5675,-4.48 0.0525,-0.24625 0.0763,-0.47376 -0.0312,-0.60001 -0.0138,-0.015 -0.0275,-0.0312 -0.04,-0.045 -3.61,-0.8225 -4.4875,13.21627 -4.54125,12.46002 z m -29.83378,-42.64254 -0.6875,0.0113 c -0.88375,0.0163 -1.0025,0.12625 -1.19125,1.10625 -0.0825,0.42875 -0.32875,1.08375 -0.605,1.71625 -1.6125,3.685 -3.53375,2.83375 -4.91751,0.11125 -1.26125,-2.48375 -2.7775,-5.23125 -3.0275,0.2825 -0.0987,2.21 0.1475,6.42376 1.85125,7.57126 1.82376,1.22875 4.65001,0.275 6.41376,-0.91625 0.415,-0.28 0.785,-0.60625 0.98625,-1.02125 0.115,-0.2375 0.175,-0.50501 0.2175,-0.76751 l 0.24875,-1.5425 1.71875,0.19375 c 0.31375,0.0362 0.64,0.0663 0.95375,0.0525 1.09375,-0.0487 1.93625,-0.57625 2.56626,-1.35625 2.8675,-3.54375 1.54375,-7.82375 -0.70376,-10.83501 -1.6825,-2.25375 -4.52,-5.79 -1.745,1.28125 1.0125,2.57876 0.85625,4.06126 -2.07875,4.11251 z m -45.65879,42.64254 c 0.20375,2.80125 1.51,4.5425 3.8875,5.045 3.06626,0.64875 4.80001,-1.01375 5.58626,-4.3775 0.1725,-0.7375 0.13375,-1.3525 -0.34125,-1.65 -0.90375,-0.56501 -3.38501,0.0213 -4.58376,-0.61501 -1.4925,-0.7925 -1.87125,-4.1625 -1.5025,-5.7375 0.37,-1.57625 1.31125,-3.265 1.5675,-4.48 0.0525,-0.24625 0.0762,-0.47376 -0.0312,-0.60001 -0.0138,-0.015 -0.0275,-0.0312 -0.0412,-0.045 -3.60875,-0.8225 -4.48625,13.21627 -4.54125,12.46002 z m -9.63251,-47.4513 -6.1025,6.06126 c -1.013764,1.0075 -1.157514,1.18875 -1.441264,1.80875 -0.3975,0.86875 -0.535,2.32125 -0.34,2.51875 0.6325,0.6375 2.866264,-0.91 3.643764,-1.48375 6.81125,-5.0225 9.91501,-8.18751 11.01626,-14.69126 0.55875,-3.30626 -1.19125,-4.58626 -4.28876,-5.00751 -4.915,-0.67 -9.791264,0.015 -11.700014,3.71501 0.2975,14.12626 0.7175,6.04875 4.885014,5.045 4.63625,-1.115 9.62126,-3.59375 4.3275,2.03375 z m 5.70126,-23.52627 -0.56625,-10.81376 c -0.085,-1.60375 -0.1175,-1.88375 -0.33125,-2.7925 -0.65626,-2.785 -2.42001,-4.31126 -4.26376,-5.29501 -2.34375,-1.2525 -4.13375,-1.71875 -6.55,0.045 -1.987514,1.45001 -2.175014,6.69876 -1.393764,7.52001 0.5825,0.6125 2.127514,0.5575 3.996264,0.1175 4.66875,-1.09625 5.13625,-0.8425 6.3525,4.09375 0.5775,2.34626 0.64625,4.54501 0.36125,6.90376 -0.60375,5.01126 -2.02125,7.44876 0.7575,10.39001 1.15751,1.22375 2.36501,1.41 5.00376,0.86625 1.875,-0.38625 2.2475,-1.2575 3.0325,-3.85375 0.55375,-1.8275 0.99125,-3.46376 0.85,-5.28626 -0.28125,-3.615 -4.19,-10.41001 0.52,-12.09876 0.87,-0.31125 2,-0.1075 2.97501,0.10375 1.31375,0.28625 1.53625,0.1575 2.22875,-1.2975 0.56875,-1.195 1.2275,-2.295 1.59,-3.5825 1.35875,-4.83126 -0.7225,-6.19376 -4.89751,-4.21501 -4.79125,2.27001 -6.9425,11.99501 -5.92,18.51502 0.31375,2.6875 0.6575,5.10751 0.6575,5.10751 0,0 -0.28625,-0.004 -0.6275,-0.0375 -1.34125,-0.13125 -3.645,-1.91251 -3.775,-4.39001 z m 49.90879,62.41256 -6.875,6.87375 6.875,6.87501 6.87376,-6.87501 -6.87376,-6.87375 z M 114.07857,68.48257 c 0,0 1.87875,1.3975 3.5625,2.64875 1.12,0.8325 2.10625,1.57125 3.1075,2.1275 2.58001,1.4325 5.66126,1.62625 7.56376,-0.77875 1.8325,-2.315 4.59751,-6.50501 4.78126,-7.49876 0.4325,-2.34625 -0.53251,-10.57751 -2.57876,-14.71126 -0.97625,-1.97375 -2.09,-2.9575 -3.345,-2.29125 -1.1975,0.63625 -5.10375,7.16 -4.96125,9.45251 0.0575,0.93125 0.5925,0.6375 1.73625,1.15375 1.05875,0.47875 2.6975,4.185 1.70125,4.86125 -0.59,0.4 -7.58626,-5.05875 -8.28126,-6.21625 -0.53375,-0.89001 -0.6975,-1.74001 -1.6875,-1.23126 -1.025,0.5275 -1.50125,3.11626 -2.635,4.29626 -1.165,1.21375 -5.91126,2.37 -7.79126,2.005 -2.68125,-0.52 -6.841264,-2.775 -7.962514,-4.5825 -1.38125,-2.22876 -2.69375,-6.47251 -4.5825,-4.01001 -3.5375,4.61251 -4.41876,11.11376 -2.865,15.46752 1.93875,5.43125 3.315,5.73625 0.10375,9.245 -2.72001,2.97001 -10.49876,5.15751 -16.43002,6.50876 -1.46125,0.3325 -2.99375,0.62 -4.57625,0.86375 -28.69128,4.42126 -43.55004,-0.81875 -66.18256,-17.30626 -1.24001,-0.90376 -2.22875996,-1.40376 -2.56875996,-1.03001 -0.765,0.84001 1.01624996,4.67251 1.71875996,6.01501 0.29125,0.55875 0.63375,1.19625 1.015,1.87625 12.19126,21.74002 46.20379,23.59127 67.38881,18.56377 6.1325,-1.45625 16.45876,-5.06751 19.27627,-7.78126 1.38125,-1.33 3.6075,-5.395 4.265,-7.78876 0.765,-2.78625 1.9275,-8.23125 4.03375,-7.34125 0.57,0.24 1.37375,0.755 2.165014,1.03875 2.16625,0.77875 7.31625,-0.365 8.9825,-2.005 1.62875,-1.60125 1.88375,-2.78126 3.32251,-2.61626 0.31,0.035 0.48125,0.14125 1.72375,1.06501 z m 79.24507,-40.80254 c 0.76,0.55875 1.38875,1.23 1.925,2.05375 0.2025,0.31 0.39,0.64125 0.57375,0.97625 1.63,2.97 1.9825,16.49502 3.84001,-0.36875 0.37,-2.73125 -0.95625,-4.6775 -2.83876,-6.72751 -2.30125,-2.505 -4.63875,-3.38 -4.63875,0.4175 0,0.70376 0,1.41001 0,1.41001 0,1.26 0.11375,1.48375 1.13875,2.23875 z m 9.04876,14.43876 c -2.505,-2.23625 -8.20126,-3.815 -10.56001,-3.8075 -2.94875,0.01 -5.75751,1.0675 -7.94001,2.74625 -8.05251,6.19626 -8.69376,14.12126 -2.1625,19.64877 1.41125,1.195 1.855,2.62375 -2.39375,2.92375 -1.2775,-0.16375 -3.82751,-1.0525 -4.97626,-1.545 -1.08125,-0.46375 -1.665,-0.99875 -2.5775,-2.5775 -0.705,-1.21875 -1.60625,-3.05876 -1.60625,-3.05876 0,0 -3.33875,4.57501 -5.55501,6.78251 -3.38625,3.3725 -8.56625,4.6025 -12.03001,2.86375 -4.58,-2.2975 -7.4175,-5.49875 -8.3225,-11.18626 -0.24375,-1.5325 -0.28,-1.875 -0.36125,-3.41875 C 143.13484,37.06004 141.94859,12.31251 141.11359,8.23501 140.30734,4.30376 139.25109,0 139.25109,0 c 0,0 -1.90625,4.33751 -2.72125,6.80376 -1.51,4.56875 -0.375,7.09626 1.14625,12.60251 0.57625,2.08625 0.9125,4.14375 1.145,6.30126 2.73125,25.29627 -1.505,30.09252 3.72375,44.11129 1.08125,2.8975 2.32501,3.545 5.51876,5.62125 4.21875,2.745 5.78,2.435 10.67126,0.16375 1.20625,-0.56 2.11625,-1.07375 3.43875,-2.26875 2.00875,-1.815 4.97126,-5.20125 4.97126,-5.20125 0,0 2.0625,2.30625 3.7575,3.69 7.00001,5.71625 23.65127,-1.15 31.92128,-4.61001 4.475,-1.8725 7.23126,-4.16625 8.55376,-8.88125 0.035,-0.12875 0.0713,-0.2575 0.105,-0.385 2.985,-11.06501 -0.44125,-4.21376 -4.72001,-1.53251 -2.42875,1.52126 -8.61126,3.51251 -11.11126,3.09251 -3.145,-0.52875 -12.04376,-7.00751 -12.71876,-8.97126 -1.08,-3.14375 4.53751,-3.7775 8.15126,-3.97125 0.11,-0.005 0.22125,-0.0112 0.335,-0.0162 7.84376,-0.38625 5.67625,-0.36875 13.38251,0.815 4.21625,0.64875 2.0275,-0.945 -2.42875,-5.24501 z m -39.84629,0.4625 c 4.65626,10.27251 4.15251,-4.58625 1.585,-3.14125 0.0625,-0.30625 0.17125,-0.52375 0.36,-0.83375 0.295,-0.485 0.7075,-0.8825 1.11501,-1.27875 7.10625,-6.90126 9.34375,-9.85376 19.63751,-14.69877 8.52126,-4.01125 22.34252,-9.21 22.34252,-9.21 0,0 0,1.19375 0,1.9525 0,0.15875 -0.001,0.3125 -0.002,0.46375 -3.16125,13.18501 -2.32875,7.30125 1.15375,2.405 1.78501,-2.50875 8.31751,-8.31126 11.49626,-9.79376 3.74876,-1.7475 6.62376,-1.6325 7.48626,-5.24 0.26,-1.08626 0.49,-2.63251 0.49,-2.63251 l -0.57375,0 0,-0.57375 -0.91625,0 c -0.4125,0 -0.615,0.0713 -2.025,0.70625 -6.40001,2.88251 -13.05501,5.87251 -19.40002,8.17376 -15.17501,5.50376 -16.08001,5.42251 -31.22128,14.60751 -3.25625,1.97501 -5.55875,3.54376 -7.775,5.92751 -2.89126,3.11 -6.56876,6.95126 -3.75251,13.16626 z m -12.36126,-39.73503 -2.80375,0 0,4.9725 c 0,1.54625 0.0212,1.785 0.21375,2.38375 0.35,1.0925 1.0425,1.7375 1.31,1.80875 1.095,0.2925 3.44625,-1.4025 5.01625,-0.94625 0.5275,0.1525 0.96626,0.5475 1.35376,1.0275 2.62125,3.23251 3.8375,3.89876 4.0875,0.70625 0.3325,-4.2725 -1.2025,-3.4025 2.99625,-4.55375 0.63375,-0.17375 1.23375,-0.35875 1.635,-0.53 0.485,-0.20625 0.6825,-0.3925 0.86,-0.85875 0.17375,-0.46125 0.32875,-1.1975 0.4575,-1.97125 0.29251,-1.76625 -0.2975,-5.51126 -2.895,-4.79501 -2.8225,0.77875 -3.5,2.37876 -4.5475,5.69376 -0.4675,1.48 -0.555,1.64875 -0.86375,1.68375 -1.10875,0.1275 -1.28625,-0.42125 -2.64376,-2.1825 -0.51125,-0.66375 -1.07875,-1.26125 -1.75875,-1.7325 -0.915,-0.63625 -1.1575,-0.70625 -2.4175,-0.70625 z m 30.47628,9.88125 c 0.19875,0.74251 0.12375,1.60126 0.0563,2.32376 0.002,3.7375 1.21375,2.84375 2.37125,1.12 2.8125,-4.19376 2.40125,-6.43001 7.58251,-8.50376 1.19625,-0.47875 2.19,-0.815 2.88,-1.81375 1.14375,-1.6575 1.88875,-5.34376 1.4325,-5.72876 -0.35375,-0.29875 -1.2575,-0.01 -2.205,0.3325 -3.3225,1.20125 -34.92628,17.39752 -40.44504,23.86253 -3.17875,3.72625 -6.26125,11.75001 -2.32125,16.47876 0.6325,0.75875 1.4075,1.07125 2.005,0.5725 0.6,-0.5 0.7575,-3.4775 0.24625,-4.6725 -0.5525,-1.29 -1.425,-1.98751 -1.39125,-3.00376 0.095,-2.8925 9.74251,-9.65126 10.31126,-10.08251 3.87125,-2.93375 16.46002,-10.31625 18.56127,-10.88501 0.42625,-0.115 0.8575,-0.22125 0.91625,0 z"
     style="fill:#000000;stroke:none" />
</svg>
