<?xml version="1.0" encoding="UTF-8" standalone="yes"?>
<svg>
<path
	style="stroke:none;fill:#000000"
	d="m 24.935414,24.9275 0.67375,-0.0125 c 0.3025,-0.005 0.38375,-0.19625 0.81125,-1.91 2.46125,-9.86 2.91125,-15.30375 -3.14375,-21.62625 -0.99625,-1.04125 -2.15875,-1.91499 -2.90625,-0.9825 C 19.862924,1.03 19.344174,5.5 19.575424,6.475 c 0.405,1.7075 1.60374,2.26125 2.98999,3.42 3.12875,2.61875 3.91375,4.5825 3.515,8.06875 -0.305,2.67625 -1.145,6.96375 -1.145,6.96375 z m 99.721236,-4.66 -0.16875,-4.00375 c -0.0675,-1.61875 -0.045,-1.90875 0.22625,-2.90125 0.2,-0.735 0.4125,-1.54 0.95125,-2.0575 1.31,-1.26375 4.555,-0.8275 6.05999,-1.8675 2.16625,-1.49875 2.16875,-6.645 0.50125,-8.73125 -1.76874,-2.21249 -5.34249,1.30125 -6.80624,3.31125 -0.9,1.235 -1.75125,2.64875 -2.135,4.3 -0.1775,0.76625 -0.275,1.635 -0.41375,2.395 l -0.68,3.725 -2.24625,-2.965 c -3.0725,-4.2 -2.135,-5.44875 -6.6525,-6.59125 -1.5125,-0.3825 -4.79375,-0.23875 -5.425,1.52875 -0.49375,1.38375 0.665,4.7475 1.39125,5.54625 0.5575,0.615 2.8175,2.13875 3.75125,2.2325 1.52625,0.1525 4.6425,-0.81125 4.6425,-0.81125 0,0 2.51625,3.7575 4.0525,5.5225 0.67,0.77 1.225,1.39 2.085,1.40625 0.355,0.007 0.86625,-0.0388 0.86625,-0.0388 z m -5.63375,2.01125 c -3.47625,2.88875 -6.125,5.87 -7.0875,8.72625 -1.07875,3.20375 -0.8775,6.79375 1.2725,9.88125 0.0913,0.1325 0.175,0.2525 0.25125,0.36 -0.97,-1.3675 2.63125,4.3825 2.42375,-1.45875 -0.0488,-1.39625 -0.20125,-3.14875 -0.6425,-3.58875 -0.25625,-0.25625 -0.61,-0.07 -0.8325,-0.20875 -0.9975,-0.62125 0.7,-3.185 1.50875,-4.16375 3.68875,-4.46875 10.3275,-9.48 17.29624,-13.64875 l 0.0138,-0.06 c 3.48375,-1.905 6.74875,-3.375 9.40625,-4.16875 0.9425,-0.2825 1.88625,-0.5225 2.08875,-0.19875 0.1,0.16125 0.0163,0.46125 -0.11625,0.8025 -0.31375,0.8025 -0.835,1.7825 -1.41625,2.835 -12.045,21.835 7.205,-8.63875 13.13375,-9.85875 0.52875,-0.3175 1.02875,-0.5775 1.47375,-0.7575 2.27875,-0.9175 4.79,-1.24875 4.95,-3.58375 0.0225,-0.3275 0.004,-0.7325 -0.0325,-1.125 -0.33875,-3.78374 -6.1875,-1.5675 -10.28625,0.375 -3.48125,1.65 -8.5,4.24625 -13.89625,7.25625 -0.44375,0.2475 -12.22124,6.52875 -19.50874,12.585 z m 13.74499,28.00875 0.67375,-0.0125 c 0.3025,-0.005 0.38375,-0.19625 0.81125,-1.91 2.46125,-9.86 2.91125,-15.30375 -3.14375,-21.62625 -0.99624,-1.04125 -2.15874,-1.915 -2.90624,-0.9825 -0.5075,0.63375 -1.02625,5.10375 -0.795,6.07875 0.405,1.7075 1.605,2.26125 2.99,3.42 3.12999,2.61875 3.91374,4.5825 3.51624,8.06875 -0.30625,2.67625 -1.14625,6.96375 -1.14625,6.96375 z m -12.03749,8.83249 -5.88,6.06125 c -0.9775,1.00625 -1.11625,1.1875 -1.39,1.8075 -0.3825,0.86875 -0.515,2.32125 -0.3275,2.51875 0.61,0.6375 2.7625,-0.91 3.5125,-1.48375 6.56375,-5.0225 9.55375,-8.18625 10.615,-14.69124 0.54,-3.30625 -1.1475,-4.58625 -4.1325,-5.0075 -4.73625,-0.66875 -9.43625,0.015 -11.27625,3.715 0.2875,14.12624 0.6925,6.04874 4.70875,5.04499 4.4675,-1.115 9.2725,-3.59249 4.17,2.035 z M 37.359164,16.1225 l 8.07,-8.06125 -8.07,-8.06125 -8.07,8.06125 8.07,8.06125 z m 7.42625,45.37749 8.06875,-8.06124 -8.06875,-8.06125 -8.06875,8.06125 8.06875,8.06124 z m -17.14125,42.0275 c 0.22375,3.08125 1.6625,4.99625 4.28,5.55 3.3775,0.7125 5.28625,-1.11625 6.15125,-4.81625 0.19,-0.8125 0.1475,-1.48875 -0.375,-1.815 -0.995,-0.62125 -3.7275,0.0237 -5.0475,-0.6775 -1.64375,-0.87125 -2.06125,-4.5775 -1.655,-6.31125 0.4075,-1.73375 1.44375,-3.59125 1.72625,-4.9275 0.0575,-0.27125 0.0838,-0.52 -0.0337,-0.65875 -0.015,-0.0187 -0.03,-0.035 -0.045,-0.05 -3.975,-0.905 -4.94125,14.5375 -5.00125,13.70625 z m 87.117486,5.70125 8.06875,-8.06125 -8.06875,-8.06 -8.07,8.06 8.07,8.06125 z M 16.944174,67.55124 c -6.25,-1.91625 -9.6524996,-5.68625 -9.3799996,-12.66374 -0.23,-1.53375 -0.47,-3.39 -0.68875,-5.295 -1.165,-10.12125 -1.0275,-25.67375 -1.005,-33.73 0.0138,-5.155 0.03,-11.44875 0.0362,-13.88 0.002,-0.65125 0.006,-1.9825 0.006,-1.9825 0,0 -0.73875,0.105 -1.21875,0.1725 -2.63,0.37 -4.29499998,4.97 -4.49124998,7.215 -0.385,4.4175 -0.14,11.4975 0.0675,15.7625 0.2725,5.60375 0.43,9.72625 0.51625,12.8075 0.165,5.83 0.38624998,10.8625 0.67624998,15.19875 1.465,21.93874 4.61,27.09499 14.7237496,28.16999 5.56749,0.59125 30.63874,1.04875 33.94499,-3.88 1.15,-1.715 2.61,-4.675 2.61,-4.675 0,0 2.0025,1.73375 3.47875,2.74625 0.96375,0.66 2.31125,1.22875 3.645,1.51875 6.64,1.4475 11.05625,-5.9725 12.27875,-6.21875 0.6125,-0.49125 1.47625,-0.715 2.64375,-0.54875 0.95124,0.135 2.00249,0.3325 2.85749,0.92625 2.20875,1.5325 2.89125,4.4375 4.9625,3.39625 1.62875,-0.8175 4.32,-6.2375 4.56,-7.53375 0.35125,-1.91 -0.5375,-3.3925 -2.265,-5.29125 -2.0475,-2.25 -4.1725,-3.6225 -5.4725,-5.49124 -0.49875,-0.7175 -1.085,-9.54125 -1.2125,-16.44625 0.006,-0.2375 0.0138,-0.465 0.0225,-0.68375 0.37,-9.36375 0,-21.6125 0,-21.6125 0,0 1.01,-0.0375 1.90375,0 7.57875,0.3125 16.0925,9.4775 18.6275,15.4375 1.808746,4.25125 4.186246,14.21375 3.273746,17.09375 -0.58625,1.85 -2.01625,4.4025 -3.227496,6.38625 -3.10625,5.08874 -3.12625,6.17249 -2.33,5.97124 2.61625,-0.66125 4.928746,-6.24124 6.039996,-8.76249 1.5875,-3.60375 3.12625,-7.9775 4.37875,-14.09625 0.2025,-2.7575 -0.0187,-5.705 -0.69125,-9.01375 -1.30875,-6.4375 -4.555,-11.835 -8.763746,-16.61125 -2.06,-2.33625 -4.65625,-4.7275 -6.71375,-5.66875 -3.1475,-1.44 -7.12375,-1.24125 -11.3075,-3.705 -1.69125,-0.995 -3.56375,-2.41125 -3.56375,-2.41125 0,0 -1.81749,3.725 -2.68499,6.11625 -1.69625,4.67375 -1.41125,10.36 -0.8775,15.8875 1.50375,15.565 1.50625,15.425 1.565,31.35625 0.006,1.84624 -0.0288,3.36124 -0.0288,3.36124 0,0 -1.8175,-0.24875 -2.845,0.005 -0.89625,0.22 -1.19,0.8225 -1.385,1.50875 -0.39125,1.385 -0.375,3.11125 -1.15875,4.07625 -0.59375,0.73125 -3.28625,1.20625 -4.89875,0.865 -1.415,-0.3 -2.4575,-0.8625 -4.35625,-2.47125 -1.4575,-1.23375 -3.41875,-3.08375 -3.41875,-3.08375 0,0 -2.27875,3.81625 -3.72375,5.86375 -0.3525,0.49875 -0.66125,0.88875 -0.9625,1.1975 -0.62625,0.64125 -2.1025,1.16875 -4.15125,1.5975 -7.1875,1.50625 -21.57375,3.7 -29.99624,1.11875 z m 52.85624,-0.7225 -0.74125,11.54625 -0.14375,2.23875 c -0.1075,1.66375 -0.1075,2.01625 0.003,3.5275 0.4075,5.61125 5.62625,10.82625 10.94749,10.05375 3.21875,-0.4675 10.06375,-4.46375 11.84375,-7.41 2.04375,-3.38625 4.53625,-10.4575 5.90625,-10.85375 0.55,-0.16 1.175,-0.2625 1.175,-0.2625 0,0 1.227496,4.95375 2.439996,7.41 1.9275,3.905 7.315,7.8475 11.01,7.41125 1.01375,-0.12 2.03125,-0.36125 2.97625,-0.92625 1.03625,-0.62 1.80125,-1.20875 2.4025,-1.735 l 3.04625,-2.66625 2.76625,0.97625 c 3.36875,1.18625 3.73375,1.6975 7.2575,1.26375 6.13749,-0.7575 26.98124,-3.73 29.45999,-12.96875 0.305,-1.14 0.31375,-2.40375 0.595,-3.705 0.8925,-4.13625 4.1675,-7.97 0.23125,-6.56625 -2.9275,1.04375 -5.6775,2.7325 -8.78625,3.75 -2.1675,0.71 -6.88375,0.9075 -8.21625,0.34625 -1.26375,-0.53375 -3.58,-2.22125 -4.72625,-3.67875 -1.6325,-2.075 -3.50625,-5.77875 -3.50625,-5.77875 0,0 2.59125,-1.72875 4.47125,-2.585 5.16125,-2.34999 9.905,-0.4925 15.17625,0.92625 1.60125,0.43125 2.28625,-0.005 1.4875,-2.46999 -1.13875,-3.5125 -4.075,-5.96375 -7.14125,-7.10125 -7.90375,-2.9325 -12.44625,0.22875 -17.03375,7.87999 -1.1025,1.8375 -1.92624,3.54125 -2.01124,5.52 -0.37125,8.67625 5.57624,16.73625 -1.31125,13.8625 -1.62875,-0.68 -6.0275,-3.38625 -7.2225,-2.87 -0.86625,0.375 -1.2425,2.11625 -2.1775,3.39625 -1.70375,2.3325 -5.065,3.16875 -7.0225,2.77875 -6.30375,-1.25625 -9.06125,-8.1525 -11.13,-14.2025 -1.22875,-3.5975 -2.061246,-5.9325 -2.126246,-8.08625 l -0.845,-3.86874 c -0.0875,0.13 -0.13625,0.20125 -0.13625,0.20125 0,0 -1.14875,-3.72625 -2.24875,-6.7725 -0.58125,-1.61375 -4.1175,-9.555 -6.48625,-8.645 -1.8625,0.71375 -2.33125,9.86125 -2.1425,11.23875 0.54,3.945 3.8575,7.48499 5.95125,11.60874 3.645,7.18125 1.74125,14.12125 -5.35625,19.4525 -5.675,4.26375 -11.64875,4.16 -14.57999,-2.77875 l -4.055,-9.4575 z M 53.992914,8.0425 c 2.1825,-0.485 4.2475,2 4.88,4.6925 0.18875,0.8025 -0.0288,1.54625 -0.56125,2.175 l -1.36,1.60625 -2.32,-0.0288 c -1.52875,-0.0188 -3.01375,-0.71875 -3.495,-2.06 -0.72875,-2.0325 0.53375,-5.87 2.85625,-6.385 z m -27.46625,23.88 c -4.56,-1.48875 -8.71124,-4.81625 -10.50249,-8.4425 -2.57125,-5.2025 -2.4575,-8.98625 0.1,-14.55875 0.49625,-1.08375 2.45375,-4.34375 2.21,-4.75125 -0.24,-0.40125 -0.80875,-0.18375 -1.35875,0.1675 -4.1825,2.67 -7.7187496,16.285 -6.9025,22.725 0.865,6.83 4.7375,12.53625 10.88624,15.115 8.8275,3.7025 24.5725,3.86625 35.0325,-3.97 9.195,-6.88625 14.20625,-20.19625 6.29625,-33.79875 -3.8275,-4.70249 -9.395,-6.39249 -12.63875,-1.3075 -2.64875,4.15125 -5.2175,15.5275 -2.38125,19.76125 0.635,0.9475 1.6125,1.8525 2.8475,2.4525 1.92625,0.9375 4.44,1.37875 3.40125,2.735 -0.025,0.0325 -0.0525,0.0637 -0.0825,0.0937 -10.05125,6.0875 -23.88375,4.765 -26.9075,3.77875 z"/>
</svg>