<?xml version="1.0"?>
<svg xmlns="http://www.w3.org/2000/svg" version="1.1">
  <path
     d="m 87.419597,27.656964 -0.549,0.01 c -0.707,0.012 -0.803,0.101 -0.954,0.884 -0.066,0.344 -0.263,0.868 -0.484,1.374 -1.289,2.948 -2.826,2.266 -3.933,0.089 -1.01,-1.987 -2.223,-4.185 -2.422,0.225 -0.08,1.769 0.118,5.14 1.48,6.058 1.459,0.982 3.72,0.22 5.131,-0.733 0.332,-0.224 0.629,-0.485 0.789,-0.817 0.093,-0.191 0.14,-0.404 0.174,-0.615 l 0.199,-1.233 1.375,0.155 c 0.251,0.028 0.512,0.052 0.763,0.041 0.875,-0.038 1.549,-0.461 2.054,-1.085 2.293,-2.834 1.234,-6.258 -0.564,-8.668 -1.345,-1.803 -3.616,-4.631 -1.395,1.025 0.81,2.063 0.684,3.249 -1.664,3.29 z m -9.26,-16.08 c -0.039,0.176 -0.059,0.53 0.038,0.719 0.138,0.272 0.578,0.195 1.157,-0.063 l 15.015,-8.5780001 c 0.255,-0.466 0.451,-1.018 0.59,-1.687 0.898,-4.32 -4.745,0.516 -12.535,3.858 -1.518,0.651 -2.739,1.191 -3.255,2.094 -0.588,1.027 -0.804,2.7310001 -1.01,3.6570001 z m 53.091003,-5.1690001 0.077,2.2 c 0,0 -0.301,-0.093 -0.579,-0.195 -1.224,-0.447 -2.159,-1.222 -2.784,-2.308 -0.089,-0.155 -0.176,-0.32 -0.214,-0.391 -0.216,-0.089 2.685,-2.676 3.5,0.694 z m -0.677,-6.103 c -1.064,-0.176 -2.459,0.163 -3.438,0.807 -1.792,1.18 -1.989,6.554 -1.488,7.406 0.666,1.134 2.447,2.1690001 3.531,3.3260001 2.091,3.676 -1.506,9.568 0.782,6.738 1.958,-2.421 4.104,-9.9630001 4.008,-13.4810001 -0.067,-2.436 -0.933,-4.389 -3.395,-4.796 z m -59.341003,61.1900001 0.707,0 c 0.318,0 0.416,-0.117 0.982,-1.17 2.77,-5.156 2.833,-7.922 2.287,-15.352 -0.492,-6.701 -1.104,-13.988 -2.209,-21.249 -0.43,-2.826 -0.935,-5.649 -1.325,-8.173 -0.123,-0.792 -0.234,-1.555 0,-1.767 0.133,-0.121 0.378,-0.063 0.65,0.131 0.044,0.031 0.088,0.066 0.134,0.103 3.028,1.691 2.82,1.18 2.255,0.255 -0.916,-1.499 -1.71,-6.3320001 -2.058,-8.1020001 -0.287,-1.461 -0.505,-2.572 -0.505,-2.572 -0.23,-1.171 -0.267,-1.347 -0.376,-1.762 l -0.344,-1.578 -1.536,0.95 c -0.433,0.268 -0.922,0.672 -1.457,1.16 -0.653,0.596 -1.067,1.156 -1.376,2.085 -0.456,1.372 -0.495,5.026 -0.059,5.6090001 0.106,0.142 0.233,0.241 0.361,0.4 1.021,1.261 1.398,3.569 1.218,4.646 -0.145,0.87 -0.567,1.745 -0.883,2.642 -0.576,1.634 3.596,26.798 3.755,35.35 0.074,4.02 -0.221,8.394 -0.221,8.394 z m -65.1500004,-48.863 c -0.5203,0.83 -1.0004,1.637 -1.2027,2.09 -0.1382,0.31 -0.2805,0.621 -0.4248,0.933 -0.7818,1.695 -1.4933,3.242 -2.0478,4.714 -1.41770001,3.763 -1.94200001,12.999 3.7105,14.829 1.2476,0.404 2.6376,-0.147 4.0485004,-2.378 1.1043,-1.746 1.8653,-4.079 1.8653,-4.079 0,0 -2.8540004,0.859 -4.2054004,0.41 -5.4374,-1.804 -3.1523,-9.322 -1.5781,-13.72 1.3149,-3.674 2.2494,-6.6530001 -0.1655,-2.799 z m 134.1790034,32.983 -4.619,4.589 c -0.768,0.763 -0.877,0.9 -1.092,1.369 -0.301,0.658 -0.405,1.758 -0.257,1.907 0.479,0.483 2.17,-0.689 2.759,-1.124 5.156,-3.802 7.505,-6.197 8.339,-11.122 0.424,-2.503 -0.901,-3.471 -3.246,-3.79 -3.721,-0.507 -7.413,0.011 -8.858,2.812 0.225,10.694 0.543,4.579 3.698,3.82 3.51,-0.845 7.284,-2.721 3.276,1.539 z M 24.310597,8.6029639 l -4.62,4.5890001 c -0.767,0.762 -0.876,0.899 -1.0912,1.369 -0.3008,0.657 -0.4048,1.757 -0.257,1.906 0.4782,0.483 2.1702,-0.689 2.7592,-1.123 5.156,-3.803 7.505,-6.1980001 8.339,-11.1220001 0.424,-2.503 -0.902,-3.472 -3.247,-3.791 -3.72,-0.506 -7.412,0.012 -8.8574,2.813 0.2256,10.6940001 0.5433,4.579 3.6984,3.819 3.51,-0.844 7.283,-2.72 3.276,1.54 z m 19.683,-6.866 c -0.541,-0.553 -1.208,-1.036 -1.926,-1.244 -0.517,-0.15 -1.128,-0.234 -1.128,-0.234 l -1.009,4.86 c 0,0 2.786,1.527 4.06,3.543 0.864,1.3650001 1.267,3.2500001 1.572,4.8460001 0.809,4.24 -0.131,12.809 1.605,4.227 1.93,-9.5400001 -2.257,-15.0610001 -3.174,-15.9980001 z m -9.668,16.3880001 3.4,3.4 4.894,-4.894 -4.894,-4.894 -3.4,3.401 -3.401,-3.401 -4.894,4.894 4.894,4.894 3.401,-3.4 z m 20.571,9.272 4.894,-4.894 -4.894,-4.894 -4.894,4.894 4.894,4.894 z m 87.840003,53.49 4.894,-4.894 -4.894,-4.893 -4.894,4.893 4.894,4.894 z m -100.058003,-41.674 -4.96,-0.173 c -1.295,-0.045 -1.502,-0.093 -2.064,-0.485 -0.928,-0.645 -1.915,-2.075 -1.977,-2.922 -0.046,-0.641 0.054,-1.535 0.054,-1.535 0,0 2.202,-0.468 3.759,-0.349 1.363,0.104 5.078,2.193 5.261,3.383 0.121,0.791 -0.073,2.081 -0.073,2.081 z m -11.931,-2.184 c -1.273,6.407 -0.459,10.348 4.784,11.541 1.856,0.422 3.019,0.241 4.438,-0.566 4.657,-2.648 7.452,-6.451 8.647,-0.034 0.261,1.403 -0.303,1.944 -2.031,3.147 -7.687,5.353 -16.127,8.664 -25.576,8.953 -6.2409,0.191 -11.0824004,-2.346 -14.5886004,-7.234 -3.0623,-4.268 -2.9541,-6.249 -2.2246,-11.94 0.2435,-1.9 0.4573,-3.759 1.4053,-5.859 0.6276,-1.39 1.577,-2.886 1.3165,-3.316 -0.112,-0.185 -0.4478,-0.173 -0.7675,-0.027 -1.8889,0.861 -4.9877,11.339 -5.45770001,13.248 -2.17029999,8.815 0.74750001,17.587 8.88800001,22.081 7.5799004,4.184 18.4816004,1.042 25.4686004,-1.9 2.618,-1.102 9.464,-5.474 10.769,-6.876 1.983,-2.132 6.386,-9.799 7.249,-13.964 0.125,-0.6 0.187,-1.163 0.061,-1.727 -0.255,-1.136 -1.276,-2.277 -1.322,-3.408 -0.059,-1.44 1.464,-2.863 1.085,-3.583 -0.292,-0.557 -1.719,-0.694 -2.757,-1.275 -1.403,-0.785 -1.495,-2.019 -2.581,-4.032 -1.888,-3.501 -9.149,-8.15 -12.338,-4.273 -1.217,1.48 -4.192,9.654 -4.468,11.044 z m 28.976,-8.035 c 0,0 -1.492,1.83 -2.427,3.134 -2.569,3.584 -2.081,5.262 -0.079,9.123 1.222,2.356 3.653,10.317 3.467,11.35 -0.492,2.731 -9.656,10.024 -14.237,12.903 -2.548,1.601 -18.039,7.8 -27.143,11.501 -1.2002,0.488 -1.3465,0.582 -1.4625,0.942 -0.5259,1.631 0.233,0.8 3.7435,0.003 3.095,-0.702 8.755,0.492 12.175,0.425 5.062,-0.099 11.122,-3.897 15.516,-7.342 2.583,-2.026 6.399,-5.569 8.577,-7.859 1.772,-1.862 7.188,-13.417 7.104,-16.227 -0.001,-0.05 -0.004,-0.098 -0.009,-0.143 -0.186,-1.821 -1.343,-3.815 -0.595,-4.619 0.16,-0.173 0.399,-0.223 0.566,-0.388 1.144,-1.134 -0.516,-4.582 -1.496,-6.333 -1.385,-2.475 -3.7,-6.47 -3.7,-6.47 z m 32.977,27.304 -0.216,6.191 c -0.045,1.295 -0.044,1.56 0.006,2.653 0.147,3.143 3.631,8.772 5.308,10.212 3.124003,2.682 7.539003,2.051 10.963003,-0.477 3.746,-2.765 10.555,-9.795 11.104,-12.518 0.618,-3.06 0.262,-7.495 0.262,-7.495 0,0 0.764,1.072 1.368,2.106 2.11,3.613 2.229,8.16 3.708,10.696 2.137,3.661 7.63,5.011 12.022,2.333 0.811,-0.494 1.528,-1.094 2.18,-1.595 l 1.67,-1.283 2.234,1.23 c 2.407,1.548 7.349,2.71 8.695,2.845 4.612,0.465 19.374,-3.142 25.853,-5.294 2.863,-0.951 3.816,-1.626 5.196,-4.381 1.152,-2.301 2.297,-5.423 2.915,-7.823 0.086,-0.334 0.161,-0.653 0.025,-0.72 -0.108,-0.053 -0.35,0.054 -0.48,-0.016 -0.089,-0.049 -0.125,-0.181 -0.193,-0.284 -0.26,-0.39 -0.984,-0.368 -1.709,-0.263 -3.2,0.461 -8.145,3.75 -12.185,5.098 -3.601,1.201 -7.769,1.731 -10.091,0.128 -1.26,-0.87 -2.44,-2.055 -3.935,-4.22 -1.24,-1.797 -2.697,-4.269 -2.697,-4.269 0,0 2.298,-0.666 4.089,-1.206 4.241,-1.279 7.185,-1.844 9.67,-1.824 1.688,0.014 3.837,0.134 3.837,0.134 0,0 0.12,-1.128 0.067,-1.919 -0.133,-1.995 -4.126,-4.934 -6.043,-5.734 -4.354,-1.817 -8.225,-1.037 -11.614,2.476 -2.681,2.779 -5.515,12.014 -4.371,15.14 0.936,2.557 3.454,5.883 3.454,5.883 0,0 -4.105,-0.66 -6.485,-1.589 -1.219,-0.476 -1.985,-1.022 -2.581,-1.636 l -1.443,-1.386 -1.461,1.487 c -0.552,0.562 -1.099,1.281 -1.728,1.763 -0.977,0.75 -2.827,1.222 -4.575,1.417 -7.174,0.801 -8.975,-3.329 -10.687,-9.275 -1.706,-5.931 -2.956,-12.521 -8.613,-18.514 -0.721,-0.764 -1.443,-1.444 -2.034,-1.909 -1.877,-1.479 -4.608,-3.216 -4.608,-3.216 0,0 -1.584,4.925 -1.787,7.555 -0.255,3.305 1.618,2.905 4.588,4.8 3.114,1.987 7.269,10.883 7.171,12.283 -0.137,1.958 -7.265,10.585 -11.358,12.709 -5.236,2.718 -8.691003,1.209 -11.636003,-3.768 l -3.855,-6.525 z m 9.654003,-1.915 c 0.164,-0.604 0.322,-1.277 0.516,-1.911 0.56,-1.837 2.326,-3.929 3.084,-5.81 0.526,-1.303 0.521,-3.467 0.206,-5.89 -1.212,-9.31 -3.851,-30.274 -3.851,-30.274 0,0 4.608,2.462 7.169,4.021 5.049,3.073 12.194,11.964 14.07,16.582 0.852,2.098 1.874,6.153 1.374,8.789 -0.077,0.406 -0.186,0.871 -0.311,1.353 -2.06,7.941 -0.301,5.336 1.265,2.301 2.77,-5.367 3.383,-8.935 3.229,-8.266 0.6,-2.599 0.713,-5.247 0.217,-7.753 -1.021,-5.155 -11.73,-18.3240001 -15.902,-21.1600001 -1.833,-1.246 -3.77,-2.318 -5.707,-3.194 -3.118,-1.411 -7.615,-3.171000004905 -7.615,-3.171000004905 0,0 -2.727003,4.457000004905 -3.318003,6.785000004905 -0.282,1.111 -0.077,1.738 0.105,2.791 0.031,0.177 0.062,0.367 0.137,0.5360001 0.102,0.229 0.13,0.397 0.281,1.684 l 4.105003,35.041 c 0.151,1.287 0.137,1.451 -0.138,1.642 -0.713,0.492 -3.120003,0.922 -3.289003,0.94 -1.729,0.191 -6.961,-1.09 -8.367,-2.453 -1.205,-1.168 -1.924,-3.68 -3.429,-2.761 -1.035,0.631 -2.711,4.588 -2.913,5.565 -0.61,2.946 0.736,5.646 1.591,9.47 0.678,3.035 -0.827,3.641 -5.488,5.86 -3.41,1.622 -6.56,3.278 -10.58,4.718 -8.269,2.961 -22.715,8.256 -23.279,8.988 -0.468,0.608 -0.431,1.004 0.968,1.244 0.532,0.091 0.735,0.112 2.028,0.212 12.455,0.961 14.633,1.647 25.689,-4.537 4.569,-2.555 11.153,-6.37 12.847,-10.957 0.041,-0.109 0.969,-4.95 2.066,-6.413 0.396,-0.526 0.541,-0.581 1.452,-0.549 0,0 0.112,0.004 0.476,0.016 1.314,0.046 4.419,-0.284 6.402,-0.531 4.876003,-0.61 4.499003,-1.393 4.910003,-2.908 z"
     style="fill:#000000;stroke:none" />
</svg>
