<?xml version="1.0" encoding="UTF-8" standalone="yes"?>
<svg>
<path
	style="stroke:none;fill:#000000"
	d="m 20.8775,11.022297 -5.88,6.06125 c -0.9775,1.00625 -1.11625,1.1875 -1.39,1.8075 -0.3825,0.86875 -0.515,2.32125 -0.3275,2.51875 0.61,0.6375 2.7625,-0.91 3.5125,-1.48375 6.56375,-5.0225 9.55499,-8.18625 10.61624,-14.69125 0.53875,-3.30625 -1.14875,-4.58624997 -4.13374,-5.00749997 -4.73625,-0.66875 -9.435,0.015 -11.275,3.71499997 0.2875,14.12625 0.69125,6.0487499 4.7075,5.0449999 4.4675,-1.115 9.27249,-3.5924999 4.17,2.0350001 z M 0.17777204,48.763878 c -0.519875,7.19499 -0.229625,10.56124 5.49437396,13.79624 0.02475,0.015 0.04963,0.0287 0.07438,0.0425 4.275625,2.39375 10.355747,1.6875 12.493497,-3.84 0.31875,-0.8225 0.50375,-1.8 0.71,-3.13875 0.35625,-2.31374 -0.1775,-4.69624 -2.38075,-3.98999 -1.61075,0.515 -3.502998,2.9075 -5.405498,3.86999 -2.769999,1.4025 -6.509123,-1.01124 -7.780998,-4.18374 -1.147625,-2.8625 1.711624,-9.45875 2.976124,-13.465 0.931625,-2.95125 1.753875,-6.4875 1.144625,-7.12625 -2.013625,-2.11 -5.940124,10.21 -6.409999,12.3525 -0.48412496,2.2075 -0.81199996,4.24625 -0.91574996,5.6825 z m 50.34224596,-28.49625 -0.16875,-4.00375 c -0.0675,-1.61875 -0.0462,-1.90875 0.225,-2.90125 0.20125,-0.735 0.41375,-1.54 0.95125,-2.0575 1.31124,-1.26375 4.55624,-0.8275 6.06124,-1.8675002 2.16625,-1.49875 2.1675,-6.645 0.5,-8.73124998 -1.7675,-2.21249002 -5.34125,1.30124998 -6.80624,3.31124998 -0.89875,1.235 -1.75,2.64875 -2.13375,4.3 -0.1775,0.76625 -0.27625,1.635 -0.415,2.3950002 l -0.68,3.725 -2.245,-2.965 c -3.07375,-4.2000002 -2.13625,-5.4487502 -6.6525,-6.5912502 -1.51375,-0.3825 -4.795,-0.23875 -5.42625,1.52875 -0.4925,1.38375 0.66625,4.7475002 1.39125,5.5462502 0.55875,0.615 2.81875,2.13875 3.7525,2.2325 1.525,0.1525 4.6425,-0.81125 4.6425,-0.81125 0,0 2.515,3.7575 4.0525,5.5225 0.67,0.77 1.225,1.39 2.085,1.40625 0.355,0.007 0.86625,-0.0388 0.86625,-0.0388 z m 6.37499,34.35875 0.67375,-0.0113 c 0.3025,-0.006 0.38375,-0.1975 0.81125,-1.91125 2.46125,-9.85875 2.91125,-15.30375 -3.14375,-21.62625 -0.99625,-1.04125 -2.1575,-1.915 -2.90625,-0.98125 -0.50749,0.6325 -1.02624,5.1025 -0.79499,6.07875 0.405,1.70625 1.60499,2.26 2.98999,3.42 3.13,2.6175 3.91375,4.58125 3.51625,8.0675 -0.30625,2.67625 -1.14625,6.96375 -1.14625,6.96375 z m -15.48499,-11.69625 c -0.05,-1.395 -0.2025,-3.1475 -0.64375,-3.58875 -0.25625,-0.255 -0.61,-0.07 -0.8325,-0.20875 -0.9975,-0.62125 0.7,-3.18375 1.50875,-4.16375 7.34125,-8.8925 26.36874,-19.93375 36.42124,-22.2175 0.9575,-0.2175 1.915,-0.39375 2.09625,-0.0575 0.09,0.1675 -0.0113,0.46125 -0.16625,0.79375 -0.3625,0.77875 -0.94375,1.7225 -1.59,2.73375 -13.3875,20.97625 7.73,-8.1350002 13.7225,-8.9525002 0.54875,-0.28125 1.0625,-0.5075 1.51875,-0.65625 2.3325,-0.7625 4.8575,-0.92375 5.16375,-3.2425 0.0437,-0.32625 0.05,-0.73125 0.0387,-1.125 -0.10125,-3.79874 -6.0775,-1.98124998 -10.2875,-0.32 -3.8975,1.53875 -9.68625,4.07375 -15.825,7.02125 -7.94375,3.8125002 -31.72624,15.2600002 -35.07374,25.2025002 -1.0775,3.20375 -0.8775,6.79375 1.2725,9.88125 0.0925,0.1325 0.17625,0.25125 0.2525,0.35875 -0.97125,-1.36625 2.63125,4.38375 2.42375,-1.45875 z M 121.0975,9.1288778 l -0.75625,0.0137 c -0.97375,0.0163 -1.105,0.13875 -1.3125,1.2162502 -0.0913,0.47125 -0.36125,1.1925 -0.66625,1.8875 -1.775,4.05375 -3.89125,3.1175 -5.41375,0.1225 -1.39,-2.7325002 -3.06,-5.7537502 -3.33375,0.31 -0.11,2.43125 0.16125,7.0675 2.0375,8.32875 2.00875,1.35125 5.12,0.3025 7.0625,-1.00625 0.4575,-0.30875 0.865,-0.66875 1.08625,-1.125 0.1275,-0.26125 0.1925,-0.555 0.23875,-0.84375 l 0.275,-1.69625 1.8925,0.21375 c 0.345,0.0387 0.70375,0.0713 1.05,0.0562 1.20375,-0.0525 2.13125,-0.63375 2.82625,-1.49125 3.1575,-3.89875 1.7,-8.6062502 -0.775,-11.9187502 -1.8525,-2.47999998 -4.97875,-6.36874 -1.92125,1.40875 1.115,2.83625 0.94125,4.4675 -2.29,4.52375 z m 51.37249,94.3987422 c 0.22375,3.08125 1.6625,4.99625 4.28,5.55 3.3775,0.7125 5.28625,-1.11625 6.1525,-4.81625 0.19,-0.8125 0.1475,-1.48875 -0.37625,-1.815 -0.995,-0.62125 -3.72625,0.0237 -5.0475,-0.6775 -1.6425,-0.87125 -2.06125,-4.577502 -1.65375,-6.311252 0.40625,-1.73375 1.44375,-3.59125 1.725,-4.9275 0.0575,-0.27125 0.0838,-0.52 -0.0337,-0.65875 -0.015,-0.0187 -0.03,-0.035 -0.045,-0.05 -3.97375,-0.905 -4.94,14.537502 -5.00125,13.706252 z M 30.237518,56.527618 l 8.06875,-8.06124 -8.06875,-8.06 -8.07,8.06 8.07,8.06124 z m 113.514982,52.701252 8.07,-8.06125 -8.07,-8.060002 -8.06875,8.060002 8.06875,8.06125 z M 73.796258,65.350118 c -0.0875,0.20375 -0.4925,0.17625 -0.8825,0.07 -0.67625,-0.185 -2.8675,-2.255 -3.10375,-2.93125 -0.075,-0.2175 -0.0975,-0.3975 -0.0462,-0.5925 0.0875,-0.33875 4.4375,-4.075 6.05875,-4.65125 0.57,-0.20375 0.655,-0.0788 0.5075,0.47125 -0.14875,0.5575 -0.41375,1.24875 -0.71125,1.8075 -0.2725,0.51125 -0.57375,0.91375 -0.7925,1.44125 -0.53875,1.295 -0.58625,3.35 -1.03,4.385 z m -58.21899,-8.6325 c -1.800373,2.3525 -5.198497,5.96625 -7.160122,8.85375 -3.323625,4.89125 -4.545749,8.77625 -5.461624,14.6675 -0.645125,4.15 -0.726125,5.82 0.549375,11.08 2.133124,8.796252 7.140248,14.823752 15.951371,17.238752 6.925,1.89875 12.805,-0.45125 19.14625,-4.27875 2.2825,-1.3775 7.915,-5.816252 8.5575,-6.742502 0.58125,-0.83625 1.86,-5.35125 2.0175,-7.12 0.19,-2.1225 0.44125,-5.00125 0.9775,-6.3075 0.46,-1.12125 1.07375,-1.915 0.39125,-3.39 -0.2675,-0.57625 -0.87,-1.11 -0.975,-1.86 -0.0375,-0.2725 -0.0512,-0.65875 -0.0512,-0.65875 l 5.44874,-0.245 c 0.89125,-0.04 1.07375,-0.0662 1.82875,-0.255 1.69,-0.42375 5.4925,-3.3075 6.1,-4.2025 0.61875,-0.91 1.32625,-2.40125 1.32625,-2.40125 0,0 5.25875,5.545 7.8325,7.13625 1.81375,1.12125 4.5375,1.4475 5.4725,0.725 0.84,-0.64875 1.60375,-4.93125 2.97,-7.9025 1.8275,-3.97 2.59875,-4.54375 1.09625,-8.31 -0.5625,-1.41 -1.125,-2.57375 -2.50625,-4.435 -0.64875,-0.875 -1.4775,-1.9025 -1.4775,-1.9025 0,0 1.29875,-1.24749 2.5225,-2.23874 4.835,-3.91625 26.905002,-9.01375 33.848742,-9.22125 3.695,-0.11 9.46875,0.51125 10.10375,-2.125 0.15,-0.62125 0.18625,-1.47875 0.47625,-2.355 1.7325,-5.2625 4.1125,-5.39625 2.27875,-6.695 -0.31125,-0.22 -0.445,-0.2525 -1.33375,-0.3175 -6.5675,-0.4775 -9.565,-0.17375 -13.355,-1.91875 -1.90875,-0.87875 -4.36,-2.33 -6.29374,-2.9 -0.5575,-0.16375 -1.0725,-0.255 -1.5675,-0.47375 -0.885,-0.39125 -1.71,-1.19 -2.62375,-1.83125 -1.59625,-1.12 -4.557502,-2.4125 -7.310002,-3.44 -5.0675,-1.8925 -22.21125,0.4325 -24.24625,6.95875 -0.565,1.81375 -1.17875,4.2325 -1.185,4.835 -0.0138,1.25625 0.23,2.895 0.23,2.895 l 13.025,-3.03625 c 0.86875,-0.2025 1.01125,-0.28 1.42375,-0.76625 1.99125,-2.34625 4.22625,-1.58625 6.685,-0.60125 2.05625,0.82375 4.2125,1.6725 6.1375,2.5275 0.88875,0.39375 1.21875,0.595 1.1975,1.20625 -0.006,0.18 -0.10125,0.23 -0.95125,0.5 -2.52875,0.8025 -14.62,4.83875 -17.05,6.7875 -0.6675,0.53625 -1.2525,1.1525 -1.9525,1.61875 -0.72125,0.4825 -1.565,0.805 -2.37625,1.2225 -2.22625,1.145 -8.44625,6.605 -10.135,9.06499 -0.97375,1.42 -1.69875,3.11875 -2.80125,4.36 -0.685,0.7725 -1.5175,1.36875 -1.97,2.30875 -0.78125,1.62 -0.48625,3.43 -1.6075,4.1 -1.99375,1.1925 -6.53125,0.245 -7.85874,-0.205 -1.7475,-0.59125 -3.94125,-1.58 -5.05,-3.075 -1.14125,-1.53625 -2.77875,-5.97375 -4.29125,-3.9625 -2.0425,2.715 -2.31875,8.03375 -1.9725,10.6175 0.30375,2.27375 1.85625,7.7225 2.9875,10.48875 1.48125,3.62 3.66875,8.295 3.66875,8.295 0,0 -1.71375,1.64375 -2.9575,2.7375 -2.565,2.25625 -7.63625,5.1675 -10.785,5.9875 -6.995,1.8225 -14.29625,-0.48125 -19.300123,-5.09 -3.076999,-2.835 -4.905124,-8.16125 -5.703624,-13.385 -0.117875,-0.77125 -0.193375,-1.56875 -0.214,-2.34375 1.57275,-9.59125 11.508997,-24.44874 8.272497,-20.22 z m 169.916472,23.53625 7.465,-5.01125 1.1025,-2.31625 c 0.1625,-0.34125 0.31125,-0.7 0.4375,-1.07875 0.435,-1.305 0.27,-5.59625 -0.48125,-7.22875 -0.925,-2.00875 -1.88625,-0.375 -2.8475,0.935 -0.3725,0.50875 -10.66875,4.70625 -12.0725,4.92125 -2.155,0.33125 -3.09,0.28 -5.36625,-0.7325 -1.3975,-0.6225 -5.0725,-3.3375 -6.6025,-4.87875 -2.7275,-2.74625 -6.31624,-6.91 -6.31624,-6.91 l 12.08499,-3.04249 c 0.865,-0.2175 0.98375,-0.23625 1.1925,-0.18375 0.15375,0.0387 0.31375,0.0387 0.47375,0.035 3.7475,-0.0838 3.87125,-0.72625 6.86625,0.26625 1.6875,0.55874 2.9225,1.20624 3.89375,0.71749 2.20625,-1.10999 1.4225,-2.83999 0.37125,-4.33249 -0.5325,-0.7575 -7.43,-5.4 -8.57875,-5.775 -3.095,-1.01125 -7.5675,-0.24125 -10.84125,1.19125 -1.51625,0.66375 -7.31874,4.74625 -7.68874,5.41 -0.39875,0.7175 -0.5225,1.45 -0.95875,2.27875 -0.95,1.80374 -2.39125,2.95499 -2.62625,4.73249 -0.115,0.875 0.13,1.80125 0.08,2.855 -0.0788,1.66625 -0.8975,3.65375 -0.47375,4.34625 0.21,0.3425 0.725,0.36875 1.235,0.57125 0.7275,0.29125 2.95,2.73 5.28625,5.60375 1.05,1.29125 2.27874,2.73375 2.27874,2.73375 0,0 -1.70499,0.22875 -3.13499,0.24875 -2.83375,0.0388 -6.28875,-1.245 -7.69125,-3.03125 -1.9175,-2.4425 -3.0125,-6.90625 -4.64625,-4.26625 -0.4525,0.73125 -0.7125,1.65375 -1.135,2.4075 -1.74625,3.12 -8.98375,5.3825 -12.14125,5.26625 -4.17125,-0.1525 -5.26125,-2.77125 -6.65375,-7.54625 -0.14875,-0.50875 -0.27375,-0.99375 -0.28,-1.5075 -0.01,-0.6925 0.0625,-0.785 0.715,-0.92875 0.485,-0.105 0.92375,-0.34 1.37125,-0.55625 3.22,-1.5575 7.4625,-2.975 8.16,-3.93 0.96,-1.3125 0.64,-3.27125 1.69875,-5.46 0.0987,-0.20375 0.305,-0.51125 0.55125,-0.87499 1.97375,-2.905 0.9725,-14.4425 0.65625,-17.9575 -0.74125,-8.23 -2.74375,-23.41875 -2.74375,-23.41875 l 0.9525,-0.075 c 0.42875,-0.0337 0.56,0.015 1.31375,0.4925 10.6075,6.7075 15.1825,11.56 15.5075,23.0675 0.18875,6.70625 -0.8625,7.31625 -4.22125,11.52375 -1.17,1.46625 -2.5475,4.2275 -1.7475,5.10375 1.0275,1.12875 3.31,-2.8075 4.5725,-4.9975 4.74,-8.215 6.75875,-11.25625 6.26125,-21.285 -0.13375,-2.72125 -0.7675,-6.015 -2.34375,-9.105 -0.35,-0.6875 -0.73875,-1.3275 -1.02,-1.95 -0.42875,-0.94875 -0.61,-1.85375 -1.045,-2.73125 -0.41375,-0.83375 -4.5975,-4.7137502 -6.0825,-5.6412502 -1.01875,-0.63625 -2.01,-1.1925 -2.87875,-1.85 -0.9675,-0.73375 -1.78125,-1.5925 -2.82,-2.39 -1.315,-1.01 -5.95,-3.27124998 -7.8025,-3.80874998 -1.08875,-0.31499 -1.2075,-0.20375 -1.76,0.7025 -0.61,1.00124998 -1.6025,2.30749998 -1.96125,3.51374998 -0.19125,0.64375 -0.2025,1.26 -0.32875,1.91375 -0.21125,1.10125 -0.45125,1.75375 -0.63625,2.35875 -1.00375,3.2862502 0.63375,12.7775002 1.195,15.8987502 0.8,4.44875 3.29,25.20125 3.21625,27.1275 -0.0962,2.46125 -0.615,2.51125 -4.0075,3.79374 -2.54625,0.9625 -4.91,1.85625 -7.16625,2.38875 -0.35625,0.0838 -0.71,0.16 -1.0725,0.1475 -0.48875,-0.0175 -0.5825,-0.11 -0.93625,-0.93 -0.8775,-2.03624 -4.0325,-7.94499 -5.0325,-9.41749 -0.31375,-0.46125 -0.64625,-0.9125 -0.98375,-1.36 -0.32875,-0.435 -5.73625,-9.38 -7.85,-6.02 -0.0563,0.0913 -0.11625,0.195 -0.17875,0.315 -1.14375,2.205 -1.63375,8.305 -1.035,9.9075 0.805,2.1525 3.795,4.78874 4.49625,6.53624 0.2325,0.57875 0.0487,0.625 -0.7375,0.48125 -5.71499,-1.0475 -9.10874,-2.05375 -12.892492,-5.19374 -0.7525,-0.625 -1.38875,-1.26 -1.83,-2.1725 -0.675,-1.395 -0.955,-3.2 -2.29625,-2.46625 -0.65,0.35625 -1.7675,2.845 -2.03125,3.50875 -1.61375,4.05749 -1.5375,6.60874 0.0613,9.88999 1.725,3.545 5.50375,9.7 5.50375,9.7 0,0 -4.28625,5.06125 -6.95625,7.46375 -1.64375,1.47875 -2.85,2.4425 -3.3925,1.09625 -0.28375,-0.70125 -0.52,-1.55 -0.71125,-2.69125 -0.57375,-3.4125 -0.75125,-9.44125 -0.75125,-9.44125 0,0 -0.805,0.0512 -1.30625,0.26875 -0.45875,0.2 -0.825,1.11625 -0.90875,1.935 -0.115,1.12375 -0.33125,2.34125 -0.46875,3.6375 -0.32625,3.09375 -0.1925,6.6275 -0.14,9.94375 0.0138,0.89125 -0.0625,1.05125 -0.7675,1.5975 -4.045,3.14125 -11.7,9.0725 -16.02625,11.42375 -5.8975,3.2075 -18.64124,7.605002 -21.65999,9.542502 -0.98625,0.63375 -1.64625,1.89375 -0.31,3.35125 0.1325,0.145 0.26375,0.225 0.4075,0.29875 0.515,0.2625 18.90749,-2.26 20.28874,-2.7825 1.90625,-0.72125 5.535,-2.82 7.39875,-4.28 0.78625,-0.61625 11.23125,-10.121252 13.01,-9.076252 0.5525,0.32375 1.1125,1.9875 1.81,3.3325 1.455,2.805 6.35125,7.245002 9.24125,7.873752 1.6175,0.35125 6.756252,0.25125 7.837502,-0.125 2.52374,-0.87875 10.09749,-8.987502 11.03749,-10.476252 0.87625,-1.3875 1.45125,-2.78375 2.49875,-4.005 0.91125,-1.06125 1.91375,-1.77 2.10125,-2.75625 0.12875,-0.685 -0.1325,-1.50375 -0.19625,-2.46 -0.21625,-3.21875 2.4575,-8.8025 -0.66625,-6.965 -0.72375,0.425 -1.9675,2.19875 -2.59,3.515 -1.86625,3.94375 -1.78375,4.04625 -7.96625,9.58625 -2.56499,2.2975 -3.49374,2.835 -6.83874,3.05375 -3.312502,0.2175 -6.296252,-0.68125 -8.825002,-3.4825 -0.88125,-0.97625 -1.9375,-2.40375 -1.9375,-2.40375 0,0 3.71125,-4.7375 5.8525,-6.1925 1.0125,-0.6875 1.72625,-0.70875 2.14375,-1.285 0.432502,-0.5975 0.583752,-2.85375 0.746252,-4.56125 0.19625,-2.055 0.66125,-3.66625 1.64625,-6.69125 0.31875,-0.97625 0.69125,-2.10125 0.69125,-2.10125 0,0 15.71249,2.395 15.71249,2.395 0,0 0.3325,1.32375 0.7225,2.6625 1.6075,5.52375 6.495,14.6425 14.015,14.415 1.24625,-0.0388 2.48375,-0.1375 3.13375,-0.28875 2.62875,-0.6125 6.605,-1.60125 8.45,-3.87875 0.9725,-1.20125 1.43875,-2.31875 2.3275,-2.2725 0.81875,0.0425 2.53875,3.12 4.18625,4.3025 0.87625,0.62875 5.40625,1.23125 6.875,1.31375 1.5,0.0838 2.9925,-0.0913 4.53125,-0.33125 2.89874,-0.4525 5.95874,-1.135 8.72499,-1.35125 1.23875,-0.0963 2.4175,-0.1 3.68375,-0.19625 1.5825,-0.12125 8.42875,-2.135 9.3,-2.735 0.33375,-0.23 0.6775,-0.4775 1.0225,-0.70875 z m 32.4525,-73.3462402 c 0.0275,-0.0238 0.055,-0.05 0.0825,-0.0775 0.92499,-0.93375 2.42374,-6.79749998 2.42374,-6.79749998 0,0 -3.50374,-0.14 -6.53624,0.16 -0.85,0.0838 -10.25625,5.16124998 -10.4225,5.62624998 -0.32875,0.92125 -0.29125,1.0575 -0.67375,1.65 -0.2125,0.32875 -3.13375,2.23375 -6.81125,4.5087502 -13.02375,8.05875 -18.17125,10.615 -28.8975,21.73625 -1.815,1.8825 -3.05375,3.515 -3.5675,5.8825 -0.1,0.46375 -0.2025,0.9 -0.22625,1.56875 -0.03,0.8575 0.0725,2.0975 0.0725,2.0975 0,0 0.7,-0.11125 1.3275,-0.2825 0.5375,-0.1475 1.6975,-1.26125 3.04125,-2.6275 6.5675,-6.68 19.875,-16.41 27.75875,-21.48625 1.76875,-1.13875 3.4125,-2.2125 4.7825,-3.19375 0.37,-0.265 0.71875,-0.5225 1.44375,-0.61125 0.2275,-0.0275 0.49375,-0.0388 0.49375,-0.0388 0,0 -0.63,4.06375 -0.815,6.42 -0.13625,1.72125 -0.035,2.53125 0.23,2.895 1.0975,1.5125 2.4375,-4.72 4.52375,-9.79375 0.48,-1.16875 1.4,-2.3125 2.6875,-3.3025 l 9.0825,-4.3337502 z m -29.85,-1.42 -0.43625,-5.48749997598 c 0,0 -0.8125,0 -1.3175,0.10499999598 -1.21875,0.2525 -4.37125,3.95999998 -4.60125,4.21874998 -0.9775,1.09875 -3.11375,3.64125 -3.45625,4.96 -0.14375,0.55125 -0.1625,0.67 -0.67125,0.7612502 -0.19875,0.035 -0.28,-0.0412 -0.8075,-0.7600002 -3.44,-4.68 -6.77,-7.43125 -11.37375,-6.27 -2.30125,0.58125 -3.42374,1.34 -3.76874,3.4575 -0.38875,2.37375 0.0838,6.9112502 1.82374,8.3562502 1.30125,1.07875 3.21625,1.5375 4.77375,0.945 0.695,-0.26375 4.18875,-3.0075 5.32375,-2.74 0.77125,0.18375 3.4,3.21125 3.64,3.68375 0.42375,0.8375 0.8325,3.47125 2.26375,3.4625 0.205,-0.001 0.49375,-0.0387 0.49375,-0.0387 0,0 -0.0212,-2.3125 0.345,-4 0.1175,-0.54375 2.6125,-5.02375 4.125,-5.79125 0.425,-0.215 0.92,-0.24375 1.37,-0.4525002 0.72,-0.3325 1.97125,-1.8725 2.22625,-2.91125 0.11375,-0.46125 0.1175,-0.61 0.0475,-1.49875 z"/>
</svg>