<?xml version="1.0" encoding="UTF-8" standalone="yes"?>
<!-- Created with sK1/UniConvertor (http://sk1project.org/) -->
<svg xmlns="http://www.w3.org/2000/svg" xmlns:xlink="http://www.w3.org/1999/xlink"
  width="595.276pt" height="841.89pt" viewBox="0 0 595.276 841.89"
  fill-rule="evenodd">
  <path
     d="m 64.808748,18.572647 c -0.2304,0.421601 -0.387201,0.977602 -0.480801,1.752003 -0.0576,0.472001 -0.1248,1.098402 0.0184,1.497603 0.0992,0.2752 1.317603,-0.198401 1.317603,-0.198401 2.004803,-1.431202 7.645613,-5.82641 12.987223,-9.198416 C 80.670376,11.218234 92.610397,3.1974201 92.883997,2.6430191 94.3784,-0.38898692 92.820797,-0.33618692 90.927194,0.47021508 86.617586,2.3046181 66.540751,16.635044 64.808748,18.572647 z M 75.187167,12.211836 75.087166,9.7990311 c -0.0408,-0.975201 -0.0272,-1.150402 0.134401,-1.747203 0.1192,-0.444 0.2456,-0.928801 0.566401,-1.240802 0.781601,-0.760801 2.716004,-0.497601 3.612806,-1.124802 1.292002,-0.903201 1.292802,-4.004007 0.299201,-5.26080902 -1.054402,-1.332803 -3.184806,0.78400102 -4.057608,1.99520302 -0.536001,0.744002 -1.044001,1.596003 -1.272002,2.591205 -0.1064,0.460801 -0.1648,0.984802 -0.2472,1.443202 l -0.405601,2.244004 -1.338402,-1.786403 c -1.832004,-2.531204 -1.273603,-3.283206 -3.965607,-3.971207 -0.902402,-0.2304 -2.858406,-0.144 -3.234406,0.920802 -0.294401,0.833601 0.3968,2.860005 0.828801,3.341606 0.332801,0.3704 1.680003,1.288802 2.236804,1.344802 0.909602,0.0928 2.767205,-0.488001 2.767205,-0.488001 0,0 1.500003,2.2640039 2.416004,3.3264059 0.400001,0.464001 0.730402,0.837602 1.243203,0.848002 0.2112,0.004 0.516001,-0.0232 0.516001,-0.0232 z m 46.276883,0 -0.1008,-2.4128049 c -0.04,-0.975201 -0.0272,-1.150402 0.1344,-1.747203 0.12,-0.444 0.2464,-0.928801 0.5672,-1.240802 0.7816,-0.760801 2.716,-0.497601 3.61281,-1.124802 1.2912,-0.903201 1.2928,-4.004007 0.2984,-5.26080902 -1.05361,-1.332803 -3.18401,0.78400102 -4.05681,1.99520302 -0.5368,0.744002 -1.044,1.596003 -1.2728,2.591205 -0.1056,0.460801 -0.164,0.984802 -0.2472,1.443202 l -0.4048,2.244004 -1.33921,-1.786403 c -1.832,-2.531204 -1.2728,-3.283206 -3.9656,-3.971207 -0.90161,-0.2304 -2.85841,-0.144 -3.23441,0.920802 -0.2936,0.833601 0.3968,2.860005 0.8296,3.341606 0.3328,0.3704 1.68,1.288802 2.23681,1.344802 0.9088,0.0928 2.7672,-0.488001 2.7672,-0.488001 0,0 1.5,2.2640039 2.416,3.3264059 0.39921,0.464001 0.72961,0.837602 1.24241,0.848002 0.212,0.004 0.5168,-0.0232 0.5168,-0.0232 z m -2.98321,0.465601 c -1.3176,1.096002 -2.3216,2.232004 -2.8352,3.384806 -0.8264,1.852003 -0.916,4.016007 0.18,6.00321 0.0472,0.0856 0.0896,0.162401 0.1288,0.231201 -0.496,-0.880802 1.3056,2.793605 1.5216,-0.720802 0.052,-0.840001 0.064,-1.900003 -0.1728,-2.192004 -0.1368,-0.1696 -0.3576,-0.0808 -0.4808,-0.1776 -0.4,-0.3136 0.0856,-1.140802 0.5896,-1.780003 2.0856,-2.646405 10.72802,-7.7864139 13.62643,-8.8584159 0.7024,-0.26 1.3648,-0.471201 1.972,-0.626401 0.568,-0.1448 1.136,-0.2648 1.2488,-0.0648 0.056,0.1 -8e-4,0.278401 -0.0888,0.480801 -0.2064,0.474401 -0.54,1.051202 -0.9112,1.6696029 -7.69921,12.829623 4.49921,-5.0120089 8.05921,-5.5912099 0.3232,-0.1776 0.6264,-0.320801 0.896,-0.417601 1.38001,-0.492801 2.88241,-0.626401 3.03441,-2.028003 0.0216,-0.196801 0.02,-0.440801 0.008,-0.677602 -0.1112,-2.28720402 -3.64801,-1.10640202 -6.13521,-0.044 -0.9616,0.410401 -2.1168,0.930402 -3.40001,1.532803 -1.1776,0.552001 -12.11362,5.61361 -17.24083,9.8760179 z m 10.84402,15.148026 0.4008,-0.0072 c 0.1808,-0.0032 0.2296,-0.1184 0.484,-1.151202 1.46721,-5.94001 1.73521,-9.220816 -1.8736,-13.030423 -0.5944,-0.627201 -1.2872,-1.153602 -1.7328,-0.591201 -0.3032,0.381601 -0.612,3.074406 -0.4736,3.662407 0.2408,1.028802 0.956,1.362402 1.7824,2.060803 1.8648,1.576803 2.3328,2.760805 2.0952,4.861609 -0.1816,1.612003 -0.6824,4.195207 -0.6824,4.195207 z M 22.028592,12.845437 21.682751,5.9246251 c -0.05128,-1.026402 -0.07152,-1.205603 -0.202,-1.786404 -0.400001,-1.783203 -1.476323,-2.759205 -2.601525,-3.38960602 -1.430882,-0.801601 -2.522964,-1.099202 -3.997687,0.0288 -1.212642,0.92800202 -1.326802,4.28720802 -0.850161,4.81280902 0.3556,0.392001 1.298002,0.356801 2.438564,0.076 2.848965,-0.701601 3.134486,-0.540001 3.876567,2.620005 0.352641,1.500802 0.394241,2.9080049 0.2208,4.4176079 -0.36824,3.207205 -1.233762,4.767208 0.462241,6.649611 0.705762,0.784002 1.443123,0.902402 3.053366,0.554401 1.144082,-0.2472 1.371042,-0.804801 1.850723,-2.465604 0.337681,-1.170402 0.604801,-2.217604 0.518241,-3.384006 -0.17168,-2.313604 -2.556965,-6.6624119 0.31784,-7.7432139 0.530641,-0.1992 1.220403,-0.0688 1.815124,0.0672 0.801681,0.183201 0.937681,0.100001 1.360162,-0.831201 0.347361,-0.764801 0.749281,-1.468803 0.970242,-2.292804 C 31.744769,0.16701408 30.474607,-0.70578692 27.926283,0.56061508 25.002917,2.0134181 23.689795,8.2374291 24.314276,12.410236 c 0.19128,1.720003 0.400801,3.268806 0.400801,3.268806 0,0 -0.1748,-0.0024 -0.382881,-0.024 -0.818401,-0.084 -2.224324,-1.223202 -2.303604,-2.809605 z m 28.17693,-5.7912099 -3.723206,3.8792059 c -0.619202,0.644802 -0.707202,0.760802 -0.880002,1.157603 -0.2424,0.556001 -0.326401,1.485602 -0.2072,1.612002 0.3856,0.408001 1.748803,-0.582401 2.223204,-0.949601 4.156807,-3.2152059 6.05041,-5.2400099 6.722411,-9.4032169 0.341601,-2.116004 -0.726401,-2.93440502 -2.616804,-3.20480602 -2.999205,-0.428 -5.975211,0.0104 -7.140013,2.37840502 0.1816,9.0408159 0.437601,3.870406 2.980805,3.228805 2.829605,-0.714401 5.871211,-2.300004 2.640805,1.301603 z M 17.395144,28.364664 13.671617,32.243871 c -0.618801,0.644801 -0.706801,0.760802 -0.879921,1.157602 -0.242401,0.556001 -0.326321,1.485603 -0.207121,1.612003 0.385681,0.408001 1.749203,-0.583201 2.223844,-0.949601 4.156488,-3.215206 6.049931,-5.24001 6.722012,-9.403217 0.341521,-2.116004 -0.726721,-2.934405 -2.617045,-3.204806 -2.998885,-0.428001 -5.97489,0.0104 -7.139852,2.378404 0.18184,9.040816 0.437921,3.870407 2.981045,3.228806 2.829125,-0.714401 5.871211,-2.300004 2.640565,1.301602 z m 88.166476,9.272017 -3.72321,3.879207 c -0.6192,0.644801 -0.7072,0.760001 -0.88,1.156802 -0.2424,0.556001 -0.3264,1.486403 -0.2072,1.612003 0.3856,0.4088 1.7488,-0.582401 2.22401,-0.949602 4.156,-3.214406 6.04961,-5.239209 6.72161,-9.402417 0.3416,-2.116003 -0.7264,-2.934405 -2.61681,-3.204805 -2.9992,-0.428001 -5.97521,0.0096 -7.14001,2.377604 0.1816,9.040816 0.4376,3.871207 2.98081,3.229606 2.8296,-0.714402 5.87121,-2.300004 2.6408,1.301602 z m -66.671478,5.108809 3.124966,-3.277606 -4.213928,-4.419208 -4.213847,4.419208 3.124805,3.277606 -3.124805,3.276806 4.213847,4.419208 4.213928,-4.419208 -3.124966,-3.276806 z m 62.494668,12.520822 -4.213605,4.419208 4.213605,4.419208 4.21441,-4.419208 -4.21441,-4.419208 z M 89.613591,9.6502311 c -0.891201,-0.2696 -1.669603,-0.272 -1.744003,-0.0048 -0.0464,0.1648 0.184801,0.3936009 0.575201,0.6104009 0.668802,0.369601 1.412003,0.308801 1.340003,1.075202 -0.0376,0.401601 0.0224,0.761602 0.652801,0.0992 1.180002,-1.239202 -0.0224,-1.5376019 -0.824002,-1.7800029 z M 77.33597,19.669449 c -0.272,0.1064 -0.568801,0.2216 -0.894401,0.349601 -0.810402,0.3176 -1.375203,0.724001 1.112002,0.708001 2.724804,-0.0176 9.218415,-3.504006 11.356019,-5.228809 1.833603,-1.478403 3.172806,-3.236806 3.594407,-5.44401 0.4584,-2.4008039 -0.805602,-4.0968069 -3.458407,-3.5016059 -0.0096,0.0016 -0.0192,0.004 -0.0288,0.0064 -5.263209,2.586404 -1.476002,5.4288089 -1.732003,7.3696129 -0.1928,1.460802 -4.784008,3.481606 -9.948817,5.74081 z m 11.126419,21.884839 c 0.343201,0.112 0.136801,1.140802 -0.1656,1.892003 -1.181602,2.932805 -6.549612,7.614414 -9.991217,8.239215 -1.835203,0.332801 -4.308008,-0.837602 -5.344809,-2.480804 -0.420001,-0.667202 -0.502401,-1.449603 -0.566401,-2.384005 -0.100801,-1.475202 0.707201,-6.132011 1.121602,-6.466411 0.0752,-0.06 2.368804,-0.600801 3.056805,-1.580003 0.757601,-1.079202 0.866402,-2.257604 1.377602,-1.660003 0.391201,0.456801 0.539201,1.615203 0.996002,2.404004 0.622401,1.076802 2.709604,2.016804 3.891206,2.139204 1.698403,0.1752 4.282408,-0.543201 5.62481,-0.1032 z M 59.720739,23.943857 c -1.884003,-0.179201 -3.586406,-0.446401 -4.620808,-0.823202 -2.256004,-0.820001 -3.038406,-1.407202 -2.512005,-3.209606 0.0736,-0.252 0.166401,-0.496 0.276001,-0.732001 0.992802,-2.146404 6.734412,-6.739212 9.226416,-5.61281 3.083206,1.392803 2.368804,-0.2032 2.502405,-2.717605 0.0352,-0.674401 0.0456,-0.8632009 0.0456,-0.8632009 0.0528,-0.992802 0.0448,-1.145602 -0.08,-1.528803 -0.689602,-2.125604 -2.619205,-1.028802 -4.436808,-0.1608 -5.44801,2.6016039 -9.034416,8.1992139 -9.940018,14.7312259 -0.836801,6.036011 5.000809,7.269613 11.11682,7.182413 l 5.92001,-0.913602 c 3.652807,-0.304 6.971213,-0.1432 8.417615,1.259202 0.748802,0.725602 1.907204,2.556805 1.458403,3.229606 -0.270401,0.405601 -1.980004,0.906402 -3.329606,1.249602 -4.284808,1.089602 -11.595221,1.240803 -15.960028,0.454401 -1.452803,-0.2616 -2.714405,-0.575201 -3.568007,-0.933602 -1.638403,-0.688001 -5.79441,-2.781604 -6.840812,-4.185607 -1.038402,-1.394402 -1.500803,-2.678405 -2.552004,-0.983202 -1.804004,2.906405 -1.940004,6.656812 -0.888002,9.960818 0.944002,2.965605 2.152804,4.092807 1.673603,5.62001 -0.224,0.715201 -1.974404,2.400804 -3.583206,3.448806 -0.132801,0.0864 -0.268801,0.1744 -0.408001,0.262401 -6.407931,4.091207 -11.04338,6.716012 -18.450273,7.939214 -3.409926,0.563201 -5.251129,1.053602 1.923844,2.043203 6.986092,0.964002 11.24978,0.904802 16.87683,-4.446408 3.072005,-2.920805 5.256009,-6.834412 6.255211,-11.25442 0.3104,-1.372002 0.645601,-2.577604 0.966401,-2.816005 0.325601,-0.2416 1.206403,-0.0344 2.222404,0.307201 1.790404,0.601601 3.920807,0.952002 6.249611,1.119202 3.579207,0.2584 8.766416,-0.0968 12.320022,-0.545601 0.344001,-0.044 0.678402,-0.0848 1.002402,-0.124 0.818402,-0.0984 1.288802,-0.155201 1.288802,-0.155201 0,0 -3.695206,11.06642 -0.1984,15.686428 2.069604,2.419205 5.76561,2.367205 8.201614,0.925602 0.256,-0.1512 0.642401,-0.460801 1.112802,-0.880802 2.672805,-2.384004 6.896012,-6.628011 7.895214,-10.169618 0.0312,-0.1112 0.0672,-0.2272 0.1088,-0.3504 0.228,-0.672001 0.628001,-1.533603 0.628001,-1.533603 0,0 0.187201,2.440004 0.462401,3.724007 0.646401,3.018405 6.350411,7.006412 9.414417,6.457611 1.2848,-0.2304 4.19921,-1.825603 4.87521,-2.484004 1.4368,-1.400003 3.3088,-4.390408 3.3088,-4.390408 0,0 1.02161,2.171204 1.93921,3.189606 0.6704,0.744801 1.3368,0.883201 2.1248,1.066401 4.92561,1.144802 5.85921,0.714402 12.80002,-1.155202 0.88961,-0.24 2.70001,-0.824001 4.58961,-1.592802 6.92641,-2.816805 4.65441,-2.097604 7.78402,-8.556816 0.328,-0.676001 0.5416,-1.290402 0.2512,-1.500002 -0.2288,-0.165601 -0.832,0.1432 -1.45201,0.492801 -5.41681,3.058405 -9.37681,5.72001 -13.23282,3.459206 -0.7488,-0.439201 -3.82881,-4.780809 -3.74001,-5.27201 0.2968,-1.640803 2.63201,-2.320804 5.83201,-3.028005 0.92961,-0.2056 1.13761,-0.2304 2.08561,-0.248 l 4.81041,-0.088 c 0,0 -0.0624,-0.856001 -0.2216,-1.512802 -0.3488,-1.440003 -1.87841,-3.358406 -3.02721,-3.768007 -4.26721,-1.521603 -8.35601,0.768001 -10.33522,4.432808 -0.2808,0.520001 -0.5072,1.183202 -0.6864,1.927203 -1.0672,4.415208 -0.6448,6.015211 0.4136,10.178418 0.2976,1.172802 -1.0136,0.584001 -3.2288,-0.0064 -1.00241,-0.268 -2.03441,-0.583201 -2.41041,-0.949601 -1.1216,-1.092002 -1.488,-3.349606 -2.4,-3.639207 -0.1952,-0.0624 -0.4192,-0.0552 -0.628,-0.0256 -0.2816,0.0384 -0.372,0.1344 -0.90721,0.956802 -3.1152,4.788808 -5.72081,7.291213 -10.420014,5.365609 -2.958405,-1.212002 -5.434409,-2.776805 -6.05921,-5.348009 -0.758402,-3.116006 1.136002,-2.152804 3.799206,-3.819207 1.608003,-1.005602 2.288804,-4.550408 2.980006,-7.203213 0.496001,-1.904803 0.904801,-3.384006 1.020801,-5.65121 0.233601,-4.560008 -1.334402,-16.8448299 -1.334402,-16.8448299 0,0 0.472001,0.0592 0.785602,0.144001 0.3368,0.0912 0.4928,0.2112 0.658401,0.3392 0.2632,0.203201 0.552,0.426401 0.8512,0.671201 4.27521,3.4928069 7.25121,12.9040229 4.95441,18.1200329 -0.1752,0.3968 -0.36,0.772801 -0.5456,1.108002 -2.1456,3.579206 3.0384,-0.344801 4.18561,-9.598418 0.132,-1.067201 0.1576,-2.086403 0.0352,-2.998405 -0.4808,-3.592006 -2.09361,-7.1488129 -4.60321,-10.7504189 -1.2128,-1.740803 -5.520011,-6.50561202 -7.635215,-5.48321002 -0.900802,0.436001 -1.661603,2.54240502 -2.258404,4.37760802 -0.307201,0.943202 -0.325601,1.157602 -0.186401,2.140804 0.862402,6.0704109 1.754404,11.2360199 2.274404,18.2552319 0.259201,3.502407 0.480001,7.759214 0.480001,7.759214 0,0 -0.0376,0.0192 -0.1056,0.0536 -6.593612,2.813605 -6.700812,2.067204 -6.881612,2.159204 0,0 0.1832,-3.852807 -0.1104,-6.635212 -0.212801,-2.024803 -1.747203,-6.193611 -2.909605,-8.368815 -0.491201,-0.918401 -1.772004,-1.656803 -2.156004,-0.3928 -0.284801,0.936001 -0.767202,2.587204 -0.988802,3.723206 -0.2152,1.104002 -0.1832,1.720803 0.0416,2.459205 0.604001,1.988803 2.608005,4.860008 3.361606,7.405613 0.036,0.1232 0.568001,1.919203 0.589601,1.992803 0.293601,0.992002 -3.724007,0.0928 -3.632806,0.118401 -1.096002,-0.304001 -1.925604,-0.860002 -3.003206,-1.983204 -0.3072,-0.320001 -0.575201,-0.615201 -0.718401,-0.966402 -0.1688,-0.4152 -0.1616,-0.907201 -0.1232,-1.434402 0.18,-2.452005 -1.049601,-5.48321 -3.291205,-6.619212 -1.698403,-0.860002 -4.100008,-1.112002 -6.779212,-1.032802 -5.871211,0.1728 -5.064809,1.356803 -11.01762,0.789602 z M 47.603118,55.073512 c -0.276801,0.389601 -0.495201,0.921602 -0.676002,1.679203 -0.1096,0.461601 -0.2472,1.076002 -0.1496,1.489603 0.0664,0.2856 1.330402,-0.0328 1.330402,-0.0328 2.152004,-1.172803 8.574416,-4.248008 14.259226,-6.932813 2.140804,-0.948801 3.928807,-1.678403 4.263207,-2.194404 1.825604,-2.824805 0.273601,-2.966405 -1.697603,-2.400804 -4.487208,1.286402 -15.391227,6.682412 -17.32963,8.392015 z M 26.998281,34.071075 c -0.291601,0.0584 -0.665201,-0.108801 -1.170962,-0.517601 -0.967682,-0.783202 -0.186721,-2.262404 1.227602,-4.137608 0.07648,-0.1016 0.14464,-0.1912 0.20584,-0.2704 1.001602,-1.299202 1.218483,-0.712801 1.224483,-0.0712 0.0184,1.963203 -0.978162,4.894408 -1.486963,4.996809 z m -3.304646,6.08481 c 1.597763,0.460801 3.651046,2.185604 5.014249,2.633605 3.518406,1.156002 5.191529,-6.680812 4.850329,-8.972816 -0.06744,-0.452801 -0.341201,-1.468802 -0.715042,-2.568004 -0.33296,-0.979202 -1.472802,-4.225608 -2.647204,-4.388008 -0.840562,-0.1168 -1.018402,-1.264802 2.717524,-3.307206 0.958082,-0.532801 1.933524,-0.954402 2.325045,-1.038402 0.984961,-0.2104 1.998163,-0.1272 2.747444,0.0848 0.444481,0.1256 0.796162,0.296001 1.148802,0.212001 0.460081,-0.109601 2.475525,-3.908807 2.738725,-5.16241 0.352001,-1.677603 -0.3056,-3.644006 -1.966803,-3.323206 -3.989047,0.771202 -10.058498,6.334412 -11.965781,9.059217 -2.122084,3.032005 -5.863291,11.73522 -6.437932,14.114425 -0.480161,1.987203 -0.966402,3.387206 -1.868483,4.709608 -4.597208,6.739212 -16.8717106,11.27202 -17.2977114,11.44082 -5.3039294,2.096804 -0.3741606,1.075202 2.9269652,0.564801 3.2911259,-0.5088 5.3787302,1.771204 8.5574552,-0.840001 0.851522,-0.699201 1.814484,-1.688003 3.069926,-2.994405 2.389764,-2.487205 3.057765,-3.445607 4.459288,-6.930413 0.13648,-0.3392 0.22792,-0.577601 0.2884,-0.779201 0.987602,-3.292006 0.691602,-2.908005 2.054804,-2.515205 z"
     style="fill:#000000;stroke:none" />
</svg>
