<?xml version="1.0" encoding="UTF-8" standalone="yes"?>
<!-- Created with sK1/UniConvertor (http://sk1project.org/) -->
<svg xmlns="http://www.w3.org/2000/svg" xmlns:xlink="http://www.w3.org/1999/xlink"
  width="595.276pt" height="841.89pt" viewBox="0 0 595.276 841.89"
  fill-rule="evenodd">
  <path
     d="m 61.813949,7.1374555 c 0.056,0 0.083,0 0.083,0 0.900001,0 1.064001,-0.051 1.642003,-0.511001 1.835003,-1.459003 1.721003,-3.772007 -0.093,-6.11801103 -1.165002,-1.505003 -3.213005,0.63400103 -4.579008,2.47600403 -0.714001,0.963002 -1.360002,2.286004 -1.602003,3.600007 -0.254,1.376002 -0.193,2.329004 -1.215002,1.754003 -0.750001,-0.422001 -1.553003,-1.676003 -1.951003,-2.758005 -1.057002,-2.872005 -1.633003,-4.032007 -5.25101,-3.923007 -1.278002,0.038 -1.263002,1.012002 -1.263002,3.213006 0,0.452001 0,0.534001 0,0.534001 0,0.05 0,0.098 0,0.144 0.1,4.000007 0.505001,3.797007 1.247002,3.286006 1.479003,-1.022002 3.683007,-0.058 4.614009,1.3370015 0.028,0.043 0.056,0.086 0.084,0.13 0.927001,1.464003 1.959003,3.840007 3.496006,4.841009 0.997002,0.650001 1.308002,-0.285001 1.405002,-0.940002 0.439001,-2.975005 1.464003,-7.0650115 3.383006,-7.0650115 z M 32.281897,77.589576 c 0,0 -0.152,-0.622001 0.151,-1.012001 1.865003,-2.405005 4.618008,-6.214012 4.724008,-7.969015 0.072,-1.193002 -0.235,-3.086001 -1.414002,-3.766002 -1.268002,-0.731002 -2.118004,0.713001 -2.370004,3.288001 -0.176001,1.803004 -0.153001,4.369008 -0.153001,4.369008 0,0 -5.96801,1.205002 -7.682013,2.333004 -0.553001,0.364001 -1.314003,1.331003 -1.557003,2.268004 -0.235,0.904002 -0.295001,3.081013 -0.310001,3.892013 l 28.618051,-0.038 c 1.729004,-0.04 2.935006,-0.119 3.410007,-0.24 1.596002,-0.406 3.503006,-1.472009 3.102005,-2.819011 -0.07304,-0.246001 -0.208,-0.278001 -1.346002,-0.324001 l -25.173045,0.018 z m 76.076133,-63.584109 -0.505,0.009 c -0.648,0.011 -0.736,0.092 -0.875,0.812001 -0.06,0.315001 -0.241,0.796002 -0.444,1.260003 -1.184,2.706004 -2.595,2.081003 -3.61001,0.082 -0.928,-1.824003 -2.041,-3.841007 -2.224,0.207 -0.073,1.623003 0.109,4.717009 1.359,5.56001 1.34,0.902002 3.41501,0.202 4.71001,-0.673001 0.305,-0.206001 0.577,-0.445001 0.724,-0.750001 0.085,-0.175001 0.129,-0.371001 0.16,-0.564001 l 0.183,-1.132003 1.262,0.143001 c 0.23001,0.026 0.46901,0.048 0.70001,0.037 0.803,-0.035 1.422,-0.423001 1.885,-0.995002 2.105,-2.602005 1.133,-5.74501 -0.517,-7.957014 -1.235,-1.6550025 -3.32001,-4.2510075 -1.281,0.941002 0.743,1.894003 0.628,2.983005 -1.52701,3.020005 z M 21.236877,54.250539 c -0.915002,0.800001 -1.748003,1.622003 -2.214004,2.402004 -0.426001,0.714001 -0.579001,1.581003 -0.236,1.892003 0.665001,0.604001 2.581004,-0.731001 3.783006,-1.656003 3.638007,-2.797005 4.834009,-4.822008 5.676011,-9.885017 0.49,-2.948005 -0.883002,-4.521008 -4.919009,-5.013009 -1.762003,-0.215001 -4.323008,0.232 -5.42301,1.074002 -0.573001,0.437001 -0.854001,1.093002 -0.966002,2.304004 0.356001,10.240018 -0.997001,5.029009 4.079008,3.313006 3.610006,-1.220002 9.965017,-2.960006 0.22,5.56901 z M 166.60414,37.281508 c -0.915,0.801002 -1.74801,1.622003 -2.21401,2.402005 -0.426,0.714001 -0.579,1.581003 -0.236,1.892003 0.665,0.604001 2.58101,-0.731001 3.78301,-1.655003 3.63801,-2.798005 4.83401,-4.823008 5.67601,-9.885017 0.49,-2.949006 -0.884,-4.522009 -4.91901,-5.014009 -1.762,-0.215001 -4.32301,0.233 -5.42301,1.074001 -0.573,0.438001 -0.854,1.094002 -0.966,2.305005 0.356,10.239018 -0.997,5.029009 4.07901,3.313006 3.61,-1.221003 9.96501,-2.960006 0.22,5.568009 z m -91.526167,26.945048 3.867007,3.867003 5.775011,-5.775006 -5.775011,-5.77501 -3.867007,3.866007 -3.866007,-3.866007 -5.77501,5.77501 5.77501,5.775006 3.866007,-3.867003 z m 75.929137,5.216006 -5.77501,5.77501 5.77501,5.775016 5.77501,-5.775016 -5.77501,-5.77501 z m 30.66005,-50.625087 c -0.207,-0.208 -0.426,-0.421 -0.659,-0.640001 -0.604,-0.571001 -1.233,-1.073002 -1.848,-1.448002 -0.856,-0.523001 -3.55501,-1.415003 -3.55501,-0.142 0,0.315 0,0.879001 0,1.302002 0,2.174004 1.12501,3.340006 2.87901,4.021007 5.56901,2.163004 3.89501,4.810009 5.80601,9.396017 0.31,0.746001 0.64,0.919001 0.749,-0.486001 0.531,-6.834012 -0.276,-8.900016 -3.37201,-12.003022 z m -22.45404,17.053031 c 0.037,-0.009 0.071,-0.02 0.101,-0.034 0.136,-0.061 0.189,-0.167 0.194,-0.303001 0.042,-1.142002 -0.904,-4.335007 -1.753,-5.074009 -0.287,-0.249 -0.584,-0.485001 -0.809,-0.778001 -2.548,-3.318006 4.03901,-8.859016 6.74001,-10.96102 8.96402,-6.976012 14.84803,-8.9750155 24.78505,-12.4860215 2.266,-0.800001 5.38101,-1.294002 5.40701,-3.673006 0.006,-0.540001 0.026,-0.967002 0.029,-1.301003 0.063,-5.65101 -25.64205,9.5480165 -25.28205,9.3380165 -5.64901,3.294006 -13.05702,8.671015 -14.79903,14.262025 -0.165,0.527001 -0.28,1.289003 -0.317,2.147004 -0.141,3.284006 2.44901,9.696017 5.70401,8.863016 z m 7.81502,-28.7330505 c 0.057,0 0.084,0 0.084,0 0.899,0 1.064,-0.051 1.642,-0.511001 1.835,-1.459003 1.72,-3.772007 -0.094,-6.11801103 -1.164,-1.505003 -3.212,0.63400103 -4.57801,2.47600403 -0.714,0.963002 -1.361,2.286004 -1.603,3.600007 -0.253,1.376002 -0.193,2.329004 -1.214,1.754003 -0.75,-0.422001 -1.55301,-1.676003 -1.95101,-2.758005 -1.057,-2.872005 -1.633,-4.032007 -5.25101,-3.923007 -1.278,0.038 -1.263,1.012002 -1.263,3.213006 0,0.452001 0,0.534001 0,0.534001 0,0.05 0,0.098 0,0.144 0.1,4.000007 0.505,3.797007 1.246,3.286006 1.48001,-1.022002 3.68401,-0.058 4.61401,1.3370015 0.029,0.043 0.057,0.086 0.084,0.13 0.928,1.464003 1.96001,3.840007 3.49601,4.841009 0.997,0.650001 1.308,-0.285001 1.405,-0.940002 0.44,-2.975005 1.464,-7.0650115 3.38301,-7.0650115 z m -56.5651,52.7920935 c 1.104,-0.735001 2.006,-1.655003 1.76,0.312 8e-4,0.052 0.002,0.105001 0.002,0.161001 0.012,0.712001 -0.009,1.483002 -0.034,2.285004 -0.229,7.261009 0.247,14.950022 10.46102,11.984017 1.443,-0.419001 2.913,-1.128002 4.38501,-2.019003 1.493,-0.903002 2.677,-1.700004 3.654,-2.466005 2.78301,-2.181004 6.90002,-8.05901 6.61701,-11.806017 -0.104,-1.373002 -0.223,-2.501004 0.98701,-1.470003 1.098,0.936002 1.693,3.643007 2.748,5.35701 2.27001,3.690007 7.23101,5.246005 10.81502,3.887007 1.153,-0.437001 5.58901,-3.539006 7.26101,-2.601005 0.174,0.097 0.318,0.240001 0.453,0.404001 2.18401,2.646005 12.18803,3.711003 15.28203,4.032003 0.306,0.032 0.526,0.052 0.639,0.05904 7.04102,0.446001 11.86102,-0.655001 15.82703,-5.562006 2.26501,-2.802005 3.40401,-5.114009 4.24701,-8.878015 0.071,-0.315001 0.125,-0.596002 0,-0.711002 -0.282,-0.259 -1.338,0.272001 -1.967,0.603001 -5.66601,2.977006 -10.67502,5.784011 -16.02403,3.422006 -2.19201,-0.968001 -5.45501,-4.504008 -5.68201,-7.339013 -0.021,-0.267 -0.029,-0.557001 -0.029,-0.827001 -0.005,-1.981004 15.68902,-0.312001 16.90603,0.117 1.479,0.522001 2.817,0.930002 2.449,-0.154 -1.246,-3.670007 -5.78201,-6.336011 -9.34102,-7.403013 -4.577,-1.372003 -9.08601,-0.372001 -12.40402,4.843008 -1.016,1.596003 -1.828,3.444006 -1.842,5.081009 -0.021,2.624005 0.947,6.392012 0.947,6.392012 0,0 -0.831,-0.054 -1.527,-0.142001 -2.28301,-0.287 -4.40401,-1.591002 -5.32301,-3.559006 -0.795,-1.702003 -1.174,-1.063002 -3.02901,0.712001 -2.603,2.492005 -5.54401,3.694007 -7.92301,3.462007 -4.90001,-0.477001 -8.23902,-3.394006 -9.76302,-9.037017 -0.292,-1.080001 -0.397,-2.148003 -0.606,-3.273005 -1.177,-6.336012 -4.51201,-14.278026 -8.75902,-18.228033 -0.408,-0.380001 -0.766,-0.666001 -1.657,-0.710001 -0.321,-0.016 -0.71,0 -0.71,0 l -0.4,7.738014 c -0.066,1.277002 -0.03,1.439002 0.364,1.624003 0.292,0.138 0.546,0.341 0.79,0.552001 1.201,1.043001 2.13101,2.265004 3.03401,3.580006 1.221,1.779003 4.32601,9.541017 4.261,10.653019 -0.255,4.328008 -3.931,8.441015 -8.99601,12.546022 -2.88201,2.336004 -5.39201,3.925003 -9.31802,3.078006 -3.001,-0.649001 -5.98001,-6.332012 -4.88601,-7.737014 0.611,-0.783001 2.41801,-0.592001 3.78801,-1.259002 1.437,-0.700002 3.85801,-4.015007 5.00801,-6.159011 0.606,-1.130002 0.669,-1.397003 0.632,-2.675005 0,0 -0.003,-0.082 -0.047,-1.588003 -0.023,-0.793001 -1.847,-36.758065 1.25,-36.499065 2.23101,0.186 6.24301,3.073006 7.26502,3.820007 6.52301,4.770008 9.29901,8.880016 11.45902,16.350029 0.67,2.319004 1.181,4.925009 0.947,6.629012 -0.216,1.564003 -0.758,3.454006 -1.227,5.121009 -2.17701,7.730014 -0.41401,5.266009 1.154,2.481004 3.032,-5.386009 6.34201,-12.933023 4.73601,-20.105035 -2.01001,-8.977016 -9.81802,-16.9430305 -17.24803,-21.0660375 -3.43201,-1.905003 -6.93202,-3.39400603 -8.60302,-3.89400703 -0.273,-0.081 -0.518,-0.055 -0.747,0.06 -5.81101,2.90900503 -2.44601,47.22208353 -2.65801,51.06509053 -0.017,0.294001 -0.027,0.466001 -0.027,0.466001 0,0 -1.198,0.617001 -2.562,1.002002 -0.59,0.166 -1.076,0.279 -1.474,0.34 -2.16601,0.171001 -1.77101,-0.016 -1.76101,-1.354002 0.005,-0.671001 0.115,-1.568003 0.115,-2.667005 0,-1.637003 0,-3.164005 0,-3.164005 -0.366,-4.098008 -1.399,3.389006 -1.646,5.317009 -0.087,0.683001 0.017,1.166002 -0.138,1.263002 -0.944,0.559001 -4.55601,-2.755005 -6.07601,-4.282007 -1.756,-1.763003 -1.094,-3.478006 -2.91901,0.156 -0.982,1.956003 -2.258,4.752008 -2.371,5.44801 -0.362,2.230004 2.81001,5.50501 3.56401,9.472017 0.396,2.081003 -3.04601,4.112003 -6.420015,5.642006 -8.527015,3.867007 -19.479036,7.212013 -28.780052,8.423015 -5.161009,0.671001 -12.580023,1.518002 1.932003,2.144004 0.627001,0.02096 1.332003,0.034 2.121004,0.04096 9.143017,0.072 7.721015,3.934008 18.371034,-0.717002 3.073005,-1.341002 12.576026,-6.865012 12.909026,-7.564013 0.608,-1.278002 0.792,-2.756005 1.255,-4.107004 1.68,-4.894008 2.461,-5.72501 4.52901,-7.102012 z M 94.025008,8.7554585 C 93.192006,10.637461 92.581005,11.698463 93.283006,11.463462 102.05802,3.1504485 105.26703,8.5294575 106.02703,1.2474445 c -0.086,-0.96700103 -0.817,-1.43400203 -2.55901,-1.17800203 -2.5,0.367001 -6.837008,1.78400303 -10.597014,3.17100603 -13.449025,4.964009 -29.398054,10.3260175 -39.342071,14.5110255 -3.553007,1.496002 -6.003011,3.299005 -6.628012,6.486011 -0.176,0.898002 -0.268001,1.942004 0,2.273004 0.05096,0.063 0.149,0.09 0.285,0.086 0.667002,-0.995001 2.370005,-2.214004 4.520008,-3.471006 L 94.028008,7.2674555 c 0.387,0.093 0.432,0.507001 -0.0032,1.488003 z m -39.581072,53.4070945 3.365006,-5.66701 c 0,0 -2.585004,-2.449005 -4.376007,-3.630007 -1.155003,-0.762001 -1.981004,-0.997002 -2.744005,-1.555003 -2.206004,-1.609002 -4.287008,-5.67201 -3.788007,-7.026012 1.181002,-3.205006 10.372018,-8.591015 14.183025,-7.842014 0.873002,0.171 1.027002,0.320001 1.545003,1.491003 4.258008,9.636017 7.209013,11.090019 17.11103,10.300018 3.375007,-0.270001 5.845012,-0.941002 8.352016,-2.841005 1.001002,-0.759001 1.797003,-1.586003 2.841005,-2.131004 1.662003,-0.868001 12.500018,-1.634003 15.482028,-1.183002 2.44,0.369001 4.36701,1.210002 5.35501,0.713001 0.783,-0.394 3.51201,-5.008009 3.78201,-6.395011 0.073,-0.371001 0.101,-0.703001 0.061,-1.055002 -0.054,-0.473001 -0.201,-0.546001 -1.47101,-0.724001 -3.33,-0.467001 -10.80402,-3.031006 -13.67702,-5.18901 -2.356005,-1.770003 -4.029008,-4.673008 -6.381012,-6.293011 -3.615007,-2.488004 -11.30302,-3.630006 -14.672027,0.004 -1.046002,1.128002 -3.097006,5.44501 -2.628005,7.639014 0.131,0.615001 0.288001,0.684001 1.571003,0.695001 1.227002,0.01 2.574005,0.044 3.642007,0.454001 0.856002,0.329 1.437003,0.827001 2.023004,0.682001 0.944002,-0.234 1.656003,-2.202004 2.490004,-2.841005 0.541001,-0.415001 1.253003,-0.237 2.087004,0.24 2.119004,1.212003 5.58601,4.124008 5.027009,5.54901 -0.617001,1.575003 -4.662008,3.290006 -6.006011,3.680007 C 82.360987,40.763515 73.46897,40.886515 70.099964,36.396507 68.404961,34.136503 67.75996,29.341494 65.999957,28.347492 63.064952,26.69049 55.319938,30.805497 52.651933,32.6955 c -1.557003,1.102002 -2.862005,2.232004 -4.094007,3.701007 -0.497001,0.593001 -7.007013,11.34602 -6.500012,15.783028 0.097,0.854002 -0.026,0.997002 -1.235002,1.420003 -3.364006,1.180002 -9.417017,4.814008 -14.108025,8.129014 -7.394013,5.225009 -7.295013,8.539011 -16.48403,10.957016 -13.6720235,3.597006 -0.831001,-19.655031 2.221004,-25.411042 2.730005,-5.149009 -18.418032,16.370029 -10.7780184,29.294049 0.7570013,1.280002 1.9000034,2.280004 3.5620063,3.387003 2.6440048,1.76001 4.6470079,1.06101 7.5760131,-0.473998 4.181008,-2.192004 11.16402,-8.563016 16.52703,-12.639019 7.190012,-5.46601 12.961023,-8.238015 20.937037,-4.742008 0.903001,0.396 1.767003,0.837001 2.630005,1.137002 0.176,0.061 0.352,0.117 0.536001,0.129 0.249,0.016 0.349,-0.105 1.002001,-1.204002 z"
     style="fill:#000000;stroke:none" />
</svg>
