<?xml version="1.0"?>
<svg xmlns="http://www.w3.org/2000/svg" version="1.1">
  <path
     d="m 77.267249,8.9218481 c 0.07,0 0.10375,0 0.10375,0 1.125,0 1.33,-0.06375 2.0525,-0.63875 2.29375,-1.82375 2.15125,-4.715 -0.11625,-7.64749996 -1.45625,-1.88125004 -4.01625,0.79249996 -5.72375,3.09499996 -0.8925,1.20375 -1.7,2.8575 -2.0025,4.5 -0.3175,1.72 -0.24125,2.9112499 -1.51875,2.1924999 -0.9375,-0.5274999 -1.94125,-2.0949999 -2.43875,-3.4474999 -1.32125,-3.59 -2.04125,-5.04 -6.56375,-4.90375 -1.5975,0.0475 -1.57875,1.265 -1.57875,4.01625 0,0.565 0,0.6675 0,0.6675 0,0.0625 0,0.1225 0,0.18 0.125,4.9999999 0.63125,4.7462499 1.55875,4.1074999 1.84875,-1.2774999 4.60375,-0.0725 5.7675,1.67125 0.035,0.05375 0.07,0.1075 0.105,0.1625 1.15875,1.83 2.44875,4.8 4.37,6.05125 1.24625,0.8125 1.635,-0.35625 1.75625,-1.175 0.54875,-3.71875 1.83,-8.8312499 4.22875,-8.8312499 z m -36.915,88.0649949 c 0,0 -0.19,-0.7775 0.18875,-1.265 2.33125,-3.00625 5.7725,-7.7675 5.905,-9.96125 0.09,-1.49125 -0.29375,-3.857495 -1.7675,-4.707495 -1.585,-0.91375 -2.6475,0.89125 -2.9625,4.109995 -0.22,2.25375 -0.19125,5.46125 -0.19125,5.46125 0,0 -7.46,1.50625 -9.6025,2.91625 -0.69125,0.455 -1.6425,1.66375 -1.94625,2.835 -0.29375,1.13 -0.36875,3.851257 -0.3875,4.865007 l 35.7725,-0.0475 c 2.16125,-0.05 3.66875,-0.14875 4.2625,-0.3 1.995,-0.5075 4.37875,-1.840007 3.8775,-3.523757 -0.0913,-0.3075 -0.26,-0.3475 -1.6825,-0.405 l -31.46625,0.0225 z m 95.095001,-79.479995 -0.63125,0.01125 c -0.81,0.01375 -0.92,0.115 -1.09375,1.015 -0.075,0.39375 -0.30125,0.995 -0.555,1.575 -1.48,3.3825 -3.24375,2.60125 -4.5125,0.1025 -1.16,-2.28 -2.55125,-4.80125 -2.78,0.25875 -0.0912,2.02875 0.13625,5.89625 1.69875,6.95 1.675,1.1275 4.26875,0.2525 5.8875,-0.84125 0.38125,-0.2575 0.72125,-0.55625 0.905,-0.9375 0.10625,-0.21875 0.16125,-0.46375 0.2,-0.705 l 0.22875,-1.415 1.5775,0.17875 c 0.2875,0.0325 0.58625,0.06 0.875,0.04625 1.00375,-0.04375 1.7775,-0.52875 2.35625,-1.24375 2.63125,-3.2525 1.41625,-7.18125 -0.64625,-9.94625 -1.54375,-2.06875 -4.15,-5.3137499 -1.60125,1.17625 0.92875,2.3675 0.785,3.72875 -1.90875,3.775 z M 26.545999,67.813098 c -1.14375,1 -2.185,2.0275 -2.7675,3.0025 -0.5325,0.8925 -0.72375,1.97625 -0.295,2.365 0.83125,0.755 3.22625,-0.91375 4.72875,-2.07 4.5475,-3.49625 6.0425,-6.0275 7.095,-12.35625 0.6125,-3.685 -1.10375,-5.65125 -6.14875,-6.26625 -2.2025,-0.26875 -5.40375,0.29 -6.77875,1.3425 -0.71625,0.54625 -1.0675,1.36625 -1.2075,2.88 0.445,12.8 -1.24625,6.28625 5.09875,4.14125 4.5125,-1.525 12.45625,-3.7 0.275,6.96125 z M 208.25475,46.601848 c -1.14375,1.00125 -2.185,2.0275 -2.7675,3.0025 -0.5325,0.8925 -0.72375,1.97625 -0.295,2.365 0.83125,0.755 3.22625,-0.91375 4.72875,-2.06875 4.5475,-3.4975 6.0425,-6.02875 7.095,-12.35625 0.6125,-3.68625 -1.105,-5.6525 -6.14875,-6.2675 -2.2025,-0.26875 -5.40375,0.29125 -6.77875,1.3425 -0.71625,0.5475 -1.0675,1.3675 -1.2075,2.88125 0.445,12.79875 -1.24625,6.28625 5.09875,4.14125 4.5125,-1.52625 12.45625,-3.7 0.275,6.96 z m -114.407501,33.68125 4.83375,4.833745 7.218751,-7.218745 -7.218751,-7.21875 -4.83375,4.8325 -4.8325,-4.8325 -7.21875,7.21875 7.21875,7.218745 4.8325,-4.833745 z m 94.911251,6.519995 -7.21875,7.21875 7.21875,7.218757 7.21875,-7.218757 -7.21875,-7.21875 z m 38.325,-63.281245 c -0.25875,-0.26 -0.5325,-0.52625 -0.82375,-0.8 -0.755,-0.71375 -1.54125,-1.34125 -2.31,-1.81 -1.07,-0.65375 -4.44375,-1.76875 -4.44375,-0.1775 0,0.39375 0,1.09875 0,1.6275 0,2.7175 1.40625,4.175 3.59875,5.02625 6.96125,2.70375 4.86875,6.0125 7.2575,11.745 0.3875,0.9325 0.8,1.14875 0.93625,-0.6075 0.66375,-8.5425 -0.345,-11.125 -4.215,-15.00375 z m -28.0675,21.31625 c 0.0462,-0.01125 0.0888,-0.025 0.12625,-0.0425 0.17,-0.07625 0.23625,-0.20875 0.2425,-0.37875 0.0525,-1.4275 -1.13,-5.41875 -2.19125,-6.3425 -0.35875,-0.31125 -0.73,-0.60625 -1.01125,-0.9725 -3.185,-4.1475 5.04875,-11.07375 8.425,-13.70125 11.205,-8.72 18.56,-11.21875 30.98125,-15.6074999 2.8325,-1 6.72625,-1.6175 6.75875,-4.59125 0.008,-0.675 0.0325,-1.20875 0.0363,-1.62625 0.0787,-7.06375 -32.0525,11.9349999 -31.6025,11.6724999 -7.06125,4.1175 -16.32125,10.83875 -18.49875,17.8275 -0.20625,0.65875 -0.35,1.61125 -0.39625,2.68375 -0.17625,4.105 3.06125,12.12 7.13,11.07875 z m 9.76875,-35.9162499 c 0.0713,0 0.105,0 0.105,0 1.12375,0 1.33,-0.06375 2.0525,-0.63875 2.29375,-1.82375 2.15,-4.715 -0.1175,-7.64749996 -1.455,-1.88125004 -4.015,0.79249996 -5.7225,3.09499996 -0.8925,1.20375 -1.70125,2.8575 -2.00375,4.5 -0.31625,1.72 -0.24125,2.9112499 -1.5175,2.1924999 -0.9375,-0.5274999 -1.94125,-2.0949999 -2.43875,-3.4474999 -1.32125,-3.59 -2.04125,-5.04 -6.56375,-4.90375 -1.5975,0.0475 -1.57875,1.265 -1.57875,4.01625 0,0.565 0,0.6675 0,0.6675 0,0.0625 0,0.1225 0,0.18 0.125,4.9999999 0.63125,4.7462499 1.5575,4.1074999 1.85,-1.2774999 4.605,-0.0725 5.7675,1.67125 0.0362,0.05375 0.0712,0.1075 0.105,0.1625 1.16,1.83 2.45,4.8 4.37,6.05125 1.24625,0.8125 1.635,-0.35625 1.75625,-1.175 0.55,-3.71875 1.83,-8.8312499 4.22875,-8.8312499 z M 138.0785,74.911848 c 1.38,-0.91875 2.5075,-2.06875 2.2,0.39 0.001,0.065 0.002,0.13125 0.002,0.20125 0.015,0.89 -0.0112,1.85375 -0.0425,2.85625 -0.28625,9.076245 0.30875,18.687495 13.07625,14.979995 1.80375,-0.52375 3.64125,-1.41 5.48125,-2.52375 1.86625,-1.12875 3.34625,-2.125 4.5675,-3.0825 3.47875,-2.72625 8.625,-10.073745 8.27125,-14.757495 -0.13,-1.71625 -0.27875,-3.12625 1.23375,-1.8375 1.3725,1.17 2.11625,4.55375 3.435,6.69625 2.8375,4.6125 9.03875,6.557495 13.51875,4.85875 1.44125,-0.54625 6.98625,-4.42375 9.07625,-3.25125 0.2175,0.12125 0.3975,0.3 0.56625,0.505 2.73,3.3075 15.235,4.638745 19.1025,5.039995 0.3825,0.04 0.6575,0.065 0.79875,0.0738 8.80125,0.5575 14.82625,-0.81875 19.78375,-6.952495 2.83125,-3.5025 4.255,-6.3925 5.30875,-11.0975 0.0888,-0.39375 0.15625,-0.745 0,-0.88875 -0.3525,-0.32375 -1.6725,0.34 -2.45875,0.75375 -7.0825,3.72125 -13.34375,7.23 -20.03,4.2775 -2.74,-1.21 -6.81875,-5.63 -7.1025,-9.17375 -0.0263,-0.33375 -0.0362,-0.69625 -0.0362,-1.03375 -0.006,-2.47625 19.61125,-0.39 21.1325,0.14625 1.84875,0.6525 3.52125,1.1625 3.06125,-0.1925 -1.5575,-4.5875 -7.2275,-7.92 -11.67625,-9.25375 -5.72125,-1.715 -11.3575,-0.465 -15.505,6.05375 -1.27,1.995 -2.285,4.305 -2.3025,6.35125 -0.0263,3.28 1.18375,7.99 1.18375,7.99 0,0 -1.03875,-0.0675 -1.90875,-0.1775 -2.85375,-0.35875 -5.505,-1.98875 -6.65375,-4.44875 -0.99375,-2.1275 -1.4675,-1.32875 -3.78625,0.89 -3.25375,3.115 -6.93,4.6175 -9.90375,4.3275 -6.125,-0.59625 -10.29875,-4.2425 -12.20375,-11.29625 -0.365,-1.35 -0.49625,-2.685 -0.7575,-4.09125 -1.47125,-7.92 -5.64,-17.8475 -10.94875,-22.785 -0.51,-0.475 -0.9575,-0.8325 -2.07125,-0.8875 -0.40125,-0.02 -0.8875,0 -0.8875,0 l -0.5,9.6725 c -0.0825,1.59625 -0.0375,1.79875 0.455,2.03 0.365,0.1725 0.6825,0.42625 0.9875,0.69 1.50125,1.30375 2.66375,2.83125 3.7925,4.475 1.52625,2.22375 5.4075,11.92625 5.32625,13.31625 -0.31875,5.41 -4.91375,10.55125 -11.245,15.6825 -3.6025,2.92 -6.74,4.906245 -11.6475,3.8475 -3.75125,-0.81125 -7.475,-7.915 -6.1075,-9.67125 0.76375,-0.97875 3.0225,-0.74 4.735,-1.57375 1.79625,-0.875 4.8225,-5.01875 6.26,-7.69875 0.7575,-1.4125 0.83625,-1.74625 0.79,-3.34375 0,0 -0.004,-0.1025 -0.0588,-1.985 -0.0288,-0.99125 -2.30875,-45.9475 1.5625,-45.62375 2.78875,0.2325 7.80375,3.84125 9.08125,4.775 8.15375,5.9625 11.62375,11.1 14.32375,20.4375 0.8375,2.89875 1.47625,6.15625 1.18375,8.28625 -0.27,1.955 -0.9475,4.3175 -1.53375,6.40125 -2.72125,9.6625 -0.5175,6.5825 1.4425,3.10125 3.79,-6.7325 7.9275,-16.16625 5.92,-25.13125 -2.5125,-11.22125 -12.2725,-21.17875 -21.56,-26.3324999 -4.29,-2.38125 -8.665,-4.24249996 -10.75375,-4.86749996 -0.34125,-0.10125 -0.6475,-0.06875 -0.93375,0.075 -7.26375,3.63624996 -3.0575,59.02749986 -3.3225,63.83124986 -0.0213,0.3675 -0.0337,0.5825 -0.0337,0.5825 0,0 -1.4975,0.77125 -3.2025,1.2525 -0.7375,0.2075 -1.345,0.34875 -1.8425,0.425 -2.7075,0.21375 -2.21375,-0.02 -2.20125,-1.6925 0.006,-0.83875 0.14375,-1.96 0.14375,-3.33375 0,-2.04625 0,-3.955 0,-3.955 -0.4575,-5.1225 -1.74875,4.23625 -2.0575,6.64625 -0.10875,0.85375 0.0212,1.4575 -0.1725,1.57875 -1.18,0.69875 -5.695,-3.44375 -7.595,-5.3525 -2.195,-2.20375 -1.3675,-4.3475 -3.64875,0.195 -1.2275,2.445 -2.8225,5.94 -2.96375,6.81 -0.4525,2.7875 3.5125,6.88125 4.455,11.84 0.495,2.60125 -3.8075,5.139995 -8.025,7.052495 -10.65875,4.83375 -24.348751,9.015 -35.975001,10.52875 -6.45125,0.83875 -15.725,1.8975 2.415,2.68 0.78375,0.0262 1.665,0.0425 2.65125,0.0512 11.428751,0.09 9.651251,4.917507 22.963751,-0.89625 3.84125,-1.67625 15.72,-8.58125 16.13625,-9.455 0.76,-1.5975 0.99,-3.445 1.56875,-5.133745 2.1,-6.1175 3.07625,-7.15625 5.66125,-8.8775 z m -20.5475,-63.9675 c -1.04125,2.3525 -1.805,3.67875 -0.9275,3.385 10.96875,-10.3912499 14.98,-3.6675 15.93,-12.7699999 -0.1075,-1.20874996 -1.02125,-1.79249996 -3.19875,-1.47249996 -3.125,0.45875 -8.54625,2.22999996 -13.24625,3.96374996 C 99.277249,10.255598 79.340999,16.958098 66.910999,22.189348 c -4.44125,1.87 -7.50375,4.12375 -8.285,8.1075 -0.22,1.1225 -0.335,2.4275 0,2.84125 0.0637,0.07875 0.18625,0.1125 0.35625,0.1075 0.83375,-1.24375 2.9625,-2.7675 5.65,-4.33875 L 117.53475,9.0843481 c 0.48375,0.11625 0.54,0.63375 -0.004,1.8599999 z m -49.476251,66.75875 4.20625,-7.08375 c 0,0 -3.23125,-3.06125 -5.47,-4.5375 -1.44375,-0.9525 -2.47625,-1.24625 -3.43,-1.94375 -2.7575,-2.01125 -5.35875,-7.09 -4.735,-8.7825 1.47625,-4.00625 12.965,-10.73875 17.72875,-9.8025 1.09125,0.21375 1.28375,0.4 1.93125,1.86375 5.3225,12.045 9.01125,13.8625 21.38875,12.875 4.218751,-0.3375 7.306251,-1.17625 10.440001,-3.55125 1.25125,-0.94875 2.24625,-1.9825 3.55125,-2.66375 2.0775,-1.085 15.625,-2.0425 19.3525,-1.47875 3.05,0.46125 5.45875,1.5125 6.69375,0.89125 0.97875,-0.4925 4.39,-6.26 4.7275,-7.99375 0.0913,-0.46375 0.12625,-0.87875 0.0763,-1.31875 -0.0675,-0.59125 -0.25125,-0.6825 -1.83875,-0.905 -4.1625,-0.58375 -13.505,-3.78875 -17.09625,-6.48625 -2.945,-2.2125 -5.03625,-5.84125 -7.97625,-7.86625 -4.51875,-3.11 -14.12875,-4.5375 -18.340001,0.005 -1.3075,1.41 -3.87125,6.80625 -3.285,9.54875 0.16375,0.76875 0.36,0.855 1.96375,0.86875 1.53375,0.0125 3.217501,0.055 4.552501,0.5675 1.07,0.41125 1.79625,1.03375 2.52875,0.8525 1.18,-0.2925 2.07,-2.7525 3.1125,-3.55125 0.67625,-0.51875 1.56625,-0.29625 2.60875,0.3 2.64875,1.515 6.9825,5.155 6.28375,6.93625 -0.77125,1.96875 -5.8275,4.1125 -7.5075,4.6 -6.57125,1.9075 -17.686251,2.06125 -21.897501,-3.55125 -2.11875,-2.825 -2.925,-8.81875 -5.125,-10.06125 -3.66875,-2.07125 -13.35,3.0725 -16.685,5.435 -1.94625,1.3775 -3.5775,2.79 -5.1175,4.62625 -0.62125,0.74125 -8.75875,14.1825 -8.125,19.72875 0.12125,1.0675 -0.0325,1.24625 -1.54375,1.775 -4.205,1.475 -11.77125,6.0175 -17.635,10.16125 -9.2425,6.53125 -9.11875,10.673745 -20.605,13.696245 -17.0899995,4.49625 -1.03875,-24.568745 2.77625,-31.763745 3.4125,-6.43625 -23.0224995,20.4625 -13.4724995,36.617495 0.94625,1.6 2.375,2.85 4.4525,4.23375 3.305,2.200007 5.8087495,1.326257 9.4699995,-0.5925 5.22625,-2.74 13.955,-10.70375 20.65875,-15.798745 8.9875,-6.8325 16.20125,-10.2975 26.17125,-5.9275 1.12875,0.495 2.20875,1.04625 3.2875,1.42125 0.22,0.07625 0.44,0.14625 0.67,0.16125 0.31125,0.02 0.43625,-0.13125 1.2525,-1.505 z"
     style="fill:#000000;stroke:none" />
</svg>
