<?xml version="1.0" encoding="UTF-8" standalone="yes"?>
<!-- Created with sK1/UniConvertor (http://sk1project.org/) -->
<svg xmlns="http://www.w3.org/2000/svg" xmlns:xlink="http://www.w3.org/1999/xlink"
  width="595.276pt" height="841.89pt" viewBox="0 0 595.276 841.89"
  fill-rule="evenodd">
  <path
     d="m 120.47269,21.920586 -1.144,1.661002 -1.514,-1.650002 c -0.693,-0.755001 -1.313,-1.792002 -1.087,-2.444003 0.375,-1.082001 2.794,-1.343001 3.391,-1.063001 1.547,0.726001 1.335,2.072003 0.354,3.496004 z m -17.82201,17.155004 0.189,-8e-4 c 0.259,-0.0016 0.527,-0.009 0.772,-0.024 0.474,-0.02896 1.014,-0.144 1.59,-0.322 5.80101,-2.649995 6.83601,-4.259997 11.35601,-8.584002 1.575,-1.505002 2.474,-2.365003 2.474,-2.365003 l 0.807,0.834001 c 0.16,0.219 0.208,0.289001 0.256,0.361001 0.339,0.514 0.617,1.065001 0.813,1.771002 0.14,0.504 0.557,3.703004 1.26001,3.542004 0.534,-0.122 0.853,-2.340003 0.949,-3.127004 0.259,-2.601003 -0.761,-4.399005 -2.08901,-6.169007 -0.191,-0.255 -0.296,-0.319 -0.296,-0.319 l 1.25001,-2.698996 c 0.39,-1.077001 0.98,-2.236002 1.251,-3.248003 0.496,-1.846003 -0.453,-5.095006 -2.56901,-5.614007 -1.772,-0.434001 -4.367,0.716001 -5.069,1.876002 -0.261,0.432001 -1.202,5.357007 -0.9,7.156009 0.141,0.837001 0.496,1.935002 0.827,2.846995 0.354,0.978001 1.088,1.405002 1.088,1.405002 0,0 -1.209,1.086001 -1.665,1.495001 -0.314,0.282001 -1.101,0.991002 -2.08901,1.872003 -2.54999,2.274002 -5.50399,5.028005 -8.445,6.672007 -0.596,0.333001 -1.222,0.683001 -1.772,0.990002 -2.592,1.449993 -2.633,1.462993 0.012,1.650993 z m 69.82504,11.123014 0.597,-0.012 c 0.269,-0.0048 0.341,-0.183001 0.72,-1.779003 2.18301,-9.17801 2.58201,-14.247008 -2.789,-20.133015 -0.88399,-0.969001 -1.91499,-1.782002 -2.57799,-0.914001 -0.451,0.59 -0.91101,4.751005 -0.70501,5.659006 0.35901,1.590002 1.42301,2.105003 2.652,3.184004 2.776,2.437003 3.472,4.265997 3.119,7.512001 -0.271,2.491003 -1.016,6.483008 -1.016,6.483008 z m -16.24201,-21.551018 0,6.225008 c 0.291,-0.321001 0.581,-0.637001 0.866,-0.945002 2.63701,-2.852003 14.58101,-13.249007 21.56802,-17.600012 l 16.85201,-10.4920054 0.485,-1.546002 c 0.16,-0.511 0.288,-1.118001 0.393,-1.863002 0.325,-2.30400303 0.096,-2.82700303 -1.729,-2.15400203 -2.019,0.74400003 -4.91401,2.44300203 -8.09701,4.55100503 -3.43799,2.276003 -20.31601,14.1990094 -30.33802,23.8240124 z m 10.48001,-9.780003 -0.15,-3.728005 c -0.06,-1.506001 -0.04,-1.776002 0.2,-2.699003 0.178,-0.685001 0.367,-1.434001 0.844,-1.917002 1.16201,-1.1759934 4.041,-0.7689934 5.376,-1.7379944 1.92201,-1.395002 1.92301,-6.186008 0.444,-8.12801003 -1.568,-2.05900197 -4.73799,1.21100103 -6.037,3.08200403 -0.798,1.150001 -1.554,2.467003 -1.893,4.004004 -0.158,0.713002 -0.245,1.521002 -0.368,2.229003 l -0.603,3.4669964 -1.992,-2.760003 c -2.727,-3.9099974 -1.895,-5.0719984 -5.90201,-6.1349994 -1.34199,-0.356001 -4.253,-0.223001 -4.813,1.423001 -0.438,1.288002 0.59,4.4189984 1.23401,5.1629994 0.495,0.572 2.5,1.991002 3.32799,2.078002 1.354,0.143 4.11901,-0.755001 4.11901,-0.755001 0,0 2.231,3.498004 3.595,5.141006 0.594,0.717001 1.086,1.294002 1.849,1.310002 0.315,0.0056 0.769,-0.03696 0.769,-0.03696 z m -72.832042,33.151023 0.597001,-0.012 c 0.268,-0.0048 0.341,-0.183001 0.720001,-1.779002 2.183002,-9.178011 2.582003,-14.247009 -2.789003,-20.133016 -0.884002,-0.969001 -1.915003,-1.782002 -2.578004,-0.914001 -0.451,0.590001 -0.911001,4.751005 -0.705,5.659007 0.359,1.590001 1.423001,2.105002 2.652003,3.184003 2.776003,2.436995 3.472004,4.265997 3.119003,7.512001 -0.271,2.491003 -1.016001,6.483008 -1.016001,6.483008 z M 84.294667,25.557583 83.945675,31.83059 c 5.261998,-4.897006 16.917005,-14.648009 22.049005,-16.945012 0.57201,-0.256 1.05201,-0.401 1.23001,-0.058 0.143,0.274 -1.27301,6.927008 0.509,5.008006 0.493,-0.531001 0.733,-1.923002 1.107,-3.128004 0.596,-1.920002 1.532,-3.364004 2.896,-4.611005 6.644,-6.0740004 8.608,-4.2809984 9.367,-9.6700044 0.325,-2.30400303 0.096,-2.82700303 -1.729,-2.15400203 -2.019,0.74400003 -4.914,2.44300203 -8.097,4.55100503 -3.077,2.038002 -16.924011,11.8050064 -26.983023,20.7340094 z m 7.125008,-6.69 -0.15,-3.728005 c -0.06,-1.506001 -0.04,-1.776002 0.2,-2.699003 0.178001,-0.685001 0.367001,-1.434001 0.844001,-1.917002 1.162002,-1.1759934 4.041005,-0.7689934 5.376007,-1.7379944 1.921994,-1.395002 1.922994,-6.186008 0.444,-8.12801003 -1.568002,-2.05900197 -4.738005,1.21100103 -6.037007,3.08200403 -0.798001,1.150001 -1.554002,2.467003 -1.893002,4.004004 -0.158,0.713002 -0.245,1.521002 -0.368001,2.229003 l -0.603,3.4669964 -1.992003,-2.760003 C 84.513667,6.7695756 85.345668,5.6075746 81.338672,4.5445736 c -1.342002,-0.356001 -4.253005,-0.223001 -4.813006,1.423001 -0.438001,1.288002 0.590001,4.4189984 1.234001,5.1629994 0.495001,0.572 2.500003,1.991002 3.328004,2.078002 1.354002,0.143 4.118997,-0.755001 4.118997,-0.755001 0,0 2.231003,3.498004 3.595004,5.141006 0.594001,0.717001 1.086002,1.294002 1.849002,1.310002 0.315001,0.0056 0.769001,-0.03696 0.769001,-0.03696 z m -28.299017,-2.017003 -0.45,-9.3360034 c -0.062,-1.303001 -0.087,-1.529002 -0.247001,-2.267003 -0.488,-2.261002 -1.803002,-3.499004 -3.177003,-4.29900503 -1.748002,-1.016001 -3.082004,-1.394001 -4.883998,0.03704 -1.481002,1.17700203 -1.620002,5.43800703 -1.038001,6.10400803 0.434,0.498 1.586001,0.453 2.978995,0.096 3.480004,-0.890001 3.828005,-0.684001 4.735006,3.3229964 0.431,1.904002 0.481,3.689004 0.27,5.604007 -0.450001,4.068004 -1.507002,6.046007 0.564001,8.434001 0.862001,0.993002 1.763002,1.144002 3.730004,0.703001 1.398002,-0.314 1.675002,-1.020993 2.261003,-3.127995 0.412,-1.484002 0.738001,-2.812004 0.633,-4.291005 -0.21,-2.935004 -3.124003,-8.4510024 0.388001,-9.8210044 0.648001,-0.253001 1.490994,-0.088 2.216994,0.085 0.979002,0.232 1.145002,0.127 1.662002,-1.054001 0.424001,-0.971002 0.915002,-1.864003 1.185002,-2.908004 C 74.961664,0.21160857 73.410662,-0.89539343 70.297659,0.71060857 66.726662,2.5536106 65.12266,10.447613 65.885661,15.739619 c 0.233001,2.182003 0.489001,4.146005 0.489001,4.146005 0,0 -0.595001,-0.008 -0.981001,-0.124 -0.479001,-0.145 -0.636001,-0.457001 -0.987001,-0.775001 -0.214001,-0.194 -0.501001,-0.390001 -0.788001,-0.510001 -0.386001,-0.161 -0.436001,-0.324 -0.498001,-1.626002 z m 66.128042,76.317045 -6.644,7.234995 6.644,7.23501 6.644,-7.23501 -6.644,-7.234995 z M 97.110682,71.045612 95.00868,70.403611 l 0.138,11.661004 c 0.018,1.508 0.05304,1.84 0.351,3.319 1.141001,5.66101 3.896997,8.35901 7.87,8.87401 9.09901,1.181 9.702,-4.732 16.88401,-14.549 0.502,-0.684 0.866,-1.109 1.482,-1.067 0.18601,0.012 0.26901,0.167 0.83501,1.54599 2.225,5.42 2.51,7.236 6.856,7.549 2.405,0.174 5.321,0.083 6.94,-1.794 3.31801,-3.847 2.59401,-5.856 4.38901,-2.873 0.70499,1.173 2.83099,2.463 4.823,3.282 8.91701,3.66501 18.16501,-1.667 26.28501,-5.656 4.06301,-1.99699 7.54701,-3.886 8.59101,-4.763 2.375,-1.997 4.271,-4.806003 5.36,-8.474007 0.619,-2.084995 1.286,-5.069998 1.286,-5.069998 0,0 -4.942,2.783003 -8.315,4.596005 -4.67801,2.513995 -10.39,4.691998 -14.97901,3.375996 -1.833,-0.526 -4.70601,-3.541996 -7.50201,-6.673 -0.27,-0.303 -0.443,-0.507 -0.52199,-1.227001 -0.061,-0.548001 -0.067,-1.394002 -0.067,-1.394002 0,0 6.026,-1.639002 9.716,-1.114001 3.03901,0.432001 6.36,3.961005 8.041,-0.333 0.659,-1.682002 -2.314,-5.479007 -4.28899,-6.873 -2.28401,-1.611002 -7.57901,-2.107003 -9.59801,-1.173002 -1.51701,0.702001 -7.23901,7.004 -8.27801,8.626002 -1.128,1.759002 -3.596,7.244001 -2.9,9.114003 0.571,1.537002 2.834,2.998004 4.13301,4.758005 0.625,0.847 1.082,1.828 0.826,2.231 -0.287,0.451 -1.43601,0.39 -2.45901,0.14 -1.269,-0.31 -2.55,-0.907 -3.831,-1.475 -10.99701,-4.883004 -0.423,0.127 -12.51401,1.926 -2.283,0.34 -5.095,-0.327 -6.39001,-1.111 -0.375,-0.228 -0.76,-0.526 -1.12999,-0.884 -3.241,-4.150003 -5.96401,-20.442014 -6.55801,-22.069008 -0.571,-1.566002 -1.197,-3.042004 -1.881,-4.365005 -1.218,-2.359003 -4.525,-6.568008 -6.862,-7.666009 -1.34,-0.631001 -1.44,0.544 -1.747,3.352003 -0.355,3.241004 -0.433,7.207009 0.089,7.96401 0.468,0.679001 1.272,0.984993 2.201,1.661994 0.67699,0.493 1.945,1.778002 2.736,2.967003 1.079,1.622002 4.053,13.308008 3.936,14.171009 -0.007,0.05296 -0.014,0.105 -0.022,0.154 -0.136,0.851001 -0.506,1.395002 -0.979,2.162003 -3.592,5.84101 -7.703,10.937 -13.65201,10.346 -4.299,-0.426 -6.644997,-3.69399 -6.974998,-8.327 -0.094,-1.308 -0.171,-3.052002 -0.216,-4.204003 z m 14.817008,-14.533009 -0.121,-0.373 c -1.199,-0.170001 -3.145,-1.091002 -3.861,-1.788003 -0.483,-0.47 -0.794,-0.873001 -1.067,-1.176001 l -0.97501,-1.084993 -2.448,1.254993 c -0.861,0.441001 -1.759,0.985001 -2.633,1.381002 -3.289997,1.490002 -11.497007,2.727003 -14.34301,0.818001 l -0.931002,-0.405001 1.043002,-3.353996 c 0.223,-0.715 0.449,-1.569001 0.609,-2.602003 0.685001,-4.425005 -2.560003,-9.839011 -4.976997,-12.693007 -4.883006,-5.766006 -7.303009,-4.478005 -12.548007,2.058003 -0.865001,1.077993 -1.555002,2.028994 -2.386003,3.444996 -2.472003,4.215005 -6.186007,12.550007 -6.186007,12.550007 0,0 -2.773004,-0.729001 -4.549006,-1.764994 C 54.934657,51.832605 53.860655,50.141603 52.678654,48.646602 51.772653,47.5016 51.653653,47.2076 51.491652,45.709598 l -0.744,-6.863008 c 0,0 -1.891003,0.022 -3.278004,0.187 -3.190004,0.380001 -8.994003,4.261005 -10.769005,6.767008 -1.464002,2.067003 -2.665003,10.330005 -1.926002,13.355008 0.822001,3.364004 3.815004,9.486003 3.815004,9.486003 0,0 -0.645,0.553001 -1.578002,1.345002 -9.387011,7.960014 -24.01902,14.330004 -33.710023,21.604014 -5.0430059,3.785 -4.279005,2.786 2.0870025,2.422 1.1140013,-0.063 8.0300015,-0.458 8.0300015,-0.458 1.383001,-0.079 1.676002,-0.16 2.926003,-0.812 5.886007,-3.068 19.748015,-11.84501 22.803019,-17.43701 1.715002,-3.140002 4.221997,-11.709004 4.031997,-12.836005 -0.593001,-3.530004 -4.444998,-10.105004 -4.444998,-10.105004 0,0 1.096002,-0.826001 2.319003,-1.498002 2.754995,-1.515001 6.155999,-2.247002 6.155999,-2.247002 0,0 0.929002,6.563999 1.903003,9.617003 1.011001,3.171004 4.937005,6.141007 8.760002,7.165008 3.873005,1.037002 15.42101,0.428001 19.109014,-0.829001 0.083,-0.02896 0.168001,-0.058 0.254001,-0.087 0.388,-0.131 0.767001,-0.256 1.130001,-0.367 l 2.174003,-0.707001 1.142001,1.167001 c 0.354,0.363001 0.700001,0.807001 1.093001,1.211002 10.043004,4.225997 17.499007,-1.901002 17.652007,-1.253002 0.771,-0.305 0.925,-0.393 1.133,-0.578 l 1.893,-1.089002 1.122,1.242002 c 0.458,0.507 0.924,1.116001 1.395,1.508002 0.69001,0.575 1.39001,0.683 2.59101,0.691 0.381,0.0032 0.812,-0.004 1.272,-0.01896 3.33099,-0.104 10.815,-0.442 17.909,-2.367002 1.53001,-0.416001 2.92401,-0.884001 3.75901,-1.440002 0.766,-0.510001 5.89901,-13.228008 5.96601,-14.783009 0.147,-3.390004 -0.203,-6.680008 -1.00301,-10.167004 -0.985,-4.293005 -2.926,-11.142013 -3.602,-16.728012 -0.318,-2.633003 -0.556,-5.632007 -0.556,-5.632007 0,0 0.713,-0.155 1.23,-0.07 0.846,0.138001 1.168,0.917001 1.591,1.659002 0.961,1.684002 2.44701,3.177004 3.72201,4.891006 3.16499,4.249997 8.151,15.41001 8.051,19.256007 -0.142,5.430006 -2.687,14.628009 -1.85,14.928009 2.608,0.933001 5.861,-13.386008 6.19,-15.45601 1.35601,-8.526002 0.381,-11.624006 -3.797,-20.199008 -2.762,-5.670006 -8.149,-15.3740104 -13.77201,-19.35001543 -4.814,-3.40400397 -6.55501,4.28000503 -7.093,11.06300643 -0.393,4.959005 1.59899,16.232011 2.778,21.364017 1.297,5.646998 2.976,14.957009 3.145,17.980013 0.069,1.226001 0.121,2.509995 0.121,2.509995 0,0 -2.902,0.0032 -4.91801,0.281 -3.75999,0.518001 -11.995,2.677003 -15.776,2.481003 z M 77.088667,55.185601 63.361658,55.465602 c 0,0 -0.094,-0.698001 -0.06504,-1.338002 0.068,-1.475994 4.245005,-7.121 5.257007,-8.187001 4.366997,-4.604006 6.838,-3.518005 10.055003,0.825001 3.355004,4.527005 4.975006,7.416 1.034002,8.189001 -0.914002,0.18 -1.169002,0.203 -2.554003,0.231 z m -23.082012,26.503024 5.031006,-5.47901 -6.648007,-7.240005 -6.649,7.240005 5.031998,5.47901 -5.031998,5.47899 6.649,7.24001 6.648007,-7.24001 -5.031006,-5.47899 z m 30.772741,-10.735411 -6.644008,7.235001 6.644008,7.235 6.642999,-7.235 -6.642999,-7.235001 z"
     style="fill:#000000;stroke:none" />
</svg>
