<?xml version="1.0" encoding="UTF-8" standalone="no"?>
<svg>
    <path
       style="fill:#000000;stroke:none"
       d="m 45.743995,44.897643 -4.92,4.887 c -0.817,0.812 -0.933,0.958 -1.162,1.458 -0.321,0.7 -0.431,1.872 -0.274,2.031 0.51,0.514 2.311,-0.734 2.938,-1.197 5.492,-4.05 7.994,-6.601 8.882,-11.845 0.451,-2.666 -0.961,-3.698 -3.458,-4.038 -3.962,-0.539 -7.894,0.013 -9.434,2.996 0.241,11.39 0.579,4.876 3.939,4.068 3.738,-0.9 7.757,-2.897 3.489,1.64 z m -16.715,-29.662 -0.553,0.01 c -0.713,0.012 -0.809,0.101 -0.961,0.891 -0.067,0.346 -0.265,0.874 -0.489,1.384 -1.299,2.971 -2.848,2.285 -3.963,0.09 -1.018,-2.003 -2.241,-4.218 -2.442,0.227 -0.08,1.782 0.119,5.18 1.493,6.105 1.47,0.99 3.749,0.222 5.171,-0.738 0.335,-0.227 0.633,-0.49 0.795,-0.824 0.093,-0.192 0.141,-0.407 0.175,-0.619 l 0.201,-1.244 1.386,0.157 c 0.252,0.028 0.515,0.053 0.769,0.041 0.882,-0.038 1.561,-0.464 2.069,-1.093 2.312,-2.857 1.245,-6.307 -0.568,-8.736 -1.355,-1.8169999 -3.644,-4.6679999 -1.406,1.033 0.816,2.079 0.69,3.275 -1.677,3.316 z m 20.854,51.063 -5.276,5.277 5.276,5.276 5.277,-5.276 -5.277,-5.277 z m -39.616,-58.6389999 c -0.7806002,0.013 -1.4048002,0.505 -1.3945002,1.098 0.0104,0.594 0.6514,1.063 1.4315002,1.05 0.781,-0.014 1.405,-0.506 1.395,-1.099 -0.011,-0.593 -0.652,-1.063 -1.432,-1.049 z m 5.705,0.01 -1.553,0.027 c 0,0 -0.039,-2.198 -0.039,-2.198 0,0 0.537,-0.075 0.966,-0.03 1.759,0.184 2.521,2.168 0.626,2.201 z m -9.0167002,0.773 c -0.1173,1.388 -0.2135,4.0279999 0.521,4.6529999 1.2496,1.062 2.4872,0.549 2.232,1.896 -0.1755,0.925 -1.1433,2.202 -1.4804,3.368 -0.1793,0.62 -0.3416,2.028 -0.1815,2.202 0.5705,0.619 3.0756002,-1.945 3.2586002,-2.256 1.134,-1.923 0.856,-3.983 2.33,-5.098 1.226,-0.927 3.61,-1.065 4.804,-1.916 1.129,-0.805 2.62,-5.1489999 1.947,-6.8759999 -1.237,-3.178 -7.169,-5.918 -9.164,-3.48 -0.134,0.165 -0.254,0.351 -0.326,0.555 -0.166,0.462 -0.089,1.011 -0.306,1.452 -0.4,0.81 -1.7933002,1.251 -2.4913002,1.888 -0.7213,0.658 -1.0264,2.229 -1.1434,3.612 z M 78.688995,53.678643 c 0.338,-0.298 0.679,-0.654 0.973,-1.064 1.21,-1.687 1.856,-7.069 1.856,-7.069 0,0 -0.809,-0.047 -1.407,0.025 -0.842,0.101 -1.265,0.439 -1.91,0.866 l -7.601,3.988 c -1.884,0.872 -5.635,0.603 -6.882,0.269 -0.838,-0.224 -1.534,-0.554 -2.358,-1.058 -1.467,-0.897 -6.076,-5.716 -6.272,-6.557 -0.177,-0.762 -0.022,-1.462 0.404,-2.063 0.423,-0.594 3.99,-1.717 5.424,-1.707 4.554,0.031 11.285,1.562 11.285,1.562 0,0 -0.049,-0.296 -0.008,-0.439 0.042,-0.142 0.174,-0.133 0.266,-0.176 0.219,-0.1 0.21,-0.496 0.156,-0.887 -0.274,-1.954 -2.274,-4.901 -3.618,-5.698 -2.125,-1.26 -7.472,-1.767 -9.119,-1.38 -1.281,0.301 -4.149,2.145 -4.923,3.164 -2.055,2.71 -3.455,10.269 -2.166,12.852 1.075,2.153 3.657,4.16 4.251,5.802 0.344,0.952 -0.286,0.948 -2.099,0.697 -1.328,-0.185 -3.186,-0.398 -4.064,-1.029 -1.502,-1.079 -2.309,-3.329 -3.303,-2.801 -0.7,0.373 -1.241,2.286 -1.871,3.471 -1.755,3.3 -7.808,3.197 -9.966,1.134 -0.896,-0.857 -1.471,-2.127 -1.82,-3.487 -0.749,-2.914 -0.465,-6.239 -1.712,-9.865 -1.129,-3.283 -3.061,-7.711 -2.783,-8.263 0.441,-0.876 4.994,-3.071 6.922,-3.754 1.67,-0.592 1.361,0.261 3.598,1.767 1.044,0.702 5.304,1.474 6.324,0.989 1.262,-0.6 3.886,-6.495 4.444,-7.606 0.43,-0.856 0.776,-1.524 0.947,-2.515 0.45,-2.603 -1.559,-13.6929999 -1.559,-13.6929999 0,0 0.811,-0.067 1.407,-0.025 2.096,0.147 4.256,2.9179999 5.145,4.3869999 1.217,2.015 3.461,6.378 2.908,8.49 -0.133,0.507 -1.66,3.193 -1.254,3.716 0.752,0.97 2.53,-2.713 2.782,-3.207 2.163,-4.244 3.538,-6.333 1.596,-10.503 -0.983,-2.1109999 -3.606,-5.8369999 -5.183,-7.1649999 -2.456,-2.071 -7.478,-4.846 -7.478,-4.846 0,0 -1.13,1.471 -1.796,2.589 -0.685,1.149 -0.879,1.923 -1.269,2.88 -0.13,0.319 -0.281,0.658 -0.334,1.01 -0.071,0.475 -0.076,0.66 -0.052,1.847 0.09,4.4059999 0.096,10.6259999 0.666,13.1989999 0.806,3.638 2.297,5.386 -0.795,4.843 -2.293,-0.404 -5.86,-1.387 -6.661,-3.693 -0.13,-0.374 -0.103,-0.744 -0.02,-1.116 0.179,-0.797 0.618,-1.603 0.832,-2.741 0.424,-2.247 -2.329,-16.0549999 -2.329,-16.0549999 0,0 -0.749,-0.124 -1.179,0.02 -0.568,0.19 -0.581,0.877 -0.703,1.552 -0.154,0.857 -0.505,1.702 -0.774,2.592 -0.559,1.851 -0.74,4.0969999 -0.27,5.9869999 0.243,0.977 0.606,1.875 0.812,3.299 0.446,3.089 0.151,8.652 0.151,8.652 0,0 -3.529,1.636 -5.675,2.438 -2.479,0.928 -4.332,1.367 -6.031,-0.057 -0.871,-0.731 -2.012,-1.99 -2.532,-1.772 -0.626,0.262 -1.089,2.277 -1.801,2.67 -0.708,0.391 -3.969,-1.065 -4.599,-1.459 -1.303,-0.815 -2.555,-2.107 -3.685,-3.768 -2.3329002,-3.429 -2.3724002,-3.846 -5.1531002,-1.292 -3.8804,3.565 -4.5132,6.914 -6.44550002,13.305 -0.3438,1.137 -0.3816,1.286 -0.37819999943,1.483 l 0.007699999,0.44 0.4692,-0.008 c 0.2108,-0.004 0.2874,-0.125 0.76590002,-1.213 0.6886,-1.566 3.3499,-7.29 5.8138,-8.137 0.5188,-0.179 1.3842,0.212 1.6032,1.142 0.0125,0.053 0.0233,0.108 0.0328,0.165 -0.0035,-0.021 5.1582002,5.49 9.6972002,5.958 0.052,0.006 0.099,0.009 0.14,0.011 1.368,0.049 2.646,-0.359 3.579,-0.063 2.51,0.798 7.271,11.833 7.325,12.512 0.383,4.807 -6.83,13.373 -12.926,14.361 -14.2652002,2.312 -5.961,-11.122 -5.213,-15.309 0.025,-0.137 0.055,-0.274 0.097,-0.407 0.38,-1.191 1.734,-2.009 2.132,-3.091 0.265,-0.717 0.249,-2.124 0.182,-2.202 -0.313,-0.361 -1.543,0.118 -2.734,0.37 -6.5903002,1.39 -3.3436002,-8.992 -4.0982002,-6.996 -0.6376,1.686 -2.4342,7.163 -1.924,8.89 0.2081,0.704 1.0506,1.747 1.7545,2.097 1.4364,0.713 2.5544,0.362 2.2683,1.615 -0.1772,0.775 -0.9492,1.779 -1.4116,2.759 -2.9613,8.669 -1.6005,15.85 3.9270002,18.398 2.775,1.28 6.295,1.106 9.263,-0.741 3.254,-2.025 6.554,-5.432 8.225,-8.188 1.432,-2.361 2.979,-5.696 2.979,-5.696 0,0 -0.149,2.406 0.073,4.183 0.686,5.492 5.1,7.517 9.649,6.569 1.082,-0.226 2.087,-0.569 2.755,-1.368 0.442,-0.528 0.737,-1.059 0.981,-1.529 l 1.146,-2.209 c 0,0 3.252,1.878 3.252,1.878 3.859,2.078 8.627,2.075 12.611,1.15 7.671,-1.78 13.478,-5.61 16.267,-8.076 z m -51.09,-45.2519999 c 0.065,-0.557 0.12,-1.169 0.131,-1.707 0.034,-1.741 -1.331,-7.488 -2.931,-6.633 -0.915,0.488 -1.342,2.567 -1.081,3.537 0.243,0.904 1.027,1.94 1.592,3.05 0.253,0.497 0.461,1.008 0.611,1.536 0.675,2.3759999 -0.043,9.4979999 1.678,0.217 z" />
</svg>
