<?xml version="1.0" encoding="UTF-8" standalone="no"?>
<svg>
  <path
     d="m 203.08412,53.53375 -6.10125,6.06125 c -1.01375,1.0075 -1.15875,1.18875 -1.4425,1.80875 -0.3975,0.86875 -0.535,2.32125 -0.33875,2.51875 0.63125,0.6375 2.86625,-0.91 3.64375,-1.48375 6.81125,-5.02375 9.91375,-8.1875 11.015,-14.69125 0.56,-3.30625 -1.19,-4.58625 -4.28875,-5.0075 -4.91375,-0.67 -9.79,0.015 -11.7,3.715 0.29875,14.12625 0.7175,6.0475 4.885,5.045 4.63625,-1.115 9.62125,-3.59375 4.3275,2.03375 z m -94.87766,-8.931983 -6.10125,6.06125 c -1.01375,1.0075 -1.15875,1.18875 -1.4425,1.80875 -0.3975,0.86875 -0.535,2.32125 -0.33875,2.51875 0.63125,0.6375 2.86625,-0.91 3.64375,-1.48375 6.81125,-5.02375 9.91375,-8.1875 11.015,-14.69125 0.56,-3.30625 -1.19,-4.58625 -4.28875,-5.0075 -4.91375,-0.67 -9.79,0.015 -11.699999,3.715 0.29875,14.12625 0.7175,6.0475 4.884999,5.045 4.63625,-1.115001 9.62125,-3.59375 4.3275,2.03375 z m 121.22518,-2.925361 0.55,-0.01 c 0.2475,-0.004 0.31375,-0.155 0.6625,-1.50375 2.01,-7.75876 2.37625,-12.04251 -2.5675,-17.01876 -0.81375,-0.82 -1.7625,-1.5075 -2.3725,-0.7725 -0.415,0.49875 -0.83876,4.015 -0.65,4.78375 0.33125,1.34375 1.31,1.77875 2.44125,2.69125 2.55625,2.06 3.19625,3.60625 2.87125,6.35001 -0.24875,2.105 -0.935,5.48 -0.935,5.48 z m -3.57625,-25.20127 c 1.17375,-0.68 2.225,-1.225 3.1025,-1.585 0.6225,-0.25625 1.14625,-0.40125 1.34,-0.0588 0.155,0.275 -1.3875,6.92876 0.55375,5.00875 0.5375,-0.53 0.79875,-1.9225 1.20625,-3.1275 0.64875,-1.92125 1.66875,-3.365 3.15375,-4.6125 7.23751,-6.0750104 9.37626,-4.2825104 10.20251,-9.6725104 0.35375,-2.30500002 0.105,-2.82750002 -1.8825,-2.15500002 -2.2,0.74500002 -5.3525,2.44375002 -8.82001,4.55250002 -0.1825,0.11125 -0.40125,0.24625 -0.65125,0.4025 -1.925,1.19875 -4.1625,2.6375 -6.55375,4.22376 -9.23501,6.1250004 -13.08251,8.5375004 -20.35752,16.5737604 -1.93,2.1325 -3.14625,3.98875 -3.29375,5.37875 -0.1525,1.42625 0.20875,3.20625 1.19625,5.85376 0.62125,1.665 1.8425,3.695 2.96625,4.025 1.02125,0.2975 1.69875,-1.1325 1.71875,-1.98 0.0263,-1.10125 0.004,-2.535 -0.2575,-3.065 -0.20125,-0.41 -0.54625,-0.27875 -1.1775,-0.71375 -0.7925,-0.5475 -2.0375,-1.99126 -2.0375,-1.99126 0,0 1.26125,-1.35375 2.9275,-3.0925 4.54126,-4.7375 11.64751,-11.05626 16.66377,-13.96501 z m -10.14376,2.3975 -0.1625,-3.72875 c -0.0663,-1.50625 -0.0438,-1.77625 0.2175,-2.7 0.19375,-0.685 0.39875,-1.435 0.91875,-1.9175 1.26625,-1.1762504 4.4025,-0.7687504 5.85625,-1.7387504 2.0925,-1.39501 2.095,-6.18751 0.48375,-8.13001002 -1.7075,-2.05874998 -5.16125,1.21125002 -6.57625,3.08375002 -0.86875,1.15 -1.6925,2.4675 -2.0625,4.005 -0.17125,0.71251 -0.26625,1.52126 -0.4,2.23001 l -0.6575,3.4675004 -2.16876,-2.76125 c -2.97,-3.9100104 -2.065,-5.0725104 -6.42875,-6.1362604 -1.46125,-0.35625 -4.6325,-0.22375 -5.2425,1.4225 -0.47625,1.28875 0.64375,4.4212604 1.345,5.1650104 0.53875,0.5725 2.7225,1.99125 3.625,2.07875 1.47375,0.1425 4.485,-0.755 4.485,-0.755 0,0 2.43125,3.49875 3.91626,5.14125 0.6475,0.7175 1.18375,1.295 2.01375,1.31 0.34375,0.007 0.8375,-0.0362 0.8375,-0.0362 z m -62.47755,4.89626 -0.64,0.01 c -0.8225,0.015 -0.93375,0.1175 -1.10875,1.03 -0.0775,0.4 -0.30625,1.00875 -0.565,1.59875 -1.5,3.43125 -3.28875,2.6375 -4.5775,0.10375 -1.17501,-2.31375 -2.58751,-4.87125 -2.81876,0.26125 -0.0937,2.05875 0.13625,5.98375 1.7225,7.05125 1.69876,1.14376 4.33001,0.25625 5.97251,-0.8525 0.38625,-0.26125 0.7325,-0.565 0.91875,-0.95125 0.1075,-0.2225 0.1625,-0.47 0.2025,-0.715 l 0.23125,-1.43625 1.60125,0.18125 c 0.29125,0.0325 0.595,0.06 0.8875,0.0475 1.01875,-0.045 1.8025,-0.53625 2.39,-1.2625 2.67001,-3.3 1.43751,-7.285 -0.65625,-10.09001 -1.565,-2.09875 -4.20875,-5.39125 -1.62375,1.19375 0.9425,2.40126 0.79625,3.78126 -1.93625,3.83001 z m -9.95751,-11.81376 c 3.59251,-1.88875 9.46126,-4.8325104 10.51751,-6.1162604 1.06125,-1.29125 1.395,-2.795 1.99125,-4.41 0.495,-1.34250002 0.4275,-1.50500002 -0.73875,-1.40375002 -0.4175,0.0375 -0.6125,0.13125 -1.95,0.94125 L 142.76657,7.2176256 c -1.3375,0.81 -1.51875,0.925 -1.815,1.14751 -1.02125,0.76875 -1.165,2.1175004 -1.52125,4.0487504 -0.23875,1.29 -0.235,1.51125 1.26625,0.94125 0.24125,-0.0913 0.5,-0.19625 0.7175,-0.355 0.29125,-0.2125 0.4775,-0.3175 1.8625,-1.045 z M 107.0528,18.29563 106.5353,8.4381298 c -0.0762,-1.46251 -0.10625,-1.71626 -0.30125,-2.54501 -0.59751,-2.53875 -2.20501,-3.93 -3.88626,-4.8275 -2.1375,-1.14125004 -3.768749,-1.56625004 -5.971249,0.0412 -1.81125,1.32125 -1.98125,6.10625 -1.27,6.855 0.53125,0.55876 1.93875,0.50751 3.6425,0.1075 4.256249,-0.99875 4.682499,-0.76875 5.791249,3.7312602 0.52625,2.13875 0.58875,4.1425 0.33,6.29375 -0.55125,4.56751 -1.84375,6.78876 0.69,9.47001 1.05376,1.11625 2.15501,1.285 4.56126,0.79 1.70875,-0.3525 2.0475,-1.14625 2.76375,-3.5125 0.505,-1.66625 0.90375,-3.1575 0.77375,-4.81876 -0.25625,-3.29625 -3.81875,-9.49 0.475,-11.0287502 0.79375,-0.28375 1.82375,-0.0988 2.71125,0.095 1.1975,0.26125 1.40125,0.1425 2.0325,-1.18251 0.51876,-1.09 1.11876,-2.09375 1.44876,-3.26625 1.24,-4.40375004 -0.6575,-5.64625 -4.46501,-3.84250004 -4.36625,2.06875004 -6.3275,10.93376024 -5.395,16.87751024 0.28625,2.44875 0.59875,4.65501 0.59875,4.65501 0,0 -0.26125,-0.002 -0.57125,-0.0337 -1.2225,-0.12 -3.32375,-1.74251 -3.44125,-4.00126 z m 3.49,72.018316 4.37875,4.38 6.37501,-6.37375 -6.37501,-6.37501 -4.37875,4.38 -4.38,-4.38 -6.375009,6.37501 6.375009,6.37375 4.38,-4.38 z m 87.02506,-8.36876 -6.37375,6.37501 6.37375,6.37375 6.37501,-6.37375 -6.37501,-6.37501 z m -111.273829,-58.70879 -6.37375,6.37375 6.37375,6.37501 6.37501,-6.37501 -6.37501,-6.37375 z m 43.625029,69.7613 c 3.59251,-1.88875 9.46126,-4.8325 10.51751,-6.11626 1.0625,-1.29 1.39625,-2.79375 1.9925,-4.41 0.495,-1.34125 0.42625,-1.505 -0.74,-1.4025 -0.4175,0.0362 -0.6125,0.13 -1.95,0.94 l -10.33001,6.25251 c -1.3375,0.80875 -1.51875,0.92375 -1.815,1.14625 -1.02,0.76875 -1.16375,2.11875 -1.52125,4.04875 -0.23875,1.29125 -0.235,1.51125 1.2675,0.9425 0.24125,-0.0925 0.5,-0.1975 0.71625,-0.35625 0.2925,-0.2125 0.47875,-0.3175 1.8625,-1.045 z m -41.262529,-30.10377 -2.47125,-0.065 c -1.11,-0.0288 -1.345,-0.0513 -2.3425,-0.22625 -1.89125,-0.3325 -5.26751,-2.22376 -4.94876,-4.48251 0.0437,-0.31125 0.1325,-0.42375 0.88876,-1.12125 3.0075,-2.77625 4.83125,-0.695 7.4575,2.0125 0.645,0.66375 1.34125,1.26875 1.4525,2.49376 0.0562,0.61625 -0.0362,1.38875 -0.0362,1.38875 z m 59.080049,0.1575 c 0.19875,0.285 0.1875,0.91 -0.0362,1.38875 -0.6625,1.4175 -14.84501,1.34 -18.02252,0.86875 -1.36375,-0.20125 -1.98875,-0.56125 -1.6525,-1.615 0.59625,-1.8725 7.12376,-6.66376 8.99001,-7.06376 3.41375,-0.73125 8.07125,2.62 10.72126,6.42126 z m -56.156299,10.549824 -1.92375,2.47001 c -0.31375,0.23875 -0.66625,0.4775 -1.05875,0.71 -1.7025,1.01125 -3.31375,1.725 -7.005,2.97125 -9.62751,3.25375 -23.49252,5.16125 -36.84628,5.16125 -2.2425,0 -4.33375,-0.0225 -6.31501,-0.0875 -16.50126,-0.54875 -24.61251,-3.6225 -33.93252,-16.64501 -2.425,-3.25875 -4.05625002,-5.49375 -4.45875002,-6.045 -0.38626,-0.6975 1.53375002,27.92877 27.13752002,31.26752 0.33625,0.045 0.67875,0.0838 1.02375,0.1175 10.55375,1.63 21.52751,1.39125 32.14377,0.32 10.08876,-1.0175 24.12752,-5.11625 30.40377,-11.73751 1.55875,-1.645 2.91251,-3.41125 3.72251,-5.6675 0.2675,-0.74375 0.47125,-1.40875 0.65125,-2 0.4125,-0.58751 0.98875,-0.97251 1.95125,-1.18501 1.205,-0.26625 2.685,-0.195 4.067499,-0.4725 1.4875,-0.29875 5.81126,-2.51625 7.68251,-3.76125 0,0 2.52375,-1.5525 2.52375,-1.5525 0,0 0.595,0.89 0.81625,1.22375 1.6,2.395 1.6025,3.37375 4.34375,4.6025 0.70625,0.31625 1.2875,0.60375 1.38875,1.14251 0.009,0.0462 -0.0175,0.145 -0.0663,0.285 -2.8925,8.1875 0.14125,2.97875 2.67001,0.9725 0.365,-0.29 0.82375,-0.2875 1.79875,-0.1725 3.40875,0.40375 6.79875,0.91 10.26376,0.69 4.335,-0.27625 10.7075,-2.43126 14.13626,-1.89626 10.44625,1.63251 4.395,2.22376 13.35626,0.29001 1.72625,-0.37251 3.365,-0.82626 4.2125,-1.32876 2.21875,-1.31625 6.1075,-11.03 6.36625,-12.19376 0.41875,-1.89125 -1.04875,-12.53875 -1.96875,-23.02626 -0.95125,-10.84751 -0.4975,-25.21127 -0.4975,-25.21127 0,0 1.1775,0.14875 2.23375,0.35 5.72001,1.09 12.55876,6.94875 15.50752,11.97876 3.77,6.43125 4.25375,9.63501 3.07,16.89376 -0.91125,5.5875 -3.18125,11.28126 4.52,-1.0975 1.16875,-3.96375 1.51125,-8.79751 1.435,-10.62501 -0.4825,-11.53001 -7.955,-21.76251 -18.49751,-26.71502 -3.36125,-1.58 -7.83876,-3.385 -7.83876,-3.385 0,0 -1.9575,2.5025 -3.1125,4.42 -1.1275,1.87125 -1.49,3.18375 -1.99125,4.86876 -0.4475,1.5025 -0.48875,1.84375 -0.41125,3.405 l 2.5725,51.59129 c 0,0 -3.05625,1.07 -6.2,1.37875 -3.24001,0.31875 -6.57501,-0.17125 -6.57501,-0.17125 0,0 1.71,-5.40751 1.39,-8.85001 -0.17625,-1.8925 -8.07625,-11.70126 -13.04626,-10.57126 -2.52375,0.57375 -5.1825,2.47001 -7.0675,4.44876 -1.43,1.5 -3.58001,3.96125 -3.58001,3.96125 l 0.895,-34.15378 3.47251,0.0913 L 132.10401,0 c 0,0 -3.4075,2.9975 -5.14375,4.8125 -1.09375,1.1425 -1.71375,2.65875 -1.5475,3.78251 0.3725,2.51625 2.00875,7.34 1.70875,10.2025 -0.0225,0.22 -0.0575,0.42875 -0.14,0.62875 -0.11,0.27 -0.12375,0.47375 -0.1425,2.03626 l -0.44625,38.18002 -2.6275,5.14626 c 0,0 -2.41875,-0.88 -3.8425,-1.365 -1.12876,-0.385 -1.63376,-0.5225 -2.28501,-1.21875 -1.41,-1.50751 -3.50375,-5.63376 -3.50375,-5.63376 0,0 -1.45625,1.4875 -2.78875,2.5725 -2.39,1.9475 -7.20751,3.93376 -10.07001,4.08126 -1.876249,0.0962 -4.712499,-0.12375 -4.712499,-0.12375 0,0 -1.98375,-6.09626 -3.59625,-9.94126 -2.16501,-5.1575 -5.48001,-9.38876 -10.26126,-6.35126 -5.24251,3.33001 -8.71251,13.72626 -8.03376,19.20627 0.43375,3.4875 1.66375,5.28625 4.4725,6.1875 1.99501,0.64 5.17251,0.945 7.92001,1.09125 l 4.51625,0.3075 z M 235.69414,65.511426 c -3.47875,-0.12 -6.7675,-0.73 -9.12125,-1.85375 -2.42751,-1.15875 -7.83376,-6.06876 -7.80251,-7.76501 0.035,-1.88375 3.615,-2.735 6.94876,-3.8425 0.85375,-0.285 1.71125,-0.5925 2.61125,-0.66125 1.2125,-0.0937 1.52,-0.085 3.07375,0.09 l 11.67251,1.315 c 0,0 0.0962,-0.81375 0.0362,-1.38875 -0.12,-1.17125 -2.85625,-3.74251 -3.365,-4.20126 -6.10126,-5.5025 -17.40127,-3.3675 -21.21252,2.63001 -0.8475,1.33375 -1.25375,2.7175 -1.58375,5.1725 -0.59,4.39625 -0.9325,12.23251 -0.9325,12.23251 0,0 -0.745,-0.3375 -1.84125,-0.795 -0.22875,-0.0963 -5.73876,-2.03375 -5.49251,-2.85875 -1.2175,-0.84875 -1.57125,-1.4725 -1.57125,-1.4725 l -2.99875,3.20625 c -0.4025,0.57625 -0.775,1.23625 -1.3825,1.76875 -0.41375,0.36375 -0.91,0.6525 -1.47125,0.87375 -2.62125,1.03625 -5.89001,-0.405 -8.31376,-1.935 -0.2675,-0.16875 -0.52375,-0.345 -0.7725,-0.52625 -4.47125,-3.28125 -5.89,-11.85751 -6.2625,-15.89751 -0.16625,-1.80251 -0.5275,-3.65876 -1.50626,-5.68501 -1.09625,-2.26875 -2.4175,-5.4675 -3.55625,-7.77875 -1.0225,-2.07126 -4.3575,-6.80376 -5.9925,-4.38001 -1.7725,2.62375 -0.99375,9.73251 -0.009,11.39126 0.845,1.425 2.43125,2.2675 3.66625,3.765 1.9325,2.34501 4.9675,10.01376 4.97125,10.65876 0.0238,3.87751 -9.09125,12.76626 -13.48376,15.76501 -2.6025,1.77751 -6.28375,4.04751 -9.24875,4.27501 -7.41001,0.905 -9.45126,-8.79376 -10.33876,-10.49876 l -0.1,-0.1475 -0.94625,9.01126 c 0.10625,1.23375 0.1525,2.6075 0.48125,3.7825 1.125,4.02375 7.315,9.13126 10.84376,8.39376 0.20375,-0.0425 0.41,-0.0937 0.62,-0.15375 5.2,-1.48626 16.33626,-11.08751 19.16626,-15.59127 1.51125,-2.40375 3.5425,-7.06375 3.5425,-7.06375 0,0 0.34125,1.02625 0.8225,2.31375 1.94876,5.21875 3.80126,12.28376 13.65252,10.23501 0.8425,-0.47125 1.515,-0.9825 2.1125,-1.45 0,0 2.92125,-2.28501 2.92125,-2.28501 0,0 1.2425,0.61251 2.45625,1.21126 9.77001,4.81875 21.43252,3.75 31.10627,-0.54 1.03376,-0.45876 2.12376,-0.96001 3.29251,-1.50501 0.695,-0.32375 1.34875,-0.6575 1.9525,-1.00125 2.5675,-1.4575 3.455,-2.89375 5.07875,-5.6025 2.92625,-8.21626 1.77625,-7.61126 -2.88625,-4.8975 -0.89625,0.52125 -1.81375,1.1275 -2.74125,1.635 -1.66625,0.91125 -3.78376,1.5975 -6.09626,2.05125 z"
     style="fill:#000000;stroke:none" />
</svg>
