<?xml version="1.0" encoding="UTF-8" standalone="no"?>
<svg>
  <path
     d="m 21.304993,42.851861 c 1.01,-1.2675 1.83125,-2.3725 2.36,-3.21375 1.25875,-2.0025 2.31125,-4.8975 3.62125,-5.61 1.85125,-1.00875 5.98875,-0.34 7.57,-1.2 1.83375,-0.99875 2.455,-6.8775 2.1625,-9.42 -0.63375,-5.5225 -2.95625,-7.97875 -7.57,-11.28 -4,-2.8624999 -7.31125,-5.8574999 -8.425,-2.2374999 -0.20375,0.6637499 -0.2475,0.9149999 -0.44,2.5212499 l -1.9425,16.26 c -0.19125,1.60625 -0.07375,1.8275 1.17625,2.2075 2.18,0.66375 3.38,1.34625 3.1975,3.11625 -0.05,0.4825 -0.17,0.66375 -1.2,1.81125 0,0 -4.7275,5.33875 -8.015,9.05125 -5.858,6.615 -5.392375,6.215 -9.65175,10.5225 -1.705,1.72375 -3.39562499,3.608746 -3.89899999,5.467496 -0.281125,1.0375 -0.379875,2.47625 0,2.88 0.335,0.35625 1.17812499,-0.15 2.10299999,-0.8975 8.25825,-6.674996 18.3065,-19.168746 18.95275,-19.978746 z m 3.74125,-20.09125 c 0.98125,0.6225 2.085,1.98 2.24,2.3625 0.30375,0.7525 0.30125,1.7 0,2.005 -0.515,0.5175 -3.71125,-1.2425 -5.4075,-2.1 -0.2725,-0.13875 -0.46875,-0.23625 -0.54125,-0.66 -0.05125,-0.3025 -0.04,-0.76875 -0.02375,-1.08875 0.09125,-1.73875 3.56625,-0.625 3.7325,-0.51875 z m 8.72875,4.3675 -3.785,0 0.54,-6 c 0,0 0.28875,0.14375 0.54125,0.3 1.0475,0.64875 2.6,2.95625 2.70375,3.78 0.095,0.75625 0,1.92 0,1.92 z m -9.86,39.813746 c 0.43875,-1.56875 0.86,-3.305 1.47875,-5.09875 0.705,-2.04375 5.0775,-10.208746 6.9425,-8.399996 0.74875,0.72625 0.63375,3.12125 1.1675,4.8 0.86,2.696246 5.0075,5.437496 7.47375,5.999996 4.2775,0.975 7.39375,-0.40375 11.1225,-2.21875 1.44875,-0.705 3.3075,-1.515 3.96625,-2.6575 0.59625,-1.032496 0.63625,-1.836246 1.23,-1.123746 0.54,0.646246 0.765,1.573746 0.8075,2.624996 l 3.78875,3.375 0,0.6 5.05625,-0.45375 c 1.455,-0.13125 1.6975,-0.19625 2.4275,-0.65 0.54125,-0.3375 1.00125,-0.8225 1.43875,-1.29625 1.6125,-1.7475 4.85125,-7.541246 5.1375,-9.191246 0.73375,-4.2375 -2.4575,-36.54375 -1.6225,-38.4125 1.20375,-2.69625 3.22125,-2.0825 7.02875,1.10375 3.16375,2.64625 10.6675,9.86875 11.2225,15.52375 0.12,1.22375 0.13375,1.54 0.13375,3.16 l 0.80125,10.97 c 0.53125,-0.55125 1.185,-1.10875 1.63125,-1.75375 1.85375,-2.6725 2.58875,-11.47625 2.43375,-13.8 -0.93,-13.90875 -8.92375,-21.0187499 -20.8225,-28.4274999 -3.5725,-2.22375002 -4.635,-2.50500002 -5.94375,1.4275 -0.90625,2.72125 -1.26875,6.05625 -1.66375,9.1362499 -0.20625,1.605 -0.22,1.96375 -0.13625,3.58125 l 2.07,40.0825 c 0,0 -3.61125,0 -3.61125,0 -0.1875,0 -0.355,0 -0.505,-0.0012 -6.01125,-0.0425 -6.1325,-11.94875 -6.175,-12.61375 -0.0825,-1.25875 -0.10375,-2.55375 0.0175,-3.59625 0.2125,-1.8175 0.86,-2.87125 1.08125,-4.17625 0.27375,-1.6125 -0.2925,-11.7725 -1.94625,-12.6125 -2.3975,-1.2175 -4.4225,7.605 -4.5425,8.38875 -0.4075,2.67375 0.46875,12.5575 0.945,18.82125 0.12375,1.615 0.0538,1.87875 -0.68875,2.64 -2.555,2.61875 -8.845,3.2625 -11.43875,2.55 -2.9775,-0.8175 -6.17625,-2.9625 -6.93125,-6 -1.17875,-4.73625 0.21875,-7.52625 -2.975,-6.6 -3.82625,1.11 -6.3875,3.63 -8.11,7.8 -3.325,8.0425 -2.74375,12.129996 -6.6625,13.199996 -2.3875,0.6525 -3.355,0.0263 -4.83375,-2.20125 -4.840875,-7.298746 -3.572125,-21.077496 -1.235,-27.956246 0.90625,-2.6675 1.66,-4.31125 -0.03125,-4.0975 -0.38875,0.05 -0.475,0.22875 -0.8625,1.79125 -0.674875,2.7225 -1.55575,6.3675 -2.400125,9.615 -3.413375,13.12375 -2.13425,21.554996 -0.0055,26.444996 6.280625,12.58625 13.324375,1.19 13.740625,-0.2975 z m 59.62125,-33.941246 c -0.9975,-1.55875 -1.90125,-2.70625 -2.5825,-3.0975 -1.88875,-1.085 -2.8275,2.6375 -3.42875,6.6 -0.53875,3.55375 1.91625,4.79375 5.515,10.925 2.23125,3.80375 4.73625,11.871246 4.21875,15.282496 -0.78125,5.15 -8.12625,15.9075 -14.51375,19.13375 -4.96125,2.50625 -9.57875,-0.86375 -10.2825,-6.2 -1.145,-8.685 0.5675,-24.284996 0.57875,-24.387496 -0.17125,1.5625 -2.72375,13.972496 -4.10875,20.889996 -1.20125,6.00125 -1.715,10.17 1.66,15.5275 2.11125,3.35125 5.31125,5.49 8.93,4.62875 5.075,-1.20875 12.62375,-7.48125 15.84375,-11.4 1.1925,-1.4525 2.0225,-2.78875 2.94625,-5.54375 0.7775,-2.3175 1.62125,-5.63625 1.62125,-5.63625 0,0 0.575,1.57 1.00375,2.685 1.29875,3.38125 2.14,3.34625 5.94625,3.695 1.005,0.0913 1.95625,0.15625 2.92,0 2.707497,-0.4425 5.509997,-2.64375 7.569997,-2.4 1.32625,0.155 2.62875,1.67875 4.2175,2.7 6.21375,3.9925 20.4975,2.42125 27.5775,-0.6 5.6075,-2.39375 8.4225,-5.0575 10.15,-10.9475 0.2525,-0.85875 0.4375,-1.68625 0.12375,-1.9525 -0.4175,-0.35625 -1.92875,0.34375 -3.24375,0.9 -9.73,4.1075 -17.73,7.41 -22.98125,0.3 -1.36,-1.84125 -3.02625,-5.56125 -1.3525,-6.899996 1.87375,-1.5 8.46625,-1.94625 9.4925,-1.7675 3.605,0.63 5.93125,2.8725 8.11375,-0.31 1.0375,-1.515 -0.66625,-2.84125 -3.54625,-5.4225 -4.24375,-3.80375 -7.68125,-4.18 -12.4375,-1.2 -1.57375,0.985 -2.845,2.0975 -3.515,3.6 -2.55375,5.7325 -1.09,17.646246 -4.70375,15.599996 -2.41125,-1.36625 -4.46875,-4.4225 -5.99125,-4.0175 -0.82375,0.2175 -2.0225,1.295 -3.09375,1.9175 -1.6975,0.985 -10.293747,2.04125 -11.354997,-0.69625 -0.2275,-0.58625 -0.1275,-1.48375 -0.0463,-2.4675 0.30875,-3.7025 -2.065,-10.462496 -4.43375,-16.094996 -3.8025,-9.04375 -5.62,-11.47875 -6.8125,-13.34375 z m 32.077497,-12.73375 -0.1575,-4.00375 c -0.0637,-1.61875 -0.0425,-1.90875 0.21125,-2.9 0.1875,-0.73625 0.38625,-1.54 0.88875,-2.05875 1.22625,-1.26375 4.26125,-0.82625 5.6675,-1.8674999 2.02625,-1.4975 2.0275,-6.645 0.46875,-8.73125002 -1.6525,-2.21124998 -4.995,1.30125002 -6.365,3.31125002 -0.84125,1.235 -1.6375,2.65 -1.995,4.30125 -0.16625,0.765 -0.2575,1.63375 -0.3875,2.3949999 l -0.63625,3.72375 -2.1,-2.965 c -2.87375,-4.1999999 -1.9975,-5.4474999 -6.22125,-6.5899999 -1.415,-0.3825 -4.48375,-0.24 -5.073747,1.52875 -0.46125,1.3825 0.622497,4.7462499 1.301247,5.5462499 0.52125,0.61375 2.635,2.13875 3.50875,2.23125 1.42625,0.15375 4.34125,-0.81 4.34125,-0.81 0,0 2.3525,3.7575 3.78875,5.52125 0.6275,0.77 1.14625,1.39 1.95,1.4075 0.3325,0.0062 0.81,-0.04 0.81,-0.04 z m 14.82375,28.62375 0.63,-0.0125 c 0.28375,-0.005 0.35875,-0.19625 0.76,-1.91 2.30125,-9.86 2.72125,-15.30375 -2.94,-21.62625 -0.9325,-1.04125 -2.01875,-1.915 -2.71875,-0.9825 -0.475,0.63375 -0.96,5.10375 -0.74375,6.08 0.37875,1.70625 1.50125,2.26 2.79625,3.42 2.92625,2.6175 3.66,4.58125 3.2875,8.0675 -0.285,2.67625 -1.07125,6.96375 -1.07125,6.96375 z m -23.3425,-5.96 c -0.0463,-1.39625 -0.18875,-3.14875 -0.60125,-3.58875 -0.24,-0.25625 -0.57125,-0.07125 -0.77875,-0.20875 -0.9325,-0.62125 0.655,-3.185 1.41125,-4.165 6.865,-8.8925 24.6575,-19.9325 34.05875,-22.2175 0.89625,-0.2175 1.79125,-0.3925 1.96,-0.05625 0.085,0.1675 -0.01,0.46125 -0.155,0.7925 -0.34,0.78 -0.88375,1.7225 -1.48625,2.73375 -12.52,20.9775 7.22875,-8.1337499 12.83125,-8.9524999 0.5125,-0.28 0.995,-0.50625 1.42125,-0.65625 2.18,-0.76125 4.5425,-0.9225 4.82875,-3.2425 0.04,-0.325 0.0462,-0.73125 0.0362,-1.12375 -0.095,-3.8 -5.68375,-1.98250002 -9.62125,-0.32 -3.645,1.5375 -9.0575,4.0725 -14.7975,7.02 -7.42875,3.8137499 -29.67,15.2599999 -32.79875,25.2024999 -1.00875,3.20375 -0.82125,6.79375 1.18875,9.88125 0.0863,0.1325 0.165,0.2525 0.23625,0.36 -0.9075,-1.3675 2.46,4.3825 2.26625,-1.45875 z M 53.069993,8.2993611 l -0.61875,0.01125 c -0.79625,0.01625 -0.90375,0.12625 -1.07375,1.10625 -0.075,0.42875 -0.29625,1.0837499 -0.54625,1.7162499 -1.4525,3.685 -3.18375,2.83375 -4.43,0.11125 -1.13875,-2.4837499 -2.505,-5.2312499 -2.72875,0.28125 -0.09,2.21125 0.1325,6.425 1.6675,7.5725 1.64375,1.22875 4.19125,0.275 5.78,-0.91625 0.375,-0.28 0.70875,-0.60625 0.89,-1.02125 0.10375,-0.2375 0.1575,-0.505 0.195,-0.7675 l 0.225,-1.5425 1.54875,0.19375 c 0.2825,0.03625 0.57625,0.06625 0.85875,0.0525 0.98625,-0.04875 1.745,-0.57625 2.31375,-1.35625 2.58375,-3.54375 1.39125,-7.8237499 -0.635,-10.8349999 -1.515,-2.25375002 -4.07375,-5.79 -1.5725,1.28125 0.9125,2.57875 0.77125,4.06125 -1.87375,4.1125 z M 29.423743,90.748107 c 0.18375,2.8 1.36125,4.5425 3.50375,5.045 2.7625,0.64875 4.32625,-1.015 5.03375,-4.37875 0.15625,-0.7375 0.12125,-1.3525 -0.3075,-1.65 -0.81375,-0.56375 -3.05,0.0225 -4.13125,-0.615 -1.34375,-0.7925 -1.68625,-4.1625 -1.35375,-5.7375 0.33375,-1.57625 1.1825,-3.265 1.4125,-4.48 0.0475,-0.24625 0.06875,-0.4725 -0.0275,-0.59875 -0.0125,-0.0162 -0.025,-0.0312 -0.0375,-0.0463 -3.2525,-0.8225 -4.0425,13.21625 -4.0925,12.46125 z m 58.8,5.1825 6.60375,-7.3275 -6.60375,-7.32875 -6.605,7.32875 6.605,7.3275 z"
     style="fill:#000000;stroke:none" />
</svg>
