<?xml version="1.0" encoding="UTF-8" standalone="no"?>
<svg>
  <path
     d="m 16.969065,21.989499 -6.10125,6.06125 c -1.0137498,1.0075 -1.1587498,1.18875 -1.4424998,1.80875 -0.3975,0.86875 -0.535,2.32125 -0.33875,2.51875 0.63125,0.6375 2.8662498,-0.91 3.6437498,-1.48375 6.81125,-5.02375 9.91375,-8.1875 11.015,-14.69125 0.56,-3.30625 -1.19,-4.58625 -4.28875,-5.0075 -4.91375,-0.67 -9.7899998,0.015 -11.6999998,3.715 0.29875,14.12625 0.7175,6.0475 4.8849998,5.045 4.63625,-1.115 9.62125,-3.59375 4.3275,2.03375 z m -1.686482,29.610667 0.20075,-2.47875 -3.515753,0.78625 c -17.0916381,3.82125 -3.8545031,-25.24752 -7.1291301,-19.92877 -3.771503,6.12501 -5.42100405,13.43751 -4.65512905,19.97877 0.0835,0.71375 0.174625,1.36375 0.285876,1.9575 1.78412605,9.53751 14.22601015,6.9325 14.81338615,-0.315 z m 31.271774,-4.47626 0.55,-0.01 c 0.2475,-0.004 0.31375,-0.15375 0.6625,-1.50375 2.01,-7.75875 2.3775,-12.04251 -2.56625,-17.01876 -0.815,-0.81875 -1.7625,-1.50625 -2.37375,-0.7725 -0.415,0.49875 -0.83875,4.01625 -0.64875,4.78375 0.33,1.34375 1.31,1.78 2.44125,2.69126 2.555,2.06 3.19625,3.60625 2.87,6.35 -0.24875,2.10625 -0.935,5.48 -0.935,5.48 z m 2.54,-27.69502 c 1.105,-0.635 2.0975,-1.145 2.9325,-1.4875 0.6225,-0.25625 1.14625,-0.40125 1.34,-0.0587 0.155,0.275 -1.38625,6.92876 0.555,5.00876 0.53626,-0.53 0.79751,-1.92251 1.20501,-3.12751 0.64875,-1.92125 1.66875,-3.365 3.15375,-4.6125 7.2375,-6.0750004 9.37626,-4.2825 10.20376,-9.6725104 0.3525,-2.305 0.10375,-2.8275 -1.88376,-2.155 -1.6525,0.56 -3.8425,1.6575 -6.30125,3.06375 -8.92001,5.1025104 -18.38251,11.1900104 -26.25502,18.6712704 -0.32375,0.3075 -0.6325,0.60875 -0.925,0.90375 -2.72625,2.74375 -4.50125,5.13875 -4.6825,6.8375 -0.1525,1.4275 0.21,3.20751 1.19625,5.85501 0.62125,1.665 1.8425,3.695 2.9675,4.02375 1.02,0.29875 1.6975,-1.1325 1.71875,-1.98 0.0263,-1.10125 0.004,-2.535 -0.2575,-3.06375 -0.2025,-0.41 -0.5475,-0.27875 -1.1775,-0.71375 -0.79375,-0.5475 -2.03875,-1.99125 -2.03875,-1.99125 0,0 1.07875,-1.15876 2.55875,-2.70626 5.6875,-5.9525 9.06626,-8.99125 15.69001,-12.79501 z m -5.9575,-0.55625 -0.1625,-3.72875 c -0.0663,-1.50625 -0.045,-1.77625 0.2175,-2.7 0.19375,-0.685 0.39875,-1.435 0.91875,-1.9175 1.26625,-1.1762504 4.4025,-0.7687504 5.85625,-1.7387504 2.0925,-1.39501 2.095,-6.18751 0.48375,-8.13001002 -1.70875,-2.05874998 -5.16125,1.21125002 -6.57625,3.08375002 -0.86875,1.15 -1.6925,2.4675 -2.0625,4.005 -0.17125,0.71251 -0.26625,1.52126 -0.4,2.23001 l -0.65751,3.4675004 -2.17,-2.76125 c -2.96875,-3.9100104 -2.06375,-5.0725104 -6.4275,-6.1362604 -1.4625,-0.35625 -4.63251,-0.22375 -5.24251,1.4225 -0.47625,1.28875 0.64251,4.4212604 1.34376,5.1650104 0.54,0.5725 2.72375,1.99125 3.625,2.07875 1.475,0.1425 4.48625,-0.755 4.48625,-0.755 0,0 2.43125,3.49875 3.915,5.14125 0.64876,0.7175 1.18376,1.295 2.01501,1.31 0.3425,0.007 0.8375,-0.0362 0.8375,-0.0362 z m 129.432593,4.59376 c 0.18875,2.60875 1.40626,4.23 3.62001,4.69875 2.855,0.60375 4.47,-0.945 5.20125,-4.0775 0.16,-0.68625 0.125,-1.26 -0.3175,-1.53625 -0.84125,-0.525 -3.15125,0.02 -4.26875,-0.5725 -1.38875,-0.73876 -1.7425,-3.87626 -1.39875,-5.34251 0.34375,-1.46875 1.22125,-3.04125 1.46,-4.1725 0.0475,-0.22875 0.07,-0.44 -0.03,-0.5575 -0.0125,-0.015 -0.025,-0.0288 -0.0375,-0.0425 -3.36,-0.76625 -4.17751,12.30751 -4.22876,11.60251 z m -9.87875,23.65751 0.55,-0.01 c 0.2475,-0.004 0.31375,-0.15375 0.66375,-1.50375 2.00875,-7.75875 2.37625,-12.04251 -2.5675,-17.01876 -0.81375,-0.81875 -1.76376,-1.50625 -2.37376,-0.7725 -0.415,0.49875 -0.8375,4.01625 -0.64875,4.78375 0.33,1.34375 1.31,1.78 2.44126,2.69126 2.555,2.06 3.19625,3.60625 2.87125,6.35 -0.25,2.10625 -0.93625,5.48 -0.93625,5.48 z m -16.05002,-19.13876 c -2.72625,2.745 -4.50125,5.14 -4.6825,6.83876 -0.1525,1.4275 0.20875,3.2075 1.19625,5.855 0.62125,1.665 1.8425,3.695 2.9675,4.02375 1.02001,0.2975 1.69751,-1.1325 1.71751,-1.98 0.0263,-1.10125 0.004,-2.535 -0.2575,-3.06375 -0.20125,-0.41 -0.54625,-0.27875 -1.17751,-0.715 -0.7925,-0.5475 -2.0375,-1.99 -2.0375,-1.99 0,0 2.17625,-2.33751 4.58876,-4.81126 4.63875,-4.76 8.5225,-7.68125 13.95126,-11.48751 3.72625,-2.6125 7.22875,-4.82 9.52875,-5.765 0.6225,-0.25625 1.14626,-0.40125 1.34001,-0.0588 0.155,0.275 -1.38751,6.92876 0.55375,5.00875 0.5375,-0.53 0.79875,-1.9225 1.205,-3.1275 0.65,-1.92125 1.66875,-3.365 3.155,-4.6125 7.23625,-6.0750104 9.37626,-4.2825104 10.20251,-9.6725104 0.35375,-2.30500002 0.105,-2.82750002 -1.88375,-2.15500002 -2.19876,0.74500002 -5.35126,2.44375002 -8.81876,4.55250002 -0.18375,0.11125 -0.40125,0.24625 -0.65125,0.4025 -8.81376,5.4900104 -24.18502,15.9987604 -30.89753,22.7575204 z m 9.37001,-9.11251 -0.1625,-3.72875 c -0.0662,-1.50625 -0.0437,-1.77625 0.2175,-2.7 0.19375,-0.685 0.39875,-1.435 0.91875,-1.9175 1.26625,-1.1762504 4.40251,-0.7687504 5.85626,-1.7387504 2.0925,-1.39501 2.095,-6.18751 0.48375,-8.13001002 -1.70875,-2.05874998 -5.16126,1.21125002 -6.57626,3.08375002 -0.86875,1.15 -1.6925,2.4675 -2.0625,4.005 -0.17125,0.71251 -0.26625,1.52126 -0.4,2.23001 l -0.6575,3.4675004 -2.17,-2.76125 c -2.96875,-3.9100104 -2.06375,-5.0725104 -6.42751,-6.1362604 -1.4625,-0.35625 -4.6325,-0.22375 -5.2425,1.4225 -0.47625,1.28875 0.64375,4.4212604 1.345,5.1650104 0.53875,0.5725 2.7225,1.99125 3.625,2.07875 1.47375,0.1425 4.48501,-0.755 4.48501,-0.755 0,0 2.43125,3.49875 3.91625,5.14125 0.6475,0.7175 1.18375,1.295 2.01375,1.31 0.34375,0.007 0.8375,-0.0362 0.8375,-0.0362 z m -136.077353,17.28002 -6.374381,6.37375 6.374381,6.37501 6.37475,-6.37501 -6.37475,-6.37375 z m 105.517333,45.79253 -6.37376,6.37501 6.37376,6.37375 6.375,-6.37375 -6.375,-6.37501 z m -75.235063,-8.87501 c 0.18875,2.60876 1.40625,4.23001 3.62,4.69876 2.85501,0.60375 4.47001,-0.945 5.20126,-4.07751 0.16125,-0.6875 0.125,-1.26 -0.3175,-1.53625 -0.84125,-0.52625 -3.15125,0.02 -4.26875,-0.57375 -1.38876,-0.7375 -1.74251,-3.875 -1.39876,-5.3425 0.34375,-1.4675 1.22126,-3.04 1.46001,-4.17125 0.0488,-0.22875 0.07,-0.44 -0.0287,-0.5575 -0.0138,-0.015 -0.0263,-0.0288 -0.0388,-0.0425 -3.36001,-0.76626 -4.17751,12.30625 -4.22876,11.6025 z M 102.3494,7.7288756 l -0.64,0.0113 c -0.8225,0.0138 -0.93375,0.11625 -1.10875,1.02876 -0.0775,0.4 -0.30625,1.01 -0.56375,1.5987504 -1.501253,3.43125 -3.290003,2.63875 -4.578753,0.10375 -1.175,-2.3137604 -2.58751,-4.8712604 -2.81876,0.2625 -0.0925,2.0575 0.13625,5.9825 1.72251,7.05 1.69875,1.14375 4.33,0.25625 5.972503,-0.8525 0.3875,-0.26125 0.7325,-0.565 0.91875,-0.95125 0.1075,-0.22125 0.1625,-0.47 0.2025,-0.715 l 0.2325,-1.43625 1.6,0.18125 c 0.29125,0.0325 0.595,0.06 0.8875,0.0475 1.01875,-0.0438 1.80375,-0.53625 2.39,-1.2625 2.67001,-3.3000004 1.43751,-7.2850104 -0.655,-10.0900104 -1.56625,-2.09875002 -4.21,-5.39125 -1.625,1.19375 0.9425,2.40125 0.79625,3.78125 -1.93625,3.83 z M 56.280617,81.866436 c -7.20251,2.75625 -17.97127,5.32375 -24.78627,6.88126 -1.46625,0.335 -1.6275,0.41625 -1.61,0.81625 l 0.02,0.44625 c 0.0175,0.4 0.185,0.46375 1.6825,0.63125 2.09625,0.235 4.26,0.38875 6.2025,1.19875 2.115,0.88125 3.97001,2.54 5.81001,2.8125 1.675,0.24875 5.30875,-0.65875 8.515,-1.65375 11.92376,-3.7 30.79628,-12.75876 34.09253,-24.67127 0.1525,-0.54875 0.27875,-1.135 0.37875,-1.75625 0.37375,-2.31875 0.68875,-5.64126 0.68875,-5.64126 0,0 1.6025,0 4.37875,-0.003 6.53376,-0.006 21.095023,-2.26875 26.022523,-6.09875 1.6025,-1.245 2.43875,-3.25375 3.74626,-7.62001 0.275,-0.915 0.565,-1.85375 0.59875,-2.82 0.0463,-1.3 0.0312,-1.61125 -0.155,-3.10375 l -2.15876,-17.28376 c -0.18625,-1.4925 -0.1975,-1.705 -0.1175,-2.125 0.06,-0.3125 0.0488,-0.62251 0.0163,-0.94751 -0.42,-4.26625 -2.38,-6.86 0.3525,-5.9925 0.32501,0.10375 0.70751,0.24875 1.01876,0.45875 0.4175,0.28125 0.56625,0.445 1.485,1.6375 4.51375,5.86126 5.16125,6.93626 6.78375,11.43626 0.92125,2.5525 1.9375,9.79376 1.61875,11.52626 -0.64375,3.49375 -2.41125,7.81375 -2.41125,7.81375 0,0 1.65625,-1.68 2.88875,-3.2625 5.48501,-7.04625 5.98751,-18.54501 2.77751,-25.76752 -2.74751,-6.18125 -7.64251,-11.2925104 -12.16751,-15.2925104 -5.56876,-4.92375 -6.38001,-5.05125 -8.87501,2.3375 -1.00125,2.96126 -3.07625,10.1600104 -0.57,12.8475104 0.3975,0.42625 0.4625,0.64 0.64625,2.1325 0.97,7.87376 2.44125,20.77877 3.405,23.55127 1.435,4.12751 0.3725,3.465 -3.7825,4.40251 -5.87126,1.32625 -13.375013,3.5725 -19.243773,1.87375 -0.29375,-0.085 -0.5325,-0.16375 -0.6825,-0.2225 -1.345,-0.53 -6.85125,-3.89751 -7.7675,-5.51501 -0.82625,-1.46 -0.9375,-3.34 -2.2925,-2.6875 -1.62,0.78 -3.36626,9.78751 -3.19126,11.17751 0.4525,3.595 4.39626,11.29376 4.39626,11.29376 0,0 -1.56375,1.74125 -3.29875,3.435 -9.79626,9.56751 -43.32379,20.99002 -24.41502,13.75376 z m 22.96126,8.63501 c 4.33751,1.99375 8.96251,-0.7125 13.16126,-4.00751 3.82251,-3.00125 7.637513,-6.74625 8.982513,-8.67125 0.19125,-0.2725 0.36375,-0.53125 0.52125,-0.77875 5.23376,-8.19376 -1.27,-19.93252 6.04126,-2.97501 2.83,6.56501 5.56875,10.18751 12.94001,7.65251 1.9925,-0.685 3.92,-1.61 4.75625,-2.525 1.28,-1.4025 1.20375,-2.3425 2.865,-2 1.92,0.395 4.01875,2.83375 6.19251,3.91125 5.76125,2.85625 26.62002,-4.89375 30.90752,-7.20376 1.58375,-0.85375 3.0925,-2.0025 3.68625,-3.27625 0.57125,-1.22375 0.67625,-2.83125 1.21125,-4.22875 0.34125,-0.89 2.30375,-4.44875 1.24625,-5.02875 -0.59625,-0.32751 -5.91875,3.28875 -5.9875,3.3275 -1.79375,0.99875 -6.93126,2.6725 -11.03626,2.78375 -2.80125,0.0763 -8.87876,-5.22875 -10.18001,-8.05126 -0.40125,-0.8675 -0.41,-1.675 0.26125,-2.18 1.37625,-1.035 4.71876,-1.88625 6.41501,-2.05875 5.30625,-0.53875 12.67376,1.6 11.20251,-3.0825 -1.47,-4.67501 -8.20126,-6.07626 -12.48876,-4.84001 -5.04501,1.45501 -15.19376,9.57626 -13.80626,15.54502 0.51125,2.19875 2.49125,4.9475 3.09125,6.945 0.265,0.88375 0.0737,1.1 -0.85375,0.87375 -1.05875,-0.2575 -2.08375,-0.93625 -3.555,-1.9375 -2.10376,-1.4325 -5.11876,-3.5225 -5.11876,-3.5225 0,0 -1.63625,2.95625 -3.29625,4.58875 -1.11125,1.09375 -2.8525,1.8375 -4.66125,2.14375 -5.76751,0.97625 -9.31876,-3.3875 -11.29626,-8.25375 -2.96375,-7.29376 -4.93001,-17.94877 -8.61251,-22.72877 -0.27625,-0.36125 -0.5675,-0.7275 -0.87375,-1.095 -0.675,-0.80875 -6.870003,-8.89376 -7.840013,-8.04626 0,0 0,0 0,0 0,0 -0.55625,0.9975 -0.91,1.84 -1.135,2.70001 -0.6925,9.65876 -0.38875,10.24126 1.05,2.01625 4.01376,3.805 5.86626,5.50501 3.907503,3.585 6.071253,14.22626 4.766253,16.91126 -0.27,0.555 -0.66125,0.97875 -1.03375,1.445 -0.54625,0.68375 -1.0525,1.455 -1.643753,2.2 -1.17125,1.4725 -8.80876,8.19126 -11.42876,9.30501 -0.875,0.37125 -1.7925,0.5525 -2.8775,0.78625 -0.0513,0.005 -0.1025,0.0113 -0.1525,0.0163 -7.58626,0.82375 -10.09001,-8.96126 -10.51001,-14.96376 -1.2175,-17.38502 -2.2375,-2.64625 -2.83875,6.45375 -0.33,4.98626 -0.44375,15.43126 7.27625,18.98002 z m -19.29626,-45.23379 c -0.006,-0.17375 -0.009,-0.355 -10e-4,-0.51875 0.035,-0.86375 0.52625,-1.4 1.38375,-1.51 0.565,-0.0738 1.335,-0.0588 1.335,-0.0588 0,0 0.0975,2.22625 0.0975,2.22625 1.55,8.23626 -2.59375,0.9475 -2.815,-0.13875 z m 1.335,-20.98376 c 0,0 6.72626,0.37125 9.70001,-0.7325 1.59375,-0.5925 2.37875,-2.26251 3.67,-2.08125 1.78875,0.2525 6.18251,2.89625 6.18251,2.89625 0,0 -6.00251,2.1075 -9.89751,3.95625 -5.72126,2.71625 -15.84376,9.65626 -17.64752,16.51001 -0.815,3.09375 -0.49625,3.33251 -2.1225,4.60876 -1.25375,0.98375 -2.565,2.04 -4.095,2.45875 -1.2275,0.33625 -4.73125,-0.32375 -5.8175,-1.095 -0.76001,-0.53875 -1.36501,-1.22375 -1.76751,-2.1525 -0.51625,-1.19251 -1.035,-3.79751 -2.59375,-3.23251 -0.25875,0.0937 -0.46625,0.30625 -0.63875,0.5875 -0.1075,0.17625 -2.9825,5.99626 -2.3475,11.42501 0.7125,2.125 2.65375,5.18001 4.07125,7.73251 4.51626,8.13875 0.5875,9.34126 -7.8375,12.05126 -6.05501,1.9475 -7.64126,2.47875 -12.79851,0.55875 -0.873753,-0.32625 -1.698504,-0.72125 -2.47363,-1.18125 -14.73938615,-8.75626 -2.088751,-32.32253 -7.1068801,-24.31502 -2.009751,3.2075 -3.331752,7.30125 -4.189128,10.20751 -2.309127,7.8275 -0.972876,13.67501 3.657128,19.91126 5.5032541,7.41251 13.1757601,7.63001 22.2110201,4.3275 3.72,-1.36 8.15875,-4.03625 10.5725,-6.87375 0.92251,-1.08375 4.82876,-13.59126 4.64626,-14.87751 -0.18125,-1.2825 -0.55125,-2.4925 -0.145,-3.35 0.705,-1.49126 7.7175,-3.35876 8.47,-4.87626 0.38375,-0.77375 0.3975,-0.9675 1.49376,-0.7625 2.60375,0.4875 4.78625,2.2075 7.1875,3.18875 1.09125,0.445 4.40625,1.4975 5.28,1.1025 0.72251,-0.325 1.15001,-2.69125 1.72001,-4.465 1.29875,-4.04375 3.9875,-5.22875 3.08,-8.94626 -0.5125,-2.1075 -2.34875,-3.91375 -3.0575,-6.17875 -0.755,-2.4125 0.78125,-3.045 3.18125,-3.7625 6.26,-1.87 18.32501,-4.61751 24.26502,-3.56751 2.53375,0.4475 4.447503,1.1625 6.262503,0.57 0.745,-0.24375 4.3625,-7.46625 4.3725,-8.73125 0.006,-0.755 -0.0337,-1.54375 -0.0337,-1.54375 0,0 -1.53,-0.2275 -2.8975,-0.44 -6.891253,-1.075 -12.608763,-2.49376 -17.062513,-6.53001 -3.60625,-3.26875 -14.65501,-6.59625 -19.23251,-4.36 -1.76876,0.86375 -2.90376,2.215 -4.36251,4.35375 -0.875,1.28125 -1.90875,2.83125 -2.03625,4.44875 -0.1075,1.36376 0.1375,3.16001 0.1375,3.16001 z"
     style="fill:#000000;stroke:none" />
</svg>
