<?xml version="1.0" encoding="UTF-8" standalone="yes"?>
<!-- Created with sK1/UniConvertor (http://sk1project.org/) -->
<svg xmlns="http://www.w3.org/2000/svg" xmlns:xlink="http://www.w3.org/1999/xlink"
  width="595.276pt" height="841.89pt" viewBox="0 0 595.276 841.89"
  fill-rule="evenodd">
  <path
     d="m 162.46717,42.826929 -4.881,4.848996 c -0.811,0.806 -0.927,0.950999 -1.154,1.446999 -0.318,0.695 -0.428,1.856999 -0.271,2.014998 0.505,0.51 2.293,-0.727999 2.915,-1.186999 5.44899,-4.018996 7.93099,-6.549994 8.81199,-11.75299 0.448,-2.644998 -0.952,-3.668997 -3.431,-4.005997 -3.93099,-0.535999 -7.83199,0.012 -9.35999,2.971998 0.239,11.300991 0.574,4.837996 3.908,4.035996 3.709,-0.891999 7.69699,-2.874997 3.462,1.626999 z m -75.902072,-7.145581 -4.880996,4.848997 c -0.810999,0.805999 -0.926999,0.950999 -1.153999,1.446998 -0.317999,0.695 -0.427999,1.856999 -0.271,2.014999 0.505,0.509999 2.292999,-0.728 2.914998,-1.186999 5.448996,-4.018997 7.930994,-6.549995 8.811993,-11.752991 0.448,-2.644998 -0.951999,-3.668997 -3.430997,-4.005997 -3.930997,-0.535999 -7.831994,0.012 -9.359992,2.971998 0.239,11.300991 0.574,4.837996 3.907996,4.035997 3.708997,-0.892 7.696994,-2.874998 3.461997,1.626998 z m 96.980062,-2.340286 0.44,-0.008 c 0.198,-0.0032 0.251,-0.124 0.53,-1.202999 1.608,-6.207003 1.901,-9.634001 -2.05399,-13.614998 -0.651,-0.655999 -1.41,-1.205999 -1.898,-0.617999 -0.332,0.399 -0.67101,3.211997 -0.52,3.826997 0.265,1.074999 1.048,1.422999 1.953,2.152998 2.04499,1.647999 2.55699,2.884998 2.29699,5.080004 -0.199,1.683999 -0.748,4.383997 -0.748,4.383997 z m -2.86099,-20.161 c 0.939,-0.544 1.78,-0.979999 2.48199,-1.267999 0.498,-0.205 0.917,-0.321 1.072,-0.04704 0.124,0.22 -1.11,5.543003 0.443,4.006997 0.43,-0.424 0.639,-1.537999 0.965,-2.501998 0.519,-1.536999 1.335,-2.691998 2.523,-3.6899967 5.79,-4.860005 7.501,-3.426006 8.162,-7.738003 0.283,-1.84399795 0.084,-2.26199795 -1.506,-1.72399795 -1.76,0.595999 -4.28199,1.95499795 -7.056,3.64199695 -0.146,0.089 -0.321,0.197 -0.521,0.322 -1.54,0.958999 -3.33,2.109998 -5.24299,3.379005 -7.38801,4.8999957 -10.466,6.8299947 -16.28601,13.2589977 -1.544,1.705998 -2.517,3.190997 -2.635,4.302996 -0.122,1.140999 0.167,2.564998 0.957,4.683004 0.497,1.331999 1.474,2.955998 2.373,3.219998 0.817,0.238 1.359,-0.905999 1.375,-1.583999 0.021,-0.880999 0.003,-2.027998 -0.206,-2.451998 -0.161,-0.328 -0.437,-0.223 -0.942,-0.570999 -0.634,-0.438 -1.63,-1.593007 -1.63,-1.593007 0,0 1.009,-1.082999 2.342,-2.473998 3.63301,-3.789997 9.318,-8.845001 13.33101,-11.171999 z m -8.115,1.917998 -0.13,-2.982997 c -0.053,-1.204999 -0.035,-1.420999 0.174,-2.1599987 0.155,-0.547999 0.31899,-1.147999 0.73499,-1.533998 1.013,-0.941 3.522,-0.615 4.685,-1.391 1.674,-1.116007 1.676,-4.950004 0.387,-6.50400195 -1.366,-1.64699905 -4.129,0.96899895 -5.261,2.46699795 -0.69499,0.919999 -1.35399,1.973998 -1.64999,3.203997 -0.137,0.570008 -0.213,1.217007 -0.32,1.784007 l -0.526,2.7739977 -1.73501,-2.2089987 c -2.376,-3.128005 -1.652,-4.058005 -5.143,-4.909004 -1.16899,-0.285 -3.70599,-0.179 -4.19399,1.137999 -0.381,1.030999 0.515,3.537006 1.076,4.132005 0.431,0.458 2.178,1.5929987 2.89999,1.6629987 1.179,0.114 3.588,-0.6039997 3.588,-0.6039997 0,0 1.945,2.7989977 3.13301,4.1129967 0.518,0.574 0.947,1.035999 1.611,1.047999 0.275,0.0056 0.67,-0.02896 0.67,-0.02896 z m -49.982,3.917005 -0.512,0.008 c -0.658,0.012 -0.747,0.094 -0.887,0.823999 -0.062,0.32 -0.245,0.807 -0.452,1.278999 -1.2,2.744998 -2.631,2.109999 -3.662,0.083 -0.94001,-1.850998 -2.07001,-3.896997 -2.25501,0.209 -0.075,1.646999 0.109,4.786996 1.378,5.640996 1.35901,0.915007 3.46401,0.204999 4.77801,-0.682 0.309,-0.209 0.586,-0.451999 0.735,-0.760999 0.086,-0.178 0.13,-0.376 0.162,-0.572 l 0.185,-1.148999 1.28099,0.145 c 0.233,0.026 0.476,0.048 0.71,0.038 0.815,-0.036 1.442,-0.429 1.912,-1.009999 2.13601,-2.639998 1.15001,-5.827995 -0.525,-8.072002 -1.252,-1.678998 -3.36699,-4.312996 -1.299,0.955 0.754,1.921006 0.637,3.025005 -1.54899,3.064005 z m -7.96601,-9.4509997 c 2.87401,-1.510999 7.56901,-3.866006 8.41401,-4.893005 0.84899,-1.032999 1.11599,-2.235998 1.59299,-3.527997 0.396,-1.07399895 0.342,-1.20399895 -0.591,-1.12299895 -0.334,0.03 -0.49,0.105 -1.55999,0.752999 l -8.26401,5.00099595 c -1.06999,0.648 -1.21499,0.74 -1.45199,0.918008 -0.817,0.614999 -0.932,1.693999 -1.217,3.238997 -0.191,1.0319997 -0.188,1.2089987 1.013,0.7529997 0.193,-0.07304 0.4,-0.157 0.574,-0.284 0.23299,-0.17 0.38199,-0.254 1.48999,-0.8359987 z m -28.978989,5.0723907 -0.414,-7.8859937 c -0.06096,-1.170007 -0.085,-1.373007 -0.240999,-2.036006 -0.478008,-2.030999 -1.764007,-3.143998 -3.109006,-3.86199695 -1.709998,-0.913 -3.014997,-1.252999 -4.776995,0.03296 -1.448999,1.05699895 -1.584999,4.88499595 -1.015999,5.48399495 0.424999,0.447008 1.550998,0.406008 2.913997,0.086 3.404997,-0.798999 3.745996,-0.614999 4.632996,2.985006 0.420999,1.7109987 0.470999,3.3139967 0.264,5.0349957 -0.441,3.654005 -1.474999,5.431004 0.551999,7.576002 0.843007,0.892999 1.724007,1.027999 3.649005,0.631999 1.366999,-0.281999 1.637999,-0.916999 2.210998,-2.809997 0.404,-1.332999 0.723,-2.525998 0.619,-3.855005 -0.205,-2.636998 -3.054998,-7.5919937 0.38,-8.8229927 0.634999,-0.227 1.458998,-0.07904 2.168998,0.076 0.957999,0.208999 1.120999,0.113999 1.625999,-0.946008 0.415007,-0.871999 0.895007,-1.674998 1.159007,-2.612998 0.991999,-3.52299695 -0.526,-4.51699595 -3.572006,-3.07399695 C 89.196168,2.2934183 87.62717,9.3854203 88.373169,14.140416 c 0.229,1.958999 0.479,3.724005 0.479,3.724005 0,0 -0.209,-0.0016 -0.457,-0.02696 -0.977999,-0.096 -2.658998,-1.394007 -2.752998,-3.201005 z m 2.791998,57.614606 3.502997,3.503997 5.100004,-5.098995 -5.100004,-5.100004 -3.502997,3.503997 -3.503997,-3.503997 -5.100003,5.100004 5.100003,5.098995 3.503997,-3.503997 z m 69.619991,-6.695002 -5.09899,5.100004 5.09899,5.098995 5.1,-5.098995 -5.1,-5.100004 z m -89.018991,-46.966995 -5.098996,5.098996 5.098996,5.100004 5.100004,-5.100004 -5.100004,-5.098996 z m 34.899991,55.808996 c 2.87401,-1.510999 7.56901,-3.865997 8.41401,-4.893005 0.84999,-1.031999 1.11699,-2.234998 1.59399,-3.527997 0.396,-1.072999 0.341,-1.203999 -0.592,-1.121999 -0.33399,0.02896 -0.48999,0.104 -1.55999,0.752 l -8.26401,5.002004 c -1.06999,0.646999 -1.21499,0.738999 -1.45199,0.916999 -0.816,0.614999 -0.931,1.694998 -1.217,3.238997 -0.191,1.032999 -0.188,1.208999 1.014,0.754 0.193,-0.074 0.4,-0.158 0.573,-0.285 0.234,-0.17 0.383,-0.254 1.48999,-0.835999 z m -33.009992,-24.082997 -1.976999,-0.052 c -0.887999,-0.02304 -1.075999,-0.04104 -1.873998,-0.181 -1.512999,-0.266 -4.214005,-1.779006 -3.959005,-3.586005 0.03496,-0.249 0.106,-0.339 0.711007,-0.896999 2.405999,-2.220999 3.864997,-0.556 5.965996,1.609998 0.515999,0.531 1.072999,1.015 1.161999,1.995007 0.04496,0.492999 -0.02896,1.110999 -0.02896,1.110999 z m 47.264002,0.126 c 0.159,0.228 0.15,0.727999 -0.029,1.110999 -0.53,1.133999 -11.876,1.071999 -14.41801,0.694999 -1.09099,-0.161 -1.59099,-0.448999 -1.32199,-1.291999 0.477,-1.497998 5.699,-5.331003 7.192,-5.651003 2.731,-0.585 6.45699,2.095998 8.577,5.137004 z m -44.925004,8.439852 -1.538999,1.976007 c -0.251,0.190999 -0.532999,0.381999 -0.846999,0.567999 -1.361999,0.809 -2.650998,1.379999 -5.603996,2.376998 -7.702001,2.602998 -18.794001,4.128997 -29.477,4.128997 -1.793999,0 -3.466997,-0.018 -5.052004,-0.07 C 17.544171,67.421917 11.055176,64.962919 3.5991739,54.54492 1.6591755,51.937922 0.3541765,50.149923 0.03217676,49.708924 c -0.30900775,-0.558 1.22699904,22.342998 21.70999824,25.013995 0.269,0.036 0.543,0.06704 0.819,0.094 8.442993,1.303999 17.221994,1.113 25.714995,0.256 8.071001,-0.813999 19.302,-4.092996 24.322996,-9.39 1.246999,-1.315999 2.330007,-2.728998 2.978006,-4.533997 0.214,-0.594999 0.377,-1.126999 0.521,-1.599998 0.329999,-0.470008 0.790999,-0.778008 1.560998,-0.948008 0.964,-0.212999 2.147999,-0.155999 3.253997,-0.377999 1.189999,-0.239 4.649004,-2.012999 6.146003,-3.008998 0,0 2.018998,-1.241999 2.018998,-1.241999 0,0 0.476,0.712 0.653,0.978999 1.279999,1.915999 1.281999,2.698998 3.474997,3.681997 0.565,0.253 1.029999,0.483 1.110999,0.914008 0.0072,0.03696 -0.014,0.116 -0.05304,0.228 -2.313998,6.549994 0.113,2.382998 2.136006,0.777999 0.292,-0.232 0.659,-0.23 1.438999,-0.138 2.727001,0.323 5.438991,0.727999 8.211001,0.552 3.468,-0.221 8.56599,-1.945007 11.309,-1.517007 8.35699,1.306007 3.516,1.779006 10.685,0.232008 1.381,-0.298008 2.692,-0.661008 3.37,-1.063008 1.77499,-1.052999 4.88599,-8.823992 5.09299,-9.755 0.335,-1.512999 -0.839,-10.030992 -1.575,-18.420993 -0.761,-8.678001 -0.398,-20.169 -0.398,-20.169 0,0 0.942,0.119 1.787,0.28 4.57601,0.871999 10.047,5.558996 12.40601,9.583 3.016,5.144996 3.403,7.708002 2.456,13.514998 -0.729,4.469996 -2.545,9.025 3.61599,-0.878 0.935,-3.170997 1.209,-7.038002 1.148,-8.500001 -0.386,-9.224001 -6.36399,-17.4099937 -14.79799,-21.3719987 -2.689,-1.263999 -6.27101,-2.70799795 -6.27101,-2.70799795 0,0 -1.566,2.00199895 -2.48999,3.53599795 -0.902,1.496998 -1.192,2.546998 -1.593,3.895004 -0.358,1.201999 -0.391,1.474999 -0.329,2.7239977 l 2.058,41.272999 c 0,0 -2.445,0.855999 -4.96,1.102999 -2.59201,0.255 -5.26,-0.137 -5.26,-0.137 0,0 1.36799,-4.326004 1.11199,-7.080002 -0.141,-1.513999 -6.46099,-9.361 -10.43699,-8.457001 -2.019,0.458999 -4.146,1.976006 -5.654,3.559005 -1.144,1.199999 -2.86401,3.168997 -2.86401,3.168997 l 0.716,-27.323002 2.77801,0.07304 -2.27201,-16.528993653046 c 0,0 -2.72599,2.397997953046 -4.11499,3.849995953046 -0.875,0.914 -1.371,2.126999 -1.238,3.026006 0.298,2.012998 1.607,5.8719947 1.367,8.1619927 -0.018,0.176 -0.046,0.343 -0.112,0.503 -0.088,0.216 -0.099,0.379 -0.114,1.629007 l -0.357,30.543991 -2.102002,4.117005 c 0,0 -1.934998,-0.704 -3.073997,-1.091999 -0.903007,-0.308 -1.307007,-0.418 -1.828007,-0.974999 -1.127999,-1.206007 -2.802997,-4.507005 -2.802997,-4.507005 0,0 -1.164999,1.189999 -2.230999,2.057999 -1.911998,1.557998 -5.766003,3.147005 -8.056001,3.265005 -1.500998,0.07696 -3.769996,-0.099 -3.769996,-0.099 0,0 -1.586999,-4.877004 -2.876998,-7.953002 -1.732007,-4.125996 -4.384004,-7.511002 -8.209001,-5.081004 -4.194005,2.664006 -6.970003,10.981 -6.427003,15.365004 0.346999,2.789998 1.330999,4.228997 3.577997,4.949996 1.596007,0.512 4.138005,0.756 6.336003,0.872999 l 3.612997,0.246 z M 188.55516,52.409062 c -2.783,-0.096 -5.414,-0.583999 -7.29699,-1.482999 -1.94201,-0.926999 -6.26701,-4.855004 -6.24201,-6.212003 0.028,-1.506998 2.892,-2.187998 5.55901,-3.073997 0.683,-0.228 1.369,-0.474 2.089,-0.529 0.96999,-0.07496 1.21599,-0.068 2.45899,0.072 l 9.338,1.051999 c 0,0 0.077,-0.650999 0.029,-1.110999 -0.096,-0.936999 -2.28499,-2.994005 -2.69199,-3.361005 -4.88101,-4.401996 -13.92101,-2.693998 -16.97001,2.104006 -0.678,1.066999 -1.003,2.173999 -1.267,4.137997 -0.472,3.516997 -0.74599,9.786 -0.74599,9.786 0,0 -0.596,-0.27 -1.473,-0.635999 -0.183,-0.07704 -4.59101,-1.626999 -4.39401,-2.286999 -0.974,-0.678999 -1.257,-1.177999 -1.257,-1.177999 l -2.399,2.564998 c -0.322,0.461 -0.61999,0.989 -1.10599,1.414999 -0.331,0.291 -0.728,0.522 -1.177,0.699 -2.097,0.828999 -4.71201,-0.324 -6.65101,-1.547999 -0.214,-0.135 -0.419,-0.276 -0.618,-0.421 -3.57699,-2.624998 -4.71199,-9.486 -5.00999,-12.717998 -0.133,-1.442006 -0.422,-2.927005 -1.20501,-4.548004 -0.877,-1.814998 -1.934,-4.373996 -2.845,-6.222995 -0.818,-1.657007 -3.48599,-5.443003 -4.79399,-3.504005 -1.418,2.098998 -0.795,7.786002 -0.007,9.113001 0.676,1.139999 1.945,1.813998 2.933,3.011997 1.54599,1.876007 3.97399,8.011002 3.97699,8.527001 0.019,3.102006 -7.27299,10.213 -10.787,12.611998 -2.082,1.422007 -5.02699,3.238006 -7.39899,3.420005 -5.928,0.724 -7.561,-7.035002 -8.271,-8.399001 l -0.08,-0.118 -0.757,7.209002 c 0.085,0.987 0.122,2.085999 0.385,3.025998 0.9,3.218997 5.85199,7.305002 8.675,6.715003 0.163,-0.034 0.328,-0.07496 0.496,-0.123 4.15999,-1.189007 13.069,-8.870001 15.33299,-12.473006 1.209,-1.922999 2.834,-5.650996 2.834,-5.650996 0,0 0.273,0.821 0.658,1.850999 1.55901,4.174996 3.04101,9.827 10.92201,8.188001 0.674,-0.376999 1.212,-0.785999 1.69,-1.159999 0,0 2.337,-1.828006 2.337,-1.828006 0,0 0.99399,0.490007 1.96499,0.969007 7.81601,3.854997 17.14601,2.999997 24.885,-0.432 0.82701,-0.367007 1.69901,-0.768007 2.63401,-1.204007 0.55599,-0.259 1.07899,-0.525999 1.56199,-0.800999 2.054,-1.165999 2.764,-2.314998 4.063,-4.481997 2.341,-6.573002 1.421,-6.089003 -2.309,-3.917996 -0.717,0.416999 -1.451,0.901999 -2.193,1.307999 -1.33299,0.728999 -3.027,1.277999 -4.877,1.640998 z"
     style="fill:#000000;stroke:none" />
</svg>
