<?xml version="1.0" encoding="UTF-8" standalone="no"?>
<svg>
  <path
     d="m 38.91279,20.266851 -0.175,-4.00375 c -0.07,-1.61875 -0.0475,-1.90875 0.23375,-2.9 0.20875,-0.73625 0.42875,-1.54125 0.9875,-2.05875 1.35875,-1.26375 4.72749,-0.8275 6.28874,-1.8674998 2.2475,-1.49875 2.24875,-6.645 0.51875,-8.73124001 -1.83375,-2.21124999 -5.54249,1.30125001 -7.06124,3.31124001 -0.93375,1.235 -1.8175,2.64875 -2.215,4.30125 -0.18375,0.765 -0.28625,1.63375 -0.43,2.3937498 l -0.70625,3.725 -2.33,-2.965 c -3.18875,-4.1999998 -2.21625,-5.4487498 -6.9025,-6.5899998 -1.57,-0.38375 -4.975,-0.24 -5.63,1.5275 -0.5125,1.38375 0.69,4.7474998 1.44375,5.5462498 0.57875,0.615 2.92375,2.13875 3.8925,2.2325 1.58375,0.1525 4.8175,-0.81125 4.8175,-0.81125 0,0 2.61,3.7575 4.205,5.5225 0.69625,0.77 1.27125,1.39 2.16375,1.40625 0.3675,0.007 0.89875,-0.0387 0.89875,-0.0387 z m -9.45375,22.66249 c -0.0512,-1.395 -0.20875,-3.1475 -0.6675,-3.58875 -0.265,-0.255 -0.6325,-0.07 -0.8625,-0.2075 -1.03625,-0.6225 0.72625,-3.185 1.565,-4.165 7.6175,-8.89249 27.36124,-19.93374 37.79124,-22.21749 0.995,-0.2175 1.98875,-0.39375 2.17625,-0.0575 0.0937,0.1675 -0.0125,0.46125 -0.1725,0.79375 -0.3775,0.77875 -0.98,1.7225 -1.65,2.73375 -13.89125,20.97624 8.02124,-8.1349998 14.23874,-8.9524998 0.56875,-0.28125 1.1025,-0.5075 1.57625,-0.65625 2.42,-0.76125 5.04,-0.92375 5.3575,-3.2425 0.045,-0.32625 0.0513,-0.73125 0.0412,-1.12499 -0.10625,-3.79875 -6.30625,-1.98125001 -10.67625,-0.32 -4.04374,1.53874 -10.04999,4.07374 -16.41999,7.02124 -8.2425,3.8124998 -32.91999,15.2599998 -36.39374,25.2024898 -1.11875,3.20375 -0.91,6.79375 1.32,9.88125 0.0962,0.1325 0.1825,0.25125 0.2625,0.35875 -1.0075,-1.36625 2.73,4.38375 2.51375,-1.45875 z m 32.21249,57.518729 7.52375,-7.523739 -7.52375,-7.525 -7.525,7.525 7.525,7.523739 z m -20.31749,-34.801239 -2.9575,0 c -1.33,0 -1.6,-0.0175 -2.7025,-0.17125 -2.0675,-0.29 -5.6125,-2.27749 -4.81125,-4.38749 1.11,-2.92375 5.13125,-1.425 6.77625,-0.6775 1.5625,0.71125 3.5825,2.765 3.695,3.75749 0.0775,0.675 0,1.47875 0,1.47875 z m 9.94124,-1.9075 c -0.155,-0.23625 -0.3275,-0.54749 -0.54625,-0.95999 -3.75,-7.05625 -11.45249,-16.45125 -18.01874,-10.9925 -3.81875,3.17375 -7.6075,16.60499 -4.3125,20.63624 1.85,2.2625 5.2375,2.9875 8.77875,2.875 4.1025,-0.13125 10.39749,-1.0775 10.39749,-1.0775 0,0 1.32,4.13875 1.1525,6.4575 -0.0675,0.9475 -1.99625,2.90875 -3.69625,3.7575 -4.87374,2.435 -11.51124,7.77875 -18.47999,11.70499 -4.7475,2.67375 -16.44374,7.147499 -24.77249,10.464999 -1.54500001,0.61625 -1.72250001,0.73375 -1.77375001,1.1775 -0.0375,0.32875 -0.04,0.68375 0.0575,0.98625 0.19125,0.5975 17.33624001,-1.31625 19.73124001,-2.20375 7.99375,-2.96125 25.53624,-12.564999 29.55249,-18.333739 1.34,-1.92375 5.235,-9.5975 5.01125,-13.71125 -0.0763,-1.425 0.0925,-1.63375 1.69875,-2.075 1.19125,-0.3275 2.4525,-0.65125 3.67375,-1.01625 4.17625,-1.2475 14.22375,-6.89 14.38625,-7.10125 0.16625,-0.21625 0.31,-0.445 0.425,-0.68625 0.51249,-1.06624 0.65624,-2.49999 1.23249,-3.69624 0.745,-1.54375 2.2125,-2.69125 2.7725,-4.1025 1.24875,-3.1525 -3.1075,-14.60875 -5.23624,-17.45875 -0.75375,-1.00875 -1.7275,-1.01875 -2.465,0 -1.8175,2.51375 -3.29375,7.12625 -2.77125,9.1175 0.5425,2.07125 5.0725,7.07 4.62375,9.515 0,0 0,0 0,0 -3.35625,4.00625 -19.6175,8.26124 -20.49875,8.16749 -0.54375,-0.0562 -0.3825,-0.625 -0.9225,-1.445 z m 4.19,-32.34998 2.46375,0 0,2.46374 c 0,0 -0.54375,0.045 -0.985,0 -0.91125,-0.0925 -1.38625,-0.56625 -1.47875,-1.47749 -0.045,-0.4425 0,-0.98625 0,-0.98625 z m -6.77625,1.60124 c -0.325,1.0225 1.2475,2.74375 1.72625,3.18375 3.20875,2.955 5.725,4.3125 4.43375,6.5125 -0.86875,1.4825 -9.56375,7.60375 -7.3925,9.6475 1.23375,1.16125 6.085,-2.9875 7.7,-4.92875 3.1075,-3.73 10.78875,-18.91624 5.44625,-22.17624 -1.485,-0.90625 -8.285,0.21 -9.7575,2.46375 -0.81875,1.2525 -1.72375,3.935 -2.15625,5.29749 z m 43.17124,-3.13999 4.14125,0 c 0,0 -4.46125,-17.3675 -6.015,-18.8125 -0.63125,-0.58625 -2.4225,-0.3125 -3.67,0.7425 -2.53125,2.1375 -3.58375,6.01375 -2.86,7.72125 0.29,0.6825 0.865,1.4525 1.32,2.34 0.99375,1.93875 1.70875,7.2875 2.15625,11.39624 1.8525,17.04 6.12,46.52124 5.54375,50.82249 -0.7425,5.5375 -2.17,11.56999 -2.17,11.56999 0,0 1.77125,-1.4 3.09375,-2.94499 1.0325,-1.2075 3.89125,-10.14125 4.005,-12.51875 0.0787,-1.65125 0.10125,-3.06875 0,-5.1 -0.60125,-11.95374 -5.545,-45.21623 -5.545,-45.21623 z"
     style="fill:#000000;stroke:none" />
</svg>
