<?xml version="1.0" encoding="UTF-8" standalone="no"?>
<svg>
  <path
     d="m 93.791524,39.784685 c 1.18375,1.3425 4.21875,-1.19 4.77,-1.5375 0.43625,-0.2775 3.259996,-1.64376 3.454996,-1.1275 0.0588,0.15625 -0.09,0.49 0,0.66625 0.0613,0.11875 0.23,0.16625 0.36,0.25875 0.35625,0.255 0.4,0.84875 0.2275,1.34 -0.55,1.5625 -3.296246,2.0825 -4.406246,3.73125 -0.57,0.8475 -1.15,4.29125 -0.88125,4.66375 1.0925,1.51875 5.317496,-2.6575 5.983746,-3.52875 3.155,-4.1225 7.11,-12.90251 0.94875,-14.46001 -2.25625,-0.57 -7.653746,1.29125 -8.534996,2.24125 -0.9375,1.01125 -1.45375,2.78375 -1.9225,5.08751 -0.2125,1.0425 -0.41625,2.19375 0,2.665 z m -1.06,55.41501 c -1.33,4.6725 -3.0275,7.127495 -0.7975,10.893745 2.285,3.8625 10.859996,1.24 14.603746,-2.625 1.2125,-1.25125 1.3475,-1.4925 1.3475,-2.415 l 0,-2.053745 c 0,0 -0.815,-0.045 -1.50125,0 -1.975,0.12875 -2.8825,1 -4.12875,1.418745 -3.548746,1.19125 -8.338746,-0.749995 -7.507496,-4.398745 1.41625,-6.20625 5.683746,-10.30125 1.465,-12.62625 -1.2875,-0.71 -4.755,-0.71 -6.05625,0 -1.83625,1 -3.78875,4.54125 -4.63375,7.70625 -1.31375,4.9175 1.07625,0.265 5.0425,-0.51625 4.755,-0.93625 1.55625,6.7575 2.16625,4.61625 z m -51.35126,-23.11001 c 0,0 0.5775,-1.51 0.9275,-2.70625 0.59,-2.01875 0.495,-3.47875 0.26125,-5.5675 -0.6475,-5.8275 -1.52875,-14.5425 -1.52875,-14.5425 0,0 1.78875,-0.2275 3.15625,-0.1875 3.6975,0.11 4.775,2.085 6.72,-0.11875 1.26625,-1.435 2.39875,-6.51875 1.58875,-8.4175 -0.92625,-2.17 -4.06375,-3.21625 -5.50625,-1.44375 -0.665,0.81625 -1.045,2.10625 -1.80625,2.955 -1.17875,1.315 -3.2725,1.57625 -4.31,2.6725 -1.77626,1.8775 -2.13126,10.51625 -1.80501,13.625 0.5525,5.24375 2.30251,13.73125 2.30251,13.73125 z m -10.90001,30.145005 c 0.19875,3.11 1.47875,5.045 3.80625,5.6025 3.0025,0.72 4.70125,-1.12625 5.47,-4.86125 0.16875,-0.82 0.13125,-1.5025 -0.33375,-1.8325 -0.885,-0.6275 -3.31375,0.0238 -4.48875,-0.68375 -1.46125,-0.879995 -1.8325,-4.621245 -1.47125,-6.371245 0.3625,-1.75 1.28375,-3.625 1.535,-4.975 0.0513,-0.2725 0.075,-0.525 -0.03,-0.665 -0.0138,-0.0175 -0.0275,-0.0338 -0.04,-0.05 -3.535,-0.91375 -4.39375,14.676245 -4.4475,13.836245 z M 9.0640036,77.343445 c 1.1837504,1.34125 4.2187504,-1.19 4.7687504,-1.53875 0.4375,-0.27625 3.26125,-1.64375 3.45625,-1.12625 0.0587,0.15625 -0.09,0.49 0,0.66625 0.0612,0.11875 0.23,0.16625 0.35875,0.25875 0.35625,0.25375 0.40125,0.84875 0.22875,1.34 -0.55,1.56125 -3.29625,2.08125 -4.40625,3.73125 -0.57,0.8475 -1.15,4.29125 -0.88125,4.66375 1.0925,1.51875 5.3175,-2.65875 5.98375,-3.53 3.155,-4.12125 7.11,-12.90251 0.94875,-14.46001 -2.25625,-0.57 -7.65375,1.2925 -8.535,2.24125 -0.9375,1.01125 -1.4537504,2.78375 -1.9225004,5.08876 -0.2125,1.0425 -0.41625,2.19375 0,2.665 z m 77.3812704,0.76625 c 6.10375,-1.88625 11.3025,-3.82375 17.012496,-3.43625 3.63875,0.24625 9.5275,1.19 9.5275,1.19 0,0 3.15376,-4.73876 3.59501,-8.31376 0.15125,-1.22 0.05,-2.39875 0.05,-2.39875 0,0 -4.34126,-0.44875 -7.09751,-1.1025 -3.8625,-0.91625 -9.871246,-4.79125 -12.364996,-8.415 -0.895,-1.30125 -1.5,-2.7475 -2.495,-3.8825 -3.00375,-3.4275 -10.45375,-6.1925 -14.19375,-5.1775 -5.87501,1.5925 -8.71876,4.315 -8.81626,11.07125 -0.0212,1.48625 0.1175,3.195 0.1175,3.195 0,0 1.94375,0.0388 3.375,-0.16 4.85126,-0.67375 4.53751,-3.36375 9.88876,-1.80375 1.9825,0.5775 7.17625,3.27375 6.96,6.6675 -0.0325,0.51 -0.205,0.62125 -1.7325,1.1175 -2.6025,0.84625 -5.41125,1.76 -8.19875,2.4175 -8.12251,1.9175 -17.28001,1.36625 -18.00376,-0.1025 -0.8325,-1.69375 -1.6325,-3.2825 -2.62875,-3.97375 -2.38375,-1.6525 -8.3725,-0.76125 -10.9025,0.56875 -2.75375,1.4475 -4.49625,2.69625 -5.66125,5.93625 -1.24375,3.46126 -2.34,9.71876 -2.34,9.71876 0,0 -1.90125,-3.65875 -3.40876,-6.9325 -3.71875,-8.08376 -8.09,-31.17501 -16.38875,-34.41001 -2.76,-1.07625 -3.67125,2.16 -3.46375,7.16625 0.10625,2.53 1.27625,6.8475 2.3875,8.88875 4.55125,8.36875 10.34875,9.44125 9.7075,16.0775 -0.70625,7.31126 -8.3575,17.37876 -12.15875,21.05001 -3.3725,3.25625 -7.6025,4.96125 -12.2775004,1.91625 -2.10125,-1.3675 -3.3925,-4.10625 -3.78001,-6.80875 -0.7825,-5.445 0.90001,-23.39626 0.90001,-23.39626 l -1.76126,0.0838 c 0,0 -1.63124999,13.54126 -2.14124999,21.64126 -0.71,11.29 0.81625,19.674995 10.18501039,21.322495 8.3775,1.47375 14.2875,-7.11625 19.7225,-15.607495 1.17125,-1.83 2.07125,-3.315 2.995,-6.4775 0.7575,-2.59875 1.53125,-6.33125 1.53125,-6.33125 0,0 0.8925,2.95125 1.66,5.18 2.23375,6.48625 9.80251,18.696245 18.29251,18.999995 1.47625,0.0525 1.8125,0.05 3.36,-0.0238 l 3.44625,-0.16375 c 0,0 -0.0688,-3.165 0.1425,-5.047495 0.2025,-1.81125 0.66625,-2.4325 0.68625,-4.3275 0.01,-0.865 -0.0738,-1.9975 -0.0738,-1.9975 l -3.13125,0.15 c -1.4075,0.0662 -1.685,0.0612 -2.7775,-0.05 -4.89125,-0.49625 -8.13625,-5.39375 -9.1175,-8.935 -1.49875,-5.4 0.735,-6.5225 6.40375,-8.0925 2.55875,-0.70875 3.74125,-0.2925 5.3825,2.315 6.565,7.045 14.15625,4.84625 27.58626,0.69375 z m 38.146256,-43.40752 3.525,0 c 0,0 0.17625,-2.5575 0,-4.45125 -0.245,-2.63625 -1.34375,-4.2125 -2.05625,-6.21 -2.83,-7.9325 -0.92,-14.8075001 -4.60625,-11.9925 -2.925,2.23375 -5.12,6.27125 -4.5,9.7275 0.48,2.67625 1.87875,5.995 2.64375,9.59375 1.04125,4.9 0.0275,18.89501 0.29375,28.65001 0.27875,10.25 2.8475,19.94626 3.1725,31.97251 0.155,5.71625 -0.98375,17.652495 1.58625,15.713745 4.9675,-3.74875 4.34375,-20.699995 4.05375,-25.432495 -0.74875,-12.20126 -3.90375,-27.20001 -4.1125,-38.51001 -0.0788,-4.2675 0,-9.06126 0,-9.06126 z m -89.680026,-19.34875 0,-8.6612501 c 0,0 -1.3775,0.2475 -1.7625,0 -0.1625,-0.10375 -0.15,-0.29375 -0.22875,-0.4075 -0.15125,-0.21875 -0.63625,-0.15625 -1.13,-0.0525 -2.60125,0.55125 -5.22375,2.04875 -6.06375,3.8975001 -1.24375,2.73625 -1.285,6.75625 -3.38875,5.89 -1.705,-0.7025 -3.1475,-5.11125 -5.0525,-6.9962501 -1.34125,-1.3275 -4.91375,-1.37625 -5.875,0.77375 -0.71125,1.5900001 0.0462,7.4712501 0.88125,8.8875001 0.59375,1.00625 2.3225,2.58 3.11375,2.665 1.145,0.12375 2.41,-1.32875 3.4075,-1.3325 1.25875,-0.004 3.68125,4.87125 3.76,7.19625 0.1275,3.70875 -6.59125,7.0175 -11.1625,10.46001 -11.51751039,8.67125 -11.16376039,13.16125 -6.1687504,24.31875 0.41375,0.925 0.81125,1.81875 1.82125,1.99875 0.5925,0.10625 1.41,0 1.41,0 l 0,-0.66625 0.5875,0 c 0,0 0.37125,-2.57375 0,-4.45 -0.82125,-4.14375 -3.60625,-4.3025 -2.9375,-6.47625 0.29625,-0.965 1.305,-2.01625 2.35,-3.065 9.9187504,-9.95125 18.2512504,-15.85376 30.2575004,-22.65376 6.04001,-3.42125 14.30751,-7.9325 14.30751,-7.9325 0,0 -2.87,4.9025 -4.02625,8.14625 -0.5875,1.64875 -0.5875,4.625 0,5.11625 0.43,0.36 1.695,0.33875 2.9375,-1.3325 0.915,-1.23 1.66375,-3.33 2.64375,-5.33 2.0875,-4.2575 5.48125,-8.945 7.34375,-10.3275 8.53625,-6.3312501 14.3175,-3.96625 15.16625,-12.8850001 0.0938,-0.98125 0.11001,-2.105 0.11001,-2.105 0,0 -1.47876,-0.065 -2.82001,0 -2.50625,0.12 -12.5725,4.36 -15.7925,7.26 -0.495,0.44625 -0.90875,0.9325 -1.36375,1.40125 -2.72125,2.8000001 -22.94876,11.7550001 -28.78751,16.3237501 -1.525,1.1925 -3.485,2.96625 -4.11375,2.33125 -0.24125,-0.245 -0.17375,-0.88 0,-1.59875 0.5275,-2.175 3.965,-8.2825 5.28875,-9.395 0.65625,-0.55125 1.13125,-0.57625 2.9675,-0.76 0.97,-0.0975 2.32,-0.23875 2.32,-0.23875 z m 32.30626,43.61251 0,-0.66625 0.5875,0 0,-4.89125 c 0,-1.79875 -0.12875,-2.13625 -1.28375,-3.37625 -1.30125,-1.39625 -3.10375,-3.2925 -4.23875,-3.725 -0.8125,-0.31 -1.28,-0.24375 -0.70625,-2.12125 0.57625,-1.88375 4.65,-6.54625 5.64125,-7.54001 3.76125,-3.775 25.79626,-17.9825 29.67001,-19.655 1.5375,-0.665 3.231246,-1.3325 3.231246,-1.3325 l -0.587496,5.33 0.939996,0 c 0.4225,0 0.5925,-0.14375 1.69875,-1.43875 1.6175,-1.8925 3.2875,-3.715 5.20875,-5.23625 1.97,-1.55875 4.20375,-2.80125 5.95,-4.4575001 0.16125,-0.1525 0.3175,-0.3075 0.49125,-0.4375 0.97751,-0.7325 2.50376,-0.65375 3.33626,-1.4225 1.02375,-0.94375 1.5625,-4.47375 1.7625,-5.66375 0.39,-2.31125 0.0825,-2.74251 -2.35,-1.99875 -3.23626,0.99 -5.71251,2.845 -8.51876,3.9975 -1.2375,0.50875 -2.53875,0.88125 -3.81875,1.3325 -7.006246,2.475 -34.732506,20.3575001 -38.691256,24.4462501 -4.73625,4.89 -9.84,11.31001 -7.7225,19.31501 1.03625,3.92 3.9875,5.85875 7.69625,9.10125 0.22125,0.19375 0.43,0.38125 0.8225,0.44 0.3625,0.055 0.88125,0 0.88125,0 z"
     style="fill:#000000;stroke:none" />
</svg>
