<?xml version="1.0"?>
<svg xmlns="http://www.w3.org/2000/svg" version="1.1">
  <path
     d="m 55.578562,8.3749501 3.158884,-0.985042 1.297556,-3.562652 1.395059,-3.82641298768 c 0,0 -24.524794,9.05788598768 -37.757858,16.22944188768 -13.003054,7.0478 -20.8496378,13.315567 -23.35974472,22.815971 -0.68252907,2.58386 -0.22000937,6.09526 1.12504792,7.481569 1.9150816,1.975084 5.728994,4.011421 5.728994,4.011421 L 8.6403129,41.903878 3.0675756,40.471317 c 0,0 1.1825504,-2.023836 2.1863431,-3.491399 C 9.1603351,31.264675 24.791001,23.679352 33.877638,18.801644 l 6.12026,-3.28639 -2.916374,3.933918 c -0.821285,1.108797 -1.758825,2.3526 -2.136341,3.453897 -0.737531,2.150092 0.408768,3.29514 0.905039,3.273889 2.095089,-0.0925 6.149011,-8.92913 11.470488,-13.680583 1.716323,-1.532565 5.716494,-3.3301419 8.257852,-4.1214249 z M 1.1199927,9.9062651 c 0.041252,0.4075169 0.1050044,1.0300439 0.188758,1.8625789 0.1850079,1.815078 0.081253,4.643949 1.737574,5.511486 0.2862622,0.150006 0.5950254,0.298762 0.8937881,0.418767 1.8413284,0.736282 3.873915,0.21751 5.1614698,-1.165049 1.3138064,-1.41131 1.9938344,-3.05888 2.9763764,-2.423853 1.40506,0.907538 2.491356,6.430273 5.130219,6.932795 1.016293,0.193758 2.261346,-0.356265 2.261346,-0.356265 0,0 0.0925,-0.478771 0.22501,-1.16255 0.106254,-0.551273 0.196258,-0.992542 0.268761,-1.345057 -0.0038,0.0175 -0.456269,-4.751452 -0.48377,-5.086467 -0.065,-0.823785 -0.123756,-1.553817 -0.123756,-1.553817 0,0 1.142549,0.196259 2.091339,0.308764 2.893874,0.343764 3.611404,-0.0975 4.308934,-1.755075 1.721323,-4.0951749 2.033836,-9.51665489 -1.330057,-10.05042789 -2.516357,-0.400017 -5.661491,2.10883999 -6.81529,5.06146499 -1.313806,3.361394 -1.64132,8.6316189 -1.64132,8.6316189 0,0 -0.94004,-4.2214309 -2.58011,-6.3577719 C 12.869243,6.6986281 8.8903236,4.9398031 6.4677204,4.5635371 -0.04380689,3.5534941 1.4387563,13.043899 1.1199927,9.9062651 z M 48.95203,58.642091 c 0,0 0.613776,-1.41506 0.985042,-2.536358 0.626276,-1.891331 0.525022,-3.258889 0.277511,-5.216472 -0.688779,-5.458983 -1.748824,-17.825759 -1.748824,-17.825759 0,0 1.901331,-0.21376 3.353893,-0.175008 3.928917,0.102504 5.073966,1.952583 7.140304,-0.111255 1.345057,-1.345057 2.548858,-6.10776 1.688822,-7.886585 -0.985042,-2.033837 -4.318934,-3.013879 -5.8515,-1.353808 -0.70628,0.766283 -1.110047,1.973834 -1.918831,2.770118 -1.251304,1.231302 -3.477648,1.475063 -4.578945,2.502607 -1.887581,1.760075 -2.141341,14.054348 -1.793827,16.966972 0.586275,4.913959 2.446355,12.865548 2.446355,12.865548 z m 71.18803,-20.570876 -6.34777,6.306518 c -1.05504,1.048795 -1.20505,1.236303 -1.50006,1.88133 -0.41377,0.903789 -0.55628,2.415103 -0.35377,2.620112 0.65753,0.663778 2.98263,-0.94629 3.79141,-1.542566 7.08656,-5.226472 10.31545,-8.517862 11.4605,-15.28565 0.58252,-3.440147 -1.23881,-4.771454 -4.46145,-5.210222 -5.11272,-0.69628 -10.18668,0.01625 -12.17302,3.866414 0.31002,14.696876 0.74628,6.291518 5.08272,5.248974 4.8227,-1.1613 10.00918,-3.738909 4.50144,2.11509 z m -101.161807,25.584839 -6.34777,6.305269 c -1.055045,1.048794 -1.205051,1.236302 -1.500064,1.88258 -0.413768,0.903788 -0.556274,2.415103 -0.353765,2.620112 0.657528,0.663778 2.982627,-0.947541 3.791411,-1.543816 7.086552,-5.226473 10.31419,-8.517863 11.460488,-15.285651 0.582525,-3.440147 -1.238802,-4.771453 -4.46144,-5.210222 -5.112717,-0.69628 -10.186683,0.01625 -12.173018,3.866415 0.3100132,14.696876 0.746282,6.291518 5.082716,5.248973 4.822706,-1.161299 10.009177,-3.738909 4.501442,2.11634 z M 91.100074,90.09468 c -1.457562,2.650113 -1.588817,6.56528 -1.273804,6.784039 0.370016,0.256261 1.265054,0.140006 2.11384,-0.343765 1.906331,-1.087546 3.942668,-3.965168 4.031422,-1.351307 0.06375,1.89258 -3.006378,5.646493 -3.506399,8.291603 -0.541274,2.86387 2.705115,6.44778 4.785203,7.0128 4.031424,1.0963 18.489534,-5.42273 23.279744,-10.571702 1.67882,-1.803826 3.42764,-4.062673 3.42764,-4.062673 0,0 -9.73916,4.306435 -12.49803,5.527735 -1.38256,0.61128 -11.552991,4.99271 -13.786836,1.49632 -0.175007,-0.27252 -0.361265,-0.57878 -0.515022,-0.86004 -1.122547,-2.06384 -0.25501,-4.001422 0.915039,-6.28902 1.683822,-3.29264 2.123839,-1.282555 1.827578,-5.002713 -0.127505,-1.592568 -0.265011,-3.317641 -0.265011,-3.317641 0,0 -0.790034,-0.253761 -1.757575,-0.398767 -4.125176,-0.616276 -6.681534,2.908874 -6.777789,3.085131 z m -27.219909,10.08418 c 0.482521,-0.007 0.767533,-0.015 0.767533,-0.015 l 2.801369,-9.907922 c 0,0 -5.295225,-0.0425 -8.582865,-0.548773 -4.425189,-0.681279 -7.966589,-4.292683 -9.266645,-9.121639 -0.94754,-3.51765 3.5239,-6.924045 8.175348,-7.870335 1.365058,-0.277512 2.647613,-0.256261 3.716409,0.23126 3.391394,1.550066 4.625197,7.805332 7.884085,10.552949 1.433811,1.208802 10.08043,1.711323 14.683126,0.853787 7.550321,-1.40631 34.162705,-2.403853 37.480345,-1.40381 4.00893,1.208801 8.27661,2.727616 9.09039,1.740074 0.53878,-0.652528 0.43002,-2.052587 1.1638,-3.237638 0.77504,-1.250053 2.48886,-2.260096 3.10638,-4.585195 0.26377,-0.993792 0.32752,-2.227595 0.32752,-2.227595 0,0 -6.93405,-0.911289 -10.88922,-1.861329 -2.74887,-0.658778 -4.05892,-1.336307 -5.50023,-2.730116 -4.27894,-4.138927 -9.65667,-15.433158 -13.9256,-16.409449 -2.26509,-0.518772 -11.841752,2.235095 -14.173101,4.075173 -0.646277,0.510022 -1.020043,0.991292 -1.436311,2.132591 -0.842536,2.311349 -1.858829,7.334062 -1.858829,7.334062 0,0 7.187806,-1.535065 10.780459,-1.803826 2.351352,-0.176258 4.051422,0.103754 5.575242,1.556316 2.20384,2.102589 5.51648,7.367814 5.51648,7.367814 0,0 -0.43752,0.09 -1.02629,0.212509 -1.65382,0.345014 -3.21764,0.255011 -5.64899,0.347514 -4.677703,0.178758 -11.770505,0.591276 -10.986722,0.560024 -6.395272,0.257511 -13.265565,0.275012 -15.578163,-0.642527 -4.762703,-1.891331 -9.062886,-11.056721 -13.234314,-12.503032 -0.320014,-0.111255 -0.69378,-0.167508 -1.110047,-0.173758 -5.15397,-0.08 -12.515533,5.653991 -14.654374,10.024177 -0.08,0.163757 -0.155007,0.327514 -0.22626,0.492521 -1.107547,2.58636 -2.375101,6.914044 -2.375101,6.914044 L 40.355413,54.380659 c -0.113754,-0.70128 -0.153756,-0.853786 -0.397516,-1.521314 -2.523858,-6.925295 -4.021422,-10.291689 -8.886629,-16.928221 -2.003835,-2.735117 -3.457647,-4.332685 -4.820205,-3.04888 -3.496399,3.29139 -1.593818,12.078014 0.04125,14.874383 1.998835,3.417646 5.711493,6.935296 8.195349,11.144225 7.367813,12.486782 3.781411,17.534497 -8.302854,27.602425 -6.272767,5.223973 -9.257894,7.0353 -14.418114,3.966419 C 7.8140278,88.119596 4.1176203,81.809327 5.0626606,76.301593 5.4326763,74.144001 10.264132,66.496175 8.641563,63.77856 8.4665555,63.486047 8.2165449,63.31104 7.9590339,63.304789 c -0.9675412,-0.02375 -2.0575876,2.316349 -2.9613761,4.46269 -4.72020101,11.209228 -5.70274285,31.026322 7.7215792,33.895191 6.522777,1.39381 11.195476,-2.336347 15.98568,-7.085299 3.382644,-3.352643 8.014092,-9.722914 8.982883,-13.129309 0.437519,-1.533815 0.773783,-3.251388 0.773783,-3.251388 0,0 1.817577,5.63774 4.761453,10.522948 0.681279,1.130048 1.42256,2.218844 2.148841,3.215137 2.190093,3.005128 4.751452,4.968961 7.206557,6.241515 4.583945,2.376356 5.737744,2.077586 11.301731,2.002586 z m 60.057555,-91.8039099 3.15889,-0.985042 1.29881,-3.562652 1.39381,-3.82641298768 c 0,0 -24.5248,9.05788598768 -37.757866,16.22944188768 -13.001804,7.0478 -20.848388,13.315567 -23.359745,22.815971 -0.682529,2.58386 -0.218759,6.09526 1.125048,7.481569 1.915082,1.975084 5.728994,4.011421 5.728994,4.011421 l 1.473813,-8.635368 -5.572737,-1.432561 c 0,0 1.18255,-2.023836 2.186343,-3.491399 3.906416,-5.715243 19.537082,-13.300566 28.62372,-18.178274 l 6.12026,-3.28639 -2.91637,3.933918 c -0.82129,1.108797 -1.75883,2.3526 -2.13635,3.453897 -0.73753,2.150092 0.40877,3.29514 0.90504,3.273889 2.09634,-0.0925 6.15026,-8.92913 11.47049,-13.680583 1.71632,-1.532565 5.71774,-3.3301419 8.25785,-4.1214249 z m 12.51804,-4.091424 c -0.26626,0.520022 -0.49002,1.18755 -0.47127,2.041336 0.0575,2.638863 2.4226,7.0615519 3.04888,10.7042069 0.60253,3.511399 -0.40002,5.855249 -0.89504,9.191641 -1.05254,7.097802 5.97526,36.659061 6.22652,51.593447 0.0363,2.150092 -0.0863,4.120176 0.33876,4.991463 0.24001,0.492521 1.26256,0.411267 1.69257,-0.135006 1.32131,-1.673821 2.43636,-6.690285 3.57891,-10.061678 0.22876,-0.673779 0.24626,-0.827536 0.17625,-1.535066 -1.65382,-16.760714 -5.87775,-49.713367 -4.8052,-50.298392 0.54752,-0.298762 1.66382,0.92004 1.78133,0.386267 0.48002,-2.188843 -3.18639,-17.8095089 -2.60012,-20.80588689 0.0975,-0.493771 -0.0875,-0.48377 -1.62131,0.095 -0.54253,0.203759 -1.24631,0.46002 -1.94634,0.71128099 -4.71395,1.693822 -5.39273,4.858957 -4.50394,3.121383 z m -66.976606,5.622739 c 0.04125,0.4075169 0.105004,1.0300439 0.190008,1.8625789 0.185008,1.815078 0.08,4.643949 1.736324,5.511486 0.286262,0.150006 0.595025,0.298762 0.895038,0.418767 1.840078,0.736282 3.873915,0.21751 5.16022,-1.165049 1.313806,-1.41131 1.993834,-3.05888 2.976376,-2.423853 1.40506,0.907538 2.491356,6.430273 5.131469,6.932795 1.015043,0.193758 2.260096,-0.356265 2.260096,-0.356265 0,0 0.0925,-0.478771 0.22501,-1.16255 0.107504,-0.551273 0.196258,-0.992542 0.268761,-1.345057 -0.0025,0.0175 -0.456269,-4.751452 -0.48252,-5.086467 -0.06625,-0.823785 -0.123756,-1.553817 -0.123756,-1.553817 0,0 1.142549,0.196259 2.090089,0.308764 2.893874,0.343764 3.611404,-0.0975 4.308934,-1.755075 1.722573,-4.0951749 2.033836,-9.51665489 -1.330057,-10.05042789 -2.516357,-0.400017 -5.660241,2.10883999 -6.81529,5.06146499 -1.313806,3.361394 -1.64132,8.6316189 -1.64132,8.6316189 0,0 -0.94004,-4.2214309 -2.57886,-6.3577719 -0.521272,-0.678779 -4.498941,-2.437604 -6.922795,-2.81387 -6.510277,-1.010043 -5.027714,8.4803619 -5.347727,5.342728 z"
     style="fill:#000000;stroke:none" />
</svg>
