<?xml version="1.0" encoding="UTF-8" standalone="yes"?>
<!-- Created with sK1/UniConvertor (http://sk1project.org/) -->
<svg xmlns="http://www.w3.org/2000/svg" xmlns:xlink="http://www.w3.org/1999/xlink"
  width="595.276pt" height="841.89pt" viewBox="0 0 595.276 841.89"
  fill-rule="evenodd">
  <path
     d="m 36.678338,23.878939 c -1.017341,1.213408 -1.671561,2.309776 -1.84862,3.236087 -0.254086,1.326445 -0.113038,3.036019 0.469157,5.624888 0.367124,1.628547 1.198402,3.66023 2.102706,4.083371 0.819275,0.384129 1.509507,-0.892299 1.602538,-1.686566 0.120041,-1.033347 0.229077,-2.3828 0.06002,-2.906976 -0.131044,-0.406136 -0.429144,-0.317107 -0.913307,-0.790265 -0.609204,-0.5952 -1.512507,-2.078698 -1.512507,-2.078698 0,0 1.814609,-1.780598 3.90031,-3.742256 3.75526,-3.533187 12.099061,-9.865313 16.507542,-12.073055 1.004337,-0.503169 1.899638,-0.8953 2.641887,-1.139382 0.540181,-0.17706 0.986331,-0.261088 1.117375,0.08103 0.104036,0.274092 -1.770594,6.373139 0.01201,4.764599 0.493166,-0.444149 0.834281,-1.72658 1.27943,-2.818947 0.710238,-1.739584 1.685566,-2.994005 3.029017,-4.015348 6.548199,-4.9786709 8.162741,-3.0760329 9.330132,-8.0607069 0.499169,-2.13071496 0.340115,-2.64788796 -1.370459,-2.21674396 -1.890635,0.478161 -4.658565,1.75558996 -7.723594,3.38713796 -0.660221,0.351117 -1.837617,1.004337 -3.378134,1.887634 C 53.163873,10.471437 43.1145,16.200361 36.678338,23.878939 z m 8.283781,7.405487 c -1.017341,1.213407 -1.67056,2.309776 -1.84862,3.236087 -0.254085,1.326445 -0.113038,3.036019 0.470158,5.624888 0.366123,1.628547 1.197402,3.660229 2.101705,4.083371 0.820276,0.384129 1.509507,-0.8923 1.602538,-1.686566 0.120041,-1.033347 0.229077,-2.3828 0.06002,-2.906977 -0.131044,-0.406136 -0.428144,-0.317106 -0.913306,-0.790265 -0.608205,-0.5952 -1.512509,-2.078698 -1.512509,-2.078698 0,0 1.81561,-1.780597 3.90031,-3.742256 3.755261,-3.532186 12.099063,-9.865313 16.507543,-12.073054 1.004337,-0.503169 1.900638,-0.8953 2.641887,-1.139382 0.540181,-0.17706 0.987331,-0.261088 1.117375,0.08103 0.104035,0.274091 -1.770594,6.37314 0.01201,4.7656 0.493165,-0.44515 0.83428,-1.72758 1.27943,-2.818946 0.710238,-1.739585 1.685565,-2.995006 3.029017,-4.016349 6.548198,-4.978672 8.162741,-3.076033 9.330133,-8.0607069 0.499169,-2.130715 0.340113,-2.647889 -1.369456,-2.215744 -1.89164,0.47716 -4.659569,1.75459 -7.724598,3.3861369 -0.660222,0.351118 -1.837617,1.004338 -3.378135,1.887634 -8.818968,5.056698 -18.869342,10.785621 -25.305504,18.4642 z m 14.785966,17.280802 0.482161,-0.009 c 0.216072,-0.004 0.274092,-0.154052 0.580195,-1.492502 1.759591,-7.696584 2.080698,-11.947011 -2.247754,-16.883669 -0.71324,-0.812273 -1.543519,-1.494502 -2.078699,-0.766257 -0.363122,0.495166 -0.733246,3.984338 -0.56819,4.745593 0.290096,1.333449 1.147385,1.765594 2.137717,2.670897 2.237751,2.043686 2.797939,3.576201 2.513844,6.299115 -0.219073,2.088702 -0.819274,5.435825 -0.819274,5.435825 z M 46.534648,17.844913 46.399602,14.31973 c -0.05502,-1.425479 -0.03702,-1.680565 0.181061,-2.553858 0.162055,-0.647217 0.333112,-1.356456 0.767258,-1.8126089 1.056354,-1.112373 3.673233,-0.727244 4.88664,-1.643551 1.746587,-1.319444 1.747587,-5.850965 0.403135,-7.68758196 -1.425478,-1.94765304 -4.306445,1.14538496 -5.486841,2.91497896 -0.725244,1.087365 -1.412474,2.332783 -1.721579,3.787272 -0.143048,0.673226 -0.222074,1.438483 -0.334112,2.107708 L 44.54698,12.71219 42.736372,10.101313 C 40.25854,6.4030711 41.013794,5.3037021 37.372571,4.2983651 c -1.22041,-0.337114 -3.866298,-0.211071 -4.374468,1.345452 -0.398134,1.218408 0.53618,4.180403 1.121376,4.8836389 0.450151,0.541182 2.272763,1.882632 3.025016,1.96566 1.230413,0.135046 3.743257,-0.714239 3.743257,-0.714239 0,0 2.028681,3.30811 3.267097,4.861632 0.541182,0.678227 0.988331,1.224411 1.681564,1.239416 0.286096,0.006 0.698235,-0.03502 0.698235,-0.03502 z m -33.781543,18.40618 0.167656,-2.342786 -2.9338848,0.74325 C -4.2759125,38.26477 6.7702964,10.77854 4.0376789,15.807229 0.89042215,21.599174 -0.48614007,28.513495 0.15297452,34.698573 0.22269791,35.373799 0.29872346,35.988005 0.39155463,36.550194 1.8803546,45.567221 12.26304,43.104395 12.753105,36.251093 z m 67.384827,33.477241 c -1.30644,2.179732 -3.169066,3.822283 -2.791939,5.552865 0.904303,4.153394 6.8413,2.588868 9.454173,1.229412 1.356456,-0.706237 3.553193,-3.093039 4.028353,-4.37747 0.196064,-0.528177 0.330112,-1.087365 0.08903,-1.22041 -0.154056,-0.08503 -0.46216,0.005 -0.777264,0.129044 -1.135376,0.44715 -2.376793,1.348453 -3.610209,1.874629 -2.089705,0.8923 -5.076706,1.216409 -5.759938,-0.981329 -0.140048,-0.447151 -0.09603,-0.901303 0.09904,-1.362457 1.259416,-2.990005 4.807609,-4.124386 4.172393,-6.360136 -0.876288,-3.080034 -4.061361,-2.562861 -5.852961,-1.088365 -0.01901,0.01601 -3.350125,3.624216 -2.331783,4.286439 0.161053,0.105035 0.486163,0.04102 0.816274,-0.06902 0.5952,-0.200067 1.208406,-0.552186 1.954656,-0.71324 1.236413,-0.267089 1.411477,0.511172 1.287429,1.312441 -0.13904,0.8943 -0.739248,1.72558 -0.777256,1.7876 z M 25.121458,8.3927401 21.021081,13.007289 c -0.682229,0.767257 -0.778261,0.905304 -0.969325,1.377462 -0.26709,0.661222 -0.359121,1.767594 -0.228077,1.917644 0.425143,0.485163 1.926647,-0.693232 2.448822,-1.13038 4.576537,-3.824283 6.662237,-6.2330919 7.401485,-11.1857549 0.376127,-2.517845 -0.799268,-3.49117196 -2.880967,-3.81327996 -3.302109,-0.509172 -6.579209,0.012 -7.86264,2.82894896 0.200068,10.7566119 0.482162,4.605547 3.283102,3.842291 3.115046,-0.850286 6.465171,-2.73692 2.907977,1.54852 z m -5.252764,41.8230429 -4.100377,4.615549 c -0.681229,0.766257 -0.778261,0.904304 -0.969325,1.376462 -0.267089,0.661222 -0.359021,1.767594 -0.228077,1.917644 0.425143,0.486164 1.926647,-0.693233 2.448823,-1.129379 4.577537,-3.825285 6.662237,-6.234093 7.402485,-11.186756 0.376126,-2.516845 -0.800268,-3.491173 -2.881968,-3.81228 -3.302108,-0.510171 -6.579208,0.011 -7.862239,2.82895 0.200267,10.755611 0.482262,4.604545 3.282702,3.841289 3.115046,-0.849285 6.465171,-2.735918 2.907976,1.548521 z m 65.634039,-21.089082 -4.100377,4.61455 c -0.681232,0.767258 -0.778264,0.904303 -0.969328,1.377463 -0.267088,0.661221 -0.359121,1.767593 -0.228072,1.917643 0.425136,0.485163 1.92664,-0.693233 2.448816,-1.130379 4.577538,-3.824285 6.662243,-6.233094 7.402491,-11.185756 0.37612,-2.517846 -0.800272,-3.492173 -2.881969,-3.813281 -3.302113,-0.509171 -6.57921,0.01201 -7.86164,2.82895 0.200066,10.755612 0.482161,4.605547 3.282102,3.84129 3.115041,-0.849285 6.465171,-2.735919 2.907977,1.54952 z M 6.7466885,58.830675 c -0.4102378,8.972012 2.5893691,17.553893 10.8092295,18.464199 0.690231,0.07702 1.362457,0.05602 2.014676,-0.05302 3.984338,-0.662222 12.113067,-11.307796 12.981359,-15.702272 0.01301,-0.06702 0.02601,-0.134045 0.03802,-0.204068 0.327109,-1.782599 0.391131,-4.353463 0.391131,-4.353463 0,0 1.889634,6.343131 3.184069,9.732269 2.044687,5.355797 6.209085,8.753939 11.581889,10.019364 2.478832,0.583195 6.232093,1.231413 6.232093,1.231413 l 1.676563,-10.243439 -2.932986,0.153051 c -1.202403,0.06302 -1.413474,0.05802 -2.106707,-0.04702 -2.749923,-0.41614 -4.992677,-2.876967 -5.69091,-5.110716 -0.595201,-1.908641 0.194064,-2.306775 2.301772,-3.66123 2.377799,-1.527513 4.303445,-2.706909 6.427159,-1.094367 0.826277,0.62821 1.524511,1.689567 2.333783,2.407809 2.763928,2.454824 14.128744,2.737919 17.052726,1.893635 1.047351,-0.302101 1.96666,-0.789265 3.058026,-1.170393 3.624217,-1.268426 12.699261,-1.330447 16.537551,-1.873629 0.643216,-0.09103 1.171392,-0.20707 1.660552,-0.845284 1.324449,-1.726579 2.589873,-8.481847 2.589873,-8.481847 0,0 -2.333785,0.294098 -4.186401,0.218072 -1.251425,-0.05102 -5.14373,-1.124377 -6.421162,-1.941651 -1.872625,-1.198402 -3.799274,-4.85463 -5.621882,-6.28311 -1.81461,-1.422478 -6.172073,-2.237752 -8.291784,-1.84462 -5.128723,0.95132 -7.920659,2.371797 -7.960673,8.164742 -0.009,1.319443 0.121041,2.866963 0.121041,2.866963 0,0 1.37246,-0.01501 2.449822,-0.128043 1.945654,-0.202068 2.929984,-0.720242 3.966332,-1.218409 1.182397,-0.567191 4.997678,-0.766258 5.71992,-0.298101 1.586533,1.028346 3.259095,3.320115 3.259095,3.320115 l -9.837307,1.003337 c -1.199402,0.12204 -1.466492,0.12304 -2.666895,0.002 -1.035347,-0.103036 -7.931663,-0.846285 -9.56221,-2.0807 -1.313442,-0.993333 -2.324781,-3.187069 -3.5712,-3.60721 -2.189735,-0.737248 -8.074711,3.550191 -9.326131,4.785606 -1.200403,1.185398 -1.867627,2.134717 -2.180732,3.947325 -0.5942,3.436154 -0.679228,8.483849 -3.833287,5.218753 -0.895305,-0.928303 -1.343456,-2.61787 -1.813613,-4.205403 -0.647217,-2.187735 -1.443485,-4.291441 -2.057692,-6.469172 -3.294105,-11.685924 -2.316777,-18.164099 -9.372146,-25.96772 -0.86429,-0.956321 -0.987332,-1.065358 -1.228412,-1.083363 -1.312441,-0.101035 -1.367459,1.611541 -1.564526,3.141054 -0.319107,2.466829 -0.225075,5.282774 0.269091,6.410153 0.827278,1.889634 2.77093,3.079033 4.299443,5.103713 1.418476,1.877631 3.801276,7.433496 4.400477,10.69159 0.04902,0.26609 0.09003,0.535179 0.07402,0.805271 -0.02101,0.365122 -0.07502,0.545182 -0.544182,1.802605 C 29.1318,58.336509 25.34953,67.464573 19.481559,68.089784 14.274216,68.64297 10.342196,64.546594 8.9648335,59.4989 8.864499,59.131776 8.7886742,58.843679 8.7302542,58.589594 7.1709309,51.803315 7.2211478,48.454191 6.7466885,58.830675 z M 101.13698,14.417762 c 0,0 0.21407,0 0.75725,0 2.88797,2.724916 3.36813,2.745922 3.08604,1.731582 -4.91265,-9.5241979 -2.47683,-18.4932089 -6.214084,-15.59623686 -0.04704,0.04602 -0.09503,0.09803 -0.143048,0.154052 -1.006336,1.18939996 -2.227753,3.11204496 -2.391801,3.93832196 -0.22508,1.13138 0.540176,3.163062 1.182392,5.7059159 1.635553,6.466171 1.691569,7.961673 0.864289,11.861983 -0.37312,1.759591 0.509176,22.897688 1.07436,25.756648 0.688232,3.478168 1.416472,7.735597 1.338452,10.712597 -0.03,1.145385 -0.11404,2.418813 -0.21808,3.659229 -1.369452,16.267462 0.80328,6.333126 1.91265,0.441148 1.00834,-5.3618 2.01268,-7.98268 0.87029,-16.190437 -0.24609,-1.770594 -0.53518,-3.734253 -0.78126,-6.025022 -1.07336,-9.97635 -1.33745,-26.149781 -1.33745,-26.149781 z"
     style="fill:#000000;stroke:none" />
</svg>
