<?xml version="1.0" encoding="UTF-8" standalone="yes"?>
<!-- Created with sK1/UniConvertor (http://sk1project.org/) -->
<svg xmlns="http://www.w3.org/2000/svg" xmlns:xlink="http://www.w3.org/1999/xlink"
  width="595.276pt" height="841.89pt" viewBox="0 0 595.276 841.89"
  fill-rule="evenodd">
  <path
     d="m 106.83222,17.108486 c 0,0 0.59813,0.08871 1.0751,0.207953 2.60332,0.650601 3.31306,2.270404 2.78171,-1.172395 -0.20891,-1.355563 -0.41783,-2.783622 -0.72309,-4.338553 -0.60385,-3.0755265 -3.32356,-10.5706945 -4.11819,-11.34624852 -1.33553,-1.30501 -3.58971,0.259473 -6.005105,3.63358402 -2.148292,2.999207 -1.198154,3.7824 0.704015,6.3943095 0.57904,0.794634 5.9326,46.213027 5.80381,49.237041 -0.2318,5.424148 -0.53993,11.114448 -0.53993,11.114448 0,0 0.89671,-1.194339 1.50438,-2.148293 2.07865,-3.266311 3.84632,-11.791745 3.85585,-11.877593 0.41115,-3.728984 -4.33855,-39.704253 -4.33855,-39.704253 l 0,0 z m -39.170036,30.370833 7.153648,0 c 1.302146,0 1.575923,0.0668 2.735918,0.671577 1.502475,0.782234 2.813198,1.8745 2.885702,2.606182 0.05344,0.547569 0,1.543483 0,1.543483 l -14.153727,0 c -1.302138,0 -1.590235,-0.02192 -2.881878,-0.215592 -4.82029,-0.721178 -5.648316,-1.664636 -8.213481,-5.4251 -1.372739,-2.010924 -2.461189,-2.237957 -5.131291,-1.591179 -5.393612,1.306907 -8.580746,3.307335 -10.596447,7.954969 -0.657265,1.514867 -1.342203,3.03927 -1.809636,4.634274 -0.367272,1.252538 -0.436905,1.394667 -0.696377,1.424243 -0.587641,0.0668 -1.779116,-0.501777 -2.342901,-1.210563 -0.191745,-0.241344 -0.250889,-0.408289 -0.592401,-1.664635 -1.984205,-7.28816 -5.263876,-19.684706 -6.369502,-21.743327 -0.454089,-0.846154 -5.743724,-9.723589 -7.144119,-10.451454 -2.105365,-1.09513 -2.484078,3.06027 -2.738782,4.955762 -0.234673,1.744772 -0.481745,3.428488 0,4.695331 0.687801,1.805819 2.797926,3.148974 4.338553,4.897562 2.319997,2.632902 5.578692,10.010733 4.821258,13.585173 -0.476985,2.251317 -3.397015,6.011773 -6.154877,9.042467 C 18.092207,64.135235 14.00455,68.697964 9.38554,67.889019 6.8709346,67.448298 4.738858,65.382997 3.338463,61.697901 2.8748461,60.476851 2.829054,60.196386 2.8815181,58.896159 L 3.305071,48.443753 c 0,0 -0.4254569,-0.03816 -0.7717377,0 -0.3567767,0.03912 -0.8995699,1.380355 -1.1933865,2.679638 -1.01500219,4.486417 -2.09582849,16.638755 -0.61052932,21.120397 0.67252942,2.029996 1.78101982,3.714672 3.54010352,4.401513 0.5370732,0.209873 1.0722343,0.372993 1.6035795,0.493193 7.9797695,1.799148 18.5170635,-8.363258 21.2548935,-14.993192 0.81753,-1.980396 1.517739,-4.325201 1.517739,-4.325201 0,0 1.176211,4.398657 2.137789,6.531686 2.230332,4.950979 8.141945,9.271412 12.842043,9.641541 2.284701,0.180296 6.122437,0 6.122437,0 l 2.494566,-8.347994 c 0,0 -3.256775,-0.413065 -5.068315,-0.81085 -1.510108,-0.331977 -3.238655,-1.512011 -4.574178,-2.926718 -4.246025,-4.49405 -1.943196,-6.018453 3.072662,-8.601747 1.502468,-0.540889 4.001809,-0.109704 4.875627,0.681122 0.660137,0.597177 1.180034,1.677995 1.820132,2.556581 1.707563,2.343853 4.761146,3.160431 7.821408,3.228159 2.328589,0.05248 4.797411,-0.490329 6.990535,-0.240392 1.528228,0.173616 2.921943,0.731673 4.338546,0.963482 2.209348,0.362505 5.081682,-0.199369 8.798266,-0.481745 6.403846,-0.486513 16.192307,0 16.192307,0 0,0 2.800782,-4.968155 3.587792,-7.069703 0.28523,-0.76125 0.19842,-0.94441 -0.454073,-1.230587 -5.435596,-2.386781 -6.661423,-0.981618 -9.805629,-4.233617 -0.96445,-0.997834 -1.969908,-2.323821 -3.022111,-3.503855 -5.703652,-6.389542 -5.513811,-6.991479 -14.084078,-5.416516 -0.989242,0.181248 -1.726643,0.360593 -1.935564,0.483657 -0.741217,0.438809 -1.520595,2.084372 -2.169277,4.579898 -0.432136,1.661771 -0.964434,3.856816 -0.964434,3.856816 l 0,0 z M 86.833657,7.3505535 c 0,0 -2.310453,3.2481905 -2.936246,4.1286885 -1.108482,1.558747 -1.379403,1.715196 -1.616939,2.671054 0.0016,0.01336 0.0032,0.02576 0.0048,0.03912 0.01528,0.123064 0.04104,0.224184 0.08014,0.287145 0.10112,0.160264 0.343417,0.04864 0.515129,0.02856 0.230856,-0.02576 0.352009,-0.138329 1.208658,-1.119939 1.715188,-1.96418 5.465164,-5.8019155 7.573385,-7.0906865 1.927924,-1.179083 6.330389,-2.273269 7.093551,-4.188785 0.257568,-0.644873 0.361553,-1.55589102 0,-1.60931502 -0.144049,-0.02192 -0.363457,0.09349 -0.481737,0 -0.0744,-0.05912 -0.108752,-0.198425 -0.186977,-0.295721 -0.17648,-0.216553 -0.574281,-0.215601 -0.97017,-0.186976 C 95.4116,0.13866648 93.721204,0.79497948 92.00696,1.4598855 86.11538,3.7474505 56.459053,14.4412 53.923463,25.717817 c -0.145952,0.647721 -0.02288,5.076898 1.401355,5.918284 0.751706,0.445497 1.595955,-1.035026 1.746676,-2.607133 0.16884,-1.760044 -0.626746,-3.395104 -0.255665,-4.593258 0.473161,-1.530131 5.28774,-4.688658 6.836951,-5.742772 3.684136,-2.506974 6.927567,-4.390058 12.078882,-6.693839 4.64477,-2.0767555 11.102031,-4.6485935 11.102031,-4.6485935 l 0,0 z M 81.437182,23.317731 c 0.07248,-0.179344 0.280456,-0.322432 0.848058,-0.659177 0.541849,-0.321481 1.002602,-0.597169 1.719971,-0.704969 1.872596,-0.281417 2.63003,0.792729 1.353651,2.129212 -0.04392,0.04584 -0.08967,0.09444 -0.13832,0.145 -2.024284,2.111085 -5.36882,5.447996 -5.74754,6.619447 -0.101121,0.311928 -0.138321,0.608609 0,0.723089 0.17172,0.143088 0.615305,0.0064 1.056978,-0.199376 3.513383,-1.640796 6.262669,-5.825757 7.861481,-8.959476 0.922466,-1.807731 0.915786,-3.905464 -1.040763,-4.82125 -1.643643,-0.767929 -5.747524,0.653458 -6.913246,1.205787 -1.00833,0.476977 -2.282805,2.046212 -2.410629,2.969638 -0.07056,0.510361 -0.0744,1.112306 -0.05912,1.605492 1.59118,3.305431 3.909273,-1.148547 3.469504,-0.05344 l 0,0 z M 64.076297,0.03473048 c -0.249945,-0.05344 -0.579049,-0.04392 -0.932962,0.02288 -1.109451,0.207008 -29.808,17.81592552 -31.049082,19.25829652 -2.336221,2.713974 -3.61928,5.954533 -2.275165,9.321972 0.665849,1.667499 3.904504,4.503585 5.302987,3.528655 0.529441,-0.369184 0.87573,-3.256775 0.481753,-4.019936 -0.380633,-0.739314 -1.074154,-1.186715 -1.867836,-1.60454 -2.805558,-1.474811 -2.087236,-3.079342 0.904338,-5.463259 3.337871,-2.660558 15.571289,-10.326486 18.192743,-11.3996725 0.478873,-0.19556 0.91769,-0.354872 1.090354,-0.1698 0.797506,0.8604575 -2.686318,7.0239105 0.09444,5.1226985 0.337697,-0.230865 0.652506,-0.580961 0.924378,-0.980666 1.116115,-1.64174 1.512963,-4.1200965 2.837038,-5.5882195 1.074147,-1.190523 2.757862,-1.7171 3.961745,-2.71207 0.532305,-0.440721 3.261551,-5.12079502 2.335269,-5.31635502 l 0,0 z M 43.595997,41.758483 c 0,0 1.046474,-0.96729 1.649372,-1.828716 0.482697,-0.688746 0.482697,-3.751872 0,-6.237861 -0.510362,-2.630982 -1.021675,-6.539302 -1.021675,-6.539302 0,0 2.937199,-0.246121 4.380522,-1.111355 0.795593,-0.476969 2.221748,-4.543657 1.944148,-5.721772 -0.386345,-1.640795 -3.170919,-2.554677 -4.020889,-1.764812 -0.722137,0.672538 -0.885266,2.437341 -1.763851,3.696552 -0.438809,0.629602 -1.056019,1.132331 -1.536804,1.715196 -1.525363,1.849708 -1.639835,4.141089 -1.355563,6.833126 0.427369,4.044737 1.72474,10.958944 1.72474,10.958944 l 0,0 z m 2.551805,-41.75808851978 -1.825859,0 c -0.821338,0 -0.968258,0.0180799998 -1.472892,0.18028799978 -0.94345,0.302409 -1.781011,1.10467402 -2.244636,1.74763602 -1.083691,1.503427 -2.672966,4.716322 -2.672966,4.716322 0,0 -1.332659,-0.540897 -1.90694,-1.099907 -0.440721,-0.429273 -0.435945,-0.870002 -0.719274,-1.232506 -0.939634,-1.202923 -3.925488,-1.59118 -4.747794,-1.419467 -2.000436,0.417825 -2.382005,1.987068 -2.728294,4.049504 -0.347232,2.065301 -0.241352,3.6574315 2.506982,3.6641115 1.634107,0.004 3.335943,-1.0941775 4.406273,-0.482697 1.152379,0.659186 1.572108,3.303527 3.045959,3.856817 0.452177,0.1698 1.003554,0.143088 1.505331,0.08585 0.676345,-0.07728 0.766018,-0.229897 0.902434,-1.52822 0.154536,-1.472899 0.253752,-3.6383585 0.890034,-4.3423765 0.722137,-0.79845 2.144468,-0.761242 3.13371,-1.446179 1.195299,-0.828026 1.848756,-2.57375 1.927932,-4.434906 0.04296,-0.998778 0,-2.31426801978 0,-2.31426801978 l 0,0 z M 13.428365,6.4538395 l 0,0.489385 -6.2664778,8.9661475 0,0.482705 c 0,0 0.6162493,0.05536 1.1561866,0 C 10.675271,16.14786 15.496529,6.8115685 15.838994,5.6315505 16.847308,2.1572705 16.13281,1.0516445 12.534515,0.10437048 9.8749091,-0.59582352 5.6317559,2.3413755 5.2330031,5.4579255 c -0.04008,0.312897 -0.05824,0.659178 -0.06296,0.996874 -0.0276,1.772436 0.3958888,2.388686 2.5766135,1.580684 1.0464823,-0.386345 2.9085824,-1.413747 3.2100384,-2.508878 0.0468,-0.168848 0.09252,-0.210824 0.364401,-0.22036 0.542793,-0.01808 2.107269,0.915794 2.107269,1.147594 l 0,0 z m 1.928884,37.6513605 -2.791246,0 c -1.254451,0 -1.458595,-0.02576 -2.043365,-0.251841 -3.2300625,-1.24681 -1.7686193,-3.919768 -0.9510736,-6.738686 0.085848,-0.293817 0.1354483,-0.569505 0,-0.72309 -0.5132331,-0.584777 -1.3784669,0.07728 -1.6865876,0.481745 -2.0929565,2.746414 -3.4389834,8.750555 -0.7230896,10.847336 1.6159875,1.247762 3.2644068,1.530131 5.3526038,1.198154 1.242034,-0.197464 1.432819,-0.317657 1.905028,-1.197202 0.350097,-0.652506 0.530393,-1.184803 0.699241,-2.098685 0.122113,-0.659177 0.238489,-1.517731 0.238489,-1.517731 l 0,0 z"
     style="fill:#000000;stroke:none" />
</svg>
