<?xml version="1.0" encoding="UTF-8" standalone="yes"?>
<!-- Created with sK1/UniConvertor (http://sk1project.org/) -->
<svg xmlns="http://www.w3.org/2000/svg" xmlns:xlink="http://www.w3.org/1999/xlink"
  width="595.276pt" height="841.89pt" viewBox="0 0 595.276 841.89"
  fill-rule="evenodd">
  <path
     d="m 45.27272,6.7494332 c 0,0 -0.8008,-1.1888 -1.2968,-2.1264 -1.1784,-2.228801 -1.0304,-3.021601 -2.827201,-3.69440103 -2.747201,-1.028801 -4.240001,0.38560003 -4.415201,3.28720103 -0.1216,2.008 0.3704,3.667201 2.207201,3.372 0.972,-0.156 2.82,-0.9168 2.82,-0.9168 0,0 0.989601,1.168801 1.515201,2.026401 0.7984,1.3024 0.8264,2.3247998 2.42,2.6559998 0.3248,0.0672 0.473601,0.008 0.640001,-0.248 0.6808,-1.0472 0.2368,-3.2543998 0.9936,-4.0416008 0.6424,-0.668 2.1512,-0.312 3.108801,-0.6192 1.3056,-0.4192 1.8688,-4.232001 0.9752,-5.66400103 -1.2688,-2.03280097 -4.085601,0.35200003 -4.900001,2.06640003 -0.664001,1.396801 -1.240801,3.902401 -1.240801,3.902401 z M 19.200713,37.801442 15.690312,41.459843 c -0.5832,0.608 -0.6656,0.7176 -0.8288,1.092 -0.2288,0.524 -0.308,1.4016 -0.1952,1.52 0.3632,0.3856 1.6488,-0.5496 2.096001,-0.8952 3.917601,-3.032801 5.702401,-4.942401 6.336001,-8.868802 0.3216,-1.996001 -0.6856,-2.768001 -2.4672,-3.023201 -2.826401,-0.4032 -5.631202,0.0096 -6.729602,2.2432 0.1712,8.527203 0.4128,3.651201 2.809601,3.045601 2.6672,-0.6736 5.534401,-2.1696 2.4896,1.228001 z M 41.363119,67.96465 c -2.1384,1.096 -5.445601,3.348801 -8.388802,4.732801 -2.332001,1.096 -2.721601,1.1432 -3.311201,3.953601 -0.2424,1.152001 -0.0568,1.353601 0.7296,1.164001 1.219201,-0.292801 8.215202,-4.270402 9.551203,-5.429602 1.1248,-0.9768 1.6256,-1.8392 2.2472,-3.458401 0.174401,-0.452 0.303201,-0.8376 0.0544,-0.9856 -0.208,-0.124 -0.6824,-0.08 -0.8824,0.0232 z M 54.206323,55.057446 c 2.5536,-1.0064 6.234401,-3.608801 7.052802,-5.797601 0.5032,-1.346401 0.8888,-3.098401 1.2288,-4.718402 0.26,-1.2384 0.2528,-1.5056 -0.4624,-1.2888 -2.277601,0.6896 -6.324002,3.728801 -9.183203,5.216802 -1.7912,0.9312 -5.433601,1.3592 -7.947202,0.436 -0.464,-0.1704 -0.984,-0.46 -1.5056,-0.816001 -4.252001,-2.9016 -4.941602,-4.754401 -0.9888,-6.972801 0.1752,-0.0984 0.3456,-0.189601 0.5072,-0.269601 1.2112,-0.5976 3.149601,-0.8248 4.592001,-0.6968 2.554401,0.2264 3.912001,1.205601 6.004802,0.0776 1.268,-0.6832 0.5208,-1.5704 -0.660801,-3.146401 -2.5712,-3.4304 -6.188801,-3.994401 -9.466402,-2.2648 -7.000802,5.243201 -5.262402,9.412002 -5.641602,11.754403 -0.2712,0.7248 -0.5048,1.276 -0.5048,1.276 0,0 -0.164,-0.188 -0.3904,-0.4616 -2.328001,-2.813601 -4.468801,-29.171208 -4.767201,-32.676009 -0.0608,-0.7072 -0.0968,-1.1816 -0.1024,-1.3616 -0.228,-6.7632018 -0.3216,-13.33440383 -0.3216,-13.33440383 0,0 -0.442401,-0.04 -0.737601,0.0192 -0.68,0.1368 -1.616,2.64080103 -1.9272,3.32720103 -0.176,0.388 -0.34,0.7672 -0.4152,1.179201 -0.1016,0.556 -0.1072,0.7216 -0.06,1.6576 0.392,7.7288018 0.7672,18.6584048 1.3744,23.1696058 0.5824,4.329602 1.637601,10.020803 1.896001,14.672004 0.0496,0.891201 0.0904,1.841601 0.0904,1.841601 0,0 -2.328801,0.0136 -4.770402,0.0776 -5.380801,0.1392 -11.594403,0.9944 -14.716804,6.592002 -0.4352,0.78 -0.7504,1.7072 -1.0432,2.9672 -0.8408,3.617601 -0.3088,4.950402 2.428001,5.771202 0.7536,0.2256 1.8224,0.404 2.807201,0.5008 1.8848,0.3144 13.472803,-0.9816 6.115201,2.559201 -0.792,0.3808 -1.6584,0.7256 -2.544801,1.024 C 7.1767103,69.73905 1.0175086,61.272648 3.2551092,48.399845 c 0.2048001,-1.177601 0.4264001,-2.200801 0.4264001,-2.200801 0,0 -0.2672001,0.1992 -0.5976001,0.476 -2.51280069,2.101601 -2.99760082,7.948002 -3.06640084,10.882403 -0.06880002,2.916001 0.03840001,5.311201 0.80960018,7.736802 1.60240046,5.039201 6.15440166,7.235202 10.88240246,7.382402 7.258402,0.2256 19.372005,-4.824801 16.608805,-15.359204 -0.0448,-0.1712 -0.1104,-0.348 -0.2008,-0.5312 -0.312,-0.6344 -0.956801,-1.160801 -1.545601,-1.387201 -1.7832,-0.6856 -10.577603,-0.504 -10.577603,-0.504 0,0 1.004801,-0.8632 1.748001,-1.3544 2.779201,-1.838401 10.058403,-1.5104 12.291203,-1.589601 0.528,-0.0192 0.936,-0.0592 1.395201,-0.6536 0.584,-0.756 1.2504,-2.4088 1.2504,-2.4088 0,0 0.2112,0.6424 0.4832,1.404 1.18,3.303201 3.054401,5.451202 5.740002,6.172002 5.211201,1.3992 11.238403,0.1952 15.304004,-1.407201 z m -12.181604,-25.613607 0,-2.0616 c 0,-0.9264 -0.0296,-1.0664 -0.2976,-1.403201 -0.1984,-0.2496 -0.3976,-0.4072 -0.7072,-0.6256 -0.5208,-0.3664 -1.352,-0.904 -1.352,-0.904 0,0 0.4544,-1.1008 0.9352,-2.011201 1.2648,-2.396 10.455203,-9.172002 12.508003,-10.656802 0.923201,-0.667201 1.829601,-1.308001 2.711201,-1.9208008 0.636,-0.4424 1.2592,-0.8696 1.434401,-0.732 0.1232,0.096 0.0272,0.4696 -0.0976,0.9679998 -0.298401,1.1864 -1.034401,3.793601 -0.784801,4.151201 0.168,0.2408 0.6672,0.2568 0.957601,-0.024 0.32,-0.3096 0.3856,-0.9768 0.5704,-1.6 0.624,-2.109601 3.876801,-6.1624018 5.315201,-6.7760018 0.6848,-0.292 1.364001,-0.284 1.862401,-0.6792 0.792,-0.6296 1.2856,-2.671201 1.3752,-4.095201 0.132,-2.100801 -1.6504,-0.72480103 -4.164001,0.7856 -1.655201,0.9944 -3.512801,2.1336 -5.456802,3.382401 -4.771201,3.064801 -16.778404,11.1272028 -19.132005,16.9552038 -0.7944,1.967201 -0.7264,4.002401 1.264001,5.722402 0.3608,0.3112 0.8024,0.6848 1.336,1.1696 0.1824,0.1648 0.3296,0.3288 0.6632,0.3824 0.3976,0.064 1.0592,-0.0272 1.0592,-0.0272 z"
     style="fill:#000000;stroke:none" />
</svg>