<?xml version="1.0" encoding="UTF-8" standalone="no"?>
<svg>
  <path
     d="m 45.993499,13.001474 c 0,0 -0.27425,0.03 -0.48,0 -0.34463,-0.0513 -0.49663,-0.2725 -0.65613,-0.50625 -0.66213,-0.975 -2.18075,-5.15 -4.42513,-6.86875 -2.714,-2.07625 -6.791628,1.70625 -7.224004,4.38125 -0.6085,3.765 4.633129,6.28626 6.951754,4.70001 1.39075,-1.65626 2.643,-0.1725 3.66488,1.52375 0.7075,1.175 2.253,3.86125 4.17813,3.87625 3.02437,0.025 2.58812,-2.63125 2.14562,-4.44125 -1.00875,-4.11876 -3.25812,-6.58501 1.88875,-6.30876 0.60376,0.0325 0.77126,-10e-4 1.23376,-0.18375 0.52875,-0.20875 1.7775,-1.1625 1.8725,-1.2725 0.8775,-1.02 0.99375,-5.39625 0.75,-6.10125 -0.24375,-0.70625 -0.77375,-1.16500002 -1.44125,-1.40750002 -7.16076,-2.59500998 -8.45888,8.39250002 -8.45888,11.79875002 0,0.58625 0,0.81 0,0.81 z m 24.10264,2.65001 c -0.98,1.49 -1.88875,2.9475 -2.12125,3.68375 -0.0537,0.17 -0.6475,2.69625 -0.45,3 0.50625,0.7825 2.185,-1.48625 2.6125,-2.05375 0.26125,-0.3475 0.51375,-0.66125 0.7525,-1.00875 0.24,-0.3525 0.46625,-0.74 0.68125,-1.1475 2.56625,-4.83751 3.86625,-7.63126 9.32626,-9.78501 2.395,-0.945 6.085,-1.7375 7.2475,-3.32 0.89,-1.2125 1.9325,-2.85625 2.0775,-3.60375 0.0625,-0.325 0.1025,-0.68125002 0.1025,-0.68125002 l -0.3,0 c 0,0 0.0662,-0.4025 0,-0.60001 -0.0913,-0.2675 -0.57,-0.09 -1.0575,0.1275 C 75.819889,6.132724 32.858485,22.120234 24.520854,35.991494 c -0.27975,0.465 -0.50275,0.91875 -0.6465,1.34375 -1.128126,3.33625 -0.506626,5.12376 2.305001,6.95376 1.349501,0.8775 2.424877,1.75625 3.095002,0.54625 0.0075,-0.0125 0.916626,-3.03125 0.750001,-3.72001 -0.12475,-0.515 -0.876126,-1.0375 -1.573501,-1.41125 -0.994001,-0.53375 -1.442251,-0.735 -1.126501,-1.57 0.0825,-0.21875 0.28525,-0.4925 0.56025,-0.78875 6.48813,-6.97875 25.896523,-17.07501 37.255273,-22.45126 5.25376,-2.48626 8.67126,-4.88126 4.95626,0.7575 z m 55.538791,7.03875 -6.10126,6.06126 c -1.01375,1.0075 -1.15875,1.18875 -1.4425,1.80875 -0.3975,0.86875 -0.53375,2.32125 -0.33875,2.51875 0.63125,0.6375 2.86625,-0.91125 3.64376,-1.48375 6.81125,-5.02376 9.91375,-8.18751 11.015,-14.69251 0.56,-3.30626 -1.19,-4.58501 -4.2875,-5.00751 -4.915,-0.66875 -9.79126,0.0163 -11.70126,3.71626 0.29875,14.12626 0.7175,6.0475 4.88501,5.045 4.63625,-1.11625 9.62125,-3.59375 4.3275,2.03375 z m -57.202541,3.665 -6.36376,6.36376 6.36376,6.36375 6.365,-6.36375 -6.365,-6.36376 z m 43.093781,55.79504 -5.40126,0.6 c 0,0 -0.40375,-1.92125 -0.3,-2.8025 0.1025,-0.87 1.59375,-1.1475 2.90501,-0.7975 0.68375,0.1825 2.65125,1.2825 2.79625,2.28 0.0475,0.33125 0,0.72 0,0.72 z m -32.280031,10.21376 c 0.80376,-0.41125 1.50751,-0.9325 2.03751,-1.5875 0.1375,-0.17 0.2625,-0.3475 0.3925,-0.52625 1.3325,-1.8325 6.5175,-6.88 8.945,-7.50001 2.41875,-0.6175 3.34501,0.72001 4.30626,2.57751 1.7125,3.3075 4.31625,2.49125 7.921251,2.43375 4.34875,-0.0712 8.50626,-0.385 10.32626,-2.31125 1.6225,-1.71625 2.6925,-3.43251 2.57875,-4.87501 -0.41,-5.1825 -5.9875,-8.3575 -9.53251,-4.81875 -1.28,1.2775 -2.4175,2.865 -2.79625,3.84375 -0.46875,1.215 -0.26875,2.36 -1.02625,3.0225 -0.4075,0.35625 -2.816251,0.67001 -3.275001,0.4275 -0.72625,-0.38375 -0.56125,-1.3025 -1.5475,-3 -1.48,-2.54625 -4.75001,-2.97375 -7.05001,-1.65 -4.52625,2.60375 -4.2375,3.305 -6.90125,6.30001 -1.97,2.2175 -3.245,2.82 -5.99876,3.6 -0.58125,0.16375 -1.18375,0.34875 -1.79875,0.39 -0.81125,0.0537 -0.99125,0.06 -1.8025,0.0575 -3.03875,-0.009 -7.55875,0.0537 -9.10751,-0.2975 -1.40375,-0.3175 -4.76875,-1.33625 -5.5925,0.1975 -0.89625,1.675 0.16125,2.31375 1.41625,3.01375 8.20126,4.57375 18.39626,0.75875 18.50501,0.7025 z m 7.44376,-35.36252 c 0,0 -2.2875,0.5 -3.965,0.7925 -3.67251,0.64125 -8.31751,0.6425 -12.17876,0.15 -2.57875,-0.3275 -5.84501,-0.92625 -5.84501,-0.92625 0,0 2.60626,-2.93501 4.22376,-4.47376 1.80375,-1.71375 3.8575,-2.7575 5.83375,-3.42375 0.9375,-0.31625 4.91625,-0.38375 5.64251,-0.0962 2.035,0.80625 3.9125,2.2925 4.875,4.42 0.55625,1.23375 1.41375,3.55751 1.41375,3.55751 z m 46.687531,6.64 c 0.0675,-0.0425 0.135,-0.085 0.20375,-0.12625 2.67126,-1.64 6.43501,-3.79 9.51876,-1.58375 0.715,0.51125 1.36,1.255 1.92625,2.275 0.25875,0.46875 0.4825,0.755 0.68625,0.895 -0.49,-0.3375 5.28501,-6.31625 5.48251,-6.83125 0.48,-1.25 -5.21626,-7.70626 -5.53126,-8.45126 -0.31875,-0.75375 -0.50375,-1.80625 -0.58125,-3.67125 -0.3875,-9.36501 -0.32375,-32.39628 -0.24625,-33.60628 0.045,-0.72125 0.0813,-1.16875 0.0813,-1.16875 0,0 2.08375,1.14625 3.075,1.3925 0.40375,0.1 0.62625,0.0513 0.87625,0.055 0.53251,0.01 7.18876,4.72376 9.19751,6.51376 6.03251,5.3775 10.06126,9.81376 11.95876,17.70626 0.36375,1.5125 0.5075,3.1125 0.3,4.52375 -0.4675,3.18876 -1.9425,8.46251 -1.49875,8.88001 1.1925,1.1275 4.62125,-5.9975 5.24875,-7.5 5.05126,-12.07501 -0.79625,-22.68627 -11.65001,-31.53003 -4.52375,-3.685 -10.5125,-7.11875 -15.54251,-10.21625 -4.04375,-2.48876 -4.185,-1.01751002 -6.63375,3.675 -0.24875,0.475 -0.50625,0.91125 -0.63375,1.41375 -0.17,0.67875 -0.1875,0.84375 -0.17625,1.65375 0.0137,1.035 0.0288,2.14125 0.0425,3.29 0.0438,3.45001 0.26625,40.48503 -0.6875,43.62628 -0.44,0.47625 -1.0175,0.94876 -1.7675,1.43751 -3.71376,2.41875 -6.73126,2.01875 -10.80001,0.6 -0.40125,-0.13875 -0.77,-0.2625 -1.05,-0.75 -0.0787,-0.135 -0.15125,-0.3 -0.15125,-0.3 l 7.0025,0.3 c 0,0 0.6625,-2.26251 1.8475,-4.20001 1.16625,-1.9025 2.83751,-3.49125 2.83751,-3.49125 0,0 -3.42251,-1.1 -6.03626,-2.13625 -6.45875,-2.56 -11.55876,-9.82001 -18.76876,-10.01751 -0.5125,-0.0137 -0.9875,0 -1.4025,0.045 -1.865,0.20625 -4.39251,0.98 -5.28001,1.95 -0.2825,0.31125 -0.70625,1.0525 -1.11875,1.92875 -0.56125,1.19125 -2.71375,6.23376 -0.0725,5.83251 5.27501,-0.8025 9.50751,-1.87 13.65001,2.23 0.66625,0.65875 0.9325,1.19 0.60875,1.5925 -0.21625,0.27 -0.66125,0.5825 -1.20625,0.91875 -10.44001,6.44876 -16.75126,7.98751 -22.777511,6.23751 -0.87501,-0.13875 -1.57001,-0.33 -1.98251,-0.59 -0.5675,-0.35625 -0.47625,-1.07376 -0.2525,-2.13876 0.66625,-3.1775 -2.36375,-10.83125 -5.58125,-12.085 -10.00501,-3.89876 -17.21001,3.745 -22.18752,12.03875 -0.025,0.0412 -0.0487,0.0825 -0.0737,0.12375 -2.8625,4.82501 -7.3475,-4.32125 -7.51625,-6.7425 -0.008,-0.1025 -0.0125,-0.205 -0.015,-0.3075 -0.0525,-1.97 0.1925,-3.98 -1.94,-3.395 -2.98001,0.81625 -10.87139,3.32875 -13.10251,5.58 -6.274257,6.33376 -1.5245,17.45751 3.16062,22.77127 0.78088,0.885 1.37026,1.46375 0.89113,2.65 -0.0802,0.19875 -0.19512,0.40375 -0.33712,0.61125 -5.72388,8.38376 -35.7615309,20.00126 -44.0795369,23.78752 -0.33537495,0.1525 -0.59912495,0.30375 -0.76699995,0.45625 -0.594126,0.542496 -0.718376,0.991246 -0.197751,1.561246 0.331626,0.3625 0.73437595,0.56625 1.18537595,0.65625 8.8942569,1.7575 27.2863949,-5.703756 34.3857749,-10.278756 12.325007,-7.94 19.931017,-19.62876 9.899637,-34.05502 -0.76376,-1.47 -1.36001,-2.63626 -1.36001,-2.63626 0,0 0.57738,-0.32875 1.39501,-0.73375 1.57212,-0.7775 3.21387,-1.5075 5.00012,-1.53375 0.46,-0.007 0.8575,0.0175 1.10875,0.04 0.35001,0.0312 0.84501,3.85251 0.90501,4.21626 0.11375,0.7 0.22875,1.35 0.3275,1.81375 0.0812,0.37625 0.15125,0.63 0.30125,0.9 0.76375,1.3825 3.595,3.16375 4.05,4.39875 0.13,0.355 0.0638,0.665 -0.0937,1.0675 -0.59,1.50125 -2.455,4.29376 -3.10125,6.21876 -0.26,0.7775 -0.6625,2.6925 -0.40625,3.015 0.3925,0.4925 1.55125,-0.98 2.17125,-1.855 0.98875,-1.39625 1.9525,-2.915 2.47875,-4.44501 0.55125,-1.59625 0.54125,-2.31875 1.54875,-2.7 0.6075,-0.22875 5.50875,0.6 8.80126,1.05 2.72,0.3725 10.73625,0.0188 13.80001,-1.2 0.33875,-0.13375 0.69375,-0.2825 1.04625,-0.43125 l 2.74375,-1.14875 2.0975,1.38875 c 4.33625,2.33375 16.078761,0.49625 19.845021,-1.89125 2.8525,-1.80875 5.5575,-4.1625 8.62875,-5.62 0.785,-0.3725 1.33875,-0.6275 1.33875,-0.6275 l 0,3.7825 c 0,0.81 0.0237,0.9575 0.23625,1.4725 0.59625,1.45375 1.8325,2.44625 2.76501,2.775 0.71875,0.255 1.395,0.4525 2.42125,0.5725 0.0513,0.006 0.10375,0.0125 0.1575,0.0175 7.25625,0.76875 12.90501,-4.17 9.3725,-1.9425 z M 81.603649,21.792734 c -0.6875,1.9725 -0.75,4.62625 -0.0125,6.1075 0.465,0.93501 2.75,3.82501 3.14,4.04626 0.63625,0.36 1.0875,0.25625 1.42,-0.12875 2.01875,-2.33375 0.86375,-4.68376 -0.68,-6.28376 -0.10375,-0.10625 -0.19875,-0.2175 -0.28,-0.33375 -0.055,-0.0775 -0.105,-0.15625 -0.15125,-0.23625 -2.2525,-3.9675 23.647521,-13.54001 25.417521,-14.08126 0.54125,-0.16625 1.02375,-0.295 1.43375,-0.3825 0.5225,-0.11125 0.645,-0.0188 0.37125,0.68875 -0.26625,0.69 -0.74125,1.33375 -1.19125,2.0575 -1.45625,2.34376 -1.45875,2.80876 -1.73,4.45376 -0.0625,0.37625 -0.15375,0.845 0,0.9 0.0787,0.0288 0.2225,-0.0525 0.3,0 0.05,0.035 0.0713,0.12875 0.11625,0.18375 0.0987,0.12375 0.31,0.06 0.505,-0.0337 0.385,-0.1875 1.31,-1.83 2.1875,-3.3975 2.14125,-3.82751 7.54375,-9.01126 12.35626,-9.25751 0.13375,-0.006 0.27125,-0.004 0.41875,0.0112 1.30125,0.14125 1.54125,0.475 1.96625,-0.10625 0.975,-1.33375 3.035,-6.00001001743 3.035,-6.00001001743 0,0 -1.69875,0.0574999974 -3.35125,0.17624999743 -0.14,0.01 -0.76125,0.20751 -1.735,0.54376 C 114.17367,4.506474 83.988649,14.942734 81.603649,21.792734 z"
     style="fill:#000000;stroke:none" />
</svg>
