<?xml version="1.0" encoding="UTF-8" standalone="yes"?>
<!-- Created with sK1/UniConvertor (http://sk1project.org/) -->
<svg xmlns="http://www.w3.org/2000/svg" xmlns:xlink="http://www.w3.org/1999/xlink"
  width="595.276pt" height="841.89pt" viewBox="0 0 595.276 841.89"
  fill-rule="evenodd">
  <path
     style="fill:#000000;stroke:none"
     d="m 27.457554,8.0196349 -4.439701,4.4096761 c -0.737615,0.733611 -0.842703,0.864721 -1.048874,1.316097 -0.289242,0.632527 -0.389325,1.689408 -0.247207,1.832528 0.459383,0.464387 2.085739,-0.662553 2.65121,-1.079901 4.956132,-3.654046 7.213021,-5.9559641 8.014689,-10.6889101 0.40734,-2.406005 -0.866722,-3.336781 -3.120609,-3.643036 -3.57498,-0.487407 -7.123938,0.01101 -8.512095,2.703253 0.21618,10.2775671 0.521434,4.399667 3.553962,3.670059 3.372812,-0.811676 6.999843,-2.614179 3.148625,1.480234 z M 62.955152,57.214645 C 62.828046,57.168605 61.601023,56.725237 61.601023,56.725237 59.583341,55.996629 56.418703,53.863852 56.2946,53.708722 55.273749,52.433659 54.92746,47.045168 54.042723,42.89771 53.656401,41.0872 53.078919,38.73524 51.778835,39.578943 c -1.890575,1.225021 -1.479233,2.7593 -3.630025,2.734279 -0.508424,-0.006 -4.025356,-1.659383 -4.769977,-1.167973 -0.457381,0.302252 -1.487239,3.909259 -1.603336,4.372646 -1.170976,4.645872 0.701585,5.439534 2.445038,10.007341 0.770642,2.019684 -0.337281,2.683237 -3.321769,4.897083 -1.884571,1.398165 -3.509926,2.818349 -5.257382,4.161469 -2.521102,1.939616 -17.48058,11.709761 -21.466903,13.143957 -1.240033,0.445371 -2.452044,0.716597 -3.890243,1.050876 -0.275229,0.06305 -0.5934945,0.152127 -0.9417848,0.259216 -16.644875,5.123269 -7.0248559,4.933109 -1.7694752,4.414679 15.388828,-1.51927 15.626026,-1.65238 28.107438,-11.502587 0.848708,-0.669559 1.721435,-1.358133 2.625188,-2.062721 3.527941,-2.752294 6.45338,-6.001002 7.717434,-10.946124 0.733611,-2.866389 0.775646,-6.992829 1.942619,-8.866391 1.109925,-1.782486 3.096581,-3.632028 3.096581,-3.632028 0,0 1.217015,3.181653 1.884571,5.655715 1.458216,5.403504 0.28824,8.487075 3.352795,10.642872 1.975647,1.390158 3.846206,2.69925 5.2784,2.500084 1.522269,-0.212177 3.857215,-1.82252 5.552628,-2.392995 0.477398,-0.161134 0.904755,-0.2392 1.369142,-0.235196 1.821518,0.01401 4.22352,1.281068 5.91493,1.314095 3.149626,0.06205 4.828025,-4.945122 6.571477,-9.200669 0.526438,-1.284071 0.873728,-2.095747 0.522435,-3.120602 -0.451376,-1.315096 -1.997664,-3.04754 -1.795495,-4.073395 0.193161,-0.974813 1.222017,-1.492244 0.178148,-2.224855 -1.030859,-0.724604 -1.595329,-0.809675 -2.629191,-0.657548 -1.906589,0.280234 -4.733946,1.366139 -6.509426,2.524104 -0.116097,0.07606 -0.234196,0.15513 -0.352294,0.235196 -2.85538,1.932611 -4.911094,4.873062 -6.122103,7.039869 l -1.323103,2.765305 z m 13.869561,-3.141619 0,1.530276 c 0,0 -1.427189,0.09208 -2.454045,0 -1.378149,-0.125105 -4.012345,-0.9588 -3.241703,-1.927607 0.117098,-0.148124 0.476398,-0.328274 0.928775,-0.502419 1.135947,-0.437365 3.727106,-0.951793 4.066389,-0.933778 0.969809,0.05304 0.700584,2.196831 0.700584,1.833528 z m -25.470231,20.738288 4.25955,4.25955 5.257383,-5.257382 -5.257383,-5.257383 -4.25955,4.259551 -4.259551,-4.259551 -5.257382,5.257383 5.257382,5.257382 4.259551,-4.25955 z M 29.363142,48.520397 c 2.391001,2.099751 5.865898,3.193663 7.235039,1.142953 0.888741,-1.330109 2.334947,-4.104421 2.334947,-4.104421 0,0 -1.470226,-2.220852 -2.697249,-3.175648 -0.823686,-0.641535 -2.397999,-0.909759 -3.327774,-0.405338 -0.820684,0.446372 -1.779483,1.736448 -2.298916,1.208007 -0.631527,-0.640534 1.426189,-4.838033 1.554295,-5.198333 1.573312,-4.405673 1.489242,-7.157967 0.281235,-10.817017 -0.37131,-1.125939 -0.782652,-2.269892 -1.357131,-2.717265 l -0.665555,-0.517432 -0.696581,0.74362 c -1.085913,1.158966 -0.87874,4.193496 -0.523444,5.438534 0.331276,1.165972 0.91377,2.322936 1.241042,3.57498 0.389325,1.48824 0.200167,4.964138 -0.356297,6.531444 -0.765646,2.1588 -2.180826,4.138451 -1.869566,6.495416 0.107089,0.807673 0.221184,0.987823 1.145955,1.8005 z m 11.577659,-37.390169 6.326274,-0.893745 c 0,0 1.670392,3.123604 2.921435,4.146456 0.218182,0.178149 1.606339,0.809675 2.432027,0.828691 0.400334,0.009 0.953795,-0.05004 0.953795,-0.05004 l 0.151126,-6.2191841 2.441035,-0.128106 c 1.096914,-0.05705 1.273061,-0.08407 1.76347,-0.270226 1.965638,-0.746622 2.191827,-3.067557 2.176815,-5.477566 -0.008,-1.317098 -0.160134,-3.049542 -0.160134,-3.049542 0,0 -1.625355,-0.08807 -2.706256,0.142119 -1.273061,0.270225 -3.858216,2.708257 -4.265556,3.567974 -0.07807,0.164137 -0.143119,0.340284 -0.198165,0.524437 -0.463386,1.558299 -0.188157,8.9964991 -2.613178,2.791327 -1.082903,-2.77131 -2.215847,-4.467724 -4.912095,-4.82202 -2.06372,-0.272227 -4.178483,1.491243 -4.597832,3.422854 -0.434362,1.998666 0.287239,5.4865731 0.287239,5.4865731 z m 25.769481,-0.09908 c 1.626356,-0.81568 3.045539,-1.4351961 4.144455,-1.7714761 0.04203,-0.01301 0.07702,-0.01601 0.106088,-0.009 0.169141,0.04203 0.111093,0.449375 -0.111092,1.0859051 -0.565472,1.615347 -1.94262,4.221519 -1.495247,4.730944 0.140117,0.159133 0.45538,0.117098 0.762636,-0.04003 1.610342,-0.818683 3.284738,-5.6216861 5.533613,-7.4562161 1.192994,-0.973811 2.595163,-1.134946 3.975313,-1.641368 2.107756,-0.772644 3.823186,-1.890576 3.829191,-4.404672 0.0016,-0.683569 -0.07903,-1.525271004905 -0.07903,-1.525271004905 0,0 -1.494246,0.0130100049 -2.668224,0.140117004905 -1.36914,0.148123 -4.162468,1.269058 -6.922769,2.50709 -11.656717,5.228358 -16.850046,7.9386171 -26.228864,16.4657261 -2.025689,1.842536 -3.497916,3.548958 -4.088408,4.973146 -1.504254,3.633028 -0.952795,7.407174 1.6794,10.68891 0.808674,1.00784 0.93678,1.122936 1.281067,1.143953 0.256214,0.01601 0.532444,0.03203 0.760635,-0.08407 0.465387,-0.234195 0.283236,-3.70709 -0.233195,-4.449709 -0.860717,-1.23603 -2.394996,-2.296915 -2.394996,-2.296915 0,0 0.81568,-1.342119 1.87156,-2.86739 2.631193,-3.801169 16.343624,-13.215017 20.277903,-15.189663 z M 62.562825,48.60347 c 0,0 0.49241,-1.135947 0.790659,-2.034696 0.502419,-1.517265 0.421351,-2.61418 0.223186,-4.184489 -0.552461,-4.37865 -1.40317,-14.29892 -1.40317,-14.29892 0,0 1.525272,-0.171142 2.690243,-0.141117 3.151627,0.08307 4.069392,1.567306 5.727774,-0.08908 1.0789,-1.078899 2.044705,-4.899083 1.354129,-6.326273 -0.789658,-1.63136 -3.463887,-2.417015 -4.692912,-1.085905 -0.567473,0.614512 -0.890742,1.58332 -1.539283,2.221852 -1.004837,0.988824 -2.789325,1.183987 -3.674063,2.007673 -1.514262,1.412178 -1.717431,11.274399 -1.438198,13.610346 0.470392,3.941285 1.961635,10.320604 1.961635,10.320604 z m 24.625526,-36.50243 0.466388,8.222855 2.195831,40.181496 c 0,0 1.489241,-1.493245 2.382986,-2.852378 1.266056,-1.927607 1.332111,-3.584988 1.713428,-5.43453 0.29925,-1.45121 0.318266,-1.774479 0.195163,-3.240701 L 91.738143,20.309881 91.510954,15.443824 c 0.238198,0.13111 0.466389,0.249208 0.680567,0.355297 l 3.698083,1.830526 -0.705588,-1.945622 c -0.08107,-0.221185 -0.165138,-0.45438 -0.25121,-0.689576 -1.025855,-2.826356 -1.59533,-5.6216861 -2.277899,-8.5181001 -0.654545,-2.774313 -1.525271,-6.469393 -1.525271,-6.469393 0,0 -0.617515,-0.03303 -1.185989,0.04804 -1.563303,0.224187 -4.901085,5.202336 -5.117265,6.333279 -0.02002,0.107089 -0.03299,0.214179 -0.03699,0.320267 -0.01001,0.234195 0.008,0.4794 0.04804,0.733612 0.285238,1.822519 1.203003,3.3788161 2.35096,4.6588831 z m -5.145289,62.644222 c 0.169141,2.336948 1.26005,3.79116 3.243703,4.21051 2.559134,0.541444 4.00634,-0.846706 4.662887,-3.654046 0.14312,-0.615513 0.111093,-1.128941 -0.285237,-1.377148 -0.753629,-0.470392 -2.824355,0.01802 -3.82619,-0.513428 -1.245038,-0.661552 -1.561301,-3.473897 -1.253044,-4.787992 0.308257,-1.316097 1.093912,-2.725272 1.30809,-3.739117 0.043,-0.205171 0.06309,-0.394329 -0.02602,-0.500417 -0.01201,-0.01301 -0.02306,-0.02602 -0.03403,-0.03703 -3.012511,-0.686577 -3.744121,11.02919 -3.790159,10.398665 z" />
</svg>