<?xml version="1.0" encoding="UTF-8" standalone="yes"?>
<!-- Created with sK1/UniConvertor (http://sk1project.org/) -->
<svg xmlns="http://www.w3.org/2000/svg" xmlns:xlink="http://www.w3.org/1999/xlink"
  width="595.276pt" height="841.89pt" viewBox="0 0 595.276 841.89"
  fill-rule="evenodd">
  <path
     d="m 88.226994,16.943539 -0.146,-3.347 c -0.06,-1.353 -0.04,-1.596 0.195,-2.425 0.174,-0.615 0.358,-1.2870002 0.825,-1.7210002 1.137,-1.056 3.952,-0.691 5.257,-1.561 1.879,-1.252 1.88,-5.554 0.434,-7.29799998 -1.533,-1.84900002 -4.633,1.08699998 -5.903,2.76799998 -0.78,1.032 -1.519,2.215 -1.851,3.595 -0.155,0.64 -0.24,1.366 -0.36,2.002 l -0.59,3.1130002 -1.948,-2.4780002 c -2.666,-3.511 -1.853,-4.555 -5.769998,-5.51 -1.313,-0.319 -4.159,-0.2 -4.706,1.278 -0.428,1.157 0.577,3.969 1.206,4.636 0.484,0.5140002 2.445,1.7880002 3.255,1.8670002 1.323,0.127 4.026998,-0.678 4.026998,-0.678 0,0 2.182,3.141 3.515,4.616 0.581,0.643 1.062,1.162 1.808,1.176 0.308,0.0056 0.752,-0.03304 0.752,-0.03304 z m -67.662999,-6.936 -5.539,5.502 c -0.921,0.915 -1.052,1.079 -1.309,1.642 -0.361,0.789 -0.486,2.107 -0.308,2.286 0.573,0.579 2.602,-0.826 3.308,-1.347 6.183,-4.56 9,-7.432 10,-13.3370002 0.508,-3.001 -1.081,-4.16299998 -3.893,-4.54599998 -4.462,-0.607 -8.889,0.014 -10.622,3.37299998 0.271,12.8240002 0.652,5.491 4.435,4.58 4.208,-1.013 8.734,-3.262 3.928,1.8470002 z m 25.355001,66.785002 5.191,5.191001 6.669,-6.668001 -6.669,-6.669 -5.191,5.192 -5.191001,-5.192 -6.668,6.669 6.668,6.668001 5.191001,-5.191001 z m 31.599,-4.213 5.190998,5.191 6.668,-6.668 -6.668,-6.669001 -5.190998,5.192001 -5.192,-5.192001 -6.668,6.669001 6.668,6.668 5.192,-5.191 z M 24.257995,29.04554 l -6.668,6.668 6.668,6.669 6.669,-6.669 -6.669,-6.668 z m 37.918001,-7.022001 -6.668,6.669001 6.668,6.668 6.669,-6.668 -6.669,-6.669001 z m -2.082,-11.134 c 0.163,2.441 1.209,3.959 3.112,4.397 2.456,0.565 3.844,-0.884 4.473,-3.816 0.138,-0.643 0.108,-1.179 -0.273,-1.437 -0.723,-0.4920002 -2.71,0.01904 -3.67,-0.5370002 -1.195,-0.69 -1.499,-3.627 -1.203,-4.999 0.295,-1.374 1.05,-2.846 1.255,-3.90399998 0.042,-0.215 0.06096,-0.413 -0.02496,-0.523 -0.01104,-0.01296 -0.022,-0.02696 -0.03304,-0.03896 -2.89,-0.717 -3.592,11.51700018 -3.636,10.85800018 z m -18.548001,6.602 -0.454,-9.4230002 c -0.06704,-1.398 -0.093,-1.642 -0.265,-2.433 -0.524,-2.428 -1.937,-3.757 -3.413,-4.615 -1.878,-1.09199998 -3.311,-1.49699998 -5.246,0.03904 -1.591,1.264 -1.741,5.838 -1.115,6.553 0.466,0.534 1.703,0.486 3.2,0.103 3.738,-0.955 4.112,-0.735 5.086,3.5680002 0.463,2.044 0.517,3.959 0.29,6.016 -0.483,4.366 -1.619,6.49 0.606,9.054 0.926,1.066001 1.894,1.228001 4.007,0.754001 1.501001,-0.336 1.799001,-1.095001 2.428001,-3.358001 0.443,-1.592 0.794,-3.019 0.68,-4.606 -0.225,-3.151 -3.355001,-9.073 0.417,-10.5430002 0.697,-0.272 1.601,-0.095 2.382,0.09 1.052,0.25 1.23,0.137 1.785,-1.131 0.455,-1.042 0.983,-2 1.273,-3.122 1.088,-4.20999998 -0.579,-5.39799998 -3.922,-3.67299998 -3.836,1.97799998 -5.559001,10.45300018 -4.740001,16.13400018 0.251,2.342 0.526001,4.451 0.526001,4.451 0,0 -0.229,-0.0032 -0.502001,-0.032 -1.074,-0.115 -2.919,-1.666 -3.023,-3.826 z m -27.337,22.209001 c -1.63,0.11 -4.3572004,1.946 -6.2453022,2.092 -2.3006001,0.178 -6.2882002,-3.523 -5.7652002,-6.274 0.5081,-2.673 4.0028001,-7.756 3.3631001,-8.366 -1.4414,-1.374001 -4.2655001,6.762 -4.56420011,7.843 -1.41829999,5.132 -1.6965,8.196 1.68160001,10.718 2.0879001,1.559 3.0760001,2.072 4.8043001,1.83 4.4727023,-0.626 5.7307023,-1.843 6.7257023,-6.169 0.179,-0.778 0.384,-1.699 0,-1.674 z m 55.706001,14.898 c -1.971,0.381 -2.494,0.355 -3.579,-1.454 -1.05,-1.75 -0.905,-1.846 0.082,-3.6 1.663,-2.955 2.321,-4.075 4.242,-0.582 0.427,0.776 1.808,4.193 1.004,5.014 -0.391,0.398 -1.296,0.534 -1.749,0.622 z m 22.891998,3.244 c 1.851,-3.561 2.773,-7.882 2.115,-10.282 -0.506,-1.844 -1.599,-3.853 -2.162,-5.918 -0.678,-2.488 -1.334,-9.082 -3.315,-7.843 -2.131,1.332 -3.038,7.18 -2.69,8.993 0.608,3.173 3.548,7.783 4.324,10.771 0.497,1.914 -1.169,2.271 -3.844,2.719 -4.163,0.697 -12.010998,0.522 -12.010998,0.522 0,0 0.07896,-0.909 0.268,-1.63 0.417,-1.586 1.369,-2.257 1.654,-3.075 0.69,-1.979 -2.856,-9.73 -3.603,-10.98 -3.029,-5.07 -5.216,-0.34 -8.408,5.751 -0.667,1.274 -1.175,2.286 -1.681,4.183 -0.602,2.252 -1.201,5.751 -1.201,5.751 l -2.82,0 c -1.267,0 -1.51,-0.01304 -2.428,-0.137 -6.567,-0.888 -5.684,-8.875 -6.763,-15.287 -0.309,-1.833 -0.969,-3.491 -2.114,-2.876 -1.134,0.61 -1.42,3.569 -2.451,5.579 -1.511001,2.946 -5.025001,4.42 -7.773001,3.31 -1.91,-0.772 -4.377,-2.753 -4.377,-2.753 0,0 -1.124,3.26 -1.542,5.357 -0.352,1.768 -0.202,2.708 0.185,3.771 1.145,3.148 4.293,8.259 4.139,10.043 -0.152,1.765 -5.378,5.780001 -9.128,7.372001 -7.868,3.34 -17.3176004,0.859 -19.6977023,-7.749001 -0.346,-1.251 -0.3685,-2.424 0,-3.911 0.6263019,-2.527 2.3823019,-5.965 1.9217019,-6.901 -0.176304,-0.359 -0.677504,-0.351 -1.153,0 -2.9055019,2.144 -4.698802,13.757 -4.1317019,17.264001 1.0879,6.729 5.9207023,10.245001 11.8377023,10.970001 6.164,0.755 10.202,-1.151 15.462,-5.096001 1.113,-0.835 2.2,-1.629 2.727,-2.747 0.57,-1.207 0.487,-2.791 0.961,-4.183 0.443,-1.301 1.372,-2.435001 2.106,-3.868001 0.862,-1.681 1.455,-3.774 1.709,-5.478 0.162,-1.089 0.186,-2.019 0.527,-2.717 0.778,-1.594 3.206,-1.977 5.267,-4.668 1.291001,-1.687 2.438001,-4.28 2.438001,-4.28 0,0 0.619,6.087 1.165,9.508 0.808,5.058 2.222,6.867 6.716,7.843 1.614,0.351 3.422,0.356 5.199,0 2.172,-0.435 4.296,-1.409 6.088,-1.255 1.149,0.098 2.162,0.661 3.345,0.947 2.687,0.65 10.842998,-0.79 14.649998,-0.764 0.355,0.0032 0.698,-0.02 1.028,-0.064 3.909,-0.513 6.018,-3.413 7.461,-6.192 z M 115.025,0.00104482 c -0.13723,0.004 -0.29637,0.02775 -0.475,0.05 -0.461,0.05704 -0.652,0.106 -1.85,0.65 -0.551,0.25 -1.134,0.52499998 -1.75,0.79999998 -4.199,1.873 -13.613998,7.672 -17.774998,10.3000002 -5.027552,3.915729 -14.098414,8.45641 -16.35,14.475 -0.8952,2.563 -0.7346,5.455 1.05,7.925 0.0765,0.106 0.1616,0.189 0.225,0.275 0.467682,0.590536 2.130872,2.37648 2,-1.175 -0.0412,-1.117 -0.1581,-2.498 -0.525,-2.85 -0.2127,-0.205 -0.5158,-0.065 -0.7,-0.175 -0.8283,-0.497 0.578599,-2.541 1.25,-3.325 4.09856,-4.643986 11.36072,-9.267878 16.25,-11.95 2.494,-1.344 5.299998,-2.6 5.299998,-2.6 0,0 -0.937,3.921 -1,6.8 -0.065,2.987 0.973,6.765 2.25,7.05 1.293,0.288 4.5,0 4.5,0 l 0.475,-5.75 -2.575,0 c -1.152,0 -1.309,-0.05704 -1.575,-0.5 -0.7,-1.171 -1.145,-4.796 -1.15,-5 -0.029,-1.217 0.24,-3.142 1.175,-3.95 0.24,-0.209 0.398,-0.282 1.575,-0.875 l 7.25,-3.6500002 c 1.177,-0.594 1.315,-0.686 1.475,-0.825 0.651,-0.563 1.131,-2.455 1.275,-2.975 0.623,-2.24262498 0.6356,-2.75312298 -0.325,-2.72499998 z m 10.885,15.68649418 2.882,0 c 0,0 0.059,-1.207 0,-2.51 -0.23,-5.1430002 -2.719,-13.17600018 -2.719,-13.17600018 0,0 -0.708,0.01496 -1.237,0.142 -0.951,0.229 -3.68901,3.08199998 -3.97101,3.51799998 -0.7,1.083 -0.998,3.77 -0.72,5.061 0.235,1.095 0.914,1.8570002 1.418,2.9100002 0.97501,2.04 1.05501,14.783 1.75101,22.110001 0.604,6.367 2.599,12.784 2.596,18.649 -0.002,3.934 -0.481,8.784 -0.481,8.784 l 0.513,0 c 0.231,0 0.336,-0.131 1.056,-1.312 5.767,-9.451 0.896,-19.214 -0.368,-31.628 -0.567,-5.579001 -0.72,-12.548001 -0.72,-12.548001 z M 85.603994,78.106542 c -7.248998,1.696 -16.728998,3.482 -17.381998,4.436 -1.117,1.629 0.381,2.359 3.639,3.699 4.898,2.015 8.231998,2.644 12.873998,0.981 9.624,-3.447 19.792996,-10.748001 25.475996,-17.631001 0.701,-0.849 1.388,-1.728 1.818,-2.393001 1.562,-2.418 3.295,-9.235 3.552,-11.011 0.211,-1.463 0.16,-2.481 -0.224,-4.691 -0.352,-2.03 -0.986,-5.066 -0.986,-5.066 0,0 1.39,-0.12 1.967,-0.409 1.49,-0.749 -3.059,-5.659 -4.015,-6.958 -2.651,-3.601 -3.133,-4.503 -4.929,-3.529 -0.85,0.461 -3.239,4.445 -3.213,5.357 0.061,2.094 8.602,18.592 8.602,18.592 0,0 -2.03,2.544 -4.409,4.798 -0.857,0.813 -1.76,1.588 -2.63,2.292 C 90.827994,78.649542 85.726994,78.078542 85.603994,78.106542 z"
     style="fill:#000000;stroke:none" />
</svg>