<?xml version="1.0" encoding="UTF-8" standalone="no"?>
<svg>
  <path
     d="m 56.052528,10.976237 c 0.895,7.2475 0.1325,18.96875 0.65375,24.2275 0.54125,5.46 2.54875,18.16875 3.74375,27.28749 0.15125,1.1525 0.36375,2.9025 0.55375,4.88625 0.28625,2.98625 0.5675,6.985 0.38,9.98375 -0.0875,1.3825 -0.2725,2.54 -0.5975,3.2975 -0.8325,1.94 -2.10875,3.65375 -1.85,4.0375 0.51875,0.77 2.14125,-1.55375 3.48125,-3.79375 6.4825,-10.70125 2.42,-24.24375 2.27625,-28.07874 -0.21875,-0.9275 -0.45625,-1.94125 -0.71125,-3.11 -1.39625,-6.40875 -1.68,-16.0525 -2.56125,-24.725 -0.3825,-3.7675 -0.2225,-7.0075 0.23875,-8.10625 1.41,1.32375 2.8,2.5575 3.9625,3.57125 l 1.98875,1.7325 -0.19875,-1.61375 c -0.22375,-1.81875 -1.20625,-5.6525 -3.4025,-12.8962496 -0.93875,-3.09625 -2.40875,-6.97499998 -2.94125,-7.42499998 -0.5375,-0.455 -1.325,-0.35875 -2.085,0.25375 -0.26375,0.21125 -0.5525,0.48125 -0.91,0.71249998 -3.1525,2.0375 -5.485,3.41375 -3.7125,7.16875 0.3675,0.77875 0.95625,1.6574996 1.69125,2.5899996 z m 62.868752,0 c 0.89625,7.2475 0.1325,18.96875 0.65375,24.2275 0.54125,5.46 2.55,18.16875 3.745,27.28749 0.15,1.1525 0.36375,2.9025 0.5525,4.88625 0.28625,2.98625 0.5675,6.985 0.38,9.98375 -0.0863,1.3825 -0.27125,2.54 -0.59625,3.2975 -0.8325,1.94 -2.10875,3.65375 -1.85125,4.0375 0.51875,0.77 2.1425,-1.55375 3.4825,-3.79375 6.48249,-10.70125 2.42,-24.24375 2.27625,-28.07874 -0.21875,-0.9275 -0.4575,-1.94125 -0.71125,-3.11 -1.39625,-6.40875 -1.68125,-16.0525 -2.5625,-24.725 -0.3825,-3.7675 -0.22125,-7.0075 0.24,-8.10625 1.40875,1.32375 2.8,2.5575 3.9625,3.57125 l 1.98874,1.7325 -0.19999,-1.61375 c -0.22375,-1.81875 -1.20625,-5.6525 -3.40125,-12.8962496 -0.93875,-3.09625 -2.40875,-6.97499998 -2.94125,-7.42499998 -0.5375,-0.455 -1.325,-0.35875 -2.085,0.25375 -0.265,0.21125 -0.5525,0.48125 -0.91,0.71249998 -3.1525,2.0375 -5.485,3.41375 -3.7125,7.16875 0.3675,0.77875 0.95625,1.6574996 1.69,2.5899996 z M 45.180028,9.5837374 39.856278,14.872487 c -0.885,0.87875 -1.01,1.0375 -1.2575,1.57875 -0.34625,0.7575 -0.46625,2.025 -0.29625,2.1975 0.55125,0.55625 2.50125,-0.795 3.18,-1.295 5.9425,-4.3825 8.65,-7.14375 9.61,-12.8187496 0.48875,-2.885 -1.03875,-4.00124998 -3.74125,-4.36874998 -4.2875,-0.585 -8.5425,0.0125 -10.20875,3.24124998 0.26,12.3249996 0.62625,5.2775 4.2625,4.4025 4.045,-0.97375 8.395,-3.13625 3.775,1.77375 z m -27.17874,-18.68875 -7.517,7.5175 7.517,7.51625 7.5175,-7.51625 -7.5175,-7.5175 z m 0,22.6724996 6.09875,6.09875 7.5175,-7.5175 -7.5175,-7.5174996 -6.09875,6.0987496 -6.09838,-6.0987496 -7.5171219,7.5174996 7.5171219,7.5175 6.09838,-6.09875 z m 92.434992,85.54874 c 0.2175,2.997503 1.615,4.861253 4.15875,5.398753 3.28125,0.69375 5.1375,-1.085 5.9775,-4.685003 0.185,-0.78875 0.14375,-1.4475 -0.365,-1.765 -0.96625,-0.60375 -3.62125,0.0225 -4.905,-0.65875 -1.59625,-0.8475 -2.0025,-4.45375 -1.6075,-6.13875 0.395,-1.6875 1.40375,-3.49375 1.6775,-4.79375 0.055,-0.26375 0.0813,-0.50625 -0.0337,-0.64125 -0.0138,-0.0175 -0.0288,-0.0338 -0.0438,-0.0488 -3.86125,-0.88 -4.8,14.1425 -4.85875,13.3325 z M 73.241278,31.223737 c -1.2025,1.02125 -2.345,2.0275 -3.4075,3.00625 l -0.33,7.68875 c 0.995,-1.02625 2.04875,-2.1 3.05125,-3.095 0.485,-0.4825 1.2225,-1.15125 2.155,-1.95875 13.8,-11.95125 14.19,-11.14625 30.255002,-19.62875 3.325,-1.755 6.225,-3.28625 6.225,-3.28625 l 0.79875,-3.82375 c 0.0588,-0.2849996 0.11375,-0.5887496 0.16375,-0.9174996 0.40625,-2.6475 0.12,-3.25 -2.16375,-2.47625 -1.40625,0.47625 -3.15,1.29125 -5.10625,2.3375 -6.052502,3.2362496 -14.367502,8.9912496 -20.536252,13.4637496 -9.4525,6.85125 -8.965,6.87125 -11.105,8.69 z m 3.7825,10.76125 c -1.20375,1.0225 -2.34625,2.0275 -3.40875,3.00625 l -0.32875,7.69 c 0.995,-1.0275 2.0475,-2.1 3.05,-3.09625 0.48625,-0.48125 1.2225,-1.15125 2.155,-1.95875 13.80125,-11.95 14.19,-11.14625 30.255002,-19.6275 3.32625,-1.75625 6.225,-3.28625 6.225,-3.28625 l 0.79875,-3.82375 c 0.06,-0.285 0.115,-0.59 0.165,-0.9175 0.40625,-2.64875 0.12,-3.25 -2.165,-2.47625 -1.405,0.475 -3.14875,1.29 -5.105,2.33625 -6.0525,3.2375 -14.367502,8.9925 -20.537502,13.46375 -9.4525,6.8525 -8.96375,6.8725 -11.10375,8.69 z m 12.34625,-20.33125 -0.18625,-4.285 c -0.0763,-1.73125 -0.0513,-2.04125 0.25,-3.1025 0.2225,-0.7875 0.45875,-1.64875 1.055,-2.2025 1.45625,-1.3525 5.05875,-0.885 6.73,-1.99875 2.405,-1.6037496 2.4075,-7.1099996 0.55625,-9.34249958 -1.9625,-2.36625002 -5.93125,1.39249998 -7.5575,3.54374998 -0.99875,1.32 -1.94375,2.835 -2.36875,4.60125 -0.1975,0.81875 -0.30625,1.7487496 -0.46125,2.5624996 l -0.755,3.985 -2.4925,-3.1725 c -3.4125,-4.4937496 -2.3725,-5.8299996 -7.3875,-7.0512496 -1.68,-0.41 -5.32375,-0.25625 -6.02375,1.635 -0.5475,1.48 0.73875,5.0799996 1.545,5.9349996 0.61875,0.6575 3.12875,2.2875 4.165,2.38875 1.69375,0.16375 5.155,-0.86875 5.155,-0.86875 0,0 2.79375,4.02125 4.5,5.90875 0.74375,0.82375 1.36,1.4875 2.315,1.50625 0.39375,0.007 0.96125,-0.0425 0.96125,-0.0425 z m -63.87749,75.61374 c 0.0463,-0.1225 0.10125,-0.25625 0.16375,-0.38 0.56875,-1.14 1.695,-1.485 2.65,-2.03625 1.12,-0.64875 1.96375,-1.53875 2.50375,-2.5625 1.85499,-3.50625 0.84,-6.8475 -2.01875,-6.7975 -0.205,0.004 -0.3775,0.006 -0.52125,0.009 -3.1175,0.77625 0.44125,-3.39875 0.72125,-3.93375 1.2525,-2.395 2.5875,-4.415 -1.42125,-3.09375 -2.77625,0.915 -5.0875,3.74375 -6.2425,6.5425 -1.69625,4.1075 -1.4425,5.4925 2.8025,5.8725 0.9675,0.0863 1.665,0.32125 0.9225,1.12875 -2.6075,2.8375 -6.07875,6.91875 -4.595,9.631253 3.30375,6.04125 14.57624,1.49875 18.00374,-0.66125 3.43125,-2.162503 6.505,-4.932503 8.83375,-7.037503 0.0963,-0.0875 0.19375,-0.175 0.29,-0.2625 1.26625,-1.14375 4.7825,-4.3625 3.8375,-5.39 -0.7675,-0.83375 -2.8225,0.67125 -4.68625,2.37 -4.45375,4.05875 -5.80875,5.83875 -11.93125,6.9275 -0.13,0.0225 -0.2625,0.045 -0.39625,0.0675 -0.24625,0.0412 -0.5,0.0812 -0.76125,0.12 -3.78999,0.56125 -8.74874,1.065 -8.15499,-0.51375 z m 63.03874,-45.46624 0.0325,-1.06875 1.44875,-0.16375 c 0.22125,-0.0263 0.48375,-0.0138 0.74375,0.0175 1.43375,0.1775 6.6725,2.6125 6.93875,4.155 0.11125,0.64749 0.0263,1.55374 0.0263,1.55374 0,0 -2.195,0.245 -3.6775,0.0638 -1.15625,-0.14125 -5.18375,-2.16374 -5.45125,-3.53249 -0.0637,-0.32625 -0.07,-0.71625 -0.0613,-1.025 z m -26.05875,52.347493 c 0.0575,0.0175 0.115,0.035 0.17375,0.0525 8.28625,2.5325 21.94875,-5.902503 30.18,-11.903753 10.463752,-7.6275 12.770002,-12.9425 16.698752,-25.2425 1.61875,-5.06875 1.65375,-10.03 0.79125,-12.33499 -0.7325,-1.955 -9.33625,-12.73375 -10.917502,-13.67625 -6.21625,-3.70625 -11,-1.21 -14.1225,7.37125 -3.46375,9.52249 -4.36125,16.58499 3.5775,19.36999 2.93125,1.03 5.50625,0.8275 9.4425,-0.14 3.392502,-0.83375 5.231252,-1.55875 6.082502,-1.1025 0.705,0.38 1.21125,4.05 0.74125,5.39 -1.3325,3.805 -12.111252,11.13375 -18.523752,15.00125 -4.2625,2.57125 -9.04375,4.91625 -14.10125,7.1575 -16.805,7.448753 -21.6175,6.536253 -10.0225,10.057503 z M 0.06516109,93.428727 l 0.748625,11.235003 1.03662501,-0.0187 c 0.46575,-0.008 0.562375,-0.1975 0.96625,-1.90125 4.04725,-17.067503 10.7008769,-26.325003 23.8696269,-37.397503 2.8175,-2.37 5.70249,-4.37 9.28749,-5.9925 6.29125,-2.84625 8.845,-3.01 10.045,-6.76124 0.43,-1.34625 0.76625,-3.13625 1.1675,-4.945 0.0813,-0.37 1.1825,-6.71625 1.1825,-6.71625 0,0 -0.39,0.14875 -1.1125,0.425 -0.55625,0.21125 -1.07625,0.41375 -1.56375,0.60875 -5.82125,2.32375 -14.62374,8.97375 -20.06874,12.02375 -0.98875,0.55375 -1.38875,0.7775 -1.38875,0.7775 l -6.32625,-4.57125 c -3.29625,-2.3825 -9.0318779,-5.67875 -11.3920019,-8.46375 -0.689,-0.81375 -1.1295,-1.6775 -1.46275,-2.6275 -0.44925,-1.28125 -0.451875,-1.4675 -0.02662,-1.8575 1.18675,-1.0875 5.3803769,-2.3325 5.5798769,-2.38875 3.29525,-0.92125 6.7315,-1.38125 11.00275,-1.43625 8.20875,-0.10625 16.48874,0.98875 15.49249,-2.2 -1.35,-4.32 -7.63624,-7.52625 -10.71124,-7.975 -7.57,-1.105 -18.6118779,0.44 -23.2932519,8.18 -2.46500001,4.075 -2.63487501,10.975 -1.78575,14.9525 1.559375,7.305 4.11775,8.50625 10.7015019,13.39374 5.205,3.86375 1.76125,5.02625 -2.7275029,10.735 -2.847999,3.62375 -8.263249,14.875 -9.00862401,19.06375 -0.3075,1.7275 -0.32875,2.1125 -0.2125,3.8575 z"
     style="fill:#000000;stroke:none" />
</svg>
