<?xml version="1.0" encoding="UTF-8" standalone="no"?>
<svg>
  <path
     d="m 143.87251,43.616655 0.585,-6.145 c -0.22375,0.0613 -0.445,0.085 -0.66125,0.0575 -1.2175,-0.155 -2.58875,-1.18875 -2.39625,-2.8775 0.06,-0.52 0.21125,-0.7075 1.515,-1.87625 6.11625,-5.48625 24.12875,-14.77375 31.55125,-17.56875 2.16875,-0.8175 11.25751,-4.25625 11.64751,-3.55875 0.65625,1.17125 -0.6475,8.2375 -0.6475,8.2375 0,0 5.68625,-7.53 9.70625,-10.5025096 3.415,-2.525 9.225,-0.9625 9.70625,-6.575 0.10375,-1.22125 0,-2.80749994857 0,-2.80749994857 l -2.7625,0 c -1.24125,0 -1.5625,0.0650000086 -3.20625,0.65625000857 C 168.39126,11.610405 165.20751,11.424155 146.21626,23.290405 c -6.9675,4.35375 -9.9475,9.375 -7.3375,18.56125 0.4675,1.64625 2.1725,4.4425 3.49375,3.4425 0.425,-0.32125 0.995,-1.00875 1.5,-1.6775 z m 11.74125,-32.0775 c 0.6425,-1.17126 3.30875,-0.93751 5.1075,-1.51001 2.49875,-0.7937496 3.655,-3.7287496 3.8825,-6.4049996 0.1275,-1.5075 0,-3.62374994857 0,-3.62374994857 0,0 -1.44375,0.0425000086 -2.54625,0.17625000857 -1.90625,0.23 -2.79,0.73 -3.81625,1.62999994 -1.25375,1.09875 -2.35,2.2825 -3.3525,3.2575 l -3.3,3.21 -2.15125,-2.30875 c -0.6975,-0.74875 -1.42875,-1.7125 -2.305,-2.40625 -2.2475,-1.78125 -7.58,-2.60249994 -9.0575,0.10375 -0.27,0.4925 -0.46375,1.06 -0.5925,1.6625 -0.525,14.4237596 3.89,7.0350096 9.45125,8.2962596 8.7,1.975 0.11125,13.55 8.68,-2.0825 z m -47.26625,43.305 -6.1025,6.06125 c -1.01375,1.0075 -1.1575,1.1875 -1.44125,1.80875 -0.3975,0.86875 -0.535,2.32125 -0.34,2.5175 0.6325,0.63875 2.86625,-0.91 3.645,-1.48375 6.81125,-5.0225 9.91375,-8.18625 11.015,-14.69125 0.56,-3.30625 -1.19125,-4.585 -4.28875,-5.0075 -4.91375,-0.66875 -9.79125,0.015 -11.7,3.715 0.2975,14.12625 0.7175,6.04875 4.885,5.04625 4.63625,-1.11625 9.62125,-3.59375 4.3275,2.03375 z m 18.93375,-43.8225 -6.1025,6.0625 c -1.01375,1.00625 -1.1575,1.1875 -1.44125,1.8075 -0.3975,0.86875 -0.535,2.32125 -0.34,2.51875 0.6325,0.6375 2.86625,-0.91 3.645,-1.48375 6.81125,-5.0225 9.91375,-8.1875 11.015,-14.6912596 0.56,-3.30625 -1.19125,-4.58624994 -4.28875,-5.00749994 -4.91375,-0.66875 -9.79125,0.015 -11.7,3.71499994 0.2975,14.1262596 0.7175,6.04875 4.885,5.045 4.63625,-1.115 9.62125,-3.59375 4.3275,2.0337596 z M 98.07001,20.070405 97.50376,9.2566454 c -0.085,-1.60375 -0.1175,-1.8825 -0.33125,-2.79125 -0.65625,-2.78625 -2.42,-4.31125 -4.26375,-5.29625 -2.34375,-1.25249994 -4.13375,-1.71749994 -6.55,0.0462 -1.9875,1.44875 -2.175,6.69875 -1.39375,7.51875 0.5825,0.6125 2.1275,0.5575 3.99625,0.11875 4.66875,-1.09625 5.13625,-0.84375 6.3525,4.0937596 0.5775,2.34625 0.64625,4.54375 0.36125,6.90375 -0.60375,5.01125 -2.02125,7.4475 0.7575,10.39 1.1575,1.22375 2.365,1.40875 5.00375,0.865 1.875,-0.385 2.2475,-1.25625 3.0325,-3.8525 0.55375,-1.8275 0.99125,-3.465 0.85,-5.28625 -0.28125,-3.61625 -4.19,-10.41125 0.52,-12.0987596 0.87,-0.31125 2,-0.10875 2.975,0.10375 1.31375,0.2862496 1.53625,0.1562496 2.22875,-1.2975 0.56875,-1.19625 1.2275,-2.29625 1.59,-3.5825 1.35875,-4.83124994 -0.7225,-6.195 -4.8975,-4.21624994 -4.79125,2.26999994 -6.9425,11.99500954 -5.92,18.51500954 0.31375,2.6875 0.6575,5.1075 0.6575,5.1075 0,0 -0.28625,-0.002 -0.6275,-0.0362 -1.34125,-0.1325 -3.645,-1.9125 -3.775,-4.39125 z m 78.85125,68.36875 -5.7925,5.79125 7.765,7.765005 7.76501,-7.765005 -5.7925,-5.79125 5.7925,-5.7925 -7.76501,-7.765 -7.765,7.765 5.7925,5.7925 z m -6.95375,-60.14 3.235,0 c 0,0 0.0838,1.2875 0,2.16125 -0.1,1.05125 -0.8875,1.8225 -1.6175,1.72125 -0.75,-0.10375 -1.535,-1.07625 -1.6175,-2.33 -0.045,-0.67875 0,-1.5525 0,-1.5525 z m -6.08625,1.35875 c -0.3125,3.945 0.92625,5.0875 1.0275,5.25375 0.645,1.06125 1.4375,2.08125 1.4375,2.08125 0,0 -2.89625,2.23875 -5.5125,3.78125 -3.955,2.33375 -7.62375,3.99 -8.01375,4.995 -0.10125,0.26375 -0.65,2.9525 -0.3225,3.23625 0.26875,0.23375 0.92,0.13125 1.38,0.0788 0.42875,-0.0487 0.67875,-0.105 1.32125,-0.36125 8.83625,-3.53625 17.7375,-9.485 21.16375,-19.045 0.64875,-1.81125 0.87875,-3.51375 0.7225,-5.70125 -0.0713,-0.99125 -0.15625,-1.80375 -1.0925,-2.41625 -0.3975,-0.26125 -0.95,-0.4875 -1.5525,-0.6775 -5.055,-1.6025 -7.96125,1.96875 -9.24125,4.08125 -1.41375,2.33375 -1.48625,6.81375 -1.3175,4.69375 z m -6.435,35.06 0,0.69125 c 0,0 -1.54125,0.145 -2.5875,0 -0.99875,-0.13875 -1.54625,-0.5425 -2.2225,-0.99875 -0.9125,-0.61625 -1.01375,-0.73625 -1.01375,-1.20125 l 0,-1.03625 c 0,0 1.71625,-0.2225 2.80875,0 1.00375,0.20625 1.48,0.7875 2.095,1.35375 0.82875,0.7625 0.92,0.88125 0.92,1.19125 z m 36.20501,-45.04 c -2.3375,2.9175 -3.7025,7.3125 -3.45875,9.32125 0.36625,3.00875 2.36125,6.44875 2.91125,9.68125 0.41875,2.455 -0.4675,6.66375 -0.97,10.3125 -0.3775,2.74 2.175,26.7175 3.8825,39.0175 0.40875,2.9475 0.6475,5.9375 0,8.55375 -0.365,1.4775 -1.6925,4.491255 -1.29375,5.163755 0.22375,0.37875 0.95625,0.33375 1.5525,0 2.2975,-1.285 5.25875,-14.617505 5.8075,-17.187505 0.36375,-1.71 0.38,-2.0925 0.1625,-3.82625 0,0 -4.69375,-37.45625 -4.69375,-37.45625 -0.20375,-1.63375 -0.14375,-1.92125 0.65875,-2.13375 7.45125,1.69375 7.0775,0.59875 5.55,-1.23875 -3.22875,-3.88625 -3.5875,-6.80875 -4.725,-11.78125 -1.19125,-5.205 -2.92,-11.49875 -5.38375,-8.42625 z M 0,62.861655 l 12.035,13.7375 c 7.69875,8.78875 30.58375,15.03875 39.83125,16.0725 22.93875,2.56375 49.16751,-2.71125 68.93251,-12.035 7.46625,-3.52125 9.38,-5.89625 12.35625,-14.04125 1.8475,-5.05875 4.3875,-12.11 2.15875,-16.7875 -1.025,-2.15125 -3.0325,-4.39625 -2.52625,-4.8975 0.83,-0.82375 3.0575,0.5325 2.24625,-2.25625 -0.395,-1.35875 -1.855,-2.42875 -3.24375,-4.62625 -2.2375,-3.54375 -4.28625,-10.01625 -4.28625,-10.01625 0,0 -2.75875,3.215 -4.44,5.71375 -4.235,6.2925 -2.215,7.55875 2.305,15.035 2.01875,3.33875 6.765,12.9425 5.7825,15.59625 -1.6425,4.43875 -16.5875,9.4175 -20.05875,10.45625 -11.6525,3.4875 -22.27,5.97 -32.55125,7.0675 C 58.02,84.070405 28.79,78.385405 10.74625,68.234155 4.12,65.015405 0,62.861655 0,62.861655 z m 109.51626,23.605 -7.765,7.76375 7.765,7.765005 7.765,-7.765005 -7.765,-7.76375 z m 54.0125,-9.1325 c 1.03625,1.39625 1.275,2.1325 0.83125,3.105 -1.30375,2.86 -11.86875,10.04625 -14.7325,11.74625 -6.69625,3.975 -22.17625,10.335005 -28.74,11.400005 -3.44375,0.55875 -7.88125,1.23625 -9.3825,2.265 -0.72375,0.495 -0.9025,0.91625 -0.34375,1.6325 1.04125,1.3375 8.54125,3.00875 10.05,3.22 12.08,1.68625 28.18,-7.90375 36.8825,-14.558755 5.85875,-4.48125 4.945,-6.16375 6.80625,-13.245 0.90125,-3.42875 2.50375,-7.1325 4.9275,-8.61375 1.91875,-1.17375 4.84875,-1.375 6.54375,-2.72 0.995,-0.79 4.98626,-12.02625 5.48376,-14.60125 0.5175,-2.68 -0.10875,-4.33625 -1.43751,-7.73125 -1.28625,-3.28375 -2.76,-6.96625 -4.53,-9.06 -0.6075,-0.71875 -1.07375,-0.985 -1.87625,-0.64625 -0.8725,0.3675 -2.7875,4.665 -2.97625,6.6775 -0.1325,1.40625 -0.0838,5.2075 0.64625,6.47875 0.6775,1.17875 2.12125,1.9025 2.9125,3.02 0.70875,1.00125 1.295,3.71875 1.11125,5.325 -0.12625,1.11375 -0.30625,1.3175 -1.8,2.03625 -2.0475,0.98625 -5.0725,1.405 -5.67875,1.05 -1.5725,-0.92 -2.36,-5.455 -3.98625,-7.76375 -2.37,-3.36875 -8.88625,-5.5975 -11.5425,-4.53 -4.0925,1.645 -5.165,6.405 -6.575,11.6475 -1.4925,5.55375 -1.575,7.82875 1.7625,11.1275 3.85375,3.80875 5.2275,2.86125 13.025,2.02125 1.74,-0.1875 2.00125,-0.115 2.61875,0.7175 z"
     style="fill:#000000;stroke:none" />
</svg>
