<?xml version="1.0" encoding="UTF-8" standalone="yes"?>
<!-- Created with sK1/UniConvertor (http://sk1project.org/) -->
<svg xmlns="http://www.w3.org/2000/svg" xmlns:xlink="http://www.w3.org/1999/xlink"
  width="595.276pt" height="841.89pt" viewBox="0 0 595.276 841.89"
  fill-rule="evenodd">
  <path
     d="m 122.54513,83.066539 c 0.163,2.24099 1.20799,3.63399 3.10999,4.03599 2.45299,0.519 3.83999,-0.811 4.46899,-3.50199 0.138,-0.591 0.107,-1.083 -0.273,-1.32 -0.723,-0.452 -2.708,0.017 -3.66699,-0.493 -1.194,-0.634 -1.498,-3.32899 -1.202,-4.589983 0.295,-1.260999 1.049,-2.611998 1.254,-3.583997 0.041,-0.197 0.06,-0.378 -0.025,-0.479 -0.011,-0.01304 -0.022,-0.02496 -0.033,-0.036 -2.88699,-0.657999 -3.58899,10.57298 -3.63299,9.96798 z M 22.045339,35.344379 17.163351,40.193375 c -0.811,0.805992 -0.926,0.949992 -1.153,1.446991 -0.317999,0.695 -0.427999,1.856999 -0.271999,2.014999 0.505999,0.51 2.292998,-0.729 2.914997,-1.186999 5.448988,-4.018989 7.931979,-6.549987 8.812978,-11.753976 0.447,-2.64499 -0.952999,-3.667989 -3.430989,-4.005989 -3.931998,-0.534999 -7.832987,0.01304 -9.359986,2.97299 0.238,11.300976 0.574,4.837989 3.907998,4.035997 3.708989,-0.892999 7.696978,-2.874998 3.461989,1.626991 z m 8.750986,-19.287962 -0.454,-8.650978 c -0.06696,-1.282999 -0.093,-1.506999 -0.264,-2.233998 -0.525,-2.22799 -1.935999,-3.448989 -3.410997,-4.23598903 -1.875991,-1.001999 -3.30699,-1.374999 -5.240989,0.036 C 19.837341,2.131451 19.687341,6.33044 20.31234,6.98744 c 0.466,0.489999 1.701999,0.445999 3.196998,0.094 3.734989,-0.877 4.108989,-0.674 5.081988,3.274989 0.462,1.876999 0.516,3.635998 0.289,5.522996 -0.483,4.008989 -1.616999,5.958988 0.606,8.311978 0.924999,0.979 1.891998,1.127999 4.002989,0.693 1.499998,-0.309 1.796998,-1.006 2.425998,-3.08299 0.442999,-1.461999 0.792999,-2.770998 0.679999,-4.228997 -0.226,-2.89199 -3.352997,-8.327978 0.416,-9.678977 0.695999,-0.249 1.599991,-0.086 2.37999,0.083 1.050999,0.229 1.228999,0.126 1.782999,-1.037999 0.455,-0.956 0.981999,-1.835999 1.271999,-2.865998 C 43.533299,0.20745297 41.8683,-0.88254703 38.527303,0.70045197 34.695314,2.516451 32.974315,10.296429 33.792314,15.512426 c 0.251,2.14999 0.526,4.085989 0.526,4.085989 0,0 -0.229,-0.0032 -0.502,-0.03 -1.072999,-0.105 -2.91599,-1.529999 -3.019989,-3.511998 z m 33.721927,0.157 -0.139,-3.20299 c -0.05704,-1.294999 -0.038,-1.526998 0.186,-2.320998 0.167,-0.587999 0.342999,-1.231991 0.789999,-1.645991 C 66.44325,8.032439 69.13724,8.381439 70.386239,7.549439 72.184238,6.35044 72.186238,2.233451 70.802239,0.56445197 69.33424,-1.204546 66.36825,1.605452 65.152251,3.21345 c -0.746999,0.987992 -1.453999,2.118991 -1.771998,3.43999 -0.147,0.612999 -0.229,1.307999 -0.344,1.915999 l -0.563992,2.97999 -1.863998,-2.371991 C 58.056264,5.817441 58.834264,4.818441 55.085275,3.904442 c -1.255999,-0.306 -3.979997,-0.191 -4.502997,1.222999 -0.409992,1.106999 0.552,3.797997 1.153999,4.436997 0.463,0.491992 2.339998,1.710991 3.114998,1.785991 1.265999,0.122 3.852989,-0.649 3.852989,-0.649 0,0 2.088998,3.005998 3.363998,4.417997 0.556991,0.615999 1.016991,1.111991 1.73099,1.124991 0.295,0.0056 0.719,-0.03096 0.719,-0.03096 z m 13.158974,22.898959 0.559,-0.01 c 0.250999,-0.004 0.318999,-0.157 0.673999,-1.528999 2.042995,-7.886986 2.415987,-12.241975 -2.609998,-17.300963 -0.826999,-0.832999 -1.791991,-1.531999 -2.41299,-0.784999 -0.421,0.506999 -0.852,4.081989 -0.66,4.862988 0.337,1.365999 1.332999,1.808999 2.481991,2.735998 2.597998,2.093991 3.248997,3.664989 2.918997,6.454987 -0.253999,2.140991 -0.950999,5.570988 -0.950999,5.570988 z M 56.956265,34.343388 c -0.04104,-1.115999 -0.167,-2.517998 -0.533999,-2.870998 -0.212992,-0.204 -0.506992,-0.056 -0.690992,-0.167 -0.827999,-0.497 0.581,-2.546998 1.251991,-3.33099 6.094988,-7.113986 21.88896,-15.946972 30.233943,-17.77397 0.794991,-0.174 1.589991,-0.315 1.739991,-0.046 0.07496,0.133999 -0.009,0.368999 -0.138,0.634999 -0.301,0.623 -0.784,1.377999 -1.318999,2.186999 -11.113973,16.780963 6.415987,-6.507988 11.389983,-7.161987 0.456,-0.225 0.882992,-0.406 1.260987,-0.525 1.936,-0.61 4.032,-0.739 4.287,-2.59399 0.036,-0.261 0.041,-0.585 0.032,-0.9 -0.084,-3.038997 -5.044987,-1.58499803 -8.540985,-0.255999 -3.234989,1.230999 -8.038986,3.258989 -13.134974,5.616988 -6.593984,3.04999 -26.336945,12.207975 -29.114935,20.161961 -0.895,2.56299 -0.729,5.434988 1.055999,7.904978 0.076,0.106 0.146,0.201 0.209,0.287 -0.806,-1.092991 2.18399,3.506997 2.01199,-1.166991 z m -26.27094,17.572963 c -0.787,4.852988 -3.512998,12.184975 0.960999,14.411965 3.22399,1.603999 5.538988,0.21 6.240979,-3.272989 0.256,-1.266999 0.112,-2.109999 -0.858991,-2.625998 -1.620999,-0.863 -5.231996,-0.631 -6.105988,-1.586991 -0.320999,-0.352 -0.304999,-0.863 -0.189999,-1.492999 0.902999,-4.965988 2.10699,-5.616988 1.58899,-9.459985 -0.246999,-1.834991 -1.97499,-10.268977 -4.398988,-8.905978 -1.279999,0.719 -1.853999,3.31799 -1.277999,4.216989 0.334999,0.522 1.112999,1.071999 1.634998,1.663999 1.037,1.174999 2.691998,5.283988 2.405999,7.051987 z m 33.826927,12.478975 4.266997,4.266989 5.636987,-5.637988 -5.636987,-5.637988 -4.266997,4.265989 -4.265989,-4.265989 -5.637988,5.637988 5.637988,5.637988 4.265989,-4.266989 z M 42.1573,27.462401 36.520312,33.100389 42.1573,38.738377 47.795288,33.100389 42.1573,27.462401 z m 47.441898,10.780976 -5.637988,5.637988 5.637988,5.637988 5.637988,-5.637988 -5.637988,-5.637988 z m -37.099921,20.779961 2.260998,-0.425 c 1.339999,-0.252 3.02899,-0.573 4.310989,-0.827999 2.344998,-0.465 3.807989,-1.073 4.490988,-1.864999 0.926,-1.073999 3.421998,-7.440987 3.585998,-9.143977 0.197,-2.053999 -0.409,-4.437997 -1.403999,-7.476987 -0.922999,-2.816998 -2.018999,-9.204985 -4.863989,-1.841998 -0.827999,2.143998 -1.109999,4.253988 -0.414999,6.420987 1.394999,4.348989 3.503989,6.057987 -1.835999,6.635987 -2.054998,0.223 -5.245988,0.224 -6.879987,-0.465 -1.796991,-0.755999 -3.576989,-2.520998 -5.172988,-3.148997 -0.731,-0.287992 -1.166999,-0.227992 -1.663999,0.331999 -1.605991,1.812999 -1.784991,5.978988 -1.293991,7.664987 1.128991,3.877997 5.261988,8.145986 4.986988,10.116984 -0.102999,0.735992 -4.010997,4.356989 -6.010987,5.568988 -1.488999,0.902999 -2.888998,1.713991 -4.226997,2.44699 -10.653976,5.836986 -20.093953,7.070986 -31.7589287,9.861986 -10.8758816,2.60099 -6.23029062,2.26699 -0.9289994,2.11399 2.1729904,-0.063 5.3229881,-0.314 7.4649791,0.763 8.148986,4.09499 16.504971,-1.333 23.842958,-5.20299 4.056989,-2.139 9.041977,-5.260987 10.828976,-8.518985 0.153,-0.279 0.279,-0.563992 0.389,-0.853991 0.07104,-0.185 0.148,-0.401 0.231,-0.636 l 1.526998,-4.328997 2.535991,-7.189978 z m 0.843999,-2.295296 c -0.088,0.203 -0.544,1.258999 -0.875999,2.025998 -1.485999,3.43699 -0.68,16.205964 0.164999,19.765949 1.166,4.908 3.699998,9.51099 9.119986,8.56999 0.313,-0.055 0.631999,-0.136 0.956991,-0.246 1.149999,-0.388 2.626998,-1.592 3.841997,-2.797 7.626987,-7.571976 4.993989,-13.807963 15.813961,-18.48896 1.155,-0.499991 2.227999,-0.881991 2.227999,-0.881991 0,0 0.722999,3.20999 1.419999,5.370988 1.77899,5.519988 5.771987,6.521987 11.755975,7.110987 5.059986,0.498999 12.681976,-0.269 18.998966,-2.580998 6.82698,-2.498999 9.16797,-4.118989 9.74697,-11.432976 0.196,-2.476998 -0.211,-4.300989 -2.62299,-1.890999 -4.42499,4.420989 -6.26798,5.241989 -12.52997,6.736987 -0.661,0.157 -0.899,0.03296 -1.41,-0.464999 -1.165,-1.133999 -3.686,-6.176988 -3.801,-6.407988 -1.61699,-3.229989 -1.53399,-4.555988 2.096,-6.164987 2.95,-1.306999 6.13999,0.17 9.94699,1.043999 0.35099,0.08 0.70999,0.156 1.05599,0.218 3.03699,0.543 2.79999,-0.586999 1.173,-2.577998 -1.586,-1.940991 -4.28499,-4.249989 -4.82199,-4.600989 -2.487,-1.624998 -7.71599,-1.774998 -10.79898,0.377 -4.435,3.093998 -7.214986,10.020977 -6.089987,14.089974 0.961,3.472989 3.152987,5.645988 0.086,5.158988 -4.401996,-0.701 -8.154986,-2.391998 -9.760985,-6.240987 -0.093,-0.224 -0.183999,-0.468 -0.271999,-0.726 -1.753991,-5.147988 -0.657,-6.853987 -2.55799,-5.762988 -1.994999,1.144999 -3.538998,2.038999 -4.805997,2.846998 -4.411985,2.81399 -5.950984,5.353988 -8.770974,9.662977 -0.131,0.199 -0.264,0.403 -0.4,0.612 -3.958989,6.064987 -8.727986,12.509972 -13.948974,7.838986 -1.557999,-1.393999 -2.81999,-3.731997 -3.514989,-6.092988 -0.578,-1.964998 -1.552999,-13.769973 -1.422999,-14.070973 z"
     style="fill:#000000;stroke:none" />
</svg>