<?xml version="1.0" encoding="UTF-8" standalone="yes"?>
<!-- Created with sK1/UniConvertor (http://sk1project.org/) -->
<svg xmlns="http://www.w3.org/2000/svg" xmlns:xlink="http://www.w3.org/1999/xlink"
  width="595.276pt" height="841.89pt" viewBox="0 0 595.276 841.89"
  fill-rule="evenodd">
    <path
       style="fill:#000000;stroke:none"
       d="m 78.108849,33.149906 c -2.140532,0.03438 -4.222369,2.085805 -7.224988,5.799991 -0.879999,1.087998 -1.578998,2.043997 -2.424997,3.474994 -2.514996,4.256994 -6.29999,12.67498 -6.29999,12.67498 0,0 -2.817995,-0.727999 -4.624992,-1.774997 -1.648998,-0.955006 -2.746996,-2.664996 -3.949994,-4.174993 -0.921999,-1.156998 -1.034998,-1.461998 -1.199998,-2.974996 l -0.749999,-6.924989 c 0,0 -1.937997,0.008 -3.349995,0.175 -3.245994,0.385 -9.143985,4.318993 -10.949982,6.849989 -1.488998,2.087997 -2.701996,10.418984 -1.949997,13.474979 0.835998,3.396995 3.874994,9.599985 3.874994,9.599985 0,0 -0.650999,0.550999 -1.599998,1.349998 -9.550993,8.040999 -24.439953,14.476969 -34.2999454,21.824969 -5.1319919,3.82399 -4.35199314,2.817 2.1249966,2.45 1.1339982,-0.064 8.1499868,-0.475 8.1499868,-0.475 1.406998,-0.079 1.702998,-0.166 2.974996,-0.825 5.98899,-3.099 20.116968,-11.95098 23.224963,-17.599978 1.745997,-3.171995 4.291993,-11.836981 4.099993,-12.974979 -0.603999,-3.565995 -4.524993,-10.199984 -4.524993,-10.199984 0,0 1.105999,-0.845999 2.349997,-1.524998 2.803995,-1.529997 6.27499,-2.249996 6.27499,-2.249996 0,0 0.933998,6.614989 1.924997,9.699984 1.029006,3.201995 5.034992,6.215991 8.924986,7.249989 3.941993,1.047998 15.671975,0.420999 19.424969,-0.849999 0.084,-0.02896 0.187,-0.046 0.274999,-0.075 0.395,-0.132999 0.779999,-0.262999 1.149999,-0.374999 l 2.199999,-0.724999 1.174998,1.174998 c 0.361,0.366 0.699999,0.816999 1.099999,1.224998 3.308211,1.382009 6.32871,1.670505 8.912274,1.45058 4.071721,-0.371219 6.623613,-1.489061 9.812693,-4.125575 0.333,-0.425 0.531,-0.895999 0.7,-1.449998 0.32,-1.045998 0.486,-2.361996 0.875,-3.424995 0.706,-1.926997 2.15,-2.989995 2.675,-4.499993 0.34904,-1.001998 -1.153,-7.185988 -2.15,-11.649981 -0.4095,-1.830497 -0.86541,-3.792265 -1.95,-3.699994 -0.15494,0.01318 -0.31849,0.07138 -0.5,0.174999 -1.30199,0.743999 -2.942992,7.362989 -3.049992,8.624987 -0.119999,1.416998 0.02504,3.015995 0.45,4.274993 0.324002,0.961007 0.822002,1.737997 0.975002,3.299995 0.062,0.637999 0.075,1.399998 0.075,1.399998 -3.255215,0.996505 -9.728148,1.367877 -13.049983,-0.724999 l -0.949999,-0.4 1.074999,-3.399994 C 88.334836,51.576877 88.546836,50.718878 88.708836,49.67488 89.406803,45.205887 86.1188,39.732896 83.658804,36.8499 81.485303,34.301463 79.773671,33.123165 78.108809,33.149906 z m 0.32036,22.595124 -13.967986,0.284 c 0,0 -0.096,-0.705999 -0.066,-1.352998 0.06904,-1.490998 4.318993,-7.192997 5.347991,-8.268995 4.445001,-4.650993 6.958997,-3.553994 10.231992,0.831999 3.413998,4.573993 5.061995,7.491996 1.052002,8.272995 -0.929999,0.180999 -1.189002,0.204999 -2.597999,0.232999 z m -18.988978,-28.57297 -6.76099,7.307996 6.76099,7.307988 6.759989,-7.307988 -6.759989,-7.307996 z m 21.670977,53.575946 -6.759993,7.30799 6.759993,7.30899 6.759989,-7.30899 -6.759989,-7.30799 z m -31.05397,1.76899 5.119999,-5.53499 -6.764997,-7.312998 -6.764989,7.312998 5.119992,5.53499 -5.119992,5.535 6.764989,7.31299 6.764997,-7.31299 -5.119999,-5.535 z M 64.215223,17.021076 63.758224,7.5900834 c -0.064,-1.314998 -0.089,-1.543998 -0.251,-2.288996 -0.496999,-2.283997 -1.834997,-3.534995 -3.233995,-4.34299403 -1.777997,-1.025998 -3.134995,-1.407997 -4.967992,0.038 C 53.79724,2.1840914 53.65524,6.4890854 54.248239,7.1620844 c 0.441999,0.501999 1.612997,0.456999 3.030995,0.097 3.540995,-0.898998 3.895994,-0.691998 4.817993,3.3559946 0.437999,1.923997 0.489999,3.726002 0.273999,5.660999 -0.456999,4.108993 -1.532997,6.10699 0.574999,8.518986 0.876999,1.003999 1.793997,1.155998 3.794994,0.709999 1.421998,-0.316999 1.703997,-1.030998 2.299997,-3.158995 0.419999,-1.498997 0.751998,-2.840995 0.643999,-4.334993 -0.213,-2.963995 -3.177995,-8.5359936 0.396007,-9.9199916 0.658999,-0.255999 1.515997,-0.089 2.255996,0.085 0.995999,0.234999 1.164998,0.127999 1.689998,-1.063998 0.431999,-0.980999 0.930998,-1.882997 1.205998,-2.937996 1.030998,-3.96099303 -0.547999,-5.07899203 -3.714994,-3.45599403 -3.634003,1.86099703 -5.266,9.83498363 -4.489001,15.18098263 0.236999,2.203997 0.497999,4.187994 0.497999,4.187994 0,0 -0.605999,-0.008 -0.998998,-0.125 -0.488,-0.146 -0.645999,-0.460999 -1.003999,-0.782999 -0.218,-0.196 -0.509999,-0.393999 -0.800999,-0.514999 -0.392999,-0.163 -0.443999,-0.326999 -0.507999,-1.642997 z m 28.794974,2.037996 -0.152,-3.765994 c -0.06096,-1.522005 -0.04096,-1.794005 0.203,-2.727003 0.181999,-0.691999 0.372999,-1.447998 0.858998,-1.935997 1.182998,-1.1879976 4.111994,-0.7769986 5.469992,-1.7559976 1.955993,-1.408997 1.956993,-6.248989 0.451999,-8.20998603 -1.594997,-2.07999697 -4.820992,1.22299803 -6.14299,3.11399503 -0.811999,1.160998 -1.580998,2.490996 -1.925997,4.043994 -0.161,0.719998 -0.249,1.536997 -0.375,2.2519956 L 90.7852,13.576073 88.758196,10.788077 C 85.9832,6.8380844 86.830199,5.6650864 82.753205,4.5900884 c -1.365998,-0.359 -4.327996,-0.225 -4.896995,1.437997 -0.446,1.300998 0.599999,4.4639926 1.254998,5.2149916 0.503999,0.577999 2.543999,2.011997 3.386997,2.099996 1.376998,0.144 4.189994,-0.762998 4.189994,-0.762998 0,0 2.270996,3.534002 3.658002,5.192999 0.604999,0.723999 1.105998,1.306998 1.881997,1.322998 0.32,0.0056 0.781999,-0.03696 0.781999,-0.03696 z m -7.248997,6.75799 -0.354999,6.33699 C 90.7592,27.207059 102.61918,17.357075 107.84117,15.037079 c 0.582,-0.259 1.07101,-0.406 1.25201,-0.05896 0.144,0.276999 -1.29601,6.996989 0.517,5.057992 0.502,-0.535999 0.746,-1.941997 1.127,-3.158995 0.606,-1.939997 1.55899,-3.398003 2.94599,-4.658001 6.76099,-6.1349896 8.75999,-4.3239926 9.53199,-9.7679836 0.33,-2.32699603 0.097,-2.85599503 -1.76,-2.17599703 -2.054,0.75199903 -4.99999,2.46799703 -8.23899,4.59699303 C 110.08518,6.9311244 95.996192,16.797116 85.7612,25.817102 z m 9.753993,26.728965 0.607999,-0.012 c 0.272999,-0.0048 0.346999,-0.184999 0.732999,-1.796997 2.220996,-9.270985 2.626996,-14.390977 -2.837996,-20.336976 -0.899998,-0.978998 -1.947997,-1.800997 -2.623996,-0.922998 -0.457999,0.594999 -0.925998,4.799 -0.716999,5.715999 0.365,1.604997 1.447998,2.126996 2.698996,3.215995 2.823996,2.461996 3.531995,4.308993 3.172995,7.587988 -0.275999,2.515996 -1.033998,6.548989 -1.033998,6.548989 z" />
</svg>
