<?xml version="1.0" encoding="UTF-8" standalone="no"?>
<svg>
  <path
     d="m 105.96954,88.691183 -8.305005,9.043735 8.305005,9.043752 8.30374,-9.043752 -8.30374,-9.043735 z m -38.465885,13.419247 6.28875,-6.84875 -8.31,-9.05 -8.31124,9.05 6.28999,6.84875 -6.28999,6.84874 8.31124,9.05 8.31,-9.05 -6.28875,-6.84874 z m 28.85248,-33.12874 -17.15874,0.35 c 0,0 -0.1175,-0.8725 -0.0813,-1.6725 0.085,-1.84499 5.30625,-8.90124 6.57125,-10.23374 5.45874,-5.755 8.54749,-4.3975 12.56874,1.03125 4.193755,5.65875 6.218755,9.26999 1.2925,10.23624 -1.1425,0.225 -1.46125,0.25375 -3.1925,0.28875 z m -0.39197,-27.950715 c -2.629708,0.04259 -5.187115,2.560625 -8.875,7.15625 -1.08125,1.34749 -1.93,2.5425 -2.96875,4.3125 -3.09,5.26875 -7.75,15.6875 -7.75,15.6875 0,0 -3.4675,-0.92376 -5.6875,-2.21875 -2.02499,-1.1825 -3.36625,-3.2875 -4.84375,-5.15625 -1.1325,-1.43125 -1.26625,-1.815 -1.46875,-3.6875 l -0.9375,-8.5625 c 0,0 -2.36,0.0125 -4.09375,0.21875 -3.9875,0.475 -11.25,5.33625 -13.46875,8.46875 -1.83,2.58375 -3.33,12.90625 -2.40625,16.6875 1.0275,4.205 4.78125,11.875 4.78125,11.875 0,0 -0.83375,0.66625 -2,1.65625 -11.73375,9.95 -30.01126,17.938755 -42.125,27.031255 -6.30375,4.73125 -5.3325,3.48625 2.625,3.03125 1.3925,-0.0788 10.03125,-0.59375 10.03125,-0.59375 1.72875,-0.0987 2.09375,-0.185 3.65625,-1 7.3575,-3.835 24.68125,-14.82251 28.5,-21.812505 2.14375,-3.925 5.26875,-14.6225 5.03125,-16.03125 -0.74125,-4.4125 -5.5625,-12.625 -5.5625,-12.625 0,0 1.3775,-1.035 2.90625,-1.875 3.44374,-1.89375 7.6875,-2.8125 7.6875,-2.8125 0,0 1.18875,8.18375 2.40625,12 1.26375,3.96375 6.15876,7.68875 10.9375,8.96875 4.84125,1.29625 19.265,0.54 23.875,-1.03125 0.10375,-0.0362 0.205,-0.08875 0.3125,-0.125 0.485,-0.16375 0.98375,-0.29875 1.4375,-0.4375 l 2.718755,-0.90625 1.40625,1.46875 c 0.4425,0.45375 0.88375,1.02625 1.375,1.53125 6.43395,2.707343 12.01784,2.0082 15.95876,0.792212 4.80618,-1.55409 9.10825,-3.806671 12.66624,-6.729712 0.40747,-0.52497 0.66626,-1.12754 0.875,-1.8125 0.39247,-1.29366 0.58503,-2.93633 1.0625,-4.25 0.86744,-2.38484 2.63505,-3.66262 3.28125,-5.53125 0.42873,-1.23992 -1.40008,-8.912869 -2.625,-14.4375 -0.5031,-2.265008 -1.07383,-4.676992 -2.40625,-4.5625 -0.19035,0.01636 -0.40205,0.05923 -0.625,0.1875 -1.59865,0.91994 -3.58751,9.125099 -3.71875,10.6875 -0.14749,1.753635 0.0101,3.72136 0.53125,5.28125 0.39873,1.18743 1.00001,2.16137 1.1875,4.09375 0.0762,0.78994 0.0937,1.71875 0.0937,1.71875 -4.94995,2.040757 -16.02281,5.026346 -21.65625,1.75 l -1.15625,-0.5 1.3125,-4.21875 c 0.27875,-0.89375 0.55,-1.95875 0.75,-3.25 0.85625,-5.53125 -3.19751,-12.27626 -6.21875,-15.84375 -2.67039,-3.153281 -4.767176,-4.626874 -6.812505,-4.59375 z M 78.896145,21.06297 78.333645,9.3929798 c -0.0775,-1.62875 -0.10875,-1.91125 -0.30875,-2.83375 -0.61,-2.82625 -2.25375,-4.37375 -3.97125,-5.37375 -2.185,-1.26999993 -3.8525,-1.74249993 -6.10499,0.0463 -1.85125,1.47125 -2.025,6.7975 -1.2975,7.63 0.5425,0.6225 1.9825,0.56625 3.72374,0.12 4.35,-1.1125 4.785,-0.855 5.91875,4.1537402 0.53875,2.38 0.60125,4.61125 0.3375,7.005 -0.5625,5.085 -1.88375,7.5575 0.705,10.54249 1.0775,1.24125 2.20375,1.43 4.6625,0.87875 1.7475,-0.3925 2.09375,-1.27624 2.82625,-3.90999 0.515,-1.855 0.9225,-3.515 0.79125,-5.36375 -0.2625,-3.66875 -3.905,-10.56374 0.485,-12.27624 0.81,-0.3162502 1.86374,-0.1100002 2.77124,0.10625 1.22375,0.29 1.43125,0.15875 2.0775,-1.3175002 0.53,-1.21375 1.14375,-2.33 1.48125,-3.635 1.26625,-4.90124993 -0.6725,-6.285 -4.56375,-4.27749993 -4.46374,2.30374993 -6.46874,12.17124013 -5.51499,18.78624013 0.29125,2.7275 0.61125,5.1825 0.61125,5.1825 0,0 -0.74375,-0.01 -1.22625,-0.155 -0.59875,-0.18125 -0.795,-0.57125 -1.23375,-0.96875 -0.2675,-0.2425 -0.62625,-0.4875 -0.985,-0.6375 -0.4825,-0.20125 -0.545,-0.405 -0.6225,-2.0325 z m 35.373735,2.52125 -0.1875,-4.66 c -0.075,-1.8825 -0.05,-2.22 0.25,-3.37375 0.2225,-0.85625 0.45875,-1.7925 1.055,-2.39625 1.4525,-1.46999 5.05125,-0.96124 6.72,-2.17249 2.40249,-1.7437502 2.40374,-7.7325002 0.555,-10.16000013 -1.96,-2.57375007 -5.9225,1.51374993 -7.54625,3.85249993 -0.9975,1.4375 -1.9425,3.08375 -2.36625,5.005 -0.1975,0.8912502 -0.30625,1.9012502 -0.46,2.7862502 l -0.75375,4.33374 -2.49,-3.45 c -3.40875,-4.8874902 -2.36875,-6.3399902 -7.37749,-7.6687402 -1.677505,-0.445 -5.316255,-0.27875 -6.016255,1.77875 -0.5475,1.61 0.7375,5.5237402 1.5425,6.4537402 0.61875,0.715 3.125005,2.48875 4.160005,2.5975 1.6925,0.17875 5.14874,-0.94375 5.14874,-0.94375 0,0 2.78875,4.3725 4.49375,6.42625 0.7425,0.89625 1.3575,1.6175 2.31125,1.6375 0.39375,0.007 0.96125,-0.0462 0.96125,-0.0462 z m -8.90625,8.36249 -0.43624,7.84125 c 6.57749,-6.12125 21.14623,-18.30999 27.56123,-21.18124 0.715,-0.32 1.315,-0.50125 1.5375,-0.0725 0.17875,0.3425 -1.59125,8.65875 0.63625,6.26 0.61625,-0.66375 0.91625,-2.40375 1.38375,-3.91 0.745,-2.4 1.915,-4.205 3.62,-5.76375 8.30499,-7.5924902 10.75999,-5.3512402 11.70874,-12.0874902 0.40625,-2.87999993 0.12,-3.53374993 -2.16125,-2.69249993 -2.52375,0.92999993 -6.1425,3.05374993 -10.12124,5.68874993 -3.84625,2.5475 -21.15499,14.7562402 -33.72874,25.9174802 z m 11.98375,33.07624 0.74625,-0.015 c 0.335,-0.006 0.42625,-0.22875 0.9,-2.22375 2.72875,-11.4725 3.2275,-17.80874 -3.48625,-25.16624 -1.105,-1.21125 -2.39375,-2.2275 -3.2225,-1.1425 -0.56375,0.7375 -1.13875,5.93875 -0.88125,7.07375 0.44875,1.9875 1.77875,2.63125 3.315,3.98 3.47,3.04624 4.34,5.33249 3.89875,9.38999 -0.33875,3.11375 -1.27,8.10375 -1.27,8.10375 z"
     style="fill:#000000;stroke:none" />
</svg>
