<?xml version="1.0" encoding="UTF-8" standalone="no"?>
<svg>
  <path
     style="stroke:none; fill:#000000"
     d="m 47.984383,54.2567 c 0,0 4.77876,-1.56125 6.67376,-1.13 0.99875,0.2275 2.0325,2.025 2.68125,3.40375 1.1775,2.50125 2.3125,5.72251 2.74375,8.27876 0.14375,0.85125 0.29875,1.6375 1.175,1.93625 0.55125,0.18875 1.39126,0.2 1.39126,0.2 0,0 0.002,-0.0125 0.007,-0.0375 0.41875,-2.3575 1.35,-6.31126 1.5875,-8.69501 0.25,-2.50375 0.19375,-3.37125 2.32625,-3.21375 3.22125,0.24 4.315,0.80875 5.73126,-1.7625 1.27,-2.30626 2.66125,-7.01376 0.445,-8.53876 -6.85751,-1.8475 -9.41751,7.17501 -9.84751,9.24001 -0.60625,2.915 -0.86,6.0425 -0.86,6.0425 0,0 -1.68001,-5.4 -2.91626,-8.31625 -1.38875,-3.28001 -4.97625,-7.69876 -8.84751,-6.59501 -1.9225,0.54875 -2.5975,2.12125 -2.59625,4.2025 10e-4,1.91625 0.305,4.98501 0.305,4.98501 z m 8.06126,35.55753 c 0.20375,2.80126 1.51,4.54251 3.8875,5.04501 3.06626,0.64875 4.80001,-1.01375 5.58626,-4.37751 0.1725,-0.7375 0.13375,-1.35375 -0.34125,-1.65 -0.90375,-0.565 -3.38501,0.0213 -4.58376,-0.61625 -1.4925,-0.79125 -1.8725,-4.16125 -1.5025,-5.73625 0.36875,-1.57626 1.31125,-3.26501 1.5675,-4.48001 0.0512,-0.24625 0.0763,-0.47375 -0.0312,-0.6 -0.0138,-0.0163 -0.0275,-0.0312 -0.0412,-0.045 -3.60875,-0.8225 -4.48625,13.21626 -4.54125,12.46001 z m 118.578867,-45.69754 -6.10126,6.06125 c -1.01375,1.0075 -1.15875,1.18876 -1.4425,1.80876 -0.39625,0.86875 -0.53375,2.32125 -0.33875,2.51875 0.63125,0.6375 2.86625,-0.91 3.64375,-1.48375 6.81126,-5.02376 9.91376,-8.18751 11.01501,-14.69252 0.56,-3.30625 -1.19,-4.585 -4.2875,-5.0075 -4.91501,-0.66875 -9.79126,0.0162 -11.70001,3.71625 0.2975,14.12626 0.7175,6.04751 4.885,5.04501 4.63501,-1.11626 9.62001,-3.59376 4.32626,2.03375 z m 2.52875,-24.04503 -0.56625,-10.8137602 c -0.085,-1.605 -0.1175,-1.88375 -0.33125,-2.7925 -0.655,-2.785 -2.41876,-4.31125 -4.26376,-5.29625 -2.34375,-1.25250995 -4.13375,-1.71750995 -6.55,0.0462 -1.98751,1.45 -2.17501,6.69875 -1.39376,7.52 0.58251,0.6125 2.12751,0.55625 3.99626,0.1175 4.66875,-1.09625 5.13625,-0.84375 6.3525,4.0937602 0.57751,2.34625 0.64626,4.54375 0.36126,6.90375 -0.60251,5.01126 -2.02126,7.44876 0.7575,10.39001 1.1575,1.22376 2.365,1.40876 5.00375,0.86626 1.875,-0.38626 2.2475,-1.25751 3.0325,-3.85376 0.55375,-1.8275 0.99125,-3.46375 0.85,-5.28625 -0.28125,-3.61501 -4.19,-10.41126 0.52126,-12.0987702 0.86875,-0.31125 1.99875,-0.10875 2.97375,0.10375 1.31375,0.2862502 1.53625,0.1562502 2.22875,-1.2975 0.56875,-1.19625 1.2275,-2.29625 1.59,-3.5825 1.36,-4.83124995 -0.72125,-6.19501 -4.8975,-4.21624995 -4.79126,2.26999995 -6.94251,11.99626015 -5.91876,18.51501015 0.3125,2.68876 0.65625,5.10876 0.65625,5.10876 0,0 -0.28625,-0.004 -0.6275,-0.0375 -1.34125,-0.1325 -3.645,-1.9125 -3.775,-4.39001 z m 17.09626,85.07384 c -0.455,2.8375 0.0975,3.535 1.98376,2.66375 1.285,-0.59375 17.86126,-10.23501 20.28127,-13.12251 0.975,-1.1625 1.9475,-3.22001 2.29125,-5.07001 0.21125,-1.14 -0.13125,-1.09875 -1.35875,-0.64375 -2.84376,1.0575 -21.59627,12.47376 -22.18377,13.50501 -0.55001,0.96376 -0.90126,1.96376 -1.01376,2.66751 z m -21.76127,-21.98627 5.08126,5.08125 7.0625,-7.06251 -7.0625,-7.0625 -5.08126,5.08125 -5.0825,-5.08125 -7.06251,7.0625 7.06251,7.06251 5.0825,-5.08125 z m -36.38378,20.46752 5.08125,5.08125 7.06376,-7.06251 -7.06376,-7.06375 -5.08125,5.0825 -5.08251,-5.0825 -7.0625,7.06375 7.0625,7.06251 5.08251,-5.08125 z m 5.08125,-29.51128 -7.0625,7.0625 7.0625,7.06251 7.06376,-7.06251 -7.06376,-7.0625 z m 64.53007,0 -7.06376,7.0625 7.06376,7.06251 7.0625,-7.06251 -7.0625,-7.0625 z M 78.241913,75.55922 c 2.25625,0.0213 4.35251,0.0963 5.86626,0.26125 3.645,0.4 6.7375,3.525 8.03125,-1.405 1.09876,-4.17876 -6.68375,-3.11251 -10.40126,-3.10251 -9.3625,0.025 -68.60881,0.18875 -68.60881,0.18875 0,0 -0.1225,-0.91625 -0.025,-1.4025 0.165,-0.81625 3.71375,-2.34375 4.04625,-2.465 2.54,-0.92375 4.77751,-0.15 6.40501,-1.28125 1.81625,-1.26125 2.8725,-4.89626 4.2625,-6.79251 0.52625,-0.71625 0.98625,-0.87625 2.15375,-0.40625 0.21,0.0838 0.49375,0.22875 0.8,0.385 1.39626,0.71 3.03001,-0.0375 2.66501,-2.6325 -0.0275,-0.19625 -0.0687,-0.3875 -0.125,-0.56125 -0.47625,-1.505 -2.34626,-2.01875 -3.72876,-1.49 -0.7975,0.30625 -1.52,0.9825 -2.1075,1.79 -1.43375,1.97 -2.065,4.7175 -3.63,5.99126 -1.545,1.25625 -3.99876,1.07875 -6.63501,1.8225 -3.975,1.12 -6.83626,3.12 -7.6025101,6.1225 -0.9925,3.88626 0.8312501,5.21501 4.0725101,5.61001 2.065,0.25125 69.34757,-0.5875 64.56131,-0.6325 z m 74.341317,-14.08627 -11.29501,0.19626 c -1.5775,0.0275 -1.82875,-0.0113 -2.51125,-0.38876 -0.5075,-0.28 -0.91875,-0.7025 -1.35,-1.0825 -0.75875,-0.6675 -1.57875,-1.2025 -2.13375,-1.92875 -0.92125,-1.205 -1.11125,-2.935 -1.5425,-4.6475 -1.85501,-7.36376 -10.55127,-3.93626 -15.80502,-1.76875 -4.665,1.925 -13.19001,6.72875 -16.32252,12.90626 -0.98875,1.94875 -1.23375,4.48125 -2.276247,6.4425 -1.3225,2.48876 -1.85375,3.66126 0.922497,5.49751 1.40625,0.93 5.93501,3.09 8.29751,3.79875 2.3625,0.71 4.4825,0.625 7.57376,1.76626 2.7325,1.00875 6.22375,2.9775 6.22375,2.9775 0,0 -1.29375,1.59375 -2.6175,2.80125 -1.16875,1.065 -8.55251,3.84875 -12.18876,4.59501 -3.445,0.70625 -6.83126,1.87375 -10.467507,2.81125 -1.78125,0.46 -6.60876,1.17 -12.10751,1.85125 -21.90752,2.71875 -62.18256,6.00626 -79.1500801,-13.14126 -5.44874999,-6.14876 -8.85251,-6.94751 -2.03375,5.20875 0.26625,0.475 0.47875,0.8225 0.60375,0.98125 0.89,1.13875 3.5875,3.39001 6.3450101,5.55251 27.14252,21.27002 78.05507,15.36126 106.267597,0.4375 3.7575,-1.98625 6.28,-4.49376 9.50251,-9.98376 1.115,-1.89875 2.31875,-4.24876 2.4625,-4.79501 0.9625,-3.67125 -2.79,-7.345 -6.64251,-8.64375 -4.29125,-1.44751 -9.19125,-1.69251 -14.32251,-4.24001 -1.93625,-0.96125 -4.06125,-2.2525 -4.06125,-2.2525 0,0 8.61625,-4.60125 13.55001,-6.38501 3.68875,-1.3325 8.47751,-2.1925 10.15126,1.3425 2.18875,4.62251 1.2725,6.26501 4.62375,8.33251 0.7575,0.46625 1.49876,0.8525 2.25126,1.13 0.50125,0.57375 9.95001,0.57375 15.60376,-2.41625 1.35625,-2.37875 1.815,-5.175 3.47875,-3.76125 0.4825,0.41125 0.91751,1.13875 1.46876,1.79625 2.42125,2.89 5.70375,3.05125 9.21875,3.5675 2.91626,0.43 14.98377,-0.21375 16.27252,-0.8675 1.58625,-0.805 3.09125,-1.95125 4.51251,-2.96875 l 4.23625,-3.0275 2.6325,1.895 c 0.18125,0.13 0.37875,0.27125 0.5975,0.425 0.96375,0.67 1.95,1.1725 2.99001,1.57875 3.94375,1.54 15.63376,5.96751 19.15626,1.75375 2.19376,-2.625 5.33251,-7.70501 5.88626,-9.62751 1.25375,-4.3475 -1.96125,-16.48751 -3.85125,-21.04002 -0.5175,-1.24375 -1.23626,-2.2625 -2.30876,-1.7125 -0.8475,0.43625 -3.9975,6.33626 -4.30375,7.78751 -0.47875,2.26375 0.71,3.52875 1.85625,5.985 1.32,2.82751 1.78,6.37001 2.5,9.30376 0.36,1.4675 0.26375,1.64375 -0.90875,1.53 -0.42125,-0.0412 -0.63875,-0.0838 -2.1775,-0.435 -3.8975,-0.89 -9.65251,-2.0475 -11.55626,-3.17625 -2.38875,-1.41625 -5.03376,-4.435 -6.64376,-4.07 -1.36,0.3075 -3.36375,2.795 -5.165,4.075 -3.45626,2.45875 -16.67502,3.62375 -19.69502,3.17375 -4.17876,-0.6225 -9.56376,-2.9 -10.88501,-5.0675 -0.935,-1.535 -1.88,-7.73626 -2.5625,-11.66001 -0.27,-1.555 -0.3475,-1.7325 -0.7675,-1.7725 -0.90376,-0.0875 -1.23876,0.12375 -1.56626,0.665 -1.5725,2.59125 -2.37875,6.19 -1.8975,8.44625 0.325,1.52501 1.1525,2.99001 1.5575,5.58126 0.3125,1.99875 0.37375,4.6675 0.37375,4.6675 z m 55.32256,-43.86004 c -0.004,-0.32375 0.0738,-0.63875 0.155,-0.95625 1.08625,-4.25875 2.4475,-7.1862602 1.38375,-11.0625102 -0.63875,-2.33375 -2.0675,-5.59375994894 -2.0675,-5.59375994894 0,0 -1.9825,3.17250994894 -2.48001,4.95250994894 -0.23125,0.83125 -0.13875,1.35875 0.08,2.0275 1.07626,3.2800002 2.45126,4.9812602 2.28251,7.3100102 -0.48125,6.68251 -7.12251,12.15001 -2.06876,15.34251 1.84501,1.165 5.46626,1.61626 6.47501,1.055 2.15625,-1.19875 3.24375,-8.945 1.4825,-10.62501 -0.8325,-0.79375 -2.2975,-1.16625 -3.53875,-1.5025 -1.52875,-0.415 -1.69875,-0.51 -1.70375,-0.9475 z m -68.20882,5.76626 c -2.36,7.70876 -4.8325,13.34001 1.99125,16.82126 4.80126,2.45001 7.61251,0.0563 8.67251,-5.23375 0.505,-2.52125 -0.1775,-3.66375 -3.595,-5.07876 -1.0925,-0.4525 -2.205,-0.76375 -3.31251,-0.76125 -2.80375,0.009 -3.875,0.875 -3.17,-2.51375 0.62625,-3.0125 2.54625,-6.72001 3.62001,-10.11126 0.70125,-2.21375 1.23625,-4.94 0.75375,-7.0362602 -0.34875,-1.51625 -1.22626,-3.015 -1.54126,-4.635 -0.40125,-2.0675 -0.79875,-5.74125995 -2.94375,-4.62249995 -0.87625,0.4575 -1.9175,2.62624995 -2.03125,4.12499995 -0.0525,0.685 0.065,1.2425 0.26875,1.85625 2.13,6.4325102 4.4925,8.7100102 2.125,15.0550202 -0.28375,0.76 -0.67,1.5875 -0.8375,2.135 z" />
</svg>
