<?xml version="1.0"?>
<svg xmlns="http://www.w3.org/2000/svg" version="1.1">
  <path
     d="m 21.665309,8.70096 -4.516,4.784 c -0.751,0.795 -0.858,0.938 -1.068,1.428 -0.294,0.686 -0.395,1.832 -0.251,1.988 0.468,0.503 2.122,-0.719 2.698,-1.171 5.041,-3.965 7.338,-6.463 8.153,-11.597 0.415,-2.61 -0.881,-3.62 -3.174,-3.953 -3.638,-0.528 -7.248,0.012 -8.661,2.933 0.221,11.151 0.532,4.774 3.616,3.982 3.432,-0.88 7.122,-2.836 3.203,1.606 z m 35.83,17.748 -5.427,5.787 5.427,5.788 5.427,-5.788 -5.427,-5.787 z m -46.8,-11.311 c -0.011,-0.052 -0.024,-0.103 -0.04,-0.151 -0.16,-0.476 -0.513,-0.659 -1.0050003,-0.624 -0.604,0.042 -1.429,0.393 -2.182,0.674 -2.462,0.922 -4.131,-0.591 -5.089,-2.722 -1.269,-5.432 5.742,-10.685 5.752,-11.058 0.01,-0.397 -10e-4,-0.906 -0.109,-1.124 -0.198,-0.401 -0.723,0.182 -1.265,0.749 -3.916,4.099 -5.709,5.795 -6.66099999,11.033 -0.157,0.864 -0.123,1.804 0.109,2.703 0.372,1.445 1.30199999,2.742 2.48699999,3.421 0.041,0.024 0.084,0.046 0.127,0.068 1.696,0.848 8.5530003,0.256 7.8760003,-2.969 z m 13.755,4.202 c -2.107,3.054 -3.38,8.862 -3.124,10.411 0.103,0.618 0.447,1.467 0.951,2.077 1.859,2.252 7.953,2.619 10.207,2.553 0.316,-0.009 0.629,-0.018 0.913,-0.027 0,0 1.671,0.175 1.671,0.175 0,0 -0.559,0.611 -1.118,1.222 -2.082,2.276 -8.063,3.163 -10.853,3.499 -1.523,0.183 -2.93,0.269 -3.998,0.208 -6.401,-0.364 -10.7350003,-4.055 -12.3590003,-11.659 -1.097,-5.141 -0.063,-16.757 -2.072,-12.691 -0.632,1.28 -1.306,3.064 -1.633,4.483 -0.733,3.191 -1.411,9.19 -0.489,14.222 2.232,12.18 9.2740003,14.566 15.3550003,14.387 10.985,-0.324 13.117,-3.907 21.313,-10.741 2.042,-1.703 2.176,-1.999 1.452,-8.268 -0.45,-3.896 -0.923,-2.891 -5.747,-3.054 -0.765,-0.026 -1.34,-0.045 -1.34,-0.045 -1.265,-0.043 -1.46,-0.065 -1.955,-0.226 -1.433,-0.466 -2.066,-1.61 -1.553,-3.067 0.423,-1.199 5.101,-3.424 6.104,-3.652 1.289,-0.293 2.102,-0.26 2.495,0.449 0.291,0.525 0.609,1.558 0.895,2.661 0.979,3.776 1.763,7.353 7.536,7.206 2,-0.051 4.017,-1.845 5.317,-3.487 1.824,-2.302 4.896,-8.973 5.099,-12.458 0.14,-2.417 -0.598,-8.201 -1.41,-10.078 -0.561,-1.298 -1.377,-2.741 -1.377,-2.741 0,0 -2.202,3.113 -3.493,4.97 -1.424,2.046 -1.822,2.991 -1.278,5.462 0.467,2.126 1.64,4.161 1.75,6.142 0.064,1.16 -0.7,3.15 -1.363,3.548 -1.092,0.656 -5.689,-0.46 -6.546,-2.417 -0.47,-1.073 -0.717,-3.007 -0.966,-4.608 -0.409,-2.634 -0.429,-3.1 -2.825,-3.172 -0.384,-0.011 -0.827,0.044 -1.219,0.102 -0.949,0.14 -1.601,0.299 -2.483,0.683 -5.274,2.293 -8.427,2.959 -11.857,7.931 z"
     style="fill:#000000;stroke:none" />
</svg>
