<?xml version="1.0" encoding="UTF-8" standalone="yes"?>
<!-- Created with sK1/UniConvertor (http://sk1project.org/) -->
<svg xmlns="http://www.w3.org/2000/svg" xmlns:xlink="http://www.w3.org/1999/xlink"
  width="595.276pt" height="841.89pt" viewBox="0 0 595.276 841.89"
  fill-rule="evenodd">
  <path
     d="M 17.332164,6.9604878 13.719381,10.78767 c -0.600797,0.635997 -0.686396,0.750396 -0.854395,1.142394 -0.235199,0.548798 -0.315999,1.465593 -0.200799,1.590392 0.374398,0.402399 1.697591,-0.575197 2.158389,-0.936795 4.03278,-3.1719852 5.870371,-5.1703752 6.522368,-9.2775552 0.331999,-2.08799 -0.704796,-2.89598602 -2.539187,-3.16238442 -2.910386,-0.4223979 -5.798372,0.0096 -6.928767,2.34638842 0.176799,8.9207572 0.425598,3.819182 2.892786,3.185585 2.745587,-0.703997 5.697572,-2.268789 2.562388,1.284793 z m 28.66386,14.1983312 -4.341579,4.629578 4.341579,4.630377 4.341579,-4.630377 -4.341579,-4.629578 z M 8.5562061,12.110063 c -0.0088,-0.0416 -0.0192,-0.0824 -0.032,-0.120799 C 8.3962067,11.608466 8.1138081,11.462066 7.7202098,11.490066 7.2370121,11.523666 6.5770153,11.804465 5.9746183,12.029264 4.0050279,12.76686 2.6698344,11.556466 1.9034381,9.8516738 0.88824303,5.5060958 6.4970157,1.3037158 6.5050157,1.0053168 c 0.008,-0.31759802 -8e-4,-0.72479602 -0.0872,-0.89919522 C 6.2594165,-0.21467682 5.8394185,0.25172088 5.4058206,0.70531878 2.2730359,3.9845028 0.83864287,5.3412958 0.07704659,9.5316758 -0.0485528,10.222873 -0.02135293,10.974869 0.16424617,11.694065 c 0.29759855,1.155995 1.04159493,2.19359 1.98959033,2.736787 0.0328,0.0192 0.0672,0.0368 0.1015995,0.0544 1.3567934,0.678396 6.8423669,0.204799 6.3007695,-2.375189 z m 11.0039469,3.361584 c -1.685592,2.443188 -2.703987,7.089565 -2.499188,8.328759 0.0824,0.494398 0.357598,1.173595 0.760796,1.661592 1.487193,1.801592 6.362369,2.09519 8.165561,2.04239 0.252798,-0.0072 0.503197,-0.0144 0.730396,-0.0216 0,0 1.336794,0.14 1.336794,0.14 0,0 -0.447198,0.488797 -0.894396,0.977595 -1.665592,1.820791 -6.450369,2.530388 -8.682358,2.799186 -1.218394,0.1464 -2.343988,0.215199 -3.198384,0.1664 C 10.158599,31.27477 6.691415,28.321984 5.3922213,22.238814 4.5146256,18.126034 5.3418215,8.8332788 3.7346294,12.086063 3.2290318,13.110058 2.6898345,14.537252 2.4282357,15.672446 1.8418386,18.225234 1.2994412,23.02441 2.0370376,27.049991 c 1.7855913,9.743952 7.4191641,11.652743 12.2839404,11.509543 8.787958,-0.259198 10.493549,-3.125584 17.050317,-8.592758 1.633592,-1.362393 1.740792,-1.599192 1.161595,-6.614367 -0.359999,-3.116785 -0.738397,-2.312789 -4.597578,-2.443189 -0.611997,-0.0208 -1.071995,-0.036 -1.071995,-0.036 -1.011995,-0.0344 -1.167994,-0.052 -1.563992,-0.180799 -1.146394,-0.372799 -1.652792,-1.287994 -1.242394,-2.453589 0.338398,-0.959195 4.08078,-2.739186 4.883176,-2.921585 1.031195,-0.234399 1.681592,-0.207999 1.99599,0.359198 0.232799,0.419998 0.487198,1.246394 0.715997,2.12879 0.783196,3.020785 1.410393,5.882371 6.028771,5.764772 1.599992,-0.0408 3.213584,-1.475993 4.253579,-2.789587 1.459193,-1.841591 3.916781,-7.178365 4.07918,-9.966351 0.112,-1.9335912 -0.478398,-6.5607682 -1.127994,-8.0623612 -0.448798,-1.038395 -1.101595,-2.19278902 -1.101595,-2.19278902 0,0 -1.761592,2.49038702 -2.794386,3.97598002 -1.139195,1.636792 -1.457593,2.392789 -1.022395,4.369579 0.373598,1.7007922 1.311993,3.3287842 1.399993,4.9135762 0.0512,0.927995 -0.559998,2.519988 -1.090395,2.838386 -0.873596,0.524798 -4.551178,-0.367998 -5.236774,-1.93359 -0.375999,-0.858396 -0.573598,-2.405589 -0.772797,-3.686382 -0.327198,-2.1071902 -0.343198,-2.4799882 -2.259989,-2.5375882 -0.307198,-0.0088 -0.661596,0.0352 -0.975195,0.0816 -0.759196,0.111999 -1.280794,0.239198 -1.98639,0.546397 -4.21918,1.8343912 -6.741567,2.3671882 -9.485554,6.3447692 z"
     style="fill:#000000;stroke:none" />
</svg>
