<?xml version="1.0" encoding="UTF-8" standalone="yes"?>
<!-- Created with sK1/UniConvertor (http://sk1project.org/) -->
<svg xmlns="http://www.w3.org/2000/svg" xmlns:xlink="http://www.w3.org/1999/xlink"
  width="595.276pt" height="841.89pt" viewBox="0 0 595.276 841.89"
  fill-rule="evenodd">
  <path
     style="fill:#000000;stroke:none"
     d="M 84.933747,16.056287 84.480746,7.4052762 c -0.06704,-1.283002 -0.094,-1.506002 -0.265,-2.233003 -0.524001,-2.229003 -1.935003,-3.449005 -3.411005,-4.23700604 -1.875002,-1.002002 -3.307004,-1.374002 -5.240007,0.036 -1.59,1.16000104 -1.74,5.36000704 -1.114999,6.01600804 0.466001,0.490001 1.702,0.446001 3.197002,0.095 3.735005,-0.877001 4.109006,-0.675001 5.082007,3.2750038 0.462,1.877003 0.517001,3.635005 0.29,5.523008 -0.483,4.008005 -1.618002,5.958008 0.605001,8.311011 0.926001,0.980001 1.892003,1.128002 4.003005,0.693001 1.500003,-0.309 1.798003,-1.005001 2.427004,-3.082004 0.442,-1.462002 0.792001,-2.772004 0.679001,-4.230006 -0.225001,-2.892004 -3.352005,-8.3280108 0.417,-9.6780128 0.695001,-0.25 1.599002,-0.087 2.379003,0.083 1.051002,0.229 1.229002,0.125 1.783003,-1.038001 0.456001,-0.957001 0.983001,-1.837003 1.272002,-2.867004 C 97.671764,0.20826616 96.006762,-0.88273584 92.665757,0.70026716 88.832752,2.5162692 87.11175,10.296279 87.930751,15.512286 c 0.25,2.150003 0.525001,4.086006 0.525001,4.086006 0,0 -0.229001,-0.003 -0.502001,-0.029 -1.073002,-0.106 -2.916004,-1.530002 -3.020004,-3.513005 z m -34.400148,28.262184 6.099917,-6.099917 -6.099917,-6.099917 -6.099918,6.099917 6.099918,6.099917 z m 36.682519,37.257603 6.099912,-6.099918 -6.099912,-6.100918 -6.09992,6.100918 6.09992,6.099918 z M 0,56.318275 9.9965031,68.667133 c 1.7002559,2.101315 3.5915399,4.972747 5.4538199,6.994051 1.443217,1.565235 9.533434,4.89374 12.622898,5.19178 11.759768,1.13817 38.776831,2.49938 49.105383,-9.345404 2.625396,-3.011453 6.0049,-8.57329 6.0049,-8.57329 l 0.04504,0.560084 c 0,0 3.358508,0.238036 5.551839,0.121019 2.402355,-0.128019 3.406509,-0.681103 4.412662,-1.478223 1.911283,-1.515228 5.020751,-6.906038 5.507823,-9.548435 0.422065,-2.292345 -2.202331,-14.388164 -3.233484,-14.900241 -2.214331,-1.101166 -4.056605,2.32535 -4.252638,5.821876 -0.176024,3.138471 0.559081,6.430967 1.852275,9.588441 0.704113,1.720259 1.024161,2.463371 -0.09601,2.998451 -3.421517,1.633245 -9.520437,-1.283193 -10.653607,-4.033606 -0.937137,-2.273343 0.306049,-8.892337 -2.897433,-6.297947 -1.867281,1.513227 -2.943443,8.035208 -2.552384,10.394563 0.584088,3.52753 2.863431,9.257391 2.863431,9.257391 0,0 -12.610897,5.036758 -21.853287,7.70616 -0.130019,0.03701 -0.281042,0.07501 -0.451068,0.111016 -7.684155,1.656249 -17.043562,1.66425 -25.401819,0.100015 C 18.835832,70.867463 10.701609,65.164605 5.9348923,60.27087 3.3765077,58.566613 0,56.318275 0,56.318275 z m 71.969821,-3.728703 c 0,0 0.784118,-2.085314 1.149173,-3.619544 0.661099,-2.777419 -0.249037,-5.351805 -2.545383,-6.546985 -1.20218,-0.626094 -4.176628,-1.087163 -4.501676,0.754113 -0.09101,0.510077 -0.03501,1.255189 -0.496075,1.295195 -0.13502,0.012 -0.314047,-0.03401 -0.314047,-0.03401 0,0 1.144172,-7.165078 1.248187,-10.854632 0.04201,-1.480223 -1.274191,-11.70476 -4.233636,-10.087517 -1.06616,0.583088 -1.689254,3.201481 -1.581238,4.304647 0.234036,2.382358 2.229335,4.78872 3.109467,7.196082 0.463071,1.265191 0.618094,2.53038 0.447068,3.838577 -0.289043,2.222334 -1.517228,4.568687 -1.567235,6.839029 -0.04701,2.116318 1.032155,5.726861 2.620394,6.367957 2.004301,0.807121 6.665001,0.547082 6.665001,0.547082 z" />
</svg>
