<?xml version="1.0" encoding="UTF-8" standalone="yes"?>
<!-- Created with sK1/UniConvertor (http://sk1project.org/) -->
<svg xmlns="http://www.w3.org/2000/svg" xmlns:xlink="http://www.w3.org/1999/xlink"
  width="595.276pt" height="841.89pt" viewBox="0 0 595.276 841.89"
  fill-rule="evenodd">
  <path
     style="fill:#000000;stroke:none"
     d="m 13.215358,52.200595 0.174,-2.143005 -3.039996,0.680007 C -4.4306321,54.041592 7.0163668,28.904605 4.184363,33.503607 c -3.2609951,5.296992 -4.68799297,11.62099 -4.02599396,17.27699 0.0730399,0.616999 0.15099978,1.178998 0.24799963,1.692997 C 1.9483664,60.72059 12.707359,58.467585 13.215358,52.200595 z m 29.15198,-39.033974 c -0.790999,4.884993 -3.534995,12.26499 0.967999,14.505986 3.246003,1.614998 5.575999,0.212 6.281998,-3.293995 0.257,-1.275998 0.113,-2.122997 -0.863998,-2.642996 -1.632998,-0.867999 -5.267001,-0.634999 -6.145999,-1.597005 -0.324,-0.355 -0.307,-0.868999 -0.192,-1.502998 0.908999,-4.998993 2.120997,-5.653992 1.599998,-9.5219939 -0.249,-1.846998 -1.987997,-10.335993 -4.427994,-8.96399499 -1.287998,0.723007 -1.866997,3.34000299 -1.285998,4.24500199 0.337,0.524999 1.119999,1.078998 1.644998,1.673997 1.043998,1.182998 2.709996,5.3190009 2.420996,7.0979979 z M 20.465355,16.161617 20.009356,7.4536211 c -0.068,-1.290998 -0.094,-1.515998 -0.266,-2.247996 -0.527999,-2.242997 -1.947997,-3.470995 -3.432995,-4.26399399 -1.888005,-1.009007 -3.329003,-1.383006 -5.275,0.036 C 9.4353635,2.1456291 9.2843637,6.3726231 9.9133628,7.0336221 c 0.4689992,0.492999 1.7129972,0.447999 3.2179952,0.095 3.759002,-0.882999 4.136002,-0.678999 5.115,3.2959949 0.465,1.889005 0.52,3.659003 0.291,5.559 -0.485999,4.034994 -1.627998,5.997999 0.609999,8.365995 0.930999,0.985999 1.903997,1.134999 4.028994,0.697999 1.509998,-0.310999 1.808997,-1.012998 2.442004,-3.102995 0.446,-1.471998 0.797999,-2.790004 0.683999,-4.257002 -0.225999,-2.910995 -3.374003,-8.3829949 0.42,-9.7419939 0.699999,-0.250999 1.609997,-0.087 2.394996,0.084 1.056998,0.229999 1.236998,0.126 1.793997,-1.044999 0.459,-0.962999 0.988999,-1.848997 1.280998,-2.884996 C 33.286344,0.20962311 31.610346,-0.88837489 28.248351,0.70463011 24.390349,2.5326281 22.657352,10.363616 23.48135,15.613616 c 0.253,2.163997 0.529,4.112994 0.529,4.112994 0,0 -0.23,-0.0032 -0.505,-0.03 -1.079998,-0.106 -2.934995,-1.539997 -3.039995,-3.534994 z m 0.580999,16.553991 -5.796999,5.796991 5.796999,5.797999 5.797999,-5.797999 -5.797999,-5.796991 z m 25.956985,38.998973 -5.797999,5.796992 5.797999,5.797995 5.796992,-5.797995 -5.796992,-5.796992 z M 2.5613654,51.488596 3.1513646,64.997583 3.2523644,67.30058 c 0.058,1.323998 0.094,1.600998 0.3649995,2.767996 1.2759981,5.485 8.6709951,9.041994 12.9469971,9.740992 5.496992,0.899 15.088985,-1.567996 18.037981,-6.276989 1.906005,-3.042996 3.342003,-8.109996 4.618001,-8.753995 1.471998,-0.741999 4.843993,0.889998 7.515997,0.446999 3.003995,-0.498999 2.919995,-2.021997 4.845992,-4.431993 0.396,-0.496 0.852999,-0.919007 1.284998,-1.373006 1.193999,-1.249998 3.420003,-5.588992 3.559003,-6.93399 0.153,-1.488998 -0.703999,-4.885001 -1.828005,-7.750996 -0.567999,-1.445998 -1.176998,-3.009996 -1.663998,-4.349994 -0.356999,-0.980006 -0.541999,-1.118006 -1.490997,-0.967006 -0.392,0.062 -0.524,0.186999 -1.316998,1.255006 -1.543998,2.078997 -3.042996,5.231992 -2.510997,7.314989 0.336,1.313998 1.631998,2.256996 2.398997,4.318001 0.660999,1.774998 0.928998,4.381994 0.928998,4.381994 l -3.275995,0.143 c -1.323998,0.05696 -1.528997,0.048 -2.049997,-0.094 -1.570005,-0.43 -3.838002,-2.780996 -4.409001,-3.554995 -1.553998,-2.106997 -3.494995,-5.690999 -3.494995,-5.690999 0,0 -2.529004,3.892002 -3.405003,6.390998 -0.497999,1.417998 -0.432999,2.715996 -0.018,4.033994 1.310006,4.158002 3.932002,7.399997 1.398006,9.510994 -4.732001,3.942002 -13.782995,4.666001 -19.041987,2.797004 C 14.097356,69.317577 9.8533628,67.00058 8.3663651,63.837585 L 2.5613654,51.488596 z" />
</svg>
