<?xml version="1.0" encoding="UTF-8" standalone="yes"?>
<!-- Created with sK1/UniConvertor (http://sk1project.org/) -->
<svg xmlns="http://www.w3.org/2000/svg" xmlns:xlink="http://www.w3.org/1999/xlink"
  width="595.276pt" height="841.89pt" viewBox="0 0 595.276 841.89"
  fill-rule="evenodd">
	<path
		style="stroke:none; fill:#000000"
		d="m 42.113873,38.470012 5.35,-5.35 -5.35,-5.350008 -5.350008,5.350008 5.350008,5.35 z M 20.490842,10.70098 25.84085,5.3509717 20.490842,-3.6104905e-5 15.140834,5.3509717 20.490842,10.70098 z M 35.814864,25.178001 C 34.673862,27.319004 31.907858,29.635007 25.525849,30.717009 19.35884,31.76301 10.490827,30.600009 6.869822,26.443003 4.0738179,23.233998 3.2308167,17.412989 3.9778178,13.174983 4.2058181,11.879981 4.4498185,10.75498 4.6948188,9.7619777 L 2.8238161,11.714981 c -0.6440009,1.458002 -2.33000337,5.461008 -2.75800399,8.332012 -0.50800074,3.406005 2.00000289,10.891016 4.93300719,13.91402 3.7710054,3.887998 9.3610137,4.641999 14.8520217,3.918998 10.573015,-1.392994 16.389024,-4.149998 18.275026,-14.528013 0.613001,-3.370005 1.572003,-3.031004 1.750003,-3.095004 1.737002,-0.623001 5.303008,-0.935002 7.14101,-1.729003 4.450999,-1.923003 3.830998,-9.5590143 2.387996,-14.7360213 -0.557001,-1.998003 -1.276002,-4.5620069 -2.551996,-3.5720055 -1.498002,1.1610015 -1.705002,5.3620075 -1.190002,6.9740105 0.880002,2.759004 3.869998,6.0100083 0.510001,6.9740103 -1.267002,0.364 -5.186008,-0.313001 -6.464009,-1.191002 -2.185004,-1.499002 -4.933008,-5.1030073 -4.933008,-5.1030073 0,0 -0.806001,0.828001 -1.361002,1.531002 -0.629,0.7970013 -0.922001,3.6680053 -0.51,4.9910073 0.693001,2.227003 1.877002,5.692008 2.765004,8.252012 0.04296,0.125 0.355,1.154002 0.145,2.530004 z m -17.95853,-6.256762 c 0.157,2.172003 1.164002,3.522005 2.997004,3.912006 2.364004,0.503 3.701006,-0.787002 4.307007,-3.395005 0.133,-0.572001 0.103,-1.049002 -0.263001,-1.280002 -0.697001,-0.437001 -2.609004,0.01704 -3.534005,-0.477001 -1.151002,-0.614001 -1.443002,-3.227005 -1.159002,-4.449006 0.285001,-1.222002 1.012002,-2.532004 1.209002,-3.4740053 0.04,-0.191001 0.058,-0.367001 -0.024,-0.465001 -0.01,-0.012 -0.02104,-0.024 -0.03096,-0.03496 -2.783004,-0.638001 -3.459005,10.2490153 -3.502005,9.6630143 z"/>
</svg>