<?xml version="1.0" encoding="UTF-8" standalone="yes"?>
<!-- Created with sK1/UniConvertor (http://sk1project.org/) -->
<svg xmlns="http://www.w3.org/2000/svg" xmlns:xlink="http://www.w3.org/1999/xlink"
  width="595.276pt" height="841.89pt" viewBox="0 0 595.276 841.89"
  fill-rule="evenodd">
	<path
		style="stroke:none; fill:#000000"
		d="m 60.420016,52.852996 c -0.376,2.350009 0.081,2.927009 1.644,2.206009 1.064,-0.492 14.792002,-8.47701 16.79701,-10.86801 0.807001,-0.963 1.613002,-2.667 1.897002,-4.200001 0.175,-0.944 -0.108,-0.91 -1.125001,-0.532 -2.356009,0.876 -17.887011,10.330002 -18.374011,11.185002 -0.454,0.798 -0.746,1.625 -0.839,2.209 z m -1.673001,-40.678022 0.384,-6.5450009 c 0.074,-1.258 0.05696,-1.525 -0.173,-2.679 -0.344,-1.732 -0.769008,-3.07999997 -1.985008,-2.94099997 -0.251,0.02904 -0.333,0.149 -0.816,1.19999997 -0.359,0.78 -0.71,1.628 -0.677,2.472 0.062,1.556 1.433,3.099001 1.867,4.667001 0.228,0.824 0.197,1.6549999 0,2.5189999 -0.857,3.756009 -2.75,6.989009 0.467,9.007009 1.443008,0.905 3.314009,1.181001 3.966009,0.233 1.558,-2.264 1.861,-6.584001 0.233,-7.233009 -1.033,-0.412 -3.266001,-0.7 -3.266001,-0.7 z m -45.154031,7.636009 0.178001,-2.204 -3.127001,0.699 C -4.557026,21.704984 7.2159838,-4.1500279 4.3029834,0.57997313 0.94898286,6.0279741 -0.51801739,12.532974 0.16298271,18.350983 c 0.074,0.634 0.15500003,1.212 0.25400004,1.741 1.58700025,8.482002 12.65300125,6.165001 13.17600125,-0.281 z m 6.489009,2.255001 c 0,0 3.958001,-1.294001 5.527001,-0.936 0.828,0.188 1.684001,1.677 2.222001,2.819 0.975,2.071 1.914,4.739001 2.271,6.857001 0.119,0.705 0.248,1.355 0.974,1.603 0.457,0.157 1.152,0.166 1.152,0.166 0,0 0.0024,-0.01104 0.0064,-0.032 0.346,-1.952 1.118001,-5.226001 1.315001,-7.200001 0.207,-2.074 0.16,-2.793 1.926,-2.662 2.668,0.198 3.574008,0.669 4.747009,-1.46 1.051,-1.910001 2.205,-5.809001 0.368,-7.072002 -5.679009,-1.530008 -7.79901,5.942001 -8.15501,7.652002 -0.502,2.415 -0.713,5.005 -0.713,5.005 0,0 -1.391,-4.472 -2.414,-6.888001 -1.151,-2.716 -4.122001,-6.376001 -7.328001,-5.461 -1.592,0.454 -2.152001,1.757 -2.151001,3.48 8e-4,1.587 0.253,4.129001 0.253,4.129001 z m 41.531023,12.28601 -5.637009,5.637 5.637009,5.637001 5.638001,-5.637001 -5.638001,-5.637 z M 30.693995,-2.6872057e-5 25.056994,5.6379731 30.693995,11.274974 36.330996,5.6379731 30.693995,-2.6872057e-5 z M 70.815017,23.066984 c 0,0 -5.038001,1.419 -7.653001,1.708 -2.681,0.295 -9.814009,-1.82 -11.71301,-4.667001 -1.39,-2.085 -0.859,-3.586 -3.086,-3.332 -0.515,0.05904 -0.616,0.199 -1.011,1.397 -0.714,2.163 -1.676001,4.538001 -1.736001,6.602001 -0.05296,1.818 1.336001,6.305001 2.207001,9.40901 0.341,1.214 0.284,1.415 -0.572,2.008 -1.336001,0.926 -6.220001,2.228 -6.768001,2.349 -6.367009,1.404 -13.48001,1.403 -18.988011,-1.002 -6.383009,-2.787 -10.51201,-9.980009 -9.80701,-16.832011 0.103,-1 0.228,-1.915 0.315,-2.507 0.135,-0.918 -0.677,0.395 -1.203,1.17 -0.062,0.091 -0.123,0.182 -0.183,0.271 -5.5570005,8.334002 -4.0640003,16.965011 3.267001,23.100012 4.518008,3.781 10.391009,4.751001 16.03201,4.436001 3.857001,-0.215 18.444011,-3.326001 20.153011,-8.130002 0.129,-0.362 0.233,-0.766 0.327,-1.235 0.897,-4.470001 0.585,-6.600009 3.036001,-6.038009 0.955,0.219 2.287,0.718 3.5,0.934 3.654009,0.648008 13.58801,-1.413 15.516011,-4.2 2.702,-3.903001 3.179,-10.609002 2.567,-14.653003 -0.289,-1.910008 -0.723,-3.9870079 -1.288,-5.9330079 -0.353,-1.212 -0.42,-1.35 -0.672,-1.379 -1.902001,-0.217 -3.442001,5.2959999 -3.640001,6.4720079 -0.139,0.827 -0.125,1.715001 0,2.520001 0.241,1.555 0.893,2.801 1.202,5.259 0.129,1.030001 0.198,2.273001 0.198,2.273001 z"/>
</svg>