<?xml version="1.0" encoding="UTF-8" standalone="yes"?>
<svg>
<path
	style="stroke:none;fill:#000000"
	d="m 47.513709,46.103102 c 0.22375,3.08125 1.6625,4.99625 4.28,5.55 3.37625,0.7125 5.28625,-1.11625 6.15125,-4.81625 0.19,-0.8125 0.1475,-1.48875 -0.37625,-1.815 -0.99375,-0.62125 -3.72625,0.0238 -5.0475,-0.6775 -1.6425,-0.87125 -2.06,-4.5775 -1.65375,-6.31125 0.40625,-1.73375 1.44375,-3.59125 1.72625,-4.9275 0.0575,-0.27125 0.0838,-0.52 -0.035,-0.65875 -0.015,-0.0175 -0.03,-0.035 -0.045,-0.05 -3.97375,-0.905 -4.94,14.5375 -5,13.70625 z m -18.03999,-17.09625 -5.88,6.06125 c -0.9775,1.00625 -1.11625,1.1875 -1.39,1.8075 -0.3825,0.86875 -0.515,2.32125 -0.3275,2.51875 0.61,0.6375 2.7625,-0.91 3.5125,-1.48375 6.56375,-5.0225 9.55499,-8.18625 10.61624,-14.69125 0.53875,-3.30625 -1.14875,-4.58625 -4.13374,-5.0075 -4.73625,-0.66875 -9.435,0.015 -11.275,3.715 0.2875,14.12625 0.69125,6.04875 4.7075,5.045 4.4675,-1.115 9.27249,-3.5925 4.17,2.035 z m 19.78624,-8.93625 -0.54625,-10.8137497 c -0.0813,-1.60375 -0.1125,-1.88375 -0.31875,-2.7925 -0.6325,-2.785 -2.33125,-4.31125 -4.10875,-5.295 -2.26,-1.2525 -3.985,-1.71874 -6.31375,0.045 -1.915,1.45 -2.095,6.69875 -1.3425,7.52 0.56125,0.6125 2.05,0.5575 3.85125,0.1175 4.49875,-1.09625 4.95,-0.8425 6.1225,4.0937497 0.55625,2.34625 0.6225,4.545 0.34875,6.90375 -0.5825,5.01125 -1.94875,7.44875 0.73,10.39 1.11375,1.22375 2.27875,1.41 4.82125,0.86625 1.8075,-0.38625 2.165,-1.2575 2.9225,-3.85375 0.53375,-1.8275 0.95625,-3.46375 0.81875,-5.28625 -0.27125,-3.615 -4.0375,-10.41 0.5025,-12.0987497 0.8375,-0.31125 1.9275,-0.1075 2.86625,0.10375 1.26625,0.2862497 1.48125,0.1574997 2.1475,-1.2975 0.54875,-1.195 1.18375,-2.295 1.5325,-3.5825 1.31,-4.83125 -0.69625,-6.19374 -4.72,-4.215 -4.61625,2.27 -6.69,11.9949997 -5.70375,18.5149997 0.30125,2.6875 0.6325,5.1075 0.6325,5.1075 0,0 -0.27625,-0.004 -0.605,-0.0375 -1.2925,-0.13125 -3.5125,-1.9125 -3.6375,-4.39 z m -21.52624,36.45624 8.06999,-8.06124 -8.06999,-8.06 -8.07,8.06 8.07,8.06124 z m 25.04749,45.282498 8.06875,-8.061248 -8.06875,-8.06 -8.07,8.06 8.07,8.061248 z M 1.3124691,65.669342 c -0.97000003,2.6425 -1.23875003,4.51625 -1.31000003,9.11 -0.035,2.2775 0.30625,5.695 0.76,6.775 0.29750003,0.71 0.70625003,1.30625 0.98875003,2.01375 0.355,0.89375 0.5075,1.96375 0.89375,2.90875 0.72,1.7575 5.01625,6.83625 6.43,7.93125 0.9799999,0.76 5.6037499,2.66 7.2387499,2.975 2.085,0.4025 11.3425,0.91625 14.73,-0.48375 6.87874,-2.84625 8.71249,-6.24 11.54499,-11.37625 0.0213,-0.0788 0.0412,-0.1575 0.06,-0.23375 0.155,-0.655 0.1775,-1.21 0.50125,-2.02625 0.54625,-1.3725 1.94625,-3.48625 1.94625,-3.48625 0,0 5.37875,0.9775 8.10625,0.7025 0.5,-0.05 5.28125,-1.82875 6.55375,-3.0025 1.74625,-1.60875 4.7975,-9.96 4.8225,-10.21375 0.11375,-1.19625 -0.30625,-1.70375 -1.075,-3.515 -1.28375,-3.0275 -1.78625,-6.82625 -2.765,-9.35624 -0.4125,-1.06625 -0.87625,-1.67 -1.69875,-1.18875 -1.05,0.6125 -2.20875,3.45124 -2.65,4.84374 -0.39875,1.25375 -0.62,2.39 -0.865,3.71 -0.3,1.61 -0.2325,5.07125 0.10625,5.51375 0.47625,0.6225 1.39875,1.42375 1.49625,2.13875 0.0312,0.23 0.0387,0.49375 0.0387,0.49375 l -2.43625,0.19375 c -0.89,0.07 -1.06375,0.0762 -1.7375,0.055 -0.88375,-0.0263 -3.79,-1.01 -3.88,-1.04875 -1.95,-0.82875 -6.845,-4.7125 -7.525,-6.275 -0.32625,-0.74875 -0.91125,-3.81375 -2.2625,-3.09625 -0.2425,0.12875 -0.44375,0.4075 -0.64,0.7125 -1.8525,2.89375 -3.25,7.29375 -2.69375,9.88125 0.52,2.4225 2.46125,5.42375 3.01375,8.73125 0.36375,2.18 0.38625,4.86625 0.38625,4.86625 0,0 -2.6325,1.4525 -4.62,2.3225 -5.98624,2.62125 -12.47624,1.815 -18.35749,-0.32125 -4.7875,-1.7375 -6.9287499,-4.27125 -9.2587499,-9.405 -3.0025,-6.61875 -2.64,-14.6975 1.87125,-21.39124 0.63625,-0.9425 5.1049999,-6.925 4.1987499,-8.55375 -0.11875,-0.21375 -0.39875,-0.22625 -0.79,0.0638 -0.2675,0.1975 -0.58875,0.53625 -0.88125,0.88 -6.3599999,7.45 -8.3574999,13.01374 -10.2412499,18.15124 z"/>
</svg>