<?xml version="1.0" encoding="UTF-8" standalone="yes"?>
<!-- Created with sK1/UniConvertor (http://sk1project.org/) -->
<svg xmlns="http://www.w3.org/2000/svg" xmlns:xlink="http://www.w3.org/1999/xlink"
  width="595.276pt" height="841.89pt" viewBox="0 0 595.276 841.89"
  fill-rule="evenodd">
  <path
     style="fill:#000000;stroke:none"
     d="m 2.0410113,19.978191 c -0.039,0.630003 -0.069,1.627009 0.089001,2.082011 0.1510009,0.437003 0.6160036,0.329002 1.055006,-0.018 0.7040039,-0.556003 1.4230079,-1.491008 2.4200135,-2.461013 1.6660093,-1.62301 10.3280582,-7.210041 13.0430732,-8.584048 0.215002,-0.108001 0.404003,-0.202002 0.876005,-0.235002 0.358002,-0.025 0.879005,-0.015 0.879005,-0.015 l -0.386002,3.085017 0.704004,-0.012 c 0.316002,-0.006 0.426002,-0.115 1.104006,-1.092006 1.081006,-1.556009 2.167012,-3.4010188 3.55302,-4.4250248 2.215012,-1.636009 5.823033,-2.238012 6.575037,-3.475019 0.301002,-0.494003 0.843005,-3.97102304 0.583003,-4.40802504 C 31.135174,-1.9289319 19.59511,6.3091142 18.518104,6.9641182 16.08109,8.4461262 10.880061,10.92314 7.2650407,13.423154 4.6150259,15.255164 2.1210119,18.672183 2.0410114,19.978191 z M 45.004653,11.53746 44.002414,6.5474412 C 43.76889,5.3830532 43.703821,5.1437062 43.348078,4.1518092 42.691822,2.3200902 40.13602,-0.84826684 39.17386,0.21192316 c -0.413249,0.45607 -0.161814,2.84180804 0.253268,4.26128604 0.107841,0.37086 0.21545,0.688119 0.420046,0.831058 0.20338,0.142215 0.502796,0.114479 0.797849,0.1993 1.453417,0.41935 3.196417,4.022712 3.21651,5.1877828 0.01661,0.977119 -0.481301,2.26789 -0.650517,3.459493 -0.356234,2.528077 0.03205,5.09464 1.777671,5.668675 2.869699,0.944123 6.225829,-0.314909 6.824183,-2.548624 0.76662,-2.861651 0.494053,-5.030467 -2.201126,-5.552601 -1.748723,-0.339002 -4.60709,-0.180833 -4.60709,-0.180833 z m 1.381602,20.860378 4.415025,0.199001 c 1.186006,0.053 1.446008,0.024 2.594014,-0.294002 1.074006,-0.297001 2.165012,-0.686003 3.085017,-1.263007 0.696004,-0.436002 3.45102,-6.194034 3.394019,-7.095039 -0.104,-1.67601 -2.218002,-6.944039 -3.51501,-10.351058 -0.422002,-1.110007 -0.495002,-1.236007 -0.733004,-1.259007 -2.100012,-0.203002 -2.666015,4.415024 -2.883026,6.149034 -0.158991,1.264007 -0.235001,2.577014 0.238002,2.976017 0.184,0.155001 0.451002,0.175001 0.739004,0.399002 0.429012,0.334002 1.422008,1.76401 1.565009,2.312013 0.167001,0.643003 0.227011,1.82901 0.227011,1.82901 0,0 -2.430024,0.190001 -4.220024,0.074 -1.070006,-0.07 -3.936032,-0.766005 -5.039028,-1.452009 -2.228013,-1.385007 -3.306019,-4.295024 -4.603026,-3.218018 -0.811014,0.674004 -1.662019,4.915028 -1.497018,6.447036 0.131001,1.215007 0.761004,2.633015 1.205016,4.035023 0.384993,1.215007 0.385993,1.597009 -0.219001,2.061012 -2.661015,2.038011 -9.712059,3.791021 -12.780076,3.521019 C 24.696138,37.146864 20.448114,34.70585 18.895106,31.915834 17.643099,29.668822 17.482098,26.605805 17.8981,23.643788 l 1.066006,-7.576042 -2.023011,4.976027 c -1.79601,4.417025 -2.597015,8.521048 -2.185012,13.152074 0.381002,4.280024 1.750009,5.37803 5.050028,7.478042 3.332019,2.119012 4.962028,2.722015 8.756049,2.387013 3.303018,-0.291001 12.126073,-2.975016 13.893082,-6.556036 0.451003,-0.916006 0.476003,-2.039012 1.113007,-2.941017 0.274001,-0.387002 1.331007,-1.269007 1.463008,-2.016011 0.034,-0.188001 0.169001,-0.203001 1.354998,-0.150001 z m -16.368087,-20.14469 -5.27603,5.277029 5.27603,5.27603 5.277025,-5.27603 -5.277025,-5.277029 z m 20.68411,22.746127 -5.277019,5.277029 5.277019,5.27603 5.27604,-5.27603 -5.27604,-5.277029 z M 0,2.9550952 0.05900033,6.3311142 c 0.02100012,1.187007 0.04200024,1.376008 0.21600121,1.886011 0.50100281,1.474008 2.31601286,2.1970118 4.15602316,1.697009 2.323013,-0.631003 3.0030169,-2.395013 3.7200211,-0.770004 2.3360132,5.2960298 2.7160152,-0.550003 3.5220192,-1.886011 0.184001,-0.304001 0.399003,-0.587003 0.702004,-0.781004 0.992006,-0.634004 2.926017,-0.308002 3.942022,-0.948005 0.250002,-0.158001 0.444003,-0.375002 0.612004,-0.611004 0.225001,-0.319002 0.248001,-0.486002 0.227001,-1.673009 l -0.056,-3.22701804 c 0,0 -1.454008,-0.061 -2.497014,0.043 -1.065006,0.107001 -2.219013,0.772004 -2.752016,1.58800904 -1.706009,2.608015 -1.682009,3.794021 -3.1200169,3.189018 C 5.8500328,3.6250992 4.7130264,2.4090922 2.6490149,2.5840932 1.6790095,2.6670942 0,2.9550952 0,2.9550952 z" />
</svg>
