<?xml version="1.0" encoding="UTF-8" standalone="no"?>
<svg>
  <path
     d="m 61.710134,21.313426 -0.6025,-11.4824897 c -0.0888,-1.70375 -0.12375,-2 -0.35125,-2.965 -0.69625,-2.95875 -2.56875,-4.57875 -4.52749,-5.62375 -2.49,-1.33000003 -4.39,-1.82500003 -6.95625,0.0475 -2.11,1.54 -2.30875,7.11375 -1.48,7.98625 0.62,0.65 2.26,0.59125 4.24375,0.125 4.95874,-1.16375 5.45499,-0.89625 6.74624,4.3474997 0.61375,2.49124 0.68625,4.82499 0.38375,7.33124 -0.64,5.32125 -2.14625,7.90875 0.805,11.03249 1.2275,1.3 2.51125,1.4975 5.31375,0.92 1.99,-0.41 2.385,-1.335 3.22,-4.09124 0.5875,-1.94125 1.0525,-3.68 0.9025,-5.615 -0.29875,-3.83875 -4.45,-11.05499 0.5525,-12.84749 0.92375,-0.33125 2.12375,-0.115 3.15874,0.11125 1.395,0.30375 1.63125,0.16625 2.36625,-1.3787497 0.605,-1.27 1.305,-2.4375 1.68875,-3.805 1.44375,-5.13000003 -0.76625,-6.5775 -5.20124,-4.47625003 -5.0875,2.41000003 -7.3725,12.73874973 -6.285,19.66123973 0.3325,2.855 0.6975,5.425 0.6975,5.425 0,0 -0.305,-0.004 -0.66625,-0.04 -1.425,-0.14 -3.87125,-2.03 -4.00875,-4.6625 z m -27.18873,-9.60874 -6.48,6.43624 c -1.07625,1.07 -1.23,1.2625 -1.53125,1.92125 -0.42125,0.9225 -0.5675,2.465 -0.36,2.67375 0.67125,0.6775 3.04375,-0.96625 3.87,-1.575 7.2325,-5.335 10.5275,-8.69374 11.69749,-15.6012397 0.59375,-3.51125 -1.26499,-4.87000003 -4.55499,-5.31750003 -5.21875,-0.71125 -10.3975,0.0163 -12.42374,3.94500003 0.31625,15.0012397 0.76124,6.4224997 5.18749,5.3575 4.9225,-1.185 10.21625,-3.81625 4.595,2.1599997 z m 2.3725,40.41122 7.78249,-7.78124 -7.78249,-7.7825 -7.78125,7.7825 7.78125,7.78124 z m 28.29998,47.19497 7.78124,-7.78249 -7.78124,-7.78125 -7.7825,7.78125 7.7825,7.78249 z m -47.11622,-49.73122 -2.48,1.52625 c 0.20125,-0.0275 0.31125,-0.0425 0.31125,-0.0425 0,0 -2.52875,3.955 -4.16875,6.7525 -3.6562401,6.23874 -7.0399901,17.60874 -4.7787401,23.89373 3.1487401,8.7475 9.3424901,12.28374 18.5412301,13.37999 7.47375,0.89 13.68,-1.0725 19.36999,-4.77874 2.10125,-1.36875 6.1875,-5.875 6.785,-7.48375 1.13625,-3.0575 0.975,-4.525 2.97,-4.07875 0.85875,0.1925 2.01,0.66625 3.09124,1.06875 4.94375,1.8475 7.195,1.58875 12.00375,-0.3375 1.38875,-0.5575 2.71875,-1.1475 3.50374,-2.22999 0.69125,-0.95375 0.95875,-2.29 1.5925,-3.505 0.62375,-1.19375 1.6,-2.27125 2.23,-3.50375 2.4875,-4.865 -0.0525,-9.49124 -2.5475,-15.43874 -0.665,-1.58875 -0.79625,-1.77125 -1.30875,-1.83 -1.74124,-0.19875 -2.60124,1.045 -3.53749,3.73125 -0.5125,1.47125 -0.55875,1.82625 -0.4625,3.54375 l 0.53,9.35624 1.27375,0 0,1.91125 -5.53,0 c -1.72125,0 -2.075,-0.0575 -3.5475,-0.57 -2.7925,-0.97375 -5.77124,-3.705 -6.85874,-5.99375 -1.38625,-2.91624 -1.9725,-7.57374 -4.07,-6.81624 -2.65875,0.95875 -3.96125,10.47249 -3.56875,12.86999 0.50625,3.09375 2.58875,8.45499 2.58875,8.45499 0,0 -4.32375,2.395 -7.68625,3.8425 -9.99249,4.30375 -22.38873,2.5825 -28.67123,-6.05249 -3.08875,-4.245 -3.2475,-9.60375 -1.59375,-14.655 2.385,-7.28374 5.005,-9.22624 6.01875,-13.01499 z m 0.74,-3.51874 1.36875,-3.02375 c 0.015,-0.28 0.0238,-0.57 0.0263,-0.8725 0.0337,-4.7025 -1.27875,-3.12 -4.2225,-1.62375 -3.76875,1.91625 -9.3849901,1.2475 -11.4687401,-1.5925 -2.15125,-2.93375 -1.3475,-11.18999 -0.31875,-14.65499 0.80375,-2.7075 2.17875,-5.53125 2.8675,-7.96375 0.2725,-0.965 0.1325,-1.0875 -0.68,-0.995 -0.305,0.035 -0.42,0.2125 -1.1425,1.77625 -4.65749996,10.08625 -7.4675,20.90749 -2.99375,28.14999 0.865,1.39874 6.92,6.34499 16.5637401,0.8 z"
     style="fill:#000000;stroke:none" />
</svg>
