<?xml version="1.0" encoding="UTF-8" standalone="yes"?>
<svg xmlns="http://www.w3.org/2000/svg" xmlns:xlink="http://www.w3.org/1999/xlink"
  width="595.276pt" height="841.89pt" viewBox="0 0 595.276 841.89">
<path
	style="stroke:none; fill:#000000"
	d="M 14.562081,8.8172015 9.9180813,13.666201 c -0.772,0.806 -0.882,0.951 -1.098,1.447 -0.302,0.695 -0.407,1.857 -0.258,2.015 0.481,0.51 2.1819997,-0.728 2.7729997,-1.187 5.184,-4.019 7.546,-6.5499995 8.384,-11.7529995 0.426,-2.645 -0.906,-3.669 -3.264,-4.006 -3.74,-0.536 -7.4519997,0.012 -8.9049997,2.972 0.227,11.3009995 0.547,4.839 3.7179997,4.036 3.529,-0.892 7.323,-2.875 3.294,1.627 z m 18.403,48.5709995 -4.843,5.091 4.843,5.092 4.844,-5.092 -4.844,-5.091 z m -19.285,-30.289 -4.8429997,5.091 4.8429997,5.091 4.843,-5.091 -4.843,-5.091 z m 14.199,24.041 c 7.89,1.845 11.347,-0.795 11.698,-9.512 0.084,-2.08 -0.606,-4.884 -1.885,-7.463 -0.066,-0.132 -0.21,-0.275 -0.389,-0.392 -2.092,-1.364 -3.173,4.013 -3.161,4.836 0.011,0.77 0.067,1.509 0.169,1.855 0.838,2.842 2.422,3.947 0.645,4.267 -3.719,0.67 -8.923,-1.296 -10.709,-5.048 -0.02,-0.042 -0.038,-0.084 -0.055,-0.124 -0.076,-0.181 -0.141,-0.357 -0.199,-0.525 -1.722,-5.01 -2.728,5.028 -2.402,4.305 -0.06,0.133 -0.056,0.32 0.018,0.781 0.038,0.233 0.087,0.474 0.145,0.72 -0.147,-0.631 1.68,6.67 1.826,7.302 0,0 -0.062,0.024 -0.177,0.066 -6.891,2.549 -15.1269997,4.939 -19.2729997,-4.299 -1.765,-3.933 -1.393,-8.94 -0.309,-13.663 0.308,-1.345 0.519,-2.245 0.352,-2.345 -0.615,-0.37 -0.889,0.74 -1.161,1.97 -1.617,7.317 -6.696,19.233 1.654,24.742 5.298,3.495 15.1349997,4.269 20.1589997,-1.236 0.887,-0.972 1.321,-2.182 1.532,-3.243 0.383,-1.927 -0.37,-3.437 1.522,-2.994 z m 4.149,-25.91 0,0.535 c 0,0 -0.415,0.045 -0.731,0 -0.179,-0.026 -1.494,-0.743 -1.552,-1.056 -0.029,-0.158 0,-0.384 0,-0.384 0,0 0.732,-0.002 1.188,0.084 0.335,0.063 0.52,0.173 0.75,0.326 0.311,0.205 0.345,0.255 0.345,0.495 z m -1.19,-5.225 -0.865,0 c 0,0 0.869,-5.509 0.837,-8.7 -0.025,-2.5559995 -1.843,-6.7489995 -3.744,-10.2239995 -0.433,-0.791 -0.981,-1.289 -1.509,-0.996 -0.353,0.196 -1.007,1.807 -1.394,2.915 -0.521,1.494 2.844,4.382 3.508,5.884 0.723,1.6329995 1.531,4.0839995 1.617,4.6359995 0.185,1.18 -0.046,3.758 -0.342,5.045 -0.188,0.815 -0.955,3.004 -1.299,5.066 -0.74,4.434 2.644,7.832 6.642,5.187 0.069,-0.045 0.134,-0.092 0.195,-0.139 3.886,-3.013 -0.074,-7.17 -2.499,-8.368 -0.046,-0.023 -0.094,-0.045 -0.142,-0.065 -0.516,-0.217 -0.616,-0.241 -1.005,-0.241 z"/>
</svg>