<?xml version="1.0" encoding="UTF-8" standalone="no"?>
<svg>
  <path
     style="fill:#000000;stroke:none"
     d="m 99.97612,93.138504 c 0.26375,0.01713 0.66875,-0.16475 1.12125,-0.465375 l 9.87125,-10.552744 c 0.45875,-1.330499 0.70375,-3.123748 0.4175,-3.488123 -0.25125,-0.320749 -0.7275,-0.141874 -1.305,0.301125 l -9.40375,10.107494 c -0.27,0.358125 -0.46375,0.648375 -0.55875,0.847625 -0.12375,0.260999 -0.21625,0.494999 -0.26625,0.687374 -0.30124,1.135749 -0.28749,2.535624 0.12375,2.562624 z M 87.73863,0.01368513 c -3.145,0.0925 -4.28,1.86875007 -4.50749,4.98749987 -0.11125,1.54 -0.13375,3.8375 -0.13375,3.8375 0,0 3.61749,0.61249 5.80499,0.20375 2.445,-0.45875 3.375,-2.33625 4.65625,-1.63875 1.9275,1.04875 2.25375,6.69437 1.8925,8.71112 -0.43125,2.40762 -1.815,4.86349 -2.675,7.83137 -0.045,0.156 -0.0763,0.43187 -0.0963,0.80475 -0.175,3.34349 -0.0187,17.941235 4.08,19.228984 0.43875,0.137875 0.9325,0.252125 1.32625,0.515999 0.62375,0.416875 1.00125,1.206875 1.51875,1.541999 2.85249,1.843374 6.15999,-5.230121 6.43749,-6.571371 0.3675,-1.765373 0.38,-3.498247 0.19125,-5.444621 -0.3725,-3.823873 -6.3225,-23.84699 -2.33125,-25.05698 2.01875,-0.61125 4.23625,1.01749 6.22125,-0.3825 1.29625,-0.915 2.36,-2.8375 2.5575,-4.47375 0.18,-1.4962498 0.13375,-3.83749987 0.13375,-3.83749987 0,0 -2.61375,-0.44375 -4.40125,-0.15375 -1.0975,0.1775 -4.755,2.89000007 -5.64,4.00499987 -1.69875,2.145 -3.07874,9.09712 -3.06374,10.39999 0.0625,5.76512 3.54874,18.69174 2.86249,21.172739 -0.62125,2.247373 -1.8575,4.473122 -1.8575,4.473122 0,0 -1.83249,-2.471873 -2.93374,-4.796497 -0.64,-1.350499 -0.935,-11.413114 -0.41125,-14.026864 0.94875,-4.733 1.64875,-11.45125 0.25875,-15.88624 -1.5925,-5.08124987 -6.03625,-5.55749987 -9.89,-5.44499987 z M 57.0749,68.352769 50.97365,74.414265 c -1.01374,1.007124 -1.15749,1.188124 -1.44249,1.808374 -0.39625,0.868749 -0.53375,2.321499 -0.33875,2.518498 0.6325,0.638 2.86624,-0.910124 3.64374,-1.483749 6.81125,-5.023247 9.91375,-8.18687 11.015,-14.691491 0.56,-3.306373 -1.19,-4.585747 -4.2875,-5.007497 -4.915,-0.669249 -9.79124,0.01537 -11.69999,3.715373 0.2975,14.126241 0.7175,6.048121 4.88499,5.045247 4.63625,-1.115749 9.62125,-3.593498 4.32625,2.033749 z m -3.41,-48.281724 -0.5675,-10.81362 c -0.0838,-1.60374 -0.11625,-1.88374 -0.33125,-2.79249 -0.655,-2.785 -2.41874,-4.3112498 -4.26249,-5.2949998 -2.345,-1.25250007 -4.135,-1.71875007 -6.55125,0.045 -1.98625,1.45 -2.17375,6.6987498 -1.3925,7.5199998 0.5825,0.61249 2.12625,0.55749 3.99625,0.11875 4.6675,-1.0975 5.13625,-0.84375 6.35249,4.09299 0.5775,2.346 0.645,4.544 0.36125,6.90362 -0.60374,5.011 -2.02124,7.44812 0.7575,10.389622 1.15625,1.224249 2.365,1.409624 5.00375,0.86625 1.875,-0.386125 2.24625,-1.25725 3.0325,-3.853252 0.55375,-1.82774 0.99125,-3.46449 0.84875,-5.28662 -0.28125,-3.61525 -4.19,-10.41012 0.52125,-12.09887 0.87,-0.31125 2,-0.1075 2.975,0.105 1.31375,0.28625 1.53625,0.15625 2.22875,-1.29874 0.56874,-1.195 1.22749,-2.295 1.58999,-3.5825 1.35875,-4.83124987 -0.7225,-6.1937498 -4.89874,-4.21499987 -4.79,2.27000007 -6.9425,11.99473987 -5.91875,18.51460987 0.31375,2.6875 0.65625,5.10763 0.65625,5.10763 0,0 -0.28625,-0.003 -0.62625,-0.037 -1.34125,-0.13188 -3.645,-1.91225 -3.775,-4.39038 z m 48.06622,50.365223 -5.65874,6.091996 5.65874,6.091996 5.65875,-6.091996 -5.65875,-6.091996 z M 54.7399,40.398661 49.08116,46.490657 54.7399,52.582653 60.39865,46.490657 54.7399,40.398661 z M 32.70742,85.833008 c 15.03749,3.341123 32.37248,2.015624 46.07122,-2.926123 6.06374,-2.187124 12.71499,-4.683997 13.71749,-12.333368 0.74375,-5.678621 2.34375,-2.250248 7.31999,-2.171998 2.80625,0.04425 5.8175,-0.490875 8.125,-1.067625 0.77625,-0.194124 1.26875,-0.351374 1.67875,-0.624874 6.33375,-4.214248 4.7,-14.235991 3.1625,-20.144488 -0.67375,-2.590623 -1.825,-4.540622 -4.1375,-0.391625 -2.7175,4.873497 -0.375,8.275745 0.46125,11.561743 1.1625,4.566497 -1.86125,3.424748 -5.5675,3.424748 -0.59625,0 -0.98625,0 -0.98625,0 -0.69375,0 -1.04,-0.0083 -1.4825,-0.06288 -8.51624,-1.047874 -5.61874,-1.809249 -6.51749,-8.892869 -0.1475,-1.162125 -0.58875,-2.707749 -1.06,-4.247748 -0.68,-2.221998 -2.1925,-10.723118 -5.7075,-3.925872 -1.07,2.068123 -1.79375,3.618497 -1.585,4.830872 0.23,1.338624 1.40375,3.229498 2.28,5.165247 2.69,5.942371 3.065,14.155741 -2.0025,18.639113 -6.31499,5.585497 -18.73249,7.570121 -25.89123,8.56037 C 47.24491,83.07138 35.90491,81.477381 23.21617,76.233259 17.44118,73.84651 5.1249298,66.03739 2.5449298,61.944893 1.6186898,60.474894 0.71118984,58.819645 0.71118984,58.819645 c 0,0 -0.40125,1.314499 -0.6375,2.701373 -0.4775,2.805623 1.41624996,5.915371 4.21248996,8.84112 C 14.92493,81.492881 26.39992,84.431629 32.70742,85.833003 z" />
</svg>
