<?xml version="1.0" encoding="UTF-8" standalone="no"?>
<svg>
  <path
     d="m 5.1546874,31.938731 4.5125,0.445 1.4874996,-2.7925 c 1.24,-2.32625 2.2625,-4.0675 2.2625,-4.0675 0,0 -5.2912496,-0.69375 -7.3399996,-1.4875 -3.9175,-1.51625 -3.035,-8.85 -1.42,-13.26375 1.60375,-4.3862498 4.04625,-10.54624981 3.43625,-10.73499981 -0.16375,-0.05 -0.38,-0.0437 -0.56875,-0.0175 -0.25375,0.0362 -0.36625,0.2125 -1.12,1.76375001 -4.02875,8.2887498 -7.475,17.7574998 -6.09500001,25.4299998 0.3125,1.735 1.22000001,3.5 2.23625001,4.0125 0.9625,0.485 1.855,0.63875 2.60875,0.7125 z m 5.2662496,-2.6025 c 0,0 -0.6012496,0 -1.2149996,0 -0.40875,0 -4.20625,9.69 -4.61125,11.115 -2.23125,7.84875 -2.66,19.53 0.44375,24.19875 7.5987496,11.43125 30.1174996,11.89375 36.4399996,0.40625 1.57875,-2.8675 3.67125,-7.5975 3.67125,-7.5975 0,0 7.1225,2.145 11.1,2.09 5.77875,-0.0813 9.2425,-4.58875 11.51125,-10.5175 0.47875,-1.2525 0.82625,-2.1975 0.87875,-3.65125 0.15125,-4.17875 -4.9975,-21.91 -4.9975,-21.91 0,0 -2.61625,5.20375 -3.61625,8.3075 -0.67875,2.11 -1.22875,8.61875 -0.15375,10.6875 0.415,0.7975 1.1,1.18125 1.48375,2.5375 0.34375,1.21875 0.4425,3.2225 0.4425,3.2225 0,0 -3.1375,0.645 -5.40875,0.6775 -4.0475,0.0575 -8.605,-2.15125 -10.42,-5.57375 -2.53375,-4.77875 -2.95875,-8.41375 -5.46,-5.17375 -1.4925,1.9325 -2.735,4.875 -2.75,6.565 -0.0825,8.7375 5.67625,11.97625 -0.11375,15.595 -5.1,3.1875 -14.01625,3.4175 -19.1125,1.5775 -9.8662496,-3.5625 -11.8612496,-9.32875 -11.6887496,-19.1075 0.0525,-2.96125 0.4175,-5.98875 1.61875,-9.09 0.52625,-1.36125 1.2275,-2.88375 1.9574996,-4.35875 z m 15.67625,-21.1187498 -8.33625,8.3349998 8.33625,8.33625 8.335,-8.33625 -8.335,-8.3349998 z m 27.09125,56.0487498 -8.335,8.335 8.335,8.335 8.335,-8.335 -8.335,-8.335 z m -3.10625,-41.490705 -0.64375,-12.27125 c -0.095,-1.8199997 -0.1325,-2.1362497 -0.375,-3.1674995 -0.74375,-3.16125 -2.745,-4.8925 -4.8375,-6.01 -2.66125,-1.42125002 -4.6925,-1.94875002 -7.43375,0.0513 -2.255,1.645 -2.4675,7.6024998 -1.58125,8.5337498 0.66125,0.6949997 2.41375,0.6324997 4.535,0.1337497 5.2975,-1.2437497 5.8275,-0.9574997 7.2075,4.645 0.65625,2.6625 0.73375,5.1575 0.41125,7.835 -0.685,5.68625 -2.295,8.45125 0.86,11.79 1.31125,1.38875 2.6825,1.59875 5.6775,0.9825 2.1275,-0.43875 2.54875,-1.42625 3.44125,-4.3725 0.6275,-2.07375 1.125,-3.93125 0.96375,-5.99875 -0.31875,-4.1025 -4.755,-11.81375 0.59125,-13.73 0.98625,-0.3525 2.26875,-0.1225 3.375,0.11875 1.49125,0.325 1.74375,0.1775 2.52875,-1.4724997 0.64625,-1.3575 1.39375,-2.6049998 1.805,-4.0662498 1.5425,-5.48125002 -0.82,-7.02875 -5.55875,-4.78375002 -5.43625,2.57625002 -7.8775,13.61249952 -6.71625,21.01124952 0.355,3.04875 0.745,5.795 0.745,5.795 0,0 -0.325,-0.004 -0.71125,-0.0412 -1.5225,-0.15 -4.13625,-2.17 -4.28375,-4.9825 z m -22.75125,19.344455 -6.92375,6.8775 c -1.15125,1.14375 -1.315,1.34875 -1.63625,2.0525 -0.45125,0.98625 -0.6075,2.635 -0.385,2.8575 0.71625,0.725 3.2525,-1.0325 4.135,-1.6825 7.72875,-5.70125 11.25,-9.29125 12.5,-16.6725 0.635,-3.75125 -1.3525,-5.20375 -4.8675,-5.68125 -5.57625,-0.76 -11.11,0.0163 -13.27625,4.215 0.3375,16.03 0.81375,6.86375 5.54375,5.72625 5.26,-1.26625 10.9175,-4.07875 4.91,2.3075 z"
     style="fill:#000000;stroke:none" />
</svg>
