<?xml version="1.0" encoding="UTF-8" standalone="no"?>
<svg>
  <path
     d="m 56.816842,21.32625 c 0,0 -2.40125,0.15625 -4.07375,0.035 -3.3725,-0.24375 -5.59625,-1.82625 -7.565,-4.46125 -2.08125,-2.7825 -4.96,-7.5387504 -4.96,-7.5387504 0,0 -2.535,5.7525004 -3.2375,8.3575004 -0.335,1.24 -0.25375,1.76625 0.025,2.875 1.01625,4.03875 4.665,15.80375 4.665,15.80375 0,0 -4.03625,2.835 -6.755,4.07625 -1.93125,0.88125 -7.6525,2.015 -9.32,2.0625 -5.05625,0.14 -12.36125,-2.54375 -15.32625,-5.525 C 8.0168415,34.745 5.1468415,29.515 4.8005915,26.42 c -0.44625,-4.00375 0.4625,-11.96625 0.4625,-11.96625 0,0 -2.387495,4.01625 -3.619995,6.7875 -3.07625,6.9225 -1.70374999,18.0025 3.037495,23.74 8.0287505,9.7175 24.5775005,9.46375 33.3037505,1.4075 3.68875,-3.405 4.93625,-7.88875 6.86,-13.315 0.95875,-2.70625 3.13375,-2.05125 7.1225,-2.08625 0.95375,-0.0075 1.16625,-0.01 1.16625,-0.01 1.5275,-0.0125 1.77625,-0.10125 2.48625,-0.885 1.385,-1.52625 3.56125,-7.12 3.75375,-7.6575 1.10375,-3.09 2.44375,-8.28375 1.88125,-11.33375 -0.38625,-2.1000004 -1.64625,-4.3050004 -1.755,-6.6612504 -0.10375,-2.2325 0.795,-5.5674996 -1.39375,-4.0624996 -2.145,1.4737496 -4.09625,9.1187496 -3.63375,11.575 0.37125,1.975 2.21,5.29125 2.33,7.67625 0.0362,0.7075 0.015,1.6975 0.015,1.6975 z M 16.339342,5.9424996 22.280592,11.88375 28.223092,5.9424996 22.280592,0 16.339342,5.9424996 z m 29.66625,36.8737504 5.9425,5.94125 5.94125,-5.94125 -5.94125,-5.9425 -5.9425,5.9425 z m -22.7775,-15.34 -4.95375,4.92125 c -0.82375,0.8175 -0.94125,0.965 -1.17125,1.46875 -0.3225,0.705 -0.43375,1.88375 -0.275,2.04375 0.5125,0.51875 2.32625,-0.73875 2.95875,-1.20375 5.53,-4.07875 8.04875,-6.6475 8.9425,-11.92875 0.455,-2.68375 -0.96625,-3.7225 -3.48125,-4.065 -3.99,-0.54375 -7.95,0.0125 -9.5,3.01625 0.2425,11.46875 0.5825,4.91 3.96625,4.09625 3.76375,-0.90625 7.81125,-2.9175 3.51375,1.65125 z m 3.335,45.855 c 0.1975,2.72125 1.46625,4.4125 3.775,4.90125 2.97875,0.63 4.6625,-0.985 5.42625,-4.2525 0.1675,-0.7175 0.13,-1.315 -0.33125,-1.6025 -0.8775,-0.54875 -3.2875,0.02 -4.4525,-0.59875 -1.44875,-0.76875 -1.8175,-4.0425 -1.45875,-5.5725 0.35875,-1.53125 1.2725,-3.17125 1.5225,-4.35125 0.05,-0.23875 0.0737,-0.45875 -0.0312,-0.5825 -0.0125,-0.015 -0.0263,-0.03 -0.0387,-0.04375 -3.50625,-0.79875 -4.3575,12.8375 -4.41125,12.1025 z m 12.2375,-6.22625 c -0.44125,2.75625 0.095,3.4325 1.9275,2.5875 1.2475,-0.57625 17.3475,-9.94125 19.69875,-12.74625 0.9475,-1.13 1.89125,-3.1275 2.225,-4.925 0.205,-1.10625 -0.1275,-1.0675 -1.31875,-0.62375 -2.76375,1.02625 -20.9775,12.115 -21.54875,13.11625 -0.5325,0.93625 -0.875,1.9075 -0.98375,2.59125 z"
     style="fill:#000000;stroke:none" />
</svg>
