<?xml version="1.0" encoding="UTF-8" standalone="yes"?>
<!-- Created with sK1/UniConvertor (http://sk1project.org/) -->
<svg xmlns="http://www.w3.org/2000/svg" xmlns:xlink="http://www.w3.org/1999/xlink"
  width="595.276pt" height="841.89pt" viewBox="0 0 595.276 841.89"
  fill-rule="evenodd">
  <path
     d="m 14.023785,7.8004418 0.137999,-1.9359921 -2.411991,0.613997 C 0.02183468,9.4644359 9.104802,-13.245483 6.8578105,-9.0904984 4.2698197,-4.3055156 3.1378237,1.4084644 3.6638218,6.5184467 c 0.057,0.5569981 0.1199996,1.0649961 0.1959993,1.5289941 1.2239957,7.4509742 9.7609649,5.4149812 10.1639639,-0.246999 z m -2.726991,13.6219522 0.382999,0.808997 -1.065996,0.699998 c -0.564998,0.369998 -1.3869954,0.602998 -2.1959925,0.745997 -1.2019953,0.212999 -3.0169888,0.586998 -3.2069882,-1.118996 -0.002,-0.013 1.0679962,-0.519998 1.9309932,-0.983996 0.7849975,-0.421999 1.7059935,-0.624998 2.409991,-0.717998 1.1189965,-0.147999 1.5749945,0.203999 1.7449935,0.565998 z m -4.023985,6.374977 c 1.0329959,0.104 2.0989921,-0.013 3.191988,-0.405998 2.228992,-0.800997 4.499984,-2.191992 5.538981,-3.138989 0.755997,-0.688998 1.360995,-1.369995 1.485994,-1.769994 0.761998,-2.425991 -0.663997,-2.187992 -2.478991,-3.233988 -1.409995,-0.811997 -2.267992,-2.574991 -3.518987,-3.435988 -2.0379932,-1.403995 -6.4509771,-0.437998 -6.8839755,2.79699 -0.2429992,1.815994 -0.054,2.81299 -0.4979983,2.90799 -0.275999,0.059 -0.5079982,-0.011 -0.7019975,-0.18 C 1.1308308,19.350401 3.0718239,11.927428 3.9978206,10.119434 4.7858178,8.5814399 5.594815,6.8874458 5.1938164,5.8124497 5.0518169,5.4314507 4.5828186,5.5724507 4.0368205,6.0844487 3.7908214,6.3154477 3.4098227,6.7884457 3.0268241,7.3644438 1.8068284,9.1984369 0.5238329,13.394423 0.12483432,16.538411 -0.85716217,24.279384 4.18182,27.485373 7.272809,27.797371 z m 8.538969,19.313932 3.861987,-4.396984 -3.861987,-4.396985 -3.860986,4.396985 3.860986,4.396984 z m 17.812935,24.071919 3.861986,-4.396989 -3.861986,-4.396984 -3.861986,4.396984 3.861986,4.396989 z M 26.910739,15.677414 26.51174,7.0264448 c -0.059,-1.2829951 -0.082,-1.5059941 -0.231999,-2.2329922 -0.460998,-2.2289921 -1.699994,-3.4489882 -2.995989,-4.23698516 -1.646994,-1.0019961 -2.90399,-1.37399506 -4.601984,0.036 -1.396995,1.15999596 -1.527994,5.35998126 -0.978996,6.01597926 0.408998,0.4899981 1.493994,0.4459981 2.80799,0.095 3.279988,-0.876997 3.608987,-0.674998 4.462984,3.2749882 0.405998,1.8769931 0.453998,3.6349871 0.253999,5.5229801 -0.423999,4.007986 -1.419995,5.957979 0.531998,8.310971 0.812997,0.979996 1.661992,1.127996 3.515985,0.692997 1.316996,-0.308999 1.578995,-1.004996 2.130993,-3.081989 0.388998,-1.461995 0.695997,-2.77199 0.596998,-4.229985 -0.198,-2.89199 -2.94499,-8.3279701 0.365998,-9.6779662 0.610998,-0.249998 1.404995,-0.087 2.089993,0.083 0.922997,0.228999 1.078996,0.125 1.565994,-1.0379961 C 36.425703,5.6034497 36.887701,4.7234526 37.1427,3.6934566 38.097697,-0.17052966 36.634702,-1.2615256 33.700713,0.32146834 30.334724,2.1374615 28.82273,9.9174349 29.541727,15.133416 c 0.221,2.149993 0.461999,4.085986 0.461999,4.085986 0,0 -0.201,-0.003 -0.440999,-0.029 -0.941996,-0.106 -2.560988,-1.529995 -2.651988,-3.512988 z m 7.86797,36.491871 0,0.811997 c 0,0 -2.626991,0.481998 -4.100986,0 -1.986993,-0.648998 -2.112992,-3.478987 -4.423982,-4.454984 -0.283999,-0.12 -0.601998,-0.220999 -0.899996,-0.300999 -1.034997,-0.279999 -1.831994,0.905997 -2.218993,2.264992 -1.238995,2.652991 1.969993,7.157975 0.689998,12.275956 -0.058,0.092 -0.123,0.181 -0.194999,0.266 C 21.07276,66.050236 13.729786,65.095239 10.941796,62.19825 8.3058049,59.459259 8.5718039,49.974293 10.166798,46.952304 c 0.554998,-1.338996 1.037997,-2.343992 1.037997,-2.343992 -0.019,-0.254999 -0.065,-0.475998 -0.139,-0.626998 -0.117999,-0.239999 -0.489998,-0.239999 -0.702997,0 -0.057,0.064 -0.115,0.142 -0.173,0.230999 -1.2969952,1.975993 -2.4059908,4.671984 -3.1349882,7.273974 -2.0349928,7.263975 -2.8059901,13.955951 3.7319862,20.010934 0.885997,0.463998 1.962993,0.786997 2.98099,1.008996 3.756986,0.820997 13.106953,-2.359996 13.106953,-9.377971 0,-0.199999 0,-0.406998 0,-0.608998 l 0,-2.537991 2.934987,0 c 0.272999,0 0.538998,0 0.772998,0 6.053978,0 8.050971,-4.018985 8.205971,-9.024968 0.086,-2.75699 -0.165,-10.359963 -2.737991,-11.976957 -0.273999,-0.173 -0.599998,-0.133 -0.919997,0.002 -0.809997,0.342999 -1.936993,2.388991 -2.107992,3.829986 -0.102,0.854997 -0.105,1.853994 -0.082,2.658991 0.109,3.755986 2.002993,4.019986 1.837994,6.698976 z"
     style="fill:#000000;stroke:none" />
</svg>