<?xml version="1.0"?>
<svg xmlns="http://www.w3.org/2000/svg" version="1.1">
  <path
     d="m 4.1932822,18.276964 c -0.473,0.754 -0.909,1.488 -1.093,1.899 -0.125,0.281 -0.255,0.564 -0.386,0.848 -0.71,1.54 -1.357,2.946 -1.86000003,4.283 -1.289,3.419 -1.765,11.812 3.37100003,13.475 1.134,0.367 2.397,-0.134 3.679,-2.161 1.003,-1.587 1.695,-3.707 1.695,-3.707 0,0 -2.594,0.781 -3.822,0.373 -4.94000003,-1.639 -2.864,-8.471 -1.434,-12.467 1.195,-3.338 2.044,-6.045 -0.15,-2.543 z m 26.3059998,5.799 c 2.341,2.057 5.744,3.128 7.085,1.12 0.87,-1.303 2.286,-4.02 2.286,-4.02 0,0 -1.439,-2.175 -2.641,-3.11 -0.807,-0.628 -2.348,-0.891 -3.259,-0.396 -0.804,0.436 -1.743,1.7 -2.252,1.183 -0.618,-0.628 1.397,-4.739 1.523,-5.091 1.541,-4.3150001 1.458,-7.0110001 0.275,-10.5940001 -0.364,-1.103 -0.766,-2.223 -1.329,-2.661 L 31.535282,-3.6104905e-5 30.853282,0.7279639 c -1.064,1.135 -0.861,4.107 -0.513,5.327 0.325,1.141 0.895,2.275 1.216,3.5 0.381,1.4580001 0.196,4.8620001 -0.349,6.3970001 -0.75,2.114 -2.136,4.053 -1.831,6.362 0.104,0.79 0.216,0.966 1.123,1.762 z m 11.595,28.244 -5.496,5.495 5.496,5.496 5.495,-5.496 -5.495,-5.495 z m -22.035,-36.198 -5.496,5.495 5.496,5.496 5.495,-5.496 -5.495,-5.495 z m 9.544,28.568 1.861,5.46 c 0.399,1.17 0.448,1.339 0.487,1.687 0.261,2.277 -3.877,3.751 -5.997,4.513 -5.11,1.836 -10.384,1.337 -16.0279998,-0.916 -0.119,-0.047 -0.235,-0.096 -0.35,-0.146 -1.906,-0.833 -3.351,-1.736 -4.416,-2.691 -4.31200003,-5.641 -0.13,-12.512 2.48,-16.497 0.579,-1.318 0.655,-1.46 0.655,-1.46 l 0.208,-0.369 c 0,0 -0.397,0.466 -0.397,0.466 0,0 -2.817,3.79 -4.714,6.342 -5.067,6.814 -4.724,14.908 2.84,21.113 3.9069998,1.932 8.8399998,2.708 12.1019998,2.172 2.581,-0.424 10.374,-3.216 11.642,-4.094 1.297,-0.898 2.292,-2.165 2.983,-3.758 0.111,-0.258 1.396,-4.798 2.601,-6.085 0.401,-0.429 0.583,-0.47 1.822,-0.407 5.949,0.3 10.569,-2.357 12.663,-5.908 1.902,-3.225 3.145,-5.921 2.746,-8.411 -0.296,-1.848 -1.345,-4.343 -1.994,-6.557 -0.562,-1.919 -1.195,-2.621 -2.175,-1.416 -0.818,1.007 -2.169,5.059 -2.061,6.183 0.135,1.397 0.95,2.322 1.603,3.892 0.28,0.672 0.53,1.461 0.593,2.233 0.085,1.04 0.037,1.195 -0.479,1.546 -0.383,0.26 -0.828,0.418 -1.259,0.572 -1.579,0.563 -2.958,1.07 -4.35,1.144 -1.178,0.063 -4.605,-1.171 -5.724,-2.06 -1.476,-1.173 -2.806,-2.8 -3.914,-4.163 -0.579,-0.712 -1.032,-1.1 -1.737,-0.646 -0.607,0.39 -1.336,3.71 -1.806,5.625 -0.296,1.202 -0.284,1.466 0.115,2.636 z"
     style="fill:#000000;stroke:none" />
</svg>
