<?xml version="1.0"?>
<svg xmlns="http://www.w3.org/2000/svg" version="1.1">
  <path
     d="m 21.138493,8.18403 -4.419,4.501 c -0.734,0.748 -0.838,0.882 -1.044,1.343 -0.287,0.645 -0.387,1.724 -0.246,1.87 0.458,0.474 2.076,-0.676 2.639,-1.102 4.933,-3.73 7.18,-6.079 7.977,-10.909 0.405,-2.455 -0.862,-3.405 -3.105,-3.718 -3.559,-0.497 -7.091,0.012 -8.473,2.759 0.216,10.489 0.52,4.491 3.538,3.746 3.357,-0.828 6.967,-2.668 3.133,1.51 z m 2.347,23.376 6.489,-6.489 -6.489,-6.489 -6.49,6.489 6.49,6.489 z m 19.86,-13.786 -0.502,-9.576 c -0.074,-1.421 -0.104,-1.668 -0.293,-2.472 -0.581,-2.467 -2.142,-3.818 -3.775,-4.69 -2.077,-1.109 -3.662,-1.521 -5.802,0.04 -1.759,1.284 -1.925,5.932 -1.233,6.659 0.516,0.543 1.883,0.494 3.539,0.105 4.134,-0.971 4.548,-0.747 5.625,3.625 0.512,2.078 0.572,4.024 0.32,6.114 -0.534,4.437 -1.79,6.595 0.671,9.2 1.024,1.084 2.094,1.248 4.431,0.767 1.66,-0.342 1.99,-1.113 2.686,-3.412 0.49,-1.619 0.877,-3.068 0.752,-4.682 -0.249,-3.201 -3.711,-9.219 0.461,-10.714 0.77,-0.275 1.771,-0.095 2.634,0.093 1.163,0.253 1.361,0.138 1.974,-1.15 0.504,-1.059 1.087,-2.033 1.408,-3.172 1.204,-4.278 -0.64,-5.486 -4.338,-3.733 -4.242,2.01 -6.147,10.622 -5.241,16.396 0.277,2.38 0.581,4.523 0.581,4.523 0,0 -0.253,-0.003 -0.555,-0.033 -1.188,-0.117 -3.228,-1.693 -3.343,-3.888 z m 1.464,50.209 6.489,-6.49 -6.489,-6.489 -6.49,6.489 6.49,6.49 z m -34.569,-42.005 -3.1030005,-0.094 c -0.234,0.575 -2.801,6.882 -4.531,11.325 -2.95899996,7.605 -3.59799996,11.374 -0.879,17.551 0.57,1.296 1.383,2.375 2.381,3.271 0.156,0.139 0.32,0.274 0.494,0.407 5.015,3.823 15.9450005,4.362 21.7600005,2.982 1.521,-0.36 2.848,-0.862 3.867,-1.508 0.635,-0.402 1.14,-0.812 1.396,-1.172 1.963,-2.753 4.035,-8.07 4.035,-8.07 0,0 5.521,2.059 9.056,2.466 2.731,0.314 7.32,-0.91 8.723,-2.56 1.382,-1.626 3.048,-10.677 2.843,-12.234 -0.242,-1.849 -3.586,-9.261 -5.885,-9.084 -3.506,0.269 -3.368,6.783 -2.46,8.918 0.315,0.74 3.302,4.603 2.186,5.862 -0.105,0.119 -0.117,0.147 -0.117,0.281 l 0,0.299 c 0,0 -3.803,-0.419 -6.366,-0.897 -2.64,-0.492 -4.071,-1.183 -5.066,-2.465 -2.627,-3.385 -3.364,-7.7 -6.276,-5.38 -2.297,1.829 -3.193,7.461 -1.956,11.232 1.196,3.647 1.302,5.137 -3.2,6.028 -7.349,1.456 -17.1830005,-0.338 -19.9500005,-5.828 -2.644,-5.247 -0.715,-12.888 2.047,-19.122 0.313,-0.706 0.654,-1.458 1.0010005,-2.208 z m -0.7610005,3.629 1.8730005,-3.954 c 0.937,-1.979 1.694,-3.525 1.694,-3.525 0,0 -2.787,-0.301 -4.5090005,-1.014 -4.309,-1.785 -3.884,-8.945 -1.795,-12.761 0.73,-1.332 4.8360005,-6.429 4.2610005,-7.862 -0.186,-0.463 -0.893,-0.561 -1.5690005,-0.448 -0.926,0.155 -7.287,10.878 -7.846,13.225 -1.27399996,5.357 -1.68499996,9.154 3.182,12.897 0.236,0.182 0.489,0.369 0.738,0.55 l 3.971,2.892 z"
     style="fill:#000000;stroke:none" />
</svg>
