<?xml version="1.0" encoding="UTF-8" standalone="yes"?>
<!-- Created with sK1/UniConvertor (http://sk1project.org/) -->
<svg xmlns="http://www.w3.org/2000/svg" xmlns:xlink="http://www.w3.org/1999/xlink"
  width="595.276pt" height="841.89pt" viewBox="0 0 595.276 841.89"
  fill-rule="evenodd">
  <path
     d="m 8.2783781,18.658513 c 0,0 3.2184259,-1.051208 4.4944359,-0.760806 0.672805,0.152801 1.368811,1.364011 1.805614,2.292018 0.792807,1.684014 1.556813,3.853631 1.847215,5.575245 0.0968,0.573604 0.201602,1.102408 0.791206,1.30401 0.372003,0.127201 0.937608,0.134401 0.937608,0.134401 0,0 0.0016,-0.0088 0.004,-0.0256 0.282402,-1.587213 0.909607,-4.249634 1.069608,-5.854447 0.168002,-1.686413 0.130401,-2.271218 1.566413,-2.164017 2.168817,0.160801 2.905623,0.544004 3.859231,-1.18721 0.855207,-1.552812 1.792814,-4.723237 0.300002,-5.750445 -4.618437,-1.24401 -6.34165,4.831238 -6.631253,6.222449 -0.408803,1.963216 -0.580004,4.068833 -0.580004,4.068833 0,0 -1.130409,-3.636029 -1.963216,-5.600045 -0.935208,-2.208818 -3.351227,-5.184841 -5.9576476,-4.440835 -1.2944104,0.369602 -1.749614,1.428011 -1.748814,2.829622 8e-4,1.29041 0.2056017,3.356827 0.2056017,3.356827 z m 26.7226129,23.197785 5.304843,-5.304842 -5.304843,-5.305643 -5.304842,5.305643 5.304842,5.304842 z M 18.57686,10.609649 23.882503,5.3048059 18.57686,-3.6104905e-5 13.272018,5.3048059 18.57686,10.609649 z M 7.508772,5.9864119 3.754342,12.134461 C 3.0631365,13.30407 2.3215306,14.54408 1.7903264,15.78009 c -2.76802212,6.442451 -2.60962086,14.216113 2.4880198,18.725749 3.3400267,2.954424 7.0192558,4.344835 10.8168858,3.844831 4.246434,-0.559204 10.612085,-2.340019 12.613701,-6.565652 1.28721,-2.717622 1.169609,-6.140849 3.646429,-5.736846 0.747206,0.121601 1.620813,0.541604 2.53922,0.780006 2.46242,0.641605 6.112849,-0.0312 7.681662,-1.520012 1.210409,-1.149609 3.500028,-5.728846 3.74723,-7.48406 0.0336,-0.236802 0.0504,-0.465603 0.016,-0.696805 -0.0472,-0.310403 -0.0816,-0.472004 -0.344003,-1.615213 L 42.710653,5.5664079 c 0,0 -1.21201,2.014417 -1.832015,3.198426 -0.591205,1.128809 -0.645605,1.5032121 -0.563204,2.5408201 0.196801,2.47842 1.174409,8.73847 1.174409,8.73847 l -3.915231,0.136801 c -1.17281,0.0408 -1.377611,0.0344 -2.052017,-0.0632 -1.806414,-0.261603 -4.243233,-1.927216 -4.774438,-2.740822 -0.940007,-1.440812 -2.022416,-4.299235 -2.022416,-4.299235 0,0 -1.205609,1.526413 -1.944815,2.699222 -0.735206,1.166409 -1.115209,2.707222 -0.952008,3.857631 0.372803,2.622421 1.512812,7.798462 1.164809,8.452067 -1.136809,2.132817 -9.259273,3.972832 -11.952095,3.74643 C 5.4511556,31.025812 1.3407228,22.971347 4.131945,14.394479 4.3599469,13.695273 4.6167489,12.995268 4.9031512,12.344063 L 7.508772,5.9864119 z"
     style="fill:#000000;stroke:none" />
</svg>
