<?xml version="1.0" encoding="UTF-8" standalone="yes"?>
<!-- Created with sK1/UniConvertor (http://sk1project.org/) -->
<svg xmlns="http://www.w3.org/2000/svg" xmlns:xlink="http://www.w3.org/1999/xlink"
  width="595.276pt" height="841.89pt" viewBox="0 0 595.276 841.89"
  fill-rule="evenodd">
  <path
     style="fill:#000000;stroke:none"
     d="m 98.520169,36.232438 5.862231,-5.862235 -5.862231,-5.863243 -5.863243,5.863243 5.863243,5.862235 z M 22.280049,7.6512709 26.354219,11.725441 32.216454,5.8621979 26.354219,-3.6104906e-5 22.280049,4.0731259 18.206887,-3.6104906e-5 12.343644,5.8621979 18.206887,11.725441 22.280049,7.6512709 z M 51.694255,11.725441 57.55749,5.8621979 51.694255,-3.6104906e-5 45.832012,5.8621979 51.694255,11.725441 z M 77.2753,9.9963679 c 0.159,2.2400901 1.185049,3.6341461 3.051124,4.0361621 2.406097,0.519025 3.767154,-0.812032 4.384178,-3.503137 0.136008,-0.5900251 0.105008,-1.0820491 -0.268008,-1.3200571 -0.709032,-0.451016 -2.656113,0.018 -3.597146,-0.492016 -1.171051,-0.634032 -1.469067,-3.330138 -1.180051,-4.590194 0.290008,-1.261049 1.030043,-2.612106 1.231051,-3.584146 0.04096,-0.197008 0.05904,-0.378016 -0.02496,-0.479016 -0.01,-0.01304 -0.02104,-0.02496 -0.032,-0.036 -2.832124,-0.659033 -3.521148,10.5734291 -3.564148,9.968404 z M 95.482047,20.114782 c 0.05304,-0.148009 0.111001,-0.294009 0.174001,-0.438017 0.483024,-1.089048 1.315056,-2.049081 1.593064,-3.077129 0.730033,-2.692106 -2.967121,-14.1335751 -2.999121,-14.1725751 -1.628065,-2.000081 -3.15613,-2.088089 -4.28717,0.593024 -1.832081,4.343178 -1.504065,5.043203 0.690024,8.1453321 0.941041,1.329057 2.380097,5.702235 2.060089,6.257259 -0.96504,1.670065 -12.142502,1.885073 -13.899577,1.737065 -4.765195,-0.404016 -10.546429,-2.084081 -11.768478,-5.770235 -0.707032,-2.132089 0.175008,-4.9752021 -0.205008,-7.8503161 -0.186008,-1.410064 -0.809033,-3.410145 -2.177089,-2.814121 -1.817073,0.793032 -2.463097,6.200259 -2.493105,7.076291 -0.124001,3.7001541 0.725032,9.4593891 0.725032,9.4593891 0,0 -2.789114,1.511057 -4.25417,1.870073 -1.160049,0.284016 -3.883162,-0.317008 -4.803203,-0.834032 -0.647024,-0.364017 -0.932032,-0.862033 -1.483056,-1.882073 -0.872033,-1.615073 -2.410098,-4.539187 -2.410098,-4.539187 0,0 -2.318097,2.861114 -4.285178,4.475179 -3.195129,2.621105 -13.790559,4.558186 -18.521753,4.809194 -8.897364,0.470024 -18.9047771,-0.06 -22.166906,-7.580308 C 2.914256,10.840401 3.8892965,-5.6232714 1.7342154,1.9720439 -0.80888983,10.936409 -1.2499141,22.209871 5.2533532,27.336081 c 9.0013718,7.096284 27.6401328,3.422138 35.8654648,0.257008 0.88904,-0.342016 1.669073,-0.661024 2.829121,-1.514065 1.454057,-1.07104 3.504138,-2.983121 3.504138,-2.983121 0,0 0.727033,2.438097 1.531065,3.570146 0.813032,1.145048 4.331178,2.175089 5.557227,2.255097 1.891073,0.123 7.158291,-1.593065 8.27334,-3.579146 0.709024,-1.261057 1.470057,-3.845162 1.470057,-3.845162 0,0 1.500064,1.886081 2.566105,2.779114 1.480065,1.239048 6.737275,2.481105 7.710316,2.678113 2.101089,0.425016 9.222375,0.238008 11.64848,-0.306016 0.743024,-0.167008 1.591065,-0.395016 2.398097,-0.607025 4.27617,-1.120048 7.4513,-7.550307 6.875283,-5.926242 z M 42.451875,43.590745 c -0.357016,2.271089 0.07696,2.828114 1.557064,2.131081 1.009041,-0.474016 14.018575,-8.188332 15.918648,-10.498429 0.765033,-0.930032 1.528065,-2.576105 1.798073,-4.056162 0.166008,-0.91204 -0.103,-0.87904 -1.06604,-0.514024 -2.233089,0.84604 -16.951697,9.978413 -17.412713,10.804445 -0.431016,0.770033 -0.707032,1.570065 -0.795032,2.133089 z" />
</svg>
