<?xml version="1.0"?>
<svg xmlns="http://www.w3.org/2000/svg" version="1.1">
  <path
     d="m 12.528161,47.23496 c -0.336,2.24 0.072,2.79 1.469,2.102 0.951,-0.468 20.572,-8.349 22.364,-10.629 0.722,-0.917 1.441,-2.541 1.695,-4.002 0.157,-0.899 -0.096,-0.867 -1.005,-0.507 -2.105,0.834 -23.338,10.116 -23.773,10.93 -0.406,0.761 -0.667,1.55 -0.75,2.106 z m 44.378,-37.372 c 0.15,2.211 1.117,3.586 2.877,3.983 2.269,0.512 3.553,-0.801 4.135,-3.456 0.128,-0.583 0.099,-1.068 -0.253,-1.302 -0.669,-0.446 -2.505,0.017 -3.393,-0.486 -1.104,-0.626 -1.385,-3.286 -1.112,-4.529 0.274,-1.244 0.971,-2.577 1.161,-3.537 0.038,-0.194 0.056,-0.373 -0.024,-0.473 -0.01,-0.012 -0.02,-0.024 -0.03,-0.035 -2.671,-0.65 -3.321,10.432 -3.361,9.835 z m 11.561,33.731 5.425,-5.784 -5.425,-5.785 -5.424,5.785 5.424,5.784 z m -28.88,-32.025 5.424,-5.784 -5.424,-5.785 -5.424,5.785 5.424,5.784 z m -20.075,-4.019 3.769,4.019 5.425,-5.784 -5.425,-5.785 -3.769,4.02 -3.769,-4.02 -5.424,5.785 5.424,5.784 3.769,-4.019 z m -15.9709998,8.851 0,-4.585 -0.474,0 c -0.213,0 -0.301,0.125 -0.879,1.252 -2.00099995,3.903 -2.89999995,10.146 -1.53399995,13.43 1.35299995,3.252 6.29799995,4.609 10.77299975,5.239 7.463,1.049 13.675,-1.139 18.852,-3.696 l 4.506,-2.226 3.476,1.688 c 0.771,0.374 1.552,0.722 2.409,0.89 1.5,0.293 6.043,0.101 7.283,-1.184 0.621,-0.644 1.438,-2.616 2.237,-1.906 0.319,0.283 0.481,1.05 0.774,1.592 0.808,1.49 3.817,2.64 4.975,2.918 3.242,0.78 9.842,-0.187 12.515,-2.996 1.075,-1.13 2.763,-4.321 3.038,-5.207 0.338,-1.087 -0.436,-8.853 -1.036,-10.394 -1.062,-2.726 -2.498,-3.914 -4.071,-1.295 -2.322,3.865 -1.917,5.06 -0.445,8.526 0.409,0.96 0.629,1.772 0.667,3.315 0.016,0.646 0,1.421 0,1.421 l -4.895,0 c -1.199,0 -1.451,-0.034 -2.518,-0.337 -3.389,-0.963 -5.59,-3.771 -5.911,-6.673 -0.21,-1.897 0.733,-3.651 0.444,-6.441 -0.278,-2.68 -1.692,-6.316 -1.692,-6.316 0,0 -1.318,0.675 -2.107,1.328 -1.364,1.129 -2.264,5.81 -1.722,7.617 0.193,0.641 0.568,1.174 0.858,1.823 0.556,1.244 0.957,3.415 0.799,4.955 -0.12,1.167 -0.218,1.335 -0.987,1.688 -2.242,1.029 -8.114,0.4 -9.361,-0.723 -0.317,-0.285 -0.527,-0.64 -0.65,-1.122 -0.344,-1.345 -0.22,-2.378 -1.304,-1.956 -1.024,0.398 -1.751,2.351 -2.931,3.552 -1.957,1.991 -11.243,3.827 -14.479,4.026 -4.399,0.27 -14.4599998,0.01 -16.3299998,-5.898 -0.252,-0.796 -0.28,-1.027 -0.28,-2.305 z"
     style="fill:#000000;stroke:none" />
</svg>
