<?xml version="1.0" encoding="UTF-8" standalone="no"?>
<svg>
  <path
     style="fill:#000000;stroke:none"
     d="M 29.142706,5.92875 23.200216,0 l -7.54499,7.52749 7.54499,7.52625 5.94249,-5.9275 5.94125,5.9275 7.54499,-7.52625 L 35.083956,0 29.142706,5.92875 z m -4.60749,22.51872 c 0.20375,2.8 1.51,4.54249 3.88624,5.04499 3.0675,0.64875 4.80125,-1.015 5.5875,-4.37874 0.1725,-0.7375 0.13375,-1.3525 -0.34125,-1.65 -0.90375,-0.56375 -3.385,0.0225 -4.58375,-0.615 -1.4925,-0.7925 -1.8725,-4.16249 -1.5025,-5.73749 0.36875,-1.57625 1.31125,-3.265 1.5675,-4.48 0.0513,-0.24625 0.075,-0.4725 -0.0312,-0.59875 -0.0137,-0.0162 -0.0275,-0.0312 -0.0412,-0.045 -3.60874,-0.82374 -4.48624,13.21624 -4.54124,12.45999 z m -6.56749,36.64746 c -0.455,2.83874 0.0975,3.53499 1.98374,2.66374 1.285,-0.5925 17.85998,-10.23498 20.28123,-13.12248 0.975,-1.1625 1.9475,-3.21875 2.29125,-5.07 0.21125,-1.13999 -0.13125,-1.09874 -1.35875,-0.64249 -2.84375,1.05749 -21.59623,12.47248 -22.18498,13.50498 -0.54874,0.9625 -0.89999,1.9625 -1.01249,2.66625 z m 74.27366,-22.20123 -7.52749,7.52624 7.52749,7.52749 7.52624,-7.52749 -7.52624,-7.52624 z m -23.90372,45.65745 -0.0525,-1.53 c -0.025,-0.68625 0.015,-0.93 0.39375,-2.4325 1.23749,-4.91374 4.68874,-17.96623 0.70499,-23.61747 -0.63874,-0.90625 -1.65624,-0.8925 -2.29249,0.08 -2.45625,3.7525 -1.175,5.66874 0.0325,9.16874 2.37249,6.87499 -1.4675,14.12998 -2.6775,21.89747 -0.4825,3.0925 -0.38,4.22625 1.33625,5.41625 3.20625,2.22375 5.70874,2.74749 7.74749,0.0163 3.3725,-4.51875 2.28875,-7.96999 -2.96625,-8.74749 -0.95625,-0.1425 -2.22624,-0.25125 -2.22624,-0.25125 z m 31.34121,-51.10244 c 0.24,-0.18 0.438754,-0.34375 0.585004,-0.4775 1.34,-1.22125 6.11624,-9.76999 6.48124,-11.59874 0.67375,-3.37624 -0.6575,-10.49748 -2.2775,-16.42248 -0.40875,-1.495 -0.54375,-1.6575 -1.34749,-1.63 l -1.78875,0.0625 -3.561254,7.46875 0.0325,0.91749 c 0.015,0.4125 0.05,0.6275 0.35375,2.14875 0.495,2.47375 1.0425,5.5875 1.985004,7.29499 1.45875,2.645 1.625,3.6175 -1.456254,4.64125 -1.4875,0.49375 -16.09873,0.565 -18.35998,-1.88375 -0.25375,-0.275 -0.4475,-0.6 -0.5875,-0.94625 -0.18875,-0.46625 -0.23125,-0.68875 -0.43375,-2.22375 L 77.330156,9.79249 c 0,0 -1.68875,2.5425 -2.745,4.32 -3.22875,5.43124 -2.635,7.19874 -1.03875,13.63498 0.4075,1.64125 0.06,1.89375 -1.92125,2.4775 -3.96624,1.1675 -5.82749,1.64 -9.42874,1.4775 -1.12125,-0.0513 -2.23374,-0.155 -2.88374,-0.76 -1.705,-1.58875 -0.74875,-3.42375 -3.61125,-2.1975 -1.45125,0.6225 -2.9025,1.9675 -4.46749,2.94125 -6.39875,3.97874 -21.01248,5.90499 -26.34372,5.33499 -9.16249,-0.97875 -15.8024799,-3.9825 -18.8212299,-10.81874 -0.995,-2.255 -1.99375,-7.71499 -1.7725,-9.69374 0.4175,-3.72999 1.9925,-8.67624 1.9925,-8.67624 0,0 -0.5575,-0.0588 -0.9175,0.0325 -0.5575,0.14125 -0.6425,0.64375 -0.7625,1.17375 -1.98375,8.80374 -5.12248999,11.05249 -4.53748999,17.94623 0.45875,5.40499 2.37498999,12.53874 5.69873999,15.29498 7.3712399,6.11375 21.0549799,6.38125 28.9687199,5.0125 3.55124,-0.61375 8.23999,-2.00875 10.83748,-3.43375 0.55,-0.30125 1.125,-0.62125 1.7075,-0.94625 l 5.86749,-3.27624 2.985,1.74499 c 3.48125,2.15625 15.23748,0.4975 16.35873,-1.56124 0.555,-1.02125 0.17,-2.52375 0.7725,-3.6275 0.89875,-1.6425 1.57875,0.065 2.81,1.49 0.20875,0.24125 0.6975,0.64625 1.23,1.02875 0.69749,0.49875 1.64624,0.84 2.75624,1.06 4.525,0.89749 16.64123,1.35124 19.61498,-2.3225 z M 64.631416,0 l -7.52749,7.52749 7.52749,7.52625 7.52624,-7.52625 L 64.631416,0 z" />
</svg>
