<?xml version="1.0" encoding="UTF-8" standalone="yes"?>
<svg xmlns="http://www.w3.org/2000/svg" xmlns:xlink="http://www.w3.org/1999/xlink"
  width="595.276pt" height="841.89pt" viewBox="0 0 595.276 841.89"
  fill-rule="evenodd">
  <path
     style="fill:#000000;stroke:none"
     d="M 23.314145,4.7429599 18.560157,-3.6104906e-5 12.52417,6.0219509 18.560157,12.042946 23.314145,7.3009499 28.067141,12.042946 34.103128,6.0219509 28.067141,-3.6104906e-5 23.314145,4.7429599 z M 19.628156,22.757921 c 0.163,2.239998 1.207999,3.633989 3.10899,4.035989 2.453998,0.518999 3.840997,-0.811999 4.469996,-3.502989 0.138,-0.59 0.107,-1.081999 -0.273,-1.319999 -0.722999,-0.451 -2.707997,0.018 -3.666997,-0.492 -1.193999,-0.633999 -1.497998,-3.329989 -1.201999,-4.589988 0.295,-1.260999 1.049,-2.611998 1.253999,-3.583997 0.04104,-0.197 0.06,-0.378 -0.02496,-0.478999 -0.01096,-0.01296 -0.022,-0.02496 -0.03296,-0.036 -2.886989,-0.658992 -3.588989,10.572983 -3.632989,9.967983 z m -5.253987,29.317944 c -0.364,2.27099 0.078,2.827989 1.58699,2.13099 1.028,-0.474 14.287973,-8.187977 16.224971,-10.497975 0.779999,-0.929999 1.557999,-2.574998 1.832998,-4.055997 0.169,-0.911991 -0.105,-0.878991 -1.086999,-0.513991 -2.274998,0.845991 -17.276969,9.977975 -17.747969,10.803975 -0.438992,0.769999 -0.719991,1.569998 -0.809991,2.132998 z m 59.418878,-17.760969 -6.021987,6.020987 6.021987,6.021987 6.020987,-6.021987 -6.020987,-6.020987 z m -19.12296,36.525929 -0.042,-1.223999 c -0.02,-0.548999 0.012,-0.743999 0.315,-1.945998 0.989991,-3.930989 3.750989,-14.372972 0.563991,-18.89396 -0.510991,-0.725 -1.32499,-0.714 -1.83399,0.064 -1.964998,3.001997 -0.939999,4.534988 0.026,7.334985 1.89799,5.499988 -1.173999,11.303975 -2.141998,17.517962 -0.386,2.473998 -0.304,3.380997 1.068999,4.332996 2.564998,1.778999 4.566988,2.197991 6.197987,0.01304 2.697997,-3.614997 1.830998,-6.375987 -2.372998,-6.997986 -0.765,-0.114 -1.780991,-0.201 -1.780991,-0.201 z M 79.743034,29.958907 c 0.192,-0.144 0.351003,-0.275 0.468003,-0.381999 1.071999,-0.977 4.892988,-7.815986 5.184988,-9.278985 0.538999,-2.700989 -0.526,-8.397977 -1.821999,-13.1379731 -0.326999,-1.195999 -0.434999,-1.325999 -1.077991,-1.303999 l -1.430999,0.05 -2.849,5.9749951 0.026,0.733992 c 0.012,0.329999 0.04,0.501999 0.282999,1.718998 0.396,1.978999 0.834,4.469997 1.588002,5.835987 1.166999,2.115999 1.299999,2.893998 -1.165002,3.712997 -1.189999,0.395 -12.878973,0.452 -14.687972,-1.506998 -0.203,-0.22 -0.358,-0.48 -0.469999,-0.757 -0.151,-0.372999 -0.185,-0.550999 -0.347,-1.778998 L 61.864073,7.8339499 c 0,0 -1.350999,2.033998 -2.195998,3.4559971 -2.582998,4.344988 -2.107998,5.758987 -0.830999,10.907975 0.325999,1.312999 0.048,1.514998 -1.536999,1.981998 -3.172989,0.933999 -4.661988,1.311999 -7.542986,1.181999 -0.896999,-0.04104 -1.78699,-0.124 -2.30699,-0.607999 -1.363999,-1.270999 -0.598999,-2.738998 -2.888997,-1.757999 -1.160999,0.498 -2.321998,1.573999 -3.573989,2.352998 -5.118996,3.182989 -16.80997,4.723988 -21.074959,4.267989 C 12.58217,28.833908 7.2701828,26.43091 4.8551848,20.961923 4.0591855,19.157924 3.2601862,14.789936 3.437186,13.206937 3.7711857,10.222948 5.0311847,6.2659509 5.0311847,6.2659509 c 0,0 -0.4459996,-0.04704 -0.7339994,0.026 -0.4459996,0.113 -0.5139996,0.515 -0.6099995,0.938999 C 2.1001871,14.273936 -0.41080277,16.072935 0.05719684,21.587922 0.42419653,25.911911 1.9571872,31.618906 4.616185,33.823896 c 5.896987,4.890996 16.84397,5.104996 23.174957,4.009997 2.840989,-0.491 6.591986,-1.606999 8.669976,-2.746998 0.44,-0.241 0.9,-0.497 1.365999,-0.756999 l 4.693988,-2.62099 2.387998,1.395991 c 2.784998,1.724998 12.189974,0.397999 13.086973,-1.248991 0.444,-0.817 0.136,-2.018999 0.618,-2.901998 0.718999,-1.313999 1.262999,0.052 2.247998,1.191999 0.167,0.193 0.558,0.517 0.983999,0.822999 0.557992,0.399 1.316991,0.672 2.20499,0.848 3.619997,0.717991 13.312973,1.080991 15.691971,-1.857999 z M 51.70509,-3.6104906e-5 45.683103,6.0219509 51.70509,12.042946 57.726077,6.0219509 51.70509,-3.6104906e-5 z" />
</svg>
