<?xml version="1.0" encoding="UTF-8" standalone="yes"?>
<svg xmlns="http://www.w3.org/2000/svg" xmlns:xlink="http://www.w3.org/1999/xlink"
  width="595.276pt" height="841.89pt" viewBox="0 0 595.276 841.89"
  fill-rule="evenodd">
  <path
     d="m 66.152122,27.305131 c 2.654996,2.332996 6.514989,3.546994 8.034986,1.269998 0.986999,-1.477997 2.592996,-4.558992 2.592996,-4.558992 0,0 -1.631997,-2.466996 -2.994995,-3.526994 -0.915998,-0.712999 -2.662995,-1.010998 -3.695994,-0.449999 -0.911998,0.494999 -1.976996,1.927996 -2.553995,1.341998 -0.700999,-0.711999 1.583997,-5.374991 1.725997,-5.77399 C 71.009114,10.71416 70.916114,7.6561653 69.574116,3.5921723 69.161117,2.3421743 68.705118,1.0721763 68.066119,0.57517732 L 67.32712,1.7831989e-4 66.553121,0.82617732 C 65.347124,2.1131753 65.578123,5.4841693 65.972123,6.8671663 c 0.368999,1.293998 1.014998,2.579996 1.378997,3.9699937 0.431999,1.652997 0.222,5.51399 -0.395999,7.253987 -0.850999,2.397996 -2.421996,4.596992 -2.076997,7.214988 0.119,0.895998 0.246,1.095998 1.273998,1.998996 z M 87.50408,7.6931653 83.245088,11.924158 c -0.707999,0.702999 -0.807999,0.829998 -1.005998,1.262998 -0.278,0.605999 -0.374,1.619997 -0.237,1.757997 0.440999,0.444999 2.000996,-0.635999 2.542996,-1.035999 4.754991,-3.505993 6.920988,-5.7149897 7.688986,-10.2549817 0.391,-2.307996 -0.830998,-3.20099498 -2.992995,-3.49499398 -3.429994,-0.467999 -6.833988,0.01 -8.166985,2.59299498 0.207999,9.8599837 0.500999,4.221993 3.409994,3.521994 3.235994,-0.778998 6.715988,-2.508995 3.019994,1.418998 z m -36.256932,0 -4.258993,4.2309927 c -0.707998,0.702999 -0.807998,0.829998 -1.006998,1.262998 -0.276999,0.605999 -0.372999,1.619997 -0.236999,1.757997 0.441999,0.444999 2.000996,-0.635999 2.543995,-1.035999 4.754992,-3.505993 6.919988,-5.7149897 7.688987,-10.2549817 0.390999,-2.307996 -0.830999,-3.20099498 -2.992995,-3.49499398 -3.429994,-0.467999 -6.834988,0.01 -8.166986,2.59299498 0.208,9.8599837 0.500999,4.221993 3.409994,3.521994 3.235995,-0.778998 6.714989,-2.508995 3.019995,1.418998 z m -36.674936,0.391 c 0,0 3.939993,-1.286999 5.50199,-0.930999 0.823999,0.187 1.675997,1.669997 2.210996,2.805995 0.970999,2.0619967 1.906997,4.7179917 2.261996,6.8249877 0.118,0.701999 0.246,1.348998 0.968999,1.595998 0.453999,0.155999 1.146998,0.164999 1.146998,0.164999 0,0 0.0016,-0.01 0.0048,-0.03096 0.344999,-1.942996 1.112998,-5.201991 1.308997,-7.167987 0.206,-2.0639967 0.16,-2.7799947 1.917997,-2.6489957 2.654995,0.198 3.557994,0.665999 4.724992,-1.452997 1.045998,-1.900997 2.193996,-5.78199 0.365999,-7.03998798 -5.65299,-1.52299702 -7.762986,5.91498998 -8.116986,7.61698698 -0.499999,2.4039957 -0.709999,4.9819907 -0.709999,4.9819907 0,0 -1.384997,-4.4509917 -2.402995,-6.8559877 -1.145998,-2.703995 -4.102993,-6.34698898 -7.293988,-5.43599098 -1.584997,0.452 -2.141996,1.74799698 -2.140996,3.46399398 8e-4,1.578998 0.251,4.108994 0.251,4.108994 z M 21.0412,45.531092 c 0.173,2.397996 1.291998,3.887993 3.326995,4.318992 2.624995,0.554999 4.108992,-0.868998 4.781991,-3.747993 0.148,-0.631999 0.115,-1.157998 -0.291999,-1.412998 -0.772999,-0.482991 -2.896995,0.01904 -3.923993,-0.525991 -1.276998,-0.678999 -1.601998,-3.562994 -1.285998,-4.911991 0.315999,-1.348998 1.121998,-2.794996 1.341998,-3.834994 0.044,-0.210999 0.06504,-0.404999 -0.02696,-0.512999 -0.012,-0.01304 -0.02304,-0.026 -0.03496,-0.038 -3.088995,-0.704999 -3.840994,11.312973 -3.886994,10.665974 z m -2.508995,35.739935 c -0.375,2.34 0.081,2.914 1.635997,2.196 1.058998,-0.489 14.723974,-8.437986 16.719971,-10.817982 0.802998,-0.958999 1.604997,-2.653996 1.887997,-4.179993 0.173999,-0.938998 -0.108,-0.905999 -1.119998,-0.529999 -2.344996,0.871998 -17.80397,10.282982 -18.288969,11.132984 -0.451999,0.795 -0.741998,1.61799 -0.834998,2.19899 z m 53.779907,-19.760963 -6.01399,6.01299 6.01399,6.013989 6.012981,-6.013989 -6.012981,-6.01299 z m -21.494963,-41.43592 -6.01399,6.013989 6.01399,6.01299 6.012989,-6.01299 -6.012989,-6.013989 z m -25.680956,7.148987 4.877992,4.877992 6.013989,-6.01299 -6.013989,-6.013989 -4.877992,4.878991 -4.878991,-4.878991 -6.01399,6.013989 6.01399,6.01299 4.878991,-4.877992 z m 13.032978,32.466936 c 0.358999,-0.402999 0.706998,-0.789999 1.041998,-1.138998 l 2.262996,-2.365996 2.381996,2.738995 c 0.475999,0.548 1.026998,1.104999 1.719997,1.520998 1.425997,0.852998 4.284992,1.072998 6.028989,0.462999 1.891997,-0.661999 3.432994,-2.121996 4.934992,-3.009995 l 2.287996,-1.350997 3.559994,1.804996 c 1.127998,0.572999 2.318996,1.221998 3.591993,1.628998 1.635998,0.522999 11.327981,-0.813999 13.447969,-1.854997 1.158001,-0.568999 4.491996,-6.649989 4.404996,-8.035986 -0.323,-5.182991 -2.886995,-13.998968 -2.886995,-13.998968 0,0 -2.21,2.890995 -3.140998,5.340991 -1.00599,2.645995 1.640997,8.270977 0.926998,9.737975 -0.442999,0.910998 -9.874974,1.961996 -13.446968,0.231999 -1.272998,-0.615998 -1.908997,-1.676997 -2.584996,-4.055992 -1.153998,-4.065985 -2.462996,-12.003972 -2.462996,-12.003972 0,0 -1.782996,3.540994 -2.603995,5.85799 -0.574999,1.623997 -0.676999,2.646996 -0.509999,3.949985 0.502999,3.914994 1.909997,6.589989 -0.648999,7.410987 -1.694997,0.544 -6.923988,0.482 -8.114986,-0.462999 -1.632997,-1.295997 -3.785993,-5.100991 -3.785993,-5.100991 0,0 -1.886997,2.492996 -3.494994,4.172993 -5.407991,5.65199 -17.30497,5.54199 -25.257957,4.636992 C 9.7592199,55.118075 6.5302257,53.599078 5.0012284,47.924088 4.5772291,46.34909 4.3742295,44.633093 4.7692288,43.287104 5.1212282,42.091106 5.9452267,41.185107 6.6242256,39.114111 7.1272247,37.579113 7.552224,35.404117 7.552224,35.404117 c 0,0 -1.2799978,0.925999 -2.318996,1.854997 -4.2839926,3.827993 -5.87798986,11.350972 -5.00099138,15.824965 0.97899828,4.991991 5.37499068,7.915986 10.47998138,9.598983 8.850985,2.916995 21.521963,2.517996 27.456953,-2.992995 z"
     style="fill:#000000;stroke:none" />
</svg>
