<?xml version="1.0" encoding="UTF-8" standalone="no"?>
<svg>
  <path
     style="fill:#000000;stroke:none"
     d="m 20.709228,7.0338718 4.84374,4.8437502 5.93875,-5.9387502 L 25.552968,1.318352e-4 20.709228,4.8426218 15.865478,1.318352e-4 9.9267383,5.9388718 15.865478,11.877622 20.709228,7.0338718 z M 50.371698,1.318352e-4 44.431708,5.9388718 50.371698,11.877622 56.310448,5.9388718 50.371698,1.318352e-4 z M 84.280418,32.505102 l -5.93874,5.93874 5.93874,5.94 5.94,-5.94 -5.94,-5.93874 z m -6.83874,-17.22999 c -0.005,-0.4575 -10e-4,-0.99375 0.0275,-1.46 0.0387,-0.63125 0.1225,-1.13124 0.2175,-1.56499 0.73,-3.3287502 0.45625,-4.5612502 -0.785,-7.7262502 -0.6475,-1.64875 -1.54,-3.66123996 -2.0875,-4.13498996 -0.92375,-0.80125 -2.04875,-0.37375 -2.33125,1.36998996 -0.205,1.26 -0.16125,2.1025 0.6775,2.975 1.715,1.26 2.8,2.85875 3.23875,5.6337502 0.3,1.89875 0.22625,2.17875 -0.1425,3.46999 -0.42875,1.49875 -0.77875,3.89 -0.0962,5.62625 0.63125,1.60375 2.02125,2.0275 3.4975,2.08875 1.87249,0.0775 3.67749,0.1175 4.04499,-2.18875 0,-0.001 0,-0.002 0.001,-0.004 0.23375,-1.47125 -0.18,-2.61875 -1.425,-3.45375 -1.20624,-0.80875 -2.96499,-1.2325 -3.99999,-0.56875 -0.82125,0.52875 -0.82,1.46125 -0.8375,-0.0625 z m 13.24624,35.15872 c 0.1725,-0.21375 0.32125,-0.46625 0.4425,-0.77 0.1775,-0.445 0.61125,-3.33874 0.4475,-3.58374 -0.1525,-0.23 -0.635,-0.1425 -1.19375,0 -0.0888,0.0225 -0.19375,0.0537 -0.31375,0.0937 l -11.23249,5.43249 c -0.2,0.13125 -0.3275,0.22625 -0.4,0.29625 -0.655,0.63875 -0.42375,0.83125 -0.73875,2.39625 -0.2175,1.08625 -0.3025,1.14 0.29125,1.93375 0.11875,0.15875 0.3725,0.3875 0.70375,0.39625 l 11.99374,-6.195 z m -45.32246,-32.61997 c -0.49875,-1.23 -0.8725,-2.415 -0.8725,-2.415 0,0 -3.12,3.93375 -5.4725,5.76875 -2.795,2.18 -8.97124,3.58 -13.70999,4.10624 -12.85499,1.04 -22.9699797,-1.01499 -22.4224797,-14.39248 0.0838,-2.0400002 0.3375,-4.0412502 0.3375,-4.0412502 0,0 -0.55,0.7225 -0.935,1.3375 -0.065,0.1025 -0.1275,0.215 -0.18875,0.33625 -3.71624,7.4387402 -3.05250003,20.1587302 6.46875,23.0437302 0.7475,0.2275 1.5399997,0.425 2.3562397,0.5975 7.89875,1.6675 23.40373,1.1725 29.15623,-6.00875 0.92875,-1.15875 1.77625,-2.17374 2.47375,-1.365 0.16375,0.19 0.2875,0.485 0.41375,0.82375 1.94375,5.195 10.39249,4.09375 14.49374,2.3325 1.39999,-0.60125 2.53624,-1.49125 3.31499,-2.87375 1.0275,-1.82124 1.8975,-4.80874 1.8975,-4.80874 0,0 0.265,1.1225 0.48375,1.92625 2.94375,10.84999 20.88373,8.51374 29.31373,5.70499 0.23375,-0.0775 0.46125,-0.155 0.68375,-0.235 9.966242,-3.55249 5.38874,-16.92123 2.02374,-22.9662302 -0.53625,-0.9625 -1.05375,-1.9825 -1.7525,-1.90375 -0.16124,0.0187 -0.23499,0.12375 -0.73999,1.0425 -0.0312,0.055 -0.0612,0.11 -0.0925,0.165 -5.3375,9.5587402 -1.3875,7.1050002 1.02249,12.3324902 2.69,5.835 -3.81874,5.6825 -8.39999,6.21 -4.47124,0.515 -9.30624,0.51375 -13.05124,-1.36375 -2.77624,-1.39125 -5.68624,-4.08 -5.97249,-6.41375 -0.20875,-1.70375 0.2625,-4.09249 0.29875,-6.1287402 0.025,-1.4675 -0.6775,-6.71875 -1.94125,-8.21123996 -1.16875,-1.38125 -2.05,0.97248996 -2.6875,2.98623996 -0.40875,1.28875 -1.3375,3.3425 -1.045,4.41875 0.145,0.53625 0.57625,1.055 0.91,1.63125 0.68875,1.1937502 0.98375,2.7125002 1.18125,4.2162402 0.7775,5.8875 -4.165,7.495 -9.58124,7.91 -7.1175,0.545 -7.27625,-2.06 -7.96499,-3.7625 z" />
</svg>
