<?xml version="1.0" encoding="UTF-8" standalone="yes"?>
<!-- Created with sK1/UniConvertor (http://sk1project.org/) -->
<svg xmlns="http://www.w3.org/2000/svg" xmlns:xlink="http://www.w3.org/1999/xlink"
  width="595.276pt" height="841.89pt" viewBox="0 0 595.276 841.89"
  fill-rule="evenodd">
<path
	d="m 23.640576,4.2779639 -4.288,-4.278000004905 -5.444,5.432000004905 5.444,5.4310001 4.288,-4.2780001 4.288,4.2780001 5.445,-5.4310001 -5.445,-5.432000004905 -4.288,4.278000004905 z m 29.599,-4.278000004905 -5.431,5.431000004905 5.431,5.4320001 5.432,-5.4320001 -5.432,-5.431000004905 z M 21.218576,20.932964 c 0.162,2.241 1.208,3.634 3.11,4.037 2.453,0.518 3.84,-0.812 4.469,-3.503 0.138,-0.59 0.107,-1.082 -0.273,-1.32 -0.723,-0.452 -2.708,0.017 -3.668,-0.492 -1.193,-0.634 -1.497,-3.33 -1.201,-4.59 0.295,-1.261 1.049,-2.612 1.254,-3.584 0.041,-0.197 0.06,-0.379 -0.025,-0.48 -0.011,-0.012 -0.022,-0.024 -0.033,-0.036 -2.887,-0.658 -3.589,10.573 -3.633,9.968 z m 47.022,-10.9370001 c 0.163,2.2410001 1.208,3.6340001 3.11,4.0360001 2.453,0.519 3.84,-0.811 4.469,-3.502 0.138,-0.5910001 0.107,-1.0830001 -0.273,-1.3200001 -0.723,-0.452 -2.708,0.017 -3.667,-0.493 -1.194,-0.634 -1.498,-3.329 -1.202,-4.59 0.295,-1.261 1.049,-2.612 1.254,-3.584 0.041,-0.197 0.061,-0.378 -0.025,-0.479 -0.011,-0.013 -0.022,-0.025 -0.033,-0.036 -2.887,-0.658 -3.589,10.5730001 -3.633,9.968 z m -53.95,42.8500001 c -0.363,2.27 0.079,2.827 1.588,2.131 1.028,-0.475 14.288,-8.188 16.225,-10.498 0.78,-0.93 1.558,-2.576 1.833,-4.056 0.169,-0.912 -0.105,-0.88 -1.087,-0.515 -2.275,0.846 -17.278,9.979 -17.748,10.804 -0.439,0.771 -0.72,1.57 -0.811,2.134 z m 48.395,-44.4770001 c 0,0 -1.509,-0.226 -2.457,0.086 -0.75,0.246 -2.928,5.1440001 -3.311,6.2520001 -0.486,1.407 -0.598,7.686 -0.156,8.728 0.274,0.645 0.647,1.058 0.511,1.433 -0.483,1.335 -4.274,1.461 -5.95,1.406 -1.088,-0.036 -2.214,-0.224 -3.252,-1.038 -1.379,-1.082 -3.076,-3.328 -3.076,-3.328 0,0 -1.342,1.595 -2.479,2.6 -3.826,3.384 -19.145,4.781 -23.717,4.284 -6.638,-0.723 -12.7569999,-3.437 -14.6999999,-9.31 -0.515,-1.557 -0.59,-3.691 -0.188,-5.384 0.338,-1.424 0.982,-2.871 1.236,-4.1810001 0.076,-0.386 0.117,-0.761 -0.032,-0.92 -0.537,-0.575 -1.72,0.914 -2.023,1.4530001 -1.717,3.06 -3.71899995,12.172 -2.90399995,15.776 1.71899995,7.602 10.13299985,10.823 17.55899985,11.238 5.441,0.304 16.003,-1.441 20.609,-4.35 0.261,-0.165 0.527,-0.331 0.792,-0.492 l 3.23,-1.966 1.531,2.099 c 0.233,0.32 0.483,0.636 0.77,0.893 2.069,1.856 6.782,0.975 9.203,-0.322 0.431,-0.231 0.822,-0.489 1.185,-0.752 l 3.329,-2.411 3.084,1.891 c 1.228,0.753 2.609,1.644 3.955,2.251 2.506,1.129 10.315,1.194 13.789,-0.942 1.713,-1.054 6.616,-7.546 7.031,-9.783 0.566,-3.054 -1.415,-7.585 -2.522,-10.368 -0.941,-2.368 -1.627,-3.8570001 -3.009,-2.943 -2.508,1.658 -2.654,7.342 -1.698,10.027 0.537,1.507 1.625,3.205 1.758,4.949 0.044,0.576 0.048,1.381 0.048,1.381 0,0 -3.637,0.263 -6.258,0.218 -1.763,-0.03 -8.313,-0.901 -9.731,-2.885 -0.285,-0.399 -0.395,-0.877 -0.508,-1.365 -0.567,-2.438 -1.218,-5.118 -1.482,-9.439 -0.133,-2.184 -0.167,-4.7860001 -0.167,-4.7860001 z m 12.648,28.5680001 -5.432,5.431 5.432,5.431 5.431,-5.431 -5.431,-5.431 z"
	style="stroke:none; fill:#000000"/>
</svg>