<?xml version="1.0" encoding="UTF-8" standalone="yes"?>
<!-- Created with sK1/UniConvertor (http://sk1project.org/) -->
<svg xmlns="http://www.w3.org/2000/svg" xmlns:xlink="http://www.w3.org/1999/xlink"
  width="595.276pt" height="841.89pt" viewBox="0 0 595.276 841.89"
  fill-rule="evenodd">
  <path
     d="m 27.342311,33.617817 4.074002,4.073002 5.862002,-5.862003 -5.862002,-5.863002 -4.074002,4.074001 -4.073002,-4.074001 -5.863003,5.863002 5.863003,5.862003 4.073002,-4.073002 z M 23.515309,9.9958056 c 0.163,2.2410014 1.208001,3.6340024 3.110001,4.0360024 2.453002,0.519 3.840002,-0.811 4.469002,-3.502001 0.138001,-0.5910014 0.107001,-1.0830014 -0.273,-1.3200014 -0.723,-0.452 -2.708001,0.017 -3.667001,-0.493 -1.194001,-0.634 -1.498001,-3.329002 -1.202001,-4.589002 0.295,-1.262001 1.049001,-2.613001 1.254001,-3.58500201 0.04104,-0.197 0.06,-0.378 -0.02496,-0.479 -0.01096,-0.013 -0.022,-0.025 -0.03296,-0.036 -2.887002,-0.658 -3.589002,10.57300541 -3.633002,9.96800401 z m 31.265014,27.6950134 5.862003,-5.862003 -5.862003,-5.863002 -5.863002,5.863002 5.863002,5.862003 z m -3.827002,48.18202 c 0.162001,2.24101 1.208001,3.63401 3.109002,4.03601 2.454001,0.519 3.841002,-0.811 4.470002,-3.50301 0.138,-0.59 0.107,-1.082 -0.274,-1.319 -0.722001,-0.452 -2.707001,0.017 -3.667002,-0.493 -1.193,-0.634 -1.497001,-3.329 -1.201,-4.59 0.295,-1.261 1.048,-2.612002 1.254,-3.584003 0.04096,-0.197 0.06,-0.378 -0.02496,-0.479 -0.01104,-0.013 -0.022,-0.025 -0.03304,-0.036 -2.887001,-0.658 -3.589002,10.573003 -3.633002,9.968003 z m -33.397015,1.735 c -0.363,2.27001 0.07896,2.82701 1.588001,2.13101 1.028001,-0.475 14.288007,-8.18901 16.225007,-10.49801 0.780001,-0.93 1.558001,-2.576002 1.832001,-4.056003 0.169,-0.912001 -0.104,-0.880001 -1.086,-0.515 -2.276001,0.846 -17.278008,9.979003 -17.748008,10.804003 -0.439,0.771 -0.721001,1.57 -0.811001,2.134 z m 32.006015,-82.2560354 0,1.444001 1.549001,0 c 0.697,0 0.832,-0.027 1.349,-0.274 0.719,-0.343 1.753001,-1.385001 2.256001,-1.872001 0.135,-0.13 0.272,-0.263 0.436,-0.355 0.222,-0.125 0.316,-0.139 0.940001,-0.139 l 1.39,0 c 0,0 0.099,0.823 0,1.522001 -0.1,0.699 -1.774,2.732001 -3.162001,3.837001 -1.772001,1.4120014 -3.036001,2.7510014 -2.358001,3.8430024 0.182,0.293 0.65,0.712 1.152,0.654 0.129,-0.014 0.223001,-0.09 0.933001,-0.755 2.491001,-2.329001 6.703003,-7.6640044 5.835002,-11.4240054 -0.364,-1.57800101 -2.605001,-2.03300101 -4.243001,-1.75700101 -1.268001,0.214 -3.877002,1.65300101 -5.068003,2.58600101 -0.468,0.366 -0.744,0.72 -0.904,1.473001 -0.095,0.447 -0.105,0.568 -0.105,1.217 z M 81.580333,87.607839 c -0.364,2.27001 0.078,2.82701 1.588001,2.13101 1.028,-0.475 14.288006,-8.18901 16.224007,-10.49801 0.780999,-0.93 1.557999,-2.576002 1.832999,-4.056003 0.169,-0.912001 -0.105,-0.880001 -1.086,-0.515 -2.276,0.846 -17.278007,9.979003 -17.748007,10.804003 -0.439,0.771 -0.721,1.57 -0.811,2.134 z m 5.494002,-11.844003 5.863003,-5.862003 -5.863003,-5.863002 -5.862002,5.863002 5.862002,5.862003 z m -4.188002,-59.707027 -0.453,-8.6510044 c -0.06696,-1.284 -0.094,-1.507 -0.265,-2.234001 -0.524,-2.228001 -1.935001,-3.449001 -3.409999,-4.23700201 -1.876001,-1.001 -3.308001,-1.374 -5.241002,0.037 -1.590001,1.16000101 -1.739001,5.35900301 -1.114001,6.01600301 0.466,0.49 1.701001,0.446 3.196002,0.094 3.735001,-0.877 4.110001,-0.675 5.081999,3.2750024 0.463001,1.877 0.517001,3.635001 0.290001,5.523002 -0.483001,4.009002 -1.617999,5.959003 0.606,8.312004 0.925,0.979 1.892001,1.127 4.003002,0.693 1.5,-0.309 1.797001,-1.006 2.426001,-3.083001 0.442,-1.462001 0.793,-2.771002 0.679,-4.229002 -0.225,-2.892001 -3.352001,-8.3290044 0.417,-9.6790044 0.696001,-0.249001 1.600001,-0.087 2.379001,0.083 1.051001,0.229 1.230001,0.126 1.784001,-1.038001 0.455,-0.956 0.982001,-1.837001 1.272001,-2.866001 1.087,-3.86500201 -0.578001,-4.95500201 -3.919002,-3.37200201 -3.832002,1.81500101 -5.554003,9.59600541 -4.735002,14.81200741 0.251,2.150001 0.525,4.086002 0.525,4.086002 0,0 -0.229,-0.003 -0.502,-0.03 -1.072001,-0.106 -2.916001,-1.530001 -3.020002,-3.512002 z M 5.8703013,37.318819 c 0.1420001,-0.43 0.2700001,-0.846001 0.3620002,-1.271001 0.081,-0.376 0.133,-0.76 0,-0.884 -0.3040002,-0.284 -1.4010007,0.608 -1.6840008,0.929 -0.1310001,0.149 -0.2620001,0.323 -0.3920002,0.518 -6.9990032,10.567005 -4.3900019,19.811009 2.136001,24.835012 8.3380035,6.420003 33.3600145,4.180002 40.9330185,-3.108002 1.026,-0.987 1.831001,-1.977001 2.398001,-1.364 0.233,0.252 0.391,0.781 0.544,1.369 1.392001,5.335003 6.958003,5.551003 11.776005,4.114002 3.812002,-1.136 6.670003,-2.407001 7.727004,-6.661003 0.361,-1.455001 0.714,-2.310001 1.783001,-0.59 0.129,0.207 0.244,0.432 0.353,0.661 2.472001,5.143002 16.424005,7.958004 20.744007,4.841002 3.820002,-2.756001 7.049003,-11.766005 5.649002,-15.545007 -0.836,-2.258001 -2.075001,-4.539002 -2.918001,-5.726002 -1.268,-1.783001 -2.245001,-0.591001 -3.269001,1.703 -0.697001,1.562001 -1.161001,4.306002 -0.617001,6.048003 1.099001,3.808002 4.633002,5.906003 1.165001,6.587003 -4.147002,0.813001 -12.739004,-0.599 -16.124005,-3.684001 -3.638002,-3.317002 -2.282001,-8.278004 -4.012002,-14.538007 -0.32,-1.160001 -1.116,-2.591001 -1.754001,-4.013002 -0.773,-1.725001 -1.114,-2.620001 -2.621001,-1.534001 -1.539001,1.108001 -1.539001,6.390003 -1.204,7.670004 0.078,0.299 0.177,0.6 0.29,0.904 2.177001,5.869003 5.236002,12.547006 -0.973001,15.321007 -3.251001,1.452001 -12.417005,1.980001 -13.568006,-3.653001 -0.02904,-0.143 -0.052,-0.290001 -0.068,-0.442001 -0.102,-0.972 0,-2.263001 0,-2.263001 0,0 -0.644,-0.092 -1.182,0 -0.476001,0.081 -2.198001,2.043001 -3.175002,3.242002 -3.808002,4.674002 -16.818007,6.197003 -20.042009,6.484003 -1.656001,0.147 -3.225001,0.266 -4.728002,0.326 C 8.8383024,58.171828 0.84529907,52.505826 5.8703013,37.318819 z"
     style="fill:#000000;stroke:none" />
</svg>
