<?xml version="1.0" encoding="UTF-8" standalone="yes"?>
<!-- Created with sK1/UniConvertor (http://sk1project.org/) -->
<svg xmlns="http://www.w3.org/2000/svg" xmlns:xlink="http://www.w3.org/1999/xlink"
  width="595.276pt" height="841.89pt" viewBox="0 0 595.276 841.89"
  fill-rule="evenodd">
  <path
     d="m 18.735667,21.125932 c 0.163,2.240997 1.207998,3.633995 3.108995,4.035994 2.453997,0.519 3.840994,-0.810998 4.469994,-3.501994 0.137999,-0.59 0.106999,-1.082999 -0.273,-1.319998 -0.722999,-0.452 -2.707996,0.017 -3.666995,-0.492 -1.193998,-0.633999 -1.497997,-3.329995 -1.201998,-4.589993 0.295,-1.260998 1.048999,-2.611996 1.253998,-3.583995 0.04104,-0.196999 0.06,-0.378999 -0.02496,-0.479999 -0.01096,-0.013 -0.022,-0.025 -0.03296,-0.036 -2.886995,-0.657999 -3.588994,10.572984 -3.632994,9.967985 z m 74.224892,20.188973 -4.881993,4.848993 c -0.810999,0.805999 -0.925999,0.949998 -1.152998,1.446998 -0.318,0.694999 -0.428,1.856997 -0.272,2.013997 0.505999,0.510999 2.292997,-0.727999 2.914996,-1.186999 5.448992,-4.017994 7.931988,-6.54899 8.812987,-11.752982 0.446999,-2.644996 -0.952999,-3.667995 -3.430995,-4.005997 -3.930994,-0.534999 -7.832989,0.013 -9.359986,2.971998 0.237999,11.301984 0.573999,4.838993 3.907994,4.036994 3.708994,-0.892998 7.696989,-2.874995 3.461995,1.626998 z m -16.056978,-8.381988 -5.862991,5.861992 5.862991,5.862991 5.861993,-5.862991 -5.861993,-5.861992 z m 0.104,-22.9369681 c 0.162,2.2399961 1.207998,3.6339941 3.108997,4.0359941 2.453996,0.518999 3.840994,-0.811999 4.469993,-3.502995 0.138,-0.5899991 0.107,-1.0819981 -0.272999,-1.3199981 -0.722999,-0.450999 -2.707996,0.018 -3.667995,-0.491999 -1.193,-0.633999 -1.496999,-3.329995 -1.201,-4.589994 0.295,-1.260998 1.049,-2.611996 1.254,-3.583994 0.04104,-0.197 0.06,-0.378 -0.02496,-0.479 -0.01096,-0.013 -0.022,-0.025 -0.03296,-0.036 -2.886997,-0.658999 -3.588996,10.5729851 -3.632996,9.967986 z M 22.562661,4.0729579 18.488667,-3.6104906e-5 12.626679,5.8619549 18.488667,11.724946 22.562661,7.6509519 26.635655,11.724946 32.498646,5.8619549 26.635655,-3.6104906e-5 22.562661,4.0729579 z M 49.281622,-3.6104906e-5 43.41963,5.8619549 49.281622,11.724946 55.144613,5.8619549 49.281622,-3.6104906e-5 z M 1.8856949,9.0859499 c 0,0 -1.0209985,2.1849971 -1.54499776,3.8979941 -0.88899868,2.906996 0.10299985,10.164985 1.35299806,12.691982 3.0029955,6.073991 13.0639808,7.91399 19.1309688,7.470991 5.202992,-0.380002 11.085983,-1.47 16.038976,-2.125999 1.754997,-0.232 3.391995,-0.41 4.831993,-1.352998 0.769999,-0.504 1.769997,-1.663998 2.799996,-2.694996 l 2.835996,-2.840996 1.215998,1.547998 c 0.327999,0.417999 0.629999,0.984998 1.003998,1.470997 1.990997,2.588997 5.693992,2.887996 8.375988,2.516997 2.330996,-0.322 6.42299,-2.067997 7.246989,-3.090996 0.741999,-0.921998 1.338998,-2.517996 2.376997,-2.318996 0.788999,0.149999 1.232998,1.928997 2.163997,3.091995 3.421994,4.270994 13.285982,2.275997 17.391975,1.351998 2.946996,-0.662999 5.458992,-1.403998 7.14999,-2.704996 0.927999,-0.713999 4.531993,-10.324985 4.311994,-11.497983 -0.409,-2.173997 -2.675997,-6.1479911 -4.311994,-8.5029871 -0.491999,-0.708999 -0.944999,-1.360998 -1.391998,-1.361998 -0.663999,-9.6e-4 -2.297997,4.435993 -2.858996,7.2559891 -0.269999,1.355998 -0.407999,2.337997 0.193,3.157995 1.566998,2.136997 5.630992,2.902996 3.864994,5.266993 C 92.08756,22.96293 78.784578,23.541929 77.63858,23.290929 74.171585,22.53393 71.294589,20.061934 70.295591,16.527939 68.852593,11.425947 66.667596,-3.6104906e-5 66.667596,-3.6104906e-5 c 0,0 -0.763999,0.796998004906 -1.280998,1.454997004906 -2.066997,2.630996 -1.058999,9.3829871 0.271,13.1399811 1.125998,3.180995 2.320996,4.424993 0.192999,6.183991 -3.520995,2.910996 -10.472984,3.270995 -13.42998,-0.193 -2.146997,-2.513996 -2.357996,-4.412993 -3.789994,-3.032995 -1.071999,1.031998 -2.561997,3.509994 -3.920995,4.771993 -3.536994,3.285995 -18.121973,3.618994 -22.338967,3.671994 C 17.720668,26.054925 7.264687,24.075928 4.7856906,19.696934 3.0276932,16.591939 1.8856949,9.0859499 1.8856949,9.0859499 z"
     style="fill:#000000;stroke:none" />
</svg>
