<?xml version="1.0"?>
<svg xmlns="http://www.w3.org/2000/svg" version="1.1">
  <path
     d="m 32.391023,45.848964 -5.176,5.257 c -0.86,0.874 -0.982,1.031 -1.223,1.569 -0.337,0.753 -0.454,2.013 -0.288,2.184 0.536,0.553 2.432,-0.79 3.091,-1.287 5.778,-4.357 8.411,-7.101 9.345,-12.742 0.475,-2.868 -1.01,-3.978 -3.638,-4.343 -4.169,-0.581 -8.306,0.013 -9.926,3.222 0.253,12.252 0.609,5.246 4.145,4.376 3.932,-0.968 8.161,-3.117 3.67,1.764 z m 32.743,-35.483 c 0.165,2.323 1.225,3.768 3.154,4.185 2.488,0.538 3.895,-0.841 4.533,-3.632 0.14,-0.612 0.108,-1.1230001 -0.277,-1.3690001 -0.733,-0.468 -2.746,0.018 -3.72,-0.51 -1.21,-0.658 -1.518,-3.453 -1.219,-4.76 0.3,-1.308 1.064,-2.709 1.272,-3.717 0.043,-0.204 0.062,-0.392 -0.025,-0.497 -0.011,-0.013 -0.022,-0.025 -0.033,-0.037 -2.929,-0.683 -3.64,10.9640001 -3.685,10.3370001 z m -43.362,-2.0120001 4.575,4.6620001 6.354,-6.5200001 -6.376,-6.496000004905 -4.544,4.661000004905 -4.575,-4.661000004905 -6.354,6.519000004905 6.376,6.4970001 4.544,-4.6620001 z m 40.785,22.5130001 -6.354,6.519 6.376,6.497 6.355,-6.52 -6.377,-6.496 z M 45.148023,-3.6104905e-5 38.794023,6.5189639 l 6.376,6.4970001 6.355,-6.5200001 -6.377,-6.496000004905 z M 71.593023,21.243964 c -3.07,-0.264 -5.984,-0.985 -8.042,-2.475 -3.321,-2.404 -2.412,-5.947 -2.783,-10.5010001 -0.201,-2.47 -0.66,-7.716 -2.855,-6.429 -1.369,0.802 -2.641,5.579 -2.694,6.802 -0.118,2.7430001 2.341,8.5370001 1.274,10.7820001 -1.161,2.442 -7.793,2.509 -10.601,0.385 -0.299,-0.226 -0.571,-0.471 -0.777,-0.792 -0.902,-1.409 -0.819,-3.872 -2.51,-2.642 -0.725,0.528 -1.15,1.976 -1.775,3.034 -3.379,5.721 -19.193,6.629 -23.44,6.355 -0.059,-0.004 -0.117,-0.008 -0.176,-0.012 -20.1710004,-1.488 -9.8610004,-32.0600001 -14.1640004,-20.3000001 -0.418,1.143 -0.744,2.096 -0.897,2.567 -2.18499998,6.7320001 -3.01699998,10.6140001 -1.019,15.5720001 2.695,6.687 5.487,9.392 11.9330004,10.975 1.983,0.487 11.974,0.206 13.986,-0.393 2.293,-0.683 4.49,-1.687 6.501,-2.353 1.304,-0.432 2.528,-0.722 3.993,-2.011 1.476,-1.3 3.196,-3.616 3.196,-3.616 0,0 1.986,2.565 3.707,3.693 2.183,1.43 8.259,-0.104 11.234,-2.215 0.305,-0.216 0.538,-0.413 0.737,-0.834 0.558,-1.179 0.851,-4.112 0.851,-4.112 0,0 0.93,2.66 1.926,4.034 0.679,0.937 2.643,1.779 4.759,2.404 5.01,1.482 8.958,1.822 13.654,-0.576 0.23,-0.118 0.431,-0.241 0.597,-0.37 1.011,-0.78 5.325,-8.693 5.803,-10.644 0.417,-1.7 0.423,-3.38 -0.137,-5.616 -1.065,-4.2560001 -4.132,-11.956000104905 -4.132,-11.956000104905 0,0 -2.639,4.671000004905 -3.055,7.275000004905 -0.223,1.395 1.127,8.4380001 1.653,9.4610001 1.133,2.208 2.336,3.054 -0.324,3.619 -1.62,0.345 -3.905,0.705 -6.423,0.889 z"
     style="fill:#000000;stroke:none" />
</svg>
