<?xml version="1.0" encoding="UTF-8" standalone="yes"?>
<!-- Created with sK1/UniConvertor (http://sk1project.org/) -->
<svg xmlns="http://www.w3.org/2000/svg" xmlns:xlink="http://www.w3.org/1999/xlink"
  width="595.276pt" height="841.89pt" viewBox="0 0 595.276 841.89"
  fill-rule="evenodd">
  <path
     d="m 54.824622,7.0796648 c 0.1152,1.587204 0.856003,2.573607 2.202406,2.858408 1.737606,0.3680012 2.720008,-0.574402 3.16561,-2.480807 0.0976,-0.417601 0.076,-0.766402 -0.193601,-0.934403 -0.512001,-0.320001 -1.917605,0.012 -2.596807,-0.348801 -0.845603,-0.448801 -1.060803,-2.358407 -0.851203,-3.250409 0.208801,-0.893603 0.742402,-1.8504055 0.888003,-2.53840745 0.0296,-0.1400004 0.0432,-0.2680008 -0.0176,-0.340001 -0.008,-0.0088 -0.0152,-0.0176 -0.0232,-0.0256 -2.044806,-0.4656014 -2.542408,7.48882155 -2.573608,7.06002055 z m -37.728909,-1.052803 3.766411,3.76721 4.639213,-4.640013 L 20.862124,0.51484565 17.095713,4.2812568 13.328502,0.51484565 8.6892884,5.1540588 l 4.6392136,4.640013 3.767211,-3.76721 z m 33.816898,18.4928532 -4.640014,4.640014 4.640014,4.639213 4.639213,-4.639213 -4.639213,-4.640014 z M 37.990173,0.51484565 33.35096,5.1540588 37.990173,9.7940718 42.630187,5.1540588 37.990173,0.51484565 z M 4.3228761,25.379718 c 2.9648086,2.140806 8.3088239,2.537607 10.7744309,2.398407 2.121606,-0.120001 4.485613,-0.260801 6.602419,-0.736803 2.078406,-0.467201 7.474422,-2.126406 8.615225,-2.987208 0.713602,-0.539202 1.426404,-1.343204 2.074406,-1.929606 l 1.443204,-1.305604 0.788003,1.400004 c 0.2248,0.399202 0.452801,0.869603 0.744802,1.237604 1.920005,2.426407 9.013626,1.376804 10.888031,-0.938403 0.220001,-0.2712 0.401601,-0.525601 0.559202,-0.752802 l 0.982403,-1.412004 1.398404,1.752005 c 0.395201,0.495202 0.824002,1.008003 1.261603,1.297604 0.659202,0.437601 3.558411,0.981603 4.332013,1.118403 4.259212,0.752002 7.239221,0.540802 9.432027,-1.991206 5.570416,-6.432818 3.982412,-7.04882 3.078409,-16.1416462 -0.1904,-1.917606 -0.306401,-3.592811 -1.582404,-2.763208 -2.076006,1.349604 -4.170412,8.4632242 -3.32401,10.3296292 0.256001,0.565602 0.716802,0.874403 0.900803,1.908806 0.1624,0.909603 0.1096,2.381607 0.1096,2.381607 0,0 -2.973609,-0.052 -4.945614,-0.172001 -2.868809,-0.176 -5.983218,-1.195203 -6.520019,-3.833611 -0.330401,-1.621604 0.0992,-4.200812 0.212,-6.0744172 0.084,-1.400804 -0.0368,-2.519207 -0.735202,-4.316012 -0.560001,-1.440005 -1.492804,-3.33441015 -1.492804,-3.33441015 0,0 -1.737605,2.57200715 -2.681608,4.20641215 -1.444804,2.503207 -0.957603,2.669608 0.0248,4.836814 0.494402,1.0896032 1.306404,6.6736192 1.104003,7.1568202 -0.727202,1.734406 -4.752813,1.765606 -6.638419,1.548005 -1.177603,-0.1368 -2.590407,-0.502401 -3.049609,-1.074403 -1.048003,-1.303204 -0.816002,-3.39121 -2.250406,-2.393607 -0.664002,0.461601 -1.213604,1.544004 -2.000006,2.245606 -1.551205,1.383204 -8.931226,3.16001 -10.953632,3.486411 C 18.368516,21.350106 11.465296,21.476506 7.2740847,18.785298 1.6412684,15.167688 3.9524751,4.0948558 2.1452698,8.2996678 1.2884673,10.293274 0.25726431,12.44368 0.1140639,13.706884 c -0.03040009,0.262401 -0.05200015,0.536801 -0.0672002,0.817602 -0.36160104,6.69282 1.3984041,7.814423 4.2760124,10.855232 z"
     style="fill:#000000;stroke:none" />
</svg>
