<?xml version="1.0"?>
<svg xmlns="http://www.w3.org/2000/svg" version="1.1">
  <path
     d="m 68.530579,8.8495644 c 0.144,1.9839996 1.07,3.2169996 2.753,3.5729996 2.172,0.46 3.4,-0.718 3.957,-3.1009996 0.122,-0.522 0.095,-0.958 -0.242,-1.168 -0.64,-0.4 -2.397,0.015 -3.246,-0.436 -1.057,-0.561 -1.326,-2.948 -1.064,-4.063 0.261,-1.117 0.928,-2.313 1.11,-3.17300002 0.037,-0.175 0.054,-0.335 -0.022,-0.425 -0.01,-0.011 -0.019,-0.022 -0.029,-0.032 -2.556,-0.582 -3.178,9.36100002 -3.217,8.82500002 z m -47.161,-1.316 4.708,4.7089996 5.799,-5.7999996 -5.799,-5.79900002 -4.708,4.70800002 -4.709,-4.70800002 -5.799,5.79900002 5.799,5.7999996 4.709,-4.7089996 z m 42.271,23.1159996 -5.8,5.8 5.8,5.799 5.799,-5.799 -5.799,-5.8 z m -16.153,-30.00599962 -5.799,5.79900002 5.799,5.7999996 5.8,-5.7999996 -5.8,-5.79900002 z M 5.4035795,31.724564 c 3.706,2.676 10.3859995,3.172 13.4679995,2.998 2.652,-0.15 5.607,-0.326 8.253,-0.921 2.598,-0.584 9.343,-2.658 10.769,-3.734 0.892,-0.674 1.783,-1.679 2.593,-2.412 l 1.804,-1.632 0.985,1.75 c 0.281,0.499 0.566,1.087 0.931,1.547 2.4,3.033 11.267,1.721 13.61,-1.173 0.275,-0.339 0.502,-0.657 0.699,-0.941 l 1.228,-1.765 1.748,2.19 c 0.494,0.619 1.03,1.26 1.577,1.622 0.824,0.547 4.448,1.227 5.415,1.398 5.324,0.94 9.049,0.676 11.79,-2.489 6.963,-8.041 4.978,-8.811 3.848,-20.1769996 -0.238,-2.397 -0.383,-4.491 -1.978,-3.454 -2.595,1.687 -5.213,10.5789996 -4.155,12.9119996 0.32,0.707 0.896,1.093 1.126,2.386 0.203,1.137 0.137,2.977 0.137,2.977 0,0 -3.717,-0.065 -6.182,-0.215 -3.586,-0.22 -7.479,-1.494 -8.15,-4.792 -0.413,-2.027 0.124,-5.251 0.265,-7.593 0.105,-1.7509996 -0.046,-3.1489996 -0.919,-5.3949996 -0.7,-1.8 -1.866,-4.16800002 -1.866,-4.16800002 0,0 -2.172,3.21500002 -3.352,5.25800002 -1.806,3.129 -1.197,3.337 0.031,6.0459996 0.618,1.362 1.633,8.342 1.38,8.946 -0.909,2.168 -5.941,2.207 -8.298,1.935 -1.472,-0.171 -3.238,-0.628 -3.812,-1.343 -1.31,-1.629 -1.02,-4.239 -2.813,-2.992 -0.83,0.577 -1.517,1.93 -2.5,2.807 -1.939,1.729 -11.164,3.95 -13.692,4.358 -6.383,1.029 -15.012,1.187 -20.2509995,-2.177 -7.041,-4.522 -4.152,-18.3629996 -6.411,-13.107 -1.071,2.492 -2.36000004,5.18 -2.53900004,6.759 -0.038,0.328 -0.065,0.671 -0.084,1.022 -0.452,8.366 1.74800004,9.768 5.34500004,13.569 z"
     style="fill:#000000;stroke:none" />
</svg>
