<?xml version="1.0"?>
<svg xmlns="http://www.w3.org/2000/svg" version="1.1">
  <path
     d="m 16.74086,10.05427 c 0.163,2.253 1.214,3.655 3.127,4.059 2.467,0.522 3.863,-0.816 4.495,-3.523 0.139,-0.593 0.108,-1.088 -0.275,-1.327 -0.726,-0.454 -2.723,0.017 -3.688,-0.496 -1.201,-0.637 -1.506,-3.348 -1.209,-4.616 0.297,-1.268 1.055,-2.627 1.262,-3.605 0.041,-0.198 0.061,-0.38 -0.026,-0.482 -0.011,-0.013 -0.021,-0.025 -0.032,-0.036 -2.904,-0.662 -3.61,10.634 -3.654,10.026 z m -5.994,69.728 c -0.366,2.284 0.079,2.844 1.597,2.143 1.034,-0.477 14.371,-8.235 16.319,-10.558 0.784,-0.936 1.567,-2.591 1.843,-4.08 0.17,-0.917 -0.105,-0.885 -1.093,-0.518 -2.289,0.851 -17.378,10.037 -17.851,10.867 -0.441,0.775 -0.724,1.579 -0.815,2.146 z m 42.772,2.426 5.897,-5.896 -5.897,-5.897 -5.896,5.897 5.896,5.896 z m 0.4,-29.868 c -0.916,-0.353 -1.693,-0.934 -2.108,-2.088 -0.18,-0.499 -0.213,-0.699 -0.328,-1.997 l -0.669,-7.553 c 0,0 -1.26,-0.084 -1.93,0.067 -0.272,0.061 -0.447,0.161 -0.571,0.303 -0.701,0.8 -2.887,6.159 -2.08,7.881 0.056,0.436 0.126,0.879 0.199,1.296 l 0.435,2.487 -1.701,0.38 c -1.121,0.25 -3.385,-0.612 -3.606,-0.739 -0.49,-0.281 -0.953,-0.643 -1.248,-1.164 -1.055,-1.864 -0.405,-4.254 -2.454,-3.296 -1.143,0.535 -2.235,2.318 -3.586,3.265 -2.039,1.43 -9.061,2.784 -10.985,3.041 -10.24,1.367 -19.3569999,0.551 -19.6729999,-9.458 -0.051,-1.625 0.261,-3.149 1.038,-4.867 0.194,-0.43 1.931,-3.452 1.554,-3.919 -0.686,-0.85 -1.778,0.636 -2.036,1.101 -0.969,1.74 -2.063,3.543 -3.2,6.501 -1.414,3.676 -1.563,12.251 1.475,15.403 2.121,2.201 5.909,2.828 8.9939999,2.899 3.871,0.089 15.401,-0.451 19.725,-2.863 0.586,-0.327 1.26,-0.816 1.914,-1.261 l 1.999,-1.36 1.145,1.75 c 1.196,2.752 5.626,2.71 8.907,1.515 1.23,-0.447 1.392,-0.593 1.618,-1.457 l 0.505,-1.923 c 0,0 0.687,1.092 1.165,1.794 0.354,0.52 0.593,0.826 0.836,1.048 3.486,2.545 12.494,2.549 16.463,1.335 0.87,-0.266 1.728,-0.587 2.457,-0.968 0.705,-0.368 4.172,-7.794 4.236,-9.072 0.179,-3.585 0.441,-5.81 -2.004,-8.954 -1.02,-1.313 -2.622,-3.092 -2.622,-3.092 0,0 -1.328,2.812 -2.152,4.708 -0.584,1.342 -1.695,4.301 -0.823,5.137 0.285,0.274 0.807,0.248 1.271,0.408 0.727,0.252 1.333,1.093 1.514,2.212 0.159,0.989 0.08,2.316 0.08,2.316 0,0 -2.736,0.274 -4.029,0.404 -4.323,0.434 -10.975,-1.701 -9.725,-1.22 z m -6.691,-43.472 -4.91,4.878 c -0.815,0.81 -0.931,0.956 -1.16,1.455 -0.319,0.699 -0.43,1.868 -0.273,2.026 0.509,0.513 2.307,-0.732 2.932,-1.194 5.481,-4.041 7.978,-6.587 8.864,-11.821 0.45,-2.66 -0.959,-3.69 -3.451,-4.029 -3.954,-0.539 -7.878,0.012 -9.414,2.989 0.239,11.367 0.577,4.867 3.931,4.06 3.73,-0.898 7.741,-2.892 3.481,1.636 z m -26.638,23.496 4.097,4.097 5.896,-5.897 -5.896,-5.896 -4.097,4.097 -4.098,-4.097 -5.896,5.896 5.896,5.897 4.098,-4.097 z m 25.7,4.097 5.896,-5.897 -5.896,-5.896 -5.897,5.896 5.897,5.897 z"
     style="fill:#000000;stroke:none" />
</svg>
