<?xml version="1.0" encoding="UTF-8" standalone="yes"?>
<!-- Created with sK1/UniConvertor (http://sk1project.org/) -->
<svg xmlns="http://www.w3.org/2000/svg" xmlns:xlink="http://www.w3.org/1999/xlink"
  width="595.276pt" height="841.89pt" viewBox="0 0 595.276 841.89"
  fill-rule="evenodd">
  <path
     d="m 54.204704,44.966157 c -0.2904,1.816801 0.0632,2.262401 1.2704,1.704801 0.822401,-0.379201 11.430406,-6.550404 12.980007,-8.398405 0.624,-0.744 1.2464,-2.060001 1.4656,-3.244801 0.135201,-0.7296 -0.0832,-0.7032 -0.8688,-0.4112 -1.820801,0.6768 -13.822407,7.982404 -14.198407,8.643204 -0.3512,0.616 -0.5768,1.256 -0.6488,1.706401 z M 17.311086,8.3981392 l 2.484001,2.7416008 3.831202,-4.2296018 -3.831202,-4.230402 -2.484001,2.742402 -2.484001,-2.742402 -3.831202,4.230402 3.831202,4.2296018 2.484001,-2.7416008 z m 42.25442,20.6160098 -3.832001,4.229602 3.832001,4.230402 3.831202,-4.230402 -3.831202,-4.229602 z M 40.197497,2.6797362 36.365495,6.9101382 40.197497,11.13974 44.029499,6.9101382 40.197497,2.6797362 z M 31.916693,26.228548 c 0.056,-0.0552 0.1096,-0.1112 0.1584,-0.1664 0.6088,-0.687201 1.420801,-1.901601 1.420801,-1.901601 0,0 0.4704,0.5544 0.8832,0.948 1.944801,1.853601 5.691203,1.524001 8.064004,1.060001 1.435201,-0.280801 2.143201,-0.524801 3.072002,-1.272001 0.6528,-0.5256 1.879201,-2.131201 2.004801,-2.623201 0.0968,-0.3824 0.172,-0.848801 0.568,-0.662401 0.2144,0.1008 0.328,0.484801 0.4032,0.848001 0.1344,0.6488 0.1456,1.2296 0.384,1.696001 0.0784,0.1528 0.1808,0.3016 0.304,0.4456 2.829602,3.324001 12.024806,3.439201 15.529608,2.195201 0.2136,-0.076 0.4344,-0.1592 0.6552,-0.2504 2.248001,-0.924801 4.204002,-4.957603 4.644003,-7.584004 0.3184,-1.903201 -0.677601,-4.455202 -1.118401,-6.057603 -0.288,-1.0456 -0.744,-7.2464028 -2.556801,-6.0400028 -0.741601,0.4928 -1.844001,4.5352018 -1.809601,5.4208028 0.056,1.428801 2.525601,7.915204 2.304001,8.338404 -0.272,0.5192 -0.9056,0.5728 -2.055201,0.6496 -2.507201,0.1672 -12.284806,0.799201 -13.784807,-3.900802 -0.2504,-0.7848 -0.2224,-1.4344 -0.2088,-2.268801 0.056,-3.402401 -0.3872,-4.967202 -1.3272,-7.9056038 -0.359201,-1.1224 -0.672001,-1.76 -1.505601,-1.2712 -0.2832,0.1656 -1.544801,3.112001 -1.662401,3.883202 -0.2728,1.7888008 0.0024,2.2480008 0.864,3.9592018 0.388001,0.7704 1.055201,3.488001 0.937601,3.817601 -0.296,0.828001 -1.927201,2.162401 -3.145602,2.435202 -1.928801,0.432 -7.212803,0.8304 -8.832004,-1.060001 -0.6152,-0.7184 -1.0312,-2.049601 -1.632001,-0.9536 -0.2048,0.3744 -0.3152,0.7848 -0.48,1.1656 -0.1736,0.4008 -0.444,0.782401 -0.788,1.144801 -5.033603,5.303202 -20.81681,7.681603 -26.3176127,2.745601 C 3.6966797,20.199745 1.6350787,15.384542 2.8550793,11.15894 3.2566795,9.7677402 3.6774797,8.4893392 3.4670796,8.4693392 3.0622794,8.4309392 2.6574792,9.1373392 2.259879,9.9829402 2.1110789,10.29974 1.9462789,10.68614 1.7742788,11.12374 -0.80092247,17.674143 -1.2329227,24.368547 5.0190804,28.945349 12.559884,34.465352 27.607091,30.47975 31.916693,26.228548 z M 56.225505,11.642941 c -0.2344,-0.283201 -0.2104,-0.667201 -0.0808,-1.163201 0.9048,-3.4440018 0.8944,-4.0792018 -0.3576,-7.4784038 -0.280801,-0.7616 -0.560801,-1.6256 -0.920001,-2.40000104 -0.236,-0.5104 -0.28,-0.5696 -0.4344,-0.5888 -0.2608,-0.0328 -0.3632,-0.008 -0.4984,0.1536 -0.0608,0.072 -0.0944,0.136 -0.3352,0.644 -0.108,0.22640004 -0.297601,0.62240104 -0.497601,1.07600104 -0.9856,2.231201 1.041601,3.247201 1.680001,6.216003 0.072,0.3368 0.1224,0.608 0.1416,0.7496 0.2112,1.5480008 -0.1656,2.2488008 -0.4992,3.9864018 -0.1288,0.672 -0.1024,1.175201 0.0752,1.601601 0.9968,2.399201 5.536003,3.738402 6.592003,1.511201 0.5032,-1.061601 0.860801,-2.404802 0.686401,-3.034402 -0.096,-0.3472 -0.350401,-0.7616 -0.665601,-1.1432 -0.0208,-0.0248 -0.044,-0.0512 -0.0688,-0.0776 -0.8472,-0.904001 -2.382401,-1.7232008 -3.388001,-0.760801 -0.536001,0.5128 -1.059201,1.155201 -1.429601,0.708001 z"
     style="fill:#000000;stroke:none" />
</svg>
