<?xml version="1.0" encoding="UTF-8" standalone="no"?>
<svg>
  <path
     style="fill:#000000;stroke:none"
     d="m 24.208731,45.222233 c 0.26625,-0.25375 0.64875,-0.4475 1.14,-0.56625 1.59375,-0.3875 4.33875,0 4.33875,0 0,0 0.94,-3.72625 0.59125,-5.5225 -0.3875,-2.00375 -3.97625,-2.14875 -5.91125,-0.68625 -2.47625,1.87125 -3.785,10.00625 -2.95625,12.5225 0.22875,0.69625 0.58125,1.32875 1.0475,1.83375 0.17,0.18375 0.355,0.35125 0.54875,0.525 l 1.35875,1.22125 0.7275,1.97875 c 0.30375,0.8225 0.4975,1.53125 0.4975,1.53125 0,0 5.53,-3.49375 7.34875,-5.71875 0.805,-0.985 0.88125,-1.72125 1.1825,-2.95625 0.54375,-2.23375 1.36125,-4.3325 0.88625,-4.72875 -0.39375,-0.32875 -1.53375,-0.175 -2.43375,0.32875 -1.33,0.745 -2.13375,2.25375 -4.25875,2.6275 -0.5925,0.10375 -1.2875,0.11875 -1.89,0.1025 -4.6425,-0.715 -0.9925,-3.66375 -2.2175,-2.4925 z m 47.715,-24.99125 -0.57125,-10.9000003 c -0.085,-1.6175 -0.11875,-1.89875 -0.33375,-2.81375 -0.66125,-2.8075 -2.43875,-4.34625 -4.2975,-5.33875 -2.3625,-1.26249999 -4.16625,-1.73124999 -6.6025,0.0463 -2.0025,1.46125 -2.19125,6.7525 -1.40375,7.58 0.5875,0.61625 2.14375,0.56125 4.0275,0.11875 4.705,-1.105 5.1775,-0.85 6.4025,4.1262503 0.5825,2.365 0.65125,4.58 0.365,6.95875 -0.60875,5.05 -2.0375,7.50625 0.76375,10.47125 1.165,1.23375 2.38375,1.42125 5.0425,0.87375 1.89,-0.39 2.265,-1.2675 3.0575,-3.88375 0.5575,-1.8425 0.99875,-3.4925 0.85625,-5.32875 -0.28375,-3.64375 -4.22375,-10.49375 0.525,-12.1950003 0.87625,-0.31375 2.015,-0.10875 2.9975,0.1050003 1.32375,0.28875 1.54875,0.1575 2.24625,-1.3075003 0.57375,-1.20625 1.2375,-2.315 1.6025,-3.61125 1.37,-4.86999999 -0.7275,-6.24375 -4.93625,-4.24874999 -4.82875,2.28749999 -6.9975,12.09000029 -5.96625,18.66125029 0.31625,2.70875 0.6625,5.14875 0.6625,5.14875 0,0 -0.28875,-0.004 -0.6325,-0.0375 -1.3525,-0.13375 -3.67375,-1.9275 -3.805,-4.425 z m 21.12125,-7.63625 c 0.205,2.8225 1.5225,4.57875 3.91875,5.085 3.089999,0.65375 4.837499,-1.0225 5.629999,-4.4125 0.17375,-0.74375 0.135,-1.36375 -0.34375,-1.66375 -0.91,-0.56875 -3.411249,0.0225 -4.619999,-0.62 -1.50375,-0.79875 -1.88625,-4.1950003 -1.515,-5.7825003 0.3725,-1.58875 1.3225,-3.29125 1.58,-4.51624999 0.0525,-0.2475 0.0763,-0.47625 -0.0312,-0.60375 -0.0137,-0.0163 -0.0275,-0.0312 -0.0412,-0.045 -3.6375,-0.83 -4.52125,13.32000029 -4.5775,12.55875029 z m -60.83,-1.485 -6.15,6.11 c -1.02125,1.015 -1.1675,1.1975 -1.4525,1.8225 -0.40125,0.875 -0.54,2.34 -0.3425,2.53875 0.63625,0.6425 2.88875,-0.9175 3.6725,-1.49625 6.86625,-5.0625 9.99375,-8.25125 11.10375,-14.8075003 0.56375,-3.3325 -1.20125,-4.62249999 -4.3225,-5.04749999 -4.95375,-0.675 -9.86875,0.015 -11.79375,3.74499999 0.30125,14.2387503 0.72375,6.0962503 4.92375,5.085 4.6725,-1.125 9.6975,-3.6225 4.36125,2.0500003 z m 34.76375,33.3475 -6.15,6.10875 c -1.0225,1.01625 -1.1675,1.1975 -1.45375,1.82375 -0.4,0.875 -0.53875,2.33875 -0.3425,2.5375 0.6375,0.64375 2.89,-0.9175 3.67375,-1.495 6.865,-5.06375 9.9925,-8.2525 11.1025,-14.80875 0.56375,-3.3325 -1.2,-4.62125 -4.3225,-5.04625 -4.95375,-0.675 -9.86875,0.015 -11.7925,3.74375 0.3,14.23875 0.7225,6.09625 4.92375,5.08625 4.6725,-1.125 9.6975,-3.6225 4.36125,2.05 z m -3.24875,48.75375 5.1325,5.1325 7.38625,-7.38625 -7.38625,-7.38625 -5.1325,5.1325 -5.13125,-5.1325 -7.38625,7.38625 7.38625,7.38625 5.13125,-5.1325 z m 104.459999,-1.49 7.38625,-7.38625 -7.38625,-7.38625 -7.38625,7.38625 7.38625,7.38625 z m -27.43125,-29.1225 c 1.4625,-0.355 4.635,1.52625 5.06875,1.8025 1.1175,0.7125 2.34875,1.52625 2.23875,2.0325 -0.29625,1.3675 -7.65125,-0.18125 -8.67875,-0.86375 -0.79125,-0.525 -1.49625,-1.4625 -1.13375,-2.0325 0.37,-0.5825 1.855,-0.78 2.505,-0.93875 z m -8.3025,35.445 c 2.71,-0.49 5.67125,-1.18875 7.17,-1.78375 3.03875,-1.2075 12.19,-7.0775 13.19625,-8.465 1.27625,-1.76 3.92,-9.335 3.87875,-11.115 -0.0312,-1.38125 0.045,-1.77375 1.8325,-2.96 4.2625,-2.82875 9.9625,-3.61 13.3925,-6.20875 1,-0.7575 4.61125,-9.27125 4.6775,-11.02875 0.03,-0.79 -1.34875,-14.01375 -5.20625,-15.3725 -2.35125,-0.8275 -4.47875,7.055 -4.0125,9.255 0.73375,3.46125 3.94125,9.885 3.94125,9.885 l -14.7075,5.4675 c 0,0 -3.145,-5.8175 -5.805,-8.7975 -1.90375,-2.1325 -8.28125,-5.595 -11.60875,-3.22 -2.5425,1.81375 -4.6075,9.78625 -4.84625,12.0025 -0.83875,7.7475 2.64125,11.74875 11.36875,10.48625 2.93125,-0.42375 7.18,-2.50875 7.87125,0.67125 0.16625,0.7675 0.21625,1.8875 0.21625,1.8875 0,0 -10.3225,7.805 -16.55,10.69375 -3.405,1.57875 -6.74,1.91625 -10.0125,0.95 -11.34625,-3.35 -11.605,-14.80625 -11.5475,-20.7675 0.0287,-2.94125 0.0962,-9.76 0.0962,-9.76 l -0.5,0.0263 c -0.22375,0.0125 -0.25625,0.0562 -0.32,0.4475 -0.55375,3.36875 -1.13,8.3525 -1.7075,11.74 -3.81,22.30375 9.6125,27.6975 19.1825,25.96625 z m -4.01,-28.51625 c 0.665,-1.79625 1.1225,-5.245 0.82,-6.77625 -0.98875,-4.99 -5.3475,-9.76125 -11.4175,-13.2525 -4.16625,-2.3975 -10.1225,-4.14625 -11.12875,-5.87 -2.0375,-3.48625 1.6625,-6.31625 -3.54125,-9.71625 -1.14,-0.745 -2.71875,-1.53625 -2.71875,-1.53625 0,0 -1.943749,4.66875 -2.531249,7.9975 -0.2425,1.375 1.49375,7.21125 2.492499,8.37625 1.5975,1.86375 3.53375,3.7875 6.31125,5.6825 9.01625,6.1525 12.8275,6.03 16.74875,11.75125 0.90375,1.3175 2.0125,3.1175 1.75625,3.65625 -0.0463,0.0987 -0.13875,0.155 -0.14625,0.335 -10e-4,0.0213 -10e-4,0.045 0.001,0.07 l -10.58,8.13 0,-0.0162 c -1.83125,1.27375 -11.28625,6.4575 -16.157499,5.60125 -2.16125,-0.38 -5.56,-2.35875 -6.055,-3.59375 -1.06,-2.6475 -0.03,-12.71 -0.03,-12.71 0,0 -0.26125,0.0563 -0.39,0.0213 -0.1225,-0.0337 -0.1225,-0.15875 -0.1525,-0.24375 -0.0662,-0.19375 -0.3375,-0.18125 -0.58375,-0.10875 -0.67125,0.19875 -2.42,5.63125 -2.73375,8.3 -0.8475,7.2225 -0.8375,16.1125 9.57125,16.03625 1.38875,-0.009 2.951249,-0.0975 4.949999,-0.6075 0.5775,-0.1475 1.1925,-0.33125 1.825,-0.53875 4.49625,-1.475 13.2675,-5.17625 17.08375,-9.87 l 6.60625,-11.1175 z m -87.823749,6.285 c -2.24875,1.085 -4.78875,2.345 -6.37375,2.84625 -10.24375,3.2375 -27.7983799,-1.2025 -29.0117549,-10.6525 -0.1215,-0.9475 -0.16375,-2.02 -0.114875,-3.10625 0.08863,-1.975 6.5772499,-14.88625 7.6053799,-15.13375 -0.23475,0.0562 -0.51238,0.1875 -0.79,0.345 -4.7681299,2.725 -9.6848799,13.8625 -10.8655049,19.58 -0.74450004,3.60375 0.944,8.13375 2.01225,9.47625 6.570375,8.25875 17.0507549,7.96625 26.8845049,7.2125 3.04125,-0.2325 6.29,-0.77875 8.30375,-1.875 0.35625,-0.19375 0.81,-0.56375 1.30125,-1.03 2.12125,-2.015 6.86625,-7.13125 8.52,-11.91 0.45125,-1.3025 0.0813,-1.72625 0.3075,-1.80625 0.6675,-0.235 6.52,2.525 11.2125,3.67875 5.60875,1.3775 16.92625,0.52375 21.065,-2.4225 2.01875,-1.4375 6.88125,-9.295 8.01875,-13.03375 0.46,-1.5125 0.375,-2.58 -0.36375,-5.065 -0.8925,-3.005 -2.74125,-8.0825 -2.74125,-8.0825 0,0 -1.29375,1.025 -2.2725,1.95625 -1.065,1.0125 -2.9475,5.845 -2.97375,7.635 -0.0225,1.6125 0.0425,3.6 0.0425,3.6 l 1.5325,-1.25375 c 0,0 1.00875,1.96875 1.5025,3.1975 0.745,1.85125 0.2625,2.19875 -1.09375,2.74625 -6.87625,2.775 -15.84125,3.39375 -21.91375,1.34375 -4.4825,-1.5125 -10.8675,-4.39375 -10.8675,-4.39375 0,0 0.69375,-24.9975 -0.5875,-40.6675 -0.7875,-9.6325003 -2.2025,-18.99625029417 -2.2025,-18.99625029417 0,0 -2.88625,2.73624999417 -4.28625,5.06124999417 -1.305,2.165 -1.3125,4.25625 -1.9275,6.3975003 -0.10875,0.38 -0.1175,0.46625 -0.0862,0.86125 1.04,13.4925 3.1875,36.81625 3.7375,46.34625 0.30375,5.27125 0.51375,15.17375 -3.57375,17.145 z m 82.446249,-64.66125 -4.32875,-3.2800003 c -0.31625,-0.23875 -0.3525,-0.27375 -0.365,-0.35125 -0.0387,-0.23125 0.0712,-0.37875 0.24625,-0.4475 0.6375,-0.25375 3.455,1.415 3.735,1.6125 1.1325,0.80125 2.3525,2.2125003 1.25125,2.6550003 -0.17,0.0688 -0.22375,0.05 -0.53875,-0.18875 z m -7.46,1.6175 c 0.8575,1.515 4.96375,3.07 5.6225,4.3025 0.74125,1.38375 -2.94375,4.92125 -5.74,8.645 -1.1025,1.46875 -2.93125,4.97625 -1.7125,5.85875 0.7075,0.51125 4.0625,-3.225 5.47375,-5.37375 2.0875,-3.17625 3.3,-6.82625 4.17875,-7.26 0.40875,-0.20125 0.745,0.29375 0.92375,1.76375 0.4,3.28375 0.0138,11.43625 0.0138,11.43625 0,0 1.125,-2.7875 1.95625,-5.575 0.6675,-2.24125 1.02625,-20.8237503 0.42,-21.8262503 -0.38,-0.63 -0.815,-0.98375 -1.90125,-1.58625 -3.1325,-1.73625 -6.50375,-3.77499999 -7.18625,-2.97374999 -0.30875,0.36375 -0.67875,1.03124999 -1.03,1.74999999 -2.9825,6.0925 -0.0425,12.5637503 -1.01875,10.8387503 z M 11.524231,9.9722327 l -0.86875,-1.65 c 0,0 -1.6191299,1.37625 -2.8462549,2.5937503 -4.42325,4.38875 -8.39612504,14.73625 -7.73737504,21.73375 0.381125,4.04875 6.07337504,8.4625 12.32174994,3.64 0.44013,-0.475 0.78263,-1.1075 1.09763,-1.95125 0.68375,-1.83125 1.24,-3.775 0.1125,-3.975 -0.72375,-0.12875 -1.99388,0.5575 -3.24375,1.08125 -7.2760049,3.05 -8.4490049,-0.5725 -7.7576299,-7.0075 0.216875,-2.01875 0.5435,-3.58 1.94375,-5.82125 2.183625,-3.49625 6.9781299,-8.6437503 6.9781299,-8.6437503 z" />
</svg>
