<?xml version="1.0" encoding="UTF-8" standalone="yes"?>
<svg xmlns="http://www.w3.org/2000/svg" xmlns:xlink="http://www.w3.org/1999/xlink"
  width="595.276pt" height="841.89pt" viewBox="0 0 595.276 841.89"
  fill-rule="evenodd">
  <path
     style="stroke:none; fill:#000000"
     d="m 30.512081,32.19499 c 0.221,-0.211 0.539001,-0.371992 0.947001,-0.470992 1.325003,-0.322001 3.606007,0 3.606007,0 0,0 0.779994,-3.096006 0.490993,-4.589009 -0.321992,-1.665004 -3.303998,-1.786004 -4.913001,-0.570001 -2.057004,1.555003 -3.143998,8.314008 -2.455997,10.406012 0.190001,0.579001 0.482993,1.104002 0.870994,1.523003 0.141,0.154 0.295,0.293 0.455001,0.435992 l 1.130002,1.016002 0.605001,1.644004 c 0.252001,0.684001 0.413001,1.273002 0.413001,1.273002 0,0 4.595001,-2.903006 6.106004,-4.752001 0.669001,-0.819002 0.733001,-1.431003 0.983002,-2.457005 0.452,-1.856003 1.131002,-3.601007 0.737001,-3.929999 -0.328001,-0.273001 -1.275002,-0.145001 -2.023004,0.272992 -1.105002,0.619001 -1.773003,1.873004 -3.538999,2.183004 -0.492001,0.087 -1.069002,0.1 -1.571003,0.086 -3.857007,-0.595001 -0.824001,-3.044997 -1.842003,-2.071004 z m 18.96502,42.631032 -4.265008,-4.263997 -6.137004,6.137 6.137004,6.138007 4.265008,-4.265003 4.265001,4.265003 6.138003,-6.138007 -6.138003,-6.137 -4.265001,4.263997 z M 50.493095,16.810985 50.019094,7.7529747 c -0.07104,-1.343003 -0.099,-1.577003 -0.277,-2.338004 -0.549993,-2.332997 -2.026996,-3.610999 -3.570999,-4.436001 -1.964004,-1.049002 -3.463007,-1.438003 -5.487003,0.038 -1.665003,1.215002 -1.821003,5.611003 -1.167002,6.299004 0.488001,0.513001 1.781004,0.467001 3.346999,0.099 3.910007,-0.918001 4.302008,-0.707001 5.32101,3.4289993 0.484001,1.965004 0.541001,3.806007 0.303,5.782011 -0.506001,4.197 -1.694003,6.238004 0.634002,8.702001 0.968994,1.025002 1.980995,1.181002 4.191,0.726002 1.570003,-0.324001 1.882003,-1.053002 2.540005,-3.227999 0.464001,-1.531003 0.829993,-2.902005 0.711001,-4.428008 -0.235,-3.027998 -3.509007,-8.7190013 0.436993,-10.1330043 0.728001,-0.261 1.675003,-0.091 2.491005,0.087 1.100002,0.240001 1.287002,0.131001 1.867003,-1.087002 0.477001,-1.002002 1.028002,-1.923004 1.332003,-3.001006 1.137994,-4.045999 -0.605001,-5.188002 -4.103008,-3.530998 -4.012,1.902003 -5.815003,10.0470033 -4.957002,15.5080143 0.262001,2.250996 0.550001,4.278 0.550001,4.278 0,0 -0.24,-0.0032 -0.526001,-0.03104 -1.123002,-0.11 -3.053005,-1.602003 -3.162006,-3.676999 z m 21.552018,48.629038 -4.265,-4.265008 -6.138004,6.138003 6.138004,6.138012 4.265,-4.265008 4.265008,4.265008 6.138007,-6.138012 -6.138007,-6.138003 -4.265008,4.265008 z m -0.156,6.961005 -6.137004,6.138001 6.137004,6.138003 6.138004,-6.138003 -6.138004,-6.138001 z m 7.626006,-41.696032 c 0.358001,-0.684002 0.529004,-1.568003 0.530004,-2.946006 8e-4,-1.853004 -0.441003,-3.393999 -1.687006,-4.334001 -0.588001,-0.445 -1.521995,-0.767001 -2.346996,-0.877001 -0.699002,-0.094 -3.020006,0.770001 -3.378007,1.405002 -0.292,0.517001 -0.502001,1.220995 -0.580001,1.135995 -0.04496,-0.05 -0.082,-0.374993 -0.347001,-0.438993 -0.181,-0.044 -0.471001,0 -0.471001,0 0,0 1.018002,-5.512011 1.459003,-7.897007 0.052,-0.280001 1.087002,-5.814012 1.079002,-6.058004 -0.018,-0.555001 -0.06704,-1.0010023 -0.07,-1.0350023 -0.163,-1.986004 -0.502001,-4.012008 -1.573003,-5.590011 -1.245002,-1.835996 -3.589999,-4.070000000496 -3.589999,-4.070000000496 0,0 -0.981002,1.868004000496 -1.357002,3.166006000496 -0.362001,1.248995 -0.164001,1.971996 0.329,2.675997 0.704002,1.005002 2.011004,1.973004 2.745006,3.244007 2.910997,5.0380013 -0.102001,11.9320073 -1.189003,17.2600093 -0.314,1.539003 -0.128,2.298005 0.514001,3.289006 1.584995,2.442997 3.354999,3.367999 4.953002,3.546999 4.32,0.484001 4.963001,-2.445996 4.980001,-2.476996 z M 27.450083,5.8529707 c 0,0 3.667999,0.444001 3.667999,0.444001 0,0 -0.01904,0.02 -0.054,0.05704 -0.417001,0.438001 -5.679003,6.8380063 -6.566005,7.5340073 -0.376001,0.295001 -0.824002,0.615001 -1.370003,0.973002 -0.068,0.04496 -0.135,0.088 -0.201,0.132 -1.198002,0.783002 -2.710997,3.214998 -2.637997,4.24 0.07696,1.094002 0.533001,2.450005 0.533001,2.450005 0,0 6.303004,-5.234002 8.983001,-8.707009 1.634003,-2.115004 4.173008,-9.3240023 2.921006,-11.4580063 -1.316003,-2.244004 -4.096008,-1.559003 -6.555005,-0.734001 -3.064006,1.028002 -4.635009,2.766005 -4.469008,6.727005 0.04696,1.119002 0.283,2.5820053 0.283,2.5820053 0,0 3.271006,-1.3790033 4.428009,-2.0260043 0.457001,-0.255001 0.584001,-0.396001 0.768001,-1.075002 0.122,-0.451001 0.269001,-1.139003 0.269001,-1.139003 z M 20.224077,80.073032 c 6.222004,0.034 13.49901,-1.756004 16.524008,-4.467009 2.952005,-2.644994 5.46901,-9.96 4.146008,-14.323008 -0.270001,-0.890002 -0.659002,-1.883996 -0.659002,-1.883996 l -8.858009,-0.942002 c 0,0 1.973004,-2.287004 3.675007,-3.581007 1.748996,-1.329002 3.212999,-1.611003 4.523001,-2.072996 1.884004,-0.664001 3.618999,-1.648003 4.674001,-1.319002 1.290003,0.402001 2.836006,4.599001 4.466009,7.281006 3.084998,5.073002 14.159011,2.355996 17.85001,1.364994 4.535001,-1.216994 9.872012,-2.505996 13.716013,-1.861995 2.089004,0.350001 4.755002,1.502003 5.813004,0.842002 0.842001,-0.526001 2.140004,-4.324009 2.356004,-6.247005 0.316001,-2.828005 -1.450003,-1.846003 -6.476004,-2.651005 -1.767004,-0.284 -5.707006,-2.450004 -6.707008,-3.688007 -0.937002,-1.158994 -1.603003,-2.538997 -2.604005,-3.798999 -4.175,-5.256002 -7.349006,-5.705003 -11.879007,-4.383001 -2.571005,0.750994 -4.925001,1.690996 -5.285002,2.335997 -1.205002,2.160004 -1.514003,7.170006 -1.514003,7.170006 0,0 1.284003,-0.042 2.268004,-0.171001 1.393995,-0.182 2.184997,-0.539001 3.266999,-0.850001 0.367,-0.105 0.408001,-0.133001 0.408001,-0.284001 l 0,-0.336 c 0,0 2.706005,-0.097 4.711001,0.094 1.225002,0.118 5.12701,2.830005 5.628011,3.912007 0.349,0.754002 0.684993,1.648003 0.684993,1.648003 0,0 -3.468999,1.166995 -6.077004,1.789996 -4.740001,1.132002 -10.741005,1.054002 -13.051009,-1.412995 -2.364997,-2.528005 -4.773001,-8.198008 -4.773001,-8.198008 0,0 -2.495005,-0.101 -4.366009,0.094 -6.500004,0.679001 -14.609004,9.656002 -15.830006,13.946011 -0.509001,1.787003 -0.272001,6.258004 0.377,7.090005 0.629002,0.809002 3.513999,1.639003 5.020002,1.445003 1.577003,-0.204 4.038,-0.348001 5.062002,0.322001 0.649001,0.423992 1.288002,1.095994 1.288002,1.095994 0,0 -3.298998,2.344004 -7.130005,3.615007 -1.456003,0.483001 -2.989006,0.812001 -4.405001,1.035002 -3.472007,0.547001 -6.645005,0.122 -9.986011,-1.089002 -4.308001,-1.562002 -6.960006,-4.591 -8.2920084,-7.703006 L 4.5690624,54.031009 4.2330618,60.879014 c -0.05096,1.035002 -0.036,2.019004 0.03504,2.953006 0.7490014,9.842011 7.6510072,16.195012 15.9560152,16.241012 z M 3.5250604,1.2029697 C 2.5450585,0.4739687 1.734057,-3.2300496e-5 1.734057,-3.2300496e-5 c 0,0 -1.74599545,3.548007000496 -1.733995426129,5.150002000496 C 0.00486159,5.8539707 0.54105462,6.4219717 1.3920563,6.8389727 c 0.3360006,0.165001 0.4050008,0.213001 0.6820013,0.474001 3.1330061,2.9510063 4.8880095,4.1220003 5.9120035,6.1790043 2.9770059,5.980004 0.5120009,5.900004 -0.5940012,11.161014 -0.2409925,1.144994 -0.1339923,2.701997 0.05696,4.005 0.4070008,2.784005 2.1320041,7.251006 9.0240091,6.283004 0.184001,-0.086 0.376001,-0.204001 0.582002,-0.360001 0.940001,-0.710001 2.246004,-3.925 2.167004,-5.333002 -0.117,-2.095004 -1.683003,-3.830008 -3.816008,-4.749001 -0.975001,-0.420001 -2.003995,-0.615002 -2.622997,-0.094 -0.962002,0.806994 -0.937001,3.335999 -1.664003,3.579999 -0.516001,0.173001 -1.4110027,-0.804001 -1.6960033,-1.884003 -0.541001,-2.047996 1.1580023,-4.763002 1.8840033,-6.879006 0.282001,-0.821001 0.356001,-2.275996 0.254001,-3.748999 C 11.129027,9.2189777 7.1370274,3.8889677 3.5250204,1.2029697 z" />
</svg>
