<?xml version="1.0" encoding="UTF-8" standalone="no"?>
<svg>
  <path
     d="m 12.365135,1.5593681 c -1.27,-0.94375 -2.3225,-1.55874999049 -2.3225,-1.55874999049 0,0 -2.2637495,4.60124999049 -2.2487495,6.67874999049 0.007,0.91375 0.70125,1.65 1.805,2.19125 0.4362495,0.21375 0.5249995,0.275 0.8849995,0.615 4.0625,3.8262499 6.34,5.3449999 7.6675,8.0124999 3.86,7.755 0.66375,7.65125 -0.77125,14.475 -0.31125,1.485 -0.17375,3.50375 0.0737,5.1925 0.52875,3.61125 2.765,9.405 11.70375,8.15 0.23875,-0.1125 0.4875,-0.26625 0.755,-0.4675 1.21875,-0.92125 2.9125,-5.09 2.81,-6.91625 -0.15125,-2.7175 -2.1825,-4.9675 -4.94875,-6.15875 -1.26375,-0.545 -2.59875,-0.7975 -3.4025,-0.1225 -1.24625,1.0475 -1.215,4.32625 -2.1575,4.64375 -0.66875,0.22375 -1.82875,-1.04375 -2.2,-2.44375 -0.70125,-2.65625 1.5025,-6.17625 2.445,-8.92125 0.365,-1.065 0.46125,-2.9525 0.32875,-4.8625 -0.56125,-8.11125 -5.73875,-15.0237499 -10.4225,-18.5074999 z m 51.8675,12.6199999 c 0.23,3.17875 1.7125,5.155 4.41125,5.725 3.47875,0.73625 5.44625,-1.15125 6.33875,-4.96875 0.19625,-0.8375 0.15125,-1.535 -0.3875,-1.87125 -1.025,-0.64125 -3.84,0.0238 -5.20125,-0.69875 -1.69375,-0.9 -2.12375,-4.7237499 -1.705,-6.5112499 0.41875,-1.78875 1.4875,-3.705 1.77875,-5.08375 0.0588,-0.27875 0.0863,-0.53625 -0.0362,-0.68 -0.015,-0.0175 -0.03,-0.035 -0.045,-0.0512 -4.09625,-0.9325 -5.09125,14.9974999 -5.15375,14.1399999 z m -20.60625,-1.67125 -6.92375,6.8775 c -1.15125,1.14375 -1.315,1.34875 -1.63625,2.0525 -0.45125,0.98625 -0.6075,2.63375 -0.385,2.8575 0.71625,0.72375 3.2525,-1.0325 4.135,-1.68375 7.72875,-5.7 11.25,-9.29 12.5,-16.6712499 0.635,-3.75125 -1.3525,-5.20375 -4.86625,-5.6825 -5.5775,-0.75875 -11.11125,0.0175 -13.2775,4.21625 0.3375,16.0299999 0.815,6.8637499 5.54375,5.7249999 5.26,-1.2662499 10.9175,-4.0774999 4.91,2.30875 z m 18.285,84.9325 6.49,-6.48875 -8.33625,-8.33625 -8.335,8.33625 6.48875,6.48875 -6.48875,6.488752 8.335,8.33625 8.33625,-8.33625 -6.49,-6.488752 z m 28.91625,-6.795 6.48875,6.48875 8.336255,-8.335 -8.336255,-8.33625 -6.48875,6.48875 -6.48875,-6.48875 -8.33625,8.33625 8.33625,8.335 6.48875,-6.48875 z m 0,4.94875 -8.33625,8.335002 8.33625,8.33625 8.335,-8.33625 -8.335,-8.335002 z m -28.90375,-64.07875 c -2.09125,0.42125 -7.30125,0.38875 -8.02375,-1.1675 -0.26875,-0.58125 -0.002,-1.4525 0.48375,-1.8225 1.0875,-0.82875 3.27375,0.84875 5.0125,0.3975 1.32125,-0.3425 3.355,-3.1375 2.8575,-4.54625 -1.61125,-4.565 -8.8775,0.0188 -10.06875,1.5475 -1.7725,2.275 -2.7675,5.62875 -1.6375,8.10125 0.61125,1.34125 1.84625,2.515 1.95875,3.8625 0.22875,2.70625 -2.92125,6.30625 0.70125,4.68625 7.015,-3.13625 14.13375,-5.855 16.13875,-11.68375 1.305,-3.79375 -2.5925,-0.34875 -7.4225,0.625 z m 28.1525,-3.075 c 0,0 2.17875,-6.87125 2.325,-12.4825 0.0612,-2.34875 -2.90625,-17.9412499 -8.05375,-15.7462499 -2.0325,0.86625 -2.195,4.9425 -1.395,7.01375 0.81875,2.1225 2.67125,4.3349999 3.80875,6.7562499 1.2825,2.7275 1.75875,6.0375 1.5575,8.47125 -0.44,5.36625 -3.9225,11.885 -3.52,14.86125 0.13375,0.99625 6.625,7.0275 7.73,7.18375 1.37625,0.19375 4.3125,0.32625 5.21375,-0.57375 2.0225,-2.02 4.257505,-10.07625 4.257505,-10.07625 0,0 -3.491255,-2.385 -7.092505,-3.85625 -2.39125,-0.97625 -4.83125,-1.55125 -4.83125,-1.55125 z m -71.11,63.82125 c -2.1925,-0.9375 -4.2325,-2.3225 -6.10125,-3.97125 -7.3312495,-6.47 -7.0774995,-13.05625 -6.9087495,-19.33375 l 0.21625,-8.105 -3.16126,5.99 c -2.47125001,4.6825 -4.9975,13.71125 -0.65,23.3075 3.0675,6.77 9.1862595,11.923752 15.2912595,13.422502 1.58875,0.39125 3.185,0.5725 5.23125,0.6575 1.67,0.07 7.54625,-0.835 12.30625,-1.7525 7.7175,-1.4875 16.435,-12.218752 18.34625,-20.805002 0.91125,-4.09375 -1.15875,-5.095 -1.89,-6.14 -0.59875,-0.85625 -1.15875,-1.66375 -1.8125,-2.09125 -1.43625,-0.93625 -3.635,-1.415 -5.62,-1.17875 -3.33,0.395 -8.42375,2.965 -7.1975,-0.55125 0.82,-2.355 12.93125,-10.065 15.6075,-9.2525 2.11375,0.64125 3.09,3.79125 4.62,6.72125 6.76375,12.965 25.455,3.92 21.1775,5.32625 2.70125,-0.8875 6.31625,-1.88875 10.03,-2.36875 6.67,-0.86125 17.947505,0.5825 17.947505,0.5825 l 4.3675,-8.95125 c 0,0 -6.0775,-1.67125 -10.21625,-3.92875 -3.690005,-2.01375 -8.245005,-8.63625 -12.558755,-11.90125 -3.21875,-2.4375 -6.1175,-3.2325 -9.22375,-2.67875 -7.65625,1.36375 -11.17375,3.57875 -11.3,11.15875 -0.0238,1.385 0.08,2.9775 0.08,2.9775 0,0 11.71875,-3.1525 14.3,-2.5125 2.9125,0.7225 6.90625,4.82875 6.90625,4.82875 0,0 -8.41625,2.58 -12.96625,3.31625 -4.8,0.775 -12.725,-0.7575 -14.85875,-4.39 -1.42125,-2.42125 -1.8775,-6.70375 -3.6775,-8.14875 -3.86125,-3.10125 -14.8675,3.695 -18.43875,6.88125 -5.28125,4.7125 -7.65125,8.555 -8.6375,15.205 -1.23875,8.3575 -0.895,9.39875 5.175,9.35375 4.41625,-0.0325 12.635,-0.0625 12.635,-0.0625 0,0 0.1775,1.1075 0.0475,1.77625 -0.20625,1.0625 -4.5725,3.46 -4.95625,3.6775 -6.1825,3.495 -16.47625,5.43875 -22.52,3.53125 -0.53875,-0.17 -1.06875,-0.3675 -1.59,-0.59 z"
     style="fill:#000000;stroke:none" />
</svg>
