<?xml version="1.0" encoding="UTF-8" standalone="yes"?>
<svg xmlns="http://www.w3.org/2000/svg" xmlns:xlink="http://www.w3.org/1999/xlink"
  width="595.276pt" height="841.89pt" viewBox="0 0 595.276 841.89"
  fill-rule="evenodd">
  <path
     style="fill:#000000;stroke:none"
     d="m 17.636249,45.134501 -0.598993,4.151952 c 0,0 0.812991,0.089 1.412984,-0.024 0.84199,-0.158999 1.501982,-1.144987 2.159974,-1.924978 0.855991,-1.013989 2.197975,-1.77198 3.456961,-2.313974 1.988977,-0.85599 4.046954,-1.495983 4.778946,-2.345973 0.649992,-0.756991 1.306984,-4.011954 1.65398,-6.432927 0.224997,-1.567981 0.253997,-2.239974 -1.089987,-1.747979 -1.061988,0.388996 -2.240974,1.387984 -3.465961,1.826979 -1.248985,0.447994 -4.011954,0.282997 -5.607936,-0.560993 -0.80399,-0.425996 -0.893989,-0.508995 -0.899989,-0.825991 l -0.012,-0.706992 2.183975,0.256997 c 0.981989,0.114999 1.121987,-9.6e-4 1.404984,-1.161987 0.409995,-1.680981 1.036989,-3.520959 1.608982,-4.926943 0.036,-0.089 0.072,-0.175998 0.107998,-0.264997 l 0.728992,-1.802979 -1.587982,-0.228997 c -1.525982,-0.219998 -5.026942,2.117976 -5.032942,2.122976 -2.987966,2.057976 -3.564959,4.480948 -4.212952,9.357892 -0.264997,1.984977 0.171999,2.765969 1.83698,4.923943 0.262997,0.340997 0.521993,0.671993 0.85899,0.93099 0.452994,0.347996 0.484994,0.517994 0.314996,1.697981 z m 34.666529,29.441983 4.574003,4.577 5.905003,-5.909001 -5.904003,-5.908003 -4.575003,4.578003 -4.575002,-4.578003 -5.905004,5.909003 5.905004,5.908001 4.575002,-4.577 z m 24.589014,-2.662001 -4.575003,-4.578003 -5.904003,5.909003 5.904003,5.908001 4.574003,-4.577 4.575004,4.577 5.905004,-5.909001 -5.905004,-5.908003 -4.574004,4.578003 z m -8e-4,18.086011 5.910005,-5.91 -5.909005,-5.90801 -5.909004,5.90901 5.908004,5.909 z M 87.188,64.111478 l 3.276001,1.190001 0.620001,-2.578001 c 0.06296,-0.263001 0.15,-0.551001 0.274,-0.865001 0.857,-2.171001 3.502002,-5.603003 3.502002,-5.603003 0,0 -2.890002,-0.632 -4.915003,-1.229001 -0.758,-0.223 -3.327002,-1.305 -5.244003,-2.568001 -1.483001,-0.977001 -5.292005,-6.273003 -5.427005,-6.423004 -0.869001,-0.963 -1.563001,-2.287001 -2.520002,-3.257001 -1.903001,-1.930001 -7.818004,-4.015003 -10.524005,-3.062002 -1.013001,0.356 -1.724001,1.109001 -2.431002,2.355001 -1.435,2.529002 -2.849001,7.089004 -2.849001,7.089004 0,0 8.473004,1.113001 11.093006,2.098001 0.611,0.229 0.904,0.452001 1.649001,1.177001 0.574,0.56 1.417001,1.418001 1.417001,1.418001 0,0 -4.687003,1.922001 -7.212004,2.351001 -1.675001,0.285 -5.177003,-0.203 -6.689004,-1.178001 -1.874001,-1.206 -2.850002,-3.176001 -3.958002,-2.591001 -0.865001,0.458 -1.589001,2.487001 -2.638002,3.534002 -2.564001,2.560001 -9.722005,1.177 -12.013006,-2.120001 -1.950001,-2.806002 -0.292,-7.190004 -0.236,-12.909007 0.032,-3.142002 -0.674001,-5.607003 -1.177001,-9.233005 -1.195001,-8.603005 -1.248001,-26.9550152 -1.248001,-26.9550152 0,0 -2.259001,2.999001 -3.699002,5.2840032 -2.633001,4.178002 -2.089001,4.696002 -1.202,6.547003 0.596,1.242001 3.001001,25.730014 3.086001,31.424017 0.06304,4.155003 0.325001,8.938005 -0.569,10.001006 -1.452001,1.726001 -17.037009,3.886002 -21.271012,3.378002 C 10.478955,60.690476 6.7069535,58.069475 4.9099525,52.906472 3.3329517,48.37247 4.2279521,47.037469 5.6169529,41.600466 5.859953,40.649465 5.736953,40.558465 5.1139526,40.629465 c -0.2260001,0.026 -0.3060001,0.159001 -0.8090004,1.328001 -3.76700209,8.772005 -6.8490037,16.033009 -1.2080007,22.676013 4.4000024,5.182002 9.7680055,6.229003 16.1820085,5.704003 3.002002,-0.245 13.374007,-1.345001 16.018009,-4.004003 1.211001,-1.218 2.769001,-3.615001 2.769001,-3.615001 0,0 1.448001,1.105 2.510002,1.813001 1.523001,1.015 5.492003,2.417001 7.441004,2.038001 0.82,-0.16 3.260002,-1.621001 4.772002,-2.667002 l 1.878001,-1.301001 2.169002,1.167001 c 2.407001,1.296001 6.024003,1.700001 7.679004,1.387001 1.928001,-0.364 3.993002,-1.458001 6.115003,-2.120001 1.013001,-0.316 2.557002,-0.646001 4.058002,-0.756001 5.425006,-0.398 17.663012,3.585002 12.50001,1.832001 z M 77.550992,21.760455 c -0.493,-2.564001 1.491001,-8.077004 1.414001,-11.7780062 -0.046,-2.173002 -1.574001,-6.238004 -3.062002,-8.480005 -0.823,-1.23800097 -2.078001,-2.13300097 -2.827002,-0.94199997 -0.536,0.85199997 -0.932,3.83300197 -0.707,4.40000197 0.304,0.765 1.383001,1.366001 2.120001,2.196001 2.000001,2.250001 2.617002,8.3770052 2.120001,10.8450062 -0.88,4.368003 -3.351001,7.917004 -0.471,10.119006 0.999001,0.763 4.837005,2.347001 5.814006,1.649001 0.608,-0.435001 1.401,-3.613002 1.253,-4.476003 -0.121,-0.702 -1.242,-2.859001 -1.885001,-3.062002 -1.139,-0.359 -3.611004,0.350001 -3.769004,-0.471 z M 56.28398,36.457463 51.464978,41.245466 c -0.801001,0.795 -0.915001,0.938 -1.139001,1.428001 -0.314,0.686 -0.422,1.833001 -0.268,1.989001 0.499,0.504 2.264001,-0.719001 2.878001,-1.172001 5.380003,-3.967002 7.831005,-6.466003 8.701005,-11.604006 0.442,-2.611002 -0.941,-3.622002 -3.388002,-3.955002 -3.881002,-0.528001 -7.733004,0.012 -9.241005,2.935001 0.236,11.157006 0.567001,4.777003 3.858002,3.985002 3.662002,-0.882 7.600005,-2.839001 3.418002,1.606001 z m -0.696,-20.605011 -0.447,-8.5410052 c -0.06704,-1.267 -0.093,-1.487001 -0.262,-2.205001 -0.517001,-2.200001 -1.910002,-3.405002 -3.367002,-4.18300197 -1.852001,-0.989001 -3.265002,-1.357001 -5.174003,0.036 -1.569001,1.14499997 -1.717001,5.29100297 -1.100001,5.93900297 0.460001,0.484 1.680001,0.441 3.156002,0.094 3.687002,-0.866 4.057002,-0.666 5.017003,3.2330022 0.457,1.853001 0.51,3.589002 0.286,5.453003 -0.477,3.958002 -1.597001,5.883003 0.598,8.206004 0.914001,0.967001 1.868001,1.113001 3.952002,0.684001 1.481001,-0.305 1.775001,-0.993001 2.396002,-3.043002 0.437,-1.444001 0.782,-2.737001 0.67,-4.176002 -0.222,-2.855002 -3.309002,-8.2230052 0.412,-9.5560062 0.687001,-0.246 1.579001,-0.085 2.349002,0.082 1.038,0.227 1.214,0.124 1.761001,-1.025001 0.449,-0.944001 0.969,-1.813001 1.255,-2.829002 1.074001,-3.81600197 -0.57,-4.89300197 -3.868002,-3.33000097 -3.784002,1.79300097 -5.483003,9.47400517 -4.675002,14.62400817 0.247,2.123001 0.518,4.034002 0.518,4.034002 0,0 -0.226,-0.0032 -0.495,-0.02896 -1.059001,-0.104 -2.879002,-1.511001 -2.982002,-3.468002 z" />
</svg>
