<?xml version="1.0" encoding="UTF-8" standalone="yes"?>
<svg xmlns="http://www.w3.org/2000/svg" xmlns:xlink="http://www.w3.org/1999/xlink"
  width="595.276pt" height="841.89pt" viewBox="0 0 595.276 841.89"
  fill-rule="evenodd">
  <path
     style="fill:#000000;stroke:none"
     d="m 102.4124,13.081523 c -0.78699,4.852942 -3.512956,12.184854 0.96099,14.410827 3.22397,1.604981 5.53893,0.210998 6.24093,-3.271961 0.256,-1.267984 0.112,-2.109974 -0.859,-2.625968 -1.62097,-0.862989 -5.23193,-0.630993 -6.10592,-1.586981 -0.322,-0.351996 -0.305,-0.862989 -0.19,-1.492982 0.90299,-4.96594 2.10698,-5.616933 1.58898,-9.4598867 -0.24699,-1.834978 -1.97498,-10.268877 -4.398944,-8.905893 -1.279984,0.717991 -1.854976,3.31796 -1.277984,4.21695 0.334992,0.521993 1.112984,1.071986 1.634988,1.66398 1.03698,1.174986 2.69196,5.2839357 2.40596,7.0519147 z m -35.687571,50.98239 -4.072951,-4.073952 -5.86293,5.86293 5.86293,5.86193 4.072951,-4.073952 4.073951,4.073952 5.86193,-5.86193 -5.86193,-5.86293 -4.073951,4.073952 z m 39.511531,-6.374924 -4.07296,-4.073951 -5.862924,5.86293 5.862924,5.861929 4.07296,-4.072951 4.07395,4.072951 5.86193,-5.861929 -5.86193,-5.86293 -4.07395,4.073951 z m -0.148,6.64792 -5.86293,5.86293 5.86293,5.86193 5.86193,-5.86193 -5.86193,-5.86293 z m -23.710717,3.230962 c 0.162,2.240973 1.207984,3.633956 3.10896,4.035951 2.453976,0.518994 3.84096,-0.81099 4.469952,-3.501957 0.137992,-0.589994 0.106992,-1.082988 -0.273,-1.319985 -0.722992,-0.451995 -2.707968,0.017 -3.667952,-0.491994 -1.192992,-0.633993 -1.496984,-3.32996 -1.200992,-4.589945 0.295,-1.260985 1.048992,-2.611969 1.253984,-3.583957 0.04096,-0.196998 0.06,-0.378996 -0.02496,-0.479994 -0.01104,-0.013 -0.022,-0.025 -0.03296,-0.036 -2.886968,-0.657992 -3.58896,10.572873 -3.63296,9.967881 z M 8.6535243,71.516823 c 2.3229717,-0.029 5.7469307,-0.072 9.2788887,-0.115998 9.644885,-0.120999 14.495827,-0.162999 21.100748,-2.711967 0.813989,-0.272997 1.355983,-0.530994 1.348983,-0.776992 l -35.2845775,0 1.2419852,-3.796954 c 0.330996,-1.009987 0.7689908,-1.968976 1.1599861,-2.732968 0.2419971,-0.473993 0.7629913,-1.056987 1.3799833,-0.364995 0.4439953,0.497994 0.1739985,1.67498 1.3879839,1.200986 0.783991,-0.306997 1.131987,-2.167975 1.166986,-3.103963 0.042,-1.150986 -0.071,-2.686968 -0.071,-2.686968 0,0 -1.186986,-0.110998 -2.0819754,0.054 -0.8179897,0.150999 -2.4069711,1.782979 -2.8799654,2.956965 -0.585993,1.450983 -1.0599874,3.014963 -2.0339757,4.19195 -0.5789931,0.698991 -1.9319769,1.505982 -2.9529646,2.45497 -0.57999308,0.539994 -0.93998881,0.973988 -1.12698658,1.518982 -1.84697782,5.380935 5.70293168,3.946953 8.36590018,3.912953 z M 31.044256,8.8175743 26.163315,13.666516 c -0.810991,0.805991 -0.926989,0.950989 -1.153987,1.446983 -0.316996,0.694992 -0.426994,1.856977 -0.270997,2.014976 0.504995,0.509993 2.292973,-0.728991 2.914965,-1.186986 5.448936,-4.018952 7.930905,-6.5499217 8.812895,-11.7538597 0.446994,-2.644968 -0.952989,-3.667956 -3.430959,-4.005952 -3.931952,-0.534993 -7.832906,0.013 -9.359888,2.972965 0.237998,11.3008647 0.573994,4.837942 3.907954,4.035952 3.707955,-0.892989 7.696907,-2.874966 3.460958,1.62698 z m 36.124567,24.6397047 -4.880941,4.848942 c -0.81099,0.805991 -0.925989,0.950989 -1.152986,1.446983 -0.317997,0.694992 -0.427995,1.856977 -0.271997,2.014976 0.505994,0.509993 2.292972,-0.727992 2.914965,-1.186986 5.448935,-4.018952 7.931905,-6.549922 8.812895,-11.75286 0.446994,-2.644968 -0.952989,-3.668956 -3.43096,-4.005952 -3.931952,-0.535993 -7.832905,0.012 -9.359887,2.971965 0.237997,11.300865 0.573993,4.838942 3.907953,4.035951 3.708955,-0.891988 7.696907,-2.874965 3.460958,1.626981 z M 74.571735,16.056487 74.11874,7.4055913 c -0.067,-1.282985 -0.094,-1.506982 -0.264996,-2.233974 -0.524994,-2.227972 -1.934977,-3.447958 -3.41096,-4.235948 -1.875977,-1.001989 -3.30696,-1.373984 -5.239937,0.036 -1.589981,1.159985 -1.739979,5.358935 -1.114987,6.015927 0.465994,0.489994 1.70198,0.445995 3.196962,0.095 3.734955,-0.877989 4.108951,-0.674992 5.081939,3.2739607 0.461995,1.876977 0.516994,3.635956 0.288997,5.522934 -0.481994,4.008951 -1.616981,5.958928 0.605993,8.3119 0.925989,0.978988 1.891977,1.127987 4.002951,0.692991 1.499983,-0.308996 1.797979,-1.005987 2.425971,-3.082962 0.442994,-1.461983 0.792994,-2.770967 0.679994,-4.22895 -0.225,-2.891965 -3.351962,-8.3278997 0.416992,-9.6788837 0.694992,-0.248997 1.598984,-0.086 2.378976,0.084 1.050984,0.228998 1.228984,0.124999 1.782976,-1.038987 0.455992,-0.955989 0.981992,-1.835978 1.271984,-2.865966 1.087992,-3.864954 -0.577992,-4.954941 -3.917952,-3.371959 -3.832955,1.815977 -5.553934,9.5958847 -4.734944,14.8118217 0.249997,2.149974 0.524994,4.085951 0.524994,4.085951 0,0 -0.228998,-0.003 -0.501994,-0.03 -1.072987,-0.104998 -2.915966,-1.529981 -3.019964,-3.511958 z m -45.884451,21.922738 -0.598993,4.15195 c 0,0 0.812991,0.089 1.412984,-0.024 0.841989,-0.158999 1.501981,-1.144987 2.159973,-1.924977 0.85599,-1.013988 2.197974,-1.771979 3.456959,-2.313972 1.988976,-0.855991 4.046952,-1.495983 4.778943,-2.345972 0.649992,-0.756991 1.306984,-4.011952 1.65398,-6.432924 0.224997,-1.56798 0.253997,-2.239972 -1.089987,-1.747978 -1.061987,0.388995 -2.240973,1.387983 -3.465958,1.826978 -1.248985,0.447994 -4.011953,0.282996 -5.607933,-0.560993 -0.803991,-0.425995 -0.893989,-0.508995 -0.899989,-0.825991 l -0.012,-0.706991 2.183973,0.256997 c 0.981989,0.114998 1.121987,-9.6e-4 1.404984,-1.161987 0.409995,-1.68098 1.036988,-3.520957 1.608981,-4.926941 0.036,-0.089 0.072,-0.175997 0.107998,-0.264996 L 36.51019,19.17445 34.922209,18.945453 c -1.525981,-0.219997 -5.026939,2.117975 -5.032939,2.122975 -2.987964,2.057975 -3.564958,4.480945 -4.21295,9.357887 -0.264997,1.984976 0.171999,2.765968 1.836979,4.923941 0.262996,0.340996 0.521993,0.671992 0.858989,0.930989 0.452995,0.347996 0.484994,0.517994 0.314996,1.69798 z m 21.114748,-23.164722 -0.011,26.649681 c 0,0 -1.880978,1.070986 -3.499958,1.897977 C 41.58613,45.764132 30.72726,47.60011 22.522358,46.654121 10.6485,45.285137 10.6455,35.06326 11.973484,31.865298 10.6345,35.089259 9.2295172,41.442184 9.185518,42.906166 c -0.1509985,5.104939 0.83299,8.012904 4.14695,9.863882 8.542898,4.770943 22.821727,2.50697 32.198615,-2.328972 1.479982,-0.762991 2.956964,-1.809978 3.862953,-3.104963 l 1.962977,-2.421971 0.313996,3.079963 c 0.209998,3.725956 4.218949,6.134926 7.884905,6.397923 2.070976,0.148999 5.934929,-0.419994 7.661909,-1.237985 0.358996,-0.168997 1.082987,-0.700991 1.944976,-1.335984 l 4.609945,-3.397959 3.314961,2.51797 c 11.177866,8.939893 18.424779,-2.233973 28.589655,-2.115975 2.46397,0.029 10.63888,0.124999 10.63888,0.124999 1.19198,0.013 1.34198,-0.092 1.49698,-1.056988 0.115,-0.714991 0.39299,-1.386983 0.72699,-2.034975 0.84299,-1.632981 1.71498,-2.701968 1.53098,-4.101951 -0.059,-0.440995 -0.19699,-0.507994 -1.38199,-0.666992 -3.05896,-0.411996 -6.57092,-1.63098 -8.23389,-3.038964 -2.09698,-1.775979 -3.43396,-4.400947 -5.62294,-5.863929 -2.93096,-1.959977 -13.115838,-2.950965 -15.603807,0.051 -0.306,0.368996 -1.871984,5.100939 -1.928976,7.541909 -0.01904,0.798991 0.03096,1.765979 0.03096,1.765979 0,0 4.422945,0.301997 6.764913,-0.559993 1.447984,-0.532994 2.099976,-1.510982 2.908968,-1.816978 0.344992,-0.130999 0.717992,-0.138999 1.324984,-0.024 1.621984,0.308996 4.911948,1.502982 4.911948,1.502982 0,0 -2.86697,0.595993 -4.861948,1.366983 -3.05096,1.179987 -4.061952,2.768968 -5.822928,3.41396 -2.444977,0.895989 -7.588913,0.04 -10.481881,-1.362984 -0.646992,-0.313996 -5.951926,-3.864953 -6.863916,-3.633957 -0.664992,0.167999 -1.193986,1.570981 -1.988976,2.463971 -1.489982,1.67498 -8.918893,3.137962 -10.766871,3.058963 -3.961953,-0.171997 -6.906917,-1.451982 -8.472899,-4.710943 -0.199997,-0.415995 -0.449994,-0.927989 -0.549993,-1.431983 -0.134999,-0.678992 -0.153998,-0.886989 -0.189998,-2.078975 0,0 -0.960988,-35.2715777 -0.988988,-36.3115647 -0.022,-0.778991 -0.314996,-2.266973 -1.804978,-0.787991 -0.727992,1.248985 -1.515982,3.757955 -1.671981,4.625944 -0.224996,1.248985 -0.08,5.4189357 0.584993,7.1099147 0.397996,1.011988 0.441996,1.256986 0.440996,2.448971 z" />
</svg>
