<?xml version="1.0" encoding="UTF-8" standalone="yes"?>
<svg xmlns="http://www.w3.org/2000/svg" xmlns:xlink="http://www.w3.org/1999/xlink"
  width="595.276pt" height="841.89pt" viewBox="0 0 595.276 841.89"
  fill-rule="evenodd">
	<path
		style="stroke:none; fill:#000000"
		d="m 10.214976,8.8465558 c -0.034,-0.307999 -0.081,-0.597998 -0.16,-1.053997 C 9.6269696,5.3225668 7.7789754,2.3195768 6.7559786,1.4875788 4.5892895,-0.2744152 3.3182911,0.1505838 1.5349959,1.9345778 1.0780974,2.3915758 0.47629849,3.4785728 0,4.5825698 c 0.71939773,12.2799682 4.9438884,2.127993 6.0329809,4.484985 1.0199968,2.2079932 1.7429945,5.7669902 2.4299924,6.9869862 1.0289967,1.828994 2.6029997,2.789991 2.6509997,4.252987 0.046,1.425995 -1.3590038,3.327989 -1.6840028,5.027984 -0.064,0.338999 -0.086,0.669998 0.046,0.797997 0.1679994,0.163 0.5860058,-0.0032 0.9730048,-0.271999 0.546998,-0.378999 1.030997,-0.961997 1.560995,-1.281996 1.296996,-0.782997 1.794994,-0.519998 2.411992,0.195999 1.409996,1.639995 2.402993,0.645998 2.965991,2.103994 0.570998,1.476995 -1.019997,4.777985 -1.676995,6.545987 -1.618995,4.354986 -1.721994,7.235977 -1.212996,11.731963 0.461999,4.084987 0.618998,5.034984 3.28199,5.411983 1.204996,0.170999 1.871994,-0.269999 2.150993,-2.141993 0.343999,-2.301993 -0.624998,-3.11599 -1.585995,-5.014984 -1.626995,-3.21299 -0.905997,-8.702973 0.472999,-12.637969 1.438995,-4.104987 2.769991,-6.482979 1.005996,-10.598966 -0.566998,-1.322996 -2.007993,-3.14699 -3.381989,-3.494989 -0.645998,-0.163999 -1.305996,0 -1.655995,-0.323999 -0.703998,-0.651998 -0.189999,-3.942996 0.177,-5.137992 0.255999,-0.832997 0.607998,-1.5009952 1.283996,-1.7149942 1.311996,-0.415999 3.846987,0.8759972 4.702985,0.131999 0.787997,-0.683998 1.793994,-5.935981 1.605995,-7.091977 -0.583998,-3.590989 -2.533992,-2.933991 -4.767985,-0.770998 -0.629998,0.610999 -1.252996,1.549996 -1.832994,2.644992 -0.343999,0.650998 -4.506986,15.3749592 -5.739982,4.428986 z m 73.069793,63.0688242 -5.636982,5.636991 5.636982,5.636981 5.636982,-5.636981 -5.636982,-5.636991 z m 0,-3.203989 4.184987,4.184986 5.63699,-5.636982 -5.63699,-5.636982 -4.184987,4.184987 -4.184987,-4.184987 -5.636982,5.636982 5.636982,5.636982 4.184987,-4.184986 z m -33.63791,0 4.184995,4.184986 5.636982,-5.636982 -5.636982,-5.636982 -4.184995,4.184987 -4.184987,-4.184987 -5.636982,5.636982 5.636982,5.636982 4.184987,-4.184986 z M 72.007804,55.608432 c 0.572999,-0.05104 1.029997,-0.129 1.314996,-0.238999 1.380996,-0.530999 2.453993,-1.565995 3.882988,-2.099994 1.696995,-0.633006 9.63697,-0.756005 11.946962,-0.06504 2.533,0.757997 4.070995,2.354992 6.254988,0.998996 0.174,-0.107999 3.485989,-5.095991 3.26399,-7.232985 -0.089,-0.856997 -0.434998,-1.212996 -1.088996,-1.399995 -1.085997,-0.311999 -2.787992,-0.317999 -4.044988,-0.699998 -3.655996,-1.111997 -4.588993,-3.758988 -6.723986,-6.34698 -2.032994,-2.464992 -7.123978,-5.283983 -10.261968,-5.552982 -3.609989,-0.309008 -4.606985,0.418998 -6.345988,3.266989 -0.589998,0.965997 -1.247996,1.780995 -1.399995,3.35899 -0.03496,0.360998 -0.044,0.762997 -0.04104,1.125996 -0.309999,4.364986 0.647998,3.17399 2.36,2.520992 1.178996,-0.449999 4.330987,-0.125 5.596983,0.009 1.528995,0.162 2.489992,0.377999 2.816991,0.758998 0.520998,0.606998 -0.973997,2.161993 -2.718992,2.755991 -0.534998,0.182999 -1.282996,0.289999 -2.171993,0.336999 -7.424984,1.470995 -16.597955,-1.478995 -18.972948,-9.959969 -0.022,-0.082 -0.04304,-0.163999 -0.06104,-0.246999 -0.372999,-1.697995 0.396999,-4.111995 -1.046996,-3.21099 -0.751998,0.468999 -1.386996,2.109994 -2.268993,3.13699 -0.225,0.261 -0.620998,0.585998 -1.113997,0.939997 C 48.422783,39.876474 38.098816,41.556468 36.83382,37.517481 35.606823,33.596494 33.132831,24.948513 32.847832,24.134515 30.29084,16.815539 47.618785,10.352551 48.946781,9.8275528 c 1.900002,-0.751998 4.785993,-1.474996 5.622991,-1.510996 1.173996,-0.05096 2.425992,0.893998 1.558995,2.6209922 -0.142,0.281999 -0.252,0.424999 -1.097997,1.426996 -1.111996,1.316003 -2.070993,2.475 -2.925991,3.505997 -5.802989,6.985977 -2.309,2.503992 -8.297981,8.793972 -3.482989,3.656988 -8.717973,9.616977 3.640988,1.664995 4.486994,-2.886991 7.571984,-8.461974 10.709974,-13.198959 2.604992,-3.9349952 4.837985,-8.6949802 2.703992,-11.9279702 -1.179997,-1.788994 -2.356993,-1.324996 -4.703985,-0.268999 -12.927968,5.813982 -17.409953,6.36998 -26.020926,14.6399622 -1.623003,1.558995 -3.579997,4.424986 -3.580997,5.260983 -0.0016,1.130996 0.782998,2.241993 1.525995,3.503989 0.579998,0.984997 4.426994,28.595917 4.076995,29.259923 -0.339999,0.643998 -0.737997,1.220996 -1.208996,1.793995 -1.056004,1.282996 -6.830986,4.999984 -8.147982,5.244983 C 21.062861,60.960415 17.475873,60.450417 14.505882,59.47342 5.4141029,56.484429 10.162896,37.706481 7.2608971,44.10146 4.8001048,49.524443 3.68431,56.431429 4.7179051,59.817419 c 0.4567025,1.496995 2.210993,4.053987 3.6129886,5.268983 0.7959975,0.688998 2.8989993,1.793994 4.7509933,2.600992 11.658963,5.076984 16.123949,-5.321983 19.984944,-9.786969 0.691998,-0.798998 1.283996,-1.452996 1.802995,-2.752992 0.796997,-1.995993 1.421995,-5.51599 1.421995,-5.51599 0,0 0.804998,-0.05496 2.002994,-0.182 7.538976,-0.798997 5.778982,-0.172999 10.657966,-3.01499 1.384004,-1.204996 2.707,-2.197993 3.690997,-1.983994 1.951993,4.966985 6.441979,12.542969 19.363946,11.157973 z m 7.203978,-29.409923 c 1.538995,1.062997 2.745991,1.639995 4.287986,1.463995 0.701998,-0.08 0.848997,-0.211999 1.470995,-1.314996 1.349996,-2.395992 1.656995,-5.318983 -0.457998,-6.859978 -2.013994,-1.466995 -3.15499,-0.820997 -2.724991,-3.11399 0.262999,-1.397996 1.064996,-3.05499 1.399995,-4.656993 0.436999,-2.0869942 -0.400999,-9.9979682 -3.16099,-11.5379642 -0.594998,-0.331999 -0.875997,-0.188999 -1.271996,0.328999 -2.338993,3.062991 -0.960997,3.24299 0.707998,5.766982 1.885994,2.850991 2.329992,6.7739862 1.158996,9.6329772 -1.011997,2.468993 -3.06299,5.150984 -2.682991,8.474974 0.103999,0.914997 0.231999,1.095996 1.272996,1.815994 z"/>
</svg>