<?xml version="1.0" encoding="UTF-8" standalone="no"?>
<svg>
  <path
     style="fill:#000000;stroke:none"
     d="m 112.33432,43.343236 c -0.0516,-1.409336 -0.2111,-3.178502 -0.67408,-3.623492 -0.26867,-0.257879 -0.6393,-0.07076 -0.87199,-0.211101 -1.04471,-0.627304 0.73286,-3.214485 1.58086,-4.204019 7.69078,-8.977769 27.62419,-20.125317 38.15522,-22.43063 1.00393,-0.220696 2.00666,-0.398212 2.19617,-0.05757 0.0947,0.167921 -0.012,0.465381 -0.17392,0.800023 -0.38022,0.786829 -0.98953,1.739181 -1.66602,2.7599 -14.02498,21.178419 8.09859,-8.2125311 14.37643,-9.0377422 0.57453,-0.284266 1.11308,-0.5121587 1.59046,-0.6632874 2.44324,-0.7688378 5.08919,-0.9319609 5.41064,-3.2732576 0.0444,-0.3286452 0.0515,-0.7388519 0.0408,-1.1358648 -0.10674,-3.8357926 -6.3678,-2.00065736 -10.77932,-0.322648 -4.08287,1.5532681 -10.14602,4.112862 -16.57738,7.0874603 -8.32168,3.8501857 -33.23755,15.4079397 -36.7435,25.4460097 -1.12987,3.233676 -0.91996,6.858368 1.33257,9.975699 0.096,0.134337 0.18352,0.254281 0.26388,0.363429 -1.01712,-1.380549 2.7563,4.424715 2.5392,-1.472906 z M 16.103668,6.912242 c 0,0 0,1.710394 0,2.605173 0,1.026716 1.818344,1.958676 2.845059,1.958676 0.359831,0 0.460583,0 0.460583,0 0.951153,0 1.081891,-0.01679 1.308584,-0.171519 1.157455,-0.788028 1.836335,-3.8201995 1.938287,-3.9701289 0.910371,-1.3421676 4.94407,-1.6312314 5.926407,0.3742236 1.037511,2.1194013 -3.320035,5.9875793 -4.4559,7.9270653 -0.622507,1.062699 -1.175446,2.510417 -0.89238,2.971 0.256679,0.416204 1.16825,0.346636 1.985065,0 C 28.102814,17.386906 34.253516,6.7551161 32.742228,3.5490268 32.239665,2.4803304 29.431788,0.63679914 27.798158,0.18581164 25.418479,-0.47267806 17.575374,0.54444264 16.325563,4.4390075 16.126457,5.0603147 16.103668,5.3085977 16.103668,6.912242 z m 40.262628,11.196836 c 0,0 1.366156,5.296704 2.305314,6.91594 0.455785,0.78563 0.858795,0.689675 1.621636,0.386218 1.315779,-0.522953 3.45797,-2.77909 3.696658,-3.892166 0.498964,-2.334099 -0.267474,-6.001972 -0.267474,-6.001972 0,0 -0.713665,-0.238687 -1.426129,0 -1.354161,0.453387 -2.703526,2.627962 -2.703526,2.627962 0,0 -0.398212,-2.956606 -0.273471,-5.058017 C 59.56159,8.9957718 62.179956,6.9795212 60.751429,3.4303936 59.492023,0.30106815 55.219636,-1.0734842 52.43215,0.95835835 49.462349,3.1221388 48.121381,6.9075551 49.45995,10.573028 c 0.857596,2.346095 2.60997,3.725445 2.37728,5.145575 -0.133138,0.818015 -3.912556,3.449575 -6.53692,4.553055 -7.454487,3.134124 -17.628093,8.226923 -18.169038,9.164882 -1.646824,2.858253 1.114275,0.95235 4.521869,0.698071 1.818343,-0.135537 3.48076,0.490568 5.016037,0.501363 3.183299,0.02039 8.917797,-3.953336 11.899592,-6.204676 3.062157,-2.31251 7.797526,-6.32222 7.797526,-6.32222 z m 0.612911,-8.8014532 c -0.01919,0.199106 0.0108,0.442591 -0.04558,0.609312 -0.316651,0.9403582 -2.1206,-0.133137 -2.719118,-0.639298 -0.153528,-0.130738 -0.308255,-0.268673 -0.422201,-0.437794 -0.154728,-0.226693 -0.171519,-0.31785 -0.171519,-0.9127702 0,0 0,-1.324176 0,-1.324176 0,0 1.850728,0 2.344895,0 3.348821,0 1.151457,1.326575 1.013522,2.7047262 z M 40.462989,67.609002 c -1.235416,1.151457 -2.632759,2.090615 -4.039696,3.03577 -9.780191,6.571702 -23.538908,17.895567 -30.6047787,8.023018 -1.851927,-2.588379 -1.969471,-4.860109 -1.4849,-8.557966 0.859995,-6.568105 3.564721,-18.778351 3.564721,-18.778351 0,0 -0.97754,-0.134338 -1.426129,0 -0.241086,0.07316 -0.327445,0.223094 -0.458184,0.371824 -0.175117,0.200306 -0.236289,0.395813 -0.609312,1.957477 -1.827939,7.6404 -7.815158,24.799515 -4.339796,32.137657 2.920864,6.166294 9.6317017,7.248184 15.7476197,5.05082 5.916812,-2.125399 24.512849,-14.302061 25.898196,-16.596579 1.037512,-1.719991 4.187227,-13.809094 3.814203,-16.503024 -0.388617,-2.803079 -3.144918,-5.704512 -6.53692,-7.309356 -2.221352,-1.050705 -9.306414,-2.938615 -10.920853,-5.714107 -0.365828,-0.629704 0.386218,-0.260277 1.161053,-0.777234 0.31665,-0.211101 0.18951,-0.627305 -0.01319,-1.073494 -0.704068,-1.547271 -7.675183,-10.459072 -9.480332,-9.964905 -2.021048,0.551741 -4.162039,5.696116 -4.515872,7.486872 -0.196707,0.991933 -0.221896,1.899905 0,3.018978 0.375423,1.898705 2.572787,5.850842 3.585111,6.448161 0.526552,0.310654 1.068696,0.392216 1.65402,0.618909 2.582383,0.994331 6.018764,4.77375 9.770596,6.87516 2.31371,1.29539 4.748562,1.953879 6.426571,3.123328 2.172177,1.516086 4.375539,3.631889 4.176432,5.378266 -0.05397,0.477375 -0.190709,0.652492 -1.368555,1.748776 z m 104.915771,9.612123 c 0.15353,-1.290592 0.47738,-2.697529 0.8444,-3.700257 1.93109,-5.279912 3.37881,-6.321022 1.18864,-11.291479 -2.93982,-6.666459 -6.26464,-5.387862 -14.55994,-8.31928 -1.49689,-0.528951 -5.17196,-2.298117 -6.23946,-3.565919 -0.31185,-0.369427 -0.4378,-0.736454 -0.0828,-0.973942 0.44739,-0.301058 1.51969,-0.07797 1.9107,-0.46658 0.25308,-0.249483 0.22189,-0.754445 0.23389,-1.14546 0.0168,-0.527751 -0.0983,-0.72206 -1.14426,-1.938286 l -6.93034,-8.063801 c 0,0 -3.88137,4.060087 -4.38633,6.646068 -0.13794,0.704068 -0.03,1.302586 0.23988,1.892708 0.33824,0.738853 0.93076,1.462111 1.24502,2.266932 0.43899,1.121472 0.33584,2.402468 0.59492,3.56592 1.29299,5.808862 9.62666,10.769725 13.96503,11.8852 4.97884,1.278597 10.73133,2.924222 11.88519,8.912999 0.0828,0.434196 0.12594,0.882784 0.0755,1.324176 -0.0684,0.59492 -0.20391,0.784431 -1.35777,1.901104 -4.47025,4.322764 -14.26123,14.185716 -22.01318,12.81956 -1.84833,-0.325047 -5.3219,-1.675611 -6.12072,-2.971 -1.02312,-1.661217 -1.54967,-12.476521 -4.15964,-8.9142 -3.12813,4.269989 -2.50202,14.94016 0.59492,18.42212 3.04057,3.419589 10.20479,3.736239 14.55874,2.07982 1.41774,-0.539746 2.62557,-1.2726 4.15965,-2.37728 2.42285,-1.745178 5.66132,-4.418718 8.46081,-6.806793 6.32821,-5.398656 6.1603,-3.807006 7.03708,-11.18233 z M 29.850391,94.843369 c -0.287865,2.512816 0.705267,0.778433 5.296704,0.594919 1.181443,-0.04678 2.131395,0.329845 3.089744,0.891181 3.429184,2.007854 3.380007,2.528408 6.774407,2.07982 6.165095,-0.814417 7.061073,-1.78476 14.916171,-6.53692 6.040355,-3.654678 18.095873,-10.063258 21.225199,-17.324637 0.706467,-1.637228 0.806021,-3.466367 1.356561,-5.255923 2.502021,-8.135766 5.471821,-7.484474 3.86218,-14.274473 -2.021048,-8.530381 -9.208062,-20.31123 -16.841264,-17.221486 -6.232264,2.523611 -12.955096,16.227154 -8.414036,23.17548 1.602445,2.452844 9.332803,2.88464 13.251356,2.37728 2.662746,-0.344238 6.655665,-1.188641 6.655665,-1.188641 0,0 0.665686,2.157784 0.594919,3.684664 -0.05517,1.158654 -1.433324,2.901433 -2.67474,4.040896 -1.075893,0.987135 -2.07862,2.140991 -3.26846,3.26846 -5.287108,5.012438 -21.642601,13.693948 -28.821219,16.342299 -4.568647,1.684007 -10.088446,3.053761 -15.205235,4.323962 -1.556866,0.386218 -1.736781,0.48937 -1.797952,1.023119 z m 47.013047,-41.002679 -4.765355,0 c -1.604844,0 -1.885511,-0.01799 -2.80308,-0.183514 -1.799151,-0.326246 -4.078078,-2.106207 -4.316766,-3.857382 -0.02998,-0.219496 -0.04198,-0.471378 -0.04438,-0.718462 l -0.02639,-2.371283 4.565049,0 c 1.4861,0 1.76197,0.06717 2.762298,0.674083 1.481303,0.900776 4.553055,4.505077 4.62862,5.030429 0.09115,0.641698 0,1.426129 0,1.426129 z m 5.830452,39.584929 c 0.201505,2.774293 1.495695,4.499079 3.850185,4.996845 3.036969,0.641697 4.75456,-1.005126 5.532993,-4.335957 0.17032,-0.731655 0.131939,-1.340968 -0.33824,-1.634829 -0.894778,-0.558937 -3.35242,0.02159 -4.539861,-0.609314 -1.477704,-0.78443 -1.854326,-4.122456 -1.488498,-5.681722 0.365827,-1.561664 1.298988,-3.234875 1.553267,-4.437908 0.05037,-0.243486 0.07437,-0.46778 -0.03119,-0.593721 -0.01319,-0.01559 -0.02758,-0.02998 -0.04078,-0.04438 -3.574316,-0.814416 -4.442707,13.089432 -4.497881,12.340985 z M 72.264805,7.6161809 c 0.261476,-0.2506818 0.636899,-0.4401925 1.119072,-0.5577372 1.566461,-0.3802208 4.26519,0 4.26519,0 0,0 0.922365,-3.660675 0.580527,-5.426243 C 77.848173,-0.33607193 74.321835,-0.47880463 72.419531,0.95931777 69.987078,2.7968519 68.701283,10.789886 69.5157,13.263121 c 0.225494,0.684876 0.570931,1.304985 1.029115,1.80155 0.16792,0.181115 0.350234,0.345438 0.538546,0.515757 l 1.33617,1.200635 0.714863,1.944284 c 0.29746,0.808419 0.48817,1.504091 0.48817,1.504091 0,0 5.43464,-3.432782 7.221797,-5.618153 0.790428,-0.969143 0.865993,-1.692402 1.161053,-2.905031 0.534948,-2.1949653 1.33737,-4.2579939 0.871989,-4.6478103 C 82.489986,6.7357958 81.369714,6.8869246 80.485731,7.3822912 79.178346,8.1139464 78.389118,9.5964487 76.300902,9.9634757 75.719176,10.065427 75.036698,10.08102 74.442977,10.064228 69.882727,9.3613597 73.469037,6.4635241 72.264805,7.6161809 z m 66.219605,41.7446201 0.70646,-0.01199 c 0.31666,-0.006 0.40182,-0.199106 0.85041,-1.929891 2.57758,-9.954109 3.04896,-15.449919 -3.29365,-21.83451 -1.04472,-1.050705 -2.26214,-1.93229 -3.04536,-0.990734 -0.53256,0.639299 -1.0747,5.152772 -0.83242,6.137508 0.4234,1.723588 1.68041,2.282525 3.13173,3.453173 3.27925,2.642355 4.10087,4.62622 3.68346,8.146561 -0.32024,2.701127 -1.20063,7.029888 -1.20063,7.029888 z m -16.60618,-28.899323 -0.17632,-4.042096 c -0.072,-1.63363 -0.048,-1.927492 0.23629,-2.927821 0.2099,-0.743649 0.4318,-1.555667 0.99553,-2.07862 1.37336,-1.274999 4.77375,-0.834807 6.34982,-1.885512 2.26933,-1.5124872 2.27052,-6.7084388 0.52415,-8.81464643 -1.85194,-2.23334757 -5.59537,1.31338123 -7.12945,3.34282483 -0.94275,1.2462128 -1.83513,2.6747396 -2.23574,4.3419541 -0.18712,0.772436 -0.28907,1.6504235 -0.4354,2.4180605 l -0.71127,3.760229 -2.35329,-2.993789 c -3.21928,-4.2400031 -2.23694,-5.5006091 -6.96871,-6.653266 -1.58566,-0.3862181 -5.02324,-0.2422859 -5.68413,1.5424731 -0.51695,1.3973416 0.69688,4.7929419 1.45732,5.6001619 0.58412,0.620108 2.95181,2.158983 3.93055,2.253738 1.59764,0.154727 4.8637,-0.819214 4.8637,-0.819214 0,0 2.63516,3.793813 4.2448,5.574973 0.70287,0.777234 1.2834,1.403339 2.18418,1.420131 0.37182,0.0072 0.90797,-0.03958 0.90797,-0.03958 z m 28.26589,72.964141 c 0.2003,2.774293 1.49449,4.499079 3.84898,4.996845 3.03697,0.641697 4.75456,-1.005126 5.53299,-4.335957 0.17153,-0.731655 0.13315,-1.340968 -0.33824,-1.634829 -0.89478,-0.558937 -3.35122,0.02159 -4.53986,-0.609314 -1.4777,-0.78443 -1.85313,-4.122456 -1.4873,-5.681722 0.36583,-1.561664 1.29779,-3.234875 1.55207,-4.437908 0.0516,-0.243486 0.0755,-0.46778 -0.0311,-0.593721 -0.0131,-0.01559 -0.0264,-0.02998 -0.0396,-0.04438 -3.57552,-0.814416 -4.44391,13.089432 -4.49788,12.340985 z m -52.441702,-67.395485 0.03359,-3.461569 2.105008,-0.06237 2.438454,-0.07317 -2.632762,-5.898821 c -0.05758,-0.127135 -0.112754,-0.24348 -0.16433,-0.346632 C 96.795645,10.859682 97.342587,11.233906 98.068245,6.3006311 97.966293,5.4130494 97.792375,4.5194704 97.514106,3.7590288 L 96.138354,0 92.608418,2.9973876 c -0.406608,0.3598305 -0.61411,0.5565378 -0.828809,0.7724361 -1.793155,1.8039499 -3.929349,3.7962111 -3.69426,6.4733493 0.201506,2.316109 1.648024,4.825326 1.844731,7.164225 0.02399,0.297459 -0.006,0.586523 -0.06717,0.871989 -1.065098,4.892494 -0.09236,11.765256 0.446191,16.800483 0.498964,4.664602 1.077092,9.263235 1.797952,13.719135 1.092686,6.754017 3.006983,14.198909 2.578785,19.682726 -0.358631,4.60343 -1.851927,12.41415 -1.851927,12.41415 0,0 0.639298,-0.645296 1.430926,-1.488499 15.935693,-16.978 4.045693,-29.251816 3.481959,-48.260459 -0.05517,-1.84473 -0.05877,-3.645082 -0.04438,-5.116789 z" />
</svg>
