<?xml version="1.0" encoding="UTF-8" standalone="yes"?>
<svg xmlns="http://www.w3.org/2000/svg" xmlns:xlink="http://www.w3.org/1999/xlink"
  width="595.276pt" height="841.89pt" viewBox="0 0 595.276 841.89"
  fill-rule="evenodd">
  <path
     d="M 15.952805,12.844951 15.589606,5.9241807 c -0.0536,-1.026396 -0.0744,-1.204795 -0.211199,-1.786393 -0.419998,-1.783192 -1.548793,-2.759188 -2.728788,-3.38958604 -1.500794,-0.801596 -2.645989,-1.099195 -4.1926227,0.0288 C 7.1852417,1.7049977 7.0654822,5.0649837 7.5654001,5.5897817 c 0.3729584,0.391998 1.3612742,0.356798 2.5575089,0.076 2.987508,-0.701597 3.287506,-0.539998 4.065903,2.619989 0.369598,1.501593 0.412798,2.9079873 0.231199,4.4183813 -0.386398,3.206386 -1.293595,4.76638 0.484798,6.648772 0.739997,0.783996 1.513594,0.902396 3.202386,0.554397 1.199995,-0.247198 1.437594,-0.803996 1.940792,-2.465589 0.354399,-1.169595 0.634398,-2.217591 0.543198,-3.383986 -0.179999,-2.31359 -2.681589,-6.6623723 0.333599,-7.7423673 0.556797,-0.199999 1.279994,-0.0696 1.903991,0.0664 0.839997,0.183199 0.983196,0.1 1.426394,-0.830397 0.363999,-0.765597 0.785597,-1.469594 1.017596,-2.29359 C 26.142361,0.16660466 24.810367,-0.70619134 22.137578,0.56020266 19.071991,2.0129967 17.694397,8.2369707 18.349594,12.409753 c 0.2008,1.719993 0.419999,3.268786 0.419999,3.268786 0,0 -0.1832,-0.0024 -0.400799,-0.0232 -0.858396,-0.0848 -2.33279,-1.223994 -2.415989,-2.810388 z m 17.839124,43.162218 2.866388,-2.866388 -4.192782,-4.192782 -4.192783,4.192782 2.866388,2.866388 -2.866388,2.866388 4.192783,4.192782 4.192782,-4.192782 -2.866388,-2.866388 z M 47.515871,7.0537757 43.611088,10.932959 c -0.649598,0.644798 -0.741597,0.760797 -0.923196,1.157596 -0.254399,0.555997 -0.342399,1.485593 -0.2168,1.611993 0.403999,0.407998 1.834393,-0.582398 2.331991,-0.949596 4.359181,-3.2151873 6.344773,-5.2399783 7.04957,-9.4023613 0.358398,-2.115991 -0.762397,-2.93518704 -2.744789,-3.20478604 -3.144786,-0.428798 -6.266373,0.0096 -7.487968,2.37759004 0.191199,9.0407623 0.459198,3.870384 3.126387,3.228786 2.967187,-0.713597 6.157574,-2.29999 2.769588,1.301595 z M 10.884826,27.940087 11.028025,26.174495 8.5237161,26.734493 C -3.6495925,29.456081 5.7784477,8.7529687 3.4461375,12.540953 0.75990884,16.903334 -0.41488619,22.112112 0.1305515,26.770492 0.1900713,27.27929 0.25495098,27.741688 0.33415064,28.164887 1.6048653,34.957658 10.466428,33.101666 10.884826,27.940087 z M 17.0424,23.608106 12.849618,27.800888 17.0424,31.99367 21.235182,27.800888 17.0424,23.608106 z m 22.703904,17.630325 c -2.059991,-1.574393 -2.559989,-4.309582 -2.171191,-6.883971 0.0912,-0.604797 0.221599,-1.164795 0.385599,-1.587993 l -1.592794,0.397598 c -1.124795,3.437586 -4.351181,13.015945 4.291982,15.251136 0.0352,0.0096 0.0712,0.0176 0.1064,0.0256 0.123999,0.0272 0.250399,0.0496 0.377598,0.068 1.317594,0.191999 12.175149,-1.571994 17.179127,-5.276778 2.815989,-2.084791 4.663181,-4.83678 5.885576,-7.932767 0.677597,-1.716792 1.411994,-5.306377 1.238394,-6.055174 -0.192799,-0.829597 -1.949591,-3.349586 -2.929587,-4.083183 -1.529594,-1.146395 -3.805584,-0.860796 -6.644772,-2.472789 -1.494394,-0.847997 -3.147987,-2.223191 -3.147987,-2.223191 0,0 0.391198,0.0144 1.132795,0.0416 4.615181,0.171999 0.974396,-1.455994 -0.322398,-2.587189 -1.782393,-1.555194 -3.908784,-4.554381 -4.975179,-4.074383 -0.535198,0.240799 -2.114391,3.326386 -2.39039,4.491181 -0.472798,1.994392 0.445598,2.171991 1.733592,3.281586 1.088796,0.937596 1.823993,2.577589 2.743189,3.830384 0.787997,1.073595 2.012791,2.094391 3.279986,2.734388 1.059996,0.534398 7.603968,2.227991 8.623164,4.690381 0.353598,0.853596 0.0944,1.279194 -0.483998,1.810392 -2.38079,2.185591 -4.704781,3.777584 -7.439169,4.990379 -0.307199,0.135999 -0.746397,0.307199 -1.279995,0.503198 -5.059178,1.854392 -9.46796,4.219982 -13.599942,1.061595 z M 38.28471,33.044066 c 1.715993,-1.515194 2.546389,-4.625581 2.590389,-6.635972 0.028,-1.277595 -1.327994,-7.03277 -1.997591,-8.475964 -0.252799,-0.544798 -0.501598,-0.886396 -0.980796,-0.556798 -0.1312,0.0904 -0.377599,0.474398 -0.639998,0.961596 -3.043187,5.657576 0.1344,6.485573 0.490398,10.557555 0.0056,0.0632 0.0064,0.0656 0.0064,0.0656 l -1.872792,0.163999 c -0.841596,0.0736 -1.023995,0.0832 -1.828792,0.0944 -1.926392,0.0264 -4.271182,-0.998396 -5.215978,-2.126391 -1.085595,-1.296794 -2.23359,-3.275186 -3.145587,-1.898392 -0.745596,1.125595 -1.398394,3.755184 -1.377594,4.460781 0.0448,1.523994 3.131987,6.947971 3.959183,9.58076 0.519998,1.654393 -0.234399,2.25759 -2.34079,3.883983 -0.455198,0.351999 -0.859196,0.671997 -1.319194,0.974396 -1.114395,0.731997 -4.317582,1.861592 -5.457577,1.923992 -1.387194,0.076 -3.430385,-0.289599 -5.451177,-0.985596 C 4.8516516,41.982428 7.4512406,22.58971 5.3304496,32.11767 1.5920654,48.912799 8.543476,53.044781 16.9184,52.337584 c 0.2104,-0.0176 0.400799,-0.04 0.564798,-0.0664 0.1152,-0.0176 0.235199,-0.04 0.360799,-0.0664 5.746375,-1.189595 10.070357,-5.019179 11.73435,-10.274357 0.403198,-1.275194 0.796797,-2.550389 1.090395,-3.453585 0.209599,-0.644797 0.444798,-1.154395 0.526398,-2.150391 0.0368,-0.454398 0.0424,-1.009596 0.0424,-1.009596 0,0 0.506398,-0.0448 1.067995,-0.0936 3.692785,-0.323199 5.974375,-2.175191 5.979175,-2.179191 z m -6.584772,-18.027924 2.767188,-0.242399 c 0,0 0.685597,-1.891992 0.907196,-3.075187 0.291999,-1.559993 -0.471998,-2.4239903 -2.582389,-3.0599873 -0.831996,-0.250399 -0.933596,-0.321599 -1.012795,-0.713597 -0.0592,-0.291199 -0.0512,-0.586397 -0.0272,-0.885596 0.0992,-1.215995 0.467998,-2.48799 0.339198,-3.469585 -0.137599,-1.049596 -1.461594,-4.09998304 -2.36239,-3.48958604 -0.822396,0.556798 -0.821596,2.14799104 -0.424798,2.98158804 1.005596,2.113591 2.047191,2.21919 1.541594,4.64158 -0.2064,0.990396 -0.723997,1.870392 -1.006396,3.1007873 -0.632797,2.759988 -0.253599,4.396781 1.860792,4.211982 z"
     style="fill:#000000;stroke:none" />
</svg>
