<?xml version="1.0"?>
<svg xmlns="http://www.w3.org/2000/svg" version="1.1">
  <path
     d="m 12.482888,57.69396 c 0.5735,-0.956 1.1682,-3.092 0.9816,-3.747 -0.4012,-1.409 -1.9864,-0.462 -4.1943,-0.356 -3.3639,0.161 -5.5762,-3.635 -4.9118,-6.732 0.5432,-2.532 2.4087,-5.625 3.4493,-8.29 0.4649,-1.19 0.297,-1.328 -0.6608,-1.189 -0.359,0.052 -0.4666,0.169 -1.0767,1.169 -1.9218,3.15 -4.9648,10.635 -4.1953,14.461 0.0736,0.366 0.2106,0.768 0.3936,1.175 0.6637,1.477 5.5958,7.379 10.2144,3.509 z m 7.8162,-34.956 -4.3871,4.574 c -0.729,0.76 -0.8327,0.896 -1.0367,1.364 -0.2856,0.656 -0.3845,1.752 -0.2441,1.901 0.4544,0.481 2.061,-0.687 2.6202,-1.12 4.8972,-3.79 7.1281,-6.177 7.9199,-11.086 0.4024,-2.494 -0.8562,-3.46 -3.0834,-3.778 -3.5333,-0.505 -7.0397,0.012 -8.4123,2.803 0.2143,10.66 0.516,4.564 3.5124,3.807 3.3333,-0.841 6.9174,-2.711 3.1111,1.535 z m 17.3005,-3.363 -0.5213,-10.439 c -0.0773,-1.548 -0.1078,-1.818 -0.3044,-2.695 -0.603,-2.689 -2.2253,-4.161 -3.9213,-5.112 -2.1568,-1.209 -3.8029,-1.658 -6.0257,0.044 -1.8278,1.399 -1.9999,6.467 -1.2814,7.259 0.536,0.591 1.9564,0.538 3.6756,0.114 4.2943,-1.058 4.7246,-0.814 5.8431,3.952 0.5315,2.264 0.5942,4.386 0.3328,6.664 -0.5551,4.837 -1.8596,7.19 0.6967,10.029 1.0638,1.182 2.1752,1.361 4.6024,0.836 1.7244,-0.372 2.0665,-1.213 2.7895,-3.719 0.509,-1.764 0.9116,-3.345 0.7812,-5.103 -0.2588,-3.49 -3.8541,-10.05 0.4791,-11.679 0.7998,-0.301 1.8395,-0.105 2.7359,0.1 1.2083,0.276 1.4133,0.151 2.0501,-1.253 0.5236,-1.154 1.1294,-2.216 1.4625,-3.458 1.2503,-4.664 -0.6642,-5.98 -4.5053,-4.07 -4.4063,2.192 -6.3856,11.58 -5.4443,17.873 0.2883,2.595 0.6041,4.931 0.6041,4.931 0,0 -0.2635,-0.003 -0.5771,-0.036 -1.2336,-0.127 -3.3527,-1.846 -3.4722,-4.238 z m 3.8813,67.372 -4.5483,4.89 5.5772,5.71 5.5772,-5.996 -4.5484,-4.657 4.5484,-4.89 -5.5772,-5.71 -5.5772,5.996 4.5483,4.657 z m -22.1403,-45.569 -5.5773,5.996 5.5773,5.71 5.5772,-5.996 -5.5772,-5.71 z m 17.7089,34.379 c 0,0 0.5992,-0.031 1.1038,-0.028 2.1383,0.012 2.5765,0.639 4.1391,0.762 2.7163,0.214 8.8303,-1.095 8.8303,-1.095 0,0 -0.0273,0.979 -0.1135,1.622 -0.0586,0.437 -0.1443,0.719 -0.2337,1.018 -1.7959,5.992 -3.3668,12.661 0.899,15.59 2.7121,1.863 5.79,1.735 9.0562,0.575 6.4571,-2.293 18.7629,-10.57 19.8779,-18.055 0.0185,-0.125 0.0365,-0.25 0.0538,-0.377 0.1398,-1.02 0.304,-2.245 0.304,-2.245 0,0 -6.7246,5.584 -11.3555,8.782 -1.3833,0.956 -2.9883,1.957 -4.6631,2.797 -7.1972,3.608 -13.383,2.839 -13.0153,-6.797 0.0513,-1.344 0.1448,-2.592 0.5109,-3.194 0.3683,-0.605 0.9918,-0.973 1.5956,-1.535 0.6524,-0.608 1.2737,-1.362 1.8437,-2.187 4.9831,-7.207 3.0411,-10.638 1.1255,-18.601 -1.091,-4.535 -0.8482,-6.881 -3.1601,-3.715 -4.7453,6.498 -3.709,7.293 -1.3679,14.514 0.1197,0.369 0.2222,0.722 0.2981,1.05 0.2256,0.976 -0.1165,2.6 -0.6332,3.007 -1.6561,1.303 -11.4676,1.389 -15.2336,-0.862 -1.2967,-0.775 -2.8383,-2.519 -3.3113,-4.259 -0.5342,-1.965 -0.3662,-4.997 -1.4822,-4.103 -0.7333,0.586 -2.4084,5.008 -2.519,6.059 -0.1316,1.251 0.2934,3.847 0.6414,5.171 0.5466,2.081 1.4082,4.623 2.2004,6.962 2.7983,8.26 -1.0291,11.213 -9.763,12.783 -1.1616,0.208 -2.2715,0.351 -3.3333,0.42 -17.9409,1.168 -17.2535,-14.838 -11.785,-25.835 0.9231,-1.856 1.7536,-3.614 2.1715,-5.072 0.1954,-0.682 0.106,-0.79 -0.4417,-0.71 -0.1985,0.028 -0.2902,0.142 -0.9173,1.13 -0.0282,0.044 -0.0565,0.089 -0.0849,0.134 -6.4962,10.331 -15.9051,31.163 2.342,37.162 3.6746,1.208 7.9028,1.217 12.0642,0.101 11.2315,-3.012 14.3496,-8.025 14.4466,-19.28 0.0078,-0.904 -0.0904,-1.689 -0.0904,-1.689 z m 44.5186,-7.151 c 0,0 0.7362,0.174 0.7362,0.174 0,0 0.7562,-2.176 1.3269,-4.443 1.1572,-4.598 -0.5882,-10.796 -5.1826,-12.8 -2.5049,-1.092 -5.9832,-2.252 -6.2162,-3.06 -0.1155,-0.4 -0.138,-0.865 -0.138,-0.865 0,0 0.1814,-0.005 0.7075,-0.018 6.1373,-0.158 -0.0118,-4.462 -0.7641,-5.177 -2.2237,-2.114 -5.3539,-5.53 -7.1148,-6.545 -1.5318,-0.883 -3.1413,1.546 -4.8322,4.518 -1.5788,2.776 -2.2721,5.3 -1.0007,6.587 2.4144,2.446 9.843,8.622 12.0374,9.847 5.1501,2.876 9.1391,3.612 10.096,10.413 0.0402,0.286 0.0673,0.57 0.0312,0.855 -0.0487,0.384 -0.0174,0.435 0.3134,0.514 z m -11.9949,-55.598 -7.3693,0.444 c -1.117,0.067 -1.2994,0.017 -1.8242,-0.497 -0.3893,-0.381 -0.7354,-0.818 -0.9787,-1.317 -0.4231,-0.868 -0.4231,-3.476 0,-4.639 0.3682,-1.013 3.3681,-5.518 2.7594,-6.535 -0.6409,-1.071 -2.8105,1.38 -3.4493,2.695 -1.537,3.164 -2.8826,12.842 0.4139,14.904 1.349,0.843 8.3217,0.384 9.1062,-0.234 0.357,-0.282 0.4797,-0.662 0.6898,-1.611 0.2595,-1.171 0.6522,-3.21 0.6522,-3.21 z"
     style="fill:#000000;stroke:none" />
</svg>
