<?xml version="1.0" encoding="UTF-8" standalone="yes"?>
<svg xmlns="http://www.w3.org/2000/svg" xmlns:xlink="http://www.w3.org/1999/xlink"
  width="595.276pt" height="841.89pt" viewBox="0 0 595.276 841.89"
  fill-rule="evenodd">
  <path
     style="fill:#000000;stroke:none"
     d="m 52.171196,76.593643 -4.633997,4.632988 6.667988,6.669 6.668996,-6.669 -4.633997,-4.632988 4.633997,-4.633989 -6.668996,-6.667996 -6.667988,6.667996 4.633997,4.633989 z m -26.28796,-25.81696 -0.152,1.740999 1.573999,0.138 c 0.708,0.062 0.859,-0.036 1.512991,-0.978999 1.202,-1.731999 1.823999,-2.079999 3.449998,-2.118999 0.354,-0.009 0.768,-0.01496 1.119,0.02104 2.227998,0.223 1.041999,2.776998 0.264999,3.653998 -2.046998,2.31199 -6.782987,5.853988 -7.570987,7.810987 -0.132,0.328 -0.211,0.664 -0.07104,0.815999 0.72,0.78 4.402989,-2.102998 4.495989,-2.176998 2.865999,-2.298999 7.861988,-6.593988 9.250987,-10.870986 1.028999,-3.16699 -2.026999,-4.154989 -5.710989,-4.883989 -3.037998,-0.600999 -4.859997,0.551 -7.070987,3.76599 -0.314,0.457 -0.592,0.92 -0.762,1.437999 -0.228,0.698 -0.261,0.862 -0.33,1.644999 z m -1.339999,-8.145987 6.668988,-6.668988 -6.668988,-6.667988 -6.667988,6.667988 6.667988,6.668988 z M 43.16321,18.263735 42.64721,8.4237486 c -0.07696,-1.46 -0.107,-1.714 -0.301,-2.540999 -0.596999,-2.53399 -2.201998,-3.92299 -3.879997,-4.818989 -2.132991,-1.13899904 -3.76199,-1.56299904 -5.960989,0.042 -1.807999,1.318999 -1.977999,6.095988 -1.267999,6.842988 0.531,0.557 1.935999,0.507 3.636998,0.107 4.247989,-0.998 4.673989,-0.768 5.779988,3.7249984 0.526,2.134991 0.588,4.134989 0.33,6.281988 -0.55,4.559989 -1.839999,6.777988 0.689,9.454986 1.051999,1.114 2.151998,1.282 4.552989,0.788 1.705999,-0.352 2.043999,-1.143999 2.759998,-3.506998 0.503,-1.662999 0.901,-3.15199 0.772,-4.809989 -0.255,-3.289998 -3.811998,-9.473986 0.473999,-11.0099854 0.792,-0.283 1.819999,-0.098 2.706999,0.095 1.195991,0.260999 1.397991,0.143 2.027991,-1.181 0.517999,-1.088 1.117999,-2.088999 1.446999,-3.25999 1.236999,-4.39599804 -0.657,-5.636997 -4.45699,-3.83599804 C 47.598199,2.8627596 45.6402,11.711747 46.5712,17.644735 c 0.284999,2.445999 0.597999,4.64799 0.597999,4.64799 0,0 -0.261,-0.0032 -0.570999,-0.034 -1.221,-0.12 -3.31699,-1.739991 -3.43499,-3.99499 z M 67.388171,55.25568 64.334173,66.411658 c -1.356999,5.253996 -0.693,8.226987 1.518999,12.495983 1.972999,3.80799 3.320998,4.68199 7.508987,4.59799 3.128998,-0.062 5.537989,-1.334 8.405991,-3.37499 0.371,-0.264 0.761,-0.547 1.161999,-0.844 5.682989,-4.200997 10.525986,-7.658986 12.786977,-12.548984 0.311,-0.671999 0.542999,-1.384999 0.665999,-2.123998 0.239,-1.449991 0.058,-2.99599 0.587,-4.05499 0.237,-0.473999 0.617,-0.849999 0.969999,-1.316999 2.668996,-3.524998 1.380999,-7.626987 -1.397999,-10.153986 -1.715991,-1.559999 -4.312989,-2.83699 -6.784988,-3.881989 -3.14599,-1.331 -5.743988,-2.218999 -8.640986,-4.508998 -1.160004,-0.916999 -1.291004,-1.091999 -1.309004,-1.749999 -0.01304,-0.488991 -0.036,-1.161991 0.210004,-1.443991 0.383,-0.438999 1.417999,0.068 1.964999,-0.06104 0.527,-0.124 0.602,-0.835999 0.37,-1.565999 -0.042,-0.131 -8.111991,-7.715987 -9.96499,-7.261987 -0.649,0.159 -1.162999,1.144999 -1.955999,2.56899 -1.063991,1.909999 -2.62999,4.605997 -2.62999,4.605997 0,0 2.175998,2.228999 3.28099,3.88599 0.636999,0.953999 0.917999,1.717999 1.334999,2.505998 3.781998,7.141988 9.99599,7.623988 17.097977,12.046985 2.316999,1.442991 6.172989,5.305989 5.300997,8.322987 -0.303,1.048999 -2.781998,3.43199 -4.786997,4.600989 -1.544999,0.902 -3.023998,1.659999 -4.340989,2.634999 -4.585997,3.39599 -8.397991,8.027987 -13.824988,4.544989 -2.98599,-1.915999 -4.053989,-5.643989 -4.164989,-9.184987 l -0.31,-9.890978 z M 47.333199,67.402657 c 0.01304,0.054 0.02,0.081 0.02,0.081 0,0 1.710999,-4.193989 3.027998,-5.289989 0.597,-0.495999 3.05199,-0.032 4.906989,0.43 0.582,0.145 2.216999,-0.205 3.707998,-0.691 1.885999,-0.613999 7.284988,-3.597997 8.478987,-11.152985 0.565,-3.577998 -0.761,-10.163986 -2.481999,-12.518976 -1.281999,-1.753999 -2.502998,-0.766 -3.40599,1.346991 -0.780999,1.825999 -1.421999,3.188998 -1.234999,4.714997 0.385,3.13399 4.40699,8.322987 1.877991,9.864986 -1.713991,1.043999 -5.299989,1.229991 -6.863988,0.769 -1.945999,-0.573 -5.345988,-2.982999 -6.199988,-4.926997 -0.857999,-1.949999 -0.849999,-4.32699 -2.890998,-3.54099 -1.657991,0.637991 -2.641991,4.875989 -2.632991,7.168987 0.0048,1.435 0.352,2.410991 1.003,4.19799 0.247,0.679999 0.520991,1.541999 0.795991,2.468998 l 1.585999,5.348989 -6.523988,3.617998 c -2.548998,1.412999 -4.825989,2.745998 -5.053989,2.830998 -9.704986,3.63599 -20.751971,2.652991 -25.07696,-4.659997 C 8.0792631,63.586667 6.995264,60.233669 7.7502635,56.710672 8.6482627,52.518682 11.193261,45.820694 12.924252,40.949697 l -2.205991,-8e-4 c -0.139999,0.565 -5.5149959,14.968975 -7.050995,21.454971 -0.5639917,2.376991 -0.8639915,3.73699 -0.7179916,5.329989 0.142,1.552999 3.39699,8.304987 4.6389892,9.624986 3.7819974,4.016988 12.8359764,5.403988 21.0689634,3.486988 4.041997,-0.94099 13.046984,-4.324987 14.783983,-6.104986 1.385999,-1.419 2.32999,-3.67699 3.06899,-5.691989 0.128,-0.349 0.493999,-1.015999 0.822999,-1.645999 z m -36.829937,-29.28491 2.42099,-0.202 c 1.129999,-3.180998 1.912999,-5.583997 1.662999,-6.002996 -0.228,-0.382 -0.716999,-0.41 -1.740999,-0.152 C 7.7292635,33.04975 4.5282655,32.97075 3.1782743,27.626761 2.1302749,23.477764 3.1052343,18.635775 4.8172653,15.164777 7.5752636,9.5687876 14.083251,0.08080156 14.083251,0.08080156 l -0.869999,-0.076 c -0.392,-0.034 -0.538,0.09 -1.460999,1.24099904 C 3.8822659,11.060787 -3.0897219,25.744762 1.4242754,35.145749 c 0.3259998,0.679999 0.6509996,1.080999 1.7849909,1.526999 0.081,0.03096 0.1649999,0.06304 0.2539998,0.095 1.5819991,0.574999 4.9569968,1.523999 7.0399959,1.349999 z m 57.637908,-20.883971 -0.048,0.543999 -0.544,-0.048 c 0,0 1.960999,-4.930989 2.392998,-8.5599864 0.05096,-0.428 -0.752999,-8.014988 -2.827998,-9.01598804 -1.544999,-0.744999 -2.301998,1.37900004 -2.677998,3.04299904 -0.675,2.98899 -0.359,3.43699 0.676999,5.195989 1.384999,2.3509994 1.749999,4.3479974 1.033,6.5839884 -1.259,3.921998 -2.590999,4.655997 -2.551999,8.544987 0.01496,1.480999 0.117,1.699999 1.023,2.186998 1.719999,0.926 5.816988,1.358 6.706988,1.12 0.878999,-0.234 3.992997,-4.620997 3.168998,-7.033988 -0.265,-0.775999 -2.030999,-2.004999 -3.741998,-2.332998 -1.146991,-0.22 -2.609991,-0.228 -2.609991,-0.228 z" />
</svg>
