<?xml version="1.0" encoding="UTF-8" standalone="no"?>
<svg>
  <path
     d="m 113.25,97.440319 6.49,-6.48875 -8.33625,-8.33625 -8.335,8.33625 6.48875,6.48875 -6.48875,6.488751 8.335,8.33625 8.33625,-8.33625 -6.49,-6.488751 z m -12.03125,-84.9325 -6.92375,6.8775 c -1.15125,1.14375 -1.315,1.34875 -1.63625,2.0525 -0.45125,0.98625 -0.6075,2.63375 -0.38625,2.8575 0.7175,0.72375 3.25375,-1.0325 4.13625,-1.68375 7.72875,-5.7 11.25,-9.29 12.5,-16.6712494 0.635,-3.75125 -1.35125,-5.20375004 -4.8675,-5.68250004 -5.57625,-0.75875 -11.11,0.0175 -13.27625,4.21625004 0.33875,16.0299994 0.81375,6.8637494 5.54375,5.7249994 5.26,-1.2662494 10.9175,-4.0774994 4.91,2.30875 z m -5.4425,15.70375 -7.96,7.96 7.96,7.96 7.96,-7.96 -7.96,-7.96 z m 30.395,-6.41 -0.615,-11.74625 c -0.0913,-1.7424994 -0.1275,-2.0462494 -0.36,-3.0324994 -0.7125,-3.02625 -2.6275,-4.6825 -4.63125,-5.7525 -2.54625,-1.36125004 -4.49,-1.86625004 -7.115,0.0487 -2.15875,1.575 -2.3625,7.2775 -1.51375,8.16875 0.63375,0.6649994 2.31,0.6049994 4.34125,0.12875 5.07125,-1.19125 5.57875,-0.91625 6.9,4.4462494 0.6275,2.54875 0.70125,4.93625 0.3925,7.49875 -0.655,5.44375 -2.19625,8.09125 0.82375,11.28625 1.25625,1.33 2.56875,1.53125 5.435,0.94125 2.03625,-0.42 2.44,-1.36625 3.29375,-4.18625 0.60125,-1.985 1.07625,-3.7625 0.9225,-5.7425 -0.305,-3.92625 -4.55125,-11.30875 0.56625,-13.14125 0.94375,-0.33875 2.1725,-0.11875 3.23125,0.1125 1.42625,0.31125 1.66875,0.17 2.42,-1.4099994 0.61875,-1.29875 1.33375,-2.49375 1.7275,-3.89125 1.47625,-5.24750004 -0.78375,-6.72875 -5.32,-4.57875004 -5.20375,2.46500004 -7.54125,13.02874944 -6.43,20.11124944 0.34125,2.92 0.71375,5.54875 0.71375,5.54875 0,0 -0.31125,-0.004 -0.68125,-0.0412 -1.4575,-0.1425 -3.96,-2.07625 -4.10125,-4.76875 z M 0,79.781569 l 1.89375,3.2725 c 0.43375,0.74875 0.88,1.51625 1.33125,2.25 8.71375,14.15 33.27125,18.898751 47.45125,19.052501 9.5,0.1025 19.26875,-0.845 28.25875,-3.20125 7.84125,-2.056251 15.5075,-4.761251 18.05375,-6.871251 1.17125,-0.9725 2.04375,-2.08 3.17375,-3.8925 2.7725,-4.445 7.09625,-13.1275 7.09625,-13.1275 0,0 4.35875,0.23 7.7175,0.4075 3.985,0.21 6.36875,0.9275 10.7275,-3.31625 0.30625,-0.29875 0.635,-0.61625 0.9825,-0.96375 1.53625,-1.5325 3.75875,-6.805 3.98125,-9.445 0.20125,-2.38875 -5.3675,-22.87125 -6.23875,-22.94875 -1.5575,-0.1375 -5.89875,6.34375 -5.3,11.32625 0.385,3.1975 2.83375,6.00625 3.33375,11.6225 0.13375,1.5025 0.12875,3.205 0.12875,3.205 l -10.835,-0.48625 c -0.51875,-0.0237 -0.585,-0.0412 -0.66125,-0.17875 -0.35375,-0.6275 -1.2275,-0.6475 -1.77625,-0.815 -1.36625,-0.41625 -4.04625,-4.07 -4.965,-6.36375 -0.35375,-0.88125 -0.5725,-1.60125 -1.06875,-2.74625 -0.875,-2.01625 -2.61125,-5.35625 -2.61125,-5.35625 0,0 -2.29,3.8225 -3.59625,6.5875 -0.84125,1.78125 -0.91875,8.5225 -0.1275,11.06875 1.67625,5.3975 4.6725,14.6425 4.6725,14.6425 0,0 -2.625,1.45375 -4.78625,2.57375 -18.7325,9.7125 -57.64375,11.07875 -78.99,2.5275 C 14.055,87.086569 8.47875,84.520319 4.54,82.319069 L 0,79.781569 z m 140.6625,9.6 c -0.76,0.36625 -1.4925,0.69375 -2.16375,0.955 -6.675,2.6 -11.55875,-1.3825 -13.895,-8.36875 -0.12625,-0.3775 -0.23875,-0.735 -0.33875,-1.0725 l -2.54125,-8.66125 -0.305,8.8475 -0.20875,6.03 c -0.0175,0.51875 -10e-4,0.63125 0.15875,1.125 2.00125,6.16125 3.5225,10.67875 9.18125,12.612501 2.55375,0.87375 6.18,0.3975 9.52,-0.77125 11.10876,-3.888751 16.70626,-10.332501 23.97626,-17.842501 0.6075,-0.62875 1.16875,-1.25625 1.63125,-1.855 4.1775,-5.395 2.8525,-12.2375 -0.35375,-18.03 -0.77875,-1.4075 -1.40875,-2.54625 -2.98,-3.5525 -4.28125,-2.74125 -15.16501,-5.395 -14.61501,-6.66625 0.06,-0.13875 0.17,-0.27875 0.12875,-0.46125 -0.0312,-0.13625 -0.14375,-0.295 -0.1625,-0.43625 -0.0412,-0.30875 0.3725,-0.5275 0.595,-0.81 0.5775,-0.7325 -0.14375,-1.89 -0.97625,-3.23 -2.025,-3.26 -8.065,-13.45875 -10.61,-12.755 -2.47375,0.68375 -4.90625,5.595 -5.12875,6.88 -0.22125,1.28375 -0.1425,2.72125 0.56125,3.8275 0.6325,0.9925 1.77,1.7175 2.485,2.84625 0.59625,0.94 0.89875,2.1625 1.32875,3.33 2.335,6.3475 9.10625,11.91 16.27376,13.57875 0.9075,0.2125 1.70625,0.28375 2.77625,0.74625 3.19625,1.38125 8.81125,6.25125 8.81125,6.25125 0,0 -2.64125,2.6275 -4.685,4.66375 -7.86375,7.825 -17.89501,12.54375 -18.46376,12.81875 z m -57.37,-17.475 c 0.23,3.17875 1.71375,5.155 4.41125,5.725 3.47875,0.73625 5.4475,-1.15 6.33875,-4.9675 0.19625,-0.8375 0.1525,-1.53625 -0.3875,-1.8725 -1.025,-0.64 -3.84,0.025 -5.20125,-0.69875 -1.69375,-0.89875 -2.12375,-4.7225 -1.705,-6.51 0.41875,-1.78875 1.4875,-3.705 1.77875,-5.08375 0.0587,-0.28 0.0863,-0.5375 -0.035,-0.68 -0.0163,-0.0188 -0.0312,-0.035 -0.0462,-0.0512 -4.09625,-0.93375 -5.09125,14.9975 -5.15375,14.13875 z"
     style="fill:#000000;stroke:none" />
</svg>
