<?xml version="1.0" encoding="UTF-8" standalone="no"?>
<svg>
  <path
     d="m 120.56937,91.055356 c 0.235,2.89 1.7525,4.6875 4.51,5.20625 3.55875,0.66875 5.57125,-1.0475 6.4825,-4.51875 0.2,-0.76125 0.15625,-1.39625 -0.39625,-1.7025 -1.0475,-0.5825 -3.92625,0.0225 -5.31875,-0.635 -1.73125,-0.8175 -2.17125,-4.295 -1.74375,-5.92 0.42875,-1.62625 1.5225,-3.37 1.82,-4.62375 0.06,-0.25375 0.0875,-0.4875 -0.0375,-0.6175 -0.015,-0.0162 -0.0312,-0.0325 -0.0462,-0.0462 -4.18875,-0.85 -5.20625,13.6375 -5.27,12.8575 z m -54.318746,-51.0875 -0.785,4.425 c 7.69125,-0.095 15.84,-2.605 19.96,-6.2025 1.14,-0.99375 1.985,-2.06625 2.3975,-3.18 1.3925,-3.755 0.985,-6.0675 -3.04625,-5.83125 -2.94625,0.1725 -4.8675,0.74375 -3.465,-1.555 0.45625,-0.74875 1.15375,-1.41125 1.765,-2.61625 0.9725,-1.92 1.725,-5.215 1.725,-5.215 0,0 -1.615,-0.12 -2.605,0 -2.62625,0.32125 -8.40125,6.28375 -9.08875,7.8225 -1.36875,3.0625 -1.87125,6.41625 0.88,7.03875 1.62125,0.36625 5.5475,0.32375 4.69125,1.61625 -0.11625,0.175 -0.33375,0.3225 -0.58625,0.47 -0.0538,0.0312 -0.12,0.0638 -0.19625,0.0975 -3.92375,1.755 -7.955,2.66875 -11.64625,3.13 z m 37.732496,4.69125 6.52625,5.80375 8.5975,-7.645 -8.5975,-7.64625 -6.52625,5.80375 -6.526246,-5.80375 -8.5975,7.64625 8.5975,7.645 6.526246,-5.80375 z m 0,-23.57 -8.597496,7.645 8.597496,7.64625 8.5975,-7.64625 -8.5975,-7.645 z m -60.802496,41.87625 c 3.05,-1.61625 7.575,-1.21375 9.14875,3.585 1.105,3.37375 -0.74875,2.3425 -2.34125,1.25875 -2.6425,-1.79875 -2.54125,-0.5225 -5.48875,-1.265 -1.52,-0.3825 -2.5575,-1.15 -2.5575,-2.035 0,-0.59375 0.47,-1.13625 1.23875,-1.54375 z m 27.7225,-26.6025 c -0.32125,-1.27 -0.58875,-2.33875 -0.79375,-3.1525 -2.39375,-3.315 -5.17125,-7.30125 -5.62125,-9.84125 -0.0975,-0.5575 -0.17625,-1.155 -0.17625,-1.155 0,0 0.5475,-0.13625 1.45,-0.37 4.23375,-1.10125 22.015,-7.13 26.27125,-7.2475 1.4575,-0.0412 2.86,-0.0437 3.99375,-0.0325 2.6325,0.0238 4.273746,1.905 0.71625,4.74625 -0.18875,0.15 -0.38125,0.2925 -0.5725,0.4275 -2.98625,2.1 -4.75,3.10125 -5.03625,6 -0.16125,1.6325 -0.0725,2.28625 1.6075,1.4775 1.495,-0.71875 3.0525,-2.445 4.5875,-3.68 2.62125,-2.1075 12.784996,-14.3775 10.543746,-19.7575 -2.5225,-6.0525 -21.376246,-3.24999997 -25.847496,-2.2875 -0.755,0.1625 -1.51125,0.34625 -2.27125,0.55375 -11.14625,3.05125 -19.125,8.535 -22.12875,22.36625 -0.71875,3.3075 -0.915,6.605 -0.46375,8.23 0.72125,2.59125 2.57,4.76125 4.0925,7.46125 1.5975,2.8325 5.31125,12.8175 5.24875,18.09875 -0.0225,1.895 -0.33625,4.865 -0.33625,4.865 l -2.3175,0.0962 c -1.0425,0.0438 -1.255,-0.15375 -2.12625,-1.96625 -0.7775,-1.61875 -2.305,-4.5525 -3.87125,-7.23375 -5.15625,-8.825 -13.2,1.93875 -17.3225,8.7225 -1.76625,2.90625 -3.01125,5.29 -3.80625,7.45 -0.70875,1.925 -1.11125,3.8 -0.825,5.15 0.3975,1.86625 1.695,3.14125 3.6675,3.84 1.10625,0.3925 1.425,0.44 3.1825,0.4725 0,0 7.56125,0.1425 9.07,0.17125 3.3625,0.0625 1.7075,3.09375 -0.19625,4.485 -1.11125,0.81125 -2.21875,1.79875 -3.3475,2.85 -10.10375,9.41375 -27.085,17.281244 -39.4487502,21.111244 -0.45375,0.14 -0.8975,0.2725 -1.3275,0.39625 -13.287498,3.80625 -5.8775,3.4625 -0.83625,3.00375 23.1837502,-3.75625 17.7500002,6.5425 36.9900002,-10.93625 0.60375,-0.54875 1.255,-1.138744 1.965,-1.771244 2.14375,-1.90875 9.23375,-8.7025 11.35625,-11.6475 2.58625,-3.5875 4.57375,-8.9575 7.24375,-12.6425 1.05375,-1.45375 2.2125,-2.645 3.26125,-3.96875 3.335,-4.2075 0.9125,17.59875 19.31,19.75625 2.38375,0.28 5.03375,0.37125 7.9775,0.22375 5.12875,-0.925 9.493746,-2.36125 11.793746,-3.26 0.5025,-0.1975 1.00875,-0.40125 1.5175,-0.615 4.45125,-1.86375 8.1575,-4.3425 11.51375,-8.37 1.2425,-1.49 7.63375,-10.415 5.64875,-11.68 -0.95125,-0.60625 -5.55625,3.02375 -7.68625,4.2875 -4.56125,2.7075 -7.70125,2.9625 -11.065,0.43 -4.105,-3.09125 -8.161246,-7.705 -7.167496,-9.5725 1.312496,-2.46625 7.783746,-5.70875 9.826246,-5.39875 1.93875,0.295 3.23,1.03125 4.42875,1.28875 3.1,0.66625 5.53625,2.74375 3.97875,-1.51 -1.59125,-4.34875 -9.01125,-8.93125 -13.4875,-7.31 -1.6575,0.60125 -3.25125,1.97 -4.992496,4.29625 -0.2575,0.34375 -3.99125,6.26375 -6.5425,11.23375 -1.61125,3.14125 -4.095,7.72375 -1.1775,11.22375 0.80125,0.96125 1.80375,1.36625 1.72125,1.475 -1.13375,0.31 -2.21625,0.56125 -3.25,0.7575 -3.86125,0.73625 -8.13,-7.44 -11.1125,-14.8425 -2.625,-6.51875 -6.54875,-21.705 -7.81,-26.69875 z m 56.771246,33.47875 c 0.38,7.415 0.48125,9.385 0.48125,9.385 0,0 2.095,-2.24 3.35125,-4.2775 0.165,-0.26875 0.31625,-0.5325 0.45375,-0.795 3.06125,-5.8125 1.88,-11.52 1.645,-17.63625 -0.30125,-7.83875 -0.60625,-17.58375 -0.5225,-16.5275 -0.28125,-3.575 -0.75,-9.535 -0.75,-9.535 l -0.32125,-7.29625 c 0.33625,0.19625 0.6575,0.37375 0.9575,0.5325 l 5.20125,2.745 -0.9925,-2.9175 c -0.1125,-0.33125 -0.2325,-0.68125 -0.3525,-1.035 -1.4425,-4.2375 -2.24375,-8.42875 -3.20375,-12.77375 -0.92,-4.15875 -2.145,-9.69999997 -2.145,-9.69999997 0,0 -0.86875,-0.05 -1.66875,0.0725 -2.1975,0.335 -6.89125,7.79999997 -7.195,9.49624997 -0.0288,0.16125 -0.0462,0.32125 -0.0525,0.48 -0.0138,0.35125 0.0113,0.72 0.0675,1.10125 0.40125,2.7325 1.6925,5.06625 3.30625,6.985 0,0 0.465,8.74875 0.5525,10.38625 l 1.1875,41.31 z"
     style="fill:#000000;stroke:none" />
</svg>
