<?xml version="1.0" encoding="UTF-8" standalone="no"?>
<svg>
  <path
     style="fill:#000000;stroke:none"
     d="m 31.06499,58.286828 0.16875,-1.25375 c 0.1875,-1.39999 0.165,-3.01374 -0.09,-4.23874 -0.002,-0.015 -0.006,-0.03 -0.009,-0.045 l 0.0238,-0.80625 c 0,0 0.29,-0.0312 0.6725,-0.025 1.2125,0.0213 2.7875,1.26 3.66,2.1825 1.36625,1.4425 2.17375,3.79624 -0.4025,3.94874 -0.9275,0.055 -2.08125,0.1225 -2.88875,0.17 l -1.135,0.0675 z m -2.32375,-2.80249 c 0.68125,4.46874 -2.96125,1.55999 -3.18125,1.41124 -0.49,-0.33249 -0.8055,-0.60124 -0.8075,-0.61874 -0.13625,-0.74625 0.0725,-2.41625 0.0725,-2.41625 0,0 2.23625,0.09 3.0175,0.1225 0.5425,0.0213 0.79125,0.79875 0.89875,1.50125 z m -6.01249,24.62749 c 0.70374,-1.045 1.53499,-2.3375 2.57249,-3.975 1.855,-2.92625 2.98125,-5.53125 3.53625,-7.1475 l 1.03,-3.0025 2.635,-0.715 c 2.19625,-0.59625 4.755,-0.73 6.16375,-2.16125 0.19875,-0.2025 3.115,-7.02499 2.49625,-9.89499 -0.38,-1.7575 -2.935,-5.435 -3.78,-6.19875 -2.84375,-2.57 -8.9925,-5.46 -8.9925,-5.46 0,0 -0.89125,1.4825 -1.91,3.51125 -6.45874,12.86999 -4.47499,15.67249 -1.255,18.53749 1.235,1.14875 1.9525,2.57125 1.70875,3.52375 -0.0625,0.24625 -0.18875,0.55125 -0.3625,0.89375 C 14.62125,87.306818 3.075,92.486818 7.97,91.324318 c 6.0575,-1.43875 13.755,-9.7225 14.75875,-11.21249 z m 55.93122,-63.42748 c -0.855,6.0875 -3.8175,15.28375 1.045,18.07749 3.50375,2.0125 6.02,0.26375 6.7825,-4.10624 0.2775,-1.58875 0.12125,-2.645 -0.93375,-3.2925 -1.7625,-1.0825 -5.68625,-0.7925 -6.63625,-1.99125 -0.34875,-0.44125 -0.33125,-1.0825 -0.20625,-1.8725 0.98125,-6.22875 2.29,-7.045 1.7275,-11.86625 -0.26875,-2.30125 -2.14625,-12.87999 -4.78125,-11.17124 -1.39125,0.9025 -2.015,4.1625 -1.38875,5.29 0.36375,0.655 1.20875,1.345 1.77625,2.0875 1.1275,1.47374 2.92625,6.62749 2.615,8.84499 z M 0,98.621818 c 0.17875,2.853752 1.3325,4.628752 3.43125,5.141252 2.7075,0.66 4.23875,-1.03375 4.9325,-4.461252 0.1525,-0.7525 0.1175,-1.37875 -0.30125,-1.68125 -0.7975,-0.575 -2.98875,0.0213 -4.0475,-0.6275 -1.3175,-0.8075 -1.6525,-4.24125 -1.32625,-5.84625 0.32625,-1.60625 1.1575,-3.32625 1.38375,-4.565 0.0463,-0.25 0.0675,-0.48125 -0.0275,-0.61 -0.0112,-0.0163 -0.0237,-0.0312 -0.0362,-0.0462 -3.18625,-0.83875 -3.96,13.46625 -4.00875,12.69625 z m 73.93872,-49.90373 -5.38749,6.17625 c -0.895,1.02625 -1.0225,1.21 -1.2725,1.8425 -0.35125,0.88499 -0.4725,2.36499 -0.3,2.56624 0.5575,0.65 2.53,-0.9275 3.2175,-1.5125 6.01249,-5.11749 8.75249,-8.34124 9.72374,-14.96874 0.495,-3.37 -1.05125,-4.6725 -3.785,-5.1025 -4.33875,-0.6825 -8.64499,0.015 -10.32999,3.785 0.26375,14.39375 0.63375,6.1625 4.3125,5.14125 4.09374,-1.13625 8.49374,-3.66125 3.82124,2.0725 z m 39.89874,52.112482 c -0.40125,2.8925 0.0863,3.6025 1.7525,2.715 1.13375,-0.605 15.76749,-10.428752 17.90499,-13.371252 0.86,-1.185 1.71875,-3.28125 2.0225,-5.16625 0.18625,-1.16125 -0.11625,-1.12 -1.2,-0.655 -2.51125,1.0775 -19.06624,12.70875 -19.58499,13.76 -0.485,0.9825 -0.79625,2.000002 -0.895,2.717502 z m 23.22749,-73.791222 c 0.17875,2.85375 1.3325,4.6275 3.43125,5.14 2.7075,0.66124 4.23749,-1.03375 4.93124,-4.46125 0.1525,-0.75125 0.11875,-1.37875 -0.30125,-1.68125 -0.7975,-0.575 -2.98749,0.0225 -4.04624,-0.62625 -1.3175,-0.8075 -1.6525,-4.24125 -1.32625,-5.84625 0.32625,-1.60625 1.1575,-3.3275 1.38375,-4.565 0.0463,-0.25125 0.0663,-0.4825 -0.0275,-0.61125 -0.0125,-0.0163 -0.0238,-0.0312 -0.0362,-0.045 -3.18625,-0.83875 -3.96125,13.46625 -4.00875,12.69625 z m -92.39121,71.58247 c 0.17875,2.853752 1.3325,4.628752 3.43124,5.141252 2.7075,0.66 4.23875,-1.03375 4.9325,-4.461252 0.1525,-0.7525 0.1175,-1.37875 -0.30125,-1.68125 -0.7975,-0.575 -2.98875,0.0213 -4.0475,-0.6275 -1.3175,-0.8075 -1.65124,-4.24125 -1.32625,-5.84625 0.32625,-1.60625 1.1575,-3.32625 1.385,-4.565 0.045,-0.25 0.0662,-0.48125 -0.0288,-0.61 -0.0113,-0.0163 -0.0238,-0.0312 -0.035,-0.0462 -3.18749,-0.83875 -3.96124,13.46625 -4.00999,12.69625 z m 47.48873,0.0937 4.49499,5.187502 6.47,-7.466252 -6.47,-7.4675 -4.49499,5.18875 -4.49625,-5.18875 -6.46875,7.4675 6.46875,7.466252 4.49625,-5.187502 z m 23.79999,-30.84124 c -1.8575,0.5575 -3.29375,0.97625 -5.6625,1.1425 -3.13375,0.22 -7.90375,0 -7.90375,0 0,0 -0.0563,-1.92375 0.18375,-3.12375 0.49125,-2.4525 4.04125,-5.5275 5.7025,-5.87875 2.45375,-0.5175 8.4925,2.0925 9.19375,5.88125 0.059,0.32 0.0838,0.67875 0.05,1.0175 -0.045,0.45625 -0.20125,0.5525 -1.56375,0.96125 z m 24.91124,-17.22124 0,0.96 c -1.40401,-0.229132 -2.39232,-0.752567 -3.89375,-0.95375 -1.7875,-0.28125 -4.78875,-0.81125 -4.945,-3.2475 -0.0175,-0.2775 0,-0.6 0,-0.6 l 1.04,-0.6 1.97,0 c 0.885,0 1.04375,0.0225 1.5875,0.22375 0.815,0.3025 2.80125,1.9625 3.30375,2.58125 0.8438,1.04 0.9375,1.20375 0.9375,1.63625 z M 29.51999,103.76802 c 0.7775,0.15625 1.60125,0.18 2.47375,0.055 4.08375,-0.585 5.70375,-3.365 7.7475,-7.801252 1.22,-2.65 2.8475,-9.00625 3.38,-13.2025 0.7825,-6.17749 0.55625,-11.38499 5.02249,-13.80249 1.38375,-0.75 1.82125,0.22125 2.3375,2.47375 3.1325,13.65249 2.0025,16.14499 10.83875,24.83124 1.2,1.18 2.25,2.1075 4.67875,3.00125 2.64875,0.972502 6.93624,1.905002 6.93624,1.905002 l 1.1425,-8.432502 c 0.2175,-1.60125 0.20875,-1.80625 -0.0825,-2.05625 -0.215,-0.185 -0.45625,-0.31125 -0.71625,-0.41875 -1.54125,-0.63625 -3.76874,-0.62625 -5.19999,-1.2 -2.46875,-0.99 -4.975,-5.27125 -5.71875,-7.69375 -0.38375,-1.24749 -0.5025,-2.39249 0,-3.61249 0.55,-1.3375 4.56125,-5.6675 5.9275,-5.19625 1.02875,0.35375 2.19125,3.0475 3.47624,4.42875 2.35625,2.53375 7.895,2.985 10.355,1.27125 1.9425,-1.35375 4.03,-4.8675 5.51125,-5.1 1.21,-0.19 5.92875,2.96 6.4475,4.56 0.58,1.79375 -2.90625,7.18624 -3.64,9.43374 -0.52,1.59375 -0.52,3.48 0,4.00875 0.82625,0.8425 1.7775,0.3575 2.3625,-0.9625 0.21375,-0.48375 0.3,-0.7025 0.85625,-2.19 l 3.54124,-9.44999 c 0,0 5.52375,0.09 9.15125,0 2.74625,-0.0675 4.40375,-0.23875 6.4475,-0.9 2.57625,-0.83375 8.30817,-2.918182 8.30817,-2.918182 0,0 3.54057,2.655682 5.21057,3.518182 5.285,2.72874 16.3825,-0.63125 20.27874,-4.2 2.795,-2.56 2.1125,-3.3275 3.38,-6.90125 1.59875,-4.51375 2.87625,-4.25625 2.34,-8.41375 -0.71125,-5.50499 -5.84,-16.78499 -9.35999,-20.09249 -4.245,-3.98875 -9.9,-4.01875 -12.73875,1.5 -2.42375,4.71125 -3.78,12.3925 -1.56,16.80374 1.78875,3.555 7.4225,5.41875 11.17875,4.80125 4.32499,-0.71125 6.27749,-3.27375 7.27999,1.68 0.43,2.1225 -0.94375,3.04625 -3.12,4.02125 -5.96374,2.67125 -9.88124,2.7575 -15.07874,1.2 -1.61625,-0.485 -3.1825,-1.16625 -3.78875,-2.18625 -0.9275,-1.5625 -0.59,-4.31125 -1.41125,-6.51625 -1.3625,-3.65999 -7.72874,-9.49124 -10.56499,-10.20124 -2.55375,-0.64 -6.13625,0.85 -8.15375,3.6 -1.175,1.60375 -2.6,4.20124 -2.6,4.20124 0,0 -0.65125,-8.23874 -1.55875,-16.50374 -1.29875,-11.82499 -3.12,-23.70374 -3.12,-23.70374 0,0 2.67875,0.005 3.63875,-0.6 0.52,-0.3275 0.44625,-1.33875 0,-2.40125 -0.76875,-1.83125 -1.93125,-4.265 -2.33875,-6.60124 -0.24625,-1.41 -0.2175,-2.78375 -0.52,-4.2 -0.575,-2.6825 -1.30375,-3.985 -3.0375,-3.00125 -1.21374,0.68875 -2.42999,2.42625 -3.47999,3.83 -0.92,1.23 -1.0025,1.54625 -0.82,3.1525 l 6.55749,57.82997 0.10989,0.94625 c -0.0962,0.47 -1.65114,0.42 -2.29364,0.255 -1.20749,-0.3125 -2.19499,-1.03375 -3.01624,-2.10125 -2.85125,-3.70625 -2.87,-4.805 -5.1525,-0.4675 -2.30375,4.37625 -7.39,7.195 -10.96625,4.66875 -2.3475,-1.65875 -4.5225,-6.60125 -6.03124,-6.90125 -2.50375,-0.49875 -8.99625,6.97 -9.3075,7.80125 -0.94875,2.53 -1.4225,9.8925 -3.58875,9.00125 -0.60625,-0.24875 -1.18125,-1.27625 -1.61125,-2.4 -1.57375,-4.1175 -1.3,-9.765 -3.12,-13.8025 -0.32875,-0.73125 -0.8,-1.4875 -1.265,-2.24625 -2.53125,-4.13249 -8.67499,0.6325 -9.80624,4.01625 -0.1325,0.395 -0.25125,0.80625 -0.3675,1.23 -1.9875,7.2575 -2.65875,21.99749 -8.06,26.70624 -2.7025,2.355 -4.7975,2.0775 -7.27875,-0.90125 -0.0188,-0.0213 -0.0375,-0.0438 -0.0563,-0.0663 -3.39749,-4.13375 -5.44374,-16.28874 -5.68999,-19.91249 -0.23875,-3.5025 -0.80625,-11.8275 -0.80625,-11.8275 0,0 -0.5925,-0.0462 -0.935,0 -0.505,0.0687 -0.92625,1.25125 -1.0275,2.595 -0.07,0.92875 -0.0737,1.21125 -0.0325,2.83125 0.0288,1.15375 0.065,2.505 0.10125,3.93 0.1375,5.43625 0.56375,10.07875 1.14875,14.00874 1.65375,11.11 4.51499,19.712502 10.85499,20.988752 z m 92.84871,-92.509972 0,-7.80124 c 0,0 -1.005,-0.0825 -1.66375,0 -0.77875,0.0975 -1.075,0.42625 -1.45624,0.9 -2.5325,3.14625 -4.47125,6.21249 -5.89625,5.10124 -0.68125,-0.53125 -1.21125,-1.91124 -2.13375,-2.75874 -0.8025,-0.7375 -3.96375,-1.255 -5.145,-0.8425 -1.74875,0.61125 -2.90875,3.29374 -1.69625,7.31374 0.17125,0.56875 0.39625,1.10375 0.70875,1.57875 0.42,0.63875 0.6225,0.71 2.0275,0.71 l 3.9925,0 c 0,0 2.59125,3.66 2.84875,5.20375 0.0625,0.38 -0.015,0.6325 -0.145,0.89875 -1.05,2.16125 -5.46,5.2675 -7.3,8.3 -2.075,3.42124 -1.7,11.21374 1.2175,15.43374 1.7525,2.53375 3.2575,1.61125 4.2425,-1.42625 0.52,-1.605 0.52,-5.25375 0,-5.60625 -0.41125,-0.27875 -3.0675,0.42125 -3.64,-2.16 -0.0525,-0.2375 -0.06,-0.48 -0.0362,-0.72 0.0325,-0.32375 0.1425,-0.4925 1.09375,-1.69 3.03875,-3.81874 16.89249,-15.59249 19.59249,-16.82874 0.51625,-0.235 1.0175,-0.41625 1.18875,-0.205 0.52125,0.6425 -2.01875,5.28625 -2.34,6.00125 -0.26375,0.58625 -0.49875,1.17 -0.61125,1.8075 -0.1525,0.8575 -0.16875,1.08125 -0.16875,2.2325 l 0,2.56125 0.8325,0 c 0.37375,0 0.4825,-0.1625 1.08625,-1.62625 1.6725,-4.06125 5.6175,-14.97125 8.48,-16.6775 1.64625,-0.98125 4.37625,-0.98875 5.72,-2.39999 0.56624,-0.595 0.88624,-1.43875 1.15624,-2.26125 0.36375,-1.10875 0.40375,-1.385 0.40375,-2.76625 l 0,-3.07375 c 0,0 -2.14124,-0.40625 -3.47374,0 -1.5275,0.46375 -1.9875,1.995 -3.02625,3 -0.37625,0.365 -0.83,0.66125 -1.3,0.9 -1.515,0.7725 -3.20375,0.95625 -4.67875,1.8 -2.06,1.18 -3.7025,3.64874 -5.49375,5.32249 -1.24,1.16 -2.55125,1.93875 -4.38625,3.38 -2.595,2.0375 -6.23999,5.40125 -6.23999,5.40125 0,0 0.5875,-3.47625 1.33,-5.47125 0.69625,-1.87 1.7075,-2.95625 3.29999,-3.2825 0.65,-0.13375 1.61,-0.24875 1.61,-0.24875 z" />
</svg>
