<?xml version="1.0"?>
<svg xmlns="http://www.w3.org/2000/svg" version="1.1">
  <path
     d="M 52.13,20.647408 51.547,9.5234083 c -0.087,-1.65 -0.121,-1.938 -0.341,-2.872 -0.674,-2.866 -2.489,-4.435 -4.386,-5.449 -2.412,-1.28799996 -4.253,-1.76699996 -6.739,0.047 -2.044,1.492 -2.237,6.892 -1.433,7.736 0.599,0.63 2.188,0.573 4.111,0.122 4.803,-1.128 5.284,-0.868 6.535,4.2109997 0.594,2.414 0.664,4.675 0.372,7.102 -0.621,5.155 -2.08,7.663 0.779,10.689 1.19,1.259 2.433,1.45 5.148,0.891 1.928,-0.397 2.311,-1.294 3.12,-3.964 0.569,-1.881 1.019,-3.564 0.873,-5.439 -0.289,-3.719 -4.31,-10.71 0.536,-12.446 0.895,-0.3209997 2.058,-0.112 3.06,0.107 1.352,0.294 1.581,0.161 2.293,-1.3349997 0.586,-1.23 1.263,-2.362 1.636,-3.686 1.398,-4.96999996 -0.743,-6.372 -5.039,-4.33699996 C 57.144,3.2364083 54.93,13.240408 55.983,19.948408 c 0.322,2.764 0.676,5.254 0.676,5.254 0,0 -0.295,-0.003 -0.646,-0.038 -1.38,-0.136 -3.75,-1.967 -3.883,-4.517 z m 17.715,18.541 -5.4,5.364 c -0.898,0.891 -1.025,1.051 -1.276,1.6 -0.352,0.769 -0.473,2.055 -0.301,2.229 0.56,0.565 2.537,-0.805 3.225,-1.313 6.028,-4.445 8.774,-7.245 9.748,-13.001 0.496,-2.926 -1.054,-4.058 -3.795,-4.432 -4.349,-0.592 -8.664,0.014 -10.354,3.288 0.264,12.501 0.635,5.353 4.323,4.465 4.103,-0.987 8.514,-3.18 3.83,1.8 z m 28.664,48.144 c -0.402,2.511 0.087,3.127 1.756,2.357 1.137,-0.525 15.805,-9.058 17.948,-11.613 0.863,-1.029 1.723,-2.849 2.027,-4.487 0.187,-1.008 -0.116,-0.973 -1.202,-0.569 -2.517,0.936 -19.112,11.038 -19.633,11.951 -0.485,0.853 -0.797,1.737 -0.896,2.361 z m 23.282,-64.089 c 0.18,2.479 1.336,4.02 3.44,4.465 2.713,0.574 4.248,-0.898 4.944,-3.875 0.152,-0.653 0.118,-1.197 -0.303,-1.46 -0.799,-0.499 -2.995,0.019 -4.056,-0.545 -1.32,-0.701 -1.656,-3.683 -1.33,-5.077 0.327,-1.395 1.161,-2.889 1.388,-3.964 0.046,-0.218 0.067,-0.419 -0.028,-0.531 -0.012,-0.014 -0.024,-0.027 -0.036,-0.04 -3.194,-0.728 -3.97,11.696 -4.019,11.027 z m -92.61,62.17 c 0.18,2.478 1.336,4.02 3.44,4.464 2.713,0.574 4.248,-0.897 4.943,-3.874 0.153,-0.653 0.119,-1.197 -0.302,-1.46 -0.799,-0.5 -2.995,0.019 -4.056,-0.545 -1.321,-0.701 -1.657,-3.683 -1.33,-5.077 0.327,-1.395 1.16,-2.89 1.387,-3.965 0.046,-0.218 0.068,-0.418 -0.027,-0.53 -0.012,-0.014 -0.024,-0.027 -0.036,-0.04 -3.194,-0.728 -3.971,11.696 -4.019,11.027 z m 25.21,-36.618 6.485,-6.485 -6.485,-6.485 -6.485,6.485 6.485,6.485 z m 22.391,36.699 4.506,4.506 6.485,-6.485 -6.485,-6.485 -4.506,4.506 -4.506,-4.506 -6.485,6.485 6.485,6.485 4.506,-4.506 z m 23.857,-26.785 c -1.862,0.484 -3.301,0.847 -5.676,0.992 -3.142,0.191 -7.922,0 -7.922,0 0,0 -0.057,-1.671 0.184,-2.713 0.492,-2.131 4.05,-4.8 5.716,-5.105 2.459,-0.451 8.512,1.816 9.215,5.107 0.059,0.278 0.084,0.589 0.05,0.884 -0.045,0.396 -0.202,0.48 -1.567,0.835 z m -86.566,-9.432 -4.691,-0.522 0,-1.563 c 0,0 0.778,0.138 1.042,0 0.135,-0.071 0.136,-0.213 0.203,-0.319 0.536,-0.854 2.042,0.361 2.403,0.579 0.422,0.255 0.927,0.418 1.043,0.991 0.069,0.343 0,0.834 0,0.834 z m 6.775,-0.522 -1.042,0 0,0.522 -2.085,0 0,-3.127 c 0,0 1.038,-0.057 1.741,0 0.813,0.065 1.33,0.571 1.386,1.355 0.038,0.527 0,1.25 0,1.25 z m 104.762,-5.003 0,0.834 -1.042,0 0,-0.521 c 0,0 -1.559,-0.13 -2.862,-0.308 -1.791,-0.243 -4.8,-0.704 -4.956,-2.82 -0.018,-0.241 0,-0.521 0,-0.521 l 1.042,0 0,-0.521 1.975,0 c 0.887,0 1.046,0.02 1.591,0.195 0.818,0.262 2.809,1.703 3.312,2.241 0.846,0.904 0.94,1.046 0.94,1.421 z M 75.777,6.3484083 82.35,56.574408 c 0,0 -0.336,-0.05 -0.521,0 -0.285,0.076 -0.158,0.554 -0.221,0.821 -0.097,0.408 -0.803,0.365 -1.447,0.221 -1.209,-0.271 -2.2,-0.897 -3.023,-1.824 -2.858,-3.22 -2.877,-4.174 -5.165,-0.406 -2.308,3.801 -7.407,6.248 -10.992,4.054 -2.353,-1.44 -4.533,-5.732 -6.046,-5.994 -2.51,-0.433 -9.017,6.054 -9.33,6.776 -0.95,2.198 -1.425,8.592 -3.596,7.818 -0.608,-0.217 -1.185,-1.109 -1.616,-2.085 -1.578,-3.575 -1.303,-8.481 -3.127,-11.987 -0.904,-1.739 -2.873,-3.64 -2.866,-5.317 0.006,-1.772 1.386,-5.629 1.386,-5.629 l 2.906,0 c 1.306,0 1.565,-0.022 2.587,-0.222 2.747,-0.536 3.097,-1.376 3.545,-5.094 0.321,-2.675 -0.659,-4.513 -4.17,-5.108 -1.238,-0.21 -3.869,0.316 -4.691,1.564 -0.369,0.56 -0.448,1.436 -0.779,2.085 -0.642,1.26 -2.23,1.669 -3.13,2.606 -0.639,0.665 -1.078,3.297 -0.782,4.69 0.355,1.67 1.939,4.857 1.564,5.911 -0.484,1.363 -3.352,2.12 -4.951,3.471 -1.137,0.96 -1.634,2.22 -2.085,3.649 -1.993,6.302 -2.665,19.104 -8.079,23.193 -2.708,2.046 -4.81,1.805 -7.297,-0.782 -1.894,-1.97 -4.069,-5.616 -4.069,-5.616 0,0 6.289,-9.305 7.457,-13.147 0.548,-1.802 0.733,-3.438 1.564,-4.17 1.14,-1.004 3.545,-0.858 5.472,-1.563 2.448,-0.895 3.7,-3.303 4.17,-6.046 0.273,-1.592 -0.14,-4.223 -0.782,-5.421 -1.74,-3.246 -8.491,-6.546 -12.248,-6.254 -0.471,0.036 -3.082,0.529 -4.026,1.254 -0.364,0.278 -0.439,0.462 -0.756,1.835 -1.028,4.464 -3.309,13.006 0.091,14.371 2.968,1.192 5.716,-0.064 4.691,2.867 -0.771,2.204 -3.787,5.15 -5.036,7.755 -0.24,0.5 -0.414,0.987 -1.01,1.105 -0.382,0.076 -0.938,0 -0.938,0 l -1.147,-14.594 c 0,0 -0.594,-0.04 -0.938,0 -0.506,0.06 -0.928,1.087 -1.029,2.254 -0.07,0.806 -0.074,1.052 -0.033,2.459 0.134,4.707 0.46,13.233 -0.065,14.119 -0.442,0.745 -1.163,0.898 -1.5,2.475 -0.255,1.19 -0.292,3.19 -0.292,3.19 l 2.204,0 c 0.991,0 1.152,0.148 1.614,1.479 2.499,7.196 6.231,13.391 12.652,12.594 4.094,-0.509 5.718,-2.924 7.766,-6.776 1.224,-2.302 2.855,-7.822 3.388,-11.467 0.785,-5.365 0.558,-9.888 5.035,-11.987 1.387,-0.651 1.825,0.192 2.343,2.148 3.14,11.858 2.008,14.022 10.864,21.566 1.203,1.025 2.255,1.831 4.691,2.606 2.654,0.846 6.952,1.656 6.952,1.656 l 1.145,-7.324 c 0.218,-1.391 0.21,-1.569 -0.082,-1.786 -0.216,-0.161 -0.457,-0.27 -0.718,-0.364 -1.545,-0.552 -3.778,-0.544 -5.212,-1.042 -2.475,-0.86 -4.987,-4.578 -5.733,-6.682 -0.385,-1.083 -0.504,-2.078 0,-3.137 0.551,-1.162 4.572,-4.922 5.941,-4.514 1.032,0.307 2.197,2.648 3.485,3.847 2.361,2.2 7.914,2.592 10.379,1.104 1.948,-1.175 4.04,-4.228 5.525,-4.43 1.213,-0.165 5.943,2.571 6.463,3.961 0.582,1.558 -2.913,6.241 -3.649,8.194 -0.521,1.383 -0.521,3.021 0,3.481 0.829,0.731 1.782,0.31 2.368,-0.836 0.214,-0.42 0.3,-0.61 0.859,-1.902 l 3.549,-8.207 c 0,0 5.537,0.078 9.173,0 2.753,-0.059 4.415,-0.208 6.463,-0.782 2.583,-0.724 6.656,-2.615 8.755,-2.091 1.471,0.367 3.122,1.863 4.796,2.612 5.298,2.37 16.421,-0.549 20.327,-3.648 2.802,-2.223 2.118,-2.889 3.388,-5.994 1.603,-3.919 2.884,-3.696 2.345,-7.307 -0.713,-4.781 -5.853,-14.578 -9.381,-17.45 -4.256,-3.464 -9.924,-3.491 -12.77,1.303 -2.429,4.092 -3.789,10.762 -1.563,14.594 1.793,3.087 7.44,4.706 11.206,4.169 4.334,-0.617 6.291,-2.843 7.296,1.46 0.431,1.843 -0.946,2.645 -3.127,3.492 -5.978,2.32 -9.904,2.395 -15.115,1.042 -1.62,-0.42 -3.19,-1.012 -3.797,-1.899 -0.93,-1.357 -0.592,-3.744 -1.415,-5.658 -1.366,-3.179 -7.747,-8.244 -10.591,-8.861 -2.559,-0.555 -6.15,0.739 -8.172,3.128 -1.178,1.392 -2.606,3.648 -2.606,3.648 0,0 -0.654,-7.155 -1.564,-14.333 -1.301,-10.271 -3.127,-20.588 -3.127,-20.588 0,0 2.685,0.005 3.649,-0.521 0.521,-0.284 0.447,-1.162 0,-2.085 -0.771,-1.59 -1.937,-3.7039997 -2.346,-5.7329997 -0.246,-1.224 -0.217,-2.418 -0.521,-3.648 -0.576,-2.32999996 -1.306,-3.45999996 -3.044,-2.60599996 -1.217,0.598 -2.437,2.10699996 -3.489,3.32599996 -0.922,1.069 -1.004,1.342 -0.822,2.738 z m 31.284,3.19 0,-6.776 c 0,0 -1.008,-0.072 -1.668,0 -0.78,0.085 -1.077,0.371 -1.459,0.782 -2.54,2.732 -4.483,5.395 -5.911,4.43 -0.683,-0.462 -1.215,-1.66 -2.139,-2.396 -0.805,-0.64 -3.973,-1.09 -5.158,-0.731 -1.752,0.53 -2.915,2.86 -1.7,6.3519997 0.172,0.494 0.398,0.958 0.711,1.37 0.421,0.555 0.624,0.617 2.032,0.617 l 4.003,0 c 0,0 2.596,3.179 2.854,4.519 0.064,0.331 -0.015,0.55 -0.144,0.781 -1.053,1.877 -5.474,4.575 -7.318,7.209 -2.08,2.971 -1.704,9.739 1.221,13.404 1.755,2.201 3.264,1.4 4.252,-1.239 0.521,-1.393 0.521,-4.562 0,-4.868 -0.413,-0.243 -3.075,0.365 -3.649,-1.877 -0.053,-0.206 -0.059,-0.417 -0.035,-0.625 0.032,-0.281 0.141,-0.428 1.095,-1.467 3.046,-3.317 16.933,-13.542 19.64,-14.616 0.516,-0.205 1.019,-0.362 1.191,-0.178 0.522,0.558 -2.023,4.591 -2.346,5.212 -0.265,0.509 -0.499,1.016 -0.612,1.569 -0.153,0.745 -0.17,0.939 -0.17,1.939 l 0,2.225 0.835,0 c 0.375,0 0.484,-0.141 1.088,-1.413 1.678,-3.527 5.632,-13.002 8.502,-14.4839997 1.65,-0.852 4.386,-0.858 5.733,-2.085 0.567,-0.516 0.888,-1.249 1.158,-1.963 0.365,-0.963 0.405,-1.203 0.405,-2.403 l 0,-2.66999996 c 0,0 -2.147,-0.352 -3.481,0 -1.531,0.404 -1.993,1.73299996 -3.034,2.60599996 -0.378,0.317 -0.832,0.574 -1.303,0.782 -1.519,0.671 -3.212,0.83 -4.69,1.564 -2.065,1.024 -3.712,3.168 -5.506,4.622 -1.244,1.0069997 -2.558,1.6839997 -4.397,2.9349997 -2.602,1.77 -6.255,4.691 -6.255,4.691 0,0 0.588,-3.019 1.333,-4.751 0.698,-1.625 1.712,-2.568 3.308,-2.8509997 0.652,-0.116 1.614,-0.216 1.614,-0.216 z"
     style="fill:#000000;stroke:none" />
</svg>
