<?xml version="1.0" encoding="UTF-8" standalone="yes"?>
<svg xmlns="http://www.w3.org/2000/svg" xmlns:xlink="http://www.w3.org/1999/xlink"
  width="595.276pt" height="841.89pt" viewBox="0 0 595.276 841.89"
  fill-rule="evenodd">
  <path
     style="fill:#000000;stroke:none"
     d="m 24.852005,46.408708 0.135,-1.003 c 0.150001,-1.119993 0.132,-2.410994 -0.072,-3.390994 -0.0016,-0.012 -0.0048,-0.024 -0.0072,-0.036 l 0.01904,-0.645 c 0,0 0.232001,-0.02496 0.538001,-0.02 0.97,0.01704 2.230001,1.008 2.928001,1.746001 1.093001,1.154 1.739001,3.036993 -0.322,3.158993 -0.742,0.044 -1.665001,0.098 -2.311001,0.136 l -0.908001,0.054 z m -1.859001,-2.241993 c 0.545001,3.574994 -2.369001,1.247993 -2.545001,1.128993 -0.392,-0.265992 -0.6444,-0.480993 -0.646,-0.494993 -0.109,-0.597 0.058,-1.933001 0.058,-1.933001 0,0 1.789001,0.072 2.414001,0.098 0.434,0.01704 0.633,0.639001 0.719,1.201001 z M 18.18301,63.868718 c 0.562992,-0.836001 1.227992,-1.870001 2.057993,-3.180002 1.484001,-2.341001 2.385001,-4.425002 2.829001,-5.718003 l 0.824001,-2.402001 2.108001,-0.572001 c 1.757001,-0.477 3.804002,-0.584 4.931003,-1.729001 0.159,-0.162 2.492001,-5.619995 1.997001,-7.915996 -0.304,-1.406001 -2.348002,-4.348002 -3.024002,-4.959003 -2.275001,-2.056001 -7.194004,-4.368002 -7.194004,-4.368002 0,0 -0.713,1.186001 -1.528001,2.809002 -5.166994,10.295997 -3.579994,12.537998 -1.004,14.83 0.988,0.919 1.562001,2.057001 1.367001,2.819001 -0.05,0.197 -0.151001,0.441 -0.290001,0.715 C 11.697006,69.624713 2.4600013,73.768715 6.3760034,72.838715 11.222006,71.687714 17.380009,65.06071 18.18301,63.868718 z m 44.745,-50.742012 c -0.684001,4.870003 -3.054002,12.227007 0.836,14.462 2.803002,1.610001 4.816003,0.211 5.426003,-3.284994 0.222,-1.271 0.097,-2.116001 -0.747,-2.634001 -1.410001,-0.866 -4.549003,-0.634 -5.309003,-1.593001 -0.279,-0.353 -0.265,-0.866 -0.165,-1.498001 0.785,-4.983002 1.832001,-5.636003 1.382001,-9.4930047 -0.215001,-1.841001 -1.717001,-10.303997 -3.825002,-8.93699699 -1.113001,0.722001 -1.612001,3.33000199 -1.111001,4.23200299 0.291,0.524 0.967,1.076 1.421001,1.670001 0.902,1.178992 2.341001,5.3019937 2.092001,7.0759947 z M 0,78.676718 c 0.14300008,2.282999 1.0660006,3.702999 2.7450015,4.112999 2.1660011,0.528 3.3910018,-0.827 3.9460021,-3.569 0.1220001,-0.601999 0.094,-1.103 -0.2410001,-1.345 -0.6380004,-0.46 -2.3910013,0.01704 -3.2380018,-0.502 -1.0540005,-0.646 -1.3220007,-3.393002 -1.0610005,-4.677003 0.2610001,-1.285 0.9260005,-2.661001 1.1070006,-3.652002 0.03704,-0.2 0.054,-0.385 -0.022,-0.488 -0.00896,-0.01304 -0.01896,-0.02496 -0.02896,-0.03696 -2.54900135,-0.671 -3.16800168,10.773005 -3.207001699979,10.157006 z m 59.151008,-39.923006 -4.309995,4.941003 c -0.716,0.821 -0.818,0.968 -1.018,1.474001 -0.281,0.707992 -0.378,1.891993 -0.24,2.052993 0.446,0.52 2.024001,-0.742001 2.574001,-1.210001 4.809995,-4.093994 7.001996,-6.672995 7.778996,-11.974998 0.396001,-2.696002 -0.841,-3.738002 -3.028001,-4.082003 -3.471002,-0.546 -6.915996,0.012 -8.263997,3.028002 0.211,11.515006 0.507001,4.930003 3.450002,4.113002 3.274994,-0.909 6.794996,-2.929001 3.056994,1.658001 z m 31.919009,41.690005 c -0.321,2.314 0.06904,2.882 1.402001,2.172 0.907,-0.484 12.614002,-8.343002 14.324002,-10.697003 0.688,-0.948 1.375,-2.625001 1.618,-4.133002 0.149,-0.929001 -0.093,-0.896001 -0.96,-0.524 -2.009,0.862 -15.253002,10.167005 -15.668003,11.008005 -0.388,0.786 -0.637,1.6 -0.716,2.174 z M 109.65202,21.410711 c 0.143,2.283001 1.066,3.702002 2.745,4.112002 2.166,0.528992 3.38999,-0.827 3.94499,-3.569002 0.122,-0.601 0.095,-1.103 -0.241,-1.345001 -0.638,-0.46 -2.38999,0.018 -3.23699,-0.501 -1.054,-0.646 -1.322,-3.393002 -1.061,-4.677002 0.261,-1.285001 0.926,-2.662002 1.107,-3.652002 0.037,-0.201 0.053,-0.386001 -0.022,-0.489001 -0.01,-0.01304 -0.019,-0.02496 -0.029,-0.036 -2.549,-0.671 -3.169,10.773006 -3.207,10.157006 z M 35.739011,78.676718 c 0.143,2.282999 1.066001,3.702999 2.744994,4.112999 2.166001,0.528 3.391002,-0.827 3.946002,-3.569 0.122,-0.601999 0.094,-1.103 -0.241,-1.345 -0.638001,-0.46 -2.391002,0.01704 -3.238002,-0.502 -1.054001,-0.646 -1.320993,-3.393002 -1.061001,-4.677003 0.261001,-1.285 0.926001,-2.661001 1.108001,-3.652002 0.036,-0.2 0.05296,-0.385 -0.02304,-0.488 -0.009,-0.01304 -0.01904,-0.02496 -0.028,-0.03696 -2.549993,-0.671 -3.168994,10.773005 -3.207994,10.157006 z m 37.991005,0.07496 3.595994,4.149999 5.176002,-5.973 -5.176002,-5.974004 -3.595994,4.151003 -3.597002,-4.151003 -5.175003,5.974004 5.175003,5.973 3.597002,-4.149999 z M 92.770018,54.078672 c -1.486001,0.446001 -2.635002,0.781001 -4.530003,0.914001 -2.507001,0.176 -6.323003,0 -6.323003,0 0,0 -0.04504,-1.539001 0.147,-2.499001 0.393,-1.962001 3.233002,-4.422003 4.562003,-4.703003 1.963001,-0.414 6.794003,1.674001 7.355004,4.705003 0.0472,0.256 0.06704,0.543 0.04,0.814 -0.036,0.365 -0.161001,0.442 -1.251001,0.769 z m 19.929002,-13.776999 0,0.768 c -1.12321,-0.183305 -1.91386,-0.602053 -3.115,-0.763 -1.43,-0.225 -3.831,-0.649 -3.956,-2.598001 -0.014,-0.222 0,-0.480001 0,-0.480001 l 0.832,-0.48 1.576,0 c 0.708,0 0.835,0.018 1.27,0.179 0.652,0.242 2.241,1.570001 2.643,2.065001 0.67504,0.832001 0.75,0.963001 0.75,1.309001 z M 23.616005,82.793677 c 0.622,0.125 1.281,0.144 1.979001,0.044 3.267002,-0.468 4.563002,-2.692 6.198003,-6.241 0.976001,-2.120002 2.278001,-7.205004 2.704002,-10.562006 0.626,-4.941995 0.445,-9.107997 4.017994,-11.041998 1.107,-0.6 1.457,0.177 1.870001,1.979001 2.506001,10.921998 1.602001,12.915999 8.671004,19.865003 0.960001,0.944 1.800001,1.686001 3.743002,2.401 2.119002,0.778 5.548995,1.524 5.548995,1.524 l 0.914001,-6.746002 c 0.174,-1.281001 0.167,-1.445001 -0.066,-1.645001 -0.172,-0.148 -0.365,-0.249 -0.573,-0.335 -1.233001,-0.509 -3.014994,-0.501 -4.159995,-0.96 -1.975001,-0.792001 -3.980002,-4.217003 -4.575002,-6.155004 -0.307,-0.997992 -0.402,-1.913993 0,-2.889993 0.44,-1.070001 3.649002,-4.534003 4.742002,-4.157003 0.823001,0.283001 1.753001,2.438002 2.780994,3.543002 1.885001,2.027001 6.316003,2.388002 8.284004,1.017001 1.554001,-1.083001 3.224002,-3.894002 4.409003,-4.080002 0.968,-0.152 4.743002,2.368001 5.158002,3.648002 0.464001,1.435 -2.325001,5.748995 -2.912001,7.546996 -0.416,1.275 -0.416,2.784001 0,3.207001 0.661,0.674001 1.422001,0.286001 1.890001,-0.77 0.171,-0.387 0.24,-0.562 0.685,-1.752001 l 2.832994,-7.559996 c 0,0 4.419002,0.072 7.321004,0 2.197001,-0.054 3.523002,-0.191 5.158002,-0.72 2.061002,-0.667001 6.64654,-2.334547 6.64654,-2.334547 0,0 2.832458,2.124547 4.168454,2.814547 4.22801,2.182993 13.10601,-0.505 16.22301,-3.360002 2.236,-2.048001 1.69,-2.662001 2.704,-5.521003 1.279,-3.611002 2.301,-3.405002 1.872,-6.731003 -0.569,-4.403995 -4.67201,-13.428 -7.488,-16.074001 -3.396,-3.191002 -7.92,-3.215002 -10.191,1.200001 -1.93901,3.769002 -3.02401,9.914005 -1.248,13.442999 1.431,2.844001 5.938,4.335002 8.943,3.841002 3.45999,-0.569 5.02199,-2.619002 5.824,1.344001 0.344,1.698 -0.75501,2.437001 -2.49601,3.217001 -4.77099,2.137001 -7.90499,2.206001 -12.06299,0.960001 -1.29301,-0.388 -2.54601,-0.933001 -3.03101,-1.749001 -0.741997,-1.250001 -0.471996,-3.449002 -1.128997,-5.213003 -1.09,-2.927994 -6.182995,-7.592996 -8.451996,-8.160996 -2.043001,-0.512001 -4.909003,0.68 -6.523004,2.880001 -0.94,1.283001 -2.080001,3.360994 -2.080001,3.360994 0,0 -0.521,-6.590996 -1.247001,-13.202999 -1.039,-9.459997 -2.496001,-18.963002 -2.496001,-18.963002 0,0 2.143001,0.004 2.911002,-0.480001 0.416,-0.262 0.357,-1.071 0,-1.921001 C 80.470011,9.8386653 79.540011,7.8916643 79.214011,6.0226713 79.01701,4.8946703 79.04001,3.7956693 78.79801,2.6626693 c -0.46,-2.14600099 -1.043,-3.18800199 -2.430001,-2.40100099 -0.970992,0.551 -1.943993,1.94100099 -2.783993,3.06400099 -0.736001,0.984001 -0.802001,1.237001 -0.656001,2.522002 l 5.245995,46.2639997 0.08791,0.757001 c -0.07696,0.376 -1.320913,0.336 -1.834913,0.204 -0.965992,-0.25 -1.755993,-0.827001 -2.412993,-1.681001 -2.281001,-2.965002 -2.296001,-3.844002 -4.122002,-0.374 -1.843001,3.501002 -5.912004,5.756003 -8.773005,3.735002 -1.878001,-1.327001 -3.618002,-5.281003 -4.824995,-5.521003 -2.003001,-0.399 -7.197004,5.576003 -7.446004,6.241003 -0.759,2.024001 -1.138,7.914004 -2.871001,7.201004 -0.485001,-0.199 -0.945001,-1.021001 -1.289001,-1.920001 -1.259001,-3.294002 -1.040001,-7.812004 -2.496001,-11.042006 -0.263,-0.585 -0.640001,-1.190001 -1.012001,-1.797001 -2.025001,-3.305994 -6.939996,0.506 -7.844996,3.213002 -0.106,0.316 -0.201,0.645 -0.294,0.984 -1.590001,5.806003 -2.127001,17.598002 -6.448004,21.365004 -2.162001,1.884001 -3.838002,1.662001 -5.823003,-0.721001 -0.01504,-0.01704 -0.03,-0.03504 -0.04504,-0.05304 -2.717993,-3.307001 -4.354994,-13.030999 -4.551994,-15.93 -0.191,-2.802002 -0.645001,-9.462005 -0.645001,-9.462005 0,0 -0.474,-0.03696 -0.748,0 -0.404,0.05496 -0.741,1.001 -0.822,2.076001 -0.056,0.743 -0.05896,0.969 -0.026,2.265001 0.02304,0.923001 0.052,2.004001 0.081,3.144002 0.11,4.349002 0.451,8.063004 0.919,11.206998 1.323001,8.888005 3.611994,15.770006 8.683997,16.791006 z m 74.279008,-74.0080127 0,-6.240995 c 0,0 -0.804001,-0.066 -1.331001,0 -0.623,0.078 -0.860001,0.341 -1.164993,0.72 -2.026001,2.517001 -3.577002,4.969995 -4.717002,4.080994 -0.545001,-0.425 -0.969001,-1.528993 -1.707001,-2.206993 -0.642001,-0.59 -3.171002,-1.004 -4.116002,-0.674 -1.399001,0.489 -2.327002,2.634993 -1.357001,5.8509947 0.137,0.455 0.317,0.883 0.567,1.263001 0.336,0.511 0.498,0.568 1.622001,0.568 l 3.194002,0 c 0,0 2.073001,2.928001 2.279001,4.163002 0.05,0.304 -0.012,0.506 -0.116,0.719001 -0.840001,1.729 -4.368002,4.214002 -5.840003,6.640003 -1.660001,2.736994 -1.360001,8.970997 0.974,12.346999 1.402001,2.027001 2.606002,1.289 3.394002,-1.141001 0.416,-1.284001 0.416,-4.203002 0,-4.485002 -0.329,-0.223 -2.454001,0.337 -2.912001,-1.728001 -0.042,-0.19 -0.048,-0.384 -0.02896,-0.576001 0.026,-0.259 0.114,-0.394 0.875,-1.352 2.431001,-3.054994 13.513995,-12.473999 15.674005,-13.463 0.413,-0.188 0.814,-0.333 0.951,-0.164 0.417,0.514001 -1.615,4.229003 -1.87201,4.801003 -0.211,0.469 -0.399,0.936 -0.489,1.446001 -0.122,0.686 -0.135,0.865 -0.135,1.786001 l 0,2.049001 0.666,0 c 0.29901,0 0.38601,-0.13 0.86901,-1.301001 1.338,-3.249002 4.494,-11.9770057 6.784,-13.3420067 1.317,-0.785 3.501,-0.791 4.576,-1.919993 0.45299,-0.476 0.70899,-1.151001 0.92499,-1.809001 0.291,-0.887001 0.323,-1.108001 0.323,-2.213001 l 0,-2.45900199 c 0,0 -1.71299,-0.325 -2.77899,0 -1.222,0.371001 -1.59,1.59600099 -2.421,2.40000199 -0.301,0.292 -0.664,0.529 -1.04,0.72 -1.212,0.618 -2.563,0.765001 -3.743,1.440001 -1.648,0.944 -2.962,2.918993 -4.39501,4.257994 -0.992,0.928001 -2.040997,1.5510007 -3.508997,2.7040017 -2.076002,1.630001 -4.991995,4.321002 -4.991995,4.321002 0,0 0.47,-2.781002 1.064,-4.377002 0.557001,-1.496001 1.366001,-2.3650017 2.639994,-2.6260017 0.52,-0.107 1.288001,-0.199 1.288001,-0.199 z" />
</svg>
