<?xml version="1.0" encoding="UTF-8" standalone="yes"?>
<svg xmlns="http://www.w3.org/2000/svg" xmlns:xlink="http://www.w3.org/1999/xlink"
  width="595.276pt" height="841.89pt" viewBox="0 0 595.276 841.89"
  fill-rule="evenodd">
  <path
     style="fill:#000000;stroke:none"
     d="m 109.56982,27.419684 5.58101,-6.189008 -5.58101,-6.189008 -5.58101,6.189008 5.58101,6.189008 z m -30.718034,46.93606 3.878002,4.300006 5.581008,-6.189008 -5.581008,-6.189008 -3.878002,4.300006 -3.878005,-4.300006 -5.582007,6.189008 5.582007,6.189008 3.878005,-4.300006 z m 16.010018,-2.691003 c -0.346,2.397003 0.07496,2.985004 1.511002,2.249003 0.979001,-0.501001 13.603014,-8.644011 15.447014,-11.083014 0.743,-0.982002 1.48301,-2.719004 1.74501,-4.282006 0.161,-0.962001 -0.1,-0.928001 -1.03401,-0.543001 -2.167,0.893001 -16.450014,10.534014 -16.897015,11.406015 -0.418,0.814001 -0.686001,1.658002 -0.772001,2.253003 z m -32.256039,-34.690045 0.378,-0.008 c 0.169001,-0.003 0.215001,-0.118 0.455001,-1.146001 1.381002,-5.913008 1.634002,-9.178012 -1.764002,-12.970017 -0.560001,-0.625001 -1.212002,-1.149002 -1.632003,-0.589001 -0.285001,0.380001 -0.575,3.060004 -0.445,3.646005 0.227,1.024001 0.900001,1.356002 1.677002,2.051003 1.757002,1.570002 2.197003,2.748003 1.973003,4.839006 -0.171,1.605002 -0.642001,4.177005 -0.642001,4.177005 z m 43.904055,37.303048 c 0.155,2.366003 1.15,3.837005 2.961,4.261006 2.335,0.548001 3.65601,-0.856001 4.25401,-3.697005 0.132,-0.624001 0.102,-1.143001 -0.259,-1.394002 -0.689,-0.477 -2.57801,0.018 -3.49201,-0.52 -1.136,-0.669001 -1.425,-3.515005 -1.144,-4.845007 0.281,-1.332001 0.999,-2.758003 1.194,-3.784005 0.04,-0.208 0.058,-0.4 -0.024,-0.506 -0.01,-0.014 -0.021,-0.026 -0.031,-0.038 -2.749,-0.695001 -3.417,11.162014 -3.459,10.523013 z m -66.331084,0 c 0.154999,2.366003 1.150001,3.837005 2.961004,4.261006 2.335003,0.548001 3.656004,-0.856001 4.255005,-3.697005 0.131,-0.624001 0.102,-1.143001 -0.26,-1.394002 -0.688001,-0.477 -2.578003,0.018 -3.492005,-0.52 -1.136001,-0.669001 -1.425001,-3.515005 -1.144001,-4.845007 0.281,-1.332001 0.999001,-2.758003 1.194001,-3.784005 0.04,-0.208 0.058,-0.4 -0.024,-0.506 -0.01,-0.014 -0.02,-0.026 -0.031,-0.038 -2.749003,-0.695001 -3.417004,11.162014 -3.459004,10.523013 z m 28.042036,-57.326074 -0.432,-9.1330125 c -0.064,-1.355002 -0.089,-1.591002 -0.251001,-2.358003 -0.5,-2.353003 -1.843002,-3.641005 -3.248004,-4.473006 -1.785002,-1.058001 -3.148004,-1.451001 -4.989006,0.038 -1.513002,1.225002 -1.656003,5.658008 -1.061002,6.351009 0.444,0.518 1.620002,0.471 3.044004,0.1 3.555005,-0.926001 3.912005,-0.712001 4.838006,3.4580055 0.44,1.981002 0.492,3.838005 0.275001,5.831007 -0.459001,4.232006 -1.539002,6.290008 0.577001,8.775011 0.881001,1.033002 1.801002,1.190002 3.811004,0.731001 1.428002,-0.326 1.711003,-1.062001 2.310003,-3.254004 0.421001,-1.544002 0.755001,-2.926004 0.647001,-4.465006 -0.215,-3.054004 -3.191004,-8.7930115 0.396,-10.2190135 0.663002,-0.263 1.524002,-0.091 2.266004,0.088 1.001001,0.242001 1.17,0.132001 1.698002,-1.096001 0.432998,-1.010002 0.934999,-1.939003 1.210999,-3.026004 1.035001,-4.080006 -0.550001,-5.231007 -3.731002,-3.560005 -3.649005,1.917003 -5.288007,10.1310145 -4.508006,15.6370215 0.239,2.270003 0.5,4.314005 0.5,4.314005 0,0 -0.218,-0.003 -0.478,-0.031 -1.021001,-0.111 -2.776005,-1.615002 -2.875004,-3.708005 z m 53.027068,5.606008 c 0.155,2.365003 1.15,3.836005 2.961,4.261005 2.335,0.548001 3.656,-0.857001 4.25401,-3.698005 0.132,-0.623 0.102,-1.143001 -0.26,-1.393001 -0.68801,-0.477001 -2.57701,0.018 -3.49101,-0.520001 -1.136,-0.670001 -1.425,-3.515005 -1.144,-4.846006 0.281,-1.331002 0.999,-2.757004 1.194,-3.784005 0.04,-0.208001 0.058,-0.399001 -0.024,-0.506001 -0.01,-0.013 -0.021,-0.026 -0.031,-0.038 -2.749,-0.695001 -3.417,11.162014 -3.459,10.524014 z m 2.517,17.518022 0,0.508001 c 0,0 -2,0.514001 -3.52201,0.476 -1.967,-0.049 -4.982,-1.785002 -5.83,-4.138005 -0.385,-1.068001 0.42,-1.692002 1.621,-2.053003 1.325,-0.399 5.23501,2.328003 6.79201,3.965006 0.845,0.889001 0.939,1.013001 0.939,1.242001 z m -18.83202,9.507012 c 0,0 -2.35101,1.451002 -3.93201,2.194003 -1.482,0.696001 -2.682001,0.763001 -4.896004,0.714001 -2.710004,-0.06 -7.55901,0 -7.55901,0 0,0 -0.046,-0.616001 0,-1.143001 0.098,-1.129002 0.900001,-2.184003 1.613002,-3.053004 3.793005,-4.629006 5.485007,-8.547011 9.270012,-7.23501 0.736,0.255001 1.388,0.655001 2.217,1.905003 1.394,2.104003 3.28701,6.618008 3.28701,6.618008 z m 14.03601,4.575006 c -2.779,0.127001 -5.457,0.247001 -5.684,0.238001 -0.92101,-0.035 -1.63201,-0.105 -2.83501,-0.714001 -1.532,-0.777001 -3.865,-2.429003 -3.865,-2.429003 0,0 0.967,-2.692004 1.288,-4.287006 0.728,-3.613005 -2.624,-9.343012 -5.15401,-11.383015 -2.128,-1.717002 -4.101001,-1.598002 -6.442004,0.476001 -2.617003,2.319003 -6.649009,7.43101 -6.649009,7.43101 0,0 -2.471003,-25.256033 -2.630003,-26.888035 -0.918001,-7.3960105 2.027003,1.967002 2.011003,-3.275004 -0.0024,-0.370001 -0.01104,-0.765001 -0.034,-1.130002 -0.140001,-2.2140035 -0.808002,-3.3470045 -1.288002,-4.9530075 -0.493001,-1.647002 -0.789001,-3.790004 -0.993001,-5.723007 -0.135001,-1.279002 -0.209001,-1.429002 -0.742001,-1.496002 -2.687004,-0.341 -5.734008,2.971004 -5.137007,4.933007 0.219,0.719 0.827001,1.553002 1.281002,2.423003 0.764001,1.459002 1.279001,4.1910055 1.537002,6.9830095 1.008001,10.932014 2.413003,31.11004 2.709003,35.405046 0.119,1.720002 -1.529002,1.486002 -2.644003,0.786001 -0.754001,-0.473001 -1.474002,-1.198002 -1.809003,-1.874003 -0.776001,-1.564002 -0.555,-3.108004 -2.079,-2.382003 -1.275002,0.608001 -2.267003,3.219004 -3.720005,4.525006 -2.930003,2.633003 -7.65901,1.107002 -9.940013,-2.377003 -1.528001,-2.333003 -1.498001,-4.531006 -4.123005,-3.809005 -0.986001,0.272 -2.181003,0.619001 -3.117004,0.947001 -3.345004,1.172002 -5.919008,3.493005 -6.657008,6.906009 -0.326001,1.506002 -0.717001,3.971005 -0.717001,3.971005 0,0 -1.800003,-2.530003 -2.719004,-4.924006 -0.953001,-2.480003 -0.132,-9.524012 -1.169001,-12.930017 -0.778001,-2.557003 -1.478002,-3.409004 -3.942005,-2.787003 -5.387007,1.361001 -6.402009,5.986007 -9.707013,14.051018 -0.831001,2.028002 -1.618002,3.868005 -2.148003,5.953008 -1.362002,5.370006 -1.351002,11.327014 -6.099008,12.383016 -1.341001,0.299 -2.629003,-0.254001 -3.809005,-1.293002 -7.99401,-7.038009 -5.556007,-23.552031 -5.556007,-23.929031 9.6e-4,-0.096 9.6e-4,-0.193 9.6e-4,-0.291 0.007,-3.216005 0.289001,-6.235008 -1.333001,-0.163001 -0.180001,0.672001 -0.339001,1.382002 -0.497001,2.242003 -0.889001,4.837007 -0.705001,9.304012 -0.069,13.088017 1.661002,9.882013 5.378007,13.896018 7.245009,15.52902 1.658002,1.450002 3.515005,2.109003 5.476007,1.305002 1.760002,-0.722001 3.966005,-3.023004 4.856006,-4.583006 0.814002,-1.424002 1.859003,-6.366008 2.577004,-10.001013 0.478,-2.422003 4.518006,-12.759016 5.584007,-14.289018 1.280002,-1.838003 2.374003,-3.250005 4.724006,-3.334005 0.487001,-0.017 1.074001,0 1.074001,0 0,0 0.497001,9.911013 1.748003,15.62702 1.216001,5.557008 8.746011,15.838021 15.57002,16.284022 1.453002,0.095 3.298004,0 3.298004,0 l 0.450001,-6.662009 c 0,0 -3.907006,-0.726001 -6.033008,-1.673002 -2.428003,-1.081002 -8.119011,-7.85901 -6.872009,-10.878014 0.89,-2.156003 6.713009,-4.761006 7.87701,-4.125006 0.794001,0.434001 2.384003,2.976004 2.860004,4.572006 0.311,1.044002 0.397,1.464002 1.572002,2.096003 2.220003,1.196002 6.621008,0.953001 8.345011,-0.655001 1.736002,-1.620002 2.819003,-3.931005 3.866005,-2.911004 0.483,0.471001 0.723001,1.544002 1.678999,2.375003 0.900002,0.782001 2.434004,1.350002 2.434004,1.350002 0,0 -0.265001,0.567001 -0.664001,1.413002 -0.188001,0.398001 -0.358001,0.753001 -0.513001,1.070001 -1.417002,2.897004 -1.545002,2.493004 -1.815,5.811008 -0.041,0.500001 -0.088,1.093001 -0.15,1.808002 -0.012,0.139 -0.023,0.274001 -0.034,0.405001 -0.138,1.607002 0.896999,-0.061 1.933,-2.071003 1.213002,-2.352003 2.484003,-5.437007 2.143003,-4.642006 0.740001,-1.724002 1.245001,-3.000004 1.245001,-3.000004 0,0 4.007006,0.576001 7.19001,0.476001 3.388004,-0.106 8.830009,-2.299003 11.501009,-1.674002 1.85701,0.434 3.43801,2.217003 5.36101,3.103004 0.537,0.247 1.86,0.354 3.56201,0.335 1.998,-0.022 8.07501,0.203 13.15801,-2.098003 0.43,-0.195 0.782,-0.401 1.036,-0.619 1.207,-1.034002 3.83901,-6.237008 4.29501,-8.725012 0.917,-5.015006 -2.028,-13.064017 -5.58401,-16.756021 -3.867,-4.015005 -8.90201,-6.106008 -12.02601,-2.381003 -2.40701,2.870003 -3.01601,10.241013 -1.07401,13.574017 0.45101,0.774001 1.03501,1.430002 1.72001,1.962003 0.647,0.503 1.086,0.843001 1.43,1.074001 0.855,0.575001 3.458,0.640001 4.432,0.587001 0.65601,-0.036 1.32501,-0.132 1.99601,-0.289001 2.002,-0.47 3.92,-1.305001 4.553,-0.953001 0.569,0.317001 1.91601,4.216006 1.69101,4.896007 -0.56601,1.714002 -5.17201,2.582003 -9.23602,2.963003 z M 9.514696,35.754695 c 0.1750002,0.033 0.4130005,0.177 0.619001,0.294 1.103002,0.621001 2.264003,1.506002 1.057002,2.568003 -0.196001,0.173001 -0.439001,0.357001 -0.691001,0.468001 -0.340001,0.15 -0.418001,0.167 -0.7840018,0.167 0,0 -0.2470003,0 -0.4490006,0 -0.830001,0 -1.2460016,-3.784005 0.2480004,-3.497004 z m 4.347006,1.381001 c 0.045,-0.091 0.183,-0.184 0.311,-0.233 0.351001,-0.134 0.630001,0.065 0.880002,0.037 0.494,-0.054 0.900001,-1.045001 1.202001,-1.974002 0.257,-0.790001 0.490001,-1.640003 0.889001,-1.639003 0.589001,9.6e-4 1.546002,2.844004 1.298002,3.555005 -0.111,0.319 -0.428001,0.602001 -0.763001,0.889001 -1.115002,0.953001 -2.430003,1.941003 -3.664005,2.327003 -0.910001,0.285001 -1.201001,0.081 -0.916001,-1.016001 0.177,-0.680001 0.534001,-1.481002 0.763001,-1.946003 z M 7.6066931,49.575712 c -2.351003,-0.019 -5.1870067,-0.409 -5.5750072,-2.114002 -0.3560005,-1.567002 3.8220049,-3.059004 4.7320061,-3.132004 1.7880027,-0.142 3.703006,0.649001 5.450007,0.423 2.806004,-0.363 9.623012,-5.903007 8.899012,-10.156013 -0.449001,-2.642003 -3.504004,-6.647008 -5.625008,-7.89601 -0.851001,-0.502001 -1.404002,0.084 -1.400002,2.779004 0.001,1.293001 0.138001,2.769003 -0.154,2.976003 -0.704001,0.500001 -0.954001,0.491001 -1.788002,-0.012 -0.42,-0.254 -0.804001,-0.549 -0.899001,-0.602 -2.0640025,-1.149002 -3.719005,2.689003 -4.0630054,4.871006 -0.2170003,1.373002 -0.1860003,2.564003 -0.766001,3.393004 -1.0840014,1.549002 -4.2880056,2.204003 -5.3400069,3.801005 -0.75300103,1.143002 -1.34400179,5.223007 -0.95400128,6.212008 0.14400018,0.368001 0.44500057,0.746001 0.82300106,1.106002 2.76100362,2.035002 6.64200862,2.282003 10.38701352,1.908002 7.173009,-0.717001 16.108021,-4.393006 20.960027,-7.56501 0.123,-0.08 0.247,-0.163 0.372,-0.249 1.140002,-0.785001 3.458005,-3.139004 4.094006,-4.798006 0.175,-0.456001 9.6e-4,-0.539001 -0.611,-0.462001 -0.274001,0.035 -0.407002,0.096 -1.330003,0.605001 0,0 -1.882002,1.040001 -3.902004,2.156003 -3.857006,2.130002 -9.609013,3.969005 -13.734019,5.120006 -2.074002,0.579001 -5.979007,1.666003 -9.5760119,1.636002 z M 98.932809,15.631669 c -1.133001,1.118001 -2.350003,2.359003 -3.294004,3.426004 -2.577003,2.911004 -3.551004,4.812006 -2.671003,8.963012 0.446,2.107002 3.052004,5.789007 4.198005,4.791006 0.424001,-0.370001 0.694001,-2.871004 0.381001,-3.530005 -0.636001,-1.338001 -2.388003,-2.086002 -2.671004,-3.098004 -0.595001,-2.122002 6.135006,-7.83201 7.632006,-9.031011 1.266,-1.012002 2.40301,-1.830003 4.19801,-2.962004 3.286,-2.072003 8.77801,-5.1980075 8.77801,-5.1980075 0,0 0,6.4680085 0,6.4680085 0,0 1.957,-5.6480075 2.436,-6.1960085 0.655,-0.750001 1.537,-1.545002 2.223,-1.936002 3.03001,-1.727003 3.56801,-2.894004 4.11801,-6.257008 0.147,-0.895002 0.066,-1.369002 -1.219,-0.868002 -4.96001,1.930003 -21.18403,12.5440175 -24.109031,15.4280215 z m 4.612001,-4.220006 0,-2.5850035 c 0,-1.143002 0.079,-1.283002 0.787,-1.407002 0.52501,-0.092 1.06301,-0.369001 1.50301,-0.565001 0.751,-0.334 1.22,-0.431001 1.527,-0.847001 0.381,-0.517001 0.381,-3.436005 0,-4.375006 -1.168,-2.876003 -3.30801,-1.574002 -5.15201,0.990002 -8e-4,10e-4 -0.002,0.002 -0.002,0.003 -2.007,2.791003 -0.277,1.840002 -0.518,4.400005 -0.009,0.099 -0.026,0.186 -0.053,0.252001 -0.083,0.203 -0.384,0.179 -0.61,0 -0.577,-0.457001 -0.827,-1.531002 -1.298,-2.328003 -1.076001,-1.820003 -3.442004,-2.669004 -4.961006,-1.269002 -1.473002,1.358002 -0.841001,4.651006 -0.191,6.5590095 0.35,1.026001 0.733001,1.372001 2.023002,0.847001 1.275002,-0.519001 2.287003,-1.8000035 2.803004,-1.6790025 0.596001,0.141 0.565001,2.1820025 2.17,3.5180045 0.051,0.043 0.104,0.085 0.158,0.126 2.42,1.849003 1.814,-0.635001 1.814,-1.640002 z" />
</svg>
