<?xml version="1.0" encoding="UTF-8" standalone="no"?>
<svg>
  <path
     style="fill:#000000;stroke:none"
     d="m 164.84709,19.372906 -0.16625,-3.8275 c -0.0687,-1.5475 -0.0462,-1.825 0.2225,-2.7725 0.19999,-0.7025 0.40999,-1.4725 0.94374,-1.9675 1.3,-1.2074993 4.51875,-0.79 6.01125,-1.7849993 2.14875,-1.4325 2.15,-6.35124 0.49625,-8.34499003 -1.7525,-2.11499997 -5.2975,1.24250003 -6.75,3.16500003 -0.89249,1.17999 -1.73749,2.53249 -2.11749,4.10999 -0.17625,0.7325 -0.2725,1.5625 -0.41125,2.2899993 l -0.67375,3.55875 -2.2275,-2.83375 c -3.04875,-4.0137493 -2.11875,-5.2074993 -6.59875,-6.2987493 -1.5,-0.36624 -4.755,-0.23 -5.38125,1.46 -0.48875,1.3225 0.66,4.5387493 1.38,5.3024993 0.55375,0.58625 2.795,2.04375 3.72125,2.13375 1.51375,0.14625 4.605,-0.77625 4.605,-0.77625 0,0 2.495,3.5925 4.01875,5.27875 0.665,0.73625 1.215,1.32875 2.06875,1.345 0.35125,0.006 0.85875,-0.0375 0.85875,-0.0375 z m -70.592484,5.98625 -0.54125,-13.66375 c -0.0813,-2.0262493 -0.1125,-2.3787493 -0.31625,-3.5274993 -0.6275,-3.51875 -2.3125,-5.44624 -4.07625,-6.69124 -2.24124,-1.58250003 -3.95124,-2.17000003 -6.26124,0.0575 -1.89875,1.8325 -2.07875,8.46499 -1.33125,9.5012393 0.55625,0.77375 2.0325,0.70375 3.81875,0.15 4.46374,-1.3849993 4.90999,-1.06625 6.07249,5.17125 0.5525,2.965 0.6175,5.7425 0.34625,8.72375 -0.5775,6.33124 -1.9325,9.40999 0.72375,13.12624 1.10625,1.5475 2.26,1.78125 4.7825,1.095 1.7925,-0.48875 2.1475,-1.58875 2.898754,-4.86875 0.52875,-2.30875 0.9475,-4.3775 0.8125,-6.67999 -0.26875,-4.5675 -4.005004,-13.1525 0.4975,-15.28625 0.83125,-0.39375 1.91125,-0.13625 2.84375,0.1325 1.255,0.36125 1.46875,0.1975 2.13,-1.64 0.54375,-1.5112493 1.17375,-2.9012493 1.52,-4.5274993 1.29875,-6.10374003 -0.69,-7.82499 -4.6825,-5.32499 -4.578754,2.8675 -6.635004,15.1549893 -5.657504,23.3924893 0.3,3.39625 0.6275,6.45374 0.6275,6.45374 0,0 -0.27375,-0.005 -0.59875,-0.0475 -1.2825,-0.16625 -3.485,-2.41624 -3.60875,-5.54624 z m 30.091244,64.89247 c -0.435,2.7125 0.0937,3.3775 1.89625,2.545 1.22875,-0.56625 17.07249,-9.7825 19.38624,-12.54249 0.9325,-1.11125 1.86125,-3.0775 2.19,-4.84625 0.20125,-1.09 -0.125,-1.05125 -1.29875,-0.615 -2.71875,1.01125 -20.64374,11.92249 -21.20624,12.90874 -0.52375,0.92125 -0.86,1.87625 -0.9675,2.55 z m 51.45998,-52.24498 7.005,-7.005 -7.005,-7.00499 -7.00375,7.00499 7.00375,7.005 z m -60.01498,7.99875 7.005,-7.005 -7.005,-7.00375 -7.00499,7.00375 7.00499,7.005 z m -9.13124,50.85248 4.86625,4.867504 7.00499,-7.005004 -7.00499,-7.005 -4.86625,4.8675 -4.8675,-4.8675 -7.005004,7.005 7.005004,7.005004 4.8675,-4.867504 z m 30.67874,-35.12624 -18.92625,2.295 c 0,0 0.325,-1.58125 0.76375,-2.9375 1.64,-5.06375 7.3075,-9.71249 9.2725,-9.67999 1.4575,0.0225 5.5625,2.5625 7.1925,5.88374 0.89375,1.8225 1.6975,4.43875 1.6975,4.43875 z m -46.636244,8.50625 -8.42124,-0.47625 c 0,0 -0.10375,-1.15875 0,-1.835 0.22375,-1.475 3.7325,-3.40875 4.7175,-3.98 4.72874,-2.74 9.73749,-4.7975 12.20124,-0.49375 1.165004,2.03625 1.822504,4.94125 3.153754,6.30875 0.59125,0.60625 3.19375,1.9975 4.7675,2.33875 1.3875,0.3 1.525,0.47375 1.37,1.735 -0.285,2.3175 -0.0888,3.67125 1.54875,2.80875 0.9875,-0.52125 2.06875,-1.71375 3.14125,-2.60125 4.67999,-3.87 10.07624,-2.12375 17.85999,-3.135 4.13625,-0.53625 5.47625,-1.30375 6.98875,-3.53625 3.26999,-4.825 4.74874,-10.73375 2.34624,-16.47374 -1.72249,-4.11125 -6.85749,-8.79125 -10.61124,-7.32 -5.095,1.9975 -13.35375,16.49124 -14.855,18.97499 -0.80125,1.32625 -0.95375,1.48 -1.52874,1.54625 -1.9125,0.21875 -6.57625,-1.72125 -7.0125,-2.08 -1.0725,-0.88375 -4.1275,-6.12875 -5.0325,-7.92374 -0.69625,-1.38625 -0.89375,-1.55375 -1.972504,-1.67625 -5.0125,-0.57375 -12.73374,3.89249 -15.36249,6.15874 -4.6125,3.9775 -6.705,7.385 -7.455,13.24875 -0.49,3.82375 0.97625,6.79875 5.15,7.11125 1.41125,0.105 2.89,-0.13375 4.37,0 0.16875,0.015 5.66249,0.95625 5.96499,1.525 0.14375,0.27375 0.0975,0.68374 0.0587,1.02499 -0.0537,0.46125 -0.21,0.59625 -1.5675,1.34625 -10.69874,5.91375 -29.66998,9.75625 -39.55623,10.44125 -9.53875,0.66125 -36.39749,-1.00125 -44.3899795,-11.47 -3.245,-4.24999 -3.03625,-5.75249 -5.44875,-6.30874 -1.22250003,-0.28125 -1.35000003,0.22125 -0.86000003,2.29375 1.69250003,7.15124 9.03625003,14.49749 14.99123953,17.93874 0.84375,0.4875 3.46,1.4275 6.46875,2.39875 19.18999,6.197504 40.12124,3.955004 58.66998,-3.4325 8.03374,-3.19875 13.01249,-5.04875 16.42624,-13.55125 1.32,-3.28874 1.29875,-7.38124 -0.305,-8.86374 -0.685,-0.63375 -1.69875,-1.12375 -2.65875,-1.4525 -1.295,-0.44375 -1.61125,-0.5025 -3.1575,-0.59 z M 131.0296,0.04666667 l 0,1.14750003 -0.57375,0 c 0,0 -0.505,3.28499 0,5.35624 0.58375,2.38875 2.75375,3.25125 3.72875,4.9662493 2.47875,4.3625 -0.16,10.67625 -0.86125,15.485 -0.3375,2.32125 1.15,4.88999 3.24625,5.73499 1.40375,0.5675 5.71374,0.24625 6.69499,-0.5725 1.02625,-0.8575 2.445,-5.33749 2.10375,-6.99749 -0.485,-2.355 -4.21125,-3.83875 -6.84374,-4.73625 -0.38125,-0.12875 -0.7625,-0.25 -1.16125,-0.27375 -0.53875,-0.0337 -0.59875,-0.20875 -0.59875,-1.7575 l 0,-9.1874993 c 0,-1.54875 -0.0175,-1.81875 -0.1775,-2.705 -0.21625,-1.19875 -3.15125,-6.25999003 -4.18125,-6.45999003 -0.5375,-0.105 -1.37625,0 -1.37625,0 z m 31.37124,67.84121933 -2.75375,0 c -1.2375,0 -1.49,-0.0163 -2.51625,-0.16 -2.5225,-0.35375 -5.06,-2.05125 -4.48,-3.51125 1.445,-3.63375 4.51375,-2.02125 6.8825,-0.63125 1.30875,0.76875 2.78625,2.4 2.8675,3.38375 0.0362,0.43125 0,0.91875 0,0.91875 z m 13.76499,-19.49999 c 3.8575,-0.78 7.49625,0.8475 8.6025,2.6375 0.35625,0.5775 0.42,1.08125 0,1.3775 -0.98875,0.69375 -7.8,-0.38625 -8.6025,-2.63875 -0.18625,-0.52 -0.3375,-1.30875 0,-1.37625 z m 12.0975,22.06124 c 3.51374,-3.285 5.57499,-9.32375 5.10749,-13.8025 -0.69625,-6.68124 -5.11999,-15.60874 -11.07999,-17.43499 -6.0025,-1.83875 -7.795,4.4625 -8.9925,10.69 -1.2575,6.53124 -0.9175,8.04999 2.81625,10.31374 1.1175,0.67875 2.20625,1.31375 4.065,1.36375 2.275,0.06 5.70375,-0.75875 7.6625,-1.28875 -0.53125,0.14375 4.26999,1.0325 1.62875,3.0875 -0.065,0.05 -0.12375,0.0913 -0.1725,0.12125 -0.29625,0.18125 -1.4,0.93375 -2.36125,1.28125 l -6.79875,1.64875 c -2.81375,0.53625 -7.39,1.205 -9.2675,0.87 -1.33375,-0.2375 -1.55,-0.4225 -2.1675,-1.8475 -2.38125,-5.4975 -6.30124,-11.63749 -10.88999,-11.90249 -0.54375,-0.0312 -1.16125,-0.0425 -1.52125,0.2 -0.1975,0.1325 -0.3175,0.34 -0.48,0.51875 -0.64125,0.7 -1.94625,0.95 -2.87375,1.57499 -3.38375,2.2825 -4.29375,14.94375 -2.295,17.78 1.1675,1.65375 3.215,2.66625 5.4375,2.8675 5.25,0.47625 12.41624,-2.07125 10.33499,1.915 -1.96124,3.75499 -13.93249,11.51999 -16.91874,12.99624 -5.475,2.7075 -12.14999,4.7775 -18.06624,7.16875 -0.995,0.4025 -1.9675,0.81375 -3.01625,0.97 -1.415,0.21125 -1.5725,0.28 -1.5725,0.692504 l 0,0.91875 1.1475,0 0,0.57375 10.335,0 c 1.54874,0 1.88749,-0.0412 3.39374,-0.4125 6.1975,-1.527504 10.82875,-3.317504 15.37625,-6.388754 1.27375,-0.86125 9.20749,-6.71875 10.39999,-10.42 0.2175,-0.67625 0.28375,-1.4725 0.475,-2.2425 0.44,-1.77999 1.54125,-3.41874 2.37,-5.07624 0.11875,-0.24 0.2325,-0.47875 0.40625,-0.68 0.2325,-0.27125 0.4275,-0.3275 1.95875,-0.56 0,0 1.12,-0.16875 3.3075,-0.5 -5.70625,0.86375 7.66875,-0.71125 12.25125,-4.99625 z m -38.62124,-15.96499 0.57375,-6.8825 c 0,0 -1.4225,-0.085 -2.35875,-0.3175 -5.095,-1.2675 2.8125,-8.12125 5.22625,-10.2925 3.925,-3.52875 14.11499,-10.85624 19.70499,-14.16999 6.35875,-3.76875 14.70625,-8.31625 14.70625,-8.31625 l 0,7.8625 c 0,0 0.5575,-0.0525 0.90375,-0.24375 0.67875,-0.37375 0.51625,-1.48875 0.57625,-2.4225 0.0987,-1.54125 1.65625,-3.8325 3.33874,-5.73875 2.13,-2.415 9.3,-6.6774993 11.55,-7.3212493 0.6925,-0.1975 1.33125,-0.45125 1.7525,-1.16125 0.94625,-1.59249 0.805,-5.47999003479 0.805,-5.47999003479 0,0 -1.48,0.21125000479 -3.18875,0.53000000479 -9.59875,1.79125003 -42.60123,23.22248933 -49.71748,29.37997933 -3.725,3.22375 -6.91625,6.72125 -9.32125,10.81 -1.2725,2.165 -1.50625,5.57875 0,9.17625 0.57875,1.38 2.42125,4.335 3.53375,4.5875 0.8325,0.19 1.915,0 1.915,0 z" />
</svg>
