<?xml version="1.0" encoding="UTF-8" standalone="no"?>
<svg>
  <path
     d="m 92.69377,94.067036 c 2.15625,-0.86375 4.315,-1.78875 6.48125,-2.77375 2.75625,-1.2525 8.36875,-5.23625 8.8875,-6.30625 0.50375,-1.0425 0.62875,-2.2025 1.14625,-3.44 2.12875,-5.09876 3.8125,-5.00876 1.6125,-9.11376 -1.1275,-2.105 -2.22375,-3.91625 -4.355,-5.20375 -1.72,-1.03875 -4.615,-2.31 -4.615,-2.31 l 8.8025,0 c 1.5475,0 1.81875,-0.0175 2.70375,-0.1775 2.56625,-0.46375 2.9325,-1.585 4.45125,-4.9825 1.455,-3.25375 3.7425,-6.945 3.15375,-9.17375 -0.22375,-0.8425 -0.84125,-1.6675 -1.43375,-2.86625 -2.17125,-4.38875 -4.0025,-13.78125 -4.0025,-13.78125 0,0 -1.95125,3.505 -2.8775,5.755 -0.8275,2.00875 -1.09875,3.84375 -0.86,5.50375 0.5025,3.50625 3.29625,11.1425 3.29625,11.1425 l -10.9575,-0.5125 c -1.54625,-0.0725 -1.8875,-0.0462 -3.40625,0.2625 -11.17125,2.26875 -13.16125,3.6275 -14.7325,14.44875 -0.36375,2.50125 1.29875,3.1525 4.575,3.555 5.31,0.6525 5.72875,-1.415 12.05125,1.43375 3.575,1.61125 4.05,3.61876 1.14625,5.73376 -3.41125,2.485 -7.8775,4.5225 -12.82375,6.18125 -16.73126,5.6125 -33.52376,5.705 -51.01001,2.85 -10.72001,-1.75 -22.73251,-4.53875 -27.05001,-7.795 -0.32,-0.24125 -0.625,-0.48625 -0.9125,-0.73625 -0.28875,-0.2525 -0.58875,-0.5225 -0.89125,-0.80375 L 0,70.699526 7.7125,83.837036 c 1.04625,1.78 2.15625,3.61875 3.305,4.97 3.49125,4.1075 16.39125,7.55875 24.79126,9.39125 22.12125,4.825004 36.94375,3.863754 56.88501,-4.13125 z m 76.91501,-40.72876 c -9.10875,-1.25 -17.35125,-3.0425 -21.32,-4.845 -8.325,-3.7825 -6.53125,-6.45375 1.72,-12.61375 3.72375,-2.78 6.51125,-4.42375 9.9225,-3.48375 1.08125,0.2975 1.26875,0.17125 1.88,-1.25375 0.815,-1.89876 1.7775,-3.55001 1.9575,-5.87001 0.0838,-1.075 0,-2.2925 0,-2.2925 0,0 -3.26375,-0.18 -5.17125,0 -5.585,0.52625 -14.73125,9.26251 -16.4,11.98876 -1.0475,1.7125 -1.60625,3.435 -1.935,6.5875 -0.4625,4.43375 -0.57375,12.005 -0.57375,12.005 0,0 2.2175,1.56 4.01375,2.6725 3.0475,1.885 8.14,3.37125 13.86875,4.51625 13.44,2.6875 24.98876,3.9125 40.26001,-2.3875 1.80625,-0.74625 3.33875,-1.33875 4.14875,-1.26625 1.11375,0.0987 6.33875,3.81 7.84625,6.4175 1.2325,2.1325 -0.45375,2.685 -3.44,3.34875 -5.21,1.15625 -10.42375,2.215 -15.6025,3.1025 -17.23126,2.95625 -32.93501,5.10125 -48.68001,-2.63625 -0.13625,-0.0662 -0.2725,-0.13375 -0.4075,-0.2025 -8.83625,-4.42625 -10.43875,-6.36375 -12.04125,-14.3325 -0.995,-4.95 -1.83375,-10.77125 -2.00625,-15.64125 -0.18,-5.075 0.3625,-9.11626 0,-15.92751 -0.45,-8.455 -2.29376,-21.17874976 -2.29376,-21.17874976 0,0 -0.83625,-0.10125 -1.37625,0 -0.70125,0.13125 -0.9,0.60625 -1.20375,1.14625006 -3.0975,5.515 -3.50875,6.05 -1.72,12.6137497 2.93125,10.7525 1.81875,19.92626 2.0075,29.83626 0.0837,4.46375 2.23125,18.895 3.1525,21.19125 2.14626,5.34625 6.63501,8.66625 12.59376,11.15375 22.9225,9.56501 32.03375,5.96876 53.94376,1.665 7.46125,-1.46625 14.4575,-3.1575 18.22,-4.48375 3.32,-1.17125 6.935,-3.9025 8.02625,-8.7725 0.11375,-0.50375 0.12,-0.93625 0,-1.37625 -0.0788,-0.29 -0.21375,-0.5825 -0.38,-0.89 -9.63375,-17.78625 -15.14875,-14.06375 -16.21875,-13.7725 -3.5525,0.96625 -9.04375,2.68375 -13.50125,3.88375 -4.2125,1.135 -11.3425,1.305 -19.18376,0.8575 l -0.10625,0.24 z m -47.40126,37.66751 4.86501,4.865 7.0025,-7.0025 -7.0025,-7.0025 -4.86501,4.86625 -4.86625,-4.86625 -7.0025,7.0025 7.0025,7.0025 4.86625,-4.865 z m -16.2825,-55.32751 7.0025,-7.00251 -7.0025,-7.0025 -7.0025,7.0025 7.0025,7.00251 z m 30.29751,0 7.0025,-7.00251 -7.0025,-7.0025 -7.0025,7.0025 7.0025,7.00251 z m -50.54001,-10.78751 -0.54125,-13.41 c -0.0812,-1.9899997 -0.1125,-2.3362497 -0.3175,-3.4624997 -0.62625,-3.455 -2.31125,-5.34625 -4.07375,-6.5675 -2.24,-1.55375006 -3.95001,-2.13125006 -6.25876,0.0563 -1.89875,1.7975 -2.0775,8.3075 -1.33125,9.3249997 0.55625,0.76 2.0325,0.69125 3.8175,0.1475 4.46126,-1.3599997 4.90876,-1.0462497 6.07126,5.07625 0.55125,2.90875 0.61625,5.635 0.345,8.56125 -0.57625,6.21501 -1.93125,9.23751 0.72375,12.88501 1.105,1.5175 2.26,1.7475 4.78125,1.07375 1.79125,-0.47875 2.1475,-1.55875 2.89875,-4.77875 0.52875,-2.26625 0.94625,-4.29626 0.81125,-6.55626 -0.26875,-4.4825 -4.00375,-12.91 0.4975,-15.00375 0.83125,-0.38625 1.91125,-0.13375 2.8425,0.13 1.255,0.355 1.4675,0.19375 2.13,-1.61 0.54375,-1.4824997 1.1725,-2.8474997 1.51875,-4.4437497 1.29875,-5.99000006 -0.69,-7.68125 -4.68,-5.2275 -4.5775,2.815 -6.63375,14.8762497 -5.65625,22.9612497 0.3,3.33375 0.6275,6.335 0.6275,6.335 0,0 -0.27375,-0.005 -0.59875,-0.0462 -1.2825,-0.16375 -3.48375,-2.37125 -3.6075,-5.445 z m 6.89875,25.70251 c -1.3225,1.37375 -2.48625,2.71375 -2.9675,3.72125 -0.36,0.7525 -0.59125,1.53875 -0.29875,1.74375 0.49125,0.3425 1.815,-0.70875 2.73125,-1.46375 3.545,-2.9175 10.955,-9.76125 9.30875,-14.21125 -0.7925,-2.14375 -5.61,-3.50375 -8.22125,-1.525 -0.76125,0.57625 -2.7675,3.16875 -3.04375,4.46875 -0.26625,1.2575 -0.20125,2.98375 -0.20125,2.98375 0,0 1.09,-0.115 1.79125,-0.32 1.035,-0.305 1.22,-0.80625 2.15,-1.07875 0.445,-0.13 1.06125,-0.2075 1.61375,-0.25375 1.95625,-0.16375 1.94,0.66125 1.5175,1.4275 -0.075,0.13625 -0.66875,0.76 -1.31375,1.4175 0.17375,-0.17875 -2.71625,2.725 -3.06625,3.09 z m 11.3875,-38.65376 c 0.19375,2.6775 1.4425,4.34125 3.715,4.82125 2.93,0.62 4.58625,-0.96875 5.3375,-4.18375 0.165,-0.705 0.1275,-1.2925 -0.32625,-1.57625 -0.8625,-0.53875 -3.23375,0.0213 -4.38,-0.5875 -1.42625,-0.7574997 -1.78875,-3.9774997 -1.435,-5.4824997 0.3525,-1.50625 1.2525,-3.12 1.4975,-4.28125006 0.05,-0.235 0.0725,-0.4525 -0.03,-0.5725 -0.0125,-0.015 -0.0263,-0.03 -0.0387,-0.0437 -3.44875,-0.78625 -4.2875,12.62874976 -4.34,11.90624976 z m 77.50002,3.58375 c -6.92501,4.24625 -13.15001,9.12125 -14.73751,13.66625 -1.07,3.06126 -0.87125,6.49126 1.26,9.44251 0.0925,0.12625 0.175,0.24 0.25125,0.3425 -0.9625,-1.30625 2.60875,4.18875 2.4025,-1.39375 -0.0487,-1.33375 -0.2,-3.0075 -0.6375,-3.42875 -0.255,-0.245 -0.605,-0.0675 -0.825,-0.2 -0.99,-0.59375 0.69375,-3.0425 1.495,-3.97876 2.1625,-2.525 5.34876,-5.23125 9.02001,-7.845 5.3575,-3.815 10.97375,-6.71875 17.21375,-8.8425 1.38625,-0.47125 2.6825,-0.84375 3.85625,-1.10125 0.95,-0.2075 1.89875,-0.37625 2.07875,-0.055 0.0887,0.16 -0.0113,0.44125 -0.165,0.75875 -0.36,0.74375 -0.93625,1.64625 -1.57625,2.6125 -13.275,20.04376 7.665,-7.7737497 13.60625,-8.5549997 0.54375,-0.26875 1.05375,-0.485 1.50625,-0.6275 2.31125,-0.7275 4.81625,-0.8825 5.12,-3.09875 0.0425,-0.31125 0.0487,-0.6975 0.0375,-1.07375 -0.0775,-2.82875006 -3.69125,-2.40000006 -7.25875,-1.32125006 -2.4575,0.74375006 -23.7975,9.26999976 -32.6475,14.69874976 z m 10.83,30.79876 0.6675,-0.0112 c 0.3,-0.006 0.38,-0.18875 0.805,-1.82625 2.44,-9.42125 2.885,-14.62376 -3.1175,-20.66626 -0.98875,-0.995 -2.14,-1.82875 -2.8825,-0.9375 -0.50375,0.605 -1.0175,4.87625 -0.7875,5.80875 0.40125,1.63125 1.59125,2.16126 2.965,3.26751 3.1025,2.5025 3.88,4.37875 3.485,7.71125 -0.3025,2.55625 -1.135,6.65375 -1.135,6.65375 z m -13.48125,-26.95501 -0.1675,-3.82625 c -0.0663,-1.54625 -0.045,-1.82375 0.22375,-2.77125 0.2,-0.70375 0.41,-1.4725 0.94375,-1.9675 1.29875,-1.2074997 4.51625,-0.79 6.00875,-1.7837497 2.14875,-1.4325 2.15,-6.35 0.49625,-8.34375006 -1.7525,-2.11374994 -5.29625,1.24375006 -6.7475,3.16500006 -0.8925,1.17875 -1.73625,2.53125 -2.11625,4.10875 -0.17625,0.73125 -0.27375,1.56125 -0.41125,2.2887497 l -0.675,3.55875 -2.22626,-2.83375 c -3.0475,-4.0124997 -2.1175,-5.2049997 -6.59625,-6.2974997 -1.5,-0.365 -4.75375,-0.22875 -5.37875,1.46125 -0.49,1.32125 0.65875,4.5362497 1.37875,5.2999997 0.55375,0.58625 2.79375,2.04375 3.72,2.1325 1.5125,0.14625 4.60375,-0.775 4.60375,-0.775 0,0 2.49375,3.59125 4.01751,5.27625 0.665,0.73625 1.215,1.32875 2.0675,1.345 0.35125,0.006 0.85875,-0.0375 0.85875,-0.0375 z m -33.37251,4.45375 0.6675,-0.0125 c 0.30125,-0.005 0.38125,-0.1875 0.805,-1.82625 2.44125,-9.42 2.88625,-14.6224997 -3.11625,-20.6649997 -0.98875,-0.99500006 -2.14125,-1.83000006 -2.8825,-0.93750006 -0.50375,0.605 -1.0175,4.87625006 -0.78875,5.80875006 0.4025,1.63125 1.59125,2.16 2.965,3.2675 3.1025,2.5012497 3.88125,4.3787497 3.48625,7.7099997 -0.30375,2.5575 -1.13625,6.655 -1.13625,6.655 z"
     style="fill:#000000;stroke:none" />
</svg>
