<?xml version="1.0" encoding="UTF-8" standalone="no"?>
<svg>
  <path
     d="m 53.28485,52.949845 c 0,0 8.05886,1.409264 9.454,2.675166 0.14615,0.133055 0.21974,0.264237 0.34205,0.368245 0.4913,0.415096 1.78072,0.374804 3.02349,0.193024 5.47173,-0.797396 10.0303,-4.330864 15.34966,-5.567718 1.9559,-0.454451 8.39262,-0.986673 11.43581,-0.387923 2.27306,0.446017 5.99412,1.682872 5.99412,1.682872 l 2.89498,-8.044246 c 0,0 -5.90292,-1.051326 -9.98055,-2.618946 -2.77473,-1.067255 -6.45538,-3.932642 -7.27422,-5.664238 -1.08522,-2.292865 -0.90694,-2.765119 -5.31314,-2.05955 -6.7456,1.0785 -11.06784,1.522643 -11.45964,5.049559 -0.21248,1.917125 -0.14304,5.438411 -0.14304,5.438411 l 11.60268,-2.459653 -0.14304,0.387922 3.67028,1.076626 c 0,0 -9.54314,3.933572 -14.50801,4.879953 -7.05241,1.344618 -15.3165,-2.816655 -18.24049,-8.61113 -1.04065,-2.062369 -2.23471,-4.868716 -2.23471,-4.868716 0,0 -1.87712,3.763035 -1.91858,8.041434 -0.0487,4.91837 5.01359,15.798019 5.01359,15.798019 0,0 -8.25372,6.367926 -14.82622,10.747522 C 22.97941,77.698192 14.62204,79.110274 0.62813,81.956914 0.06219,82.072166 0,82.114331 0,82.386065 l 0,0.605309 c 0,0 8.148,-0.998854 13.46426,-1.165642 5.4313,-0.171473 7.90544,0.524726 10.81389,0 6.91248,-1.248098 25.32295,-12.556891 26.85802,-16.445494 1.8823,-4.768448 2.14868,-12.430393 2.14868,-12.430393 z m 99.32346,-7.556064 c -2.70839,-0.08339 -5.7236,-0.818947 -7.36024,-1.93399 -2.56848,-1.749399 -3.63297,-3.221443 -4.58863,-4.41051 -1.94242,-2.415622 -5.07578,-3.402294 -7.57066,-3.402294 -0.44674,0 -0.88104,0 -1.26558,0 -2.35599,0 -6.23771,0.495679 -6.6803,2.791363 -0.25912,1.340862 -1.09351,5.668916 -1.09351,5.668916 l 11.02949,0.203331 c 0.57941,0.01027 0.69446,0.03463 1.14327,0.237064 1.58274,0.715876 2.61614,2.262881 2.5809,2.579591 -0.22492,1.990218 -12.58218,3.184907 -16.23587,2.65737 -3.83509,-0.554711 -8.13867,-3.145553 -9.92043,-5.203229 -1.10699,-1.27902 -2.84004,-13.403948 -2.82138,-19.741897 0.0218,-7.679749 -0.33583,-17.9306556 -0.47576,-21.6056122 -0.0124,-0.3345129 -1.5672,-3.39853847 -2.20465,-3.10993912 -1.14638,0.51816702 -2.00046,2.40343292 -2.57676,4.44517962 -0.69031,2.4484094 3.20281,43.9186747 4.29736,45.7748927 3.05978,5.190104 11.17668,9.209888 21.99783,6.839243 4.61247,-1.010098 7.91271,-3.540027 14.51631,-3.949501 4.95037,-0.30734 11.75609,0.577199 11.75609,0.577199 0,0 2.00875,-5.401868 2.26684,-6.863613 0.0622,-0.35419 -0.0259,-0.497552 -0.51411,-0.706506 -0.0964,-0.04123 -0.20937,-0.0862 -0.33064,-0.132118 -3.74698,-1.42332 -3.31579,-0.634357 -5.94957,-0.71494 z m -50.63345,29.475574 c 0.19383,2.417489 1.44074,3.920462 3.7107,4.354298 2.92813,0.559395 4.58344,-0.875168 5.33388,-3.778973 0.1648,-0.636231 0.12749,-1.167516 -0.3265,-1.424257 -0.86239,-0.486308 -3.23081,0.01874 -4.37615,-0.530348 -1.42416,-0.684018 -1.78694,-3.5925 -1.43453,-4.952102 0.35345,-1.360548 1.25211,-2.818537 1.49672,-3.867052 0.0498,-0.212701 0.0726,-0.408537 -0.03,-0.51723 -0.0124,-0.01402 -0.0259,-0.02624 -0.0383,-0.03838 -3.44535,-0.710254 -4.28388,11.406242 -4.33571,10.754082 z M 54.88418,68.390862 c 0,0 4.56272,-1.347429 6.37246,-0.975436 0.95359,0.196772 1.94034,1.74847 2.56018,2.937537 1.12461,2.158873 2.20776,4.939922 2.61925,7.145645 0.13682,0.735561 0.28505,1.41302 1.12151,1.671635 0.52655,0.16304 1.32881,0.17241 1.32881,0.17241 0,0 0.002,-0.01124 0.006,-0.03276 0.40009,-2.034258 1.28942,-5.446852 1.51641,-7.503591 0.2384,-2.161684 0.1845,-2.911293 2.2202,-2.774489 3.07532,0.207079 4.12116,0.698073 5.47174,-1.521713 1.21271,-1.990212 2.54151,-6.053091 0.42496,-7.369591 -6.54659,-1.593855 -8.99067,6.192705 -9.40113,7.974907 -0.57941,2.516811 -0.82195,5.215403 -0.82195,5.215403 0,0 -1.60348,-4.659755 -2.78304,-7.177511 -1.32673,-2.831647 -4.75238,-6.644344 -8.4465,-5.691404 -1.83566,0.47319 -2.48141,1.829982 -2.48037,3.627169 8.3e-4,1.652887 0.29126,4.301824 0.29126,4.301824 z m 38.20365,0.04123 6.99644,-6.325768 -6.99644,-6.324831 -6.99644,6.324831 6.99644,6.325768 z m 21.08363,-36.059019 c 0.28504,0.797396 0.71622,1.577926 1.31118,2.321913 0.084,0.104945 0.16066,0.20052 0.2301,0.285788 -0.88621,-1.08787 2.40367,3.487562 2.21399,-1.160956 -0.0456,-1.110358 -0.1845,-2.505567 -0.5877,-2.85601 -0.23426,-0.203331 -0.55765,-0.05622 -0.75976,-0.16585 -0.91213,-0.494742 0.63848,-2.534615 1.37751,-3.314215 0.37004,-0.390734 0.7722,-0.786153 1.20443,-1.185319 7.92722,-7.333047 18.34932,-12.755537 27.05496,-14.824457 0.61154,-0.145236 1.12875,-0.211764 1.27075,-0.02159 0.0943,0.126496 0.0228,0.367308 -0.0943,0.640915 -0.27467,0.641852 -0.73592,1.429879 -1.25106,2.275062 -10.68019,17.539922 6.4533,-6.9732424 11.84937,-8.0255056 0.47886,-0.259552 0.93078,-0.4741275 1.33605,-0.6231123 2.06784,-0.7608528 4.35541,-1.0597593 4.46735,-2.9197258 0.0156,-0.2614261 -0.007,-0.5828208 -0.0456,-0.8948454 C 163.49997,-0.13939285 160.9657,0.05925345 158.20134,0.89975221 142.37902,5.708492 130.58459,12.609585 122.82633,18.335666 c 1.30807,-0.965129 -11.38916,6.389477 -8.65485,14.037367 z m 26.72316,5.527016 0.61465,-0.0094 c 0.27674,-0.0045 0.35034,-0.156481 0.7411,-1.520769 2.24819,-7.846537 2.65864,-12.178345 -2.87114,-17.210094 -0.91005,-0.829254 -1.97143,-1.524517 -2.65553,-0.781467 -0.46332,0.504112 -0.937,4.061005 -0.72555,4.837787 0.37003,1.357729 1.46562,1.799061 2.73119,2.72108 2.8587,2.08392 3.57493,3.646854 3.21111,6.421343 -0.27882,2.128889 -1.04583,5.54149 -1.04583,5.54149 z m -14.07568,-21.771052 -0.15341,-3.186774 c -0.0622,-1.28839 -0.0415,-1.518894 0.20523,-2.307857 0.18346,-0.585632 0.37729,-1.2256107 0.8686,-1.6388325 1.19716,-1.0044831 4.16158,-0.6577891 5.53599,-1.4851697 1.97973,-1.1928152 1.98077,-5.2884898 0.45814,-6.94887304 -1.61489,-1.75970646 -4.87989,1.03539704 -6.21698,2.63581154 -0.82195,0.9819874 -1.59934,2.1082745 -1.94967,3.4219638 -0.16274,0.609057 -0.25188,1.3005714 -0.37833,1.905888 l -0.62191,2.9637649 -2.05021,-2.3593929 c -2.80791,-3.3423257 -1.95175,-4.3355572 -6.07705,-5.2444578 -1.38271,-0.3045285 -4.38029,-0.1911502 -4.95658,1.2162401 -0.45089,1.1009878 0.60843,3.7780358 1.27075,4.4133291 0.50997,0.4891195 2.57469,1.7025485 3.42774,1.7765725 1.39306,0.121812 4.24035,-0.6456 4.24035,-0.6456 0,0 2.29795,2.990938 3.70138,4.394581 0.61258,0.612805 1.11943,1.10661 1.9051,1.119728 0.32339,0.0052 0.79086,-0.03088 0.79086,-0.03088 z m -63.36905,4.269966 c -3.13025,2.346276 -8.64863,7.506394 -6.75388,12.80801 0.28504,0.797396 0.71622,1.577926 1.31118,2.320975 0.084,0.105883 0.16066,0.200521 0.2301,0.286726 -0.88621,-1.088807 2.40367,3.487562 2.21398,-1.160957 -0.0456,-1.111295 -0.18346,-2.505567 -0.5877,-2.856009 -0.23425,-0.203331 -0.5566,-0.05622 -0.75976,-0.165851 -0.91109,-0.494742 0.63849,-2.534614 1.37752,-3.314207 0.37004,-0.390741 0.7722,-0.78616 1.20443,-1.185326 0.79189,-0.732743 1.60762,-1.445808 2.44512,-2.138259 8.28896,-6.858927 23.97341,-13.829351 34.82773,-16.7575178 1.20443,-0.4394581 2.14558,-0.9913579 2.2171,-2.1673065 0.0156,-0.260489 -0.008,-0.5828208 -0.0456,-0.8939084 C 100.88446,3.1598619 98.4186,3.3238388 95.70191,4.1334162 82.15785,8.1672484 74.4058,12.186096 63.4499,20.399003 z m 25.01511,15.620916 0.61465,-0.01027 c 0.27675,-0.0037 0.35034,-0.155544 0.74111,-1.520769 2.24818,-7.8456 2.65864,-12.178338 -2.87114,-17.210094 -0.91109,-0.828317 -1.97247,-1.52358 -2.65553,-0.78053 -0.46332,0.504112 -0.93701,4.061013 -0.72556,4.837795 0.37003,1.357728 1.46562,1.799061 2.7312,2.721079 2.8587,2.082975 3.57492,3.64591 3.21111,6.421343 -0.27882,2.128889 -1.04584,5.541483 -1.04584,5.541483 z M 71.54192,16.129037 71.38852,12.942263 c -0.0622,-1.28839 -0.0415,-1.518894 0.20523,-2.307857 0.18449,-0.585632 0.37728,-1.2256107 0.86859,-1.6388325 1.19717,-1.0044831 4.16262,-0.6577891 5.536,-1.4851697 C 79.97807,6.3175886 79.9791,2.221914 78.45647,0.56153076 76.84159,-1.1981757 73.57762,1.5969278 72.23949,3.1973423 c -0.82195,0.9819874 -1.59933,2.1082745 -1.94967,3.4219638 -0.1617,0.609057 -0.25187,1.3005714 -0.37833,1.905888 L 69.28959,11.488959 67.23937,9.1295661 C 64.43147,5.7872404 65.28762,4.7940089 61.16232,3.8851083 59.78065,3.5805798 56.78307,3.6939581 56.20677,5.1013484 c -0.45088,1.1009878 0.6074,3.7780358 1.26973,4.4133291 0.50996,0.4891195 2.57468,1.7025485 3.42773,1.7765725 1.39307,0.121812 4.24035,-0.6456 4.24035,-0.6456 0,0 2.29795,2.990938 3.70138,4.394581 0.61258,0.612805 1.11943,1.10661 1.9051,1.119728 0.32443,0.0052 0.79086,-0.03088 0.79086,-0.03088 z m 61.90757,55.761562 c -1.48222,1.971471 -3.59358,3.458508 -3.16654,5.024254 1.02614,3.757421 7.7593,2.342534 10.72164,1.112239 1.53922,-0.639049 4.02996,-2.797922 4.56894,-3.960753 0.22181,-0.477876 0.37418,-0.983862 0.10054,-1.103799 -0.17517,-0.07684 -0.52343,0.0037 -0.88207,0.116189 -1.28735,0.404789 -2.69493,1.219988 -4.09318,1.69599 -2.37049,0.807704 -5.7578,1.100988 -6.53311,-0.887349 -0.15754,-0.404789 -0.10779,-0.816137 0.11195,-1.233107 1.42934,-2.70515 5.45307,-3.732114 4.73269,-5.754191 -0.99297,-2.78667 -4.6052,-2.319102 -6.63677,-0.984798 -0.0218,0.01499 -3.79984,3.278608 -2.64517,3.878295 0.18243,0.09557 0.55039,0.03748 0.92561,-0.06282 0.67476,-0.180843 1.37026,-0.499427 2.21606,-0.645601 1.40239,-0.240811 1.6014,0.462884 1.46044,1.18813 -0.15755,0.808641 -0.83854,1.56106 -0.88103,1.617281 z"
     style="fill:#000000;stroke:none" />
</svg>
