<?xml version="1.0"?>
<svg xmlns="http://www.w3.org/2000/svg" version="1.1">
  <path
     d="m 47.21416,0.01093 c -2.516,0.074 -3.425,1.495 -3.606,3.99 -0.089,1.232 -0.107,3.07 -0.107,3.07 0,0 2.893,0.49 4.644,0.162 1.955,-0.366 2.7,-1.868 3.724,-1.31 1.543,0.839 1.804,5.355 1.515,6.969 -0.345,1.926 -1.452,3.891 -2.14,6.265 -0.036,0.125 -0.062,0.345 -0.077,0.644 -0.141,2.674 -0.016,14.353 3.264,15.383 0.351,0.11 0.746,0.202 1.061,0.413 0.499,0.333 0.801,0.965 1.215,1.233 2.281,1.475 4.927,-4.184 5.15,-5.257 0.293,-1.412 0.303,-2.798 0.152,-4.356 -0.297,-3.059 -5.058,-19.078 -1.865,-20.045 1.616,-0.489 3.389,0.814 4.977,-0.306 1.038,-0.732 1.888,-2.27 2.046,-3.579 0.145,-1.197 0.108,-3.07 0.108,-3.07 0,0 -2.091,-0.355 -3.521,-0.123 -0.878,0.142 -3.805,2.312 -4.512,3.204 -1.359,1.716 -2.463,7.278 -2.452,8.32 0.05,4.612 2.84,14.953 2.291,16.938 -0.498,1.798 -1.487,3.579 -1.487,3.579 0,0 -1.466,-1.978 -2.347,-3.838 -0.511,-1.08 -0.747,-9.13 -0.328,-11.221 0.758,-3.786 1.319,-9.162 0.207,-12.709 -1.274,-4.066 -4.83,-4.446 -7.912,-4.356 z m 23.556,80.281 c -0.364,2.27 0.078,2.827 1.587,2.131 1.028,-0.475 14.288,-8.188 16.225,-10.498 0.78,-0.93 1.558,-2.576 1.833,-4.056 0.169,-0.912 -0.105,-0.88 -1.087,-0.515 -2.275,0.846 -17.277,9.979 -17.748,10.804 -0.439,0.771 -0.72,1.57 -0.81,2.134 z m -49.135,-71.474 -4.881,4.849 c -0.811,0.806 -0.927,0.95 -1.154,1.447 -0.317,0.695 -0.427,1.857 -0.271,2.014 0.505,0.511 2.293,-0.728 2.915,-1.187 5.449,-4.018 7.931,-6.549 8.812,-11.753 0.448,-2.645 -0.952,-3.668 -3.431,-4.006 -3.931,-0.535 -7.832,0.012 -9.36,2.972 0.239,11.301 0.575,4.839 3.909,4.037 3.708,-0.893 7.696,-2.875 3.461,1.627 z m 26.347,36.921 -4.882,4.849 c -0.811,0.806 -0.926,0.951 -1.153,1.447 -0.318,0.695 -0.428,1.857 -0.272,2.015 0.506,0.51 2.293,-0.728 2.916,-1.187 5.449,-4.018 7.931,-6.55 8.812,-11.753 0.448,-2.645 -0.953,-3.669 -3.431,-4.006 -3.931,-0.536 -7.833,0.012 -9.36,2.972 0.238,11.301 0.574,4.839 3.908,4.036 3.709,-0.892 7.697,-2.875 3.462,1.627 z m -3.24,33.537 3.104,3.428 4.79,-5.288 -4.79,-5.287 -3.104,3.427 -3.105,-3.427 -4.79,5.287 4.79,5.288 3.105,-3.428 z m 71.417,-3.343 c 0,0 0.038,0.35 0,0.636 -0.062,0.465 -0.76,1.065 -1.237,1.52 -1.478,1.409 -3.303,5.198 -2.367,8.331 0.42,1.029 1.251,1.813 2.427,2.097 2.539,0.614 7.264,-0.069 9.337,-2.118 0.574,-0.568 1.599,-1.966 1.68,-2.994 0.032,-0.4 0,-0.848 0,-0.848 0,0 -0.623,-0.031 -1.152,0 -1.164,0.066 -2.197,0.631 -3.168,0.927 -1.264,0.386 -5.315,0.77 -6.48,0 -1.655,-1.093 -0.399,-1.911 0.84,-3.312 1.005,-1.136 3.016,-5.233 3,-6.359 -0.043,-2.986 -3.427,-2.996 -5.52,-1.589 -1.361,0.914 -2.207,2.846 -2.64,4.822 -0.263,1.202 -0.15,1.556 0.768,1.271 0.397,-0.123 0.851,-0.337 1.152,-0.662 0.517,-0.558 0.611,-1.455 1.358,-1.722 0.707,-0.252 2.002,0 2.002,0 z m -81.029,-15.622 c 0.553,2.361 1.304,4.017 3.084,5.073 4.038,2.397 6.717,1.686 11.262,-0.093 0.731,-0.287 1.37,-0.526 2.286,-1.255 0.99,-0.788 2.303,-2.147 2.303,-2.147 0,0 1.117,1.317 1.854,2.016 2.073,1.964 7.607,1.554 10.248,1.457 1.355,-0.049 5.098,-0.116 5.712,-1.325 0.41,-0.806 0.33,-1.61 0.936,-1.324 0.334,0.157 0.678,0.688 1.104,1.192 1.549,1.831 4.006,3.261 5.515,3.577 1.812,0.38 4.606,0.296 5.525,-0.795 1.063,-1.26 0.779,-1.85 1.598,-2.385 0.073,-0.047 0.409,-0.028 0.927,0.038 10.325,1.313 11.375,3.585 21.358,-0.661 3.381,-1.438 6.679,-1.563 10.082,-1.215 1.432,0.147 8.707,0.899 12.266,1.794 0.381,-0.055 0.624,-0.099 0.624,-0.099 0,0 0,0 0,0 0,0 3.286,-7.121 3.124,-7.223 -0.013,-0.008 -0.026,-0.016 -0.039,-0.024 -0.234,-0.145 -0.331,-0.172 -0.973,-0.272 -8.193,-1.281 -11.729,-1.72 -15.877,-5.368 -5.778,-5.082 -5.802,-8.606 -14,-7.58 -2.653,0.333 -3.036,1.039 -4.33,3.918 -0.399,0.889 -0.817,2.257 -0.84,3.339 -0.007,0.304 0,0.636 0,0.636 l 0.24,0 c 0,0 0,0.265 0,0.265 0,0 0.515,0 2.009,0 4.461,0 6.839,-0.926 10.234,2.775 0.538,0.586 0.877,1.156 0.717,1.57 -0.123,0.32 -1.564,0.756 -2.76,0.954 -2.913,0.48 -5.004,1.167 -7.32,1.324 -3.283,0.224 -13.392,-0.426 -15.96,-4.504 -0.524,-0.832 -1.103,-2.622 -1.2,-3.709 -0.15,-1.682 -0.226,-2.404 -1.752,-2.12 -3.175,0.592 -8.202,3.791 -9.487,7.185 -0.434,1.146 -0.422,1.556 -1.121,1.956 -2.064,1.183 -9.585,0.552 -10.656,0.398 -1.499,-0.216 -3.059,-0.542 -3.984,-1.855 -0.334,-0.474 -1.18,-2.504 -1.776,-2.385 -0.321,0.065 -0.539,0.9 -0.864,1.501 -1.114,2.069 -6.754,3.897 -8.544,4.063 -1.433,0.133 -5.454,-0.32 -6.816,-1.457 -2.537,-2.118 -3.547,-11.298 -3.858,-12.54 -0.288,-1.151 -1.091,-3.438 -2.042,-5.874 -1.74,-4.456 -6.432,-14.117 -10.375,-16.822 -0.798,-0.548 -1.575,-0.774 -2.085,-0.135 -0.034,0.042 -0.078,0.127 -0.13,0.247 -1.323,3.052 -1.631,5.948 -0.642,9.158 0.165,0.535 0.358,1.095 0.572,1.698 0.068,0.103 0.135,0.2 0.2,0.29 4.398,6.052 7.851,10.537 9.6,17.222 0.686,2.621 0.332,5.765 -0.48,8.478 -1.499,5.013 -8.993,15.522 -14.808,14.838 -2.437,-0.287 -4.914,-1.329 -6.072,-3.18 -1.667,-2.665 -3.534,-12.228 -3.24,-14.731 0.135,-1.145 0.24,-2.52 0,-2.756 -0.764,-0.751 -1.176,0.578 -1.32,1.59 -0.846,5.922 -1.243,22.678 5.908,26.042 2.445,1.15 4.598,1.203 6.64,0.513 4.336,-1.466 14.127,-11.767 15.48,-16.632 1.656,-5.953 -0.258,-13.936 1.605,-6.074 0.107,0.449 0.219,0.926 0.338,1.433 z m 42.992,-2.89 c -0.112,-0.102 -0.171,-0.425 -0.123,-0.627 0.116,-0.489 3.001,-1.248 3.024,-1.235 0.395,0.215 0.922,2.292 1.056,2.967 0.236,1.185 0.116,1.632 -0.768,1.272 -0.944,-0.384 -2.446,-1.703 -3.189,-2.377 z m -65.163,-12.999 -0.24,0 0,-0.265 c 0,0 -1.995,0.157 -2.906,0.412 -0.281,0.078 -0.459,0.166 -0.663,0.234 -2.645,0.882 -5.077,-0.736 -6.391,-2.766 -1.305,-2.017 -0.745,-5.573 0.48,-8.478 1.648,-3.908 5.941,-11.108 6.6,-13.38 0.054,-0.186 0.098,-0.361 0,-0.398 -0.075,-0.028 -0.234,0.027 -0.344,0.073 -0.149,0.061 -0.21,0.131 -0.61,0.694 -2.324,3.271 -3.858,5.658 -5.219,8.561 -2.229,4.753 -6.033,13.241 -1.652,17.995 1.064,1.155 2.072,1.714 3.74,2.087 3.057,0.684 7.106,-0.005 7.205,-4.133 0.007,-0.293 0,-0.636 0,-0.636 z"
     style="fill:#000000;stroke:none" />
</svg>
