<?xml version="1.0" encoding="UTF-8" standalone="yes"?>
<svg>
<path
	style="stroke:none; fill:#000000"
	d="m 168.28498,77.90699 -10.47375,0.36625 c -1.7625,0.0612 -2.14376,0.0612 -3.80375,-0.001 -6.28751,-0.23624 -11.34751,-4.75749 -14.03875,-9.18249 -1.78876,-2.94125 -2.20125,-5.72125 -3.0225,-11.6625 -1.4875,-10.76625 -3.135,-32.03876 -3.4075,-44.03626 -0.14124,-6.1912401 -0.23125,-13.37124051 -0.23125,-13.37124051 0,0 -0.95,-0.0687 -1.56751,0.055 -0.87624,0.1775 -1.07874,0.74626038 -1.32499,1.35375041 -0.78999,1.95375 -2.025,4.31375 -2.70375,6.84125 -0.57875,2.1562601 -0.22,12.4150001 0.66625,19.0550101 2.10374,15.78 4.0625,39.62624 6.24624,47.835 2.45627,9.23375 7.48375,13.80625 17.08126,15.095 3.865,0.518746 9.2375,0.331246 12.52376,-0.4375 2.00749,-0.46876 3.81749,-1.15875 5.83125,-1.51126 4.51249,-0.78874 10.04749,0.1187 15.75999,0.10371 8.55,-0.0237 13.61125,-1.12126 16.12375,-4.48625 3.24001,-4.34 7.07626,-13.01626 6.31375,-15.78001 -1.24625,-4.51125 -6.9,-6.58624 -11.7975,-10.18 -1.1275,-0.8275 -2.4075,-1.89624 -2.03625,-2.3375 0.20751,-0.2475 0.93875,-0.30125 1.3325,-0.52999 1.35125,-0.78501 -0.94374,-2.97 -2.47374,-3.88626 -1.22875,-0.73625 -2.62126,-1.27249 -3.67126,-2.15999 -2.1425,-1.81 -3.41499,-3.83375 -4.5375,-1.73626 -0.5625,1.05 -1.3375,3.03251 -1.74875,4.62251 -0.54875,2.1225 -0.45375,3.54875 -1.2675,4.53125 -1.21625,1.47 -4.465,1.9475 -6.44749,3.5325 -2.0525,1.63999 -4.41875,6.91499 -5.51251,10.6525 -0.88875,3.04249 -1.8125,7.25499 -1.8125,7.25499 z M 199.38374,76.167 c 0,0 -4.63501,0.1625 -8.51501,0.29749 -4.66125,0.16251 -5.015,0.83751 -3.2225,-1.87375 1.9625,-2.96999 1.7325,-6.68373 1.855,-6.70374 0.34626,-0.0575 0.75,-0.0137 1.22875,0.0837 1.60126,0.32499 8.335,5.04749 8.5775,6.015 0.26126,1.04 0.0762,2.18124 0.0762,2.18124 z m -20.94126,-0.57625 c -2.37625,0.89 -6.33875,-1.24251 -5.98125,-2.79875 0.9025,-3.9275 6.0575,-4.77875 9.15,-3.59 1.1075,0.42625 3.2725,1.58125 2.6025,3.14125 -0.44374,1.03375 -5.75625,3.2425 -5.77125,3.2475 z M 113.91122,0.14949949 c -3.58999,-0.67 -7.86999,1.02250041 -9.16875,2.93624041 -1.95624,2.88125 -3.30249,9.5837601 -2.53499,11.6475101 0.6875,1.8525 2.90374,3.04249 2.92875,4.105 0.0125,0.5725 -2.25625,1.75624 -5.622507,3.19 -17.519998,7.46624 -20.975008,8.90375 -39.854998,11.42249 -3.08626,0.41126 -6.83625,0.94251 -11.56,1.69125 -8.18126,1.29751 -12.60875,2.76125 5.47499,3.67376 15.05625,0.75875 30.68501,-3.2325 44.722498,-10.1025 0.69876,-0.3425 1.29,-0.66001 1.751257,-0.94625 4.94751,-3.07125 11.67126,-8.84125 12.98751,-2.53251 0.66749,3.20501 -3.41751,15.54501 0.71,12.84126 1.50375,-0.98625 3.85124,-7.3475 4.00374,-8.90125 0.35001,-3.56125 -2.86874,-9.15876 -2.40124,-12.59876 0.295,-2.1775 1.85875,-3.83874 2.72875,-6.10999 1.42374,-3.7175001 1.62125,-7.4487601 -0.63501,-8.8050001 -0.98999,-0.595 -2.58624,-1.33375001 -3.53,-1.51125041 z M 112.86123,13.91574 c -0.35375,0.23251 -1.06251,0.085 -1.6875,-0.1187 -1.29375,-0.42125 -6.74875,-3.19501 -5.90876,-5.1075101 0.90376,-2.05625 5.74876,-2.13875 6.91501,-1.94124 2.65749,0.45 4.755,1.64499 3.61875,4.0187501 -0.58375,1.22 -2.03626,2.55874 -2.9375,3.14874 z m -28.050005,87.83501 c 3.66999,1.34626 8.14624,0.39501 12.56624,-1.29751 4.041265,-1.547494 17.838765,-9.398744 21.512515,-12.24 1.0525,-0.81374 5.57624,-11.55749 5.5325,-13.13499 -0.1237,-4.34 -0.87125,-10.39751 -1.33249,-13.79625 l -0.26001,-1.91125 2.4275,-1.0575 c 0.6575,-0.28501 1.17,-0.5275 1.56,-0.74 l 1.5375,-0.83501 -2.3275,-1.9325 c -4.47,-3.7125 -4.41376,-4.9125 -6.65625,-9.36749 -0.0675,-0.2825 -0.13625,-0.57626 -0.205,-0.88126 -1.7625,-1.61124 -3.1475,-0.66124 -5.3175,3.345 -0.57626,1.06251 -1.47625,3.32251 -1.22251,5.01251 0.10496,0.70125 0.18001,0.965 0.75626,2.6325 1.9375,5.615 4.16375,11.79125 5.25,17.01874 0.225,1.08251 0.40125,2.12501 0.3075,3.19876 l -0.135,1.53625 -3.31,2.2275 c -5.09,3.42375 -15.896257,10.787496 -23.816255,11.093746 -6.79625,0.26376 -11.31,-9.188756 -11.46375,-13.581246 -0.0275,-0.80375 -0.11995,-3.44375 -0.11995,-3.44375 l -2.35501,0.28375 c 0.0225,0.0212 0.0462,0.0437 0.0687,0.0675 0.37626,0.38251 -0.1,3.92876 -0.70875,6.54876 -2.79875,12.029986 4.05751,19.9125 7.71126,21.25375 z m -15.62501,-17.06 c -1.3175,0.635 -2.7575,1.28374 -4.27499,1.93001 -10.83375,4.613736 -24.545,9.506226 -36.49626,8.807486 -10.87249,-0.63625 -19.5587398,-3.2625 7.55125,5.857514 2.63125,0.57624 5.13126,1.02374 6.40125,1.075 4.68001,0.18749 9.49251,-0.56501 14.65876,-2.636265 2.33,-0.934999 5.02875,-2.217499 7.67874,-3.562489 16.695,-8.477506 21.57376,-13.286266 26.77626,-25.783756 1.00875,-2.42125 1.4125,-4.7 2.39125,-7.73625 0.95999,-2.9825 1.98875,-6.9375 1.38125,-7.24 -0.27126,-0.13375 -0.70001,-0.075 -1.0475,-0.0225 -0.4675,0.07 -0.57376,-0.11121 -1.05375,-1.81125 -2.4475,-8.6475 -3.00125,-11.21499 -10.40876,-13.41999 -2.96124,-0.88126 -4.24249,0.38124 -6.53375,3.4975 -3.35999,4.5675 -5.22249,11.46374 -5.57624,18.17374 -0.13251,2.51625 0.47625,5.38 1.3575,6.385 0.575,0.65501 1.3525,1.02 2.16874,1.29125 5.90126,1.965 1.90125,1.6925 7.36876,0.2 1.67,-0.45625 4.38625,-1.1925 5.99625,-1.60124 1.62125,-0.41126 1.76875,-0.28126 1.69624,0.63874 -0.025,0.31376 -0.155,0.49876 -1.29624,1.84751 -0.61875,0.72999 -1.36,1.63624 -2.10876,2.50249 -2.2775,2.6325 -12.89374,9.805 -16.63,11.60751 z m 14.42751,-25.6125 c -3.3325,0.83625 -7.765,-1.48376 -8.64375,-4.14375 -0.76875,-2.325 1.62875,-3.93376 3.93,-3.53751 1.51249,0.26001 8.57875,3.35626 7.92124,5.93376 -0.16874,0.66249 -1.98499,1.44 -3.20749,1.7475 z m -24.28001,-2.63 c 0.0262,-0.15625 0.16751,-0.2525 0.36625,-0.31625 4.38251,-0.49 3.97876,-0.60875 2.41251,-2.00001 -4.355,-3.86625 -3.65625,-5.40375 -5.95,-10.56749 -0.61625,-1.39 -1.44125,-2.1775 -3.0725,-1.55001 -1.72501,0.66501 -6.82126,6.85126 -6.0025,8.97126 0.36375,0.94 1.6825,1.53625 2.71625,2.495 1.88999,1.75124 5.42124,14.83875 4.49625,16.8275 -1.11625,2.40375 -14.44751,7.0975 -17.1525,7.56876 -3.02376,0.52624 -6.34001,0.47874 -9.54125,-0.14001 C 3.8337151,73.13825 15.533715,43.162 10.672475,55.51074 8.6324652,60.69075 7.5599651,65.1095 7.6749651,70.4645 c 0.49,23.037496 28.3562599,21.397496 41.4112499,11.94625 3.05376,-2.21125 5.73501,-4.39375 6.43626,-5.17625 1.15375,-1.2875 4.10125,-9.55375 4.115,-11.53375 0.02,-3.29875 -0.70251,-6.97251 -0.30376,-9.2525 z M 47.309965,11.48949 c 0.18625,2.57625 1.38875,4.17751 3.57376,4.64001 2.82,0.59625 4.415,-0.93251 5.13749,-4.02626 0.15875,-0.67875 0.12245,-1.24374 -0.31374,-1.51749 -0.83125,-0.51875 -3.11251,0.02 -4.215,-0.565 -1.3725,-0.7287501 -1.72126,-3.8275001 -1.38125,-5.2762501 0.33875,-1.45001 1.205,-3.0025 1.44125,-4.12001003 0.0475,-0.22623998 0.07,-0.43374038 -0.0287,-0.55000038 -0.0125,-0.015 -0.025,-0.0287 -0.0375,-0.0425 -3.31875,-0.75625 -4.12624,12.15375051 -4.17625,11.45749051 z m 28.91001,0.54376 -6.66126,6.6175 c -1.1075,1.1 -1.265,1.2975 -1.57375,1.97499 -0.43374,0.94751 -0.58375,2.53376 -0.37124,2.74876 0.69,0.6975 3.13,-0.99376 3.97875,-1.62 7.43624,-5.48376 10.82375,-8.9375 12.02625,-16.0387601 0.61,-3.60999 -1.30001,-5.00624003 -4.68251,-5.46749041 -5.365,-0.73001 -10.68874,0.0175 -12.77374,4.05624041 0.32624,15.4225101 0.78374,6.6037501 5.33375,5.5087603 5.06125,-1.2175003 10.50375,-3.9237503 4.72375,2.2199998 z m -40.79125,37.9325 -6.6625,6.61749 c -1.10625,1.10001 -1.26375,1.29751 -1.57376,1.97501 -0.43375,0.94875 -0.58375,2.53374 -0.37,2.74874 0.69001,0.69751 3.12875,-0.99374 3.9775,-1.61874 7.43625,-5.485 10.82376,-8.93875 12.02625,-16.04 0.61126,-3.61 -1.29999,-5.00625 -4.68125,-5.46625 -5.36499,-0.73125 -10.68999,0.0163 -12.77375,4.055 0.32501,15.42249 0.78376,6.60375 5.33251,5.50874 5.0625,-1.21749 10.50374,-3.92375 4.725,2.22001 z m -18.3825,-11.2725 0.22374,-2.765 -3.92125,0.8775 C -5.7155309,41.06825 9.0499652,8.6444999 5.3974651,14.577 c -4.20737,6.83125 -6.04724602,14.98875 -5.19299602,22.28499 0.09313,0.79625 0.19475,1.52001 0.318875,2.18376 C 2.5137151,49.68324 16.391215,46.777 17.046225,38.69325 z m 15.4,-21.12125 -7.53001,7.53 7.53001,7.53 7.52874,-7.53 -7.52874,-7.53 z"/>
</svg>