<?xml version="1.0" encoding="UTF-8" standalone="no"?>
<svg>
  <path
     d="m 18.636727,74.575 c 0,0 0.742625,-1.71125 1.191875,-3.0675 0.757625,-2.28875 0.635125,-3.9425 0.336875,-6.31125 -0.833875,-6.60625 -2.11575,-21.5675 -2.11575,-21.5675 0,0 2.30025,-0.25875 4.05775,-0.2125 4.75375,0.12375 6.13875,2.3625 8.63875,-0.135 1.6275,-1.6275 3.08375,-7.39 2.0425,-9.54125 -1.19125,-2.46125 -5.225,-3.6475 -7.07875,-1.63875 -0.855,0.92625 -1.3425,2.38875 -2.32125,3.35125 -1.515,1.49125 -4.20775,1.78625 -5.5415,3.02875 -2.284,2.12875 -2.590375,17.005 -2.17,20.52875 0.709125,5.945 2.9595,15.565 2.9595,15.565 z M 57.287477,8.94875 52.333727,13.87 c -0.82375,0.8175 -0.94125,0.965 -1.17125,1.46875 -0.3225,0.705 -0.43375,1.88375 -0.27625,2.04375 0.51375,0.51875 2.3275,-0.73875 2.96,-1.20375 5.53,-4.07875 8.04875,-6.6475 8.9425,-11.92875 0.455,-2.68375 -0.96625,-3.7225 -3.48125,-4.065 -3.99,-0.54375 -7.95,0.0125 -9.5,3.01625 0.2425,11.46875 0.5825,4.91 3.96625,4.09625 3.765,-0.90625 7.81125,-2.9175 3.51375,1.65125 z m 25.8675,62.835 c -0.44125,2.75625 0.09625,3.4325 1.92875,2.58625 1.2475,-0.57625 17.347503,-9.94125 19.698753,-12.745 0.94625,-1.13 1.89125,-3.1275 2.225,-4.925 0.205,-1.1075 -0.1275,-1.0675 -1.32,-0.625 -2.7625,1.0275 -20.976253,12.115 -21.547503,13.1175 -0.53375,0.93625 -0.875,1.90625 -0.985,2.59125 z M 28.922477,19.495 28.372477,8.99125 C 28.291227,7.43375 28.258727,7.1625 28.051227,6.28 c -0.63625,-2.70625 -2.35,-4.1875 -4.14125,-5.145 -2.2775,-1.21625 -4.015375,-1.6675 -6.362625,0.045 -1.930125,1.4075 -2.11175,6.50625 -1.353125,7.30375 0.566,0.595 2.066,0.54125 3.881375,0.115 4.534375,-1.065 4.989375,-0.81875 6.170625,3.97625 0.56125,2.27875 0.6275,4.41375 0.35125,6.705 -0.58625,4.8675 -1.96375,7.235 0.735,10.0925 1.12375,1.18875 2.2975,1.36875 4.86,0.84125 1.82125,-0.375 2.1825,-1.22125 2.94625,-3.74375 0.5375,-1.775 0.9625,-3.365 0.825,-5.13375 -0.27375,-3.5125 -4.07,-10.1125 0.50625,-11.7525 0.84375,-0.3025 1.9425,-0.105 2.88875,0.10125 1.27625,0.27875 1.4925,0.1525 2.165,-1.26 0.5525,-1.16125 1.1925,-2.23 1.54375,-3.48 1.32,-4.6925 -0.70125,-6.01625 -4.7575,-4.095 -4.6525,2.205 -6.7425,11.65125 -5.74875,17.98375 0.30375,2.61125 0.6375,4.96125 0.6375,4.96125 0,0 -0.2775,-0.0038 -0.60875,-0.03625 -1.3025,-0.1275 -3.54125,-1.8575 -3.6675,-4.26375 z m 31.125,61.995 -4.12875,4.12875 5.9425,5.94125 5.94125,-5.94125 -4.12875,-4.12875 4.12875,-4.12875 -5.94125,-5.9425 -5.9425,5.9425 4.12875,4.12875 z m 33.8775,-69.60625 5.9425,-5.94125 -5.9425,-5.9425 -5.94125,5.9425 5.94125,5.94125 z m -0.15,6.73875 4.12875,4.12875 5.941253,-5.9425 -5.941253,-5.94125 -4.12875,4.12875 -4.12875,-4.12875 -5.94125,5.94125 5.94125,5.9425 4.12875,-4.12875 z m -21.62,50.545 c 0.80375,6.54125 2.16875,13.79375 4.445,16.51125 3.445,4.11375 14.6075,5.8225 18.30375,6.25375 3.125,0.365 6.176253,0.7575 9.028753,0.29875 2.62625,-0.4225 5.08375,-1.5675 7.7575,-1.99875 5.035,-0.8125 11.26,0.79 15.1125,-0.22125 5.06,-1.3275 9.63,-8.2775 10.5375,-14.70875 0.98875,-7 -7.39,-11.0075 -13.70125,-13.8 -1.3825,-0.6125 -2.915,-1.4775 -3.90375,-2.3025 6.97,-3.79 -2.83125,-1.4375 -4.9825,-7.7775 -0.17125,-0.05 -0.3325,-0.06125 -0.48125,-0.02375 -1.15375,0.285 -2.605,3.9325 -2.8475,4.55125 -0.62,1.5875 -1.18625,3.2275 -1.0325,4.8075 0.1875,1.9425 1.4625,3.79625 1.345,5.25 -0.1325,1.6425 -2.04,2.77625 -3.57375,5.25 -2.305,3.7175 -3.9525,11.35125 -3.9525,11.35125 0,0 -3.78375,0.185 -6.416253,0.05625 -7.2675,-0.355 -17.09375,-3.57125 -19.61,-10.015 -0.74375,-1.9025 -1.02875,-3.915 -1.245,-6.055 -0.4525,-4.49125 -3.96,-29.00375 -3.9925,-39.085 -0.02,-5.93875 1.1875,-14.43125 0.4625,-20.40625 C 73.029977,3.97625 72.214977,0.04 72.214977,0.04 c 0,0 -0.73625,-0.0975 -1.3575,0.0125 -1.865,0.32875 -3.95875,5.105 -4.12,7.3225 -0.09375,1.285 -0.0925,1.5975 0.0088,3.1225 0,0 0.62625,14.1125 1.15125,21.96125 1.1325,16.9225 3.9225,33.9775 4.2575,36.70875 z m 59.007503,11.50875 c 0,0 -11.22375,-0.4125 -11.8225,-0.43375 2.82375,-4.205 1.04625,-6.51125 1.36,-7.2425 0.08,-0.185 0.15625,-0.34 0.23,-0.46125 0.375,-0.6175 3.3225,0.29375 6.72,1.795 1.67125,0.73875 3.2775,1.8775 3.4925,4.07875 0.095,0.9625 0.02,2.26375 0.02,2.26375 z M 108.99498,77.555 c -0.16625,-0.4175 -0.17,-0.88875 0.0588,-1.405 0.20125,-0.4525 0.68,-0.91875 1.22375,-1.30625 2.50125,-1.78375 4.62375,-0.66375 5.47,2.33 0.05,0.17875 0.0875,0.37125 0.11125,0.58 0.004,0.03375 0.008,0.06875 0.01,0.10375 0.0863,0.9775 -0.40625,1.47 -0.99,1.71 -4.2825,1.75625 -6.3025,-3.0675 -5.88375,-2.0125 z M 77.983727,44.6625 c -0.3275,-0.3025 -0.6475,-0.63125 -0.96,-0.99 -0.415,-0.395 -0.8525,-0.77625 -1.21125,-1.01375 -1.65125,-1.09125 -2.1825,1.1525 -3.56,3.14375 -3.15375,4.55625 -8.0425,5.765 -11.8575,2.9325 -1.5175,-1.125 -3.08125,-2.9375 -4.43625,-4.58 -0.97375,-1.18125 -1.25125,-1.3 -2.775,-1.185 l -5.1075,0.385 c -1.52375,0.11375 -1.845,0.20375 -3.215,0.89625 -3.73,1.8875 -8.6625,7.08625 -9.60875,8.9475 -1.6,3.14375 -2.69625,9.39375 -1.53375,13.33375 0.41,1.39125 1.12125,2.58625 0.83,3.31 -0.30625,0.75875 -2.22625,1.06375 -3.94625,1.7875 -3.13,1.31875 -7.33375,6.53625 -11.237,9.1525 -2.32575,1.55875 -4.417375,2.6875 -6.424375,3.045 -16.8596252,3 0.368625,-49.16875 -8.5487502,-23.5775 -0.056125,0.16 -0.1125,0.32375 -0.169375,0.48875 C 0.65147675,71.10125 -2.7156482,80.53 3.3116018,89.96 c 5.63475,8.815 23.8596252,-8.58 27.6483752,-10.2775 0.42125,-0.19 0.905,-0.38 1.48125,-0.58875 2.90375,-1.0525 7.8125,-2.7725 10.08625,-2.7575 3.67375,0.025 9.86,1.61125 9.86,1.61125 0,0 1.70125,-4.0925 1.9725,-7.48625 0.1125,-1.41875 -0.02375,-2.71625 -0.02375,-2.71625 0,0 -2.91125,0.1475 -4.98,0.04375 -5.51625,-0.2775 -12.81875,-5.49 -12.445,-8.19125 0.13125,-0.95 3.77875,-4.72625 5.42125,-5.61125 2.57,-1.38625 6.545,-2.40125 9.095,-1.185 1.645,0.78375 3.23625,3.0175 5.28375,5.02875 3.26875,3.20875 4.625,3.0975 8.30125,1.33375 1.495,-0.7175 2.775,-1.58125 3.8625,-2.93375 1.80375,-2.24125 2.13625,-3.645 3.55125,-3.0675 0.575,0.235 1.28625,0.7475 2.06,1.32625 0.03875,0.02875 0.07875,0.05875 0.12,0.0875 10.1725,3.01375 9.9,1.93625 15.6275,-4.87375 0.8275,-0.98375 1.53625,-1.8275 1.53625,-1.8275 l 3.26625,2.14125 c 2.47625,1.62375 6.202503,4.2275 8.552503,3.25125 2.85125,-1.18375 6.30125,-9.40125 6.45875,-9.7625 1.7675,-4.04 1.4325,-7.1 -0.52375,-11.79125 -1.00375,-2.405 -2.67875,-5.74625 -2.67875,-5.74625 0,0 -0.88375,0.75875 -1.63,1.55 -8.616253,9.1175 -0.23375,9.37125 0.22875,15.05125 0.0312,0.38 0.04,0.8325 -0.06,1.06375 -0.18125,0.42 -0.71875,0.1175 -1.3,-0.185 -1.795,-0.9325 -6.946253,-2.99125 -8.095003,-5.27625 -0.435,-0.865 -0.55875,-1.57625 -1.64125,-1.2325 -0.48625,0.15375 -0.865,0.60625 -1.17875,1.14125 -0.9625,1.64625 -1.3075,4.08 -2.49875,5.3975 -0.37125,0.41 -1.125,0.83375 -2.0775,1.23375 -5.33875,2.245 -8.23875,2.13625 -10.60875,-0.04875 z"
     style="fill:#000000;stroke:none" />
</svg>
