<?xml version="1.0"?>
<svg xmlns="http://www.w3.org/2000/svg" version="1.1">
  <path
     d="m 125.52346,72.37027 c 0,0 0.211,0 0.452,0 0.252,0 1.272,-0.023 0.977,1.371 -0.221,1.045 -1.391,1.87 -1.911,2.81 -0.98,1.772 0.297,3.876 1.931,4.751 0.841,0.45 2.034,0.717 3.289,0.834 0.164,0.016 0.324,0.029 0.479,0.041 4.934,0.377 8.631,-2.445 12.567,-5.047 2.817,-1.863 5.555,-3.989 6.606,-5.776 -0.019,0.002 -0.038,0.004 -0.057,0.007 -0.348,0.039 -0.511,0.118 -1.629,0.789 -7.022,4.21 -10.98,7.382 -17.206,5.864 -2.054,-0.501 -3.274,-1.306 -2.398,-3.316 0.476,-1.091 1.398,-1.84 1.729,-3.448 0.369,-1.799 0,-4.673 0,-4.673 0,0 -1.434,-0.115 -2.318,0 -2.612,0.338 -5.338,5.271 -5.89,7.531 -0.123,0.506 -0.181,0.931 0,1.159 0.635,0.799 2.022,-0.504 2.629,-1.849 0.101,-0.224 0.186,-0.449 0.219,-0.689 0.044,-0.323 0.097,-0.359 0.531,-0.359 z m -90.028999,5.61 c 8.208,5.352 18.466,5.197 27.268,1.911 0.745,-0.278 1.474,-0.582 2.172,-0.966 1.552,-0.852 2.957,-2.103 4.587,-2.897 1.127,-0.548 3.382,-1.316 4.026,-0.965 0.856,0.466 1.344,2.546 2.25,3.379 0.557,0.513 1.545,0.685 2.414,0.483 2.232,-0.519 2.687,-1.544 4.02,-1.309 1.259,0.222 3.049,1.521 4.477,1.792 0.197,0.037 0.386,0.055 0.579,0.033 0.261,-0.03 0.389,-0.14 1.276,-1.1 3.145,-3.4 5.128,-6.949 0.462,-8.589 -0.947,-0.333 -1.788,0.344 -2.333,2.344 -0.239,0.878 -0.152,1.609 -0.479,1.797 -0.525,0.302 -2.121,-0.804 -3.309,-0.614 -1.492,0.238 -2.634,2.426 -4.2,1.07 -0.42,-0.364 -0.649,-1.006 -0.941,-1.574 -2.737,-5.32 -9.415,1.353 -14.518,3.495 -5.609,2.354 -16.577,2.973 -22.691,1.448 -1.897,-0.473 -3.967,-1.245 -5.552,-1.69 -0.787,-0.22 -0.864,-0.065 -0.769,0.773 0.04,0.348 0.166,0.465 1.261,1.179 z m -20.586,-1.609 c 1.421,0.004 2.839,-0.459 4.158,-1.481 3.956,-3.065 2.193,-7.774 3.588,-14.859 0.602,-3.061 4.281,-10.083 7.116,-12.952 1.652,-1.673 3.031,-2.015 3.778,-0.153 0.634,1.579 -0.832,6.187 -1.118,9.479 -0.457,5.273 1.46,8.66 5.943,9.276 3.47,0.532 10.335,-1.851 11.575,-3.59 0.764,-1.072 1.378,-2.824 1.378,-2.824 0,0 1.637,2.092 3.057,3.279 2.084,1.742 9.025,2.52 12.449,2.513 3.525,-0.009 9.418,-1.182 12.333,-3.162 0.831,-0.564 1.321,-0.897 1.321,-0.897 l 1.599,0.952 c 0.89,0.529 1.853,1.301 2.925,1.699 1.191,0.441 2.862,0.383 4.198,-0.147 0.354,-0.14 0.675,-0.289 0.974,-0.428 l 2.2,-1.028 1.574,1.221 c 0.233,0.181 0.472,0.367 0.725,0.526 2.528,1.587 6.277999,0.902 9.016999,-0.073 0.368,-0.131 0.716,-0.262 0.948,-0.516 l 1.288,-1.55 2.081,1.589 c 0.504,0.385 1.024,0.792 1.574,1.108 2.199,1.26 7.293,1.431 9.634,1.001 2.452,-0.45 5.016,-1.715 7.635,-2.44 3.922,-1.087 10.178,-1.492 13.986,-1.213 4.41,0.323 10.675,1.307 10.675,1.307 0,0 1.776,-3.748 2.492,-5.524 1.531,-3.801 -3.385,-1.667 -11.56,-4.535 -1.866,-0.655 -4.329,-2.314 -5.729,-4.288 -0.491,-0.693 -0.765,-1.364 -1.259,-1.996 -2.477,-3.171 -9.565,-5.055 -12.974,-5.096 -1.733,-0.02 -5.37,0.988 -6.384,1.77 -0.654,0.504 -1.379,2.943 -1.365,4.588 0.012,1.335 0.108,3.088 0.108,3.088 l 9,-0.731 c 1.299,-0.105 1.569,-0.078 2.697,0.271 1.952,0.606 4.505,2.208 4.39,3.666 -0.021,0.261 -0.161,0.336 -1.401,0.742 -8.095,2.65 -14.528,4.767 -19.998,-0.432 -0.587,-0.558 -0.977,-1.108 -1.211,-2.233 -0.336,-1.618 -0.35,-4.425 -0.35,-4.425 0,0 -0.715,-0.045 -1.158,0.04 -0.41,0.08 -1.466,1.505 -1.823,2.699 -0.245,0.82 -0.28,1.055 -0.346,2.357 l -0.212,4.206 -2.317,0.081 c -1.042,0.036 -1.238,0.028 -1.961,-0.085 -1.268999,-0.197 -1.994999,-0.583 -2.272999,-1.641 -0.447,-1.702 -0.119,-2.788 -1.405,-2.179 -0.575,0.272 -1.249,0.809 -1.945,1.264 -2.529,1.657 -5.628,2.526 -8.188,0.983 -0.741,-0.447 -0.827,-0.598 -0.859,-1.515 l -0.072,-2.041 c 0,0 -0.549,0.142 -1.042,0.302 -2.605,0.846 -3.654,2.2 -5.121,3.054 -3.617,2.105 -17.682,2.654 -22.253,-0.914 -2.949,-2.302 -0.896,-4.287 -3.024,-10.522 -0.655,-1.917 -1.792,-4.061 -1.792,-4.061 0,0 -1.725,2.746 -2.534,4.695 -1.597,3.846 -0.094,4.135 1.01,8.177 0.858,3.139 -3.137,4.445 -7.358,5.088 -1.357,0.206 -4.868,0.135 -6.343,-1.346 -0.316,-0.318 -0.369,-0.496 -0.535,-1.789 l -1.732,-13.479 c -0.166,-1.292 -0.236,-1.497 -0.704,-2.045 -3.059,-3.584 -6.455,-0.653 -8.838,2.385 -2.952,3.761 -5.849,8.507 -6.542,13.272 -0.516,3.553 0.049,7.484 -1.076,10.665 -0.628,1.774 -3.23,4.153 -5.585,3.467 -0.264,-0.077 -0.644,-0.297 -1.067,-0.589 -7.5299998,-5.192 -7.8739998,-16.412 -7.1049998,-23.005 0.271,-2.324 0.602,-4.626 0.992,-6.48 0.339,-1.612 0.838,-3.565 0.331,-4.359 -0.245,-0.384 -0.753,-0.326 -1.158,0.04 -0.952,0.861 -2.165,4.942 -3.02799997,8.632 -1.455,6.215 -1.024,11.705 0.26899997,16.319 3.126,11.161 9.9629998,16.811 13.7269998,16.822 z m 37.608,-39.91 5.896,-5.897 -5.896,-5.896 -5.897,5.896 5.897,5.897 z m 61.383999,-20.154 -0.14,-3.221 c -0.057,-1.303 -0.039,-1.536 0.188,-2.334 0.167,-0.592 0.344,-1.239 0.793,-1.657 1.095,-1.016 3.805,-0.665 5.061,-1.502 1.809,-1.206 1.81,-5.347 0.418,-7.025 -1.476,-1.78 -4.46,1.047 -5.683,2.664 -0.751,0.993 -1.462,2.132 -1.781,3.461 -0.149,0.615 -0.231,1.314 -0.347,1.926 l -0.567,2.997 -1.875,-2.385 c -2.566,-3.38 -1.784,-4.384 -5.555,-5.303 -1.263,-0.308 -4.003,-0.193 -4.529999,1.229 -0.412,1.114 0.555999,3.82 1.161999,4.463 0.466,0.494 2.353,1.721 3.132,1.796 1.274,0.123 3.876,-0.652 3.876,-0.652 0,0 2.101,3.023 3.384,4.443 0.56,0.619 1.023,1.119 1.741,1.132 0.296,0.006 0.723,-0.032 0.723,-0.032 z m 18.493,25.004 0.562,-0.01 c 0.253,-0.005 0.32,-0.158 0.678,-1.538 2.055,-7.933 2.43,-12.313 -2.625,-17.401 -0.832,-0.838 -1.802,-1.541 -2.427,-0.79 -0.424,0.51 -0.857,4.106 -0.664,4.891 0.338,1.374 1.34,1.82 2.497,2.752 2.613,2.107 3.267,3.687 2.935,6.493 -0.255,2.153 -0.956,5.603 -0.956,5.603 z m -26.099,-6.768 c -0.042,-1.123 -0.168,-2.533 -0.537,-2.888 -0.214,-0.206 -0.51,-0.056 -0.695,-0.168 -0.833,-0.5 0.584,-2.562 1.259,-3.35 6.13,-7.156 22.016,-16.04 30.409,-17.878 0.8,-0.175 1.6,-0.316 1.751,-0.045 0.075,0.134 -0.01,0.371 -0.139,0.638 -0.303,0.627 -0.789,1.386 -1.327,2.199 -11.178,16.879 6.454,-6.545 11.457,-7.203 0.457,-0.226 0.887,-0.408 1.268,-0.528 1.947,-0.613 4.055,-0.743 4.311,-2.609 0.036,-0.262 0.041,-0.588 0.033,-0.905 -0.085,-3.057 -5.075,-1.595 -8.591,-0.257 -3.254,1.238 -8.086,3.277 -13.211,5.649 -6.633,3.068 -26.49,12.279 -29.284,20.279 -0.901,2.577 -0.733,5.466 1.062,7.951 0.077,0.106 0.146,0.202 0.21,0.289 -0.81,-1.1 2.197,3.526 2.024,-1.174 z m -57.015999,-18.236 -0.14,-3.221 c -0.057,-1.303 -0.038,-1.536 0.188,-2.334 0.168,-0.592 0.345,-1.239 0.794,-1.657 1.094,-1.016 3.804,-0.665 5.06,-1.502 1.809,-1.206 1.81,-5.347 0.418,-7.025 -1.476,-1.78 -4.46,1.047 -5.682,2.664 -0.751,0.993 -1.462,2.132 -1.782,3.461 -0.148,0.615 -0.23,1.314 -0.346,1.926 l -0.568,2.997 -1.875,-2.385 c -2.566,-3.38 -1.783,-4.384 -5.554,-5.303 -1.264,-0.308 -4.004,-0.193 -4.53,1.229 -0.412,1.114 0.555,3.82 1.161,4.463 0.466,0.494 2.353,1.721 3.133,1.796 1.273,0.123 3.876,-0.652 3.876,-0.652 0,0 2.1,3.023 3.383,4.443 0.56,0.619 1.023,1.119 1.741,1.132 0.296,0.006 0.723,-0.032 0.723,-0.032 z m 21.122,30.261 0.562,-0.01 c 0.253,-0.004 0.321,-0.158 0.678,-1.537 2.055,-7.933 2.43,-12.314 -2.625,-17.402 -0.832,-0.837 -1.802,-1.54 -2.427,-0.789 -0.424,0.509 -0.857,4.106 -0.664,4.891 0.338,1.373 1.34,1.819 2.497,2.752 2.613,2.106 3.267,3.686 2.935,6.492 -0.255,2.153 -0.956,5.603 -0.956,5.603 z m -28.728,-12.025 c -0.041,-1.123 -0.168,-2.533 -0.537,-2.888 -0.214,-0.206 -0.509,-0.056 -0.695,-0.168 -0.833,-0.5 0.584,-2.562 1.26,-3.35 6.13,-7.156 22.015,-16.04 30.408,-17.878 0.8,-0.175 1.6,-0.316 1.751,-0.045 0.075,0.134 -0.01,0.371 -0.139,0.638 -0.303,0.627 -0.788,1.386 -1.327,2.199 -11.178,16.879 6.454,-6.545 11.457,-7.203 0.458,-0.226 0.887,-0.408 1.268,-0.528 1.947,-0.613 4.056,-0.743 4.312,-2.609 0.035,-0.262 0.041,-0.588 0.032,-0.905 -0.085,-3.057 -5.074,-1.595 -8.59,-0.257 -3.254,1.238 -8.087,3.277 -13.212,5.649 -6.632,3.068 -26.49,12.279 -29.284,20.279 -0.9,2.577 -0.733,5.466 1.062,7.951 0.077,0.106 0.147,0.202 0.211,0.289 -0.811,-1.1 2.196,3.526 2.023,-1.174 z m 43.647,-23.31 c -0.234,1.022 -0.483,3.274 0,4.191 0.232,0.441 0.628,0.617 0.978,0.979 1.916,1.982 2.749,7.896 2.401,9.864 -0.937,5.301 -4.876,8.907 -3.379,12.813 0.804,2.099 4.322,4.27 6.923,3.216 1.439,-0.583 3.608,-4.96 3.215,-6.441 -0.209,-0.786 -0.925,-1.497 -1.931,-2.008 -2.509,-1.275 -4.577,-1.147 -4.345,-2.848 0.117,-0.855 0.792,-2.033 1.207,-3.187 1.743,-4.842 0.762,-10.858 -0.885,-14.541 -0.856,-1.916 -1.713,-3.936 -2.929,-3.322 -0.478,0.242 -1.155,0.847 -1.255,1.284 z m -67.939,-11.233 0,5.793 c 0,0 -1.995,-0.512 -2.993,-0.483 -2.513,0.073 -2.752,6.442 -2.317,8.217 0.093,0.384 1.604,4.218 1.448,5.012 -0.159,0.806 -1.4,1.396 -2.173,2.22 -1.8989998,2.027 -1.8199998,7.467 0.242,8.932 3.867,2.747 13.797,-2.167 17.139,-3.621 4.872,-2.12 6.866,-3.213 10.011,-6.88 0.693,-0.808 1.579,-2.16 0.851,-2.776 -0.289,-0.244 -0.897,-0.031 -1.538,0.232 -3.568,1.465 -8.128,4.479 -12.462,6.286 -2.126,0.886 -6.542,2.51 -8.681,2.655 -1.66,0.113 -3.872,0 -3.872,0 0,0 -0.044,-0.61 0,-1.158 0.065,-0.807 2.437,-3.514 3.215,-3.67 3.314,-0.661 5.707,1.056 7.165,-2.413 1.734,-4.129 2.465,-8.488 0.966,-11.587 -0.304,-0.629 -3.468,-6.173 -4.567,-6.508 -0.765,-0.234 -2.434,-0.251 -2.434,-0.251 z m 0.483,16.414 c 0,0 0,0 0,0 0,0 0.103,-0.451 0.199,-0.874 0.71,-3.111 0.57,-1.739 0.372,-4.93 -0.057,-0.937 -0.088,-1.437 -0.088,-1.437 0,0 0.257,0.376 0.483,0.724 1.01,1.561 1.398,2.761 1.448,4.49 0.004,0.151 0.007,0.307 0.008,0.46 0.006,0.761 -0.305,1.175 -0.665,1.395 -0.628,0.384 -1.757,0.172 -1.757,0.172 z m -1.931,-4.773 c 0,0.835 0,1.877 0,1.877 0,0 -0.17,0 -0.406,0 -0.103,0 -1.043,-1.517 -1.043,-1.62 0,-0.477 0,-1.76 0,-1.76 0,0 0.335,0 0.402,0 0.735,0 1.047,0.787 1.047,1.503 z"
     style="fill:#000000;stroke:none" />
</svg>
