<?xml version="1.0" encoding="UTF-8" standalone="no"?>
<svg>
  <path
     style="stroke:none; fill:#000000"
     d="m 145.6029,86.94749 c 0.045,-0.24 0.1,-0.56375 0.01,-0.72875 -0.1675,-0.305 -0.83375,-0.0525 -1.50375,0.275 -1.885,0.9225 -3.7875,2.4425 -5.6875,3.52125 -0.86125,0.48875 -1.8325,0.98125 -2.855,1.36375 -2.955,1.105 -7.52,1.5375 -5.5975,-2.69375 1.04125,-2.29125 4.235,-4.6375 5.00375,-6.48625 0.4125,-0.99125 -0.18125,-3.64125 -1.5125,-4.3375 -1.8375,-0.9625 -5.85875,1.11 -6.87375,2.25 -1.34875,1.5125 -3.21,5.49 -2.12625,5.99375 0.57875,0.26875 2.09875,-0.7825 3.49125,-1.12125 0.5925,-0.14375 1.1625,-0.15875 1.35875,0.095 0.21625,0.28 -0.0175,0.88375 -0.34625,1.52 -2.05625,3.97125 -5.305,6.585 -4.505,9.295 2.39625,8.1125 14.995,-3.5175 19.5075,-7.27875 1.4125,-1.1775 1.57625,-1.345 1.63625,-1.6675 z m -6.9475,-62.26249 0.10875,4.13375 c 0.04,1.52125 0.10125,1.70875 0.6125,1.8775 1.06375,0.35125 3.20625,2.20375 3.565,2.54375 1.67625,1.58375 2.955,3.16125 3.34625,4.965 0.22,-0.1375 0.0687,1.76 -0.1025,3.83 -0.45875,5.54875 -0.455,7.50875 1.29,0.58875 0,0 0,0 0,0 1.60375,-6.36125 0.495,-12.73875 -4.9225,-16.84375 -0.84625,-0.6425 -1.62125,-1.10875 -2.015,-1.145 -0.875,-0.0775 -1.8825,0.05 -1.8825,0.05 z m -112.427493,16.56125 -7.4325,7.43375 7.4325,7.43249 7.43375,-7.43249 -7.43375,-7.43375 z M 25.461657,21.3125 24.860407,9.83 c -0.0887,-1.70375 -0.12375,-2 -0.35125,-2.965 -0.69625,-2.9575 -2.56875,-4.5775 -4.5275,-5.6225 -2.48875,-1.33 -4.39,-1.825 -6.95625,0.0475 -2.10937,1.54 -2.308,7.11375 -1.47862,7.985 0.61862,0.65 2.25862,0.59125 4.24362,0.12625 4.9575,-1.165 5.45375,-0.89625 6.745,4.34625 0.61375,2.49125 0.68625,4.825 0.38375,7.33125 -0.64,5.32 -2.14625,7.90875 0.805,11.03125 1.2275,1.3 2.51125,1.4975 5.3125,0.92 1.99125,-0.41 2.38625,-1.335 3.22,-4.09125 0.5875,-1.94125 1.0525,-3.67875 0.9025,-5.61375 -0.29875,-3.83875 -4.45,-11.055 0.5525,-12.84625 0.92375,-0.33125 2.12375,-0.115 3.15875,0.11 1.395,0.30375 1.63125,0.16625 2.36625,-1.3775 0.605,-1.27 1.30375,-2.43875 1.68875,-3.805 1.44375,-5.13 -0.76625,-6.5775 -5.20125,-4.47625 -5.08625,2.41 -7.37125,12.7375 -6.285,19.66 0.3325,2.85375 0.6975,5.42375 0.6975,5.42375 0,0 -0.30375,-0.004 -0.66625,-0.0387 -1.42375,-0.14125 -3.87,-2.03125 -4.00875,-4.6625 z m 44.34875,-1.36625 -0.17125,-3.94125 c -0.07,-1.5925 -0.0462,-1.8775 0.23,-2.85375 0.205,-0.72375 0.42125,-1.51625 0.97125,-2.02625 1.33875,-1.2425 4.6525,-0.81375 6.18875,-1.8375 2.2125,-1.475 2.21375,-6.54 0.51125,-8.5925 -1.805,-2.17625 -5.455,1.28 -6.95,3.25875 -0.91875,1.215 -1.78875,2.6075 -2.18,4.2325 -0.18125,0.75375 -0.28125,1.6075 -0.4225,2.35625 l -0.695,3.66625 -2.2925,-2.91875 c -3.13875,-4.1325 -2.18125,-5.36125 -6.79375,-6.485 -1.545,-0.3775 -4.89625,-0.23625 -5.54,1.50375 -0.50375,1.36125 0.67875,4.67125 1.42,5.4575 0.57,0.605 2.87875,2.105 3.83125,2.1975 1.5575,0.15 4.74125,-0.7975 4.74125,-0.7975 0,0 2.56875,3.6975 4.1375,5.43375 0.685,0.7575 1.25125,1.3675 2.13,1.385 0.3625,0.006 0.88375,-0.0387 0.88375,-0.0387 z M 16.047907,47.93 c -1.74,-0.17875 -4.97562,1.3675 -6.8964997,1.18125 -1.1865,-0.115 -2.32575,-0.8575 -3.31887,-1.8975 -6.21399996,-6.5125 -2.78563,-11.9725 0.35875,-18.7675 1.68512,-3.64 3.20062,-6.7725 2.77112,-7.0875 -1.8585,-1.3625 -5.62575,8.5825 -6.49525,10.92375 -2.49336996,6.7125 -4.67162,17.195 1.7715,21.84749 2.60838,1.88375 8.2729997,2.65 10.3329997,-0.295 0.64625,-0.92375 0.98875,-2.12875 1.47625,-4.01499 0.22,-0.85125 0.47,-1.84125 0,-1.89 z m 27.77125,50.27249 c 0.71125,0.3 2.5625,0.51375 6.17875,0.505 1.08375,-0.04 4.5125,-0.165 7.43125,-0.27125 4.43375,-0.1625 8.65375,0.1775 12.4375,-2.75375 1.08375,-0.84 1.745,-1.99625 3.12,-4.26875 0.6,-0.9925 1.21875,-1.84125 2.16125,-2.06625 2.01875,-0.48375 5.525,1.89 6.89625,1.18125 0.76624,-0.3975 0.86499,-1.7575 1.82124,-2.1125 1.5775,-0.585 5.48875,1.5675 7.03625,0.93125 1.6575,-0.6825 3.07375,-5.37625 2.75125,-7.08625 -0.3525,-1.86875 -1.135,-3.65 -2.42125,-2.645 -1.65125,1.29 -1.52875,2.53375 -3.27,2.4475 -0.98375,-0.0488 -2.01875,-0.685 -2.77625,-0.3925 -1.04875,0.405 -1.56625,2.59125 -2.55125,2.9525 -0.415,0.1525 -0.91374,-0.02 -1.46749,-0.29875 -5.5125,-2.77125 -5.36875,-1.99625 -9.95125,4.13625 -1.09375,1.4625 -2.33,2.4775 -3.845,3.295 -2.9475,1.59 -12.90125,4.35625 -16.1425,4.86375 -2.90375,0.45375 -8.5,1.41125 -7.40875,1.5825 z M 136.8129,0.5225 c -0.045,-0.14125 -0.415,0.01 -0.59125,0 -0.15625,-0.009 -0.14875,-0.2375 -0.225,-0.36625 -0.12375,-0.21 -0.5975,-0.1625 -1.07,-0.115 -0.9275,0.0925 -1.8525,0.1775 -2.77625,0.2675 -6.95625,0.67625 -40.427503,8.50375 -47.007503,10.9125 -7.44249,2.725 -16.33624,6.665 -26.99124,12.48875 -5.2475,2.8675 -11.05375,6.2725 -12.5775,8.085 -1.74125,4.01875 0.11375,9.1575 3.85,10.54625 1.70625,0.635 2.5825,-1.05125 2.95125,-4.02875 0.225,-1.82375 -0.7875,-2.78 -0.59125,-3.77875 0.155,-0.78875 5.80375,-4.24375 10.62875,-6.55375 2.19375,-1.05125 4.26625,-2.12125 6.25875,-3.1375 14.56124,-7.42125 36.749993,-13.695 53.072493,-15.28875 0.395,-0.0387 0.6075,-0.035 0.6,0.0188 -0.15125,1.1325 -2.4825,4.47 0.42625,3.085 1.91125,-0.91125 5.2375,-3.95375 7.54625,-4.75375 1.46375,-0.5075 2.5175,-0.115 3.54375,-0.59125 0.98375,-0.45625 3.67375,-4.48125 2.9525,-6.79 z M 62.794157,44.33 c -0.1375,0.8275 -0.32625,2.60375 0,3.35375 0.735,1.69 4.7775,-2.02 7.67625,-4.13375 11.505,-8.38625 39.917493,-18.79375 51.666243,-21.25625 1.57,-0.32875 1.98625,-0.19625 1.47625,1.88875 -0.37875,1.55125 -2.18125,6.3075 -1.77125,6.96875 1.0175,1.64125 3.3275,-4.4175 3.83875,-5.315 1.36875,-2.4075 5.78125,-5.7725 8.56125,-6.79 4.2825,-1.5675 5.74125,-0.7875 7.67625,-5.49125 0.385,-0.935 0.4375,-1.57125 0,-1.89 -0.63375,-0.46 -8.19375,1.3375 -14.35375,3.3025 -21.27,6.78375 -32.236253,8.28375 -49.301243,17.60125 -2.68875,1.4675 -14.735,7.3625 -15.46875,11.76125 z m 38.627493,18.61374 -3.446253,0 c -1.59375,0 -1.88125,-0.0375 -2.87375,-0.3725 -1.535,-0.5175 -2.545,-1.25125 -2.90375,-2.5025 -0.45125,-1.58 -0.2625,-2.98 -1.73375,-2.43875 -0.93875,0.345 -1.7725,1.6925 -2.71625,2.65625 -2.86125,2.9275 -8.82499,2.6475 -12.39999,0 -1.45375,-1.07625 -0.695,-1.64 0,-4.1325 0.175,-0.625 0.2175,-1.1875 0,-1.47625 -1.46,-1.94 -4.445,4.70625 -4.72375,5.01875 -2.0725,2.32375 -10.25125,3.70625 -13.935,3.2475 -4.65625,-0.58 -10.05375,-3.16875 -12.43875,-7.6025 -0.83875,-1.5575 -1.83625,-2.7825 -2.85375,-1.255 -1.2725,1.9075 -2.015,6.68 -2.0675,7.9725 -0.0925,2.33 1.49375,9.55625 2.6575,12.10375 2.75625,6.035 4.93875,7.8625 -0.88625,10.92375 -7.865,4.13625 -15.91125,4.94 -23.61875,1.77125 -6.335,-2.60375 -8.6343797,-5.69875 -9.4471197,-13.285 -0.4155,-3.87875 0.65774,-8.5375 2.6571197,-12.99 0.98425,-2.1925 2.23625,-4.4475 2.6575,-5.905 0.0687,-0.23875 0.115,-0.45625 0,-0.59125 -0.65,-0.755 -1.76175,0.175 -2.067,0.59125 -2.8269997,3.85125 -7.0366197,17.9425 -7.3808697,20.855 -0.683,5.77875 1.57862,15.94375 7.0856197,19.5925 4.98975,3.305 16.07225,4.1425 19.88725,3.2475 3.105,-0.72875 11.88625,-4.59125 13.475,-8.2675 0.5775,-1.33625 0.60125,-2.995 1.13625,-4.4725 1.1125,-3.0775 4.455,-7.28 4.4725,-9.69875 0.0138,-1.875 -0.59,-4.1325 -0.59,-4.1325 l 8.28125,0.48625 c 1.59125,0.0937 1.94,0.0587 3.485,-0.3525 1.79375,-0.47625 3.595,-1.0575 5.21,-1.9325 1.44625,-0.78375 2.74375,-1.8025 3.73125,-1.675 0.63875,0.0812 1.1475,0.64125 1.88625,1.15625 3.5175,2.45 7.34,3.1875 10.47249,1.43125 0.585,-0.3275 1.11375,-0.71125 1.60625,-1.05875 l 2.2725,-1.6 2.8675,2.4375 c 0.20875,0.1775 0.42,0.3525 0.635,0.51625 0.70375,0.54 1.4475,0.9725 2.255,1.18125 1.44625,0.3725 3.09875,0.0263 4.49625,-0.1825 l 8.616253,-1.28375 c 2.2925,1.8325 5.72125,2.3625 10.8975,2.39 0.66,0.003 1.3525,0.001 2.07875,-0.006 3.1725,-0.0338 6.6,-0.66875 9.585,-1.345 10.0875,-2.2875 14.39625,-2.83875 23.7025,-1.815 3.7475,0.4125 8.95875,1.0575 8.95875,1.0575 0,0 3.0575,-5.0225 3.94625,-7.19875 0.32375,-0.7925 0.165,-1.59 -1.1925,-2.085 -0.37375,-0.13625 -0.59125,-0.175 -2.17375,-0.38 -5.665,-0.73375 -10.34,-1.1625 -13.29875,-3.61 -2.8575,-2.36375 -5.33125,-7.06874 -8.56125,-9.74249 -3.46125,-2.865 -13.4025,-5.53875 -17.715,-2.9525 -1.89,1.13375 -3.00875,4.32875 -3.5425,7.02624 -0.28375,1.44 -0.48125,2.98125 0,3.3075 0.385,0.26 1.2025,-0.255 2.215,-0.59125 3.66875,-1.2175 11.78375,-0.51625 14.31875,1.47625 1.73125,1.36125 4.1325,4.13375 4.1325,4.13375 0,0 -4.10375,1.13875 -7.085,1.77125 -7.53875,1.5975 -23.87875,2.395 -25.98125,-5.31375 -0.6325,-2.32375 -0.75625,-9.00374 -3.1525,-6.79124 -0.8025,0.74 -1.47,3.56124 -1.57125,5.66874 0,0.004 0,0.007 0,0.01 -0.01,0.195 -0.0175,0.3875 -0.025,0.5775 0.16375,2.48375 0.385,4.61125 0.7025,6.43125 z" />
</svg>
