<?xml version="1.0" encoding="UTF-8" standalone="no"?>
<svg>
    <path
       style="fill:#000000;stroke:none"
       d="m 157.20265,16.315251 3.42001,3.78625 -0.13375,-5.04501 c -0.0325,-1.185 -0.015,-2.30625 0.1125,-2.9575 0.215,-1.09 1.61375,-3.6337502 2.0125,-3.7387502 0.5225,-0.13875 1.435,1.0475 2.485,1.1825 0.81125,0.105 1.7825,-0.4625 2.585,-0.9075 1.0825,-0.6 1.2025,-0.84375 1.2025,-2.44125 l 0,-6.11875997 c 0,0 -2.38375,-0.16875 -3.9525,0 -3.065,0.33125 -4.8675,3.06749997 -6.11125,6.62500997 -0.52876,1.51375 -1.05626,3.4525002 -1.05626,3.4525002 0,0 -0.7725,-1.0587502 -1.5,-1.9100002 -1.74875,-2.045 -8.11375,-6.31376 -9.57001,-6.39251 -2.05,-0.11 -4.1125,1.74125 -4.4375,3.66876 -0.49,2.89875 0.7325,8.0087502 3.6675,6.9825002 1.36875,-0.4775 3.29001,-2.15 4.05126,-2.115 0.7825,0.035 4.5025,3.1525 5.425,4.0475 0.5825,0.5625 1.20375,1.22126 1.8,1.88126 z m 20.40377,11.62876 c 0.005,0.68375 0.0437,1.62875 0.1975,2.4575 0.19,1.02625 1.05875,2.42625 1.97375,3.7375 2.44126,3.49251 3.50501,3.78626 1.99751,8.09626 -0.25875,0.74125 -0.5475,1.59875 -0.8025,2.65125 -0.29375,1.21 -0.0787,1.335 0.705,1.20375 0.2875,-0.0475 0.38625,-0.19 0.995,-1.42375 0.24,-0.48625 0.45125,-1.17625 0.635,-1.9475 0.92625,-3.9025 1.85375,-8.87751 -0.46375,-12.43251 -0.3525,-0.54 -0.735,-1.07625 -1.1025,-1.5925 -0.905,-1.27125 -4.16751,-6.59501 -4.13501,-0.75 z m -18.67751,68.23631 c -0.44876,2.79875 0.0975,3.48625 1.9575,2.6275 1.26625,-0.585 17.61376,-10.09376 20.00127,-12.94126 0.96125,-1.1475 1.92125,-3.17625 2.25875,-5.00125 0.20875,-1.12376 -0.12875,-1.08376 -1.33875,-0.63376 -2.80501,1.04251 -21.30002,12.30127 -21.88002,13.31877 -0.54,0.95 -0.8875,1.93625 -0.99875,2.63 z M 58.337565,44.989021 c 0.004,0.68375 0.0425,1.62875 0.19625,2.45875 0.19,1.02501 1.05875,2.42501 1.97375,3.73626 2.44126,3.4925 3.50501,3.78625 1.99751,8.09626 -0.25875,0.74125 -0.5475,1.59875 -0.8025,2.65125 -0.29375,1.21 -0.0787,1.33625 0.705,1.20375 0.2875,-0.0475 0.38625,-0.19 0.995,-1.42375 0.24,-0.485 0.45125,-1.17625 0.635,-1.9475 0.9275,-3.90251 1.85375,-8.87751 -0.46375,-12.43127 -0.3525,-0.54125 -0.735,-1.07625 -1.1025,-1.59375 -0.905,-1.27 -4.16751,-6.59375 -4.13376,-0.75 z m 29.77878,-18.78251 c 0.004,0.685 0.0437,1.62875 0.19625,2.45875 0.19125,1.02625 1.06,2.42625 1.975,3.73625 2.44,3.4925 3.50501,3.7875 1.9975,8.09751 -0.25875,0.74 -0.5475,1.59875 -0.80375,2.65 -0.29375,1.21125 -0.0775,1.33625 0.70625,1.205 0.28625,-0.0487 0.38625,-0.19 0.995,-1.42375 0.24001,-0.48625 0.45126,-1.1775 0.63376,-1.9475 0.9275,-3.90376 1.855,-8.87876 -0.4625,-12.43251 -0.35251,-0.54 -0.73501,-1.07625 -1.10376,-1.59375 -0.90375,-1.27001 -4.16625,-6.59376 -4.13375,-0.75 z m 25.813765,19.60001 -6.0175,5.97876 c -1,0.9925 -1.1425,1.17125 -1.4225,1.7825 -0.39125,0.8575 -0.5275,2.29 -0.33375,2.48375 0.6225,0.63 2.82625,-0.8975 3.59375,-1.4625 6.71751,-4.95375 9.77751,-8.07501 10.86251,-14.49001 0.5525,-3.26001 -1.17375,-4.52126 -4.22875,-4.93751 -4.84626,-0.66 -9.65626,0.015 -11.53876,3.66376 0.29375,13.93126 0.7075,5.965 4.8175,4.97625 4.5725,-1.10125 9.48876,-3.545 4.2675,2.005 z m 6.76001,43.45879 -6.43876,-6.4425 -8.16125,8.165 8.16125,8.16626 6.43876,-6.4425 6.44001,6.4425 8.16125,-8.16626 -8.16125,-8.165 -6.44001,6.4425 z m 35.39378,-52.16254 -6.4425,-6.44251 -8.16626,8.16626 8.16626,8.16625 6.4425,-6.44375 6.44251,6.44375 8.16626,-8.16625 -8.16626,-8.16626 -6.44251,6.44251 z m -68.277555,54.48755 -8.16626,8.16625 8.16626,8.166259 8.16626,-8.166259 -8.16626,-8.16625 z m -5.0775,-75.27507 3.42,3.78625 -0.13375,-5.04501 c -0.0325,-1.185 -0.015,-2.30625 0.11375,-2.9575 0.21375,-1.09 1.6125,-3.6337502 2.01125,-3.7387502 0.5225,-0.13875 1.435,1.0475 2.485,1.1825 0.81125,0.105 1.7825,-0.4625 2.585,-0.9075 1.08251,-0.6 1.20251,-0.84375 1.20251,-2.44125 l 0,-6.11875997 c 0,0 -2.38376,-0.16875 -3.95251,0 -3.065,0.33125 -4.8675,3.06749997 -6.11125,6.62500997 -0.52875,1.51375 -1.05625,3.4525002 -1.05625,3.4525002 0,0 -0.7725,-1.0587502 -1.50001,-1.9100002 -1.74875,-2.045 -8.11375,-6.31376 -9.57,-6.39251 -2.05001,-0.11 -4.11251,1.74125 -4.43876,3.66876 -0.48875,2.89875 0.73375,8.0087502 3.66876,6.9825002 1.36875,-0.4775 3.29,-2.15 4.0525,-2.115 0.78125,0.035 4.50125,3.1525 5.425,4.0475 0.58125,0.5625 1.2025,1.22126 1.79876,1.88126 z m -8.13751,7.07875 c -5.06251,3.12876 -8.39876,5.95626 -9.76501,10.11501 -0.4075,1.23625 -0.4075,6.60001 0,7.36126 0.52625,0.985 6.25375,5.715 7.33751,6.05875 0.37375,0.11875 0.6825,0.16625 0.94625,0 0.42625,-0.27 0.94,-6.09375 0.59125,-6.71 -0.38125,-0.675 -2.51751,-1.04875 -4.14126,-2.46125 -0.8225,-0.71626 -1.77625,-1.77626 -1.77625,-1.77626 0,0 2.37625,-2.335 4.29001,-3.93625 2.435,-2.0375 10.18,-6.65751 11.98376,-7.60251 3.9275,-2.0575 35.798775,-13.01751 35.798775,-13.01751 0,0 -2.07625,3.6975 -3.25375,6.50876 -0.84,2.00375 -2.45751,7.545 -0.7125,9.29251 1.295,1.29625 1.56125,-2.30626 2.19125,-4.55876 0.8725,-3.1175 8.37376,-11.33251 13.07751,-13.1800102 0.675,-0.265 1.37875,-0.43625 1.71625,-0.82375 0.24875,-0.2875 0.2975,-0.6925 0.39,-1.18375 1.22125,-6.46126 2.59,-8.38250997 -3.52875,-7.11000997 -0.93625,0.195 -3.48125,1.32374997 -6.44751,2.69499997 -1.36875,0.6325 -3.7975,1.48501 -7.7075,2.86376 -0.535,0.18875 -1.11251,0.39375 -1.72251,0.61 C 98.578855,11.977741 86.617595,15.961501 74.591335,23.394001 z m 59.433795,5.79751 c -5.49875,3.805 -8.92501,7.6375 -8.18251,13.23876 0.12126,0.91375 1.82376,3.55875 3.07876,4.7825 1.22375,1.19376 2.92625,2.74751 2.92625,2.74751 0,0 1.20125,-5.57751 0.93,-6.50501 -0.28625,-0.9775 -3.185,-3.9775 -3.185,-3.9775 0,0 4.945,-3.97751 8.72626,-6.62376 7.23375,-5.065 23.40877,-12.41876 30.30502,-14.84376 8.11751,-2.85376 18.96502,-5.85376 18.96502,-5.85376 0,0 -1.60625,3.17001 -2.37375,5.05376 -0.38875,0.95375 -0.56375,1.5775 -0.63875,2.40875 -0.1025,1.12125 -0.0937,1.42125 0.0975,3.0075 l 0.425,3.5375 c 0,0 0.91375,0.0413 1.40875,-0.17 0.38625,-0.16375 0.16125,-2.125 0.22375,-3.6025 0.15375,-3.65125 7.56751,-9.49751 9.88876,-10.69501 2.15375,-1.11125 4.6625,-2.0300002 5.82626,-3.1037502 1.67625,-1.54625 5.01375,-6.55751 3.8,-7.99500997 -1.68,-1.99125003 -7.02876,1.50249997 -10.14001,3.08624997 -1.99625,1.01751 -8.84126,2.54626 -16.42252,4.69251 -15.21376,4.3062502 -36.00253,14.1337602 -45.65879,20.8150202 z m -117.217605,32.10628 -1.55875,0.095 c -0.7,0.0437 -0.82,0.035 -1.19875,-0.0763 -0.6825,-0.20375 -1.545,-0.9125 -1.875,-1.59 -0.16,-0.32625 -0.18125,-0.425 -0.215,-0.98501 l -0.0763,-1.2475 1.24625,-0.0763 c 0.56,-0.0337 0.66125,-0.025 1.005,0.0938 0.96125,0.33125 2.49125,1.96626 2.58625,2.38376 0.1375,0.59875 0.0863,1.4025 0.0863,1.4025 z m 2.93876,-10.64001 -0.1475,-1.25875 c 0,0 0.82375,-0.145 1.40125,-0.0863 0.73625,0.075 1.075,0.48 1.5175,0.86625 2.59,2.26375 5.95501,3.15 4.4975,5.41625 -0.235,0.36375 -1.695,1.87625 -2.9875,2.98375 -1.76,1.50751 -2.8425,1.85501 -2.67,-0.0312 0.26875,-2.93125 -1.67125,-8.4 -1.61125,-7.89 z m 1.4,15.57251 c 0.62,-0.1825 1.2375,-0.36875 1.79,-0.615 3.76375,-1.68375 6.66626,-6.23875 7.02376,-9.80126 0.64125,-6.38625 -2.77626,-8.49126 -8.38251,-12.40126 -0.74875,-0.5225 -1.35125,-0.935 -2.595,-1.01375 -1.30625,-0.0825 -3.31876,0.2025 -3.31876,0.2025 0,0 -0.1025,3.07875 0.3225,5.27 0.475,2.45126 1.60876,3.79251 2.09126,5.43126 0.1075,0.365 0.18375,0.745 0.0538,0.8775 -0.1325,0.135 -0.4825,0.007 -0.8175,-0.20375 -2.62876,-1.6625 -2.76501,-4.03625 -4.85376,-2.96875 -1.14875,0.5875 -1.6775,1.9625 -1.76625,3.845 -0.0575,1.2 -0.035,1.5075 0.22125,3.06875 0.115,0.705 0.25375,1.50876 0.39375,2.34376 l 0.3975,2.38125 -3.2762502,1.92375 c -2.40626,1.4125 -5.39751,3.08 -6.02126,3.79625 -2.20749998,2.53251 -3.32499998,7.99626 -1.47999998,10.65126 1.82499998,2.62626 3.98124998,3.23126 6.84000998,3.23376 14.0437602,0.0125 24.9825202,-4.01626 34.9137802,-9.35626 0.5025,-0.27 0.89375,-0.50375 1.12625,-0.6825 0.26375,-0.2025 3.87,-4.77126 2.95875,-5.62126 -0.21125,-0.19625 -0.78,-0.0138 -1.38125,0.17625 -0.6,0.19 -1.31,0.4325 -2.0825,0.7125 -7.22876,3.21251 -9.10626,6.39751 -25.50127,8.19751 -0.265,0.0288 -0.53625,0.0588 -0.815,0.0888 -5.06751,0.55 -10.5337602,0.78875 -12.2125202,-0.89 -0.74125,-0.74125 -1.60375,-1.925 -1.60375,-1.925 0,0 2.005,-0.92375 4.60626,-2.08625 11.7587602,-5.25376 3.4950002,-1.71501 13.3687602,-4.63501 z m 18.92877,27.81253 c 0.2,2.76125 1.48875,4.48 3.83375,4.975 3.02375,0.64 4.73375,-1 5.50875,-4.3175 0.17,-0.7275 0.1325,-1.335 -0.33625,-1.6275 -0.89125,-0.55625 -3.3375,0.0213 -4.52,-0.6075 -1.4725,-0.78125 -1.84625,-4.10376 -1.4825,-5.65751 0.365,-1.555 1.29375,-3.22 1.54625,-4.41875 0.0512,-0.2425 0.075,-0.46625 -0.0312,-0.59125 -0.0125,-0.015 -0.0263,-0.03 -0.04,-0.0437 -3.55875,-0.81125 -4.425,13.03376 -4.47875,12.28876 z m -19.68877,1.84375 c 1.61375,1.8075 3.37625,3.16875 4.8525,3.26375 2.55625,0.16375 6.66376,-4.1425 8.11501,-6.84 3.995,-7.42376 1.42375,-9.43626 6.80501,-14.79377 2.41875,-2.40625 6.50375,-5.57375 6.50375,-5.57375 0,0 0.60125,7.20375 1.485,10.30876 0.97125,3.41375 6.29126,8.21 10.35501,9.76251 7.25001,2.77125 13.26877,1.42 21.36502,-0.94626 2.95501,-0.86375 10.58126,-1.9225 12.36376,-1.71625 2.88751,0.33375 6.43501,1.19625 6.43501,1.19625 l 3.879995,-10.84501 c 0,0 -5.154995,-1.66125 -8.539995,-3.07375 -2.43876,-1.01625 -3.96001,-1.905 -5.32626,-2.9575 -1.0275,-0.79375 -1.96875,-1.68 -3.66125,-2.7875 -2.035,-1.33126 -5.15501,-2.98251 -5.15501,-2.98251 0,0 4.56376,-4.86625 6.45001,-6.065 2.4725,-1.57125 6.3175,-2.79875 7.69251,-0.8875 0.6,0.835 0.95875,4.16125 1.47875,6.50875 1.96125,8.83501 12.897505,13.58752 21.006265,10.35501 2.375,-0.94625 4.9125,-2.66375 7.23125,-4.22375 1.3275,-0.8925 1.5525,-0.89125 2.24501,0.015 0.51375,0.6725 1.19875,1.42625 1.85,1.7225 2.61625,1.19125 7.3225,2.21375 9.46376,2.12125 0.53875,-0.0237 1.03375,-0.11 1.90125,-0.28875 2.01375,-0.4125 7.525,-2.2775 8.44625,-3.17125 1.07001,-1.03875 2.29626,-2.955 2.29626,-2.955 0,0 1.32625,2.0125 2.295,2.955 0.8975,0.8725 2.65375,1.36 4.01,1.75375 8.41126,2.44375 14.89252,1.355 23.78877,-0.335 3.55876,-0.67625 12.64252,-1.21375 14.34502,-0.8475 0.745,0.15875 5.99,2.32375 6.57125,0.47125 0.11375,-0.36125 0.0263,-0.84125 0.08,-1.25875 0.0462,-0.3725 0.205,-0.695 0.42375,-1.09125 1.32251,-2.39375 4.87001,-7.45376 4.87001,-7.45376 0,0 -1.3225,-0.585 -2.495,-1.0175 -2.87876,-1.0625 -5.86501,-1.20125 -8.03001,-1.78125 -1.575,-0.42125 -3.89625,-1.71125 -5.32501,-2.95875 -3.47,-3.02751 -7.8275,-8.98751 -9.46875,-10.05876 -1.65251,-1.08 -8.11001,-2.78626 -11.05251,-2.07126 -0.77876,0.18875 -1.31876,0.57375 -2.01751,1.40251 -1.9275,2.28375 -6.61375,10.79376 -6.61375,10.79376 0,0 7.0625,1.95125 8.92751,1.92125 1.6725,-0.0263 3.44625,-1.0275 4.36625,-1.1 0.44375,-0.035 0.8275,0.145 1.65625,0.8875 1.2,1.07625 3.3325,3.3325 3.3325,3.3325 0,0 -2.78,0.73 -4.89375,1.10625 -3.335,0.5925 -15.46251,-0.50125 -17.96502,-2.95875 -1.4225,-1.39625 -3.2975,-4.30001 -3.2975,-4.30001 0,0 -1.61875,2.66876 -2.62,4.00376 -2.79125,3.72 -12.02626,3.73375 -15.78752,3.255 -1.155,-0.1475 -2.38875,-0.70875 -3.1475,-1.48 -1.4325,-1.4525 -3.255,-4.4375 -3.255,-4.4375 0,0 -2.08125,2.29625 -3.84626,3.84625 -5.1625,4.53375 -13.54751,4.40625 -19.52751,1.18375 -3.19251,-1.72125 -5.462505,-5.04375 -6.212505,-9.17251 -1.085,-5.9675 0.57125,-7.49125 -3.83375,-7.36375 -3.38751,0.0987 -5.17126,0.5625 -7.70501,2.63 -3.34875,2.7325 -6.72126,7.15625 -9.76376,9.46751 -0.78125,0.59375 -9.09126,5.22125 -12.76501,5.6775 -1.53625,0.19 -1.74625,0.385 -2.10875,1.9425 -0.39125,1.68125 -1.85625,9.81126 -1.39875,10.13251 0.22375,0.15625 0.7475,-0.145 1.42375,-0.35125 1.32,-0.4 3.39125,-0.4175 5.41875,-0.0438 2.11875,0.39125 4.75876,1.025 5.36001,0.71 0.12125,-0.0625 0.22,-0.14875 0.345,-0.19375 0.91375,-0.33125 3.8675,1.2225 4.02125,1.89 0.0975,0.42875 0,0.94751 0,0.94751 l -8.28751,0.4875 c -1.595,0.0937 -1.94875,0.08 -3.5375,-0.13 -7.31376,-0.97251 -12.96001,-4.87501 -15.39501,-10.71251 -0.63125,-1.51376 -1.0925,-3.47876 -1.18376,-5.97751 -0.0613,-1.6825 0,-3.78625 0,-3.78625 0,0 -1.96375,-0.17875 -3.36125,0 -2.54875,0.325 -7.01,4.98625 -8.17751,6.50875 -4.39125,5.72626 -6.71375,20.91252 -13.77626,18.93877 -8.71751,-2.4375 -9.09376,-22.51877 -8.98001,-20.42752 -0.0913,-1.665 -0.125,-3.19625 -0.025,-4.05 0.0487,-0.41875 0.10875,-0.81875 0.17875,-1.20125 0,0 -1.98,1.7125 -1.98,1.7125 -0.06,0.6975 -0.22,2.54625 -0.395,4.49125 -1.815,20.16002 7.01751,28.67503 7.27626,28.96503 z" />
</svg>
