<?xml version="1.0" encoding="UTF-8" standalone="no"?>
<svg>
  <path
     style="fill:#000000;stroke:none"
     d="m 112.87743,53.503202 0.66875,-0.0125 c 0.3,-0.005 0.38125,-0.1875 0.80625,-1.828749 2.44375,-9.433744 2.89,-14.644991 -3.1225,-20.694987 -0.99,-0.99625 -2.14375,-1.832499 -2.88625,-0.94 -0.50375,0.60625 -1.01875,4.883747 -0.78875,5.817497 0.40125,1.633749 1.5925,2.163749 2.96875,3.272498 3.1075,2.506248 3.88625,4.384997 3.49125,7.722495 -0.30375,2.559999 -1.1375,6.663746 -1.1375,6.663746 z M 46.89997,27.123218 c 0.2125,2.924998 1.5775,4.743747 4.06,5.268747 3.20249,0.6775 5.01499,-1.058749 5.83499,-4.572497 0.18,-0.77125 0.14,-1.413749 -0.35625,-1.723749 -0.94375,-0.59 -3.535,0.0225 -4.78749,-0.6425 -1.55875,-0.827499 -1.955,-4.347497 -1.57,-5.992496 0.38625,-1.647499 1.37,-3.411248 1.6375,-4.679998 0.055,-0.257499 0.08,-0.493749 -0.0325,-0.626249 -0.0138,-0.01625 -0.0288,-0.0325 -0.0425,-0.04625 -3.77,-0.86 -4.68625,13.803742 -4.74375,13.014992 z m -8.90875,-9.918744 c -0.475,2.964998 0.1025,3.692498 2.0725,2.782498 1.3425,-0.619999 18.65499,-10.6912426 21.18499,-13.7062406 1.0175,-1.214999 2.03375,-3.3637482 2.3925,-5.29624717 0.22,-1.189999 -0.1375,-1.148749 -1.41875,-0.671249 C 59.25121,1.4169842 39.66372,13.340726 39.04997,14.418226 c -0.57375,1.006249 -0.94125,2.051248 -1.05875,2.786248 z m -27.85623,46.262472 -1.49875,0.14 c 0,0 -0.18375,-1.417499 -0.235,-2.494998 -0.0863,-1.836249 0.2125,-2.686249 0.2725,-3.802498 C 8.83999,54.223202 7.16124,48.993205 6.05999,45.619457 5.66874,44.421958 4.30499,41.676959 2.565,41.20196 c -1.85,-0.505 -2.0625,4.236247 -2.14625,5.299996 -0.0962,1.23875 0.0362,2.429999 0.37875,2.601249 0.27125,0.13625 0.69875,-0.01125 1.16,0.19125 1.61249,0.704999 2.68499,5.126247 2.95249,6.479996 0.255,1.292499 0.34,2.467498 0.66375,3.713748 0.3975,1.532499 0.845,2.438748 0.8125,3.622497 -0.0213,0.77875 -0.26,1.552499 -0.40375,2.398749 -0.4575,2.691248 0.2775,8.553745 1.76875,10.456244 1.1775,1.501249 4.38,2.636248 6.3475,2.234998 3.4425,-0.699999 3.75625,-1.507499 4.42625,-4.821247 0.65125,-3.224998 0.81375,-4.929997 -1.61125,-7.087496 -1.08875,-0.969999 -3.34875,-2.082498 -4.9725,-2.679998 -0.23125,-0.08625 -0.4575,-0.16375 -0.69875,-0.185 -0.32375,-0.0275 -0.435,-0.02375 -1.1075,0.04 z M 9.62249,11.513227 3.24875,17.844474 c -1.05875,1.051249 -1.21,1.241249 -1.50625,1.888748 -0.415,0.9075 -0.55875,2.424999 -0.355,2.629999 0.66125,0.666249 2.99499,-0.95 3.80749,-1.548749 7.11375,-5.247497 10.355,-8.552495 11.505,-15.3462396 C 17.28499,2.0144842 15.45624,0.67823423 12.22124,0.23823523 7.08749,-0.46051477 1.99375,0.25448523 0,4.1182324 c 0.31125,14.7562406 0.75,6.3174956 5.10249,5.269997 4.8425,-1.165 10.05,-3.753748 4.52,2.1249976 z M 80.3437,69.156943 c -0.71125,-0.335 -1.36375,-0.6725 -1.89625,-0.98625 -2.655,-1.566249 -0.99875,-3.434998 0.89375,-4.703747 3.8225,-2.564998 12.40124,-1.214999 15.67874,1.613749 0.57125,0.49375 1.12875,1.026249 1.63,1.558749 3.9925,4.249998 2.0725,4.871247 -0.31375,4.961247 -8.59625,0.32625 -10.66999,0.05875 -15.99249,-2.443748 z m -7.24,-4.518748 -1.2475,-4.772497 c -0.32875,-1.258749 -0.54375,-2.684998 -0.71625,-3.909997 -0.4025,-2.863749 -0.6,-5.769997 -0.6625,-6.832496 -0.37125,-6.333746 0.57625,-12.496243 0.36125,-17.751239 -0.17375,-4.248748 -1.1075,-7.902496 -1.445,-14.092492 -0.38249,-7.012496 0,-17.27873876921 0,-17.27873876921 0,0 -2.23499,2.75499796921 -3.79499,4.94874716921 -3.36625,4.737497 -3.2225,5.6974956 -1.91875,8.8112436 0.73875,1.766249 3.1425,23.599986 3.00375,27.286234 -0.19375,5.106247 -0.39375,11.276243 -0.27625,15.42374 0.24875,8.723745 0.67875,16.24124 8.45749,21.508737 4.1125,2.784999 9.0275,3.879998 14.14874,3.392498 4.625,-0.439999 9.84625,-1.878749 14.52624,-1.896249 6.2025,-0.02375 13.1425,1.634999 14.85125,0.8125 0.87749,-0.4225 4.29249,-6.219996 4.66124,-7.913745 0.23125,-1.06125 0.21875,-1.377499 -0.5425,-1.571249 -1.7375,-0.4425 -5.66749,-0.345 -8.12999,-1.08375 -3.60375,-1.081249 -6.6725,-4.201247 -9.03,-7.328745 -13.22374,-17.53499 -19.90998,-13.227492 -30.60248,0.421249 -1.36,1.51125 -1.64375,1.826249 -1.64375,1.826249 z M 53.07246,62.575697 c 0.2625,0.326249 0.47125,1.168749 0.2825,1.647499 -0.49624,1.261249 -7.50624,-0.65875 -8.67249,-1.355 -1.3375,-0.798749 -2.0925,-1.939998 -1.62625,-3.164998 1.46375,-3.841247 7.635,-0.1 10.01624,2.872499 z M 15.78499,96.704426 c 11.48499,4.202504 15.17624,3.463754 27.65998,-3.227498 9.77124,-5.237497 13.91499,-6.816246 16.23124,-16.67374 0.28375,-1.212499 0.475,-2.337499 0.92,-3.416248 0.57875,-1.403749 1.59,-2.732498 1.9725,-3.916248 0.86125,-2.661248 -3.15875,-12.826242 -5.14875,-15.54499 -4.69374,-6.411246 -9.19999,-7.496246 -13.54999,-2.168749 -3.1625,3.872498 -5.38875,11.631243 -4.6075,16.62874 0.64375,4.117498 4.5475,6.389996 9.3225,5.593747 5.65249,-0.9425 8.46999,-3.988748 9.64749,0.976249 0.305,1.286249 -0.02,1.707499 -1.08375,2.547499 -2.3375,1.844998 -4.52749,3.381248 -6.63124,4.688747 -11.16625,6.942496 -24.44999,10.053744 -37.39498,10.709993 -8.47375,0.43 -15.79374,0.97 2.6625,3.802498 z M 91.50244,20.158222 91.32869,16.175725 c -0.0713,-1.609999 -0.0475,-1.898749 0.2325,-2.884999 0.2075,-0.731249 0.42625,-1.531249 0.98125,-2.047498 1.3525,-1.2562496 4.70125,-0.82125 6.255,-1.8562486 2.235,-1.491249 2.2375,-6.6099962 0.51625,-8.68499517 -1.82375,-2.19999803 -5.5125,1.29499997 -7.02375,3.29374817 -0.92875,1.2275 -1.8075,2.634998 -2.2025,4.277497 -0.18375,0.76125 -0.285,1.624999 -0.42875,2.3824986 l -0.70125,3.703748 -2.3175,-2.948748 C 83.46745,7.2332304 84.43495,5.9919814 79.77495,4.8557324 c -1.5625,-0.38125 -4.94875,-0.23875 -5.6,1.519999 -0.51,1.376249 0.68625,4.7212466 1.435,5.5162456 0.57625,0.61125 2.90875,2.127499 3.8725,2.219999 1.575,0.1525 4.79125,-0.80625 4.79125,-0.80625 0,0 2.59624,3.737498 4.18249,5.492497 0.6925,0.765 1.26375,1.382499 2.15125,1.398749 0.36625,0.0075 0.895,-0.03875 0.895,-0.03875 z m -67.21246,-4.062497 0.62,10.937493 2.92125,53.447468 c 0,0 1.98125,-1.986249 3.16875,-3.794998 1.685,-2.562498 1.7725,-4.767497 2.28,-7.227496 0.3975,-1.929998 0.42375,-2.361248 0.26,-4.311247 l -3.1975,-38.132477 -0.30375,-6.472496 c 0.3175,0.175 0.62125,0.3325 0.90625,0.4725 l 4.91875,2.434998 -0.93875,-2.587498 c -0.1075,-0.29375 -0.22,-0.605 -0.33375,-0.9175 -1.365,-3.759997 -2.12125,-7.476245 -3.03,-11.3312426 -0.87,-3.688747 -2.02875,-8.60374417 -2.02875,-8.60374417 0,0 -0.8225,-0.04375 -1.5775,0.06375 -2.08,0.2975 -6.51875,6.91999517 -6.80625,8.42374417 -0.0275,0.1425 -0.0437,0.285 -0.05,0.42625 -0.0125,0.31125 0.0112,0.6375 0.065,0.976249 0.37875,2.4237486 1.6,4.4937476 3.12625,6.1962466 z m 68.86246,78.669951 c -2.0325,2.99125 -4.92875,5.246254 -4.3425,7.621254 1.40625,5.69999 10.64,3.55374 14.70249,1.68749 2.11125,-0.96999 5.52625,-4.244994 6.26625,-6.008744 0.30375,-0.725 0.51375,-1.4925 0.1375,-1.675 -0.24,-0.11625 -0.7175,0.006 -1.20875,0.1775 -1.76625,0.61375 -3.69625,1.85 -5.61375,2.5725 -3.25124,1.225004 -7.89624,1.670004 -8.95874,-1.34625 -0.2175,-0.615 -0.14875,-1.2375 0.15375,-1.87 1.95875,-4.103747 7.4775,-5.661246 6.48875,-8.729994 -1.36125,-4.227498 -6.315,-3.517498 -9.10125,-1.493749 -0.03,0.0225 -5.21125,4.973747 -3.6275,5.883746 0.25,0.14375 0.75625,0.05625 1.26875,-0.095 0.92625,-0.275 1.88,-0.757499 3.04125,-0.978749 1.92125,-0.3675 2.195,0.701249 2.00125,1.801249 -0.215,1.227499 -1.15,2.368747 -1.2075,2.453747 z M 77.33995,39.87071 c -0.7875,5.603747 0.8675,8.852495 5.16875,11.254994 0.9825,0.548749 1.7575,0.642499 2.25375,0 0.62875,-0.81375 0.38125,-5.126247 -0.35125,-6.099997 -1.1,-1.464999 -2.47625,-1.614999 -1.6725,-3.576248 0.25375,-0.619999 0.74875,-1.184999 1.35375,-1.727498 l 47.15622,-24.761236 c 1.40875,-0.854999 1.615,-1.698749 2.09625,-4.319997 0.3575,-1.9537486 -0.14625,-2.2249986 -4.31875,-1.3499986 -2.28125,0.47875 -3.88875,1.0287486 -5.30625,1.7037486 L 81.3337,34.844463 c -1.58625,1.19375 -3.70125,2.949999 -3.99375,5.026247 z M 111.75243,6.0769814 c -1.92125,0.335 -3.3975,0.723749 -4.695,1.204999 L 79.42745,23.62322 c -1.83,1.549999 -3.145,3.047498 -3.59375,4.393748 -0.28125,0.843749 -0.34,1.706249 0,2.159998 0.54625,0.73 1.99875,0.51125 3.9,-0.24875 5.855,-2.343748 29.68623,-16.843739 29.68623,-16.843739 4.3525,-1.0875 5.85125,-0.885 6.7525,-4.8112476 0.925,-4.033747 -6.9125,-1.762498 -4.42,-2.196248 z" />
</svg>
