<?xml version="1.0"?>
<svg xmlns="http://www.w3.org/2000/svg" version="1.1">
  <path
     d="m 17.54551,61.016894 -6.2375,6.5425 6.2375,6.54125 6.2375,-6.54125 -6.2375,-6.5425 z m 59.49125,-7.915 c 0.0163,-0.0688 0.0312,-0.13875 0.045,-0.21 0.1875,-0.965 0.2025,-2.16375 0.2025,-2.16375 0,0 -0.36,0.01 -1.13875,0.0312 -0.5725,0.03 -1.11625,0.0537 -1.6325,0.0725 l -6.035,-0.205 c -4.7825,-0.7575 -6.7225,-3.37 -15.47875,-9.60375 -1.96375,-1.3975 -3.99375,-2.09625 -6.685,-1.31125 -3.04625,0.8875 -6.93875,5.18375 -7.13125,9.365 -0.0462,1.0025 0.0538,2.15625 0.0538,2.15625 0,0 1.6025,0.095 2.87875,-0.0788 1.91,-0.25875 3.08625,-1.1175 4.1775,-1.53875 1.38875,-0.5375 2.04375,-0.13125 3.73,1.0525 2.99875,2.1025 6.1725,4.4775 4.26,5.81625 -1.65,1.155 -9.11875,1.15875 -10.105,1.08625 -8.0775,-0.59125 -15.085,-3.46 -18.9,-9.19 -3.77125,-5.6675 -1.37,-6.22875 5.86875,-9.22625 0.6225,-0.25875 1.2025,-0.5075 1.8425,-0.59375 0.86375,-0.115 0.98875,-0.28625 1.25375,-1.71625 l 1.61625,-8.7125 -7.66625,0.21 c -1.3875,0.0387 -1.695,0.02 -3.07625,-0.18 -7.9225,-1.14875 -4.6625,-5.1625 -4.81375,-14.275 -0.0987,-5.9149997 -1.68375,-13.87124966 -1.68375,-13.87124966 0,0 -0.585,-0.0487 -0.925,0.0263 -0.36,0.0788 -0.44625,0.295 -0.5525,0.55375 -1.405,3.41499996 -2.5925,5.89249996 -2.61125,8.70249996 -0.0237,3.4249997 1.58,6.9724997 1.87875,13.4337497 0.0587,1.29 0.0675,2.695 0.0675,2.695 0,0 -2.3875,-0.29 -4.12125,-0.24625 -3.1825,0.0825 -7.705,2.80375 -8.80375,3.97125 -0.685,0.72875 -1.26125,3.38875 -1.24125,5.72625 0.002,0.32125 0.009,0.66 0.015,1 0.75625,8.71125 1.925,3.1175 5.53875,2.5575 1.83,-0.2825 3.6275,-0.905 3.7125,-2.355 0.0137,-0.24375 0.135,-0.27375 1.21375,-0.30375 0,0 1.18625,-0.0325 1.6875,-0.0462 1.2875,-0.035 3.08,0.5625 0.93,2.5675 -0.0912,0.0863 -0.19375,0.18 -0.30625,0.28375 C 4.23806,48.548144 -0.74818998,55.623144 0.09056002,69.569394 1.11056,86.490644 15.60806,94.428144 31.80431,89.735644 c 7.38125,-2.1375 12.3075,-6.67375 20.22375,-13.77625 1.055,-0.94625 1.175,-1.08 1.19625,-1.34 0.0913,-1.0875 -0.7775,-0.53125 -2.16375,0.17 -9.915,5.0175 -13.09875,7.8925 -22.98125,7.4975 -9.09125,-0.36375 -15.75625,-2.825 -20.9425,-8.595 -6.32624998,-7.04 -6.98499998,-8.5475 -1.9175,-15.05125 1.64125,-2.1075 3.51,-4.47125 5.6625,-6.49 1.03625,-0.97125 5.44875,-5.315 6.48375,-5.5725 0.41,-0.1025 0.86875,-0.16125 0.86875,-0.16125 0,0 0.81625,3.52375 1.485,5.8925 2.6275,9.31 10.3925,13.87125 20.42875,14.81125 2.99625,0.28125 6.06875,0.14125 9.245,-0.5225 5.86375,-1.2275 12.07875,-4.24125 17.6625,-5.34 0.14375,-0.0288 0.2875,-0.0562 0.43125,-0.08 0.4825,-0.0825 4.99625,-0.31625 6.27,-0.96375 l 3.28,-7.1125 z"
     style="fill:#000000;stroke:none" />
</svg>
