<?xml version="1.0"?>
<svg xmlns="http://www.w3.org/2000/svg" version="1.1">
  <path
     d="m 18.697654,81.172631 7.34125,-7.34125 -7.34125,-7.34 -7.34,7.34 7.34,7.34125 z m 44.26875,-34.39375 1.6075,0 -0.26125,-9.005 c -0.0362,-1.24875 -0.0838,-1.51875 -0.47625,-2.70375 -1.285,-3.8725 -3.64625,-7.80125 -8.23125,-8.6575 -0.745,-0.13875 -1.22875,0.0387 -1.565,0.82125 -0.8475,1.98 -0.3325,4.01125 0.6025,4.57875 0.695,0.42375 1.9775,0.685 3.00875,1.235 1.695,0.9025 3.26,2.9925 3.7625,4.47375 0.95875,2.8325 1.5525,9.2575 1.5525,9.2575 z m -5.99875,-32.76 c 0.57,-0.18375 1.1125,-0.39 1.60125,-0.64125 0.455,-0.23375 1.4875,-0.8725 1.80625,-0.6175 0.1425,0.11625 0.0963,0.4325 0,0.74125 -0.34125,1.085 -1.30125,2.0575 -1.80625,3.11625 -0.20375,0.4275 -1.09875,4.7575 -0.30125,5.4 0.90875,0.73125 1.695,-1.57125 2.17,-2.6525 0.91375,-2.075 3.335,-4.89625 5.12,-6.05 1.92875,-1.24875 4.7825,-1.8975 6.33,-3.0925 0.69,-0.5312501 1.12125,-1.1725001 1.6925,-2.3250001 0.8325,-1.6775 1.96375,-4.44 1.96375,-4.44 0,0 -3.3725,-0.11375 -5.64125,0.355 -1.83375,0.3775 -3.4925,1.57 -5.01375,2.4675 -3.3925,2.00375 -8.55375,3.04875 -12.94,4.7837501 -2.59375,1.025 -12.7125,6.085 -14.59625,9.72 -1.595,3.07875 -1.1325,5.72125 1.10875,7.80125 1.83125,1.6975 2.83625,1.63625 3.255,-1.0075 0.11875,-0.74375 0.17375,-1.48 0,-2.06625 -0.3325,-1.125 -1.50625,-1.7 -1.505,-2.3825 10e-4,-0.3475 1.0725,-1.1475 2.315,-2.00375 5.04375,-3.47875 8.50875,-5.19375 14.44125,-7.10625 z m -18.85375,90.526239 c 3.42375,-1.60875 8.7925,-4.48375 11.76875,-6.404989 4.78375,-3.09 9.215,-5.405 12.60625,-8.24375 0.6125,-0.5125 2.585,-2.39125 2.12,-2.93875 -0.11875,-0.14 -0.45125,-0.085 -0.8,0 -3.34,0.80875 -9.0675,4.95 -13.97875,7.56625 -11.00625,5.866239 -23.09875,6.616239 -33.12875,0.88 -4.67125,-2.67125 -5.5525,-3.52375 -8.0775004,-8.44375 -3.46125,-6.74625 -6.375,-16.7775 -4.7025,-22.23875 0.7525,-2.4575 3.875,-5.1475 7.7525004,-8.37875 2.785,-2.32125 6.85,-5.925 9.985,-7.1 1.9425,-0.72625 4.5825,-1.3675 4.5825,-1.3675 0,0 -0.195,4.38 0,7.87 0.12625,2.2675 2.12875,12.1475 3.9825,14.5725 1.60375,2.09875 8.31125,5.09875 10.335,5.56625 4.58875,1.06125 7.95625,-1.08375 13.5975,-2.7325 2.06,-0.60125 6.4475,-0.76625 9.06875,-0.34125 3.97125,0.645 9.65375,2.1075 9.65375,2.1075 0,0 3.13875,-3.675 3.7875,-6.51875 0.175,-0.7625 0.21,-1.51125 0.21,-1.51125 0,0 -5.65,-0.92875 -8.66125,-2.105 -5.64625,-2.205 -6.48625,-6.1375 -10.82625,-11.10125 -2.8225,-3.22625 -8.665,-5.68875 -12.24125,-5.01625 -4.49625,0.84625 -7.835,4.47 -9.24625,9.9075 -1.12625,4.3425 1.9575,0.415 7.52875,-0.7925 1.95125,-0.4225 6.17,0.5975 7.795,1.87875 2.18125,1.72 5.55,6.56875 5.55,6.56875 0,0 -5.9975,1.6725 -9.08125,2.1425 -4.205,0.64 -10.8475,-2.735 -13.4575,-6.49 -0.78125,-1.12375 -1.32125,-2.32375 -1.78,-4.26125 -0.95375,-4.02375 -1.55125,-11.22625 -1.55125,-11.22625 0,0 3.22,-0.94625 6.53625,-1.43 3.7325,-0.545 7.5875,-0.50375 7.5875,-0.50375 l 3.73125,-9.56375 -13.085,0 -4.44,-1.47875 c 0,0 0.33625,-33.36250014 0.33625,-33.36250014 0,0 -0.3675,-0.0563 -0.77375,-0.0537999988 C 29.216404,0.01138086 27.468904,3.3613309 26.912654,4.5925809 c -0.80125,1.775 -1.46125,3.7975 -1.57875,4.92625 -0.0325,0.31375 0.0138,0.5862501 0.37875,0.9362501 0.17625,0.16875 0.2025,0.34125 0.2675,1.7225 l 0.68875,14.69125 c 0.065,1.3825 0.07,1.61625 0.06,2.34625 -0.0712,4.7825 -3.885,0.715 -6.70375,-0.1275 -3.465,-1.035 -13.1725004,2.08125 -15.2712504,4.09875 -0.65,0.625 -1.02125,1.28875 -1.3325,2.7325 -0.49,2.27625 -0.8325,6.49 -0.8325,6.49 0,0 0.77625,-0.0475 1.2975,-0.1525 0.4675,-0.095 0.7275,-0.23625 1.03375,-0.35875 2.175,-0.875 6.6725004,-0.83625 8.3287504,-2.05 1.89,-1.385 2.1575,-2.245 4.99625,-1.025 1.6025,0.68875 4.19875,2.22125 4.19875,2.22125 0,0 -2.90875,1.4 -4.86375,2.56125 -2.835,1.6825 -9.9150004,8.4775 -12.0350004,11.87125 -5.93999996,9.50875 -6.645,21.15375 -4.28875,30.485 0.88875,3.52 2.1325,6.63375 3.78,9.4025 8.9737504,15.078739 27.3237504,11.886239 33.0775004,9.181239 z m -19.69625,-86.594989 -3.335,-2.73125 -0.7225,0 c 0,0 1.24375,-4.64375 1.20375,-7.3062501 -0.0263,-1.73625 -2.8175,-6.94625004 -5.315,-7.81375004 -1.0487504,-0.36375 -1.6612504,0.32 -2.0487504,1.41125004 -0.28375,0.79625 -0.72,2.8025 -0.4475,3.65 0.0475,0.14875 0.11375,0.28875 0.20375,0.42125 0.67875,1.0025 2.6875004,1.52 3.5450004,2.54 0.57,0.68 1.4675,3.4662501 1.35375,4.3200001 -0.12625,0.94625 -1.05,2.08625 -1.655,3.08625 -0.68375,1.13 -0.96,2.08125 -1.05375,3.80125 -0.0937,1.745 0,4.28 0,4.28 0,0 2.55375,1.3225 4.31,1.7925 3.8275,1.025 5.39875,-1.39625 5.11,-5.34875 -0.0813,-1.1125 -0.19625,-1.3225 -1.14875,-2.1025 z m 20.59875,-8.5187501 3.69875,-0.41875 c 1.2125,-0.1375 1.36,-0.0925 1.48375,0.45 0.40875,1.7937501 2.515,3.9562501 3.49125,3.4387501 0.505,-0.2675 1.0125,-1.09875 1.3075,-1.9825 0.42375,-1.2650001 0.415,-2.6362501 0.99875,-2.9550001 0.41875,-0.22875 1.145,0.0875 1.925,0 2.415,-0.2675 3.24625,-2.07625 3.19,-4.165 -0.09,-3.39750004 -1.55875,-4.75375004 -4.51375,-3.08625004 -0.6925,0.39125004 -1.43875,0.85875004 -1.95625,1.69750004 -1.08375,1.75625 -1.05375,3.3725 -2.1325,3.245 -0.14125,-0.0163 -0.245,-0.12375 -1.0425,-1.0725 -2.115,-2.51875 -3.4625,-3.58125 -6.365,-3.09875 -2.7675,0.46125 -3.11375,2.93 -2.34625,6.0725 0.12,0.495 0.27,0.9675 0.52875,1.39125 0.3475,0.57375 0.52125,0.62125 1.7325,0.48375 z"
     style="fill:#000000;stroke:none" />
</svg>
