<?xml version="1.0" encoding="UTF-8" standalone="no"?>
<svg>
  <path
     d="m 66.999926,91.752028 c 0.19631,3.082284 1.46549,4.999177 3.77501,5.551862 2.9785,0.713989 4.66282,-1.116625 5.42557,-4.819117 0.16756,-0.811522 0.13004,-1.487999 -0.33136,-1.815609 -0.87654,-0.620208 -3.28735,0.02376 -4.45274,-0.676476 -1.44924,-0.872793 -1.81686,-4.581537 -1.45924,-6.314618 0.35887,-1.735583 1.27417,-3.593706 1.52301,-4.931655 0.0513,-0.27009 0.0738,-0.520174 -0.03,-0.658971 -0.0138,-0.01751 -0.0263,-0.03376 -0.04,-0.05002 -3.50492,-0.905304 -4.35771,14.546129 -4.41022,13.7146 z M 6.2220357,27.883105 c 2.36204,3.114794 5.7944403,4.735338 7.1461503,1.695568 0.87779,-1.973162 2.30702,-6.087041 2.30702,-6.087041 0,0 -1.45174,-3.293605 -2.66464,-4.70908 -0.81403,-0.951569 -2.3683,-1.347952 -3.2861103,-0.600201 -0.81152,0.661472 -1.75809,2.574613 -2.27201,1.791851 -0.32011,-0.487664 0.0588,-2.407058 0.52018,-4.20391 0.78151,-3.044772 4.2801803,-9.656989 0.009,-15.292629 -0.0188,-0.01 -0.0375,-0.01751 -0.0563,-0.02376 L 7.2676057,0 6.5798757,0.65146898 C 5.5070157,1.130379 5.7120857,4.900394 6.0622057,5.414316 c 0.19006,0.278844 0.46265,1.110373 0.72149,1.861875 0.57269,4.471499 0.11128,8.310287 -1.05536,12.58172 -0.4664,1.708073 -0.80527,3.448657 -0.63771,5.356797 0.10503,1.196651 0.21757,1.46299 1.13163,2.668395 z m 9.1718303,41.572694 -6.5084403,7.374974 6.5084403,7.374974 6.50843,-7.374974 -6.50843,-7.374974 z m 10.06212,-29.796244 c -1.47049,-0.135045 -3.03227,-0.363872 -7.74885,-0.749001 -6.74226,-0.550185 -16.3029703,0.02001 -15.9053303,6.418403 0.79901,12.861814 -0.19007,6.722254 6.4059,5.589374 0.38137,-0.06627 0.74525,-0.132544 1.07286,-0.197566 10.5697903,-2.063192 2.0256703,3.820031 1.6643003,4.128885 -4.9841703,4.268932 -7.5312703,5.616884 -9.3856403,12.965599 -1.29919,5.145476 -1.9294,10.751106 -1.33295,16.302968 2.22324,20.703203 23.0477303,30.370193 43.9197303,21.969873 1.69932,-0.68398 3.14856,-1.488 4.93541,-2.30452 13.25694,-6.055788 13.66958,-7.713844 -0.64272,-4.8979 -15.71777,3.09229 -31.04416,2.87222 -40.6636403,-8.816707 -3.43365,-4.172649 -6.58471,-11.611395 -5.28427,-16.171674 0.54018,-1.890634 2.91222,-4.726586 5.68691,-7.426241 5.7369203,-5.584373 20.8669903,-14.07222 29.1510203,-15.956602 1.12538,-0.256336 2.0907,-0.53643 2.45833,-0.959072 0.58644,-0.675226 -0.30385,-1.774345 0,-4.108878 0.28884,-2.230748 1.66806,-5.591876 1.66806,-5.591876 0,0 -2.3883,0 -4.39398,0 -7.99518,0 -9.72451,-0.02126 -11.60514,-0.195065 z m 24.5945,27.296656 c 0.12879,0.32761 0.33011,0.975327 0.24008,1.407972 -0.13004,0.631462 -3.735,0.525176 -6.24334,0 -2.61088,-0.545183 -10.52979,-1.295435 -9.36439,-4.042606 0.99658,-2.347037 6.15831,-4.664064 8.36155,-4.167648 2.67465,0.601452 5.83446,3.825033 7.0061,6.802282 z m -23.08899,9.433164 c 0.11503,0.107536 0.22882,0.203818 0.34011,0.288847 3.5762,2.728415 10.04587,3.536186 22.24871,1.761841 7.06487,-1.219159 15.64025,-3.293605 15.64025,-3.293605 l 3.2836,-10.119644 c 0,0 -2.93849,-0.621459 -5.08296,-1.084114 -3.49367,-0.752753 -4.68032,-1.097868 -6.4109,-3.157309 -7.05361,-8.399067 -5.79694,-12.360396 -13.37823,-11.370064 -1.25667,0.165056 -2.32453,0.420141 -3.34487,0.947818 -1.30044,0.672726 -4.17641,4.228919 -4.80662,5.944494 -2.28951,6.220837 -1.71432,9.747019 -5.60188,6.035774 -3.89505,-3.718747 -3.85254,-8.048949 -4.21641,-13.045625 -0.2976,-4.086371 -0.46391,-7.382476 -0.54143,-10.228431 0.0675,-2.530849 0.18756,-4.954162 0.29885,-7.740097 0.1463,-3.691238 0.7465,-18.776297 0.7465,-18.776297 L 23.967986,1.9999999e-6 c 0,0 -2.89347,3.9300690000001 -4.05636,6.2370920000001 -0.89155,1.768093 -1.06536,4.355211 -0.83653,6.94733 0.23758,2.699656 1.12038,5.448078 1.11412,7.580043 -0.004,2.066943 -0.84278,3.553692 -1.11412,6.94733 -0.11754,1.475495 -0.12879,3.312361 -0.10503,4.874135 0.0162,1.097868 0.34511,8.096466 0.70023,13.083139 0.0137,0.39013 0.0288,0.77651 0.0438,1.159138 0.71524,18.122329 5.71942,28.14319 7.24744,29.561166 z"
     style="fill:#000000;stroke:none" />
</svg>
