<?xml version="1.0" encoding="UTF-8" standalone="no"?>
<svg>
  <path
     style="stroke:none; fill:#000000"
     d="m 23.917808,95.969827 c 0.1875,3.01375 1.39125,4.887503 3.58125,5.428753 2.825,0.6975 4.4225,-1.09125 5.14625,-4.711253 0.15875,-0.79375 0.12375,-1.455 -0.315,-1.77501 -0.83125,-0.6075 -3.1175,0.0238 -4.2225,-0.6625 -1.375,-0.8525 -1.72375,-4.4775 -1.38375,-6.1725 0.34,-1.69625 1.2075,-3.5125 1.44375,-4.82 0.0487,-0.265 0.07,-0.50875 -0.0288,-0.645 -0.0125,-0.0175 -0.025,-0.0338 -0.0375,-0.0488 -3.325,-0.885 -4.1325,14.22001 -4.18375,13.40626 z m 0.46375,-43.11251 4.025,4.70125 4.93625,-5.765 -4.93625,-5.76375 -4.025,4.7 -4.025,-4.7 -4.93625,5.76375 4.93625,5.765 4.025,-4.70125 z m 44.43376,40.44875 -4.93625,5.76376 4.93625,5.765003 4.935,-5.765003 -4.935,-5.76376 z m 41.355012,5.95626 c 1.45625,-1.13625 2.985,-2.60875 2.31875,-3.33875 -0.7875,-0.86126 -3.99875,1.565 -4.925,2.0775 -0.0538,0.03 -0.10875,0.0587 -0.1625,0.0887 -2.70625,1.46625 -11.751252,4.406253 -13.733752,-1.02625 -0.75,-2.05376 1.88125,-4.39376 4.295,-7.67251 1.26875,-1.7225 2.132502,-4.72875 0.425,-6.59625 -1.88625,-2.065 -5.225,-0.21375 -6.3075,1.57 -0.65375,1.07625 -1.28,2.38125 -1.205,3.05875 0.16375,1.48 1.60375,2.755 2.28125,2.42875 0.335,-0.16 0.6725,-0.53375 0.865,-0.95875 0.49875,-1.10375 0.38125,-1.56 1.27625,-1.81125 0.91625,-0.25875 1.1025,0.395 1.08625,0.99 -0.0125,0.485 -0.425,1.1675 -0.8075,1.6925 -0.7225,0.7075 -1.625,1.52 -2.475,2.93625 -2.06375,3.43626 -2.14375,5.96876 -1.6325,7.677513 0.6175,2.0675 2.4125,3.23375 4.22125,3.755 5.561252,1.6025 13.876252,-4.400003 14.480002,-4.871253 z M 51.686568,45.163567 c -0.845,-0.48625 -1.395,-1.14375 -1.98625,0.12 -0.87,1.86125 -0.0238,4.94875 -1.915,4.7925 -0.11125,-0.009 -0.235,-0.04 -0.36375,-0.0875 -2.82625,-1.05375 -2.475,-2.45125 -1.74375,-5.1475 0.12,-0.44375 0.23875,-0.89 0.33,-1.315 0.1,-0.47 0.16125,-0.93 0,-1.11876 -0.42625,-0.495 -1.225,0.47876 -1.505,0.95876 -0.545,0.93625 -0.9425,1.995 -1.2075,3.10375 -0.555,2.32625 -0.61625,11.83375 5.0025,9.12 0.64625,-0.3125 1.275,-0.9775 1.86625,-2.08625 0.5175,-0.97 0.64625,-2.13375 1.22125,-2.46875 0.58125,-0.3375 1.61625,0.1675 2.46875,0 2.4425,-0.4775 2.93625,-5.2975 2.73875,-7.545 -0.04,-0.45 -0.07,-0.88375 -0.18125,-1.33001 -0.71875,-2.88 -1.70875,-2.79375 -2.36875,-1.51625 -0.67,1.295 -0.6225,1.79875 -0.26,3.11251 0.4225,1.52875 -0.0687,2.575 -2.09625,1.4075 z m 42.78501,-17.28626 c -1.25,-0.2725 -1.5025,0.35625 -1.9,2.86875 -0.2275,1.4375 0.155,3.495 1.33375,4.09125 0.71125,0.36 1.58625,-0.2775 2.57875,-0.2275 1.6,0.0813 3.37375,1.665 4.018752,3.47375 0.7725,2.16125 1.50625,7.42626 2.5475,5.68626 1.16875,-1.95501 1.15125,-4.36376 0.5625,-6.70126 -1.67375,-6.63625 -4.726252,-8.23 -9.141252,-9.19125 z m 2.49125,-5.0375 c 0,0 1.27,0.62875 1.27,0.62875 0.43875,-1.02875 1.985002,-4.6125 3.386252,-7.3475 2.0475,-3.99375 6.84875,-8.3237499 10.99625,-8.4812499 0.73625,-0.0288 1.4025,-0.0975 1.78875,-0.46625 0.3575,-0.34125 1.0075,-1.7425 1.45625,-2.83625 1.66125,-4.05374997 1.6825,-4.75749997 -1.625,-4.14249997 C 101.64408,2.5310571 72.234068,14.854807 63.971568,23.091057 c -1.96,1.955 -3.4125,4.0175 -4.01125,6.13 -1.1825,4.17625 -0.8775,5.95375 1.09375,7.98875 0.9975,1.03 2.8925,2.575 3.91875,2.71625 0.83125,0.11375 1.8275,0 1.8275,0 l 0,-3.995 c 0,-1.29375 -0.055,-1.45125 -0.55125,-1.5775 -0.3675,-0.0937 -0.655,-0.27125 -1.04125,-0.4925 -0.37,-0.21125 -0.83125,-0.46375 -1.2825,-0.705 -2.29125,-1.22875 -0.0725,-3.64375 1.94,-5.675 7.825,-7.90375 27.18751,-15.115 31.90126,-17.31 1.81375,-0.8437499 3.731252,-1.6474999 4.052502,-1.2399999 0.54375,0.6925 -1.31875,2.6787499 -2.213752,4.5349999 -1.47625,3.0625 -2.44375,8.24625 -2.6425,9.37375 z M 9.9153077,101.37733 c 0.2787503,0.0625 0.5637503,0.11 0.8537503,0.1425 2.2325,0.24875 4.3825,-1.21375 5.4175,-3.195003 0.79,-1.51375 1.46,-3.96751 2.13625,-6.63501 1.65,-6.50875 4.905,-17.17875 11.72125,-19.66375 3.4225,-1.2475 3.63875,1.75 3.9425,5.145 0.92875,10.38 7.38251,20.95876 17.78376,18.71876 5.19875,-1.11876 12.97125,-4.11501 16.12375,-4.11626 4.88,-0.001 11.03625,1.43875 11.03625,1.43875 0,0 0.25,-1.86625 0.7275,-3.675 0.0125,-0.0462 0.025,-0.0912 0.0375,-0.13625 1.53,-5.64375 3.2,-3.96875 -2.1475,-5.3175 -4.93875,-1.245 -7.795,-2.1325 -12.13,-5.73375 -1.92,-1.59375 -2.6,-2.17125 -5.06875,-3.635 -1.6775,-0.995 -3.1075,-1.8 -3.2975,-2.57625 -0.6575,-2.68125 5.05375,-10.1875 6.465,-11.35875 1.35,-1.12125 2.90125,-2.1425 4.65125,-2.36 2.5,-0.31125 2.1925,1.2 2.1725,3.42875 -0.0775,8.855 5.64875,12.705 12.32375,13.49625 1.61625,0.1925 3.16625,0.105 4.49,-0.34625 1.78875,-0.60875 3.42001,-1.85 5.36251,-2.71625 3.64375,-1.62375 10.197502,-2.40125 14.375002,-1.545 2.75625,0.565 5.97625,1.9625 8.7075,2.585 0.4275,0.0975 0.84375,0.17625 1.27,0.1375 0.57375,-0.0537 0.67625,-0.195 1.035,-1.42 0.70875,-2.4225 2.91125,-6.53125 0.85125,-8.0425 -0.2225,-0.16375 -0.36875,-0.20875 -1.4575,-0.45 -7.7875,-1.725 -11.96625,-2.2075 -16.8475,-8.68 -4.296252,-5.69625 -3.321252,-8.24625 -9.115002,-9.585 -6.92876,-1.60125 -10.14751,-1.3075 -10.55501,6.47625 -0.26875,5.1425 0.8,3.475 4.82875,3.15875 2.3725,-0.18625 5.64751,-0.26 6.63376,0.43 1.965,1.3725 5.1675,6.80125 5.1675,6.80125 0,0 -2.35875,0.66375 -3.93625,1.34625 -1.57,0.68125 -2.36625,1.3825 -3.42,1.7575 -1.37001,0.49 -2.93251,0.6775 -4.51001,0.63 -9.38625,-0.28 -10.4225,-3.6625 -11.52625,-13.20375 -0.56,-4.85375 -1.67125,-4.89625 -5.315,-3.27625 -5.2325,2.3275 -9.27875,6.30125 -11.2175,13.0475 -0.67,2.33375 -0.92125,3.74625 -4.09125,5.99875 -6.2325,4.42625 -8.49875,2.38125 -8.755,7.445 -0.0337,0.665 -0.0613,1.5 -0.0838,2.33375 -0.15,5.575 4.24375,1.07375 8.35125,2.24875 0.60375,0.17375 1.2075,0.4275 1.855,0.75375 2.29125,1.14875 6.57,3.87375 6.57,3.87375 0,0 -5.32375,1.3925 -8.43,1.7175 -2.86125,0.29875 -5.5725,-0.2575 -7.9675,-1.54125 -5.12875,-2.75 -7.42375,-7.175 -8.34625,-13.44875 -0.87376,-5.93875 -1.05501,-11.76125 -6.21251,-8.9325 -0.0787,0.0438 -0.15875,0.0888 -0.23875,0.13375 -9.58875,5.46625 -9.96875,11.11125 -13.1125,21.995 -0.54625,1.89375 -1.08625,3.505 -1.65875,4.51 -0.755,1.32625 -1.8525,2.1675 -3.07875,2.55125 -5.2487503,1.63875 -8.9237503,-4.15375 -9.6862503,-9.55375 -0.9275,-6.57 -1.58,-6.6025 -2.02625002,-4.815 -0.0763,0.30625 -0.14625,0.60375 -0.21,0.89125 -0.415,1.8725 -0.43625,4.02375 -0.2575,6.1275 0.16875,1.9675 0.53125,3.7675 1.01875002,5.4 2.12375,7.11376 5.76,10.566263 8.79,11.238763 z M 74.005318,14.181057 c -0.10375,-1.00125 -0.16375,-2.03875 -0.0925,-2.78625 0.10375,-1.07125 0.94875,-2.3599999 2.0025,-2.6574999 0.895,-0.25375 2.1125,0.20875 3.10875,0 0.87875,-0.18625 1.77625,-0.98375 2.13875,-1.59875 0.5275,-0.89375 0.9875,-4.82875 0.68375,-5.86 -0.43,-1.46624997 -2.49875,-1.63624997 -4.3775,-0.68999997 -2.24625,1.13249997 -3.945,3.31874997 -4.665,5.51499997 -0.64125,1.95875 -1.135,5.0062499 -1.88875,3.06875 -0.5975,-1.53875 -1.57875,-3.93 -2.3775,-5.21625 -1.43625,-2.3175 -5.735,-3.06874997 -7.68875,-0.2225 -1.04375,1.52125 -1.36,5.4525 -0.0688,6.4412499 1.63,1.24625 3.1275,0.97125 4.99875,-0.3862499 2.02875,-1.47125 3.205,1.5874999 3.95375,4.1862499 2.29125,7.95625 4.3625,1.07125 4.2725,0.20625 z m -46.84001,0.6575 c 0.4525,-0.365 1.955,-1.12125 2.155,-0.6825 0.04,0.0875 0.0275,0.22625 0.0162,0.34 -0.015,0.15375 -0.0725,0.225 -0.5775,0.71875 -0.55375,0.54 -1.925,1.3875 -2.175,0.8575 -0.06,-0.12625 -0.0412,-0.34125 -0.025,-0.51125 0.0225,-0.23 0.0838,-0.3025 0.60625,-0.7225 z m 8.05375,-4.205 c 0.115,-0.9487499 0.225,-1.8499999 0.285,-2.3462499 0.24125,-1.98875 1.32626,-2.195 2.50751,0.36 0.55125,1.19125 0.50875,2.5249999 -0.0738,3.5912499 -0.22375,0.41125 -0.57125,0.86 -0.965,1.22125 -3.14626,2.88625 -1.85501,-1.2925 -1.75376,-2.82625 z m -2.38875,5.12 -0.77375,0 c 0,0 0.17875,-2.4075 0.0412,-3.8425 -0.23375,-2.4599999 -1.83,-2.8237499 -3.8775,-2.5487499 -2.57,0.345 -4.0975,1.8287499 -3.9725,4.9199999 0.0513,1.27 0.4525,2.4825 0.1475,3.49625 -0.27,0.90125 -1.70375,2.1175 -3.00875,2.9275 -3.83125,2.37875 -6.23125,3.91 -7.1425,7.95375 -2.17875,9.65875 7.875,6.8075 11.14125,6.085 9.34625,-2.0675 16.73751,-4.98375 25.71126,-10.43625 2.8575,-1.73625 8.285,-5.00375 9.13875,-8.555 0.31625,-1.3175 0.0425,-1.5 -0.65625,-1.27875 -2.91125,0.92 -8.36,4.66375 -13.0225,7.19 -4.3225,2.34125 -16.17251,7.23375 -22.58751,8.4925 -0.995,0.19625 -7.5925,1.19875 -6.25,-1.54875 0.68375,-1.4 3.2675,-2.40375 4.36125,-3.36375 1.43625,-1.26125 2.57125,-3.1075 3.7925,-3.42 0.58375,-0.15 1.3325,-0.045 2.10125,0.085 3.16875,0.53125 5.2125,-0.72875 7.8575,-2.695 1.21501,-0.9025 2.23126,-1.83375 2.65376,-2.5025 0.26875,-0.42625 0.505,-0.98125 0.70875,-1.6225 1.605,-5.0675 1.32875,-10.1062499 -2.1775,-13.7274999 -1.70376,-1.75999997 -3.18126,-2.28874997 -3.79501,1.34125 -0.0262,0.15625 -0.05,0.31125 -0.0712,0.46 -0.3475,2.49 0.2025,3.6525 0.54125,6.34625 0.40125,3.1912499 0.5825,6.2437499 -0.86125,6.2437499 z" />
</svg>
