<?xml version="1.0" encoding="UTF-8" standalone="no"?>
<svg
   xmlns:dc="http://purl.org/dc/elements/1.1/"
   xmlns:cc="http://creativecommons.org/ns#"
   xmlns:rdf="http://www.w3.org/1999/02/22-rdf-syntax-ns#"
   xmlns:svg="http://www.w3.org/2000/svg"
   xmlns="http://www.w3.org/2000/svg"
   xmlns:sodipodi="http://sodipodi.sourceforge.net/DTD/sodipodi-0.dtd"
   xmlns:inkscape="http://www.inkscape.org/namespaces/inkscape"
   id="svg2"
   version="1.1"
   inkscape:version="0.48.0 r9654"
   width="100%"
   height="100%"
   sodipodi:docname="hjh11.svg">
  <metadata
     id="metadata10">
    <rdf:RDF>
      <cc:Work
         rdf:about="">
        <dc:format>image/svg+xml</dc:format>
        <dc:type
           rdf:resource="http://purl.org/dc/dcmitype/StillImage" />
      </cc:Work>
    </rdf:RDF>
  </metadata>
  <defs
     id="defs8" />
  <sodipodi:namedview
     pagecolor="#ffffff"
     bordercolor="#666666"
     borderopacity="1"
     objecttolerance="10"
     gridtolerance="10"
     guidetolerance="10"
     inkscape:pageopacity="0"
     inkscape:pageshadow="2"
     inkscape:window-width="1024"
     inkscape:window-height="682"
     id="namedview6"
     showgrid="false"
     inkscape:zoom="1.7493718"
     inkscape:cx="-21.122992"
     inkscape:cy="1005.3732"
     inkscape:window-x="-4"
     inkscape:window-y="-4"
     inkscape:window-maximized="1"
     inkscape:current-layer="svg2" />
  <path
     d="m 49.769454,46.331666 -0.688403,0.01172 c -0.885475,0.0168 -1.004748,0.130941 -1.194029,1.147356 -0.08297,0.444682 -0.329298,1.12401 -0.606738,1.780013 -1.614078,3.821929 -3.539303,2.939048 -4.925206,0.115384 -1.264037,-2.576032 -2.783464,-5.425625 -3.032382,0.291701 -0.09978,2.293417 0.147795,6.663743 1.85391,7.853872 1.826696,1.274409 4.658138,0.285219 6.425197,-0.950286 0.41616,-0.290404 0.786944,-0.628777 0.987894,-1.059198 0.115384,-0.246325 0.17502,-0.523765 0.217803,-0.796019 l 0.250214,-1.599817 1.721673,0.200949 c 0.313741,0.03755 0.640446,0.06876 0.955482,0.05445 1.095499,-0.05051 1.939487,-0.597662 2.570857,-1.406646 2.872929,-3.67542 1.545366,-8.114459 -0.705268,-11.237602 -1.685382,-2.338782 -4.528483,-6.005137 -1.747612,1.328859 1.013823,2.674573 0.856952,4.21216 -2.083392,4.265315 z M 55.100449,19.023313 54.942282,15.26491 c -0.06482,-1.519437 -0.04283,-1.791691 0.211321,-2.72253 0.189282,-0.689711 0.388935,-1.44554 0.894549,-1.931708 C 57.281075,9.4244215 60.335496,9.8340991 61.749921,8.8578737 63.789234,7.4512274 63.79053,2.6206721 62.221828,0.66303538 60.558485,-1.4138745 57.196805,1.8829931 55.818681,3.7706216 54.9721,4.9296358 54.170896,6.2571987 53.810483,7.8077507 53.643241,8.5259829 53.551193,9.3414488 53.420252,10.055792 l -0.639149,3.495214 -2.11321,-2.783464 C 47.776824,6.8263394 48.658408,5.6543503 44.409948,4.5821877 c -1.4235,-0.3591161 -4.511629,-0.225582 -5.104106,1.4338717 -0.465425,1.299041 0.624888,4.4571886 1.308106,5.2065356 0.525061,0.57692 2.651236,2.006892 3.530228,2.09505 1.435168,0.143906 4.367734,-0.761005 4.367734,-0.761005 0,0 2.366007,3.527625 3.811547,5.18319 0.63137,0.723418 1.152542,1.305523 1.961526,1.32108 0.334484,0.0062 0.815466,-0.03754 0.815466,-0.03754 z m 28.3494,26.11951 0.633963,-0.01037 c 0.283922,-0.0052 0.360413,-0.185392 0.763608,-1.794284 2.315446,-9.254036 2.738088,-14.364625 -2.957198,-20.299764 -0.938629,-0.977522 -2.031534,-1.796867 -2.735506,-0.921775 -0.477093,0.59507 -0.965854,4.790376 -0.74805,5.706965 0.381156,1.60241 1.510362,2.122286 2.813292,3.209995 2.944234,2.456769 3.681913,4.300319 3.307239,7.57385 -0.286515,2.51121 -1.077348,6.535385 -1.077348,6.535385 z M 44.027496,40.2967 c -0.04667,-1.310699 -0.189282,-2.955892 -0.605442,-3.369459 -0.241139,-0.239843 -0.57303,-0.06482 -0.781758,-0.195763 -0.938628,-0.582106 0.657299,-2.988313 1.418314,-3.908791 6.907466,-8.346523 24.807504,-18.710319 34.265083,-20.854634 0.901032,-0.203542 1.802063,-0.369488 1.971898,-0.0531 0.08557,0.15687 -0.01037,0.433014 -0.155574,0.744161 -0.342262,0.731187 -0.889363,1.61666 -1.496101,2.566957 C 66.048943,34.915205 85.915683,7.5899988 91.553936,6.8225015 92.069922,6.558026 92.553497,6.346705 92.982622,6.2066886 95.176202,5.4910492 97.552591,5.3393648 97.840403,3.1626387 97.881893,2.856677 97.887073,2.4768177 97.876703,2.10733 97.782013,-1.4591988 92.159377,0.24692688 88.197432,1.806554 84.531087,3.2507972 79.086005,5.6297692 73.310339,8.3963895 65.837622,11.975883 43.462244,22.720824 40.314479,32.053944 c -1.015119,3.006463 -0.827134,6.375932 1.195314,9.274779 0.08691,0.124459 0.165946,0.235954 0.23725,0.337077 -0.912699,-1.283484 2.476216,4.11363 2.280453,-1.369048 z m -17.267372,-5.596757 4.993908,-5.170224 -6.565203,-6.795981 -6.563907,6.795981 4.993908,5.170224 -4.993908,5.168929 6.563907,6.797277 6.565203,-6.797277 -4.993908,-5.168929 z m 44.706665,49.178116 -6.563906,6.79597 6.563906,6.795971 6.565203,-6.795971 -6.565203,-6.79597 z M 0.15185332,64.924008 c 0,0 -0.05445082,1.808534 -0.13353416,4.440324 -0.23854645,7.970553 1.80335934,17.339973 9.02715794,22.084973 0.7558292,0.49654 1.4973979,0.828431 2.1521039,0.864731 1.712608,0.09334 4.879821,-2.043202 6.073849,-3.289089 1.304227,-1.363863 2.984424,-5.031505 3.961946,-7.859058 0.934739,-2.704391 5.010761,-16.056489 11.451505,-15.176201 0.676746,0.09334 0.762312,0.273551 0.862138,1.807238 0.216507,3.342244 2.853483,10.512888 4.124002,11.967503 1.234219,1.411832 4.594602,3.882862 5.67195,4.349583 3.613201,1.567396 10.120064,1.34311 14.17665,-0.41616 1.016405,-0.440792 1.927808,-0.955482 2.900144,-1.376828 4.524604,-1.962822 11.699138,-2.424358 16.639891,-0.947703 2.975349,0.888067 4.000839,1.537587 4.895388,0.324112 1.458504,-1.977084 4.311976,-9.063459 4.311976,-9.063459 0,0 -5.400992,-0.832319 -8.505985,-1.774837 -1.550552,-0.470611 -3.727278,-1.398868 -4.88371,-2.35435 -1.60241,-1.322377 -3.981392,-4.201778 -3.981392,-4.201778 0,0 3.412251,-1.129206 5.999962,-1.992641 3.605411,-1.201807 6.08811,-1.812434 7.68663,-1.559627 1.206993,0.190578 4.592009,1.694458 7.030628,1.428686 1.206993,-0.130941 1.375532,-0.282626 1.694458,-1.519437 0.23725,-0.917886 0.63137,-1.586853 1.1681,-2.563078 1.08383,-1.971887 2.753645,-5.194858 2.753645,-5.194858 0,0 -5.896236,-0.923071 -9.203475,-1.71909 -2.183208,-0.525061 -3.238517,-0.995672 -4.341794,-2.060056 -5.996063,-5.78863 -5.458047,-9.388867 -10.761806,-10.107089 -2.644754,-0.359116 -7.433823,-0.02593 -9.063458,1.534984 -0.700082,0.668968 -1.143468,1.70483 -1.698347,3.368173 -0.824541,2.469733 -1.891508,6.322767 -1.891508,6.322767 0,0 6.308506,1.308116 9.688336,1.747612 0.903625,0.117977 1.598521,0.173724 1.96023,-0.204839 0.425235,-0.444682 0.373377,-0.968447 1.044937,-0.723418 0.776572,0.282626 2.219519,2.226002 1.885036,2.942937 -0.0726,0.155574 -0.210025,0.308555 -0.348745,0.430421 -0.187985,0.164649 -0.366895,0.225582 -1.795581,0.617109 -5.382842,1.474062 -15.049149,4.025462 -16.011113,4.910936 -1.138282,1.048826 -4.288651,7.800718 -3.216488,9.034936 0.796019,0.915293 4.083811,0.270958 6.643,0.545805 1.165497,0.125755 3.169805,0.618406 4.050094,1.317191 0.820651,0.65341 2.030237,2.104136 2.030237,2.104136 0,0 -1.774837,1.194028 -3.191855,1.839659 -2.136546,0.973623 -9.07383,0.987884 -10.964051,0.652103 -4.878524,-0.868609 -10.671044,-5.657689 -11.577261,-10.405271 -1.432576,-7.506435 0.560065,-8.699157 -4.404035,-9.617042 -1.983565,-0.366895 -2.811985,0.03506 -5.595459,2.355636 -1.23033,1.026786 -2.184516,1.907075 -3.060914,3.060914 C 21.710469,65.720027 18.942552,78.312407 13.844918,81.316277 10.028185,83.564318 6.8804087,80.455435 4.2953015,75.812855 3.9348889,75.164641 0.15185332,64.924008 0.15185332,64.924008 z"
     style="fill:#000000;stroke:none"
     id="path4"
     inkscape:connector-curvature="0" />
</svg>
