<?xml version="1.0" encoding="UTF-8" standalone="no"?>
<svg>
  <path
     style="fill:#000000;stroke:none"
     d="m 44.837553,32.243305 4.686288,5.196245 6.744243,-7.478967 -6.744243,-7.478968 -4.686288,5.196245 -4.686288,-5.196245 -6.745451,7.478968 6.745451,7.478967 4.686288,-5.196245 z m 11.603337,62.806894 6.745451,-7.478967 -6.745451,-7.478968 -6.744243,7.478968 6.744243,7.478967 z M 5.0246482,76.852465 c 0.980036,1.445282 2.1026666,2.573954 3.3545992,3.19267 2.1932986,1.083961 5.5031866,1.400569 7.1176476,0.826566 4.633117,-1.647089 4.273005,-10.832359 7.028223,-18.165107 0.803606,-2.136502 1.859773,-3.940687 3.226506,-5.779916 1.056167,-1.419904 4.026486,-5.643364 5.460891,-6.05423 0.321442,-0.09184 0.687596,-0.154679 1.017498,-0.195765 0.580045,-0.07251 0.536542,2.986028 0.610256,5.185369 0.09547,2.853101 0.302107,9.058385 0.302107,9.058385 0.0145,0.419324 0.02538,0.739558 0.03867,1.004204 0.225976,4.710457 4.303216,11.203346 8.13152,13.052243 1.068251,0.515999 2.308099,0.944991 3.788425,1.343773 2.69238,0.725057 6.436093,0.965535 8.547219,0.551044 8.793738,-1.730471 8.726066,-4.682663 16.629193,-3.302637 2.509907,0.437451 7.474134,2.004784 8.258404,1.100879 0.414491,-0.47733 -0.304524,-1.636213 0.576421,-3.302637 0.86886,-1.644672 3.294178,-3.783591 3.294178,-3.783591 0,0 -7.401629,-1.012664 -10.491582,-2.547369 -1.688175,-0.837441 -9.536922,-8.771987 -9.927245,-9.962289 -0.675512,-2.055538 4.215001,-7.431839 7.329123,-8.877121 1.282143,-0.595755 1.737721,-0.174013 2.101458,1.776391 0.398781,2.129252 0.419325,4.727375 1.241056,6.329752 0.564337,1.100879 4.304425,4.35397 5.70862,5.228873 5.204704,3.24584 10.323609,0.294856 16.87692,-1.100879 8.097684,-1.724429 9.078924,-0.913573 17.075104,1.3764 1.1045,0.316609 2.04345,0.493039 2.4519,0 0.48458,-0.584879 0.21994,-2.112334 0.82415,-3.302636 0.75406,-1.486368 3.01382,-2.786638 1.98545,-4.039779 -0.28277,-0.344402 -0.85678,-0.494247 -1.48878,-0.639259 -4.86514,-1.111755 -8.51097,-2.009617 -11.16951,-5.778708 -4.64037,-6.582313 -4.998068,-11.645631 -11.157431,-12.660712 -3.883891,-0.639258 -8.942375,0.816899 -10.682513,3.302637 -0.589713,0.842275 -1.109338,1.740138 -1.241057,3.412604 -0.08942,1.140757 0,2.642834 0,2.642834 l 5.959973,-0.441076 c 1.337731,-0.09909 1.620503,-0.09788 2.836183,0.0036 3.870598,0.322651 6.117068,2.770928 7.833037,5.941846 0.580046,1.071877 1.214471,2.333477 1.214471,2.333477 0,0 -7.157525,2.387855 -11.390652,2.619874 -4.985979,0.274313 -12.284891,-4.222251 -13.119915,-11.176761 -0.393948,-3.274843 0.762519,-5.195037 -3.499611,-4.112284 -4.009568,1.018706 -7.065685,6.419175 -10.18464,9.78465 -1.586668,1.712344 -3.260342,3.075452 -5.459683,4.127994 -2.949775,1.412654 -6.187157,1.726845 -6.671737,4.062739 -0.0435,0.204224 -0.07976,0.442285 -0.109967,0.69968 -0.165555,1.398153 -0.186098,4.832508 -0.244103,4.837342 0.363737,-0.029 2.686338,-0.2151 2.686338,-0.2151 1.336523,-0.106342 1.616878,-0.09426 2.805973,0.119634 1.701468,0.306941 6.710406,3.00778 6.993179,3.794467 1.43803,3.998692 -7.951464,4.120744 -9.034216,4.040987 C 47.121484,72.767975 42.772348,71.638094 39.898704,67.661154 38.003887,65.040071 36.63232,62.2486 36.175534,58.864998 36.075234,58.115772 37.066146,47.296707 35.680078,43.258136 35.177371,41.794729 33.749008,41.51679 32.204636,41.789895 27.6549,42.5935 21.263518,53.644585 20.291941,56.376843 18.696815,60.864948 18.196525,66.886551 16.321043,70.412747 14.373056,74.074287 9.7628987,73.554662 6.8892543,70.688269 6.5376014,70.336616 6.195616,69.943876 5.8705486,69.518509 3.0718268,65.869053 1.7848498,47.673736 1.8815241,48.613894 1.7618896,47.458636 1.6410467,46.373467 1.5202038,45.384972 1.5202038,45.384972 0,44.893141 0,44.893141 0.00120843,46.219996 0.02175172,47.821165 0.06404674,49.723232 0.50270651,69.354163 2.3044743,72.846523 5.0246482,76.852465 z" />
</svg>
