<?xml version="1.0"?>
<svg xmlns="http://www.w3.org/2000/svg" version="1.1">
  <path
     d="m 93.094164,33.966742 0.531,-0.01 c 0.239,-0.004 0.303,-0.149 0.641,-1.452 1.941,-7.493 2.295,-11.631 -2.48,-16.437 -0.786,-0.792 -1.702,-1.455 -2.292,-0.746 -0.401,0.481 -0.81,3.878 -0.627,4.62 0.319,1.297 1.265,1.719 2.358,2.599 2.468,1.99 3.087,3.483 2.773,6.133 -0.241,2.034 -0.904,5.293 -0.904,5.293 z m -19.979,36.43 -6.354,6.519 6.376,6.497 6.354,-6.519 -6.376,-6.497 z m -22.774,-32.914 -0.569,0.009 c -0.733,0.013 -0.832,0.105 -0.989,0.917 -0.068,0.357 -0.272,0.9 -0.502,1.425 -1.337,3.057 -2.931,2.35 -4.079,0.092 -1.047,-2.061 -2.305,-4.34 -2.511,0.234 -0.083,1.833 0.122,5.329 1.535,6.281 1.513,1.019 3.858,0.228 5.321,-0.759 0.344,-0.233 0.652,-0.504 0.818,-0.848 0.096,-0.198 0.145,-0.419 0.18,-0.637 l 0.207,-1.279 1.425,0.161 c 0.261,0.029 0.531,0.054 0.792,0.042 0.907,-0.039 1.606,-0.478 2.129,-1.124 2.379,-2.94 1.28,-6.49 -0.584,-8.989 -1.395,-1.87 -3.75,-4.803 -1.447,1.063 0.84,2.139 0.709,3.369 -1.726,3.412 z m 36.824,-25.411 c 2.208,-1.169 2.83,-2.1950003 3.193,-4.3650003 0.461,-2.747 0.322,-3.08 -1.676,-2.252 -8.864,3.67 -16.186,7.1240003 -21.744,12.4720003 -1.387,1.334 -1.745,2.053 -2.129,4.258 -0.165,0.946 -0.276,1.838 0,2.129 0.781,0.825 4.632,-2.984 6.387,-4.258 4.445,-3.227 12.024,-5.896 15.969,-7.984 z m -12.675,-7.5790003 0,-4.43900003 c 0,0 -0.877,-0.121 -1.278,0 -0.216,0.064 -0.294,0.199 -0.411,0.332 -0.157,0.18 -0.247,0.342 -0.9,1.62200003 l -2.336,4.58 c 0,0 -1.456,-1.854 -2.527,-2.808 -2.224,-1.981 -5.023,-1.264 -5.687,2.206 -0.152,0.793 -0.169,1.008 -0.169,2.157 l 0,2.5560003 c 0,0 3.129,-0.249 4.854,0.297 2.539,0.804 2.828,3.382 4.342,0.682 1.499,-2.6730003 1.977,-4.5860003 3.62,-5.3570003 0.442,-0.208 0.492,-0.391 0.492,-1.828 z m 23.322,44.3560003 5.548996,-9.687 c 0,0 -7.739996,-1.453 -11.442996,-2.845 -2.582,-0.971 -6.278,-3.583 -7.859,-6.184 -0.368,-0.605 -0.489,-1.095 -0.863,-1.511 -0.796,-0.886 -12.576,-3.599 -14.422,-2.662 -1.208,0.614 -4.607,5.699 -4.899,7.326 -0.315,1.755 -0.163,4.033 -0.163,4.033 0,0 10.353,0.511 12.275,1.682 1.358,0.828 2.291,2.018 2.291,2.018 0,0 -6.024,1.687 -9.89,3.039 -8.868,3.103 -11.25,8.117 -13.443,16.767 -0.144,0.566 -0.269,1.041 0,1.331 0.461,0.498 2.64,0.327 3.531,-0.277 0.645,-0.437 0.944,-1.098 1.531,-1.32 1.142,-0.433 6.639,0.821 7.212,1.331 0.612,0.544 1.169,1.331 1.169,1.331 l -11.703,0.463 c -1.577,0.062 -1.923,0.033 -3.468,-0.293 -4.816,-1.016 -8.949,-4.52 -10.254,-7.622 -2.485,-5.907 -0.214,-9.029 -5.319,-7.985 -6.454,1.319 -14.275,9.026 -17.551,15.409 -1.747,3.404 -1.989,4.911 -6.063,5.35 -5.5980004,0.604 -8.4050004,-4.164 -9.5720004,-9.186 -0.328,-1.409 -0.371,-1.725 -0.435,-3.161 l -0.514,-11.606 c 0,0 -0.783,-0.108 -1.402,0 -0.62,0.109 -2.17300001,7.3 -2.10500001,9.741 0.264,9.415 -0.748,14.499 4.96800001,21.664 1.001,1.255 2.291,2.478 3.733,2.898 1.036,0.302 2.2630004,0.301 3.3260004,0.522 2.616,0.544 4.424,0.085 6.385,-2.355 1.182,-1.471 2.002,-3.878 3.215,-6.121 1.441,-2.667 4.265,-6.467 6.429,-7.985 2.562,-1.796 8.251,-4.472 8.251,-4.472 0,0 1.194,4.503 2.562,7.4 3.576,7.57 10.492,9.184 18.88,8.517 2.987,-0.238 6.577,-0.592 9.468,-1.331 3.639,-0.93 6.17,-2.468 11.094,-2.928 4.202,-0.392 10.147,0 10.147,0 0,0 1.063,-2.784 2.139,-4.79 1.392,-2.594 3.443,-4.536 2.923,-5.323 -0.587,-0.888 -4.255,-0.766 -7.014,-1.331 -1.66,-0.34 -11.474,-4.589 -12.275,-5.908 -0.216,-0.356 -0.222,-0.9 0.366,-1.369 0.197,-0.158 0.39,-0.209 1.933,-0.516 4.229,-0.842 8.132,-1.848 12.781,-2.054 3.699,-0.165 8.499,0 8.499,0 z"
     style="fill:#000000;stroke:none" />
</svg>
