<?xml version="1.0" encoding="UTF-8" standalone="no"?>
<svg>
  <path
     style="fill:#000000;stroke:none"
     d="M 109.093,37.288215 L 109.093,38.553215 C 109.093,38.553215 114.741,38.727215 118.122,38.553215 C 126.411,38.129215 145.74,29.673215 151.776,26.460215 C 153.555,25.513215 162.628,20.591215 164.719,18.052215 C 165.521,17.078215 167.818,13.085215 168.375,13.892215 C 168.5,14.073215 168.456,14.538215 168.375,15.030215 C 166.979,23.479215 164.529,23.970215 167.189,28.120215 C 168.189,29.679215 170.734,31.277215 171.932,29.543215 C 173.871,26.733215 173.509,21.891215 171.458,21.006215 C 169.557,20.186215 168.71,20.954215 168.849,19.393215 C 169.003,17.670215 170.217,14.677215 170.746,11.853215 C 171.415,8.2812146 171.46,1.3942146 168.536,0.13921457 C 165.861,-1.0097854 162.664,5.2682146 163.158,8.1062146 C 163.243,8.5932146 163.383,9.0052146 163.869,9.6242146 C 164.673,10.646215 166.422,12.233215 166.422,12.233215 C 166.422,12.233215 164.683,14.115215 163.158,15.552215 C 155.258,22.999215 125.86,33.031215 117.582,35.039215 C 115.272,35.600215 112.89,36.126215 110.503,36.459215 C 109.234,36.637215 109.093,36.720215 109.093,37.288215 L 109.093,37.288215 zM 80.517,58.661215 L 78.7402,60.797215 C 78.0432,61.635215 77.3806,62.415215 76.843,62.838215 C 74.5377,64.651215 67.6769,67.135215 64.5123,68.055215 C 50.2221,72.206215 34.1676,72.261215 21.3548,68.529215 C 17.7003,67.464215 9.54,64.834215 7.066,62.448215 L 1.1546319e-14,56.475215 L 1.44,60.301215 C 4.2967,67.892215 14.4539,74.210215 20.8805,75.880215 C 31.1345,78.545215 46.472,77.907215 57.1738,76.324215 C 70.3442,74.376215 85.0496,69.463215 84.3964,53.023215 C 84.3683,52.317215 84.3735,51.716215 84.6702,51.211215 C 85.3605,50.036215 87.6287,49.379215 89.2148,48.188215 C 89.4715,47.996215 90.3719,47.240215 90.6266,46.770215 C 90.7703,46.505215 90.8115,46.476215 91.0389,46.476215 L 91.545,46.476215 C 91.545,46.476215 91.0173,49.370215 91.0708,51.408215 C 91.1966,56.198215 94.6588,58.568215 99.1332,59.755215 C 102.831,60.736215 106.147,60.661215 110.103,58.669215 C 110.695,58.371215 111.303,58.015215 111.887,57.712215 L 114.004,56.612215 L 115.908,58.345215 C 117.721,59.891215 120.523,60.789215 122.22,60.229215 C 123.39,59.843215 124.282,59.201215 125.096,58.753215 L 126.769,57.834215 L 128.75,59.165215 C 129.362,59.576215 129.977,60.018215 130.529,60.229215 C 131.732,60.690215 133.881,59.850215 135.411,58.462215 L 136.585,57.398215 L 140.066,59.083215 C 143.295,60.645215 146.3,61.138215 149.12,60.704215 C 153.181,60.078215 157.598,57.738215 162.115,57.384215 C 164.259,57.215215 170.762,58.493215 175.055,59.259215 C 176.316,59.484215 176.496,59.459215 176.86,59.015215 C 177.129,58.685215 177.283,58.336215 177.485,57.907215 C 178.323,56.132215 179.997,52.979215 179.997,52.979215 C 179.997,52.979215 178.111,51.670215 176.437,50.981215 C 173.697,49.853215 170.552,50.717215 168.375,50.033215 C 166.029,49.295215 164.193,46.574215 162.041,44.256215 C 159.356,41.364215 158.171,40.718215 154.527,40.310215 C 150.713,39.884215 149.425,40.286215 147.745,43.156215 C 147.102,44.253215 146.614,45.345215 146.559,47.235215 C 146.543,47.768215 146.559,48.373215 146.559,48.373215 L 153.047,48.373215 C 154.327,48.373215 154.543,48.403215 155.207,48.673215 C 155.739,48.889215 157.182,49.897215 157.297,50.206215 C 157.454,50.627215 157.467,51.380215 157.467,51.380215 C 157.467,51.380215 153.548,52.714215 151.207,53.115215 C 149.099,53.477215 143.732,52.709215 141.861,50.918215 C 140.318,49.440215 139.845,47.787215 138.481,48.617215 C 137.511,49.208215 136.678,51.037215 135.651,51.930215 C 134.442,52.980215 132.247,52.908215 130.908,51.455215 C 129.846,50.303215 129.419,48.730215 128.348,49.321215 C 127.619,49.723215 126.994,51.172215 126.166,51.930215 C 124.738,53.235215 122.119,52.644215 120.001,51.930215 C 119.542,51.775215 119.094,51.607215 118.697,51.338215 C 118.163,50.974215 118.119,50.833215 118.261,49.923215 L 118.578,47.899215 C 118.578,47.899215 118.037,48.019215 117.547,48.162215 C 114.738,48.979215 113.578,50.510215 111.938,51.455215 C 106.831,54.398215 96.1428,52.373215 94.8648,46.324215 C 94.4098,44.170215 95.0617,41.527215 94.8648,39.191215 C 94.6561,36.714215 91.4679,26.937215 88.8607,26.083215 C 86.6705,25.365215 86.2321,28.186215 85.8539,30.636215 C 85.6964,31.656215 85.5842,32.519215 85.8539,33.358215 C 86.3324,34.846215 88.0127,36.257215 88.9366,37.939215 C 90.3359,40.487215 89.9968,41.267215 87.2767,42.682215 C 86.284,43.198215 85.6219,43.492215 84.526,43.156215 C 81.9722,42.373215 79.8975,39.449215 78.5029,41.259215 C 77.1113,43.065215 77.0887,45.662215 77.3173,47.434215 C 77.5483,49.225215 78.5423,52.945215 79.4158,55.473215 L 80.517,58.661215 L 80.517,58.661215 zM 156.518,64.415215 L 156.518,65.933215 L 158.89,65.933215 L 158.89,64.985215 L 160.787,64.985215 C 160.787,64.985215 160.855,65.632215 160.787,66.123215 C 160.668,66.972215 160.139,67.355215 159.684,67.886215 C 158.422,69.362215 157.572,72.225215 157.799,73.997215 C 157.927,74.994215 158.028,75.183215 158.808,75.879215 C 161.201,78.016215 163.849,78.060215 166.004,77.078215 C 168.629,75.882215 173.149,73.317215 174.066,70.201215 C 174.126,69.998215 174.151,69.814215 174.066,69.727215 C 173.921,69.579215 173.453,69.714215 172.994,69.894215 C 168.098,71.819215 166.04,75.438215 162.21,72.573215 C 160.87,71.571215 160.472,70.766215 160.916,69.616215 C 162.05,66.679215 165.6,63.886215 163.632,61.191215 C 162.064,59.042215 158.376,60.525215 157.23,62.139215 C 157.018,62.437215 156.817,62.769215 156.698,63.124215 C 156.536,63.603215 156.518,63.732215 156.518,64.415215 L 156.518,64.415215 zM 94.0469,73.671215 L 98.0717,77.696215 L 103.864,71.903215 L 98.0717,66.111215 L 94.0469,70.136215 L 90.0221,66.111215 L 84.2297,71.903215 L 90.0221,77.696215 L 94.0469,73.671215 zM 102.848,20.589215 L 102.4,9.4962146 C 102.334,7.8502146 102.308,7.5642146 102.139,6.6322146 C 101.62,3.7742146 100.226,2.2092146 98.7689,1.1992146 C 96.9155,-0.08578543 95.501,-0.56278543 93.5908,1.2462146 C 92.0201,2.7332146 91.8722,8.1182146 92.4896,8.9602146 C 92.9503,9.5882146 94.1709,9.5312146 95.6483,9.0812146 C 99.3384,7.9562146 99.7082,8.2162146 100.669,13.280215 C 101.126,15.687215 101.18,17.942215 100.955,20.362215 C 100.478,25.503215 99.3574,28.003215 101.554,31.020215 C 102.468,32.276215 103.423,32.466215 105.509,31.909215 C 106.991,31.513215 107.285,30.619215 107.906,27.956215 C 108.344,26.081215 108.69,24.402215 108.577,22.533215 C 108.355,18.824215 105.266,11.853215 108.989,10.122215 C 109.677,9.8022146 110.57,10.011215 111.34,10.229215 C 112.379,10.522215 112.555,10.389215 113.102,8.8972146 C 113.552,7.6712146 114.073,6.5422146 114.359,5.2222146 C 115.433,0.26621457 113.788,-1.1317854 110.487,0.89821457 C 106.701,3.2262146 105,13.203215 105.809,19.891215 C 106.057,22.648215 106.328,25.131215 106.328,25.131215 C 106.328,25.131215 106.102,25.127215 105.832,25.093215 C 104.772,24.957215 102.951,23.131215 102.848,20.589215 L 102.848,20.589215 zM 77.7433,32.036215 L 83.5356,26.244215 L 77.7433,20.451215 L 71.951,26.244215 L 77.7433,32.036215 zM 79.8628,8.7122146 L 75.0398,13.503215 C 74.2383,14.299215 74.1243,14.442215 73.9001,14.932215 C 73.586,15.619215 73.4774,16.767215 73.6317,16.923215 C 74.1313,17.427215 75.8974,16.204215 76.5122,15.750215 C 81.896,11.780215 84.3485,9.2792146 85.219,4.1382146 C 85.6615,1.5242146 84.2777,0.51321457 81.8293,0.18021457 C 77.9449,-0.34878543 74.0902,0.19221457 72.5812,3.1162146 C 72.8167,14.282215 73.1484,7.8972146 76.4425,7.1042146 C 80.107,6.2222146 84.0473,4.2642146 79.8628,8.7122146 L 79.8628,8.7122146 zM 119.356,75.312215 C 118.997,77.556215 119.434,78.106215 120.925,77.418215 C 121.94,76.949215 135.042,69.328215 136.955,67.046215 C 137.726,66.127215 138.495,64.501215 138.766,63.038215 C 138.933,62.137215 138.663,62.169215 137.693,62.530215 C 135.444,63.366215 120.621,72.389215 120.157,73.204215 C 119.723,73.966215 119.445,74.756215 119.356,75.312215 L 119.356,75.312215 zM 128.499,20.267215 C 131.075,22.531215 134.821,23.709215 136.296,21.499215 C 137.254,20.065215 138.813,17.075215 138.813,17.075215 C 138.813,17.075215 137.228,14.681215 135.906,13.652215 C 135.018,12.960215 133.322,12.672215 132.32,13.216215 C 131.434,13.697215 130.401,15.087215 129.841,14.518215 C 129.492,14.164215 129.905,12.769215 130.408,11.462215 C 131.262,9.2492146 135.078,4.4432146 130.418,0.34621457 C 130.398,0.33921457 130.377,0.33421457 130.357,0.32921457 L 129.64,0.00021456561 L 128.889,0.47321457 C 127.718,0.82121457 127.942,3.5612146 128.324,3.9352146 C 128.531,4.1382146 128.829,4.7422146 129.111,5.2882146 C 129.736,8.5392146 129.233,11.329215 127.96,14.434215 C 127.451,15.675215 127.08,16.941215 127.263,18.327215 C 127.378,19.197215 127.502,19.391215 128.499,20.267215 L 128.499,20.267215 zM 165.06993,5.3158312 C 167.05129,5.0957328 167.2835,5.6477816 167.94524,6.8435949 C 168.33405,7.5461916 168.56824,8.4129902 167.87362,9.0534251 C 165.86895,7.9859154 165.43668,6.6563211 165.06993,5.3158312 z" />
</svg>
