<?xml version="1.0" encoding="UTF-8" standalone="no"?>
<svg>
    <path
       style="fill:#000000;stroke:none"
       d="m 76.655553,94.403904 c 3.4825,4.854999 11.0425,4.961249 16.82625,4.464999 2.22125,-0.19 4.30625,-0.40625 6.518747,-1.37375 3.22625,-1.41125 6.7225,-4.418749 9.2725,-5.614999 0.5325,-0.25 1.02375,-0.42125 1.4325,-0.3 1.05125,0.3125 1.5525,2.56 2.67625,3.456249 1.2975,1.03375 7.67125,-0.383749 9.78,-1.528749 0.7225,-0.39125 3.6025,-2.54875 4.47875,-3.77875 0.68875,-0.9675 0.91875,-0.99125 2.29125,-0.2375 1.68,0.9225 3.6925,1.5975 5.26125,2.3 1.38625,0.62 2.31625,1.125 3.38625,0.60125 1.63375,-0.80125 2.50875,-4.17 2.18125,-6.16 -0.41125,-2.50125 -2.0075,-7.3675 -3.63125,-5.86625 -0.81875,0.75625 -0.935,2.9825 -1.825,3.74625 -0.42625,0.36625 -1.0325,0.39625 -1.61375,0.22875 -1.23625,-0.35625 -2.36125,-1.605 -3.28875,-1.5075 -1.37625,0.145 -2.32,3.2475 -4.17375,4.58875 -1.69875,1.23 -9.06625,2.605 -10.08875,1.91625 -1.02375,-0.69 -1.41875,-2.4675 -2.34375,-3.21 -2.065,-1.65375 -5.2175,1.685 -8.20875,3.69125 -2.77,1.8575 -5.495,2.74125 -8.484997,3.02 -4.73125,0.43875 -12.8375,0.0188 -16.805,-0.235 -5.70125,-0.365 -3.475,2.03125 -3.64125,1.79875 z m 74.159987,-78.61874 0.6175,10.7275 2.90875,52.41999 c 0,0 1.97375,-1.94875 3.15625,-3.7225 1.6775,-2.51375 1.765,-4.675 2.27,-7.08875 0.395,-1.8925 0.42125,-2.315 0.25875,-4.2275 l -3.18375,-37.39874 -0.3025,-6.34875 c 0.31625,0.17125 0.61875,0.32625 0.90125,0.46375 l 4.9,2.38875 -0.93625,-2.53875 c -0.10625,-0.2875 -0.21875,-0.5925 -0.33125,-0.9 -1.36,-3.68625 -2.11375,-7.3325 -3.01875,-11.1124997 -0.86625,-3.61875 -2.02,-8.43874971 -2.02,-8.43874971 0,0 -0.8175,-0.0437 -1.57125,0.0625 -2.07,0.2925 -6.49,6.78624971 -6.77625,8.26249971 -0.0275,0.14 -0.045,0.27875 -0.05,0.4175 -0.0138,0.305 0.0112,0.625 0.0637,0.9575 0.3775,2.3774997 1.59375,4.4074997 3.11375,6.0762497 z m -38.34499,26.82625 c -0.13375,0.45 -0.2575,1.44875 0.0337,1.875 0.31375,0.46 1.11125,0.25625 1.90375,-0.0325 2.15125,-0.78375 6.17625,-2.85375 7.94125,-1.06 1.31125,1.3325 -0.025,3.34375 -1.45875,4.1725 -2.21625,1.28 -3.8275,1.18125 -5,3.30874 -0.3625,0.66 -0.545,1.40875 -0.26625,1.76375 1.0575,1.34875 5.80375,-1.83125 6.645,-2.60624 1.835,-1.68875 5.02875,-6.63875 5.635,-9.67875 0.74375,-3.73625 -7.75125,-3.37625 -9.385,-3.00375 -3.11125,0.70875 -5.02625,1.83125 -6.04875,5.26125 z m -83.252363,-16.68875 0.6975,-0.0138 c 0.313375,-0.005 0.397375,-0.20375 0.840625,-1.98625 2.549,-10.2525 3.0145,-15.9149997 -3.255999,-22.4899994 -1.0325,-1.08250001 -2.235875,-1.99125001 -3.010625,-1.02000001 -0.526,0.65875001 -1.062875,5.30624971 -0.82325,6.32124971 0.41925,1.775 1.661875,2.35125 3.09675,3.5562497 3.241249,2.7225 4.053499,4.765 3.641124,8.39 -0.316375,2.78375 -1.186125,7.2425 -1.186125,7.2425 z m 63.264866,11.67125 c 3.50875,3.2125 8.609997,4.88375 10.618747,1.74875 1.30375,-2.035 3.4275,-6.2775 3.4275,-6.2775 0,0 -2.15875,-3.39625 -3.95875,-4.85625 -1.21,-0.98 -3.519997,-1.39 -4.884997,-0.61875 -1.205,0.6825 -2.61125,2.655 -3.375,1.8475 -0.92625,-0.97875 2.09375,-7.39875 2.28125,-7.94875 2.31125,-6.7375 2.1875,-10.9475 0.41375,-16.5424997 -0.54625,-1.7212497 -1.14875,-3.4712497 -1.9925,-4.15499971 L 94.036803,1.6458897e-4 93.014303,1.1364146 c -1.595,1.7725 -1.29,6.4137497 -0.76875,8.3187497 0.4875,1.7812497 1.34125,3.5512497 1.82125,5.4649997 0.5725,2.27625 0.29375,7.5925 -0.5225,9.98875 -1.12375,3.30125 -3.20125,6.32875 -2.74375,9.93375 0.15625,1.23375 0.32375,1.50875 1.6825,2.75125 z m 25.061247,-17.62 -0.55625,-11.0674997 c -0.0788,-1.5425 -0.10875,-1.81125 -0.30625,-2.68625 -0.605,-2.6799997 -2.23375,-4.1474997 -3.9375,-5.0949997 -2.165,-1.20500001 -3.8175,-1.65250001 -6.05,0.0438 -1.835,1.395 -2.0075,6.4449997 -1.28625,7.2349997 0.5375,0.59 1.96375,0.53625 3.69,0.11375 4.3125,-1.055 4.74375,-0.81125 5.8675,3.9387497 0.53375,2.2575 0.59625,4.3725 0.33375,6.6425 -0.5575,4.82125 -1.8675,7.16625 0.7,9.9975 1.0675,1.1775 2.18375,1.35625 4.62,0.8325 1.7325,-0.37125 2.075,-1.20875 2.80125,-3.7075 0.51125,-1.7575 0.915,-3.3325 0.785,-5.08625 -0.26,-3.47875 -3.87,-10.01625 0.48,-11.6412497 0.80375,-0.3 1.8475,-0.10375 2.7475,0.1 1.21375,0.27625 1.41875,0.15125 2.05875,-1.24875 0.525,-1.15 1.13375,-2.20875 1.4675,-3.44625 1.25625,-4.64874971 -0.66625,-5.9599997 -4.5225,-4.05624971 -4.425,2.18375001 -6.4125,11.54124941 -5.46625,17.81499941 0.28875,2.585 0.60625,4.91375 0.60625,4.91375 0,0 -0.7375,-0.009 -1.21625,-0.1475 -0.59375,-0.17125 -0.7875,-0.54 -1.2225,-0.9175 -0.265,-0.23 -0.62,-0.46375 -0.975,-0.605 -0.48,-0.19125 -0.54125,-0.38375 -0.61875,-1.9275 z m -76.545989,8.9175 -5.304249,5.52625 7.748874,8.0725 7.748997,-8.0725 -5.304248,-5.52625 5.304248,-5.52625 -7.748997,-8.0725 -7.748874,8.0725 5.304249,5.52625 z m 27.777242,-11.0825 -2.5675,0.0475 c -1.6275,0.0288 -1.89,-0.0663 -2.62999,-0.955 -0.3675,-0.4425 -0.685,-0.8475 -0.94625,-1.36625 -1.98125,-3.925 2.33499,-3.52375 5.21124,-2.41625 0.5425,0.21 1.075,0.455 1.54875,0.71875 3.795,2.11375 1.0875,3.94125 -0.61625,3.97125 z m -19.73949,39.12249 c 5.18887,-1.14625 10.857,-3 16.82949,-5.875 2.83125,-1.36374 5.21125,-2.79124 6.62375,-4.13499 5.84875,-5.56125 10.92125,-19.875 9.70875,-29.6 C 81.404303,10.947664 76.474303,1.7364146 69.326803,0.15516459 60.971813,-1.6923354 57.686813,13.423914 56.852563,20.740164 c -0.46763,4.1 0.66137,7.78 4.0355,9.7725 1.2275,0.725 2.69625,0.705 4.07874,0.26 2.17625,-0.70125 4.1375,-2.45375 6.6625,-2.83625 1.54375,-0.23375 5.19625,0.88375 5.565,1.70375 0.2775,0.62 -0.0775,3.5725 -0.89375,4.9975 -0.95375,1.66375 -4.595,3.41 -7.42375,4.64125 -5.87999,2.56125 -21.45849,6.37875 -33.620741,7.255 -7.633249,0.54875 -22.323497,-1.42625 -25.8197468,-9.5675 -0.612125,-1.425 -1.02425,-2.88 -1.2345,-3.78625 -2.699749,-11.6375 0.36525,-29.8724994 -3.296999,-21.1025 -4.61174995,11.0425 -6.584125,22.045 -3.211875,31.9575 5.014624,14.74124 35.3619948,15.55874 45.9123718,13.21374 0.47487,-0.105 0.95075,-0.21125 1.43075,-0.3175 z m -35.145999,16.0725 c -0.122,15.7825 -0.848249,28.786246 13.678624,30.852496 1.578124,0.225 3.104749,0.35625 4.504124,-0.0788 1.872,-0.5825 3.51625,-2.18 5.540499,-3.15125 2.48675,-1.193747 15.540002,-2.879997 18.807502,-2.028747 1.29725,0.33875 3.6535,1.597497 5.54225,1.34625 0.6725,-0.09 0.835,-0.2825 1.62625,-1.93625 1.73874,-3.629999 3.98874,-9.286249 2.71124,-10.592499 -1.06125,-1.085 -4.26624,-0.90125 -6.75499,-1.76625 -0.9025,-0.3125 -1.71,-0.76375 -2.37625,-1.315 -1.1965,-0.98875 -1.93288,-2.29875 -3.762,-3.66625 -1.9205,-1.435 -5.04563,-2.935 -5.04563,-2.935 0,0 5.315,-5.84 8.13063,-8.0975 2.14575,-1.72 7.34824,-4.2725 9.01074,-2.4125 0.41,0.4575 0.6275,1.18875 1.02125,1.9075 3.92375,7.15625 14.4775,8.4625 20.555,6.53375 0.79625,-0.2525 3.4775,-1.58875 5.66875,-2.34125 l 2.43,-0.83375 2.4475,1.07125 c 0.67125,0.295 1.365,0.61875 2.07375,0.86375 2.267497,0.78125 10.328747,1.32 12.132497,0.80375 2.06,-0.59 3.32875,-1.4125 4.44125,-2.0475 l 2.7675,-1.58 3.59125,1.56375 c 0.6175,0.26875 1.26,0.56125 1.94125,0.82125 3.5675,1.36625 8.19375,1.87125 11.335,2.17625 3.94625,0.38125 4.0225,-2.495 6.73499,-7.24375 3.31,-5.8 5.20625,-5.65 4.5275,-10.38125 -0.27375,-1.90125 -3.0775,-13.02749 -6.52249,-11.63874 -1.98125,0.7975 -5.34375,7.72624 -5.62875,8.92124 -0.68,2.84375 1.205,2.68125 2.81125,7.075 0.51875,1.41875 -0.4725,1.515 -2.67125,1.065 -2.79125,-0.57 -5.59375,-1.72125 -8.28875,-2.86875 -1.675,-0.71375 -1.86375,-0.94375 -1.8875,-2.3075 l -0.0525,-3.03375 c 0,0 -2.14125,4.1675 -3.93,6.085 -2.3775,2.54875 -8.1225,2.255 -12.085,1.90875 -2.6425,-0.23125 -6.62,-1.6625 -7.10125,-2.55625 -1.5325,-2.85125 -2.409997,-0.3 -9.024997,2.50125 -6.37125,2.6975 -15.35,1.21625 -19.5725,-4.06625 -1.83,-2.29 -4.175,-6.31 -4.175,-6.31 0,0 -5.2075,2.1575 -8.96874,4.50625 -8.22,5.1325 -9.83538,11.51625 -16.902252,14.20875 -2.901125,1.105 -6.598374,1.5825 -8.772249,2.67625 -1.699625,0.85625 -4.500625,7.5875 -4.48275,9.46875 0.01313,1.3775 0.341625,3.05125 0.341625,3.05125 0,0 4.083875,-0.001 6.475249,0.0425 2.657875,0.0487 4.319625,0.36125 3.369,1.7125 -3.2605,4.635 -11.777373,2.16375 -14.788623,0.32875 -6.224874,-3.795 -7.158874,-9.48 -7.314499,-18.5425 -0.02638,-1.53625 -0.0435,-3.2825 -0.054,-5.07125 l -0.01512,0.009 c -2.5e-4,-0.44875 -2.5e-4,-0.89125 0,-1.3225 5e-4,-1.12125 -0.08675,-2.25 -0.09875,-3.25125 l 0.71075,-20.68124 c -0.33825,-8.75625 -0.92,-27.1825 -0.12025,-33.5962497 0.39675,-3.1824997 1.010625,-5.5762497 0.56075,-6.45624971 -0.279,-0.5475 -0.967625,-0.51125 -1.613375,0.0275 C 13.381195,3.7516146 12.863445,17.504114 13.043695,24.900364 c 0.112,4.5975 0.331125,10.34 0.472374,13.83125 l 0.374,34.27249 z" />
</svg>
