<?xml version="1.0" encoding="UTF-8" standalone="no"?>
<svg>
  <path
     style="fill:#000000;stroke:none"
     d="m 27.431224,55.659231 c -2.5275,-1.68124 -6.51875,-0.36124 -9.36,2.66875 -0.6775,0.72125 -0.9525,1.28375 -1.21625,2.13375 -0.61,1.9725 -0.86625,5.265 -0.32125,5.8075 0.39,0.3875 2.38625,0.13625 3.44125,-0.86 2.0425,-1.93125 1.02875,-3.1375 3.9,-3.72875 1.37875,-0.28375 2.71,0.21625 2.9825,1.37625 0.36,1.535 -5.47375,12.0625 -1.49125,9.52125 1.0575,-0.675 4.76249,-13.1475 3.21124,-15.68 -0.31625,-0.51875 -0.79499,-1.005 -1.14624,-1.23875 z m 97.736206,-41.76373 0.4475,9.4425 2.1025,46.14123 c 0,0 1.42625,-1.715 2.28125,-3.27625 1.21249,-2.2125 1.27624,-4.11625 1.64124,-6.24 0.28625,-1.66625 0.305,-2.03875 0.1875,-3.72125 l -2.30249,-32.91998 -0.21875,-5.5875 c 0.22875,0.15 0.4475,0.28625 0.6525,0.4075 l 3.54249,2.1025 -0.67625,-2.23375 c -0.0775,-0.25375 -0.15875,-0.5225 -0.24,-0.7925 -0.9825,-3.245 -1.5275,-6.455 -2.1825,-9.7812495 -0.62624,-3.18624 -1.45999,-7.42874003 -1.45999,-7.42874003 0,0 -0.5925,-0.0375 -1.13625,0.055 -1.49625,0.2575 -4.6925,5.97374003 -4.9,7.27249003 -0.02,0.1225 -0.0325,0.245 -0.0363,0.3675 -0.009,0.26875 0.009,0.55125 0.0463,0.8425 0.27375,2.0937495 1.1525,3.8799995 2.25125,5.3499995 z m -110.752456,11.46375 -0.54125,-13.66375 c -0.08,-2.0262495 -0.1125,-2.3787495 -0.31625,-3.5274995 -0.6275,-3.51875 -2.31275,-5.44624 -4.0753734,-6.69124 -2.241249,-1.58250003 -3.951873,-2.17000003 -6.261747,0.0575 -1.8995,1.8325 -2.07825,8.46499 -1.33175,9.5012395 0.557125,0.77375 2.033249,0.70375 3.819749,0.15 4.4626214,-1.3849995 4.9097514,-1.06625 6.0721214,5.17125 0.55238,2.965 0.6175,5.7425 0.34588,8.72375 -0.57688,6.33124 -1.9325,9.40999 0.72362,13.12624 1.10625,1.5475 2.26125,1.78125 4.7825,1.095 1.7925,-0.48875 2.14875,-1.58875 2.9,-4.86875 0.52875,-2.30875 0.9475,-4.3775 0.81125,-6.67999 -0.26875,-4.5675 -4.005,-13.1525 0.4975,-15.28625 0.83125,-0.39375 1.9125,-0.13625 2.84375,0.1325 1.255,0.36125 1.46875,0.1975 2.13,-1.64 0.54375,-1.5112495 1.17374,-2.9012495 1.51999,-4.5274995 1.3,-6.10374003 -0.68999,-7.82499 -4.68124,-5.32499 -4.58,2.8675 -6.63625,15.1549895 -5.65875,23.3924895 0.3,3.39625 0.62875,6.45374 0.62875,6.45374 0,0 -0.27375,-0.005 -0.6,-0.0475 -1.2825,-0.16625 -3.48375,-2.41624 -3.60875,-5.54624 z m 78.13997,25.44749 c -0.43375,2.71375 0.0937,3.37875 1.8975,2.54625 1.2275,-0.56625 17.071236,-9.7825 19.384986,-12.5425 0.9325,-1.11125 1.8625,-3.0775 2.19,-4.84625 0.2025,-1.09 -0.125,-1.05125 -1.2975,-0.615 -2.71875,1.01125 -20.644986,11.9225 -21.206236,12.90875 -0.525,0.92125 -0.86125,1.87625 -0.96875,2.54875 z m -42.17873,-28.64874 c 0.86875,-1.0575 1.51375,-2.22125 1.24,-3.33625 -0.46125,-1.87 -2.49,-1.16 -4.58875,-1.8125 -3.23375,-1.00375 -3.3725,-5.9425 -2.8675,-9.4737495 0.1375,-0.9575 0.40375,-1.8625 0.86,-2.85625 0.63,-1.37124 1.62125,-2.90999 2.0075,-4.01499003 0.23,-0.65625 -0.0137,-0.72875 -0.9175,-0.62625 -0.4125,0.0475 -0.54625,0.20125 -1.34125,1.53500003 -3.64375,6.11999 -3.95,9.5974895 -3.47625,16.3087395 0.0412,0.58 0.13,1.17875 0.265,1.73625 1.115,4.59 6.78375,5.0175 8.81875,2.54 z m -2.54625,67.69497 -4.8675,4.8675 7.005,7.004999 7.00499,-7.004999 -4.86749,-4.8675 4.86749,-4.86625 -7.00499,-7.00499 -7.005,7.00499 4.8675,4.86625 z m -1.90875,-54.79748 c -3.005,-1.12 -5.4925,-3.245 -6.91875,-6.18999 -1.04125,-2.1525 -3.29,-21.7474995 -3.15375,-23.8787495 0.12875,-2.02374 0.5675,-3.89749 0,-4.58874003 -0.98,-1.19 -1.89625,0.49875 -2.58125,2.29500003 -0.43625,1.14375 -0.9325,2.45249 -1.14875,3.74374 -0.25625,1.53375 -0.26375,1.875 -0.0675,3.41125 2.24,17.5624995 4.83375,51.0087295 5.9825,69.1112295 0.0975,1.54625 0.006,1.8475 -0.91375,3.01374 -4.3725,5.5425 -15.95749,7.14125 -21.34499,5.10375 -5.42112,-2.04875 -9.8912464,-7.43124 -9.1762474,-13.24749 0.20825,-1.695 0.776375,-3.68375 1.43375,-5.39125 1.129499,-2.93375 2.5221274,-5.0325 3.7278774,-9.17625 0.0986,-0.33875 0.196,-0.69125 0.29125,-1.05125 l -1.5585,0.71375 c -0.6510034,1.28625 -3.8016274,7.5625 -5.6150014,12.095 -3.792373,9.4775 -3.660749,17.71999 4.118623,22.79749 4.2094984,2.7475 9.4144984,3.6975 14.0507484,2.72375 2.095,-0.44 11.35124,-4.57125 12.56124,-6.26875 1.19875,-1.68375 1.55875,-4.50375 2.77375,-5.815 0.37875,-0.41 0.84125,-0.6725 1.2375,-1.065 2.92375,-2.88999 2.26625,-11.00374 1.96375,-15.06874 -0.68875,-9.22875 -1.72125,-25.11999 -1.72125,-25.11999 0,0 0.9975,0.0713 1.7875,0.19375 0.7875,0.1225 1.36875,0.29625 1.85125,0.485 10.55124,4.13625 18.21499,-1.19375 24.46749,-6.96125 0.97125,-0.89625 1.76,-1.57125 1.76,-1.57125 0,0 1.21125,1.885 2.25125,2.97875 2.33,2.45 10.47249,2.8925 13.58124,2.58125 5.0275,-0.50375 23.693736,-6.455 27.194986,-11.08249 0.1725,-0.2275 3.545,-7.52875 2.81125,-8.4175 -0.215,-0.26125 -0.7675,-0.17375 -1.37625,0 -3.85875,1.1 -9.98874,5.685 -14.671236,6.8825 -5.51375,1.40875 -8.95625,-1.58125 -14.0625,-6.8825 -0.43,-0.44625 -0.7625,-0.79625 -0.86,-1.72 -0.08,-0.7625 0,-1.91625 0,-1.91625 0,0 6.6975,-1.48125 10.5525,-1.525 3.45,-0.04 10.363736,1.46875 8.947496,-1.95 -1.8575,-4.4812495 -8.472496,-8.3199995 -12.433746,-7.2262495 -2.41625,0.66625 -7.8125,4.3562495 -8.5,5.7349995 -0.68875,1.38125 -0.50375,3.0675 -0.82125,4.9925 -0.52875,3.20375 -2.3325,6.49125 -1.55375,8.8875 1.245,3.82374 5.10375,6.16874 0.3675,5.04624 -1.24625,-0.29625 -2.65624,-0.79875 -4.01499,-1.43375 -0.46375,-0.2175 -4.425,-1.87374 -4.5875,-2.81124 -0.0662,-0.38 0,-0.9175 0,-0.9175 l 0.57375,0 c 0,0 0.19,-1.69 0,-2.29375 -0.0875,-0.275 -0.52625,-0.275 -0.9175,0 -0.55125,0.3875 -1.19125,0.9925 -1.66375,1.72 -0.6825,1.05375 -1.01375,2.36125 -1.72,3.44125 -0.29125,0.44499 -0.81375,1.05874 -1.44125,1.64499 -4.32625,4.055 -17.05999,5.615 -21.46374,3.9725 z m 12.67124,14.80375 c 0.3525,3.77625 0.78125,8.57749 1.095,12.67874 1.09,14.28125 1.03,20.83749 12.04375,26.66874 3.2975,1.745 12.92749,3.9375 16.06124,2.5825 0.78375,-0.33875 2.975,-5.1675 3.205,-7.0625 0.13875,-1.14 0.23375,-2.4025 0.23375,-2.4025 l -3.785,0 c -1.54875,0 -1.84625,-0.015 -2.97625,-0.14625 -2.3225,-0.2725 -6.70874,-2.80749 -7.57749,-3.58124 -3.1275,-2.78875 -5.62,-8.34625 -4.01375,-11.9525 1.3625,-3.06 8.07624,-6.36875 11.66499,-4.96625 2.545,0.99375 1.92875,3.23 2.96,6.88125 1.09875,3.895 4.81125,5.51375 8.66,5.1625 3.3775,-0.30875 3.18375,-0.91625 5.391246,-3.44125 l 1.675,-1.98625 5.51874,3.255 c 2.97875,1.75625 5.81625,3.56 7.33875,2.74625 0.99875,-0.53375 2.78,-4.23625 4.25625,-6.96 1.28,-2.36 1.45125,-2.48625 1.28375,-4.51125 -0.0925,-1.1225 -0.39875,-12.91624 -3.67,-11.46999 -1.335,0.59 -3.12875,5.14499 -3.2125,5.91874 -0.295,2.7575 0.6675,7.79375 0.6675,7.79375 l -4.44875,-3.31375 c -1.2425,-0.925 -1.3775,-1.1225 -1.35375,-1.975 0.0437,-1.5725 -0.27375,-2.675 -1.4025,-2.115 -0.97375,0.48375 -1.7725,2.2875 -2.63875,3.7275 -2.18499,3.63875 -4.06874,3.82 -8.039986,3.155 -2.71625,-0.455 -5.1775,-1.94 -6.01125,-5.16125 -0.285,-1.10625 -0.2475,-2.4425 -0.57375,-3.44125 -0.415,-1.27249 -1.9225,-3.03624 -2.95875,-3.44124 -2.67,-1.045 -9.88624,2.115 -11.66499,3.72749 -1.76625,1.60125 -4.09375,5.15625 -4.875,7.7425 -0.1675,0.55375 -1.325,11.53625 -3.9575,10.32375 -0.75625,-0.34875 -1.44875,-1.98375 -1.7775,-2.8675 -0.57875,-1.5525 -1.55125,-7.70875 -2.275,-13.74625 0.0913,0.75875 -2.74125,-42.17498 -2.63875,-41.41373 -0.405,-3.005 -1.4525,-10.8062495 -1.4525,-10.8062495 -0.2075,-1.53499 -0.17875,-1.81124 0.27875,-2.76874 0.34,-0.71125 0.7675,-1.6925 0.63875,-2.26250003 -0.13,-0.57375 -1.8225,-0.57375 -2.49,0 -1.2575,1.08250003 -3.17375,7.01749003 -3.245,8.88874003 -0.11625,3.0162495 1.0925,9.2662495 1.9975,13.4599995 0.75875,3.50875 1.89125,25.16874 2.06875,27.07999 z m -43.39248,8.58249 0.93125,-4.32124 c 0.32625,-1.5175 0.53625,-2.64125 0.53625,-2.64125 0,0 -3.03,0.21625 -4.3775,0.3125 -10.6603704,0.76 -11.83511945,-6.4775 -7.3943714,-14.61875 1.051625,-1.9275 2.130874,-3.79125 2.595874,-5.19375 0.216,-0.65125 0.0064,-0.73125 -0.918125,-0.625 -0.412499,0.0462 -0.544999,0.20125 -1.324499,1.5425 -4.39112305,7.5525 -8.003497,18.36875 -2.345499,23.74499 0.990499,0.94 2.421499,1.5225 4.576623,1.72 0.9345,0.085 2.028624,0.10875 3.0413774,0.10375 l 4.67862,-0.0237 z" />
</svg>
