<?xml version="1.0" encoding="UTF-8" standalone="no"?>
<svg>
  <path
     d="m 23.407543,55.039526 c -1.32125,1.37375 -2.48625,2.71375 -2.9675,3.72125 -0.36,0.7525 -0.59125,1.53875 -0.29875,1.74375 0.49125,0.3425 1.815,-0.70875 2.73125,-1.46375 3.545,-2.9175 10.95626,-9.76125 9.30875,-14.21125 -0.7925,-2.14375 -5.61,-3.50375 -8.22125,-1.525 -0.76125,0.57625 -2.7675,3.16875 -3.04375,4.46875 -0.26625,1.2575 -0.20125,2.98375 -0.20125,2.98375 0,0 1.09,-0.115 1.79125,-0.32125 1.03375,-0.30375 1.22,-0.805 2.15,-1.0775 0.445,-0.13 1.06125,-0.2075 1.61375,-0.25375 1.95625,-0.16375 1.94,0.66125 1.5175,1.4275 -0.075,0.13625 -0.66875,0.76 -1.31375,1.41625 0.17375,-0.1775 -2.71625,2.72625 -3.06625,3.09125 z m 45.79501,-42.34376 c -1.32125,1.375 -2.485,2.715 -2.9675,3.7225 -0.36,0.7525 -0.59,1.53875 -0.2975,1.7425 0.49,0.34375 1.815,-0.70875 2.73125,-1.4625 3.545,-2.9175 10.955,-9.7624997 9.30875,-14.2124997 -0.7925,-2.14250004 -5.61,-3.50375 -8.22125,-1.52500004 -0.7625,0.57750004 -2.7675,3.17000004 -3.04375,4.47000004 -0.26625,1.25625 -0.20125,2.98375 -0.20125,2.98375 0,0 1.09,-0.115 1.79125,-0.32125 1.03375,-0.30375 1.22,-0.805 2.15,-1.0775 0.445,-0.13 1.06125,-0.20875 1.61375,-0.255 1.95625,-0.1625 1.94,0.6625 1.5175,1.4275 -0.075,0.1375 -0.67,0.76 -1.31375,1.4175 0.17375,-0.1775 -2.71625,2.7249997 -3.0675,3.0899997 z m 8.57,46.47126 c -0.43375,2.7125 0.0937,3.3775 1.89625,2.54625 1.22751,-0.5675 17.06626,-9.78125 19.38001,-12.54 0.9325,-1.11125 1.861247,-3.07625 2.188747,-4.845 0.2025,-1.08875 -0.125,-1.05 -1.297497,-0.61375 -2.7175,1.01 -20.63751,11.91875 -21.19876,12.905 -0.525,0.92 -0.86125,1.875 -0.96875,2.5475 z m -61.14301,-34.27626 -0.54162,-13.41 c -0.0802,-1.9899997 -0.11188,-2.3362497 -0.31625,-3.4624997 -0.62638,-3.455 -2.311754,-5.34625 -4.073754,-6.5675 -2.240626,-1.55375004 -3.950626,-2.13125004 -6.259877,0.0563 -1.898875,1.7975 -2.077625,8.3075 -1.33125,9.3249997 0.556875,0.76 2.0325,0.69125 3.818501,0.1475 4.461251,-1.3599997 4.908251,-1.0462497 6.070251,5.07625 0.552249,2.90875 0.617379,5.635 0.34575,8.56125 -0.576625,6.21501 -1.931875,9.23751 0.723749,12.88501 1.10525,1.5175 2.25975,1.7475 4.78125,1.07375 1.79125,-0.47875 2.1475,-1.55875 2.8975,-4.77875 0.52875,-2.26625 0.9475,-4.29626 0.8125,-6.55626 -0.26875,-4.4825 -4.00375,-12.91 0.4975,-15.00375 0.83125,-0.38625 1.91125,-0.13375 2.8425,0.13 1.255,0.355 1.4675,0.19375 2.12875,-1.61 0.545,-1.4824997 1.17375,-2.8474997 1.52,-4.4437497 1.29875,-5.99000004 -0.69,-7.68125 -4.68,-5.2275 -4.5775,2.815 -6.635,14.8762497 -5.65625,22.9612497 0.29875,3.33375 0.6275,6.335 0.6275,6.335 0,0 -0.27375,-0.005 -0.6,-0.0462 -1.28125,-0.16375 -3.48262,-2.37125 -3.60675,-5.445 z m 27.58551,65.98127 -4.86625,4.86625 7.0025,7.002504 7.0025,-7.002504 -4.865,-4.86625 4.865,-4.865 -7.0025,-7.0025 -7.0025,7.0025 4.86625,4.865 z m 0.5575,-54.56751 c -2.54125,-0.98125 -3.84125,-2.9525 -4.5325,-5.62 -1.495,-5.76376 0.385,-18.15126 -0.35625,-25.7487597 -0.19125,-1.9525 -0.51875,-5.42125004 -2.52375,-4.58625004 -0.85875,0.3575 -1.98625,3.01000004 -2.35,4.01375004 -1.0575,2.91125 -1.045,5.43375 -0.86,8.7137497 0.5675,10.05125 0.97625,25.44876 2.07625,36.52751 0.7925,7.98875 1.08625,15.7925 1.37125,23.7025 0.0563,1.5475 -0.04,1.84875 -0.96,3.015 -3.46125,4.38751 -15.30876,6.83376 -20.76513,3.09626 -7.85413,-5.38001 -9.207755,-16.38501 -6.88013,-23.79376 0.33525,-1.06625 0.968,-3.12125 1.806625,-5.20375 l 2.706626,-6.7225 -3.009876,4.35 c -0.57525,0.83125 -1.23475,1.81 -1.79,2.7025 -4.364251,7.01875 -6.210751,14.67625 -5.446751,21.615 0.777875,7.06626 3.866626,12.74501 10.320127,15.93876 4.782249,2.3675 8.539749,1.50375 13.499749,-0.0488 6.81501,-2.13125 8.60751,-3.785 11.87876,-10.06376 1.0225,-1.96375 1.97625,-4.13875 2.725,-6.3075 0.5075,-1.465 0.56,-1.8 0.525,-3.3475 0,0 -0.535,-23.52 -0.535,-23.52 0,0 2.09625,0.12375 3.8525,0.2275 4.50875,0.265 8.83125,-0.55875 13.62125,-4.8 l 2.84875,-2.52375 3.705,2.5125 c 0.75375,0.51125 1.55,1.035 2.34625,1.43125 8.70875,4.3325 24.96626,-0.21375 31.53376,-3.44 2.003747,-0.985 4.658747,-3.29625 5.164997,-4.4975 0.13875,-0.33 0.2875,-0.70625 0.445,-1.105 l 2.5075,-6.33751 -4.18375,1.99375 c -3.587497,1.70875 -7.869997,3.06126 -9.082497,3.35251 -2.3825,0.57375 -7.17375,0.57375 -8.2325,0 -1.85875,-1.00625 -4.26375,-4.83376 -6.11251,-8.02626 -1.36625,-2.36125 -0.15375,-3.8375 3.47126,-3.9675 1.15875,-0.0412 1.46,-0.0375 3.00625,0.0412 l 9.57625,0.48625 c 0,0 0.1175,-1.40625 0,-2.29375 -0.27125,-2.05 -3.47125,-4.76125 -5.16,-5.4475 -5.025,-2.04 -12.55126,-1.7 -14.04626,4.3 -0.275,1.105 -0.175,2.33 -0.57375,3.44125 -0.47125,1.3125 -1.64,2.465 -2.00625,3.55375 -0.20625,0.61375 -0.15875,1.20625 0,2.065 0.52875,2.87125 2.2925,8.71376 2.2925,8.71376 0,0 -0.7575,0.0425 -1.375,0 -2.19875,-0.14875 -6.625,-2.835 -7.4875,-4.50376 -0.83625,-1.62125 -1.6775,-1.95125 -3.75,-0.36875 -0.26125,0.1975 -0.7125,0.50875 -1.30125,0.90001 -3.345,2.22625 -11.03125,8.255 -17.96,5.58 z m 7.57625,37.645 c 0.0975,1.39625 0.2225,2.81375 0.38625,4.18125 1.52,12.68751 9.815,14.48251 19.84125,14.83626 3.6175,0.1275 5.43625,0.19125 5.43625,0.19125 0,0 0.19625,-1.97125 0.665,-3.44 0.82375,-2.5775 3.09876,-4.2875 2.58001,-5.16 -0.49625,-0.83375 -4.09126,0.31 -6.69626,0 -4.78375,-0.5675 -7.405,-5.32875 -8.21,-10.77876 -0.355,-2.39875 1.61125,-3.9475 4.3,-4.1275 2.62875,-0.1775 2.975,3.1025 4.79,6.75375 1.29375,2.60126 5.27375,3.47376 8.68251,1.55875 0.68625,-0.385 1.15875,-0.70375 1.56125,-0.9325 l 1.66,-0.94375 3.8925,1.9875 c 3.1175,1.59251 4.5475,3.38001 7.2525,1.59251 0.845,-0.55875 5.774997,-6.41626 6.274997,-9.10001 0.445,-2.39 -0.75625,-11.2175 -2.06375,-11.81 -1.82625,-0.82875 -5.237497,4.79 -5.389997,6.49 -0.19,2.125 0.63,6.10375 0.63,6.10375 0,0 -2.28625,-0.9825 -3.49625,-1.9875 -1.79,-1.485 -1.7225,-3.60375 -4.04625,-2.27625 -1.0225,0.58375 -1.77875,1.98625 -2.835,2.85 -1.74375,1.425 -5.35125,1.18375 -6.88001,-0.86 -1.2225,-1.63625 -1.46125,-5.2475 -2.86625,-6.59375 -1.62,-1.5525 -7.1225,-1.05625 -9.17375,0.57375 -2.065,1.64 -5.29,7.45125 -6.02,10.03375 -0.78625,2.7825 -1.3375,6.68876 -1.3375,6.68876 0,0 -0.9125,-0.83 -1.52875,-1.52876 -0.2575,-0.29125 -0.485,-0.635 -0.6875,-1.0225 -0.84875,-1.62875 -1.3575,-3.5575 -1.6525,-5.56375 -1.06375,-7.24125 -0.80875,-45.42876 -0.34625,-49.59626 0.90125,-8.10625 3.495,-19.0899997 0.30125,-21.79249974 -0.9925,-0.83875 -2.3475,0.26375 -3.9225,2.86625004 -2.69,4.45 -1.11875,4.845 -0.28625,9.4037497 0.30375,1.665 0,6.31875 -0.4325,10.98375 -0.945,10.18876 -0.99625,41.60626 -0.3825,50.41876 z m -36.58226,-27.095 c 0.0519,-0.01 0.0817,-0.015 0.0817,-0.015 0,0 -0.48525,-4.8525 -0.5275,-5.275 0.19825,-2.72375 -1.591749,1.51625 -6.973375,0.88625 -1.63125,-0.65 -3.206626,-1.78875 -3.679376,-2.49125 -3.244625,-4.82875 -0.419,-7.425 0.86,-14.04751 0.118375,-0.6125 0.184,-1.18125 0,-1.43375 -0.17225,-0.23625 -0.56375,-0.19625 -0.91725,0 -1.865625,1.03625 -3.90050096,10.54501 -4.24275096,12.40751 -0.77225,4.2025 -0.454875,7.54625 2.16975096,9.56 6.049126,4.6425 12.698631,0.4975 13.228751,0.40875 z m 94.231017,-14.515 c 0.78625,10.39125 2.19,30.44125 1.7975,36.29875 -0.37125,5.52 -1.1475,10.66376 -1.1475,10.66376 0,0 0.655,-0.0725 1.205,-0.24625 2.98875,-0.94126 4.16125,-8.31876 4.52875,-10.64751 0.555,-3.515 0.6875,-7.22875 0.57375,-12.38375 -0.3,-13.51125 -2.29375,-36.92376 -2.29375,-36.92376 l 2.54875,0.255 3.26125,0.32625 0.0288,-2.34125 c 0.01,-0.8375 -0.0113,-1.7875 -0.105,-2.6425 -0.43125,-3.90125 -3.01625,-6.3949997 -3.7275,-9.9312497 -0.5725,-2.84875 0.0675,-5.49000004 -2.235,-4.58625004 -1.055,0.41375 -3.97875,4.12875004 -4.3575,5.53875004 -0.33875,1.255 -0.27375,2.36875 0,3.74875 0.6725,3.3962497 1.8125,7.5712497 0.62625,11.2449997 -1.71875,5.325 -0.6275,12.63251 -0.70375,11.62626 z"
     style="fill:#000000;stroke:none" />
</svg>
