<?xml version="1.0" encoding="UTF-8" standalone="no"?>
<svg>
  <path
     d="m 11.151018,39.125913 c -0.440147,0.582528 -0.934295,1.165056 -1.4450699,1.746334 -6.5114388,7.422858 -9.48533206,16.418291 -9.69759229,27.027553 -0.03025145,1.513822 0.02150104,2.953892 0.15750759,4.275206 0.42414544,4.116448 2.2111065,8.251647 5.6507723,10.900525 3.0088949,2.317611 7.3461033,0.0475 10.0298583,-3.272658 0.41702,-0.516275 0.770162,-1.025049 1.182557,-1.525073 1.576326,-1.910092 4.798356,-4.258956 7.457734,-5.836532 0.793288,-0.471272 1.5582,-0.900043 2.312986,-1.375066 5.848907,-3.687678 10.250494,-7.139094 17.226705,-4.718977 1.792837,0.62253 4.976615,2.596375 6.348681,3.773932 3.247032,2.786384 6.52719,6.515314 7.108843,1.417568 0.238511,-2.090101 -0.389019,-4.528968 4.207453,-4.187702 0.923169,0.06 1.96997,0.113756 2.935141,0.128756 7.868004,0.123756 11.716815,-2.183855 17.413339,-1.831338 3.865186,0.240012 9.109189,1.317564 9.109189,1.317564 0,0 0.270013,-2.040099 0.925045,-3.972692 0.997548,-2.941392 2.886389,-5.637772 2.886389,-5.637772 0,0 -6.104044,-1.612577 -9.672966,-2.800134 -3.168903,-1.055051 -5.39776,-2.48637 -7.022839,-5.747777 -1.0513,-2.110102 -1.515073,-4.702727 -2.781384,-6.502814 -2.780634,-3.95519 -5.82378,-4.010193 -10.89415,-3.74268 -2.618376,0.137506 -3.576547,0.852541 -5.08887,3.266407 -0.84129,1.342565 -1.484321,3.902688 -1.512698,6.02029 -0.0215,1.602578 0.108005,3.593924 0.108005,3.593924 l 9.487958,-1.361316 c 1.295937,-0.186259 1.496697,-0.188759 2.008096,-0.02 1.5487,0.508774 3.934065,3.582673 4.097823,5.020242 0.06875,0.598779 0.04125,1.347565 0.04125,1.347565 l -6.658696,0.732535 c -1.299938,0.142507 -1.589952,0.155008 -2.900265,0.117506 -1.182557,-0.0325 -2.39699,-0.388769 -3.499293,-0.601279 -1.615203,-0.311265 -2.989269,-0.316265 -4.383587,-0.946296 -2.170104,-0.980047 -5.907159,-5.19525 -7.057465,-3.930189 -0.62503,0.687533 -0.672407,2.962643 -1.379691,3.752681 -0.400895,0.447521 -1.013799,0.41877 -1.720958,0.308765 -5.59702,-0.875043 -5.969538,-1.946344 -11.591309,0.751286 C 30.993971,58.314339 25.45333,61.983265 22.35318,64.683396 15.831241,70.362419 13.755391,74.74638 8.7935271,73.190055 -4.5972432,68.991103 15.044453,33.966915 11.151016,39.125914 z m 50.421304,33.630371 -6.00704,6.007789 6.005915,6.005289 6.007039,-6.006539 -6.005914,-6.006539 z M 41.70924,39.882199 36.691623,44.86619 c -0.83379,0.82879 -0.952421,0.977547 -1.185682,1.487571 -0.326641,0.715035 -0.439771,1.908842 -0.279139,2.07135 0.51965,0.523775 2.357114,-0.748786 2.996645,-1.220059 5.60102,-4.131449 8.152518,-6.732824 9.058186,-12.081832 0.460273,-2.718881 -0.979297,-3.770182 -3.526545,-4.117698 -4.041069,-0.550027 -8.051388,0.0125 -9.621213,3.055147 0.245012,11.61681 0.590153,4.97399 4.017068,4.14895 3.812309,-0.917544 7.911632,-2.955143 3.558297,1.67258 z M 11.389904,29.782963 5.3772395,35.755751 c -0.9991732,0.992547 -1.141305,1.170056 -1.4208185,1.781335 -0.3915188,0.856292 -0.5270254,2.287611 -0.3346411,2.48137 0.622905,0.62878 2.8246361,-0.896293 3.591048,-1.46132 6.7118231,-4.950239 9.7693451,-8.067889 10.8545231,-14.476948 0.551651,-3.258907 -1.173432,-4.518968 -4.225829,-4.935238 -4.842608,-0.658781 -9.6480896,0.015 -11.5293052,3.661427 0.2936391,13.92067 0.7071591,5.960287 4.8137319,4.971489 4.5684703,-1.098803 9.4807063,-3.54142 4.2639553,2.005097 z m 51.893357,-6.63032 -0.851541,6.552816 C 67.500964,25.57401 75.053828,19.864985 80.370335,16.713583 L 99.64376,5.288033 100.03628,3.897966 c 0.11876,-0.423771 0.22001,-0.908794 0.30627,-1.472571 0.35251,-2.302611 0.105,-2.826386 -1.88259,-2.152604 C 96.2611,1.016577 93.11095,2.715409 89.644532,4.82176 86.593134,6.6781 73.812519,14.945998 63.283261,23.152643 z m -26.782022,-4.290206 -0.162758,-3.72643 c -0.06575,-1.506323 -0.044,-1.776336 0.217511,-2.69888 0.194134,-0.685033 0.398894,-1.433819 0.918294,-1.916342 1.265811,-1.176307 4.399837,-0.7687872 5.852907,-1.737584 2.092101,-1.395067 2.093726,-6.184048 0.483648,-8.125391 -1.707207,-2.05885 -5.158373,1.210058 -6.572567,3.081398 -0.868666,1.148805 -1.691081,2.465119 -2.061099,4.002693 -0.171383,0.711284 -0.266263,1.520073 -0.400394,2.2276073 L 34.120249,13.435925 31.95177,10.677042 C 28.983627,6.768104 29.888795,5.606798 25.52746,4.542997 24.066015,4.18673 20.896987,4.320486 20.287958,5.965565 c -0.476648,1.287562 0.642281,4.418963 1.343189,5.161499 0.539026,0.572528 2.721631,1.991346 3.623175,2.0776 1.473071,0.142507 4.483341,-0.753786 4.483341,-0.753786 0,0 2.429367,3.496418 3.913314,5.138997 0.647531,0.716285 1.182932,1.293813 2.013347,1.308813 0.342891,0.0063 0.836915,-0.03625 0.836915,-0.03625 z M 20.503968,44.591176 c 0.62053,1.663831 1.841339,3.692678 2.965143,4.021444 1.019924,0.298765 1.697332,-1.131304 1.717583,-1.978845 0.02625,-1.100053 0.0036,-2.532622 -0.257263,-3.062648 -0.202009,-0.408769 -0.546651,-0.277513 -1.177056,-0.712534 -0.792664,-0.547526 -2.037099,-1.990096 -2.037099,-1.990096 0,0 3.628675,-3.896438 6.705198,-6.951585 3.275408,-3.252657 19.743202,-16.327037 26.333019,-19.035917 0.622405,-0.255012 1.145181,-0.40127 1.33894,-0.0575 0.154882,0.273763 -1.386317,6.924083 0.553902,5.006491 0.53665,-0.531276 0.797788,-1.922593 1.204933,-3.127651 0.648656,-1.918842 1.66783,-3.362662 3.152277,-4.608972 C 68.236643,6.021818 70.375121,7.813154 71.201286,2.425395 71.554428,0.122784 71.305791,-0.400991 69.318695,0.272791 67.120464,1.016577 63.969562,2.715409 60.50402,4.82176 55.172764,8.064417 20.147326,30.876766 19.30791,38.739644 c -0.152382,1.426319 0.209135,3.205155 1.196058,5.851532 z"
     style="fill:#000000;stroke:none" />
</svg>
