<?xml version="1.0" encoding="UTF-8" standalone="no"?>
<svg>
  <path
     style="fill:#000000;stroke:none"
     d="m 78.702319,79.671259 c 1.3575,-2.19 2.32,-6.71499 2.58874,-8.10624 0.67,-3.46625 0.64125,-7.66875 0.24875,-11.46125 -0.76124,-7.34874 -2.74749,-15.11624 -2.97499,-25.89248 -0.0725,-3.47625 0,-7.39875 0,-7.39875 0,0 0.165,0 0.7,0 4.61874,2.49 5.44749,2.35375 5.00749,1.18125 -6.44624,-14.23249 -2.12875,-22.0224896 -5.79124,-21.9199896 -0.0312,-0.005 -0.0637,-0.01 -0.0975,-0.0138 -2.5625,-0.30625 -5.66625,4.7674996 -6.3625,8.0037496 -0.195,0.9025 -0.18125,1.7825 0,2.63875 0.80125,3.7875 2.43625,4.85125 0.865,9.57374 -0.26625,0.8 -0.615,1.35625 -0.865,2.0775 -0.48125,1.3875 0.68875,15.32999 1.785,21.26999 0.85375,4.62875 1.41875,7.97124 1.78375,13.68624 0.1525,2.3675 0.26875,5.14375 0.3575,7.78625 0.19,5.70749 -0.5375,11.46499 -6.575,11.40874 -1.05625,-0.01 -1.47875,-0.0538 -2.65125,-0.22875 -4.03624,-0.60375 -4.70124,-2.62875 -5.68874,-6.62375 -2.06875,-8.36999 -3.01125,-16.78124 -4.71875,-26.43623 -0.54875,-3.1025 -2.36375,-11.34374 -5.25875,-9.86375 -0.685,0.34875 -2.93637,5.7575 -3.36787,7.89125 -0.75875,3.74875 1.30825,7.01625 2.88662,11.00999 3.02125,7.64625 3.02375,11.59 -2.435,17.02874 -1.77499,1.7675 -4.40287,3.8725 -7.18724,5.55875 -26.606861,16.11124 -8.816371,-32.68123 -16.711367,-14.29624 -2.128874,4.9575 -3.784373,11.21999 -3.920748,13.80499 -0.190499,3.6125 0.426,6.57875 1.879249,9 6.251372,10.41749 21.381616,2.95749 27.435106,-4.2975 l 4.53,-5.34125 1.26875,4.97125 c 0.17625,0.6875 0.3425,1.43875 0.58375,2.14125 1.44,4.16874 3.78625,6.19124 7.1275,6.78124 2.07999,0.36625 4.54749,0.61625 6.36624,0 0.24125,-0.0825 0.55,-0.22875 0.9,-0.40625 l 4.395,-2.2325 1.28375,2.75 c 0.22625,0.48375 0.46375,0.98875 0.75125,1.43 2.8275,4.3425 11.73374,5.917501 15.47999,5.240001 2.71,-0.490001 10.888741,-3.791251 12.968741,-6.232501 0.98375,-1.155 6.25375,-18.12874 6.37375,-20.52748 0.17125,-3.4075 -0.1,-6.37625 -0.55625,-9.69125 -0.73,-5.3 -1.935,-11.48374 -2.13875,-16.69124 -0.15625,-3.95875 0.26625,-7.3525 0,-12.44124 -0.42125,-8.03875 -2.56,-20.30749 -2.56,-20.30749 0,0 5.53375,4.91875 5.53375,4.91875 0,0 0.98125,19.73374 1.49875,30.14248 0.51625,10.38624 0.0213,28.08373 9.88249,35.24373 3.26125,2.3675 7.70125,3.7875 11.70374,4.48875 0.97,0.17 1.94375,0.30875 2.91625,0.185 1.31,-0.16625 1.515,-0.35875 2.0475,-1.93 l 2.92625,-8.62375 c 0,0 -4.9725,-0.8475 -6.96375,-1.95 -2.21375,-1.225 -5.05749,-6.11874 -4.11499,-7.46249 0.75,-1.0675 2.95749,-1.97125 5.09249,-2.72125 9.9775,-3.5025 14.86874,-3.9575 23.44749,-1.18375 1.4325,0.46375 2.55625,0.80625 3.5275,0.25875 0.92375,-0.51875 3.59124,-6.29625 4.44874,-9.04375 0.395,-1.26874 0.13875,-1.54124 -1.97374,-2.05249 -2.9725,-0.72125 -5.845,-0.93375 -8.0325,-2.15875 -3.2375,-1.8125 -5.85625,-5.89375 -8.92374,-8.01375 -2.32625,-1.60875 -4.805,-2.005 -8.03125,-2.1575 -2.76625,-0.1325 -7.7425,0.7575 -8.6275,1.54125 -0.45874,0.40625 -1.22374,1.6325 -1.97499,3.15125 -6.23875,19.70999 -3.61375,8.99375 2.93749,8.59375 2.5025,-0.1525 5.5825,-0.34 5.5825,-0.34 0,0 0.0587,0.52875 0,0.98625 -0.0988,0.75624 -4.66875,2.92874 -7.01749,3.93374 -3.52125,1.505 -3.19875,5.66375 -5.325,10.4025 -0.3975,0.88625 -1.23,1.2775 -2.03875,0.32125 -0.17625,-0.2075 -0.265,-0.40125 -0.88625,-1.93875 -3.99125,-9.85 -4.27,-12.305 -5.2,-23.09749 -0.10125,-1.18125 -3.385,-24.92998 0.0663,-30.60373 1,-1.645 1.81,-2.225 1.16,-3.3 -0.34,-0.56375 -1.03,-1.22125 -1.65875,-1.90125 -0.30625,-0.3287496 -0.5975,-0.6637496 -0.80375,-1.0612496 -0.27875,-0.53625 -0.4575,-0.7 -1.78625,-1.635 L 105.18735,9.3736492e-6 c 0,0 -1.16625,2.0687500263508 -1.8725,3.5937500263508 -2.4575,5.30874 -2.5475,16.7937396 -2.0825,21.0849796 0.56375,5.19875 2.0175,10.22375 2.38,15.28999 0.045,0.62 0.0762,1.2575 0.0975,1.91 0.27375,8.26625 0.34875,32.34123 3.28875,39.96373 0.4175,1.0825 0.47375,1.7075 -1.00625,2.8225 -7.510001,5.665 -19.058741,7.01374 -24.096241,0.925 -1.19999,-1.45125 -2.56374,-3.79 -3.19374,-5.91875 z m -34.66223,-67.40871 c 0.19212,2.75 1.42975,4.45875 3.68112,4.9525 2.90362,0.63625 4.54612,-0.99625 5.29112,-4.2975 0.1625,-0.72375 0.12625,-1.3275 -0.32375,-1.61875 -0.855,-0.55375 -3.20512,0.0213 -4.34125,-0.605 -1.413,-0.7774996 -1.77237,-4.0837496 -1.42275,-5.6299996 0.34988,-1.54749 1.24188,-3.20499 1.48463,-4.39624003 0.0493,-0.2425 0.0718,-0.465 -0.0296,-0.58875 -0.0129,-0.015 -0.0258,-0.03 -0.0386,-0.0437 -3.41812,-0.8075 -4.249,12.96998963 -4.30087,12.22748963 z m -25.985863,12.69499 c 0.19225,2.74875 1.429749,4.4575 3.681123,4.95125 2.904248,0.63625 4.546497,-0.99625 5.290872,-4.2975 0.163249,-0.72375 0.126749,-1.3275 -0.32325,-1.61875 -0.855625,-0.55375 -3.205373,0.0213 -4.341373,-0.60375 -1.413124,-0.77875 -1.772499,-4.08499 -1.422874,-5.63124 0.349875,-1.5475 1.241874,-3.20375 1.484749,-4.39625 0.04913,-0.2425 0.07175,-0.465 -0.02975,-0.58875 -0.01288,-0.015 -0.02563,-0.03 -0.0385,-0.0437 -3.418248,-0.8075 -4.249122,12.96999 -4.300997,12.22874 z m 111.474314,18.30749 c 0,0 0.30625,-2.2 0.36625,-3.61375 0.0488,-1.11624 -0.0563,-1.74249 -0.4,-2.26249 -1.07125,-1.6225 -2.53875,-1.8225 -1.4225,-4.5925 0.545,-1.3525 2.60625,-3.3825 3.7275,-4.3975 2.01999,-1.83 12.89999,-7.73749 21.85248,-11.86624 4.84375,-2.235 10.58125,-4.9875 10.58125,-4.9875 0,0 -0.0437,0.43 -0.15625,1.5275 -1.44875,13.75624 -1.31,6.63375 3.12624,2.16 2.1025,-2.12125 4.91,-5.5687496 7.0825,-7.6012496 1.59125,-1.4875 3.4975,-2.0675 3.9375,-3.63624 0.36,-1.285 0.37125,-3.66625003 0.37125,-3.66625003 0,0 -1.6575,-0.28875 -2.98875,-0.32625 -1.95875,-0.0537 -3.8375,0.745 -5.33625,1.70250003 -1.73,1.105 -3.66374,2.4 -5.71999,3.61749 -8.67,5.1337496 -19.50749,8.8749996 -28.13874,13.5712496 -5.95249,3.23875 -10.81749,7.32874 -11.84749,13.53749 -0.74875,4.5075 -2.01,8.55874 2.4625,10.20999 1.095,0.40375 2.5025,0.62375 2.5025,0.62375 z m 12.34624,-31.07623 c 0.0625,-0.1875 0.15875,-0.31375 0.3025,-0.46625 0.28125,-0.29875 0.61875,-0.525 0.9725,-0.72875 0.545,-0.315 1.125,-0.57375 1.69125,-0.82 3.05125,-1.3237496 3.795,2.99125 3.93,-5.4837396 0.1225,-2.0775 -0.31,-4.24000003 -1.755,-4.63125003 -0.90875,-0.245 -2.625,0.3175 -3.38125,0.97375003 -2.45625,2.1275 -3.18125,7.69624 -5.26,6.81374 -1.12625,-0.4775 -2.35625,-3.11624 -3.5075,-4.86749 -1.69,-2.57125003 -4.01624,-3.54125003 -6.47499,-2.27000003 -0.9325,0.48125003 -1.5,1.65625003 -1.66625,3.45125003 -0.0687,0.7475 -0.0975,1.64624 -0.10375,2.54499 0.715,10.3124996 -0.79,4.8212496 4.6425,3.9124996 2.58749,-0.4325 4.11374,-0.7312496 5.71124,2.02 2.68,4.77125 1.5825,9.4475 4.89875,-0.44875 z m 21.63124,39.76623 0.60625,-0.01 c 0.2725,-0.005 0.34625,-0.1775 0.73125,-1.71875 2.21624,-8.865 2.62124,-13.75999 -2.83,-19.44499 -0.8975,-0.93625 -1.94375,-1.7225 -2.6175,-0.8825 -0.4575,0.56875 -0.92375,4.5875 -0.71625,5.465 0.365,1.535 1.445,2.03375 2.6925,3.075 2.8175,2.35374 3.52375,4.11999 3.165,7.25499 -0.275,2.40625 -1.03125,6.26125 -1.03125,6.26125 z M 62.466079,66.082519 c 0.1925,2.74875 1.43,4.45875 3.68124,4.95125 2.90375,0.63625 4.54625,-0.995 5.29125,-4.29625 0.1625,-0.725 0.12625,-1.32875 -0.32375,-1.62 -0.855,-0.55375 -3.205,0.0213 -4.34125,-0.60375 -1.4125,-0.7775 -1.7725,-4.085 -1.4225,-5.63 0.35,-1.5475 1.24125,-3.20499 1.485,-4.39749 0.0487,-0.24125 0.0712,-0.46375 -0.03,-0.5875 -0.0125,-0.0163 -0.0263,-0.0312 -0.0388,-0.045 -3.41749,-0.8075 -4.24874,12.97124 -4.30124,12.22874 z m 2.36749,-31.36498 -0.65125,0.0113 c -0.83624,0.015 -0.94874,0.12375 -1.12749,1.085 -0.0787,0.42125 -0.3125,1.06375 -0.57375,1.685 -1.52625,3.61624 -3.34625,2.77999 -4.65625,0.10875 -1.19625,-2.4375 -2.6325,-5.13375 -2.8675,0.27625 -0.095,2.16999 0.13875,6.30499 1.7525,7.43124 1.7275,1.20625 4.40375,0.27 6.07375,-0.89875 0.39375,-0.275 0.745,-0.595 0.935,-1.0025 0.10875,-0.23375 0.165,-0.495 0.205,-0.75375 l 0.23624,-1.51375 1.6275,0.19125 c 0.2975,0.035 0.60625,0.0638 0.90375,0.05 1.035,-0.0462 1.83375,-0.565 2.43125,-1.33 2.715,-3.47749 1.46125,-7.67749 -0.6675,-10.63374 -1.5925,-2.2125 -4.28125,-5.6825 -1.6525,1.2575 0.95875,2.53 0.81125,3.985 -1.96875,4.03625 z M 7.8642323,69.922519 c -0.9305,5.95374 -4.157998,14.94749 1.138624,17.67999 3.8166227,1.96875 6.5576207,0.2575 7.3884957,-4.015 0.30225,-1.555 0.13275,-2.5875 -1.01675,-3.22125 -1.919999,-1.05875 -6.1946207,-0.77375 -7.2288697,-1.94625 -0.380875,-0.4325 -0.361,-1.05875 -0.225375,-1.8325 1.069374,-6.09124 2.4944977,-6.88999 1.881624,-11.60499 -0.29275,-2.25125 -2.338249,-12.59624 -5.208497,-10.92499 -1.51475,0.88125 -2.195124,4.06999 -1.51225,5.17374 0.39675,0.64 1.316875,1.315 1.935124,2.04 1.2275,1.44125 3.186873,6.48375 2.847874,8.65125 z m 29.8136067,-7.29625 -5.652121,5.85625 7.13937,7.39874 7.139371,-7.39874 -5.65212,-5.85625 5.65212,-5.8575 -7.139371,-7.39749 -7.13937,7.39749 5.652121,5.8575 z m 115.871931,10.94125 -7.13874,7.39749 7.13874,7.39875 7.14,-7.39875 -7.14,-7.39749 z M 21.173474,5.9373649e-5 14.033978,7.3987994 21.173474,14.796299 28.312845,7.3987994 21.173474,5.9373649e-5 z M 148.79978,41.670029 c 0,0 1.04124,-3.00499 0.265,-4.99749 -0.57125,-1.47 -2.1325,-2.38875 -2.1325,-2.38875 0,0 2.92624,-2.8325 4.95249,-4.4425 4.17375,-3.31375 19.21374,-10.07999 20.41499,-10.36499 0.3875,-0.0925 0.73625,-0.15125 0.8925,0 0.24625,0.2375 0.0137,0.99625 -0.31375,1.85875 -3.055,16.21249 1.97,2.34124 4.2775,0.375 2.7,-2.30125 5.6525,-5.35375 7.24749,-6.975 1.40125,-1.425 4.1775,-4.505 2.4725,-5.7399996 -0.63875,-0.4625 -4.82374,0.96375 -6.48999,1.6762496 -2.34875,1.005 -4.46875,2.425 -6.6975,3.39 -1.32125,0.5725 -2.68,0.98625 -4.04375,1.4675 -5.28499,1.87 -21.24748,9.63749 -24.48248,13.95499 -1.24875,1.665 -3.245,6.0375 -2.3125,8.08 0.085,0.18625 3.16625,3.91874 4.52125,4.10624 0.58875,0.0813 1.42875,0 1.42875,0 z M 92.919809,26.812539 c 0,0 0.165,0 0.7,0 4.61875,2.49 5.44624,2.35375 5.00749,1.18125 -6.44749,-14.23249 -2.12874,-22.0224896 -5.79249,-21.9199896 -0.03,-0.005 -0.0625,-0.01 -0.0962,-0.0138 -2.56375,-0.30625 -5.66625,4.7674996 -6.36375,8.0037496 -0.19375,0.9025 -0.18,1.7825 0,2.63875 0.80125,3.7875 2.43625,4.85125 0.86625,9.57374 -0.26625,0.8 -0.615,1.35625 -0.86625,2.0775 -0.48,1.3875 0.69,15.32999 1.785,21.26999 0.85375,4.62875 1.42,7.97124 1.785,13.68624 0.45125,7.065 0.595,17.75624 0.595,17.75624 0,0 0.7525,-0.0588 1.30625,-0.23 1.98375,-0.615 3.45625,-7.49499 3.8,-9.27124 0.67,-3.46625 0.64125,-7.66875 0.24875,-11.46125 -0.76125,-7.34874 -2.74875,-15.11624 -2.975,-25.89248 -0.0738,-3.47625 0,-7.39875 0,-7.39875 z M 35.549841,14.626299 c -1.070625,2.75125 -1.850124,6.5825 -1.54675,8.35374 1.707374,9.96875 5.415997,11.31375 1.189875,14.24125 -4.312123,2.98749 -10.075994,4.26874 -15.380116,3.41499 -25.6879847,-4.13374 -6.071872,-37.5337196 -14.9493667,-23.07998 -1.579499,2.57125 -2.928873,4.95874 -3.285248,5.79374 -2.712623,6.35625 -1.93424901,17.29374 2.379874,22.19374 1.998124,2.27 7.6092457,5.5025 10.7686187,6.165 3.583748,0.7525 7.44287,0.50125 11.017993,-0.5925 6.820246,-2.08625 13.026743,-8.58 15.414618,-15.17374 0.35775,-0.9875 0.57812,-1.80375 0.57812,-1.80375 0,0 3.62488,0.275 6.5445,0.3075 2.70162,0.0312 7.46037,-1.025 8.32912,-1.84875 0.52875,-0.50125 0.92375,-1.1225 1.27875,-1.96 0.63625,-1.50125 1.14125,-3.69625 1.91875,-5.49 1.01375,-2.335 2.48875,-3.98749 2.7525,-5.80499 0.31,-2.14625 -1.06625,-4.5225 -1.785,-7.70625 -0.83375,-3.6924996 -0.77625,-4.5999996 -2.64625,-4.3787496 -0.4775,0.0563 -0.6225,0.2225 -1.4425,1.65875 -0.97875,1.7112496 -2.1925,3.3637496 -2.45625,5.3824996 -0.41375,3.18375 0.595,8.43374 0.595,8.43374 0,0 -5.18825,0.006 -7.2445,-0.26 -1.06612,-0.13875 -1.29012,-0.35124 -2.18587,-1.39499 -0.30962,-0.36125 -0.69937,-0.8225 -1.08812,-1.28375 -8.620124,-10.2312496 -6.952999,-9.8049996 -8.757748,-5.1675 z" />
</svg>
