<?xml version="1.0" encoding="UTF-8" standalone="no"?>
<svg>
  <path
     style="fill:#000000;stroke:none"
     d="m 117.47499,65.042573 c -2.11731,1.76484 -3.26846,2.96974 -3.70717,5.69449 -0.21123,1.31739 0.0387,1.7661 1.54111,1.1524 3.96215,-1.61861 8.68548,-8.3955 9.93537,-11.62021 0.90117,-2.32355 1.52861,-5.0383 1.77859,-7.24686 0.18123,-1.60236 -0.79618,-2.16605 -2.7985,-2.56602 -3.38095,-0.67619 -10.88653,3.12347 -12.47264,5.79823 -0.32622,0.54871 -1.00366,2.9035 -1.36238,4.91082 -0.0987,0.55745 22.86672,-9.28418 7.08562,3.87715 z m 13.05009,31.94465 7.22685,7.226857 8.14678,-8.146767 -8.14678,-8.14678 -7.22685,7.22561 -7.22561,-7.22561 -8.14802,8.14678 8.14802,8.146767 7.22561,-7.226857 z m 74.28838,-19.70824 -8.14803,8.14677 8.14803,8.14678 8.14677,-8.14678 -8.14677,-8.14677 z m -42.83743,-6.57441 c 0,0 0.61244,-1.41238 0.98366,-2.53103 0.62494,-1.88858 0.52495,-3.25346 0.27747,-5.20828 -0.68744,-5.45077 -1.74609,-17.79717 -1.74609,-17.79717 0,0 1.89858,-0.21373 3.34845,-0.17498 3.92215,0.10249 5.0658,1.94982 7.12812,-0.11124 1.34363,-1.34238 2.54477,-6.09821 1.6861,-7.87305 -0.98242,-2.03107 -4.31087,-3.00973 -5.84073,-1.35238 -0.70619,0.76493 -1.10866,1.97107 -1.91608,2.766 -1.24989,1.22989 -3.47219,1.47362 -4.5721,2.49853 -1.88483,1.75734 -2.13731,14.0325 -1.79109,16.93974 0.58495,4.90581 2.44229,12.84386 2.44229,12.84386 z m 12.96634,9.10044 c -0.12624,0.12248 -0.44371,0.17373 -0.72868,0.13998 -1.56362,-0.18498 -1.94733,-2.21855 -1.64111,-2.74475 0.37622,-0.64744 4.18338,-2.30355 4.87832,-1.57736 0.71368,0.74618 -1.70235,3.39595 -2.50853,4.18213 z M 59.861377,66.163723 c -0.31498,-1.92108 -0.38497,-3.75466 -0.36997,-5.28078 l 0.0475,-4.81207 c 0,0 -2.48727,-0.25623 -4.4046,-0.035 -4.94081,0.57245 -14.43372,13.47005 -16.2648,17.88466 -2.45478,5.92072 -4.70583,16.83725 -12.27516,12.01518 -2.53352,-1.61361 -4.20587,-5.88198 -5.31828,-10.35908 -3.03597,-12.21766 -3.12222,-16.62727 0.44122,-25.12651 0.20873,-0.49995 0.43121,-1.04741 0.64244,-1.59611 -0.14374,-0.88992 -0.88742,-0.4912 -1.61986,0.15999 -5.21078,4.62834 -5.58825,22.87171 -4.80082,28.63245 1.0899,7.96929 4.13713,15.49112 9.85537,19.15204 4.35086,2.78725 5.71949,2.75476 9.0367,-0.54995 1.02366,-1.01991 1.90733,-1.94233 2.46103,-3.08598 0.78618,-1.6236 0.90867,-3.69592 1.44362,-5.5795 1.59486,-5.6045 7.68931,-13.63378 11.7227,-17.10347 7.42684,-6.39068 5.38077,0.53245 5.43327,4.18087 0.0138,0.90492 0.0825,1.38113 0.29747,2.52228 0.20998,1.11115 0.75494,2.37979 1.47487,3.66592 -0.95116,1.77734 10.62905,15.34238 35.60308,8.71048 1.33488,-0.65745 2.42978,-1.60236 3.09847,-2.88725 1.36863,-2.62726 1.1074,-6.22194 3.45844,-5.562 0.299983,0.0837 0.612453,0.24623 0.934923,0.45996 3.9284,3.3722 6.42568,8.05553 23.09544,6.15195 0.26248,-0.03 0.49496,-0.06 0.69369,-0.09 3.44094,-0.50871 7.77431,-1.98483 10.31283,-3.51594 0.69119,-0.41621 2.02357,-1.39237 3.4372,-2.32854 l 4.9808,-3.29596 1.14365,3.75842 c 0.28872,0.94616 0.57745,1.97232 0.97991,2.74975 0.74119,1.43362 3.19597,3.22347 5.33703,4.03589 0.18998,0.0725 0.36496,0.13749 0.52495,0.19624 5.80073,2.09231 6.42443,0.22747 8.01304,-0.96367 l 3.03848,-2.27855 5.24578,3.05598 c 0.84367,0.49121 1.58361,1.03491 2.44978,1.42612 0.27373,0.12249 0.5412,0.23248 0.80243,0.32998 5.34827,1.97232 11.68521,-6.74065 12.70387,-10.85154 0.12748,-0.5162 0.15373,-1.01991 0.16248,-1.92483 l 0.035,-3.59468 c 0,0 17.29971,-1.33988 25.264,-0.42496 4.03464,0.46371 10.6703,2.98599 12.47888,1.33988 1.24114,-1.1299 1.01116,-3.99714 2.2698,-5.607 0.30623,-0.39246 0.70244,-0.70993 1.15865,-1.35988 0.87117,-1.23864 1.96482,-3.68592 1.96482,-3.68592 0,0 -10.57655,-0.68994 -15.23364,-1.84608 -1.81484,-0.44996 -2.72975,-0.97117 -3.80341,-1.89233 -7.52933,-6.46943 -13.67003,-17.3972 -23.39791,-15.70985 -6.03947,1.04865 -7.85555,3.93839 -9.54665,10.11159 -0.5687,2.07732 -0.51996,3.05473 1.12115,4.24088 0.61244,0.44371 0.88867,0.50495 2.761,0.60494 l 9.26792,0.50121 c 1.87234,0.10124 2.08607,0.0787 2.13981,-0.22248 0.13749,-0.76993 0.40122,-0.87992 0.98492,-0.73494 0.0762,0.0187 0.15623,0.0425 0.23998,0.07 11.64771,3.83091 -1.52862,4.03214 -1.32364,4.03214 -1.00366,-0.002 -2.05106,0.01 -3.01973,0.05 -8.64548,0.34997 -12.13267,3.29346 -18.40086,7.19311 -2.42728,1.51112 -5.29453,3.36845 -6.42443,5.09455 -1.53486,2.34604 -1.30738,3.60843 -4.25212,3.01223 -3.54968,-0.71869 -7.60057,-3.63968 -8.61673,-6.89939 -0.90617,-2.90474 -0.55995,-5.67449 -2.66101,-4.98955 -1.63986,0.53495 -3.27971,3.53718 -5.33078,5.23828 -2.61101,2.16481 -7.90054,3.50469 -13.57754,4.28087 -5.90322,0.80743 -11.48647,0.33622 -17.54593,-2.28855 -3.36595,-1.45737 -6.08071,-3.52468 -7.43184,-6.44942 -0.52245,-1.1299 -2.46478,-13.03634 -4.242123,-25.03277 -1.13865,-7.68556 -3.25596,-21.16186 -3.15222,-28.91492 0.0387,-2.96349 -0.16124,-5.3420303 -1.27864,-9.5216503 -0.43621,-1.63361 -0.52745,-1.81984 -0.90117,-1.86109 -2.89974,-0.31997 -3.82716,6.09696 -4.10713,7.8605503 -1.33238,8.3905 1.10615,15.6811 2.55227,23.22293 2.2823,11.90144 2.04232,26.98135 3.78091,39.77896 0.15374,1.13989 0.32498,2.25979 0.17499,3.38844 -0.13874,1.04366 -0.25248,1.47362 -0.67494,1.7861 -7.54183,1.87983 -13.92126,1.88233 -19.07705,1.0124 -15.43488,-2.60601 -14.93617,-7.08561 -16.01357,-13.64503 z M 204.24476,31.859283 c -0.94117,-1.00741 -1.88233,-1.7436 -2.51353,-1.97733 -2.31229,-0.85367 -2.76475,0.27248 -3.19346,2.49103 -0.13124,0.68244 -0.28498,1.44737 -0.24123,2.18106 0.0612,0.98991 0.22123,1.20489 1.61111,2.15356 1.09865,0.74993 2.10481,1.51236 2.97348,2.33979 3.14472,2.99223 2.32104,3.59093 3.3247,6.95813 0.37872,1.27113 0.83493,2.29729 1.1199,1.55111 1.1674,-3.04473 1.07741,-5.96697 0.57245,-8.34426 -0.60369,-2.84349 -1.80234,-5.37327 -3.65342,-7.35309 z m -65.30293,-15.15615 c 0,0 2.46603,-0.0937 4.06464,-0.32622 2.93598,-0.42746 2.94848,-1.32113 3.64717,-0.84868 2.94349,1.99483 4.26337,5.46327 5.80073,7.75056 2.23481,3.32346 4.44711,2.78725 4.29462,-0.26747 -0.0962,-1.93108 -0.40121,-8.01929 -0.40121,-8.01929 l 2.35229,0.0213 c 1.0574,0.009 1.24739,-0.0125 1.89858,-0.21623 1.94483,-0.60495 2.771,-2.00357 3.06473,-3.97215 0.0825,-0.5512 0.12873,-0.8961703 0.15623,-1.2686303 0.22373,-3.06848 1.21989,-6.88814 -3.80091,-5.03706 -0.80868,0.29873 -1.53986,0.73994 -1.7236,0.86368 -1.21114,0.80618 -2.65851,1.74109 -3.44594,3.38595 -1.22239,2.5522703 -1.58986,7.2531003 -1.58986,7.2531003 0,0 -4.63208,-6.6694103 -7.40184,-8.8854603 -1.84733,-1.47737 -3.52093,-1.38113 -5.5895,-0.0487 -0.56495,0.36496 -0.98741,0.66494 -1.25364,1.33113 -0.86992,2.1798003 -0.0725,8.2842603 -0.0725,8.2842603 z m -2.65976,29.57236 c 7.47933,-6.31693 10.31033,-8.413 17.52218,-11.74145 14.78869,-6.82689 47.17705,-19.84198 47.17705,-19.84198 0,0 -3.55843,3.84591 -5.24078,6.65316 -0.75244,1.25238 -2.02607,4.88081 -1.60236,5.57575 0.78743,1.29113 2.38229,-1.98482 3.13472,-3.38845 1.1424,-2.12856 6.17945,-7.50683 8.38175,-8.9492 4.5046,-2.95099 8.4505,-3.90715 9.77788,-7.9717903 0.79118,-2.42229 0.29248,-2.68351 -0.97241,-2.54977 -0.44621,0.0462 -0.66994,0.11873 -2.2348,0.72243 -32.01465,12.3426503 -54.47265,19.6182503 -74.83708,34.8444003 -4.10464,3.06972 -5.37077,4.79582 -6.17445,9.72288 -0.40122,2.45853 0.0175,7.57932 3.53093,8.10553 0.0575,0.009 0.11749,0.0163 0.17874,0.0225 6.57441,0.69244 4.70208,-5.31452 0.0687,-6.6594 -1.29613,-2.02482 -1.03241,-2.58352 1.28989,-4.5446 z M 34.736117,61.937853 c -10e-4,-0.004 -10e-4,-0.004 -10e-4,-0.004 0,0 -0.0475,0.0112 -0.13499,0.0325 0.0525,-0.0125 0.0975,-0.0225 0.13624,-0.0287 z m 0.0262,0.13124 c 0.18874,-0.12124 0.19124,-0.16999 -0.0262,-0.13124 0,0 0.0112,0.0512 0.0262,0.13124 z m -15.35113,-15.70735 c 1.57486,1.67735 -0.63494,4.45835 -1.83359,5.48701 -0.0112,0.01 -3.04722,2.48228 -4.63958,3.17221 0.0662,-4.85206 -1.11115,-6.12195 -0.90617,-6.58441 0.32247,-0.72743 0.83117,-1.34738 1.59736,-1.96982 1.89733,-1.54237 4.03839,-1.96233 5.78198,-0.10499 z m -10.4378201,8.3355 -1.13365,0.34122 c 0,0 -0.5862,-1.95107 -0.5862,-1.95107 0,0 2.60102,-0.77993 2.60102,-0.77993 0.5024601,-0.15124 -0.37871,2.2398 -0.88117,2.38978 z m 44.1048201,-9.5504 c -2.02232,1.7361 -28.6137,17.23847 -24.6753,15.17365 -6.06321,3.17847 -19.0045601,8.69048 -21.6555701,6.87564 -0.26373,-0.18123 -0.44121,-0.43121 -0.45371,-0.77743 -0.0387,-1.01366 2.03357,-3.49719 3.47094,-4.16088 1.7323501,-0.79993 3.4334401,-0.21248 4.9683101,-0.78243 1.85608,-0.68869 5.78448,-5.45826 6.56691,-7.64182 1.08741,-3.03223 1.1524,-11.79895 0.92242,-12.16517 -0.67744,-1.07615 -4.00839,-2.45978 -6.58191,-3.14847 -1.86734,-0.49995 -4.78958,-0.065 -5.00706,2.21106 -0.16123,1.6836 1.17365,3.80341 0.71619,4.74707 -0.59995,1.23739 -4.2758701,0.45621 -6.0732101,1.82359 -0.91367,0.69494 -1.6611,2.59602 -1.72985,4.06339 -0.11623,2.47478 1.53987,5.46451 0.84368,7.56433 -0.50871,1.53611 -2.27605,2.59726 -3.28346,3.95214 -2.68726,3.61218 -0.10249,9.23543 3.71092,10.43032 3.9009,1.22239 11.8839401,-0.62244 15.9823301,-2.1448 3.57218,-1.32739 7.22435,-3.3972 10.71404,-5.76574 1.54986,-1.05116 22.50175,-17.14972 21.70307,-19.82448 -0.05,-0.16624 -0.10249,-0.32498 -0.13874,-0.42997 z m 63.609333,-19.10204 -0.5662,-14.0325 c -0.085,-2.0810703 -0.11749,-2.4435403 -0.33122,-3.6234303 -0.65619,-3.61468 -2.41978,-5.5945 -4.26337,-6.87189 -2.34479,-1.62484997 -4.13338,-2.22854997 -6.54941,0.0588 -1.98733,1.88108 -2.17481,8.6929703 -1.39363,9.7591303 0.58245,0.79368 2.12731,0.72243 3.99589,0.15248 4.66834,-1.42237 5.1358,-1.09365 6.35194,5.31203 0.57745,3.04473 0.64619,5.89697 0.36122,8.9592 -0.60245,6.50317 -2.02107,9.66539 0.75743,13.48255 1.15614,1.58861 2.36479,1.82984 5.0033,1.12365 1.87483,-0.49996 2.24605,-1.6311 3.03223,-4.99955 0.5537,-2.37229 0.99116,-4.49585 0.84993,-6.86064 -0.28123,-4.69083 -4.18963,-13.51005 0.51995,-15.69985 0.86992,-0.40497 1.99982,-0.14124 2.97473,0.13498 1.31364,0.37122 1.53612,0.20249 2.22856,-1.68485 0.5687,-1.5511103 1.22739,-2.9784803 1.58985,-4.6483303 1.35863,-6.26943997 -0.72243,-8.03804 -4.89831,-5.47076 -4.78957,2.94598 -6.94063,15.5661103 -5.91822,24.0266003 0.31372,3.48719 0.65744,6.62816 0.65744,6.62816 0,0 -0.28622,-0.004 -0.62744,-0.0475 -1.34114,-0.17124 -3.64468,-2.48228 -3.77467,-5.69824 z" />
</svg>
