<?xml version="1.0" encoding="UTF-8" standalone="no"?>
<svg>
  <path
     style="fill:#000000;stroke:none"
     d="m 128.70134,11.022162 -6.1025,6.06126 c -1.01375,1.0075 -1.1575,1.1875 -1.44125,1.80875 -0.39751,0.86875 -0.53501,2.32125 -0.34,2.5175 0.6325,0.63875 2.86625,-0.91 3.645,-1.48375 6.81126,-5.02251 9.91376,-8.18626 11.01501,-14.6912698 0.56,-3.30625 -1.19125,-4.58500003 -4.28875,-5.00750003 -4.91376,-0.66875002 -9.79126,0.0163 -11.70002,3.71500003 0.2975,14.1275198 0.7175,6.0487602 4.88501,5.0462602 4.63625,-1.1162602 9.62126,-3.5937602 4.3275,2.0337496 z m 3.8236,94.682788 5.79124,5.7925 8.33625,-8.33625 -8.33625,-8.334974 -5.79124,5.791254 -5.7925,-5.791254 -8.335,8.334974 8.335,8.33625 5.7925,-5.7925 z m 71.28617,-7.572474 c -1.91125,0.47 -2.59375,-1.8275 -4.08375,-3.44 -5.09749,-5.51999 -14.75998,6.653754 -17.91873,9.051224 -1.1125,0.84375 -2.22625,1.52 -3.60749,2.08125 -2.94375,1.1975 -10.79249,2.90125 -8.665,5.06625 1.17,1.19 5.32125,0.41375 8.3775,-0.50625 2.19624,-0.66125 2.89999,-0.87875 4.60499,-2.3975 3.23625,-2.8825 10.63374,-9.767474 13.59374,-8.473724 1.49625,0.655004 2.42,3.454974 3.93999,4.456224 1.33875,0.88 3.3425,0.34875 4.9125,-0.83875 1.12375,-0.84999 1.93375,-2.00747 3.01125,-2.24872 1.74624,-0.39125 4.19374,1.62622 6.00749,1.56497 2.17875,-0.0725 5.08125,-4.717474 4.87,-7.109974 -0.19,-2.13375 -2.62875,-7.48249 -4.49625,-6.55874 -0.8475,0.41875 -1.51125,1.94 -1.84,3.18249 -0.21125,0.79875 -0.28375,1.48125 -0.66625,1.78875 -0.6475,0.5175 -2.17875,-0.04 -3.18999,0.36375 -1.14375,0.4575 -1.62,2.14875 -2.99375,3.15375 -0.595,0.435 -1.35875,0.7425 -1.85625,0.865 z m -83.28214,-52.703984 8.33624,-8.33624 -8.33624,-8.33499 -8.33499,8.33499 8.33499,8.33624 z m 28.32221,62.638958 c -0.51625,3.2275 0.1125,4.02 2.25749,3.03 1.46125,-0.675 20.31498,-11.642474 23.06873,-14.926224 1.11,-1.3225 2.215,-3.6625 2.60625,-5.76749 0.24,-1.29625 -0.14875,-1.25 -1.545,-0.73125 -3.235,1.2025 -24.56623,14.187464 -25.23497,15.361214 -0.62375,1.09625 -1.02375,2.2325 -1.1525,3.03375 z m 89.76553,-33.96237 0.14875,1.16376 0.4975,-1.15626 c 0.29375,-0.685 0.68,-2.17125 1.18625,-4.82625 1.08125,-5.68376 0.11,-14.08377 -4.1725,-18.60752 -0.95126,-1.005 -2.12876,-1.87125 -2.79126,-1.9475 -0.625,-0.0725 -1.35125,-0.0238 -1.35125,-0.0238 0,0 -0.0213,2.63625 0.22,4.585 0.23375,1.88875 1.1,3.80751 1.89125,4.19251 0.52875,0.2575 1.1275,0.19375 1.685,0.58875 0.43876,0.31125 1.04626,1.245 1.56251,2.34375 0.9225,1.97 1.0025,4.3825 1.0725,6.53126 0.10875,3.3425 -0.0862,6.07625 0.0513,7.15625 z m -39.6588,-48.69005 0.14875,1.1625 0.4975,-1.15625 c 0.29375,-0.68375 0.68,-2.17 1.18501,-4.82501 1.08125,-5.68375 0.11125,-14.08501 -4.17126,-18.60877 -0.95125,-1.005 -2.13,-1.87 -2.79125,-1.9475 -0.625,-0.0725 -1.35125,-0.0238 -1.35125,-0.0238 0,0 -0.0225,2.6375 0.22,4.58626 0.23375,1.8875 1.1,3.8075 1.89125,4.19125 0.52875,0.2575 1.12625,0.19375 1.68375,0.59 0.44,0.31125 1.0475,1.24375 1.5625,2.34375 0.92375,1.96876 1.0025,4.38251 1.0725,6.53001 0.11,3.34251 -0.0863,6.07626 0.0525,7.15751 z M 94.38903,20.07127 93.82153,9.25751 c -0.0837,-1.60375 -0.11625,-1.88375 -0.33,-2.7925 -0.65625,-2.785 -2.42,-4.31001 -4.26375,-5.29501 -2.34501,-1.2525 -4.13376,-1.71875 -6.55089,0.045 -1.98712,1.45 -2.17425,6.69876 -1.39312,7.52001 0.58275,0.6125 2.1265,0.5575 3.9965,0.11875 4.66751,-1.0975 5.13626,-0.84375 6.35251,4.09251 0.5775,2.34625 0.645,4.545 0.36125,6.90375 -0.60375,5.01126 -2.02125,7.44876 0.7575,10.39002 1.15625,1.22375 2.365,1.41 5.00376,0.86625 1.875,-0.38625 2.24625,-1.25751 3.0325,-3.85376 0.55375,-1.8275 0.99125,-3.46375 0.85,-5.28625 -0.2825,-3.61501 -4.19125,-10.41002 0.52,-12.09877 0.87,-0.31125 2,-0.1075 2.975,0.105 1.31376,0.28625 1.53626,0.15625 2.22876,-1.29875 0.56875,-1.195 1.2275,-2.295 1.59,-3.5825 1.35875,-4.83126 -0.7225,-6.19376 -4.89876,-4.21501 -4.79,2.27 -6.94126,11.99502 -5.91875,18.51502 0.31375,2.68751 0.6575,5.10751 0.6575,5.10751 0,0 -0.2875,-0.004 -0.6275,-0.0375 -1.34126,-0.13125 -3.64501,-1.9125 -3.77501,-4.39001 z m -1.12493,33.924145 -6.1025,6.06126 c -1.01375,1.0075 -1.1575,1.1875 -1.44125,1.80875 -0.39751,0.86875 -0.53501,2.32125 -0.34,2.5175 0.6325,0.63875 2.86625,-0.91 3.645,-1.48375 6.81126,-5.02251 9.91376,-8.18626 11.01501,-14.69127 0.56,-3.30625 -1.19125,-4.585 -4.28875,-5.0075 -4.91376,-0.66875 -9.79126,0.0163 -11.70002,3.715 0.2975,14.12752 0.7175,6.04876 4.88501,5.04626 4.63625,-1.11626 9.62126,-3.59376 4.3275,2.03375 z m 57.22107,-10.043047 c 0.2025,2.80125 1.51,4.5425 3.88625,5.045 3.06626,0.64876 4.80126,-1.01375 5.58626,-4.3775 0.1725,-0.73875 0.13375,-1.35375 -0.34125,-1.65 -0.9025,-0.565 -3.38375,0.0213 -4.58375,-0.61625 -1.49251,-0.7925 -1.87126,-4.16126 -1.50251,-5.73626 0.37,-1.5775 1.31126,-3.26625 1.56751,-4.48125 0.0525,-0.24625 0.0763,-0.4725 -0.0312,-0.59875 -0.0125,-0.0163 -0.0262,-0.0312 -0.04,-0.045 -3.61001,-0.82251 -4.48626,13.21626 -4.54126,12.46001 z M 153.01786,20.07127 152.45161,9.25751 c -0.0837,-1.60375 -0.1175,-1.88375 -0.33125,-2.7925 -0.655,-2.785 -2.41875,-4.31001 -4.26375,-5.29501 -2.34375,-1.2525 -4.13376,-1.71875 -6.55001,0.045 -1.9875,1.45 -2.175,6.69876 -1.39375,7.52001 0.5825,0.6125 2.1275,0.5575 3.99625,0.11875 4.66876,-1.0975 5.13626,-0.84375 6.35251,4.09251 0.5775,2.34625 0.64625,4.545 0.36125,6.90375 -0.6025,5.01126 -2.02125,7.44876 0.7575,10.39002 1.1575,1.22375 2.365,1.41 5.00376,0.86625 1.875,-0.38625 2.2475,-1.25751 3.0325,-3.85376 0.55375,-1.8275 0.99125,-3.46375 0.85,-5.28625 -0.28125,-3.61501 -4.19,-10.41002 0.52125,-12.09877 0.86875,-0.31125 1.99875,-0.1075 2.97376,0.105 1.31375,0.28625 1.53625,0.15625 2.22875,-1.29875 0.57,-1.195 1.2275,-2.295 1.59,-3.5825 1.36,-4.83126 -0.72125,-6.19376 -4.89751,-4.21501 -4.79125,2.27 -6.9425,11.99502 -5.91875,18.51502 0.3125,2.68751 0.65625,5.10751 0.65625,5.10751 0,0 -0.28625,-0.004 -0.6275,-0.0375 -1.34125,-0.13125 -3.64501,-1.9125 -3.77501,-4.39001 z m 112.58513,79.69134 -7.33126,7.33126 7.33126,7.33251 7.33251,-7.33251 -7.33251,-7.33126 z m -2.8375,-13.59126 c 0,0 -10.75377,0 -12.85377,0 -7.16501,0 0.0975,-5.90626 1.63875,-6.52876 1.72375,-0.695 3.67376,-1.0425 5.20251,-0.81875 1.81875,0.26625 5.71,2.8025 6.01251,5.21001 0.10625,0.845 0,2.1375 0,2.1375 z M 220.01419,0 c 0,0 -1.17375,0.0663 -2.04251,0.35375 -1.11875,0.37125 -4.6425,5.31751 -5.09875,7.83876 -0.18625,1.0325 -0.19375,1.34625 -0.0737,3.14625 1.315,19.64753 2.41,39.92755 4.5425,58.89507 1.50876,13.42377 0.94125,20.13252 11.44752,24.03128 9.68751,3.59625 18.96377,4.48125 27.69753,3.2625 6.60751,-0.9225 13.88126,-2.19875 20.77002,-3.59375 1.7675,-0.35875 2.06625,-0.57125 2.9875,-2.12501 1.41251,-2.38375 3.30626,-5.13125 3.70376,-7.42625 0.12875,-0.74 0.19375,-1.55126 0.19375,-1.55126 0,0 -3.24,0.095 -5.35751,0 -5.66125,-0.25125 -6.50625,-4.225 -11.34251,-10.68751 -3.44625,-4.60375 -9.65626,-5.3975 -14.69627,-1.67 -2.17125,1.60625 -4.71375,4.65751 -6.34625,7.68126 -2.96376,5.49376 -2.45876,6.94751 -6.21126,6.01251 C 223.13174,79.91634 222.78924,75.09759 222.01799,54.60881 221.24549,34.12129 220.01424,0 220.01424,0 z m -80.98294,46.0625 c -1.27212,-0.04782 -1.88406,0.893134 -2.65625,4.1875 -0.46875,1.99875 -0.65749,3.90875 -0.46875,5.625 0.195,1.785 0.81,3.33626 0.8125,6.21875 0.002,2.88 -0.625,7.09375 -0.625,7.09375 L 118.5,66.40625 c -1.82,-0.28625 -2.20126,-0.295 -4.03125,-0.03125 -6.635,0.9575 -16.16875,5.8025 -19,12.09375 -0.685,1.5225 -0.7775,1.88376 -0.9375,3.71875 L 93.71875,91.5 c 0,0 2.36375,0.35375 4.90625,0.4375 6.84124,0.2275 15.0625,-1.4375 15.0625,-1.4375 0,0 0.0213,0.99126 -0.15625,1.625 -0.23125,0.8275 -0.8075,1.03375 -1.46875,1.3125 -1.82375,0.76625 -4.1875,2.1125 -6.46875,3.21875 -18.67873,9.05622 -54.95002,12.07875 -74.5625,6.84375 -3.37,-0.9 -12.68625,-4.19625 -18.25,-8.25 L 0,85.9375 6.90625,98.78125 c 7.48374,13.96621 28.46501,16.2475 41.90625,16.125 16.18498,-0.1475 34.45876,-3.0525 44.09375,-5.90625 5.12999,-1.52 9.51501,-3.08375 12.125,-4.3125 9.1775,-4.32497 18.6475,-11.22876 15.5625,-20.34375 -1.02125,-3.01749 -4.14751,-3.6775 -8.25,-3.53125 -2.87125,0.1025 -6.56751,0.99625 -9.21875,1.25 -0.74625,0.0713 -1.43,0.085 -1.71875,-0.15625 -1.145,-0.95749 2.08626,-2.44375 3.71875,-3.125 2.97875,-1.24125 5.19625,-2.34375 7.96875,-2.71875 2.71999,-0.37 12.71999,1.275 19.03125,2.21875 1.8225,0.2725 2.13875,0.155 3.15625,-1.21875 0.8676,-1.170763 1.57887,-1.951429 2.25,-2.375 0.61278,-1.31662 0.85905,-2.016284 1.43745,-3.40625 0.0508,-0.149704 0.10112,-0.316037 0.15625,-0.46875 2.85738,3.399907 7.66392,6.621317 9.1875,7.15625 3.9811,1.398502 13.32069,1.38537 17.71875,-1.375 0.54411,-0.341544 1.06688,-0.741436 1.53125,-1.125 l 2.15625,-1.78125 1.15625,1.90625 c 0.27367,0.446055 0.57226,0.920308 1.03125,1.25 0.74881,0.535482 6.39252,1.070009 8.3125,0.84375 2.17856,-0.256428 3.41719,-0.785624 4.53125,-1.21875 l 0.68755,-0.28125 2.46875,-1.625 3.28125,1.75 c 0.90072,0.26828 1.76523,0.587313 2.75,0.78125 2.12792,0.41912 4.64904,0.263988 6.96875,0.125 1.55473,-0.09266 1.79965,-0.198375 2.34375,-0.875 0.40404,-0.501004 0.66384,-1.0572 0.9375,-1.65625 1.24336,-2.714049 2.86975,-5.793488 3.78125,-8.40625 0.10343,-0.298456 0.1972,-0.627201 0.21875,-0.9375 0.029,-0.416965 -0.0454,-0.617674 -0.53125,-2.09375 l -3.21875,-9.8125 c -0.48592,-1.476075 -0.57007,-1.679986 -0.75,-1.875 -0.37988,-0.411383 -0.90813,-0.571239 -1.34375,-0.5625 l -0.0312,0 c -0.25224,0.0134 -0.48467,0.07004 -0.625,0.1875 -1.19164,0.999853 -1.15966,5.086356 -2.375,6.09375 -0.22626,0.187473 -0.48925,0.279127 -0.65625,0.5 -0.35555,0.470835 -0.22839,1.591729 -0.0312,2.5 0.32,1.473921 0.84053,2.427025 0.9375,4.46875 0.0431,0.901807 0,2 0,2 0,0 -1.50126,0.05172 -2.78125,0 -2.08697,-0.08404 -5.05393,-0.790209 -5.375,-3.09375 -0.4105,-2.951074 -0.88178,-4.681341 -3.03125,0.5625 -0.8307,2.02665 -1.25366,2.617527 -4.21875,3.09375 -4.08129,0.656154 -8.85033,0.716171 -9.59375,-2.21875 -0.99339,-3.918604 -0.95424,-2.287255 -4.90625,0.84375 -3.71174,2.940309 -13.85411,2.667872 -18.4375,1.09375 -2.98586,-1.025853 -7.08241,-3.041108 -8.65625,-6.1875 -1.82619,-3.650886 -1.62822,-8.896459 -2.125,-12.5625 -0.2475,-1.8275 -0.32875,-2.0575 -0.8125,-2.15625 -0.21141,-0.04313 -0.41202,-0.05567 -0.59375,-0.0625 z M 77.21414,44.32255 c 0.177,-0.0975 0.36088,-0.20375 0.55288,-0.3175 3.17112,-1.8775 3.38175,-2.4975 3.94837,-6.29501 0.15,-1.005 0.33663,-1.8925 0,-2.1375 -0.44512,-0.3225 -1.80525,0.48 -3.25487,0.96125 -2.32913,0.77375 -4.22538,0.785 -5.87126,0.26125 C 59.024,32.47629 76.03351,3.99626 69.16463,15.51877 c -0.84525,1.41875 -1.65425,2.85 -2.35025,4.27875 -6.42526,13.19252 -0.48713,30.55379 10.39976,24.52503 z M 184.6979,17.12002 180.11414,1.985 c -0.5225,-1.72625 -0.62125,-1.9225 -0.98125,-1.96375 -1.06375,-0.12125 -1.325,0.26625 -2.02375,1.4975 -1.7425,3.06876 -2.75125,4.32126 -2.2375,6.03501 0.655,2.18875 3.19375,4.94876 4.72875,7.87751 1.51875,2.8975 2.7575,9.01751 2.3375,12.29126 -0.95875,7.46626 -4.72,10.55376 -1.67,15.09627 2.0525,3.05625 6.09626,5.03 8.01626,2.6725 2.4475,-3.005 3.55251,-9.00751 0.33375,-11.02251 -0.9225,-0.5775 -2.47375,-0.8975 -3.77625,-1.0525 -1.7575,-0.20875 -1.96375,-0.3275 -2.06876,-1.18625 -0.33625,-2.73751 2.23251,-8.88626 2.50501,-10.38626 0.115,-0.63251 0.17875,-1.24751 0.1075,-1.87126 -0.0962,-0.84 -0.165,-1.12625 -0.6875,-2.8525 z" />
</svg>
