<?xml version="1.0" encoding="UTF-8" standalone="no"?>
<svg>
    <path
       style="fill:#000000;stroke:none"
       d="m 53.26619,21.786233 -0.1875,-4.30375 c -0.0763,-1.74 -0.05,-2.0525 0.25125,-3.11749 0.22375,-0.79125 0.46125,-1.65625 1.06125,-2.21375 1.46125,-1.3575 5.08124,-0.88875 6.75999,-2.0075 2.41625,-1.6099993 2.4175,-7.1424893 0.55875,-9.38498929 -1.9725,-2.37750001 -5.95874,1.39874999 -7.59249,3.55999999 -1.0025,1.32625 -1.9525,2.84749 -2.38,4.62249 -0.1975,0.8225 -0.3075,1.7562493 -0.4625,2.5737493 l -0.75875,4.00374 -2.50374,-3.18624 c -3.42875,-4.5149993 -2.3825,-5.8574993 -7.42,-7.0849893 -1.68874,-0.41125 -5.34874,-0.2575 -6.05249,1.64249 -0.55,1.4875 0.7425,5.1037493 1.55125,5.9624993 0.6225,0.66 3.14374,2.29874 4.18499,2.39999 1.70125,0.16375 5.17875,-0.87249 5.17875,-0.87249 0,0 2.80624,4.03999 4.51999,5.93624 0.7475,0.8275 1.36625,1.49375 2.325,1.5125 0.39625,0.007 0.96625,-0.0425 0.96625,-0.0425 z m -6.23874,1.1925 c -2.0275,1.64499 -4.725,3.93874 -6.04125,5.50499 -1.34625,1.6 -3.11999,7.19499 -2.80874,10.42874 0.11125,1.16 1.63124,6.06874 3.15499,6.65624 0.665,0.25625 1.525,0.26625 1.525,0.26625 0,0 1.73,-4.62124 1.26125,-7.20374 -0.48875,-2.7 -3.495,-3.91625 -0.88375,-6.56249 0.43375,-0.43875 0.63125,-0.61125 1.9725,-1.725 2.1625,-1.79625 4.66999,-3.94125 6.88249,-5.405 l 16.50623,-9.01999 3.2675,-1.83874 -0.39625,2.25999 -0.70375,4.0175 c 0,0 0.46625,-0.0288 0.82375,-0.1575 0.93,-0.33625 1.14125,-1.62375 1.4975,-2.65 0.43625,-1.25625 1.2675,-2.18375 2.22249,-3.10999 0.595,-0.5775 10.43249,-8.2337493 9.37249,-9.9787393 -0.92499,-1.5225 -7.19624,0.6875 -8.75999,1.41125 -4.79749,2.22124 -19.78247,10.6437293 -23.45997,12.8974793 l -5.43249,4.20875 z m 100.59613,-1.1925 -0.1875,-4.30375 c -0.0763,-1.74 -0.0513,-2.0525 0.25125,-3.11749 0.22375,-0.79125 0.46,-1.65625 1.06,-2.21375 1.4625,-1.3575 5.0825,-0.88875 6.76,-2.0075 2.41749,-1.6099993 2.41874,-7.1424893 0.55874,-9.38498929 -1.97124,-2.37750001 -5.95749,1.39874999 -7.59124,3.55999999 -1.00375,1.32625 -1.95374,2.84749 -2.37999,4.62249 -0.19875,0.8225 -0.3075,1.7562493 -0.4625,2.5737493 l -0.75875,4.00374 -2.505,-3.18624 c -3.42875,-4.5149993 -2.3825,-5.8574993 -7.41999,-7.0849893 -1.6875,-0.41125 -5.34875,-0.2575 -6.0525,1.64249 -0.54999,1.4875 0.7425,5.1037493 1.5525,5.9624993 0.6225,0.66 3.1425,2.29874 4.185,2.39999 1.70125,0.16375 5.17749,-0.87249 5.17749,-0.87249 0,0 2.80625,4.03999 4.52,5.93624 0.74875,0.8275 1.36625,1.49375 2.32624,1.5125 0.39625,0.007 0.96625,-0.0425 0.96625,-0.0425 z m -2.30124,2.95374 c -1.7125,1.97 -3.97375,4.695 -5.00125,6.46375 -1.04875,1.80874 -1.83125,7.62624 -0.9675,10.75873 0.31,1.1225 2.655,5.695 4.2575,6.01125 0.69875,0.1375 1.5475,0 1.5475,0 0,0 0.9075,-4.85125 0,-7.31499 -0.9475,-2.57375 -4.11875,-3.25375 -2.00375,-6.31 0.3525,-0.50875 0.5175,-0.7125 1.64625,-2.04124 1.81999,-2.14125 3.91999,-4.6875 5.84624,-6.51 l 7.73499,-6.33249 2.90125,-2.375 0,2.295 0,4.07875 c 0,0 0.45375,-0.1075 0.78375,-0.29625 0.85875,-0.4925 0.84375,-1.79625 1.0175,-2.86875 0.21375,-1.3125 0.87125,-2.37 1.65249,-3.4475 0.4875,-0.67125 8.85624,-9.9099893 7.51,-11.4462293 -1.1725,-1.33875 -6.96875,1.91999 -8.38374,2.90249 -4.3425,3.0149993 -10.68249,8.4949893 -13.91499,11.3487393 l -4.62624,5.08374 z m 15.68248,26.55497 0.75125,-0.0125 c 0.3375,-0.006 0.4275,-0.21125 0.905,-2.05499 2.74499,-10.59749 3.24624,-16.44998 -3.50625,-23.24623 -1.1125,-1.12 -2.4075,-2.05874 -3.2425,-1.055 -0.56624,0.68 -1.14499,5.485 -0.88624,6.53375 0.45125,1.83499 1.78999,2.43124 3.33499,3.67624 3.49,2.81375 4.365,4.925 3.92125,8.67374 -0.34125,2.87625 -1.2775,7.48499 -1.2775,7.48499 z m -134.8361,-35.66871 0.5025,10.61874 2.365,51.88994 c 0,0 1.60499,-1.92874 2.56624,-3.68374 1.36375,-2.48875 1.435,-4.62875 1.845,-7.01749 0.3225,-1.87375 0.3425,-2.2925 0.21125,-4.185 l -2.58875,-37.02121 -0.24625,-6.28374 c 0.2575,0.16875 0.5025,0.3225 0.73375,0.45875 l 3.9825,2.36375 -0.76,-2.5125 c -0.0862,-0.285 -0.1775,-0.5875 -0.27,-0.89125 -1.105,-3.65 -1.7175,-7.25874 -2.45375,-10.9999893 -0.70375,-3.58249 -1.6425,-8.35373999 -1.6425,-8.35373999 0,0 -0.66499,-0.0425 -1.27749,0.0625 -1.68375,0.28875 -5.2775,6.71748999 -5.51,8.17748999 -0.0225,0.13875 -0.0362,0.27625 -0.0412,0.41375 -0.01,0.3025 0.01,0.62 0.0525,0.9475 0.3075,2.3537493 1.295,4.3637493 2.53125,6.0162393 z m 35.79746,9.91749 0,2.40875 c 0,0 2.89875,0.4875 4.95249,0 2.08125,-0.4925 7.46375,-6.12999 6.01125,-1.67625 -0.6175,1.89125 -2.595,4.24 -3.87,6.83624 -0.90625,1.8475 -1.585,4.03 -1.28875,4.515 1.41375,2.32 5.415,-5.64874 6.12625,-7.09499 1.10624,-2.2475 2.06249,-4.34625 2.25749,-7.08124 0.1725,-2.41875 0,-5.81875 0,-5.81875 l -5.17249,0 c -1.74125,0 -2.045,0.02 -3.04125,0.2 -2.47999,0.44875 -4.93374,2.77375 -5.70874,5.55125 -0.24,0.86124 -0.26625,1.07749 -0.26625,2.15999 z m 56.30744,72.16242 c 0.21875,3.011247 1.62249,4.883747 4.17874,5.423747 3.29625,0.6975 5.16,-1.09 6.005,-4.706247 0.185,-0.79375 0.14375,-1.455 -0.3675,-1.77375 -0.97125,-0.60625 -3.6375,0.0237 -4.9275,-0.66125 -1.60375,-0.85249 -2.01125,-4.47374 -1.615,-6.16749 0.3975,-1.695 1.41,-3.50999 1.685,-4.81624 0.0563,-0.265 0.0825,-0.50875 -0.0337,-0.64375 -0.0137,-0.0175 -0.0288,-0.0338 -0.0437,-0.0488 -3.87874,-0.88375 -4.82249,14.20623 -4.88124,13.39373 z m 38.58495,5.572497 7.87749,-7.877487 -7.87749,-7.8775 -7.87749,7.8775 7.87749,7.877487 z m -38.7887,-30.762467 -14.18874,0 c 0,0 -0.0425,-1.41625 0,-2.58 0.0512,-1.43124 2.08875,-5.13749 2.8375,-5.15999 1.5025,-0.0437 3.19625,0.84875 6.19124,1.935 2.03625,0.73875 4.93875,2.70374 5.16,3.65124 0.2225,0.9475 0,2.15375 0,2.15375 z m -48.37245,-2.8375 c 0.22125,0.3175 0.23,1.18 0,1.5475 -0.36125,0.57875 -6.02874,-1.065 -7.09499,-1.6125 -1.80375,-0.92624 -3.1775,-3.87999 -1.935,-4.83749 1.22125,-0.94 6.45499,1.2 9.02999,4.90249 z m 30.31372,-2.57999 c 0.9175,1.91624 -2.97125,2.68999 -3.57,2.67874 -1.20375,-0.025 -4.92749,-2.68374 -5.45999,-4.09749 -0.53375,-1.41875 1.3625,-4.03875 3.61249,-4.7725 2.19625,-0.7175 4.18,3.60625 5.4175,6.19125 z M 39.39745,108.39738 c 5.27625,4.12 14.12624,4.24875 20.40873,1.88375 3.81625,-1.4375 8.10749,-4.64 11.78249,-8.50624 4.79499,-5.044997 9.71749,-12.813737 9.71749,-19.544977 0,-0.78125 0,-1.32875 0,-1.32875 0,0 7.79624,-1.18 12.26748,-0.645 2.4075,0.2875 3.85125,1.07125 5.7925,1.6125 5.73249,1.59625 17.25748,1.80625 20.31623,-2.2575 1.87624,-2.49249 4.84999,-11.12873 4.19249,-14.05998 -0.5,-2.22875 -3.4825,-6.56374 -5.15999,-7.54624 -2.56625,-1.505 -7.65375,-1.61875 -8.75624,-3.17625 -0.54125,-0.76625 -0.2675,-1.88375 -0.63375,-3.03125 -0.56125,-1.75624 -7.99874,-8.70874 -10.05124,-10.43873 -1.64625,-1.38875 -2.995,-1.785 -4.1,-0.44625 -2.2625,2.74249 -2.88249,5.66499 -1.91375,8.74124 0.43875,1.39624 1.125,2.67624 0.94625,3.77124 -0.2775,1.6975 -2.63249,2.95 -4.19249,4.9025 -1.39,1.73999 -2.20125,4.19874 -2.58,6.44874 -0.40625,2.42 -0.48875,4.80374 -1.3925,5.80499 -0.5825,0.645 -4.05749,0.645 -4.95374,0 -1.58875,-1.1425 -2.67125,-3.72249 -4.295,-6.12749 -2.01874,-2.99 -9.22624,-11.13874 -13.11873,-9.99624 -4.00625,1.175 -6.185,10.20499 -6.87624,13.95624 -1.38625,7.53499 -0.78625,9.23499 4.51499,11.51998 0.78125,0.33625 1.6025,0.6675 2.45875,0.7875 1.15375,0.16125 1.47625,0.18875 3.21499,0.275 l 11.09624,0.55 c 0,0 0.13875,1.57 0,2.79875 -0.375,3.29874 -10.01124,11.49498 -11.60999,12.67998 -5.96374,4.419997 -15.34748,7.154997 -22.13622,3.758747 -3.185,-1.592497 -5.27249,-5.318737 -6.62499,-9.023737 0.0362,0.0975 -4.04,-15.00248 -4.96375,-15.51373 -0.7675,2.16249 0.055,10.02249 -0.0763,6.96249 0.005,0.10625 0.009,0.2125 0.0138,0.32 1.00625,24.887467 7.77749,25.699967 6.71249,24.868717 z m 117.88862,-41.153697 -0.645,0 0,0.645 c 0,0 -4.88124,0.2125 -8.25624,0 -2.10999,-0.13375 -7.20749,-1.00625 -7.86874,-1.71625 -1.0275,-1.10125 1.45625,-4.4675 3.225,-5.70125 3.88249,-2.70624 6.66249,-2.11874 9.55749,0.14 1.59375,1.245 3.84499,3.85875 3.98749,5.085 0.0838,0.72875 0,1.5475 0,1.5475 z M 123.88736,0.32125371 c -0.93125,0.78624999 -2.47125,4.02124999 -2.72,5.85623999 -0.325,2.3925 -0.18625,4.5287493 0,6.8887493 1.07625,13.68498 3.73375,34.85996 5.88875,52.25744 0.215,1.7275 0.2875,2.05625 0.735,3.2825 0.97624,2.67374 4.20124,5.64874 5.62999,6.59249 1.77625,1.17125 5.20249,2.14 8.37249,2.365 9.02874,0.63999 32.25246,-1.60375 32.25246,-1.60375 0,0 2.79375,-5.45375 3.72625,-7.86499 0.44375,-1.14875 0.235,-1.39625 -1.1375,-1.81875 -4.45874,-1.37375 -6.58499,-0.92 -9.67499,-3.87 -2.02,-1.92875 -3.56374,-4.86749 -5.48249,-7.41749 -3.2175,-4.27624 -6.19374,-7.04874 -10.38374,-6.44874 -5.67374,0.81 -6.85124,2.47624 -9.60999,7.09374 -0.7225,1.20875 -1.4975,2.4275 -1.935,3.87 -0.9375,3.09624 -0.60625,6.64749 -3.12124,5.15999 -3.58125,-2.11875 -4.79625,-7.54624 -5.20375,-11.43874 -1.71375,-16.39748 -4.26624,-45.2449493 -4.79749,-51.2849393 -0.33,-3.7475 -3.565,-0.7525 -2.53875,-1.61874999 z M 8.44874,105.54488 c -2.20625,0.78625 -4.41875,1.5525 -6.62749,2.3475 C 0.1825,108.48113 0,108.59863 0,109.06238 l 0,0.51625 c 0,0.465 0.18875,0.56 1.88375,0.96125 0.6525,0.15375 1.38875,0.33 2.16999,0.515 8.73499,2.07625 16.73499,-0.135 25.44248,-5.22375 7.51999,-4.39624 14.22623,-11.359977 19.10872,-18.256227 1.98625,-2.80499 3.08,-5.47499 2.61,-10.08998 -0.145,-1.42625 -0.47875,-2.83 -0.2625,-4.15375 0.22375,-1.36625 1.0325,-2.6475 1.29,-3.99875 0.22375,-1.17249 0.0312,-2.39624 -0.3625,-3.71124 -0.465,-1.5475 -2.31,-5.5675 -1.29875,-6.46374 1.37125,-1.21375 3.30375,0.56 2.30625,-2.4275 -1.10125,-3.29875 -7.87499,-10.56249 -7.87499,-10.56249 0,0 -3.3175,2.6625 -4.7025,4.3325 -3.12624,3.76874 1.59125,7.32124 3.87,12.89873 0.86125,2.1075 0.98625,4.25375 1.935,6.44999 1.76,4.07375 3.48874,5.16625 2.90249,7.31375 -0.41625,1.52499 -1.89624,3.22999 -4.19249,5.58499 -0.009,0.01 -0.0175,0.0188 -0.0275,0.0288 C 33.22371,94.537453 18.62998,101.91619 8.44874,105.54493 z m 95.43239,-98.0623863 0,-1.0325 1.0325,0 c 0.46375,0 0.54125,0.0187 0.77625,0.1875 0.93625,0.675 1.63375,2.79 1.41625,3.0375 -0.42125,0.4774993 -1.74125,-0.2475 -2.55875,-1.035 -0.6,-0.5775 -0.66625,-0.69375 -0.66625,-1.1575 z M 48.41369,43.858703 c 0,0 -0.24125,1.29125 0,1.93375 0.40875,1.08875 3.5225,-0.3925 5.37875,0 1.44625,0.3075 2.20875,1.97 3.43124,2.58 1.54375,0.77125 6.3325,-0.46375 10.75624,-1.89875 18.09873,-5.86874 20.48623,-9.76999 35.62871,-19.97998 1.7375,-1.17125 2.9,-1.9225 2.9275,-1.86 0.13625,0.315 0.11125,0.9125 -0.075,1.165 -0.1025,0.13875 -0.25375,0.17375 -0.37125,0.27375 -1.42,1.2025 1.21,7.89874 1.33875,8.11124 1.04,1.7275 2.98,2.08 6.56499,1.29 2.9,-0.64 4.13875,-3.46374 4.72125,-7.86874 0.27375,-2.06375 -2.2725,-8.81124 -6.0625,-7.61124 -0.30625,0.0975 -0.5325,0.3075 -0.71,0.645 -0.855,1.6375 -0.5625,6.28999 -1.61249,6.44999 -0.26375,0.04 -0.61375,-0.205 -0.88375,-0.38125 -0.002,-0.001 -0.005,-0.002 -0.007,-0.005 -3.995,-3.04249 5.75124,-17.5737293 0.3175,-25.2212193 C 109.31288,0.53750371 109.06038,3.7077132e-6 109.06038,3.7077132e-6 l -3.60125,0 c -1.6175,0 -1.89625,0.076300002287 -2.78875,0.7575000022868 -3.00249,2.29124999 -4.60499,9.53373929 -3.30374,11.71623929 1.07375,1.80125 4.35249,3.18749 5.15999,4.72124 2.46875,4.69125 -20.37248,15.78248 -21.60747,16.34373 -4.22,1.9175 -22.20123,9.99374 -29.34497,10.31999 -2.29125,0.10375 -5.16,0 -5.16,0 z" />
</svg>
