<?xml version="1.0" encoding="UTF-8" standalone="no"?>
<svg>
  <path
     d="m 82.228757,99.859311 c -0.43375,2.711249 0.0937,3.377499 1.89625,2.544999 1.2275,-0.56625 17.067513,-9.779999 19.380013,-12.538749 0.9325,-1.11125 1.86125,-3.0775 2.18875,-4.845 0.2025,-1.08875 -0.125,-1.05125 -1.2975,-0.615 -2.7175,1.01125 -20.637513,11.91875 -21.198763,12.905 -0.525,0.92125 -0.86125,1.87625 -0.96875,2.54875 z m 28.840013,-84.12002 c -0.43375,2.71125 0.0937,3.3775 1.89625,2.545 1.2275,-0.56625 17.06625,-9.7800002 19.38,-12.5387502 0.9325,-1.11125 1.86125,-3.0775 2.18875,-4.84500001 0.2025,-1.08875 -0.125,-1.05125 -1.2975,-0.615 -2.7175,1.01125001 -20.6375,11.91875021 -21.19875,12.90500021 -0.525,0.92125 -0.86125,1.87625 -0.96875,2.54875 z m -23.466263,12.015 -2.1725,0 c 0,0 -0.0825,-1.26375 0,-2.29375 0.16125,-1.995 1.275,-3.52 2.0075,-5.16 2.0725,-4.64125 1.98375,-12.0162502 0,-15.4800002 -1.16375,-2.0325 -3.29375,-4.82000001161 -3.29375,-4.82000001161 0,0 -2.92375,5.13625001161 -2.72625,7.40000001161 0.13375,1.535 1.615,1.90125 2.58,3.1525002 2.1975,2.8525 1.59625,7.9725 0.57375,11.4675 -2.30875,7.88875 -5.655,11.98876 0.28625,16.34001 2.72875,1.99875 5.0675,2.31875 6.59375,0.28625 4.02876,-5.36625 3.53125,-7.3075 -1.43375,-10.32001 -0.28,-0.17 -0.555,-0.33875 -0.865,-0.4325 -0.41875,-0.12625 -0.57375,-0.14 -1.55,-0.14 z m -35.3425,-2.86375 -0.54125,-13.41 c -0.0812,-1.9900002 -0.1125,-2.3362502 -0.31625,-3.4625002 -0.6275,-3.455 -2.3125,-5.34625 -4.07375,-6.5675 -2.24126,-1.55375001 -3.95126,-2.13125001 -6.26001,0.0563 -1.89875,1.7975 -2.0775,8.3075 -1.33125,9.3250002 0.55625,0.76 2.0325,0.69125 3.81875,0.1475 4.46001,-1.3600002 4.90751,-1.0462502 6.07001,5.07625 0.55125,2.90875 0.6175,5.635 0.345,8.56125 -0.57625,6.21501 -1.93125,9.23751 0.72375,12.88501 1.10625,1.5175 2.26,1.7475 4.78125,1.07375 1.7925,-0.47875 2.1475,-1.55875 2.89875,-4.77875 0.52875,-2.26625 0.94625,-4.29626 0.81125,-6.55626 -0.26875,-4.4825 -4.00375,-12.91 0.4975,-15.00375 0.83125,-0.38625 1.91125,-0.13375 2.8425,0.13 1.255,0.355 1.46875,0.19375 2.13,-1.61 0.54375,-1.4825002 1.1725,-2.8475002 1.51875,-4.4437502 1.3,-5.99000001 -0.69,-7.68125 -4.68,-5.2275 -4.5775,2.815 -6.63375,14.8762502 -5.65625,22.9612502 0.3,3.33375 0.6275,6.335 0.6275,6.335 0,0 -0.27375,-0.005 -0.59875,-0.0462 -1.2825,-0.16375 -3.48375,-2.37125 -3.6075,-5.445 z m -2.41,65.98127 -4.86501,4.86625 7.00251,7.002499 7.0025,-7.002499 -4.86625,-4.86625 4.86625,-4.865 -7.0025,-7.0025 -7.00251,7.0025 4.86501,4.865 z m 85.746263,-41.43501 c -3.82625,0.8475 -8.5975,0.8025 -11.00875,0.6375 -3.2275,-0.22 -9.93875,-1.90625 -10.69,-2.68625 -0.455,-0.47125 -2.145,-4.01375 -2.325,-5.63125 -0.0937,-0.8375 0.1525,-1.40125 0.515,-2.0025 1.095,-1.8075 26.1475,-23.03626 32.29626,-25.55376 2.72375,-1.115 3.2325,-0.755 3.035,0.9775 -0.0637,0.55 -0.16,0.7575 -0.97,2.0775 -2.67375,4.36375 -7.31876,12.12625 -8.45501,12.8075 -1.295,0.77626 -2.7475,0.94751 -4.405,1.66501 -2.9175,1.26125 -4.01125,3.0875 -5.4475,6.30625 -1.63875,3.6725 -0.88,6.03625 3.44,6.88 1.6925,0.33125 4.09,0.47125 5.7675,0.53 4.085,0.145 3.55125,1.30375 2.39625,2.235 -1.86375,1.50125 -6.14,2.19875 -4.14875,1.7575 z m -29.52875,4.65125 c 0,0 0.64625,0.12625 1.2225,0.3075 1.55375,0.48875 3.6825,2.62 5.4025,4.23 1.33,1.245 2.9875,2.3575 4.36625,3.0625 0.995,0.51 1.84375,0.80625 3.05625,1.57375 2.2775,1.4425 5.83875,4.5475 5.83875,4.5475 0,0 -1.43,1.58875 -2.685,2.61875 -3.68,3.0175 -10.3375,2.46875 -13.95125,-0.86 -1.67625,-1.5425 -2.5,-4.405 -2.80375,-7.24875 -0.33625,-3.14125 -0.44625,-8.23125 -0.44625,-8.23125 z m 19.96625,22.2025 c 1.83625,-1.74375 3.64,-3.735 3.79875,-4.37125 0.2375,-0.94625 0.23375,-1.9325 0.63625,-2.99625 0.9975,-2.63125 2.13,-3.145 1.4,-5.4775 -0.3525,-1.1225 -2.625,-5.05375 -4.17,-6.03125 -0.2575,-0.16375 -0.545,-0.3275 -0.835,-0.49625 l -5.45125,-3.16125 6.1225,0.45625 c 0.79625,0.0588 1.81,0.115 2.705,0.105 5.34875,-0.06 13.95126,-4.03375 15.38876,-8.635 0.54125,-1.73625 -0.23,-3.4975 -2.29375,-4.495 -2.34376,-1.13375 -5.90751,-0.68875 -8.88626,-1.43375 -0.76875,-0.19125 -1.4975,-0.4625 -2.16,-0.87375 -0.89375,-0.555 -0.99,-0.655 -0.9625,-0.995 0.12875,-1.57375 0.7225,-0.5225 2.96375,-0.75375 1.025,-0.105 3.6325,-3.185 4.3025,-4.69625 0.1925,-0.435 0.29625,-0.87375 0.45875,-1.31375 1.02,-2.74501 5.88251,-6.67126 8.29751,-10.00126 1.98,-2.73125 3.4025,-6.83625 3.7525,-10.635 0.22875,-2.4712502 0.26125,-5.7050002 0.26125,-5.7050002 0,0 -2.24125,-0.14125 -3.67,0 -3.135,0.31 -10.34251,5.3987502 -12.38376,6.8800002 -3.28125,2.38125 -12.66375,10.43 -19.09625,16.215 -4.835,4.34876 -8.67875,7.50001 -10.73375,13.50876 -0.2025,0.59 -0.28,0.66375 -0.51875,0.66375 l -0.6125,0 c 0,0 -0.44375,-9.94375 0,-17.43001 0.28,-4.70875 3.195,-18.2237502 0.49875,-23.2350002 -0.59125,-1.10125001 -2.83125,-1.72125001 -3.56,-1.18875001 -0.70125,0.5125 -1.863753,6.09625001 -2.098753,7.24625001 -1.04625,5.1312502 -0.0225,55.9175102 3.727503,66.1412602 1.2975,3.54125 3.27,6.20251 7.16625,7.16626 0.2875,0.0712 0.57375,0.135 0.8575,0.19625 0.45125,0.0962 0.9,0.17 1.34375,0.2225 7.36625,0.885 11.14125,-2.39875 13.75125,-4.87626 z m -59.417513,-9.7175 c 1.7325,-2.5925 2.28,-5.56375 2.185,-7.75125 -0.0925,-2.12 -4.19875,-14.63625 -4.96625,-15.13625 -1.89375,-1.23125 -3.4275,2.90375 -4.2075,6.29625 -0.57375,2.4925 -0.57375,7.13375 0,7.465 0.44,0.25375 1.135,-0.0675 1.725,0.28625 1.7875,1.07125 2.0825,5.0875 1.715,5.64125 -0.5425,0.81625 -4.865,2.44125 -7.11,2.6725 -4.075,0.41875 -9.92251,-1.55625 -12.09751,-5.73375 -1.38875,-2.66875 -2.36,-5.5175 -4.0125,-3.44 -3.95,4.96375 -1.62125,14.01625 1.4325,18.92 0.885,1.42 2.00875,2.94626 2.00875,2.94626 0,0 -2.30875,2.19 -4.30125,3.93375 C 28.924997,91.481811 15.18375,96.236811 1.63,100.81431 0.1625,101.30931 0,101.41056 0,101.82306 l 0,0.9175 10.17875,-0.49125 c 1.54625,-0.0738 1.765,-0.0675 2.19,0.0613 0.7275,0.22125 2.54875,0.0962 2.7875,0.075 5.448747,-0.47125 15.148747,-4.719999 19.091247,-7.602499 2.26875,-1.65875 8.86375,-7.55375 9.8875,-8.84 0.9925,-1.24875 1.88125,-4.075 2.07375,-6.60375 0.17125,-2.23626 0.23125,-5.26626 0.23125,-5.26626 0,0 3.78751,0.965 7.22501,0.57375 0.9175,-0.105 1.81125,-0.30625 2.6,-0.53125 7.175,-2.045 11.41875,-9.14 10.35125,-7.5425 z m -5.605,0.955 -1.545,9.21375 c -0.135,0.79875 -0.2625,1.6075 -0.36375,2.34626 -0.74875,5.41375 0.67125,12.24 4.01375,14.81125 3.06625,2.35875 10.44,1.78625 14.81125,-0.0825 5.09625,-2.17875 15.23375,-10.0375 16.72625,-12.31125 0.91251,-1.38875 3.62126,-13.01251 3.43626,-14.74501 -0.22875,-2.14 -1.13625,-4.20375 -4.01376,-6.02 -3.60375,-2.275 -10.36,-6.3075 -10.6075,-7.16625 -0.0575,-0.20125 -0.10375,-0.41125 -0.1425,-0.61125 l -0.28875,-1.5275 1.3375,-0.0987 2.74625,-0.2025 -1.01375,-1.82125 c -0.6875,-1.2375 -1.91,-2.7175 -2.22875,-3.07 -3.29625,-3.66 -9.99,-8.78375 -9.99,-8.78375 0,0 -2.45,4.5825 -3.32,7.125 -1.12375,3.2875 0.555,2.91375 2.58,5.55 1.07375,1.3975 1.51,3.32375 2.29375,5.16 0.88375,2.07 4.26125,6.4125 6.02,7.74 2.545,1.92 5.15125,2.6325 8.8875,6.02 1.9875,1.8025 4.295,4.36125 4.295,4.36125 0,0 -5.32625,4.45125 -8.8825,7.10501 -5.9375,4.43125 -11.25375,7.28375 -17.48625,4.87375 -3.48125,-1.345 -5.26,-3.9875 -5.76125,-7.45626 l -1.50375,-10.41 z"
     style="fill:#000000;stroke:none" />
</svg>
