<?xml version="1.0" encoding="UTF-8" standalone="no"?>
<svg>
  <path
     style="fill:#000000;stroke:none"
     d="m 20.307847,39.914872 c -0.9825,6.06626 -4.39,15.23127 1.2025,18.01502 4.03001,2.00626 6.92376,0.2625 7.80127,-4.09125 0.31875,-1.58375 0.14,-2.63626 -1.07376,-3.28251 -2.0275,-1.0775 -6.54126,-0.78875 -7.63251,-1.98375 -0.4025,-0.44 -0.38125,-1.0775 -0.23875,-1.865 1.13,-6.20751 2.63376,-7.02126 1.98751,-11.82627 -0.31,-2.29375 -2.46876,-12.83502 -5.50001,-11.13251 -1.59875,0.89875 -2.3175,4.14875 -1.59625,5.2725 0.41875,0.6525 1.39,1.34001 2.0425,2.07876 1.29625,1.46875 3.365,6.60626 3.0075,8.81501 z m 25.13004,-21.84378 -0.51125,-9.7362601 c -0.075,-1.44376 -0.105,-1.69626 -0.2975,-2.51376 -0.59,-2.5075 -2.17876,-3.88125 -3.83876,-4.76875 -2.11125,-1.12751005 -3.7225,-1.54626005 -5.89751,0.0413 -1.79,1.305 -1.9575,6.03125 -1.255,6.77125 0.525,0.55126 1.915,0.50126 3.59876,0.10626 4.2025,-0.98751 4.62375,-0.76001 5.71875,3.6850001 0.52125,2.1125 0.5825,4.09251 0.32625,6.21626 -0.54375,4.51125 -1.82,6.70626 0.68251,9.35501 1.04,1.1025 2.12875,1.26875 4.505,0.78 1.6875,-0.3475 2.0225,-1.1325 2.73001,-3.47 0.4975,-1.645 0.8925,-3.11876 0.765,-4.76001 -0.25375,-3.255 -3.77251,-9.37251 0.46875,-10.8925101 0.7825,-0.28125 1.8,-0.0975 2.6775,0.0937 1.18375,0.2575 1.38375,0.14 2.0075,-1.16876 0.5125,-1.07625 1.105,-2.0675 1.43126,-3.22625 1.22375,-4.34876005 -0.65001,-5.57626005 -4.41001,-3.79500005 -4.31251,2.04375005 -6.25126,10.80001015 -5.32876,16.67002015 0.28125,2.42 0.59125,4.59875 0.59125,4.59875 0,0 -0.25875,-0.002 -0.565,-0.0337 -1.2075,-0.11875 -3.2825,-1.72125 -3.39875,-3.9525 z m 40.00755,65.70009 c -0.33,2.0625 0.0712,2.56875 1.4425,1.93625 0.93375,-0.43125 12.97752,-7.43751 14.736273,-9.53501 0.70875,-0.845 1.41501,-2.34001 1.66501,-3.68501 0.15375,-0.8275 -0.095,-0.7975 -0.98751,-0.46625 -2.06625,0.7675 -15.692523,9.06251 -16.120023,9.81252 -0.39875,0.7 -0.65375,1.42625 -0.73625,1.9375 z m 26.031293,-2.4225 c 0.18,2.4925 1.34375,4.04375 3.46,4.49125 2.73001,0.5775 4.27376,-0.90375 4.97376,-3.89875 0.1525,-0.65625 0.11875,-1.20376 -0.305,-1.46876 -0.80375,-0.5025 -3.01251,0.02 -4.08001,-0.5475 -1.32875,-0.705 -1.66625,-3.705 -1.3375,-5.1075 0.32875,-1.40376 1.1675,-2.90626 1.395,-3.98876 0.0463,-0.21875 0.0675,-0.42 -0.0275,-0.5325 -0.0125,-0.015 -0.0237,-0.0275 -0.0362,-0.04 -3.2125,-0.7325 -3.99375,11.76502 -4.0425,11.09252 z m -60.657593,-7.17501 4.86751,-4.86626 -6.92126,-6.92126 -6.92126,6.92126 4.86751,4.86626 -4.86751,4.8675 6.92126,6.92126 6.92126,-6.92126 -4.86751,-4.8675 z m 67.193853,-45.49257 4.8675,4.86751 6.92126,-6.92126 -6.92126,-6.92126 -4.8675,4.86751 -4.86751,-4.86751 -6.92126,6.92126 6.92126,6.92126 4.86751,-4.86751 z m -86.277623,40.81756 c -7.19376,5.02376 -18.03628,9.17751 -25.0087903,12.07627 -2.35625,0.97875 -5.01875,2.14625 -6.55625001,3.11125 -0.2125,0.1325 -0.24125,0.6825 0,1.00125 0.055,0.0725 0.24875,0.11875 0.5175,0.14 19.35252031,1.555 41.00130031,-10.38001 45.39631031,-31.10254 0.0387,-0.18625 0.07,-0.3625 0.1225,-0.5225 0.17625,-0.52 7.29501,-1.2225 9.65126,-2.035 11.04252,-3.81251 7.96126,-16.95503 5.79001,-24.24629 -0.0425,-0.14375 -0.085,-0.28875 -0.1275,-0.43375 -0.3625,-1.2375 -0.95,-2.56625 -2.35125,-1.8 -0.90001,0.4925 -1.39626,2.34875 -1.69876,3.3 -1.1975,3.76376 -0.715,5.35126 1.37126,8.73377 1.8625,3.02 2.74125,4.8525 -0.17125,6.71625 -1.51876,0.97251 -2.41001,1.15376 -4.29001,1.35001 -2.98,0.31125 -7.04376,0.58625 -9.51001,-1.05 -0.73,-0.48376 -1.35501,-1.15626 -1.95001,-1.95001 -1.04,-1.3875 -1.98625,-3.145 -2.8175,-4.3875 -1.38625,-2.07251 -2.58625,-0.30625 -3.30875,1.395 -0.52001,1.22375 -0.93126,2.645 -1.00626,4.12875 -0.0725,1.43626 0.35875,1.98876 1.28251,3.81376 0.4425,0.87375 0.78125,1.69 1.065,2.4675 3.23,8.85751 1.925,13.48127 -6.40001,19.29378 z m 24.96503,-2.8975 c 0.4075,7.88751 2.38376,20.80752 13.44377,19.22877 0.0412,-0.005 0.0825,-0.0112 0.12375,-0.0175 9.20376,-1.39 32.767553,-26.78629 22.62753,-37.0838 -2.41375,-2.45125 -6.60001,-3.7275 -9.26501,-5.04001 -0.12,-0.0587 -0.24,-0.12 -0.36,-0.18125 -0.7625,-0.3925 -3.82876,-1.78625 -3.90001,-3 -0.01,-0.18375 0,-0.45 0,-0.45 l 3.30001,0 c 0,0 -0.10875,-0.7025 0,-0.9 0.0438,-0.08 0.12375,-0.0775 0.18375,-0.11625 0.58625,-0.3825 -0.31875,-1.15125 -0.48375,-1.23375 -0.33375,-0.16875 -0.72,-0.2875 -1.12125,-0.41375 -5.08876,-1.59501 -8.70252,-10.26377 -11.75627,-1.82001 -0.5225,1.44375 -0.9475,4.48751 -0.455,5.41876 0.004,0.008 0.008,0.015 0.0113,0.0225 0.47875,0.8775 1.43,1.9725 2.6175,3.1375 2.99626,2.94001 9.83252,6.64251 14.78252,10.37252 4.34876,3.27625 2.90626,7.94626 0.8225,11.32376 -2.845,4.61001 -7.15876,7.75251 -10.36376,9.58502 -4.80126,2.74375 -8.38251,2.35125 -10.97626,0.75 -3.71626,-2.29501 -4.77751,-5.88251 -6.20876,-9.71502 -3.52751,-9.45251 -3.07501,-0.89375 -3.02251,0.13251 z m 65.638843,-19.66003 -0.6,0 c 0,0 0,0.3 0,0.3 0,0 -0.19375,-0.0137 -0.82,-0.0562 -4.34251,-0.2975 -4.42126,0.11875 -7.81251,-2.80251 -0.1775,-0.1525 -0.30625,-0.2725 -0.3675,-0.34125 -0.17375,-0.195 -0.265,-0.35875 -0.3,-0.76 -0.0475,-0.52125 0,-1.44 0,-1.44 0,0 2.1925,-0.18 3.34625,-0.12875 0.99125,0.0425 1.21625,0.25625 1.79251,0.59625 1.315,0.7775 4.68125,3.45876 4.76125,3.91251 0.0625,0.35375 0,0.72 0,0.72 z m 3.52626,18.81252 c 6.86376,-4.02125 7.49251,-13.43626 4.355,-20.58752 -1.26625,-2.88501 -2.94,-5.48001 -4.5075,-7.17876 -2.85751,-3.09876 -7.28251,-5.98001 -11.17377,-3.79626 -3.65125,2.0475 -4.83251,5.84501 -5.85001,9.75001 -1.14125,4.37501 -1.09,7.01501 2.30501,9.67002 2.4675,1.93 3.69,1.7975 6.90501,1.73 1.00875,-0.0212 1.94375,-0.0525 2.94,-0.45 4.27626,-1.7075 5.04876,-3.92626 6.15001,-0.15 0.085,0.29375 0.1825,0.60375 0.27375,0.91625 0.93375,2.8525 -2.02,2.95125 -4.64876,3.33375 -5.56751,0.80751 -12.91752,1.95876 -16.80627,-1.93375 -0.6225,-0.62125 -1.1775,-1.3725 -1.65125,-2.27125 -3.44376,-6.52251 -4.468763,-23.28128 -4.765013,-30.36129 -0.265,-6.34501 -0.29,-16.7862801 -0.35,-19.6275301 -0.0575,-2.75875 -0.1025,-4.70626005 -0.1025,-4.70626005 0,0 -0.4,-0.0188 -0.72,0 -2.01625,0.11375 -3.77626,4.01876005 -4.08001,5.19501005 -0.0812,0.3125 -0.13,0.9375 -0.1525,1.68 0.0337,-1.1375 4.28376,50.2900701 4.06751,49.3375701 1.8875,8.35876 6.117513,10.48627 14.463773,11.32752 10.32626,1.04 14.43877,-2.51626 13.34752,-1.87751 z M 73.070417,21.984842 c 0,0 0.51001,-0.69875 1.09876,-0.9 0.009,-0.002 0.0175,-0.006 0.0263,-0.009 0.5,-0.1575 1.575,0.57625 1.575,0.925 0,0.19375 0,0.28375 0,0.28375 l -2.70001,-0.3 z m 0,-6.6 0.25376,-4.92126 c 0.0413,-0.8087501 0.0413,-0.9887501 -0.01,-1.8000001 -0.1375,-2.19376 -2.07126,-6.61626 -2.85501,-7.93876005 -0.44875,-0.75876 -0.9925,-1.01751 -1.38375,-0.30751 -2.305,4.18376005 -0.4175,4.96876005 1.34625,9.01752005 1.12375,2.5812501 1.05625,5.2762501 0.39875,7.7500101 -1.495,5.62876 -3.36375,7.50126 0.45,9.45001 0.87125,0.44625 4.08001,0.96625 4.62001,0.75 3.50625,-1.405 3.82875,-7.86251 1.53,-10.50001 -0.44375,-0.50875 -1.89,-1.10875 -3.19,-1.32375 -0.5325,-0.0888 -1.16001,-0.17625 -1.16001,-0.17625 z m 31.886303,2.65625 c -0.525,0.5025 -0.98,1.01 -1.3525,1.525 -0.385,0.5325 -0.55875,0.96125 -0.6,2.28 -0.009,0.2975 -0.0113,0.64125 -0.01,0.95376 0.001,0.9025 0.32875,1.815 1.4925,0.88875 0.07,-0.055 0.14875,-0.11875 0.2375,-0.19125 0.0275,-0.0225 0.0563,-0.0463 0.085,-0.07 8.10626,-6.54626 8.20751,-5.33751 17.24002,-10.55002 0.24875,-0.14375 0.5,-0.27375 0.755,-0.36125 0.2675,-0.0925 1.03875,-0.2775 1.2,-0.15 0.1675,0.13125 0.009,0.555 -0.16125,0.9375 -0.465,1.05 -1.005,1.78125 -1.18875,2.66251 -0.2175,1.04375 -0.15375,4.065 1.23,4.5 1.06126,0.3325 1.18126,-1.11125 1.15251,-2.04625 -0.0537,-1.74 -0.0325,-2.08875 1.0675,-3.65376 0.75125,-1.07 1.87875,-2.28 2.8,-3.01 0.38,-0.3025 5.32376,-2.9875001 5.70501,-3.0562501 0.655,-0.12 1.275,-0.25 1.65,-0.61625 0.2625,-0.25626 0.42625,-1.09251 0.53125,-1.94626 0.225,-1.82 0.36125,-2.76375 -1.93375,-2.47 -6.99001,0.8925 -27.25254,11.8375201 -29.90004,14.3737701 z m 9.87251,-3.82126 0,-4.10375 c 0,-0.8100001 0.0112,-0.9350001 0.11125,-1.2487501 0.18875,-0.59 0.7325,-1.16626 0.96875,-1.24751 0.5775,-0.19875 1.50126,0.31876 2.40001,0.30001 2.58625,-0.0538 2.8175,-2.10251 3.12,-4.56001 0.26125,-2.13 0.35875,-2.78000005 -1.29625,-3.24001005 -2.025,-0.5625 -3.65001,0.94251005 -5.06876,2.76126005 -0.48875,0.62625 -0.9425,1.30875 -1.23375,2.06875 -0.485,1.26125 -0.59125,2.77625 -1.39875,2.8575 -0.3825,0.0375 -1.08375,-0.68125 -1.3525,-1.3875 -0.86625,-2.2675 -0.15,-3.03875 -1.35001,-4.05 -2.02625,-1.70625005 -3.96,-1.2225 -5.95625,0.225 -1.92876,1.4 -2.44876,3.8375 -1.39376,6.52501 0.55876,1.4237501 2.29876,1.7075001 4.25376,0.9000001 0.95125,-0.3937501 2.1175,-1.3687501 2.78625,-0.7587501 0.27625,0.2525 0.3725,0.7875001 0.61751,1.2712501 0.42375,0.8375 2.7475,3.3925 3.2925,3.5375 0.62,0.165 1.5,0.15 1.5,0.15 z" />
</svg>
