<?xml version="1.0" encoding="UTF-8" standalone="no"?>
<svg>
    <path
       style="fill:#000000;stroke:none"
       d="m 174.35581,42.930611 c -0.0515,-1.39625 -0.209,-3.14875 -0.66763,-3.58875 -0.26587,-0.25625 -0.63287,-0.07125 -0.86312,-0.20875 -1.03538,-0.62125 0.72587,-3.185 1.56512,-4.165 7.61788,-8.8925 27.36038,-19.9325 37.79163,-22.2175 0.995,-0.2175 1.9875,-0.3925 2.17625,-0.05625 0.0925,0.1675 -0.0125,0.46125 -0.1725,0.7925 -0.3775,0.78 -0.98,1.7225 -1.65,2.73375 -13.89125,20.9775 8.02125,-8.1337499 14.23875,-8.9524999 0.56875,-0.28 1.1025,-0.50625 1.57625,-0.65625 2.41875,-0.76125 5.04,-0.9225 5.3575,-3.2425 0.045,-0.325 0.0513,-0.73125 0.04,-1.12375 -0.105,-3.8 -6.305,-1.98250004 -10.675,-0.32 -4.045,1.5375 -10.05,4.0725 -16.42,7.02 -8.2425,3.8137499 -32.92088,15.2599999 -36.3935,25.2024999 -1.119,3.20375 -0.911,6.79375 1.31975,9.88125 0.0956,0.1325 0.1825,0.2525 0.26175,0.36 -1.007,-1.3675 2.73,4.3825 2.51475,-1.45875 z m 25.90225,5.96 0.69875,-0.0125 c 0.31375,-0.005 0.3975,-0.19625 0.84125,-1.91 2.55375,-9.86 3.02,-15.30375 -3.26125,-21.62625 -1.035,-1.04125 -2.24,-1.915 -3.01625,-0.9825 -0.5275,0.63375 -1.065,5.10375 -0.825,6.08 0.42,1.70625 1.665,2.26 3.1025,3.42 3.2475,2.6175 4.06125,4.58125 3.6475,8.0675 -0.31625,2.67625 -1.1875,6.96375 -1.1875,6.96375 z m -16.44875,-28.62375 -0.175,-4.00375 c -0.0712,-1.61875 -0.0475,-1.90875 0.23375,-2.9 0.20875,-0.73625 0.42875,-1.54 0.98625,-2.05875 1.36,-1.26375 4.7275,-0.82625 6.28875,-1.8674999 2.24875,-1.4975 2.25,-6.645 0.52,-8.73125004 -1.83375,-2.21124996 -5.5425,1.30125004 -7.0625,3.31125004 -0.9325,1.235 -1.81625,2.65 -2.21375,4.30125 -0.185,0.765 -0.28625,1.63375 -0.43,2.3949999 l -0.70625,3.72375 -2.32988,-2.965 c -3.18925,-4.1999999 -2.21662,-5.4474999 -6.903,-6.5899999 -1.57012,-0.3825 -4.97525,-0.24 -5.62975,1.52875 -0.51212,1.3825 0.69025,4.7474999 1.44338,5.5462499 0.57912,0.61375 2.92425,2.13875 3.893,2.2325 1.58287,0.1525 4.81725,-0.81125 4.81725,-0.81125 0,0 2.61037,3.7575 4.20525,5.52125 0.695,0.77 1.27125,1.39 2.1625,1.4075 0.36875,0.0062 0.9,-0.04 0.9,-0.04 z m -168.218246,8.961585 -6.535621,0.8775 c -1.388125,0.1875 -1.603875,0.1925 -2.1575,0.0562 -2.34225,-0.575 -3.703125,-3.195 -4.380125,-6.1725 0.03025,0.13375 -2.80662595,-6.07125 8.094,-23.98375009 -0.1665,-0.0587 -0.622875,0.34 -1.46125,1.33374999 -3.181125,3.7675 -6.739,9.6537501 -7.35325,11.2350001 -1.67512595,4.31125 -2.14400095,8.5475 -1.55362495,12.805 0.102125,0.73625 1.15124995,16.2975 15.20112095,8.48375 0.2265,-0.56125 0.33413,-1.26375 0.32,-2.15125 -0.0173,-1.07625 -0.17375,-2.48375 -0.17375,-2.48375 z M 134.46382,7.8746959 135.73507,61.195946 c 0.0337,1.4 0.0687,1.7075 0.355,3.08125 1.605,7.6875 3.2075,9.5775 9.7075,11.71 2.7125,0.88875 6.24625,1.6 10.00125,2.13125 19.89625,2.81125 56.41501,-1.42 71.60376,-5.1175 5.8075,-1.41375 8.50625,-2.5075 11.125,-8.17875 1.08125,-2.3425 2.74375,-7.28125 2.5475,-7.95 -0.28,-0.95375 -5.585,-5.75625 -8.40375,-7.61 -1.9,-1.24875 -2.70125,-1.7525 -4.7875,-1.89625 -3.53125,-0.24375 -15.48375,3.02 -23.00251,4.20875 -10.17125,1.60875 -30.5025,-0.3925 -39.77125,-0.59875 -2.93125,-0.0662 -6.68625,-0.47875 -9.46,-1.41875 -2.08625,-0.7075 -4.60375,-1.785 -4.60375,-1.785 0,0 1.365,-1.91125 2.2875,-3.15 1.09375,-1.46875 1.5675,-1.99125 2.44875,-2.095 1.31,-0.155 3.51875,0.61375 4.76625,0.1875 1.41625,-0.485 3.0025,-4.4825 2.99375,-6.71 -0.01,-2.7925 -1.1625,-4.59625 -2.93125,-4.735 -5.22625,-0.41125 -10.48,7.26375 -12.1475,11.90875 -0.41875,1.16625 -0.80125,2.745 -1.05375,4.43875 -2.46125,16.5025 29.6375,13.8575 39.2075,14.16 8.62875,0.27375 19.845,-0.81375 24.46751,-1.79625 9.525,-2.02375 13.71375,-5.1475 19.02625,-1.59 2.09125,1.40125 4.9575,3.71625 3.9775,4.83875 -0.275,0.315 -0.86625,0.505 -1.51,0.70875 -2.325,0.7375 -5.3275,1.66625 -8.635,2.415 -20.39376,4.61875 -46.42501,5.5175 -67.22751,2.49375 -9.30375,-1.3525 -14.9275,-3.17375 -16.60625,-10.99625 -0.77125,-3.595 -1.76125,-17.75375 -1.6875,-24.12 0.1625,-13.82625 1.31625,-33.24375009 1.31625,-33.24375009 0,0 -0.345,0.0675 -0.5175,0.0362 -0.16125,-0.0288 -0.17375,-0.19125 -0.22375,-0.3025 -0.11875,-0.2675 -0.64625,-0.26875 -1.055,-0.1275 -0.8375,0.2875 -2.4575,3.06999999 -3.01875,4.74374999 -0.4475,1.33375 -0.49375,1.6375 -0.46,3.0375 z m -44.759996,43.1650001 -7.21375,0.50375 c -1.3975,0.0987 -1.615,0.0688 -2.1825,-0.2975 -0.42125,-0.27125 -0.85625,-0.59625 -1.10125,-1.01125 -0.6725,-1.1325 -0.23,-2.6325 -1.6575,-1.985 -0.79625,0.36125 -1.40875,1.6325 -2.2175,2.495 -1.6675,1.77625 -4.05125,1.77375 -6.53375,1.75625 -2.12,-0.0137 -3.4525,-0.0912 -4.16875,-1.665 -0.77,-1.69125 -1.155,-1.07375 -2.95125,0.64375 -3.40125,3.25125 -9.29625,4.4175 -12.16625,1.85 -2.45625,-2.195 -6.3675,-11.44125 -7.39,-4.365 -0.095,0.65875 -0.1975,1.1725 -0.3025,1.575 -1.3825,5.28625 -0.98625,4.8025 0.61875,10.37125 0.86125,2.99375 1.68375,6.2275 1.10125,7.40125 -1.0075,2.02875 -8.915,4.48 -11.51,4.96125 -7.33251,1.35875 -13.38126,0.42375 -18.49863,-4.0075 -10.109126,-8.755 -4.285751,-27.03125 -6.558251,-23.06625 -3.290625,5.74125 -3.189875,13.93125 -2.238875,21.2025 0.83275,6.36875 3.104875,9.9675 9.255376,13.3725 6.33662,3.5075 16.36663,2.9675 22.79413,-0.40375 7.36375,-3.8625 8.06375,-5.725 10.3325,-13.1425 1.97375,-6.45375 -0.0412,-2.65875 4.27,-3.19375 0.82625,-0.1025 1.76,-0.235 2.5525,-0.385 2.69375,-0.51125 3.9625,-1.42 5.4775,-2.65 l 1.93,-1.56875 1.2375,1.9325 c 0.4975,0.805 0.70875,0.89375 2.1125,0.8875 1.85125,-0.007 3.82125,0.1825 5.52,-0.48875 1.15375,-0.455 1.95875,-1.065 2.595,-1.6075 l 2.11375,-1.80375 1.3475,1.33875 c 0.30125,0.31375 0.44375,0.47375 0.5925,0.65125 0.685,0.81375 0.91625,0.885 2.30625,0.715 l 8.4275,-1.02875 2.47875,-7.255 c 0,0 0.7325,3.055 1.84,4.6125 0.59125,0.8325 5.20875,2.87125 6.70375,2.91125 0.95125,0.0262 1.882496,-0.39 2.791246,-0.975 2.79375,-1.795 3.43,-2.95125 6.255,-2.7775 5.095,0.31375 11.53375,4.28625 13.50625,-0.94375 0.35625,-0.945 0.4125,-2.09625 0.8175,-3.1775 0.56625,-1.51375 1.815,-2.8925 2.2975,-4.32125 0.6175,-1.82625 0.355,-10.705 -0.1425,-11.59375 -1.60125,-2.865 -4.735,-1.8275 -8.21125,-0.0425 -3.445,1.76875 -6.66125,4.055 -8.01375,8.10125 -0.93875,2.8075 -0.6975,4.225 -4.72,5.53 -2.52875,0.82 -6.164996,0.2525 -8.589996,-2.52 -0.175,-0.2 -0.325,-0.40625 -0.43125,-0.64375 -0.1425,-0.31875 -0.1975,-0.505 -0.5525,-1.86 l -1.69625,-6.4875 c -0.355,-1.355 -0.3925,-1.5475 -0.37625,-1.9225 0.0125,-0.27875 0.0112,-0.65125 -0.105,-0.825 -0.18375,-0.275 -0.655,-0.0487 -1.04625,0.32875 -1.555,1.505 -2.73,6.615 -2.515,8.24 0.34875,2.62875 1.81625,6.63375 1.81625,6.63375 z m 22.758746,-3.95875 c -0.23125,-1.25125 0.0238,-1.115 1.74,-1.915 0.495,-0.23 0.95,-0.53125 1.48,-0.785 2.55625,-1.22375 3.42875,0.33375 3.5775,2.46125 0.08,1.155 0.1475,2.12 0.1475,2.12 l -0.8275,0.0587 c 0,0 -4.52,-1.11125 -4.52,-1.11125 -1.36125,-0.33375 -1.52,-0.41625 -1.5975,-0.82875 z m -23.014996,27.78875 4.91875,4.91875 6.224996,-6.225 -6.224996,-6.225 -4.91875,4.91875 -4.92,-4.91875 -6.225,6.225 6.225,6.225 4.92,-4.91875 z M 54.856324,20.070946 54.290074,9.2571959 c -0.0837,-1.60375 -0.1175,-1.8825 -0.33125,-2.79125 -0.655,-2.78625 -2.41875,-4.31125 -4.2625,-5.29625 -2.345,-1.25249999 -4.135,-1.71749999 -6.55125,0.045 -1.9875,1.45 -2.17375,6.7 -1.39375,7.52 0.58375,0.6125 2.1275,0.5575 3.99625,0.11875 4.66875,-1.09625 5.13625,-0.84375 6.3525,4.0937501 0.57875,2.345 0.64625,4.54375 0.3625,6.90375 -0.60375,5.01 -2.0225,7.4475 0.7575,10.38875 1.15625,1.225 2.36375,1.41 5.00375,0.86625 1.87375,-0.38625 2.24625,-1.2575 3.0325,-3.8525 0.5525,-1.82875 0.99,-3.465 0.84875,-5.2875 -0.28125,-3.615 -4.19,-10.41 0.52125,-12.0987501 0.86875,-0.31125 2,-0.1075 2.97375,0.105 1.31375,0.2862501 1.5375,0.1562501 2.22875,-1.2975 0.57,-1.19625 1.22875,-2.29625 1.59,-3.58375 1.36,-4.82999999 -0.72125,-6.19375 -4.8975,-4.21499999 -4.79,2.26999999 -6.9425,11.99500009 -5.91875,18.51500009 0.31375,2.6875 0.65625,5.1075 0.65625,5.1075 0,0 -0.28625,-0.004 -0.6275,-0.0375 -1.34125,-0.13125 -3.645,-1.91125 -3.775,-4.39 z m 34.21375,-9.04875 -6.10125,6.06125 c -1.01375,1.0075 -1.15875,1.18875 -1.4425,1.80875 -0.3975,0.86875 -0.53375,2.32125 -0.33875,2.51875 0.63125,0.6375 2.86625,-0.91 3.64375,-1.48375 6.81125,-5.02375 9.91375,-8.1875 11.015,-14.6925001 0.56,-3.305 -1.19,-4.58499999 -4.2875,-5.00624999 -4.915,-0.67 -9.79125,0.015 -11.7,3.71499999 0.2975,14.1262501 0.7175,6.0475 4.885,5.045 4.635,-1.115 9.62,-3.59375 4.32625,2.0337501 z m -50.94375,20.935 -6.10125,6.06125 c -1.01375,1.0075 -1.15875,1.18875 -1.44125,1.80875 -0.3975,0.86875 -0.535,2.32125 -0.34,2.51875 0.6325,0.6375 2.86625,-0.91 3.64375,-1.48375 6.81125,-5.02375 9.91375,-8.1875 11.01625,-14.69125 0.55875,-3.30625 -1.19125,-4.58625 -4.28875,-5.0075 -4.915,-0.67 -9.79125,0.015 -11.7,3.715 0.2975,14.12625 0.7175,6.04875 4.885,5.045 4.635,-1.115 9.62,-3.59375 4.32625,2.03375 z m 67.374996,2.59375 c 0,0 0.59,-1.36 0.94625,-2.43875 0.6025,-1.8175 0.505,-3.13125 0.2675,-5.0125 -0.6625,-5.2475 -1.68,-17.1337501 -1.68,-17.1337501 0,0 1.82625,-0.20625 3.2225,-0.16875 3.77625,0.0987 4.87625,1.8775001 6.8625,-0.1075 1.29375,-1.2925 2.45,-5.87 1.62375,-7.58 -0.94625,-1.95499999 -4.15125,-2.89624999 -5.62375,-1.30124999 -0.67875,0.73624999 -1.06625,1.89749999 -1.845,2.66249999 -1.20375,1.18375 -3.34125,1.41875 -4.40125,2.40625 -1.815,1.69125 -2.0575,13.5087501 -1.72375,16.3075001 0.5625,4.7225 2.35125,12.36625 2.35125,12.36625 z m -1.07625,42.2225 c -0.45375,2.8375 0.0987,3.53375 1.985,2.66375 1.285,-0.59375 17.86,-10.23625 20.28125,-13.1225 0.975,-1.16375 1.9475,-3.22 2.29,-5.07125 0.21125,-1.13875 -0.13,-1.09875 -1.3575,-0.6425 -2.845,1.0575 -21.5975,12.4725 -22.185,13.505 -0.54875,0.96375 -0.90125,1.9625 -1.01375,2.6675 z m 47.4,-53.935 0.64,-0.0113 c 0.28875,-0.005 0.365,-0.18 0.7725,-1.75125 2.33875,-9.0325 2.76625,-14.0200001 -2.98875,-19.8137501 -0.9475,-0.95374999 -2.0525,-1.75374999 -2.76375,-0.89874999 -0.4825,0.58 -0.975,4.67499999 -0.755,5.56999999 0.38375,1.56375 1.525,2.07125 2.8425,3.1325 2.975,2.3987501 3.72,4.1975001 3.34125,7.3925001 -0.29,2.45125 -1.08875,6.38 -1.08875,6.38 z" />
</svg>
