<?xml version="1.0"?>
<svg xmlns="http://www.w3.org/2000/svg" version="1.1">
  <path
     d="m 29.616991,50.1948 c 1.9972,0.576 4.5638,2.732 6.2678,3.292 4.398,1.445 6.4894,-8.351 6.0629,-11.216 -0.0843,-0.566 -0.4265,-1.836 -0.8938,-3.21 -0.4162,-1.224 -1.841,-5.282 -3.309,-5.485 -1.0507,-0.146 -1.273,-1.581 3.3969,-4.134 1.1976,-0.666 2.4169,-1.193 2.9063,-1.298 1.2312,-0.263 2.4977,-0.159 3.4343,0.106 0.5556,0.157 0.9952,0.37 1.436,0.265 0.5751,-0.137 3.0944,-4.886 3.4234,-6.453 0.44,-2.097 -0.382,-4.555 -2.4585,-4.154 -4.9863,0.964 -12.5731,7.918 -14.9572,11.324 -2.6526,3.79 -7.3291,14.669 -8.0474,17.643 -0.6002,2.484 -1.208,4.234 -2.3356,5.887 -5.7465,8.424 -21.0896,14.09 -21.6221,14.301 -6.6299,2.621 -0.4677,1.344 3.6587,0.706 4.1139,-0.636 6.7234,2.214 10.6968,-1.05 1.0644,-0.874 2.2681,-2.11 3.8374,-3.743 2.9872,-3.109 3.8222,-4.307 5.5741,-8.663 0.1706,-0.424 0.2849,-0.722 0.3605,-0.974 1.2345,-4.115 0.8645,-3.635 2.5685,-3.144 z m 4.1308,-7.606 c -0.3645,0.073 -0.8315,-0.136 -1.4637,-0.647 -1.2096,-0.979 -0.2334,-2.828 1.5345,-5.172 0.0956,-0.127 0.1808,-0.239 0.2573,-0.338 1.252,-1.624 1.5231,-0.891 1.5306,-0.089 0.023,2.454 -1.2227,6.118 -1.8587,6.246 z m 25.756,26.253 c -0.346,0.487 -0.619,1.152 -0.845,2.099 -0.137,0.577 -0.309,1.345 -0.187,1.862 0.083,0.357 1.663,-0.041 1.663,-0.041 2.69,-1.466 10.718,-5.31 17.824,-8.666 2.676,-1.186 4.911,-2.098 5.329,-2.743 2.282,-3.531 0.342,-3.708 -2.122,-3.001 -5.609,1.608 -19.239,8.353 -21.662,10.49 z M 78.825003,9.0499642 c -1.066918,0.023774 -2.397,0.7146873 -3.675,1.3249998 -6.81,3.252 -11.293001,10.235001 -12.425001,18.400001 -1.046,7.545 6.255001,9.084 13.900001,8.975 l 7.4,-1.125 c 4.566,-0.38 8.717,-0.178 10.525001,1.575 0.936,0.907 2.386,3.184 1.825,4.025 -0.338,0.507 -2.488,1.146001 -4.175001,1.575001 -5.356,1.362 -14.494,1.533 -19.95,0.55 -1.816,-0.327 -3.383,-0.702 -4.45,-1.15 -2.048001,-0.860001 -7.242001,-3.495001 -8.550001,-5.250001 -1.298,-1.743 -1.886,-3.344 -3.2,-1.225 -2.255,3.633 -2.415,8.320001 -1.1,12.450001 1.18,3.707 2.674,5.116 2.075,7.025 -0.28,0.894 -2.464,3.015 -4.475,4.325 -0.166,0.108 -0.326,0.215 -0.5,0.325 -8.0099,5.114 -13.816401,8.396 -23.075001,9.925001 -4.2624,0.704 -6.5437,1.313 2.425,2.55 8.732601,1.205 14.041201,1.139 21.075001,-5.550001 3.84,-3.651 6.576,-8.55 7.825,-14.075 0.388,-1.715 0.824,-3.227 1.225,-3.525 0.407,-0.302 1.505,-0.027 2.775,0.4 2.238,0.752 4.889001,1.191 7.800001,1.4 4.474,0.323 10.958,-0.139 15.4,-0.7 4.941648,-0.953369 7.58079,-2.508604 8.325937,-3.223244 0.745146,-0.714639 2.164777,-4.166597 4.97406,-8.776757 0.13532,-0.17934 0.18368,-0.225957 0.2,-0.225 -9.6e-4,-0.180795 -0.0139,-0.359236 0,-0.55 0.225,-3.065 -1.297992,-6.855 -4.099992,-8.275 -2.123,-1.075 -5.126001,-1.374 -8.475001,-1.275 -7.339,0.216 -6.334,1.684 -13.775,0.975 -2.355,-0.224 -4.482,-0.554 -5.775,-1.025 -2.820001,-1.025 -3.808001,-1.747 -3.150001,-4 0.092,-0.315 0.213,-0.63 0.35,-0.925 1.241001,-2.683 8.435001,-8.433001 11.550001,-7.025 3.854,1.741 2.958,-0.257 3.125,-3.400001 0.044,-0.843 0.05,-1.075 0.05,-1.075 0.066,-1.241 0.056,-1.421 -0.1,-1.9 C 80.322879,9.4125266 79.654832,9.031473 78.825003,9.0499642 z M 48.612591,53.4318 l 3.9062,-4.097 -5.2674,-5.524 -5.2673,5.524 3.906,4.097 -3.906,4.096 5.2673,5.524 5.2674,-5.524 -3.9062,-4.096 z m -26.8687,-17.976 -4.6544,4.849 c -0.7735,0.806 -0.8835,0.951 -1.0999,1.447 -0.303,0.695 -0.4079,1.857 -0.2589,2.015 0.4821,0.51 2.1865,-0.729 2.7798,-1.187 5.1956,-4.019 7.5624,-6.55 8.4025,-11.754 0.4269,-2.645 -0.9084,-3.668 -3.2713,-4.006 -3.7486,-0.535 -7.4686,0.013 -8.9248,2.973 0.2273,11.301 0.5474,4.838 3.7263,4.036 3.5364,-0.893 7.339,-2.875 3.3007,1.627 z m 41.0129,-26.638 -4.654,4.849 c -0.774,0.806 -0.884,0.951 -1.1,1.447 -0.303,0.695 -0.408,1.857 -0.259,2.015 0.482,0.51 2.186,-0.728 2.779,-1.187 5.196,-4.019 7.563,-6.55 8.403,-11.754 0.427,-2.645 -0.908,-3.668 -3.271,-4.006 -3.749,-0.535 -7.469,0.013 -8.925,2.973 0.227,11.301 0.547,4.838 3.726,4.036 3.537,-0.893 7.339,-2.875 3.301,1.627 z m -35.2211,7.239 -0.4323,-8.651 c -0.0641,-1.283 -0.0894,-1.507 -0.2525,-2.233 -0.5,-2.229 -1.8454,-3.449 -3.2519,-4.237 -1.7886,-1.002 -3.1537,-1.374 -4.9971,0.036 -1.5158,1.16 -1.6585,5.359 -1.0627,6.016 0.4445,0.49 1.6225,0.446 3.0482,0.095 3.5612,-0.877 3.9181,-0.675 4.8457,3.275 0.4408,1.876 0.4928,3.635 0.276,5.522 -0.4603,4.009 -1.5422,5.959 0.5778,8.312 0.8822,0.98 1.8039,1.128 3.8167,0.693 1.4301,-0.309 1.7138,-1.006 2.3134,-3.082 0.4221,-1.463 0.756,-2.772 0.6478,-4.23 -0.2146,-2.892 -3.1962,-8.328 0.3973,-9.679 0.6633,-0.249 1.5255,-0.086 2.2689,0.084 1.0021,0.229 1.1721,0.125 1.7002,-1.039 0.4342,-0.956 0.9366,-1.836 1.2128,-2.866 1.0369,-3.864 -0.5508,-4.955 -3.7362,-3.372 -3.6542,1.816 -5.2956,9.596 -4.515,14.812 0.2391,2.15 0.501,4.086 0.501,4.086 0,0 -0.2185,-0.003 -0.4786,-0.03 -1.023,-0.105 -2.7804,-1.529 -2.8795,-3.512 z m 74.490029,18.725 0.501,-0.009 c 0.226,-0.004 0.287,-0.148 0.605,-1.439 1.834,-7.425 2.169,-11.526 -2.342,-16.288 -0.743,-0.784 -1.608996,-1.442 -2.165996,-0.739 -0.379,0.477 -0.765,3.843 -0.592,4.578 0.301,1.286 1.195,1.703 2.227996,2.576 2.331,1.971 2.916,3.451 2.619,6.077 -0.227,2.015 -0.853,5.244 -0.853,5.244 z M 88.470724,15.8468 c -1.647,1.37 -2.902,2.79 -3.544,4.231 -1.033,2.315 -1.145,5.02 0.225,7.504 0.059,0.107 0.112,0.203 0.161,0.289 -0.62,-1.101 1.632,3.492 1.902,-0.901 0.065,-1.05 0.08,-2.375 -0.216,-2.74 -0.171,-0.212 -0.447,-0.101 -0.601,-0.222 -0.5,-0.392 0.107,-1.426 0.737,-2.225 2.607,-3.308 13.409996,-9.733 17.032996,-11.073 0.878,-0.325 1.706,-0.589 2.465,-0.783 0.71,-0.181 1.42,-0.331 1.561,-0.081 0.07,0.125 -0.001,0.348 -0.111,0.601 -0.258,0.593 -0.675,1.314 -1.139,2.087 -9.623996,16.037 5.624,-6.265 10.074,-6.989 0.404,-0.222 0.783,-0.401 1.12,-0.522 1.725,-0.616 3.603,-0.783 3.793,-2.535 0.027,-0.246 0.025,-0.551 0.01,-0.847 -0.139,-2.859 -4.56,-1.383 -7.669,-0.055 -1.202,0.513 -2.646,1.163 -4.25,1.916 -1.472,0.69 -15.141996,7.017 -21.550996,12.345 z m 3.729,-0.582 -0.126,-3.016 c -0.05,-1.219 -0.034,-1.438 0.168,-2.184 0.15,-0.555 0.308,-1.161 0.709,-1.551 0.977,-0.951 3.395,-0.622 4.516,-1.406 1.614,-1.129 1.616,-5.005 0.373,-6.576 -1.317,-1.666 -3.98,0.98 -5.071,2.494 -0.671,0.93 -1.305,1.995 -1.591,3.239 -0.132,0.576 -0.205,1.231 -0.309,1.804 l -0.506,2.805 -1.674,-2.233 c -2.29,-3.164 -1.591,-4.104 -4.957,-4.964 -1.127,-0.288 -3.573,-0.18 -4.043,1.151 -0.367,1.042 0.496,3.575 1.037,4.177 0.416,0.463 2.1,1.611 2.796,1.681 1.136,0.116 3.459,-0.61 3.459,-0.61 0,0 1.875,2.83 3.02,4.158 0.499,0.58 0.912,1.047 1.553,1.06 0.265,0.005 0.646,-0.029 0.646,-0.029 z"
     style="fill:#000000;stroke:none" />
</svg>
