<?xml version="1.0" encoding="UTF-8" standalone="no"?>
<svg>
  <path
     style="fill:#000000;stroke:none"
     d="m 41.950541,97.606823 c 3.71249,-0.0463 9.18499,-0.115 14.83123,-0.18625 6.73374,-0.0838 46.276209,-0.14375 51.183699,-0.525 0.56375,-0.0438 9.51874,-0.94 12.53999,-5.05124 0,0 0,0 0,0 l -84.239919,0 1.98625,-6.06875 c 0.52875,-1.615 1.22875,-3.14875 1.85375,-4.36874 0.3875,-0.75875 1.22,-1.69 2.20624,-0.58375 0.71,0.79625 0.27875,2.67624 2.2175,1.91874 1.25375,-0.49 1.81,-3.46499 1.86625,-4.95999 0.0675,-1.84 -0.1125,-4.295 -0.1125,-4.295 0,0 -1.8975,-0.1775 -3.32875,0.0862 -1.30624,0.2425 -3.84749,2.85 -4.60374,4.72625 -0.93625,2.32 -1.69375,4.81874 -3.25125,6.69999 -0.925,1.1175 -3.0875,2.4075 -4.71999,3.925 -0.9275,0.8625 -1.5025,1.5575 -1.80125,2.42625 -2.95125,8.60249 9.11499,6.30999 13.37249,6.25624 z m 41.08496,-86.58492 -6.10125,6.06125 c -1.01375,1.0075 -1.15875,1.18875 -1.4425,1.80875 -0.3975,0.86874 -0.535,2.32124 -0.33875,2.51874 0.63125,0.6375 2.86625,-0.91 3.64375,-1.48375 6.81124,-5.02374 9.91374,-8.18749 11.01499,-14.6924804 0.56,-3.305 -1.19125,-4.58500004 -4.28875,-5.00625004 -4.91374,-0.67 -9.78999,0.015 -11.69999,3.71500004 0.29875,14.1262404 0.71875,6.04749 4.88625,5.04499 4.635,-1.11499 9.61999,-3.59374 4.32625,2.0337504 z m 56.436189,41.30746 -5.93749,5.95125 7.53749,7.55499 7.53749,-7.55499 -5.93624,-5.95125 5.93624,-5.94999 -7.53749,-7.55499 -7.53749,7.55499 5.93749,5.94999 z m -62.197439,6.30375 -5.95124,-5.93625 -7.555,7.5375 7.555,7.53749 5.95124,-5.93625 5.95,5.93625 7.55499,-7.53749 -7.55499,-7.5375 -5.95,5.93625 z m 79.242429,5.27749 c 2.35749,-1.6925 3.77249,-1.77875 6.35249,0.3325 0.7125,0.58375 1.745,1.8475 0.965,2.69625 -0.78125,0.85 -7.34124,-2.30375 -7.35249,-2.34125 -0.0825,-0.27375 -0.105,-0.5875 0.035,-0.6875 z m -9.305,33.95372 c 3.7025,0.22375 7.165,-0.20625 12.17749,-0.9675 4.6575,-0.70875 10.73374,-2.36875 12.25374,-3.38375 0.9325,-0.62375 7.79874,-15.03123 7.75249,-16.26998 -0.205,-5.58375 -4.08249,-17.65748 -10.17749,-22.46873 -7.73874,-6.10749 -14.57748,-2.37 -17.78998,7.48874 -1.8475,5.67 -2.69,10.45499 1.5875,13.59749 2.2875,1.68 5.87374,3.00875 9.18874,1.5975 1.8875,-0.80375 2.44,-1.6275 4.13125,-1.1875 1.4325,0.37375 5.96124,3.15375 6.33124,4.02625 0.27125,0.64125 0.23875,1.44875 0.1725,2.17749 -0.09,0.98125 -0.2625,1.14875 -1.72375,1.6725 -12.11374,4.3425 -20.78498,5.39125 -32.91747,0.1375 -4.75374,-2.0575 -6.16499,-4.56624 -8.36374,-10.50124 -0.16625,-0.45 -0.32375,-0.88875 -0.4725,-1.32375 -3.71374,-10.82249 -2.5075,-19.77123 -3.1475,-30.81747 -0.0163,-0.28 -0.98999,-17.08998 -0.98999,-17.08998 -0.7225,-5.0825 -1.7575,-13.38124 -1.58625,-18.1162304 0.16875,-4.6775 1.46625,-7.4875 -1.6025,-6.06500004 -2.90125,1.34625004 -4.73,7.52625004 -4.445,11.72874044 0.3225,4.7475 1.59875,11.63124 1.91125,15.81749 0,0 0.25,4.74874 0.5,9.49999 0.57875,10.98374 1.14625,19.28123 1.63875,25.38122 0.5475,6.80625 1.45,12.20749 2.44625,16.41749 3.24124,13.68998 10.18749,17.86623 23.12497,18.64873 z m -36.33621,-22.27373 c 3.3025,0.71 3.94625,-0.59625 4.68999,-3.895 0.435,-1.92624 0.32125,-3.26374 -1.50124,-4.27624 -3.42375,-1.9025 -5.16125,-0.85125 -4.18375,-3.9075 1.385,-4.33249 2.2825,-4.95374 1.96375,-8.58374 -0.20375,-2.31625 -1.37,-7.69374 -3.335,-8.78874 -1.405,-0.78375 -2.2275,1.24625 -2.73375,3.88125 -0.1225,0.63874 -0.1825,1.14249 -0.09,1.72124 0.2975,1.875 2.1875,4.52375 2.53625,6.4575 0.37375,2.07 -1.14625,3.81124 -2.3675,6.77749 -2.33249,5.6625 -1.26124,9.26374 5.02125,10.61374 z m -75.103679,-59.66869 0.12875,-2.4475 -7.10499,0.09 c -1.55,0.02 -1.80125,-0.10875 -2.5075,-1.28 -2.24125,-3.7150004 -0.85625,-4.5299904 0.60125,-7.9087404 0.67625,-1.56875 0.97125,-3.33125 0.49625,-3.99875004 -0.87125,-1.2275 -2.4425,0.77500004 -3.30375,2.70125004 -2.1575,4.8225 -3.31624,14.7749904 1.51375,16.7562304 0.6625,0.2725 7.92249,0.9975 9.01874,-0.1025 0.37875,-0.38 0.65,-1.08124 0.8275,-1.68374 0.24,-0.81375 0.2725,-1.02625 0.33,-2.12625 z m 1.89875,26.95622 c -0.68625,-1.49875 -0.1575,-5.90374 0.5475,-7.22749 0.94625,-1.775 2.6525,-2.68 3.385,-1.9625 0.61625,0.605 0.76999,2.21625 0.38625,3.585 -0.5775,2.06625 -2.025,3.32999 -1.10875,5.03499 0.535,0.99625 3.46624,3.1125 2.92874,4.14625 -0.14,0.26875 -0.69375,0.17625 -1.37625,-0.0713 -1.67874,-0.61125 -4.26999,-2.42875 -4.76249,-3.505 z m 78.419919,-15.45123 c -3.64374,-0.985 -7.46999,-2.28875 -8.00624,-5.07625 -0.20125,-1.045 0.2725,-2.175 0.125,-2.77875 -0.0925,-0.37375 -0.68875,-0.525 -1.1,-0.2775 -0.6725,0.4025 -1.4925,1.54375 -2.21499,2.75875 -3.0075,5.05125 -2.75125,6.15875 -7.317499,7.95499 -12.42874,4.8875 -22.72623,6.6125 -31.66247,0.64125 -1.35,-0.9025 -2.59375,-1.88749 -3.56249,-3.34999 -2.02375,-3.055 -1.815,-4.3925 -3.4425,-5.64375 -3.18625,-2.45 -11.67999,-2.70125 -14.90999,-0.78125 -1.115,0.66375 -2.09249,1.70125 -3.28874,2.415 -1.1775,0.7025 -2.56625,1.09 -3.83375,1.8125 -5.37499,3.06375 -12.14249,17.35623 -12.74624,23.77248 -0.1875,1.98249 -0.24125,4.58749 -0.24125,4.58749 l 1.72125,0.09 -0.21125,4.02625 c -0.0812,1.5475 -0.11375,1.8175 -0.32,2.695 -0.1525,0.64999 -0.47875,1.26499 -0.78,1.83624 -0.65625,1.24375 -1.1925,2.28375 -1.90125,3.35 -2.99124,4.505 -19.4016027,18.75623 -21.70172475,22.54373 -0.450375,0.74125 -0.916999,1.7175 -0.58275,2.16625 0.21675,0.29125 0.797124,0.26 1.37637405,0.0725 1.295249,-0.42 2.584497,-1.61875 4.191996,-2.08125 0.779374,-0.22375 1.633623,-0.27375 2.483373,-0.28625 3.4821207,-0.0475 8.6902417,-3.08625 11.0639917,-5.7875 3.28499,-3.73874 7.12499,-9.69124 7.86249,-12.91873 0.72375,-3.16375 -0.59875,-7.1 0.6025,-11.49249 0.6175,-2.26125 1.84625,-4.7975 1.84625,-4.7975 0,0 1.9025,0.6325 3.50999,1.35125 4.6275,2.07 6.8,4.85375 9.53624,6.64999 2.8,1.83875 5.02625,2.06375 6.4925,0.2275 3.94374,-4.93999 6.42999,-11.17623 5.70624,-15.61748 -0.69625,-4.26875 -3.10999,-6.12124 -6.30124,-11.44124 -0.2775,-0.4625 -0.48125,-0.86125 -0.4825,-1.75 -0.002,-0.4975 0.06,-1.1475 0.06,-1.1475 0,0 0.38,0.0688 0.5725,0.03 0.18875,-0.0375 0.1975,-0.20375 0.25875,-0.32 0.1725,-0.33 0.91375,-0.27625 1.6075,-0.15625 2.35499,0.405 4.17874,1.55375 5.18249,3.14625 0.65125,1.0325 1.07875,2.38125 1.8275,3.54625 2.5225,3.92749 9.26499,7.40124 12.98249,8.15624 5.42624,1.1025 18.60373,-1.75375 24.20372,-4.4825 0.9375,-0.45625 1.78625,-0.9775 2.59,-1.63249 l 6.279999,-5.11875 2.92249,2.145 c 0.71,0.52125 1.33875,0.9525 2.1325,1.29125 7.32624,2.11 13.46124,0.90125 17.43373,-3.4325 0.6575,-0.7175 1.80125,-1.96375 1.80125,-1.96375 l 7.7725,3.09875 c 1.08499,0.4325 2.13624,0.8025 3.00124,1.015 3.20875,0.78875 6.89375,0.16875 8.44749,-1.8575 5.62875,-7.34374 7.855,-13.81499 5.12625,-21.00873 -1.43875,-3.7912504 -4.66375,-9.8349904 -4.66375,-9.8349904 0,0 -2.57249,4.4325 -4.08999,6.7874904 -1.3075,2.0275 -1.8475,2.74 -1.95625,4.395 -0.19625,3.01875 0.64625,9.62624 0.64625,9.62624 0,0 -1.35625,0.0275 -2.29375,-0.12 -1.7775,-0.28125 -4.38499,-2.49125 -4.44999,-2.87875 -0.2225,-1.3225 1.48624,-3.72874 0.79625,-4.21374 -0.2025,-0.14125 -0.6075,-0.12 -0.91625,-0.10125 -0.41375,0.0263 -0.56,0.17 -1.455,1.43625 0,0 -3.495,4.94749 -4.03,5.70374 -2.9525,4.17875 -14.23374,2.87625 -13.70124,3.02 z" />
</svg>
