<?xml version="1.0" encoding="UTF-8" standalone="no"?>
<svg>
  <path
     style="fill:#000000;stroke:none"
     d="m 8.5281,22.361774 c -0.1944,-0.01613 -0.45615,0.015 -0.78125,0.0625 -0.48732,0.07062 -0.64073,0.236337 -1.46875,1.59375 -2.60895,4.275862 -6.73271,14.430188 -5.6875,19.625 0.4235,2.106713 2.84703,4.93475 4.125,5.84375 1.27797,0.909 6.98064,3.1279 9.9375,0.9688 0.85653,-0.856525 1.94674,-4.541725 1.65625,-5.5625 -0.54568,-1.9126 -2.69033,-0.611275 -5.6875,-0.46875 -4.56635,0.2199 -7.55758,-4.921087 -6.65625,-9.125 0.73843,-3.438325 3.24318,-7.663738 4.65625,-11.28125 0.47339,-1.212513 0.4894,-1.607963 -0.0937,-1.65625 z m 70.37817,9.242574 c 0.17875,2.85374 1.3325,4.62874 3.43125,5.14124 2.7075,0.66 4.23875,-1.03375 4.9325,-4.46124 0.1525,-0.7525 0.1175,-1.37875 -0.30125,-1.68125 -0.7975,-0.575 -2.98875,0.0213 -4.0475,-0.6275 -1.3175,-0.8075 -1.6525,-4.24125 -1.32625,-5.84625 0.32625,-1.60625 1.1575,-3.32625 1.38375,-4.565 0.0462,-0.25 0.0675,-0.48125 -0.0275,-0.61 -0.0112,-0.0163 -0.0238,-0.0312 -0.0362,-0.0462 -3.18625,-0.8375 -3.96,13.46625 -4.00875,12.69625 z m -10.89874,13.86249 -5.38625,6.17625 c -0.895,1.02625 -1.0225,1.21 -1.27375,1.8425 -0.35,0.885 -0.47125,2.365 -0.29875,2.56625 0.5575,0.65 2.53,-0.9275 3.21625,-1.51125 6.01374,-5.11875 8.75374,-8.3425 9.72499,-14.97 0.495,-3.36875 -1.05125,-4.6725 -3.78625,-5.1025 -4.33749,-0.6825 -8.64374,0.015 -10.32874,3.785 0.2625,14.395 0.63375,6.16375 4.3125,5.14125 4.09374,-1.13625 8.49374,-3.66125 3.82,2.0725 z m -47.41624,-21.41624 -0.58125,-12.81 c -0.0863,-1.9 -0.12125,-2.23 -0.34,-3.30624 -0.6725,-3.3 -2.48249,-5.10625 -4.37499,-6.27375 -2.40625,-1.4825 -4.24375,-2.03375 -6.72375,0.0537 -2.03875,1.7175 -2.23125,7.93624 -1.43,8.90749 0.59875,0.72625 2.18375,0.66 4.10125,0.14 4.79125,-1.29875 5.27125,-0.99875 6.52,4.85 0.59249,2.77875 0.66249,5.3825 0.37124,8.1775 -0.61999,5.935 -2.07499,8.82125 0.7775,12.30624 1.18625,1.45 2.42625,1.67 5.135,1.02625 1.92375,-0.4575 2.30625,-1.49 3.1125,-4.56499 0.5675,-2.165 1.0175,-4.10375 0.87125,-6.26125 -0.28875,-4.2825 -4.3,-12.3325 0.535,-14.33125 0.8925,-0.36875 2.0525,-0.12875 3.0525,0.12375 1.34875,0.33875 1.5775,0.185 2.2875,-1.5375 0.58375,-1.41625 1.26,-2.71999 1.63125,-4.24374 1.39625,-5.7225 -0.74,-7.3375 -5.02625,-4.99375 -4.91625,2.68875 -7.125,14.20874 -6.075,21.93124 0.3225,3.18375 0.67375,6.05 0.67375,6.05 0,0 -0.29375,-0.004 -0.64375,-0.0437 -1.37625,-0.15625 -3.74,-2.265 -3.87375,-5.2 z m 69.40248,65.23122 -6.335,7.31125 6.335,7.310002 6.33374,-7.310002 -6.33374,-7.31125 z m 0,-3.2875 4.92124,5.68 6.335,-7.31 -6.335,-7.31124 -4.92124,5.68124 -4.9225,-5.68124 -6.335,7.31124 6.335,7.31 4.9225,-5.68 z m -33.52249,6.06375 4.9225,5.68 6.33374,-7.31 -6.33374,-7.31125 -4.9225,5.68125 -4.9225,-5.68125 -6.33375,7.31125 6.33375,7.31 4.9225,-5.68 z M 80.82627,15.917254 c 0,0 -0.0725,0.8275 -0.21375,2.45875 -0.85875,9.80625 3.01875,0.32625 5.32,-3.00875 2.15625,-3.12374 4.49749,-6.1024899 5.25749,-6.6749899 1.125,-0.845 3.16625,-1.72 3.78,-2.84875 0.5175,-0.9525 1.11875,-5.1750005 0.875,-5.4662505 -0.18375,-0.2175 -0.66,-0.0487 -1.2275,0.17375 -2.66,1.0400005 -7.85624,3.8200005 -9.39124,5.3787505 -0.4025,0.40875 -0.71,0.815 -1.09875,1.21875 -1.34625,1.3975 -4.7925,3.5374999 -8.365,5.6649999 -13.09874,7.80624 -13.72874,8.62499 -24.65624,20.02249 -0.37125,0.38875 -0.73,0.76125 -1.07,1.115 -1.06,1.10125 -1.16875,1.40625 -1.09,3.04875 0,0 0.31375,6.51874 0.31375,6.51874 0,0 0.34125,0.62375 0.53,0.96875 0.44625,0.81625 2.1675,3.3075 3.1375,2.13125 0.105,-0.22 0.18,-0.495 0.2575,-0.79125 0.405,-1.54375 1.48875,-4.73 0.8775,-5.67375 -0.495,-0.765 -1.70125,-1.58625 -1.70125,-1.58625 0,0 2.23375,-2.55874 4.5375,-5.04374 7.22875,-7.79625 11.15624,-9.63375 19.51624,-15.5825 1.14875,-0.8175 2.37375,-1.545 3.635,-1.8575 0.37625,-0.0925 0.77625,-0.16625 0.77625,-0.16625 z m -16.77749,3.864999 c 0,0 0.006,-4.14875 0.38875,-6.16125 0.17625,-0.92749 0.5075,-1.62624 1.01125,-2.09749 1.3375,-1.25 3.99375,-0.8175 5.30124,-1.9649997 0.405,-0.355 1.82375,-4.73125 1.47375,-6.6725 -0.6375,-3.53500051 -2.89999,-2.90625051 -5.15874,-1.45125 -1.115,0.7175 -2.175,1.39 -2.795,2.67125 -0.90125,1.85625 -0.90125,9.5974897 -2.96,8.3099997 -0.6575,-0.41125 -1.19875,-1.97875 -1.85,-3.3887497 -2.02,-4.36875 -5.7525,-7.35875 -8.9175,-3.83625 -1.245,1.3875 -2.18,7.9762397 0.20625,9.4487397 1.84625,1.14125 3.74625,-0.64 5.37625,-1.495 1.7625,-0.92499 2.545,0.64625 4.12125,3.6125 0.335,0.63 3.8025,3.025 3.8025,3.025 z m -39.55249,42.555825 -0.61,5.47125 c 0,0 0.915,0.1125 1.7625,0.0362 0.8375,-0.0763 7.98875,-7.895 8.95375,-9.78875 1.00125,-1.96499 3.6,-7.00999 2.75375,-8.25624 -0.86625,-1.27625 -3.0975,1.91 -5.32875,3.24375 -2.48375,1.48625 -4.61,1.07125 -6.86,-0.1375 -0.5125,-0.275 -0.93625,-0.4925 -1.0375,-1.3 -0.0712,-0.58 0.0225,-1.4625 0.0225,-1.4625 l 4.92125,0.70875 c 0,0 2.2,-4.78 2.03625,-6.90625 -0.25375,-3.2825 -4.81,-1.25625 -6.87,0.41 -2.6925,2.18 -4.73375,8.25625 -3.88875,12.82749 0.37,2.005 1.24375,4.32375 2.9725,4.8675 0.49625,0.15625 1.1725,0.28625 1.1725,0.28625 z m 90.69121,-23.51999 c 1.0425,-0.75125 2.3025,-1.7775 2.62,-2.4225 0.79625,-1.6125 -0.76625,-3.485 -1.34875,-4.93874 -0.2525,-0.6325 -0.0888,-1.2325 0.36125,-1.68875 3.955,-4.00875 7.53125,0.68875 -1.75,-5.82125 -1.21124,-0.025 -1.65624,-0.0337 -1.65624,-0.0337 -1.425,-0.0288 -1.645,-0.01 -2.2,0.1825 -2.40625,0.83875 -3.84125,3.7 -3.04375,5.24625 0.96,1.865 4.1825,4.79874 3.85375,5.51124 -0.4375,0.9475 -2.42625,-0.6725 -3.60625,-1.69875 -1.98625,-1.72749 -4.56875,-4.44749 -5.51,-6.40624 -1.39125,-2.89375 -2.555,-7.29625 -2.555,-7.29625 0,0 4.2375,-4.53875 7.535,-7.83625 4.54375,-4.54499 22.26999,-19.6612405 26.90249,-15.9099905 1.98875,1.6100005 -0.46875,3.9087505 -1.69875,7.5825005 -0.12875,0.38375 -0.19,0.715 -0.0138,0.91375 0.41125,0.46375 1.23125,0.2225 1.68,-0.3475 0.15875,-0.2025 0.24,-0.3925 0.815,-1.9 0.9,-2.355 6.10374,-14.597501 0.52625,-15.9725 -1.54375,-0.38 -5.595,1.048749 -6.4625,1.393749 -8.52875,3.3937505 -25.41624,16.783751 -30.45749,24.063741 -1.91,2.7575 -3.3425,9.4725 -2.86125,14.68875 0.32875,3.56125 3.48375,10.35874 4.8225,12.77124 3.3025,5.9525 7.655,10.22125 11.8625,18.51874 2.04749,4.0375 4.19624,9.15625 4.19624,9.15625 0,0 -1.805,1.47625 -3.05249,2.44375 -1.70125,1.3225 -2.65,1.70375 -4.355,1.74125 -1.07375,0.0225 -2.53375,-0.0512 -2.53375,-0.0512 0,0 -0.0913,-1.76125 0.045,-2.92375 0.1325,-1.13375 0.4825,-1.69875 0.98,-2.42875 5.2475,-7.685 -1.19625,-3.14375 -10.8175,-10.38249 -5.2475,-3.94875 -4.115,-7.4775 -9.79874,-8.42375 -4.58625,-0.76375 -11.44625,1.3725 -12.68625,6.335 -0.5525,2.21125 -0.8075,6.18874 -0.8075,6.18874 0,0 1.1775,-0.0187 2.09,-0.135 2.10375,-0.27 2.805,-1.06 4.41875,-1.17625 2.915,-0.20875 5.14375,-4.26499 9.30875,0.96 0.59624,0.7475 0.89124,1.5325 0.52249,2.1425 -0.45124,0.7475 -2.05624,1.0925 -3.19499,1.825 -1.375,0.885 -2.07125,2.335 -3.2175,3.28625 -2.3475,1.9475 -6.31125,1.845 -8.895,1.64875 -2.2425,-0.17 -6.94375,-1.865 -7.2075,-2.59875 -0.38,-1.06 -0.0913,-2.11625 -1.34875,-1.5325 -1.18624,0.55125 -2.38499,2.62125 -3.68374,3.58 -3.225,2.38125 -11.83375,0.0325 -14.74125,-2.73375 -0.55125,-0.52375 -1.205,-1.4075 -1.53875,-2.525 -0.2325,-0.77625 -0.2725,-1.045 -0.40875,-2.6825 0,0 -1.13375,-13.69624 -1.89125,-22.84749 -1.01375,-12.24499 -0.65375,-6.27374 -0.9175,-15.58249 -0.0312,-1.10875 -0.0812,-2.54875 -0.155,-4.40125 -0.10375,-2.625 -0.505,-12.69874 -0.505,-12.69874 0,0 -0.82749,-0.10625 -1.26749,-0.0263 -0.97125,0.17625 -2.475,5.72874 -2.7925,6.64624 -0.4925,1.41875 -0.78875,2.4 -0.86125,4.5525 -0.0175,0.51 -0.0213,1.08625 -0.0225,1.36125 1.24875,1.095 2.74125,22.34874 1.81625,11.5475 l 0.48875,5.71374 c 1.1125,13.015 3.20499,37.48624 3.20499,37.48624 0,0 -3.55624,1.83125 -6.38124,2.97875 -3.82,1.5525 -15.9025,3.0375 -20.60124,0.80375 -0.52,-0.24625 -1.195,-0.705 -1.8975,-1.2725 -6.71125,-5.425 -5.25875,-21.81124 -5.635,-20.89749 -2.52375,6.15124 -3.7275,17.98999 -2.24625,22.88749 3.09375,10.22999 14.67874,10.90249 24.42749,8.10874 2.55,-0.73125 10.3975,-2.86249 11.03125,-3.92374 1.34624,-2.25375 0.41374,-7.17125 3.89874,-5.83 0.77625,0.3 1.43125,0.9275 2.16125,1.4325 2.61375,1.8075 7.55,2.76625 9.9425,1.85875 1.32875,-0.50375 2.22875,-1.02625 2.95,-1.4775 l 2.9425,-1.84125 4.16499,1.5675 c 1.31375,0.49375 2.6825,1.06125 4.00125,1.425 3.92,1.07875 9.02,0.28375 11.9925,-3.53875 0.55125,-0.70875 0.91375,-1.45375 1.48,-1.97875 1.1925,-1.1075 7.25374,-1.76875 9.70499,-1.48125 1.4225,0.16625 1.59625,0.31125 1.7325,1.44375 0.29,2.39875 2.49125,6.92375 3.23,7.645 3.12625,3.04999 9.925,1.17625 13.2225,-1.56125 3.57124,-2.96625 8.57749,-14.0375 8.01124,-17.9425 -0.28875,-1.99375 -1.3375,-4.49124 -2.625,-6.62749 -1.04625,-1.73625 -2.25,-3.23375 -3.0925,-4.93625 -0.3325,-0.67125 -0.60875,-1.375 -0.90625,-2.07625 -2.89374,-6.81875 -4.25624,-6.41 0.305,-6.83125 z M 5e-5,93.358018 c 0.1825,2.65375 1.35375,4.30375 3.48375,4.78 2.74875,0.615 4.30375,-0.96125 5.0075,-4.1475 0.155,-0.7 0.12,-1.2825 -0.30625,-1.56375 -0.80875,-0.535 -3.0325,0.0213 -4.10875,-0.5825 -1.33625,-0.75125 -1.6775,-3.94375 -1.34625,-5.43625 0.33125,-1.49375 1.17625,-3.09375 1.405,-4.245 0.0475,-0.2325 0.0688,-0.4475 -0.0275,-0.5675 -0.0125,-0.015 -0.025,-0.0288 -0.0363,-0.0425 C 0.83625,80.773028 0.05,94.074268 0,93.358018 z" />
</svg>
