<?xml version="1.0" encoding="UTF-8" standalone="no"?>
<svg>
  <path
     d="m 27.2738,74.431867 c -2.5078,0.667 -5.1029,1.448 -5.9795,2.025 -0.6021,0.396 -1.4316,1.45 -1.6965,2.471 -0.2555,0.985 -0.3214,2.871 -0.3373,3.754 0,0 46.6919,0.072 47.2094,-0.059 1.7393,-0.443 3.817,-1.483 3.3801,-2.95 -0.08,-0.268 -44.4057,-0.213 -44.4057,-0.213 0,0 0.224,-0.355 0.5321,-0.812 0.2548,-0.377 0.82,-0.815 1.5219,-1.256 0.5457,-0.342 1.6434,-0.637 2.8279,-0.873 1.0408,-0.208 5.6828,-1.65 6.6038,-2.198 2.6739,-1.592 4.6651,-4.908 4.9303,-7.551 0.5198,-5.18 -2.2523,-6.887 -6.7995,-10.059 -0.6073,-0.424 -1.0964,-0.759 -2.1054,-0.823 -1.0594,-0.067 -2.6919,0.165 -2.6919,0.165 0,0 -0.083,2.497 0.2614,4.275 0.3852,1.988 1.3047,3.076 1.6966,4.406 0.087,0.296 0.1484,0.604 0.043,0.711 -0.1079,0.11 -0.3918,0.007 -0.6631,-0.165 -2.1319,-1.348 -2.2429,-3.274 -3.9374,-2.408 -0.9318,0.476 -1.3606,1.591 -1.4329,3.119 -0.046,0.974 -0.028,1.223 0.1796,2.489 0.2887,1.761 0.7563,4.287 0.8626,5.952 z m 6.3008,-11.844 -0.1197,-1.022 c 0,0 0.6684,-0.117 1.1375,-0.069 0.5972,0.061 0.8714,0.389 1.2303,0.703 2.1016,1.836 4.831,2.555 3.6482,4.393 -0.1902,0.295 -1.3747,1.522 -2.4232,2.42 -1.4276,1.224 -2.3054,1.506 -2.1654,-0.025 0.2174,-2.378 -1.3562,-6.814 -1.3077,-6.4 z m -2.3835,8.631 -1.2645,0.077 c -0.5682,0.035 -0.6654,0.029 -0.9724,-0.062 -0.5538,-0.165 -1.2528,-0.741 -1.5209,-1.29 -0.1295,-0.265 -0.147,-0.345 -0.1748,-0.799 l -0.062,-1.012 1.0115,-0.062 c 0.4546,-0.027 0.536,-0.02 0.8148,0.076 0.7797,0.269 2.0209,1.595 2.0985,1.935 0.1111,0.485 0.07,1.137 0.07,1.137 z m 27.434,-41.8012 5.862,-5.862 -5.862,-5.863 -5.863,5.863 5.863,5.862 z m 17.9831,35.03044 4.074,4.073 5.862,-5.862 -5.862,-5.863 -4.074,4.074 -4.073,-4.074 -5.863,5.863 5.863,5.862 4.073,-4.073 z m 68.606,8.1015 c 0,0 3.823,-1.249 5.339,-0.904 0.799,0.182 1.626,1.621 2.145,2.723 0.942,2.001 1.85,4.578 2.195,6.624 0.115,0.681 0.239,1.309 0.94,1.549 0.441,0.15 1.113,0.16 1.113,0.16 0,0 0,-0.011 0.01,-0.031 0.334,-1.886 1.08,-5.048 1.27,-6.955 0.2,-2.003 0.155,-2.698 1.86,-2.571 2.578,0.191 3.453,0.646 4.586,-1.411 1.016,-1.845 2.129,-5.61 0.356,-6.831 -5.486,-1.478 -7.534,5.74 -7.878,7.392 -0.485,2.333 -0.688,4.834 -0.688,4.834 0,0 -1.344,-4.319 -2.333,-6.653 -1.112,-2.624 -3.982,-6.159 -7.078,-5.275 -1.538,0.438 -2.078,1.696 -2.077,3.361 0,1.533 0.244,3.988 0.244,3.988 z M 86.553,30.281277 86.1,21.630277 c -0.067,-1.283 -0.094,-1.506 -0.265,-2.233 -0.524,-2.229 -1.935,-3.449 -3.411,-4.237 -1.875,-1.002 -3.307,-1.374 -5.24,0.036 -1.59,1.16 -1.74,5.36 -1.115,6.016 0.466,0.49 1.702,0.446 3.197,0.095 3.735,-0.877 4.109,-0.675 5.082,3.275 0.462,1.877 0.517,3.635 0.29,5.523 -0.483,4.008 -1.618,5.958 0.605,8.311 0.926,0.98 1.892,1.128 4.003,0.693 1.5,-0.309 1.798,-1.005 2.427,-3.082 0.442,-1.462 0.792,-2.772 0.679,-4.23 -0.225,-2.892 -3.352,-8.328 0.417,-9.678 0.695,-0.25 1.599,-0.087 2.379,0.083 1.051,0.229 1.229,0.125 1.783,-1.038 0.456,-0.957 0.983,-1.837 1.272,-2.867 1.088,-3.864 -0.577,-4.955 -3.918,-3.372 -3.833,1.816 -5.554,9.596 -4.735,14.812 0.25,2.15 0.525,4.086 0.525,4.086 0,0 -0.229,-0.003 -0.502,-0.029 -1.073,-0.106 -2.916,-1.53 -3.02,-3.513 z m 77.356,19.14161 c 0.163,2.24 1.208,3.634 3.11,4.036 2.453,0.519 3.84,-0.812 4.469,-3.503 0.138,-0.59 0.107,-1.082 -0.273,-1.32 -0.723,-0.451 -2.708,0.018 -3.667,-0.492 -1.194,-0.634 -1.498,-3.33 -1.202,-4.59 0.295,-1.261 1.049,-2.612 1.254,-3.584 0.041,-0.197 0.06,-0.378 -0.025,-0.479 -0.011,-0.013 -0.022,-0.025 -0.033,-0.036 -2.887,-0.659 -3.589,10.573 -3.633,9.968 z M 48.74,13.594577 c 0.28,0.191 0.52,0.321 0.73,0.395 1.03,0.37 1.35,-1.282 1.47,-2.262 0.18,-1.453 0.28,-2.7249996 0.99,-3.7269996 0.59,-0.827 1.37,-1.294 2.39,-1.361 2.27,-0.147 2.46,-0.14 2.77,-3.911 0.17,-2.08099999 -0.19,-3.24899999 -3.29,-2.50199999 -2.61,0.632 -4.84,2.31199999 -5.23,4.02399999 -0.99,4.461 -1.1,1.699 -2.71,-0.896 -1.07,-1.724 -2.83,-2.45699999 -5.2,-2.025 -0.13,0.028 -0.26,0.059 -0.39,0.094 -2.15,0.582 -2.6,3.494 -1.82,5.684 0.94,2.65 2.97,3.1609996 5.09,2.9909996 1.52,-0.1209996 2.37,0.508 2.8,1 1.8,2.103 1.5,1.885 2.4,2.496 z m 152.09,68.53894 c 2.67,-1.133 6.08,-3.406 6.26,-5.138 0.04,-0.422 -0.02,-0.797 -0.23,-0.962 -0.59,-0.472 -1.95,0.669 -3.14,1.37 -0.96,0.568 -2.59,1.148 -4.18,1.3 -2.94,0.281 -5.88,-1.31 -2.96,-4.064 1.13,-1.07 2.69,-2.135 3.34,-3.093 1.49,-2.198 0.65,-5.07 -2.05,-5.483 -0.49,-0.075 -1.02,-0.075 -1.55,-0.005 -3.04,0.402 -4.31,2.18 -4.8,4.726 -0.15,0.735 -0.39,1.949 0.83,1.662 0.74,-0.172 1.02,-0.601 1.39,-1.083 0.62,-0.803 1.12,-1.197 2.13,-1.29 2.5,-0.231 1.42,0.969 0.57,1.662 -2.59,2.104 -3.61,4.609 -3.48,6.78 0.25,4.128 4.84,4.906 7.87,3.618 z m -85.63,-9.07956 c 0.04,-1.954 0.41,-2.902 -1.58,-2.099 -3.79,1.53 -13.42,5.407 -17.54,7.03 -1.91,0.753 -1.79,1.109 -2.1,3.49 -0.12,0.929 0.12,1.253 0.64,1.225 19.78,-8.239 20.53,-7.338 20.58,-9.646 z M 66.09,38.498377 c 0.5,0.575 1.05,1.248 1.45,1.911 1.03,1.723 0.79,2.103 -1.02,2.832 -0.26,0.104 -0.54,0.205 -0.82,0.292 -2.58,0.802 -3,-2.531 -2.87,-4.347 0.24,-3.45 1.31,-2.927 3.26,-0.688 z m 37.4,9.69 c -2.22,-0.116 -5.03,-0.306 -7.13,-0.834 -4.62,-1.163 -3.31,-7.936 -7.63,-3.326 -2.4,2.566 -4.76,3.004 -8.27,3.428 -1.83,0.221 -3.56,0.29 -4.6,0.221 -0.7,-0.047 -1.65,-0.141 -2.6,-0.268 -3.09,-0.408 -4.77,-0.235 -2.73,-3.26 0.12,-0.186 0.25,-0.377 0.38,-0.571 2.91,-4.381 0.69,-11.627 -4.61,-13.872 -4.38,-1.858 -7.09,5.245 -6.4,12.497 0.18,1.896 0.26,2.871 -2,3.204 -8.04,1.185 -17.06,-1.671 -18.34,-10.046 -0.47,-3.133 -1.16,-6.025 -6.64,-3.958 -9.23,3.484 -11.67,11.461 -14.07,19.623 -1.04,3.527 -2.73,7.132 -6.71,7.866 -1.93,0.356 -3.69,-0.461 -5.17,-1.851 -6.29,-5.799 -4.66,-19.049 -2.45,-27.09 0.73,-2.617 2.54,-7.786 1.03,-5.34 -3.42,5.533 -5.55,16.005 -5.55,22.7 0,0.537 0.01,1.067 0.04,1.587 0.23,4.694 3.31,14.63 9.55,16.679 5.41,1.776 8.23,-2.685 9.96,-7.152 3.39,-8.785 3.14,-15.382 13.24,-19.753 1.77,-0.767 2.5,0.655 3.09,2.436 3.55,10.668 10.89,11.942 21.7,10.295 1.56,-0.238 2.96,-0.409 3.69,-0.267 1.59,0.313 2.92,1.381 4.69,2.024 4.37,1.587 13.14,1.399 17.29,-0.374 1.17,-0.503 2.51,-1.249 3.7,-2.217 2.37,-1.934 2.15,-0.995 3.11,0.676 0.76,1.307 1.89,2.133 3.23,2.65 2.88,1.118 12.68,1.466 15.38,-1.161 4.82,-4.694 1.22,-2.193 7.45,1.036 0.25,0.128 0.49,0.249 0.73,0.366 7.35,3.636 13.0863,4.42175 21.2163,5.59675 10.67,1.541 40.3755,1.96209 54.7823,-1.55036 1.05,-0.326 2.1,-0.662 3.15,-0.875 3.84,-0.781 8.51,-0.318 12.7,0.512 4.74,0.94 6.61,3.031 9.89,-1.369 3.05,-4.078 -0.12,-4.048 -6.01,-4.99 -4.49,-0.72 -6.23,-1.068 -10.29,-5.421 -0.98,-1.054 -1.88,-2.067 -3.19,-2.88 -4.1,-2.531 -11.78,-3.879 -14.72,0.367 -3.33,4.825 2.38,4.415 5.79,4.198 1.53,-0.097 2.77,-0.182 4.1,0.381 8.27,3.503 0.94,4.632 -3.57,5.173 -8,0.962 -19.6355,2.02234 -24.0686,1.81936 -8.0318,-0.36775 -23.59,0.24025 -35.93,-2.99875 -7.88,-2.067 -16.3,-4.876 -18.08,-13.384 -1.83,-8.748 -3.53,-28.7329996 -3.76,-33.7299996 -0.14,-3.192 0.17,-8.126 -3.02,-2.241 -2.02,3.726 -1.11,4.82 -0.4,10.0219996 4.5,33.355 3.45,35.894 -1.95,35.422 z m 74.85,-12.32622 c 0.57,-0.253 1.17,-0.542 1.81,-0.872 0.28,-0.147 0.46,-0.266 0.65,-0.748 0.01,-0.019 0.02,-0.038 0.03,-0.059 1.02,-2.715 0.35,-3.178 -2.92,-2.342 -5.63,1.441 -24.08,7.031 -28.98,8.848 -0.84,0.313 -9.36,2.603 -9.64,4.2 -0.47,2.812 0.18,2.438 3.99,1.286 9.03,-2.47 24.26,-7.272 35.06,-10.313 z M 18.22,16.625497 c -0.59,-0.006 -1.26,-0.255 -1.96,-0.79 -0.98,-0.744 -2.7,-3.461 -0.69,-4.041 0.71,-0.204 2.46,0.822 3.65,1.597 1.17,0.764 1.02,1.699 0.69,2.319 -0.65,1.227 -1.22,0.839 -1.69,0.915 z M 22.33,0.22749741 c 0.2,0.082 0.41,0.181 0.63,0.294 2.67,1.40399999 4.22,2.38699999 5.26,3.67399999 3.16,3.93 3.65,9.7509996 -0.51,12.9089996 -2.85,2.159 -6.93,3.537 -9.35,4.265 -0.8,0.24 -1.5,0.454 -2.03,0.644 -0.14,0.049 -0.27,0.102 -0.41,0.159 -1.83,0.765 -3.3,2.012 -4.45,3.556 -1.81,2.431 -0.65,3.234 2.47,3.011 4.6,-0.33 12.04,-3.317 15.56,-6.111 1.18,-0.935 2.7,-1.979 3.2,-1.363 0.44,0.545 -0.21,1.767 -0.9,2.653 -3.48,4.487 -14.88,9.589 -20.65,8.514 -3.04,-0.567 -4.49,-2.297 -3.29,-6.122 0.81,-2.59 3.06,-5.016 5.34,-6.225 1.27,-0.678 1.62,-0.871 0.51,-2.403 -1.68,-2.312 -1.16,-8.9499996 1.5,-9.8029996 0.3,-0.114 0.63,-0.146 0.99,-0.073 0.84,0.169 2.17,0.878 3.11,1.427 1.4,0.8179996 2.73,1.5459996 3,3.3939996 0.09,0.548 0.05,1.272 -0.03,1.972 -0.24,2.062 -0.18,2.485 2.18,1.124 2.49,-1.444 4.34,-3.052 2.92,-5.637 -0.77,-1.3849996 -1.79,-2.8609996 -3.06,-3.7169996 -1.2,-0.809 -1.37,-0.496 -1.51,1.117 -0.15,1.721 -0.41,0.976 -2.61,1.06 -0.88,0.033 -0.99,-0.084 -1.06,-2.394 -0.05,-1.787 -0.23,-7.337 3.19,-5.92499999 z M 82.24,7.2691574 c 0.83,-0.21 1.54,-0.345 1.73,-0.129 0.13,0.142 0.02,0.437 -0.17,0.748 -0.02,0.019 -0.03,0.039 -0.04,0.058 -6.37,9.5109996 -1.12,4.8989996 1.54,2.1999996 2.23,-2.2619996 3.32,-4.2939996 6.79,-4.9869996 0.7,-0.14 1.37,-0.278 1.84,-0.636 0.57,-0.433 2.06,-3.86899999 1.57,-4.36199999 -0.21,-0.212 -0.75,-0.185 -1.37,-0.089 C 86.85,1.1961574 50.27,13.598157 42.97,18.144157 c -3.17,1.97 -6.08,5.139 -5.6,8.49 1.32,5.901 2.93,6.835 4.2,5.334 4.25,-5.024 1.16,-5.72 -0.21,-5.616 -2.54,0.192 -1.88,-0.96 -0.66,-2.109 5.91,-5.585 36.31,-15.3489996 41.54,-16.9739996 z m 110.4552,32.2876796 5.862,-5.862 -5.862,-5.863 -5.863,5.863 5.863,5.862 z"
     style="fill:#000000;stroke:none" />
</svg>
