<?xml version="1.0" encoding="UTF-8" standalone="no"?>
<svg>
  <path
     style="stroke:none; fill:#000000"
     d="m 17.644628,49.00501 -5.621126,6.5225 c -0.934,1.08375 -1.066875,1.2775 -1.32825,1.945 -0.366,0.935 -0.492625,2.49875 -0.31275,2.71 0.58225,0.68625 2.640625,-0.97875 3.357126,-1.59625 6.274752,-5.405 9.132872,-8.80875 10.147872,-15.8075 0.515,-3.55751 -1.0975,-4.93376 -3.95087,-5.38751 -4.527252,-0.72 -9.019753,0.0163 -10.778503,3.9975 0.2745,15.19876 0.661125,6.50751 4.500251,5.42876 4.270872,-1.2 8.862872,-3.86625 3.98625,2.1875 z m 99.501642,50.25751 c 1.4575,-1.13625 2.985,-2.60875 2.31875,-3.33875 -0.7875,-0.86126 -3.99875,1.565 -4.925,2.0775 -0.0538,0.03 -0.10875,0.0587 -0.1625,0.0887 -2.70625,1.46625 -11.75125,4.40625 -13.73375,-1.02625 -0.75,-2.05376 1.8825,-4.39376 4.295,-7.67251 1.26875,-1.7225 2.1325,-4.72875 0.425,-6.59625 -1.88625,-2.065 -5.225,-0.21375 -6.3075,1.57 -0.65375,1.07625 -1.28,2.38125 -1.205,3.05875 0.16375,1.48 1.60375,2.755 2.28125,2.42875 0.335,-0.16 0.6725,-0.53375 0.865,-0.95875 0.5,-1.10375 0.38125,-1.56 1.27625,-1.81125 0.91625,-0.25875 1.1025,0.395 1.08625,0.99 -0.0125,0.485 -0.425,1.1675 -0.8075,1.6925 -0.7225,0.7075 -1.625,1.52 -2.475,2.93625 -2.06375,3.43626 -2.14375,5.96876 -1.6325,7.67751 0.6175,2.0675 2.4125,3.23375 4.22125,3.755 5.56125,1.6025 13.87625,-4.4 14.48,-4.87125 z M 0,58.95376 c 0.187,3.01375 1.39075,4.8875 3.580626,5.42875 2.825,0.6975 4.422376,-1.09125 5.146376,-4.71125 0.158875,-0.79375 0.12325,-1.455 -0.314375,-1.775 -0.832251,-0.6075 -3.117876,0.0238 -4.222876,-0.6625 -1.3745,-0.8525 -1.724001,-4.4775 -1.384,-6.1725 0.340375,-1.69625 1.208,-3.51375 1.44425,-4.82 0.04775,-0.265 0.06975,-0.50875 -0.029,-0.645 -0.01238,-0.0175 -0.02487,-0.0337 -0.0375,-0.0487 C 0.85875,44.66256 0.0505,59.76756 0,58.95381 z M 14.697253,21.595 14.175253,9.96 c -0.0775,-1.72625 -0.108,-2.02625 -0.305,-3.00375 C 13.266378,3.95875 11.641627,2.3175 9.943002,1.25875 7.782876,-0.08875 6.134251,-0.59 3.908126,1.30755 c -1.830626,1.56 -2.003001,7.2075 -1.283501,8.09 0.536876,0.66 1.959501,0.6 3.681376,0.1275 4.300751,-1.17875 4.731751,-0.9075 5.852001,4.405 0.532375,2.52375 0.595125,4.88875 0.333375,7.4275 -0.556,5.39125 -1.8625,8.01375 0.697751,11.17875 1.065375,1.3175 2.1785,1.51625 4.6095,0.9325 1.727002,-0.41625 2.069622,-1.3525 2.793752,-4.14625 0.50975,-1.96625 0.913,-3.7275 0.78237,-5.6875 -0.25925,-3.89 -3.860122,-11.20125 0.47975,-13.0175 0.8005,-0.33625 1.84175,-0.1175 2.7405,0.11125 1.21,0.30875 1.415,0.16875 2.05251,-1.39625 0.525,-1.28625 1.13125,-2.47 1.465,-3.855 1.2525,-5.1975 -0.665,-6.66375 -4.51251,-4.535 -4.41262,2.4425 -6.394997,12.90625 -5.45225,19.92125 0.28875,2.89125 0.60513,5.495 0.60513,5.495 0,0 -0.26388,-0.004 -0.578,-0.04 -1.235502,-0.14125 -3.357877,-2.0575 -3.477627,-4.72375 z m 37.202757,27.41001 -5.62125,6.5225 c -0.93375,1.08375 -1.0675,1.2775 -1.32875,1.945 -0.36625,0.935 -0.4925,2.49875 -0.3125,2.71 0.5825,0.68625 2.64,-0.97875 3.3575,-1.59625 6.27375,-5.405 9.1325,-8.80875 10.1475,-15.8075 0.515,-3.55751 -1.0975,-4.93376 -3.95125,-5.38751 -4.52625,-0.72 -9.02,0.0163 -10.7775,3.9975 0.27375,15.19876 0.66,6.50751 4.5,5.42876 4.27,-1.2 8.8625,-3.86625 3.98625,2.1875 z M 52.06251,21.595 51.54126,9.96 c -0.0775,-1.72625 -0.10875,-2.02625 -0.305,-3.00375 -0.60375,-2.9975 -2.22875,-4.63875 -3.9275,-5.6975 -2.16,-1.3475 -3.80875,-1.84875 -6.035,0.0488 -1.83125,1.56 -2.00375,7.2075 -1.28375,8.09 0.5375,0.66 1.96,0.6 3.68125,0.1275 4.30125,-1.17875 4.7325,-0.9075 5.8525,4.405 0.5325,2.52375 0.595,4.88875 0.3325,7.4275 -0.555,5.39125 -1.86125,8.01375 0.69875,11.17875 1.065,1.3175 2.17875,1.51625 4.60875,0.9325 1.7275,-0.41625 2.07,-1.3525 2.79375,-4.14625 0.51,-1.96625 0.91375,-3.7275 0.7825,-5.6875 -0.25875,-3.89 -3.86,-11.20125 0.48,-13.0175 0.80125,-0.33625 1.8425,-0.1175 2.74,0.11125 1.21,0.30875 1.41625,0.16875 2.05375,-1.39625 0.52375,-1.28625 1.13125,-2.47 1.465,-3.855 1.25125,-5.1975 -0.66625,-6.66375 -4.5125,-4.535 -4.41375,2.4425 -6.39625,12.90625 -5.4525,19.92125 0.28875,2.89125 0.605,5.495 0.605,5.495 0,0 -0.26375,-0.004 -0.57875,-0.04 -1.235,-0.14125 -3.3575,-2.0575 -3.4775,-4.72375 z m 2.14625,68.16001 4.025,4.70125 4.935,-5.765 -4.935,-5.765 -4.025,4.70125 -4.025,-4.70125 -4.93625,5.765 4.93625,5.765 4.025,-4.70125 z M 98.51252,36.56 l -4.93625,5.765 4.93625,5.76376 4.935,-5.76376 -4.935,-5.765 z m 0.435,-16.91125 c 0,0 0.1775,-0.0338 0.27375,0 0.16,0.0562 0.0913,0.30125 0.17875,0.43125 0.0838,0.1275 0.315,0.1475 0.48375,0.17125 0.22625,0.0337 0.3025,-0.0937 0.76125,-1.27375 2.085,-5.365 3.99375,-8.795 8.26125,-11.39625 3.04125,-1.855 3.36,-2.4225 3.995,-6.625 0.15375,-1.025 -0.0137,-1.105 -1.095,-0.79875 -4.04625,1.1475 -23.085,15.6825 -28.17875,21.72875 -2.89625,3.43625 -4.84001,10.255 -1.23125,14.05875 0.75,0.79125 1.81625,1.66375 1.81625,1.66375 0,0 0.55125,-3.04625 0.7825,-4.22 0.085,-0.42875 0.12625,-0.6075 0,-0.95875 -0.1525,-0.425 -0.55375,-1.10375 -0.96375,-1.74375 -1.4,-2.185 0.52875,-4.1275 2.29875,-6.14 1.40125,-1.59375 7.78375,-7.87125 11.64375,-10.78875 1.2325,-0.93125 4.21,-3.16 2.2625,0.72375 -0.3075,0.61375 -0.6475,1.33625 -0.8775,2.2925 -0.29875,1.24 -0.41125,2.875 -0.41125,2.875 z m -67.65251,-5.94 c 0.145,2.75125 0.35875,6.41 0.58625,9.14875 0.25125,3.015 0.52125,4.91375 0.7225,7.0575 0.52,5.5475 0.525,19.59876 0.64875,29.92251 0.16875,14.25625 0.24875,9.3375 0.52875,15.6775 0.3575,8.065 3.31125,13.4425 -5.775,15.7225 -0.27875,0.07 -0.56625,0.13625 -0.86,0.19875 -0.82,0.175 -1.66126,0.2925 -2.50501,0.35125 -13.755998,1.14875 -18.089999,-7.48875 -16.226248,-19.46 1.132875,-7.275 4.236375,-14.46875 0.428625,-5.69375 -4.536126,10.45375 -7.481752,25.37 4.967626,31.68876 1.97325,1.00125 4.777627,1.35375 7.484247,1.26 12.48451,-0.5125 19.80201,-12.40001 16.56576,-24.36501 -0.28,-1.0375 -0.4725,-1.97625 -0.19625,-2.165 0.515,-0.35375 1.21375,0.15375 1.8225,0.59875 3.0375,2.2175 10.89625,0.27375 14.235,-2.15125 1.9175,-1.39375 0.7025,-1.79625 2.195,0.155 1.95375,2.555 6.42375,3.08625 9.96375,2.345 3.0775,-0.64625 3.8925,-1.265 5.33375,-3.9 2.995,-5.475 1.1425,-1.9475 3.115,2.09875 1.01625,2.08625 2.93,4.45 6.56126,6.48875 4.36125,2.44875 9.26375,2.065 14.40625,0.3375 2.7175,-0.91125 4.13,-1.4525 5.8675,-1.79875 5.46375,-1.08875 9.32375,1.14875 11.515,-4.9125 0.66875,-1.85 1.08,-3.64375 0.59,-4.16625 -0.5125,-0.54625 -2.01125,-0.36875 -3.39625,-0.6175 -0.39125,-0.0713 -0.995,-0.275 -1.66625,-0.54875 -8.08375,-3.29625 -6.50875,-11.64 -16.15625,-9.80625 -1.825,0.34625 -4.0275,0.99375 -5.1275,2.36875 -1.47,1.8375 -2.305,4.98125 -2.24375,7.12125 0.015,0.54375 0.0412,0.955 0.0412,0.955 0,0 1.83,0.0725 3.065,0 0.98375,-0.0575 1.59125,-0.2075 2.13375,-0.47875 0.72875,-0.36625 1.3425,-0.9525 2.13375,-1.16375 1.4775,-0.39375 5.60125,1.11 6.07375,2.8125 0.6025,2.17 -2.56875,2.64625 -5.0075,2.98375 -1.86625,0.25875 -4.23,0.12125 -6.4875,-0.38125 -5.86375,-1.30375 -10.06876,-5.63 -10.19251,-12.80875 -0.33,-19.06876 -0.0188,-38.21001 -3.2325,-56.33751 -0.225,-1.2675 -0.2725,-1.41125 -0.46875,-1.4375 -0.42875,-0.0575 -0.56875,0.055 -0.73875,0.34875 -4.375,7.55375 -2.24625,10.115 -0.9575,18.8525 0.6425,4.3575 0.81875,15.6825 1.2625,24.74751 0.0813,1.6675 0.19125,3.395 0.31,5.1 0.28,4.02875 2.065,13.6575 -2.265,15.385 -0.88125,0.35125 -1.92875,0.5925 -3.10125,0.7275 -3.17375,0.36375 -7.24875,0.35875 -8.17375,-3.73625 -0.2325,-1.0325 -0.4775,-1.8525 -1.22,-1.64375 -0.96875,0.27375 -2.4125,2.51 -3.775,3.515 -1.95625,1.445 -9.75625,2.40875 -12.34125,0.84875 -1.26875,-0.76625 -3.5925,-3.6025 -3.9375,-4.36375 -0.6325,-1.39375 -0.675,-3.13125 -0.7175,-4.83 -0.25625,-10.3025 -1.35625,-21.05501 -1.71125,-38.77626 -0.0487,-2.43125 -0.0838,-4.995 -0.10875,-7.4175 -0.0812,-7.92375 0.95625,-13.5225 -3.08,-6.05875 -2.02125,3.73875 -1.2775,2.9 -0.88875,10.20125 z m 57.52501,-5.6 c 0.48,-0.79 1.1925,-1.44125 1.73375,-1.53125 1.9175,-0.32 2.58375,0.71875 3.3325,-0.63875 0.57125,-1.035 1.26,-4.95375 -0.0438,-5.75125 -1.27375,-0.78 -3.8325,1.09375 -4.47,1.7575 -0.68,0.70625 -1.12,1.44875 -1.69625,2.8275 -0.53125,1.27125 -1.17625,3.08375 -1.17625,3.08375 0,0 -0.315,-0.47375 -0.65125,-1.0325 -1.97,-3.2725 -1.80125,-5.30375 -6.0175,-4.6725 -0.455,0.0675 -0.84875,0.21 -1.12876,0.4325 -1.2125,0.965 -1.5325,3.46125 -1.3675,5.5975 0.145,1.88625 1.12,2.54625 2.95376,2.55 0.0975,0 0.195,-0.004 0.29125,-0.0138 3.23,-0.30125 3.11,-2.2275 4.5275,2.16875 2.68625,8.3275 2.3175,-2.50375 3.7125,-4.7775 z" />
</svg>
