<?xml version="1.0" encoding="UTF-8" standalone="no"?>
<svg>
  <path
     d="m 150.66479,37.711609 c 0.19708,2.905521 1.46897,4.711586 3.78068,5.232791 2.98202,0.672898 4.6688,-1.051486 5.43375,-4.540445 0.16726,-0.766248 0.12966,-1.40414 -0.3319,-1.711418 -0.87905,-0.586031 -3.2919,0.02204 -4.45877,-0.639188 -1.45082,-0.822 -1.82033,-4.316145 -1.46119,-5.949772 0.35915,-1.636219 1.27579,-3.386533 1.52473,-4.648055 0.0506,-0.25412 0.0739,-0.490088 -0.0311,-0.621038 -0.0129,-0.01686 -0.026,-0.03241 -0.0389,-0.04668 -3.5097,-0.853117 -4.36411,13.7082 -4.41727,12.923799 z m -1.714,-16.690216 -0.16985,-4.152781 c -0.0687,-1.679005 -0.0467,-1.9798 0.22689,-3.007948 0.20356,-0.763655 0.41749,-1.598619 0.95943,-2.135383 1.32376,-1.31079 4.59879,-0.858302 6.11703,-1.9370134 2.18724,-1.5545382 2.18854,-6.8923475 0.50564,-9.05625408 -1.78402,-2.29355962 -5.39096,1.34968648 -6.86901,3.43450488 -0.90757,1.2809705 -1.76717,2.7486413 -2.15353,4.4613558 -0.17892,0.7934757 -0.27875,1.6945628 -0.41878,2.4828528 l -0.68587,3.863655 -2.26633,-3.075366 c -3.1026,-4.3563364 -2.15612,-5.6515688 -6.71472,-6.8352996 -1.52731,-0.3980343 -4.83865,-0.2489335 -5.47525,1.5843582 -0.49786,1.4352575 0.67161,4.9242174 1.40415,5.7526984 0.5627,0.637892 2.84458,2.218361 3.78586,2.315601 1.54028,0.159472 4.68566,-0.841447 4.68566,-0.841447 0,0 2.5386,3.897365 4.09055,5.728063 0.67549,0.798662 1.23559,1.441741 2.10297,1.458595 0.35913,0.0078 0.87516,-0.04019 0.87516,-0.04019 z m -13.62134,23.506068 c -0.0506,-1.446926 -0.20355,-3.264659 -0.64956,-3.722334 -0.25931,-0.264492 -0.61585,-0.07261 -0.84015,-0.215224 -1.0061,-0.645671 0.70661,-3.303556 1.52212,-4.320034 7.40967,-9.223506 26.61256,-20.675746 36.75789,-23.044504 0.96721,-0.225596 1.93313,-0.408406 2.11594,-0.05964 0.0908,0.173734 -0.0117,0.478419 -0.16725,0.823296 -0.36692,0.807738 -0.95295,1.786617 -1.60511,2.835509 -13.51112,21.75705 7.80122,-8.4378101 13.84953,-9.2857399 0.55232,-0.291719 1.07223,-0.5263908 1.53249,-0.6806776 2.3532,-0.7895862 4.90218,-0.9581349 5.21205,-3.3631959 0.0428,-0.3383941 0.0493,-0.7584694 0.0389,-1.166876 -0.1024,-3.9401511 -6.13387,-2.05499819 -10.3839,-0.3319113 -3.93366,1.5960269 -9.77453,4.2253875 -15.97063,7.2826025 -8.01644,3.9544132 -32.01908,15.8280242 -35.39654,26.1406142 -0.51602,1.572689 -0.74161,3.23484 -0.60678,4.88921 0.21134,2.593059 1.64011,5.765665 3.16742,6.778254 0.73643,0.487494 1.52343,0.353952 1.42359,-2.559349 z m 2.80828,47.723931 4.99164,5.322251 7.03497,-7.503013 -7.03497,-7.503012 -4.99164,5.322251 -4.99163,-5.322251 -7.03497,7.503012 7.03497,7.503013 4.99163,-5.322251 z m 52.7804,-60.953711 -7.03627,7.503012 7.03627,7.503013 7.03496,-7.503013 -7.03496,-7.503012 z m -107.757114,62.416196 -7.034964,7.503013 7.034964,7.50301 7.036262,-7.50301 -7.036262,-7.503013 z M 2.7528893,53.841725 c 0.051861,-1.137056 0.3876621,-0.72865 1.8955251,-0.816813 1.3250525,-0.07909 2.2598498,-0.133543 2.4582188,1.118904 0.1970723,1.252447 0.1983689,1.234296 -0.8414472,1.243372 -0.036303,0 -0.073902,0.0013 -0.1140946,0.0013 -0.6002929,0.0052 -3.4293189,-0.854412 -3.3982021,-1.546758 z m 7.9230877,2.182058 c 0,0 -0.9322042,0.0078 -0.9322042,0.0078 0,0 -0.00129,-0.1491 -0.0026,-0.430448 0.6988292,-1.706231 1.6167722,-3.131116 -0.1283564,-4.955333 -0.3046842,-1.076118 -0.8090339,-3.819573 1.6089926,-0.815516 0.693643,0.862192 1.268005,2.027772 1.401547,2.451736 0.452489,1.443036 0.169846,2.278001 -0.924424,3.243915 -0.503054,0.443414 -0.60548,0.493978 -1.022962,0.497867 z M 9.2186787,40.941263 6.135533,41.738628 6.1627599,45.10701 c 0.014261,1.675115 -0.079088,1.885153 -0.9322043,2.10686 C 3.5774813,47.64302 1.6651012,49.315543 1.2566947,49.905463 0.48137041,51.025664 0.26744315,52.519265 0.13390068,54.880244 0.07555719,55.88635 0.03277174,57.049337 3.5851571e-4,58.258999 -0.01519983,58.87096 0.47877766,59.504962 0.86773632,60.140262 1.0596226,60.452725 2.0877699,61.183968 2.02424,61.496431 c -0.5160185,2.528232 -2.14316214,3.639357 0.4369303,6.653786 3.1751992,3.709369 11.1021777,3.202427 17.3994177,2.876998 0.995734,-0.05186 1.780134,-0.125764 2.236513,-0.21652 2.018694,-0.403221 5.633418,-1.745129 8.081264,-3.51489 0.774027,-0.560101 1.426181,-1.056672 1.969427,-1.497491 4.028316,-3.26855 2.154831,-3.859767 -1.380803,-2.156128 -4.912548,2.370056 -22.4597701,4.847722 -25.4378969,-0.509535 -0.2567127,-0.461565 0.1115015,-0.775325 1.4482227,-0.416186 0.6275199,0.08038 1.5506486,0.223003 2.8368051,0.142618 3.2763291,-0.202259 5.5841511,-7.360394 5.9212481,-10.181641 0.270974,-2.254664 -1.175952,-7.39929 -3.570641,-9.698036 -0.735132,-0.705312 -1.924049,-1.513049 -2.7460483,-2.038143 z M 133.69971,70.28171 c -2.07833,0.175032 -7.5782,0.08946 -8.32371,-0.584734 -0.4512,-0.408407 1.88256,-4.750481 3.66658,-6.818445 5.44932,-6.323172 9.20017,-8.372984 15.24459,-0.857005 2.14057,2.661773 3.51877,4.994228 2.54509,5.866793 -0.88424,0.789586 -9.81214,2.113342 -13.13255,2.393391 z m -13.1455,-15.417024 -0.0234,0.04927 0.73513,14.790802 c 0,0 -2.91848,-0.882937 -4.54173,-2.274113 -2.20799,-1.894228 -2.11594,-4.291509 -3.72753,-3.464325 -1.3017,0.667713 -2.5373,3.494146 -3.98033,4.992934 -1.51694,1.576578 -5.6036,2.198912 -8.54413,1.494897 -2.348015,-0.561397 -3.77679,-2.490632 -4.581935,-4.199457 -3.726172,-6.37374 -0.167201,-17.925812 -8.085102,-15.938234 -1.28486,0.322836 -2.551569,1.067044 -3.770306,1.844962 -2.66696,1.703638 -5.804559,3.772898 -8.166835,6.135174 -5.191301,5.191302 -5.123882,7.834924 -12.844711,10.945296 -5.061649,2.039441 -6.8729,2.148348 -7.286493,7.761022 -0.689753,9.399834 3.95182,3.389127 9.688961,3.802719 3.000167,0.216521 6.53969,0.912756 8.313343,1.712715 1.487118,0.670305 4.378377,2.300042 3.521372,3.628985 -0.282644,0.435633 -0.999624,0.56399 -1.741238,0.698828 -10.497994,1.90849 -17.464244,3.964785 -24.449942,-1.323755 -1.551945,-1.175953 -2.81217,-2.493225 -3.526558,-4.312256 -1.664743,-4.233166 -0.850523,-15.855251 -6.51765,-14.211252 -4.61305,1.338018 -10.122002,9.385572 -12.104395,14.075116 -3.045546,7.199626 -3.470806,12.20682 -9.565789,11.568928 -0.923129,-0.09724 -1.633626,-0.215222 -2.567128,-0.906272 -0.829778,-0.614554 -1.834588,-1.679004 -2.643622,-2.606023 L 3.414119,76.846036 8.4511336,92.037465 c 0.3980343,1.200585 0.9023841,2.643622 1.3872859,3.796237 2.2092855,5.265198 6.8340045,9.099038 12.0992075,7.955498 2.165204,-0.47064 3.168716,-1.69326 4.313552,-3.901253 1.729569,-3.332079 3.287997,-7.722125 5.249645,-11.157928 1.562317,-2.735675 4.908658,-8.166835 6.984401,-9.056253 1.588248,-0.679382 3.79883,-0.999624 3.79883,-0.999624 0,0 -0.162067,3.066291 0.04537,5.489503 0.538059,6.271311 4.762151,12.905649 9.430951,14.693561 3.329486,1.275784 6.859934,1.155204 11.030868,0.532874 7.933459,-1.181137 16.414055,-3.985529 24.431789,-4.585823 3.20891,-0.241154 6.343916,-0.128356 9.511336,0.08687 1.570097,0.106315 1.760686,-0.02075 1.911084,-1.265412 0.111501,-0.924425 0.390254,-1.649185 0.766248,-2.659181 0.920539,-2.467294 2.424509,-6.630448 2.424509,-6.630448 0,0 -9.587831,-0.390255 -12.969178,-1.959055 -3.085738,-1.430072 -8.503933,-9.114598 -11.138479,-10.134967 -2.220955,-0.859598 -4.619533,-0.919239 -4.095735,-2.691593 0.50046,-1.691971 9.005689,-7.620998 9.629319,-7.908827 1.370432,-0.634002 3.774196,-0.656043 4.379675,-0.04148 0.532874,0.539355 0.766248,1.461188 0.987956,2.563237 -0.423965,-2.10686 1.212254,12.340362 4.836052,15.500003 2.147052,1.873484 4.946258,2.638436 8.20703,2.086114 2.06408,-0.350063 4.84383,-1.763279 6.37244,-3.941448 0.99832,-1.423588 1.24466,-2.196319 2.36227,-1.553241 0.87646,0.50435 1.53639,1.638813 3.03388,2.421916 1.67512,0.873861 4.39394,1.308198 4.39394,1.308198 l -2.76809,7.364283 c -0.58344,1.554538 -0.65086,1.749019 -0.66901,1.934422 -0.0661,0.667712 0.19837,0.816813 1.30172,0.171141 0.77921,-0.456377 5.57636,-5.783814 6.56172,-7.296864 0.8998,-1.380803 1.17337,-1.544166 2.74346,-1.631033 3.24522,-0.178921 14.70783,-0.924425 18.4172,-2.578796 2.86922,-1.280971 3.85328,-2.310415 5.36633,-1.990172 1.92924,0.408407 4.87625,2.681222 7.44986,3.73141 3.15834,1.290046 8.82417,1.230406 11.63764,-0.107612 1.58436,-0.75458 3.66918,-2.118528 5.33522,-3.278921 7.78825,-5.419491 18.32384,-3.823463 14.67671,-3.997198 6.07812,0.289125 15.66595,1.048891 15.66595,1.048891 l 4.79456,-11.094397 c 0,0 -7.60543,-0.07001 -11.82045,-1.25115 -1.89423,-0.531578 -7.4719,-3.740486 -9.06144,-5.190006 -3.15575,-2.87959 -5.41559,-8.264074 -8.23296,-10.47336 -3.97905,-3.120745 -15.6478,-3.243915 -18.32124,1.100754 -0.13095,0.21263 -0.99444,2.604725 -1.6803,4.899582 -1.93313,12.757844 0.21262,4.969595 5.76954,4.530072 3.27115,-0.259307 6.46191,-0.510832 6.46191,-0.510832 1.5675,-0.124467 1.78143,-0.121875 2.14186,0.02075 0.26709,0.107611 0.49787,0.278754 0.73643,0.458971 2.44007,1.850147 5.87457,5.725471 6.00682,6.778253 0.32154,2.564534 -6.29853,5.790298 -10.41501,6.700461 -2.26893,0.501757 -15.56743,-0.277457 -16.72134,-3.97775 -0.47712,-1.528608 0.78959,-4.147596 0.53028,-6.222042 -0.45378,-3.640653 -6.06776,-9.681181 -8.81769,-10.976414 -5.07332,-2.389502 -9.65007,-0.295608 -13.05475,4.775116 -2.49194,3.713258 -6.01849,11.170892 -6.01849,11.170892 0,0 -0.13614,-2.278001 -0.0713,-4.143705 0.17504,-5.022754 -1.49748,-25.430118 -1.4508,-33.070562 0.0104,-1.510456 0.0336,-2.445253 0.0336,-2.445253 0,0 0.74162,0.05834 1.31728,0.206147 0.15298,0.0389 0.2969,0.08558 0.43174,0.136136 2.60991,1.327645 3.3606,1.231702 3.33986,0.388959 -6.2,-21.0102501 1.88385,-29.1083694 -6.11184,-23.3738223 -1.83718,2.0757427 -4.17871,6.8262245 -4.3343,7.9230879 -0.3708,2.6099124 0.62493,3.6743624 1.22134,7.0634894 0.28005,1.589543 0.14002,6.307612 -0.53677,8.531159 -0.48749,1.601214 -0.53287,1.965538 -0.44989,3.63806 l 1.29004,25.952618 0.0234,-0.03501 z"
     style="fill:#000000;stroke:none" />
</svg>
