<?xml version="1.0" encoding="UTF-8" standalone="no"?>
<svg>
    <path
       style="fill:#000000;stroke:none"
       d="m 62.205752,57.111103 -4.49375,-14.03625 c -0.57625,-1.80001 -0.64,-2.07376 -0.63625,-2.73376 0.01,-2.25625 1.8625,-3.57 3.725,-5.3025 3.145,-2.9275 6.57001,-5.495 10.70126,-8.03125 7.49,-4.59875 19.28251,-11.72126 20.50001,-13.33751 1.05625,-1.40125 0.71,-1.99375 1.05375,-5.4050002 0.54,-5.36375 2.99125,-9.22749996 -0.33375,-8.05374996 -2.955,1.04249996 -6.98876,4.03124996 -10.97876,6.90624996 -9.465,6.8187502 -21.64126,15.4037602 -26.02251,19.5562602 -0.28,0.265 -0.53375,0.51 -0.7625,0.745 -9.5225,9.73625 0.23375,34.51876 3.76875,42.88002 1.6425,3.88625 3.3575,10.32375 4.1425,12.865 0.76625,2.48375 0.545,2.5825 -1.95,3.6 -4.88875,1.995 -6.6475,2.89125 -11.96375,2.7975 -1.23125,-0.0225 -2.4,-0.1175 -3.295,-0.8725 -1.725,-1.45375 -1.96625,-3.59625 -3.47875,-2.6025 -0.5975,0.3925 -1.27875,1.25625 -1.97251,1.955 -4.475,4.50126 -14.46625,5.30251 -19.88625,3.84876 -5.86626,-1.57501 -6.86876,-3.86001 -9.88626,1.40875 -5.3112496,9.274997 -9.3249996,14.526247 -10.39249961,24.741257 -0.0525,0.50125 -0.0837,0.9575 0.055,1.1275 0.16,0.195 0.545,0.0125 0.92250001,-0.27875 2.37,-1.82875 5.28875,-10.89126 8.185,-14.01001 2.3062496,-2.485 4.9949996,-0.84125 9.1587596,0.54 2.23625,0.7425 7.8725,0.83375 9.69,0.1575 0.5175,-0.1925 3.33875,-2.03875 6.17,-3.505 l 4.84,-2.504997 2.19376,1.508747 c 0.58375,0.40125 1.18375,0.86375 1.7925,1.18 2.91125,1.5125 7.50625,-0.39875 11.28125,-1.8625 10.63751,-4.126247 6.9925,-11.952507 13.13126,-20.846257 1.0325,-1.49625 1.435,-2.11 1.08,-3.94875 -0.6775,-3.515 -3.115,-9.76126 -4.94751,-14.53126 -0.67625,-1.76 -0.815,-2.155 -1.39125,-3.955 z m -29.16376,71.882527 6.4,6.9175 8.45501,-9.14125 -8.45501,-9.14125 -6.4,6.91875 -6.4,-6.91875 -8.455,9.14125 8.455,9.14125 6.4,-6.9175 z" />
</svg>
