<?xml version="1.0" encoding="UTF-8" standalone="no"?>
<svg>
  <path
     d="m 46.807801,10.205687 -9.00125,0 c 0,0 -0.105,-1.3562504 0,-2.0037504 0.28875,-1.77125 6.375,-1.7025 6.805,-1.59625 1.02125,0.255 2.08,1.20625 2.19625,2.16 0.075,0.62625 0,1.4400004 0,1.4400004 z m -0.0612,6.6 c 0.27,0.745 -1.8625,4.23125 -3.53875,6.3 -1.3725,1.69375 -2.2075,3.07625 -3.30125,4.5 -2.0275,2.64374 -4.7825,5.28374 -7.4375,7.43874 -3.1675,2.57 -7.60125,5.78 -8.4625,8.76125 -0.2475,0.86125 0.28375,1.0425 1.92,0.6 7.00125,-1.8875 15.53625,-12.09625 18.1775,-17.59374 1.6425,-3.42 3.78875,-7.5525 4.6925,-7.9 0.91125,-0.35 1.9825,0.035 2.79875,-0.59375 0.73875,-0.57 2.18124,-3.8725 1.81249,-4.71625 -0.2975,-0.67875 -1.51999,-0.975 -2.09499,-1.785 -0.6775,-0.95625 -0.45625,-2.6262504 -0.52125,-4.0950004 -0.17,-3.77875 -3.79875,-7.59999998 -7.285,-7.71624998 -6.2175,-0.2075 -9.815,5.29999998 -9.3,10.56000038 0.36,3.6675 0.63,4.27375 3,5.34 1.11,0.49875 2.17,0.98625 3.72,0.9 2.17875,-0.12 5.6025,-0.6 5.82,0 z m 0.0612,49.55999 -4.2125,0 c -1.62,0 -1.9025,-0.0188 -2.82875,-0.18625 -2.6225,-0.47375 -5.65,-3.16625 -4.95875,-4.85375 1.36625,-3.34 7.34375,-0.845 9.04625,1.0325 1.3375,1.475 2.95375,4.0075 2.95375,4.0075 z m 23.12999,-22.3525 c 1.6775,1.1375 3.45375,2.11125 5.33875,2.86125 3.85375,1.53375 8.645,3.3825 11.805,2.4875 0.16875,-0.0475 0.315,-0.1 0.435,-0.16 3.0925,-1.5225 5.31125,-4.155 1.59625,-6.3 -3.91125,-2.2575 -5.87875,-1.4025 -6.6,-4.2 -0.0975,-0.375 -0.19125,-0.70875 0,-0.9 0.2425,-0.2425 0.94625,-0.25125 1.2,0 0.10625,0.10625 0.13375,0.2575 0.2325,0.3675 0.72875,0.805 2.9425,-0.37375 3.3675,-0.6675 1.73875,-1.2025 4.02,-3.5625 3,-4.5 -2.19125,-2.01125 -9.51875,2.79125 -10.8,4.2 -2.02875,2.23125 -2.99625,4.77625 0.76,6.7275 0.93375,0.485 2.12125,0.835 2.24,1.6725 0.0387,0.27125 0,0.6 0,0.6 0,0 -2.365,-0.88125 -4.935,-1.995 -3.4,-1.08 -8.98625,-4.75 -13.3175,-7.83375 -4.7475,-4.09375 -4.6225,-3.02375 -3.21625,-0.9775 2.25,3.275 5.66,6.425 8.89375,8.6175 z m -9.295,-13.89625 -1.055,-2.26624 1.14625,-0.9925 c 0.30125,-0.25875 0.685,-0.54375 1.15125,-0.8875 1.255,-0.925 2.43,-1.9025 3.70375,-2.8775 3.45875,-2.6475 12.08625,-7.53125 15.385,-8.7075 0.295,-0.10625 4.86,-1.73625 5.4575,-1.81625 1.3825,-0.18375 1.71625,-0.20375 3.335,-0.20375 l 4.44,0 c 0,0 0.125,1.35 0,2.4 -0.1675,1.4175 -1.2875,2.83 -2.39875,3.9 -2.37875,2.28625 -6.395,6.87625 -7.20125,10.19999 -0.0925,0.38625 -0.14,0.75125 0,0.9 0.19625,0.2075 0.7575,-0.007 1.29,-0.31375 0.54375,-0.3125 3.53,-3.53124 6.16625,-6.52124 2.3,-2.60625 9.644999,-13.0112504 6.115,-18.4600004 -0.2075,-0.32 -0.45625,-0.6675 -0.75125,-1.0475 -3.6425,-4.7075 -7.8125,-3.88124998 -14.01875,-1.5575 -10.3075,3.85625 -14.4675,7.0975 -21.6,12.3000004 -2.78625,2.03 -6.17,4.2675 -6.90125,6.6 -0.3525,1.125 -0.365,2.75 -0.59875,4.2 -0.695,4.28999 -1.84374,6.55249 -0.8525,9.77124 0.81125,2.63375 5.99875,11.92875 7.515,13.90625 3.73375,4.87125 8.005,12.8525 8.005,12.8525 0,0 -4.1525,1.6525 -8.36875,2.77 -2.88875,0.76625 -5.80875,1.28125 -5.80875,1.28125 0,0 -2.32499,-5.275 -4.36624,-8.61125 -2.18375,-3.57 -7.48625,-9.1925 -10.945,-8.57 -6.48125,1.165 -8.66125,9.265 -9.47875,16.08 -0.615,5.11625 -0.27125,7.4375 3,11.22 4.48,5.18125 9.015,3.635 17.4,2.1 0.765,-0.14125 1.465,-0.23625 1.79875,0 1.18374,0.83375 -1.4125,3.23875 -3,4.5 -4.67875,3.7175 -10.00875,7.2475 -15,9.6 -10.10875,4.765 -27.5674998,10.022503 -33.21749984,12.778753 -4.67874996,2.2825 8.76125004,0.88125 8.76250004,0.88125 2.2299998,0.0387 4.4337498,0.185 5.3762498,0.44 5.49,1.485 6.37,1.8375 11.88,-0.3 7.02875,-2.7275 19.72375,-9.622503 23.06875,-15.323753 1.2025,-2.04875 1.95125,-4.59875 3.08749,-7.295 0.4925,-1.16875 1.0575,-2.365 1.32875,-3.63 0.34125,-1.59125 0.55125,-1.82 2.105,-2.285 0.52375,-0.1575 13.34625,-4.40625 14.81,-5.66625 2.17125,-1.8725 5.48875,-12.3625 5.79,-14.2675 0.13375,-0.84625 0.1575,-1.54875 -0.12375,-2.30125 -0.32875,-0.87625 -1.1225,-1.88375 -2.10125,-2.9425 -6.92625,-7.49375 -11.72625,-16.245 -14.33,-21.8375 z"
     style="fill:#000000;stroke:none" />
</svg>
