<?xml version="1.0" encoding="UTF-8" standalone="no"?>
<svg>
  <path
     style="fill:#000000;stroke:none"
     d="m 67.954443,39.909272 c 1.1775,-0.7125 2.515,-2.2 3.43625,-3.51 0.9275,-1.31875 1.67125,-2.505 2.5725,-3.6525 1.7025,-2.1675 19.01374,-16.41 24.06999,-17.67125 0.29125,-0.0725 0.54375,-0.1 0.67875,0.0362 0.0488,0.0475 0.0813,0.11625 0.1025,0.2025 1.13875,4.72375 -3.45625,15.005 4.548747,1.1075 0.95,-1.65 1.94,-3.1525 2.93875,-4.0675 2.18125,-2 5.29625,-3.2162501 7.12125,-4.3300001 0.40125,-0.24375 0.73875,-0.48375 1.02875,-1.02375 0.0713,-0.13249 0.14,-0.28249 0.205,-0.44749 0.42375,-1.07375 1.70625,-6.35000004 0.3025,-6.46125004 -0.49375,-0.0388 -1.14125,-0.08 -1.79375,-0.0913000017 C 106.53943,-0.10956814 75.204443,20.826672 71.428193,25.681672 c -2.45875,3.16 -5.795,8.30375 -6.07125,9.62625 -0.22,1.05625 -0.37875,2.20875 -0.47625,3.03625 -0.49625,4.21 4.70625,0.57625 3.07375,1.565 z m 59.238737,37.20249 c -0.37625,-0.02 -4.61625,-0.245 -4.61625,-0.245 -1.83375,-0.0975 -2.19,-0.13375 -3.56,-0.36 -1.56875,-0.25875 -4.76625,-1.8075 -5.55125,-2.535 -2.6125,-2.4175 -3.35875,-7.63 -6.72,-6.2125 -1.265,0.53375 -2.15875,2.2675 -3.36125,3.61125 -0.65625,0.73375 -1.7475,1.515 -2.985,2.1875 -11.552487,6.27875 -32.772487,8.8175 -38.444987,-7.87625 -0.62,-1.82124 -0.98875,-3.77124 -1.215,-5.87249 -0.0387,-0.35625 -0.075,-0.71375 -0.11,-1.07 -0.1675,-1.74125 -0.38,-4.2725 -0.61875,-7.30125 -0.035,-0.4575 -3.3725,-46.8512401 -3.5925,-47.2549901 -0.0725,-0.1325 -0.155,-0.23375 -0.2575,-0.3125 -0.11875,-0.0175 -0.23625,-0.0275 -0.3525,-0.03 -1.3675,0.325 -5.51625,7.5649901 -5.29875,10.3187401 0.3425,4.3175 1.29125,11.43875 1.29125,11.43875 l 3.53625,38.135 c 0.0213,0.205 0.0412,0.41 0.0587,0.615 0.0875,0.99124 0.13125,1.99999 -0.10625,2.06124 -0.43375,0.11125 -2.06125,-3.24874 -2.51,-4.02999 -0.875,-1.525 -3.8825,-5.01125 -7.22625,-8.5275 -15.02874,-15.805 -19.93249,-17.68625 -30.67749,-32.85375 -0.39625,-0.62625 -0.6175,-1.05 -0.6075,-1.19875 0.0112,-0.17125 0.0325,-0.33875 0.09,-0.4975 0.0312,-0.085 0.0675,-0.14 0.15375,-0.17875 1.5375,-0.67625 5.33375,1.03125 2.34,-2.505 C 14.404403,12.486772 5.5406526,1.7767819 4.4256526,0.48928186 c -0.27,-0.31375 -0.4225,-0.48875000167 -0.4225,-0.48875000167 0,0 -2.3025,5.67000004167 -3.37624996,8.66624004167 -0.6175,1.7212501 -0.8275,2.5600001 -0.40875,3.3850001 0.725,1.4225 3.33124996,2.8025 4.85624996,4.845 1.4775,1.9775 1.9425,4.5775 3.04,7.05125 5.0700004,11.42875 23.1425004,28.58125 28.7737404,33.4025 7.53375,6.44875 14.56375,12.59749 15.7225,21.31874 0.39375,2.955 -1.8725,4.75625 -4.6225,7.5525 -3.42875,3.4875 -8.06375,7.22625 -11.20875,8.8325 -4.825,2.46375 -12.28999,5.818748 -18.50124,8.748748 -5.315,2.5075 -18.74875036,8.15 -6.50625,7.03375 0.0575,-0.005 0.11375,-0.01 0.17125,-0.015 11.53375,-1.005 10.6125,2.2475 21.14749,-3.81 8.6,-4.945 18.795,-13.366248 22.0425,-17.874998 0.4975,-0.68875 0.89125,-1.33125 1.1375,-2.22625 1.58125,-5.74375 -0.415,-10.39625 2.54625,-8.23875 1.865,1.35875 4.35375,4.45375 7.0925,6.21375 4.405,2.83125 16.0025,3.7 22.35875,2.21875 4.05874,-0.945 8.48999,-2.67625 11.866237,-5.57125 1.6175,-1.3875 3.5775,-3.33375 3.5775,-3.33375 0,0 1.80375,2.44625 3.21375,3.69375 3.26875,2.8925 16.21375,4.9 17.925,3.7225 3.76125,-2.5875 8.48,-5.33875 9.06875,-10.85125 l -4.0525,-31.60499 -1.81875,-19.74125 c 2.2625,0.16875 5.06375,3.4025 1.9375,-4.1225 -0.4425,-1.0675 -1.5925,-3.835 -2.68,-6.45375 0.0425,0.10125 -2.55875,-7.0424901 -4.17875,-8.3862401 -1.25875,-1.16375 -7.645,10.6599901 -6.40625,12.1874901 0.5975,1.0025 1.55875,1.93625 2.3175,3.075 1.2025,1.8025 1.9825,4.32625 2.5075,7.1675 l 5.6475,50.22624 z M 71.210693,12.415522 c 0.23375,0.0362 0.4675,0.0475 0.70625,0.0275 0.8275,-0.07 1.595,-0.5275 2.28,-0.33875 0.515,0.14 1.2025,0.88 1.6875,1.70625 0.70875,0.90125 1.5,1.80375 2.23875,2.38375 1.8425,1.44875 2.2875,0.83125 2.65125,-1.17625 0.25375,-1.4025 0.3425,-3.1275 0.46875,-3.54 0.3975,-1.30875 1.1725,-2.5600001 2.21375,-3.1312501 0.002,-10e-4 0.004,-0.002 0.006,-0.002 3.50875,-1.91874 3.915,0.27875 4.34,-4.12874 0.1775,-1.8375 0.27125,-4.24375004 -1.36625,-4.21500004 -3.84875,0.0675 -7.65625,2.58625004 -8.19875,5.16375004 -1.1325,5.3762401 -1.2525,2.04624 -3.075,-1.08 -1.21125,-2.07875 -3.2075,-2.96125 -5.89875,-2.44 -0.14625,0.0325 -0.2925,0.07 -0.43875,0.1125 -2.88375,0.83125 -3.065,5.59749 -1.44,8.19499 1.44125,2.3037501 4.265,2.5312501 3.825,2.4637501 z m 20.53249,87.32374 6.6475,6.724998 8.151247,-8.246248 -8.151247,-8.2475 -6.6475,6.72625 -6.64749,-6.72625 -8.15125,8.2475 8.15125,8.246248 6.64749,-6.724998 z m -4.50499,-45.49374 -6.91625,6.95125 c -1.15,1.155 -1.31375,1.3625 -1.635,2.07375 -0.45,0.99625 -0.60625,2.66124 -0.385,2.88749 0.71625,0.73125 3.24875,-1.04374 4.13125,-1.70124 7.71999,-5.76 11.23749,-9.38875 12.48499,-16.8475 0.635,-3.79125 -1.35,-5.2575 -4.86,-5.74125 -5.57124,-0.7675 -11.09874,0.0175 -13.26249,4.26 0.3375,16.19875 0.81375,6.935 5.5375,5.785 5.255,-1.27875 10.90499,-4.12 4.905,2.3325 z m -46.59375,-9.10375 0.72625,-0.0138 c 0.32625,-0.005 0.41375,-0.20625 0.875,-2.0075 2.65125,-10.3575 3.13625,-16.0775 -3.3875,-22.72 -1.075,-1.09375 -2.32625,-2.01125 -3.1325,-1.03125 -0.5475,0.665 -1.10625,5.36125 -0.85625,6.38625 0.43625,1.79375 1.72875,2.375 3.22125,3.59375 3.3725,2.75 4.2175,4.8125 3.78875,8.47625 -0.33,2.81125 -1.235,7.31625 -1.235,7.31625 z m 69.911237,9.9 0.72625,-0.0125 c 0.32625,-0.005 0.41375,-0.20625 0.875,-2.0075 2.65125,-10.3575 3.13625,-16.0775 -3.3875,-22.72 -1.075,-1.095 -2.32625,-2.0125 -3.1325,-1.03125 -0.5475,0.665 -1.10625,5.36125 -0.85625,6.38625 0.43625,1.7925 1.72875,2.375 3.22125,3.5925 3.3725,2.75 4.2175,4.81375 3.78875,8.4775 -0.33,2.81125 -1.235,7.315 -1.235,7.315 z M 20.694453,19.765522 c -0.54625,3.405 0.1175,4.24125 2.38125,3.19625 1.54125,-0.71125 21.43124,-12.2825 24.33749,-15.7462501 1.17,-1.39624 2.33625,-3.86374 2.74875,-6.08499 0.25375,-1.36750004 -0.1575,-1.31875004 -1.63,-0.77125004 -3.41375,1.26875004 -25.91624,14.96749014 -26.62249,16.20624014 -0.6575,1.155 -1.08,2.355 -1.215,3.2 z" />
</svg>
