<?xml version="1.0" encoding="UTF-8" standalone="no"?>
<svg>
    <path
       style="fill:#000000;stroke:none"
       d="m 148.47974,55.332248 0.76,-0.015 c 0.34125,-0.006 0.43375,-0.23125 0.91625,-2.24625 2.77625,-11.58875 3.28375,-17.98875 -3.5475,-25.42126 -1.125,-1.22375 -2.435,-2.25125 -3.28,-1.15375 -0.5725,0.74375 -1.1575,5.99876 -0.89625,7.14501 0.45625,2.00625 1.81,2.65875 3.37375,4.02 3.53,3.0775 4.415,5.38625 3.96625,9.485 -0.345,3.145 -1.2925,8.18625 -1.2925,8.18625 z M 43.587146,36.172516 l 0,7.86001 c 0.37037,-0.405 0.73925,-0.805 1.1015,-1.19375 3.35387,-3.60001 18.54563,-16.72876 27.43289,-22.22251 l 21.43313,-13.2475098 0.6175,-1.9525 c 0.20375,-0.645 0.36625,-1.4125 0.5,-2.3525 0.4125,-2.90875 0.1225,-3.57 -2.2,-2.72 -2.5675,0.94 -6.24875,3.085 -10.29826,5.74625 -4.37225,2.875 -25.83963,17.9300098 -38.58676,30.0825098 z m 17.67463,-12.34875 -0.19012,-4.7075 c -0.0769,-1.90251 -0.0514,-2.24251 0.25412,-3.40876 0.22675,-0.865 0.46613,-1.81 1.073,-2.42 1.47888,-1.485 5.14063,-0.97125 6.83825,-2.195 2.44438,-1.7612498 2.44626,-7.8112498 0.56513,-10.2624998 -1.99475,-2.6 -6.027,1.52875 -7.67925,3.8925 -1.01488,1.45125 -1.97575,3.11375 -2.408,5.055 -0.20038,0.8999998 -0.31113,1.9212498 -0.46775,2.8149998 l -0.76725,4.3775 -2.53351,-3.485 c -3.46787,-4.9374998 -2.41025,-6.4037498 -7.506,-7.7474998 -1.70738,-0.44875 -5.41,-0.28125 -6.12163,1.7975 -0.55687,1.62625 0.7505,5.5799998 1.56938,6.5187498 0.62975,0.7225 3.17987,2.515 4.23325,2.625 1.721,0.18 5.238,-0.95375 5.238,-0.95375 0,0 2.83838,4.41751 4.57225,6.49126 0.75651,0.905 1.38213,1.63375 2.35238,1.65375 0.40063,0.007 0.97775,-0.0462 0.97775,-0.0462 z m 68.792904,0 -0.19125,-4.7075 c -0.0762,-1.90251 -0.0512,-2.24251 0.255,-3.40876 0.22625,-0.865 0.46625,-1.81 1.0725,-2.42 1.47876,-1.485 5.14126,-0.97125 6.83876,-2.195 2.44375,-1.7612498 2.44625,-7.8112498 0.565,-10.2624998 -1.995,-2.6 -6.0275,1.52875 -7.67876,3.8925 -1.015,1.45125 -1.97625,3.11375 -2.40875,5.055 -0.2,0.8999998 -0.31125,1.9212498 -0.4675,2.8149998 l -0.7675,4.3775 -2.53375,-3.485 c -3.4675,-4.9374998 -2.41,-6.4037498 -7.505,-7.7474998 -1.7075,-0.44875 -5.41125,-0.28125 -6.1225,1.7975 -0.55625,1.62625 0.75125,5.5799998 1.57,6.5187498 0.63,0.7225 3.18,2.515 4.2325,2.625 1.72125,0.18 5.23875,-0.95375 5.23875,-0.95375 0,0 2.8375,4.41751 4.5725,6.49126 0.75625,0.905 1.38125,1.63375 2.35125,1.65375 0.40125,0.007 0.97875,-0.0462 0.97875,-0.0462 z m -2.34375,54.06877 c 0,0 0.64125,-1.59875 1.02875,-2.865 0.655,-2.1375 0.55,-3.6825 0.29125,-5.89375 -0.72,-6.16876 -1.8275,-20.14001 -1.8275,-20.14001 0,0 1.98625,-0.2425 3.505,-0.19875 4.10626,0.11625 5.30251,2.20625 7.46251,-0.12625 1.40625,-1.51875 2.66375,-6.9 1.76375,-8.91001 -1.0275,-2.29875 -4.5125,-3.405 -6.11375,-1.53 -0.73875,0.86625 -1.16,2.23 -2.00625,3.13 -1.30876,1.39251 -3.63376,1.66751 -4.78626,2.82876 -1.9725,1.9875 -2.2375,15.87875 -1.875,19.17 0.6125,5.55126 2.5575,14.53501 2.5575,14.53501 z m 4.98751,15.16501 0.1375,2.81875 c 0,0 -2.00876,-0.2025 -4.02376,-0.62625 -3.2675,-0.6875 -6.555,-1.9525 -6.555,-1.9525 0,0 1.91125,-1.4025 3.38125,-1.9575 1.72125,-0.64875 2.8375,-0.1325 4.47125,-0.0663 0.54375,0.0225 1.14375,-0.005 1.69501,0.1475 0.74375,0.20625 0.8325,0.37 0.89375,1.63625 z M 99.425916,79.070036 c -0.10125,8.045 0.40625,18.26501 1.981254,22.118764 2.2325,5.46125 6.42626,10.065 11.29126,8.2325 3.94125,-1.48625 4.4475,-3.04875 8.28375,-2.27875 8.77875,1.76125 10.3125,5.6025 12.66876,0.625 0.99375,-2.09625 2.135,-5.175 3.43875,-8.020004 1.4575,-3.17625 2.94625,-7.085 2.7075,-8.5025 -0.285,-1.69626 -1.57,-3.18001 -1.5425,-4.85626 0.0512,-2.98 2.45625,-5.8725 0.29375,-7.4325 -6.8875,-4.9675 -19.87501,3.5225 -23.06251,9.4275 -2.57125,4.76376 -3.2125,8.26126 -5.79,6.31001 -3.15376,-2.3875 -4.61376,-5.75376 -5.04251,-9.50626 -0.4675,-4.09625 0.2925,-58.12502 0.32,-58.84627 0.007,-0.225 0.0187,-0.4425 0.0325,-0.65375 0.265,-4.03625 1.5175,-5.5175 1.4825,-9.58251 -0.0437,-4.985 -2.02375,-13.8562498 -2.4375,-15.6599998 -2.3325,-1.3575 -4.173754,0.6225 -5.351254,2.82125 -0.435,0.81125 -2.25125,6.8249998 -2.00125,8.3412498 0.15875,0.95625 0.53,2.0575 1.15,3.52625 0.69125,1.63625 1.03625,3.28876 1.28625,5.49251 0.4125,3.6225 0.57125,8.73625 0.6175,13.39 10e-4,0.1575 0.002,0.31375 0.004,0.47 l -0.33,44.58377 z M 29.483766,118.85381 C 16.314506,125.29006 0,133.19256 0,133.19256 c 0,0 6.876006,-0.0213 11.350256,0.905 2.63212,0.54625 4.611,1.1775 6.138,1.70625 2.3635,0.81875 10.36451,-3.18125 16.07376,-6.56625 13.77363,-8.165 20.68701,-13.8275 26.60489,-30.218764 1.99775,-5.5325 2.87387,-7.7625 2.51062,-10.74251 -0.25037,-2.05375 -7.70738,-24.22626 -9.6945,-25.43876 -0.4235,-0.2575 -0.92238,-0.26375 -1.53138,0.1275 -2.50588,1.61125 -4.17513,11.26001 -4.05038,12.94251 0.36638,4.93625 2.91063,5.8825 6.49501,12.5875 1.88012,3.51626 3.788,8.46251 3.788,8.46251 0,0 -0.88413,0.9975 -2.19013,2.45625 -4.25875,4.757504 -8.34463,8.431254 -11.76825,11.141254 -8.02138,6.34876 -10.12526,6.28751 -14.24213,8.29876 z m 30.45589,0.26875 c 3.42337,-0.44125 7.036,-1.77125 10.04625,-2.87875 1.61,-0.5925 2.99738,-1.06375 4.49238,-1.66626 0.54812,-0.22125 1.25187,-0.5825 2.03475,-1.03125 7.59425,-4.35 12.03788,-14.243754 15.14413,-23.158764 0.56125,-1.60875 0.775,-3.26125 0.34625,-5.125 -0.56375,-2.44875 -2.90375,-6.66875 -3.9725,-7.82625 -3.419,-3.70125 -11.65338,-8.61375 -11.65338,-8.61375 0,0 0.43425,-0.20375 0.95525,-0.47 2.905,-1.4825 3.0125,-3.06501 -0.42125,-3.63751 -0.52375,-0.0875 -1.0755,-0.18 -1.6,-0.33 -2.12125,-0.6075 -3.87813,-2.3175 -5.38163,-3.6825 l -3.12238,-2.83125 -2.036,2.85 c -0.4255,0.59625 -0.789,1.2525 -0.98112,1.845 -0.21138,0.65125 -0.38888,1.285 -0.5465,1.88875 -0.78888,7.59126 -0.0279,8.96251 2.04975,11.65626 0.69725,0.83 1.35812,1.675 1.87825,2.375 2.449,3.29625 3.921,2.315 10.12425,6.62125 1.20075,0.83375 6.23838,5.1725 7.22263,6.86376 0.90513,1.555 1.79713,4.0175 1.79713,4.0175 0,0 -3.30288,2.3 -5.69663,3.7625 -4.02175,2.455004 -10.81201,5.267504 -14.94151,5.790004 -0.66175,0.0838 -1.36462,0.15 -2.06287,0.20375 -1.33538,0.10125 -2.47175,0.185 -3.42463,0.22625 -4.689,0.20625 -7.08688,-3.57125 -8.41688,-6.922504 l -3.70413,-9.33626 -0.88362,6.14376 c -2.23113,25.270014 11.64013,23.410014 12.75401,23.266264 z m 9.759,-84.732544 0.14575,3.00625 c 0,0 0.848,0.006 1.56363,-0.0888 1.71437,-0.22625 2.67,-1.02875 3.64062,-1.86375 2.7415,-2.35625 6.622,-5.2475 8.89026,-3.79 3.2995,2.12 -14.98501,13.99501 -17.71476,18.66001 -0.60838,1.04 -1.21025,3.7175 -0.77238,4.28125 1.53188,1.97375 14.93863,-10.89625 15.14138,-11.09875 4.27201,-4.24751 7.46401,-9.07751 6.44651,-15.26751 -0.94125,-5.72 -6.75013,-5.5875 -13.81538,-1.97125 -2.00488,1.02625 -3.21876,2.35 -3.47738,5.26625 -0.10888,1.22875 -0.11375,1.515 -0.0482,2.86625 z" />
</svg>
