<?xml version="1.0" encoding="UTF-8" standalone="no"?>
<svg>
  <path
     d="m 107.75,79 c 0.3258,0.0096 0.64093,0.06875 0.96875,0.15625 0.68375,0.1825 2.6675,1.28375 2.8125,2.28125 0.0475,0.33125 0,0.71875 0,0.71875 L 106.125,82.75 c 0,0 -0.41625,-1.93125 -0.3125,-2.8125 0.0769,-0.6525 0.96009,-0.966328 1.9375,-0.9375 z m 2.15625,-4.75 c -1.28506,-0.0618 -2.57968,0.394141 -3.6875,1.5 -1.28,1.2775 -2.4025,2.865 -2.78125,3.84375 -0.46875,1.215 -0.27375,2.36875 -1.03125,3.03125 -0.4075,0.35625 -2.8225,0.68001 -3.28125,0.4375 -0.72625,-0.38375 -0.57625,-1.3025 -1.5625,-3 -1.48,-2.54625 -4.73125,-2.98 -7.03125,-1.65625 -4.52625,2.60375 -4.2425,3.28624 -6.90625,6.28125 -1.97,2.2175 -3.24624,2.845 -6,3.625 -0.58125,0.16375 -1.1975,0.33375 -1.8125,0.375 -0.81125,0.0537 -0.97,0.065 -1.78125,0.0625 -3.03875,-0.009 -7.57624,0.0387 -9.125,-0.3125 -1.40375,-0.3175 -4.77,-1.315 -5.59375,0.21875 -0.89625,1.675 0.1825,2.3 1.4375,3 8.20126,4.57375 18.39125,0.775 18.5,0.71875 0.80376,-0.41125 1.50125,-0.93875 2.03125,-1.59375 0.1375,-0.17 0.27625,-0.3525 0.40625,-0.53125 1.3325,-1.8325 6.51,-6.87999 8.9375,-7.5 2.41875,-0.6175 3.35125,0.705 4.3125,2.5625 1.7125,3.3075 4.301249,2.495 7.90625,2.4375 4.34875,-0.0712 8.52375,-0.38625 10.34375,-2.3125 1.6225,-1.71625 2.67625,-3.4325 2.5625,-4.875 -0.28187,-3.562969 -3.01662,-6.176548 -5.84375,-6.3125 z m -32.25,-25.40625 c 1.202658,-0.02046 2.38687,0.04373 2.75,0.1875 2.035,0.80625 3.9125,2.27875 4.875,4.40625 C 85.8375,54.67125 86.6875,57 86.6875,57 c 0,0 -2.29125,0.48875 -3.96875,0.78125 C 79.04624,58.4225 74.3925,58.43 70.53125,57.9375 67.9525,57.61 64.6875,57.03125 64.6875,57.03125 c 0,0 2.6325,-2.96125 4.25,-4.5 1.80375,-1.71375 3.83625,-2.74 5.8125,-3.40625 0.46875,-0.158125 1.703592,-0.260788 2.90625,-0.28125 z m 76.78125,25.125 c -3.26908,0.07382 -4.07293,13.231435 -4.125,12.5 0.19876,2.80011 1.47991,4.55998 3.8125,5.0625 3.00763,0.64878 4.72871,-1.04237 5.5,-4.40625 0.16875,-0.73753 0.12252,-1.32749 -0.34375,-1.625 -0.88628,-0.56377 -3.3237,0.01252 -4.5,-0.625 -1.46381,-0.79253 -1.83001,-4.17494 -1.46875,-5.75 0.36252,-1.57632 1.27999,-3.2537 1.53125,-4.46875 0.0513,-0.24626 0.0736,-0.46749 -0.0312,-0.59375 -0.0125,-0.0163 -0.0174,-0.0487 -0.0312,-0.0625 -0.11063,-0.02574 -0.2383,-0.03363 -0.34375,-0.03125 z m 14.75,-15.53125 c 0.63765,0.016 0.84405,0.129797 1.25,0.4375 1.42255,1.07629 1.91253,2.68121 1.09375,3.6875 -0.52502,0.64627 -2.67242,0.18132 -4.78125,-1.5625 -1.12505,-0.93128 -1.27,-1.06873 -1.28125,-1.5 l -0.0312,-0.96875 2.9375,-0.0625 c 0.32845,-0.0088 0.59995,-0.03658 0.8125,-0.03125 z M 110.5625,34.5 c -1.17982,0.0228 -2.41932,0.143428 -3.71875,0.375 -3.63765,0.64877 -6.08247,2.5161 -6.6875,6.15625 -0.398771,2.39259 -0.71875,6.625 -0.71875,6.625 0,0 8.63493,0.28505 10.34375,-0.875 1.88507,-1.28005 1.31493,-2.2825 2.90625,-2.34375 1.06754,-0.04 2.28494,0.53996 3.90625,1.5625 1.96883,1.2413 4.53125,3.15625 4.53125,3.15625 0,0 -3.13616,0.99246 -5.46875,1.96875 -6.62932,3.974375 -13.41803,8.091173 -21.3437,5.90625 -0.87501,-0.13875 -1.5875,-0.33375 -2,-0.59375 -0.5675,-0.35625 -0.47375,-1.06 -0.25,-2.125 C 92.72875,51.135 89.7175,43.4725 86.5,42.21875 84.624061,41.487732 82.839088,41.178735 81.15625,41.1875 73.863954,41.22548 68.356727,47.511328 64.3125,54.25 c -0.025,0.0412 -0.06875,0.08375 -0.09375,0.125 -2.8625,4.82501 -7.33125,-4.32875 -7.5,-6.75 -0.008,-0.1025 -0.02875,-0.17875 -0.03125,-0.28125 -0.0525,-1.97 0.195,-3.99125 -1.9375,-3.40625 -2.98001,0.81625 -10.86263,3.3425 -13.09375,5.59375 -6.274257,6.33376 -1.52887,17.43624 3.15625,22.75 0.78088,0.885 1.38538,1.47 0.90625,2.65625 -0.0802,0.19875 -0.20175,0.4175 -0.34375,0.625 -5.72388,8.38376 -35.775744,19.99499 -44.09375,23.78125 -0.33537495,0.1525 -0.582125,0.285 -0.75,0.4375 -0.594126,0.5425 -0.739375,0.9925 -0.21875,1.5625 C 0.644126,101.70625 1.049,101.91 1.5,102 c 8.894257,1.7575 27.30687,-5.70625 34.40625,-10.28125 12.325007,-7.94 19.93763,-19.60499 9.90625,-34.03125 -0.76376,-1.47 -1.375,-2.65625 -1.375,-2.65625 0,0 0.58862,-0.31375 1.40625,-0.71875 1.57212,-0.7775 3.21375,-1.505 5,-1.53125 0.46,-0.007 0.8425,0.0087 1.09375,0.03125 0.35001,0.0312 0.84625,3.855 0.90625,4.21875 0.11375,0.7 0.245,1.34875 0.34375,1.8125 0.0812,0.37625 0.13125,0.63625 0.28125,0.90625 0.76375,1.3825 3.6075,3.17125 4.0625,4.40625 0.13,0.355 0.06375,0.66 -0.09375,1.0625 -0.59,1.50125 -2.4475,4.29375 -3.09375,6.21875 -0.26,0.7775 -0.6625,2.6775 -0.40625,3 0.3925,0.4925 1.53625,-0.96875 2.15625,-1.84375 0.98875,-1.39625 1.9425,-2.90749 2.46875,-4.4375 0.55125,-1.59625 0.555,-2.3375 1.5625,-2.71875 0.6075,-0.22875 5.51999,0.6125 8.8125,1.0625 2.72,0.3725 10.71749,5e-5 13.78125,-1.21875 0.33875,-0.13375 0.71,-0.2575 1.0625,-0.40625 L 86.5,63.71875 l 2.125,1.375 c 15.61214,5.757034 22.32228,-5.09486 32,-6.59375 1.11379,-0.10375 2.375,-0.0625 2.375,-0.0625 0,0 -0.56876,4.54615 -0.40625,6.875 0.50377,7.19154 16.65229,6.72999 21.9375,6.96875 2.92387,0.1325 6.39119,-0.05492 7.90625,-0.8125 4.50768,-2.25509 5.4573,-5.10639 10.3125,-1.75 3.53389,2.44134 6.45734,5.87381 10.46875,4.21875 3.44889,-1.42381 6.73003,-10.47236 6,-13.96875 -0.32501,-1.55756 -1.16498,-3.24743 -1.625,-5.03125 C 176.4062,50.33481 177.4652,48.96001 172.5,48.75 c -3.94016,-0.16501 -6.32612,0.46117 -9.53125,2.5 -1.85008,1.1763 -4.14496,2.86119 -5.0625,4.46875 -2.04508,3.5839 -0.59609,4.98995 -4.5,6.125 -3.14388,0.91378 -18.17737,-0.24247 -21.375,-0.9375 -1.33756,-0.29001 -6.1638,-2.23743 -4.875,-4 0.59627,-0.81628 4.33247,-1.62125 5.09375,-1.71875 4.54893,-0.57627 12.78125,0 12.78125,0 0,0 0.65496,-3.19488 1.75,-6.1875 L 148.1875,45.1875 143,45.34375 c -0.63753,0.0188 -1.36998,0.03995 -2.03125,0.03125 -2.61011,-0.0375 -5.40366,-0.78121 -7.59375,-1.90625 C 124.54152,38.938254 118.82126,34.340372 110.5625,34.5 z m -42.125,-8.15625 -6.375,6.375 6.375,6.375 6.375,-6.375 -6.375,-6.375 z M 124.5,11.6875 c -3.53449,0.08398 -6.63,1.16253 -8.0625,3.9375 0.29875,14.12626 0.70749,6.03375 4.875,5.03125 4.63625,-1.11625 9.60625,-3.59625 4.3125,2.03125 l -6.09375,6.0625 c -1.01375,1.0075 -1.15375,1.1925 -1.4375,1.8125 -0.3975,0.86875 -0.53875,2.33375 -0.34375,2.53125 0.63125,0.6375 2.87874,-0.9275 3.65625,-1.5 6.81125,-5.02376 9.89875,-8.1825 11,-14.6875 0.56,-3.30626 -1.18375,-4.5775 -4.28125,-5 -1.22875,-0.167188 -2.44684,-0.246742 -3.625,-0.21875 z M 130.21875,0 c 0,0 -1.69125,0.06875 -3.34375,0.1875 -0.14,0.01 -0.77625,0.195 -1.75,0.53125 -10.96626,3.78625 -41.14625,14.2125 -43.53125,21.0625 -0.6875,1.9725 -0.7375,4.64375 0,6.125 0.465,0.93501 2.735,3.81 3.125,4.03125 0.63625,0.36 1.105,0.26 1.4375,-0.125 2.01875,-2.33375 0.85625,-4.68125 -0.6875,-6.28125 -0.10375,-0.10625 -0.2,-0.2275 -0.28125,-0.34375 -0.055,-0.0775 -0.11,-0.13875 -0.15625,-0.21875 -2.2525,-3.9675 23.6675,-13.5525 25.4375,-14.09375 0.54125,-0.16625 1.0275,-0.2875 1.4375,-0.375 0.5225,-0.11125 0.6175,-0.02005 0.34375,0.6875 -0.26625,0.69 -0.7375,1.33875 -1.1875,2.0625 -1.45625,2.34376 -1.4475,2.7925 -1.71875,4.4375 -0.0625,0.37625 -0.15375,0.85125 0,0.90625 0.0787,0.0288 0.235,-0.0525 0.3125,0 0.05,0.035 0.0488,0.1325 0.0937,0.1875 0.0987,0.12375 0.305,0.06245 0.5,-0.03125 0.385,-0.1875 1.31,-1.83875 2.1875,-3.40625 2.14125,-3.82751 7.56249,-9.00375 12.375,-9.25 0.13375,-0.006 0.25875,-0.0152 0.40625,0 1.3013,0.14125 1.5438,0.4875 1.9688,-0.09375 0.975,-1.33375 3.03125,-6 3.03125,-6 z M 52.03125,0 C 46.985632,0.41119396 46,9.2070313 46,12.1875 L 46,13 c 0,0 -0.29425,0.03 -0.5,0 -0.34463,-0.0513 -0.49675,-0.26625 -0.65625,-0.5 -0.66213,-0.975 -2.16187,-5.15625 -4.40625,-6.875 -2.714,-2.07625 -6.786374,1.7 -7.21875,4.375 -0.6085,3.765 4.618875,6.305 6.9375,4.71875 1.39075,-1.65626 2.63437,-0.19625 3.65625,1.5 0.494103,0.820595 1.407088,2.379885 2.5625,3.25 C 36.372724,24.81082 27.793158,30.573185 24.53125,36 c -0.27975,0.465 -0.5125,0.91875 -0.65625,1.34375 -1.128126,3.33625 -0.499127,5.1075 2.3125,6.9375 1.349501,0.8775 2.423625,1.7725 3.09375,0.5625 0.0075,-0.0125 0.916625,-3.02999 0.75,-3.71875 C 29.9065,40.61 29.134875,40.0925 28.4375,39.71875 27.443499,39.185 26.99675,38.96 27.3125,38.125 27.395,37.90625 27.6,37.64 27.875,37.34375 34.36313,30.365 53.76625,20.2825 65.125,14.90625 c 5.25376,-2.48626 8.68375,-4.88876 4.96875,0.75 -0.98,1.49 -1.8925,2.95125 -2.125,3.6875 -0.0537,0.17 -0.635,2.69625 -0.4375,3 0.50625,0.7825 2.16625,-1.495 2.59375,-2.0625 0.26125,-0.3475 0.51125,-0.6525 0.75,-1 0.24,-0.3525 0.4725,-0.74875 0.6875,-1.15625 2.56625,-4.83751 3.88374,-7.6275 9.34375,-9.78125 2.395,-0.945 6.0875,-1.73 7.25,-3.3125 0.89,-1.2125 1.9175,-2.8775 2.0625,-3.625 C 90.28125,1.08125 90.3125,0.75 90.3125,0.75 l -0.28125,0 c 0,0 0.0662,-0.42749 0,-0.625 -0.0913,-0.2675 -0.575,-0.0925 -1.0625,0.125 -7.313099,3.265102 -23.859045,9.6733973 -38.53125,17.09375 -0.04456,-0.574334 -0.15452,-1.169125 -0.28125,-1.6875 -1.00875,-4.11876 -3.27187,-6.58875 1.875,-6.3125 0.60376,0.0325 0.7875,0.0265 1.25,-0.15625 0.52875,-0.20875 1.78,-1.17125 1.875,-1.28125 0.8775,-1.02 0.99375,-5.38875 0.75,-6.09375 C 55.6625,1.10625 55.105,0.64875 54.4375,0.40625 53.542405,0.08187375 52.752053,-0.05874199 52.03125,0 z"
     style="fill:#000000;stroke:none" />
</svg>
