<?xml version="1.0" encoding="UTF-8" standalone="no"?>
<svg>
  <path
     d="m 177.9091,18.909629 -0.16369,-3.73625 c -0.065,-1.50949 -0.0437,-1.78065 0.21867,-2.70534 0.19369,-0.68602 0.39987,-1.43702 0.91969,-1.92061 1.26958,-1.1783496 4.41103,-0.7709896 5.86804,-1.7419096 2.09804,-1.39828 2.09929,-6.20042 0.48483,-8.14726997 -1.71067,-2.06306003 -5.17076,1.21458997 -6.58904,3.09020997 -0.87095,1.15212 -1.69568,2.47167 -2.06555,4.01241 -0.17245,0.71351 -0.26741,1.52449 -0.40237,2.23425 l -0.65853,3.4750796 -2.17302,-2.76657 c -2.9765,-3.9186896 -2.06806,-5.0832896 -6.44034,-6.1491896 -1.46576,-0.35738 -4.64219,-0.22367 -5.25324,1.42577 -0.47734,1.29082 0.64353,4.4297696 1.34705,5.1757696 0.53982,0.57231 2.72783,1.99433 3.63253,2.0818 1.47576,0.1437 4.49349,-0.756 4.49349,-0.756 0,0 2.43669,3.50633 3.92369,5.15203 0.64853,0.71851 1.18585,1.29706 2.01807,1.31206 0.34364,0.007 0.83972,-0.0362 0.83972,-0.0362 z m -83.93311,0 -0.16244,-3.73625 c -0.0662,-1.50949 -0.045,-1.78065 0.21742,-2.70534 0.19494,-0.68602 0.39987,-1.43702 0.92094,-1.92061 1.26833,-1.1783496 4.41103,-0.7709896 5.86804,-1.7419096 2.09679,-1.39828 2.09804,-6.20042 0.48483,-8.14726997 -1.71192,-2.06306003 -5.17201,1.21458997 -6.59029,3.09020997 -0.8697,1.15212 -1.69443,2.47167 -2.06555,4.01241 -0.17245,0.71351 -0.26741,1.52449 -0.40112,2.23425 l -0.65853,3.4750796 -2.17427,-2.76657 C 86.43977,6.7849394 87.34696,5.6203394 82.97468,4.5544394 c -1.46576,-0.35738 -4.64219,-0.22367 -5.25324,1.42577 -0.47734,1.29082 0.64478,4.4297696 1.34705,5.1757696 0.53982,0.57231 2.72783,1.99433 3.63253,2.0818 1.47701,0.1437 4.49474,-0.756 4.49474,-0.756 0,0 2.43544,3.50633 3.92244,5.15203 0.64978,0.71851 1.18585,1.29706 2.01932,1.31206 0.34364,0.007 0.83847,-0.0362 0.83847,-0.0362 z m 31.83808,27.45704 0.65228,-0.0125 c 0.29365,-0.005 0.37112,-0.18244 0.78598,-1.78315 2.38296,-9.19817 2.81781,-14.27772 -3.04397,-20.17699 -0.96468,-0.97217 -2.0893,-1.7869 -2.81406,-0.91594 -0.49109,0.59105 -0.99342,4.7609 -0.76974,5.67185 0.39237,1.59196 1.55448,2.10929 2.89528,3.19018 3.03023,2.44293 3.78873,4.27481 3.40385,7.52872 -0.29615,2.49667 -1.10962,6.49782 -1.10962,6.49782 z m -59.61502,-35.34814 -6.0992,6.05921 c -1.01341,1.00717 -1.15711,1.18711 -1.44077,1.80815 -0.39736,0.86846 -0.53482,2.32047 -0.33988,2.51665 0.63228,0.63854 2.86529,-0.90969 3.64252,-1.48325 6.80897,-5.02082 9.91168,-8.1835 11.01256,-14.6863196 0.55857,-3.30515 -1.19085,-4.58346997 -4.28731,-5.00582997 -4.91335,-0.66852 -9.78797,0.0163 -11.69608,3.71375997 0.2974,14.1227596 0.71726,6.04672 4.88336,5.04456 4.6347,-1.11588 9.61803,-3.59255 4.3248,2.0330696 z m 70.39265,69.9328 -6.21041,6.20917 6.21041,6.20917 6.20917,-6.20917 -6.20917,-6.20917 z m -36.11664,-52.76481 -6.21042,6.21042 6.21042,6.20917 6.20917,-6.20917 -6.20917,-6.21042 z m -16.36576,41.19619 -6.20917,6.20917 6.20917,6.20916 6.20917,-6.20916 -6.20917,-6.20917 z m -13.96657,22.43498 4.09113,4.09237 6.20917,-6.21041 -6.20917,-6.20917 -4.09113,4.09113 -4.09238,-4.09113 -6.20916,6.20917 6.20916,6.21041 4.09238,-4.09237 z m 90.80456,7.96732 c -0.36113,-0.065 -0.78474,-0.0837 -1.2096,-0.0712 -6.95267,0.22242 -5.00207,-7.4625 -3.26015,-11.98973 0.30739,-0.80098 0.77099,-1.97059 0.59855,-2.26924 -0.11746,-0.20368 -0.53108,-0.0787 -0.87846,0.1587 -0.17744,0.11996 -0.46609,0.62729 -0.77849,1.30581 -2.08805,4.53348 -6.94392,17.420411 2.24175,18.692481 0.14995,0.0212 0.29365,0.0375 0.42611,0.0462 1.18835,0.0862 6.17168,-5.27074 2.86029,-5.873041 z m 30.49977,-34.36222 c -1.41702,-0.43361 -3.76249,-1.28957 -4.56222,-1.90187 -0.40236,-0.30864 -0.57356,-0.7335 -0.31739,-1.22709 0.41236,-0.79598 3.00149,-1.48075 4.01115,-1.53573 0.79474,-0.0437 1.88687,0 1.88687,0 0,0 -0.0537,0.23867 -0.11746,0.57106 -0.34114,1.7894 3.92368,5.57188 -0.90095,4.09363 z m -32.60157,5.36945 c 4.82588,5.68684 13.79788,7.20758 20.1295,2.84154 2.04682,-1.41202 2.53041,-2.15428 4.39228,-1.51324 0.99842,0.34363 2.19926,0.98967 3.52007,1.56448 0.54107,0.23617 3.09146,1.21584 4.90586,1.67693 2.87903,0.72976 4.54722,-3.52881 5.55688,-5.69434 1.91061,-4.10112 2.85904,-8.34595 0.32489,-12.43333 -0.28615,-0.46109 -0.48233,-0.99217 -0.49108,-1.41702 -0.0462,-2.37671 1.19335,-3.08772 0.2949,-3.78873 -1.79065,-1.39829 -4.13986,-0.88846 -6.32913,0.04 -4.18609,1.77316 -10.06912,7.77365 -11.47365,12.01972 -0.46235,1.40078 -0.68852,2.05931 -1.66069,2.43419 -0.21243,0.0825 -0.43861,0.15494 -0.67478,0.21742 -4.85587,1.29707 -11.79354,-0.28115 -15.17116,-4.46475 -5.07705,-6.28789 -5.98175,-53.5320496 -5.28948,-60.4359896 0.33114,-3.30389 -2.20926,-1.83312997 -4.31855,1.85438 -2.18177,3.81372 -1.13087,7.4837396 -0.67602,11.7010796 3.66252,33.91738 1.96559,49.5109 6.96016,55.39768 z M 0,68.440519 6.88519,82.490809 c 1.25083,2.06931 2.46667,3.95368 3.69751,5.6731 14.22773,19.864591 45.28107,19.843351 66.28528,14.371431 2.03681,-0.53107 4.03115,-1.12587 5.9555,-1.78315 20.36067,-6.956421 20.83177,-13.819121 24.09692,-26.091251 1.04715,-3.93118 1.24333,-2.75783 5.25324,-2.12304 6.65027,1.0534 12.72198,-0.10122 19.19107,-2.41294 4.61595,-1.64945 7.87611,-2.66786 13.66416,-1.67319 1.49575,0.25616 3.12646,0.62229 3.12646,0.62229 0,0 3.54881,-7.18759 3.54881,-7.19134 0.51482,-1.60821 -2.04182,-1.98558 -4.06614,-2.72533 -2.13179,-0.78099 -3.03273,-1.62071 -4.41727,-3.50633 -1.25083,-1.70318 -2.27674,-3.06772 -3.24516,-4.1611 -3.75749,-4.24233 -12.13093,-5.80931 -17.01929,-2.31423 -0.87346,0.62354 -1.61946,1.41828 -2.15428,2.4042 -0.69352,1.27957 -1.3633,3.17643 -1.46701,4.91335 -0.17244,2.89153 4.84338,2.11804 2.13053,2.14553 4.3348,-0.0437 11.00631,-2.40919 13.86036,0.53107 0.61229,0.62979 1.10588,1.20585 1.10588,1.20585 0,0 -0.38113,0.20493 -1.03716,0.52107 -5.59687,2.6966 -12.45957,4.59846 -18.71997,3.52007 -5.5069,-0.94843 -10.2753,-4.19484 -12.87818,-10.91759 -0.73101,-1.88561 -1.30206,-3.18268 -2.25175,-1.54698 -1.58696,2.73658 -2.76157,6.13794 -2.56664,8.39094 0.0163,0.18744 0.0412,0.39737 0.075,0.62604 0.25991,1.76191 0.87346,3.85246 1.59946,5.973 0.69352,2.02557 1.28207,4.50599 1.50325,7.07637 1.00466,11.70108 -9.55055,17.10927 -20.54811,19.72839 -9.76173,2.32547 -22.33876,4.10737 -34.62214,3.10146 -11.97099,-0.98092 -24.69797,-4.9246 -33.00269,-13.7354 L 0,68.440519 z m 34.90205,-12.43208 c -0.0387,0.16245 -0.0975,0.37738 -0.18369,0.68852 -0.13246,0.47734 -0.26866,0.97592 -0.40612,1.4895 -3.52006,13.14185 -5.77306,31.14831 14.40018,30.76344 1.27582,-0.0237 2.80781,-0.21743 4.42976,-0.57231 4.82214,-1.05465 8.12978,-2.43918 10.75515,-5.48441 1.61445,-1.87312 6.15168,-9.74923 5.07579,-12.47957 -1.14836,-2.91152 -6.16168,-3.1377 -9.29063,-2.83155 -1.24958,0.12246 -2.5354,0.25492 -3.83621,0.18369 -1.35205,-0.075 -2.03182,-0.34738 -1.69569,-1.33955 0.0625,-0.18744 0.18494,-0.39362 0.34864,-0.61105 2.15677,-2.85654 9.70174,-7.82362 13.23056,-8.29846 0.13995,-0.0187 0.28366,-0.035 0.42861,-0.0512 0.55231,-0.0575 0.95843,-0.007 1.04715,0.23118 0.0537,0.1412 0.21367,0.56231 0.4411,1.14461 1.88687,4.82338 3.88495,10.49898 10.38277,9.16693 5.47191,-1.12088 7.81738,-6.09921 9.51556,-11.23498 0.11371,-0.34364 0.1437,-1.05715 0.10496,-1.90936 -0.11621,-2.5379 -0.84472,-5.17327 -1.51199,-7.6112 -0.98717,-3.61004 -2.19427,-7.46125 -2.57914,-8.03731 -0.48858,-0.731 -1.46825,-0.2949 -2.41544,0.62729 -1.51324,1.47201 -2.48166,4.24233 -2.45043,6.1267 0.0213,1.32705 0.51358,3.05022 1.17961,4.7759 0.79223,2.05431 2.63412,5.64935 1.45826,7.70116 -1.01341,1.76941 -2.26049,1.90936 -3.45884,1.33706 -2.92652,-1.39829 -4.75591,-5.44318 -5.70309,-7.64619 -0.37487,-0.87096 -0.7385,-1.73692 -1.05589,-2.47667 -0.34489,-0.80223 -0.4611,-0.90095 -1.16836,-0.99092 -0.4561,-0.0562 -0.96218,-0.025 -1.49575,0.075 -0.51733,0.0962 -1.0434,0.22992 -1.57572,0.39736 -8.28098,2.61038 -16.96431,12.15218 -18.78745,20.55561 -0.18869,0.86846 -0.28116,1.75316 -0.22993,2.58164 0.30865,4.97208 5.91052,4.15985 9.22191,4.11112 1.70318,-0.0237 5.13578,0.08 1.86063,1.24833 -6.86895,2.45043 -13.89035,4.0149 -20.35943,-0.80598 -5.42443,-4.04239 -4.98832,-10.46774 -4.16235,-16.88684 0.009,-0.0637 0.0162,-0.12621 0.025,-0.18869 2.33172,-16.09335 -1.53948,-3.74874 -1.53948,-3.74874 z m 32.62156,-21.74021 c -1.01216,4.11237 0.82972,6.88019 4.53973,8.28972 0.79348,0.30115 1.16461,0.03 1.55198,-1.13587 0.2949,-0.88845 0.2949,-3.53381 0,-3.84746 -0.34114,-0.36238 -0.93094,-0.22492 -1.76941,-0.54731 -0.99092,-0.37988 -1.4745,-0.88721 -1.1796,-1.75817 0.025,-0.0775 0.0575,-0.15119 0.0937,-0.22242 3.13644,-6.04422 42.90686,-21.79644 48.36003,-23.30594 0.95343,-0.26366 1.09338,0.12621 -0.67102,2.56164 -0.1662,0.22868 -0.3199,0.43861 -0.43736,0.63354 -4.01615,6.66777 3.33139,1.21459 4.16111,0.74225 3.01774,-1.71567 6.95891,-3.85246 10.05538,-5.34945 5.60812,-2.7090896 4.93709,-2.1630296 6.33037,-5.4369296 1.33831,-2.08805 3.28515,-5.00331997 1.55698,-4.88835997 -0.44235,0.03 -1.01966,0.1362 -1.70193,0.30365 -0.26491,0.025 -0.5748,0.0687 -0.92594,0.1312 C 126.5613,2.3614294 99.61033,13.495199 89.69491,18.191119 c -10.64643,5.04206 -19.31478,10.16909 -21.27787,13.92283 -0.41361,0.70976 -0.71476,1.42827 -0.89345,2.15428 z m 128.32073,-24.22813 -0.25992,6.01424 c -0.0387,0.88845 -0.0312,1.02465 0.0675,1.36954 0.38362,1.33705 1.21335,1.1871 1.36454,1.0409 0.46985,-0.45735 -0.0625,-2.21176 0.14121,-3.67627 0.0937,-0.66977 2.24674,-3.75749 3.35012,-4.8021396 1.26208,-1.1971 4.29856,-3.92868 4.87462,-5.83679 0.16744,-0.55357 0.18619,-0.71351 0.18619,-1.60321 0,0 0,-2.52915997 0,-2.52915997 0,0 -0.61855,-0.035 -1.11213,-0.005 -1.04965,0.0637 -15.48356,7.97606997 -16.36701,8.47464997 -5.02707,2.8303096 -10.2903,6.0504796 -14.21524,9.1994196 -4.99082,4.00366 -8.98573,8.87702 -5.42568,15.73722 0.035,0.0675 0.0712,0.13246 0.10872,0.19369 0.74475,1.23833 2.969,2.79156 3.39136,2.30673 0.19868,-0.22868 0.22742,-3.42136 -0.14745,-4.3298 -0.1662,-0.40237 -0.4461,-0.73601 -0.77724,-1.04465 -0.96843,-0.9022 -1.49325,-1.14587 -1.24708,-2.01183 1.73442,-6.08546 19.80336,-15.96714 24.76669,-17.97772 0.77724,-0.3149 1.30082,-0.51983 1.30082,-0.51983 z"
     style="fill:#000000;stroke:none" />
</svg>
