<?xml version="1.0" encoding="UTF-8" standalone="no"?>
<svg>
  <path
     d="m 70.083857,40.34155 0.015,1.62502 c 0,0 -1.14126,0.0787 -2.03126,0.0175 -0.89001,-0.0612 -5.45879,-1.93002 -6.87256,-2.85127 -1.1525,-0.75126 -1.28125,-0.85501 -1.2825,-1.03751 l -10e-4,-0.2025 c -0.002,-0.18251 0.1125,-0.27501 1.14375,-0.92501 3.19878,-2.01752 7.46256,-1.22626 8.75007,1.90001 0.245,0.59626 0.2725,0.74251 0.27875,1.47376 z M 2.4183498,23.66768 0.69082978,29.79897 c -0.41875,3.65378 -0.82875,8.36632 -0.64625,11.66134 0.435,7.88256 3.67253002,13.83136 11.17633022,12.6951 4.728787,-0.71626 4.676287,-1.90377 11.025087,-6.17255 2.97877,-2.00251 6.76505,-5.25004 7.24755,-6.3488 1.44751,-3.28627 2.39752,-7.0613 2.39752,-7.0613 0,0 1.03751,4.82004 2.20377,8.60257 1.58126,5.12503 4.10503,5.80504 9.10132,6.86005 1.50626,0.3175 7.47755,-0.45126 8.18256,-1.05376 1.49251,-1.27626 2.89877,-3.48253 2.89877,-3.48253 l 13.08135,5.53005 c 1.26251,0.53375 1.46376,0.6 2.01127,0.6575 2.28376,0.24125 5.69879,-2.24877 6.62255,-3.17252 0.90625,-0.90751 2.68877,-5.39129 2.73252,-6.87756 0.0462,-1.55626 -2.44252,-9.53632 -3.39503,-10.88383 -1.63876,-2.31752 -5.01754,-3.62628 -8.23881,-2.97377 -1.26376,0.25625 -12.33384,4.93504 -13.0401,6.6963 -0.36875,0.91876 0.0613,2.20002 -0.23375,3.23752 -0.98501,3.47253 -9.31757,3.84878 -12.6751,1.71377 -2.61252,-1.66002 -4.20128,-5.8238 -4.89878,-8.84007 -0.40126,-1.73126 -0.74751,-4.09753 -0.91251,-5.9913 C 34.619837,16.44637 33.583577,11.94259 29.838557,5.37754 28.266037,2.62002 25.983527,0 25.983527,0 c 0,0 -0.82751,1.59001 -1.40126,3.02377 -0.73501,1.83251 -1.98377,8.05506 -0.69626,9.20882 0.32,0.28625 0.84626,0.54125 1.25001,0.86876 1.01626,0.8225 7.51131,14.81261 6.32005,19.15139 -0.006,0.0237 -0.0125,0.0475 -0.02,0.0712 -0.2575,0.86126 -10.77883,9.37257 -13.1051,10.60133 -4.22253,2.23127 -8.053807,3.56503 -11.6713372,0.35626 -2.03377,-1.80377 -3.74128,-8.29007 -4.18003,-13.44386 l -0.0612,-6.17004 z"
     style="fill:#000000;stroke:none" />
</svg>
