<?xml version="1.0" encoding="UTF-8" standalone="no"?>
<svg>
    <path
       style="fill:#000000;stroke:none"
       d="m 67.95127,55.425535 0.5925,-0.0112 c 0.26625,-0.005 0.3375,-0.185 0.7125,-1.79625 2.1625,-9.2625 2.5575,-14.37875 -2.7625,-20.32 -0.875,-0.9775 -1.89625,-1.79875 -2.55375,-0.92125 -0.44625,0.595 -0.90125,4.79375 -0.6975,5.71125 0.355,1.60375 1.40875,2.12375 2.62625,3.21375 2.75,2.45875 3.43875,4.305 3.09,7.58125 -0.26875,2.51375 -1.0075,6.5425 -1.0075,6.5425 z m -52.83749,12.61374 -5.80412,6.3975 c -0.9645,1.06375 -1.101625,1.25375 -1.3715,1.90875 -0.378,0.9175 -0.508749,2.45 -0.323,2.65875 0.60125,0.6725 2.72675,-0.96125 3.46662,-1.56625 6.4795,-5.3025 9.43075,-8.64125 10.47825,-15.5075 0.5325,-3.48999 -1.1325,-4.83999 -4.07875,-5.28499 -4.675,-0.70625 -9.31437,0.0163 -11.130369,3.92124 0.283375,14.91 0.682625,6.38375 4.646999,5.325 4.40962,-1.1775 9.15212,-3.7925 4.11587,2.1475 z m 41.85749,-27.25624 c -0.0487,-1.32625 -0.19875,-2.99125 -0.63375,-3.41 -0.2525,-0.2425 -0.60125,-0.0662 -0.82,-0.1975 -0.98375,-0.59 0.68875,-3.02625 1.48625,-3.95625 7.2375,-8.4475 25.99249,-18.93624 35.90124,-21.10624 0.945,-0.20625 1.88875,-0.37375 2.0675,-0.0538 0.0888,0.15875 -0.0125,0.4375 -0.165,0.75375 -0.3575,0.74 -0.93,1.63625 -1.56625,2.59625 -13.19749,19.92749 7.62,-7.7275001 13.52625,-8.5037501 0.54,-0.2675 1.0475,-0.4825 1.4975,-0.62375 2.29875,-0.72375 4.7875,-0.8775 5.09,-3.08125 0.0425,-0.30875 0.0487,-0.69375 0.0375,-1.0675 -0.1,-3.61 -5.99,-1.88250004 -10.14125,-0.30375 -3.84125,1.46125 -9.54625,3.86875 -15.59875,6.66875 -7.82999,3.6225001 -31.27374,14.4975001 -34.57249,23.9424901 -1.0625,3.0425 -0.865,6.45375 1.25375,9.38625 0.0913,0.12625 0.17375,0.24 0.24875,0.34125 -0.95625,-1.29875 2.59375,4.16375 2.38875,-1.385 z m -39.88124,-21.52999 -0.16625,-3.80375 c -0.0662,-1.5375 -0.045,-1.8125 0.2225,-2.755 0.1975,-0.69875 0.4075,-1.4625 0.9375,-1.955 1.2925,-1.2000001 4.49125,-0.7850001 5.97375,-1.7737501 2.13625,-1.42375 2.1375,-6.3125 0.49375,-8.29500004 -1.7425,-2.10124996 -5.265,1.23625004 -6.70875,3.14625004 -0.88625,1.1725 -1.72625,2.51625 -2.10375,4.085 -0.175,0.7275 -0.27125,1.5525 -0.40875,2.2750001 l -0.67,3.53875 -2.2135,-2.8175 C 9.416785,6.9080449 10.34078,5.7230449 5.888911,4.6380449 c -1.49175,-0.36375 -4.726499,-0.2275 -5.34812396,1.45125 -0.486499,1.315 0.65562496,4.5100001 1.37099996,5.2687501 0.55025,0.58375 2.778124,2.0325 3.698374,2.12125 1.503625,0.145 4.576249,-0.77 4.576249,-0.77 0,0 2.47987,3.56875 3.99487,5.245 0.66,0.73125 1.2075,1.32125 2.055,1.33625 0.35,0.007 0.85375,-0.0375 0.85375,-0.0375 z m -8.98012,21.52999 c -0.04875,-1.32625 -0.1985,-2.99125 -0.634124,-3.41 -0.252625,-0.2425 -0.60125,-0.0662 -0.82,-0.1975 -0.9835,-0.59 0.689625,-3.02625 1.486874,-3.95625 7.23737,-8.4475 25.99237,-18.93624 35.90112,-21.10624 0.945,-0.20625 1.88875,-0.37375 2.06624,-0.0538 0.09,0.15875 -0.0113,0.4375 -0.16374,0.75375 -0.3575,0.74 -0.93,1.63625 -1.56625,2.59625 -13.1975,19.92749 7.61999,-7.7275001 13.52624,-8.5037501 0.54,-0.2675 1.0475,-0.4825 1.4975,-0.62375 2.2975,-0.72375 4.7875,-0.8775 5.09,-3.08125 0.0425,-0.30875 0.0475,-0.69375 0.0375,-1.0675 -0.1,-3.61 -5.99,-1.88250004 -10.14125,-0.30375 -3.8425,1.46125 -9.54749,3.86875 -15.59874,6.66875 -7.83,3.6225001 -31.273619,14.4975001 -34.572619,23.9424901 -1.063124,3.0425 -0.865374,6.45375 1.253625,9.38625 0.091,0.12625 0.173375,0.24 0.24875,0.34125 -0.956625,-1.29875 2.593499,4.16375 2.388874,-1.385 z m 62.14761,49.98249 c 0.1925,2.66125 1.43375,4.315 3.6925,4.7925 2.9125,0.61625 4.56,-0.96375 5.30625,-4.15875 0.16375,-0.70125 0.1275,-1.285 -0.32375,-1.5675 -0.85875,-0.53625 -3.215,0.02 -4.355,-0.585 -1.4175,-0.7525 -1.7775,-3.95375 -1.4275,-5.45 0.35125,-1.4975 1.24625,-3.10125 1.49,-4.25625 0.0487,-0.23375 0.0712,-0.44875 -0.03,-0.56875 -0.0125,-0.015 -0.0263,-0.03 -0.0388,-0.0425 -3.42875,-0.7825 -4.2625,12.555 -4.31375,11.83625 z m -26.06374,-53.44124 -0.65125,0.0113 c -0.84,0.015 -0.95375,0.12 -1.1325,1.05 -0.0787,0.4075 -0.3125,1.03 -0.575,1.63125 -1.53125,3.50125 -3.35625,2.69125 -4.67125,0.105 -1.19875,-2.35875 -2.64,-4.96875 -2.87625,0.2675 -0.095,2.1 0.14,6.10375 1.75875,7.19375 1.7325,1.1675 4.4175,0.26125 6.0925,-0.87 0.395,-0.26625 0.74625,-0.57625 0.9375,-0.97125 0.10875,-0.225 0.16625,-0.47875 0.20625,-0.72875 l 0.23625,-1.465 1.6325,0.185 c 0.2975,0.0325 0.6075,0.0613 0.90624,0.0487 1.03875,-0.0462 1.84,-0.5475 2.43875,-1.28875 2.72375,-3.36625 1.465,-7.43125 -0.66875,-10.2925 -1.59875,-2.14125 -4.29499,-5.5 -1.6575,1.21625 0.96125,2.45 0.8125,3.85875 -1.97624,3.9075 z m 82.70372,21.74625 0,-0.3425 c 0,-0.3075 0.105,-0.40375 1.045,-0.96125 0.6975,-0.4125 1.285,-0.7625 2.26125,-0.8625 0.78625,-0.08 1.82375,0 1.82375,0 l 0,3.98999 c 0,0 -1.04125,0.0788 -1.82375,0 -0.9875,-0.0987 -1.56375,-0.44875 -2.26125,-0.86249 -0.94,-0.5575 -1.045,-0.65375 -1.045,-0.96125 z m -58.51498,1.96124 c -0.0662,-0.0113 -0.12875,-0.0225 -0.18625,-0.035 -1.255,-0.26125 -6.37125,-1.87249 -8.1,-3.23749 -3.86,-3.04625 -3.445,-5.47 -6.4525,-5.985 -5.18875,-0.88625 -11.23624,3.2775 -13.78249,6.27 -1.18375,1.39125 -2.14125,3.00999 -2.85,5.69999 -0.38875,1.4775 -0.7575,3.36875 -0.7575,3.36875 0,0 -4.33625,-12.01499 -7.79125,-19.32874 -1.0375,-2.19375 -5.72375,-11.74875 -9.975,-11.96875 -0.51125,-0.0275 -1.14,0 -1.14,0 l -0.45875,7.04875 c -0.1,1.535 -0.0837,1.875 0.16875,3.4 0.80375,4.87 1.7675,4.93875 4.565,7.22 2.965,2.41875 6.40875,10.10624 6.555,12.53999 0.41,6.87625 -6.11375,17.04875 -12.54,20.235 -3.51812,1.74375 -6.93912,0.4375 -9.974744,-3.135 -1.652,-1.945 -2.109999,-4.64 -2.423749,-8.43875 -0.127125,-1.53625 -0.13225,-1.87875 -0.05225,-3.415 l 0.481,-9.23625 -0.912375,0 c -0.41,0 -0.5005,0.165 -0.9055,1.6525 -2.27962396,8.37125 -2.68512396,15.9075 0.108,24.28125 0.80375,2.41125 3.011249,4.9075 5.797373,6.67875 1.715125,1.09125 3.936875,1.26 6.169745,0.8125 4.51125,-0.905 14.70625,-11.19625 16.2175,-15.37375 0.59875,-1.655 0.99,-3.25375 1.17,-4.37125 0.37,-2.305 0.67875,-5.28375 0.67875,-5.28375 0,0 1.27125,3.57875 2.45625,6.13875 3.19,6.89875 9.00375,12.98375 16.18749,13.39375 2.45125,0.14 6.1225,0 6.1225,0 0,0 -0.965,-2.3425 -0.65125,-4.55875 0.33375,-2.35125 2.105,-4.56 2.105,-4.56 l -4.96625,0 c -1.53875,0 -1.8775,-0.0388 -3.38375,-0.3875 -5.26874,-1.22125 -8.97374,-5.855 -10.28499,-11.12625 -0.585,-2.35375 0.12,-3.00875 2.51375,-5.08 3.14625,-2.72125 6.34874,-5.03999 9.64999,-3.35625 1.86,0.9475 3.23375,3.44125 5.15375,5.15125 2.75875,2.45625 6.42875,3.66625 10.3575,4.11875 5.2775,0.6075 12.52875,-2.4475 14.7675,-4.99125 0.68125,-0.77375 1.34749,-1.62125 2.19249,-2.35125 1.24,-1.07 6.02375,-4.10874 8.08875,-4.20749 0.5325,-0.025 1.14,0 1.14,0 0,0 -0.1125,2.52874 0,4.10374 0.20375,2.84875 3.3475,6.25125 6.27,7.58125 0.95125,0.4325 2.6875,0.71125 4.7275,0.855 l -0.0275,0.0912 c 4.25375,0.12875 9.1375,-0.235 11.0875,-0.94625 3.69375,-1.34625 4.65499,-3.0025 7.29624,-2.565 3.29375,0.545 10.62125,3.9275 10.62125,3.9275 0,0 2.6725,-5.585 4.5975,-8.4875 1.35,-2.03625 1.815,-2.42 1.425,-4.44624 -0.3275,-1.6975 -1.7825,-5.1175 -1.49125,-7.04375 0.1175,-0.78125 0.515,-1.36375 0.35125,-1.8475 -0.4075,-1.20375 -3.63125,-1.69625 -5.13,-1.4825 -4.72,0.675 -11.88,5.90625 -13.395,9.12 -0.76624,1.62625 -0.95749,3.40749 -1.99499,4.27499 -0.70375,0.59 -5.33875,0.93375 -8.89375,0.97875 l 0.002,-0.009 c -0.75,-0.0175 -1.37,-0.0562 -1.77875,-0.115 -2.70375,-0.39 -3.9425,-1.185 -5.75125,-2.48249 -0.31375,-0.22625 -0.5925,-0.4225 -0.78,-0.91375 -0.1975,-0.51625 -0.29625,-1.3575 -0.29625,-1.3575 l 11.60375,-1.3225 c 1.52875,-0.17375 1.7175,-0.31125 1.88375,-1.36875 0.12375,-0.78375 0.38375,-1.6 0.76125,-2.245 0.63875,-1.08625 1.615,-1.69 2.03625,-3.32125 0.16375,-0.6375 0.24375,-1.4325 0.24375,-1.4325 0,0 -6.74125,-1.375 -10.82875,-2.37125 -2.54375,-0.61875 -4.06,-1.09125 -5.7,-1.995 -3.03125,-1.6675 -6.29875,-4.67 -9.72625,-5.90625 -7.78875,-2.81 -14.47624,2.105 -12.60374,1.19625 -0.745,0.36125 -1.435,0.76375 -1.895,1.29125 -0.4125,0.4725 -1.3375,3.5225 -1.425,5.41375 -0.0375,0.83625 0,1.995 0,1.995 0,0 2.81125,0.20125 5.01625,0 2.59125,-0.23625 4.34249,-1.0275 5.69874,-1.505 0.43,-0.15125 0.82125,-0.27125 1.36875,-0.205 2.19625,0.26875 6.91625,3.5375 6.91625,3.5375 0,0 -3.51,1.5125 -5.89,3.0175 -3.80875,2.41 -4.81,4.85 -7.97999,6.27 -2.5775,1.155 -7.12625,1.82499 -11.3775,2.13249 z m 65.67623,-52.1962301 0,1.2700001 c 0,0 -1.02,0.0962 -1.82375,0 -0.36625,-0.0438 -2.595,-1.0400001 -3.14125,-1.8437501 -0.14875,-0.2175 -0.165,-0.305 -0.165,-0.87625 l 0,-1.27 1.52125,0 c 0.6825,0 0.81875,0.0225 1.36125,0.22 0.64,0.23375 1.5175,0.8725 1.915,1.41375 0.29875,0.4075 0.3325,0.51625 0.3325,1.08625 z M 108.56001,26.526785 c -5.3225,2.00875 -10.18625,3.73875 -12.525,4.5525 -1.45375,0.50625 -1.63,0.64625 -1.765,1.39625 -0.0937,0.52625 -0.3025,1.0625 -0.5375,1.515 -0.5225,1.00875 4.86125,0.0613 9.06875,-0.80375 2.165,-0.445 4.555,-1.16125 6.99375,-2.0225 5.70625,-2.015 16.92624,-7.97124 22.11249,-12.90874 0.7875,-0.75 1.67125,-1.5925 1.67125,-1.5925 l 1.905,1.9925 c 1.07125,1.16375 3.84375,8.20124 3.705,9.40499 -0.15625,1.35 -0.7775,2.455 -1.14,3.99 -0.32,1.355 -0.915,5.6575 -0.57,5.985 0.51625,0.49 4.49625,-0.94 5.5375,-1.67375 1.16375,-0.82 2.86875,-2.82375 3.0125,-4.4825 0.0662,-0.77 0,-1.82375 0,-1.82375 l -3.99,0.57 c 0,0 0.19,-4.09875 0,-7.42124 -0.12,-2.10125 -2.31,-8.46125 -3.135,-9.10875 -0.8775,-0.6875 -1.95375,-1.04 -2.32375,-1.95125 -0.72125,-1.77625 1.2425,-5.6737501 0.89875,-8.1262501 -0.35875,-2.55125 -4.0775,-5.0225 -7.03375,-3.60125004 -1.90625,0.91500004 -4.1825,7.35250004 -4.36625,9.68875014 -0.0813,1.03625 0.1075,1.95 1.14,3.23 0.8025,0.99625 2.11375,2.21375 2.11375,2.21375 0,0 -4.02625,2.85 -7.24375,4.81625 -2.63625,1.61125 -7.96124,3.89624 -13.60124,6.12624 l 0.0725,0.035 z" />
</svg>
