<?xml version="1.0" encoding="UTF-8" standalone="no"?>
<svg>
  <path
     style="fill:#000000;stroke:none"
     d="m 41.071267,45.323719 c -0.04875,-1.47375 -0.19875,-3.32375 -0.635,-3.79 -0.2525,-0.26875 -0.6025,-0.07375 -0.82125,-0.21875 -0.98625,-0.65625 0.69,-3.3625 1.49,-4.3975 7.2525,-9.3875 26.04875,-21.04375 35.97875,-23.455 0.94625,-0.23 1.8925,-0.41625 2.07125,-0.06125 0.08875,0.1775 -0.01125,0.4875 -0.16375,0.8375 -0.35875,0.8225 -0.9325,1.81875 -1.57125,2.88625 -13.225,22.14625 7.6375,-8.5875001 13.55625,-9.4512501 0.54125,-0.29625 1.05,-0.535 1.50125,-0.6925 2.3025,-0.805 4.7975,-0.975 5.10125,-3.42375 0.04125,-0.34375 0.04875,-0.77125 0.0375,-1.1875 -0.1,-4.01125 -6.00375,-2.0925 -10.16375,-0.3375 -3.85,1.625 -9.5675,4.3 -15.6325,7.4125 -7.84625,4.0250001 -31.34125,16.1100001 -34.6475,26.6075001 -1.06625,3.38125 -0.8675,7.17125 1.25625,10.43125 0.09125,0.14 0.17375,0.26625 0.24875,0.38 -0.95875,-1.44375 2.59875,4.62625 2.39375,-1.54 z m -22.76625,-23.92625 -0.16625,-4.2275 c -0.06775,-1.70875 -0.0455,-2.015 0.2225,-3.0625 0.1975,-0.77625 0.4075,-1.625 0.93875,-2.1725 1.295,-1.33375 4.50125,-0.8725 5.9875,-1.9712501 2.14,-1.5825 2.14125,-7.01625 0.495,-9.2175 -1.74625,-2.335 -5.2775,1.3725 -6.72375,3.495 -0.88875,1.30375 -1.73,2.7975 -2.1085,4.54125 -0.175375,0.8075 -0.272375,1.7250001 -0.4095,2.5275001 l -0.67175,3.9325 -2.21825,-3.13 c -3.03625,-4.4350001 -2.11025,-5.7525001 -6.5718751,-6.9587501 -1.494875,-0.40375 -4.73675,-0.2525 -5.35975,1.61375 -0.487625,1.46125 0.657,5.0125001 1.374,5.8550001 0.551375,0.64875 2.784125,2.25875 3.706375,2.3575 1.507,0.16125 4.5862501,-0.85625 4.5862501,-0.85625 0,0 2.485125,3.96625 4.00325,5.83 0.662375,0.8125 1.210125,1.4675 2.059625,1.485 0.35075,0.0075 0.856375,-0.04125 0.856375,-0.04125 z M 4.5307669,45.323719 c -0.049,-1.47375 -0.199,-3.32375 -0.635625,-3.79 -0.253125,-0.26875 -0.602625,-0.07375 -0.82175,-0.21875 -0.98575,-0.65625 0.691125,-3.3625 1.49,-4.3975 7.2528751,-9.3875 26.0491251,-21.04375 35.9791251,-23.455 0.94625,-0.23 1.8925,-0.41625 2.07125,-0.06125 0.08875,0.1775 -0.01125,0.4875 -0.16375,0.8375 -0.35875,0.8225 -0.9325,1.81875 -1.57125,2.88625 -13.225,22.14625 7.6375,-8.5875001 13.55625,-9.4512501 0.5425,-0.29625 1.05,-0.535 1.50125,-0.6925 2.30375,-0.805 4.7975,-0.975 5.10125,-3.42375 0.0425,-0.34375 0.0475,-0.77125 0.0375,-1.1875 -0.1,-4.01125 -6.00375,-2.0925 -10.16375,-0.3375 -3.85,1.625 -9.5675,4.3 -15.6325,7.4125 C 27.432517,13.469969 3.9371419,25.554969 0.63089187,36.052469 c -1.065375,3.38125 -0.86725,7.17125 1.25650003,10.43125 0.091125,0.14 0.17375,0.26625 0.249125,0.38 -0.958625,-1.44375 2.599125,4.62625 2.39425,-1.54 z m 99.9542531,41.24 1.4925,-0.03 0.0575,3.61875 c 0,0 -0.3925,0.025 -0.74625,0.015 -1.21125,-0.035 -3.9125,-1.53875 -3.9525,-2.25 -0.0125,-0.22125 0.77625,-0.885 1.7275,-1.15125 0.60875,-0.17 0.75125,-0.19 1.42125,-0.2025 z m -28.043753,9.735 3.47125,1.6275 c 1.78625,0.235 3.99,0.4525 5.63875,0.38 3.1075,-0.13625 8.1675,-1.42625 9.94375,-3.91875 1.58875,-2.22875 1.775,-3.17625 3.65625,-2.33375 0.928753,0.41625 2.007503,1.125 3.188753,1.59875 2.67875,1.07375 2.7225,1.06 4.5025,-1.8975 0.77625,-1.28875 1.57875,-2.2825 1.81,-3.8575 0.11375,-0.775 0.1275,-1.02875 0.1075,-2.31 -0.0637,-4.31875 -0.49625,-4.91 -4.74625,-2.64125 -0.60375,0.3225 -1.13125,0.63625 -1.34375,0.8075 -0.88375,0.71625 -1.45625,1.84375 -2.29,2.63 -0.797503,0.75375 -1.833753,1.19375 -2.536253,1.85875 -0.9975,0.94625 -1.31875,2.34625 -2.045,3.40125 -0.41,0.5975 -10.44875,2.72 -16.56625,4.02625 l -2.79125,0.62875 z m -14.76875,-63.1175 -0.65375,0.0125 c -0.84125,0.01625 -0.955,0.1325 -1.135,1.1675 -0.07875,0.4525 -0.3125,1.14375 -0.57625,1.8125 -1.53375,3.89 -3.36375,2.99125 -4.68,0.1175 -1.2025,-2.6225 -2.64625,-5.52375 -2.8825,0.29625 -0.095,2.335 0.14,6.78375 1.76125,7.995 1.7375,1.29625 4.4275,0.29 6.10625,-0.9675 0.39625,-0.29625 0.74875,-0.64 0.94,-1.07875 0.10875,-0.25125 0.16625,-0.5325 0.20625,-0.81 l 0.2375,-1.62875 1.635,0.205 c 0.29875,0.0375 0.61,0.06875 0.90875,0.055 1.04125,-0.05125 1.84375,-0.60875 2.44375,-1.43125 2.73,-3.74125 1.46875,-8.26 -0.67,-11.44 -1.60125,-2.37875 -4.30375,-6.1125 -1.66125,1.3525 0.96375,2.7225 0.81375,4.28875 -1.98,4.3425 z m -47.975375,28.8625 -5.8091251,6.39875 c -0.965375,1.06375 -1.102625,1.25375 -1.37275,1.90875 -0.37825,0.9175 -0.509125,2.45125 -0.32325,2.65875 0.60175,0.67375 2.729,-0.96 3.4695,-1.56625 6.4845001,-5.3025 9.4385001,-8.6425 10.4872501,-15.51 0.5325,-3.49 -1.13375,-4.84125 -4.083125,-5.28625 -4.6785,-0.7075 -9.3213751,0.01625 -11.1388751,3.9225 0.283625,14.91375 0.683125,6.385 4.65075,5.32625 4.4137501,-1.1775 9.1600001,-3.79375 4.1196251,2.1475 z m 108.639128,0.95375 c -0.3025,0.67 -1.00375,0.99875 -1.81875,1.0425 -0.05,0.0025 -5.72125,-1.675 -5.76875,-1.695 -0.1125,-0.045 -0.23625,-0.095 -0.37,-0.15125 -0.2425,-0.1025 -0.4575,-0.215 -0.58875,-0.32875 -0.75625,-0.65375 2.75625,-1.32875 2.9825,-1.38875 1.09875,-0.29 2.51,-0.6575 3.47,-0.5125 0.38375,0.05875 2.09375,3.03375 2.09375,3.03375 z m -117.7118781,8.5475 c 0.00537,-0.5375 0.01525,-1.5225 0.026375,-2.62875 -0.03225,3.21375 -0.535875,-16.48 -1.84575,3.8375 -0.057875,0.8975 -0.075375,1.16875 -0.075375,1.16875 -0.092,1.4275 -0.09825,2.96125 -0.06575,4.37125 0.114125,4.94875 2.121125,15.99 6.56075,18.7175 3.7667501,2.3125 7.1428751,1.56875 11.5728751,-2.2925 1.2525,-1.0925 2.14125,-2.155 2.83625,-3.2775 0.31125,-0.505 3.8225,-9.53 5.7875,-14.6525 l 1.73,-4.50625 0.83125,3.83375 c 0.235,1.08 0.485,2.125 0.74125,3.03875 0.58625,2.08875 2.505,6.50625 4.45,8.73625 3.3425,3.8325 12.9375,3.9325 16.86,3.9325 1.07375,0 1.7525,0 1.7525,0 0,0 -0.51,-5.19875 0.28625,-5.66125 0.10125,-0.06 0.28625,-0.08 0.3775,-0.255 0.14375,-0.27375 0.1225,-0.9725 0.1225,-0.9725 l 0.6425,-0.08 0,-3.64125 c 0,0 -0.6025,-0.2025 -0.88125,-0.15875 -0.21625,0.03375 -0.24,0.23375 -0.31375,0.38625 -0.24625,0.50625 -2.60125,0.27125 -4.39,0.01125 -5.16625,-0.75 -5.37375,0.07375 -8.965,-2.50875 -3.70125,-2.6625 -5.175,-7.945 -2.65875,-11.745 0.71,-1.0725 5.27125,-4.15125 6.6875,-4.51375 3.0075,-0.77 4.115,0.395 5.62125,2.81125 4.11875,6.61 13.04625,5.23375 19.86875,4.55625 6.6325,-0.65875 7.48375,-2.44375 14.02125,-9.42625 0.57125,-0.61 1.095,-1.1375 2.2125,-1.26625 0.155,-0.01875 0.32,-0.02875 0.485,-0.03375 l 1.7575,-0.055 0.1225,4.89125 c 0.02375,0.95625 0.08875,2.16 0.25,3.11875 0.91,5.39 8.19375,7.64 13.883753,5.94625 1.5625,-0.465 2.6,-1.285 4.04125,-1.67375 0.35125,-0.095 9.35625,-0.08125 10.95,1.93875 0.13375,0.17125 0.17375,0.35 0.30875,0.46875 0.4625,0.4125 2.0475,0.11375 3.07125,-0.5075 0.8625,-0.525 1.32625,-1.2775 1.6025,-2.16375 0.13999,-0.45 0.23124,-0.935 0.42374,-1.4225 0.64375,-1.635 2.41625,-3.29 3.03875,-4.86375 0.4275,-1.0775 0.315,-2.1175 -0.0425,-3.29 -0.19,-0.62125 -0.4475,-1.28 -0.65125,-1.96625 -0.75125,-2.52625 -0.76375,-5.4175 -1.4425,-7.09 -0.2925,-0.7225 -2.80499,-2.08 -3.71499,-2.0075 -1.13125,0.09 -3.45875,0.96 -5.495,1.98375 -2.01125,1.0125 -2.86,1.6275 -4.5375,3.22125 -1.71125,1.62375 -3.4975,3.63375 -3.84375,4.455 -1.0825,2.56875 -0.5925,4.06625 -3.2275,4.5125 -0.1175,0.02 -0.23,0.03875 -0.33875,0.055 -1.95125,0.30125 -8.617503,-2.63 -9.043753,-5.23875 -0.20875,-1.27875 -0.2425,-3.0775 -0.2425,-3.0775 0,0 2.26375,-1.065 4.712503,-1.63625 4.31625,-1.005 9.21125,-0.475 9.21125,-0.475 0,0 -0.0463,-2.92875 0.57125,-4.43375 0.64125,-1.5625 1.99875,-1.59125 2.21375,-3.28625 0.08,-0.635 0,-1.50375 0,-1.50375 0,0 -7.35375,-1.0775 -11.9225,-2.15375 -2.803753,-0.66125 -4.557503,-1.32125 -6.512503,-2.47625 -1.1625,-0.6875 -2.3975,-1.54875 -3.64875,-2.04375 -0.7925,-0.31375 -1.59125,-0.48125 -2.31,-0.7125 -5.38,-1.7375 -10.38,-6.08625 -17.13125,0.48375 -0.82125,0.79875 -1.44375,2.0525 -2.1025,4.25625 -1.45125,4.85375 -1.41,6.03875 2.24,5.35625 0.97125,-0.18 2.005,-0.38875 2.9175,-0.73375 1.33375,-0.50375 2.41,-1.3 3.55375,-1.77875 4.42875,-1.8525 7.4125,0.9575 12.19375,3.76 0.25625,0.15 0.285,0.185 0.29,0.34625 0.05625,1.79 -4.04,2.945 -5.815,4.36625 -1.60125,1.28125 -2.045,2.99 -3.24125,4.0375 -2.88125,2.52375 -15.92625,3.185 -19.38375,2.3225 -2.87625,-0.7175 -3.98875,-1.585 -5.91625,-4.26 -2.98375,-4.14375 -6.4825,-3.66625 -10.81,-1.11 -1.7675,1.04375 -3.32375,2.31125 -4.805,4.15625 -1.045,1.305 -3.52875,7.27125 -3.42625,8.235 0.115,1.09375 0.45625,2.43125 0,3.5625 -0.295,0.72875 -0.8425,1.59375 -0.8425,1.59375 0,0 -0.95625,-1.83 -1.51375,-3.3875 -0.08375,-0.23375 -0.15875,-0.46 -0.225,-0.6825 -1.60375,-5.3225 -1.795,-9.23 -2.72125,-13.11625 -1.02,-4.2775 -9.4325,-18.37875 -12.6625,-20.8625 -1.254625,-0.96375 -2.44375,-1.495 -3.001375,-0.995 -0.3015,0.27 -0.671125,1.32 -0.929125,2.4 -0.459,1.9225 -0.494875,5.44 0.34075,7.3125 0.0215,0.0475 0.043,0.095 0.0645,0.1425 0.960125,2.08875 1.13975,2.39 2.32975,3.24625 6.9705,5.015 7.3655,7.49875 11.3705,17.2425 0.04625,0.11375 0.0925,0.22375 0.13,0.33875 0.2525,0.77125 -1.0725,5.145 -2.375,7.995 -5.03625,11.01875 -4.33875,12.03625 -12.586375,15.57375 -0.26975,0.115 -0.299625,0.13625 -0.299625,0.2125 l 0,0.16875 c 0,0 -0.809125,0.09 -1.4995,0.08 -5.3272501,-0.08625 -6.8807501,-8.15875 -7.4260001,-12.94625 -0.105625,-0.92875 -0.19425,-2.22375 -0.180375,-3.61125 z M 109.21252,8.3062189 l 0,-1.61125 2.345,0 c 0.28875,0 0.3425,0.0275 0.53375,0.26875 0.7625,0.965 1.225,1.73125 0.62,2.82 -0.16375,0.2937501 -0.39625,0.3500001 -0.96125,0.09 -0.8725,-0.40375 -2.5375,-1.5675 -2.5375,-1.5675 z M 80.108767,31.022469 c -0.0575,0.205 -0.08125,0.41625 -0.055,0.5975 0.15375,1.05375 1.19,0.8975 1.9975,0.70875 3.47375,-0.81 8.1625,-1.2075 12.605,-2.4925 3.74,-1.08125 8.857503,-3.5725 12.115003,-5.2675 0.53375,-0.2775 1.04125,-0.54 1.69875,-1.07 1.41375,-1.13625 3.5275,-3.50125 3.5275,-3.50125 0,0 -0.735,7.61125 -1.30375,11.70875 -0.7175,5.17375 -1.0025,6.45625 3.57,8.12625 3.38625,1.23625 6.63,-0.12 6.945,-6.0575 0.0913,-1.735 -0.0713,-4.0375 -0.0713,-4.0375 0,0 -1.3275,-0.88625 -2.16625,-0.87125 -0.94,0.015 -1.43,3.22 -2.50375,4.1175 -0.7575,0.6325 -2.515,0.13125 -3.25625,-1.10875 -0.16375,-0.275 -0.31375,-0.61625 -0.4425,-0.94 -0.11625,-0.295 -0.1225,-0.3625 -0.0738,-0.6775 1.04625,-6.61 3.03125,-16.57625 3.0725,-19.84 0.015,-1.1987501 -0.009,-2.4625001 -0.0475,-3.6212501 -0.075,-2.22125 0.065,-6.94 -3.145,-6.7925 -0.90875,0.0425 -1.83375,0.4125 -2.14875,0.635 -3.98625,2.81 -6.39125,11.8312501 -2.08875,14.5987501 0.835,0.5375 2.0775,1.165 2.0775,1.165 0,0 -2.8725,2.26125 -6.07,4.16875 -3.3525,1.99875 -7.061253,3.61 -8.947503,4.3825 -0.6525,0.26625 -6.11875,2.2875 -7.25625,2.6975 -4.37125,1.635 -7.76,2.40125 -8.0325,3.37125 z" />
</svg>
