<?xml version="1.0" encoding="UTF-8" standalone="no"?>
<svg>
  <path
     d="m 4.6243919,71.544969 c 0.00537,-0.5375 0.01525,-1.5225 0.026375,-2.62875 -0.03225,3.21375 -0.535875,-16.48 -1.84575,3.8375 -0.057875,0.8975 -0.075375,1.16875 -0.075375,1.16875 -0.092,1.4275 -0.09825,2.96125 -0.06575,4.37125 0.114125,4.94875 2.121125,15.99 6.56075,18.7175 3.7667501,2.3125 7.1428751,1.56875 11.5728751,-2.2925 1.2525,-1.0925 2.14125,-2.155 2.83625,-3.2775 0.31125,-0.505 3.8225,-9.53 5.7875,-14.6525 l 1.73,-4.50625 0.83125,3.83375 c 0.235,1.08 0.485,2.125 0.74125,3.03875 0.58625,2.08875 2.505,6.50625 4.45,8.73625 3.3425,3.8325 12.9375,3.9325 16.86,3.9325 1.07375,0 1.7525,0 1.7525,0 0,0 -0.51,-5.19875 0.28625,-5.66125 0.10125,-0.06 0.28625,-0.08 0.3775,-0.255 0.14375,-0.27375 0.1225,-0.9725 0.1225,-0.9725 l 0.6425,-0.08 0,-3.64125 c 0,0 -0.6025,-0.2025 -0.88125,-0.15875 -0.21625,0.03375 -0.24,0.23375 -0.31375,0.38625 -0.24625,0.50625 -2.60125,0.27125 -4.39,0.01125 -5.16625,-0.75 -5.37375,0.07375 -8.965,-2.50875 -3.70125,-2.6625 -5.175,-7.945 -2.65875,-11.745 0.71,-1.0725 5.27125,-4.15125 6.6875,-4.51375 3.0075,-0.77 4.115,0.395 5.62125,2.81125 4.11875,6.61 13.04625,5.23375 19.86875,4.55625 6.6325,-0.65875 7.48375,-2.44375 14.02125,-9.42625 0.57125,-0.61 1.095,-1.1375 2.2125,-1.26625 0.155,-0.01875 0.32,-0.02875 0.485,-0.03375 l 1.7575,-0.055 0.1225,4.89125 c 0.02375,0.95625 0.08875,2.16 0.25,3.11875 0.91,5.39 8.19375,7.64 13.883753,5.94625 1.5625,-0.465 2.6,-1.285 4.04125,-1.67375 0.35125,-0.095 9.35625,-0.08125 10.95,1.93875 0.13375,0.17125 0.17375,0.35 0.30875,0.46875 0.4625,0.4125 2.0475,0.11375 3.07125,-0.5075 0.8625,-0.525 1.32625,-1.2775 1.6025,-2.16375 0.13999,-0.45 0.23124,-0.935 0.42374,-1.4225 0.64375,-1.635 2.41625,-3.29 3.03875,-4.86375 0.4275,-1.0775 0.315,-2.1175 -0.0425,-3.29 -0.19,-0.62125 -0.4475,-1.28 -0.65125,-1.96625 -0.75125,-2.52625 -0.76375,-5.4175 -1.4425,-7.09 -0.2925,-0.7225 -2.80499,-2.08 -3.71499,-2.0075 -1.13125,0.09 -3.45875,0.96 -5.495,1.98375 -2.01125,1.0125 -2.86,1.6275 -4.5375,3.22125 -1.71125,1.62375 -3.4975,3.63375 -3.84375,4.455 -1.0825,2.56875 -0.5925,4.06625 -3.2275,4.5125 -0.1175,0.02 -0.23,0.03875 -0.33875,0.055 -1.95125,0.30125 -8.617503,-2.63 -9.043753,-5.23875 -0.20875,-1.27875 -0.2425,-3.0775 -0.2425,-3.0775 0,0 2.26375,-1.065 4.712503,-1.63625 4.31625,-1.005 9.21125,-0.475 9.21125,-0.475 0,0 -0.0463,-2.92875 0.57125,-4.43375 0.64125,-1.5625 1.99875,-1.59125 2.21375,-3.28625 0.08,-0.635 0,-1.50375 0,-1.50375 0,0 -7.35375,-1.0775 -11.9225,-2.15375 -2.803753,-0.66125 -4.557503,-1.32125 -6.512503,-2.47625 -1.1625,-0.6875 -2.3975,-1.54875 -3.64875,-2.04375 -0.7925,-0.31375 -1.59125,-0.48125 -2.31,-0.7125 -5.38,-1.7375 -10.38,-6.08625 -17.13125,0.48375 -0.82125,0.79875 -1.44375,2.0525 -2.1025,4.25625 -1.45125,4.85375 -1.41,6.03875 2.24,5.35625 0.97125,-0.18 2.005,-0.38875 2.9175,-0.73375 1.33375,-0.50375 2.41,-1.3 3.55375,-1.77875 4.42875,-1.8525 7.4125,0.9575 12.19375,3.76 0.25625,0.15 0.285,0.185 0.29,0.34625 0.05625,1.79 -4.04,2.945 -5.815,4.36625 -1.60125,1.28125 -2.045,2.99 -3.24125,4.0375 -2.88125,2.52375 -15.92625,3.185 -19.38375,2.3225 -2.87625,-0.7175 -3.98875,-1.585 -5.91625,-4.26 -2.98375,-4.14375 -6.4825,-3.66625 -10.81,-1.11 -1.7675,1.04375 -3.32375,2.31125 -4.805,4.15625 -1.045,1.305 -3.52875,7.27125 -3.42625,8.235 0.115,1.09375 0.45625,2.43125 0,3.5625 -0.295,0.72875 -0.8425,1.59375 -0.8425,1.59375 0,0 -0.95625,-1.83 -1.51375,-3.3875 -0.08375,-0.23375 -0.15875,-0.46 -0.225,-0.6825 -1.60375,-5.3225 -1.795,-9.23 -2.72125,-13.11625 -1.02,-4.2775 -9.4325,-18.37875 -12.6625,-20.8625 -1.254625,-0.96375 -2.44375,-1.495 -3.001375,-0.995 -0.3015,0.27 -0.671125,1.32 -0.929125,2.4 -0.459,1.9225 -0.494875,5.44 0.34075,7.3125 0.0215,0.0475 0.043,0.095 0.0645,0.1425 0.960125,2.08875 1.13975,2.39 2.32975,3.24625 6.9705,5.015 7.3655,7.49875 11.3705,17.2425 0.04625,0.11375 0.0925,0.22375 0.13,0.33875 0.2525,0.77125 -1.0725,5.145 -2.375,7.995 -5.03625,11.01875 -4.33875,12.03625 -12.586375,15.57375 -0.26975,0.115 -0.299625,0.13625 -0.299625,0.2125 l 0,0.16875 c 0,0 -0.809125,0.09 -1.4995,0.08 -5.3272501,-0.08625 -6.8807501,-8.15875 -7.4260001,-12.94625 -0.105625,-0.92875 -0.19425,-2.22375 -0.180375,-3.61125 z m 117.7118781,-8.5475 c -0.3025,0.67 -1.00375,0.99875 -1.81875,1.0425 -0.05,0.0025 -5.72125,-1.675 -5.76875,-1.695 -0.1125,-0.045 -0.23625,-0.095 -0.37,-0.15125 -0.2425,-0.1025 -0.4575,-0.215 -0.58875,-0.32875 -0.75625,-0.65375 2.75625,-1.32875 2.9825,-1.38875 1.09875,-0.29 2.51,-0.6575 3.47,-0.5125 0.38375,0.05875 2.09375,3.03375 2.09375,3.03375 z"
     style="fill:#000000;stroke:none"/>
</svg>
