<?xml version="1.0"?>
<svg xmlns="http://www.w3.org/2000/svg" version="1.1">
  <path
     d="m 11.615,24.891104 0.067,2.05 7.404,-5.795 c 4.83,-3.781 10.994,-8.211 14.188,-9.523 0.486,-0.2 0.894,-0.313 1.045,-0.046 0.121,0.215 -1.083,5.409 0.433,3.911 0.419,-0.415 0.623,-1.502 0.941,-2.443 0.507,-1.499 1.303,-2.626 2.462,-3.6000002 5.65,-4.742 7.32,-3.342 7.965,-7.551 0.276,-1.79799997 0.082,-2.20699997 -1.47,-1.68199997 -1.717,0.582 -4.178,1.90799997 -6.885,3.55399997 -4.164,2.533 -25.471,14.3010002 -26.126,20.4410002 -0.024,0.217 -0.032,0.444 -0.024,0.684 z m 20.692,-0.346 -1.01,0 -0.274,1.133 c -0.494,2.125 -1.758,3.79 -3.663,2.792 -0.356,-0.187 -0.568,-0.506 -0.769,-0.972 -0.257,-0.599 -0.616,-1.754 -1.089,-1.645 -0.15,0.035 -0.278,0.228 -0.392,0.436 -1.013,1.842 -0.675,6.056 1.378,6.979 0.382,0.171 0.771,0.183 1.17,0.087 1.487,-0.361 2.221,-1.211 3.075,-2.23 l 0.878,-1.048 1.032,0.026 c 0.431,0.01 0.814,-0.027 1.156,-0.106 5.095,-1.172 4.124,-6.326 2.708,-9.364 -0.105,-0.224 -1.219,-2.493 -1.71,-2.249 -0.067,0.034 -0.106,0.131 -0.109,0.301 0.644,5.604 -1.017,5.86 -2.381,5.86 z m 30.882,15.96 c -1.099,0.173 -4.217,-0.238 -5.042,-0.455 -1.322,-0.347 -1.472,-0.404 -1.504,-0.567 -0.248,-1.287 2.704,-2.17 4.175,-2.608 1.698,-0.506 4.248,-1.144 4.248,-1.144 0,0 -0.745,3.297 -0.745,3.297 -0.274,1.212 -0.387,1.36 -1.132,1.477 z m -59.883,26.928 -3.306,-6.173 1.115,6.328 c 0.352,1.995 0.812,4.247 1.33,5.88 0.243,0.764 0.537,1.484 0.885,2.15 3.417,6.527 11.402,6.139 16.247,0.613 1.609,-1.976 3.314,-4.345 4.39,-5.896 4.489,-4.663 2.383,-10.495 4.569,-4.371 0.403,1.13 0.787,2.12 1.162,2.997 2.885,6.731 13.166,13.356 21.175,12.937 1.017,-0.053 1.857,-0.142 1.857,-0.142 l -0.009,-6.58 c -0.002,-1.237 -0.068,-1.411 -0.661,-1.739 -1.394,-0.771 -2.969,-0.652 -4.503,-0.81 -2.746,-0.282 -5.101,-0.542 -6.417,-3.125 -0.741,-1.454 1.654,-2.961 3.783,-4.102 5.591,-2.994 14.027,-2.21 20.753,-1.447 0.762,0.086 1.416,0.223 2.491,0.25 1.66,0.041 4.323,-0.18 4.323,-0.18 0,0 1.318,-3.11 1.526,-5.95 0.07,-0.951 0.015,-1.872 0.015,-1.872 0,0 -6.176,-0.22 -10.229,-0.906 -2.958,-0.5 -9.531,-2.929 -11.238,-4.677 -0.613,-0.627 -0.895,-2.409 -0.433,-2.73 0.994,-0.69 10.973,1.726 13.132,1.136 2.038,-0.556 3.938,-4.588 4.206,-8.169 0.092,-1.239 -0.233,-4.322 -1.139,-5.756 -0.898,-1.419 -1.55,-1.565 -1.292,-3.108 0.418,-2.5 1.746,-3.648 -1.294,-4.094 -4.408,-0.648 -12.414,5.214 -14.39,8.674 -0.473,0.828 -0.79,1.783 -0.804,2.685 -0.02,1.235 0.526,2.37 0.219,3.356 -0.328,1.052 -3.669,3.502 -5.355,4.416 -7.613,4.127 -10.614,1.855 -10.165,7.08 0.15,1.749 0.499,4.538 0.499,4.538 0,0 3.415,-0.554 6.816,-0.761 10.748,-0.656 3.443,2.124 3.281,2.177 -0.351,0.115 -0.703,0.237 -1.03,0.372 -1.226,0.506 -4.836,2.013 -5.543,3.034 -0.538,0.776 -0.791,1.69 -0.834,2.797 -0.08,2.05 0.36,3.111 -1.231,2.386 -0.373,-0.17 -0.914,-0.485 -1.513,-0.861 -0.302,-0.19 -0.583,-0.366 -0.846,-0.533 -2.942,-1.865 -3.559,-2.471 -4.746,-5.553 -0.088,-0.228 -0.179,-0.469 -0.273,-0.725 -0.095,-0.256 -0.196,-0.528 -0.304,-0.818 -0.315,-0.846 -0.553,-1.613 -0.631,-2.137 -0.029,-0.196 -0.049,-0.395 -0.062,-0.595 -0.172,-2.601 0.274,-3.792 0.252,-5.128 -0.102,-6.183 -10.823,-16.898 -15.769,-20.147 -0.495,-0.325 -1.019,-0.597 -1.504,-0.752 -3.213,-1.028 -2.322,2.025 -2.197,3.93 0.052,0.788 0.069,1.061 0.069,1.061 0.081,1.235 0.103,1.433 0.223,1.99 0.74,3.449 6.869,4.919 10.345,7.99 1.887,1.667 4.934,8.187 4.56,11.409 -0.441,3.799 -6.941,12.049 -9.802,13.412 -4.067,1.939 -8.376,1.012 -10.552,-1.961 -0.459,-0.628 -0.842,-1.224 -1.151,-1.8 z m 57.081,-58.7560002 -0.25,1.07 -1.855,-0.791 c -1.63,-0.691 -2.879,-1.463 -3.436,-2.415 -0.52,-0.886 0.33,-1.559 1.657,-1.909 1.277,-0.338 3.149,0.554 3.664,1.676 0.294,0.641 0.385,1.662 0.22,2.369 z m 0.651,2.4210002 0.446,-1.076 c 0.836,-2.0150002 1.835,-5.7190002 -2.158,-8.9810002 -1.631,-1.33299997 -3.036,-1.49499997 -5.112,0.156 -0.798,0.635 -1.04,1.159 -1.374,2.207 -0.458,1.438 -0.458,5.354 0,5.963 0.687,0.9140002 2.495,1.6640002 3.445,2.5970002 l 1.071,1.051 -1.074,1.441 c -0.871,1.169 -2.461,2.649 -3.053,3.145 -6.814,5.703 -10.137,5.219 -10.922,10.157 -0.216,1.357 -0.038,1.852 1.988,1.145 0.497,-0.174 1.578,-0.87 2.828,-1.756 5.211,-3.691 7.147,-5.432 11.085,-10.452 l 0.99,-1.259 0.705,1.027 c 0.266,0.378 0.439,1.01 0.556,1.847 0.026,0.19 0.052,0.398 0.075,0.595 0.587,5.009 0.99,1.392 1.135,-0.693 0.268,-3.87 0.343,-5.086 -0.177,-6.098 l -0.454,-1.016 z"
     style="fill:#000000;stroke:none" />
</svg>
