<?xml version="1.0" encoding="UTF-8" standalone="no"?>
<svg>
    <path
       style="fill:#000000;stroke:none"
       d="m 14.74266,3.69375 0.07375,4.22 c 0.025,1.48375 0.0525,1.72 0.27,2.3575 0.62625,1.8425 2.895,2.74625 5.195,2.12125 2.90375,-0.78875 3.75375,-2.99375 4.64875,-0.9625 2.92,6.62 3.39625,-0.6875 4.40375,-2.3575 0.23,-0.38 0.49875,-0.73375 0.8775,-0.97625 1.24,-0.7925 3.6575,-0.385 4.92625,-1.185 0.31375,-0.1975 0.55625,-0.46875 0.765,-0.76375 0.2825,-0.39875 0.31125,-0.6075 0.285,-2.09125 l -0.07,-4.03375 c 0,0 -1.8175,-0.07625 -3.1225,0.05375 -1.33,0.13375 -2.7725,0.965 -3.43875,1.985 -2.1325,3.26 -2.10375,4.7425 -3.9,3.98625 -3.60125,-1.51625 -5.0225,-3.03625 -7.6025,-2.8175 -1.2125,0.10375 -3.31125,0.46375 -3.31125,0.46375 z m 24.88875,28.00875 -6.14875,6.11 c -1.0225,1.015 -1.1675,1.19625 -1.45375,1.8225 -0.4,0.875 -0.53875,2.33875 -0.3425,2.5375 0.6375,0.64375 2.888738,-0.9175 3.67375,-1.495 6.86375,-5.0625 9.99125,-8.25125 11.10125,-14.8075 0.56375,-3.33125 -1.2,-4.62125 -4.322512,-5.04625 -4.9525,-0.675 -9.8675,0.015 -11.79125,3.745 0.3,14.23625 0.7225,6.095 4.9225,5.08375 4.6725,-1.12375 9.697499,-3.62125 4.361249,2.05 z M 59.568898,25.58 58.87766,25.5925 c -0.891262,0.015 -1.011262,0.12625 -1.201262,1.11375 -0.08375,0.4325 -0.331238,1.0925 -0.61,1.73125 -1.625001,3.71375 -3.56125,2.855 -4.955,0.11125 -1.272488,-2.50375 -2.801238,-5.2725 -3.051238,0.28375 -0.10125,2.2275 0.1475,6.475 1.865,7.63125 1.83875,1.23875 4.68625,0.2775 6.46375,-0.9225 0.41875,-0.2825 0.7925,-0.6125 0.995,-1.03 0.115,-0.24 0.175,-0.50875 0.21875,-0.77375 l 0.25,-1.55375 1.7325,0.195 c 0.31625,0.03625 0.645,0.06625 0.96125,0.0525 1.1025,-0.04875 1.95125,-0.58125 2.5875,-1.3675 2.88875,-3.57125 1.555,-7.88375 -0.71,-10.92 -1.695,-2.27125 -4.55625,-5.835 -1.75875,1.29125 1.02,2.59875 0.8625,4.09375 -2.09625,4.145 z m 33.0275,19.30625 0.0675,3.84625 c 0,0 -4.3875,-0.6425 -5.355,-1.35875 -0.46875,-0.3475 -0.136249,-0.675 0.36625,-1.0275 0.86375,-0.6075 2.256251,-1.34375 4.097501,-1.44625 0.401262,-0.0225 0.82375,-0.01375 0.82375,-0.01375 z m -67.96375,54 c 2.445012,0.6775 5.165,0.19875 8.38625,-1.93125 3.511262,-2.32125 7.945,-6.72 9.47375,-9.41625 1.64375,-2.9 3.4325,-7.30125 3.4325,-7.30125 0,0 2.492512,5.015 4.27,7.7175 1.989999,3.0225 6.00875,6.81 8.6625,8.09375 2.175,1.0525 4.97875,1.26625 8.295012,1.86625 2.416238,0.435 5.724988,0.6225 6.21875,0.08 0.60875,-0.67 1.55625,-5.22875 1.7675,-6.11125 0.818738,-3.41125 -0.8,-1.7 -5.96,-2.88625 -1.1675,-0.26875 -1.92125,-0.84375 -3.05625,-1.87125 -1.80625,-1.63625 -4.57625,-4.42 -4.57625,-4.42 0,0 1.99125,-1.61875 3.6275,-2.71 4.12,-2.745 11.86875,-4.15875 16.42,-4.13375 5.54625,0.03 13.56375,1.27625 13.56375,1.27625 0,0 1.48875,-4.23875 2.17625,-6.525 0.44375,-1.47625 0.36,-1.85 -0.63875,-2.26625 -0.35375,-0.1475 -0.557512,-0.17625 -2.03875,-0.29875 -7.335,-0.6025 -12.86625,-1.45125 -19.32375,-4.44625 -1.41125,-0.65375 -3.04875,-1.45875 -3.04875,-1.45875 0,0 3.18875,-1.2 4.63,-2.41625 1.48125,-1.25125 0.98375,-2.86125 1.4,-3.5975 0.3075,-0.54625 3.99875,-0.50625 6.7675,0.075 0.85625,0.18 1.785,0.38875 2.6825,0.59625 4.74625,1.1025 9.16125,4.3175 12.335,-5.12125 0.14375,-0.41125 0.2475,-0.775 0.29375,-1.05875 0.21125,-1.2925 0.27375,-2.5025 -0.0638,-3.6825 C 99.76016,44.95 98.05391,43.05 98.02266,40.7675 c -0.035,-2.50375 0.58375,-4.1725 -2.2825,-4.7325 -2.475012,-0.4825 -8.776262,2.3775 -9.298762,2.63625 -4.02375,1.99625 -7.888738,4.8025 -9.012488,9.26875 -1.02125,4.0625 -2.36,4.77625 -7.273762,7.91875 -2.441238,1.56125 -5.048738,3.10125 -7.80875,3.8475 -4.01125,1.08625 -8.51125,0.61 -9.78625,4.505 -0.72125,2.2075 -0.748751,6.12375 -0.748751,6.12375 0,0 2.153751,0.095 3.517513,-0.06125 2.14125,-0.245 2.3425,-1.10625 4.1525,-1.44625 2.66125,-0.50125 8.7975,0.12125 8.7975,0.12125 l 0.01625,0.87875 c 0.0063,0.39625 -0.142488,0.51125 -1.48625,1.15375 -5.65375,2.705 -6.80125,5.9875 -7.7225,12.4375 -0.21,1.4725 -0.2825,1.6425 -0.72375,1.7 -4.0075,0.53 -9.40375,-10.84375 -10.34125,-13.195 C 45.96391,66.7625 45.20516,60.9475 43.03516,55.64625 41.47641,51.84 38.37391,45.24375 34.45766,43.305 c -1.38625,-0.68625 -1.76875,0.53125 -2.2925,3.72375 -0.66125,4.025 -0.23625,5.94375 2.62625,8.76125 3.54,3.485 3.91,3.19375 5.61125,6.49875 1.3875,2.695 4.2775,12.27375 4.04875,13.41625 -0.2125,1.05875 -4.77625,7.37375 -7.7625,10.01125 -4.2575,3.75875 -8.74,5.44625 -12.8075,3.74875 -5.41375,-2.25875 -5.95875,-11.08875 -6.00375,-12.41625 -0.11875,-3.4825 -0.45875,-7.72625 -1.26625,-1.285 -0.02375,0.1875 -0.04875,0.41 -0.07625,0.67625 -0.10875,1.0375 -0.18875,1.88375 -0.2725,2.5875 -0.99,8.39 -2.415,16.8725 8.37,19.85875 z m 66.2475,-91.38 c 0.743762,1.20875 -1.543751,4.56625 -1.78875,4.615 -1.385,0.28 -3.945,-3.0725 -4.54875,-4.2 -0.61,-1.13875 -0.2375,-1.63125 1.72,-2.3475 1.891249,-0.69125 3.37375,-0.09375 4.6175,1.9325 z m -13.32125,22.97 c 0.870012,-0.73125 1.601262,-1.4 2.14375,-1.97375 0.204999,-0.2175 0.7175,-0.87625 1.40875,-1.74875 l 7.344999,-8.25 2.447501,1.87875 c 1.145,0.92 2.065,2.25 2.28375,3.29125 0.17125,0.81625 0.1925,1.03875 0.2125,2.22375 l 0.04625,2.64 c 0,0 0.8025,0.13 1.318751,-0.02375 0.722499,-0.21375 0.92875,-1.33 1.116249,-2.2175 0.2175,-1.035 0.61625,-1.82125 0.77625,-2.7625 0.20375,-1.1975 -1.20375,-5.72625 -2.038749,-6.56125 -0.307501,-0.3075 -0.610001,-0.565 -0.901251,-0.7925 l -3.161249,-2.47375 1.863749,-4.4825 c 0.13625,-0.32875 0.272501,-0.66625 0.39625,-1.015 1.20625,-3.38875 1.208751,-5.47625 -1.5025,-7.395 -3.03125,-2.145 -7.24375,0.24875 -9.555,3.74 -1.019999,1.54 -1.38125,4.1175 -0.722499,5.88375 1.44875,3.88125 4.102499,4.79875 3.96875,6.89 -0.05375,0.83375 -4.51375,5.315 -8.224988,8.2775 -3.99625,3.19 -9.292512,7.1125 -13.4675,10.03 -12.0925,8.685 -20.24375,10.7275 -8.193762,9.115 4.458762,-0.59625 20.413762,-12.57 22.44,-14.27375 z M 47.99641,12.04875 c 0,0 -0.765012,3.9925 -0.49625,5.31375 0.11125,0.5475 0.8025,0.53625 1.31875,-0.0225 0.76625,-0.82875 1.5625,-2.37875 2.46625,-3.61625 1.91875,-2.63125 7.01125,-6.45125 9.9475,-7.045 1.505,-0.305 2.5325,0.22125 3.30875,-0.05875 0.64875,-0.23375 1.365,-2.52125 1.385,-4.42125 C 65.93641,1.2 65.88766,0 65.88766,0 c 0,0 -2.88,0.1 -5.56,0.4025 -1.69,0.19125 -29.66625,13.41875 -33.73375,15.95125 C 18.91766,21.13 5.86016,27.015 1.25516,34.76875 c -1.10125,1.85375 -1.84875,4.40875 -0.6225,5.95 1.2125,1.52625 4.8625,-3.985 7.125,-6.3275 4.5225,-4.68375 24.39,-15.31875 31.47125,-18.53375 3.89125,-1.76625 8.7675,-3.80875 8.7675,-3.80875 z" />
</svg>
