<?xml version="1.0" encoding="UTF-8" standalone="no"?>
<!-- Created with sK1/UniConvertor (http://sk1project.org/) -->

<svg
   xmlns:dc="http://purl.org/dc/elements/1.1/"
   xmlns:cc="http://creativecommons.org/ns#"
   xmlns:rdf="http://www.w3.org/1999/02/22-rdf-syntax-ns#"
   xmlns:svg="http://www.w3.org/2000/svg"
   xmlns="http://www.w3.org/2000/svg"
   xmlns:sodipodi="http://sodipodi.sourceforge.net/DTD/sodipodi-0.dtd"
   xmlns:inkscape="http://www.inkscape.org/namespaces/inkscape"
   width="595.276pt"
   height="841.89pt"
   viewBox="0 0 595.276 841.89"
   fill-rule="evenodd"
   id="svg2"
   version="1.1"
   inkscape:version="0.48.0 r9654"
   sodipodi:docname="muhamad.svg">
  <metadata
     id="metadata26">
    <rdf:RDF>
      <cc:Work
         rdf:about="">
        <dc:format>image/svg+xml</dc:format>
        <dc:type
           rdf:resource="http://purl.org/dc/dcmitype/StillImage" />
      </cc:Work>
    </rdf:RDF>
  </metadata>
  <defs
     id="defs24" />
  <sodipodi:namedview
     pagecolor="#ffffff"
     bordercolor="#666666"
     borderopacity="1"
     objecttolerance="10"
     gridtolerance="10"
     guidetolerance="10"
     inkscape:pageopacity="0"
     inkscape:pageshadow="2"
     inkscape:window-width="640"
     inkscape:window-height="480"
     id="namedview22"
     showgrid="false"
     inkscape:zoom="0.24801339"
     inkscape:cx="-109.78134"
     inkscape:cy="526.18127"
     inkscape:window-x="0"
     inkscape:window-y="0"
     inkscape:window-maximized="0"
     inkscape:current-layer="svg2" />
  <path
     inkscape:connector-curvature="0"
     id="path6"
     d="m 1.8476793,38.511035 c 1.256,2.004 3.0904,3.57 5.0285,3.814 3.1935997,0.4 5.8718997,-0.966 7.6723997,-2.92 1.275,-1.384 2.3454,-2.748 3.6123,-5.052 1.6105,-2.928 3.5385,-7.374 3.5385,-7.374 0,0 0.7642,2.347 1.4643,4.168 2.8508,7.419 7.1451,11.371 13.6861,12.404 3.5844,0.566 4.6955,-0.134 5.1837,-3.667 0.1868,-1.351 -0.0687,-3.114 -0.4992,-3.445 -0.6478,-0.498 -1.8998,-0.256 -3.4276,-0.509 -3.992,-0.662 -5.7861,-2.884 -7.669,-6.142 -0.7225,-1.25 -0.8266,-1.498 0.1819,-2.121 1.8757,-1.16 3.3159,-1.495 4.9061,-0.551 1.284,0.763 2.2744,2.43 3.5246,3.287 1.6703,1.146 9.0936,2.071 10.9463,2.233 7.9996,0.697 18.7744,-1.498 27.9779,-2.984 1.0094,-0.163 1.1235,-0.254 1.1413,-0.908 0.0407,-1.499 0.9151,-2.678 1.6456,-4.133 0.1477,-0.294 0.2607,-0.556 0.3444,-1.056 0.0623,-0.372 0.1082,-0.876 0.1082,-0.876 l -6.4405,0.225 c -1.0217,0.036 -1.245,0.01 -2.2334,-0.258 -0.8745,-0.237 -6.3175,-2.074 -6.7688,-2.832 -0.6282,-1.053 2.0385,-3.769 3.2624,-4.178 0.7701,-0.258 1.9819,0.009 3.1962,0.522 2.9517,1.247 8.8064,3.133 9.5503,2.968 2.0432,-0.454 4.6302,-5.967 4.2982,-9.043 -0.105,-0.9719999 -0.438,-2.1549999 -1.054,-3.0699999 -0.625,-0.927 -1.541,-1.58 -1.7913,-2.461 -0.5129,-1.804 0.5883,-2.476 -0.8868,-3.69700002 -3.3929,-2.80899998 -11.4847,1.99700002 -12.9164,4.42900002 -0.3446,0.585 -0.5786,1.219 -0.6907,1.919 -0.192,1.197 -0.0265,2.589 -0.4442,3.5539999 -0.8253,1.906 -7.131,3.959 -9.6846,4.756 -0.5879,0.183 -1.1524,0.348 -1.7426,0.439 -3.5985,0.556 -5.8899,-0.575 -6.7055,1.75 -0.4124,1.175 -0.7968,2.645 -0.7742,4.952 0.0069,0.716 0.0528,1.514 0.0528,1.514 0,0 1.7873,0.037 3.0273,-0.106 2.005,-0.23 2.5788,-0.93 3.7576,-0.889 1.2493,0.043 3.1781,0.918 4.2088,1.179 0.1817,0.046 0.3378,0.084 0.3903,0.328 0.0472,0.218 0.0211,0.605 0.0211,0.605 l -8.8396,0.309 c -1.0217,0.035 -1.2474,0.021 -2.257,-0.148 -3.2106,-0.536 -7.5807,-1.525 -9.71,-3.214 -2.577,-2.045 -2.9925,-3.416 -6.3058,-2.82 -3.2763,0.59 -5.8151,3.848 -5.788,7.628 0.0094,1.311 0.6733,3.285 -0.8236,2.454 -1.0555,-0.586 -2.4741,-4.007 -2.8717,-5.204 -1.0058,-3.029 -1.3156,-5.92 -2.0134,-8.833 -0.8703,-3.634 -4.2939,-12.4809999 -7.9483,-14.3089999 -1.3298,-0.66600002 -1.5643,0.891 -1.902,3.468 -0.2156,1.646 -0.2669,3.207 0.1369,3.921 0.6935,1.225 2.5743,1.9289999 3.9051,3.3339999 1.8788,1.983 4.0772,7.093 3.7385,9.409 -0.4281,2.927 -4.9005,10.267 -7.161,11.927 -2.2384,1.644 -5.8552997,2.632 -8.2984997,1.048 -1.5944,-1.034 -2.8405,-4.01 -3.4795,-6.787 -1.10530001,-4.803 -1.26370001,-0.614 -1.22230001,2.927 0.0793,6.776 2.80010001,9.645 1.84190001,8.116 z m 77.2396997,-27.844 c -1.0879,0.162 -3.1049,-0.8649999 -4.1604,-1.3929999 -0.9167,-0.458 -1.0208,-0.524 -1.0411,-0.66 -0.169,-1.128 2.5082,-1.585 3.9729,-1.73 1.0931,-0.108 2.4218,-0.084 2.4218,-0.084 0,0 0.0404,0.491 0.0317,0.908 -0.0169,0.818 -0.2222,1.35 -0.496,1.975 -0.3691,0.8419999 -0.442,0.9409999 -0.7289,0.9839999 z"
     style="fill:#000000;stroke:none" />
  <path
     inkscape:connector-curvature="0"
     id="path8"
     d="m 0.01992355,34.674386 0.3784,-0.014 0.0132,0.379 c 0,0 1.50950005,0.027 2.90620005,-0.102 1.0999,-0.101 11.6835004,-5.103 14.2826004,-6.75 4.1395,-2.623 11.078,-6.933 12.5884,-8.396 1.6677,-1.615 3.5369,-3.93 5.124,-5.357 3.4313,-3.178 2.7219,-2.019 3.7162,0.416 0.0337,0.082 0.066,0.165 0.0965,0.248 0.6918,1.884 0.2123,3.875 1.5614,-0.132 -0.0148,-0.471 -0.0462,-0.976 -0.1078,-1.418 -0.2763,-1.98 -1.1604,-2.662 -1.2671,-3.7360004 -0.1469,-1.481 1.181,-3.707 1.322,-5.54 0.1818,-2.364 -1.9346,-4.73100002 -4.6171,-4.19600002 -3.0323,0.605 -4.4116,1.83700002 -4.8455,4.45800002 -0.4278,2.585 -0.3508,4.22 0.931,4.961 1.0095,0.5830004 3.3806,1.5450004 3.3806,1.5450004 0,0 -3.0229,2.828 -5.2438,4.771 -2.9773,2.605 -4.6026,3.678 -7.2072,5.177 -6.795,3.913 -20.8547004,11.256 -22.86250045,12.544 -0.1006,0.064 -0.1709,0.114 -0.169399999699,0.574 7.99999999e-4,0.232 0.0198999997,0.568 0.0198999997,0.568 z M 37.390024,7.9553856 c -0.9062,-0.146 -1.7553,-0.842 -2.5624,-1.369 -0.8588,-0.561 -0.9557,-0.665 -0.969,-1.044 l -0.0294,-0.843 c 0,0 2.3167,-0.685 3.4681,-0.5 0.3705,0.059 1.3349,0.582 1.4731,0.956 0.1448,0.392 0.1233,1.206 0.0961,1.673 -0.0696,1.195 -0.4489,1.293 -1.4765,1.127 z"
     style="fill:#000000;stroke:none" />
  <path
     inkscape:connector-curvature="0"
     id="path10"
     d="m 0.30388067,27.883036 c 0.90080003,-0.306 3.65010003,-3.129 5.87570003,-5.331 2.1253,-2.103 28.6349003,-17.3879997 29.6673003,-18.7979997 0.3436,-0.47 1.7545,-3.29600004 1.3725,-3.69200004 -0.2578,-0.267 -2.2676,0.386 -3.4947,0.844 2.0415,-0.762 -26.1534003,16.13499974 -24.5471003,15.04799974 -4.5496,3.078 -8.43980003,6.316 -8.98880003,8.633 -0.2758,1.165 -0.2593,3.423 0.1151,3.296 z"
     style="fill:#000000;stroke:none" />
  <path
     inkscape:connector-curvature="0"
     id="path12"
     d="m 0.02384633,6.7136232 0.0128,0.366 c 0.0318,0.909 0.0493,1.075 0.1753,1.655 0.5218,2.4049998 3.24399997,3.5619998 4.87819997,2.0139998 0.8316,-0.7869998 1.2682,-2.2959998 2.214,-3.0259998 1.0429,-0.805 1.634,-0.666 2.2286,-1.026 5.5021997,-3.327 -0.7275,-8.904 -0.6183,-5.77600005 0.0054,0.15400005 0.0108,0.30700005 0.0159,0.45500005 0.0861,2.465 -0.2554,1.86 -2.7205,1.946 -0.7353,0.026 -0.999,0.035 -0.999,0.035 l 0.0559,1.6 c 0.0251,0.719 -0.0112,0.852 -0.3627,1.327 -1.0582,1.431 -1.7903,1.277 -2.703,0.303 -1.97209997,-2.107 -2.30419997,-3.51 -2.17719997,0.127 z"
     style="fill:#000000;stroke:none" />
  <path
     inkscape:connector-curvature="0"
     id="path14"
     d="m 7.0499764,4.1784294 c 0,0 -0.8248,-1.893 -1.5377,-2.738 -0.7517,-0.89000005 -2.4426,-0.85700005 -3.8786,-0.62200005 C 0.18467637,1.0554294 -0.24392363,2.6124294 0.12577637,4.5084294 c 0.3892,1.996 0.98400003,2.489 3.14970003,1.807 1.1153,-0.352 1.4663,-0.574 2.0434,0.436 0.9928,1.739 0.8999,4.0099996 2.7625,3.7309996 0.3027,-0.045 0.3466,-0.164 0.4389,-1.1859996 0.143,-1.583 0.4679,-3.199 1.3736,-3.462 0.9763996,-0.284 3.2845996,-0.115 3.2845996,-0.115 0,0 0.6883,-2.519 0.8771,-3.744 0.2718,-1.76300005 -0.9514,-2.20100005 -2.6419,-1.87700005 -0.6691,0.128 -1.2641,0.229 -1.9412996,0.825 -1.1023,0.97100005 -2.4224,3.25500005 -2.4224,3.25500005 z"
     style="fill:#000000;stroke:none" />
  <path
     inkscape:connector-curvature="0"
     id="path16"
     d="m 28.819894,13.054159 c 0,0 0.0152,0.433 0.0382,1.092 0.0265,8.325 1.8431,2.169 3.4888,0.38 1.5651,-1.701 4.0102,-4.273 6.3645,-5.9979998 2.6564,-1.947 6.1164,-4.171 6.6342,-5.04 0.4836,-0.811 0.6501,-1.749 0.8536,-2.68200002 0.1708,-0.782 0.0839,-0.877 -0.6334,-0.77 -0.2711,0.041 -0.4008,0.1 -1.297,0.592 -12.2469,6.72300002 -26.1247,14.50399982 -36.5742,20.46699982 -1.9587,1.117 -7.2459,5.456 -7.5505,6.196 -0.3181,0.773 -0.0725,3.851 0.3757,4.708 0.8667,1.656 2.3495,2.96 5.0791,3.945 1.2678,0.457 1.3803,-0.53 1.1729,-3.3 -0.06,-0.802 -0.1559,-1.438 -0.6389,-2.023 -1.1795,-1.429 -2.1617,-1.457 -1.7874,-2.363 0.3237,-0.783 1.8291,-1.966 3.677,-3.197 7.3767,-4.914 20.7974,-12.007 20.7974,-12.007 z"
     style="fill:#000000;stroke:none" />
  <path
     inkscape:connector-curvature="0"
     id="path18"
     d="m 3.6337812,7.6112076 c -0.5425,0.914 -1.1152,1.885 -1.4419,2.8060004 -0.0797,0.224 -0.8017,2.826 -0.4619,3.047 0.1359,0.088 0.4058,0.043 0.6069,0.013 0.2711,-0.04 0.3582,-0.143 0.8709,-1.029 2.3434,-4.0460004 4.0758,-6.7230004 4.5613,-10.4860004 0.4158,-3.221 -3.7585,-1.82200004 -6.4554,-0.418 -0.42709998,0.222 -0.71489998,0.425 -0.91299998,0.979 -0.2338,0.654 -0.3426,1.799 -0.3929,2.662 -0.0907,1.558 0.6272,1.478 1.33519998,1.018 6.5276,-4.237 1.375,2.951 2.2908,1.408 z"
     style="fill:#000000;stroke:none" />
  <path
     inkscape:connector-curvature="0"
     id="path20"
     d="m 5.8741421,2.4929761 c -2.0673,-1.103 -2.6737,-1.531 -4.2437,-0.446 -1.76170004,1.218 -1.88860004,2.196 -1.34820004,4.791 0.4102,1.969 1.00800004,2.772 3.31690004,1.98 0.8857,-0.304 1.5369,-0.843 2.1848,-0.664 0.6936,0.191 1.3834,1.205 2.0304,2.0589999 2.8645999,3.782 2.0151,-0.106 2.017,-1.3669999 6e-4,-0.35 0.0293,-0.503 0.107,-0.778 0.2101999,-0.743 0.8803999,-1.527 1.3108999,-1.81 1,-0.657 2.5216,-0.56 3.1536,-1.31 0.4522,-0.537 0.3745,-2.348 0.4653,-3.552 0.1035,-1.373 0.1325,-1.886 -2.3594,-0.839 -1.9213,0.807 -2.6781999,1.531 -3.5396999,3.633 -0.1354,0.33 0.4502,2.897 -3.0949,-1.697 z"
     style="fill:#000000;stroke:none" />
</svg>
