<?xml version="1.0" encoding="UTF-8" standalone="no"?>
<svg>
  <path
     d="m 30.14362,20.267627 -0.175,-4.00387 c -0.07,-1.6188 -0.0463,-1.9088 0.235,-2.90008 0.20751,-0.73627 0.42752,-1.54005 0.98628,-2.05881 1.36004,-1.26379 4.72764,-0.82628 6.28893,-1.86756 C 39.7264,7.938517 39.7289,2.7921174 37.99885,0.70580737 36.1638,-1.5055026 32.45619,2.0070974 30.93614,4.017157 c -0.93377,1.23503 -1.81755,2.65007 -2.21506,4.30137 -0.18376,0.76502 -0.28626,1.6338 -0.43001,2.39507 l -0.70502,3.72386 -2.33007,-2.96509 c -3.19009,-4.20012 -2.21756,-5.44765 -6.90357,-6.59019 -1.5703,-0.38251 -4.975523,-0.24 -5.629917,1.52755 -0.51214,1.38379 0.690145,4.74763 1.443291,5.54766 0.579142,0.61376 2.92446,2.13756 3.893236,2.23131 1.5828,0.15376 4.81689,-0.81002 4.81689,-0.81002 0,0 2.61133,3.75761 4.20512,5.52141 0.69627,0.77002 1.27129,1.39004 2.16382,1.40754 0.36876,0.006 0.89877,-0.04 0.89877,-0.04 z m -20.7517243,34.33099 0.6988963,-0.0112 c 0.313884,-0.006 0.398136,-0.19751 0.842274,-1.91131 2.553699,-9.85903 3.020087,-15.30419 -3.2622193,-21.62687 -1.034405,-1.04128 -2.24019,-1.91506 -3.016338,-0.98253 -0.527015,0.63377 -1.064905,5.1039 -0.824773,6.08018 0.420012,1.7063 1.665048,2.26006 3.102589,3.42009 3.2473443,2.61758 4.0612433,4.58139 3.6481063,8.06774 -0.317134,2.67633 -1.1885353,6.96395 -1.1885353,6.96395 z M 20.69047,42.932027 c -0.0514,-1.39629 -0.209,-3.14884 -0.66752,-3.5901 -0.26588,-0.25501 -0.63301,-0.07 -0.86315,-0.20751 -1.0354,-0.62127 0.7259,-3.18509 1.56505,-4.16512 7.61872,-8.89276 27.36179,-19.93432 37.79334,-22.21814 0.99378,-0.21751 1.98756,-0.39251 2.17506,-0.0563 0.0938,0.16625 -0.0125,0.46126 -0.1725,0.79252 -0.37626,0.77877 -0.98003,1.72255 -1.6488,2.73383 -13.8929,20.97811 8.02023,-8.13524 14.23791,-8.95276 0.57002,-0.28001 1.10379,-0.50626 1.5763,-0.65627 2.42007,-0.76127 5.04014,-0.92252 5.3589,-3.24259 0.045,-0.32501 0.0513,-0.7312696 0.04,-1.1237796 -0.10625,-3.80011 -6.30643,-1.98256003 -10.67655,-0.32001 C 65.36464,3.463337 59.35947,5.998407 52.98928,8.945997 c -8.24274,3.81386 -32.92233,15.26044 -36.395175,25.20323 -1.119033,3.20384 -0.910902,6.79394 1.319785,9.88153 0.0958,0.13251 0.18251,0.25251 0.26176,0.36001 -1.006904,-1.36754 2.7302,4.38263 2.51482,-1.45879 z m 75.00505,-4.88014 -6.10143,6.06143 c -1.01503,1.00753 -1.15878,1.18753 -1.44254,1.8088 -0.39751,0.86877 -0.53502,2.32132 -0.34001,2.51757 0.63252,0.63877 2.86633,-0.91003 3.6451,-1.48379 6.81145,-5.02265 9.91404,-8.18649 11.01532,-14.69168 0.56002,-3.30634 -1.19128,-4.58513 -4.28887,-5.00764 -4.91389,-0.66877 -9.79154,0.015 -11.70034,3.71511 0.29876,14.12665 0.71752,6.04892 4.88514,5.04639 4.63638,-1.11628 9.62153,-3.59385 4.32763,2.03381 z m 9.55402,54.30282 c 0.20376,2.801332 1.51005,4.542632 3.88761,5.045152 3.06634,0.64877 4.80014,-1.01378 5.58642,-4.378882 0.1725,-0.73752 0.13375,-1.35254 -0.34126,-1.65005 -0.90378,-0.56376 -3.3851,0.0225 -4.58389,-0.61502 -1.49254,-0.79252 -1.8713,-4.16262 -1.50254,-5.73766 0.37001,-1.5763 1.31129,-3.2651 1.56755,-4.48013 0.0525,-0.24626 0.0762,-0.47251 -0.0313,-0.59877 -0.0138,-0.0163 -0.0275,-0.0312 -0.0413,-0.045 -3.60885,-0.82252 -4.48638,13.216632 -4.54138,12.46036 z m 0.39251,-23.49568 c -1.25003,2.49757 -2.91008,5.87267 -4.23012,6.88145 -3.33635,2.54632 -9.30027,5.83767 -12.70162,7.21271 0.16001,-0.065 -33.61722,11.484082 -33.24096,11.400332 -0.90752,0.20125 -1.36879,0.20125 -1.17503,-0.0863 -0.16001,0.23875 -0.08,0.81377 0.12125,1.20503 0.31126,0.60252 1.24754,0.82002 2.19632,0.79752 1.07628,-0.0238 2.27506,-0.1525 3.71385,0 1.39129,0.14751 3.00884,0.55752 4.50013,0.91628 8.97526,2.15506 22.38065,-6.102682 29.61461,-10.529052 4.42388,-2.70633 9.57903,-6.11893 10.00529,-6.75145 0.98128,-1.46129 1.6838,-4.14762 2.09006,-6.15518 0.0388,-0.19 0.20501,-1.40629 0.38626,-2.81758 0.45876,-1.14753 1.25254,-2.89133 2.09506,-3.64385 0.64877,-0.57877 2.09256,-0.37626 3.3001,-0.57002 1.07003,-0.17126 2.86258,-1.39004 3.7501,-2.55007 0.97378,-1.27254 1.25879,-2.47008 2.41507,-2.87759 1.98006,-0.69877 4.77764,0.21126 6.7102,1.08253 l 2.83258,1.7688 c 1.09253,0.68877 2.19006,1.28129 3.28885,1.5263 2.47632,0.55502 2.74507,-1.34004 4.40387,-3.90011 2.24007,-3.45385 3.22635,-3.16885 3.00009,-6.18018 -0.19126,-2.55258 -1.25004,-7.14521 -3.3001,-7.92023 -1.34753,-0.50877 -2.44382,-0.38251 -2.30631,-1.29879 0.21625,-1.45629 1.34504,-2.29131 -0.69377,-1.7013 -3.78386,1.09628 -10.17155,6.59644 -12.15785,9.67153 -1.90381,2.95009 -2.25132,3.64011 -5.84267,4.57888 -1.46255,0.38252 -4.30013,0.98128 -5.10015,-0.15 -0.64627,-0.91253 -0.69252,-2.61883 -1.20003,-4.05012 -0.25126,-0.70627 -5.46641,-7.19521 -8.28024,-7.65022 -2.47133,-0.39876 -5.2114,0.88378 -6.27019,2.10006 -3.30509,3.79886 -7.50271,13.04538 -3.4501,16.35047 1.00503,0.82003 2.65633,1.29879 4.50013,1.50005 1.63255,0.17875 9.47028,-0.82253 10.65031,1.05003 0.12876,0.205 0.25501,0.48001 0.37501,0.79002 z m -5.32515,-10.4503 c 0.34376,1.23253 -0.19501,1.33754 -1.68005,0.96003 -2.55132,-0.64877 -4.44388,-1.07753 -5.22015,-2.59758 -0.24751,-0.48501 -0.29626,-0.98378 0,-1.30254 1.38629,-1.48879 4.87514,0.21376 6.40894,2.13757 0.2175,0.2725 0.42876,0.57626 0.49126,0.80252 z m 29.20334,-5.94017 c 1.16629,1.02378 2.08381,3.02634 1.69755,3.30009 -0.37876,0.26876 -3.73386,-0.94502 -4.20012,-1.98005 -0.27751,-0.61377 0.43001,-1.09254 1.26004,-1.32004 0.43876,-0.12001 1.00878,-0.20501 1.24253,0 z m -88.09629,26.96828 c -4.13762,1.9663 -14.85793,3.69885 -18.58429,3.21634 -2.39282,-0.30876 -9.527025,-2.66008 -11.094446,-3.75011 -3.4128483,-2.37132 -6.6845683,-9.00026 -6.7501953,-12.75037 -0.07375,-4.20387 1.650048,-11.70034 1.650048,-11.70034 0,0 -0.895401,-0.13875 -1.602046,0 -1.100657,0.21626 -4.726137,12.79662 -4.998145,15.59546 -0.497139,5.11139 3.213218,13.29038 7.312212,16.36672 4.0783673,3.06134 11.8728423,4.36763 15.9988423,4.04012 11.19532,-0.89253 16.10046,-2.31632 21.10436,-9.71529 2.23256,-3.30259 3.37509,-5.59016 2.98633,-8.49024 -0.65002,-4.83889 -4.46388,-6.44394 -9.24027,-6.69644 -4.03136,-0.21126 -5.96142,1.06128 -9.36027,-0.45002 -0.97127,-0.43126 -2.19006,-1.09378 -2.19006,-1.09378 0,0 0.98878,-1.24878 1.89006,-2.20631 2.33631,-2.48132 8.9465,-6.16643 12.30035,-6.15018 5.17765,0.0275 4.30137,2.47257 7.35021,7.50022 1.20129,1.98255 3.11884,2.04506 6.45019,2.10006 1.16503,0.02 2.14381,0.0325 3.00009,-0.60002 0.56751,-0.41876 1.07878,-1.12003 1.57504,-1.77255 l 1.92756,-2.53382 5.46266,3.6026 c 3.15884,2.08381 5.36515,4.10887 7.63647,2.80383 1.7863,-1.02503 6.02017,-7.81648 6.07517,-11.15407 0.035,-2.12381 -1.9138,-9.39027 -2.42632,-10.14655 -0.92753,-1.36503 -1.80505,-0.35126 -3.4576,1.90506 -0.99753,1.36254 -1.8463,2.54507 -2.12256,4.03262 -0.48751,2.61382 0.62877,5.13014 -1.57255,4.86264 -1.27378,-0.15376 -4.77638,-2.00881 -5.09764,-2.70008 -0.46752,-1.00128 -0.25001,-2.53132 -1.50255,-2.10006 -0.64626,0.22375 -2.42882,2.40757 -2.89758,3.30009 -0.54252,1.03378 -0.60877,2.18257 -1.20003,2.70008 -0.96878,0.84878 -5.77017,-0.1275 -7.05021,-1.50004 -1.06128,-1.13628 -1.58129,-3.3751 -2.55007,-5.10015 -3.11509,-5.54141 -10.49281,-2.54382 -15.30044,0.45001 -4.92015,3.06384 -8.30899,5.68892 -10.65031,9.75029 -1.72755,2.99758 -1.91131,3.7526 -2.25007,6.72019 -0.38863,3.39885 0.68252,4.79764 4.20012,5.73017 4.85639,1.28878 9.78654,-0.73628 13.6504,1.65004 1.14253,0.70752 2.75383,1.91631 2.59132,3.3351 -0.0375,0.33126 -0.16375,0.42626 -1.26378,0.94878 z m 64.0881,-69.78827 -0.18126,1.41504 -2.90258,-0.66002 -3.96761,-0.90127 c -1.18504,-0.27001 -1.33879,-0.31876 -1.54005,-0.48627 -1.16378,-0.97253 0.22876,-1.8288 1.50254,-2.73383 2.66258,-1.8913 4.65514,-2.19881 6.52144,0.37001 0.25876,0.35751 0.50377,0.67502 0.60002,1.20004 0.09,0.49751 0.0462,1.18128 -0.0325,1.7963 z m 9.71028,17.93677 c 0,0 2.41382,1.65505 3.22259,2.61757 0.49377,0.58877 1.09629,2.23007 1.20004,3.14384 0.13875,1.24129 0,3.00634 0,3.00634 0,0 -1.49629,0.07 -2.40632,0 -1.7963,-0.1375 -3.08634,-1.59129 -3.89386,-3.00009 -1.44005,-2.51007 -3.07134,-15.21793 -4.35013,-17.10049 -0.42126,-0.61877 -0.93003,-1.11878 -1.35879,-1.60005 l -1.27254,-1.43129 0.83628,-2.35632 c 0.28251,-0.79377 0.61002,-1.66879 0.74502,-2.60382 0.19251,-1.34879 -0.009,-5.0664 -0.45001,-5.8089196 -0.97753,-1.63880003 -3.3926,-2.70508003 -5.31016,-2.40007003 -4.13887,0.65877 -6.89145,4.03511963 -8.19023,8.40024963 -1.06878,3.59135 -0.74127,5.09139 3.15009,5.85016 0.43626,0.085 0.85127,0.15126 1.22753,0.21501 l 3.04884,0.51127 -2.33382,1.8388 c -0.82252,0.64752 -2.00255,1.39379 -3.18384,2.08506 -6.97645,4.08012 -31.38841,12.48161 -39.36114,13.8254 -7.82022,1.31879 -20.00182,2.34632 -22.09938,3.4251 -0.99253,0.51126 -1.92506,1.28003 -1.50005,2.05256 0.22501,0.41126 0.87253,0.63502 1.59505,0.79752 2.62007,0.59002 16.18297,-0.84002 22.19064,-1.7688 8.20274,-1.26629 36.06604,-11.13657 42.58748,-16.55173 0.65752,-0.54627 1.23504,-1.05753 1.75255,-1.50879 l 2.95634,-2.57633 1.32879,1.44379 c 0.2875,0.33501 0.46126,0.57752 0.64126,0.86128 1.40504,2.22756 3.75136,16.88174 5.10015,18.90055 2.32007,3.4726 4.84764,4.39637 8.74025,1.78755 3.29385,-2.20632 3.67636,-8.67775 1.16004,-13.18788 -1.04253,-1.86756 -3.13634,-3.73636 -4.20012,-2.10007 -0.64377,0.99003 -1.57255,3.2326 -1.57255,3.2326 z"
     style="fill:#000000;stroke:none" />
</svg>
