<?xml version="1.0" encoding="UTF-8" standalone="no"?>
<svg>
    <path
       style="fill:#000000;stroke:none"
       d="m 2.79244,50.88289 -2.59867,0.23639 c 0.28061,22.70937 -5.35746,37.52361 28.46946,31.25875 3.7638,-0.69695 7.87683,-1.7477 10.24217,-3.05161 0.68779,-0.37973 1.31001,-0.76709 1.88037,-1.13768 l 4.58427,-2.98298 2.28756,2.06033 c 0.8647,0.77777 1.09346,1.29781 2.51175,1.75227 1.61196,0.51852 6.46617,-0.20283 10.13084,-0.61459 2.15793,-0.24248 3.48319,-0.2196 4.24724,-1.37406 1.29323,-1.95663 1.26273,-3.55944 2.32263,-2.7771 0.70915,0.52309 1.77667,1.88953 2.7344,2.67187 1.8819,1.54029 6.20996,2.47362 7.72585,2.70847 1.7355,0.26841 8.3313,-1.09802 9.29665,-1.9246 1.62722,-1.39541 5.19276,-7.74263 7.55505,-11.76111 0.84182,-1.43201 0.91502,-1.77514 0.73659,-3.42524 -1.2307,-11.3707 -3.0333,-26.28559 -3.14005,-34.16243 -0.0534,-3.93918 0,-8.36179 0,-8.36179 0,0 0.2562,0 0.97145,0 3.28646,3.34441 4.23351,3.58689 4.22436,2.49191 C 92.20708,13.97082 96.73798,-9.04967 86.71541,3.9147 c -1.1697,1.19716 -2.1747,2.41872 -2.31501,2.96315 -0.1464,0.57037 -0.0122,0.99738 0.22723,1.56012 0.8159,1.92918 2.84878,6.31519 2.84725,8.17879 -0.001,1.8575 -0.94705,3.35052 -1.68059,4.93046 -0.69999,1.50979 -0.76557,1.86207 -0.65577,3.51827 l 2.95095,44.11636 c 0,0 -3.08363,0.0931 -5.40931,0 -5.77838,-0.2318 -9.09992,-2.49344 -10.2681,-7.99273 -0.83877,-3.95138 -0.20436,-9.97834 -2.97535,-7.99274 -1.68517,1.20783 -4.54157,8.3191 -4.70933,11.43628 -0.09,1.65924 0,3.9346 0,3.9346 0,0 -2.45989,0 -4.08253,0 -1.52962,0 -7.33545,0.54597 -7.91954,-1.76447 -0.19825,-0.78387 -0.23028,-1.81175 -0.55511,-2.27841 -0.63594,-0.91197 -2.68255,0.23943 -4.55225,1.51436 -6.34111,4.32197 -11.19684,5.40017 -18.84034,6.13677 -1.64247,0.1586 -3.22547,0.25468 -4.66815,0.28975 C 9.98148,72.81145 2.07872,67.19778 2.69179,52.79224 2.72229,52.08005 2.75889,51.41361 2.79244,50.88289 z M 130.84856,36.60242 c -2.37297,1.54639 -3.67993,2.58646 1.58909,1.76447 1.44879,-0.22418 2.77862,-0.60697 4.01695,-1.11786 3.71805,-1.53114 18.31116,-15.74756 20.35472,-19.21551 0.46208,-0.78539 0.65424,-0.62526 2.22808,3.83701 0.12353,0.35228 0.24553,0.72592 0.36906,1.11328 2.9357,9.20819 -0.20588,12.4367 -1.84377,20.70699 -0.64662,3.25901 -0.36906,5.68078 2.24943,6.76356 3.14006,1.29628 5.05704,-0.78387 5.7433,-4.55072 0.28061,-1.54792 0.0885,-3.17056 -0.61611,-4.05661 -1.13311,-1.42896 -3.92088,-1.8575 -4.58275,-3.01195 -0.41938,-0.73355 0.68627,-2.88386 1.50979,-4.98079 1.75075,-4.45769 1.41981,-10.75306 -0.30806,-14.75476 -0.82504,-1.91393 -1.57079,-3.19649 -1.9734,-4.4577 -0.94247,-2.94332 4.25486,-14.60226 -1.35271,-14.60226 -1.43201,0 -3.54724,0 -3.54724,0 -1.65925,0 -1.91545,0.0228 -2.55902,0.23028 -4.01391,1.28714 -5.27969,6.94809 -5.01586,10.22235 0.1098,1.34051 0.52766,2.86098 1.53724,3.68755 1.20326,0.98517 2.25859,1.33441 2.98756,1.58909 1.81937,0.63594 3.36576,-0.31873 -0.30959,3.58537 -0.0748,0.10065 -0.1525,0.19673 -0.2318,0.29128 -7.87989,9.33172 -18.76258,15.99158 -20.24491,16.95693 z M 158.79187,6.18854 c 0.41939,0.2318 0.032,1.0843 -0.25468,1.90325 -0.9562,2.72524 -0.75185,3.65094 -1.90935,3.51521 -2.23114,-0.26078 -6.58208,-2.61391 -5.82871,-4.39821 0.76557,-1.81175 5.90648,-2.17776 7.99274,-1.02025 z M 134.8125,56.21875 c 2.193,0.0915 9.34963,3.60952 9.84375,7.75 0.12657,1.06295 0,2.46875 0,2.46875 0,0 -3.90984,0.84816 -8,1.21875 -4.31586,0.39193 -8.84121,0.25463 -11.21875,0.125 -1.59214,-0.0869 -2.4539,-0.05319 -1.53125,-2.21875 0.17386,-0.41023 0.44346,-0.67899 0.75,-0.96875 3.87055,-3.67382 7.51793,-8.48633 10.15625,-8.375 z M 104.15625,0 c -0.62622,0.11687969 -1.52078,1.1795575 -2.84375,3.71875 -0.53529,1.02788 -1.11874,2.1665 -1.5,3.15625 -0.59781,1.5525 -0.64106,1.90631 -0.53125,3.5625 0,0 1.72371,28.21682 2.625,41.6875 0.30044,4.49277 0.28094,20.18317 4.59375,21.40625 1.06905,0.30348 2.20923,0.62869 3.09375,0.90625 1.55554,0.48801 2.32304,0.79549 2.625,1.375 -2.21284,7.13567 -0.92492,5.66831 3.53125,0.625 0.1281,-0.14487 0.51544,-0.17299 1.84375,-0.21875 4.6102,-0.16318 9.88169,-0.48961 13.84375,0.0625 3.35813,0.46971 8.15438,1.12131 10.75,-0.9375 1.59061,-1.26121 3.08497,-3.9207 4,-4 0.88604,-0.0763 1.46666,2.09319 2.78125,3.40625 0.0381,0.0381 0.0739,0.05716 0.15625,0.09375 3.28494,1.47776 8.15283,0.71947 10.8125,-0.96875 0.0748,-0.0472 0.13792,-0.08072 0.21875,-0.125 6.5226,-3.61587 16.53855,-2.15411 17.28125,-1.8125 0.13725,0.0641 0.27585,0.14097 0.4375,0.21875 1.21088,0.58409 2.72916,1.36167 3.34375,2.21875 0.74422,1.03397 0.54953,2.02395 2.375,1.28125 0.91503,-0.37211 4.00683,-5.84544 4.09375,-7.25 -2.44615,-11.153048 -11.13599,-13.647716 -19.52628,-7.145023 -2.74827,2.140779 -5.40556,4.427107 -9.62992,5.176273 -0.98212,0.0915 -1.90978,0.10875 -2.5625,0 -2.09235,-0.34924 -5.8125,-1.71875 -5.8125,-1.71875 l 0.5,-6.6875 c 0.12658,-1.65619 0.0993,-1.96602 -0.25,-3 -1.2246,-3.62655 -4.44633,-5.84186 -6.96875,-6.71875 -3.31696,-1.15446 -6.14681,-1.6867 -8.625,0 -2.46904,1.67906 -6.875,6.03125 -6.875,6.03125 0,0 0.62573,-3.92954 0.71875,-8.3125 0.15403,-7.27445 -3.0625,-25.09375 -3.0625,-25.09375 l 0.21875,0 c 5.40169,2.30129 5.84257,2.71535 5.03125,1.75 -3.08211,-3.66772 -3.53336,-16.81583 -3.9375,-21.53125 -0.0594,-0.7 -0.0937,-1.125 -0.0937,-1.125 0,0 -1.43627,0.06161 -2.53125,0.34375 -2.74355,0.70457 -6.51517,6.26806 -6.6875,6.8125 -0.69999,2.19453 1.52719,8.3897 2.125,13.25 0.44989,3.6662 -0.20652,7.13638 -0.28125,10.84375 -0.2074,10.40383 5.04952,24.08017 1.53125,32.6875 -0.85249,2.08626 -1.45018,2.26924 -3.875,1.84375 -5.92173,-1.03855 -7.66878,-2.18654 -8.6875,-6.21875 C 107.47445,55.90163 105.62353,34.35888 105.5,25.6875 105.4313,20.84397 105.37273,13.04909 105.34375,8.75 105.3355,7.6622675 106.0349,-0.35063906 104.15625,0 z m -77.87819,82.4192 -7.5764,7.5764 7.5764,7.5764 7.57488,-7.5764 -7.57488,-7.5764 z m 32.89817,10.66614 4.48667,4.48666 7.5764,-7.5764 -7.5764,-7.5764 -4.48667,4.4882 -4.48666,-4.4882 -7.5764,7.5764 7.5764,7.5764 4.48666,-4.48666 z M 65.99774,22.82825 65.3557,10.55015 C 65.2596,8.72925 65.22149,8.41205 64.97901,7.38112 64.23479,4.21818 62.23242,2.48574 60.13853,1.36788 c -2.66272,-1.42286 -4.69407,-1.95052 -7.43762,0.0504 -2.25706,1.64704 -2.46904,7.6069 -1.58146,8.5387 0.66186,0.69542 2.41414,0.63289 4.53699,0.13421 5.30104,-1.24444 5.83176,-0.95773 7.21192,4.64832 0.65576,2.66272 0.73354,5.15921 0.41176,7.83871 -0.68627,5.6884 -2.29671,8.45634 0.86012,11.79618 1.31306,1.38931 2.68407,1.59977 5.68078,0.98365 2.12743,-0.43921 2.54986,-1.42743 3.44354,-4.37534 0.62831,-2.07558 1.12395,-3.93308 0.96382,-6.00256 -0.32026,-4.1054 -4.75812,-11.82058 0.59172,-13.73603 0.9867,-0.35381 2.27078,-0.12353 3.37644,0.11736 1.49149,0.32484 1.74464,0.17843 2.53156,-1.47319 0.6451,-1.35728 1.39389,-2.60629 1.80413,-4.0688 1.54334,-5.48405 -0.81895,-7.03196 -5.5603,-4.78558 -5.43982,2.57732 -7.88293,13.61861 -6.72085,21.02268 0.35533,3.05008 0.74574,5.7982 0.74574,5.7982 0,0 -0.32483,-0.002 -0.71219,-0.0411 -1.52352,-0.15098 -4.13896,-2.17166 -4.28689,-4.98536 z m -13.13975,21.92703 -6.92673,6.88251 c -1.15141,1.14378 -1.31611,1.34813 -1.63789,2.0527 -0.45142,0.9867 -0.60697,2.63527 -0.38584,2.85945 0.71829,0.7244 3.25444,-1.03397 4.13743,-1.68517 7.73348,-5.70212 11.25633,-9.29512 12.50686,-16.68089 0.63594,-3.75312 -1.35118,-5.20648 -4.86793,-5.68535 -5.58012,-0.75947 -11.11754,0.0183 -13.28462,4.21826 0.33855,16.04038 0.81437,6.86726 5.54657,5.72958 5.26291,-1.26731 10.92386,-4.08101 4.91215,2.30891 z m 36.53234,49.0148 c -1.10108,3.32916 -0.57189,4.27621 1.87123,3.59452 1.66229,-0.46361 23.50392,-8.84524 26.98254,-11.84957 1.40151,-1.21088 2.97383,-3.49844 3.74855,-5.66094 0.47581,-1.33137 0.0564,-1.34967 -1.51132,-1.03856 -3.63112,0.7183 -28.442,10.81101 -29.35093,11.93954 -0.84792,1.05381 -1.46708,2.18844 -1.74007,3.01501 z" />
</svg>
