<?xml version="1.0" encoding="UTF-8" standalone="no"?>
<svg>
  <path
     d="m 0.03973067,20.525286 c 0.0618834,0.597581 0.17139826,1.18266 0.32754446,1.738986 1.48295127,5.275716 5.15469967,4.399347 8.27824857,3.625492 l 2.1421653,-0.530072 0.430059,-0.926376 c 0.386302,-0.832613 0.692594,-2.030275 0.835113,-2.997907 0.247534,-1.688979 0.387553,-2.320315 0.387553,-2.320315 0,0 -1.536459,0.485066 -2.109037,0.666341 C 7.1840754,20.77657 5.0260325,21.410406 2.7916042,18.455005 1.7302101,16.387224 2.5425704,13.6306 3.932134,11.164015 5.6013605,8.201113 8.8416754,3.764261 9.1828467,2.140291 9.2794847,1.680228 9.4590092,0.373801 9.332867,0.135018 9.2206018,-0.077511 8.9174356,-0.008751 8.6127693,0.135018 8.3274806,0.270037 8.0281899,0.491317 7.7205232,0.782606 4.079779,4.233075 -0.47296392,15.578364 0.03973067,20.525286 z m 87.44336833,18.017446 0.640087,-0.01125 c 0.287539,-0.005 0.36505,-0.180024 0.771355,-1.750238 2.340318,-9.033726 2.767876,-14.023153 -2.989156,-19.816439 -0.947628,-0.95388 -2.052778,-1.755239 -2.764125,-0.900123 -0.482565,0.581329 -0.975132,4.676885 -0.755102,5.570757 0.385052,1.563962 1.525207,2.071531 2.842885,3.134175 2.975404,2.397825 3.720505,4.19807 3.342954,7.392253 -0.291289,2.452833 -1.088898,6.380867 -1.088898,6.380867 z M 36.72246,100.02108 c 0.06126,0.59883 0.171273,1.18391 0.327544,1.73898 1.482701,5.27572 5.15445,4.4006 8.278624,3.62674 l 2.14154,-0.53132 0.430059,-0.92637 c 0.386302,-0.83137 0.692594,-2.02903 0.835113,-2.99791 0.247534,-1.68898 0.387553,-2.320315 0.387553,-2.320315 0,0 -1.536459,0.486316 -2.109037,0.66759 -3.146677,0.993885 -5.30572,1.627725 -7.539773,-1.32643 -1.061394,-2.06778 -0.248784,-4.824404 1.140155,-7.290989 1.670226,-2.962902 4.909416,-7.401005 5.250712,-9.023725 0.09751,-0.460063 0.276288,-1.76649 0.150021,-2.005272 -0.112515,-0.213779 -0.415057,-0.14377 -0.720098,0 -0.285039,0.133768 -0.583829,0.356298 -0.891371,0.647588 -3.640494,3.450468 -8.193612,14.794508 -7.681042,19.741433 z m 0.362549,-60.989532 4.320586,4.813153 6.364614,-7.089712 -6.364614,-7.090963 -4.320586,4.813154 -4.320587,-4.813154 -6.364614,7.090963 6.364614,7.089712 4.320587,-4.813153 z m 38.646495,-9.367522 -6.364614,7.090963 6.364614,7.089712 6.364614,-7.089712 -6.364614,-7.090963 z m 1.538959,65.545147 c 0,0 0.80761,0.165022 1.301427,0 0.282538,-0.09501 0.632586,-1.121402 0.912624,-2.197798 0.768854,-2.966653 0.291289,-4.773148 -1.717733,-7.030955 -0.716348,-0.805109 -1.526458,-1.325179 -2.296562,-1.132653 -0.196277,0.05001 -0.401305,0.142519 -0.612583,0.268786 -3.31545,1.995271 -7.383502,11.727842 -6.323359,15.848397 0.265036,1.02764 0.686344,2.02903 1.147656,2.82164 2.836635,4.86816 14.355699,0.25878 17.539881,-1.00389 0.723848,-0.28754 1.258921,-0.52882 1.47645,-0.68134 1.683979,-1.17391 2.889143,-2.86414 3.574236,-5.045686 1.247669,-3.97304 0.898872,-5.640766 -1.361435,-8.893707 -0.788857,-1.135155 -1.532708,-1.83525 -2.229053,-1.151407 -0.507569,0.498818 -1.435195,2.955401 -1.210164,3.920532 0.112515,0.480066 0.508819,0.856367 0.732599,1.562712 0.133769,0.425058 0.203778,0.970132 0.237533,1.531458 0.190025,3.23794 0.290039,2.9454 -1.707732,3.480473 -2.509091,0.670091 -13.33681,4.704385 -15.598367,0.880119 -0.685093,-1.157657 -0.547575,-2.690365 -0.01625,-3.845522 0.28879,-0.626335 0.597581,-1.138904 1.050143,-1.670226 0.291289,-0.343797 0.782606,-0.748852 1.296426,-1.10515 1.686479,-1.167659 3.090419,-1.378938 3.579236,1.33143 0.178774,0.988885 0.22503,2.112787 0.22503,2.112787 z M 27.707486,77.905574 c 11.003993,-1.013887 17.397361,-3.896779 25.827256,-9.227502 1.427693,-0.902623 3.936784,-2.86914 5.687021,-4.386846 0.311293,-0.268786 5.779535,-7.3685 5.552004,-3.429215 -0.02375,0.403805 -0.04626,0.877619 -0.06376,1.385188 -0.235032,7.0022 3.429216,11.252777 9.836335,12.042885 1.8365,0.227531 5.650767,-0.655089 8.311129,-2.081533 1.670226,-0.893871 4.048049,-5.145698 5.483244,-7.988584 1.660225,-3.285446 1.413942,-2.712868 0.710096,-6.348362 -0.58758,-3.031661 -1.190161,-6.064573 -2.029025,-9.007473 -0.730099,-2.560347 -1.275173,-3.584236 -2.400326,-2.005272 -1.608968,2.259057 -2.555347,5.435738 -2.850387,7.419757 -0.03625,0.240033 -0.04876,0.620085 -0.04501,1.082647 0.035,4.045549 4.773148,8.487402 -0.346297,9.746323 -0.307542,0.06876 -0.606332,0.116266 -0.868868,0.133768 -0.07876,0.005 -0.157521,0.0088 -0.236282,0.0125 -4.891914,0.202528 -12.554204,-3.901779 -10.961488,-10.322651 0.06001,-0.241283 0.115016,-0.506319 0.156271,-0.802609 0.132518,-0.962631 0.120017,-2.257806 0.08001,-3.227938 -0.110015,-2.761625 -1.999021,-0.863867 -3.135425,0.04626 -0.420057,0.337546 -0.850116,0.681343 -1.280174,1.02764 C 53.482234,61.355828 32.289358,75.36898 16.660987,66.521529 13.986874,65.007574 11.175242,62.898537 9.6112798,60.895766 7.1733239,57.774092 6.2040674,52.512128 6.4607272,49.199178 6.6697556,46.501312 7.2752127,42.870819 7.7827816,40.125446 7.9520546,39.210322 9.2287279,30.57165 6.2448229,39.669134 5.9486577,40.573007 5.6558679,41.500633 5.3724545,42.447011 -1.2733226,64.635023 4.1819179,80.074619 27.707486,77.905574 z m 4.361842,-55.382517 c -8.496153,4.768147 -19.628914,11.962874 -19.620163,21.400405 0,0.391303 0.04751,0.732599 0.14877,1.001386 0.59258,1.562712 5.053186,4.803152 6.150835,3.229188 0.998885,-1.432694 1.216415,-4.111808 0.607582,-4.671884 -1.542709,-1.415192 -3.83052,-0.603832 -3.407962,-2.28156 2.910395,-11.552818 44.040978,-25.587223 51.478237,-28.245084 1.462699,-0.52257 2.582851,-0.805109 2.511591,-0.407555 -0.03125,0.172524 -0.08751,0.371301 -0.153771,0.575078 -0.335045,1.03139 -0.930126,2.171545 -1.228917,3.280445 -0.310042,1.151407 -0.627585,5.439489 -0.0225,6.208343 0.425058,0.540073 0.751352,0.09751 0.922626,-0.526321 0.06251,-0.226281 0.108764,-0.456312 0.145019,-0.690094 0.691344,-4.455605 4.63938,-7.506019 8.269873,-9.732571 3.460469,-2.122788 6.2646,-2.812882 9.453783,-6.825926 1.003886,-1.263922 1.817747,-2.476587 1.974018,-3.097921 0.06251,-0.252534 0.102514,-0.473814 0.110015,-0.642587 0.0225,-0.51632 0,-1.070145 0,-1.070145 0,0 -0.462563,-0.01875 -1.10015,-0.02625 0.14502,0.0025 -12.424186,4.78565 -24.449568,9.347519 C 52.63587,13.606847 40.33545,17.883677 32.069328,22.523057 z m 6.138333,-6.183339 c 0.930126,-1.782742 -0.623835,-5.146949 0.436309,-6.149585 0.495068,-0.470064 1.180161,-0.603832 2.200299,-0.217529 0.110015,0.04125 0.22253,0.08126 0.333795,0.115015 1.607719,0.481316 4.34184,0.05376 5.120695,-1.176409 1.208914,-1.90901 0.908874,-5.484495 -0.288789,-6.410871 -7.932327,-6.140833 -8.718683,0.673842 -9.935098,7.29349 -0.252535,1.371436 -0.643838,2.420329 -1.730235,1.791494 C 34.024593,11.399047 33.77581,10.916482 33.604536,10.342654 33.124471,8.733685 29.381463,-4.103057 23.948226,1.333931 22.222991,3.061666 21.1841,6.248348 21.32912,8.976218 c 0.342547,6.453376 6.613398,2.616606 8.904959,2.432831 0.918875,0.715097 1.03264,2.126538 1.356434,3.002907 0.29379,0.796358 0.51757,1.375187 0.745101,1.802745 2.657861,4.961923 5.308221,1.206414 5.872047,0.125017 z"
     style="fill:#000000;stroke:none" />
</svg>
