<?xml version="1.0" encoding="UTF-8" standalone="no"?>
<svg>
  <path
     d="m 16.412007,59.91631 0.21638,-2.66125 -3.776254,0.84375 C -5.5027585,62.20256 8.7127545,30.98503 5.1961265,36.69629 c -4.050254,6.57875 -5.82175505,14.43126 -4.99925405,21.45627 0.08962,0.76625 0.1875,1.46375 0.307,2.1025 C 2.4197495,70.49632 15.781257,67.69881 16.412007,59.91631 z m 11.36014,-13.77751 -6.10126,6.06125 c -1.01375,1.0075 -1.15875,1.1875 -1.4425,1.80875 -0.3975,0.86875 -0.535,2.32125 -0.33875,2.51875 0.63125,0.63751 2.86626,-0.91125 3.64376,-1.48375 6.81125,-5.02375 9.91376,-8.1875 11.01501,-14.69251 0.56,-3.30625 -1.19126,-4.585 -4.28876,-5.0075 -4.91375,-0.66876 -9.79001,0.0163 -11.70001,3.71625 0.29875,14.12626 0.7175,6.0475 4.88501,5.045 4.63625,-1.11625 9.62125,-3.59375 4.3275,2.03376 z m 3.66125,-26.06753 -0.56625,-10.81376 c -0.085,-1.60375 -0.1175,-1.88375 -0.33125,-2.7925 -0.655,-2.785 -2.41875,-4.31126 -4.26375,-5.29501 -2.34375,-1.2525 -4.13376,-1.71875 -6.55001,0.045 -1.9875,1.45001 -2.175,6.69876 -1.39375,7.52001 0.5825,0.6125 2.1275,0.5575 3.99625,0.1175 4.66876,-1.09625 5.13626,-0.8425 6.35251,4.09375 0.5775,2.34626 0.64625,4.54501 0.3625,6.90376 -0.60375,5.01126 -2.0225,7.44876 0.75625,10.39001 1.1575,1.22375 2.365,1.41 5.00376,0.86625 1.875,-0.38625 2.2475,-1.2575 3.0325,-3.85375 0.55375,-1.8275 0.99125,-3.46376 0.85,-5.28626 -0.28125,-3.615 -4.19,-10.41001 0.52125,-12.09876 0.86875,-0.31125 1.99875,-0.1075 2.97375,0.10375 1.31375,0.28625 1.53625,0.1575 2.22876,-1.2975 0.57,-1.195 1.2275,-2.295 1.59,-3.5825 1.36,-4.83126 -0.72125,-6.19376 -4.89751,-4.21501 -4.79125,2.27001 -6.9425,11.99501 -5.91875,18.51502 0.3125,2.6875 0.65625,5.10751 0.65625,5.10751 0,0 -0.28625,-0.004 -0.6275,-0.0375 -1.34125,-0.13125 -3.64501,-1.91251 -3.77501,-4.39001 z m 134.765133,-9.04876 -6.10251,6.06126 c -1.01375,1.0075 -1.1575,1.1875 -1.44125,1.80875 -0.3975,0.86875 -0.535,2.32125 -0.34,2.5175 0.6325,0.63875 2.86625,-0.91 3.645,-1.48375 6.81126,-5.0225 9.91376,-8.18626 11.01501,-14.69126 0.56,-3.30626 -1.19125,-4.58501 -4.28875,-5.00751 -4.91376,-0.66875 -9.79126,0.015 -11.70001,3.71501 0.2975,14.12751 0.7175,6.04875 4.885,5.04625 4.63626,-1.11625 9.62126,-3.59375 4.32751,2.03375 z m -32.48378,11.05626 4.4475,4.44751 6.87376,-6.87376 -6.87376,-6.87501 -4.4475,4.44751 -4.44751,-4.44751 -6.875,6.87501 6.875,6.87376 4.44751,-4.44751 z m 0,-22.07877 -6.87501,6.87501 6.87501,6.87376 L 140.5885,6.87501 133.71475,0 z m 14.61251,91.78509 4.44625,4.4475 6.87501,-6.87501 -6.87501,-6.87375 -4.44625,4.4475 -4.4475,-4.4475 -6.87501,6.87375 6.87501,6.87501 4.4475,-4.4475 z M 81.499697,0 l -6.87376,6.87501 6.87376,6.87376 6.87501,-6.87376 L 81.499697,0 z m 85.187583,24.92628 -6.87501,6.87375 6.87501,6.87501 6.875,-6.87501 -6.875,-6.87375 z m 1.70125,69.02506 c -0.13625,0.4375 -0.245,1.37125 0,1.83375 0.26,0.4875 0.7075,0.53625 1.24375,0.33875 l 9.29626,-7.13626 c 0.68125,-1.1125 1.26,-2.34875 1.49,-3.2275 0.2875,-1.0925 -0.0813,-1.12375 -1.315,-0.71 -2.10125,0.70625 -8.34126,4.84001 -9.28251,6.15251 -0.68625,0.95625 -1.20125,2.01 -1.4325,2.74875 z m -34.57628,-3.90625 c -1.79,0.0462 -4.01376,0.10375 -6.47376,0.16875 -5.71,0.1475 -30.307533,0.8425 -33.280033,0.695 -2.635,-0.13125 -4.13625,-0.52125 2.9125,-1.61876 0.4425,-0.0688 0.86625,-0.1375 1.21125,-0.22 1.24626,-0.3 2.261263,-1.55 3.151263,-3.15125 0.97875,-1.75875 2.42875,-5.59 3.48125,-3.7675 0.695,1.205 0.705,2.7025 2.2475,0.33 1.7125,-2.63125 2.495,-5.09751 -0.0575,-6.30126 -1.2525,-0.59125 -3.385,1.4025 -5.09875,4.58251 -1.5575,2.89375 -1.2725,4.09125 -3.906263,4.58375 -1.54625,0.28875 -3.57625,0.0825 -5.66,0 -2.57875,-0.1025 -10.53751,1.37875 -11.32501,2.1075 -0.2725,0.25375 -2.60875,5.09501 -1.73625,6.68001 1.18125,2.14875 18.71626,2.08625 19.90627,2.09625 1.237503,0.0113 20.228763,0.0263 29.487523,-1.33 -2.215,0.325 20.63877,-5.25751 5.14001,-4.855 z M 70.865937,39.07129 c 0.38125,-0.63625 0.75125,-1.19 0.99375,-1.545 3.21,-4.70126 27.84003,-35.69504 41.075043,-33.79878 3.1175,0.44625 3.655,1.3825 3.20875,4.4525 -0.2725,1.8675 -0.5625,3.80625 -0.995,5.67501 -2.40625,10.39501 -9.83126,12.38126 -9.78876,12.30001 0.77125,-1.47875 1.82,-3.14501 2.8775,-4.66876 1.98876,-2.86375 5.26751,-6.75125 4.01001,-8.02 -0.5675,-0.57251 -3.04001,-0.49876 -4.97251,0 -6.6475,1.7175 -13.000013,8.40125 -17.791263,13.83001 -0.0137,0.0163 -9.39126,9.93501 -11.64751,14.08001 -0.75876,1.39375 9.53875,1.8475 12.97876,0.80625 0.0775,-0.0238 0.15625,-0.0475 0.23625,-0.0725 1.82875,-0.56875 4.685,-1.60625 4.685,-1.60625 0,0 -3.23,-1.5825 -4.11125,-2.7825 -0.475,-0.64625 -0.26875,-1.18125 0,-1.91375 1.2425,-3.39626 1.68375,-5.28251 4.01,-6.58751 0.93,-0.5225 2.34125,-1.17375 3.54376,-1.70625 5.887503,-2.6025 -0.71626,4.1375 -1.31001,4.72875 -2.36375,2.35375 -3.71125,3.91126 5.010013,1.58125 1.425,-0.1425 3.0675,-0.3075 3.0675,-0.3075 0,0 0.035,1.0125 0,1.71876 -0.04,0.79375 -0.17,1.2025 -0.38625,1.6675 -2.3225,4.98625 -5.855003,7.085 -10.785013,8.645 -3.96375,1.25251 -10.02501,3.15001 -10.02501,3.15001 0,0 1.99625,1.70125 3.54626,3.29 3.40375,3.48875 4.655,6.43126 6.47875,8.45376 3.69125,4.09375 12.738763,4.62125 19.592523,4.01 1.705,-0.15125 10.04126,-0.88375 8.60751,-3.59 -1.05125,-1.985 -7.30626,-5.22626 -9.22126,-5.43376 -0.88,-0.0962 -1.26875,-0.1275 -2.06625,-0.1375 -8.91251,-0.11 -13.542523,2.69376 -10.22251,-7.785 0.46375,-1.4625 0.965,-2.69751 1.33,-3.10376 1.9625,-2.18125 6.745,-3.045 11.28626,-3.4375 9.37376,-0.80875 22.53502,-1.33375 30.85753,3.0625 2.7825,1.47 7.2325,4.42376 7.2325,4.42376 0,0 -1.925,4.285 -3.54625,6.83625 -1.135,1.78376 -2.64,3.13126 -4.46625,3.99626 -1.35875,0.645 -3.18501,1.49625 -4.59251,2.27375 l -3.3175,1.83 1.87625,1.6575 c 0.29875,0.265 0.67625,0.5075 1.11125,0.71875 3.86626,1.86625 14.78627,1.01375 17.40877,-3.02875 0.92875,-1.4325 1.43625,-3.895 2.34875,-4.58375 1.37,-1.0325 1.5725,1.6425 2.8075,3.4375 1.71875,2.4975 10.56126,4.2725 12.08751,4.5825 1.385,0.2825 1.72751,0.18 1.375,-1.145 -1.215,-4.56625 -2.26875,-4.39125 -1.71875,-8.13501 0.52625,-3.59125 3.25751,-10.245 5.38501,-9.05125 0.7025,0.39375 3.38625,10.14376 3.78125,13.73751 0.16375,1.4925 0.24625,2.56625 0,3.8375 -0.35625,1.83125 -3.65,7.80376 -5.15625,9.35001 -1.04,1.06625 -1.98875,1.64125 -3.30126,1.98 -0.255,0.0663 -0.925,0.0238 -1.84125,-0.0937 -2.47125,-0.31625 -10.91126,-1.77625 -12.91376,-3.41625 -0.59125,-0.48375 -1.1425,-0.985 -1.66875,-1.43125 l -2.5475,-2.1625 -1.78751,2.21625 c -0.32,0.39625 -0.71125,0.855 -1.23125,1.35625 -1.43625,1.38625 -6.0475,3.0125 -7.35125,3.27 -4.43751,0.87125 -11.83001,-0.495 -14.33252,-3.72375 -0.40625,-0.525 -0.85625,-1.17625 -1.2625,-1.79125 l -1.3125,-1.99 -3.39375,1.62625 c -1.9075,0.91375 -4.25501,2.0025 -6.06251,2.7275 -4.92375,1.97375 -8.65751,1.98125 -15.25751,1.09 -4.312513,-0.5825 -10.118763,-1.6525 -10.118763,-1.6525 0,0 -1.41625,3.93125 -2.70625,6.40876 -2.72001,5.22125 -8.62001,7.62875 -13.84252,6.24125 -10.42251,-2.77125 -11.42251,-11.39126 -12.49751,-23.54502 -0.64,-7.23626 -1.38,-16.72252 -1.975,-24.62127 -0.64,-8.47876 -0.11,-19.58252 -5.81625,-25.09878 -1.53751,-1.48625 -3.03126,-2.84875 -3.03126,-2.84875 0,0 -0.45,7.05626 -0.635,13.32751 -0.17875,6.08376 2.24625,35.54504 3.24626,49.98255 0.17125,2.47125 0.28625,5.00125 -0.38125,7.69376 -0.0625,0.2525 -0.15125,0.5275 -0.26001,0.8175 -1.31875,3.5025 -7.93,11.11126 -11.26751,12.74626 -6.27625,3.075 -14.97001,4.99625 -21.51626,3.805 -4.82251,-0.87625 -8.49976,-3.365 -11.067515,-6.87375 -5.2563795,-7.18251 -3.6282525,-14.73127 -0.593001,-23.30753 3.011626,-8.51125 -0.803,9.19501 5.916756,15.37877 2.82875,2.60375 6.92251,4.36875 10.70501,5.06375 3.4425,0.63375 14.55626,-0.56125 19.48877,-3.43625 1.5925,-0.92875 4.01125,-2.67 4.01125,-2.67 0,0 -1.345,-17.47377 -2.2925,-30.78628 -0.73625,-10.35626 -1.07125,-31.60378 -0.5725,-36.26253 0.37625,-3.50876 0.6725,-4.65751 2.005,-7.61876 2.63625,-5.86001 4.875,-8.00376 9.07376,-6.87501 1.10875,0.2975 6.21375,5.40251 6.68,6.68001 0.60876,1.665 0.38876,7.13751 0.28625,13.37001 -0.16125,9.80501 1.64626,26.08253 1.95876,28.81753 0.31375,2.735 0.65875,3.83625 0.65875,3.83625 l -0.0387,0 c 0,0 0.67,8.82376 2.005,13.17626 1.8175,5.93251 7.57376,10.54126 13.69126,9.73876 3.265,-0.4275 7.70126,-2.765 7.21876,-5.27 -0.28125,-1.45125 -6.94626,-9.81251 -10.58751,-12.14376 -6.63501,-4.24626 -15.73502,-10.12626 -10.17126,-19.42377 z m 64.930113,13.38126 c 1.33625,-0.77875 1.48875,-0.9 1.52375,-1.20875 0.0262,-0.23 0.0262,-0.485 -0.0388,-0.68875 -0.2275,-0.715 -4.66125,-2.33875 -5.54376,-2.47 -0.99125,-0.1487 -1.22375,-0.165 -2.3225,-0.165 l -3.11875,0 0.99375,1.78875 c 0.13,0.4425 1.25875,2.2725 1.9425,3.295 l 1.575,2.35875 2.88876,-1.685 2.1,-1.225 z"
     style="fill:#000000;stroke:none" />
</svg>
