<?xml version="1.0" encoding="UTF-8" standalone="yes"?>
<svg>
<path
	style="stroke:none; fill:#000000"
	d="m 48.75316,7.8534659 c 0.639,5.1699991 0.095,13.5320001 0.466,17.2830001 0.387,3.895 1.819,12.961 2.671,19.466 0.108,0.822 0.26,2.071001 0.395,3.486001 0.204,2.13 0.405,4.982 0.271,7.122 -0.062,0.986 -0.194,1.812 -0.426,2.352 -0.593,1.384 -1.504,2.607 -1.32,2.88 0.37,0.549 1.528,-1.108 2.484,-2.706 4.62501,-7.634 1.726,-17.295001 1.624,-20.030001 -0.156,-0.662 -0.326,-1.385 -0.508,-2.219 -0.996,-4.572 -1.199,-11.451 -1.827,-17.638001 -0.273,-2.687 -0.159,-4.998 0.171,-5.782 1.005,0.944 1.997,1.824 2.82601,2.547 l 1.419,1.236 -0.142,-1.151 c -0.16,-1.297 -0.861,-4.032999 -2.42701,-9.1999992 -0.67,-2.2090011 -1.718,-4.97600134 -2.098,-5.29700134 -0.384,-0.32399999 -0.945,-0.25599999 -1.488,0.181 -0.188,0.151 -0.393,0.344 -0.649,0.509 -2.248,1.45300014 -3.912,2.43500024 -2.648,5.11400144 0.262,0.555 0.682,1.182 1.206,1.847 z m 30.2169,66.3298271 4.074,4.073 5.862,-5.862 -5.862,-5.863001 -4.074,4.074 -4.073,-4.074 -5.863,5.863001 5.863,5.862 4.073,-4.073 z m 10.5019,-25.246715 5.862,-5.862 -5.862,-5.863001 -5.863,5.863001 5.863,5.862 z m -25.2637,-8 5.862,-5.862 -5.862,-5.863 -5.863,5.863 5.863,5.862 z m -21.7634,-5.050068 -4.881,4.849 c -0.811,0.806 -0.927,0.951 -1.154,1.447 -0.318,0.695 -0.428,1.857 -0.271,2.015 0.505,0.51 2.293,-0.728 2.915,-1.187 5.449,-4.019 7.931,-6.55 8.812,-11.753002 0.448,-2.645 -0.952,-3.669 -3.431,-4.006 -3.931,-0.536 -7.832,0.012 -9.36,2.972 0.239,11.301002 0.574,4.838002 3.908,4.036002 3.709,-0.892 7.697,-2.875002 3.462,1.627 z m 26.6273,-21.460918 c 0.2291,0.20234 0.4327,0.34104 0.6109,0.41994 0.8526,0.39195 1.1071,-1.36035 1.2089,-2.4013 0.1527,-1.541051 0.2418,-2.8912305 0.8271,-3.9550805 0.4963,-0.87679 1.1326,-1.37308 1.9852,-1.44307 1.8707,-0.15652 2.0361,-0.14889 2.2906,-4.15106 0.14,-2.20786994 -0.1527,-3.44733003 -2.7233,-2.65452998 -2.176,0.67063004 -4.0212,2.45346998 -4.3394,4.27066998 -0.8271,4.73388 -0.9162,1.80193 -2.2524,-0.95186 -0.878,-1.8286599 -2.3415,-2.60745994 -4.3139,-2.1480699 -0.1018,0.0293 -0.2163,0.0624 -0.3181,0.0993 -1.7816,0.61846 -2.1506,3.7082099 -1.5144,6.0318799 0.789,2.8123395 2.4688,3.3544395 4.2249,3.1737395 1.2598,-0.12853 1.9724,0.539561 2.316,1.061311 1.5016,2.23077 1.2471,2.00044 1.9979,2.64817 z M 39.56516,58.34 c -1.5016,-0.796997 -5.4465,-2.282444 -3.894,-3.894 3.0669,-3.172846 5.103,0.021 5.9428,3.921869 0.14,0.666816 0.026,1.083957 -0.9162,0.667579 -0.4072,-0.181974 -0.8399,-0.539561 -1.1326,-0.695448 z M 8.66766,86.829445 c 2.507,-0.640219 7.3554,-2.385647 7.7371,-2.568258 0.1909,-0.09111 0.3818,-0.189101 0.5727,-0.293832 7.5844,-4.120386 10.9694,-10.039775 11.2875,-19.885996 0,-0.07546 0,-0.151051 0,-0.226641 0.2036,-4.474536 1.6416,-1.176471 3.1305,-0.295613 0.5853,0.348297 1.1834,0.364967 1.8197,0.504948 5.9555,1.298254 8.5006,6.520286 10.804,2.481089 2.3669,-4.153855 3.3595,-8.524933 1.3616,-13.072642 -0.8399,-1.929566 -1.9725,-2.882832 -1.3489,-4.580158 0.4072,-1.105336 0.8017,-1.366591 0.5599,-2.317821 -0.7381,-2.85929 -4.9629,-1.240099 -7.2663,-0.08755 -3.7794,1.895461 -8.526,7.171195 -9.7604,11.157709 -0.5472,1.765662 -0.9035,3.964372 -1.0053,5.927788 -0.2927,5.087396 -3.4741,8.97287 -7.0372,11.761789 -4.8866,3.838262 -11.2494,7.164196 -16.6577,9.517648 -6.0319,2.627814 -1.7943,3.16203 5.8028,1.977541 z M 89.12247,58.425841 c -4.6448,0.738333 -9.98931,-1.780778 -11.3,-6.95 -0.4836,-1.934656 -0.4114,-2.826379 -0.475,-4.625 -0.051,-1.205995 -0.89211,-9.095888 -2.75,-9.85 -0.7763,-0.317501 -1.25731,0.724476 -1.55,1.925 -0.9671,3.961953 -0.9058,4.137212 0.125,7.85 0.1272,0.434576 0.0941,0.857361 -0.275,1.225 -0.649,0.6518 -3.521,1.491532 -3.75,1.525 -1.718,0.253619 -4.302,-0.526239 -5.6,-2.1 -1.9598,-2.393156 -2.89292,-5.009299 -4,-0.4 -0.5981,2.51443 -0.679,3.117889 -0.45,5.05 0.1146,0.985335 0.6519,3.142231 1.25,5.175 0.64263,2.209544 1.74401,5.754222 1.225,7.450001 -2.03901,3.177705 -4.82096,6.575492 -6.51517,7.998612 -3.38611,2.841482 -9.23465,7.273773 -10.58483,7.976388 -1.5144,0.789488 -3.432,1.703752 -5.15,2.55 -7.0499,3.466928 -5.1632,3.97184 -2.3,4.15 9.39392,0.585664 14.7911,-3.867928 21.5,-12.05 3.8583,-4.833093 6.58591,-9.412628 6.475,-15.600001 -0.089,-3.670285 -0.8269,-2.543464 2.1,-2.75 2.46869,-0.174592 4.8488,-0.899881 6.325,-3.425 1.6034,-2.738653 0.4244,3.195024 2.575,7.25 0.55989,1.056216 1.2501,1.8951 1.95,2.475001 3.66489,3.034264 4.9356,2.93174 9.275,2.65 3.00282,-0.511999 5.93048,-2.381988 7.79211,-4.909175 2.34616,-3.518864 2.28034,-8.871421 2.04636,-8.695802 -1.60882,2.333047 -4.79053,5.46334 -7.93847,6.104976 z M 83.12306,35.475527 c -0.364,2.27 0.078,2.827 1.588,2.131 1.027,-0.475 14.287,-8.189 16.224,-10.498 0.78,-0.929999 1.558,-2.575999 1.833,-4.055999 0.169,-0.912002 -0.105,-0.880002 -1.087,-0.515002 -2.275,0.846002 -17.277,9.979001 -17.747,10.804001 -0.439,0.771 -0.721,1.57 -0.811,2.134 z m 5.7245,-13.899681 c -0.1018,0.439029 -0.4581,0.791525 -0.9035,1.067669 -2.685,1.678492 -4.9375,1.105845 -5.841,-2.490379 -0.4708,-1.8172 -0.5981,-3.22973 -1.1453,0.0776 -0.1399,0.88442 -0.2672,1.838829 -0.2799,2.598541 -0.038,2.728345 1.6416,5.544114 3.6522,5.841763 2.316,0.340534 3.7922,-0.169885 5.0647,-2.292624 0.3564,-0.580282 0.7636,-1.309453 1.1326,-1.992812 1.6416,-3.028668 1.4253,-1.89228 4.3394,-2.132792 0.3309,-0.028 0.5599,-0.08908 0.9926,-0.225241 2.9396,-0.921325 3.2704,-3.155925 2.5578,-6.757235 -0.025,-0.1298 -0.051,-0.25578 -0.076,-0.38049 -1.2217,-5.0851103 -2.1125,-0.92387 -2.2016,-0.31814 -0.1399,0.88824 -0.3181,1.81847 -0.5599,2.37712 -0.3945,0.9506 -1.4889,1.08167 -2.8123,0.95823 -0.038,-0.004 -0.076,-0.008 -0.1018,-0.0102 -1.6543,-0.16543 -0.1909,-1.41253 -1.718,-1.47234 -1.4507,-0.0573 -2.036,-0.35886 -2.036,1.59578 0,0.99131 0,2.07807 0,2.07807 0,1.12621 -0.013,1.27382 -0.064,1.47743 z M 94.98126,0.83324012 C 87.84226,4.2805702 64.41466,17.41455 62.65856,21.0884 c -0.8526,1.32981 -1.5016,3.113925 -0.5981,4.508639 0.5599,0.861516 1.6543,-0.014 2.4815,-0.895875 3.7794,-4.012344 20.6025,-14.285634 25.5527,-15.6714437 0.1782,-0.0483 0.3564,-0.0891 0.5218,-0.12089 0.5217,-0.098 0.4581,0.0611 0.1781,0.76735 -1.6415,6.7712297 0.3182,3.2691797 2.1761,0.5840997 0.9799,-1.6441298 2.0997,-3.7285698 2.8632,-4.6511698 1.4889,-1.78284 2.0361,-0.12216 1.9725,-3.28317 -0.051,-3.57078 -1.5016,-2.13407008 -2.8251,-1.49270008 z"/>
</svg>