<?xml version="1.0" encoding="UTF-8" standalone="no"?>
<svg>
  <path
     d="m 55.918903,41.777787 -6.0992,6.05922 c -1.01341,1.00716 -1.15836,1.1871 -1.44202,1.80814 -0.39612,0.86846 -0.53357,2.32048 -0.33864,2.51666 0.63104,0.63854 2.86529,-0.90969 3.64253,-1.48325 6.80897,-5.02082 9.91043,-8.18351 11.01131,-14.68633 0.55981,-3.30514 -1.1896,-4.58346 -4.28606,-5.00582 -4.91335,-0.66853 -9.78797,0.015 -11.69608,3.71376 0.2974,14.12276 0.71726,6.04672 4.88336,5.04455 4.63345,-1.11587 9.61678,-3.59254 4.3248,2.03307 z m 15.77471,-11.91475 -6.21041,6.21042 6.21041,6.20916 6.20917,-6.20916 -6.20917,-6.21042 z m -28.87157,36.78142 -0.70851,1.79564 c -0.54107,1.36954 -1.51949,2.64037 -2.30797,3.90744 -2.26175,2.78907 -5.27699,6.47783 -5.48816,6.67901 -0.065,0.0612 -0.12871,0.12246 -0.19369,0.18369 -6.20417,5.90927 -9.57554,8.84454 -12.55454,10.99632 -1.91061,1.37828 -13.7941303,8.44591 -15.7872103,9.69924 -0.87845,0.552323 -1.81189,1.145873 -2.80906,1.786903 -1.1696,0.7535 -2.02807003,1.3483 -2.42418003,1.71068 -0.57106,0.52358 -0.68727,1.15087 -0.39112,1.66444 0.84222,1.45701 7.81613003,-0.20243 8.90451003,-0.48983 6.5965403,-1.74192 12.6295203,-5.235753 17.9964703,-9.528063 11.70233,-9.35811 15.03371,-16.19832 17.00805,-21.55652 2.223,-6.03298 3.21767,-13.1356 0.79098,-18.89492 -0.33614,-0.79973 -2.44168,-3.34013 -0.52482,-3.10895 0.19993,0.0237 0.37987,0.0375 0.54107,0.0387 0.8847,0.0125 1.06339,-0.70601 0.90594,-1.68443 -0.0587,-0.36738 -3.06022,-7.62619 -3.44384,-8.55963 -0.67478,-1.64195 -1.11463,-2.69785 -0.86346,-1.99058 -0.50358,-1.41453 -0.97968,-2.99275 -1.67569,-5.40569 -0.53482,-1.85313 -1.29082,-3.17894 -3.02649,-2.62662 -1.65069,0.52607 -1.86437,2.37795 -2.60038,5.27073 -0.97717,3.83622 -1.12462,5.73308 0.48734,8.67834 0.63854,1.16586 4.56597,10.44775 6.65902,16.8431 0.31239,0.95468 0.57481,1.71943 0.78099,2.35547 l 0.72475,2.2355 z m 22.37875,1.73816 c 0.27991,0.4561 -0.0262,0.82473 -0.21243,0.91844 -0.19368,0.0987 -0.41861,0.18244 -0.66727,0.25367 -2.999,0.85721 -7.85987,0.66728 -8.8208,-3.17394 -0.0875,-0.34863 -0.085,-0.68477 0.05,-0.97967 0.1,-0.21742 0.67352,-0.746 1.26957,-1.18835 2.74533,-2.04056 5.99174,0.98092 7.56996,3.03148 0.3199,0.41487 0.61855,0.82473 0.81098,1.13837 z m -23.13849,30.79843 c 2.27174,3.636283 5.5194,6.390353 10.35528,6.475333 6.90643,0.12245 14.87876,-4.36729 18.27637,-8.632113 4.56847,-5.73183 4.04989,-12.38835 5.31947,-20.88175 0.0737,-0.48983 0.11371,-0.78848 0.11371,-0.78848 0,0 1.25458,-0.32864 2.81405,-0.78224 1.57448,-0.4586 5.50566,-1.45451 6.43035,-2.97276 1.56197,-2.56414 4.22483,-9.47682 4.44851,-10.09411 0.37362,-1.0384 0.55481,-1.92186 0.59105,-2.79032 0.27616,-6.74398 -3.50633,-10.85636 -5.62686,-16.81686 -0.29616,-0.82972 -0.58231,-1.6382 -0.9072,-2.32547 -0.38612,-0.81472 -0.78974,-1.16461 -1.58947,-0.74225 -1.20709,0.63979 -3.33513,6.7015 -3.43884,7.77489 -0.12246,1.26958 0.23617,2.4042 0.8797,3.63504 1.83688,3.51257 8.99698,12.01847 3.36637,14.35518 -0.77099,0.3199 -6.49657,1.90686 -7.29005,2.11304 -1.2171,0.3174 -2.19177,0.53857 -2.43294,0.50109 -0.075,-0.0112 -0.1512,-0.0275 -0.22617,-0.0487 -0.29365,-0.0837 -1.0609,-1.24583 -2.04557,-2.82155 -2.30297,-3.68252 -5.97299,-11.69233 -11.75106,-10.19533 -1.46076,0.37862 -2.78656,1.3208 -3.65002,2.80531 -1.52199,2.61037 -4.34605,12.75072 -3.18269,17.93648 1.68694,7.51873 9.13194,4.43477 13.82537,3.23267 1.9406,-0.49608 3.53006,-0.85846 3.75999,-0.746 0.44735,0.21993 0.84846,0.84597 1.16086,1.6407 2.55414,6.51032 -5.15327,12.44333 -10.16784,14.84002 -0.38862,0.18619 -0.7635,0.34864 -1.11963,0.48484 -0.65103,0.24867 -1.3233,0.46485 -2.00807,0.64354 -7.93359,2.0668 -13.48173,-1.01342 -16.32953,-8.02606 l -3.17768,-10.75765 -2.37296,-7.52123 0,-0.52732 c 0,0 -1.1796,0 -1.1796,0 0,0 0.25241,3.51257 0.45984,6.40036 0.57231,7.95108 3.53257,19.56843 6.69526,24.63174 z M 57.024783,7.1643965 c 0.63479,2.15053 -1.87437,5.2407405 -2.2405,5.3819405 -1.03215,0.39862 -3.75624,-0.61104 -5.15702,-1.85812 -1.86687,-1.6594505 0.78849,-4.3373005 2.45168,-4.9658405 1.72192,-0.65228 4.25857,-0.8897 4.94584,1.44202 z M 13.230723,39.451067 c 13.4055,-4.09113 29.805,-12.17966 39.91161,-20.30819 1.24834,-1.00341 2.10305,-1.46451 3.02524,-0.42361 2.9815,3.36513 1.99308,9.65427 7.33879,9.6955 0.36863,0.004 0.72975,0 1.08464,-0.01 6.31538,-0.17619 14.44265,-3.94743 12.34586,-12.13718 -0.54482,-2.12554 -2.25925,-4.21109 -4.31481,-6.6540205 -1.10713,-1.31456 -2.14303,-2.32297 -2.76782,-1.34955 -1.05964,1.65319 -0.92844,4.3123005 0,5.2707305 0.31365,0.32364 0.5873,0.54607 0.82847,0.72351 7.7649,5.72933 -1.72692,8.13727 -4.61845,8.89577 -2.3867,0.62604 -4.41477,0.62354 -5.35195,-1.38329 -0.89845,-1.92186 -1.0584,-4.07613 -2.21176,-5.76557 -1.08964,-1.59321 -1.56073,-1.56322 -1.08089,-3.19767 1.35455,-4.6047105 2.69285,-5.2445005 1.52324,-8.4959105 -0.95718,-2.66035 -2.80156,-4.57345999 -4.74841,-4.28230999 -1.487,0.22243 -3.08396,0.90845 -4.23483,1.80189999 -2.28423,1.7744 -3.8887,10.8701005 -1.85688,13.3005405 0.63854,0.76349 1.62071,1.61196 1.62071,1.61196 0,0 -0.82722,0.53857 -2.13678,1.37578 -14.09153,9.01198 -23.34843,13.63043 -39.1531303,19.15733 -1.20834,0.42236 -2.32172,0.80098 -3.31888,1.13087 -0.71476,0.23742 -1.40078,0.87721 -1.46826,1.36829 -0.0412,0.2974 -0.03,0.66728 -0.0163,0.89345 0.11497,1.91436 10.2603103,-1.41952 9.6005403,-1.21834 z"
     style="fill:#000000;stroke:none" />
</svg>
