<?xml version="1.0" encoding="UTF-8" standalone="no"?>
<svg>
  <path
     style="fill:#000000;stroke:none"
     d="m 65.66388,20.267121 -0.175,-4.00375 c -0.07,-1.61874 -0.0475,-1.90874 0.23375,-2.89999 0.20875,-0.73625 0.42875,-1.54125 0.9875,-2.05875 1.35999,-1.26375 4.72749,-0.82625 6.28874,-1.8675008 2.2475,-1.49875 2.25,-6.64499 0.52,-8.73124 -1.835,-2.21125 -5.54375,1.30125 -7.06249,3.31125 -0.93375,1.235 -1.8175,2.65 -2.215,4.30124 -0.18375,0.765 -0.28625,1.63375 -0.43,2.3937508 l -0.70625,3.725 -2.32875,-2.965 C 57.58639,7.2721302 58.55889,6.0233902 53.87264,4.8821402 c -1.57,-0.3825 -4.97499,-0.24 -5.62999,1.5275 -0.51125,1.38374 0.69,4.7474908 1.44375,5.5462408 0.57875,0.615 2.92374,2.13875 3.89249,2.2325 1.58375,0.15375 4.8175,-0.81125 4.8175,-0.81125 0,0 2.60999,3.75749 4.20499,5.52249 0.69625,0.77 1.27125,1.39 2.16375,1.4075 0.3675,0.006 0.89875,-0.04 0.89875,-0.04 z m 98.59113,73.95491 c 0.20375,2.80125 1.51,4.5425 3.8875,5.045 3.06624,0.64874 4.79999,-1.01375 5.58624,-4.37875 0.1725,-0.7375 0.13375,-1.3525 -0.34125,-1.65 -0.90375,-0.56375 -3.385,0.0225 -4.58375,-0.615 -1.49249,-0.7925 -1.87124,-4.16249 -1.50249,-5.73749 0.36875,-1.57625 1.31125,-3.265 1.56749,-4.47999 0.0525,-0.24625 0.0763,-0.4725 -0.0312,-0.59875 -0.0138,-0.0163 -0.0275,-0.0312 -0.0412,-0.045 -3.60874,-0.8225 -4.48624,13.21623 -4.54124,12.45998 z m -133.34859,0 c 0.20375,2.80125 1.51,4.5425 3.88749,5.045 3.06625,0.64874 4.8,-1.01375 5.58625,-4.37875 0.1725,-0.7375 0.13375,-1.3525 -0.34125,-1.65 -0.90375,-0.56375 -3.385,0.0225 -4.585,-0.615 -1.49125,-0.7925 -1.87125,-4.16249 -1.50125,-5.73749 0.36875,-1.57625 1.31125,-3.265 1.5675,-4.47999 0.0513,-0.24625 0.075,-0.4725 -0.0312,-0.59875 -0.0137,-0.0163 -0.0275,-0.0312 -0.0412,-0.045 -3.60874,-0.8225 -4.48624,13.21623 -4.54124,12.45998 z m 40.1737,-38.07495 c 0,0 0.59,-1.36 0.94625,-2.4375 0.6025,-1.8175 0.505,-3.1325 0.2675,-5.01374 -0.6625,-5.2475 -1.68,-17.13373 -1.68,-17.13373 0,0 1.82625,-0.205 3.2225,-0.16875 3.77624,0.1 4.87624,1.87749 6.86249,-0.10625 1.29375,-1.2925 2.45,-5.87125 1.62375,-7.58 -0.94625,-1.95499 -4.15125,-2.89749 -5.62375,-1.30124 -0.67875,0.73625 -1.06624,1.89749 -1.84374,2.66124 -1.20375,1.185 -3.34375,1.41875 -4.4025,2.40625 -1.815,1.69125 -2.0575,13.50873 -1.72375,16.30873 0.5625,4.7225 2.35125,12.36499 2.35125,12.36499 z m 84.6124,-45.4912 -7.52749,7.52749 7.52749,7.52624 7.52624,-7.52624 z M 143.98378,8.4821302 c 0,0 -0.23,0.009 -0.62125,0.0225 -1.15374,-0.06 -3.00624,0.28 -4.63624,-1.72 -0.20875,-0.25624 -0.37375,-0.45874 -0.37375,-0.45874 0.3,-0.0112 0.64375,-0.0225 1.02625,-0.0362 1.36125,-0.0475 4.51124,-0.49875 4.55874,0.86374 0.02,0.5775 0.0462,1.32875 0.0462,1.32875 z m -3.34499,6.2787508 c 0.1525,0.61249 -2.04,2.36624 -4.19625,3.36374 -5.18249,2.39875 -14.72248,7.83624 -12.09373,9.60124 1.54375,1.03625 10.21124,-2.4975 13.03123,-4.75874 5.2925,-4.245 11.47124,-12.18124 10.26249,-18.3187308 -0.96125,-4.885 -6.34749,-6.0425 -11.00249,-2.8875 -1.28875,0.87375 -3.74624,6.31374 -3.16249,8.05249 0.15,0.4475008 0.49625,0.8112508 1.19,1.1975008 1.71249,0.95375 5.76999,2.9475 5.97124,3.75 z m 7.66749,45.42869 -0.5725,0.02 0.02,0.57375 -7.26749,0.25375 -3.87,-1.76875 c -1.40875,-0.64375 -1.5725,-0.76625 -1.64125,-1.225 -0.49374,-3.29749 4.8575,-2.90874 6.3925,-2.55749 1.70875,0.39 6.00999,3.07624 6.63249,4.14124 0.15875,0.2725 0.30625,0.5625 0.30625,0.5625 z m -33.13996,35.09621 c 10.88124,9.633739 30.91746,0.52 38.70495,-8.43999 3.61125,-4.15499 6.36375,-12.10499 6.65749,-16.97373 0.0588,-0.97875 0.0225,-1.8775 0.34875,-2.65 0.395,-0.93375 4.96625,-3.42499 7.7775,-4.98874 2.74999,-1.5275 2.38749,-2.21875 3.35624,-5.16624 1.12125,-3.4175 4.31375,-6.4625 5.1175,-9.54374 0.95749,-3.6725 -2.14625,-12.74249 -3.72625,-16.32623 -0.84125,-1.91 -2.40375,-4.56375 -4.095,-3.87375 -1.67124,0.68125 -4.69624,7.09124 -4.63874,8.48249 0.0563,1.35375 1.8375,3.7325 3.115,6.00999 1.52249,2.7125 2.35374,5.9 2.99124,8.32374 0.49875,1.8975 0.21375,2.2825 -2.60999,3.61875 -4.31375,2.0425 -11.27999,4.89749 -11.27999,4.89749 0,0 -1.1575,-2.55124 -2.1875,-4.42749 -1.395,-2.53875 -7.24874,-8.96499 -10.57374,-9.95874 -3.43624,-1.0275 -8.13124,0.77875 -9.74623,3.20875 -2.81,4.23124 -5.99125,17.08373 -3.29125,20.77247 4.37124,5.97125 12.36998,3.92 19.98748,2.17125 2.49874,-0.57375 3.40874,-0.23375 4.01749,3.3025 0.6,3.49124 -1.8575,5.00374 -6.04499,7.67124 -8.91249,5.67749 -18.48373,11.14748 -27.36372,6.58374 -6.75749,-3.4725 -11.54374,-19.82623 -11.66874,-23.39747 -0.08,-2.30125 -0.18625,-5.34375 -0.18625,-5.34375 0,0 -1.18624,0.0337 -2.04124,0.315 -0.72,0.23625 -0.7425,4.255 -1.0425,8.00374 -1.27375,15.92248 5.46499,25.10997 8.42249,27.72872 z m -22.06248,-31.20996 -7.45499,-3.735 c 0,0 0.0913,-0.305 0.20375,-0.55125 0.7475,-1.63 5.2575,-2.47624 6.5075,-2.27374 0.88624,0.14374 0.99499,0.26999 1.08749,1.26749 0.0688,0.73875 0.28125,1.42 0.57625,2.14 0.9675,2.36125 2.535,4.075 0.925,3.9475 -0.27625,-0.0213 -0.46,-0.10125 -1.845,-0.795 z m -91.5736403,-20.06123 -0.11625,-4.19999 -0.62625005,5.28999 c -1.19875,10.11624 -1.2475,15.63623 1.40375005,24.40497 2.09375,6.92249 3.69375,11.63374 9.6899903,14.58123 2.85375,1.4025 4.64249,0.82375 7.38124,-2.26624 0.8325,-0.94 1.28625,-1.92375 1.7525,-3.0125 1.80625,-4.21875 8.58624,-22.70872 16.67748,-24.60122 0.32625,-0.0763 0.64375,-0.115 0.96875,-0.0888 0.43875,0.035 0.5175,0.2075 0.78625,1.735 1.5475,8.76124 3.66249,15.08123 10.65749,19.31497 3.75249,2.27125 16.56998,4.245 21.71372,-0.06 2.93125,-2.45499 3.47,-5.68749 7.27999,-5.13249 2.34375,0.3425 5.14749,2.51125 7.00749,3.485 4.93,2.58124 6.75374,1.24999 9.80249,-2.4675 1.97,-2.4 5.87249,-9.52249 5.80874,-10.59749 -0.15375,-2.5575 -1.62374,-5.80249 -0.83374,-7.44249 0.35999,-0.7475 1.05249,-1.425 1.35874,-2.1475 0.19875,-0.46625 0.23625,-0.95125 0.2275,-1.73 -0.01,-0.72999 -0.06,-1.71874 -0.06,-1.71874 0,0 -4.57124,-0.64625 -8.23874,-0.28625 -1.2975,0.1275 -12.14748,6.83124 -13.28998,8.21124 -0.8575,1.035 -1.67125,2.06375 -2.1825,3.23124 -0.49875,1.14 -0.71125,2.41125 -1.3125,3.48875 -3.15124,5.64124 -14.27123,5.75874 -20.80872,3.8825 -3.928957,-1.74579 -9.446796,-4.953908 -11.18874,-8.69749 -2.354294,-4.366345 -1.75625,-12.48624 -3.09,-14.04249 -0.74124,-0.865 -3.45499,-1.15125 -5.57749,-0.66625 -4.13249,0.9425 -9.44124,7.36999 -11.55249,11.30624 -3.58999,6.69249 -6.92624,20.65998 -13.59623,18.83623 -6.7274903,-1.84 -9.2674903,-14.14624 -9.7187403,-21.00623 -0.1575,-2.39 -0.26,-5.27374 -0.32375,-7.60374 z M 82.27261,90.069541 c -1.68375,0.45875 -3.44,0.86625 -5.33875,1.47499 -4.76874,1.52875 -10.44123,4.33 -13.57498,5.63875 -0.2625,0.11 -0.5075,0.20875 -0.5525,0.5925 -0.0275,0.23375 0.02,0.57375 0.02,0.57375 l 1.14625,-0.04 -0.02,-0.57375 c 0,0 5.38999,-0.6875 9.18124,-0.32 5.69374,0.55125 6.30124,2.2475 9.69749,1.95625 3.17999,-0.2725 9.14999,-2.95125 12.98748,-5.10125 9.97249,-5.58874 20.73248,-16.68998 23.33747,-20.44997 0.38125,-0.55125 0.71,-1.2225 0.98125,-2.1475 0.60125,-2.05 0.4075,-4.60125 0.905,-6.91749 0.99875,-4.64375 4.5725,-10.17499 4.32125,-12.39624 -0.365,-3.24125 -3.43,-6.71749 -3.64875,-9.43249 -0.0288,-0.36 -0.007,-0.70875 0.2125,-0.91125 0.4625,-0.4275 1.8075,-0.21 2.3625,-0.56875 1.68125,-1.08874 -3.75125,-8.72749 -4.11625,-9.54123 -1.88125,-4.18125 -2.21749,-8.40749 -5.00499,-6.5375 -2.39,1.6025 -4.79,7.12124 -3.87375,10.01874 0.67125,2.12 2.7525,4.33875 3.0575,6.72874 0.23625,1.85 -0.45375,3.53 0.645,4.75625 0.24,0.2675 0.32625,0.45875 0.86125,1.9125 l 3.56624,9.68748 c 0.535,1.4525 0.5925,1.66125 0.57875,2.0775 -0.025,0.71875 -0.555,1.865 -0.6525,2.0425 -0.4525,0.82125 -3.52624,4.03374 -7.35499,7.89749 -3.98374,4.01874 -8.81749,7.79249 -12.92748,10.71499 -2.9525,2.09874 -9.90874,6.99124 -16.79623,8.86499 z m -31.95247,-45.6512 c 0.31875,0.12875 0.9475,0.1975 1.375,-0.0488 0.5775,-0.33125 0.62125,-3.97624 0.0625,-5.25499 -1.61749,-3.7075 -3.24374,-4.0875 0.785,-6.925 0.165,-0.11624 0.32875,-0.23124 0.49125,-0.34499 11.70249,-8.16874 21.01873,-12.10999 34.63621,-16.22374 3.54125,-1.06999 7.35624,-2.14874 11.56499,-3.32374 2.99499,-0.835 1.69,0.1425 0.8275,3.98874 -0.16875,0.7525 -0.17875,1.38875 0.06,1.71875 1.24749,1.72625 3.19999,-3.14874 4.98749,-5.05124 0.98375,-1.04625 4.99499,-3.3637508 6.77624,-4.1525008 4.2675,-1.89125 6.52999,-2.50124 7.75874,-6.85624 0.2575,-0.91125 0.2525,-1.48125 -0.0638,-1.83375 -0.69125,-0.7725 -11.05748,2.61125 -22.50747,6.69999 C 86.79255,10.483331 56.51634,20.657071 48.8126,29.259561 c -1.895,2.11625 -2.8175,6.03249 -2.50625,8.69999 0.18875,1.6125 1.20375,3.54624 2.77,5.35374 0.40875,0.4725 0.8575,0.94875 1.24374,1.105 z" />
</svg>
