<?xml version="1.0" encoding="UTF-8" standalone="no"?>
<svg>
  <path
     style="fill:#000000;stroke:none"
     d="m 9.7725245,93.566597 c 2.7987495,1.14375 6.0837595,1.35625 9.6387595,0.45625 1.23375,-0.3125 2.47,-0.76125 3.68875,-1.34875 5.5525,-2.67375 11.3325,-6.49375 13.86626,-12.00126 2.14125,-4.65375 2.4,-10.97625 4.6275,-14.84125 1.31,-2.27125 2.0825,-1.5425 5.58125,-4.12126 1.62875,-1.20125 4.805,-8.1125 4.78625,-11.26 -0.005,-0.91 -0.35625,-1.81125 -0.8175,-2.91 -1.93875,-4.6125 -5.83375,-12.69251 -5.83375,-12.69251 0,0 -1.24,0.425 -1.97125,0.97625 -1.58875,1.19875 -2.43875,7.27126 -2.2775,8.87751 0.17625,1.775 0.6025,4.1025 1.60875,5.305 0.62125,0.74125 1.575,1.28125 2.19875,2.1225 0.865,1.165 1.43875,3.6325 1.2,4.205 -0.4625,1.11125 -4.56375,2.92 -6.5475,2.6575 -0.57875,-0.0762 -0.7225,-0.24 -1.44,-1.6325 -3.15376,-6.12625 -8.92501,-12.31 -14.19251,-7.39875 -2.60625,2.43 -5.14125,13.46876 -3.47625,16.73001 0.48375,0.94875 2.585,2.165 4.12625,2.38875 3.9675,0.57375 10.90876,-0.41125 10.90876,-0.41125 0,0 1.6225,2.475 1.9025,4.3875 0.105,0.7175 -5.07501,5.97 -6.74626,6.84 -8.03125,4.18251 -10.98125,6.77126 -17.84126,4.44126 C 6.2487745,82.124087 2.7050245,70.324087 1.8025245,66.205337 0.43752446,59.985327 0.46752446,62.710327 0.22502446,66.029087 -1.3324755,87.317847 5.5562745,91.842847 9.7725245,93.566597 z M 26.121284,60.557827 c -0.37625,-0.3025 -0.815,-0.5275 -0.95125,-1.08 -0.1325,-0.53875 0.0238,-1.38875 0.0238,-1.38875 0,0 2.2175,0.35625 2.99375,0.48125 12.38251,3.56375 0.31,2.47125 -0.17,2.4625 -0.28,-0.005 -0.4975,-0.009 -0.4975,-0.009 -0.75375,-0.0125 -0.8925,-0.06 -1.39875,-0.46625 z m 5.83125,-33.19126 -7.31,7.31 7.31,7.31 7.30876,-7.31 -7.30876,-7.31 z m -22.7350095,-16.34501 -6.10125,6.06125 c -1.01375,1.0075 -1.1575,1.18875 -1.44125,1.80875 -0.3975,0.86875 -0.535,2.32125 -0.34,2.51875 0.6325,0.63751 2.86625,-0.91 3.64375,-1.48375 6.8112495,-5.02375 9.9150095,-8.1875 11.0162595,-14.6912501 0.55875,-3.30625 -1.19126,-4.58626003 -4.28876,-5.00751 -4.9149995,-0.67 -9.7912495,0.015 -11.69999954,3.71501 0.2975,14.1262501 0.7175,6.0474999 4.88500004,5.045 4.63625,-1.115 9.6212495,-3.59375 4.32625,2.0337501 z m -1.78125,22.74501 0.26625,-0.002 c 0.36625,-0.002 0.74375,-0.0113 1.09,-0.0312 0.6675,-0.0375 1.4312495,-0.18625 2.2437495,-0.41625 8.18501,-3.435 9.64501,-5.52125 16.02376,-11.12375 2.2225,-1.95001 3.49,-3.06501 3.49,-3.06501 l 1.14,1.08125 c 0.22625,0.28375 0.2925,0.37375 0.36,0.4675 0.47875,0.66625 0.87125,1.38001 1.1475,2.29501 0.1975,0.6525 0.7875,4.79875 1.77875,4.59 0.75376,-0.15875 1.20376,-3.0325 1.33876,-4.05125 0.365,-3.37126 -1.07376,-5.70126 -2.94751,-7.99501 -0.26875,-0.33 -0.4175,-0.4125 -0.4175,-0.4125 l 1.76375,-3.4975 c 0.55,-1.395 1.38251,-2.8987501 1.76501,-4.2087501 0.7,-2.3925 -0.64,-6.60376003 -3.62501,-7.27501 -2.5,-0.5625 -6.1625,0.9275 -7.1525,2.43001 -0.36875,0.56 -1.6975,6.9425 -1.27,9.2737501 0.19875,1.08375 0.7,2.50625 1.16625,3.68875 0.49875,1.2675 1.53625,1.82125 1.53625,1.82125 0,0 -1.7075,1.4075 -2.35,1.9375 -0.44375,0.365 -1.55375,1.28375 -2.9475,2.425 -3.59875,2.94626 -7.76751,6.51501 -11.9175095,8.64626 -0.84,0.43125 -1.72375,0.885 -2.5,1.2825 -3.6575,1.87875 -3.715,1.89625 0.0175,2.14 z m 25.1487595,-22.23001 -1.615,2.15125 -2.1375,-2.1375 c -0.9775,-0.97875 -1.85125,-2.3225001 -1.5325,-3.1675001 0.52875,-1.40125 3.9425,-1.74 4.785,-1.37625 2.1825,0.94125 1.88375,2.6849999 0.5,4.5300001 z" />
</svg>
