<?xml version="1.0" encoding="UTF-8" standalone="yes"?>
<!-- Created with sK1/UniConvertor (http://sk1project.org/) -->
<svg xmlns="http://www.w3.org/2000/svg" xmlns:xlink="http://www.w3.org/1999/xlink"
  width="595.276pt" height="841.89pt" viewBox="0 0 595.276 841.89"
  fill-rule="evenodd">
<path
	d="m 62.095901,28.792096 c 0.162,2.241 1.208,3.634 3.109,4.036 2.453,0.519 3.841,-0.811 4.469,-3.502 0.138,-0.591 0.107,-1.083 -0.273,-1.32 -0.722,-0.452 -2.707,0.017 -3.667,-0.493 -1.194,-0.634 -1.497,-3.329 -1.202,-4.589 0.296,-1.262 1.049,-2.613 1.254,-3.585 0.042,-0.196 0.061,-0.378 -0.025,-0.479 -0.01,-0.013 -0.021,-0.025 -0.032,-0.036 -2.888,-0.658 -3.589,10.573 -3.633,9.968 z m 0.911,-19.5629997 -1.292,1.7219997 -1.709,-1.7109997 c -0.782,-0.782 -1.482,-1.857 -1.227,-2.533 0.423,-1.121 3.154,-1.392 3.828,-1.102 1.747,0.753 1.507,2.148 0.4,3.624 z m -30.022,22.8429997 c -1.719,1.214 -3.365,2.383 -4.841,3.445 -0.457,1.181 11.168,-0.408 28.475,-16.006 0.594,-0.536 1.242,-1.117 1.968,-1.756 1.778,-1.561 2.793,-2.452 2.793,-2.452 l 0.911,0.865 c 0.181,0.227 0.234,0.299 0.288,0.374 0.383,0.533 0.697,1.104 0.918,1.836 0.158,0.522 0.63,3.838 1.423,3.671 0.603,-0.126 0.963,-2.426 1.071,-3.241 0.292,-2.697 -0.858,-4.56 -2.358,-6.396 -0.215,-0.263 -0.334,-0.33 -0.334,-0.33 l 1.411,-2.7979997 c 0.44,-1.116 1.106,-2.318 1.413,-3.367 0.559,-1.913 -0.512,-5.28199998 -2.901,-5.81999998 -2,-0.45 -4.93,0.743 -5.722,1.94499998 -0.295,0.448 -1.357,5.554 -1.016,7.418 0.159,0.8679997 0.56,2.0059997 0.933,2.9519997 0.4,1.014 1.229,1.457 1.229,1.457 0,0 -1.366,1.125 -1.88,1.549 -0.355,0.292 -1.243,1.028 -2.358,1.941 -2.28,1.866 -4.845,4.045 -7.463,5.717 -0.688,0.44 -11.458,7.229 -13.96,8.996 z m -25.0840999,6.258 c 0.5335,1.431 1.5829,3.175 2.5488999,3.457 0.8767,0.257 1.459,-0.973 1.4764,-1.701 0.0226,-0.946 0.0031,-2.177 -0.2211,-2.632 -0.1736,-0.352 -0.4699,-0.239 -1.0118,-0.614 -0.6814,-0.47 -1.7510999,-1.71 -1.7510999,-1.71 0,0 3.1191999,-3.349 5.7636999,-5.975 2.8161,-2.796 16.9711,-14.035 22.6361,-16.363 0.535,-0.22 0.984,-0.345 1.151,-0.05 0.133,0.236 -1.192,5.952 0.476,4.303 0.461,-0.456 0.686,-1.652 1.036,-2.688 0.557,-1.649 1.433,-2.89 2.709,-3.962 6.218,-5.2189997 8.056,-3.6789997 8.766,-8.3099997 0.304,-1.97999998 0.09,-2.42899998 -1.618,-1.85099998 -1.89,0.64 -4.598,2.09999998 -7.577,3.91099998 -4.583,2.787 -34.6905999,22.3969997 -35.4120999,29.1549997 -0.131,1.226 0.1798,2.756 1.028,5.03 z m 13.7510999,-22.116 -0.14,-3.203 c -0.056,-1.295 -0.038,-1.527 0.187,-2.321 0.167,-0.588 0.343,-1.2319997 0.79,-1.6469997 1.088,-1.01 3.782,-0.661 5.031,-1.493 1.798,-1.199 1.799,-5.316 0.415,-6.98499998 -1.467,-1.77000002 -4.434,1.04099998 -5.649,2.64899998 -0.747,0.988 -1.454,2.119 -1.772,3.44 -0.147,0.613 -0.229,1.308 -0.344,1.916 l -0.565,2.9799997 -1.863,-2.3719997 c -2.5519,-3.36 -1.774,-4.359 -5.5229,-5.273 -1.2561,-0.306 -3.9801999,-0.191 -4.5037999,1.223 -0.4097,1.107 0.5522,3.798 1.1547,4.437 0.4633,0.4919997 2.3393999,1.7109997 3.1143999,1.7859997 1.2663,0.122 3.8536,-0.649 3.8536,-0.649 0,0 2.089,3.006 3.364,4.418 0.557,0.616 1.017,1.112 1.731,1.125 0.295,0.006 0.719,-0.031 0.719,-0.031 z m -9.6458,36.669 -4.1502999,4.123 c -0.6896,0.685 -0.7877,0.808 -0.9807,1.23 -0.2702,0.591 -0.3637,1.579 -0.2309,1.713 0.4299,0.434 1.9497,-0.619 2.4787,-1.009 4.6327999,-3.417 6.7429999,-5.568 7.4919999,-9.993 0.381,-2.249 -0.81,-3.119 -2.9166,-3.406 -3.3426,-0.455 -6.6595999,0.011 -7.9580999,2.527 0.2027,9.609 0.4881,4.114 3.3227,3.432 3.1532999,-0.759 6.5439999,-2.444 2.9431999,1.383 z m 38.1848,-9.972 c 0.163,2.241 1.208,3.634 3.11,4.036 2.453,0.519 3.84,-0.811 4.469,-3.502 0.138,-0.591 0.107,-1.083 -0.273,-1.32 -0.723,-0.452 -2.708,0.017 -3.667,-0.493 -1.194,-0.634 -1.497,-3.329 -1.202,-4.589 0.295,-1.262 1.049,-2.612 1.254,-3.585 0.042,-0.196 0.061,-0.378 -0.025,-0.479 -0.011,-0.013 -0.022,-0.025 -0.033,-0.036 -2.887,-0.658 -3.589,10.573 -3.633,9.968 z m -16.179,11.8 c 0,0 3.744,-0.131 3.744,-0.131 0,0 -0.03,0.88 0.008,2.006 0.166,5.049 2.201,12.675 8.208,14.152 1.636,0.402 0.963,-1.262 2.026,-3.897 0.098,-0.243 0.216,-0.465 0.378,-0.662 0.219,-0.265 0.377,-0.252 1.583,0.135 1.03,0.33 2.096,0.446 3.182,0.581 3.002,0.373 5.396,0.754 7.592,0.994 3.049,0.332 24.738,-1.703 26.753,-4.345 0.478,-0.627 0.951,-1.397 1.443,-2.339 0.399,-0.764 0.813,-1.612 1.203,-2.503 1.889,-4.322 2.515,-11.666 -4.388,-3.768 -0.113,0.13 -0.212,0.238 -0.295,0.317 -2.867,2.753 -10.265,4.048 -12.806,3.719 -3.26,-0.423 -5.755,-2.488 -8.39,-5.995 -0.436,-0.58 -0.789,-1.053 -1.068,-1.438 l -0.894,-1.237 2.59,-0.843 c 0.33,-0.113 0.572,-0.214 0.821,-0.341 1.672,-0.853 7.189,-1.018 9.029,-0.749 2.818,0.412 5.364,1.82 7.398,0.925 1.751,-0.772 1.865,-1.561 1.448,-2.516 -0.641,-1.465 -1.212,-2.462 -1.874,-3.2 -3.866,-3.735 -12.096,-5.278 -15.418,-2.408 -3.761,1.98 -5.16,3.064 -5.869,6.536 -0.399,1.955 -0.282,5.309 0.267,7.646 0.473,2.014 1.263,4.461 1.263,4.461 0,0 -2.172,0.157 -3.907,0.136 -1.634,-0.019 -4.402,-0.657 -7.007,-1.63 -4.565,-1.704 -7.207,-3.608 -8.785,-8.42 -1.238,-3.774 2.339,-2.729 -1.751,-2.783 -0.534,-0.008 -1.174,-0.033 -1.937,-0.084 -5.292,-0.358 -13.143,2.529 -16.384,7.183 -0.897,1.287 -1.741,2.789 -2.51,4.27 -3.774,7.273 -7.394,19.226 -12.9834999,14.273 -8.1898,-7.257 -1.5873,-38.196 -4.6683,-27.56 -1.39599999,4.819 -1.81669999,10.856 -1.96459999,13.636 -0.2561,4.812 0.4565,14.419 3.23109999,18.918 0.7609,1.233 3.7952,3.738 4.8892,4.035 2.5440999,0.691 5.1147999,-1.587 6.6597999,-4.505 6.4683,-12.218 5.1423,-16.657 14.0993,-21.223 0.788,-0.402 1.56,-0.797 2.411,-0.998 1.145,-0.269 1.413,-0.304 2.673,-0.348 z"
	style="stroke:none; fill:#000000"/>
</svg>