<?xml version="1.0" encoding="UTF-8" standalone="no"?>
<svg>
  <path
     style="fill:#000000;stroke:none"
     d="m 35.853216,30.66939 -6.10063,6.06064 c -1.0149,1.0074 -1.15863,1.18863 -1.44236,1.80857 -0.39746,0.86866 -0.53494,2.32101 -0.33996,2.51849 0.63243,0.63744 2.86721,-0.91116 3.64463,-1.4836 6.81056,-5.02324 9.91275,-8.18667 11.01388,-14.69101 0.55995,-3.30592 -1.19112,-4.58454 -4.28831,-5.007 -4.91325,-0.66868 -9.78901,0.0163 -11.69882,3.71588 0.29872,14.12482 0.71743,6.04689 4.88451,5.04449 4.63578,-1.11614 9.62027,-3.59339 4.32706,2.03354 z m 45.03919,-19.64801 -6.10063,6.06064 c -1.01365,1.0074 -1.15863,1.18863 -1.44235,1.80856 -0.39621,0.86867 -0.5337,2.32102 -0.33872,2.5185 0.63244,0.63744 2.86596,-0.91116 3.64338,-1.4836 6.81056,-5.02324 9.91275,-8.18667 11.01514,-14.69101 0.55869,-3.30592 -1.19113,-4.58454 -4.28832,-5.007 -4.9145,-0.66868 -9.79026,0.0163 -11.69882,3.71588 0.29747,14.12482 0.71743,6.04689 4.88451,5.04449 4.63578,-1.11614 9.62028,-3.59339 4.32581,2.03354 z m 15.38595,36.72128 c 0.20247,2.80097 1.50984,4.54204 3.885854,5.04449 3.06719,0.64869 4.80077,-1.01364 5.58694,-4.3783 0.17248,-0.73743 0.13373,-1.35237 -0.34122,-1.64859 -0.90366,-0.56494 -3.38466,0.0212 -4.58453,-0.61618 -1.491104,-0.79242 -1.871074,-4.16083 -1.501104,-5.73692 0.36871,-1.57609 1.311114,-3.26467 1.567344,-4.47955 0.0512,-0.24622 0.075,-0.47245 -0.0325,-0.59869 -0.0125,-0.0163 -0.0263,-0.0312 -0.04,-0.045 -3.608394,-0.82242 -4.485804,13.21491 -4.540794,12.45873 z m 7.705474,59.54648 c 0.20372,2.80096 1.50984,4.54204 3.8871,5.04449 3.06594,0.64868 4.79952,-1.01365 5.58569,-4.37831 0.17248,-0.73742 0.13373,-1.35236 -0.34122,-1.64858 -0.90366,-0.56495 -3.38466,0.0212 -4.58328,-0.61619 -1.49235,-0.79242 -1.87232,-4.16083 -1.50235,-5.73692 0.36871,-1.57609 1.31111,-3.26467 1.56734,-4.47955 0.0512,-0.24622 0.075,-0.47245 -0.0312,-0.59869 -0.0137,-0.0162 -0.0275,-0.0312 -0.0412,-0.045 -3.60839,-0.82242 -4.4858,13.21491 -4.54079,12.45874 z m -43.896814,0 c 0.20248,2.80096 1.50985,4.54204 3.8871,5.04449 3.06594,0.64868 4.79952,-1.01365 5.58569,-4.37831 0.17248,-0.73742 0.13374,-1.35236 -0.34122,-1.64858 -0.90365,-0.56495 -3.38465,0.0212 -4.58328,-0.61619 -1.49235,-0.79242 -1.87231,-4.16083 -1.50235,-5.73692 0.36871,-1.57609 1.31112,-3.26467 1.56734,-4.47955 0.0512,-0.24622 0.075,-0.47245 -0.0312,-0.59869 -0.0137,-0.0162 -0.0275,-0.0312 -0.0412,-0.045 -3.60839,-0.82242 -4.4858,13.21491 -4.54079,12.45874 z M 35.696986,0 27.861526,7.8367 35.696986,15.67216 43.532436,7.8367 35.696986,0 z m 25.6999,43.06689 -7.83546,7.83545 7.83546,7.83671 7.83545,-7.83671 -7.83545,-7.83545 z m 0,21.79404 6.54183,6.54184 7.83546,-7.83546 -7.83546,-7.83545 -6.54183,6.54183 -6.54184,-6.54183 -7.83671,7.83545 7.83671,7.83546 6.54184,-6.54184 z M 108.85208,6.16562 c 2.05854,-0.57744 3.94335,1.0399 3.39591,2.87346 -0.77617,2.60099 -3.36341,4.22582 -4.89701,2.35101 -1.74732,-2.13603 -1.51984,-4.3758 1.5011,-5.22447 z m 7.57049,11.78881 -5.05449,-2.39351 c 0,0 2.02604,-4.48829 3.24092,-7.41175 1.33736,-3.21842 1.32612,-3.94085 -0.075,-5.90065 -1.44361,-2.0198 -4.40081,-3.17093 -6.85681,-1.30612 -2.72347,2.06854 -4.4758,9.05283 -3.9171,12.01503 0.28872,1.5386 1.18363,2.82222 1.03364,3.9821 -0.23747,1.85606 -7.421754,6.74807 -9.522784,8.16293 -3.5159,2.36601 -11.36885,6.04313 -15.3447,7.18302 -1.98355,0.56744 -6.66308,1.06364 -6.85681,3.59089 -0.0325,0.4162 0,0.9799 0,0.9799 l 7.44925,-0.51745 c 1.75857,-0.12249 2.14228,-0.18998 3.84086,-0.67993 5.33071,-1.53735 16.245864,-7.74047 21.130364,-12.75996 l 2.43851,-2.506 2.451,0.80867 c 5.28446,1.74357 8.01919,5.65068 8.10668,10.46644 0.045,2.49225 -0.36122,5.84066 -0.36122,5.84066 0,0 0.66494,0.0687 1.0449,0 0.88741,-0.15998 1.9223,-4.79701 2.16978,-6.00939 0.79867,-3.9221 -1.26362,-11.81381 -4.917,-13.54488 z m 1.66983,57.06672 c -6.50309,4.08459 -16.04588,9.3978 -22.628964,5.88066 -2.01605,-1.07739 -7.59423,-7.28926 -8.33291,-9.79151 -0.41371,-1.40111 0.5362,-2.19478 2.08229,-2.70848 3.80712,-1.26487 15.148474,-1.10363 17.589474,-1.05239 l 1.22363,-1.34486 c 0.0762,-0.27623 0.0387,-0.64994 -0.0625,-1.0049 -0.30747,-1.06989 -4.4208,-3.99085 -6.94429,-4.93075 -11.102634,-4.13708 -16.062134,1.4586 -18.750614,14.22106 -0.40121,1.90855 -0.68493,3.52464 0,5.34821 0.92366,2.45725 3.60839,5.29196 4.16708,7.16552 0.29997,1.0074 -0.31872,1.11989 -2.22227,0.69493 -3.90211,-0.87116 -9.54654,-3.60088 -10.27771,-6.01314 -1.00365,-3.31342 0,-10.21772 0,-10.21772 0,0 -4.69828,5.14198 -7.63923,7.55049 -4.17333,3.41965 -14.85225,5.9019 -18.74935,2.08354 -3.30467,-3.23842 -2.44976,-5.37071 -5.77692,-6.59683 -3.9646,-1.46236 -10.81515,2.13603 -13.83485,5.73067 -1.14613,1.36236 -2.02229,3.13468 -2.75722,4.84826 -0.74242,1.72857 -0.85241,1.9198 -1.10239,1.9198 l -0.55494,0 -1.66733,-32.17924 c 0,0 12.40124,-1.94106 19.44428,-4.27832 5.22822,-1.73482 8.15667,-3.99834 10.3927,-7.48174 2.68723,-4.18583 6.56683,-13.57863 5.4007,-18.2544 -0.39371,-1.57984 -1.35861,-3.60839 -0.87491,-4.22458 0.29497,-0.37496 1.12864,-0.22372 1.4536,-0.54119 0.22623,-0.22123 0.20373,-0.66993 0.0325,-1.26612 -1.02365,-3.54964 -7.35801,-12.28876 -7.35801,-12.28876 0,0 -1.57484,2.40226 -2.44975,4.12708 -2.04729,4.03959 -0.71868,9.64278 1.58359,14.48354 2.82097,5.9294 5.27447,8.32665 0.84742,11.55758 -5.64318,4.11958 -17.18701,7.09803 -24.7225,7.29176 -2.06729,0.0537 -4.4433,0 -4.4433,0 l 0,-16.31835 c 0,-1.87606 0.025,-2.15228 0.24872,-2.76847 0.37496,-1.02615 0.37496,-3.85336 0,-4.88076 -0.22372,-0.61618 -0.24872,-0.89241 -0.24872,-2.76722 l 0,-17.01452 -1.5476,0 c -0.69505,0 -0.88691,0.17623 -1.91793,1.75232 -1.857184,2.84096 -3.762866,8.45039 -3.47927,10.57393 0.217728,1.63108 0.907409,3.47965 1.38886,5.20822 0.84979,3.05219 1.09301,7.85421 0.69443,13.71486 -0.269098,3.9571 -0.69443,9.02784 -0.69443,9.02784 0,0 -1.224626,0.12499 -2.22215,0 -4.3134391,-0.53995 -7.9610701,-7.58423 -8.1942961,-9.24906 -0.771547,-5.50945 0.69443,-17.13952 0.69443,-17.13952 0,0 -0.488076,0.15873 -0.88841,0.35246 -1.213003,0.58745 -1.767321,1.93606 -2.090664,3.20093 -2.89358196,11.31386 -5.229845,20.14671 1.242999,29.08581 0.862538,1.19113 1.764447,2.07979 3.819364,3.12468 2.9995711,1.52485 8.4558971,3.38216 8.4558971,3.38216 0,0 2.09341,17.72071 1.96055,28.07466 -0.0645,5.02824 -0.65406,8.31916 0,11.95879 1.89956,10.57018 7.08528,16.91829 16.88804,19.42928 2.28102,0.58494 6.04439,0.40121 6.69932,-0.32497 0.58119,-0.64618 0.67493,-1.68733 1.42861,-2.9447 1.33861,-2.22977 4.08333,-4.33831 2.32726,-5.8769 -0.23497,-0.20498 -0.4587,-0.29122 -2.24727,-0.86117 -6.74307,-2.14978 -14.27231,-4.02584 -16.06837,-10.68516 -0.42746,-1.58484 0.0425,-2.20353 1.3886,-3.26467 4.08209,-3.21593 7.79797,-5.25947 11.11138,-2.77722 1.73107,1.29612 2.79722,3.97209 4.22582,5.47319 2.65848,2.79222 12.11628,2.39976 15.91214,0.77617 1.48985,-0.63618 2.9772,-1.70357 4.39831,-2.83096 l 4.52579,-3.59339 0.81992,3.63589 c 1.80981,8.03293 10.88264,10.08148 18.74185,9.3853 7.54049,-0.66619 27.117254,-8.24167 32.276734,-13.88735 0.81242,-0.88991 1.41486,-1.81356 2.08354,-3.47215 0.49495,-1.23112 1.0274,-2.86596 1.4736,-4.33581 1.32237,-4.35331 0.5637,-5.51694 -0.68243,-5.4332 l -5.59193,3.54089 z" />
</svg>
