<?xml version="1.0"?>
<svg xmlns="http://www.w3.org/2000/svg" version="1.1">
  <path
     d="m 127.16743,29.90797 -5.14812,-5.14811 -7.40991,7.40991 7.40991,7.40877 5.14812,-5.14812 5.14813,5.14812 7.40992,-7.40877 -7.40992,-7.40991 -5.14813,5.14811 z m 0,-3.63416 6.70432,-6.70433 -6.70432,-6.70432 -6.70431,6.70432 6.70431,6.70433 z m -55.72508,9.90577 6.70432,-6.70432 -6.70432,-6.70432 -6.70547,6.70432 6.70547,6.70432 z M 0,69.49794 3.91733,75.92711 c 0.21008,0.3448 0.43272,0.68277 0.67704,1.00702 0.11075,0.14614 0.23178,0.29685 0.36194,0.4487 8.21827,9.58152 14.48759,13.35612 27.45437,13.46459 5.22691,0.0435 11.07491,-0.16098 12.52722,-0.32083 0.0891,-0.0104 0.17811,-0.0206 0.26831,-0.0308 8.39296,-0.98191 30.04613,-7.06282 31.46646,-16.75281 0.31855,-2.1773 0.68048,-3.84539 1.29702,-5.52718 1.0036,-2.73561 1.87246,-3.90933 1.1897,-7.23294 -0.19752,-0.95565 -0.52063,-2.08026 -0.81521,-3.0222 l -0.6017,-1.92955 2.54952,0.27288 c 0,0 2.11678,0.29685 2.11678,0.29685 0,0 -0.87114,-0.72844 -2.04028,-1.7069 -4.40142,-3.68328 -4.13084,-3.37273 -6.81849,-8.44891 -1.23423,-2.33373 -2.15448,-4.07146 -2.15448,-4.07146 l -2.92058,5.47808 c -0.32883,0.61655 -0.62453,1.31529 -0.90768,2.054 -1.17144,3.0496 -0.44072,3.51543 2.00832,5.69045 3.10897,2.76301 4.69257,7.5732 5.84687,11.7474 0.69646,2.52212 0.25576,3.19232 -1.55962,4.64006 -9.51187,7.58803 -23.08492,10.06789 -34.71016,10.46636 -2.06656,0.0708 -4.17308,0.0697 -6.27845,-0.0353 C 22.62594,81.90654 17.83518,79.69727 9.01065,74.69187 L 0,69.49806 z M 80.45528,86.5282 c 0.16554,2.33715 1.2285,3.78945 3.16262,4.20961 2.49585,0.54118 3.90705,-0.84603 4.54643,-3.65358 0.13928,-0.6154 0.10845,-1.12804 -0.27859,-1.3758 -0.73414,-0.47155 -2.75389,0.017 -3.73008,-0.51379 -1.21367,-0.66107 -1.52194,-3.47319 -1.22166,-4.78734 0.30027,-1.31528 1.06638,-2.72419 1.27532,-3.73805 0.0423,-0.20553 0.0616,-0.39392 -0.0251,-0.5001 -0.0114,-0.0125 -0.0228,-0.0251 -0.0331,-0.0365 -2.93771,-0.68733 -3.65129,11.02582 -3.69581,10.39559 z m 35.73315,-77.18417 -5.04537,5.13898 c -0.83804,0.85402 -0.95792,1.00702 -1.19198,1.53337 -0.32882,0.73642 -0.44186,1.96837 -0.28087,2.13506 0.52292,0.54118 2.37027,-0.77182 3.01306,-1.2582 5.63108,-4.25871 8.19658,-6.94066 9.10769,-12.45529 0.46241,-2.80298 -0.98532,-3.88763 -3.54625,-4.245 -4.06232,-0.56745 -8.09497,0.0137 -9.67286,3.15007 0.24547,11.97575 0.59257,5.12757 4.03836,4.27697 3.83398,-0.94535 7.95451,-3.04617 3.57822,1.72404 z m 27.65875,72.64916 c 0.4898,0.79808 0.52748,2.3988 0.86886,3.66385 1.11092,4.12627 5.52034,5.0351 9.48332,3.24142 2.49699,-1.13033 3.62162,-6.13231 3.2985,-8.70922 -0.17126,-1.35982 -1.38607,-4.35347 -2.91373,-4.96088 -0.96705,-0.38362 -1.56533,1.74573 -1.48426,2.98794 0.23634,3.63646 2.48215,6.12203 -0.36308,6.87672 -3.59991,0.95679 -6.26246,-1.53107 -6.23392,-5.24174 0.0206,-2.70136 0.73642,-3.55996 -1.56191,-2.93199 -1.89072,0.51835 -3.35786,1.25477 -4.74509,2.22297 -2.15104,1.50367 -6.67805,5.7521 -8.32559,7.81638 -1.21253,1.51852 -2.09853,3.08955 -1.31072,3.77232 0.58,0.50123 2.19101,-0.60513 3.89678,-2.09053 0.0125,-0.0114 6.13914,-5.82518 6.0969,-5.79778 0.53434,-0.34709 1.12119,-0.61883 1.9147,-0.84946 0.54804,-0.15984 1.19541,-0.29913 1.37924,0 z m 6.03753,-35.00473 2.00262,-1.40206 c 0.61655,-0.43157 1.15431,-0.77981 1.49683,-0.90312 1.57218,-0.56858 6.41203,-1.13603 8.17831,-0.9191 2.72306,0.33567 7.93969,2.14306 7.93969,2.14306 l 0,-0.30599 0.59712,0 0,-1.70235 c 0,-0.76496 -0.0936,-0.94992 -0.93394,-1.84277 -4.31921,-4.58981 -9.16478,-6.34924 -15.03448,-3.49373 -0.9682,0.47039 -1.74459,0.98874 -2.38967,1.58815 -0.99217,0.9214 -5.84572,7.00689 -4.36717,8.77203 0.0971,0.9819 0.3094,2.14762 0.63824,3.41154 0.49437,1.89871 1.11319,5.51918 1.11319,5.51918 0,0 -2.94912,-1.00702 -4.99398,-1.69435 -1.6875,-0.56631 -3.1809,-1.56304 -3.28252,-2.19101 -0.36308,-2.24809 0.9899,-4.04975 -0.94878,-3.50286 -1.88845,0.53205 -4.88439,3.0416 -7.40877,3.85796 -2.46161,0.79579 -6.4109,0.75925 -8.35643,-0.76498 -1.54364,-1.20911 -2.57007,-4.20847 -3.8808,-5.8149 -3.94929,-4.84213 -12.88914,-0.81064 -17.47096,2.40794 -6.01242,5.53402 -7.98649,8.65898 -10.01538,15.11097 L 92.12504,61.67244 C 91.06206,55.72395 89.21015,42.50825 89.21358,40.09232 89.22058,34.74554 88.42122,27.06618 87.27376,17.13871 86.44371,9.96514 85.43442,0 85.43442,0 l -1.06298,0 c -0.47724,0 -0.59941,0.11873 -1.22394,1.1817 -1.35068,2.30404 -3.07929,5.69959 -2.8886,7.90202 0.0925,1.06181 0.63252,2.25836 0.99445,3.49372 0.57201,1.9501 0.69988,3.99611 0.79693,6.12318 0.12901,2.80069 0.34367,6.23164 0.59828,9.7014 0.93166,12.67906 3.21629,48.67368 15.22743,57.21849 2.1088,1.50025 4.61721,2.90803 7.60402,4.3569 3.78944,1.8382 5.47352,0.8369 7.61087,-3.52 2.24238,-4.56812 -1.64754,-4.4665 -5.96904,-7.34483 -2.41251,-1.60644 -5.74754,-6.4657 -7.09137,-9.4194 -3.52799,-7.75472 -3.69126,-10.2266 5.19493,-14.10054 0.0342,-0.0148 0.0697,-0.0297 0.10505,-0.0456 2.10195,-0.90084 7.12105,-1.91243 8.35756,-1.68293 1.07666,0.19981 2.3497,0.99675 3.43208,2.14191 1.62242,1.71718 2.63857,4.20504 4.02922,5.66191 2.55522,2.67625 5.68016,1.6658 10.08159,0.38934 l 4.70284,-1.36897 2.75389,1.84849 c 5.25203,3.56568 8.81084,4.39458 15.47291,3.87509 13.86991,-1.08123 20.9316,-3.98355 25.05215,-16.46053 0.13814,-0.41902 0.25461,-0.80493 0.13928,-0.98419 -0.65535,-1.01614 -6.03867,3.46064 -6.56729,3.82599 -5.09561,3.52001 -7.27634,3.38528 -12.8332,2.4479 -1.12121,-0.18839 -2.0757,-0.35737 -2.98566,-0.91795 -1.61443,-0.99333 -3.09071,-3.2163 -4.6275,-4.80218 l -2.45361,-2.5324 z m 7.95567,-39.89024 -1.50139,-0.73529 0.64395,-0.73072 c 0.59713,-0.67819 1.99233,-0.91339 2.70935,-0.8072 1.023,0.15185 2.61003,0.8015 2.80413,1.59501 0.0856,0.34709 0.0765,0.81064 0.0297,1.26505 L 162.34916,9.39426 160.57488,8.5528 C 159.75854,8.16688 158.94675,7.78098 158.94675,7.78098 157.93632,7.30259 157.82557,7.23409 157.8404,7.09822 z m 13.45203,16.89209 -0.27515,0 0,0.28201 -1.61329,0 c -0.72501,0 -0.87229,-0.006 -1.48084,-0.0582 -3.21858,-0.27629 -1.99235,-3.85794 -2.12822,-6.53647 -0.0514,-1.02186 -0.39504,-2.06998 -0.82433,-2.98795 -0.25119,-0.53661 -0.53092,-1.02985 -0.77638,-1.51852 l -0.70789,-1.41119 0.0412,-1.2936 c 0.0515,-1.59615 0.67364,-3.42408 0.89285,-5.13442 0.40874,-3.18432 -1.23194,-4.83757 -4.61721,-5.29884 -2.30633,-0.31284 -4.96887,1.64411 -6.51479,4.22788 -0.57887,0.96706 -1.02415,3.73921 -0.68733,4.6058 0.26831,0.68961 1.44316,1.48654 2.33715,1.87702 1.21823,0.53321 2.27321,0.85746 3.02676,1.18513 l 1.75601,0.7604 -0.89172,1.51739 c -0.33224,0.51264 -0.49551,0.73413 -0.68618,0.97504 -0.89512,1.13034 -1.89529,2.08482 -3.06787,3.03133 -3.82598,3.085 -10.12498,6.99319 -11.54416,9.01864 -0.5275,0.75241 -0.85403,1.83706 -0.13815,2.9594 0.2192,0.34252 0.37335,0.35166 0.76611,0.20322 1.87017,-0.70216 11.64235,-7.77527 13.59017,-10.13411 2.83609,-3.4355 3.34416,-5.92679 4.88552,-3.31562 0.39618,0.67247 0.76382,1.53679 0.96135,2.53581 1.00587,5.08989 -0.73072,8.30162 3.66158,9.30178 2.22982,0.50695 5.34563,0.0674 6.64608,-1.69092 0.72044,-0.97391 1.41919,-3.01421 1.23766,-4.08743 -0.17354,-1.01959 -3.97441,-6.40862 -4.85471,-6.62326 -0.16327,-0.0401 -0.32768,-0.048 -0.49094,-0.0286 -0.2215,0.0262 -0.29115,0.14728 -0.69647,1.21253 -0.30141,0.79238 -0.91567,1.75486 -0.66791,2.45247 0.38362,1.08466 2.77786,2.30289 2.8612,3.55083 0.0137,0.20322 0,0.42244 0,0.42244 z m -71.45262,7.06512 c -0.0273,1.44317 -0.0353,2.92287 -0.0353,2.92287 0,0 0.0697,-0.13587 0.36422,-0.7056 1.69092,-3.28024 1.80053,-2.92972 2.21041,-6.65523 0.61427,-5.59569 0.1941,-13.5662 -0.68048,-16.37375 C 101.00561,8.02188 98.86598,3.65928 97.25155,1.15658 96.63729,0.20322 96.51741,0.09134 96.0493,0.03654 c -1.38151,-0.16213 -1.54249,0.15641 -1.77198,2.40565 -0.24662,2.39651 -0.58115,4.31693 0.137,5.8286 0.55489,1.16914 1.78569,2.47415 2.6009,3.65015 2.51525,3.62846 3.03132,10.81802 3.03132,15.48891 l -0.20666,3.64558 z"
     style="fill:#000000;stroke:none" />
</svg>
