<?xml version="1.0" encoding="UTF-8" standalone="yes"?>
<!-- Created with sK1/UniConvertor (http://sk1project.org/) -->
<svg xmlns="http://www.w3.org/2000/svg" xmlns:xlink="http://www.w3.org/1999/xlink"
  width="595.276pt" height="841.89pt" viewBox="0 0 595.276 841.89"
  fill-rule="evenodd">
<path
	style="stroke:none; fill:#000000"
	d="m 159.56801,76.228964 c 0.167,2.299 1.239,3.729 3.19,4.141 2.517,0.533 3.94,-0.832 4.585,-3.593 0.142,-0.606 0.11,-1.111 -0.28,-1.354 -0.741,-0.464 -2.778,0.017 -3.762,-0.505 -1.225,-0.651 -1.536,-3.416 -1.233,-4.709 0.303,-1.294 1.076,-2.68 1.286,-3.677 0.043,-0.202 0.063,-0.389 -0.025,-0.492 -0.011,-0.013 -0.023,-0.026 -0.034,-0.037 -2.962,-0.675 -3.682,10.847 -3.727,10.226 z m 6.716,-60.465 -6.015,6.015 6.015,6.014 6.014,-6.014 -6.014,-6.015 z m -60.902,4.318 -6.014004,6.015 6.014004,6.014 6.015,-6.014 -6.015,-6.015 z m -46.830004,38.734 -4.179,-4.179 -6.015,6.014 6.015,6.015 4.179,-4.179 4.179,4.179 6.015,-6.015 -6.015,-6.014 -4.179,4.179 z m 80.872004,-24.546 0.574,-0.01 c 0.258,-0.004 0.327,-0.161 0.691,-1.568 2.096,-8.092 2.479,-12.561 -2.677,-17.75 -0.849,-0.855 -1.839,-1.572 -2.476,-0.806 -0.432,0.52 -0.874,4.188 -0.677,4.99 0.345,1.4 1.367,1.855 2.547,2.806 2.665,2.149 3.333,3.761 2.994,6.623 -0.26,2.196 -0.976,5.715 -0.976,5.715 z m -13.206,-20.751 c -0.373,2.329 0.08,2.901 1.629,2.186 1.054,-0.487 14.658,-8.4009996 16.645,-10.7699996 0.801,-0.955 1.599,-2.643 1.88,-4.16199996 0.174,-0.935 -0.107,-0.902 -1.114,-0.527 -2.335,0.86799996 -17.726,10.23699956 -18.208,11.08399956 -0.451,0.79 -0.74,1.611 -0.832,2.189 z m 28.822,0 c -0.372,2.329 0.081,2.901 1.629,2.186 1.055,-0.487 14.659,-8.4009996 16.646,-10.7699996 0.801,-0.955 1.599,-2.643 1.88,-4.16199996 0.174,-0.935 -0.107,-0.902 -1.114,-0.527 -2.335,0.86799996 -17.726,10.23699956 -18.209,11.08399956 -0.45,0.79 -0.739,1.611 -0.832,2.189 z m -50.63,-5.1959996 -4.607004,4.5769996 c -0.766,0.76 -0.875,0.897 -1.089,1.365 -0.3,0.656 -0.403,1.753 -0.256,1.902 0.477,0.482 2.164004,-0.687 2.752004,-1.12 5.143,-3.793 7.486,-6.1819996 8.317,-11.0939996 0.423,-2.496 -0.899,-3.46299996 -3.238,-3.78099996 -3.711,-0.505 -7.393004,0.012 -8.835004,2.80499996 0.225,10.6669996 0.542,4.567 3.689004,3.81 3.501,-0.842 7.265,-2.713 3.267,1.536 z M 57.960006,21.378964 57.495006,9.8609644 c -0.069,-1.709 -0.096,-2.007 -0.272,-2.974 -0.538,-2.967 -1.985,-4.592 -3.499,-5.642 -1.924,-1.33399996 -3.393,-1.82899996 -5.376,0.049 -1.631,1.544 -1.785,7.136 -1.144,8.01 0.478,0.652 1.746,0.593 3.28,0.126 3.832,-1.168 4.216,-0.899 5.214,4.3599996 0.474,2.499 0.53,4.841 0.297,7.354 -0.496,5.337 -1.66,7.933 0.621,11.067 0.95,1.304 1.941,1.501 4.107,0.922 1.539,-0.411 1.844,-1.339 2.489,-4.104 0.454,-1.947 0.813,-3.69 0.697,-5.631 -0.231,-3.851 -3.439,-11.089 0.428,-12.887 0.713,-0.332 1.641,-0.116 2.441,0.111 1.078,0.305 1.261,0.166 1.829,-1.3829996 0.467,-1.273 1.008,-2.445 1.305,-3.816 1.116,-5.14599996 -0.592,-6.598 -4.02,-4.48999996 -3.932,2.41799996 -5.698,12.77699956 -4.858,19.72099956 0.257,2.863 0.539,5.441 0.539,5.441 0,0 -0.235,-0.004 -0.515,-0.039 -1.1,-0.141 -2.991,-2.037 -3.098,-4.677 z m 28.848,34.785 -4.179,-4.179 -6.015,6.014 6.015,6.015 4.179,-4.18 4.179,4.18 6.015,-6.015 -6.015,-6.014 -4.179,4.179 z m -0.152,6.821 -6.015,6.015 6.015,6.014 6.014,-6.014 -6.014,-6.015 z m -64.15,-32.096 c 0.217,-0.207 0.528,-0.364 0.928,-0.461 1.298,-0.316 3.533,0 3.533,0 0,0 0.765,-3.034 0.482,-4.497 -0.316,-1.631 -3.238,-1.75 -4.814,-0.558 -2.016,1.523 -3.082,8.147 -2.407,10.196 0.186,0.568 0.473,1.082 0.853,1.493 0.138,0.15 0.289,0.287 0.446,0.428 l 1.107,0.994 0.593,1.611 c 0.247,0.671 0.405,1.248 0.405,1.248 0,0 4.503,-2.845 5.983,-4.657 0.656,-0.802 0.719,-1.402 0.963,-2.407 0.443,-1.819 1.109,-3.529 0.722,-3.851 -0.321,-0.268 -1.249,-0.143 -1.982,0.268 -1.083,0.606 -1.737,1.835 -3.467,2.139 -0.483,0.084 -1.048,0.097 -1.54,0.084 -3.779,-0.583 -0.808,-2.984 -1.805,-2.03 z m -9.3789,45.34 c 0.1666,2.299 1.2391,3.729 3.1899,4.141 2.517,0.533 3.94,-0.832 4.585,-3.593 0.142,-0.606 0.11,-1.111 -0.28,-1.354 -0.741,-0.464 -2.778,0.017 -3.762,-0.505 -1.225,-0.651 -1.536,-3.416 -1.233,-4.709 0.303,-1.294 1.076,-2.68 1.287,-3.677 0.042,-0.202 0.062,-0.389 -0.026,-0.492 -0.011,-0.013 -0.022,-0.026 -0.034,-0.037 -2.9618,-0.675 -3.6819,10.847 -3.7269,10.226 z m 126.768904,-27.946 c 0.433,0.338 0.823,1.535 0.611,2.112 -0.41,1.119 -6.521,0.593 -6.706,0.535 -1.512,-0.474 -2.705,-1.702 -1.86,-2.906 1.316,-1.874 5.877,-1.364 7.955,0.259 z m 4.308,8.4 c 0.358,0.717 -3.548,7.101 -7.078,8.777 -5.27,2.503 -7.498,4.383 -12.314,5.911 -0.688,0.218 -19.621,3.804 -17.793,6.199 0.273,0.358 1.05,0.732 1.805,1.066 8.311,3.677 12.993,1.482 22.864,-3.202 4.341,-2.059 12.112,-7.465 13.011,-9.05 3.037,-5.358 4.185,-23.979 -6.157,-26.954 -3.538,-1.018 -6.008,1.385 -8.301,5.618 -2.797,5.166 -1.868,13.752 3.437,13.517 4.233,-0.188 9.892,-3.149 10.526,-1.882 z m 25.491,-16.06 0,0.357 -5.233,0 -2.18,-1.385 c -0.421,-0.267 -0.471,-0.325 -0.499,-0.571 -0.216,-1.888 2.432,-1.441 3.906,-0.84 1.227,0.501 2.372,1.286 3.53,1.977 0.429,0.256 0.476,0.302 0.476,0.462 z m -19.48,12.292 c 1.018,2.329 1.548,2.743 4.519,4.565 8.134,4.986 13.743,4.773 18.963,-3.571 2.89,-4.62 3.844,-7.867 3.263,-11.267 -0.48,-2.808 -2.919,-7.861 -4.67,-9.676 -1.32,-1.368 -5.594,-3.055 -7.151,-2.822 -3.855,0.575 -6.047,3.144 -6.649,7.88 -0.806,6.336 0.049,9.23 5.023,10.252 1.283,0.264 2.72,0.397 4.132,0.101 3.606,-0.757 6.466,-3.383 6.36,-0.174 -0.144,4.361 -7.517,5.527 -11.526,4.844 -2.388,-0.406 -6.926,-2.886 -8.114,-4.433 -0.646,-0.841 -1.125,-1.792 -1.639,-2.717 -0.243,-0.436 -0.272,-0.54 -0.295,-1.038 L 150.36801,-3.5557392e-5 146.29901,6.5829644 c 0,0 3.65,45.2709996 3.65,45.2709996 0.04,0.498 0.067,0.604 0.266,1.061 z m -45.494,-7.281 5.462,19.448 c 0,0 -3.038,1.831 -6.596,3.229 -5.730004,2.252 -12.809004,3.384 -16.114004,3.822 l -4.997,0.654 c -0.307,0.044 -0.616,0.083 -0.865,0.133 -0.489,0.098 -0.599,0.108 -1.097,0.096 -6.964,-0.156 -14.322,0.272 -20.887,-0.579 -5.635,-0.731 -16.113,-3.055 -20.933,-6.65 -2.274,-1.695 -4.889,-4.146 -4.889,-4.146 0,0 1.16,4.06 2.611,6.978 0.782,1.573 8.887,7.66 11.048,8.297 13.224,3.898 22.403,4.636 39.315,2.047 13.467004,-2.062 21.688004,-5.033 26.685004,-17.966 1.29,-3.339 0.883,-4.663 -0.549,-7.316 l -1.492,-2.765 1.525,0.639 c 0.488,0.182 2.71,0.498 2.71,0.498 0,0 -0.53,-0.585 -1.296,-1.431 -2.547,-2.815 -3.399,-4.796 -5.165,-8.157 -0.768,-1.461 -1.313,-2.52 -1.313,-2.52 0,0 -1.689,2.022 -2.45,3.266 -0.317,0.518 -0.473,0.9 -0.659,1.373 -0.183,0.465 -0.188,0.57 -0.054,1.05 z M 36.267006,7.9879644 l 3.397,36.8839996 c 0,0 -8.162,2.596 -13.484,3.94 -9.612,2.429 -24.1724995,0.538 -22.2430995,-11.899 0.4611,-2.972 1.9136,-8.172 1.9136,-8.172 0,0 -3.5277,6.594 -5.09780004,10.959 -1.2655,3.518 -0.9523,7.211 1.06880004,10.53 4.8862,8.026 22.2624995,7.874 32.9724995,2.867 1.456,-0.538 2.573,-1.073 2.914,-1.469 0.328,-0.381 0.905,-1.455 1.49,-2.323 l 1.3,-1.928 1.574,2.736 c 0.269,0.468 0.561,0.942 0.891,1.33 1.29,1.52 4.415,2.337 7.538,2.651 5.978,0.6 6.581,0.096 11.85,-2.492 l 2.512,-1.237 2.234,2.003 c 0.647,0.58 1.348,1.184 2.242,1.493 1.774,0.613 4.733,-0.036 7.007,-0.708 1.1,-0.325 2.075,-0.643 3.359,-0.877 6.123,-1.112 19.288,-0.282 19.288,-0.282 l 2.423004,-6.066 c 0,0 -6.046004,-2.035 -9.481004,-3.642 -1.572,-0.735 -3.675,-2.759 -5.117,-4.82 -1.969,-2.814 -10.761,-5.304 -13.061,-0.152 -0.797,1.783 -2.497,5.591 -2.497,5.591 0,0 6.54,-2.283 9.45,-1.358 2.355,0.75 3.684,3.087 3.684,3.087 0,0 -4.852,1.229 -7.79,1.881 -3.199,0.709 -6.14,0.796 -8.373,-1.828 -0.773,-0.908 -1.124,-2.044 -1.633,-2.066 -0.538,-0.024 -1.252,1.191 -2.154,2.111 -3.268,3.338 -9.591,2.909 -14.265,2.11 -2.301,-0.393 -3.926,-1.261 -4.796,-2.639 -1.703,-2.697 -5.914,-44.202999557392 -5.914,-44.202999557392 0,0 -1.659,2.729999957392 -2.391,4.482999957392 -0.393,0.94 -0.52,1.6 -0.726,2.416 -0.123,0.483 -0.131,0.592 -0.085,1.089 z M 120.35401,55.636964 c 0,0 0.621,-0.815 1.32,-1.867 2.739,-4.098 1.535,-7.314 1.272,-13.258 -0.118,-2.652 0.054,-4.991 -0.031,-10.43 -0.073,-4.72 -0.485,-11.284 -0.692,-14.347 l -0.109,-1.616 0.766,0.061 1.894,0.153 -0.577,-3.981 c -0.598,-4.1249996 -2.29,-10.351999557392 -2.29,-10.351999557392 0,0 -3.606,3.744999957392 -4.631,5.889999957392 -0.633,1.325 -0.079,2.327 0.492,4.064 1.609,4.8899996 2.586,45.6829996 2.586,45.6829996 z m -94.146004,-43.374 c 0.945,-1.41 1.568,-3.0899996 1.744,-5.2049996 0.013,-0.146 0.025,-0.294 0.037,-0.444 0.224,-2.686 -1.714,-4.871 -4.806,-6.24099996 -1.681,-0.745 -3.222,-0.438 -5.301,1.50599996 -1.731,1.617 -4.1232,4.958 -3.6946,6.999 0.4436,2.1109996 2.5156,0.126 4.6086,-0.615 0.816,-0.289 1.548,-0.42 2.634,-0.024 1.263,0.459 3.004,1.63 3.004,1.63 0,0 -11.1072,8.4269996 -15.3557995,11.3399996 -0.6352,0.436 -1.9016,0.994 -1.4603,1.688 0.3061,0.482 1.8514,0.008 3.6471995,-0.767 2.2955,-0.99 4.4699,-2.125 6.3909,-3.232 5.426,-3.13 7.161,-4.561 8.552,-6.635 z m 56.548,-5.7229996 c 1.494,3.9459996 3.929,7.1429996 3.958,10.0869996 0.063,6.475 -5.643,12.268 -0.209,14.531 2.428,1.012 4.906,1.347 6.034,0.431 1.129,-0.917 2.186,-4.147 1.847,-5.644 -0.339,-1.497 -2.74,-3.204 -4.803,-2.852 -0.608,0.104 -1.177,0.41 -1.62,1.024 -0.7,0.969 -1.13,2.399 -1.581,1.173 -0.218,-0.593 -0.076,-1.534 0.123,-2.443 0.621,-2.843 1.796,-5.366 1.97,-7.901 0.192,-2.792 -1.563,-9.0039996 -2.709,-12.2319996 -0.478,-1.346 -1.032,-2.71499996 -1.571,-2.713999957392 -0.614,0.0019999974 -1.842,2.604999957392 -1.877,4.025999957392 -0.022,0.899 0.213,1.917 0.438,2.514 z"/>
</svg>