<?xml version="1.0"?>
<svg xmlns="http://www.w3.org/2000/svg" version="1.1">
  <path
     d="m 34.373512,50.219327 0.116,-0.753 c 0.131,-0.842 0.115,-1.811 -0.061,-2.547 -0.003,-0.009 -0.005,-0.018 -0.007,-0.027 0,0 0.017,-0.484 0.017,-0.484 0,0 0.201,-0.019 0.466,-0.015 0.841,0.013 1.933,0.757 2.537,1.311 0.948,0.867 1.508,2.281 -0.279,2.372 -0.643,0.033 -1.443,0.074 -2.002,0.102 l -0.787,0.041 z m -3.817,-0.836 c -0.34,-0.2 -0.559,-0.361 -0.561,-0.371 -0.093,-0.449 0.051,-1.452 0.051,-1.452 0,0 1.551,0.054 2.092,0.073 0.376,0.013 0.549,0.48 0.623,0.902 0.473,2.685 -2.053,0.938 -2.205,0.848 z m -1.964,13.948 c 0.489,-0.628 1.065,-1.404 1.784,-2.388 1.286,-1.758 2.067,-3.323 2.452,-4.294 l 0.714,-1.804 1.828,-0.43 c 1.522,-0.358 3.297,-0.438 4.273,-1.298 0.138,-0.121 2.16,-4.22 1.731,-5.945 -0.263,-1.056 -2.035,-3.265 -2.621,-3.724 -1.972,-1.544 -6.235,-3.28 -6.235,-3.28 0,0 -0.618,0.891 -1.324,2.109 -4.479,7.733 -3.103,9.416 -0.871,11.137 0.857,0.691 1.354,1.545 1.185,2.117 -0.044,0.149 -0.131,0.332 -0.252,0.537 -8.285,11.586 -16.291,14.698 -12.898,14 4.201,-0.865 9.538,-5.842 10.234,-6.737 z m 54.062,9.277 -4.073,-4.073 -5.863,5.862 5.863,5.863 4.073,-4.074 4.074,4.074 5.862,-5.863 -5.862,-5.862 -4.074,4.073 z m 25.475998,-46.34 -4.074,-4.073 -5.861998,5.862 5.861998,5.863 4.074,-4.074 4.073,4.074 5.863,-5.863 -5.863,-5.862 -4.073,4.073 z m -0.172,-16.2720001 c 0.162,2.2400001 1.208,3.6340001 3.109,4.0360001 2.454,0.519 3.841,-0.812 4.47,-3.503 0.138,-0.5900001 0.107,-1.0820001 -0.273,-1.3200001 -0.723,-0.451 -2.708,0.018 -3.667,-0.492 -1.194,-0.634 -1.498,-3.33 -1.202,-4.59 0.295,-1.261 1.049,-2.612 1.254,-3.58399998 0.041,-0.197 0.06,-0.378 -0.025,-0.479 -0.011,-0.013 -0.022,-0.025 -0.033,-0.036 -2.887,-0.659 -3.589,10.57300008 -3.633,9.96799998 z M 26.538512,70.073327 c 1.63,3.606 3.894,6.727 7.037,8.762 1.239,0.802 2.445,1.421 2.969,1.425 2.295,0.014 4.642,-1.198 6.184,-3.413 2.032,-2.919 5.346,-20.087 7.923,-24.704 1.73,-3.1 4.064,-4.354 5.99,-1.643 0.653,0.918 0.993,2.039 1.251,3.196 2.063,9.228 13.328,10.107 19.953,9.688 5.423,-0.343 8.141,-1.714 12.58,-4.49 4.863,-3.042 5.535,0.992 17.039998,3.007 3.104,0.544 6.789,0.679 6.789,0.679 0,0 3.758,-5.735 4.612,-8.795 0.62,-2.219 -1.389,-11.906 -4.185,-12.754 -2.226,-0.675 -2.901,2.83 -3.351,5.411 -0.249,1.43 -0.308,2.882 0.386,4.058 1.123,1.9 4.154,4.067 0.565,4.187 -2.545,0.085 -12.027,-2.476 -13.143998,-3.548 -1.383,-1.327 -2.753,-3.538 -2.753,-3.538 0,0 -4.413,4.067 -7.985,6.184 -4.397,2.607 -20.076,3.459 -24.607,-1.642 -3.816,-4.296 -5.804,-14.212 -11.402,-11.112 -3.514,1.946 -6.242,7.06 -7.536,10.706 -3.408,9.592 -4.217,23.608 -11.305,19.16 -3.153,-1.978 -7.693,-9.569 -8.656,-15.909 -1.825,-12.01 -2.365,-11.244 -2.477,-8.345 -0.58,15.138 5.389,26.232 4.122,23.43 z M 139.21551,8.1203269 c -0.126,0.224 -0.24,0.398 -0.291,0.469 -0.278,0.388 -0.521,0.723 -0.754,0.991 l -0.914,1.0470001 -1.344,-0.6460001 c -0.972,-0.468 -1.691,-1.294 -1.835,-2.134 -0.144,-0.836 1.374,-1.838 2.076,-2.058 0.11,-0.035 0.229,-0.065 0.357,-0.09 0.295,-0.057 0.643,-0.086 0.965,-0.101 3.894,-0.173 1.344,3.227 1.74,2.522 z m -16.683,12.6390001 c -6.483,3.133 -9.547,4.206 -3.866,3.494 7.755,-0.971 11.928,-2.765 17.622,-7.442 1.071,-0.88 1.871,-1.537 1.871,-1.537 l 3.416,1.549 c 0.351,0.16 0.666,0.317 0.997,0.492 3.246,1.717 5.267,4.029 7.497,7.28 0.162,0.237 0.322,0.47 0.419,0.737 0.117,0.325 0.146,0.512 0.203,1.541 0.023,0.411 0.04,0.816 0.054,1.215 0,0 1.99,-1.345 1.99,-1.345 0.17,-1.207 0.164,-2.366 0.043,-3.42 -0.625,-5.46 -6.59,-11.664 -10.823,-11.226 -1.206,-0.325 -2.485,-0.668 -2.485,-0.668 l 1.346,-3.4140001 c 0.868,-2.201 2.33,-4.078 1.016,-6.285 -0.682,-1.14699998 -2.373,-2.00999998 -3.706,-1.64599998 -1.249,0.341 -4.856,2.40399998 -5.507,3.30499998 -0.991,1.372 -1.865,6.8450001 -1.352,7.7830001 0.71,1.297 2.442,2.777 2.442,2.777 -0.635,0.503 -1.3,1.01 -1.991,1.519 -4.458,3.286 -15.536,8.36 -9.186,5.291 z m -66.349998,55.354 c 0.162,2.241 1.208,3.634 3.109,4.036 2.453,0.519 3.841,-0.811 4.47,-3.502 0.137,-0.591 0.107,-1.083 -0.274,-1.32 -0.722,-0.452 -2.707,0.017 -3.667,-0.493 -1.193,-0.634 -1.497,-3.329 -1.202,-4.589 0.296,-1.262 1.049,-2.612 1.255,-3.585 0.041,-0.197 0.06,-0.378 -0.026,-0.479 -0.01,-0.013 -0.021,-0.025 -0.032,-0.036 -2.887,-0.658 -3.589,10.573 -3.633,9.968 z m 71.538998,-49.964 -5.713,5.713 5.713,5.714 5.714,-5.714 -5.714,-5.713 z m 17.486,10.529 c 0.341,0.069 0.734,0.195 1.091,0.305 1.046,0.323 2.662,0.649 3.717,1.402 0.747,0.533 1.87,2.605 0.335,2.685 -0.535,0.028 -1.943,0.102 -1.943,0.102 -1.206,0.063 -1.426,0.059 -2.208,-0.04 -1.116,-0.142 -1.858,-0.479 -2.414,-1.158 -0.184,-0.225 -0.263,-0.351 -0.305,-0.592 -0.24,-1.371 0.165,-3.018 1.727,-2.704 z m -14.022,13.112 c 0.405,0.259 0.81,0.554 1.169,0.858 1.097,0.927 2.092,2.316 0.141,2.418 -0.653,0.034 -1.56,0.082 -1.56,0.082 -1.205,0.063 -1.425,0.059 -2.207,-0.04 -1.328,-0.169 -3.071,-1.077 -3.254,-1.987 -0.016,-0.081 -0.029,-0.168 -0.038,-0.257 -0.289,-2.6 3.495,-2.517 5.749,-1.074 z m -15.955,30.715 c -1.651,1.074 -3.64,2.245 -5.421,3.191 l -8.776,4.664 9.491,-1.266 c 1.731,-0.231 3.653,-0.534 5.47,-0.922 8.505,-1.812 9.924,-4.388 16.065,-10.104 3.829,-3.564 7.795,-7.403 8.36,-8.511 1.562,-3.06 0.839,-6.106 1.865,-7.463 0.452,-0.597 1.842,-1.252 3.455,-1.671 9.196,-2.393 9.886,0.028 12.224,-10.482 0.915,-4.11 1.584,-9.211 -0.569,-9.18 -0.194,0.003 -0.389,-0.008 -0.565,-0.042 -0.637,-0.121 -1.525,-2.159 -2.047,-3.764 -1.561,-4.799 -6.66,-7.328 -10.301,-4.889 -2.776,1.86 -4.874,9.234 -4.344,13.048 0.511,3.674 2.728,5.462 6.332,5.701 0.986,0.065 1.96,0.072 3.008,-0.158 2.116,-0.465 4.535,-1.897 5.463,-1.292 0.467,0.305 0.556,1.128 0.087,1.675 -0.516,0.602 -3.131,1.473 -4.429,1.821 -3.451,0.924 -9.661,1.763 -9.661,1.763 0,0 -1.341,-2.502 -2.474,-4.275 -2.298,-3.595 -7.864,-9.543 -11.955,-6.281 -2.702,2.155 -3.982,11.215 -3.842,13.022 0.388,5.012 2.786,5.72 9.039,5.559 2.951,-0.076 6.819,-0.358 6.819,-0.358 0,0 0.114,2.176 0.114,2.176 0,0 -4.089,3.283 -8.463,6.795 -7.334,5.888 -8.295,6.912 -14.945,11.243 z m -102.100998,-27.87 0.173,-2.129 -3.021,0.675 c -14.6839997,3.283 -3.3109997,-21.69 -6.1249997,-17.121 -3.24000003,5.262 -4.65700003,11.545 -3.99900003,17.165 0.072,0.613 0.15,1.171 0.245,1.681 1.53300003,8.194 12.22199973,5.956 12.72699973,-0.271 z m -11.2639997,23.876 c 0.147,2.026 1.092,3.285 2.811,3.649 2.218,0.469 3.472,-0.734 4.04,-3.166 0.125,-0.534 0.097,-0.979 -0.247,-1.194 -0.653,-0.408 -2.447,0.016 -3.315,-0.445 -1.079,-0.573 -1.353,-3.009 -1.086,-4.149 0.267,-1.14 0.948,-2.361 1.133,-3.24 0.038,-0.178 0.055,-0.342 -0.022,-0.433 -0.01,-0.011 -0.02,-0.022 -0.03,-0.033 -2.61,-0.595 -3.244,9.558 -3.284,9.011 z"
     style="fill:#000000;stroke:none" />
</svg>
