<?xml version="1.0" encoding="UTF-8" standalone="yes"?>
<!-- Created with sK1/UniConvertor (http://sk1project.org/) -->
<svg xmlns="http://www.w3.org/2000/svg" xmlns:xlink="http://www.w3.org/1999/xlink"
  width="595.276pt" height="841.89pt" viewBox="0 0 595.276 841.89"
  fill-rule="evenodd">
<path
	d="m 56.215,29.63493 c 0.137,1.891 1.019,3.067 2.625,3.406 2.07,0.438 3.241,-0.685 3.772,-2.956 0.116,-0.498 0.09,-0.914 -0.231,-1.114 -0.61,-0.381 -2.285,0.014 -3.095,-0.416 -1.007,-0.535 -1.264,-2.81 -1.015,-3.874 0.25,-1.064 0.886,-2.204 1.059,-3.025 0.035,-0.166 0.051,-0.319 -0.021,-0.404 -0.009,-0.011 -0.019,-0.021 -0.028,-0.03 -2.436,-0.556 -3.029,8.923 -3.066,8.413 z m -39.128,29.137 c 0.137,1.891 1.02,3.067 2.625,3.407 2.07,0.437 3.241,-0.685 3.772,-2.957 0.116,-0.498 0.09,-0.913 -0.231,-1.114 -0.61,-0.381 -2.285,0.015 -3.095,-0.415 -1.007,-0.535 -1.263,-2.81 -1.014,-3.874 0.249,-1.064 0.885,-2.205 1.058,-3.025 0.035,-0.166 0.051,-0.319 -0.021,-0.405 -0.009,-0.01 -0.018,-0.02 -0.027,-0.03 -2.437,-0.556 -3.03,8.923 -3.067,8.413 z m 34.187,-45.34 -0.115,-2.654 c -0.047,-1.073 -0.032,-1.265 0.155,-1.922 0.138,-0.488 0.284,-1.021 0.653,-1.365 0.902,-0.837 3.134,-0.547 4.168,-1.237 1.49,-0.993 1.491,-4.404 0.345,-5.786 -1.216,-1.466 -3.674,0.862 -4.681,2.194 -0.618,0.818 -1.204,1.756 -1.467,2.85 -0.122,0.508 -0.19,1.083 -0.285,1.587 l -0.468,2.469 -1.544,-1.965 c -2.114,-2.784 -1.469,-3.611 -4.575,-4.368 -1.041,-0.254 -3.297,-0.159 -3.731,1.013 -0.34,0.917 0.457,3.146 0.956,3.676 0.384,0.407 1.938,1.417 2.58,1.479 1.049,0.101 3.193,-0.537 3.193,-0.537 0,0 1.73,2.49 2.787,3.659 0.461,0.51 0.842,0.922 1.433,0.933 0.245,0.004 0.596,-0.026 0.596,-0.026 z m -15.324,18.638 0.463,-0.008 c 0.208,-0.003 0.264,-0.13 0.558,-1.266 1.692,-6.534 2.002,-10.142 -2.162,-14.333 -0.685,-0.69 -1.485,-1.269 -1.999,-0.65 -0.349,0.419 -0.706,3.382 -0.547,4.028 0.279,1.132 1.104,1.499 2.057,2.267 2.152,1.735 2.691,3.036 2.417,5.347 -0.21,1.774 -0.787,4.615 -0.787,4.615 z m 4.595,26.274 3.739,3.74 4.694,-4.695 -4.694,-4.694 -3.739,3.739 -3.739,-3.739 -4.695,4.694 4.695,4.695 3.739,-3.74 z m 14.923,-9.49 -4.694,4.694 4.694,4.694 4.694,-4.694 -4.694,-4.694 z m -55.361,-6.903 c -0.052,0.887 -0.107,2.081 -0.107,3.132 -0.004,5.382 2.645,13.695 7.636,15.207 5.954,1.804 6.181,-8.303 8.105,-13.776 0.316,-0.901 0.662,-1.527 1.784,-2.526 0.959,-0.853 2.486,-1.978 2.486,-1.978 0,0 0.811,2.967 1.669,4.763 2.007,4.205 8.799,5.741 13.393,4.117 1.1,-0.389 2.305,-0.985 3.445,-1.523 l 3.407,-1.606 1.223,1.473 c 0.137,0.165 0.307,0.347 0.526,0.544 1.116,1.01 5.679,0.836 7.052,0.308 1.005,-0.386 2.676,-1.634 3.64,-2.653 0.692,-0.731 0.811,-0.776 1.189,-0.445 1.741,1.524 6.338,1.775 7.515,1.592 1.291,-0.201 2.762,-0.716 3.583,-1.331 0.798,-0.597 2.71,-3.746 3.005,-4.948 0.553,-2.251 -0.095,-3.877 -1.001,-6.864 -0.429,-1.412 -0.865,-2.763 -1.722,-2.306 -1.202,0.641 -2.136,4.661 -1.819,5.836 0.218,0.806 0.812,1.559 0.845,2.86 0.01,0.433 -0.041,0.928 -0.041,0.928 l -3.845,-0.168 c -1.002,-0.044 -1.197,-0.062 -1.951,-0.177 -0.967,-0.148 -1.931,-0.579 -2.416,-1.21 -0.652,-0.847 -0.739,-1.436 -1.372,-0.91 -0.777,0.645 -1.383,2.445 -2.349,3.245 -0.571,0.472 -2.031,0.876 -3.018,0.984 -1.545,0.17 -4.241,0.05 -4.241,0.05 0,0 2.139,-0.952 3.287,-1.238 0.767,-0.191 1.091,-0.084 1.379,-0.271 0.86,-0.559 1.981,-5.68 1.806,-7.063 -0.193,-1.533 -1.285,-2.073 -3.23,-2.677 -5.334,-1.658 -8.232,-1.567 -13.377,-0.213 -3.442,0.907 -6.608,1.229 -7.153,4.316 -0.121,0.682 -0.138,0.857 -0.177,1.747 l -0.087,1.98 3.638,0.159 c 1.002,0.044 1.216,0.061 2.143,0.17 0.748,0.088 3.242,0.949 3.812,1.392 0.592,0.459 0.561,1.085 -0.064,1.484 -0.902,0.576 -4.617,1.011 -5.365,1.068 -3.695,0.278 -8.004,-0.568 -9.933,-4.153 -0.76,-1.412 -0.782,-3.357 -1.661,-4.534 -0.799,-1.071 -2.445,-0.374 -3.55,0.402 -4.554,3.198 -4.818,9.556 -6.579,14.401 -0.894,2.462 -2.79,3.829 -5.301,2.186 -1.262,-0.825 -2.21,-2.011 -2.925,-3.372 -2.047,-3.895 -1.9,-7.63 -1.989,-9.045 -0.204,-3.209 -0.783,-8.207 -1.295,0.643 z m 40.706,-4.033 2.31,-0.171 3.498,0.276 2.388,0.747 -2.657,1.699 c -0.348,0.222 -0.726,0.44 -1.052,0.616 l -1.282,0.691 -0.693,-0.991 c -0.165,-0.236 -0.354,-0.523 -0.592,-0.853 l -1.92,-2.014 z m 32.92,-1.184 c 0,0 2.329,10.069 2.329,10.069 0,0 -3.867,3.161 -6.842,5.416 -5.255,3.982 -5.517,3.19 -11.447,5.912 -0.668,0.307 -1.327,0.633 -1.979,0.974 -9.193,4.815 -10.783,5.862 -4.927,4.566 13.835,-3.063 12.044,-1.521 23.934,-10.03 0.245,-0.175 0.436,-0.318 0.563,-0.422 2.761,-2.259 2.883,-3.306 3.577,-6.785 0.368,-1.846 0.74,-4.667 0.46,-5.842 -0.227,-0.955 -0.981,-2.347 -0.468,-2.689 0.863,-0.577 1.702,0.217 1.373,-0.991 -0.346,-1.268 -2.233,-3.435 -2.935,-5.185 -0.684,-1.706 -0.457,-3.451 -2.07,-2.321 -0.713,0.498 -2.202,3.107 -2.279,3.99 -0.03,0.341 0.021,0.621 0.098,1.086 0.039,0.245 0.087,0.541 0.197,0.791 0.148,0.337 0.19,0.483 0.416,1.461 z m -31.217,-10.54 -0.072,1.654 0.594,0.026 c 0.267,0.012 0.368,-0.072 1.018,-0.838 1.186,-1.4 2.26,-2.509 3.802,-3.972 4.339,-4.114 12.382,-11.035 12.382,-11.035 0,0 -0.049,1.117 -0.1,2.288 -0.288,6.599 1.936,-0.681 2.212,-1.282 0.708,-1.543 1.543,-3.093 2.098,-3.749 2.811,-3.324 4.294,-2.88 5.081,-5.661 0.366,-1.292 0.515,-3.285 0.157,-3.592 -0.351,-0.302 -3.15,1.537 -4.353,2.818 -0.709,0.755 -1.255,1.741 -1.979,2.613 -1.834,2.208 -4.812,3.686 -7.011,5.734 -0.773,0.72 -1.45,1.512 -2.213,2.187 -0.558,0.493 -1.161,0.924 -1.772,1.387 -4.709,3.568 -5.829,5.212 -8.688,8.745 -0.302,0.373 -0.616,0.752 -0.818,1.192 -0.272,0.594 -0.306,0.742 -0.338,1.485 z"
	style="stroke:none; fill:#000000"/>
</svg>