<?xml version="1.0" encoding="UTF-8" standalone="yes"?>
<svg>
<path
	style="stroke:none; fill:#000000"
	d="m 127.44977,97.459536 c 0.22,3.034994 1.635,4.922494 4.21125,5.467494 3.3225,0.7025 5.20125,-1.1 6.0525,-4.744994 0.1875,-0.79875 0.145,-1.465 -0.37,-1.7875 -0.9775,-0.61125 -3.66625,0.0237 -4.96625,-0.66625 -1.61625,-0.85875 -2.0275,-4.51 -1.6275,-6.21625 0.4,-1.70875 1.42125,-3.5375 1.69875,-4.855 0.0563,-0.26625 0.0813,-0.51125 -0.0337,-0.64875 -0.015,-0.0175 -0.03,-0.0338 -0.045,-0.0488 -3.91,-0.89125 -4.86125,14.32 -4.92,13.5 z m -8.56125,-59.49875 -0.32375,8.77 c 4.63875,-5.62875 20.54875,-22.1925 27.47875,-26.19375 0.69375,-0.40125 1.2875,-0.65375 1.565,-0.25625 0.22125,0.31625 -0.63,8.73125 1.3725,6.09875 0.555,-0.72875 0.66,-2.48125 0.965,-4.0225 0.485,-2.45625 1.475,-4.3775 3.04,-6.11875 7.6225,-8.4837497 10.39375,-6.5662497 10.5875,-13.3262497 0.0825,-2.88874998 -0.285,-3.49999998 -2.5225,-2.39749998 -2.47625,1.21999998 -5.93375,3.74874998 -9.70125,6.82374998 -3.7425,3.0549997 -20.84375,17.8649997 -32.46125,30.6224997 z m -51.136252,17.415 c 0.73375,2.06625 2.1775,4.58625 3.5075,4.99375 1.2075,0.37125 2.00875,-1.405 2.0325,-2.4575 0.0312,-1.36625 0.004,-3.145 -0.305,-3.8025 -0.23875,-0.50875 -0.64625,-0.34625 -1.3925,-0.88625 -0.9375,-0.68 -2.41,-2.47125 -2.41,-2.47125 0,0 4.29375,-4.8375 7.9325,-8.6325 3.87625,-4.03875 23.358752,-20.27625 31.155002,-23.63875 0.73625,-0.3175 1.355,-0.49875 1.58375,-0.0725 0.18375,0.34 -1.64,8.59875 0.655,6.21625 0.635,-0.65875 0.945,-2.38625 1.42625,-3.8825 0.7675,-2.38375 1.9725,-4.17625 3.72875,-5.72375 8.5575,-7.5412497 11.0875,-5.3149997 12.065,-12.0062497 0.41875,-2.85999998 0.12375,-3.50999998 -2.2275,-2.67374998 -2.6,0.92374998 -6.3275,3.03249998 -10.4275,5.64999998 -6.3075,4.0262497 -47.746252,32.3562497 -48.738752,42.1199997 -0.18,1.77125 0.2475,3.98125 1.415,7.2675 z m 19.775,-31.95125 -0.1925,-4.62875 c -0.0775,-1.87 -0.0525,-2.205 0.2575,-3.35125 0.23,-0.85 0.47125,-1.78 1.08625,-2.38 1.4975,-1.46 5.205,-0.955 6.925,-2.1575 2.475,-1.7324997 2.47625,-7.6799997 0.57125,-10.09124968 -2.01875,-2.55625002 -6.1025,1.50374998 -7.775,3.82749998 -1.0275,1.42625 -2.00125,3.06125 -2.43875,4.97 -0.2025,0.8849997 -0.315,1.8887497 -0.47375,2.7674997 l -0.7775,4.305 -2.565,-3.42625 c -3.51125,-4.8549997 -2.44,-6.2974997 -7.6,-7.6174997 -1.72875,-0.4425 -5.47875,-0.2775 -6.19875,1.76625 -0.56375,1.59875 0.76,5.4874997 1.58875,6.4099997 0.6375,0.71 3.22,2.4725 4.28625,2.58 1.74375,0.1775 5.305,-0.9375 5.305,-0.9375 0,0 2.87375,4.34375 4.62875,6.3825 0.76625,0.89 1.4,1.60625 2.3825,1.62625 0.40625,0.007 0.99,-0.045 0.99,-0.045 z m 17.017502,16.97 -6.107502,6.36875 c -1.015,1.0575 -1.16,1.2475 -1.44375,1.9 -0.3975,0.9125 -0.535,2.43875 -0.34,2.64625 0.6325,0.67 2.86875,-0.95625 3.647502,-1.55875 6.8175,-5.2775 9.92375,-8.6025 11.02625,-15.43625 0.56,-3.47375 -1.1925,-4.8175 -4.2925,-5.26125 -4.91875,-0.7025 -9.800002,0.0163 -11.711252,3.90375 0.29875,14.84125 0.71875,6.355 4.890002,5.30125 4.64,-1.1725 9.63,-3.77625 4.33125,2.13625 z M 60.392268,100.02453 c -0.4375,2.8725 0.095,3.5775 1.915,2.69625 1.23875,-0.60125 17.2225,-10.361244 19.5575,-13.283744 0.94,-1.17625 1.8775,-3.25875 2.20875,-5.1325 0.20375,-1.15375 -0.12625,-1.1125 -1.30875,-0.65 -2.74375,1.07 -20.8275,12.625 -21.395,13.67 -0.52875,0.975 -0.86875,1.98625 -0.9775,2.699994 z m -42.32125,-50.777494 0.2375,-3.07625 -4.1575,0.97625 c -20.209871,4.7425 -4.5575,-31.33625 -8.43,-24.735 -4.459371,7.6025 -6.40987096,16.67875 -5.50424596,24.7975 0.09875,0.885 0.2065,1.69125 0.338,2.42875 2.10962596,11.8375 16.82124596,8.60375 17.51624596,-0.39125 z m 11.27,-24.41625 -0.62375,-12.4975 c -0.0937,-1.85375 -0.13,-2.17625 -0.365,-3.2262497 -0.7225,-3.22 -2.66375,-4.98375 -4.69375,-6.12125 -2.5825,-1.4475 -4.5525,-1.985 -7.21375,0.0525 -2.1875,1.675 -2.39375,7.7424997 -1.53375,8.6912497 0.6425,0.7075 2.3425,0.64375 4.4,0.13625 5.14,-1.2675 5.65625,-0.975 6.995,4.73125 0.63625,2.71125 0.71125,5.2525 0.3975,7.97875 -0.66375,5.79125 -2.225,8.60875 0.835,12.00875 1.2725,1.41375 2.60375,1.62875 5.50875,1 2.06375,-0.44625 2.47375,-1.4525 3.33875,-4.4525 0.61,-2.1125 1.09125,-4.005 0.935,-6.11 -0.30875,-4.17875 -4.6125,-12.0325 0.57375,-13.98375 0.9575,-0.36 2.2025,-0.125 3.275,0.12125 1.44625,0.33 1.6925,0.18 2.455,-1.5 0.62625,-1.3825 1.35125,-2.6537497 1.75,-4.1412497 1.49625,-5.58375 -0.795,-7.15874998 -5.3925,-4.8725 -5.275,2.62375 -7.645,13.8637497 -6.5175,21.3987497 0.345,3.10625 0.72375,5.90375 0.72375,5.90375 0,0 -0.31625,-0.004 -0.69125,-0.0425 -1.4775,-0.1525 -4.01375,-2.21 -4.15625,-5.075 z m 90.462502,52.625 c -1.48375,1.20625 -3.62375,4.32875 -6.15125,6.67375 -2.13875,1.985 -4.47375,3.2125 -6.595,4.89875 -1.65375,1.31625 -3.1775,2.9125 -4.78375,4.22875 -2.0925,1.715 -4.325002,2.9575 -6.908752,4.2675 -3.4975,1.7725 -7.6375,3.669994 -11.73125,5.526244 -20.84,9.45125 -16.37375,5.72 -1.16375,7.38125 0.83375,0.0912 1.53,0.22125 1.96,0.38875 1.28,0.49875 1.67125,0.845 2.61375,0.87125 6.3075,0.17 26.558752,-17.521244 30.056252,-20.936244 0.17875,-0.175 0.35125,-0.34375 0.5175,-0.51 1.77375,-1.78125 5.80875,-14.9275 6.22125,-17.34625 0.45125,-2.645 -0.69,-7.04 -1.99625,-9.62375 -0.67875,-1.3425 -1.58,-2.55625 -2.1875,-3.7825 -0.31,-0.62875 -0.50375,-1.24375 -0.0725,-1.64 0.2025,-0.185 0.52875,-0.26375 0.815,-0.3475 4.24375,0.16625 2.225,-1.16125 0.67,-2.1175 -2.745,-1.68625 -8.755,-12.86875 -11.51875,-3.38875 -0.55125,1.89 -0.69625,4.015 -0.25375,5.22625 0.32,0.87625 1.02,1.66125 1.555,2.62125 1.02375,1.83625 1.44,4.31 2.52625,5.905 0.41,0.6 0.91375,1.07625 1.34625,1.67 0.0175,0.025 0.0375,0.0525 0.0575,0.0837 -0.16875,-0.25 3.67125,7.48625 3.49625,7.0625 0.0175,0.0438 0.0363,0.0875 0.055,0.13125 0.38,0.88125 0.96125,1.91 1.4725,2.75625 z m -35.997502,-12.845 c -0.58,-0.4175 -0.57625,-0.84625 -0.4025,-1.16375 0.56625,-1.03875 3.615,-2.7475 5.17125,-2.8975 0.0475,-0.004 0.095,-0.009 0.1425,-0.0125 2.4075,-0.18375 2.54,0.7575 2.57875,3.135 0.0213,1.27375 0.0425,2.56 0.0425,2.56 l -0.97,0.0187 c 0,0 -4.56,-1.0625 -4.56,-1.0625 -1.59875,-0.37375 -1.79875,-0.43125 -2.0025,-0.5775 z m -57.83625,13.12625 16.16375,2.46625 c 1.62125,0.2475 1.8675,0.2975 2.46,0.49125 1.31,0.42875 1.8575,1.13125 1.50125,1.91 -0.7975,1.7425 -6.41,4.05125 -8.41875,4.6775 -5.56625,1.73625 -10.27375,2.4225 -14.46,1.80375 -26.057496,-3.84625 -14.005,-43.23125 -17.66625,-29.56875 -2.74375,10.24125 -5.20037096,13.145 -1.9075,24.885 1.565,5.5825 10.05875,14.1075 17.24,15.609994 4.305,0.90125 17.57625,-2.282494 21.785,-4.539994 5.91625,-3.17375 10.4525,-13.84125 9.36625,-20.67125 -0.62,-3.90125 -2.28,-4.305 -6.5525,-4.89625 -1.63,-0.225 -1.9925,-0.2475 -3.63125,-0.2175 l -9.31875,0.17125 -0.0175,-1.02 c -0.007,-0.4575 0.1475,-0.61 1.5425,-1.5175 4.51125,-2.93125 9.0175,-4.325 13.505,-6.02 1.74875,-0.66 3.6525,-1.79375 4.19875,-2.9425 0.62875,-1.3225 1.20875,-3.38125 2.005,-3.54125 0.42125,-0.0837 0.97,-0.0175 0.97,-0.0175 l 0.23,13.80625 c 0.0287,1.72 0.0837,2.095 0.54875,3.75125 2.145,7.6425 5.80625,7.78625 13.34625,7.0275 2.06,-0.20625 3.955,-0.3175 5.6875,-1.05875 4.35125,-1.8625 4.05125,-3.2775 8.0825,-3.015 0.98875,0.0638 11.59875,3.15 13.3275,1.03 0.63,-0.77125 0.60875,-2.36625 0.98625,-3.70125 0.60125,-2.12625 2.2125,-3.59625 2.63375,-5.2875 0.41625,-1.67625 -3.41375,-14.08875 -4.53875,-15.83875 -1.725,-2.68625 -4.93625,-1.02875 -8.78125,1.11625 -3.66125,2.0425 -7.27125,4.8275 -9.26125,8.76875 -1.19,2.36125 -1.4675,4.79625 -2.90375,6.39625 -0.755,0.84 -7.02875,2.38875 -8.485,2.095 -7.95125,-1.6075 -7.05375,-11.6575 -6.73875,-22.01375 0.51375,-16.91875 -1.35125,-47.84874968 -1.35125,-47.84874968 0,0 -0.8825,-0.075 -1.45625,0.0263 -1.77,0.31625 -3.70875,8.22749998 -3.85125,9.24499998 -0.36625,2.6099997 0.4725,4.3737497 1.33875,7.5237497 0.77625,2.82375 1.30875,14.85375 0.84125,17.21625 -0.58875,2.9775 -1.77125,6.17125 -1.67125,8.94875 0.1475,4.1225 0.9825,5.29625 -0.56375,6.3475 -2.96,2.01625 -13.4475,5.73625 -13.4975,5.76 -5.17625,2.445 -11.87875,7.45625 -12.53875,12.3325 -0.46125,3.4 -0.14875,10.31 -0.14875,10.31 z m 17.60625,28.911244 4.805,5.045 6.72,-7.055 -6.72,-7.053744 -4.805,5.043744 -4.80625,-5.043744 -6.72,7.053744 6.72,7.055 4.80625,-5.045 z"/>
</svg>