<?xml version="1.0" encoding="UTF-8" standalone="no"?>
<svg>
  <path
     d="m 28.08004,22.494998 -0.635,-12.119999 C 27.35003,8.5775 27.31379,8.264999 27.07379,7.24625 26.33879,4.125 24.362541,2.415 22.295041,1.31125 c -2.6275,-1.403749 -4.6325,-1.92625 -7.34125,0.05 -2.227499,1.625 -2.437499,7.50875 -1.56125,8.42875 0.6525,0.686249 2.38375,0.624999 4.478749,0.1325 5.23125,-1.228751 5.756251,-0.945001 7.11875,4.587499 0.6475,2.63 0.725,5.093749 0.40625,7.737499 -0.676249,5.61625 -2.266249,8.348749 0.84875,11.644999 1.29625,1.372499 2.65,1.58 5.6075,0.97125 2.10125,-0.43375 2.518749,-1.41 3.398749,-4.31875 0.62125,-2.048749 1.11125,-3.883749 0.952501,-5.924999 -0.315001,-4.0525 -4.696251,-11.668749 0.583749,-13.559999 0.975,-0.35 2.241249,-0.12125 3.33375,0.11625 1.472499,0.32125 1.7225,0.175 2.497499,-1.455 0.638751,-1.34 1.37625,-2.572499 1.782501,-4.014999 1.523749,-5.415 -0.810001,-6.9425 -5.49,-4.725 -5.368749,2.545 -7.78,13.443749 -6.63375,20.751248 0.351251,3.0125 0.736251,5.725 0.736251,5.725 0,0 -0.321251,-0.0038 -0.7025,-0.04125 -1.50375,-0.14875 -4.08625,-2.14375 -4.23125,-4.92125 z m 2.61,30.534998 -6.83875,6.793749 c -1.136249,1.128749 -1.2975,1.331249 -1.61625,2.026249 -0.444999,0.973751 -0.59875,2.602501 -0.38,2.8225 0.708751,0.715 3.2125,-1.019999 4.08375,-1.6625 7.63375,-5.629999 11.112499,-9.176249 12.346249,-16.466248 0.6275,-3.705 -1.334999,-5.13875 -4.80625,-5.6125 -5.507499,-0.75 -10.973748,0.0175 -13.113748,4.165 0.334999,15.832499 0.804999,6.778749 5.474999,5.65375 5.19625,-1.250001 10.783749,-4.0275 4.85,2.28 z m 22.514997,-36.253747 -7.667499,7.668749 7.667499,7.667499 7.6675,-7.667499 -7.6675,-7.668749 z m 29.036248,-0.945 0.609999,10.758749 2.8725,52.571245 c 0,0 1.95,-1.95375 3.117501,-3.7325 1.656249,-2.52125 1.743749,-4.69 2.242499,-7.11 0.39125,-1.897499 0.41625,-2.322499 0.255,-4.238749 l -3.145,-37.507496 -0.2975,-6.3675 c 0.3125,0.1725 0.61,0.3275 0.89,0.46625 l 4.83875,2.39375 -0.92375,-2.545 c -0.105,-0.28875 -0.21625,-0.595 -0.3275,-0.9025 -1.3425,-3.697499 -2.0875,-7.353749 -2.98125,-11.144998 -0.855,-3.62875 -1.995,-8.46375 -1.995,-8.46375 0,0 -0.80875,-0.0425 -1.552499,0.06375 -2.045001,0.2925 -6.41125,6.806249 -6.69375,8.284999 -0.02625,0.14125 -0.04375,0.28 -0.04875,0.42 -0.0125,0.305 0.01125,0.6275 0.0625,0.96 0.37375,2.38375 1.575,4.42 3.07625,6.09375 z m 26.290005,26.384997 c -0.98751,-0.739999 -1.88126,-0.60125 -2.74876,1.03875 -4.59874,8.7075 -2.32125,10.999999 -0.70499,20.898748 1.10124,6.73875 -2.33125,8.1775 -10.043756,14.046249 -7.64875,5.818749 -22.388748,15.444998 -36.182497,20.374998 -11.433749,4.086249 -23.964997,3.076249 -0.73125,7.326249 2.155,0.395 4.19625,0.7275 5.755,0.90125 2.082499,0.2325 3.302499,0.1825 4.757499,-0.12875 0.2275,-0.0487 0.5575,-0.1625 0.9675,-0.32875 10.206249,-4.15375 13.456249,-7.476249 21.019998,-13.946249 13.522506,-11.566249 11.230006,-4.677499 17.769996,-21.757497 0.43,-1.1225 0.91626,-2.3725 1.4125,-3.65375 2.37125,-6.115 1.42125,-22.753748 -1.27124,-24.771248 z M 35.983789,80.511243 54.287538,80.393742 c 0,0 0.107499,0.923751 -0.0425,1.586251 -0.18625,0.82375 -2.201251,1.6675 -4.0175,1.94375 -4.81375,0.73375 -9.443749,2.838749 -13.703749,3.277499 -2.4125,0.2475 -5.62625,-0.06125 -8.85875,-0.8775 C 10.808417,82.069993 11.144041,62.234994 9.9454167,65.957494 c -0.331625,1.03 -0.655625,2.125 -0.9626249,3.225 -3.5858747,12.853749 -0.8627499,25.782498 13.9634982,29.204997 3.48375,0.805 7.02375,1.0125 9.83375,0.69625 8.809998,-0.99375 20.656248,-5.03 24.644997,-9.502499 1.38875,-1.5575 6.3575,-13.114999 6.962499,-16.194999 0.517501,-2.641249 -0.666249,-4.489999 -4.491249,-4.745 -2.13,-0.142499 -5.03875,0.468751 -5.297499,-0.138749 -0.537501,-1.26125 4.301249,-1.995 6.014998,-2.4875 1.572501,-0.451249 2.658751,-1.12875 3.685001,-1.88625 1.308749,-0.965 6.436249,-9.996249 6.583749,-11.594999 0.4225,-4.549999 -3.97375,-25.577497 -3.97375,-25.577497 0,0 -3.2375,5.306249 -4.812499,7.696249 -0.9275,1.404999 -1.27875,1.801249 -1.4,2.9375 -0.44125,4.143749 2.17,18.131248 2.17,18.131248 0,0 -11.023749,1.8925 -17.952498,3.933749 -5.36,1.57875 -11.3275,4.14 -13.107499,8.25125 -1.183751,2.73125 -2.29625,8.047499 -1.9,9.429999 0.09626,0.33625 1.56125,2.30125 3.3325,2.921249 0.686249,0.240001 0.96,0.265001 2.744999,0.253751 z M 5.0872921,33.446247 c -3.9223747,8.412499 -6.7431244,16.234999 -3.9831246,24.718748 1.0569999,3.24875 2.4174998,4.346249 5.6884995,5.437499 5.793625,1.933751 8.059874,0.26375 9.851124,-5.558749 1.13125,-3.68125 -0.92,-1.75 -4.73075,-1.1375 -21.3311226,3.42375 3.812,-46.277496 -6.8257489,-23.459998 z M 112.33128,12.353749 l -6.83875,6.793749 c -1.13625,1.12875 -1.29875,1.33125 -1.61624,2.02625 -0.44501,0.97375 -0.59876,2.6025 -0.38001,2.8225 0.7075,0.715 3.21251,-1.02 4.08375,-1.6625 7.63375,-5.629999 11.11125,-9.176249 12.34625,-16.466249 0.6275,-3.704999 -1.335,-5.138749 -4.80625,-5.612499 -5.50875,-0.75 -10.97374,0.0175 -13.11374,4.165 0.33374,15.832498 0.80374,6.778749 5.475,5.65375 5.19624,-1.250001 10.78249,-4.027501 4.84999,2.279999 z"
     style="fill:#000000;stroke:none" />
</svg>
