<?xml version="1.0" encoding="UTF-8" standalone="no"?>
<svg>
  <path
     style="fill:#000000;stroke:none"
     d="m 81.786173,22.324535 -1.497499,0.14125 c 0,0 -0.18375,-1.417499 -0.235,-2.496249 -0.08625,-1.834999 0.21125,-2.686248 0.2725,-3.802497 0.16625,-3.086248 -1.512499,-8.314995 -2.613749,-11.689993 -0.391249,-1.1974992 -1.754999,-3.9412472 -3.494998,-4.4162472 -1.849998,-0.505 -2.062498,4.2349972 -2.146248,5.2999972 -0.0975,1.237498 0.03625,2.428748 0.3775,2.601248 0.272499,0.13625 0.699999,-0.0125 1.161249,0.19 1.611249,0.706249 2.684998,5.126246 2.952498,6.481246 0.255,1.292499 0.34,2.467498 0.66375,3.713747 0.397499,1.531249 0.844999,2.437499 0.812499,3.622498 -0.0225,0.7775 -0.26125,1.552499 -0.40375,2.397499 -0.457499,2.691248 0.2775,8.553745 1.768749,10.456243 1.1775,1.5025 4.379998,2.636249 6.347496,2.236249 3.442498,-0.699999 3.756248,-1.508749 4.424998,-4.822497 0.652499,-3.223748 0.813749,-4.929997 -1.609999,-7.087496 -1.08875,-0.968749 -3.349998,-2.081249 -4.972497,-2.679998 -0.23125,-0.085 -0.4575,-0.1625 -0.69875,-0.18375 -0.32375,-0.0275 -0.435,-0.02375 -1.108749,0.03875 z m 15.302491,-6.206246 0.621249,10.937493 2.919997,53.447468 c 0,0 1.9825,-1.986249 3.17,-3.794998 1.68375,-2.562498 1.7725,-4.767497 2.27875,-7.227496 0.3975,-1.929998 0.42375,-2.361248 0.26,-4.311247 l -3.19625,-38.132477 -0.30375,-6.472496 c 0.3175,0.175 0.62125,0.3325 0.905,0.4725 l 4.92,2.434998 -0.94,-2.587498 c -0.10625,-0.29375 -0.21875,-0.605 -0.3325,-0.9175 -1.365,-3.759997 -2.1225,-7.476245 -3.03125,-11.331243 -0.87,-3.688747 -2.02875,-8.6037442 -2.02875,-8.6037442 0,0 -0.82125,-0.04375 -1.5775,0.06375 -2.078747,0.2975 -6.517495,6.9199952 -6.804994,8.4237442 -0.0275,0.1425 -0.045,0.285 -0.05,0.42625 -0.0125,0.31125 0.01125,0.6375 0.06375,0.976249 0.38,2.423749 1.6,4.493748 3.126249,6.196247 z m 30.281236,6.206246 -1.49875,0.14125 c 0,0 -0.18375,-1.417499 -0.23375,-2.496249 -0.0875,-1.834999 0.21125,-2.686248 0.27125,-3.802497 0.1675,-3.086248 -1.51125,-8.314995 -2.61375,-11.689993 -0.39125,-1.1974992 -1.755,-3.9412472 -3.495,-4.4162472 -1.85,-0.505 -2.0625,4.2349972 -2.145,5.2999972 -0.0975,1.237498 0.0362,2.428748 0.3775,2.601248 0.27125,0.13625 0.69875,-0.0125 1.16125,0.19 1.61125,0.706249 2.68375,5.126246 2.95125,6.481246 0.25625,1.292499 0.34,2.467498 0.66375,3.713747 0.3975,1.531249 0.84625,2.437499 0.8125,3.622498 -0.0212,0.7775 -0.26,1.552499 -0.40375,2.397499 -0.4575,2.691248 0.2775,8.553745 1.77,10.456243 1.1775,1.5025 4.37875,2.636249 6.3475,2.236249 3.44249,-0.699999 3.75499,-1.508749 4.42499,-4.822497 0.65125,-3.223748 0.81375,-4.929997 -1.61,-7.087496 -1.09,-0.968749 -3.34999,-2.081249 -4.97374,-2.679998 -0.23125,-0.085 -0.4575,-0.1625 -0.6975,-0.18375 -0.325,-0.0275 -0.43625,-0.02375 -1.10875,0.03875 z M 21.09996,98.76574 l 5.841246,5.90499 8.389995,-8.47999 -8.389995,-8.479995 -5.841246,5.904997 -5.842497,-5.904997 -8.3892448,8.479995 8.3892448,8.47999 5.842497,-5.90499 z m 8.512495,-76.333705 -0.6325,-12.073743 c -0.09375,-1.791249 -0.13125,-2.102499 -0.37,-3.117498 -0.731249,-3.109998 -2.701248,-4.8124972 -4.759997,-5.9124962 -2.617498,-1.398749 -4.616247,-1.917499 -7.313746,0.05125 -2.218748,1.618749 -2.427498,7.4787452 -1.556249,8.3962452 0.65125,0.683749 2.374999,0.621249 4.462498,0.131249 5.212497,-1.223749 5.734996,-0.941249 7.092495,4.571248 0.645,2.618748 0.72125,5.073747 0.40375,7.707495 -0.673749,5.594997 -2.257498,8.316245 0.84625,11.601243 1.291249,1.366249 2.639998,1.573749 5.586246,0.96625 2.093749,-0.43125 2.508749,-1.40375 3.386248,-4.302498 0.6175,-2.039999 1.10625,-3.867498 0.9475,-5.902496 -0.31375,-4.036248 -4.677498,-11.623743 0.582499,-13.507492 0.97125,-0.34875 2.232499,-0.12125 3.321248,0.11625 1.466249,0.31875 1.714999,0.17375 2.487499,-1.449999 0.636249,-1.335 1.371249,-2.562499 1.776249,-3.999998 1.517499,-5.3937462 -0.80625,-6.9162452 -5.468747,-4.7062472 -5.348747,2.533749 -7.752495,13.3924922 -6.608746,20.6724872 0.35,2.999999 0.7325,5.702497 0.7325,5.702497 0,0 -0.31875,-0.0038 -0.7,-0.04125 -1.497499,-0.1475 -4.069998,-2.134999 -4.214997,-4.902497 z m 39.819975,37.159977 0.5775,0 c 0.914999,0 1.097499,0.02875 1.822499,0.29375 1.426249,0.52 3.658748,2.592499 3.774998,3.217498 0.14,0.76375 0,1.831249 0,1.831249 l -3.911248,0 c -1.756249,0 -2.039999,-0.0275 -2.838748,-0.28375 -0.87375,-0.281249 -1.787499,-0.831249 -2.189999,-1.422499 -0.17375,-0.255 -0.2125,-0.3775 -0.22,-0.917499 -0.02,-1.589999 2.091249,-2.718749 2.984998,-2.718749 z M 33.559952,79.060751 37.33495,91.961993 c 0.12,0.40875 0.2725,0.819999 0.48625,1.217499 2.123748,3.946248 10.558743,6.961248 16.13749,8.002498 6.362496,1.1875 23.712485,-6.0775 27.434983,-11.932496 1.162499,-1.828748 2.186249,-4.371247 3.523748,-8.353744 2.904998,-8.644995 4.474997,-15.859991 0.23125,-23.593736 -3.829998,-6.981246 -14.038742,-13.092492 -19.847488,-6.871246 -2.973748,3.186248 -5.373747,14.333741 -4.961247,18.626239 0.50875,5.299997 4.653747,9.267494 10.381244,8.091245 2.541248,-0.52125 4.862497,-2.132499 9.083744,-2.289999 0.91,-0.03375 1.908749,0 1.908749,0 0,0 -0.07625,0.51375 0,0.76375 0.07375,0.24375 0.3025,0.235 0.4675,0.29625 0.441249,0.164999 0.443749,0.873749 0.296249,1.536249 -0.813749,3.647497 -15.61749,12.546242 -20.594987,13.434991 -2.741248,0.48875 -5.181247,0.46625 -7.421246,0.0575 C 40.999948,90.174494 33.559952,79.060751 33.559952,79.060751 z m 14.982491,-0.8 c 1.723749,-3.872498 5.292497,-10.038744 5.979996,-13.732492 1.26625,-6.799995 -9.289994,-5.567496 -15.64874,-7.022495 -2.776248,-0.635 -3.716248,-1.723749 -2.671248,-4.076248 0.776249,-1.749999 6.858745,-6.797496 10.788743,-9.908744 1.199999,-0.949999 3.689998,-2.953748 4.917497,-1.721249 0.255,0.25625 0.3825,0.6625 0.6475,0.87875 1.074999,0.877499 4.707497,-1.235 5.656246,-1.809999 2.971248,-1.799999 3.669998,-4.948747 3.179998,-9.072495 -0.836249,-7.043746 -4.252497,-5.714996 -9.923744,-2.152498 -10.521243,6.611246 -20.874987,17.596239 -22.136236,29.541232 -0.49875,4.723747 1.636249,9.158744 6.726246,10.233744 2.402498,0.507499 6.249996,0.301249 6.249996,0.301249 0,0 0.11,1.105 0,1.831249 -0.15875,1.05 -0.77625,1.312499 -1.526249,1.603749 -11.293743,4.388748 -13.794992,4.819997 -23.663736,0.76375 C 9.9674663,70.978256 6.1760936,62.90451 6.9249682,55.662015 L 8.4937172,40.500774 4.1538449,52.544517 C 1.3443466,60.342012 0.82134689,72.044505 4.1414699,78.115751 7.8512176,84.901997 18.547461,89.406994 26.511206,88.185745 31.078704,87.484496 46.248694,83.413248 48.542443,78.260751 z m -34.228729,-42.411224 1.849999,-4.058748 -3.957498,0.505 c -1.523749,0.195 -3.4462479,0.38625 -4.7474971,0.31875 -2.1338738,-0.10875 -2.8334983,-1.173749 -3.2767481,-3.068748 -2.5487484,-4.454998 3.345498,-16.57624 4.2692474,-16.71999 -1.4849991,0.23 -3.8603726,3.739997 -4.2217474,4.381247 -2.3019986,4.079998 -3.28487299,7.012496 -3.94487259,10.913744 -1.07449934,6.351246 0.60762463,14.708741 10.01411879,11.602493 2.084999,-0.6875 3.327498,-2.363749 4.014998,-3.873748 z m 70.047457,41.762475 c 0,0 -0.872499,1.204999 -1.733749,2.393748 -2.557498,3.532498 -0.626249,12.017493 1.486249,16.49124 2.896249,6.1325 8.056246,11.15499 16.092489,6.09875 0.008,-0.005 0.0162,-0.01 0.0238,-0.015 1.89875,-1.205 4.4925,-5.94875 6.195,-9.071248 5.82374,-10.689994 20.17749,-22.573736 29.11498,-26.596234 5.83625,-2.626248 13.19499,-4.842497 15.93999,-1.494999 0.4075,0.4975 0.81375,1.139999 1.39375,1.378749 3.05125,1.252499 3.20125,-6.052496 3.3175,-7.382495 0.45125,-5.203747 -0.4575,-6.453747 -5.625,-6.248747 -6.24749,0.24625 -17.10874,4.889997 -24.67623,9.368745 -6.88,4.073747 -18.76374,17.278739 -22.67124,24.261235 -0.44875,0.803749 -0.88375,1.587499 -1.28625,2.318749 -2.166248,3.938747 -4.323747,6.479995 -9.261244,5.287495 -0.33,-0.08 -0.668749,-0.1775 -1.014999,-0.2925 -3.308748,-1.097498 -6.534996,-6.548745 -7.286246,-10.551242 -0.317499,-1.687499 -0.22625,-4.054998 -0.0088,-5.946246 z" />
</svg>
