<?xml version="1.0" encoding="UTF-8" standalone="no"?>
<svg>
  <path
     style="stroke:none; fill:#000000"
     d="m 29.112579,70.587359 -6.1025,6.06124 c -1.01374,1.0075 -1.15749,1.18875 -1.44124,1.80875 -0.3975,0.86875 -0.535,2.32125 -0.34,2.51875 0.6325,0.6375 2.86624,-0.91 3.64499,-1.48375 6.81124,-5.02374 9.91374,-8.18749 11.01499,-14.69123 0.56,-3.30625 -1.19125,-4.58625 -4.28875,-5.0075 -4.91374,-0.67 -9.79123,0.015 -11.69998,3.715 0.2975,14.12623 0.7175,6.04749 4.88499,5.04499 4.63625,-1.115 9.62124,-3.59374 4.3275,2.03375 z m 15.76998,-23.07122 0.64,-0.0113 c 0.2875,-0.005 0.365,-0.18 0.77125,-1.75125 2.34,-9.03249 2.76749,-14.01999 -2.98875,-19.81373 -0.9475,-0.95375 -2.0525,-1.75375 -2.76375,-0.89875 -0.48249,0.58 -0.97499,4.675 -0.75499,5.57 0.385,1.56374 1.52499,2.07124 2.84249,3.13249 2.975,2.39875 3.72125,4.1975 3.3425,7.39249 -0.29125,2.45125 -1.08875,6.38 -1.08875,6.38 z m 38.73871,38.3212 -5.33125,-5.33124 -7.67249,7.67249 7.67249,7.672486 5.33125,-5.331236 5.33124,5.331236 7.67124,-7.672486 -7.67124,-7.67249 -5.33124,5.33124 z m -31.92247,14.824981 c 0.2025,2.80124 1.51,4.54249 3.8875,5.04499 3.06624,0.64875 4.79999,-1.01375 5.58624,-4.37874 0.1725,-0.7375 0.13375,-1.352495 -0.34125,-1.649995 -0.90375,-0.56375 -3.38499,0.0225 -4.58374,-0.615 -1.4925,-0.7925 -1.8725,-4.1625 -1.5025,-5.7375 0.36875,-1.576236 1.31125,-3.264986 1.5675,-4.479986 0.0512,-0.24625 0.075,-0.4725 -0.0312,-0.59875 -0.0138,-0.0163 -0.0275,-0.0312 -0.0412,-0.045 -3.60875,-0.8225 -4.48625,13.216231 -4.54125,12.459981 z m 31.67622,-50.797441 -6.1025,6.06125 c -1.01375,1.0075 -1.1575,1.18875 -1.44125,1.80874 -0.3975,0.86875 -0.53499,2.32125 -0.34,2.51875 0.6325,0.6375 2.86625,-0.91 3.645,-1.48375 6.81124,-5.02374 9.91374,-8.18749 11.01499,-14.69248 0.56,-3.305 -1.19125,-4.58499 -4.28875,-5.00624 -4.91374,-0.67 -9.79124,0.015 -11.69998,3.71499 0.2975,14.12624 0.7175,6.04749 4.88499,5.045 4.63625,-1.115 9.62124,-3.59375 4.3275,2.03374 z m 3.76124,-28.00746 -0.61625,-11.77624 c -0.0925,-1.7475003 -0.1275,-2.0512503 -0.36125,-3.0400003 -0.71375,-3.03374 -2.63499,-4.69499 -4.64249,-5.7674899 -2.55375,-1.365 -4.5025,-1.87125 -7.13374,0.0487 -2.16375,1.5787499 -2.36875,7.2962399 -1.5175,8.1899899 0.635,0.6662503 2.31625,0.6062503 4.35249,0.1287499 5.08375,-1.1937499 5.5925,-0.9187499 6.9175,4.4574904 0.62874,2.555 0.70374,4.94875 0.39374,7.51875 -0.65749,5.45624 -2.20124,8.11124 0.825,11.31498 1.26,1.3325 2.575,1.53375 5.44875,0.9425 2.0425,-0.42 2.44749,-1.36875 3.30249,-4.19624 0.6025,-1.99 1.08,-3.7725 0.925,-5.7575 -0.30625,-3.93624 -4.56249,-11.33748 0.5675,-13.17498 0.9475,-0.34 2.1775,-0.11875 3.23875,0.1125 1.431251,0.3125 1.673751,0.17125 2.427501,-1.4125003 0.61999,-1.3025 1.33749,-2.5 1.73124,-3.9025 1.48125,-5.2599899 -0.78625,-6.7449899 -5.333741,-4.58998992 -5.21624,2.47124992 -7.55999,13.06248022 -6.44499,20.16248022 0.34125,2.92749 0.715,5.56249 0.715,5.56249 0,0 -0.3125,-0.004 -0.68375,-0.04 -1.46,-0.14375 -3.97,-2.0825 -4.11125,-4.78124 z m 40.118711,58.23118 c 3.22249,-8.09249 1.26374,-16.00498 -2.2,-20.34998 l -1.895,-2.56124 3.43625,0.47749 c 1.5275,0.21125 1.91874,-0.97874 -5.17625,-10.34748 -2.37624,-3.01625 -4.52749,-5.33625 -7.52249,-0.2925 -3.38124,5.69124 -0.8025,5.62624 3.96625,11.82498 4.41249,5.735 10.27249,11.37374 6.95624,17.43498 -0.34375,0.62875 -7.92499,8.96874 -12.42249,12.46499 -5.57874,4.334986 -11.89998,7.728736 -18.177481,10.801236 -6.34374,2.689985 -14.15123,6.008735 -6.76499,6.283735 7.96874,0.29875 16.329981,-2.73625 23.184971,-7.363735 11.13374,-7.516236 12.66499,-8.453736 16.61499,-18.372476 z M 28.565079,16.999919 c 0.33125,0.22875 0.61375,0.385 0.8575,0.47125 1.2175,0.4325 1.58875,-1.62125 1.7325,-2.8375 0.2125,-1.80374 0.32874,-3.38124 1.17249,-4.6399904 0.695,-1.0387499 1.605,-1.6362499 2.81375,-1.7449999 2.6675,-0.23875 2.9,-0.23375 3.2625,-4.91124 0.2,-2.58124992 -0.225,-4.0187499 -3.875,-3.0162499 -3.0825,0.8475 -5.70874,2.9837499 -6.15999,5.1124899 -1.1775,5.5500003 -1.3025,2.13125 -3.19625,-1.04124 -1.25875,-2.10875 -3.33499,-2.9724999 -6.13249,-2.3774999 -0.1525,0.0375 -0.30375,0.0788 -0.45625,0.1249999 -2.53125,0.775 -3.06,4.39249 -2.145,7.08374 1.1075,3.2587503 3.49625,3.8400003 6.00125,3.5775003 1.78874,-0.18875 2.79374,0.57 3.29124,1.16874 2.1275,2.5575 1.77,2.29625 2.83375,3.03 z m 21.25997,41.62245 c -3.52124,-4.50874 -8.85624,-8.34499 -13.12748,-10.63998 -6.93124,-3.7225 -8.52249,-4.9175 -14.16373,-11.44124 -5.42375,-6.27124 -10.94374,-14.37998 -12.40749,-20.40373 -3.0112497,-12.3887303 13.61123,10.61374 -2.2037497,-12.4812303 -2.52875,-4.0212499 -2.39625,-5.7212499 -5.73749,0.15875 -2.92374997,5.14624 -2.78749997,6.2387403 -0.34125,9.8012303 11.5749897,16.85874 14.0962297,30.72247 31.5437097,41.37246 7.40624,4.51999 7.71874,3.64249 13.85874,9.85124 10.41874,10.53748 4.93499,-0.3825 2.57874,-6.2175 z m 56.663691,12.07874 c 5.15999,-5.47374 4.00625,-15.84248 1.705,-20.96123 -1.30125,-2.89124 -1.885,-3.92874 -4.09125,0.0625 -2.75999,4.9925 -3.11499,3.45875 0.0188,9.47374 2.515,4.825 4.6325,5.125 -1.98125,6.69875 -8.651241,2.05874 -29.038711,4.77874 -35.777451,-0.8425 -2.195,-1.83125 -3.04,-3.24375 -3.5175,-5.9725 -0.095,-0.54125 -0.2225,-1.59625 -0.37,-3.00749 -2.95375,-52.6724403 1.2475,-64.2336802 -6.22499,-51.3024503 -5.7675,9.7987403 -0.46375,3.905 1.77124,47.2887003 0.42875,8.32374 -2.04874,18.06623 -4.54624,22.60748 -6.09624,11.08123 -20.47123,17.33498 -24.02122,18.706216 -25.9187197,10.012485 -11.12624,8.234985 -3.45625,7.104995 5.3075,-0.782495 9.78374,-2.368745 13.54374,-4.389995 9.03749,-4.856236 14.22373,-12.342476 16.74623,-18.122476 2.91749,-6.68374 4.25999,-6.63499 7.25874,-4.73999 5.42374,3.42624 14.67498,3.68874 21.78247,3.22624 7.27875,-0.4725 17.649981,-2.10999 21.159981,-5.82999 z M 51.273799,12.013679 c 0.79,-0.88375 1.36,-1.89875 1.64,-3.2912503 0.82375,-4.08374 -0.055,-3.67375 -1.3625,-2.93375 -2.1325,1.20625 -7.99624,4.9775003 -13.81623,9.0049903 -2.3,1.59125 -11.36249,8.06624 -13.42624,9.97249 -0.90625,0.8375 -1.69374,1.76875 -2.28374,2.9225 -0.56125,4.34874 0.65124,4.97624 2.13624,4.37499 8.62624,-6.16624 20.08248,-14.99998 27.11247,-20.04997 z" />
</svg>
