<?xml version="1.0" encoding="UTF-8" standalone="no"?>
<svg>
  <path
     style="fill:#000000;stroke:none"
     d="m 89.492413,67.784426 c 0,0 0.93125,1.1425 1.8375,2.25625 3.23375,3.96624 11.959987,2.22375 14.958737,-1 0.205,-0.22 0.41125,-0.4075 0.625,-0.5425 1.89499,-1.1975 5.38624,1.80875 8.33749,2.885 1.03375,0.3775 5.60874,1.35375 6.60624,0.85375 1.44125,-0.7225 4.80875,-9.16624 4.86125,-9.36749 0.90125,-3.4825 -0.31375,-7.21 -1.56375,-12.23874 -0.76625,-3.08625 -1.76625,-7.05625 -3.66125,-5.68625 -0.68625,0.49625 -1.975,2.76625 -2.925,4.69625 -4.09749,8.31749 0.7825,3.69624 1.0675,10.05249 0.02,0.45375 0.007,0.93125 -0.10125,1.17125 -0.19,0.4175 -0.6725,0.13125 -1.22999,-0.1475 -1.79125,-0.89875 -4.36875,-1.735 -6.05375,-3.235 -1.275,-1.13625 -1.6,-1.9125 -2.62125,-0.0288 -1.84499,3.405 -1.3525,4.89 -5.72749,5.1175 -2.355,0.1225 -6.722487,-0.25375 -7.922487,-1.42125 -1.7425,-1.695 -3.24625,-5.3275 -3.24625,-5.3275 0,0 -1.69625,3.97 -2.86125,5.6525 -2.19749,3.17124 -6.81999,4.36499 -9.95249,3.93874 -3.98874,-0.5425 -11.69874,-2.94249 -11.69874,-2.94249 0,0 -2.12124,-8.69875 -3.29124,-15.23999 -1.5025,-8.40624 -1.025,-17.00248 -2.14125,-30.14622 -0.615,-7.2424899 -1.9275,-17.0574799 -1.9275,-17.0574799 0,0 -0.54125,-0.0588 -0.96375,0 -1.99,0.275 -3.38499,6.95124 -3.53249,7.84624 -0.32125,1.94375 3.48749,32.7524699 5.35249,47.7611999 0.3725,2.98875 0.37875,3.9025 -1.07,4.94625 -5.29874,3.81374 -7.85749,3.32624 -12.84749,0 -2.60999,-1.74 -6.24749,-4.40125 -6.24749,-4.40125 0,0 -1.94375,3.86 -2.655,6.28 -0.44375,1.50999 -0.4075,2.45874 -0.19875,3.63624 1.01875,5.7625 3.42625,9.15249 0,11.54249 -2.45249,1.71 -10.00749,4.78375 -13.11623,4.8325 -0.0787,10e-4 -0.15875,0.003 -0.23875,0.003 -11.273993,0.03 -17.8053617,-8.14 -16.2044877,-19.41623 0.713374,-5.025 1.5727477,-13.14374 -1.040499,-4.375 -3.257622,10.93249 -5.720995,21.94873 1.156499,29.19122 3.4253707,3.60625 10.0797377,5.56875 14.8822377,4.8325 6.03749,-0.92625 16.18873,-6.9175 18.10748,-11.88999 1.8125,-4.69875 1.66375,-9.71999 4.12,-8.97749 0.55249,0.1675 1.00499,0.335 1.38624,0.495 3.6225,1.52249 4.28875,1.32624 7.8825,-0.4825 0.38875,-0.195 0.78125,-0.405 1.1725,-0.62625 2.88999,-1.6375 5.72124,-3.9425 6.69999,-3.53625 0.42125,0.175 0.5625,0.83 0.67375,1.65375 1.19375,8.81999 20.00998,6.59374 23.21623,2.17875 0.1,-0.13875 0.19625,-0.27875 0.285,-0.42125 0.81624,-1.29625 1.81124,-3.315 1.81124,-3.315 z m 49.204957,25.85123 c 3.26249,2.08749 7.25249,2.11999 11.27248,0.62499 5.85625,-2.17749 13.73499,-9.94624 17.13124,-14.78373 0.4775,-0.68125 1.04625,-1.87125 1.55625,-3.1575 0.1675,-0.42375 2.48499,-13.89498 2.48624,-14.37373 0.002,-2.81125 -1.09875,-6.9175 -1.09875,-6.9175 0,0 0.0413,0 0.29625,0 8.06625,0.455 2.68875,-1.95 0.74875,-4.57749 -0.1225,-0.14 -0.25125,-0.27875 -0.3825,-0.4225 -1.45999,-1.60125 -3.27749,-3.77 -4.06374,-5.8625 -0.91625,-2.43999 -1.065,-5.45374 -4.12375,-3.61999 -1.08875,0.6525 -3.37874,3.34124 -3.71624,4.42999 -0.3525,1.13625 -0.33125,2.9475 0.265,3.79875 0.30749,0.43875 0.76874,0.67875 1.18624,1.04625 1.73125,1.52625 1.5325,3.73999 2.315,6.76124 1.935,7.46624 4.415,7.68124 3.7275,12.31999 -1.1475,7.75499 -16.05624,17.32498 -22.84748,15.69248 -0.67875,-0.1625 -1.4075,-0.4425 -2.13,-0.8025 -6.22124,-3.10249 -8.12374,-12.97248 -8.32249,-16.07498 -10e-4,-0.0187 -0.39375,-6.12499 -0.39375,-6.12499 0,0 -1.125,0.3425 -1.125,0.3425 0,0 -0.17,4.91999 -0.30125,8.74999 -0.58625,17.01498 5.63875,21.74748 7.52,22.95123 z m 0.16749,-45.99121 c 1.51375,0.52625 1.99125,0.9525 3.4825,2.4875 2.41875,2.4925 -0.51,1.3775 -2.3225,1.61875 -0.145,0.0188 -0.29625,0.0362 -0.45125,0.0525 -2.13374,0.22125 -3.77624,0.5075 -4.61874,-0.2975 -2.58625,-2.47375 -2.46875,-3.61 -1.515,-4.1075 1.6275,-0.84875 4.4075,-0.10875 5.42499,0.24625 z m -25.95872,45.82996 c -12.84499,5.31874 -17.261227,2.63124 -4.465,4.45874 0.5075,0.0625 0.97625,0.1625 1.41375,0.2725 3.7025,0.93625 8.31375,0.915 11.94749,-0.50375 0.4225,-0.165 0.84625,-0.34875 1.27875,-0.55625 8.98249,-4.28249 21.77123,-14.62623 24.48998,-24.68122 0.9725,-3.5975 4.57999,-13.89874 4.84624,-16.51624 0.19375,-1.9025 0.6675,-6.93374 -0.8025,-8.53999 -0.5,-0.54625 -1.2875,-0.8375 -1.98,-1.3625 -1.67999,-1.2725 -2.79249,-3.91624 -4.31499,-5.54374 -1.93625,-2.06875 -5.7425,-4.21 -7.85999,-3.755 -3.48125,0.75 -4.59625,2.27625 -5.6525,5.54375 -1.92,5.94624 -3.43874,13.16748 0.535,18.19498 0.12,0.15125 0.2425,0.295 0.39375,0.405 0.1775,0.1275 0.34,0.1575 1.32625,0.1625 8.27749,0.0462 2.60125,1.42625 9.61624,-2.41 0.58,-0.31625 1.1575,-0.60375 1.6675,-0.8075 2.02125,-0.80875 3.265,-0.25625 3.85999,2.08125 0.39375,1.5475 -0.35374,2.83125 -1.33874,4.54874 -0.57125,0.99625 -1.26375,2.2575 -1.98125,3.45625 -2.74,4.57875 -8.40749,9.77124 -13.10999,13.60124 -11.41249,9.29374 -24.11623,13.70998 -19.86998,11.95124 z m 28.95372,-63.34744 c 8.38999,-4.795 16.22249,-10.55124 18.09748,-14.45749 0.0438,-0.0925 0.0875,-0.18125 0.13,-0.26875 0.8825,-4.28874 1.43625,-1.21 1.16625,0.2825 -0.26875,1.48375 -2.29249,12.66624 -2.29249,12.66624 -0.245,1.355 -0.26,1.5275 -0.1475,1.73125 0.36,0.64375 1.38749,1.12875 1.86874,1.27 0.7375,0.21625 1.71375,0.24625 2.66375,0.14125 1.7825,-0.2 3.0475,-0.5575 3.8575,-2.36375 3.68874,-8.22124 2.02875,-3.83375 -1.62875,-3.49375 -0.3625,0.0337 -0.73625,0.0775 -1.105,0.125 -4.15125,0.53625 -3.72375,0.6725 -2.78625,-3.69124 0.84,-3.9125 2.03375,-10.01 2.1225,-13.4437399 0.0787,-3.07375 -1.62,-9.05999 -4.54999,-8.59874 -1.78375,0.28 -4.34125,2.07124 -5.04375,3.75749 -1.32375,3.17625 -1.94875,7.0099999 0.7,8.4937399 2.25875,1.26625 4.035,1.00875 3.18375,3.20375 -0.38125,0.9825 -2.14125,2.3775 -4.34875,3.81625 -11.07249,7.21374 -26.77622,14.75123 -39.88496,16.18998 -2.30875,0.25375 -3.2925,0.505 1.32875,2.2975 8.70249,3.37625 25.54372,-7.01499 26.66872,-7.65749 z M 158.3311,7.9969861 c -0.6575,-0.24125 -1.2625,-0.6425 -1.515,-1.0675 -0.0312,-0.0537 -0.055,-0.0962 -0.0725,-0.13875 -0.26875,-0.66125 0.0925,-1.29625 0.47875,-1.27 0.1675,0.0113 0.365,0.025 0.56375,0.0375 1.88499,0.12625 2.36874,1.67 2.73374,3.4475 0.45,2.2037499 -1.14125,-0.1425 -2.18874,-1.00875 z M 82.583673,86.709406 c -0.5775,0.8375 -0.88875,1.93875 -1.63875,2.365 -1.25625,0.71125 -3.74249,-0.46625 -5.65499,-0.01 -1.765,0.42125 -2.91625,1.9275 -4.43875,1.28625 -1.16,-0.4875 -1.60375,-2.36125 -2.66875,-3.065 -2.34499,-1.54875 -5.64124,1.965 -7.62374,3.32125 -5.04749,3.45124 -9.65749,1.8575 -17.29623,3.065 -1.0925,0.17374 -3.22625,0.71124 -2.47125,1.99249 0.09,0.15125 0.2325,0.2825 0.38625,0.395 0.20875,0.15125 0.41125,0.20625 2.03125,0.54875 4.51374,0.95375 9.04624,1.4725 12.40874,0.13 2.16749,-0.86625 8.77874,-6.26499 10.80999,-3.83249 1.46249,1.74999 0.43375,3.66874 3.89249,2.55499 2.18375,-0.70375 3.60875,-2.09624 5.27,-1.91499 1.45125,0.15875 3.16999,1.20124 4.63999,1.49249 7.3675,1.455 6.495,-14.32498 2.35375,-8.32874 z m -57.41619,-46.5937 -6.8225,6.82374 6.8225,6.82249 6.82249,-6.82249 -6.82249,-6.82374 z m 108.164887,-29.64997 -5.79249,5.75499 c -0.96375,0.95625 -1.1,1.1275 -1.37,1.71625 -0.37625,0.825 -0.5075,2.20375 -0.3225,2.39125 0.60125,0.60625 2.7225,-0.86375 3.46124,-1.40875 6.46625,-4.76875 9.4125,-7.77249 10.45749,-13.9487399 0.53125,-3.13875 -1.12999,-4.35374 -4.07124,-4.75499 -4.66625,-0.635 -9.29624,0.015 -11.10874,3.52749 0.2825,13.4124899 0.68125,5.7425 4.63874,4.79125 4.40125,-1.06 9.13375,-3.4125 4.1075,1.9312499 z m -42.529957,8.85749 -0.54625,-10.4099899 c -0.0812,-1.545 -0.1125,-1.81375 -0.31875,-2.68875 -0.63125,-2.68125 -2.32874,-4.15 -4.10374,-5.09874 -2.2575,-1.205 -3.98125,-1.65375 -6.3075,0.0437 -1.91375,1.39624 -2.09374,6.44999 -1.34125,7.23999 0.56125,0.59 2.0475,0.53625 3.8475,0.11375 4.495,-1.055 4.945,-0.8125 6.11624,3.9412399 0.55625,2.25875 0.62125,4.375 0.3475,6.64625 -0.58,4.82499 -1.94624,7.17124 0.73,10.00374 1.1125,1.17875 2.27625,1.35625 4.8175,0.83375 1.80375,-0.3725 2.1625,-1.21 2.91875,-3.71 0.53375,-1.76 0.955,-3.335 0.81875,-5.08999 -0.27125,-3.48 -4.035,-10.02249 0.50124,-11.6474899 0.83625,-0.3 1.924997,-0.105 2.863747,0.1 1.26375,0.275 1.47875,0.15 2.145,-1.25 0.54875,-1.15125 1.1825,-2.21 1.53125,-3.44875 1.30875,-4.65124 -0.695,-5.96374 -4.71625,-4.05874 -4.611237,2.18499 -6.683737,11.5487299 -5.697487,17.8262299 0.30125,2.5875 0.63125,4.91749 0.63125,4.91749 0,0 -0.275,-0.004 -0.60375,-0.0363 -1.29125,-0.1275 -3.50875,-1.84124 -3.63375,-4.22749 z m -5.88499,24.96497 -5.79375,5.755 c -0.9625,0.95625 -1.1,1.1275 -1.36875,1.71625 -0.37749,0.825 -0.50749,2.20499 -0.32249,2.39124 0.59999,0.60625 2.72124,-0.86375 3.45999,-1.40874 6.46625,-4.76875 9.41249,-7.7725 10.45874,-13.94874 0.53125,-3.13875 -1.13125,-4.35375 -4.07249,-4.75375 -4.665,-0.63625 -9.295,0.0138 -11.10874,3.5275 0.28375,13.41124 0.6825,5.74249 4.63874,4.79 4.40125,-1.06 9.13499,-3.4125 4.10875,1.93124 z m -41.67371,-0.97125 c 0.2325,3.19875 1.725,5.1875 4.43874,5.76125 3.5025,0.74125 5.4825,-1.15875 6.38,-5 0.1975,-0.8425 0.1525,-1.54499 -0.39,-1.88374 -1.03125,-0.645 -3.865,0.025 -5.235,-0.7025 -1.70374,-0.905 -2.13624,-4.75375 -1.71499,-6.5525 0.42124,-1.8 1.49749,-3.72874 1.78999,-5.11624 0.0588,-0.28125 0.0863,-0.54 -0.0362,-0.68375 -0.015,-0.0187 -0.03,-0.0362 -0.0463,-0.0512 -4.12124,-0.94 -5.12249,15.09248 -5.18624,14.22873 z m 6.64124,-18.84873 0.14375,1.12 0.47875,-1.11375 c 0.2825,-0.65875 0.655,-2.08875 1.14125,-4.64624 1.04125,-5.47125 0.1075,-13.5587399 -4.01625,-17.9149899 -0.91624,-0.96749 -2.04999,-1.79999 -2.68749,-1.87499 -0.60125,-0.07 -1.30125,-0.0225 -1.30125,-0.0225 0,0 -0.02,2.53874 0.2125,4.41499 0.225,1.8175 1.05875,3.66625 1.82,4.03625 0.51,0.2475 1.08625,0.18625 1.62249,0.56625 0.4225,0.3 1.0075,1.1987499 1.50375,2.2574999 0.88875,1.89624 0.965,4.21874 1.0325,6.28749 0.105,3.2175 -0.0825,5.84999 0.05,6.88999 z m -35.31034,40.35871 1.60125,-2.67249 c 0.18175,-0.30375 0.3575,-0.60875 0.52262,-0.91 2.17025,-7.39625 1.92525,-4.47 -1.97224,-4.1525 -0.244753,0.02 -0.513878,0.0425 -0.794753,0.065 -12.4068627,1.01375 -9.6212397,-11.50124 -7.2973677,-16.74123 0.646625,-1.45875 1.154999,-2.8875 1.312124,-3.875 0.03438,-0.215 0.05188,-0.41 -0.04675,-0.49875 -0.681499,-0.6075 -2.268498,1.43125 -2.588997,1.90875 -1.421999,2.12 -3.197372,4.73999 -4.057121,7.48124 -1.400124,4.46375 -1.624249,7.79124 -0.68725,10.68499 2.079498,6.42125 4.486871,6.41875 10.6388647,7.91374 l 3.36962,0.79625 z m 9.21787,-46.7637 c 0.045,-3.03875 3.84249,-8.4837399 3.83374,-11.5349899 -0.004,-1.42875 -2.68624,-7.83249 -5.18249,-6.28999 -1.46,0.9025 -2.2675,4.48124 -1.8,5.85374 0.405,1.19125 1.72,2.5375 2.30375,3.78875 1.71375,3.6762399 -2.95875,12.1487399 -3.55375,16.3187299 -0.35375,2.47 2.7875,4.705 5.96,3.83375 2.80374,-0.77 2.87249,-3.63375 3.11499,-6.4975 0.11875,-1.40874 -0.295,-2.92624 -1.0425,-3.40124 -1.20249,-0.765 -3.64999,-1.025 -3.63374,-2.07125 z" />
</svg>
