<?xml version="1.0" encoding="UTF-8" standalone="no"?>
<svg>
    <path
       style="fill:#000000;stroke:none"
       d="m 21.654435,65.468701 c 0,0 0.859249,-1.98 1.378998,-3.55 0.876874,-2.64749 0.735499,-4.56124 0.389625,-7.30124 -0.964624,-7.64124 -2.447623,-24.95122 -2.447623,-24.95122 0,0 2.660748,-0.3 4.69412,-0.24625 5.499119,0.14375 7.101617,2.73375 9.994242,-0.15625 1.88324,-1.88125 3.56799,-8.54874 2.36349,-11.03874 -1.37762,-2.84625 -6.044614,-4.21874 -8.189611,-1.895 -0.989249,1.0725 -1.553499,2.76375 -2.685747,3.8775 -1.753123,1.725 -4.86787,2.06625 -6.410743,3.50375 -2.642372,2.46249 -2.996872,19.67247 -2.510497,23.74997 0.820374,6.87749 3.423746,18.00748 3.423746,18.00748 z m 115.066245,-22.87498 0,2.41 c 0,0 2.89875,0.48625 4.9525,0 2.08125,-0.49375 7.46499,-6.12999 6.01124,-1.6775 -0.61625,1.8925 -2.595,4.24 -3.86874,6.8375 -0.9075,1.84749 -1.58625,4.02874 -1.29,4.51374 1.41375,2.32125 5.41499,-5.64874 6.12624,-7.09374 1.10625,-2.2475 2.0625,-4.34625 2.2575,-7.08249 0.1725,-2.4175 0,-5.8175 0,-5.8175 l -5.1725,0 c -1.74124,0 -2.04499,0.02 -3.04124,0.2 -2.48,0.4475 -4.93375,2.77375 -5.70875,5.55125 -0.24,0.86125 -0.26625,1.07625 -0.26625,2.15874 z m -95.515393,55.11244 c 0.21825,3.011249 1.62287,4.883749 4.178,5.423749 3.29624,0.6975 5.15999,-1.09 6.00499,-4.706249 0.18625,-0.79375 0.14375,-1.455 -0.36625,-1.77375 -0.97125,-0.60625 -3.63875,0.0237 -4.92749,-0.66125 -1.60375,-0.85249 -2.0125,-4.47374 -1.615,-6.16749 0.3975,-1.695 1.40875,-3.50999 1.685,-4.81624 0.0563,-0.265 0.0812,-0.50875 -0.0337,-0.64375 -0.015,-0.0175 -0.0288,-0.0338 -0.0438,-0.0488 -3.87975,-0.88375 -4.82287,14.20623 -4.88175,13.39373 z m 60.607933,0 c 0.2175,3.011249 1.6225,4.883749 4.1775,5.423749 3.29624,0.6975 5.15999,-1.09 6.00499,-4.706249 0.18625,-0.79375 0.14375,-1.455 -0.36625,-1.77375 -0.97125,-0.60625 -3.63874,0.0237 -4.92749,-0.66125 -1.60375,-0.85249 -2.01125,-4.47374 -1.615,-6.16749 0.3975,-1.695 1.41,-3.50999 1.685,-4.81624 0.0563,-0.265 0.0813,-0.50875 -0.0337,-0.64375 -0.0137,-0.0175 -0.0288,-0.0338 -0.0437,-0.0488 -3.88,-0.88375 -4.8225,14.20623 -4.88125,13.39373 z m -7.634993,-56.64368 5.47375,5.47374 7.877493,-7.87749 -7.877493,-7.87749 -5.47375,5.47374 -5.47374,-5.47374 -7.87749,7.87749 7.87749,7.87749 5.47374,-5.47374 z m -9.39874,27.88496 0,1.0325 -4.52874,0 c -1.74125,0 -2.045,-0.02 -3.04125,-0.2 -2.77625,-0.5025 -5.38874,-3.27624 -3.395,-5.81999 1.44625,-1.845 4.155,-1.20875 5.805,-0.1075 1.2975,0.865 2.67499,1.97 3.81999,3.1725 1.205,1.26625 1.34,1.4575 1.34,1.92249 z m 61.271183,-4.12749 -1.03125,0 c -0.46499,0 -0.62624,0.16 -1.61374,1.6 -2.66625,3.88874 -3.36875,5.14749 -6.77125,4.20499 -1.12124,-0.31125 -2.33999,-0.7625 -3.53999,-1.53375 -1.2175,-0.78124 -3.8175,-3.32749 -4.715,-2.98124 -0.595,0.22875 -1.00625,1.46875 -1.61749,2.385 -2.29625,3.43874 -10.91999,4.51249 -14.26249,4.06499 -3.49749,-0.47 -7.63249,-2.30125 -8.37124,-4.29624 -0.52125,-1.4075 0.27,-4.18375 0.645,-7.185 0.28125,-2.25624 -1.19125,-11.19373 -1.935,-11.73873 -1.6625,-1.21875 -4.259993,3.74374 -4.514993,7.35249 -0.24875,3.52749 2.172493,8.60374 1.29,10.31999 -0.63125,1.2275 -5.1475,3.00749 -6.66875,2.32249 -1.58875,-0.71624 -2.75749,-5.74124 -4.61749,-9.02999 -2.7825,-4.91749 -8.86624,-9.04874 -13.22249,-6.12749 -5.40374,3.625 -7.02624,16.42873 -4.83749,22.25123 1.045,2.78124 5.30999,3.69249 9.35249,3.86999 3.66124,0.16125 9.67499,-0.645 9.67499,-0.645 0,0 0.56875,3.48375 0.345,5.28375 -0.16,1.2875 -0.725,1.71374 -1.42125,2.37749 -1.71625,1.63875 -4.22875,4.7275 -6.66374,6.85125 -2.34375,2.04374 -4.61625,3.19374 -7.8625,4.60999 -8.97749,3.917499 -21.50372,8.272489 -19.56122,10.573739 2.57999,3.05625 11.37373,2.74875 14.31748,1.9075 7.47499,-2.13625 16.94873,-9.65624 22.11248,-17.589979 1.60124,-2.4575 4.40499,-10.01249 4.33749,-11.68374 -0.06,-1.45875 -0.50375,-2.72875 0.2,-3.83875 1.26,-1.98624 4.1125,-2.84999 5.268743,-2.08749 1.0275,0.67875 2.3125,2.77124 3.76125,3.91874 2.42625,1.9225 11.39124,2.395 13.98248,1.6125 3.045,-0.91875 6.29,-3.28625 8.415,-4.27374 1.33499,-0.62 1.36374,-0.0913 3.48124,1.24749 2.0825,1.31625 4.83,2.10625 5.85375,1.73625 3.70749,-1.33875 3.49624,-2.86999 5.23124,-2.43375 2.04125,0.51125 6.29124,3.25625 9.34249,4.1325 0.995,0.28625 1.86125,0.37375 2.80625,0.31875 1.27249,-0.0738 1.50999,-0.25125 2.37124,-1.7675 4.2725,-7.53124 4.575,-7.81999 4.335,-15.78498 -0.0525,-1.74375 -0.14125,-2.045 -0.8825,-3.01125 -2.90875,-3.78999 -4.68125,-2.45374 -6.24124,1.1325 -0.69625,1.6 -1.3975,3.135 -0.9675,4.515 0.76,2.43999 4.33874,5.86124 -0.12875,4.51374 -1.33375,-0.40125 -5.3475,-2.39375 -5.67625,-3.64999 -0.30125,-1.1525 0,-3.44375 0,-3.44375 z m 29.75497,-5.36124 c -0.52,-2.3075 0.75875,-4.42625 3.4275,-4.12125 0.51875,0.06 0.69125,0.1975 1.73499,1.3725 1.875,2.11375 2.4375,4.26499 1.84625,4.49874 -0.8275,0.32625 -3.30874,-0.14125 -4.92499,-0.49875 -1.70625,-0.3775 -1.915,-0.50375 -2.08375,-1.25124 z m -34.02996,35.75371 c -2.1225,0.66249 -4.2775,1.29374 -6.04374,1.79249 -2.25375,0.635 -4.39125,1.595 -3.225,2.90125 1.0025,1.123749 6.00874,-0.3775 9.39374,0.322499 1.025,0.21125 1.90625,0.63125 2.7775,0.76875 0.87999,0.13875 2.10374,-0.0225 3.44999,-0.33 5.83999,-1.337499 33.83371,-12.726239 38.28621,-25.347469 1.115,-3.165 3.62874,-14.76624 2.00375,-16.48998 -0.1725,-0.18375 -0.385,-0.3175 -0.6,-0.51125 -1.215,-1.09875 -2.5075,-4.11625 -3.71375,-6.14 -2.12125,-3.55874 -7.75374,-5.08874 -10.64249,-1.29 -2.69374,3.545 -4.84874,14.45999 -2.57874,17.41499 2.31749,3.01874 8.55749,0.85874 12.57623,0 0.55875,-0.12 1.0775,-0.20125 1.29,0 0.7975,0.75124 -1.51375,2.97374 -2.39125,3.76374 -2.03374,1.83125 -6.57124,5.03625 -11.84748,8.46499 -11.43249,7.43124 -17.67748,11.22749 -28.73497,14.67999 z M 53.820777,66.984951 c 0.155,0.35375 0.2275,1.15125 0,1.5475 -0.57125,0.98999 -8.16999,-1.51875 -8.38499,-1.71625 -0.91625,-0.84125 0.56625,-3.675 3.61249,-4.73375 1.5375,-0.535 3.3975,1.76 4.7725,4.9025 z m 4.15624,10.79373 c 2.55375,-4.88624 4.2325,-8.76124 2.75875,-12.57873 -0.82625,-2.14125 -2.615,-3.6725 -3.045,-7.19374 -0.4725,-3.865 0.69,-10.12749 0.69,-10.12749 0,0 -3.03249,0.8025 -5.20499,1.6275 -4.60375,1.74624 -11.27924,6.75124 -13.22211,9.35124 -1.97,2.63624 -7.710744,13.61248 -8.062119,18.05998 -0.128875,1.63124 0.2525,3.19999 0,4.73374 -0.620374,3.76875 -8.28874,11.67374 -11.609487,14.29248 -3.089871,2.43625 -22.8879737,13.944989 -19.99410172,15.801239 1.15837302,0.74375 8.65736502,-3.58 14.51185772,-5.16 5.950119,-1.605 7.224992,-0.6775 10.641988,-3.54624 3.411497,-2.865 8.94024,-10.398739 9.997112,-13.867489 2.47337,-8.11624 -0.0735,-14.33998 5.94587,-12.66498 3.01975,0.84125 8.23974,2.36874 12.04849,2.98999 0.84625,0.13875 1.62125,0.2325 2.43249,0.13875 1.0925,-0.12375 1.30375,-0.31 2.11125,-1.85625 z m 120.259873,-9.79873 2.21875,19.54497 c 0.0337,0.2925 0.0775,0.5825 0.14,0.8525 0.61999,2.6575 3.84624,6.38625 5.44374,7.33749 7.35874,4.381249 22.81872,-6.32624 25.80997,-9.52623 0.93625,-1 3.91,-12.12624 3.85875,-14.42874 -0.0487,-2.14125 -0.205,-4.56249 -0.35125,-6.47624 l -0.26125,-3.42625 2.90249,0.415 2.52875,0.36125 -0.4725,-2.26125 c -0.345,-1.88874 -0.8525,-3.05624 -2.09125,-4.54374 -3.51999,-4.225 -12.94623,-11.03374 -12.94623,-11.03374 0,0 -1.60625,2.92875 -2.53125,4.80375 -2.76875,5.61749 0.7825,7.68374 5.64999,14.50748 2.2425,3.145 5.1275,8.16499 4.17625,10.79999 -1.1925,3.30374 -9.59499,9.22249 -12.08249,10.48874 -6.33124,3.22124 -11.51248,3.19124 -14.45373,-2.59125 l -7.53874,-14.82373 z M 98.968227,7.0300115 l 1.721243,0 c 0.7725,0 0.9275,0.025 1.54,0.24875 3.46,1.2625 3.36375,4.3062495 1.085,6.1487495 -0.77625,0.6275 -0.90125,0.70125 -1.25,0.74125 -1.68875,0.19375 -2.836243,-2.13125 -3.096243,-4.0425 -0.1775,-1.3099995 0,-3.0962495 0,-3.0962495 z m 5.351243,10.4099895 c 0.0225,-0.0688 0.045,-0.13875 0.0687,-0.20875 2.96875,-8.6437395 8.10874,-10.2449895 2.86125,-14.9162295 -1.89375,-1.685 -5.83875,-3.17375 -9.144993,-1.735 -2.3125,1.00625 -4.17625,6.85874 -3.65125,9.9324895 0.67625,3.95125 2.56,6.90624 0.645,8.44999 -1.8825,1.51875 -5.56374,3.16 -9.67374,4.515 -16.74998,5.51999 -44.06282,12.11373 -44.8747,13.49498 -1.00425,1.7075 0.46,2.59125 4.36975,2.95125 6.57749,0.605 35.71996,-7.30624 43.7287,-11.93249 5.26749,-3.04125 7.79499,-5.81749 10.36124,-4.50374 4.948743,2.53249 4.448743,4.46874 8.086243,3.53624 5.67249,-1.4525 6.94874,-2.73125 8.64249,-8.25499 0.3075,-1.00375 0.41625,-1.65 0,-2.06375 -0.62625,-0.62 -2.53625,-0.645 -3.445,0 -1.015,0.72 -1.215,2.26375 -2.56375,2.895 -0.63874,0.3 -1.53624,0.39375 -2.39499,0.40625 -3.21375,0.0425 -3.265,-1.78625 -3.015,-2.56625 z m 38.76246,-0.0625 c 0.26625,0.34125 0.19125,1.0675 0,1.72875 -0.35625,1.23125 -3.73125,4.45125 -6.34875,6.05624 -4.92249,3.01875 -13.30373,9.55249 -14.28998,11.13874 -0.64375,1.035 -0.985,3.405 -0.645,3.87 0.3925,0.5375 1.80625,0.4 3.09625,0 3.61374,-1.1225 12.60123,-8.58749 14.87123,-11.40624 1.47625,-1.83375 2.72625,-3.93875 4.26375,-4.86374 0.77375,-0.465 1.61874,-0.63125 2.24999,-1.16125 0.915,-0.76625 1.37875,-2.29375 1.64,-3.8525 0.285,-1.705 0.32875,-3.44875 0.645,-5.15999 0.715,-3.8674995 2.035,-5.8812495 0.9675,-9.2487395 -1.04875,-3.30625 -5.56999,-6.39875 -8.70749,-3.00625 -1.55625,1.68375 -3.2475,8.28249 -2.9025,10.1912395 0.1325,0.735 0.40875,1.40625 0.9675,2.06375 1.11,1.30374 3.33875,2.55374 4.1925,3.64999 z m -87.971153,-9.4674895 0,2.4099995 c 0,0 2.89874,0.48625 4.95249,0 2.08125,-0.4937495 7.46499,-6.1299895 6.01124,-1.6774995 -0.6175,1.8924995 -2.59499,4.2399995 -3.86874,6.8374895 -0.9075,1.8475 -1.58625,4.02875 -1.29,4.51375 1.41375,2.32125 5.41499,-5.64874 6.12624,-7.09374 1.10625,-2.2475 2.0625,-4.3462495 2.2575,-7.0824895 0.1725,-2.4175 0,-5.817500006854 0,-5.817500006854 l -5.17249,0 c -1.74125,0 -2.045,0.02000000685 -3.04125,0.200000006854 -2.48,0.44875 -4.93375,2.77375 -5.70874,5.55125 -0.24,0.86124 -0.26625,1.07749 -0.26625,2.15874 z" />
</svg>
