<?xml version="1.0" encoding="UTF-8" standalone="no"?>
<svg>
  <path
     d="m 126.84417,62.626631 -1.81884,6.224078 c -1.69759,6.104071 -0.48378,13.799475 2.70639,17.662178 2.30512,2.792647 4.39523,3.485184 7.6904,3.387679 4.97776,-0.147508 15.59582,-5.547792 18.9985,-9.735512 1.25632,-1.545082 4.10397,-6.354085 4.6565,-8.325438 0.47752,-1.70509 0.47502,-3.503935 0.86129,-5.251526 0.9138,-4.138968 1.89885,-4.477736 1.00505,-8.600453 -0.63503,-2.923904 -2.14386,-6.407837 -2.39887,-8.846715 -0.0462,-0.453774 -0.05,-0.872546 0.18376,-1.090057 0.35002,-0.326268 1.23006,-0.208761 1.62883,-0.501277 1.09131,-0.797542 -1.14506,-4.227722 -1.90385,-5.380283 -1.26131,-1.9151 -2.58513,-3.892704 -3.8277,-5.624046 -1.50883,-2.10261 -2.24637,-0.9688 -3.91395,1.726341 -1.71134,2.762646 -2.69515,4.317727 -2.25012,6.26033 0.52503,2.29512 2.8289,5.537791 3.64894,8.162929 0.29877,0.96005 0.40002,1.836346 0.65003,2.970156 0.98631,4.468985 4.28398,12.91943 4.28398,12.91943 0,0 -1.89135,1.850097 -3.45393,3.186417 -5.23653,4.476486 -17.81594,10.110532 -22.57244,4.18272 -0.81629,-1.017553 -2.39888,-4.535238 -2.97516,-7.390389 l -1.19881,-5.936562 z M 93.773682,89.21928 c 1.285067,0.775041 2.263869,0.833794 3.488933,0.491276 9.880515,-2.762646 14.463265,-11.341847 20.168565,-18.644731 0.66878,-0.855045 1.36632,-1.727591 2.08386,-2.561385 1.83509,-2.136362 3.72769,-3.912705 5.56654,-5.382783 6.7141,-5.366532 10.5293,-6.134072 15.1883,-6.244078 1.32257,-0.03 2.36887,-0.01125 2.36887,-0.01125 0,0 -0.28376,2.311372 0.11001,3.130165 0.37127,0.77254 1.80634,0.112506 2.32887,-0.603782 0.65128,-0.893797 1.58008,-3.298923 2.15261,-5.036515 0.44253,-1.34132 0.49753,-1.646336 0.55128,-3.05516 l 0.21251,-5.589044 c 0,0 -3.29392,0.0013 -5.84155,0.20376 -7.67916,0.613783 -13.97199,4.042713 -19.45353,8.251684 -3.9402,3.026409 -9.59925,7.959169 -11.13808,10.051779 -1.29882,1.763843 -2.16387,3.587689 -3.46018,5.604045 -2.17262,3.376427 -5.29528,7.99167 -8.230438,8.382941 -0.465024,0.06125 -1.022553,0.09501 -1.552581,0.112505 -4.56024,0.151258 -7.359137,-5.602794 -8.232933,-8.357939 l -1.343821,-4.232723 -1.043805,4.117717 c -0.08375,0.331267 -0.176259,0.668785 -0.272514,1.006303 -3.945208,13.675719 3.013908,16.35586 6.349084,18.367216 z M 96.59008,37.526561 c 0.0525,1.486328 0.110006,3.132665 0.110006,3.132665 0,0 -11.846873,3.598939 -17.568424,5.397784 -2.583886,0.812542 -4.621493,1.922601 -5.345281,2.910153 -0.75254,1.028804 -2.578886,9.593004 -2.285121,10.719314 0.37752,1.450076 1.358822,2.732643 3.155166,2.977656 1.260067,0.172509 2.982657,-0.160008 4.497737,-0.252513 2.952655,-0.18001 11.41685,-0.05625 15.01704,1.53008 0.245013,0.107506 0.492526,0.230012 0.743789,0.36502 1.285067,0.696286 1.800094,1.356321 1.70759,2.525132 -0.0063,0.0725 -0.015,0.137508 -0.0325,0.197511 -0.651284,2.217616 -18.44097,8.871716 -18.675982,8.93297 -8.201682,2.156363 -19.993552,3.975209 -24.750052,4.165219 C 37.290711,80.758835 12.883178,76.10359 5.0590161,63.527929 3.746447,61.417818 2.415127,58.157646 1.6113347,54.743717 1.2888178,53.368644 1.2100636,53.217386 0.83504392,53.229887 L 0,53.259889 0.20751091,59.206451 c 0.0500026,1.407574 0.0787542,1.720091 0.29251539,3.115164 1.0188036,6.667851 3.7289461,11.090583 8.9404702,16.783383 1.8663485,2.037607 4.9390095,4.008961 8.5179475,5.7078 13.054437,6.194076 34.569319,6.019067 48.225037,3.293923 2.045107,-0.407521 4.043962,-0.852545 6.000315,-1.355071 9.245487,-2.371375 21.046107,-6.971617 24.625045,-14.433259 0.815043,-1.698839 2.350124,-3.331425 2.890152,-4.912758 0.383767,-1.12631 0.285015,-2.452629 0.683787,-3.642692 1.0413,-3.107664 3.22017,-3.742697 2.12261,-6.426588 -1.06631,-2.605137 -4.742748,-4.082715 -7.991669,-4.505237 -2.028857,-0.263764 -4.93151,-0.458774 -4.93151,-0.458774 0,0 3.59769,-1.261316 5.771554,-2.406377 1.201313,-0.632533 2.65639,-1.72259 3.24392,-2.460129 1.222565,-1.536331 2.287625,-5.351532 3.402675,-7.397889 0.60504,-1.108808 1.22507,-1.698839 1.38633,-2.366375 0.26501,-1.091307 -0.69504,-2.388875 -1.21507,-4.892757 -0.22376,-1.078807 -0.36627,-2.382625 -0.45377,-3.740197 -0.09,-4.493986 0.004,-10.429298 0.004,-10.429298 l 2.60764,-0.09126 c 0,0 -0.29502,-4.18897 -0.77754,-7.294134 -0.64004,-4.1239661 -1.61259,-6.3340831 -2.59889,-9.3442411 -0.91005,-2.77514597 -1.672589,-2.43137797 -4.437734,0.045 -2.167614,1.941353 -3.471433,3.645192 -2.990157,6.3165826 0.215011,1.1900626 0.720038,2.4513785 1.010053,3.6126905 l 0.96005,3.845202 0.797542,6.261579 c 0.115006,0.907548 0.163759,1.886349 0.108756,2.648889 -0.015,0.201261 -0.02875,0.390021 -0.09126,0.575031 -0.085,0.248763 -0.08875,0.432522 -0.04,1.841346 0,0 0.09876,2.83265 0.147508,4.238973 l 0.172509,6.191576 z m 17.63593,-19.231011 -0.12001,-2.068859 1.29507,-0.04625 0.81629,-0.0275 c 0,0 -0.007,-1.838847 -0.13125,-3.756448 -0.37502,-5.8240562 -1.82135,-12.36565017 -1.82135,-12.36565017 0,0 -1.05256,-0.102505 -1.91885,0.06625 -2.10386,0.412521 -4.55524,4.49023597 -4.83276,6.08156897 -0.1325,0.75629 -0.0662,1.645087 0.09,2.5713857 0.31127,1.8613475 0.9788,3.8764535 1.24506,5.7453025 0.41003,2.891402 -0.14125,5.432785 -0.19626,9.336741 -0.11875,8.337938 2.22137,24.162521 2.22137,24.162521 0,0 2.7889,-5.409035 3.89646,-8.182931 0.72878,-1.825096 0.71628,-2.680141 0.53877,-4.826504 -0.33626,-4.037712 -0.89879,-13.548212 -1.08255,-16.689627 z m 14.11574,-6.384086 c 2.63639,-2.411377 5.20652,-5.1002681 6.01032,-7.3591371 0.36752,-1.033804 0.9813,-3.81645097 0.63628,-4.20022097 -0.45877,-0.512527 -1.9026,0.271264 -3.26767,1.21256397 -1.21007,0.833794 -9.60301,10.2080371 -9.60301,10.2080371 -1.02505,1.162561 -1.98885,2.325122 -2.48138,3.562687 -1.04255,2.615137 -0.26251,3.057661 0.79504,2.820148 0.49628,-0.111256 1.95636,-1.203813 3.38393,-2.348873 l 4.52649,-3.895205 z m 2.56638,14.804529 -6.7716,6.771606 6.77661,6.776606 6.7716,-6.770356 -6.77661,-6.777856 z M 34.074292,61.986598 c 0,0 4.780251,-1.561333 6.674101,-1.13006 1.000053,0.227512 2.033857,2.025107 2.682641,3.403929 1.177562,2.501382 2.312622,5.722801 2.742644,8.279186 0.143758,0.851294 0.300016,1.636336 1.175062,1.936351 0.552529,0.18876 1.392573,0.200011 1.392573,0.200011 0,0 0.0025,-0.0125 0.0063,-0.03875 0.418772,-2.356374 1.350071,-6.310332 1.587583,-8.694207 0.250013,-2.503882 0.19376,-3.372678 2.326373,-3.213919 3.221419,0.240012 4.316477,0.808792 5.731551,-1.762593 1.270067,-2.306371 2.66264,-7.014119 0.445023,-8.540449 -6.85786,-1.846347 -9.417995,7.175377 -9.846767,9.240486 -0.607532,2.916403 -0.861296,6.044068 -0.861296,6.044068 0,0 -1.680088,-5.400284 -2.915153,-8.316688 -1.390073,-3.281422 -4.977762,-7.699155 -8.847965,-6.595347 -1.922601,0.548779 -2.598887,2.121362 -2.597637,4.202721 0.0012,1.915101 0.305016,4.985263 0.305016,4.985263 z M 143.18378,18.29555 l -0.12001,-2.068859 1.29507,-0.04625 0.8163,-0.0275 c 0,0 -0.008,-1.838847 -0.13126,-3.756448 -0.37502,-5.8240562 -1.82135,-12.36565017 -1.82135,-12.36565017 0,0 -1.05255,-0.102505 -1.91885,0.06625 -2.10386,0.412521 -4.55524,4.49023597 -4.83275,6.08156897 -0.13251,0.75629 -0.0663,1.645087 0.0887,2.5713857 0.31252,1.8613475 0.98005,3.8764535 1.24632,5.7453025 0.41002,2.891402 -0.14126,5.432785 -0.19626,9.336741 -0.11876,8.337938 2.22136,24.162521 2.22136,24.162521 0,0 2.7889,-5.409035 3.89646,-8.182931 0.72879,-1.825096 0.71629,-2.680141 0.53878,-4.826504 -0.33627,-4.037712 -0.8988,-13.548212 -1.08256,-16.689627 z"
     style="fill:#000000;stroke:none" />
</svg>
