<?xml version="1.0" encoding="UTF-8" standalone="yes"?>
<svg>
<path
	style="stroke:none; fill:#000000"
	d="m 158.22992,9.24625 -1.56375,2.18375 -1.55375,-1.66125 -1.72125,-1.7575 1.37625,-1.30375 c 0.42125,-0.39875 0.945,-0.81 1.47375,-1.0125 0.27625,-0.105 0.555,-0.15375 0.7925,-0.17375 1.97625,-0.1625 2.4525,0.5775 2.34125,1.47375 -0.08,0.6525 -0.62625,1.52875 -1.145,2.25125 z m -52.70125,24.8425 c -1.01375,0.88125 0.1575,1.17125 2.1475,1.1675 21.89876,-4.125 21.51876,0.16125 39.79,-12.10125 2.0275,-1.36125 3.9725,-2.75375 5.81375,-4.1625 1.35875,-1.04 2.27375,-1.79 2.27375,-1.79 0,0 2.0225,1.79625 3.46625,3.50375 0.1025,0.12125 0.2125,0.2725 0.32625,0.4475 3.56875,5.45875 2.28375,5.3125 2.50625,11.38875 0.002,0.07 0.005,0.14 0.007,0.21125 0.025,0.54875 0.055,0.9625 0.055,0.9625 0,0 1.185,-3.14375 2.05375,-4.675 2.32,-4.09 -0.16375,-10.10875 -2.5025,-13.39875 -0.43125,-0.605 -0.88625,-1.06125 -1.265,-1.48125 l -1.1525,-1.2775 0.98625,-2.41875 c 0.555,-1.3625 1.33625,-3.02375 1.8625,-4.325 1.3175,-3.25375 0.075,-5.0325 -3.705,-6.00750002 -1.4325,-0.36875 -2.14125,0.015 -3.83,1.39125002 -1.29875,1.05875 -2.48625,2.795 -2.85875,4.18125 -0.36125,1.34 -0.59,3.16125 -0.72875,4.675 l -0.1575,1.705 0.81375,1.90625 c 0.19125,0.45 0.39375,0.9275 0.39375,0.9275 0,0 -0.30125,0.1525 -0.765,0.39625 -1.26,0.6625 -2.45875,1.295 -3.6,1.9 -7.69125,4.0775 -15.61649,8.630942 -24.39149,11.732192 l -10.90533,3.216866 -6.63443,1.924692 z m -59.253732,12.724838 -5.5675,5.53125 c -0.92625,0.92 -1.0575,1.085 -1.31625,1.65125 -0.3625,0.7925 -0.48875,2.11875 -0.31,2.2975 0.57625,0.5825 2.61625,-0.83 3.32625,-1.35375 6.215,-4.58375 9.0475,-7.47125 10.0525,-13.4075 0.51,-3.01749 -1.0875,-4.18499 -3.91375,-4.56999 -4.485,-0.61 -8.935,0.0138 -10.6775,3.39124 0.27125,12.89125 0.655,5.51875 4.4575,4.60375 4.23125,-1.0175 8.78,-3.27875 3.94875,1.85625 z m 25.0114,-28.317338 -0.16,-3.65375 c -0.0638,-1.4775 -0.0425,-1.7425 0.21375,-2.6475 0.19,-0.67125 0.39125,-1.405 0.9,-1.87875 1.24125,-1.1525 4.315,-0.75375 5.74,-1.70375 2.05125,-1.3675 2.0525,-6.06375 0.47375,-7.96750002 -1.67375,-2.01874998 -5.0575,1.18750002 -6.445,3.02125002 -0.85125,1.1275 -1.6575,2.4175 -2.02125,3.925 -0.1675,0.69875 -0.26,1.49125 -0.3925,2.185 l -0.64375,3.4 -2.12625,-2.70625 c -2.91,-3.8325 -2.0225,-4.9725 -6.3,-6.015 -1.4325,-0.34875 -4.54,-0.21875 -5.1375,1.395 -0.4675,1.2625 0.63,4.3325 1.3175,5.06125 0.52875,0.56125 2.66875,1.9525 3.5525,2.0375 1.445,0.14 4.39625,-0.74 4.39625,-0.74 0,0 2.3825,3.42875 3.8375,5.04 0.635,0.7025 1.16,1.26875 1.975,1.28375 0.335,0.006 0.82,-0.0362 0.82,-0.0362 z m -10.6275,20.6825 c -0.0462,-1.27375 -0.19,-2.8725 -0.60875,-3.275 -0.2425,-0.23375 -0.5775,-0.0638 -0.7875,-0.19 -0.945,-0.5675 0.6625,-2.9075 1.4275,-3.80125 6.9525,-8.115 24.97,-18.19125 34.48999,-20.275 0.9075,-0.19875 1.81375,-0.36 1.985,-0.0525 0.085,0.1525 -0.0112,0.42125 -0.1575,0.72375 -0.34375,0.71125 -0.89375,1.5725 -1.505,2.495 -12.67749,19.14375 7.320002,-7.42375 12.993752,-8.17 0.52,-0.25625 1.00625,-0.4625 1.43875,-0.59875 2.20875,-0.695 4.6,-0.8425 4.89,-2.96 0.0412,-0.29625 0.0462,-0.66625 0.0362,-1.02625 -0.0962,-3.4675 -5.755,-1.80875002 -9.7425,-0.29125 -3.69,1.40375 -9.171252,3.7175 -14.984992,6.40625 -7.5225,3.48 -30.04375,13.9275 -33.2125,23 -1.02125,2.92375 -0.83125,6.2 1.20375,9.01875 0.0875,0.12 0.1675,0.23 0.23875,0.3275 -0.91875,-1.2475 2.49125,4 2.295,-1.33125 z m -33.67625,51.90124 c 2.8825,4.07875 9.14,4.16875 13.9275,3.7525 1.8375,-0.16 3.56375,-0.3425 5.39375,-1.155 2.67125,-1.18625 5.565,-3.71375 7.67625,-4.71875 0.44,-0.21 0.8475,-0.35375 1.185,-0.2525 0.87,0.2625 1.285,2.15125 2.215,2.90375 1.075,0.87 6.35,-0.32125 8.095,-1.28375 0.5975,-0.32875 2.98125,-2.1425 3.70625,-3.175 0.57125,-0.81375 0.76125,-0.83375 1.8975,-0.2 1.39,0.775 3.05625,1.3425 4.35375,1.9325 1.1475,0.52125 1.9175,0.94625 2.80375,0.505 1.3525,-0.67375 2.075,-3.50375 1.805,-5.17625 -0.34125,-2.1025 -1.66125,-6.19125 -3.005,-4.93 -0.67875,0.635 -0.77375,2.50625 -1.51125,3.1475 -0.35375,0.30875 -0.855,0.33375 -1.33625,0.1925 -1.0225,-0.3 -1.95375,-1.34875 -2.72125,-1.26625 -1.14,0.12125 -1.92,2.73 -3.455,3.85625 -1.40625,1.03375 -7.50375,2.19 -8.35,1.61 -0.8475,-0.57875 -1.17375,-2.07375 -1.94,-2.6975 -1.70875,-1.39 -4.31875,1.41625 -6.795,3.1025 -2.2925,1.56125 -4.5475,2.30375 -7.0225,2.5375 -3.915,0.36875 -10.625,0.0163 -13.90875,-0.1975 -4.71875,-0.30625 -2.87625,1.7075 -3.01375,1.5125 z m 60.765,-46.66124 4.64749,4.64749 6.6875,-6.68749 -6.6875,-6.68875 -4.64749,4.6475 -4.6475,-4.6475 -6.6875,6.68875 6.6875,6.68749 4.6475,-4.64749 z m 0.16875,-7.58375 6.68874,-6.68875 -6.68874,-6.6875 -6.6875,6.6875 6.6875,6.68875 z m -71.17999,27.65124 -5.56875,5.53125 c -0.92625,0.91875 -1.0575,1.08375 -1.3162495,1.65 -0.3625,0.7925 -0.4875,2.11875 -0.31,2.29875 0.5774995,0.5825 2.6162495,-0.83125 3.3262495,-1.35375 6.21499,-4.585 9.04749,-7.4725 10.05249,-13.4075 0.51,-3.0175 -1.0875,-4.185 -3.91375,-4.57 -4.48499,-0.61125 -8.93499,0.0137 -10.6774895,3.39 0.27125,12.8925 0.655,5.52 4.4574995,4.605 4.23125,-1.01875 8.77999,-3.28 3.95,1.85625 z m 22.64499,-46.169387 -0.51625,-9.8687502 c -0.0775,-1.46375 -0.1075,-1.71875 -0.3025,-2.54875 -0.59875,-2.54125 -2.2075,-3.93375 -3.89125,-4.8325 -2.14,-1.14250006 -3.7725,-1.56750006 -5.9775,0.0412 -1.81375,1.32375 -1.985,6.11375 -1.2725,6.8625 0.5325,0.55875 1.94125,0.50875 3.6475,0.10875 4.26,-1.00125 4.6875,-0.77 5.7975,3.7350002 0.5275,2.14125 0.58875,4.1475 0.33,6.30125 -0.55125,4.5725 -1.845,6.79625 0.69125,9.48125 1.055,1.1175 2.1575,1.28625 4.56625,0.79 1.71125,-0.3525 2.05,-1.1475 2.7675,-3.51625 0.505,-1.6675 0.905,-3.16125 0.775,-4.825 -0.25625,-3.29875 -3.82375,-9.5 0.47625,-11.0412502 0.7925,-0.28375 1.825,-0.0988 2.71375,0.095 1.19875,0.26125 1.4025,0.14375 2.03375,-1.18375 0.52,-1.09125 1.12125,-2.095 1.45125,-3.27 1.24125,-4.40875006 -0.65875,-5.6525 -4.47,-3.84625006 -4.37125,2.07125006 -6.335,10.94625026 -5.40125,16.89625026 0.28625,2.4525 0.59875,4.66125 0.59875,4.66125 0,0 -0.26125,-0.002 -0.5725,-0.0337 -1.22375,-0.12 -3.32625,-1.745 -3.445,-4.00625 z m 88.878742,-8.258103 -5.56875,5.5325 c -0.925,0.91875 -1.05625,1.08375 -1.315,1.65 -0.3625,0.7925 -0.48875,2.11875 -0.31,2.29875 0.57625,0.58125 2.615,-0.83125 3.325,-1.355 6.21625,-4.58375 9.0475,-7.47125 10.0525,-13.4075 0.51125,-3.0175 -1.08625,-4.18500002 -3.91375,-4.57000002 -4.48375,-0.61 -8.935,0.015 -10.6775,3.39125002 0.2725,12.89125 0.655,5.52 4.45875,4.60375 4.23125,-1.0175 8.78,-3.27875 3.94875,1.85625 z M 0.75134849,85.68124 c 0.65625001,2.96625 1.75125001,5.505 3.28250001,7.095 0.94875,0.9875 2.16,1.68375 3.465,2.08 1.62,0.4925 7.1749995,-0.385 8.7774995,-1.38625 2.46,-1.53625 12.77124,-13.54625 13.85999,-18.85 0.96125,-4.68 0.2575,-9.8375 2.28,-8.74375 1.4625,0.79125 3.82,4.7375 5.8975,7.03375 7.1575,7.91 24.06,6.08 32.595,-0.23 1.60375,-1.18625 3.60125,-2.88125 5.25375,-4.3325 l 3.205,-2.815 0.6025,1.95125 c 0.67,2.16375 1.79875,5.4625 2.83625,6.8125 0.73,0.95125 5.68375,1.4275 8.31624,0.92375 2.30375,-0.44 4.1075,-1.94375 5.665,-2.8975 l 2.5775,-1.57875 5.297502,3.51875 c 3.01375,2.0025 5.8975,4.35875 5.8975,4.35875 0,0 3.0825,-6.49125 3.6625,-10.7925 0.1825,-1.3525 -1.8625,-13.88875 -4.99,-14.785 -1.415,-0.405 -2.53125,1.83125 -2.63375,4.08 -0.0488,1.0925 0.15875,2.10625 0.58125,3.2 1.10875,2.8725 3.20625,6.0975 1.115,6.58 -0.94,0.2175 -2.46375,-0.95125 -4.02875,-2.0325 l -3.67875,-2.54375 -2.036252,2.22 c -0.61875,0.675 -1.2625,1.44125 -2.11625,1.895 -1.855,0.98375 -7.41749,0.9025 -9.23999,0.46125 -1.135,-0.27375 -1.98,-0.745 -2.54125,-1.8475 -2.48625,-4.8825 -0.9075,-8.88 -3.465,-8.085 -2.74875,0.85375 -6.45375,5.9075 -10.395,8.77875 -1.6575,1.20625 -10.9475,3.68375 -13.86,3.695 -6.77,0.0287 -13.7825,-1.09125 -17.90375,-5.775 -4.335,-4.92625 -16.76625,-31.06124 -18.82625,-32.10874 -1.24625,-0.63375 -2.61999,-1.155 -2.61999,-1.155 0,0 -0.92875,1.86625 -1.3075,3.23375 -1.44,5.20125 3.30249,9.69125 6.50874,13.05625 6.67125,6.99999 7.405,11.78749 5.0775,20.77874 -1.69625,6.55125 -8.75375,18.775 -17.36124,18.6025 -5.8462495,-0.11625 -8.1949995,-6.41125 -8.3162495,-12.2425 -0.0512,-2.46 0.1475,-5.50625 0.3,-7.4125 -0.0637,-4.3725 -0.635,-3.1075 -1.2225,-0.44 -0.38375001,1.74875 -0.65500001,3.59125 -0.84250001,5.3875 -0.76625,7.34 -0.38125,11.09375 0.33125,14.31125 z M 111.21883,86.76874 c -2.43125,0.79625 -3.96375,1.1575 -7.6125,1.87 -2.995,0.585 -14.887492,2.83 -14.274992,4.5375 0.085,0.24 0.45125,0.4975 0.93,0.685 -2.56125,-1.00375 20.713742,0.91625 18.554992,1.13625 1.4925,-0.1525 3.13625,-0.49875 4.7775,-0.9825 14.67375,-4.32 23.82375,-12.47625 31.90375,-26.40125 1.72375,-2.97125 1.64,-3.3875 1.3725,-6.44375 -0.34375,-3.90625 -2.00875,-10.7675 -4.6,-15.10999 -0.535,-0.8975 -3.745,-4.01375 -6.1,-6.10875 -3.7775,-3.35875 -6.9675,-2.16875 -9.9525,1.65875 -1.47875,1.895 -2.7825,4.5025 -3.20125,5.6275 -1.41125,3.79374 -2.13125,8.82749 0.3375,11.56874 0.11,0.1225 0.225,0.2375 0.34125,0.34875 3.4325,3.25125 5.06625,2.14875 9.35375,1.71 0.39875,-0.0412 0.775,-0.08 1.09625,-0.1125 -0.0975,0.01 5.315,-1.35125 5.35375,-1.37375 0.0913,-0.055 0.1625,-0.11625 0.20875,-0.18625 0.215,-0.325 -0.0125,-0.64 0.44625,-0.38625 0.275,0.1525 0.5575,0.44875 0.7975,0.81625 1.09625,1.68625 2.07125,3.51375 1.74375,5.285 -0.32625,1.765 -7.9975,8.73625 -9.26875,9.81125 -6.70625,5.665 -14.25375,9.2125 -18.07625,10.7325 l -4.13125,1.3175 z m 26.13125,-34.6025 c 0,0 -1.52625,0.0725 -2.7625,0.13 -1.6925,0.08 -7.61875,-0.94875 -7.67625,-2.60875 -0.006,-0.18125 -0.0175,-0.50125 -0.0275,-0.79 -0.0575,-1.64999 3.02125,-2.36624 4.88625,-1.2875 0.22,0.1275 0.45625,0.2575 0.71375,0.42125 1.85375,1.18 4.86625,4.135 4.86625,4.135 z m -12.225,21.83875 c 0,0 -0.0888,-0.2175 -0.0888,-0.2175 0.009,0.11125 0.03,0.16375 0.0888,0.2175 z m 24.79625,17.39625 c 8.5075,-4.71 10.475,-9.28625 12.31624,-18.66125 0.3325,-1.69375 0.50625,-3.05375 0.25,-3.2175 -0.2075,-0.1325 -0.30375,-0.0662 -0.3725,-0.3375 -0.1075,-0.42875 0.115,-1.1825 0.45625,-2.05875 1.955,-5.02 2.37125,-7.18 0.435,-11.86875 -0.23875,-0.5775 -0.52125,-1.14375 -0.79,-1.7125 l -0.90999,-1.9225 0.79749,-0.115 2.4675,-0.355 -3.43624,-4.36374 c -0.4075,-0.5175 -0.79875,-1.14375 -1.05875,-1.69125 -0.4225,-0.88375 -0.595,-1.56625 -1.13125,-2.2025 -0.715,-0.8475 -2.0775,-1.61125 -2.56375,-2.42625 -0.2375,-0.39875 -0.265,-0.81 -0.49625,-0.935 -0.71625,-0.38875 -1.805,0.52375 -2.59125,1.5025 -2.145,2.66875 -3.67,6.0975 -0.4675,9.40624 0.30125,0.31 0.60875,0.62125 0.89,0.93 0.8175,0.8975 2.775,6.12625 4.4175,10.235 l 2.55375,6.3875 -1.11,3.4625 c -0.5,1.55625 -1.1,2.93375 -1.2525,3.18875 -1.31375,2.2175 -4.3625,5.6925 -6.83875,7.67125 -3.57875,2.86125 -6.8975,3.53875 -10.22375,3.92125 -8.4825,0.97375 -12.505,-8.78125 -12.375,-13.4925 0.0412,-1.51875 0.20375,-7.42875 0.20375,-7.42875 l -2.94125,-0.125 c 0.0562,0.0875 0.105,0.1775 0.145,0.27125 0.3275,0.7725 -0.65625,3.37875 -1.14375,5.68375 -0.0738,0.35 -0.12875,0.725 -0.1675,1.12 -1.38375,13.96 4.605,19.5475 9.00625,21.7925 1.39125,0.71 3.01625,0.9575 4.64875,0.93625 5.75625,-0.0775 9.21875,-2.4525 11.2825,-3.595 z"/>
</svg>