<?xml version="1.0" encoding="UTF-8" standalone="no"?>
<!-- Created with sK1/UniConvertor (http://sk1project.org/) -->

<svg
   xmlns:dc="http://purl.org/dc/elements/1.1/"
   xmlns:cc="http://creativecommons.org/ns#"
   xmlns:rdf="http://www.w3.org/1999/02/22-rdf-syntax-ns#"
   xmlns:svg="http://www.w3.org/2000/svg"
   xmlns="http://www.w3.org/2000/svg"
   xmlns:sodipodi="http://sodipodi.sourceforge.net/DTD/sodipodi-0.dtd"
   xmlns:inkscape="http://www.inkscape.org/namespaces/inkscape"
   width="595.276pt"
   height="841.89pt"
   viewBox="0 0 595.276 841.89"
   fill-rule="evenodd"
   id="svg2"
   version="1.1"
   inkscape:version="0.48.0 r9654"
   sodipodi:docname="saad.svg">
  <metadata
     id="metadata12">
    <rdf:RDF>
      <cc:Work
         rdf:about="">
        <dc:format>image/svg+xml</dc:format>
        <dc:type
           rdf:resource="http://purl.org/dc/dcmitype/StillImage" />
      </cc:Work>
    </rdf:RDF>
  </metadata>
  <defs
     id="defs10" />
  <sodipodi:namedview
     pagecolor="#ffffff"
     bordercolor="#666666"
     borderopacity="1"
     objecttolerance="10"
     gridtolerance="10"
     guidetolerance="10"
     inkscape:pageopacity="0"
     inkscape:pageshadow="2"
     inkscape:window-width="640"
     inkscape:window-height="480"
     id="namedview8"
     showgrid="false"
     inkscape:zoom="0.24801339"
     inkscape:cx="-109.78134"
     inkscape:cy="526.18127"
     inkscape:window-x="0"
     inkscape:window-y="0"
     inkscape:window-maximized="0"
     inkscape:current-layer="svg2" />
  <path
     inkscape:connector-curvature="0"
     id="path6"
     d="m 94.9619,4.7171889 c 1.1338,-0.24 2.2096,-0.512 2.7024,-0.829 0.2351,-0.15 0.912,-1.327 0.7671,-1.875 -0.1333,-0.504 -1.395,-1.804 -1.5031,-1.874 -0.0571,-0.038 -0.1501,-0.07 -0.2714,-0.097 -3.7772,-0.847 -38.674,11.3500001 -41.8698,12.9930001 -4.4026,2.263 -8.9621,5.163 -15.2245,9.416 -2.9231,1.985 -3.335,2.734 -2.5937,6.614 0.2603,1.363 1.2393,2.46 2.9765,4.192 0.6622,0.66 1.0882,0.803 1.484,-0.038 0.5174,-1.101 0.502,-2.889 -0.2283,-3.773 -0.974,-1.179 -2.015,-1.712 -1.6834,-2.521 0.4995,-1.219 10.8552,-7.382 10.9461,-7.427 0.6575,-0.323 1.3332,-0.611 1.9532,-0.97 0.7271,-0.42 1.3776,-0.937 2.0997,-1.394 1.3437,-0.848 2.9356,-1.487 4.4576,-2.078 3.5846,-1.39 6.7815,-2.512 11.2313,-4.28 0.8076,-0.321 7.1982,-2.9680001 5.9622,-0.578 -1.8688,3.613 -9.2798,12.539 0.8797,2.009 2.3317,-1.476 4.9585,-2.9820001 6.5618,-3.7860001 3.2009,-1.606 6.8087,-2.74 11.3526,-3.704 z M 107.245,15.998189 c 2.62,-2.022 6.812,-4.462 8.259,-4.795 3.07,-0.706 3.816,0 4.107,-2.8810001 0.099,-0.975 -0.347,-2.125 -1.261,-2.088 -0.359,0.014 -0.89,0.109 -1.426,0.234 -8.384,1.967 -29.7259,10.0180001 -36.4353,15.4860001 -0.016,0.013 -0.032,0.026 -0.0478,0.039 -1.3786,1.137 -1.738,2.022 -1.75,4.436 -0.0135,2.699 1.2048,3.776 4.0479,5.597 1.0388,0.666 1.4914,0.353 1.5959,-1.094 0.0687,-0.951 -0.0486,-2.305 -0.3641,-2.736 -1,-1.367 -3.5107,-1.581 -2.422,-2.62 3.2428,-3.096 15.3205,-8.166 19.4604,-9.725 1.838,-0.692 3.343,-1.172 3.534,-0.991 0.079,0.075 0.104,0.173 0.086,0.293 -0.744,4.959 -4.348,13.152 2.616,0.845 z m -43.2186,13.798 c 0.0499,-0.086 0.0926,-0.166 0.126,-0.232 1.6222,-3.217 0.5311,-7.176 -1.3172,-9.81 -0.5469,-0.779 -3.396,-4.287 -4.8203,-3.682 -0.5853,0.249 -0.747,2.846 -0.4733,3.637 0.0939,0.272 0.2368,0.473 0.4336,0.682 2.318,2.47 3.0806,1.941 4.1179,4.081 0.5234,1.08 0.8996,2.299 0.8378,3.631 -0.0012,0.026 -0.0024,0.051 -0.0038,0.077 -0.2418,4.535 1.1553,1.519 1.0993,1.616 z m -37.133,24.421 c 5.4952,-8.918 0.7659,2.048 12.8726,3.822 0.2916,0.043 0.5645,0.067 0.8115,0.072 4.6566,0.085 10.0174,0.048 15.4629,-2.193 2.7391,-1.127 7.3467,-4.078 7.3467,-4.078 0,0 1.0619,1.214 1.7643,2.217 0.8843,1.264 1.2872,2.495 1.7291,3.77 0.8683,2.504 1.7635,2.518 4.3574,3.444 2.5101,0.896 4.8152,0.851 7.6046,0.265 0.9849,-0.207 6.1891,-2.898 6.8603,-3.547 0.46,-0.445 1.3002,-1.091 1.9514,-1.043 0.6465,0.047 1.3646,1.789 2.2445,2.637 1.9483,1.878 7.0894,0.815 9.1082,-0.377 0.7039,-0.416 2.1531,-1.706 3.0611,-1.32 0.165,0.069 0.304,0.2 0.461,0.315 0.766,0.565 11.963,5.032 12.774,4.187 0.126,-0.131 0.239,-0.287 0.352,-0.456 0.393,-0.592 0.783,-1.351 1.23,-1.988 0.538,-0.767 1.157,-1.358 1.614,-2.082 0.89,-1.412 1.488,-4.623 0.876,-6.49 -0.039,-0.119 -0.084,-0.238 -0.128,-0.357 -0.735,-1.972 -1.425,-4.055 -2.31,-6.211 -0.399,-0.972 -0.716,-1.592 -1.38,-1.367 -0.869,0.294 -2.085,2.407 -2.779,3.671 -1.171,2.129 -0.433,2.004 0.455,4.172 0.552,1.348 1.36,3.322 1.36,3.322 0.169,0.413 0.244,0.604 0.284,0.746 0.959,3.452 -8.798,-4.352 -7.956,-3.693 -1.457,-1.14 -1.774,-2.217 -3.669,-0.312 -2.322,2.333 -5.3462,3.999 -8.5703,2.745 -2.1128,-0.821 -2.8767,-1.468 -3.5999,-3.004 -1.1296,-2.398 -2.3398,-0.854 -3.6825,0.493 -0.6558,0.658 -5.9573,3.512 -6.9183,3.724 -2.9312,0.647 -7.7341,0.656 -9.8311,-1.386 -0.225,-0.219 -0.5207,-0.663 -0.8237,-1.205 -4.1142,-5.956 3.9519,-6.518 8.5703,-7.666 0.5758,-0.143 1.2208,-0.17 2.1085,0.034 0.5336,0.122 0.7482,0.171 1.0985,-0.164 1.2588,-1.203 2.0835,-5.393 1.1681,-6.402 -0.2353,-0.259 -0.4638,-0.46 -0.6187,-0.562 -0.8694,-0.572 -6.3043,-1.89 -8.0059,-2.228 -1.6591,-0.329 -8.4105,-0.485 -12.8233,-0.489 -1.5777,-0.002 -3.1596,-0.045 -4.5381,0.151 -0.3448,0.049 -0.677,0.113 -1.0266,0.183 -1.6764,0.333 -11.236,0.867 -11.7902,2.33 -0.2963,0.782 -0.6659,2.708 -0.7188,3.981 -0.0462,1.111 -0.1485,2.318 -0.1485,2.318 0,0 3.6626,0.067 5.7561,0.228 2.3313,0.179 4.9188,1.001 7.2275,1.871 0.3811,0.143 3.3526,1.288 2.857,2.111 -0.1406,0.234 -0.5443,0.41 -0.9183,0.583 -0.8095,0.377 -1.4798,0.743 -2.2118,1.029 -1.1598,0.453 -2.3561,0.785 -3.5571,1.029 -5.8473,1.187 -12.6337,1.497 -17.2042,-2.174 -1.9336,-1.553 -3.3968,-3.774 -4.3059,-5.816 -0.637,-1.431 -1.0405,-3.081 -1.6336,-4.669 -0.5966,-1.597 -3.9312,-8.281 -5.7276,-11.347 -1.7745,-3.027 -4.2945,-6.238 -5.3478,-2.798 -1.0667,3.484 -0.2257,6.767 1.5857,10.19 0.797,1.506 1.7835,2.954 2.9112,4.282 0.137,0.162 0.2668,0.305 0.3889,0.465 0.4122,0.539 1.7315,6.174 1.7651,7.54 0.0436,1.769 0.0098,2.614 -1.0149,4.102 -2.6684,3.876 -6.2338,6.701 -10.6758,8.474 -0.8057,0.321 -1.5576,0.553 -2.286,0.67 -4.9799998,0.803 -7.8586998,-3.427 -7.9260998,-7.318 -0.1091,-6.296 0.2385,-18.848 -2.09509995,-3.413 -0.4621,3.056 -0.7495,6.346 -0.6779,7.798 0.1474,2.986 1.57289995,6.617 5.02389995,8.517 10.2216998,5.627 22.8637998,-12.964 21.8585998,-11.333 z m 74.0716,-19.831 1.119,2.989 c 0,0 0.572,-0.028 0.972,-0.173 0.309,-0.112 0.787,-2.357 0.662,-3.108 -0.391,-2.355 -1.1,-3.615 -3.451,-5.777 -1.2382,-1.139 -2.1172,-1.631 -3.8135,-1.966 -1.0246,-0.202 -1.1865,0.548 -1.0436,1.616 0.1431,1.07 1.3331,2.348 2.2422,3.005 0.3297,0.239 0.6886,0.453 0.9973,0.719 0.1838,0.158 1.2203,1.444 1.6986,1.745 0.308,0.194 0.369,0.289 0.617,0.95 z m -39.6002,7.319 c 0,0 1.6601,-0.124 3.363,-0.129 2.8116,-0.01 5.74,0.302 5.74,0.302 0,0 -0.0407,0.272 -0.1368,0.493 -0.171,0.394 -1.4076,0.942 -2.4314,1.283 -1.4817,0.493 -2.3497,1.226 -2.9555,0.995 -1.0706,-0.407 -3.5793,-2.944 -3.5793,-2.944 z m 29.3722,27.883 0.1214,1.387 c 0,0 -0.4767,-0.103 -0.7482,-0.232 -0.2202,-0.103 -0.3056,-0.224 -0.4261,-0.343 -0.7788,-0.768 -2.6715,-1.44 -3.257,-1.157 -0.4129,0.199 -0.8204,0.777 -1.2125,1.212 -0.3418,0.38 -0.6719,0.651 -1.2744,0.953 -0.9094,0.454 -2.4395,0.976 -2.4395,0.976 0,0 -0.8519,-1.548 -1.4748,-2.275 -1.3904,-1.623 -4.2019,-1.524 -6.4887,-1.155 -1.717,0.276 -2.644,0.433 -4.1618,1.068 -1.5629,0.654 -3.0488,1.553 -4.6112,2.194 -4.7257,1.937 -17.7222,2.43 -22.5611,1.992 -5.3738,-0.487 -7.4484,-1.829 -13.4859,-3.927 -0.4465,-0.155 -0.9242,-0.335 -1.38,-0.523 -0.5519,-0.228 -3.6369,-2.239 -3.696,-1.127 -6e-4,0.012 -0.0012,0.024 -0.0018,0.036 -0.0946,2.022 10.3746,7.423 11.9356,7.919 6.1652,1.959 15.7755,1.723 19.243,1.316 0.1233,-0.014 7.6121,-1.074 9.238,-1.748 0.8509,-0.352 1.6189,-0.901 2.4865,-1.316 0.5207,-0.249 1.0773,-0.449 1.6124,-0.682 3.7391,-1.624 4.4858,-2.269 8.2454,-1.71 1.585,0.235 1.6322,0.696 2.8236,2.435 0.7537,1.101 1.3365,1.171 2.8199,0.666 0.6605,-0.225 1.2694,-0.496 1.8181,-0.968 1.3524,-1.162 1.4663,-1.825 2.6552,-1.445 0.9947,0.318 3.4736,1.83 4.2722,2.455 1.1474,0.899 1.7813,0.252 2.4359,-1.41 0.2067,-0.525 0.4337,-1 0.5462,-1.528 0.1222,-0.573 0.0379,-5.391 -1.0014,-6.526 -0.8454,-0.922 -1.3799,1.047 -1.7931,2.045 -0.2705,0.654 -0.2945,0.796 -0.2399,1.418 z m -86.9038998,-59.274 c -0.2853,1.807 0.2536,2.111 0.9511,2.96 1.1295,1.375 2.0086,7.196 1.8235,9.008 -0.3275,3.206 -2.8627,8.097 -2.7746,10.276 0.0985,2.438 1.7391,4.866 4.288,6.263 2.2031998,1.208 4.7375998,-1.625 5.2969998,-5.087 0.2815,-1.741 -0.6663,-3.423 -2.0813,-4.134 -1.6120998,-0.809 -3.5394998,-0.866 -4.2245998,-1.812 -0.3194,-0.44 0.6319,-4.626 1.2824,-7.768 0.7622,-3.681 0.2215,-7.338 -1.2824,-10.5960001 -0.4897,-1.06 -1.0971,-2.133 -1.6012,-2.173 -0.4398,-0.035 -1.448,1.606 -1.6779,3.0630001 z M 39.2216,7.8451889 c 0,0 3.8235,-1.249 5.3392,-0.904 0.7995,0.182 1.6265,1.621 2.1455,2.723 0.942,2.0010001 1.8498,4.5780001 2.1946,6.6240001 0.1148,0.681 0.2393,1.309 0.9401,1.549 0.4413,0.15 1.1133,0.16 1.1133,0.16 0,0 0.0018,-0.011 0.0054,-0.031 0.3347,-1.886 1.0799,-5.048 1.2701,-6.955 0.1999,-2.0030001 0.1549,-2.6980001 1.8607,-2.5710001 2.5771,0.191 3.4527,0.646 4.5853,-1.411 1.0157,-1.845 2.1295,-5.61 0.3559,-6.831 -5.486,-1.478 -7.5337,5.74 -7.8775,7.392 -0.4854,2.333 -0.6886,4.8340001 -0.6886,4.8340001 0,0 -1.3438,-4.3190001 -2.3324,-6.6530001 -1.1117,-2.624 -3.9817,-6.159 -7.0777,-5.275 -1.5383,0.438 -2.0789,1.696 -2.0778,3.361 9e-4,1.533 0.2439,3.988 0.2439,3.988 z M 23.2414,13.502189 c -0.0217,0.017 -0.0432,0.033 -0.0645,0.05 -0.9677,0.747 -2.3426,2.766 -1.8394,3.319 0.5138,0.565 2.6854,-0.463 3.4434,-1.109 1.5032,-1.28 4.9683,-7.4250001 4.2337,-9.4640001 -1.2235,-3.395 -6.7032,-2.106 -8.4149,0.221 -0.128,0.173 -0.2605,0.417 -0.3895,0.704 -1.9112,8.6590001 -0.8439,3.4430001 2.1676,3.3080001 2.9162,-0.13 6.2995,-1.2160001 0.8636,2.971 z"
     style="fill:#000000;stroke:none" />
</svg>
