<?xml version="1.0"?>
<svg xmlns="http://www.w3.org/2000/svg" version="1.1">
  <path
     d="m 42.207,78.848645 4.708,4.708 5.8,-5.799 -5.8,-5.8 -4.708,4.708 -4.709,-4.708 -5.799,5.8 5.799,5.799 4.709,-4.708 z m 53.42,-51.411 0.002,6.124 c 5.877,-7.959 20.016,-18.236 27.982,-21.055 0.793,-0.281 1.591,-0.527 1.779,-0.271 0.094,0.128 0.038,0.38 -0.06,0.669 -0.229,0.678 -0.627,1.514 -1.072,2.412 -9.242,18.636 5.744,-7.4970002 10.761,-8.8070002 0.438,-0.289 0.853,-0.529 1.226,-0.7 1.907,-0.874 4.04,-1.276 4.062,-3.211 0.004,-0.272 -0.033,-0.605 -0.082,-0.927 -0.477,-3.106 -5.377,-0.97800002 -8.791,0.835 -3.16,1.677 -7.826,4.374 -12.75,7.446 -4.759,2.9700002 -16.607,10.3780002 -23.057,17.4850002 z m 23.637,0 0.001,6.124 c 5.877,-7.959 20.017,-18.236 27.983,-21.055 0.793,-0.281 1.59,-0.527 1.779,-0.271 0.094,0.128 0.037,0.38 -0.06,0.669 -0.23,0.678 -0.627,1.514 -1.073,2.412 -9.241,18.636 5.745,-7.4970002 10.762,-8.8070002 0.438,-0.289 0.852,-0.529 1.225,-0.7 1.907,-0.874 4.04,-1.276 4.063,-3.211 0.003,-0.272 -0.033,-0.605 -0.083,-0.927 -0.477,-3.106 -5.377,-0.97800002 -8.791,0.835 -3.16,1.677 -7.826,4.374 -12.749,7.446 -4.759,2.9700002 -16.607,10.3780002 -23.057,17.4850002 z m -48.524,53.417 c -0.407,2.543 0.088,3.167 1.779,2.387 1.151,-0.531 9.308,-5.405 11.478,-7.992 0.873,-1.042 1.744,-2.885 2.052,-4.543 0.19,-1.022 -0.117,-0.985 -1.217,-0.577 -2.549,0.948 -12.657,7.411 -13.184,8.336 -0.491,0.863 -0.807,1.758 -0.908,2.389 z m 0.877,-58.154 c 2.886,2.536 7.081,3.856 8.734,1.38 1.072,-1.606 2.819,-4.955 2.819,-4.955 0,0 -1.775,-2.681 -3.256,-3.834 -0.996,-0.774 -2.895,-1.098 -4.018,-0.488 -0.991,0.538 -2.148,2.095 -2.776,1.458 -0.39,-0.396 0.072,-1.959 0.636,-3.423 0.955,-2.479 5.231,-7.8620002 0.01,-12.45000022 -0.022,-0.008 -0.045,-0.014 -0.068,-0.019 L 72.895,6.4477652e-4 72.054,0.53064478 c -1.312,0.39 -1.061,3.45900002 -0.633,3.87800002 0.233,0.227 0.565,0.903 0.881,1.515 0.7,3.641 0.137,6.7660002 -1.289,10.2440002 -0.57,1.39 -0.985,2.808 -0.78,4.36 0.129,0.975 0.267,1.192 1.384,2.173 z m -12.051,36.721 c 0,0 0.529,-1.218 0.848,-2.184 0.54,-1.629 0.453,-2.806 0.24,-4.492 -0.593,-4.702 -1.506,-15.353 -1.506,-15.353 0,0 1.637,-0.184 2.888,-0.151 3.384,0.088 4.37,1.682 6.15,-0.096 1.158,-1.158 2.195,-5.26 1.454,-6.792 -0.848,-1.752 -3.719,-2.596 -5.039,-1.166 -0.609,0.659 -0.956,1.7 -1.653,2.385 -1.078,1.061 -2.995,1.271 -3.944,2.156 -1.626,1.516 -1.844,12.105 -1.545,14.613 0.505,4.232 2.107,11.08 2.107,11.08 z m 50.302,-42.665 -0.145,-3.31 c -0.058,-1.338 -0.039,-1.578 0.194,-2.398 0.172,-0.608 0.354,-1.2740002 0.815,-1.7020002 1.125,-1.045 3.909,-0.684 5.2,-1.544 1.859,-1.239 1.86,-5.494 0.43,-7.21900002 -1.517,-1.82899998 -4.583,1.07600002 -5.839,2.73800002 -0.772,1.021 -1.503,2.19 -1.831,3.556 -0.153,0.633 -0.237,1.351 -0.356,1.98 l -0.583,3.0790002 -1.927,-2.4510002 c -2.637,-3.473 -1.832,-4.505 -5.707,-5.449 -1.298,-0.317 -4.114,-0.198 -4.655,1.263 -0.423,1.144 0.571,3.925 1.194,4.586 0.478,0.5080002 2.417,1.7680002 3.218,1.8460002 1.309,0.126 3.983,-0.671 3.983,-0.671 0,0 2.158,3.107 3.477,4.566 0.575,0.636 1.051,1.149 1.788,1.163 0.305,0.006 0.744,-0.033 0.744,-0.033 z m 0.584,35.13 0.577,-0.01 c 0.26,-0.004 0.33,-0.162 0.697,-1.58 2.111,-8.151 2.497,-12.652 -2.697,-17.88 -0.856,-0.861 -1.852,-1.583 -2.494,-0.812 -0.436,0.524 -0.881,4.219 -0.682,5.026 0.347,1.412 1.377,1.87 2.565,2.828 2.685,2.164 3.358,3.788 3.016,6.671 -0.262,2.212 -0.982,5.757 -0.982,5.757 z m -1.43,27.718 c 0.155,2.135 1.151,3.463 2.964,3.847 2.338,0.494 3.66,-0.774 4.259,-3.339 0.132,-0.562 0.102,-1.031 -0.26,-1.258 -0.689,-0.43 -2.58,0.017 -3.495,-0.469 -1.138,-0.604 -1.427,-3.173 -1.145,-4.374 0.281,-1.202 0.999,-2.49 1.195,-3.416 0.04,-0.188 0.058,-0.361 -0.024,-0.457 -0.01,-0.012 -0.021,-0.024 -0.031,-0.034 -2.752,-0.628 -3.421,10.076 -3.463,9.5 z m -38.339,-20.809 0.514,3.836 -3.597,0 c 0,0 -0.075,-1.045 0,-1.83 0.082,-0.871 1.062,-1.933 1.85,-2.006 0.547,-0.051 1.233,0 1.233,0 z M 0,56.073645 c 0,0 0.263,6.337 0.263,6.337 0,0 0,0.006 0.01,0.24 0.31,7.497 0.8,19.283 10.739,20.248 0.135,0.008 0.269,0.012 0.404,0.012 0.315,0 0.342,0 0.342,0 1.388,0 1.602,-0.049 2.141,-0.482 1.484,-1.192 3.121,-5.005 3.595,-6.095 1.382,-3.185 2.714,-6.569 3.597,-9.865 0.716,-2.676 1.757,-10.676 5.91,-10.962 0.428,-0.029 1.028,0 1.028,0 l 0.439,9.692 c 0.067,1.478 0.094,1.706 0.266,2.28 1.474,4.896 9.399,4.884 12.327,4.47 1.889,-0.267 3.849,-0.811 5.519,-1.841 l 3.217,-2.037 2.414,1.52 c 0.179,0.112 0.36,0.229 0.544,0.344 2.21,1.386 10.978,0.854 12.856,-0.497 0.469,-0.339 0.957,-0.606 1.53,-0.607 3.652,-0.004 7.392,1.918 7.716,1.716 0.454,-0.283 0.672,-1.975 1.331,-2.385 0.735,-0.456 1.697,-1.055 1.697,-1.055 0,0 0.153,0.163 0.501,0.531 4.405,2.541 7.841,0.671 10.599,-1.329 0.836,-0.559 1.181,-0.794 1.181,-0.794 l 1.162,0.975 c 0.449,0.376 0.931,0.891 1.517,1.399 2.405,2.087 11.631,4.703 14.84,0.48 l 2.134,-2.605 4.34,1.597 c 1.907,0.702 2.483,2.037 4.667,1.3 0.886,-0.299 1.766,-0.896 2.575,-1.4 l 1.764,-1.097 2.388,1.504 c 3.588,2.26 4.237,1.687 9.053,2.14 0.04,0.003 0.046,0.004 0.046,0.004 0,0 3.098,-5.404 3.867,-8.451 0.465,-1.845 -0.951,-8.967 -2.909,-10.238 -1.338,-0.87 -3.134,0.721 -3.609,3.367 -0.146,0.817 -0.163,1.039 -0.163,2.222 0,0 0,2.632 0,2.632 0,0 0.923,0 1.193,0 -0.171,0 0.863,2.238 0.863,2.055 0,0.4 0,0.685 0,0.685 0,0 -0.093,0.017 -0.246,0.04 -1.492,0.23 -4.542,-0.919 -5.759,-2.221 -0.162,-0.173 -0.302,-0.361 -0.419,-0.559 -0.497,-0.842 -0.573,-1.861 -0.989,-2.508 -0.383,-0.596 -1.485,-0.723 -2.012,-0.232 -1.251,1.162 -2.395,4.932 -2.395,4.932 l -3.094,0 c -1.387,0 -1.63,-0.017 -2.423,-0.17 -1.557,-0.3 -2.194,-0.751 -2.647,-1.285 l -1.676,-1.976 -1.694,1.399 c -1.41,1.164 -2.874,3.135 -3.502,3.653 -2.83,2.336 -7.911,0.691 -11.687,-2.443 -3.489,-2.896 -3.52,-9.384 -4.111,-16.168 -1.245,-14.265 -0.822,-31.631 -6.424,-43.84500022 -0.108,-0.234 -0.202,-0.427 -0.509,-0.524 -3.66,-1.166 -3.072,3.73500002 -2.975,6.63900002 0.006,0.168 0.013,0.33 0.022,0.483 0.166,2.8460002 1.636,6.6130002 2.434,9.2960002 1.074,3.613 4.276,25.313 5.91,38.583 0.906,7.364 -1.238,6.973 -9.258,5.997 -1.381,-0.168 -1.54,-0.211 -1.592,-0.424 -0.033,-0.134 -0.084,-0.26 -0.152,-0.38 -5.132,-9.093 -8.461,-8.893 -9.856,-7.885 -1.462,1.056 -2.537,2.562 -3.267,3.898 -1.037,1.897 -1.455,4.349 -1.582,4.856 -0.393,1.577 -0.867,2.588 -2.723,3.036 -2.616,0.632 -5.552,0.462 -6.516,-1.644 -1.034,-2.259 -0.754,-5.069 -2.599,-3.546 -0.694,0.573 -1.382,1.699 -2.214,2.463 -2.765,2.539 -11.175,4.496 -13.523,3.823 -2.647,-0.757 -6.018,-5.662 -6.332,-8.944 -0.226,-2.369 0.872,-7.263 -1.367,-8.594 -3.529,-2.098 -7.783,5.246 -9.168,8.221 -2.518,5.411 -3.991,14.412 -6.167,18.086 -0.986,1.666 -2.067,2.436 -3.345,2.322 -4.127,-0.414 -6.762,-7.388 -8.334,-13.629 L 0,56.073645 z m 33.353,1.67 0.626,-0.011 c 0.281,-0.005 0.357,-0.176 0.754,-1.713 2.289,-8.834 2.707,-13.712 -2.923,-19.378 -0.926,-0.933 -2.007,-1.716 -2.702,-0.88 -0.472,0.568 -0.955,4.573 -0.739,5.447 0.376,1.53 1.492,2.026 2.78,3.065 2.909,2.346 3.639,4.105 3.269,7.23 -0.285,2.398 -1.065,6.24 -1.065,6.24 z m -22.705,-5.945 -5.131,5.097 c -0.852,0.847 -0.974,0.999 -1.212,1.521 -0.334,0.73 -0.45,1.952 -0.286,2.117 0.532,0.537 2.411,-0.765 3.065,-1.247 5.727,-4.224 8.336,-6.885 9.263,-12.354 0.47,-2.781 -1.002,-3.856 -3.607,-4.211 -4.132,-0.563 -8.233,0.013 -9.838,3.124 0.251,11.879 0.603,5.086 4.108,4.243 3.898,-0.939 8.09,-3.022 3.638,1.71 z"
     style="fill:#000000;stroke:none" />
</svg>
