<?xml version="1.0" encoding="UTF-8" standalone="no"?>
<svg>
  <path
     d="m 24.020943,35.735567 c 0.25499,-0.2525 0.62124,-0.445 1.09249,-0.5625 1.5275,-0.385 4.1575,0 4.1575,0 0,0 0.9,-3.6975 0.5675,-5.47875 -0.3725,-1.98874 -3.81125,-2.13249 -5.66625,-0.68124 -2.37249,1.85749 -3.62624,9.92748 -2.83249,12.42373 0.22,0.69125 0.5575,1.3175 1.00375,1.81875 0.16375,0.18375 0.34125,0.34875 0.525,0.52125 l 1.30374,1.2125 0.6975,1.96249 c 0.29,0.81625 0.47625,1.51875 0.47625,1.51875 0,0 5.3,-3.46499 7.04125,-5.67249 0.77249,-0.9775 0.84624,-1.70875 1.13374,-2.9325 0.52125,-2.21749 1.30375,-4.29999 0.85,-4.69249 -0.3775,-0.3275 -1.47,-0.17375 -2.33249,0.32625 -1.275,0.73875 -2.045,2.23625 -4.08125,2.60625 -0.5675,0.1025 -1.23375,0.11874 -1.8125,0.1025 -4.44749,-0.71 -0.95,-3.63625 -2.12374,-2.4725 z m 36.94745,2.82374 -5.89374,6.0625 c -0.98,1.00625 -1.11875,1.1875 -1.3925,1.8075 -0.38375,0.86874 -0.51625,2.32124 -0.32875,2.51874 0.61125,0.6375 2.76875,-0.91 3.52,-1.48375 6.57999,-5.02249 9.57624,-8.18749 10.63998,-14.69123 0.54125,-3.30624 -1.14999,-4.58624 -4.14124,-5.00749 -4.7475,-0.67 -9.45749,0.015 -11.30249,3.71499 0.28875,14.12624 0.69375,6.04875 4.71875,5.045 4.47874,-1.115 9.29374,-3.59375 4.17999,2.03374 z m 9.88124,-18.48872 -0.5475,-10.8137401 c -0.0813,-1.60375 -0.1125,-1.88375 -0.31875,-2.79125 -0.63375,-2.78624 -2.3375,-4.31124 -4.11874,-5.29624 -2.265,-1.25249996 -3.9925,-1.71749996 -6.3275,0.045 -1.91874,1.45 -2.09999,6.69874 -1.34499,7.51999 0.56249,0.6125 2.05374,0.5575 3.85999,0.11875 4.50875,-1.09625 4.96124,-0.84375 6.13499,4.0924901 0.55875,2.34625 0.625,4.545 0.35,6.90375 -0.5825,5.01124 -1.95249,7.44874 0.73125,10.38998 1.1175,1.22375 2.285,1.41 4.83375,0.86625 1.80999,-0.38625 2.16999,-1.2575 2.92874,-3.85374 0.535,-1.8275 0.9575,-3.46375 0.82,-5.28625 -0.27125,-3.61499 -4.04624,-10.40998 0.50375,-12.0987301 0.84,-0.31125 1.93125,-0.1075 2.8725,0.105 1.26875,0.2862501 1.485,0.1562501 2.15375,-1.29875 0.55,-1.195 1.18499,-2.295 1.53499,-3.5825 1.31375,-4.83123996 -0.6975,-6.19374 -4.73124,-4.21498996 -4.62624,2.26999996 -6.70499,11.99498006 -5.71624,18.51498006 0.3025,2.68749 0.63375,5.10749 0.63375,5.10749 0,0 -0.27625,-0.004 -0.60625,-0.0375 -1.295,-0.13125 -3.52,-1.9125 -3.64625,-4.38999 z m 16.50998,7.12124 -6.32999,6.55249 6.32999,6.55249 6.32874,-6.55249 -6.32874,-6.55249 z m 0,20.27997 4.815,4.985 6.32874,-6.55249 -6.32874,-6.5525 -4.815,4.985 -4.81499,-4.985 -6.33,6.5525 6.33,6.55249 4.81499,-4.985 z m -27.94122,36.55246 4.815,4.985 6.32874,-6.5525 -6.32874,-6.55249 -4.815,4.98375 -4.81499,-4.98375 -6.32874,6.55249 6.32874,6.5525 4.81499,-4.985 z m 19.22373,1.82 c -1.13375,2.62375 -0.7925,3.44 1.18625,3.0875 1.34625,-0.24 19.22248,-5.25875 22.203717,-7.42 1.20125,-0.87124 2.6225,-2.60624 3.40625,-4.30374 0.4825,-1.04625 0.1525,-1.09625 -1.10625,-0.97375 -2.91875,0.285 -23.269967,6.45249 -24.076217,7.29624 -0.75375,0.78875 -1.33125,1.6625 -1.61375,2.31375 z M 15.09845,75.345517 c 3.166243,0.415 6.164993,0.45625 8.008743,0.3075 2.81249,-0.22625 15.02873,-3.64374 17.65623,-6.53124 1.06874,-1.17375 1.38624,-2.19875 2.16749,-2.055 1.02375,0.18875 1.555,2.92875 2.855,4.32 0.56375,0.6025 5.26499,1.29499 7.76874,1.14499 2.89625,-0.17374 7.01999,0.19875 8.02249,-0.79749 0.44375,-0.4425 2.2325,-7.23875 3.68375,-6.1 0.54875,0.43 0.92375,2.10625 1.59125,3.0575 1.94999,2.7725 11.32873,3.1275 13.71873,2.8375 0.85625,-0.10375 1.63125,-0.30375 2.46,-0.81625 1.98874,-1.23 3.77124,-3.6925 4.99749,-3.19625 0.47625,0.1925 0.96875,0.81375 1.595,1.27875 1.595,1.1875 5.54124,1.80375 7.00999,1.415 3.09125,-0.82 4.749987,-2.86375 5.796237,-1.64875 0.0288,0.0325 0.2125,0.12125 0.52125,0.25375 4.33125,1.85375 16.89123,9.36999 19.75498,2.41375 1.63,-2.34625 3.09375,-5.13375 3.44375,-6.345 1.05624,-3.65874 0.0238,-9.92998 -1.4725,-13.69498 -1.3825,-3.4775 -3.89375,0.96 -6.31499,4.78999 -1.15625,1.8275 -1.44,2.16375 -1.2425,3.6775 0.1125,0.8525 0.31125,1.955 0.7875,2.455 0.315,0.33125 0.75249,0.39875 1.04249,0.71375 0.42,0.455 0.53,1.42999 0.2425,1.83374 -0.86499,1.215 -2.95124,-1.86249 -4.02124,-2.75499 -1.52375,-1.2725 -4.57375,-1.9575 -5.0275,-3.59125 -0.44249,-1.59125 0.885,-4.48874 -1.24749,-3.23874 -0.89,0.52249 -1.71375,1.91249 -2.7325,2.87874 -2.565,2.43125 -5.45874,2.57875 -8.701237,2.47125 -1.21,-0.04 -2.34,-0.0275 -3.19125,-0.71375 -1.46375,-1.18 -1.89249,-3.485 -3.22624,-2.77 -0.83625,0.4475 -1.715,2.11125 -2.73375,2.8775 -2.375,1.78625 -8.34499,1.67625 -10.08874,1.4675 -2.155,-0.2575 -5.90124,-0.74375 -7.06499,-2.44375 -1.01375,-1.48 -2.70625,-12.28998 -5.09624,-7.62124 -0.585,1.1425 -0.635,2.92375 -1.17125,4.135 -0.4775,1.07624 -1.3375,1.70374 -1.43875,3.11124 -0.1,1.40625 0.5575,3.59 0.5575,3.59 l -5.95499,0.52 c -1.33625,0.11625 -1.635,0.1225 -2.98,0.0625 -2.33625,-0.1025 -5.33499,-0.9475 -6.24624,-2.365 -0.7175,-1.11625 -1.7925,-8.42124 -1.89375,-9.20249 -0.9875,-7.67624 0.31875,-26.72122 -0.6475,-33.32371 -0.2025,-1.3875 -0.48625,-2.63125 -0.69125,-4.69 -0.2825,-2.83999 -0.4175,-7.2312401 -0.4175,-7.2312401 0,0 -0.96875,0.0588 -1.5375,0.25375 -1.135,0.3875 -3.30624,5.7137501 -3.71624,6.7524901 -0.50875,1.2875 -0.555,1.58375 -0.4725,2.97 l 2.67499,44.76745 c 0,0 -3.09874,1.75 -5.41749,2.75125 -6.16749,2.66249 -13.70248,3.07499 -19.98123,1.70374 -8.8687427,-1.93874 -11.9462327,-9.72998 -11.9962327,-12.71998 -0.0213,-1.2725 -0.05,-2.945 -0.07,-4.12625 -1.06625,-3.49749 -2.05,-1.56874 -2.85125,2.195 -1.83374998,8.60249 -4.36749,16.64373 4.375,22.56872 3.28749,2.22875 7.1474897,2.17125 8.9137397,2.4025 z"
     style="fill:#000000;stroke:none" />
</svg>
