<?xml version="1.0" encoding="UTF-8" standalone="no"?>
<svg>
  <path
     style="fill:#000000;stroke:none"
     d="m 177.42874,91.019938 c 0.21375,2.94626 1.58876,4.77876 4.08876,5.30751 3.22625,0.6825 5.05,-1.06625 5.87751,-4.60625 0.18125,-0.77626 0.14,-1.42251 -0.35875,-1.73501 -0.95126,-0.59375 -3.56126,0.0225 -4.82251,-0.6475 -1.57,-0.83375 -1.96875,-4.37875 -1.58125,-6.035 0.38875,-1.65876 1.38,-3.43501 1.65,-4.71376 0.0537,-0.25875 0.0788,-0.4975 -0.0337,-0.63 -0.0138,-0.0175 -0.0275,-0.0325 -0.0425,-0.0475 -3.79625,-0.865 -4.72001,13.90252 -4.77751,13.10751 z m -44.08755,2.28126 c -0.4775,2.985 0.10375,3.71875 2.08875,2.8025 1.35125,-0.62375 18.78753,-10.76751 21.33503,-13.80502 1.02625,-1.22375 2.04875,-3.3875 2.41,-5.33375 0.2225,-1.19875 -0.1375,-1.15625 -1.42875,-0.67625 -2.9925,1.1125 -22.72003,13.12126 -23.33878,14.20626 -0.5775,1.01376 -0.9475,2.06501 -1.06625,2.80626 z m -90.255108,-2.28126 c 0.21375,2.94626 1.58875,4.77876 4.09001,5.30751 3.225,0.6825 5.05,-1.06625 5.87625,-4.60625 0.18125,-0.77626 0.14125,-1.42251 -0.35875,-1.73501 -0.95,-0.59375 -3.56,0.0225 -4.8225,-0.6475 -1.57001,-0.83375 -1.96876,-4.37875 -1.58001,-6.035 0.38875,-1.65876 1.37876,-3.43501 1.64876,-4.71376 0.055,-0.25875 0.08,-0.4975 -0.0325,-0.63 -0.015,-0.0175 -0.0288,-0.0325 -0.0437,-0.0475 -3.79626,-0.865 -4.72001,13.90252 -4.77751,13.10751 z m 43.8663,-42.7088 7.71001,-7.71001 -7.71001,-7.70876 -7.70876,7.70876 7.70876,7.71001 z m -6.26875,42.80506 5.35625,5.3575 7.70876,-7.71001 -7.70876,-7.70876 -5.35625,5.35626 -5.35751,-5.35626 -7.70876,7.70876 7.70876,7.71001 5.35751,-5.3575 z m 93.743858,-47.87756 5.35626,5.35625 7.71001,-7.70876 -7.71001,-7.70876 -5.35626,5.35626 -5.35626,-5.35626 -7.71001,7.70876 7.71001,7.70876 5.35626,-5.35625 z m 0.195,-8.74251 7.71001,-7.70876 -7.71001,-7.71001 -7.70876,7.71001 7.70876,7.70876 z m -96.508868,32.12254 c 0,0 -0.42875,-0.0763 -0.61875,0 -0.1775,0.07 -0.15,0.2725 -0.21,0.41 -0.10375,0.2375 -0.46625,0.28 -0.78125,0.20875 -0.525,-0.1175 -2.13625,-2.10001 -2.4875,-3.06251 -0.215,-0.58875 -0.23875,-0.7375 -0.23875,-1.48 l 0,-1.6525 1.38,0 c 0.62,0 0.77625,0.0875 1.55375,0.875 0.5775,0.58375 1.18875,1.03875 1.4025,2.01125 0.23,1.04625 0,2.69001 0,2.69001 z m -73.1100899,-13.63127 0,-6.81501 -0.9925,0 c -0.445,0 -0.55375,0.17625 -1.08375,1.76625 -1.98000002,5.94126 -2.75375002,17.10127 -0.7125,24.25628 0.6,2.1 1.97875,4.76751 1.54875,6.31876 -0.3625,1.31375 -1.95625,2.55375 -2.78750002,4.21375 -0.54625,1.09126 -1.14875,3.87001 -0.93,4.33751 0.26375,0.56125 1.56500002,0.61875 2.69000002,0 1.62,-0.8925 3.35876,-3.155 3.35876,-3.155 0,0 1.4725,2.95875 2.93625,5.01375 2.3674999,3.32376 10.1950099,8.37501 14.3612699,7.43501 3.02625,-0.68375 6.27,-3.81125 7.32376,-5.57626 1.89375,-3.17375 3.17125,-16.55877 5.88625,-22.92502 2.00625,-4.70626 5.26626,-9.91377 5.26626,-9.91377 0,0 1.14625,7.01251 2.16875,10.84377 1.93625,7.25376 6.23376,10.52126 14.37377,11.46126 1.37375,0.15875 2.66375,0.22625 4.09,0 3.54251,-0.56 8.08376,-2.89875 10.96627,-2.4775 1.415,0.20625 2.53875,1.02125 4.0275,1.54875 4.27001,1.5125 20.29003,1.4475 24.163778,-1.24 3.38376,-2.3475 6.70001,-12.01502 6.81501,-13.63002 0.13625,-1.90375 -2.275,-10.99251 -4.0275,-15.18002 -0.81501,-1.94875 -1.46376,-3.6575 -3.03626,-3.0975 -2.453748,0.8725 -3.123748,6.69501 -2.703748,9.25876 0.22875,1.39125 0.68125,2.88501 1.483748,4.96376 1.275,3.3 3.43375,8.07501 3.43375,8.07501 0,0 -3.772498,1.3925 -7.937508,1.86625 -6.18625,0.7025 -13.23501,-0.62 -13.23501,-0.62 0,0 -0.0387,-0.79125 0,-1.4875 0.12375,-2.23126 1.33375,-3.84251 1.85875,-5.31501 1.27125,-3.56625 -1.345,-7.68126 -4.0275,-11.16501 -1.88626,-2.45126 -3.20001,-2.79876 -4.95626,-0.62 -1.47625,1.83125 -3.05125,4.3 -3.7175,6.815 -2.48001,9.36002 1.12125,11.69252 -7.12501,12.39252 -3.56251,0.30125 -9.98752,-0.8575 -13.01127,-3.4075 -1.58875,-1.34001 -3.45,-4.95376 -4.0275,-7.12626 -1.07376,-4.04251 -0.70126,-15.29252 -6.09626,-13.63002 -3.73626,1.15125 -8.60001,11.65126 -9.70376,14.56002 -2.30001,6.06376 -3.38251,14.15502 -5.26626,19.51627 -1.19625,3.40626 -4.77501,6.92626 -8.73626,6.19626 -1.65875,-0.30625 -8.4662599,-4.83626 -8.9212599,-6.69126 -0.45375,-1.84625 4.0512499,-8.36251 4.2674999,-8.51501 2.24751,-1.57625 5.63751,-1.3475 8.12376,-2.1425 2.36876,-0.75625 4.47626,-3.13751 4.33751,-6.50501 -0.14375,-3.48 -5.03126,-9.07376 -8.67501,-10.53251 -1.6475,-0.66125 -8.0137599,-1.91375 -9.3287599,-0.6025 -0.53,0.53 -0.73875,1.43 -1.82376,1.53125 -0.28,0.0263 -0.61875,0 -0.61875,0 z M 119.42367,48.409888 c 0,0 -1.26125,2.12251 -1.96625,3.74501 -2.38875,5.49875 0.0562,16.79377 2.47875,21.68502 1.49376,3.01626 2.84626,4.54126 2.16876,6.40751 -2.31376,6.36876 -18.30628,13.56502 -23.235028,15.27877 -6.02501,2.09375 -12.58752,3.983756 -18.96127,5.710002 -1.61501,0.43625 -1.80001,0.535 -1.85126,0.98 -0.25625,2.24875 2.67751,2.58625 5.06251,3.3825 11.54251,3.85376 18.685018,-0.59375 30.310038,-6.665002 2.46,-1.285 12.39876,-9.76626 12.70501,-10.84251 0.58125,-2.04375 0.2875,-4.3475 0.67125,-6.54251 0.15625,-0.895 0.425,-1.77125 0.5275,-3.005 0.21125,-2.53 -0.2725,-6.56251 -0.2725,-6.56251 0,0 6.45251,1.92 10.40877,2.47875 3.9275,0.55376 10.09751,-0.41625 13.75501,-2.16875 0.9325,-0.44625 7.24751,-5.09125 8.88501,-4.64625 0.86375,0.23375 1.5075,1.51125 2.50751,2.50375 3.31375,3.29 8.90001,3.02625 12.77126,0.90375 3.17251,-1.74 4.23251,-3.625 6.27126,-3.07 2.63375,0.71625 6.53001,5.25875 9.21876,5.8575 3.6575,0.81626 9.20501,-7.77376 9.91251,-11.97001 0.69,-4.09001 -2.29,-10.24501 -4.33625,-14.36127 -0.705,-1.4175 -1.41,-2.41625 -2.69001,-1.55 -1.88,1.27375 -3.3175,7.45376 -2.88625,9.54251 0.57125,2.77001 3.81,7.92876 0.37125,6.56751 -4.24375,-1.68125 -5.94376,-7.06001 -8.44626,-5.25751 -0.58625,0.42125 -1.1775,1.21875 -1.79875,1.90376 -3.93876,4.345 -11.75502,5.3575 -15.66877,0.1325 -1.5975,-2.13126 -1.91125,-3.93376 -3.78876,-2.97501 -1.1475,0.58625 -2.18125,2.2 -3.5075,3.40751 -4.88376,4.44875 -13.18002,5.3175 -19.02127,4.6475 -6.25751,-0.71875 -9.02251,-1.68875 -13.04377,-6.70251 -2.71125,-3.38125 -6.55126,-8.81501 -6.55126,-8.81501 z m -60.475068,3.27001 c 0.72875,2.495 -0.615,4.73625 -1.23875,6.92626 -0.1125,0.395 -0.15125,0.71375 0,0.93 0.305,0.43625 1.385,0.45125 2.06875,0 2.0925,-1.38126 2.6075,-8.53251 2.2675,-10.78127 -0.8475,-5.60875 -3.38125,-11.61376 -7.84376,-14.00251 -1.11375,-0.59625 -2.10875,-0.62 -2.68875,0 -1.2775,1.36375 -1.27875,7.46751 1.23875,8.88126 1.595,0.895 2.40751,0.5125 3.40751,1.65125 1.20625,1.3725 2.3,4.72126 2.78875,6.39501 z m 90.885108,3.2975 c 0,0 0.96875,0.1025 1.4875,0 0.965,-0.19125 1.4425,-2.88 1.61125,-3.705 1.05751,-5.19251 -0.055,-12.69252 -2.78875,-16.12252 -0.84375,-1.05875 -2.0025,-2.13126 -2.7875,-3.09751 -0.4525,-0.555 -0.78,-1.075 -1.64875,-1.23875 -0.80376,-0.1525 -2.06876,0 -2.06876,0 0,0 -0.4925,3.49876 0,5.99751 0.5525,2.81 3.81876,5.30626 5.26626,8.25251 0.39125,0.79875 0.665,1.70375 0.77,2.61 0.14375,1.22 0.15875,1.54125 0.15875,3.21376 l 0,4.09 z M 99.097402,43.204888 c 0,0 0.8075,0.0863 1.486248,0 3.49125,-0.44375 7.13626,-11.05127 6.75376,-14.18127 -0.1675,-1.3675 -0.22375,-1.5475 -0.57125,-1.805 -0.905,-0.67375 -4.02251,-1.3375 -4.19876,-1.3625 -3.406248,-0.47875 -6.438758,0.46875 -7.497508,3.09875 -0.75625,1.88 -1.61625,5.74126 -0.31,6.81501 0.56125,0.46125 1.53251,0.3975 2.47876,0 0.0325,-0.0138 4.747498,-3.41001 5.576248,-2.47876 0.74,0.83376 -1.64625,3.02376 -2.26,3.65376 -0.5,0.5125 -0.881248,0.9975 -1.112498,1.84875 -0.42875,1.5775 -0.345,4.41126 -0.345,4.41126 z m -26.05003,-10.55002 0,2.97501 c 0,0 0.7725,0.075 1.48625,0 0.9325,-0.0975 3.29125,-2.99626 5.85376,-6.15501 6.78875,-8.36751 9.84751,-9.66751 19.28627,-14.77877 l 3.732498,-1.97625 0,3.41 0,5.86876 c 0,0 0.8625,0.12125 1.48751,0 0.71875,-0.1375 1.58,-3.12125 2.0475,-5.24126 0.37375,-1.69375 1.79625,-3.6325 3.28125,-4.98125 4.29251,-3.9000105 5.06251,-4.6300105 6.60501,-9.5325105 0.75125,-2.38375996 0.2225,-2.68750996 -2.76375,-1.93000996 -3.20501,0.81250996 -8.22751,3.15875996 -11.27627,5.26625996 -1.005,0.695 -1.97625,1.43 -2.949998,2.15625 -3.62626,1.6250105 -16.12377,9.2837605 -20.15753,13.3400205 -1.5475,1.55625 -3.0575,3.43125 -4.56625,5.80876 -0.365,0.575 -1.5375,2.4625 -1.78,3.3 -0.2575,0.88625 -0.28625,1.1325 -0.28625,2.47 z M 127.22368,1.9010875 c 0,0 -0.16125,2.615 0,4.46125 0.185,2.11 1.7025,5.5825105 4.43501,6.4600105 0.64875,0.2075 0.89875,0.23125 2.51125,0.23125 l 3.58751,0 0,3.0975 1.23875,0 0,0.62 2.20625,0 c 0.9925,0 1.13125,-0.0387 1.38875,-0.385 0.19125,-0.2575 0.3225,-0.545 0.4325,-0.85375 1.09,-3.07625 0.42,-4.37 2.2825,-5.05375 2.84876,-1.045 4.46251,-0.585 5.72001,-2.2975105 0.325,-0.44375 0.36125,-0.67875 0.36125,-2.3525 l 0,-5.78625996 c 0,0 -2.65625,-0.2175 -4.5475,0 -1.295,0.14875 -3.97876,2.02250996 -4.43626,3.09750996 -0.6475,1.525 -0.9675,3.56125 -1.85875,4.9575 -0.415,0.65 -0.81875,0.89751 -1.30125,0.61875 -0.87875,-0.50875 -0.385,-2.63 -0.7275,-4.0425 -0.1775,-0.73375 -5.33501,-2.7325 -7.15376,-2.7725 -1.90875,-0.0425 -4.13876,0 -4.13876,0 z m 7.74001,38.1950405 -0.61875,0 0,-0.61875 c 0,0 -1.42375,-0.1675 -1.85875,0 -0.21125,0.08 -0.19,0.245 -0.24125,0.37875 -0.115,0.29625 -0.6075,0.44625 -1.24625,0.24 -1.555,-0.50125 -3.96876,-3.1175 -3.96876,-3.1175 0,0 9.26626,-6.82376 15.36877,-10.82251 7.42751,-4.86626 17.74002,-9.89627 27.20878,-13.79127 3.70876,-1.525 8.10751,-3.2475005 8.10751,-3.2475005 l -0.61875,8.0550105 c 0,0 0.8125,0.0913 1.48626,0 0.86375,-0.11876 3.1675,-3.84251 4.80125,-6.39126 1.51125,-2.3587605 13.77502,-8.5150105 15.72127,-11.18252046 0.7425,-1.01750004 2.55375,-5.48625004 2.155,-5.97125004 -0.75875,-0.92 -4.36375,0.1475 -5.9525,1.4575 -0.77751,0.64 -1.03501,0.7825 -2.58126,1.42125 -3.4825,1.44 -7.73751,3.21000004 -12.05876,4.99126 -8.35126,3.26125 -26.37628,7.39876 -50.77006,25.7112805 -1.84251,1.3825 -3.32626,2.62 -4.22751,3.59375 -1.99125,2.15125 -2.70375,6.45751 -1.85875,9.71501 0.71875,2.76626 5.86751,8.59876 8.26501,7.63376 1.2875,-0.51875 2.705,-1.975 2.8875,-3.29625 0.21,-1.5075 0,-4.75876 0,-4.75876 z M 70.784862,1.8048375 l -3.31375,0 0,4.13875 c 0,1.6725 0.0225,1.93 0.23125,2.57875 0.4725,1.4712605 3.03375,3.4125105 4.84876,3.8150105 1.31,0.29 2.82125,-0.7375 4.05875,-0.4125 1.14875,0.30125 2.2225,2.04625 3.1275,3.255 1.00501,1.345 1.15376,1.49875 1.48751,1.5375 1.14,0.13 1.6725,-0.71875 2.045,-1.90125 0.375,-1.19 0.1925,-2.62625 0.62,-3.7175 0.3175,-0.81 0.97,-1.42875 1.7,-1.9475005 2.65626,-1.88501 3.46376,-1.53001 3.56626,-5.73626 0.0363,-1.485 0,-3.46875996 0,-3.46875996 l -2.20626,0 c -0.9925,0 -1.23,0.135 -2.37875,1.35875996 -1.09625,1.16625 -2.47,2.77375 -2.85,3.845 -0.10125,0.2875 -0.1325,0.53625 -0.2625,0.72875 -0.37125,0.545 -1.5475,0.63125 -2.42626,0.2625 -1.46125,-0.61125 -2.09625,-2.48125 -3.5075,-3.4075 -0.58875,-0.38625 -1.3125,-0.60875 -2.0225,-0.7375 -0.95625,-0.1725 -1.2275,-0.19125 -2.71751,-0.19125 z M 6.9035421,74.053668 l -0.66125,0 -0.62001,-4.3375 1.85876,0 c 0,0 -0.0687,0.40625 0,0.62 0.1125,0.34375 0.7025,0.14625 0.9775,0.2625 0.71875,0.30625 -0.37125,2.3025 -0.69625,2.74125 -0.475,0.6425 -0.56125,0.71375 -0.85875,0.71375 z m 12.3500099,-11.52501 0,0.99125 -1.23875,0 0,0.62 -1.85875,0 0,-3.7175 c 0,0 0.565,-0.06 0.99125,0 0.12625,0.0175 1.53875,0.8225 1.92625,1.36 0.1625,0.22625 0.18,0.3 0.18,0.74625 z m -6.81501,0.23125 0,1.38 c 0,0 -1.075,0.1075 -1.9825,0 -1.2287499,-0.145 -4.0849999,-1.5325 -4.2137499,-2.23 -0.0925,-0.50875 0,-1.4875 0,-1.4875 l 0.62,0 0,-0.62 1.6525,0 c 0.7425,0 0.89125,0.025 1.48,0.23875 0.6962499,0.255 1.6499999,0.94875 2.0812499,1.53625 0.32625,0.44375 0.3625,0.5625 0.3625,1.1825 z" />
</svg>
