<?xml version="1.0" encoding="UTF-8" standalone="no"?>
<svg>
  <path
     d="m 63.733846,24.188873 -5.08125,-5.0825 -7.31374,7.31374 7.31374,7.31375 5.08125,-5.0825 5.08124,5.0825 7.31375,-7.31375 -7.31375,-7.31374 -5.08124,5.0825 z m 20.83998,49.49371 -5.08124,-5.0825 -7.31375,7.31374 7.31375,7.31375 5.08124,-5.0825 5.0825,5.0825 7.31249,-7.31375 -7.31249,-7.31374 -5.0825,5.0825 z m 0.435,-62.83245 -6.00624,5.96624 c -0.9975,0.99125 -1.14,1.17 -1.41875,1.78 -0.39125,0.855 -0.52625,2.285 -0.335,2.48 0.6225,0.6275 2.82249,-0.89625 3.58749,-1.46125 6.705,-4.945 9.75875,-8.05874 10.84375,-14.4624895 0.54999,-3.25375 -1.1725,-4.51374002 -4.2225,-4.92874002 -4.83625,-0.65875 -9.63749,0.015 -11.51624,3.65749002 0.2925,13.9049895 0.70625,5.95375 4.80874,4.96625 4.56375,-1.0975 9.47,-3.5375 4.25875,2.0024995 z m -24.95748,69.09369 5.895,-5.89 -6.54125,-6.53624 -6.54249,6.53624 5.89499,5.89 -5.89499,5.89 6.54249,6.53624 6.54125,-6.53624 -5.895,-5.89 z m -5.25124,-69.22744 c 0.17625,2.4025 1.30374,3.89624 3.35749,4.32749 2.64875,0.55625 4.14625,-0.87 4.82625,-3.75499 0.14875,-0.6325 0.115,-1.16 -0.295,-1.4149995 -0.78125,-0.48375 -2.92375,0.0187 -3.96,-0.5275 -1.28875,-0.68 -1.61625,-3.57 -1.2975,-4.92125 0.31875,-1.3525 1.1325,-2.8 1.35375,-3.84249002 0.045,-0.21125 0.0663,-0.405 -0.0263,-0.51375 -0.0125,-0.0138 -0.0238,-0.0263 -0.0362,-0.0387 -3.11749,-0.70625 -3.87499,11.33498952 -3.92249,10.68623952 z m 62.837444,69.92494 c -0.39125,2.43375 0.085,3.03125 1.715,2.28375 1.11,-0.50875 15.42749,-8.7775 17.51874,-11.25374 0.8425,-0.9975 1.68125,-2.7625 1.97875,-4.34875 0.1825,-0.9775 -0.11375,-0.9425 -1.17375,-0.55125 -2.45625,0.90625 -18.65499,10.69749 -19.16249,11.58249 -0.475,0.82625 -0.77875,1.68375 -0.87625,2.2875 z m -11.77749,-1.86 c 0.175,2.4025 1.30375,3.89625 3.3575,4.3275 2.64875,0.55625 4.14625,-0.87 4.825,-3.755 0.14875,-0.63375 0.11625,-1.16125 -0.295,-1.415 -0.78,-0.485 -2.92375,0.0175 -3.95875,-0.52875 -1.28875,-0.68 -1.6175,-3.56874 -1.29875,-4.91999 0.32,-1.3525 1.1325,-2.80125 1.355,-3.8425 0.045,-0.21125 0.065,-0.40625 -0.0275,-0.51375 -0.0113,-0.0137 -0.0238,-0.0275 -0.035,-0.0387 -3.1175,-0.70625 -3.875,11.33499 -3.9225,10.68624 z m -87.598674,2.74375 c -4.55,-1.1825 -8.7262505,-3.33375 -13.1199905,-7.41125 -3.76625,-3.49749 -6.90375,-6.45499 -4.01,-0.57499 2.265,4.59999 4.59875,7.94499 7.81124,10.72749 4.6737505,4.55624 12.7449905,10.86124 28.2949805,2.80374 1.75,-0.97 3.48875,-2.03499 5.2125,-3.17374 5.54999,-3.67 8.19499,-8.24375 9.17374,-16.99999 0.35375,-3.15625 -0.44625,-5.71624 -3.52875,-6.30749 -3.95,-0.75875 -5.23999,0.27875 -5.47624,-1.6425 -0.04,-0.3225 0.0638,-0.45 1.03125,-1.2725 3.27124,-2.78125 5.45999,-3.63 8.34874,-2.42625 1.41,0.5875 1.97,1.04125 2.51,2.78375 1.18125,3.81999 0.805,5.32374 3.53499,6.46749 2.4375,1.0225 4.765,0.9975 6.4825,-0.95375 0.63875,-0.725 1.06375,-1.33 1.405,-1.77124 l 0.91,-1.17 1.19749,0.8175 c 0.87875,0.59874 1.925,1.60249 3.01375,2.23749 3.28625,1.91875 7.53875,1.0425 11.32874,-0.5575 1.11125,-0.46875 1.28625,-0.66875 1.745,-1.99749 l 1.42875,-4.1375 c 0,0 0.82875,1.7575 1.29875,2.63625 1.26125,2.35749 5.63124,3.46874 7.79874,2.80124 1.06875,-0.33 2.19375,-1.13499 3.23625,-1.83874 l 2.627504,-1.775 1.1875,1.1775 c 0.425,0.42125 0.85125,0.96375 1.425,1.3525 2.09874,1.42124 6.95749,0.90249 8.88874,-0.57375 0.4825,-0.36875 0.86625,-0.8225 1.21875,-1.25 l 1.545,-1.87375 2.09124,1.465 c 2.21125,1.55 5.54125,4.47999 7.39,5.15374 0.7725,0.28125 1.3775,0.15375 2.04,-0.41375 0.89875,-0.76875 4.08499,-7.10124 4.58999,-9.12124 1.07875,-4.31 0.3975,-7.71499 -1.435,-13.29999 -0.7775,-2.36875 -1.45124,-3.0525 -2.64749,-0.9 -0.2075,0.3725 -0.515,1.0125 -0.855,1.7775 -3.72875,8.40749 -0.95,1.78625 -0.66125,8.55624 0.0325,0.79 0.11125,2.64125 0.11125,2.64125 0,0 -5.02,-2.57375 -5.83125,-4.20499 -0.72,-1.44875 -0.25625,-2.72 -1.45125,-2.0275 -1.1175,0.64875 -2.38749,2.90749 -3.68374,3.96624 -2.22125,1.815 -5.195,1.15625 -7.805,0.50375 -0.97625,-0.24375 -2.0625,-0.43875 -2.44625,-1.18375 -0.50749,-0.98624 -0.11249,-1.82624 -1.25249,-1.33499 -0.75625,0.32625 -1.54,1.19374 -2.4175,1.84249 -3.913754,2.895 -10.153744,2.04125 -11.824994,-2.33124 -1.35,-3.535 -2.1925,-13.29374 -4.5125,-8.6675 -1.25,2.4925 -1.71,6.40125 -0.88875,8.92375 0.385,1.17999 1.05875,2.19374 1.22875,4.17999 0.0525,0.62 0.0563,1.335 0.0563,1.335 0,0 -2.525,0.16375 -3.73,0.24125 -3.52124,0.2275 -6.86249,-1.13125 -9.40999,-2.93375 -0.7175,-0.5075 -1.62125,-1.3075 -2.455,-2.15999 -1.91999,-1.965 -2.41874,-3.88125 -2.75499,-1.5025 -0.1775,1.255 -0.26625,2.44499 -0.23125,3.23624 0.0725,1.63375 0.34625,3.76 0.34625,3.76 l -3.33,0.21625 c -1.17,0.075 -1.3825,0.055 -2.12375,-0.20125 -0.86,-0.29625 -1.73625,-0.93625 -2.225,-1.66125 -1.96625,-2.9125 -1.045,-6.09249 -3.14749,-7.56499 -2.3925,-1.675 -5.7225,-0.15625 -7.7825,1.03875 -6.96874,4.04249 -10.29374,7.31374 -11.02374,16.83623 -0.18875,2.46125 0.16375,4.17875 1.95875,5.1775 2.59625,1.4425 6.96749,0.75375 8.78624,2.11125 0.41875,0.31125 0.5475,0.56 0.51625,1.19875 -0.015,0.29 -0.1275,0.40625 -1.125,1.16875 -3.67499,2.80999 -7.30874,4.92749 -10.97499,6.44749 -9.69499,4.02 -12.99749,2.83125 -17.60873,1.63375 z m 92.414924,-68.71494 c 0.3325,3.18374 -0.6775,9.77499 0.18875,12.80248 0.335,1.17125 0.89,2.1575 1.145,3.23 0.39875,1.67625 -1.32625,2.31875 -3.6525,2.80375 -2.6575,0.5525 -7.46624,-0.4075 -9.931244,-1.66125 -2.6725,-1.36 -5.1575,-3.7025 -7.28874,-4.2175 -0.305,-0.0738 -0.6025,-0.11 -0.72875,0.0387 -0.35625,0.41625 0.3875,1.40375 0.83125,1.89125 4.64249,5.10875 12.403744,9.2725 17.553734,7.79625 7.88874,-2.26 12.06624,-10.67124 10.36999,-18.82874 -0.335,-1.61375 -1.8,-5.53374 -1.31625,-6.48374 0.47625,-0.9337495 2.2825,-1.4087495 3.2825,-2.4249995 1.21,-1.22875 2.25375,-5.1425 1.605,-6.53749 -1.01625,-2.18375002 -3.24375,-1.15125002 -4.5825,0.88624 -1.53625,2.33625 -2.30874,9.3024995 -2.09999,10.9962495 0.21749,1.77249 3.38499,9.07499 1.10499,11.71624 l -0.92875,1.07749 -1.41374,-0.48999 c -0.67625,-0.235 -1.30875,-0.685 -1.5825,-1.10625 -0.56375,-0.8675 -0.7225,-4.455 -0.6125,-7.04625 0.34125,-8.0912395 0.16,-12.8287395 -7.70125,-14.8337395 -2.11249,-0.53875 -2.96124,2.36875 -3.27749,5.38375 -0.18875,1.79875 0.30375,2.5924995 2.32375,2.4924995 2.39874,-0.12 4.05249,-1.5999995 5.25499,-0.4674995 0.6875,0.6487495 1.37125,2.1574995 1.45625,2.9824995 z m -75.637444,15.59748 c 2.7825,2.4275 6.82625,3.69 8.42,1.32125 1.03374,-1.5375 2.71624,-4.74374 2.71624,-4.74374 0,0 -1.71,-2.56625 -3.13874,-3.66875 -0.95875,-0.74125 -2.79,-1.05125 -3.8725,-0.4675 -0.955,0.515 -2.07,2.00625 -2.67625,1.395 -0.73375,-0.74 1.66,-5.59125 1.81,-6.00625 1.83125,-5.09124 1.73375,-8.2712395 0.3275,-12.4999895 -0.4325,-1.30125 -0.91125,-2.62249 -1.58,-3.13874002 L 36.271366,1.4348781e-4 35.460116,0.85889348 c -1.26375,1.33999002 -1.0225,4.84624002 -0.61,6.28499002 0.38625,1.3475 1.06375,2.685 1.445,4.1312495 0.45375,1.72 0.2325,5.73624 -0.41375,7.54624 -0.8925,2.495 -2.53875,4.7825 -2.17625,7.50624 0.12375,0.9325 0.2575,1.14125 1.33375,2.08 z"
     style="fill:#000000;stroke:none" />
</svg>
