<?xml version="1.0" encoding="UTF-8" standalone="no"?>
<svg>
  <path
     d="m 61.848002,75.947994 c 0.2275,3.15 1.6975,5.10875 4.37,5.67375 3.44875,0.72875 5.39875,-1.14125 6.2825,-4.92375 0.19375,-0.83 0.15125,-1.52125 -0.38375,-1.855 -1.015,-0.635 -3.805,0.0237 -5.155,-0.6925 -1.6775,-0.89125 -2.10375,-4.68001 -1.68875,-6.45251 0.415,-1.7725 1.47375,-3.67125 1.7625,-5.0375 0.0588,-0.27625 0.085,-0.53125 -0.035,-0.67375 -0.015,-0.0175 -0.03,-0.035 -0.0463,-0.0512 -4.05875,-0.925 -5.045,14.86251 -5.10625,14.01251 z m 23.74875,-52.21376 5.78,5.77875 7.74251,-7.7425 -7.74251,-7.74125 -5.78,5.77875 -5.77875,-5.77875 -7.7425,7.74125 7.7425,7.7425 5.77875,-5.77875 z m 0,-23.7337495813 -7.7425,7.7424999813 7.7425,7.7424996 7.7425,-7.7424996 -7.7425,-7.7424999813 z m 1.425,54.2849995813 -4.97625,0.17375 c -1.61625,0.0562 -1.88,0 -2.63125,-0.555 -2.73,-2.01875 -1.76625,-4.05875 0.62625,-5.3675 1.4125,-0.77375 4.625,-0.3875 6.8675,1.965 1.33875,1.405 2.82,3.68875 0.11375,3.78375 z m 18.531258,4.14625 0.0962,-1.46125 2.67625,-2.36375 c 2.63,-2.32375 6.16,-6.9625 6.3325,-7.27875 2.27625,-4.15875 2.96,-10.55125 2.19875,-14.2675 -0.51375,-2.51125 -6.52625,-15.35125 -8.09375,-17.2875 -0.74125,-0.915 -1.74375,-0.96625 -2.395,0.0838 -1.3675,2.2075 -2.47375,8.07125 -1.745,10.05625 0.31,0.8475 0.91625,1.6475 1.39875,2.65125 1.2775,2.6625 1.68125,6.76375 3.165,8.54 1.75875,2.10625 5.3125,3.595 3.23125,6.10625 -0.49875,0.6025 -1.25625,1.18125 -2.3325,1.88 -3.675,2.385 -11.072498,6.15875 -11.072498,6.15875 0,0 -6.16751,-6.61 -9.74251,-10.22625 -3.31375,-3.35125 -5.425,-4.72375 -9.0075,-3.28125 -4.8475,1.9525 -5.8525,7.38125 -6.5125,13.59125 -0.66375,6.235 0.50375,12.64875 5.10125,14.6225 1.29,0.555 3.405,0.465 6.3075,-0.22 4.59125,-1.08375 11.74626,-3.40625 11.74626,-3.40625 0,0 0.23,2.7525 -0.0788,4.3125 -0.27,1.36375 -2.59125,3.89376 -3.7875,5.11126 -1.55375,1.58125 -4.99625,3.92875 -8.89625,6.315 -16.3375,9.99875 -21.555,10.16625 -39.09,17.53875 -13.885,5.838746 -12.67625,2.27875 2.76625,4.609996 1.9275,0.29 3.8875,0.81125 5.61375,0.78375 2.99875,-0.0475 9.9325,-2.378746 12.0875,-3.171246 0.56375,-0.2075 1.41,-0.53875 2.4475,-0.96625 9.2475,-3.81 17.4425,-7.90375 24.4875,-14.665 13.581258,-13.03626 13.458758,-29.22251 13.097508,-23.76626 z M 67.193002,9.8929844 c -0.1475,0.3462496 -0.29875,0.6799996 -0.43625,0.9849996 -0.16,-0.0275 -0.3225,-0.08 -0.57625,-0.17 -1.195,-0.4275 -2.82,-2.0137496 -2.9875,-3.0162496 -0.009,-0.0487 -0.015,-0.0987 -0.0213,-0.14875 -0.0512,-0.40125 0.42875,-0.9775 1.07125,-1.4075 4.095,-2.7375 3.5275,2.40375 2.95,3.7575 z m 4.66875,-1.86375 c 0.82625,-1.5925 1.25125,-2.89125 0.7875,-4.1075 -0.485,-1.27125 -2.865,-3.48999998 -4.125,-3.84749998 -1.56875,-0.44375 -5.985,1.15999998 -7.58125,3.26124998 -1.25625,1.65375 -2.535,6.21125 -1.4875,7.9124996 1.52625,2.475 3.3375,3.0275 2.6425,4.28375 -0.4675,0.845 -1.8475,1.7475 -3.33625,2.56125 -3.11875,1.7075 -6.71375,3.02875 -9.83375,4.305 -8.24375,3.555 -15.82375,6.0175 -8.39,5.90125 18.25625,-0.285 27.04875,-12.02625 31.32375,-20.2699996 z M 58.823002,44.645484 c 0.8975,1.975 -1.5175,3.34375 -3.36375,4.095 l -2.95625,1.2025 -1.64875,-1.81875 c -2.17125,-2.4275 -5.35375,-6.5825 -4.1625,-7.645 1.04125,-0.92875 8.64125,1.3 10.88875,2.915 0.5575,0.40125 1.06,0.85 1.2425,1.25125 z m -12.9475,20.33875 c 0.545,-0.515 1.085,-1.00375 1.62125,-1.4625 0.53,-0.45375 1.14125,-0.95375 1.75375,-1.3725 l 2.53875,-1.73 0.4125,1.1225 c 0.47375,0.49875 0.72125,1.65625 1.2025,2.565 0.42625,0.80125 0.7875,1.235 1.6475,1.24875 0.36875,0.005 0.8975,-0.0312 0.8975,-0.0312 0,0 -0.155,-2.57375 -0.15,-4.31 10e-4,-0.47375 0.0225,-0.905 0.0675,-1.3025 l 0.33375,-2.92 3.59375,-1.49 c 2.815,-1.08125 6.52125,-1.13625 8.30375,-2.68875 1.79125,-1.56125 3.73125,-10.00375 3.1875,-11.435 -0.41625,-1.09375 -3.185,-3.12125 -5.655,-4.485 -2.7375,-1.5125 -10.9925,-6.57125 -16.67875,-7.13 -6.7725,-0.66625 -7.6475,11.08 -7.53,14.43375 0.0375,1.055 0.045,1.2675 0.045,1.2675 0.0562,1.615 0.1725,1.9375 1.16625,3.2175 0.92875,1.1975 2.21875,2.75875 3.045,4.05875 l 1.3675,2.15125 -2.425,2.745 c -0.5775,0.65375 -1.22125,1.27125 -1.8225,1.715 -4.18,3.08125 -7.13125,6.7625 -10.2375,11.13625 l -0.24875,-0.2175 c -2.665,3.84626 -5.68625,8.15876 -9.79,12.98501 -2.3375,2.75 -6.0275,5.84375 -9.54751,7.0275 -24.7525,8.3325 5.52001,-52.07126 -6.8687497,-28.27626 -2.9775,5.7175 -5.30500004,12.55876 -6.00375004,18.47126 -0.60625,5.14125 1.37000004,20.851246 9.36875004,20.859996 5.2524997,0.006 11.2200097,-4.916246 13.7875097,-8.219996 0.42,-0.53875 0.835,-1.0925 1.2525,-1.6525 1.355,-1.81875 2.825,-3.865 4.3775,-6.035 5.89375,-8.2375 14.635,-18.02126 16.9875,-20.24626 z"
     style="fill:#000000;stroke:none" />
</svg>
