<?xml version="1.0" encoding="UTF-8" standalone="no"?>
<svg>
  <path
     d="m 85.31756,13.001474 c 0,0 -0.275,0.03 -0.48,0 -0.345,-0.0513 -0.49625,-0.2725 -0.65625,-0.50625 -0.6625,-0.975 -2.18125,-5.15 -4.425,-6.86875 -2.71376,-2.07625 -6.79251,1.70625 -7.22376,4.38125 -0.60875,3.765 4.6325,6.28626 6.95126,4.70001 1.39125,-1.65626 2.6425,-0.1725 3.665,1.52375 0.7075,1.175 2.2525,3.86125 4.1775,3.87625 3.025,0.025 2.58875,-2.63125 2.145,-4.44125 -1.00875,-4.11876 -3.2575,-6.58501 1.88875,-6.30876 0.60501,0.0325 0.77251,-10e-4 1.23501,-0.18375 0.52875,-0.20875 1.7775,-1.1625 1.8725,-1.2725 0.8775,-1.02 0.99375,-5.39625 0.75,-6.10125 C 94.97382,1.093974 94.44382,0.63522398 93.77632,0.39272398 86.61506,-2.202286 85.31756,8.785224 85.31756,12.191474 c 0,0.58625 0,0.81 0,0.81 z m 24.10252,2.65001 c -0.98,1.49 -1.88875,2.9475 -2.12125,3.68375 -0.0537,0.17 -0.6475,2.69625 -0.45125,3 0.5075,0.7825 2.18625,-1.48625 2.61375,-2.05375 0.26125,-0.3475 0.51375,-0.66125 0.75125,-1.00875 0.24125,-0.3525 0.4675,-0.74 0.6825,-1.1475 2.56625,-4.83751 3.86625,-7.63126 9.32626,-9.78501 2.395,-0.945 6.085,-1.7375 7.24625,-3.32 0.89125,-1.2125 1.93375,-2.85625 2.07875,-3.60375 0.0625,-0.325 0.1025,-0.68125002 0.1025,-0.68125002 l -0.30125,0 c 0,0 0.0675,-0.4025 0,-0.60001 -0.09,-0.2675 -0.56875,-0.09 -1.05625,0.1275 C 115.14383,6.132724 72.18255,22.120234 63.84504,35.991494 c -0.28,0.465 -0.50375,0.91875 -0.64625,1.34375 -1.12875,3.33625 -0.5075,5.12376 2.30501,6.95376 1.34875,0.8775 2.42375,1.75625 3.09375,0.54625 0.007,-0.0125 0.9175,-3.03125 0.75,-3.72001 -0.12375,-0.515 -0.875,-1.0375 -1.5725,-1.41125 -0.99375,-0.53375 -1.4425,-0.735 -1.1275,-1.57 0.0825,-0.21875 0.28625,-0.4925 0.56125,-0.78875 6.4875,-6.97875 25.89627,-17.07501 37.25502,-22.45126 5.25376,-2.48626 8.67126,-4.88126 4.95626,0.7575 z m -61.2738,73.82005 4.43626,4.43625 6.36375,-6.36375 -6.36375,-6.36376 -4.43626,4.43626 -4.43625,-4.43626 -6.36375,6.36376 6.36375,6.36375 4.43625,-4.43625 z m 55.99379,-8.40626 c -0.06,0.035 -0.12125,0.0713 -0.18625,0.10875 -3.98875,2.30376 -3.93375,2.73751 -7.245,-0.23375 -2.30875,-2.0725 -4.3675,-1.14 -6.98001,0.7125 -9.3675,6.64001 -7.66125,5.78126 -18.96751,7.59626 -2.98375,0.47875 -5.6075,0.93875 -6.21375,1.31375 -0.85251,0.5275 -1.49126,1.295 -0.29875,2.1 0.41625,0.28125 0.99625,0.45375 1.605,0.56875 12.93376,2.44375 13.33376,-2.125 24.04251,-7.405 1.65751,-0.81625 3.09001,-1.25 3.85376,-0.81375 0.56,0.31875 0.9425,1.1525 1.6575,1.7 2.755,2.10875 5.63875,1.0675 8.10625,-1.28875 1.95626,-1.86875 1.78125,-1.62 4.19376,-0.4375 4.97125,2.43875 5.07875,4.24125 6.79,0.92625 1.46125,-2.83001 1.9175,-3.48626 1.65,-6.30626 -0.0937,-0.9925 -0.4075,-2.07 -1.05,-2.99375 -0.6475,-0.9325 -1.72375,-2.10375 -1.72375,-2.10375 l -2.325,4.14375 c 0,0 0.59875,2.46 0.59875,2.46 0,0 -2.24625,-1.12375 -3.30375,-1.6525 -1.1125,-0.55625 -7.81626,3.755 -4.20376,1.605 z m -2.8925,-36.83252 c 0.8625,-2.12125 1.37125,-7.67001 1.33875,-8.46251 -0.0925,-2.2725 -0.50875,-3.52 -1.47125,-4.7 -0.88125,-1.08125 -4.75125,-4.14626 -5.42875,-4.30001 -0.2325,-0.0525 -0.445,-0.0638 -0.6675,-0.0387 -0.30125,0.035 -0.36375,0.12375 -0.63,0.89125 -0.535,1.54001 -0.645,3.32001 -0.5025,3.74876 0.2125,0.64375 2.5,2.96375 3.3,3.34875 1.94875,0.93625 2.46375,0.61625 2.855,2.46125 0.13125,0.61375 0.145,0.7725 0.145,1.5825 l 0,6.30626 c 0,0 0.48,0 0.48,0 0.21625,0 0.27375,-0.0838 0.58125,-0.8375 z M 0,69.794024 l 0.55375,9.88875 c 0.3575,6.40876 3.8075,13.88251 11.42251,14.21626 10.72751,0.47 21.48126,-16.99126 21.96501,-23.91251 0.31125,-4.46126 0.40625,-8.66251 2.15125,-3.34001 2.46501,7.51751 9.33251,11.07126 17.31127,8.64751 0.6775,-0.20625 1.3025,-0.46625 1.8575,-0.78375 0.86875,-0.495 2.97625,-2.08625 3.55875,-2.8225 1.29375,-1.6375 1.57125,-3.47751 2.70375,-2.95126 0.5025,0.2325 1.00875,0.97376 1.565,1.69251 2.52876,3.26875 11.11751,2.66 14.58251,2.28 3.12876,-0.3425 5.88501,-0.96125 7.15126,-1.7225 1.65,-0.99375 3.46875,-2.61001 3.46875,-2.61001 0,0 1.63625,1.49751 2.91875,2.45251 0.21,0.15625 0.42876,0.30875 0.65626,0.45625 4.9675,3.23875 12.53125,3.6325 17.47251,-0.295 0.0187,-0.015 0.0362,-0.03 0.055,-0.045 0.9675,-0.79625 2.33125,-2.71376 3.4075,-2.41126 0.5575,0.15625 1.27625,1.03501 1.94875,1.54751 2.70125,2.0625 12.41251,6.6725 15.38751,3.8375 0.315,-0.30125 0.63,-0.64875 0.95,-1.04375 0.60375,-0.74625 1.33,-1.8675 1.94251,-3.07375 1.27,-2.49626 0.46125,-13.77376 -0.35126,-16.56252 -0.44375,-1.52125 -1.00875,-2.89875 -1.65625,-3.7025 -0.5225,-0.6475 -1.53,-0.88625 -2.2025,-0.6 -0.87625,0.3725 -3.3025,4.35375 -3.7975,5.55 -0.78,1.87626 -1.365,5.06501 -0.45,6.75001 0.44625,0.8225 1.36125,1.945 1.36125,1.945 l -7.81126,-3.64375 -0.3,-4.30126 c 0,0 -0.84,-0.10375 -1.3025,0 -0.38125,0.085 -0.5075,0.31 -0.6475,0.60001 -2.35875,4.84875 -4.445,7.0375 -10.64501,8.4 -1.09125,0.23875 -1.9675,0.3125 -3.08,0.2 -1.27375,-0.13 -8.7275,-2.7525 -9.525,-3.35 -0.40125,-0.30125 -0.42,-0.51625 -0.17375,-1.32125 0.245,-0.805 0.55875,-1.52375 0.77375,-2.42875 0.0962,-0.41125 0.17375,-0.86 0,-0.9 -0.0838,-0.02 -0.225,0.0538 -0.3,0 -0.0475,-0.035 -0.0687,-0.12125 -0.1175,-0.18375 -0.41,-0.54 -1.28625,0.33625 -1.44376,0.5525 -1.8775,2.5825 -1.74875,4.04125 -3.645,5.1325 -0.5125,0.29375 -1.16625,0.5625 -1.91625,0.80375 -4.30375,1.385 -17.07126,3.445 -20.13126,-1.98375 -1.03125,-1.83 -0.8775,-3.14625 -1.96626,-2.82125 -1.59125,0.47375 -1.32375,2.08 -2.43,4.2 -0.625,1.195 -1.735,2.2225 -2.9,2.96375 -5.2225,3.32 -14.58376,2.58875 -17.87501,-3.15 -0.0775,-0.135 -0.1525,-0.27375 -0.225,-0.41375 -0.285,-0.55375 -0.685,-1.56625 -1.13875,-2.82375 -3.62126,-10.04751 -6.10126,-19.06252 -14.12126,-26.68002 -0.3875,-0.36875 -0.63125,-0.59375 -0.63125,-0.59375 0,0 -0.89625,0.6575 -1.405,1.08625 -1.64876,1.39 -2.37876,5.86875 -2.10876,8.24 0.1925,1.69126 10.41001,18.46127 10.94876,19.69127 0.2375,0.54125 0.35,1.09625 0.20625,1.92 -0.12125,0.685 -0.47875,1.415 -0.8775,2.15625 -3.59125,6.67376 -7.2125,15.98126 -15.33126,18.73877 -4.0275,1.36875 -8.20501,0.395 -10.73376,-4.21626 L 0,69.794024 z m 39.44753,-62.9388 c -1.4175,-0.1625 -1.74125,0.0225 -1.9175,1.8725 -0.27375,2.8825 -0.33875,3.25875 -2.55001,4.8 -0.52875,0.36875 -1.0775,0.65376 -1.63,0.83751 -4.905,1.63375 -5.955,-4.04501 -5.4125,-7.09626 0.0838,-0.465 0.17125,-0.905 0.2475,-1.265 0.78125,-3.69625 -0.56875,-1.315 -1.16,-0.335 -0.8475,1.405 -1.55375,4.21125 -1.55875,6.295 -0.002,1.1175 0.12,2.28876 0.395,3.33501 2.14,8.12 9.4525,4.55375 12.21751,0.0337 l 1.295,-2.09876 2.50625,1.64376 c 1.30625,0.695 3.59375,0.56375 5.28625,0.004 7.86001,-2.59751 4.87001,-9.21376 1.35125,-13.30501 -0.33625,-0.39125 -0.65625,-0.71625002 -0.9375,-0.94875002 -0.34125,-0.2825 -0.8975,-0.68251 -1.44,-0.62126 -0.16125,0.0188 -0.21875,0.1025 -0.575,0.83251 C 44.57628,2.870424 44.14753,3.507924 45.15628,4.750424 c 0.14,0.1725 0.30125,0.36 0.475,0.5575 1.44125,1.64375 4.17875,4.1 0.1225,4.5575 -0.8325,0.0937 -1.69875,0.10125 -2.19375,0.0625 -2.32875,-0.18625 -3.04625,-0.77125 -3.3525,-2.345 -0.11375,-0.59 -0.19,-0.6625 -0.76,-0.7275 z m 18.18376,5.39625 c -9.07126,5.25876 -21.94002,13.09751 -23.94877,18.54002 -0.59125,1.60125 -1.1275,3.495 -0.935,4.355 0.2,0.88875 1.04625,1.7425 1.8,2.31 0.2175,0.16375 0.46,0.335 0.72,0.51 3.75626,2.5275 6.12126,3.64375 6.21126,2.53375 0.35625,-4.3825 1.3575,-4.765 -3.41875,-6.98375 -0.0637,-0.03 -0.12875,-0.06 -0.19375,-0.0888 -4.16251,-1.83625 11.565,-11.13001 13.78001,-12.27751 0.53,-0.275 0.99875,-0.495 1.38125,-0.64375 0.78,-0.3 1.0525,0.0275 0.72125,1.44 -0.14875,0.63 -0.42125,1.17875 -0.6,2.1 -0.44875,2.31125 -0.3,6.96001 -0.3,6.96001 0,0 0.39125,0.05 0.71875,0 0.4,-0.06 0.965,-3.53251 1.53875,-6.65126 1.3725,-7.45375 8.39625,-9.14875 13.10626,-11.63126 1.03375,-0.545 1.93875,-1.07875 2.33625,-1.5175 0.3025,-0.33375 0.66375,-1.3125 0.885,-2.26625 0.0125,-0.0525 0.0238,-0.10375 0.0337,-0.155 1.52625,-7.4075 -19.20376,6.57751 -13.83626,3.46625 z"
     style="fill:#000000;stroke:none" />
</svg>
