<?xml version="1.0" encoding="UTF-8" standalone="yes"?>
<svg>
<path
	style="stroke:none;fill:#ff0000"
	d="m 91.82676,9.48117 3.85123,3.84999 4.77124,-4.76999 -4.77124,-4.76873 -3.85123,3.84999 -3.85249,-3.84999 -4.77123,4.76873 4.77123,4.76999 3.85249,-3.84999 z m 10.48746,18.92118 c 2.87124,-2.44124 5.02623,-6.25497 4.40999,-7.73497 -1.30625,-3.13624 -3.09499,-5.45873 -5.48374,-4.54998 -2.14374,0.81624 -3.27998,3.91748 -2.51374,5.80123 l 0.54375,2.19749 -1.45874,0.0738 c -2.63124,0.1325 -6.71498,0.2925 -7.97873,0.31375 C 82.99929,24.61617 78.81055,24.08492 77.55306,19.23244 76.92431,16.80994 76.63556,4.85499 74.38182,1.5675 L 73.30557,0 71.88683,1.32625 c -1.0325,0.96624 -1.86125,2.88999 -1.88625,4.14623 -0.0363,1.77125 1.5475,5.83373 2.1375,9.10372 1.32374,7.35123 -0.55625,12.89371 6.92497,15.81995 4.13624,1.61749 13.33871,0.67999 18.16744,-0.04 1.70749,-0.255 4.27373,-1.265 5.08373,-1.95375 z M 61.56436,18.77864 c 0.14125,0.1925 0.27875,0.3925 0.4075,0.59125 l 1.13875,3.19748 -1.67625,-0.55874 c -0.6525,-0.2175 -1.68124,-0.83 -2.05874,-1.20125 l -0.71,-0.69875 1.33,-3.46249 1.56874,2.1325 z m -8.60497,-1.9025 c -0.56375,-0.41499 -0.785,-1.02374 -0.33875,-1.88374 0.2975,-0.575 1.19625,-0.91125 2.0675,-0.855 l 3.12624,1.075 -1.275,2.54999 -0.9125,1.08375 -2.66749,-1.97 z m -5.31498,2.08 0,1.93374 c 0,0 -4.00374,0.64875 -5.24873,0.33 -0.6225,-0.15875 -2.94624,-3.40249 -4.05374,-5.58498 -0.61375,-1.20875 -1.92124,-2.59249 -2.66374,-2.81874 -0.55625,-0.16875 -3.00999,0.96624 -3.74374,1.73249 -2.27374,2.37374 -7.27122,10.18247 -5.43748,12.58621 0.44625,0.585 2.82124,1.13999 4.77249,1.76124 l 2.02499,0.64375 -0.3625,1.37375 c -0.07,0.26249 -0.2025,0.54499 -0.3925,0.84749 -1.46499,2.31624 -5.68123,3.53249 -8.24747,4.18749 -5.08498,1.29749 -9.89496,1.69374 -9.90621,1.96874 -0.0275,0.68875 5.28748,2.12499 10.64996,2.83874 0.16875,0.0225 0.33375,0.0438 0.495,0.0638 3.67373,0.465 4.90248,0.3275 7.00872,-0.905 1.80875,-1.05874 4.94874,-3.86748 5.73998,-5.13373 0.76125,-1.21999 1.3575,-2.65624 1.85,-3.83248 l 1.02624,-2.4475 2.83999,-0.36124 c 1.7275,-0.22 3.89749,-0.44625 5.46123,-0.90875 1.34125,-0.39625 2.4475,-1.10625 3.62374,-1.1475 1.01125,-0.035 7.10998,3.46499 8.08372,3.41499 1.1825,-0.0612 6.37248,-5.59998 7.02373,-9.09247 0.685,-3.67624 -0.86625,-6.63623 -3.19499,-9.62871 -5.47498,-7.03998 -5.91748,-7.01123 -11.66621,-0.7925 -0.2825,0.305 -4.66373,5.05623 -5.37498,7.11622 -0.27625,0.80125 -0.3075,0.98625 -0.3075,1.855 z M 35.0607,24.82987 c 0,0 0.83875,-5.73623 -3.08874,-5.73623 -2.36999,0 -1.20999,6.21372 3.08874,5.73623 z M 21.302,9.71492 c 0,0 -2.28749,3.00874 -3.26374,4.53123 -0.35,0.54625 -0.53125,0.90125 -0.605,1.32875 -0.21249,1.25249 1.4725,6.38373 1.20875,7.33247 -0.36875,1.3275 -5.30748,2.94999 -8.25497,2.93749 -2.6574898,-0.0125 -6.1399798,-2.15249 -6.7874798,-4.40123 -0.5425,-1.8875 -0.97874,-6.02373 -0.97874,-6.02373 0,0 -0.62375,1.1675 -1.32,2.59374 -2.35874,4.83748 -1.38123997,11.49121 1.89499,13.6337 0.85375,0.5575 1.84,1.0075 2.95124,1.32125 2.88249,0.81375 9.8137198,-1.035 12.4949598,-3.01999 3.80249,-2.81499 5.73248,-8.91497 4.83373,-13.29871 C 22.8995,13.8374 21.302,9.71492 21.302,9.71492 z M 10.78204,3.79119 6.0008002,8.57242 10.78079,13.35241 15.56202,8.57117 10.78204,3.79119 z"/>
</svg>