<?xml version="1.0" encoding="UTF-8" standalone="no"?>
<svg>
  <path
     style="fill:#000000;stroke:none"
     d="m 166.08981,24.84869 -0.19625,-4.49874 c -0.0787,-1.81874 -0.0525,-2.14374 0.2625,-3.25874 0.23499,-0.82625 0.48124,-1.73 1.10874,-2.3125 1.52875,-1.41874 5.31124,-0.92874 7.06499,-2.09749 2.52624,-1.68375 2.52749,-7.46498 0.585,-9.80873 -2.06125,-2.48499 -6.22749,1.46125 -7.93499,3.71999 -1.04874,1.38625 -2.04124,2.97625 -2.48749,4.83124 -0.2075,0.86 -0.32125,1.83625 -0.48375,2.69125 l -0.7925,4.18374 -2.61749,-3.33125 c -3.58374,-4.71874 -2.49,-6.12123 -7.75499,-7.40373 -1.76499,-0.43 -5.58998,-0.27 -6.32498,1.71625 -0.57625,1.55499 0.775,5.33373 1.62125,6.23123 0.64999,0.69 3.28499,2.4025 4.37374,2.50875 1.77749,0.17125 5.41248,-0.91125 5.41248,-0.91125 0,0 2.9325,4.22124 4.72374,6.20373 0.78125,0.865 1.4275,1.56125 2.43,1.58 0.41375,0.009 1.01,-0.0437 1.01,-0.0437 z m 10.51247,37.02242 0.785,-0.0137 c 0.3525,-0.006 0.4475,-0.22 0.94625,-2.14625 2.86874,-11.07622 3.39249,-17.19246 -3.66499,-24.29619 -1.1625,-1.17 -2.51625,-2.15125 -3.38875,-1.10375 -0.59124,0.7125 -1.19624,5.73374 -0.92624,6.82998 0.47124,1.9175 1.86999,2.54 3.48499,3.8425 3.64874,2.94124 4.56249,5.14748 4.09874,9.06498 -0.35625,3.00624 -1.335,7.82248 -1.335,7.82248 z m -23.5562,-25.08245 c -0.50999,3.1875 0.11,3.97 2.23,2.9925 1.4425,-0.66625 20.06495,-11.49873 22.78495,-14.74247 1.095,-1.30625 2.18749,-3.61749 2.57374,-5.69624 0.2375,-1.28124 -0.1475,-1.23499 -1.52624,-0.72249 -3.19625,1.18749 -24.2637,14.01246 -24.9237,15.17246 -0.6175,1.08125 -1.0125,2.205 -1.13875,2.99624 z m -11.72122,-6.39123 c -0.0638,-1.5725 -0.085,-2.97749 -0.0525,-4.17249 0.0537,-1.9775 0.14125,-4.04124 0.14125,-4.04124 l 4.69249,0.8375 c 0,0 0.0863,-1.12375 0.075,-2.155 -0.0275,-2.52749 -1.85625,-7.09123 -3.00874,-10.42498 -0.24375,-0.70749 -0.45875,-1.44249 -0.49875,-2.19624 -0.0537,-1.015 -0.0525,-1.33 0.0113,-3.14999 l 0.155,-4.44624 c 0,0 -1.6925,-0.325 -2.92375,-0.10125 -1.64749,0.29874 -5.57373,6.90248 -6.14748,8.76873 -0.47125,1.53749 -0.415,3.32124 -0.175,5.03998 0.22875,1.6475 0.62625,3.235 0.84125,4.88499 0.32375,2.495 -0.0238,6.76749 -0.41875,11.15623 l 0.19,0 c -0.1025,2.48374 -0.2775,4.97499 -0.3325,7.55373 -0.10375,4.81374 1.84374,23.2912 3.81999,36.71867 l 1.40625,9.55123 -2.43875,0.89125 c -2.30624,1.85624 -6.61498,-2.4075 -8.00373,-4.03999 -1.01,-1.1875 -1.46375,-2.20625 -1.90375,-3.44 C 125.80745,74.97608 122.20745,43.7324 122.49245,39.85241 123.1262,31.22743 123.0137,7.63623 122.3312,5.83123 121.25121,2.97624 119.71246,0 119.71246,0 c 0,0 -4.01124,3.90874 -5.69124,6.07123 -1.12,1.44375 -1.2075,2.15125 -1.2975,4.46999 -0.0725,1.88 -0.16875,4.84999 -0.16875,4.84999 l 1.0775,0.0387 c 0,0 3.275,47.3124 6.12624,69.3786 0.4925,3.80874 1.05375,6.43123 3.38749,9.22373 2.0125,2.40749 4.62249,3.67499 5.01499,5.49998 0.4075,1.9 -2.92999,5.88749 -4.55749,10.36623 -0.61375,1.69 -0.96875,3.52874 -0.4775,4.02999 0.97625,0.99875 3.24249,-2.18249 4.35999,-4.68749 2.0025,-4.48374 2.38625,-8.59373 5.70999,-8.44998 1.6325,0.07 3.52624,1.01625 5.51124,1.54125 8.98248,2.37374 33.78117,-3.15374 37.64741,-6.10499 1.31875,-1.00625 5.74749,-9.10498 6.07124,-11.10372 1.04125,-6.41874 -4.22124,-16.32122 -12.38747,-20.48121 -5.67999,-2.89249 -11.51248,-0.5225 -17.00747,4.12749 -2.87374,2.43375 -6.57748,6.20749 -6.57748,6.20749 0,0 -2.56625,-15.92496 -4.00374,-31.53243 -0.4375,-4.74874 -0.77,-9.46873 -0.99625,-13.04747 l -0.12875,0 z m 29.93868,57.11362 c 0,0 -6.78998,1.38625 -10.86497,2.08875 -3.75374,0.6475 -5.20374,0.71375 -9.11873,0.35625 -3.53249,-0.3225 -9.07123,-0.99125 -9.07123,-0.99125 0,0 0.10875,-0.77375 0.3025,-1.47125 0.75,-2.69749 10.17998,-9.35748 12.93247,-10.54497 5.34499,-2.305 8.15248,-0.255 12.22997,3.56374 1.3125,1.22874 2.90375,2.93624 3.29624,4.65749 0.2375,1.04499 0.29375,2.34124 0.29375,2.34124 z m -95.719779,-25.86244 -6.09999,6.05874 c -1.01375,1.00749 -1.15875,1.18874 -1.44125,1.80874 -0.39749,0.86875 -0.53499,2.32 -0.33999,2.5175 0.63124,0.63749 2.86499,-0.91 3.64249,-1.48375 6.80998,-5.02124 9.91122,-8.18373 11.01247,-14.68622 0.55875,-3.30499 -1.19124,-4.58374 -4.28749,-5.00624 -4.91249,-0.66875 -9.78748,0.0163 -11.69622,3.71375 0.29875,14.12246 0.7175,6.04623 4.88374,5.04373 4.63499,-1.11499 9.61748,-3.59124 4.32624,2.03375 z m -35.81492,14.59122 -6.09874,6.05873 c -1.01375,1.0075 -1.15875,1.1875 -1.4425,1.8075 -0.39624,0.86875 -0.53374,2.32124 -0.33875,2.51874 0.63125,0.6375 2.865,-0.90999 3.6425,-1.48374 6.80873,-5.02124 9.91122,-8.18373 11.01247,-14.68622 0.55875,-3.30624 -1.19125,-4.58499 -4.28749,-5.00624 -4.91249,-0.66875 -9.78748,0.015 -11.69622,3.71374 0.2975,14.12247 0.7175,6.04624 4.88374,5.04374 4.63374,-1.115 9.61748,-3.59249 4.32499,2.03375 z m -5.65874,27.08494 -7.53248,7.53373 7.53248,7.53248 7.53373,-7.53248 -7.53373,-7.53373 z m 40.18366,5.93373 -5.94749,-5.93373 -7.55123,7.53373 7.55123,7.53248 5.94749,-5.93248 5.94624,5.93248 7.55123,-7.53248 -7.55123,-7.53373 -5.94624,5.93373 z m 6.10999,-90.84104 c 2.02374,6.98248 0.285,7.77623 -2.67625,18.4037 -1.87249,6.72249 -0.4575,10.02998 6.15499,11.39498 3.66499,0.75625 4.41999,-0.5325 5.44249,-5.20624 0.41875,-1.91749 0.18,-3.37999 -1.86875,-4.44874 -4.54374,-2.37124 -6.48373,-0.71375 -5.72999,-4.00749 2.2625,-9.89373 4.33249,-10.59748 3.33125,-20.20621 -0.27875,-2.67249 -1.72125,-10.72247 -4.82999,-12.12497 -1.995,-0.89875 -2.53125,2.60875 -3.1525,5.28624 -0.43499,1.86875 -0.79624,3.82749 -0.1725,4.94499 0.41875,0.75125 1.2825,1.1225 1.9575,2.09749 0.74,1.07 1.25375,2.86625 1.54375,3.86625 z m -71.1198401,49.40739 -2.02375,0 c -0.0388,0.1975 -0.0825,0.39624 -0.13,0.57249 -0.165,0.60125 -0.3825,0.95125 -0.60125,1.31875 -3.93624,6.62124 -7.77998,17.07371 -6.07248,23.05495 2.41249,8.45498 9.45372,13.17747 18.5862001,14.35497 8.94873,1.1525 20.53996,-0.8625 28.48369,-5.85624 0.3425,-0.21625 0.68375,-0.44125 1.02125,-0.66875 l 1.26624,-0.855 3.8575,-2.59999 2.34249,1.54 1.66375,1.09374 c 4.21749,2.6775 8.00748,1.62625 13.32997,0.73 1.35624,-0.22875 2.55374,-0.365 3.41499,-1.22999 0.7425,-0.745 1.1375,-1.55625 1.4275,-2.2775 l 1.09874,-2.73499 2.9925,1.80374 c 1.90249,1.14625 4.29874,2.80375 6.28248,3.28375 2.165,0.52374 8.80123,-2.12 10.75498,-3.48375 1.20125,-0.8375 9.309979,-10.76872 10.434979,-14.20372 0.635,-1.93999 0.47625,-4.62249 0.25125,-7.19498 -1.32625,-15.13872 -4.63499,-38.94741 -4.36874,-48.71614 0.0538,-1.9775 0.14125,-4.04249 0.14125,-4.04249 l 4.69123,0.83875 c 0,0 0.0875,-1.12375 0.0762,-2.155 -0.0288,-2.52874 -1.85749,-7.09123 -3.00874,-10.42498 -0.245,-0.70749 -0.46,-1.44374 -0.49875,-2.19624 -0.0538,-1.01625 -0.0525,-1.33125 0.0112,-3.14999 l 0.155,-4.44624 c 0,0 -1.69249,-0.325 -2.92374,-0.10125 -1.64875,0.29875 -5.573739,6.90248 -6.147489,8.76873 -0.4725,1.53749 -0.415,3.32124 -0.17625,5.03874 0.23,1.64874 0.6275,3.23624 0.84125,4.88623 0.475,3.665 -0.4975,11.16498 -0.93875,17.23497 -0.3075,4.22249 2.06125,29.75868 3.85499,44.11115 0.64125,5.12749 -0.22875,5.29874 -5.60498,6.00998 -8.48373,1.12125 -10.27998,-4.51749 -12.27873,-13.30872 -0.40374,-1.77749 -0.50874,-1.98374 -1.04749,-2.06499 -1.3975,-0.20875 -1.955,0.25875 -2.70875,1.32375 -1.41874,2.00374 -3.50374,7.94123 -3.36999,9.59497 0.42375,5.24624 1.8125,5.77624 -2.48624,7.06249 -2.01875,0.60375 -6.49249,0.4475 -7.42374,-0.25875 -1.32249,-1.005 -2.21499,-2.65499 -3.08749,-3.92249 l -2.0975,-3.05125 -3.06124,3.23375 c -0.9425,0.99625 -1.94249,2.17124 -2.96624,3.01124 -4.62374,3.79374 -21.91245,6.72499 -25.1962,6.87624 -6.10123,0.28125 -14.80371,-1.7075 -18.3137101,-6.70999 -2.19999,-3.13374 -3.82999,-7.29623 -3.33999,-10.57123 0.48125,-3.22499 2.34625,-8.12873 2.8925,-9.51872 z" />
</svg>
