<?xml version="1.0"?>
<svg xmlns="http://www.w3.org/2000/svg" version="1.1">
  <path
     d="m 27.995344,97.959881 c 0.18375,2.799999 1.36125,4.542499 3.50375,5.044999 2.7625,0.64875 4.32625,-1.015 5.03375,-4.378745 0.15625,-0.737504 0.12125,-1.352504 -0.3075,-1.650004 -0.81375,-0.56375 -3.05,0.0225 -4.13125,-0.615 -1.34375,-0.7925 -1.68625,-4.1625 -1.35375,-5.7375 0.33375,-1.57625 1.1825,-3.265 1.4125,-4.48 0.0475,-0.24625 0.0687,-0.4725 -0.0275,-0.59875 -0.0125,-0.0162 -0.025,-0.0312 -0.0375,-0.0463 -3.2525,-0.8225 -4.0425,13.216254 -4.0925,12.46125 z m 58.299427,-77.689679 -0.1575,-4.003749 c -0.0637,-1.61875 -0.0425,-1.90875 0.21125,-2.9 0.1875,-0.73625 0.38625,-1.54 0.88875,-2.05875 1.22625,-1.26375 4.26125,-0.82625 5.6675,-1.8675003 2.02625,-1.4975001 2.0275,-6.645 0.46875,-8.73124962 -1.6525,-2.21124988 -4.995,1.30124962 -6.365,3.31124962 -0.84125,1.235 -1.6375,2.6499999 -1.995,4.3012499 -0.16625,0.765 -0.2575,1.6337501 -0.3875,2.3950004 l -0.63625,3.72375 -2.1,-2.965 c -2.87375,-4.2000004 -1.9975,-5.4475004 -6.22125,-6.5900003 -1.415,-0.3825 -4.48375,-0.24 -5.07374,1.5287499 -0.46125,1.3825 0.62249,4.7462504 1.30124,5.5462504 0.52125,0.61375 2.635,2.13875 3.50875,2.23125 1.42625,0.15375 4.34125,-0.81 4.34125,-0.81 0,0 2.3525,3.757499 3.78875,5.521249 0.6275,0.77 1.14625,1.39 1.95,1.4075 0.3325,0.0062 0.81,-0.04 0.81,-0.04 z m 8.82375,28.62375 0.63,-0.0125 c 0.28375,-0.005 0.35875,-0.19625 0.76,-1.91 2.30125,-9.86 2.72125,-15.30375 -2.94,-21.62625 -0.9325,-1.04125 -2.01875,-1.915 -2.71875,-0.9825 -0.475,0.63375 -0.96,5.10375 -0.74375,6.08 0.37875,1.70625 1.50125,2.26 2.79625,3.42 2.92625,2.6175 3.66,4.58125 3.2875,8.0675 -0.285,2.67625 -1.07125,6.96375 -1.07125,6.96375 z m -17.3425,-5.96 c -0.0463,-1.39625 -0.18875,-3.14875 -0.60125,-3.58875 -0.24,-0.25625 -0.57125,-0.07125 -0.77875,-0.20875 -0.9325,-0.62125 0.655,-3.185 1.41125,-4.165 6.865,-8.8925 24.657499,-19.932499 34.058749,-22.217499 0.89625,-0.2175 1.79125,-0.3925 1.96,-0.05625 0.085,0.1675 -0.01,0.46125 -0.155,0.7925 -0.34,0.78 -0.88375,1.7225 -1.48625,2.73375 -12.519999,20.977499 7.22875,-8.1337504 12.83125,-8.9525004 0.5125,-0.28 0.995,-0.50625 1.42125,-0.65625 2.18,-0.76125 4.5425,-0.9225 4.82875,-3.2424999 0.04,-0.325 0.0462,-0.73125 0.0362,-1.12375 -0.095,-3.7999995 -5.68375,-1.98249962 -9.62125,-0.32 -3.645,1.5375 -9.0575,4.0724999 -14.7975,7.0199999 -7.428749,3.8137504 -29.669999,15.2599994 -32.798749,25.2024994 -1.00875,3.20375 -0.82125,6.79375 1.18875,9.88125 0.0863,0.1325 0.165,0.2525 0.23625,0.36 -0.9075,-1.3675 2.46,4.3825 2.26625,-1.45875 z M 45.439948,62.899275 c -0.0185,0.02062 -0.05048,0.04603 -0.0625,0.0625 -0.01854,0.0254 -0.0127,0.122525 0,0.09375 0.02254,-0.05117 0.04048,-0.10478 0.0625,-0.15625 z m -11.664955,-27.702351 -3.785,0 0.54,-6 c 0,0 0.28875,0.14375 0.54125,0.3 1.0475,0.64875 2.6,2.95625 2.70375,3.78 0.095,0.75625 0,1.92 0,1.92 z m -8.728746,-4.3675 c 0.98125,0.6225 2.085,1.98 2.24,2.3625 0.30375,0.7525 0.30125,1.7 0,2.005 -0.515,0.5175 -3.71125,-1.2425 -5.4075,-2.1 -0.2725,-0.13875 -0.46875,-0.23625 -0.54125,-0.66 -0.0512,-0.3025 -0.04,-0.76875 -0.0237,-1.08875 0.0912,-1.73875 3.56625,-0.625 3.7325,-0.51875 z m -3.74125,20.09125 c 1.01,-1.2675 1.83125,-2.3725 2.36,-3.21375 1.25875,-2.0025 2.31125,-4.8975 3.62125,-5.61 1.851246,-1.00875 5.988746,-0.34 7.569996,-1.2 1.83375,-0.99875 2.455,-6.8775 2.1625,-9.42 -0.63375,-5.5225 -2.95625,-7.978749 -7.57,-11.279999 -3.999996,-2.862501 -7.311246,-5.857501 -8.424996,-2.237501 -0.20375,0.663751 -0.2475,0.915001 -0.44,2.521251 l -1.9425,16.259999 c -0.19125,1.60625 -0.0738,1.8275 1.17625,2.2075 2.18,0.66375 3.38,1.34625 3.1975,3.11625 -0.05,0.4825 -0.17,0.66375 -1.2,1.81125 0,0 -4.7275,5.33875 -8.015,9.05125 -5.8580003,6.615 -5.3923803,6.215 -9.6517503,10.5225 -1.705,1.72375 -3.39562996,3.608746 -3.89899996,5.467496 -0.28113,1.0375 -0.37988,2.47625 0,2.88 0.335,0.35625 1.17811996,-0.15 2.10299996,-0.8975 C 10.610497,64.224424 20.658747,51.730674 21.304997,50.920674 z m 31.149004,31.926418 -6.96875,7.75 6.96875,7.71875 4.84375,-5.375 4.84375,5.375 6.96875,-7.71875 -6.96875,-7.75 -4.84375,5.375 -4.84375,-5.375 z m 28.90625,-31.84375 c 0.51989,0.01174 1.06484,0.1075 1.65625,0.3125 0.92,0.31875 1.745,0.84375 2.78125,2.40625 1.7425,2.63 4.09375,8.25 4.09375,8.25 0,0 -2.93,1.82125 -4.90625,2.75 -1.8525,0.87 -3.3575,0.9675 -6.125,0.90625 -3.3875,-0.075 -9.4375,0 -9.4375,0 0,0 -0.0575,-0.77875 0,-1.4375 0.1225,-1.41125 1.10875,-2.72625 2,-3.8125 4.14859,-5.062969 6.29829,-9.457151 9.9375,-9.375 z M 65.547751,0.00334199 c -3.18323,0.11259613 -6.48086,3.88828121 -5.78125,6.18750001 0.27375,0.89875 1.02625,1.94375 1.59375,3.03125 0.955,1.82375 1.58375,5.26 1.90625,8.75 1.26,13.665 3.03625,38.88125 3.40625,44.25 0.14875,2.15 -1.91875,1.84375 -3.3125,0.96875 -0.9425,-0.59125 -1.83125,-1.49875 -2.25,-2.34375 -0.97,-1.955 -0.72,-3.87625 -2.625,-2.96875 -1.59375,0.76 -2.80875,4.02375 -4.625,5.65625 -1.638952,1.141416 -4.530642,1.60506 -7.184292,0.971505 -3.179309,-0.625044 -8.516778,-3.864196 -9.409458,-7.190255 -1.17875,-4.73625 0.225,-7.52 -2.96875,-6.59375 -3.82625,1.11 -6.37125,3.61125 -8.09375,7.78125 -3.325,8.0425 -2.7375,12.14875 -6.65625,13.21875 -2.3875,0.6525 -3.365,0.0088 -4.84375,-2.21875 -4.8408803,-7.298746 -3.58713,-21.05875 -1.25,-27.9375 0.90625,-2.6675 1.6599,-4.33875 -0.03125,-4.125 -0.38875,0.05 -0.45625,0.25 -0.84375,1.8125 -0.67488,2.7225 -1.56187,6.34625 -2.40625,9.59375 -3.4133703,13.12375 -2.1282503,21.57875 0,26.46875 6.28063,12.58625 13.3025,1.175 13.71875,-0.3125 0.43875,-1.56875 0.88125,-3.3 1.5,-5.09375 0.705,-2.04375 5.0725,-10.215 6.9375,-8.40625 0.74875,0.72625 0.269491,3.421257 1.15625,4.8125 1.657775,2.600897 3.597026,4.392229 7.242987,5.758045 3.645961,1.365815 8.829939,1.618087 11.569513,-0.726795 2.17,-2.025 3.50375,-4.9 4.8125,-3.625 0.60375,0.58875 0.898753,1.93 2.09375,2.96875 1.125,0.9775 3.0625,1.6875 3.0625,1.6875 0,0 -0.345,0.6925 -0.84375,1.75 -0.235,0.4975 -0.43125,0.9475 -0.625,1.34375 -1.77125,3.62125 -1.94375,3.1025 -2.28125,7.25 -0.05125,0.625 -0.11,1.3875 -0.1875,2.28125 -0.015,0.17375 -0.0175,0.33625 -0.03125,0.5 -0.1725,2.00875 1.11125,-0.08125 2.40625,-2.59375 1.51625,-2.94 3.11375,-6.80625 2.6875,-5.8125 0.925,-2.155 1.5625,-3.75 1.5625,-3.75 0,0 4.99,0.71875 8.96875,0.59375 9.3928,-0.164935 11.82527,-1.30862 16.25,-7.65625 0.69742,0.841354 0.37339,1.012812 4.34375,3.1875 3.97036,2.174688 20.513749,2.4275 27.593749,-0.59375 5.6075,-2.39375 8.3975,-5.07875 10.125,-10.96875 0.2525,-0.85875 0.43875,-1.67125 0.125,-1.9375 -0.4175,-0.35625 -1.90375,0.35 -3.21875,0.90625 -9.73,4.1075 -17.74875,7.39125 -23,0.28125 -1.36,-1.84125 -3.0175,-5.567504 -1.34375,-6.90625 1.87375,-1.5 8.47375,-1.92875 9.5,-1.75 3.605,0.63 5.91125,2.87 8.09375,-0.3125 1.0375,-1.515 -0.65125,-2.85625 -3.53125,-5.4375 -2.38711,-2.139609 -4.52614,-3.172924 -6.78125,-3.15625 -1.75397,0.01297 -3.57539,0.665 -5.65625,1.96875 -1.57375,0.985 -2.86125,2.09125 -3.53125,3.59375 -2.55375,5.7325 -1.07375,17.64 -4.687499,15.59375 -2.19564,-0.574301 -3.33305,-0.806681 -4.75,-1.5 0.0436,-0.17565 0.0853,-0.35034 0.125,-0.53125 0.91,-4.51625 -3.275,-11.7 -6.4375,-14.25 -2.66,-2.14625 -5.13625,-1.99875 -8.0625,0.59375 -3.27125,2.89875 -8.3125,9.3125 -8.3125,9.3125 0,0 -3.0825,-31.585 -3.28125,-33.625 -1.1475,-9.245 2.52,2.45875 2.5,-4.09375 -0.003,-0.4625 -0.003,-0.95 -0.0312,-1.40625 -0.175,-2.7675 -1.025,-4.18 -1.625,-6.1875 -0.6163,-2.05875 -0.9638,-4.74 -1.2188,-7.15625 -0.16875,-1.59875001 -0.27125,-1.79125001 -0.9375,-1.87500001 -0.20992,-0.02664063 -0.41278,-0.03875641 -0.625,-0.03125 z M 45.369811,37.038714 c -0.161172,0.02482 -0.30625,0.10625 -0.4375,0.28125 -0.35625,0.475 -0.725,3.83 -0.5625,4.5625 0.28375,1.28 1.1225,1.69375 2.09375,2.5625 2.196249,1.9625 2.74875,3.44875 2.46875,6.0625 -0.21375,2.00625 -0.8125,5.21875 -0.8125,5.21875 l 0.46875,0 c 0.211251,-0.0037 0.29375,-0.1525 0.59375,-1.4375 1.72625,-7.39125 2.02875,-11.47875 -2.21875,-16.21875 -0.525,-0.585938 -1.110234,-1.105723 -1.59375,-1.03125 z M 56.329001,0.00334199 c -0.813867,-0.04031219 -1.882423,0.28476562 -3.125,0.9375 -4.56125,2.39625001 -6.6,12.64875001 -5.625,19.53125001 0.29875,2.8375 0.625,5.40625 0.625,5.40625 0,0 -0.26875,-0.02755 -0.59375,-0.0625 -1.27625,-0.13875 -3.470001,-2.00875 -3.59375,-4.625 l -0.53125,-11.40625 c -0.08,-1.69375 -0.11,-2.01 -0.3125,-2.96875 -0.625,-2.94125 -2.30625,-4.5225 -4.0625,-5.5625 -2.23125,-1.32250001 -3.94875,-1.83000001 -6.25,0.03125 -1.89125,1.53125 -2.05625,7.07125 -1.3125,7.9375 0.554999,0.6475 2.001249,0.58875 3.78125,0.125 4.44375,-1.1575 4.905,-0.9000004 6.0625,4.3125 0.549999,2.47625 0.614999,4.82125 0.34375,7.3125 -0.57375,5.29 -1.92625,7.8625 0.71875,10.96875 1.10125,1.29125 2.2375,1.48 4.75,0.90625 1.785,-0.4075 2.1575,-1.3225 2.90625,-4.0625 0.52625,-1.93 0.9475,-3.67 0.8125,-5.59375 -0.26875,-3.8175 -3.983749,-10.99875 0.5,-12.78125 0.828751,-0.32875 1.884999,-0.09875 2.8125,0.125 1.25125,0.3025 1.464999,0.16 2.125,-1.375 0.541247,-1.2625 1.18625,-2.4225 1.53125,-3.78125 0.88945,-3.50625 0.228007,-5.28631318 -1.5625,-5.37500001 z"
     style="fill:#000000;stroke:none" />
</svg>
