<?xml version="1.0" encoding="UTF-8" standalone="no"?>
<svg>
  <path
     d="m 153.40853,54.366151 0.7775,-0.0138 c 0.35,-0.006 0.44375,-0.21875 0.9375,-2.1275 2.8425,-10.97124 3.36125,-17.02999 -3.63,-24.06623 -1.15125,-1.15875 -2.4925,-2.13125 -3.35625,-1.0925 -0.5875,0.705 -1.185,5.67874 -0.91875,6.76499 0.4675,1.9 1.85375,2.51625 3.4525,3.80625 3.61375,2.9125 4.52,5.09875 4.06,8.97874 -0.3525,2.9775 -1.3225,7.75 -1.3225,7.75 z m -12.42749,-31.81123 -0.195,-4.45625 c -0.0775,-1.80125 -0.0525,-2.12375 0.26125,-3.2275 0.23125,-0.81874 0.47625,-1.71374 1.0975,-2.29124 1.51375,-1.405 5.26124,-0.92 6.99874,-2.0775 2.50125,-1.6675004 2.50375,-7.3950004 0.57875,-9.71625041 -2.04125,-2.46123999 -6.16874,1.44750001 -7.85999,3.68500001 -1.03875,1.37375 -2.02125,2.9475 -2.46375,4.78625 -0.205,0.8512504 -0.31875,1.8175004 -0.47875,2.6650004 l -0.78625,4.14374 -2.5925,-3.29874 c -3.54875,-4.6750004 -2.46625,-6.0637504 -7.68249,-7.3350004 -1.74625,-0.425 -5.53625,-0.26625 -6.265,1.70125 -0.56875,1.54 0.76875,5.2837504 1.60625,6.1725004 0.645,0.68375 3.255,2.37999 4.3325,2.48374 1.76125,0.17 5.36124,-0.9025 5.36124,-0.9025 0,0 2.905,4.18125 4.68,6.145 0.77375,0.8575 1.41375,1.5475 2.4075,1.56625 0.41,0.007 1,-0.0437 1,-0.0437 z m -14.81374,9.17249 -0.665,8.38125 c 0.2975,-0.43375 0.59625,-0.8175 0.83125,-1.09125 2.38,-2.78 5.82624,-5.7475 9.80624,-8.635 4.28,-3.10374 29.52498,-15.20124 33.84498,-17.16998 1.40125,-0.63875 2.4625,-1.4425 2.50625,-3.01 0.01,-0.3650004 -0.0312,-0.8150004 -0.0913,-1.2487504 -0.575,-4.19 -7.215,-1.4325 -11.84874,0.93375 -4.28875,2.1900004 -10.6275,5.7174904 -17.31874,9.7462404 -0.0337,0.02 -0.0662,0.04 -0.1025,0.0612 -3.02125,1.71625 -6.04,3.55625 -8.8275,5.46625 -0.71,0.4575 -1.43625,0.93 -2.17625,1.4175 0,0 -0.0462,0.15875 -0.0462,0.15875 -2.22499,1.63625 -4.24124,3.31 -5.91249,4.98999 z m -16.10999,-15.54999 0.62375,10.99375 2.935,53.71996 c 0,0 1.99249,-1.9975 3.18624,-3.81499 1.6925,-2.57625 1.78125,-4.79125 2.29125,-7.265 0.39875,-1.94 0.425,-2.3725 0.26125,-4.3325 l -3.21375,-38.32622 -0.305,-6.505 c 0.31875,0.175 0.62375,0.33375 0.91,0.475 l 4.945,2.44625 -0.945,-2.6 c -0.10625,-0.29625 -0.22,-0.60875 -0.33375,-0.9225 -1.3725,-3.77875 -2.13375,-7.51499 -3.04625,-11.3887404 -0.875,-3.7075 -2.04,-8.64875001 -2.04,-8.64875001 0,0 -0.825,-0.0437 -1.58499,0.065 -2.09,0.29875 -6.55125,6.95500001 -6.84,8.46625001 -0.0275,0.14375 -0.045,0.28625 -0.0512,0.42875 -0.0125,0.3125 0.0125,0.64125 0.065,0.98125 0.38125,2.4362504 1.60875,4.5162404 3.1425,6.2274904 z m -66.159961,43.48123 -6.79125,6.74624 c -1.1275,1.12125 -1.28875,1.3225 -1.60375,2.0125 -0.4425,0.96625 -0.59625,2.58375 -0.37875,2.8025 0.70375,0.71 3.19,-1.0125 4.05625,-1.65125 7.58,-5.59 11.0325,-9.11124 12.25749,-16.34999 0.62375,-3.67875 -1.32499,-5.1025 -4.77124,-5.5725 -5.47,-0.74375 -10.89625,0.0175 -13.02124,4.135 0.33125,15.71999 0.79875,6.73125 5.43624,5.615 5.16,-1.24125 10.7075,-4 4.81625,2.2625 z m -0.76375,-37.10373 -0.195,-4.45625 c -0.0788,-1.80125 -0.0525,-2.12375 0.26,-3.2275 0.2325,-0.81874 0.4775,-1.71374 1.09875,-2.29124 1.51375,-1.405 5.26125,-0.92 6.99874,-2.0775 2.50125,-1.6675004 2.50375,-7.3950004 0.5775,-9.71625041 -2.04124,-2.46123999 -6.16749,1.44750001 -7.85874,3.68500001 -1.03875,1.37375 -2.0225,2.9475 -2.465,4.78625 -0.205,0.8512504 -0.3175,1.8175004 -0.47875,2.6650004 l -0.785,4.14374 -2.5925,-3.29874 c -3.54874,-4.6750004 -2.4675,-6.0637504 -7.68249,-7.3350004 -1.7475,-0.425 -5.53625,-0.26625 -6.265,1.70125 -0.57,1.54 0.76875,5.2837504 1.60625,6.1725004 0.645,0.68375 3.255,2.37999 4.3325,2.48374 1.76125,0.17 5.36124,-0.9025 5.36124,-0.9025 0,0 2.905,4.18125 4.67875,6.145 0.775,0.8575 1.415,1.5475 2.4075,1.56625 0.41,0.007 1.00125,-0.0437 1.00125,-0.0437 z m 50.77372,20.21249 0.7775,-0.0125 c 0.34875,-0.006 0.4425,-0.21875 0.9375,-2.1275 2.84124,-10.97124 3.35999,-17.02999 -3.63125,-24.06624 -1.15125,-1.15875 -2.4925,-2.13124 -3.35625,-1.0925 -0.58625,0.705 -1.185,5.67875 -0.9175,6.765 0.4675,1.89875 1.8525,2.51625 3.4525,3.805 3.61375,2.91375 4.51875,5.09874 4.06,8.97999 -0.35375,2.9775 -1.3225,7.74875 -1.3225,7.74875 z m -61.29371,5.00749 c -0.0575,-1.55249 -0.2325,-3.50249 -0.74375,-3.99374 -0.295,-0.28375 -0.70375,-0.0775 -0.96,-0.23125 -1.1525,-0.69125 0.8075,-3.545 1.74125,-4.635 8.47874,-9.89624 30.44873,-22.18249 42.05747,-24.72498 1.10625,-0.2425 2.2125,-0.4375 2.42125,-0.0638 0.10375,0.18625 -0.0138,0.51374 -0.1925,0.88249 -0.41875,0.8675 -1.09,1.9175 -1.835,3.0425 -15.45999,23.34499 8.92624,-9.0524904 15.84499,-9.9624904 0.63375,-0.3125 1.2275,-0.56375 1.75375,-0.73 2.69375,-0.8475 5.61,-1.0275 5.96374,-3.60875 0.0487,-0.3625 0.0562,-0.81375 0.0437,-1.25125 -0.1175,-4.22874 -7.01749,-2.20625001 -11.87999,-0.35625 -4.50124,1.7125 -11.18374,4.53375 -18.27249,7.8125 -9.17249,4.2437504 -36.63622,16.9824904 -40.50122,28.0474804 -1.245,3.565 -1.01375,7.56 1.46875,10.99624 0.10625,0.1475 0.2025,0.28 0.29125,0.4 -1.12125,-1.52125 3.03875,4.8775 2.79875,-1.62375 z m 67.13245,27.21499 c 0.17,0.11625 0.16875,0.48375 0.0288,0.8225 -0.20625,0.5025 -13.47499,2.94749 -14.09749,2.59749 -0.14125,-0.0788 -0.23125,-0.16875 -0.28375,-0.2825 3.45625,-3.22124 3.64625,-8.30499 3.64625,-8.30624 1.3025,-1.19 5.9175,1.89 10.70624,5.16875 z m -14.26624,-2.24875 c 0.70875,1.8625 -4.45874,4.22125 -5.48249,4.49375 -2.29875,0.61375 -6.91875,-0.38875 -6.36875,-3.0725 0.24,-1.16625 0.91375,-1.55125 2.21,-2.27375 3.235,-1.80375 5.22625,-3.12625 8.20374,-0.97375 0.50625,0.36625 1.15375,1.0825 1.4375,1.82625 z m -5.92124,-12.26999 c 0,0 -2.08125,1.41 -3.56625,2.71499 -2.09875,1.84375 -5.8075,8.4375 -6.5375,11.71875 -0.9225,4.14874 -0.9725,6.35749 -5.25499,4.48374 -2.17375,-0.95125 -6.12125,-3.29999 -6.84375,-5.93999 -0.66625,-2.4325 0.17625,-5.745 -1.975,-5.42375 -0.73125,0.11 -2.43375,2.5425 -3.795,4.02375 -1.37499,1.49625 -6.14374,3.58125 -8.08499,4.40125 -9.60624,4.06124 -21.54499,5.19124 -31.48873,1.2225 -0.62875,-0.25125 -1.21,-0.57 -1.7525,-0.9475 -10.26124006,-7.1475 -3.7462501,-24.09499 -7.7887401,-13.57875 -2.02249996,5.25875 -3.36374996,11.1425 -1.76374996,15.57249 3.91123996,10.82875 12.90624006,12.91625 23.49998006,12.49125 4.985,-0.2 21.66124,-4.83 25.09624,-9.025 1.01125,-1.235 2.06124,-2.7575 3.36749,-2.65375 0.2475,0.02 0.295,0.1575 0.4725,1.38375 0.80875,5.605 4.21625,9.17375 9.855,10.3925 3.1625,0.68375 4.24124,-0.14625 7.72624,-1.15125 4.0675,-1.1725 10.5775,-1.20375 14.23749,-1.4675 4.93,-0.3575 15.834991,-1.86875 18.426241,-7.69375 0.38625,-0.865 0.4975,-1.80875 0.81875,-2.775 1.9125,-5.74249 5.5425,-7.21874 2.34375,-11.52374 -1.90375,-2.5625 -8.358741,-6.39624 -11.627491,-7.86499 -1.1275,-0.5075 -1.25125,-0.58125 -1.2375,-0.73625 0.01,-0.11375 0.0462,-0.22375 0.0875,-0.33125 0.5025,-1.305 1.10875,-1.665 0.7,-2.70125 -0.47,-1.19125 -2.69,-1.85375 -4.465,-3.35 -3.845,-3.24375 -5.165,-8.55999 -7.50499,-5.23 -0.995,1.4125 -3.51125,6.48875 -3.59875,8.355 -0.095,1.99625 0.65375,5.63375 0.65375,5.63375 z m 57.918711,6.96874 c -1.34625,-0.25625 -4.15125,-1.8225 -3.57875,-3.4675 0.505,-1.45375 3.205,-2.05499 4.3675,-1.8 0.8775,0.1925 2.715,1.19375 3.50625,1.95375 0.0587,0.0562 0.1125,0.10875 0.16375,0.15875 0.78625,0.76 3.62875,3.125 -0.0475,3.25375 -0.81,0.0275 -1.9225,0.0663 -1.9225,0.0663 -1.235,0.0437 -1.48375,0.0275 -2.48875,-0.165 z M 94.711069,108.27237 c 0,0 0.025,0.73125 0.025,0.73125 0,0 9.547491,-0.72125 10.371241,-0.78375 10.70374,-0.8075 8.60625,3.66624 20.45249,-2.46 3.61375,-1.87 8.66624,-4.75625 11.69249,-6.758749 2.1275,-1.40875 6.5525,-5.03875 9.36874,-7.56749 1.91625,-1.72125 6.14,-19.13749 7.11,-21.71249 0.46625,-1.24 0.96375,-2.4225 1.2025,-3.4 0.435,-1.78125 -0.785,-1.36 -3.31375,-3.3175 -1.495,-1.15874 -2.1075,-4.13624 -3.32625,-6.21624 -1.905,-3.25125 -6.32124,-6.71375 -9.73249,-6.0675 -6.90375,1.3075 -7.9175,7.69625 -8.56624,14.32624 -0.09,0.92875 -0.15875,1.86375 -0.2775,2.7225 -0.39875,2.88625 -0.47,3.34625 1.14249,7.4775 0.3475,0.8925 0.67,1.655 1.24375,2.28625 0.69125,0.75874 3.98625,2.03624 5.315,2.06124 1.22125,0.0237 2.32375,-0.2375 3.405,-0.805 1.3025,-0.68375 2.575,-1.81249 4.03375,-2.42874 0.625,-0.265 3.72124,-1.19625 4.09124,-0.83 0.3475,0.345 0.16875,1.45125 0.0475,2.1675 -0.1625,0.96624 -0.28,1.16999 -1.16875,2.02749 -6.22374,6.0025 -16.05249,12.86625 -22.90248,15.63874 -2.95375,1.195 -5.97625,1.97375 -8.81,3.2825 -1.29,0.595 -2.53999,1.30125 -3.82999,1.734999 -1.4875,0.50125 -3.02625,0.64125 -4.53875,1.07375 -1.63875,0.46875 -9.807491,4.49625 -11.871241,5.7425 -1.06,0.63875 -1.17625,0.74625 -1.16375,1.075 z M 66.312339,27.739921 c -0.88375,0.13625 -1.56375,4.16749 -2.3375,5.88749 -0.62375,1.3875 -0.515,1.36625 0.86875,2.415 3.96624,3.005 -0.5625,10.18499 -1.23875,13.20499 -0.92,4.11375 2.36125,4.715 6.55999,4.07375 2.7575,-0.4225 3.6075,-1.45 4.3675,-5.73625 0.54125,-3.05874 -1.37125,-2.82874 -5.18,-3.56499 -3.12999,-0.60625 -1.4,-2.465 -0.6375,-5.74375 0.39375,-1.69375 0.16875,-3.04375 -0.1875,-5.3475 -0.2825,-1.8275 -1.7475,-5.25999 -2.21499,-5.18874 z m -63.0074701,-3.3575 c -0.16875,3.12625 -0.17625,6.33749 0.895,8.70999 3.06125,6.775 7.9250001,5.70625 12.5150001,2.54625 0.21625,-0.14875 0.38125,-0.28 0.47875,-0.385 1.01875,-1.10625 2.84749,-4.905 1.84624,-5.91124 -0.43999,-0.44125 -1.56124,-0.33875 -2.59624,0.0913 -0.68,0.2825 -1.2725,0.57125 -1.81375,0.82875 -2.6725,1.27249 -6.0800001,1.39374 -7.7787501,-1.6025 -5.51624,-9.72875 13.6462401,-43.44623 1.6625,-21.2174904 -2.86375,5.3112504 -4.88625,10.9962404 -5.20875,16.9399904 z m 30.2012401,70.1362 -7.26375,7.263749 7.26375,7.26375 7.26249,-7.26375 -7.26249,-7.263749 z"
     style="fill:#000000;stroke:none" />
</svg>
