<?xml version="1.0" encoding="UTF-8" standalone="no"?>
<svg>
  <path
     d="m 111.40494,3.7218518 -0.54125,7.2000002 c 0,0 1.635,0.05 2.76625,0.33375 1.22875,0.3075 2.00375,1.025 2.37125,2.06625 0.45125,1.2775 0.73125,3.563751 2.10875,3.000001 0.23875,-0.0975 0.43125,-0.3175 0.595,-0.6 0.8775,-1.513751 0.91,-4.805001 1.91375,-5.9875012 0.71375,-0.84125 1.92,-0.61625 2.67125,-1.22125 0.72875,-0.58625 1.21125,-3.2575 1.63375,-5.87125 0.14625,-0.91125 0.32375,-1.84625006 0,-1.92000006 -0.14875,-0.03375 -0.40125,0.1125 -0.54125,0 -0.0875,-0.07 -0.13125,-0.24125 -0.21,-0.3675 -0.9875,-1.56249994 -3.89875,2.52125006 -4.125,2.98000006 -1.2575,2.5525 -1.4975,4.095 -2.785,3.11125 -0.77125,-0.58875 -1.7975,-1.92625 -2.6125,-2.42375 -0.4325,-0.26375 -0.80625,-0.2925 -1.6225,-0.3 -0.665,-0.0062 -1.6225,0 -1.6225,0 z m -10.20375,66.4762512 1.73625,-2.57125 -3.882497,-1.8125 c -4.03,-1.88125 -9.46625,-4.52875 -11.415,-7.155 -0.93,-1.255 -1.64625,-2.94875 -2.5675,-4.35 -2.0325,-3.09 -7.015,-7.0725 -9.635,-7.8525 -2.62875,-0.78375 -6.65,-0.41625 -8.21,0.6525 -0.84875,0.58125 -2.62625,4.725 -2.70375,6.3 -0.055,1.12375 0,2.4 0,2.4 l 5.41875,0 c 1.46,0 1.715,0.0188 2.55,0.18625 0.96375,0.19375 3.55375,1.63875 3.9275,1.91375 1.435,1.05875 3.60375,3.27875 3.60375,3.27875 0,0 -8.69125,3.16625 -12.47125,3.62125 -1.7925,0.21625 -6.8475,-0.2525 -7.63875,-1.81625 -0.59625,-1.17875 0.12125,-2.8375 -1.44125,-2.135 -0.96,0.43125 -1.96375,1.88125 -3.21375,2.9225 -5.0725,4.2225 -10.0075,2.18375 -14.5275,-1.67125 -5.1425,-4.38625 -2.17125,-5.75125 -6.2175,-18.3 -0.9025,-2.79875 -6.15,-11.7025 -8.9225,-15 -1.085,-1.29125 -2.225,-1.87375 -2.97375,-0.6 -1.91,3.245 -0.78875,9.53125 0.54,11.4 1.0125,1.4225 2.62375,2.8225 3.78625,4.2 2.345,2.78125 5.865,13.74875 5.13625,17.88 -0.4325,2.45125 -7.435,13.16 -9.1925,14.82 -1.715,1.62125 -6.2425,4.1025 -8.65125,3.9 -4.04375,-0.34 -7.71,-4.455 -9.03625,-8.32125 -2.3875,-6.965 -1.4725,-10.58375 -0.15625,-18.07875 0.1325,-0.7575 0.22875,-1.47 0,-1.8 -0.37375,-0.53625 -1.00375,-0.065 -1.41125,0.76875 -0.19,0.38875 -0.26125,0.6025 -0.7075,2.1475 -3.14250005,10.86625 -6.04875,26.24 4.28125,32.78375 3.4725,2.2 7.90125,2.2325 11.355,0.6 2.12625,-1.00375 4.0975,-2.62 6.26125,-4.45625 2.00125,-1.69625 8.95,-10.82 9.11875,-11.97 0.705,-4.82 0.94125,-3.71125 5.16875,0.52625 2.01625,2.0225 5.0075,2.99375 7.27375,2.64125 1.9475,-0.3025 4.03625,-2.16 6.04375,-3.3475 l 3.04375,-1.8025 2.6675,2.13 1.27875,1.02125 c 0.515,0.215 1.0325,0.4175 1.5375,0.5575 1.42375,0.395 2.76,0.29625 4.12,0 3.03875,-0.66 6.19875,-2.29625 9.52875,-3 2.62125,-0.55375 10.39625,-0.56625 13.7125,0.9 1.29,0.57125 2.50625,1.5125 3.875,2.21375 1.525,0.78125 5.48375,2.08375 6.38125,1.405 0.49,-0.37125 0.54375,-1.3 1.12,-2.56 0.366247,-0.79875 0.943747,-1.7325 1.508747,-2.57 z m 4.0625,-1.73875 c 0.2075,0 0.5175,0 0.5175,0 0.39,0 0.52125,-0.15125 1.315,-1.51625 0.85875,-1.4725 1.615,-3.05625 2.14625,-4.675 0.59625,-1.81875 0.9325,-12.83 0.54,-17.68875 -0.82,-10.155 -2.1625,-25.32 -2.1625,-25.32 l 3.785,0 c 0,0 -0.94,-6.750001 -1.8925,-11.4000012 -1.26625,-6.18125 -2.49375,-9.6625 -6.21875,-6.90000006 -1.26375,0.93750006 -2.33,1.80625006 -2.70375,3.09625006 -0.614997,2.125 2.5125,11.1762502 2.3825,16.3512512 -0.008,0.29 -0.025,0.5725 -0.1025,0.845 -0.105,0.3675 -0.10375,0.5875 0.01,2.2025 0,0 2.45,34.66125 2.45,34.66125 0.0312,0.44625 0.0538,0.7925 0.0688,1.08125 l -0.135,9.2625 z m 9.01375,-43.22875 c -0.1425,1.06 -0.60625,3.46875 -0.3025,4.27375 0.62875,1.6675 4.84375,-3.33625 6.21875,-5.4 0.7425,-1.1125 1.31,-2.15875 2.0225,-3.18375 3.3125,-4.76625 10.66125,-11.1125012 12.03625,-14.2162512 0.795,-1.7925 1.07875,-3.685 1.3525,-5.4 0.0813,-0.50875006 0.16125,-1.00375006 0,-1.20000006 -0.1875,-0.22625 -0.7,-0.05375 -1.215,0.2275 -3.31125,1.79875006 -10.43125,11.35250026 -11.965,13.18625026 -2.83375,3.385001 -6.44375,7.846251 -7.7125,10.530001 -0.20375,0.43 -0.39125,0.86625 -0.435,1.1825 z m 20.44131,39.613138 c 0.008,0.0035 0.025,-0.01151 0.0312,0 0.0162,0.02996 0.0166,0.03741 0,0.0625 2.3e-4,-0.01726 -0.0211,-0.03848 -0.0312,-0.0625 z m -12.5,-17.625 c -0.14082,0.01363 -0.29703,0.06156 -0.4375,0.09375 -5.2375,1.20375 -8.38125,8.0625 -9.28125,13.5625 -0.59875,3.6575 1.15875,6.50625 5.53125,7.65625 1.315,0.34625 1.63375,0.375 3.09375,0.375 l 6.5,0 c 0,0 0.19005,1.645 0.0312,2.90625 -0.24875,1.97375 -10.835,9.735 -12.21875,10.46875 -1.40625,0.745 -2.88,1.3425 -4.5625,1.90625 -7.6025,2.54875 -20.955,5.4575 -23.25,7.21875 -0.855,0.6575 -0.91125,1.7875 0,2.40625 2.175,1.47625 10.45875,2.295 13.28125,2.09375 4.87125,-0.34625 12.915,-3.8875 19.03125,-8.125 6.295,-4.3625 10.95,-12.0425 13.4375,-17.8125 l 0.1875,-0.4375 c 0.7252,-9.994262 -4.44186,-18.357322 -8.40615,-21.40625 -0.95812,-0.645312 -1.95174,-1.00168 -2.9375,-0.90625 z m 1.59994,12.341862 c 0,0.69125 0,0.94875 0,0.94875 0,0 -0.64625,0 -1.42625,0 -0.55875,0 -3.8275,-2.1775 -3.8275,-2.79625 0,-0.9125 0,-1.8675 0,-1.8675 0,0 0.49875,0 1.4475,0 2.2725,0 3.80625,1.19375 3.80625,3.715 z m -39.136247,21.88 c -0.025,-0.05 -0.05875,-0.0913 -0.1,-0.12625 l -14.8075,7.6325 c -1.01375,1.1975 -1.55,2.7325 -1.855,4.49375 -0.4325,2.49125 -0.2575,2.8275 1.24125,2.2425 3.49375,-1.36125 12.79375,-6.79125 14.20625,-8.29375 0.50375,-0.535 2.40875,-3.79625 1.315,-5.94875 z m -38.02625,9.39875 4.58875,5.09125 6.605,-7.3275 -6.605,-7.32875 -4.58875,5.0925 -4.58875,-5.0925 -6.60375,7.32875 6.60375,7.3275 4.58875,-5.09125 z m 26.6675,-57.7175 c 2.9025,2.83 7.1225,4.3025 8.785,1.54 1.0775,-1.7925 2.83375,-5.53 2.83375,-5.53 0,0 -1.785,-2.9925 -3.27375,-4.27875 -1.00125,-0.86375 -2.91125,-1.225 -4.04125,-0.545 -0.99625,0.60125 -2.16,2.33875 -2.79125,1.6275 -0.76625,-0.8625 1.73125,-6.51875 1.8875,-7.00375 1.91,-5.935001 1.80875,-9.6437512 0.34125,-14.5737512 -0.45125,-1.51625 -0.95,-3.0575 -1.64875,-3.66000006 L 74.608693,6.0174097e-4 73.762443,1.0018518 c -1.31875,1.56125 -1.06625,5.65 -0.635,7.3275 0.4025,1.57125 1.10875,3.1300002 1.5075,4.8162502 0.4725,2.005 0.2425,6.688751 -0.4325,8.800001 -0.93125,2.90875 -2.64875,5.575 -2.27,8.75125 0.12875,1.0875 0.2675,1.33 1.39125,2.425 z m -52.775,-22.100001 -5.49875,6.061251 c -0.91375,1.0075 -1.04375,1.18875 -1.3,1.80875 -0.3575,0.86875 -0.48125,2.32125 -0.305,2.51875 0.56875,0.6375 2.5825,-0.91 3.28375,-1.48375 6.13875,-5.023751 8.935,-8.187501 9.9275,-14.6912512 0.50375,-3.30625 -1.07375,-4.58625006 -3.865,-5.00750006 -4.42875,-0.67 -8.82375,0.015 -10.545,3.71500006 0.26875,14.1262512 0.6475,6.0475 4.4025,5.045 4.17875,-1.115 8.67125,-3.59375 3.9,2.0337502 z m 108.019997,22.880001 -5.5,6.06125 c -0.91375,1.0075 -1.04375,1.1875 -1.29875,1.8075 -0.35875,0.86875 -0.4825,2.3225 -0.30625,2.51875 0.57,0.63875 2.58375,-0.91 3.28375,-1.48375 6.13875,-5.0225 8.935,-8.18625 9.9275,-14.69125 0.505,-3.30625 -1.0725,-4.58625 -3.865,-5.0075 -4.42875,-0.66875 -8.82375,0.015 -10.54375,3.715 0.26875,14.12625 0.64625,6.04875 4.4025,5.04625 4.1775,-1.11625 8.67125,-3.59375 3.9,2.03375 z M 51.916193,20.070603 51.404943,9.2568518 c -0.075,-1.60375 -0.105,-1.8825 -0.2975,-2.79125 -0.59125,-2.78625 -2.18,-4.31125 -3.8425,-5.29625 -2.1125,-1.25250006 -3.72625,-1.71750006 -5.90375,0.045 -1.79,1.45 -1.95875,6.7 -1.255,7.52 0.525,0.6125 1.91625,0.5575 3.60125,0.11875 4.2075,-1.09625 4.62875,-0.84375 5.725,4.0937502 0.52,2.34625 0.5825,4.543751 0.32625,6.903751 -0.54375,5.01 -1.8225,7.4475 0.6825,10.38875 1.0425,1.225 2.13125,1.41 4.50875,0.86625 1.69,-0.38625 2.025,-1.25625 2.73375,-3.8525 0.49875,-1.8275 0.8925,-3.465 0.765,-5.2875 -0.25375,-3.615 -3.77625,-10.410001 0.47,-12.0975012 0.78375,-0.3125 1.80125,-0.10875 2.68,0.10375 1.18375,0.2862502 1.385,0.1562502 2.00875,-1.2975 0.5125,-1.19625 1.10625,-2.29625 1.4325,-3.58375 1.225,-4.83000006 -0.65,-6.19375 -4.41375,-4.21500006 -4.3175,2.27000006 -6.25625,11.99500026 -5.33375,18.51500126 0.2825,2.6875 0.59125,5.1075 0.59125,5.1075 0,0 -0.2575,-0.004 -0.565,-0.0362 -1.20875,-0.1325 -3.285,-1.9125 -3.4025,-4.39125 z m -36.35125,29.5175 0.19375,-2.66125 -3.4025,0.84375 c -16.54125,4.10375 -3.73,-27.1125 -6.89875,-21.40125 -3.65125,6.5775 -5.24750005,14.43125 -4.50625005,21.45625 0.0812499,0.76625 0.16875005,1.46375 0.27750005,2.10125 1.72625,10.2425 13.7675,7.445 14.33625,-0.33875 z"
     style="fill:#000000;stroke:none" />
</svg>
