<?xml version="1.0" encoding="UTF-8" standalone="no"?>
<svg>
  <path
     style="fill:#000000;stroke:none"
     d="m 58.897443,45.71162 0.69868,-0.0125 c 0.31372,-0.005 0.39871,-0.19623 0.84242,-1.91106 2.55349,-9.85775 3.01969,-15.30095 -3.26217,-21.62406 -1.03365,-1.04114 -2.23978,-1.91355 -3.01595,-0.98115 -0.52619,0.63369 -1.06489,5.10324 -0.82491,6.07814 0.4212,1.70732 1.66483,2.26102 3.10343,3.41965 3.24592,2.61724 4.05959,4.58204 3.64713,8.06793 -0.31747,2.67598 -1.18863,6.96305 -1.18863,6.96305 z M 14.465693,0 6.6289834,7.8367 14.465693,15.67216 22.301153,7.8367 14.465693,0 z m 22.6777,64.92843 c 3.75837,-1.80357 4.14208,-2.24603 6.52934,-0.65244 2.73348,1.82482 6.85681,5.22322 5.87691,6.85681 -0.36246,0.60369 -8.82661,-0.71868 -10.44769,-1.63359 -0.90116,-0.50745 -3.33717,-2.47475 -2.61224,-3.85211 0.15123,-0.28747 0.43496,-0.61369 0.65368,-0.71867 z m -3.29341,34.11779 c -2.94095,1.91356 -5.36071,3.44965 -6.50184,4.08209 -1.9998,1.10739 -3.35841,1.74357 -5.22323,2.28477 -1.35736,0.39371 -2.98219,0.73867 -4.66952,1.07364 -23.3476396,4.64953 -9.0428396,5.85441 -1.22238,5.98439 4.21582,0.07 14.39229,-3.09468 19.43303,-5.61943 10.13148,-5.07448 16.22461,-14.95598 19.89799,-21.30784 2.66598,-4.60953 4.14208,-7.52174 4.27457,-15.25846 0.01,-0.58494 -0.04,-0.98615 -0.16999,-1.11988 -0.47745,-0.49495 -1.37736,-0.5787 -2.17853,-1.14864 -0.32871,-0.23372 -0.64118,-0.54994 -0.93865,-0.89241 -5.3957,-6.21812 -4.49954,-11.60007 -11.35135,-12.96993 -2.33601,-0.46746 -6.23812,-0.15624 -7.73047,1.9598 -2.53224,3.58713 -4.75452,14.68976 -4.24457,17.42073 0.5112,2.73848 1.40111,4.37456 2.95845,5.34071 4.73952,2.93846 7.02429,1.95856 12.55498,1.07365 0.65368,-0.10499 1.39861,-0.20998 2.24727,-0.32872 1.42611,-0.19998 2.73848,-0.43621 3.13469,0 0.70742,0.77992 -1.10989,2.66473 -2.39601,4.49079 -0.56369,0.80117 -1.27487,1.69983 -2.0223,2.56974 -5.24322,6.10439 -22.72895,16.8408 -15.85214,12.365 z M 5.8828134,5.72692 C 0.44336336,16.8033 -0.95649664,19.57302 0.59084336,27.77719 2.2331834,36.49255 6.1727834,41.51454 14.430693,41.87451 c 3.49965,0.15248 11.36385,0.49495 11.36385,0.49495 0,0 1.73358,6.89555 2.20603,13.66986 0.35621,5.08949 0,10.11023 0,10.11023 0,0 2.07479,-2.04854 3.26592,-3.84086 0.88491,-1.33236 1.53484,-5.21947 1.30612,-7.81046 -0.32872,-3.71212 -0.5212,-8.49539 -0.5037,-12.46749 10e-4,-0.29872 0.004,-0.59369 0.0812,-0.87991 0.10249,-0.38496 0.27622,-0.53744 1.73607,-1.53109 8.10043,-5.5107 9.32531,-5.68568 12.375,-12.74746 1.0224,-2.36851 2.07854,-4.94575 2.25352,-7.9542 0.09,-1.56734 -0.0425,-3.29092 0.65869,-3.99959 0.22372,-0.22623 0.53119,-0.34872 0.75242,-0.55495 0.56869,-0.52994 0.55619,-1.60733 0.27622,-2.85721 C 49.180893,6.94554 44.525113,0 44.525113,0 c 0,0 -2.05854,1.69857 -3.46465,2.8872 -2.56099,2.16603 -3.38841,3.26342 -2.24727,5.9544 0.19248,0.45496 0.44495,0.91741 0.77367,1.30362 0.44495,0.51995 0.54494,0.76742 0.9999,2.471 l 3.35466,12.56623 c 0,0 -2.97845,2.03604 -6.14563,3.82461 -3.75712,2.11979 -7.78046,3.88961 -7.78046,3.88961 l -0.70868,-16.2971 3.26592,0 -2.57849,-13.74611 c -0.32497,-1.73233 -0.38246,-1.94981 -0.57494,-2.16978 -1.83482,-2.09604 -5.77942,2.73222 -6.64183,4.16333 -1.75107,2.9047 -0.47245,5.02824 1.30612,8.8141 0.22497,0.47871 0.43495,0.96991 0.52119,1.4911 0.11874,0.70368 0.13124,0.9774 0.13124,2.74098 l 0,15.68466 c 0,0 -3.03844,0.16123 -5.22322,0 -2.35976,-0.17498 -4.85201,-0.88366 -7.00054,-1.90231 C -1.5527266,25.00622 7.6400934,2.14728 5.8827734,5.72692 z" />
</svg>
