<?xml version="1.0" encoding="UTF-8" standalone="no"?>
<svg>
  <path
     d="m 16.570257,41.059685 0.21775,-3.0475 -3.812001,0.96625 C -5.5557487,43.677185 8.7967553,7.9346749 5.2462543,14.474675 c -4.089376,7.53125 -5.87787697,16.52375 -5.04750097,24.56626 0.09062,0.8775 0.1895,1.67625 0.31,2.40625 1.93437497,11.7275 15.42462867,8.52375 16.06150367,-0.3875 z m 34.65201,-25.70626 0,-8.6612501 c 0,0 -1.376626,0.2475 -1.762501,0 -0.1615,-0.10375 -0.1495,-0.29375 -0.228125,-0.4075 -0.151,-0.21875 -0.636625,-0.15625 -1.1295,-0.0525 -2.601626,0.55125 -5.224252,2.04875 -6.064252,3.8975001 -1.24425,2.73625 -1.28525,6.75625 -3.388501,5.89 -1.704875,-0.7025 -3.148251,-5.11125 -5.052626,-6.9962501 -1.341501,-1.3275 -4.914377,-1.37625 -5.875252,0.77375 -0.710875,1.5900001 0.04588,7.4712501 0.88125,8.8875001 0.594001,1.00625 2.322501,2.58 3.113876,2.665 1.144876,0.12375 2.410251,-1.32875 3.407626,-1.3325 1.25825,-0.004 3.680626,4.87125 3.760126,7.19625 0.127,3.70875 -6.591002,7.0175 -11.162878,10.46001 -11.518003,8.67125 -11.163753,13.16125 -6.169002,24.31875 0.414251,0.925 0.812001,1.81875 1.821376,1.99875 0.592625,0.10625 1.41,0 1.41,0 l 0,-0.66625 0.5875,0 c 0,0 0.371876,-2.57375 0,-4.45 -0.820625,-4.14375 -3.606125,-4.3025 -2.9375,-6.47625 0.296625,-0.965 1.30475,-2.01625 2.35,-3.065 9.919253,-9.95125 18.25088,-15.85376 30.257259,-22.65376 6.040999,-3.42125 14.307999,-7.9325 14.307999,-7.9325 0,0 -2.87075,4.9025 -4.02637,8.14625 -0.5875,1.64875 -0.5875,4.625 0,5.11625 0.43012,0.36 1.6955,0.33875 2.93762,-1.3325 0.91463,-1.23 1.66363,-3.33 2.64375,-5.33 2.08688,-4.2575 5.48188,-8.945 7.34438,-10.3275 8.53625,-6.3312501 14.31751,-3.96625 15.16501,-12.8850001 0.0937,-0.98125 0.11,-2.105 0.11,-2.105 0,0 -1.4775,-0.065 -2.82,0 -2.50501,0.12 -12.57251,4.36 -15.79126,7.26 -0.496,0.44625 -0.9095,0.9325 -1.36425,1.40125 -2.7215,2.8000001 -22.949256,11.7550001 -28.788382,16.3237501 -1.524126,1.1925 -3.484251,2.96625 -4.112751,2.33125 -0.242125,-0.245 -0.174125,-0.88 0,-1.59875 0.526875,-2.175 3.964626,-8.2825 5.287751,-9.395 0.656875,-0.55125 1.1315,-0.57625 2.968376,-0.76 0.969875,-0.0975 2.319251,-0.23875 2.319251,-0.23875 z m 22.663385,86.503765 5.40787,6.13375 7.78375,-8.826245 -7.78375,-8.8275 -5.40787,6.13375 -5.40826,-6.13375 -7.78337,8.8275 7.78337,8.826245 5.40826,-6.13375 z m 64.906638,0 5.40875,6.13375 7.78375,-8.826245 -7.78375,-8.8275 -5.40875,6.13375 -5.4075,-6.13375 -7.78376,8.8275 7.78376,8.826245 5.4075,-6.13375 z M 98.976032,95.199695 c -1.33,4.6725 -3.0275,7.127495 -0.7975,10.893745 2.284998,3.8625 10.859998,1.24 14.603748,-2.625 1.2125,-1.25125 1.3475,-1.4925 1.3475,-2.415 l 0,-2.053745 c 0,0 -0.815,-0.045 -1.50125,0 -1.975,0.12875 -2.8825,1 -4.12875,1.418745 -3.54875,1.19125 -8.33875,-0.749995 -7.50625,-4.398745 1.415,-6.20625 5.6825,-10.30125 1.46375,-12.62625 -1.2875,-0.71 -4.754998,-0.71 -6.056248,0 -1.835,1 -3.78875,4.54125 -4.63375,7.70625 -1.31375,4.9175 1.07625,0.265 5.0425,-0.51625 4.754998,-0.93625 1.55625,6.7575 2.16625,4.61625 z m -14.62126,-25.22126 c -4.06625,-0.44625 -8.13,-1.315 -12.03075,-2.79875 -2.5735,-0.97875 -6.20425,-5.1375 -6.881,-9.09375 -0.27663,-1.6175 0.2905,-3.3325 0,-4.98 -1.122,-6.36625 -11.347755,-7.0975 -15.638756,-5.08 -8.273252,3.89 -16.809129,15.26625 -18.141005,24.19125 -0.772125,5.17376 -0.441875,8.60751 2.065501,10.86876 0.764625,0.68875 1.037125,0.75875 2.725251,0.69625 l 9.128752,-0.335 c 1.688,-0.0625 1.991501,-0.055 3.034126,0.0675 0.7735,0.0913 1.370125,0.3275 2.235,0.7125 1.658626,0.73875 4.304252,2.02 4.304252,2.02 0,0 -3.099501,2.40375 -5.351877,3.98875 -9.281752,6.5325 -29.725633,9.45375 -37.220385,-2.12875 -2.301626,-3.55625 -4.3213757,-12.0625 -4.0660007,-15.25251 0.491,-6.13375 3.9972507,-16.225 3.1277507,-17.38 -1.171751,-1.55625 -2.7716257,1.4525 -4.0661257,4.96625 -3.669376,9.96 -5.915752,28.26126 -0.625501,36.88876 4.2783767,6.977495 12.8373787,10.981245 20.9558807,10.641245 9.385378,-0.39375 15.529004,-3.0375 23.564132,-9.183745 5.268751,-4.03125 5.832501,-5.4975 7.409752,-13.44125 1.777123,-8.95 1.487873,-10.44625 -4.700752,-12.49126 -1.401875,-0.4625 -2.805375,-0.915 -5.004376,-1.06375 -4.766251,-0.32 -13.269379,0.7925 -13.269379,0.7925 0,0 4.784252,-6.2775 7.545002,-9.09875 4.536627,-4.635 10.995503,-6.885 15.483005,-3.65875 0.915253,0.6575 1.483123,1.51375 1.814123,2.7425 0.569,2.115 0.43775,5.33625 1.25113,7.80375 0.80812,2.4525 3.865,6.30001 5.31712,7.44876 1.39875,1.1075 4.20726,1.9575 7.79138,2.5525 10.095,1.675 15.44001,1.95375 22.67626,-2.77875 2.222498,-1.4525 4.058748,-3.43625 7.584998,-5.09376 3.74,-1.76 9.3825,-3.15375 9.3825,-3.15375 l 0,8.36001 c 0,1.91625 0.1125,2.28875 1.11625,3.7325 4.0725,5.855 12.89626,6.1575 19.96501,5.24875 7.0475,-0.90625 18.75125,-3.8475 18.75125,-3.8475 0,0 2.13875,-5.6625 3.215,-10.07876 0.79125,-3.2475 0.63,-7.96875 0.4025,-10.7825 -0.01,-0.11125 -0.0175,-0.22375 -0.0238,-0.335 -0.13125,-2.24875 0.2675,-4.5775 0,-6.75375 -0.26625,-2.16 -1.085,-5.95875 -3.0025,-5.71 -0.3375,0.0437 -0.475,0.23 -1.3675,1.86 -1.32875,2.42875 -3.31,5.65875 -3.4925,7.59 -0.13,1.37 0.3875,4.525 1.09,7.96125 l -0.0463,0.0525 c 0.16625,0.70125 0.32625,1.3675 0.4775,1.985 0.29875,1.3725 0.6125,2.74375 0.91375,4.02 -0.88875,0.26125 -9.7825,2.83876 -15.97875,3.39751 -3.82375,0.345 -13.42501,-0.66625 -15.76376,-5.39126 -0.34125,-0.68875 -0.35125,-1.2775 0,-1.7025 1.955,-2.3675 6.96251,0.0838 10.13376,0.71 0.56625,0.11125 1.15125,0.18625 1.7275,0.11125 0.77625,-0.1 0.9,-0.29625 1.24,-1.955 0.25125,-1.23 0.71125,-2.495 1.28625,-3.4775 0.74125,-1.2675 1.67375,-2.06125 1.87625,-3.90125 0.1125,-1.02375 0,-2.37 0,-2.37 0,0 -4.77375,-0.5625 -8.1325,-1.5325 -2.64126,-0.7625 -7.92626,-3.96375 -10.56501,-6.4925 -4.11125,-3.94 -3.65875,-5.29875 -8.40125,-6.63125 -4.4225,-1.2425 -13.646248,-1.21625 -16.377498,2.8375 -0.8925,1.3275 -1.42625,3.19625 -1.56375,6.10125 -0.095,2.02 0,4.54 0,4.54 l 10.634998,-0.70875 0,-0.71 c 0,0 0.40375,0.0688 0.625,0 0.3425,-0.105 0.17875,-0.7575 0.26625,-1.1175 0.39125,-1.61875 5.21375,1.37375 5.36375,1.4725 2.05875,1.345 3.36875,2.46 2.2025,3.88625 -1.06875,1.30875 -3.9775,1.7725 -6.39,2.865 -3.22375,1.46 -5.559998,4.04125 -8.322498,5.30875 -1.90875,0.875 -4.02125,1.12375 -6.25625,1.41875 -1.92001,0.25375 -3.93001,0.4875 -6.00376,0.67 z m 12.63126,-57.80626 2.645,0 c 1.188748,0 1.356248,-0.0825 1.671248,-0.8225 1.16125,-2.7250001 4.94625,-4.1450001 6.31875,-2.7250001 0.705,0.73 -2.83875,5.2862501 -4.6925,8.5125001 -0.16125,0.28125 -0.27875,0.50625 -0.3125,1.06375 -0.025,0.4325 0,1.065 0,1.065 l 0.62625,0 c 0,0 -0.055,0.445 0,0.70875 0.13375,0.65375 0.935,0.19625 1.61125,-0.30125 2.57875,-1.89375 6.6025,-9.09 7.14625,-13.0350001 0.22125,-1.61 -0.0425,-2.25 -0.93875,-3.68875 -2.69625,-4.33251 -4.1725,-3.17751 -9.07,-1.065 -3.058748,1.32 -4.773748,3.0675 -5.004998,7.44875 -0.0675,1.2787501 0,2.8387501 0,2.8387501 z m -18.74001,34.58751 0,-6.62625 c 0,-1.915 -0.0862,-2.3175 -0.87125,-4.02501 -1.295,-2.82125 -7.91838,-10.815 -8.51175,-11.34 -2.58788,-2.29 -4.44463,-0.0825 -5.00438,3.12125 -0.94762,5.42375 1.08925,4.1275 6.88113,9.64751 2.68963,2.56375 4.16875,6.83875 4.022,11.30625 -0.17187,5.24 -1.16837,9.10125 2.85925,11.74875 1.2275,0.8075 5.73,1.6725 7.09375,1.065 1.80625,-0.80625 4.0875,-6.9275 3.54,-8.75375 -0.89,-2.9725 -4.535,-5.2625 -7.08875,-5.72875 -1.21125,-0.22125 -2.92,-0.415 -2.92,-0.415 z"
     style="fill:#000000;stroke:none" />
</svg>
