<?xml version="1.0" encoding="UTF-8" standalone="yes"?>
<svg xmlns="http://www.w3.org/2000/svg" xmlns:xlink="http://www.w3.org/1999/xlink"
  width="595.276pt" height="841.89pt" viewBox="0 0 595.276 841.89">
  <path
     d="m 106.42265,13.176388 c -0.363,2.271002 0.079,2.828003 1.588,2.131002 1.028,-0.474 14.28801,-8.1880068 16.22501,-10.4970088 0.78,-0.931 1.557,-2.576002 1.832,-4.05700302 0.169,-0.911001 -0.104,-0.879001 -1.086,-0.514 -2.276,0.84600002 -17.27801,9.97800782 -17.74801,10.80400882 -0.439,0.771 -0.721,1.570001 -0.811,2.133001 z M 40.485598,44.323406 c -0.272001,3.635003 -0.12,5.335004 2.880002,6.969005 0.01304,0.008 0.026,0.01496 0.03904,0.022 2.241002,1.209001 5.428004,0.852001 6.549005,-1.940001 0.167,-0.416001 0.264001,-0.909001 0.372001,-1.585002 0.187,-1.169001 -0.093,-2.373002 -1.248001,-2.017001 -0.844001,0.261 -1.836002,1.469001 -2.833003,1.956001 -1.452001,0.708001 -3.412002,-0.511 -4.079003,-2.114001 -0.601001,-1.446002 0.897001,-4.778004 1.560001,-6.802006 0.489001,-1.491001 0.920001,-3.277003 0.600001,-3.600003 -1.055001,-1.066001 -3.113003,5.158004 -3.360003,6.240005 -0.254,1.116001 -0.425,2.145002 -0.48,2.871003 z M 76.632619,36.9054 71.751615,41.754404 c -0.812001,0.806 -0.927001,0.951 -1.154001,1.447001 -0.318,0.695 -0.428,1.857001 -0.271,2.015001 0.505,0.510001 2.293002,-0.729 2.915002,-1.187001 5.449005,-4.019003 7.93101,-6.550005 8.812011,-11.754009 0.448,-2.645002 -0.952001,-3.668003 -3.431006,-4.006003 -3.931004,-0.535001 -7.832007,0.01304 -9.360008,2.973002 0.239,11.301009 0.575,4.838004 3.908003,4.036003 3.709003,-0.893 7.69701,-2.875002 3.462003,1.627002 z m -4.218004,-20.849009 -0.454,-8.6510078 c -0.06696,-1.283001 -0.093,-1.506001 -0.264,-2.233001 -0.525001,-2.229002 -1.936002,-3.449003 -3.411003,-4.23700402 -1.876001,-1.002001 -3.307003,-1.374001 -5.241004,0.036 -1.589001,1.16000102 -1.739002,5.36000402 -1.114001,6.01600502 0.466,0.49 1.702001,0.446 3.197003,0.095 3.735003,-0.877001 4.109003,-0.675 5.082004,3.2750028 0.462,1.877002 0.517,3.635003 0.289,5.523005 -0.483,4.008003 -1.617001,5.958004 0.606,8.310998 0.925001,0.980001 1.892002,1.128001 4.003004,0.693001 1.500001,-0.309 1.797001,-1.005001 2.426002,-3.081995 0.443,-1.462001 0.793,-2.772002 0.68,-4.229003 -0.225,-2.893002 -3.353003,-8.3290068 0.416001,-9.6790078 0.696,-0.25 1.600004,-0.087 2.380005,0.083 1.051001,0.229 1.229001,0.125 1.783001,-1.038001 0.455,-0.957001 0.982001,-1.837002 1.272001,-2.867002 1.087001,-3.86400302 -0.578,-4.95500402 -3.919003,-3.37200302 C 76.313619,2.5163792 74.592617,10.296386 75.410618,15.51239 c 0.251,2.150002 0.526,4.086004 0.526,4.086004 0,0 -0.23,-0.0032 -0.502,-0.02896 -1.073001,-0.106001 -2.916002,-1.530002 -3.020003,-3.513003 z m 20.69002,-4.427004 0.448001,7.903007 2.110002,38.617023 c 0,0 1.432001,-1.435001 2.290001,-2.742002 1.217001,-1.852002 1.281001,-3.444003 1.647002,-5.222005 0.287,-1.395001 0.306,-1.706001 0.188,-3.114002 l -2.310002,-27.552015 -0.219,-4.677003 c 0.229,0.126 0.448,0.24 0.654,0.341 l 3.555001,1.760001 -0.679,-1.870001 c -0.077,-0.212 -0.159,-0.437 -0.241,-0.663001 -0.985999,-2.716002 -1.533,-5.4020038 -2.19,-8.1870068 -0.628001,-2.666002 -1.466001,-6.21700502 -1.466001,-6.21700502 0,0 -0.593001,-0.032 -1.139001,0.04696 -1.503002,0.215001 -4.710004,4.99900402 -4.918004,6.08600502 -0.02,0.103 -0.032,0.206001 -0.036,0.308001 -0.009,0.225 0.008,0.461 0.046,0.705 0.275,1.752002 1.157001,3.2470028 2.260001,4.4770038 z m -29.019026,57.168038 -4.470004,-4.459003 -5.675004,5.662004 5.675004,5.662005 4.470004,-4.460004 4.470003,4.460004 5.675005,-5.662005 -5.675005,-5.662004 -4.470003,4.459003 z m 49.273041,-53.527035 -5.662,5.662005 5.662,5.661996 5.66201,-5.661996 -5.66201,-5.662005 z m 1.544,39.579024 c 0,0 -10.87801,9.292008 -16.06801,12.22201 -4.883004,2.756002 -16.496013,6.098005 -18.000014,6.960006 -0.03696,0.02 -0.06904,0.04096 -0.097,0.072 -3.562006,2.505002 16.906014,1.413001 20.060014,0.675 3.835,-2.400002 10.00801,-8.971007 12.56201,-12.82301 1.74,-2.623002 4.81301,-9.280008 5.45901,-11.82601 0.262,-1.028001 0.417,-1.963001 0.176,-3.074002 -0.124,-0.567001 -2.06401,-4.651004 -1.237,-5.460005 0.249,-0.244 0.766,-0.23 1.033,-0.408 0.404,-0.27 0.231,-0.980001 -0.055,-1.776001 -0.557,-1.551002 -5.97001,-8.817008 -6.75001,-9.060008 -2.147,-0.669 -3.671,3.811003 -4.031,6.710006 -0.155,1.247001 -0.203,2.425002 0.267,3.426002 0.434,0.924001 1.309,1.697002 1.928,2.798003 0.585,1.038001 0.943,2.369002 1.475,3.335002 0.208,0.379001 0.443,0.702001 0.686,1.136001 1.209,2.166002 2.592,7.093006 2.592,7.093006 z m -81.147058,-12.94601 -0.793,0.52 c 0.269,-0.06696 0.425,-0.106 0.425,-0.106 0,0 -1.204001,3.006002 -1.993002,5.353004 -2.237002,6.651006 -3.156002,18.062015 0,23.520019 1.998002,3.457003 3.562003,4.983004 7.056006,4.320004 6.069005,-1.150001 13.303003,-6.558005 17.183006,-12.00001 0.771001,-1.080001 1.383001,-2.220002 1.680001,-3.360003 0.341001,-1.304001 0.269,-2.608002 0.961001,-4.800003 0.355,-1.127001 0.913001,-2.490002 0.913001,-2.490002 0,0 2.249002,5.872004 3.713003,8.327006 2.570002,4.308004 8.190006,5.201004 13.394011,4.850004 3.439002,-0.232 5.955008,-0.54 7.795009,-3.585003 0.507001,-0.84 0.804001,-1.755001 1.300001,-2.616002 1.007001,-1.748001 2.833003,-3.272002 3.577003,-4.910004 1.171001,-2.578002 -0.487,-8.576007 -1.892001,-12.05601 -0.700001,-1.731001 -0.934001,-2.668002 -2.696003,-2.467002 -0.529,0.06104 -0.656,0.195001 -1.265001,1.341002 -1.844001,3.468002 -3.449006,7.201005 -2.039001,9.286007 0.793,1.175001 2.938002,1.902002 3.359002,3.514003 0.292001,1.116001 0,2.726002 0,2.726002 l -9.44701,-0.416 c -1.295001,-0.05704 -1.574002,-0.115 -2.790003,-0.577001 -4.562003,-1.733001 -7.156005,-5.436004 -8.163006,-10.527008 -0.222,-1.122001 -0.301001,-2.244002 -0.479001,-3.360003 -0.547,-3.419003 -6.161005,-16.001013 -9.840008,-19.440016 -1.726001,-1.611993 -4.770996,-3.604995 -4.770996,-3.604995 0,0 -0.587,1.204001 -0.989,2.165002 -1.252001,2.992995 -1.681002,8.055999 -0.240001,9.84 0.961001,1.192001 2.843003,1.951002 4.318996,3.361003 1.142001,1.089001 4.046003,7.347006 5.761005,10.559008 1.686001,3.160003 0.596,5.269005 -1.921002,9.120008 -3.895003,5.962005 -8.993999,10.525008 -15.695005,11.520009 -6.888005,1.024001 -8.714007,-10.808009 -7.104005,-17.452014 0.271,-1.120001 0.649,-2.161002 0.72,-3.188003 0.081,-1.191001 -0.253,-2.364002 -0.03904,-3.367002 z m 6.850006,-9.090008 c 1.754001,-2.657002 2.268002,-7.182006 0.684,-9.171007 -2.594002,-1.744994 -13.983011,-2.876994 -13.423011,-2.775994 -2.166001,-0.390001 -4.415003,-0.795001 -4.415003,-0.795001 -1.276001,-0.23 -1.435001,-0.271 -1.598001,-0.413 -0.764001,-0.669001 -0.343001,-1.522002 0.489,-2.374002 3.302003,-3.382003 11.050009,-8.5820068 14.963012,-9.4220078 -0.689001,0.148 4.938004,0.662001 6.674005,-4.118004 0.479001,-1.342001 0.123001,-2.446002 -1.622001,-3.36800202 C 39.219597,-1.2816238 32.911591,2.9543802 29.793589,5.0363812 23.465584,9.2623852 18.80558,14.94339 17.713579,23.032388 c -0.107,0.794001 -0.168,1.625002 0.193,2.112002 0.113,0.153 0.268001,0.273 0.401001,0.421 0.676,0.758001 0.749,2.274002 1.341001,3.117003 0.473,0.676 1.556001,0.991001 2.769002,0.974001 0.05896,-8e-4 0.118,-0.0024 0.179,-0.0032 0.283,-0.0056 0.554001,-0.01104 0.812001,-0.016 0.095,-0.0016 0.187,-0.004 0.279,-0.0056 -2.547002,0.05296 12.38401,0.998001 11.84401,2.581002 -0.014,0.042 -0.03296,0.086 -0.058,0.132 -0.258001,0.485 -1.096001,0.712 -1.919002,0.912001 C 22.135583,36.031599 12.105575,35.409598 6.6745704,25.816591 4.3055685,21.633595 4.3855685,20.556594 4.7535688,15.44859 4.934569,12.950588 5.1685692,9.8975862 5.9545698,8.0565842 c 0.5370004,-1.260001 1.3570011,-2.432002 1.6790014,-3.600003 0.08,-0.288 0.1290001,-0.575 0,-0.720001 -0.3800004,-0.428 -1.0700009,0.151001 -1.4120012,0.606001 -0.2410002,0.319 -0.3320003,0.483 -0.9120007,1.643001 C 1.9655666,12.669588 -0.9224358,20.862595 0.27656513,28.073592 2.1285667,39.210601 11.061574,43.859605 21.211582,43.367605 c 1.680001,-0.081 3.307003,-0.219 4.640004,-0.356 11.479009,-0.373001 12.29801,-8.834008 14.754012,-10.198009 z"
     style="fill:#000000;stroke:none" />
</svg>
