<?xml version="1.0" encoding="UTF-8" standalone="no"?>
<svg>
  <path
     d="m 133.0282,16.470517 c -0.45375,2.83875 0.0987,3.535 1.985,2.66375 1.285,-0.5925 17.86,-10.2350004 20.28125,-13.1212504 0.975,-1.16375 1.94625,-3.22 2.29,-5.07124999 0.21125,-1.13875 -0.13,-1.09875 -1.3575,-0.6425 -2.845,1.05749999 -21.5975,12.47250039 -22.185,13.50500039 -0.54875,0.96375 -0.90125,1.9625 -1.01375,2.66625 z m -82.421244,38.93374 c -0.34,4.54375 -0.15,6.66875 3.6,8.71125 0.0163,0.01 0.0325,0.0187 0.0488,0.0275 2.80125,1.51125 6.785,1.065 8.18625,-2.425 0.20875,-0.52 0.33,-1.13625 0.465,-1.98125 0.23375,-1.46125 -0.11625,-2.96625 -1.56,-2.52125 -1.055,0.32625 -2.295,1.83625 -3.54125,2.445 -1.815,0.885 -4.265,-0.63875 -5.09875,-2.6425 -0.75125,-1.8075 1.12125,-5.9725 1.95,-8.5025 0.61125,-1.86375 1.15,-4.09625 0.75,-4.5 -1.31875,-1.3325 -3.89125,6.4475 -4.2,7.8 -0.3175,1.395 -0.53125,2.68125 -0.6,3.58875 z m 45.18374,-9.2725 -6.10125,6.06125 c -1.015,1.0075 -1.15875,1.18875 -1.4425,1.80875 -0.3975,0.86875 -0.535,2.32125 -0.33875,2.51875 0.63125,0.6375 2.86625,-0.91125 3.64375,-1.48375 6.81125,-5.02375 9.913754,-8.1875 11.015004,-14.6925 0.56,-3.30625 -1.19,-4.585 -4.288754,-5.0075 -4.91375,-0.66875 -9.79,0.0163 -11.7,3.71625 0.29875,14.12625 0.71875,6.0475 4.885,5.045 4.63625,-1.11625 9.621254,-3.59375 4.3275,2.03375 z m -5.2725,-26.06124 -0.5675,-10.8137504 c -0.0837,-1.60375 -0.11625,-1.8825 -0.33,-2.79125 -0.65625,-2.78625 -2.42,-4.31125 -4.26375,-5.29625 -2.345,-1.25249999 -4.13375,-1.71749999 -6.55125,0.045 -1.98625,1.45 -2.17375,6.7 -1.3925,7.52 0.5825,0.6125 2.1275,0.5575 3.99625,0.11875 4.66875,-1.09625 5.13625,-0.84375 6.3525,4.0937504 0.5775,2.34625 0.64625,4.54375 0.36125,6.90375 -0.60375,5.01 -2.02125,7.4475 0.7575,10.38874 1.15625,1.225 2.365,1.41 5.00375,0.86625 1.875,-0.38625 2.24625,-1.25625 3.0325,-3.85249 0.55375,-1.8275 0.99125,-3.465 0.85,-5.28625 -0.28125,-3.61625 -4.19125,-10.41125 0.52,-12.0987504 0.87,-0.3125 2.000004,-0.10875 2.975004,0.10375 1.31375,0.2862504 1.53625,0.1562504 2.22875,-1.2975 0.56875,-1.19625 1.2275,-2.29625 1.59,-3.58375 1.35875,-4.82999999 -0.7225,-6.19375 -4.89875,-4.21499999 C 95.391946,3.1455166 93.240696,12.870517 94.263196,19.390517 c 0.31375,2.6875 0.6575,5.1075 0.6575,5.1075 0,0 -0.2875,-0.004 -0.6275,-0.0362 -1.34125,-0.1325 -3.645,-1.9125 -3.775,-4.39125 z m 25.862504,-5.53375 0.56,9.87875 2.6375,48.27124 c 0,0 1.79,-1.79375 2.8625,-3.4275 1.52125,-2.315 1.60125,-4.305 2.05875,-6.5275 0.35875,-1.74375 0.3825,-2.1325 0.235,-3.8925 l -2.8875,-34.43999 -0.27375,-5.84625 c 0.28625,0.1575 0.56,0.3 0.8175,0.42625 l 4.44375,2.2 -0.84875,-2.3375 c -0.0962,-0.265 -0.19875,-0.54625 -0.30125,-0.82875 -1.2325,-3.395 -1.91625,-6.7525 -2.7375,-10.2337504 -0.785,-3.3325 -1.8325,-7.77124999 -1.8325,-7.77124999 0,0 -0.74125,-0.04 -1.42375,0.0587 -1.87875,0.26875 -5.8875,6.24874999 -6.1475,7.60749999 -0.025,0.12875 -0.04,0.2575 -0.045,0.385 -0.0113,0.28125 0.01,0.57625 0.0575,0.88125 0.34375,2.1900004 1.44625,4.0587504 2.825,5.5962504 z m -36.273754,71.45999 -5.5875,-5.57375 -7.09375,7.0775 7.09375,7.0775 5.5875,-5.575 5.5875,5.575 7.09375,-7.0775 -7.09375,-7.0775 -5.5875,5.57375 z m 61.591254,-66.90874 -7.0775,7.0775 7.0775,7.07749 7.0775,-7.07749 -7.0775,-7.0775 z m 1.93,49.47374 c 0,0 -13.5975,11.615 -20.085,15.2775 -6.10375,3.445 -20.62,7.6225 -22.5,8.7 -0.0462,0.025 -0.0863,0.0512 -0.12125,0.09 -4.452504,3.13125 21.1325,1.76625 25.075,0.84375 4.79375,-3 12.51,-11.21375 15.7025,-16.02875 2.175,-3.27875 6.01625,-11.6 6.82375,-14.7825 0.3275,-1.285 0.52125,-2.45375 0.22,-3.8425 -0.155,-0.70875 -2.58,-5.81375 -1.54625,-6.825 0.31125,-0.305 0.9575,-0.2875 1.29125,-0.51 0.505,-0.3375 0.28875,-1.225 -0.0688,-2.22 -0.69625,-1.93875 -7.4625,-11.02125 -8.4375,-11.325 -2.68375,-0.83625 -4.58875,4.76375 -5.03875,8.3875 -0.19375,1.55875 -0.25375,3.03125 0.33375,4.2825 0.5425,1.155 1.63625,2.12125 2.41,3.4975 0.73125,1.2975 1.17875,2.96125 1.84375,4.16875 0.26,0.47375 0.55375,0.8775 0.8575,1.42 1.51125,2.7075 3.24,8.86625 3.24,8.86625 z m -101.433744,-16.1825 -0.99125,0.65 c 0.33625,-0.0837 0.53125,-0.1325 0.53125,-0.1325 0,0 -1.505,3.7575 -2.49125,6.69125 -2.79625,8.31375 -3.945,22.5775 0,29.4 2.4975,4.32125 4.4525,6.22875 8.82,5.4 7.58625,-1.4375 16.62874,-8.1975 21.47874,-15 0.96375,-1.35 1.72875,-2.775 2.1,-4.2 0.42625,-1.63 0.33625,-3.26 1.20125,-6 0.44375,-1.40875 1.14125,-3.1125 1.14125,-3.1125 0,0 2.81125,7.34 4.64125,10.40875 3.2125,5.385 10.2375,6.50125 16.7425,6.0625 4.29875,-0.29 7.443754,-0.675 9.743754,-4.48125 0.63375,-1.05 1.005,-2.19375 1.625,-3.27 1.25875,-2.185 3.54125,-4.09 4.47125,-6.1375 1.46375,-3.2225 -0.60875,-10.72 -2.365,-15.07 -0.875,-2.16375 -1.1675,-3.335 -3.37,-3.08375 -0.66125,0.0763 -0.82,0.24375 -1.58125,1.67625 -2.305,4.335 -4.311254,9.00125 -2.54875,11.6075 0.99125,1.46875 3.6725,2.3775 4.19875,4.3925 0.365,1.395 0,3.4075 0,3.4075 l -11.808754,-0.52 c -1.61875,-0.0713 -1.9675,-0.14375 -3.4875,-0.72125 -5.7025,-2.16625 -8.945,-6.795 -10.20375,-13.15875 -0.2775,-1.4025 -0.37625,-2.805 -0.59875,-4.2 -0.68375,-4.27375 -7.70125,-20.00125 -12.3,-24.3 -2.1575,-2.01499 -5.96374,-4.50624 -5.96374,-4.50624 0,0 -0.73375,1.505 -1.23625,2.70625 -1.565,3.74124 -2.10125,10.06999 -0.3,12.29999 1.20125,1.49 3.55375,2.43875 5.39874,4.20125 1.4275,1.36125 5.0575,9.18375 7.20125,13.19875 2.1075,3.95 0.745,6.58625 -2.40125,11.4 -4.86875,7.4525 -11.24249,13.15625 -19.61874,14.4 -8.61,1.28 -10.8925,-13.51 -8.88,-21.815 0.33875,-1.4 0.81125,-2.70125 0.9,-3.985 0.10125,-1.48875 -0.31625,-2.955 -0.0488,-4.20875 z m 8.5625,-11.3625 c 2.1925,-3.32125 2.835,-8.9775 0.855,-11.46375 -3.2425,-2.18124 -17.47875,-3.59624 -16.77875,-3.46999 -2.7075,-0.4875 -5.51875,-0.99375 -5.51875,-0.99375 -1.595,-0.2875 -1.79375,-0.33875 -1.9975,-0.51625 -0.955,-0.83625 -0.42875,-1.9025 0.61125,-2.9675 4.1275,-4.2275 13.8125,-10.7275 18.70375,-11.7775004 -0.86125,0.1850004 6.1725,0.8275004 8.3425,-5.1475 0.59875,-1.6775 0.15375,-3.0575 -2.0275,-4.20999999 -3.9225,-2.07250001 -11.8075,3.22249999 -15.705,5.82499999 -7.91,5.2825004 -13.735,12.3837504 -15.1,22.4949904 -0.13375,0.9925 -0.21,2.03125 0.24125,2.64 0.14125,0.19125 0.335,0.34125 0.50125,0.52625 0.845,0.9475 0.93625,2.8425 1.67625,3.89625 0.59125,0.845 1.945,1.23875 3.46125,1.2175 0.0737,-10e-4 0.1475,-0.003 0.22375,-0.004 0.35375,-0.007 0.6925,-0.0138 1.015,-0.02 0.11875,-0.002 0.23375,-0.005 0.34875,-0.007 -3.18375,0.0662 15.48,1.2475 14.805,3.22625 -0.0175,0.0525 -0.0412,0.1075 -0.0725,0.165 -0.3225,0.60625 -1.37,0.89 -2.39875,1.14 -14.27375,3.46875 -26.81125,2.69125 -33.5999998,-9.3 -2.96125,-5.22874 -2.86125,-6.57499 -2.40125,-12.95999 0.22625,-3.1225 0.51875,-6.93875 1.50125,-9.24 0.67125,-1.5750004 1.69625,-3.0400004 2.09875,-4.5000004 0.1,-0.36 0.16125,-0.71875 0,-0.9 -0.475,-0.535 -1.3375,0.18875 -1.765,0.7575 -0.30125,0.39875 -0.415,0.60375 -1.14,2.05375 -4.18,8.3550004 -7.79,18.5962504 -6.29125005,27.6099904 2.31500005,13.92125 13.48124985,19.7325 26.16874985,19.1175 2.1,-0.10125 4.13375,-0.27375 5.8,-0.445 14.34875,-0.46625 15.3725,-11.0425 18.4425,-12.7475 z"
     style="fill:#000000;stroke:none" />
</svg>
