<?xml version="1.0" encoding="UTF-8" standalone="yes"?>
<svg>
<path
	style="stroke:none; fill:#000000"
	d="m 133.68001,21.050415 -0.18125,-4.15875 c -0.0737,-1.68125 -0.05,-1.9825 0.2425,-3.01251 0.21625,-0.76375 0.445,-1.6 1.02499,-2.13749 1.41251,-1.3125 4.91001,-0.85875 6.5325,-1.9400101 2.33376,-1.5562403 2.33626,-6.9012503 0.53876,-9.06874032 -1.905,-2.29625038 -5.75626,1.35125002 -7.335,3.44000002 -0.96876,1.2825 -1.88751,2.75125 -2.3,4.46624 -0.19125,0.795 -0.2975,1.6975104 -0.44626,2.4875104 l -0.73375,3.86875 -2.41999,-3.08001 c -3.3125,-4.3624904 -2.3025,-5.6587404 -7.16875,-6.8450004 -1.63125,-0.3975 -5.16876,-0.24874 -5.84751,1.58751 -0.53249,1.43625 0.71626,4.9312504 1.49876,5.7600004 0.60125,0.63874 3.0375,2.2225 4.04375,2.31874 1.64375,0.15875 5.0025,-0.84124 5.0025,-0.84124 0,0 2.71124,3.9025 4.36749,5.735 0.72376,0.79875 1.32125,1.44375 2.24751,1.46124 0.3825,0.007 0.93375,-0.0412 0.93375,-0.0412 z m -70.51876,0 -0.18125,-4.15875 c -0.0737,-1.68125 -0.05,-1.9825 0.2425,-3.01251 0.21625,-0.76375 0.44501,-1.6 1.02501,-2.13749 1.4125,-1.3125 4.91,-0.85875 6.53125,-1.9400101 2.335,-1.5562403 2.33625,-6.9012503 0.53999,-9.06874032 -1.905,-2.29625038 -5.75749,1.35125002 -7.335,3.44000002 -0.97,1.2825 -1.88749,2.75125 -2.3,4.46624 -0.19124,0.795 -0.2975,1.6975104 -0.44749,2.4875104 l -0.7325,3.86875 -2.42,-3.08001 c -3.3125,-4.3624904 -2.3025,-5.6587404 -7.17001,-6.8450004 -1.63124,-0.3975 -5.16749,-0.24874 -5.8475,1.58751 -0.53125,1.43625 0.71751,4.9312504 1.49875,5.7600004 0.60251,0.63874 3.0375,2.2225 4.04375,2.31874 1.64376,0.15875 5.00375,-0.84124 5.00375,-0.84124 0,0 2.71126,3.9025 4.36751,5.735 0.72249,0.79875 1.32,1.44375 2.2475,1.46124 0.38249,0.007 0.93374,-0.0412 0.93374,-0.0412 z m 17.08375,29.73 0.72626,-0.0125 c 0.32625,-0.006 0.41374,-0.20375 0.87499,-1.985 2.65251,-10.24001 3.13626,-15.895 -3.38874,-22.4625 -1.075,-1.08125 -2.32626,-1.98875 -3.1325,-1.01875 -0.5475,0.6575 -1.10625,5.29999 -0.8575,6.31374 0.43624,1.7725 1.72999,2.34876 3.2225,3.5525 3.37375,2.71876 4.21874,4.75875 3.78999,8.38 -0.32999,2.77876 -1.235,7.23251 -1.235,7.23251 z m -31.61249,-6.19126 c -0.0537,-1.44874 -0.2175,-3.26999 -0.69376,-3.72749 -0.27625,-0.26501 -0.65749,-0.0725 -0.89624,-0.21625 -1.075,-0.645 0.75374,-3.3075 1.625,-4.325 7.9125,-9.23625 28.41874,-20.70375 39.25249,-23.07625 1.03376,-0.22626 2.06501,-0.40876 2.26001,-0.06 0.0975,0.17374 -0.0125,0.47874 -0.17876,0.82375 -0.39125,0.80999 -1.01874,1.78999 -1.71375,2.83999 -14.42874,21.7875 8.33126,-8.4487404 14.78875,-9.2987504 0.59126,-0.29125 1.14626,-0.52625 1.63751,-0.68125 2.5125,-0.79125 5.23499,-0.95874 5.56499,-3.36875 0.0462,-0.3375 0.0537,-0.75875 0.0412,-1.1675 -0.10871,-3.9462504 -6.54876,-2.05875 -11.08751,-0.3325 -4.20125,1.59875 -10.43875,4.23125 -17.055,7.2925 -8.56125,3.9600004 -34.1925,15.8500004 -37.8,26.1762504 -1.1625,3.32751 -0.94625,7.05625 1.37125,10.26376 0.0987,0.13749 0.18875,0.26124 0.27126,0.3725 -1.04627,-1.42001 2.83624,4.55249 2.61249,-1.51501 z m -5.67125,57.798765 7.61125,-7.611269 -7.61125,-7.611236 -7.61125,7.611236 7.61125,7.611269 z m 53.685,-25.107505 c 0.0737,-0.55875 1.12374,-3.64375 1.34,-3.7375 0.17,-0.0725 0.39875,0.05 0.63749,0.21125 1.21001,0.8125 2.69875,2.6025 4.18751,3.59874 3.52875,2.3625 16.925,1.51876 20.315,-0.31749 3.21,-1.74001 2.3825,-4.21999 4.76124,-9.20625 2.6425,-5.54001 3.40376,-5.58 0.63501,-12.69625 -0.95875,-2.4625 -3.01375,-6.58 -5.07876,-3.80875 -0.79124,1.06 -1.66499,3.08625 -2.23499,4.745 -0.56001,1.625 -0.60875,1.99625 -0.49251,3.70624 l 0.50501,7.41876 -6.57625,0 c -1.715,0 -2.09376,-0.03 -3.7925,-0.31125 -3.75751,-0.62 -6.8475,-2.3 -7.77876,-5.2875 -0.58375,-1.87 -0.0612,-4.39125 -0.26249,-6.69125 -0.23376,-2.66125 -1.79001,-7.36125 -3.4925,-9.29375 -1.1,-1.25 -2.76125,-2.6725 -2.76125,-2.6725 0,0 -1.91375,3.8825 -2.9525,6.48125 -2.37501,5.945 -0.0575,5.49125 3.17499,12.0625 2.22001,4.51375 1.16625,5.855 -3.61875,6.3475 -2.80374,0.28874 -7.52374,-0.0912 -9.97,-2.30625 -2.03749,-1.84375 -2.63375,-3.82375 -4.12374,-3.4075 -1.27626,0.35749 -2.6025,2.56624 -4.19001,4.1275 -6.03875,5.9375 -28.7775,9.2525 -35.36124,8.57 -4.47,-0.46374 -9.02001,-1.4725 -12.82626,-3.0875 -16.59375,-7.03875 -11.66625,-27.4675 -13.31875,-21.79125 -0.64375,2.215 -1.14,4.35124 -1.34375,5.19875 -0.17,0.70625 -0.33374,1.36875 -0.49,1.99375 -3.39749,13.61125 3.93626,24.475 17.41625,28.17625 1.15626,0.3175 2.38875,0.62625 3.70625,0.9375 9.425,2.2275 31.28626,-1.61125 38.40875,-7.93626 2.73625,-2.42874 3.22875,-3.62125 5.7725,-2.50874 2.04251,0.8925 4.06376,2.7375 6.49251,3.46124 1.85249,0.55252 7.50625,-0.14874 11.24499,-0.50874 1.70751,-0.16375 1.91501,-0.31125 2.06751,-1.4675 z m 59.32875,-2.38251 c 0.7725,-0.69874 1.5675,-1.38499 2.16751,-2.14124 3.07999,-3.8775 5.21123,-17.39 4.76124,-19.5525 -0.48375,-2.32501 -1.4375,-4.90875 -2.17375,-6.71126 l -0.66375,-1.62625 1.20626,0.0562 2.29249,0.10746 -1.77124,-3.24126 c -0.16126,-0.29374 -0.32626,-0.56 -0.47626,-0.77375 -1.75375,-2.485 -6.93375,-7.45625 -6.93375,-7.45625 0,0 -1.58001,2.83875 -2.58875,4.91625 -1.63251,3.36126 -2.00625,5.38501 -1.22625,7.92876 3.10375,10.12875 10.44125,13.195 4.4,19.36999 -0.10496,0.10746 -0.21375,0.21126 -0.32626,0.315 -12.21749,11.19375 -21.12124,18.83 -36.35874,25.951246 -2.60501,1.21751 -5.31875,2.43626 -7.96625,3.6225 -11.91126,5.337499 -17.08751,2.3025 0.89,6.232499 1.79875,0.31001 3.57875,0.52876 4.87624,0.4875 0.15125,-0.004 0.31251,-0.0162 0.48251,-0.0362 6.74999,-0.79001 17.12624,-7.424999 22.07125,-11.603749 1.5675,-1.326246 3.2875,-2.722496 4.83874,-3.918746 l 12.49876,-11.92626 z m -91.38875,-18.03124 -6.66125,6.61749 c -1.1075,1.10001 -1.26501,1.29751 -1.57501,1.97501 -0.43375,0.9475 -0.58375,2.53375 -0.37,2.74874 0.69001,0.69626 3.12875,-0.99374 3.97876,-1.61998 7.43499,-5.48376 10.82375,-8.93751 12.025,-16.03876 0.61125,-3.61 -1.3,-5.00626 -4.68126,-5.46751 -5.365,-0.72999 -10.68999,0.0175 -12.77374,4.05626 0.32499,15.42249 0.78374,6.60375 5.33375,5.50875 5.06125,-1.21875 10.50374,-3.92376 4.72375,2.22 z m 19.14375,39.408746 6.1125,6.112509 7.53,-7.528759 -7.53,-7.529996 -6.1125,6.112496 -6.11375,-6.112496 -7.52876,7.529996 7.52876,7.528759 6.11375,-6.112509 z m 45.9525,-51.761246 c 0,0 0.0287,-1.535 0,-2.64 -0.006,-0.22876 -0.0162,-0.44626 -0.03,-0.6525 -0.0225,-0.30875 -4.02,-6.215 -4.36626,-6.50125 -0.94499,-0.78126 -1.36624,-1.11251 -1.10375,-1.84876 1.35751,-3.81624 8.43501,-8.4725 11.05126,-10.13499 3.86126,-2.455 10.02501,-6.1475 12.9375,-7.5225 3.28626,-1.55251 7.43875,-3.27625 7.43875,-3.27625 0,0 -1.2625,5.29125 -1.59125,8.1025 -0.10246,0.8725 -0.1775,2.88624 0.25375,3.45875 0.14625,0.19249 0.35875,0.22749 0.54375,0.1162 0.36875,-0.22501 0.62125,-1.04125 0.8525,-1.925 1.03,-3.94876 1.24876,-6.80875 2.47376,-8.8 0.56874,-0.9225 5.33374,-5.4762504 6.18749,-5.9112604 1.48376,-0.75749 2.76625,-1.16375 3.025,-2.70125 0.2175,-1.29125 0.275,-4.0362404 0.275,-4.0362404 0,0 -0.18624,0.0275 -0.275,0 -0.0875,-0.0275 -0.0787,-0.11495 -0.1062,-0.16876 -0.06,-0.1112 -0.29999,-0.0725000028 -0.5375,-0.0275 -1.24125,0.2362604 -5.73,2.1700104 -10.07124,4.2387604 -6.80001,3.24125 -28.77876,16.1975104 -33.31126,22.4237604 -0.52499,0.72124 -0.98374,1.43873 -1.34625,2.13249 -1.18625,2.265 -0.095,8.17 1.875,10.38125 0.61375,0.6875 1.465,1.255 2.1125,1.9925 0.54501,0.62126 1.62625,3.12875 2.51875,3.3 0.48251,0.0925 1.19375,0 1.19375,0 z m -18.09875,4.37375 7.61125,-7.61126 -7.61125,-7.61125 -7.61125,7.61125 7.61125,7.61126 z m 28.05749,-24.8375 -7.52999,7.52999 7.52999,7.53001 7.52876,-7.53001 -7.52876,-7.52999 z M 0,89.992905 c 0.1875,2.574996 1.38876,4.176256 3.575,4.638756 2.81876,0.59625 4.41376,-0.9325 5.13625,-4.02626 0.15876,-0.677486 0.1237,-1.243736 -0.31375,-1.516236 -0.83,-0.51875 -3.11249,0.02 -4.21499,-0.56624 -1.37251,-0.72876 -1.72125,-3.82751 -1.38125,-5.27501 0.34,-1.45 1.20624,-3.0025 1.44125,-4.12 0.0475,-0.22625 0.07,-0.435 -0.0287,-0.55125 -0.0125,-0.015 -0.025,-0.0287 -0.0375,-0.0412 C 0.85757,77.779215 0.05132,90.687961 7e-5,89.992965 z"/>
</svg>