<?xml version="1.0" encoding="UTF-8" standalone="yes"?>
<svg xmlns="http://www.w3.org/2000/svg" xmlns:xlink="http://www.w3.org/1999/xlink"
  width="595.276pt" height="841.89pt" viewBox="0 0 595.276 841.89">
  <path
     style="stroke:none; fill:#000000"
     d="m 73.975477,21.032917 c -0.108,1.777006 0.094,2.096008 1.981008,1.123004 1.395005,-0.720003 2.948003,-1.501006 4.545011,-2.51101 5.727021,-3.621005 14.366054,-10.4960312 16.186053,-10.7380322 1.036004,-0.137001 1.941007,0.096 2.969011,-0.215001 2.81401,-0.851003 5.45002,-4.505017 5.85702,-7.093027 0.256,-1.62199802 -0.099,-1.83899802 -1.298,-1.39800502 C 100.33556,1.6258518 78.941488,14.5209 74.63448,19.19791 c -0.351001,0.382001 -0.603002,0.901003 -0.659003,1.835007 z M 73.267475,8.8788788 c 0.713002,1.1470042 2.491009,-1.332005 3.531013,-0.798003 0.284001,0.146 0.580002,0.364001 0.886003,0.681002 0.226001,0.235001 0.452002,0.545002 0.661995,0.870004 0.514002,0.7960032 3.329014,5.6600212 3.977016,0.9440032 0.072,-0.519002 0.119001,-1.0910042 0.209001,-1.6220062 0.233001,-1.378005 0.985004,-3.036011 2.55201,-3.278012 0.678002,-0.105001 1.151004,-0.072 1.294005,-1.819007 0.395001,-4.82901002 -0.572002,-5.039011 -3.598014,-1.095004 -0.05696,0.07496 -0.098,0.131 -0.119,0.162 -1.143005,1.733007 -2.392009,1.847007 -3.488015,1.378006 -1.131996,-0.962004 -10.761033,-8.772025 -5.906014,4.577017 z m -0.497002,65.0622132 4.166016,4.166016 5.725015,-5.725022 -5.725015,-5.725013 -4.166016,4.166015 -4.166016,-4.166015 -5.725021,5.725013 5.725021,5.725022 4.166016,-4.166016 z m 13.609045,-50.700167 -5.725022,5.725022 5.725022,5.726021 5.726021,-5.726021 -5.726021,-5.725022 z m -23.244081,5.30402 -5.725014,5.726022 5.725014,5.725013 5.726021,-5.725013 -5.726021,-5.726022 z M 50.867398,54.707028 c 0.161001,0.237001 0.263001,0.843003 0.120001,1.139004 -0.438002,0.908003 -4.231016,-1.332005 -4.910019,-1.740999 -1.348005,-0.812003 -3.631014,-2.69401 -2.856011,-3.680013 0.857004,-1.089005 4.148016,0.676002 5.09402,1.490005 0.949003,0.818003 2.020007,2.010008 2.552009,2.792003 z m -27.360087,28.1841 c -7.683029,1.735 -2.093008,0.104 2.374001,2.43201 0.093,0.049 0.190001,0.097 0.290001,0.144 0.261001,0.122 0.550002,0.236 0.785003,0.418 0.317001,0.247 0.495002,0.284 1.780007,0.374 0,0 0.877003,0.062 2.441009,0.171 6.279024,0.44 15.42705,-3.86101 20.370069,-8.488031 0.354001,-0.331001 0.687002,-0.667002 0.995004,-1.005003 0.639002,-0.703003 7.957022,-11.968038 7.802021,-12.51204 -0.185993,-0.653002 -0.551994,-1.341005 -0.502994,-1.930007 0.038,-0.451002 0.321001,-0.844003 0.656995,-1.347005 1.175004,-1.758007 3.008011,-4.868018 3.008011,-4.868018 l 0.383001,3.650013 c 0.135001,1.281005 0.198001,1.474006 0.625003,1.933008 2.546009,2.73001 10.447039,2.489009 12.889048,1.760006 5.548015,-1.656006 5.633015,-2.470009 9.062028,-9.205034 0.270001,-0.531994 0.523002,-0.968996 0.667003,-1.564998 0.164,-0.678003 0.113,-1.848007 -0.062,-2.887011 0.009,0.054 -0.899003,-6.938026 -1.876007,-9.400036 -0.704002,-1.772006 -2.362009,0.371002 -3.554013,2.326009 -1.298005,2.127008 -2.445011,4.173016 -2.451011,6.674025 -0.0032,1.235005 0.135001,2.51401 0.401002,3.034012 0.700004,1.368005 1.969009,2.911003 1.969009,2.911003 0,0 -2.622012,0.362001 -4.660012,0.490002 -3.279012,0.204 -6.167023,-0.382002 -7.805029,-2.117 -0.472002,-0.500002 -0.607002,-0.730003 -0.716003,-1.520006 -0.269001,-1.954008 0.128001,-4.241016 -1.995007,-3.889015 -0.471002,0.07896 -0.669003,0.276001 -1.361005,1.197005 -0.607003,0.807003 -1.125005,1.789006 -1.453006,2.64401 -0.498002,1.300005 -0.781003,1.700006 -3.187012,2.542001 -3.444005,1.206005 -2.933003,-1.718998 -4.286008,-4.535009 -1.140004,-2.371009 -7.137027,-10.464039 -10.905041,-6.766025 -0.809003,0.794003 -1.814007,2.061007 -2.181008,2.573009 -1.657999,2.305009 -5.196012,9.780029 -3.449005,13.410043 1.475005,3.067011 7.259019,5.084019 10.14103,5.076019 1.082004,-0.0032 2.172008,-0.241001 3.212012,-0.571002 1.233005,-0.392002 1.420005,-0.346001 1.867007,0.453002 0.592002,1.059004 0.959004,3.020011 0.841003,3.497013 -0.12,0.485002 -0.774003,1.234004 -1.654006,2.057008 -9.255035,8.651022 -17.109057,9.824032 -30.461099,12.839042 z M 100.01656,62.397057 c -0.013,-0.064 -0.02304,-0.130001 -0.02904,-0.196001 -0.114,-1.227005 1.022,-2.802011 1,-4.183016 -0.019,-1.131004 -1.976004,-4.608009 -1.313001,-5.619013 0.174001,-0.265001 0.499001,-0.460002 0.807001,-0.666003 l 1.50001,-0.998003 -2.418011,-2.772011 -1.776007,-2.036007 -2.485002,-2.849011 -1.582006,2.856011 c -0.388001,0.700002 -0.759002,1.399005 -0.998003,1.919007 -0.562002,1.226004 -0.440002,1.913007 -0.105001,3.561013 0.706003,3.479005 1.660007,6.428017 3.836007,11.398035 0.837003,1.911007 1.858007,4.133016 1.858007,4.133016 0,0 -0.01904,0.01904 -0.056,0.056 -3.500006,3.504013 -7.896022,6.552017 -12.979041,9.092026 -8.032024,4.012018 -16.474056,6.472028 -25.414082,6.878028 -3.960015,0.18 -6.988026,0.622 1.696999,2.46101 0.657002,0.169 1.438005,0.355 2.356008,0.561 0.595003,0.221 1.258005,0.378 1.932008,0.444 4.216016,0.414 24.429085,-4.62702 30.210107,-9.298034 0.923996,-0.747003 1.673999,-1.574006 2.039,-2.506009 0.352001,-0.901004 0.574002,-1.682007 0.753003,-2.279009 l 1.167004,-9.957029 z M 32.711642,8.5278398e-4 C 32.495017,0.00285278 32.210136,0.01185278 31.936639,0.05085278 c -1.502006,0.215 -4.717018,5.01301802 -4.925019,6.10002302 -0.02,0.103 -0.02104,0.198 -0.02496,0.300001 -0.009,0.225001 -0.01304,0.456001 0.02496,0.700002 0.275001,1.752007 1.172005,3.2450132 2.275009,4.4750172 l 0.450002,7.90003 0.225,4.125016 c 2.32e-4,0.0081 -2.32e-4,0.0169 0,0.025 0.242825,8.343673 0.704651,15.127501 1.150005,21.050079 0.10764,7.074032 1.12678,13.66653 1.050004,20.025076 -0.01792,0.353001 -0.03904,0.586002 -0.07496,0.700002 -1.102004,3.442013 -7.252035,6.400032 -12.475047,7.225027 C 11.282601,73.992132 6.8105759,71.554123 4.0365735,63.376092 3.9635332,63.161092 3.900573,62.951091 3.8365727,62.72609 L 2.9615694,57.52607 C 1.8742693,59.872137 -0.89166113,61.728825 0.28655928,70.026117 1.1105624,75.631131 7.6925873,82.711168 18.736629,80.176158 c 0.509002,-0.117 1.009004,-0.229 1.450006,-0.35 0.958963,-0.263 2.057967,-0.71301 3.174972,-1.27501 C 28.915619,75.761139 35.767653,64.226096 35.561653,57.701071 36.631225,44.010328 34.799946,32.029522 33.661685,19.525927 l -0.225,-4.675018 c 0.23,0.126001 0.444001,0.224001 0.650002,0.325002 L 37.6367,16.950917 36.961658,15.07591 C 36.884698,14.863909 36.818657,14.626909 36.736657,14.400908 35.750653,11.684897 35.193651,9.0108868 34.536649,6.2258768 33.908646,3.5598668 33.061643,8.5278398e-4 33.061643,8.5278398e-4 c 0,0 -0.133376,-0.002000004 -0.350001,0 z M 60.419426,7.5518738 c -1.682998,-0.110001 -3.313004,-0.597002 -2.928003,-1.689006 0.03296,-0.094 0.103001,-0.208001 0.201001,-0.333002 0.857003,-1.092004 2.298009,-1.499005 3.390005,-0.410001 0.362001,0.360001 0.670002,0.895003 0.866003,1.653006 -0.178001,0.649002 -0.934003,0.818003 -1.529006,0.779003 z M 58.959429,11.72689 c 0.446001,-0.04696 0.850003,-0.09 0.850003,-0.09 0,0 0.009,0.04296 0.024,0.120001 0.01904,0.096 0.03296,0.194 0.042,0.292001 -0.655002,4.946018 -7.309027,10.650032 -10.78004,14.911048 -0.092,0.552002 -0.148001,1.413005 0.022,1.632006 0.192,0.247001 0.672002,0.113001 1.139004,-0.119 0.961004,-0.479002 3.205012,-3.007012 5.37202,-5.639022 2.46601,-2.995011 5.587013,-6.585016 6.783018,-10.27403 0.350001,-1.080004 0.684002,-1.530006 0.603002,1.682006 0.0064,0.0072 0.012,0.01304 0.01704,0.02 0.05,0.06496 0.085,0.136001 0.138001,0.194001 0.201,0.217001 0.661002,0.237001 0.974003,0.084 0.339002,-0.165 0.510002,-0.596002 0.606003,-1.137004 0.141,-0.794003 0.406001,-3.9620152 -0.126001,-4.3670172 -0.782003,-0.593002 0.554002,-2.216008 0.494002,-3.170011 -0.129,-2.077008 -0.703003,-3.770015 -2.372009,-5.09102002 -1.493006,-1.181996 -3.622006,-0.947995 -5.008011,0.28600102 -0.01704,0.01504 -0.03296,0.03096 -0.05,0.04704 -3.333013,3.232012 -3.309013,11.1000412 1.272005,10.6190402 z" />
</svg>
