<?xml version="1.0" encoding="UTF-8" standalone="no"?>
<svg>
  <path
     d="m 66.537164,87.320522 5.467437,5.46811 7.86866,-7.86931 -7.86866,-7.86798 -5.467437,5.46678 -5.46744,-5.46678 -7.86866,7.86798 7.86866,7.86931 z M 7.5365447,47.173748 l 4.3837503,0.5225 1.4075,-3.6175 c 0.3875,-0.995 0.525,-1.78625 0.27875,-2.225 -0.81375,-1.44625 -5.6950002,-1.9025 -7.7650003,-3.33875 -2.09375,-1.4525 -3.11875,-5.36625 -2.58875,-7.1825 1.04375,-3.57501 6.1350001,-8.77376 7.1175003,-12.23001 0.11875,-0.4175 0.1775,-0.81 0,-0.97 -0.9075002,-0.82 -4.1175003,2.41625 -4.4750003,2.8675 -4.20125,5.29625 -10.1449999,21.35251 -1.3475,25.28001 0.43875,0.19625 0.86125,0.34875 1.24875,0.485 0.64625,0.2275 1.23125,0.3475 1.74,0.40875 z M 24.176375,59.128134 c 0.20375,2.80124 1.50999,4.54249 3.88749,5.04499 3.06624,0.64875 4.79999,-1.01375 5.58624,-4.37874 0.1725,-0.7375 0.13375,-1.3525 -0.34125,-1.65 -0.90375,-0.56375 -3.38499,0.0225 -4.58374,-0.615 -1.4925,-0.7925 -1.8725,-4.16249 -1.5025,-5.73749 0.36875,-1.57625 1.31125,-3.265 1.5675,-4.47999 0.0525,-0.24625 0.0763,-0.4725 -0.0312,-0.59875 -0.0138,-0.0163 -0.0275,-0.0312 -0.0412,-0.045 -3.60875,-0.8225 -4.48624,13.21623 -4.54124,12.45998 z m 31.5512,-5.55998 0.64,-0.0113 c 0.2875,-0.005 0.365,-0.18 0.77125,-1.75 2.33999,-9.03249 2.76749,-14.02123 -2.98875,-19.81372 -0.9475,-0.95375 -2.0525,-1.755 -2.76374,-0.9 -0.4825,0.58125 -0.975,4.67625 -0.755,5.56999 0.385,1.56375 1.52499,2.07125 2.84249,3.13375 2.975,2.39749 3.72,4.19749 3.3425,7.39124 -0.29125,2.45249 -1.08875,6.37999 -1.08875,6.37999 z m 7.22999,-33.49745 -0.56625,-10.8137301 c -0.0838,-1.60375 -0.1175,-1.8825 -0.33125,-2.79125 -0.655,-2.78624 -2.41875,-4.31124 -4.2625,-5.29624 -2.34499,-1.25249993 -4.13499,-1.71749993 -6.55123,0.045 -1.9875,1.45 -2.175,6.69999 -1.39375,7.51999 0.58375,0.6125 2.12749,0.5575 3.99624,0.11875 4.66874,-1.09625 5.13624,-0.84375 6.35249,4.0937401 0.5775,2.345 0.64625,4.54374 0.3625,6.90374 -0.60375,5.00999 -2.0225,7.44749 0.7575,10.38873 1.15625,1.225 2.365,1.41 5.00249,0.86625 1.875,-0.38625 2.2475,-1.25625 3.03375,-3.85249 0.5525,-1.8275 0.99124,-3.465 0.84874,-5.28749 -0.28124,-3.615 -4.18999,-10.40999 0.52125,-12.0974801 0.86875,-0.3125 2,-0.10875 2.97375,0.10375 1.31375,0.2862501 1.53625,0.1562501 2.22875,-1.2975 0.56999,-1.19625 1.22874,-2.29625 1.58999,-3.58375 1.36,-4.82998993 -0.72125,-6.19374 -4.89749,-4.21498993 -4.78999,2.26999993 -6.94249,11.99498003 -5.91874,18.51497003 0.3125,2.6875 0.65625,5.10749 0.65625,5.10749 0,0 -0.28625,-0.004 -0.6275,-0.0362 -1.34125,-0.1325 -3.64499,-1.91249 -3.77499,-4.39124 z m -50.36617,24.18121 -3.7374974,1.615 c 0,0 -2.962245,15.46997 -2.962245,15.46997 -0.500499,2.81125 -1.062248,5.76499 -1.502747,8.71499 -3.043121,20.38622 12.0249794,35.442436 36.3524394,22.60121 2.88375,-2.00999 6.22624,-4.85124 7.59624,-7.06623 2.27625,-3.67875 2.95125,-9.32249 4.55124,-10.37624 1.4225,-0.9375 3.73375,0.32875 6.63999,0.50125 1.6675,0.1 7.26499,-1.75 8.09874,-2.67624 0.7575,-0.84125 4.55999,-10.77624 5.21624,-13.04373 1.1,-3.80625 1.53125,-15.67998 -1.82875,-18.76497 -1.30499,-1.1975 -1.83374,0.0212 -3.03374,2.22874 -0.97375,1.7925 -1.99,2.94875 -2.37875,5.17874 -0.67625,3.88 1.51125,15.82998 1.51125,15.82998 0,0 -3.095,0.29 -5.43124,0.24625 -4.53499,-0.0875 -7.02624,-1.4425 -9.15124,-4.31374 -1.76249,-2.38125 -4.37624,-6.89999 -4.37624,-6.89999 0,0 -1.3325,1.89874 -2.2825,3.40624 -2.32749,3.695 -2.77249,5.77624 -2.19499,9.21874 0.78125,4.64874 3.65749,13.47122 3.65749,13.47122 0,0 -2.63999,2.1575 -4.59499,3.51375 -8.96124,6.20999 -23.30871,4.84624 -29.3412,-2.05375 -8.1026164,-9.26748 -2.04325,-28.3112 -0.84625,-36.52619 0.0125,-0.0925 0.0263,-0.18375 0.0388,-0.275 z m 59.12865,49.93742 c -8.21498,4.30999 -12.62998,5.33624 -24.29871,9.521236 -1.42375,0.51 -2.82874,1.03374 -4.31374,1.28249 -1.65,0.27625 -1.8325,0.34 -1.8275,0.635 l 0.0112,0.65875 c 0,0 4.23999,-0.71125 7.52124,-0.74875 4.67124,-0.0525 7.39499,1.26375 10.15498,1.675 4.8975,0.73125 10.85999,-1.3575 17.09248,-5.27624 5.48874,-3.452496 16.34997,-9.949986 18.12247,-16.752466 2.18499,-8.37749 5.21249,-20.01997 5.02499,-21.58872 -0.2075,-1.7375 -0.7875,-3.23249 -1.1325,-4.72374 l -0.57375,-2.48125 3.613755,1.31 -2.717505,-7.19499 c -0.145,-0.28375 -0.3,-0.5325 -0.46125,-0.72875 -0.3125,-0.38 -0.6575,-0.54875 -0.99625,-0.9525 -2.01749,-2.39249 -1.76125,-5.04624 -4.44374,-3.94499 -1.1075,0.455 -3.04375,5.25874 -3.37125,7.09874 -0.33749,1.89625 0.3475,4.78874 1.59125,7.19124 0.45625,0.87875 0.94125,1.51875 1.355,2.38999 1.955,4.12 2.79875,13.74998 2.4225,14.98748 -0.0962,0.3175 -0.40875,0.74 -0.82625,1.17875 -10.36499,10.88123 -18.89247,14.86122 -21.94747,16.46372 z m -39.53243,-75.05363 c 3.63374,-4.06499 6.15249,-7.54249 7.08873,-12.8549801 0.36625,-2.07374 -0.14125,-4.96624 -1.74249,-5.77373993 -3.36125,-1.69375007 -11.65498,1.17249993 -13.41748,3.93874993 -1.9375,3.04249 -2.6,6.5824801 0.9325,7.3937301 1.0875,0.25125 2.96124,-0.30125 3.80999,-0.99249 1.4575,-1.1850001 2.12125,-3.6962501 4.24624,-4.3962501 0.0137,-0.005 0.0262,-0.009 0.04,-0.0125 4.60375,-1.47 3.13875,2.6975 1.63625,4.9574901 -0.9425,1.41625 -2.25124,3.21 -3.64249,5.08875 -8.94624,12.08748 -9.17874,14.08747 1.04875,2.65124 z m 60.620678,2.293358 -7.764998,7.76375 7.764998,7.765 7.764997,-7.765 -7.764997,-7.76375 z m -64.908867,8.54064 -7.765,7.76375 7.765,7.765 7.765,-7.765 -7.765,-7.76375 z"
     style="fill:#000000;stroke:none" />
</svg>
