<?xml version="1.0" encoding="UTF-8" standalone="no"?>
<svg>
  <path
     style="fill:#000000;stroke:none"
     d="m 94.428993,12.73557 c -4.369,2.379 -14.106,8.374 -14.468,9.009 -0.402,0.707 -0.661,1.441 -0.744,1.958 -0.333,2.084 0.072,2.596 1.458,1.956 0.531,-0.245 4.63,-2.602 8.424,-4.991 l 5.614,-3.535 -0.548,1.534 c -0.178,0.499 -0.196,0.79 0.127,0.766 5.445,-6.199 8.613997,-5.507 9.325997,-7.926 0.224,-0.761 0.171,-1.252 -0.03,-1.56 -0.993,-1.525 -9.619997,3.041 -9.158997,2.789 z m -57.78,1.421 c 0,0 0.225,-0.002 0.782,-0.006 2.721,2.181 2.544,1.539 2.21,0.472 -1.69,-5.704 -1.773,-13.621 -1.741,-12.622 -0.055,-1.696 -0.113,-2.438 -1.474,-1.738 -2.147,1.105 -4.206,2.798 -4.395,3.37 -0.323,0.974 0.5,5.053 1.207,8.744 0.517,2.693 0.845,29.966 1.064,44.954 0.018,1.222 -0.007,1.394 -0.242,1.721 -0.802,1.113 -3.58,2.231 -4.24,2.465 -6.705,2.373 -13.132,2.441 -18.4612,-0.75 -9.5165,-5.699 -5.7613,-20.03 -7.5088,-15.907 -3.3093,7.807 -3.8619,14.968 0.1977,19.824 2.7974,3.346 10.0391,6.256 15.1683,5.752 4.712,-0.464 10.852,-2.798 13.151,-5.506 1.297,-1.528 4.936,-8.424 5.537,-10.644 1.304,-4.815 -0.865,-17.653 -1.108,-23.269 -0.315,-7.264 -0.147,-16.86 -0.147,-16.86 z m 17.936,13.852 c 4.357,-2.751 8.43,-5.959 13.393,-10.404 0.608,-0.545 1.205,-1.088 1.564,-1.645 0.822,-1.276 0.86,-2.076 3.008,-1.441 0.415,0.123 0.658,0.313 0.985,0.897 0.609,1.087 1.511,3.538 1.511,3.538 0,0 0.515,-2.7 0.518,-4.461 0.002,-1.247 -0.252,-2.023 -0.703,-2.71 -0.471,-0.718 -1.158,-1.338 -1.394,-2.179 -0.49,-1.744 0.955,-4.434 0.642,-6.269 -0.365,-2.135 -2.863,-3.674 -5.008,-3.27 -4.091,0.771 -4.631,6.491 -4.432,10.757 0.021,0.449 0.056,0.802 0.463,1.197 0.634,0.617 2.169,1.337 2.169,1.337 0,0 -2.891,2.746 -5.734,5.107 -5.356,4.446 -13.919,9.271 -17.632,11.843 -5.021,3.479 -5.72,3.848 -1.121,3.148 4.17,-0.635 10.329,-4.535 11.771,-5.445 z m 17.738,-21.789 c 0.465,2.154 -0.534,3.174 -2.328,2.89 -2.091,-0.331 -4.167,-1.027 -3.556,-2.838 0.594,-1.758 3.821,-1.79 5.427,-0.573 0.207,0.157 0.421,0.352 0.457,0.521 z m -62.6357,32.37 c 0.639,-1.361 1.1973,-3.215 1.1973,-3.215 0,0 -2.6912,0.621 -4.4057,0.528 -0.058,-0.003 -0.1153,-0.007 -0.1721,-0.012 -7.6745,-0.665 -2.7719,-17.454 -4.3306,-12.833 -1.6637,4.932 -3.4596,13.534 0.0044,16.053 0.5536,0.402 1.2046,0.665 2.1903,0.87 6.3849,1.328 4.852,0.025 5.5164,-1.391 z m 36.1517,31.828 c -6.022,3.303 -12.567,5.857 -19.946,8.785 -0.786,0.312 -1.553,0.616 -2.378,0.726 -1.112,0.149 -1.238,0.189 -1.261,0.407 -0.017,0.161 -0.087,0.345 0.032,0.482 0.419,0.488 7.442,-0.153 11.992,-0.624 6.952,-0.721 8.836,-1.082 15.274,-5.3 4.343,-2.844 9.668,-7.051 10.328,-8.435 1.474,-3.093 1.352,-7.779 2.704,-9.982 0.491,-0.8 1.131,-0.994 2.86,-1.254 1.017,-0.154 1.904,-0.25 2.839,-0.407 1.823,-0.304 5.626,-1.972 6.257,-2.743 0.562,-0.688 1.04,-1.619 1.6,-2.489 2.205,-3.43 2.882,-2.584 2.907,0.286 0.006,0.7 0.009,1.041 0.009,1.041 0.011,1.222 0.027,1.436 0.159,2.133 0.8,4.219 7.388,3.006 12.363,2.606 2.783,-0.224 3.567,-0.417 5.607,-1.964 0.171,-0.13 0.343,-0.262 0.475,-0.431 0.179,-0.228 0.26,-0.375 0.814,-1.465 2.968997,-5.842 3.554997,-6.205 3.128997,-10.499 -0.279,-2.82 -0.805,-9.043 -3.388997,-7.756 -0.342,0.17 -2.7,4.47 -2.963,5.91 -0.185,1.009 0.18,2.534 0.71,3.615 1.98,4.042 2.17,4.435 -3.894,5.013 -3.307,0.315 -7.392,0.127 -8.855,-1.159 -0.389,-0.343 -0.728,-1.459 -0.915,-2.868 -0.141,-1.068 0.882,-11.29 -3.735,-2.449 -1.091,2.09 -1.548,2.738 -4.983,4.148 -1.326,0.544 -2.573,0.928 -4.514,1.397 -2.726,0.658 -6.82,1.483 -6.82,1.483 0,0 -1.638,-4.731 -2.734,-7.057 -1.195,-2.537 -4.707,-6.034 -7.288,-5.368 -4.694,1.21 -6.064,6.788 -6.692,11.211 -0.715,5.029 0.599,8.361 5.692,9.023 1.86,0.242 4.554,0.207 6.283,0.149 0.647,0.326 0.847,1.349 0.954,2.314 0.526,4.745 -13.765,12.149 -12.621,11.521 z m 10.101,-23.116 c 0.487,1.573 -0.535,1.593 -2.525,1.108 -1.528,-0.372 -5.394,-1.349 -4.736,-3.308 0.67,-1.995 3.554,-1.468 4.974,-0.541 0.569,0.371 1.992,1.786 2.287,2.741 z m 58.329997,10.493 c -1.439,1.239 -5.754,4.927 -9.405,7.764 -8.512997,6.616 -18.302997,9.232 -20.651997,9.993 -0.627,0.204 -1.281,0.396 -1.921,0.553 -7.559,1.849 -6.474,0.598 0.696,3.701 0.563,0.243 1.093,0.484 1.573,0.711 0.936,0.446 1.259,0.547 2.402,0.432 2.496,-0.251 10.828,-3.499 13.984997,-5.472 3.507,-2.193 11.115,-8.337 11.551,-9.235 1.083,-2.229 1.751,-5.608 2.061,-7.488 0.014,0.049 0.021,0.071 0.021,0.071 0,0 0.555,-1.854 0.986,-3.294 1.514,-5.054 1.262,-1.916 0.871,-7.709 -0.115,-1.702 -0.172,-2.542 -0.172,-2.542 0,0 0.157,-0.002 0.377,-0.004 1.24,-0.01 3.76,1.826 1.659,-1.502 -1.299,-2.06 -3.178,-4.824 -4.706,-6.989 -1.3,-1.84 -1.936,-2.072 -2.973,-0.45 -4.636,7.251 -1.655,7.17 1.859,16.22 0.72,1.853 1.406,4 1.788,5.24 z m -64.683997,-45.48 c -0.914,0.8 -1.748,1.621 -2.214,2.401 -0.426,0.714 -0.578,1.582 -0.236,1.892 0.665,0.604 2.581,-0.73 3.784,-1.655 3.637,-2.797 4.833,-4.823 5.675,-9.885 0.491,-2.949 -0.883,-4.521 -4.919,-5.014 -1.762,-0.215 -4.323,0.233 -5.423,1.074 -0.572,0.438 -0.853,1.094 -0.965,2.305 0.356,10.239 -0.997,5.029 4.078,3.313 3.611,-1.22 9.965,-2.96 0.22,5.569 z m -33.593,3.434 -0.444,-8.485 c -0.066,-1.258 -0.092,-1.477 -0.26,-2.19 -0.514,-2.186 -1.8982,-3.383 -3.3451,-4.156 -1.8399,-0.983 -3.244,-1.348 -5.1403,0.036 -1.5592,1.137 -1.706,5.256 -1.0931,5.9 0.4573,0.481 1.669,0.438 3.1356,0.093 3.6632,-0.86 4.0303,-0.662 4.9845,3.212 0.4534,1.841 0.5069,3.566 0.2839,5.417 -0.4735,3.932 -1.5864,5.844 0.5945,8.153 0.907,0.96 1.855,1.106 3.926,0.679 1.471,-0.303 1.763,-0.986 2.38,-3.023 0.434,-1.434 0.777,-2.719 0.666,-4.148 -0.221,-2.837 -3.288,-8.169 0.409,-9.494 0.682,-0.244 1.569,-0.085 2.334,0.082 1.03,0.225 1.205,0.123 1.749,-1.018 0.446,-0.939 0.963,-1.802 1.247,-2.812 1.067,-3.79 -0.566,-4.86 -3.843,-3.307 -3.759,1.781 -5.448,9.412 -4.645,14.528 0.246,2.108 0.516,4.007 0.516,4.007 0,0 -0.225,-0.002 -0.493,-0.029 -1.052,-0.103 -2.86,-1.5 -2.962,-3.445 z m 65.879,51.343 3.866,3.867 5.776,-5.775 -5.776,-5.775 -3.866,3.866 -3.867,-3.866 -5.775,5.775 5.775,5.775 3.867,-3.867 z m -8.597,-39.279 -5.775,5.775 5.775,5.775 5.775,-5.775 -5.775,-5.775 z m 30.287997,-6.549 -5.774997,5.775 5.774997,5.775 5.775,-5.775 -5.775,-5.775 z m -7.067997,-14.126 c 0.057,0 0.084,0 0.084,0 0.899,0 1.063,-0.051 1.642,-0.511 1.834997,-1.459 1.72,-3.772 -0.094,-6.118 -1.164,-1.505 -3.212,0.634 -4.578,2.476 -0.714,0.963 -1.361,2.286 -1.602,3.6 -0.254,1.376 -0.194,2.329 -1.215,1.754 -0.75,-0.422 -1.553,-1.676 -1.951,-2.758 -1.057,-2.872 -1.633,-4.032 -5.252,-3.923 -1.277,0.038 -1.263,1.012 -1.263,3.213 0,0.452 0,0.534 0,0.534 0,0.05 0,0.098 0.001,0.144 0.1,4 0.504,3.797 1.246,3.286 1.48,-1.022 3.684,-0.058 4.614,1.337 0.029,0.043 0.057,0.086 0.084,0.13 0.928,1.464 1.96,3.84 3.496,4.841 0.997,0.65 1.308,-0.285 1.405,-0.94 0.44,-2.975 1.464,-7.065 3.383,-7.065 z" />
</svg>
