<?xml version="1.0"?>
<svg xmlns="http://www.w3.org/2000/svg" version="1.1">
  <path
     d="m 89.192841,27.200598 c -0.61625,-3.205 1.8625,-10.09625 1.76625,-14.7225 -0.0562,-2.7162501 -1.9675,-7.7975001 -3.8275,-10.6000001 -1.0275,-1.54749997 -2.5975,-2.66624997 -3.53375,-1.17749997 -0.66875,1.06499997 -1.165,4.79124997 -0.8825,5.49999997 0.37875,0.95625 1.7275,1.7075 2.65,2.745 2.5,2.8125001 3.27125,10.4712501 2.65,13.5562501 -1.10125,5.46 -4.19,9.89625 -0.59,12.64875 1.25,0.95375 6.04625,2.93375 7.2675,2.06125 0.76,-0.54375 1.75125,-4.51625 1.56625,-5.595 -0.15125,-0.8775 -1.5525,-3.57375 -2.355,-3.8275 -1.425,-0.44875 -4.51375,0.4375 -4.71125,-0.58875 z m -68.2125,17.18 c 0,0 4.71875,-1.54125 6.58875,-1.11625 0.98625,0.225 2.0075,2 2.6475,3.36125 1.1625,2.46875 2.2825,5.65 2.70875,8.17375 0.14125,0.84 0.295,1.61625 1.16,1.91125 0.545,0.18625 1.37375,0.1975 1.37375,0.1975 0,0 0.002,-0.0125 0.008,-0.0375 0.4125,-2.3275 1.3325,-6.23 1.5675,-8.58375 0.24625,-2.47125 0.19125,-3.32875 2.29625,-3.1725 3.18,0.23625 4.26,0.7975 5.65875,-1.74125 1.2525,-2.27625 2.6275,-6.92375 0.43875,-8.43 -6.77,-1.82375 -9.2975,7.08375 -9.72125,9.1225 -0.6,2.87875 -0.85,5.96625 -0.85,5.96625 0,0 -1.65875,-5.33125 -2.87875,-8.21125 -1.3725,-3.23875 -4.91375,-7.60125 -8.735,-6.51 -1.8975,0.54125 -2.565,2.09375 -2.56375,4.14875 0.001,1.89125 0.30125,4.92125 0.30125,4.92125 z m 38.6225,-24.565 -0.56,-10.6762501 c -0.0825,-1.58375 -0.115,-1.85875 -0.32625,-2.75625 -0.6475,-2.75 -2.38875,-4.25625 -4.20875,-5.22875 -2.315,-1.23624997 -4.0825,-1.69624997 -6.4675,0.045 -1.9625,1.43125 -2.1475,6.61375 -1.37625,7.42375 0.57625,0.605 2.1,0.55125 3.945,0.1175 4.61,-1.0825 5.07125,-0.8325 6.2725,4.0412501 0.57,2.31625 0.6375,4.48625 0.3575,6.81625 -0.59625,4.9475 -1.99625,7.35375 0.7475,10.2575 1.14125,1.20875 2.335,1.39125 4.94,0.855 1.85125,-0.38125 2.21875,-1.24125 2.99375,-3.80375 0.54625,-1.805 0.97875,-3.42125 0.83875,-5.22 -0.2775,-3.56875 -4.13625,-10.27875 0.515,-11.9450001 0.8575,-0.3075 1.97375,-0.10625 2.93625,0.1025 1.29625,0.2837501 1.51625,0.155 2.2,-1.28125 0.5625,-1.18 1.2125,-2.26625 1.57,-3.53625 1.3425,-4.76999997 -0.7125,-6.11625 -4.83625,-4.16249997 -4.72875,2.24124997 -6.85375,11.84250007 -5.84375,18.28000007 0.31,2.65375 0.64875,5.0425 0.64875,5.0425 0,0 -0.2825,-0.0038 -0.61875,-0.03625 -1.325,-0.13 -3.59875,-1.88875 -3.7275,-4.335 z m -25.9725,11.66625 7.235,-7.235 -7.235,-7.235 -7.235,7.235 7.235,7.235 z m 58.46875,25.02625 7.235,-7.235 -7.235,-7.235 -7.235,7.235 7.235,7.235 z m -33.73375,22.975003 -5.0275,5.0275 7.235,7.235 7.235,-7.235 -5.0275,-5.0275 5.0275,-5.0275 -7.235,-7.235 -7.235,7.235 5.0275,5.0275 z m -6.33,-5.525 c 0.155,-1.0925 1.14125,-3.59375 1.51,-3.7725 0.76,-0.3675 2.02,0.12 3.17625,0.31875 2.29625,0.395 7.995,-0.5825 10.53375,-1.8825 1.1275,-0.5775 3.75375,-2.34375 4.16,-3.2175 0.29125,-0.6275 0.245,-1.3775 0.395,-2.11875 0.4125,-2.041253 2.30625,-4.013753 2.70875,-6.002503 0.33625,-1.66375 -1.64875,-10.75125 -2.1325,-11.60375 -0.535,-0.945 -1.28875,-1.70125 -1.75125,-2.81125 -0.58,-1.3925 -1.06375,-5.23375 -2.7,-3.91 -0.5475,0.4425 -0.9775,2.01125 -1.205,2.825 -0.52625,1.87375 -0.88125,4.15125 -0.84,5.9875 0.0863,3.8525 1.21,9.71 1.21,9.71 l 0.885,-0.08375 -0.0563,-0.58875 0.295,-0.0275 -0.11,-1.18 0.88375,-0.08375 0.48875,2.6575 c 0.14375,0.78625 0.10625,0.91 -0.37875,1.23375 -0.61875,0.4125 -2.9225,1.1025 -3.09875,1.15 -4.1175,1.11625 -11.63375,0.3675 -14.35375,-2.81625 -0.295,-0.345 -0.545,-0.71375 -0.7725,-1.15375 -1.2925,-2.50125 -1.655,-5.27875 -3.09875,-4.135 -1.49125,1.18375 -2.82125,7.57875 -2.255,9.738753 0.25375,0.97 0.8325,1.98625 1.33625,3.14 1.49875,3.43625 2.59125,8.0275 1.77125,9.35375 -0.135,0.2175 -2.385,1.825 -4.8,3.3525 -3.62125,2.29375 -13.5925,5.7275 -17.89375,4.97625 -4.265,-0.74375 -9.20875,-2.72375 -11.48575,-4.81875 -2.09138,-1.92375 -4.8987504,-5.7925 -5.4936304,-7.765 -0.30387,-1.0075 -0.48925,-3.15 -0.55275,-5.36625 -0.20875,-7.295003 0.19038,-6.936253 3.8683804,-13.125003 1.29962,-2.18625 2.48875,-4.215 2.65875,-5.02625 0.0538,-0.25125 0.075,-0.485 -0.055,-0.59 -0.3945,-0.3125 -1.02413,0.25125 -1.41913,0.72875 -0.87237,1.055 -6.1060004,8.85125 -6.7501214,10.8125 -0.194375,0.59125 -0.312125,1.19625 -0.51375,1.79125 -0.20825,0.615 -0.506125,1.22 -0.75025,1.835 -0.680375,1.713753 -1.13975,5.902503 -1.1395,9.945003 6.25e-4,12.16125 9.9771214,21.1325 22.0365014,21.345 2.375,0.0413 4.7825,-0.28125 6.95,-0.9575 7.65,-2.38875 17.695,-10.50125 18.73875,-17.865 z M 112.34375,56.499868 c -7.32875,0.29 -21.369999,6.991253 -27.843749,11.843753 -3.27875,2.4575 -14.42625,15.5175 -16.25,18.75 -0.90375,1.59875 -1.79375,3.20125 -2.5,4.5 -1.995,3.67 -4.93,4.975 -9.09375,3.59375 -3.1275,-1.0375 -6.165,-6.18625 -6.875,-9.96875 -0.36125,-1.92375 -0.16875,-4.78 0.125,-6.65625 0.0413,-0.26625 0.0913,-0.54625 0.15625,-0.8125 0,0 -0.63,1.0475 -1.5625,2.59375 -0.09,0.14875 -0.17375,0.34375 -0.25,0.53125 -2.155,5.21125 -1.06375,11.04625 0.75,15.40625 2.6175,6.293749 7.6475,12.036249 15.75,6.937499 0.009,-0.005 0.0238,0.004 0.0312,0 2.15875,-1.37125 5.27,-7.597499 6.71875,-10.156249 5.50864,-8.00571 11.66335,-14.50626 19.59375,-19.78125 2.8925,-1.995 18.006249,-10.21125 22.124999,-5.1875 0.385,0.46875 0.76375,1.05625 1.3125,1.28125 2.885,1.18375 3.01625,-5.7125 3.125,-6.96875 0.4275,-4.920003 -0.42875,-6.100003 -5.3125,-5.906253 z M 0.01358964,34.608098 c -0.210625,4.5375 2.05737496,10.29125 4.69887496,12.01125 1.089625,0.71 3.870746,1.7175 5.5436264,2.00875 0.79362,0.1375 5.39925,-0.8175 5.7205,-1.18625 0.4675,-0.5375 2.48875,-5.34375 1.63125,-6.05 -0.355,-0.2925 -1.3825,-0.225 -2.3775,0.025 -3.55413,0.89375 -3.60313,1.4 -6.8890004,-0.15 -1.646751,-0.77625 -2.360126,-1.17875 -3.036376,-2.58625 -2.773375,-5.77 -2.8855,-7.895 -1.56975,-13.5375 0.42725,-1.8325 0.902875,-3.365 1.7405,-5.22125 1.886376,-4.17875 5.7261264,-10.7962501 5.9686264,-12.4600001 0.037,-0.25375 0.0385,-0.47125 -0.0554,-0.59 -0.15588,-0.19625 -0.5745,-0.11625 -0.98488,0.0925 -0.4723704,0.24125 -5.2577464,8.8637501 -5.9532464,10.7275001 -1.525875,4.08875 -4.17487496,11.26625 -4.43724996,16.91625 z"
     style="fill:#000000;stroke:none" />
</svg>
